<?xml version="1.0" encoding="UTF-8" standalone="no"?>
<!DOCTYPE svg PUBLIC "-//W3C//DTD SVG 1.1//EN"
 "http://www.w3.org/Graphics/SVG/1.1/DTD/svg11.dtd">
<!-- Generated by graphviz version 2.40.1 (20161225.0304)
 -->
<!-- Title: zrtos_vfs_module_avr_adc__on_read Pages: 1 -->
<svg width="460pt" height="263pt"
 viewBox="0.00 0.00 460.00 263.00" xmlns="http://www.w3.org/2000/svg" xmlns:xlink="http://www.w3.org/1999/xlink">
<g id="graph0" class="graph" transform="scale(1 1) rotate(0) translate(4 259)">
<title>zrtos_vfs_module_avr_adc__on_read</title>
<polygon fill="#ffffff" stroke="transparent" points="-4,4 -4,-259 456,-259 456,4 -4,4"/>
<!-- Node5 -->
<g id="node1" class="node">
<title>Node5</title>
<polygon fill="#bfbfbf" stroke="#000000" points="0,-120.5 0,-150.5 113,-150.5 113,-120.5 0,-120.5"/>
<text text-anchor="start" x="8" y="-138.5" font-family="Helvetica,sans-Serif" font-size="10.00" fill="#000000">zrtos_vfs_module_avr</text>
<text text-anchor="middle" x="56.5" y="-127.5" font-family="Helvetica,sans-Serif" font-size="10.00" fill="#000000">_adc__on_read</text>
</g>
<!-- Node6 -->
<g id="node2" class="node">
<title>Node6</title>
<g id="a_node2"><a xlink:href="adc_8h.html#a0856083e8efa21689d5bc6ced44c123f" target="_top" xlink:title="zrtos_vfs_module_avr\l_adc__to_volt">
<polygon fill="#ffffff" stroke="#000000" points="166.5,-224.5 166.5,-254.5 279.5,-254.5 279.5,-224.5 166.5,-224.5"/>
<text text-anchor="start" x="174.5" y="-242.5" font-family="Helvetica,sans-Serif" font-size="10.00" fill="#000000">zrtos_vfs_module_avr</text>
<text text-anchor="middle" x="223" y="-231.5" font-family="Helvetica,sans-Serif" font-size="10.00" fill="#000000">_adc__to_volt</text>
</a>
</g>
</g>
<!-- Node5&#45;&gt;Node6 -->
<g id="edge1" class="edge">
<title>Node5&#45;&gt;Node6</title>
<path fill="none" stroke="#191970" d="M70.5342,-150.5656C87.5917,-168.0953 117.9619,-196.8801 149,-214.5 152.7147,-216.6088 156.6357,-218.5772 160.6559,-220.4077"/>
<polygon fill="#191970" stroke="#191970" points="159.5926,-223.7581 170.1661,-224.4301 162.3195,-217.3111 159.5926,-223.7581"/>
</g>
<!-- Node7 -->
<g id="node3" class="node">
<title>Node7</title>
<g id="a_node3"><a xlink:href="mem_8h.html#ac36c32ce5585de38fd4b77b2a322ac78" target="_top" xlink:title="zrtos_mem__cpy">
<polygon fill="#ffffff" stroke="#000000" points="177,-186 177,-205 269,-205 269,-186 177,-186"/>
<text text-anchor="middle" x="223" y="-193" font-family="Helvetica,sans-Serif" font-size="10.00" fill="#000000">zrtos_mem__cpy</text>
</a>
</g>
</g>
<!-- Node5&#45;&gt;Node7 -->
<g id="edge2" class="edge">
<title>Node5&#45;&gt;Node7</title>
<path fill="none" stroke="#191970" d="M87.2387,-150.6648C104.9965,-159.0333 127.9262,-169.1809 149,-176.5 156.0568,-178.9509 163.5902,-181.243 171.049,-183.3275"/>
<polygon fill="#191970" stroke="#191970" points="170.1988,-186.7232 180.765,-185.9442 172.0193,-179.9641 170.1988,-186.7232"/>
</g>
<!-- Node9 -->
<g id="node5" class="node">
<title>Node9</title>
<g id="a_node5"><a xlink:href="adc_8h.html#a9fa53b76bfdb02f6b5683ec4a5171fc6" target="_top" xlink:title="ZRTOS_VFS_PLUGIN__INIT">
<polygon fill="#ffffff" stroke="#000000" points="149,-148 149,-167 297,-167 297,-148 149,-148"/>
<text text-anchor="middle" x="223" y="-155" font-family="Helvetica,sans-Serif" font-size="10.00" fill="#000000">ZRTOS_VFS_PLUGIN__INIT</text>
</a>
</g>
</g>
<!-- Node5&#45;&gt;Node9 -->
<g id="edge4" class="edge">
<title>Node5&#45;&gt;Node9</title>
<path fill="none" stroke="#191970" d="M113.3342,-143.0096C122.1896,-144.1797 131.4899,-145.4086 140.7732,-146.6352"/>
<polygon fill="#191970" stroke="#191970" points="140.4457,-150.1223 150.8181,-147.9624 141.3628,-143.1826 140.4457,-150.1223"/>
</g>
<!-- Node10 -->
<g id="node6" class="node">
<title>Node10</title>
<g id="a_node6"><a xlink:href="adc_8h.html#a4dcf469440165b0d8381dbedc4f44d1a" target="_top" xlink:title="zrtos_vfs_module_avr\l_adc__on_mount">
<polygon fill="#ffffff" stroke="#000000" points="166.5,-98.5 166.5,-128.5 279.5,-128.5 279.5,-98.5 166.5,-98.5"/>
<text text-anchor="start" x="174.5" y="-116.5" font-family="Helvetica,sans-Serif" font-size="10.00" fill="#000000">zrtos_vfs_module_avr</text>
<text text-anchor="middle" x="223" y="-105.5" font-family="Helvetica,sans-Serif" font-size="10.00" fill="#000000">_adc__on_mount</text>
</a>
</g>
</g>
<!-- Node5&#45;&gt;Node10 -->
<g id="edge5" class="edge">
<title>Node5&#45;&gt;Node10</title>
<path fill="none" stroke="#191970" d="M113.3342,-127.9904C127.131,-126.1674 142.0077,-124.2017 156.2177,-122.3241"/>
<polygon fill="#191970" stroke="#191970" points="156.9666,-125.7556 166.422,-120.9758 156.0496,-118.816 156.9666,-125.7556"/>
</g>
<!-- Node11 -->
<g id="node7" class="node">
<title>Node11</title>
<g id="a_node7"><a xlink:href="adc_8h.html#a48983d0f29f931543b5cf8b43a9efa84" target="_top" xlink:title="zrtos_vfs_module_avr\l_adc__on_umount">
<polygon fill="#ffffff" stroke="#000000" points="166.5,-49.5 166.5,-79.5 279.5,-79.5 279.5,-49.5 166.5,-49.5"/>
<text text-anchor="start" x="174.5" y="-67.5" font-family="Helvetica,sans-Serif" font-size="10.00" fill="#000000">zrtos_vfs_module_avr</text>
<text text-anchor="middle" x="223" y="-56.5" font-family="Helvetica,sans-Serif" font-size="10.00" fill="#000000">_adc__on_umount</text>
</a>
</g>
</g>
<!-- Node5&#45;&gt;Node11 -->
<g id="edge6" class="edge">
<title>Node5&#45;&gt;Node11</title>
<path fill="none" stroke="#191970" d="M84.3782,-120.3965C102.5016,-110.8893 126.805,-98.718 149,-89.5 154.3753,-87.2675 160.0283,-85.0809 165.7149,-82.9875"/>
<polygon fill="#191970" stroke="#191970" points="167.0412,-86.2302 175.2734,-79.5608 164.6788,-79.6408 167.0412,-86.2302"/>
</g>
<!-- Node12 -->
<g id="node8" class="node">
<title>Node12</title>
<g id="a_node8"><a xlink:href="vfs__plugin_8h.html#a0ef2a78a228057aca4aeb49963044b1a" target="_top" xlink:title="zrtos_vfs_plugin__default\l_can_write_read_only">
<polygon fill="#ffffff" stroke="#000000" points="159,-.5 159,-30.5 287,-30.5 287,-.5 159,-.5"/>
<text text-anchor="start" x="167" y="-18.5" font-family="Helvetica,sans-Serif" font-size="10.00" fill="#000000">zrtos_vfs_plugin__default</text>
<text text-anchor="middle" x="223" y="-7.5" font-family="Helvetica,sans-Serif" font-size="10.00" fill="#000000">_can_write_read_only</text>
</a>
</g>
</g>
<!-- Node5&#45;&gt;Node12 -->
<g id="edge7" class="edge">
<title>Node5&#45;&gt;Node12</title>
<path fill="none" stroke="#191970" d="M67.6412,-120.1486C83.5051,-99.3202 114.5276,-62.2214 149,-40.5 152.3254,-38.4047 155.8463,-36.4633 159.4759,-34.668"/>
<polygon fill="#191970" stroke="#191970" points="161.0082,-37.8163 168.6726,-30.5014 158.1194,-31.4402 161.0082,-37.8163"/>
</g>
<!-- Node8 -->
<g id="node4" class="node">
<title>Node8</title>
<g id="a_node4"><a xlink:href="mem_8h.html#a9054cc3824c6ffdaf4ed24fde2f80f32" target="_top" xlink:title="zrtos_mem__move_left\l_overlapping">
<polygon fill="#ffffff" stroke="#000000" points="333,-180.5 333,-210.5 452,-210.5 452,-180.5 333,-180.5"/>
<text text-anchor="start" x="341" y="-198.5" font-family="Helvetica,sans-Serif" font-size="10.00" fill="#000000">zrtos_mem__move_left</text>
<text text-anchor="middle" x="392.5" y="-187.5" font-family="Helvetica,sans-Serif" font-size="10.00" fill="#000000">_overlapping</text>
</a>
</g>
</g>
<!-- Node7&#45;&gt;Node8 -->
<g id="edge3" class="edge">
<title>Node7&#45;&gt;Node8</title>
<path fill="none" stroke="#191970" d="M269.3166,-195.5C285.7808,-195.5 304.7001,-195.5 322.6917,-195.5"/>
<polygon fill="#191970" stroke="#191970" points="322.8599,-199.0001 332.8598,-195.5 322.8598,-192.0001 322.8599,-199.0001"/>
</g>
</g>
</svg>
