<?xml version="1.0" encoding="UTF-8" standalone="no"?>
<!DOCTYPE svg PUBLIC "-//W3C//DTD SVG 1.1//EN"
 "http://www.w3.org/Graphics/SVG/1.1/DTD/svg11.dtd">
<!-- Generated by graphviz version 10.0.1 (20240210.2158)
 -->
<!-- Title: atmega328p.h Pages: 1 -->
<svg width="473pt" height="252pt"
 viewBox="0.00 0.00 473.25 252.00" xmlns="http://www.w3.org/2000/svg" xmlns:xlink="http://www.w3.org/1999/xlink">
<g id="graph0" class="graph" transform="scale(1 1) rotate(0) translate(4 248)">
<title>atmega328p.h</title>
<!-- Node1 -->
<g id="Node000001" class="node">
<title>Node1</title>
<g id="a_Node000001"><a xlink:title=" ">
<polygon fill="#999999" stroke="#666666" points="193.88,-244 116.38,-244 116.38,-224 193.88,-224 193.88,-244"/>
<text text-anchor="middle" x="155.12" y="-230.5" font-family="Helvetica,sans-Serif" font-size="10.00">atmega328p.h</text>
</a>
</g>
</g>
<!-- Node2 -->
<g id="Node000002" class="node">
<title>Node2</title>
<g id="a_Node000002"><a xlink:href="arch_8h.html" target="_top" xlink:title=" ">
<polygon fill="white" stroke="#666666" points="176.62,-188 133.62,-188 133.62,-168 176.62,-168 176.62,-188"/>
<text text-anchor="middle" x="155.12" y="-174.5" font-family="Helvetica,sans-Serif" font-size="10.00">arch.h</text>
</a>
</g>
</g>
<!-- Node1&#45;&gt;Node2 -->
<g id="edge1_Node000001_Node000002" class="edge">
<title>Node1&#45;&gt;Node2</title>
<g id="a_edge1_Node000001_Node000002"><a xlink:title=" ">
<path fill="none" stroke="#63b8ff" d="M155.12,-212.13C155.12,-203.9 155.12,-194.85 155.12,-188.3"/>
<polygon fill="#63b8ff" stroke="#63b8ff" points="151.63,-212.08 155.13,-222.08 158.63,-212.08 151.63,-212.08"/>
</a>
</g>
</g>
<!-- Node3 -->
<g id="Node000003" class="node">
<title>Node3</title>
<g id="a_Node000003"><a xlink:href="gpio_8h.html" target="_top" xlink:title=" ">
<polygon fill="white" stroke="#666666" points="124.25,-132 82,-132 82,-112 124.25,-112 124.25,-132"/>
<text text-anchor="middle" x="103.12" y="-118.5" font-family="Helvetica,sans-Serif" font-size="10.00">gpio.h</text>
</a>
</g>
</g>
<!-- Node2&#45;&gt;Node3 -->
<g id="edge2_Node000002_Node000003" class="edge">
<title>Node2&#45;&gt;Node3</title>
<g id="a_edge2_Node000002_Node000003"><a xlink:title=" ">
<path fill="none" stroke="#63b8ff" d="M138.34,-159.57C129.61,-150.5 119.28,-139.78 112.08,-132.3"/>
<polygon fill="#63b8ff" stroke="#63b8ff" points="135.56,-161.73 145.02,-166.5 140.6,-156.87 135.56,-161.73"/>
</a>
</g>
</g>
<!-- Node9 -->
<g id="Node000009" class="node">
<title>Node9</title>
<g id="a_Node000009"><a xlink:href="zrtos_8h.html" target="_top" xlink:title=" ">
<polygon fill="white" stroke="#666666" points="326.12,-132 280.12,-132 280.12,-112 326.12,-112 326.12,-132"/>
<text text-anchor="middle" x="303.12" y="-118.5" font-family="Helvetica,sans-Serif" font-size="10.00">zrtos.h</text>
</a>
</g>
</g>
<!-- Node2&#45;&gt;Node9 -->
<g id="edge8_Node000002_Node000009" class="edge">
<title>Node2&#45;&gt;Node9</title>
<g id="a_edge8_Node000002_Node000009"><a xlink:title=" ">
<path fill="none" stroke="#63b8ff" d="M187.74,-165.1C215.58,-154.94 254.93,-140.58 279.73,-131.54"/>
<polygon fill="#63b8ff" stroke="#63b8ff" points="186.58,-161.8 178.38,-168.51 188.98,-168.37 186.58,-161.8"/>
</a>
</g>
</g>
<!-- Node4 -->
<g id="Node000004" class="node">
<title>Node4</title>
<g id="a_Node000004"><a xlink:href="vfs_2module_2gpio_2gpio_8h.html" target="_top" xlink:title=" ">
<polygon fill="white" stroke="#666666" points="47.25,-76 5,-76 5,-56 47.25,-56 47.25,-76"/>
<text text-anchor="middle" x="26.12" y="-62.5" font-family="Helvetica,sans-Serif" font-size="10.00">gpio.h</text>
</a>
</g>
</g>
<!-- Node3&#45;&gt;Node4 -->
<g id="edge3_Node000003_Node000004" class="edge">
<title>Node3&#45;&gt;Node4</title>
<g id="a_edge3_Node000003_Node000004"><a xlink:title=" ">
<path fill="none" stroke="#63b8ff" d="M80.31,-105C67.08,-95.72 50.87,-84.35 39.64,-76.48"/>
<polygon fill="#63b8ff" stroke="#63b8ff" points="78.28,-107.85 88.47,-110.72 82.3,-102.12 78.28,-107.85"/>
</a>
</g>
</g>
<!-- Node6 -->
<g id="Node000006" class="node">
<title>Node6</title>
<g id="a_Node000006"><a xlink:href="spi_2spi_8h.html" target="_top" xlink:title=" ">
<polygon fill="white" stroke="#666666" points="102.62,-76 65.62,-76 65.62,-56 102.62,-56 102.62,-76"/>
<text text-anchor="middle" x="84.12" y="-62.5" font-family="Helvetica,sans-Serif" font-size="10.00">spi.h</text>
</a>
</g>
</g>
<!-- Node3&#45;&gt;Node6 -->
<g id="edge5_Node000003_Node000006" class="edge">
<title>Node3&#45;&gt;Node6</title>
<g id="a_edge5_Node000003_Node000006"><a xlink:title=" ">
<path fill="none" stroke="#63b8ff" d="M96.09,-101C93.11,-92.54 89.78,-83.08 87.4,-76.3"/>
<polygon fill="#63b8ff" stroke="#63b8ff" points="92.69,-101.89 99.31,-110.17 99.3,-99.57 92.69,-101.89"/>
</a>
</g>
</g>
<!-- Node8 -->
<g id="Node000008" class="node">
<title>Node8</title>
<g id="a_Node000008"><a xlink:href="spi__sync_8h.html" target="_top" xlink:title=" ">
<polygon fill="white" stroke="#666666" points="178.75,-20 115.5,-20 115.5,0 178.75,0 178.75,-20"/>
<text text-anchor="middle" x="147.12" y="-6.5" font-family="Helvetica,sans-Serif" font-size="10.00">spi_sync.h</text>
</a>
</g>
</g>
<!-- Node3&#45;&gt;Node8 -->
<g id="edge7_Node000003_Node000008" class="edge">
<title>Node3&#45;&gt;Node8</title>
<g id="a_edge7_Node000003_Node000008"><a xlink:title=" ">
<path fill="none" stroke="#63b8ff" d="M111.14,-100.97C120.7,-77.07 136.28,-38.11 143.38,-20.35"/>
<polygon fill="#63b8ff" stroke="#63b8ff" points="107.9,-99.63 107.44,-110.22 114.4,-102.23 107.9,-99.63"/>
</a>
</g>
</g>
<!-- Node5 -->
<g id="Node000005" class="node">
<title>Node5</title>
<g id="a_Node000005"><a xlink:href="vfs_2module_2arduino_2gpio_8h.html" target="_top" xlink:title=" ">
<polygon fill="white" stroke="#666666" points="42.25,-20 0,-20 0,0 42.25,0 42.25,-20"/>
<text text-anchor="middle" x="21.12" y="-6.5" font-family="Helvetica,sans-Serif" font-size="10.00">gpio.h</text>
</a>
</g>
</g>
<!-- Node4&#45;&gt;Node5 -->
<g id="edge4_Node000004_Node000005" class="edge">
<title>Node4&#45;&gt;Node5</title>
<g id="a_edge4_Node000004_Node000005"><a xlink:title=" ">
<path fill="none" stroke="#63b8ff" d="M24.19,-44.13C23.43,-35.9 22.59,-26.85 21.99,-20.3"/>
<polygon fill="#63b8ff" stroke="#63b8ff" points="20.71,-44.45 25.11,-54.09 27.68,-43.81 20.71,-44.45"/>
</a>
</g>
</g>
<!-- Node7 -->
<g id="Node000007" class="node">
<title>Node7</title>
<g id="a_Node000007"><a xlink:href="avr_2spi_2spi_8h.html" target="_top" xlink:title=" ">
<polygon fill="white" stroke="#666666" points="97.62,-20 60.62,-20 60.62,0 97.62,0 97.62,-20"/>
<text text-anchor="middle" x="79.12" y="-6.5" font-family="Helvetica,sans-Serif" font-size="10.00">spi.h</text>
</a>
</g>
</g>
<!-- Node6&#45;&gt;Node7 -->
<g id="edge6_Node000006_Node000007" class="edge">
<title>Node6&#45;&gt;Node7</title>
<g id="a_edge6_Node000006_Node000007"><a xlink:title=" ">
<path fill="none" stroke="#63b8ff" d="M82.19,-44.13C81.43,-35.9 80.59,-26.85 79.99,-20.3"/>
<polygon fill="#63b8ff" stroke="#63b8ff" points="78.71,-44.45 83.11,-54.09 85.68,-43.81 78.71,-44.45"/>
</a>
</g>
</g>
<!-- Node10 -->
<g id="Node000010" class="node">
<title>Node10</title>
<g id="a_Node000010"><a xlink:href="stack_8h.html" target="_top" xlink:title=" ">
<polygon fill="white" stroke="#666666" points="465.25,-76 417,-76 417,-56 465.25,-56 465.25,-76"/>
<text text-anchor="middle" x="441.12" y="-62.5" font-family="Helvetica,sans-Serif" font-size="10.00">stack.h</text>
</a>
</g>
</g>
<!-- Node9&#45;&gt;Node10 -->
<g id="edge9_Node000009_Node000010" class="edge">
<title>Node9&#45;&gt;Node10</title>
<g id="a_edge9_Node000009_Node000010"><a xlink:title=" ">
<path fill="none" stroke="#63b8ff" d="M336.96,-107.76C361.81,-98.04 394.97,-85.06 417.14,-76.39"/>
<polygon fill="#63b8ff" stroke="#63b8ff" points="335.98,-104.38 327.94,-111.29 338.53,-110.9 335.98,-104.38"/>
</a>
</g>
</g>
<!-- Node12 -->
<g id="Node000012" class="node">
<title>Node12</title>
<g id="a_Node000012"><a xlink:href="task__mutex_8h.html" target="_top" xlink:title=" ">
<polygon fill="white" stroke="#666666" points="289.75,-76 214.5,-76 214.5,-56 289.75,-56 289.75,-76"/>
<text text-anchor="middle" x="252.12" y="-62.5" font-family="Helvetica,sans-Serif" font-size="10.00">task_mutex.h</text>
</a>
</g>
</g>
<!-- Node9&#45;&gt;Node12 -->
<g id="edge11_Node000009_Node000012" class="edge">
<title>Node9&#45;&gt;Node12</title>
<g id="a_edge11_Node000009_Node000012"><a xlink:title=" ">
<path fill="none" stroke="#63b8ff" d="M286.39,-103.29C277.89,-94.28 267.9,-83.7 260.91,-76.3"/>
<polygon fill="#63b8ff" stroke="#63b8ff" points="283.79,-105.63 293.2,-110.49 288.88,-100.82 283.79,-105.63"/>
</a>
</g>
</g>
<!-- Node15 -->
<g id="Node000015" class="node">
<title>Node15</title>
<g id="a_Node000015"><a xlink:href="task__scheduler_8h.html" target="_top" xlink:title=" ">
<polygon fill="white" stroke="#666666" points="399.25,-76 309,-76 309,-56 399.25,-56 399.25,-76"/>
<text text-anchor="middle" x="354.12" y="-62.5" font-family="Helvetica,sans-Serif" font-size="10.00">task_scheduler.h</text>
</a>
</g>
</g>
<!-- Node9&#45;&gt;Node15 -->
<g id="edge15_Node000009_Node000015" class="edge">
<title>Node9&#45;&gt;Node15</title>
<g id="a_edge15_Node000009_Node000015"><a xlink:title=" ">
<path fill="none" stroke="#63b8ff" d="M319.86,-103.29C328.36,-94.28 338.35,-83.7 345.34,-76.3"/>
<polygon fill="#63b8ff" stroke="#63b8ff" points="317.37,-100.82 313.05,-110.49 322.46,-105.63 317.37,-100.82"/>
</a>
</g>
</g>
<!-- Node11 -->
<g id="Node000011" class="node">
<title>Node11</title>
<g id="a_Node000011"><a xlink:href="vm_8h.html" target="_top" xlink:title=" ">
<polygon fill="white" stroke="#666666" points="460.25,-20 424,-20 424,0 460.25,0 460.25,-20"/>
<text text-anchor="middle" x="442.12" y="-6.5" font-family="Helvetica,sans-Serif" font-size="10.00">vm.h</text>
</a>
</g>
</g>
<!-- Node10&#45;&gt;Node11 -->
<g id="edge10_Node000010_Node000011" class="edge">
<title>Node10&#45;&gt;Node11</title>
<g id="a_edge10_Node000010_Node000011"><a xlink:title=" ">
<path fill="none" stroke="#63b8ff" d="M441.51,-44.13C441.66,-35.9 441.83,-26.85 441.95,-20.3"/>
<polygon fill="#63b8ff" stroke="#63b8ff" points="438.01,-44.02 441.33,-54.08 445.01,-44.15 438.01,-44.02"/>
</a>
</g>
</g>
<!-- Node12&#45;&gt;Node8 -->
<g id="edge12_Node000012_Node000008" class="edge">
<title>Node12&#45;&gt;Node8</title>
<g id="a_edge12_Node000012_Node000008"><a xlink:title=" ">
<path fill="none" stroke="#63b8ff" d="M223.63,-50.35C205.15,-40.84 181.61,-28.74 165.56,-20.48"/>
<polygon fill="#63b8ff" stroke="#63b8ff" points="222,-53.44 232.49,-54.9 225.2,-47.22 222,-53.44"/>
</a>
</g>
</g>
<!-- Node13 -->
<g id="Node000013" class="node">
<title>Node13</title>
<g id="a_Node000013"><a xlink:href="task__pthread_8h.html" target="_top" xlink:title=" ">
<polygon fill="white" stroke="#666666" points="406.38,-20 325.88,-20 325.88,0 406.38,0 406.38,-20"/>
<text text-anchor="middle" x="366.12" y="-6.5" font-family="Helvetica,sans-Serif" font-size="10.00">task_pthread.h</text>
</a>
</g>
</g>
<!-- Node12&#45;&gt;Node13 -->
<g id="edge13_Node000012_Node000013" class="edge">
<title>Node12&#45;&gt;Node13</title>
<g id="a_edge13_Node000012_Node000013"><a xlink:title=" ">
<path fill="none" stroke="#63b8ff" d="M282.22,-50.75C302.41,-41.18 328.44,-28.85 346.11,-20.48"/>
<polygon fill="#63b8ff" stroke="#63b8ff" points="280.89,-47.5 273.35,-54.95 283.89,-53.83 280.89,-47.5"/>
</a>
</g>
</g>
<!-- Node14 -->
<g id="Node000014" class="node">
<title>Node14</title>
<g id="a_Node000014"><a xlink:href="vheap__task__pthread_8h.html" target="_top" xlink:title=" ">
<polygon fill="white" stroke="#666666" points="307.38,-20 196.88,-20 196.88,0 307.38,0 307.38,-20"/>
<text text-anchor="middle" x="252.12" y="-6.5" font-family="Helvetica,sans-Serif" font-size="10.00">vheap_task_pthread.h</text>
</a>
</g>
</g>
<!-- Node12&#45;&gt;Node14 -->
<g id="edge14_Node000012_Node000014" class="edge">
<title>Node12&#45;&gt;Node14</title>
<g id="a_edge14_Node000012_Node000014"><a xlink:title=" ">
<path fill="none" stroke="#63b8ff" d="M252.12,-44.13C252.12,-35.9 252.12,-26.85 252.12,-20.3"/>
<polygon fill="#63b8ff" stroke="#63b8ff" points="248.63,-44.08 252.13,-54.08 255.63,-44.08 248.63,-44.08"/>
</a>
</g>
</g>
<!-- Node15&#45;&gt;Node13 -->
<g id="edge16_Node000015_Node000013" class="edge">
<title>Node15&#45;&gt;Node13</title>
<g id="a_edge16_Node000015_Node000013"><a xlink:title=" ">
<path fill="none" stroke="#63b8ff" d="M358.7,-44.43C360.55,-36.11 362.58,-26.93 364.06,-20.3"/>
<polygon fill="#63b8ff" stroke="#63b8ff" points="355.3,-43.6 356.54,-54.12 362.13,-45.11 355.3,-43.6"/>
</a>
</g>
</g>
</g>
</svg>
