<?xml version="1.0" encoding="UTF-8" standalone="no"?>
<!DOCTYPE svg PUBLIC "-//W3C//DTD SVG 1.1//EN"
 "http://www.w3.org/Graphics/SVG/1.1/DTD/svg11.dtd">
<!-- Generated by graphviz version 2.40.1 (20161225.0304)
 -->
<!-- Title: zrtos_arch__delay_microseconds Pages: 1 -->
<svg width="897pt" height="145pt"
 viewBox="0.00 0.00 897.00 145.00" xmlns="http://www.w3.org/2000/svg" xmlns:xlink="http://www.w3.org/1999/xlink">
<g id="graph0" class="graph" transform="scale(1 1) rotate(0) translate(4 141)">
<title>zrtos_arch__delay_microseconds</title>
<polygon fill="#ffffff" stroke="transparent" points="-4,4 -4,-141 893,-141 893,4 -4,4"/>
<!-- Node9 -->
<g id="node1" class="node">
<title>Node9</title>
<polygon fill="#bfbfbf" stroke="#000000" points="0,-50 0,-69 162,-69 162,-50 0,-50"/>
<text text-anchor="middle" x="81" y="-57" font-family="Helvetica,sans-Serif" font-size="10.00" fill="#000000">zrtos_arch__delay_microseconds</text>
</g>
<!-- Node10 -->
<g id="node2" class="node">
<title>Node10</title>
<g id="a_node2"><a xlink:href="atmega2560_8h.html#a4a4aae738e9511b66c4a4ae90d93f210" target="_top" xlink:title="zrtos_arch__delay_milliseconds">
<polygon fill="#ffffff" stroke="#000000" points="201,-88 201,-107 356,-107 356,-88 201,-88"/>
<text text-anchor="middle" x="278.5" y="-95" font-family="Helvetica,sans-Serif" font-size="10.00" fill="#000000">zrtos_arch__delay_milliseconds</text>
</a>
</g>
</g>
<!-- Node9&#45;&gt;Node10 -->
<g id="edge1" class="edge">
<title>Node9&#45;&gt;Node10</title>
<path fill="none" stroke="#191970" d="M140.7147,-70.9894C168.8946,-76.4114 202.129,-82.8058 228.8969,-87.9561"/>
<polygon fill="#191970" stroke="#191970" points="141.0639,-67.4925 130.5827,-69.04 139.7412,-74.3664 141.0639,-67.4925"/>
</g>
<!-- Node15 -->
<g id="node7" class="node">
<title>Node15</title>
<g id="a_node7"><a xlink:href="gpio_8h.html#ac0d342145c92f067de26bbfbb4f3fe8d" target="_top" xlink:title="zrtos_gpio__delay_microseconds">
<polygon fill="#ffffff" stroke="#000000" points="198,-50 198,-69 359,-69 359,-50 198,-50"/>
<text text-anchor="middle" x="278.5" y="-57" font-family="Helvetica,sans-Serif" font-size="10.00" fill="#000000">zrtos_gpio__delay_microseconds</text>
</a>
</g>
</g>
<!-- Node9&#45;&gt;Node15 -->
<g id="edge6" class="edge">
<title>Node9&#45;&gt;Node15</title>
<path fill="none" stroke="#191970" d="M172.2167,-59.5C180.8047,-59.5 189.4692,-59.5 197.9483,-59.5"/>
<polygon fill="#191970" stroke="#191970" points="172.1858,-56.0001 162.1858,-59.5 172.1858,-63.0001 172.1858,-56.0001"/>
</g>
<!-- Node16 -->
<g id="node8" class="node">
<title>Node16</title>
<g id="a_node8"><a xlink:href="rtu_8h.html#ab23606290979709ef6fefa7c6970e64e" target="_top" xlink:title="zrtos_vfs_module_modbus\l_rtu__on_send">
<polygon fill="#ffffff" stroke="#000000" points="211.5,-.5 211.5,-30.5 345.5,-30.5 345.5,-.5 211.5,-.5"/>
<text text-anchor="start" x="219.5" y="-18.5" font-family="Helvetica,sans-Serif" font-size="10.00" fill="#000000">zrtos_vfs_module_modbus</text>
<text text-anchor="middle" x="278.5" y="-7.5" font-family="Helvetica,sans-Serif" font-size="10.00" fill="#000000">_rtu__on_send</text>
</a>
</g>
</g>
<!-- Node9&#45;&gt;Node16 -->
<g id="edge7" class="edge">
<title>Node9&#45;&gt;Node16</title>
<path fill="none" stroke="#191970" d="M133.7528,-47.7475C157.5568,-42.4443 185.9526,-36.1182 211.263,-30.4794"/>
<polygon fill="#191970" stroke="#191970" points="132.8542,-44.3618 123.8546,-49.9527 134.3764,-51.1943 132.8542,-44.3618"/>
</g>
<!-- Node11 -->
<g id="node3" class="node">
<title>Node11</title>
<g id="a_node3"><a xlink:href="gpio_8h.html#a1f8ccfbe91f750fb13f00e42103fb8b0" target="_top" xlink:title="zrtos_gpio__delay_milliseconds">
<polygon fill="#ffffff" stroke="#000000" points="395,-88 395,-107 550,-107 550,-88 395,-88"/>
<text text-anchor="middle" x="472.5" y="-95" font-family="Helvetica,sans-Serif" font-size="10.00" fill="#000000">zrtos_gpio__delay_milliseconds</text>
</a>
</g>
</g>
<!-- Node10&#45;&gt;Node11 -->
<g id="edge2" class="edge">
<title>Node10&#45;&gt;Node11</title>
<path fill="none" stroke="#191970" d="M366.2687,-97.5C375.7818,-97.5 385.4145,-97.5 394.7962,-97.5"/>
<polygon fill="#191970" stroke="#191970" points="366.0103,-94.0001 356.0103,-97.5 366.0103,-101.0001 366.0103,-94.0001"/>
</g>
<!-- Node12 -->
<g id="node4" class="node">
<title>Node12</title>
<g id="a_node4"><a xlink:href="mcp2515_8h.html#a46894ab0a30cb5e4d67fa6672327158c" target="_top" xlink:title="zrtos_vfs_module_mcp2515\l__reset">
<polygon fill="#ffffff" stroke="#000000" points="586,-106.5 586,-136.5 725,-136.5 725,-106.5 586,-106.5"/>
<text text-anchor="start" x="594" y="-124.5" font-family="Helvetica,sans-Serif" font-size="10.00" fill="#000000">zrtos_vfs_module_mcp2515</text>
<text text-anchor="middle" x="655.5" y="-113.5" font-family="Helvetica,sans-Serif" font-size="10.00" fill="#000000">__reset</text>
</a>
</g>
</g>
<!-- Node11&#45;&gt;Node12 -->
<g id="edge3" class="edge">
<title>Node11&#45;&gt;Node12</title>
<path fill="none" stroke="#191970" d="M555.2809,-108.3565C565.5411,-109.7021 575.9488,-111.0671 585.9817,-112.3828"/>
<polygon fill="#191970" stroke="#191970" points="555.4595,-104.85 545.0893,-107.0199 554.5492,-111.7906 555.4595,-104.85"/>
</g>
<!-- Node13 -->
<g id="node5" class="node">
<title>Node13</title>
<g id="a_node5"><a xlink:href="w5500_8h.html#a2f42a341c7a98499e10dd1c01407cd98" target="_top" xlink:title="zrtos_vfs_module_w5500\l__on_mount">
<polygon fill="#ffffff" stroke="#000000" points="591.5,-57.5 591.5,-87.5 719.5,-87.5 719.5,-57.5 591.5,-57.5"/>
<text text-anchor="start" x="599.5" y="-75.5" font-family="Helvetica,sans-Serif" font-size="10.00" fill="#000000">zrtos_vfs_module_w5500</text>
<text text-anchor="middle" x="655.5" y="-64.5" font-family="Helvetica,sans-Serif" font-size="10.00" fill="#000000">__on_mount</text>
</a>
</g>
</g>
<!-- Node11&#45;&gt;Node13 -->
<g id="edge4" class="edge">
<title>Node11&#45;&gt;Node13</title>
<path fill="none" stroke="#191970" d="M552.1556,-86.6181C565.2742,-84.8259 578.7231,-82.9887 591.3991,-81.257"/>
<polygon fill="#191970" stroke="#191970" points="551.6407,-83.1558 542.2065,-87.9773 552.5882,-90.0914 551.6407,-83.1558"/>
</g>
<!-- Node14 -->
<g id="node6" class="node">
<title>Node14</title>
<g id="a_node6"><a xlink:href="w5500_8h.html#ab56300a7356e13fa1a5cff355617a697" target="_top" xlink:title="zrtos_vfs_module_w5500\l__on_ioctl">
<polygon fill="#ffffff" stroke="#000000" points="761,-57.5 761,-87.5 889,-87.5 889,-57.5 761,-57.5"/>
<text text-anchor="start" x="769" y="-75.5" font-family="Helvetica,sans-Serif" font-size="10.00" fill="#000000">zrtos_vfs_module_w5500</text>
<text text-anchor="middle" x="825" y="-64.5" font-family="Helvetica,sans-Serif" font-size="10.00" fill="#000000">__on_ioctl</text>
</a>
</g>
</g>
<!-- Node13&#45;&gt;Node14 -->
<g id="edge5" class="edge">
<title>Node13&#45;&gt;Node14</title>
<path fill="none" stroke="#191970" d="M729.822,-72.5C740.1567,-72.5 750.7013,-72.5 760.8287,-72.5"/>
<polygon fill="#191970" stroke="#191970" points="729.5807,-69.0001 719.5807,-72.5 729.5806,-76.0001 729.5807,-69.0001"/>
</g>
<!-- Node17 -->
<g id="node9" class="node">
<title>Node17</title>
<g id="a_node9"><a xlink:href="rtu_8h.html#a2376d02a52d42eef634ef843afc499f3" target="_top" xlink:title="zrtos_vfs_module_modbus\l_rtu_inode__init">
<polygon fill="#ffffff" stroke="#000000" points="405.5,-.5 405.5,-30.5 539.5,-30.5 539.5,-.5 405.5,-.5"/>
<text text-anchor="start" x="413.5" y="-18.5" font-family="Helvetica,sans-Serif" font-size="10.00" fill="#000000">zrtos_vfs_module_modbus</text>
<text text-anchor="middle" x="472.5" y="-7.5" font-family="Helvetica,sans-Serif" font-size="10.00" fill="#000000">_rtu_inode__init</text>
</a>
</g>
</g>
<!-- Node16&#45;&gt;Node17 -->
<g id="edge8" class="edge">
<title>Node16&#45;&gt;Node17</title>
<path fill="none" stroke="#191970" d="M355.6699,-15.5C372.1407,-15.5 389.4084,-15.5 405.4619,-15.5"/>
<polygon fill="#191970" stroke="#191970" points="355.5355,-12.0001 345.5354,-15.5 355.5354,-19.0001 355.5355,-12.0001"/>
</g>
</g>
</svg>
