<?xml version="1.0" encoding="UTF-8" standalone="no"?>
<!DOCTYPE svg PUBLIC "-//W3C//DTD SVG 1.1//EN"
 "http://www.w3.org/Graphics/SVG/1.1/DTD/svg11.dtd">
<!-- Generated by graphviz version 2.40.1 (20161225.0304)
 -->
<!-- Title: zrtos_vfs_module_avr_uart__baud_select Pages: 1 -->
<svg width="419pt" height="186pt"
 viewBox="0.00 0.00 419.00 186.00" xmlns="http://www.w3.org/2000/svg" xmlns:xlink="http://www.w3.org/1999/xlink">
<g id="graph0" class="graph" transform="scale(1 1) rotate(0) translate(4 182)">
<title>zrtos_vfs_module_avr_uart__baud_select</title>
<polygon fill="#ffffff" stroke="transparent" points="-4,4 -4,-182 415,-182 415,4 -4,4"/>
<!-- Node1 -->
<g id="node1" class="node">
<title>Node1</title>
<polygon fill="#bfbfbf" stroke="#000000" points="0,-73.5 0,-103.5 113,-103.5 113,-73.5 0,-73.5"/>
<text text-anchor="start" x="8" y="-91.5" font-family="Helvetica,sans-Serif" font-size="10.00" fill="#000000">zrtos_vfs_module_avr</text>
<text text-anchor="middle" x="56.5" y="-80.5" font-family="Helvetica,sans-Serif" font-size="10.00" fill="#000000">_uart__baud_select</text>
</g>
<!-- Node2 -->
<g id="node2" class="node">
<title>Node2</title>
<g id="a_node2"><a xlink:href="uart0_8h.html#a6d4b2d66f34cb9716c8ff3364349555e" target="_top" xlink:title="zrtos_vfs_module_avr\l_uart0__on_mount">
<polygon fill="#ffffff" stroke="#000000" points="149,-147.5 149,-177.5 262,-177.5 262,-147.5 149,-147.5"/>
<text text-anchor="start" x="157" y="-165.5" font-family="Helvetica,sans-Serif" font-size="10.00" fill="#000000">zrtos_vfs_module_avr</text>
<text text-anchor="middle" x="205.5" y="-154.5" font-family="Helvetica,sans-Serif" font-size="10.00" fill="#000000">_uart0__on_mount</text>
</a>
</g>
</g>
<!-- Node1&#45;&gt;Node2 -->
<g id="edge1" class="edge">
<title>Node1&#45;&gt;Node2</title>
<path fill="none" stroke="#191970" d="M91.9232,-108.6584C108.9817,-118.1045 129.8477,-129.281 149,-138.5 155.2418,-141.5045 161.9564,-144.5305 168.5013,-147.3734"/>
<polygon fill="#191970" stroke="#191970" points="93.3115,-105.4252 82.8729,-103.612 89.9024,-111.539 93.3115,-105.4252"/>
</g>
<!-- Node4 -->
<g id="node4" class="node">
<title>Node4</title>
<g id="a_node4"><a xlink:href="uart1_8h.html#afa55913686cef53e9c0299b65cb3afd0" target="_top" xlink:title="zrtos_vfs_module_avr\l_uart1__on_mount">
<polygon fill="#ffffff" stroke="#000000" points="149,-98.5 149,-128.5 262,-128.5 262,-98.5 149,-98.5"/>
<text text-anchor="start" x="157" y="-116.5" font-family="Helvetica,sans-Serif" font-size="10.00" fill="#000000">zrtos_vfs_module_avr</text>
<text text-anchor="middle" x="205.5" y="-105.5" font-family="Helvetica,sans-Serif" font-size="10.00" fill="#000000">_uart1__on_mount</text>
</a>
</g>
</g>
<!-- Node1&#45;&gt;Node4 -->
<g id="edge3" class="edge">
<title>Node1&#45;&gt;Node4</title>
<path fill="none" stroke="#191970" d="M123.228,-99.696C131.8009,-101.1344 140.5125,-102.5961 148.9022,-104.0037"/>
<polygon fill="#191970" stroke="#191970" points="123.6969,-96.2258 113.2556,-98.0227 122.5385,-103.1293 123.6969,-96.2258"/>
</g>
<!-- Node6 -->
<g id="node6" class="node">
<title>Node6</title>
<g id="a_node6"><a xlink:href="uart2_8h.html#a38a5cf860eb80ff299465dace7624a9a" target="_top" xlink:title="zrtos_vfs_module_avr\l_uart2__on_mount">
<polygon fill="#ffffff" stroke="#000000" points="149,-49.5 149,-79.5 262,-79.5 262,-49.5 149,-49.5"/>
<text text-anchor="start" x="157" y="-67.5" font-family="Helvetica,sans-Serif" font-size="10.00" fill="#000000">zrtos_vfs_module_avr</text>
<text text-anchor="middle" x="205.5" y="-56.5" font-family="Helvetica,sans-Serif" font-size="10.00" fill="#000000">_uart2__on_mount</text>
</a>
</g>
</g>
<!-- Node1&#45;&gt;Node6 -->
<g id="edge5" class="edge">
<title>Node1&#45;&gt;Node6</title>
<path fill="none" stroke="#191970" d="M123.228,-77.7519C131.8009,-76.371 140.5125,-74.9678 148.9022,-73.6164"/>
<polygon fill="#191970" stroke="#191970" points="122.5717,-74.3124 113.2556,-79.3582 123.6849,-81.2233 122.5717,-74.3124"/>
</g>
<!-- Node8 -->
<g id="node8" class="node">
<title>Node8</title>
<g id="a_node8"><a xlink:href="uart3_8h.html#a4e9ea3b1efdb9c3d1a6c2e4be4f8823c" target="_top" xlink:title="zrtos_vfs_module_avr\l_uart3__on_mount">
<polygon fill="#ffffff" stroke="#000000" points="149,-.5 149,-30.5 262,-30.5 262,-.5 149,-.5"/>
<text text-anchor="start" x="157" y="-18.5" font-family="Helvetica,sans-Serif" font-size="10.00" fill="#000000">zrtos_vfs_module_avr</text>
<text text-anchor="middle" x="205.5" y="-7.5" font-family="Helvetica,sans-Serif" font-size="10.00" fill="#000000">_uart3__on_mount</text>
</a>
</g>
</g>
<!-- Node1&#45;&gt;Node8 -->
<g id="edge7" class="edge">
<title>Node1&#45;&gt;Node8</title>
<path fill="none" stroke="#191970" d="M93.5626,-68.5985C110.365,-59.7496 130.5596,-49.3538 149,-40.5 155.8654,-37.2037 163.2686,-33.8129 170.3832,-30.6334"/>
<polygon fill="#191970" stroke="#191970" points="91.8116,-65.5652 84.6096,-73.3358 95.0855,-71.7524 91.8116,-65.5652"/>
</g>
<!-- Node3 -->
<g id="node3" class="node">
<title>Node3</title>
<g id="a_node3"><a xlink:href="uart0_8h.html#a1c08ba1c9bac4dd9a045d06a07dbe0b4" target="_top" xlink:title="zrtos_vfs_module_avr\l_uart0__on_write">
<polygon fill="#ffffff" stroke="#000000" points="298,-147.5 298,-177.5 411,-177.5 411,-147.5 298,-147.5"/>
<text text-anchor="start" x="306" y="-165.5" font-family="Helvetica,sans-Serif" font-size="10.00" fill="#000000">zrtos_vfs_module_avr</text>
<text text-anchor="middle" x="354.5" y="-154.5" font-family="Helvetica,sans-Serif" font-size="10.00" fill="#000000">_uart0__on_write</text>
</a>
</g>
</g>
<!-- Node2&#45;&gt;Node3 -->
<g id="edge2" class="edge">
<title>Node2&#45;&gt;Node3</title>
<path fill="none" stroke="#191970" d="M272.5076,-162.5C280.9902,-162.5 289.6037,-162.5 297.9022,-162.5"/>
<polygon fill="#191970" stroke="#191970" points="272.2556,-159.0001 262.2556,-162.5 272.2555,-166.0001 272.2556,-159.0001"/>
</g>
<!-- Node5 -->
<g id="node5" class="node">
<title>Node5</title>
<g id="a_node5"><a xlink:href="uart1_8h.html#af04452122e72ab7408b2e207191cdd33" target="_top" xlink:title="zrtos_vfs_module_avr\l_uart1__on_write">
<polygon fill="#ffffff" stroke="#000000" points="298,-98.5 298,-128.5 411,-128.5 411,-98.5 298,-98.5"/>
<text text-anchor="start" x="306" y="-116.5" font-family="Helvetica,sans-Serif" font-size="10.00" fill="#000000">zrtos_vfs_module_avr</text>
<text text-anchor="middle" x="354.5" y="-105.5" font-family="Helvetica,sans-Serif" font-size="10.00" fill="#000000">_uart1__on_write</text>
</a>
</g>
</g>
<!-- Node4&#45;&gt;Node5 -->
<g id="edge4" class="edge">
<title>Node4&#45;&gt;Node5</title>
<path fill="none" stroke="#191970" d="M272.5076,-113.5C280.9902,-113.5 289.6037,-113.5 297.9022,-113.5"/>
<polygon fill="#191970" stroke="#191970" points="272.2556,-110.0001 262.2556,-113.5 272.2555,-117.0001 272.2556,-110.0001"/>
</g>
<!-- Node7 -->
<g id="node7" class="node">
<title>Node7</title>
<g id="a_node7"><a xlink:href="uart2_8h.html#a244148efdde4e736bdcba74328e85415" target="_top" xlink:title="zrtos_vfs_module_avr\l_uart2__on_write">
<polygon fill="#ffffff" stroke="#000000" points="298,-49.5 298,-79.5 411,-79.5 411,-49.5 298,-49.5"/>
<text text-anchor="start" x="306" y="-67.5" font-family="Helvetica,sans-Serif" font-size="10.00" fill="#000000">zrtos_vfs_module_avr</text>
<text text-anchor="middle" x="354.5" y="-56.5" font-family="Helvetica,sans-Serif" font-size="10.00" fill="#000000">_uart2__on_write</text>
</a>
</g>
</g>
<!-- Node6&#45;&gt;Node7 -->
<g id="edge6" class="edge">
<title>Node6&#45;&gt;Node7</title>
<path fill="none" stroke="#191970" d="M272.5076,-64.5C280.9902,-64.5 289.6037,-64.5 297.9022,-64.5"/>
<polygon fill="#191970" stroke="#191970" points="272.2556,-61.0001 262.2556,-64.5 272.2555,-68.0001 272.2556,-61.0001"/>
</g>
<!-- Node9 -->
<g id="node9" class="node">
<title>Node9</title>
<g id="a_node9"><a xlink:href="uart3_8h.html#a0ac21cf2483f89180a91b9ca480eb7b8" target="_top" xlink:title="zrtos_vfs_module_avr\l_uart3__on_write">
<polygon fill="#ffffff" stroke="#000000" points="298,-.5 298,-30.5 411,-30.5 411,-.5 298,-.5"/>
<text text-anchor="start" x="306" y="-18.5" font-family="Helvetica,sans-Serif" font-size="10.00" fill="#000000">zrtos_vfs_module_avr</text>
<text text-anchor="middle" x="354.5" y="-7.5" font-family="Helvetica,sans-Serif" font-size="10.00" fill="#000000">_uart3__on_write</text>
</a>
</g>
</g>
<!-- Node8&#45;&gt;Node9 -->
<g id="edge8" class="edge">
<title>Node8&#45;&gt;Node9</title>
<path fill="none" stroke="#191970" d="M272.5076,-15.5C280.9902,-15.5 289.6037,-15.5 297.9022,-15.5"/>
<polygon fill="#191970" stroke="#191970" points="272.2556,-12.0001 262.2556,-15.5 272.2555,-19.0001 272.2556,-12.0001"/>
</g>
</g>
</svg>
