<?xml version="1.0" encoding="UTF-8" standalone="no"?>
<!DOCTYPE svg PUBLIC "-//W3C//DTD SVG 1.1//EN"
 "http://www.w3.org/Graphics/SVG/1.1/DTD/svg11.dtd">
<!-- Generated by graphviz version 2.40.1 (20161225.0304)
 -->
<!-- Title: spi.h Pages: 1 -->
<svg width="1549pt" height="498pt"
 viewBox="0.00 0.00 1548.50 498.00" xmlns="http://www.w3.org/2000/svg" xmlns:xlink="http://www.w3.org/1999/xlink">
<g id="graph0" class="graph" transform="scale(1 1) rotate(0) translate(4 494)">
<title>spi.h</title>
<polygon fill="#ffffff" stroke="transparent" points="-4,4 -4,-494 1544.5,-494 1544.5,4 -4,4"/>
<!-- Node0 -->
<g id="node1" class="node">
<title>Node0</title>
<polygon fill="#bfbfbf" stroke="#000000" points="493,-470.5 493,-489.5 531,-489.5 531,-470.5 493,-470.5"/>
<text text-anchor="middle" x="512" y="-477.5" font-family="Helvetica,sans-Serif" font-size="10.00" fill="#000000">spi.h</text>
</g>
<!-- Node1 -->
<g id="node2" class="node">
<title>Node1</title>
<polygon fill="#ffffff" stroke="#bfbfbf" points="352.5,-409 352.5,-428 401.5,-428 401.5,-409 352.5,-409"/>
<text text-anchor="middle" x="377" y="-416" font-family="Helvetica,sans-Serif" font-size="10.00" fill="#000000">avr/io.h</text>
</g>
<!-- Node0&#45;&gt;Node1 -->
<g id="edge1" class="edge">
<title>Node0&#45;&gt;Node1</title>
<path fill="none" stroke="#191970" d="M492.9441,-471.319C470.6764,-461.1748 433.5422,-444.2581 407.3067,-432.3064"/>
<polygon fill="#191970" stroke="#191970" points="408.7331,-429.1102 398.1819,-428.1495 405.8311,-435.4803 408.7331,-429.1102"/>
</g>
<!-- Node2 -->
<g id="node3" class="node">
<title>Node2</title>
<polygon fill="#ffffff" stroke="#bfbfbf" points="419.5,-409 419.5,-428 496.5,-428 496.5,-409 419.5,-409"/>
<text text-anchor="middle" x="458" y="-416" font-family="Helvetica,sans-Serif" font-size="10.00" fill="#000000">avr/interrupt.h</text>
</g>
<!-- Node0&#45;&gt;Node2 -->
<g id="edge2" class="edge">
<title>Node0&#45;&gt;Node2</title>
<path fill="none" stroke="#191970" d="M503.5625,-470.3906C495.4469,-461.1478 482.9945,-446.966 473.1576,-435.7628"/>
<polygon fill="#191970" stroke="#191970" points="475.7846,-433.45 466.5565,-428.2449 470.5245,-438.0686 475.7846,-433.45"/>
</g>
<!-- Node3 -->
<g id="node4" class="node">
<title>Node3</title>
<g id="a_node4"><a xlink:href="vfs__plugin_8h.html" target="_top" xlink:title="zrtos/vfs_plugin.h">
<polygon fill="#ffffff" stroke="#000000" points="856,-112.5 856,-131.5 950,-131.5 950,-112.5 856,-112.5"/>
<text text-anchor="middle" x="903" y="-119.5" font-family="Helvetica,sans-Serif" font-size="10.00" fill="#000000">zrtos/vfs_plugin.h</text>
</a>
</g>
</g>
<!-- Node0&#45;&gt;Node3 -->
<g id="edge3" class="edge">
<title>Node0&#45;&gt;Node3</title>
<path fill="none" stroke="#191970" d="M531.001,-479.3215C622.7862,-474.8537 1019.1408,-441.5777 1100,-199 1104.3569,-185.9293 1108.5634,-178.7933 1100,-168 1091.1891,-156.8947 1015.1364,-141.5008 960.1609,-131.6447"/>
<polygon fill="#191970" stroke="#191970" points="960.6196,-128.1715 950.162,-129.871 959.397,-135.0639 960.6196,-128.1715"/>
</g>
<!-- Node14 -->
<g id="node15" class="node">
<title>Node14</title>
<g id="a_node15"><a xlink:href="spi_2spi_8h.html" target="_top" xlink:title="zrtos/vfs/module/spi\l/spi.h">
<polygon fill="#ffffff" stroke="#000000" points="514.5,-403.5 514.5,-433.5 619.5,-433.5 619.5,-403.5 514.5,-403.5"/>
<text text-anchor="start" x="522.5" y="-421.5" font-family="Helvetica,sans-Serif" font-size="10.00" fill="#000000">zrtos/vfs/module/spi</text>
<text text-anchor="middle" x="567" y="-410.5" font-family="Helvetica,sans-Serif" font-size="10.00" fill="#000000">/spi.h</text>
</a>
</g>
</g>
<!-- Node0&#45;&gt;Node14 -->
<g id="edge16" class="edge">
<title>Node0&#45;&gt;Node14</title>
<path fill="none" stroke="#191970" d="M520.5938,-470.3906C527.5549,-462.6068 537.6486,-451.3202 546.6458,-441.2597"/>
<polygon fill="#191970" stroke="#191970" points="549.4882,-443.3318 553.5455,-433.5446 544.2704,-438.6654 549.4882,-443.3318"/>
</g>
<!-- Node4 -->
<g id="node5" class="node">
<title>Node4</title>
<polygon fill="#ffffff" stroke="#bfbfbf" points="892,-56.5 892,-75.5 944,-75.5 944,-56.5 892,-56.5"/>
<text text-anchor="middle" x="918" y="-63.5" font-family="Helvetica,sans-Serif" font-size="10.00" fill="#000000">stdarg.h</text>
</g>
<!-- Node3&#45;&gt;Node4 -->
<g id="edge4" class="edge">
<title>Node3&#45;&gt;Node4</title>
<path fill="none" stroke="#191970" d="M905.6128,-112.2455C907.5916,-104.8579 910.3744,-94.4689 912.8012,-85.4087"/>
<polygon fill="#191970" stroke="#191970" points="916.2105,-86.2078 915.4171,-75.6427 909.4489,-84.3966 916.2105,-86.2078"/>
</g>
<!-- Node5 -->
<g id="node6" class="node">
<title>Node5</title>
<g id="a_node6"><a xlink:href="types_8h.html" target="_top" xlink:title="zrtos/types.h">
<polygon fill="#ffffff" stroke="#000000" points="601,-56.5 601,-75.5 675,-75.5 675,-56.5 601,-56.5"/>
<text text-anchor="middle" x="638" y="-63.5" font-family="Helvetica,sans-Serif" font-size="10.00" fill="#000000">zrtos/types.h</text>
</a>
</g>
</g>
<!-- Node3&#45;&gt;Node5 -->
<g id="edge5" class="edge">
<title>Node3&#45;&gt;Node5</title>
<path fill="none" stroke="#191970" d="M857.746,-112.4369C809.7185,-102.2877 734.1608,-86.3208 685.3502,-76.0061"/>
<polygon fill="#191970" stroke="#191970" points="685.8676,-72.5382 675.36,-73.8949 684.4203,-79.3869 685.8676,-72.5382"/>
</g>
<!-- Node12 -->
<g id="node13" class="node">
<title>Node12</title>
<g id="a_node13"><a xlink:href="error_8h.html" target="_top" xlink:title="zrtos/error.h">
<polygon fill="#ffffff" stroke="#000000" points="804.5,-56.5 804.5,-75.5 873.5,-75.5 873.5,-56.5 804.5,-56.5"/>
<text text-anchor="middle" x="839" y="-63.5" font-family="Helvetica,sans-Serif" font-size="10.00" fill="#000000">zrtos/error.h</text>
</a>
</g>
</g>
<!-- Node3&#45;&gt;Node12 -->
<g id="edge12" class="edge">
<title>Node3&#45;&gt;Node12</title>
<path fill="none" stroke="#191970" d="M891.8521,-112.2455C882.4913,-104.0549 868.9142,-92.1749 857.8651,-82.5069"/>
<polygon fill="#191970" stroke="#191970" points="859.8508,-79.5937 850.0202,-75.6427 855.2412,-84.8618 859.8508,-79.5937"/>
</g>
<!-- Node6 -->
<g id="node7" class="node">
<title>Node6</title>
<polygon fill="#ffffff" stroke="#bfbfbf" points="741,-.5 741,-19.5 797,-19.5 797,-.5 741,-.5"/>
<text text-anchor="middle" x="769" y="-7.5" font-family="Helvetica,sans-Serif" font-size="10.00" fill="#000000">stdbool.h</text>
</g>
<!-- Node5&#45;&gt;Node6 -->
<g id="edge6" class="edge">
<title>Node5&#45;&gt;Node6</title>
<path fill="none" stroke="#191970" d="M660.5197,-56.3733C681.7372,-47.3032 713.7276,-33.6279 737.4769,-23.4755"/>
<polygon fill="#191970" stroke="#191970" points="738.9548,-26.6502 746.7742,-19.5011 736.2033,-20.2136 738.9548,-26.6502"/>
</g>
<!-- Node7 -->
<g id="node8" class="node">
<title>Node7</title>
<polygon fill="#ffffff" stroke="#bfbfbf" points="671,-.5 671,-19.5 723,-19.5 723,-.5 671,-.5"/>
<text text-anchor="middle" x="697" y="-7.5" font-family="Helvetica,sans-Serif" font-size="10.00" fill="#000000">stddef.h</text>
</g>
<!-- Node5&#45;&gt;Node7 -->
<g id="edge7" class="edge">
<title>Node5&#45;&gt;Node7</title>
<path fill="none" stroke="#191970" d="M648.277,-56.2455C656.8218,-48.1352 669.1778,-36.4075 679.3085,-26.7919"/>
<polygon fill="#191970" stroke="#191970" points="681.9972,-29.0655 686.8408,-19.6427 677.1782,-23.9884 681.9972,-29.0655"/>
</g>
<!-- Node8 -->
<g id="node9" class="node">
<title>Node8</title>
<polygon fill="#ffffff" stroke="#bfbfbf" points="526.5,-.5 526.5,-19.5 575.5,-19.5 575.5,-.5 526.5,-.5"/>
<text text-anchor="middle" x="551" y="-7.5" font-family="Helvetica,sans-Serif" font-size="10.00" fill="#000000">stdint.h</text>
</g>
<!-- Node5&#45;&gt;Node8 -->
<g id="edge8" class="edge">
<title>Node5&#45;&gt;Node8</title>
<path fill="none" stroke="#191970" d="M622.8458,-56.2455C609.4973,-47.6534 589.8414,-35.0014 574.4617,-25.1018"/>
<polygon fill="#191970" stroke="#191970" points="576.2836,-22.1121 565.9806,-19.6427 572.4949,-27.9982 576.2836,-22.1121"/>
</g>
<!-- Node9 -->
<g id="node10" class="node">
<title>Node9</title>
<polygon fill="#ffffff" stroke="#bfbfbf" points="815,-.5 815,-19.5 863,-19.5 863,-.5 815,-.5"/>
<text text-anchor="middle" x="839" y="-7.5" font-family="Helvetica,sans-Serif" font-size="10.00" fill="#000000">limits.h</text>
</g>
<!-- Node5&#45;&gt;Node9 -->
<g id="edge9" class="edge">
<title>Node5&#45;&gt;Node9</title>
<path fill="none" stroke="#191970" d="M673.8006,-56.4974C705.8039,-47.9361 754.2182,-34.8221 805.0227,-20.2321"/>
<polygon fill="#191970" stroke="#191970" points="806.2321,-23.5261 814.8717,-17.3936 804.2935,-16.7998 806.2321,-23.5261"/>
</g>
<!-- Node10 -->
<g id="node11" class="node">
<title>Node10</title>
<polygon fill="#ffffff" stroke="#bfbfbf" points="593.5,-.5 593.5,-19.5 652.5,-19.5 652.5,-.5 593.5,-.5"/>
<text text-anchor="middle" x="623" y="-7.5" font-family="Helvetica,sans-Serif" font-size="10.00" fill="#000000">stdalign.h</text>
</g>
<!-- Node5&#45;&gt;Node10 -->
<g id="edge10" class="edge">
<title>Node5&#45;&gt;Node10</title>
<path fill="none" stroke="#191970" d="M635.3872,-56.2455C633.4084,-48.8579 630.6256,-38.4689 628.1988,-29.4087"/>
<polygon fill="#191970" stroke="#191970" points="631.5511,-28.3966 625.5829,-19.6427 624.7895,-30.2078 631.5511,-28.3966"/>
</g>
<!-- Node11 -->
<g id="node12" class="node">
<title>Node11</title>
<g id="a_node12"><a xlink:href="cast_8h.html" target="_top" xlink:title="zrtos/cast.h">
<polygon fill="#ffffff" stroke="#000000" points="387,-.5 387,-19.5 455,-19.5 455,-.5 387,-.5"/>
<text text-anchor="middle" x="421" y="-7.5" font-family="Helvetica,sans-Serif" font-size="10.00" fill="#000000">zrtos/cast.h</text>
</a>
</g>
</g>
<!-- Node5&#45;&gt;Node11 -->
<g id="edge11" class="edge">
<title>Node5&#45;&gt;Node11</title>
<path fill="none" stroke="#191970" d="M600.6964,-56.3733C563.0496,-46.6579 504.9283,-31.6589 465.0405,-21.3653"/>
<polygon fill="#191970" stroke="#191970" points="465.8734,-17.9656 455.316,-18.8557 464.1242,-24.7436 465.8734,-17.9656"/>
</g>
<!-- Node12&#45;&gt;Node6 -->
<g id="edge14" class="edge">
<title>Node12&#45;&gt;Node6</title>
<path fill="none" stroke="#191970" d="M826.8069,-56.2455C816.3679,-47.8943 801.1345,-35.7076 788.926,-25.9408"/>
<polygon fill="#191970" stroke="#191970" points="791.0485,-23.1566 781.0533,-19.6427 786.6756,-28.6227 791.0485,-23.1566"/>
</g>
<!-- Node12&#45;&gt;Node9 -->
<g id="edge13" class="edge">
<title>Node12&#45;&gt;Node9</title>
<path fill="none" stroke="#191970" d="M839,-56.2455C839,-48.9382 839,-38.6944 839,-29.7046"/>
<polygon fill="#191970" stroke="#191970" points="842.5001,-29.6426 839,-19.6427 835.5001,-29.6427 842.5001,-29.6426"/>
</g>
<!-- Node13 -->
<g id="node14" class="node">
<title>Node13</title>
<g id="a_node14"><a xlink:href="assert_8h.html" target="_top" xlink:title="zrtos/assert.h">
<polygon fill="#ffffff" stroke="#000000" points="1091.5,-.5 1091.5,-19.5 1168.5,-19.5 1168.5,-.5 1091.5,-.5"/>
<text text-anchor="middle" x="1130" y="-7.5" font-family="Helvetica,sans-Serif" font-size="10.00" fill="#000000">zrtos/assert.h</text>
</a>
</g>
</g>
<!-- Node12&#45;&gt;Node13 -->
<g id="edge15" class="edge">
<title>Node12&#45;&gt;Node13</title>
<path fill="none" stroke="#191970" d="M873.5592,-58.0106C876.7475,-57.3143 879.9314,-56.6342 883,-56 951.7369,-41.7941 1031.6517,-27.2724 1081.5343,-18.4446"/>
<polygon fill="#191970" stroke="#191970" points="1082.1633,-21.8878 1091.4029,-16.7032 1080.9468,-14.9943 1082.1633,-21.8878"/>
</g>
<!-- Node15 -->
<g id="node16" class="node">
<title>Node15</title>
<g id="a_node16"><a xlink:href="vfs__module_8h.html" target="_top" xlink:title="zrtos/vfs_module.h">
<polygon fill="#ffffff" stroke="#000000" points="664,-347.5 664,-366.5 764,-366.5 764,-347.5 664,-347.5"/>
<text text-anchor="middle" x="714" y="-354.5" font-family="Helvetica,sans-Serif" font-size="10.00" fill="#000000">zrtos/vfs_module.h</text>
</a>
</g>
</g>
<!-- Node14&#45;&gt;Node15 -->
<g id="edge17" class="edge">
<title>Node14&#45;&gt;Node15</title>
<path fill="none" stroke="#191970" d="M602.9602,-403.4554C627.0573,-393.374 658.513,-380.2139 681.7903,-370.4755"/>
<polygon fill="#191970" stroke="#191970" points="683.3459,-373.6187 691.2202,-366.5303 680.6442,-367.1611 683.3459,-373.6187"/>
</g>
<!-- Node21 -->
<g id="node22" class="node">
<title>Node21</title>
<g id="a_node22"><a xlink:href="clist_8h.html" target="_top" xlink:title="zrtos/clist.h">
<polygon fill="#ffffff" stroke="#000000" points="366,-174 366,-193 434,-193 434,-174 366,-174"/>
<text text-anchor="middle" x="400" y="-181" font-family="Helvetica,sans-Serif" font-size="10.00" fill="#000000">zrtos/clist.h</text>
</a>
</g>
</g>
<!-- Node14&#45;&gt;Node21 -->
<g id="edge58" class="edge">
<title>Node14&#45;&gt;Node21</title>
<path fill="none" stroke="#191970" d="M544.7569,-403.4982C518.3821,-384.6851 474.6501,-350.1142 448,-311 424.5774,-276.6229 410.6827,-229.3026 404.2795,-203.0489"/>
<polygon fill="#191970" stroke="#191970" points="407.6604,-202.1347 401.988,-193.1862 400.842,-203.7189 407.6604,-202.1347"/>
</g>
<!-- Node24 -->
<g id="node25" class="node">
<title>Node24</title>
<g id="a_node25"><a xlink:href="malloc_8h.html" target="_top" xlink:title="zrtos/malloc.h">
<polygon fill="#ffffff" stroke="#000000" points="172,-112.5 172,-131.5 250,-131.5 250,-112.5 172,-112.5"/>
<text text-anchor="middle" x="211" y="-119.5" font-family="Helvetica,sans-Serif" font-size="10.00" fill="#000000">zrtos/malloc.h</text>
</a>
</g>
</g>
<!-- Node14&#45;&gt;Node24 -->
<g id="edge43" class="edge">
<title>Node14&#45;&gt;Node24</title>
<path fill="none" stroke="#191970" d="M514.4278,-405.1403C511.5771,-404.4162 508.7536,-403.6992 506,-403 416.6706,-380.3179 104,-393.1641 104,-301 104,-301 104,-301 104,-245 104,-196.055 152.8251,-157.1093 184.5119,-136.9878"/>
<polygon fill="#191970" stroke="#191970" points="186.6305,-139.7946 193.3311,-131.5878 182.9751,-133.8248 186.6305,-139.7946"/>
</g>
<!-- Node26 -->
<g id="node27" class="node">
<title>Node26</title>
<g id="a_node27"><a xlink:href="cbuffer_8h.html" target="_top" xlink:title="zrtos/cbuffer.h">
<polygon fill="#ffffff" stroke="#000000" points="303,-235.5 303,-254.5 383,-254.5 383,-235.5 303,-235.5"/>
<text text-anchor="middle" x="343" y="-242.5" font-family="Helvetica,sans-Serif" font-size="10.00" fill="#000000">zrtos/cbuffer.h</text>
</a>
</g>
</g>
<!-- Node14&#45;&gt;Node26 -->
<g id="edge48" class="edge">
<title>Node14&#45;&gt;Node26</title>
<path fill="none" stroke="#191970" d="M514.3735,-403.8399C470.7713,-391.3383 414.6,-374.271 406,-367 373.5213,-339.5404 355.7132,-291.0971 347.9025,-264.2571"/>
<polygon fill="#191970" stroke="#191970" points="351.2487,-263.2249 345.2311,-254.5049 344.4974,-265.0743 351.2487,-263.2249"/>
</g>
<!-- Node29 -->
<g id="node30" class="node">
<title>Node29</title>
<g id="a_node30"><a xlink:href="gpio_8h.html" target="_top" xlink:title="zrtos/gpio.h">
<polygon fill="#ffffff" stroke="#000000" points="1206,-174 1206,-193 1274,-193 1274,-174 1206,-174"/>
<text text-anchor="middle" x="1240" y="-181" font-family="Helvetica,sans-Serif" font-size="10.00" fill="#000000">zrtos/gpio.h</text>
</a>
</g>
</g>
<!-- Node14&#45;&gt;Node29 -->
<g id="edge59" class="edge">
<title>Node14&#45;&gt;Node29</title>
<path fill="none" stroke="#191970" d="M619.6962,-416.0394C754.0017,-408.7621 1104.6829,-383.1445 1192,-311 1224.8374,-283.8685 1235.2284,-231.8108 1238.5034,-203.325"/>
<polygon fill="#191970" stroke="#191970" points="1241.9901,-203.6307 1239.4673,-193.3406 1235.0225,-202.958 1241.9901,-203.6307"/>
</g>
<!-- Node34 -->
<g id="node35" class="node">
<title>Node34</title>
<g id="a_node35"><a xlink:href="binary_8h.html" target="_top" xlink:title="zrtos/binary.h">
<polygon fill="#ffffff" stroke="#000000" points="0,-347.5 0,-366.5 76,-366.5 76,-347.5 0,-347.5"/>
<text text-anchor="middle" x="38" y="-354.5" font-family="Helvetica,sans-Serif" font-size="10.00" fill="#000000">zrtos/binary.h</text>
</a>
</g>
</g>
<!-- Node14&#45;&gt;Node34 -->
<g id="edge71" class="edge">
<title>Node14&#45;&gt;Node34</title>
<path fill="none" stroke="#191970" d="M514.2108,-404.5276C511.4426,-403.9701 508.6934,-403.4556 506,-403 323.0198,-372.0463 273.8116,-392.5575 90,-367 88.7451,-366.8255 87.4747,-366.6408 86.194,-366.4476"/>
<polygon fill="#191970" stroke="#191970" points="86.6961,-362.9833 76.2624,-364.8243 85.5669,-369.8916 86.6961,-362.9833"/>
</g>
<!-- Node35 -->
<g id="node36" class="node">
<title>Node35</title>
<g id="a_node36"><a xlink:href="va_8h.html" target="_top" xlink:title="zrtos/va.h">
<polygon fill="#ffffff" stroke="#000000" points="1196,-112.5 1196,-131.5 1256,-131.5 1256,-112.5 1196,-112.5"/>
<text text-anchor="middle" x="1226" y="-119.5" font-family="Helvetica,sans-Serif" font-size="10.00" fill="#000000">zrtos/va.h</text>
</a>
</g>
</g>
<!-- Node14&#45;&gt;Node35 -->
<g id="edge72" class="edge">
<title>Node14&#45;&gt;Node35</title>
<path fill="none" stroke="#191970" d="M619.6487,-415.5914C734.5737,-408.8779 1004.6809,-391.0182 1093,-367 1201.7704,-337.4201 1252.2743,-307.4523 1283,-199 1286.7556,-185.744 1288.9419,-180.4307 1283,-168 1276.8552,-155.1449 1265.1701,-144.7306 1253.9715,-137.0832"/>
<polygon fill="#191970" stroke="#191970" points="1255.5339,-133.9304 1245.21,-131.5495 1251.7959,-139.8488 1255.5339,-133.9304"/>
</g>
<!-- Node15&#45;&gt;Node3 -->
<g id="edge21" class="edge">
<title>Node15&#45;&gt;Node3</title>
<path fill="none" stroke="#191970" d="M764.3312,-352.4609C847.4263,-341.9467 1011.244,-307.7821 1083,-199 1090.5864,-187.499 1091.4506,-178.8818 1083,-168 1075.2728,-158.0498 1009.9339,-143.1114 960.1821,-132.9795"/>
<polygon fill="#191970" stroke="#191970" points="960.6395,-129.5014 950.1452,-130.9571 959.2568,-136.3635 960.6395,-129.5014"/>
</g>
<!-- Node15&#45;&gt;Node5 -->
<g id="edge19" class="edge">
<title>Node15&#45;&gt;Node5</title>
<path fill="none" stroke="#191970" d="M684.6105,-347.4186C632.3383,-328.5869 524.6092,-281.2622 481,-199 461.3195,-161.8758 485.2353,-138.306 518,-112 539.1603,-95.0109 567.3003,-83.7818 591.0117,-76.6742"/>
<polygon fill="#191970" stroke="#191970" points="592.2053,-79.9738 600.8693,-73.8757 590.2936,-73.2399 592.2053,-79.9738"/>
</g>
<!-- Node15&#45;&gt;Node11 -->
<g id="edge20" class="edge">
<title>Node15&#45;&gt;Node11</title>
<path fill="none" stroke="#191970" d="M663.9604,-354.3759C511.9661,-345.0549 66,-307.1688 66,-183.5 66,-183.5 66,-183.5 66,-122 66,-76.2481 103.4239,-75.0961 145,-56 185.4357,-37.4277 309.3417,-21.8796 376.544,-14.5385"/>
<polygon fill="#191970" stroke="#191970" points="377.2535,-17.9824 386.8212,-13.4316 376.5038,-11.0227 377.2535,-17.9824"/>
</g>
<!-- Node15&#45;&gt;Node12 -->
<g id="edge18" class="edge">
<title>Node15&#45;&gt;Node12</title>
<path fill="none" stroke="#191970" d="M764.4442,-353.0257C816.1443,-347.7487 898.1983,-335.9999 965,-311 1056.4472,-276.7767 1105.6603,-283.8357 1154,-199 1160.821,-187.0292 1162.3196,-178.9823 1154,-168 1118.3152,-120.8944 1082.3378,-149.8436 1026,-132 972.5215,-115.062 911.3637,-92.9482 873.9668,-79.109"/>
<polygon fill="#191970" stroke="#191970" points="875.1258,-75.8059 864.5329,-75.6067 872.6896,-82.3683 875.1258,-75.8059"/>
</g>
<!-- Node16 -->
<g id="node17" class="node">
<title>Node16</title>
<g id="a_node17"><a xlink:href="vfs__file_8h.html" target="_top" xlink:title="zrtos/vfs_file.h">
<polygon fill="#ffffff" stroke="#000000" points="673.5,-291.5 673.5,-310.5 754.5,-310.5 754.5,-291.5 673.5,-291.5"/>
<text text-anchor="middle" x="714" y="-298.5" font-family="Helvetica,sans-Serif" font-size="10.00" fill="#000000">zrtos/vfs_file.h</text>
</a>
</g>
</g>
<!-- Node15&#45;&gt;Node16 -->
<g id="edge22" class="edge">
<title>Node15&#45;&gt;Node16</title>
<path fill="none" stroke="#191970" d="M714,-347.2455C714,-339.9382 714,-329.6944 714,-320.7046"/>
<polygon fill="#191970" stroke="#191970" points="717.5001,-320.6426 714,-310.6427 710.5001,-320.6427 717.5001,-320.6426"/>
</g>
<!-- Node19 -->
<g id="node20" class="node">
<title>Node19</title>
<g id="a_node20"><a xlink:href="vfs__dentry_8h.html" target="_top" xlink:title="zrtos/vfs_dentry.h">
<polygon fill="#ffffff" stroke="#000000" points="742.5,-235.5 742.5,-254.5 837.5,-254.5 837.5,-235.5 742.5,-235.5"/>
<text text-anchor="middle" x="790" y="-242.5" font-family="Helvetica,sans-Serif" font-size="10.00" fill="#000000">zrtos/vfs_dentry.h</text>
</a>
</g>
</g>
<!-- Node15&#45;&gt;Node19 -->
<g id="edge42" class="edge">
<title>Node15&#45;&gt;Node19</title>
<path fill="none" stroke="#191970" d="M727.4711,-347.3761C738.5467,-338.8761 753.9929,-325.5911 764,-311 773.7833,-296.7352 780.6578,-278.2563 784.8704,-264.4812"/>
<polygon fill="#191970" stroke="#191970" points="788.3079,-265.1891 787.6828,-254.6127 781.576,-263.2705 788.3079,-265.1891"/>
</g>
<!-- Node16&#45;&gt;Node12 -->
<g id="edge23" class="edge">
<title>Node16&#45;&gt;Node12</title>
<path fill="none" stroke="#191970" d="M716.0927,-291.3165C719.1155,-278.1934 725.3098,-254.1969 734,-235 760.4647,-176.5384 803.8166,-113.9247 825.6076,-83.9743"/>
<polygon fill="#191970" stroke="#191970" points="828.5359,-85.8999 831.6356,-75.7687 822.8945,-81.7557 828.5359,-85.8999"/>
</g>
<!-- Node17 -->
<g id="node18" class="node">
<title>Node17</title>
<g id="a_node18"><a xlink:href="bitfield_8h.html" target="_top" xlink:title="zrtos/bitfield.h">
<polygon fill="#ffffff" stroke="#000000" points="490,-174 490,-193 568,-193 568,-174 490,-174"/>
<text text-anchor="middle" x="529" y="-181" font-family="Helvetica,sans-Serif" font-size="10.00" fill="#000000">zrtos/bitfield.h</text>
</a>
</g>
</g>
<!-- Node16&#45;&gt;Node17 -->
<g id="edge24" class="edge">
<title>Node16&#45;&gt;Node17</title>
<path fill="none" stroke="#191970" d="M698.8607,-291.3845C666.6646,-270.9356 591.1961,-223.0029 552.6154,-198.499"/>
<polygon fill="#191970" stroke="#191970" points="554.4069,-195.4905 544.0891,-193.0836 550.6539,-201.3995 554.4069,-195.4905"/>
</g>
<!-- Node16&#45;&gt;Node19 -->
<g id="edge29" class="edge">
<title>Node16&#45;&gt;Node19</title>
<path fill="none" stroke="#191970" d="M727.2382,-291.2455C738.681,-282.814 755.4296,-270.4729 768.7475,-260.6598"/>
<polygon fill="#191970" stroke="#191970" points="770.9391,-263.3924 776.9135,-254.6427 766.7867,-257.757 770.9391,-263.3924"/>
</g>
<!-- Node17&#45;&gt;Node5 -->
<g id="edge25" class="edge">
<title>Node17&#45;&gt;Node5</title>
<path fill="none" stroke="#191970" d="M526.0463,-173.7338C522.2157,-158.9846 517.4095,-130.7611 530,-112 543.7508,-91.51 568.6543,-80.112 591.0845,-73.7893"/>
<polygon fill="#191970" stroke="#191970" points="592.0106,-77.1652 600.8356,-71.3027 590.2808,-70.3823 592.0106,-77.1652"/>
</g>
<!-- Node18 -->
<g id="node19" class="node">
<title>Node18</title>
<g id="a_node19"><a xlink:href="mem_8h.html" target="_top" xlink:title="zrtos/mem.h">
<polygon fill="#ffffff" stroke="#000000" points="538.5,-112.5 538.5,-131.5 609.5,-131.5 609.5,-112.5 538.5,-112.5"/>
<text text-anchor="middle" x="574" y="-119.5" font-family="Helvetica,sans-Serif" font-size="10.00" fill="#000000">zrtos/mem.h</text>
</a>
</g>
</g>
<!-- Node17&#45;&gt;Node18 -->
<g id="edge26" class="edge">
<title>Node17&#45;&gt;Node18</title>
<path fill="none" stroke="#191970" d="M536.0313,-173.8906C542.663,-164.8273 552.7696,-151.0149 560.8887,-139.9188"/>
<polygon fill="#191970" stroke="#191970" points="563.7891,-141.882 566.8696,-131.7449 558.1399,-137.7484 563.7891,-141.882"/>
</g>
<!-- Node18&#45;&gt;Node5 -->
<g id="edge27" class="edge">
<title>Node18&#45;&gt;Node5</title>
<path fill="none" stroke="#191970" d="M585.1479,-112.2455C594.5087,-104.0549 608.0858,-92.1749 619.1349,-82.5069"/>
<polygon fill="#191970" stroke="#191970" points="621.7588,-84.8618 626.9798,-75.6427 617.1492,-79.5937 621.7588,-84.8618"/>
</g>
<!-- Node18&#45;&gt;Node11 -->
<g id="edge28" class="edge">
<title>Node18&#45;&gt;Node11</title>
<path fill="none" stroke="#191970" d="M566.3142,-112.0457C555.2337,-98.1773 533.6063,-72.8516 511,-56 493.5502,-42.9923 471.8828,-31.7911 454.1807,-23.6992"/>
<polygon fill="#191970" stroke="#191970" points="455.3658,-20.3958 444.8062,-19.532 452.5223,-26.7923 455.3658,-20.3958"/>
</g>
<!-- Node19&#45;&gt;Node5 -->
<g id="edge35" class="edge">
<title>Node19&#45;&gt;Node5</title>
<path fill="none" stroke="#191970" d="M781.8278,-235.3762C757.3944,-206.6027 684.6383,-120.9228 652.9865,-83.6485"/>
<polygon fill="#191970" stroke="#191970" points="655.3533,-81.0285 646.2126,-75.6714 650.0175,-85.5595 655.3533,-81.0285"/>
</g>
<!-- Node20 -->
<g id="node21" class="node">
<title>Node20</title>
<g id="a_node21"><a xlink:href="str_8h.html" target="_top" xlink:title="zrtos/str.h">
<polygon fill="#ffffff" stroke="#000000" points="586.5,-174 586.5,-193 647.5,-193 647.5,-174 586.5,-174"/>
<text text-anchor="middle" x="617" y="-181" font-family="Helvetica,sans-Serif" font-size="10.00" fill="#000000">zrtos/str.h</text>
</a>
</g>
</g>
<!-- Node19&#45;&gt;Node20 -->
<g id="edge30" class="edge">
<title>Node19&#45;&gt;Node20</title>
<path fill="none" stroke="#191970" d="M762.9688,-235.3906C733.5149,-224.92 686.2311,-208.1111 653.4973,-196.4745"/>
<polygon fill="#191970" stroke="#191970" points="654.4361,-193.0937 643.8414,-193.0419 652.0914,-199.6893 654.4361,-193.0937"/>
</g>
<!-- Node19&#45;&gt;Node21 -->
<g id="edge36" class="edge">
<title>Node19&#45;&gt;Node21</title>
<path fill="none" stroke="#191970" d="M742.2614,-238.5165C681.4686,-230.117 573.235,-214.6835 481,-199 469.1003,-196.9766 456.2538,-194.6049 444.3746,-192.3338"/>
<polygon fill="#191970" stroke="#191970" points="444.7147,-188.8349 434.2324,-190.3751 443.3873,-195.7079 444.7147,-188.8349"/>
</g>
<!-- Node22 -->
<g id="node23" class="node">
<title>Node22</title>
<g id="a_node23"><a xlink:href="vfs__inode_8h.html" target="_top" xlink:title="zrtos/vfs_inode.h">
<polygon fill="#ffffff" stroke="#000000" points="856,-174 856,-193 948,-193 948,-174 856,-174"/>
<text text-anchor="middle" x="902" y="-181" font-family="Helvetica,sans-Serif" font-size="10.00" fill="#000000">zrtos/vfs_inode.h</text>
</a>
</g>
</g>
<!-- Node19&#45;&gt;Node22 -->
<g id="edge38" class="edge">
<title>Node19&#45;&gt;Node22</title>
<path fill="none" stroke="#191970" d="M807.5,-235.3906C825.7465,-225.3713 854.5624,-209.5483 875.5806,-198.0071"/>
<polygon fill="#191970" stroke="#191970" points="877.542,-200.923 884.6229,-193.0419 874.1728,-194.7872 877.542,-200.923"/>
</g>
<!-- Node23 -->
<g id="node24" class="node">
<title>Node23</title>
<g id="a_node24"><a xlink:href="null_8h.html" target="_top" xlink:title="zrtos/vfs/module/null\l/null.h">
<polygon fill="#ffffff" stroke="#000000" points="966.5,-168.5 966.5,-198.5 1073.5,-198.5 1073.5,-168.5 966.5,-168.5"/>
<text text-anchor="start" x="974.5" y="-186.5" font-family="Helvetica,sans-Serif" font-size="10.00" fill="#000000">zrtos/vfs/module/null</text>
<text text-anchor="middle" x="1020" y="-175.5" font-family="Helvetica,sans-Serif" font-size="10.00" fill="#000000">/null.h</text>
</a>
</g>
</g>
<!-- Node19&#45;&gt;Node23 -->
<g id="edge40" class="edge">
<title>Node19&#45;&gt;Node23</title>
<path fill="none" stroke="#191970" d="M825.6851,-235.4581C860.4953,-226.1502 914.2094,-211.7875 956.3484,-200.5199"/>
<polygon fill="#191970" stroke="#191970" points="957.4878,-203.8383 966.2442,-197.8738 955.6795,-197.0758 957.4878,-203.8383"/>
</g>
<!-- Node20&#45;&gt;Node4 -->
<g id="edge31" class="edge">
<title>Node20&#45;&gt;Node4</title>
<path fill="none" stroke="#191970" d="M641.3771,-173.984C694.8053,-153.1275 822.3419,-103.3416 883.7743,-79.3605"/>
<polygon fill="#191970" stroke="#191970" points="885.3527,-82.5017 893.3953,-75.6048 882.8072,-75.9809 885.3527,-82.5017"/>
</g>
<!-- Node20&#45;&gt;Node5 -->
<g id="edge32" class="edge">
<title>Node20&#45;&gt;Node5</title>
<path fill="none" stroke="#191970" d="M618.7185,-173.8845C622.1488,-154.6913 629.9063,-111.286 634.4673,-85.7663"/>
<polygon fill="#191970" stroke="#191970" points="637.9437,-86.2082 636.2577,-75.7484 631.0529,-84.9766 637.9437,-86.2082"/>
</g>
<!-- Node20&#45;&gt;Node11 -->
<g id="edge33" class="edge">
<title>Node20&#45;&gt;Node11</title>
<path fill="none" stroke="#191970" d="M596.8733,-173.8441C578.4766,-164.5118 551.0161,-149.2765 530,-132 490.918,-99.8722 453.4514,-53.3886 434.2734,-28.081"/>
<polygon fill="#191970" stroke="#191970" points="436.8581,-25.6931 428.0661,-19.7811 431.2524,-29.8855 436.8581,-25.6931"/>
</g>
<!-- Node20&#45;&gt;Node18 -->
<g id="edge34" class="edge">
<title>Node20&#45;&gt;Node18</title>
<path fill="none" stroke="#191970" d="M610.2813,-173.8906C604.007,-164.917 594.4777,-151.2879 586.7596,-140.2491"/>
<polygon fill="#191970" stroke="#191970" points="589.4121,-137.9348 580.8135,-131.7449 583.6753,-141.9459 589.4121,-137.9348"/>
</g>
<!-- Node21&#45;&gt;Node5 -->
<g id="edge37" class="edge">
<title>Node21&#45;&gt;Node5</title>
<path fill="none" stroke="#191970" d="M399.7497,-173.5628C399.934,-158.0599 402.6952,-128.2185 420,-112 432.4059,-100.3729 530.6083,-83.0177 590.8999,-73.2877"/>
<polygon fill="#191970" stroke="#191970" points="591.6377,-76.7143 600.9591,-71.6782 590.5317,-69.8022 591.6377,-76.7143"/>
</g>
<!-- Node22&#45;&gt;Node3 -->
<g id="edge39" class="edge">
<title>Node22&#45;&gt;Node3</title>
<path fill="none" stroke="#191970" d="M902.1563,-173.8906C902.2949,-165.3657 902.5018,-152.6392 902.676,-141.9235"/>
<polygon fill="#191970" stroke="#191970" points="906.1784,-141.8005 902.8415,-131.7449 899.1793,-141.6866 906.1784,-141.8005"/>
</g>
<!-- Node23&#45;&gt;Node3 -->
<g id="edge41" class="edge">
<title>Node23&#45;&gt;Node3</title>
<path fill="none" stroke="#191970" d="M991.3786,-168.4554C972.713,-158.644 948.5001,-145.9167 930.1388,-136.2653"/>
<polygon fill="#191970" stroke="#191970" points="931.611,-133.0851 921.1308,-131.5303 928.354,-139.2812 931.611,-133.0851"/>
</g>
<!-- Node24&#45;&gt;Node5 -->
<g id="edge45" class="edge">
<title>Node24&#45;&gt;Node5</title>
<path fill="none" stroke="#191970" d="M250.2421,-113.5425C253.2004,-112.9914 256.1442,-112.4699 259,-112 291.071,-106.7227 496.4926,-82.5275 590.795,-71.5023"/>
<polygon fill="#191970" stroke="#191970" points="591.3908,-74.9566 600.917,-70.3196 590.5784,-68.0039 591.3908,-74.9566"/>
</g>
<!-- Node24&#45;&gt;Node11 -->
<g id="edge46" class="edge">
<title>Node24&#45;&gt;Node11</title>
<path fill="none" stroke="#191970" d="M228.9045,-112.4509C265.8672,-92.7375 350.7877,-47.4465 394.2731,-24.2543"/>
<polygon fill="#191970" stroke="#191970" points="395.9644,-27.3191 403.1408,-19.5249 392.6702,-21.1426 395.9644,-27.3191"/>
</g>
<!-- Node24&#45;&gt;Node13 -->
<g id="edge44" class="edge">
<title>Node24&#45;&gt;Node13</title>
<path fill="none" stroke="#191970" d="M250.0076,-113.7415C253.0476,-113.1382 256.0721,-112.551 259,-112 406.4895,-84.2458 443.1107,-74.8527 592,-56 771.7294,-33.2423 986.6973,-18.6299 1081.2762,-12.8341"/>
<polygon fill="#191970" stroke="#191970" points="1081.6275,-16.3193 1091.397,-12.2195 1081.2032,-9.3322 1081.6275,-16.3193"/>
</g>
<!-- Node25 -->
<g id="node26" class="node">
<title>Node25</title>
<g id="a_node26"><a xlink:href="debug_8h.html" target="_top" xlink:title="zrtos/debug.h">
<polygon fill="#ffffff" stroke="#000000" points="173,-56.5 173,-75.5 249,-75.5 249,-56.5 173,-56.5"/>
<text text-anchor="middle" x="211" y="-63.5" font-family="Helvetica,sans-Serif" font-size="10.00" fill="#000000">zrtos/debug.h</text>
</a>
</g>
</g>
<!-- Node24&#45;&gt;Node25 -->
<g id="edge47" class="edge">
<title>Node24&#45;&gt;Node25</title>
<path fill="none" stroke="#191970" d="M211,-112.2455C211,-104.9382 211,-94.6944 211,-85.7046"/>
<polygon fill="#191970" stroke="#191970" points="214.5001,-85.6426 211,-75.6427 207.5001,-85.6427 214.5001,-85.6426"/>
</g>
<!-- Node26&#45;&gt;Node4 -->
<g id="edge49" class="edge">
<title>Node26&#45;&gt;Node4</title>
<path fill="none" stroke="#191970" d="M383.1018,-241.7385C462.2102,-234.9739 635.5852,-218.417 692,-199 734.5645,-184.35 846.2285,-112.9692 894.8367,-81.2464"/>
<polygon fill="#191970" stroke="#191970" points="896.9632,-84.0377 903.4138,-75.6329 893.1299,-78.1806 896.9632,-84.0377"/>
</g>
<!-- Node26&#45;&gt;Node5 -->
<g id="edge50" class="edge">
<title>Node26&#45;&gt;Node5</title>
<path fill="none" stroke="#191970" d="M343.2167,-235.2911C343.886,-220.2145 346.5497,-190.5619 357,-168 370.5371,-138.7737 375.3443,-128.5105 403,-112 434.064,-93.4547 531.5146,-78.8636 590.7227,-71.4223"/>
<polygon fill="#191970" stroke="#191970" points="591.4553,-74.8585 600.9512,-70.16 590.5978,-67.9112 591.4553,-74.8585"/>
</g>
<!-- Node26&#45;&gt;Node11 -->
<g id="edge57" class="edge">
<title>Node26&#45;&gt;Node11</title>
<path fill="none" stroke="#191970" d="M302.6358,-240.5351C254.4585,-234.2776 178.2203,-221.1142 161,-199 141.6277,-174.1223 98.3537,-132.339 164,-56 191.0009,-24.601 310.3895,-14.5898 376.523,-11.4313"/>
<polygon fill="#191970" stroke="#191970" points="376.8227,-14.9215 386.6575,-10.981 376.5119,-7.9284 376.8227,-14.9215"/>
</g>
<!-- Node26&#45;&gt;Node12 -->
<g id="edge51" class="edge">
<title>Node26&#45;&gt;Node12</title>
<path fill="none" stroke="#191970" d="M383.1695,-241.5419C456.2946,-234.8484 608.1109,-219.0033 657,-199 658.8949,-198.2247 774.3469,-113.2078 776,-112 789.9029,-101.8422 805.5355,-90.4279 817.7504,-81.5106"/>
<polygon fill="#191970" stroke="#191970" points="819.9539,-84.2355 825.9672,-75.5125 815.8267,-78.5816 819.9539,-84.2355"/>
</g>
<!-- Node26&#45;&gt;Node13 -->
<g id="edge56" class="edge">
<title>Node26&#45;&gt;Node13</title>
<path fill="none" stroke="#191970" d="M383.2578,-242.6255C454.8374,-237.8865 608.6957,-225.3621 736,-199 748.6672,-196.3769 947.3846,-137.694 959,-132 1019.4621,-102.3611 1081.6624,-52.0114 1111.6408,-26.2447"/>
<polygon fill="#191970" stroke="#191970" points="1113.9593,-28.8668 1119.2136,-19.6667 1109.3688,-23.5822 1113.9593,-28.8668"/>
</g>
<!-- Node27 -->
<g id="node28" class="node">
<title>Node27</title>
<g id="a_node28"><a xlink:href="list_8h.html" target="_top" xlink:title="zrtos/list.h">
<polygon fill="#ffffff" stroke="#000000" points="268,-112.5 268,-131.5 330,-131.5 330,-112.5 268,-112.5"/>
<text text-anchor="middle" x="299" y="-119.5" font-family="Helvetica,sans-Serif" font-size="10.00" fill="#000000">zrtos/list.h</text>
</a>
</g>
</g>
<!-- Node26&#45;&gt;Node27 -->
<g id="edge52" class="edge">
<title>Node26&#45;&gt;Node27</title>
<path fill="none" stroke="#191970" d="M338.6996,-235.2167C334.6942,-225.9635 328.6577,-211.6489 324,-199 316.8183,-179.4964 309.5918,-156.8327 304.7686,-141.1672"/>
<polygon fill="#191970" stroke="#191970" points="308.1056,-140.1109 301.8434,-131.5649 301.4094,-142.1508 308.1056,-140.1109"/>
</g>
<!-- Node28 -->
<g id="node29" class="node">
<title>Node28</title>
<g id="a_node29"><a xlink:href="malloc__limit_8h.html" target="_top" xlink:title="zrtos/malloc_limit.h">
<polygon fill="#ffffff" stroke="#000000" points="170.5,-174 170.5,-193 271.5,-193 271.5,-174 170.5,-174"/>
<text text-anchor="middle" x="221" y="-181" font-family="Helvetica,sans-Serif" font-size="10.00" fill="#000000">zrtos/malloc_limit.h</text>
</a>
</g>
</g>
<!-- Node26&#45;&gt;Node28 -->
<g id="edge54" class="edge">
<title>Node26&#45;&gt;Node28</title>
<path fill="none" stroke="#191970" d="M323.9375,-235.3906C303.8828,-225.2811 272.1066,-209.2628 249.1616,-197.6962"/>
<polygon fill="#191970" stroke="#191970" points="250.4337,-194.418 239.9286,-193.0419 247.2827,-200.6687 250.4337,-194.418"/>
</g>
<!-- Node27&#45;&gt;Node5 -->
<g id="edge53" class="edge">
<title>Node27&#45;&gt;Node5</title>
<path fill="none" stroke="#191970" d="M330.4188,-114.7513C334.966,-113.78 339.5964,-112.8329 344,-112 430.6761,-95.6056 532.5203,-80.6169 590.7393,-72.4521"/>
<polygon fill="#191970" stroke="#191970" points="591.3212,-75.9049 600.7415,-71.0564 590.3537,-68.972 591.3212,-75.9049"/>
</g>
<!-- Node28&#45;&gt;Node24 -->
<g id="edge55" class="edge">
<title>Node28&#45;&gt;Node24</title>
<path fill="none" stroke="#191970" d="M219.4375,-173.8906C218.0513,-165.3657 215.982,-152.6392 214.2396,-141.9235"/>
<polygon fill="#191970" stroke="#191970" points="217.6442,-141.0535 212.5845,-131.7449 210.7349,-142.177 217.6442,-141.0535"/>
</g>
<!-- Node29&#45;&gt;Node4 -->
<g id="edge60" class="edge">
<title>Node29&#45;&gt;Node4</title>
<path fill="none" stroke="#191970" d="M1218.8081,-173.9124C1186.5974,-159.5181 1123.2205,-131.8924 1068,-112 1029.5501,-98.149 984.6451,-84.7328 954.0592,-75.9996"/>
<polygon fill="#191970" stroke="#191970" points="954.8411,-72.5833 944.2656,-73.2235 952.9321,-79.318 954.8411,-72.5833"/>
</g>
<!-- Node29&#45;&gt;Node5 -->
<g id="edge62" class="edge">
<title>Node29&#45;&gt;Node5</title>
<path fill="none" stroke="#191970" d="M1205.718,-175.4718C1164.0678,-165.6308 1091.7112,-148.2536 1030,-132 998.2976,-123.6501 991.0739,-118.7845 959,-112 862.7369,-91.6378 748.3006,-77.6385 685.3706,-70.8046"/>
<polygon fill="#191970" stroke="#191970" points="685.6678,-67.3165 675.3516,-69.7301 684.9213,-74.2766 685.6678,-67.3165"/>
</g>
<!-- Node29&#45;&gt;Node12 -->
<g id="edge61" class="edge">
<title>Node29&#45;&gt;Node12</title>
<path fill="none" stroke="#191970" d="M1210.8529,-173.9345C1204.6412,-171.939 1198.1119,-169.8736 1192,-168 1137.1333,-151.1809 1121.2178,-153.4732 1068,-132 1050.3012,-124.8586 1047.8591,-118.7305 1030,-112 1023.0705,-109.3885 937.6214,-89.1456 883.3897,-76.3984"/>
<polygon fill="#191970" stroke="#191970" points="884.1881,-72.9907 873.6527,-74.1113 882.5874,-79.8053 884.1881,-72.9907"/>
</g>
<!-- Node29&#45;&gt;Node13 -->
<g id="edge70" class="edge">
<title>Node29&#45;&gt;Node13</title>
<path fill="none" stroke="#191970" d="M1227.8125,-173.8984C1216.1865,-164.2632 1198.7521,-148.517 1187,-132 1163.4002,-98.8316 1145.534,-54.3419 1136.5199,-29.2769"/>
<polygon fill="#191970" stroke="#191970" points="1139.8148,-28.096 1133.2077,-19.8136 1133.2078,-30.4085 1139.8148,-28.096"/>
</g>
<!-- Node30 -->
<g id="node31" class="node">
<title>Node30</title>
<g id="a_node31"><a xlink:href="arch_8h.html" target="_top" xlink:title="zrtos/arch.h">
<polygon fill="#ffffff" stroke="#000000" points="1274,-112.5 1274,-131.5 1342,-131.5 1342,-112.5 1274,-112.5"/>
<text text-anchor="middle" x="1308" y="-119.5" font-family="Helvetica,sans-Serif" font-size="10.00" fill="#000000">zrtos/arch.h</text>
</a>
</g>
</g>
<!-- Node29&#45;&gt;Node30 -->
<g id="edge63" class="edge">
<title>Node29&#45;&gt;Node30</title>
<path fill="none" stroke="#191970" d="M1250.625,-173.8906C1261.0431,-164.4683 1277.1364,-149.9134 1289.6304,-138.6137"/>
<polygon fill="#191970" stroke="#191970" points="1292.1562,-141.0484 1297.2252,-131.7449 1287.4608,-135.8568 1292.1562,-141.0484"/>
</g>
<!-- Node30&#45;&gt;Node5 -->
<g id="edge64" class="edge">
<title>Node30&#45;&gt;Node5</title>
<path fill="none" stroke="#191970" d="M1273.8252,-113.5479C1270.8515,-112.9658 1267.8794,-112.4377 1265,-112 1208.2755,-103.3767 821.7254,-77.8851 685.4402,-69.0534"/>
<polygon fill="#191970" stroke="#191970" points="685.5137,-65.5509 675.3085,-68.3976 685.0615,-72.5363 685.5137,-65.5509"/>
</g>
<!-- Node30&#45;&gt;Node13 -->
<g id="edge65" class="edge">
<title>Node30&#45;&gt;Node13</title>
<path fill="none" stroke="#191970" d="M1292.8238,-112.4509C1261.8219,-92.9441 1191.0178,-48.3932 1153.8248,-24.9909"/>
<polygon fill="#191970" stroke="#191970" points="1155.4657,-21.8882 1145.1378,-19.5249 1151.7377,-27.8129 1155.4657,-21.8882"/>
</g>
<!-- Node31 -->
<g id="node32" class="node">
<title>Node31</title>
<g id="a_node32"><a xlink:href="atmega328p_8h.html" target="_top" xlink:title="zrtos/arch/atmega328p.h">
<polygon fill="#ffffff" stroke="#000000" points="1272.5,-56.5 1272.5,-75.5 1397.5,-75.5 1397.5,-56.5 1272.5,-56.5"/>
<text text-anchor="middle" x="1335" y="-63.5" font-family="Helvetica,sans-Serif" font-size="10.00" fill="#000000">zrtos/arch/atmega328p.h</text>
</a>
</g>
</g>
<!-- Node30&#45;&gt;Node31 -->
<g id="edge66" class="edge">
<title>Node30&#45;&gt;Node31</title>
<path fill="none" stroke="#191970" d="M1312.703,-112.2455C1316.3424,-104.6973 1321.4924,-94.0158 1325.9262,-84.8197"/>
<polygon fill="#191970" stroke="#191970" points="1329.1605,-86.1704 1330.3509,-75.6427 1322.8551,-83.1303 1329.1605,-86.1704"/>
</g>
<!-- Node33 -->
<g id="node34" class="node">
<title>Node33</title>
<g id="a_node34"><a xlink:href="atmega2560_8h.html" target="_top" xlink:title="zrtos/arch/atmega2560.h">
<polygon fill="#ffffff" stroke="#000000" points="1415.5,-56.5 1415.5,-75.5 1540.5,-75.5 1540.5,-56.5 1415.5,-56.5"/>
<text text-anchor="middle" x="1478" y="-63.5" font-family="Helvetica,sans-Serif" font-size="10.00" fill="#000000">zrtos/arch/atmega2560.h</text>
</a>
</g>
</g>
<!-- Node30&#45;&gt;Node33 -->
<g id="edge68" class="edge">
<title>Node30&#45;&gt;Node33</title>
<path fill="none" stroke="#191970" d="M1337.224,-112.3733C1365.4925,-103.0613 1408.4965,-88.8953 1439.5344,-78.671"/>
<polygon fill="#191970" stroke="#191970" points="1440.7544,-81.9542 1449.1573,-75.5011 1438.5643,-75.3056 1440.7544,-81.9542"/>
</g>
<!-- Node32 -->
<g id="node33" class="node">
<title>Node32</title>
<polygon fill="#ffffff" stroke="#bfbfbf" points="1360,-.5 1360,-19.5 1452,-19.5 1452,-.5 1360,-.5"/>
<text text-anchor="middle" x="1406" y="-7.5" font-family="Helvetica,sans-Serif" font-size="10.00" fill="#000000">util/delay_basic.h</text>
</g>
<!-- Node31&#45;&gt;Node32 -->
<g id="edge67" class="edge">
<title>Node31&#45;&gt;Node32</title>
<path fill="none" stroke="#191970" d="M1347.3673,-56.2455C1357.9554,-47.8943 1373.4064,-35.7076 1385.7893,-25.9408"/>
<polygon fill="#191970" stroke="#191970" points="1388.0903,-28.5837 1393.7745,-19.6427 1383.7553,-23.0875 1388.0903,-28.5837"/>
</g>
<!-- Node33&#45;&gt;Node32 -->
<g id="edge69" class="edge">
<title>Node33&#45;&gt;Node32</title>
<path fill="none" stroke="#191970" d="M1465.4586,-56.2455C1454.7213,-47.8943 1439.0527,-35.7076 1426.4953,-25.9408"/>
<polygon fill="#191970" stroke="#191970" points="1428.4401,-23.0194 1418.3977,-19.6427 1424.1425,-28.5449 1428.4401,-23.0194"/>
</g>
<!-- Node35&#45;&gt;Node4 -->
<g id="edge73" class="edge">
<title>Node35&#45;&gt;Node4</title>
<path fill="none" stroke="#191970" d="M1195.9069,-116.5285C1138.9568,-106.174 1015.6403,-83.7528 954.2458,-72.5901"/>
<polygon fill="#191970" stroke="#191970" points="954.7019,-69.1158 944.2371,-70.7704 953.4496,-76.0029 954.7019,-69.1158"/>
</g>
<!-- Node35&#45;&gt;Node13 -->
<g id="edge74" class="edge">
<title>Node35&#45;&gt;Node13</title>
<path fill="none" stroke="#191970" d="M1220.7225,-112.4972C1213.0911,-99.1652 1198.113,-74.4728 1182,-56 1172.5915,-45.2136 1160.7226,-34.5362 1150.7004,-26.1876"/>
<polygon fill="#191970" stroke="#191970" points="1152.7772,-23.3652 1142.8106,-19.7712 1148.3606,-28.7961 1152.7772,-23.3652"/>
</g>
</g>
</svg>
