<?xml version="1.0" encoding="UTF-8" standalone="no"?>
<!DOCTYPE svg PUBLIC "-//W3C//DTD SVG 1.1//EN"
 "http://www.w3.org/Graphics/SVG/1.1/DTD/svg11.dtd">
<!-- Generated by graphviz version 10.0.1 (20240210.2158)
 -->
<!-- Title: avr_software_emulator.h Pages: 1 -->
<svg width="154pt" height="84pt"
 viewBox="0.00 0.00 154.38 84.00" xmlns="http://www.w3.org/2000/svg" xmlns:xlink="http://www.w3.org/1999/xlink">
<g id="graph0" class="graph" transform="scale(1 1) rotate(0) translate(4 80)">
<title>avr_software_emulator.h</title>
<!-- Node1 -->
<g id="Node000001" class="node">
<title>Node1</title>
<g id="a_Node000001"><a xlink:title=" ">
<polygon fill="#999999" stroke="#666666" points="138.38,-76 18.12,-76 18.12,-56 138.38,-56 138.38,-76"/>
<text text-anchor="middle" x="78.25" y="-62.5" font-family="Helvetica,sans-Serif" font-size="10.00">avr_software_emulator.h</text>
</a>
</g>
</g>
<!-- Node2 -->
<g id="Node000002" class="node">
<title>Node2</title>
<g id="a_Node000002"><a xlink:title=" ">
<polygon fill="#e0e0e0" stroke="#999999" points="74.5,-20 0,-20 0,0 74.5,0 74.5,-20"/>
<text text-anchor="middle" x="37.25" y="-6.5" font-family="Helvetica,sans-Serif" font-size="10.00">avr/interrupt.h</text>
</a>
</g>
</g>
<!-- Node1&#45;&gt;Node2 -->
<g id="edge1_Node000001_Node000002" class="edge">
<title>Node1&#45;&gt;Node2</title>
<g id="a_edge1_Node000001_Node000002"><a xlink:title=" ">
<path fill="none" stroke="#63b8ff" d="M71.11,-55.59C65.64,-48.39 57.93,-38.23 51.24,-29.43"/>
<polygon fill="#63b8ff" stroke="#63b8ff" points="54.06,-27.35 45.23,-21.5 48.48,-31.58 54.06,-27.35"/>
</a>
</g>
</g>
<!-- Node3 -->
<g id="Node000003" class="node">
<title>Node3</title>
<g id="a_Node000003"><a xlink:title=" ">
<polygon fill="#e0e0e0" stroke="#999999" points="146.38,-20 92.12,-20 92.12,0 146.38,0 146.38,-20"/>
<text text-anchor="middle" x="119.25" y="-6.5" font-family="Helvetica,sans-Serif" font-size="10.00">avr/wdt.h</text>
</a>
</g>
</g>
<!-- Node1&#45;&gt;Node3 -->
<g id="edge2_Node000001_Node000003" class="edge">
<title>Node1&#45;&gt;Node3</title>
<g id="a_edge2_Node000001_Node000003"><a xlink:title=" ">
<path fill="none" stroke="#63b8ff" d="M85.39,-55.59C90.86,-48.39 98.57,-38.23 105.26,-29.43"/>
<polygon fill="#63b8ff" stroke="#63b8ff" points="108.02,-31.58 111.27,-21.5 102.44,-27.35 108.02,-31.58"/>
</a>
</g>
</g>
</g>
</svg>
