<?xml version="1.0" encoding="UTF-8" standalone="no"?>
<!DOCTYPE svg PUBLIC "-//W3C//DTD SVG 1.1//EN"
 "http://www.w3.org/Graphics/SVG/1.1/DTD/svg11.dtd">
<!-- Generated by graphviz version 2.40.1 (20161225.0304)
 -->
<!-- Title: uart.h Pages: 1 -->
<svg width="250pt" height="84pt"
 viewBox="0.00 0.00 250.00 84.00" xmlns="http://www.w3.org/2000/svg" xmlns:xlink="http://www.w3.org/1999/xlink">
<g id="graph0" class="graph" transform="scale(1 1) rotate(0) translate(4 80)">
<title>uart.h</title>
<polygon fill="#ffffff" stroke="transparent" points="-4,4 -4,-80 246,-80 246,4 -4,4"/>
<!-- Node3 -->
<g id="node1" class="node">
<title>Node3</title>
<polygon fill="#bfbfbf" stroke="#000000" points="100,-56.5 100,-75.5 141,-75.5 141,-56.5 100,-56.5"/>
<text text-anchor="middle" x="120.5" y="-63.5" font-family="Helvetica,sans-Serif" font-size="10.00" fill="#000000">uart.h</text>
</g>
<!-- Node4 -->
<g id="node2" class="node">
<title>Node4</title>
<g id="a_node2"><a xlink:href="uart0_8h.html" target="_top" xlink:title="uart0.h">
<polygon fill="#ffffff" stroke="#000000" points="0,-.5 0,-19.5 47,-19.5 47,-.5 0,-.5"/>
<text text-anchor="middle" x="23.5" y="-7.5" font-family="Helvetica,sans-Serif" font-size="10.00" fill="#000000">uart0.h</text>
</a>
</g>
</g>
<!-- Node3&#45;&gt;Node4 -->
<g id="edge1" class="edge">
<title>Node3&#45;&gt;Node4</title>
<path fill="none" stroke="#191970" d="M94.5984,-51.0465C77.3391,-41.0824 55.1624,-28.2794 40.2025,-19.6427"/>
<polygon fill="#191970" stroke="#191970" points="93.1936,-54.2768 103.6039,-56.2455 96.6935,-48.2146 93.1936,-54.2768"/>
</g>
<!-- Node5 -->
<g id="node3" class="node">
<title>Node5</title>
<g id="a_node3"><a xlink:href="uart1_8h.html" target="_top" xlink:title="uart1.h">
<polygon fill="#ffffff" stroke="#000000" points="65,-.5 65,-19.5 112,-19.5 112,-.5 65,-.5"/>
<text text-anchor="middle" x="88.5" y="-7.5" font-family="Helvetica,sans-Serif" font-size="10.00" fill="#000000">uart1.h</text>
</a>
</g>
</g>
<!-- Node3&#45;&gt;Node5 -->
<g id="edge2" class="edge">
<title>Node3&#45;&gt;Node5</title>
<path fill="none" stroke="#191970" d="M109.8355,-47.3372C104.5346,-38.0605 98.3513,-27.2398 94.0101,-19.6427"/>
<polygon fill="#191970" stroke="#191970" points="106.9257,-49.2996 114.926,-56.2455 113.0034,-45.8266 106.9257,-49.2996"/>
</g>
<!-- Node6 -->
<g id="node4" class="node">
<title>Node6</title>
<g id="a_node4"><a xlink:href="uart2_8h.html" target="_top" xlink:title="uart2.h">
<polygon fill="#ffffff" stroke="#000000" points="130,-.5 130,-19.5 177,-19.5 177,-.5 130,-.5"/>
<text text-anchor="middle" x="153.5" y="-7.5" font-family="Helvetica,sans-Serif" font-size="10.00" fill="#000000">uart2.h</text>
</a>
</g>
</g>
<!-- Node3&#45;&gt;Node6 -->
<g id="edge3" class="edge">
<title>Node3&#45;&gt;Node6</title>
<path fill="none" stroke="#191970" d="M131.3254,-47.6296C136.8299,-38.2887 143.2937,-27.3197 147.8177,-19.6427"/>
<polygon fill="#191970" stroke="#191970" points="128.3097,-45.8532 126.2482,-56.2455 134.3405,-49.4071 128.3097,-45.8532"/>
</g>
<!-- Node7 -->
<g id="node5" class="node">
<title>Node7</title>
<g id="a_node5"><a xlink:href="uart3_8h.html" target="_top" xlink:title="uart3.h">
<polygon fill="#ffffff" stroke="#000000" points="195,-.5 195,-19.5 242,-19.5 242,-.5 195,-.5"/>
<text text-anchor="middle" x="218.5" y="-7.5" font-family="Helvetica,sans-Serif" font-size="10.00" fill="#000000">uart3.h</text>
</a>
</g>
</g>
<!-- Node3&#45;&gt;Node7 -->
<g id="edge4" class="edge">
<title>Node3&#45;&gt;Node7</title>
<path fill="none" stroke="#191970" d="M146.6686,-51.0465C164.1058,-41.0824 186.5111,-28.2794 201.6253,-19.6427"/>
<polygon fill="#191970" stroke="#191970" points="144.5162,-48.2453 137.5703,-56.2455 147.9892,-54.323 144.5162,-48.2453"/>
</g>
</g>
</svg>
