<?xml version="1.0" encoding="UTF-8" standalone="no"?>
<!DOCTYPE svg PUBLIC "-//W3C//DTD SVG 1.1//EN"
 "http://www.w3.org/Graphics/SVG/1.1/DTD/svg11.dtd">
<!-- Generated by graphviz version 10.0.1 (20240210.2158)
 -->
<!-- Title: binary.h Pages: 1 -->
<svg width="104pt" height="84pt"
 viewBox="0.00 0.00 103.50 84.00" xmlns="http://www.w3.org/2000/svg" xmlns:xlink="http://www.w3.org/1999/xlink">
<g id="graph0" class="graph" transform="scale(1 1) rotate(0) translate(4 80)">
<title>binary.h</title>
<!-- Node1 -->
<g id="Node000001" class="node">
<title>Node1</title>
<g id="a_Node000001"><a xlink:title=" ">
<polygon fill="#999999" stroke="#666666" points="73.25,-76 22.75,-76 22.75,-56 73.25,-56 73.25,-76"/>
<text text-anchor="middle" x="48" y="-62.5" font-family="Helvetica,sans-Serif" font-size="10.00">binary.h</text>
</a>
</g>
</g>
<!-- Node2 -->
<g id="Node000002" class="node">
<title>Node2</title>
<g id="a_Node000002"><a xlink:href="adc_8h.html" target="_top" xlink:title=" ">
<polygon fill="white" stroke="#666666" points="40,-20 0,-20 0,0 40,0 40,-20"/>
<text text-anchor="middle" x="20" y="-6.5" font-family="Helvetica,sans-Serif" font-size="10.00">adc.h</text>
</a>
</g>
</g>
<!-- Node1&#45;&gt;Node2 -->
<g id="edge1_Node000001_Node000002" class="edge">
<title>Node1&#45;&gt;Node2</title>
<g id="a_edge1_Node000001_Node000002"><a xlink:title=" ">
<path fill="none" stroke="#63b8ff" d="M37.93,-45.58C33.47,-36.97 28.42,-27.24 24.82,-20.3"/>
<polygon fill="#63b8ff" stroke="#63b8ff" points="34.72,-46.98 42.43,-54.25 40.93,-43.76 34.72,-46.98"/>
</a>
</g>
</g>
<!-- Node3 -->
<g id="Node000003" class="node">
<title>Node3</title>
<g id="a_Node000003"><a xlink:href="avr_2spi_2spi_8h.html" target="_top" xlink:title=" ">
<polygon fill="white" stroke="#666666" points="95.5,-20 58.5,-20 58.5,0 95.5,0 95.5,-20"/>
<text text-anchor="middle" x="77" y="-6.5" font-family="Helvetica,sans-Serif" font-size="10.00">spi.h</text>
</a>
</g>
</g>
<!-- Node1&#45;&gt;Node3 -->
<g id="edge2_Node000001_Node000003" class="edge">
<title>Node1&#45;&gt;Node3</title>
<g id="a_edge2_Node000001_Node000003"><a xlink:title=" ">
<path fill="none" stroke="#63b8ff" d="M58.43,-45.58C63.05,-36.97 68.28,-27.24 72.01,-20.3"/>
<polygon fill="#63b8ff" stroke="#63b8ff" points="55.42,-43.79 53.77,-54.26 61.58,-47.11 55.42,-43.79"/>
</a>
</g>
</g>
</g>
</svg>
