<?xml version="1.0" encoding="UTF-8" standalone="no"?>
<!DOCTYPE svg PUBLIC "-//W3C//DTD SVG 1.1//EN"
 "http://www.w3.org/Graphics/SVG/1.1/DTD/svg11.dtd">
<!-- Generated by graphviz version 2.40.1 (20161225.0304)
 -->
<!-- Title: zrtos_bitfield__get Pages: 1 -->
<svg width="400pt" height="103pt"
 viewBox="0.00 0.00 400.00 102.50" xmlns="http://www.w3.org/2000/svg" xmlns:xlink="http://www.w3.org/1999/xlink">
<g id="graph0" class="graph" transform="scale(1 1) rotate(0) translate(4 98.5)">
<title>zrtos_bitfield__get</title>
<polygon fill="#ffffff" stroke="transparent" points="-4,4 -4,-98.5 396,-98.5 396,4 -4,4"/>
<!-- Node20 -->
<g id="node1" class="node">
<title>Node20</title>
<polygon fill="#bfbfbf" stroke="#000000" points="0,-22.5 0,-41.5 96,-41.5 96,-22.5 0,-22.5"/>
<text text-anchor="middle" x="48" y="-29.5" font-family="Helvetica,sans-Serif" font-size="10.00" fill="#000000">zrtos_bitfield__get</text>
</g>
<!-- Node21 -->
<g id="node2" class="node">
<title>Node21</title>
<g id="a_node2"><a xlink:href="bitfield_8h.html#ae159ead9b17ac132ed00e348f491a75f" target="_top" xlink:title="zrtos_bitfield__find\l_first">
<polygon fill="#ffffff" stroke="#000000" points="146,-39 146,-69 244,-69 244,-39 146,-39"/>
<text text-anchor="start" x="154" y="-57" font-family="Helvetica,sans-Serif" font-size="10.00" fill="#000000">zrtos_bitfield__find</text>
<text text-anchor="middle" x="195" y="-46" font-family="Helvetica,sans-Serif" font-size="10.00" fill="#000000">_first</text>
</a>
</g>
</g>
<!-- Node20&#45;&gt;Node21 -->
<g id="edge1" class="edge">
<title>Node20&#45;&gt;Node21</title>
<path fill="none" stroke="#191970" d="M106.409,-40.7415C119.4401,-42.6917 133.1325,-44.7409 145.7509,-46.6294"/>
<polygon fill="#191970" stroke="#191970" points="106.5412,-37.2224 96.1333,-39.2036 105.5051,-44.1453 106.5412,-37.2224"/>
</g>
<!-- Node24 -->
<g id="node5" class="node">
<title>Node24</title>
<g id="a_node5"><a xlink:href="vfs__fd_8h.html#a7f479532b576c0fa4e6295c6d976abc3" target="_top" xlink:title="zrtos_vfs_fd_set__is_set">
<polygon fill="#ffffff" stroke="#000000" points="132,-.5 132,-19.5 258,-19.5 258,-.5 132,-.5"/>
<text text-anchor="middle" x="195" y="-7.5" font-family="Helvetica,sans-Serif" font-size="10.00" fill="#000000">zrtos_vfs_fd_set__is_set</text>
</a>
</g>
</g>
<!-- Node20&#45;&gt;Node24 -->
<g id="edge4" class="edge">
<title>Node20&#45;&gt;Node24</title>
<path fill="none" stroke="#191970" d="M106.2094,-23.2884C114.609,-22.0313 123.2873,-20.7325 131.779,-19.4616"/>
<polygon fill="#191970" stroke="#191970" points="105.5051,-19.8547 96.1333,-24.7964 106.5412,-26.7776 105.5051,-19.8547"/>
</g>
<!-- Node22 -->
<g id="node3" class="node">
<title>Node22</title>
<g id="a_node3"><a xlink:href="bitfield_8h.html#a8af20acb2c9cd25ddfcb574505c48a4a" target="_top" xlink:title="zrtos_bitfield__find\l_first_zero">
<polygon fill="#ffffff" stroke="#000000" points="294,-64 294,-94 392,-94 392,-64 294,-64"/>
<text text-anchor="start" x="302" y="-82" font-family="Helvetica,sans-Serif" font-size="10.00" fill="#000000">zrtos_bitfield__find</text>
<text text-anchor="middle" x="343" y="-71" font-family="Helvetica,sans-Serif" font-size="10.00" fill="#000000">_first_zero</text>
</a>
</g>
</g>
<!-- Node21&#45;&gt;Node22 -->
<g id="edge2" class="edge">
<title>Node21&#45;&gt;Node22</title>
<path fill="none" stroke="#191970" d="M254.2035,-64.0006C267.3825,-66.2268 281.2143,-68.5632 293.9333,-70.7117"/>
<polygon fill="#191970" stroke="#191970" points="254.7252,-60.5392 244.2819,-62.3246 253.5592,-67.4414 254.7252,-60.5392"/>
</g>
<!-- Node23 -->
<g id="node4" class="node">
<title>Node23</title>
<g id="a_node4"><a xlink:href="bitfield_8h.html#a2eaa50d4017c09f5bb42a9c9d5857061" target="_top" xlink:title="zrtos_bitfield__find\l_first_set">
<polygon fill="#ffffff" stroke="#000000" points="294,-15 294,-45 392,-45 392,-15 294,-15"/>
<text text-anchor="start" x="302" y="-33" font-family="Helvetica,sans-Serif" font-size="10.00" fill="#000000">zrtos_bitfield__find</text>
<text text-anchor="middle" x="343" y="-22" font-family="Helvetica,sans-Serif" font-size="10.00" fill="#000000">_first_set</text>
</a>
</g>
</g>
<!-- Node21&#45;&gt;Node23 -->
<g id="edge3" class="edge">
<title>Node21&#45;&gt;Node23</title>
<path fill="none" stroke="#191970" d="M254.2035,-44.3994C267.3825,-42.2623 281.2143,-40.0193 293.9333,-37.9568"/>
<polygon fill="#191970" stroke="#191970" points="253.5926,-40.9527 244.2819,-46.0083 254.7132,-47.8624 253.5926,-40.9527"/>
</g>
</g>
</svg>
