<?xml version="1.0" encoding="UTF-8" standalone="no"?>
<!DOCTYPE svg PUBLIC "-//W3C//DTD SVG 1.1//EN"
 "http://www.w3.org/Graphics/SVG/1.1/DTD/svg11.dtd">
<!-- Generated by graphviz version 10.0.1 (20240210.2158)
 -->
<!-- Title: zrtos_bitfield__find_first_set Pages: 1 -->
<svg width="367pt" height="40pt"
 viewBox="0.00 0.00 367.25 40.00" xmlns="http://www.w3.org/2000/svg" xmlns:xlink="http://www.w3.org/1999/xlink">
<g id="graph0" class="graph" transform="scale(1 1) rotate(0) translate(4 36)">
<title>zrtos_bitfield__find_first_set</title>
<!-- Node1 -->
<g id="Node000001" class="node">
<title>Node1</title>
<g id="a_Node000001"><a xlink:title=" ">
<polygon fill="#999999" stroke="#666666" points="96.25,-32 0,-32 0,0 96.25,0 96.25,-32"/>
<text text-anchor="start" x="8" y="-18.5" font-family="Helvetica,sans-Serif" font-size="10.00">zrtos_bitfield__find</text>
<text text-anchor="middle" x="48.12" y="-6.5" font-family="Helvetica,sans-Serif" font-size="10.00">_first_set</text>
</a>
</g>
</g>
<!-- Node2 -->
<g id="Node000002" class="node">
<title>Node2</title>
<g id="a_Node000002"><a xlink:href="bitfield_8h.html#ae159ead9b17ac132ed00e348f491a75f" target="_top" xlink:title=" ">
<polygon fill="white" stroke="#666666" points="228.5,-32 132.25,-32 132.25,0 228.5,0 228.5,-32"/>
<text text-anchor="start" x="140.25" y="-18.5" font-family="Helvetica,sans-Serif" font-size="10.00">zrtos_bitfield__find</text>
<text text-anchor="middle" x="180.38" y="-6.5" font-family="Helvetica,sans-Serif" font-size="10.00">_first</text>
</a>
</g>
</g>
<!-- Node1&#45;&gt;Node2 -->
<g id="edge1_Node000001_Node000002" class="edge">
<title>Node1&#45;&gt;Node2</title>
<g id="a_edge1_Node000001_Node000002"><a xlink:title=" ">
<path fill="none" stroke="#63b8ff" d="M96.52,-16C104.33,-16 112.51,-16 120.56,-16"/>
<polygon fill="#63b8ff" stroke="#63b8ff" points="120.29,-19.5 130.29,-16 120.29,-12.5 120.29,-19.5"/>
</a>
</g>
</g>
<!-- Node3 -->
<g id="Node000003" class="node">
<title>Node3</title>
<g id="a_Node000003"><a xlink:href="bitfield_8h.html#aeda38234a3298baed14a5a7cd4207883" target="_top" xlink:title=" ">
<polygon fill="white" stroke="#666666" points="359.25,-26 264.5,-26 264.5,-6 359.25,-6 359.25,-26"/>
<text text-anchor="middle" x="311.88" y="-12.5" font-family="Helvetica,sans-Serif" font-size="10.00">zrtos_bitfield__get</text>
</a>
</g>
</g>
<!-- Node2&#45;&gt;Node3 -->
<g id="edge2_Node000002_Node000003" class="edge">
<title>Node2&#45;&gt;Node3</title>
<g id="a_edge2_Node000002_Node000003"><a xlink:title=" ">
<path fill="none" stroke="#63b8ff" d="M228.86,-16C236.71,-16 244.93,-16 253,-16"/>
<polygon fill="#63b8ff" stroke="#63b8ff" points="252.75,-19.5 262.75,-16 252.75,-12.5 252.75,-19.5"/>
</a>
</g>
</g>
</g>
</svg>
