<?xml version="1.0" encoding="UTF-8" standalone="no"?>
<!DOCTYPE svg PUBLIC "-//W3C//DTD SVG 1.1//EN"
 "http://www.w3.org/Graphics/SVG/1.1/DTD/svg11.dtd">
<!-- Generated by graphviz version 2.40.1 (20161225.0304)
 -->
<!-- Title: zrtos_bitfield__zero Pages: 1 -->
<svg width="559pt" height="28pt"
 viewBox="0.00 0.00 559.00 28.00" xmlns="http://www.w3.org/2000/svg" xmlns:xlink="http://www.w3.org/1999/xlink">
<g id="graph0" class="graph" transform="scale(1 1) rotate(0) translate(4 24)">
<title>zrtos_bitfield__zero</title>
<polygon fill="#ffffff" stroke="transparent" points="-4,4 -4,-24 555,-24 555,4 -4,4"/>
<!-- Node40 -->
<g id="node1" class="node">
<title>Node40</title>
<polygon fill="#bfbfbf" stroke="#000000" points="0,-.5 0,-19.5 101,-19.5 101,-.5 0,-.5"/>
<text text-anchor="middle" x="50.5" y="-7.5" font-family="Helvetica,sans-Serif" font-size="10.00" fill="#000000">zrtos_bitfield__zero</text>
</g>
<!-- Node41 -->
<g id="node2" class="node">
<title>Node41</title>
<g id="a_node2"><a xlink:href="vfs__fd_8h.html#a7621285229575f9be4267258e7f0b26d" target="_top" xlink:title="zrtos_vfs_fd_set__zero">
<polygon fill="#ffffff" stroke="#000000" points="137,-.5 137,-19.5 256,-19.5 256,-.5 137,-.5"/>
<text text-anchor="middle" x="196.5" y="-7.5" font-family="Helvetica,sans-Serif" font-size="10.00" fill="#000000">zrtos_vfs_fd_set__zero</text>
</a>
</g>
</g>
<!-- Node40&#45;&gt;Node41 -->
<g id="edge1" class="edge">
<title>Node40&#45;&gt;Node41</title>
<path fill="none" stroke="#191970" d="M111.3276,-10C119.7854,-10 128.4675,-10 136.9023,-10"/>
<polygon fill="#191970" stroke="#191970" points="111.154,-6.5001 101.154,-10 111.1539,-13.5001 111.154,-6.5001"/>
</g>
<!-- Node42 -->
<g id="node3" class="node">
<title>Node42</title>
<g id="a_node3"><a xlink:href="vfs__fd_8h.html#a8747abe85b66255bf04adc7610b87374" target="_top" xlink:title="zrtos_vfs_fd_set__init">
<polygon fill="#ffffff" stroke="#000000" points="292,-.5 292,-19.5 405,-19.5 405,-.5 292,-.5"/>
<text text-anchor="middle" x="348.5" y="-7.5" font-family="Helvetica,sans-Serif" font-size="10.00" fill="#000000">zrtos_vfs_fd_set__init</text>
</a>
</g>
</g>
<!-- Node41&#45;&gt;Node42 -->
<g id="edge2" class="edge">
<title>Node41&#45;&gt;Node42</title>
<path fill="none" stroke="#191970" d="M266.3424,-10C274.7724,-10 283.3042,-10 291.5191,-10"/>
<polygon fill="#191970" stroke="#191970" points="266.1382,-6.5001 256.1382,-10 266.1381,-13.5001 266.1382,-6.5001"/>
</g>
<!-- Node43 -->
<g id="node4" class="node">
<title>Node43</title>
<g id="a_node4"><a xlink:href="vfs__notify_8h.html#a390aa07da245cc02fe5949e98e6f48e5" target="_top" xlink:title="zrtos_vfs_notify__init">
<polygon fill="#ffffff" stroke="#000000" points="441,-.5 441,-19.5 551,-19.5 551,-.5 441,-.5"/>
<text text-anchor="middle" x="496" y="-7.5" font-family="Helvetica,sans-Serif" font-size="10.00" fill="#000000">zrtos_vfs_notify__init</text>
</a>
</g>
</g>
<!-- Node42&#45;&gt;Node43 -->
<g id="edge3" class="edge">
<title>Node42&#45;&gt;Node43</title>
<path fill="none" stroke="#191970" d="M415.3727,-10C423.8649,-10 432.4798,-10 440.7618,-10"/>
<polygon fill="#191970" stroke="#191970" points="415.1055,-6.5001 405.1055,-10 415.1055,-13.5001 415.1055,-6.5001"/>
</g>
</g>
</svg>
