<?xml version="1.0" encoding="UTF-8" standalone="no"?>
<!DOCTYPE svg PUBLIC "-//W3C//DTD SVG 1.1//EN"
 "http://www.w3.org/Graphics/SVG/1.1/DTD/svg11.dtd">
<!-- Generated by graphviz version 10.0.1 (20240210.2158)
 -->
<!-- Title: zrtos_bitfield__get Pages: 1 -->
<svg width="394pt" height="103pt"
 viewBox="0.00 0.00 393.50 103.00" xmlns="http://www.w3.org/2000/svg" xmlns:xlink="http://www.w3.org/1999/xlink">
<g id="graph0" class="graph" transform="scale(1 1) rotate(0) translate(4 99)">
<title>zrtos_bitfield__get</title>
<!-- Node1 -->
<g id="Node000001" class="node">
<title>Node1</title>
<g id="a_Node000001"><a xlink:title=" ">
<polygon fill="#999999" stroke="#666666" points="385.5,-42 290.75,-42 290.75,-22 385.5,-22 385.5,-42"/>
<text text-anchor="middle" x="338.12" y="-28.5" font-family="Helvetica,sans-Serif" font-size="10.00">zrtos_bitfield__get</text>
</a>
</g>
</g>
<!-- Node2 -->
<g id="Node000002" class="node">
<title>Node2</title>
<g id="a_Node000002"><a xlink:href="bitfield_8h.html#ae159ead9b17ac132ed00e348f491a75f" target="_top" xlink:title=" ">
<polygon fill="white" stroke="#666666" points="241.62,-70 145.38,-70 145.38,-38 241.62,-38 241.62,-70"/>
<text text-anchor="start" x="153.38" y="-56.5" font-family="Helvetica,sans-Serif" font-size="10.00">zrtos_bitfield__find</text>
<text text-anchor="middle" x="193.5" y="-44.5" font-family="Helvetica,sans-Serif" font-size="10.00">_first</text>
</a>
</g>
</g>
<!-- Node1&#45;&gt;Node2 -->
<g id="edge1_Node000001_Node000002" class="edge">
<title>Node1&#45;&gt;Node2</title>
<g id="a_edge1_Node000001_Node000002"><a xlink:title=" ">
<path fill="none" stroke="#63b8ff" d="M279.21,-40.93C266.77,-42.85 253.77,-44.86 241.79,-46.7"/>
<polygon fill="#63b8ff" stroke="#63b8ff" points="279.58,-44.42 288.93,-39.43 278.51,-37.5 279.58,-44.42"/>
</a>
</g>
</g>
<!-- Node5 -->
<g id="Node000005" class="node">
<title>Node5</title>
<g id="a_Node000005"><a xlink:href="vfs__fd_8h.html#a7f479532b576c0fa4e6295c6d976abc3" target="_top" xlink:title=" ">
<polygon fill="white" stroke="#666666" points="254.75,-20 132.25,-20 132.25,0 254.75,0 254.75,-20"/>
<text text-anchor="middle" x="193.5" y="-6.5" font-family="Helvetica,sans-Serif" font-size="10.00">zrtos_vfs_fd_set__is_set</text>
</a>
</g>
</g>
<!-- Node1&#45;&gt;Node5 -->
<g id="edge4_Node000001_Node000005" class="edge">
<title>Node1&#45;&gt;Node5</title>
<g id="a_edge4_Node000001_Node000005"><a xlink:title=" ">
<path fill="none" stroke="#63b8ff" d="M279.05,-23.04C271.15,-21.82 263.02,-20.57 255.07,-19.34"/>
<polygon fill="#63b8ff" stroke="#63b8ff" points="278.51,-26.5 288.93,-24.57 279.58,-19.58 278.51,-26.5"/>
</a>
</g>
</g>
<!-- Node3 -->
<g id="Node000003" class="node">
<title>Node3</title>
<g id="a_Node000003"><a xlink:href="bitfield_8h.html#a2eaa50d4017c09f5bb42a9c9d5857061" target="_top" xlink:title=" ">
<polygon fill="white" stroke="#666666" points="96.25,-95 0,-95 0,-63 96.25,-63 96.25,-95"/>
<text text-anchor="start" x="8" y="-81.5" font-family="Helvetica,sans-Serif" font-size="10.00">zrtos_bitfield__find</text>
<text text-anchor="middle" x="48.12" y="-69.5" font-family="Helvetica,sans-Serif" font-size="10.00">_first_set</text>
</a>
</g>
</g>
<!-- Node2&#45;&gt;Node3 -->
<g id="edge2_Node000002_Node000003" class="edge">
<title>Node2&#45;&gt;Node3</title>
<g id="a_edge2_Node000002_Node000003"><a xlink:title=" ">
<path fill="none" stroke="#63b8ff" d="M133.9,-64.22C121.43,-66.39 108.41,-68.66 96.42,-70.75"/>
<polygon fill="#63b8ff" stroke="#63b8ff" points="134.42,-67.68 143.67,-62.52 133.21,-60.79 134.42,-67.68"/>
</a>
</g>
</g>
<!-- Node4 -->
<g id="Node000004" class="node">
<title>Node4</title>
<g id="a_Node000004"><a xlink:href="bitfield_8h.html#a8af20acb2c9cd25ddfcb574505c48a4a" target="_top" xlink:title=" ">
<polygon fill="white" stroke="#666666" points="96.25,-45 0,-45 0,-13 96.25,-13 96.25,-45"/>
<text text-anchor="start" x="8" y="-31.5" font-family="Helvetica,sans-Serif" font-size="10.00">zrtos_bitfield__find</text>
<text text-anchor="middle" x="48.12" y="-19.5" font-family="Helvetica,sans-Serif" font-size="10.00">_first_zero</text>
</a>
</g>
</g>
<!-- Node2&#45;&gt;Node4 -->
<g id="edge3_Node000002_Node000004" class="edge">
<title>Node2&#45;&gt;Node4</title>
<g id="a_edge3_Node000002_Node000004"><a xlink:title=" ">
<path fill="none" stroke="#63b8ff" d="M133.9,-43.78C121.43,-41.61 108.41,-39.34 96.42,-37.25"/>
<polygon fill="#63b8ff" stroke="#63b8ff" points="133.21,-47.21 143.67,-45.48 134.42,-40.32 133.21,-47.21"/>
</a>
</g>
</g>
</g>
</svg>
