<?xml version="1.0" encoding="UTF-8" standalone="no"?>
<!DOCTYPE svg PUBLIC "-//W3C//DTD SVG 1.1//EN"
 "http://www.w3.org/Graphics/SVG/1.1/DTD/svg11.dtd">
<!-- Generated by graphviz version 2.40.1 (20161225.0304)
 -->
<!-- Title: zrtos_bitfield__set Pages: 1 -->
<svg width="426pt" height="104pt"
 viewBox="0.00 0.00 426.00 104.00" xmlns="http://www.w3.org/2000/svg" xmlns:xlink="http://www.w3.org/1999/xlink">
<g id="graph0" class="graph" transform="scale(1 1) rotate(0) translate(4 100)">
<title>zrtos_bitfield__set</title>
<polygon fill="#ffffff" stroke="transparent" points="-4,4 -4,-100 422,-100 422,4 -4,4"/>
<!-- Node28 -->
<g id="node1" class="node">
<title>Node28</title>
<polygon fill="#bfbfbf" stroke="#000000" points="0,-38.5 0,-57.5 96,-57.5 96,-38.5 0,-38.5"/>
<text text-anchor="middle" x="48" y="-45.5" font-family="Helvetica,sans-Serif" font-size="10.00" fill="#000000">zrtos_bitfield__set</text>
</g>
<!-- Node29 -->
<g id="node2" class="node">
<title>Node29</title>
<g id="a_node2"><a xlink:href="vfs__fd_8h.html#ad15bcee237278a1e0d14f758b3cd0990" target="_top" xlink:title="zrtos_vfs_fd_set__clear">
<polygon fill="#ffffff" stroke="#000000" points="132,-76.5 132,-95.5 253,-95.5 253,-76.5 132,-76.5"/>
<text text-anchor="middle" x="192.5" y="-83.5" font-family="Helvetica,sans-Serif" font-size="10.00" fill="#000000">zrtos_vfs_fd_set__clear</text>
</a>
</g>
</g>
<!-- Node28&#45;&gt;Node29 -->
<g id="edge1" class="edge">
<title>Node28&#45;&gt;Node29</title>
<path fill="none" stroke="#191970" d="M94.3325,-60.1843C114.3939,-65.46 137.5285,-71.5438 156.2988,-76.4799"/>
<polygon fill="#191970" stroke="#191970" points="95.0248,-56.7474 84.4635,-57.589 93.2445,-63.5173 95.0248,-56.7474"/>
</g>
<!-- Node31 -->
<g id="node4" class="node">
<title>Node31</title>
<g id="a_node4"><a xlink:href="vfs__fd_8h.html#a4f1ec4e10e75a6a8a3c5f4f6fd555a13" target="_top" xlink:title="zrtos_vfs_fd_set__set">
<polygon fill="#ffffff" stroke="#000000" points="136,-38.5 136,-57.5 249,-57.5 249,-38.5 136,-38.5"/>
<text text-anchor="middle" x="192.5" y="-45.5" font-family="Helvetica,sans-Serif" font-size="10.00" fill="#000000">zrtos_vfs_fd_set__set</text>
</a>
</g>
</g>
<!-- Node28&#45;&gt;Node31 -->
<g id="edge3" class="edge">
<title>Node28&#45;&gt;Node31</title>
<path fill="none" stroke="#191970" d="M106.1521,-48C115.9374,-48 126.0817,-48 135.8288,-48"/>
<polygon fill="#191970" stroke="#191970" points="106.1164,-44.5001 96.1164,-48 106.1164,-51.5001 106.1164,-44.5001"/>
</g>
<!-- Node33 -->
<g id="node6" class="node">
<title>Node33</title>
<g id="a_node6"><a xlink:href="vfs__fd_8h.html#a8804d81bd731c8b3df5763a432c1ebdd" target="_top" xlink:title="zrtos_vfs_fd__select">
<polygon fill="#ffffff" stroke="#000000" points="139,-.5 139,-19.5 246,-19.5 246,-.5 139,-.5"/>
<text text-anchor="middle" x="192.5" y="-7.5" font-family="Helvetica,sans-Serif" font-size="10.00" fill="#000000">zrtos_vfs_fd__select</text>
</a>
</g>
</g>
<!-- Node28&#45;&gt;Node33 -->
<g id="edge5" class="edge">
<title>Node28&#45;&gt;Node33</title>
<path fill="none" stroke="#191970" d="M94.3325,-35.8157C114.3939,-30.54 137.5285,-24.4562 156.2988,-19.5201"/>
<polygon fill="#191970" stroke="#191970" points="93.2445,-32.4827 84.4635,-38.411 95.0248,-39.2526 93.2445,-32.4827"/>
</g>
<!-- Node30 -->
<g id="node3" class="node">
<title>Node30</title>
<g id="a_node3"><a xlink:href="vfs__notify_8h.html#ac6652913171a56f9022b4dd9e00722d9" target="_top" xlink:title="zrtos_vfs_notify__remove">
<polygon fill="#ffffff" stroke="#000000" points="289,-76.5 289,-95.5 418,-95.5 418,-76.5 289,-76.5"/>
<text text-anchor="middle" x="353.5" y="-83.5" font-family="Helvetica,sans-Serif" font-size="10.00" fill="#000000">zrtos_vfs_notify__remove</text>
</a>
</g>
</g>
<!-- Node29&#45;&gt;Node30 -->
<g id="edge2" class="edge">
<title>Node29&#45;&gt;Node30</title>
<path fill="none" stroke="#191970" d="M263.5254,-86C271.9307,-86 280.4758,-86 288.7871,-86"/>
<polygon fill="#191970" stroke="#191970" points="263.3672,-82.5001 253.3672,-86 263.3672,-89.5001 263.3672,-82.5001"/>
</g>
<!-- Node32 -->
<g id="node5" class="node">
<title>Node32</title>
<g id="a_node5"><a xlink:href="vfs__notify_8h.html#a851d2ca069dbbc6fa68211665cda1e4a" target="_top" xlink:title="zrtos_vfs_notify__add">
<polygon fill="#ffffff" stroke="#000000" points="297,-38.5 297,-57.5 410,-57.5 410,-38.5 297,-38.5"/>
<text text-anchor="middle" x="353.5" y="-45.5" font-family="Helvetica,sans-Serif" font-size="10.00" fill="#000000">zrtos_vfs_notify__add</text>
</a>
</g>
</g>
<!-- Node31&#45;&gt;Node32 -->
<g id="edge4" class="edge">
<title>Node31&#45;&gt;Node32</title>
<path fill="none" stroke="#191970" d="M259.5797,-48C272.0173,-48 284.8947,-48 296.9788,-48"/>
<polygon fill="#191970" stroke="#191970" points="259.2626,-44.5001 249.2626,-48 259.2625,-51.5001 259.2626,-44.5001"/>
</g>
<!-- Node34 -->
<g id="node7" class="node">
<title>Node34</title>
<g id="a_node7"><a xlink:href="vfs__notify_8h.html#a9abba884c837a89754c83d36d6430778" target="_top" xlink:title="zrtos_vfs_notify__start">
<polygon fill="#ffffff" stroke="#000000" points="295.5,-.5 295.5,-19.5 411.5,-19.5 411.5,-.5 295.5,-.5"/>
<text text-anchor="middle" x="353.5" y="-7.5" font-family="Helvetica,sans-Serif" font-size="10.00" fill="#000000">zrtos_vfs_notify__start</text>
</a>
</g>
</g>
<!-- Node33&#45;&gt;Node34 -->
<g id="edge6" class="edge">
<title>Node33&#45;&gt;Node34</title>
<path fill="none" stroke="#191970" d="M256.3072,-10C269.215,-10 282.7217,-10 295.4197,-10"/>
<polygon fill="#191970" stroke="#191970" points="256.1107,-6.5001 246.1107,-10 256.1106,-13.5001 256.1107,-6.5001"/>
</g>
</g>
</svg>
