<?xml version="1.0" encoding="UTF-8" standalone="no"?>
<!DOCTYPE svg PUBLIC "-//W3C//DTD SVG 1.1//EN"
 "http://www.w3.org/Graphics/SVG/1.1/DTD/svg11.dtd">
<!-- Generated by graphviz version 10.0.1 (20240210.2158)
 -->
<!-- Title: bitfield.h Pages: 1 -->
<svg width="226pt" height="196pt"
 viewBox="0.00 0.00 225.50 196.00" xmlns="http://www.w3.org/2000/svg" xmlns:xlink="http://www.w3.org/1999/xlink">
<g id="graph0" class="graph" transform="scale(1 1) rotate(0) translate(4 192)">
<title>bitfield.h</title>
<!-- Node1 -->
<g id="Node000001" class="node">
<title>Node1</title>
<g id="a_Node000001"><a xlink:title=" ">
<polygon fill="#999999" stroke="#666666" points="84,-188 32,-188 32,-168 84,-168 84,-188"/>
<text text-anchor="middle" x="58" y="-174.5" font-family="Helvetica,sans-Serif" font-size="10.00">bitfield.h</text>
</a>
</g>
</g>
<!-- Node2 -->
<g id="Node000002" class="node">
<title>Node2</title>
<g id="a_Node000002"><a xlink:href="vfs__fd_8h.html" target="_top" xlink:title=" ">
<polygon fill="white" stroke="#666666" points="82.12,-76 33.88,-76 33.88,-56 82.12,-56 82.12,-76"/>
<text text-anchor="middle" x="58" y="-62.5" font-family="Helvetica,sans-Serif" font-size="10.00">vfs_fd.h</text>
</a>
</g>
</g>
<!-- Node1&#45;&gt;Node2 -->
<g id="edge1_Node000001_Node000002" class="edge">
<title>Node1&#45;&gt;Node2</title>
<g id="a_edge1_Node000001_Node000002"><a xlink:title=" ">
<path fill="none" stroke="#63b8ff" d="M58,-156.31C58,-132.36 58,-93.95 58,-76.35"/>
<polygon fill="#63b8ff" stroke="#63b8ff" points="54.5,-156.11 58,-166.11 61.5,-156.11 54.5,-156.11"/>
</a>
</g>
</g>
<!-- Node3 -->
<g id="Node000003" class="node">
<title>Node3</title>
<g id="a_Node000003"><a xlink:href="vfs__notify_8h.html" target="_top" xlink:title=" ">
<polygon fill="white" stroke="#666666" points="64,-20 0,-20 0,0 64,0 64,-20"/>
<text text-anchor="middle" x="32" y="-6.5" font-family="Helvetica,sans-Serif" font-size="10.00">vfs_notify.h</text>
</a>
</g>
</g>
<!-- Node1&#45;&gt;Node3 -->
<g id="edge7_Node000001_Node000003" class="edge">
<title>Node1&#45;&gt;Node3</title>
<g id="a_edge7_Node000001_Node000003"><a xlink:title=" ">
<path fill="none" stroke="#63b8ff" d="M49.35,-156.93C41.21,-136.88 29.61,-104.95 25,-76 23.6,-67.22 24.31,-64.86 25,-56 25.96,-43.54 28.4,-29.32 30.13,-20.26"/>
<polygon fill="#63b8ff" stroke="#63b8ff" points="46.1,-158.23 53.19,-166.11 52.56,-155.53 46.1,-158.23"/>
</a>
</g>
</g>
<!-- Node4 -->
<g id="Node000004" class="node">
<title>Node4</title>
<g id="a_Node000004"><a xlink:href="vfs__file_8h.html" target="_top" xlink:title=" ">
<polygon fill="white" stroke="#666666" points="146.38,-132 93.62,-132 93.62,-112 146.38,-112 146.38,-132"/>
<text text-anchor="middle" x="120" y="-118.5" font-family="Helvetica,sans-Serif" font-size="10.00">vfs_file.h</text>
</a>
</g>
</g>
<!-- Node1&#45;&gt;Node4 -->
<g id="edge3_Node000001_Node000004" class="edge">
<title>Node1&#45;&gt;Node4</title>
<g id="a_edge3_Node000001_Node000004"><a xlink:title=" ">
<path fill="none" stroke="#63b8ff" d="M77.37,-160.13C87.92,-150.94 100.56,-139.93 109.32,-132.3"/>
<polygon fill="#63b8ff" stroke="#63b8ff" points="75.18,-157.39 69.94,-166.6 79.78,-162.67 75.18,-157.39"/>
</a>
</g>
</g>
<!-- Node2&#45;&gt;Node3 -->
<g id="edge2_Node000002_Node000003" class="edge">
<title>Node2&#45;&gt;Node3</title>
<g id="a_edge2_Node000002_Node000003"><a xlink:title=" ">
<path fill="none" stroke="#63b8ff" d="M48.51,-45.29C44.4,-36.75 39.78,-27.16 36.48,-20.3"/>
<polygon fill="#63b8ff" stroke="#63b8ff" points="45.32,-46.74 52.81,-54.23 51.63,-43.7 45.32,-46.74"/>
</a>
</g>
</g>
<!-- Node4&#45;&gt;Node2 -->
<g id="edge5_Node000004_Node000002" class="edge">
<title>Node4&#45;&gt;Node2</title>
<g id="a_edge5_Node000004_Node000002"><a xlink:title=" ">
<path fill="none" stroke="#63b8ff" d="M100.63,-104.13C90.08,-94.94 77.44,-83.93 68.68,-76.3"/>
<polygon fill="#63b8ff" stroke="#63b8ff" points="98.22,-106.67 108.06,-110.6 102.82,-101.39 98.22,-106.67"/>
</a>
</g>
</g>
<!-- Node5 -->
<g id="Node000005" class="node">
<title>Node5</title>
<g id="a_Node000005"><a xlink:href="random_8h.html" target="_top" xlink:title=" ">
<polygon fill="white" stroke="#666666" points="156.25,-76 99.75,-76 99.75,-56 156.25,-56 156.25,-76"/>
<text text-anchor="middle" x="128" y="-62.5" font-family="Helvetica,sans-Serif" font-size="10.00">random.h</text>
</a>
</g>
</g>
<!-- Node4&#45;&gt;Node5 -->
<g id="edge4_Node000004_Node000005" class="edge">
<title>Node4&#45;&gt;Node5</title>
<g id="a_edge4_Node000004_Node000005"><a xlink:title=" ">
<path fill="none" stroke="#63b8ff" d="M123.05,-100.43C124.28,-92.11 125.64,-82.93 126.62,-76.3"/>
<polygon fill="#63b8ff" stroke="#63b8ff" points="119.62,-99.69 121.62,-110.1 126.54,-100.72 119.62,-99.69"/>
</a>
</g>
</g>
<!-- Node6 -->
<g id="Node000006" class="node">
<title>Node6</title>
<g id="a_Node000006"><a xlink:href="zero_8h.html" target="_top" xlink:title=" ">
<polygon fill="white" stroke="#666666" points="217.5,-76 174.5,-76 174.5,-56 217.5,-56 217.5,-76"/>
<text text-anchor="middle" x="196" y="-62.5" font-family="Helvetica,sans-Serif" font-size="10.00">zero.h</text>
</a>
</g>
</g>
<!-- Node4&#45;&gt;Node6 -->
<g id="edge6_Node000004_Node000006" class="edge">
<title>Node4&#45;&gt;Node6</title>
<g id="a_edge6_Node000004_Node000006"><a xlink:title=" ">
<path fill="none" stroke="#63b8ff" d="M142.52,-105C155.58,-95.72 171.58,-84.35 182.66,-76.48"/>
<polygon fill="#63b8ff" stroke="#63b8ff" points="140.6,-102.07 134.47,-110.72 144.65,-107.78 140.6,-102.07"/>
</a>
</g>
</g>
</g>
</svg>
