<?xml version="1.0" encoding="UTF-8" standalone="no"?>
<!DOCTYPE svg PUBLIC "-//W3C//DTD SVG 1.1//EN"
 "http://www.w3.org/Graphics/SVG/1.1/DTD/svg11.dtd">
<!-- Generated by graphviz version 10.0.1 (20240210.2158)
 -->
<!-- Title: bitfield.h Pages: 1 -->
<svg width="126pt" height="140pt"
 viewBox="0.00 0.00 125.75 140.00" xmlns="http://www.w3.org/2000/svg" xmlns:xlink="http://www.w3.org/1999/xlink">
<g id="graph0" class="graph" transform="scale(1 1) rotate(0) translate(4 136)">
<title>bitfield.h</title>
<!-- Node1 -->
<g id="Node000001" class="node">
<title>Node1</title>
<g id="a_Node000001"><a xlink:title=" ">
<polygon fill="#999999" stroke="#666666" points="88.25,-132 36.25,-132 36.25,-112 88.25,-112 88.25,-132"/>
<text text-anchor="middle" x="62.25" y="-118.5" font-family="Helvetica,sans-Serif" font-size="10.00">bitfield.h</text>
</a>
</g>
</g>
<!-- Node2 -->
<g id="Node000002" class="node">
<title>Node2</title>
<g id="a_Node000002"><a xlink:href="vfs__file_8h.html" target="_top" xlink:title=" ">
<polygon fill="white" stroke="#666666" points="88.62,-76 35.88,-76 35.88,-56 88.62,-56 88.62,-76"/>
<text text-anchor="middle" x="62.25" y="-62.5" font-family="Helvetica,sans-Serif" font-size="10.00">vfs_file.h</text>
</a>
</g>
</g>
<!-- Node1&#45;&gt;Node2 -->
<g id="edge1_Node000001_Node000002" class="edge">
<title>Node1&#45;&gt;Node2</title>
<g id="a_edge1_Node000001_Node000002"><a xlink:title=" ">
<path fill="none" stroke="#63b8ff" d="M62.25,-100.13C62.25,-91.9 62.25,-82.85 62.25,-76.3"/>
<polygon fill="#63b8ff" stroke="#63b8ff" points="58.75,-100.08 62.25,-110.08 65.75,-100.08 58.75,-100.08"/>
</a>
</g>
</g>
<!-- Node3 -->
<g id="Node000003" class="node">
<title>Node3</title>
<g id="a_Node000003"><a xlink:href="random_8h.html" target="_top" xlink:title=" ">
<polygon fill="white" stroke="#666666" points="56.5,-20 0,-20 0,0 56.5,0 56.5,-20"/>
<text text-anchor="middle" x="28.25" y="-6.5" font-family="Helvetica,sans-Serif" font-size="10.00">random.h</text>
</a>
</g>
</g>
<!-- Node2&#45;&gt;Node3 -->
<g id="edge2_Node000002_Node000003" class="edge">
<title>Node2&#45;&gt;Node3</title>
<g id="a_edge2_Node000002_Node000003"><a xlink:title=" ">
<path fill="none" stroke="#63b8ff" d="M50.2,-45.87C44.74,-37.19 38.52,-27.32 34.1,-20.3"/>
<polygon fill="#63b8ff" stroke="#63b8ff" points="47.23,-47.72 55.52,-54.31 53.15,-43.99 47.23,-47.72"/>
</a>
</g>
</g>
<!-- Node4 -->
<g id="Node000004" class="node">
<title>Node4</title>
<g id="a_Node000004"><a xlink:href="zero_8h.html" target="_top" xlink:title=" ">
<polygon fill="white" stroke="#666666" points="117.75,-20 74.75,-20 74.75,0 117.75,0 117.75,-20"/>
<text text-anchor="middle" x="96.25" y="-6.5" font-family="Helvetica,sans-Serif" font-size="10.00">zero.h</text>
</a>
</g>
</g>
<!-- Node2&#45;&gt;Node4 -->
<g id="edge3_Node000002_Node000004" class="edge">
<title>Node2&#45;&gt;Node4</title>
<g id="a_edge3_Node000002_Node000004"><a xlink:title=" ">
<path fill="none" stroke="#63b8ff" d="M74.3,-45.87C79.76,-37.19 85.98,-27.32 90.4,-20.3"/>
<polygon fill="#63b8ff" stroke="#63b8ff" points="71.35,-43.99 68.98,-54.31 77.27,-47.72 71.35,-43.99"/>
</a>
</g>
</g>
</g>
</svg>
