<?xml version="1.0" encoding="UTF-8" standalone="no"?>
<!DOCTYPE svg PUBLIC "-//W3C//DTD SVG 1.1//EN"
 "http://www.w3.org/Graphics/SVG/1.1/DTD/svg11.dtd">
<!-- Generated by graphviz version 2.40.1 (20161225.0304)
 -->
<!-- Title: zrtos_cbuffer_node__get_next_node Pages: 1 -->
<svg width="1078pt" height="710pt"
 viewBox="0.00 0.00 1078.00 710.00" xmlns="http://www.w3.org/2000/svg" xmlns:xlink="http://www.w3.org/1999/xlink">
<g id="graph0" class="graph" transform="scale(1 1) rotate(0) translate(4 706)">
<title>zrtos_cbuffer_node__get_next_node</title>
<polygon fill="#ffffff" stroke="transparent" points="-4,4 -4,-706 1074,-706 1074,4 -4,4"/>
<!-- Node594 -->
<g id="node1" class="node">
<title>Node594</title>
<polygon fill="#bfbfbf" stroke="#000000" points="0,-100.5 0,-130.5 100,-130.5 100,-100.5 0,-100.5"/>
<text text-anchor="start" x="8" y="-118.5" font-family="Helvetica,sans-Serif" font-size="10.00" fill="#000000">zrtos_cbuffer_node</text>
<text text-anchor="middle" x="50" y="-107.5" font-family="Helvetica,sans-Serif" font-size="10.00" fill="#000000">__get_next_node</text>
</g>
<!-- Node595 -->
<g id="node2" class="node">
<title>Node595</title>
<g id="a_node2"><a xlink:href="cbuffer_8h.html#a9aa1ad8581d3c89304d2ff464a53e92e" target="_top" xlink:title="zrtos_cbuffer__rollback\l_write_transaction">
<polygon fill="#ffffff" stroke="#000000" points="136,-173.5 136,-203.5 254,-203.5 254,-173.5 136,-173.5"/>
<text text-anchor="start" x="144" y="-191.5" font-family="Helvetica,sans-Serif" font-size="10.00" fill="#000000">zrtos_cbuffer__rollback</text>
<text text-anchor="middle" x="195" y="-180.5" font-family="Helvetica,sans-Serif" font-size="10.00" fill="#000000">_write_transaction</text>
</a>
</g>
</g>
<!-- Node594&#45;&gt;Node595 -->
<g id="edge1" class="edge">
<title>Node594&#45;&gt;Node595</title>
<path fill="none" stroke="#191970" d="M89.1843,-135.2273C113.0356,-147.2352 143.0345,-162.338 164.9944,-173.3937"/>
<polygon fill="#191970" stroke="#191970" points="90.5499,-131.9963 80.0441,-130.6256 87.4021,-138.2486 90.5499,-131.9963"/>
</g>
<!-- Node616 -->
<g id="node23" class="node">
<title>Node616</title>
<g id="a_node23"><a xlink:href="cbuffer_8h.html#a0de747476125e18253e2b006fb9ec995" target="_top" xlink:title="zrtos_cbuffer__hash">
<polygon fill="#ffffff" stroke="#000000" points="142.5,-62 142.5,-81 247.5,-81 247.5,-62 142.5,-62"/>
<text text-anchor="middle" x="195" y="-69" font-family="Helvetica,sans-Serif" font-size="10.00" fill="#000000">zrtos_cbuffer__hash</text>
</a>
</g>
</g>
<!-- Node594&#45;&gt;Node616 -->
<g id="edge26" class="edge">
<title>Node594&#45;&gt;Node616</title>
<path fill="none" stroke="#191970" d="M109.0868,-97.5702C127.6934,-91.9241 147.5213,-85.9073 163.4352,-81.0783"/>
<polygon fill="#191970" stroke="#191970" points="108.048,-94.2278 99.4952,-100.4808 110.0807,-100.9262 108.048,-94.2278"/>
</g>
<!-- Node617 -->
<g id="node24" class="node">
<title>Node617</title>
<g id="a_node24"><a xlink:href="cbuffer_8h.html#adb4435557fc1a9d76b315fc1e205f611" target="_top" xlink:title="zrtos_cbuffer__can\l_read_length">
<polygon fill="#ffffff" stroke="#000000" points="296.5,-217.5 296.5,-247.5 396.5,-247.5 396.5,-217.5 296.5,-217.5"/>
<text text-anchor="start" x="304.5" y="-235.5" font-family="Helvetica,sans-Serif" font-size="10.00" fill="#000000">zrtos_cbuffer__can</text>
<text text-anchor="middle" x="346.5" y="-224.5" font-family="Helvetica,sans-Serif" font-size="10.00" fill="#000000">_read_length</text>
</a>
</g>
</g>
<!-- Node594&#45;&gt;Node617 -->
<g id="edge28" class="edge">
<title>Node594&#45;&gt;Node617</title>
<path fill="none" stroke="#191970" d="M63.7253,-139.4016C78.396,-162.4654 103.9387,-196.2107 136,-212.5 186.2373,-238.024 251.9104,-240.1297 296.4466,-237.7242"/>
<polygon fill="#191970" stroke="#191970" points="66.6859,-137.5343 58.4679,-130.8473 60.7222,-141.1996 66.6859,-137.5343"/>
</g>
<!-- Node623 -->
<g id="node30" class="node">
<title>Node623</title>
<g id="a_node30"><a xlink:href="cbuffer_8h.html#a45799d6eb84106e183f68a629d0d55c0" target="_top" xlink:title="zrtos_cbuffer__get\l_length">
<polygon fill="#ffffff" stroke="#000000" points="146,-.5 146,-30.5 244,-30.5 244,-.5 146,-.5"/>
<text text-anchor="start" x="154" y="-18.5" font-family="Helvetica,sans-Serif" font-size="10.00" fill="#000000">zrtos_cbuffer__get</text>
<text text-anchor="middle" x="195" y="-7.5" font-family="Helvetica,sans-Serif" font-size="10.00" fill="#000000">_length</text>
</a>
</g>
</g>
<!-- Node594&#45;&gt;Node623 -->
<g id="edge37" class="edge">
<title>Node594&#45;&gt;Node623</title>
<path fill="none" stroke="#191970" d="M78.0698,-94.1468C94.6997,-81.6961 116.3068,-65.8628 136,-52.5 147.0053,-45.0324 159.4461,-37.1509 170.057,-30.59"/>
<polygon fill="#191970" stroke="#191970" points="75.752,-91.5106 69.8636,-100.3184 79.9594,-97.105 75.752,-91.5106"/>
</g>
<!-- Node624 -->
<g id="node31" class="node">
<title>Node624</title>
<g id="a_node31"><a xlink:href="cbuffer_8h.html#a77458b7cd6238ed911ffdab0fe328e04" target="_top" xlink:title="zrtos_cbuffer__pipe">
<polygon fill="#ffffff" stroke="#000000" points="295.5,-106 295.5,-125 397.5,-125 397.5,-106 295.5,-106"/>
<text text-anchor="middle" x="346.5" y="-113" font-family="Helvetica,sans-Serif" font-size="10.00" fill="#000000">zrtos_cbuffer__pipe</text>
</a>
</g>
</g>
<!-- Node594&#45;&gt;Node624 -->
<g id="edge39" class="edge">
<title>Node594&#45;&gt;Node624</title>
<path fill="none" stroke="#191970" d="M110.5064,-115.5C164.9724,-115.5 244.1217,-115.5 295.4587,-115.5"/>
<polygon fill="#191970" stroke="#191970" points="110.2972,-112.0001 100.2972,-115.5 110.2971,-119.0001 110.2972,-112.0001"/>
</g>
<!-- Node596 -->
<g id="node3" class="node">
<title>Node596</title>
<g id="a_node3"><a xlink:href="cbuffer_8h.html#a5d269503e04946737598d2062c5bfaf4" target="_top" xlink:title="zrtos_cbuffer__put_ex">
<polygon fill="#ffffff" stroke="#000000" points="290,-404 290,-423 403,-423 403,-404 290,-404"/>
<text text-anchor="middle" x="346.5" y="-411" font-family="Helvetica,sans-Serif" font-size="10.00" fill="#000000">zrtos_cbuffer__put_ex</text>
</a>
</g>
</g>
<!-- Node595&#45;&gt;Node596 -->
<g id="edge2" class="edge">
<title>Node595&#45;&gt;Node596</title>
<path fill="none" stroke="#191970" d="M210.7859,-211.9444C243.5274,-260.5704 317.6372,-370.6344 339.9948,-403.8388"/>
<polygon fill="#191970" stroke="#191970" points="213.6641,-209.9523 205.1756,-203.6123 207.8576,-213.862 213.6641,-209.9523"/>
</g>
<!-- Node615 -->
<g id="node22" class="node">
<title>Node615</title>
<g id="a_node22"><a xlink:href="msg__queue_8h.html#a0eefe9e5e6f83f1fcd2c66546a05add7" target="_top" xlink:title="zrtos_msg_queue__rollback\l_write_transaction">
<polygon fill="#ffffff" stroke="#000000" points="441,-173.5 441,-203.5 579,-203.5 579,-173.5 441,-173.5"/>
<text text-anchor="start" x="449" y="-191.5" font-family="Helvetica,sans-Serif" font-size="10.00" fill="#000000">zrtos_msg_queue__rollback</text>
<text text-anchor="middle" x="510" y="-180.5" font-family="Helvetica,sans-Serif" font-size="10.00" fill="#000000">_write_transaction</text>
</a>
</g>
</g>
<!-- Node595&#45;&gt;Node615 -->
<g id="edge23" class="edge">
<title>Node595&#45;&gt;Node615</title>
<path fill="none" stroke="#191970" d="M264.4688,-188.5C316.9026,-188.5 388.512,-188.5 440.8643,-188.5"/>
<polygon fill="#191970" stroke="#191970" points="264.2491,-185.0001 254.2491,-188.5 264.2491,-192.0001 264.2491,-185.0001"/>
</g>
<!-- Node597 -->
<g id="node4" class="node">
<title>Node597</title>
<g id="a_node4"><a xlink:href="msg__queue_8h.html#a9f24485c49e6b6ba13406e9a5d1f352d" target="_top" xlink:title="zrtos_msg_queue__put\l_length">
<polygon fill="#ffffff" stroke="#000000" points="451,-261.5 451,-291.5 569,-291.5 569,-261.5 451,-261.5"/>
<text text-anchor="start" x="459" y="-279.5" font-family="Helvetica,sans-Serif" font-size="10.00" fill="#000000">zrtos_msg_queue__put</text>
<text text-anchor="middle" x="510" y="-268.5" font-family="Helvetica,sans-Serif" font-size="10.00" fill="#000000">_length</text>
</a>
</g>
</g>
<!-- Node596&#45;&gt;Node597 -->
<g id="edge3" class="edge">
<title>Node596&#45;&gt;Node597</title>
<path fill="none" stroke="#191970" d="M357.1464,-395.2032C372.3419,-370.5956 402.4914,-326.99 439,-301.5 444.4646,-297.6846 450.5698,-294.3973 456.8434,-291.5789"/>
<polygon fill="#191970" stroke="#191970" points="354.0632,-393.5387 351.9056,-403.9115 360.0608,-397.1482 354.0632,-393.5387"/>
</g>
<!-- Node602 -->
<g id="node9" class="node">
<title>Node602</title>
<g id="a_node9"><a xlink:href="msg__queue_8h.html#a14fb4faf04687986da3435e06db5d587" target="_top" xlink:title="zrtos_msg_queue__put_data">
<polygon fill="#ffffff" stroke="#000000" points="439,-311 439,-330 581,-330 581,-311 439,-311"/>
<text text-anchor="middle" x="510" y="-318" font-family="Helvetica,sans-Serif" font-size="10.00" fill="#000000">zrtos_msg_queue__put_data</text>
</a>
</g>
</g>
<!-- Node596&#45;&gt;Node602 -->
<g id="edge8" class="edge">
<title>Node596&#45;&gt;Node602</title>
<path fill="none" stroke="#191970" d="M362.9567,-396.7564C380.3766,-379.9504 409.3969,-354.4671 439,-339.5 446.5157,-335.7001 454.8753,-332.5967 463.1441,-330.0832"/>
<polygon fill="#191970" stroke="#191970" points="360.4761,-394.2871 355.8089,-403.7986 365.3888,-399.2736 360.4761,-394.2871"/>
</g>
<!-- Node603 -->
<g id="node10" class="node">
<title>Node603</title>
<g id="a_node10"><a xlink:href="msg__queue_8h.html#ab51eb620b09145d1b05966404c9e0ca4" target="_top" xlink:title="zrtos_msg_queue__put">
<polygon fill="#ffffff" stroke="#000000" points="451,-448 451,-467 569,-467 569,-448 451,-448"/>
<text text-anchor="middle" x="510" y="-455" font-family="Helvetica,sans-Serif" font-size="10.00" fill="#000000">zrtos_msg_queue__put</text>
</a>
</g>
</g>
<!-- Node596&#45;&gt;Node603 -->
<g id="edge10" class="edge">
<title>Node596&#45;&gt;Node603</title>
<path fill="none" stroke="#191970" d="M391.6658,-425.6547C417.8287,-432.6955 450.2899,-441.4312 474.5922,-447.9713"/>
<polygon fill="#191970" stroke="#191970" points="392.5431,-422.2663 381.9771,-423.0473 390.7239,-429.0259 392.5431,-422.2663"/>
</g>
<!-- Node604 -->
<g id="node11" class="node">
<title>Node604</title>
<g id="a_node11"><a xlink:href="spi_2spi_8h.html#a7f9adeb6314d47b2442b0a17d1cc2f37" target="_top" xlink:title="zrtos_vfs_module_spi\l__transfer_in">
<polygon fill="#ffffff" stroke="#000000" points="454,-398.5 454,-428.5 566,-428.5 566,-398.5 454,-398.5"/>
<text text-anchor="start" x="462" y="-416.5" font-family="Helvetica,sans-Serif" font-size="10.00" fill="#000000">zrtos_vfs_module_spi</text>
<text text-anchor="middle" x="510" y="-405.5" font-family="Helvetica,sans-Serif" font-size="10.00" fill="#000000">__transfer_in</text>
</a>
</g>
</g>
<!-- Node596&#45;&gt;Node604 -->
<g id="edge11" class="edge">
<title>Node596&#45;&gt;Node604</title>
<path fill="none" stroke="#191970" d="M413.3889,-413.5C426.8545,-413.5 440.8768,-413.5 453.9274,-413.5"/>
<polygon fill="#191970" stroke="#191970" points="413.2255,-410.0001 403.2255,-413.5 413.2255,-417.0001 413.2255,-410.0001"/>
</g>
<!-- Node609 -->
<g id="node16" class="node">
<title>Node609</title>
<g id="a_node16"><a xlink:href="spi_2spi_8h.html#ac672df98eac652a9d1925ba73229c475" target="_top" xlink:title="zrtos_vfs_module_spi\l__on_write">
<polygon fill="#ffffff" stroke="#000000" points="798,-471.5 798,-501.5 910,-501.5 910,-471.5 798,-471.5"/>
<text text-anchor="start" x="806" y="-489.5" font-family="Helvetica,sans-Serif" font-size="10.00" fill="#000000">zrtos_vfs_module_spi</text>
<text text-anchor="middle" x="854" y="-478.5" font-family="Helvetica,sans-Serif" font-size="10.00" fill="#000000">__on_write</text>
</a>
</g>
</g>
<!-- Node596&#45;&gt;Node609 -->
<g id="edge16" class="edge">
<title>Node596&#45;&gt;Node609</title>
<path fill="none" stroke="#191970" d="M363.8975,-429.9621C381.3434,-445.2749 409.7504,-467.0982 439,-476.5 562.1588,-516.0875 716.638,-505.0761 797.9657,-494.96"/>
<polygon fill="#191970" stroke="#191970" points="366.0218,-427.1642 356.258,-423.0508 361.3257,-432.3552 366.0218,-427.1642"/>
</g>
<!-- Node610 -->
<g id="node17" class="node">
<title>Node610</title>
<g id="a_node17"><a xlink:href="uart_2uart_8h.html#a9e735d9796aaa30e4a5fce9c763adf92" target="_top" xlink:title="zrtos_vfs_module_uart\l__on_write">
<polygon fill="#ffffff" stroke="#000000" points="452,-573.5 452,-603.5 568,-603.5 568,-573.5 452,-573.5"/>
<text text-anchor="start" x="460" y="-591.5" font-family="Helvetica,sans-Serif" font-size="10.00" fill="#000000">zrtos_vfs_module_uart</text>
<text text-anchor="middle" x="510" y="-580.5" font-family="Helvetica,sans-Serif" font-size="10.00" fill="#000000">__on_write</text>
</a>
</g>
</g>
<!-- Node596&#45;&gt;Node610 -->
<g id="edge18" class="edge">
<title>Node596&#45;&gt;Node610</title>
<path fill="none" stroke="#191970" d="M362.388,-430.5055C394.2619,-464.6213 465.5461,-540.9194 495.8898,-573.3973"/>
<polygon fill="#191970" stroke="#191970" points="364.9078,-428.0757 355.5234,-423.158 359.7928,-432.8546 364.9078,-428.0757"/>
</g>
<!-- Node598 -->
<g id="node5" class="node">
<title>Node598</title>
<g id="a_node5"><a xlink:href="rtu_8h.html#a223fc39dfd241ff17884c9f5d03f8e78" target="_top" xlink:title="zrtos_vfs_module_modbus\l_rtu__on_recv_timeout">
<polygon fill="#ffffff" stroke="#000000" points="617,-75.5 617,-105.5 751,-105.5 751,-75.5 617,-75.5"/>
<text text-anchor="start" x="625" y="-93.5" font-family="Helvetica,sans-Serif" font-size="10.00" fill="#000000">zrtos_vfs_module_modbus</text>
<text text-anchor="middle" x="684" y="-82.5" font-family="Helvetica,sans-Serif" font-size="10.00" fill="#000000">_rtu__on_recv_timeout</text>
</a>
</g>
</g>
<!-- Node597&#45;&gt;Node598 -->
<g id="edge4" class="edge">
<title>Node597&#45;&gt;Node598</title>
<path fill="none" stroke="#191970" d="M577.1363,-255.2583C578.4906,-254.0729 579.7823,-252.8213 581,-251.5 623.664,-205.2049 574.4615,-160.9105 617,-114.5 620.1725,-111.0388 623.8794,-108.0763 627.8921,-105.5408"/>
<polygon fill="#191970" stroke="#191970" points="574.7969,-252.6323 568.7758,-261.3499 578.9191,-258.2898 574.7969,-252.6323"/>
</g>
<!-- Node600 -->
<g id="node7" class="node">
<title>Node600</title>
<g id="a_node7"><a xlink:href="rtu_8h.html#ac0ca767b3e1e9a8b1f290448a122e095" target="_top" xlink:title="zrtos_vfs_module_modbus\l_rtu__on_write">
<polygon fill="#ffffff" stroke="#000000" points="617,-263.5 617,-293.5 751,-293.5 751,-263.5 617,-263.5"/>
<text text-anchor="start" x="625" y="-281.5" font-family="Helvetica,sans-Serif" font-size="10.00" fill="#000000">zrtos_vfs_module_modbus</text>
<text text-anchor="middle" x="684" y="-270.5" font-family="Helvetica,sans-Serif" font-size="10.00" fill="#000000">_rtu__on_write</text>
</a>
</g>
</g>
<!-- Node597&#45;&gt;Node600 -->
<g id="edge6" class="edge">
<title>Node597&#45;&gt;Node600</title>
<path fill="none" stroke="#191970" d="M579.5673,-277.2996C591.8402,-277.4407 604.5956,-277.5873 616.8019,-277.7276"/>
<polygon fill="#191970" stroke="#191970" points="579.4339,-273.798 569.3943,-277.1827 579.3533,-280.7975 579.4339,-273.798"/>
</g>
<!-- Node599 -->
<g id="node6" class="node">
<title>Node599</title>
<g id="a_node6"><a xlink:href="rtu_8h.html#a2376d02a52d42eef634ef843afc499f3" target="_top" xlink:title="zrtos_vfs_module_modbus\l_rtu_inode__init">
<polygon fill="#ffffff" stroke="#000000" points="787,-100.5 787,-130.5 921,-130.5 921,-100.5 787,-100.5"/>
<text text-anchor="start" x="795" y="-118.5" font-family="Helvetica,sans-Serif" font-size="10.00" fill="#000000">zrtos_vfs_module_modbus</text>
<text text-anchor="middle" x="854" y="-107.5" font-family="Helvetica,sans-Serif" font-size="10.00" fill="#000000">_rtu_inode__init</text>
</a>
</g>
</g>
<!-- Node598&#45;&gt;Node599 -->
<g id="edge5" class="edge">
<title>Node598&#45;&gt;Node599</title>
<path fill="none" stroke="#191970" d="M761.146,-101.845C769.6879,-103.1012 778.3366,-104.373 786.7428,-105.6092"/>
<polygon fill="#191970" stroke="#191970" points="761.5914,-98.3729 751.1885,-100.3807 760.5728,-105.2984 761.5914,-98.3729"/>
</g>
<!-- Node601 -->
<g id="node8" class="node">
<title>Node601</title>
<g id="a_node8"><a xlink:href="rtu_8h.html#a08670f8758ac6130c738816d306eb923" target="_top" xlink:title="zrtos_vfs_module_modbus\l_rtu__on_ioctl">
<polygon fill="#ffffff" stroke="#000000" points="787,-238.5 787,-268.5 921,-268.5 921,-238.5 787,-238.5"/>
<text text-anchor="start" x="795" y="-256.5" font-family="Helvetica,sans-Serif" font-size="10.00" fill="#000000">zrtos_vfs_module_modbus</text>
<text text-anchor="middle" x="854" y="-245.5" font-family="Helvetica,sans-Serif" font-size="10.00" fill="#000000">_rtu__on_ioctl</text>
</a>
</g>
</g>
<!-- Node600&#45;&gt;Node601 -->
<g id="edge7" class="edge">
<title>Node600&#45;&gt;Node601</title>
<path fill="none" stroke="#191970" d="M761.146,-267.155C769.6879,-265.8988 778.3366,-264.627 786.7428,-263.3908"/>
<polygon fill="#191970" stroke="#191970" points="760.5728,-263.7016 751.1885,-268.6193 761.5914,-270.6271 760.5728,-263.7016"/>
</g>
<!-- Node602&#45;&gt;Node600 -->
<g id="edge9" class="edge">
<title>Node602&#45;&gt;Node600</title>
<path fill="none" stroke="#191970" d="M559.3311,-308.5925C578.7558,-303.9038 601.2854,-298.4656 621.8058,-293.5124"/>
<polygon fill="#191970" stroke="#191970" points="558.3828,-305.2208 549.4833,-310.9695 560.0254,-312.0254 558.3828,-305.2208"/>
</g>
<!-- Node605 -->
<g id="node12" class="node">
<title>Node605</title>
<g id="a_node12"><a xlink:href="spi_2spi_8h.html#ab31c12597a3f2932aaf01466ffff59bb" target="_top" xlink:title="zrtos_vfs_module_spi\l__transfer">
<polygon fill="#ffffff" stroke="#000000" points="628,-398.5 628,-428.5 740,-428.5 740,-398.5 628,-398.5"/>
<text text-anchor="start" x="636" y="-416.5" font-family="Helvetica,sans-Serif" font-size="10.00" fill="#000000">zrtos_vfs_module_spi</text>
<text text-anchor="middle" x="684" y="-405.5" font-family="Helvetica,sans-Serif" font-size="10.00" fill="#000000">__transfer</text>
</a>
</g>
</g>
<!-- Node604&#45;&gt;Node605 -->
<g id="edge12" class="edge">
<title>Node604&#45;&gt;Node605</title>
<path fill="none" stroke="#191970" d="M576.3992,-413.5C593.3506,-413.5 611.4091,-413.5 627.7944,-413.5"/>
<polygon fill="#191970" stroke="#191970" points="576.0125,-410.0001 566.0125,-413.5 576.0124,-417.0001 576.0125,-410.0001"/>
</g>
<!-- Node606 -->
<g id="node13" class="node">
<title>Node606</title>
<g id="a_node13"><a xlink:href="avr_2spi_2spi_8h.html#a3a0f3b324bd986778ccde00670dbabc9" target="_top" xlink:title="zrtos_vfs_module_avr\l_spi__on_interrupt">
<polygon fill="#ffffff" stroke="#000000" points="797.5,-406.5 797.5,-436.5 910.5,-436.5 910.5,-406.5 797.5,-406.5"/>
<text text-anchor="start" x="805.5" y="-424.5" font-family="Helvetica,sans-Serif" font-size="10.00" fill="#000000">zrtos_vfs_module_avr</text>
<text text-anchor="middle" x="854" y="-413.5" font-family="Helvetica,sans-Serif" font-size="10.00" fill="#000000">_spi__on_interrupt</text>
</a>
</g>
</g>
<!-- Node605&#45;&gt;Node606 -->
<g id="edge13" class="edge">
<title>Node605&#45;&gt;Node606</title>
<path fill="none" stroke="#191970" d="M750.2154,-416.616C765.784,-417.3487 782.2376,-418.1229 797.3426,-418.8338"/>
<polygon fill="#191970" stroke="#191970" points="750.289,-413.1157 740.1355,-416.1417 749.9599,-420.108 750.289,-413.1157"/>
</g>
<!-- Node607 -->
<g id="node14" class="node">
<title>Node607</title>
<g id="a_node14"><a xlink:href="avr_2spi_2spi_8h.html#a0353f98d744b931e541684fe33b272f7" target="_top" xlink:title="ISR">
<polygon fill="#ffffff" stroke="#000000" points="996.5,-412 996.5,-431 1030.5,-431 1030.5,-412 996.5,-412"/>
<text text-anchor="middle" x="1013.5" y="-419" font-family="Helvetica,sans-Serif" font-size="10.00" fill="#000000">ISR</text>
</a>
</g>
</g>
<!-- Node606&#45;&gt;Node607 -->
<g id="edge14" class="edge">
<title>Node606&#45;&gt;Node607</title>
<path fill="none" stroke="#191970" d="M920.7619,-421.5C948.4525,-421.5 978.2899,-421.5 996.4331,-421.5"/>
<polygon fill="#191970" stroke="#191970" points="920.6829,-418.0001 910.6828,-421.5 920.6828,-425.0001 920.6829,-418.0001"/>
</g>
<!-- Node608 -->
<g id="node15" class="node">
<title>Node608</title>
<g id="a_node15"><a xlink:href="avr_2spi_2spi_8h.html#ab6f547c3ce7ee0463c235abe078f9491" target="_top" xlink:title="zrtos_vfs_module_avr\l_spi__on_write">
<polygon fill="#ffffff" stroke="#000000" points="957,-460.5 957,-490.5 1070,-490.5 1070,-460.5 957,-460.5"/>
<text text-anchor="start" x="965" y="-478.5" font-family="Helvetica,sans-Serif" font-size="10.00" fill="#000000">zrtos_vfs_module_avr</text>
<text text-anchor="middle" x="1013.5" y="-467.5" font-family="Helvetica,sans-Serif" font-size="10.00" fill="#000000">_spi__on_write</text>
</a>
</g>
</g>
<!-- Node606&#45;&gt;Node608 -->
<g id="edge15" class="edge">
<title>Node606&#45;&gt;Node608</title>
<path fill="none" stroke="#191970" d="M907.966,-439.7706C927.8344,-446.4972 950.0955,-454.0339 969.0323,-460.4451"/>
<polygon fill="#191970" stroke="#191970" points="909.0239,-436.4337 898.4296,-436.542 906.7791,-443.064 909.0239,-436.4337"/>
</g>
<!-- Node609&#45;&gt;Node608 -->
<g id="edge17" class="edge">
<title>Node609&#45;&gt;Node608</title>
<path fill="none" stroke="#191970" d="M920.3336,-481.9253C932.5084,-481.0856 945.1127,-480.2164 956.9672,-479.3988"/>
<polygon fill="#191970" stroke="#191970" points="919.9692,-478.442 910.2337,-482.6218 920.4509,-485.4254 919.9692,-478.442"/>
</g>
<!-- Node611 -->
<g id="node18" class="node">
<title>Node611</title>
<g id="a_node18"><a xlink:href="uart0_8h.html#a1c08ba1c9bac4dd9a045d06a07dbe0b4" target="_top" xlink:title="zrtos_vfs_module_avr\l_uart0__on_write">
<polygon fill="#ffffff" stroke="#000000" points="627.5,-573.5 627.5,-603.5 740.5,-603.5 740.5,-573.5 627.5,-573.5"/>
<text text-anchor="start" x="635.5" y="-591.5" font-family="Helvetica,sans-Serif" font-size="10.00" fill="#000000">zrtos_vfs_module_avr</text>
<text text-anchor="middle" x="684" y="-580.5" font-family="Helvetica,sans-Serif" font-size="10.00" fill="#000000">_uart0__on_write</text>
</a>
</g>
</g>
<!-- Node610&#45;&gt;Node611 -->
<g id="edge19" class="edge">
<title>Node610&#45;&gt;Node611</title>
<path fill="none" stroke="#191970" d="M578.8148,-588.5C594.8537,-588.5 611.7557,-588.5 627.2065,-588.5"/>
<polygon fill="#191970" stroke="#191970" points="578.4236,-585.0001 568.4235,-588.5 578.4235,-592.0001 578.4236,-585.0001"/>
</g>
<!-- Node612 -->
<g id="node19" class="node">
<title>Node612</title>
<g id="a_node19"><a xlink:href="uart1_8h.html#af04452122e72ab7408b2e207191cdd33" target="_top" xlink:title="zrtos_vfs_module_avr\l_uart1__on_write">
<polygon fill="#ffffff" stroke="#000000" points="627.5,-524.5 627.5,-554.5 740.5,-554.5 740.5,-524.5 627.5,-524.5"/>
<text text-anchor="start" x="635.5" y="-542.5" font-family="Helvetica,sans-Serif" font-size="10.00" fill="#000000">zrtos_vfs_module_avr</text>
<text text-anchor="middle" x="684" y="-531.5" font-family="Helvetica,sans-Serif" font-size="10.00" fill="#000000">_uart1__on_write</text>
</a>
</g>
</g>
<!-- Node610&#45;&gt;Node612 -->
<g id="edge20" class="edge">
<title>Node610&#45;&gt;Node612</title>
<path fill="none" stroke="#191970" d="M573.2836,-570.6788C592.0704,-565.3882 612.4546,-559.6478 630.5515,-554.5516"/>
<polygon fill="#191970" stroke="#191970" points="572.3024,-567.3189 563.6255,-573.3986 574.1999,-574.0568 572.3024,-567.3189"/>
</g>
<!-- Node613 -->
<g id="node20" class="node">
<title>Node613</title>
<g id="a_node20"><a xlink:href="uart2_8h.html#a244148efdde4e736bdcba74328e85415" target="_top" xlink:title="zrtos_vfs_module_avr\l_uart2__on_write">
<polygon fill="#ffffff" stroke="#000000" points="627.5,-671.5 627.5,-701.5 740.5,-701.5 740.5,-671.5 627.5,-671.5"/>
<text text-anchor="start" x="635.5" y="-689.5" font-family="Helvetica,sans-Serif" font-size="10.00" fill="#000000">zrtos_vfs_module_avr</text>
<text text-anchor="middle" x="684" y="-678.5" font-family="Helvetica,sans-Serif" font-size="10.00" fill="#000000">_uart2__on_write</text>
</a>
</g>
</g>
<!-- Node610&#45;&gt;Node613 -->
<g id="edge21" class="edge">
<title>Node610&#45;&gt;Node613</title>
<path fill="none" stroke="#191970" d="M536.8472,-610.0186C557.7712,-626.041 588.0411,-647.6251 617,-662.5 623.2646,-665.7179 630.0611,-668.6926 636.8421,-671.3729"/>
<polygon fill="#191970" stroke="#191970" points="538.8056,-607.1082 528.7588,-603.7448 534.5154,-612.6394 538.8056,-607.1082"/>
</g>
<!-- Node614 -->
<g id="node21" class="node">
<title>Node614</title>
<g id="a_node21"><a xlink:href="uart3_8h.html#a0ac21cf2483f89180a91b9ca480eb7b8" target="_top" xlink:title="zrtos_vfs_module_avr\l_uart3__on_write">
<polygon fill="#ffffff" stroke="#000000" points="627.5,-622.5 627.5,-652.5 740.5,-652.5 740.5,-622.5 627.5,-622.5"/>
<text text-anchor="start" x="635.5" y="-640.5" font-family="Helvetica,sans-Serif" font-size="10.00" fill="#000000">zrtos_vfs_module_avr</text>
<text text-anchor="middle" x="684" y="-629.5" font-family="Helvetica,sans-Serif" font-size="10.00" fill="#000000">_uart3__on_write</text>
</a>
</g>
</g>
<!-- Node610&#45;&gt;Node614 -->
<g id="edge22" class="edge">
<title>Node610&#45;&gt;Node614</title>
<path fill="none" stroke="#191970" d="M573.2836,-606.3212C592.0704,-611.6118 612.4546,-617.3522 630.5515,-622.4484"/>
<polygon fill="#191970" stroke="#191970" points="574.1999,-602.9432 563.6255,-603.6014 572.3024,-609.6811 574.1999,-602.9432"/>
</g>
<!-- Node615&#45;&gt;Node598 -->
<g id="edge24" class="edge">
<title>Node615&#45;&gt;Node598</title>
<path fill="none" stroke="#191970" d="M573.1288,-168.6659C575.8682,-167.0663 578.5082,-165.347 581,-163.5 602.71,-147.4081 595.3337,-130.6506 617,-114.5 621.5569,-111.1032 626.6394,-108.1522 631.9115,-105.5965"/>
<polygon fill="#191970" stroke="#191970" points="571.3482,-165.6472 564.1018,-173.3764 574.5865,-171.8531 571.3482,-165.6472"/>
</g>
<!-- Node615&#45;&gt;Node600 -->
<g id="edge25" class="edge">
<title>Node615&#45;&gt;Node600</title>
<path fill="none" stroke="#191970" d="M571.8177,-208.0594C575.0019,-209.7443 578.0851,-211.5556 581,-213.5 600.8971,-226.7724 597.2271,-240.0434 617,-253.5 622.5425,-257.272 628.7279,-260.565 635.0384,-263.4134"/>
<polygon fill="#191970" stroke="#191970" points="573.1611,-204.8218 562.6323,-203.6408 570.1266,-211.1299 573.1611,-204.8218"/>
</g>
<!-- Node616&#45;&gt;Node598 -->
<g id="edge27" class="edge">
<title>Node616&#45;&gt;Node598</title>
<path fill="none" stroke="#191970" d="M258.1099,-65.3422C334.7662,-59.0537 467.8666,-51.9667 581,-65.5 597.9919,-67.5326 616.2314,-71.3877 632.5695,-75.473"/>
<polygon fill="#191970" stroke="#191970" points="257.3464,-61.8941 247.6759,-66.2221 257.9346,-68.8694 257.3464,-61.8941"/>
</g>
<!-- Node618 -->
<g id="node25" class="node">
<title>Node618</title>
<g id="a_node25"><a xlink:href="msg__queue_8h.html#aa70867560ae58b87682c996ceccee62a" target="_top" xlink:title="zrtos_msg_queue__get">
<polygon fill="#ffffff" stroke="#000000" points="451,-223 451,-242 569,-242 569,-223 451,-223"/>
<text text-anchor="middle" x="510" y="-230" font-family="Helvetica,sans-Serif" font-size="10.00" fill="#000000">zrtos_msg_queue__get</text>
</a>
</g>
</g>
<!-- Node617&#45;&gt;Node618 -->
<g id="edge29" class="edge">
<title>Node617&#45;&gt;Node618</title>
<path fill="none" stroke="#191970" d="M407.1142,-232.5C421.4189,-232.5 436.6506,-232.5 450.8879,-232.5"/>
<polygon fill="#191970" stroke="#191970" points="406.8895,-229.0001 396.8895,-232.5 406.8895,-236.0001 406.8895,-229.0001"/>
</g>
<!-- Node620 -->
<g id="node27" class="node">
<title>Node620</title>
<g id="a_node27"><a xlink:href="msg__queue_8h.html#a40db633a8c0ef5e3bba9cc700e45f7ef" target="_top" xlink:title="zrtos_msg_queue__pipe\l_next_message_to_cbuffer">
<polygon fill="#ffffff" stroke="#000000" points="443,-124.5 443,-154.5 577,-154.5 577,-124.5 443,-124.5"/>
<text text-anchor="start" x="451" y="-142.5" font-family="Helvetica,sans-Serif" font-size="10.00" fill="#000000">zrtos_msg_queue__pipe</text>
<text text-anchor="middle" x="510" y="-131.5" font-family="Helvetica,sans-Serif" font-size="10.00" fill="#000000">_next_message_to_cbuffer</text>
</a>
</g>
</g>
<!-- Node617&#45;&gt;Node620 -->
<g id="edge32" class="edge">
<title>Node617&#45;&gt;Node620</title>
<path fill="none" stroke="#191970" d="M371.1147,-210.7457C388.9682,-195.8453 414.2335,-176.5021 439,-163.5 445.3363,-160.1736 452.2271,-157.1686 459.1418,-154.5007"/>
<polygon fill="#191970" stroke="#191970" points="368.8214,-208.1013 363.4617,-217.2404 373.3508,-213.4384 368.8214,-208.1013"/>
</g>
<!-- Node622 -->
<g id="node29" class="node">
<title>Node622</title>
<g id="a_node29"><a xlink:href="spi_2spi_8h.html#a7cc1a52aa2cec6b681b7732681bda10b" target="_top" xlink:title="zrtos_vfs_module_spi\l__transfer_out">
<polygon fill="#ffffff" stroke="#000000" points="454,-349.5 454,-379.5 566,-379.5 566,-349.5 454,-349.5"/>
<text text-anchor="start" x="462" y="-367.5" font-family="Helvetica,sans-Serif" font-size="10.00" fill="#000000">zrtos_vfs_module_spi</text>
<text text-anchor="middle" x="510" y="-356.5" font-family="Helvetica,sans-Serif" font-size="10.00" fill="#000000">__transfer_out</text>
</a>
</g>
</g>
<!-- Node617&#45;&gt;Node622 -->
<g id="edge35" class="edge">
<title>Node617&#45;&gt;Node622</title>
<path fill="none" stroke="#191970" d="M361.6475,-256.3986C378.0344,-280.4796 406.2542,-317.1812 439,-339.5 444.6152,-343.3272 450.8787,-346.6311 457.2954,-349.4664"/>
<polygon fill="#191970" stroke="#191970" points="364.4118,-254.2347 355.9617,-247.8436 358.582,-258.1094 364.4118,-254.2347"/>
</g>
<!-- Node619 -->
<g id="node26" class="node">
<title>Node619</title>
<g id="a_node26"><a xlink:href="rtu_8h.html#aea13c3756fb07d48853e039823a846b1" target="_top" xlink:title="zrtos_vfs_module_modbus\l_rtu__on_read">
<polygon fill="#ffffff" stroke="#000000" points="617,-214.5 617,-244.5 751,-244.5 751,-214.5 617,-214.5"/>
<text text-anchor="start" x="625" y="-232.5" font-family="Helvetica,sans-Serif" font-size="10.00" fill="#000000">zrtos_vfs_module_modbus</text>
<text text-anchor="middle" x="684" y="-221.5" font-family="Helvetica,sans-Serif" font-size="10.00" fill="#000000">_rtu__on_read</text>
</a>
</g>
</g>
<!-- Node618&#45;&gt;Node619 -->
<g id="edge30" class="edge">
<title>Node618&#45;&gt;Node619</title>
<path fill="none" stroke="#191970" d="M579.5673,-231.3006C591.8402,-231.089 604.5956,-230.869 616.8019,-230.6586"/>
<polygon fill="#191970" stroke="#191970" points="579.3324,-227.804 569.3943,-231.476 579.4532,-234.803 579.3324,-227.804"/>
</g>
<!-- Node619&#45;&gt;Node601 -->
<g id="edge31" class="edge">
<title>Node619&#45;&gt;Node601</title>
<path fill="none" stroke="#191970" d="M761.146,-240.3912C769.6879,-241.5971 778.3366,-242.8181 786.7428,-244.0049"/>
<polygon fill="#191970" stroke="#191970" points="761.5796,-236.9178 751.1885,-238.9854 760.601,-243.8491 761.5796,-236.9178"/>
</g>
<!-- Node621 -->
<g id="node28" class="node">
<title>Node621</title>
<g id="a_node28"><a xlink:href="rtu_8h.html#ab23606290979709ef6fefa7c6970e64e" target="_top" xlink:title="zrtos_vfs_module_modbus\l_rtu__on_send">
<polygon fill="#ffffff" stroke="#000000" points="617,-124.5 617,-154.5 751,-154.5 751,-124.5 617,-124.5"/>
<text text-anchor="start" x="625" y="-142.5" font-family="Helvetica,sans-Serif" font-size="10.00" fill="#000000">zrtos_vfs_module_modbus</text>
<text text-anchor="middle" x="684" y="-131.5" font-family="Helvetica,sans-Serif" font-size="10.00" fill="#000000">_rtu__on_send</text>
</a>
</g>
</g>
<!-- Node620&#45;&gt;Node621 -->
<g id="edge33" class="edge">
<title>Node620&#45;&gt;Node621</title>
<path fill="none" stroke="#191970" d="M587.4347,-139.5C597.2636,-139.5 607.2574,-139.5 616.906,-139.5"/>
<polygon fill="#191970" stroke="#191970" points="587.273,-136.0001 577.2729,-139.5 587.2729,-143.0001 587.273,-136.0001"/>
</g>
<!-- Node621&#45;&gt;Node599 -->
<g id="edge34" class="edge">
<title>Node621&#45;&gt;Node599</title>
<path fill="none" stroke="#191970" d="M761.146,-128.6088C769.6879,-127.4029 778.3366,-126.1819 786.7428,-124.9951"/>
<polygon fill="#191970" stroke="#191970" points="760.601,-125.1509 751.1885,-130.0146 761.5796,-132.0822 760.601,-125.1509"/>
</g>
<!-- Node622&#45;&gt;Node605 -->
<g id="edge36" class="edge">
<title>Node622&#45;&gt;Node605</title>
<path fill="none" stroke="#191970" d="M573.2836,-382.3212C592.0704,-387.6118 612.4546,-393.3522 630.5515,-398.4484"/>
<polygon fill="#191970" stroke="#191970" points="574.1999,-378.9432 563.6255,-379.6014 572.3024,-385.6811 574.1999,-378.9432"/>
</g>
<!-- Node623&#45;&gt;Node598 -->
<g id="edge38" class="edge">
<title>Node623&#45;&gt;Node598</title>
<path fill="none" stroke="#191970" d="M254.3999,-17.1704C330.7887,-20.3021 467.1745,-29.2294 581,-54.5 603.5608,-59.5088 628.0109,-67.9196 647.4256,-75.3523"/>
<polygon fill="#191970" stroke="#191970" points="254.1568,-13.6583 244.0279,-16.7658 253.8839,-20.653 254.1568,-13.6583"/>
</g>
<!-- Node624&#45;&gt;Node620 -->
<g id="edge42" class="edge">
<title>Node624&#45;&gt;Node620</title>
<path fill="none" stroke="#191970" d="M407.7222,-124.4867C419.2297,-126.1759 431.3175,-127.9503 442.9906,-129.6638"/>
<polygon fill="#191970" stroke="#191970" points="408.1861,-121.0174 397.7838,-123.0279 407.1695,-127.9432 408.1861,-121.0174"/>
</g>
<!-- Node625 -->
<g id="node32" class="node">
<title>Node625</title>
<g id="a_node32"><a xlink:href="msg__queue_8h.html#a7b05ddf4bc60700bfe0b9d3a0f11664b" target="_top" xlink:title="zrtos_msg_queue__put\l_cbuffer_data">
<polygon fill="#ffffff" stroke="#000000" points="451,-75.5 451,-105.5 569,-105.5 569,-75.5 451,-75.5"/>
<text text-anchor="start" x="459" y="-93.5" font-family="Helvetica,sans-Serif" font-size="10.00" fill="#000000">zrtos_msg_queue__put</text>
<text text-anchor="middle" x="510" y="-82.5" font-family="Helvetica,sans-Serif" font-size="10.00" fill="#000000">_cbuffer_data</text>
</a>
</g>
</g>
<!-- Node624&#45;&gt;Node625 -->
<g id="edge40" class="edge">
<title>Node624&#45;&gt;Node625</title>
<path fill="none" stroke="#191970" d="M407.8658,-106.1169C421.957,-103.9622 436.9113,-101.6756 450.9041,-99.5361"/>
<polygon fill="#191970" stroke="#191970" points="407.1399,-102.6871 397.7838,-107.6584 408.198,-109.6067 407.1399,-102.6871"/>
</g>
<!-- Node625&#45;&gt;Node598 -->
<g id="edge41" class="edge">
<title>Node625&#45;&gt;Node598</title>
<path fill="none" stroke="#191970" d="M579.5673,-90.5C591.8402,-90.5 604.5956,-90.5 616.8019,-90.5"/>
<polygon fill="#191970" stroke="#191970" points="579.3943,-87.0001 569.3943,-90.5 579.3942,-94.0001 579.3943,-87.0001"/>
</g>
</g>
</svg>
