<?xml version="1.0" encoding="UTF-8" standalone="no"?>
<!DOCTYPE svg PUBLIC "-//W3C//DTD SVG 1.1//EN"
 "http://www.w3.org/Graphics/SVG/1.1/DTD/svg11.dtd">
<!-- Generated by graphviz version 10.0.1 (20240210.2158)
 -->
<!-- Title: zrtos_cbuffer__init Pages: 1 -->
<svg width="542pt" height="216pt"
 viewBox="0.00 0.00 541.50 216.00" xmlns="http://www.w3.org/2000/svg" xmlns:xlink="http://www.w3.org/1999/xlink">
<g id="graph0" class="graph" transform="scale(1 1) rotate(0) translate(4 212)">
<title>zrtos_cbuffer__init</title>
<!-- Node1 -->
<g id="Node000001" class="node">
<title>Node1</title>
<g id="a_Node000001"><a xlink:title=" ">
<polygon fill="#999999" stroke="#666666" points="533.5,-126 438.75,-126 438.75,-106 533.5,-106 533.5,-126"/>
<text text-anchor="middle" x="486.12" y="-112.5" font-family="Helvetica,sans-Serif" font-size="10.00">zrtos_cbuffer__init</text>
</a>
</g>
</g>
<!-- Node2 -->
<g id="Node000002" class="node">
<title>Node2</title>
<g id="a_Node000002"><a xlink:href="uart2_8h.html#ae4fb0b1e12eb08a2595e5b69487ee0a6" target="_top" xlink:title=" ">
<polygon fill="white" stroke="#666666" points="374.25,-208 318.5,-208 318.5,-188 374.25,-188 374.25,-208"/>
<text text-anchor="middle" x="346.38" y="-194.5" font-family="Helvetica,sans-Serif" font-size="10.00">uart2_init</text>
</a>
</g>
</g>
<!-- Node1&#45;&gt;Node2 -->
<g id="edge1_Node000001_Node000002" class="edge">
<title>Node1&#45;&gt;Node2</title>
<g id="a_edge1_Node000001_Node000002"><a xlink:title=" ">
<path fill="none" stroke="#63b8ff" d="M465.5,-133.94C449.55,-147.77 425.97,-166.56 402.75,-179 393.97,-183.7 383.8,-187.59 374.58,-190.6"/>
<polygon fill="#63b8ff" stroke="#63b8ff" points="467.65,-136.72 472.81,-127.47 463.01,-131.48 467.65,-136.72"/>
</a>
</g>
</g>
<!-- Node3 -->
<g id="Node000003" class="node">
<title>Node3</title>
<g id="a_Node000003"><a xlink:href="uart3_8h.html#ad2fadd4b4cdc22527ed68eef582e20ff" target="_top" xlink:title=" ">
<polygon fill="white" stroke="#666666" points="374.25,-170 318.5,-170 318.5,-150 374.25,-150 374.25,-170"/>
<text text-anchor="middle" x="346.38" y="-156.5" font-family="Helvetica,sans-Serif" font-size="10.00">uart3_init</text>
</a>
</g>
</g>
<!-- Node1&#45;&gt;Node3 -->
<g id="edge2_Node000001_Node000003" class="edge">
<title>Node1&#45;&gt;Node3</title>
<g id="a_edge2_Node000001_Node000003"><a xlink:title=" ">
<path fill="none" stroke="#63b8ff" d="M441.75,-129.85C419.8,-136.87 393.82,-145.16 374.69,-151.28"/>
<polygon fill="#63b8ff" stroke="#63b8ff" points="442.58,-133.26 451.04,-126.89 440.45,-126.6 442.58,-133.26"/>
</a>
</g>
</g>
<!-- Node4 -->
<g id="Node000004" class="node">
<title>Node4</title>
<g id="a_Node000004"><a xlink:href="uart1_8h.html#acfdf55447639c3079785075557225a6b" target="_top" xlink:title=" ">
<polygon fill="white" stroke="#666666" points="400.5,-132 292.25,-132 292.25,-100 400.5,-100 400.5,-132"/>
<text text-anchor="start" x="300.25" y="-118.5" font-family="Helvetica,sans-Serif" font-size="10.00">zrtos_vfs_module_avr</text>
<text text-anchor="middle" x="346.38" y="-106.5" font-family="Helvetica,sans-Serif" font-size="10.00">_uart1__init</text>
</a>
</g>
</g>
<!-- Node1&#45;&gt;Node4 -->
<g id="edge3_Node000001_Node000004" class="edge">
<title>Node1&#45;&gt;Node4</title>
<g id="a_edge3_Node000001_Node000004"><a xlink:title=" ">
<path fill="none" stroke="#63b8ff" d="M427.12,-116C418.33,-116 409.29,-116 400.61,-116"/>
<polygon fill="#63b8ff" stroke="#63b8ff" points="426.98,-119.5 436.98,-116 426.98,-112.5 426.98,-119.5"/>
</a>
</g>
</g>
<!-- Node5 -->
<g id="Node000005" class="node">
<title>Node5</title>
<g id="a_Node000005"><a xlink:href="spi_2spi_8h.html#adc81737c639ce158493c00f190803a81" target="_top" xlink:title=" ">
<polygon fill="white" stroke="#666666" points="400.88,-82 291.88,-82 291.88,-50 400.88,-50 400.88,-82"/>
<text text-anchor="start" x="299.88" y="-68.5" font-family="Helvetica,sans-Serif" font-size="10.00">zrtos_vfs_module_spi</text>
<text text-anchor="middle" x="346.38" y="-56.5" font-family="Helvetica,sans-Serif" font-size="10.00">_file__init</text>
</a>
</g>
</g>
<!-- Node1&#45;&gt;Node5 -->
<g id="edge4_Node000001_Node000005" class="edge">
<title>Node1&#45;&gt;Node5</title>
<g id="a_edge4_Node000001_Node000005"><a xlink:title=" ">
<path fill="none" stroke="#63b8ff" d="M445.83,-101.74C429.28,-95.73 409.91,-88.7 392.75,-82.47"/>
<polygon fill="#63b8ff" stroke="#63b8ff" points="444.23,-104.88 454.83,-105 446.62,-98.3 444.23,-104.88"/>
</a>
</g>
</g>
<!-- Node8 -->
<g id="Node000008" class="node">
<title>Node8</title>
<g id="a_Node000008"><a xlink:href="uart_2uart_8h.html#ae1212439e69e6ec9ff3306c5c863d0c7" target="_top" xlink:title=" ">
<polygon fill="white" stroke="#666666" points="402.75,-32 290,-32 290,0 402.75,0 402.75,-32"/>
<text text-anchor="start" x="298" y="-18.5" font-family="Helvetica,sans-Serif" font-size="10.00">zrtos_vfs_module_uart</text>
<text text-anchor="middle" x="346.38" y="-6.5" font-family="Helvetica,sans-Serif" font-size="10.00">_args__init</text>
</a>
</g>
</g>
<!-- Node1&#45;&gt;Node8 -->
<g id="edge7_Node000001_Node000008" class="edge">
<title>Node1&#45;&gt;Node8</title>
<g id="a_edge7_Node000001_Node000008"><a xlink:title=" ">
<path fill="none" stroke="#63b8ff" d="M468.03,-97.42C452.26,-81.04 427.57,-57.31 402.75,-41 398.08,-37.93 392.97,-35.06 387.8,-32.44"/>
<polygon fill="#63b8ff" stroke="#63b8ff" points="465.38,-99.7 474.79,-104.57 470.47,-94.9 465.38,-99.7"/>
</a>
</g>
</g>
<!-- Node6 -->
<g id="Node000006" class="node">
<title>Node6</title>
<g id="a_Node000006"><a xlink:href="spi_2spi_8h.html#a68d36087dcd9899d09463ff64ac782db" target="_top" xlink:title=" ">
<polygon fill="white" stroke="#666666" points="254,-82 145,-82 145,-50 254,-50 254,-82"/>
<text text-anchor="start" x="153" y="-68.5" font-family="Helvetica,sans-Serif" font-size="10.00">zrtos_vfs_module_spi</text>
<text text-anchor="middle" x="199.5" y="-56.5" font-family="Helvetica,sans-Serif" font-size="10.00">_file__new</text>
</a>
</g>
</g>
<!-- Node5&#45;&gt;Node6 -->
<g id="edge5_Node000005_Node000006" class="edge">
<title>Node5&#45;&gt;Node6</title>
<g id="a_edge5_Node000005_Node000006"><a xlink:title=" ">
<path fill="none" stroke="#63b8ff" d="M279.95,-66C271.43,-66 262.79,-66 254.49,-66"/>
<polygon fill="#63b8ff" stroke="#63b8ff" points="279.92,-69.5 289.92,-66 279.92,-62.5 279.92,-69.5"/>
</a>
</g>
</g>
<!-- Node7 -->
<g id="Node000007" class="node">
<title>Node7</title>
<g id="a_Node000007"><a xlink:href="spi_2spi_8h.html#a2b1a737572f04d30eff7cfa9c6911fed" target="_top" xlink:title=" ">
<polygon fill="white" stroke="#666666" points="109,-82 0,-82 0,-50 109,-50 109,-82"/>
<text text-anchor="start" x="8" y="-68.5" font-family="Helvetica,sans-Serif" font-size="10.00">zrtos_vfs_module_spi</text>
<text text-anchor="middle" x="54.5" y="-56.5" font-family="Helvetica,sans-Serif" font-size="10.00">__on_open</text>
</a>
</g>
</g>
<!-- Node6&#45;&gt;Node7 -->
<g id="edge6_Node000006_Node000007" class="edge">
<title>Node6&#45;&gt;Node7</title>
<g id="a_edge6_Node000006_Node000007"><a xlink:title=" ">
<path fill="none" stroke="#63b8ff" d="M133.56,-66C125.5,-66 117.33,-66 109.46,-66"/>
<polygon fill="#63b8ff" stroke="#63b8ff" points="133.33,-69.5 143.33,-66 133.33,-62.5 133.33,-69.5"/>
</a>
</g>
</g>
</g>
</svg>
