<?xml version="1.0" encoding="UTF-8" standalone="no"?>
<!DOCTYPE svg PUBLIC "-//W3C//DTD SVG 1.1//EN"
 "http://www.w3.org/Graphics/SVG/1.1/DTD/svg11.dtd">
<!-- Generated by graphviz version 2.40.1 (20161225.0304)
 -->
<!-- Title: zrtos_cbuffer__can_read Pages: 1 -->
<svg width="433pt" height="235pt"
 viewBox="0.00 0.00 433.00 235.00" xmlns="http://www.w3.org/2000/svg" xmlns:xlink="http://www.w3.org/1999/xlink">
<g id="graph0" class="graph" transform="scale(1 1) rotate(0) translate(4 231)">
<title>zrtos_cbuffer__can_read</title>
<polygon fill="#ffffff" stroke="transparent" points="-4,4 -4,-231 429,-231 429,4 -4,4"/>
<!-- Node7 -->
<g id="node1" class="node">
<title>Node7</title>
<polygon fill="#bfbfbf" stroke="#000000" points="0,-128 0,-147 124,-147 124,-128 0,-128"/>
<text text-anchor="middle" x="62" y="-135" font-family="Helvetica,sans-Serif" font-size="10.00" fill="#000000">zrtos_cbuffer__can_read</text>
</g>
<!-- Node8 -->
<g id="node2" class="node">
<title>Node8</title>
<g id="a_node2"><a xlink:href="spi_2spi_8h.html#ad4f51bdbefa54f2e6fef1e313ac0f270" target="_top" xlink:title="zrtos_vfs_module_spi\l__on_can_read">
<polygon fill="#ffffff" stroke="#000000" points="162,-171.5 162,-201.5 274,-201.5 274,-171.5 162,-171.5"/>
<text text-anchor="start" x="170" y="-189.5" font-family="Helvetica,sans-Serif" font-size="10.00" fill="#000000">zrtos_vfs_module_spi</text>
<text text-anchor="middle" x="218" y="-178.5" font-family="Helvetica,sans-Serif" font-size="10.00" fill="#000000">__on_can_read</text>
</a>
</g>
</g>
<!-- Node7&#45;&gt;Node8 -->
<g id="edge1" class="edge">
<title>Node7&#45;&gt;Node8</title>
<path fill="none" stroke="#191970" d="M102.2141,-150.1313C122.9501,-156.6446 148.3839,-164.6334 170.1272,-171.463"/>
<polygon fill="#191970" stroke="#191970" points="103.038,-146.7216 92.4487,-147.064 100.9403,-153.3999 103.038,-146.7216"/>
</g>
<!-- Node10 -->
<g id="node4" class="node">
<title>Node10</title>
<g id="a_node4"><a xlink:href="uart_2uart_8h.html#ae0df07d6b2030b70ae3c65b98ab0d15a" target="_top" xlink:title="zrtos_vfs_module_uart\l__on_can_read">
<polygon fill="#ffffff" stroke="#000000" points="160,-98.5 160,-128.5 276,-128.5 276,-98.5 160,-98.5"/>
<text text-anchor="start" x="168" y="-116.5" font-family="Helvetica,sans-Serif" font-size="10.00" fill="#000000">zrtos_vfs_module_uart</text>
<text text-anchor="middle" x="218" y="-105.5" font-family="Helvetica,sans-Serif" font-size="10.00" fill="#000000">__on_can_read</text>
</a>
</g>
</g>
<!-- Node7&#45;&gt;Node10 -->
<g id="edge3" class="edge">
<title>Node7&#45;&gt;Node10</title>
<path fill="none" stroke="#191970" d="M134.1637,-126.3979C142.7926,-125.0704 151.5173,-123.7281 159.9122,-122.4366"/>
<polygon fill="#191970" stroke="#191970" points="133.4551,-122.9656 124.1036,-127.9456 134.5195,-129.8843 133.4551,-122.9656"/>
</g>
<!-- Node9 -->
<g id="node3" class="node">
<title>Node9</title>
<g id="a_node3"><a xlink:href="avr_2spi_2spi_8h.html#ab6f547c3ce7ee0463c235abe078f9491" target="_top" xlink:title="zrtos_vfs_module_avr\l_spi__on_write">
<polygon fill="#ffffff" stroke="#000000" points="312,-196.5 312,-226.5 425,-226.5 425,-196.5 312,-196.5"/>
<text text-anchor="start" x="320" y="-214.5" font-family="Helvetica,sans-Serif" font-size="10.00" fill="#000000">zrtos_vfs_module_avr</text>
<text text-anchor="middle" x="368.5" y="-203.5" font-family="Helvetica,sans-Serif" font-size="10.00" fill="#000000">_spi__on_write</text>
</a>
</g>
</g>
<!-- Node8&#45;&gt;Node9 -->
<g id="edge2" class="edge">
<title>Node8&#45;&gt;Node9</title>
<path fill="none" stroke="#191970" d="M284.0267,-197.4679C293.3237,-199.0122 302.8114,-200.5883 311.9106,-202.0998"/>
<polygon fill="#191970" stroke="#191970" points="284.479,-193.9951 274.0406,-195.8091 283.3319,-200.9005 284.479,-193.9951"/>
</g>
<!-- Node11 -->
<g id="node5" class="node">
<title>Node11</title>
<g id="a_node5"><a xlink:href="uart0_8h.html#a1c08ba1c9bac4dd9a045d06a07dbe0b4" target="_top" xlink:title="zrtos_vfs_module_avr\l_uart0__on_write">
<polygon fill="#ffffff" stroke="#000000" points="312,-147.5 312,-177.5 425,-177.5 425,-147.5 312,-147.5"/>
<text text-anchor="start" x="320" y="-165.5" font-family="Helvetica,sans-Serif" font-size="10.00" fill="#000000">zrtos_vfs_module_avr</text>
<text text-anchor="middle" x="368.5" y="-154.5" font-family="Helvetica,sans-Serif" font-size="10.00" fill="#000000">_uart0__on_write</text>
</a>
</g>
</g>
<!-- Node10&#45;&gt;Node11 -->
<g id="edge4" class="edge">
<title>Node10&#45;&gt;Node11</title>
<path fill="none" stroke="#191970" d="M274.0815,-131.7591C289.9552,-136.9273 307.0481,-142.4924 322.2702,-147.4484"/>
<polygon fill="#191970" stroke="#191970" points="274.9753,-128.3693 264.383,-128.6014 272.8081,-135.0254 274.9753,-128.3693"/>
</g>
<!-- Node12 -->
<g id="node6" class="node">
<title>Node12</title>
<g id="a_node6"><a xlink:href="uart1_8h.html#af04452122e72ab7408b2e207191cdd33" target="_top" xlink:title="zrtos_vfs_module_avr\l_uart1__on_write">
<polygon fill="#ffffff" stroke="#000000" points="312,-98.5 312,-128.5 425,-128.5 425,-98.5 312,-98.5"/>
<text text-anchor="start" x="320" y="-116.5" font-family="Helvetica,sans-Serif" font-size="10.00" fill="#000000">zrtos_vfs_module_avr</text>
<text text-anchor="middle" x="368.5" y="-105.5" font-family="Helvetica,sans-Serif" font-size="10.00" fill="#000000">_uart1__on_write</text>
</a>
</g>
</g>
<!-- Node10&#45;&gt;Node12 -->
<g id="edge5" class="edge">
<title>Node10&#45;&gt;Node12</title>
<path fill="none" stroke="#191970" d="M286.2093,-113.5C294.8184,-113.5 303.5515,-113.5 311.9525,-113.5"/>
<polygon fill="#191970" stroke="#191970" points="286.1873,-110.0001 276.1872,-113.5 286.1872,-117.0001 286.1873,-110.0001"/>
</g>
<!-- Node13 -->
<g id="node7" class="node">
<title>Node13</title>
<g id="a_node7"><a xlink:href="uart2_8h.html#a244148efdde4e736bdcba74328e85415" target="_top" xlink:title="zrtos_vfs_module_avr\l_uart2__on_write">
<polygon fill="#ffffff" stroke="#000000" points="312,-49.5 312,-79.5 425,-79.5 425,-49.5 312,-49.5"/>
<text text-anchor="start" x="320" y="-67.5" font-family="Helvetica,sans-Serif" font-size="10.00" fill="#000000">zrtos_vfs_module_avr</text>
<text text-anchor="middle" x="368.5" y="-56.5" font-family="Helvetica,sans-Serif" font-size="10.00" fill="#000000">_uart2__on_write</text>
</a>
</g>
</g>
<!-- Node10&#45;&gt;Node13 -->
<g id="edge6" class="edge">
<title>Node10&#45;&gt;Node13</title>
<path fill="none" stroke="#191970" d="M274.0815,-95.2409C289.9552,-90.0727 307.0481,-84.5076 322.2702,-79.5516"/>
<polygon fill="#191970" stroke="#191970" points="272.8081,-91.9746 264.383,-98.3986 274.9753,-98.6307 272.8081,-91.9746"/>
</g>
<!-- Node14 -->
<g id="node8" class="node">
<title>Node14</title>
<g id="a_node8"><a xlink:href="uart3_8h.html#a0ac21cf2483f89180a91b9ca480eb7b8" target="_top" xlink:title="zrtos_vfs_module_avr\l_uart3__on_write">
<polygon fill="#ffffff" stroke="#000000" points="312,-.5 312,-30.5 425,-30.5 425,-.5 312,-.5"/>
<text text-anchor="start" x="320" y="-18.5" font-family="Helvetica,sans-Serif" font-size="10.00" fill="#000000">zrtos_vfs_module_avr</text>
<text text-anchor="middle" x="368.5" y="-7.5" font-family="Helvetica,sans-Serif" font-size="10.00" fill="#000000">_uart3__on_write</text>
</a>
</g>
</g>
<!-- Node10&#45;&gt;Node14 -->
<g id="edge7" class="edge">
<title>Node10&#45;&gt;Node14</title>
<path fill="none" stroke="#191970" d="M242.5857,-91.702C260.8829,-76.1709 286.9256,-55.4773 312,-40.5 317.9856,-36.9247 324.5742,-33.5532 331.0735,-30.5127"/>
<polygon fill="#191970" stroke="#191970" points="240.0554,-89.2618 234.7552,-98.4356 244.6194,-94.5693 240.0554,-89.2618"/>
</g>
</g>
</svg>
