<?xml version="1.0" encoding="UTF-8" standalone="no"?>
<!DOCTYPE svg PUBLIC "-//W3C//DTD SVG 1.1//EN"
 "http://www.w3.org/Graphics/SVG/1.1/DTD/svg11.dtd">
<!-- Generated by graphviz version 2.40.1 (20161225.0304)
 -->
<!-- Title: zrtos_cbuffer__peek Pages: 1 -->
<svg width="761pt" height="88pt"
 viewBox="0.00 0.00 761.00 88.00" xmlns="http://www.w3.org/2000/svg" xmlns:xlink="http://www.w3.org/1999/xlink">
<g id="graph0" class="graph" transform="scale(1 1) rotate(0) translate(4 84)">
<title>zrtos_cbuffer__peek</title>
<polygon fill="#ffffff" stroke="transparent" points="-4,4 -4,-84 757,-84 757,4 -4,4"/>
<!-- Node251 -->
<g id="node1" class="node">
<title>Node251</title>
<polygon fill="#bfbfbf" stroke="#000000" points="0,-30 0,-49 105,-49 105,-30 0,-30"/>
<text text-anchor="middle" x="52.5" y="-37" font-family="Helvetica,sans-Serif" font-size="10.00" fill="#000000">zrtos_cbuffer__peek</text>
</g>
<!-- Node252 -->
<g id="node2" class="node">
<title>Node252</title>
<g id="a_node2"><a xlink:href="cbuffer_8h.html#a77458b7cd6238ed911ffdab0fe328e04" target="_top" xlink:title="zrtos_cbuffer__pipe">
<polygon fill="#ffffff" stroke="#000000" points="141,-30 141,-49 243,-49 243,-30 141,-30"/>
<text text-anchor="middle" x="192" y="-37" font-family="Helvetica,sans-Serif" font-size="10.00" fill="#000000">zrtos_cbuffer__pipe</text>
</a>
</g>
</g>
<!-- Node251&#45;&gt;Node252 -->
<g id="edge1" class="edge">
<title>Node251&#45;&gt;Node252</title>
<path fill="none" stroke="#191970" d="M115.4087,-39.5C123.828,-39.5 132.3816,-39.5 140.5723,-39.5"/>
<polygon fill="#191970" stroke="#191970" points="115.239,-36.0001 105.239,-39.5 115.2389,-43.0001 115.239,-36.0001"/>
</g>
<!-- Node253 -->
<g id="node3" class="node">
<title>Node253</title>
<g id="a_node3"><a xlink:href="msg__queue_8h.html#a7b05ddf4bc60700bfe0b9d3a0f11664b" target="_top" xlink:title="zrtos_msg_queue__put\l_cbuffer_data">
<polygon fill="#ffffff" stroke="#000000" points="287,-49.5 287,-79.5 405,-79.5 405,-49.5 287,-49.5"/>
<text text-anchor="start" x="295" y="-67.5" font-family="Helvetica,sans-Serif" font-size="10.00" fill="#000000">zrtos_msg_queue__put</text>
<text text-anchor="middle" x="346" y="-56.5" font-family="Helvetica,sans-Serif" font-size="10.00" fill="#000000">_cbuffer_data</text>
</a>
</g>
</g>
<!-- Node252&#45;&gt;Node253 -->
<g id="edge2" class="edge">
<title>Node252&#45;&gt;Node253</title>
<path fill="none" stroke="#191970" d="M253.3065,-49.4524C264.3937,-51.2522 275.9342,-53.1257 286.955,-54.9148"/>
<polygon fill="#191970" stroke="#191970" points="253.7114,-45.9723 243.2798,-47.8246 252.5897,-52.8819 253.7114,-45.9723"/>
</g>
<!-- Node256 -->
<g id="node6" class="node">
<title>Node256</title>
<g id="a_node6"><a xlink:href="msg__queue_8h.html#a40db633a8c0ef5e3bba9cc700e45f7ef" target="_top" xlink:title="zrtos_msg_queue__pipe\l_next_message_to_cbuffer">
<polygon fill="#ffffff" stroke="#000000" points="279,-.5 279,-30.5 413,-30.5 413,-.5 279,-.5"/>
<text text-anchor="start" x="287" y="-18.5" font-family="Helvetica,sans-Serif" font-size="10.00" fill="#000000">zrtos_msg_queue__pipe</text>
<text text-anchor="middle" x="346" y="-7.5" font-family="Helvetica,sans-Serif" font-size="10.00" fill="#000000">_next_message_to_cbuffer</text>
</a>
</g>
</g>
<!-- Node252&#45;&gt;Node256 -->
<g id="edge5" class="edge">
<title>Node252&#45;&gt;Node256</title>
<path fill="none" stroke="#191970" d="M253.3277,-29.9424C261.693,-28.6387 270.316,-27.2949 278.7789,-25.976"/>
<polygon fill="#191970" stroke="#191970" points="252.6215,-26.5102 243.2798,-31.5083 253.6995,-33.4267 252.6215,-26.5102"/>
</g>
<!-- Node254 -->
<g id="node4" class="node">
<title>Node254</title>
<g id="a_node4"><a xlink:href="rtu_8h.html#a223fc39dfd241ff17884c9f5d03f8e78" target="_top" xlink:title="zrtos_vfs_module_modbus\l_rtu__on_recv_timeout">
<polygon fill="#ffffff" stroke="#000000" points="449,-49.5 449,-79.5 583,-79.5 583,-49.5 449,-49.5"/>
<text text-anchor="start" x="457" y="-67.5" font-family="Helvetica,sans-Serif" font-size="10.00" fill="#000000">zrtos_vfs_module_modbus</text>
<text text-anchor="middle" x="516" y="-56.5" font-family="Helvetica,sans-Serif" font-size="10.00" fill="#000000">_rtu__on_recv_timeout</text>
</a>
</g>
</g>
<!-- Node253&#45;&gt;Node254 -->
<g id="edge3" class="edge">
<title>Node253&#45;&gt;Node254</title>
<path fill="none" stroke="#191970" d="M415.769,-64.5C426.6593,-64.5 437.8945,-64.5 448.7276,-64.5"/>
<polygon fill="#191970" stroke="#191970" points="415.4578,-61.0001 405.4578,-64.5 415.4577,-68.0001 415.4578,-61.0001"/>
</g>
<!-- Node255 -->
<g id="node5" class="node">
<title>Node255</title>
<g id="a_node5"><a xlink:href="rtu_8h.html#a2376d02a52d42eef634ef843afc499f3" target="_top" xlink:title="zrtos_vfs_module_modbus\l_rtu_inode__init">
<polygon fill="#ffffff" stroke="#000000" points="619,-24.5 619,-54.5 753,-54.5 753,-24.5 619,-24.5"/>
<text text-anchor="start" x="627" y="-42.5" font-family="Helvetica,sans-Serif" font-size="10.00" fill="#000000">zrtos_vfs_module_modbus</text>
<text text-anchor="middle" x="686" y="-31.5" font-family="Helvetica,sans-Serif" font-size="10.00" fill="#000000">_rtu_inode__init</text>
</a>
</g>
</g>
<!-- Node254&#45;&gt;Node255 -->
<g id="edge4" class="edge">
<title>Node254&#45;&gt;Node255</title>
<path fill="none" stroke="#191970" d="M593.146,-53.155C601.6879,-51.8988 610.3366,-50.627 618.7428,-49.3908"/>
<polygon fill="#191970" stroke="#191970" points="592.5728,-49.7016 583.1885,-54.6193 593.5914,-56.6271 592.5728,-49.7016"/>
</g>
<!-- Node257 -->
<g id="node7" class="node">
<title>Node257</title>
<g id="a_node7"><a xlink:href="rtu_8h.html#ab23606290979709ef6fefa7c6970e64e" target="_top" xlink:title="zrtos_vfs_module_modbus\l_rtu__on_send">
<polygon fill="#ffffff" stroke="#000000" points="449,-.5 449,-30.5 583,-30.5 583,-.5 449,-.5"/>
<text text-anchor="start" x="457" y="-18.5" font-family="Helvetica,sans-Serif" font-size="10.00" fill="#000000">zrtos_vfs_module_modbus</text>
<text text-anchor="middle" x="516" y="-7.5" font-family="Helvetica,sans-Serif" font-size="10.00" fill="#000000">_rtu__on_send</text>
</a>
</g>
</g>
<!-- Node256&#45;&gt;Node257 -->
<g id="edge6" class="edge">
<title>Node256&#45;&gt;Node257</title>
<path fill="none" stroke="#191970" d="M423.4246,-15.5C431.8759,-15.5 440.4279,-15.5 448.7428,-15.5"/>
<polygon fill="#191970" stroke="#191970" points="423.1885,-12.0001 413.1885,-15.5 423.1885,-19.0001 423.1885,-12.0001"/>
</g>
<!-- Node257&#45;&gt;Node255 -->
<g id="edge7" class="edge">
<title>Node257&#45;&gt;Node255</title>
<path fill="none" stroke="#191970" d="M593.146,-26.3912C601.6879,-27.5971 610.3366,-28.8181 618.7428,-30.0049"/>
<polygon fill="#191970" stroke="#191970" points="593.5796,-22.9178 583.1885,-24.9854 592.601,-29.8491 593.5796,-22.9178"/>
</g>
</g>
</svg>
