<?xml version="1.0" encoding="UTF-8" standalone="no"?>
<!DOCTYPE svg PUBLIC "-//W3C//DTD SVG 1.1//EN"
 "http://www.w3.org/Graphics/SVG/1.1/DTD/svg11.dtd">
<!-- Generated by graphviz version 10.0.1 (20240210.2158)
 -->
<!-- Title: zrtos_cbuffer__get_last_node Pages: 1 -->
<svg width="1058pt" height="392pt"
 viewBox="0.00 0.00 1057.50 391.59" xmlns="http://www.w3.org/2000/svg" xmlns:xlink="http://www.w3.org/1999/xlink">
<g id="graph0" class="graph" transform="scale(1 1) rotate(0) translate(4 387.59)">
<title>zrtos_cbuffer__get_last_node</title>
<!-- Node1 -->
<g id="Node000001" class="node">
<title>Node1</title>
<g id="a_Node000001"><a xlink:title=" ">
<polygon fill="#999999" stroke="#666666" points="1049.5,-120 954,-120 954,-88 1049.5,-88 1049.5,-120"/>
<text text-anchor="start" x="962" y="-106.5" font-family="Helvetica,sans-Serif" font-size="10.00">zrtos_cbuffer__get</text>
<text text-anchor="middle" x="1001.75" y="-94.5" font-family="Helvetica,sans-Serif" font-size="10.00">_last_node</text>
</a>
</g>
</g>
<!-- Node2 -->
<g id="Node000002" class="node">
<title>Node2</title>
<g id="a_Node000002"><a xlink:href="cbuffer_8h.html#a9aa1ad8581d3c89304d2ff464a53e92e" target="_top" xlink:title=" ">
<polygon fill="white" stroke="#666666" points="918,-95 802.25,-95 802.25,-63 918,-63 918,-95"/>
<text text-anchor="start" x="810.25" y="-81.5" font-family="Helvetica,sans-Serif" font-size="10.00">zrtos_cbuffer__rollback</text>
<text text-anchor="middle" x="860.12" y="-69.5" font-family="Helvetica,sans-Serif" font-size="10.00">_write_transaction</text>
</a>
</g>
</g>
<!-- Node1&#45;&gt;Node2 -->
<g id="edge1_Node000001_Node000002" class="edge">
<title>Node1&#45;&gt;Node2</title>
<g id="a_edge1_Node000001_Node000002"><a xlink:title=" ">
<path fill="none" stroke="#63b8ff" d="M942.67,-93.6C934.61,-92.16 926.34,-90.68 918.31,-89.24"/>
<polygon fill="#63b8ff" stroke="#63b8ff" points="941.92,-97.02 952.38,-95.34 943.15,-90.13 941.92,-97.02"/>
</a>
</g>
</g>
<!-- Node22 -->
<g id="Node000022" class="node">
<title>Node22</title>
<g id="a_Node000022"><a xlink:href="cbuffer_8h.html#aaf9c5c04a1350c2cdd906f7c7081ee38" target="_top" xlink:title=" ">
<polygon fill="white" stroke="#666666" points="910.88,-145 809.38,-145 809.38,-113 910.88,-113 910.88,-145"/>
<text text-anchor="start" x="817.38" y="-131.5" font-family="Helvetica,sans-Serif" font-size="10.00">zrtos_cbuffer__start</text>
<text text-anchor="middle" x="860.12" y="-119.5" font-family="Helvetica,sans-Serif" font-size="10.00">_write_transaction</text>
</a>
</g>
</g>
<!-- Node1&#45;&gt;Node22 -->
<g id="edge25_Node000001_Node000022" class="edge">
<title>Node1&#45;&gt;Node22</title>
<g id="a_edge25_Node000001_Node000022"><a xlink:title=" ">
<path fill="none" stroke="#63b8ff" d="M942.65,-114.4C932.13,-116.29 921.25,-118.24 910.99,-120.07"/>
<polygon fill="#63b8ff" stroke="#63b8ff" points="943.15,-117.87 952.38,-112.66 941.92,-110.98 943.15,-117.87"/>
</a>
</g>
</g>
<!-- Node3 -->
<g id="Node000003" class="node">
<title>Node3</title>
<g id="a_Node000003"><a xlink:href="cbuffer_8h.html#a5d269503e04946737598d2062c5bfaf4" target="_top" xlink:title=" ">
<polygon fill="white" stroke="#666666" points="766.25,-192 655,-192 655,-172 766.25,-172 766.25,-192"/>
<text text-anchor="middle" x="710.62" y="-178.5" font-family="Helvetica,sans-Serif" font-size="10.00">zrtos_cbuffer__put_ex</text>
</a>
</g>
</g>
<!-- Node2&#45;&gt;Node3 -->
<g id="edge2_Node000002_Node000003" class="edge">
<title>Node2&#45;&gt;Node3</title>
<g id="a_edge2_Node000002_Node000003"><a xlink:title=" ">
<path fill="none" stroke="#63b8ff" d="M807.85,-100.65C805.94,-101.74 804.06,-102.86 802.25,-104 770.11,-124.26 737.61,-155.41 721.69,-171.53"/>
<polygon fill="#63b8ff" stroke="#63b8ff" points="809.12,-103.94 816.34,-96.18 805.86,-97.75 809.12,-103.94"/>
</a>
</g>
</g>
<!-- Node21 -->
<g id="Node000021" class="node">
<title>Node21</title>
<g id="a_Node000021"><a xlink:href="msg__queue_8h.html#a0eefe9e5e6f83f1fcd2c66546a05add7" target="_top" xlink:title=" ">
<polygon fill="white" stroke="#666666" points="617.12,-32 479.62,-32 479.62,0 617.12,0 617.12,-32"/>
<text text-anchor="start" x="487.62" y="-18.5" font-family="Helvetica,sans-Serif" font-size="10.00">zrtos_msg_queue__rollback</text>
<text text-anchor="middle" x="548.38" y="-6.5" font-family="Helvetica,sans-Serif" font-size="10.00">_write_transaction</text>
</a>
</g>
</g>
<!-- Node2&#45;&gt;Node21 -->
<g id="edge22_Node000002_Node000021" class="edge">
<title>Node2&#45;&gt;Node21</title>
<g id="a_edge22_Node000002_Node000021"><a xlink:title=" ">
<path fill="none" stroke="#63b8ff" d="M790.93,-65.13C739.43,-54.66 669.06,-40.34 617.56,-29.87"/>
<polygon fill="#63b8ff" stroke="#63b8ff" points="789.97,-68.51 800.47,-67.07 791.37,-61.65 789.97,-68.51"/>
</a>
</g>
</g>
<!-- Node4 -->
<g id="Node000004" class="node">
<title>Node4</title>
<g id="a_Node000004"><a xlink:href="msg__queue_8h.html#ab51eb620b09145d1b05966404c9e0ca4" target="_top" xlink:title=" ">
<polygon fill="white" stroke="#666666" points="607,-258 489.75,-258 489.75,-238 607,-238 607,-258"/>
<text text-anchor="middle" x="548.38" y="-244.5" font-family="Helvetica,sans-Serif" font-size="10.00">zrtos_msg_queue__put</text>
</a>
</g>
</g>
<!-- Node3&#45;&gt;Node4 -->
<g id="edge3_Node000003_Node000004" class="edge">
<title>Node3&#45;&gt;Node4</title>
<g id="a_edge3_Node000003_Node000004"><a xlink:title=" ">
<path fill="none" stroke="#63b8ff" d="M682.8,-197.83C665.12,-207.78 641.22,-220.32 619,-229 610.83,-232.19 601.92,-235.06 593.29,-237.54"/>
<polygon fill="#63b8ff" stroke="#63b8ff" points="684.17,-201.08 691.11,-193.08 680.7,-195 684.17,-201.08"/>
</a>
</g>
</g>
<!-- Node5 -->
<g id="Node000005" class="node">
<title>Node5</title>
<g id="a_Node000005"><a xlink:href="msg__queue_8h.html#a14fb4faf04687986da3435e06db5d587" target="_top" xlink:title=" ">
<polygon fill="white" stroke="#666666" points="619,-170 477.75,-170 477.75,-150 619,-150 619,-170"/>
<text text-anchor="middle" x="548.38" y="-156.5" font-family="Helvetica,sans-Serif" font-size="10.00">zrtos_msg_queue__put_data</text>
</a>
</g>
</g>
<!-- Node3&#45;&gt;Node5 -->
<g id="edge4_Node000003_Node000005" class="edge">
<title>Node3&#45;&gt;Node5</title>
<g id="a_edge4_Node000003_Node000005"><a xlink:title=" ">
<path fill="none" stroke="#63b8ff" d="M643.74,-172.96C635.72,-171.85 627.5,-170.72 619.41,-169.62"/>
<polygon fill="#63b8ff" stroke="#63b8ff" points="643.04,-176.39 653.42,-174.28 643.99,-169.46 643.04,-176.39"/>
</a>
</g>
</g>
<!-- Node7 -->
<g id="Node000007" class="node">
<title>Node7</title>
<g id="a_Node000007"><a xlink:href="msg__queue_8h.html#a9f24485c49e6b6ba13406e9a5d1f352d" target="_top" xlink:title=" ">
<polygon fill="white" stroke="#666666" points="607,-132 489.75,-132 489.75,-100 607,-100 607,-132"/>
<text text-anchor="start" x="497.75" y="-118.5" font-family="Helvetica,sans-Serif" font-size="10.00">zrtos_msg_queue__put</text>
<text text-anchor="middle" x="548.38" y="-106.5" font-family="Helvetica,sans-Serif" font-size="10.00">_length</text>
</a>
</g>
</g>
<!-- Node3&#45;&gt;Node7 -->
<g id="edge6_Node000003_Node000007" class="edge">
<title>Node3&#45;&gt;Node7</title>
<g id="a_edge6_Node000003_Node000007"><a xlink:title=" ">
<path fill="none" stroke="#63b8ff" d="M677.76,-166.83C660.51,-158.81 638.75,-149 619,-141 611.86,-138.11 604.24,-135.2 596.76,-132.44"/>
<polygon fill="#63b8ff" stroke="#63b8ff" points="675.95,-169.85 686.49,-170.92 678.92,-163.51 675.95,-169.85"/>
</a>
</g>
</g>
<!-- Node10 -->
<g id="Node000010" class="node">
<title>Node10</title>
<g id="a_Node000010"><a xlink:href="spi_2spi_8h.html#ac672df98eac652a9d1925ba73229c475" target="_top" xlink:title=" ">
<polygon fill="white" stroke="#666666" points="264.12,-380 155.12,-380 155.12,-348 264.12,-348 264.12,-380"/>
<text text-anchor="start" x="163.12" y="-366.5" font-family="Helvetica,sans-Serif" font-size="10.00">zrtos_vfs_module_spi</text>
<text text-anchor="middle" x="209.62" y="-354.5" font-family="Helvetica,sans-Serif" font-size="10.00">__on_write</text>
</a>
</g>
</g>
<!-- Node3&#45;&gt;Node10 -->
<g id="edge10_Node000003_Node000010" class="edge">
<title>Node3&#45;&gt;Node10</title>
<g id="a_edge10_Node000003_Node000010"><a xlink:title=" ">
<path fill="none" stroke="#63b8ff" d="M703.57,-202.96C692.72,-236.32 666.52,-300.72 619,-330 508.31,-398.2 347.55,-386.36 264.61,-373.99"/>
<polygon fill="#63b8ff" stroke="#63b8ff" points="706.84,-204.22 706.44,-193.64 700.15,-202.16 706.84,-204.22"/>
</a>
</g>
</g>
<!-- Node12 -->
<g id="Node000012" class="node">
<title>Node12</title>
<g id="a_Node000012"><a xlink:href="spi_2spi_8h.html#a7f9adeb6314d47b2442b0a17d1cc2f37" target="_top" xlink:title=" ">
<polygon fill="white" stroke="#666666" points="602.88,-321 493.88,-321 493.88,-289 602.88,-289 602.88,-321"/>
<text text-anchor="start" x="501.88" y="-307.5" font-family="Helvetica,sans-Serif" font-size="10.00">zrtos_vfs_module_spi</text>
<text text-anchor="middle" x="548.38" y="-295.5" font-family="Helvetica,sans-Serif" font-size="10.00">__transfer_in</text>
</a>
</g>
</g>
<!-- Node3&#45;&gt;Node12 -->
<g id="edge12_Node000003_Node000012" class="edge">
<title>Node3&#45;&gt;Node12</title>
<g id="a_edge12_Node000003_Node000012"><a xlink:title=" ">
<path fill="none" stroke="#63b8ff" d="M692.46,-200.66C675.06,-218.93 646.8,-246.88 619,-267 607.96,-274.99 595.04,-282.49 583.35,-288.67"/>
<polygon fill="#63b8ff" stroke="#63b8ff" points="694.96,-203.1 699.26,-193.42 689.86,-198.31 694.96,-203.1"/>
</a>
</g>
</g>
<!-- Node16 -->
<g id="Node000016" class="node">
<title>Node16</title>
<g id="a_Node000016"><a xlink:href="uart_2uart_8h.html#a9e735d9796aaa30e4a5fce9c763adf92" target="_top" xlink:title=" ">
<polygon fill="white" stroke="#666666" points="604.75,-220 492,-220 492,-188 604.75,-188 604.75,-220"/>
<text text-anchor="start" x="500" y="-206.5" font-family="Helvetica,sans-Serif" font-size="10.00">zrtos_vfs_module_uart</text>
<text text-anchor="middle" x="548.38" y="-194.5" font-family="Helvetica,sans-Serif" font-size="10.00">__on_write</text>
</a>
</g>
</g>
<!-- Node3&#45;&gt;Node16 -->
<g id="edge17_Node000003_Node000016" class="edge">
<title>Node3&#45;&gt;Node16</title>
<g id="a_edge17_Node000003_Node000016"><a xlink:title=" ">
<path fill="none" stroke="#63b8ff" d="M643.82,-191.03C630.99,-192.8 617.66,-194.63 605.19,-196.34"/>
<polygon fill="#63b8ff" stroke="#63b8ff" points="643.99,-194.54 653.42,-189.72 643.04,-187.61 643.99,-194.54"/>
</a>
</g>
</g>
<!-- Node6 -->
<g id="Node000006" class="node">
<title>Node6</title>
<g id="a_Node000006"><a xlink:href="rtu_8h.html#ac0ca767b3e1e9a8b1f290448a122e095" target="_top" xlink:title=" ">
<polygon fill="white" stroke="#666666" points="441.75,-82 311,-82 311,-50 441.75,-50 441.75,-82"/>
<text text-anchor="start" x="319" y="-68.5" font-family="Helvetica,sans-Serif" font-size="10.00">zrtos_vfs_module_modbus</text>
<text text-anchor="middle" x="376.38" y="-56.5" font-family="Helvetica,sans-Serif" font-size="10.00">_rtu__on_write</text>
</a>
</g>
</g>
<!-- Node5&#45;&gt;Node6 -->
<g id="edge5_Node000005_Node000006" class="edge">
<title>Node5&#45;&gt;Node6</title>
<g id="a_edge5_Node000005_Node000006"><a xlink:title=" ">
<path fill="none" stroke="#63b8ff" d="M483.79,-144.74C481.7,-143.58 479.68,-142.34 477.75,-141 455.25,-125.39 463.41,-107.76 441.75,-91 437.58,-87.77 432.94,-84.91 428.12,-82.4"/>
<polygon fill="#63b8ff" stroke="#63b8ff" points="482.06,-147.79 492.59,-148.9 485.04,-141.46 482.06,-147.79"/>
</a>
</g>
</g>
<!-- Node7&#45;&gt;Node6 -->
<g id="edge9_Node000007_Node000006" class="edge">
<title>Node7&#45;&gt;Node6</title>
<g id="a_edge9_Node000007_Node000006"><a xlink:title=" ">
<path fill="none" stroke="#63b8ff" d="M481,-96.48C465.28,-91.85 448.67,-86.97 433.46,-82.49"/>
<polygon fill="#63b8ff" stroke="#63b8ff" points="479.68,-99.74 490.26,-99.2 481.65,-93.02 479.68,-99.74"/>
</a>
</g>
</g>
<!-- Node8 -->
<g id="Node000008" class="node">
<title>Node8</title>
<g id="a_Node000008"><a xlink:href="rtu_8h.html#a223fc39dfd241ff17884c9f5d03f8e78" target="_top" xlink:title=" ">
<polygon fill="white" stroke="#666666" points="441.75,-32 311,-32 311,0 441.75,0 441.75,-32"/>
<text text-anchor="start" x="319" y="-18.5" font-family="Helvetica,sans-Serif" font-size="10.00">zrtos_vfs_module_modbus</text>
<text text-anchor="middle" x="376.38" y="-6.5" font-family="Helvetica,sans-Serif" font-size="10.00">_rtu__on_recv_timeout</text>
</a>
</g>
</g>
<!-- Node7&#45;&gt;Node8 -->
<g id="edge7_Node000007_Node000008" class="edge">
<title>Node7&#45;&gt;Node8</title>
<g id="a_edge7_Node000007_Node000008"><a xlink:title=" ">
<path fill="none" stroke="#63b8ff" d="M481.92,-93.93C480.49,-92.99 479.1,-92.01 477.75,-91 455.88,-74.52 463.41,-57.76 441.75,-41 437.58,-37.77 432.94,-34.91 428.12,-32.4"/>
<polygon fill="#63b8ff" stroke="#63b8ff" points="480.06,-96.9 490.48,-98.85 483.55,-90.83 480.06,-96.9"/>
</a>
</g>
</g>
<!-- Node9 -->
<g id="Node000009" class="node">
<title>Node9</title>
<g id="a_Node000009"><a xlink:href="rtu_8h.html#aac1c0a8f15ec0cd7540f53a61fe9ff08" target="_top" xlink:title=" ">
<polygon fill="white" stroke="#666666" points="275,-32 144.25,-32 144.25,0 275,0 275,-32"/>
<text text-anchor="start" x="152.25" y="-18.5" font-family="Helvetica,sans-Serif" font-size="10.00">zrtos_vfs_module_modbus</text>
<text text-anchor="middle" x="209.62" y="-6.5" font-family="Helvetica,sans-Serif" font-size="10.00">_rtu_args__init</text>
</a>
</g>
</g>
<!-- Node8&#45;&gt;Node9 -->
<g id="edge8_Node000008_Node000009" class="edge">
<title>Node8&#45;&gt;Node9</title>
<g id="a_edge8_Node000008_Node000009"><a xlink:title=" ">
<path fill="none" stroke="#63b8ff" d="M299.44,-16C291.39,-16 283.26,-16 275.35,-16"/>
<polygon fill="#63b8ff" stroke="#63b8ff" points="299.22,-19.5 309.22,-16 299.22,-12.5 299.22,-19.5"/>
</a>
</g>
</g>
<!-- Node11 -->
<g id="Node000011" class="node">
<title>Node11</title>
<g id="a_Node000011"><a xlink:href="avr_2spi_2spi_8h.html#ab6f547c3ce7ee0463c235abe078f9491" target="_top" xlink:title=" ">
<polygon fill="white" stroke="#666666" points="108.25,-377 0,-377 0,-345 108.25,-345 108.25,-377"/>
<text text-anchor="start" x="8" y="-363.5" font-family="Helvetica,sans-Serif" font-size="10.00">zrtos_vfs_module_avr</text>
<text text-anchor="middle" x="54.12" y="-351.5" font-family="Helvetica,sans-Serif" font-size="10.00">_spi__on_write</text>
</a>
</g>
</g>
<!-- Node10&#45;&gt;Node11 -->
<g id="edge11_Node000010_Node000011" class="edge">
<title>Node10&#45;&gt;Node11</title>
<g id="a_edge11_Node000010_Node000011"><a xlink:title=" ">
<path fill="none" stroke="#63b8ff" d="M143.45,-362.73C131.8,-362.5 119.79,-362.26 108.52,-362.04"/>
<polygon fill="#63b8ff" stroke="#63b8ff" points="143.36,-366.23 153.42,-362.92 143.5,-359.23 143.36,-366.23"/>
</a>
</g>
</g>
<!-- Node13 -->
<g id="Node000013" class="node">
<title>Node13</title>
<g id="a_Node000013"><a xlink:href="spi_2spi_8h.html#ab31c12597a3f2932aaf01466ffff59bb" target="_top" xlink:title=" ">
<polygon fill="white" stroke="#666666" points="430.88,-332 321.88,-332 321.88,-300 430.88,-300 430.88,-332"/>
<text text-anchor="start" x="329.88" y="-318.5" font-family="Helvetica,sans-Serif" font-size="10.00">zrtos_vfs_module_spi</text>
<text text-anchor="middle" x="376.38" y="-306.5" font-family="Helvetica,sans-Serif" font-size="10.00">__transfer</text>
</a>
</g>
</g>
<!-- Node12&#45;&gt;Node13 -->
<g id="edge13_Node000012_Node000013" class="edge">
<title>Node12&#45;&gt;Node13</title>
<g id="a_edge13_Node000012_Node000013"><a xlink:title=" ">
<path fill="none" stroke="#63b8ff" d="M482.12,-309.22C465.26,-310.31 447.3,-311.48 431.11,-312.52"/>
<polygon fill="#63b8ff" stroke="#63b8ff" points="482.32,-312.72 492.08,-308.58 481.87,-305.73 482.32,-312.72"/>
</a>
</g>
</g>
<!-- Node14 -->
<g id="Node000014" class="node">
<title>Node14</title>
<g id="a_Node000014"><a xlink:href="avr_2spi_2spi_8h.html#a3a0f3b324bd986778ccde00670dbabc9" target="_top" xlink:title=" ">
<polygon fill="white" stroke="#666666" points="263.75,-330 155.5,-330 155.5,-298 263.75,-298 263.75,-330"/>
<text text-anchor="start" x="163.5" y="-316.5" font-family="Helvetica,sans-Serif" font-size="10.00">zrtos_vfs_module_avr</text>
<text text-anchor="middle" x="209.62" y="-304.5" font-family="Helvetica,sans-Serif" font-size="10.00">_spi__on_interrupt</text>
</a>
</g>
</g>
<!-- Node13&#45;&gt;Node14 -->
<g id="edge14_Node000013_Node000014" class="edge">
<title>Node13&#45;&gt;Node14</title>
<g id="a_edge14_Node000013_Node000014"><a xlink:title=" ">
<path fill="none" stroke="#63b8ff" d="M309.99,-315.21C294.78,-315.02 278.76,-314.83 264.13,-314.65"/>
<polygon fill="#63b8ff" stroke="#63b8ff" points="309.87,-318.71 319.92,-315.33 309.96,-311.71 309.87,-318.71"/>
</a>
</g>
</g>
<!-- Node14&#45;&gt;Node11 -->
<g id="edge16_Node000014_Node000011" class="edge">
<title>Node14&#45;&gt;Node11</title>
<g id="a_edge16_Node000014_Node000011"><a xlink:title=" ">
<path fill="none" stroke="#63b8ff" d="M144.53,-333.63C132.55,-337.29 120.16,-341.09 108.55,-344.64"/>
<polygon fill="#63b8ff" stroke="#63b8ff" points="145.38,-337.02 153.92,-330.75 143.34,-330.33 145.38,-337.02"/>
</a>
</g>
</g>
<!-- Node15 -->
<g id="Node000015" class="node">
<title>Node15</title>
<g id="a_Node000015"><a xlink:href="avr_2spi_2spi_8h.html#a0353f98d744b931e541684fe33b272f7" target="_top" xlink:title=" ">
<polygon fill="white" stroke="#666666" points="70,-324 38.25,-324 38.25,-304 70,-304 70,-324"/>
<text text-anchor="middle" x="54.12" y="-310.5" font-family="Helvetica,sans-Serif" font-size="10.00">ISR</text>
</a>
</g>
</g>
<!-- Node14&#45;&gt;Node15 -->
<g id="edge15_Node000014_Node000015" class="edge">
<title>Node14&#45;&gt;Node15</title>
<g id="a_edge15_Node000014_Node000015"><a xlink:title=" ">
<path fill="none" stroke="#63b8ff" d="M143.93,-314C116.84,-314 87.7,-314 70.46,-314"/>
<polygon fill="#63b8ff" stroke="#63b8ff" points="143.86,-317.5 153.86,-314 143.86,-310.5 143.86,-317.5"/>
</a>
</g>
</g>
<!-- Node17 -->
<g id="Node000017" class="node">
<title>Node17</title>
<g id="a_Node000017"><a xlink:href="uart0_8h.html#a1c08ba1c9bac4dd9a045d06a07dbe0b4" target="_top" xlink:title=" ">
<polygon fill="white" stroke="#666666" points="430.5,-132 322.25,-132 322.25,-100 430.5,-100 430.5,-132"/>
<text text-anchor="start" x="330.25" y="-118.5" font-family="Helvetica,sans-Serif" font-size="10.00">zrtos_vfs_module_avr</text>
<text text-anchor="middle" x="376.38" y="-106.5" font-family="Helvetica,sans-Serif" font-size="10.00">_uart0__on_write</text>
</a>
</g>
</g>
<!-- Node16&#45;&gt;Node17 -->
<g id="edge18_Node000016_Node000017" class="edge">
<title>Node16&#45;&gt;Node17</title>
<g id="a_edge18_Node000016_Node000017"><a xlink:title=" ">
<path fill="none" stroke="#63b8ff" d="M483.5,-182.49C481.53,-181.37 479.6,-180.21 477.75,-179 458.27,-166.28 461.06,-153.97 441.75,-141 437.07,-137.86 431.94,-135.03 426.68,-132.5"/>
<polygon fill="#63b8ff" stroke="#63b8ff" points="481.82,-185.56 492.32,-186.97 484.99,-179.32 481.82,-185.56"/>
</a>
</g>
</g>
<!-- Node18 -->
<g id="Node000018" class="node">
<title>Node18</title>
<g id="a_Node000018"><a xlink:href="uart1_8h.html#af04452122e72ab7408b2e207191cdd33" target="_top" xlink:title=" ">
<polygon fill="white" stroke="#666666" points="430.5,-282 322.25,-282 322.25,-250 430.5,-250 430.5,-282"/>
<text text-anchor="start" x="330.25" y="-268.5" font-family="Helvetica,sans-Serif" font-size="10.00">zrtos_vfs_module_avr</text>
<text text-anchor="middle" x="376.38" y="-256.5" font-family="Helvetica,sans-Serif" font-size="10.00">_uart1__on_write</text>
</a>
</g>
</g>
<!-- Node16&#45;&gt;Node18 -->
<g id="edge19_Node000016_Node000018" class="edge">
<title>Node16&#45;&gt;Node18</title>
<g id="a_edge19_Node000016_Node000018"><a xlink:title=" ">
<path fill="none" stroke="#63b8ff" d="M490.54,-224.36C486.21,-225.93 481.91,-227.49 477.75,-229 459.42,-235.67 439.25,-243.09 421.82,-249.53"/>
<polygon fill="#63b8ff" stroke="#63b8ff" points="491.65,-227.68 499.87,-221 489.27,-221.1 491.65,-227.68"/>
</a>
</g>
</g>
<!-- Node19 -->
<g id="Node000019" class="node">
<title>Node19</title>
<g id="a_Node000019"><a xlink:href="uart2_8h.html#a244148efdde4e736bdcba74328e85415" target="_top" xlink:title=" ">
<polygon fill="white" stroke="#666666" points="430.5,-232 322.25,-232 322.25,-200 430.5,-200 430.5,-232"/>
<text text-anchor="start" x="330.25" y="-218.5" font-family="Helvetica,sans-Serif" font-size="10.00">zrtos_vfs_module_avr</text>
<text text-anchor="middle" x="376.38" y="-206.5" font-family="Helvetica,sans-Serif" font-size="10.00">_uart2__on_write</text>
</a>
</g>
</g>
<!-- Node16&#45;&gt;Node19 -->
<g id="edge20_Node000016_Node000019" class="edge">
<title>Node16&#45;&gt;Node19</title>
<g id="a_edge20_Node000016_Node000019"><a xlink:title=" ">
<path fill="none" stroke="#63b8ff" d="M480.49,-208.72C464.02,-209.88 446.59,-211.11 430.85,-212.23"/>
<polygon fill="#63b8ff" stroke="#63b8ff" points="480.47,-212.23 490.2,-208.04 479.98,-205.25 480.47,-212.23"/>
</a>
</g>
</g>
<!-- Node20 -->
<g id="Node000020" class="node">
<title>Node20</title>
<g id="a_Node000020"><a xlink:href="uart3_8h.html#a0ac21cf2483f89180a91b9ca480eb7b8" target="_top" xlink:title=" ">
<polygon fill="white" stroke="#666666" points="430.5,-182 322.25,-182 322.25,-150 430.5,-150 430.5,-182"/>
<text text-anchor="start" x="330.25" y="-168.5" font-family="Helvetica,sans-Serif" font-size="10.00">zrtos_vfs_module_avr</text>
<text text-anchor="middle" x="376.38" y="-156.5" font-family="Helvetica,sans-Serif" font-size="10.00">_uart3__on_write</text>
</a>
</g>
</g>
<!-- Node16&#45;&gt;Node20 -->
<g id="edge21_Node000016_Node000020" class="edge">
<title>Node16&#45;&gt;Node20</title>
<g id="a_edge21_Node000016_Node000020"><a xlink:title=" ">
<path fill="none" stroke="#63b8ff" d="M480.49,-189.05C464.02,-185.37 446.59,-181.47 430.85,-177.95"/>
<polygon fill="#63b8ff" stroke="#63b8ff" points="479.71,-192.46 490.23,-191.23 481.24,-185.63 479.71,-192.46"/>
</a>
</g>
</g>
<!-- Node21&#45;&gt;Node6 -->
<g id="edge24_Node000021_Node000006" class="edge">
<title>Node21&#45;&gt;Node6</title>
<g id="a_edge24_Node000021_Node000006"><a xlink:title=" ">
<path fill="none" stroke="#63b8ff" d="M481,-35.52C465.28,-40.15 448.67,-45.03 433.46,-49.51"/>
<polygon fill="#63b8ff" stroke="#63b8ff" points="481.65,-38.98 490.26,-32.8 479.68,-32.26 481.65,-38.98"/>
</a>
</g>
</g>
<!-- Node21&#45;&gt;Node8 -->
<g id="edge23_Node000021_Node000008" class="edge">
<title>Node21&#45;&gt;Node8</title>
<g id="a_edge23_Node000021_Node000008"><a xlink:title=" ">
<path fill="none" stroke="#63b8ff" d="M467.96,-16C459.35,-16 450.65,-16 442.24,-16"/>
<polygon fill="#63b8ff" stroke="#63b8ff" points="467.7,-19.5 477.7,-16 467.7,-12.5 467.7,-19.5"/>
</a>
</g>
</g>
<!-- Node22&#45;&gt;Node3 -->
<g id="edge26_Node000022_Node000003" class="edge">
<title>Node22&#45;&gt;Node3</title>
<g id="a_edge26_Node000022_Node000003"><a xlink:title=" ">
<path fill="none" stroke="#63b8ff" d="M802.46,-149.36C781.38,-156.93 758.34,-165.21 740.73,-171.54"/>
<polygon fill="#63b8ff" stroke="#63b8ff" points="803.61,-152.67 811.84,-145.99 801.24,-146.08 803.61,-152.67"/>
</a>
</g>
</g>
<!-- Node23 -->
<g id="Node000023" class="node">
<title>Node23</title>
<g id="a_Node000023"><a xlink:href="msg__queue_8h.html#a8d4b5575ad52b762ce101a31c5a29768" target="_top" xlink:title=" ">
<polygon fill="white" stroke="#666666" points="610,-82 486.75,-82 486.75,-50 610,-50 610,-82"/>
<text text-anchor="start" x="494.75" y="-68.5" font-family="Helvetica,sans-Serif" font-size="10.00">zrtos_msg_queue__start</text>
<text text-anchor="middle" x="548.38" y="-56.5" font-family="Helvetica,sans-Serif" font-size="10.00">_write_transaction</text>
</a>
</g>
</g>
<!-- Node22&#45;&gt;Node23 -->
<g id="edge27_Node000022_Node000023" class="edge">
<title>Node22&#45;&gt;Node23</title>
<g id="a_edge27_Node000022_Node000023"><a xlink:title=" ">
<path fill="none" stroke="#63b8ff" d="M797.81,-116.53C743.47,-105.48 664.56,-89.43 610.33,-78.4"/>
<polygon fill="#63b8ff" stroke="#63b8ff" points="797.03,-119.94 807.53,-118.51 798.43,-113.08 797.03,-119.94"/>
</a>
</g>
</g>
<!-- Node23&#45;&gt;Node6 -->
<g id="edge29_Node000023_Node000006" class="edge">
<title>Node23&#45;&gt;Node6</title>
<g id="a_edge29_Node000023_Node000006"><a xlink:title=" ">
<path fill="none" stroke="#63b8ff" d="M475.19,-66C464.22,-66 452.95,-66 442.15,-66"/>
<polygon fill="#63b8ff" stroke="#63b8ff" points="474.97,-69.5 484.97,-66 474.97,-62.5 474.97,-69.5"/>
</a>
</g>
</g>
<!-- Node23&#45;&gt;Node8 -->
<g id="edge28_Node000023_Node000008" class="edge">
<title>Node23&#45;&gt;Node8</title>
<g id="a_edge28_Node000023_Node000008"><a xlink:title=" ">
<path fill="none" stroke="#63b8ff" d="M481,-46.48C465.28,-41.85 448.67,-36.97 433.46,-32.49"/>
<polygon fill="#63b8ff" stroke="#63b8ff" points="479.68,-49.74 490.26,-49.2 481.65,-43.02 479.68,-49.74"/>
</a>
</g>
</g>
</g>
</svg>
