<?xml version="1.0" encoding="UTF-8" standalone="no"?>
<!DOCTYPE svg PUBLIC "-//W3C//DTD SVG 1.1//EN"
 "http://www.w3.org/Graphics/SVG/1.1/DTD/svg11.dtd">
<!-- Generated by graphviz version 10.0.1 (20240210.2158)
 -->
<!-- Title: zrtos_cbuffer__put Pages: 1 -->
<svg width="861pt" height="168pt"
 viewBox="0.00 0.00 860.75 168.00" xmlns="http://www.w3.org/2000/svg" xmlns:xlink="http://www.w3.org/1999/xlink">
<g id="graph0" class="graph" transform="scale(1 1) rotate(0) translate(4 164)">
<title>zrtos_cbuffer__put</title>
<!-- Node1 -->
<g id="Node000001" class="node">
<title>Node1</title>
<g id="a_Node000001"><a xlink:title=" ">
<polygon fill="#999999" stroke="#666666" points="95.5,-32 0,-32 0,-12 95.5,-12 95.5,-32"/>
<text text-anchor="middle" x="47.75" y="-18.5" font-family="Helvetica,sans-Serif" font-size="10.00">zrtos_cbuffer__put</text>
</a>
</g>
</g>
<!-- Node2 -->
<g id="Node000002" class="node">
<title>Node2</title>
<g id="a_Node000002"><a xlink:href="cbuffer_8h.html#a1846e554cfe5e72cc8df6b60ab5c6d84" target="_top" xlink:title=" ">
<polygon fill="white" stroke="#666666" points="253.25,-79 131.5,-79 131.5,-59 253.25,-59 253.25,-79"/>
<text text-anchor="middle" x="192.38" y="-65.5" font-family="Helvetica,sans-Serif" font-size="10.00">zrtos_cbuffer_node__put</text>
</a>
</g>
</g>
<!-- Node1&#45;&gt;Node2 -->
<g id="edge1_Node000001_Node000002" class="edge">
<title>Node1&#45;&gt;Node2</title>
<g id="a_edge1_Node000001_Node000002"><a xlink:title=" ">
<path fill="none" stroke="#63b8ff" d="M80.4,-32.43C100.62,-39.09 127.08,-47.81 149.09,-55.06"/>
<polygon fill="#63b8ff" stroke="#63b8ff" points="147.78,-58.32 158.37,-58.12 149.97,-51.67 147.78,-58.32"/>
</a>
</g>
</g>
<!-- Node8 -->
<g id="Node000008" class="node">
<title>Node8</title>
<g id="a_Node000008"><a xlink:href="list_8h.html#aa2f26b2b6fd722b708eb7e25cc264a90" target="_top" xlink:title=" ">
<polygon fill="white" stroke="#666666" points="852.75,-57 725.75,-57 725.75,-37 852.75,-37 852.75,-57"/>
<text text-anchor="middle" x="789.25" y="-43.5" font-family="Helvetica,sans-Serif" font-size="10.00">zrtos_list__get_last_node</text>
</a>
</g>
</g>
<!-- Node1&#45;&gt;Node8 -->
<g id="edge11_Node000001_Node000008" class="edge">
<title>Node1&#45;&gt;Node8</title>
<g id="a_edge11_Node000001_Node000008"><a xlink:title=" ">
<path fill="none" stroke="#63b8ff" d="M95.79,-16.45C155.17,-9.93 260.51,0 351,0 351,0 351,0 500.62,0 585.06,0 681.63,-19.97 738.64,-33.88"/>
<polygon fill="#63b8ff" stroke="#63b8ff" points="737.48,-37.2 748.03,-36.2 739.17,-30.4 737.48,-37.2"/>
</a>
</g>
</g>
<!-- Node2&#45;&gt;Node2 -->
<g id="edge10_Node000002_Node000002" class="edge">
<title>Node2&#45;&gt;Node2</title>
<g id="a_edge10_Node000002_Node000002"><a xlink:title=" ">
<path fill="none" stroke="#63b8ff" d="M169.4,-79.34C159.58,-87.98 167.24,-97 192.38,-97 206.12,-97 214.64,-94.3 217.94,-90.44"/>
<polygon fill="#63b8ff" stroke="#63b8ff" points="221.37,-89.76 215.7,-80.81 214.55,-91.35 221.37,-89.76"/>
</a>
</g>
</g>
<!-- Node3 -->
<g id="Node000003" class="node">
<title>Node3</title>
<g id="a_Node000003"><a xlink:href="cbuffer_8h.html#a0f069b28d310b9b6586aeb37ec2fb1f3" target="_top" xlink:title=" ">
<polygon fill="white" stroke="#666666" points="400.88,-144 303.12,-144 303.12,-112 400.88,-112 400.88,-144"/>
<text text-anchor="start" x="311.12" y="-130.5" font-family="Helvetica,sans-Serif" font-size="10.00">zrtos_cbuffer_node</text>
<text text-anchor="middle" x="352" y="-118.5" font-family="Helvetica,sans-Serif" font-size="10.00">__get_free_space</text>
</a>
</g>
</g>
<!-- Node2&#45;&gt;Node3 -->
<g id="edge2_Node000002_Node000003" class="edge">
<title>Node2&#45;&gt;Node3</title>
<g id="a_edge2_Node000002_Node000003"><a xlink:title=" ">
<path fill="none" stroke="#63b8ff" d="M221.19,-79.41C241.99,-87.2 271.1,-98.09 296.49,-107.6"/>
<polygon fill="#63b8ff" stroke="#63b8ff" points="295.09,-110.81 305.68,-111.04 297.55,-104.25 295.09,-110.81"/>
</a>
</g>
</g>
<!-- Node5 -->
<g id="Node000005" class="node">
<title>Node5</title>
<g id="a_Node000005"><a xlink:href="cbuffer_8h.html#a1749e471b67565254c5dc85e0cb728a1" target="_top" xlink:title=" ">
<polygon fill="white" stroke="#666666" points="414.75,-79 289.25,-79 289.25,-59 414.75,-59 414.75,-79"/>
<text text-anchor="middle" x="352" y="-65.5" font-family="Helvetica,sans-Serif" font-size="10.00">zrtos_cbuffer_node__new</text>
</a>
</g>
</g>
<!-- Node2&#45;&gt;Node5 -->
<g id="edge4_Node000002_Node000005" class="edge">
<title>Node2&#45;&gt;Node5</title>
<g id="a_edge4_Node000002_Node000005"><a xlink:title=" ">
<path fill="none" stroke="#63b8ff" d="M253.42,-69C261.28,-69 269.41,-69 277.47,-69"/>
<polygon fill="#63b8ff" stroke="#63b8ff" points="277.26,-72.5 287.26,-69 277.26,-65.5 277.26,-72.5"/>
</a>
</g>
</g>
<!-- Node4 -->
<g id="Node000004" class="node">
<title>Node4</title>
<g id="a_Node000004"><a xlink:href="cbuffer_8h.html#a640a4e58217d5c24d6e795f0fca19440" target="_top" xlink:title=" ">
<polygon fill="white" stroke="#666666" points="548.5,-160 450.75,-160 450.75,-128 548.5,-128 548.5,-160"/>
<text text-anchor="start" x="458.75" y="-146.5" font-family="Helvetica,sans-Serif" font-size="10.00">zrtos_cbuffer_node</text>
<text text-anchor="middle" x="499.62" y="-134.5" font-family="Helvetica,sans-Serif" font-size="10.00">__get_length</text>
</a>
</g>
</g>
<!-- Node3&#45;&gt;Node4 -->
<g id="edge3_Node000003_Node000004" class="edge">
<title>Node3&#45;&gt;Node4</title>
<g id="a_edge3_Node000003_Node000004"><a xlink:title=" ">
<path fill="none" stroke="#63b8ff" d="M401.09,-133.28C413.27,-134.62 426.49,-136.07 439.16,-137.47"/>
<polygon fill="#63b8ff" stroke="#63b8ff" points="438.76,-140.94 449.08,-138.56 439.53,-133.99 438.76,-140.94"/>
</a>
</g>
</g>
<!-- Node6 -->
<g id="Node000006" class="node">
<title>Node6</title>
<g id="a_Node000006"><a xlink:href="cbuffer_8h.html#aeb332726de06c905eb2db32ae3d323eb" target="_top" xlink:title=" ">
<polygon fill="white" stroke="#666666" points="548.5,-110 450.75,-110 450.75,-78 548.5,-78 548.5,-110"/>
<text text-anchor="start" x="458.75" y="-96.5" font-family="Helvetica,sans-Serif" font-size="10.00">zrtos_cbuffer_node</text>
<text text-anchor="middle" x="499.62" y="-84.5" font-family="Helvetica,sans-Serif" font-size="10.00">__init</text>
</a>
</g>
</g>
<!-- Node5&#45;&gt;Node6 -->
<g id="edge5_Node000005_Node000006" class="edge">
<title>Node5&#45;&gt;Node6</title>
<g id="a_edge5_Node000005_Node000006"><a xlink:title=" ">
<path fill="none" stroke="#63b8ff" d="M413.91,-79.46C422.27,-80.89 430.85,-82.36 439.18,-83.79"/>
<polygon fill="#63b8ff" stroke="#63b8ff" points="438.41,-87.21 448.86,-85.46 439.59,-80.31 438.41,-87.21"/>
</a>
</g>
</g>
<!-- Node10 -->
<g id="Node000010" class="node">
<title>Node10</title>
<g id="a_Node000010"><a xlink:href="malloc__limit_8h.html#a219ea8916b582afe8c2120d09abf8656" target="_top" xlink:title=" ">
<polygon fill="white" stroke="#666666" points="547,-60 452.25,-60 452.25,-28 547,-28 547,-60"/>
<text text-anchor="start" x="460.25" y="-46.5" font-family="Helvetica,sans-Serif" font-size="10.00">zrtos_malloc_limit</text>
<text text-anchor="middle" x="499.62" y="-34.5" font-family="Helvetica,sans-Serif" font-size="10.00">__malloc</text>
</a>
</g>
</g>
<!-- Node5&#45;&gt;Node10 -->
<g id="edge9_Node000005_Node000010" class="edge">
<title>Node5&#45;&gt;Node10</title>
<g id="a_edge9_Node000005_Node000010"><a xlink:title=" ">
<path fill="none" stroke="#63b8ff" d="M413.91,-58.54C422.9,-57 432.14,-55.41 441.05,-53.88"/>
<polygon fill="#63b8ff" stroke="#63b8ff" points="441.38,-57.38 450.64,-52.24 440.2,-50.48 441.38,-57.38"/>
</a>
</g>
</g>
<!-- Node7 -->
<g id="Node000007" class="node">
<title>Node7</title>
<g id="a_Node000007"><a xlink:href="list_8h.html#aa734984fb49603438b179f49fff38477" target="_top" xlink:title=" ">
<polygon fill="white" stroke="#666666" points="680.75,-104 593.5,-104 593.5,-84 680.75,-84 680.75,-104"/>
<text text-anchor="middle" x="637.12" y="-90.5" font-family="Helvetica,sans-Serif" font-size="10.00">zrtos_list__push</text>
</a>
</g>
</g>
<!-- Node6&#45;&gt;Node7 -->
<g id="edge6_Node000006_Node000007" class="edge">
<title>Node6&#45;&gt;Node7</title>
<g id="a_edge6_Node000006_Node000007"><a xlink:title=" ">
<path fill="none" stroke="#63b8ff" d="M548.78,-94C559.51,-94 570.95,-94 581.9,-94"/>
<polygon fill="#63b8ff" stroke="#63b8ff" points="581.57,-97.5 591.57,-94 581.57,-90.5 581.57,-97.5"/>
</a>
</g>
</g>
<!-- Node9 -->
<g id="Node000009" class="node">
<title>Node9</title>
<g id="a_Node000009"><a xlink:href="list_8h.html#a40feeb4cd0cc4e30201a279240b52429" target="_top" xlink:title=" ">
<polygon fill="white" stroke="#666666" points="689.75,-66 584.5,-66 584.5,-46 689.75,-46 689.75,-66"/>
<text text-anchor="middle" x="637.12" y="-52.5" font-family="Helvetica,sans-Serif" font-size="10.00">zrtos_list_node__init</text>
</a>
</g>
</g>
<!-- Node6&#45;&gt;Node9 -->
<g id="edge8_Node000006_Node000009" class="edge">
<title>Node6&#45;&gt;Node9</title>
<g id="a_edge8_Node000006_Node000009"><a xlink:title=" ">
<path fill="none" stroke="#63b8ff" d="M548.78,-80.5C561.49,-76.93 575.2,-73.09 587.91,-69.52"/>
<polygon fill="#63b8ff" stroke="#63b8ff" points="588.63,-72.95 597.32,-66.88 586.74,-66.21 588.63,-72.95"/>
</a>
</g>
</g>
<!-- Node7&#45;&gt;Node8 -->
<g id="edge7_Node000007_Node000008" class="edge">
<title>Node7&#45;&gt;Node8</title>
<g id="a_edge7_Node000007_Node000008"><a xlink:title=" ">
<path fill="none" stroke="#63b8ff" d="M671.44,-83.57C692.75,-76.9 720.63,-68.17 743.81,-60.91"/>
<polygon fill="#63b8ff" stroke="#63b8ff" points="744.82,-64.26 753.32,-57.94 742.73,-57.58 744.82,-64.26"/>
</a>
</g>
</g>
</g>
</svg>
