<?xml version="1.0" encoding="UTF-8" standalone="no"?>
<!DOCTYPE svg PUBLIC "-//W3C//DTD SVG 1.1//EN"
 "http://www.w3.org/Graphics/SVG/1.1/DTD/svg11.dtd">
<!-- Generated by graphviz version 2.40.1 (20161225.0304)
 -->
<!-- Title: zrtos_cbuffer__get_ex Pages: 1 -->
<svg width="1029pt" height="166pt"
 viewBox="0.00 0.00 1029.00 165.50" xmlns="http://www.w3.org/2000/svg" xmlns:xlink="http://www.w3.org/1999/xlink">
<g id="graph0" class="graph" transform="scale(1 1) rotate(0) translate(4 161.5)">
<title>zrtos_cbuffer__get_ex</title>
<polygon fill="#ffffff" stroke="transparent" points="-4,4 -4,-161.5 1025,-161.5 1025,4 -4,4"/>
<!-- Node117 -->
<g id="node1" class="node">
<title>Node117</title>
<polygon fill="#bfbfbf" stroke="#000000" points="0,-92 0,-111 113,-111 113,-92 0,-92"/>
<text text-anchor="middle" x="56.5" y="-99" font-family="Helvetica,sans-Serif" font-size="10.00" fill="#000000">zrtos_cbuffer__get_ex</text>
</g>
<!-- Node118 -->
<g id="node2" class="node">
<title>Node118</title>
<g id="a_node2"><a xlink:href="cbuffer_8h.html#a1a9cc4256c634d99003e2397924df20a" target="_top" xlink:title="zrtos_cbuffer__get">
<polygon fill="#ffffff" stroke="#000000" points="154,-114 154,-133 252,-133 252,-114 154,-114"/>
<text text-anchor="middle" x="203" y="-121" font-family="Helvetica,sans-Serif" font-size="10.00" fill="#000000">zrtos_cbuffer__get</text>
</a>
</g>
</g>
<!-- Node117&#45;&gt;Node118 -->
<g id="edge1" class="edge">
<title>Node117&#45;&gt;Node118</title>
<path fill="none" stroke="#191970" d="M113.1407,-110.0058C123.1652,-111.5112 133.6277,-113.0823 143.7226,-114.5983"/>
<polygon fill="#191970" stroke="#191970" points="143.2561,-118.0674 153.665,-116.0913 144.2957,-111.145 143.2561,-118.0674"/>
</g>
<!-- Node128 -->
<g id="node12" class="node">
<title>Node128</title>
<g id="a_node12"><a xlink:href="types_8h.html#adbc4238237e656eb247fd49ffbfb1a6d" target="_top" xlink:title="zrtos_types__ptr_get\l_byte_distance">
<polygon fill="#ffffff" stroke="#000000" points="149,-64.5 149,-94.5 257,-94.5 257,-64.5 149,-64.5"/>
<text text-anchor="start" x="157" y="-82.5" font-family="Helvetica,sans-Serif" font-size="10.00" fill="#000000">zrtos_types__ptr_get</text>
<text text-anchor="middle" x="203" y="-71.5" font-family="Helvetica,sans-Serif" font-size="10.00" fill="#000000">_byte_distance</text>
</a>
</g>
</g>
<!-- Node117&#45;&gt;Node128 -->
<g id="edge13" class="edge">
<title>Node117&#45;&gt;Node128</title>
<path fill="none" stroke="#191970" d="M113.1407,-92.9942C121.5901,-91.7254 130.3506,-90.4098 138.9399,-89.1199"/>
<polygon fill="#191970" stroke="#191970" points="139.5461,-92.5682 148.9154,-87.6219 138.5065,-85.6459 139.5461,-92.5682"/>
</g>
<!-- Node119 -->
<g id="node3" class="node">
<title>Node119</title>
<g id="a_node3"><a xlink:href="list_8h.html#a5a9358f4b25c9376dbdef338fa8333a6" target="_top" xlink:title="zrtos_list__get_first_node">
<polygon fill="#ffffff" stroke="#000000" points="893,-99 893,-118 1021,-118 1021,-99 893,-99"/>
<text text-anchor="middle" x="957" y="-106" font-family="Helvetica,sans-Serif" font-size="10.00" fill="#000000">zrtos_list__get_first_node</text>
</a>
</g>
</g>
<!-- Node118&#45;&gt;Node119 -->
<g id="edge2" class="edge">
<title>Node118&#45;&gt;Node119</title>
<path fill="none" stroke="#191970" d="M252.1235,-132.3887C312.1577,-142.4626 416.9387,-157.5 507.5,-157.5 507.5,-157.5 507.5,-157.5 645.5,-157.5 740.4631,-157.5 849.7542,-135.0022 910.3549,-120.4956"/>
<polygon fill="#191970" stroke="#191970" points="911.4792,-123.8244 920.3713,-118.064 909.8279,-117.0219 911.4792,-123.8244"/>
</g>
<!-- Node120 -->
<g id="node4" class="node">
<title>Node120</title>
<g id="a_node4"><a xlink:href="cbuffer_8h.html#ad0932ffc31c7150402dc49c28cbf2000" target="_top" xlink:title="zrtos_cbuffer_node__get">
<polygon fill="#ffffff" stroke="#000000" points="293,-80 293,-99 417,-99 417,-80 293,-80"/>
<text text-anchor="middle" x="355" y="-87" font-family="Helvetica,sans-Serif" font-size="10.00" fill="#000000">zrtos_cbuffer_node__get</text>
</a>
</g>
</g>
<!-- Node118&#45;&gt;Node120 -->
<g id="edge3" class="edge">
<title>Node118&#45;&gt;Node120</title>
<path fill="none" stroke="#191970" d="M245.745,-113.9386C263.3852,-109.9928 284.0028,-105.381 302.5455,-101.2332"/>
<polygon fill="#191970" stroke="#191970" points="303.318,-104.647 312.3128,-99.0485 301.7899,-97.8158 303.318,-104.647"/>
</g>
<!-- Node121 -->
<g id="node5" class="node">
<title>Node121</title>
<g id="a_node5"><a xlink:href="cbuffer_8h.html#aa70b33844c0b38a531615564dc35840e" target="_top" xlink:title="zrtos_cbuffer_node\l__is_empty">
<polygon fill="#ffffff" stroke="#000000" points="457.5,-98.5 457.5,-128.5 557.5,-128.5 557.5,-98.5 457.5,-98.5"/>
<text text-anchor="start" x="465.5" y="-116.5" font-family="Helvetica,sans-Serif" font-size="10.00" fill="#000000">zrtos_cbuffer_node</text>
<text text-anchor="middle" x="507.5" y="-105.5" font-family="Helvetica,sans-Serif" font-size="10.00" fill="#000000">__is_empty</text>
</a>
</g>
</g>
<!-- Node120&#45;&gt;Node121 -->
<g id="edge4" class="edge">
<title>Node120&#45;&gt;Node121</title>
<path fill="none" stroke="#191970" d="M415.7102,-99.0544C426.0513,-100.6819 436.7907,-102.372 447.1232,-103.9981"/>
<polygon fill="#191970" stroke="#191970" points="446.8676,-107.5009 457.2902,-105.5981 447.9559,-100.586 446.8676,-107.5009"/>
</g>
<!-- Node122 -->
<g id="node6" class="node">
<title>Node122</title>
<g id="a_node6"><a xlink:href="list_8h.html#a7262d2a0c144ef76b0f45193cebb8227" target="_top" xlink:title="zrtos_list_node__has\l_next_node">
<polygon fill="#ffffff" stroke="#000000" points="453,-49.5 453,-79.5 562,-79.5 562,-49.5 453,-49.5"/>
<text text-anchor="start" x="461" y="-67.5" font-family="Helvetica,sans-Serif" font-size="10.00" fill="#000000">zrtos_list_node__has</text>
<text text-anchor="middle" x="507.5" y="-56.5" font-family="Helvetica,sans-Serif" font-size="10.00" fill="#000000">_next_node</text>
</a>
</g>
</g>
<!-- Node120&#45;&gt;Node122 -->
<g id="edge5" class="edge">
<title>Node120&#45;&gt;Node122</title>
<path fill="none" stroke="#191970" d="M413.0887,-79.9773C422.7094,-78.4001 432.7397,-76.7558 442.5172,-75.1529"/>
<polygon fill="#191970" stroke="#191970" points="443.2851,-78.5738 452.5871,-73.5021 442.1526,-71.6661 443.2851,-78.5738"/>
</g>
<!-- Node123 -->
<g id="node7" class="node">
<title>Node123</title>
<g id="a_node7"><a xlink:href="cbuffer_8h.html#afc85ab6d8226b4a1b93d11c2ba1203f6" target="_top" xlink:title="zrtos_cbuffer_node\l__free">
<polygon fill="#ffffff" stroke="#000000" points="457.5,-.5 457.5,-30.5 557.5,-30.5 557.5,-.5 457.5,-.5"/>
<text text-anchor="start" x="465.5" y="-18.5" font-family="Helvetica,sans-Serif" font-size="10.00" fill="#000000">zrtos_cbuffer_node</text>
<text text-anchor="middle" x="507.5" y="-7.5" font-family="Helvetica,sans-Serif" font-size="10.00" fill="#000000">__free</text>
</a>
</g>
</g>
<!-- Node120&#45;&gt;Node123 -->
<g id="edge6" class="edge">
<title>Node120&#45;&gt;Node123</title>
<path fill="none" stroke="#191970" d="M373.6953,-79.9185C393.3475,-69.9016 425.2101,-53.8167 453,-40.5 456.8548,-38.6528 460.8752,-36.755 464.9088,-34.8703"/>
<polygon fill="#191970" stroke="#191970" points="466.6743,-37.9096 474.2731,-30.5266 463.7287,-31.5596 466.6743,-37.9096"/>
</g>
<!-- Node124 -->
<g id="node8" class="node">
<title>Node124</title>
<g id="a_node8"><a xlink:href="list_8h.html#a2b11d9c6f775a209430f16b719a19617" target="_top" xlink:title="zrtos_list__delete">
<polygon fill="#ffffff" stroke="#000000" points="599,-61 599,-80 692,-80 692,-61 599,-61"/>
<text text-anchor="middle" x="645.5" y="-68" font-family="Helvetica,sans-Serif" font-size="10.00" fill="#000000">zrtos_list__delete</text>
</a>
</g>
</g>
<!-- Node123&#45;&gt;Node124 -->
<g id="edge7" class="edge">
<title>Node123&#45;&gt;Node124</title>
<path fill="none" stroke="#191970" d="M545.2091,-30.529C566.0577,-38.8382 591.7418,-49.0746 611.8986,-57.1081"/>
<polygon fill="#191970" stroke="#191970" points="610.7191,-60.4057 621.3043,-60.8568 613.3107,-53.9031 610.7191,-60.4057"/>
</g>
<!-- Node126 -->
<g id="node10" class="node">
<title>Node126</title>
<g id="a_node10"><a xlink:href="malloc__limit_8h.html#ad9dc03f9dd447b3ffb64b0ec3873f61f" target="_top" xlink:title="zrtos_malloc_limit\l__free">
<polygon fill="#ffffff" stroke="#000000" points="598,-.5 598,-30.5 693,-30.5 693,-.5 598,-.5"/>
<text text-anchor="start" x="606" y="-18.5" font-family="Helvetica,sans-Serif" font-size="10.00" fill="#000000">zrtos_malloc_limit</text>
<text text-anchor="middle" x="645.5" y="-7.5" font-family="Helvetica,sans-Serif" font-size="10.00" fill="#000000">__free</text>
</a>
</g>
</g>
<!-- Node123&#45;&gt;Node126 -->
<g id="edge11" class="edge">
<title>Node123&#45;&gt;Node126</title>
<path fill="none" stroke="#191970" d="M557.7115,-15.5C567.4351,-15.5 577.6974,-15.5 587.6426,-15.5"/>
<polygon fill="#191970" stroke="#191970" points="587.8558,-19.0001 597.8558,-15.5 587.8557,-12.0001 587.8558,-19.0001"/>
</g>
<!-- Node124&#45;&gt;Node119 -->
<g id="edge8" class="edge">
<title>Node124&#45;&gt;Node119</title>
<path fill="none" stroke="#191970" d="M682.2799,-80.0428C696.7539,-83.4891 713.573,-87.1141 729,-89.5 779.984,-97.3849 837.9233,-102.1597 882.6365,-104.9506"/>
<polygon fill="#191970" stroke="#191970" points="882.642,-108.4572 892.835,-105.5672 883.0645,-101.47 882.642,-108.4572"/>
</g>
<!-- Node125 -->
<g id="node9" class="node">
<title>Node125</title>
<g id="a_node9"><a xlink:href="list_8h.html#aee76d71632ab03e18ad9358fc8b35044" target="_top" xlink:title="zrtos_list__shift">
<polygon fill="#ffffff" stroke="#000000" points="750,-61 750,-80 836,-80 836,-61 750,-61"/>
<text text-anchor="middle" x="793" y="-68" font-family="Helvetica,sans-Serif" font-size="10.00" fill="#000000">zrtos_list__shift</text>
</a>
</g>
</g>
<!-- Node124&#45;&gt;Node125 -->
<g id="edge9" class="edge">
<title>Node124&#45;&gt;Node125</title>
<path fill="none" stroke="#191970" d="M692.1699,-70.5C707.1193,-70.5 723.7926,-70.5 739.2079,-70.5"/>
<polygon fill="#191970" stroke="#191970" points="739.6424,-74.0001 749.6424,-70.5 739.6423,-67.0001 739.6424,-74.0001"/>
</g>
<!-- Node125&#45;&gt;Node119 -->
<g id="edge10" class="edge">
<title>Node125&#45;&gt;Node119</title>
<path fill="none" stroke="#191970" d="M834.3841,-80.089C856.1232,-85.1261 882.9575,-91.3438 905.9747,-96.6771"/>
<polygon fill="#191970" stroke="#191970" points="905.3815,-100.1323 915.9135,-98.9799 906.9616,-93.3129 905.3815,-100.1323"/>
</g>
<!-- Node127 -->
<g id="node11" class="node">
<title>Node127</title>
<g id="a_node11"><a xlink:href="malloc_8h.html#aeba49dabb0a21ae4e02fa137e195bb1d" target="_top" xlink:title="zrtos_malloc__get_length">
<polygon fill="#ffffff" stroke="#000000" points="729,-6 729,-25 857,-25 857,-6 729,-6"/>
<text text-anchor="middle" x="793" y="-13" font-family="Helvetica,sans-Serif" font-size="10.00" fill="#000000">zrtos_malloc__get_length</text>
</a>
</g>
</g>
<!-- Node126&#45;&gt;Node127 -->
<g id="edge12" class="edge">
<title>Node126&#45;&gt;Node127</title>
<path fill="none" stroke="#191970" d="M693.389,-15.5C701.5512,-15.5 710.1973,-15.5 718.8507,-15.5"/>
<polygon fill="#191970" stroke="#191970" points="718.9839,-19.0001 728.9839,-15.5 718.9838,-12.0001 718.9839,-19.0001"/>
</g>
</g>
</svg>
