<?xml version="1.0" encoding="UTF-8" standalone="no"?>
<!DOCTYPE svg PUBLIC "-//W3C//DTD SVG 1.1//EN"
 "http://www.w3.org/Graphics/SVG/1.1/DTD/svg11.dtd">
<!-- Generated by graphviz version 10.0.1 (20240210.2158)
 -->
<!-- Title: zrtos_cbuffer_node__put Pages: 1 -->
<svg width="729pt" height="66pt"
 viewBox="0.00 0.00 729.25 66.00" xmlns="http://www.w3.org/2000/svg" xmlns:xlink="http://www.w3.org/1999/xlink">
<g id="graph0" class="graph" transform="scale(1 1) rotate(0) translate(4 62)">
<title>zrtos_cbuffer_node__put</title>
<!-- Node1 -->
<g id="Node000001" class="node">
<title>Node1</title>
<g id="a_Node000001"><a xlink:title=" ">
<polygon fill="#999999" stroke="#666666" points="121.75,-39 0,-39 0,-19 121.75,-19 121.75,-39"/>
<text text-anchor="middle" x="60.88" y="-25.5" font-family="Helvetica,sans-Serif" font-size="10.00">zrtos_cbuffer_node__put</text>
</a>
</g>
</g>
<!-- Node1&#45;&gt;Node1 -->
<g id="edge6_Node000001_Node000001" class="edge">
<title>Node1&#45;&gt;Node1</title>
<g id="a_edge6_Node000001_Node000001"><a xlink:title=" ">
<path fill="none" stroke="#63b8ff" d="M35.51,-39.34C24.67,-47.98 33.13,-57 60.88,-57 76.05,-57 85.45,-54.3 89.09,-50.44"/>
<polygon fill="#63b8ff" stroke="#63b8ff" points="92.49,-49.62 86.61,-40.8 85.71,-51.36 92.49,-49.62"/>
</a>
</g>
</g>
<!-- Node2 -->
<g id="Node000002" class="node">
<title>Node2</title>
<g id="a_Node000002"><a xlink:href="cbuffer_8h.html#a1749e471b67565254c5dc85e0cb728a1" target="_top" xlink:title=" ">
<polygon fill="white" stroke="#666666" points="283.25,-39 157.75,-39 157.75,-19 283.25,-19 283.25,-39"/>
<text text-anchor="middle" x="220.5" y="-25.5" font-family="Helvetica,sans-Serif" font-size="10.00">zrtos_cbuffer_node__new</text>
</a>
</g>
</g>
<!-- Node1&#45;&gt;Node2 -->
<g id="edge1_Node000001_Node000002" class="edge">
<title>Node1&#45;&gt;Node2</title>
<g id="a_edge1_Node000001_Node000002"><a xlink:title=" ">
<path fill="none" stroke="#63b8ff" d="M121.92,-29C129.78,-29 137.91,-29 145.97,-29"/>
<polygon fill="#63b8ff" stroke="#63b8ff" points="145.76,-32.5 155.76,-29 145.76,-25.5 145.76,-32.5"/>
</a>
</g>
</g>
<!-- Node3 -->
<g id="Node000003" class="node">
<title>Node3</title>
<g id="a_Node000003"><a xlink:href="cbuffer_8h.html#aeb332726de06c905eb2db32ae3d323eb" target="_top" xlink:title=" ">
<polygon fill="white" stroke="#666666" points="417,-45 319.25,-45 319.25,-13 417,-13 417,-45"/>
<text text-anchor="start" x="327.25" y="-31.5" font-family="Helvetica,sans-Serif" font-size="10.00">zrtos_cbuffer_node</text>
<text text-anchor="middle" x="368.12" y="-19.5" font-family="Helvetica,sans-Serif" font-size="10.00">__init</text>
</a>
</g>
</g>
<!-- Node2&#45;&gt;Node3 -->
<g id="edge2_Node000002_Node000003" class="edge">
<title>Node2&#45;&gt;Node3</title>
<g id="a_edge2_Node000002_Node000003"><a xlink:title=" ">
<path fill="none" stroke="#63b8ff" d="M283.68,-29C291.58,-29 299.64,-29 307.49,-29"/>
<polygon fill="#63b8ff" stroke="#63b8ff" points="307.29,-32.5 317.29,-29 307.29,-25.5 307.29,-32.5"/>
</a>
</g>
</g>
<!-- Node4 -->
<g id="Node000004" class="node">
<title>Node4</title>
<g id="a_Node000004"><a xlink:href="list_8h.html#aa734984fb49603438b179f49fff38477" target="_top" xlink:title=" ">
<polygon fill="white" stroke="#666666" points="549.25,-58 462,-58 462,-38 549.25,-38 549.25,-58"/>
<text text-anchor="middle" x="505.62" y="-44.5" font-family="Helvetica,sans-Serif" font-size="10.00">zrtos_list__push</text>
</a>
</g>
</g>
<!-- Node3&#45;&gt;Node4 -->
<g id="edge3_Node000003_Node000004" class="edge">
<title>Node3&#45;&gt;Node4</title>
<g id="a_edge3_Node000003_Node000004"><a xlink:title=" ">
<path fill="none" stroke="#63b8ff" d="M417.28,-35.75C428.01,-37.26 439.45,-38.86 450.4,-40.4"/>
<polygon fill="#63b8ff" stroke="#63b8ff" points="449.7,-43.83 460.09,-41.75 450.67,-36.9 449.7,-43.83"/>
</a>
</g>
</g>
<!-- Node6 -->
<g id="Node000006" class="node">
<title>Node6</title>
<g id="a_Node000006"><a xlink:href="list_8h.html#a40feeb4cd0cc4e30201a279240b52429" target="_top" xlink:title=" ">
<polygon fill="white" stroke="#666666" points="558.25,-20 453,-20 453,0 558.25,0 558.25,-20"/>
<text text-anchor="middle" x="505.62" y="-6.5" font-family="Helvetica,sans-Serif" font-size="10.00">zrtos_list_node__init</text>
</a>
</g>
</g>
<!-- Node3&#45;&gt;Node6 -->
<g id="edge5_Node000003_Node000006" class="edge">
<title>Node3&#45;&gt;Node6</title>
<g id="a_edge5_Node000003_Node000006"><a xlink:title=" ">
<path fill="none" stroke="#63b8ff" d="M417.28,-22.25C425.23,-21.13 433.57,-19.96 441.82,-18.81"/>
<polygon fill="#63b8ff" stroke="#63b8ff" points="442.04,-22.31 451.45,-17.46 441.06,-15.38 442.04,-22.31"/>
</a>
</g>
</g>
<!-- Node5 -->
<g id="Node000005" class="node">
<title>Node5</title>
<g id="a_Node000005"><a xlink:href="list_8h.html#aa2f26b2b6fd722b708eb7e25cc264a90" target="_top" xlink:title=" ">
<polygon fill="white" stroke="#666666" points="721.25,-58 594.25,-58 594.25,-38 721.25,-38 721.25,-58"/>
<text text-anchor="middle" x="657.75" y="-44.5" font-family="Helvetica,sans-Serif" font-size="10.00">zrtos_list__get_last_node</text>
</a>
</g>
</g>
<!-- Node4&#45;&gt;Node5 -->
<g id="edge4_Node000004_Node000005" class="edge">
<title>Node4&#45;&gt;Node5</title>
<g id="a_edge4_Node000004_Node000005"><a xlink:title=" ">
<path fill="none" stroke="#63b8ff" d="M549.64,-48C559.98,-48 571.31,-48 582.61,-48"/>
<polygon fill="#63b8ff" stroke="#63b8ff" points="582.35,-51.5 592.35,-48 582.35,-44.5 582.35,-51.5"/>
</a>
</g>
</g>
</g>
</svg>
