<?xml version="1.0" encoding="UTF-8" standalone="no"?>
<!DOCTYPE svg PUBLIC "-//W3C//DTD SVG 1.1//EN"
 "http://www.w3.org/Graphics/SVG/1.1/DTD/svg11.dtd">
<!-- Generated by graphviz version 10.0.1 (20240210.2158)
 -->
<!-- Title: cbuffer.h Pages: 1 -->
<svg width="426pt" height="252pt"
 viewBox="0.00 0.00 425.75 252.00" xmlns="http://www.w3.org/2000/svg" xmlns:xlink="http://www.w3.org/1999/xlink">
<g id="graph0" class="graph" transform="scale(1 1) rotate(0) translate(4 248)">
<title>cbuffer.h</title>
<!-- Node1 -->
<g id="Node000001" class="node">
<title>Node1</title>
<g id="a_Node000001"><a xlink:title=" ">
<polygon fill="#999999" stroke="#666666" points="196.25,-244 143.5,-244 143.5,-224 196.25,-224 196.25,-244"/>
<text text-anchor="middle" x="169.88" y="-230.5" font-family="Helvetica,sans-Serif" font-size="10.00">cbuffer.h</text>
</a>
</g>
</g>
<!-- Node2 -->
<g id="Node000002" class="node">
<title>Node2</title>
<g id="a_Node000002"><a xlink:title=" ">
<polygon fill="#e0e0e0" stroke="#999999" points="65.5,-188 14.25,-188 14.25,-168 65.5,-168 65.5,-188"/>
<text text-anchor="middle" x="39.88" y="-174.5" font-family="Helvetica,sans-Serif" font-size="10.00">stdarg.h</text>
</a>
</g>
</g>
<!-- Node1&#45;&gt;Node2 -->
<g id="edge1_Node000001_Node000002" class="edge">
<title>Node1&#45;&gt;Node2</title>
<g id="a_edge1_Node000001_Node000002"><a xlink:title=" ">
<path fill="none" stroke="#63b8ff" d="M147.23,-223.59C126.76,-215.09 96.36,-202.46 73.13,-192.81"/>
<polygon fill="#63b8ff" stroke="#63b8ff" points="74.67,-189.66 64.09,-189.06 71.99,-196.13 74.67,-189.66"/>
</a>
</g>
</g>
<!-- Node3 -->
<g id="Node000003" class="node">
<title>Node3</title>
<g id="a_Node000003"><a xlink:href="types_8h.html" target="_top" xlink:title=" ">
<polygon fill="white" stroke="#666666" points="261.38,-76 188.38,-76 188.38,-56 261.38,-56 261.38,-76"/>
<text text-anchor="middle" x="224.88" y="-62.5" font-family="Helvetica,sans-Serif" font-size="10.00">zrtos/types.h</text>
</a>
</g>
</g>
<!-- Node1&#45;&gt;Node3 -->
<g id="edge2_Node000001_Node000003" class="edge">
<title>Node1&#45;&gt;Node3</title>
<g id="a_edge2_Node000001_Node000003"><a xlink:title=" ">
<path fill="none" stroke="#63b8ff" d="M169.74,-223.75C169.77,-202.88 171.72,-150.91 188.88,-112 193.28,-102 200.49,-92.34 207.3,-84.55"/>
<polygon fill="#63b8ff" stroke="#63b8ff" points="209.64,-87.17 213.88,-77.46 204.51,-82.4 209.64,-87.17"/>
</a>
</g>
</g>
<!-- Node9 -->
<g id="Node000009" class="node">
<title>Node9</title>
<g id="a_Node000009"><a xlink:href="cast_8h.html" target="_top" xlink:title=" ">
<polygon fill="white" stroke="#666666" points="417.75,-20 350,-20 350,0 417.75,0 417.75,-20"/>
<text text-anchor="middle" x="383.88" y="-6.5" font-family="Helvetica,sans-Serif" font-size="10.00">zrtos/cast.h</text>
</a>
</g>
</g>
<!-- Node1&#45;&gt;Node9 -->
<g id="edge22_Node000001_Node000009" class="edge">
<title>Node1&#45;&gt;Node9</title>
<g id="a_edge22_Node000001_Node000009"><a xlink:title=" ">
<path fill="none" stroke="#63b8ff" d="M196.62,-230.56C244.8,-225.58 343.25,-212.61 365.88,-188 405.71,-144.68 396.22,-67.79 388.76,-31.31"/>
<polygon fill="#63b8ff" stroke="#63b8ff" points="392.21,-30.68 386.62,-21.68 385.37,-32.2 392.21,-30.68"/>
</a>
</g>
</g>
<!-- Node10 -->
<g id="Node000010" class="node">
<title>Node10</title>
<g id="a_Node000010"><a xlink:href="error_8h.html" target="_top" xlink:title=" ">
<polygon fill="white" stroke="#666666" points="102.12,-132 33.62,-132 33.62,-112 102.12,-112 102.12,-132"/>
<text text-anchor="middle" x="67.88" y="-118.5" font-family="Helvetica,sans-Serif" font-size="10.00">zrtos/error.h</text>
</a>
</g>
</g>
<!-- Node1&#45;&gt;Node10 -->
<g id="edge9_Node000001_Node000010" class="edge">
<title>Node1&#45;&gt;Node10</title>
<g id="a_edge9_Node000001_Node000010"><a xlink:title=" ">
<path fill="none" stroke="#63b8ff" d="M157.7,-223.63C146.75,-214.94 130.5,-201.37 117.88,-188 104.01,-173.31 90.16,-154.95 80.57,-141.49"/>
<polygon fill="#63b8ff" stroke="#63b8ff" points="83.6,-139.72 75,-133.53 77.86,-143.73 83.6,-139.72"/>
</a>
</g>
</g>
<!-- Node11 -->
<g id="Node000011" class="node">
<title>Node11</title>
<g id="a_Node000011"><a xlink:href="assert_8h.html" target="_top" xlink:title=" ">
<polygon fill="white" stroke="#666666" points="169.88,-76 93.88,-76 93.88,-56 169.88,-56 169.88,-76"/>
<text text-anchor="middle" x="131.88" y="-62.5" font-family="Helvetica,sans-Serif" font-size="10.00">zrtos/assert.h</text>
</a>
</g>
</g>
<!-- Node1&#45;&gt;Node11 -->
<g id="edge21_Node000001_Node000011" class="edge">
<title>Node1&#45;&gt;Node11</title>
<g id="a_edge21_Node000001_Node000011"><a xlink:title=" ">
<path fill="none" stroke="#63b8ff" d="M166.69,-223.77C163.64,-214.73 159.06,-200.53 155.88,-188 147.03,-153.16 139.47,-112 135.31,-87.77"/>
<polygon fill="#63b8ff" stroke="#63b8ff" points="138.77,-87.26 133.66,-77.98 131.87,-88.42 138.77,-87.26"/>
</a>
</g>
</g>
<!-- Node12 -->
<g id="Node000012" class="node">
<title>Node12</title>
<g id="a_Node000012"><a xlink:href="list_8h.html" target="_top" xlink:title=" ">
<polygon fill="white" stroke="#666666" points="259.75,-132 198,-132 198,-112 259.75,-112 259.75,-132"/>
<text text-anchor="middle" x="228.88" y="-118.5" font-family="Helvetica,sans-Serif" font-size="10.00">zrtos/list.h</text>
</a>
</g>
</g>
<!-- Node1&#45;&gt;Node12 -->
<g id="edge13_Node000001_Node000012" class="edge">
<title>Node1&#45;&gt;Node12</title>
<g id="a_edge13_Node000001_Node000012"><a xlink:title=" ">
<path fill="none" stroke="#63b8ff" d="M174.91,-223.62C184.53,-205.68 205.72,-166.17 218.5,-142.35"/>
<polygon fill="#63b8ff" stroke="#63b8ff" points="221.5,-144.16 223.14,-133.69 215.33,-140.85 221.5,-144.16"/>
</a>
</g>
</g>
<!-- Node13 -->
<g id="Node000013" class="node">
<title>Node13</title>
<g id="a_Node000013"><a xlink:href="malloc__limit_8h.html" target="_top" xlink:title=" ">
<polygon fill="white" stroke="#666666" points="357.25,-188 256.5,-188 256.5,-168 357.25,-168 357.25,-188"/>
<text text-anchor="middle" x="306.88" y="-174.5" font-family="Helvetica,sans-Serif" font-size="10.00">zrtos/malloc_limit.h</text>
</a>
</g>
</g>
<!-- Node1&#45;&gt;Node13 -->
<g id="edge15_Node000001_Node000013" class="edge">
<title>Node1&#45;&gt;Node13</title>
<g id="a_edge15_Node000001_Node000013"><a xlink:title=" ">
<path fill="none" stroke="#63b8ff" d="M193.74,-223.59C215.41,-215.05 247.64,-202.35 272.17,-192.68"/>
<polygon fill="#63b8ff" stroke="#63b8ff" points="273.4,-195.96 281.42,-189.03 270.83,-189.45 273.4,-195.96"/>
</a>
</g>
</g>
<!-- Node4 -->
<g id="Node000004" class="node">
<title>Node4</title>
<g id="a_Node000004"><a xlink:title=" ">
<polygon fill="#e0e0e0" stroke="#999999" points="55.75,-20 0,-20 0,0 55.75,0 55.75,-20"/>
<text text-anchor="middle" x="27.88" y="-6.5" font-family="Helvetica,sans-Serif" font-size="10.00">stdbool.h</text>
</a>
</g>
</g>
<!-- Node3&#45;&gt;Node4 -->
<g id="edge3_Node000003_Node000004" class="edge">
<title>Node3&#45;&gt;Node4</title>
<g id="a_edge3_Node000003_Node000004"><a xlink:title=" ">
<path fill="none" stroke="#63b8ff" d="M190.56,-55.59C156.14,-46.16 103.21,-31.65 67.14,-21.76"/>
<polygon fill="#63b8ff" stroke="#63b8ff" points="68.09,-18.39 57.52,-19.13 66.24,-25.15 68.09,-18.39"/>
</a>
</g>
</g>
<!-- Node5 -->
<g id="Node000005" class="node">
<title>Node5</title>
<g id="a_Node000005"><a xlink:title=" ">
<polygon fill="#e0e0e0" stroke="#999999" points="266.12,-20 215.62,-20 215.62,0 266.12,0 266.12,-20"/>
<text text-anchor="middle" x="240.88" y="-6.5" font-family="Helvetica,sans-Serif" font-size="10.00">stddef.h</text>
</a>
</g>
</g>
<!-- Node3&#45;&gt;Node5 -->
<g id="edge4_Node000003_Node000005" class="edge">
<title>Node3&#45;&gt;Node5</title>
<g id="a_edge4_Node000003_Node000005"><a xlink:title=" ">
<path fill="none" stroke="#63b8ff" d="M227.66,-55.59C229.66,-48.86 232.42,-39.53 234.9,-31.15"/>
<polygon fill="#63b8ff" stroke="#63b8ff" points="238.2,-32.33 237.69,-21.75 231.49,-30.34 238.2,-32.33"/>
</a>
</g>
</g>
<!-- Node6 -->
<g id="Node000006" class="node">
<title>Node6</title>
<g id="a_Node000006"><a xlink:title=" ">
<polygon fill="#e0e0e0" stroke="#999999" points="332,-20 283.75,-20 283.75,0 332,0 332,-20"/>
<text text-anchor="middle" x="307.88" y="-6.5" font-family="Helvetica,sans-Serif" font-size="10.00">stdint.h</text>
</a>
</g>
</g>
<!-- Node3&#45;&gt;Node6 -->
<g id="edge5_Node000003_Node000006" class="edge">
<title>Node3&#45;&gt;Node6</title>
<g id="a_edge5_Node000003_Node000006"><a xlink:title=" ">
<path fill="none" stroke="#63b8ff" d="M239.33,-55.59C251.63,-47.59 269.55,-35.93 283.98,-26.54"/>
<polygon fill="#63b8ff" stroke="#63b8ff" points="285.56,-29.69 292.04,-21.3 281.75,-23.82 285.56,-29.69"/>
</a>
</g>
</g>
<!-- Node7 -->
<g id="Node000007" class="node">
<title>Node7</title>
<g id="a_Node000007"><a xlink:title=" ">
<polygon fill="#e0e0e0" stroke="#999999" points="121.62,-20 74.12,-20 74.12,0 121.62,0 121.62,-20"/>
<text text-anchor="middle" x="97.88" y="-6.5" font-family="Helvetica,sans-Serif" font-size="10.00">limits.h</text>
</a>
</g>
</g>
<!-- Node3&#45;&gt;Node7 -->
<g id="edge6_Node000003_Node000007" class="edge">
<title>Node3&#45;&gt;Node7</title>
<g id="a_edge6_Node000003_Node000007"><a xlink:title=" ">
<path fill="none" stroke="#63b8ff" d="M202.75,-55.59C182.84,-47.13 153.32,-34.58 130.67,-24.94"/>
<polygon fill="#63b8ff" stroke="#63b8ff" points="132.13,-21.76 121.56,-21.07 129.4,-28.21 132.13,-21.76"/>
</a>
</g>
</g>
<!-- Node8 -->
<g id="Node000008" class="node">
<title>Node8</title>
<g id="a_Node000008"><a xlink:title=" ">
<polygon fill="#e0e0e0" stroke="#999999" points="197.88,-20 139.88,-20 139.88,0 197.88,0 197.88,-20"/>
<text text-anchor="middle" x="168.88" y="-6.5" font-family="Helvetica,sans-Serif" font-size="10.00">stdalign.h</text>
</a>
</g>
</g>
<!-- Node3&#45;&gt;Node8 -->
<g id="edge7_Node000003_Node000008" class="edge">
<title>Node3&#45;&gt;Node8</title>
<g id="a_edge7_Node000003_Node000008"><a xlink:title=" ">
<path fill="none" stroke="#63b8ff" d="M215.12,-55.59C207.25,-48.01 195.98,-37.13 186.53,-28.02"/>
<polygon fill="#63b8ff" stroke="#63b8ff" points="189.24,-25.77 179.61,-21.35 184.38,-30.81 189.24,-25.77"/>
</a>
</g>
</g>
<!-- Node3&#45;&gt;Node9 -->
<g id="edge8_Node000003_Node000009" class="edge">
<title>Node3&#45;&gt;Node9</title>
<g id="a_edge8_Node000003_Node000009"><a xlink:title=" ">
<path fill="none" stroke="#63b8ff" d="M252.57,-55.59C278.18,-46.9 316.48,-33.89 345.12,-24.16"/>
<polygon fill="#63b8ff" stroke="#63b8ff" points="346.19,-27.5 354.53,-20.97 343.94,-20.87 346.19,-27.5"/>
</a>
</g>
</g>
<!-- Node10&#45;&gt;Node4 -->
<g id="edge11_Node000010_Node000004" class="edge">
<title>Node10&#45;&gt;Node4</title>
<g id="a_edge11_Node000010_Node000004"><a xlink:title=" ">
<path fill="none" stroke="#63b8ff" d="M64.46,-111.62C58,-93.84 43.83,-54.88 35.15,-31"/>
<polygon fill="#63b8ff" stroke="#63b8ff" points="38.5,-29.98 31.79,-21.78 31.92,-32.37 38.5,-29.98"/>
</a>
</g>
</g>
<!-- Node10&#45;&gt;Node7 -->
<g id="edge10_Node000010_Node000007" class="edge">
<title>Node10&#45;&gt;Node7</title>
<g id="a_edge10_Node000010_Node000007"><a xlink:title=" ">
<path fill="none" stroke="#63b8ff" d="M70.22,-111.72C73.44,-99.09 79.43,-75.79 84.88,-56 87.11,-47.87 89.67,-38.94 91.92,-31.2"/>
<polygon fill="#63b8ff" stroke="#63b8ff" points="95.24,-32.32 94.69,-21.74 88.52,-30.35 95.24,-32.32"/>
</a>
</g>
</g>
<!-- Node10&#45;&gt;Node11 -->
<g id="edge12_Node000010_Node000011" class="edge">
<title>Node10&#45;&gt;Node11</title>
<g id="a_edge12_Node000010_Node000011"><a xlink:title=" ">
<path fill="none" stroke="#63b8ff" d="M79.02,-111.59C88.2,-103.85 101.43,-92.69 112.36,-83.47"/>
<polygon fill="#63b8ff" stroke="#63b8ff" points="114.31,-86.4 119.7,-77.27 109.8,-81.05 114.31,-86.4"/>
</a>
</g>
</g>
<!-- Node12&#45;&gt;Node3 -->
<g id="edge14_Node000012_Node000003" class="edge">
<title>Node12&#45;&gt;Node3</title>
<g id="a_edge14_Node000012_Node000003"><a xlink:title=" ">
<path fill="none" stroke="#63b8ff" d="M228.18,-111.59C227.69,-105.01 227.02,-95.96 226.41,-87.73"/>
<polygon fill="#63b8ff" stroke="#63b8ff" points="229.9,-87.52 225.68,-77.81 222.92,-88.04 229.9,-87.52"/>
</a>
</g>
</g>
<!-- Node14 -->
<g id="Node000014" class="node">
<title>Node14</title>
<g id="a_Node000014"><a xlink:href="malloc_8h.html" target="_top" xlink:title=" ">
<polygon fill="white" stroke="#666666" points="355.62,-132 278.12,-132 278.12,-112 355.62,-112 355.62,-132"/>
<text text-anchor="middle" x="316.88" y="-118.5" font-family="Helvetica,sans-Serif" font-size="10.00">zrtos/malloc.h</text>
</a>
</g>
</g>
<!-- Node13&#45;&gt;Node14 -->
<g id="edge16_Node000013_Node000014" class="edge">
<title>Node13&#45;&gt;Node14</title>
<g id="a_edge16_Node000013_Node000014"><a xlink:title=" ">
<path fill="none" stroke="#63b8ff" d="M308.62,-167.59C309.85,-160.93 311.55,-151.75 313.09,-143.44"/>
<polygon fill="#63b8ff" stroke="#63b8ff" points="316.5,-144.26 314.88,-133.79 309.62,-142.98 316.5,-144.26"/>
</a>
</g>
</g>
<!-- Node14&#45;&gt;Node3 -->
<g id="edge18_Node000014_Node000003" class="edge">
<title>Node14&#45;&gt;Node3</title>
<g id="a_edge18_Node000014_Node000003"><a xlink:title=" ">
<path fill="none" stroke="#63b8ff" d="M300.85,-111.59C287.08,-103.51 266.97,-91.71 250.9,-82.27"/>
<polygon fill="#63b8ff" stroke="#63b8ff" points="252.73,-79.29 242.33,-77.25 249.18,-85.33 252.73,-79.29"/>
</a>
</g>
</g>
<!-- Node14&#45;&gt;Node9 -->
<g id="edge19_Node000014_Node000009" class="edge">
<title>Node14&#45;&gt;Node9</title>
<g id="a_edge19_Node000014_Node000009"><a xlink:title=" ">
<path fill="none" stroke="#63b8ff" d="M329.8,-111.66C340.37,-103.39 354.98,-90.42 363.88,-76 372.32,-62.31 377.45,-44.77 380.39,-31.37"/>
<polygon fill="#63b8ff" stroke="#63b8ff" points="383.75,-32.41 382.22,-21.93 376.88,-31.08 383.75,-32.41"/>
</a>
</g>
</g>
<!-- Node14&#45;&gt;Node11 -->
<g id="edge17_Node000014_Node000011" class="edge">
<title>Node14&#45;&gt;Node11</title>
<g id="a_edge17_Node000014_Node000011"><a xlink:title=" ">
<path fill="none" stroke="#63b8ff" d="M284.65,-111.59C254.33,-102.74 208.7,-89.43 175.21,-79.65"/>
<polygon fill="#63b8ff" stroke="#63b8ff" points="176.38,-76.35 165.8,-76.9 174.42,-83.07 176.38,-76.35"/>
</a>
</g>
</g>
<!-- Node15 -->
<g id="Node000015" class="node">
<title>Node15</title>
<g id="a_Node000015"><a xlink:href="debug_8h.html" target="_top" xlink:title=" ">
<polygon fill="white" stroke="#666666" points="354.5,-76 279.25,-76 279.25,-56 354.5,-56 354.5,-76"/>
<text text-anchor="middle" x="316.88" y="-62.5" font-family="Helvetica,sans-Serif" font-size="10.00">zrtos/debug.h</text>
</a>
</g>
</g>
<!-- Node14&#45;&gt;Node15 -->
<g id="edge20_Node000014_Node000015" class="edge">
<title>Node14&#45;&gt;Node15</title>
<g id="a_edge20_Node000014_Node000015"><a xlink:title=" ">
<path fill="none" stroke="#63b8ff" d="M316.88,-111.59C316.88,-105.01 316.88,-95.96 316.88,-87.73"/>
<polygon fill="#63b8ff" stroke="#63b8ff" points="320.38,-87.81 316.88,-77.81 313.38,-87.81 320.38,-87.81"/>
</a>
</g>
</g>
</g>
</svg>
