<?xml version="1.0" encoding="UTF-8" standalone="no"?>
<!DOCTYPE svg PUBLIC "-//W3C//DTD SVG 1.1//EN"
 "http://www.w3.org/Graphics/SVG/1.1/DTD/svg11.dtd">
<!-- Generated by graphviz version 2.40.1 (20161225.0304)
 -->
<!-- Title: zrtos_cbuffer__start_write_transaction Pages: 1 -->
<svg width="928pt" height="449pt"
 viewBox="0.00 0.00 928.00 449.00" xmlns="http://www.w3.org/2000/svg" xmlns:xlink="http://www.w3.org/1999/xlink">
<g id="graph0" class="graph" transform="scale(1 1) rotate(0) translate(4 445)">
<title>zrtos_cbuffer__start_write_transaction</title>
<polygon fill="#ffffff" stroke="transparent" points="-4,4 -4,-445 924,-445 924,4 -4,4"/>
<!-- Node424 -->
<g id="node1" class="node">
<title>Node424</title>
<polygon fill="#bfbfbf" stroke="#000000" points="0,-298.5 0,-328.5 104,-328.5 104,-298.5 0,-298.5"/>
<text text-anchor="start" x="8" y="-316.5" font-family="Helvetica,sans-Serif" font-size="10.00" fill="#000000">zrtos_cbuffer__start</text>
<text text-anchor="middle" x="52" y="-305.5" font-family="Helvetica,sans-Serif" font-size="10.00" fill="#000000">_write_transaction</text>
</g>
<!-- Node425 -->
<g id="node2" class="node">
<title>Node425</title>
<g id="a_node2"><a xlink:href="cbuffer_8h.html#a5d269503e04946737598d2062c5bfaf4" target="_top" xlink:title="zrtos_cbuffer__put_ex">
<polygon fill="#ffffff" stroke="#000000" points="140,-285 140,-304 253,-304 253,-285 140,-285"/>
<text text-anchor="middle" x="196.5" y="-292" font-family="Helvetica,sans-Serif" font-size="10.00" fill="#000000">zrtos_cbuffer__put_ex</text>
</a>
</g>
</g>
<!-- Node424&#45;&gt;Node425 -->
<g id="edge1" class="edge">
<title>Node424&#45;&gt;Node425</title>
<path fill="none" stroke="#191970" d="M114.2756,-305.3115C122.662,-304.2088 131.2312,-303.0821 139.5194,-301.9923"/>
<polygon fill="#191970" stroke="#191970" points="113.6262,-301.8667 104.1678,-306.6406 114.5388,-308.807 113.6262,-301.8667"/>
</g>
<!-- Node444 -->
<g id="node21" class="node">
<title>Node444</title>
<g id="a_node21"><a xlink:href="msg__queue_8h.html#a8d4b5575ad52b762ce101a31c5a29768" target="_top" xlink:title="zrtos_msg_queue__start\l_write_transaction">
<polygon fill="#ffffff" stroke="#000000" points="298,-410.5 298,-440.5 422,-440.5 422,-410.5 298,-410.5"/>
<text text-anchor="start" x="306" y="-428.5" font-family="Helvetica,sans-Serif" font-size="10.00" fill="#000000">zrtos_msg_queue__start</text>
<text text-anchor="middle" x="360" y="-417.5" font-family="Helvetica,sans-Serif" font-size="10.00" fill="#000000">_write_transaction</text>
</a>
</g>
</g>
<!-- Node424&#45;&gt;Node444 -->
<g id="edge22" class="edge">
<title>Node424&#45;&gt;Node444</title>
<path fill="none" stroke="#191970" d="M101.1956,-332.2498C149.0224,-350.3634 223.789,-378.3774 289,-401.5 297.3392,-404.4569 306.2577,-407.5363 314.8593,-410.4645"/>
<polygon fill="#191970" stroke="#191970" points="102.2975,-328.9245 91.7062,-328.6519 99.8158,-335.4699 102.2975,-328.9245"/>
</g>
<!-- Node426 -->
<g id="node3" class="node">
<title>Node426</title>
<g id="a_node3"><a xlink:href="msg__queue_8h.html#a9f24485c49e6b6ba13406e9a5d1f352d" target="_top" xlink:title="zrtos_msg_queue__put\l_length">
<polygon fill="#ffffff" stroke="#000000" points="301,-361.5 301,-391.5 419,-391.5 419,-361.5 301,-361.5"/>
<text text-anchor="start" x="309" y="-379.5" font-family="Helvetica,sans-Serif" font-size="10.00" fill="#000000">zrtos_msg_queue__put</text>
<text text-anchor="middle" x="360" y="-368.5" font-family="Helvetica,sans-Serif" font-size="10.00" fill="#000000">_length</text>
</a>
</g>
</g>
<!-- Node425&#45;&gt;Node426 -->
<g id="edge2" class="edge">
<title>Node425&#45;&gt;Node426</title>
<path fill="none" stroke="#191970" d="M218.548,-309.9537C236.8281,-322.3016 263.8069,-339.4728 289,-351.5 296.5477,-355.1033 304.759,-358.4674 312.8304,-361.4868"/>
<polygon fill="#191970" stroke="#191970" points="220.3072,-306.9165 210.0782,-304.1563 216.3533,-312.6929 220.3072,-306.9165"/>
</g>
<!-- Node431 -->
<g id="node8" class="node">
<title>Node431</title>
<g id="a_node8"><a xlink:href="msg__queue_8h.html#a14fb4faf04687986da3435e06db5d587" target="_top" xlink:title="zrtos_msg_queue__put_data">
<polygon fill="#ffffff" stroke="#000000" points="289,-323 289,-342 431,-342 431,-323 289,-323"/>
<text text-anchor="middle" x="360" y="-330" font-family="Helvetica,sans-Serif" font-size="10.00" fill="#000000">zrtos_msg_queue__put_data</text>
</a>
</g>
</g>
<!-- Node425&#45;&gt;Node431 -->
<g id="edge7" class="edge">
<title>Node425&#45;&gt;Node431</title>
<path fill="none" stroke="#191970" d="M247.6844,-306.3961C270.6661,-311.7374 297.4125,-317.9537 319.0387,-322.9799"/>
<polygon fill="#191970" stroke="#191970" points="248.2907,-302.9438 237.758,-304.089 246.706,-309.762 248.2907,-302.9438"/>
</g>
<!-- Node432 -->
<g id="node9" class="node">
<title>Node432</title>
<g id="a_node9"><a xlink:href="msg__queue_8h.html#ab51eb620b09145d1b05966404c9e0ca4" target="_top" xlink:title="zrtos_msg_queue__put">
<polygon fill="#ffffff" stroke="#000000" points="301,-285 301,-304 419,-304 419,-285 301,-285"/>
<text text-anchor="middle" x="360" y="-292" font-family="Helvetica,sans-Serif" font-size="10.00" fill="#000000">zrtos_msg_queue__put</text>
</a>
</g>
</g>
<!-- Node425&#45;&gt;Node432 -->
<g id="edge9" class="edge">
<title>Node425&#45;&gt;Node432</title>
<path fill="none" stroke="#191970" d="M263.4957,-294.5C275.8842,-294.5 288.7402,-294.5 300.8743,-294.5"/>
<polygon fill="#191970" stroke="#191970" points="263.2255,-291.0001 253.2255,-294.5 263.2255,-298.0001 263.2255,-291.0001"/>
</g>
<!-- Node433 -->
<g id="node10" class="node">
<title>Node433</title>
<g id="a_node10"><a xlink:href="spi_2spi_8h.html#a7f9adeb6314d47b2442b0a17d1cc2f37" target="_top" xlink:title="zrtos_vfs_module_spi\l__transfer_in">
<polygon fill="#ffffff" stroke="#000000" points="304,-235.5 304,-265.5 416,-265.5 416,-235.5 304,-235.5"/>
<text text-anchor="start" x="312" y="-253.5" font-family="Helvetica,sans-Serif" font-size="10.00" fill="#000000">zrtos_vfs_module_spi</text>
<text text-anchor="middle" x="360" y="-242.5" font-family="Helvetica,sans-Serif" font-size="10.00" fill="#000000">__transfer_in</text>
</a>
</g>
</g>
<!-- Node425&#45;&gt;Node433 -->
<g id="edge10" class="edge">
<title>Node425&#45;&gt;Node433</title>
<path fill="none" stroke="#191970" d="M241.7179,-282.3313C260.9985,-277.1426 283.6922,-271.0354 304.0185,-265.5654"/>
<polygon fill="#191970" stroke="#191970" points="240.7239,-278.9742 231.9771,-284.9527 242.5431,-285.7337 240.7239,-278.9742"/>
</g>
<!-- Node438 -->
<g id="node15" class="node">
<title>Node438</title>
<g id="a_node15"><a xlink:href="spi_2spi_8h.html#ac672df98eac652a9d1925ba73229c475" target="_top" xlink:title="zrtos_vfs_module_spi\l__on_write">
<polygon fill="#ffffff" stroke="#000000" points="648,-189.5 648,-219.5 760,-219.5 760,-189.5 648,-189.5"/>
<text text-anchor="start" x="656" y="-207.5" font-family="Helvetica,sans-Serif" font-size="10.00" fill="#000000">zrtos_vfs_module_spi</text>
<text text-anchor="middle" x="704" y="-196.5" font-family="Helvetica,sans-Serif" font-size="10.00" fill="#000000">__on_write</text>
</a>
</g>
</g>
<!-- Node425&#45;&gt;Node438 -->
<g id="edge15" class="edge">
<title>Node425&#45;&gt;Node438</title>
<path fill="none" stroke="#191970" d="M213.1501,-277.4666C230.4021,-261.0697 259.0013,-237.2279 289,-226.5 411.1156,-182.8299 566.3448,-189.6393 647.9818,-197.5699"/>
<polygon fill="#191970" stroke="#191970" points="210.33,-275.3296 205.636,-284.8278 215.2287,-280.3299 210.33,-275.3296"/>
</g>
<!-- Node439 -->
<g id="node16" class="node">
<title>Node439</title>
<g id="a_node16"><a xlink:href="uart_2uart_8h.html#a9e735d9796aaa30e4a5fce9c763adf92" target="_top" xlink:title="zrtos_vfs_module_uart\l__on_write">
<polygon fill="#ffffff" stroke="#000000" points="302,-98.5 302,-128.5 418,-128.5 418,-98.5 302,-98.5"/>
<text text-anchor="start" x="310" y="-116.5" font-family="Helvetica,sans-Serif" font-size="10.00" fill="#000000">zrtos_vfs_module_uart</text>
<text text-anchor="middle" x="360" y="-105.5" font-family="Helvetica,sans-Serif" font-size="10.00" fill="#000000">__on_write</text>
</a>
</g>
</g>
<!-- Node425&#45;&gt;Node439 -->
<g id="edge17" class="edge">
<title>Node425&#45;&gt;Node439</title>
<path fill="none" stroke="#191970" d="M212.1461,-277.1793C244.0487,-241.8619 316.1413,-162.053 346.315,-128.6497"/>
<polygon fill="#191970" stroke="#191970" points="209.3965,-275.0018 205.2905,-284.7687 214.591,-279.6941 209.3965,-275.0018"/>
</g>
<!-- Node427 -->
<g id="node4" class="node">
<title>Node427</title>
<g id="a_node4"><a xlink:href="rtu_8h.html#a223fc39dfd241ff17884c9f5d03f8e78" target="_top" xlink:title="zrtos_vfs_module_modbus\l_rtu__on_recv_timeout">
<polygon fill="#ffffff" stroke="#000000" points="467,-410.5 467,-440.5 601,-440.5 601,-410.5 467,-410.5"/>
<text text-anchor="start" x="475" y="-428.5" font-family="Helvetica,sans-Serif" font-size="10.00" fill="#000000">zrtos_vfs_module_modbus</text>
<text text-anchor="middle" x="534" y="-417.5" font-family="Helvetica,sans-Serif" font-size="10.00" fill="#000000">_rtu__on_recv_timeout</text>
</a>
</g>
</g>
<!-- Node426&#45;&gt;Node427 -->
<g id="edge3" class="edge">
<title>Node426&#45;&gt;Node427</title>
<path fill="none" stroke="#191970" d="M423.2836,-394.3212C442.0704,-399.6118 462.4546,-405.3522 480.5515,-410.4484"/>
<polygon fill="#191970" stroke="#191970" points="424.1999,-390.9432 413.6255,-391.6014 422.3024,-397.6811 424.1999,-390.9432"/>
</g>
<!-- Node429 -->
<g id="node6" class="node">
<title>Node429</title>
<g id="a_node6"><a xlink:href="rtu_8h.html#ac0ca767b3e1e9a8b1f290448a122e095" target="_top" xlink:title="zrtos_vfs_module_modbus\l_rtu__on_write">
<polygon fill="#ffffff" stroke="#000000" points="467,-361.5 467,-391.5 601,-391.5 601,-361.5 467,-361.5"/>
<text text-anchor="start" x="475" y="-379.5" font-family="Helvetica,sans-Serif" font-size="10.00" fill="#000000">zrtos_vfs_module_modbus</text>
<text text-anchor="middle" x="534" y="-368.5" font-family="Helvetica,sans-Serif" font-size="10.00" fill="#000000">_rtu__on_write</text>
</a>
</g>
</g>
<!-- Node426&#45;&gt;Node429 -->
<g id="edge5" class="edge">
<title>Node426&#45;&gt;Node429</title>
<path fill="none" stroke="#191970" d="M429.5673,-376.5C441.8402,-376.5 454.5956,-376.5 466.8019,-376.5"/>
<polygon fill="#191970" stroke="#191970" points="429.3943,-373.0001 419.3943,-376.5 429.3942,-380.0001 429.3943,-373.0001"/>
</g>
<!-- Node428 -->
<g id="node5" class="node">
<title>Node428</title>
<g id="a_node5"><a xlink:href="rtu_8h.html#a2376d02a52d42eef634ef843afc499f3" target="_top" xlink:title="zrtos_vfs_module_modbus\l_rtu_inode__init">
<polygon fill="#ffffff" stroke="#000000" points="637,-410.5 637,-440.5 771,-440.5 771,-410.5 637,-410.5"/>
<text text-anchor="start" x="645" y="-428.5" font-family="Helvetica,sans-Serif" font-size="10.00" fill="#000000">zrtos_vfs_module_modbus</text>
<text text-anchor="middle" x="704" y="-417.5" font-family="Helvetica,sans-Serif" font-size="10.00" fill="#000000">_rtu_inode__init</text>
</a>
</g>
</g>
<!-- Node427&#45;&gt;Node428 -->
<g id="edge4" class="edge">
<title>Node427&#45;&gt;Node428</title>
<path fill="none" stroke="#191970" d="M611.4246,-425.5C619.8759,-425.5 628.4279,-425.5 636.7428,-425.5"/>
<polygon fill="#191970" stroke="#191970" points="611.1885,-422.0001 601.1885,-425.5 611.1885,-429.0001 611.1885,-422.0001"/>
</g>
<!-- Node430 -->
<g id="node7" class="node">
<title>Node430</title>
<g id="a_node7"><a xlink:href="rtu_8h.html#a08670f8758ac6130c738816d306eb923" target="_top" xlink:title="zrtos_vfs_module_modbus\l_rtu__on_ioctl">
<polygon fill="#ffffff" stroke="#000000" points="637,-361.5 637,-391.5 771,-391.5 771,-361.5 637,-361.5"/>
<text text-anchor="start" x="645" y="-379.5" font-family="Helvetica,sans-Serif" font-size="10.00" fill="#000000">zrtos_vfs_module_modbus</text>
<text text-anchor="middle" x="704" y="-368.5" font-family="Helvetica,sans-Serif" font-size="10.00" fill="#000000">_rtu__on_ioctl</text>
</a>
</g>
</g>
<!-- Node429&#45;&gt;Node430 -->
<g id="edge6" class="edge">
<title>Node429&#45;&gt;Node430</title>
<path fill="none" stroke="#191970" d="M611.4246,-376.5C619.8759,-376.5 628.4279,-376.5 636.7428,-376.5"/>
<polygon fill="#191970" stroke="#191970" points="611.1885,-373.0001 601.1885,-376.5 611.1885,-380.0001 611.1885,-373.0001"/>
</g>
<!-- Node431&#45;&gt;Node429 -->
<g id="edge8" class="edge">
<title>Node431&#45;&gt;Node429</title>
<path fill="none" stroke="#191970" d="M407.5579,-344.5261C428.1972,-349.7453 452.5933,-355.9144 474.4233,-361.4346"/>
<polygon fill="#191970" stroke="#191970" points="408.3083,-341.1058 397.7554,-342.0473 406.5922,-347.8922 408.3083,-341.1058"/>
</g>
<!-- Node434 -->
<g id="node11" class="node">
<title>Node434</title>
<g id="a_node11"><a xlink:href="spi_2spi_8h.html#ab31c12597a3f2932aaf01466ffff59bb" target="_top" xlink:title="zrtos_vfs_module_spi\l__transfer">
<polygon fill="#ffffff" stroke="#000000" points="478,-237.5 478,-267.5 590,-267.5 590,-237.5 478,-237.5"/>
<text text-anchor="start" x="486" y="-255.5" font-family="Helvetica,sans-Serif" font-size="10.00" fill="#000000">zrtos_vfs_module_spi</text>
<text text-anchor="middle" x="534" y="-244.5" font-family="Helvetica,sans-Serif" font-size="10.00" fill="#000000">__transfer</text>
</a>
</g>
</g>
<!-- Node433&#45;&gt;Node434 -->
<g id="edge11" class="edge">
<title>Node433&#45;&gt;Node434</title>
<path fill="none" stroke="#191970" d="M426.3992,-251.2632C443.3506,-251.4581 461.4091,-251.6656 477.7944,-251.854"/>
<polygon fill="#191970" stroke="#191970" points="426.0521,-247.7591 416.0125,-251.1438 425.9715,-254.7586 426.0521,-247.7591"/>
</g>
<!-- Node435 -->
<g id="node12" class="node">
<title>Node435</title>
<g id="a_node12"><a xlink:href="avr_2spi_2spi_8h.html#a3a0f3b324bd986778ccde00670dbabc9" target="_top" xlink:title="zrtos_vfs_module_avr\l_spi__on_interrupt">
<polygon fill="#ffffff" stroke="#000000" points="647.5,-238.5 647.5,-268.5 760.5,-268.5 760.5,-238.5 647.5,-238.5"/>
<text text-anchor="start" x="655.5" y="-256.5" font-family="Helvetica,sans-Serif" font-size="10.00" fill="#000000">zrtos_vfs_module_avr</text>
<text text-anchor="middle" x="704" y="-245.5" font-family="Helvetica,sans-Serif" font-size="10.00" fill="#000000">_spi__on_interrupt</text>
</a>
</g>
</g>
<!-- Node434&#45;&gt;Node435 -->
<g id="edge12" class="edge">
<title>Node434&#45;&gt;Node435</title>
<path fill="none" stroke="#191970" d="M600.2154,-252.8895C615.784,-252.9811 632.2376,-253.0779 647.3426,-253.1667"/>
<polygon fill="#191970" stroke="#191970" points="600.1559,-249.3892 590.1355,-252.8302 600.1147,-256.3891 600.1559,-249.3892"/>
</g>
<!-- Node436 -->
<g id="node13" class="node">
<title>Node436</title>
<g id="a_node13"><a xlink:href="avr_2spi_2spi_8h.html#a0353f98d744b931e541684fe33b272f7" target="_top" xlink:title="ISR">
<polygon fill="#ffffff" stroke="#000000" points="846.5,-244 846.5,-263 880.5,-263 880.5,-244 846.5,-244"/>
<text text-anchor="middle" x="863.5" y="-251" font-family="Helvetica,sans-Serif" font-size="10.00" fill="#000000">ISR</text>
</a>
</g>
</g>
<!-- Node435&#45;&gt;Node436 -->
<g id="edge13" class="edge">
<title>Node435&#45;&gt;Node436</title>
<path fill="none" stroke="#191970" d="M770.7619,-253.5C798.4525,-253.5 828.2899,-253.5 846.4331,-253.5"/>
<polygon fill="#191970" stroke="#191970" points="770.6829,-250.0001 760.6828,-253.5 770.6828,-257.0001 770.6829,-250.0001"/>
</g>
<!-- Node437 -->
<g id="node14" class="node">
<title>Node437</title>
<g id="a_node14"><a xlink:href="avr_2spi_2spi_8h.html#ab6f547c3ce7ee0463c235abe078f9491" target="_top" xlink:title="zrtos_vfs_module_avr\l_spi__on_write">
<polygon fill="#ffffff" stroke="#000000" points="807,-192.5 807,-222.5 920,-222.5 920,-192.5 807,-192.5"/>
<text text-anchor="start" x="815" y="-210.5" font-family="Helvetica,sans-Serif" font-size="10.00" fill="#000000">zrtos_vfs_module_avr</text>
<text text-anchor="middle" x="863.5" y="-199.5" font-family="Helvetica,sans-Serif" font-size="10.00" fill="#000000">_spi__on_write</text>
</a>
</g>
</g>
<!-- Node435&#45;&gt;Node437 -->
<g id="edge14" class="edge">
<title>Node435&#45;&gt;Node437</title>
<path fill="none" stroke="#191970" d="M765.9526,-235.6328C780.9847,-231.2975 796.9059,-226.7058 811.4289,-222.5174"/>
<polygon fill="#191970" stroke="#191970" points="764.8648,-232.3038 756.2263,-238.4379 766.8046,-239.0297 764.8648,-232.3038"/>
</g>
<!-- Node438&#45;&gt;Node437 -->
<g id="edge16" class="edge">
<title>Node438&#45;&gt;Node437</title>
<path fill="none" stroke="#191970" d="M770.3336,-205.7477C782.5084,-205.9766 795.1127,-206.2137 806.9672,-206.4367"/>
<polygon fill="#191970" stroke="#191970" points="770.2978,-202.2465 760.2337,-205.5577 770.1661,-209.2452 770.2978,-202.2465"/>
</g>
<!-- Node440 -->
<g id="node17" class="node">
<title>Node440</title>
<g id="a_node17"><a xlink:href="uart0_8h.html#a1c08ba1c9bac4dd9a045d06a07dbe0b4" target="_top" xlink:title="zrtos_vfs_module_avr\l_uart0__on_write">
<polygon fill="#ffffff" stroke="#000000" points="477.5,-147.5 477.5,-177.5 590.5,-177.5 590.5,-147.5 477.5,-147.5"/>
<text text-anchor="start" x="485.5" y="-165.5" font-family="Helvetica,sans-Serif" font-size="10.00" fill="#000000">zrtos_vfs_module_avr</text>
<text text-anchor="middle" x="534" y="-154.5" font-family="Helvetica,sans-Serif" font-size="10.00" fill="#000000">_uart0__on_write</text>
</a>
</g>
</g>
<!-- Node439&#45;&gt;Node440 -->
<g id="edge18" class="edge">
<title>Node439&#45;&gt;Node440</title>
<path fill="none" stroke="#191970" d="M423.2836,-131.3212C442.0704,-136.6118 462.4546,-142.3522 480.5515,-147.4484"/>
<polygon fill="#191970" stroke="#191970" points="424.1999,-127.9432 413.6255,-128.6014 422.3024,-134.6811 424.1999,-127.9432"/>
</g>
<!-- Node441 -->
<g id="node18" class="node">
<title>Node441</title>
<g id="a_node18"><a xlink:href="uart1_8h.html#af04452122e72ab7408b2e207191cdd33" target="_top" xlink:title="zrtos_vfs_module_avr\l_uart1__on_write">
<polygon fill="#ffffff" stroke="#000000" points="477.5,-98.5 477.5,-128.5 590.5,-128.5 590.5,-98.5 477.5,-98.5"/>
<text text-anchor="start" x="485.5" y="-116.5" font-family="Helvetica,sans-Serif" font-size="10.00" fill="#000000">zrtos_vfs_module_avr</text>
<text text-anchor="middle" x="534" y="-105.5" font-family="Helvetica,sans-Serif" font-size="10.00" fill="#000000">_uart1__on_write</text>
</a>
</g>
</g>
<!-- Node439&#45;&gt;Node441 -->
<g id="edge19" class="edge">
<title>Node439&#45;&gt;Node441</title>
<path fill="none" stroke="#191970" d="M428.8148,-113.5C444.8537,-113.5 461.7557,-113.5 477.2065,-113.5"/>
<polygon fill="#191970" stroke="#191970" points="428.4236,-110.0001 418.4235,-113.5 428.4235,-117.0001 428.4236,-110.0001"/>
</g>
<!-- Node442 -->
<g id="node19" class="node">
<title>Node442</title>
<g id="a_node19"><a xlink:href="uart2_8h.html#a244148efdde4e736bdcba74328e85415" target="_top" xlink:title="zrtos_vfs_module_avr\l_uart2__on_write">
<polygon fill="#ffffff" stroke="#000000" points="477.5,-49.5 477.5,-79.5 590.5,-79.5 590.5,-49.5 477.5,-49.5"/>
<text text-anchor="start" x="485.5" y="-67.5" font-family="Helvetica,sans-Serif" font-size="10.00" fill="#000000">zrtos_vfs_module_avr</text>
<text text-anchor="middle" x="534" y="-56.5" font-family="Helvetica,sans-Serif" font-size="10.00" fill="#000000">_uart2__on_write</text>
</a>
</g>
</g>
<!-- Node439&#45;&gt;Node442 -->
<g id="edge20" class="edge">
<title>Node439&#45;&gt;Node442</title>
<path fill="none" stroke="#191970" d="M423.2836,-95.6788C442.0704,-90.3882 462.4546,-84.6478 480.5515,-79.5516"/>
<polygon fill="#191970" stroke="#191970" points="422.3024,-92.3189 413.6255,-98.3986 424.1999,-99.0568 422.3024,-92.3189"/>
</g>
<!-- Node443 -->
<g id="node20" class="node">
<title>Node443</title>
<g id="a_node20"><a xlink:href="uart3_8h.html#a0ac21cf2483f89180a91b9ca480eb7b8" target="_top" xlink:title="zrtos_vfs_module_avr\l_uart3__on_write">
<polygon fill="#ffffff" stroke="#000000" points="477.5,-.5 477.5,-30.5 590.5,-30.5 590.5,-.5 477.5,-.5"/>
<text text-anchor="start" x="485.5" y="-18.5" font-family="Helvetica,sans-Serif" font-size="10.00" fill="#000000">zrtos_vfs_module_avr</text>
<text text-anchor="middle" x="534" y="-7.5" font-family="Helvetica,sans-Serif" font-size="10.00" fill="#000000">_uart3__on_write</text>
</a>
</g>
</g>
<!-- Node439&#45;&gt;Node443 -->
<g id="edge21" class="edge">
<title>Node439&#45;&gt;Node443</title>
<path fill="none" stroke="#191970" d="M386.8472,-91.9814C407.7712,-75.959 438.0411,-54.3749 467,-39.5 473.2646,-36.2821 480.0611,-33.3074 486.8421,-30.6271"/>
<polygon fill="#191970" stroke="#191970" points="384.5154,-89.3606 378.7588,-98.2552 388.8056,-94.8918 384.5154,-89.3606"/>
</g>
<!-- Node444&#45;&gt;Node427 -->
<g id="edge23" class="edge">
<title>Node444&#45;&gt;Node427</title>
<path fill="none" stroke="#191970" d="M432.614,-425.5C443.9433,-425.5 455.6074,-425.5 466.8087,-425.5"/>
<polygon fill="#191970" stroke="#191970" points="432.3266,-422.0001 422.3265,-425.5 432.3265,-429.0001 432.3266,-422.0001"/>
</g>
<!-- Node444&#45;&gt;Node429 -->
<g id="edge24" class="edge">
<title>Node444&#45;&gt;Node429</title>
<path fill="none" stroke="#191970" d="M423.2836,-407.6788C442.0704,-402.3882 462.4546,-396.6478 480.5515,-391.5516"/>
<polygon fill="#191970" stroke="#191970" points="422.3024,-404.3189 413.6255,-410.3986 424.1999,-411.0568 422.3024,-404.3189"/>
</g>
</g>
</svg>
