<?xml version="1.0" encoding="UTF-8" standalone="no"?>
<!DOCTYPE svg PUBLIC "-//W3C//DTD SVG 1.1//EN"
 "http://www.w3.org/Graphics/SVG/1.1/DTD/svg11.dtd">
<!-- Generated by graphviz version 10.0.1 (20240210.2158)
 -->
<!-- Title: zrtos_cbuffer__start_write_transaction Pages: 1 -->
<svg width="912pt" height="416pt"
 viewBox="0.00 0.00 911.75 416.00" xmlns="http://www.w3.org/2000/svg" xmlns:xlink="http://www.w3.org/1999/xlink">
<g id="graph0" class="graph" transform="scale(1 1) rotate(0) translate(4 412)">
<title>zrtos_cbuffer__start_write_transaction</title>
<!-- Node1 -->
<g id="Node000001" class="node">
<title>Node1</title>
<g id="a_Node000001"><a xlink:title=" ">
<polygon fill="#999999" stroke="#666666" points="903.75,-98 802.25,-98 802.25,-66 903.75,-66 903.75,-98"/>
<text text-anchor="start" x="810.25" y="-84.5" font-family="Helvetica,sans-Serif" font-size="10.00">zrtos_cbuffer__start</text>
<text text-anchor="middle" x="853" y="-72.5" font-family="Helvetica,sans-Serif" font-size="10.00">_write_transaction</text>
</a>
</g>
</g>
<!-- Node2 -->
<g id="Node000002" class="node">
<title>Node2</title>
<g id="a_Node000002"><a xlink:href="cbuffer_8h.html#a5d269503e04946737598d2062c5bfaf4" target="_top" xlink:title=" ">
<polygon fill="white" stroke="#666666" points="766.25,-158 655,-158 655,-138 766.25,-138 766.25,-158"/>
<text text-anchor="middle" x="710.62" y="-144.5" font-family="Helvetica,sans-Serif" font-size="10.00">zrtos_cbuffer__put_ex</text>
</a>
</g>
</g>
<!-- Node1&#45;&gt;Node2 -->
<g id="edge1_Node000001_Node000002" class="edge">
<title>Node1&#45;&gt;Node2</title>
<g id="a_edge1_Node000001_Node000002"><a xlink:title=" ">
<path fill="none" stroke="#63b8ff" d="M806.76,-103.27C782.26,-114.79 753.09,-128.5 733.57,-137.68"/>
<polygon fill="#63b8ff" stroke="#63b8ff" points="808.01,-106.55 815.57,-99.13 805.03,-100.22 808.01,-106.55"/>
</a>
</g>
</g>
<!-- Node20 -->
<g id="Node000020" class="node">
<title>Node20</title>
<g id="a_Node000020"><a xlink:href="msg__queue_8h.html#a8d4b5575ad52b762ce101a31c5a29768" target="_top" xlink:title=" ">
<polygon fill="white" stroke="#666666" points="610,-32 486.75,-32 486.75,0 610,0 610,-32"/>
<text text-anchor="start" x="494.75" y="-18.5" font-family="Helvetica,sans-Serif" font-size="10.00">zrtos_msg_queue__start</text>
<text text-anchor="middle" x="548.38" y="-6.5" font-family="Helvetica,sans-Serif" font-size="10.00">_write_transaction</text>
</a>
</g>
</g>
<!-- Node1&#45;&gt;Node20 -->
<g id="edge21_Node000001_Node000020" class="edge">
<title>Node1&#45;&gt;Node20</title>
<g id="a_edge21_Node000001_Node000020"><a xlink:title=" ">
<path fill="none" stroke="#63b8ff" d="M790.85,-68.66C738.3,-57.2 662.91,-40.76 610.39,-29.31"/>
<polygon fill="#63b8ff" stroke="#63b8ff" points="790.03,-72.07 800.55,-70.78 791.52,-65.23 790.03,-72.07"/>
</a>
</g>
</g>
<!-- Node3 -->
<g id="Node000003" class="node">
<title>Node3</title>
<g id="a_Node000003"><a xlink:href="msg__queue_8h.html#ab51eb620b09145d1b05966404c9e0ca4" target="_top" xlink:title=" ">
<polygon fill="white" stroke="#666666" points="607,-196 489.75,-196 489.75,-176 607,-176 607,-196"/>
<text text-anchor="middle" x="548.38" y="-182.5" font-family="Helvetica,sans-Serif" font-size="10.00">zrtos_msg_queue__put</text>
</a>
</g>
</g>
<!-- Node2&#45;&gt;Node3 -->
<g id="edge2_Node000002_Node000003" class="edge">
<title>Node2&#45;&gt;Node3</title>
<g id="a_edge2_Node000002_Node000003"><a xlink:title=" ">
<path fill="none" stroke="#63b8ff" d="M654.31,-161.12C634.42,-165.83 612.26,-171.09 593.44,-175.55"/>
<polygon fill="#63b8ff" stroke="#63b8ff" points="655.02,-164.55 663.94,-158.83 653.4,-157.74 655.02,-164.55"/>
</a>
</g>
</g>
<!-- Node4 -->
<g id="Node000004" class="node">
<title>Node4</title>
<g id="a_Node000004"><a xlink:href="msg__queue_8h.html#a14fb4faf04687986da3435e06db5d587" target="_top" xlink:title=" ">
<polygon fill="white" stroke="#666666" points="619,-120 477.75,-120 477.75,-100 619,-100 619,-120"/>
<text text-anchor="middle" x="548.38" y="-106.5" font-family="Helvetica,sans-Serif" font-size="10.00">zrtos_msg_queue__put_data</text>
</a>
</g>
</g>
<!-- Node2&#45;&gt;Node4 -->
<g id="edge3_Node000002_Node000004" class="edge">
<title>Node2&#45;&gt;Node4</title>
<g id="a_edge3_Node000002_Node000004"><a xlink:title=" ">
<path fill="none" stroke="#63b8ff" d="M654.31,-134.88C634.42,-130.17 612.26,-124.91 593.44,-120.45"/>
<polygon fill="#63b8ff" stroke="#63b8ff" points="653.4,-138.26 663.94,-137.17 655.02,-131.45 653.4,-138.26"/>
</a>
</g>
</g>
<!-- Node6 -->
<g id="Node000006" class="node">
<title>Node6</title>
<g id="a_Node000006"><a xlink:href="msg__queue_8h.html#a9f24485c49e6b6ba13406e9a5d1f352d" target="_top" xlink:title=" ">
<polygon fill="white" stroke="#666666" points="607,-82 489.75,-82 489.75,-50 607,-50 607,-82"/>
<text text-anchor="start" x="497.75" y="-68.5" font-family="Helvetica,sans-Serif" font-size="10.00">zrtos_msg_queue__put</text>
<text text-anchor="middle" x="548.38" y="-56.5" font-family="Helvetica,sans-Serif" font-size="10.00">_length</text>
</a>
</g>
</g>
<!-- Node2&#45;&gt;Node6 -->
<g id="edge5_Node000002_Node000006" class="edge">
<title>Node2&#45;&gt;Node6</title>
<g id="a_edge5_Node000002_Node000006"><a xlink:title=" ">
<path fill="none" stroke="#63b8ff" d="M686.12,-131.23C668.29,-119 642.86,-102.62 619,-91 612.76,-87.96 606.06,-85.1 599.37,-82.46"/>
<polygon fill="#63b8ff" stroke="#63b8ff" points="683.98,-134 694.19,-136.84 687.98,-128.26 683.98,-134"/>
</a>
</g>
</g>
<!-- Node9 -->
<g id="Node000009" class="node">
<title>Node9</title>
<g id="a_Node000009"><a xlink:href="spi_2spi_8h.html#ac672df98eac652a9d1925ba73229c475" target="_top" xlink:title=" ">
<polygon fill="white" stroke="#666666" points="264.12,-261 155.12,-261 155.12,-229 264.12,-229 264.12,-261"/>
<text text-anchor="start" x="163.12" y="-247.5" font-family="Helvetica,sans-Serif" font-size="10.00">zrtos_vfs_module_spi</text>
<text text-anchor="middle" x="209.62" y="-235.5" font-family="Helvetica,sans-Serif" font-size="10.00">__on_write</text>
</a>
</g>
</g>
<!-- Node2&#45;&gt;Node9 -->
<g id="edge9_Node000002_Node000009" class="edge">
<title>Node2&#45;&gt;Node9</title>
<g id="a_edge9_Node000002_Node000009"><a xlink:title=" ">
<path fill="none" stroke="#63b8ff" d="M643.66,-139.3C562.59,-131.24 422.1,-125.93 311,-167 276.02,-179.93 243.48,-209.78 225.4,-228.58"/>
<polygon fill="#63b8ff" stroke="#63b8ff" points="642.89,-142.74 653.2,-140.29 643.61,-135.78 642.89,-142.74"/>
</a>
</g>
</g>
<!-- Node11 -->
<g id="Node000011" class="node">
<title>Node11</title>
<g id="a_Node000011"><a xlink:href="spi_2spi_8h.html#a7f9adeb6314d47b2442b0a17d1cc2f37" target="_top" xlink:title=" ">
<polygon fill="white" stroke="#666666" points="602.88,-358 493.88,-358 493.88,-326 602.88,-326 602.88,-358"/>
<text text-anchor="start" x="501.88" y="-344.5" font-family="Helvetica,sans-Serif" font-size="10.00">zrtos_vfs_module_spi</text>
<text text-anchor="middle" x="548.38" y="-332.5" font-family="Helvetica,sans-Serif" font-size="10.00">__transfer_in</text>
</a>
</g>
</g>
<!-- Node2&#45;&gt;Node11 -->
<g id="edge11_Node000002_Node000011" class="edge">
<title>Node2&#45;&gt;Node11</title>
<g id="a_edge11_Node000002_Node000011"><a xlink:title=" ">
<path fill="none" stroke="#63b8ff" d="M695.63,-167.57C678.29,-191.52 647.53,-233.1 619,-267 601.38,-287.93 579.77,-310.82 565.34,-325.74"/>
<polygon fill="#63b8ff" stroke="#63b8ff" points="698.31,-169.84 701.31,-159.68 692.63,-165.75 698.31,-169.84"/>
</a>
</g>
</g>
<!-- Node15 -->
<g id="Node000015" class="node">
<title>Node15</title>
<g id="a_Node000015"><a xlink:href="uart_2uart_8h.html#a9e735d9796aaa30e4a5fce9c763adf92" target="_top" xlink:title=" ">
<polygon fill="white" stroke="#666666" points="604.75,-258 492,-258 492,-226 604.75,-226 604.75,-258"/>
<text text-anchor="start" x="500" y="-244.5" font-family="Helvetica,sans-Serif" font-size="10.00">zrtos_vfs_module_uart</text>
<text text-anchor="middle" x="548.38" y="-232.5" font-family="Helvetica,sans-Serif" font-size="10.00">__on_write</text>
</a>
</g>
</g>
<!-- Node2&#45;&gt;Node15 -->
<g id="edge16_Node000002_Node000015" class="edge">
<title>Node2&#45;&gt;Node15</title>
<g id="a_edge16_Node000002_Node000015"><a xlink:title=" ">
<path fill="none" stroke="#63b8ff" d="M684.31,-164.62C666.3,-176.27 641.42,-192.01 619,-205 606.92,-212 593.41,-219.29 581.53,-225.54"/>
<polygon fill="#63b8ff" stroke="#63b8ff" points="686.05,-167.66 692.53,-159.27 682.24,-161.79 686.05,-167.66"/>
</a>
</g>
</g>
<!-- Node5 -->
<g id="Node000005" class="node">
<title>Node5</title>
<g id="a_Node000005"><a xlink:href="rtu_8h.html#ac0ca767b3e1e9a8b1f290448a122e095" target="_top" xlink:title=" ">
<polygon fill="white" stroke="#666666" points="441.75,-82 311,-82 311,-50 441.75,-50 441.75,-82"/>
<text text-anchor="start" x="319" y="-68.5" font-family="Helvetica,sans-Serif" font-size="10.00">zrtos_vfs_module_modbus</text>
<text text-anchor="middle" x="376.38" y="-56.5" font-family="Helvetica,sans-Serif" font-size="10.00">_rtu__on_write</text>
</a>
</g>
</g>
<!-- Node4&#45;&gt;Node5 -->
<g id="edge4_Node000004_Node000005" class="edge">
<title>Node4&#45;&gt;Node5</title>
<g id="a_edge4_Node000004_Node000005"><a xlink:title=" ">
<path fill="none" stroke="#63b8ff" d="M496.05,-96.72C478.71,-92.23 459.14,-87.16 440.97,-82.46"/>
<polygon fill="#63b8ff" stroke="#63b8ff" points="495.06,-100.08 505.62,-99.19 496.82,-93.3 495.06,-100.08"/>
</a>
</g>
</g>
<!-- Node6&#45;&gt;Node5 -->
<g id="edge8_Node000006_Node000005" class="edge">
<title>Node6&#45;&gt;Node5</title>
<g id="a_edge8_Node000006_Node000005"><a xlink:title=" ">
<path fill="none" stroke="#63b8ff" d="M478.11,-66C466.22,-66 453.91,-66 442.14,-66"/>
<polygon fill="#63b8ff" stroke="#63b8ff" points="477.83,-69.5 487.83,-66 477.83,-62.5 477.83,-69.5"/>
</a>
</g>
</g>
<!-- Node7 -->
<g id="Node000007" class="node">
<title>Node7</title>
<g id="a_Node000007"><a xlink:href="rtu_8h.html#a223fc39dfd241ff17884c9f5d03f8e78" target="_top" xlink:title=" ">
<polygon fill="white" stroke="#666666" points="441.75,-32 311,-32 311,0 441.75,0 441.75,-32"/>
<text text-anchor="start" x="319" y="-18.5" font-family="Helvetica,sans-Serif" font-size="10.00">zrtos_vfs_module_modbus</text>
<text text-anchor="middle" x="376.38" y="-6.5" font-family="Helvetica,sans-Serif" font-size="10.00">_rtu__on_recv_timeout</text>
</a>
</g>
</g>
<!-- Node6&#45;&gt;Node7 -->
<g id="edge6_Node000006_Node000007" class="edge">
<title>Node6&#45;&gt;Node7</title>
<g id="a_edge6_Node000006_Node000007"><a xlink:title=" ">
<path fill="none" stroke="#63b8ff" d="M481,-46.48C465.28,-41.85 448.67,-36.97 433.46,-32.49"/>
<polygon fill="#63b8ff" stroke="#63b8ff" points="479.68,-49.74 490.26,-49.2 481.65,-43.02 479.68,-49.74"/>
</a>
</g>
</g>
<!-- Node8 -->
<g id="Node000008" class="node">
<title>Node8</title>
<g id="a_Node000008"><a xlink:href="rtu_8h.html#a2376d02a52d42eef634ef843afc499f3" target="_top" xlink:title=" ">
<polygon fill="white" stroke="#666666" points="275,-32 144.25,-32 144.25,0 275,0 275,-32"/>
<text text-anchor="start" x="152.25" y="-18.5" font-family="Helvetica,sans-Serif" font-size="10.00">zrtos_vfs_module_modbus</text>
<text text-anchor="middle" x="209.62" y="-6.5" font-family="Helvetica,sans-Serif" font-size="10.00">_rtu_inode__init</text>
</a>
</g>
</g>
<!-- Node7&#45;&gt;Node8 -->
<g id="edge7_Node000007_Node000008" class="edge">
<title>Node7&#45;&gt;Node8</title>
<g id="a_edge7_Node000007_Node000008"><a xlink:title=" ">
<path fill="none" stroke="#63b8ff" d="M299.44,-16C291.39,-16 283.26,-16 275.35,-16"/>
<polygon fill="#63b8ff" stroke="#63b8ff" points="299.22,-19.5 309.22,-16 299.22,-12.5 299.22,-19.5"/>
</a>
</g>
</g>
<!-- Node10 -->
<g id="Node000010" class="node">
<title>Node10</title>
<g id="a_Node000010"><a xlink:href="avr_2spi_2spi_8h.html#ab6f547c3ce7ee0463c235abe078f9491" target="_top" xlink:title=" ">
<polygon fill="white" stroke="#666666" points="108.25,-288 0,-288 0,-256 108.25,-256 108.25,-288"/>
<text text-anchor="start" x="8" y="-274.5" font-family="Helvetica,sans-Serif" font-size="10.00">zrtos_vfs_module_avr</text>
<text text-anchor="middle" x="54.12" y="-262.5" font-family="Helvetica,sans-Serif" font-size="10.00">_spi__on_write</text>
</a>
</g>
</g>
<!-- Node9&#45;&gt;Node10 -->
<g id="edge10_Node000009_Node000010" class="edge">
<title>Node9&#45;&gt;Node10</title>
<g id="a_edge10_Node000009_Node000010"><a xlink:title=" ">
<path fill="none" stroke="#63b8ff" d="M143.82,-256.4C132.05,-258.47 119.91,-260.6 108.52,-262.61"/>
<polygon fill="#63b8ff" stroke="#63b8ff" points="144.21,-259.89 153.45,-254.71 142.99,-252.99 144.21,-259.89"/>
</a>
</g>
</g>
<!-- Node12 -->
<g id="Node000012" class="node">
<title>Node12</title>
<g id="a_Node000012"><a xlink:href="spi_2spi_8h.html#ab31c12597a3f2932aaf01466ffff59bb" target="_top" xlink:title=" ">
<polygon fill="white" stroke="#666666" points="430.88,-408 321.88,-408 321.88,-376 430.88,-376 430.88,-408"/>
<text text-anchor="start" x="329.88" y="-394.5" font-family="Helvetica,sans-Serif" font-size="10.00">zrtos_vfs_module_spi</text>
<text text-anchor="middle" x="376.38" y="-382.5" font-family="Helvetica,sans-Serif" font-size="10.00">__transfer</text>
</a>
</g>
</g>
<!-- Node11&#45;&gt;Node12 -->
<g id="edge12_Node000011_Node000012" class="edge">
<title>Node11&#45;&gt;Node12</title>
<g id="a_edge12_Node000011_Node000012"><a xlink:title=" ">
<path fill="none" stroke="#63b8ff" d="M482.61,-361.05C465.61,-366.05 447.46,-371.39 431.11,-376.2"/>
<polygon fill="#63b8ff" stroke="#63b8ff" points="483.53,-364.43 492.13,-358.25 481.55,-357.71 483.53,-364.43"/>
</a>
</g>
</g>
<!-- Node13 -->
<g id="Node000013" class="node">
<title>Node13</title>
<g id="a_Node000013"><a xlink:href="avr_2spi_2spi_8h.html#a3a0f3b324bd986778ccde00670dbabc9" target="_top" xlink:title=" ">
<polygon fill="white" stroke="#666666" points="263.75,-359 155.5,-359 155.5,-327 263.75,-327 263.75,-359"/>
<text text-anchor="start" x="163.5" y="-345.5" font-family="Helvetica,sans-Serif" font-size="10.00">zrtos_vfs_module_avr</text>
<text text-anchor="middle" x="209.62" y="-333.5" font-family="Helvetica,sans-Serif" font-size="10.00">_spi__on_interrupt</text>
</a>
</g>
</g>
<!-- Node12&#45;&gt;Node13 -->
<g id="edge13_Node000012_Node000013" class="edge">
<title>Node12&#45;&gt;Node13</title>
<g id="a_edge13_Node000012_Node000013"><a xlink:title=" ">
<path fill="none" stroke="#63b8ff" d="M310.44,-372.69C295.09,-368.12 278.9,-363.31 264.13,-358.91"/>
<polygon fill="#63b8ff" stroke="#63b8ff" points="309.4,-376.03 319.98,-375.52 311.39,-369.32 309.4,-376.03"/>
</a>
</g>
</g>
<!-- Node13&#45;&gt;Node10 -->
<g id="edge15_Node000013_Node000010" class="edge">
<title>Node13&#45;&gt;Node10</title>
<g id="a_edge15_Node000013_Node000010"><a xlink:title=" ">
<path fill="none" stroke="#63b8ff" d="M162.75,-321.78C139.62,-311.08 112,-298.31 90.53,-288.38"/>
<polygon fill="#63b8ff" stroke="#63b8ff" points="161.1,-324.88 171.65,-325.9 164.04,-318.52 161.1,-324.88"/>
</a>
</g>
</g>
<!-- Node14 -->
<g id="Node000014" class="node">
<title>Node14</title>
<g id="a_Node000014"><a xlink:href="avr_2spi_2spi_8h.html#a0353f98d744b931e541684fe33b272f7" target="_top" xlink:title=" ">
<polygon fill="white" stroke="#666666" points="70,-353 38.25,-353 38.25,-333 70,-333 70,-353"/>
<text text-anchor="middle" x="54.12" y="-339.5" font-family="Helvetica,sans-Serif" font-size="10.00">ISR</text>
</a>
</g>
</g>
<!-- Node13&#45;&gt;Node14 -->
<g id="edge14_Node000013_Node000014" class="edge">
<title>Node13&#45;&gt;Node14</title>
<g id="a_edge14_Node000013_Node000014"><a xlink:title=" ">
<path fill="none" stroke="#63b8ff" d="M143.93,-343C116.84,-343 87.7,-343 70.46,-343"/>
<polygon fill="#63b8ff" stroke="#63b8ff" points="143.86,-346.5 153.86,-343 143.86,-339.5 143.86,-346.5"/>
</a>
</g>
</g>
<!-- Node16 -->
<g id="Node000016" class="node">
<title>Node16</title>
<g id="a_Node000016"><a xlink:href="uart0_8h.html#a1c08ba1c9bac4dd9a045d06a07dbe0b4" target="_top" xlink:title=" ">
<polygon fill="white" stroke="#666666" points="430.5,-208 322.25,-208 322.25,-176 430.5,-176 430.5,-208"/>
<text text-anchor="start" x="330.25" y="-194.5" font-family="Helvetica,sans-Serif" font-size="10.00">zrtos_vfs_module_avr</text>
<text text-anchor="middle" x="376.38" y="-182.5" font-family="Helvetica,sans-Serif" font-size="10.00">_uart0__on_write</text>
</a>
</g>
</g>
<!-- Node15&#45;&gt;Node16 -->
<g id="edge17_Node000015_Node000016" class="edge">
<title>Node15&#45;&gt;Node16</title>
<g id="a_edge17_Node000015_Node000016"><a xlink:title=" ">
<path fill="none" stroke="#63b8ff" d="M480.97,-222.47C464.35,-217.58 446.75,-212.4 430.85,-207.73"/>
<polygon fill="#63b8ff" stroke="#63b8ff" points="479.68,-225.74 490.26,-225.2 481.65,-219.02 479.68,-225.74"/>
</a>
</g>
</g>
<!-- Node17 -->
<g id="Node000017" class="node">
<title>Node17</title>
<g id="a_Node000017"><a xlink:href="uart1_8h.html#af04452122e72ab7408b2e207191cdd33" target="_top" xlink:title=" ">
<polygon fill="white" stroke="#666666" points="430.5,-358 322.25,-358 322.25,-326 430.5,-326 430.5,-358"/>
<text text-anchor="start" x="330.25" y="-344.5" font-family="Helvetica,sans-Serif" font-size="10.00">zrtos_vfs_module_avr</text>
<text text-anchor="middle" x="376.38" y="-332.5" font-family="Helvetica,sans-Serif" font-size="10.00">_uart1__on_write</text>
</a>
</g>
</g>
<!-- Node15&#45;&gt;Node17 -->
<g id="edge18_Node000015_Node000017" class="edge">
<title>Node15&#45;&gt;Node17</title>
<g id="a_edge18_Node000015_Node000017"><a xlink:title=" ">
<path fill="none" stroke="#63b8ff" d="M518.87,-265.18C498.3,-281.16 469.4,-302.11 441.75,-317 436.05,-320.07 429.89,-322.96 423.72,-325.6"/>
<polygon fill="#63b8ff" stroke="#63b8ff" points="520.82,-268.1 526.52,-259.16 516.49,-262.6 520.82,-268.1"/>
</a>
</g>
</g>
<!-- Node18 -->
<g id="Node000018" class="node">
<title>Node18</title>
<g id="a_Node000018"><a xlink:href="uart2_8h.html#a244148efdde4e736bdcba74328e85415" target="_top" xlink:title=" ">
<polygon fill="white" stroke="#666666" points="430.5,-308 322.25,-308 322.25,-276 430.5,-276 430.5,-308"/>
<text text-anchor="start" x="330.25" y="-294.5" font-family="Helvetica,sans-Serif" font-size="10.00">zrtos_vfs_module_avr</text>
<text text-anchor="middle" x="376.38" y="-282.5" font-family="Helvetica,sans-Serif" font-size="10.00">_uart2__on_write</text>
</a>
</g>
</g>
<!-- Node15&#45;&gt;Node18 -->
<g id="edge19_Node000015_Node000018" class="edge">
<title>Node15&#45;&gt;Node18</title>
<g id="a_edge19_Node000015_Node000018"><a xlink:title=" ">
<path fill="none" stroke="#63b8ff" d="M480.97,-261.53C464.35,-266.42 446.75,-271.6 430.85,-276.27"/>
<polygon fill="#63b8ff" stroke="#63b8ff" points="481.65,-264.98 490.26,-258.8 479.68,-258.26 481.65,-264.98"/>
</a>
</g>
</g>
<!-- Node19 -->
<g id="Node000019" class="node">
<title>Node19</title>
<g id="a_Node000019"><a xlink:href="uart3_8h.html#a0ac21cf2483f89180a91b9ca480eb7b8" target="_top" xlink:title=" ">
<polygon fill="white" stroke="#666666" points="430.5,-258 322.25,-258 322.25,-226 430.5,-226 430.5,-258"/>
<text text-anchor="start" x="330.25" y="-244.5" font-family="Helvetica,sans-Serif" font-size="10.00">zrtos_vfs_module_avr</text>
<text text-anchor="middle" x="376.38" y="-232.5" font-family="Helvetica,sans-Serif" font-size="10.00">_uart3__on_write</text>
</a>
</g>
</g>
<!-- Node15&#45;&gt;Node19 -->
<g id="edge20_Node000015_Node000019" class="edge">
<title>Node15&#45;&gt;Node19</title>
<g id="a_edge20_Node000015_Node000019"><a xlink:title=" ">
<path fill="none" stroke="#63b8ff" d="M480.49,-242C464.02,-242 446.59,-242 430.85,-242"/>
<polygon fill="#63b8ff" stroke="#63b8ff" points="480.2,-245.5 490.2,-242 480.2,-238.5 480.2,-245.5"/>
</a>
</g>
</g>
<!-- Node20&#45;&gt;Node5 -->
<g id="edge23_Node000020_Node000005" class="edge">
<title>Node20&#45;&gt;Node5</title>
<g id="a_edge23_Node000020_Node000005"><a xlink:title=" ">
<path fill="none" stroke="#63b8ff" d="M481,-35.52C465.28,-40.15 448.67,-45.03 433.46,-49.51"/>
<polygon fill="#63b8ff" stroke="#63b8ff" points="481.65,-38.98 490.26,-32.8 479.68,-32.26 481.65,-38.98"/>
</a>
</g>
</g>
<!-- Node20&#45;&gt;Node7 -->
<g id="edge22_Node000020_Node000007" class="edge">
<title>Node20&#45;&gt;Node7</title>
<g id="a_edge22_Node000020_Node000007"><a xlink:title=" ">
<path fill="none" stroke="#63b8ff" d="M475.19,-16C464.22,-16 452.95,-16 442.15,-16"/>
<polygon fill="#63b8ff" stroke="#63b8ff" points="474.97,-19.5 484.97,-16 474.97,-12.5 474.97,-19.5"/>
</a>
</g>
</g>
</g>
</svg>
