<?xml version="1.0" encoding="UTF-8" standalone="no"?>
<!DOCTYPE svg PUBLIC "-//W3C//DTD SVG 1.1//EN"
 "http://www.w3.org/Graphics/SVG/1.1/DTD/svg11.dtd">
<!-- Generated by graphviz version 2.40.1 (20161225.0304)
 -->
<!-- Title: zrtos_cbuffer__pop Pages: 1 -->
<svg width="1006pt" height="166pt"
 viewBox="0.00 0.00 1006.00 165.50" xmlns="http://www.w3.org/2000/svg" xmlns:xlink="http://www.w3.org/1999/xlink">
<g id="graph0" class="graph" transform="scale(1 1) rotate(0) translate(4 161.5)">
<title>zrtos_cbuffer__pop</title>
<polygon fill="#ffffff" stroke="transparent" points="-4,4 -4,-161.5 1002,-161.5 1002,4 -4,4"/>
<!-- Node292 -->
<g id="node1" class="node">
<title>Node292</title>
<polygon fill="#bfbfbf" stroke="#000000" points="0,-102 0,-121 100,-121 100,-102 0,-102"/>
<text text-anchor="middle" x="50" y="-109" font-family="Helvetica,sans-Serif" font-size="10.00" fill="#000000">zrtos_cbuffer__pop</text>
</g>
<!-- Node293 -->
<g id="node2" class="node">
<title>Node293</title>
<g id="a_node2"><a xlink:href="cbuffer_8h.html#a1a9cc4256c634d99003e2397924df20a" target="_top" xlink:title="zrtos_cbuffer__get">
<polygon fill="#ffffff" stroke="#000000" points="136,-102 136,-121 234,-121 234,-102 136,-102"/>
<text text-anchor="middle" x="185" y="-109" font-family="Helvetica,sans-Serif" font-size="10.00" fill="#000000">zrtos_cbuffer__get</text>
</a>
</g>
</g>
<!-- Node292&#45;&gt;Node293 -->
<g id="edge1" class="edge">
<title>Node292&#45;&gt;Node293</title>
<path fill="none" stroke="#191970" d="M100.269,-111.5C108.4766,-111.5 117.0484,-111.5 125.4534,-111.5"/>
<polygon fill="#191970" stroke="#191970" points="125.5873,-115.0001 135.5872,-111.5 125.5872,-108.0001 125.5873,-115.0001"/>
</g>
<!-- Node294 -->
<g id="node3" class="node">
<title>Node294</title>
<g id="a_node3"><a xlink:href="list_8h.html#a5a9358f4b25c9376dbdef338fa8333a6" target="_top" xlink:title="zrtos_list__get_first_node">
<polygon fill="#ffffff" stroke="#000000" points="870,-99 870,-118 998,-118 998,-99 870,-99"/>
<text text-anchor="middle" x="934" y="-106" font-family="Helvetica,sans-Serif" font-size="10.00" fill="#000000">zrtos_list__get_first_node</text>
</a>
</g>
</g>
<!-- Node293&#45;&gt;Node294 -->
<g id="edge2" class="edge">
<title>Node293&#45;&gt;Node294</title>
<path fill="none" stroke="#191970" d="M222.5389,-121.0312C278.9906,-134.5049 389.2827,-157.5 484.5,-157.5 484.5,-157.5 484.5,-157.5 622.5,-157.5 717.4631,-157.5 826.7542,-135.0022 887.3549,-120.4956"/>
<polygon fill="#191970" stroke="#191970" points="888.4792,-123.8244 897.3713,-118.064 886.8279,-117.0219 888.4792,-123.8244"/>
</g>
<!-- Node295 -->
<g id="node4" class="node">
<title>Node295</title>
<g id="a_node4"><a xlink:href="cbuffer_8h.html#ad0932ffc31c7150402dc49c28cbf2000" target="_top" xlink:title="zrtos_cbuffer_node__get">
<polygon fill="#ffffff" stroke="#000000" points="270,-80 270,-99 394,-99 394,-80 270,-80"/>
<text text-anchor="middle" x="332" y="-87" font-family="Helvetica,sans-Serif" font-size="10.00" fill="#000000">zrtos_cbuffer_node__get</text>
</a>
</g>
</g>
<!-- Node293&#45;&gt;Node295 -->
<g id="edge3" class="edge">
<title>Node293&#45;&gt;Node295</title>
<path fill="none" stroke="#191970" d="M234.3578,-104.1131C242.5709,-102.8839 251.2365,-101.5871 259.8766,-100.294"/>
<polygon fill="#191970" stroke="#191970" points="260.6074,-103.7237 269.9792,-98.782 259.5712,-96.8008 260.6074,-103.7237"/>
</g>
<!-- Node296 -->
<g id="node5" class="node">
<title>Node296</title>
<g id="a_node5"><a xlink:href="cbuffer_8h.html#aa70b33844c0b38a531615564dc35840e" target="_top" xlink:title="zrtos_cbuffer_node\l__is_empty">
<polygon fill="#ffffff" stroke="#000000" points="434.5,-98.5 434.5,-128.5 534.5,-128.5 534.5,-98.5 434.5,-98.5"/>
<text text-anchor="start" x="442.5" y="-116.5" font-family="Helvetica,sans-Serif" font-size="10.00" fill="#000000">zrtos_cbuffer_node</text>
<text text-anchor="middle" x="484.5" y="-105.5" font-family="Helvetica,sans-Serif" font-size="10.00" fill="#000000">__is_empty</text>
</a>
</g>
</g>
<!-- Node295&#45;&gt;Node296 -->
<g id="edge4" class="edge">
<title>Node295&#45;&gt;Node296</title>
<path fill="none" stroke="#191970" d="M392.7102,-99.0544C403.0513,-100.6819 413.7907,-102.372 424.1232,-103.9981"/>
<polygon fill="#191970" stroke="#191970" points="423.8676,-107.5009 434.2902,-105.5981 424.9559,-100.586 423.8676,-107.5009"/>
</g>
<!-- Node297 -->
<g id="node6" class="node">
<title>Node297</title>
<g id="a_node6"><a xlink:href="list_8h.html#a7262d2a0c144ef76b0f45193cebb8227" target="_top" xlink:title="zrtos_list_node__has\l_next_node">
<polygon fill="#ffffff" stroke="#000000" points="430,-49.5 430,-79.5 539,-79.5 539,-49.5 430,-49.5"/>
<text text-anchor="start" x="438" y="-67.5" font-family="Helvetica,sans-Serif" font-size="10.00" fill="#000000">zrtos_list_node__has</text>
<text text-anchor="middle" x="484.5" y="-56.5" font-family="Helvetica,sans-Serif" font-size="10.00" fill="#000000">_next_node</text>
</a>
</g>
</g>
<!-- Node295&#45;&gt;Node297 -->
<g id="edge5" class="edge">
<title>Node295&#45;&gt;Node297</title>
<path fill="none" stroke="#191970" d="M390.0887,-79.9773C399.7094,-78.4001 409.7397,-76.7558 419.5172,-75.1529"/>
<polygon fill="#191970" stroke="#191970" points="420.2851,-78.5738 429.5871,-73.5021 419.1526,-71.6661 420.2851,-78.5738"/>
</g>
<!-- Node298 -->
<g id="node7" class="node">
<title>Node298</title>
<g id="a_node7"><a xlink:href="cbuffer_8h.html#afc85ab6d8226b4a1b93d11c2ba1203f6" target="_top" xlink:title="zrtos_cbuffer_node\l__free">
<polygon fill="#ffffff" stroke="#000000" points="434.5,-.5 434.5,-30.5 534.5,-30.5 534.5,-.5 434.5,-.5"/>
<text text-anchor="start" x="442.5" y="-18.5" font-family="Helvetica,sans-Serif" font-size="10.00" fill="#000000">zrtos_cbuffer_node</text>
<text text-anchor="middle" x="484.5" y="-7.5" font-family="Helvetica,sans-Serif" font-size="10.00" fill="#000000">__free</text>
</a>
</g>
</g>
<!-- Node295&#45;&gt;Node298 -->
<g id="edge6" class="edge">
<title>Node295&#45;&gt;Node298</title>
<path fill="none" stroke="#191970" d="M350.6953,-79.9185C370.3475,-69.9016 402.2101,-53.8167 430,-40.5 433.8548,-38.6528 437.8752,-36.755 441.9088,-34.8703"/>
<polygon fill="#191970" stroke="#191970" points="443.6743,-37.9096 451.2731,-30.5266 440.7287,-31.5596 443.6743,-37.9096"/>
</g>
<!-- Node299 -->
<g id="node8" class="node">
<title>Node299</title>
<g id="a_node8"><a xlink:href="list_8h.html#a2b11d9c6f775a209430f16b719a19617" target="_top" xlink:title="zrtos_list__delete">
<polygon fill="#ffffff" stroke="#000000" points="576,-61 576,-80 669,-80 669,-61 576,-61"/>
<text text-anchor="middle" x="622.5" y="-68" font-family="Helvetica,sans-Serif" font-size="10.00" fill="#000000">zrtos_list__delete</text>
</a>
</g>
</g>
<!-- Node298&#45;&gt;Node299 -->
<g id="edge7" class="edge">
<title>Node298&#45;&gt;Node299</title>
<path fill="none" stroke="#191970" d="M522.2091,-30.529C543.0577,-38.8382 568.7418,-49.0746 588.8986,-57.1081"/>
<polygon fill="#191970" stroke="#191970" points="587.7191,-60.4057 598.3043,-60.8568 590.3107,-53.9031 587.7191,-60.4057"/>
</g>
<!-- Node301 -->
<g id="node10" class="node">
<title>Node301</title>
<g id="a_node10"><a xlink:href="malloc__limit_8h.html#ad9dc03f9dd447b3ffb64b0ec3873f61f" target="_top" xlink:title="zrtos_malloc_limit\l__free">
<polygon fill="#ffffff" stroke="#000000" points="575,-.5 575,-30.5 670,-30.5 670,-.5 575,-.5"/>
<text text-anchor="start" x="583" y="-18.5" font-family="Helvetica,sans-Serif" font-size="10.00" fill="#000000">zrtos_malloc_limit</text>
<text text-anchor="middle" x="622.5" y="-7.5" font-family="Helvetica,sans-Serif" font-size="10.00" fill="#000000">__free</text>
</a>
</g>
</g>
<!-- Node298&#45;&gt;Node301 -->
<g id="edge11" class="edge">
<title>Node298&#45;&gt;Node301</title>
<path fill="none" stroke="#191970" d="M534.7115,-15.5C544.4351,-15.5 554.6974,-15.5 564.6426,-15.5"/>
<polygon fill="#191970" stroke="#191970" points="564.8558,-19.0001 574.8558,-15.5 564.8557,-12.0001 564.8558,-19.0001"/>
</g>
<!-- Node299&#45;&gt;Node294 -->
<g id="edge8" class="edge">
<title>Node299&#45;&gt;Node294</title>
<path fill="none" stroke="#191970" d="M659.2799,-80.0428C673.7539,-83.4891 690.573,-87.1141 706,-89.5 756.984,-97.3849 814.9233,-102.1597 859.6365,-104.9506"/>
<polygon fill="#191970" stroke="#191970" points="859.642,-108.4572 869.835,-105.5672 860.0645,-101.47 859.642,-108.4572"/>
</g>
<!-- Node300 -->
<g id="node9" class="node">
<title>Node300</title>
<g id="a_node9"><a xlink:href="list_8h.html#aee76d71632ab03e18ad9358fc8b35044" target="_top" xlink:title="zrtos_list__shift">
<polygon fill="#ffffff" stroke="#000000" points="727,-61 727,-80 813,-80 813,-61 727,-61"/>
<text text-anchor="middle" x="770" y="-68" font-family="Helvetica,sans-Serif" font-size="10.00" fill="#000000">zrtos_list__shift</text>
</a>
</g>
</g>
<!-- Node299&#45;&gt;Node300 -->
<g id="edge9" class="edge">
<title>Node299&#45;&gt;Node300</title>
<path fill="none" stroke="#191970" d="M669.1699,-70.5C684.1193,-70.5 700.7926,-70.5 716.2079,-70.5"/>
<polygon fill="#191970" stroke="#191970" points="716.6424,-74.0001 726.6424,-70.5 716.6423,-67.0001 716.6424,-74.0001"/>
</g>
<!-- Node300&#45;&gt;Node294 -->
<g id="edge10" class="edge">
<title>Node300&#45;&gt;Node294</title>
<path fill="none" stroke="#191970" d="M811.3841,-80.089C833.1232,-85.1261 859.9575,-91.3438 882.9747,-96.6771"/>
<polygon fill="#191970" stroke="#191970" points="882.3815,-100.1323 892.9135,-98.9799 883.9616,-93.3129 882.3815,-100.1323"/>
</g>
<!-- Node302 -->
<g id="node11" class="node">
<title>Node302</title>
<g id="a_node11"><a xlink:href="malloc_8h.html#aeba49dabb0a21ae4e02fa137e195bb1d" target="_top" xlink:title="zrtos_malloc__get_length">
<polygon fill="#ffffff" stroke="#000000" points="706,-6 706,-25 834,-25 834,-6 706,-6"/>
<text text-anchor="middle" x="770" y="-13" font-family="Helvetica,sans-Serif" font-size="10.00" fill="#000000">zrtos_malloc__get_length</text>
</a>
</g>
</g>
<!-- Node301&#45;&gt;Node302 -->
<g id="edge12" class="edge">
<title>Node301&#45;&gt;Node302</title>
<path fill="none" stroke="#191970" d="M670.389,-15.5C678.5512,-15.5 687.1973,-15.5 695.8507,-15.5"/>
<polygon fill="#191970" stroke="#191970" points="695.9839,-19.0001 705.9839,-15.5 695.9838,-12.0001 695.9839,-19.0001"/>
</g>
</g>
</svg>
