<?xml version="1.0" encoding="UTF-8" standalone="no"?>
<!DOCTYPE svg PUBLIC "-//W3C//DTD SVG 1.1//EN"
 "http://www.w3.org/Graphics/SVG/1.1/DTD/svg11.dtd">
<!-- Generated by graphviz version 2.40.1 (20161225.0304)
 -->
<!-- Title: zrtos_cbuffer_node__put Pages: 1 -->
<svg width="738pt" height="151pt"
 viewBox="0.00 0.00 738.00 150.50" xmlns="http://www.w3.org/2000/svg" xmlns:xlink="http://www.w3.org/1999/xlink">
<g id="graph0" class="graph" transform="scale(1 1) rotate(0) translate(4 146.5)">
<title>zrtos_cbuffer_node__put</title>
<polygon fill="#ffffff" stroke="transparent" points="-4,4 -4,-146.5 734,-146.5 734,4 -4,4"/>
<!-- Node746 -->
<g id="node1" class="node">
<title>Node746</title>
<polygon fill="#bfbfbf" stroke="#000000" points="0,-90.5 0,-109.5 124,-109.5 124,-90.5 0,-90.5"/>
<text text-anchor="middle" x="62" y="-97.5" font-family="Helvetica,sans-Serif" font-size="10.00" fill="#000000">zrtos_cbuffer_node__put</text>
</g>
<!-- Node747 -->
<g id="node2" class="node">
<title>Node747</title>
<g id="a_node2"><a xlink:href="cbuffer_8h.html#a0f069b28d310b9b6586aeb37ec2fb1f3" target="_top" xlink:title="zrtos_cbuffer_node\l__get_free_space">
<polygon fill="#ffffff" stroke="#000000" points="174,-109 174,-139 274,-139 274,-109 174,-109"/>
<text text-anchor="start" x="182" y="-127" font-family="Helvetica,sans-Serif" font-size="10.00" fill="#000000">zrtos_cbuffer_node</text>
<text text-anchor="middle" x="224" y="-116" font-family="Helvetica,sans-Serif" font-size="10.00" fill="#000000">__get_free_space</text>
</a>
</g>
</g>
<!-- Node746&#45;&gt;Node747 -->
<g id="edge1" class="edge">
<title>Node746&#45;&gt;Node747</title>
<path fill="none" stroke="#191970" d="M124.1701,-109.2104C137.1249,-111.1296 150.7601,-113.1496 163.6479,-115.059"/>
<polygon fill="#191970" stroke="#191970" points="163.3913,-118.5591 173.7963,-116.5624 164.4172,-111.6346 163.3913,-118.5591"/>
</g>
<!-- Node749 -->
<g id="node4" class="node">
<title>Node749</title>
<g id="a_node4"><a xlink:href="cbuffer_8h.html#a3cbe982fcebf0d5bbcdae29e3caca316" target="_top" xlink:title="zrtos_cbuffer_node__new">
<polygon fill="#ffffff" stroke="#000000" points="160,-68.5 160,-87.5 288,-87.5 288,-68.5 160,-68.5"/>
<text text-anchor="middle" x="224" y="-75.5" font-family="Helvetica,sans-Serif" font-size="10.00" fill="#000000">zrtos_cbuffer_node__new</text>
</a>
</g>
</g>
<!-- Node746&#45;&gt;Node749 -->
<g id="edge3" class="edge">
<title>Node746&#45;&gt;Node749</title>
<path fill="none" stroke="#191970" d="M124.1701,-91.5571C132.5715,-90.4162 141.259,-89.2364 149.8433,-88.0707"/>
<polygon fill="#191970" stroke="#191970" points="150.4117,-91.5257 159.8497,-86.7118 149.4697,-84.5894 150.4117,-91.5257"/>
</g>
<!-- Node748 -->
<g id="node3" class="node">
<title>Node748</title>
<g id="a_node3"><a xlink:href="cbuffer_8h.html#a640a4e58217d5c24d6e795f0fca19440" target="_top" xlink:title="zrtos_cbuffer_node\l__get_length">
<polygon fill="#ffffff" stroke="#000000" points="324,-112 324,-142 424,-142 424,-112 324,-112"/>
<text text-anchor="start" x="332" y="-130" font-family="Helvetica,sans-Serif" font-size="10.00" fill="#000000">zrtos_cbuffer_node</text>
<text text-anchor="middle" x="374" y="-119" font-family="Helvetica,sans-Serif" font-size="10.00" fill="#000000">__get_length</text>
</a>
</g>
</g>
<!-- Node747&#45;&gt;Node748 -->
<g id="edge2" class="edge">
<title>Node747&#45;&gt;Node748</title>
<path fill="none" stroke="#191970" d="M274.3651,-125.0073C286.9236,-125.2585 300.5187,-125.5304 313.5099,-125.7902"/>
<polygon fill="#191970" stroke="#191970" points="313.6998,-129.2946 323.7678,-125.9954 313.8398,-122.296 313.6998,-129.2946"/>
</g>
<!-- Node750 -->
<g id="node5" class="node">
<title>Node750</title>
<g id="a_node5"><a xlink:href="malloc__limit_8h.html#ad8180a24feb846d598a7a5a6053eb3cc" target="_top" xlink:title="zrtos_malloc_limit\l__malloc">
<polygon fill="#ffffff" stroke="#000000" points="326.5,-63 326.5,-93 421.5,-93 421.5,-63 326.5,-63"/>
<text text-anchor="start" x="334.5" y="-81" font-family="Helvetica,sans-Serif" font-size="10.00" fill="#000000">zrtos_malloc_limit</text>
<text text-anchor="middle" x="374" y="-70" font-family="Helvetica,sans-Serif" font-size="10.00" fill="#000000">__malloc</text>
</a>
</g>
</g>
<!-- Node749&#45;&gt;Node750 -->
<g id="edge4" class="edge">
<title>Node749&#45;&gt;Node750</title>
<path fill="none" stroke="#191970" d="M288.0486,-78C297.3054,-78 306.7896,-78 315.9208,-78"/>
<polygon fill="#191970" stroke="#191970" points="316.0493,-81.5001 326.0492,-78 316.0492,-74.5001 316.0493,-81.5001"/>
</g>
<!-- Node751 -->
<g id="node6" class="node">
<title>Node751</title>
<g id="a_node6"><a xlink:href="cbuffer_8h.html#aeb332726de06c905eb2db32ae3d323eb" target="_top" xlink:title="zrtos_cbuffer_node\l__init">
<polygon fill="#ffffff" stroke="#000000" points="324,-14 324,-44 424,-44 424,-14 324,-14"/>
<text text-anchor="start" x="332" y="-32" font-family="Helvetica,sans-Serif" font-size="10.00" fill="#000000">zrtos_cbuffer_node</text>
<text text-anchor="middle" x="374" y="-21" font-family="Helvetica,sans-Serif" font-size="10.00" fill="#000000">__init</text>
</a>
</g>
</g>
<!-- Node749&#45;&gt;Node751 -->
<g id="edge5" class="edge">
<title>Node749&#45;&gt;Node751</title>
<path fill="none" stroke="#191970" d="M253.2776,-68.436C271.7705,-62.395 296.2608,-54.3948 318.348,-47.1796"/>
<polygon fill="#191970" stroke="#191970" points="319.5496,-50.4692 327.9685,-44.037 317.376,-43.8152 319.5496,-50.4692"/>
</g>
<!-- Node752 -->
<g id="node7" class="node">
<title>Node752</title>
<g id="a_node7"><a xlink:href="list_8h.html#a40feeb4cd0cc4e30201a279240b52429" target="_top" xlink:title="zrtos_list_node__init">
<polygon fill="#ffffff" stroke="#000000" points="460,-38.5 460,-57.5 566,-57.5 566,-38.5 460,-38.5"/>
<text text-anchor="middle" x="513" y="-45.5" font-family="Helvetica,sans-Serif" font-size="10.00" fill="#000000">zrtos_list_node__init</text>
</a>
</g>
</g>
<!-- Node751&#45;&gt;Node752 -->
<g id="edge6" class="edge">
<title>Node751&#45;&gt;Node752</title>
<path fill="none" stroke="#191970" d="M424.1822,-35.8594C432.4543,-36.9902 441.123,-38.1751 449.6664,-39.3429"/>
<polygon fill="#191970" stroke="#191970" points="449.2249,-42.815 459.6068,-40.7017 450.173,-35.8795 449.2249,-42.815"/>
</g>
<!-- Node753 -->
<g id="node8" class="node">
<title>Node753</title>
<g id="a_node8"><a xlink:href="list_8h.html#aa734984fb49603438b179f49fff38477" target="_top" xlink:title="zrtos_list__push">
<polygon fill="#ffffff" stroke="#000000" points="469,-.5 469,-19.5 557,-19.5 557,-.5 469,-.5"/>
<text text-anchor="middle" x="513" y="-7.5" font-family="Helvetica,sans-Serif" font-size="10.00" fill="#000000">zrtos_list__push</text>
</a>
</g>
</g>
<!-- Node751&#45;&gt;Node753 -->
<g id="edge7" class="edge">
<title>Node751&#45;&gt;Node753</title>
<path fill="none" stroke="#191970" d="M424.1822,-22.1406C435.3753,-20.6106 447.2945,-18.9813 458.647,-17.4295"/>
<polygon fill="#191970" stroke="#191970" points="459.4425,-20.8534 468.8763,-16.0313 458.4944,-13.9179 459.4425,-20.8534"/>
</g>
<!-- Node754 -->
<g id="node9" class="node">
<title>Node754</title>
<g id="a_node9"><a xlink:href="list_8h.html#a0f2fe7ff1e14a9237a955a4925b062e2" target="_top" xlink:title="zrtos_list__get_last_node">
<polygon fill="#ffffff" stroke="#000000" points="602,-.5 602,-19.5 730,-19.5 730,-.5 602,-.5"/>
<text text-anchor="middle" x="666" y="-7.5" font-family="Helvetica,sans-Serif" font-size="10.00" fill="#000000">zrtos_list__get_last_node</text>
</a>
</g>
</g>
<!-- Node753&#45;&gt;Node754 -->
<g id="edge8" class="edge">
<title>Node753&#45;&gt;Node754</title>
<path fill="none" stroke="#191970" d="M557.2539,-10C568.039,-10 579.8707,-10 591.6351,-10"/>
<polygon fill="#191970" stroke="#191970" points="591.9281,-13.5001 601.9281,-10 591.928,-6.5001 591.9281,-13.5001"/>
</g>
</g>
</svg>
