<?xml version="1.0" encoding="UTF-8" standalone="no"?>
<!DOCTYPE svg PUBLIC "-//W3C//DTD SVG 1.1//EN"
 "http://www.w3.org/Graphics/SVG/1.1/DTD/svg11.dtd">
<!-- Generated by graphviz version 10.0.1 (20240210.2158)
 -->
<!-- Title: zrtos_cbuffer__get_ex Pages: 1 -->
<svg width="570pt" height="153pt"
 viewBox="0.00 0.00 570.00 153.00" xmlns="http://www.w3.org/2000/svg" xmlns:xlink="http://www.w3.org/1999/xlink">
<g id="graph0" class="graph" transform="scale(1 1) rotate(0) translate(4 149)">
<title>zrtos_cbuffer__get_ex</title>
<!-- Node1 -->
<g id="Node000001" class="node">
<title>Node1</title>
<g id="a_Node000001"><a xlink:title=" ">
<polygon fill="#999999" stroke="#666666" points="111.25,-48 0,-48 0,-28 111.25,-28 111.25,-48"/>
<text text-anchor="middle" x="55.62" y="-34.5" font-family="Helvetica,sans-Serif" font-size="10.00">zrtos_cbuffer__get_ex</text>
</a>
</g>
</g>
<!-- Node2 -->
<g id="Node000002" class="node">
<title>Node2</title>
<g id="a_Node000002"><a xlink:href="cbuffer_8h.html#a1a9cc4256c634d99003e2397924df20a" target="_top" xlink:title=" ">
<polygon fill="white" stroke="#666666" points="248.75,-70 153.25,-70 153.25,-50 248.75,-50 248.75,-70"/>
<text text-anchor="middle" x="201" y="-56.5" font-family="Helvetica,sans-Serif" font-size="10.00">zrtos_cbuffer__get</text>
</a>
</g>
</g>
<!-- Node1&#45;&gt;Node2 -->
<g id="edge1_Node000001_Node000002" class="edge">
<title>Node1&#45;&gt;Node2</title>
<g id="a_edge1_Node000001_Node000002"><a xlink:title=" ">
<path fill="none" stroke="#63b8ff" d="M111.65,-46.44C121.41,-47.94 131.61,-49.51 141.46,-51.02"/>
<polygon fill="#63b8ff" stroke="#63b8ff" points="140.92,-54.48 151.33,-52.53 141.98,-47.56 140.92,-54.48"/>
</a>
</g>
</g>
<!-- Node8 -->
<g id="Node000008" class="node">
<title>Node8</title>
<g id="a_Node000008"><a xlink:href="types_8h.html#adbc4238237e656eb247fd49ffbfb1a6d" target="_top" xlink:title=" ">
<polygon fill="white" stroke="#666666" points="254.75,-32 147.25,-32 147.25,0 254.75,0 254.75,-32"/>
<text text-anchor="start" x="155.25" y="-18.5" font-family="Helvetica,sans-Serif" font-size="10.00">zrtos_types__ptr_get</text>
<text text-anchor="middle" x="201" y="-6.5" font-family="Helvetica,sans-Serif" font-size="10.00">_byte_distance</text>
</a>
</g>
</g>
<!-- Node1&#45;&gt;Node8 -->
<g id="edge7_Node000001_Node000008" class="edge">
<title>Node1&#45;&gt;Node8</title>
<g id="a_edge7_Node000001_Node000008"><a xlink:title=" ">
<path fill="none" stroke="#63b8ff" d="M111.65,-29.56C119.48,-28.35 127.6,-27.11 135.6,-25.88"/>
<polygon fill="#63b8ff" stroke="#63b8ff" points="135.93,-29.37 145.28,-24.4 134.87,-22.45 135.93,-29.37"/>
</a>
</g>
</g>
<!-- Node3 -->
<g id="Node000003" class="node">
<title>Node3</title>
<g id="a_Node000003"><a xlink:href="cbuffer_8h.html#ad0932ffc31c7150402dc49c28cbf2000" target="_top" xlink:title=" ">
<polygon fill="white" stroke="#666666" points="415.12,-89 293.38,-89 293.38,-69 415.12,-69 415.12,-89"/>
<text text-anchor="middle" x="354.25" y="-75.5" font-family="Helvetica,sans-Serif" font-size="10.00">zrtos_cbuffer_node__get</text>
</a>
</g>
</g>
<!-- Node2&#45;&gt;Node3 -->
<g id="edge2_Node000002_Node000003" class="edge">
<title>Node2&#45;&gt;Node3</title>
<g id="a_edge2_Node000002_Node000003"><a xlink:title=" ">
<path fill="none" stroke="#63b8ff" d="M249.03,-65.91C259.5,-67.22 270.83,-68.65 282.03,-70.05"/>
<polygon fill="#63b8ff" stroke="#63b8ff" points="281.29,-73.49 291.65,-71.26 282.16,-66.54 281.29,-73.49"/>
</a>
</g>
</g>
<!-- Node7 -->
<g id="Node000007" class="node">
<title>Node7</title>
<g id="a_Node000007"><a xlink:href="list_8h.html#a0039f0f08299038ab1a71e271a43a086" target="_top" xlink:title=" ">
<polygon fill="white" stroke="#666666" points="417.75,-51 290.75,-51 290.75,-31 417.75,-31 417.75,-51"/>
<text text-anchor="middle" x="354.25" y="-37.5" font-family="Helvetica,sans-Serif" font-size="10.00">zrtos_list__get_first_node</text>
</a>
</g>
</g>
<!-- Node2&#45;&gt;Node7 -->
<g id="edge6_Node000002_Node000007" class="edge">
<title>Node2&#45;&gt;Node7</title>
<g id="a_edge6_Node000002_Node000007"><a xlink:title=" ">
<path fill="none" stroke="#63b8ff" d="M249.03,-54.09C258.64,-52.88 268.98,-51.59 279.28,-50.29"/>
<polygon fill="#63b8ff" stroke="#63b8ff" points="279.42,-53.8 288.9,-49.08 278.54,-46.86 279.42,-53.8"/>
</a>
</g>
</g>
<!-- Node4 -->
<g id="Node000004" class="node">
<title>Node4</title>
<g id="a_Node000004"><a xlink:href="cbuffer_8h.html#afc85ab6d8226b4a1b93d11c2ba1203f6" target="_top" xlink:title=" ">
<polygon fill="white" stroke="#666666" points="556.75,-145 459,-145 459,-113 556.75,-113 556.75,-145"/>
<text text-anchor="start" x="467" y="-131.5" font-family="Helvetica,sans-Serif" font-size="10.00">zrtos_cbuffer_node</text>
<text text-anchor="middle" x="507.88" y="-119.5" font-family="Helvetica,sans-Serif" font-size="10.00">__free</text>
</a>
</g>
</g>
<!-- Node3&#45;&gt;Node4 -->
<g id="edge3_Node000003_Node000004" class="edge">
<title>Node3&#45;&gt;Node4</title>
<g id="a_edge3_Node000003_Node000004"><a xlink:title=" ">
<path fill="none" stroke="#63b8ff" d="M387.04,-89.48C404.71,-95.31 427.27,-102.75 448.04,-109.6"/>
<polygon fill="#63b8ff" stroke="#63b8ff" points="446.67,-112.83 457.26,-112.64 448.86,-106.18 446.67,-112.83"/>
</a>
</g>
</g>
<!-- Node5 -->
<g id="Node000005" class="node">
<title>Node5</title>
<g id="a_Node000005"><a xlink:href="cbuffer_8h.html#aa70b33844c0b38a531615564dc35840e" target="_top" xlink:title=" ">
<polygon fill="white" stroke="#666666" points="556.75,-95 459,-95 459,-63 556.75,-63 556.75,-95"/>
<text text-anchor="start" x="467" y="-81.5" font-family="Helvetica,sans-Serif" font-size="10.00">zrtos_cbuffer_node</text>
<text text-anchor="middle" x="507.88" y="-69.5" font-family="Helvetica,sans-Serif" font-size="10.00">__is_empty</text>
</a>
</g>
</g>
<!-- Node3&#45;&gt;Node5 -->
<g id="edge4_Node000003_Node000005" class="edge">
<title>Node3&#45;&gt;Node5</title>
<g id="a_edge4_Node000003_Node000005"><a xlink:title=" ">
<path fill="none" stroke="#63b8ff" d="M415.61,-79C426.16,-79 437.13,-79 447.66,-79"/>
<polygon fill="#63b8ff" stroke="#63b8ff" points="447.34,-82.5 457.34,-79 447.34,-75.5 447.34,-82.5"/>
</a>
</g>
</g>
<!-- Node6 -->
<g id="Node000006" class="node">
<title>Node6</title>
<g id="a_Node000006"><a xlink:href="list_8h.html#a7262d2a0c144ef76b0f45193cebb8227" target="_top" xlink:title=" ">
<polygon fill="white" stroke="#666666" points="562,-45 453.75,-45 453.75,-13 562,-13 562,-45"/>
<text text-anchor="start" x="461.75" y="-31.5" font-family="Helvetica,sans-Serif" font-size="10.00">zrtos_list_node__has</text>
<text text-anchor="middle" x="507.88" y="-19.5" font-family="Helvetica,sans-Serif" font-size="10.00">_next_node</text>
</a>
</g>
</g>
<!-- Node3&#45;&gt;Node6 -->
<g id="edge5_Node000003_Node000006" class="edge">
<title>Node3&#45;&gt;Node6</title>
<g id="a_edge5_Node000003_Node000006"><a xlink:title=" ">
<path fill="none" stroke="#63b8ff" d="M390.37,-68.59C399.32,-65.87 408.91,-62.88 417.75,-60 428.26,-56.57 439.43,-52.8 450.17,-49.1"/>
<polygon fill="#63b8ff" stroke="#63b8ff" points="451,-52.52 459.3,-45.93 448.71,-45.9 451,-52.52"/>
</a>
</g>
</g>
</g>
</svg>
