<?xml version="1.0" encoding="UTF-8" standalone="no"?>
<!DOCTYPE svg PUBLIC "-//W3C//DTD SVG 1.1//EN"
 "http://www.w3.org/Graphics/SVG/1.1/DTD/svg11.dtd">
<!-- Generated by graphviz version 10.0.1 (20240210.2158)
 -->
<!-- Title: zrtos_cbuffer__put Pages: 1 -->
<svg width="929pt" height="504pt"
 viewBox="0.00 0.00 929.00 504.00" xmlns="http://www.w3.org/2000/svg" xmlns:xlink="http://www.w3.org/1999/xlink">
<g id="graph0" class="graph" transform="scale(1 1) rotate(0) translate(4 500)">
<title>zrtos_cbuffer__put</title>
<!-- Node1 -->
<g id="Node000001" class="node">
<title>Node1</title>
<g id="a_Node000001"><a xlink:title=" ">
<polygon fill="#999999" stroke="#666666" points="921,-289 825.5,-289 825.5,-269 921,-269 921,-289"/>
<text text-anchor="middle" x="873.25" y="-275.5" font-family="Helvetica,sans-Serif" font-size="10.00">zrtos_cbuffer__put</text>
</a>
</g>
</g>
<!-- Node2 -->
<g id="Node000002" class="node">
<title>Node2</title>
<g id="a_Node000002"><a xlink:href="cbuffer_8h.html#a77458b7cd6238ed911ffdab0fe328e04" target="_top" xlink:title=" ">
<polygon fill="white" stroke="#666666" points="772.25,-440 672.25,-440 672.25,-420 772.25,-420 772.25,-440"/>
<text text-anchor="middle" x="722.25" y="-426.5" font-family="Helvetica,sans-Serif" font-size="10.00">zrtos_cbuffer__pipe</text>
</a>
</g>
</g>
<!-- Node1&#45;&gt;Node2 -->
<g id="edge1_Node000001_Node000002" class="edge">
<title>Node1&#45;&gt;Node2</title>
<g id="a_edge1_Node000001_Node000002"><a xlink:title=" ">
<path fill="none" stroke="#63b8ff" d="M854.02,-297.48C822.43,-329.49 758.52,-394.26 733.56,-419.55"/>
<polygon fill="#63b8ff" stroke="#63b8ff" points="856.41,-300.03 860.95,-290.46 851.43,-295.12 856.41,-300.03"/>
</a>
</g>
</g>
<!-- Node8 -->
<g id="Node000008" class="node">
<title>Node8</title>
<g id="a_Node000008"><a xlink:href="cbuffer_8h.html#a5d269503e04946737598d2062c5bfaf4" target="_top" xlink:title=" ">
<polygon fill="white" stroke="#666666" points="777.88,-289 666.62,-289 666.62,-269 777.88,-269 777.88,-289"/>
<text text-anchor="middle" x="722.25" y="-275.5" font-family="Helvetica,sans-Serif" font-size="10.00">zrtos_cbuffer__put_ex</text>
</a>
</g>
</g>
<!-- Node1&#45;&gt;Node8 -->
<g id="edge8_Node000001_Node000008" class="edge">
<title>Node1&#45;&gt;Node8</title>
<g id="a_edge8_Node000001_Node000008"><a xlink:title=" ">
<path fill="none" stroke="#63b8ff" d="M813.64,-279C801.95,-279 789.71,-279 778.15,-279"/>
<polygon fill="#63b8ff" stroke="#63b8ff" points="813.59,-282.5 823.59,-279 813.59,-275.5 813.59,-282.5"/>
</a>
</g>
</g>
<!-- Node24 -->
<g id="Node000024" class="node">
<title>Node24</title>
<g id="a_Node000024"><a xlink:href="avr_2uart_2uart_8h.html#aea39870a896298195c0769800af5b3e2" target="_top" xlink:title=" ">
<polygon fill="white" stroke="#666666" points="789.5,-113 655,-113 655,-81 789.5,-81 789.5,-113"/>
<text text-anchor="start" x="663" y="-99.5" font-family="Helvetica,sans-Serif" font-size="10.00">zrtos_vfs_module_avr</text>
<text text-anchor="middle" x="722.25" y="-87.5" font-family="Helvetica,sans-Serif" font-size="10.00">_uart__on_receive_interrupt</text>
</a>
</g>
</g>
<!-- Node1&#45;&gt;Node24 -->
<g id="edge27_Node000001_Node000024" class="edge">
<title>Node1&#45;&gt;Node24</title>
<g id="a_edge27_Node000001_Node000024"><a xlink:title=" ">
<path fill="none" stroke="#63b8ff" d="M856.83,-260.16C827.56,-224.41 764.41,-147.28 736.72,-113.46"/>
<polygon fill="#63b8ff" stroke="#63b8ff" points="853.81,-262 862.85,-267.52 859.23,-257.57 853.81,-262"/>
</a>
</g>
</g>
<!-- Node3 -->
<g id="Node000003" class="node">
<title>Node3</title>
<g id="a_Node000003"><a xlink:href="msg__queue_8h.html#a40db633a8c0ef5e3bba9cc700e45f7ef" target="_top" xlink:title=" ">
<polygon fill="white" stroke="#666666" points="614.5,-496 482.25,-496 482.25,-464 614.5,-464 614.5,-496"/>
<text text-anchor="start" x="490.25" y="-482.5" font-family="Helvetica,sans-Serif" font-size="10.00">zrtos_msg_queue__pipe</text>
<text text-anchor="middle" x="548.38" y="-470.5" font-family="Helvetica,sans-Serif" font-size="10.00">_next_message_to_cbuffer</text>
</a>
</g>
</g>
<!-- Node2&#45;&gt;Node3 -->
<g id="edge2_Node000002_Node000003" class="edge">
<title>Node2&#45;&gt;Node3</title>
<g id="a_edge2_Node000002_Node000003"><a xlink:title=" ">
<path fill="none" stroke="#63b8ff" d="M674.27,-443.67C653.18,-449.8 628.11,-457.09 605.99,-463.53"/>
<polygon fill="#63b8ff" stroke="#63b8ff" points="675.14,-447.06 683.77,-440.9 673.19,-440.34 675.14,-447.06"/>
</a>
</g>
</g>
<!-- Node6 -->
<g id="Node000006" class="node">
<title>Node6</title>
<g id="a_Node000006"><a xlink:href="msg__queue_8h.html#a7b05ddf4bc60700bfe0b9d3a0f11664b" target="_top" xlink:title=" ">
<polygon fill="white" stroke="#666666" points="607,-446 489.75,-446 489.75,-414 607,-414 607,-446"/>
<text text-anchor="start" x="497.75" y="-432.5" font-family="Helvetica,sans-Serif" font-size="10.00">zrtos_msg_queue__put</text>
<text text-anchor="middle" x="548.38" y="-420.5" font-family="Helvetica,sans-Serif" font-size="10.00">_cbuffer_data</text>
</a>
</g>
</g>
<!-- Node2&#45;&gt;Node6 -->
<g id="edge5_Node000002_Node000006" class="edge">
<title>Node2&#45;&gt;Node6</title>
<g id="a_edge5_Node000002_Node000006"><a xlink:title=" ">
<path fill="none" stroke="#63b8ff" d="M660.86,-430C643.52,-430 624.65,-430 607.45,-430"/>
<polygon fill="#63b8ff" stroke="#63b8ff" points="660.48,-433.5 670.48,-430 660.48,-426.5 660.48,-433.5"/>
</a>
</g>
</g>
<!-- Node4 -->
<g id="Node000004" class="node">
<title>Node4</title>
<g id="a_Node000004"><a xlink:href="rtu_8h.html#ab23606290979709ef6fefa7c6970e64e" target="_top" xlink:title=" ">
<polygon fill="white" stroke="#666666" points="441.75,-496 311,-496 311,-464 441.75,-464 441.75,-496"/>
<text text-anchor="start" x="319" y="-482.5" font-family="Helvetica,sans-Serif" font-size="10.00">zrtos_vfs_module_modbus</text>
<text text-anchor="middle" x="376.38" y="-470.5" font-family="Helvetica,sans-Serif" font-size="10.00">_rtu__on_send</text>
</a>
</g>
</g>
<!-- Node3&#45;&gt;Node4 -->
<g id="edge3_Node000003_Node000004" class="edge">
<title>Node3&#45;&gt;Node4</title>
<g id="a_edge3_Node000003_Node000004"><a xlink:title=" ">
<path fill="none" stroke="#63b8ff" d="M470.63,-480C461.12,-480 451.47,-480 442.16,-480"/>
<polygon fill="#63b8ff" stroke="#63b8ff" points="470.62,-483.5 480.62,-480 470.62,-476.5 470.62,-483.5"/>
</a>
</g>
</g>
<!-- Node5 -->
<g id="Node000005" class="node">
<title>Node5</title>
<g id="a_Node000005"><a xlink:href="rtu_8h.html#aac1c0a8f15ec0cd7540f53a61fe9ff08" target="_top" xlink:title=" ">
<polygon fill="white" stroke="#666666" points="275,-471 144.25,-471 144.25,-439 275,-439 275,-471"/>
<text text-anchor="start" x="152.25" y="-457.5" font-family="Helvetica,sans-Serif" font-size="10.00">zrtos_vfs_module_modbus</text>
<text text-anchor="middle" x="209.62" y="-445.5" font-family="Helvetica,sans-Serif" font-size="10.00">_rtu_args__init</text>
</a>
</g>
</g>
<!-- Node4&#45;&gt;Node5 -->
<g id="edge4_Node000004_Node000005" class="edge">
<title>Node4&#45;&gt;Node5</title>
<g id="a_edge4_Node000004_Node000005"><a xlink:title=" ">
<path fill="none" stroke="#63b8ff" d="M299.44,-468.48C291.39,-467.26 283.26,-466.02 275.35,-464.82"/>
<polygon fill="#63b8ff" stroke="#63b8ff" points="298.83,-471.92 309.24,-469.96 299.88,-465 298.83,-471.92"/>
</a>
</g>
</g>
<!-- Node7 -->
<g id="Node000007" class="node">
<title>Node7</title>
<g id="a_Node000007"><a xlink:href="rtu_8h.html#a223fc39dfd241ff17884c9f5d03f8e78" target="_top" xlink:title=" ">
<polygon fill="white" stroke="#666666" points="441.75,-446 311,-446 311,-414 441.75,-414 441.75,-446"/>
<text text-anchor="start" x="319" y="-432.5" font-family="Helvetica,sans-Serif" font-size="10.00">zrtos_vfs_module_modbus</text>
<text text-anchor="middle" x="376.38" y="-420.5" font-family="Helvetica,sans-Serif" font-size="10.00">_rtu__on_recv_timeout</text>
</a>
</g>
</g>
<!-- Node6&#45;&gt;Node7 -->
<g id="edge6_Node000006_Node000007" class="edge">
<title>Node6&#45;&gt;Node7</title>
<g id="a_edge6_Node000006_Node000007"><a xlink:title=" ">
<path fill="none" stroke="#63b8ff" d="M478.11,-430C466.22,-430 453.91,-430 442.14,-430"/>
<polygon fill="#63b8ff" stroke="#63b8ff" points="477.83,-433.5 487.83,-430 477.83,-426.5 477.83,-433.5"/>
</a>
</g>
</g>
<!-- Node7&#45;&gt;Node5 -->
<g id="edge7_Node000007_Node000005" class="edge">
<title>Node7&#45;&gt;Node5</title>
<g id="a_edge7_Node000007_Node000005"><a xlink:title=" ">
<path fill="none" stroke="#63b8ff" d="M299.44,-441.52C291.39,-442.74 283.26,-443.98 275.35,-445.18"/>
<polygon fill="#63b8ff" stroke="#63b8ff" points="299.88,-445 309.24,-440.04 298.83,-438.08 299.88,-445"/>
</a>
</g>
</g>
<!-- Node9 -->
<g id="Node000009" class="node">
<title>Node9</title>
<g id="a_Node000009"><a xlink:href="msg__queue_8h.html#ab51eb620b09145d1b05966404c9e0ca4" target="_top" xlink:title=" ">
<polygon fill="white" stroke="#666666" points="607,-396 489.75,-396 489.75,-376 607,-376 607,-396"/>
<text text-anchor="middle" x="548.38" y="-382.5" font-family="Helvetica,sans-Serif" font-size="10.00">zrtos_msg_queue__put</text>
</a>
</g>
</g>
<!-- Node8&#45;&gt;Node9 -->
<g id="edge9_Node000008_Node000009" class="edge">
<title>Node8&#45;&gt;Node9</title>
<g id="a_edge9_Node000008_Node000009"><a xlink:title=" ">
<path fill="none" stroke="#63b8ff" d="M704.53,-297.66C685.64,-317.64 653.08,-348.89 619,-367 612.58,-370.41 605.5,-373.25 598.38,-375.6"/>
<polygon fill="#63b8ff" stroke="#63b8ff" points="706.95,-300.2 711.17,-290.48 701.81,-295.44 706.95,-300.2"/>
</a>
</g>
</g>
<!-- Node10 -->
<g id="Node000010" class="node">
<title>Node10</title>
<g id="a_Node000010"><a xlink:href="msg__queue_8h.html#a14fb4faf04687986da3435e06db5d587" target="_top" xlink:title=" ">
<polygon fill="white" stroke="#666666" points="619,-308 477.75,-308 477.75,-288 619,-288 619,-308"/>
<text text-anchor="middle" x="548.38" y="-294.5" font-family="Helvetica,sans-Serif" font-size="10.00">zrtos_msg_queue__put_data</text>
</a>
</g>
</g>
<!-- Node8&#45;&gt;Node10 -->
<g id="edge10_Node000008_Node000010" class="edge">
<title>Node8&#45;&gt;Node10</title>
<g id="a_edge10_Node000008_Node000010"><a xlink:title=" ">
<path fill="none" stroke="#63b8ff" d="M654.96,-286.33C643.32,-287.62 631.17,-288.96 619.43,-290.26"/>
<polygon fill="#63b8ff" stroke="#63b8ff" points="655.34,-289.81 664.89,-285.23 654.57,-282.85 655.34,-289.81"/>
</a>
</g>
</g>
<!-- Node12 -->
<g id="Node000012" class="node">
<title>Node12</title>
<g id="a_Node000012"><a xlink:href="msg__queue_8h.html#a9f24485c49e6b6ba13406e9a5d1f352d" target="_top" xlink:title=" ">
<polygon fill="white" stroke="#666666" points="607,-358 489.75,-358 489.75,-326 607,-326 607,-358"/>
<text text-anchor="start" x="497.75" y="-344.5" font-family="Helvetica,sans-Serif" font-size="10.00">zrtos_msg_queue__put</text>
<text text-anchor="middle" x="548.38" y="-332.5" font-family="Helvetica,sans-Serif" font-size="10.00">_length</text>
</a>
</g>
</g>
<!-- Node8&#45;&gt;Node12 -->
<g id="edge12_Node000008_Node000012" class="edge">
<title>Node8&#45;&gt;Node12</title>
<g id="a_edge12_Node000008_Node000012"><a xlink:title=" ">
<path fill="none" stroke="#63b8ff" d="M682.79,-293.41C663.63,-300.56 640.11,-309.29 619,-317 611.4,-319.78 603.32,-322.7 595.47,-325.53"/>
<polygon fill="#63b8ff" stroke="#63b8ff" points="683.95,-296.71 692.09,-289.93 681.5,-290.16 683.95,-296.71"/>
</a>
</g>
</g>
<!-- Node13 -->
<g id="Node000013" class="node">
<title>Node13</title>
<g id="a_Node000013"><a xlink:href="spi_2spi_8h.html#ac672df98eac652a9d1925ba73229c475" target="_top" xlink:title=" ">
<polygon fill="white" stroke="#666666" points="264.12,-279 155.12,-279 155.12,-247 264.12,-247 264.12,-279"/>
<text text-anchor="start" x="163.12" y="-265.5" font-family="Helvetica,sans-Serif" font-size="10.00">zrtos_vfs_module_spi</text>
<text text-anchor="middle" x="209.62" y="-253.5" font-family="Helvetica,sans-Serif" font-size="10.00">__on_write</text>
</a>
</g>
</g>
<!-- Node8&#45;&gt;Node13 -->
<g id="edge15_Node000008_Node000013" class="edge">
<title>Node8&#45;&gt;Node13</title>
<g id="a_edge15_Node000008_Node000013"><a xlink:title=" ">
<path fill="none" stroke="#63b8ff" d="M655.22,-276.93C553.06,-273.73 358.7,-267.64 264.49,-264.69"/>
<polygon fill="#63b8ff" stroke="#63b8ff" points="654.99,-280.43 665.09,-277.24 655.21,-273.43 654.99,-280.43"/>
</a>
</g>
</g>
<!-- Node15 -->
<g id="Node000015" class="node">
<title>Node15</title>
<g id="a_Node000015"><a xlink:href="spi_2spi_8h.html#a7f9adeb6314d47b2442b0a17d1cc2f37" target="_top" xlink:title=" ">
<polygon fill="white" stroke="#666666" points="602.88,-232 493.88,-232 493.88,-200 602.88,-200 602.88,-232"/>
<text text-anchor="start" x="501.88" y="-218.5" font-family="Helvetica,sans-Serif" font-size="10.00">zrtos_vfs_module_spi</text>
<text text-anchor="middle" x="548.38" y="-206.5" font-family="Helvetica,sans-Serif" font-size="10.00">__transfer_in</text>
</a>
</g>
</g>
<!-- Node8&#45;&gt;Node15 -->
<g id="edge17_Node000008_Node000015" class="edge">
<title>Node8&#45;&gt;Node15</title>
<g id="a_edge17_Node000008_Node000015"><a xlink:title=" ">
<path fill="none" stroke="#63b8ff" d="M682.22,-264.69C656.07,-255.11 621.57,-242.46 594.28,-232.46"/>
<polygon fill="#63b8ff" stroke="#63b8ff" points="680.85,-267.92 691.45,-268.08 683.26,-261.35 680.85,-267.92"/>
</a>
</g>
</g>
<!-- Node19 -->
<g id="Node000019" class="node">
<title>Node19</title>
<g id="a_Node000019"><a xlink:href="uart_2uart_8h.html#a9e735d9796aaa30e4a5fce9c763adf92" target="_top" xlink:title=" ">
<polygon fill="white" stroke="#666666" points="604.75,-157 492,-157 492,-125 604.75,-125 604.75,-157"/>
<text text-anchor="start" x="500" y="-143.5" font-family="Helvetica,sans-Serif" font-size="10.00">zrtos_vfs_module_uart</text>
<text text-anchor="middle" x="548.38" y="-131.5" font-family="Helvetica,sans-Serif" font-size="10.00">__on_write</text>
</a>
</g>
</g>
<!-- Node8&#45;&gt;Node19 -->
<g id="edge22_Node000008_Node000019" class="edge">
<title>Node8&#45;&gt;Node19</title>
<g id="a_edge22_Node000008_Node000019"><a xlink:title=" ">
<path fill="none" stroke="#63b8ff" d="M701.48,-261.08C681.2,-242.91 648.53,-214.24 619,-191 604.15,-179.31 586.9,-166.92 573.28,-157.39"/>
<polygon fill="#63b8ff" stroke="#63b8ff" points="698.98,-263.53 708.75,-267.62 703.66,-258.33 698.98,-263.53"/>
</a>
</g>
</g>
<!-- Node11 -->
<g id="Node000011" class="node">
<title>Node11</title>
<g id="a_Node000011"><a xlink:href="rtu_8h.html#ac0ca767b3e1e9a8b1f290448a122e095" target="_top" xlink:title=" ">
<polygon fill="white" stroke="#666666" points="441.75,-339 311,-339 311,-307 441.75,-307 441.75,-339"/>
<text text-anchor="start" x="319" y="-325.5" font-family="Helvetica,sans-Serif" font-size="10.00">zrtos_vfs_module_modbus</text>
<text text-anchor="middle" x="376.38" y="-313.5" font-family="Helvetica,sans-Serif" font-size="10.00">_rtu__on_write</text>
</a>
</g>
</g>
<!-- Node10&#45;&gt;Node11 -->
<g id="edge11_Node000010_Node000011" class="edge">
<title>Node10&#45;&gt;Node11</title>
<g id="a_edge11_Node000010_Node000011"><a xlink:title=" ">
<path fill="none" stroke="#63b8ff" d="M466.56,-309.88C458.31,-311.1 450.02,-312.32 441.98,-313.5"/>
<polygon fill="#63b8ff" stroke="#63b8ff" points="466.86,-313.38 476.24,-308.46 465.84,-306.45 466.86,-313.38"/>
</a>
</g>
</g>
<!-- Node12&#45;&gt;Node7 -->
<g id="edge13_Node000012_Node000007" class="edge">
<title>Node12&#45;&gt;Node7</title>
<g id="a_edge13_Node000012_Node000007"><a xlink:title=" ">
<path fill="none" stroke="#63b8ff" d="M486.78,-362.85C483.7,-364.19 480.67,-365.58 477.75,-367 449.81,-380.59 419.91,-400.06 400.08,-413.76"/>
<polygon fill="#63b8ff" stroke="#63b8ff" points="488.08,-366.1 495.99,-359.05 485.41,-359.63 488.08,-366.1"/>
</a>
</g>
</g>
<!-- Node12&#45;&gt;Node11 -->
<g id="edge14_Node000012_Node000011" class="edge">
<title>Node12&#45;&gt;Node11</title>
<g id="a_edge14_Node000012_Node000011"><a xlink:title=" ">
<path fill="none" stroke="#63b8ff" d="M478.11,-334.26C466.22,-332.93 453.91,-331.55 442.14,-330.24"/>
<polygon fill="#63b8ff" stroke="#63b8ff" points="477.52,-337.71 487.84,-335.35 478.29,-330.76 477.52,-337.71"/>
</a>
</g>
</g>
<!-- Node14 -->
<g id="Node000014" class="node">
<title>Node14</title>
<g id="a_Node000014"><a xlink:href="avr_2spi_2spi_8h.html#ab6f547c3ce7ee0463c235abe078f9491" target="_top" xlink:title=" ">
<polygon fill="white" stroke="#666666" points="108.25,-276 0,-276 0,-244 108.25,-244 108.25,-276"/>
<text text-anchor="start" x="8" y="-262.5" font-family="Helvetica,sans-Serif" font-size="10.00">zrtos_vfs_module_avr</text>
<text text-anchor="middle" x="54.12" y="-250.5" font-family="Helvetica,sans-Serif" font-size="10.00">_spi__on_write</text>
</a>
</g>
</g>
<!-- Node13&#45;&gt;Node14 -->
<g id="edge16_Node000013_Node000014" class="edge">
<title>Node13&#45;&gt;Node14</title>
<g id="a_edge16_Node000013_Node000014"><a xlink:title=" ">
<path fill="none" stroke="#63b8ff" d="M143.45,-261.73C131.8,-261.5 119.79,-261.26 108.52,-261.04"/>
<polygon fill="#63b8ff" stroke="#63b8ff" points="143.36,-265.23 153.42,-261.92 143.5,-258.23 143.36,-265.23"/>
</a>
</g>
</g>
<!-- Node16 -->
<g id="Node000016" class="node">
<title>Node16</title>
<g id="a_Node000016"><a xlink:href="spi_2spi_8h.html#ab31c12597a3f2932aaf01466ffff59bb" target="_top" xlink:title=" ">
<polygon fill="white" stroke="#666666" points="430.88,-232 321.88,-232 321.88,-200 430.88,-200 430.88,-232"/>
<text text-anchor="start" x="329.88" y="-218.5" font-family="Helvetica,sans-Serif" font-size="10.00">zrtos_vfs_module_spi</text>
<text text-anchor="middle" x="376.38" y="-206.5" font-family="Helvetica,sans-Serif" font-size="10.00">__transfer</text>
</a>
</g>
</g>
<!-- Node15&#45;&gt;Node16 -->
<g id="edge18_Node000015_Node000016" class="edge">
<title>Node15&#45;&gt;Node16</title>
<g id="a_edge18_Node000015_Node000016"><a xlink:title=" ">
<path fill="none" stroke="#63b8ff" d="M482.12,-216C465.26,-216 447.3,-216 431.11,-216"/>
<polygon fill="#63b8ff" stroke="#63b8ff" points="482.07,-219.5 492.07,-216 482.07,-212.5 482.07,-219.5"/>
</a>
</g>
</g>
<!-- Node17 -->
<g id="Node000017" class="node">
<title>Node17</title>
<g id="a_Node000017"><a xlink:href="avr_2spi_2spi_8h.html#a3a0f3b324bd986778ccde00670dbabc9" target="_top" xlink:title=" ">
<polygon fill="white" stroke="#666666" points="263.75,-229 155.5,-229 155.5,-197 263.75,-197 263.75,-229"/>
<text text-anchor="start" x="163.5" y="-215.5" font-family="Helvetica,sans-Serif" font-size="10.00">zrtos_vfs_module_avr</text>
<text text-anchor="middle" x="209.62" y="-203.5" font-family="Helvetica,sans-Serif" font-size="10.00">_spi__on_interrupt</text>
</a>
</g>
</g>
<!-- Node16&#45;&gt;Node17 -->
<g id="edge19_Node000016_Node000017" class="edge">
<title>Node16&#45;&gt;Node17</title>
<g id="a_edge19_Node000016_Node000017"><a xlink:title=" ">
<path fill="none" stroke="#63b8ff" d="M309.99,-214.81C294.78,-214.53 278.76,-214.24 264.13,-213.97"/>
<polygon fill="#63b8ff" stroke="#63b8ff" points="309.85,-218.31 319.92,-214.99 309.98,-211.31 309.85,-218.31"/>
</a>
</g>
</g>
<!-- Node17&#45;&gt;Node14 -->
<g id="edge21_Node000017_Node000014" class="edge">
<title>Node17&#45;&gt;Node14</title>
<g id="a_edge21_Node000017_Node000014"><a xlink:title=" ">
<path fill="none" stroke="#63b8ff" d="M144.53,-232.63C132.55,-236.29 120.16,-240.09 108.55,-243.64"/>
<polygon fill="#63b8ff" stroke="#63b8ff" points="145.38,-236.02 153.92,-229.75 143.34,-229.33 145.38,-236.02"/>
</a>
</g>
</g>
<!-- Node18 -->
<g id="Node000018" class="node">
<title>Node18</title>
<g id="a_Node000018"><a xlink:href="avr_2spi_2spi_8h.html#a0353f98d744b931e541684fe33b272f7" target="_top" xlink:title=" ">
<polygon fill="white" stroke="#666666" points="70,-223 38.25,-223 38.25,-203 70,-203 70,-223"/>
<text text-anchor="middle" x="54.12" y="-209.5" font-family="Helvetica,sans-Serif" font-size="10.00">ISR</text>
</a>
</g>
</g>
<!-- Node17&#45;&gt;Node18 -->
<g id="edge20_Node000017_Node000018" class="edge">
<title>Node17&#45;&gt;Node18</title>
<g id="a_edge20_Node000017_Node000018"><a xlink:title=" ">
<path fill="none" stroke="#63b8ff" d="M143.93,-213C116.84,-213 87.7,-213 70.46,-213"/>
<polygon fill="#63b8ff" stroke="#63b8ff" points="143.86,-216.5 153.86,-213 143.86,-209.5 143.86,-216.5"/>
</a>
</g>
</g>
<!-- Node20 -->
<g id="Node000020" class="node">
<title>Node20</title>
<g id="a_Node000020"><a xlink:href="uart0_8h.html#a1c08ba1c9bac4dd9a045d06a07dbe0b4" target="_top" xlink:title=" ">
<polygon fill="white" stroke="#666666" points="430.5,-182 322.25,-182 322.25,-150 430.5,-150 430.5,-182"/>
<text text-anchor="start" x="330.25" y="-168.5" font-family="Helvetica,sans-Serif" font-size="10.00">zrtos_vfs_module_avr</text>
<text text-anchor="middle" x="376.38" y="-156.5" font-family="Helvetica,sans-Serif" font-size="10.00">_uart0__on_write</text>
</a>
</g>
</g>
<!-- Node19&#45;&gt;Node20 -->
<g id="edge23_Node000019_Node000020" class="edge">
<title>Node19&#45;&gt;Node20</title>
<g id="a_edge23_Node000019_Node000020"><a xlink:title=" ">
<path fill="none" stroke="#63b8ff" d="M480.49,-150.84C464.02,-153.26 446.59,-155.82 430.85,-158.14"/>
<polygon fill="#63b8ff" stroke="#63b8ff" points="480.83,-154.32 490.21,-149.41 479.81,-147.4 480.83,-154.32"/>
</a>
</g>
</g>
<!-- Node21 -->
<g id="Node000021" class="node">
<title>Node21</title>
<g id="a_Node000021"><a xlink:href="uart1_8h.html#af04452122e72ab7408b2e207191cdd33" target="_top" xlink:title=" ">
<polygon fill="white" stroke="#666666" points="430.5,-132 322.25,-132 322.25,-100 430.5,-100 430.5,-132"/>
<text text-anchor="start" x="330.25" y="-118.5" font-family="Helvetica,sans-Serif" font-size="10.00">zrtos_vfs_module_avr</text>
<text text-anchor="middle" x="376.38" y="-106.5" font-family="Helvetica,sans-Serif" font-size="10.00">_uart1__on_write</text>
</a>
</g>
</g>
<!-- Node19&#45;&gt;Node21 -->
<g id="edge24_Node000019_Node000021" class="edge">
<title>Node19&#45;&gt;Node21</title>
<g id="a_edge24_Node000019_Node000021"><a xlink:title=" ">
<path fill="none" stroke="#63b8ff" d="M480.49,-131.16C464.02,-128.74 446.59,-126.18 430.85,-123.86"/>
<polygon fill="#63b8ff" stroke="#63b8ff" points="479.81,-134.6 490.21,-132.59 480.83,-127.68 479.81,-134.6"/>
</a>
</g>
</g>
<!-- Node22 -->
<g id="Node000022" class="node">
<title>Node22</title>
<g id="a_Node000022"><a xlink:href="uart2_8h.html#a244148efdde4e736bdcba74328e85415" target="_top" xlink:title=" ">
<polygon fill="white" stroke="#666666" points="430.5,-82 322.25,-82 322.25,-50 430.5,-50 430.5,-82"/>
<text text-anchor="start" x="330.25" y="-68.5" font-family="Helvetica,sans-Serif" font-size="10.00">zrtos_vfs_module_avr</text>
<text text-anchor="middle" x="376.38" y="-56.5" font-family="Helvetica,sans-Serif" font-size="10.00">_uart2__on_write</text>
</a>
</g>
</g>
<!-- Node19&#45;&gt;Node22 -->
<g id="edge25_Node000019_Node000022" class="edge">
<title>Node19&#45;&gt;Node22</title>
<g id="a_edge25_Node000019_Node000022"><a xlink:title=" ">
<path fill="none" stroke="#63b8ff" d="M486.06,-120.02C483.22,-118.73 480.44,-117.39 477.75,-116 460.43,-107.08 458.95,-100.15 441.75,-91 436.03,-87.96 429.86,-85.09 423.69,-82.45"/>
<polygon fill="#63b8ff" stroke="#63b8ff" points="484.55,-123.18 495.12,-123.91 487.31,-116.75 484.55,-123.18"/>
</a>
</g>
</g>
<!-- Node23 -->
<g id="Node000023" class="node">
<title>Node23</title>
<g id="a_Node000023"><a xlink:href="uart3_8h.html#a0ac21cf2483f89180a91b9ca480eb7b8" target="_top" xlink:title=" ">
<polygon fill="white" stroke="#666666" points="430.5,-32 322.25,-32 322.25,0 430.5,0 430.5,-32"/>
<text text-anchor="start" x="330.25" y="-18.5" font-family="Helvetica,sans-Serif" font-size="10.00">zrtos_vfs_module_avr</text>
<text text-anchor="middle" x="376.38" y="-6.5" font-family="Helvetica,sans-Serif" font-size="10.00">_uart3__on_write</text>
</a>
</g>
</g>
<!-- Node19&#45;&gt;Node23 -->
<g id="edge26_Node000019_Node000023" class="edge">
<title>Node19&#45;&gt;Node23</title>
<g id="a_edge26_Node000019_Node000023"><a xlink:title=" ">
<path fill="none" stroke="#63b8ff" d="M482.28,-119.71C480.71,-118.54 479.19,-117.3 477.75,-116 450.3,-91.23 468.88,-66.12 441.75,-41 438.23,-37.74 434.24,-34.89 430.01,-32.4"/>
<polygon fill="#63b8ff" stroke="#63b8ff" points="480.24,-122.56 490.57,-124.94 483.98,-116.64 480.24,-122.56"/>
</a>
</g>
</g>
<!-- Node25 -->
<g id="Node000025" class="node">
<title>Node25</title>
<g id="a_Node000025"><a xlink:href="uart0_8h.html#a69856cc389c8b76c8cf8c45ea5a33bc7" target="_top" xlink:title=" ">
<polygon fill="white" stroke="#666666" points="564.25,-107 532.5,-107 532.5,-87 564.25,-87 564.25,-107"/>
<text text-anchor="middle" x="548.38" y="-93.5" font-family="Helvetica,sans-Serif" font-size="10.00">ISR</text>
</a>
</g>
</g>
<!-- Node24&#45;&gt;Node25 -->
<g id="edge28_Node000024_Node000025" class="edge">
<title>Node24&#45;&gt;Node25</title>
<g id="a_edge28_Node000024_Node000025"><a xlink:title=" ">
<path fill="none" stroke="#63b8ff" d="M643.44,-97C613.54,-97 582.33,-97 564.43,-97"/>
<polygon fill="#63b8ff" stroke="#63b8ff" points="643.29,-100.5 653.29,-97 643.29,-93.5 643.29,-100.5"/>
</a>
</g>
</g>
<!-- Node26 -->
<g id="Node000026" class="node">
<title>Node26</title>
<g id="a_Node000026"><a xlink:href="uart1_8h.html#a267ce5a39e1419fa9d59d7280b56b70e" target="_top" xlink:title=" ">
<polygon fill="white" stroke="#666666" points="564.25,-69 532.5,-69 532.5,-49 564.25,-49 564.25,-69"/>
<text text-anchor="middle" x="548.38" y="-55.5" font-family="Helvetica,sans-Serif" font-size="10.00">ISR</text>
</a>
</g>
</g>
<!-- Node24&#45;&gt;Node26 -->
<g id="edge29_Node000024_Node000026" class="edge">
<title>Node24&#45;&gt;Node26</title>
<g id="a_edge29_Node000024_Node000026"><a xlink:title=" ">
<path fill="none" stroke="#63b8ff" d="M643.83,-79.88C613.82,-73.25 582.4,-66.3 564.43,-62.33"/>
<polygon fill="#63b8ff" stroke="#63b8ff" points="642.8,-83.24 653.32,-81.98 644.31,-76.41 642.8,-83.24"/>
</a>
</g>
</g>
</g>
</svg>
