<?xml version="1.0" encoding="UTF-8" standalone="no"?>
<!DOCTYPE svg PUBLIC "-//W3C//DTD SVG 1.1//EN"
 "http://www.w3.org/Graphics/SVG/1.1/DTD/svg11.dtd">
<!-- Generated by graphviz version 10.0.1 (20240210.2158)
 -->
<!-- Title: zrtos_cbuffer__put_ex Pages: 1 -->
<svg width="1040pt" height="104pt"
 viewBox="0.00 0.00 1040.25 104.00" xmlns="http://www.w3.org/2000/svg" xmlns:xlink="http://www.w3.org/1999/xlink">
<g id="graph0" class="graph" transform="scale(1 1) rotate(0) translate(4 100)">
<title>zrtos_cbuffer__put_ex</title>
<!-- Node1 -->
<g id="Node000001" class="node">
<title>Node1</title>
<g id="a_Node000001"><a xlink:title=" ">
<polygon fill="#999999" stroke="#666666" points="111.25,-39 0,-39 0,-19 111.25,-19 111.25,-39"/>
<text text-anchor="middle" x="55.62" y="-25.5" font-family="Helvetica,sans-Serif" font-size="10.00">zrtos_cbuffer__put_ex</text>
</a>
</g>
</g>
<!-- Node2 -->
<g id="Node000002" class="node">
<title>Node2</title>
<g id="a_Node000002"><a xlink:href="cbuffer_8h.html#afdb6a6176387d77a0f10e28536ba28f9" target="_top" xlink:title=" ">
<polygon fill="white" stroke="#666666" points="256.25,-58 160.75,-58 160.75,-38 256.25,-38 256.25,-58"/>
<text text-anchor="middle" x="208.5" y="-44.5" font-family="Helvetica,sans-Serif" font-size="10.00">zrtos_cbuffer__put</text>
</a>
</g>
</g>
<!-- Node1&#45;&gt;Node2 -->
<g id="edge1_Node000001_Node000002" class="edge">
<title>Node1&#45;&gt;Node2</title>
<g id="a_edge1_Node000001_Node000002"><a xlink:title=" ">
<path fill="none" stroke="#63b8ff" d="M111.52,-35.91C123.78,-37.46 136.82,-39.1 149.21,-40.66"/>
<polygon fill="#63b8ff" stroke="#63b8ff" points="148.5,-44.1 158.86,-41.87 149.37,-37.15 148.5,-44.1"/>
</a>
</g>
</g>
<!-- Node10 -->
<g id="Node000010" class="node">
<title>Node10</title>
<g id="a_Node000010"><a xlink:href="error_8h.html#add13298163f63b7d37ed9f12d57e1a31" target="_top" xlink:title=" ">
<polygon fill="white" stroke="#666666" points="269.75,-20 147.25,-20 147.25,0 269.75,0 269.75,-20"/>
<text text-anchor="middle" x="208.5" y="-6.5" font-family="Helvetica,sans-Serif" font-size="10.00">zrtos_error__is_success</text>
</a>
</g>
</g>
<!-- Node1&#45;&gt;Node10 -->
<g id="edge10_Node000001_Node000010" class="edge">
<title>Node1&#45;&gt;Node10</title>
<g id="a_edge10_Node000001_Node000010"><a xlink:title=" ">
<path fill="none" stroke="#63b8ff" d="M111.52,-22.09C119.31,-21.11 127.41,-20.09 135.47,-19.07"/>
<polygon fill="#63b8ff" stroke="#63b8ff" points="135.79,-22.56 145.28,-17.84 134.92,-15.61 135.79,-22.56"/>
</a>
</g>
</g>
<!-- Node3 -->
<g id="Node000003" class="node">
<title>Node3</title>
<g id="a_Node000003"><a xlink:href="cbuffer_8h.html#a1846e554cfe5e72cc8df6b60ab5c6d84" target="_top" xlink:title=" ">
<polygon fill="white" stroke="#666666" points="430.12,-77 308.38,-77 308.38,-57 430.12,-57 430.12,-77"/>
<text text-anchor="middle" x="369.25" y="-63.5" font-family="Helvetica,sans-Serif" font-size="10.00">zrtos_cbuffer_node__put</text>
</a>
</g>
</g>
<!-- Node2&#45;&gt;Node3 -->
<g id="edge2_Node000002_Node000003" class="edge">
<title>Node2&#45;&gt;Node3</title>
<g id="a_edge2_Node000002_Node000003"><a xlink:title=" ">
<path fill="none" stroke="#63b8ff" d="M256.7,-53.65C269.27,-55.15 283.13,-56.81 296.69,-58.43"/>
<polygon fill="#63b8ff" stroke="#63b8ff" points="296.12,-61.89 306.46,-59.6 296.95,-54.94 296.12,-61.89"/>
</a>
</g>
</g>
<!-- Node9 -->
<g id="Node000009" class="node">
<title>Node9</title>
<g id="a_Node000009"><a xlink:href="list_8h.html#a0039f0f08299038ab1a71e271a43a086" target="_top" xlink:title=" ">
<polygon fill="white" stroke="#666666" points="432.75,-39 305.75,-39 305.75,-19 432.75,-19 432.75,-39"/>
<text text-anchor="middle" x="369.25" y="-25.5" font-family="Helvetica,sans-Serif" font-size="10.00">zrtos_list__get_first_node</text>
</a>
</g>
</g>
<!-- Node2&#45;&gt;Node9 -->
<g id="edge9_Node000002_Node000009" class="edge">
<title>Node2&#45;&gt;Node9</title>
<g id="a_edge9_Node000002_Node000009"><a xlink:title=" ">
<path fill="none" stroke="#63b8ff" d="M256.7,-42.35C268.51,-40.94 281.45,-39.39 294.22,-37.86"/>
<polygon fill="#63b8ff" stroke="#63b8ff" points="294.34,-41.37 303.85,-36.71 293.5,-34.42 294.34,-41.37"/>
</a>
</g>
</g>
<!-- Node3&#45;&gt;Node3 -->
<g id="edge8_Node000003_Node000003" class="edge">
<title>Node3&#45;&gt;Node3</title>
<g id="a_edge8_Node000003_Node000003"><a xlink:title=" ">
<path fill="none" stroke="#63b8ff" d="M343.71,-77.34C332.79,-85.98 341.31,-95 369.25,-95 384.53,-95 394,-92.3 397.66,-88.44"/>
<polygon fill="#63b8ff" stroke="#63b8ff" points="401.06,-87.61 395.17,-78.8 394.28,-89.36 401.06,-87.61"/>
</a>
</g>
</g>
<!-- Node4 -->
<g id="Node000004" class="node">
<title>Node4</title>
<g id="a_Node000004"><a xlink:href="cbuffer_8h.html#a1749e471b67565254c5dc85e0cb728a1" target="_top" xlink:title=" ">
<polygon fill="white" stroke="#666666" points="594.25,-77 468.75,-77 468.75,-57 594.25,-57 594.25,-77"/>
<text text-anchor="middle" x="531.5" y="-63.5" font-family="Helvetica,sans-Serif" font-size="10.00">zrtos_cbuffer_node__new</text>
</a>
</g>
</g>
<!-- Node3&#45;&gt;Node4 -->
<g id="edge3_Node000003_Node000004" class="edge">
<title>Node3&#45;&gt;Node4</title>
<g id="a_edge3_Node000003_Node000004"><a xlink:title=" ">
<path fill="none" stroke="#63b8ff" d="M430.38,-67C439.12,-67 448.2,-67 457.17,-67"/>
<polygon fill="#63b8ff" stroke="#63b8ff" points="456.92,-70.5 466.92,-67 456.92,-63.5 456.92,-70.5"/>
</a>
</g>
</g>
<!-- Node5 -->
<g id="Node000005" class="node">
<title>Node5</title>
<g id="a_Node000005"><a xlink:href="cbuffer_8h.html#aeb332726de06c905eb2db32ae3d323eb" target="_top" xlink:title=" ">
<polygon fill="white" stroke="#666666" points="728,-83 630.25,-83 630.25,-51 728,-51 728,-83"/>
<text text-anchor="start" x="638.25" y="-69.5" font-family="Helvetica,sans-Serif" font-size="10.00">zrtos_cbuffer_node</text>
<text text-anchor="middle" x="679.12" y="-57.5" font-family="Helvetica,sans-Serif" font-size="10.00">__init</text>
</a>
</g>
</g>
<!-- Node4&#45;&gt;Node5 -->
<g id="edge4_Node000004_Node000005" class="edge">
<title>Node4&#45;&gt;Node5</title>
<g id="a_edge4_Node000004_Node000005"><a xlink:title=" ">
<path fill="none" stroke="#63b8ff" d="M594.68,-67C602.58,-67 610.64,-67 618.49,-67"/>
<polygon fill="#63b8ff" stroke="#63b8ff" points="618.29,-70.5 628.29,-67 618.29,-63.5 618.29,-70.5"/>
</a>
</g>
</g>
<!-- Node6 -->
<g id="Node000006" class="node">
<title>Node6</title>
<g id="a_Node000006"><a xlink:href="list_8h.html#aa734984fb49603438b179f49fff38477" target="_top" xlink:title=" ">
<polygon fill="white" stroke="#666666" points="860.25,-96 773,-96 773,-76 860.25,-76 860.25,-96"/>
<text text-anchor="middle" x="816.62" y="-82.5" font-family="Helvetica,sans-Serif" font-size="10.00">zrtos_list__push</text>
</a>
</g>
</g>
<!-- Node5&#45;&gt;Node6 -->
<g id="edge5_Node000005_Node000006" class="edge">
<title>Node5&#45;&gt;Node6</title>
<g id="a_edge5_Node000005_Node000006"><a xlink:title=" ">
<path fill="none" stroke="#63b8ff" d="M728.28,-73.75C739.01,-75.26 750.45,-76.86 761.4,-78.4"/>
<polygon fill="#63b8ff" stroke="#63b8ff" points="760.7,-81.83 771.09,-79.75 761.67,-74.9 760.7,-81.83"/>
</a>
</g>
</g>
<!-- Node8 -->
<g id="Node000008" class="node">
<title>Node8</title>
<g id="a_Node000008"><a xlink:href="list_8h.html#a40feeb4cd0cc4e30201a279240b52429" target="_top" xlink:title=" ">
<polygon fill="white" stroke="#666666" points="869.25,-58 764,-58 764,-38 869.25,-38 869.25,-58"/>
<text text-anchor="middle" x="816.62" y="-44.5" font-family="Helvetica,sans-Serif" font-size="10.00">zrtos_list_node__init</text>
</a>
</g>
</g>
<!-- Node5&#45;&gt;Node8 -->
<g id="edge7_Node000005_Node000008" class="edge">
<title>Node5&#45;&gt;Node8</title>
<g id="a_edge7_Node000005_Node000008"><a xlink:title=" ">
<path fill="none" stroke="#63b8ff" d="M728.28,-60.25C736.23,-59.13 744.57,-57.96 752.82,-56.81"/>
<polygon fill="#63b8ff" stroke="#63b8ff" points="753.04,-60.31 762.45,-55.46 752.06,-53.38 753.04,-60.31"/>
</a>
</g>
</g>
<!-- Node7 -->
<g id="Node000007" class="node">
<title>Node7</title>
<g id="a_Node000007"><a xlink:href="list_8h.html#aa2f26b2b6fd722b708eb7e25cc264a90" target="_top" xlink:title=" ">
<polygon fill="white" stroke="#666666" points="1032.25,-96 905.25,-96 905.25,-76 1032.25,-76 1032.25,-96"/>
<text text-anchor="middle" x="968.75" y="-82.5" font-family="Helvetica,sans-Serif" font-size="10.00">zrtos_list__get_last_node</text>
</a>
</g>
</g>
<!-- Node6&#45;&gt;Node7 -->
<g id="edge6_Node000006_Node000007" class="edge">
<title>Node6&#45;&gt;Node7</title>
<g id="a_edge6_Node000006_Node000007"><a xlink:title=" ">
<path fill="none" stroke="#63b8ff" d="M860.64,-86C870.98,-86 882.31,-86 893.61,-86"/>
<polygon fill="#63b8ff" stroke="#63b8ff" points="893.35,-89.5 903.35,-86 893.35,-82.5 893.35,-89.5"/>
</a>
</g>
</g>
</g>
</svg>
