<?xml version="1.0" encoding="UTF-8" standalone="no"?>
<!DOCTYPE svg PUBLIC "-//W3C//DTD SVG 1.1//EN"
 "http://www.w3.org/Graphics/SVG/1.1/DTD/svg11.dtd">
<!-- Generated by graphviz version 2.40.1 (20161225.0304)
 -->
<!-- Title: zrtos_cbuffer__can_read_length Pages: 1 -->
<svg width="408pt" height="137pt"
 viewBox="0.00 0.00 408.00 137.00" xmlns="http://www.w3.org/2000/svg" xmlns:xlink="http://www.w3.org/1999/xlink">
<g id="graph0" class="graph" transform="scale(1 1) rotate(0) translate(4 133)">
<title>zrtos_cbuffer__can_read_length</title>
<polygon fill="#ffffff" stroke="transparent" points="-4,4 -4,-133 404,-133 404,4 -4,4"/>
<!-- Node15 -->
<g id="node1" class="node">
<title>Node15</title>
<polygon fill="#bfbfbf" stroke="#000000" points="0,-49.5 0,-79.5 100,-79.5 100,-49.5 0,-49.5"/>
<text text-anchor="start" x="8" y="-67.5" font-family="Helvetica,sans-Serif" font-size="10.00" fill="#000000">zrtos_cbuffer__can</text>
<text text-anchor="middle" x="50" y="-56.5" font-family="Helvetica,sans-Serif" font-size="10.00" fill="#000000">_read_length</text>
</g>
<!-- Node16 -->
<g id="node2" class="node">
<title>Node16</title>
<g id="a_node2"><a xlink:href="cbuffer_8h.html#ae8c248c36fbad46279f2a84d60dba91d" target="_top" xlink:title="zrtos_cbuffer__get\l_first_node">
<polygon fill="#ffffff" stroke="#000000" points="137,-98.5 137,-128.5 235,-128.5 235,-98.5 137,-98.5"/>
<text text-anchor="start" x="145" y="-116.5" font-family="Helvetica,sans-Serif" font-size="10.00" fill="#000000">zrtos_cbuffer__get</text>
<text text-anchor="middle" x="186" y="-105.5" font-family="Helvetica,sans-Serif" font-size="10.00" fill="#000000">_first_node</text>
</a>
</g>
</g>
<!-- Node15&#45;&gt;Node16 -->
<g id="edge1" class="edge">
<title>Node15&#45;&gt;Node16</title>
<path fill="none" stroke="#191970" d="M91.9142,-79.6014C105.3578,-84.4451 120.4047,-89.8664 134.4545,-94.9285"/>
<polygon fill="#191970" stroke="#191970" points="133.3957,-98.2672 143.9901,-98.3641 135.7685,-91.6816 133.3957,-98.2672"/>
</g>
<!-- Node18 -->
<g id="node4" class="node">
<title>Node18</title>
<g id="a_node4"><a xlink:href="cbuffer_8h.html#aa70b33844c0b38a531615564dc35840e" target="_top" xlink:title="zrtos_cbuffer_node\l__is_empty">
<polygon fill="#ffffff" stroke="#000000" points="136,-49.5 136,-79.5 236,-79.5 236,-49.5 136,-49.5"/>
<text text-anchor="start" x="144" y="-67.5" font-family="Helvetica,sans-Serif" font-size="10.00" fill="#000000">zrtos_cbuffer_node</text>
<text text-anchor="middle" x="186" y="-56.5" font-family="Helvetica,sans-Serif" font-size="10.00" fill="#000000">__is_empty</text>
</a>
</g>
</g>
<!-- Node15&#45;&gt;Node18 -->
<g id="edge3" class="edge">
<title>Node15&#45;&gt;Node18</title>
<path fill="none" stroke="#191970" d="M100.255,-64.5C108.5393,-64.5 117.2014,-64.5 125.701,-64.5"/>
<polygon fill="#191970" stroke="#191970" points="125.9516,-68.0001 135.9516,-64.5 125.9515,-61.0001 125.9516,-68.0001"/>
</g>
<!-- Node19 -->
<g id="node5" class="node">
<title>Node19</title>
<g id="a_node5"><a xlink:href="cbuffer_8h.html#ae358d265d5a1d44fa930473e3834bc4c" target="_top" xlink:title="zrtos_cbuffer_node\l__get_next_node">
<polygon fill="#ffffff" stroke="#000000" points="136,-.5 136,-30.5 236,-30.5 236,-.5 136,-.5"/>
<text text-anchor="start" x="144" y="-18.5" font-family="Helvetica,sans-Serif" font-size="10.00" fill="#000000">zrtos_cbuffer_node</text>
<text text-anchor="middle" x="186" y="-7.5" font-family="Helvetica,sans-Serif" font-size="10.00" fill="#000000">__get_next_node</text>
</a>
</g>
</g>
<!-- Node15&#45;&gt;Node19 -->
<g id="edge4" class="edge">
<title>Node15&#45;&gt;Node19</title>
<path fill="none" stroke="#191970" d="M91.9142,-49.3986C105.3578,-44.5549 120.4047,-39.1336 134.4545,-34.0715"/>
<polygon fill="#191970" stroke="#191970" points="135.7685,-37.3184 143.9901,-30.6359 133.3957,-30.7328 135.7685,-37.3184"/>
</g>
<!-- Node17 -->
<g id="node3" class="node">
<title>Node17</title>
<g id="a_node3"><a xlink:href="list_8h.html#a5a9358f4b25c9376dbdef338fa8333a6" target="_top" xlink:title="zrtos_list__get_first_node">
<polygon fill="#ffffff" stroke="#000000" points="272,-104 272,-123 400,-123 400,-104 272,-104"/>
<text text-anchor="middle" x="336" y="-111" font-family="Helvetica,sans-Serif" font-size="10.00" fill="#000000">zrtos_list__get_first_node</text>
</a>
</g>
</g>
<!-- Node16&#45;&gt;Node17 -->
<g id="edge2" class="edge">
<title>Node16&#45;&gt;Node17</title>
<path fill="none" stroke="#191970" d="M235.1156,-113.5C243.6204,-113.5 252.6314,-113.5 261.6303,-113.5"/>
<polygon fill="#191970" stroke="#191970" points="261.7576,-117.0001 271.7575,-113.5 261.7575,-110.0001 261.7576,-117.0001"/>
</g>
<!-- Node20 -->
<g id="node6" class="node">
<title>Node20</title>
<g id="a_node6"><a xlink:href="list_8h.html#a454de0a8188c1b5a4ffeddd230b42c93" target="_top" xlink:title="zrtos_list_node__get\l_next_node">
<polygon fill="#ffffff" stroke="#000000" points="282.5,-.5 282.5,-30.5 389.5,-30.5 389.5,-.5 282.5,-.5"/>
<text text-anchor="start" x="290.5" y="-18.5" font-family="Helvetica,sans-Serif" font-size="10.00" fill="#000000">zrtos_list_node__get</text>
<text text-anchor="middle" x="336" y="-7.5" font-family="Helvetica,sans-Serif" font-size="10.00" fill="#000000">_next_node</text>
</a>
</g>
</g>
<!-- Node19&#45;&gt;Node20 -->
<g id="edge5" class="edge">
<title>Node19&#45;&gt;Node20</title>
<path fill="none" stroke="#191970" d="M236.3651,-15.5C247.8191,-15.5 260.1355,-15.5 272.0695,-15.5"/>
<polygon fill="#191970" stroke="#191970" points="272.4273,-19.0001 282.4273,-15.5 272.4273,-12.0001 272.4273,-19.0001"/>
</g>
</g>
</svg>
