<?xml version="1.0" encoding="UTF-8" standalone="no"?>
<!DOCTYPE svg PUBLIC "-//W3C//DTD SVG 1.1//EN"
 "http://www.w3.org/Graphics/SVG/1.1/DTD/svg11.dtd">
<!-- Generated by graphviz version 2.40.1 (20161225.0304)
 -->
<!-- Title: zrtos_cbuffer__pipe Pages: 1 -->
<svg width="620pt" height="88pt"
 viewBox="0.00 0.00 620.00 88.00" xmlns="http://www.w3.org/2000/svg" xmlns:xlink="http://www.w3.org/1999/xlink">
<g id="graph0" class="graph" transform="scale(1 1) rotate(0) translate(4 84)">
<title>zrtos_cbuffer__pipe</title>
<polygon fill="#ffffff" stroke="transparent" points="-4,4 -4,-84 616,-84 616,4 -4,4"/>
<!-- Node286 -->
<g id="node1" class="node">
<title>Node286</title>
<polygon fill="#bfbfbf" stroke="#000000" points="0,-30 0,-49 102,-49 102,-30 0,-30"/>
<text text-anchor="middle" x="51" y="-37" font-family="Helvetica,sans-Serif" font-size="10.00" fill="#000000">zrtos_cbuffer__pipe</text>
</g>
<!-- Node287 -->
<g id="node2" class="node">
<title>Node287</title>
<g id="a_node2"><a xlink:href="msg__queue_8h.html#a7b05ddf4bc60700bfe0b9d3a0f11664b" target="_top" xlink:title="zrtos_msg_queue__put\l_cbuffer_data">
<polygon fill="#ffffff" stroke="#000000" points="146,-49.5 146,-79.5 264,-79.5 264,-49.5 146,-49.5"/>
<text text-anchor="start" x="154" y="-67.5" font-family="Helvetica,sans-Serif" font-size="10.00" fill="#000000">zrtos_msg_queue__put</text>
<text text-anchor="middle" x="205" y="-56.5" font-family="Helvetica,sans-Serif" font-size="10.00" fill="#000000">_cbuffer_data</text>
</a>
</g>
</g>
<!-- Node286&#45;&gt;Node287 -->
<g id="edge1" class="edge">
<title>Node286&#45;&gt;Node287</title>
<path fill="none" stroke="#191970" d="M112.3065,-49.4524C123.3937,-51.2522 134.9342,-53.1257 145.955,-54.9148"/>
<polygon fill="#191970" stroke="#191970" points="112.7114,-45.9723 102.2798,-47.8246 111.5897,-52.8819 112.7114,-45.9723"/>
</g>
<!-- Node290 -->
<g id="node5" class="node">
<title>Node290</title>
<g id="a_node5"><a xlink:href="msg__queue_8h.html#a40db633a8c0ef5e3bba9cc700e45f7ef" target="_top" xlink:title="zrtos_msg_queue__pipe\l_next_message_to_cbuffer">
<polygon fill="#ffffff" stroke="#000000" points="138,-.5 138,-30.5 272,-30.5 272,-.5 138,-.5"/>
<text text-anchor="start" x="146" y="-18.5" font-family="Helvetica,sans-Serif" font-size="10.00" fill="#000000">zrtos_msg_queue__pipe</text>
<text text-anchor="middle" x="205" y="-7.5" font-family="Helvetica,sans-Serif" font-size="10.00" fill="#000000">_next_message_to_cbuffer</text>
</a>
</g>
</g>
<!-- Node286&#45;&gt;Node290 -->
<g id="edge4" class="edge">
<title>Node286&#45;&gt;Node290</title>
<path fill="none" stroke="#191970" d="M112.3277,-29.9424C120.693,-28.6387 129.316,-27.2949 137.7789,-25.976"/>
<polygon fill="#191970" stroke="#191970" points="111.6215,-26.5102 102.2798,-31.5083 112.6995,-33.4267 111.6215,-26.5102"/>
</g>
<!-- Node288 -->
<g id="node3" class="node">
<title>Node288</title>
<g id="a_node3"><a xlink:href="rtu_8h.html#a223fc39dfd241ff17884c9f5d03f8e78" target="_top" xlink:title="zrtos_vfs_module_modbus\l_rtu__on_recv_timeout">
<polygon fill="#ffffff" stroke="#000000" points="308,-49.5 308,-79.5 442,-79.5 442,-49.5 308,-49.5"/>
<text text-anchor="start" x="316" y="-67.5" font-family="Helvetica,sans-Serif" font-size="10.00" fill="#000000">zrtos_vfs_module_modbus</text>
<text text-anchor="middle" x="375" y="-56.5" font-family="Helvetica,sans-Serif" font-size="10.00" fill="#000000">_rtu__on_recv_timeout</text>
</a>
</g>
</g>
<!-- Node287&#45;&gt;Node288 -->
<g id="edge2" class="edge">
<title>Node287&#45;&gt;Node288</title>
<path fill="none" stroke="#191970" d="M274.769,-64.5C285.6593,-64.5 296.8945,-64.5 307.7276,-64.5"/>
<polygon fill="#191970" stroke="#191970" points="274.4578,-61.0001 264.4578,-64.5 274.4577,-68.0001 274.4578,-61.0001"/>
</g>
<!-- Node289 -->
<g id="node4" class="node">
<title>Node289</title>
<g id="a_node4"><a xlink:href="rtu_8h.html#a2376d02a52d42eef634ef843afc499f3" target="_top" xlink:title="zrtos_vfs_module_modbus\l_rtu_inode__init">
<polygon fill="#ffffff" stroke="#000000" points="478,-24.5 478,-54.5 612,-54.5 612,-24.5 478,-24.5"/>
<text text-anchor="start" x="486" y="-42.5" font-family="Helvetica,sans-Serif" font-size="10.00" fill="#000000">zrtos_vfs_module_modbus</text>
<text text-anchor="middle" x="545" y="-31.5" font-family="Helvetica,sans-Serif" font-size="10.00" fill="#000000">_rtu_inode__init</text>
</a>
</g>
</g>
<!-- Node288&#45;&gt;Node289 -->
<g id="edge3" class="edge">
<title>Node288&#45;&gt;Node289</title>
<path fill="none" stroke="#191970" d="M452.146,-53.155C460.6879,-51.8988 469.3366,-50.627 477.7428,-49.3908"/>
<polygon fill="#191970" stroke="#191970" points="451.5728,-49.7016 442.1885,-54.6193 452.5914,-56.6271 451.5728,-49.7016"/>
</g>
<!-- Node291 -->
<g id="node6" class="node">
<title>Node291</title>
<g id="a_node6"><a xlink:href="rtu_8h.html#ab23606290979709ef6fefa7c6970e64e" target="_top" xlink:title="zrtos_vfs_module_modbus\l_rtu__on_send">
<polygon fill="#ffffff" stroke="#000000" points="308,-.5 308,-30.5 442,-30.5 442,-.5 308,-.5"/>
<text text-anchor="start" x="316" y="-18.5" font-family="Helvetica,sans-Serif" font-size="10.00" fill="#000000">zrtos_vfs_module_modbus</text>
<text text-anchor="middle" x="375" y="-7.5" font-family="Helvetica,sans-Serif" font-size="10.00" fill="#000000">_rtu__on_send</text>
</a>
</g>
</g>
<!-- Node290&#45;&gt;Node291 -->
<g id="edge5" class="edge">
<title>Node290&#45;&gt;Node291</title>
<path fill="none" stroke="#191970" d="M282.4246,-15.5C290.8759,-15.5 299.4279,-15.5 307.7428,-15.5"/>
<polygon fill="#191970" stroke="#191970" points="282.1885,-12.0001 272.1885,-15.5 282.1885,-19.0001 282.1885,-12.0001"/>
</g>
<!-- Node291&#45;&gt;Node289 -->
<g id="edge6" class="edge">
<title>Node291&#45;&gt;Node289</title>
<path fill="none" stroke="#191970" d="M452.146,-26.3912C460.6879,-27.5971 469.3366,-28.8181 477.7428,-30.0049"/>
<polygon fill="#191970" stroke="#191970" points="452.5796,-22.9178 442.1885,-24.9854 451.601,-29.8491 452.5796,-22.9178"/>
</g>
</g>
</svg>
