<?xml version="1.0" encoding="UTF-8" standalone="no"?>
<!DOCTYPE svg PUBLIC "-//W3C//DTD SVG 1.1//EN"
 "http://www.w3.org/Graphics/SVG/1.1/DTD/svg11.dtd">
<!-- Generated by graphviz version 10.0.1 (20240210.2158)
 -->
<!-- Title: zrtos_cbuffer_node__get Pages: 1 -->
<svg width="729pt" height="220pt"
 viewBox="0.00 0.00 728.50 220.00" xmlns="http://www.w3.org/2000/svg" xmlns:xlink="http://www.w3.org/1999/xlink">
<g id="graph0" class="graph" transform="scale(1 1) rotate(0) translate(4 216)">
<title>zrtos_cbuffer_node__get</title>
<!-- Node1 -->
<g id="Node000001" class="node">
<title>Node1</title>
<g id="a_Node000001"><a xlink:title=" ">
<polygon fill="#999999" stroke="#666666" points="720.5,-155 598.75,-155 598.75,-135 720.5,-135 720.5,-155"/>
<text text-anchor="middle" x="659.62" y="-141.5" font-family="Helvetica,sans-Serif" font-size="10.00">zrtos_cbuffer_node__get</text>
</a>
</g>
</g>
<!-- Node2 -->
<g id="Node000002" class="node">
<title>Node2</title>
<g id="a_Node000002"><a xlink:href="cbuffer_8h.html#a1a9cc4256c634d99003e2397924df20a" target="_top" xlink:title=" ">
<polygon fill="white" stroke="#666666" points="562.75,-155 467.25,-155 467.25,-135 562.75,-135 562.75,-155"/>
<text text-anchor="middle" x="515" y="-141.5" font-family="Helvetica,sans-Serif" font-size="10.00">zrtos_cbuffer__get</text>
</a>
</g>
</g>
<!-- Node1&#45;&gt;Node2 -->
<g id="edge1_Node000001_Node000002" class="edge">
<title>Node1&#45;&gt;Node2</title>
<g id="a_edge1_Node000001_Node000002"><a xlink:title=" ">
<path fill="none" stroke="#63b8ff" d="M587.05,-145C578.89,-145 570.73,-145 563.01,-145"/>
<polygon fill="#63b8ff" stroke="#63b8ff" points="587.04,-148.5 597.04,-145 587.04,-141.5 587.04,-148.5"/>
</a>
</g>
</g>
<!-- Node3 -->
<g id="Node000003" class="node">
<title>Node3</title>
<g id="a_Node000003"><a xlink:href="uart1_8h.html#a2c7cdd68a9c7751e97ee5dddd22ead51" target="_top" xlink:title=" ">
<polygon fill="white" stroke="#666666" points="391.5,-212 359.75,-212 359.75,-192 391.5,-192 391.5,-212"/>
<text text-anchor="middle" x="375.62" y="-198.5" font-family="Helvetica,sans-Serif" font-size="10.00">ISR</text>
</a>
</g>
</g>
<!-- Node2&#45;&gt;Node3 -->
<g id="edge2_Node000002_Node000003" class="edge">
<title>Node2&#45;&gt;Node3</title>
<g id="a_edge2_Node000002_Node000003"><a xlink:title=" ">
<path fill="none" stroke="#63b8ff" d="M482.8,-160.19C467.43,-167.45 448.53,-176.05 431.25,-183 418.02,-188.32 402.66,-193.59 391.61,-197.22"/>
<polygon fill="#63b8ff" stroke="#63b8ff" points="483.93,-163.53 491.45,-156.06 480.91,-157.21 483.93,-163.53"/>
</a>
</g>
</g>
<!-- Node4 -->
<g id="Node000004" class="node">
<title>Node4</title>
<g id="a_Node000004"><a xlink:href="uart2_8h.html#a2326b305f341672cf51b7fad21313f28" target="_top" xlink:title=" ">
<polygon fill="white" stroke="#666666" points="391.5,-174 359.75,-174 359.75,-154 391.5,-154 391.5,-174"/>
<text text-anchor="middle" x="375.62" y="-160.5" font-family="Helvetica,sans-Serif" font-size="10.00">ISR</text>
</a>
</g>
</g>
<!-- Node2&#45;&gt;Node4 -->
<g id="edge3_Node000002_Node000004" class="edge">
<title>Node2&#45;&gt;Node4</title>
<g id="a_edge3_Node000002_Node000004"><a xlink:title=" ">
<path fill="none" stroke="#63b8ff" d="M455.79,-153.05C432.37,-156.29 407.28,-159.76 391.77,-161.91"/>
<polygon fill="#63b8ff" stroke="#63b8ff" points="456.18,-156.53 465.61,-151.69 455.22,-149.6 456.18,-156.53"/>
</a>
</g>
</g>
<!-- Node5 -->
<g id="Node000005" class="node">
<title>Node5</title>
<g id="a_Node000005"><a xlink:href="uart3_8h.html#a759594e30b8e5eb0775690f5646644a8" target="_top" xlink:title=" ">
<polygon fill="white" stroke="#666666" points="391.5,-136 359.75,-136 359.75,-116 391.5,-116 391.5,-136"/>
<text text-anchor="middle" x="375.62" y="-122.5" font-family="Helvetica,sans-Serif" font-size="10.00">ISR</text>
</a>
</g>
</g>
<!-- Node2&#45;&gt;Node5 -->
<g id="edge4_Node000002_Node000005" class="edge">
<title>Node2&#45;&gt;Node5</title>
<g id="a_edge4_Node000002_Node000005"><a xlink:title=" ">
<path fill="none" stroke="#63b8ff" d="M455.79,-136.95C432.37,-133.71 407.28,-130.24 391.77,-128.09"/>
<polygon fill="#63b8ff" stroke="#63b8ff" points="455.22,-140.4 465.61,-138.31 456.18,-133.47 455.22,-140.4"/>
</a>
</g>
</g>
<!-- Node6 -->
<g id="Node000006" class="node">
<title>Node6</title>
<g id="a_Node000006"><a xlink:href="cbuffer_8h.html#af79ee923f715f4f8d2ea27b725501174" target="_top" xlink:title=" ">
<polygon fill="white" stroke="#666666" points="431.25,-98 320,-98 320,-78 431.25,-78 431.25,-98"/>
<text text-anchor="middle" x="375.62" y="-84.5" font-family="Helvetica,sans-Serif" font-size="10.00">zrtos_cbuffer__get_ex</text>
</a>
</g>
</g>
<!-- Node2&#45;&gt;Node6 -->
<g id="edge5_Node000002_Node000006" class="edge">
<title>Node2&#45;&gt;Node6</title>
<g id="a_edge5_Node000002_Node000006"><a xlink:title=" ">
<path fill="none" stroke="#63b8ff" d="M482.8,-129.81C467.43,-122.55 448.53,-113.95 431.25,-107 423.89,-104.04 415.87,-101.1 408.3,-98.44"/>
<polygon fill="#63b8ff" stroke="#63b8ff" points="480.91,-132.79 491.45,-133.94 483.93,-126.47 480.91,-132.79"/>
</a>
</g>
</g>
<!-- Node7 -->
<g id="Node000007" class="node">
<title>Node7</title>
<g id="a_Node000007"><a xlink:href="spi_2spi_8h.html#a3f4d02ed7068606c0f62cfefd0ac3fb6" target="_top" xlink:title=" ">
<polygon fill="white" stroke="#666666" points="239.78,-158 210.97,-158 210.97,-138 239.78,-138 239.78,-158"/>
<text text-anchor="middle" x="225.38" y="-144.5" font-family="Helvetica,sans-Serif" font-size="10.00">if</text>
</a>
</g>
</g>
<!-- Node6&#45;&gt;Node7 -->
<g id="edge6_Node000006_Node000007" class="edge">
<title>Node6&#45;&gt;Node7</title>
<g id="a_edge6_Node000006_Node000007"><a xlink:title=" ">
<path fill="none" stroke="#63b8ff" d="M330.32,-102.5C326.79,-103.93 323.31,-105.43 320,-107 303.05,-115.01 301.02,-121.12 284,-129 269.47,-135.73 251.88,-141.16 239.98,-144.47"/>
<polygon fill="#63b8ff" stroke="#63b8ff" points="331.44,-105.82 339.54,-98.98 328.95,-99.28 331.44,-105.82"/>
</a>
</g>
</g>
<!-- Node8 -->
<g id="Node000008" class="node">
<title>Node8</title>
<g id="a_Node000008"><a xlink:href="msg__queue_8h.html#aa70867560ae58b87682c996ceccee62a" target="_top" xlink:title=" ">
<polygon fill="white" stroke="#666666" points="284,-120 166.75,-120 166.75,-100 284,-100 284,-120"/>
<text text-anchor="middle" x="225.38" y="-106.5" font-family="Helvetica,sans-Serif" font-size="10.00">zrtos_msg_queue__get</text>
</a>
</g>
</g>
<!-- Node6&#45;&gt;Node8 -->
<g id="edge7_Node000006_Node000008" class="edge">
<title>Node6&#45;&gt;Node8</title>
<g id="a_edge7_Node000006_Node000008"><a xlink:title=" ">
<path fill="none" stroke="#63b8ff" d="M308.58,-97.8C300.52,-99 292.34,-100.21 284.41,-101.39"/>
<polygon fill="#63b8ff" stroke="#63b8ff" points="308.97,-101.28 318.35,-96.35 307.94,-94.36 308.97,-101.28"/>
</a>
</g>
</g>
<!-- Node10 -->
<g id="Node000010" class="node">
<title>Node10</title>
<g id="a_Node000010"><a xlink:href="spi_2spi_8h.html#aa716f787c62ac9a980729df0fc9aa6e9" target="_top" xlink:title=" ">
<polygon fill="white" stroke="#666666" points="279.88,-82 170.88,-82 170.88,-50 279.88,-50 279.88,-82"/>
<text text-anchor="start" x="178.88" y="-68.5" font-family="Helvetica,sans-Serif" font-size="10.00">zrtos_vfs_module_spi</text>
<text text-anchor="middle" x="225.38" y="-56.5" font-family="Helvetica,sans-Serif" font-size="10.00">__on_read</text>
</a>
</g>
</g>
<!-- Node6&#45;&gt;Node10 -->
<g id="edge9_Node000006_Node000010" class="edge">
<title>Node6&#45;&gt;Node10</title>
<g id="a_edge9_Node000006_Node000010"><a xlink:title=" ">
<path fill="none" stroke="#63b8ff" d="M308.68,-78.21C299.07,-76.79 289.27,-75.33 279.94,-73.95"/>
<polygon fill="#63b8ff" stroke="#63b8ff" points="307.94,-81.64 318.35,-79.65 308.97,-74.72 307.94,-81.64"/>
</a>
</g>
</g>
<!-- Node11 -->
<g id="Node000011" class="node">
<title>Node11</title>
<g id="a_Node000011"><a xlink:href="uart_2uart_8h.html#a6a55bd7ce001957fedb1647045d64cf9" target="_top" xlink:title=" ">
<polygon fill="white" stroke="#666666" points="281.75,-32 169,-32 169,0 281.75,0 281.75,-32"/>
<text text-anchor="start" x="177" y="-18.5" font-family="Helvetica,sans-Serif" font-size="10.00">zrtos_vfs_module_uart</text>
<text text-anchor="middle" x="225.38" y="-6.5" font-family="Helvetica,sans-Serif" font-size="10.00">__on_read</text>
</a>
</g>
</g>
<!-- Node6&#45;&gt;Node11 -->
<g id="edge10_Node000006_Node000011" class="edge">
<title>Node6&#45;&gt;Node11</title>
<g id="a_edge10_Node000006_Node000011"><a xlink:title=" ">
<path fill="none" stroke="#63b8ff" d="M345.66,-72.33C328,-62.94 304.87,-50.93 284,-41 277.99,-38.14 271.58,-35.23 265.29,-32.45"/>
<polygon fill="#63b8ff" stroke="#63b8ff" points="343.57,-75.18 354.04,-76.81 346.87,-69.01 343.57,-75.18"/>
</a>
</g>
</g>
<!-- Node9 -->
<g id="Node000009" class="node">
<title>Node9</title>
<g id="a_Node000009"><a xlink:href="rtu_8h.html#aea13c3756fb07d48853e039823a846b1" target="_top" xlink:title=" ">
<polygon fill="white" stroke="#666666" points="130.75,-126 0,-126 0,-94 130.75,-94 130.75,-126"/>
<text text-anchor="start" x="8" y="-112.5" font-family="Helvetica,sans-Serif" font-size="10.00">zrtos_vfs_module_modbus</text>
<text text-anchor="middle" x="65.38" y="-100.5" font-family="Helvetica,sans-Serif" font-size="10.00">_rtu__on_read</text>
</a>
</g>
</g>
<!-- Node8&#45;&gt;Node9 -->
<g id="edge8_Node000008_Node000009" class="edge">
<title>Node8&#45;&gt;Node9</title>
<g id="a_edge8_Node000008_Node000009"><a xlink:title=" ">
<path fill="none" stroke="#63b8ff" d="M155,-110C147.1,-110 139.08,-110 131.24,-110"/>
<polygon fill="#63b8ff" stroke="#63b8ff" points="154.93,-113.5 164.93,-110 154.93,-106.5 154.93,-113.5"/>
</a>
</g>
</g>
</g>
</svg>
