<?xml version="1.0" encoding="UTF-8" standalone="no"?>
<!DOCTYPE svg PUBLIC "-//W3C//DTD SVG 1.1//EN"
 "http://www.w3.org/Graphics/SVG/1.1/DTD/svg11.dtd">
<!-- Generated by graphviz version 10.0.1 (20240210.2158)
 -->
<!-- Title: zrtos_cbuffer_node__get_length Pages: 1 -->
<svg width="1354pt" height="521pt"
 viewBox="0.00 0.00 1354.25 521.39" xmlns="http://www.w3.org/2000/svg" xmlns:xlink="http://www.w3.org/1999/xlink">
<g id="graph0" class="graph" transform="scale(1 1) rotate(0) translate(4 517.39)">
<title>zrtos_cbuffer_node__get_length</title>
<!-- Node1 -->
<g id="Node000001" class="node">
<title>Node1</title>
<g id="a_Node000001"><a xlink:title=" ">
<polygon fill="#999999" stroke="#666666" points="1346.25,-436 1248.5,-436 1248.5,-404 1346.25,-404 1346.25,-436"/>
<text text-anchor="start" x="1256.5" y="-422.5" font-family="Helvetica,sans-Serif" font-size="10.00">zrtos_cbuffer_node</text>
<text text-anchor="middle" x="1297.38" y="-410.5" font-family="Helvetica,sans-Serif" font-size="10.00">__get_length</text>
</a>
</g>
</g>
<!-- Node2 -->
<g id="Node000002" class="node">
<title>Node2</title>
<g id="a_Node000002"><a xlink:href="cbuffer_8h.html#a45799d6eb84106e183f68a629d0d55c0" target="_top" xlink:title=" ">
<polygon fill="white" stroke="#666666" points="1065.62,-491 970.12,-491 970.12,-459 1065.62,-459 1065.62,-491"/>
<text text-anchor="start" x="978.12" y="-477.5" font-family="Helvetica,sans-Serif" font-size="10.00">zrtos_cbuffer__get</text>
<text text-anchor="middle" x="1017.88" y="-465.5" font-family="Helvetica,sans-Serif" font-size="10.00">_length</text>
</a>
</g>
</g>
<!-- Node1&#45;&gt;Node2 -->
<g id="edge1_Node000001_Node000002" class="edge">
<title>Node1&#45;&gt;Node2</title>
<g id="a_edge1_Node000001_Node000002"><a xlink:title=" ">
<path fill="none" stroke="#63b8ff" d="M1236.82,-431.8C1185.64,-441.95 1112.84,-456.38 1065.73,-465.71"/>
<polygon fill="#63b8ff" stroke="#63b8ff" points="1237.42,-435.25 1246.55,-429.87 1236.06,-428.39 1237.42,-435.25"/>
</a>
</g>
</g>
<!-- Node5 -->
<g id="Node000005" class="node">
<title>Node5</title>
<g id="a_Node000005"><a xlink:href="cbuffer_8h.html#a0f069b28d310b9b6586aeb37ec2fb1f3" target="_top" xlink:title=" ">
<polygon fill="white" stroke="#666666" points="1212.5,-414 1114.75,-414 1114.75,-382 1212.5,-382 1212.5,-414"/>
<text text-anchor="start" x="1122.75" y="-400.5" font-family="Helvetica,sans-Serif" font-size="10.00">zrtos_cbuffer_node</text>
<text text-anchor="middle" x="1163.62" y="-388.5" font-family="Helvetica,sans-Serif" font-size="10.00">__get_free_space</text>
</a>
</g>
</g>
<!-- Node1&#45;&gt;Node5 -->
<g id="edge4_Node000001_Node000005" class="edge">
<title>Node1&#45;&gt;Node5</title>
<g id="a_edge4_Node000001_Node000005"><a xlink:title=" ">
<path fill="none" stroke="#63b8ff" d="M1236.87,-410.06C1228.86,-408.73 1220.72,-407.37 1212.93,-406.07"/>
<polygon fill="#63b8ff" stroke="#63b8ff" points="1236.13,-413.49 1246.57,-411.68 1237.28,-406.58 1236.13,-413.49"/>
</a>
</g>
</g>
<!-- Node3 -->
<g id="Node000003" class="node">
<title>Node3</title>
<g id="a_Node000003"><a xlink:href="rtu_8h.html#a223fc39dfd241ff17884c9f5d03f8e78" target="_top" xlink:title=" ">
<polygon fill="white" stroke="#666666" points="441.75,-496 311,-496 311,-464 441.75,-464 441.75,-496"/>
<text text-anchor="start" x="319" y="-482.5" font-family="Helvetica,sans-Serif" font-size="10.00">zrtos_vfs_module_modbus</text>
<text text-anchor="middle" x="376.38" y="-470.5" font-family="Helvetica,sans-Serif" font-size="10.00">_rtu__on_recv_timeout</text>
</a>
</g>
</g>
<!-- Node2&#45;&gt;Node3 -->
<g id="edge2_Node000002_Node000003" class="edge">
<title>Node2&#45;&gt;Node3</title>
<g id="a_edge2_Node000002_Node000003"><a xlink:title=" ">
<path fill="none" stroke="#63b8ff" d="M958.56,-484.99C859.42,-500.47 651.83,-526.35 477.75,-505 463.13,-503.21 447.58,-500 433.19,-496.46"/>
<polygon fill="#63b8ff" stroke="#63b8ff" points="958.99,-488.47 968.32,-483.44 957.9,-481.55 958.99,-488.47"/>
</a>
</g>
</g>
<!-- Node4 -->
<g id="Node000004" class="node">
<title>Node4</title>
<g id="a_Node000004"><a xlink:href="rtu_8h.html#aac1c0a8f15ec0cd7540f53a61fe9ff08" target="_top" xlink:title=" ">
<polygon fill="white" stroke="#666666" points="275,-471 144.25,-471 144.25,-439 275,-439 275,-471"/>
<text text-anchor="start" x="152.25" y="-457.5" font-family="Helvetica,sans-Serif" font-size="10.00">zrtos_vfs_module_modbus</text>
<text text-anchor="middle" x="209.62" y="-445.5" font-family="Helvetica,sans-Serif" font-size="10.00">_rtu_args__init</text>
</a>
</g>
</g>
<!-- Node3&#45;&gt;Node4 -->
<g id="edge3_Node000003_Node000004" class="edge">
<title>Node3&#45;&gt;Node4</title>
<g id="a_edge3_Node000003_Node000004"><a xlink:title=" ">
<path fill="none" stroke="#63b8ff" d="M299.44,-468.48C291.39,-467.26 283.26,-466.02 275.35,-464.82"/>
<polygon fill="#63b8ff" stroke="#63b8ff" points="298.83,-471.92 309.24,-469.96 299.88,-465 298.83,-471.92"/>
</a>
</g>
</g>
<!-- Node6 -->
<g id="Node000006" class="node">
<title>Node6</title>
<g id="a_Node000006"><a xlink:href="cbuffer_8h.html#a1846e554cfe5e72cc8df6b60ab5c6d84" target="_top" xlink:title=" ">
<polygon fill="white" stroke="#666666" points="1078.75,-399 957,-399 957,-379 1078.75,-379 1078.75,-399"/>
<text text-anchor="middle" x="1017.88" y="-385.5" font-family="Helvetica,sans-Serif" font-size="10.00">zrtos_cbuffer_node__put</text>
</a>
</g>
</g>
<!-- Node5&#45;&gt;Node6 -->
<g id="edge5_Node000005_Node000006" class="edge">
<title>Node5&#45;&gt;Node6</title>
<g id="a_edge5_Node000005_Node000006"><a xlink:title=" ">
<path fill="none" stroke="#63b8ff" d="M1102.96,-394.26C1095.05,-393.77 1086.93,-393.26 1079.02,-392.77"/>
<polygon fill="#63b8ff" stroke="#63b8ff" points="1102.65,-397.75 1112.85,-394.88 1103.09,-390.77 1102.65,-397.75"/>
</a>
</g>
</g>
<!-- Node6&#45;&gt;Node6 -->
<g id="edge35_Node000006_Node000006" class="edge">
<title>Node6&#45;&gt;Node6</title>
<g id="a_edge35_Node000006_Node000006"><a xlink:title=" ">
<path fill="none" stroke="#63b8ff" d="M1043.44,-410.44C1040.14,-414.3 1031.62,-417 1017.88,-417 992.74,-417 985.08,-407.98 994.9,-399.34"/>
<polygon fill="#63b8ff" stroke="#63b8ff" points="1046.87,-409.76 1041.2,-400.81 1040.05,-411.35 1046.87,-409.76"/>
</a>
</g>
</g>
<!-- Node7 -->
<g id="Node000007" class="node">
<title>Node7</title>
<g id="a_Node000007"><a xlink:href="cbuffer_8h.html#afdb6a6176387d77a0f10e28536ba28f9" target="_top" xlink:title=" ">
<polygon fill="white" stroke="#666666" points="921,-374 825.5,-374 825.5,-354 921,-354 921,-374"/>
<text text-anchor="middle" x="873.25" y="-360.5" font-family="Helvetica,sans-Serif" font-size="10.00">zrtos_cbuffer__put</text>
</a>
</g>
</g>
<!-- Node6&#45;&gt;Node7 -->
<g id="edge6_Node000006_Node000007" class="edge">
<title>Node6&#45;&gt;Node7</title>
<g id="a_edge6_Node000006_Node000007"><a xlink:title=" ">
<path fill="none" stroke="#63b8ff" d="M946.1,-376.59C937.62,-375.11 929.12,-373.62 921.09,-372.21"/>
<polygon fill="#63b8ff" stroke="#63b8ff" points="945.27,-380 955.72,-378.28 946.48,-373.11 945.27,-380"/>
</a>
</g>
</g>
<!-- Node8 -->
<g id="Node000008" class="node">
<title>Node8</title>
<g id="a_Node000008"><a xlink:href="cbuffer_8h.html#a77458b7cd6238ed911ffdab0fe328e04" target="_top" xlink:title=" ">
<polygon fill="white" stroke="#666666" points="772.25,-440 672.25,-440 672.25,-420 772.25,-420 772.25,-440"/>
<text text-anchor="middle" x="722.25" y="-426.5" font-family="Helvetica,sans-Serif" font-size="10.00">zrtos_cbuffer__pipe</text>
</a>
</g>
</g>
<!-- Node7&#45;&gt;Node8 -->
<g id="edge7_Node000007_Node000008" class="edge">
<title>Node7&#45;&gt;Node8</title>
<g id="a_edge7_Node000007_Node000008"><a xlink:title=" ">
<path fill="none" stroke="#63b8ff" d="M838.14,-379.11C810.18,-391.5 771.34,-408.7 746.75,-419.59"/>
<polygon fill="#63b8ff" stroke="#63b8ff" points="839.53,-382.32 847.26,-375.07 836.7,-375.92 839.53,-382.32"/>
</a>
</g>
</g>
<!-- Node12 -->
<g id="Node000012" class="node">
<title>Node12</title>
<g id="a_Node000012"><a xlink:href="cbuffer_8h.html#a5d269503e04946737598d2062c5bfaf4" target="_top" xlink:title=" ">
<polygon fill="white" stroke="#666666" points="777.88,-308 666.62,-308 666.62,-288 777.88,-288 777.88,-308"/>
<text text-anchor="middle" x="722.25" y="-294.5" font-family="Helvetica,sans-Serif" font-size="10.00">zrtos_cbuffer__put_ex</text>
</a>
</g>
</g>
<!-- Node7&#45;&gt;Node12 -->
<g id="edge13_Node000007_Node000012" class="edge">
<title>Node7&#45;&gt;Node12</title>
<g id="a_edge13_Node000007_Node000012"><a xlink:title=" ">
<path fill="none" stroke="#63b8ff" d="M838.14,-348.89C810.18,-336.5 771.34,-319.3 746.75,-308.41"/>
<polygon fill="#63b8ff" stroke="#63b8ff" points="836.7,-352.08 847.26,-352.93 839.53,-345.68 836.7,-352.08"/>
</a>
</g>
</g>
<!-- Node28 -->
<g id="Node000028" class="node">
<title>Node28</title>
<g id="a_Node000028"><a xlink:href="avr_2uart_2uart_8h.html#aea39870a896298195c0769800af5b3e2" target="_top" xlink:title=" ">
<polygon fill="white" stroke="#666666" points="789.5,-113 655,-113 655,-81 789.5,-81 789.5,-113"/>
<text text-anchor="start" x="663" y="-99.5" font-family="Helvetica,sans-Serif" font-size="10.00">zrtos_vfs_module_avr</text>
<text text-anchor="middle" x="722.25" y="-87.5" font-family="Helvetica,sans-Serif" font-size="10.00">_uart__on_receive_interrupt</text>
</a>
</g>
</g>
<!-- Node7&#45;&gt;Node28 -->
<g id="edge32_Node000007_Node000028" class="edge">
<title>Node7&#45;&gt;Node28</title>
<g id="a_edge32_Node000007_Node000028"><a xlink:title=" ">
<path fill="none" stroke="#63b8ff" d="M860.91,-343.67C832.38,-292.56 758.1,-159.45 732.26,-113.15"/>
<polygon fill="#63b8ff" stroke="#63b8ff" points="857.74,-345.18 865.67,-352.21 863.85,-341.77 857.74,-345.18"/>
</a>
</g>
</g>
<!-- Node9 -->
<g id="Node000009" class="node">
<title>Node9</title>
<g id="a_Node000009"><a xlink:href="msg__queue_8h.html#a40db633a8c0ef5e3bba9cc700e45f7ef" target="_top" xlink:title=" ">
<polygon fill="white" stroke="#666666" points="614.5,-446 482.25,-446 482.25,-414 614.5,-414 614.5,-446"/>
<text text-anchor="start" x="490.25" y="-432.5" font-family="Helvetica,sans-Serif" font-size="10.00">zrtos_msg_queue__pipe</text>
<text text-anchor="middle" x="548.38" y="-420.5" font-family="Helvetica,sans-Serif" font-size="10.00">_next_message_to_cbuffer</text>
</a>
</g>
</g>
<!-- Node8&#45;&gt;Node9 -->
<g id="edge8_Node000008_Node000009" class="edge">
<title>Node8&#45;&gt;Node9</title>
<g id="a_edge8_Node000008_Node000009"><a xlink:title=" ">
<path fill="none" stroke="#63b8ff" d="M660.89,-430C646.04,-430 630.07,-430 614.98,-430"/>
<polygon fill="#63b8ff" stroke="#63b8ff" points="660.48,-433.5 670.48,-430 660.48,-426.5 660.48,-433.5"/>
</a>
</g>
</g>
<!-- Node11 -->
<g id="Node000011" class="node">
<title>Node11</title>
<g id="a_Node000011"><a xlink:href="msg__queue_8h.html#a7b05ddf4bc60700bfe0b9d3a0f11664b" target="_top" xlink:title=" ">
<polygon fill="white" stroke="#666666" points="607,-496 489.75,-496 489.75,-464 607,-464 607,-496"/>
<text text-anchor="start" x="497.75" y="-482.5" font-family="Helvetica,sans-Serif" font-size="10.00">zrtos_msg_queue__put</text>
<text text-anchor="middle" x="548.38" y="-470.5" font-family="Helvetica,sans-Serif" font-size="10.00">_cbuffer_data</text>
</a>
</g>
</g>
<!-- Node8&#45;&gt;Node11 -->
<g id="edge11_Node000008_Node000011" class="edge">
<title>Node8&#45;&gt;Node11</title>
<g id="a_edge11_Node000008_Node000011"><a xlink:title=" ">
<path fill="none" stroke="#63b8ff" d="M674.27,-443.67C653.18,-449.8 628.11,-457.09 605.99,-463.53"/>
<polygon fill="#63b8ff" stroke="#63b8ff" points="675.14,-447.06 683.77,-440.9 673.19,-440.34 675.14,-447.06"/>
</a>
</g>
</g>
<!-- Node10 -->
<g id="Node000010" class="node">
<title>Node10</title>
<g id="a_Node000010"><a xlink:href="rtu_8h.html#ab23606290979709ef6fefa7c6970e64e" target="_top" xlink:title=" ">
<polygon fill="white" stroke="#666666" points="441.75,-446 311,-446 311,-414 441.75,-414 441.75,-446"/>
<text text-anchor="start" x="319" y="-432.5" font-family="Helvetica,sans-Serif" font-size="10.00">zrtos_vfs_module_modbus</text>
<text text-anchor="middle" x="376.38" y="-420.5" font-family="Helvetica,sans-Serif" font-size="10.00">_rtu__on_send</text>
</a>
</g>
</g>
<!-- Node9&#45;&gt;Node10 -->
<g id="edge9_Node000009_Node000010" class="edge">
<title>Node9&#45;&gt;Node10</title>
<g id="a_edge9_Node000009_Node000010"><a xlink:title=" ">
<path fill="none" stroke="#63b8ff" d="M470.63,-430C461.12,-430 451.47,-430 442.16,-430"/>
<polygon fill="#63b8ff" stroke="#63b8ff" points="470.62,-433.5 480.62,-430 470.62,-426.5 470.62,-433.5"/>
</a>
</g>
</g>
<!-- Node10&#45;&gt;Node4 -->
<g id="edge10_Node000010_Node000004" class="edge">
<title>Node10&#45;&gt;Node4</title>
<g id="a_edge10_Node000010_Node000004"><a xlink:title=" ">
<path fill="none" stroke="#63b8ff" d="M299.44,-441.52C291.39,-442.74 283.26,-443.98 275.35,-445.18"/>
<polygon fill="#63b8ff" stroke="#63b8ff" points="299.88,-445 309.24,-440.04 298.83,-438.08 299.88,-445"/>
</a>
</g>
</g>
<!-- Node11&#45;&gt;Node3 -->
<g id="edge12_Node000011_Node000003" class="edge">
<title>Node11&#45;&gt;Node3</title>
<g id="a_edge12_Node000011_Node000003"><a xlink:title=" ">
<path fill="none" stroke="#63b8ff" d="M478.11,-480C466.22,-480 453.91,-480 442.14,-480"/>
<polygon fill="#63b8ff" stroke="#63b8ff" points="477.83,-483.5 487.83,-480 477.83,-476.5 477.83,-483.5"/>
</a>
</g>
</g>
<!-- Node13 -->
<g id="Node000013" class="node">
<title>Node13</title>
<g id="a_Node000013"><a xlink:href="msg__queue_8h.html#ab51eb620b09145d1b05966404c9e0ca4" target="_top" xlink:title=" ">
<polygon fill="white" stroke="#666666" points="607,-346 489.75,-346 489.75,-326 607,-326 607,-346"/>
<text text-anchor="middle" x="548.38" y="-332.5" font-family="Helvetica,sans-Serif" font-size="10.00">zrtos_msg_queue__put</text>
</a>
</g>
</g>
<!-- Node12&#45;&gt;Node13 -->
<g id="edge14_Node000012_Node000013" class="edge">
<title>Node12&#45;&gt;Node13</title>
<g id="a_edge14_Node000012_Node000013"><a xlink:title=" ">
<path fill="none" stroke="#63b8ff" d="M662.82,-310.92C641.25,-315.69 617.1,-321.03 596.64,-325.55"/>
<polygon fill="#63b8ff" stroke="#63b8ff" points="663.34,-314.39 672.35,-308.81 661.83,-307.55 663.34,-314.39"/>
</a>
</g>
</g>
<!-- Node14 -->
<g id="Node000014" class="node">
<title>Node14</title>
<g id="a_Node000014"><a xlink:href="msg__queue_8h.html#a14fb4faf04687986da3435e06db5d587" target="_top" xlink:title=" ">
<polygon fill="white" stroke="#666666" points="619,-308 477.75,-308 477.75,-288 619,-288 619,-308"/>
<text text-anchor="middle" x="548.38" y="-294.5" font-family="Helvetica,sans-Serif" font-size="10.00">zrtos_msg_queue__put_data</text>
</a>
</g>
</g>
<!-- Node12&#45;&gt;Node14 -->
<g id="edge15_Node000012_Node000014" class="edge">
<title>Node12&#45;&gt;Node14</title>
<g id="a_edge15_Node000012_Node000014"><a xlink:title=" ">
<path fill="none" stroke="#63b8ff" d="M654.96,-298C643.32,-298 631.17,-298 619.43,-298"/>
<polygon fill="#63b8ff" stroke="#63b8ff" points="654.88,-301.5 664.88,-298 654.88,-294.5 654.88,-301.5"/>
</a>
</g>
</g>
<!-- Node16 -->
<g id="Node000016" class="node">
<title>Node16</title>
<g id="a_Node000016"><a xlink:href="msg__queue_8h.html#a9f24485c49e6b6ba13406e9a5d1f352d" target="_top" xlink:title=" ">
<polygon fill="white" stroke="#666666" points="607,-396 489.75,-396 489.75,-364 607,-364 607,-396"/>
<text text-anchor="start" x="497.75" y="-382.5" font-family="Helvetica,sans-Serif" font-size="10.00">zrtos_msg_queue__put</text>
<text text-anchor="middle" x="548.38" y="-370.5" font-family="Helvetica,sans-Serif" font-size="10.00">_length</text>
</a>
</g>
</g>
<!-- Node12&#45;&gt;Node16 -->
<g id="edge17_Node000012_Node000016" class="edge">
<title>Node12&#45;&gt;Node16</title>
<g id="a_edge17_Node000012_Node000016"><a xlink:title=" ">
<path fill="none" stroke="#63b8ff" d="M694.92,-314.25C674.63,-326.39 645.63,-342.9 619,-355 612.45,-357.98 605.44,-360.85 598.47,-363.52"/>
<polygon fill="#63b8ff" stroke="#63b8ff" points="696.64,-317.3 703.39,-309.13 693.02,-311.31 696.64,-317.3"/>
</a>
</g>
</g>
<!-- Node17 -->
<g id="Node000017" class="node">
<title>Node17</title>
<g id="a_Node000017"><a xlink:href="spi_2spi_8h.html#ac672df98eac652a9d1925ba73229c475" target="_top" xlink:title=" ">
<polygon fill="white" stroke="#666666" points="264.12,-279 155.12,-279 155.12,-247 264.12,-247 264.12,-279"/>
<text text-anchor="start" x="163.12" y="-265.5" font-family="Helvetica,sans-Serif" font-size="10.00">zrtos_vfs_module_spi</text>
<text text-anchor="middle" x="209.62" y="-253.5" font-family="Helvetica,sans-Serif" font-size="10.00">__on_write</text>
</a>
</g>
</g>
<!-- Node12&#45;&gt;Node17 -->
<g id="edge20_Node000012_Node000017" class="edge">
<title>Node12&#45;&gt;Node17</title>
<g id="a_edge20_Node000012_Node000017"><a xlink:title=" ">
<path fill="none" stroke="#63b8ff" d="M661.84,-285.46C647.85,-282.93 632.95,-280.56 619,-279 492.43,-264.84 342.58,-262.67 264.32,-262.64"/>
<polygon fill="#63b8ff" stroke="#63b8ff" points="660.87,-288.84 671.35,-287.24 662.16,-281.96 660.87,-288.84"/>
</a>
</g>
</g>
<!-- Node19 -->
<g id="Node000019" class="node">
<title>Node19</title>
<g id="a_Node000019"><a xlink:href="spi_2spi_8h.html#a7f9adeb6314d47b2442b0a17d1cc2f37" target="_top" xlink:title=" ">
<polygon fill="white" stroke="#666666" points="602.88,-232 493.88,-232 493.88,-200 602.88,-200 602.88,-232"/>
<text text-anchor="start" x="501.88" y="-218.5" font-family="Helvetica,sans-Serif" font-size="10.00">zrtos_vfs_module_spi</text>
<text text-anchor="middle" x="548.38" y="-206.5" font-family="Helvetica,sans-Serif" font-size="10.00">__transfer_in</text>
</a>
</g>
</g>
<!-- Node12&#45;&gt;Node19 -->
<g id="edge22_Node000012_Node000019" class="edge">
<title>Node12&#45;&gt;Node19</title>
<g id="a_edge22_Node000012_Node000019"><a xlink:title=" ">
<path fill="none" stroke="#63b8ff" d="M691.66,-282.32C671.38,-271.73 643.76,-257.62 619,-246 609.23,-241.42 598.57,-236.69 588.6,-232.38"/>
<polygon fill="#63b8ff" stroke="#63b8ff" points="690.01,-285.41 700.49,-286.96 693.26,-279.21 690.01,-285.41"/>
</a>
</g>
</g>
<!-- Node23 -->
<g id="Node000023" class="node">
<title>Node23</title>
<g id="a_Node000023"><a xlink:href="uart_2uart_8h.html#a9e735d9796aaa30e4a5fce9c763adf92" target="_top" xlink:title=" ">
<polygon fill="white" stroke="#666666" points="604.75,-157 492,-157 492,-125 604.75,-125 604.75,-157"/>
<text text-anchor="start" x="500" y="-143.5" font-family="Helvetica,sans-Serif" font-size="10.00">zrtos_vfs_module_uart</text>
<text text-anchor="middle" x="548.38" y="-131.5" font-family="Helvetica,sans-Serif" font-size="10.00">__on_write</text>
</a>
</g>
</g>
<!-- Node12&#45;&gt;Node23 -->
<g id="edge27_Node000012_Node000023" class="edge">
<title>Node12&#45;&gt;Node23</title>
<g id="a_edge27_Node000012_Node000023"><a xlink:title=" ">
<path fill="none" stroke="#63b8ff" d="M705.16,-279.15C685.79,-256.94 651.75,-219.46 619,-191 604.96,-178.8 588.03,-166.59 574.38,-157.29"/>
<polygon fill="#63b8ff" stroke="#63b8ff" points="702.34,-281.24 711.53,-286.51 707.64,-276.66 702.34,-281.24"/>
</a>
</g>
</g>
<!-- Node15 -->
<g id="Node000015" class="node">
<title>Node15</title>
<g id="a_Node000015"><a xlink:href="rtu_8h.html#ac0ca767b3e1e9a8b1f290448a122e095" target="_top" xlink:title=" ">
<polygon fill="white" stroke="#666666" points="441.75,-358 311,-358 311,-326 441.75,-326 441.75,-358"/>
<text text-anchor="start" x="319" y="-344.5" font-family="Helvetica,sans-Serif" font-size="10.00">zrtos_vfs_module_modbus</text>
<text text-anchor="middle" x="376.38" y="-332.5" font-family="Helvetica,sans-Serif" font-size="10.00">_rtu__on_write</text>
</a>
</g>
</g>
<!-- Node14&#45;&gt;Node15 -->
<g id="edge16_Node000014_Node000015" class="edge">
<title>Node14&#45;&gt;Node15</title>
<g id="a_edge16_Node000014_Node000015"><a xlink:title=" ">
<path fill="none" stroke="#63b8ff" d="M496.05,-311.28C478.71,-315.77 459.14,-320.84 440.97,-325.54"/>
<polygon fill="#63b8ff" stroke="#63b8ff" points="496.82,-314.7 505.62,-308.81 495.06,-307.92 496.82,-314.7"/>
</a>
</g>
</g>
<!-- Node16&#45;&gt;Node3 -->
<g id="edge18_Node000016_Node000003" class="edge">
<title>Node16&#45;&gt;Node3</title>
<g id="a_edge18_Node000016_Node000003"><a xlink:title=" ">
<path fill="none" stroke="#63b8ff" d="M481.92,-402.07C480.49,-403.01 479.1,-403.99 477.75,-405 455.88,-421.48 463.41,-438.24 441.75,-455 437.58,-458.23 432.94,-461.09 428.12,-463.6"/>
<polygon fill="#63b8ff" stroke="#63b8ff" points="483.55,-405.17 490.48,-397.15 480.06,-399.1 483.55,-405.17"/>
</a>
</g>
</g>
<!-- Node16&#45;&gt;Node15 -->
<g id="edge19_Node000016_Node000015" class="edge">
<title>Node16&#45;&gt;Node15</title>
<g id="a_edge19_Node000016_Node000015"><a xlink:title=" ">
<path fill="none" stroke="#63b8ff" d="M478.11,-364.52C466.22,-361.86 453.91,-359.11 442.14,-356.48"/>
<polygon fill="#63b8ff" stroke="#63b8ff" points="477.35,-367.93 487.87,-366.7 478.87,-361.1 477.35,-367.93"/>
</a>
</g>
</g>
<!-- Node18 -->
<g id="Node000018" class="node">
<title>Node18</title>
<g id="a_Node000018"><a xlink:href="avr_2spi_2spi_8h.html#ab6f547c3ce7ee0463c235abe078f9491" target="_top" xlink:title=" ">
<polygon fill="white" stroke="#666666" points="108.25,-276 0,-276 0,-244 108.25,-244 108.25,-276"/>
<text text-anchor="start" x="8" y="-262.5" font-family="Helvetica,sans-Serif" font-size="10.00">zrtos_vfs_module_avr</text>
<text text-anchor="middle" x="54.12" y="-250.5" font-family="Helvetica,sans-Serif" font-size="10.00">_spi__on_write</text>
</a>
</g>
</g>
<!-- Node17&#45;&gt;Node18 -->
<g id="edge21_Node000017_Node000018" class="edge">
<title>Node17&#45;&gt;Node18</title>
<g id="a_edge21_Node000017_Node000018"><a xlink:title=" ">
<path fill="none" stroke="#63b8ff" d="M143.45,-261.73C131.8,-261.5 119.79,-261.26 108.52,-261.04"/>
<polygon fill="#63b8ff" stroke="#63b8ff" points="143.36,-265.23 153.42,-261.92 143.5,-258.23 143.36,-265.23"/>
</a>
</g>
</g>
<!-- Node20 -->
<g id="Node000020" class="node">
<title>Node20</title>
<g id="a_Node000020"><a xlink:href="spi_2spi_8h.html#ab31c12597a3f2932aaf01466ffff59bb" target="_top" xlink:title=" ">
<polygon fill="white" stroke="#666666" points="430.88,-232 321.88,-232 321.88,-200 430.88,-200 430.88,-232"/>
<text text-anchor="start" x="329.88" y="-218.5" font-family="Helvetica,sans-Serif" font-size="10.00">zrtos_vfs_module_spi</text>
<text text-anchor="middle" x="376.38" y="-206.5" font-family="Helvetica,sans-Serif" font-size="10.00">__transfer</text>
</a>
</g>
</g>
<!-- Node19&#45;&gt;Node20 -->
<g id="edge23_Node000019_Node000020" class="edge">
<title>Node19&#45;&gt;Node20</title>
<g id="a_edge23_Node000019_Node000020"><a xlink:title=" ">
<path fill="none" stroke="#63b8ff" d="M482.12,-216C465.26,-216 447.3,-216 431.11,-216"/>
<polygon fill="#63b8ff" stroke="#63b8ff" points="482.07,-219.5 492.07,-216 482.07,-212.5 482.07,-219.5"/>
</a>
</g>
</g>
<!-- Node21 -->
<g id="Node000021" class="node">
<title>Node21</title>
<g id="a_Node000021"><a xlink:href="avr_2spi_2spi_8h.html#a3a0f3b324bd986778ccde00670dbabc9" target="_top" xlink:title=" ">
<polygon fill="white" stroke="#666666" points="263.75,-229 155.5,-229 155.5,-197 263.75,-197 263.75,-229"/>
<text text-anchor="start" x="163.5" y="-215.5" font-family="Helvetica,sans-Serif" font-size="10.00">zrtos_vfs_module_avr</text>
<text text-anchor="middle" x="209.62" y="-203.5" font-family="Helvetica,sans-Serif" font-size="10.00">_spi__on_interrupt</text>
</a>
</g>
</g>
<!-- Node20&#45;&gt;Node21 -->
<g id="edge24_Node000020_Node000021" class="edge">
<title>Node20&#45;&gt;Node21</title>
<g id="a_edge24_Node000020_Node000021"><a xlink:title=" ">
<path fill="none" stroke="#63b8ff" d="M309.99,-214.81C294.78,-214.53 278.76,-214.24 264.13,-213.97"/>
<polygon fill="#63b8ff" stroke="#63b8ff" points="309.85,-218.31 319.92,-214.99 309.98,-211.31 309.85,-218.31"/>
</a>
</g>
</g>
<!-- Node21&#45;&gt;Node18 -->
<g id="edge26_Node000021_Node000018" class="edge">
<title>Node21&#45;&gt;Node18</title>
<g id="a_edge26_Node000021_Node000018"><a xlink:title=" ">
<path fill="none" stroke="#63b8ff" d="M144.53,-232.63C132.55,-236.29 120.16,-240.09 108.55,-243.64"/>
<polygon fill="#63b8ff" stroke="#63b8ff" points="145.38,-236.02 153.92,-229.75 143.34,-229.33 145.38,-236.02"/>
</a>
</g>
</g>
<!-- Node22 -->
<g id="Node000022" class="node">
<title>Node22</title>
<g id="a_Node000022"><a xlink:href="avr_2spi_2spi_8h.html#a0353f98d744b931e541684fe33b272f7" target="_top" xlink:title=" ">
<polygon fill="white" stroke="#666666" points="70,-223 38.25,-223 38.25,-203 70,-203 70,-223"/>
<text text-anchor="middle" x="54.12" y="-209.5" font-family="Helvetica,sans-Serif" font-size="10.00">ISR</text>
</a>
</g>
</g>
<!-- Node21&#45;&gt;Node22 -->
<g id="edge25_Node000021_Node000022" class="edge">
<title>Node21&#45;&gt;Node22</title>
<g id="a_edge25_Node000021_Node000022"><a xlink:title=" ">
<path fill="none" stroke="#63b8ff" d="M143.93,-213C116.84,-213 87.7,-213 70.46,-213"/>
<polygon fill="#63b8ff" stroke="#63b8ff" points="143.86,-216.5 153.86,-213 143.86,-209.5 143.86,-216.5"/>
</a>
</g>
</g>
<!-- Node24 -->
<g id="Node000024" class="node">
<title>Node24</title>
<g id="a_Node000024"><a xlink:href="uart0_8h.html#a1c08ba1c9bac4dd9a045d06a07dbe0b4" target="_top" xlink:title=" ">
<polygon fill="white" stroke="#666666" points="430.5,-182 322.25,-182 322.25,-150 430.5,-150 430.5,-182"/>
<text text-anchor="start" x="330.25" y="-168.5" font-family="Helvetica,sans-Serif" font-size="10.00">zrtos_vfs_module_avr</text>
<text text-anchor="middle" x="376.38" y="-156.5" font-family="Helvetica,sans-Serif" font-size="10.00">_uart0__on_write</text>
</a>
</g>
</g>
<!-- Node23&#45;&gt;Node24 -->
<g id="edge28_Node000023_Node000024" class="edge">
<title>Node23&#45;&gt;Node24</title>
<g id="a_edge28_Node000023_Node000024"><a xlink:title=" ">
<path fill="none" stroke="#63b8ff" d="M480.49,-150.84C464.02,-153.26 446.59,-155.82 430.85,-158.14"/>
<polygon fill="#63b8ff" stroke="#63b8ff" points="480.83,-154.32 490.21,-149.41 479.81,-147.4 480.83,-154.32"/>
</a>
</g>
</g>
<!-- Node25 -->
<g id="Node000025" class="node">
<title>Node25</title>
<g id="a_Node000025"><a xlink:href="uart1_8h.html#af04452122e72ab7408b2e207191cdd33" target="_top" xlink:title=" ">
<polygon fill="white" stroke="#666666" points="430.5,-132 322.25,-132 322.25,-100 430.5,-100 430.5,-132"/>
<text text-anchor="start" x="330.25" y="-118.5" font-family="Helvetica,sans-Serif" font-size="10.00">zrtos_vfs_module_avr</text>
<text text-anchor="middle" x="376.38" y="-106.5" font-family="Helvetica,sans-Serif" font-size="10.00">_uart1__on_write</text>
</a>
</g>
</g>
<!-- Node23&#45;&gt;Node25 -->
<g id="edge29_Node000023_Node000025" class="edge">
<title>Node23&#45;&gt;Node25</title>
<g id="a_edge29_Node000023_Node000025"><a xlink:title=" ">
<path fill="none" stroke="#63b8ff" d="M480.49,-131.16C464.02,-128.74 446.59,-126.18 430.85,-123.86"/>
<polygon fill="#63b8ff" stroke="#63b8ff" points="479.81,-134.6 490.21,-132.59 480.83,-127.68 479.81,-134.6"/>
</a>
</g>
</g>
<!-- Node26 -->
<g id="Node000026" class="node">
<title>Node26</title>
<g id="a_Node000026"><a xlink:href="uart2_8h.html#a244148efdde4e736bdcba74328e85415" target="_top" xlink:title=" ">
<polygon fill="white" stroke="#666666" points="430.5,-82 322.25,-82 322.25,-50 430.5,-50 430.5,-82"/>
<text text-anchor="start" x="330.25" y="-68.5" font-family="Helvetica,sans-Serif" font-size="10.00">zrtos_vfs_module_avr</text>
<text text-anchor="middle" x="376.38" y="-56.5" font-family="Helvetica,sans-Serif" font-size="10.00">_uart2__on_write</text>
</a>
</g>
</g>
<!-- Node23&#45;&gt;Node26 -->
<g id="edge30_Node000023_Node000026" class="edge">
<title>Node23&#45;&gt;Node26</title>
<g id="a_edge30_Node000023_Node000026"><a xlink:title=" ">
<path fill="none" stroke="#63b8ff" d="M486.06,-120.02C483.22,-118.73 480.44,-117.39 477.75,-116 460.43,-107.08 458.95,-100.15 441.75,-91 436.03,-87.96 429.86,-85.09 423.69,-82.45"/>
<polygon fill="#63b8ff" stroke="#63b8ff" points="484.55,-123.18 495.12,-123.91 487.31,-116.75 484.55,-123.18"/>
</a>
</g>
</g>
<!-- Node27 -->
<g id="Node000027" class="node">
<title>Node27</title>
<g id="a_Node000027"><a xlink:href="uart3_8h.html#a0ac21cf2483f89180a91b9ca480eb7b8" target="_top" xlink:title=" ">
<polygon fill="white" stroke="#666666" points="430.5,-32 322.25,-32 322.25,0 430.5,0 430.5,-32"/>
<text text-anchor="start" x="330.25" y="-18.5" font-family="Helvetica,sans-Serif" font-size="10.00">zrtos_vfs_module_avr</text>
<text text-anchor="middle" x="376.38" y="-6.5" font-family="Helvetica,sans-Serif" font-size="10.00">_uart3__on_write</text>
</a>
</g>
</g>
<!-- Node23&#45;&gt;Node27 -->
<g id="edge31_Node000023_Node000027" class="edge">
<title>Node23&#45;&gt;Node27</title>
<g id="a_edge31_Node000023_Node000027"><a xlink:title=" ">
<path fill="none" stroke="#63b8ff" d="M482.28,-119.71C480.71,-118.54 479.19,-117.3 477.75,-116 450.3,-91.23 468.88,-66.12 441.75,-41 438.23,-37.74 434.24,-34.89 430.01,-32.4"/>
<polygon fill="#63b8ff" stroke="#63b8ff" points="480.24,-122.56 490.57,-124.94 483.98,-116.64 480.24,-122.56"/>
</a>
</g>
</g>
<!-- Node29 -->
<g id="Node000029" class="node">
<title>Node29</title>
<g id="a_Node000029"><a xlink:href="uart0_8h.html#a69856cc389c8b76c8cf8c45ea5a33bc7" target="_top" xlink:title=" ">
<polygon fill="white" stroke="#666666" points="564.25,-107 532.5,-107 532.5,-87 564.25,-87 564.25,-107"/>
<text text-anchor="middle" x="548.38" y="-93.5" font-family="Helvetica,sans-Serif" font-size="10.00">ISR</text>
</a>
</g>
</g>
<!-- Node28&#45;&gt;Node29 -->
<g id="edge33_Node000028_Node000029" class="edge">
<title>Node28&#45;&gt;Node29</title>
<g id="a_edge33_Node000028_Node000029"><a xlink:title=" ">
<path fill="none" stroke="#63b8ff" d="M643.44,-97C613.54,-97 582.33,-97 564.43,-97"/>
<polygon fill="#63b8ff" stroke="#63b8ff" points="643.29,-100.5 653.29,-97 643.29,-93.5 643.29,-100.5"/>
</a>
</g>
</g>
<!-- Node30 -->
<g id="Node000030" class="node">
<title>Node30</title>
<g id="a_Node000030"><a xlink:href="uart1_8h.html#a267ce5a39e1419fa9d59d7280b56b70e" target="_top" xlink:title=" ">
<polygon fill="white" stroke="#666666" points="564.25,-69 532.5,-69 532.5,-49 564.25,-49 564.25,-69"/>
<text text-anchor="middle" x="548.38" y="-55.5" font-family="Helvetica,sans-Serif" font-size="10.00">ISR</text>
</a>
</g>
</g>
<!-- Node28&#45;&gt;Node30 -->
<g id="edge34_Node000028_Node000030" class="edge">
<title>Node28&#45;&gt;Node30</title>
<g id="a_edge34_Node000028_Node000030"><a xlink:title=" ">
<path fill="none" stroke="#63b8ff" d="M643.83,-79.88C613.82,-73.25 582.4,-66.3 564.43,-62.33"/>
<polygon fill="#63b8ff" stroke="#63b8ff" points="642.8,-83.24 653.32,-81.98 644.31,-76.41 642.8,-83.24"/>
</a>
</g>
</g>
</g>
</svg>
