<?xml version="1.0" encoding="UTF-8" standalone="no"?>
<!DOCTYPE svg PUBLIC "-//W3C//DTD SVG 1.1//EN"
 "http://www.w3.org/Graphics/SVG/1.1/DTD/svg11.dtd">
<!-- Generated by graphviz version 10.0.1 (20240210.2158)
 -->
<!-- Title: zrtos_cbuffer__init Pages: 1 -->
<svg width="702pt" height="110pt"
 viewBox="0.00 0.00 702.25 110.00" xmlns="http://www.w3.org/2000/svg" xmlns:xlink="http://www.w3.org/1999/xlink">
<g id="graph0" class="graph" transform="scale(1 1) rotate(0) translate(4 106)">
<title>zrtos_cbuffer__init</title>
<!-- Node1 -->
<g id="Node000001" class="node">
<title>Node1</title>
<g id="a_Node000001"><a xlink:title=" ">
<polygon fill="#999999" stroke="#666666" points="94.75,-39 0,-39 0,-19 94.75,-19 94.75,-39"/>
<text text-anchor="middle" x="47.38" y="-25.5" font-family="Helvetica,sans-Serif" font-size="10.00">zrtos_cbuffer__init</text>
</a>
</g>
</g>
<!-- Node2 -->
<g id="Node000002" class="node">
<title>Node2</title>
<g id="a_Node000002"><a xlink:href="cbuffer_8h.html#a1749e471b67565254c5dc85e0cb728a1" target="_top" xlink:title=" ">
<polygon fill="white" stroke="#666666" points="256.25,-58 130.75,-58 130.75,-38 256.25,-38 256.25,-58"/>
<text text-anchor="middle" x="193.5" y="-44.5" font-family="Helvetica,sans-Serif" font-size="10.00">zrtos_cbuffer_node__new</text>
</a>
</g>
</g>
<!-- Node1&#45;&gt;Node2 -->
<g id="edge1_Node000001_Node000002" class="edge">
<title>Node1&#45;&gt;Node2</title>
<g id="a_edge1_Node000001_Node000002"><a xlink:title=" ">
<path fill="none" stroke="#63b8ff" d="M95.17,-35.17C102.91,-36.19 111.1,-37.27 119.3,-38.35"/>
<polygon fill="#63b8ff" stroke="#63b8ff" points="118.59,-41.79 128.97,-39.62 119.51,-34.85 118.59,-41.79"/>
</a>
</g>
</g>
<!-- Node8 -->
<g id="Node000008" class="node">
<title>Node8</title>
<g id="a_Node000008"><a xlink:href="list_8h.html#a2da91c03abf243dc0485a6027e970605" target="_top" xlink:title=" ">
<polygon fill="white" stroke="#666666" points="233,-20 154,-20 154,0 233,0 233,-20"/>
<text text-anchor="middle" x="193.5" y="-6.5" font-family="Helvetica,sans-Serif" font-size="10.00">zrtos_list__init</text>
</a>
</g>
</g>
<!-- Node1&#45;&gt;Node8 -->
<g id="edge7_Node000001_Node000008" class="edge">
<title>Node1&#45;&gt;Node8</title>
<g id="a_edge7_Node000001_Node000008"><a xlink:title=" ">
<path fill="none" stroke="#63b8ff" d="M95.17,-22.83C110.23,-20.85 126.98,-18.64 142.29,-16.62"/>
<polygon fill="#63b8ff" stroke="#63b8ff" points="142.69,-20.1 152.15,-15.32 141.78,-13.16 142.69,-20.1"/>
</a>
</g>
</g>
<!-- Node3 -->
<g id="Node000003" class="node">
<title>Node3</title>
<g id="a_Node000003"><a xlink:href="cbuffer_8h.html#aeb332726de06c905eb2db32ae3d323eb" target="_top" xlink:title=" ">
<polygon fill="white" stroke="#666666" points="390,-89 292.25,-89 292.25,-57 390,-57 390,-89"/>
<text text-anchor="start" x="300.25" y="-75.5" font-family="Helvetica,sans-Serif" font-size="10.00">zrtos_cbuffer_node</text>
<text text-anchor="middle" x="341.12" y="-63.5" font-family="Helvetica,sans-Serif" font-size="10.00">__init</text>
</a>
</g>
</g>
<!-- Node2&#45;&gt;Node3 -->
<g id="edge2_Node000002_Node000003" class="edge">
<title>Node2&#45;&gt;Node3</title>
<g id="a_edge2_Node000002_Node000003"><a xlink:title=" ">
<path fill="none" stroke="#63b8ff" d="M255.41,-58.46C263.77,-59.89 272.35,-61.36 280.68,-62.79"/>
<polygon fill="#63b8ff" stroke="#63b8ff" points="279.91,-66.21 290.36,-64.46 281.09,-59.31 279.91,-66.21"/>
</a>
</g>
</g>
<!-- Node7 -->
<g id="Node000007" class="node">
<title>Node7</title>
<g id="a_Node000007"><a xlink:href="malloc__limit_8h.html#a219ea8916b582afe8c2120d09abf8656" target="_top" xlink:title=" ">
<polygon fill="white" stroke="#666666" points="388.5,-39 293.75,-39 293.75,-7 388.5,-7 388.5,-39"/>
<text text-anchor="start" x="301.75" y="-25.5" font-family="Helvetica,sans-Serif" font-size="10.00">zrtos_malloc_limit</text>
<text text-anchor="middle" x="341.12" y="-13.5" font-family="Helvetica,sans-Serif" font-size="10.00">__malloc</text>
</a>
</g>
</g>
<!-- Node2&#45;&gt;Node7 -->
<g id="edge6_Node000002_Node000007" class="edge">
<title>Node2&#45;&gt;Node7</title>
<g id="a_edge6_Node000002_Node000007"><a xlink:title=" ">
<path fill="none" stroke="#63b8ff" d="M255.41,-37.54C264.4,-36 273.64,-34.41 282.55,-32.88"/>
<polygon fill="#63b8ff" stroke="#63b8ff" points="282.88,-36.38 292.14,-31.24 281.7,-29.48 282.88,-36.38"/>
</a>
</g>
</g>
<!-- Node4 -->
<g id="Node000004" class="node">
<title>Node4</title>
<g id="a_Node000004"><a xlink:href="list_8h.html#aa734984fb49603438b179f49fff38477" target="_top" xlink:title=" ">
<polygon fill="white" stroke="#666666" points="522.25,-102 435,-102 435,-82 522.25,-82 522.25,-102"/>
<text text-anchor="middle" x="478.62" y="-88.5" font-family="Helvetica,sans-Serif" font-size="10.00">zrtos_list__push</text>
</a>
</g>
</g>
<!-- Node3&#45;&gt;Node4 -->
<g id="edge3_Node000003_Node000004" class="edge">
<title>Node3&#45;&gt;Node4</title>
<g id="a_edge3_Node000003_Node000004"><a xlink:title=" ">
<path fill="none" stroke="#63b8ff" d="M390.28,-79.75C401.01,-81.26 412.45,-82.86 423.4,-84.4"/>
<polygon fill="#63b8ff" stroke="#63b8ff" points="422.7,-87.83 433.09,-85.75 423.67,-80.9 422.7,-87.83"/>
</a>
</g>
</g>
<!-- Node6 -->
<g id="Node000006" class="node">
<title>Node6</title>
<g id="a_Node000006"><a xlink:href="list_8h.html#a40feeb4cd0cc4e30201a279240b52429" target="_top" xlink:title=" ">
<polygon fill="white" stroke="#666666" points="531.25,-64 426,-64 426,-44 531.25,-44 531.25,-64"/>
<text text-anchor="middle" x="478.62" y="-50.5" font-family="Helvetica,sans-Serif" font-size="10.00">zrtos_list_node__init</text>
</a>
</g>
</g>
<!-- Node3&#45;&gt;Node6 -->
<g id="edge5_Node000003_Node000006" class="edge">
<title>Node3&#45;&gt;Node6</title>
<g id="a_edge5_Node000003_Node000006"><a xlink:title=" ">
<path fill="none" stroke="#63b8ff" d="M390.28,-66.25C398.23,-65.13 406.57,-63.96 414.82,-62.81"/>
<polygon fill="#63b8ff" stroke="#63b8ff" points="415.04,-66.31 424.45,-61.46 414.06,-59.38 415.04,-66.31"/>
</a>
</g>
</g>
<!-- Node5 -->
<g id="Node000005" class="node">
<title>Node5</title>
<g id="a_Node000005"><a xlink:href="list_8h.html#aa2f26b2b6fd722b708eb7e25cc264a90" target="_top" xlink:title=" ">
<polygon fill="white" stroke="#666666" points="694.25,-102 567.25,-102 567.25,-82 694.25,-82 694.25,-102"/>
<text text-anchor="middle" x="630.75" y="-88.5" font-family="Helvetica,sans-Serif" font-size="10.00">zrtos_list__get_last_node</text>
</a>
</g>
</g>
<!-- Node4&#45;&gt;Node5 -->
<g id="edge4_Node000004_Node000005" class="edge">
<title>Node4&#45;&gt;Node5</title>
<g id="a_edge4_Node000004_Node000005"><a xlink:title=" ">
<path fill="none" stroke="#63b8ff" d="M522.64,-92C532.98,-92 544.31,-92 555.61,-92"/>
<polygon fill="#63b8ff" stroke="#63b8ff" points="555.35,-95.5 565.35,-92 555.35,-88.5 555.35,-95.5"/>
</a>
</g>
</g>
</g>
</svg>
