<?xml version="1.0" encoding="UTF-8" standalone="no"?>
<!DOCTYPE svg PUBLIC "-//W3C//DTD SVG 1.1//EN"
 "http://www.w3.org/Graphics/SVG/1.1/DTD/svg11.dtd">
<!-- Generated by graphviz version 10.0.1 (20240210.2158)
 -->
<!-- Title: cbuffer.h Pages: 1 -->
<svg width="525pt" height="196pt"
 viewBox="0.00 0.00 524.88 196.00" xmlns="http://www.w3.org/2000/svg" xmlns:xlink="http://www.w3.org/1999/xlink">
<g id="graph0" class="graph" transform="scale(1 1) rotate(0) translate(4 192)">
<title>cbuffer.h</title>
<!-- Node1 -->
<g id="Node000001" class="node">
<title>Node1</title>
<g id="a_Node000001"><a xlink:title=" ">
<polygon fill="#999999" stroke="#666666" points="291.62,-188 238.88,-188 238.88,-168 291.62,-168 291.62,-188"/>
<text text-anchor="middle" x="265.25" y="-174.5" font-family="Helvetica,sans-Serif" font-size="10.00">cbuffer.h</text>
</a>
</g>
</g>
<!-- Node2 -->
<g id="Node000002" class="node">
<title>Node2</title>
<g id="a_Node000002"><a xlink:href="types_8h.html" target="_top" xlink:title=" ">
<polygon fill="white" stroke="#666666" points="128.75,-76 55.75,-76 55.75,-56 128.75,-56 128.75,-76"/>
<text text-anchor="middle" x="92.25" y="-62.5" font-family="Helvetica,sans-Serif" font-size="10.00">zrtos/types.h</text>
</a>
</g>
</g>
<!-- Node1&#45;&gt;Node2 -->
<g id="edge1_Node000001_Node000002" class="edge">
<title>Node1&#45;&gt;Node2</title>
<g id="a_edge1_Node000001_Node000002"><a xlink:title=" ">
<path fill="none" stroke="#63b8ff" d="M238.41,-170.37C213.94,-163.47 177.53,-150.97 150.25,-132 131.89,-119.23 115.39,-99.53 104.72,-85.16"/>
<polygon fill="#63b8ff" stroke="#63b8ff" points="107.87,-83.54 99.2,-77.45 102.18,-87.61 107.87,-83.54"/>
</a>
</g>
</g>
<!-- Node7 -->
<g id="Node000007" class="node">
<title>Node7</title>
<g id="a_Node000007"><a xlink:href="error_8h.html" target="_top" xlink:title=" ">
<polygon fill="white" stroke="#666666" points="361.5,-132 293,-132 293,-112 361.5,-112 361.5,-132"/>
<text text-anchor="middle" x="327.25" y="-118.5" font-family="Helvetica,sans-Serif" font-size="10.00">zrtos/error.h</text>
</a>
</g>
</g>
<!-- Node1&#45;&gt;Node7 -->
<g id="edge6_Node000001_Node000007" class="edge">
<title>Node1&#45;&gt;Node7</title>
<g id="a_edge6_Node000001_Node000007"><a xlink:title=" ">
<path fill="none" stroke="#63b8ff" d="M276.05,-167.59C284.85,-159.93 297.5,-148.91 308.02,-139.75"/>
<polygon fill="#63b8ff" stroke="#63b8ff" points="310.19,-142.5 315.43,-133.29 305.59,-137.22 310.19,-142.5"/>
</a>
</g>
</g>
<!-- Node8 -->
<g id="Node000008" class="node">
<title>Node8</title>
<g id="a_Node000008"><a xlink:href="assert_8h.html" target="_top" xlink:title=" ">
<polygon fill="white" stroke="#666666" points="316.25,-76 240.25,-76 240.25,-56 316.25,-56 316.25,-76"/>
<text text-anchor="middle" x="278.25" y="-62.5" font-family="Helvetica,sans-Serif" font-size="10.00">zrtos/assert.h</text>
</a>
</g>
</g>
<!-- Node1&#45;&gt;Node8 -->
<g id="edge15_Node000001_Node000008" class="edge">
<title>Node1&#45;&gt;Node8</title>
<g id="a_edge15_Node000001_Node000008"><a xlink:title=" ">
<path fill="none" stroke="#63b8ff" d="M266.36,-167.62C268.44,-150.01 272.98,-111.59 275.81,-87.65"/>
<polygon fill="#63b8ff" stroke="#63b8ff" points="279.27,-88.2 276.97,-77.86 272.32,-87.38 279.27,-88.2"/>
</a>
</g>
</g>
<!-- Node9 -->
<g id="Node000009" class="node">
<title>Node9</title>
<g id="a_Node000009"><a xlink:href="list_8h.html" target="_top" xlink:title=" ">
<polygon fill="white" stroke="#666666" points="103.12,-132 41.38,-132 41.38,-112 103.12,-112 103.12,-132"/>
<text text-anchor="middle" x="72.25" y="-118.5" font-family="Helvetica,sans-Serif" font-size="10.00">zrtos/list.h</text>
</a>
</g>
</g>
<!-- Node1&#45;&gt;Node9 -->
<g id="edge9_Node000001_Node000009" class="edge">
<title>Node1&#45;&gt;Node9</title>
<g id="a_edge9_Node000001_Node000009"><a xlink:title=" ">
<path fill="none" stroke="#63b8ff" d="M238.41,-169.49C206.17,-160.47 151.72,-145.23 113.98,-134.67"/>
<polygon fill="#63b8ff" stroke="#63b8ff" points="115.36,-131.43 104.78,-132.1 113.47,-138.17 115.36,-131.43"/>
</a>
</g>
</g>
<!-- Node10 -->
<g id="Node000010" class="node">
<title>Node10</title>
<g id="a_Node000010"><a xlink:href="malloc_8h.html" target="_top" xlink:title=" ">
<polygon fill="white" stroke="#666666" points="237,-132 159.5,-132 159.5,-112 237,-112 237,-132"/>
<text text-anchor="middle" x="198.25" y="-118.5" font-family="Helvetica,sans-Serif" font-size="10.00">zrtos/malloc.h</text>
</a>
</g>
</g>
<!-- Node1&#45;&gt;Node10 -->
<g id="edge11_Node000001_Node000010" class="edge">
<title>Node1&#45;&gt;Node10</title>
<g id="a_edge11_Node000001_Node000010"><a xlink:title=" ">
<path fill="none" stroke="#63b8ff" d="M253.58,-167.59C243.97,-159.85 230.12,-148.69 218.68,-139.47"/>
<polygon fill="#63b8ff" stroke="#63b8ff" points="220.95,-136.8 210.97,-133.25 216.55,-142.25 220.95,-136.8"/>
</a>
</g>
</g>
<!-- Node12 -->
<g id="Node000012" class="node">
<title>Node12</title>
<g id="a_Node000012"><a xlink:href="cast_8h.html" target="_top" xlink:title=" ">
<polygon fill="white" stroke="#666666" points="447.12,-132 379.38,-132 379.38,-112 447.12,-112 447.12,-132"/>
<text text-anchor="middle" x="413.25" y="-118.5" font-family="Helvetica,sans-Serif" font-size="10.00">zrtos/cast.h</text>
</a>
</g>
</g>
<!-- Node1&#45;&gt;Node12 -->
<g id="edge16_Node000001_Node000012" class="edge">
<title>Node1&#45;&gt;Node12</title>
<g id="a_edge16_Node000001_Node000012"><a xlink:title=" ">
<path fill="none" stroke="#63b8ff" d="M291.03,-167.59C314.65,-158.97 349.89,-146.12 376.47,-136.42"/>
<polygon fill="#63b8ff" stroke="#63b8ff" points="377.65,-139.71 385.85,-133 375.25,-133.14 377.65,-139.71"/>
</a>
</g>
</g>
<!-- Node13 -->
<g id="Node000013" class="node">
<title>Node13</title>
<g id="a_Node000013"><a xlink:title=" ">
<polygon fill="#e0e0e0" stroke="#999999" points="516.88,-132 465.62,-132 465.62,-112 516.88,-112 516.88,-132"/>
<text text-anchor="middle" x="491.25" y="-118.5" font-family="Helvetica,sans-Serif" font-size="10.00">stdarg.h</text>
</a>
</g>
</g>
<!-- Node1&#45;&gt;Node13 -->
<g id="edge17_Node000001_Node000013" class="edge">
<title>Node1&#45;&gt;Node13</title>
<g id="a_edge17_Node000001_Node000013"><a xlink:title=" ">
<path fill="none" stroke="#63b8ff" d="M291.86,-170.91C326.79,-162.88 390.26,-148.15 454.18,-132.47"/>
<polygon fill="#63b8ff" stroke="#63b8ff" points="454.93,-135.89 463.8,-130.1 453.25,-129.1 454.93,-135.89"/>
</a>
</g>
</g>
<!-- Node3 -->
<g id="Node000003" class="node">
<title>Node3</title>
<g id="a_Node000003"><a xlink:title=" ">
<polygon fill="#e0e0e0" stroke="#999999" points="190.12,-20 134.38,-20 134.38,0 190.12,0 190.12,-20"/>
<text text-anchor="middle" x="162.25" y="-6.5" font-family="Helvetica,sans-Serif" font-size="10.00">stdbool.h</text>
</a>
</g>
</g>
<!-- Node2&#45;&gt;Node3 -->
<g id="edge2_Node000002_Node000003" class="edge">
<title>Node2&#45;&gt;Node3</title>
<g id="a_edge2_Node000002_Node000003"><a xlink:title=" ">
<path fill="none" stroke="#63b8ff" d="M104.44,-55.59C114.58,-47.77 129.24,-36.46 141.26,-27.19"/>
<polygon fill="#63b8ff" stroke="#63b8ff" points="143.22,-30.1 149,-21.22 138.94,-24.56 143.22,-30.1"/>
</a>
</g>
</g>
<!-- Node4 -->
<g id="Node000004" class="node">
<title>Node4</title>
<g id="a_Node000004"><a xlink:title=" ">
<polygon fill="#e0e0e0" stroke="#999999" points="50.5,-20 0,-20 0,0 50.5,0 50.5,-20"/>
<text text-anchor="middle" x="25.25" y="-6.5" font-family="Helvetica,sans-Serif" font-size="10.00">stddef.h</text>
</a>
</g>
</g>
<!-- Node2&#45;&gt;Node4 -->
<g id="edge3_Node000002_Node000004" class="edge">
<title>Node2&#45;&gt;Node4</title>
<g id="a_edge3_Node000002_Node000004"><a xlink:title=" ">
<path fill="none" stroke="#63b8ff" d="M80.58,-55.59C70.97,-47.85 57.12,-36.69 45.68,-27.47"/>
<polygon fill="#63b8ff" stroke="#63b8ff" points="47.95,-24.8 37.97,-21.25 43.55,-30.25 47.95,-24.8"/>
</a>
</g>
</g>
<!-- Node5 -->
<g id="Node000005" class="node">
<title>Node5</title>
<g id="a_Node000005"><a xlink:title=" ">
<polygon fill="#e0e0e0" stroke="#999999" points="116.38,-20 68.12,-20 68.12,0 116.38,0 116.38,-20"/>
<text text-anchor="middle" x="92.25" y="-6.5" font-family="Helvetica,sans-Serif" font-size="10.00">stdint.h</text>
</a>
</g>
</g>
<!-- Node2&#45;&gt;Node5 -->
<g id="edge4_Node000002_Node000005" class="edge">
<title>Node2&#45;&gt;Node5</title>
<g id="a_edge4_Node000002_Node000005"><a xlink:title=" ">
<path fill="none" stroke="#63b8ff" d="M92.25,-55.59C92.25,-49.01 92.25,-39.96 92.25,-31.73"/>
<polygon fill="#63b8ff" stroke="#63b8ff" points="95.75,-31.81 92.25,-21.81 88.75,-31.81 95.75,-31.81"/>
</a>
</g>
</g>
<!-- Node6 -->
<g id="Node000006" class="node">
<title>Node6</title>
<g id="a_Node000006"><a xlink:title=" ">
<polygon fill="#e0e0e0" stroke="#999999" points="312,-20 264.5,-20 264.5,0 312,0 312,-20"/>
<text text-anchor="middle" x="288.25" y="-6.5" font-family="Helvetica,sans-Serif" font-size="10.00">limits.h</text>
</a>
</g>
</g>
<!-- Node2&#45;&gt;Node6 -->
<g id="edge5_Node000002_Node000006" class="edge">
<title>Node2&#45;&gt;Node6</title>
<g id="a_edge5_Node000002_Node000006"><a xlink:title=" ">
<path fill="none" stroke="#63b8ff" d="M126.39,-55.59C161.92,-45.81 217.28,-30.55 253.16,-20.67"/>
<polygon fill="#63b8ff" stroke="#63b8ff" points="253.91,-24.09 262.62,-18.06 252.05,-17.34 253.91,-24.09"/>
</a>
</g>
</g>
<!-- Node7&#45;&gt;Node6 -->
<g id="edge7_Node000007_Node000006" class="edge">
<title>Node7&#45;&gt;Node6</title>
<g id="a_edge7_Node000007_Node000006"><a xlink:title=" ">
<path fill="none" stroke="#63b8ff" d="M328.77,-111.81C330.52,-98.89 332.32,-74.81 325.25,-56 321.41,-45.79 314.25,-36.2 307.23,-28.52"/>
<polygon fill="#63b8ff" stroke="#63b8ff" points="309.86,-26.19 300.35,-21.53 304.87,-31.11 309.86,-26.19"/>
</a>
</g>
</g>
<!-- Node7&#45;&gt;Node8 -->
<g id="edge8_Node000007_Node000008" class="edge">
<title>Node7&#45;&gt;Node8</title>
<g id="a_edge8_Node000007_Node000008"><a xlink:title=" ">
<path fill="none" stroke="#63b8ff" d="M318.71,-111.59C311.97,-104.16 302.36,-93.58 294.21,-84.58"/>
<polygon fill="#63b8ff" stroke="#63b8ff" points="297.02,-82.47 287.7,-77.42 291.83,-87.18 297.02,-82.47"/>
</a>
</g>
</g>
<!-- Node9&#45;&gt;Node2 -->
<g id="edge10_Node000009_Node000002" class="edge">
<title>Node9&#45;&gt;Node2</title>
<g id="a_edge10_Node000009_Node000002"><a xlink:title=" ">
<path fill="none" stroke="#63b8ff" d="M75.73,-111.59C78.26,-104.78 81.76,-95.32 84.89,-86.86"/>
<polygon fill="#63b8ff" stroke="#63b8ff" points="88.09,-88.31 88.28,-77.72 81.53,-85.88 88.09,-88.31"/>
</a>
</g>
</g>
<!-- Node10&#45;&gt;Node2 -->
<g id="edge13_Node000010_Node000002" class="edge">
<title>Node10&#45;&gt;Node2</title>
<g id="a_edge13_Node000010_Node000002"><a xlink:title=" ">
<path fill="none" stroke="#63b8ff" d="M179.79,-111.59C163.55,-103.32 139.64,-91.14 120.92,-81.6"/>
<polygon fill="#63b8ff" stroke="#63b8ff" points="122.71,-78.59 112.21,-77.17 119.53,-84.82 122.71,-78.59"/>
</a>
</g>
</g>
<!-- Node10&#45;&gt;Node8 -->
<g id="edge12_Node000010_Node000008" class="edge">
<title>Node10&#45;&gt;Node8</title>
<g id="a_edge12_Node000010_Node000008"><a xlink:title=" ">
<path fill="none" stroke="#63b8ff" d="M212.18,-111.59C223.93,-103.67 240.98,-92.16 254.82,-82.82"/>
<polygon fill="#63b8ff" stroke="#63b8ff" points="256.62,-85.82 262.95,-77.33 252.71,-80.02 256.62,-85.82"/>
</a>
</g>
</g>
<!-- Node11 -->
<g id="Node000011" class="node">
<title>Node11</title>
<g id="a_Node000011"><a xlink:href="debug_8h.html" target="_top" xlink:title=" ">
<polygon fill="white" stroke="#666666" points="221.88,-76 146.62,-76 146.62,-56 221.88,-56 221.88,-76"/>
<text text-anchor="middle" x="184.25" y="-62.5" font-family="Helvetica,sans-Serif" font-size="10.00">zrtos/debug.h</text>
</a>
</g>
</g>
<!-- Node10&#45;&gt;Node11 -->
<g id="edge14_Node000010_Node000011" class="edge">
<title>Node10&#45;&gt;Node11</title>
<g id="a_edge14_Node000010_Node000011"><a xlink:title=" ">
<path fill="none" stroke="#63b8ff" d="M195.81,-111.59C194.08,-104.93 191.7,-95.75 189.55,-87.44"/>
<polygon fill="#63b8ff" stroke="#63b8ff" points="192.94,-86.56 187.04,-77.76 186.16,-88.32 192.94,-86.56"/>
</a>
</g>
</g>
</g>
</svg>
