<?xml version="1.0" encoding="UTF-8" standalone="no"?>
<!DOCTYPE svg PUBLIC "-//W3C//DTD SVG 1.1//EN"
 "http://www.w3.org/Graphics/SVG/1.1/DTD/svg11.dtd">
<!-- Generated by graphviz version 2.40.1 (20161225.0304)
 -->
<!-- Title: zrtos_cbuffer__put_ex Pages: 1 -->
<svg width="788pt" height="405pt"
 viewBox="0.00 0.00 788.00 405.00" xmlns="http://www.w3.org/2000/svg" xmlns:xlink="http://www.w3.org/1999/xlink">
<g id="graph0" class="graph" transform="scale(1 1) rotate(0) translate(4 401)">
<title>zrtos_cbuffer__put_ex</title>
<polygon fill="#ffffff" stroke="transparent" points="-4,4 -4,-401 784,-401 784,4 -4,4"/>
<!-- Node370 -->
<g id="node1" class="node">
<title>Node370</title>
<polygon fill="#bfbfbf" stroke="#000000" points="0,-263 0,-282 113,-282 113,-263 0,-263"/>
<text text-anchor="middle" x="56.5" y="-270" font-family="Helvetica,sans-Serif" font-size="10.00" fill="#000000">zrtos_cbuffer__put_ex</text>
</g>
<!-- Node371 -->
<g id="node2" class="node">
<title>Node371</title>
<g id="a_node2"><a xlink:href="msg__queue_8h.html#a9f24485c49e6b6ba13406e9a5d1f352d" target="_top" xlink:title="zrtos_msg_queue__put\l_length">
<polygon fill="#ffffff" stroke="#000000" points="161,-361.5 161,-391.5 279,-391.5 279,-361.5 161,-361.5"/>
<text text-anchor="start" x="169" y="-379.5" font-family="Helvetica,sans-Serif" font-size="10.00" fill="#000000">zrtos_msg_queue__put</text>
<text text-anchor="middle" x="220" y="-368.5" font-family="Helvetica,sans-Serif" font-size="10.00" fill="#000000">_length</text>
</a>
</g>
</g>
<!-- Node370&#45;&gt;Node371 -->
<g id="edge1" class="edge">
<title>Node370&#45;&gt;Node371</title>
<path fill="none" stroke="#191970" d="M72.4339,-289.3886C89.817,-306.9761 119.1671,-334.3118 149,-351.5 155.4543,-355.2186 162.5542,-358.5207 169.6924,-361.4074"/>
<polygon fill="#191970" stroke="#191970" points="74.8053,-286.8064 65.3304,-282.0653 69.7807,-291.6802 74.8053,-286.8064"/>
</g>
<!-- Node376 -->
<g id="node7" class="node">
<title>Node376</title>
<g id="a_node7"><a xlink:href="msg__queue_8h.html#a14fb4faf04687986da3435e06db5d587" target="_top" xlink:title="zrtos_msg_queue__put_data">
<polygon fill="#ffffff" stroke="#000000" points="149,-323 149,-342 291,-342 291,-323 149,-323"/>
<text text-anchor="middle" x="220" y="-330" font-family="Helvetica,sans-Serif" font-size="10.00" fill="#000000">zrtos_msg_queue__put_data</text>
</a>
</g>
</g>
<!-- Node370&#45;&gt;Node376 -->
<g id="edge6" class="edge">
<title>Node370&#45;&gt;Node376</title>
<path fill="none" stroke="#191970" d="M85.0013,-286.5161C103.0559,-295.0465 127.0578,-305.7543 149,-313.5 158.8666,-316.983 169.697,-320.1841 179.8615,-322.9265"/>
<polygon fill="#191970" stroke="#191970" points="86.1649,-283.1929 75.6336,-282.0337 83.1434,-289.5073 86.1649,-283.1929"/>
</g>
<!-- Node377 -->
<g id="node8" class="node">
<title>Node377</title>
<g id="a_node8"><a xlink:href="msg__queue_8h.html#ab51eb620b09145d1b05966404c9e0ca4" target="_top" xlink:title="zrtos_msg_queue__put">
<polygon fill="#ffffff" stroke="#000000" points="161,-285 161,-304 279,-304 279,-285 161,-285"/>
<text text-anchor="middle" x="220" y="-292" font-family="Helvetica,sans-Serif" font-size="10.00" fill="#000000">zrtos_msg_queue__put</text>
</a>
</g>
</g>
<!-- Node370&#45;&gt;Node377 -->
<g id="edge8" class="edge">
<title>Node370&#45;&gt;Node377</title>
<path fill="none" stroke="#191970" d="M123.4957,-281.5147C135.8842,-283.1817 148.7402,-284.9115 160.8743,-286.5443"/>
<polygon fill="#191970" stroke="#191970" points="123.603,-277.9977 113.2255,-280.1328 122.6694,-284.9352 123.603,-277.9977"/>
</g>
<!-- Node378 -->
<g id="node9" class="node">
<title>Node378</title>
<g id="a_node9"><a xlink:href="spi_2spi_8h.html#a7f9adeb6314d47b2442b0a17d1cc2f37" target="_top" xlink:title="zrtos_vfs_module_spi\l__transfer_in">
<polygon fill="#ffffff" stroke="#000000" points="164,-235.5 164,-265.5 276,-265.5 276,-235.5 164,-235.5"/>
<text text-anchor="start" x="172" y="-253.5" font-family="Helvetica,sans-Serif" font-size="10.00" fill="#000000">zrtos_vfs_module_spi</text>
<text text-anchor="middle" x="220" y="-242.5" font-family="Helvetica,sans-Serif" font-size="10.00" fill="#000000">__transfer_in</text>
</a>
</g>
</g>
<!-- Node370&#45;&gt;Node378 -->
<g id="edge9" class="edge">
<title>Node370&#45;&gt;Node378</title>
<path fill="none" stroke="#191970" d="M123.3889,-263.4997C136.8545,-261.6878 150.8768,-259.801 163.9274,-258.0449"/>
<polygon fill="#191970" stroke="#191970" points="122.6694,-260.0648 113.2255,-264.8672 123.603,-267.0023 122.6694,-260.0648"/>
</g>
<!-- Node383 -->
<g id="node14" class="node">
<title>Node383</title>
<g id="a_node14"><a xlink:href="spi_2spi_8h.html#ac672df98eac652a9d1925ba73229c475" target="_top" xlink:title="zrtos_vfs_module_spi\l__on_write">
<polygon fill="#ffffff" stroke="#000000" points="508,-189.5 508,-219.5 620,-219.5 620,-189.5 508,-189.5"/>
<text text-anchor="start" x="516" y="-207.5" font-family="Helvetica,sans-Serif" font-size="10.00" fill="#000000">zrtos_vfs_module_spi</text>
<text text-anchor="middle" x="564" y="-196.5" font-family="Helvetica,sans-Serif" font-size="10.00" fill="#000000">__on_write</text>
</a>
</g>
</g>
<!-- Node370&#45;&gt;Node383 -->
<g id="edge14" class="edge">
<title>Node370&#45;&gt;Node383</title>
<path fill="none" stroke="#191970" d="M79.8135,-257.5435C97.9088,-246.7872 124.038,-233.0663 149,-226.5 273.8992,-193.6453 427.031,-195.9799 507.8498,-200.3566"/>
<polygon fill="#191970" stroke="#191970" points="77.8426,-254.646 71.1318,-262.8445 81.4906,-260.6203 77.8426,-254.646"/>
</g>
<!-- Node384 -->
<g id="node15" class="node">
<title>Node384</title>
<g id="a_node15"><a xlink:href="uart_2uart_8h.html#a9e735d9796aaa30e4a5fce9c763adf92" target="_top" xlink:title="zrtos_vfs_module_uart\l__on_write">
<polygon fill="#ffffff" stroke="#000000" points="162,-98.5 162,-128.5 278,-128.5 278,-98.5 162,-98.5"/>
<text text-anchor="start" x="170" y="-116.5" font-family="Helvetica,sans-Serif" font-size="10.00" fill="#000000">zrtos_vfs_module_uart</text>
<text text-anchor="middle" x="220" y="-105.5" font-family="Helvetica,sans-Serif" font-size="10.00" fill="#000000">__on_write</text>
</a>
</g>
</g>
<!-- Node370&#45;&gt;Node384 -->
<g id="edge16" class="edge">
<title>Node370&#45;&gt;Node384</title>
<path fill="none" stroke="#191970" d="M74.0876,-255.3965C106.2254,-224.1432 173.9357,-158.2965 204.4767,-128.5961"/>
<polygon fill="#191970" stroke="#191970" points="71.4566,-253.0729 66.7277,-262.5538 76.3368,-258.0913 71.4566,-253.0729"/>
</g>
<!-- Node372 -->
<g id="node3" class="node">
<title>Node372</title>
<g id="a_node3"><a xlink:href="rtu_8h.html#a223fc39dfd241ff17884c9f5d03f8e78" target="_top" xlink:title="zrtos_vfs_module_modbus\l_rtu__on_recv_timeout">
<polygon fill="#ffffff" stroke="#000000" points="327,-366.5 327,-396.5 461,-396.5 461,-366.5 327,-366.5"/>
<text text-anchor="start" x="335" y="-384.5" font-family="Helvetica,sans-Serif" font-size="10.00" fill="#000000">zrtos_vfs_module_modbus</text>
<text text-anchor="middle" x="394" y="-373.5" font-family="Helvetica,sans-Serif" font-size="10.00" fill="#000000">_rtu__on_recv_timeout</text>
</a>
</g>
</g>
<!-- Node371&#45;&gt;Node372 -->
<g id="edge2" class="edge">
<title>Node371&#45;&gt;Node372</title>
<path fill="none" stroke="#191970" d="M289.5673,-378.4991C301.8402,-378.8517 314.5956,-379.2183 326.8019,-379.569"/>
<polygon fill="#191970" stroke="#191970" points="289.4907,-374.9955 279.3943,-378.2067 289.2896,-381.9926 289.4907,-374.9955"/>
</g>
<!-- Node374 -->
<g id="node5" class="node">
<title>Node374</title>
<g id="a_node5"><a xlink:href="rtu_8h.html#ac0ca767b3e1e9a8b1f290448a122e095" target="_top" xlink:title="zrtos_vfs_module_modbus\l_rtu__on_write">
<polygon fill="#ffffff" stroke="#000000" points="327,-317.5 327,-347.5 461,-347.5 461,-317.5 327,-317.5"/>
<text text-anchor="start" x="335" y="-335.5" font-family="Helvetica,sans-Serif" font-size="10.00" fill="#000000">zrtos_vfs_module_modbus</text>
<text text-anchor="middle" x="394" y="-324.5" font-family="Helvetica,sans-Serif" font-size="10.00" fill="#000000">_rtu__on_write</text>
</a>
</g>
</g>
<!-- Node371&#45;&gt;Node374 -->
<g id="edge4" class="edge">
<title>Node371&#45;&gt;Node374</title>
<path fill="none" stroke="#191970" d="M289.1471,-359.0145C304.1815,-355.2127 319.9592,-351.223 334.5782,-347.5262"/>
<polygon fill="#191970" stroke="#191970" points="288.231,-355.6359 279.3943,-361.4808 289.9472,-362.4223 288.231,-355.6359"/>
</g>
<!-- Node373 -->
<g id="node4" class="node">
<title>Node373</title>
<g id="a_node4"><a xlink:href="rtu_8h.html#a2376d02a52d42eef634ef843afc499f3" target="_top" xlink:title="zrtos_vfs_module_modbus\l_rtu_inode__init">
<polygon fill="#ffffff" stroke="#000000" points="497,-366.5 497,-396.5 631,-396.5 631,-366.5 497,-366.5"/>
<text text-anchor="start" x="505" y="-384.5" font-family="Helvetica,sans-Serif" font-size="10.00" fill="#000000">zrtos_vfs_module_modbus</text>
<text text-anchor="middle" x="564" y="-373.5" font-family="Helvetica,sans-Serif" font-size="10.00" fill="#000000">_rtu_inode__init</text>
</a>
</g>
</g>
<!-- Node372&#45;&gt;Node373 -->
<g id="edge3" class="edge">
<title>Node372&#45;&gt;Node373</title>
<path fill="none" stroke="#191970" d="M471.4246,-381.5C479.8759,-381.5 488.4279,-381.5 496.7428,-381.5"/>
<polygon fill="#191970" stroke="#191970" points="471.1885,-378.0001 461.1885,-381.5 471.1885,-385.0001 471.1885,-378.0001"/>
</g>
<!-- Node375 -->
<g id="node6" class="node">
<title>Node375</title>
<g id="a_node6"><a xlink:href="rtu_8h.html#a08670f8758ac6130c738816d306eb923" target="_top" xlink:title="zrtos_vfs_module_modbus\l_rtu__on_ioctl">
<polygon fill="#ffffff" stroke="#000000" points="497,-317.5 497,-347.5 631,-347.5 631,-317.5 497,-317.5"/>
<text text-anchor="start" x="505" y="-335.5" font-family="Helvetica,sans-Serif" font-size="10.00" fill="#000000">zrtos_vfs_module_modbus</text>
<text text-anchor="middle" x="564" y="-324.5" font-family="Helvetica,sans-Serif" font-size="10.00" fill="#000000">_rtu__on_ioctl</text>
</a>
</g>
</g>
<!-- Node374&#45;&gt;Node375 -->
<g id="edge5" class="edge">
<title>Node374&#45;&gt;Node375</title>
<path fill="none" stroke="#191970" d="M471.4246,-332.5C479.8759,-332.5 488.4279,-332.5 496.7428,-332.5"/>
<polygon fill="#191970" stroke="#191970" points="471.1885,-329.0001 461.1885,-332.5 471.1885,-336.0001 471.1885,-329.0001"/>
</g>
<!-- Node376&#45;&gt;Node374 -->
<g id="edge7" class="edge">
<title>Node376&#45;&gt;Node374</title>
<path fill="none" stroke="#191970" d="M301.0903,-332.5C309.7135,-332.5 318.4146,-332.5 326.8525,-332.5"/>
<polygon fill="#191970" stroke="#191970" points="301.0235,-329.0001 291.0234,-332.5 301.0234,-336.0001 301.0235,-329.0001"/>
</g>
<!-- Node379 -->
<g id="node10" class="node">
<title>Node379</title>
<g id="a_node10"><a xlink:href="spi_2spi_8h.html#ab31c12597a3f2932aaf01466ffff59bb" target="_top" xlink:title="zrtos_vfs_module_spi\l__transfer">
<polygon fill="#ffffff" stroke="#000000" points="338,-237.5 338,-267.5 450,-267.5 450,-237.5 338,-237.5"/>
<text text-anchor="start" x="346" y="-255.5" font-family="Helvetica,sans-Serif" font-size="10.00" fill="#000000">zrtos_vfs_module_spi</text>
<text text-anchor="middle" x="394" y="-244.5" font-family="Helvetica,sans-Serif" font-size="10.00" fill="#000000">__transfer</text>
</a>
</g>
</g>
<!-- Node378&#45;&gt;Node379 -->
<g id="edge10" class="edge">
<title>Node378&#45;&gt;Node379</title>
<path fill="none" stroke="#191970" d="M286.3992,-251.2632C303.3506,-251.4581 321.4091,-251.6656 337.7944,-251.854"/>
<polygon fill="#191970" stroke="#191970" points="286.0521,-247.7591 276.0125,-251.1438 285.9715,-254.7586 286.0521,-247.7591"/>
</g>
<!-- Node380 -->
<g id="node11" class="node">
<title>Node380</title>
<g id="a_node11"><a xlink:href="avr_2spi_2spi_8h.html#a3a0f3b324bd986778ccde00670dbabc9" target="_top" xlink:title="zrtos_vfs_module_avr\l_spi__on_interrupt">
<polygon fill="#ffffff" stroke="#000000" points="507.5,-238.5 507.5,-268.5 620.5,-268.5 620.5,-238.5 507.5,-238.5"/>
<text text-anchor="start" x="515.5" y="-256.5" font-family="Helvetica,sans-Serif" font-size="10.00" fill="#000000">zrtos_vfs_module_avr</text>
<text text-anchor="middle" x="564" y="-245.5" font-family="Helvetica,sans-Serif" font-size="10.00" fill="#000000">_spi__on_interrupt</text>
</a>
</g>
</g>
<!-- Node379&#45;&gt;Node380 -->
<g id="edge11" class="edge">
<title>Node379&#45;&gt;Node380</title>
<path fill="none" stroke="#191970" d="M460.2154,-252.8895C475.784,-252.9811 492.2376,-253.0779 507.3426,-253.1667"/>
<polygon fill="#191970" stroke="#191970" points="460.1559,-249.3892 450.1355,-252.8302 460.1147,-256.3891 460.1559,-249.3892"/>
</g>
<!-- Node381 -->
<g id="node12" class="node">
<title>Node381</title>
<g id="a_node12"><a xlink:href="avr_2spi_2spi_8h.html#a0353f98d744b931e541684fe33b272f7" target="_top" xlink:title="ISR">
<polygon fill="#ffffff" stroke="#000000" points="706.5,-244 706.5,-263 740.5,-263 740.5,-244 706.5,-244"/>
<text text-anchor="middle" x="723.5" y="-251" font-family="Helvetica,sans-Serif" font-size="10.00" fill="#000000">ISR</text>
</a>
</g>
</g>
<!-- Node380&#45;&gt;Node381 -->
<g id="edge12" class="edge">
<title>Node380&#45;&gt;Node381</title>
<path fill="none" stroke="#191970" d="M630.7619,-253.5C658.4525,-253.5 688.2899,-253.5 706.4331,-253.5"/>
<polygon fill="#191970" stroke="#191970" points="630.6829,-250.0001 620.6828,-253.5 630.6828,-257.0001 630.6829,-250.0001"/>
</g>
<!-- Node382 -->
<g id="node13" class="node">
<title>Node382</title>
<g id="a_node13"><a xlink:href="avr_2spi_2spi_8h.html#ab6f547c3ce7ee0463c235abe078f9491" target="_top" xlink:title="zrtos_vfs_module_avr\l_spi__on_write">
<polygon fill="#ffffff" stroke="#000000" points="667,-192.5 667,-222.5 780,-222.5 780,-192.5 667,-192.5"/>
<text text-anchor="start" x="675" y="-210.5" font-family="Helvetica,sans-Serif" font-size="10.00" fill="#000000">zrtos_vfs_module_avr</text>
<text text-anchor="middle" x="723.5" y="-199.5" font-family="Helvetica,sans-Serif" font-size="10.00" fill="#000000">_spi__on_write</text>
</a>
</g>
</g>
<!-- Node380&#45;&gt;Node382 -->
<g id="edge13" class="edge">
<title>Node380&#45;&gt;Node382</title>
<path fill="none" stroke="#191970" d="M625.9526,-235.6328C640.9847,-231.2975 656.9059,-226.7058 671.4289,-222.5174"/>
<polygon fill="#191970" stroke="#191970" points="624.8648,-232.3038 616.2263,-238.4379 626.8046,-239.0297 624.8648,-232.3038"/>
</g>
<!-- Node383&#45;&gt;Node382 -->
<g id="edge15" class="edge">
<title>Node383&#45;&gt;Node382</title>
<path fill="none" stroke="#191970" d="M630.3336,-205.7477C642.5084,-205.9766 655.1127,-206.2137 666.9672,-206.4367"/>
<polygon fill="#191970" stroke="#191970" points="630.2978,-202.2465 620.2337,-205.5577 630.1661,-209.2452 630.2978,-202.2465"/>
</g>
<!-- Node385 -->
<g id="node16" class="node">
<title>Node385</title>
<g id="a_node16"><a xlink:href="uart0_8h.html#a1c08ba1c9bac4dd9a045d06a07dbe0b4" target="_top" xlink:title="zrtos_vfs_module_avr\l_uart0__on_write">
<polygon fill="#ffffff" stroke="#000000" points="337.5,-147.5 337.5,-177.5 450.5,-177.5 450.5,-147.5 337.5,-147.5"/>
<text text-anchor="start" x="345.5" y="-165.5" font-family="Helvetica,sans-Serif" font-size="10.00" fill="#000000">zrtos_vfs_module_avr</text>
<text text-anchor="middle" x="394" y="-154.5" font-family="Helvetica,sans-Serif" font-size="10.00" fill="#000000">_uart0__on_write</text>
</a>
</g>
</g>
<!-- Node384&#45;&gt;Node385 -->
<g id="edge17" class="edge">
<title>Node384&#45;&gt;Node385</title>
<path fill="none" stroke="#191970" d="M283.2836,-131.3212C302.0704,-136.6118 322.4546,-142.3522 340.5515,-147.4484"/>
<polygon fill="#191970" stroke="#191970" points="284.1999,-127.9432 273.6255,-128.6014 282.3024,-134.6811 284.1999,-127.9432"/>
</g>
<!-- Node386 -->
<g id="node17" class="node">
<title>Node386</title>
<g id="a_node17"><a xlink:href="uart1_8h.html#af04452122e72ab7408b2e207191cdd33" target="_top" xlink:title="zrtos_vfs_module_avr\l_uart1__on_write">
<polygon fill="#ffffff" stroke="#000000" points="337.5,-98.5 337.5,-128.5 450.5,-128.5 450.5,-98.5 337.5,-98.5"/>
<text text-anchor="start" x="345.5" y="-116.5" font-family="Helvetica,sans-Serif" font-size="10.00" fill="#000000">zrtos_vfs_module_avr</text>
<text text-anchor="middle" x="394" y="-105.5" font-family="Helvetica,sans-Serif" font-size="10.00" fill="#000000">_uart1__on_write</text>
</a>
</g>
</g>
<!-- Node384&#45;&gt;Node386 -->
<g id="edge18" class="edge">
<title>Node384&#45;&gt;Node386</title>
<path fill="none" stroke="#191970" d="M288.8148,-113.5C304.8537,-113.5 321.7557,-113.5 337.2065,-113.5"/>
<polygon fill="#191970" stroke="#191970" points="288.4236,-110.0001 278.4235,-113.5 288.4235,-117.0001 288.4236,-110.0001"/>
</g>
<!-- Node387 -->
<g id="node18" class="node">
<title>Node387</title>
<g id="a_node18"><a xlink:href="uart2_8h.html#a244148efdde4e736bdcba74328e85415" target="_top" xlink:title="zrtos_vfs_module_avr\l_uart2__on_write">
<polygon fill="#ffffff" stroke="#000000" points="337.5,-49.5 337.5,-79.5 450.5,-79.5 450.5,-49.5 337.5,-49.5"/>
<text text-anchor="start" x="345.5" y="-67.5" font-family="Helvetica,sans-Serif" font-size="10.00" fill="#000000">zrtos_vfs_module_avr</text>
<text text-anchor="middle" x="394" y="-56.5" font-family="Helvetica,sans-Serif" font-size="10.00" fill="#000000">_uart2__on_write</text>
</a>
</g>
</g>
<!-- Node384&#45;&gt;Node387 -->
<g id="edge19" class="edge">
<title>Node384&#45;&gt;Node387</title>
<path fill="none" stroke="#191970" d="M283.2836,-95.6788C302.0704,-90.3882 322.4546,-84.6478 340.5515,-79.5516"/>
<polygon fill="#191970" stroke="#191970" points="282.3024,-92.3189 273.6255,-98.3986 284.1999,-99.0568 282.3024,-92.3189"/>
</g>
<!-- Node388 -->
<g id="node19" class="node">
<title>Node388</title>
<g id="a_node19"><a xlink:href="uart3_8h.html#a0ac21cf2483f89180a91b9ca480eb7b8" target="_top" xlink:title="zrtos_vfs_module_avr\l_uart3__on_write">
<polygon fill="#ffffff" stroke="#000000" points="337.5,-.5 337.5,-30.5 450.5,-30.5 450.5,-.5 337.5,-.5"/>
<text text-anchor="start" x="345.5" y="-18.5" font-family="Helvetica,sans-Serif" font-size="10.00" fill="#000000">zrtos_vfs_module_avr</text>
<text text-anchor="middle" x="394" y="-7.5" font-family="Helvetica,sans-Serif" font-size="10.00" fill="#000000">_uart3__on_write</text>
</a>
</g>
</g>
<!-- Node384&#45;&gt;Node388 -->
<g id="edge20" class="edge">
<title>Node384&#45;&gt;Node388</title>
<path fill="none" stroke="#191970" d="M246.8472,-91.9814C267.7712,-75.959 298.0411,-54.3749 327,-39.5 333.2646,-36.2821 340.0611,-33.3074 346.8421,-30.6271"/>
<polygon fill="#191970" stroke="#191970" points="244.5154,-89.3606 238.7588,-98.2552 248.8056,-94.8918 244.5154,-89.3606"/>
</g>
</g>
</svg>
