<?xml version="1.0" encoding="UTF-8" standalone="no"?>
<!DOCTYPE svg PUBLIC "-//W3C//DTD SVG 1.1//EN"
 "http://www.w3.org/Graphics/SVG/1.1/DTD/svg11.dtd">
<!-- Generated by graphviz version 10.0.1 (20240210.2158)
 -->
<!-- Title: zrtos_cbuffer__clear Pages: 1 -->
<svg width="713pt" height="144pt"
 viewBox="0.00 0.00 712.75 144.00" xmlns="http://www.w3.org/2000/svg" xmlns:xlink="http://www.w3.org/1999/xlink">
<g id="graph0" class="graph" transform="scale(1 1) rotate(0) translate(4 140)">
<title>zrtos_cbuffer__clear</title>
<!-- Node1 -->
<g id="Node000001" class="node">
<title>Node1</title>
<g id="a_Node000001"><a xlink:title=" ">
<polygon fill="#999999" stroke="#666666" points="103,-83 0,-83 0,-63 103,-63 103,-83"/>
<text text-anchor="middle" x="51.5" y="-69.5" font-family="Helvetica,sans-Serif" font-size="10.00">zrtos_cbuffer__clear</text>
</a>
</g>
</g>
<!-- Node2 -->
<g id="Node000002" class="node">
<title>Node2</title>
<g id="a_Node000002"><a xlink:href="cbuffer_8h.html#aefc6499f17723606801f954ac9c35be2" target="_top" xlink:title=" ">
<polygon fill="white" stroke="#666666" points="378.75,-136 283.25,-136 283.25,-104 378.75,-104 378.75,-136"/>
<text text-anchor="start" x="291.25" y="-122.5" font-family="Helvetica,sans-Serif" font-size="10.00">zrtos_cbuffer__get</text>
<text text-anchor="middle" x="331" y="-110.5" font-family="Helvetica,sans-Serif" font-size="10.00">_first_node</text>
</a>
</g>
</g>
<!-- Node1&#45;&gt;Node2 -->
<g id="edge1_Node000001_Node000002" class="edge">
<title>Node1&#45;&gt;Node2</title>
<g id="a_edge1_Node000001_Node000002"><a xlink:title=" ">
<path fill="none" stroke="#63b8ff" d="M83.82,-83.42C100.12,-88.49 120.45,-94.28 139,-98 183.04,-106.84 233.56,-112.46 271.58,-115.81"/>
<polygon fill="#63b8ff" stroke="#63b8ff" points="271.19,-119.29 281.45,-116.65 271.78,-112.32 271.19,-119.29"/>
</a>
</g>
</g>
<!-- Node4 -->
<g id="Node000004" class="node">
<title>Node4</title>
<g id="a_Node000004"><a xlink:href="cbuffer_8h.html#afc85ab6d8226b4a1b93d11c2ba1203f6" target="_top" xlink:title=" ">
<polygon fill="white" stroke="#666666" points="242,-89 144.25,-89 144.25,-57 242,-57 242,-89"/>
<text text-anchor="start" x="152.25" y="-75.5" font-family="Helvetica,sans-Serif" font-size="10.00">zrtos_cbuffer_node</text>
<text text-anchor="middle" x="193.12" y="-63.5" font-family="Helvetica,sans-Serif" font-size="10.00">__free</text>
</a>
</g>
</g>
<!-- Node1&#45;&gt;Node4 -->
<g id="edge3_Node000001_Node000004" class="edge">
<title>Node1&#45;&gt;Node4</title>
<g id="a_edge3_Node000001_Node000004"><a xlink:title=" ">
<path fill="none" stroke="#63b8ff" d="M103.3,-73C112.83,-73 122.87,-73 132.63,-73"/>
<polygon fill="#63b8ff" stroke="#63b8ff" points="132.41,-76.5 142.41,-73 132.41,-69.5 132.41,-76.5"/>
</a>
</g>
</g>
<!-- Node9 -->
<g id="Node000009" class="node">
<title>Node9</title>
<g id="a_Node000009"><a xlink:href="list_8h.html#a7262d2a0c144ef76b0f45193cebb8227" target="_top" xlink:title=" ">
<polygon fill="white" stroke="#666666" points="247.25,-39 139,-39 139,-7 247.25,-7 247.25,-39"/>
<text text-anchor="start" x="147" y="-25.5" font-family="Helvetica,sans-Serif" font-size="10.00">zrtos_list_node__has</text>
<text text-anchor="middle" x="193.12" y="-13.5" font-family="Helvetica,sans-Serif" font-size="10.00">_next_node</text>
</a>
</g>
</g>
<!-- Node1&#45;&gt;Node9 -->
<g id="edge10_Node000001_Node000009" class="edge">
<title>Node1&#45;&gt;Node9</title>
<g id="a_edge10_Node000001_Node000009"><a xlink:title=" ">
<path fill="none" stroke="#63b8ff" d="M81.77,-62.52C97.35,-56.94 117.04,-49.89 135.47,-43.29"/>
<polygon fill="#63b8ff" stroke="#63b8ff" points="136.47,-46.65 144.7,-39.98 134.11,-40.06 136.47,-46.65"/>
</a>
</g>
</g>
<!-- Node3 -->
<g id="Node000003" class="node">
<title>Node3</title>
<g id="a_Node000003"><a xlink:href="list_8h.html#a0039f0f08299038ab1a71e271a43a086" target="_top" xlink:title=" ">
<polygon fill="white" stroke="#666666" points="704.75,-96 577.75,-96 577.75,-76 704.75,-76 704.75,-96"/>
<text text-anchor="middle" x="641.25" y="-82.5" font-family="Helvetica,sans-Serif" font-size="10.00">zrtos_list__get_first_node</text>
</a>
</g>
</g>
<!-- Node2&#45;&gt;Node3 -->
<g id="edge2_Node000002_Node000003" class="edge">
<title>Node2&#45;&gt;Node3</title>
<g id="a_edge2_Node000002_Node000003"><a xlink:title=" ">
<path fill="none" stroke="#63b8ff" d="M379.15,-114.8C428.88,-109.31 507.92,-100.6 566.02,-94.19"/>
<polygon fill="#63b8ff" stroke="#63b8ff" points="566.29,-97.68 575.84,-93.1 565.52,-90.72 566.29,-97.68"/>
</a>
</g>
</g>
<!-- Node5 -->
<g id="Node000005" class="node">
<title>Node5</title>
<g id="a_Node000005"><a xlink:href="list_8h.html#a2b11d9c6f775a209430f16b719a19617" target="_top" xlink:title=" ">
<polygon fill="white" stroke="#666666" points="377.25,-83 284.75,-83 284.75,-63 377.25,-63 377.25,-83"/>
<text text-anchor="middle" x="331" y="-69.5" font-family="Helvetica,sans-Serif" font-size="10.00">zrtos_list__delete</text>
</a>
</g>
</g>
<!-- Node4&#45;&gt;Node5 -->
<g id="edge4_Node000004_Node000005" class="edge">
<title>Node4&#45;&gt;Node5</title>
<g id="a_edge4_Node000004_Node000005"><a xlink:title=" ">
<path fill="none" stroke="#63b8ff" d="M242.41,-73C252.39,-73 262.98,-73 273.23,-73"/>
<polygon fill="#63b8ff" stroke="#63b8ff" points="273.08,-76.5 283.08,-73 273.08,-69.5 273.08,-76.5"/>
</a>
</g>
</g>
<!-- Node7 -->
<g id="Node000007" class="node">
<title>Node7</title>
<g id="a_Node000007"><a xlink:href="malloc__limit_8h.html#ad9dc03f9dd447b3ffb64b0ec3873f61f" target="_top" xlink:title=" ">
<polygon fill="white" stroke="#666666" points="378.38,-39 283.62,-39 283.62,-7 378.38,-7 378.38,-39"/>
<text text-anchor="start" x="291.62" y="-25.5" font-family="Helvetica,sans-Serif" font-size="10.00">zrtos_malloc_limit</text>
<text text-anchor="middle" x="331" y="-13.5" font-family="Helvetica,sans-Serif" font-size="10.00">__free</text>
</a>
</g>
</g>
<!-- Node4&#45;&gt;Node7 -->
<g id="edge8_Node000004_Node000007" class="edge">
<title>Node4&#45;&gt;Node7</title>
<g id="a_edge8_Node000004_Node000007"><a xlink:title=" ">
<path fill="none" stroke="#63b8ff" d="M238.62,-56.63C250.11,-52.4 262.63,-47.79 274.61,-43.38"/>
<polygon fill="#63b8ff" stroke="#63b8ff" points="275.81,-46.67 283.99,-39.93 273.4,-40.1 275.81,-46.67"/>
</a>
</g>
</g>
<!-- Node5&#45;&gt;Node3 -->
<g id="edge5_Node000005_Node000003" class="edge">
<title>Node5&#45;&gt;Node3</title>
<g id="a_edge5_Node000005_Node000003"><a xlink:title=" ">
<path fill="none" stroke="#63b8ff" d="M377.48,-74.92C427.1,-77.01 507.27,-80.39 566.03,-82.87"/>
<polygon fill="#63b8ff" stroke="#63b8ff" points="565.83,-86.36 575.96,-83.29 566.12,-79.37 565.83,-86.36"/>
</a>
</g>
</g>
<!-- Node6 -->
<g id="Node000006" class="node">
<title>Node6</title>
<g id="a_Node000006"><a xlink:href="list_8h.html#a4ecf7568bdda1cd815956c391f29bf1e" target="_top" xlink:title=" ">
<polygon fill="white" stroke="#666666" points="520.38,-58 436.12,-58 436.12,-38 520.38,-38 520.38,-58"/>
<text text-anchor="middle" x="478.25" y="-44.5" font-family="Helvetica,sans-Serif" font-size="10.00">zrtos_list__shift</text>
</a>
</g>
</g>
<!-- Node5&#45;&gt;Node6 -->
<g id="edge6_Node000005_Node000006" class="edge">
<title>Node5&#45;&gt;Node6</title>
<g id="a_edge6_Node000005_Node000006"><a xlink:title=" ">
<path fill="none" stroke="#63b8ff" d="M377.56,-65.16C392.56,-62.58 409.35,-59.69 424.81,-57.02"/>
<polygon fill="#63b8ff" stroke="#63b8ff" points="425.04,-60.54 434.31,-55.39 423.86,-53.64 425.04,-60.54"/>
</a>
</g>
</g>
<!-- Node6&#45;&gt;Node3 -->
<g id="edge7_Node000006_Node000003" class="edge">
<title>Node6&#45;&gt;Node3</title>
<g id="a_edge7_Node000006_Node000003"><a xlink:title=" ">
<path fill="none" stroke="#63b8ff" d="M520.71,-57.79C540.22,-62.39 563.76,-67.95 584.78,-72.91"/>
<polygon fill="#63b8ff" stroke="#63b8ff" points="583.82,-76.28 594.35,-75.17 585.42,-69.46 583.82,-76.28"/>
</a>
</g>
</g>
<!-- Node8 -->
<g id="Node000008" class="node">
<title>Node8</title>
<g id="a_Node000008"><a xlink:href="malloc_8h.html#aeba49dabb0a21ae4e02fa137e195bb1d" target="_top" xlink:title=" ">
<polygon fill="white" stroke="#666666" points="541.75,-20 414.75,-20 414.75,0 541.75,0 541.75,-20"/>
<text text-anchor="middle" x="478.25" y="-6.5" font-family="Helvetica,sans-Serif" font-size="10.00">zrtos_malloc__get_length</text>
</a>
</g>
</g>
<!-- Node7&#45;&gt;Node8 -->
<g id="edge9_Node000007_Node000008" class="edge">
<title>Node7&#45;&gt;Node8</title>
<g id="a_edge9_Node000007_Node000008"><a xlink:title=" ">
<path fill="none" stroke="#63b8ff" d="M378.76,-18.82C386.57,-18.12 394.84,-17.38 403.14,-16.63"/>
<polygon fill="#63b8ff" stroke="#63b8ff" points="403.27,-20.14 412.92,-15.76 402.64,-13.16 403.27,-20.14"/>
</a>
</g>
</g>
</g>
</svg>
