<?xml version="1.0" encoding="UTF-8" standalone="no"?>
<!DOCTYPE svg PUBLIC "-//W3C//DTD SVG 1.1//EN"
 "http://www.w3.org/Graphics/SVG/1.1/DTD/svg11.dtd">
<!-- Generated by graphviz version 2.40.1 (20161225.0304)
 -->
<!-- Title: zrtos_cbuffer_node__new Pages: 1 -->
<svg width="1288pt" height="498pt"
 viewBox="0.00 0.00 1288.00 498.00" xmlns="http://www.w3.org/2000/svg" xmlns:xlink="http://www.w3.org/1999/xlink">
<g id="graph0" class="graph" transform="scale(1 1) rotate(0) translate(4 494)">
<title>zrtos_cbuffer_node__new</title>
<polygon fill="#ffffff" stroke="transparent" points="-4,4 -4,-494 1284,-494 1284,4 -4,4"/>
<!-- Node704 -->
<g id="node1" class="node">
<title>Node704</title>
<polygon fill="#bfbfbf" stroke="#000000" points="0,-152 0,-171 128,-171 128,-152 0,-152"/>
<text text-anchor="middle" x="64" y="-159" font-family="Helvetica,sans-Serif" font-size="10.00" fill="#000000">zrtos_cbuffer_node__new</text>
</g>
<!-- Node705 -->
<g id="node2" class="node">
<title>Node705</title>
<g id="a_node2"><a xlink:href="cbuffer_8h.html#a6a1ffb32acbece23be59f84aa29cf306" target="_top" xlink:title="zrtos_cbuffer__init">
<polygon fill="#ffffff" stroke="#000000" points="177.5,-174 177.5,-193 274.5,-193 274.5,-174 177.5,-174"/>
<text text-anchor="middle" x="226" y="-181" font-family="Helvetica,sans-Serif" font-size="10.00" fill="#000000">zrtos_cbuffer__init</text>
</a>
</g>
</g>
<!-- Node704&#45;&gt;Node705 -->
<g id="edge1" class="edge">
<title>Node704&#45;&gt;Node705</title>
<path fill="none" stroke="#191970" d="M138.1478,-171.5695C151.4783,-173.3798 165.058,-175.2239 177.429,-176.9039"/>
<polygon fill="#191970" stroke="#191970" points="138.4068,-168.0726 128.0267,-170.195 137.4647,-175.0089 138.4068,-168.0726"/>
</g>
<!-- Node709 -->
<g id="node6" class="node">
<title>Node709</title>
<g id="a_node6"><a xlink:href="cbuffer_8h.html#a1846e554cfe5e72cc8df6b60ab5c6d84" target="_top" xlink:title="zrtos_cbuffer_node__put">
<polygon fill="#ffffff" stroke="#000000" points="164,-133 164,-152 288,-152 288,-133 164,-133"/>
<text text-anchor="middle" x="226" y="-140" font-family="Helvetica,sans-Serif" font-size="10.00" fill="#000000">zrtos_cbuffer_node__put</text>
</a>
</g>
</g>
<!-- Node704&#45;&gt;Node709 -->
<g id="edge5" class="edge">
<title>Node704&#45;&gt;Node709</title>
<path fill="none" stroke="#191970" d="M138.0466,-152.8155C146.6433,-151.8073 155.3452,-150.7867 163.7611,-149.7996"/>
<polygon fill="#191970" stroke="#191970" points="137.5509,-149.3496 128.0267,-153.9907 138.3663,-156.3019 137.5509,-149.3496"/>
</g>
<!-- Node706 -->
<g id="node3" class="node">
<title>Node706</title>
<g id="a_node3"><a xlink:href="spi_2spi_8h.html#a18e98b2ff2735e9c263e143d51880842" target="_top" xlink:title="zrtos_vfs_module_spi\l_file__init">
<polygon fill="#ffffff" stroke="#000000" points="326,-222.5 326,-252.5 438,-252.5 438,-222.5 326,-222.5"/>
<text text-anchor="start" x="334" y="-240.5" font-family="Helvetica,sans-Serif" font-size="10.00" fill="#000000">zrtos_vfs_module_spi</text>
<text text-anchor="middle" x="382" y="-229.5" font-family="Helvetica,sans-Serif" font-size="10.00" fill="#000000">_file__init</text>
</a>
</g>
</g>
<!-- Node705&#45;&gt;Node706 -->
<g id="edge2" class="edge">
<title>Node705&#45;&gt;Node706</title>
<path fill="none" stroke="#191970" d="M263.127,-196.3517C285.7775,-204.1922 314.8369,-214.2512 338.5542,-222.4611"/>
<polygon fill="#191970" stroke="#191970" points="264.1253,-192.9935 253.5306,-193.0298 261.8355,-199.6084 264.1253,-192.9935"/>
</g>
<!-- Node708 -->
<g id="node5" class="node">
<title>Node708</title>
<g id="a_node5"><a xlink:href="uart_2uart_8h.html#af8b2335443595fdc65e31aa7faa070a3" target="_top" xlink:title="zrtos_vfs_module_uart\l_inode__init">
<polygon fill="#ffffff" stroke="#000000" points="324,-168.5 324,-198.5 440,-198.5 440,-168.5 324,-168.5"/>
<text text-anchor="start" x="332" y="-186.5" font-family="Helvetica,sans-Serif" font-size="10.00" fill="#000000">zrtos_vfs_module_uart</text>
<text text-anchor="middle" x="382" y="-175.5" font-family="Helvetica,sans-Serif" font-size="10.00" fill="#000000">_inode__init</text>
</a>
</g>
</g>
<!-- Node705&#45;&gt;Node708 -->
<g id="edge4" class="edge">
<title>Node705&#45;&gt;Node708</title>
<path fill="none" stroke="#191970" d="M284.6282,-183.5C297.4887,-183.5 311.0992,-183.5 323.9373,-183.5"/>
<polygon fill="#191970" stroke="#191970" points="284.5043,-180.0001 274.5042,-183.5 284.5042,-187.0001 284.5043,-180.0001"/>
</g>
<!-- Node707 -->
<g id="node4" class="node">
<title>Node707</title>
<g id="a_node4"><a xlink:href="spi_2spi_8h.html#a21ab487a7fecc72c5c1de2068586548a" target="_top" xlink:title="zrtos_vfs_module_spi\l_file__new">
<polygon fill="#ffffff" stroke="#000000" points="488.5,-244.5 488.5,-274.5 600.5,-274.5 600.5,-244.5 488.5,-244.5"/>
<text text-anchor="start" x="496.5" y="-262.5" font-family="Helvetica,sans-Serif" font-size="10.00" fill="#000000">zrtos_vfs_module_spi</text>
<text text-anchor="middle" x="544.5" y="-251.5" font-family="Helvetica,sans-Serif" font-size="10.00" fill="#000000">_file__new</text>
</a>
</g>
</g>
<!-- Node706&#45;&gt;Node707 -->
<g id="edge3" class="edge">
<title>Node706&#45;&gt;Node707</title>
<path fill="none" stroke="#191970" d="M448.4223,-246.4926C461.7288,-248.2941 475.5845,-250.1699 488.4959,-251.9179"/>
<polygon fill="#191970" stroke="#191970" points="448.7578,-243.0061 438.3786,-245.1328 447.8186,-249.9428 448.7578,-243.0061"/>
</g>
<!-- Node710 -->
<g id="node7" class="node">
<title>Node710</title>
<g id="a_node7"><a xlink:href="cbuffer_8h.html#afdb6a6176387d77a0f10e28536ba28f9" target="_top" xlink:title="zrtos_cbuffer__put">
<polygon fill="#ffffff" stroke="#000000" points="333,-120 333,-139 431,-139 431,-120 333,-120"/>
<text text-anchor="middle" x="382" y="-127" font-family="Helvetica,sans-Serif" font-size="10.00" fill="#000000">zrtos_cbuffer__put</text>
</a>
</g>
</g>
<!-- Node709&#45;&gt;Node710 -->
<g id="edge6" class="edge">
<title>Node709&#45;&gt;Node710</title>
<path fill="none" stroke="#191970" d="M298.2487,-136.4793C309.8731,-135.5106 321.6687,-134.5276 332.5954,-133.617"/>
<polygon fill="#191970" stroke="#191970" points="297.7783,-133.0062 288.1036,-137.3247 298.3597,-139.9821 297.7783,-133.0062"/>
</g>
<!-- Node711 -->
<g id="node8" class="node">
<title>Node711</title>
<g id="a_node8"><a xlink:href="cbuffer_8h.html#a5d269503e04946737598d2062c5bfaf4" target="_top" xlink:title="zrtos_cbuffer__put_ex">
<polygon fill="#ffffff" stroke="#000000" points="488,-206 488,-225 601,-225 601,-206 488,-206"/>
<text text-anchor="middle" x="544.5" y="-213" font-family="Helvetica,sans-Serif" font-size="10.00" fill="#000000">zrtos_cbuffer__put_ex</text>
</a>
</g>
</g>
<!-- Node710&#45;&gt;Node711 -->
<g id="edge7" class="edge">
<title>Node710&#45;&gt;Node711</title>
<path fill="none" stroke="#191970" d="M410.9386,-143.7157C420.2528,-148.3588 430.595,-153.5857 440,-158.5 470.9542,-174.674 506.5809,-194.3343 527.221,-205.8291"/>
<polygon fill="#191970" stroke="#191970" points="412.2004,-140.4347 401.6867,-139.126 409.0896,-146.7055 412.2004,-140.4347"/>
</g>
<!-- Node730 -->
<g id="node27" class="node">
<title>Node730</title>
<g id="a_node27"><a xlink:href="cbuffer_8h.html#a77458b7cd6238ed911ffdab0fe328e04" target="_top" xlink:title="zrtos_cbuffer__pipe">
<polygon fill="#ffffff" stroke="#000000" points="493.5,-55 493.5,-74 595.5,-74 595.5,-55 493.5,-55"/>
<text text-anchor="middle" x="544.5" y="-62" font-family="Helvetica,sans-Serif" font-size="10.00" fill="#000000">zrtos_cbuffer__pipe</text>
</a>
</g>
</g>
<!-- Node710&#45;&gt;Node730 -->
<g id="edge28" class="edge">
<title>Node710&#45;&gt;Node730</title>
<path fill="none" stroke="#191970" d="M409.4233,-115.4162C427.9396,-106.2186 453.0898,-94.3237 476,-85.5 486.9111,-81.2977 499.045,-77.3501 510.0325,-74.0367"/>
<polygon fill="#191970" stroke="#191970" points="407.7593,-112.3352 400.3922,-119.9495 410.8996,-118.5913 407.7593,-112.3352"/>
</g>
<!-- Node734 -->
<g id="node31" class="node">
<title>Node734</title>
<g id="a_node31"><a xlink:href="avr_2uart_2uart_8h.html#aea39870a896298195c0769800af5b3e2" target="_top" xlink:title="zrtos_vfs_module_avr\l_uart__on_receive_interrupt">
<polygon fill="#ffffff" stroke="#000000" points="476,-95.5 476,-125.5 613,-125.5 613,-95.5 476,-95.5"/>
<text text-anchor="start" x="484" y="-113.5" font-family="Helvetica,sans-Serif" font-size="10.00" fill="#000000">zrtos_vfs_module_avr</text>
<text text-anchor="middle" x="544.5" y="-102.5" font-family="Helvetica,sans-Serif" font-size="10.00" fill="#000000">_uart__on_receive_interrupt</text>
</a>
</g>
</g>
<!-- Node710&#45;&gt;Node734 -->
<g id="edge34" class="edge">
<title>Node710&#45;&gt;Node734</title>
<path fill="none" stroke="#191970" d="M441.3398,-122.5618C452.6005,-121.2452 464.4681,-119.8576 475.9855,-118.5109"/>
<polygon fill="#191970" stroke="#191970" points="440.7222,-119.1101 431.1963,-123.7478 441.5352,-126.0627 440.7222,-119.1101"/>
</g>
<!-- Node712 -->
<g id="node9" class="node">
<title>Node712</title>
<g id="a_node9"><a xlink:href="msg__queue_8h.html#a9f24485c49e6b6ba13406e9a5d1f352d" target="_top" xlink:title="zrtos_msg_queue__put\l_length">
<polygon fill="#ffffff" stroke="#000000" points="661,-137.5 661,-167.5 779,-167.5 779,-137.5 661,-137.5"/>
<text text-anchor="start" x="669" y="-155.5" font-family="Helvetica,sans-Serif" font-size="10.00" fill="#000000">zrtos_msg_queue__put</text>
<text text-anchor="middle" x="720" y="-144.5" font-family="Helvetica,sans-Serif" font-size="10.00" fill="#000000">_length</text>
</a>
</g>
</g>
<!-- Node711&#45;&gt;Node712 -->
<g id="edge8" class="edge">
<title>Node711&#45;&gt;Node712</title>
<path fill="none" stroke="#191970" d="M580.1,-202.4525C600.2919,-195.0778 626.0388,-185.717 649,-177.5 658.105,-174.2416 667.8787,-170.7781 677.1738,-167.5002"/>
<polygon fill="#191970" stroke="#191970" points="578.8607,-199.179 570.6703,-205.8996 581.2641,-205.7534 578.8607,-199.179"/>
</g>
<!-- Node717 -->
<g id="node14" class="node">
<title>Node717</title>
<g id="a_node14"><a xlink:href="msg__queue_8h.html#a14fb4faf04687986da3435e06db5d587" target="_top" xlink:title="zrtos_msg_queue__put_data">
<polygon fill="#ffffff" stroke="#000000" points="649,-187 649,-206 791,-206 791,-187 649,-187"/>
<text text-anchor="middle" x="720" y="-194" font-family="Helvetica,sans-Serif" font-size="10.00" fill="#000000">zrtos_msg_queue__put_data</text>
</a>
</g>
</g>
<!-- Node711&#45;&gt;Node717 -->
<g id="edge13" class="edge">
<title>Node711&#45;&gt;Node717</title>
<path fill="none" stroke="#191970" d="M611.5757,-208.2382C623.7796,-206.917 636.5492,-205.5346 648.8655,-204.2012"/>
<polygon fill="#191970" stroke="#191970" points="611.045,-204.7752 601.4798,-209.3312 611.7985,-211.7345 611.045,-204.7752"/>
</g>
<!-- Node718 -->
<g id="node15" class="node">
<title>Node718</title>
<g id="a_node15"><a xlink:href="msg__queue_8h.html#ab51eb620b09145d1b05966404c9e0ca4" target="_top" xlink:title="zrtos_msg_queue__put">
<polygon fill="#ffffff" stroke="#000000" points="661,-313 661,-332 779,-332 779,-313 661,-313"/>
<text text-anchor="middle" x="720" y="-320" font-family="Helvetica,sans-Serif" font-size="10.00" fill="#000000">zrtos_msg_queue__put</text>
</a>
</g>
</g>
<!-- Node711&#45;&gt;Node718 -->
<g id="edge15" class="edge">
<title>Node711&#45;&gt;Node718</title>
<path fill="none" stroke="#191970" d="M605.8017,-229.5638C608.3303,-231.0475 610.7458,-232.6874 613,-234.5 639.6494,-255.9287 622.3935,-281.018 649,-302.5 654.3805,-306.8442 660.6502,-310.2456 667.1945,-312.9086"/>
<polygon fill="#191970" stroke="#191970" points="607.3512,-226.4255 596.84,-225.0972 604.2287,-232.6905 607.3512,-226.4255"/>
</g>
<!-- Node719 -->
<g id="node16" class="node">
<title>Node719</title>
<g id="a_node16"><a xlink:href="spi_2spi_8h.html#a7f9adeb6314d47b2442b0a17d1cc2f37" target="_top" xlink:title="zrtos_vfs_module_spi\l__transfer_in">
<polygon fill="#ffffff" stroke="#000000" points="664,-263.5 664,-293.5 776,-293.5 776,-263.5 664,-263.5"/>
<text text-anchor="start" x="672" y="-281.5" font-family="Helvetica,sans-Serif" font-size="10.00" fill="#000000">zrtos_vfs_module_spi</text>
<text text-anchor="middle" x="720" y="-270.5" font-family="Helvetica,sans-Serif" font-size="10.00" fill="#000000">__transfer_in</text>
</a>
</g>
</g>
<!-- Node711&#45;&gt;Node719 -->
<g id="edge16" class="edge">
<title>Node711&#45;&gt;Node719</title>
<path fill="none" stroke="#191970" d="M591.7326,-227.802C598.9011,-229.8992 606.178,-232.1606 613,-234.5 626.7272,-239.2073 659.0487,-252.6193 684.5996,-263.4093"/>
<polygon fill="#191970" stroke="#191970" points="592.6535,-224.4252 582.0772,-225.0523 590.7361,-231.1575 592.6535,-224.4252"/>
</g>
<!-- Node724 -->
<g id="node21" class="node">
<title>Node724</title>
<g id="a_node21"><a xlink:href="spi_2spi_8h.html#ac672df98eac652a9d1925ba73229c475" target="_top" xlink:title="zrtos_vfs_module_spi\l__on_write">
<polygon fill="#ffffff" stroke="#000000" points="1008,-216.5 1008,-246.5 1120,-246.5 1120,-216.5 1008,-216.5"/>
<text text-anchor="start" x="1016" y="-234.5" font-family="Helvetica,sans-Serif" font-size="10.00" fill="#000000">zrtos_vfs_module_spi</text>
<text text-anchor="middle" x="1064" y="-223.5" font-family="Helvetica,sans-Serif" font-size="10.00" fill="#000000">__on_write</text>
</a>
</g>
</g>
<!-- Node711&#45;&gt;Node724 -->
<g id="edge21" class="edge">
<title>Node711&#45;&gt;Node724</title>
<path fill="none" stroke="#191970" d="M611.0845,-217.5507C714.3769,-220.732 911.3624,-226.7989 1007.8789,-229.7715"/>
<polygon fill="#191970" stroke="#191970" points="611.1876,-214.0523 601.0845,-217.2427 610.972,-221.049 611.1876,-214.0523"/>
</g>
<!-- Node725 -->
<g id="node22" class="node">
<title>Node725</title>
<g id="a_node22"><a xlink:href="uart_2uart_8h.html#a9e735d9796aaa30e4a5fce9c763adf92" target="_top" xlink:title="zrtos_vfs_module_uart\l__on_write">
<polygon fill="#ffffff" stroke="#000000" points="662,-361.5 662,-391.5 778,-391.5 778,-361.5 662,-361.5"/>
<text text-anchor="start" x="670" y="-379.5" font-family="Helvetica,sans-Serif" font-size="10.00" fill="#000000">zrtos_vfs_module_uart</text>
<text text-anchor="middle" x="720" y="-368.5" font-family="Helvetica,sans-Serif" font-size="10.00" fill="#000000">__on_write</text>
</a>
</g>
</g>
<!-- Node711&#45;&gt;Node725 -->
<g id="edge23" class="edge">
<title>Node711&#45;&gt;Node725</title>
<path fill="none" stroke="#191970" d="M608.1891,-230.514C609.878,-231.7416 611.4882,-233.0677 613,-234.5 649.4236,-269.0087 615.9654,-303.7343 649,-341.5 656.2384,-349.7751 665.8864,-356.2962 675.7312,-361.3515"/>
<polygon fill="#191970" stroke="#191970" points="609.563,-227.2592 599.178,-225.1608 605.9877,-233.2774 609.563,-227.2592"/>
</g>
<!-- Node713 -->
<g id="node10" class="node">
<title>Node713</title>
<g id="a_node10"><a xlink:href="rtu_8h.html#a223fc39dfd241ff17884c9f5d03f8e78" target="_top" xlink:title="zrtos_vfs_module_modbus\l_rtu__on_recv_timeout">
<polygon fill="#ffffff" stroke="#000000" points="827,-49.5 827,-79.5 961,-79.5 961,-49.5 827,-49.5"/>
<text text-anchor="start" x="835" y="-67.5" font-family="Helvetica,sans-Serif" font-size="10.00" fill="#000000">zrtos_vfs_module_modbus</text>
<text text-anchor="middle" x="894" y="-56.5" font-family="Helvetica,sans-Serif" font-size="10.00" fill="#000000">_rtu__on_recv_timeout</text>
</a>
</g>
</g>
<!-- Node712&#45;&gt;Node713 -->
<g id="edge9" class="edge">
<title>Node712&#45;&gt;Node713</title>
<path fill="none" stroke="#191970" d="M776.6366,-133.7805C781.5487,-131.7898 786.397,-129.6881 791,-127.5 820.3439,-113.5509 851.9132,-93.3979 872.2558,-79.6673"/>
<polygon fill="#191970" stroke="#191970" points="775.2112,-130.5794 767.1595,-137.4656 777.7482,-137.1035 775.2112,-130.5794"/>
</g>
<!-- Node715 -->
<g id="node12" class="node">
<title>Node715</title>
<g id="a_node12"><a xlink:href="rtu_8h.html#ac0ca767b3e1e9a8b1f290448a122e095" target="_top" xlink:title="zrtos_vfs_module_modbus\l_rtu__on_write">
<polygon fill="#ffffff" stroke="#000000" points="827,-151.5 827,-181.5 961,-181.5 961,-151.5 827,-151.5"/>
<text text-anchor="start" x="835" y="-169.5" font-family="Helvetica,sans-Serif" font-size="10.00" fill="#000000">zrtos_vfs_module_modbus</text>
<text text-anchor="middle" x="894" y="-158.5" font-family="Helvetica,sans-Serif" font-size="10.00" fill="#000000">_rtu__on_write</text>
</a>
</g>
</g>
<!-- Node712&#45;&gt;Node715 -->
<g id="edge11" class="edge">
<title>Node712&#45;&gt;Node715</title>
<path fill="none" stroke="#191970" d="M789.5673,-158.0974C801.8402,-159.0848 814.5956,-160.1111 826.8019,-161.0933"/>
<polygon fill="#191970" stroke="#191970" points="789.6428,-154.5922 779.3943,-157.2788 789.0813,-161.5697 789.6428,-154.5922"/>
</g>
<!-- Node714 -->
<g id="node11" class="node">
<title>Node714</title>
<g id="a_node11"><a xlink:href="rtu_8h.html#a2376d02a52d42eef634ef843afc499f3" target="_top" xlink:title="zrtos_vfs_module_modbus\l_rtu_inode__init">
<polygon fill="#ffffff" stroke="#000000" points="997,-25.5 997,-55.5 1131,-55.5 1131,-25.5 997,-25.5"/>
<text text-anchor="start" x="1005" y="-43.5" font-family="Helvetica,sans-Serif" font-size="10.00" fill="#000000">zrtos_vfs_module_modbus</text>
<text text-anchor="middle" x="1064" y="-32.5" font-family="Helvetica,sans-Serif" font-size="10.00" fill="#000000">_rtu_inode__init</text>
</a>
</g>
</g>
<!-- Node713&#45;&gt;Node714 -->
<g id="edge10" class="edge">
<title>Node713&#45;&gt;Node714</title>
<path fill="none" stroke="#191970" d="M971.146,-53.6088C979.6879,-52.4029 988.3366,-51.1819 996.7428,-49.9951"/>
<polygon fill="#191970" stroke="#191970" points="970.601,-50.1509 961.1885,-55.0146 971.5796,-57.0822 970.601,-50.1509"/>
</g>
<!-- Node716 -->
<g id="node13" class="node">
<title>Node716</title>
<g id="a_node13"><a xlink:href="rtu_8h.html#a08670f8758ac6130c738816d306eb923" target="_top" xlink:title="zrtos_vfs_module_modbus\l_rtu__on_ioctl">
<polygon fill="#ffffff" stroke="#000000" points="997,-151.5 997,-181.5 1131,-181.5 1131,-151.5 997,-151.5"/>
<text text-anchor="start" x="1005" y="-169.5" font-family="Helvetica,sans-Serif" font-size="10.00" fill="#000000">zrtos_vfs_module_modbus</text>
<text text-anchor="middle" x="1064" y="-158.5" font-family="Helvetica,sans-Serif" font-size="10.00" fill="#000000">_rtu__on_ioctl</text>
</a>
</g>
</g>
<!-- Node715&#45;&gt;Node716 -->
<g id="edge12" class="edge">
<title>Node715&#45;&gt;Node716</title>
<path fill="none" stroke="#191970" d="M971.4246,-166.5C979.8759,-166.5 988.4279,-166.5 996.7428,-166.5"/>
<polygon fill="#191970" stroke="#191970" points="971.1885,-163.0001 961.1885,-166.5 971.1885,-170.0001 971.1885,-163.0001"/>
</g>
<!-- Node717&#45;&gt;Node715 -->
<g id="edge14" class="edge">
<title>Node717&#45;&gt;Node715</title>
<path fill="none" stroke="#191970" d="M785.6606,-185.1792C799.1196,-182.8587 813.3048,-180.413 826.8165,-178.0834"/>
<polygon fill="#191970" stroke="#191970" points="784.793,-181.7771 775.5331,-186.9253 785.9824,-188.6753 784.793,-181.7771"/>
</g>
<!-- Node720 -->
<g id="node17" class="node">
<title>Node720</title>
<g id="a_node17"><a xlink:href="spi_2spi_8h.html#ab31c12597a3f2932aaf01466ffff59bb" target="_top" xlink:title="zrtos_vfs_module_spi\l__transfer">
<polygon fill="#ffffff" stroke="#000000" points="838,-263.5 838,-293.5 950,-293.5 950,-263.5 838,-263.5"/>
<text text-anchor="start" x="846" y="-281.5" font-family="Helvetica,sans-Serif" font-size="10.00" fill="#000000">zrtos_vfs_module_spi</text>
<text text-anchor="middle" x="894" y="-270.5" font-family="Helvetica,sans-Serif" font-size="10.00" fill="#000000">__transfer</text>
</a>
</g>
</g>
<!-- Node719&#45;&gt;Node720 -->
<g id="edge17" class="edge">
<title>Node719&#45;&gt;Node720</title>
<path fill="none" stroke="#191970" d="M786.3992,-278.5C803.3506,-278.5 821.4091,-278.5 837.7944,-278.5"/>
<polygon fill="#191970" stroke="#191970" points="786.0125,-275.0001 776.0125,-278.5 786.0124,-282.0001 786.0125,-275.0001"/>
</g>
<!-- Node721 -->
<g id="node18" class="node">
<title>Node721</title>
<g id="a_node18"><a xlink:href="avr_2spi_2spi_8h.html#a3a0f3b324bd986778ccde00670dbabc9" target="_top" xlink:title="zrtos_vfs_module_avr\l_spi__on_interrupt">
<polygon fill="#ffffff" stroke="#000000" points="1007.5,-265.5 1007.5,-295.5 1120.5,-295.5 1120.5,-265.5 1007.5,-265.5"/>
<text text-anchor="start" x="1015.5" y="-283.5" font-family="Helvetica,sans-Serif" font-size="10.00" fill="#000000">zrtos_vfs_module_avr</text>
<text text-anchor="middle" x="1064" y="-272.5" font-family="Helvetica,sans-Serif" font-size="10.00" fill="#000000">_spi__on_interrupt</text>
</a>
</g>
</g>
<!-- Node720&#45;&gt;Node721 -->
<g id="edge18" class="edge">
<title>Node720&#45;&gt;Node721</title>
<path fill="none" stroke="#191970" d="M960.2154,-279.279C975.784,-279.4622 992.2376,-279.6557 1007.3426,-279.8334"/>
<polygon fill="#191970" stroke="#191970" points="960.176,-275.7784 950.1355,-279.1604 960.0936,-282.7779 960.176,-275.7784"/>
</g>
<!-- Node722 -->
<g id="node19" class="node">
<title>Node722</title>
<g id="a_node19"><a xlink:href="avr_2spi_2spi_8h.html#a0353f98d744b931e541684fe33b272f7" target="_top" xlink:title="ISR">
<polygon fill="#ffffff" stroke="#000000" points="1206.5,-271 1206.5,-290 1240.5,-290 1240.5,-271 1206.5,-271"/>
<text text-anchor="middle" x="1223.5" y="-278" font-family="Helvetica,sans-Serif" font-size="10.00" fill="#000000">ISR</text>
</a>
</g>
</g>
<!-- Node721&#45;&gt;Node722 -->
<g id="edge19" class="edge">
<title>Node721&#45;&gt;Node722</title>
<path fill="none" stroke="#191970" d="M1130.7619,-280.5C1158.4525,-280.5 1188.2899,-280.5 1206.4331,-280.5"/>
<polygon fill="#191970" stroke="#191970" points="1130.6829,-277.0001 1120.6828,-280.5 1130.6828,-284.0001 1130.6829,-277.0001"/>
</g>
<!-- Node723 -->
<g id="node20" class="node">
<title>Node723</title>
<g id="a_node20"><a xlink:href="avr_2spi_2spi_8h.html#ab6f547c3ce7ee0463c235abe078f9491" target="_top" xlink:title="zrtos_vfs_module_avr\l_spi__on_write">
<polygon fill="#ffffff" stroke="#000000" points="1167,-219.5 1167,-249.5 1280,-249.5 1280,-219.5 1167,-219.5"/>
<text text-anchor="start" x="1175" y="-237.5" font-family="Helvetica,sans-Serif" font-size="10.00" fill="#000000">zrtos_vfs_module_avr</text>
<text text-anchor="middle" x="1223.5" y="-226.5" font-family="Helvetica,sans-Serif" font-size="10.00" fill="#000000">_spi__on_write</text>
</a>
</g>
</g>
<!-- Node721&#45;&gt;Node723 -->
<g id="edge20" class="edge">
<title>Node721&#45;&gt;Node723</title>
<path fill="none" stroke="#191970" d="M1125.9526,-262.6328C1140.9847,-258.2975 1156.9059,-253.7058 1171.4289,-249.5174"/>
<polygon fill="#191970" stroke="#191970" points="1124.8648,-259.3038 1116.2263,-265.4379 1126.8046,-266.0297 1124.8648,-259.3038"/>
</g>
<!-- Node724&#45;&gt;Node723 -->
<g id="edge22" class="edge">
<title>Node724&#45;&gt;Node723</title>
<path fill="none" stroke="#191970" d="M1130.3336,-232.7477C1142.5084,-232.9766 1155.1127,-233.2137 1166.9672,-233.4367"/>
<polygon fill="#191970" stroke="#191970" points="1130.2978,-229.2465 1120.2337,-232.5577 1130.1661,-236.2452 1130.2978,-229.2465"/>
</g>
<!-- Node726 -->
<g id="node23" class="node">
<title>Node726</title>
<g id="a_node23"><a xlink:href="uart0_8h.html#a1c08ba1c9bac4dd9a045d06a07dbe0b4" target="_top" xlink:title="zrtos_vfs_module_avr\l_uart0__on_write">
<polygon fill="#ffffff" stroke="#000000" points="837.5,-361.5 837.5,-391.5 950.5,-391.5 950.5,-361.5 837.5,-361.5"/>
<text text-anchor="start" x="845.5" y="-379.5" font-family="Helvetica,sans-Serif" font-size="10.00" fill="#000000">zrtos_vfs_module_avr</text>
<text text-anchor="middle" x="894" y="-368.5" font-family="Helvetica,sans-Serif" font-size="10.00" fill="#000000">_uart0__on_write</text>
</a>
</g>
</g>
<!-- Node725&#45;&gt;Node726 -->
<g id="edge24" class="edge">
<title>Node725&#45;&gt;Node726</title>
<path fill="none" stroke="#191970" d="M788.8148,-376.5C804.8537,-376.5 821.7557,-376.5 837.2065,-376.5"/>
<polygon fill="#191970" stroke="#191970" points="788.4236,-373.0001 778.4235,-376.5 788.4235,-380.0001 788.4236,-373.0001"/>
</g>
<!-- Node727 -->
<g id="node24" class="node">
<title>Node727</title>
<g id="a_node24"><a xlink:href="uart1_8h.html#af04452122e72ab7408b2e207191cdd33" target="_top" xlink:title="zrtos_vfs_module_avr\l_uart1__on_write">
<polygon fill="#ffffff" stroke="#000000" points="837.5,-312.5 837.5,-342.5 950.5,-342.5 950.5,-312.5 837.5,-312.5"/>
<text text-anchor="start" x="845.5" y="-330.5" font-family="Helvetica,sans-Serif" font-size="10.00" fill="#000000">zrtos_vfs_module_avr</text>
<text text-anchor="middle" x="894" y="-319.5" font-family="Helvetica,sans-Serif" font-size="10.00" fill="#000000">_uart1__on_write</text>
</a>
</g>
</g>
<!-- Node725&#45;&gt;Node727 -->
<g id="edge25" class="edge">
<title>Node725&#45;&gt;Node727</title>
<path fill="none" stroke="#191970" d="M783.2836,-358.6788C802.0704,-353.3882 822.4546,-347.6478 840.5515,-342.5516"/>
<polygon fill="#191970" stroke="#191970" points="782.3024,-355.3189 773.6255,-361.3986 784.1999,-362.0568 782.3024,-355.3189"/>
</g>
<!-- Node728 -->
<g id="node25" class="node">
<title>Node728</title>
<g id="a_node25"><a xlink:href="uart2_8h.html#a244148efdde4e736bdcba74328e85415" target="_top" xlink:title="zrtos_vfs_module_avr\l_uart2__on_write">
<polygon fill="#ffffff" stroke="#000000" points="837.5,-459.5 837.5,-489.5 950.5,-489.5 950.5,-459.5 837.5,-459.5"/>
<text text-anchor="start" x="845.5" y="-477.5" font-family="Helvetica,sans-Serif" font-size="10.00" fill="#000000">zrtos_vfs_module_avr</text>
<text text-anchor="middle" x="894" y="-466.5" font-family="Helvetica,sans-Serif" font-size="10.00" fill="#000000">_uart2__on_write</text>
</a>
</g>
</g>
<!-- Node725&#45;&gt;Node728 -->
<g id="edge26" class="edge">
<title>Node725&#45;&gt;Node728</title>
<path fill="none" stroke="#191970" d="M746.8472,-398.0186C767.7712,-414.041 798.0411,-435.6251 827,-450.5 833.2646,-453.7179 840.0611,-456.6926 846.8421,-459.3729"/>
<polygon fill="#191970" stroke="#191970" points="748.8056,-395.1082 738.7588,-391.7448 744.5154,-400.6394 748.8056,-395.1082"/>
</g>
<!-- Node729 -->
<g id="node26" class="node">
<title>Node729</title>
<g id="a_node26"><a xlink:href="uart3_8h.html#a0ac21cf2483f89180a91b9ca480eb7b8" target="_top" xlink:title="zrtos_vfs_module_avr\l_uart3__on_write">
<polygon fill="#ffffff" stroke="#000000" points="837.5,-410.5 837.5,-440.5 950.5,-440.5 950.5,-410.5 837.5,-410.5"/>
<text text-anchor="start" x="845.5" y="-428.5" font-family="Helvetica,sans-Serif" font-size="10.00" fill="#000000">zrtos_vfs_module_avr</text>
<text text-anchor="middle" x="894" y="-417.5" font-family="Helvetica,sans-Serif" font-size="10.00" fill="#000000">_uart3__on_write</text>
</a>
</g>
</g>
<!-- Node725&#45;&gt;Node729 -->
<g id="edge27" class="edge">
<title>Node725&#45;&gt;Node729</title>
<path fill="none" stroke="#191970" d="M783.2836,-394.3212C802.0704,-399.6118 822.4546,-405.3522 840.5515,-410.4484"/>
<polygon fill="#191970" stroke="#191970" points="784.1999,-390.9432 773.6255,-391.6014 782.3024,-397.6811 784.1999,-390.9432"/>
</g>
<!-- Node731 -->
<g id="node28" class="node">
<title>Node731</title>
<g id="a_node28"><a xlink:href="msg__queue_8h.html#a7b05ddf4bc60700bfe0b9d3a0f11664b" target="_top" xlink:title="zrtos_msg_queue__put\l_cbuffer_data">
<polygon fill="#ffffff" stroke="#000000" points="661,-49.5 661,-79.5 779,-79.5 779,-49.5 661,-49.5"/>
<text text-anchor="start" x="669" y="-67.5" font-family="Helvetica,sans-Serif" font-size="10.00" fill="#000000">zrtos_msg_queue__put</text>
<text text-anchor="middle" x="720" y="-56.5" font-family="Helvetica,sans-Serif" font-size="10.00" fill="#000000">_cbuffer_data</text>
</a>
</g>
</g>
<!-- Node730&#45;&gt;Node731 -->
<g id="edge29" class="edge">
<title>Node730&#45;&gt;Node731</title>
<path fill="none" stroke="#191970" d="M605.7771,-64.5C623.6832,-64.5 643.212,-64.5 660.9755,-64.5"/>
<polygon fill="#191970" stroke="#191970" points="605.7337,-61.0001 595.7336,-64.5 605.7336,-68.0001 605.7337,-61.0001"/>
</g>
<!-- Node732 -->
<g id="node29" class="node">
<title>Node732</title>
<g id="a_node29"><a xlink:href="msg__queue_8h.html#a40db633a8c0ef5e3bba9cc700e45f7ef" target="_top" xlink:title="zrtos_msg_queue__pipe\l_next_message_to_cbuffer">
<polygon fill="#ffffff" stroke="#000000" points="653,-.5 653,-30.5 787,-30.5 787,-.5 653,-.5"/>
<text text-anchor="start" x="661" y="-18.5" font-family="Helvetica,sans-Serif" font-size="10.00" fill="#000000">zrtos_msg_queue__pipe</text>
<text text-anchor="middle" x="720" y="-7.5" font-family="Helvetica,sans-Serif" font-size="10.00" fill="#000000">_next_message_to_cbuffer</text>
</a>
</g>
</g>
<!-- Node730&#45;&gt;Node732 -->
<g id="edge31" class="edge">
<title>Node730&#45;&gt;Node732</title>
<path fill="none" stroke="#191970" d="M588.4737,-52.2224C612.027,-45.6463 641.2372,-37.4908 666.1431,-30.537"/>
<polygon fill="#191970" stroke="#191970" points="587.4452,-48.8757 578.7548,-54.936 589.3277,-55.6178 587.4452,-48.8757"/>
</g>
<!-- Node731&#45;&gt;Node713 -->
<g id="edge30" class="edge">
<title>Node731&#45;&gt;Node713</title>
<path fill="none" stroke="#191970" d="M789.5673,-64.5C801.8402,-64.5 814.5956,-64.5 826.8019,-64.5"/>
<polygon fill="#191970" stroke="#191970" points="789.3943,-61.0001 779.3943,-64.5 789.3942,-68.0001 789.3943,-61.0001"/>
</g>
<!-- Node733 -->
<g id="node30" class="node">
<title>Node733</title>
<g id="a_node30"><a xlink:href="rtu_8h.html#ab23606290979709ef6fefa7c6970e64e" target="_top" xlink:title="zrtos_vfs_module_modbus\l_rtu__on_send">
<polygon fill="#ffffff" stroke="#000000" points="827,-.5 827,-30.5 961,-30.5 961,-.5 827,-.5"/>
<text text-anchor="start" x="835" y="-18.5" font-family="Helvetica,sans-Serif" font-size="10.00" fill="#000000">zrtos_vfs_module_modbus</text>
<text text-anchor="middle" x="894" y="-7.5" font-family="Helvetica,sans-Serif" font-size="10.00" fill="#000000">_rtu__on_send</text>
</a>
</g>
</g>
<!-- Node732&#45;&gt;Node733 -->
<g id="edge32" class="edge">
<title>Node732&#45;&gt;Node733</title>
<path fill="none" stroke="#191970" d="M797.4347,-15.5C807.2636,-15.5 817.2574,-15.5 826.906,-15.5"/>
<polygon fill="#191970" stroke="#191970" points="797.273,-12.0001 787.2729,-15.5 797.2729,-19.0001 797.273,-12.0001"/>
</g>
<!-- Node733&#45;&gt;Node714 -->
<g id="edge33" class="edge">
<title>Node733&#45;&gt;Node714</title>
<path fill="none" stroke="#191970" d="M971.146,-26.845C979.6879,-28.1012 988.3366,-29.373 996.7428,-30.6092"/>
<polygon fill="#191970" stroke="#191970" points="971.5914,-23.3729 961.1885,-25.3807 970.5728,-30.2984 971.5914,-23.3729"/>
</g>
<!-- Node735 -->
<g id="node32" class="node">
<title>Node735</title>
<g id="a_node32"><a xlink:href="uart0_8h.html#a69856cc389c8b76c8cf8c45ea5a33bc7" target="_top" xlink:title="ISR">
<polygon fill="#ffffff" stroke="#000000" points="703,-99 703,-118 737,-118 737,-99 703,-99"/>
<text text-anchor="middle" x="720" y="-106" font-family="Helvetica,sans-Serif" font-size="10.00" fill="#000000">ISR</text>
</a>
</g>
</g>
<!-- Node734&#45;&gt;Node735 -->
<g id="edge35" class="edge">
<title>Node734&#45;&gt;Node735</title>
<path fill="none" stroke="#191970" d="M623.1612,-109.6036C653.0288,-109.2632 684.3161,-108.9067 702.9816,-108.6939"/>
<polygon fill="#191970" stroke="#191970" points="623.0663,-106.1043 613.1069,-109.7182 623.1462,-113.1039 623.0663,-106.1043"/>
</g>
</g>
</svg>
