<?xml version="1.0" encoding="UTF-8" standalone="no"?>
<!DOCTYPE svg PUBLIC "-//W3C//DTD SVG 1.1//EN"
 "http://www.w3.org/Graphics/SVG/1.1/DTD/svg11.dtd">
<!-- Generated by graphviz version 2.40.1 (20161225.0304)
 -->
<!-- Title: zrtos_cbuffer__get Pages: 1 -->
<svg width="870pt" height="166pt"
 viewBox="0.00 0.00 870.00 165.50" xmlns="http://www.w3.org/2000/svg" xmlns:xlink="http://www.w3.org/1999/xlink">
<g id="graph0" class="graph" transform="scale(1 1) rotate(0) translate(4 161.5)">
<title>zrtos_cbuffer__get</title>
<polygon fill="#ffffff" stroke="transparent" points="-4,4 -4,-161.5 866,-161.5 866,4 -4,4"/>
<!-- Node82 -->
<g id="node1" class="node">
<title>Node82</title>
<polygon fill="#bfbfbf" stroke="#000000" points="0,-102 0,-121 98,-121 98,-102 0,-102"/>
<text text-anchor="middle" x="49" y="-109" font-family="Helvetica,sans-Serif" font-size="10.00" fill="#000000">zrtos_cbuffer__get</text>
</g>
<!-- Node83 -->
<g id="node2" class="node">
<title>Node83</title>
<g id="a_node2"><a xlink:href="list_8h.html#a5a9358f4b25c9376dbdef338fa8333a6" target="_top" xlink:title="zrtos_list__get_first_node">
<polygon fill="#ffffff" stroke="#000000" points="734,-99 734,-118 862,-118 862,-99 734,-99"/>
<text text-anchor="middle" x="798" y="-106" font-family="Helvetica,sans-Serif" font-size="10.00" fill="#000000">zrtos_list__get_first_node</text>
</a>
</g>
</g>
<!-- Node82&#45;&gt;Node83 -->
<g id="edge1" class="edge">
<title>Node82&#45;&gt;Node83</title>
<path fill="none" stroke="#191970" d="M86.5389,-121.0312C142.9906,-134.5049 253.2827,-157.5 348.5,-157.5 348.5,-157.5 348.5,-157.5 486.5,-157.5 581.4631,-157.5 690.7542,-135.0022 751.3549,-120.4956"/>
<polygon fill="#191970" stroke="#191970" points="752.4792,-123.8244 761.3713,-118.064 750.8279,-117.0219 752.4792,-123.8244"/>
</g>
<!-- Node84 -->
<g id="node3" class="node">
<title>Node84</title>
<g id="a_node3"><a xlink:href="cbuffer_8h.html#ad0932ffc31c7150402dc49c28cbf2000" target="_top" xlink:title="zrtos_cbuffer_node__get">
<polygon fill="#ffffff" stroke="#000000" points="134,-80 134,-99 258,-99 258,-80 134,-80"/>
<text text-anchor="middle" x="196" y="-87" font-family="Helvetica,sans-Serif" font-size="10.00" fill="#000000">zrtos_cbuffer_node__get</text>
</a>
</g>
</g>
<!-- Node82&#45;&gt;Node84 -->
<g id="edge2" class="edge">
<title>Node82&#45;&gt;Node84</title>
<path fill="none" stroke="#191970" d="M98.3578,-104.1131C106.5709,-102.8839 115.2365,-101.5871 123.8766,-100.294"/>
<polygon fill="#191970" stroke="#191970" points="124.6074,-103.7237 133.9792,-98.782 123.5712,-96.8008 124.6074,-103.7237"/>
</g>
<!-- Node85 -->
<g id="node4" class="node">
<title>Node85</title>
<g id="a_node4"><a xlink:href="cbuffer_8h.html#aa70b33844c0b38a531615564dc35840e" target="_top" xlink:title="zrtos_cbuffer_node\l__is_empty">
<polygon fill="#ffffff" stroke="#000000" points="298.5,-98.5 298.5,-128.5 398.5,-128.5 398.5,-98.5 298.5,-98.5"/>
<text text-anchor="start" x="306.5" y="-116.5" font-family="Helvetica,sans-Serif" font-size="10.00" fill="#000000">zrtos_cbuffer_node</text>
<text text-anchor="middle" x="348.5" y="-105.5" font-family="Helvetica,sans-Serif" font-size="10.00" fill="#000000">__is_empty</text>
</a>
</g>
</g>
<!-- Node84&#45;&gt;Node85 -->
<g id="edge3" class="edge">
<title>Node84&#45;&gt;Node85</title>
<path fill="none" stroke="#191970" d="M256.7102,-99.0544C267.0513,-100.6819 277.7907,-102.372 288.1232,-103.9981"/>
<polygon fill="#191970" stroke="#191970" points="287.8676,-107.5009 298.2902,-105.5981 288.9559,-100.586 287.8676,-107.5009"/>
</g>
<!-- Node86 -->
<g id="node5" class="node">
<title>Node86</title>
<g id="a_node5"><a xlink:href="list_8h.html#a7262d2a0c144ef76b0f45193cebb8227" target="_top" xlink:title="zrtos_list_node__has\l_next_node">
<polygon fill="#ffffff" stroke="#000000" points="294,-49.5 294,-79.5 403,-79.5 403,-49.5 294,-49.5"/>
<text text-anchor="start" x="302" y="-67.5" font-family="Helvetica,sans-Serif" font-size="10.00" fill="#000000">zrtos_list_node__has</text>
<text text-anchor="middle" x="348.5" y="-56.5" font-family="Helvetica,sans-Serif" font-size="10.00" fill="#000000">_next_node</text>
</a>
</g>
</g>
<!-- Node84&#45;&gt;Node86 -->
<g id="edge4" class="edge">
<title>Node84&#45;&gt;Node86</title>
<path fill="none" stroke="#191970" d="M254.0887,-79.9773C263.7094,-78.4001 273.7397,-76.7558 283.5172,-75.1529"/>
<polygon fill="#191970" stroke="#191970" points="284.2851,-78.5738 293.5871,-73.5021 283.1526,-71.6661 284.2851,-78.5738"/>
</g>
<!-- Node87 -->
<g id="node6" class="node">
<title>Node87</title>
<g id="a_node6"><a xlink:href="cbuffer_8h.html#afc85ab6d8226b4a1b93d11c2ba1203f6" target="_top" xlink:title="zrtos_cbuffer_node\l__free">
<polygon fill="#ffffff" stroke="#000000" points="298.5,-.5 298.5,-30.5 398.5,-30.5 398.5,-.5 298.5,-.5"/>
<text text-anchor="start" x="306.5" y="-18.5" font-family="Helvetica,sans-Serif" font-size="10.00" fill="#000000">zrtos_cbuffer_node</text>
<text text-anchor="middle" x="348.5" y="-7.5" font-family="Helvetica,sans-Serif" font-size="10.00" fill="#000000">__free</text>
</a>
</g>
</g>
<!-- Node84&#45;&gt;Node87 -->
<g id="edge5" class="edge">
<title>Node84&#45;&gt;Node87</title>
<path fill="none" stroke="#191970" d="M214.6953,-79.9185C234.3475,-69.9016 266.2101,-53.8167 294,-40.5 297.8548,-38.6528 301.8752,-36.755 305.9088,-34.8703"/>
<polygon fill="#191970" stroke="#191970" points="307.6743,-37.9096 315.2731,-30.5266 304.7287,-31.5596 307.6743,-37.9096"/>
</g>
<!-- Node88 -->
<g id="node7" class="node">
<title>Node88</title>
<g id="a_node7"><a xlink:href="list_8h.html#a2b11d9c6f775a209430f16b719a19617" target="_top" xlink:title="zrtos_list__delete">
<polygon fill="#ffffff" stroke="#000000" points="440,-61 440,-80 533,-80 533,-61 440,-61"/>
<text text-anchor="middle" x="486.5" y="-68" font-family="Helvetica,sans-Serif" font-size="10.00" fill="#000000">zrtos_list__delete</text>
</a>
</g>
</g>
<!-- Node87&#45;&gt;Node88 -->
<g id="edge6" class="edge">
<title>Node87&#45;&gt;Node88</title>
<path fill="none" stroke="#191970" d="M386.2091,-30.529C407.0577,-38.8382 432.7418,-49.0746 452.8986,-57.1081"/>
<polygon fill="#191970" stroke="#191970" points="451.7191,-60.4057 462.3043,-60.8568 454.3107,-53.9031 451.7191,-60.4057"/>
</g>
<!-- Node90 -->
<g id="node9" class="node">
<title>Node90</title>
<g id="a_node9"><a xlink:href="malloc__limit_8h.html#ad9dc03f9dd447b3ffb64b0ec3873f61f" target="_top" xlink:title="zrtos_malloc_limit\l__free">
<polygon fill="#ffffff" stroke="#000000" points="439,-.5 439,-30.5 534,-30.5 534,-.5 439,-.5"/>
<text text-anchor="start" x="447" y="-18.5" font-family="Helvetica,sans-Serif" font-size="10.00" fill="#000000">zrtos_malloc_limit</text>
<text text-anchor="middle" x="486.5" y="-7.5" font-family="Helvetica,sans-Serif" font-size="10.00" fill="#000000">__free</text>
</a>
</g>
</g>
<!-- Node87&#45;&gt;Node90 -->
<g id="edge10" class="edge">
<title>Node87&#45;&gt;Node90</title>
<path fill="none" stroke="#191970" d="M398.7115,-15.5C408.4351,-15.5 418.6974,-15.5 428.6426,-15.5"/>
<polygon fill="#191970" stroke="#191970" points="428.8558,-19.0001 438.8558,-15.5 428.8557,-12.0001 428.8558,-19.0001"/>
</g>
<!-- Node88&#45;&gt;Node83 -->
<g id="edge7" class="edge">
<title>Node88&#45;&gt;Node83</title>
<path fill="none" stroke="#191970" d="M523.2799,-80.0428C537.7539,-83.4891 554.573,-87.1141 570,-89.5 620.984,-97.3849 678.9233,-102.1597 723.6365,-104.9506"/>
<polygon fill="#191970" stroke="#191970" points="723.642,-108.4572 733.835,-105.5672 724.0645,-101.47 723.642,-108.4572"/>
</g>
<!-- Node89 -->
<g id="node8" class="node">
<title>Node89</title>
<g id="a_node8"><a xlink:href="list_8h.html#aee76d71632ab03e18ad9358fc8b35044" target="_top" xlink:title="zrtos_list__shift">
<polygon fill="#ffffff" stroke="#000000" points="591,-61 591,-80 677,-80 677,-61 591,-61"/>
<text text-anchor="middle" x="634" y="-68" font-family="Helvetica,sans-Serif" font-size="10.00" fill="#000000">zrtos_list__shift</text>
</a>
</g>
</g>
<!-- Node88&#45;&gt;Node89 -->
<g id="edge8" class="edge">
<title>Node88&#45;&gt;Node89</title>
<path fill="none" stroke="#191970" d="M533.1699,-70.5C548.1193,-70.5 564.7926,-70.5 580.2079,-70.5"/>
<polygon fill="#191970" stroke="#191970" points="580.6424,-74.0001 590.6424,-70.5 580.6423,-67.0001 580.6424,-74.0001"/>
</g>
<!-- Node89&#45;&gt;Node83 -->
<g id="edge9" class="edge">
<title>Node89&#45;&gt;Node83</title>
<path fill="none" stroke="#191970" d="M675.3841,-80.089C697.1232,-85.1261 723.9575,-91.3438 746.9747,-96.6771"/>
<polygon fill="#191970" stroke="#191970" points="746.3815,-100.1323 756.9135,-98.9799 747.9616,-93.3129 746.3815,-100.1323"/>
</g>
<!-- Node91 -->
<g id="node10" class="node">
<title>Node91</title>
<g id="a_node10"><a xlink:href="malloc_8h.html#aeba49dabb0a21ae4e02fa137e195bb1d" target="_top" xlink:title="zrtos_malloc__get_length">
<polygon fill="#ffffff" stroke="#000000" points="570,-6 570,-25 698,-25 698,-6 570,-6"/>
<text text-anchor="middle" x="634" y="-13" font-family="Helvetica,sans-Serif" font-size="10.00" fill="#000000">zrtos_malloc__get_length</text>
</a>
</g>
</g>
<!-- Node90&#45;&gt;Node91 -->
<g id="edge11" class="edge">
<title>Node90&#45;&gt;Node91</title>
<path fill="none" stroke="#191970" d="M534.389,-15.5C542.5512,-15.5 551.1973,-15.5 559.8507,-15.5"/>
<polygon fill="#191970" stroke="#191970" points="559.9839,-19.0001 569.9839,-15.5 559.9838,-12.0001 559.9839,-19.0001"/>
</g>
</g>
</svg>
