<?xml version="1.0" encoding="UTF-8" standalone="no"?>
<!DOCTYPE svg PUBLIC "-//W3C//DTD SVG 1.1//EN"
 "http://www.w3.org/Graphics/SVG/1.1/DTD/svg11.dtd">
<!-- Generated by graphviz version 2.40.1 (20161225.0304)
 -->
<!-- Title: zrtos_cbuffer__get_last_node Pages: 1 -->
<svg width="1076pt" height="498pt"
 viewBox="0.00 0.00 1076.00 498.00" xmlns="http://www.w3.org/2000/svg" xmlns:xlink="http://www.w3.org/1999/xlink">
<g id="graph0" class="graph" transform="scale(1 1) rotate(0) translate(4 494)">
<title>zrtos_cbuffer__get_last_node</title>
<polygon fill="#ffffff" stroke="transparent" points="-4,4 -4,-494 1072,-494 1072,4 -4,4"/>
<!-- Node179 -->
<g id="node1" class="node">
<title>Node179</title>
<polygon fill="#bfbfbf" stroke="#000000" points="0,-335.5 0,-365.5 98,-365.5 98,-335.5 0,-335.5"/>
<text text-anchor="start" x="8" y="-353.5" font-family="Helvetica,sans-Serif" font-size="10.00" fill="#000000">zrtos_cbuffer__get</text>
<text text-anchor="middle" x="49" y="-342.5" font-family="Helvetica,sans-Serif" font-size="10.00" fill="#000000">_last_node</text>
</g>
<!-- Node180 -->
<g id="node2" class="node">
<title>Node180</title>
<g id="a_node2"><a xlink:href="cbuffer_8h.html#aaf9c5c04a1350c2cdd906f7c7081ee38" target="_top" xlink:title="zrtos_cbuffer__start\l_write_transaction">
<polygon fill="#ffffff" stroke="#000000" points="141,-360.5 141,-390.5 245,-390.5 245,-360.5 141,-360.5"/>
<text text-anchor="start" x="149" y="-378.5" font-family="Helvetica,sans-Serif" font-size="10.00" fill="#000000">zrtos_cbuffer__start</text>
<text text-anchor="middle" x="193" y="-367.5" font-family="Helvetica,sans-Serif" font-size="10.00" fill="#000000">_write_transaction</text>
</a>
</g>
</g>
<!-- Node179&#45;&gt;Node180 -->
<g id="edge1" class="edge">
<title>Node179&#45;&gt;Node180</title>
<path fill="none" stroke="#191970" d="M108.2829,-360.7922C119.0056,-362.6537 130.1169,-364.5828 140.6245,-366.407"/>
<polygon fill="#191970" stroke="#191970" points="108.6052,-357.2958 98.1539,-359.0337 107.4078,-364.1927 108.6052,-357.2958"/>
</g>
<!-- Node201 -->
<g id="node23" class="node">
<title>Node201</title>
<g id="a_node23"><a xlink:href="cbuffer_8h.html#a9aa1ad8581d3c89304d2ff464a53e92e" target="_top" xlink:title="zrtos_cbuffer__rollback\l_write_transaction">
<polygon fill="#ffffff" stroke="#000000" points="134,-311.5 134,-341.5 252,-341.5 252,-311.5 134,-311.5"/>
<text text-anchor="start" x="142" y="-329.5" font-family="Helvetica,sans-Serif" font-size="10.00" fill="#000000">zrtos_cbuffer__rollback</text>
<text text-anchor="middle" x="193" y="-318.5" font-family="Helvetica,sans-Serif" font-size="10.00" fill="#000000">_write_transaction</text>
</a>
</g>
</g>
<!-- Node179&#45;&gt;Node201 -->
<g id="edge26" class="edge">
<title>Node179&#45;&gt;Node201</title>
<path fill="none" stroke="#191970" d="M108.0224,-340.6629C116.5528,-339.2412 125.3346,-337.7776 133.8672,-336.3555"/>
<polygon fill="#191970" stroke="#191970" points="107.4424,-337.2112 98.1539,-342.3077 108.5932,-344.116 107.4424,-337.2112"/>
</g>
<!-- Node181 -->
<g id="node3" class="node">
<title>Node181</title>
<g id="a_node3"><a xlink:href="cbuffer_8h.html#a5d269503e04946737598d2062c5bfaf4" target="_top" xlink:title="zrtos_cbuffer__put_ex">
<polygon fill="#ffffff" stroke="#000000" points="288,-304 288,-323 401,-323 401,-304 288,-304"/>
<text text-anchor="middle" x="344.5" y="-311" font-family="Helvetica,sans-Serif" font-size="10.00" fill="#000000">zrtos_cbuffer__put_ex</text>
</a>
</g>
</g>
<!-- Node180&#45;&gt;Node181 -->
<g id="edge2" class="edge">
<title>Node180&#45;&gt;Node181</title>
<path fill="none" stroke="#191970" d="M239.4194,-356.6351C243.6736,-354.9009 247.9169,-353.1692 252,-351.5 275.6235,-341.8429 302.6166,-330.7467 321.3203,-323.0484"/>
<polygon fill="#191970" stroke="#191970" points="238.0871,-353.3985 230.1463,-360.4124 240.7278,-359.8813 238.0871,-353.3985"/>
</g>
<!-- Node200 -->
<g id="node22" class="node">
<title>Node200</title>
<g id="a_node22"><a xlink:href="msg__queue_8h.html#a8d4b5575ad52b762ce101a31c5a29768" target="_top" xlink:title="zrtos_msg_queue__start\l_write_transaction">
<polygon fill="#ffffff" stroke="#000000" points="446,-459.5 446,-489.5 570,-489.5 570,-459.5 446,-459.5"/>
<text text-anchor="start" x="454" y="-477.5" font-family="Helvetica,sans-Serif" font-size="10.00" fill="#000000">zrtos_msg_queue__start</text>
<text text-anchor="middle" x="508" y="-466.5" font-family="Helvetica,sans-Serif" font-size="10.00" fill="#000000">_write_transaction</text>
</a>
</g>
</g>
<!-- Node180&#45;&gt;Node200 -->
<g id="edge23" class="edge">
<title>Node180&#45;&gt;Node200</title>
<path fill="none" stroke="#191970" d="M250.5678,-393.5927C310.7211,-412.4981 404.0079,-441.8168 460.2251,-459.485"/>
<polygon fill="#191970" stroke="#191970" points="251.4311,-390.1953 240.8417,-390.536 249.3322,-396.8733 251.4311,-390.1953"/>
</g>
<!-- Node182 -->
<g id="node4" class="node">
<title>Node182</title>
<g id="a_node4"><a xlink:href="msg__queue_8h.html#a9f24485c49e6b6ba13406e9a5d1f352d" target="_top" xlink:title="zrtos_msg_queue__put\l_length">
<polygon fill="#ffffff" stroke="#000000" points="449,-361.5 449,-391.5 567,-391.5 567,-361.5 449,-361.5"/>
<text text-anchor="start" x="457" y="-379.5" font-family="Helvetica,sans-Serif" font-size="10.00" fill="#000000">zrtos_msg_queue__put</text>
<text text-anchor="middle" x="508" y="-368.5" font-family="Helvetica,sans-Serif" font-size="10.00" fill="#000000">_length</text>
</a>
</g>
</g>
<!-- Node181&#45;&gt;Node182 -->
<g id="edge3" class="edge">
<title>Node181&#45;&gt;Node182</title>
<path fill="none" stroke="#191970" d="M376.1399,-326.9676C393.9334,-334.423 416.605,-343.7259 437,-351.5 445.6699,-354.8048 454.992,-358.1994 463.9377,-361.3799"/>
<polygon fill="#191970" stroke="#191970" points="377.3766,-323.6908 366.8019,-323.0373 374.661,-330.1426 377.3766,-323.6908"/>
</g>
<!-- Node187 -->
<g id="node9" class="node">
<title>Node187</title>
<g id="a_node9"><a xlink:href="msg__queue_8h.html#a14fb4faf04687986da3435e06db5d587" target="_top" xlink:title="zrtos_msg_queue__put_data">
<polygon fill="#ffffff" stroke="#000000" points="437,-323 437,-342 579,-342 579,-323 437,-323"/>
<text text-anchor="middle" x="508" y="-330" font-family="Helvetica,sans-Serif" font-size="10.00" fill="#000000">zrtos_msg_queue__put_data</text>
</a>
</g>
</g>
<!-- Node181&#45;&gt;Node187 -->
<g id="edge8" class="edge">
<title>Node181&#45;&gt;Node187</title>
<path fill="none" stroke="#191970" d="M411.3822,-321.2722C419.8185,-322.2526 428.4734,-323.2584 436.9711,-324.2459"/>
<polygon fill="#191970" stroke="#191970" points="411.5627,-317.7697 401.2255,-320.092 410.7546,-324.723 411.5627,-317.7697"/>
</g>
<!-- Node188 -->
<g id="node10" class="node">
<title>Node188</title>
<g id="a_node10"><a xlink:href="msg__queue_8h.html#ab51eb620b09145d1b05966404c9e0ca4" target="_top" xlink:title="zrtos_msg_queue__put">
<polygon fill="#ffffff" stroke="#000000" points="449,-285 449,-304 567,-304 567,-285 449,-285"/>
<text text-anchor="middle" x="508" y="-292" font-family="Helvetica,sans-Serif" font-size="10.00" fill="#000000">zrtos_msg_queue__put</text>
</a>
</g>
</g>
<!-- Node181&#45;&gt;Node188 -->
<g id="edge10" class="edge">
<title>Node181&#45;&gt;Node188</title>
<path fill="none" stroke="#191970" d="M411.4957,-305.7146C423.8842,-304.2749 436.7402,-302.781 448.8743,-301.3709"/>
<polygon fill="#191970" stroke="#191970" points="410.7546,-302.277 401.2255,-306.908 411.5627,-309.2303 410.7546,-302.277"/>
</g>
<!-- Node189 -->
<g id="node11" class="node">
<title>Node189</title>
<g id="a_node11"><a xlink:href="spi_2spi_8h.html#a7f9adeb6314d47b2442b0a17d1cc2f37" target="_top" xlink:title="zrtos_vfs_module_spi\l__transfer_in">
<polygon fill="#ffffff" stroke="#000000" points="452,-235.5 452,-265.5 564,-265.5 564,-235.5 452,-235.5"/>
<text text-anchor="start" x="460" y="-253.5" font-family="Helvetica,sans-Serif" font-size="10.00" fill="#000000">zrtos_vfs_module_spi</text>
<text text-anchor="middle" x="508" y="-242.5" font-family="Helvetica,sans-Serif" font-size="10.00" fill="#000000">__transfer_in</text>
</a>
</g>
</g>
<!-- Node181&#45;&gt;Node189 -->
<g id="edge11" class="edge">
<title>Node181&#45;&gt;Node189</title>
<path fill="none" stroke="#191970" d="M376.1399,-300.0324C393.9334,-292.577 416.605,-283.2741 437,-275.5 445.6699,-272.1952 454.992,-268.8006 463.9377,-265.6201"/>
<polygon fill="#191970" stroke="#191970" points="374.661,-296.8574 366.8019,-303.9627 377.3766,-303.3092 374.661,-296.8574"/>
</g>
<!-- Node194 -->
<g id="node16" class="node">
<title>Node194</title>
<g id="a_node16"><a xlink:href="spi_2spi_8h.html#ac672df98eac652a9d1925ba73229c475" target="_top" xlink:title="zrtos_vfs_module_spi\l__on_write">
<polygon fill="#ffffff" stroke="#000000" points="796,-189.5 796,-219.5 908,-219.5 908,-189.5 796,-189.5"/>
<text text-anchor="start" x="804" y="-207.5" font-family="Helvetica,sans-Serif" font-size="10.00" fill="#000000">zrtos_vfs_module_spi</text>
<text text-anchor="middle" x="852" y="-196.5" font-family="Helvetica,sans-Serif" font-size="10.00" fill="#000000">__on_write</text>
</a>
</g>
</g>
<!-- Node181&#45;&gt;Node194 -->
<g id="edge16" class="edge">
<title>Node181&#45;&gt;Node194</title>
<path fill="none" stroke="#191970" d="M356.9604,-295.8578C372.8378,-275.0074 402.4102,-241.2822 437,-226.5 499.9451,-199.6 697.5774,-200.4905 795.652,-202.7529"/>
<polygon fill="#191970" stroke="#191970" points="354.1385,-293.7873 351.0195,-303.9126 359.772,-297.9423 354.1385,-293.7873"/>
</g>
<!-- Node195 -->
<g id="node17" class="node">
<title>Node195</title>
<g id="a_node17"><a xlink:href="uart_2uart_8h.html#a9e735d9796aaa30e4a5fce9c763adf92" target="_top" xlink:title="zrtos_vfs_module_uart\l__on_write">
<polygon fill="#ffffff" stroke="#000000" points="450,-98.5 450,-128.5 566,-128.5 566,-98.5 450,-98.5"/>
<text text-anchor="start" x="458" y="-116.5" font-family="Helvetica,sans-Serif" font-size="10.00" fill="#000000">zrtos_vfs_module_uart</text>
<text text-anchor="middle" x="508" y="-105.5" font-family="Helvetica,sans-Serif" font-size="10.00" fill="#000000">__on_write</text>
</a>
</g>
</g>
<!-- Node181&#45;&gt;Node195 -->
<g id="edge18" class="edge">
<title>Node181&#45;&gt;Node195</title>
<path fill="none" stroke="#191970" d="M357.3781,-295.7554C374.87,-271.8659 407.3631,-228.2335 437,-192.5 455.9532,-169.6479 479.149,-144.2932 493.7545,-128.6221"/>
<polygon fill="#191970" stroke="#191970" points="354.512,-293.7455 351.4459,-303.887 360.1671,-297.8711 354.512,-293.7455"/>
</g>
<!-- Node183 -->
<g id="node5" class="node">
<title>Node183</title>
<g id="a_node5"><a xlink:href="rtu_8h.html#a223fc39dfd241ff17884c9f5d03f8e78" target="_top" xlink:title="zrtos_vfs_module_modbus\l_rtu__on_recv_timeout">
<polygon fill="#ffffff" stroke="#000000" points="615,-410.5 615,-440.5 749,-440.5 749,-410.5 615,-410.5"/>
<text text-anchor="start" x="623" y="-428.5" font-family="Helvetica,sans-Serif" font-size="10.00" fill="#000000">zrtos_vfs_module_modbus</text>
<text text-anchor="middle" x="682" y="-417.5" font-family="Helvetica,sans-Serif" font-size="10.00" fill="#000000">_rtu__on_recv_timeout</text>
</a>
</g>
</g>
<!-- Node182&#45;&gt;Node183 -->
<g id="edge4" class="edge">
<title>Node182&#45;&gt;Node183</title>
<path fill="none" stroke="#191970" d="M571.2836,-394.3212C590.0704,-399.6118 610.4546,-405.3522 628.5515,-410.4484"/>
<polygon fill="#191970" stroke="#191970" points="572.1999,-390.9432 561.6255,-391.6014 570.3024,-397.6811 572.1999,-390.9432"/>
</g>
<!-- Node185 -->
<g id="node7" class="node">
<title>Node185</title>
<g id="a_node7"><a xlink:href="rtu_8h.html#ac0ca767b3e1e9a8b1f290448a122e095" target="_top" xlink:title="zrtos_vfs_module_modbus\l_rtu__on_write">
<polygon fill="#ffffff" stroke="#000000" points="615,-361.5 615,-391.5 749,-391.5 749,-361.5 615,-361.5"/>
<text text-anchor="start" x="623" y="-379.5" font-family="Helvetica,sans-Serif" font-size="10.00" fill="#000000">zrtos_vfs_module_modbus</text>
<text text-anchor="middle" x="682" y="-368.5" font-family="Helvetica,sans-Serif" font-size="10.00" fill="#000000">_rtu__on_write</text>
</a>
</g>
</g>
<!-- Node182&#45;&gt;Node185 -->
<g id="edge6" class="edge">
<title>Node182&#45;&gt;Node185</title>
<path fill="none" stroke="#191970" d="M577.5673,-376.5C589.8402,-376.5 602.5956,-376.5 614.8019,-376.5"/>
<polygon fill="#191970" stroke="#191970" points="577.3943,-373.0001 567.3943,-376.5 577.3942,-380.0001 577.3943,-373.0001"/>
</g>
<!-- Node184 -->
<g id="node6" class="node">
<title>Node184</title>
<g id="a_node6"><a xlink:href="rtu_8h.html#a2376d02a52d42eef634ef843afc499f3" target="_top" xlink:title="zrtos_vfs_module_modbus\l_rtu_inode__init">
<polygon fill="#ffffff" stroke="#000000" points="785,-410.5 785,-440.5 919,-440.5 919,-410.5 785,-410.5"/>
<text text-anchor="start" x="793" y="-428.5" font-family="Helvetica,sans-Serif" font-size="10.00" fill="#000000">zrtos_vfs_module_modbus</text>
<text text-anchor="middle" x="852" y="-417.5" font-family="Helvetica,sans-Serif" font-size="10.00" fill="#000000">_rtu_inode__init</text>
</a>
</g>
</g>
<!-- Node183&#45;&gt;Node184 -->
<g id="edge5" class="edge">
<title>Node183&#45;&gt;Node184</title>
<path fill="none" stroke="#191970" d="M759.4246,-425.5C767.8759,-425.5 776.4279,-425.5 784.7428,-425.5"/>
<polygon fill="#191970" stroke="#191970" points="759.1885,-422.0001 749.1885,-425.5 759.1885,-429.0001 759.1885,-422.0001"/>
</g>
<!-- Node186 -->
<g id="node8" class="node">
<title>Node186</title>
<g id="a_node8"><a xlink:href="rtu_8h.html#a08670f8758ac6130c738816d306eb923" target="_top" xlink:title="zrtos_vfs_module_modbus\l_rtu__on_ioctl">
<polygon fill="#ffffff" stroke="#000000" points="785,-361.5 785,-391.5 919,-391.5 919,-361.5 785,-361.5"/>
<text text-anchor="start" x="793" y="-379.5" font-family="Helvetica,sans-Serif" font-size="10.00" fill="#000000">zrtos_vfs_module_modbus</text>
<text text-anchor="middle" x="852" y="-368.5" font-family="Helvetica,sans-Serif" font-size="10.00" fill="#000000">_rtu__on_ioctl</text>
</a>
</g>
</g>
<!-- Node185&#45;&gt;Node186 -->
<g id="edge7" class="edge">
<title>Node185&#45;&gt;Node186</title>
<path fill="none" stroke="#191970" d="M759.4246,-376.5C767.8759,-376.5 776.4279,-376.5 784.7428,-376.5"/>
<polygon fill="#191970" stroke="#191970" points="759.1885,-373.0001 749.1885,-376.5 759.1885,-380.0001 759.1885,-373.0001"/>
</g>
<!-- Node187&#45;&gt;Node185 -->
<g id="edge9" class="edge">
<title>Node187&#45;&gt;Node185</title>
<path fill="none" stroke="#191970" d="M555.5579,-344.5261C576.1972,-349.7453 600.5933,-355.9144 622.4233,-361.4346"/>
<polygon fill="#191970" stroke="#191970" points="556.3083,-341.1058 545.7554,-342.0473 554.5922,-347.8922 556.3083,-341.1058"/>
</g>
<!-- Node190 -->
<g id="node12" class="node">
<title>Node190</title>
<g id="a_node12"><a xlink:href="spi_2spi_8h.html#ab31c12597a3f2932aaf01466ffff59bb" target="_top" xlink:title="zrtos_vfs_module_spi\l__transfer">
<polygon fill="#ffffff" stroke="#000000" points="626,-237.5 626,-267.5 738,-267.5 738,-237.5 626,-237.5"/>
<text text-anchor="start" x="634" y="-255.5" font-family="Helvetica,sans-Serif" font-size="10.00" fill="#000000">zrtos_vfs_module_spi</text>
<text text-anchor="middle" x="682" y="-244.5" font-family="Helvetica,sans-Serif" font-size="10.00" fill="#000000">__transfer</text>
</a>
</g>
</g>
<!-- Node189&#45;&gt;Node190 -->
<g id="edge12" class="edge">
<title>Node189&#45;&gt;Node190</title>
<path fill="none" stroke="#191970" d="M574.3992,-251.2632C591.3506,-251.4581 609.4091,-251.6656 625.7944,-251.854"/>
<polygon fill="#191970" stroke="#191970" points="574.0521,-247.7591 564.0125,-251.1438 573.9715,-254.7586 574.0521,-247.7591"/>
</g>
<!-- Node191 -->
<g id="node13" class="node">
<title>Node191</title>
<g id="a_node13"><a xlink:href="avr_2spi_2spi_8h.html#a3a0f3b324bd986778ccde00670dbabc9" target="_top" xlink:title="zrtos_vfs_module_avr\l_spi__on_interrupt">
<polygon fill="#ffffff" stroke="#000000" points="795.5,-238.5 795.5,-268.5 908.5,-268.5 908.5,-238.5 795.5,-238.5"/>
<text text-anchor="start" x="803.5" y="-256.5" font-family="Helvetica,sans-Serif" font-size="10.00" fill="#000000">zrtos_vfs_module_avr</text>
<text text-anchor="middle" x="852" y="-245.5" font-family="Helvetica,sans-Serif" font-size="10.00" fill="#000000">_spi__on_interrupt</text>
</a>
</g>
</g>
<!-- Node190&#45;&gt;Node191 -->
<g id="edge13" class="edge">
<title>Node190&#45;&gt;Node191</title>
<path fill="none" stroke="#191970" d="M748.2154,-252.8895C763.784,-252.9811 780.2376,-253.0779 795.3426,-253.1667"/>
<polygon fill="#191970" stroke="#191970" points="748.1559,-249.3892 738.1355,-252.8302 748.1147,-256.3891 748.1559,-249.3892"/>
</g>
<!-- Node192 -->
<g id="node14" class="node">
<title>Node192</title>
<g id="a_node14"><a xlink:href="avr_2spi_2spi_8h.html#a0353f98d744b931e541684fe33b272f7" target="_top" xlink:title="ISR">
<polygon fill="#ffffff" stroke="#000000" points="994.5,-244 994.5,-263 1028.5,-263 1028.5,-244 994.5,-244"/>
<text text-anchor="middle" x="1011.5" y="-251" font-family="Helvetica,sans-Serif" font-size="10.00" fill="#000000">ISR</text>
</a>
</g>
</g>
<!-- Node191&#45;&gt;Node192 -->
<g id="edge14" class="edge">
<title>Node191&#45;&gt;Node192</title>
<path fill="none" stroke="#191970" d="M918.7619,-253.5C946.4525,-253.5 976.2899,-253.5 994.4331,-253.5"/>
<polygon fill="#191970" stroke="#191970" points="918.6829,-250.0001 908.6828,-253.5 918.6828,-257.0001 918.6829,-250.0001"/>
</g>
<!-- Node193 -->
<g id="node15" class="node">
<title>Node193</title>
<g id="a_node15"><a xlink:href="avr_2spi_2spi_8h.html#ab6f547c3ce7ee0463c235abe078f9491" target="_top" xlink:title="zrtos_vfs_module_avr\l_spi__on_write">
<polygon fill="#ffffff" stroke="#000000" points="955,-192.5 955,-222.5 1068,-222.5 1068,-192.5 955,-192.5"/>
<text text-anchor="start" x="963" y="-210.5" font-family="Helvetica,sans-Serif" font-size="10.00" fill="#000000">zrtos_vfs_module_avr</text>
<text text-anchor="middle" x="1011.5" y="-199.5" font-family="Helvetica,sans-Serif" font-size="10.00" fill="#000000">_spi__on_write</text>
</a>
</g>
</g>
<!-- Node191&#45;&gt;Node193 -->
<g id="edge15" class="edge">
<title>Node191&#45;&gt;Node193</title>
<path fill="none" stroke="#191970" d="M913.9526,-235.6328C928.9847,-231.2975 944.9059,-226.7058 959.4289,-222.5174"/>
<polygon fill="#191970" stroke="#191970" points="912.8648,-232.3038 904.2263,-238.4379 914.8046,-239.0297 912.8648,-232.3038"/>
</g>
<!-- Node194&#45;&gt;Node193 -->
<g id="edge17" class="edge">
<title>Node194&#45;&gt;Node193</title>
<path fill="none" stroke="#191970" d="M918.3336,-205.7477C930.5084,-205.9766 943.1127,-206.2137 954.9672,-206.4367"/>
<polygon fill="#191970" stroke="#191970" points="918.2978,-202.2465 908.2337,-205.5577 918.1661,-209.2452 918.2978,-202.2465"/>
</g>
<!-- Node196 -->
<g id="node18" class="node">
<title>Node196</title>
<g id="a_node18"><a xlink:href="uart0_8h.html#a1c08ba1c9bac4dd9a045d06a07dbe0b4" target="_top" xlink:title="zrtos_vfs_module_avr\l_uart0__on_write">
<polygon fill="#ffffff" stroke="#000000" points="625.5,-147.5 625.5,-177.5 738.5,-177.5 738.5,-147.5 625.5,-147.5"/>
<text text-anchor="start" x="633.5" y="-165.5" font-family="Helvetica,sans-Serif" font-size="10.00" fill="#000000">zrtos_vfs_module_avr</text>
<text text-anchor="middle" x="682" y="-154.5" font-family="Helvetica,sans-Serif" font-size="10.00" fill="#000000">_uart0__on_write</text>
</a>
</g>
</g>
<!-- Node195&#45;&gt;Node196 -->
<g id="edge19" class="edge">
<title>Node195&#45;&gt;Node196</title>
<path fill="none" stroke="#191970" d="M571.2836,-131.3212C590.0704,-136.6118 610.4546,-142.3522 628.5515,-147.4484"/>
<polygon fill="#191970" stroke="#191970" points="572.1999,-127.9432 561.6255,-128.6014 570.3024,-134.6811 572.1999,-127.9432"/>
</g>
<!-- Node197 -->
<g id="node19" class="node">
<title>Node197</title>
<g id="a_node19"><a xlink:href="uart1_8h.html#af04452122e72ab7408b2e207191cdd33" target="_top" xlink:title="zrtos_vfs_module_avr\l_uart1__on_write">
<polygon fill="#ffffff" stroke="#000000" points="625.5,-98.5 625.5,-128.5 738.5,-128.5 738.5,-98.5 625.5,-98.5"/>
<text text-anchor="start" x="633.5" y="-116.5" font-family="Helvetica,sans-Serif" font-size="10.00" fill="#000000">zrtos_vfs_module_avr</text>
<text text-anchor="middle" x="682" y="-105.5" font-family="Helvetica,sans-Serif" font-size="10.00" fill="#000000">_uart1__on_write</text>
</a>
</g>
</g>
<!-- Node195&#45;&gt;Node197 -->
<g id="edge20" class="edge">
<title>Node195&#45;&gt;Node197</title>
<path fill="none" stroke="#191970" d="M576.8148,-113.5C592.8537,-113.5 609.7557,-113.5 625.2065,-113.5"/>
<polygon fill="#191970" stroke="#191970" points="576.4236,-110.0001 566.4235,-113.5 576.4235,-117.0001 576.4236,-110.0001"/>
</g>
<!-- Node198 -->
<g id="node20" class="node">
<title>Node198</title>
<g id="a_node20"><a xlink:href="uart2_8h.html#a244148efdde4e736bdcba74328e85415" target="_top" xlink:title="zrtos_vfs_module_avr\l_uart2__on_write">
<polygon fill="#ffffff" stroke="#000000" points="625.5,-49.5 625.5,-79.5 738.5,-79.5 738.5,-49.5 625.5,-49.5"/>
<text text-anchor="start" x="633.5" y="-67.5" font-family="Helvetica,sans-Serif" font-size="10.00" fill="#000000">zrtos_vfs_module_avr</text>
<text text-anchor="middle" x="682" y="-56.5" font-family="Helvetica,sans-Serif" font-size="10.00" fill="#000000">_uart2__on_write</text>
</a>
</g>
</g>
<!-- Node195&#45;&gt;Node198 -->
<g id="edge21" class="edge">
<title>Node195&#45;&gt;Node198</title>
<path fill="none" stroke="#191970" d="M571.2836,-95.6788C590.0704,-90.3882 610.4546,-84.6478 628.5515,-79.5516"/>
<polygon fill="#191970" stroke="#191970" points="570.3024,-92.3189 561.6255,-98.3986 572.1999,-99.0568 570.3024,-92.3189"/>
</g>
<!-- Node199 -->
<g id="node21" class="node">
<title>Node199</title>
<g id="a_node21"><a xlink:href="uart3_8h.html#a0ac21cf2483f89180a91b9ca480eb7b8" target="_top" xlink:title="zrtos_vfs_module_avr\l_uart3__on_write">
<polygon fill="#ffffff" stroke="#000000" points="625.5,-.5 625.5,-30.5 738.5,-30.5 738.5,-.5 625.5,-.5"/>
<text text-anchor="start" x="633.5" y="-18.5" font-family="Helvetica,sans-Serif" font-size="10.00" fill="#000000">zrtos_vfs_module_avr</text>
<text text-anchor="middle" x="682" y="-7.5" font-family="Helvetica,sans-Serif" font-size="10.00" fill="#000000">_uart3__on_write</text>
</a>
</g>
</g>
<!-- Node195&#45;&gt;Node199 -->
<g id="edge22" class="edge">
<title>Node195&#45;&gt;Node199</title>
<path fill="none" stroke="#191970" d="M534.8472,-91.9814C555.7712,-75.959 586.0411,-54.3749 615,-39.5 621.2646,-36.2821 628.0611,-33.3074 634.8421,-30.6271"/>
<polygon fill="#191970" stroke="#191970" points="532.5154,-89.3606 526.7588,-98.2552 536.8056,-94.8918 532.5154,-89.3606"/>
</g>
<!-- Node200&#45;&gt;Node183 -->
<g id="edge24" class="edge">
<title>Node200&#45;&gt;Node183</title>
<path fill="none" stroke="#191970" d="M571.2836,-456.6788C590.0704,-451.3882 610.4546,-445.6478 628.5515,-440.5516"/>
<polygon fill="#191970" stroke="#191970" points="570.3024,-453.3189 561.6255,-459.3986 572.1999,-460.0568 570.3024,-453.3189"/>
</g>
<!-- Node200&#45;&gt;Node185 -->
<g id="edge25" class="edge">
<title>Node200&#45;&gt;Node185</title>
<path fill="none" stroke="#191970" d="M573.1373,-454.399C575.1616,-453.1716 577.1228,-451.8732 579,-450.5 600.8108,-434.545 593.4405,-417.7929 615,-401.5 620.0516,-397.6825 625.7495,-394.3938 631.6358,-391.5747"/>
<polygon fill="#191970" stroke="#191970" points="571.083,-451.529 563.9222,-459.3375 574.3895,-457.6989 571.083,-451.529"/>
</g>
<!-- Node201&#45;&gt;Node181 -->
<g id="edge27" class="edge">
<title>Node201&#45;&gt;Node181</title>
<path fill="none" stroke="#191970" d="M262.0702,-320.5732C270.7109,-319.8317 279.4684,-319.0803 287.8884,-318.3578"/>
<polygon fill="#191970" stroke="#191970" points="261.6718,-317.0944 252.0077,-321.4366 262.2703,-324.0688 261.6718,-317.0944"/>
</g>
<!-- Node202 -->
<g id="node24" class="node">
<title>Node202</title>
<g id="a_node24"><a xlink:href="msg__queue_8h.html#a0eefe9e5e6f83f1fcd2c66546a05add7" target="_top" xlink:title="zrtos_msg_queue__rollback\l_write_transaction">
<polygon fill="#ffffff" stroke="#000000" points="439,-410.5 439,-440.5 577,-440.5 577,-410.5 439,-410.5"/>
<text text-anchor="start" x="447" y="-428.5" font-family="Helvetica,sans-Serif" font-size="10.00" fill="#000000">zrtos_msg_queue__rollback</text>
<text text-anchor="middle" x="508" y="-417.5" font-family="Helvetica,sans-Serif" font-size="10.00" fill="#000000">_write_transaction</text>
</a>
</g>
</g>
<!-- Node201&#45;&gt;Node202 -->
<g id="edge28" class="edge">
<title>Node201&#45;&gt;Node202</title>
<path fill="none" stroke="#191970" d="M250.5678,-344.5927C310.7211,-363.4981 404.0079,-392.8168 460.2251,-410.485"/>
<polygon fill="#191970" stroke="#191970" points="251.4311,-341.1953 240.8417,-341.536 249.3322,-347.8733 251.4311,-341.1953"/>
</g>
<!-- Node202&#45;&gt;Node183 -->
<g id="edge29" class="edge">
<title>Node202&#45;&gt;Node183</title>
<path fill="none" stroke="#191970" d="M587.3083,-425.5C596.4842,-425.5 605.7751,-425.5 614.7684,-425.5"/>
<polygon fill="#191970" stroke="#191970" points="587.0194,-422.0001 577.0193,-425.5 587.0193,-429.0001 587.0194,-422.0001"/>
</g>
<!-- Node202&#45;&gt;Node185 -->
<g id="edge30" class="edge">
<title>Node202&#45;&gt;Node185</title>
<path fill="none" stroke="#191970" d="M571.2836,-407.6788C590.0704,-402.3882 610.4546,-396.6478 628.5515,-391.5516"/>
<polygon fill="#191970" stroke="#191970" points="570.3024,-404.3189 561.6255,-410.3986 572.1999,-411.0568 570.3024,-404.3189"/>
</g>
</g>
</svg>
