<?xml version="1.0" encoding="UTF-8" standalone="no"?>
<!DOCTYPE svg PUBLIC "-//W3C//DTD SVG 1.1//EN"
 "http://www.w3.org/Graphics/SVG/1.1/DTD/svg11.dtd">
<!-- Generated by graphviz version 2.40.1 (20161225.0304)
 -->
<!-- Title: zrtos_cbuffer__pop Pages: 1 -->
<svg width="756pt" height="88pt"
 viewBox="0.00 0.00 756.00 88.00" xmlns="http://www.w3.org/2000/svg" xmlns:xlink="http://www.w3.org/1999/xlink">
<g id="graph0" class="graph" transform="scale(1 1) rotate(0) translate(4 84)">
<title>zrtos_cbuffer__pop</title>
<polygon fill="#ffffff" stroke="transparent" points="-4,4 -4,-84 752,-84 752,4 -4,4"/>
<!-- Node303 -->
<g id="node1" class="node">
<title>Node303</title>
<polygon fill="#bfbfbf" stroke="#000000" points="0,-30 0,-49 100,-49 100,-30 0,-30"/>
<text text-anchor="middle" x="50" y="-37" font-family="Helvetica,sans-Serif" font-size="10.00" fill="#000000">zrtos_cbuffer__pop</text>
</g>
<!-- Node304 -->
<g id="node2" class="node">
<title>Node304</title>
<g id="a_node2"><a xlink:href="cbuffer_8h.html#a77458b7cd6238ed911ffdab0fe328e04" target="_top" xlink:title="zrtos_cbuffer__pipe">
<polygon fill="#ffffff" stroke="#000000" points="136,-30 136,-49 238,-49 238,-30 136,-30"/>
<text text-anchor="middle" x="187" y="-37" font-family="Helvetica,sans-Serif" font-size="10.00" fill="#000000">zrtos_cbuffer__pipe</text>
</a>
</g>
</g>
<!-- Node303&#45;&gt;Node304 -->
<g id="edge1" class="edge">
<title>Node303&#45;&gt;Node304</title>
<path fill="none" stroke="#191970" d="M110.4556,-39.5C118.9308,-39.5 127.5726,-39.5 135.8523,-39.5"/>
<polygon fill="#191970" stroke="#191970" points="110.2359,-36.0001 100.2358,-39.5 110.2358,-43.0001 110.2359,-36.0001"/>
</g>
<!-- Node305 -->
<g id="node3" class="node">
<title>Node305</title>
<g id="a_node3"><a xlink:href="msg__queue_8h.html#a7b05ddf4bc60700bfe0b9d3a0f11664b" target="_top" xlink:title="zrtos_msg_queue__put\l_cbuffer_data">
<polygon fill="#ffffff" stroke="#000000" points="282,-49.5 282,-79.5 400,-79.5 400,-49.5 282,-49.5"/>
<text text-anchor="start" x="290" y="-67.5" font-family="Helvetica,sans-Serif" font-size="10.00" fill="#000000">zrtos_msg_queue__put</text>
<text text-anchor="middle" x="341" y="-56.5" font-family="Helvetica,sans-Serif" font-size="10.00" fill="#000000">_cbuffer_data</text>
</a>
</g>
</g>
<!-- Node304&#45;&gt;Node305 -->
<g id="edge2" class="edge">
<title>Node304&#45;&gt;Node305</title>
<path fill="none" stroke="#191970" d="M248.3065,-49.4524C259.3937,-51.2522 270.9342,-53.1257 281.955,-54.9148"/>
<polygon fill="#191970" stroke="#191970" points="248.7114,-45.9723 238.2798,-47.8246 247.5897,-52.8819 248.7114,-45.9723"/>
</g>
<!-- Node308 -->
<g id="node6" class="node">
<title>Node308</title>
<g id="a_node6"><a xlink:href="msg__queue_8h.html#a40db633a8c0ef5e3bba9cc700e45f7ef" target="_top" xlink:title="zrtos_msg_queue__pipe\l_next_message_to_cbuffer">
<polygon fill="#ffffff" stroke="#000000" points="274,-.5 274,-30.5 408,-30.5 408,-.5 274,-.5"/>
<text text-anchor="start" x="282" y="-18.5" font-family="Helvetica,sans-Serif" font-size="10.00" fill="#000000">zrtos_msg_queue__pipe</text>
<text text-anchor="middle" x="341" y="-7.5" font-family="Helvetica,sans-Serif" font-size="10.00" fill="#000000">_next_message_to_cbuffer</text>
</a>
</g>
</g>
<!-- Node304&#45;&gt;Node308 -->
<g id="edge5" class="edge">
<title>Node304&#45;&gt;Node308</title>
<path fill="none" stroke="#191970" d="M248.3277,-29.9424C256.693,-28.6387 265.316,-27.2949 273.7789,-25.976"/>
<polygon fill="#191970" stroke="#191970" points="247.6215,-26.5102 238.2798,-31.5083 248.6995,-33.4267 247.6215,-26.5102"/>
</g>
<!-- Node306 -->
<g id="node4" class="node">
<title>Node306</title>
<g id="a_node4"><a xlink:href="rtu_8h.html#a223fc39dfd241ff17884c9f5d03f8e78" target="_top" xlink:title="zrtos_vfs_module_modbus\l_rtu__on_recv_timeout">
<polygon fill="#ffffff" stroke="#000000" points="444,-49.5 444,-79.5 578,-79.5 578,-49.5 444,-49.5"/>
<text text-anchor="start" x="452" y="-67.5" font-family="Helvetica,sans-Serif" font-size="10.00" fill="#000000">zrtos_vfs_module_modbus</text>
<text text-anchor="middle" x="511" y="-56.5" font-family="Helvetica,sans-Serif" font-size="10.00" fill="#000000">_rtu__on_recv_timeout</text>
</a>
</g>
</g>
<!-- Node305&#45;&gt;Node306 -->
<g id="edge3" class="edge">
<title>Node305&#45;&gt;Node306</title>
<path fill="none" stroke="#191970" d="M410.769,-64.5C421.6593,-64.5 432.8945,-64.5 443.7276,-64.5"/>
<polygon fill="#191970" stroke="#191970" points="410.4578,-61.0001 400.4578,-64.5 410.4577,-68.0001 410.4578,-61.0001"/>
</g>
<!-- Node307 -->
<g id="node5" class="node">
<title>Node307</title>
<g id="a_node5"><a xlink:href="rtu_8h.html#a2376d02a52d42eef634ef843afc499f3" target="_top" xlink:title="zrtos_vfs_module_modbus\l_rtu_inode__init">
<polygon fill="#ffffff" stroke="#000000" points="614,-24.5 614,-54.5 748,-54.5 748,-24.5 614,-24.5"/>
<text text-anchor="start" x="622" y="-42.5" font-family="Helvetica,sans-Serif" font-size="10.00" fill="#000000">zrtos_vfs_module_modbus</text>
<text text-anchor="middle" x="681" y="-31.5" font-family="Helvetica,sans-Serif" font-size="10.00" fill="#000000">_rtu_inode__init</text>
</a>
</g>
</g>
<!-- Node306&#45;&gt;Node307 -->
<g id="edge4" class="edge">
<title>Node306&#45;&gt;Node307</title>
<path fill="none" stroke="#191970" d="M588.146,-53.155C596.6879,-51.8988 605.3366,-50.627 613.7428,-49.3908"/>
<polygon fill="#191970" stroke="#191970" points="587.5728,-49.7016 578.1885,-54.6193 588.5914,-56.6271 587.5728,-49.7016"/>
</g>
<!-- Node309 -->
<g id="node7" class="node">
<title>Node309</title>
<g id="a_node7"><a xlink:href="rtu_8h.html#ab23606290979709ef6fefa7c6970e64e" target="_top" xlink:title="zrtos_vfs_module_modbus\l_rtu__on_send">
<polygon fill="#ffffff" stroke="#000000" points="444,-.5 444,-30.5 578,-30.5 578,-.5 444,-.5"/>
<text text-anchor="start" x="452" y="-18.5" font-family="Helvetica,sans-Serif" font-size="10.00" fill="#000000">zrtos_vfs_module_modbus</text>
<text text-anchor="middle" x="511" y="-7.5" font-family="Helvetica,sans-Serif" font-size="10.00" fill="#000000">_rtu__on_send</text>
</a>
</g>
</g>
<!-- Node308&#45;&gt;Node309 -->
<g id="edge6" class="edge">
<title>Node308&#45;&gt;Node309</title>
<path fill="none" stroke="#191970" d="M418.4246,-15.5C426.8759,-15.5 435.4279,-15.5 443.7428,-15.5"/>
<polygon fill="#191970" stroke="#191970" points="418.1885,-12.0001 408.1885,-15.5 418.1885,-19.0001 418.1885,-12.0001"/>
</g>
<!-- Node309&#45;&gt;Node307 -->
<g id="edge7" class="edge">
<title>Node309&#45;&gt;Node307</title>
<path fill="none" stroke="#191970" d="M588.146,-26.3912C596.6879,-27.5971 605.3366,-28.8181 613.7428,-30.0049"/>
<polygon fill="#191970" stroke="#191970" points="588.5796,-22.9178 578.1885,-24.9854 587.601,-29.8491 588.5796,-22.9178"/>
</g>
</g>
</svg>
