<?xml version="1.0" encoding="UTF-8" standalone="no"?>
<!DOCTYPE svg PUBLIC "-//W3C//DTD SVG 1.1//EN"
 "http://www.w3.org/Graphics/SVG/1.1/DTD/svg11.dtd">
<!-- Generated by graphviz version 2.40.1 (20161225.0304)
 -->
<!-- Title: zrtos_cbuffer__peek Pages: 1 -->
<svg width="413pt" height="78pt"
 viewBox="0.00 0.00 413.00 77.50" xmlns="http://www.w3.org/2000/svg" xmlns:xlink="http://www.w3.org/1999/xlink">
<g id="graph0" class="graph" transform="scale(1 1) rotate(0) translate(4 73.5)">
<title>zrtos_cbuffer__peek</title>
<polygon fill="#ffffff" stroke="transparent" points="-4,4 -4,-73.5 409,-73.5 409,4 -4,4"/>
<!-- Node247 -->
<g id="node1" class="node">
<title>Node247</title>
<polygon fill="#bfbfbf" stroke="#000000" points="0,-28 0,-47 105,-47 105,-28 0,-28"/>
<text text-anchor="middle" x="52.5" y="-35" font-family="Helvetica,sans-Serif" font-size="10.00" fill="#000000">zrtos_cbuffer__peek</text>
</g>
<!-- Node248 -->
<g id="node2" class="node">
<title>Node248</title>
<g id="a_node2"><a xlink:href="list_8h.html#a5a9358f4b25c9376dbdef338fa8333a6" target="_top" xlink:title="zrtos_list__get_first_node">
<polygon fill="#ffffff" stroke="#000000" points="141,-50 141,-69 269,-69 269,-50 141,-50"/>
<text text-anchor="middle" x="205" y="-57" font-family="Helvetica,sans-Serif" font-size="10.00" fill="#000000">zrtos_list__get_first_node</text>
</a>
</g>
</g>
<!-- Node247&#45;&gt;Node248 -->
<g id="edge1" class="edge">
<title>Node247&#45;&gt;Node248</title>
<path fill="none" stroke="#191970" d="M105.4091,-45.1328C113.6327,-46.3191 122.2572,-47.5633 130.8462,-48.8024"/>
<polygon fill="#191970" stroke="#191970" points="130.4892,-52.287 140.8865,-50.2508 131.4887,-45.3588 130.4892,-52.287"/>
</g>
<!-- Node249 -->
<g id="node3" class="node">
<title>Node249</title>
<g id="a_node3"><a xlink:href="cbuffer_8h.html#a2db82192303acfcb9c8328eb96f3ef8a" target="_top" xlink:title="zrtos_cbuffer_node\l__peek">
<polygon fill="#ffffff" stroke="#000000" points="155,-.5 155,-30.5 255,-30.5 255,-.5 155,-.5"/>
<text text-anchor="start" x="163" y="-18.5" font-family="Helvetica,sans-Serif" font-size="10.00" fill="#000000">zrtos_cbuffer_node</text>
<text text-anchor="middle" x="205" y="-7.5" font-family="Helvetica,sans-Serif" font-size="10.00" fill="#000000">__peek</text>
</a>
</g>
</g>
<!-- Node247&#45;&gt;Node249 -->
<g id="edge2" class="edge">
<title>Node247&#45;&gt;Node249</title>
<path fill="none" stroke="#191970" d="M105.4091,-29.8672C118.0349,-28.0458 131.6055,-26.0881 144.5419,-24.2218"/>
<polygon fill="#191970" stroke="#191970" points="145.3528,-27.6412 154.7505,-22.7491 144.3532,-20.7129 145.3528,-27.6412"/>
</g>
<!-- Node250 -->
<g id="node4" class="node">
<title>Node250</title>
<g id="a_node4"><a xlink:href="cbuffer_8h.html#aa70b33844c0b38a531615564dc35840e" target="_top" xlink:title="zrtos_cbuffer_node\l__is_empty">
<polygon fill="#ffffff" stroke="#000000" points="305,-.5 305,-30.5 405,-30.5 405,-.5 305,-.5"/>
<text text-anchor="start" x="313" y="-18.5" font-family="Helvetica,sans-Serif" font-size="10.00" fill="#000000">zrtos_cbuffer_node</text>
<text text-anchor="middle" x="355" y="-7.5" font-family="Helvetica,sans-Serif" font-size="10.00" fill="#000000">__is_empty</text>
</a>
</g>
</g>
<!-- Node249&#45;&gt;Node250 -->
<g id="edge3" class="edge">
<title>Node249&#45;&gt;Node250</title>
<path fill="none" stroke="#191970" d="M255.3651,-15.5C267.9236,-15.5 281.5187,-15.5 294.5099,-15.5"/>
<polygon fill="#191970" stroke="#191970" points="294.7679,-19.0001 304.7678,-15.5 294.7678,-12.0001 294.7679,-19.0001"/>
</g>
</g>
</svg>
