<?xml version="1.0" encoding="UTF-8" standalone="no"?>
<!DOCTYPE svg PUBLIC "-//W3C//DTD SVG 1.1//EN"
 "http://www.w3.org/Graphics/SVG/1.1/DTD/svg11.dtd">
<!-- Generated by graphviz version 10.0.1 (20240210.2158)
 -->
<!-- Title: zrtos_cbuffer__rollback_write_transaction Pages: 1 -->
<svg width="747pt" height="168pt"
 viewBox="0.00 0.00 746.50 168.00" xmlns="http://www.w3.org/2000/svg" xmlns:xlink="http://www.w3.org/1999/xlink">
<g id="graph0" class="graph" transform="scale(1 1) rotate(0) translate(4 164)">
<title>zrtos_cbuffer__rollback_write_transaction</title>
<!-- Node1 -->
<g id="Node000001" class="node">
<title>Node1</title>
<g id="a_Node000001"><a xlink:title=" ">
<polygon fill="#999999" stroke="#666666" points="115.75,-106 0,-106 0,-74 115.75,-74 115.75,-106"/>
<text text-anchor="start" x="8" y="-92.5" font-family="Helvetica,sans-Serif" font-size="10.00">zrtos_cbuffer__rollback</text>
<text text-anchor="middle" x="57.88" y="-80.5" font-family="Helvetica,sans-Serif" font-size="10.00">_write_transaction</text>
</a>
</g>
</g>
<!-- Node2 -->
<g id="Node000002" class="node">
<title>Node2</title>
<g id="a_Node000002"><a xlink:href="cbuffer_8h.html#a0866b42eeda6c649a07a451372bad55a" target="_top" xlink:title=" ">
<polygon fill="white" stroke="#666666" points="248.38,-160 152.88,-160 152.88,-128 248.38,-128 248.38,-160"/>
<text text-anchor="start" x="160.88" y="-146.5" font-family="Helvetica,sans-Serif" font-size="10.00">zrtos_cbuffer__get</text>
<text text-anchor="middle" x="200.62" y="-134.5" font-family="Helvetica,sans-Serif" font-size="10.00">_last_node</text>
</a>
</g>
</g>
<!-- Node1&#45;&gt;Node2 -->
<g id="edge1_Node000001_Node000002" class="edge">
<title>Node1&#45;&gt;Node2</title>
<g id="a_edge1_Node000001_Node000002"><a xlink:title=" ">
<path fill="none" stroke="#63b8ff" d="M101.87,-106.5C115.92,-111.89 131.7,-117.94 146.41,-123.58"/>
<polygon fill="#63b8ff" stroke="#63b8ff" points="144.89,-126.75 155.48,-127.06 147.4,-120.21 144.89,-126.75"/>
</a>
</g>
</g>
<!-- Node4 -->
<g id="Node000004" class="node">
<title>Node4</title>
<g id="a_Node000004"><a xlink:href="cbuffer_8h.html#afc85ab6d8226b4a1b93d11c2ba1203f6" target="_top" xlink:title=" ">
<polygon fill="white" stroke="#666666" points="249.5,-106 151.75,-106 151.75,-74 249.5,-74 249.5,-106"/>
<text text-anchor="start" x="159.75" y="-92.5" font-family="Helvetica,sans-Serif" font-size="10.00">zrtos_cbuffer_node</text>
<text text-anchor="middle" x="200.62" y="-80.5" font-family="Helvetica,sans-Serif" font-size="10.00">__free</text>
</a>
</g>
</g>
<!-- Node1&#45;&gt;Node4 -->
<g id="edge3_Node000001_Node000004" class="edge">
<title>Node1&#45;&gt;Node4</title>
<g id="a_edge3_Node000001_Node000004"><a xlink:title=" ">
<path fill="none" stroke="#63b8ff" d="M116.12,-90C124,-90 132.1,-90 140.02,-90"/>
<polygon fill="#63b8ff" stroke="#63b8ff" points="139.92,-93.5 149.92,-90 139.92,-86.5 139.92,-93.5"/>
</a>
</g>
</g>
<!-- Node10 -->
<g id="Node000010" class="node">
<title>Node10</title>
<g id="a_Node000010"><a xlink:href="cbuffer_8h.html#a8228f34a6acad5cce8802e61ec87c9ca" target="_top" xlink:title=" ">
<polygon fill="white" stroke="#666666" points="249.5,-48 151.75,-48 151.75,-16 249.5,-16 249.5,-48"/>
<text text-anchor="start" x="159.75" y="-34.5" font-family="Helvetica,sans-Serif" font-size="10.00">zrtos_cbuffer_node</text>
<text text-anchor="middle" x="200.62" y="-22.5" font-family="Helvetica,sans-Serif" font-size="10.00">__get_next_node</text>
</a>
</g>
</g>
<!-- Node1&#45;&gt;Node10 -->
<g id="edge10_Node000001_Node000010" class="edge">
<title>Node1&#45;&gt;Node10</title>
<g id="a_edge10_Node000001_Node000010"><a xlink:title=" ">
<path fill="none" stroke="#63b8ff" d="M98.83,-73.53C114.57,-67.05 132.81,-59.53 149.42,-52.69"/>
<polygon fill="#63b8ff" stroke="#63b8ff" points="150.74,-55.93 158.66,-48.88 148.08,-49.46 150.74,-55.93"/>
</a>
</g>
</g>
<!-- Node3 -->
<g id="Node000003" class="node">
<title>Node3</title>
<g id="a_Node000003"><a xlink:href="list_8h.html#aa2f26b2b6fd722b708eb7e25cc264a90" target="_top" xlink:title=" ">
<polygon fill="white" stroke="#666666" points="412.5,-158 285.5,-158 285.5,-138 412.5,-138 412.5,-158"/>
<text text-anchor="middle" x="349" y="-144.5" font-family="Helvetica,sans-Serif" font-size="10.00">zrtos_list__get_last_node</text>
</a>
</g>
</g>
<!-- Node2&#45;&gt;Node3 -->
<g id="edge2_Node000002_Node000003" class="edge">
<title>Node2&#45;&gt;Node3</title>
<g id="a_edge2_Node000002_Node000003"><a xlink:title=" ">
<path fill="none" stroke="#63b8ff" d="M248.74,-145.29C256.82,-145.51 265.39,-145.74 273.97,-145.98"/>
<polygon fill="#63b8ff" stroke="#63b8ff" points="273.61,-149.47 283.7,-146.24 273.8,-142.47 273.61,-149.47"/>
</a>
</g>
</g>
<!-- Node5 -->
<g id="Node000005" class="node">
<title>Node5</title>
<g id="a_Node000005"><a xlink:href="list_8h.html#a2b11d9c6f775a209430f16b719a19617" target="_top" xlink:title=" ">
<polygon fill="white" stroke="#666666" points="395.25,-120 302.75,-120 302.75,-100 395.25,-100 395.25,-120"/>
<text text-anchor="middle" x="349" y="-106.5" font-family="Helvetica,sans-Serif" font-size="10.00">zrtos_list__delete</text>
</a>
</g>
</g>
<!-- Node4&#45;&gt;Node5 -->
<g id="edge4_Node000004_Node000005" class="edge">
<title>Node4&#45;&gt;Node5</title>
<g id="a_edge4_Node000004_Node000005"><a xlink:title=" ">
<path fill="none" stroke="#63b8ff" d="M249.96,-96.6C263.23,-98.42 277.74,-100.4 291.43,-102.27"/>
<polygon fill="#63b8ff" stroke="#63b8ff" points="290.81,-105.72 301.19,-103.6 291.76,-98.78 290.81,-105.72"/>
</a>
</g>
</g>
<!-- Node8 -->
<g id="Node000008" class="node">
<title>Node8</title>
<g id="a_Node000008"><a xlink:href="malloc__limit_8h.html#ad9dc03f9dd447b3ffb64b0ec3873f61f" target="_top" xlink:title=" ">
<polygon fill="white" stroke="#666666" points="396.38,-82 301.62,-82 301.62,-50 396.38,-50 396.38,-82"/>
<text text-anchor="start" x="309.62" y="-68.5" font-family="Helvetica,sans-Serif" font-size="10.00">zrtos_malloc_limit</text>
<text text-anchor="middle" x="349" y="-56.5" font-family="Helvetica,sans-Serif" font-size="10.00">__free</text>
</a>
</g>
</g>
<!-- Node4&#45;&gt;Node8 -->
<g id="edge8_Node000004_Node000008" class="edge">
<title>Node4&#45;&gt;Node8</title>
<g id="a_edge8_Node000004_Node000008"><a xlink:title=" ">
<path fill="none" stroke="#63b8ff" d="M249.96,-82.07C262.84,-79.96 276.89,-77.66 290.22,-75.47"/>
<polygon fill="#63b8ff" stroke="#63b8ff" points="290.41,-78.99 299.72,-73.92 289.28,-72.08 290.41,-78.99"/>
</a>
</g>
</g>
<!-- Node6 -->
<g id="Node000006" class="node">
<title>Node6</title>
<g id="a_Node000006"><a xlink:href="list_8h.html#a0039f0f08299038ab1a71e271a43a086" target="_top" xlink:title=" ">
<polygon fill="white" stroke="#666666" points="738.5,-136 611.5,-136 611.5,-116 738.5,-116 738.5,-136"/>
<text text-anchor="middle" x="675" y="-122.5" font-family="Helvetica,sans-Serif" font-size="10.00">zrtos_list__get_first_node</text>
</a>
</g>
</g>
<!-- Node5&#45;&gt;Node6 -->
<g id="edge5_Node000005_Node000006" class="edge">
<title>Node5&#45;&gt;Node6</title>
<g id="a_edge5_Node000005_Node000006"><a xlink:title=" ">
<path fill="none" stroke="#63b8ff" d="M395.42,-118.95C412.05,-121.81 431.06,-124.59 448.5,-126 498.83,-130.06 555.68,-130.03 599.71,-129"/>
<polygon fill="#63b8ff" stroke="#63b8ff" points="599.78,-132.5 609.68,-128.74 599.59,-125.5 599.78,-132.5"/>
</a>
</g>
</g>
<!-- Node7 -->
<g id="Node000007" class="node">
<title>Node7</title>
<g id="a_Node000007"><a xlink:href="list_8h.html#a4ecf7568bdda1cd815956c391f29bf1e" target="_top" xlink:title=" ">
<polygon fill="white" stroke="#666666" points="554.12,-117 469.88,-117 469.88,-97 554.12,-97 554.12,-117"/>
<text text-anchor="middle" x="512" y="-103.5" font-family="Helvetica,sans-Serif" font-size="10.00">zrtos_list__shift</text>
</a>
</g>
</g>
<!-- Node5&#45;&gt;Node7 -->
<g id="edge6_Node000005_Node000007" class="edge">
<title>Node5&#45;&gt;Node7</title>
<g id="a_edge6_Node000005_Node000007"><a xlink:title=" ">
<path fill="none" stroke="#63b8ff" d="M395.71,-109.15C415.22,-108.78 438.12,-108.36 458.35,-107.98"/>
<polygon fill="#63b8ff" stroke="#63b8ff" points="458.14,-111.49 468.07,-107.8 458.01,-104.49 458.14,-111.49"/>
</a>
</g>
</g>
<!-- Node7&#45;&gt;Node6 -->
<g id="edge7_Node000007_Node000006" class="edge">
<title>Node7&#45;&gt;Node6</title>
<g id="a_edge7_Node000007_Node000006"><a xlink:title=" ">
<path fill="none" stroke="#63b8ff" d="M554.46,-111.89C568.33,-113.53 584.24,-115.41 599.83,-117.25"/>
<polygon fill="#63b8ff" stroke="#63b8ff" points="599.25,-120.7 609.59,-118.4 600.07,-113.75 599.25,-120.7"/>
</a>
</g>
</g>
<!-- Node9 -->
<g id="Node000009" class="node">
<title>Node9</title>
<g id="a_Node000009"><a xlink:href="malloc_8h.html#aeba49dabb0a21ae4e02fa137e195bb1d" target="_top" xlink:title=" ">
<polygon fill="white" stroke="#666666" points="575.5,-76 448.5,-76 448.5,-56 575.5,-56 575.5,-76"/>
<text text-anchor="middle" x="512" y="-62.5" font-family="Helvetica,sans-Serif" font-size="10.00">zrtos_malloc__get_length</text>
</a>
</g>
</g>
<!-- Node8&#45;&gt;Node9 -->
<g id="edge9_Node000008_Node000009" class="edge">
<title>Node8&#45;&gt;Node9</title>
<g id="a_edge9_Node000008_Node000009"><a xlink:title=" ">
<path fill="none" stroke="#63b8ff" d="M396.57,-66C409.12,-66 423.02,-66 436.68,-66"/>
<polygon fill="#63b8ff" stroke="#63b8ff" points="436.55,-69.5 446.55,-66 436.55,-62.5 436.55,-69.5"/>
</a>
</g>
</g>
<!-- Node11 -->
<g id="Node000011" class="node">
<title>Node11</title>
<g id="a_Node000011"><a xlink:href="list_8h.html#a870446d2221a7ce60ce4b2d336f2a577" target="_top" xlink:title=" ">
<polygon fill="white" stroke="#666666" points="402,-32 296,-32 296,0 402,0 402,-32"/>
<text text-anchor="start" x="304" y="-18.5" font-family="Helvetica,sans-Serif" font-size="10.00">zrtos_list_node__get</text>
<text text-anchor="middle" x="349" y="-6.5" font-family="Helvetica,sans-Serif" font-size="10.00">_next_node</text>
</a>
</g>
</g>
<!-- Node10&#45;&gt;Node11 -->
<g id="edge11_Node000010_Node000011" class="edge">
<title>Node10&#45;&gt;Node11</title>
<g id="a_edge11_Node000010_Node000011"><a xlink:title=" ">
<path fill="none" stroke="#63b8ff" d="M249.96,-26.72C260.95,-25.52 272.79,-24.22 284.31,-22.96"/>
<polygon fill="#63b8ff" stroke="#63b8ff" points="284.62,-26.45 294.18,-21.88 283.86,-19.49 284.62,-26.45"/>
</a>
</g>
</g>
</g>
</svg>
