<?xml version="1.0" encoding="UTF-8" standalone="no"?>
<!DOCTYPE svg PUBLIC "-//W3C//DTD SVG 1.1//EN"
 "http://www.w3.org/Graphics/SVG/1.1/DTD/svg11.dtd">
<!-- Generated by graphviz version 2.40.1 (20161225.0304)
 -->
<!-- Title: cbuffer.h Pages: 1 -->
<svg width="432pt" height="252pt"
 viewBox="0.00 0.00 432.00 252.00" xmlns="http://www.w3.org/2000/svg" xmlns:xlink="http://www.w3.org/1999/xlink">
<g id="graph0" class="graph" transform="scale(1 1) rotate(0) translate(4 248)">
<title>cbuffer.h</title>
<polygon fill="#ffffff" stroke="transparent" points="-4,4 -4,-248 428,-248 428,4 -4,4"/>
<!-- Node0 -->
<g id="node1" class="node">
<title>Node0</title>
<polygon fill="#bfbfbf" stroke="#000000" points="146.5,-224.5 146.5,-243.5 201.5,-243.5 201.5,-224.5 146.5,-224.5"/>
<text text-anchor="middle" x="174" y="-231.5" font-family="Helvetica,sans-Serif" font-size="10.00" fill="#000000">cbuffer.h</text>
</g>
<!-- Node1 -->
<g id="node2" class="node">
<title>Node1</title>
<polygon fill="#ffffff" stroke="#bfbfbf" points="18,-168.5 18,-187.5 70,-187.5 70,-168.5 18,-168.5"/>
<text text-anchor="middle" x="44" y="-175.5" font-family="Helvetica,sans-Serif" font-size="10.00" fill="#000000">stdarg.h</text>
</g>
<!-- Node0&#45;&gt;Node1 -->
<g id="edge1" class="edge">
<title>Node0&#45;&gt;Node1</title>
<path fill="none" stroke="#191970" d="M151.6522,-224.3733C130.5967,-215.3032 98.8505,-201.6279 75.2825,-191.4755"/>
<polygon fill="#191970" stroke="#191970" points="76.625,-188.243 66.0562,-187.5011 73.8556,-194.6719 76.625,-188.243"/>
</g>
<!-- Node2 -->
<g id="node3" class="node">
<title>Node2</title>
<g id="a_node3"><a xlink:href="types_8h.html" target="_top" xlink:title="zrtos/types.h">
<polygon fill="#ffffff" stroke="#000000" points="193,-56.5 193,-75.5 267,-75.5 267,-56.5 193,-56.5"/>
<text text-anchor="middle" x="230" y="-63.5" font-family="Helvetica,sans-Serif" font-size="10.00" fill="#000000">zrtos/types.h</text>
</a>
</g>
</g>
<!-- Node0&#45;&gt;Node2 -->
<g id="edge2" class="edge">
<title>Node0&#45;&gt;Node2</title>
<path fill="none" stroke="#191970" d="M173.8429,-224.352C173.8437,-203.0963 175.7642,-151.0203 193,-112 197.7209,-101.3124 205.5744,-91.0215 212.8345,-82.8934"/>
<polygon fill="#191970" stroke="#191970" points="215.4437,-85.228 219.7587,-75.5516 210.3512,-80.4251 215.4437,-85.228"/>
</g>
<!-- Node8 -->
<g id="node9" class="node">
<title>Node8</title>
<g id="a_node9"><a xlink:href="cast_8h.html" target="_top" xlink:title="zrtos/cast.h">
<polygon fill="#ffffff" stroke="#000000" points="356,-.5 356,-19.5 424,-19.5 424,-.5 356,-.5"/>
<text text-anchor="middle" x="390" y="-7.5" font-family="Helvetica,sans-Serif" font-size="10.00" fill="#000000">zrtos/cast.h</text>
</a>
</g>
</g>
<!-- Node0&#45;&gt;Node8 -->
<g id="edge22" class="edge">
<title>Node0&#45;&gt;Node8</title>
<path fill="none" stroke="#191970" d="M201.7907,-231.3721C250.732,-226.149 349.2796,-212.7729 372,-188 412.3353,-144.0211 402.2664,-65.7981 394.7307,-29.5009"/>
<polygon fill="#191970" stroke="#191970" points="398.1297,-28.662 392.532,-19.6666 391.2983,-30.1894 398.1297,-28.662"/>
</g>
<!-- Node9 -->
<g id="node10" class="node">
<title>Node9</title>
<g id="a_node10"><a xlink:href="error_8h.html" target="_top" xlink:title="zrtos/error.h">
<polygon fill="#ffffff" stroke="#000000" points="36.5,-112.5 36.5,-131.5 105.5,-131.5 105.5,-112.5 36.5,-112.5"/>
<text text-anchor="middle" x="71" y="-119.5" font-family="Helvetica,sans-Serif" font-size="10.00" fill="#000000">zrtos/error.h</text>
</a>
</g>
</g>
<!-- Node0&#45;&gt;Node9 -->
<g id="edge9" class="edge">
<title>Node0&#45;&gt;Node9</title>
<path fill="none" stroke="#191970" d="M161.8531,-224.3664C150.9241,-215.4467 134.6826,-201.5534 122,-188 107.8515,-172.88 93.5962,-154.0581 83.768,-140.3879"/>
<polygon fill="#191970" stroke="#191970" points="86.3621,-137.9946 77.727,-131.8557 80.6491,-142.0396 86.3621,-137.9946"/>
</g>
<!-- Node10 -->
<g id="node11" class="node">
<title>Node10</title>
<g id="a_node11"><a xlink:href="assert_8h.html" target="_top" xlink:title="zrtos/assert.h">
<polygon fill="#ffffff" stroke="#000000" points="97.5,-56.5 97.5,-75.5 174.5,-75.5 174.5,-56.5 97.5,-56.5"/>
<text text-anchor="middle" x="136" y="-63.5" font-family="Helvetica,sans-Serif" font-size="10.00" fill="#000000">zrtos/assert.h</text>
</a>
</g>
</g>
<!-- Node0&#45;&gt;Node10 -->
<g id="edge21" class="edge">
<title>Node0&#45;&gt;Node10</title>
<path fill="none" stroke="#191970" d="M170.7053,-224.21C167.6649,-214.952 163.1567,-200.6342 160,-188 151.0559,-152.2027 143.3561,-109.8192 139.2264,-85.6036"/>
<polygon fill="#191970" stroke="#191970" points="142.6484,-84.847 137.5421,-75.5639 135.7449,-86.0051 142.6484,-84.847"/>
</g>
<!-- Node11 -->
<g id="node12" class="node">
<title>Node11</title>
<g id="a_node12"><a xlink:href="list_8h.html" target="_top" xlink:title="zrtos/list.h">
<polygon fill="#ffffff" stroke="#000000" points="202,-112.5 202,-131.5 264,-131.5 264,-112.5 202,-112.5"/>
<text text-anchor="middle" x="233" y="-119.5" font-family="Helvetica,sans-Serif" font-size="10.00" fill="#000000">zrtos/list.h</text>
</a>
</g>
</g>
<!-- Node0&#45;&gt;Node11 -->
<g id="edge13" class="edge">
<title>Node0&#45;&gt;Node11</title>
<path fill="none" stroke="#191970" d="M179.0303,-224.4509C188.8273,-205.8533 210.6159,-164.4919 223.309,-140.3964"/>
<polygon fill="#191970" stroke="#191970" points="226.4183,-142.0036 227.9824,-131.5249 220.225,-138.7411 226.4183,-142.0036"/>
</g>
<!-- Node12 -->
<g id="node13" class="node">
<title>Node12</title>
<g id="a_node13"><a xlink:href="malloc__limit_8h.html" target="_top" xlink:title="zrtos/malloc_limit.h">
<polygon fill="#ffffff" stroke="#000000" points="261.5,-168.5 261.5,-187.5 362.5,-187.5 362.5,-168.5 261.5,-168.5"/>
<text text-anchor="middle" x="312" y="-175.5" font-family="Helvetica,sans-Serif" font-size="10.00" fill="#000000">zrtos/malloc_limit.h</text>
</a>
</g>
</g>
<!-- Node0&#45;&gt;Node12 -->
<g id="edge15" class="edge">
<title>Node0&#45;&gt;Node12</title>
<path fill="none" stroke="#191970" d="M197.723,-224.3733C220.1737,-215.2629 254.0739,-201.5062 279.1255,-191.3404"/>
<polygon fill="#191970" stroke="#191970" points="280.6365,-194.5045 288.5865,-187.5011 278.0043,-188.0182 280.6365,-194.5045"/>
</g>
<!-- Node3 -->
<g id="node4" class="node">
<title>Node3</title>
<polygon fill="#ffffff" stroke="#bfbfbf" points="0,-.5 0,-19.5 56,-19.5 56,-.5 0,-.5"/>
<text text-anchor="middle" x="28" y="-7.5" font-family="Helvetica,sans-Serif" font-size="10.00" fill="#000000">stdbool.h</text>
</g>
<!-- Node2&#45;&gt;Node3 -->
<g id="edge3" class="edge">
<title>Node2&#45;&gt;Node3</title>
<path fill="none" stroke="#191970" d="M195.275,-56.3733C159.2901,-46.3973 103.2097,-30.8502 66.0448,-20.5471"/>
<polygon fill="#191970" stroke="#191970" points="66.668,-17.0879 56.0964,-17.7891 64.7979,-23.8335 66.668,-17.0879"/>
</g>
<!-- Node4 -->
<g id="node5" class="node">
<title>Node4</title>
<polygon fill="#ffffff" stroke="#bfbfbf" points="218,-.5 218,-19.5 270,-19.5 270,-.5 218,-.5"/>
<text text-anchor="middle" x="244" y="-7.5" font-family="Helvetica,sans-Serif" font-size="10.00" fill="#000000">stddef.h</text>
</g>
<!-- Node2&#45;&gt;Node4 -->
<g id="edge4" class="edge">
<title>Node2&#45;&gt;Node4</title>
<path fill="none" stroke="#191970" d="M232.4386,-56.2455C234.2855,-48.8579 236.8828,-38.4689 239.1478,-29.4087"/>
<polygon fill="#191970" stroke="#191970" points="242.5594,-30.193 241.5893,-19.6427 235.7684,-28.4952 242.5594,-30.193"/>
</g>
<!-- Node5 -->
<g id="node6" class="node">
<title>Node5</title>
<polygon fill="#ffffff" stroke="#bfbfbf" points="288.5,-.5 288.5,-19.5 337.5,-19.5 337.5,-.5 288.5,-.5"/>
<text text-anchor="middle" x="313" y="-7.5" font-family="Helvetica,sans-Serif" font-size="10.00" fill="#000000">stdint.h</text>
</g>
<!-- Node2&#45;&gt;Node5 -->
<g id="edge5" class="edge">
<title>Node2&#45;&gt;Node5</title>
<path fill="none" stroke="#191970" d="M244.4575,-56.2455C257.0732,-47.7337 275.5944,-35.2375 290.2045,-25.3801"/>
<polygon fill="#191970" stroke="#191970" points="292.3761,-28.1371 298.7082,-19.6427 288.4609,-22.3343 292.3761,-28.1371"/>
</g>
<!-- Node6 -->
<g id="node7" class="node">
<title>Node6</title>
<polygon fill="#ffffff" stroke="#bfbfbf" points="74,-.5 74,-19.5 122,-19.5 122,-.5 74,-.5"/>
<text text-anchor="middle" x="98" y="-7.5" font-family="Helvetica,sans-Serif" font-size="10.00" fill="#000000">limits.h</text>
</g>
<!-- Node2&#45;&gt;Node6 -->
<g id="edge6" class="edge">
<title>Node2&#45;&gt;Node6</title>
<path fill="none" stroke="#191970" d="M207.3084,-56.3733C185.9289,-47.3032 153.6943,-33.6279 129.7638,-23.4755"/>
<polygon fill="#191970" stroke="#191970" points="130.9683,-20.1846 120.3955,-19.5011 128.2344,-26.6287 130.9683,-20.1846"/>
</g>
<!-- Node7 -->
<g id="node8" class="node">
<title>Node7</title>
<polygon fill="#ffffff" stroke="#bfbfbf" points="140.5,-.5 140.5,-19.5 199.5,-19.5 199.5,-.5 140.5,-.5"/>
<text text-anchor="middle" x="170" y="-7.5" font-family="Helvetica,sans-Serif" font-size="10.00" fill="#000000">stdalign.h</text>
</g>
<!-- Node2&#45;&gt;Node7 -->
<g id="edge7" class="edge">
<title>Node2&#45;&gt;Node7</title>
<path fill="none" stroke="#191970" d="M219.5488,-56.2455C210.7731,-48.0549 198.0446,-36.1749 187.686,-26.5069"/>
<polygon fill="#191970" stroke="#191970" points="190.0301,-23.9072 180.3314,-19.6427 185.2539,-29.0246 190.0301,-23.9072"/>
</g>
<!-- Node2&#45;&gt;Node8 -->
<g id="edge8" class="edge">
<title>Node2&#45;&gt;Node8</title>
<path fill="none" stroke="#191970" d="M257.505,-56.3733C283.8802,-47.1419 323.8851,-33.1402 353.0358,-22.9375"/>
<polygon fill="#191970" stroke="#191970" points="354.5716,-26.1082 362.8539,-19.5011 352.2591,-19.5012 354.5716,-26.1082"/>
</g>
<!-- Node9&#45;&gt;Node3 -->
<g id="edge11" class="edge">
<title>Node9&#45;&gt;Node3</title>
<path fill="none" stroke="#191970" d="M67.3338,-112.4509C60.2572,-94.0186 44.5955,-53.2254 35.3112,-29.043"/>
<polygon fill="#191970" stroke="#191970" points="38.5086,-27.606 31.6569,-19.5249 31.9737,-30.115 38.5086,-27.606"/>
</g>
<!-- Node9&#45;&gt;Node6 -->
<g id="edge10" class="edge">
<title>Node9&#45;&gt;Node6</title>
<path fill="none" stroke="#191970" d="M73.302,-112.4509C77.7256,-94.1013 87.4915,-53.5908 93.3306,-29.3693"/>
<polygon fill="#191970" stroke="#191970" points="96.7627,-30.0667 95.7038,-19.5249 89.9576,-28.4261 96.7627,-30.0667"/>
</g>
<!-- Node9&#45;&gt;Node10 -->
<g id="edge12" class="edge">
<title>Node9&#45;&gt;Node10</title>
<path fill="none" stroke="#191970" d="M82.3221,-112.2455C91.9223,-103.9746 105.8892,-91.9416 117.1695,-82.2232"/>
<polygon fill="#191970" stroke="#191970" points="119.516,-84.8214 124.8076,-75.6427 114.947,-79.5182 119.516,-84.8214"/>
</g>
<!-- Node11&#45;&gt;Node2 -->
<g id="edge14" class="edge">
<title>Node11&#45;&gt;Node2</title>
<path fill="none" stroke="#191970" d="M232.4774,-112.2455C232.086,-104.9382 231.5372,-94.6944 231.0556,-85.7046"/>
<polygon fill="#191970" stroke="#191970" points="234.5466,-85.4411 230.5166,-75.6427 227.5566,-85.8156 234.5466,-85.4411"/>
</g>
<!-- Node13 -->
<g id="node14" class="node">
<title>Node13</title>
<g id="a_node14"><a xlink:href="malloc_8h.html" target="_top" xlink:title="zrtos/malloc.h">
<polygon fill="#ffffff" stroke="#000000" points="282,-112.5 282,-131.5 360,-131.5 360,-112.5 282,-112.5"/>
<text text-anchor="middle" x="321" y="-119.5" font-family="Helvetica,sans-Serif" font-size="10.00" fill="#000000">zrtos/malloc.h</text>
</a>
</g>
</g>
<!-- Node12&#45;&gt;Node13 -->
<g id="edge16" class="edge">
<title>Node12&#45;&gt;Node13</title>
<path fill="none" stroke="#191970" d="M313.5677,-168.2455C314.7421,-160.9382 316.3884,-150.6944 317.8332,-141.7046"/>
<polygon fill="#191970" stroke="#191970" points="321.3191,-142.0714 319.4503,-131.6427 314.4078,-140.9606 321.3191,-142.0714"/>
</g>
<!-- Node13&#45;&gt;Node2 -->
<g id="edge18" class="edge">
<title>Node13&#45;&gt;Node2</title>
<path fill="none" stroke="#191970" d="M305.149,-112.2455C291.1868,-103.6534 270.6272,-91.0014 254.5404,-81.1018"/>
<polygon fill="#191970" stroke="#191970" points="256.0203,-77.9029 245.6693,-75.6427 252.3516,-83.8645 256.0203,-77.9029"/>
</g>
<!-- Node13&#45;&gt;Node8 -->
<g id="edge19" class="edge">
<title>Node13&#45;&gt;Node8</title>
<path fill="none" stroke="#191970" d="M334.9412,-112.1803C345.9375,-103.7535 360.8915,-90.6714 370,-76 378.8698,-61.7132 384.0271,-43.2364 386.8757,-29.4677"/>
<polygon fill="#191970" stroke="#191970" points="390.3229,-30.0735 388.692,-19.6049 383.4386,-28.8056 390.3229,-30.0735"/>
</g>
<!-- Node13&#45;&gt;Node10 -->
<g id="edge17" class="edge">
<title>Node13&#45;&gt;Node10</title>
<path fill="none" stroke="#191970" d="M289.1974,-112.3733C258.1683,-102.9807 210.8246,-88.6496 176.9853,-78.4064"/>
<polygon fill="#191970" stroke="#191970" points="177.9728,-75.0485 167.3876,-75.5011 175.9447,-81.7483 177.9728,-75.0485"/>
</g>
<!-- Node14 -->
<g id="node15" class="node">
<title>Node14</title>
<g id="a_node15"><a xlink:href="debug_8h.html" target="_top" xlink:title="zrtos/debug.h">
<polygon fill="#ffffff" stroke="#000000" points="285,-56.5 285,-75.5 361,-75.5 361,-56.5 285,-56.5"/>
<text text-anchor="middle" x="323" y="-63.5" font-family="Helvetica,sans-Serif" font-size="10.00" fill="#000000">zrtos/debug.h</text>
</a>
</g>
</g>
<!-- Node13&#45;&gt;Node14 -->
<g id="edge20" class="edge">
<title>Node13&#45;&gt;Node14</title>
<path fill="none" stroke="#191970" d="M321.3484,-112.2455C321.6093,-104.9382 321.9752,-94.6944 322.2963,-85.7046"/>
<polygon fill="#191970" stroke="#191970" points="325.7964,-85.7613 322.6556,-75.6427 318.8008,-85.5113 325.7964,-85.7613"/>
</g>
</g>
</svg>
