<?xml version="1.0" encoding="UTF-8" standalone="no"?>
<!DOCTYPE svg PUBLIC "-//W3C//DTD SVG 1.1//EN"
 "http://www.w3.org/Graphics/SVG/1.1/DTD/svg11.dtd">
<!-- Generated by graphviz version 10.0.1 (20240210.2158)
 -->
<!-- Title: zrtos_cbuffer__put_ex Pages: 1 -->
<svg width="744pt" height="176pt"
 viewBox="0.00 0.00 743.50 176.00" xmlns="http://www.w3.org/2000/svg" xmlns:xlink="http://www.w3.org/1999/xlink">
<g id="graph0" class="graph" transform="scale(1 1) rotate(0) translate(4 172)">
<title>zrtos_cbuffer__put_ex</title>
<!-- Node1 -->
<g id="Node000001" class="node">
<title>Node1</title>
<g id="a_Node000001"><a xlink:title=" ">
<polygon fill="#999999" stroke="#666666" points="735.5,-96 624.25,-96 624.25,-76 735.5,-76 735.5,-96"/>
<text text-anchor="middle" x="679.88" y="-82.5" font-family="Helvetica,sans-Serif" font-size="10.00">zrtos_cbuffer__put_ex</text>
</a>
</g>
</g>
<!-- Node2 -->
<g id="Node000002" class="node">
<title>Node2</title>
<g id="a_Node000002"><a xlink:href="msg__queue_8h.html#ab51eb620b09145d1b05966404c9e0ca4" target="_top" xlink:title=" ">
<polygon fill="white" stroke="#666666" points="580.38,-162 463.12,-162 463.12,-142 580.38,-142 580.38,-162"/>
<text text-anchor="middle" x="521.75" y="-148.5" font-family="Helvetica,sans-Serif" font-size="10.00">zrtos_msg_queue__put</text>
</a>
</g>
</g>
<!-- Node1&#45;&gt;Node2 -->
<g id="edge1_Node000001_Node000002" class="edge">
<title>Node1&#45;&gt;Node2</title>
<g id="a_edge1_Node000001_Node000002"><a xlink:title=" ">
<path fill="none" stroke="#63b8ff" d="M651.67,-101.9C634.01,-111.76 610.26,-124.2 588.25,-133 580.33,-136.17 571.69,-139.05 563.35,-141.57"/>
<polygon fill="#63b8ff" stroke="#63b8ff" points="653.02,-105.15 659.99,-97.18 649.57,-99.07 653.02,-105.15"/>
</a>
</g>
</g>
<!-- Node4 -->
<g id="Node000004" class="node">
<title>Node4</title>
<g id="a_Node000004"><a xlink:href="spi_2spi_8h.html#ac672df98eac652a9d1925ba73229c475" target="_top" xlink:title=" ">
<polygon fill="white" stroke="#666666" points="576.25,-124 467.25,-124 467.25,-92 576.25,-92 576.25,-124"/>
<text text-anchor="start" x="475.25" y="-110.5" font-family="Helvetica,sans-Serif" font-size="10.00">zrtos_vfs_module_spi</text>
<text text-anchor="middle" x="521.75" y="-98.5" font-family="Helvetica,sans-Serif" font-size="10.00">__on_write</text>
</a>
</g>
</g>
<!-- Node1&#45;&gt;Node4 -->
<g id="edge3_Node000001_Node000004" class="edge">
<title>Node1&#45;&gt;Node4</title>
<g id="a_edge3_Node000001_Node000004"><a xlink:title=" ">
<path fill="none" stroke="#63b8ff" d="M612.48,-95.36C600.47,-97.05 588.1,-98.79 576.51,-100.42"/>
<polygon fill="#63b8ff" stroke="#63b8ff" points="612.92,-98.83 622.33,-93.97 611.94,-91.9 612.92,-98.83"/>
</a>
</g>
</g>
<!-- Node5 -->
<g id="Node000005" class="node">
<title>Node5</title>
<g id="a_Node000005"><a xlink:href="spi_2spi_8h.html#aa5f8db1eb6af6477ba6dcd947b3903f7" target="_top" xlink:title=" ">
<polygon fill="white" stroke="#666666" points="588.25,-74 455.25,-74 455.25,-54 588.25,-54 588.25,-74"/>
<text text-anchor="middle" x="521.75" y="-60.5" font-family="Helvetica,sans-Serif" font-size="10.00">zrtos_vfs_module_spi__put</text>
</a>
</g>
</g>
<!-- Node1&#45;&gt;Node5 -->
<g id="edge4_Node000001_Node000005" class="edge">
<title>Node1&#45;&gt;Node5</title>
<g id="a_edge4_Node000001_Node000005"><a xlink:title=" ">
<path fill="none" stroke="#63b8ff" d="M612.68,-76.67C604.68,-75.55 596.52,-74.4 588.53,-73.27"/>
<polygon fill="#63b8ff" stroke="#63b8ff" points="611.94,-80.1 622.33,-78.03 612.92,-73.17 611.94,-80.1"/>
</a>
</g>
</g>
<!-- Node10 -->
<g id="Node000010" class="node">
<title>Node10</title>
<g id="a_Node000010"><a xlink:href="uart_2uart_8h.html#a9e735d9796aaa30e4a5fce9c763adf92" target="_top" xlink:title=" ">
<polygon fill="white" stroke="#666666" points="578.12,-35 465.38,-35 465.38,-3 578.12,-3 578.12,-35"/>
<text text-anchor="start" x="473.38" y="-21.5" font-family="Helvetica,sans-Serif" font-size="10.00">zrtos_vfs_module_uart</text>
<text text-anchor="middle" x="521.75" y="-9.5" font-family="Helvetica,sans-Serif" font-size="10.00">__on_write</text>
</a>
</g>
</g>
<!-- Node1&#45;&gt;Node10 -->
<g id="edge10_Node000001_Node000010" class="edge">
<title>Node1&#45;&gt;Node10</title>
<g id="a_edge10_Node000001_Node000010"><a xlink:title=" ">
<path fill="none" stroke="#63b8ff" d="M646.56,-70.93C629.33,-63.02 607.73,-53.27 588.25,-45 580.82,-41.85 572.86,-38.59 565.15,-35.49"/>
<polygon fill="#63b8ff" stroke="#63b8ff" points="644.74,-73.95 655.28,-74.96 647.67,-67.59 644.74,-73.95"/>
</a>
</g>
</g>
<!-- Node3 -->
<g id="Node000003" class="node">
<title>Node3</title>
<g id="a_Node000003"><a xlink:href="rtu_8h.html#ac0ca767b3e1e9a8b1f290448a122e095" target="_top" xlink:title=" ">
<polygon fill="white" stroke="#666666" points="419.25,-168 288.5,-168 288.5,-136 419.25,-136 419.25,-168"/>
<text text-anchor="start" x="296.5" y="-154.5" font-family="Helvetica,sans-Serif" font-size="10.00">zrtos_vfs_module_modbus</text>
<text text-anchor="middle" x="353.88" y="-142.5" font-family="Helvetica,sans-Serif" font-size="10.00">_rtu__on_write</text>
</a>
</g>
</g>
<!-- Node2&#45;&gt;Node3 -->
<g id="edge2_Node000002_Node000003" class="edge">
<title>Node2&#45;&gt;Node3</title>
<g id="a_edge2_Node000002_Node000003"><a xlink:title=" ">
<path fill="none" stroke="#63b8ff" d="M451.46,-152C440.92,-152 430.09,-152 419.66,-152"/>
<polygon fill="#63b8ff" stroke="#63b8ff" points="451.22,-155.5 461.22,-152 451.22,-148.5 451.22,-155.5"/>
</a>
</g>
</g>
<!-- Node6 -->
<g id="Node000006" class="node">
<title>Node6</title>
<g id="a_Node000006"><a xlink:href="spi_2spi_8h.html#af1f334d432ae34c03edb2562e8d23969" target="_top" xlink:title=" ">
<polygon fill="white" stroke="#666666" points="408.38,-82 299.38,-82 299.38,-50 408.38,-50 408.38,-82"/>
<text text-anchor="start" x="307.38" y="-68.5" font-family="Helvetica,sans-Serif" font-size="10.00">zrtos_vfs_module_spi</text>
<text text-anchor="middle" x="353.88" y="-56.5" font-family="Helvetica,sans-Serif" font-size="10.00">__transfer</text>
</a>
</g>
</g>
<!-- Node5&#45;&gt;Node6 -->
<g id="edge5_Node000005_Node000006" class="edge">
<title>Node5&#45;&gt;Node6</title>
<g id="a_edge5_Node000005_Node000006"><a xlink:title=" ">
<path fill="none" stroke="#63b8ff" d="M443.89,-64.93C432.02,-65.07 419.98,-65.22 408.75,-65.35"/>
<polygon fill="#63b8ff" stroke="#63b8ff" points="443.72,-68.43 453.68,-64.81 443.64,-61.43 443.72,-68.43"/>
</a>
</g>
</g>
<!-- Node7 -->
<g id="Node000007" class="node">
<title>Node7</title>
<g id="a_Node000007"><a xlink:href="avr_2spi_2spi_8h.html#a3a0f3b324bd986778ccde00670dbabc9" target="_top" xlink:title=" ">
<polygon fill="white" stroke="#666666" points="252.5,-82 144.25,-82 144.25,-50 252.5,-50 252.5,-82"/>
<text text-anchor="start" x="152.25" y="-68.5" font-family="Helvetica,sans-Serif" font-size="10.00">zrtos_vfs_module_avr</text>
<text text-anchor="middle" x="198.38" y="-56.5" font-family="Helvetica,sans-Serif" font-size="10.00">_spi__on_interrupt</text>
</a>
</g>
</g>
<!-- Node6&#45;&gt;Node7 -->
<g id="edge6_Node000006_Node000007" class="edge">
<title>Node6&#45;&gt;Node7</title>
<g id="a_edge6_Node000006_Node000007"><a xlink:title=" ">
<path fill="none" stroke="#63b8ff" d="M287.7,-66C276.05,-66 264.04,-66 252.77,-66"/>
<polygon fill="#63b8ff" stroke="#63b8ff" points="287.67,-69.5 297.67,-66 287.67,-62.5 287.67,-69.5"/>
</a>
</g>
</g>
<!-- Node8 -->
<g id="Node000008" class="node">
<title>Node8</title>
<g id="a_Node000008"><a xlink:href="avr_2spi_2spi_8h.html#a4635b3cf0625e8697fcf3c6176f116a3" target="_top" xlink:title=" ">
<polygon fill="white" stroke="#666666" points="70,-107 38.25,-107 38.25,-87 70,-87 70,-107"/>
<text text-anchor="middle" x="54.12" y="-93.5" font-family="Helvetica,sans-Serif" font-size="10.00">ISR</text>
</a>
</g>
</g>
<!-- Node7&#45;&gt;Node8 -->
<g id="edge7_Node000007_Node000008" class="edge">
<title>Node7&#45;&gt;Node8</title>
<g id="a_edge7_Node000007_Node000008"><a xlink:title=" ">
<path fill="none" stroke="#63b8ff" d="M133.05,-80.02C109.75,-85.1 85.47,-90.39 70.33,-93.69"/>
<polygon fill="#63b8ff" stroke="#63b8ff" points="133.5,-83.5 142.52,-77.95 132.01,-76.66 133.5,-83.5"/>
</a>
</g>
</g>
<!-- Node9 -->
<g id="Node000009" class="node">
<title>Node9</title>
<g id="a_Node000009"><a xlink:href="avr_2spi_2spi_8h.html#ab6f547c3ce7ee0463c235abe078f9491" target="_top" xlink:title=" ">
<polygon fill="white" stroke="#666666" points="108.25,-51 0,-51 0,-19 108.25,-19 108.25,-51"/>
<text text-anchor="start" x="8" y="-37.5" font-family="Helvetica,sans-Serif" font-size="10.00">zrtos_vfs_module_avr</text>
<text text-anchor="middle" x="54.12" y="-25.5" font-family="Helvetica,sans-Serif" font-size="10.00">_spi__on_write</text>
</a>
</g>
</g>
<!-- Node7&#45;&gt;Node9 -->
<g id="edge8_Node000007_Node000009" class="edge">
<title>Node7&#45;&gt;Node9</title>
<g id="a_edge8_Node000007_Node000009"><a xlink:title=" ">
<path fill="none" stroke="#63b8ff" d="M132.91,-51.95C124.68,-50.16 116.34,-48.34 108.32,-46.59"/>
<polygon fill="#63b8ff" stroke="#63b8ff" points="132.01,-55.34 142.52,-54.05 133.5,-48.5 132.01,-55.34"/>
</a>
</g>
</g>
<!-- Node9&#45;&gt;Node9 -->
<g id="edge9_Node000009_Node000009" class="edge">
<title>Node9&#45;&gt;Node9</title>
<g id="a_edge9_Node000009_Node000009"><a xlink:title=" ">
<path fill="none" stroke="#63b8ff" d="M78.16,-62.71C74.16,-66.48 66.14,-69 54.12,-69 32.15,-69 23.57,-60.58 28.37,-51.44"/>
<polygon fill="#63b8ff" stroke="#63b8ff" points="81.61,-63.35 79.65,-52.94 74.69,-62.3 81.61,-63.35"/>
</a>
</g>
</g>
<!-- Node11 -->
<g id="Node000011" class="node">
<title>Node11</title>
<g id="a_Node000011"><a xlink:href="uart1_8h.html#af04452122e72ab7408b2e207191cdd33" target="_top" xlink:title=" ">
<polygon fill="white" stroke="#666666" points="408,-32 299.75,-32 299.75,0 408,0 408,-32"/>
<text text-anchor="start" x="307.75" y="-18.5" font-family="Helvetica,sans-Serif" font-size="10.00">zrtos_vfs_module_avr</text>
<text text-anchor="middle" x="353.88" y="-6.5" font-family="Helvetica,sans-Serif" font-size="10.00">_uart1__on_write</text>
</a>
</g>
</g>
<!-- Node10&#45;&gt;Node11 -->
<g id="edge11_Node000010_Node000011" class="edge">
<title>Node10&#45;&gt;Node11</title>
<g id="a_edge11_Node000010_Node000011"><a xlink:title=" ">
<path fill="none" stroke="#63b8ff" d="M453.72,-17.79C438.66,-17.52 422.88,-17.23 408.46,-16.97"/>
<polygon fill="#63b8ff" stroke="#63b8ff" points="453.48,-21.28 463.54,-17.97 453.61,-14.28 453.48,-21.28"/>
</a>
</g>
</g>
</g>
</svg>
