<?xml version="1.0" encoding="UTF-8" standalone="no"?>
<!DOCTYPE svg PUBLIC "-//W3C//DTD SVG 1.1//EN"
 "http://www.w3.org/Graphics/SVG/1.1/DTD/svg11.dtd">
<!-- Generated by graphviz version 2.40.1 (20161225.0304)
 -->
<!-- Title: zrtos_cbuffer_node__get_free_space Pages: 1 -->
<svg width="1242pt" height="476pt"
 viewBox="0.00 0.00 1242.00 475.50" xmlns="http://www.w3.org/2000/svg" xmlns:xlink="http://www.w3.org/1999/xlink">
<g id="graph0" class="graph" transform="scale(1 1) rotate(0) translate(4 471.5)">
<title>zrtos_cbuffer_node__get_free_space</title>
<polygon fill="#ffffff" stroke="transparent" points="-4,4 -4,-471.5 1238,-471.5 1238,4 -4,4"/>
<!-- Node533 -->
<g id="node1" class="node">
<title>Node533</title>
<polygon fill="#bfbfbf" stroke="#000000" points="0,-64 0,-94 100,-94 100,-64 0,-64"/>
<text text-anchor="start" x="8" y="-82" font-family="Helvetica,sans-Serif" font-size="10.00" fill="#000000">zrtos_cbuffer_node</text>
<text text-anchor="middle" x="50" y="-71" font-family="Helvetica,sans-Serif" font-size="10.00" fill="#000000">__get_free_space</text>
</g>
<!-- Node534 -->
<g id="node2" class="node">
<title>Node534</title>
<g id="a_node2"><a xlink:href="cbuffer_8h.html#a1846e554cfe5e72cc8df6b60ab5c6d84" target="_top" xlink:title="zrtos_cbuffer_node__put">
<polygon fill="#ffffff" stroke="#000000" points="136,-69.5 136,-88.5 260,-88.5 260,-69.5 136,-69.5"/>
<text text-anchor="middle" x="198" y="-76.5" font-family="Helvetica,sans-Serif" font-size="10.00" fill="#000000">zrtos_cbuffer_node__put</text>
</a>
</g>
</g>
<!-- Node533&#45;&gt;Node534 -->
<g id="edge1" class="edge">
<title>Node533&#45;&gt;Node534</title>
<path fill="none" stroke="#191970" d="M110.2537,-79C118.699,-79 127.3919,-79 135.8713,-79"/>
<polygon fill="#191970" stroke="#191970" points="110.1061,-75.5001 100.106,-79 110.106,-82.5001 110.1061,-75.5001"/>
</g>
<!-- Node535 -->
<g id="node3" class="node">
<title>Node535</title>
<g id="a_node3"><a xlink:href="cbuffer_8h.html#afdb6a6176387d77a0f10e28536ba28f9" target="_top" xlink:title="zrtos_cbuffer__put">
<polygon fill="#ffffff" stroke="#000000" points="296,-69.5 296,-88.5 394,-88.5 394,-69.5 296,-69.5"/>
<text text-anchor="middle" x="345" y="-76.5" font-family="Helvetica,sans-Serif" font-size="10.00" fill="#000000">zrtos_cbuffer__put</text>
</a>
</g>
</g>
<!-- Node534&#45;&gt;Node535 -->
<g id="edge2" class="edge">
<title>Node534&#45;&gt;Node535</title>
<path fill="none" stroke="#191970" d="M270.4431,-79C279.0804,-79 287.7372,-79 295.9362,-79"/>
<polygon fill="#191970" stroke="#191970" points="270.3413,-75.5001 260.3412,-79 270.3412,-82.5001 270.3413,-75.5001"/>
</g>
<!-- Node536 -->
<g id="node4" class="node">
<title>Node536</title>
<g id="a_node4"><a xlink:href="cbuffer_8h.html#a5d269503e04946737598d2062c5bfaf4" target="_top" xlink:title="zrtos_cbuffer__put_ex">
<polygon fill="#ffffff" stroke="#000000" points="442,-225.5 442,-244.5 555,-244.5 555,-225.5 442,-225.5"/>
<text text-anchor="middle" x="498.5" y="-232.5" font-family="Helvetica,sans-Serif" font-size="10.00" fill="#000000">zrtos_cbuffer__put_ex</text>
</a>
</g>
</g>
<!-- Node535&#45;&gt;Node536 -->
<g id="edge3" class="edge">
<title>Node535&#45;&gt;Node536</title>
<path fill="none" stroke="#191970" d="M361.9587,-96.2349C394.2241,-129.0258 463.4928,-199.4227 488.9015,-225.2452"/>
<polygon fill="#191970" stroke="#191970" points="364.1107,-93.4317 354.6021,-88.7585 359.1211,-98.3413 364.1107,-93.4317"/>
</g>
<!-- Node555 -->
<g id="node23" class="node">
<title>Node555</title>
<g id="a_node23"><a xlink:href="cbuffer_8h.html#a77458b7cd6238ed911ffdab0fe328e04" target="_top" xlink:title="zrtos_cbuffer__pipe">
<polygon fill="#ffffff" stroke="#000000" points="447.5,-69.5 447.5,-88.5 549.5,-88.5 549.5,-69.5 447.5,-69.5"/>
<text text-anchor="middle" x="498.5" y="-76.5" font-family="Helvetica,sans-Serif" font-size="10.00" fill="#000000">zrtos_cbuffer__pipe</text>
</a>
</g>
</g>
<!-- Node535&#45;&gt;Node555 -->
<g id="edge24" class="edge">
<title>Node535&#45;&gt;Node555</title>
<path fill="none" stroke="#191970" d="M404.5283,-79C418.6591,-79 433.6112,-79 447.3317,-79"/>
<polygon fill="#191970" stroke="#191970" points="404.4133,-75.5001 394.4133,-79 404.4133,-82.5001 404.4133,-75.5001"/>
</g>
<!-- Node559 -->
<g id="node27" class="node">
<title>Node559</title>
<g id="a_node27"><a xlink:href="avr_2uart_2uart_8h.html#aea39870a896298195c0769800af5b3e2" target="_top" xlink:title="zrtos_vfs_module_avr\l_uart__on_receive_interrupt">
<polygon fill="#ffffff" stroke="#000000" points="430,-8 430,-38 567,-38 567,-8 430,-8"/>
<text text-anchor="start" x="438" y="-26" font-family="Helvetica,sans-Serif" font-size="10.00" fill="#000000">zrtos_vfs_module_avr</text>
<text text-anchor="middle" x="498.5" y="-15" font-family="Helvetica,sans-Serif" font-size="10.00" fill="#000000">_uart__on_receive_interrupt</text>
</a>
</g>
</g>
<!-- Node535&#45;&gt;Node559 -->
<g id="edge30" class="edge">
<title>Node535&#45;&gt;Node559</title>
<path fill="none" stroke="#191970" d="M381.0286,-65.856C403.8362,-57.5353 433.3972,-46.7509 457.1589,-38.0821"/>
<polygon fill="#191970" stroke="#191970" points="379.5824,-62.6579 371.3876,-69.3733 381.9815,-69.234 379.5824,-62.6579"/>
</g>
<!-- Node537 -->
<g id="node5" class="node">
<title>Node537</title>
<g id="a_node5"><a xlink:href="msg__queue_8h.html#a9f24485c49e6b6ba13406e9a5d1f352d" target="_top" xlink:title="zrtos_msg_queue__put\l_length">
<polygon fill="#ffffff" stroke="#000000" points="615,-176 615,-206 733,-206 733,-176 615,-176"/>
<text text-anchor="start" x="623" y="-194" font-family="Helvetica,sans-Serif" font-size="10.00" fill="#000000">zrtos_msg_queue__put</text>
<text text-anchor="middle" x="674" y="-183" font-family="Helvetica,sans-Serif" font-size="10.00" fill="#000000">_length</text>
</a>
</g>
</g>
<!-- Node536&#45;&gt;Node537 -->
<g id="edge4" class="edge">
<title>Node536&#45;&gt;Node537</title>
<path fill="none" stroke="#191970" d="M546.3172,-223.0116C567.4904,-217.7033 592.6064,-211.4064 614.9373,-205.8078"/>
<polygon fill="#191970" stroke="#191970" points="545.4295,-219.6258 536.5809,-225.4527 547.1319,-226.4157 545.4295,-219.6258"/>
</g>
<!-- Node542 -->
<g id="node10" class="node">
<title>Node542</title>
<g id="a_node10"><a xlink:href="msg__queue_8h.html#a14fb4faf04687986da3435e06db5d587" target="_top" xlink:title="zrtos_msg_queue__put_data">
<polygon fill="#ffffff" stroke="#000000" points="603,-225.5 603,-244.5 745,-244.5 745,-225.5 603,-225.5"/>
<text text-anchor="middle" x="674" y="-232.5" font-family="Helvetica,sans-Serif" font-size="10.00" fill="#000000">zrtos_msg_queue__put_data</text>
</a>
</g>
</g>
<!-- Node536&#45;&gt;Node542 -->
<g id="edge9" class="edge">
<title>Node536&#45;&gt;Node542</title>
<path fill="none" stroke="#191970" d="M565.5757,-235C577.7796,-235 590.5492,-235 602.8655,-235"/>
<polygon fill="#191970" stroke="#191970" points="565.4799,-231.5001 555.4798,-235 565.4798,-238.5001 565.4799,-231.5001"/>
</g>
<!-- Node543 -->
<g id="node11" class="node">
<title>Node543</title>
<g id="a_node11"><a xlink:href="msg__queue_8h.html#ab51eb620b09145d1b05966404c9e0ca4" target="_top" xlink:title="zrtos_msg_queue__put">
<polygon fill="#ffffff" stroke="#000000" points="615,-137.5 615,-156.5 733,-156.5 733,-137.5 615,-137.5"/>
<text text-anchor="middle" x="674" y="-144.5" font-family="Helvetica,sans-Serif" font-size="10.00" fill="#000000">zrtos_msg_queue__put</text>
</a>
</g>
</g>
<!-- Node536&#45;&gt;Node543 -->
<g id="edge11" class="edge">
<title>Node536&#45;&gt;Node543</title>
<path fill="none" stroke="#191970" d="M518.4042,-219.0135C538.628,-203.4788 571.3914,-180.2114 603,-166 611.2629,-162.2849 620.4038,-159.1691 629.3001,-156.6059"/>
<polygon fill="#191970" stroke="#191970" points="516.0209,-216.4339 510.2941,-225.3476 520.3296,-221.9507 516.0209,-216.4339"/>
</g>
<!-- Node544 -->
<g id="node12" class="node">
<title>Node544</title>
<g id="a_node12"><a xlink:href="spi_2spi_8h.html#a7f9adeb6314d47b2442b0a17d1cc2f37" target="_top" xlink:title="zrtos_vfs_module_spi\l__transfer_in">
<polygon fill="#ffffff" stroke="#000000" points="618,-434 618,-464 730,-464 730,-434 618,-434"/>
<text text-anchor="start" x="626" y="-452" font-family="Helvetica,sans-Serif" font-size="10.00" fill="#000000">zrtos_vfs_module_spi</text>
<text text-anchor="middle" x="674" y="-441" font-family="Helvetica,sans-Serif" font-size="10.00" fill="#000000">__transfer_in</text>
</a>
</g>
</g>
<!-- Node536&#45;&gt;Node544 -->
<g id="edge12" class="edge">
<title>Node536&#45;&gt;Node544</title>
<path fill="none" stroke="#191970" d="M504.8363,-254.2478C517.7651,-290.8033 550.4806,-370.8282 603,-418 610.1046,-424.3812 618.7296,-429.6073 627.4853,-433.8282"/>
<polygon fill="#191970" stroke="#191970" points="508.1398,-253.0911 501.5861,-244.7665 501.5181,-255.3611 508.1398,-253.0911"/>
</g>
<!-- Node549 -->
<g id="node17" class="node">
<title>Node549</title>
<g id="a_node17"><a xlink:href="spi_2spi_8h.html#ac672df98eac652a9d1925ba73229c475" target="_top" xlink:title="zrtos_vfs_module_spi\l__on_write">
<polygon fill="#ffffff" stroke="#000000" points="962,-388 962,-418 1074,-418 1074,-388 962,-388"/>
<text text-anchor="start" x="970" y="-406" font-family="Helvetica,sans-Serif" font-size="10.00" fill="#000000">zrtos_vfs_module_spi</text>
<text text-anchor="middle" x="1018" y="-395" font-family="Helvetica,sans-Serif" font-size="10.00" fill="#000000">__on_write</text>
</a>
</g>
</g>
<!-- Node536&#45;&gt;Node549 -->
<g id="edge17" class="edge">
<title>Node536&#45;&gt;Node549</title>
<path fill="none" stroke="#191970" d="M519.9776,-250.6201C540.6803,-265.3262 573.1719,-287.4985 603,-304 679.0544,-346.0748 696.8158,-363.3762 781,-385 841.35,-400.5017 912.9619,-403.9787 961.5534,-404.2231"/>
<polygon fill="#191970" stroke="#191970" points="521.7756,-247.6028 511.608,-244.6244 517.6991,-253.2933 521.7756,-247.6028"/>
</g>
<!-- Node550 -->
<g id="node18" class="node">
<title>Node550</title>
<g id="a_node18"><a xlink:href="uart_2uart_8h.html#a9e735d9796aaa30e4a5fce9c763adf92" target="_top" xlink:title="zrtos_vfs_module_uart\l__on_write">
<polygon fill="#ffffff" stroke="#000000" points="616,-264 616,-294 732,-294 732,-264 616,-264"/>
<text text-anchor="start" x="624" y="-282" font-family="Helvetica,sans-Serif" font-size="10.00" fill="#000000">zrtos_vfs_module_uart</text>
<text text-anchor="middle" x="674" y="-271" font-family="Helvetica,sans-Serif" font-size="10.00" fill="#000000">__on_write</text>
</a>
</g>
</g>
<!-- Node536&#45;&gt;Node550 -->
<g id="edge19" class="edge">
<title>Node536&#45;&gt;Node550</title>
<path fill="none" stroke="#191970" d="M546.4502,-247.0217C567.92,-252.4044 593.4229,-258.7983 615.9609,-264.4489"/>
<polygon fill="#191970" stroke="#191970" points="547.1319,-243.5843 536.5809,-244.5473 545.4295,-250.3742 547.1319,-243.5843"/>
</g>
<!-- Node538 -->
<g id="node6" class="node">
<title>Node538</title>
<g id="a_node6"><a xlink:href="rtu_8h.html#a223fc39dfd241ff17884c9f5d03f8e78" target="_top" xlink:title="zrtos_vfs_module_modbus\l_rtu__on_recv_timeout">
<polygon fill="#ffffff" stroke="#000000" points="781,-88 781,-118 915,-118 915,-88 781,-88"/>
<text text-anchor="start" x="789" y="-106" font-family="Helvetica,sans-Serif" font-size="10.00" fill="#000000">zrtos_vfs_module_modbus</text>
<text text-anchor="middle" x="848" y="-95" font-family="Helvetica,sans-Serif" font-size="10.00" fill="#000000">_rtu__on_recv_timeout</text>
</a>
</g>
</g>
<!-- Node537&#45;&gt;Node538 -->
<g id="edge5" class="edge">
<title>Node537&#45;&gt;Node538</title>
<path fill="none" stroke="#191970" d="M732.48,-172.045C736.7849,-170.1547 741.0026,-168.1375 745,-166 762.637,-156.5693 764.1434,-149.7636 781,-139 792.6858,-131.5382 806.0569,-124.1411 817.7649,-118.0111"/>
<polygon fill="#191970" stroke="#191970" points="730.8721,-168.9224 722.9683,-175.9779 733.5469,-175.3912 730.8721,-168.9224"/>
</g>
<!-- Node540 -->
<g id="node8" class="node">
<title>Node540</title>
<g id="a_node8"><a xlink:href="rtu_8h.html#ac0ca767b3e1e9a8b1f290448a122e095" target="_top" xlink:title="zrtos_vfs_module_modbus\l_rtu__on_write">
<polygon fill="#ffffff" stroke="#000000" points="781,-149 781,-179 915,-179 915,-149 781,-149"/>
<text text-anchor="start" x="789" y="-167" font-family="Helvetica,sans-Serif" font-size="10.00" fill="#000000">zrtos_vfs_module_modbus</text>
<text text-anchor="middle" x="848" y="-156" font-family="Helvetica,sans-Serif" font-size="10.00" fill="#000000">_rtu__on_write</text>
</a>
</g>
</g>
<!-- Node537&#45;&gt;Node540 -->
<g id="edge7" class="edge">
<title>Node537&#45;&gt;Node540</title>
<path fill="none" stroke="#191970" d="M743.5673,-180.2051C755.8402,-178.3007 768.5956,-176.3214 780.8019,-174.4273"/>
<polygon fill="#191970" stroke="#191970" points="742.7393,-176.7916 733.3943,-181.7836 743.8127,-183.7088 742.7393,-176.7916"/>
</g>
<!-- Node539 -->
<g id="node7" class="node">
<title>Node539</title>
<g id="a_node7"><a xlink:href="rtu_8h.html#a2376d02a52d42eef634ef843afc499f3" target="_top" xlink:title="zrtos_vfs_module_modbus\l_rtu_inode__init">
<polygon fill="#ffffff" stroke="#000000" points="951,-76 951,-106 1085,-106 1085,-76 951,-76"/>
<text text-anchor="start" x="959" y="-94" font-family="Helvetica,sans-Serif" font-size="10.00" fill="#000000">zrtos_vfs_module_modbus</text>
<text text-anchor="middle" x="1018" y="-83" font-family="Helvetica,sans-Serif" font-size="10.00" fill="#000000">_rtu_inode__init</text>
</a>
</g>
</g>
<!-- Node538&#45;&gt;Node539 -->
<g id="edge6" class="edge">
<title>Node538&#45;&gt;Node539</title>
<path fill="none" stroke="#191970" d="M925.4246,-97.5347C933.8759,-96.9382 942.4279,-96.3345 950.7428,-95.7476"/>
<polygon fill="#191970" stroke="#191970" points="924.9172,-94.0617 915.1885,-98.2573 925.4102,-101.0444 924.9172,-94.0617"/>
</g>
<!-- Node541 -->
<g id="node9" class="node">
<title>Node541</title>
<g id="a_node9"><a xlink:href="rtu_8h.html#a08670f8758ac6130c738816d306eb923" target="_top" xlink:title="zrtos_vfs_module_modbus\l_rtu__on_ioctl">
<polygon fill="#ffffff" stroke="#000000" points="951,-149 951,-179 1085,-179 1085,-149 951,-149"/>
<text text-anchor="start" x="959" y="-167" font-family="Helvetica,sans-Serif" font-size="10.00" fill="#000000">zrtos_vfs_module_modbus</text>
<text text-anchor="middle" x="1018" y="-156" font-family="Helvetica,sans-Serif" font-size="10.00" fill="#000000">_rtu__on_ioctl</text>
</a>
</g>
</g>
<!-- Node540&#45;&gt;Node541 -->
<g id="edge8" class="edge">
<title>Node540&#45;&gt;Node541</title>
<path fill="none" stroke="#191970" d="M925.4246,-164C933.8759,-164 942.4279,-164 950.7428,-164"/>
<polygon fill="#191970" stroke="#191970" points="925.1885,-160.5001 915.1885,-164 925.1885,-167.5001 925.1885,-160.5001"/>
</g>
<!-- Node542&#45;&gt;Node540 -->
<g id="edge10" class="edge">
<title>Node542&#45;&gt;Node540</title>
<path fill="none" stroke="#191970" d="M727.3227,-222.3138C733.4099,-220.1853 739.4248,-217.7555 745,-215 762.9296,-206.1383 763.3886,-197.4784 781,-188 787.0928,-184.7209 793.7261,-181.7279 800.3718,-179.0529"/>
<polygon fill="#191970" stroke="#191970" points="726.1854,-219.0031 717.7504,-225.4141 728.3423,-225.6625 726.1854,-219.0031"/>
</g>
<!-- Node545 -->
<g id="node13" class="node">
<title>Node545</title>
<g id="a_node13"><a xlink:href="spi_2spi_8h.html#ab31c12597a3f2932aaf01466ffff59bb" target="_top" xlink:title="zrtos_vfs_module_spi\l__transfer">
<polygon fill="#ffffff" stroke="#000000" points="792,-436 792,-466 904,-466 904,-436 792,-436"/>
<text text-anchor="start" x="800" y="-454" font-family="Helvetica,sans-Serif" font-size="10.00" fill="#000000">zrtos_vfs_module_spi</text>
<text text-anchor="middle" x="848" y="-443" font-family="Helvetica,sans-Serif" font-size="10.00" fill="#000000">__transfer</text>
</a>
</g>
</g>
<!-- Node544&#45;&gt;Node545 -->
<g id="edge13" class="edge">
<title>Node544&#45;&gt;Node545</title>
<path fill="none" stroke="#191970" d="M740.3992,-449.7632C757.3506,-449.9581 775.4091,-450.1656 791.7944,-450.354"/>
<polygon fill="#191970" stroke="#191970" points="740.0521,-446.2591 730.0125,-449.6438 739.9715,-453.2586 740.0521,-446.2591"/>
</g>
<!-- Node546 -->
<g id="node14" class="node">
<title>Node546</title>
<g id="a_node14"><a xlink:href="avr_2spi_2spi_8h.html#a3a0f3b324bd986778ccde00670dbabc9" target="_top" xlink:title="zrtos_vfs_module_avr\l_spi__on_interrupt">
<polygon fill="#ffffff" stroke="#000000" points="961.5,-437 961.5,-467 1074.5,-467 1074.5,-437 961.5,-437"/>
<text text-anchor="start" x="969.5" y="-455" font-family="Helvetica,sans-Serif" font-size="10.00" fill="#000000">zrtos_vfs_module_avr</text>
<text text-anchor="middle" x="1018" y="-444" font-family="Helvetica,sans-Serif" font-size="10.00" fill="#000000">_spi__on_interrupt</text>
</a>
</g>
</g>
<!-- Node545&#45;&gt;Node546 -->
<g id="edge14" class="edge">
<title>Node545&#45;&gt;Node546</title>
<path fill="none" stroke="#191970" d="M914.2154,-451.3895C929.784,-451.4811 946.2376,-451.5779 961.3426,-451.6667"/>
<polygon fill="#191970" stroke="#191970" points="914.1559,-447.8892 904.1355,-451.3302 914.1147,-454.8891 914.1559,-447.8892"/>
</g>
<!-- Node547 -->
<g id="node15" class="node">
<title>Node547</title>
<g id="a_node15"><a xlink:href="avr_2spi_2spi_8h.html#a0353f98d744b931e541684fe33b272f7" target="_top" xlink:title="ISR">
<polygon fill="#ffffff" stroke="#000000" points="1160.5,-442.5 1160.5,-461.5 1194.5,-461.5 1194.5,-442.5 1160.5,-442.5"/>
<text text-anchor="middle" x="1177.5" y="-449.5" font-family="Helvetica,sans-Serif" font-size="10.00" fill="#000000">ISR</text>
</a>
</g>
</g>
<!-- Node546&#45;&gt;Node547 -->
<g id="edge15" class="edge">
<title>Node546&#45;&gt;Node547</title>
<path fill="none" stroke="#191970" d="M1084.7619,-452C1112.4525,-452 1142.2899,-452 1160.4331,-452"/>
<polygon fill="#191970" stroke="#191970" points="1084.6829,-448.5001 1074.6828,-452 1084.6828,-455.5001 1084.6829,-448.5001"/>
</g>
<!-- Node548 -->
<g id="node16" class="node">
<title>Node548</title>
<g id="a_node16"><a xlink:href="avr_2spi_2spi_8h.html#ab6f547c3ce7ee0463c235abe078f9491" target="_top" xlink:title="zrtos_vfs_module_avr\l_spi__on_write">
<polygon fill="#ffffff" stroke="#000000" points="1121,-391 1121,-421 1234,-421 1234,-391 1121,-391"/>
<text text-anchor="start" x="1129" y="-409" font-family="Helvetica,sans-Serif" font-size="10.00" fill="#000000">zrtos_vfs_module_avr</text>
<text text-anchor="middle" x="1177.5" y="-398" font-family="Helvetica,sans-Serif" font-size="10.00" fill="#000000">_spi__on_write</text>
</a>
</g>
</g>
<!-- Node546&#45;&gt;Node548 -->
<g id="edge16" class="edge">
<title>Node546&#45;&gt;Node548</title>
<path fill="none" stroke="#191970" d="M1079.9526,-434.1328C1094.9847,-429.7975 1110.9059,-425.2058 1125.4289,-421.0174"/>
<polygon fill="#191970" stroke="#191970" points="1078.8648,-430.8038 1070.2263,-436.9379 1080.8046,-437.5297 1078.8648,-430.8038"/>
</g>
<!-- Node549&#45;&gt;Node548 -->
<g id="edge18" class="edge">
<title>Node549&#45;&gt;Node548</title>
<path fill="none" stroke="#191970" d="M1084.3336,-404.2477C1096.5084,-404.4766 1109.1127,-404.7137 1120.9672,-404.9367"/>
<polygon fill="#191970" stroke="#191970" points="1084.2978,-400.7465 1074.2337,-404.0577 1084.1661,-407.7452 1084.2978,-400.7465"/>
</g>
<!-- Node551 -->
<g id="node19" class="node">
<title>Node551</title>
<g id="a_node19"><a xlink:href="uart0_8h.html#a1c08ba1c9bac4dd9a045d06a07dbe0b4" target="_top" xlink:title="zrtos_vfs_module_avr\l_uart0__on_write">
<polygon fill="#ffffff" stroke="#000000" points="791.5,-296 791.5,-326 904.5,-326 904.5,-296 791.5,-296"/>
<text text-anchor="start" x="799.5" y="-314" font-family="Helvetica,sans-Serif" font-size="10.00" fill="#000000">zrtos_vfs_module_avr</text>
<text text-anchor="middle" x="848" y="-303" font-family="Helvetica,sans-Serif" font-size="10.00" fill="#000000">_uart0__on_write</text>
</a>
</g>
</g>
<!-- Node550&#45;&gt;Node551 -->
<g id="edge20" class="edge">
<title>Node550&#45;&gt;Node551</title>
<path fill="none" stroke="#191970" d="M742.3568,-291.5714C758.5316,-294.546 775.6085,-297.6866 791.2065,-300.5552"/>
<polygon fill="#191970" stroke="#191970" points="742.8917,-288.1111 732.4235,-289.7446 741.6255,-294.9957 742.8917,-288.1111"/>
</g>
<!-- Node552 -->
<g id="node20" class="node">
<title>Node552</title>
<g id="a_node20"><a xlink:href="uart1_8h.html#af04452122e72ab7408b2e207191cdd33" target="_top" xlink:title="zrtos_vfs_module_avr\l_uart1__on_write">
<polygon fill="#ffffff" stroke="#000000" points="791.5,-247 791.5,-277 904.5,-277 904.5,-247 791.5,-247"/>
<text text-anchor="start" x="799.5" y="-265" font-family="Helvetica,sans-Serif" font-size="10.00" fill="#000000">zrtos_vfs_module_avr</text>
<text text-anchor="middle" x="848" y="-254" font-family="Helvetica,sans-Serif" font-size="10.00" fill="#000000">_uart1__on_write</text>
</a>
</g>
</g>
<!-- Node550&#45;&gt;Node552 -->
<g id="edge21" class="edge">
<title>Node550&#45;&gt;Node552</title>
<path fill="none" stroke="#191970" d="M742.8148,-272.2767C758.8537,-270.7097 775.7557,-269.0584 791.2065,-267.5488"/>
<polygon fill="#191970" stroke="#191970" points="742.0358,-268.8361 732.4235,-273.292 742.7165,-275.8029 742.0358,-268.8361"/>
</g>
<!-- Node553 -->
<g id="node21" class="node">
<title>Node553</title>
<g id="a_node21"><a xlink:href="uart2_8h.html#a244148efdde4e736bdcba74328e85415" target="_top" xlink:title="zrtos_vfs_module_avr\l_uart2__on_write">
<polygon fill="#ffffff" stroke="#000000" points="791.5,-198 791.5,-228 904.5,-228 904.5,-198 791.5,-198"/>
<text text-anchor="start" x="799.5" y="-216" font-family="Helvetica,sans-Serif" font-size="10.00" fill="#000000">zrtos_vfs_module_avr</text>
<text text-anchor="middle" x="848" y="-205" font-family="Helvetica,sans-Serif" font-size="10.00" fill="#000000">_uart2__on_write</text>
</a>
</g>
</g>
<!-- Node550&#45;&gt;Node553 -->
<g id="edge22" class="edge">
<title>Node550&#45;&gt;Node553</title>
<path fill="none" stroke="#191970" d="M728.4089,-260.4869C734.0422,-258.3781 739.6569,-256.1955 745,-254 761.3665,-247.275 764.6518,-243.7693 781,-237 788.4202,-233.9275 796.3918,-230.868 804.1563,-228.013"/>
<polygon fill="#191970" stroke="#191970" points="727.1381,-257.225 718.9557,-263.9554 729.5493,-263.7966 727.1381,-257.225"/>
</g>
<!-- Node554 -->
<g id="node22" class="node">
<title>Node554</title>
<g id="a_node22"><a xlink:href="uart3_8h.html#a0ac21cf2483f89180a91b9ca480eb7b8" target="_top" xlink:title="zrtos_vfs_module_avr\l_uart3__on_write">
<polygon fill="#ffffff" stroke="#000000" points="791.5,-345 791.5,-375 904.5,-375 904.5,-345 791.5,-345"/>
<text text-anchor="start" x="799.5" y="-363" font-family="Helvetica,sans-Serif" font-size="10.00" fill="#000000">zrtos_vfs_module_avr</text>
<text text-anchor="middle" x="848" y="-352" font-family="Helvetica,sans-Serif" font-size="10.00" fill="#000000">_uart3__on_write</text>
</a>
</g>
</g>
<!-- Node550&#45;&gt;Node554 -->
<g id="edge23" class="edge">
<title>Node550&#45;&gt;Node554</title>
<path fill="none" stroke="#191970" d="M708.5794,-299.0728C729.229,-310.6397 756.187,-325.0166 781,-336 788.005,-339.1007 795.5468,-342.1072 802.9545,-344.8833"/>
<polygon fill="#191970" stroke="#191970" points="710.282,-296.0148 699.8539,-294.1424 706.8383,-302.1092 710.282,-296.0148"/>
</g>
<!-- Node556 -->
<g id="node24" class="node">
<title>Node556</title>
<g id="a_node24"><a xlink:href="msg__queue_8h.html#a7b05ddf4bc60700bfe0b9d3a0f11664b" target="_top" xlink:title="zrtos_msg_queue__put\l_cbuffer_data">
<polygon fill="#ffffff" stroke="#000000" points="615,-88 615,-118 733,-118 733,-88 615,-88"/>
<text text-anchor="start" x="623" y="-106" font-family="Helvetica,sans-Serif" font-size="10.00" fill="#000000">zrtos_msg_queue__put</text>
<text text-anchor="middle" x="674" y="-95" font-family="Helvetica,sans-Serif" font-size="10.00" fill="#000000">_cbuffer_data</text>
</a>
</g>
</g>
<!-- Node555&#45;&gt;Node556 -->
<g id="edge25" class="edge">
<title>Node555&#45;&gt;Node556</title>
<path fill="none" stroke="#191970" d="M559.7771,-87.3798C577.6832,-89.8285 597.212,-92.4991 614.9755,-94.9283"/>
<polygon fill="#191970" stroke="#191970" points="560.1157,-83.8936 549.7336,-86.0063 559.1672,-90.829 560.1157,-83.8936"/>
</g>
<!-- Node557 -->
<g id="node25" class="node">
<title>Node557</title>
<g id="a_node25"><a xlink:href="msg__queue_8h.html#a40db633a8c0ef5e3bba9cc700e45f7ef" target="_top" xlink:title="zrtos_msg_queue__pipe\l_next_message_to_cbuffer">
<polygon fill="#ffffff" stroke="#000000" points="607,-39 607,-69 741,-69 741,-39 607,-39"/>
<text text-anchor="start" x="615" y="-57" font-family="Helvetica,sans-Serif" font-size="10.00" fill="#000000">zrtos_msg_queue__pipe</text>
<text text-anchor="middle" x="674" y="-46" font-family="Helvetica,sans-Serif" font-size="10.00" fill="#000000">_next_message_to_cbuffer</text>
</a>
</g>
</g>
<!-- Node555&#45;&gt;Node557 -->
<g id="edge27" class="edge">
<title>Node555&#45;&gt;Node557</title>
<path fill="none" stroke="#191970" d="M559.9825,-70.2418C575.0863,-68.0903 591.3339,-65.7758 606.6961,-63.5875"/>
<polygon fill="#191970" stroke="#191970" points="559.1401,-66.8264 549.7336,-71.7018 560.1273,-73.7564 559.1401,-66.8264"/>
</g>
<!-- Node556&#45;&gt;Node538 -->
<g id="edge26" class="edge">
<title>Node556&#45;&gt;Node538</title>
<path fill="none" stroke="#191970" d="M743.5673,-103C755.8402,-103 768.5956,-103 780.8019,-103"/>
<polygon fill="#191970" stroke="#191970" points="743.3943,-99.5001 733.3943,-103 743.3942,-106.5001 743.3943,-99.5001"/>
</g>
<!-- Node558 -->
<g id="node26" class="node">
<title>Node558</title>
<g id="a_node26"><a xlink:href="rtu_8h.html#ab23606290979709ef6fefa7c6970e64e" target="_top" xlink:title="zrtos_vfs_module_modbus\l_rtu__on_send">
<polygon fill="#ffffff" stroke="#000000" points="781,-39 781,-69 915,-69 915,-39 781,-39"/>
<text text-anchor="start" x="789" y="-57" font-family="Helvetica,sans-Serif" font-size="10.00" fill="#000000">zrtos_vfs_module_modbus</text>
<text text-anchor="middle" x="848" y="-46" font-family="Helvetica,sans-Serif" font-size="10.00" fill="#000000">_rtu__on_send</text>
</a>
</g>
</g>
<!-- Node557&#45;&gt;Node558 -->
<g id="edge28" class="edge">
<title>Node557&#45;&gt;Node558</title>
<path fill="none" stroke="#191970" d="M751.4347,-54C761.2636,-54 771.2574,-54 780.906,-54"/>
<polygon fill="#191970" stroke="#191970" points="751.273,-50.5001 741.2729,-54 751.2729,-57.5001 751.273,-50.5001"/>
</g>
<!-- Node558&#45;&gt;Node539 -->
<g id="edge29" class="edge">
<title>Node558&#45;&gt;Node539</title>
<path fill="none" stroke="#191970" d="M925.146,-70.7906C933.6879,-72.6497 942.3366,-74.5321 950.7428,-76.3617"/>
<polygon fill="#191970" stroke="#191970" points="925.7041,-67.3302 915.1885,-68.6234 924.2154,-74.1701 925.7041,-67.3302"/>
</g>
<!-- Node560 -->
<g id="node28" class="node">
<title>Node560</title>
<g id="a_node28"><a xlink:href="uart0_8h.html#a69856cc389c8b76c8cf8c45ea5a33bc7" target="_top" xlink:title="ISR">
<polygon fill="#ffffff" stroke="#000000" points="657,-.5 657,-19.5 691,-19.5 691,-.5 657,-.5"/>
<text text-anchor="middle" x="674" y="-7.5" font-family="Helvetica,sans-Serif" font-size="10.00" fill="#000000">ISR</text>
</a>
</g>
</g>
<!-- Node559&#45;&gt;Node560 -->
<g id="edge31" class="edge">
<title>Node559&#45;&gt;Node560</title>
<path fill="none" stroke="#191970" d="M577.1612,-17.1732C607.0288,-14.9608 638.3161,-12.6433 656.9816,-11.2606"/>
<polygon fill="#191970" stroke="#191970" points="576.821,-13.6888 567.1069,-17.918 577.3382,-20.6696 576.821,-13.6888"/>
</g>
</g>
</svg>
