<?xml version="1.0" encoding="UTF-8" standalone="no"?>
<!DOCTYPE svg PUBLIC "-//W3C//DTD SVG 1.1//EN"
 "http://www.w3.org/Graphics/SVG/1.1/DTD/svg11.dtd">
<!-- Generated by graphviz version 10.0.1 (20240210.2158)
 -->
<!-- Title: zrtos_clist_node__get_next_node Pages: 1 -->
<svg width="1198pt" height="221pt"
 viewBox="0.00 0.00 1198.00 221.00" xmlns="http://www.w3.org/2000/svg" xmlns:xlink="http://www.w3.org/1999/xlink">
<g id="graph0" class="graph" transform="scale(1 1) rotate(0) translate(4 217)">
<title>zrtos_clist_node__get_next_node</title>
<!-- Node1 -->
<g id="Node000001" class="node">
<title>Node1</title>
<g id="a_Node000001"><a xlink:title=" ">
<polygon fill="#999999" stroke="#666666" points="1190,-132 1078.75,-132 1078.75,-100 1190,-100 1190,-132"/>
<text text-anchor="start" x="1086.75" y="-118.5" font-family="Helvetica,sans-Serif" font-size="10.00">zrtos_clist_node__get</text>
<text text-anchor="middle" x="1134.38" y="-106.5" font-family="Helvetica,sans-Serif" font-size="10.00">_next_node</text>
</a>
</g>
</g>
<!-- Node2 -->
<g id="Node000002" class="node">
<title>Node2</title>
<g id="a_Node000002"><a xlink:href="clist_8h.html#a7cc31f994820f2b59d07e96ab9dcce0b" target="_top" xlink:title=" ">
<polygon fill="white" stroke="#666666" points="1022.12,-182 929.62,-182 929.62,-162 1022.12,-162 1022.12,-182"/>
<text text-anchor="middle" x="975.88" y="-168.5" font-family="Helvetica,sans-Serif" font-size="10.00">zrtos_clist__each</text>
</a>
</g>
</g>
<!-- Node1&#45;&gt;Node2 -->
<g id="edge1_Node000001_Node000002" class="edge">
<title>Node1&#45;&gt;Node2</title>
<g id="a_edge1_Node000001_Node000002"><a xlink:title=" ">
<path fill="none" stroke="#63b8ff" d="M1076.5,-136.35C1052.55,-144.92 1025.71,-154.53 1005.92,-161.61"/>
<polygon fill="#63b8ff" stroke="#63b8ff" points="1077.61,-139.67 1085.84,-133.01 1075.25,-133.08 1077.61,-139.67"/>
</a>
</g>
</g>
<!-- Node7 -->
<g id="Node000007" class="node">
<title>Node7</title>
<g id="a_Node000007"><a xlink:href="clist_8h.html#a2c9ceea8a0bb3230c7d4ee52fe351872" target="_top" xlink:title=" ">
<polygon fill="white" stroke="#666666" points="1020.62,-132 931.12,-132 931.12,-100 1020.62,-100 1020.62,-132"/>
<text text-anchor="start" x="939.12" y="-118.5" font-family="Helvetica,sans-Serif" font-size="10.00">zrtos_clist__shift</text>
<text text-anchor="middle" x="975.88" y="-106.5" font-family="Helvetica,sans-Serif" font-size="10.00">_and_push</text>
</a>
</g>
</g>
<!-- Node1&#45;&gt;Node7 -->
<g id="edge6_Node000001_Node000007" class="edge">
<title>Node1&#45;&gt;Node7</title>
<g id="a_edge6_Node000001_Node000007"><a xlink:title=" ">
<path fill="none" stroke="#63b8ff" d="M1067.39,-116C1051.74,-116 1035.41,-116 1021,-116"/>
<polygon fill="#63b8ff" stroke="#63b8ff" points="1067.13,-119.5 1077.13,-116 1067.13,-112.5 1067.13,-119.5"/>
</a>
</g>
</g>
<!-- Node9 -->
<g id="Node000009" class="node">
<title>Node9</title>
<g id="a_Node000009"><a xlink:href="task_8h.html#a007a26e54f32157b572c217857c9c190" target="_top" xlink:title=" ">
<polygon fill="white" stroke="#666666" points="1042.75,-76 909,-76 909,-56 1042.75,-56 1042.75,-76"/>
<text text-anchor="middle" x="975.88" y="-62.5" font-family="Helvetica,sans-Serif" font-size="10.00">zrtos_task__get_next_task</text>
</a>
</g>
</g>
<!-- Node1&#45;&gt;Node9 -->
<g id="edge8_Node000001_Node000009" class="edge">
<title>Node1&#45;&gt;Node9</title>
<g id="a_edge8_Node000001_Node000009"><a xlink:title=" ">
<path fill="none" stroke="#63b8ff" d="M1071.27,-96.16C1050.16,-89.41 1027.41,-82.14 1009.53,-76.43"/>
<polygon fill="#63b8ff" stroke="#63b8ff" points="1070.1,-99.46 1080.69,-99.17 1072.23,-92.79 1070.1,-99.46"/>
</a>
</g>
</g>
<!-- Node3 -->
<g id="Node000003" class="node">
<title>Node3</title>
<g id="a_Node000003"><a xlink:href="vfs__dentry_8h.html#a911f5eb8673c68fe4147f56a21062ed7" target="_top" xlink:title=" ">
<polygon fill="white" stroke="#666666" points="873,-213 755,-213 755,-181 873,-181 873,-213"/>
<text text-anchor="start" x="763" y="-199.5" font-family="Helvetica,sans-Serif" font-size="10.00">zrtos_vfs_dentry__each</text>
<text text-anchor="middle" x="814" y="-187.5" font-family="Helvetica,sans-Serif" font-size="10.00">_child</text>
</a>
</g>
</g>
<!-- Node2&#45;&gt;Node3 -->
<g id="edge2_Node000002_Node000003" class="edge">
<title>Node2&#45;&gt;Node3</title>
<g id="a_edge2_Node000002_Node000003"><a xlink:title=" ">
<path fill="none" stroke="#63b8ff" d="M918.13,-180.87C903.61,-183.14 887.97,-185.59 873.37,-187.87"/>
<polygon fill="#63b8ff" stroke="#63b8ff" points="918.65,-184.33 927.99,-179.33 917.57,-177.42 918.65,-184.33"/>
</a>
</g>
</g>
<!-- Node4 -->
<g id="Node000004" class="node">
<title>Node4</title>
<g id="a_Node000004"><a xlink:href="vfs__dentry_8h.html#a25c3d8504af7c99c7fe0705919e4bba6" target="_top" xlink:title=" ">
<polygon fill="white" stroke="#666666" points="719,-207 593.5,-207 593.5,-187 719,-187 719,-207"/>
<text text-anchor="middle" x="656.25" y="-193.5" font-family="Helvetica,sans-Serif" font-size="10.00">zrtos_vfs_dentry__lookup</text>
</a>
</g>
</g>
<!-- Node3&#45;&gt;Node4 -->
<g id="edge3_Node000003_Node000004" class="edge">
<title>Node3&#45;&gt;Node4</title>
<g id="a_edge3_Node000003_Node000004"><a xlink:title=" ">
<path fill="none" stroke="#63b8ff" d="M743.1,-197C735.2,-197 727.19,-197 719.4,-197"/>
<polygon fill="#63b8ff" stroke="#63b8ff" points="743.05,-200.5 753.05,-197 743.05,-193.5 743.05,-200.5"/>
</a>
</g>
</g>
<!-- Node5 -->
<g id="Node000005" class="node">
<title>Node5</title>
<g id="a_Node000005"><a xlink:href="vfs__file_8h.html#a927d7e3ca83d067440360207ba94b0fe" target="_top" xlink:title=" ">
<polygon fill="white" stroke="#666666" points="551.88,-208 448.88,-208 448.88,-188 551.88,-188 551.88,-208"/>
<text text-anchor="middle" x="500.38" y="-194.5" font-family="Helvetica,sans-Serif" font-size="10.00">zrtos_vfs_file__open</text>
</a>
</g>
</g>
<!-- Node4&#45;&gt;Node5 -->
<g id="edge4_Node000004_Node000005" class="edge">
<title>Node4&#45;&gt;Node5</title>
<g id="a_edge4_Node000004_Node000005"><a xlink:title=" ">
<path fill="none" stroke="#63b8ff" d="M581.78,-197.48C571.68,-197.54 561.5,-197.61 551.94,-197.67"/>
<polygon fill="#63b8ff" stroke="#63b8ff" points="581.62,-200.98 591.59,-197.41 581.57,-193.98 581.62,-200.98"/>
</a>
</g>
</g>
<!-- Node6 -->
<g id="Node000006" class="node">
<title>Node6</title>
<g id="a_Node000006"><a xlink:href="vfs__fd_8h.html#a3e034b78f0f647eb2c449d3fb832a951" target="_top" xlink:title=" ">
<polygon fill="white" stroke="#666666" points="402,-209 303.5,-209 303.5,-189 402,-189 402,-209"/>
<text text-anchor="middle" x="352.75" y="-195.5" font-family="Helvetica,sans-Serif" font-size="10.00">zrtos_vfs_fd__open</text>
</a>
</g>
</g>
<!-- Node5&#45;&gt;Node6 -->
<g id="edge5_Node000005_Node000006" class="edge">
<title>Node5&#45;&gt;Node6</title>
<g id="a_edge5_Node000005_Node000006"><a xlink:title=" ">
<path fill="none" stroke="#63b8ff" d="M437.04,-198.43C425.47,-198.51 413.54,-198.59 402.45,-198.67"/>
<polygon fill="#63b8ff" stroke="#63b8ff" points="436.95,-201.93 446.93,-198.36 436.91,-194.93 436.95,-201.93"/>
</a>
</g>
</g>
<!-- Node8 -->
<g id="Node000008" class="node">
<title>Node8</title>
<g id="a_Node000008"><a xlink:href="spi_2spi_8h.html#a3f4d02ed7068606c0f62cfefd0ac3fb6" target="_top" xlink:title=" ">
<polygon fill="white" stroke="#666666" points="828.4,-126 799.6,-126 799.6,-106 828.4,-106 828.4,-126"/>
<text text-anchor="middle" x="814" y="-112.5" font-family="Helvetica,sans-Serif" font-size="10.00">if</text>
</a>
</g>
</g>
<!-- Node7&#45;&gt;Node8 -->
<g id="edge7_Node000007_Node000008" class="edge">
<title>Node7&#45;&gt;Node8</title>
<g id="a_edge7_Node000007_Node000008"><a xlink:title=" ">
<path fill="none" stroke="#63b8ff" d="M919.62,-116C887.28,-116 848.97,-116 828.88,-116"/>
<polygon fill="#63b8ff" stroke="#63b8ff" points="919.25,-119.5 929.25,-116 919.25,-112.5 919.25,-119.5"/>
</a>
</g>
</g>
<!-- Node10 -->
<g id="Node000010" class="node">
<title>Node10</title>
<g id="a_Node000010"><a xlink:href="task__scheduler_8h.html#aa63cd785e44d31b9ae87297fad4de032" target="_top" xlink:title=" ">
<polygon fill="white" stroke="#666666" points="871.12,-82 756.88,-82 756.88,-50 871.12,-50 871.12,-82"/>
<text text-anchor="start" x="764.88" y="-68.5" font-family="Helvetica,sans-Serif" font-size="10.00">_zrtos_task_scheduler</text>
<text text-anchor="middle" x="814" y="-56.5" font-family="Helvetica,sans-Serif" font-size="10.00">__switch_task</text>
</a>
</g>
</g>
<!-- Node9&#45;&gt;Node10 -->
<g id="edge9_Node000009_Node000010" class="edge">
<title>Node9&#45;&gt;Node10</title>
<g id="a_edge9_Node000009_Node000010"><a xlink:title=" ">
<path fill="none" stroke="#63b8ff" d="M897.51,-66C888.78,-66 880.01,-66 871.62,-66"/>
<polygon fill="#63b8ff" stroke="#63b8ff" points="897.41,-69.5 907.41,-66 897.41,-62.5 897.41,-69.5"/>
</a>
</g>
</g>
<!-- Node20 -->
<g id="Node000020" class="node">
<title>Node20</title>
<g id="a_Node000020"><a xlink:href="task__scheduler_8h.html#ae5915a01574e06572708120eaea79d3b" target="_top" xlink:title=" ">
<polygon fill="white" stroke="#666666" points="710.75,-32 601.75,-32 601.75,0 710.75,0 710.75,-32"/>
<text text-anchor="start" x="609.75" y="-18.5" font-family="Helvetica,sans-Serif" font-size="10.00">zrtos_task_scheduler</text>
<text text-anchor="middle" x="656.25" y="-6.5" font-family="Helvetica,sans-Serif" font-size="10.00">__has_task</text>
</a>
</g>
</g>
<!-- Node9&#45;&gt;Node20 -->
<g id="edge19_Node000009_Node000020" class="edge">
<title>Node9&#45;&gt;Node20</title>
<g id="a_edge19_Node000009_Node000020"><a xlink:title=" ">
<path fill="none" stroke="#63b8ff" d="M926.66,-52.85C909.78,-48.6 890.64,-44.17 873,-41 818.26,-31.15 754.98,-24.35 711.17,-20.36"/>
<polygon fill="#63b8ff" stroke="#63b8ff" points="925.36,-56.13 935.91,-55.23 927.1,-49.35 925.36,-56.13"/>
</a>
</g>
</g>
<!-- Node11 -->
<g id="Node000011" class="node">
<title>Node11</title>
<g id="a_Node000011"><a xlink:href="task__scheduler_8h.html#ab670d7e1ab8db82279714a56efc3c99a" target="_top" xlink:title=" ">
<polygon fill="white" stroke="#666666" points="713.38,-82 599.12,-82 599.12,-50 713.38,-50 713.38,-82"/>
<text text-anchor="start" x="607.12" y="-68.5" font-family="Helvetica,sans-Serif" font-size="10.00">_zrtos_task_scheduler</text>
<text text-anchor="middle" x="656.25" y="-56.5" font-family="Helvetica,sans-Serif" font-size="10.00">__on_tick</text>
</a>
</g>
</g>
<!-- Node10&#45;&gt;Node11 -->
<g id="edge10_Node000010_Node000011" class="edge">
<title>Node10&#45;&gt;Node11</title>
<g id="a_edge10_Node000010_Node000011"><a xlink:title=" ">
<path fill="none" stroke="#63b8ff" d="M745.41,-66C734.82,-66 723.97,-66 713.66,-66"/>
<polygon fill="#63b8ff" stroke="#63b8ff" points="745.26,-69.5 755.26,-66 745.26,-62.5 745.26,-69.5"/>
</a>
</g>
</g>
<!-- Node12 -->
<g id="Node000012" class="node">
<title>Node12</title>
<g id="a_Node000012"><a xlink:href="task__scheduler_8h.html#a8f15f366e9ce3328539ee562fd4c1e73" target="_top" xlink:title=" ">
<polygon fill="white" stroke="#666666" points="557.5,-82 443.25,-82 443.25,-50 557.5,-50 557.5,-82"/>
<text text-anchor="start" x="451.25" y="-68.5" font-family="Helvetica,sans-Serif" font-size="10.00">_zrtos_task_scheduler</text>
<text text-anchor="middle" x="500.38" y="-56.5" font-family="Helvetica,sans-Serif" font-size="10.00">__on_tick_ex</text>
</a>
</g>
</g>
<!-- Node11&#45;&gt;Node12 -->
<g id="edge11_Node000011_Node000012" class="edge">
<title>Node11&#45;&gt;Node12</title>
<g id="a_edge11_Node000011_Node000012"><a xlink:title=" ">
<path fill="none" stroke="#63b8ff" d="M587.36,-66C577.49,-66 567.41,-66 557.79,-66"/>
<polygon fill="#63b8ff" stroke="#63b8ff" points="587.31,-69.5 597.31,-66 587.31,-62.5 587.31,-69.5"/>
</a>
</g>
</g>
<!-- Node13 -->
<g id="Node000013" class="node">
<title>Node13</title>
<g id="a_Node000013"><a xlink:href="task__pthread_8h.html#a28a15bba47cab57cbc9f5dac9af99c8b" target="_top" xlink:title=" ">
<polygon fill="white" stroke="#666666" points="387,-21 318.5,-21 318.5,-1 387,-1 387,-21"/>
<text text-anchor="middle" x="352.75" y="-7.5" font-family="Helvetica,sans-Serif" font-size="10.00">pthread_join</text>
</a>
</g>
</g>
<!-- Node12&#45;&gt;Node13 -->
<g id="edge12_Node000012_Node000013" class="edge">
<title>Node12&#45;&gt;Node13</title>
<g id="a_edge12_Node000012_Node000013"><a xlink:title=" ">
<path fill="none" stroke="#63b8ff" d="M447.87,-45.54C434.66,-40.39 420.45,-34.92 407.25,-30 399.68,-27.18 391.47,-24.21 383.8,-21.49"/>
<polygon fill="#63b8ff" stroke="#63b8ff" points="446.21,-48.65 456.8,-49.04 448.76,-42.14 446.21,-48.65"/>
</a>
</g>
</g>
<!-- Node14 -->
<g id="Node000014" class="node">
<title>Node14</title>
<g id="a_Node000014"><a xlink:href="task__pthread_8h.html#ace168cf0d23cd4b085a2da31b881c750" target="_top" xlink:title=" ">
<polygon fill="white" stroke="#666666" points="402.38,-71 303.12,-71 303.12,-39 402.38,-39 402.38,-71"/>
<text text-anchor="start" x="311.12" y="-57.5" font-family="Helvetica,sans-Serif" font-size="10.00">zrtos_task_pthread</text>
<text text-anchor="middle" x="352.75" y="-45.5" font-family="Helvetica,sans-Serif" font-size="10.00">__trampoline_cb</text>
</a>
</g>
</g>
<!-- Node12&#45;&gt;Node14 -->
<g id="edge13_Node000012_Node000014" class="edge">
<title>Node12&#45;&gt;Node14</title>
<g id="a_edge13_Node000012_Node000014"><a xlink:title=" ">
<path fill="none" stroke="#63b8ff" d="M431.72,-60.89C421.97,-60.15 412.09,-59.41 402.79,-58.7"/>
<polygon fill="#63b8ff" stroke="#63b8ff" points="431.33,-64.37 441.56,-61.63 431.86,-57.39 431.33,-64.37"/>
</a>
</g>
</g>
<!-- Node16 -->
<g id="Node000016" class="node">
<title>Node16</title>
<g id="a_Node000016"><a xlink:href="task__scheduler_8h.html#ae070a60f724cc39d3a4118b57004e82f" target="_top" xlink:title=" ">
<polygon fill="white" stroke="#666666" points="407.25,-171 298.25,-171 298.25,-139 407.25,-139 407.25,-171"/>
<text text-anchor="start" x="306.25" y="-157.5" font-family="Helvetica,sans-Serif" font-size="10.00">zrtos_task_scheduler</text>
<text text-anchor="middle" x="352.75" y="-145.5" font-family="Helvetica,sans-Serif" font-size="10.00">__delay_ms</text>
</a>
</g>
</g>
<!-- Node12&#45;&gt;Node16 -->
<g id="edge15_Node000012_Node000016" class="edge">
<title>Node12&#45;&gt;Node16</title>
<g id="a_edge15_Node000012_Node000016"><a xlink:title=" ">
<path fill="none" stroke="#63b8ff" d="M468.92,-89.11C451.37,-101.93 428.61,-117.71 407.25,-130 402.1,-132.97 396.53,-135.87 391.01,-138.59"/>
<polygon fill="#63b8ff" stroke="#63b8ff" points="470.91,-91.99 476.88,-83.24 466.75,-86.36 470.91,-91.99"/>
</a>
</g>
</g>
<!-- Node19 -->
<g id="Node000019" class="node">
<title>Node19</title>
<g id="a_Node000019"><a xlink:href="task__scheduler_8h.html#a1e85f61c031a36a33f08d891597103b2" target="_top" xlink:title=" ">
<polygon fill="white" stroke="#666666" points="407.25,-121 298.25,-121 298.25,-89 407.25,-89 407.25,-121"/>
<text text-anchor="start" x="306.25" y="-107.5" font-family="Helvetica,sans-Serif" font-size="10.00">zrtos_task_scheduler</text>
<text text-anchor="middle" x="352.75" y="-95.5" font-family="Helvetica,sans-Serif" font-size="10.00">__init</text>
</a>
</g>
</g>
<!-- Node12&#45;&gt;Node19 -->
<g id="edge18_Node000012_Node000019" class="edge">
<title>Node12&#45;&gt;Node19</title>
<g id="a_edge18_Node000012_Node000019"><a xlink:title=" ">
<path fill="none" stroke="#63b8ff" d="M431.98,-84.05C423.78,-86.25 415.48,-88.47 407.51,-90.6"/>
<polygon fill="#63b8ff" stroke="#63b8ff" points="432.86,-87.44 441.61,-81.47 431.05,-80.68 432.86,-87.44"/>
</a>
</g>
</g>
<!-- Node15 -->
<g id="Node000015" class="node">
<title>Node15</title>
<g id="a_Node000015"><a xlink:href="task__pthread_8h.html#a091adcef6201bebbf231763328c15286" target="_top" xlink:title=" ">
<polygon fill="white" stroke="#666666" points="241.25,-65 160.75,-65 160.75,-45 241.25,-45 241.25,-65"/>
<text text-anchor="middle" x="201" y="-51.5" font-family="Helvetica,sans-Serif" font-size="10.00">pthread_create</text>
</a>
</g>
</g>
<!-- Node14&#45;&gt;Node15 -->
<g id="edge14_Node000014_Node000015" class="edge">
<title>Node14&#45;&gt;Node15</title>
<g id="a_edge14_Node000014_Node000015"><a xlink:title=" ">
<path fill="none" stroke="#63b8ff" d="M291.34,-55C274.61,-55 256.88,-55 241.66,-55"/>
<polygon fill="#63b8ff" stroke="#63b8ff" points="291.2,-58.5 301.2,-55 291.2,-51.5 291.2,-58.5"/>
</a>
</g>
</g>
<!-- Node17 -->
<g id="Node000017" class="node">
<title>Node17</title>
<g id="a_Node000017"><a xlink:href="task__mutex_8h.html#a123e93e1f2eac3befe64178fba0bbcbd" target="_top" xlink:title=" ">
<polygon fill="white" stroke="#666666" points="262.25,-165 139.75,-165 139.75,-145 262.25,-145 262.25,-165"/>
<text text-anchor="middle" x="201" y="-151.5" font-family="Helvetica,sans-Serif" font-size="10.00">zrtos_task_mutex__lock</text>
</a>
</g>
</g>
<!-- Node16&#45;&gt;Node17 -->
<g id="edge16_Node000016_Node000017" class="edge">
<title>Node16&#45;&gt;Node17</title>
<g id="a_edge16_Node000016_Node000017"><a xlink:title=" ">
<path fill="none" stroke="#63b8ff" d="M286.6,-155C278.64,-155 270.53,-155 262.65,-155"/>
<polygon fill="#63b8ff" stroke="#63b8ff" points="286.6,-158.5 296.6,-155 286.6,-151.5 286.6,-158.5"/>
</a>
</g>
</g>
<!-- Node18 -->
<g id="Node000018" class="node">
<title>Node18</title>
<g id="a_Node000018"><a xlink:href="task__pthread_8h.html#a12809c44718c21544ceb280dc1a53573" target="_top" xlink:title=" ">
<polygon fill="white" stroke="#666666" points="103.75,-165 0,-165 0,-145 103.75,-145 103.75,-165"/>
<text text-anchor="middle" x="51.88" y="-151.5" font-family="Helvetica,sans-Serif" font-size="10.00">pthread_mutex_lock</text>
</a>
</g>
</g>
<!-- Node17&#45;&gt;Node18 -->
<g id="edge17_Node000017_Node000018" class="edge">
<title>Node17&#45;&gt;Node18</title>
<g id="a_edge17_Node000017_Node000018"><a xlink:title=" ">
<path fill="none" stroke="#63b8ff" d="M127.95,-155C119.88,-155 111.79,-155 104.05,-155"/>
<polygon fill="#63b8ff" stroke="#63b8ff" points="127.8,-158.5 137.8,-155 127.8,-151.5 127.8,-158.5"/>
</a>
</g>
</g>
<!-- Node20&#45;&gt;Node13 -->
<g id="edge20_Node000020_Node000013" class="edge">
<title>Node20&#45;&gt;Node13</title>
<g id="a_edge20_Node000020_Node000013"><a xlink:title=" ">
<path fill="none" stroke="#63b8ff" d="M590.05,-14.92C527.6,-13.88 435.89,-12.36 387.12,-11.55"/>
<polygon fill="#63b8ff" stroke="#63b8ff" points="589.78,-18.41 599.83,-15.08 589.89,-11.42 589.78,-18.41"/>
</a>
</g>
</g>
</g>
</svg>
