<?xml version="1.0" encoding="UTF-8" standalone="no"?>
<!DOCTYPE svg PUBLIC "-//W3C//DTD SVG 1.1//EN"
 "http://www.w3.org/Graphics/SVG/1.1/DTD/svg11.dtd">
<!-- Generated by graphviz version 10.0.1 (20240210.2158)
 -->
<!-- Title: zrtos_clist_node__get_previous_node Pages: 1 -->
<svg width="741pt" height="316pt"
 viewBox="0.00 0.00 741.25 316.00" xmlns="http://www.w3.org/2000/svg" xmlns:xlink="http://www.w3.org/1999/xlink">
<g id="graph0" class="graph" transform="scale(1 1) rotate(0) translate(4 312)">
<title>zrtos_clist_node__get_previous_node</title>
<!-- Node1 -->
<g id="Node000001" class="node">
<title>Node1</title>
<g id="a_Node000001"><a xlink:title=" ">
<polygon fill="#999999" stroke="#666666" points="733.25,-176 622,-176 622,-144 733.25,-144 733.25,-176"/>
<text text-anchor="start" x="630" y="-162.5" font-family="Helvetica,sans-Serif" font-size="10.00">zrtos_clist_node__get</text>
<text text-anchor="middle" x="677.62" y="-150.5" font-family="Helvetica,sans-Serif" font-size="10.00">_previous_node</text>
</a>
</g>
</g>
<!-- Node2 -->
<g id="Node000002" class="node">
<title>Node2</title>
<g id="a_Node000002"><a xlink:href="clist_8h.html#a383b927f3eeb7f78f5ae9929138a635f" target="_top" xlink:title=" ">
<polygon fill="white" stroke="#666666" points="559.75,-214 462,-214 462,-194 559.75,-194 559.75,-214"/>
<text text-anchor="middle" x="510.88" y="-200.5" font-family="Helvetica,sans-Serif" font-size="10.00">zrtos_clist__delete</text>
</a>
</g>
</g>
<!-- Node1&#45;&gt;Node2 -->
<g id="edge1_Node000001_Node000002" class="edge">
<title>Node1&#45;&gt;Node2</title>
<g id="a_edge1_Node000001_Node000002"><a xlink:title=" ">
<path fill="none" stroke="#63b8ff" d="M610.72,-177.6C590.53,-182.99 568.96,-188.76 551.14,-193.51"/>
<polygon fill="#63b8ff" stroke="#63b8ff" points="611.55,-181 620.3,-175.04 609.74,-174.24 611.55,-181"/>
</a>
</g>
</g>
<!-- Node10 -->
<g id="Node000010" class="node">
<title>Node10</title>
<g id="a_Node000010"><a xlink:href="clist_8h.html#ad48884723dee26734c89f80bef68d0d5" target="_top" xlink:title=" ">
<polygon fill="white" stroke="#666666" points="577,-170 444.75,-170 444.75,-150 577,-150 577,-170"/>
<text text-anchor="middle" x="510.88" y="-156.5" font-family="Helvetica,sans-Serif" font-size="10.00">zrtos_clist__get_last_node</text>
</a>
</g>
</g>
<!-- Node1&#45;&gt;Node10 -->
<g id="edge9_Node000001_Node000010" class="edge">
<title>Node1&#45;&gt;Node10</title>
<g id="a_edge9_Node000001_Node000010"><a xlink:title=" ">
<path fill="none" stroke="#63b8ff" d="M610.55,-160C599.61,-160 588.28,-160 577.36,-160"/>
<polygon fill="#63b8ff" stroke="#63b8ff" points="610.25,-163.5 620.25,-160 610.25,-156.5 610.25,-163.5"/>
</a>
</g>
</g>
<!-- Node18 -->
<g id="Node000018" class="node">
<title>Node18</title>
<g id="a_Node000018"><a xlink:href="task_8h.html#a3331525ae546d5c92365943b4476cd14" target="_top" xlink:title=" ">
<polygon fill="white" stroke="#666666" points="586,-132 435.75,-132 435.75,-112 586,-112 586,-132"/>
<text text-anchor="middle" x="510.88" y="-118.5" font-family="Helvetica,sans-Serif" font-size="10.00">zrtos_task__get_previous_task</text>
</a>
</g>
</g>
<!-- Node1&#45;&gt;Node18 -->
<g id="edge18_Node000001_Node000018" class="edge">
<title>Node1&#45;&gt;Node18</title>
<g id="a_edge18_Node000001_Node000018"><a xlink:title=" ">
<path fill="none" stroke="#63b8ff" d="M610.75,-144.81C592.78,-140.66 573.71,-136.26 557.17,-132.45"/>
<polygon fill="#63b8ff" stroke="#63b8ff" points="609.76,-148.17 620.29,-147.01 611.33,-141.35 609.76,-148.17"/>
</a>
</g>
</g>
<!-- Node3 -->
<g id="Node000003" class="node">
<title>Node3</title>
<g id="a_Node000003"><a xlink:href="clist_8h.html#a93c384bab6f49732e1fd1aff0cbb0e2b" target="_top" xlink:title=" ">
<polygon fill="white" stroke="#666666" points="388.88,-170 301.62,-170 301.62,-150 388.88,-150 388.88,-170"/>
<text text-anchor="middle" x="345.25" y="-156.5" font-family="Helvetica,sans-Serif" font-size="10.00">zrtos_clist__pop</text>
</a>
</g>
</g>
<!-- Node2&#45;&gt;Node3 -->
<g id="edge2_Node000002_Node000003" class="edge">
<title>Node2&#45;&gt;Node3</title>
<g id="a_edge2_Node000002_Node000003"><a xlink:title=" ">
<path fill="none" stroke="#63b8ff" d="M460.03,-190.6C435.94,-184.12 407.47,-176.46 385.03,-170.43"/>
<polygon fill="#63b8ff" stroke="#63b8ff" points="459.07,-193.96 469.64,-193.18 460.89,-187.2 459.07,-193.96"/>
</a>
</g>
</g>
<!-- Node4 -->
<g id="Node000004" class="node">
<title>Node4</title>
<g id="a_Node000004"><a xlink:href="clist_8h.html#a443b3447b07aa651d8bc5b81e73be88f" target="_top" xlink:title=" ">
<polygon fill="white" stroke="#666666" points="390,-308 300.5,-308 300.5,-288 390,-288 390,-308"/>
<text text-anchor="middle" x="345.25" y="-294.5" font-family="Helvetica,sans-Serif" font-size="10.00">zrtos_clist__shift</text>
</a>
</g>
</g>
<!-- Node2&#45;&gt;Node4 -->
<g id="edge3_Node000002_Node000004" class="edge">
<title>Node2&#45;&gt;Node4</title>
<g id="a_edge3_Node000002_Node000004"><a xlink:title=" ">
<path fill="none" stroke="#63b8ff" d="M488.07,-221.34C466.58,-237.82 432.31,-262.48 399.75,-279 393.51,-282.17 386.62,-285.04 379.91,-287.53"/>
<polygon fill="#63b8ff" stroke="#63b8ff" points="490.06,-224.23 495.81,-215.33 485.76,-218.71 490.06,-224.23"/>
</a>
</g>
</g>
<!-- Node5 -->
<g id="Node000005" class="node">
<title>Node5</title>
<g id="a_Node000005"><a xlink:href="task__scheduler_8h.html#a8eaf55f184537faea5e8e9641ed4ad27" target="_top" xlink:title=" ">
<polygon fill="white" stroke="#666666" points="399.75,-270 290.75,-270 290.75,-238 399.75,-238 399.75,-270"/>
<text text-anchor="start" x="298.75" y="-256.5" font-family="Helvetica,sans-Serif" font-size="10.00">zrtos_task_scheduler</text>
<text text-anchor="middle" x="345.25" y="-244.5" font-family="Helvetica,sans-Serif" font-size="10.00">__remove_task</text>
</a>
</g>
</g>
<!-- Node2&#45;&gt;Node5 -->
<g id="edge4_Node000002_Node000005" class="edge">
<title>Node2&#45;&gt;Node5</title>
<g id="a_edge4_Node000002_Node000005"><a xlink:title=" ">
<path fill="none" stroke="#63b8ff" d="M464.6,-217.84C444.63,-223.94 421.02,-231.15 400.15,-237.53"/>
<polygon fill="#63b8ff" stroke="#63b8ff" points="465.59,-221.19 474.13,-214.92 463.54,-214.5 465.59,-221.19"/>
</a>
</g>
</g>
<!-- Node8 -->
<g id="Node000008" class="node">
<title>Node8</title>
<g id="a_Node000008"><a xlink:href="spi_2spi_8h.html#a32046c6fe4df16f4795a3de4fdf61f8f" target="_top" xlink:title=" ">
<polygon fill="white" stroke="#666666" points="399.75,-220 290.75,-220 290.75,-188 399.75,-188 399.75,-220"/>
<text text-anchor="start" x="298.75" y="-206.5" font-family="Helvetica,sans-Serif" font-size="10.00">zrtos_vfs_module_spi</text>
<text text-anchor="middle" x="345.25" y="-194.5" font-family="Helvetica,sans-Serif" font-size="10.00">_file__deinit</text>
</a>
</g>
</g>
<!-- Node2&#45;&gt;Node8 -->
<g id="edge7_Node000002_Node000008" class="edge">
<title>Node2&#45;&gt;Node8</title>
<g id="a_edge7_Node000002_Node000008"><a xlink:title=" ">
<path fill="none" stroke="#63b8ff" d="M450.51,-204C434.05,-204 416.27,-204 400.13,-204"/>
<polygon fill="#63b8ff" stroke="#63b8ff" points="450.15,-207.5 460.15,-204 450.15,-200.5 450.15,-207.5"/>
</a>
</g>
</g>
<!-- Node6 -->
<g id="Node000006" class="node">
<title>Node6</title>
<g id="a_Node000006"><a xlink:href="task__pthread_8h.html#a138580b425fd21586b4efd4ab448d593" target="_top" xlink:title=" ">
<polygon fill="white" stroke="#666666" points="249.5,-270 150.25,-270 150.25,-238 249.5,-238 249.5,-270"/>
<text text-anchor="start" x="158.25" y="-256.5" font-family="Helvetica,sans-Serif" font-size="10.00">zrtos_task_pthread</text>
<text text-anchor="middle" x="199.88" y="-244.5" font-family="Helvetica,sans-Serif" font-size="10.00">__free</text>
</a>
</g>
</g>
<!-- Node5&#45;&gt;Node6 -->
<g id="edge5_Node000005_Node000006" class="edge">
<title>Node5&#45;&gt;Node6</title>
<g id="a_edge5_Node000005_Node000006"><a xlink:title=" ">
<path fill="none" stroke="#63b8ff" d="M279.03,-254C269.19,-254 259.19,-254 249.77,-254"/>
<polygon fill="#63b8ff" stroke="#63b8ff" points="278.94,-257.5 288.94,-254 278.94,-250.5 278.94,-257.5"/>
</a>
</g>
</g>
<!-- Node7 -->
<g id="Node000007" class="node">
<title>Node7</title>
<g id="a_Node000007"><a xlink:href="task__pthread_8h.html#a28a15bba47cab57cbc9f5dac9af99c8b" target="_top" xlink:title=" ">
<polygon fill="white" stroke="#666666" points="88.75,-264 20.25,-264 20.25,-244 88.75,-244 88.75,-264"/>
<text text-anchor="middle" x="54.5" y="-250.5" font-family="Helvetica,sans-Serif" font-size="10.00">pthread_join</text>
</a>
</g>
</g>
<!-- Node6&#45;&gt;Node7 -->
<g id="edge6_Node000006_Node000007" class="edge">
<title>Node6&#45;&gt;Node7</title>
<g id="a_edge6_Node000006_Node000007"><a xlink:title=" ">
<path fill="none" stroke="#63b8ff" d="M138.87,-254C121.78,-254 103.77,-254 88.88,-254"/>
<polygon fill="#63b8ff" stroke="#63b8ff" points="138.42,-257.5 148.42,-254 138.42,-250.5 138.42,-257.5"/>
</a>
</g>
</g>
<!-- Node9 -->
<g id="Node000009" class="node">
<title>Node9</title>
<g id="a_Node000009"><a xlink:href="spi_2spi_8h.html#ae37ac67ac292b108b745f060bd34c7de" target="_top" xlink:title=" ">
<polygon fill="white" stroke="#666666" points="254.38,-220 145.38,-220 145.38,-188 254.38,-188 254.38,-220"/>
<text text-anchor="start" x="153.38" y="-206.5" font-family="Helvetica,sans-Serif" font-size="10.00">zrtos_vfs_module_spi</text>
<text text-anchor="middle" x="199.88" y="-194.5" font-family="Helvetica,sans-Serif" font-size="10.00">_file__free</text>
</a>
</g>
</g>
<!-- Node8&#45;&gt;Node9 -->
<g id="edge8_Node000008_Node000009" class="edge">
<title>Node8&#45;&gt;Node9</title>
<g id="a_edge8_Node000008_Node000009"><a xlink:title=" ">
<path fill="none" stroke="#63b8ff" d="M278.99,-204C270.79,-204 262.48,-204 254.5,-204"/>
<polygon fill="#63b8ff" stroke="#63b8ff" points="278.94,-207.5 288.94,-204 278.94,-200.5 278.94,-207.5"/>
</a>
</g>
</g>
<!-- Node10&#45;&gt;Node3 -->
<g id="edge10_Node000010_Node000003" class="edge">
<title>Node10&#45;&gt;Node3</title>
<g id="a_edge10_Node000010_Node000003"><a xlink:title=" ">
<path fill="none" stroke="#63b8ff" d="M432.89,-160C417.91,-160 402.71,-160 389.32,-160"/>
<polygon fill="#63b8ff" stroke="#63b8ff" points="432.75,-163.5 442.75,-160 432.75,-156.5 432.75,-163.5"/>
</a>
</g>
</g>
<!-- Node11 -->
<g id="Node000011" class="node">
<title>Node11</title>
<g id="a_Node000011"><a xlink:href="clist_8h.html#a853d4178de18748d3bee28700929bda4" target="_top" xlink:title=" ">
<polygon fill="white" stroke="#666666" points="391.5,-114 299,-114 299,-94 391.5,-94 391.5,-114"/>
<text text-anchor="middle" x="345.25" y="-100.5" font-family="Helvetica,sans-Serif" font-size="10.00">zrtos_clist__push</text>
</a>
</g>
</g>
<!-- Node10&#45;&gt;Node11 -->
<g id="edge11_Node000010_Node000011" class="edge">
<title>Node10&#45;&gt;Node11</title>
<g id="a_edge11_Node000010_Node000011"><a xlink:title=" ">
<path fill="none" stroke="#63b8ff" d="M453.87,-146.55C447.72,-144.8 441.58,-142.94 435.75,-141 412.62,-133.3 386.98,-122.45 369.09,-114.49"/>
<polygon fill="#63b8ff" stroke="#63b8ff" points="452.86,-149.9 463.43,-149.16 454.71,-143.15 452.86,-149.9"/>
</a>
</g>
</g>
<!-- Node12 -->
<g id="Node000012" class="node">
<title>Node12</title>
<g id="a_Node000012"><a xlink:href="task__scheduler_8h.html#ae82b03fcfb70e448c4a0bbd59ef8a035" target="_top" xlink:title=" ">
<polygon fill="white" stroke="#666666" points="254.38,-170 145.38,-170 145.38,-138 254.38,-138 254.38,-170"/>
<text text-anchor="start" x="153.38" y="-156.5" font-family="Helvetica,sans-Serif" font-size="10.00">zrtos_task_scheduler</text>
<text text-anchor="middle" x="199.88" y="-144.5" font-family="Helvetica,sans-Serif" font-size="10.00">__add_task</text>
</a>
</g>
</g>
<!-- Node11&#45;&gt;Node12 -->
<g id="edge12_Node000011_Node000012" class="edge">
<title>Node11&#45;&gt;Node12</title>
<g id="a_edge12_Node000011_Node000012"><a xlink:title=" ">
<path fill="none" stroke="#63b8ff" d="M303.35,-118.26C286.12,-124.27 265.96,-131.3 248.11,-137.53"/>
<polygon fill="#63b8ff" stroke="#63b8ff" points="304.47,-121.58 312.76,-114.98 302.17,-114.97 304.47,-121.58"/>
</a>
</g>
</g>
<!-- Node14 -->
<g id="Node000014" class="node">
<title>Node14</title>
<g id="a_Node000014"><a xlink:href="task__scheduler_8h.html#a1e85f61c031a36a33f08d891597103b2" target="_top" xlink:title=" ">
<polygon fill="white" stroke="#666666" points="254.38,-120 145.38,-120 145.38,-88 254.38,-88 254.38,-120"/>
<text text-anchor="start" x="153.38" y="-106.5" font-family="Helvetica,sans-Serif" font-size="10.00">zrtos_task_scheduler</text>
<text text-anchor="middle" x="199.88" y="-94.5" font-family="Helvetica,sans-Serif" font-size="10.00">__init</text>
</a>
</g>
</g>
<!-- Node11&#45;&gt;Node14 -->
<g id="edge14_Node000011_Node000014" class="edge">
<title>Node11&#45;&gt;Node14</title>
<g id="a_edge14_Node000011_Node000014"><a xlink:title=" ">
<path fill="none" stroke="#63b8ff" d="M287.42,-104C276.65,-104 265.4,-104 254.72,-104"/>
<polygon fill="#63b8ff" stroke="#63b8ff" points="287.37,-107.5 297.37,-104 287.37,-100.5 287.37,-107.5"/>
</a>
</g>
</g>
<!-- Node15 -->
<g id="Node000015" class="node">
<title>Node15</title>
<g id="a_Node000015"><a xlink:href="vfs__dentry_8h.html#a568a74f7d927fbb181bcbf96621ffd8c" target="_top" xlink:title=" ">
<polygon fill="white" stroke="#666666" points="254.75,-70 145,-70 145,-50 254.75,-50 254.75,-70"/>
<text text-anchor="middle" x="199.88" y="-56.5" font-family="Helvetica,sans-Serif" font-size="10.00">zrtos_vfs_dentry__init</text>
</a>
</g>
</g>
<!-- Node11&#45;&gt;Node15 -->
<g id="edge15_Node000011_Node000015" class="edge">
<title>Node11&#45;&gt;Node15</title>
<g id="a_edge15_Node000011_Node000015"><a xlink:title=" ">
<path fill="none" stroke="#63b8ff" d="M299.38,-90.23C278.44,-83.8 253.94,-76.28 234.61,-70.35"/>
<polygon fill="#63b8ff" stroke="#63b8ff" points="298.24,-93.54 308.83,-93.13 300.29,-86.85 298.24,-93.54"/>
</a>
</g>
</g>
<!-- Node16 -->
<g id="Node000016" class="node">
<title>Node16</title>
<g id="a_Node000016"><a xlink:href="spi_2spi_8h.html#a18e98b2ff2735e9c263e143d51880842" target="_top" xlink:title=" ">
<polygon fill="white" stroke="#666666" points="254.38,-32 145.38,-32 145.38,0 254.38,0 254.38,-32"/>
<text text-anchor="start" x="153.38" y="-18.5" font-family="Helvetica,sans-Serif" font-size="10.00">zrtos_vfs_module_spi</text>
<text text-anchor="middle" x="199.88" y="-6.5" font-family="Helvetica,sans-Serif" font-size="10.00">_file__init</text>
</a>
</g>
</g>
<!-- Node11&#45;&gt;Node16 -->
<g id="edge16_Node000011_Node000016" class="edge">
<title>Node11&#45;&gt;Node16</title>
<g id="a_edge16_Node000011_Node000016"><a xlink:title=" ">
<path fill="none" stroke="#63b8ff" d="M322.17,-86.78C304.49,-73.41 278.77,-54.88 254.75,-41 249.57,-38.01 243.97,-35.09 238.41,-32.36"/>
<polygon fill="#63b8ff" stroke="#63b8ff" points="319.83,-89.4 329.9,-92.69 324.09,-83.84 319.83,-89.4"/>
</a>
</g>
</g>
<!-- Node13 -->
<g id="Node000013" class="node">
<title>Node13</title>
<g id="a_Node000013"><a xlink:href="task__pthread_8h.html#a091adcef6201bebbf231763328c15286" target="_top" xlink:title=" ">
<polygon fill="white" stroke="#666666" points="94.75,-164 14.25,-164 14.25,-144 94.75,-144 94.75,-164"/>
<text text-anchor="middle" x="54.5" y="-150.5" font-family="Helvetica,sans-Serif" font-size="10.00">pthread_create</text>
</a>
</g>
</g>
<!-- Node12&#45;&gt;Node13 -->
<g id="edge13_Node000012_Node000013" class="edge">
<title>Node12&#45;&gt;Node13</title>
<g id="a_edge13_Node000012_Node000013"><a xlink:title=" ">
<path fill="none" stroke="#63b8ff" d="M133.57,-154C120.34,-154 106.81,-154 94.82,-154"/>
<polygon fill="#63b8ff" stroke="#63b8ff" points="133.57,-157.5 143.57,-154 133.57,-150.5 133.57,-157.5"/>
</a>
</g>
</g>
<!-- Node17 -->
<g id="Node000017" class="node">
<title>Node17</title>
<g id="a_Node000017"><a xlink:href="spi_2spi_8h.html#a233cf747fcbc04752c320e48e8101632" target="_top" xlink:title=" ">
<polygon fill="white" stroke="#666666" points="109,-32 0,-32 0,0 109,0 109,-32"/>
<text text-anchor="start" x="8" y="-18.5" font-family="Helvetica,sans-Serif" font-size="10.00">zrtos_vfs_module_spi</text>
<text text-anchor="middle" x="54.5" y="-6.5" font-family="Helvetica,sans-Serif" font-size="10.00">_file__new</text>
</a>
</g>
</g>
<!-- Node16&#45;&gt;Node17 -->
<g id="edge17_Node000016_Node000017" class="edge">
<title>Node16&#45;&gt;Node17</title>
<g id="a_edge17_Node000016_Node000017"><a xlink:title=" ">
<path fill="none" stroke="#63b8ff" d="M133.61,-16C125.42,-16 117.11,-16 109.12,-16"/>
<polygon fill="#63b8ff" stroke="#63b8ff" points="133.57,-19.5 143.57,-16 133.57,-12.5 133.57,-19.5"/>
</a>
</g>
</g>
</g>
</svg>
