<?xml version="1.0" encoding="UTF-8" standalone="no"?>
<!DOCTYPE svg PUBLIC "-//W3C//DTD SVG 1.1//EN"
 "http://www.w3.org/Graphics/SVG/1.1/DTD/svg11.dtd">
<!-- Generated by graphviz version 2.40.1 (20161225.0304)
 -->
<!-- Title: zrtos_clist__push Pages: 1 -->
<svg width="418pt" height="88pt"
 viewBox="0.00 0.00 418.00 88.00" xmlns="http://www.w3.org/2000/svg" xmlns:xlink="http://www.w3.org/1999/xlink">
<g id="graph0" class="graph" transform="scale(1 1) rotate(0) translate(4 84)">
<title>zrtos_clist__push</title>
<polygon fill="#ffffff" stroke="transparent" points="-4,4 -4,-84 414,-84 414,4 -4,4"/>
<!-- Node77 -->
<g id="node1" class="node">
<title>Node77</title>
<polygon fill="#bfbfbf" stroke="#000000" points="0,-19.5 0,-38.5 93,-38.5 93,-19.5 0,-19.5"/>
<text text-anchor="middle" x="46.5" y="-26.5" font-family="Helvetica,sans-Serif" font-size="10.00" fill="#000000">zrtos_clist__push</text>
</g>
<!-- Node78 -->
<g id="node2" class="node">
<title>Node78</title>
<g id="a_node2"><a xlink:href="clist_8h.html#ac963d632abfc835ef63877a4cfd401e6" target="_top" xlink:title="zrtos_clist__get_last_node">
<polygon fill="#ffffff" stroke="#000000" points="129,-38.5 129,-57.5 262,-57.5 262,-38.5 129,-38.5"/>
<text text-anchor="middle" x="195.5" y="-45.5" font-family="Helvetica,sans-Serif" font-size="10.00" fill="#000000">zrtos_clist__get_last_node</text>
</a>
</g>
</g>
<!-- Node77&#45;&gt;Node78 -->
<g id="edge1" class="edge">
<title>Node77&#45;&gt;Node78</title>
<path fill="none" stroke="#191970" d="M93.2357,-34.9596C101.3329,-35.9921 109.9406,-37.0897 118.5917,-38.1929"/>
<polygon fill="#191970" stroke="#191970" points="118.3768,-41.6938 128.7393,-39.4869 119.2623,-34.75 118.3768,-41.6938"/>
</g>
<!-- Node81 -->
<g id="node5" class="node">
<title>Node81</title>
<g id="a_node5"><a xlink:href="clist_8h.html#a2795f97f269d0259065d7c7219d09341" target="_top" xlink:title="zrtos_clist_node__append">
<polygon fill="#ffffff" stroke="#000000" points="130.5,-.5 130.5,-19.5 260.5,-19.5 260.5,-.5 130.5,-.5"/>
<text text-anchor="middle" x="195.5" y="-7.5" font-family="Helvetica,sans-Serif" font-size="10.00" fill="#000000">zrtos_clist_node__append</text>
</a>
</g>
</g>
<!-- Node77&#45;&gt;Node81 -->
<g id="edge4" class="edge">
<title>Node77&#45;&gt;Node81</title>
<path fill="none" stroke="#191970" d="M93.2357,-23.0404C101.8849,-21.9375 111.1168,-20.7603 120.3617,-19.5814"/>
<polygon fill="#191970" stroke="#191970" points="120.8947,-23.0419 130.3717,-18.305 120.0092,-16.0981 120.8947,-23.0419"/>
</g>
<!-- Node79 -->
<g id="node3" class="node">
<title>Node79</title>
<g id="a_node3"><a xlink:href="clist_8h.html#afb7e643d242da19562a3584abcfca015" target="_top" xlink:title="zrtos_clist__get_root">
<polygon fill="#ffffff" stroke="#000000" points="300.5,-60.5 300.5,-79.5 407.5,-79.5 407.5,-60.5 300.5,-60.5"/>
<text text-anchor="middle" x="354" y="-67.5" font-family="Helvetica,sans-Serif" font-size="10.00" fill="#000000">zrtos_clist__get_root</text>
</a>
</g>
</g>
<!-- Node78&#45;&gt;Node79 -->
<g id="edge2" class="edge">
<title>Node78&#45;&gt;Node79</title>
<path fill="none" stroke="#191970" d="M262.2589,-57.2662C271.5785,-58.5598 281.1345,-59.8862 290.3938,-61.1714"/>
<polygon fill="#191970" stroke="#191970" points="289.9131,-64.6381 300.2994,-62.5463 290.8756,-57.7046 289.9131,-64.6381"/>
</g>
<!-- Node80 -->
<g id="node4" class="node">
<title>Node80</title>
<g id="a_node4"><a xlink:href="clist_8h.html#adc7d3acc850be7934c1c38390033a93d" target="_top" xlink:title="zrtos_clist_node__get\l_previous_node">
<polygon fill="#ffffff" stroke="#000000" points="298,-11 298,-41 410,-41 410,-11 298,-11"/>
<text text-anchor="start" x="306" y="-29" font-family="Helvetica,sans-Serif" font-size="10.00" fill="#000000">zrtos_clist_node__get</text>
<text text-anchor="middle" x="354" y="-18" font-family="Helvetica,sans-Serif" font-size="10.00" fill="#000000">_previous_node</text>
</a>
</g>
</g>
<!-- Node78&#45;&gt;Node80 -->
<g id="edge3" class="edge">
<title>Node78&#45;&gt;Node80</title>
<path fill="none" stroke="#191970" d="M262.2589,-38.7338C270.6796,-37.565 279.2933,-36.3694 287.7067,-35.2016"/>
<polygon fill="#191970" stroke="#191970" points="288.4197,-38.6363 297.8435,-33.7946 287.4572,-31.7027 288.4197,-38.6363"/>
</g>
</g>
</svg>
