<?xml version="1.0" encoding="UTF-8" standalone="no"?>
<!DOCTYPE svg PUBLIC "-//W3C//DTD SVG 1.1//EN"
 "http://www.w3.org/Graphics/SVG/1.1/DTD/svg11.dtd">
<!-- Generated by graphviz version 10.0.1 (20240210.2158)
 -->
<!-- Title: zrtos_clist__get_last_node Pages: 1 -->
<svg width="560pt" height="178pt"
 viewBox="0.00 0.00 559.50 178.00" xmlns="http://www.w3.org/2000/svg" xmlns:xlink="http://www.w3.org/1999/xlink">
<g id="graph0" class="graph" transform="scale(1 1) rotate(0) translate(4 174)">
<title>zrtos_clist__get_last_node</title>
<!-- Node1 -->
<g id="Node000001" class="node">
<title>Node1</title>
<g id="a_Node000001"><a xlink:title=" ">
<polygon fill="#999999" stroke="#666666" points="551.5,-111 419.25,-111 419.25,-91 551.5,-91 551.5,-111"/>
<text text-anchor="middle" x="485.38" y="-97.5" font-family="Helvetica,sans-Serif" font-size="10.00">zrtos_clist__get_last_node</text>
</a>
</g>
</g>
<!-- Node2 -->
<g id="Node000002" class="node">
<title>Node2</title>
<g id="a_Node000002"><a xlink:href="clist_8h.html#a93c384bab6f49732e1fd1aff0cbb0e2b" target="_top" xlink:title=" ">
<polygon fill="white" stroke="#666666" points="380.62,-130 293.38,-130 293.38,-110 380.62,-110 380.62,-130"/>
<text text-anchor="middle" x="337" y="-116.5" font-family="Helvetica,sans-Serif" font-size="10.00">zrtos_clist__pop</text>
</a>
</g>
</g>
<!-- Node1&#45;&gt;Node2 -->
<g id="edge1_Node000001_Node000002" class="edge">
<title>Node1&#45;&gt;Node2</title>
<g id="a_edge1_Node000001_Node000002"><a xlink:title=" ">
<path fill="none" stroke="#63b8ff" d="M407.63,-110.96C398.39,-112.16 389.23,-113.35 380.74,-114.45"/>
<polygon fill="#63b8ff" stroke="#63b8ff" points="407.93,-114.45 417.39,-109.69 407.03,-107.51 407.93,-114.45"/>
</a>
</g>
</g>
<!-- Node3 -->
<g id="Node000003" class="node">
<title>Node3</title>
<g id="a_Node000003"><a xlink:href="clist_8h.html#a853d4178de18748d3bee28700929bda4" target="_top" xlink:title=" ">
<polygon fill="white" stroke="#666666" points="383.25,-92 290.75,-92 290.75,-72 383.25,-72 383.25,-92"/>
<text text-anchor="middle" x="337" y="-78.5" font-family="Helvetica,sans-Serif" font-size="10.00">zrtos_clist__push</text>
</a>
</g>
</g>
<!-- Node1&#45;&gt;Node3 -->
<g id="edge2_Node000001_Node000003" class="edge">
<title>Node1&#45;&gt;Node3</title>
<g id="a_edge2_Node000001_Node000003"><a xlink:title=" ">
<path fill="none" stroke="#63b8ff" d="M407.72,-91.05C399.52,-89.99 391.39,-88.93 383.72,-87.93"/>
<polygon fill="#63b8ff" stroke="#63b8ff" points="407.03,-94.49 417.39,-92.31 407.93,-87.55 407.03,-94.49"/>
</a>
</g>
</g>
<!-- Node4 -->
<g id="Node000004" class="node">
<title>Node4</title>
<g id="a_Node000004"><a xlink:href="task__scheduler_8h.html#ae82b03fcfb70e448c4a0bbd59ef8a035" target="_top" xlink:title=" ">
<polygon fill="white" stroke="#666666" points="254.38,-170 145.38,-170 145.38,-138 254.38,-138 254.38,-170"/>
<text text-anchor="start" x="153.38" y="-156.5" font-family="Helvetica,sans-Serif" font-size="10.00">zrtos_task_scheduler</text>
<text text-anchor="middle" x="199.88" y="-144.5" font-family="Helvetica,sans-Serif" font-size="10.00">__add_task</text>
</a>
</g>
</g>
<!-- Node3&#45;&gt;Node4 -->
<g id="edge3_Node000003_Node000004" class="edge">
<title>Node3&#45;&gt;Node4</title>
<g id="a_edge3_Node000003_Node000004"><a xlink:title=" ">
<path fill="none" stroke="#63b8ff" d="M297.92,-97.11C295.45,-98.36 293.05,-99.66 290.75,-101 273.25,-111.23 272.05,-118.44 254.75,-129 249.82,-132.01 244.47,-134.89 239.12,-137.57"/>
<polygon fill="#63b8ff" stroke="#63b8ff" points="299.21,-100.37 306.79,-92.97 296.25,-94.03 299.21,-100.37"/>
</a>
</g>
</g>
<!-- Node6 -->
<g id="Node000006" class="node">
<title>Node6</title>
<g id="a_Node000006"><a xlink:href="task__scheduler_8h.html#a1e85f61c031a36a33f08d891597103b2" target="_top" xlink:title=" ">
<polygon fill="white" stroke="#666666" points="254.38,-120 145.38,-120 145.38,-88 254.38,-88 254.38,-120"/>
<text text-anchor="start" x="153.38" y="-106.5" font-family="Helvetica,sans-Serif" font-size="10.00">zrtos_task_scheduler</text>
<text text-anchor="middle" x="199.88" y="-94.5" font-family="Helvetica,sans-Serif" font-size="10.00">__init</text>
</a>
</g>
</g>
<!-- Node3&#45;&gt;Node6 -->
<g id="edge5_Node000003_Node000006" class="edge">
<title>Node3&#45;&gt;Node6</title>
<g id="a_edge5_Node000003_Node000006"><a xlink:title=" ">
<path fill="none" stroke="#63b8ff" d="M278.98,-91.28C270.87,-92.6 262.55,-93.96 254.51,-95.27"/>
<polygon fill="#63b8ff" stroke="#63b8ff" points="279.45,-94.75 288.76,-89.69 278.33,-87.84 279.45,-94.75"/>
</a>
</g>
</g>
<!-- Node7 -->
<g id="Node000007" class="node">
<title>Node7</title>
<g id="a_Node000007"><a xlink:href="vfs__dentry_8h.html#a568a74f7d927fbb181bcbf96621ffd8c" target="_top" xlink:title=" ">
<polygon fill="white" stroke="#666666" points="254.75,-70 145,-70 145,-50 254.75,-50 254.75,-70"/>
<text text-anchor="middle" x="199.88" y="-56.5" font-family="Helvetica,sans-Serif" font-size="10.00">zrtos_vfs_dentry__init</text>
</a>
</g>
</g>
<!-- Node3&#45;&gt;Node7 -->
<g id="edge6_Node000003_Node000007" class="edge">
<title>Node3&#45;&gt;Node7</title>
<g id="a_edge6_Node000003_Node000007"><a xlink:title=" ">
<path fill="none" stroke="#63b8ff" d="M279.13,-72.74C271.13,-71.44 262.93,-70.1 254.98,-68.81"/>
<polygon fill="#63b8ff" stroke="#63b8ff" points="278.33,-76.16 288.76,-74.31 279.45,-69.25 278.33,-76.16"/>
</a>
</g>
</g>
<!-- Node8 -->
<g id="Node000008" class="node">
<title>Node8</title>
<g id="a_Node000008"><a xlink:href="spi_2spi_8h.html#a18e98b2ff2735e9c263e143d51880842" target="_top" xlink:title=" ">
<polygon fill="white" stroke="#666666" points="254.38,-32 145.38,-32 145.38,0 254.38,0 254.38,-32"/>
<text text-anchor="start" x="153.38" y="-18.5" font-family="Helvetica,sans-Serif" font-size="10.00">zrtos_vfs_module_spi</text>
<text text-anchor="middle" x="199.88" y="-6.5" font-family="Helvetica,sans-Serif" font-size="10.00">_file__init</text>
</a>
</g>
</g>
<!-- Node3&#45;&gt;Node8 -->
<g id="edge7_Node000003_Node000008" class="edge">
<title>Node3&#45;&gt;Node8</title>
<g id="a_edge7_Node000003_Node000008"><a xlink:title=" ">
<path fill="none" stroke="#63b8ff" d="M305.8,-66.47C290.56,-58.7 271.74,-49.22 254.75,-41 248.9,-38.17 242.67,-35.22 236.6,-32.38"/>
<polygon fill="#63b8ff" stroke="#63b8ff" points="303.88,-69.41 314.38,-70.85 307.06,-63.18 303.88,-69.41"/>
</a>
</g>
</g>
<!-- Node5 -->
<g id="Node000005" class="node">
<title>Node5</title>
<g id="a_Node000005"><a xlink:href="task__pthread_8h.html#a091adcef6201bebbf231763328c15286" target="_top" xlink:title=" ">
<polygon fill="white" stroke="#666666" points="94.75,-164 14.25,-164 14.25,-144 94.75,-144 94.75,-164"/>
<text text-anchor="middle" x="54.5" y="-150.5" font-family="Helvetica,sans-Serif" font-size="10.00">pthread_create</text>
</a>
</g>
</g>
<!-- Node4&#45;&gt;Node5 -->
<g id="edge4_Node000004_Node000005" class="edge">
<title>Node4&#45;&gt;Node5</title>
<g id="a_edge4_Node000004_Node000005"><a xlink:title=" ">
<path fill="none" stroke="#63b8ff" d="M133.57,-154C120.34,-154 106.81,-154 94.82,-154"/>
<polygon fill="#63b8ff" stroke="#63b8ff" points="133.57,-157.5 143.57,-154 133.57,-150.5 133.57,-157.5"/>
</a>
</g>
</g>
<!-- Node9 -->
<g id="Node000009" class="node">
<title>Node9</title>
<g id="a_Node000009"><a xlink:href="spi_2spi_8h.html#a233cf747fcbc04752c320e48e8101632" target="_top" xlink:title=" ">
<polygon fill="white" stroke="#666666" points="109,-32 0,-32 0,0 109,0 109,-32"/>
<text text-anchor="start" x="8" y="-18.5" font-family="Helvetica,sans-Serif" font-size="10.00">zrtos_vfs_module_spi</text>
<text text-anchor="middle" x="54.5" y="-6.5" font-family="Helvetica,sans-Serif" font-size="10.00">_file__new</text>
</a>
</g>
</g>
<!-- Node8&#45;&gt;Node9 -->
<g id="edge8_Node000008_Node000009" class="edge">
<title>Node8&#45;&gt;Node9</title>
<g id="a_edge8_Node000008_Node000009"><a xlink:title=" ">
<path fill="none" stroke="#63b8ff" d="M133.61,-16C125.42,-16 117.11,-16 109.12,-16"/>
<polygon fill="#63b8ff" stroke="#63b8ff" points="133.57,-19.5 143.57,-16 133.57,-12.5 133.57,-19.5"/>
</a>
</g>
</g>
</g>
</svg>
