<?xml version="1.0" encoding="UTF-8" standalone="no"?>
<!DOCTYPE svg PUBLIC "-//W3C//DTD SVG 1.1//EN"
 "http://www.w3.org/Graphics/SVG/1.1/DTD/svg11.dtd">
<!-- Generated by graphviz version 2.40.1 (20161225.0304)
 -->
<!-- Title: zrtos_clist__delete Pages: 1 -->
<svg width="507pt" height="165pt"
 viewBox="0.00 0.00 507.00 164.50" xmlns="http://www.w3.org/2000/svg" xmlns:xlink="http://www.w3.org/1999/xlink">
<g id="graph0" class="graph" transform="scale(1 1) rotate(0) translate(4 160.5)">
<title>zrtos_clist__delete</title>
<polygon fill="#ffffff" stroke="transparent" points="-4,4 -4,-160.5 503,-160.5 503,4 -4,4"/>
<!-- Node2 -->
<g id="node1" class="node">
<title>Node2</title>
<polygon fill="#bfbfbf" stroke="#000000" points="0,-77 0,-96 98,-96 98,-77 0,-77"/>
<text text-anchor="middle" x="49" y="-84" font-family="Helvetica,sans-Serif" font-size="10.00" fill="#000000">zrtos_clist__delete</text>
</g>
<!-- Node3 -->
<g id="node2" class="node">
<title>Node3</title>
<g id="a_node2"><a xlink:href="clist_8h.html#a05304487f5b28bb930138fd203a2771f" target="_top" xlink:title="zrtos_clist__pop">
<polygon fill="#ffffff" stroke="#000000" points="146,-137 146,-156 234,-156 234,-137 146,-137"/>
<text text-anchor="middle" x="190" y="-144" font-family="Helvetica,sans-Serif" font-size="10.00" fill="#000000">zrtos_clist__pop</text>
</a>
</g>
</g>
<!-- Node2&#45;&gt;Node3 -->
<g id="edge1" class="edge">
<title>Node2&#45;&gt;Node3</title>
<path fill="none" stroke="#191970" d="M76.3408,-100.7421C92.8178,-109.0587 114.3514,-119.4632 134,-127.5 142.1721,-130.8426 151.1734,-134.0836 159.5245,-136.9141"/>
<polygon fill="#191970" stroke="#191970" points="77.7749,-97.5447 67.2762,-96.1204 74.5952,-103.7809 77.7749,-97.5447"/>
</g>
<!-- Node4 -->
<g id="node3" class="node">
<title>Node4</title>
<g id="a_node3"><a xlink:href="clist_8h.html#a08456bcd3bffd9ba863c8ef7327137dd" target="_top" xlink:title="zrtos_clist__shift">
<polygon fill="#ffffff" stroke="#000000" points="144.5,-99 144.5,-118 235.5,-118 235.5,-99 144.5,-99"/>
<text text-anchor="middle" x="190" y="-106" font-family="Helvetica,sans-Serif" font-size="10.00" fill="#000000">zrtos_clist__shift</text>
</a>
</g>
</g>
<!-- Node2&#45;&gt;Node4 -->
<g id="edge2" class="edge">
<title>Node2&#45;&gt;Node4</title>
<path fill="none" stroke="#191970" d="M108.2815,-95.7496C120.3096,-97.6263 132.7848,-99.5728 144.2579,-101.3629"/>
<polygon fill="#191970" stroke="#191970" points="108.735,-92.2781 98.315,-94.1945 107.6558,-99.1944 108.735,-92.2781"/>
</g>
<!-- Node5 -->
<g id="node4" class="node">
<title>Node5</title>
<g id="a_node4"><a xlink:href="spi_2spi_8h.html#a32046c6fe4df16f4795a3de4fdf61f8f" target="_top" xlink:title="zrtos_vfs_module_spi\l_file__deinit">
<polygon fill="#ffffff" stroke="#000000" points="134,-49.5 134,-79.5 246,-79.5 246,-49.5 134,-49.5"/>
<text text-anchor="start" x="142" y="-67.5" font-family="Helvetica,sans-Serif" font-size="10.00" fill="#000000">zrtos_vfs_module_spi</text>
<text text-anchor="middle" x="190" y="-56.5" font-family="Helvetica,sans-Serif" font-size="10.00" fill="#000000">_file__deinit</text>
</a>
</g>
</g>
<!-- Node2&#45;&gt;Node5 -->
<g id="edge3" class="edge">
<title>Node2&#45;&gt;Node5</title>
<path fill="none" stroke="#191970" d="M108.4044,-77.2312C116.7903,-75.9228 125.3911,-74.5808 133.7159,-73.2819"/>
<polygon fill="#191970" stroke="#191970" points="107.6558,-73.8056 98.315,-78.8055 108.735,-80.7219 107.6558,-73.8056"/>
</g>
<!-- Node7 -->
<g id="node6" class="node">
<title>Node7</title>
<g id="a_node6"><a xlink:href="task__scheduler_8h.html#a8eaf55f184537faea5e8e9641ed4ad27" target="_top" xlink:title="zrtos_task_scheduler\l__remove_task">
<polygon fill="#ffffff" stroke="#000000" points="135,-.5 135,-30.5 245,-30.5 245,-.5 135,-.5"/>
<text text-anchor="start" x="143" y="-18.5" font-family="Helvetica,sans-Serif" font-size="10.00" fill="#000000">zrtos_task_scheduler</text>
<text text-anchor="middle" x="190" y="-7.5" font-family="Helvetica,sans-Serif" font-size="10.00" fill="#000000">__remove_task</text>
</a>
</g>
</g>
<!-- Node2&#45;&gt;Node7 -->
<g id="edge5" class="edge">
<title>Node2&#45;&gt;Node7</title>
<path fill="none" stroke="#191970" d="M74.1557,-71.7206C90.8912,-62.1056 113.4875,-49.5353 134,-39.5 140.1759,-36.4786 146.8258,-33.4442 153.3109,-30.5983"/>
<polygon fill="#191970" stroke="#191970" points="71.9398,-68.9592 65.0394,-76.9988 75.4473,-75.0171 71.9398,-68.9592"/>
</g>
<!-- Node6 -->
<g id="node5" class="node">
<title>Node6</title>
<g id="a_node5"><a xlink:href="spi_2spi_8h.html#ae37ac67ac292b108b745f060bd34c7de" target="_top" xlink:title="zrtos_vfs_module_spi\l_file__free">
<polygon fill="#ffffff" stroke="#000000" points="282,-49.5 282,-79.5 394,-79.5 394,-49.5 282,-49.5"/>
<text text-anchor="start" x="290" y="-67.5" font-family="Helvetica,sans-Serif" font-size="10.00" fill="#000000">zrtos_vfs_module_spi</text>
<text text-anchor="middle" x="338" y="-56.5" font-family="Helvetica,sans-Serif" font-size="10.00" fill="#000000">_file__free</text>
</a>
</g>
</g>
<!-- Node5&#45;&gt;Node6 -->
<g id="edge4" class="edge">
<title>Node5&#45;&gt;Node6</title>
<path fill="none" stroke="#191970" d="M256.5579,-64.5C264.9836,-64.5 273.5393,-64.5 281.7821,-64.5"/>
<polygon fill="#191970" stroke="#191970" points="256.3747,-61.0001 246.3747,-64.5 256.3746,-68.0001 256.3747,-61.0001"/>
</g>
<!-- Node8 -->
<g id="node7" class="node">
<title>Node8</title>
<g id="a_node7"><a xlink:href="task__pthread_8h.html#a138580b425fd21586b4efd4ab448d593" target="_top" xlink:title="zrtos_task_pthread\l__free">
<polygon fill="#ffffff" stroke="#000000" points="288,-.5 288,-30.5 388,-30.5 388,-.5 288,-.5"/>
<text text-anchor="start" x="296" y="-18.5" font-family="Helvetica,sans-Serif" font-size="10.00" fill="#000000">zrtos_task_pthread</text>
<text text-anchor="middle" x="338" y="-7.5" font-family="Helvetica,sans-Serif" font-size="10.00" fill="#000000">__free</text>
</a>
</g>
</g>
<!-- Node7&#45;&gt;Node8 -->
<g id="edge6" class="edge">
<title>Node7&#45;&gt;Node8</title>
<path fill="none" stroke="#191970" d="M255.3993,-15.5C266.2435,-15.5 277.3375,-15.5 287.7326,-15.5"/>
<polygon fill="#191970" stroke="#191970" points="255.1098,-12.0001 245.1097,-15.5 255.1097,-19.0001 255.1098,-12.0001"/>
</g>
<!-- Node9 -->
<g id="node8" class="node">
<title>Node9</title>
<g id="a_node8"><a xlink:href="task__pthread_8h.html#a28a15bba47cab57cbc9f5dac9af99c8b" target="_top" xlink:title="pthread_join">
<polygon fill="#ffffff" stroke="#000000" points="430,-6 430,-25 499,-25 499,-6 430,-6"/>
<text text-anchor="middle" x="464.5" y="-13" font-family="Helvetica,sans-Serif" font-size="10.00" fill="#000000">pthread_join</text>
</a>
</g>
</g>
<!-- Node8&#45;&gt;Node9 -->
<g id="edge7" class="edge">
<title>Node8&#45;&gt;Node9</title>
<path fill="none" stroke="#191970" d="M398.5843,-15.5C409.3238,-15.5 420.1659,-15.5 429.8693,-15.5"/>
<polygon fill="#191970" stroke="#191970" points="398.3597,-12.0001 388.3596,-15.5 398.3596,-19.0001 398.3597,-12.0001"/>
</g>
</g>
</svg>
