<?xml version="1.0" encoding="UTF-8" standalone="no"?>
<!DOCTYPE svg PUBLIC "-//W3C//DTD SVG 1.1//EN"
 "http://www.w3.org/Graphics/SVG/1.1/DTD/svg11.dtd">
<!-- Generated by graphviz version 10.0.1 (20240210.2158)
 -->
<!-- Title: zrtos_clist__pop Pages: 1 -->
<svg width="411pt" height="78pt"
 viewBox="0.00 0.00 410.75 78.00" xmlns="http://www.w3.org/2000/svg" xmlns:xlink="http://www.w3.org/1999/xlink">
<g id="graph0" class="graph" transform="scale(1 1) rotate(0) translate(4 74)">
<title>zrtos_clist__pop</title>
<!-- Node1 -->
<g id="Node000001" class="node">
<title>Node1</title>
<g id="a_Node000001"><a xlink:title=" ">
<polygon fill="#999999" stroke="#666666" points="87.25,-45 0,-45 0,-25 87.25,-25 87.25,-45"/>
<text text-anchor="middle" x="43.62" y="-31.5" font-family="Helvetica,sans-Serif" font-size="10.00">zrtos_clist__pop</text>
</a>
</g>
</g>
<!-- Node2 -->
<g id="Node000002" class="node">
<title>Node2</title>
<g id="a_Node000002"><a xlink:href="clist_8h.html#a383b927f3eeb7f78f5ae9929138a635f" target="_top" xlink:title=" ">
<polygon fill="white" stroke="#666666" points="238.25,-64 140.5,-64 140.5,-44 238.25,-44 238.25,-64"/>
<text text-anchor="middle" x="189.38" y="-50.5" font-family="Helvetica,sans-Serif" font-size="10.00">zrtos_clist__delete</text>
</a>
</g>
</g>
<!-- Node1&#45;&gt;Node2 -->
<g id="edge1_Node000001_Node000002" class="edge">
<title>Node1&#45;&gt;Node2</title>
<g id="a_edge1_Node000001_Node000002"><a xlink:title=" ">
<path fill="none" stroke="#63b8ff" d="M87.37,-40.65C100.43,-42.38 115.03,-44.31 128.99,-46.15"/>
<polygon fill="#63b8ff" stroke="#63b8ff" points="128.13,-49.57 138.5,-47.41 129.05,-42.63 128.13,-49.57"/>
</a>
</g>
</g>
<!-- Node4 -->
<g id="Node000004" class="node">
<title>Node4</title>
<g id="a_Node000004"><a xlink:href="clist_8h.html#ad48884723dee26734c89f80bef68d0d5" target="_top" xlink:title=" ">
<polygon fill="white" stroke="#666666" points="255.5,-26 123.25,-26 123.25,-6 255.5,-6 255.5,-26"/>
<text text-anchor="middle" x="189.38" y="-12.5" font-family="Helvetica,sans-Serif" font-size="10.00">zrtos_clist__get_last_node</text>
</a>
</g>
</g>
<!-- Node1&#45;&gt;Node4 -->
<g id="edge3_Node000001_Node000004" class="edge">
<title>Node1&#45;&gt;Node4</title>
<g id="a_edge3_Node000001_Node000004"><a xlink:title=" ">
<path fill="none" stroke="#63b8ff" d="M87.37,-29.35C95.05,-28.34 103.26,-27.25 111.57,-26.15"/>
<polygon fill="#63b8ff" stroke="#63b8ff" points="111.95,-29.63 121.4,-24.85 111.03,-22.69 111.95,-29.63"/>
</a>
</g>
</g>
<!-- Node3 -->
<g id="Node000003" class="node">
<title>Node3</title>
<g id="a_Node000003"><a xlink:href="clist_8h.html#a7e4e2a2b78267e86a322ece473242b47" target="_top" xlink:title=" ">
<polygon fill="white" stroke="#666666" points="402.75,-70 291.5,-70 291.5,-38 402.75,-38 402.75,-70"/>
<text text-anchor="start" x="299.5" y="-56.5" font-family="Helvetica,sans-Serif" font-size="10.00">zrtos_clist_node__get</text>
<text text-anchor="middle" x="347.12" y="-44.5" font-family="Helvetica,sans-Serif" font-size="10.00">_previous_node</text>
</a>
</g>
</g>
<!-- Node2&#45;&gt;Node3 -->
<g id="edge2_Node000002_Node000003" class="edge">
<title>Node2&#45;&gt;Node3</title>
<g id="a_edge2_Node000002_Node000003"><a xlink:title=" ">
<path fill="none" stroke="#63b8ff" d="M238.38,-54C251.43,-54 265.81,-54 279.7,-54"/>
<polygon fill="#63b8ff" stroke="#63b8ff" points="279.69,-57.5 289.69,-54 279.69,-50.5 279.69,-57.5"/>
</a>
</g>
</g>
<!-- Node4&#45;&gt;Node3 -->
<g id="edge5_Node000004_Node000003" class="edge">
<title>Node4&#45;&gt;Node3</title>
<g id="a_edge5_Node000004_Node000003"><a xlink:title=" ">
<path fill="none" stroke="#63b8ff" d="M233.35,-26.48C247.83,-30.02 264.35,-34.05 280.19,-37.91"/>
<polygon fill="#63b8ff" stroke="#63b8ff" points="279,-41.23 289.55,-40.2 280.66,-34.43 279,-41.23"/>
</a>
</g>
</g>
<!-- Node5 -->
<g id="Node000005" class="node">
<title>Node5</title>
<g id="a_Node000005"><a xlink:href="clist_8h.html#acab2b5c771ea45635a9621a9dc1382d4" target="_top" xlink:title=" ">
<polygon fill="white" stroke="#666666" points="400.5,-20 293.75,-20 293.75,0 400.5,0 400.5,-20"/>
<text text-anchor="middle" x="347.12" y="-6.5" font-family="Helvetica,sans-Serif" font-size="10.00">zrtos_clist__get_root</text>
</a>
</g>
</g>
<!-- Node4&#45;&gt;Node5 -->
<g id="edge4_Node000004_Node000005" class="edge">
<title>Node4&#45;&gt;Node5</title>
<g id="a_edge4_Node000004_Node000005"><a xlink:title=" ">
<path fill="none" stroke="#63b8ff" d="M255.98,-13.47C264.55,-13.14 273.33,-12.8 281.88,-12.48"/>
<polygon fill="#63b8ff" stroke="#63b8ff" points="281.99,-15.97 291.84,-12.09 281.72,-8.98 281.99,-15.97"/>
</a>
</g>
</g>
</g>
</svg>
