<?xml version="1.0" encoding="UTF-8" standalone="no"?>
<!DOCTYPE svg PUBLIC "-//W3C//DTD SVG 1.1//EN"
 "http://www.w3.org/Graphics/SVG/1.1/DTD/svg11.dtd">
<!-- Generated by graphviz version 10.0.1 (20240210.2158)
 -->
<!-- Title: zrtos_clist_node__init Pages: 1 -->
<svg width="554pt" height="144pt"
 viewBox="0.00 0.00 554.25 144.00" xmlns="http://www.w3.org/2000/svg" xmlns:xlink="http://www.w3.org/1999/xlink">
<g id="graph0" class="graph" transform="scale(1 1) rotate(0) translate(4 140)">
<title>zrtos_clist_node__init</title>
<!-- Node1 -->
<g id="Node000001" class="node">
<title>Node1</title>
<g id="a_Node000001"><a xlink:title=" ">
<polygon fill="#999999" stroke="#666666" points="546.25,-70 435.75,-70 435.75,-50 546.25,-50 546.25,-70"/>
<text text-anchor="middle" x="491" y="-56.5" font-family="Helvetica,sans-Serif" font-size="10.00">zrtos_clist_node__init</text>
</a>
</g>
</g>
<!-- Node2 -->
<g id="Node000002" class="node">
<title>Node2</title>
<g id="a_Node000002"><a xlink:href="task_8h.html#a57b11c5affd2719f0abf5fa9bc8feaa6" target="_top" xlink:title=" ">
<polygon fill="white" stroke="#666666" points="387.38,-108 302.38,-108 302.38,-88 387.38,-88 387.38,-108"/>
<text text-anchor="middle" x="344.88" y="-94.5" font-family="Helvetica,sans-Serif" font-size="10.00">zrtos_task__init</text>
</a>
</g>
</g>
<!-- Node1&#45;&gt;Node2 -->
<g id="edge1_Node000001_Node000002" class="edge">
<title>Node1&#45;&gt;Node2</title>
<g id="a_edge1_Node000001_Node000002"><a xlink:title=" ">
<path fill="none" stroke="#63b8ff" d="M439.25,-73.38C421.62,-78.03 402.11,-83.17 385.51,-87.55"/>
<polygon fill="#63b8ff" stroke="#63b8ff" points="439.99,-76.8 448.77,-70.87 438.21,-70.04 439.99,-76.8"/>
</a>
</g>
</g>
<!-- Node6 -->
<g id="Node000006" class="node">
<title>Node6</title>
<g id="a_Node000006"><a xlink:href="vfs__dentry_8h.html#a568a74f7d927fbb181bcbf96621ffd8c" target="_top" xlink:title=" ">
<polygon fill="white" stroke="#666666" points="399.75,-70 290,-70 290,-50 399.75,-50 399.75,-70"/>
<text text-anchor="middle" x="344.88" y="-56.5" font-family="Helvetica,sans-Serif" font-size="10.00">zrtos_vfs_dentry__init</text>
</a>
</g>
</g>
<!-- Node1&#45;&gt;Node6 -->
<g id="edge5_Node000001_Node000006" class="edge">
<title>Node1&#45;&gt;Node6</title>
<g id="a_edge5_Node000001_Node000006"><a xlink:title=" ">
<path fill="none" stroke="#63b8ff" d="M424.17,-60C416.07,-60 407.86,-60 399.96,-60"/>
<polygon fill="#63b8ff" stroke="#63b8ff" points="424,-63.5 434,-60 424,-56.5 424,-63.5"/>
</a>
</g>
</g>
<!-- Node7 -->
<g id="Node000007" class="node">
<title>Node7</title>
<g id="a_Node000007"><a xlink:href="spi_2spi_8h.html#adc81737c639ce158493c00f190803a81" target="_top" xlink:title=" ">
<polygon fill="white" stroke="#666666" points="399.38,-32 290.38,-32 290.38,0 399.38,0 399.38,-32"/>
<text text-anchor="start" x="298.38" y="-18.5" font-family="Helvetica,sans-Serif" font-size="10.00">zrtos_vfs_module_spi</text>
<text text-anchor="middle" x="344.88" y="-6.5" font-family="Helvetica,sans-Serif" font-size="10.00">_file__init</text>
</a>
</g>
</g>
<!-- Node1&#45;&gt;Node7 -->
<g id="edge6_Node000001_Node000007" class="edge">
<title>Node1&#45;&gt;Node7</title>
<g id="a_edge6_Node000001_Node000007"><a xlink:title=" ">
<path fill="none" stroke="#63b8ff" d="M445.22,-46.33C430.84,-41.94 414.75,-37.03 399.79,-32.46"/>
<polygon fill="#63b8ff" stroke="#63b8ff" points="443.81,-49.56 454.4,-49.13 445.85,-42.86 443.81,-49.56"/>
</a>
</g>
</g>
<!-- Node3 -->
<g id="Node000003" class="node">
<title>Node3</title>
<g id="a_Node000003"><a xlink:href="task_8h.html#a6834fca580b85c21da7be34f815f5f50" target="_top" xlink:title=" ">
<polygon fill="white" stroke="#666666" points="249.88,-136 149.12,-136 149.12,-116 249.88,-116 249.88,-136"/>
<text text-anchor="middle" x="199.5" y="-122.5" font-family="Helvetica,sans-Serif" font-size="10.00">zrtos_task__init_ex</text>
</a>
</g>
</g>
<!-- Node2&#45;&gt;Node3 -->
<g id="edge2_Node000002_Node000003" class="edge">
<title>Node2&#45;&gt;Node3</title>
<g id="a_edge2_Node000002_Node000003"><a xlink:title=" ">
<path fill="none" stroke="#63b8ff" d="M291.08,-108.31C277.74,-110.92 263.45,-113.71 250.27,-116.28"/>
<polygon fill="#63b8ff" stroke="#63b8ff" points="291.39,-111.82 300.53,-106.46 290.05,-104.95 291.39,-111.82"/>
</a>
</g>
</g>
<!-- Node5 -->
<g id="Node000005" class="node">
<title>Node5</title>
<g id="a_Node000005"><a xlink:href="task__scheduler_8h.html#a1e85f61c031a36a33f08d891597103b2" target="_top" xlink:title=" ">
<polygon fill="white" stroke="#666666" points="254,-98 145,-98 145,-66 254,-66 254,-98"/>
<text text-anchor="start" x="153" y="-84.5" font-family="Helvetica,sans-Serif" font-size="10.00">zrtos_task_scheduler</text>
<text text-anchor="middle" x="199.5" y="-72.5" font-family="Helvetica,sans-Serif" font-size="10.00">__init</text>
</a>
</g>
</g>
<!-- Node2&#45;&gt;Node5 -->
<g id="edge4_Node000002_Node000005" class="edge">
<title>Node2&#45;&gt;Node5</title>
<g id="a_edge4_Node000002_Node000005"><a xlink:title=" ">
<path fill="none" stroke="#63b8ff" d="M290.89,-92.09C279,-90.76 266.36,-89.35 254.43,-88.02"/>
<polygon fill="#63b8ff" stroke="#63b8ff" points="290.19,-95.53 300.52,-93.16 290.97,-88.57 290.19,-95.53"/>
</a>
</g>
</g>
<!-- Node4 -->
<g id="Node000004" class="node">
<title>Node4</title>
<g id="a_Node000004"><a xlink:href="task__pthread_8h.html#a091adcef6201bebbf231763328c15286" target="_top" xlink:title=" ">
<polygon fill="white" stroke="#666666" points="94.75,-136 14.25,-136 14.25,-116 94.75,-116 94.75,-136"/>
<text text-anchor="middle" x="54.5" y="-122.5" font-family="Helvetica,sans-Serif" font-size="10.00">pthread_create</text>
</a>
</g>
</g>
<!-- Node3&#45;&gt;Node4 -->
<g id="edge3_Node000003_Node000004" class="edge">
<title>Node3&#45;&gt;Node4</title>
<g id="a_edge3_Node000003_Node000004"><a xlink:title=" ">
<path fill="none" stroke="#63b8ff" d="M137.54,-126C123.19,-126 108.25,-126 95.12,-126"/>
<polygon fill="#63b8ff" stroke="#63b8ff" points="137.37,-129.5 147.37,-126 137.37,-122.5 137.37,-129.5"/>
</a>
</g>
</g>
<!-- Node8 -->
<g id="Node000008" class="node">
<title>Node8</title>
<g id="a_Node000008"><a xlink:href="spi_2spi_8h.html#a68d36087dcd9899d09463ff64ac782db" target="_top" xlink:title=" ">
<polygon fill="white" stroke="#666666" points="254,-32 145,-32 145,0 254,0 254,-32"/>
<text text-anchor="start" x="153" y="-18.5" font-family="Helvetica,sans-Serif" font-size="10.00">zrtos_vfs_module_spi</text>
<text text-anchor="middle" x="199.5" y="-6.5" font-family="Helvetica,sans-Serif" font-size="10.00">_file__new</text>
</a>
</g>
</g>
<!-- Node7&#45;&gt;Node8 -->
<g id="edge7_Node000007_Node000008" class="edge">
<title>Node7&#45;&gt;Node8</title>
<g id="a_edge7_Node000007_Node000008"><a xlink:title=" ">
<path fill="none" stroke="#63b8ff" d="M278.61,-16C270.42,-16 262.11,-16 254.12,-16"/>
<polygon fill="#63b8ff" stroke="#63b8ff" points="278.57,-19.5 288.57,-16 278.57,-12.5 278.57,-19.5"/>
</a>
</g>
</g>
<!-- Node9 -->
<g id="Node000009" class="node">
<title>Node9</title>
<g id="a_Node000009"><a xlink:href="spi_2spi_8h.html#a2b1a737572f04d30eff7cfa9c6911fed" target="_top" xlink:title=" ">
<polygon fill="white" stroke="#666666" points="109,-32 0,-32 0,0 109,0 109,-32"/>
<text text-anchor="start" x="8" y="-18.5" font-family="Helvetica,sans-Serif" font-size="10.00">zrtos_vfs_module_spi</text>
<text text-anchor="middle" x="54.5" y="-6.5" font-family="Helvetica,sans-Serif" font-size="10.00">__on_open</text>
</a>
</g>
</g>
<!-- Node8&#45;&gt;Node9 -->
<g id="edge8_Node000008_Node000009" class="edge">
<title>Node8&#45;&gt;Node9</title>
<g id="a_edge8_Node000008_Node000009"><a xlink:title=" ">
<path fill="none" stroke="#63b8ff" d="M133.56,-16C125.5,-16 117.33,-16 109.46,-16"/>
<polygon fill="#63b8ff" stroke="#63b8ff" points="133.33,-19.5 143.33,-16 133.33,-12.5 133.33,-19.5"/>
</a>
</g>
</g>
</g>
</svg>
