<?xml version="1.0" encoding="UTF-8" standalone="no"?>
<!DOCTYPE svg PUBLIC "-//W3C//DTD SVG 1.1//EN"
 "http://www.w3.org/Graphics/SVG/1.1/DTD/svg11.dtd">
<!-- Generated by graphviz version 2.40.1 (20161225.0304)
 -->
<!-- Title: zrtos_clist__shift Pages: 1 -->
<svg width="417pt" height="72pt"
 viewBox="0.00 0.00 417.00 71.50" xmlns="http://www.w3.org/2000/svg" xmlns:xlink="http://www.w3.org/1999/xlink">
<g id="graph0" class="graph" transform="scale(1 1) rotate(0) translate(4 67.5)">
<title>zrtos_clist__shift</title>
<polygon fill="#ffffff" stroke="transparent" points="-4,4 -4,-67.5 413,-67.5 413,4 -4,4"/>
<!-- Node111 -->
<g id="node1" class="node">
<title>Node111</title>
<polygon fill="#bfbfbf" stroke="#000000" points="0,-25 0,-44 91,-44 91,-25 0,-25"/>
<text text-anchor="middle" x="45.5" y="-32" font-family="Helvetica,sans-Serif" font-size="10.00" fill="#000000">zrtos_clist__shift</text>
</g>
<!-- Node112 -->
<g id="node2" class="node">
<title>Node112</title>
<g id="a_node2"><a xlink:href="clist_8h.html#a22e07bfa2fa52e989a4239f4d359df4a" target="_top" xlink:title="zrtos_clist__get_first_node">
<polygon fill="#ffffff" stroke="#000000" points="127,-44 127,-63 261,-63 261,-44 127,-44"/>
<text text-anchor="middle" x="194" y="-51" font-family="Helvetica,sans-Serif" font-size="10.00" fill="#000000">zrtos_clist__get_first_node</text>
</a>
</g>
</g>
<!-- Node111&#45;&gt;Node112 -->
<g id="edge1" class="edge">
<title>Node111&#45;&gt;Node112</title>
<path fill="none" stroke="#191970" d="M91.2666,-40.3557C99.3519,-41.3901 107.9683,-42.4926 116.6413,-43.6023"/>
<polygon fill="#191970" stroke="#191970" points="116.457,-47.1071 126.8204,-44.9046 117.3454,-40.1637 116.457,-47.1071"/>
</g>
<!-- Node113 -->
<g id="node3" class="node">
<title>Node113</title>
<g id="a_node3"><a xlink:href="clist_8h.html#a383b927f3eeb7f78f5ae9929138a635f" target="_top" xlink:title="zrtos_clist__delete">
<polygon fill="#ffffff" stroke="#000000" points="145,-6 145,-25 243,-25 243,-6 145,-6"/>
<text text-anchor="middle" x="194" y="-13" font-family="Helvetica,sans-Serif" font-size="10.00" fill="#000000">zrtos_clist__delete</text>
</a>
</g>
</g>
<!-- Node111&#45;&gt;Node113 -->
<g id="edge2" class="edge">
<title>Node111&#45;&gt;Node113</title>
<path fill="none" stroke="#191970" d="M91.2666,-28.6443C104.9132,-26.8983 120.0728,-24.9587 134.4641,-23.1174"/>
<polygon fill="#191970" stroke="#191970" points="135.2999,-26.5391 144.7748,-21.7982 134.4115,-19.5957 135.2999,-26.5391"/>
</g>
<!-- Node114 -->
<g id="node4" class="node">
<title>Node114</title>
<g id="a_node4"><a xlink:href="clist_8h.html#adc7d3acc850be7934c1c38390033a93d" target="_top" xlink:title="zrtos_clist_node__get\l_previous_node">
<polygon fill="#ffffff" stroke="#000000" points="297,-.5 297,-30.5 409,-30.5 409,-.5 297,-.5"/>
<text text-anchor="start" x="305" y="-18.5" font-family="Helvetica,sans-Serif" font-size="10.00" fill="#000000">zrtos_clist_node__get</text>
<text text-anchor="middle" x="353" y="-7.5" font-family="Helvetica,sans-Serif" font-size="10.00" fill="#000000">_previous_node</text>
</a>
</g>
</g>
<!-- Node113&#45;&gt;Node114 -->
<g id="edge3" class="edge">
<title>Node113&#45;&gt;Node114</title>
<path fill="none" stroke="#191970" d="M243.0026,-15.5C256.8663,-15.5 272.1885,-15.5 286.8826,-15.5"/>
<polygon fill="#191970" stroke="#191970" points="286.9295,-19.0001 296.9294,-15.5 286.9294,-12.0001 286.9295,-19.0001"/>
</g>
</g>
</svg>
