<?xml version="1.0" encoding="UTF-8" standalone="no"?>
<!DOCTYPE svg PUBLIC "-//W3C//DTD SVG 1.1//EN"
 "http://www.w3.org/Graphics/SVG/1.1/DTD/svg11.dtd">
<!-- Generated by graphviz version 10.0.1 (20240210.2158)
 -->
<!-- Title: clist.h Pages: 1 -->
<svg width="286pt" height="196pt"
 viewBox="0.00 0.00 286.00 196.00" xmlns="http://www.w3.org/2000/svg" xmlns:xlink="http://www.w3.org/1999/xlink">
<g id="graph0" class="graph" transform="scale(1 1) rotate(0) translate(4 192)">
<title>clist.h</title>
<!-- Node1 -->
<g id="Node000001" class="node">
<title>Node1</title>
<g id="a_Node000001"><a xlink:title=" ">
<polygon fill="#999999" stroke="#666666" points="123.62,-188 81.38,-188 81.38,-168 123.62,-168 123.62,-188"/>
<text text-anchor="middle" x="102.5" y="-174.5" font-family="Helvetica,sans-Serif" font-size="10.00">clist.h</text>
</a>
</g>
</g>
<!-- Node2 -->
<g id="Node000002" class="node">
<title>Node2</title>
<g id="a_Node000002"><a xlink:href="spi_2spi_8h.html" target="_top" xlink:title=" ">
<polygon fill="white" stroke="#666666" points="38,-132 1,-132 1,-112 38,-112 38,-132"/>
<text text-anchor="middle" x="19.5" y="-118.5" font-family="Helvetica,sans-Serif" font-size="10.00">spi.h</text>
</a>
</g>
</g>
<!-- Node1&#45;&gt;Node2 -->
<g id="edge1_Node000001_Node000002" class="edge">
<title>Node1&#45;&gt;Node2</title>
<g id="a_edge1_Node000001_Node000002"><a xlink:title=" ">
<path fill="none" stroke="#63b8ff" d="M78.74,-161.54C64.33,-152.17 46.41,-140.51 34.07,-132.48"/>
<polygon fill="#63b8ff" stroke="#63b8ff" points="76.48,-164.25 86.77,-166.77 80.3,-158.38 76.48,-164.25"/>
</a>
</g>
</g>
<!-- Node4 -->
<g id="Node000004" class="node">
<title>Node4</title>
<g id="a_Node000004"><a xlink:href="task_8h.html" target="_top" xlink:title=" ">
<polygon fill="white" stroke="#666666" points="99,-132 56,-132 56,-112 99,-112 99,-132"/>
<text text-anchor="middle" x="77.5" y="-118.5" font-family="Helvetica,sans-Serif" font-size="10.00">task.h</text>
</a>
</g>
</g>
<!-- Node1&#45;&gt;Node4 -->
<g id="edge3_Node000001_Node000004" class="edge">
<title>Node1&#45;&gt;Node4</title>
<g id="a_edge3_Node000001_Node000004"><a xlink:title=" ">
<path fill="none" stroke="#63b8ff" d="M93.38,-157.29C89.42,-148.75 84.98,-139.16 81.8,-132.3"/>
<polygon fill="#63b8ff" stroke="#63b8ff" points="90.13,-158.62 97.51,-166.22 96.48,-155.68 90.13,-158.62"/>
</a>
</g>
</g>
<!-- Node5 -->
<g id="Node000005" class="node">
<title>Node5</title>
<g id="a_Node000005"><a xlink:href="task__scheduler_8h.html" target="_top" xlink:title=" ">
<polygon fill="white" stroke="#666666" points="145.62,-76 55.38,-76 55.38,-56 145.62,-56 145.62,-76"/>
<text text-anchor="middle" x="100.5" y="-62.5" font-family="Helvetica,sans-Serif" font-size="10.00">task_scheduler.h</text>
</a>
</g>
</g>
<!-- Node1&#45;&gt;Node5 -->
<g id="edge6_Node000001_Node000005" class="edge">
<title>Node1&#45;&gt;Node5</title>
<g id="a_edge6_Node000001_Node000005"><a xlink:title=" ">
<path fill="none" stroke="#63b8ff" d="M105.69,-156.51C107.29,-143.71 108.65,-126.9 107.5,-112 106.54,-99.54 104.1,-85.32 102.37,-76.26"/>
<polygon fill="#63b8ff" stroke="#63b8ff" points="102.25,-155.85 104.32,-166.24 109.18,-156.83 102.25,-155.85"/>
</a>
</g>
</g>
<!-- Node7 -->
<g id="Node000007" class="node">
<title>Node7</title>
<g id="a_Node000007"><a xlink:href="vfs__dentry_8h.html" target="_top" xlink:title=" ">
<polygon fill="white" stroke="#666666" points="223.38,-132 155.62,-132 155.62,-112 223.38,-112 223.38,-132"/>
<text text-anchor="middle" x="189.5" y="-118.5" font-family="Helvetica,sans-Serif" font-size="10.00">vfs_dentry.h</text>
</a>
</g>
</g>
<!-- Node1&#45;&gt;Node7 -->
<g id="edge7_Node000001_Node000007" class="edge">
<title>Node1&#45;&gt;Node7</title>
<g id="a_edge7_Node000001_Node000007"><a xlink:title=" ">
<path fill="none" stroke="#63b8ff" d="M127.4,-161.54C142.51,-152.17 161.3,-140.51 174.23,-132.48"/>
<polygon fill="#63b8ff" stroke="#63b8ff" points="125.59,-158.55 118.94,-166.8 129.28,-164.5 125.59,-158.55"/>
</a>
</g>
</g>
<!-- Node3 -->
<g id="Node000003" class="node">
<title>Node3</title>
<g id="a_Node000003"><a xlink:href="avr_2spi_2spi_8h.html" target="_top" xlink:title=" ">
<polygon fill="white" stroke="#666666" points="37,-76 0,-76 0,-56 37,-56 37,-76"/>
<text text-anchor="middle" x="18.5" y="-62.5" font-family="Helvetica,sans-Serif" font-size="10.00">spi.h</text>
</a>
</g>
</g>
<!-- Node2&#45;&gt;Node3 -->
<g id="edge2_Node000002_Node000003" class="edge">
<title>Node2&#45;&gt;Node3</title>
<g id="a_edge2_Node000002_Node000003"><a xlink:title=" ">
<path fill="none" stroke="#63b8ff" d="M19.11,-100.13C18.96,-91.9 18.79,-82.85 18.67,-76.3"/>
<polygon fill="#63b8ff" stroke="#63b8ff" points="15.61,-100.15 19.3,-110.08 22.61,-100.02 15.61,-100.15"/>
</a>
</g>
</g>
<!-- Node4&#45;&gt;Node5 -->
<g id="edge4_Node000004_Node000005" class="edge">
<title>Node4&#45;&gt;Node5</title>
<g id="a_edge4_Node000004_Node000005"><a xlink:title=" ">
<path fill="none" stroke="#63b8ff" d="M86.02,-101C89.62,-92.54 93.65,-83.08 96.54,-76.3"/>
<polygon fill="#63b8ff" stroke="#63b8ff" points="82.8,-99.63 82.1,-110.2 89.24,-102.37 82.8,-99.63"/>
</a>
</g>
</g>
<!-- Node6 -->
<g id="Node000006" class="node">
<title>Node6</title>
<g id="a_Node000006"><a xlink:href="task__pthread_8h.html" target="_top" xlink:title=" ">
<polygon fill="white" stroke="#666666" points="140.75,-20 60.25,-20 60.25,0 140.75,0 140.75,-20"/>
<text text-anchor="middle" x="100.5" y="-6.5" font-family="Helvetica,sans-Serif" font-size="10.00">task_pthread.h</text>
</a>
</g>
</g>
<!-- Node5&#45;&gt;Node6 -->
<g id="edge5_Node000005_Node000006" class="edge">
<title>Node5&#45;&gt;Node6</title>
<g id="a_edge5_Node000005_Node000006"><a xlink:title=" ">
<path fill="none" stroke="#63b8ff" d="M100.5,-44.13C100.5,-35.9 100.5,-26.85 100.5,-20.3"/>
<polygon fill="#63b8ff" stroke="#63b8ff" points="97,-44.08 100.5,-54.08 104,-44.08 97,-44.08"/>
</a>
</g>
</g>
<!-- Node8 -->
<g id="Node000008" class="node">
<title>Node8</title>
<g id="a_Node000008"><a xlink:href="vfs__file_8h.html" target="_top" xlink:title=" ">
<polygon fill="white" stroke="#666666" points="216.88,-76 164.12,-76 164.12,-56 216.88,-56 216.88,-76"/>
<text text-anchor="middle" x="190.5" y="-62.5" font-family="Helvetica,sans-Serif" font-size="10.00">vfs_file.h</text>
</a>
</g>
</g>
<!-- Node7&#45;&gt;Node8 -->
<g id="edge8_Node000007_Node000008" class="edge">
<title>Node7&#45;&gt;Node8</title>
<g id="a_edge8_Node000007_Node000008"><a xlink:title=" ">
<path fill="none" stroke="#63b8ff" d="M189.89,-100.13C190.04,-91.9 190.21,-82.85 190.33,-76.3"/>
<polygon fill="#63b8ff" stroke="#63b8ff" points="186.39,-100.02 189.7,-110.08 193.39,-100.15 186.39,-100.02"/>
</a>
</g>
</g>
<!-- Node9 -->
<g id="Node000009" class="node">
<title>Node9</title>
<g id="a_Node000009"><a xlink:href="random_8h.html" target="_top" xlink:title=" ">
<polygon fill="white" stroke="#666666" points="216.75,-20 160.25,-20 160.25,0 216.75,0 216.75,-20"/>
<text text-anchor="middle" x="188.5" y="-6.5" font-family="Helvetica,sans-Serif" font-size="10.00">random.h</text>
</a>
</g>
</g>
<!-- Node8&#45;&gt;Node9 -->
<g id="edge9_Node000008_Node000009" class="edge">
<title>Node8&#45;&gt;Node9</title>
<g id="a_edge9_Node000008_Node000009"><a xlink:title=" ">
<path fill="none" stroke="#63b8ff" d="M189.73,-44.13C189.42,-35.9 189.09,-26.85 188.84,-20.3"/>
<polygon fill="#63b8ff" stroke="#63b8ff" points="186.23,-44.22 190.1,-54.08 193.22,-43.96 186.23,-44.22"/>
</a>
</g>
</g>
<!-- Node10 -->
<g id="Node000010" class="node">
<title>Node10</title>
<g id="a_Node000010"><a xlink:href="zero_8h.html" target="_top" xlink:title=" ">
<polygon fill="white" stroke="#666666" points="278,-20 235,-20 235,0 278,0 278,-20"/>
<text text-anchor="middle" x="256.5" y="-6.5" font-family="Helvetica,sans-Serif" font-size="10.00">zero.h</text>
</a>
</g>
</g>
<!-- Node8&#45;&gt;Node10 -->
<g id="edge10_Node000008_Node000010" class="edge">
<title>Node8&#45;&gt;Node10</title>
<g id="a_edge10_Node000008_Node000010"><a xlink:title=" ">
<path fill="none" stroke="#63b8ff" d="M210.79,-48.4C222.08,-39.17 235.71,-28.01 245.14,-20.3"/>
<polygon fill="#63b8ff" stroke="#63b8ff" points="208.69,-45.59 203.17,-54.64 213.12,-51.01 208.69,-45.59"/>
</a>
</g>
</g>
</g>
</svg>
