<?xml version="1.0" encoding="UTF-8" standalone="no"?>
<!DOCTYPE svg PUBLIC "-//W3C//DTD SVG 1.1//EN"
 "http://www.w3.org/Graphics/SVG/1.1/DTD/svg11.dtd">
<!-- Generated by graphviz version 10.0.1 (20240210.2158)
 -->
<!-- Title: zrtos_clist_node__get_next_node Pages: 1 -->
<svg width="1367pt" height="291pt"
 viewBox="0.00 0.00 1367.00 291.00" xmlns="http://www.w3.org/2000/svg" xmlns:xlink="http://www.w3.org/1999/xlink">
<g id="graph0" class="graph" transform="scale(1 1) rotate(0) translate(4 287)">
<title>zrtos_clist_node__get_next_node</title>
<!-- Node1 -->
<g id="Node000001" class="node">
<title>Node1</title>
<g id="a_Node000001"><a xlink:title=" ">
<polygon fill="#999999" stroke="#666666" points="1359,-145 1247.75,-145 1247.75,-113 1359,-113 1359,-145"/>
<text text-anchor="start" x="1255.75" y="-131.5" font-family="Helvetica,sans-Serif" font-size="10.00">zrtos_clist_node__get</text>
<text text-anchor="middle" x="1303.38" y="-119.5" font-family="Helvetica,sans-Serif" font-size="10.00">_next_node</text>
</a>
</g>
</g>
<!-- Node2 -->
<g id="Node000002" class="node">
<title>Node2</title>
<g id="a_Node000002"><a xlink:href="clist_8h.html#a7cc31f994820f2b59d07e96ab9dcce0b" target="_top" xlink:title=" ">
<polygon fill="white" stroke="#666666" points="1191.12,-212 1098.62,-212 1098.62,-192 1191.12,-192 1191.12,-212"/>
<text text-anchor="middle" x="1144.88" y="-198.5" font-family="Helvetica,sans-Serif" font-size="10.00">zrtos_clist__each</text>
</a>
</g>
</g>
<!-- Node1&#45;&gt;Node2 -->
<g id="edge1_Node000001_Node000002" class="edge">
<title>Node1&#45;&gt;Node2</title>
<g id="a_edge1_Node000001_Node000002"><a xlink:title=" ">
<path fill="none" stroke="#63b8ff" d="M1262.66,-150.72C1246.98,-159 1228.69,-168.29 1211.75,-176 1199.55,-181.55 1185.8,-187.09 1174.03,-191.62"/>
<polygon fill="#63b8ff" stroke="#63b8ff" points="1264.03,-153.95 1271.21,-146.16 1260.74,-147.77 1264.03,-153.95"/>
</a>
</g>
</g>
<!-- Node8 -->
<g id="Node000008" class="node">
<title>Node8</title>
<g id="a_Node000008"><a xlink:href="clist_8h.html#a2c9ceea8a0bb3230c7d4ee52fe351872" target="_top" xlink:title=" ">
<polygon fill="white" stroke="#666666" points="1189.62,-167 1100.12,-167 1100.12,-135 1189.62,-135 1189.62,-167"/>
<text text-anchor="start" x="1108.12" y="-153.5" font-family="Helvetica,sans-Serif" font-size="10.00">zrtos_clist__shift</text>
<text text-anchor="middle" x="1144.88" y="-141.5" font-family="Helvetica,sans-Serif" font-size="10.00">_and_push</text>
</a>
</g>
</g>
<!-- Node1&#45;&gt;Node8 -->
<g id="edge7_Node000001_Node000008" class="edge">
<title>Node1&#45;&gt;Node8</title>
<g id="a_edge7_Node000001_Node000008"><a xlink:title=" ">
<path fill="none" stroke="#63b8ff" d="M1236.39,-138.28C1220.74,-140.48 1204.41,-142.77 1190,-144.8"/>
<polygon fill="#63b8ff" stroke="#63b8ff" points="1236.72,-141.76 1246.14,-136.91 1235.75,-134.83 1236.72,-141.76"/>
</a>
</g>
</g>
<!-- Node9 -->
<g id="Node000009" class="node">
<title>Node9</title>
<g id="a_Node000009"><a xlink:href="task_8h.html#a007a26e54f32157b572c217857c9c190" target="_top" xlink:title=" ">
<polygon fill="white" stroke="#666666" points="1211.75,-117 1078,-117 1078,-97 1211.75,-97 1211.75,-117"/>
<text text-anchor="middle" x="1144.88" y="-103.5" font-family="Helvetica,sans-Serif" font-size="10.00">zrtos_task__get_next_task</text>
</a>
</g>
</g>
<!-- Node1&#45;&gt;Node9 -->
<g id="edge8_Node000001_Node000009" class="edge">
<title>Node1&#45;&gt;Node9</title>
<g id="a_edge8_Node000001_Node000009"><a xlink:title=" ">
<path fill="none" stroke="#63b8ff" d="M1236.44,-119.73C1228.4,-118.6 1220.19,-117.45 1212.15,-116.32"/>
<polygon fill="#63b8ff" stroke="#63b8ff" points="1235.75,-123.17 1246.14,-121.09 1236.72,-116.24 1235.75,-123.17"/>
</a>
</g>
</g>
<!-- Node23 -->
<g id="Node000023" class="node">
<title>Node23</title>
<g id="a_Node000023"><a xlink:href="spi_2spi_8h.html#a7cc1a52aa2cec6b681b7732681bda10b" target="_top" xlink:title=" ">
<polygon fill="white" stroke="#666666" points="1199.38,-78 1090.38,-78 1090.38,-46 1199.38,-46 1199.38,-78"/>
<text text-anchor="start" x="1098.38" y="-64.5" font-family="Helvetica,sans-Serif" font-size="10.00">zrtos_vfs_module_spi</text>
<text text-anchor="middle" x="1144.88" y="-52.5" font-family="Helvetica,sans-Serif" font-size="10.00">__transfer_out</text>
</a>
</g>
</g>
<!-- Node1&#45;&gt;Node23 -->
<g id="edge23_Node000001_Node000023" class="edge">
<title>Node1&#45;&gt;Node23</title>
<g id="a_edge23_Node000001_Node000023"><a xlink:title=" ">
<path fill="none" stroke="#63b8ff" d="M1257.09,-107.99C1242.66,-101.44 1226.59,-94.28 1211.75,-88 1204.28,-84.84 1196.28,-81.58 1188.52,-78.48"/>
<polygon fill="#63b8ff" stroke="#63b8ff" points="1255.33,-111.03 1265.88,-112 1258.24,-104.67 1255.33,-111.03"/>
</a>
</g>
</g>
<!-- Node3 -->
<g id="Node000003" class="node">
<title>Node3</title>
<g id="a_Node000003"><a xlink:href="vfs__dentry_8h.html#a911f5eb8673c68fe4147f56a21062ed7" target="_top" xlink:title=" ">
<polygon fill="white" stroke="#666666" points="1042,-226 924,-226 924,-194 1042,-194 1042,-226"/>
<text text-anchor="start" x="932" y="-212.5" font-family="Helvetica,sans-Serif" font-size="10.00">zrtos_vfs_dentry__each</text>
<text text-anchor="middle" x="983" y="-200.5" font-family="Helvetica,sans-Serif" font-size="10.00">_child</text>
</a>
</g>
</g>
<!-- Node2&#45;&gt;Node3 -->
<g id="edge2_Node000002_Node000003" class="edge">
<title>Node2&#45;&gt;Node3</title>
<g id="a_edge2_Node000002_Node000003"><a xlink:title=" ">
<path fill="none" stroke="#63b8ff" d="M1087.13,-204.84C1072.61,-205.57 1056.97,-206.35 1042.37,-207.08"/>
<polygon fill="#63b8ff" stroke="#63b8ff" points="1087.16,-208.34 1096.98,-204.35 1086.81,-201.35 1087.16,-208.34"/>
</a>
</g>
</g>
<!-- Node4 -->
<g id="Node000004" class="node">
<title>Node4</title>
<g id="a_Node000004"><a xlink:href="vfs__dentry_8h.html#a25c3d8504af7c99c7fe0705919e4bba6" target="_top" xlink:title=" ">
<polygon fill="white" stroke="#666666" points="888,-245 762.5,-245 762.5,-225 888,-225 888,-245"/>
<text text-anchor="middle" x="825.25" y="-231.5" font-family="Helvetica,sans-Serif" font-size="10.00">zrtos_vfs_dentry__lookup</text>
</a>
</g>
</g>
<!-- Node3&#45;&gt;Node4 -->
<g id="edge3_Node000003_Node000004" class="edge">
<title>Node3&#45;&gt;Node4</title>
<g id="a_edge3_Node000003_Node000004"><a xlink:title=" ">
<path fill="none" stroke="#63b8ff" d="M912.38,-221.17C904.39,-222.46 896.28,-223.76 888.4,-225.02"/>
<polygon fill="#63b8ff" stroke="#63b8ff" points="912.75,-224.66 922.07,-219.62 911.64,-217.75 912.75,-224.66"/>
</a>
</g>
</g>
<!-- Node5 -->
<g id="Node000005" class="node">
<title>Node5</title>
<g id="a_Node000005"><a xlink:href="vfs__file_8h.html#a5e35099a788e6bd302890a2da12cdb10" target="_top" xlink:title=" ">
<polygon fill="white" stroke="#666666" points="720.88,-261 617.88,-261 617.88,-241 720.88,-241 720.88,-261"/>
<text text-anchor="middle" x="669.38" y="-247.5" font-family="Helvetica,sans-Serif" font-size="10.00">zrtos_vfs_file__open</text>
</a>
</g>
</g>
<!-- Node4&#45;&gt;Node5 -->
<g id="edge4_Node000004_Node000005" class="edge">
<title>Node4&#45;&gt;Node5</title>
<g id="a_edge4_Node000004_Node000005"><a xlink:title=" ">
<path fill="none" stroke="#63b8ff" d="M750.78,-242.64C740.68,-243.69 730.5,-244.75 720.94,-245.74"/>
<polygon fill="#63b8ff" stroke="#63b8ff" points="751.02,-246.13 760.6,-241.62 750.29,-239.17 751.02,-246.13"/>
</a>
</g>
</g>
<!-- Node6 -->
<g id="Node000006" class="node">
<title>Node6</title>
<g id="a_Node000006"><a xlink:href="vfs__fd_8h.html#a3d77749f16d0a3f932c58f9ae0c20e1c" target="_top" xlink:title=" ">
<polygon fill="white" stroke="#666666" points="571,-277 472.5,-277 472.5,-257 571,-257 571,-277"/>
<text text-anchor="middle" x="521.75" y="-263.5" font-family="Helvetica,sans-Serif" font-size="10.00">zrtos_vfs_fd__open</text>
</a>
</g>
</g>
<!-- Node5&#45;&gt;Node6 -->
<g id="edge5_Node000005_Node000006" class="edge">
<title>Node5&#45;&gt;Node6</title>
<g id="a_edge5_Node000005_Node000006"><a xlink:title=" ">
<path fill="none" stroke="#63b8ff" d="M606.04,-257.85C594.47,-259.12 582.54,-260.43 571.45,-261.65"/>
<polygon fill="#63b8ff" stroke="#63b8ff" points="606.38,-261.33 615.94,-256.76 605.62,-254.37 606.38,-261.33"/>
</a>
</g>
</g>
<!-- Node7 -->
<g id="Node000007" class="node">
<title>Node7</title>
<g id="a_Node000007"><a xlink:href="rtu_8h.html#aac1c0a8f15ec0cd7540f53a61fe9ff08" target="_top" xlink:title=" ">
<polygon fill="white" stroke="#666666" points="431.25,-283 300.5,-283 300.5,-251 431.25,-251 431.25,-283"/>
<text text-anchor="start" x="308.5" y="-269.5" font-family="Helvetica,sans-Serif" font-size="10.00">zrtos_vfs_module_modbus</text>
<text text-anchor="middle" x="365.88" y="-257.5" font-family="Helvetica,sans-Serif" font-size="10.00">_rtu_args__init</text>
</a>
</g>
</g>
<!-- Node6&#45;&gt;Node7 -->
<g id="edge6_Node000006_Node000007" class="edge">
<title>Node6&#45;&gt;Node7</title>
<g id="a_edge6_Node000006_Node000007"><a xlink:title=" ">
<path fill="none" stroke="#63b8ff" d="M460.65,-267C451.11,-267 441.21,-267 431.57,-267"/>
<polygon fill="#63b8ff" stroke="#63b8ff" points="460.55,-270.5 470.55,-267 460.55,-263.5 460.55,-270.5"/>
</a>
</g>
</g>
<!-- Node10 -->
<g id="Node000010" class="node">
<title>Node10</title>
<g id="a_Node000010"><a xlink:href="task__scheduler_8h.html#aa63cd785e44d31b9ae87297fad4de032" target="_top" xlink:title=" ">
<polygon fill="white" stroke="#666666" points="1040.12,-166 925.88,-166 925.88,-134 1040.12,-134 1040.12,-166"/>
<text text-anchor="start" x="933.88" y="-152.5" font-family="Helvetica,sans-Serif" font-size="10.00">_zrtos_task_scheduler</text>
<text text-anchor="middle" x="983" y="-140.5" font-family="Helvetica,sans-Serif" font-size="10.00">__switch_task</text>
</a>
</g>
</g>
<!-- Node9&#45;&gt;Node10 -->
<g id="edge9_Node000009_Node000010" class="edge">
<title>Node9&#45;&gt;Node10</title>
<g id="a_edge9_Node000009_Node000010"><a xlink:title=" ">
<path fill="none" stroke="#63b8ff" d="M1094.32,-120.33C1077.27,-124.91 1058.05,-130.08 1040.49,-134.81"/>
<polygon fill="#63b8ff" stroke="#63b8ff" points="1094.96,-123.78 1103.71,-117.8 1093.15,-117.02 1094.96,-123.78"/>
</a>
</g>
</g>
<!-- Node22 -->
<g id="Node000022" class="node">
<title>Node22</title>
<g id="a_Node000022"><a xlink:href="task__scheduler_8h.html#ae5915a01574e06572708120eaea79d3b" target="_top" xlink:title=" ">
<polygon fill="white" stroke="#666666" points="879.75,-118 770.75,-118 770.75,-86 879.75,-86 879.75,-118"/>
<text text-anchor="start" x="778.75" y="-104.5" font-family="Helvetica,sans-Serif" font-size="10.00">zrtos_task_scheduler</text>
<text text-anchor="middle" x="825.25" y="-92.5" font-family="Helvetica,sans-Serif" font-size="10.00">__has_task</text>
</a>
</g>
</g>
<!-- Node9&#45;&gt;Node22 -->
<g id="edge21_Node000009_Node000022" class="edge">
<title>Node9&#45;&gt;Node22</title>
<g id="a_edge21_Node000009_Node000022"><a xlink:title=" ">
<path fill="none" stroke="#63b8ff" d="M1066.41,-105.78C1008.71,-104.87 931.37,-103.65 880.24,-102.85"/>
<polygon fill="#63b8ff" stroke="#63b8ff" points="1066.11,-109.28 1076.16,-105.93 1066.22,-102.28 1066.11,-109.28"/>
</a>
</g>
</g>
<!-- Node11 -->
<g id="Node000011" class="node">
<title>Node11</title>
<g id="a_Node000011"><a xlink:href="task__scheduler_8h.html#ab670d7e1ab8db82279714a56efc3c99a" target="_top" xlink:title=" ">
<polygon fill="white" stroke="#666666" points="882.38,-168 768.12,-168 768.12,-136 882.38,-136 882.38,-168"/>
<text text-anchor="start" x="776.12" y="-154.5" font-family="Helvetica,sans-Serif" font-size="10.00">_zrtos_task_scheduler</text>
<text text-anchor="middle" x="825.25" y="-142.5" font-family="Helvetica,sans-Serif" font-size="10.00">__on_tick</text>
</a>
</g>
</g>
<!-- Node10&#45;&gt;Node11 -->
<g id="edge10_Node000010_Node000011" class="edge">
<title>Node10&#45;&gt;Node11</title>
<g id="a_edge10_Node000010_Node000011"><a xlink:title=" ">
<path fill="none" stroke="#63b8ff" d="M914.41,-150.87C903.82,-151 892.97,-151.14 882.66,-151.28"/>
<polygon fill="#63b8ff" stroke="#63b8ff" points="914.3,-154.37 924.26,-150.74 914.21,-147.37 914.3,-154.37"/>
</a>
</g>
</g>
<!-- Node12 -->
<g id="Node000012" class="node">
<title>Node12</title>
<g id="a_Node000012"><a xlink:href="task__scheduler_8h.html#a8f15f366e9ce3328539ee562fd4c1e73" target="_top" xlink:title=" ">
<polygon fill="white" stroke="#666666" points="726.5,-168 612.25,-168 612.25,-136 726.5,-136 726.5,-168"/>
<text text-anchor="start" x="620.25" y="-154.5" font-family="Helvetica,sans-Serif" font-size="10.00">_zrtos_task_scheduler</text>
<text text-anchor="middle" x="669.38" y="-142.5" font-family="Helvetica,sans-Serif" font-size="10.00">__on_tick_ex</text>
</a>
</g>
</g>
<!-- Node11&#45;&gt;Node12 -->
<g id="edge11_Node000011_Node000012" class="edge">
<title>Node11&#45;&gt;Node12</title>
<g id="a_edge11_Node000011_Node000012"><a xlink:title=" ">
<path fill="none" stroke="#63b8ff" d="M756.36,-152C746.49,-152 736.41,-152 726.79,-152"/>
<polygon fill="#63b8ff" stroke="#63b8ff" points="756.31,-155.5 766.31,-152 756.31,-148.5 756.31,-155.5"/>
</a>
</g>
</g>
<!-- Node13 -->
<g id="Node000013" class="node">
<title>Node13</title>
<g id="a_Node000013"><a xlink:href="task__pthread_8h.html#a28a15bba47cab57cbc9f5dac9af99c8b" target="_top" xlink:title=" ">
<polygon fill="white" stroke="#666666" points="556,-89 487.5,-89 487.5,-69 556,-69 556,-89"/>
<text text-anchor="middle" x="521.75" y="-75.5" font-family="Helvetica,sans-Serif" font-size="10.00">pthread_join</text>
</a>
</g>
</g>
<!-- Node12&#45;&gt;Node13 -->
<g id="edge12_Node000012_Node000013" class="edge">
<title>Node12&#45;&gt;Node13</title>
<g id="a_edge12_Node000012_Node000013"><a xlink:title=" ">
<path fill="none" stroke="#63b8ff" d="M633.79,-129.63C616.86,-119.23 595.92,-107.16 576.25,-98 569.64,-94.92 562.38,-92.04 555.4,-89.49"/>
<polygon fill="#63b8ff" stroke="#63b8ff" points="631.64,-132.42 641.98,-134.73 635.34,-126.47 631.64,-132.42"/>
</a>
</g>
</g>
<!-- Node14 -->
<g id="Node000014" class="node">
<title>Node14</title>
<g id="a_Node000014"><a xlink:href="task__pthread_8h.html#ace168cf0d23cd4b085a2da31b881c750" target="_top" xlink:title=" ">
<polygon fill="white" stroke="#666666" points="571.38,-139 472.12,-139 472.12,-107 571.38,-107 571.38,-139"/>
<text text-anchor="start" x="480.12" y="-125.5" font-family="Helvetica,sans-Serif" font-size="10.00">zrtos_task_pthread</text>
<text text-anchor="middle" x="521.75" y="-113.5" font-family="Helvetica,sans-Serif" font-size="10.00">__trampoline_cb</text>
</a>
</g>
</g>
<!-- Node12&#45;&gt;Node14 -->
<g id="edge13_Node000012_Node000014" class="edge">
<title>Node12&#45;&gt;Node14</title>
<g id="a_edge13_Node000012_Node000014"><a xlink:title=" ">
<path fill="none" stroke="#63b8ff" d="M601.04,-138.59C591.18,-136.63 581.19,-134.64 571.79,-132.77"/>
<polygon fill="#63b8ff" stroke="#63b8ff" points="600.1,-141.97 610.59,-140.49 601.46,-135.11 600.1,-141.97"/>
</a>
</g>
</g>
<!-- Node16 -->
<g id="Node000016" class="node">
<title>Node16</title>
<g id="a_Node000016"><a xlink:href="task__scheduler_8h.html#ae070a60f724cc39d3a4118b57004e82f" target="_top" xlink:title=" ">
<polygon fill="white" stroke="#666666" points="576.25,-239 467.25,-239 467.25,-207 576.25,-207 576.25,-239"/>
<text text-anchor="start" x="475.25" y="-225.5" font-family="Helvetica,sans-Serif" font-size="10.00">zrtos_task_scheduler</text>
<text text-anchor="middle" x="521.75" y="-213.5" font-family="Helvetica,sans-Serif" font-size="10.00">__delay_ms</text>
</a>
</g>
</g>
<!-- Node12&#45;&gt;Node16 -->
<g id="edge15_Node000012_Node000016" class="edge">
<title>Node12&#45;&gt;Node16</title>
<g id="a_edge15_Node000012_Node000016"><a xlink:title=" ">
<path fill="none" stroke="#63b8ff" d="M626.17,-173.36C610.53,-181.2 592.62,-190.09 576.25,-198 570.43,-200.81 564.24,-203.75 558.21,-206.59"/>
<polygon fill="#63b8ff" stroke="#63b8ff" points="627.36,-176.68 634.72,-169.06 624.21,-170.43 627.36,-176.68"/>
</a>
</g>
</g>
<!-- Node21 -->
<g id="Node000021" class="node">
<title>Node21</title>
<g id="a_Node000021"><a xlink:href="task__scheduler_8h.html#a1e85f61c031a36a33f08d891597103b2" target="_top" xlink:title=" ">
<polygon fill="white" stroke="#666666" points="576.25,-189 467.25,-189 467.25,-157 576.25,-157 576.25,-189"/>
<text text-anchor="start" x="475.25" y="-175.5" font-family="Helvetica,sans-Serif" font-size="10.00">zrtos_task_scheduler</text>
<text text-anchor="middle" x="521.75" y="-163.5" font-family="Helvetica,sans-Serif" font-size="10.00">__init</text>
</a>
</g>
</g>
<!-- Node12&#45;&gt;Node21 -->
<g id="edge20_Node000012_Node000021" class="edge">
<title>Node12&#45;&gt;Node21</title>
<g id="a_edge20_Node000012_Node000021"><a xlink:title=" ">
<path fill="none" stroke="#63b8ff" d="M600.7,-161.76C592.59,-162.93 584.39,-164.11 576.51,-165.25"/>
<polygon fill="#63b8ff" stroke="#63b8ff" points="601.18,-165.23 610.57,-160.34 600.18,-158.3 601.18,-165.23"/>
</a>
</g>
</g>
<!-- Node15 -->
<g id="Node000015" class="node">
<title>Node15</title>
<g id="a_Node000015"><a xlink:href="task__pthread_8h.html#a091adcef6201bebbf231763328c15286" target="_top" xlink:title=" ">
<polygon fill="white" stroke="#666666" points="406.12,-133 325.62,-133 325.62,-113 406.12,-113 406.12,-133"/>
<text text-anchor="middle" x="365.88" y="-119.5" font-family="Helvetica,sans-Serif" font-size="10.00">pthread_create</text>
</a>
</g>
</g>
<!-- Node14&#45;&gt;Node15 -->
<g id="edge14_Node000014_Node000015" class="edge">
<title>Node14&#45;&gt;Node15</title>
<g id="a_edge14_Node000014_Node000015"><a xlink:title=" ">
<path fill="none" stroke="#63b8ff" d="M460.3,-123C442.24,-123 422.9,-123 406.54,-123"/>
<polygon fill="#63b8ff" stroke="#63b8ff" points="460.13,-126.5 470.13,-123 460.13,-119.5 460.13,-126.5"/>
</a>
</g>
</g>
<!-- Node17 -->
<g id="Node000017" class="node">
<title>Node17</title>
<g id="a_Node000017"><a xlink:href="task__mutex_8h.html#a123e93e1f2eac3befe64178fba0bbcbd" target="_top" xlink:title=" ">
<polygon fill="white" stroke="#666666" points="427.12,-233 304.62,-233 304.62,-213 427.12,-213 427.12,-233"/>
<text text-anchor="middle" x="365.88" y="-219.5" font-family="Helvetica,sans-Serif" font-size="10.00">zrtos_task_mutex__lock</text>
</a>
</g>
</g>
<!-- Node16&#45;&gt;Node17 -->
<g id="edge16_Node000016_Node000017" class="edge">
<title>Node16&#45;&gt;Node17</title>
<g id="a_edge16_Node000016_Node000017"><a xlink:title=" ">
<path fill="none" stroke="#63b8ff" d="M455.69,-223C446.34,-223 436.76,-223 427.5,-223"/>
<polygon fill="#63b8ff" stroke="#63b8ff" points="455.42,-226.5 465.42,-223 455.42,-219.5 455.42,-226.5"/>
</a>
</g>
</g>
<!-- Node18 -->
<g id="Node000018" class="node">
<title>Node18</title>
<g id="a_Node000018"><a xlink:href="task__pthread_8h.html#a12809c44718c21544ceb280dc1a53573" target="_top" xlink:title=" ">
<polygon fill="white" stroke="#666666" points="256.25,-255 152.5,-255 152.5,-235 256.25,-235 256.25,-255"/>
<text text-anchor="middle" x="204.38" y="-241.5" font-family="Helvetica,sans-Serif" font-size="10.00">pthread_mutex_lock</text>
</a>
</g>
</g>
<!-- Node17&#45;&gt;Node18 -->
<g id="edge17_Node000017_Node000018" class="edge">
<title>Node17&#45;&gt;Node18</title>
<g id="a_edge17_Node000017_Node000018"><a xlink:title=" ">
<path fill="none" stroke="#63b8ff" d="M293.33,-232.87C280.96,-234.57 268.33,-236.32 256.64,-237.93"/>
<polygon fill="#63b8ff" stroke="#63b8ff" points="293.65,-236.36 303.08,-231.52 292.69,-229.42 293.65,-236.36"/>
</a>
</g>
</g>
<!-- Node19 -->
<g id="Node000019" class="node">
<title>Node19</title>
<g id="a_Node000019"><a xlink:href="spi__sync_8h.html#acad5edb178ed84b8a1b7b3a877dbcd61" target="_top" xlink:title=" ">
<polygon fill="white" stroke="#666666" points="264.5,-217 144.25,-217 144.25,-185 264.5,-185 264.5,-217"/>
<text text-anchor="start" x="152.25" y="-203.5" font-family="Helvetica,sans-Serif" font-size="10.00">zrtos_vfs_module_spi</text>
<text text-anchor="middle" x="204.38" y="-191.5" font-family="Helvetica,sans-Serif" font-size="10.00">_sync__on_write_helper</text>
</a>
</g>
</g>
<!-- Node17&#45;&gt;Node19 -->
<g id="edge18_Node000017_Node000019" class="edge">
<title>Node17&#45;&gt;Node19</title>
<g id="a_edge18_Node000017_Node000019"><a xlink:title=" ">
<path fill="none" stroke="#63b8ff" d="M293.18,-213.11C283.75,-211.81 274.17,-210.49 264.97,-209.22"/>
<polygon fill="#63b8ff" stroke="#63b8ff" points="292.69,-216.58 303.08,-214.48 293.65,-209.64 292.69,-216.58"/>
</a>
</g>
</g>
<!-- Node20 -->
<g id="Node000020" class="node">
<title>Node20</title>
<g id="a_Node000020"><a xlink:href="sync_8h.html#affc4ed32d5b66e97fb25c63faaf49eed" target="_top" xlink:title=" ">
<polygon fill="white" stroke="#666666" points="108.25,-217 0,-217 0,-185 108.25,-185 108.25,-217"/>
<text text-anchor="start" x="8" y="-203.5" font-family="Helvetica,sans-Serif" font-size="10.00">zrtos_vfs_module_avr</text>
<text text-anchor="middle" x="54.12" y="-191.5" font-family="Helvetica,sans-Serif" font-size="10.00">_spi_sync__on_write</text>
</a>
</g>
</g>
<!-- Node19&#45;&gt;Node20 -->
<g id="edge19_Node000019_Node000020" class="edge">
<title>Node19&#45;&gt;Node20</title>
<g id="a_edge19_Node000019_Node000020"><a xlink:title=" ">
<path fill="none" stroke="#63b8ff" d="M132.51,-201C124.38,-201 116.2,-201 108.36,-201"/>
<polygon fill="#63b8ff" stroke="#63b8ff" points="132.42,-204.5 142.42,-201 132.42,-197.5 132.42,-204.5"/>
</a>
</g>
</g>
<!-- Node22&#45;&gt;Node13 -->
<g id="edge22_Node000022_Node000013" class="edge">
<title>Node22&#45;&gt;Node13</title>
<g id="a_edge22_Node000022_Node000013"><a xlink:title=" ">
<path fill="none" stroke="#63b8ff" d="M759.05,-97.03C696.6,-92.26 604.89,-85.27 556.12,-81.55"/>
<polygon fill="#63b8ff" stroke="#63b8ff" points="758.6,-100.5 768.84,-97.77 759.13,-93.52 758.6,-100.5"/>
</a>
</g>
</g>
<!-- Node24 -->
<g id="Node000024" class="node">
<title>Node24</title>
<g id="a_Node000024"><a xlink:href="spi_2spi_8h.html#ab31c12597a3f2932aaf01466ffff59bb" target="_top" xlink:title=" ">
<polygon fill="white" stroke="#666666" points="1037.5,-75 928.5,-75 928.5,-43 1037.5,-43 1037.5,-75"/>
<text text-anchor="start" x="936.5" y="-61.5" font-family="Helvetica,sans-Serif" font-size="10.00">zrtos_vfs_module_spi</text>
<text text-anchor="middle" x="983" y="-49.5" font-family="Helvetica,sans-Serif" font-size="10.00">__transfer</text>
</a>
</g>
</g>
<!-- Node23&#45;&gt;Node24 -->
<g id="edge24_Node000023_Node000024" class="edge">
<title>Node23&#45;&gt;Node24</title>
<g id="a_edge24_Node000023_Node000024"><a xlink:title=" ">
<path fill="none" stroke="#63b8ff" d="M1078.91,-60.78C1065.26,-60.52 1051,-60.26 1037.81,-60.01"/>
<polygon fill="#63b8ff" stroke="#63b8ff" points="1078.62,-64.28 1088.68,-60.96 1078.75,-57.28 1078.62,-64.28"/>
</a>
</g>
</g>
<!-- Node25 -->
<g id="Node000025" class="node">
<title>Node25</title>
<g id="a_Node000025"><a xlink:href="avr_2spi_2spi_8h.html#a3a0f3b324bd986778ccde00670dbabc9" target="_top" xlink:title=" ">
<polygon fill="white" stroke="#666666" points="879.38,-68 771.12,-68 771.12,-36 879.38,-36 879.38,-68"/>
<text text-anchor="start" x="779.12" y="-54.5" font-family="Helvetica,sans-Serif" font-size="10.00">zrtos_vfs_module_avr</text>
<text text-anchor="middle" x="825.25" y="-42.5" font-family="Helvetica,sans-Serif" font-size="10.00">_spi__on_interrupt</text>
</a>
</g>
</g>
<!-- Node24&#45;&gt;Node25 -->
<g id="edge25_Node000024_Node000025" class="edge">
<title>Node24&#45;&gt;Node25</title>
<g id="a_edge25_Node000024_Node000025"><a xlink:title=" ">
<path fill="none" stroke="#63b8ff" d="M917.12,-56.08C904.66,-55.52 891.74,-54.94 879.69,-54.4"/>
<polygon fill="#63b8ff" stroke="#63b8ff" points="916.74,-59.57 926.89,-56.52 917.05,-52.58 916.74,-59.57"/>
</a>
</g>
</g>
<!-- Node26 -->
<g id="Node000026" class="node">
<title>Node26</title>
<g id="a_Node000026"><a xlink:href="avr_2spi_2spi_8h.html#a0353f98d744b931e541684fe33b272f7" target="_top" xlink:title=" ">
<polygon fill="white" stroke="#666666" points="685.25,-20 653.5,-20 653.5,0 685.25,0 685.25,-20"/>
<text text-anchor="middle" x="669.38" y="-6.5" font-family="Helvetica,sans-Serif" font-size="10.00">ISR</text>
</a>
</g>
</g>
<!-- Node25&#45;&gt;Node26 -->
<g id="edge26_Node000025_Node000026" class="edge">
<title>Node25&#45;&gt;Node26</title>
<g id="a_edge26_Node000025_Node000026"><a xlink:title=" ">
<path fill="none" stroke="#63b8ff" d="M759.76,-34.4C732.5,-26.96 703.11,-18.93 685.74,-14.19"/>
<polygon fill="#63b8ff" stroke="#63b8ff" points="758.83,-37.77 769.4,-37.03 760.68,-31.02 758.83,-37.77"/>
</a>
</g>
</g>
<!-- Node27 -->
<g id="Node000027" class="node">
<title>Node27</title>
<g id="a_Node000027"><a xlink:href="avr_2spi_2spi_8h.html#ab6f547c3ce7ee0463c235abe078f9491" target="_top" xlink:title=" ">
<polygon fill="white" stroke="#666666" points="723.5,-70 615.25,-70 615.25,-38 723.5,-38 723.5,-70"/>
<text text-anchor="start" x="623.25" y="-56.5" font-family="Helvetica,sans-Serif" font-size="10.00">zrtos_vfs_module_avr</text>
<text text-anchor="middle" x="669.38" y="-44.5" font-family="Helvetica,sans-Serif" font-size="10.00">_spi__on_write</text>
</a>
</g>
</g>
<!-- Node25&#45;&gt;Node27 -->
<g id="edge27_Node000025_Node000027" class="edge">
<title>Node25&#45;&gt;Node27</title>
<g id="a_edge27_Node000025_Node000027"><a xlink:title=" ">
<path fill="none" stroke="#63b8ff" d="M759.63,-52.84C747.74,-52.99 735.45,-53.15 723.93,-53.3"/>
<polygon fill="#63b8ff" stroke="#63b8ff" points="759.4,-56.34 769.35,-52.71 759.31,-49.34 759.4,-56.34"/>
</a>
</g>
</g>
</g>
</svg>
