<?xml version="1.0" encoding="UTF-8" standalone="no"?>
<!DOCTYPE svg PUBLIC "-//W3C//DTD SVG 1.1//EN"
 "http://www.w3.org/Graphics/SVG/1.1/DTD/svg11.dtd">
<!-- Generated by graphviz version 10.0.1 (20240210.2158)
 -->
<!-- Title: zrtos_clist__delete Pages: 1 -->
<svg width="500pt" height="166pt"
 viewBox="0.00 0.00 500.25 166.00" xmlns="http://www.w3.org/2000/svg" xmlns:xlink="http://www.w3.org/1999/xlink">
<g id="graph0" class="graph" transform="scale(1 1) rotate(0) translate(4 162)">
<title>zrtos_clist__delete</title>
<!-- Node1 -->
<g id="Node000001" class="node">
<title>Node1</title>
<g id="a_Node000001"><a xlink:title=" ">
<polygon fill="#999999" stroke="#666666" points="492.25,-98 394.5,-98 394.5,-78 492.25,-78 492.25,-98"/>
<text text-anchor="middle" x="443.38" y="-84.5" font-family="Helvetica,sans-Serif" font-size="10.00">zrtos_clist__delete</text>
</a>
</g>
</g>
<!-- Node2 -->
<g id="Node000002" class="node">
<title>Node2</title>
<g id="a_Node000002"><a xlink:href="clist_8h.html#a93c384bab6f49732e1fd1aff0cbb0e2b" target="_top" xlink:title=" ">
<polygon fill="white" stroke="#666666" points="347.62,-158 260.38,-158 260.38,-138 347.62,-138 347.62,-158"/>
<text text-anchor="middle" x="304" y="-144.5" font-family="Helvetica,sans-Serif" font-size="10.00">zrtos_clist__pop</text>
</a>
</g>
</g>
<!-- Node1&#45;&gt;Node2 -->
<g id="edge1_Node000001_Node000002" class="edge">
<title>Node1&#45;&gt;Node2</title>
<g id="a_edge1_Node000001_Node000002"><a xlink:title=" ">
<path fill="none" stroke="#63b8ff" d="M412.43,-103.67C396.59,-111.69 376.71,-121.34 358.5,-129 351.41,-131.98 343.68,-134.91 336.35,-137.54"/>
<polygon fill="#63b8ff" stroke="#63b8ff" points="414.02,-106.78 421.32,-99.11 410.83,-100.55 414.02,-106.78"/>
</a>
</g>
</g>
<!-- Node3 -->
<g id="Node000003" class="node">
<title>Node3</title>
<g id="a_Node000003"><a xlink:href="clist_8h.html#a443b3447b07aa651d8bc5b81e73be88f" target="_top" xlink:title=" ">
<polygon fill="white" stroke="#666666" points="348.75,-120 259.25,-120 259.25,-100 348.75,-100 348.75,-120"/>
<text text-anchor="middle" x="304" y="-106.5" font-family="Helvetica,sans-Serif" font-size="10.00">zrtos_clist__shift</text>
</a>
</g>
</g>
<!-- Node1&#45;&gt;Node3 -->
<g id="edge2_Node000001_Node000003" class="edge">
<title>Node1&#45;&gt;Node3</title>
<g id="a_edge2_Node000001_Node000003"><a xlink:title=" ">
<path fill="none" stroke="#63b8ff" d="M383.09,-97.49C371.69,-99.32 359.93,-101.2 349.11,-102.94"/>
<polygon fill="#63b8ff" stroke="#63b8ff" points="383.51,-100.97 392.83,-95.93 382.41,-94.06 383.51,-100.97"/>
</a>
</g>
</g>
<!-- Node4 -->
<g id="Node000004" class="node">
<title>Node4</title>
<g id="a_Node000004"><a xlink:href="task__scheduler_8h.html#a8eaf55f184537faea5e8e9641ed4ad27" target="_top" xlink:title=" ">
<polygon fill="white" stroke="#666666" points="358.5,-82 249.5,-82 249.5,-50 358.5,-50 358.5,-82"/>
<text text-anchor="start" x="257.5" y="-68.5" font-family="Helvetica,sans-Serif" font-size="10.00">zrtos_task_scheduler</text>
<text text-anchor="middle" x="304" y="-56.5" font-family="Helvetica,sans-Serif" font-size="10.00">__remove_task</text>
</a>
</g>
</g>
<!-- Node1&#45;&gt;Node4 -->
<g id="edge3_Node000001_Node000004" class="edge">
<title>Node1&#45;&gt;Node4</title>
<g id="a_edge3_Node000001_Node000004"><a xlink:title=" ">
<path fill="none" stroke="#63b8ff" d="M383.11,-78.51C375.06,-77.22 366.84,-75.9 358.89,-74.63"/>
<polygon fill="#63b8ff" stroke="#63b8ff" points="382.41,-81.94 392.83,-80.07 383.51,-75.03 382.41,-81.94"/>
</a>
</g>
</g>
<!-- Node7 -->
<g id="Node000007" class="node">
<title>Node7</title>
<g id="a_Node000007"><a xlink:href="spi_2spi_8h.html#a32046c6fe4df16f4795a3de4fdf61f8f" target="_top" xlink:title=" ">
<polygon fill="white" stroke="#666666" points="358.5,-32 249.5,-32 249.5,0 358.5,0 358.5,-32"/>
<text text-anchor="start" x="257.5" y="-18.5" font-family="Helvetica,sans-Serif" font-size="10.00">zrtos_vfs_module_spi</text>
<text text-anchor="middle" x="304" y="-6.5" font-family="Helvetica,sans-Serif" font-size="10.00">_file__deinit</text>
</a>
</g>
</g>
<!-- Node1&#45;&gt;Node7 -->
<g id="edge6_Node000001_Node000007" class="edge">
<title>Node1&#45;&gt;Node7</title>
<g id="a_edge6_Node000001_Node000007"><a xlink:title=" ">
<path fill="none" stroke="#63b8ff" d="M414.68,-71.81C398.47,-62.5 377.51,-50.75 358.5,-41 352.94,-38.15 346.99,-35.23 341.15,-32.45"/>
<polygon fill="#63b8ff" stroke="#63b8ff" points="412.86,-74.8 423.27,-76.77 416.37,-68.74 412.86,-74.8"/>
</a>
</g>
</g>
<!-- Node5 -->
<g id="Node000005" class="node">
<title>Node5</title>
<g id="a_Node000005"><a xlink:href="task__pthread_8h.html#a138580b425fd21586b4efd4ab448d593" target="_top" xlink:title=" ">
<polygon fill="white" stroke="#666666" points="208.62,-82 109.38,-82 109.38,-50 208.62,-50 208.62,-82"/>
<text text-anchor="start" x="117.38" y="-68.5" font-family="Helvetica,sans-Serif" font-size="10.00">zrtos_task_pthread</text>
<text text-anchor="middle" x="159" y="-56.5" font-family="Helvetica,sans-Serif" font-size="10.00">__free</text>
</a>
</g>
</g>
<!-- Node4&#45;&gt;Node5 -->
<g id="edge4_Node000004_Node000005" class="edge">
<title>Node4&#45;&gt;Node5</title>
<g id="a_edge4_Node000004_Node000005"><a xlink:title=" ">
<path fill="none" stroke="#63b8ff" d="M237.95,-66C228.13,-66 218.16,-66 208.77,-66"/>
<polygon fill="#63b8ff" stroke="#63b8ff" points="237.83,-69.5 247.83,-66 237.83,-62.5 237.83,-69.5"/>
</a>
</g>
</g>
<!-- Node6 -->
<g id="Node000006" class="node">
<title>Node6</title>
<g id="a_Node000006"><a xlink:href="task__pthread_8h.html#a28a15bba47cab57cbc9f5dac9af99c8b" target="_top" xlink:title=" ">
<polygon fill="white" stroke="#666666" points="68.5,-76 0,-76 0,-56 68.5,-56 68.5,-76"/>
<text text-anchor="middle" x="34.25" y="-62.5" font-family="Helvetica,sans-Serif" font-size="10.00">pthread_join</text>
</a>
</g>
</g>
<!-- Node5&#45;&gt;Node6 -->
<g id="edge5_Node000005_Node000006" class="edge">
<title>Node5&#45;&gt;Node6</title>
<g id="a_edge5_Node000005_Node000006"><a xlink:title=" ">
<path fill="none" stroke="#63b8ff" d="M97.92,-66C87.92,-66 77.88,-66 68.85,-66"/>
<polygon fill="#63b8ff" stroke="#63b8ff" points="97.62,-69.5 107.62,-66 97.62,-62.5 97.62,-69.5"/>
</a>
</g>
</g>
<!-- Node8 -->
<g id="Node000008" class="node">
<title>Node8</title>
<g id="a_Node000008"><a xlink:href="spi_2spi_8h.html#ae37ac67ac292b108b745f060bd34c7de" target="_top" xlink:title=" ">
<polygon fill="white" stroke="#666666" points="213.5,-32 104.5,-32 104.5,0 213.5,0 213.5,-32"/>
<text text-anchor="start" x="112.5" y="-18.5" font-family="Helvetica,sans-Serif" font-size="10.00">zrtos_vfs_module_spi</text>
<text text-anchor="middle" x="159" y="-6.5" font-family="Helvetica,sans-Serif" font-size="10.00">_file__free</text>
</a>
</g>
</g>
<!-- Node7&#45;&gt;Node8 -->
<g id="edge7_Node000007_Node000008" class="edge">
<title>Node7&#45;&gt;Node8</title>
<g id="a_edge7_Node000007_Node000008"><a xlink:title=" ">
<path fill="none" stroke="#63b8ff" d="M238.06,-16C230,-16 221.83,-16 213.96,-16"/>
<polygon fill="#63b8ff" stroke="#63b8ff" points="237.83,-19.5 247.83,-16 237.83,-12.5 237.83,-19.5"/>
</a>
</g>
</g>
</g>
</svg>
