<?xml version="1.0" encoding="UTF-8" standalone="no"?>
<!DOCTYPE svg PUBLIC "-//W3C//DTD SVG 1.1//EN"
 "http://www.w3.org/Graphics/SVG/1.1/DTD/svg11.dtd">
<!-- Generated by graphviz version 2.40.1 (20161225.0304)
 -->
<!-- Title: zrtos_clist__pop Pages: 1 -->
<svg width="413pt" height="78pt"
 viewBox="0.00 0.00 413.00 77.50" xmlns="http://www.w3.org/2000/svg" xmlns:xlink="http://www.w3.org/1999/xlink">
<g id="graph0" class="graph" transform="scale(1 1) rotate(0) translate(4 73.5)">
<title>zrtos_clist__pop</title>
<polygon fill="#ffffff" stroke="transparent" points="-4,4 -4,-73.5 409,-73.5 409,4 -4,4"/>
<!-- Node71 -->
<g id="node1" class="node">
<title>Node71</title>
<polygon fill="#bfbfbf" stroke="#000000" points="0,-25 0,-44 88,-44 88,-25 0,-25"/>
<text text-anchor="middle" x="44" y="-32" font-family="Helvetica,sans-Serif" font-size="10.00" fill="#000000">zrtos_clist__pop</text>
</g>
<!-- Node72 -->
<g id="node2" class="node">
<title>Node72</title>
<g id="a_node2"><a xlink:href="clist_8h.html#ac963d632abfc835ef63877a4cfd401e6" target="_top" xlink:title="zrtos_clist__get_last_node">
<polygon fill="#ffffff" stroke="#000000" points="124,-44 124,-63 257,-63 257,-44 124,-44"/>
<text text-anchor="middle" x="190.5" y="-51" font-family="Helvetica,sans-Serif" font-size="10.00" fill="#000000">zrtos_clist__get_last_node</text>
</a>
</g>
</g>
<!-- Node71&#45;&gt;Node72 -->
<g id="edge1" class="edge">
<title>Node71&#45;&gt;Node72</title>
<path fill="none" stroke="#191970" d="M88.3524,-40.2522C96.4029,-41.2963 105.0081,-42.4123 113.6802,-43.537"/>
<polygon fill="#191970" stroke="#191970" points="113.4948,-47.0422 123.8619,-44.8575 114.3951,-40.1003 113.4948,-47.0422"/>
</g>
<!-- Node75 -->
<g id="node5" class="node">
<title>Node75</title>
<g id="a_node5"><a xlink:href="clist_8h.html#a383b927f3eeb7f78f5ae9929138a635f" target="_top" xlink:title="zrtos_clist__delete">
<polygon fill="#ffffff" stroke="#000000" points="141.5,-6 141.5,-25 239.5,-25 239.5,-6 141.5,-6"/>
<text text-anchor="middle" x="190.5" y="-13" font-family="Helvetica,sans-Serif" font-size="10.00" fill="#000000">zrtos_clist__delete</text>
</a>
</g>
</g>
<!-- Node71&#45;&gt;Node75 -->
<g id="edge4" class="edge">
<title>Node71&#45;&gt;Node75</title>
<path fill="none" stroke="#191970" d="M88.3524,-28.7478C101.8382,-26.9988 116.8803,-25.0479 131.186,-23.1926"/>
<polygon fill="#191970" stroke="#191970" points="131.9731,-26.6199 141.4399,-21.8627 131.0728,-19.6781 131.9731,-26.6199"/>
</g>
<!-- Node73 -->
<g id="node3" class="node">
<title>Node73</title>
<g id="a_node3"><a xlink:href="clist_8h.html#afb7e643d242da19562a3584abcfca015" target="_top" xlink:title="zrtos_clist__get_root">
<polygon fill="#ffffff" stroke="#000000" points="295.5,-50 295.5,-69 402.5,-69 402.5,-50 295.5,-50"/>
<text text-anchor="middle" x="349" y="-57" font-family="Helvetica,sans-Serif" font-size="10.00" fill="#000000">zrtos_clist__get_root</text>
</a>
</g>
</g>
<!-- Node72&#45;&gt;Node73 -->
<g id="edge2" class="edge">
<title>Node72&#45;&gt;Node73</title>
<path fill="none" stroke="#191970" d="M257.2589,-56.0272C266.4793,-56.3762 275.9312,-56.734 285.0982,-57.081"/>
<polygon fill="#191970" stroke="#191970" points="285.1741,-60.5863 295.2994,-57.4672 285.439,-53.5913 285.1741,-60.5863"/>
</g>
<!-- Node74 -->
<g id="node4" class="node">
<title>Node74</title>
<g id="a_node4"><a xlink:href="clist_8h.html#adc7d3acc850be7934c1c38390033a93d" target="_top" xlink:title="zrtos_clist_node__get\l_previous_node">
<polygon fill="#ffffff" stroke="#000000" points="293,-.5 293,-30.5 405,-30.5 405,-.5 293,-.5"/>
<text text-anchor="start" x="301" y="-18.5" font-family="Helvetica,sans-Serif" font-size="10.00" fill="#000000">zrtos_clist_node__get</text>
<text text-anchor="middle" x="349" y="-7.5" font-family="Helvetica,sans-Serif" font-size="10.00" fill="#000000">_previous_node</text>
</a>
</g>
</g>
<!-- Node72&#45;&gt;Node74 -->
<g id="edge3" class="edge">
<title>Node72&#45;&gt;Node74</title>
<path fill="none" stroke="#191970" d="M230.4962,-43.911C246.4362,-40.0894 265.2106,-35.5883 283.058,-31.3094"/>
<polygon fill="#191970" stroke="#191970" points="283.9455,-34.6959 292.8539,-28.9609 282.3135,-27.8888 283.9455,-34.6959"/>
</g>
<!-- Node75&#45;&gt;Node74 -->
<g id="edge5" class="edge">
<title>Node75&#45;&gt;Node74</title>
<path fill="none" stroke="#191970" d="M239.7816,-15.5C253.3099,-15.5 268.2045,-15.5 282.5273,-15.5"/>
<polygon fill="#191970" stroke="#191970" points="282.8278,-19.0001 292.8278,-15.5 282.8277,-12.0001 282.8278,-19.0001"/>
</g>
</g>
</svg>
