<?xml version="1.0" encoding="UTF-8" standalone="no"?>
<!DOCTYPE svg PUBLIC "-//W3C//DTD SVG 1.1//EN"
 "http://www.w3.org/Graphics/SVG/1.1/DTD/svg11.dtd">
<!-- Generated by graphviz version 2.40.1 (20161225.0304)
 -->
<!-- Title: zrtos_clist__init Pages: 1 -->
<svg width="241pt" height="88pt"
 viewBox="0.00 0.00 241.00 88.00" xmlns="http://www.w3.org/2000/svg" xmlns:xlink="http://www.w3.org/1999/xlink">
<g id="graph0" class="graph" transform="scale(1 1) rotate(0) translate(4 84)">
<title>zrtos_clist__init</title>
<polygon fill="#ffffff" stroke="transparent" points="-4,4 -4,-84 237,-84 237,4 -4,4"/>
<!-- Node68 -->
<g id="node1" class="node">
<title>Node68</title>
<polygon fill="#bfbfbf" stroke="#000000" points="0,-30 0,-49 85,-49 85,-30 0,-30"/>
<text text-anchor="middle" x="42.5" y="-37" font-family="Helvetica,sans-Serif" font-size="10.00" fill="#000000">zrtos_clist__init</text>
</g>
<!-- Node69 -->
<g id="node2" class="node">
<title>Node69</title>
<g id="a_node2"><a xlink:href="spi_2spi_8h.html#ac71d0c5a0a719470ac191341e1bc47e4" target="_top" xlink:title="zrtos_vfs_module_spi\l_inode__init">
<polygon fill="#ffffff" stroke="#000000" points="121,-49.5 121,-79.5 233,-79.5 233,-49.5 121,-49.5"/>
<text text-anchor="start" x="129" y="-67.5" font-family="Helvetica,sans-Serif" font-size="10.00" fill="#000000">zrtos_vfs_module_spi</text>
<text text-anchor="middle" x="177" y="-56.5" font-family="Helvetica,sans-Serif" font-size="10.00" fill="#000000">_inode__init</text>
</a>
</g>
</g>
<!-- Node68&#45;&gt;Node69 -->
<g id="edge1" class="edge">
<title>Node68&#45;&gt;Node69</title>
<path fill="none" stroke="#191970" d="M94.8924,-49.2384C103.4327,-50.8258 112.3095,-52.4757 120.9338,-54.0788"/>
<polygon fill="#191970" stroke="#191970" points="95.5279,-45.7966 85.0566,-47.4102 94.2486,-52.6787 95.5279,-45.7966"/>
</g>
<!-- Node70 -->
<g id="node3" class="node">
<title>Node70</title>
<g id="a_node3"><a xlink:href="task__scheduler_8h.html#a1e85f61c031a36a33f08d891597103b2" target="_top" xlink:title="zrtos_task_scheduler\l__init">
<polygon fill="#ffffff" stroke="#000000" points="122,-.5 122,-30.5 232,-30.5 232,-.5 122,-.5"/>
<text text-anchor="start" x="130" y="-18.5" font-family="Helvetica,sans-Serif" font-size="10.00" fill="#000000">zrtos_task_scheduler</text>
<text text-anchor="middle" x="177" y="-7.5" font-family="Helvetica,sans-Serif" font-size="10.00" fill="#000000">__init</text>
</a>
</g>
</g>
<!-- Node68&#45;&gt;Node70 -->
<g id="edge2" class="edge">
<title>Node68&#45;&gt;Node70</title>
<path fill="none" stroke="#191970" d="M95.1634,-30.1028C103.9418,-28.5364 113.0686,-26.9078 121.9056,-25.331"/>
<polygon fill="#191970" stroke="#191970" points="94.2863,-26.704 85.0566,-31.9063 95.516,-33.5951 94.2863,-26.704"/>
</g>
</g>
</svg>
