<?xml version="1.0" encoding="UTF-8" standalone="no"?>
<!DOCTYPE svg PUBLIC "-//W3C//DTD SVG 1.1//EN"
 "http://www.w3.org/Graphics/SVG/1.1/DTD/svg11.dtd">
<!-- Generated by graphviz version 2.40.1 (20161225.0304)
 -->
<!-- Title: zrtos_clist__get_root Pages: 1 -->
<svg width="1689pt" height="395pt"
 viewBox="0.00 0.00 1689.00 394.50" xmlns="http://www.w3.org/2000/svg" xmlns:xlink="http://www.w3.org/1999/xlink">
<g id="graph0" class="graph" transform="scale(1 1) rotate(0) translate(4 390.5)">
<title>zrtos_clist__get_root</title>
<polygon fill="#ffffff" stroke="transparent" points="-4,4 -4,-390.5 1685,-390.5 1685,4 -4,4"/>
<!-- Node36 -->
<g id="node1" class="node">
<title>Node36</title>
<polygon fill="#bfbfbf" stroke="#000000" points="0,-244.5 0,-263.5 107,-263.5 107,-244.5 0,-244.5"/>
<text text-anchor="middle" x="53.5" y="-251.5" font-family="Helvetica,sans-Serif" font-size="10.00" fill="#000000">zrtos_clist__get_root</text>
</g>
<!-- Node37 -->
<g id="node2" class="node">
<title>Node37</title>
<g id="a_node2"><a xlink:href="clist_8h.html#ac963d632abfc835ef63877a4cfd401e6" target="_top" xlink:title="zrtos_clist__get_last_node">
<polygon fill="#ffffff" stroke="#000000" points="143,-288.5 143,-307.5 276,-307.5 276,-288.5 143,-288.5"/>
<text text-anchor="middle" x="209.5" y="-295.5" font-family="Helvetica,sans-Serif" font-size="10.00" fill="#000000">zrtos_clist__get_last_node</text>
</a>
</g>
</g>
<!-- Node36&#45;&gt;Node37 -->
<g id="edge1" class="edge">
<title>Node36&#45;&gt;Node37</title>
<path fill="none" stroke="#191970" d="M97.2551,-266.3412C122.1019,-273.3493 152.7332,-281.9888 175.7164,-288.4713"/>
<polygon fill="#191970" stroke="#191970" points="97.9243,-262.8934 87.3497,-263.5473 96.024,-269.6306 97.9243,-262.8934"/>
</g>
<!-- Node46 -->
<g id="node11" class="node">
<title>Node46</title>
<g id="a_node11"><a xlink:href="clist_8h.html#a7cc31f994820f2b59d07e96ab9dcce0b" target="_top" xlink:title="zrtos_clist__each">
<polygon fill="#ffffff" stroke="#000000" points="163,-244.5 163,-263.5 256,-263.5 256,-244.5 163,-244.5"/>
<text text-anchor="middle" x="209.5" y="-251.5" font-family="Helvetica,sans-Serif" font-size="10.00" fill="#000000">zrtos_clist__each</text>
</a>
</g>
</g>
<!-- Node36&#45;&gt;Node46 -->
<g id="edge10" class="edge">
<title>Node36&#45;&gt;Node46</title>
<path fill="none" stroke="#191970" d="M117.5241,-254C132.6664,-254 148.5351,-254 162.7461,-254"/>
<polygon fill="#191970" stroke="#191970" points="117.1864,-250.5001 107.1864,-254 117.1863,-257.5001 117.1864,-250.5001"/>
</g>
<!-- Node52 -->
<g id="node17" class="node">
<title>Node52</title>
<g id="a_node17"><a xlink:href="task__scheduler_8h.html#ab70567884a5fe24345f654d1213b0699" target="_top" xlink:title="_zrtos_task_scheduler\l__get_active_task">
<polygon fill="#ffffff" stroke="#000000" points="152,-119 152,-149 267,-149 267,-119 152,-119"/>
<text text-anchor="start" x="160" y="-137" font-family="Helvetica,sans-Serif" font-size="10.00" fill="#000000">_zrtos_task_scheduler</text>
<text text-anchor="middle" x="209.5" y="-126" font-family="Helvetica,sans-Serif" font-size="10.00" fill="#000000">__get_active_task</text>
</a>
</g>
</g>
<!-- Node36&#45;&gt;Node52 -->
<g id="edge16" class="edge">
<title>Node36&#45;&gt;Node52</title>
<path fill="none" stroke="#191970" d="M74.1624,-238.1058C104.4255,-214.8265 160.411,-171.7608 189.9995,-149.0004"/>
<polygon fill="#191970" stroke="#191970" points="71.7947,-235.5114 66.0024,-244.3827 76.0627,-241.0598 71.7947,-235.5114"/>
</g>
<!-- Node38 -->
<g id="node3" class="node">
<title>Node38</title>
<g id="a_node3"><a xlink:href="clist_8h.html#a853d4178de18748d3bee28700929bda4" target="_top" xlink:title="zrtos_clist__push">
<polygon fill="#ffffff" stroke="#000000" points="326,-326.5 326,-345.5 419,-345.5 419,-326.5 326,-326.5"/>
<text text-anchor="middle" x="372.5" y="-333.5" font-family="Helvetica,sans-Serif" font-size="10.00" fill="#000000">zrtos_clist__push</text>
</a>
</g>
</g>
<!-- Node37&#45;&gt;Node38 -->
<g id="edge2" class="edge">
<title>Node37&#45;&gt;Node38</title>
<path fill="none" stroke="#191970" d="M260.5279,-309.8961C283.4392,-315.2374 310.1039,-321.4537 331.664,-326.4799"/>
<polygon fill="#191970" stroke="#191970" points="261.1653,-306.4509 250.6318,-307.589 259.576,-313.2681 261.1653,-306.4509"/>
</g>
<!-- Node45 -->
<g id="node10" class="node">
<title>Node45</title>
<g id="a_node10"><a xlink:href="clist_8h.html#a05304487f5b28bb930138fd203a2771f" target="_top" xlink:title="zrtos_clist__pop">
<polygon fill="#ffffff" stroke="#000000" points="328.5,-288.5 328.5,-307.5 416.5,-307.5 416.5,-288.5 328.5,-288.5"/>
<text text-anchor="middle" x="372.5" y="-295.5" font-family="Helvetica,sans-Serif" font-size="10.00" fill="#000000">zrtos_clist__pop</text>
</a>
</g>
</g>
<!-- Node37&#45;&gt;Node45 -->
<g id="edge9" class="edge">
<title>Node37&#45;&gt;Node45</title>
<path fill="none" stroke="#191970" d="M286.6545,-298C300.9964,-298 315.5183,-298 328.4368,-298"/>
<polygon fill="#191970" stroke="#191970" points="286.2687,-294.5001 276.2686,-298 286.2686,-301.5001 286.2687,-294.5001"/>
</g>
<!-- Node39 -->
<g id="node4" class="node">
<title>Node39</title>
<g id="a_node4"><a xlink:href="spi_2spi_8h.html#a18e98b2ff2735e9c263e143d51880842" target="_top" xlink:title="zrtos_vfs_module_spi\l_file__init">
<polygon fill="#ffffff" stroke="#000000" points="477,-356 477,-386 589,-386 589,-356 477,-356"/>
<text text-anchor="start" x="485" y="-374" font-family="Helvetica,sans-Serif" font-size="10.00" fill="#000000">zrtos_vfs_module_spi</text>
<text text-anchor="middle" x="533" y="-363" font-family="Helvetica,sans-Serif" font-size="10.00" fill="#000000">_file__init</text>
</a>
</g>
</g>
<!-- Node38&#45;&gt;Node39 -->
<g id="edge3" class="edge">
<title>Node38&#45;&gt;Node39</title>
<path fill="none" stroke="#191970" d="M426.2439,-347.7198C442.5065,-351.2662 460.4052,-355.1694 476.8226,-358.7495"/>
<polygon fill="#191970" stroke="#191970" points="426.8735,-344.275 416.3573,-345.5639 425.382,-351.1142 426.8735,-344.275"/>
</g>
<!-- Node41 -->
<g id="node6" class="node">
<title>Node41</title>
<g id="a_node6"><a xlink:href="task__scheduler_8h.html#ae82b03fcfb70e448c4a0bbd59ef8a035" target="_top" xlink:title="zrtos_task_scheduler\l__add_task">
<polygon fill="#ffffff" stroke="#000000" points="478,-206 478,-236 588,-236 588,-206 478,-206"/>
<text text-anchor="start" x="486" y="-224" font-family="Helvetica,sans-Serif" font-size="10.00" fill="#000000">zrtos_task_scheduler</text>
<text text-anchor="middle" x="533" y="-213" font-family="Helvetica,sans-Serif" font-size="10.00" fill="#000000">__add_task</text>
</a>
</g>
</g>
<!-- Node38&#45;&gt;Node41 -->
<g id="edge5" class="edge">
<title>Node38&#45;&gt;Node41</title>
<path fill="none" stroke="#191970" d="M424.4423,-322.2432C427.4419,-320.6754 430.3226,-318.9339 433,-317 455.198,-300.9664 449.6293,-286.3547 469,-267 480.7123,-255.2973 495.6507,-244.3808 508.1489,-236.1216"/>
<polygon fill="#191970" stroke="#191970" points="422.8355,-319.1286 415.1711,-326.4435 425.7243,-325.5048 422.8355,-319.1286"/>
</g>
<!-- Node43 -->
<g id="node8" class="node">
<title>Node43</title>
<g id="a_node8"><a xlink:href="task__scheduler_8h.html#a1e85f61c031a36a33f08d891597103b2" target="_top" xlink:title="zrtos_task_scheduler\l__init">
<polygon fill="#ffffff" stroke="#000000" points="1105,-258 1105,-288 1215,-288 1215,-258 1105,-258"/>
<text text-anchor="start" x="1113" y="-276" font-family="Helvetica,sans-Serif" font-size="10.00" fill="#000000">zrtos_task_scheduler</text>
<text text-anchor="middle" x="1160" y="-265" font-family="Helvetica,sans-Serif" font-size="10.00" fill="#000000">__init</text>
</a>
</g>
</g>
<!-- Node38&#45;&gt;Node43 -->
<g id="edge7" class="edge">
<title>Node38&#45;&gt;Node43</title>
<path fill="none" stroke="#191970" d="M413.0976,-323.5129C434.35,-317.1186 458.156,-310.2191 469,-308 566.1597,-288.1176 591.3269,-281 690.5,-281 690.5,-281 690.5,-281 841.5,-281 933.872,-281 1041.2658,-277.5956 1104.7736,-275.2284"/>
<polygon fill="#191970" stroke="#191970" points="411.8112,-320.2453 403.254,-326.4923 413.8392,-326.9452 411.8112,-320.2453"/>
</g>
<!-- Node44 -->
<g id="node9" class="node">
<title>Node44</title>
<g id="a_node9"><a xlink:href="vfs__dentry_8h.html#a568a74f7d927fbb181bcbf96621ffd8c" target="_top" xlink:title="zrtos_vfs_dentry__init">
<polygon fill="#ffffff" stroke="#000000" points="476.5,-317.5 476.5,-336.5 589.5,-336.5 589.5,-317.5 476.5,-317.5"/>
<text text-anchor="middle" x="533" y="-324.5" font-family="Helvetica,sans-Serif" font-size="10.00" fill="#000000">zrtos_vfs_dentry__init</text>
</a>
</g>
</g>
<!-- Node38&#45;&gt;Node44 -->
<g id="edge8" class="edge">
<title>Node38&#45;&gt;Node44</title>
<path fill="none" stroke="#191970" d="M429.6528,-332.7952C444.85,-331.943 461.2553,-331.0231 476.4216,-330.1726"/>
<polygon fill="#191970" stroke="#191970" points="429.143,-329.3182 419.3547,-333.3726 429.535,-336.3072 429.143,-329.3182"/>
</g>
<!-- Node40 -->
<g id="node5" class="node">
<title>Node40</title>
<g id="a_node5"><a xlink:href="spi_2spi_8h.html#a21ab487a7fecc72c5c1de2068586548a" target="_top" xlink:title="zrtos_vfs_module_spi\l_file__new">
<polygon fill="#ffffff" stroke="#000000" points="634.5,-356 634.5,-386 746.5,-386 746.5,-356 634.5,-356"/>
<text text-anchor="start" x="642.5" y="-374" font-family="Helvetica,sans-Serif" font-size="10.00" fill="#000000">zrtos_vfs_module_spi</text>
<text text-anchor="middle" x="690.5" y="-363" font-family="Helvetica,sans-Serif" font-size="10.00" fill="#000000">_file__new</text>
</a>
</g>
</g>
<!-- Node39&#45;&gt;Node40 -->
<g id="edge4" class="edge">
<title>Node39&#45;&gt;Node40</title>
<path fill="none" stroke="#191970" d="M599.5221,-371C611.1588,-371 623.1607,-371 634.4776,-371"/>
<polygon fill="#191970" stroke="#191970" points="599.4163,-367.5001 589.4163,-371 599.4162,-374.5001 599.4163,-367.5001"/>
</g>
<!-- Node42 -->
<g id="node7" class="node">
<title>Node42</title>
<g id="a_node7"><a xlink:href="task__pthread_8h.html#a091adcef6201bebbf231763328c15286" target="_top" xlink:title="pthread_create">
<polygon fill="#ffffff" stroke="#000000" points="1272,-180.5 1272,-199.5 1353,-199.5 1353,-180.5 1272,-180.5"/>
<text text-anchor="middle" x="1312.5" y="-187.5" font-family="Helvetica,sans-Serif" font-size="10.00" fill="#000000">pthread_create</text>
</a>
</g>
</g>
<!-- Node41&#45;&gt;Node42 -->
<g id="edge6" class="edge">
<title>Node41&#45;&gt;Node42</title>
<path fill="none" stroke="#191970" d="M598.2714,-221C660.7134,-221 757.5342,-221 841.5,-221 841.5,-221 841.5,-221 1002,-221 1099.2428,-221 1212.7726,-205.7591 1271.9408,-196.6503"/>
<polygon fill="#191970" stroke="#191970" points="598.1708,-217.5001 588.1707,-221 598.1707,-224.5001 598.1708,-217.5001"/>
</g>
<!-- Node47 -->
<g id="node12" class="node">
<title>Node47</title>
<g id="a_node12"><a xlink:href="vfs__dentry_8h.html#a911f5eb8673c68fe4147f56a21062ed7" target="_top" xlink:title="zrtos_vfs_dentry__each\l_child">
<polygon fill="#ffffff" stroke="#000000" points="312,-239 312,-269 433,-269 433,-239 312,-239"/>
<text text-anchor="start" x="320" y="-257" font-family="Helvetica,sans-Serif" font-size="10.00" fill="#000000">zrtos_vfs_dentry__each</text>
<text text-anchor="middle" x="372.5" y="-246" font-family="Helvetica,sans-Serif" font-size="10.00" fill="#000000">_child</text>
</a>
</g>
</g>
<!-- Node46&#45;&gt;Node47 -->
<g id="edge11" class="edge">
<title>Node46&#45;&gt;Node47</title>
<path fill="none" stroke="#191970" d="M266.6162,-254C281.2299,-254 296.9955,-254 311.7831,-254"/>
<polygon fill="#191970" stroke="#191970" points="266.2093,-250.5001 256.2093,-254 266.2092,-257.5001 266.2093,-250.5001"/>
</g>
<!-- Node48 -->
<g id="node13" class="node">
<title>Node48</title>
<g id="a_node13"><a xlink:href="vfs__dentry_8h.html#a993f8558c29043f4405698f2d4f2747e" target="_top" xlink:title="zrtos_vfs_dentry__lookup">
<polygon fill="#ffffff" stroke="#000000" points="469,-167.5 469,-186.5 597,-186.5 597,-167.5 469,-167.5"/>
<text text-anchor="middle" x="533" y="-174.5" font-family="Helvetica,sans-Serif" font-size="10.00" fill="#000000">zrtos_vfs_dentry__lookup</text>
</a>
</g>
</g>
<!-- Node47&#45;&gt;Node48 -->
<g id="edge12" class="edge">
<title>Node47&#45;&gt;Node48</title>
<path fill="none" stroke="#191970" d="M403.2896,-233.3348C421.7738,-221.5669 446.0793,-207.1866 469,-197 477.9357,-193.0287 487.898,-189.5103 497.2511,-186.5751"/>
<polygon fill="#191970" stroke="#191970" points="401.2168,-230.5069 394.7148,-238.872 405.0142,-236.3874 401.2168,-230.5069"/>
</g>
<!-- Node49 -->
<g id="node14" class="node">
<title>Node49</title>
<g id="a_node14"><a xlink:href="vfs__file_8h.html#a5e35099a788e6bd302890a2da12cdb10" target="_top" xlink:title="zrtos_vfs_file__open">
<polygon fill="#ffffff" stroke="#000000" points="637,-167.5 637,-186.5 744,-186.5 744,-167.5 637,-167.5"/>
<text text-anchor="middle" x="690.5" y="-174.5" font-family="Helvetica,sans-Serif" font-size="10.00" fill="#000000">zrtos_vfs_file__open</text>
</a>
</g>
</g>
<!-- Node48&#45;&gt;Node49 -->
<g id="edge13" class="edge">
<title>Node48&#45;&gt;Node49</title>
<path fill="none" stroke="#191970" d="M607.2915,-177C617.1661,-177 627.1344,-177 636.5728,-177"/>
<polygon fill="#191970" stroke="#191970" points="607.0613,-173.5001 597.0613,-177 607.0612,-180.5001 607.0613,-173.5001"/>
</g>
<!-- Node50 -->
<g id="node15" class="node">
<title>Node50</title>
<g id="a_node15"><a xlink:href="vfs__fd_8h.html#a3d77749f16d0a3f932c58f9ae0c20e1c" target="_top" xlink:title="zrtos_vfs_fd__open">
<polygon fill="#ffffff" stroke="#000000" points="790.5,-167.5 790.5,-186.5 892.5,-186.5 892.5,-167.5 790.5,-167.5"/>
<text text-anchor="middle" x="841.5" y="-174.5" font-family="Helvetica,sans-Serif" font-size="10.00" fill="#000000">zrtos_vfs_fd__open</text>
</a>
</g>
</g>
<!-- Node49&#45;&gt;Node50 -->
<g id="edge14" class="edge">
<title>Node49&#45;&gt;Node50</title>
<path fill="none" stroke="#191970" d="M754.5231,-177C766.4633,-177 778.7957,-177 790.2878,-177"/>
<polygon fill="#191970" stroke="#191970" points="754.1622,-173.5001 744.1621,-177 754.1621,-180.5001 754.1622,-173.5001"/>
</g>
<!-- Node51 -->
<g id="node16" class="node">
<title>Node51</title>
<g id="a_node16"><a xlink:href="rtu_8h.html#a2376d02a52d42eef634ef843afc499f3" target="_top" xlink:title="zrtos_vfs_module_modbus\l_rtu_inode__init">
<polygon fill="#ffffff" stroke="#000000" points="935,-162 935,-192 1069,-192 1069,-162 935,-162"/>
<text text-anchor="start" x="943" y="-180" font-family="Helvetica,sans-Serif" font-size="10.00" fill="#000000">zrtos_vfs_module_modbus</text>
<text text-anchor="middle" x="1002" y="-169" font-family="Helvetica,sans-Serif" font-size="10.00" fill="#000000">_rtu_inode__init</text>
</a>
</g>
</g>
<!-- Node50&#45;&gt;Node51 -->
<g id="edge15" class="edge">
<title>Node50&#45;&gt;Node51</title>
<path fill="none" stroke="#191970" d="M902.9758,-177C913.4046,-177 924.2815,-177 934.8472,-177"/>
<polygon fill="#191970" stroke="#191970" points="902.7245,-173.5001 892.7245,-177 902.7245,-180.5001 902.7245,-173.5001"/>
</g>
<!-- Node52&#45;&gt;Node41 -->
<g id="edge18" class="edge">
<title>Node52&#45;&gt;Node41</title>
<path fill="none" stroke="#191970" d="M239.7104,-154.7557C259.4226,-167.275 286.1986,-182.4148 312,-191 366.5581,-209.1537 432.1847,-216.341 477.6804,-219.1761"/>
<polygon fill="#191970" stroke="#191970" points="241.4735,-151.7274 231.1794,-149.2209 237.6636,-157.5998 241.4735,-151.7274"/>
</g>
<!-- Node53 -->
<g id="node18" class="node">
<title>Node53</title>
<g id="a_node18"><a xlink:href="task__pthread_8h.html#a4c4f5f3b4f8f45d9d897847d53b11aaa" target="_top" xlink:title="pthread_self">
<polygon fill="#ffffff" stroke="#000000" points="337.5,-162.5 337.5,-181.5 407.5,-181.5 407.5,-162.5 337.5,-162.5"/>
<text text-anchor="middle" x="372.5" y="-169.5" font-family="Helvetica,sans-Serif" font-size="10.00" fill="#000000">pthread_self</text>
</a>
</g>
</g>
<!-- Node52&#45;&gt;Node53 -->
<g id="edge17" class="edge">
<title>Node52&#45;&gt;Node53</title>
<path fill="none" stroke="#191970" d="M277.3745,-149.8235C297.8805,-154.604 319.5709,-159.6607 337.0529,-163.7363"/>
<polygon fill="#191970" stroke="#191970" points="277.9602,-146.3663 267.4267,-147.5044 276.3708,-153.1835 277.9602,-146.3663"/>
</g>
<!-- Node54 -->
<g id="node19" class="node">
<title>Node54</title>
<g id="a_node19"><a xlink:href="task__scheduler_8h.html#ae5915a01574e06572708120eaea79d3b" target="_top" xlink:title="zrtos_task_scheduler\l__has_task">
<polygon fill="#ffffff" stroke="#000000" points="786.5,-44 786.5,-74 896.5,-74 896.5,-44 786.5,-44"/>
<text text-anchor="start" x="794.5" y="-62" font-family="Helvetica,sans-Serif" font-size="10.00" fill="#000000">zrtos_task_scheduler</text>
<text text-anchor="middle" x="841.5" y="-51" font-family="Helvetica,sans-Serif" font-size="10.00" fill="#000000">__has_task</text>
</a>
</g>
</g>
<!-- Node52&#45;&gt;Node54 -->
<g id="edge19" class="edge">
<title>Node52&#45;&gt;Node54</title>
<path fill="none" stroke="#191970" d="M233.0482,-112.2248C252.5646,-95.7358 281.8926,-74.3764 312,-65 478.1139,-13.2668 687.9987,-34.743 786.1568,-49.4596"/>
<polygon fill="#191970" stroke="#191970" points="230.5663,-109.7445 225.311,-118.9442 235.1562,-115.0297 230.5663,-109.7445"/>
</g>
<!-- Node56 -->
<g id="node21" class="node">
<title>Node56</title>
<g id="a_node21"><a xlink:href="task__scheduler_8h.html#ac07ede37ac8af0c3d77478c3362c5098" target="_top" xlink:title="zrtos_task_scheduler\l__page_task_out">
<polygon fill="#ffffff" stroke="#000000" points="317.5,-75 317.5,-105 427.5,-105 427.5,-75 317.5,-75"/>
<text text-anchor="start" x="325.5" y="-93" font-family="Helvetica,sans-Serif" font-size="10.00" fill="#000000">zrtos_task_scheduler</text>
<text text-anchor="middle" x="372.5" y="-82" font-family="Helvetica,sans-Serif" font-size="10.00" fill="#000000">__page_task_out</text>
</a>
</g>
</g>
<!-- Node52&#45;&gt;Node56 -->
<g id="edge21" class="edge">
<title>Node52&#45;&gt;Node56</title>
<path fill="none" stroke="#191970" d="M275.1926,-116.267C289.1901,-112.4886 303.8345,-108.5355 317.3876,-104.877"/>
<polygon fill="#191970" stroke="#191970" points="273.8817,-112.9955 265.1395,-118.9808 275.7061,-119.7536 273.8817,-112.9955"/>
</g>
<!-- Node58 -->
<g id="node23" class="node">
<title>Node58</title>
<g id="a_node23"><a xlink:href="task__scheduler_8h.html#aa63cd785e44d31b9ae87297fad4de032" target="_top" xlink:title="_zrtos_task_scheduler\l__switch_task">
<polygon fill="#ffffff" stroke="#000000" points="633,-106 633,-136 748,-136 748,-106 633,-106"/>
<text text-anchor="start" x="641" y="-124" font-family="Helvetica,sans-Serif" font-size="10.00" fill="#000000">_zrtos_task_scheduler</text>
<text text-anchor="middle" x="690.5" y="-113" font-family="Helvetica,sans-Serif" font-size="10.00" fill="#000000">__switch_task</text>
</a>
</g>
</g>
<!-- Node52&#45;&gt;Node58 -->
<g id="edge35" class="edge">
<title>Node52&#45;&gt;Node58</title>
<path fill="none" stroke="#191970" d="M277.1189,-132.1725C372.1572,-129.6039 543.5906,-124.9705 632.8918,-122.557"/>
<polygon fill="#191970" stroke="#191970" points="276.9438,-128.6758 267.0421,-132.4448 277.133,-135.6733 276.9438,-128.6758"/>
</g>
<!-- Node62 -->
<g id="node27" class="node">
<title>Node62</title>
<g id="a_node27"><a xlink:href="task__scheduler_8h.html#ae070a60f724cc39d3a4118b57004e82f" target="_top" xlink:title="zrtos_task_scheduler\l__delay_ms">
<polygon fill="#ffffff" stroke="#000000" points="1105,-17 1105,-47 1215,-47 1215,-17 1105,-17"/>
<text text-anchor="start" x="1113" y="-35" font-family="Helvetica,sans-Serif" font-size="10.00" fill="#000000">zrtos_task_scheduler</text>
<text text-anchor="middle" x="1160" y="-24" font-family="Helvetica,sans-Serif" font-size="10.00" fill="#000000">__delay_ms</text>
</a>
</g>
</g>
<!-- Node52&#45;&gt;Node62 -->
<g id="edge36" class="edge">
<title>Node52&#45;&gt;Node62</title>
<path fill="none" stroke="#191970" d="M226.8276,-110.6274C245.2199,-87.7328 276.4933,-53.8965 312,-37 401.4524,5.5675 433.9357,-8 533,-8 533,-8 533,-8 841.5,-8 934.1047,-8 1041.4276,-18.2133 1104.8579,-25.3147"/>
<polygon fill="#191970" stroke="#191970" points="223.8327,-108.7754 220.4274,-118.8081 229.3459,-113.0887 223.8327,-108.7754"/>
</g>
<!-- Node55 -->
<g id="node20" class="node">
<title>Node55</title>
<g id="a_node20"><a xlink:href="task__pthread_8h.html#a28a15bba47cab57cbc9f5dac9af99c8b" target="_top" xlink:title="pthread_join">
<polygon fill="#ffffff" stroke="#000000" points="1125.5,-89.5 1125.5,-108.5 1194.5,-108.5 1194.5,-89.5 1125.5,-89.5"/>
<text text-anchor="middle" x="1160" y="-96.5" font-family="Helvetica,sans-Serif" font-size="10.00" fill="#000000">pthread_join</text>
</a>
</g>
</g>
<!-- Node54&#45;&gt;Node55 -->
<g id="edge20" class="edge">
<title>Node54&#45;&gt;Node55</title>
<path fill="none" stroke="#191970" d="M906.9369,-67.2181C973.1264,-75.5308 1072.9171,-88.0634 1125.2141,-94.6313"/>
<polygon fill="#191970" stroke="#191970" points="906.9731,-63.6953 896.6149,-65.9218 906.1008,-70.6407 906.9731,-63.6953"/>
</g>
<!-- Node57 -->
<g id="node22" class="node">
<title>Node57</title>
<g id="a_node22"><a xlink:href="task__scheduler_8h.html#ae6c8c745afe69110cc85c56bff00689a" target="_top" xlink:title="_zrtos_task_scheduler\l__set_active_task">
<polygon fill="#ffffff" stroke="#000000" points="475.5,-75 475.5,-105 590.5,-105 590.5,-75 475.5,-75"/>
<text text-anchor="start" x="483.5" y="-93" font-family="Helvetica,sans-Serif" font-size="10.00" fill="#000000">_zrtos_task_scheduler</text>
<text text-anchor="middle" x="533" y="-82" font-family="Helvetica,sans-Serif" font-size="10.00" fill="#000000">__set_active_task</text>
</a>
</g>
</g>
<!-- Node56&#45;&gt;Node57 -->
<g id="edge22" class="edge">
<title>Node56&#45;&gt;Node57</title>
<path fill="none" stroke="#191970" d="M438.0203,-90C450.4336,-90 463.3338,-90 475.4773,-90"/>
<polygon fill="#191970" stroke="#191970" points="437.735,-86.5001 427.735,-90 437.735,-93.5001 437.735,-86.5001"/>
</g>
<!-- Node57&#45;&gt;Node58 -->
<g id="edge23" class="edge">
<title>Node57&#45;&gt;Node58</title>
<path fill="none" stroke="#191970" d="M600.8386,-103.3524C611.4717,-105.4452 622.3755,-107.5914 632.7541,-109.6341"/>
<polygon fill="#191970" stroke="#191970" points="601.2406,-99.8644 590.7529,-101.3672 599.8887,-106.7326 601.2406,-99.8644"/>
</g>
<!-- Node59 -->
<g id="node24" class="node">
<title>Node59</title>
<g id="a_node24"><a xlink:href="task__scheduler_8h.html#ab670d7e1ab8db82279714a56efc3c99a" target="_top" xlink:title="_zrtos_task_scheduler\l__on_tick">
<polygon fill="#ffffff" stroke="#000000" points="784,-106 784,-136 899,-136 899,-106 784,-106"/>
<text text-anchor="start" x="792" y="-124" font-family="Helvetica,sans-Serif" font-size="10.00" fill="#000000">_zrtos_task_scheduler</text>
<text text-anchor="middle" x="841.5" y="-113" font-family="Helvetica,sans-Serif" font-size="10.00" fill="#000000">__on_tick</text>
</a>
</g>
</g>
<!-- Node58&#45;&gt;Node59 -->
<g id="edge24" class="edge">
<title>Node58&#45;&gt;Node59</title>
<path fill="none" stroke="#191970" d="M758.0519,-121C766.6779,-121 775.4438,-121 783.8925,-121"/>
<polygon fill="#191970" stroke="#191970" points="758.0174,-117.5001 748.0174,-121 758.0173,-124.5001 758.0174,-117.5001"/>
</g>
<!-- Node60 -->
<g id="node25" class="node">
<title>Node60</title>
<g id="a_node25"><a xlink:href="task__scheduler_8h.html#a8f15f366e9ce3328539ee562fd4c1e73" target="_top" xlink:title="_zrtos_task_scheduler\l__on_tick_ex">
<polygon fill="#ffffff" stroke="#000000" points="944.5,-106 944.5,-136 1059.5,-136 1059.5,-106 944.5,-106"/>
<text text-anchor="start" x="952.5" y="-124" font-family="Helvetica,sans-Serif" font-size="10.00" fill="#000000">_zrtos_task_scheduler</text>
<text text-anchor="middle" x="1002" y="-113" font-family="Helvetica,sans-Serif" font-size="10.00" fill="#000000">__on_tick_ex</text>
</a>
</g>
</g>
<!-- Node59&#45;&gt;Node60 -->
<g id="edge25" class="edge">
<title>Node59&#45;&gt;Node60</title>
<path fill="none" stroke="#191970" d="M909.5325,-121C921.1433,-121 933.1035,-121 944.41,-121"/>
<polygon fill="#191970" stroke="#191970" points="909.4442,-117.5001 899.4442,-121 909.4441,-124.5001 909.4442,-117.5001"/>
</g>
<!-- Node60&#45;&gt;Node43 -->
<g id="edge34" class="edge">
<title>Node60&#45;&gt;Node43</title>
<path fill="none" stroke="#191970" d="M1051.8137,-140.6241C1057.8828,-143.986 1063.7758,-147.7783 1069,-152 1107.0256,-182.7287 1137.8335,-232.6798 1151.8385,-257.6993"/>
<polygon fill="#191970" stroke="#191970" points="1053.3455,-137.4762 1042.8531,-136.0067 1050.1391,-143.6986 1053.3455,-137.4762"/>
</g>
<!-- Node60&#45;&gt;Node55 -->
<g id="edge28" class="edge">
<title>Node60&#45;&gt;Node55</title>
<path fill="none" stroke="#191970" d="M1070.054,-111.5241C1089.022,-108.883 1108.8485,-106.1224 1125.0449,-103.8672"/>
<polygon fill="#191970" stroke="#191970" points="1069.3579,-108.0872 1059.9362,-112.9329 1070.3234,-115.0203 1069.3579,-108.0872"/>
</g>
<!-- Node61 -->
<g id="node26" class="node">
<title>Node61</title>
<g id="a_node26"><a xlink:href="task__pthread_8h.html#ace168cf0d23cd4b085a2da31b881c750" target="_top" xlink:title="zrtos_task_pthread\l__trampoline_cb">
<polygon fill="#ffffff" stroke="#000000" points="1110,-145 1110,-175 1210,-175 1210,-145 1110,-145"/>
<text text-anchor="start" x="1118" y="-163" font-family="Helvetica,sans-Serif" font-size="10.00" fill="#000000">zrtos_task_pthread</text>
<text text-anchor="middle" x="1160" y="-152" font-family="Helvetica,sans-Serif" font-size="10.00" fill="#000000">__trampoline_cb</text>
</a>
</g>
</g>
<!-- Node60&#45;&gt;Node61 -->
<g id="edge26" class="edge">
<title>Node60&#45;&gt;Node61</title>
<path fill="none" stroke="#191970" d="M1069.6607,-137.7011C1083.157,-141.0324 1097.1042,-144.4751 1109.8823,-147.6292"/>
<polygon fill="#191970" stroke="#191970" points="1070.4836,-134.2992 1059.9362,-135.3007 1068.806,-141.0952 1070.4836,-134.2992"/>
</g>
<!-- Node60&#45;&gt;Node62 -->
<g id="edge29" class="edge">
<title>Node60&#45;&gt;Node62</title>
<path fill="none" stroke="#191970" d="M1037.7991,-100.8347C1066.8228,-84.4859 1107.0808,-61.8089 1133.3301,-47.0229"/>
<polygon fill="#191970" stroke="#191970" points="1035.7976,-97.945 1028.8025,-105.9024 1039.2331,-104.044 1035.7976,-97.945"/>
</g>
<!-- Node61&#45;&gt;Node42 -->
<g id="edge27" class="edge">
<title>Node61&#45;&gt;Node42</title>
<path fill="none" stroke="#191970" d="M1220.3664,-171.8754C1237.6384,-175.2731 1256.0482,-178.8947 1271.8347,-182.0003"/>
<polygon fill="#191970" stroke="#191970" points="1220.8444,-168.4024 1210.3568,-169.9063 1219.4932,-175.2707 1220.8444,-168.4024"/>
</g>
<!-- Node63 -->
<g id="node28" class="node">
<title>Node63</title>
<g id="a_node28"><a xlink:href="task__mutex_8h.html#a123e93e1f2eac3befe64178fba0bbcbd" target="_top" xlink:title="zrtos_task_mutex__lock">
<polygon fill="#ffffff" stroke="#000000" points="1251,-22.5 1251,-41.5 1374,-41.5 1374,-22.5 1251,-22.5"/>
<text text-anchor="middle" x="1312.5" y="-29.5" font-family="Helvetica,sans-Serif" font-size="10.00" fill="#000000">zrtos_task_mutex__lock</text>
</a>
</g>
</g>
<!-- Node62&#45;&gt;Node63 -->
<g id="edge30" class="edge">
<title>Node62&#45;&gt;Node63</title>
<path fill="none" stroke="#191970" d="M1225.2673,-32C1233.7376,-32 1242.3925,-32 1250.8021,-32"/>
<polygon fill="#191970" stroke="#191970" points="1225.056,-28.5001 1215.056,-32 1225.056,-35.5001 1225.056,-28.5001"/>
</g>
<!-- Node64 -->
<g id="node29" class="node">
<title>Node64</title>
<g id="a_node29"><a xlink:href="spi__sync_8h.html#acad5edb178ed84b8a1b7b3a877dbcd61" target="_top" xlink:title="zrtos_vfs_module_spi\l_sync__on_write_helper">
<polygon fill="#ffffff" stroke="#000000" points="1410,-39 1410,-69 1532,-69 1532,-39 1410,-39"/>
<text text-anchor="start" x="1418" y="-57" font-family="Helvetica,sans-Serif" font-size="10.00" fill="#000000">zrtos_vfs_module_spi</text>
<text text-anchor="middle" x="1471" y="-46" font-family="Helvetica,sans-Serif" font-size="10.00" fill="#000000">_sync__on_write_helper</text>
</a>
</g>
</g>
<!-- Node63&#45;&gt;Node64 -->
<g id="edge31" class="edge">
<title>Node63&#45;&gt;Node64</title>
<path fill="none" stroke="#191970" d="M1384.2386,-41.9574C1392.8282,-43.1497 1401.5367,-44.3584 1409.9553,-45.5269"/>
<polygon fill="#191970" stroke="#191970" points="1384.6204,-38.4769 1374.2341,-40.5688 1383.6579,-45.4105 1384.6204,-38.4769"/>
</g>
<!-- Node66 -->
<g id="node31" class="node">
<title>Node66</title>
<g id="a_node31"><a xlink:href="task__pthread_8h.html#a12809c44718c21544ceb280dc1a53573" target="_top" xlink:title="pthread_mutex_lock">
<polygon fill="#ffffff" stroke="#000000" points="1419,-.5 1419,-19.5 1523,-19.5 1523,-.5 1419,-.5"/>
<text text-anchor="middle" x="1471" y="-7.5" font-family="Helvetica,sans-Serif" font-size="10.00" fill="#000000">pthread_mutex_lock</text>
</a>
</g>
</g>
<!-- Node63&#45;&gt;Node66 -->
<g id="edge33" class="edge">
<title>Node63&#45;&gt;Node66</title>
<path fill="none" stroke="#191970" d="M1384.3838,-22.0224C1396.0252,-20.4066 1407.8805,-18.7611 1418.9331,-17.2269"/>
<polygon fill="#191970" stroke="#191970" points="1383.6579,-18.5895 1374.2341,-23.4312 1384.6204,-25.5231 1383.6579,-18.5895"/>
</g>
<!-- Node65 -->
<g id="node30" class="node">
<title>Node65</title>
<g id="a_node30"><a xlink:href="sync_8h.html#affc4ed32d5b66e97fb25c63faaf49eed" target="_top" xlink:title="zrtos_vfs_module_avr\l_spi_sync__on_write">
<polygon fill="#ffffff" stroke="#000000" points="1568,-39 1568,-69 1681,-69 1681,-39 1568,-39"/>
<text text-anchor="start" x="1576" y="-57" font-family="Helvetica,sans-Serif" font-size="10.00" fill="#000000">zrtos_vfs_module_avr</text>
<text text-anchor="middle" x="1624.5" y="-46" font-family="Helvetica,sans-Serif" font-size="10.00" fill="#000000">_spi_sync__on_write</text>
</a>
</g>
</g>
<!-- Node64&#45;&gt;Node65 -->
<g id="edge32" class="edge">
<title>Node64&#45;&gt;Node65</title>
<path fill="none" stroke="#191970" d="M1542.3578,-54C1550.8191,-54 1559.3682,-54 1567.5911,-54"/>
<polygon fill="#191970" stroke="#191970" points="1542.1084,-50.5001 1532.1083,-54 1542.1083,-57.5001 1542.1084,-50.5001"/>
</g>
</g>
</svg>
