<?xml version="1.0" encoding="UTF-8" standalone="no"?>
<!DOCTYPE svg PUBLIC "-//W3C//DTD SVG 1.1//EN"
 "http://www.w3.org/Graphics/SVG/1.1/DTD/svg11.dtd">
<!-- Generated by graphviz version 10.0.1 (20240210.2158)
 -->
<!-- Title: zrtos_clist_node__get_previous_node Pages: 1 -->
<svg width="741pt" height="266pt"
 viewBox="0.00 0.00 741.25 266.00" xmlns="http://www.w3.org/2000/svg" xmlns:xlink="http://www.w3.org/1999/xlink">
<g id="graph0" class="graph" transform="scale(1 1) rotate(0) translate(4 262)">
<title>zrtos_clist_node__get_previous_node</title>
<!-- Node1 -->
<g id="Node000001" class="node">
<title>Node1</title>
<g id="a_Node000001"><a xlink:title=" ">
<polygon fill="#999999" stroke="#666666" points="733.25,-126 622,-126 622,-94 733.25,-94 733.25,-126"/>
<text text-anchor="start" x="630" y="-112.5" font-family="Helvetica,sans-Serif" font-size="10.00">zrtos_clist_node__get</text>
<text text-anchor="middle" x="677.62" y="-100.5" font-family="Helvetica,sans-Serif" font-size="10.00">_previous_node</text>
</a>
</g>
</g>
<!-- Node2 -->
<g id="Node000002" class="node">
<title>Node2</title>
<g id="a_Node000002"><a xlink:href="clist_8h.html#a383b927f3eeb7f78f5ae9929138a635f" target="_top" xlink:title=" ">
<polygon fill="white" stroke="#666666" points="559.75,-164 462,-164 462,-144 559.75,-144 559.75,-164"/>
<text text-anchor="middle" x="510.88" y="-150.5" font-family="Helvetica,sans-Serif" font-size="10.00">zrtos_clist__delete</text>
</a>
</g>
</g>
<!-- Node1&#45;&gt;Node2 -->
<g id="edge1_Node000001_Node000002" class="edge">
<title>Node1&#45;&gt;Node2</title>
<g id="a_edge1_Node000001_Node000002"><a xlink:title=" ">
<path fill="none" stroke="#63b8ff" d="M610.72,-127.6C590.53,-132.99 568.96,-138.76 551.14,-143.51"/>
<polygon fill="#63b8ff" stroke="#63b8ff" points="611.55,-131 620.3,-125.04 609.74,-124.24 611.55,-131"/>
</a>
</g>
</g>
<!-- Node11 -->
<g id="Node000011" class="node">
<title>Node11</title>
<g id="a_Node000011"><a xlink:href="clist_8h.html#ad48884723dee26734c89f80bef68d0d5" target="_top" xlink:title=" ">
<polygon fill="white" stroke="#666666" points="577,-120 444.75,-120 444.75,-100 577,-100 577,-120"/>
<text text-anchor="middle" x="510.88" y="-106.5" font-family="Helvetica,sans-Serif" font-size="10.00">zrtos_clist__get_last_node</text>
</a>
</g>
</g>
<!-- Node1&#45;&gt;Node11 -->
<g id="edge10_Node000001_Node000011" class="edge">
<title>Node1&#45;&gt;Node11</title>
<g id="a_edge10_Node000001_Node000011"><a xlink:title=" ">
<path fill="none" stroke="#63b8ff" d="M610.55,-110C599.61,-110 588.28,-110 577.36,-110"/>
<polygon fill="#63b8ff" stroke="#63b8ff" points="610.25,-113.5 620.25,-110 610.25,-106.5 610.25,-113.5"/>
</a>
</g>
</g>
<!-- Node17 -->
<g id="Node000017" class="node">
<title>Node17</title>
<g id="a_Node000017"><a xlink:href="task_8h.html#a3331525ae546d5c92365943b4476cd14" target="_top" xlink:title=" ">
<polygon fill="white" stroke="#666666" points="586,-82 435.75,-82 435.75,-62 586,-62 586,-82"/>
<text text-anchor="middle" x="510.88" y="-68.5" font-family="Helvetica,sans-Serif" font-size="10.00">zrtos_task__get_previous_task</text>
</a>
</g>
</g>
<!-- Node1&#45;&gt;Node17 -->
<g id="edge17_Node000001_Node000017" class="edge">
<title>Node1&#45;&gt;Node17</title>
<g id="a_edge17_Node000001_Node000017"><a xlink:title=" ">
<path fill="none" stroke="#63b8ff" d="M610.75,-94.81C592.78,-90.66 573.71,-86.26 557.17,-82.45"/>
<polygon fill="#63b8ff" stroke="#63b8ff" points="609.76,-98.17 620.29,-97.01 611.33,-91.35 609.76,-98.17"/>
</a>
</g>
</g>
<!-- Node3 -->
<g id="Node000003" class="node">
<title>Node3</title>
<g id="a_Node000003"><a xlink:href="clist_8h.html#a93c384bab6f49732e1fd1aff0cbb0e2b" target="_top" xlink:title=" ">
<polygon fill="white" stroke="#666666" points="388.88,-120 301.62,-120 301.62,-100 388.88,-100 388.88,-120"/>
<text text-anchor="middle" x="345.25" y="-106.5" font-family="Helvetica,sans-Serif" font-size="10.00">zrtos_clist__pop</text>
</a>
</g>
</g>
<!-- Node2&#45;&gt;Node3 -->
<g id="edge2_Node000002_Node000003" class="edge">
<title>Node2&#45;&gt;Node3</title>
<g id="a_edge2_Node000002_Node000003"><a xlink:title=" ">
<path fill="none" stroke="#63b8ff" d="M460.03,-140.6C435.94,-134.12 407.47,-126.46 385.03,-120.43"/>
<polygon fill="#63b8ff" stroke="#63b8ff" points="459.07,-143.96 469.64,-143.18 460.89,-137.2 459.07,-143.96"/>
</a>
</g>
</g>
<!-- Node4 -->
<g id="Node000004" class="node">
<title>Node4</title>
<g id="a_Node000004"><a xlink:href="clist_8h.html#a443b3447b07aa651d8bc5b81e73be88f" target="_top" xlink:title=" ">
<polygon fill="white" stroke="#666666" points="390,-258 300.5,-258 300.5,-238 390,-238 390,-258"/>
<text text-anchor="middle" x="345.25" y="-244.5" font-family="Helvetica,sans-Serif" font-size="10.00">zrtos_clist__shift</text>
</a>
</g>
</g>
<!-- Node2&#45;&gt;Node4 -->
<g id="edge3_Node000002_Node000004" class="edge">
<title>Node2&#45;&gt;Node4</title>
<g id="a_edge3_Node000002_Node000004"><a xlink:title=" ">
<path fill="none" stroke="#63b8ff" d="M488.07,-171.34C466.58,-187.82 432.31,-212.48 399.75,-229 393.51,-232.17 386.62,-235.04 379.91,-237.53"/>
<polygon fill="#63b8ff" stroke="#63b8ff" points="490.06,-174.23 495.81,-165.33 485.76,-168.71 490.06,-174.23"/>
</a>
</g>
</g>
<!-- Node5 -->
<g id="Node000005" class="node">
<title>Node5</title>
<g id="a_Node000005"><a xlink:href="task__scheduler_8h.html#a8eaf55f184537faea5e8e9641ed4ad27" target="_top" xlink:title=" ">
<polygon fill="white" stroke="#666666" points="399.75,-220 290.75,-220 290.75,-188 399.75,-188 399.75,-220"/>
<text text-anchor="start" x="298.75" y="-206.5" font-family="Helvetica,sans-Serif" font-size="10.00">zrtos_task_scheduler</text>
<text text-anchor="middle" x="345.25" y="-194.5" font-family="Helvetica,sans-Serif" font-size="10.00">__remove_task</text>
</a>
</g>
</g>
<!-- Node2&#45;&gt;Node5 -->
<g id="edge4_Node000002_Node000005" class="edge">
<title>Node2&#45;&gt;Node5</title>
<g id="a_edge4_Node000002_Node000005"><a xlink:title=" ">
<path fill="none" stroke="#63b8ff" d="M464.6,-167.84C444.63,-173.94 421.02,-181.15 400.15,-187.53"/>
<polygon fill="#63b8ff" stroke="#63b8ff" points="465.59,-171.19 474.13,-164.92 463.54,-164.5 465.59,-171.19"/>
</a>
</g>
</g>
<!-- Node8 -->
<g id="Node000008" class="node">
<title>Node8</title>
<g id="a_Node000008"><a xlink:href="spi_2spi_8h.html#a60cc0abc749c91227a2d130e5f070884" target="_top" xlink:title=" ">
<polygon fill="white" stroke="#666666" points="399.75,-170 290.75,-170 290.75,-138 399.75,-138 399.75,-170"/>
<text text-anchor="start" x="298.75" y="-156.5" font-family="Helvetica,sans-Serif" font-size="10.00">zrtos_vfs_module_spi</text>
<text text-anchor="middle" x="345.25" y="-144.5" font-family="Helvetica,sans-Serif" font-size="10.00">_file__deinit</text>
</a>
</g>
</g>
<!-- Node2&#45;&gt;Node8 -->
<g id="edge7_Node000002_Node000008" class="edge">
<title>Node2&#45;&gt;Node8</title>
<g id="a_edge7_Node000002_Node000008"><a xlink:title=" ">
<path fill="none" stroke="#63b8ff" d="M450.51,-154C434.05,-154 416.27,-154 400.13,-154"/>
<polygon fill="#63b8ff" stroke="#63b8ff" points="450.15,-157.5 460.15,-154 450.15,-150.5 450.15,-157.5"/>
</a>
</g>
</g>
<!-- Node6 -->
<g id="Node000006" class="node">
<title>Node6</title>
<g id="a_Node000006"><a xlink:href="task__pthread_8h.html#a138580b425fd21586b4efd4ab448d593" target="_top" xlink:title=" ">
<polygon fill="white" stroke="#666666" points="249.5,-220 150.25,-220 150.25,-188 249.5,-188 249.5,-220"/>
<text text-anchor="start" x="158.25" y="-206.5" font-family="Helvetica,sans-Serif" font-size="10.00">zrtos_task_pthread</text>
<text text-anchor="middle" x="199.88" y="-194.5" font-family="Helvetica,sans-Serif" font-size="10.00">__free</text>
</a>
</g>
</g>
<!-- Node5&#45;&gt;Node6 -->
<g id="edge5_Node000005_Node000006" class="edge">
<title>Node5&#45;&gt;Node6</title>
<g id="a_edge5_Node000005_Node000006"><a xlink:title=" ">
<path fill="none" stroke="#63b8ff" d="M279.03,-204C269.19,-204 259.19,-204 249.77,-204"/>
<polygon fill="#63b8ff" stroke="#63b8ff" points="278.94,-207.5 288.94,-204 278.94,-200.5 278.94,-207.5"/>
</a>
</g>
</g>
<!-- Node7 -->
<g id="Node000007" class="node">
<title>Node7</title>
<g id="a_Node000007"><a xlink:href="task__pthread_8h.html#a28a15bba47cab57cbc9f5dac9af99c8b" target="_top" xlink:title=" ">
<polygon fill="white" stroke="#666666" points="88.75,-214 20.25,-214 20.25,-194 88.75,-194 88.75,-214"/>
<text text-anchor="middle" x="54.5" y="-200.5" font-family="Helvetica,sans-Serif" font-size="10.00">pthread_join</text>
</a>
</g>
</g>
<!-- Node6&#45;&gt;Node7 -->
<g id="edge6_Node000006_Node000007" class="edge">
<title>Node6&#45;&gt;Node7</title>
<g id="a_edge6_Node000006_Node000007"><a xlink:title=" ">
<path fill="none" stroke="#63b8ff" d="M138.87,-204C121.78,-204 103.77,-204 88.88,-204"/>
<polygon fill="#63b8ff" stroke="#63b8ff" points="138.42,-207.5 148.42,-204 138.42,-200.5 138.42,-207.5"/>
</a>
</g>
</g>
<!-- Node9 -->
<g id="Node000009" class="node">
<title>Node9</title>
<g id="a_Node000009"><a xlink:href="spi_2spi_8h.html#a28d005b51f71dc0ff7ef611a1c6404bf" target="_top" xlink:title=" ">
<polygon fill="white" stroke="#666666" points="254.38,-170 145.38,-170 145.38,-138 254.38,-138 254.38,-170"/>
<text text-anchor="start" x="153.38" y="-156.5" font-family="Helvetica,sans-Serif" font-size="10.00">zrtos_vfs_module_spi</text>
<text text-anchor="middle" x="199.88" y="-144.5" font-family="Helvetica,sans-Serif" font-size="10.00">_file__free</text>
</a>
</g>
</g>
<!-- Node8&#45;&gt;Node9 -->
<g id="edge8_Node000008_Node000009" class="edge">
<title>Node8&#45;&gt;Node9</title>
<g id="a_edge8_Node000008_Node000009"><a xlink:title=" ">
<path fill="none" stroke="#63b8ff" d="M278.99,-154C270.79,-154 262.48,-154 254.5,-154"/>
<polygon fill="#63b8ff" stroke="#63b8ff" points="278.94,-157.5 288.94,-154 278.94,-150.5 278.94,-157.5"/>
</a>
</g>
</g>
<!-- Node10 -->
<g id="Node000010" class="node">
<title>Node10</title>
<g id="a_Node000010"><a xlink:href="spi_2spi_8h.html#a826707272b70b23c5ad24939f3115ca1" target="_top" xlink:title=" ">
<polygon fill="white" stroke="#666666" points="109,-170 0,-170 0,-138 109,-138 109,-170"/>
<text text-anchor="start" x="8" y="-156.5" font-family="Helvetica,sans-Serif" font-size="10.00">zrtos_vfs_module_spi</text>
<text text-anchor="middle" x="54.5" y="-144.5" font-family="Helvetica,sans-Serif" font-size="10.00">__on_close</text>
</a>
</g>
</g>
<!-- Node9&#45;&gt;Node10 -->
<g id="edge9_Node000009_Node000010" class="edge">
<title>Node9&#45;&gt;Node10</title>
<g id="a_edge9_Node000009_Node000010"><a xlink:title=" ">
<path fill="none" stroke="#63b8ff" d="M133.61,-154C125.42,-154 117.11,-154 109.12,-154"/>
<polygon fill="#63b8ff" stroke="#63b8ff" points="133.57,-157.5 143.57,-154 133.57,-150.5 133.57,-157.5"/>
</a>
</g>
</g>
<!-- Node11&#45;&gt;Node3 -->
<g id="edge11_Node000011_Node000003" class="edge">
<title>Node11&#45;&gt;Node3</title>
<g id="a_edge11_Node000011_Node000003"><a xlink:title=" ">
<path fill="none" stroke="#63b8ff" d="M432.89,-110C417.91,-110 402.71,-110 389.32,-110"/>
<polygon fill="#63b8ff" stroke="#63b8ff" points="432.75,-113.5 442.75,-110 432.75,-106.5 432.75,-113.5"/>
</a>
</g>
</g>
<!-- Node12 -->
<g id="Node000012" class="node">
<title>Node12</title>
<g id="a_Node000012"><a xlink:href="clist_8h.html#a853d4178de18748d3bee28700929bda4" target="_top" xlink:title=" ">
<polygon fill="white" stroke="#666666" points="391.5,-73 299,-73 299,-53 391.5,-53 391.5,-73"/>
<text text-anchor="middle" x="345.25" y="-59.5" font-family="Helvetica,sans-Serif" font-size="10.00">zrtos_clist__push</text>
</a>
</g>
</g>
<!-- Node11&#45;&gt;Node12 -->
<g id="edge12_Node000011_Node000012" class="edge">
<title>Node11&#45;&gt;Node12</title>
<g id="a_edge12_Node000011_Node000012"><a xlink:title=" ">
<path fill="none" stroke="#63b8ff" d="M456.54,-96.69C449.53,-94.83 442.46,-92.91 435.75,-91 416.49,-85.52 395.07,-78.84 378.02,-73.38"/>
<polygon fill="#63b8ff" stroke="#63b8ff" points="455.41,-100.01 465.97,-99.15 457.18,-93.24 455.41,-100.01"/>
</a>
</g>
</g>
<!-- Node13 -->
<g id="Node000013" class="node">
<title>Node13</title>
<g id="a_Node000013"><a xlink:href="task__scheduler_8h.html#ae82b03fcfb70e448c4a0bbd59ef8a035" target="_top" xlink:title=" ">
<polygon fill="white" stroke="#666666" points="254.38,-120 145.38,-120 145.38,-88 254.38,-88 254.38,-120"/>
<text text-anchor="start" x="153.38" y="-106.5" font-family="Helvetica,sans-Serif" font-size="10.00">zrtos_task_scheduler</text>
<text text-anchor="middle" x="199.88" y="-94.5" font-family="Helvetica,sans-Serif" font-size="10.00">__add_task</text>
</a>
</g>
</g>
<!-- Node12&#45;&gt;Node13 -->
<g id="edge13_Node000012_Node000013" class="edge">
<title>Node12&#45;&gt;Node13</title>
<g id="a_edge13_Node000012_Node000013"><a xlink:title=" ">
<path fill="none" stroke="#63b8ff" d="M296.74,-76.59C283.26,-80.44 268.5,-84.66 254.68,-88.61"/>
<polygon fill="#63b8ff" stroke="#63b8ff" points="297.59,-79.98 306.24,-73.87 295.67,-73.25 297.59,-79.98"/>
</a>
</g>
</g>
<!-- Node15 -->
<g id="Node000015" class="node">
<title>Node15</title>
<g id="a_Node000015"><a xlink:href="task__scheduler_8h.html#a1e85f61c031a36a33f08d891597103b2" target="_top" xlink:title=" ">
<polygon fill="white" stroke="#666666" points="254.38,-70 145.38,-70 145.38,-38 254.38,-38 254.38,-70"/>
<text text-anchor="start" x="153.38" y="-56.5" font-family="Helvetica,sans-Serif" font-size="10.00">zrtos_task_scheduler</text>
<text text-anchor="middle" x="199.88" y="-44.5" font-family="Helvetica,sans-Serif" font-size="10.00">__init</text>
</a>
</g>
</g>
<!-- Node12&#45;&gt;Node15 -->
<g id="edge15_Node000012_Node000015" class="edge">
<title>Node12&#45;&gt;Node15</title>
<g id="a_edge15_Node000012_Node000015"><a xlink:title=" ">
<path fill="none" stroke="#63b8ff" d="M287.42,-59.43C276.65,-58.76 265.4,-58.05 254.72,-57.38"/>
<polygon fill="#63b8ff" stroke="#63b8ff" points="287.18,-62.92 297.37,-60.06 287.61,-55.94 287.18,-62.92"/>
</a>
</g>
</g>
<!-- Node16 -->
<g id="Node000016" class="node">
<title>Node16</title>
<g id="a_Node000016"><a xlink:href="vfs__dentry_8h.html#a568a74f7d927fbb181bcbf96621ffd8c" target="_top" xlink:title=" ">
<polygon fill="white" stroke="#666666" points="254.75,-20 145,-20 145,0 254.75,0 254.75,-20"/>
<text text-anchor="middle" x="199.88" y="-6.5" font-family="Helvetica,sans-Serif" font-size="10.00">zrtos_vfs_dentry__init</text>
</a>
</g>
</g>
<!-- Node12&#45;&gt;Node16 -->
<g id="edge16_Node000012_Node000016" class="edge">
<title>Node12&#45;&gt;Node16</title>
<g id="a_edge16_Node000012_Node000016"><a xlink:title=" ">
<path fill="none" stroke="#63b8ff" d="M306.74,-48.52C290.75,-42.41 271.87,-35.27 254.75,-29 247.02,-26.17 238.64,-23.18 230.84,-20.43"/>
<polygon fill="#63b8ff" stroke="#63b8ff" points="305.29,-51.71 315.88,-52.02 307.79,-45.18 305.29,-51.71"/>
</a>
</g>
</g>
<!-- Node14 -->
<g id="Node000014" class="node">
<title>Node14</title>
<g id="a_Node000014"><a xlink:href="task__pthread_8h.html#a091adcef6201bebbf231763328c15286" target="_top" xlink:title=" ">
<polygon fill="white" stroke="#666666" points="94.75,-114 14.25,-114 14.25,-94 94.75,-94 94.75,-114"/>
<text text-anchor="middle" x="54.5" y="-100.5" font-family="Helvetica,sans-Serif" font-size="10.00">pthread_create</text>
</a>
</g>
</g>
<!-- Node13&#45;&gt;Node14 -->
<g id="edge14_Node000013_Node000014" class="edge">
<title>Node13&#45;&gt;Node14</title>
<g id="a_edge14_Node000013_Node000014"><a xlink:title=" ">
<path fill="none" stroke="#63b8ff" d="M133.57,-104C120.34,-104 106.81,-104 94.82,-104"/>
<polygon fill="#63b8ff" stroke="#63b8ff" points="133.57,-107.5 143.57,-104 133.57,-100.5 133.57,-107.5"/>
</a>
</g>
</g>
</g>
</svg>
