<?xml version="1.0" encoding="UTF-8" standalone="no"?>
<!DOCTYPE svg PUBLIC "-//W3C//DTD SVG 1.1//EN"
 "http://www.w3.org/Graphics/SVG/1.1/DTD/svg11.dtd">
<!-- Generated by graphviz version 10.0.1 (20240210.2158)
 -->
<!-- Title: zrtos_clist__shift_and_push Pages: 1 -->
<svg width="266pt" height="116pt"
 viewBox="0.00 0.00 265.75 116.00" xmlns="http://www.w3.org/2000/svg" xmlns:xlink="http://www.w3.org/1999/xlink">
<g id="graph0" class="graph" transform="scale(1 1) rotate(0) translate(4 112)">
<title>zrtos_clist__shift_and_push</title>
<!-- Node1 -->
<g id="Node000001" class="node">
<title>Node1</title>
<g id="a_Node000001"><a xlink:title=" ">
<polygon fill="#999999" stroke="#666666" points="89.5,-76 0,-76 0,-44 89.5,-44 89.5,-76"/>
<text text-anchor="start" x="8" y="-62.5" font-family="Helvetica,sans-Serif" font-size="10.00">zrtos_clist__shift</text>
<text text-anchor="middle" x="44.75" y="-50.5" font-family="Helvetica,sans-Serif" font-size="10.00">_and_push</text>
</a>
</g>
</g>
<!-- Node2 -->
<g id="Node000002" class="node">
<title>Node2</title>
<g id="a_Node000002"><a xlink:href="clist_8h.html#ae1b2e219dd5ba17c475496cfe7dde749" target="_top" xlink:title=" ">
<polygon fill="white" stroke="#666666" points="257.75,-108 125.5,-108 125.5,-88 257.75,-88 257.75,-108"/>
<text text-anchor="middle" x="191.62" y="-94.5" font-family="Helvetica,sans-Serif" font-size="10.00">zrtos_clist__get_first_node</text>
</a>
</g>
</g>
<!-- Node1&#45;&gt;Node2 -->
<g id="edge1_Node000001_Node000002" class="edge">
<title>Node1&#45;&gt;Node2</title>
<g id="a_edge1_Node000001_Node000002"><a xlink:title=" ">
<path fill="none" stroke="#63b8ff" d="M89.61,-71.5C105.44,-75.66 123.45,-80.38 139.83,-84.68"/>
<polygon fill="#63b8ff" stroke="#63b8ff" points="138.83,-88.03 149.4,-87.19 140.61,-81.26 138.83,-88.03"/>
</a>
</g>
</g>
<!-- Node3 -->
<g id="Node000003" class="node">
<title>Node3</title>
<g id="a_Node000003"><a xlink:href="clist_8h.html#aa49bd33d74422329134a7793b1284e80" target="_top" xlink:title=" ">
<polygon fill="white" stroke="#666666" points="245,-70 138.25,-70 138.25,-50 245,-50 245,-70"/>
<text text-anchor="middle" x="191.62" y="-56.5" font-family="Helvetica,sans-Serif" font-size="10.00">zrtos_clist__set_root</text>
</a>
</g>
</g>
<!-- Node1&#45;&gt;Node3 -->
<g id="edge2_Node000001_Node000003" class="edge">
<title>Node1&#45;&gt;Node3</title>
<g id="a_edge2_Node000001_Node000003"><a xlink:title=" ">
<path fill="none" stroke="#63b8ff" d="M89.61,-60C101.28,-60 114.13,-60 126.63,-60"/>
<polygon fill="#63b8ff" stroke="#63b8ff" points="126.46,-63.5 136.46,-60 126.46,-56.5 126.46,-63.5"/>
</a>
</g>
</g>
<!-- Node4 -->
<g id="Node000004" class="node">
<title>Node4</title>
<g id="a_Node000004"><a xlink:href="clist_8h.html#aec8fbabbd0ff3c556e46b59eb872d43c" target="_top" xlink:title=" ">
<polygon fill="white" stroke="#666666" points="247.25,-32 136,-32 136,0 247.25,0 247.25,-32"/>
<text text-anchor="start" x="144" y="-18.5" font-family="Helvetica,sans-Serif" font-size="10.00">zrtos_clist_node__get</text>
<text text-anchor="middle" x="191.62" y="-6.5" font-family="Helvetica,sans-Serif" font-size="10.00">_next_node</text>
</a>
</g>
</g>
<!-- Node1&#45;&gt;Node4 -->
<g id="edge3_Node000001_Node000004" class="edge">
<title>Node1&#45;&gt;Node4</title>
<g id="a_edge3_Node000001_Node000004"><a xlink:title=" ">
<path fill="none" stroke="#63b8ff" d="M89.61,-46.68C100.9,-43.25 113.28,-39.49 125.4,-35.81"/>
<polygon fill="#63b8ff" stroke="#63b8ff" points="126.41,-39.16 134.96,-32.9 124.38,-32.46 126.41,-39.16"/>
</a>
</g>
</g>
</g>
</svg>
