<?xml version="1.0" encoding="UTF-8" standalone="no"?>
<!DOCTYPE svg PUBLIC "-//W3C//DTD SVG 1.1//EN"
 "http://www.w3.org/Graphics/SVG/1.1/DTD/svg11.dtd">
<!-- Generated by graphviz version 10.0.1 (20240210.2158)
 -->
<!-- Title: debug.h Pages: 1 -->
<svg width="846pt" height="308pt"
 viewBox="0.00 0.00 846.12 308.00" xmlns="http://www.w3.org/2000/svg" xmlns:xlink="http://www.w3.org/1999/xlink">
<g id="graph0" class="graph" transform="scale(1 1) rotate(0) translate(4 304)">
<title>debug.h</title>
<!-- Node1 -->
<g id="Node000001" class="node">
<title>Node1</title>
<g id="a_Node000001"><a xlink:title=" ">
<polygon fill="#999999" stroke="#666666" points="583.25,-300 532.75,-300 532.75,-280 583.25,-280 583.25,-300"/>
<text text-anchor="middle" x="558" y="-286.5" font-family="Helvetica,sans-Serif" font-size="10.00">debug.h</text>
</a>
</g>
</g>
<!-- Node2 -->
<g id="Node000002" class="node">
<title>Node2</title>
<g id="a_Node000002"><a xlink:href="malloc_8h.html" target="_top" xlink:title=" ">
<polygon fill="white" stroke="#666666" points="391.38,-244 338.62,-244 338.62,-224 391.38,-224 391.38,-244"/>
<text text-anchor="middle" x="365" y="-230.5" font-family="Helvetica,sans-Serif" font-size="10.00">malloc.h</text>
</a>
</g>
</g>
<!-- Node1&#45;&gt;Node2 -->
<g id="edge1_Node000001_Node000002" class="edge">
<title>Node1&#45;&gt;Node2</title>
<g id="a_edge1_Node000001_Node000002"><a xlink:title=" ">
<path fill="none" stroke="#63b8ff" d="M521.33,-278.74C483.48,-268.15 425.35,-251.89 391.67,-242.46"/>
<polygon fill="#63b8ff" stroke="#63b8ff" points="520.34,-282.1 530.91,-281.42 522.23,-275.36 520.34,-282.1"/>
</a>
</g>
</g>
<!-- Node15 -->
<g id="Node000015" class="node">
<title>Node15</title>
<g id="a_Node000015"><a xlink:href="vheap_8h.html" target="_top" xlink:title=" ">
<polygon fill="white" stroke="#666666" points="714.5,-244 665.5,-244 665.5,-224 714.5,-224 714.5,-244"/>
<text text-anchor="middle" x="690" y="-230.5" font-family="Helvetica,sans-Serif" font-size="10.00">vheap.h</text>
</a>
</g>
</g>
<!-- Node1&#45;&gt;Node15 -->
<g id="edge17_Node000001_Node000015" class="edge">
<title>Node1&#45;&gt;Node15</title>
<g id="a_edge17_Node000001_Node000015"><a xlink:title=" ">
<path fill="none" stroke="#63b8ff" d="M591.56,-275.27C615.1,-265.64 645.98,-253.01 666.83,-244.48"/>
<polygon fill="#63b8ff" stroke="#63b8ff" points="590.32,-272 582.39,-279.02 592.97,-278.47 590.32,-272"/>
</a>
</g>
</g>
<!-- Node18 -->
<g id="Node000018" class="node">
<title>Node18</title>
<g id="a_Node000018"><a xlink:href="zrtos_8h.html" target="_top" xlink:title=" ">
<polygon fill="white" stroke="#666666" points="581,-244 535,-244 535,-224 581,-224 581,-244"/>
<text text-anchor="middle" x="558" y="-230.5" font-family="Helvetica,sans-Serif" font-size="10.00">zrtos.h</text>
</a>
</g>
</g>
<!-- Node1&#45;&gt;Node18 -->
<g id="edge21_Node000001_Node000018" class="edge">
<title>Node1&#45;&gt;Node18</title>
<g id="a_edge21_Node000001_Node000018"><a xlink:title=" ">
<path fill="none" stroke="#63b8ff" d="M558,-268.13C558,-259.9 558,-250.85 558,-244.3"/>
<polygon fill="#63b8ff" stroke="#63b8ff" points="554.5,-268.08 558,-278.08 561.5,-268.08 554.5,-268.08"/>
</a>
</g>
</g>
<!-- Node3 -->
<g id="Node000003" class="node">
<title>Node3</title>
<g id="a_Node000003"><a xlink:href="malloc__limit_8h.html" target="_top" xlink:title=" ">
<polygon fill="white" stroke="#666666" points="316,-188 240,-188 240,-168 316,-168 316,-188"/>
<text text-anchor="middle" x="278" y="-174.5" font-family="Helvetica,sans-Serif" font-size="10.00">malloc_limit.h</text>
</a>
</g>
</g>
<!-- Node2&#45;&gt;Node3 -->
<g id="edge2_Node000002_Node000003" class="edge">
<title>Node2&#45;&gt;Node3</title>
<g id="a_edge2_Node000002_Node000003"><a xlink:title=" ">
<path fill="none" stroke="#63b8ff" d="M340.1,-217.54C324.99,-208.17 306.2,-196.51 293.27,-188.48"/>
<polygon fill="#63b8ff" stroke="#63b8ff" points="338.22,-220.5 348.56,-222.8 341.91,-214.55 338.22,-220.5"/>
</a>
</g>
</g>
<!-- Node7 -->
<g id="Node000007" class="node">
<title>Node7</title>
<g id="a_Node000007"><a xlink:href="spi_2spi_8h.html" target="_top" xlink:title=" ">
<polygon fill="white" stroke="#666666" points="366.5,-76 329.5,-76 329.5,-56 366.5,-56 366.5,-76"/>
<text text-anchor="middle" x="348" y="-62.5" font-family="Helvetica,sans-Serif" font-size="10.00">spi.h</text>
</a>
</g>
</g>
<!-- Node2&#45;&gt;Node7 -->
<g id="edge15_Node000002_Node000007" class="edge">
<title>Node2&#45;&gt;Node7</title>
<g id="a_edge15_Node000002_Node000007"><a xlink:title=" ">
<path fill="none" stroke="#63b8ff" d="M362.9,-212.5C359.19,-176.27 351.62,-102.31 348.95,-76.3"/>
<polygon fill="#63b8ff" stroke="#63b8ff" points="359.38,-212.5 363.88,-222.09 366.35,-211.79 359.38,-212.5"/>
</a>
</g>
</g>
<!-- Node14 -->
<g id="Node000014" class="node">
<title>Node14</title>
<g id="a_Node000014"><a xlink:href="task__pthread_8h.html" target="_top" xlink:title=" ">
<polygon fill="white" stroke="#666666" points="497.25,-132 416.75,-132 416.75,-112 497.25,-112 497.25,-132"/>
<text text-anchor="middle" x="457" y="-118.5" font-family="Helvetica,sans-Serif" font-size="10.00">task_pthread.h</text>
</a>
</g>
</g>
<!-- Node2&#45;&gt;Node14 -->
<g id="edge16_Node000002_Node000014" class="edge">
<title>Node2&#45;&gt;Node14</title>
<g id="a_edge16_Node000002_Node000014"><a xlink:title=" ">
<path fill="none" stroke="#63b8ff" d="M374.19,-213.39C381.06,-199.85 391.25,-181.87 403,-168 414.99,-153.84 431.78,-140.63 443.44,-132.24"/>
<polygon fill="#63b8ff" stroke="#63b8ff" points="371.15,-211.64 369.91,-222.16 377.44,-214.71 371.15,-211.64"/>
</a>
</g>
</g>
<!-- Node4 -->
<g id="Node000004" class="node">
<title>Node4</title>
<g id="a_Node000004"><a xlink:href="cbuffer_8h.html" target="_top" xlink:title=" ">
<polygon fill="white" stroke="#666666" points="300.38,-132 247.62,-132 247.62,-112 300.38,-112 300.38,-132"/>
<text text-anchor="middle" x="274" y="-118.5" font-family="Helvetica,sans-Serif" font-size="10.00">cbuffer.h</text>
</a>
</g>
</g>
<!-- Node3&#45;&gt;Node4 -->
<g id="edge3_Node000003_Node000004" class="edge">
<title>Node3&#45;&gt;Node4</title>
<g id="a_edge3_Node000003_Node000004"><a xlink:title=" ">
<path fill="none" stroke="#63b8ff" d="M276.45,-156.13C275.84,-147.9 275.17,-138.85 274.69,-132.3"/>
<polygon fill="#63b8ff" stroke="#63b8ff" points="272.96,-156.37 277.19,-166.08 279.94,-155.85 272.96,-156.37"/>
</a>
</g>
</g>
<!-- Node5 -->
<g id="Node000005" class="node">
<title>Node5</title>
<g id="a_Node000005"><a xlink:href="msg__queue_8h.html" target="_top" xlink:title=" ">
<polygon fill="white" stroke="#666666" points="311.25,-76 236.75,-76 236.75,-56 311.25,-56 311.25,-76"/>
<text text-anchor="middle" x="274" y="-62.5" font-family="Helvetica,sans-Serif" font-size="10.00">msg_queue.h</text>
</a>
</g>
</g>
<!-- Node4&#45;&gt;Node5 -->
<g id="edge4_Node000004_Node000005" class="edge">
<title>Node4&#45;&gt;Node5</title>
<g id="a_edge4_Node000004_Node000005"><a xlink:title=" ">
<path fill="none" stroke="#63b8ff" d="M274,-100.13C274,-91.9 274,-82.85 274,-76.3"/>
<polygon fill="#63b8ff" stroke="#63b8ff" points="270.5,-100.08 274,-110.08 277.5,-100.08 270.5,-100.08"/>
</a>
</g>
</g>
<!-- Node6 -->
<g id="Node000006" class="node">
<title>Node6</title>
<g id="a_Node000006"><a xlink:href="rtu_8h.html" target="_top" xlink:title=" ">
<polygon fill="white" stroke="#666666" points="291.75,-20 256.25,-20 256.25,0 291.75,0 291.75,-20"/>
<text text-anchor="middle" x="274" y="-6.5" font-family="Helvetica,sans-Serif" font-size="10.00">rtu.h</text>
</a>
</g>
</g>
<!-- Node4&#45;&gt;Node6 -->
<g id="edge6_Node000004_Node000006" class="edge">
<title>Node4&#45;&gt;Node6</title>
<g id="a_edge6_Node000004_Node000006"><a xlink:title=" ">
<path fill="none" stroke="#63b8ff" d="M250.37,-104.69C235.47,-92.23 220.36,-74.15 228,-56 234.32,-40.97 248.4,-28.44 259.32,-20.46"/>
<polygon fill="#63b8ff" stroke="#63b8ff" points="248.16,-107.41 258.22,-110.75 252.44,-101.87 248.16,-107.41"/>
</a>
</g>
</g>
<!-- Node4&#45;&gt;Node7 -->
<g id="edge7_Node000004_Node000007" class="edge">
<title>Node4&#45;&gt;Node7</title>
<g id="a_edge7_Node000004_Node000007"><a xlink:title=" ">
<path fill="none" stroke="#63b8ff" d="M295.99,-104.95C308.79,-95.61 324.48,-84.16 335.26,-76.3"/>
<polygon fill="#63b8ff" stroke="#63b8ff" points="294.13,-101.98 288.11,-110.7 298.25,-107.63 294.13,-101.98"/>
</a>
</g>
</g>
<!-- Node9 -->
<g id="Node000009" class="node">
<title>Node9</title>
<g id="a_Node000009"><a xlink:href="uart_2uart_8h.html" target="_top" xlink:title=" ">
<polygon fill="white" stroke="#666666" points="176.38,-76 135.62,-76 135.62,-56 176.38,-56 176.38,-76"/>
<text text-anchor="middle" x="156" y="-62.5" font-family="Helvetica,sans-Serif" font-size="10.00">uart.h</text>
</a>
</g>
</g>
<!-- Node4&#45;&gt;Node9 -->
<g id="edge9_Node000004_Node000009" class="edge">
<title>Node4&#45;&gt;Node9</title>
<g id="a_edge9_Node000004_Node000009"><a xlink:title=" ">
<path fill="none" stroke="#63b8ff" d="M243.14,-106.88C222.2,-97.3 195.1,-84.89 176.71,-76.48"/>
<polygon fill="#63b8ff" stroke="#63b8ff" points="241.52,-109.99 252.07,-110.96 244.43,-103.62 241.52,-109.99"/>
</a>
</g>
</g>
<!-- Node5&#45;&gt;Node6 -->
<g id="edge5_Node000005_Node000006" class="edge">
<title>Node5&#45;&gt;Node6</title>
<g id="a_edge5_Node000005_Node000006"><a xlink:title=" ">
<path fill="none" stroke="#63b8ff" d="M274,-44.13C274,-35.9 274,-26.85 274,-20.3"/>
<polygon fill="#63b8ff" stroke="#63b8ff" points="270.5,-44.08 274,-54.08 277.5,-44.08 270.5,-44.08"/>
</a>
</g>
</g>
<!-- Node8 -->
<g id="Node000008" class="node">
<title>Node8</title>
<g id="a_Node000008"><a xlink:href="avr_2spi_2spi_8h.html" target="_top" xlink:title=" ">
<polygon fill="white" stroke="#666666" points="366.5,-20 329.5,-20 329.5,0 366.5,0 366.5,-20"/>
<text text-anchor="middle" x="348" y="-6.5" font-family="Helvetica,sans-Serif" font-size="10.00">spi.h</text>
</a>
</g>
</g>
<!-- Node7&#45;&gt;Node8 -->
<g id="edge8_Node000007_Node000008" class="edge">
<title>Node7&#45;&gt;Node8</title>
<g id="a_edge8_Node000007_Node000008"><a xlink:title=" ">
<path fill="none" stroke="#63b8ff" d="M348,-44.13C348,-35.9 348,-26.85 348,-20.3"/>
<polygon fill="#63b8ff" stroke="#63b8ff" points="344.5,-44.08 348,-54.08 351.5,-44.08 344.5,-44.08"/>
</a>
</g>
</g>
<!-- Node9&#45;&gt;Node6 -->
<g id="edge10_Node000009_Node000006" class="edge">
<title>Node9&#45;&gt;Node6</title>
<g id="a_edge10_Node000009_Node000006"><a xlink:title=" ">
<path fill="none" stroke="#63b8ff" d="M186.73,-50.94C208.74,-40.87 237.62,-27.65 256,-19.24"/>
<polygon fill="#63b8ff" stroke="#63b8ff" points="185.57,-47.62 177.93,-54.96 188.48,-53.99 185.57,-47.62"/>
</a>
</g>
</g>
<!-- Node10 -->
<g id="Node000010" class="node">
<title>Node10</title>
<g id="a_Node000010"><a xlink:href="uart0_8h.html" target="_top" xlink:title=" ">
<polygon fill="white" stroke="#666666" points="174,-20 128,-20 128,0 174,0 174,-20"/>
<text text-anchor="middle" x="151" y="-6.5" font-family="Helvetica,sans-Serif" font-size="10.00">uart0.h</text>
</a>
</g>
</g>
<!-- Node9&#45;&gt;Node10 -->
<g id="edge11_Node000009_Node000010" class="edge">
<title>Node9&#45;&gt;Node10</title>
<g id="a_edge11_Node000009_Node000010"><a xlink:title=" ">
<path fill="none" stroke="#63b8ff" d="M154.07,-44.13C153.31,-35.9 152.47,-26.85 151.86,-20.3"/>
<polygon fill="#63b8ff" stroke="#63b8ff" points="150.58,-44.45 154.99,-54.09 157.55,-43.81 150.58,-44.45"/>
</a>
</g>
</g>
<!-- Node11 -->
<g id="Node000011" class="node">
<title>Node11</title>
<g id="a_Node000011"><a xlink:href="uart1_8h.html" target="_top" xlink:title=" ">
<polygon fill="white" stroke="#666666" points="238,-20 192,-20 192,0 238,0 238,-20"/>
<text text-anchor="middle" x="215" y="-6.5" font-family="Helvetica,sans-Serif" font-size="10.00">uart1.h</text>
</a>
</g>
</g>
<!-- Node9&#45;&gt;Node11 -->
<g id="edge12_Node000009_Node000011" class="edge">
<title>Node9&#45;&gt;Node11</title>
<g id="a_edge12_Node000009_Node000011"><a xlink:title=" ">
<path fill="none" stroke="#63b8ff" d="M174.74,-47.85C184.71,-38.72 196.58,-27.86 204.84,-20.3"/>
<polygon fill="#63b8ff" stroke="#63b8ff" points="172.41,-45.24 167.39,-54.57 177.13,-50.4 172.41,-45.24"/>
</a>
</g>
</g>
<!-- Node12 -->
<g id="Node000012" class="node">
<title>Node12</title>
<g id="a_Node000012"><a xlink:href="uart2_8h.html" target="_top" xlink:title=" ">
<polygon fill="white" stroke="#666666" points="46,-20 0,-20 0,0 46,0 46,-20"/>
<text text-anchor="middle" x="23" y="-6.5" font-family="Helvetica,sans-Serif" font-size="10.00">uart2.h</text>
</a>
</g>
</g>
<!-- Node9&#45;&gt;Node12 -->
<g id="edge13_Node000009_Node000012" class="edge">
<title>Node9&#45;&gt;Node12</title>
<g id="a_edge13_Node000009_Node000012"><a xlink:title=" ">
<path fill="none" stroke="#63b8ff" d="M124.86,-52.36C100.83,-42.6 68.12,-29.32 46.32,-20.47"/>
<polygon fill="#63b8ff" stroke="#63b8ff" points="123.23,-55.47 133.82,-55.99 125.87,-48.99 123.23,-55.47"/>
</a>
</g>
</g>
<!-- Node13 -->
<g id="Node000013" class="node">
<title>Node13</title>
<g id="a_Node000013"><a xlink:href="uart3_8h.html" target="_top" xlink:title=" ">
<polygon fill="white" stroke="#666666" points="110,-20 64,-20 64,0 110,0 110,-20"/>
<text text-anchor="middle" x="87" y="-6.5" font-family="Helvetica,sans-Serif" font-size="10.00">uart3.h</text>
</a>
</g>
</g>
<!-- Node9&#45;&gt;Node13 -->
<g id="edge14_Node000009_Node000013" class="edge">
<title>Node9&#45;&gt;Node13</title>
<g id="a_edge14_Node000009_Node000013"><a xlink:title=" ">
<path fill="none" stroke="#63b8ff" d="M135.15,-48.68C123.27,-39.39 108.83,-28.09 98.88,-20.3"/>
<polygon fill="#63b8ff" stroke="#63b8ff" points="132.76,-51.25 142.79,-54.66 137.07,-45.74 132.76,-51.25"/>
</a>
</g>
</g>
<!-- Node16 -->
<g id="Node000016" class="node">
<title>Node16</title>
<g id="a_Node000016"><a xlink:href="vheap__task__pthread_8h.html" target="_top" xlink:title=" ">
<polygon fill="white" stroke="#666666" points="778.25,-132 667.75,-132 667.75,-112 778.25,-112 778.25,-132"/>
<text text-anchor="middle" x="723" y="-118.5" font-family="Helvetica,sans-Serif" font-size="10.00">vheap_task_pthread.h</text>
</a>
</g>
</g>
<!-- Node15&#45;&gt;Node16 -->
<g id="edge18_Node000015_Node000016" class="edge">
<title>Node15&#45;&gt;Node16</title>
<g id="a_edge18_Node000015_Node000016"><a xlink:title=" ">
<path fill="none" stroke="#63b8ff" d="M695.78,-212.88C699.5,-200.03 704.47,-183.01 709,-168 712.73,-155.62 717.19,-141.38 720.06,-132.29"/>
<polygon fill="#63b8ff" stroke="#63b8ff" points="692.48,-211.7 693.08,-222.27 699.21,-213.64 692.48,-211.7"/>
</a>
</g>
</g>
<!-- Node17 -->
<g id="Node000017" class="node">
<title>Node17</title>
<g id="a_Node000017"><a xlink:href="vheap__task__scheduler_8h.html" target="_top" xlink:title=" ">
<polygon fill="white" stroke="#666666" points="838.12,-188 717.88,-188 717.88,-168 838.12,-168 838.12,-188"/>
<text text-anchor="middle" x="778" y="-174.5" font-family="Helvetica,sans-Serif" font-size="10.00">vheap_task_scheduler.h</text>
</a>
</g>
</g>
<!-- Node15&#45;&gt;Node17 -->
<g id="edge19_Node000015_Node000017" class="edge">
<title>Node15&#45;&gt;Node17</title>
<g id="a_edge19_Node000015_Node000017"><a xlink:title=" ">
<path fill="none" stroke="#63b8ff" d="M714.75,-217.81C730.1,-208.39 749.35,-196.58 762.55,-188.48"/>
<polygon fill="#63b8ff" stroke="#63b8ff" points="713.31,-214.59 706.62,-222.8 716.97,-220.56 713.31,-214.59"/>
</a>
</g>
</g>
<!-- Node17&#45;&gt;Node16 -->
<g id="edge20_Node000017_Node000016" class="edge">
<title>Node17&#45;&gt;Node16</title>
<g id="a_edge20_Node000017_Node000016"><a xlink:title=" ">
<path fill="none" stroke="#63b8ff" d="M760.24,-159.57C751.01,-150.5 740.09,-139.78 732.47,-132.3"/>
<polygon fill="#63b8ff" stroke="#63b8ff" points="757.75,-162.03 767.34,-166.53 762.66,-157.03 757.75,-162.03"/>
</a>
</g>
</g>
<!-- Node19 -->
<g id="Node000019" class="node">
<title>Node19</title>
<g id="a_Node000019"><a xlink:href="stack_8h.html" target="_top" xlink:title=" ">
<polygon fill="white" stroke="#666666" points="662.12,-188 613.88,-188 613.88,-168 662.12,-168 662.12,-188"/>
<text text-anchor="middle" x="638" y="-174.5" font-family="Helvetica,sans-Serif" font-size="10.00">stack.h</text>
</a>
</g>
</g>
<!-- Node18&#45;&gt;Node19 -->
<g id="edge22_Node000018_Node000019" class="edge">
<title>Node18&#45;&gt;Node19</title>
<g id="a_edge22_Node000018_Node000019"><a xlink:title=" ">
<path fill="none" stroke="#63b8ff" d="M581.3,-217.27C595.12,-207.94 612.18,-196.43 623.96,-188.48"/>
<polygon fill="#63b8ff" stroke="#63b8ff" points="579.52,-214.25 573.19,-222.75 583.44,-220.05 579.52,-214.25"/>
</a>
</g>
</g>
<!-- Node21 -->
<g id="Node000021" class="node">
<title>Node21</title>
<g id="a_Node000021"><a xlink:href="task__mutex_8h.html" target="_top" xlink:title=" ">
<polygon fill="white" stroke="#666666" points="595.62,-188 520.38,-188 520.38,-168 595.62,-168 595.62,-188"/>
<text text-anchor="middle" x="558" y="-174.5" font-family="Helvetica,sans-Serif" font-size="10.00">task_mutex.h</text>
</a>
</g>
</g>
<!-- Node18&#45;&gt;Node21 -->
<g id="edge24_Node000018_Node000021" class="edge">
<title>Node18&#45;&gt;Node21</title>
<g id="a_edge24_Node000018_Node000021"><a xlink:title=" ">
<path fill="none" stroke="#63b8ff" d="M558,-212.13C558,-203.9 558,-194.85 558,-188.3"/>
<polygon fill="#63b8ff" stroke="#63b8ff" points="554.5,-212.08 558,-222.08 561.5,-212.08 554.5,-212.08"/>
</a>
</g>
</g>
<!-- Node23 -->
<g id="Node000023" class="node">
<title>Node23</title>
<g id="a_Node000023"><a xlink:href="task__scheduler_8h.html" target="_top" xlink:title=" ">
<polygon fill="white" stroke="#666666" points="502.12,-188 411.88,-188 411.88,-168 502.12,-168 502.12,-188"/>
<text text-anchor="middle" x="457" y="-174.5" font-family="Helvetica,sans-Serif" font-size="10.00">task_scheduler.h</text>
</a>
</g>
</g>
<!-- Node18&#45;&gt;Node23 -->
<g id="edge28_Node000018_Node000023" class="edge">
<title>Node18&#45;&gt;Node23</title>
<g id="a_edge28_Node000018_Node000023"><a xlink:title=" ">
<path fill="none" stroke="#63b8ff" d="M530.59,-218.35C512.82,-208.84 490.17,-196.74 474.73,-188.48"/>
<polygon fill="#63b8ff" stroke="#63b8ff" points="528.6,-221.25 539.07,-222.88 531.9,-215.08 528.6,-221.25"/>
</a>
</g>
</g>
<!-- Node20 -->
<g id="Node000020" class="node">
<title>Node20</title>
<g id="a_Node000020"><a xlink:href="vm_8h.html" target="_top" xlink:title=" ">
<polygon fill="white" stroke="#666666" points="650.12,-132 613.88,-132 613.88,-112 650.12,-112 650.12,-132"/>
<text text-anchor="middle" x="632" y="-118.5" font-family="Helvetica,sans-Serif" font-size="10.00">vm.h</text>
</a>
</g>
</g>
<!-- Node19&#45;&gt;Node20 -->
<g id="edge23_Node000019_Node000020" class="edge">
<title>Node19&#45;&gt;Node20</title>
<g id="a_edge23_Node000019_Node000020"><a xlink:title=" ">
<path fill="none" stroke="#63b8ff" d="M635.71,-156.43C634.79,-148.11 633.77,-138.93 633.03,-132.3"/>
<polygon fill="#63b8ff" stroke="#63b8ff" points="632.2,-156.54 636.79,-166.09 639.16,-155.76 632.2,-156.54"/>
</a>
</g>
</g>
<!-- Node21&#45;&gt;Node14 -->
<g id="edge26_Node000021_Node000014" class="edge">
<title>Node21&#45;&gt;Node14</title>
<g id="a_edge26_Node000021_Node000014"><a xlink:title=" ">
<path fill="none" stroke="#63b8ff" d="M530.59,-162.35C512.82,-152.84 490.17,-140.74 474.73,-132.48"/>
<polygon fill="#63b8ff" stroke="#63b8ff" points="528.6,-165.25 539.07,-166.88 531.9,-159.08 528.6,-165.25"/>
</a>
</g>
</g>
<!-- Node21&#45;&gt;Node16 -->
<g id="edge27_Node000021_Node000016" class="edge">
<title>Node21&#45;&gt;Node16</title>
<g id="a_edge27_Node000021_Node000016"><a xlink:title=" ">
<path fill="none" stroke="#63b8ff" d="M597.57,-164.05C627.28,-154.33 667.27,-141.24 694.03,-132.48"/>
<polygon fill="#63b8ff" stroke="#63b8ff" points="596.59,-160.69 588.18,-167.12 598.77,-167.34 596.59,-160.69"/>
</a>
</g>
</g>
<!-- Node22 -->
<g id="Node000022" class="node">
<title>Node22</title>
<g id="a_Node000022"><a xlink:href="spi__sync_8h.html" target="_top" xlink:title=" ">
<polygon fill="white" stroke="#666666" points="589.62,-132 526.38,-132 526.38,-112 589.62,-112 589.62,-132"/>
<text text-anchor="middle" x="558" y="-118.5" font-family="Helvetica,sans-Serif" font-size="10.00">spi_sync.h</text>
</a>
</g>
</g>
<!-- Node21&#45;&gt;Node22 -->
<g id="edge25_Node000021_Node000022" class="edge">
<title>Node21&#45;&gt;Node22</title>
<g id="a_edge25_Node000021_Node000022"><a xlink:title=" ">
<path fill="none" stroke="#63b8ff" d="M558,-156.13C558,-147.9 558,-138.85 558,-132.3"/>
<polygon fill="#63b8ff" stroke="#63b8ff" points="554.5,-156.08 558,-166.08 561.5,-156.08 554.5,-156.08"/>
</a>
</g>
</g>
<!-- Node23&#45;&gt;Node14 -->
<g id="edge29_Node000023_Node000014" class="edge">
<title>Node23&#45;&gt;Node14</title>
<g id="a_edge29_Node000023_Node000014"><a xlink:title=" ">
<path fill="none" stroke="#63b8ff" d="M457,-156.13C457,-147.9 457,-138.85 457,-132.3"/>
<polygon fill="#63b8ff" stroke="#63b8ff" points="453.5,-156.08 457,-166.08 460.5,-156.08 453.5,-156.08"/>
</a>
</g>
</g>
</g>
</svg>
