<?xml version="1.0" encoding="UTF-8" standalone="no"?>
<!DOCTYPE svg PUBLIC "-//W3C//DTD SVG 1.1//EN"
 "http://www.w3.org/Graphics/SVG/1.1/DTD/svg11.dtd">
<!-- Generated by graphviz version 10.0.1 (20240210.2158)
 -->
<!-- Title: module Pages: 1 -->
<svg width="898pt" height="152pt"
 viewBox="0.00 0.00 898.00 152.00" xmlns="http://www.w3.org/2000/svg" xmlns:xlink="http://www.w3.org/1999/xlink">
<g id="graph0" class="graph" transform="scale(1 1) rotate(0) translate(4 148)">
<title>module</title>
<g id="clust1" class="cluster">
<title>clusterdir_dc24db2dc4fddc5d6926aacae0fcbcba</title>
<g id="a_clust1"><a xlink:href="dir_dc24db2dc4fddc5d6926aacae0fcbcba.html" target="_top" xlink:title="vfs">
<polygon fill="#edf0f7" stroke="#7f7f7f" stroke-dasharray="5,2" points="8,-8 8,-136 842,-136 842,-8 8,-8"/>
<text text-anchor="middle" x="425" y="-122.5" font-family="Helvetica,sans-Serif" font-size="10.00">vfs</text>
</a>
</g>
</g>
<g id="clust2" class="cluster">
<title>clusterdir_278173988d65b476d0538235309879a9</title>
<g id="a_clust2"><a xlink:href="dir_278173988d65b476d0538235309879a9.html" target="_top">
<polygon fill="#edf0f7" stroke="#404040" stroke-width="2" points="16,-16 16,-108 834,-108 834,-16 16,-16"/>
</a>
</g>
</g>
<!-- dir_278173988d65b476d0538235309879a9 -->
<g id="node1" class="node">
<title>dir_278173988d65b476d0538235309879a9</title>
<text text-anchor="middle" x="48" y="-86.5" font-family="Helvetica,sans-Serif" font-size="10.00">module</text>
</g>
<!-- dir_f16220d8d45a4036713330aefbb9c1e7 -->
<g id="node2" class="node">
<title>dir_f16220d8d45a4036713330aefbb9c1e7</title>
<g id="a_node2"><a xlink:href="dir_f16220d8d45a4036713330aefbb9c1e7.html" target="_top" xlink:title="arduino">
<polygon fill="#a2b4d6" stroke="#404040" points="472.75,-100 425.25,-100 425.25,-80 472.75,-80 472.75,-100"/>
<text text-anchor="middle" x="449" y="-86.5" font-family="Helvetica,sans-Serif" font-size="10.00">arduino</text>
</a>
</g>
</g>
<!-- dir_b055b4698aa074fda90d59c953fca1c1 -->
<g id="node5" class="node">
<title>dir_b055b4698aa074fda90d59c953fca1c1</title>
<g id="a_node5"><a xlink:href="dir_b055b4698aa074fda90d59c953fca1c1.html" target="_top" xlink:title="gpio">
<polygon fill="#a2b4d6" stroke="#404040" points="466,-44 432,-44 432,-24 466,-24 466,-44"/>
<text text-anchor="middle" x="449" y="-30.5" font-family="Helvetica,sans-Serif" font-size="10.00">gpio</text>
</a>
</g>
</g>
<!-- dir_f16220d8d45a4036713330aefbb9c1e7&#45;&gt;dir_b055b4698aa074fda90d59c953fca1c1 -->
<g id="edge1" class="edge">
<title>dir_f16220d8d45a4036713330aefbb9c1e7&#45;&gt;dir_b055b4698aa074fda90d59c953fca1c1</title>
<g id="a_edge1"><a xlink:href="dir_000002_000006.html" target="_top">
<path fill="none" stroke="#63b8ff" d="M449,-79.59C449,-73.01 449,-63.96 449,-55.73"/>
<polygon fill="#63b8ff" stroke="#63b8ff" points="452.5,-55.81 449,-45.81 445.5,-55.81 452.5,-55.81"/>
</a>
</g>
<g id="a_edge1&#45;headlabel"><a xlink:href="dir_000002_000006.html" target="_top" xlink:title="1">
<text text-anchor="middle" x="455.34" y="-54.39" font-family="Helvetica,sans-Serif" font-size="10.00" fill="#63b8ff">1</text>
</a>
</g>
</g>
<!-- dir_f04b423965c07ce5f2c4da56e14dc653 -->
<g id="node18" class="node">
<title>dir_f04b423965c07ce5f2c4da56e14dc653</title>
<g id="a_node18"><a xlink:href="dir_f04b423965c07ce5f2c4da56e14dc653.html" target="_top" xlink:title="board">
<polygon fill="#edf0f7" stroke="#7f7f7f" points="890,-44 850,-44 850,-24 890,-24 890,-44"/>
<text text-anchor="middle" x="870" y="-30.5" font-family="Helvetica,sans-Serif" font-size="10.00">board</text>
</a>
</g>
</g>
<!-- dir_f16220d8d45a4036713330aefbb9c1e7&#45;&gt;dir_f04b423965c07ce5f2c4da56e14dc653 -->
<g id="edge2" class="edge">
<title>dir_f16220d8d45a4036713330aefbb9c1e7&#45;&gt;dir_f04b423965c07ce5f2c4da56e14dc653</title>
<g id="a_edge2"><a xlink:href="dir_000002_000004.html" target="_top">
<path fill="none" stroke="#63b8ff" d="M473.04,-81.95C476.04,-81.22 479.08,-80.54 482,-80 638.36,-50.98 681.76,-73.64 838,-44 838.24,-43.95 838.48,-43.91 838.73,-43.86"/>
<polygon fill="#63b8ff" stroke="#63b8ff" points="839.41,-47.3 848.34,-41.6 837.8,-40.48 839.41,-47.3"/>
</a>
</g>
<g id="a_edge2&#45;headlabel"><a xlink:href="dir_000002_000004.html" target="_top" xlink:title="1">
<text text-anchor="middle" x="838.03" y="-47.04" font-family="Helvetica,sans-Serif" font-size="10.00" fill="#63b8ff">1</text>
</a>
</g>
</g>
<!-- dir_a0cac654631d4d67dbb5058801b0e797 -->
<g id="node3" class="node">
<title>dir_a0cac654631d4d67dbb5058801b0e797</title>
<g id="a_node3"><a xlink:href="dir_a0cac654631d4d67dbb5058801b0e797.html" target="_top" xlink:title="avr">
<polygon fill="#a2b4d6" stroke="#404040" points="118.4,-100 89.6,-100 89.6,-80 118.4,-80 118.4,-100"/>
<text text-anchor="middle" x="104" y="-86.5" font-family="Helvetica,sans-Serif" font-size="10.00">avr</text>
</a>
</g>
</g>
<!-- dir_c3990a57f2ec4952843f1b9d0462cb15 -->
<g id="node12" class="node">
<title>dir_c3990a57f2ec4952843f1b9d0462cb15</title>
<g id="a_node12"><a xlink:href="dir_c3990a57f2ec4952843f1b9d0462cb15.html" target="_top" xlink:title="spi">
<polygon fill="#a2b4d6" stroke="#404040" points="61.4,-44 32.6,-44 32.6,-24 61.4,-24 61.4,-44"/>
<text text-anchor="middle" x="47" y="-30.5" font-family="Helvetica,sans-Serif" font-size="10.00">spi</text>
</a>
</g>
</g>
<!-- dir_a0cac654631d4d67dbb5058801b0e797&#45;&gt;dir_c3990a57f2ec4952843f1b9d0462cb15 -->
<g id="edge3" class="edge">
<title>dir_a0cac654631d4d67dbb5058801b0e797&#45;&gt;dir_c3990a57f2ec4952843f1b9d0462cb15</title>
<g id="a_edge3"><a xlink:href="dir_000003_000015.html" target="_top">
<path fill="none" stroke="#63b8ff" d="M94.07,-79.59C86.06,-72.01 74.58,-61.13 64.97,-52.02"/>
<polygon fill="#63b8ff" stroke="#63b8ff" points="67.58,-49.68 57.91,-45.34 62.77,-54.76 67.58,-49.68"/>
</a>
</g>
<g id="a_edge3&#45;headlabel"><a xlink:href="dir_000003_000015.html" target="_top" xlink:title="1">
<text text-anchor="middle" x="71.04" y="-45.55" font-family="Helvetica,sans-Serif" font-size="10.00" fill="#63b8ff">1</text>
</a>
</g>
</g>
<!-- dir_3cd93e5ea4942362425cb9efe264bdc5 -->
<g id="node14" class="node">
<title>dir_3cd93e5ea4942362425cb9efe264bdc5</title>
<g id="a_node14"><a xlink:href="dir_3cd93e5ea4942362425cb9efe264bdc5.html" target="_top" xlink:title="timeout">
<polygon fill="#a2b4d6" stroke="#404040" points="128.12,-44 79.88,-44 79.88,-24 128.12,-24 128.12,-44"/>
<text text-anchor="middle" x="104" y="-30.5" font-family="Helvetica,sans-Serif" font-size="10.00">timeout</text>
</a>
</g>
</g>
<!-- dir_a0cac654631d4d67dbb5058801b0e797&#45;&gt;dir_3cd93e5ea4942362425cb9efe264bdc5 -->
<g id="edge4" class="edge">
<title>dir_a0cac654631d4d67dbb5058801b0e797&#45;&gt;dir_3cd93e5ea4942362425cb9efe264bdc5</title>
<g id="a_edge4"><a xlink:href="dir_000003_000018.html" target="_top">
<path fill="none" stroke="#63b8ff" d="M104,-79.59C104,-73.01 104,-63.96 104,-55.73"/>
<polygon fill="#63b8ff" stroke="#63b8ff" points="107.5,-55.81 104,-45.81 100.5,-55.81 107.5,-55.81"/>
</a>
</g>
<g id="a_edge4&#45;headlabel"><a xlink:href="dir_000003_000018.html" target="_top" xlink:title="4">
<text text-anchor="middle" x="110.34" y="-54.39" font-family="Helvetica,sans-Serif" font-size="10.00" fill="#63b8ff">4</text>
</a>
</g>
</g>
<!-- dir_f4c6d14dead7fba3054e7a4203df56f6 -->
<g id="node15" class="node">
<title>dir_f4c6d14dead7fba3054e7a4203df56f6</title>
<g id="a_node15"><a xlink:href="dir_f4c6d14dead7fba3054e7a4203df56f6.html" target="_top" xlink:title="uart">
<polygon fill="#a2b4d6" stroke="#404040" points="178.25,-44 145.75,-44 145.75,-24 178.25,-24 178.25,-44"/>
<text text-anchor="middle" x="162" y="-30.5" font-family="Helvetica,sans-Serif" font-size="10.00">uart</text>
</a>
</g>
</g>
<!-- dir_a0cac654631d4d67dbb5058801b0e797&#45;&gt;dir_f4c6d14dead7fba3054e7a4203df56f6 -->
<g id="edge5" class="edge">
<title>dir_a0cac654631d4d67dbb5058801b0e797&#45;&gt;dir_f4c6d14dead7fba3054e7a4203df56f6</title>
<g id="a_edge5"><a xlink:href="dir_000003_000020.html" target="_top">
<path fill="none" stroke="#63b8ff" d="M114.1,-79.59C122.25,-72.01 133.93,-61.13 143.72,-52.02"/>
<polygon fill="#63b8ff" stroke="#63b8ff" points="145.97,-54.71 150.91,-45.33 141.2,-49.58 145.97,-54.71"/>
</a>
</g>
<g id="a_edge5&#45;headlabel"><a xlink:href="dir_000003_000020.html" target="_top" xlink:title="4">
<text text-anchor="middle" x="146.38" y="-54.7" font-family="Helvetica,sans-Serif" font-size="10.00" fill="#63b8ff">4</text>
</a>
</g>
</g>
<!-- dir_3437349e57bf9468fd8ec65ee237f447 -->
<g id="node4" class="node">
<title>dir_3437349e57bf9468fd8ec65ee237f447</title>
<g id="a_node4"><a xlink:href="dir_3437349e57bf9468fd8ec65ee237f447.html" target="_top" xlink:title="directory">
<polygon fill="#a2b4d6" stroke="#404040" points="258.75,-100 205.25,-100 205.25,-80 258.75,-80 258.75,-100"/>
<text text-anchor="middle" x="232" y="-86.5" font-family="Helvetica,sans-Serif" font-size="10.00">directory</text>
</a>
</g>
</g>
<!-- dir_4c1d86af3787c10c3023a3252d2b1348 -->
<g id="node6" class="node">
<title>dir_4c1d86af3787c10c3023a3252d2b1348</title>
<g id="a_node6"><a xlink:href="dir_4c1d86af3787c10c3023a3252d2b1348.html" target="_top" xlink:title="max7219">
<polygon fill="#a2b4d6" stroke="#404040" points="332.88,-100 277.12,-100 277.12,-80 332.88,-80 332.88,-100"/>
<text text-anchor="middle" x="305" y="-86.5" font-family="Helvetica,sans-Serif" font-size="10.00">max7219</text>
</a>
</g>
</g>
<!-- dir_2574c5a9997b2a30567e0684cd8f32a5 -->
<g id="node7" class="node">
<title>dir_2574c5a9997b2a30567e0684cd8f32a5</title>
<g id="a_node7"><a xlink:href="dir_2574c5a9997b2a30567e0684cd8f32a5.html" target="_top" xlink:title="mcp2515">
<polygon fill="#a2b4d6" stroke="#404040" points="406.88,-100 351.12,-100 351.12,-80 406.88,-80 406.88,-100"/>
<text text-anchor="middle" x="379" y="-86.5" font-family="Helvetica,sans-Serif" font-size="10.00">mcp2515</text>
</a>
</g>
</g>
<!-- dir_aabdfa93248dac0fbbd0460763b60733 -->
<g id="node8" class="node">
<title>dir_aabdfa93248dac0fbbd0460763b60733</title>
<g id="a_node8"><a xlink:href="dir_aabdfa93248dac0fbbd0460763b60733.html" target="_top" xlink:title="modbus">
<polygon fill="#a2b4d6" stroke="#404040" points="187.25,-100 136.75,-100 136.75,-80 187.25,-80 187.25,-100"/>
<text text-anchor="middle" x="162" y="-86.5" font-family="Helvetica,sans-Serif" font-size="10.00">modbus</text>
</a>
</g>
</g>
<!-- dir_aabdfa93248dac0fbbd0460763b60733&#45;&gt;dir_f4c6d14dead7fba3054e7a4203df56f6 -->
<g id="edge6" class="edge">
<title>dir_aabdfa93248dac0fbbd0460763b60733&#45;&gt;dir_f4c6d14dead7fba3054e7a4203df56f6</title>
<g id="a_edge6"><a xlink:href="dir_000009_000020.html" target="_top">
<path fill="none" stroke="#63b8ff" d="M162,-79.59C162,-73.01 162,-63.96 162,-55.73"/>
<polygon fill="#63b8ff" stroke="#63b8ff" points="165.5,-55.81 162,-45.81 158.5,-55.81 165.5,-55.81"/>
</a>
</g>
<g id="a_edge6&#45;headlabel"><a xlink:href="dir_000009_000020.html" target="_top" xlink:title="1">
<text text-anchor="middle" x="168.34" y="-54.39" font-family="Helvetica,sans-Serif" font-size="10.00" fill="#63b8ff">1</text>
</a>
</g>
</g>
<!-- dir_c8a764187731df9cdd646d86366e84d6 -->
<g id="node9" class="node">
<title>dir_c8a764187731df9cdd646d86366e84d6</title>
<g id="a_node9"><a xlink:href="dir_c8a764187731df9cdd646d86366e84d6.html" target="_top" xlink:title="null">
<polygon fill="#a2b4d6" stroke="#404040" points="521.5,-100 490.5,-100 490.5,-80 521.5,-80 521.5,-100"/>
<text text-anchor="middle" x="506" y="-86.5" font-family="Helvetica,sans-Serif" font-size="10.00">null</text>
</a>
</g>
</g>
<!-- dir_11d4c222b023a44fc6c35b267501ff94 -->
<g id="node10" class="node">
<title>dir_11d4c222b023a44fc6c35b267501ff94</title>
<g id="a_node10"><a xlink:href="dir_11d4c222b023a44fc6c35b267501ff94.html" target="_top" xlink:title="random">
<polygon fill="#a2b4d6" stroke="#404040" points="588.12,-100 539.88,-100 539.88,-80 588.12,-80 588.12,-100"/>
<text text-anchor="middle" x="564" y="-86.5" font-family="Helvetica,sans-Serif" font-size="10.00">random</text>
</a>
</g>
</g>
<!-- dir_aa8ae62f53964c2d6aca43f2c83e8cdb -->
<g id="node11" class="node">
<title>dir_aa8ae62f53964c2d6aca43f2c83e8cdb</title>
<g id="a_node11"><a xlink:href="dir_aa8ae62f53964c2d6aca43f2c83e8cdb.html" target="_top" xlink:title="sdm630">
<polygon fill="#a2b4d6" stroke="#404040" points="656.25,-100 605.75,-100 605.75,-80 656.25,-80 656.25,-100"/>
<text text-anchor="middle" x="631" y="-86.5" font-family="Helvetica,sans-Serif" font-size="10.00">sdm630</text>
</a>
</g>
</g>
<!-- dir_bc6e03305e6e1669d529e552300df8d9 -->
<g id="node13" class="node">
<title>dir_bc6e03305e6e1669d529e552300df8d9</title>
<g id="a_node13"><a xlink:href="dir_bc6e03305e6e1669d529e552300df8d9.html" target="_top" xlink:title="sram">
<polygon fill="#a2b4d6" stroke="#404040" points="711.88,-100 674.12,-100 674.12,-80 711.88,-80 711.88,-100"/>
<text text-anchor="middle" x="693" y="-86.5" font-family="Helvetica,sans-Serif" font-size="10.00">sram</text>
</a>
</g>
</g>
<!-- dir_b682695e04b2f00b5595fbcbd78f1b98 -->
<g id="node16" class="node">
<title>dir_b682695e04b2f00b5595fbcbd78f1b98</title>
<g id="a_node16"><a xlink:href="dir_b682695e04b2f00b5595fbcbd78f1b98.html" target="_top" xlink:title="w5500">
<polygon fill="#a2b4d6" stroke="#404040" points="773.88,-100 730.12,-100 730.12,-80 773.88,-80 773.88,-100"/>
<text text-anchor="middle" x="752" y="-86.5" font-family="Helvetica,sans-Serif" font-size="10.00">w5500</text>
</a>
</g>
</g>
<!-- dir_2e47ebaec6cefa89d9f845d5f486300e -->
<g id="node17" class="node">
<title>dir_2e47ebaec6cefa89d9f845d5f486300e</title>
<g id="a_node17"><a xlink:href="dir_2e47ebaec6cefa89d9f845d5f486300e.html" target="_top" xlink:title="zero">
<polygon fill="#a2b4d6" stroke="#404040" points="826.38,-100 791.62,-100 791.62,-80 826.38,-80 826.38,-100"/>
<text text-anchor="middle" x="809" y="-86.5" font-family="Helvetica,sans-Serif" font-size="10.00">zero</text>
</a>
</g>
</g>
</g>
</svg>
