<?xml version="1.0" encoding="UTF-8" standalone="no"?>
<!DOCTYPE svg PUBLIC "-//W3C//DTD SVG 1.1//EN"
 "http://www.w3.org/Graphics/SVG/1.1/DTD/svg11.dtd">
<!-- Generated by graphviz version 2.40.1 (20161225.0304)
 -->
<!-- Title: avr Pages: 1 -->
<svg width="398pt" height="231pt"
 viewBox="0.00 0.00 398.00 231.00" xmlns="http://www.w3.org/2000/svg" xmlns:xlink="http://www.w3.org/1999/xlink">
<g id="graph0" class="graph" transform="scale(1 1) rotate(0) translate(4 227)">
<title>avr</title>
<polygon fill="#ffffff" stroke="transparent" points="-4,4 -4,-227 394,-227 394,4 -4,4"/>
<g id="clust1" class="cluster">
<title>clusterdir_278173988d65b476d0538235309879a9</title>
<g id="a_clust1"><a xlink:href="dir_278173988d65b476d0538235309879a9.html" target="_top" xlink:title="module">
<polygon fill="#ddddee" stroke="#000000" points="8,-128 8,-215 382,-215 382,-128 8,-128"/>
<text text-anchor="middle" x="195" y="-203" font-family="Helvetica,sans-Serif" font-size="10.00" fill="#000000">module</text>
</a>
</g>
</g>
<g id="clust2" class="cluster">
<title>clusterdir_a0cac654631d4d67dbb5058801b0e797</title>
<g id="a_clust2"><a xlink:href="dir_a0cac654631d4d67dbb5058801b0e797.html" target="_top">
<polygon fill="#eeeeff" stroke="#000000" points="16,-136 16,-188 374,-188 374,-136 16,-136"/>
</a>
</g>
</g>
<!-- dir_a0cac654631d4d67dbb5058801b0e797 -->
<g id="node1" class="node">
<title>dir_a0cac654631d4d67dbb5058801b0e797</title>
<text text-anchor="middle" x="339" y="-159.5" font-family="Helvetica,sans-Serif" font-size="10.00" fill="#000000">avr</text>
</g>
<!-- dir_f7a74cab0e87e13e3892730b15090e33 -->
<g id="node2" class="node">
<title>dir_f7a74cab0e87e13e3892730b15090e33</title>
<g id="a_node2"><a xlink:href="dir_f7a74cab0e87e13e3892730b15090e33.html" target="_top" xlink:title="adc">
<polygon fill="#ffffff" stroke="#000000" points="294,-180 240,-180 240,-144 294,-144 294,-180"/>
<text text-anchor="middle" x="267" y="-159.5" font-family="Helvetica,sans-Serif" font-size="10.00" fill="#000000">adc</text>
</a>
</g>
</g>
<!-- dir_3838ad9f0d9587f7dd68f4f107c52caa -->
<g id="node3" class="node">
<title>dir_3838ad9f0d9587f7dd68f4f107c52caa</title>
<g id="a_node3"><a xlink:href="dir_3838ad9f0d9587f7dd68f4f107c52caa.html" target="_top" xlink:title="spi">
<polygon fill="#ffffff" stroke="#000000" points="78,-180 24,-180 24,-144 78,-144 78,-180"/>
<text text-anchor="middle" x="51" y="-159.5" font-family="Helvetica,sans-Serif" font-size="10.00" fill="#000000">spi</text>
</a>
</g>
</g>
<!-- dir_c3990a57f2ec4952843f1b9d0462cb15 -->
<g id="node7" class="node">
<title>dir_c3990a57f2ec4952843f1b9d0462cb15</title>
<g id="a_node7"><a xlink:href="dir_c3990a57f2ec4952843f1b9d0462cb15.html" target="_top" xlink:title="spi">
<polygon fill="none" stroke="#000000" points="78,-108 24,-108 24,-72 78,-72 78,-108"/>
<text text-anchor="middle" x="51" y="-87.5" font-family="Helvetica,sans-Serif" font-size="10.00" fill="#000000">spi</text>
</a>
</g>
</g>
<!-- dir_3838ad9f0d9587f7dd68f4f107c52caa&#45;&gt;dir_c3990a57f2ec4952843f1b9d0462cb15 -->
<g id="edge2" class="edge">
<title>dir_3838ad9f0d9587f7dd68f4f107c52caa&#45;&gt;dir_c3990a57f2ec4952843f1b9d0462cb15</title>
<path fill="none" stroke="#000000" d="M51,-143.8314C51,-136.131 51,-126.9743 51,-118.4166"/>
<polygon fill="#000000" stroke="#000000" points="54.5001,-118.4132 51,-108.4133 47.5001,-118.4133 54.5001,-118.4132"/>
<g id="a_edge2&#45;headlabel"><a xlink:href="dir_000020_000021.html" target="_top" xlink:title="1">
<text text-anchor="middle" x="57.3393" y="-119.5079" font-family="Helvetica,sans-Serif" font-size="10.00" fill="#000000">1</text>
</a>
</g>
</g>
<!-- dir_c3c6ac56d65c70c025cbae3e08fef087 -->
<g id="node4" class="node">
<title>dir_c3c6ac56d65c70c025cbae3e08fef087</title>
<g id="a_node4"><a xlink:href="dir_c3c6ac56d65c70c025cbae3e08fef087.html" target="_top" xlink:title="timeout">
<polygon fill="#ffffff" stroke="#000000" points="150,-180 96,-180 96,-144 150,-144 150,-180"/>
<text text-anchor="middle" x="123" y="-159.5" font-family="Helvetica,sans-Serif" font-size="10.00" fill="#000000">timeout</text>
</a>
</g>
</g>
<!-- dir_3cd93e5ea4942362425cb9efe264bdc5 -->
<g id="node6" class="node">
<title>dir_3cd93e5ea4942362425cb9efe264bdc5</title>
<g id="a_node6"><a xlink:href="dir_3cd93e5ea4942362425cb9efe264bdc5.html" target="_top" xlink:title="timeout">
<polygon fill="none" stroke="#000000" points="181,-36 127,-36 127,0 181,0 181,-36"/>
<text text-anchor="middle" x="154" y="-15.5" font-family="Helvetica,sans-Serif" font-size="10.00" fill="#000000">timeout</text>
</a>
</g>
</g>
<!-- dir_c3c6ac56d65c70c025cbae3e08fef087&#45;&gt;dir_3cd93e5ea4942362425cb9efe264bdc5 -->
<g id="edge3" class="edge">
<title>dir_c3c6ac56d65c70c025cbae3e08fef087&#45;&gt;dir_3cd93e5ea4942362425cb9efe264bdc5</title>
<path fill="none" stroke="#000000" d="M126.9262,-143.7623C132.237,-119.0928 141.7594,-74.8598 147.978,-45.9731"/>
<polygon fill="#000000" stroke="#000000" points="151.4227,-46.6023 150.1057,-36.0896 144.5795,-45.129 151.4227,-46.6023"/>
<g id="a_edge3&#45;headlabel"><a xlink:href="dir_000024_000023.html" target="_top" xlink:title="4">
<text text-anchor="middle" x="153.4419" y="-48.2139" font-family="Helvetica,sans-Serif" font-size="10.00" fill="#000000">4</text>
</a>
</g>
</g>
<!-- dir_eaa637bd5f7f0714f2891445e73d8a82 -->
<g id="node5" class="node">
<title>dir_eaa637bd5f7f0714f2891445e73d8a82</title>
<g id="a_node5"><a xlink:href="dir_eaa637bd5f7f0714f2891445e73d8a82.html" target="_top" xlink:title="uart">
<polygon fill="#ffffff" stroke="#000000" points="222,-180 168,-180 168,-144 222,-144 222,-180"/>
<text text-anchor="middle" x="195" y="-159.5" font-family="Helvetica,sans-Serif" font-size="10.00" fill="#000000">uart</text>
</a>
</g>
</g>
<!-- dir_f4c6d14dead7fba3054e7a4203df56f6 -->
<g id="node8" class="node">
<title>dir_f4c6d14dead7fba3054e7a4203df56f6</title>
<g id="a_node8"><a xlink:href="dir_f4c6d14dead7fba3054e7a4203df56f6.html" target="_top" xlink:title="uart">
<polygon fill="none" stroke="#000000" points="217,-108 163,-108 163,-72 217,-72 217,-108"/>
<text text-anchor="middle" x="190" y="-87.5" font-family="Helvetica,sans-Serif" font-size="10.00" fill="#000000">uart</text>
</a>
</g>
</g>
<!-- dir_eaa637bd5f7f0714f2891445e73d8a82&#45;&gt;dir_f4c6d14dead7fba3054e7a4203df56f6 -->
<g id="edge1" class="edge">
<title>dir_eaa637bd5f7f0714f2891445e73d8a82&#45;&gt;dir_f4c6d14dead7fba3054e7a4203df56f6</title>
<path fill="none" stroke="#000000" d="M193.7383,-143.8314C193.2035,-136.131 192.5677,-126.9743 191.9734,-118.4166"/>
<polygon fill="#000000" stroke="#000000" points="195.4632,-118.1467 191.2787,-108.4133 188.48,-118.6317 195.4632,-118.1467"/>
<g id="a_edge1&#45;headlabel"><a xlink:href="dir_000025_000026.html" target="_top" xlink:title="4">
<text text-anchor="middle" x="198.5445" y="-119.0361" font-family="Helvetica,sans-Serif" font-size="10.00" fill="#000000">4</text>
</a>
</g>
</g>
<!-- dir_f4c6d14dead7fba3054e7a4203df56f6&#45;&gt;dir_3cd93e5ea4942362425cb9efe264bdc5 -->
<g id="edge4" class="edge">
<title>dir_f4c6d14dead7fba3054e7a4203df56f6&#45;&gt;dir_3cd93e5ea4942362425cb9efe264bdc5</title>
<path fill="none" stroke="#000000" d="M180.9157,-71.8314C176.9385,-63.8771 172.1845,-54.369 167.7861,-45.5723"/>
<polygon fill="#000000" stroke="#000000" points="170.8093,-43.7923 163.2066,-36.4133 164.5483,-46.9228 170.8093,-43.7923"/>
<g id="a_edge4&#45;headlabel"><a xlink:href="dir_000026_000023.html" target="_top" xlink:title="1">
<text text-anchor="middle" x="174.9563" y="-43.2377" font-family="Helvetica,sans-Serif" font-size="10.00" fill="#000000">1</text>
</a>
</g>
</g>
</g>
</svg>
