<?xml version="1.0" encoding="UTF-8" standalone="no"?>
<!DOCTYPE svg PUBLIC "-//W3C//DTD SVG 1.1//EN"
 "http://www.w3.org/Graphics/SVG/1.1/DTD/svg11.dtd">
<!-- Generated by graphviz version 2.40.1 (20161225.0304)
 -->
<!-- Title: errno.h Pages: 1 -->
<svg width="240pt" height="196pt"
 viewBox="0.00 0.00 239.50 196.00" xmlns="http://www.w3.org/2000/svg" xmlns:xlink="http://www.w3.org/1999/xlink">
<g id="graph0" class="graph" transform="scale(1 1) rotate(0) translate(4 192)">
<title>errno.h</title>
<polygon fill="#ffffff" stroke="transparent" points="-4,4 -4,-192 235.5,-192 235.5,4 -4,4"/>
<!-- Node5 -->
<g id="node1" class="node">
<title>Node5</title>
<polygon fill="#bfbfbf" stroke="#000000" points="84,-168.5 84,-187.5 131,-187.5 131,-168.5 84,-168.5"/>
<text text-anchor="middle" x="107.5" y="-175.5" font-family="Helvetica,sans-Serif" font-size="10.00" fill="#000000">errno.h</text>
</g>
<!-- Node6 -->
<g id="node2" class="node">
<title>Node6</title>
<g id="a_node2"><a xlink:href="task_8h.html" target="_top" xlink:title="task.h">
<polygon fill="#ffffff" stroke="#000000" points="46.5,-112.5 46.5,-131.5 90.5,-131.5 90.5,-112.5 46.5,-112.5"/>
<text text-anchor="middle" x="68.5" y="-119.5" font-family="Helvetica,sans-Serif" font-size="10.00" fill="#000000">task.h</text>
</a>
</g>
</g>
<!-- Node5&#45;&gt;Node6 -->
<g id="edge1" class="edge">
<title>Node5&#45;&gt;Node6</title>
<path fill="none" stroke="#191970" d="M94.9092,-159.9209C88.3605,-150.5176 80.6176,-139.3997 75.2154,-131.6427"/>
<polygon fill="#191970" stroke="#191970" points="92.1196,-162.0397 100.7067,-168.2455 97.8639,-158.0392 92.1196,-162.0397"/>
</g>
<!-- Node9 -->
<g id="node5" class="node">
<title>Node9</title>
<g id="a_node5"><a xlink:href="vheap__task_8h.html" target="_top" xlink:title="vheap_task.h">
<polygon fill="#ffffff" stroke="#000000" points="121,-112.5 121,-131.5 196,-131.5 196,-112.5 121,-112.5"/>
<text text-anchor="middle" x="158.5" y="-119.5" font-family="Helvetica,sans-Serif" font-size="10.00" fill="#000000">vheap_task.h</text>
</a>
</g>
</g>
<!-- Node5&#45;&gt;Node9 -->
<g id="edge4" class="edge">
<title>Node5&#45;&gt;Node9</title>
<path fill="none" stroke="#191970" d="M123.1749,-160.7884C131.8994,-151.2085 142.4354,-139.6396 149.7183,-131.6427"/>
<polygon fill="#191970" stroke="#191970" points="120.5291,-158.4954 116.3835,-168.2455 125.7046,-163.2088 120.5291,-158.4954"/>
</g>
<!-- Node7 -->
<g id="node3" class="node">
<title>Node7</title>
<g id="a_node3"><a xlink:href="task__scheduler_8h.html" target="_top" xlink:title="task_scheduler.h">
<polygon fill="#ffffff" stroke="#000000" points="0,-56.5 0,-75.5 91,-75.5 91,-56.5 0,-56.5"/>
<text text-anchor="middle" x="45.5" y="-63.5" font-family="Helvetica,sans-Serif" font-size="10.00" fill="#000000">task_scheduler.h</text>
</a>
</g>
</g>
<!-- Node6&#45;&gt;Node7 -->
<g id="edge2" class="edge">
<title>Node6&#45;&gt;Node7</title>
<path fill="none" stroke="#191970" d="M60.5934,-102.7493C56.8383,-93.6064 52.5149,-83.0798 49.4604,-75.6427"/>
<polygon fill="#191970" stroke="#191970" points="57.4569,-104.3251 64.4937,-112.2455 63.932,-101.6656 57.4569,-104.3251"/>
</g>
<!-- Node8 -->
<g id="node4" class="node">
<title>Node8</title>
<g id="a_node4"><a xlink:href="task__pthread_8h.html" target="_top" xlink:title="task_pthread.h">
<polygon fill="#ffffff" stroke="#000000" points="5,-.5 5,-19.5 86,-19.5 86,-.5 5,-.5"/>
<text text-anchor="middle" x="45.5" y="-7.5" font-family="Helvetica,sans-Serif" font-size="10.00" fill="#000000">task_pthread.h</text>
</a>
</g>
</g>
<!-- Node7&#45;&gt;Node8 -->
<g id="edge3" class="edge">
<title>Node7&#45;&gt;Node8</title>
<path fill="none" stroke="#191970" d="M45.5,-46.1575C45.5,-37.155 45.5,-26.9199 45.5,-19.6427"/>
<polygon fill="#191970" stroke="#191970" points="42.0001,-46.2455 45.5,-56.2455 49.0001,-46.2456 42.0001,-46.2455"/>
</g>
<!-- Node10 -->
<g id="node6" class="node">
<title>Node10</title>
<g id="a_node6"><a xlink:href="vheap__task__scheduler_8h.html" target="_top" xlink:title="vheap_task_scheduler.h">
<polygon fill="#ffffff" stroke="#000000" points="109.5,-56.5 109.5,-75.5 231.5,-75.5 231.5,-56.5 109.5,-56.5"/>
<text text-anchor="middle" x="170.5" y="-63.5" font-family="Helvetica,sans-Serif" font-size="10.00" fill="#000000">vheap_task_scheduler.h</text>
</a>
</g>
</g>
<!-- Node9&#45;&gt;Node10 -->
<g id="edge5" class="edge">
<title>Node9&#45;&gt;Node10</title>
<path fill="none" stroke="#191970" d="M162.6885,-102.4538C164.6328,-93.3803 166.8572,-82.9998 168.4337,-75.6427"/>
<polygon fill="#191970" stroke="#191970" points="159.2633,-101.7341 160.5902,-112.2455 166.1079,-103.2009 159.2633,-101.7341"/>
</g>
<!-- Node11 -->
<g id="node7" class="node">
<title>Node11</title>
<g id="a_node7"><a xlink:href="vheap__task__pthread_8h.html" target="_top" xlink:title="vheap_task_pthread.h">
<polygon fill="#ffffff" stroke="#000000" points="114,-.5 114,-19.5 227,-19.5 227,-.5 114,-.5"/>
<text text-anchor="middle" x="170.5" y="-7.5" font-family="Helvetica,sans-Serif" font-size="10.00" fill="#000000">vheap_task_pthread.h</text>
</a>
</g>
</g>
<!-- Node10&#45;&gt;Node11 -->
<g id="edge6" class="edge">
<title>Node10&#45;&gt;Node11</title>
<path fill="none" stroke="#191970" d="M170.5,-46.1575C170.5,-37.155 170.5,-26.9199 170.5,-19.6427"/>
<polygon fill="#191970" stroke="#191970" points="167.0001,-46.2455 170.5,-56.2455 174.0001,-46.2456 167.0001,-46.2455"/>
</g>
</g>
</svg>
