<?xml version="1.0" encoding="UTF-8" standalone="no"?>
<!DOCTYPE svg PUBLIC "-//W3C//DTD SVG 1.1//EN"
 "http://www.w3.org/Graphics/SVG/1.1/DTD/svg11.dtd">
<!-- Generated by graphviz version 2.40.1 (20161225.0304)
 -->
<!-- Title: errno.h Pages: 1 -->
<svg width="226pt" height="140pt"
 viewBox="0.00 0.00 225.50 140.00" xmlns="http://www.w3.org/2000/svg" xmlns:xlink="http://www.w3.org/1999/xlink">
<g id="graph0" class="graph" transform="scale(1 1) rotate(0) translate(4 136)">
<title>errno.h</title>
<polygon fill="#ffffff" stroke="transparent" points="-4,4 -4,-136 221.5,-136 221.5,4 -4,4"/>
<!-- Node0 -->
<g id="node1" class="node">
<title>Node0</title>
<polygon fill="#bfbfbf" stroke="#000000" points="70.5,-112.5 70.5,-131.5 117.5,-131.5 117.5,-112.5 70.5,-112.5"/>
<text text-anchor="middle" x="94" y="-119.5" font-family="Helvetica,sans-Serif" font-size="10.00" fill="#000000">errno.h</text>
</g>
<!-- Node1 -->
<g id="node2" class="node">
<title>Node1</title>
<g id="a_node2"><a xlink:href="error_8h.html" target="_top" xlink:title="zrtos/error.h">
<polygon fill="#ffffff" stroke="#000000" points="59.5,-56.5 59.5,-75.5 128.5,-75.5 128.5,-56.5 59.5,-56.5"/>
<text text-anchor="middle" x="94" y="-63.5" font-family="Helvetica,sans-Serif" font-size="10.00" fill="#000000">zrtos/error.h</text>
</a>
</g>
</g>
<!-- Node0&#45;&gt;Node1 -->
<g id="edge1" class="edge">
<title>Node0&#45;&gt;Node1</title>
<path fill="none" stroke="#191970" d="M94,-112.2455C94,-104.9382 94,-94.6944 94,-85.7046"/>
<polygon fill="#191970" stroke="#191970" points="97.5001,-85.6426 94,-75.6427 90.5001,-85.6427 97.5001,-85.6426"/>
</g>
<!-- Node2 -->
<g id="node3" class="node">
<title>Node2</title>
<polygon fill="#ffffff" stroke="#bfbfbf" points="0,-.5 0,-19.5 48,-19.5 48,-.5 0,-.5"/>
<text text-anchor="middle" x="24" y="-7.5" font-family="Helvetica,sans-Serif" font-size="10.00" fill="#000000">limits.h</text>
</g>
<!-- Node1&#45;&gt;Node2 -->
<g id="edge2" class="edge">
<title>Node1&#45;&gt;Node2</title>
<path fill="none" stroke="#191970" d="M81.8069,-56.2455C71.3679,-47.8943 56.1345,-35.7076 43.926,-25.9408"/>
<polygon fill="#191970" stroke="#191970" points="46.0485,-23.1566 36.0533,-19.6427 41.6756,-28.6227 46.0485,-23.1566"/>
</g>
<!-- Node3 -->
<g id="node4" class="node">
<title>Node3</title>
<polygon fill="#ffffff" stroke="#bfbfbf" points="66,-.5 66,-19.5 122,-19.5 122,-.5 66,-.5"/>
<text text-anchor="middle" x="94" y="-7.5" font-family="Helvetica,sans-Serif" font-size="10.00" fill="#000000">stdbool.h</text>
</g>
<!-- Node1&#45;&gt;Node3 -->
<g id="edge3" class="edge">
<title>Node1&#45;&gt;Node3</title>
<path fill="none" stroke="#191970" d="M94,-56.2455C94,-48.9382 94,-38.6944 94,-29.7046"/>
<polygon fill="#191970" stroke="#191970" points="97.5001,-29.6426 94,-19.6427 90.5001,-29.6427 97.5001,-29.6426"/>
</g>
<!-- Node4 -->
<g id="node5" class="node">
<title>Node4</title>
<g id="a_node5"><a xlink:href="assert_8h.html" target="_top" xlink:title="zrtos/assert.h">
<polygon fill="#ffffff" stroke="#000000" points="140.5,-.5 140.5,-19.5 217.5,-19.5 217.5,-.5 140.5,-.5"/>
<text text-anchor="middle" x="179" y="-7.5" font-family="Helvetica,sans-Serif" font-size="10.00" fill="#000000">zrtos/assert.h</text>
</a>
</g>
</g>
<!-- Node1&#45;&gt;Node4 -->
<g id="edge4" class="edge">
<title>Node1&#45;&gt;Node4</title>
<path fill="none" stroke="#191970" d="M108.8059,-56.2455C121.7256,-47.7337 140.6931,-35.2375 155.6552,-25.3801"/>
<polygon fill="#191970" stroke="#191970" points="157.9387,-28.067 164.3638,-19.6427 154.0876,-22.2216 157.9387,-28.067"/>
</g>
</g>
</svg>
