<?xml version="1.0" encoding="UTF-8" standalone="no"?>
<!DOCTYPE svg PUBLIC "-//W3C//DTD SVG 1.1//EN"
 "http://www.w3.org/Graphics/SVG/1.1/DTD/svg11.dtd">
<!-- Generated by graphviz version 10.0.1 (20240210.2158)
 -->
<!-- Title: error.h Pages: 1 -->
<svg width="1757pt" height="308pt"
 viewBox="0.00 0.00 1756.88 308.00" xmlns="http://www.w3.org/2000/svg" xmlns:xlink="http://www.w3.org/1999/xlink">
<g id="graph0" class="graph" transform="scale(1 1) rotate(0) translate(4 304)">
<title>error.h</title>
<!-- Node1 -->
<g id="Node000001" class="node">
<title>Node1</title>
<g id="a_Node000001"><a xlink:title=" ">
<polygon fill="#999999" stroke="#666666" points="1257.88,-300 1214.12,-300 1214.12,-280 1257.88,-280 1257.88,-300"/>
<text text-anchor="middle" x="1236" y="-286.5" font-family="Helvetica,sans-Serif" font-size="10.00">error.h</text>
</a>
</g>
</g>
<!-- Node2 -->
<g id="Node000002" class="node">
<title>Node2</title>
<g id="a_Node000002"><a xlink:href="cbuffer_8h.html" target="_top" xlink:title=" ">
<polygon fill="white" stroke="#666666" points="262.38,-244 209.62,-244 209.62,-224 262.38,-224 262.38,-244"/>
<text text-anchor="middle" x="236" y="-230.5" font-family="Helvetica,sans-Serif" font-size="10.00">cbuffer.h</text>
</a>
</g>
</g>
<!-- Node1&#45;&gt;Node2 -->
<g id="edge1_Node000001_Node000002" class="edge">
<title>Node1&#45;&gt;Node2</title>
<g id="a_edge1_Node000001_Node000002"><a xlink:title=" ">
<path fill="none" stroke="#63b8ff" d="M1202.24,-287.3C1087.72,-281.51 703.45,-261.93 386,-244 342.89,-241.57 292.83,-238.52 262.82,-236.67"/>
<polygon fill="#63b8ff" stroke="#63b8ff" points="1201.99,-290.79 1212.16,-287.8 1202.35,-283.8 1201.99,-290.79"/>
</a>
</g>
</g>
<!-- Node10 -->
<g id="Node000010" class="node">
<title>Node10</title>
<g id="a_Node000010"><a xlink:href="errno_8h.html" target="_top" xlink:title=" ">
<polygon fill="white" stroke="#666666" points="1448,-244 1402,-244 1402,-224 1448,-224 1448,-244"/>
<text text-anchor="middle" x="1425" y="-230.5" font-family="Helvetica,sans-Serif" font-size="10.00">errno.h</text>
</a>
</g>
</g>
<!-- Node1&#45;&gt;Node10 -->
<g id="edge11_Node000001_Node000010" class="edge">
<title>Node1&#45;&gt;Node10</title>
<g id="a_edge11_Node000001_Node000010"><a xlink:title=" ">
<path fill="none" stroke="#63b8ff" d="M1269.02,-279.57C1306.97,-268.72 1368.29,-251.2 1401.61,-241.68"/>
<polygon fill="#63b8ff" stroke="#63b8ff" points="1268.16,-276.17 1259.51,-282.28 1270.08,-282.9 1268.16,-276.17"/>
</a>
</g>
</g>
<!-- Node11 -->
<g id="Node000011" class="node">
<title>Node11</title>
<g id="a_Node000011"><a xlink:href="task_8h.html" target="_top" xlink:title=" ">
<polygon fill="white" stroke="#666666" points="1307.5,-188 1264.5,-188 1264.5,-168 1307.5,-168 1307.5,-188"/>
<text text-anchor="middle" x="1286" y="-174.5" font-family="Helvetica,sans-Serif" font-size="10.00">task.h</text>
</a>
</g>
</g>
<!-- Node1&#45;&gt;Node11 -->
<g id="edge26_Node000001_Node000011" class="edge">
<title>Node1&#45;&gt;Node11</title>
<g id="a_edge26_Node000001_Node000011"><a xlink:title=" ">
<path fill="none" stroke="#63b8ff" d="M1244.96,-269.3C1255.81,-245.43 1273.64,-206.2 1281.75,-188.35"/>
<polygon fill="#63b8ff" stroke="#63b8ff" points="1241.84,-267.69 1240.89,-278.24 1248.21,-270.59 1241.84,-267.69"/>
</a>
</g>
</g>
<!-- Node12 -->
<g id="Node000012" class="node">
<title>Node12</title>
<g id="a_Node000012"><a xlink:href="task__scheduler_8h.html" target="_top" xlink:title=" ">
<polygon fill="white" stroke="#666666" points="1281.12,-132 1190.88,-132 1190.88,-112 1281.12,-112 1281.12,-132"/>
<text text-anchor="middle" x="1236" y="-118.5" font-family="Helvetica,sans-Serif" font-size="10.00">task_scheduler.h</text>
</a>
</g>
</g>
<!-- Node1&#45;&gt;Node12 -->
<g id="edge31_Node000001_Node000012" class="edge">
<title>Node1&#45;&gt;Node12</title>
<g id="a_edge31_Node000001_Node000012"><a xlink:title=" ">
<path fill="none" stroke="#63b8ff" d="M1236,-268.5C1236,-232.27 1236,-158.31 1236,-132.3"/>
<polygon fill="#63b8ff" stroke="#63b8ff" points="1232.5,-268.09 1236,-278.09 1239.5,-268.09 1232.5,-268.09"/>
</a>
</g>
</g>
<!-- Node13 -->
<g id="Node000013" class="node">
<title>Node13</title>
<g id="a_Node000013"><a xlink:href="task__pthread_8h.html" target="_top" xlink:title=" ">
<polygon fill="white" stroke="#666666" points="1349.25,-76 1268.75,-76 1268.75,-56 1349.25,-56 1349.25,-76"/>
<text text-anchor="middle" x="1309" y="-62.5" font-family="Helvetica,sans-Serif" font-size="10.00">task_pthread.h</text>
</a>
</g>
</g>
<!-- Node1&#45;&gt;Node13 -->
<g id="edge30_Node000001_Node000013" class="edge">
<title>Node1&#45;&gt;Node13</title>
<g id="a_edge30_Node000001_Node000013"><a xlink:title=" ">
<path fill="none" stroke="#63b8ff" d="M1255.82,-272.14C1275.64,-253.8 1304.73,-222.48 1316,-188 1329.01,-148.2 1317.56,-97.16 1311.82,-76.41"/>
<polygon fill="#63b8ff" stroke="#63b8ff" points="1253.72,-269.32 1248.6,-278.6 1258.38,-274.54 1253.72,-269.32"/>
</a>
</g>
</g>
<!-- Node14 -->
<g id="Node000014" class="node">
<title>Node14</title>
<g id="a_Node000014"><a xlink:href="vheap__task_8h.html" target="_top" xlink:title=" ">
<polygon fill="white" stroke="#666666" points="1512.5,-188 1439.5,-188 1439.5,-168 1512.5,-168 1512.5,-188"/>
<text text-anchor="middle" x="1476" y="-174.5" font-family="Helvetica,sans-Serif" font-size="10.00">vheap_task.h</text>
</a>
</g>
</g>
<!-- Node1&#45;&gt;Node14 -->
<g id="edge54_Node000001_Node000014" class="edge">
<title>Node1&#45;&gt;Node14</title>
<g id="a_edge54_Node000001_Node000014"><a xlink:title=" ">
<path fill="none" stroke="#63b8ff" d="M1269.41,-286.38C1324.26,-281.41 1430.02,-268.82 1457,-244 1472.92,-229.36 1475.77,-202.18 1476.11,-188.06"/>
<polygon fill="#63b8ff" stroke="#63b8ff" points="1269.38,-282.87 1259.72,-287.22 1269.98,-289.84 1269.38,-282.87"/>
</a>
</g>
</g>
<!-- Node16 -->
<g id="Node000016" class="node">
<title>Node16</title>
<g id="a_Node000016"><a xlink:href="vheap__task__pthread_8h.html" target="_top" xlink:title=" ">
<polygon fill="white" stroke="#666666" points="1546.25,-76 1435.75,-76 1435.75,-56 1546.25,-56 1546.25,-76"/>
<text text-anchor="middle" x="1491" y="-62.5" font-family="Helvetica,sans-Serif" font-size="10.00">vheap_task_pthread.h</text>
</a>
</g>
</g>
<!-- Node1&#45;&gt;Node16 -->
<g id="edge55_Node000001_Node000016" class="edge">
<title>Node1&#45;&gt;Node16</title>
<g id="a_edge55_Node000001_Node000016"><a xlink:title=" ">
<path fill="none" stroke="#63b8ff" d="M1269.5,-285.75C1327.44,-279.65 1443.48,-265.16 1478,-244 1530.6,-211.76 1541.52,-190.86 1560,-132 1562.66,-123.52 1564.23,-119.82 1560,-112 1550.87,-95.15 1532.39,-83.61 1516.86,-76.44"/>
<polygon fill="#63b8ff" stroke="#63b8ff" points="1269.16,-282.27 1259.57,-286.77 1269.88,-289.23 1269.16,-282.27"/>
</a>
</g>
</g>
<!-- Node17 -->
<g id="Node000017" class="node">
<title>Node17</title>
<g id="a_Node000017"><a xlink:href="gpio_8h.html" target="_top" xlink:title=" ">
<polygon fill="white" stroke="#666666" points="437.12,-244 394.88,-244 394.88,-224 437.12,-224 437.12,-244"/>
<text text-anchor="middle" x="416" y="-230.5" font-family="Helvetica,sans-Serif" font-size="10.00">gpio.h</text>
</a>
</g>
</g>
<!-- Node1&#45;&gt;Node17 -->
<g id="edge18_Node000001_Node000017" class="edge">
<title>Node1&#45;&gt;Node17</title>
<g id="a_edge18_Node000001_Node000017"><a xlink:title=" ">
<path fill="none" stroke="#63b8ff" d="M1202.26,-286.78C1064.87,-277.73 549.58,-243.8 437.57,-236.42"/>
<polygon fill="#63b8ff" stroke="#63b8ff" points="1201.92,-290.26 1212.13,-287.43 1202.38,-283.28 1201.92,-290.26"/>
</a>
</g>
</g>
<!-- Node19 -->
<g id="Node000019" class="node">
<title>Node19</title>
<g id="a_Node000019"><a xlink:href="vfs_2module_2arduino_2gpio_8h.html" target="_top" xlink:title=" ">
<polygon fill="white" stroke="#666666" points="992.12,-132 949.88,-132 949.88,-112 992.12,-112 992.12,-132"/>
<text text-anchor="middle" x="971" y="-118.5" font-family="Helvetica,sans-Serif" font-size="10.00">gpio.h</text>
</a>
</g>
</g>
<!-- Node1&#45;&gt;Node19 -->
<g id="edge23_Node000001_Node000019" class="edge">
<title>Node1&#45;&gt;Node19</title>
<g id="a_edge23_Node000001_Node000019"><a xlink:title=" ">
<path fill="none" stroke="#63b8ff" d="M1214.02,-272.79C1204.11,-264.82 1192.71,-254.64 1184,-244 1159.41,-213.97 1171.72,-191.71 1141,-168 1139.5,-166.84 1037.61,-140.29 992.31,-128.53"/>
<polygon fill="#63b8ff" stroke="#63b8ff" points="1211.68,-275.41 1221.72,-278.78 1215.97,-269.88 1211.68,-275.41"/>
</a>
</g>
</g>
<!-- Node20 -->
<g id="Node000020" class="node">
<title>Node20</title>
<g id="a_Node000020"><a xlink:href="vfs_2module_2avr_2progmem_8h.html" target="_top" xlink:title=" ">
<polygon fill="white" stroke="#666666" points="574.38,-188 509.62,-188 509.62,-168 574.38,-168 574.38,-188"/>
<text text-anchor="middle" x="542" y="-174.5" font-family="Helvetica,sans-Serif" font-size="10.00">progmem.h</text>
</a>
</g>
</g>
<!-- Node1&#45;&gt;Node20 -->
<g id="edge24_Node000001_Node000020" class="edge">
<title>Node1&#45;&gt;Node20</title>
<g id="a_edge24_Node000001_Node000020"><a xlink:title=" ">
<path fill="none" stroke="#63b8ff" d="M1202.58,-288.22C1095.76,-285.44 763.58,-274.5 661,-244 619.26,-231.59 575.7,-203.17 554.75,-188.36"/>
<polygon fill="#63b8ff" stroke="#63b8ff" points="1202.31,-291.71 1212.39,-288.47 1202.48,-284.72 1202.31,-291.71"/>
</a>
</g>
</g>
<!-- Node21 -->
<g id="Node000021" class="node">
<title>Node21</title>
<g id="a_Node000021"><a xlink:href="sram_8h.html" target="_top" xlink:title=" ">
<polygon fill="white" stroke="#666666" points="638,-188 592,-188 592,-168 638,-168 638,-188"/>
<text text-anchor="middle" x="615" y="-174.5" font-family="Helvetica,sans-Serif" font-size="10.00">sram.h</text>
</a>
</g>
</g>
<!-- Node1&#45;&gt;Node21 -->
<g id="edge25_Node000001_Node000021" class="edge">
<title>Node1&#45;&gt;Node21</title>
<g id="a_edge25_Node000001_Node000021"><a xlink:title=" ">
<path fill="none" stroke="#63b8ff" d="M1202.31,-288.63C1099.7,-287.12 792.4,-279.66 700,-244 667.76,-231.56 637.5,-202.88 623.36,-188.13"/>
<polygon fill="#63b8ff" stroke="#63b8ff" points="1202.22,-292.13 1212.27,-288.77 1202.32,-285.13 1202.22,-292.13"/>
</a>
</g>
</g>
<!-- Node22 -->
<g id="Node000022" class="node">
<title>Node22</title>
<g id="a_Node000022"><a xlink:href="task__mutex_8h.html" target="_top" xlink:title=" ">
<polygon fill="white" stroke="#666666" points="1412.62,-132 1337.38,-132 1337.38,-112 1412.62,-112 1412.62,-132"/>
<text text-anchor="middle" x="1375" y="-118.5" font-family="Helvetica,sans-Serif" font-size="10.00">task_mutex.h</text>
</a>
</g>
</g>
<!-- Node1&#45;&gt;Node22 -->
<g id="edge27_Node000001_Node000022" class="edge">
<title>Node1&#45;&gt;Node22</title>
<g id="a_edge27_Node000001_Node000022"><a xlink:title=" ">
<path fill="none" stroke="#63b8ff" d="M1269.23,-284.54C1295.07,-279.29 1329.81,-268.01 1350,-244 1377.89,-210.84 1377.33,-154.67 1375.86,-132.45"/>
<polygon fill="#63b8ff" stroke="#63b8ff" points="1268.78,-281.06 1259.56,-286.28 1270.02,-287.95 1268.78,-281.06"/>
</a>
</g>
</g>
<!-- Node23 -->
<g id="Node000023" class="node">
<title>Node23</title>
<g id="a_Node000023"><a xlink:href="uart0_8h.html" target="_top" xlink:title=" ">
<polygon fill="white" stroke="#666666" points="1132,-188 1086,-188 1086,-168 1132,-168 1132,-188"/>
<text text-anchor="middle" x="1109" y="-174.5" font-family="Helvetica,sans-Serif" font-size="10.00">uart0.h</text>
</a>
</g>
</g>
<!-- Node1&#45;&gt;Node23 -->
<g id="edge32_Node000001_Node000023" class="edge">
<title>Node1&#45;&gt;Node23</title>
<g id="a_edge32_Node000001_Node000023"><a xlink:title=" ">
<path fill="none" stroke="#63b8ff" d="M1203.23,-278.06C1184.78,-270.65 1162.25,-259.4 1146,-244 1128.85,-227.75 1117.38,-201.75 1112.19,-188.08"/>
<polygon fill="#63b8ff" stroke="#63b8ff" points="1201.82,-281.26 1212.41,-281.54 1204.3,-274.72 1201.82,-281.26"/>
</a>
</g>
</g>
<!-- Node24 -->
<g id="Node000024" class="node">
<title>Node24</title>
<g id="a_Node000024"><a xlink:href="vfs__file_8h.html" target="_top" xlink:title=" ">
<polygon fill="white" stroke="#666666" points="977.38,-76 924.62,-76 924.62,-56 977.38,-56 977.38,-76"/>
<text text-anchor="middle" x="951" y="-62.5" font-family="Helvetica,sans-Serif" font-size="10.00">vfs_file.h</text>
</a>
</g>
</g>
<!-- Node1&#45;&gt;Node24 -->
<g id="edge33_Node000001_Node000024" class="edge">
<title>Node1&#45;&gt;Node24</title>
<g id="a_edge33_Node000001_Node000024"><a xlink:title=" ">
<path fill="none" stroke="#63b8ff" d="M1228.47,-269.05C1217.71,-242.86 1195.67,-196.82 1164,-168 1107.86,-116.9 1021.24,-86.82 977.79,-74.13"/>
<polygon fill="#63b8ff" stroke="#63b8ff" points="1225.13,-270.13 1232.06,-278.15 1231.65,-267.56 1225.13,-270.13"/>
</a>
</g>
</g>
<!-- Node27 -->
<g id="Node000027" class="node">
<title>Node27</title>
<g id="a_Node000027"><a xlink:href="vfs__plugin_8h.html" target="_top" xlink:title=" ">
<polygon fill="white" stroke="#666666" points="775.12,-244 708.88,-244 708.88,-224 775.12,-224 775.12,-244"/>
<text text-anchor="middle" x="742" y="-230.5" font-family="Helvetica,sans-Serif" font-size="10.00">vfs_plugin.h</text>
</a>
</g>
</g>
<!-- Node1&#45;&gt;Node27 -->
<g id="edge36_Node000001_Node000027" class="edge">
<title>Node1&#45;&gt;Node27</title>
<g id="a_edge36_Node000001_Node000027"><a xlink:title=" ">
<path fill="none" stroke="#63b8ff" d="M1202.4,-285.33C1112.25,-275.47 865.75,-248.53 775.6,-238.67"/>
<polygon fill="#63b8ff" stroke="#63b8ff" points="1201.99,-288.8 1212.31,-286.41 1202.75,-281.84 1201.99,-288.8"/>
</a>
</g>
</g>
<!-- Node33 -->
<g id="Node000033" class="node">
<title>Node33</title>
<g id="a_Node000033"><a xlink:href="vm_8h.html" target="_top" xlink:title=" ">
<polygon fill="white" stroke="#666666" points="1679.12,-132 1642.88,-132 1642.88,-112 1679.12,-112 1679.12,-132"/>
<text text-anchor="middle" x="1661" y="-118.5" font-family="Helvetica,sans-Serif" font-size="10.00">vm.h</text>
</a>
</g>
</g>
<!-- Node1&#45;&gt;Node33 -->
<g id="edge56_Node000001_Node000033" class="edge">
<title>Node1&#45;&gt;Node33</title>
<g id="a_edge56_Node000001_Node000033"><a xlink:title=" ">
<path fill="none" stroke="#63b8ff" d="M1269.27,-288.55C1347.5,-286.92 1540.49,-279.32 1593,-244 1594.32,-243.11 1640.09,-160.71 1655.78,-132.42"/>
<polygon fill="#63b8ff" stroke="#63b8ff" points="1269.61,-285.05 1259.67,-288.73 1269.74,-292.04 1269.61,-285.05"/>
</a>
</g>
</g>
<!-- Node34 -->
<g id="Node000034" class="node">
<title>Node34</title>
<g id="a_Node000034"><a xlink:href="vm__function_8h.html" target="_top" xlink:title=" ">
<polygon fill="white" stroke="#666666" points="1727.62,-244 1652.38,-244 1652.38,-224 1727.62,-224 1727.62,-244"/>
<text text-anchor="middle" x="1690" y="-230.5" font-family="Helvetica,sans-Serif" font-size="10.00">vm_function.h</text>
</a>
</g>
</g>
<!-- Node1&#45;&gt;Node34 -->
<g id="edge57_Node000001_Node000034" class="edge">
<title>Node1&#45;&gt;Node34</title>
<g id="a_edge57_Node000001_Node000034"><a xlink:title=" ">
<path fill="none" stroke="#63b8ff" d="M1269.58,-285.61C1337.79,-278.62 1497.4,-261.79 1631,-244 1637.78,-243.1 1644.98,-242.06 1651.94,-241.02"/>
<polygon fill="#63b8ff" stroke="#63b8ff" points="1269.41,-282.11 1259.81,-286.6 1270.12,-289.07 1269.41,-282.11"/>
</a>
</g>
</g>
<!-- Node3 -->
<g id="Node000003" class="node">
<title>Node3</title>
<g id="a_Node000003"><a xlink:href="msg__queue_8h.html" target="_top" xlink:title=" ">
<polygon fill="white" stroke="#666666" points="240.25,-188 165.75,-188 165.75,-168 240.25,-168 240.25,-188"/>
<text text-anchor="middle" x="203" y="-174.5" font-family="Helvetica,sans-Serif" font-size="10.00">msg_queue.h</text>
</a>
</g>
</g>
<!-- Node2&#45;&gt;Node3 -->
<g id="edge2_Node000002_Node000003" class="edge">
<title>Node2&#45;&gt;Node3</title>
<g id="a_edge2_Node000002_Node000003"><a xlink:title=" ">
<path fill="none" stroke="#63b8ff" d="M224.31,-213.87C219,-205.19 212.97,-195.32 208.68,-188.3"/>
<polygon fill="#63b8ff" stroke="#63b8ff" points="221.26,-215.59 229.46,-222.3 227.23,-211.94 221.26,-215.59"/>
</a>
</g>
</g>
<!-- Node4 -->
<g id="Node000004" class="node">
<title>Node4</title>
<g id="a_Node000004"><a xlink:href="rtu_8h.html" target="_top" xlink:title=" ">
<polygon fill="white" stroke="#666666" points="220.75,-132 185.25,-132 185.25,-112 220.75,-112 220.75,-132"/>
<text text-anchor="middle" x="203" y="-118.5" font-family="Helvetica,sans-Serif" font-size="10.00">rtu.h</text>
</a>
</g>
</g>
<!-- Node2&#45;&gt;Node4 -->
<g id="edge4_Node000002_Node000004" class="edge">
<title>Node2&#45;&gt;Node4</title>
<g id="a_edge4_Node000002_Node000004"><a xlink:title=" ">
<path fill="none" stroke="#63b8ff" d="M198.62,-221.29C182.86,-214.29 166.09,-203.63 157,-188 144.91,-167.2 170.51,-144.65 188.14,-132.33"/>
<polygon fill="#63b8ff" stroke="#63b8ff" points="197.28,-224.52 207.86,-225 199.89,-218.02 197.28,-224.52"/>
</a>
</g>
</g>
<!-- Node5 -->
<g id="Node000005" class="node">
<title>Node5</title>
<g id="a_Node000005"><a xlink:href="avr_2spi_2spi_8h.html" target="_top" xlink:title=" ">
<polygon fill="white" stroke="#666666" points="357.5,-132 320.5,-132 320.5,-112 357.5,-112 357.5,-132"/>
<text text-anchor="middle" x="339" y="-118.5" font-family="Helvetica,sans-Serif" font-size="10.00">spi.h</text>
</a>
</g>
</g>
<!-- Node2&#45;&gt;Node5 -->
<g id="edge5_Node000002_Node000005" class="edge">
<title>Node2&#45;&gt;Node5</title>
<g id="a_edge5_Node000002_Node000005"><a xlink:title=" ">
<path fill="none" stroke="#63b8ff" d="M249.01,-214.54C258.82,-201.09 272.96,-182.73 287,-168 299.68,-154.69 315.93,-141.11 326.85,-132.4"/>
<polygon fill="#63b8ff" stroke="#63b8ff" points="246.28,-212.33 243.3,-222.49 251.97,-216.41 246.28,-212.33"/>
</a>
</g>
</g>
<!-- Node6 -->
<g id="Node000006" class="node">
<title>Node6</title>
<g id="a_Node000006"><a xlink:href="spi_2spi_8h.html" target="_top" xlink:title=" ">
<polygon fill="white" stroke="#666666" points="333.5,-188 296.5,-188 296.5,-168 333.5,-168 333.5,-188"/>
<text text-anchor="middle" x="315" y="-174.5" font-family="Helvetica,sans-Serif" font-size="10.00">spi.h</text>
</a>
</g>
</g>
<!-- Node2&#45;&gt;Node6 -->
<g id="edge6_Node000002_Node000006" class="edge">
<title>Node2&#45;&gt;Node6</title>
<g id="a_edge6_Node000002_Node000006"><a xlink:title=" ">
<path fill="none" stroke="#63b8ff" d="M259.01,-217.27C272.66,-207.94 289.5,-196.43 301.13,-188.48"/>
<polygon fill="#63b8ff" stroke="#63b8ff" points="257.29,-214.21 251.01,-222.74 261.24,-219.99 257.29,-214.21"/>
</a>
</g>
</g>
<!-- Node7 -->
<g id="Node000007" class="node">
<title>Node7</title>
<g id="a_Node000007"><a xlink:href="uart_2uart_8h.html" target="_top" xlink:title=" ">
<polygon fill="white" stroke="#666666" points="430.38,-188 389.62,-188 389.62,-168 430.38,-168 430.38,-188"/>
<text text-anchor="middle" x="410" y="-174.5" font-family="Helvetica,sans-Serif" font-size="10.00">uart.h</text>
</a>
</g>
</g>
<!-- Node2&#45;&gt;Node7 -->
<g id="edge8_Node000002_Node000007" class="edge">
<title>Node2&#45;&gt;Node7</title>
<g id="a_edge8_Node000002_Node000007"><a xlink:title=" ">
<path fill="none" stroke="#63b8ff" d="M273.67,-221.31C309.05,-210.33 360.68,-194.31 389.17,-185.46"/>
<polygon fill="#63b8ff" stroke="#63b8ff" points="272.76,-217.93 264.25,-224.23 274.84,-224.61 272.76,-217.93"/>
</a>
</g>
</g>
<!-- Node8 -->
<g id="Node000008" class="node">
<title>Node8</title>
<g id="a_Node000008"><a xlink:href="uart2_8h.html" target="_top" xlink:title=" ">
<polygon fill="white" stroke="#666666" points="110,-188 64,-188 64,-168 110,-168 110,-188"/>
<text text-anchor="middle" x="87" y="-174.5" font-family="Helvetica,sans-Serif" font-size="10.00">uart2.h</text>
</a>
</g>
</g>
<!-- Node2&#45;&gt;Node8 -->
<g id="edge9_Node000002_Node000008" class="edge">
<title>Node2&#45;&gt;Node8</title>
<g id="a_edge9_Node000002_Node000008"><a xlink:title=" ">
<path fill="none" stroke="#63b8ff" d="M199.52,-219.78C171.65,-209.68 134.1,-196.07 110.21,-187.41"/>
<polygon fill="#63b8ff" stroke="#63b8ff" points="198.03,-222.96 208.62,-223.08 200.41,-216.38 198.03,-222.96"/>
</a>
</g>
</g>
<!-- Node9 -->
<g id="Node000009" class="node">
<title>Node9</title>
<g id="a_Node000009"><a xlink:href="uart3_8h.html" target="_top" xlink:title=" ">
<polygon fill="white" stroke="#666666" points="46,-188 0,-188 0,-168 46,-168 46,-188"/>
<text text-anchor="middle" x="23" y="-174.5" font-family="Helvetica,sans-Serif" font-size="10.00">uart3.h</text>
</a>
</g>
</g>
<!-- Node2&#45;&gt;Node9 -->
<g id="edge10_Node000002_Node000009" class="edge">
<title>Node2&#45;&gt;Node9</title>
<g id="a_edge10_Node000002_Node000009"><a xlink:title=" ">
<path fill="none" stroke="#63b8ff" d="M198.1,-223.93C161.42,-215.07 104.29,-201.05 55,-188 52.21,-187.26 49.29,-186.47 46.4,-185.67"/>
<polygon fill="#63b8ff" stroke="#63b8ff" points="197.24,-227.33 207.78,-226.27 198.88,-220.52 197.24,-227.33"/>
</a>
</g>
</g>
<!-- Node3&#45;&gt;Node4 -->
<g id="edge3_Node000003_Node000004" class="edge">
<title>Node3&#45;&gt;Node4</title>
<g id="a_edge3_Node000003_Node000004"><a xlink:title=" ">
<path fill="none" stroke="#63b8ff" d="M203,-156.13C203,-147.9 203,-138.85 203,-132.3"/>
<polygon fill="#63b8ff" stroke="#63b8ff" points="199.5,-156.08 203,-166.08 206.5,-156.08 199.5,-156.08"/>
</a>
</g>
</g>
<!-- Node6&#45;&gt;Node5 -->
<g id="edge7_Node000006_Node000005" class="edge">
<title>Node6&#45;&gt;Node5</title>
<g id="a_edge7_Node000006_Node000005"><a xlink:title=" ">
<path fill="none" stroke="#63b8ff" d="M323.76,-157.29C327.55,-148.75 331.82,-139.16 334.87,-132.3"/>
<polygon fill="#63b8ff" stroke="#63b8ff" points="320.66,-155.65 319.8,-166.21 327.05,-158.49 320.66,-155.65"/>
</a>
</g>
</g>
<!-- Node10&#45;&gt;Node11 -->
<g id="edge12_Node000010_Node000011" class="edge">
<title>Node10&#45;&gt;Node11</title>
<g id="a_edge12_Node000010_Node000011"><a xlink:title=" ">
<path fill="none" stroke="#63b8ff" d="M1391.25,-219.89C1365.35,-209.83 1330.34,-196.23 1307.96,-187.53"/>
<polygon fill="#63b8ff" stroke="#63b8ff" points="1389.73,-223.05 1400.32,-223.41 1392.27,-216.53 1389.73,-223.05"/>
</a>
</g>
</g>
<!-- Node10&#45;&gt;Node14 -->
<g id="edge15_Node000010_Node000014" class="edge">
<title>Node10&#45;&gt;Node14</title>
<g id="a_edge15_Node000010_Node000014"><a xlink:title=" ">
<path fill="none" stroke="#63b8ff" d="M1441.73,-215.29C1450.24,-206.28 1460.23,-195.7 1467.22,-188.3"/>
<polygon fill="#63b8ff" stroke="#63b8ff" points="1439.24,-212.82 1434.92,-222.49 1444.33,-217.63 1439.24,-212.82"/>
</a>
</g>
</g>
<!-- Node11&#45;&gt;Node12 -->
<g id="edge13_Node000011_Node000012" class="edge">
<title>Node11&#45;&gt;Node12</title>
<g id="a_edge13_Node000011_Node000012"><a xlink:title=" ">
<path fill="none" stroke="#63b8ff" d="M1269.6,-159.29C1261.26,-150.28 1251.46,-139.7 1244.61,-132.3"/>
<polygon fill="#63b8ff" stroke="#63b8ff" points="1266.9,-161.52 1276.26,-166.48 1272.04,-156.77 1266.9,-161.52"/>
</a>
</g>
</g>
<!-- Node12&#45;&gt;Node13 -->
<g id="edge14_Node000012_Node000013" class="edge">
<title>Node12&#45;&gt;Node13</title>
<g id="a_edge14_Node000012_Node000013"><a xlink:title=" ">
<path fill="none" stroke="#63b8ff" d="M1257.69,-104.95C1270.32,-95.61 1285.8,-84.16 1296.43,-76.3"/>
<polygon fill="#63b8ff" stroke="#63b8ff" points="1255.89,-101.93 1249.93,-110.69 1260.05,-107.56 1255.89,-101.93"/>
</a>
</g>
</g>
<!-- Node15 -->
<g id="Node000015" class="node">
<title>Node15</title>
<g id="a_Node000015"><a xlink:href="vheap__task__scheduler_8h.html" target="_top" xlink:title=" ">
<polygon fill="white" stroke="#666666" points="1551.12,-132 1430.88,-132 1430.88,-112 1551.12,-112 1551.12,-132"/>
<text text-anchor="middle" x="1491" y="-118.5" font-family="Helvetica,sans-Serif" font-size="10.00">vheap_task_scheduler.h</text>
</a>
</g>
</g>
<!-- Node14&#45;&gt;Node15 -->
<g id="edge16_Node000014_Node000015" class="edge">
<title>Node14&#45;&gt;Node15</title>
<g id="a_edge16_Node000014_Node000015"><a xlink:title=" ">
<path fill="none" stroke="#63b8ff" d="M1481.63,-156.71C1483.97,-148.32 1486.55,-139.01 1488.42,-132.3"/>
<polygon fill="#63b8ff" stroke="#63b8ff" points="1478.32,-155.56 1479.02,-166.14 1485.07,-157.44 1478.32,-155.56"/>
</a>
</g>
</g>
<!-- Node15&#45;&gt;Node16 -->
<g id="edge17_Node000015_Node000016" class="edge">
<title>Node15&#45;&gt;Node16</title>
<g id="a_edge17_Node000015_Node000016"><a xlink:title=" ">
<path fill="none" stroke="#63b8ff" d="M1491,-100.13C1491,-91.9 1491,-82.85 1491,-76.3"/>
<polygon fill="#63b8ff" stroke="#63b8ff" points="1487.5,-100.08 1491,-110.08 1494.5,-100.08 1487.5,-100.08"/>
</a>
</g>
</g>
<!-- Node17&#45;&gt;Node5 -->
<g id="edge21_Node000017_Node000005" class="edge">
<title>Node17&#45;&gt;Node5</title>
<g id="a_edge21_Node000017_Node000005"><a xlink:title=" ">
<path fill="none" stroke="#63b8ff" d="M401.14,-214.65C394.77,-206.59 387.35,-196.95 381,-188 367.31,-168.72 352.59,-145.23 344.73,-132.43"/>
<polygon fill="#63b8ff" stroke="#63b8ff" points="398.32,-216.72 407.3,-222.35 403.79,-212.35 398.32,-216.72"/>
</a>
</g>
</g>
<!-- Node17&#45;&gt;Node6 -->
<g id="edge22_Node000017_Node000006" class="edge">
<title>Node17&#45;&gt;Node6</title>
<g id="a_edge22_Node000017_Node000006"><a xlink:title=" ">
<path fill="none" stroke="#63b8ff" d="M388.59,-218.35C370.82,-208.84 348.17,-196.74 332.73,-188.48"/>
<polygon fill="#63b8ff" stroke="#63b8ff" points="386.6,-221.25 397.07,-222.88 389.9,-215.08 386.6,-221.25"/>
</a>
</g>
</g>
<!-- Node18 -->
<g id="Node000018" class="node">
<title>Node18</title>
<g id="a_Node000018"><a xlink:href="vfs_2module_2gpio_2gpio_8h.html" target="_top" xlink:title=" ">
<polygon fill="white" stroke="#666666" points="491.12,-188 448.88,-188 448.88,-168 491.12,-168 491.12,-188"/>
<text text-anchor="middle" x="470" y="-174.5" font-family="Helvetica,sans-Serif" font-size="10.00">gpio.h</text>
</a>
</g>
</g>
<!-- Node17&#45;&gt;Node18 -->
<g id="edge19_Node000017_Node000018" class="edge">
<title>Node17&#45;&gt;Node18</title>
<g id="a_edge19_Node000017_Node000018"><a xlink:title=" ">
<path fill="none" stroke="#63b8ff" d="M433.43,-215.57C442.5,-206.5 453.22,-195.78 460.7,-188.3"/>
<polygon fill="#63b8ff" stroke="#63b8ff" points="431.07,-212.98 426.48,-222.52 436.02,-217.93 431.07,-212.98"/>
</a>
</g>
</g>
<!-- Node18&#45;&gt;Node19 -->
<g id="edge20_Node000018_Node000019" class="edge">
<title>Node18&#45;&gt;Node19</title>
<g id="a_edge20_Node000018_Node000019"><a xlink:title=" ">
<path fill="none" stroke="#63b8ff" d="M502.66,-168.12C696.03,-133.78 751.77,-167.71 941,-132 943.78,-131.48 946.67,-130.79 949.5,-130.04"/>
<polygon fill="#63b8ff" stroke="#63b8ff" points="502.25,-164.64 493.04,-169.87 503.5,-171.53 502.25,-164.64"/>
</a>
</g>
</g>
<!-- Node22&#45;&gt;Node13 -->
<g id="edge28_Node000022_Node000013" class="edge">
<title>Node22&#45;&gt;Node13</title>
<g id="a_edge28_Node000022_Node000013"><a xlink:title=" ">
<path fill="none" stroke="#63b8ff" d="M1354.71,-104.4C1343.42,-95.17 1329.79,-84.01 1320.36,-76.3"/>
<polygon fill="#63b8ff" stroke="#63b8ff" points="1352.38,-107.01 1362.33,-110.64 1356.81,-101.59 1352.38,-107.01"/>
</a>
</g>
</g>
<!-- Node22&#45;&gt;Node16 -->
<g id="edge29_Node000022_Node000016" class="edge">
<title>Node22&#45;&gt;Node16</title>
<g id="a_edge29_Node000022_Node000016"><a xlink:title=" ">
<path fill="none" stroke="#63b8ff" d="M1405.62,-106.75C1426.16,-97.18 1452.65,-84.85 1470.64,-76.48"/>
<polygon fill="#63b8ff" stroke="#63b8ff" points="1404.17,-103.56 1396.58,-110.96 1407.12,-109.91 1404.17,-103.56"/>
</a>
</g>
</g>
<!-- Node25 -->
<g id="Node000025" class="node">
<title>Node25</title>
<g id="a_Node000025"><a xlink:href="random_8h.html" target="_top" xlink:title=" ">
<polygon fill="white" stroke="#666666" points="894.25,-20 837.75,-20 837.75,0 894.25,0 894.25,-20"/>
<text text-anchor="middle" x="866" y="-6.5" font-family="Helvetica,sans-Serif" font-size="10.00">random.h</text>
</a>
</g>
</g>
<!-- Node24&#45;&gt;Node25 -->
<g id="edge34_Node000024_Node000025" class="edge">
<title>Node24&#45;&gt;Node25</title>
<g id="a_edge34_Node000024_Node000025"><a xlink:title=" ">
<path fill="none" stroke="#63b8ff" d="M926.67,-49.54C911.91,-40.17 893.56,-28.51 880.92,-20.48"/>
<polygon fill="#63b8ff" stroke="#63b8ff" points="924.6,-52.37 934.92,-54.78 928.35,-46.47 924.6,-52.37"/>
</a>
</g>
</g>
<!-- Node26 -->
<g id="Node000026" class="node">
<title>Node26</title>
<g id="a_Node000026"><a xlink:href="zero_8h.html" target="_top" xlink:title=" ">
<polygon fill="white" stroke="#666666" points="1025.5,-20 982.5,-20 982.5,0 1025.5,0 1025.5,-20"/>
<text text-anchor="middle" x="1004" y="-6.5" font-family="Helvetica,sans-Serif" font-size="10.00">zero.h</text>
</a>
</g>
</g>
<!-- Node24&#45;&gt;Node26 -->
<g id="edge35_Node000024_Node000026" class="edge">
<title>Node24&#45;&gt;Node26</title>
<g id="a_edge35_Node000024_Node000026"><a xlink:title=" ">
<path fill="none" stroke="#63b8ff" d="M968.11,-47.57C977.01,-38.5 987.53,-27.78 994.87,-20.3"/>
<polygon fill="#63b8ff" stroke="#63b8ff" points="965.8,-44.93 961.29,-54.51 970.79,-49.83 965.8,-44.93"/>
</a>
</g>
</g>
<!-- Node27&#45;&gt;Node4 -->
<g id="edge45_Node000027_Node000004" class="edge">
<title>Node27&#45;&gt;Node4</title>
<g id="a_edge45_Node000027_Node000004"><a xlink:title=" ">
<path fill="none" stroke="#63b8ff" d="M719.91,-217.03C694.43,-198.75 654.99,-170.92 647,-168 626.63,-160.55 301.97,-131.68 221.12,-124.58"/>
<polygon fill="#63b8ff" stroke="#63b8ff" points="717.83,-219.84 727.99,-222.85 721.92,-214.16 717.83,-219.84"/>
</a>
</g>
</g>
<!-- Node27&#45;&gt;Node5 -->
<g id="edge46_Node000027_Node000005" class="edge">
<title>Node27&#45;&gt;Node5</title>
<g id="a_edge46_Node000027_Node000005"><a xlink:title=" ">
<path fill="none" stroke="#63b8ff" d="M729.85,-214.53C718.78,-199.35 700.99,-178.66 680,-168 622.64,-138.85 420.21,-126.89 357.6,-123.83"/>
<polygon fill="#63b8ff" stroke="#63b8ff" points="726.67,-216.09 735.25,-222.31 732.42,-212.1 726.67,-216.09"/>
</a>
</g>
</g>
<!-- Node27&#45;&gt;Node6 -->
<g id="edge47_Node000027_Node000006" class="edge">
<title>Node27&#45;&gt;Node6</title>
<g id="a_edge47_Node000027_Node000006"><a xlink:title=" ">
<path fill="none" stroke="#63b8ff" d="M697.49,-227.62C629.32,-219.34 494.97,-202.87 381,-188 365.06,-185.92 346.97,-183.45 333.77,-181.62"/>
<polygon fill="#63b8ff" stroke="#63b8ff" points="696.79,-231.06 707.14,-228.79 697.63,-224.11 696.79,-231.06"/>
</a>
</g>
</g>
<!-- Node27&#45;&gt;Node7 -->
<g id="edge49_Node000027_Node000007" class="edge">
<title>Node27&#45;&gt;Node7</title>
<g id="a_edge49_Node000027_Node000007"><a xlink:title=" ">
<path fill="none" stroke="#63b8ff" d="M697.46,-228.39C638.22,-221.8 530.46,-208.2 440,-188 436.92,-187.31 433.7,-186.47 430.55,-185.59"/>
<polygon fill="#63b8ff" stroke="#63b8ff" points="696.82,-231.84 707.14,-229.45 697.58,-224.88 696.82,-231.84"/>
</a>
</g>
</g>
<!-- Node27&#45;&gt;Node18 -->
<g id="edge39_Node000027_Node000018" class="edge">
<title>Node27&#45;&gt;Node18</title>
<g id="a_edge39_Node000027_Node000018"><a xlink:title=" ">
<path fill="none" stroke="#63b8ff" d="M697.29,-226C648.7,-218.08 568.9,-204.15 501,-188 497.95,-187.27 494.75,-186.43 491.61,-185.57"/>
<polygon fill="#63b8ff" stroke="#63b8ff" points="696.72,-229.45 707.15,-227.59 697.84,-222.54 696.72,-229.45"/>
</a>
</g>
</g>
<!-- Node27&#45;&gt;Node20 -->
<g id="edge43_Node000027_Node000020" class="edge">
<title>Node27&#45;&gt;Node20</title>
<g id="a_edge43_Node000027_Node000020"><a xlink:title=" ">
<path fill="none" stroke="#63b8ff" d="M697.49,-220.98C660.26,-210.93 608.02,-196.83 574.59,-187.8"/>
<polygon fill="#63b8ff" stroke="#63b8ff" points="696.5,-224.34 707.06,-223.57 698.32,-217.58 696.5,-224.34"/>
</a>
</g>
</g>
<!-- Node27&#45;&gt;Node21 -->
<g id="edge48_Node000027_Node000021" class="edge">
<title>Node27&#45;&gt;Node21</title>
<g id="a_edge48_Node000027_Node000021"><a xlink:title=" ">
<path fill="none" stroke="#63b8ff" d="M709.4,-219.14C686.79,-209.52 657.26,-196.97 637.29,-188.48"/>
<polygon fill="#63b8ff" stroke="#63b8ff" points="707.91,-222.31 718.49,-223 710.65,-215.87 707.91,-222.31"/>
</a>
</g>
</g>
<!-- Node27&#45;&gt;Node23 -->
<g id="edge50_Node000027_Node000023" class="edge">
<title>Node27&#45;&gt;Node23</title>
<g id="a_edge50_Node000027_Node000023"><a xlink:title=" ">
<path fill="none" stroke="#63b8ff" d="M786.65,-228.39C850.3,-221.48 970.65,-207.18 1072,-188 1076.42,-187.16 1081.1,-186.14 1085.59,-185.08"/>
<polygon fill="#63b8ff" stroke="#63b8ff" points="786.51,-224.88 776.95,-229.43 787.26,-231.84 786.51,-224.88"/>
</a>
</g>
</g>
<!-- Node27&#45;&gt;Node25 -->
<g id="edge44_Node000027_Node000025" class="edge">
<title>Node27&#45;&gt;Node25</title>
<g id="a_edge44_Node000027_Node000025"><a xlink:title=" ">
<path fill="none" stroke="#63b8ff" d="M746.23,-212.77C749.38,-199.64 754.29,-182.37 761,-168 789.31,-107.39 839.18,-43.68 858.27,-20.3"/>
<polygon fill="#63b8ff" stroke="#63b8ff" points="742.85,-211.86 744.08,-222.38 749.68,-213.38 742.85,-211.86"/>
</a>
</g>
</g>
<!-- Node27&#45;&gt;Node26 -->
<g id="edge53_Node000027_Node000026" class="edge">
<title>Node27&#45;&gt;Node26</title>
<g id="a_edge53_Node000027_Node000026"><a xlink:title=" ">
<path fill="none" stroke="#63b8ff" d="M786.75,-233.03C861.56,-232.03 1007.01,-225.21 1039,-188 1082.3,-137.65 1029.88,-49.31 1010.58,-20.43"/>
<polygon fill="#63b8ff" stroke="#63b8ff" points="786.86,-229.53 776.89,-233.13 786.93,-236.53 786.86,-229.53"/>
</a>
</g>
</g>
<!-- Node28 -->
<g id="Node000028" class="node">
<title>Node28</title>
<g id="a_Node000028"><a xlink:href="adc_8h.html" target="_top" xlink:title=" ">
<polygon fill="white" stroke="#666666" points="868,-188 828,-188 828,-168 868,-168 868,-188"/>
<text text-anchor="middle" x="848" y="-174.5" font-family="Helvetica,sans-Serif" font-size="10.00">adc.h</text>
</a>
</g>
</g>
<!-- Node27&#45;&gt;Node28 -->
<g id="edge37_Node000027_Node000028" class="edge">
<title>Node27&#45;&gt;Node28</title>
<g id="a_edge37_Node000027_Node000028"><a xlink:title=" ">
<path fill="none" stroke="#63b8ff" d="M770.5,-218.48C789.2,-208.96 813.11,-196.78 829.39,-188.48"/>
<polygon fill="#63b8ff" stroke="#63b8ff" points="769.13,-215.25 761.81,-222.91 772.31,-221.49 769.13,-215.25"/>
</a>
</g>
</g>
<!-- Node29 -->
<g id="Node000029" class="node">
<title>Node29</title>
<g id="a_Node000029"><a xlink:href="directory_8h.html" target="_top" xlink:title=" ">
<polygon fill="white" stroke="#666666" points="947.88,-188 886.12,-188 886.12,-168 947.88,-168 947.88,-188"/>
<text text-anchor="middle" x="917" y="-174.5" font-family="Helvetica,sans-Serif" font-size="10.00">directory.h</text>
</a>
</g>
</g>
<!-- Node27&#45;&gt;Node29 -->
<g id="edge38_Node000027_Node000029" class="edge">
<title>Node27&#45;&gt;Node29</title>
<g id="a_edge38_Node000027_Node000029"><a xlink:title=" ">
<path fill="none" stroke="#63b8ff" d="M783.14,-220.31C814.73,-210.56 857.64,-197.32 886.28,-188.48"/>
<polygon fill="#63b8ff" stroke="#63b8ff" points="782.45,-216.85 773.93,-223.15 784.52,-223.54 782.45,-216.85"/>
</a>
</g>
</g>
<!-- Node30 -->
<g id="Node000030" class="node">
<title>Node30</title>
<g id="a_Node000030"><a xlink:href="null_8h.html" target="_top" xlink:title=" ">
<polygon fill="white" stroke="#666666" points="809.62,-188 770.38,-188 770.38,-168 809.62,-168 809.62,-188"/>
<text text-anchor="middle" x="790" y="-174.5" font-family="Helvetica,sans-Serif" font-size="10.00">null.h</text>
</a>
</g>
</g>
<!-- Node27&#45;&gt;Node30 -->
<g id="edge40_Node000027_Node000030" class="edge">
<title>Node27&#45;&gt;Node30</title>
<g id="a_edge40_Node000027_Node000030"><a xlink:title=" ">
<path fill="none" stroke="#63b8ff" d="M758,-215C765.95,-206.06 775.22,-195.62 781.73,-188.3"/>
<polygon fill="#63b8ff" stroke="#63b8ff" points="755.39,-212.66 751.37,-222.46 760.63,-217.31 755.39,-212.66"/>
</a>
</g>
</g>
<!-- Node32 -->
<g id="Node000032" class="node">
<title>Node32</title>
<g id="a_Node000032"><a xlink:href="vfs__inode_8h.html" target="_top" xlink:title=" ">
<polygon fill="white" stroke="#666666" points="1030,-188 966,-188 966,-168 1030,-168 1030,-188"/>
<text text-anchor="middle" x="998" y="-174.5" font-family="Helvetica,sans-Serif" font-size="10.00">vfs_inode.h</text>
</a>
</g>
</g>
<!-- Node27&#45;&gt;Node32 -->
<g id="edge51_Node000027_Node000032" class="edge">
<title>Node27&#45;&gt;Node32</title>
<g id="a_edge51_Node000027_Node000032"><a xlink:title=" ">
<path fill="none" stroke="#63b8ff" d="M786.59,-223.8C830.09,-214.79 898.13,-200.62 957,-188 959.85,-187.39 962.81,-186.75 965.78,-186.1"/>
<polygon fill="#63b8ff" stroke="#63b8ff" points="786.1,-220.33 777.02,-225.78 787.52,-227.18 786.1,-220.33"/>
</a>
</g>
</g>
<!-- Node31 -->
<g id="Node000031" class="node">
<title>Node31</title>
<g id="a_Node000031"><a xlink:href="vfs__dentry_8h.html" target="_top" xlink:title=" ">
<polygon fill="white" stroke="#666666" points="931.88,-132 864.12,-132 864.12,-112 931.88,-112 931.88,-132"/>
<text text-anchor="middle" x="898" y="-118.5" font-family="Helvetica,sans-Serif" font-size="10.00">vfs_dentry.h</text>
</a>
</g>
</g>
<!-- Node30&#45;&gt;Node31 -->
<g id="edge41_Node000030_Node000031" class="edge">
<title>Node30&#45;&gt;Node31</title>
<g id="a_edge41_Node000030_Node000031"><a xlink:title=" ">
<path fill="none" stroke="#63b8ff" d="M819.04,-162.48C838.09,-152.96 862.45,-140.78 879.04,-132.48"/>
<polygon fill="#63b8ff" stroke="#63b8ff" points="817.54,-159.31 810.17,-166.92 820.68,-165.58 817.54,-159.31"/>
</a>
</g>
</g>
<!-- Node31&#45;&gt;Node24 -->
<g id="edge42_Node000031_Node000024" class="edge">
<title>Node31&#45;&gt;Node24</title>
<g id="a_edge42_Node000031_Node000024"><a xlink:title=" ">
<path fill="none" stroke="#63b8ff" d="M915.11,-103.57C924.01,-94.5 934.53,-83.78 941.87,-76.3"/>
<polygon fill="#63b8ff" stroke="#63b8ff" points="912.8,-100.93 908.29,-110.51 917.79,-105.83 912.8,-100.93"/>
</a>
</g>
</g>
<!-- Node32&#45;&gt;Node31 -->
<g id="edge52_Node000032_Node000031" class="edge">
<title>Node32&#45;&gt;Node31</title>
<g id="a_edge52_Node000032_Node000031"><a xlink:title=" ">
<path fill="none" stroke="#63b8ff" d="M970.87,-162.35C953.26,-152.84 930.85,-140.74 915.55,-132.48"/>
<polygon fill="#63b8ff" stroke="#63b8ff" points="968.79,-165.2 979.25,-166.87 972.11,-159.04 968.79,-165.2"/>
</a>
</g>
</g>
<!-- Node35 -->
<g id="Node000035" class="node">
<title>Node35</title>
<g id="a_Node000035"><a xlink:href="vm__function__index_8h.html" target="_top" xlink:title=" ">
<polygon fill="white" stroke="#666666" points="1748.88,-188 1645.12,-188 1645.12,-168 1748.88,-168 1748.88,-188"/>
<text text-anchor="middle" x="1697" y="-174.5" font-family="Helvetica,sans-Serif" font-size="10.00">vm_function_index.h</text>
</a>
</g>
</g>
<!-- Node34&#45;&gt;Node35 -->
<g id="edge58_Node000034_Node000035" class="edge">
<title>Node34&#45;&gt;Node35</title>
<g id="a_edge58_Node000034_Node000035"><a xlink:title=" ">
<path fill="none" stroke="#63b8ff" d="M1692.67,-212.43C1693.75,-204.11 1694.93,-194.93 1695.79,-188.3"/>
<polygon fill="#63b8ff" stroke="#63b8ff" points="1689.23,-211.73 1691.41,-222.09 1696.17,-212.63 1689.23,-211.73"/>
</a>
</g>
</g>
<!-- Node35&#45;&gt;Node33 -->
<g id="edge59_Node000035_Node000033" class="edge">
<title>Node35&#45;&gt;Node33</title>
<g id="a_edge59_Node000035_Node000033"><a xlink:title=" ">
<path fill="none" stroke="#63b8ff" d="M1684.43,-158.15C1678.6,-149.4 1671.93,-139.39 1667.2,-132.3"/>
<polygon fill="#63b8ff" stroke="#63b8ff" points="1681.43,-159.96 1689.89,-166.33 1687.25,-156.07 1681.43,-159.96"/>
</a>
</g>
</g>
</g>
</svg>
