<?xml version="1.0" encoding="UTF-8" standalone="no"?>
<!DOCTYPE svg PUBLIC "-//W3C//DTD SVG 1.1//EN"
 "http://www.w3.org/Graphics/SVG/1.1/DTD/svg11.dtd">
<!-- Generated by graphviz version 2.40.1 (20161225.0304)
 -->
<!-- Title: zrtos_error_count__add Pages: 1 -->
<svg width="473pt" height="186pt"
 viewBox="0.00 0.00 473.00 186.00" xmlns="http://www.w3.org/2000/svg" xmlns:xlink="http://www.w3.org/1999/xlink">
<g id="graph0" class="graph" transform="scale(1 1) rotate(0) translate(4 182)">
<title>zrtos_error_count__add</title>
<polygon fill="#ffffff" stroke="transparent" points="-4,4 -4,-182 469,-182 469,4 -4,4"/>
<!-- Node2 -->
<g id="node1" class="node">
<title>Node2</title>
<polygon fill="#bfbfbf" stroke="#000000" points="0,-79 0,-98 119,-98 119,-79 0,-79"/>
<text text-anchor="middle" x="59.5" y="-86" font-family="Helvetica,sans-Serif" font-size="10.00" fill="#000000">zrtos_error_count__add</text>
</g>
<!-- Node3 -->
<g id="node2" class="node">
<title>Node3</title>
<g id="a_node2"><a xlink:href="rtu_8h.html#a223fc39dfd241ff17884c9f5d03f8e78" target="_top" xlink:title="zrtos_vfs_module_modbus\l_rtu__on_recv_timeout">
<polygon fill="#ffffff" stroke="#000000" points="158,-147.5 158,-177.5 292,-177.5 292,-147.5 158,-147.5"/>
<text text-anchor="start" x="166" y="-165.5" font-family="Helvetica,sans-Serif" font-size="10.00" fill="#000000">zrtos_vfs_module_modbus</text>
<text text-anchor="middle" x="225" y="-154.5" font-family="Helvetica,sans-Serif" font-size="10.00" fill="#000000">_rtu__on_recv_timeout</text>
</a>
</g>
</g>
<!-- Node2&#45;&gt;Node3 -->
<g id="edge1" class="edge">
<title>Node2&#45;&gt;Node3</title>
<path fill="none" stroke="#191970" d="M84.9215,-103.1647C103.8723,-113.7603 130.5872,-127.9964 155,-138.5 162.3168,-141.648 170.1954,-144.679 177.9344,-147.4648"/>
<polygon fill="#191970" stroke="#191970" points="86.458,-100.0129 76.0297,-98.1417 83.015,-106.1076 86.458,-100.0129"/>
</g>
<!-- Node5 -->
<g id="node4" class="node">
<title>Node5</title>
<g id="a_node4"><a xlink:href="rtu_8h.html#ab23606290979709ef6fefa7c6970e64e" target="_top" xlink:title="zrtos_vfs_module_modbus\l_rtu__on_send">
<polygon fill="#ffffff" stroke="#000000" points="158,-98.5 158,-128.5 292,-128.5 292,-98.5 158,-98.5"/>
<text text-anchor="start" x="166" y="-116.5" font-family="Helvetica,sans-Serif" font-size="10.00" fill="#000000">zrtos_vfs_module_modbus</text>
<text text-anchor="middle" x="225" y="-105.5" font-family="Helvetica,sans-Serif" font-size="10.00" fill="#000000">_rtu__on_send</text>
</a>
</g>
</g>
<!-- Node2&#45;&gt;Node5 -->
<g id="edge3" class="edge">
<title>Node2&#45;&gt;Node5</title>
<path fill="none" stroke="#191970" d="M129.347,-99.0509C138.7572,-100.4724 148.3957,-101.9284 157.7594,-103.3428"/>
<polygon fill="#191970" stroke="#191970" points="129.6599,-95.5585 119.2493,-97.5256 128.6143,-102.48 129.6599,-95.5585"/>
</g>
<!-- Node6 -->
<g id="node5" class="node">
<title>Node6</title>
<g id="a_node5"><a xlink:href="avr_2uart_2uart_8h.html#aea39870a896298195c0769800af5b3e2" target="_top" xlink:title="zrtos_vfs_module_avr\l_uart__on_receive_interrupt">
<polygon fill="#ffffff" stroke="#000000" points="156.5,-49.5 156.5,-79.5 293.5,-79.5 293.5,-49.5 156.5,-49.5"/>
<text text-anchor="start" x="164.5" y="-67.5" font-family="Helvetica,sans-Serif" font-size="10.00" fill="#000000">zrtos_vfs_module_avr</text>
<text text-anchor="middle" x="225" y="-56.5" font-family="Helvetica,sans-Serif" font-size="10.00" fill="#000000">_uart__on_receive_interrupt</text>
</a>
</g>
</g>
<!-- Node2&#45;&gt;Node6 -->
<g id="edge5" class="edge">
<title>Node2&#45;&gt;Node6</title>
<path fill="none" stroke="#191970" d="M129.258,-78.384C138.222,-77.0841 147.3945,-75.754 156.3406,-74.4566"/>
<polygon fill="#191970" stroke="#191970" points="128.6435,-74.9365 119.2493,-79.8354 129.6481,-81.864 128.6435,-74.9365"/>
</g>
<!-- Node8 -->
<g id="node7" class="node">
<title>Node8</title>
<g id="a_node7"><a xlink:href="avr_2uart_2uart_8h.html#a4ad82b41bf19a0c78e59277745226a13" target="_top" xlink:title="zrtos_vfs_module_avr\l_uart__on_transmit_interrupt">
<polygon fill="#ffffff" stroke="#000000" points="155,-.5 155,-30.5 295,-30.5 295,-.5 155,-.5"/>
<text text-anchor="start" x="163" y="-18.5" font-family="Helvetica,sans-Serif" font-size="10.00" fill="#000000">zrtos_vfs_module_avr</text>
<text text-anchor="middle" x="225" y="-7.5" font-family="Helvetica,sans-Serif" font-size="10.00" fill="#000000">_uart__on_transmit_interrupt</text>
</a>
</g>
</g>
<!-- Node2&#45;&gt;Node8 -->
<g id="edge7" class="edge">
<title>Node2&#45;&gt;Node8</title>
<path fill="none" stroke="#191970" d="M85.7229,-74.225C104.6825,-64.1754 131.0658,-50.7431 155,-40.5 163.0674,-37.0474 171.7879,-33.6651 180.2454,-30.5593"/>
<polygon fill="#191970" stroke="#191970" points="83.9652,-71.1958 76.7966,-78.9972 87.2656,-77.369 83.9652,-71.1958"/>
</g>
<!-- Node4 -->
<g id="node3" class="node">
<title>Node4</title>
<g id="a_node3"><a xlink:href="rtu_8h.html#a2376d02a52d42eef634ef843afc499f3" target="_top" xlink:title="zrtos_vfs_module_modbus\l_rtu_inode__init">
<polygon fill="#ffffff" stroke="#000000" points="331,-122.5 331,-152.5 465,-152.5 465,-122.5 331,-122.5"/>
<text text-anchor="start" x="339" y="-140.5" font-family="Helvetica,sans-Serif" font-size="10.00" fill="#000000">zrtos_vfs_module_modbus</text>
<text text-anchor="middle" x="398" y="-129.5" font-family="Helvetica,sans-Serif" font-size="10.00" fill="#000000">_rtu_inode__init</text>
</a>
</g>
</g>
<!-- Node3&#45;&gt;Node4 -->
<g id="edge2" class="edge">
<title>Node3&#45;&gt;Node4</title>
<path fill="none" stroke="#191970" d="M302.5363,-151.2953C311.9662,-149.9326 321.5398,-148.5492 330.8022,-147.2107"/>
<polygon fill="#191970" stroke="#191970" points="301.7783,-147.8684 292.3817,-152.7628 302.7795,-154.7965 301.7783,-147.8684"/>
</g>
<!-- Node5&#45;&gt;Node4 -->
<g id="edge4" class="edge">
<title>Node5&#45;&gt;Node4</title>
<path fill="none" stroke="#191970" d="M302.5363,-124.2565C311.9662,-125.5647 321.5398,-126.8928 330.8022,-128.1778"/>
<polygon fill="#191970" stroke="#191970" points="302.7678,-120.7552 292.3817,-122.8477 301.8059,-127.6888 302.7678,-120.7552"/>
</g>
<!-- Node7 -->
<g id="node6" class="node">
<title>Node7</title>
<g id="a_node6"><a xlink:href="uart0_8h.html#a69856cc389c8b76c8cf8c45ea5a33bc7" target="_top" xlink:title="ISR">
<polygon fill="#ffffff" stroke="#000000" points="381,-55 381,-74 415,-74 415,-55 381,-55"/>
<text text-anchor="middle" x="398" y="-62" font-family="Helvetica,sans-Serif" font-size="10.00" fill="#000000">ISR</text>
</a>
</g>
</g>
<!-- Node6&#45;&gt;Node7 -->
<g id="edge6" class="edge">
<title>Node6&#45;&gt;Node7</title>
<path fill="none" stroke="#191970" d="M303.9775,-64.5C332.7408,-64.5 362.6219,-64.5 380.7697,-64.5"/>
<polygon fill="#191970" stroke="#191970" points="303.8713,-61.0001 293.8713,-64.5 303.8712,-68.0001 303.8713,-61.0001"/>
</g>
<!-- Node9 -->
<g id="node8" class="node">
<title>Node9</title>
<g id="a_node8"><a xlink:href="uart0_8h.html#a91dc2a9d312bdd124f13347731b7e1bd" target="_top" xlink:title="ISR">
<polygon fill="#ffffff" stroke="#000000" points="381,-6 381,-25 415,-25 415,-6 381,-6"/>
<text text-anchor="middle" x="398" y="-13" font-family="Helvetica,sans-Serif" font-size="10.00" fill="#000000">ISR</text>
</a>
</g>
</g>
<!-- Node8&#45;&gt;Node9 -->
<g id="edge8" class="edge">
<title>Node8&#45;&gt;Node9</title>
<path fill="none" stroke="#191970" d="M305.7,-15.5C333.9124,-15.5 362.9513,-15.5 380.7398,-15.5"/>
<polygon fill="#191970" stroke="#191970" points="305.3658,-12.0001 295.3657,-15.5 305.3657,-19.0001 305.3658,-12.0001"/>
</g>
</g>
</svg>
