<?xml version="1.0" encoding="UTF-8" standalone="no"?>
<!DOCTYPE svg PUBLIC "-//W3C//DTD SVG 1.1//EN"
 "http://www.w3.org/Graphics/SVG/1.1/DTD/svg11.dtd">
<!-- Generated by graphviz version 10.0.1 (20240210.2158)
 -->
<!-- Title: error.h Pages: 1 -->
<svg width="1679pt" height="308pt"
 viewBox="0.00 0.00 1679.13 308.00" xmlns="http://www.w3.org/2000/svg" xmlns:xlink="http://www.w3.org/1999/xlink">
<g id="graph0" class="graph" transform="scale(1 1) rotate(0) translate(4 304)">
<title>error.h</title>
<!-- Node1 -->
<g id="Node000001" class="node">
<title>Node1</title>
<g id="a_Node000001"><a xlink:title=" ">
<polygon fill="#999999" stroke="#666666" points="1177.6,-300 1133.85,-300 1133.85,-280 1177.6,-280 1177.6,-300"/>
<text text-anchor="middle" x="1155.72" y="-286.5" font-family="Helvetica,sans-Serif" font-size="10.00">error.h</text>
</a>
</g>
</g>
<!-- Node2 -->
<g id="Node000002" class="node">
<title>Node2</title>
<g id="a_Node000002"><a xlink:href="cbuffer_8h.html" target="_top" xlink:title=" ">
<polygon fill="white" stroke="#666666" points="241.1,-244 188.35,-244 188.35,-224 241.1,-224 241.1,-244"/>
<text text-anchor="middle" x="214.72" y="-230.5" font-family="Helvetica,sans-Serif" font-size="10.00">cbuffer.h</text>
</a>
</g>
</g>
<!-- Node1&#45;&gt;Node2 -->
<g id="edge1_Node000001_Node000002" class="edge">
<title>Node1&#45;&gt;Node2</title>
<g id="a_edge1_Node000001_Node000002"><a xlink:title=" ">
<path fill="none" stroke="#63b8ff" d="M1122.34,-287.08C973.83,-278.56 374.7,-244.18 241.19,-236.52"/>
<polygon fill="#63b8ff" stroke="#63b8ff" points="1121.7,-290.55 1131.88,-287.63 1122.1,-283.56 1121.7,-290.55"/>
</a>
</g>
</g>
<!-- Node10 -->
<g id="Node000010" class="node">
<title>Node10</title>
<g id="a_Node000010"><a xlink:href="errno_8h.html" target="_top" xlink:title=" ">
<polygon fill="white" stroke="#666666" points="1305.72,-244 1259.72,-244 1259.72,-224 1305.72,-224 1305.72,-244"/>
<text text-anchor="middle" x="1282.72" y="-230.5" font-family="Helvetica,sans-Serif" font-size="10.00">errno.h</text>
</a>
</g>
</g>
<!-- Node1&#45;&gt;Node10 -->
<g id="edge11_Node000001_Node000010" class="edge">
<title>Node1&#45;&gt;Node10</title>
<g id="a_edge11_Node000001_Node000010"><a xlink:title=" ">
<path fill="none" stroke="#63b8ff" d="M1188.32,-275.14C1210.94,-265.52 1240.47,-252.97 1260.43,-244.48"/>
<polygon fill="#63b8ff" stroke="#63b8ff" points="1187.07,-271.87 1179.24,-279 1189.81,-278.31 1187.07,-271.87"/>
</a>
</g>
</g>
<!-- Node11 -->
<g id="Node000011" class="node">
<title>Node11</title>
<g id="a_Node000011"><a xlink:href="task_8h.html" target="_top" xlink:title=" ">
<polygon fill="white" stroke="#666666" points="1227.22,-188 1184.22,-188 1184.22,-168 1227.22,-168 1227.22,-188"/>
<text text-anchor="middle" x="1205.72" y="-174.5" font-family="Helvetica,sans-Serif" font-size="10.00">task.h</text>
</a>
</g>
</g>
<!-- Node1&#45;&gt;Node11 -->
<g id="edge26_Node000001_Node000011" class="edge">
<title>Node1&#45;&gt;Node11</title>
<g id="a_edge26_Node000001_Node000011"><a xlink:title=" ">
<path fill="none" stroke="#63b8ff" d="M1164.68,-269.3C1175.53,-245.43 1193.36,-206.2 1201.47,-188.35"/>
<polygon fill="#63b8ff" stroke="#63b8ff" points="1161.57,-267.69 1160.61,-278.24 1167.94,-270.59 1161.57,-267.69"/>
</a>
</g>
</g>
<!-- Node12 -->
<g id="Node000012" class="node">
<title>Node12</title>
<g id="a_Node000012"><a xlink:href="task__scheduler_8h.html" target="_top" xlink:title=" ">
<polygon fill="white" stroke="#666666" points="1227.85,-132 1137.6,-132 1137.6,-112 1227.85,-112 1227.85,-132"/>
<text text-anchor="middle" x="1182.72" y="-118.5" font-family="Helvetica,sans-Serif" font-size="10.00">task_scheduler.h</text>
</a>
</g>
</g>
<!-- Node1&#45;&gt;Node12 -->
<g id="edge31_Node000001_Node000012" class="edge">
<title>Node1&#45;&gt;Node12</title>
<g id="a_edge31_Node000001_Node000012"><a xlink:title=" ">
<path fill="none" stroke="#63b8ff" d="M1158.84,-268.36C1162.5,-244.25 1168.83,-203.2 1174.72,-168 1176.79,-155.63 1179.36,-141.39 1181.02,-132.3"/>
<polygon fill="#63b8ff" stroke="#63b8ff" points="1155.4,-267.67 1157.37,-278.08 1162.32,-268.72 1155.4,-267.67"/>
</a>
</g>
</g>
<!-- Node13 -->
<g id="Node000013" class="node">
<title>Node13</title>
<g id="a_Node000013"><a xlink:href="task__pthread_8h.html" target="_top" xlink:title=" ">
<polygon fill="white" stroke="#666666" points="1295.97,-76 1215.47,-76 1215.47,-56 1295.97,-56 1295.97,-76"/>
<text text-anchor="middle" x="1255.72" y="-62.5" font-family="Helvetica,sans-Serif" font-size="10.00">task_pthread.h</text>
</a>
</g>
</g>
<!-- Node1&#45;&gt;Node13 -->
<g id="edge30_Node000001_Node000013" class="edge">
<title>Node1&#45;&gt;Node13</title>
<g id="a_edge30_Node000001_Node000013"><a xlink:title=" ">
<path fill="none" stroke="#63b8ff" d="M1174.38,-271.76C1193.27,-253.09 1221.66,-221.47 1235.72,-188 1252.23,-148.74 1255.15,-96.97 1255.64,-76.2"/>
<polygon fill="#63b8ff" stroke="#63b8ff" points="1172.09,-269.11 1167.3,-278.56 1176.94,-274.16 1172.09,-269.11"/>
</a>
</g>
</g>
<!-- Node14 -->
<g id="Node000014" class="node">
<title>Node14</title>
<g id="a_Node000014"><a xlink:href="vheap__task_8h.html" target="_top" xlink:title=" ">
<polygon fill="white" stroke="#666666" points="1435.22,-188 1362.22,-188 1362.22,-168 1435.22,-168 1435.22,-188"/>
<text text-anchor="middle" x="1398.72" y="-174.5" font-family="Helvetica,sans-Serif" font-size="10.00">vheap_task.h</text>
</a>
</g>
</g>
<!-- Node1&#45;&gt;Node14 -->
<g id="edge53_Node000001_Node000014" class="edge">
<title>Node1&#45;&gt;Node14</title>
<g id="a_edge53_Node000001_Node000014"><a xlink:title=" ">
<path fill="none" stroke="#63b8ff" d="M1189.35,-287.79C1229.86,-284.91 1298.57,-275.36 1347.72,-244 1369.98,-229.81 1386.59,-202.44 1394.17,-188.16"/>
<polygon fill="#63b8ff" stroke="#63b8ff" points="1189.27,-284.29 1179.5,-288.38 1189.69,-291.28 1189.27,-284.29"/>
</a>
</g>
</g>
<!-- Node16 -->
<g id="Node000016" class="node">
<title>Node16</title>
<g id="a_Node000016"><a xlink:href="vheap__task__pthread_8h.html" target="_top" xlink:title=" ">
<polygon fill="white" stroke="#666666" points="1492.97,-76 1382.47,-76 1382.47,-56 1492.97,-56 1492.97,-76"/>
<text text-anchor="middle" x="1437.72" y="-62.5" font-family="Helvetica,sans-Serif" font-size="10.00">vheap_task_pthread.h</text>
</a>
</g>
</g>
<!-- Node1&#45;&gt;Node16 -->
<g id="edge54_Node000001_Node000016" class="edge">
<title>Node1&#45;&gt;Node16</title>
<g id="a_edge54_Node000001_Node000016"><a xlink:title=" ">
<path fill="none" stroke="#63b8ff" d="M1189.48,-286.82C1233.49,-282.92 1312,-272.3 1372.72,-244 1443.08,-211.21 1474.93,-202.81 1506.72,-132 1517.85,-107.23 1485.97,-87.39 1461.9,-76.41"/>
<polygon fill="#63b8ff" stroke="#63b8ff" points="1189.22,-283.33 1179.53,-287.63 1189.78,-290.31 1189.22,-283.33"/>
</a>
</g>
</g>
<!-- Node17 -->
<g id="Node000017" class="node">
<title>Node17</title>
<g id="a_Node000017"><a xlink:href="gpio_8h.html" target="_top" xlink:title=" ">
<polygon fill="white" stroke="#666666" points="443.85,-244 401.6,-244 401.6,-224 443.85,-224 443.85,-244"/>
<text text-anchor="middle" x="422.72" y="-230.5" font-family="Helvetica,sans-Serif" font-size="10.00">gpio.h</text>
</a>
</g>
</g>
<!-- Node1&#45;&gt;Node17 -->
<g id="edge18_Node000001_Node000017" class="edge">
<title>Node1&#45;&gt;Node17</title>
<g id="a_edge18_Node000001_Node000017"><a xlink:title=" ">
<path fill="none" stroke="#63b8ff" d="M1122.14,-286.53C995.34,-277.18 547.64,-244.2 444.18,-236.58"/>
<polygon fill="#63b8ff" stroke="#63b8ff" points="1121.65,-290 1131.88,-287.24 1122.16,-283.02 1121.65,-290"/>
</a>
</g>
</g>
<!-- Node19 -->
<g id="Node000019" class="node">
<title>Node19</title>
<g id="a_Node000019"><a xlink:href="vfs_2module_2arduino_2gpio_8h.html" target="_top" xlink:title=" ">
<polygon fill="white" stroke="#666666" points="762.85,-132 720.6,-132 720.6,-112 762.85,-112 762.85,-132"/>
<text text-anchor="middle" x="741.72" y="-118.5" font-family="Helvetica,sans-Serif" font-size="10.00">gpio.h</text>
</a>
</g>
</g>
<!-- Node1&#45;&gt;Node19 -->
<g id="edge23_Node000001_Node000019" class="edge">
<title>Node1&#45;&gt;Node19</title>
<g id="a_edge23_Node000001_Node000019"><a xlink:title=" ">
<path fill="none" stroke="#63b8ff" d="M1133.74,-272.79C1123.84,-264.82 1112.44,-254.64 1103.72,-244 1079.14,-213.97 1092.8,-189.85 1060.72,-168 1057.61,-165.88 833.69,-135.44 762.92,-125.86"/>
<polygon fill="#63b8ff" stroke="#63b8ff" points="1131.4,-275.41 1141.45,-278.78 1135.7,-269.88 1131.4,-275.41"/>
</a>
</g>
</g>
<!-- Node20 -->
<g id="Node000020" class="node">
<title>Node20</title>
<g id="a_Node000020"><a xlink:href="vfs_2module_2avr_2progmem_8h.html" target="_top" xlink:title=" ">
<polygon fill="white" stroke="#666666" points="552.1,-188 487.35,-188 487.35,-168 552.1,-168 552.1,-188"/>
<text text-anchor="middle" x="519.72" y="-174.5" font-family="Helvetica,sans-Serif" font-size="10.00">progmem.h</text>
</a>
</g>
</g>
<!-- Node1&#45;&gt;Node20 -->
<g id="edge24_Node000001_Node000020" class="edge">
<title>Node1&#45;&gt;Node20</title>
<g id="a_edge24_Node000001_Node000020"><a xlink:title=" ">
<path fill="none" stroke="#63b8ff" d="M1122.06,-287.79C1022.9,-283.95 733.17,-270.68 642.72,-244 599.87,-231.36 554.72,-203.04 532.97,-188.31"/>
<polygon fill="#63b8ff" stroke="#63b8ff" points="1121.81,-291.28 1131.93,-288.16 1122.07,-284.29 1121.81,-291.28"/>
</a>
</g>
</g>
<!-- Node21 -->
<g id="Node000021" class="node">
<title>Node21</title>
<g id="a_Node000021"><a xlink:href="sram_8h.html" target="_top" xlink:title=" ">
<polygon fill="white" stroke="#666666" points="987.72,-188 941.72,-188 941.72,-168 987.72,-168 987.72,-188"/>
<text text-anchor="middle" x="964.72" y="-174.5" font-family="Helvetica,sans-Serif" font-size="10.00">sram.h</text>
</a>
</g>
</g>
<!-- Node1&#45;&gt;Node21 -->
<g id="edge25_Node000001_Node000021" class="edge">
<title>Node1&#45;&gt;Node21</title>
<g id="a_edge25_Node000001_Node000021"><a xlink:title=" ">
<path fill="none" stroke="#63b8ff" d="M1123,-278.2C1100.74,-270.22 1071.04,-258.28 1046.72,-244 1018.53,-227.44 989.44,-202.03 974.66,-188.41"/>
<polygon fill="#63b8ff" stroke="#63b8ff" points="1121.55,-281.4 1132.15,-281.4 1123.86,-274.8 1121.55,-281.4"/>
</a>
</g>
</g>
<!-- Node22 -->
<g id="Node000022" class="node">
<title>Node22</title>
<g id="a_Node000022"><a xlink:href="task__mutex_8h.html" target="_top" xlink:title=" ">
<polygon fill="white" stroke="#666666" points="1359.35,-132 1284.1,-132 1284.1,-112 1359.35,-112 1359.35,-132"/>
<text text-anchor="middle" x="1321.72" y="-118.5" font-family="Helvetica,sans-Serif" font-size="10.00">task_mutex.h</text>
</a>
</g>
</g>
<!-- Node1&#45;&gt;Node22 -->
<g id="edge27_Node000001_Node000022" class="edge">
<title>Node1&#45;&gt;Node22</title>
<g id="a_edge27_Node000001_Node000022"><a xlink:title=" ">
<path fill="none" stroke="#63b8ff" d="M1189.25,-284.12C1231.1,-277.29 1299.08,-263.49 1314.72,-244 1341.33,-210.85 1330.31,-154.68 1324.47,-132.46"/>
<polygon fill="#63b8ff" stroke="#63b8ff" points="1188.78,-280.65 1179.45,-285.67 1189.87,-287.57 1188.78,-280.65"/>
</a>
</g>
</g>
<!-- Node23 -->
<g id="Node000023" class="node">
<title>Node23</title>
<g id="a_Node000023"><a xlink:href="uart0_8h.html" target="_top" xlink:title=" ">
<polygon fill="white" stroke="#666666" points="1051.72,-188 1005.72,-188 1005.72,-168 1051.72,-168 1051.72,-188"/>
<text text-anchor="middle" x="1028.72" y="-174.5" font-family="Helvetica,sans-Serif" font-size="10.00">uart0.h</text>
</a>
</g>
</g>
<!-- Node1&#45;&gt;Node23 -->
<g id="edge32_Node000001_Node000023" class="edge">
<title>Node1&#45;&gt;Node23</title>
<g id="a_edge32_Node000001_Node000023"><a xlink:title=" ">
<path fill="none" stroke="#63b8ff" d="M1122.96,-278.06C1104.5,-270.65 1081.97,-259.4 1065.72,-244 1048.57,-227.75 1037.11,-201.75 1031.91,-188.08"/>
<polygon fill="#63b8ff" stroke="#63b8ff" points="1121.54,-281.26 1132.13,-281.54 1124.02,-274.72 1121.54,-281.26"/>
</a>
</g>
</g>
<!-- Node24 -->
<g id="Node000024" class="node">
<title>Node24</title>
<g id="a_Node000024"><a xlink:href="vfs__file_8h.html" target="_top" xlink:title=" ">
<polygon fill="white" stroke="#666666" points="882.1,-76 829.35,-76 829.35,-56 882.1,-56 882.1,-76"/>
<text text-anchor="middle" x="855.72" y="-62.5" font-family="Helvetica,sans-Serif" font-size="10.00">vfs_file.h</text>
</a>
</g>
</g>
<!-- Node1&#45;&gt;Node24 -->
<g id="edge33_Node000001_Node000024" class="edge">
<title>Node1&#45;&gt;Node24</title>
<g id="a_edge33_Node000001_Node000024"><a xlink:title=" ">
<path fill="none" stroke="#63b8ff" d="M1148.64,-269.31C1138.3,-243.03 1116.74,-196.52 1084.72,-168 1023.57,-113.51 928.32,-84.51 882.34,-73"/>
<polygon fill="#63b8ff" stroke="#63b8ff" points="1145.27,-270.28 1152.07,-278.4 1151.82,-267.81 1145.27,-270.28"/>
</a>
</g>
</g>
<!-- Node27 -->
<g id="Node000027" class="node">
<title>Node27</title>
<g id="a_Node000027"><a xlink:href="vfs__plugin_8h.html" target="_top" xlink:title=" ">
<polygon fill="white" stroke="#666666" points="717.85,-244 651.6,-244 651.6,-224 717.85,-224 717.85,-244"/>
<text text-anchor="middle" x="684.72" y="-230.5" font-family="Helvetica,sans-Serif" font-size="10.00">vfs_plugin.h</text>
</a>
</g>
</g>
<!-- Node1&#45;&gt;Node27 -->
<g id="edge36_Node000001_Node000027" class="edge">
<title>Node1&#45;&gt;Node27</title>
<g id="a_edge36_Node000001_Node000027"><a xlink:title=" ">
<path fill="none" stroke="#63b8ff" d="M1122.42,-285.18C1035.92,-275.26 804.84,-248.77 718.17,-238.83"/>
<polygon fill="#63b8ff" stroke="#63b8ff" points="1121.8,-288.63 1132.14,-286.3 1122.6,-281.68 1121.8,-288.63"/>
</a>
</g>
</g>
<!-- Node32 -->
<g id="Node000032" class="node">
<title>Node32</title>
<g id="a_Node000032"><a xlink:href="vm_8h.html" target="_top" xlink:title=" ">
<polygon fill="white" stroke="#666666" points="1663.85,-132 1627.6,-132 1627.6,-112 1663.85,-112 1663.85,-132"/>
<text text-anchor="middle" x="1645.72" y="-118.5" font-family="Helvetica,sans-Serif" font-size="10.00">vm.h</text>
</a>
</g>
</g>
<!-- Node1&#45;&gt;Node32 -->
<g id="edge55_Node000001_Node000032" class="edge">
<title>Node1&#45;&gt;Node32</title>
<g id="a_edge55_Node000001_Node000032"><a xlink:title=" ">
<path fill="none" stroke="#63b8ff" d="M1189.4,-287.96C1294.17,-284.43 1609.55,-271.6 1645.72,-244 1673.58,-222.74 1674.31,-202.21 1666.72,-168 1663.81,-154.87 1656.65,-141.03 1651.5,-132.22"/>
<polygon fill="#63b8ff" stroke="#63b8ff" points="1189.37,-284.46 1179.49,-288.28 1189.6,-291.45 1189.37,-284.46"/>
</a>
</g>
</g>
<!-- Node33 -->
<g id="Node000033" class="node">
<title>Node33</title>
<g id="a_Node000033"><a xlink:href="vm__function_8h.html" target="_top" xlink:title=" ">
<polygon fill="white" stroke="#666666" points="1636.35,-244 1561.1,-244 1561.1,-224 1636.35,-224 1636.35,-244"/>
<text text-anchor="middle" x="1598.72" y="-230.5" font-family="Helvetica,sans-Serif" font-size="10.00">vm_function.h</text>
</a>
</g>
</g>
<!-- Node1&#45;&gt;Node33 -->
<g id="edge56_Node000001_Node000033" class="edge">
<title>Node1&#45;&gt;Node33</title>
<g id="a_edge56_Node000001_Node000033"><a xlink:title=" ">
<path fill="none" stroke="#63b8ff" d="M1189.26,-285.47C1256.06,-278.34 1410.41,-261.43 1539.72,-244 1546.5,-243.09 1553.71,-242.05 1560.67,-241"/>
<polygon fill="#63b8ff" stroke="#63b8ff" points="1188.92,-281.98 1179.34,-286.52 1189.66,-288.94 1188.92,-281.98"/>
</a>
</g>
</g>
<!-- Node3 -->
<g id="Node000003" class="node">
<title>Node3</title>
<g id="a_Node000003"><a xlink:href="msg__queue_8h.html" target="_top" xlink:title=" ">
<polygon fill="white" stroke="#666666" points="218.97,-188 144.47,-188 144.47,-168 218.97,-168 218.97,-188"/>
<text text-anchor="middle" x="181.72" y="-174.5" font-family="Helvetica,sans-Serif" font-size="10.00">msg_queue.h</text>
</a>
</g>
</g>
<!-- Node2&#45;&gt;Node3 -->
<g id="edge2_Node000002_Node000003" class="edge">
<title>Node2&#45;&gt;Node3</title>
<g id="a_edge2_Node000002_Node000003"><a xlink:title=" ">
<path fill="none" stroke="#63b8ff" d="M203.03,-213.87C197.73,-205.19 191.7,-195.32 187.41,-188.3"/>
<polygon fill="#63b8ff" stroke="#63b8ff" points="199.99,-215.59 208.19,-222.3 205.96,-211.94 199.99,-215.59"/>
</a>
</g>
</g>
<!-- Node4 -->
<g id="Node000004" class="node">
<title>Node4</title>
<g id="a_Node000004"><a xlink:href="rtu_8h.html" target="_top" xlink:title=" ">
<polygon fill="white" stroke="#666666" points="199.47,-132 163.97,-132 163.97,-112 199.47,-112 199.47,-132"/>
<text text-anchor="middle" x="181.72" y="-118.5" font-family="Helvetica,sans-Serif" font-size="10.00">rtu.h</text>
</a>
</g>
</g>
<!-- Node2&#45;&gt;Node4 -->
<g id="edge4_Node000002_Node000004" class="edge">
<title>Node2&#45;&gt;Node4</title>
<g id="a_edge4_Node000002_Node000004"><a xlink:title=" ">
<path fill="none" stroke="#63b8ff" d="M176.98,-230.33C123.17,-225.65 28.58,-213.88 7.72,-188 -34.97,-135.02 110.92,-125.22 163.53,-123.41"/>
<polygon fill="#63b8ff" stroke="#63b8ff" points="176.36,-233.79 186.61,-231.12 176.93,-226.81 176.36,-233.79"/>
</a>
</g>
</g>
<!-- Node5 -->
<g id="Node000005" class="node">
<title>Node5</title>
<g id="a_Node000005"><a xlink:href="avr_2spi_2spi_8h.html" target="_top" xlink:title=" ">
<polygon fill="white" stroke="#666666" points="364.22,-132 327.22,-132 327.22,-112 364.22,-112 364.22,-132"/>
<text text-anchor="middle" x="345.72" y="-118.5" font-family="Helvetica,sans-Serif" font-size="10.00">spi.h</text>
</a>
</g>
</g>
<!-- Node2&#45;&gt;Node5 -->
<g id="edge5_Node000002_Node000005" class="edge">
<title>Node2&#45;&gt;Node5</title>
<g id="a_edge5_Node000002_Node000005"><a xlink:title=" ">
<path fill="none" stroke="#63b8ff" d="M226.58,-214.12C235.98,-200.19 250.11,-181.39 265.72,-168 284.47,-151.92 309.85,-138.81 326.95,-130.98"/>
<polygon fill="#63b8ff" stroke="#63b8ff" points="223.71,-212.1 221.19,-222.39 229.58,-215.92 223.71,-212.1"/>
</a>
</g>
</g>
<!-- Node6 -->
<g id="Node000006" class="node">
<title>Node6</title>
<g id="a_Node000006"><a xlink:href="spi_2spi_8h.html" target="_top" xlink:title=" ">
<polygon fill="white" stroke="#666666" points="312.22,-188 275.22,-188 275.22,-168 312.22,-168 312.22,-188"/>
<text text-anchor="middle" x="293.72" y="-174.5" font-family="Helvetica,sans-Serif" font-size="10.00">spi.h</text>
</a>
</g>
</g>
<!-- Node2&#45;&gt;Node6 -->
<g id="edge6_Node000002_Node000006" class="edge">
<title>Node2&#45;&gt;Node6</title>
<g id="a_edge6_Node000002_Node000006"><a xlink:title=" ">
<path fill="none" stroke="#63b8ff" d="M237.74,-217.27C251.38,-207.94 268.23,-196.43 279.86,-188.48"/>
<polygon fill="#63b8ff" stroke="#63b8ff" points="236.02,-214.21 229.74,-222.74 239.97,-219.99 236.02,-214.21"/>
</a>
</g>
</g>
<!-- Node7 -->
<g id="Node000007" class="node">
<title>Node7</title>
<g id="a_Node000007"><a xlink:href="uart_2uart_8h.html" target="_top" xlink:title=" ">
<polygon fill="white" stroke="#666666" points="371.1,-188 330.35,-188 330.35,-168 371.1,-168 371.1,-188"/>
<text text-anchor="middle" x="350.72" y="-174.5" font-family="Helvetica,sans-Serif" font-size="10.00">uart.h</text>
</a>
</g>
</g>
<!-- Node2&#45;&gt;Node7 -->
<g id="edge8_Node000002_Node000007" class="edge">
<title>Node2&#45;&gt;Node7</title>
<g id="a_edge8_Node000002_Node000007"><a xlink:title=" ">
<path fill="none" stroke="#63b8ff" d="M249.11,-219.35C274.6,-209.23 308.5,-195.76 329.98,-187.24"/>
<polygon fill="#63b8ff" stroke="#63b8ff" points="247.82,-216.09 239.82,-223.04 250.41,-222.6 247.82,-216.09"/>
</a>
</g>
</g>
<!-- Node8 -->
<g id="Node000008" class="node">
<title>Node8</title>
<g id="a_Node000008"><a xlink:href="uart2_8h.html" target="_top" xlink:title=" ">
<polygon fill="white" stroke="#666666" points="62.72,-188 16.72,-188 16.72,-168 62.72,-168 62.72,-188"/>
<text text-anchor="middle" x="39.72" y="-174.5" font-family="Helvetica,sans-Serif" font-size="10.00">uart2.h</text>
</a>
</g>
</g>
<!-- Node2&#45;&gt;Node8 -->
<g id="edge9_Node000002_Node000008" class="edge">
<title>Node2&#45;&gt;Node8</title>
<g id="a_edge9_Node000002_Node000008"><a xlink:title=" ">
<path fill="none" stroke="#63b8ff" d="M177.52,-221.52C142.94,-210.85 92.48,-195.28 63.18,-186.24"/>
<polygon fill="#63b8ff" stroke="#63b8ff" points="176.11,-224.75 186.7,-224.35 178.18,-218.06 176.11,-224.75"/>
</a>
</g>
</g>
<!-- Node9 -->
<g id="Node000009" class="node">
<title>Node9</title>
<g id="a_Node000009"><a xlink:href="uart3_8h.html" target="_top" xlink:title=" ">
<polygon fill="white" stroke="#666666" points="126.72,-188 80.72,-188 80.72,-168 126.72,-168 126.72,-188"/>
<text text-anchor="middle" x="103.72" y="-174.5" font-family="Helvetica,sans-Serif" font-size="10.00">uart3.h</text>
</a>
</g>
</g>
<!-- Node2&#45;&gt;Node9 -->
<g id="edge10_Node000002_Node000009" class="edge">
<title>Node2&#45;&gt;Node9</title>
<g id="a_edge10_Node000002_Node000009"><a xlink:title=" ">
<path fill="none" stroke="#63b8ff" d="M185.15,-218.61C165.53,-209.07 140.34,-196.81 123.21,-188.48"/>
<polygon fill="#63b8ff" stroke="#63b8ff" points="183.51,-221.7 194.03,-222.93 186.57,-215.41 183.51,-221.7"/>
</a>
</g>
</g>
<!-- Node3&#45;&gt;Node4 -->
<g id="edge3_Node000003_Node000004" class="edge">
<title>Node3&#45;&gt;Node4</title>
<g id="a_edge3_Node000003_Node000004"><a xlink:title=" ">
<path fill="none" stroke="#63b8ff" d="M181.72,-156.13C181.72,-147.9 181.72,-138.85 181.72,-132.3"/>
<polygon fill="#63b8ff" stroke="#63b8ff" points="178.23,-156.08 181.72,-166.08 185.23,-156.08 178.23,-156.08"/>
</a>
</g>
</g>
<!-- Node6&#45;&gt;Node5 -->
<g id="edge7_Node000006_Node000005" class="edge">
<title>Node6&#45;&gt;Node5</title>
<g id="a_edge7_Node000006_Node000005"><a xlink:title=" ">
<path fill="none" stroke="#63b8ff" d="M310.51,-159.57C319.24,-150.5 329.57,-139.78 336.77,-132.3"/>
<polygon fill="#63b8ff" stroke="#63b8ff" points="308.25,-156.87 303.83,-166.5 313.29,-161.73 308.25,-156.87"/>
</a>
</g>
</g>
<!-- Node10&#45;&gt;Node11 -->
<g id="edge12_Node000010_Node000011" class="edge">
<title>Node10&#45;&gt;Node11</title>
<g id="a_edge12_Node000010_Node000011"><a xlink:title=" ">
<path fill="none" stroke="#63b8ff" d="M1259.91,-217C1246.68,-207.72 1230.47,-196.35 1219.24,-188.48"/>
<polygon fill="#63b8ff" stroke="#63b8ff" points="1257.88,-219.85 1268.07,-222.72 1261.9,-214.12 1257.88,-219.85"/>
</a>
</g>
</g>
<!-- Node10&#45;&gt;Node14 -->
<g id="edge15_Node000010_Node000014" class="edge">
<title>Node10&#45;&gt;Node14</title>
<g id="a_edge15_Node000010_Node000014"><a xlink:title=" ">
<path fill="none" stroke="#63b8ff" d="M1313.35,-218.75C1333.89,-209.18 1360.37,-196.85 1378.36,-188.48"/>
<polygon fill="#63b8ff" stroke="#63b8ff" points="1311.89,-215.56 1304.3,-222.96 1314.85,-221.91 1311.89,-215.56"/>
</a>
</g>
</g>
<!-- Node11&#45;&gt;Node12 -->
<g id="edge13_Node000011_Node000012" class="edge">
<title>Node11&#45;&gt;Node12</title>
<g id="a_edge13_Node000011_Node000012"><a xlink:title=" ">
<path fill="none" stroke="#63b8ff" d="M1197.21,-157C1193.6,-148.54 1189.58,-139.08 1186.69,-132.3"/>
<polygon fill="#63b8ff" stroke="#63b8ff" points="1193.99,-158.37 1201.13,-166.2 1200.43,-155.63 1193.99,-158.37"/>
</a>
</g>
</g>
<!-- Node12&#45;&gt;Node13 -->
<g id="edge14_Node000012_Node000013" class="edge">
<title>Node12&#45;&gt;Node13</title>
<g id="a_edge14_Node000012_Node000013"><a xlink:title=" ">
<path fill="none" stroke="#63b8ff" d="M1204.42,-104.95C1217.04,-95.61 1232.52,-84.16 1243.15,-76.3"/>
<polygon fill="#63b8ff" stroke="#63b8ff" points="1202.62,-101.93 1196.66,-110.69 1206.78,-107.56 1202.62,-101.93"/>
</a>
</g>
</g>
<!-- Node15 -->
<g id="Node000015" class="node">
<title>Node15</title>
<g id="a_Node000015"><a xlink:href="vheap__task__scheduler_8h.html" target="_top" xlink:title=" ">
<polygon fill="white" stroke="#666666" points="1497.85,-132 1377.6,-132 1377.6,-112 1497.85,-112 1497.85,-132"/>
<text text-anchor="middle" x="1437.72" y="-118.5" font-family="Helvetica,sans-Serif" font-size="10.00">vheap_task_scheduler.h</text>
</a>
</g>
</g>
<!-- Node14&#45;&gt;Node15 -->
<g id="edge16_Node000014_Node000015" class="edge">
<title>Node14&#45;&gt;Node15</title>
<g id="a_edge16_Node000014_Node000015"><a xlink:title=" ">
<path fill="none" stroke="#63b8ff" d="M1412.13,-158.44C1418.5,-149.62 1425.83,-139.47 1431.01,-132.3"/>
<polygon fill="#63b8ff" stroke="#63b8ff" points="1409.42,-156.21 1406.4,-166.37 1415.1,-160.31 1409.42,-156.21"/>
</a>
</g>
</g>
<!-- Node15&#45;&gt;Node16 -->
<g id="edge17_Node000015_Node000016" class="edge">
<title>Node15&#45;&gt;Node16</title>
<g id="a_edge17_Node000015_Node000016"><a xlink:title=" ">
<path fill="none" stroke="#63b8ff" d="M1437.72,-100.13C1437.72,-91.9 1437.72,-82.85 1437.72,-76.3"/>
<polygon fill="#63b8ff" stroke="#63b8ff" points="1434.23,-100.08 1437.72,-110.08 1441.23,-100.08 1434.23,-100.08"/>
</a>
</g>
</g>
<!-- Node17&#45;&gt;Node5 -->
<g id="edge21_Node000017_Node000005" class="edge">
<title>Node17&#45;&gt;Node5</title>
<g id="a_edge21_Node000017_Node000005"><a xlink:title=" ">
<path fill="none" stroke="#63b8ff" d="M410.77,-214.26C402.31,-201.16 390.58,-183.34 379.72,-168 370.79,-155.37 359.93,-141.19 352.93,-132.18"/>
<polygon fill="#63b8ff" stroke="#63b8ff" points="407.61,-215.82 415.96,-222.35 413.5,-212.04 407.61,-215.82"/>
</a>
</g>
</g>
<!-- Node17&#45;&gt;Node6 -->
<g id="edge22_Node000017_Node000006" class="edge">
<title>Node17&#45;&gt;Node6</title>
<g id="a_edge22_Node000017_Node000006"><a xlink:title=" ">
<path fill="none" stroke="#63b8ff" d="M390.83,-219.65C366.2,-209.34 332.96,-195.42 312.45,-186.84"/>
<polygon fill="#63b8ff" stroke="#63b8ff" points="389.16,-222.74 399.74,-223.38 391.86,-216.29 389.16,-222.74"/>
</a>
</g>
</g>
<!-- Node18 -->
<g id="Node000018" class="node">
<title>Node18</title>
<g id="a_Node000018"><a xlink:href="vfs_2module_2gpio_2gpio_8h.html" target="_top" xlink:title=" ">
<polygon fill="white" stroke="#666666" points="468.85,-188 426.6,-188 426.6,-168 468.85,-168 468.85,-188"/>
<text text-anchor="middle" x="447.72" y="-174.5" font-family="Helvetica,sans-Serif" font-size="10.00">gpio.h</text>
</a>
</g>
</g>
<!-- Node17&#45;&gt;Node18 -->
<g id="edge19_Node000017_Node000018" class="edge">
<title>Node17&#45;&gt;Node18</title>
<g id="a_edge19_Node000017_Node000018"><a xlink:title=" ">
<path fill="none" stroke="#63b8ff" d="M431.85,-213.29C435.8,-204.75 440.24,-195.16 443.42,-188.3"/>
<polygon fill="#63b8ff" stroke="#63b8ff" points="428.74,-211.68 427.72,-222.22 435.09,-214.62 428.74,-211.68"/>
</a>
</g>
</g>
<!-- Node18&#45;&gt;Node19 -->
<g id="edge20_Node000018_Node000019" class="edge">
<title>Node18&#45;&gt;Node19</title>
<g id="a_edge20_Node000018_Node000019"><a xlink:title=" ">
<path fill="none" stroke="#63b8ff" d="M480.31,-167.88C575.58,-146.4 677.13,-131.7 720.43,-125.81"/>
<polygon fill="#63b8ff" stroke="#63b8ff" points="479.77,-164.41 470.8,-170.05 481.33,-171.24 479.77,-164.41"/>
</a>
</g>
</g>
<!-- Node22&#45;&gt;Node13 -->
<g id="edge28_Node000022_Node000013" class="edge">
<title>Node22&#45;&gt;Node13</title>
<g id="a_edge28_Node000022_Node000013"><a xlink:title=" ">
<path fill="none" stroke="#63b8ff" d="M1301.44,-104.4C1290.15,-95.17 1276.51,-84.01 1267.09,-76.3"/>
<polygon fill="#63b8ff" stroke="#63b8ff" points="1299.1,-107.01 1309.06,-110.64 1303.53,-101.59 1299.1,-107.01"/>
</a>
</g>
</g>
<!-- Node22&#45;&gt;Node16 -->
<g id="edge29_Node000022_Node000016" class="edge">
<title>Node22&#45;&gt;Node16</title>
<g id="a_edge29_Node000022_Node000016"><a xlink:title=" ">
<path fill="none" stroke="#63b8ff" d="M1352.35,-106.75C1372.89,-97.18 1399.37,-84.85 1417.36,-76.48"/>
<polygon fill="#63b8ff" stroke="#63b8ff" points="1350.89,-103.56 1343.3,-110.96 1353.85,-109.91 1350.89,-103.56"/>
</a>
</g>
</g>
<!-- Node25 -->
<g id="Node000025" class="node">
<title>Node25</title>
<g id="a_Node000025"><a xlink:href="random_8h.html" target="_top" xlink:title=" ">
<polygon fill="white" stroke="#666666" points="910.97,-20 854.47,-20 854.47,0 910.97,0 910.97,-20"/>
<text text-anchor="middle" x="882.72" y="-6.5" font-family="Helvetica,sans-Serif" font-size="10.00">random.h</text>
</a>
</g>
</g>
<!-- Node24&#45;&gt;Node25 -->
<g id="edge34_Node000024_Node000025" class="edge">
<title>Node24&#45;&gt;Node25</title>
<g id="a_edge34_Node000024_Node000025"><a xlink:title=" ">
<path fill="none" stroke="#63b8ff" d="M865.44,-45.58C869.74,-36.97 874.61,-27.24 878.08,-20.3"/>
<polygon fill="#63b8ff" stroke="#63b8ff" points="862.45,-43.73 861.1,-54.24 868.71,-46.86 862.45,-43.73"/>
</a>
</g>
</g>
<!-- Node26 -->
<g id="Node000026" class="node">
<title>Node26</title>
<g id="a_Node000026"><a xlink:href="zero_8h.html" target="_top" xlink:title=" ">
<polygon fill="white" stroke="#666666" points="768.22,-20 725.22,-20 725.22,0 768.22,0 768.22,-20"/>
<text text-anchor="middle" x="746.72" y="-6.5" font-family="Helvetica,sans-Serif" font-size="10.00">zero.h</text>
</a>
</g>
</g>
<!-- Node24&#45;&gt;Node26 -->
<g id="edge35_Node000024_Node000026" class="edge">
<title>Node24&#45;&gt;Node26</title>
<g id="a_edge35_Node000024_Node000026"><a xlink:title=" ">
<path fill="none" stroke="#63b8ff" d="M826.68,-50.61C807.42,-41.07 782.68,-28.81 765.86,-20.48"/>
<polygon fill="#63b8ff" stroke="#63b8ff" points="824.87,-53.62 835.38,-54.92 827.98,-47.35 824.87,-53.62"/>
</a>
</g>
</g>
<!-- Node27&#45;&gt;Node4 -->
<g id="edge44_Node000027_Node000004" class="edge">
<title>Node27&#45;&gt;Node4</title>
<g id="a_edge44_Node000027_Node000004"><a xlink:title=" ">
<path fill="none" stroke="#63b8ff" d="M654.21,-218.71C636.38,-210.17 613.56,-198.89 593.72,-188 578.69,-179.75 576.94,-173.58 560.72,-168 492.43,-144.49 265.62,-128.39 199.78,-124.13"/>
<polygon fill="#63b8ff" stroke="#63b8ff" points="652.69,-221.87 663.22,-223 655.7,-215.55 652.69,-221.87"/>
</a>
</g>
</g>
<!-- Node27&#45;&gt;Node5 -->
<g id="edge45_Node000027_Node000005" class="edge">
<title>Node27&#45;&gt;Node5</title>
<g id="a_edge45_Node000027_Node000005"><a xlink:title=" ">
<path fill="none" stroke="#63b8ff" d="M666.15,-215.93C648.75,-200.91 621.34,-179.67 593.72,-168 513.11,-133.93 407.09,-125.63 364.56,-123.63"/>
<polygon fill="#63b8ff" stroke="#63b8ff" points="663.79,-218.51 673.6,-222.53 668.44,-213.28 663.79,-218.51"/>
</a>
</g>
</g>
<!-- Node27&#45;&gt;Node6 -->
<g id="edge46_Node000027_Node000006" class="edge">
<title>Node27&#45;&gt;Node6</title>
<g id="a_edge46_Node000027_Node000006"><a xlink:title=" ">
<path fill="none" stroke="#63b8ff" d="M640.06,-230.17C571.11,-225.2 434.86,-212.96 321.72,-188 318.73,-187.34 315.61,-186.49 312.57,-185.59"/>
<polygon fill="#63b8ff" stroke="#63b8ff" points="639.61,-233.65 649.83,-230.86 640.1,-226.67 639.61,-233.65"/>
</a>
</g>
</g>
<!-- Node27&#45;&gt;Node7 -->
<g id="edge48_Node000027_Node000007" class="edge">
<title>Node27&#45;&gt;Node7</title>
<g id="a_edge48_Node000027_Node000007"><a xlink:title=" ">
<path fill="none" stroke="#63b8ff" d="M640.07,-225.78C567.06,-213.98 424.92,-191 371.6,-182.37"/>
<polygon fill="#63b8ff" stroke="#63b8ff" points="639.25,-229.19 649.68,-227.33 640.36,-222.28 639.25,-229.19"/>
</a>
</g>
</g>
<!-- Node27&#45;&gt;Node18 -->
<g id="edge38_Node000027_Node000018" class="edge">
<title>Node27&#45;&gt;Node18</title>
<g id="a_edge38_Node000027_Node000018"><a xlink:title=" ">
<path fill="none" stroke="#63b8ff" d="M640.2,-224.18C598.34,-215.67 534.02,-202.05 478.72,-188 475.57,-187.2 472.26,-186.3 469.02,-185.39"/>
<polygon fill="#63b8ff" stroke="#63b8ff" points="639.4,-227.59 649.9,-226.14 640.79,-220.73 639.4,-227.59"/>
</a>
</g>
</g>
<!-- Node27&#45;&gt;Node20 -->
<g id="edge42_Node000027_Node000020" class="edge">
<title>Node27&#45;&gt;Node20</title>
<g id="a_edge42_Node000027_Node000020"><a xlink:title=" ">
<path fill="none" stroke="#63b8ff" d="M645.15,-220.05C615.45,-210.33 575.45,-197.24 548.69,-188.48"/>
<polygon fill="#63b8ff" stroke="#63b8ff" points="643.95,-223.34 654.55,-223.12 646.13,-216.69 643.95,-223.34"/>
</a>
</g>
</g>
<!-- Node27&#45;&gt;Node21 -->
<g id="edge47_Node000027_Node000021" class="edge">
<title>Node27&#45;&gt;Node21</title>
<g id="a_edge47_Node000027_Node000021"><a xlink:title=" ">
<path fill="none" stroke="#63b8ff" d="M729.37,-225.5C778.22,-217.11 858.78,-202.76 927.72,-188 932.12,-187.06 936.79,-185.98 941.28,-184.91"/>
<polygon fill="#63b8ff" stroke="#63b8ff" points="729.01,-222.01 719.74,-227.14 730.19,-228.91 729.01,-222.01"/>
</a>
</g>
</g>
<!-- Node27&#45;&gt;Node23 -->
<g id="edge49_Node000027_Node000023" class="edge">
<title>Node27&#45;&gt;Node23</title>
<g id="a_edge49_Node000027_Node000023"><a xlink:title=" ">
<path fill="none" stroke="#63b8ff" d="M729.33,-228.43C790.17,-221.77 902.42,-207.97 996.72,-188 999.55,-187.4 1002.49,-186.69 1005.39,-185.94"/>
<polygon fill="#63b8ff" stroke="#63b8ff" points="729.29,-224.91 719.73,-229.46 730.05,-231.87 729.29,-224.91"/>
</a>
</g>
</g>
<!-- Node27&#45;&gt;Node25 -->
<g id="edge43_Node000027_Node000025" class="edge">
<title>Node27&#45;&gt;Node25</title>
<g id="a_edge43_Node000027_Node000025"><a xlink:title=" ">
<path fill="none" stroke="#63b8ff" d="M729.17,-229.88C784.53,-224.97 874.32,-213.24 894.72,-188 935.77,-137.22 900.61,-49.16 887.3,-20.39"/>
<polygon fill="#63b8ff" stroke="#63b8ff" points="729.1,-226.37 719.43,-230.7 729.69,-233.35 729.1,-226.37"/>
</a>
</g>
</g>
<!-- Node27&#45;&gt;Node26 -->
<g id="edge52_Node000027_Node000026" class="edge">
<title>Node27&#45;&gt;Node26</title>
<g id="a_edge52_Node000027_Node000026"><a xlink:title=" ">
<path fill="none" stroke="#63b8ff" d="M677.8,-212.79C674.33,-199.9 671.48,-182.88 674.72,-168 687.78,-108.24 725.75,-44.02 740.64,-20.4"/>
<polygon fill="#63b8ff" stroke="#63b8ff" points="674.42,-213.7 680.71,-222.23 681.11,-211.64 674.42,-213.7"/>
</a>
</g>
</g>
<!-- Node28 -->
<g id="Node000028" class="node">
<title>Node28</title>
<g id="a_Node000028"><a xlink:href="directory_8h.html" target="_top" xlink:title=" ">
<polygon fill="white" stroke="#666666" points="745.6,-188 683.85,-188 683.85,-168 745.6,-168 745.6,-188"/>
<text text-anchor="middle" x="714.72" y="-174.5" font-family="Helvetica,sans-Serif" font-size="10.00">directory.h</text>
</a>
</g>
</g>
<!-- Node27&#45;&gt;Node28 -->
<g id="edge37_Node000027_Node000028" class="edge">
<title>Node27&#45;&gt;Node28</title>
<g id="a_edge37_Node000027_Node000028"><a xlink:title=" ">
<path fill="none" stroke="#63b8ff" d="M695.51,-213.58C700.3,-204.97 705.7,-195.24 709.56,-188.3"/>
<polygon fill="#63b8ff" stroke="#63b8ff" points="692.48,-211.83 690.69,-222.27 698.6,-215.23 692.48,-211.83"/>
</a>
</g>
</g>
<!-- Node29 -->
<g id="Node000029" class="node">
<title>Node29</title>
<g id="a_Node000029"><a xlink:href="null_8h.html" target="_top" xlink:title=" ">
<polygon fill="white" stroke="#666666" points="803.35,-188 764.1,-188 764.1,-168 803.35,-168 803.35,-188"/>
<text text-anchor="middle" x="783.72" y="-174.5" font-family="Helvetica,sans-Serif" font-size="10.00">null.h</text>
</a>
</g>
</g>
<!-- Node27&#45;&gt;Node29 -->
<g id="edge39_Node000027_Node000029" class="edge">
<title>Node27&#45;&gt;Node29</title>
<g id="a_edge39_Node000027_Node000029"><a xlink:title=" ">
<path fill="none" stroke="#63b8ff" d="M711.59,-218.35C729.01,-208.84 751.21,-196.74 766.35,-188.48"/>
<polygon fill="#63b8ff" stroke="#63b8ff" points="710.4,-215.01 703.3,-222.87 713.75,-221.15 710.4,-215.01"/>
</a>
</g>
</g>
<!-- Node31 -->
<g id="Node000031" class="node">
<title>Node31</title>
<g id="a_Node000031"><a xlink:href="vfs__inode_8h.html" target="_top" xlink:title=" ">
<polygon fill="white" stroke="#666666" points="885.72,-188 821.72,-188 821.72,-168 885.72,-168 885.72,-188"/>
<text text-anchor="middle" x="853.72" y="-174.5" font-family="Helvetica,sans-Serif" font-size="10.00">vfs_inode.h</text>
</a>
</g>
</g>
<!-- Node27&#45;&gt;Node31 -->
<g id="edge50_Node000027_Node000031" class="edge">
<title>Node27&#45;&gt;Node31</title>
<g id="a_edge50_Node000027_Node000031"><a xlink:title=" ">
<path fill="none" stroke="#63b8ff" d="M724.85,-220.18C755.32,-210.44 796.52,-197.28 824.06,-188.48"/>
<polygon fill="#63b8ff" stroke="#63b8ff" points="724.06,-216.76 715.6,-223.13 726.2,-223.42 724.06,-216.76"/>
</a>
</g>
</g>
<!-- Node30 -->
<g id="Node000030" class="node">
<title>Node30</title>
<g id="a_Node000030"><a xlink:href="vfs__dentry_8h.html" target="_top" xlink:title=" ">
<polygon fill="white" stroke="#666666" points="885.6,-132 817.85,-132 817.85,-112 885.6,-112 885.6,-132"/>
<text text-anchor="middle" x="851.72" y="-118.5" font-family="Helvetica,sans-Serif" font-size="10.00">vfs_dentry.h</text>
</a>
</g>
</g>
<!-- Node29&#45;&gt;Node30 -->
<g id="edge40_Node000029_Node000030" class="edge">
<title>Node29&#45;&gt;Node30</title>
<g id="a_edge40_Node000029_Node000030"><a xlink:title=" ">
<path fill="none" stroke="#63b8ff" d="M804.28,-160.68C815.98,-151.39 830.21,-140.09 840.02,-132.3"/>
<polygon fill="#63b8ff" stroke="#63b8ff" points="802.41,-157.69 796.75,-166.65 806.76,-163.17 802.41,-157.69"/>
</a>
</g>
</g>
<!-- Node30&#45;&gt;Node24 -->
<g id="edge41_Node000030_Node000024" class="edge">
<title>Node30&#45;&gt;Node24</title>
<g id="a_edge41_Node000030_Node000024"><a xlink:title=" ">
<path fill="none" stroke="#63b8ff" d="M853.27,-100.13C853.88,-91.9 854.55,-82.85 855.04,-76.3"/>
<polygon fill="#63b8ff" stroke="#63b8ff" points="849.78,-99.85 852.53,-110.08 856.76,-100.37 849.78,-99.85"/>
</a>
</g>
</g>
<!-- Node31&#45;&gt;Node30 -->
<g id="edge51_Node000031_Node000030" class="edge">
<title>Node31&#45;&gt;Node30</title>
<g id="a_edge51_Node000031_Node000030"><a xlink:title=" ">
<path fill="none" stroke="#63b8ff" d="M852.95,-156.13C852.65,-147.9 852.31,-138.85 852.07,-132.3"/>
<polygon fill="#63b8ff" stroke="#63b8ff" points="849.45,-156.22 853.32,-166.08 856.45,-155.96 849.45,-156.22"/>
</a>
</g>
</g>
<!-- Node34 -->
<g id="Node000034" class="node">
<title>Node34</title>
<g id="a_Node000034"><a xlink:href="vm__function__index_8h.html" target="_top" xlink:title=" ">
<polygon fill="white" stroke="#666666" points="1657.6,-188 1553.85,-188 1553.85,-168 1657.6,-168 1657.6,-188"/>
<text text-anchor="middle" x="1605.72" y="-174.5" font-family="Helvetica,sans-Serif" font-size="10.00">vm_function_index.h</text>
</a>
</g>
</g>
<!-- Node33&#45;&gt;Node34 -->
<g id="edge57_Node000033_Node000034" class="edge">
<title>Node33&#45;&gt;Node34</title>
<g id="a_edge57_Node000033_Node000034"><a xlink:title=" ">
<path fill="none" stroke="#63b8ff" d="M1601.39,-212.43C1602.47,-204.11 1603.66,-194.93 1604.52,-188.3"/>
<polygon fill="#63b8ff" stroke="#63b8ff" points="1597.95,-211.73 1600.14,-222.09 1604.9,-212.63 1597.95,-211.73"/>
</a>
</g>
</g>
<!-- Node34&#45;&gt;Node32 -->
<g id="edge58_Node000034_Node000032" class="edge">
<title>Node34&#45;&gt;Node32</title>
<g id="a_edge58_Node000034_Node000032"><a xlink:title=" ">
<path fill="none" stroke="#63b8ff" d="M1619.48,-158.44C1626.01,-149.62 1633.53,-139.47 1638.84,-132.3"/>
<polygon fill="#63b8ff" stroke="#63b8ff" points="1616.73,-156.26 1613.59,-166.38 1622.36,-160.43 1616.73,-156.26"/>
</a>
</g>
</g>
</g>
</svg>
