<?xml version="1.0" encoding="UTF-8" standalone="no"?>
<!DOCTYPE svg PUBLIC "-//W3C//DTD SVG 1.1//EN"
 "http://www.w3.org/Graphics/SVG/1.1/DTD/svg11.dtd">
<!-- Generated by graphviz version 10.0.1 (20240210.2158)
 -->
<!-- Title: error.h Pages: 1 -->
<svg width="1757pt" height="364pt"
 viewBox="0.00 0.00 1756.88 364.00" xmlns="http://www.w3.org/2000/svg" xmlns:xlink="http://www.w3.org/1999/xlink">
<g id="graph0" class="graph" transform="scale(1 1) rotate(0) translate(4 360)">
<title>error.h</title>
<!-- Node1 -->
<g id="Node000001" class="node">
<title>Node1</title>
<g id="a_Node000001"><a xlink:title=" ">
<polygon fill="#999999" stroke="#666666" points="1257.88,-356 1214.12,-356 1214.12,-336 1257.88,-336 1257.88,-356"/>
<text text-anchor="middle" x="1236" y="-342.5" font-family="Helvetica,sans-Serif" font-size="10.00">error.h</text>
</a>
</g>
</g>
<!-- Node2 -->
<g id="Node000002" class="node">
<title>Node2</title>
<g id="a_Node000002"><a xlink:href="cbuffer_8h.html" target="_top" xlink:title=" ">
<polygon fill="white" stroke="#666666" points="262.38,-300 209.62,-300 209.62,-280 262.38,-280 262.38,-300"/>
<text text-anchor="middle" x="236" y="-286.5" font-family="Helvetica,sans-Serif" font-size="10.00">cbuffer.h</text>
</a>
</g>
</g>
<!-- Node1&#45;&gt;Node2 -->
<g id="edge1_Node000001_Node000002" class="edge">
<title>Node1&#45;&gt;Node2</title>
<g id="a_edge1_Node000001_Node000002"><a xlink:title=" ">
<path fill="none" stroke="#63b8ff" d="M1202.24,-343.3C1087.72,-337.51 703.45,-317.93 386,-300 342.89,-297.57 292.83,-294.52 262.82,-292.67"/>
<polygon fill="#63b8ff" stroke="#63b8ff" points="1201.99,-346.79 1212.16,-343.8 1202.35,-339.8 1201.99,-346.79"/>
</a>
</g>
</g>
<!-- Node10 -->
<g id="Node000010" class="node">
<title>Node10</title>
<g id="a_Node000010"><a xlink:href="errno_8h.html" target="_top" xlink:title=" ">
<polygon fill="white" stroke="#666666" points="1448,-300 1402,-300 1402,-280 1448,-280 1448,-300"/>
<text text-anchor="middle" x="1425" y="-286.5" font-family="Helvetica,sans-Serif" font-size="10.00">errno.h</text>
</a>
</g>
</g>
<!-- Node1&#45;&gt;Node10 -->
<g id="edge11_Node000001_Node000010" class="edge">
<title>Node1&#45;&gt;Node10</title>
<g id="a_edge11_Node000001_Node000010"><a xlink:title=" ">
<path fill="none" stroke="#63b8ff" d="M1269.02,-335.57C1306.97,-324.72 1368.29,-307.2 1401.61,-297.68"/>
<polygon fill="#63b8ff" stroke="#63b8ff" points="1268.16,-332.17 1259.51,-338.28 1270.08,-338.9 1268.16,-332.17"/>
</a>
</g>
</g>
<!-- Node11 -->
<g id="Node000011" class="node">
<title>Node11</title>
<g id="a_Node000011"><a xlink:href="task_8h.html" target="_top" xlink:title=" ">
<polygon fill="white" stroke="#666666" points="1307.5,-244 1264.5,-244 1264.5,-224 1307.5,-224 1307.5,-244"/>
<text text-anchor="middle" x="1286" y="-230.5" font-family="Helvetica,sans-Serif" font-size="10.00">task.h</text>
</a>
</g>
</g>
<!-- Node1&#45;&gt;Node11 -->
<g id="edge26_Node000001_Node000011" class="edge">
<title>Node1&#45;&gt;Node11</title>
<g id="a_edge26_Node000001_Node000011"><a xlink:title=" ">
<path fill="none" stroke="#63b8ff" d="M1244.96,-325.3C1255.81,-301.43 1273.64,-262.2 1281.75,-244.35"/>
<polygon fill="#63b8ff" stroke="#63b8ff" points="1241.84,-323.69 1240.89,-334.24 1248.21,-326.59 1241.84,-323.69"/>
</a>
</g>
</g>
<!-- Node12 -->
<g id="Node000012" class="node">
<title>Node12</title>
<g id="a_Node000012"><a xlink:href="task__scheduler_8h.html" target="_top" xlink:title=" ">
<polygon fill="white" stroke="#666666" points="1281.12,-188 1190.88,-188 1190.88,-168 1281.12,-168 1281.12,-188"/>
<text text-anchor="middle" x="1236" y="-174.5" font-family="Helvetica,sans-Serif" font-size="10.00">task_scheduler.h</text>
</a>
</g>
</g>
<!-- Node1&#45;&gt;Node12 -->
<g id="edge31_Node000001_Node000012" class="edge">
<title>Node1&#45;&gt;Node12</title>
<g id="a_edge31_Node000001_Node000012"><a xlink:title=" ">
<path fill="none" stroke="#63b8ff" d="M1236,-324.5C1236,-288.27 1236,-214.31 1236,-188.3"/>
<polygon fill="#63b8ff" stroke="#63b8ff" points="1232.5,-324.09 1236,-334.09 1239.5,-324.09 1232.5,-324.09"/>
</a>
</g>
</g>
<!-- Node13 -->
<g id="Node000013" class="node">
<title>Node13</title>
<g id="a_Node000013"><a xlink:href="task__pthread_8h.html" target="_top" xlink:title=" ">
<polygon fill="white" stroke="#666666" points="1349.25,-132 1268.75,-132 1268.75,-112 1349.25,-112 1349.25,-132"/>
<text text-anchor="middle" x="1309" y="-118.5" font-family="Helvetica,sans-Serif" font-size="10.00">task_pthread.h</text>
</a>
</g>
</g>
<!-- Node1&#45;&gt;Node13 -->
<g id="edge30_Node000001_Node000013" class="edge">
<title>Node1&#45;&gt;Node13</title>
<g id="a_edge30_Node000001_Node000013"><a xlink:title=" ">
<path fill="none" stroke="#63b8ff" d="M1255.82,-328.14C1275.64,-309.8 1304.73,-278.48 1316,-244 1329.01,-204.2 1317.56,-153.16 1311.82,-132.41"/>
<polygon fill="#63b8ff" stroke="#63b8ff" points="1253.72,-325.32 1248.6,-334.6 1258.38,-330.54 1253.72,-325.32"/>
</a>
</g>
</g>
<!-- Node14 -->
<g id="Node000014" class="node">
<title>Node14</title>
<g id="a_Node000014"><a xlink:href="vheap__task_8h.html" target="_top" xlink:title=" ">
<polygon fill="white" stroke="#666666" points="1512.5,-244 1439.5,-244 1439.5,-224 1512.5,-224 1512.5,-244"/>
<text text-anchor="middle" x="1476" y="-230.5" font-family="Helvetica,sans-Serif" font-size="10.00">vheap_task.h</text>
</a>
</g>
</g>
<!-- Node1&#45;&gt;Node14 -->
<g id="edge56_Node000001_Node000014" class="edge">
<title>Node1&#45;&gt;Node14</title>
<g id="a_edge56_Node000001_Node000014"><a xlink:title=" ">
<path fill="none" stroke="#63b8ff" d="M1269.41,-342.38C1324.26,-337.41 1430.02,-324.82 1457,-300 1472.92,-285.36 1475.77,-258.18 1476.11,-244.06"/>
<polygon fill="#63b8ff" stroke="#63b8ff" points="1269.38,-338.87 1259.72,-343.22 1269.98,-345.84 1269.38,-338.87"/>
</a>
</g>
</g>
<!-- Node16 -->
<g id="Node000016" class="node">
<title>Node16</title>
<g id="a_Node000016"><a xlink:href="vheap__task__pthread_8h.html" target="_top" xlink:title=" ">
<polygon fill="white" stroke="#666666" points="1546.25,-132 1435.75,-132 1435.75,-112 1546.25,-112 1546.25,-132"/>
<text text-anchor="middle" x="1491" y="-118.5" font-family="Helvetica,sans-Serif" font-size="10.00">vheap_task_pthread.h</text>
</a>
</g>
</g>
<!-- Node1&#45;&gt;Node16 -->
<g id="edge57_Node000001_Node000016" class="edge">
<title>Node1&#45;&gt;Node16</title>
<g id="a_edge57_Node000001_Node000016"><a xlink:title=" ">
<path fill="none" stroke="#63b8ff" d="M1269.5,-341.75C1327.44,-335.65 1443.48,-321.16 1478,-300 1530.6,-267.76 1541.52,-246.86 1560,-188 1562.66,-179.52 1564.23,-175.82 1560,-168 1550.87,-151.15 1532.39,-139.61 1516.86,-132.44"/>
<polygon fill="#63b8ff" stroke="#63b8ff" points="1269.16,-338.27 1259.57,-342.77 1269.88,-345.23 1269.16,-338.27"/>
</a>
</g>
</g>
<!-- Node17 -->
<g id="Node000017" class="node">
<title>Node17</title>
<g id="a_Node000017"><a xlink:href="gpio_8h.html" target="_top" xlink:title=" ">
<polygon fill="white" stroke="#666666" points="437.12,-300 394.88,-300 394.88,-280 437.12,-280 437.12,-300"/>
<text text-anchor="middle" x="416" y="-286.5" font-family="Helvetica,sans-Serif" font-size="10.00">gpio.h</text>
</a>
</g>
</g>
<!-- Node1&#45;&gt;Node17 -->
<g id="edge18_Node000001_Node000017" class="edge">
<title>Node1&#45;&gt;Node17</title>
<g id="a_edge18_Node000001_Node000017"><a xlink:title=" ">
<path fill="none" stroke="#63b8ff" d="M1202.26,-342.78C1064.87,-333.73 549.58,-299.8 437.57,-292.42"/>
<polygon fill="#63b8ff" stroke="#63b8ff" points="1201.92,-346.26 1212.13,-343.43 1202.38,-339.28 1201.92,-346.26"/>
</a>
</g>
</g>
<!-- Node19 -->
<g id="Node000019" class="node">
<title>Node19</title>
<g id="a_Node000019"><a xlink:href="vfs_2module_2arduino_2gpio_8h.html" target="_top" xlink:title=" ">
<polygon fill="white" stroke="#666666" points="992.12,-188 949.88,-188 949.88,-168 992.12,-168 992.12,-188"/>
<text text-anchor="middle" x="971" y="-174.5" font-family="Helvetica,sans-Serif" font-size="10.00">gpio.h</text>
</a>
</g>
</g>
<!-- Node1&#45;&gt;Node19 -->
<g id="edge23_Node000001_Node000019" class="edge">
<title>Node1&#45;&gt;Node19</title>
<g id="a_edge23_Node000001_Node000019"><a xlink:title=" ">
<path fill="none" stroke="#63b8ff" d="M1214.02,-328.79C1204.11,-320.82 1192.71,-310.64 1184,-300 1159.41,-269.97 1171.72,-247.71 1141,-224 1139.5,-222.84 1037.61,-196.29 992.31,-184.53"/>
<polygon fill="#63b8ff" stroke="#63b8ff" points="1211.68,-331.41 1221.72,-334.78 1215.97,-325.88 1211.68,-331.41"/>
</a>
</g>
</g>
<!-- Node20 -->
<g id="Node000020" class="node">
<title>Node20</title>
<g id="a_Node000020"><a xlink:href="vfs_2module_2avr_2progmem_8h.html" target="_top" xlink:title=" ">
<polygon fill="white" stroke="#666666" points="574.38,-244 509.62,-244 509.62,-224 574.38,-224 574.38,-244"/>
<text text-anchor="middle" x="542" y="-230.5" font-family="Helvetica,sans-Serif" font-size="10.00">progmem.h</text>
</a>
</g>
</g>
<!-- Node1&#45;&gt;Node20 -->
<g id="edge24_Node000001_Node000020" class="edge">
<title>Node1&#45;&gt;Node20</title>
<g id="a_edge24_Node000001_Node000020"><a xlink:title=" ">
<path fill="none" stroke="#63b8ff" d="M1202.58,-344.22C1095.76,-341.44 763.58,-330.5 661,-300 619.26,-287.59 575.7,-259.17 554.75,-244.36"/>
<polygon fill="#63b8ff" stroke="#63b8ff" points="1202.31,-347.71 1212.39,-344.47 1202.48,-340.72 1202.31,-347.71"/>
</a>
</g>
</g>
<!-- Node21 -->
<g id="Node000021" class="node">
<title>Node21</title>
<g id="a_Node000021"><a xlink:href="sram_8h.html" target="_top" xlink:title=" ">
<polygon fill="white" stroke="#666666" points="638,-244 592,-244 592,-224 638,-224 638,-244"/>
<text text-anchor="middle" x="615" y="-230.5" font-family="Helvetica,sans-Serif" font-size="10.00">sram.h</text>
</a>
</g>
</g>
<!-- Node1&#45;&gt;Node21 -->
<g id="edge25_Node000001_Node000021" class="edge">
<title>Node1&#45;&gt;Node21</title>
<g id="a_edge25_Node000001_Node000021"><a xlink:title=" ">
<path fill="none" stroke="#63b8ff" d="M1202.31,-344.63C1099.7,-343.12 792.4,-335.66 700,-300 667.76,-287.56 637.5,-258.88 623.36,-244.13"/>
<polygon fill="#63b8ff" stroke="#63b8ff" points="1202.22,-348.13 1212.27,-344.77 1202.32,-341.13 1202.22,-348.13"/>
</a>
</g>
</g>
<!-- Node22 -->
<g id="Node000022" class="node">
<title>Node22</title>
<g id="a_Node000022"><a xlink:href="task__mutex_8h.html" target="_top" xlink:title=" ">
<polygon fill="white" stroke="#666666" points="1412.62,-188 1337.38,-188 1337.38,-168 1412.62,-168 1412.62,-188"/>
<text text-anchor="middle" x="1375" y="-174.5" font-family="Helvetica,sans-Serif" font-size="10.00">task_mutex.h</text>
</a>
</g>
</g>
<!-- Node1&#45;&gt;Node22 -->
<g id="edge27_Node000001_Node000022" class="edge">
<title>Node1&#45;&gt;Node22</title>
<g id="a_edge27_Node000001_Node000022"><a xlink:title=" ">
<path fill="none" stroke="#63b8ff" d="M1269.23,-340.54C1295.07,-335.29 1329.81,-324.01 1350,-300 1377.89,-266.84 1377.33,-210.67 1375.86,-188.45"/>
<polygon fill="#63b8ff" stroke="#63b8ff" points="1268.78,-337.06 1259.56,-342.28 1270.02,-343.95 1268.78,-337.06"/>
</a>
</g>
</g>
<!-- Node23 -->
<g id="Node000023" class="node">
<title>Node23</title>
<g id="a_Node000023"><a xlink:href="uart0_8h.html" target="_top" xlink:title=" ">
<polygon fill="white" stroke="#666666" points="1132,-244 1086,-244 1086,-224 1132,-224 1132,-244"/>
<text text-anchor="middle" x="1109" y="-230.5" font-family="Helvetica,sans-Serif" font-size="10.00">uart0.h</text>
</a>
</g>
</g>
<!-- Node1&#45;&gt;Node23 -->
<g id="edge32_Node000001_Node000023" class="edge">
<title>Node1&#45;&gt;Node23</title>
<g id="a_edge32_Node000001_Node000023"><a xlink:title=" ">
<path fill="none" stroke="#63b8ff" d="M1203.23,-334.06C1184.78,-326.65 1162.25,-315.4 1146,-300 1128.85,-283.75 1117.38,-257.75 1112.19,-244.08"/>
<polygon fill="#63b8ff" stroke="#63b8ff" points="1201.82,-337.26 1212.41,-337.54 1204.3,-330.72 1201.82,-337.26"/>
</a>
</g>
</g>
<!-- Node24 -->
<g id="Node000024" class="node">
<title>Node24</title>
<g id="a_Node000024"><a xlink:href="vfs__file_8h.html" target="_top" xlink:title=" ">
<polygon fill="white" stroke="#666666" points="948.38,-132 895.62,-132 895.62,-112 948.38,-112 948.38,-132"/>
<text text-anchor="middle" x="922" y="-118.5" font-family="Helvetica,sans-Serif" font-size="10.00">vfs_file.h</text>
</a>
</g>
</g>
<!-- Node1&#45;&gt;Node24 -->
<g id="edge33_Node000001_Node000024" class="edge">
<title>Node1&#45;&gt;Node24</title>
<g id="a_edge33_Node000001_Node000024"><a xlink:title=" ">
<path fill="none" stroke="#63b8ff" d="M1228.83,-325.21C1218.35,-298.84 1196.5,-252.2 1164,-224 1098.5,-167.16 996.47,-138.99 948.56,-128.29"/>
<polygon fill="#63b8ff" stroke="#63b8ff" points="1225.48,-326.25 1232.3,-334.36 1232.02,-323.76 1225.48,-326.25"/>
</a>
</g>
</g>
<!-- Node29 -->
<g id="Node000029" class="node">
<title>Node29</title>
<g id="a_Node000029"><a xlink:href="vfs__plugin_8h.html" target="_top" xlink:title=" ">
<polygon fill="white" stroke="#666666" points="775.12,-300 708.88,-300 708.88,-280 775.12,-280 775.12,-300"/>
<text text-anchor="middle" x="742" y="-286.5" font-family="Helvetica,sans-Serif" font-size="10.00">vfs_plugin.h</text>
</a>
</g>
</g>
<!-- Node1&#45;&gt;Node29 -->
<g id="edge38_Node000001_Node000029" class="edge">
<title>Node1&#45;&gt;Node29</title>
<g id="a_edge38_Node000001_Node000029"><a xlink:title=" ">
<path fill="none" stroke="#63b8ff" d="M1202.4,-341.33C1112.25,-331.47 865.75,-304.53 775.6,-294.67"/>
<polygon fill="#63b8ff" stroke="#63b8ff" points="1201.99,-344.8 1212.31,-342.41 1202.75,-337.84 1201.99,-344.8"/>
</a>
</g>
</g>
<!-- Node35 -->
<g id="Node000035" class="node">
<title>Node35</title>
<g id="a_Node000035"><a xlink:href="vm_8h.html" target="_top" xlink:title=" ">
<polygon fill="white" stroke="#666666" points="1679.12,-188 1642.88,-188 1642.88,-168 1679.12,-168 1679.12,-188"/>
<text text-anchor="middle" x="1661" y="-174.5" font-family="Helvetica,sans-Serif" font-size="10.00">vm.h</text>
</a>
</g>
</g>
<!-- Node1&#45;&gt;Node35 -->
<g id="edge58_Node000001_Node000035" class="edge">
<title>Node1&#45;&gt;Node35</title>
<g id="a_edge58_Node000001_Node000035"><a xlink:title=" ">
<path fill="none" stroke="#63b8ff" d="M1269.27,-344.55C1347.5,-342.92 1540.49,-335.32 1593,-300 1594.32,-299.11 1640.09,-216.71 1655.78,-188.42"/>
<polygon fill="#63b8ff" stroke="#63b8ff" points="1269.61,-341.05 1259.67,-344.73 1269.74,-348.04 1269.61,-341.05"/>
</a>
</g>
</g>
<!-- Node36 -->
<g id="Node000036" class="node">
<title>Node36</title>
<g id="a_Node000036"><a xlink:href="vm__function_8h.html" target="_top" xlink:title=" ">
<polygon fill="white" stroke="#666666" points="1727.62,-300 1652.38,-300 1652.38,-280 1727.62,-280 1727.62,-300"/>
<text text-anchor="middle" x="1690" y="-286.5" font-family="Helvetica,sans-Serif" font-size="10.00">vm_function.h</text>
</a>
</g>
</g>
<!-- Node1&#45;&gt;Node36 -->
<g id="edge59_Node000001_Node000036" class="edge">
<title>Node1&#45;&gt;Node36</title>
<g id="a_edge59_Node000001_Node000036"><a xlink:title=" ">
<path fill="none" stroke="#63b8ff" d="M1269.58,-341.61C1337.79,-334.62 1497.4,-317.79 1631,-300 1637.78,-299.1 1644.98,-298.06 1651.94,-297.02"/>
<polygon fill="#63b8ff" stroke="#63b8ff" points="1269.41,-338.11 1259.81,-342.6 1270.12,-345.07 1269.41,-338.11"/>
</a>
</g>
</g>
<!-- Node3 -->
<g id="Node000003" class="node">
<title>Node3</title>
<g id="a_Node000003"><a xlink:href="msg__queue_8h.html" target="_top" xlink:title=" ">
<polygon fill="white" stroke="#666666" points="240.25,-244 165.75,-244 165.75,-224 240.25,-224 240.25,-244"/>
<text text-anchor="middle" x="203" y="-230.5" font-family="Helvetica,sans-Serif" font-size="10.00">msg_queue.h</text>
</a>
</g>
</g>
<!-- Node2&#45;&gt;Node3 -->
<g id="edge2_Node000002_Node000003" class="edge">
<title>Node2&#45;&gt;Node3</title>
<g id="a_edge2_Node000002_Node000003"><a xlink:title=" ">
<path fill="none" stroke="#63b8ff" d="M224.31,-269.87C219,-261.19 212.97,-251.32 208.68,-244.3"/>
<polygon fill="#63b8ff" stroke="#63b8ff" points="221.26,-271.59 229.46,-278.3 227.23,-267.94 221.26,-271.59"/>
</a>
</g>
</g>
<!-- Node4 -->
<g id="Node000004" class="node">
<title>Node4</title>
<g id="a_Node000004"><a xlink:href="rtu_8h.html" target="_top" xlink:title=" ">
<polygon fill="white" stroke="#666666" points="220.75,-188 185.25,-188 185.25,-168 220.75,-168 220.75,-188"/>
<text text-anchor="middle" x="203" y="-174.5" font-family="Helvetica,sans-Serif" font-size="10.00">rtu.h</text>
</a>
</g>
</g>
<!-- Node2&#45;&gt;Node4 -->
<g id="edge4_Node000002_Node000004" class="edge">
<title>Node2&#45;&gt;Node4</title>
<g id="a_edge4_Node000002_Node000004"><a xlink:title=" ">
<path fill="none" stroke="#63b8ff" d="M198.62,-277.29C182.86,-270.29 166.09,-259.63 157,-244 144.91,-223.2 170.51,-200.65 188.14,-188.33"/>
<polygon fill="#63b8ff" stroke="#63b8ff" points="197.28,-280.52 207.86,-281 199.89,-274.02 197.28,-280.52"/>
</a>
</g>
</g>
<!-- Node5 -->
<g id="Node000005" class="node">
<title>Node5</title>
<g id="a_Node000005"><a xlink:href="avr_2spi_2spi_8h.html" target="_top" xlink:title=" ">
<polygon fill="white" stroke="#666666" points="356.5,-188 319.5,-188 319.5,-168 356.5,-168 356.5,-188"/>
<text text-anchor="middle" x="338" y="-174.5" font-family="Helvetica,sans-Serif" font-size="10.00">spi.h</text>
</a>
</g>
</g>
<!-- Node2&#45;&gt;Node5 -->
<g id="edge5_Node000002_Node000005" class="edge">
<title>Node2&#45;&gt;Node5</title>
<g id="a_edge5_Node000002_Node000005"><a xlink:title=" ">
<path fill="none" stroke="#63b8ff" d="M249.05,-270.58C258.89,-257.15 273.03,-238.8 287,-224 299.48,-210.78 315.4,-197.18 326.11,-188.44"/>
<polygon fill="#63b8ff" stroke="#63b8ff" points="246.33,-268.36 243.32,-278.52 252.01,-272.45 246.33,-268.36"/>
</a>
</g>
</g>
<!-- Node6 -->
<g id="Node000006" class="node">
<title>Node6</title>
<g id="a_Node000006"><a xlink:href="spi_2spi_8h.html" target="_top" xlink:title=" ">
<polygon fill="white" stroke="#666666" points="333.5,-244 296.5,-244 296.5,-224 333.5,-224 333.5,-244"/>
<text text-anchor="middle" x="315" y="-230.5" font-family="Helvetica,sans-Serif" font-size="10.00">spi.h</text>
</a>
</g>
</g>
<!-- Node2&#45;&gt;Node6 -->
<g id="edge6_Node000002_Node000006" class="edge">
<title>Node2&#45;&gt;Node6</title>
<g id="a_edge6_Node000002_Node000006"><a xlink:title=" ">
<path fill="none" stroke="#63b8ff" d="M259.01,-273.27C272.66,-263.94 289.5,-252.43 301.13,-244.48"/>
<polygon fill="#63b8ff" stroke="#63b8ff" points="257.29,-270.21 251.01,-278.74 261.24,-275.99 257.29,-270.21"/>
</a>
</g>
</g>
<!-- Node7 -->
<g id="Node000007" class="node">
<title>Node7</title>
<g id="a_Node000007"><a xlink:href="uart_2uart_8h.html" target="_top" xlink:title=" ">
<polygon fill="white" stroke="#666666" points="430.38,-244 389.62,-244 389.62,-224 430.38,-224 430.38,-244"/>
<text text-anchor="middle" x="410" y="-230.5" font-family="Helvetica,sans-Serif" font-size="10.00">uart.h</text>
</a>
</g>
</g>
<!-- Node2&#45;&gt;Node7 -->
<g id="edge8_Node000002_Node000007" class="edge">
<title>Node2&#45;&gt;Node7</title>
<g id="a_edge8_Node000002_Node000007"><a xlink:title=" ">
<path fill="none" stroke="#63b8ff" d="M273.67,-277.31C309.05,-266.33 360.68,-250.31 389.17,-241.46"/>
<polygon fill="#63b8ff" stroke="#63b8ff" points="272.76,-273.93 264.25,-280.23 274.84,-280.61 272.76,-273.93"/>
</a>
</g>
</g>
<!-- Node8 -->
<g id="Node000008" class="node">
<title>Node8</title>
<g id="a_Node000008"><a xlink:href="uart2_8h.html" target="_top" xlink:title=" ">
<polygon fill="white" stroke="#666666" points="110,-244 64,-244 64,-224 110,-224 110,-244"/>
<text text-anchor="middle" x="87" y="-230.5" font-family="Helvetica,sans-Serif" font-size="10.00">uart2.h</text>
</a>
</g>
</g>
<!-- Node2&#45;&gt;Node8 -->
<g id="edge9_Node000002_Node000008" class="edge">
<title>Node2&#45;&gt;Node8</title>
<g id="a_edge9_Node000002_Node000008"><a xlink:title=" ">
<path fill="none" stroke="#63b8ff" d="M199.52,-275.78C171.65,-265.68 134.1,-252.07 110.21,-243.41"/>
<polygon fill="#63b8ff" stroke="#63b8ff" points="198.03,-278.96 208.62,-279.08 200.41,-272.38 198.03,-278.96"/>
</a>
</g>
</g>
<!-- Node9 -->
<g id="Node000009" class="node">
<title>Node9</title>
<g id="a_Node000009"><a xlink:href="uart3_8h.html" target="_top" xlink:title=" ">
<polygon fill="white" stroke="#666666" points="46,-244 0,-244 0,-224 46,-224 46,-244"/>
<text text-anchor="middle" x="23" y="-230.5" font-family="Helvetica,sans-Serif" font-size="10.00">uart3.h</text>
</a>
</g>
</g>
<!-- Node2&#45;&gt;Node9 -->
<g id="edge10_Node000002_Node000009" class="edge">
<title>Node2&#45;&gt;Node9</title>
<g id="a_edge10_Node000002_Node000009"><a xlink:title=" ">
<path fill="none" stroke="#63b8ff" d="M198.1,-279.93C161.42,-271.07 104.29,-257.05 55,-244 52.21,-243.26 49.29,-242.47 46.4,-241.67"/>
<polygon fill="#63b8ff" stroke="#63b8ff" points="197.24,-283.33 207.78,-282.27 198.88,-276.52 197.24,-283.33"/>
</a>
</g>
</g>
<!-- Node3&#45;&gt;Node4 -->
<g id="edge3_Node000003_Node000004" class="edge">
<title>Node3&#45;&gt;Node4</title>
<g id="a_edge3_Node000003_Node000004"><a xlink:title=" ">
<path fill="none" stroke="#63b8ff" d="M203,-212.13C203,-203.9 203,-194.85 203,-188.3"/>
<polygon fill="#63b8ff" stroke="#63b8ff" points="199.5,-212.08 203,-222.08 206.5,-212.08 199.5,-212.08"/>
</a>
</g>
</g>
<!-- Node6&#45;&gt;Node5 -->
<g id="edge7_Node000006_Node000005" class="edge">
<title>Node6&#45;&gt;Node5</title>
<g id="a_edge7_Node000006_Node000005"><a xlink:title=" ">
<path fill="none" stroke="#63b8ff" d="M323.52,-213C327.12,-204.54 331.15,-195.08 334.04,-188.3"/>
<polygon fill="#63b8ff" stroke="#63b8ff" points="320.3,-211.63 319.6,-222.2 326.74,-214.37 320.3,-211.63"/>
</a>
</g>
</g>
<!-- Node10&#45;&gt;Node11 -->
<g id="edge12_Node000010_Node000011" class="edge">
<title>Node10&#45;&gt;Node11</title>
<g id="a_edge12_Node000010_Node000011"><a xlink:title=" ">
<path fill="none" stroke="#63b8ff" d="M1391.25,-275.89C1365.35,-265.83 1330.34,-252.23 1307.96,-243.53"/>
<polygon fill="#63b8ff" stroke="#63b8ff" points="1389.73,-279.05 1400.32,-279.41 1392.27,-272.53 1389.73,-279.05"/>
</a>
</g>
</g>
<!-- Node10&#45;&gt;Node14 -->
<g id="edge15_Node000010_Node000014" class="edge">
<title>Node10&#45;&gt;Node14</title>
<g id="a_edge15_Node000010_Node000014"><a xlink:title=" ">
<path fill="none" stroke="#63b8ff" d="M1441.73,-271.29C1450.24,-262.28 1460.23,-251.7 1467.22,-244.3"/>
<polygon fill="#63b8ff" stroke="#63b8ff" points="1439.24,-268.82 1434.92,-278.49 1444.33,-273.63 1439.24,-268.82"/>
</a>
</g>
</g>
<!-- Node11&#45;&gt;Node12 -->
<g id="edge13_Node000011_Node000012" class="edge">
<title>Node11&#45;&gt;Node12</title>
<g id="a_edge13_Node000011_Node000012"><a xlink:title=" ">
<path fill="none" stroke="#63b8ff" d="M1269.6,-215.29C1261.26,-206.28 1251.46,-195.7 1244.61,-188.3"/>
<polygon fill="#63b8ff" stroke="#63b8ff" points="1266.9,-217.52 1276.26,-222.48 1272.04,-212.77 1266.9,-217.52"/>
</a>
</g>
</g>
<!-- Node12&#45;&gt;Node13 -->
<g id="edge14_Node000012_Node000013" class="edge">
<title>Node12&#45;&gt;Node13</title>
<g id="a_edge14_Node000012_Node000013"><a xlink:title=" ">
<path fill="none" stroke="#63b8ff" d="M1257.69,-160.95C1270.32,-151.61 1285.8,-140.16 1296.43,-132.3"/>
<polygon fill="#63b8ff" stroke="#63b8ff" points="1255.89,-157.93 1249.93,-166.69 1260.05,-163.56 1255.89,-157.93"/>
</a>
</g>
</g>
<!-- Node15 -->
<g id="Node000015" class="node">
<title>Node15</title>
<g id="a_Node000015"><a xlink:href="vheap__task__scheduler_8h.html" target="_top" xlink:title=" ">
<polygon fill="white" stroke="#666666" points="1551.12,-188 1430.88,-188 1430.88,-168 1551.12,-168 1551.12,-188"/>
<text text-anchor="middle" x="1491" y="-174.5" font-family="Helvetica,sans-Serif" font-size="10.00">vheap_task_scheduler.h</text>
</a>
</g>
</g>
<!-- Node14&#45;&gt;Node15 -->
<g id="edge16_Node000014_Node000015" class="edge">
<title>Node14&#45;&gt;Node15</title>
<g id="a_edge16_Node000014_Node000015"><a xlink:title=" ">
<path fill="none" stroke="#63b8ff" d="M1481.63,-212.71C1483.97,-204.32 1486.55,-195.01 1488.42,-188.3"/>
<polygon fill="#63b8ff" stroke="#63b8ff" points="1478.32,-211.56 1479.02,-222.14 1485.07,-213.44 1478.32,-211.56"/>
</a>
</g>
</g>
<!-- Node15&#45;&gt;Node16 -->
<g id="edge17_Node000015_Node000016" class="edge">
<title>Node15&#45;&gt;Node16</title>
<g id="a_edge17_Node000015_Node000016"><a xlink:title=" ">
<path fill="none" stroke="#63b8ff" d="M1491,-156.13C1491,-147.9 1491,-138.85 1491,-132.3"/>
<polygon fill="#63b8ff" stroke="#63b8ff" points="1487.5,-156.08 1491,-166.08 1494.5,-156.08 1487.5,-156.08"/>
</a>
</g>
</g>
<!-- Node17&#45;&gt;Node5 -->
<g id="edge21_Node000017_Node000005" class="edge">
<title>Node17&#45;&gt;Node5</title>
<g id="a_edge21_Node000017_Node000005"><a xlink:title=" ">
<path fill="none" stroke="#63b8ff" d="M401.19,-270.61C394.83,-262.55 387.4,-252.92 381,-244 367.11,-224.66 351.99,-201.19 343.9,-188.41"/>
<polygon fill="#63b8ff" stroke="#63b8ff" points="398.36,-272.68 407.33,-278.32 403.83,-268.32 398.36,-272.68"/>
</a>
</g>
</g>
<!-- Node17&#45;&gt;Node6 -->
<g id="edge22_Node000017_Node000006" class="edge">
<title>Node17&#45;&gt;Node6</title>
<g id="a_edge22_Node000017_Node000006"><a xlink:title=" ">
<path fill="none" stroke="#63b8ff" d="M388.59,-274.35C370.82,-264.84 348.17,-252.74 332.73,-244.48"/>
<polygon fill="#63b8ff" stroke="#63b8ff" points="386.6,-277.25 397.07,-278.88 389.9,-271.08 386.6,-277.25"/>
</a>
</g>
</g>
<!-- Node18 -->
<g id="Node000018" class="node">
<title>Node18</title>
<g id="a_Node000018"><a xlink:href="vfs_2module_2gpio_2gpio_8h.html" target="_top" xlink:title=" ">
<polygon fill="white" stroke="#666666" points="491.12,-244 448.88,-244 448.88,-224 491.12,-224 491.12,-244"/>
<text text-anchor="middle" x="470" y="-230.5" font-family="Helvetica,sans-Serif" font-size="10.00">gpio.h</text>
</a>
</g>
</g>
<!-- Node17&#45;&gt;Node18 -->
<g id="edge19_Node000017_Node000018" class="edge">
<title>Node17&#45;&gt;Node18</title>
<g id="a_edge19_Node000017_Node000018"><a xlink:title=" ">
<path fill="none" stroke="#63b8ff" d="M433.43,-271.57C442.5,-262.5 453.22,-251.78 460.7,-244.3"/>
<polygon fill="#63b8ff" stroke="#63b8ff" points="431.07,-268.98 426.48,-278.52 436.02,-273.93 431.07,-268.98"/>
</a>
</g>
</g>
<!-- Node18&#45;&gt;Node19 -->
<g id="edge20_Node000018_Node000019" class="edge">
<title>Node18&#45;&gt;Node19</title>
<g id="a_edge20_Node000018_Node000019"><a xlink:title=" ">
<path fill="none" stroke="#63b8ff" d="M502.66,-224.12C696.03,-189.78 751.77,-223.71 941,-188 943.78,-187.48 946.67,-186.79 949.5,-186.04"/>
<polygon fill="#63b8ff" stroke="#63b8ff" points="502.25,-220.64 493.04,-225.87 503.5,-227.53 502.25,-220.64"/>
</a>
</g>
</g>
<!-- Node22&#45;&gt;Node13 -->
<g id="edge28_Node000022_Node000013" class="edge">
<title>Node22&#45;&gt;Node13</title>
<g id="a_edge28_Node000022_Node000013"><a xlink:title=" ">
<path fill="none" stroke="#63b8ff" d="M1354.71,-160.4C1343.42,-151.17 1329.79,-140.01 1320.36,-132.3"/>
<polygon fill="#63b8ff" stroke="#63b8ff" points="1352.38,-163.01 1362.33,-166.64 1356.81,-157.59 1352.38,-163.01"/>
</a>
</g>
</g>
<!-- Node22&#45;&gt;Node16 -->
<g id="edge29_Node000022_Node000016" class="edge">
<title>Node22&#45;&gt;Node16</title>
<g id="a_edge29_Node000022_Node000016"><a xlink:title=" ">
<path fill="none" stroke="#63b8ff" d="M1405.62,-162.75C1426.16,-153.18 1452.65,-140.85 1470.64,-132.48"/>
<polygon fill="#63b8ff" stroke="#63b8ff" points="1404.17,-159.56 1396.58,-166.96 1407.12,-165.91 1404.17,-159.56"/>
</a>
</g>
</g>
<!-- Node25 -->
<g id="Node000025" class="node">
<title>Node25</title>
<g id="a_Node000025"><a xlink:href="random_8h.html" target="_top" xlink:title=" ">
<polygon fill="white" stroke="#666666" points="837.25,-76 780.75,-76 780.75,-56 837.25,-56 837.25,-76"/>
<text text-anchor="middle" x="809" y="-62.5" font-family="Helvetica,sans-Serif" font-size="10.00">random.h</text>
</a>
</g>
</g>
<!-- Node24&#45;&gt;Node25 -->
<g id="edge34_Node000024_Node000025" class="edge">
<title>Node24&#45;&gt;Node25</title>
<g id="a_edge34_Node000024_Node000025"><a xlink:title=" ">
<path fill="none" stroke="#63b8ff" d="M892.17,-106.75C872.16,-97.18 846.36,-84.85 828.84,-76.48"/>
<polygon fill="#63b8ff" stroke="#63b8ff" points="890.42,-109.79 900.95,-110.94 893.44,-103.47 890.42,-109.79"/>
</a>
</g>
</g>
<!-- Node26 -->
<g id="Node000026" class="node">
<title>Node26</title>
<g id="a_Node000026"><a xlink:href="vfs__fd_8h.html" target="_top" xlink:title=" ">
<polygon fill="white" stroke="#666666" points="946.12,-76 897.88,-76 897.88,-56 946.12,-56 946.12,-76"/>
<text text-anchor="middle" x="922" y="-62.5" font-family="Helvetica,sans-Serif" font-size="10.00">vfs_fd.h</text>
</a>
</g>
</g>
<!-- Node24&#45;&gt;Node26 -->
<g id="edge35_Node000024_Node000026" class="edge">
<title>Node24&#45;&gt;Node26</title>
<g id="a_edge35_Node000024_Node000026"><a xlink:title=" ">
<path fill="none" stroke="#63b8ff" d="M922,-100.13C922,-91.9 922,-82.85 922,-76.3"/>
<polygon fill="#63b8ff" stroke="#63b8ff" points="918.5,-100.08 922,-110.08 925.5,-100.08 918.5,-100.08"/>
</a>
</g>
</g>
<!-- Node28 -->
<g id="Node000028" class="node">
<title>Node28</title>
<g id="a_Node000028"><a xlink:href="zero_8h.html" target="_top" xlink:title=" ">
<polygon fill="white" stroke="#666666" points="1055.5,-76 1012.5,-76 1012.5,-56 1055.5,-56 1055.5,-76"/>
<text text-anchor="middle" x="1034" y="-62.5" font-family="Helvetica,sans-Serif" font-size="10.00">zero.h</text>
</a>
</g>
</g>
<!-- Node24&#45;&gt;Node28 -->
<g id="edge37_Node000024_Node000028" class="edge">
<title>Node24&#45;&gt;Node28</title>
<g id="a_edge37_Node000024_Node000028"><a xlink:title=" ">
<path fill="none" stroke="#63b8ff" d="M951.84,-106.61C971.63,-97.07 997.05,-84.81 1014.34,-76.48"/>
<polygon fill="#63b8ff" stroke="#63b8ff" points="950.36,-103.44 942.87,-110.94 953.4,-109.75 950.36,-103.44"/>
</a>
</g>
</g>
<!-- Node27 -->
<g id="Node000027" class="node">
<title>Node27</title>
<g id="a_Node000027"><a xlink:href="vfs__notify_8h.html" target="_top" xlink:title=" ">
<polygon fill="white" stroke="#666666" points="954,-20 890,-20 890,0 954,0 954,-20"/>
<text text-anchor="middle" x="922" y="-6.5" font-family="Helvetica,sans-Serif" font-size="10.00">vfs_notify.h</text>
</a>
</g>
</g>
<!-- Node26&#45;&gt;Node27 -->
<g id="edge36_Node000026_Node000027" class="edge">
<title>Node26&#45;&gt;Node27</title>
<g id="a_edge36_Node000026_Node000027"><a xlink:title=" ">
<path fill="none" stroke="#63b8ff" d="M922,-44.13C922,-35.9 922,-26.85 922,-20.3"/>
<polygon fill="#63b8ff" stroke="#63b8ff" points="918.5,-44.08 922,-54.08 925.5,-44.08 918.5,-44.08"/>
</a>
</g>
</g>
<!-- Node29&#45;&gt;Node4 -->
<g id="edge47_Node000029_Node000004" class="edge">
<title>Node29&#45;&gt;Node4</title>
<g id="a_edge47_Node000029_Node000004"><a xlink:title=" ">
<path fill="none" stroke="#63b8ff" d="M719.91,-273.03C694.43,-254.75 654.99,-226.92 647,-224 626.63,-216.55 301.97,-187.68 221.12,-180.58"/>
<polygon fill="#63b8ff" stroke="#63b8ff" points="717.83,-275.84 727.99,-278.85 721.92,-270.16 717.83,-275.84"/>
</a>
</g>
</g>
<!-- Node29&#45;&gt;Node5 -->
<g id="edge48_Node000029_Node000005" class="edge">
<title>Node29&#45;&gt;Node5</title>
<g id="a_edge48_Node000029_Node000005"><a xlink:title=" ">
<path fill="none" stroke="#63b8ff" d="M729.85,-270.53C718.78,-255.34 700.99,-234.66 680,-224 622.47,-194.78 419.45,-182.87 356.65,-179.83"/>
<polygon fill="#63b8ff" stroke="#63b8ff" points="726.67,-272.09 735.25,-278.31 732.42,-268.1 726.67,-272.09"/>
</a>
</g>
</g>
<!-- Node29&#45;&gt;Node6 -->
<g id="edge49_Node000029_Node000006" class="edge">
<title>Node29&#45;&gt;Node6</title>
<g id="a_edge49_Node000029_Node000006"><a xlink:title=" ">
<path fill="none" stroke="#63b8ff" d="M697.49,-283.62C629.32,-275.34 494.97,-258.87 381,-244 365.06,-241.92 346.97,-239.45 333.77,-237.62"/>
<polygon fill="#63b8ff" stroke="#63b8ff" points="696.79,-287.06 707.14,-284.79 697.63,-280.11 696.79,-287.06"/>
</a>
</g>
</g>
<!-- Node29&#45;&gt;Node7 -->
<g id="edge51_Node000029_Node000007" class="edge">
<title>Node29&#45;&gt;Node7</title>
<g id="a_edge51_Node000029_Node000007"><a xlink:title=" ">
<path fill="none" stroke="#63b8ff" d="M697.46,-284.39C638.22,-277.8 530.46,-264.2 440,-244 436.92,-243.31 433.7,-242.47 430.55,-241.59"/>
<polygon fill="#63b8ff" stroke="#63b8ff" points="696.82,-287.84 707.14,-285.45 697.58,-280.88 696.82,-287.84"/>
</a>
</g>
</g>
<!-- Node29&#45;&gt;Node18 -->
<g id="edge41_Node000029_Node000018" class="edge">
<title>Node29&#45;&gt;Node18</title>
<g id="a_edge41_Node000029_Node000018"><a xlink:title=" ">
<path fill="none" stroke="#63b8ff" d="M697.29,-282C648.7,-274.08 568.9,-260.15 501,-244 497.95,-243.27 494.75,-242.43 491.61,-241.57"/>
<polygon fill="#63b8ff" stroke="#63b8ff" points="696.72,-285.45 707.15,-283.59 697.84,-278.54 696.72,-285.45"/>
</a>
</g>
</g>
<!-- Node29&#45;&gt;Node20 -->
<g id="edge45_Node000029_Node000020" class="edge">
<title>Node29&#45;&gt;Node20</title>
<g id="a_edge45_Node000029_Node000020"><a xlink:title=" ">
<path fill="none" stroke="#63b8ff" d="M697.49,-276.98C660.26,-266.93 608.02,-252.83 574.59,-243.8"/>
<polygon fill="#63b8ff" stroke="#63b8ff" points="696.5,-280.34 707.06,-279.57 698.32,-273.58 696.5,-280.34"/>
</a>
</g>
</g>
<!-- Node29&#45;&gt;Node21 -->
<g id="edge50_Node000029_Node000021" class="edge">
<title>Node29&#45;&gt;Node21</title>
<g id="a_edge50_Node000029_Node000021"><a xlink:title=" ">
<path fill="none" stroke="#63b8ff" d="M709.4,-275.14C686.79,-265.52 657.26,-252.97 637.29,-244.48"/>
<polygon fill="#63b8ff" stroke="#63b8ff" points="707.91,-278.31 718.49,-279 710.65,-271.87 707.91,-278.31"/>
</a>
</g>
</g>
<!-- Node29&#45;&gt;Node23 -->
<g id="edge52_Node000029_Node000023" class="edge">
<title>Node29&#45;&gt;Node23</title>
<g id="a_edge52_Node000029_Node000023"><a xlink:title=" ">
<path fill="none" stroke="#63b8ff" d="M786.65,-284.39C850.3,-277.48 970.65,-263.18 1072,-244 1076.42,-243.16 1081.1,-242.14 1085.59,-241.08"/>
<polygon fill="#63b8ff" stroke="#63b8ff" points="786.51,-280.88 776.95,-285.43 787.26,-287.84 786.51,-280.88"/>
</a>
</g>
</g>
<!-- Node29&#45;&gt;Node25 -->
<g id="edge46_Node000029_Node000025" class="edge">
<title>Node29&#45;&gt;Node25</title>
<g id="a_edge46_Node000029_Node000025"><a xlink:title=" ">
<path fill="none" stroke="#63b8ff" d="M747.81,-268.89C751.54,-256.04 756.51,-239.02 761,-224 777.82,-167.75 798.65,-100.36 806.15,-76.19"/>
<polygon fill="#63b8ff" stroke="#63b8ff" points="744.51,-267.7 745.09,-278.28 751.23,-269.65 744.51,-267.7"/>
</a>
</g>
</g>
<!-- Node29&#45;&gt;Node28 -->
<g id="edge55_Node000029_Node000028" class="edge">
<title>Node29&#45;&gt;Node28</title>
<g id="a_edge55_Node000029_Node000028"><a xlink:title=" ">
<path fill="none" stroke="#63b8ff" d="M786.75,-289.03C861.56,-288.03 1007.01,-281.21 1039,-244 1081.69,-194.35 1049.88,-104.79 1037.99,-76.1"/>
<polygon fill="#63b8ff" stroke="#63b8ff" points="786.86,-285.53 776.89,-289.13 786.93,-292.53 786.86,-285.53"/>
</a>
</g>
</g>
<!-- Node30 -->
<g id="Node000030" class="node">
<title>Node30</title>
<g id="a_Node000030"><a xlink:href="adc_8h.html" target="_top" xlink:title=" ">
<polygon fill="white" stroke="#666666" points="868,-244 828,-244 828,-224 868,-224 868,-244"/>
<text text-anchor="middle" x="848" y="-230.5" font-family="Helvetica,sans-Serif" font-size="10.00">adc.h</text>
</a>
</g>
</g>
<!-- Node29&#45;&gt;Node30 -->
<g id="edge39_Node000029_Node000030" class="edge">
<title>Node29&#45;&gt;Node30</title>
<g id="a_edge39_Node000029_Node000030"><a xlink:title=" ">
<path fill="none" stroke="#63b8ff" d="M770.5,-274.48C789.2,-264.96 813.11,-252.78 829.39,-244.48"/>
<polygon fill="#63b8ff" stroke="#63b8ff" points="769.13,-271.25 761.81,-278.91 772.31,-277.49 769.13,-271.25"/>
</a>
</g>
</g>
<!-- Node31 -->
<g id="Node000031" class="node">
<title>Node31</title>
<g id="a_Node000031"><a xlink:href="directory_8h.html" target="_top" xlink:title=" ">
<polygon fill="white" stroke="#666666" points="947.88,-244 886.12,-244 886.12,-224 947.88,-224 947.88,-244"/>
<text text-anchor="middle" x="917" y="-230.5" font-family="Helvetica,sans-Serif" font-size="10.00">directory.h</text>
</a>
</g>
</g>
<!-- Node29&#45;&gt;Node31 -->
<g id="edge40_Node000029_Node000031" class="edge">
<title>Node29&#45;&gt;Node31</title>
<g id="a_edge40_Node000029_Node000031"><a xlink:title=" ">
<path fill="none" stroke="#63b8ff" d="M783.14,-276.31C814.73,-266.56 857.64,-253.32 886.28,-244.48"/>
<polygon fill="#63b8ff" stroke="#63b8ff" points="782.45,-272.85 773.93,-279.15 784.52,-279.54 782.45,-272.85"/>
</a>
</g>
</g>
<!-- Node32 -->
<g id="Node000032" class="node">
<title>Node32</title>
<g id="a_Node000032"><a xlink:href="null_8h.html" target="_top" xlink:title=" ">
<polygon fill="white" stroke="#666666" points="809.62,-244 770.38,-244 770.38,-224 809.62,-224 809.62,-244"/>
<text text-anchor="middle" x="790" y="-230.5" font-family="Helvetica,sans-Serif" font-size="10.00">null.h</text>
</a>
</g>
</g>
<!-- Node29&#45;&gt;Node32 -->
<g id="edge42_Node000029_Node000032" class="edge">
<title>Node29&#45;&gt;Node32</title>
<g id="a_edge42_Node000029_Node000032"><a xlink:title=" ">
<path fill="none" stroke="#63b8ff" d="M758,-271C765.95,-262.06 775.22,-251.62 781.73,-244.3"/>
<polygon fill="#63b8ff" stroke="#63b8ff" points="755.39,-268.66 751.37,-278.46 760.63,-273.31 755.39,-268.66"/>
</a>
</g>
</g>
<!-- Node34 -->
<g id="Node000034" class="node">
<title>Node34</title>
<g id="a_Node000034"><a xlink:href="vfs__inode_8h.html" target="_top" xlink:title=" ">
<polygon fill="white" stroke="#666666" points="1030,-244 966,-244 966,-224 1030,-224 1030,-244"/>
<text text-anchor="middle" x="998" y="-230.5" font-family="Helvetica,sans-Serif" font-size="10.00">vfs_inode.h</text>
</a>
</g>
</g>
<!-- Node29&#45;&gt;Node34 -->
<g id="edge53_Node000029_Node000034" class="edge">
<title>Node29&#45;&gt;Node34</title>
<g id="a_edge53_Node000029_Node000034"><a xlink:title=" ">
<path fill="none" stroke="#63b8ff" d="M786.59,-279.8C830.09,-270.79 898.13,-256.62 957,-244 959.85,-243.39 962.81,-242.75 965.78,-242.1"/>
<polygon fill="#63b8ff" stroke="#63b8ff" points="786.1,-276.33 777.02,-281.78 787.52,-283.18 786.1,-276.33"/>
</a>
</g>
</g>
<!-- Node33 -->
<g id="Node000033" class="node">
<title>Node33</title>
<g id="a_Node000033"><a xlink:href="vfs__dentry_8h.html" target="_top" xlink:title=" ">
<polygon fill="white" stroke="#666666" points="931.88,-188 864.12,-188 864.12,-168 931.88,-168 931.88,-188"/>
<text text-anchor="middle" x="898" y="-174.5" font-family="Helvetica,sans-Serif" font-size="10.00">vfs_dentry.h</text>
</a>
</g>
</g>
<!-- Node32&#45;&gt;Node33 -->
<g id="edge43_Node000032_Node000033" class="edge">
<title>Node32&#45;&gt;Node33</title>
<g id="a_edge43_Node000032_Node000033"><a xlink:title=" ">
<path fill="none" stroke="#63b8ff" d="M819.04,-218.48C838.09,-208.96 862.45,-196.78 879.04,-188.48"/>
<polygon fill="#63b8ff" stroke="#63b8ff" points="817.54,-215.31 810.17,-222.92 820.68,-221.58 817.54,-215.31"/>
</a>
</g>
</g>
<!-- Node33&#45;&gt;Node24 -->
<g id="edge44_Node000033_Node000024" class="edge">
<title>Node33&#45;&gt;Node24</title>
<g id="a_edge44_Node000033_Node000024"><a xlink:title=" ">
<path fill="none" stroke="#63b8ff" d="M906.76,-157.29C910.55,-148.75 914.82,-139.16 917.87,-132.3"/>
<polygon fill="#63b8ff" stroke="#63b8ff" points="903.66,-155.65 902.8,-166.21 910.05,-158.49 903.66,-155.65"/>
</a>
</g>
</g>
<!-- Node34&#45;&gt;Node33 -->
<g id="edge54_Node000034_Node000033" class="edge">
<title>Node34&#45;&gt;Node33</title>
<g id="a_edge54_Node000034_Node000033"><a xlink:title=" ">
<path fill="none" stroke="#63b8ff" d="M970.87,-218.35C953.26,-208.84 930.85,-196.74 915.55,-188.48"/>
<polygon fill="#63b8ff" stroke="#63b8ff" points="968.79,-221.2 979.25,-222.87 972.11,-215.04 968.79,-221.2"/>
</a>
</g>
</g>
<!-- Node37 -->
<g id="Node000037" class="node">
<title>Node37</title>
<g id="a_Node000037"><a xlink:href="vm__function__index_8h.html" target="_top" xlink:title=" ">
<polygon fill="white" stroke="#666666" points="1748.88,-244 1645.12,-244 1645.12,-224 1748.88,-224 1748.88,-244"/>
<text text-anchor="middle" x="1697" y="-230.5" font-family="Helvetica,sans-Serif" font-size="10.00">vm_function_index.h</text>
</a>
</g>
</g>
<!-- Node36&#45;&gt;Node37 -->
<g id="edge60_Node000036_Node000037" class="edge">
<title>Node36&#45;&gt;Node37</title>
<g id="a_edge60_Node000036_Node000037"><a xlink:title=" ">
<path fill="none" stroke="#63b8ff" d="M1692.67,-268.43C1693.75,-260.11 1694.93,-250.93 1695.79,-244.3"/>
<polygon fill="#63b8ff" stroke="#63b8ff" points="1689.23,-267.73 1691.41,-278.09 1696.17,-268.63 1689.23,-267.73"/>
</a>
</g>
</g>
<!-- Node37&#45;&gt;Node35 -->
<g id="edge61_Node000037_Node000035" class="edge">
<title>Node37&#45;&gt;Node35</title>
<g id="a_edge61_Node000037_Node000035"><a xlink:title=" ">
<path fill="none" stroke="#63b8ff" d="M1684.43,-214.15C1678.6,-205.4 1671.93,-195.39 1667.2,-188.3"/>
<polygon fill="#63b8ff" stroke="#63b8ff" points="1681.43,-215.96 1689.89,-222.33 1687.25,-212.07 1681.43,-215.96"/>
</a>
</g>
</g>
</g>
</svg>
