<?xml version="1.0" encoding="UTF-8" standalone="no"?>
<!DOCTYPE svg PUBLIC "-//W3C//DTD SVG 1.1//EN"
 "http://www.w3.org/Graphics/SVG/1.1/DTD/svg11.dtd">
<!-- Generated by graphviz version 10.0.1 (20240210.2158)
 -->
<!-- Title: event_index.h Pages: 1 -->
<svg width="442pt" height="252pt"
 viewBox="0.00 0.00 442.25 252.00" xmlns="http://www.w3.org/2000/svg" xmlns:xlink="http://www.w3.org/1999/xlink">
<g id="graph0" class="graph" transform="scale(1 1) rotate(0) translate(4 248)">
<title>event_index.h</title>
<!-- Node1 -->
<g id="Node000001" class="node">
<title>Node1</title>
<g id="a_Node000001"><a xlink:title=" ">
<polygon fill="#999999" stroke="#666666" points="262,-244 186.75,-244 186.75,-224 262,-224 262,-244"/>
<text text-anchor="middle" x="224.38" y="-230.5" font-family="Helvetica,sans-Serif" font-size="10.00">event_index.h</text>
</a>
</g>
</g>
<!-- Node2 -->
<g id="Node000002" class="node">
<title>Node2</title>
<g id="a_Node000002"><a xlink:href="types_8h.html" target="_top" xlink:title=" ">
<polygon fill="white" stroke="#666666" points="296.88,-76 223.88,-76 223.88,-56 296.88,-56 296.88,-76"/>
<text text-anchor="middle" x="260.38" y="-62.5" font-family="Helvetica,sans-Serif" font-size="10.00">zrtos/types.h</text>
</a>
</g>
</g>
<!-- Node1&#45;&gt;Node2 -->
<g id="edge1_Node000001_Node000002" class="edge">
<title>Node1&#45;&gt;Node2</title>
<g id="a_edge1_Node000001_Node000002"><a xlink:title=" ">
<path fill="none" stroke="#63b8ff" d="M262.49,-227.86C287.05,-222.38 317.31,-211.11 333.38,-188 352.66,-160.26 352.02,-141.4 335.38,-112 327.62,-98.31 313.87,-88.33 300.23,-81.3"/>
<polygon fill="#63b8ff" stroke="#63b8ff" points="301.84,-78.19 291.3,-77.13 298.88,-84.53 301.84,-78.19"/>
</a>
</g>
</g>
<!-- Node9 -->
<g id="Node000009" class="node">
<title>Node9</title>
<g id="a_Node000009"><a xlink:href="progmem_8h.html" target="_top" xlink:title=" ">
<polygon fill="white" stroke="#666666" points="123.12,-188 33.62,-188 33.62,-168 123.12,-168 123.12,-188"/>
<text text-anchor="middle" x="78.38" y="-174.5" font-family="Helvetica,sans-Serif" font-size="10.00">zrtos/progmem.h</text>
</a>
</g>
</g>
<!-- Node1&#45;&gt;Node9 -->
<g id="edge8_Node000001_Node000009" class="edge">
<title>Node1&#45;&gt;Node9</title>
<g id="a_edge8_Node000001_Node000009"><a xlink:title=" ">
<path fill="none" stroke="#63b8ff" d="M198.94,-223.59C175.64,-214.97 140.88,-202.12 114.66,-192.42"/>
<polygon fill="#63b8ff" stroke="#63b8ff" points="116.02,-189.19 105.42,-189 113.59,-195.76 116.02,-189.19"/>
</a>
</g>
</g>
<!-- Node11 -->
<g id="Node000011" class="node">
<title>Node11</title>
<g id="a_Node000011"><a xlink:href="event__type_8h.html" target="_top" xlink:title=" ">
<polygon fill="white" stroke="#666666" points="311.12,-132 215.62,-132 215.62,-112 311.12,-112 311.12,-132"/>
<text text-anchor="middle" x="263.38" y="-118.5" font-family="Helvetica,sans-Serif" font-size="10.00">zrtos/event_type.h</text>
</a>
</g>
</g>
<!-- Node1&#45;&gt;Node11 -->
<g id="edge12_Node000001_Node000011" class="edge">
<title>Node1&#45;&gt;Node11</title>
<g id="a_edge12_Node000001_Node000011"><a xlink:title=" ">
<path fill="none" stroke="#63b8ff" d="M226.7,-223.62C229.94,-210.87 236.25,-187.43 243.38,-168 246.5,-159.48 250.47,-150.29 254.05,-142.45"/>
<polygon fill="#63b8ff" stroke="#63b8ff" points="257.15,-144.07 258.23,-133.53 250.82,-141.1 257.15,-144.07"/>
</a>
</g>
</g>
<!-- Node12 -->
<g id="Node000012" class="node">
<title>Node12</title>
<g id="a_Node000012"><a xlink:href="event__handler_8h.html" target="_top" xlink:title=" ">
<polygon fill="white" stroke="#666666" points="197.5,-132 89.25,-132 89.25,-112 197.5,-112 197.5,-132"/>
<text text-anchor="middle" x="143.38" y="-118.5" font-family="Helvetica,sans-Serif" font-size="10.00">zrtos/event_handler.h</text>
</a>
</g>
</g>
<!-- Node1&#45;&gt;Node12 -->
<g id="edge14_Node000001_Node000012" class="edge">
<title>Node1&#45;&gt;Node12</title>
<g id="a_edge14_Node000001_Node000012"><a xlink:title=" ">
<path fill="none" stroke="#63b8ff" d="M217.47,-223.62C204.08,-205.44 174.37,-165.09 156.91,-141.38"/>
<polygon fill="#63b8ff" stroke="#63b8ff" points="159.91,-139.55 151.16,-133.57 154.27,-143.7 159.91,-139.55"/>
</a>
</g>
</g>
<!-- Node13 -->
<g id="Node000013" class="node">
<title>Node13</title>
<g id="a_Node000013"><a xlink:href="event_8h.html" target="_top" xlink:title=" ">
<polygon fill="white" stroke="#666666" points="324.12,-188 252.62,-188 252.62,-168 324.12,-168 324.12,-188"/>
<text text-anchor="middle" x="288.38" y="-174.5" font-family="Helvetica,sans-Serif" font-size="10.00">zrtos/event.h</text>
</a>
</g>
</g>
<!-- Node1&#45;&gt;Node13 -->
<g id="edge16_Node000001_Node000013" class="edge">
<title>Node1&#45;&gt;Node13</title>
<g id="a_edge16_Node000001_Node000013"><a xlink:title=" ">
<path fill="none" stroke="#63b8ff" d="M235.52,-223.59C244.7,-215.85 257.93,-204.69 268.86,-195.47"/>
<polygon fill="#63b8ff" stroke="#63b8ff" points="270.81,-198.4 276.2,-189.27 266.3,-193.05 270.81,-198.4"/>
</a>
</g>
</g>
<!-- Node3 -->
<g id="Node000003" class="node">
<title>Node3</title>
<g id="a_Node000003"><a xlink:title=" ">
<polygon fill="#e0e0e0" stroke="#999999" points="434.25,-20 378.5,-20 378.5,0 434.25,0 434.25,-20"/>
<text text-anchor="middle" x="406.38" y="-6.5" font-family="Helvetica,sans-Serif" font-size="10.00">stdbool.h</text>
</a>
</g>
</g>
<!-- Node2&#45;&gt;Node3 -->
<g id="edge2_Node000002_Node000003" class="edge">
<title>Node2&#45;&gt;Node3</title>
<g id="a_edge2_Node000002_Node000003"><a xlink:title=" ">
<path fill="none" stroke="#63b8ff" d="M285.81,-55.59C309.11,-46.97 343.87,-34.12 370.09,-24.42"/>
<polygon fill="#63b8ff" stroke="#63b8ff" points="371.16,-27.76 379.33,-21 368.73,-21.19 371.16,-27.76"/>
</a>
</g>
</g>
<!-- Node4 -->
<g id="Node000004" class="node">
<title>Node4</title>
<g id="a_Node000004"><a xlink:title=" ">
<polygon fill="#e0e0e0" stroke="#999999" points="152.62,-20 102.12,-20 102.12,0 152.62,0 152.62,-20"/>
<text text-anchor="middle" x="127.38" y="-6.5" font-family="Helvetica,sans-Serif" font-size="10.00">stddef.h</text>
</a>
</g>
</g>
<!-- Node2&#45;&gt;Node4 -->
<g id="edge3_Node000002_Node000004" class="edge">
<title>Node2&#45;&gt;Node4</title>
<g id="a_edge3_Node000002_Node000004"><a xlink:title=" ">
<path fill="none" stroke="#63b8ff" d="M237.21,-55.59C216.17,-47.05 184.88,-34.35 161.07,-24.68"/>
<polygon fill="#63b8ff" stroke="#63b8ff" points="162.71,-21.57 152.12,-21.05 160.07,-28.05 162.71,-21.57"/>
</a>
</g>
</g>
<!-- Node5 -->
<g id="Node000005" class="node">
<title>Node5</title>
<g id="a_Node000005"><a xlink:title=" ">
<polygon fill="#e0e0e0" stroke="#999999" points="218.5,-20 170.25,-20 170.25,0 218.5,0 218.5,-20"/>
<text text-anchor="middle" x="194.38" y="-6.5" font-family="Helvetica,sans-Serif" font-size="10.00">stdint.h</text>
</a>
</g>
</g>
<!-- Node2&#45;&gt;Node5 -->
<g id="edge4_Node000002_Node000005" class="edge">
<title>Node2&#45;&gt;Node5</title>
<g id="a_edge4_Node000002_Node000005"><a xlink:title=" ">
<path fill="none" stroke="#63b8ff" d="M248.88,-55.59C239.41,-47.85 225.77,-36.69 214.5,-27.47"/>
<polygon fill="#63b8ff" stroke="#63b8ff" points="216.87,-24.88 206.91,-21.26 212.43,-30.3 216.87,-24.88"/>
</a>
</g>
</g>
<!-- Node6 -->
<g id="Node000006" class="node">
<title>Node6</title>
<g id="a_Node000006"><a xlink:title=" ">
<polygon fill="#e0e0e0" stroke="#999999" points="284.12,-20 236.62,-20 236.62,0 284.12,0 284.12,-20"/>
<text text-anchor="middle" x="260.38" y="-6.5" font-family="Helvetica,sans-Serif" font-size="10.00">limits.h</text>
</a>
</g>
</g>
<!-- Node2&#45;&gt;Node6 -->
<g id="edge5_Node000002_Node000006" class="edge">
<title>Node2&#45;&gt;Node6</title>
<g id="a_edge5_Node000002_Node000006"><a xlink:title=" ">
<path fill="none" stroke="#63b8ff" d="M260.38,-55.59C260.38,-49.01 260.38,-39.96 260.38,-31.73"/>
<polygon fill="#63b8ff" stroke="#63b8ff" points="263.88,-31.81 260.38,-21.81 256.88,-31.81 263.88,-31.81"/>
</a>
</g>
</g>
<!-- Node7 -->
<g id="Node000007" class="node">
<title>Node7</title>
<g id="a_Node000007"><a xlink:title=" ">
<polygon fill="#e0e0e0" stroke="#999999" points="360.38,-20 302.38,-20 302.38,0 360.38,0 360.38,-20"/>
<text text-anchor="middle" x="331.38" y="-6.5" font-family="Helvetica,sans-Serif" font-size="10.00">stdalign.h</text>
</a>
</g>
</g>
<!-- Node2&#45;&gt;Node7 -->
<g id="edge6_Node000002_Node000007" class="edge">
<title>Node2&#45;&gt;Node7</title>
<g id="a_edge6_Node000002_Node000007"><a xlink:title=" ">
<path fill="none" stroke="#63b8ff" d="M272.74,-55.59C283.02,-47.77 297.89,-36.46 310.09,-27.19"/>
<polygon fill="#63b8ff" stroke="#63b8ff" points="312.1,-30.05 317.94,-21.21 307.87,-24.48 312.1,-30.05"/>
</a>
</g>
</g>
<!-- Node8 -->
<g id="Node000008" class="node">
<title>Node8</title>
<g id="a_Node000008"><a xlink:href="cast_8h.html" target="_top" xlink:title=" ">
<polygon fill="white" stroke="#666666" points="82.25,-20 14.5,-20 14.5,0 82.25,0 82.25,-20"/>
<text text-anchor="middle" x="48.38" y="-6.5" font-family="Helvetica,sans-Serif" font-size="10.00">zrtos/cast.h</text>
</a>
</g>
</g>
<!-- Node2&#45;&gt;Node8 -->
<g id="edge7_Node000002_Node000008" class="edge">
<title>Node2&#45;&gt;Node8</title>
<g id="a_edge7_Node000002_Node000008"><a xlink:title=" ">
<path fill="none" stroke="#63b8ff" d="M223.45,-55.59C187.28,-46.38 132.1,-32.33 93.38,-22.46"/>
<polygon fill="#63b8ff" stroke="#63b8ff" points="94.45,-19.12 83.9,-20.05 92.72,-25.91 94.45,-19.12"/>
</a>
</g>
</g>
<!-- Node10 -->
<g id="Node000010" class="node">
<title>Node10</title>
<g id="a_Node000010"><a xlink:href="mem_8h.html" target="_top" xlink:title=" ">
<polygon fill="white" stroke="#666666" points="70.75,-132 0,-132 0,-112 70.75,-112 70.75,-132"/>
<text text-anchor="middle" x="35.38" y="-118.5" font-family="Helvetica,sans-Serif" font-size="10.00">zrtos/mem.h</text>
</a>
</g>
</g>
<!-- Node9&#45;&gt;Node10 -->
<g id="edge9_Node000009_Node000010" class="edge">
<title>Node9&#45;&gt;Node10</title>
<g id="a_edge9_Node000009_Node000010"><a xlink:title=" ">
<path fill="none" stroke="#63b8ff" d="M70.88,-167.59C65.09,-160.32 56.89,-150.02 49.83,-141.15"/>
<polygon fill="#63b8ff" stroke="#63b8ff" points="52.69,-139.12 43.72,-133.48 47.21,-143.49 52.69,-139.12"/>
</a>
</g>
</g>
<!-- Node10&#45;&gt;Node2 -->
<g id="edge10_Node000010_Node000002" class="edge">
<title>Node10&#45;&gt;Node2</title>
<g id="a_edge10_Node000010_Node000002"><a xlink:title=" ">
<path fill="none" stroke="#63b8ff" d="M71.03,-112.44C109.17,-103.29 169.87,-88.72 212.24,-78.55"/>
<polygon fill="#63b8ff" stroke="#63b8ff" points="213.02,-81.97 221.92,-76.23 211.38,-75.16 213.02,-81.97"/>
</a>
</g>
</g>
<!-- Node10&#45;&gt;Node8 -->
<g id="edge11_Node000010_Node000008" class="edge">
<title>Node10&#45;&gt;Node8</title>
<g id="a_edge11_Node000010_Node000008"><a xlink:title=" ">
<path fill="none" stroke="#63b8ff" d="M36.48,-111.62C38.57,-94.01 43.1,-55.59 45.93,-31.65"/>
<polygon fill="#63b8ff" stroke="#63b8ff" points="49.39,-32.2 47.09,-21.86 42.44,-31.38 49.39,-32.2"/>
</a>
</g>
</g>
<!-- Node11&#45;&gt;Node2 -->
<g id="edge13_Node000011_Node000002" class="edge">
<title>Node11&#45;&gt;Node2</title>
<g id="a_edge13_Node000011_Node000002"><a xlink:title=" ">
<path fill="none" stroke="#63b8ff" d="M262.85,-111.59C262.49,-105.01 261.98,-95.96 261.53,-87.73"/>
<polygon fill="#63b8ff" stroke="#63b8ff" points="265.02,-87.6 260.98,-77.81 258.04,-87.99 265.02,-87.6"/>
</a>
</g>
</g>
<!-- Node12&#45;&gt;Node2 -->
<g id="edge15_Node000012_Node000002" class="edge">
<title>Node12&#45;&gt;Node2</title>
<g id="a_edge15_Node000012_Node000002"><a xlink:title=" ">
<path fill="none" stroke="#63b8ff" d="M163.75,-111.59C181.93,-103.21 208.8,-90.8 229.59,-81.21"/>
<polygon fill="#63b8ff" stroke="#63b8ff" points="230.85,-84.48 238.46,-77.11 227.92,-78.13 230.85,-84.48"/>
</a>
</g>
</g>
<!-- Node13&#45;&gt;Node2 -->
<g id="edge17_Node000013_Node000002" class="edge">
<title>Node13&#45;&gt;Node2</title>
<g id="a_edge17_Node000013_Node000002"><a xlink:title=" ">
<path fill="none" stroke="#63b8ff" d="M298.7,-167.73C311.44,-155.1 330.28,-131.8 320.38,-112 314.11,-99.48 302.53,-89.54 291.2,-82.22"/>
<polygon fill="#63b8ff" stroke="#63b8ff" points="293.14,-79.3 282.75,-77.23 289.58,-85.33 293.14,-79.3"/>
</a>
</g>
</g>
<!-- Node13&#45;&gt;Node11 -->
<g id="edge18_Node000013_Node000011" class="edge">
<title>Node13&#45;&gt;Node11</title>
<g id="a_edge18_Node000013_Node000011"><a xlink:title=" ">
<path fill="none" stroke="#63b8ff" d="M284.02,-167.59C280.83,-160.7 276.39,-151.1 272.44,-142.57"/>
<polygon fill="#63b8ff" stroke="#63b8ff" points="275.69,-141.28 268.32,-133.67 269.34,-144.22 275.69,-141.28"/>
</a>
</g>
</g>
</g>
</svg>
