<?xml version="1.0" encoding="UTF-8" standalone="no"?>
<!DOCTYPE svg PUBLIC "-//W3C//DTD SVG 1.1//EN"
 "http://www.w3.org/Graphics/SVG/1.1/DTD/svg11.dtd">
<!-- Generated by graphviz version 10.0.1 (20240210.2158)
 -->
<!-- Title: event_type.h Pages: 1 -->
<svg width="94pt" height="140pt"
 viewBox="0.00 0.00 94.00 140.00" xmlns="http://www.w3.org/2000/svg" xmlns:xlink="http://www.w3.org/1999/xlink">
<g id="graph0" class="graph" transform="scale(1 1) rotate(0) translate(4 136)">
<title>event_type.h</title>
<!-- Node1 -->
<g id="Node000001" class="node">
<title>Node1</title>
<g id="a_Node000001"><a xlink:title=" ">
<polygon fill="#999999" stroke="#666666" points="83.75,-132 13,-132 13,-112 83.75,-112 83.75,-132"/>
<text text-anchor="middle" x="48.38" y="-118.5" font-family="Helvetica,sans-Serif" font-size="10.00">event_type.h</text>
</a>
</g>
</g>
<!-- Node2 -->
<g id="Node000002" class="node">
<title>Node2</title>
<g id="a_Node000002"><a xlink:href="event_8h.html" target="_top" xlink:title=" ">
<polygon fill="white" stroke="#666666" points="46.75,-76 0,-76 0,-56 46.75,-56 46.75,-76"/>
<text text-anchor="middle" x="23.38" y="-62.5" font-family="Helvetica,sans-Serif" font-size="10.00">event.h</text>
</a>
</g>
</g>
<!-- Node1&#45;&gt;Node2 -->
<g id="edge1_Node000001_Node000002" class="edge">
<title>Node1&#45;&gt;Node2</title>
<g id="a_edge1_Node000001_Node000002"><a xlink:title=" ">
<path fill="none" stroke="#63b8ff" d="M39.25,-101.29C35.3,-92.75 30.86,-83.16 27.68,-76.3"/>
<polygon fill="#63b8ff" stroke="#63b8ff" points="36.01,-102.62 43.38,-110.22 42.36,-99.68 36.01,-102.62"/>
</a>
</g>
</g>
<!-- Node3 -->
<g id="Node000003" class="node">
<title>Node3</title>
<g id="a_Node000003"><a xlink:href="event__index_8h.html" target="_top" xlink:title=" ">
<polygon fill="white" stroke="#666666" points="86,-20 10.75,-20 10.75,0 86,0 86,-20"/>
<text text-anchor="middle" x="48.38" y="-6.5" font-family="Helvetica,sans-Serif" font-size="10.00">event_index.h</text>
</a>
</g>
</g>
<!-- Node1&#45;&gt;Node3 -->
<g id="edge3_Node000001_Node000003" class="edge">
<title>Node1&#45;&gt;Node3</title>
<g id="a_edge3_Node000001_Node000003"><a xlink:title=" ">
<path fill="none" stroke="#63b8ff" d="M52.24,-100.57C53.5,-92.9 54.75,-84.08 55.38,-76 56.91,-56.08 53.03,-32.83 50.45,-20.24"/>
<polygon fill="#63b8ff" stroke="#63b8ff" points="48.82,-99.79 50.51,-110.25 55.71,-101.02 48.82,-99.79"/>
</a>
</g>
</g>
<!-- Node2&#45;&gt;Node3 -->
<g id="edge2_Node000002_Node000003" class="edge">
<title>Node2&#45;&gt;Node3</title>
<g id="a_edge2_Node000002_Node000003"><a xlink:title=" ">
<path fill="none" stroke="#63b8ff" d="M32.5,-45.29C36.45,-36.75 40.89,-27.16 44.07,-20.3"/>
<polygon fill="#63b8ff" stroke="#63b8ff" points="29.39,-43.68 28.37,-54.22 35.74,-46.62 29.39,-43.68"/>
</a>
</g>
</g>
</g>
</svg>
