<?xml version="1.0" encoding="UTF-8" standalone="no"?>
<!DOCTYPE svg PUBLIC "-//W3C//DTD SVG 1.1//EN"
 "http://www.w3.org/Graphics/SVG/1.1/DTD/svg11.dtd">
<!-- Generated by graphviz version 10.0.1 (20240210.2158)
 -->
<!-- Title: event_index.h Pages: 1 -->
<svg width="353pt" height="252pt"
 viewBox="0.00 0.00 352.92 252.00" xmlns="http://www.w3.org/2000/svg" xmlns:xlink="http://www.w3.org/1999/xlink">
<g id="graph0" class="graph" transform="scale(1 1) rotate(0) translate(4 248)">
<title>event_index.h</title>
<!-- Node1 -->
<g id="Node000001" class="node">
<title>Node1</title>
<g id="a_Node000001"><a xlink:title=" ">
<polygon fill="#999999" stroke="#666666" points="201.06,-244 125.81,-244 125.81,-224 201.06,-224 201.06,-244"/>
<text text-anchor="middle" x="163.43" y="-230.5" font-family="Helvetica,sans-Serif" font-size="10.00">event_index.h</text>
</a>
</g>
</g>
<!-- Node2 -->
<g id="Node000002" class="node">
<title>Node2</title>
<g id="a_Node000002"><a xlink:href="types_8h.html" target="_top" xlink:title=" ">
<polygon fill="white" stroke="#666666" points="199.93,-76 126.93,-76 126.93,-56 199.93,-56 199.93,-76"/>
<text text-anchor="middle" x="163.43" y="-62.5" font-family="Helvetica,sans-Serif" font-size="10.00">zrtos/types.h</text>
</a>
</g>
</g>
<!-- Node1&#45;&gt;Node2 -->
<g id="edge1_Node000001_Node000002" class="edge">
<title>Node1&#45;&gt;Node2</title>
<g id="a_edge1_Node000001_Node000002"><a xlink:title=" ">
<path fill="none" stroke="#63b8ff" d="M125.54,-230.74C94.05,-226.8 50.34,-216.21 24.43,-188 1.25,-162.76 -9.07,-139.46 11.43,-112 35.11,-80.3 80.12,-70.01 115.04,-67.09"/>
<polygon fill="#63b8ff" stroke="#63b8ff" points="115.19,-70.58 124.94,-66.45 114.74,-63.6 115.19,-70.58"/>
</a>
</g>
</g>
<!-- Node7 -->
<g id="Node000007" class="node">
<title>Node7</title>
<g id="a_Node000007"><a xlink:href="progmem_8h.html" target="_top" xlink:title=" ">
<polygon fill="white" stroke="#666666" points="123.18,-188 33.68,-188 33.68,-168 123.18,-168 123.18,-188"/>
<text text-anchor="middle" x="78.43" y="-174.5" font-family="Helvetica,sans-Serif" font-size="10.00">zrtos/progmem.h</text>
</a>
</g>
</g>
<!-- Node1&#45;&gt;Node7 -->
<g id="edge6_Node000001_Node000007" class="edge">
<title>Node1&#45;&gt;Node7</title>
<g id="a_edge6_Node000001_Node000007"><a xlink:title=" ">
<path fill="none" stroke="#63b8ff" d="M148.63,-223.59C136.03,-215.59 117.68,-203.93 102.9,-194.54"/>
<polygon fill="#63b8ff" stroke="#63b8ff" points="104.95,-191.7 94.63,-189.29 101.2,-197.61 104.95,-191.7"/>
</a>
</g>
</g>
<!-- Node9 -->
<g id="Node000009" class="node">
<title>Node9</title>
<g id="a_Node000009"><a xlink:href="event__type_8h.html" target="_top" xlink:title=" ">
<polygon fill="white" stroke="#666666" points="331.18,-132 235.68,-132 235.68,-112 331.18,-112 331.18,-132"/>
<text text-anchor="middle" x="283.43" y="-118.5" font-family="Helvetica,sans-Serif" font-size="10.00">zrtos/event_type.h</text>
</a>
</g>
</g>
<!-- Node1&#45;&gt;Node9 -->
<g id="edge9_Node000001_Node000009" class="edge">
<title>Node1&#45;&gt;Node9</title>
<g id="a_edge9_Node000001_Node000009"><a xlink:title=" ">
<path fill="none" stroke="#63b8ff" d="M173.66,-223.62C193.86,-205.11 239.09,-163.65 264.74,-140.13"/>
<polygon fill="#63b8ff" stroke="#63b8ff" points="267.11,-142.71 272.11,-133.38 262.38,-137.55 267.11,-142.71"/>
</a>
</g>
</g>
<!-- Node10 -->
<g id="Node000010" class="node">
<title>Node10</title>
<g id="a_Node000010"><a xlink:href="event__handler_8h.html" target="_top" xlink:title=" ">
<polygon fill="white" stroke="#666666" points="217.56,-132 109.31,-132 109.31,-112 217.56,-112 217.56,-132"/>
<text text-anchor="middle" x="163.43" y="-118.5" font-family="Helvetica,sans-Serif" font-size="10.00">zrtos/event_handler.h</text>
</a>
</g>
</g>
<!-- Node1&#45;&gt;Node10 -->
<g id="edge11_Node000001_Node000010" class="edge">
<title>Node1&#45;&gt;Node10</title>
<g id="a_edge11_Node000001_Node000010"><a xlink:title=" ">
<path fill="none" stroke="#63b8ff" d="M163.43,-223.62C163.43,-206.01 163.43,-167.59 163.43,-143.65"/>
<polygon fill="#63b8ff" stroke="#63b8ff" points="166.93,-143.87 163.43,-133.87 159.93,-143.87 166.93,-143.87"/>
</a>
</g>
</g>
<!-- Node11 -->
<g id="Node000011" class="node">
<title>Node11</title>
<g id="a_Node000011"><a xlink:href="event_8h.html" target="_top" xlink:title=" ">
<polygon fill="white" stroke="#666666" points="319.18,-188 247.68,-188 247.68,-168 319.18,-168 319.18,-188"/>
<text text-anchor="middle" x="283.43" y="-174.5" font-family="Helvetica,sans-Serif" font-size="10.00">zrtos/event.h</text>
</a>
</g>
</g>
<!-- Node1&#45;&gt;Node11 -->
<g id="edge13_Node000001_Node000011" class="edge">
<title>Node1&#45;&gt;Node11</title>
<g id="a_edge13_Node000001_Node000011"><a xlink:title=" ">
<path fill="none" stroke="#63b8ff" d="M184.34,-223.59C203.06,-215.17 230.79,-202.69 252.16,-193.07"/>
<polygon fill="#63b8ff" stroke="#63b8ff" points="253.3,-196.4 260.99,-189.1 250.43,-190.01 253.3,-196.4"/>
</a>
</g>
</g>
<!-- Node3 -->
<g id="Node000003" class="node">
<title>Node3</title>
<g id="a_Node000003"><a xlink:title=" ">
<polygon fill="#e0e0e0" stroke="#999999" points="87.31,-20 31.56,-20 31.56,0 87.31,0 87.31,-20"/>
<text text-anchor="middle" x="59.43" y="-6.5" font-family="Helvetica,sans-Serif" font-size="10.00">stdbool.h</text>
</a>
</g>
</g>
<!-- Node2&#45;&gt;Node3 -->
<g id="edge2_Node000002_Node000003" class="edge">
<title>Node2&#45;&gt;Node3</title>
<g id="a_edge2_Node000002_Node000003"><a xlink:title=" ">
<path fill="none" stroke="#63b8ff" d="M145.32,-55.59C129.46,-47.36 106.15,-35.26 87.82,-25.74"/>
<polygon fill="#63b8ff" stroke="#63b8ff" points="89.52,-22.68 79.03,-21.18 86.29,-28.89 89.52,-22.68"/>
</a>
</g>
</g>
<!-- Node4 -->
<g id="Node000004" class="node">
<title>Node4</title>
<g id="a_Node000004"><a xlink:title=" ">
<polygon fill="#e0e0e0" stroke="#999999" points="155.68,-20 105.18,-20 105.18,0 155.68,0 155.68,-20"/>
<text text-anchor="middle" x="130.43" y="-6.5" font-family="Helvetica,sans-Serif" font-size="10.00">stddef.h</text>
</a>
</g>
</g>
<!-- Node2&#45;&gt;Node4 -->
<g id="edge3_Node000002_Node000004" class="edge">
<title>Node2&#45;&gt;Node4</title>
<g id="a_edge3_Node000002_Node000004"><a xlink:title=" ">
<path fill="none" stroke="#63b8ff" d="M157.68,-55.59C153.38,-48.55 147.34,-38.67 142.04,-30"/>
<polygon fill="#63b8ff" stroke="#63b8ff" points="145.11,-28.3 136.9,-21.59 139.13,-31.95 145.11,-28.3"/>
</a>
</g>
</g>
<!-- Node5 -->
<g id="Node000005" class="node">
<title>Node5</title>
<g id="a_Node000005"><a xlink:title=" ">
<polygon fill="#e0e0e0" stroke="#999999" points="221.56,-20 173.31,-20 173.31,0 221.56,0 221.56,-20"/>
<text text-anchor="middle" x="197.43" y="-6.5" font-family="Helvetica,sans-Serif" font-size="10.00">stdint.h</text>
</a>
</g>
</g>
<!-- Node2&#45;&gt;Node5 -->
<g id="edge4_Node000002_Node000005" class="edge">
<title>Node2&#45;&gt;Node5</title>
<g id="a_edge4_Node000002_Node000005"><a xlink:title=" ">
<path fill="none" stroke="#63b8ff" d="M169.36,-55.59C173.79,-48.55 180.01,-38.67 185.47,-30"/>
<polygon fill="#63b8ff" stroke="#63b8ff" points="188.41,-31.91 190.77,-21.58 182.48,-28.18 188.41,-31.91"/>
</a>
</g>
</g>
<!-- Node6 -->
<g id="Node000006" class="node">
<title>Node6</title>
<g id="a_Node000006"><a xlink:title=" ">
<polygon fill="#e0e0e0" stroke="#999999" points="287.18,-20 239.68,-20 239.68,0 287.18,0 287.18,-20"/>
<text text-anchor="middle" x="263.43" y="-6.5" font-family="Helvetica,sans-Serif" font-size="10.00">limits.h</text>
</a>
</g>
</g>
<!-- Node2&#45;&gt;Node6 -->
<g id="edge5_Node000002_Node000006" class="edge">
<title>Node2&#45;&gt;Node6</title>
<g id="a_edge5_Node000002_Node000006"><a xlink:title=" ">
<path fill="none" stroke="#63b8ff" d="M180.85,-55.59C196.1,-47.36 218.51,-35.26 236.14,-25.74"/>
<polygon fill="#63b8ff" stroke="#63b8ff" points="237.41,-29.03 244.55,-21.2 234.08,-22.87 237.41,-29.03"/>
</a>
</g>
</g>
<!-- Node8 -->
<g id="Node000008" class="node">
<title>Node8</title>
<g id="a_Node000008"><a xlink:href="mem_8h.html" target="_top" xlink:title=" ">
<polygon fill="white" stroke="#666666" points="90.81,-132 20.06,-132 20.06,-112 90.81,-112 90.81,-132"/>
<text text-anchor="middle" x="55.43" y="-118.5" font-family="Helvetica,sans-Serif" font-size="10.00">zrtos/mem.h</text>
</a>
</g>
</g>
<!-- Node7&#45;&gt;Node8 -->
<g id="edge7_Node000007_Node000008" class="edge">
<title>Node7&#45;&gt;Node8</title>
<g id="a_edge7_Node000007_Node000008"><a xlink:title=" ">
<path fill="none" stroke="#63b8ff" d="M74.43,-167.59C71.52,-160.78 67.49,-151.32 63.89,-142.86"/>
<polygon fill="#63b8ff" stroke="#63b8ff" points="67.12,-141.52 59.99,-133.69 60.68,-144.26 67.12,-141.52"/>
</a>
</g>
</g>
<!-- Node8&#45;&gt;Node2 -->
<g id="edge8_Node000008_Node000002" class="edge">
<title>Node8&#45;&gt;Node2</title>
<g id="a_edge8_Node000008_Node000002"><a xlink:title=" ">
<path fill="none" stroke="#63b8ff" d="M74.24,-111.59C90.79,-103.32 115.14,-91.14 134.22,-81.6"/>
<polygon fill="#63b8ff" stroke="#63b8ff" points="135.74,-84.76 143.12,-77.16 132.61,-78.5 135.74,-84.76"/>
</a>
</g>
</g>
<!-- Node9&#45;&gt;Node2 -->
<g id="edge10_Node000009_Node000002" class="edge">
<title>Node9&#45;&gt;Node2</title>
<g id="a_edge10_Node000009_Node000002"><a xlink:title=" ">
<path fill="none" stroke="#63b8ff" d="M262.53,-111.59C243.8,-103.17 216.08,-90.69 194.71,-81.07"/>
<polygon fill="#63b8ff" stroke="#63b8ff" points="196.43,-78.01 185.88,-77.1 193.56,-84.4 196.43,-78.01"/>
</a>
</g>
</g>
<!-- Node10&#45;&gt;Node2 -->
<g id="edge12_Node000010_Node000002" class="edge">
<title>Node10&#45;&gt;Node2</title>
<g id="a_edge12_Node000010_Node000002"><a xlink:title=" ">
<path fill="none" stroke="#63b8ff" d="M163.43,-111.59C163.43,-105.01 163.43,-95.96 163.43,-87.73"/>
<polygon fill="#63b8ff" stroke="#63b8ff" points="166.93,-87.81 163.43,-77.81 159.93,-87.81 166.93,-87.81"/>
</a>
</g>
</g>
<!-- Node11&#45;&gt;Node2 -->
<g id="edge14_Node000011_Node000002" class="edge">
<title>Node11&#45;&gt;Node2</title>
<g id="a_edge14_Node000011_Node000002"><a xlink:title=" ">
<path fill="none" stroke="#63b8ff" d="M302.17,-167.61C324.37,-155.24 356.46,-132.62 340.43,-112 324.7,-91.77 258.25,-79.14 211.41,-72.59"/>
<polygon fill="#63b8ff" stroke="#63b8ff" points="212.14,-69.15 201.76,-71.29 211.21,-76.09 212.14,-69.15"/>
</a>
</g>
</g>
<!-- Node11&#45;&gt;Node9 -->
<g id="edge15_Node000011_Node000009" class="edge">
<title>Node11&#45;&gt;Node9</title>
<g id="a_edge15_Node000011_Node000009"><a xlink:title=" ">
<path fill="none" stroke="#63b8ff" d="M283.43,-167.59C283.43,-161.01 283.43,-151.96 283.43,-143.73"/>
<polygon fill="#63b8ff" stroke="#63b8ff" points="286.93,-143.81 283.43,-133.81 279.93,-143.81 286.93,-143.81"/>
</a>
</g>
</g>
</g>
</svg>
