<?xml version="1.0" encoding="UTF-8" standalone="no"?>
<!DOCTYPE svg PUBLIC "-//W3C//DTD SVG 1.1//EN"
 "http://www.w3.org/Graphics/SVG/1.1/DTD/svg11.dtd">
<!-- Generated by graphviz version 2.40.1 (20161225.0304)
 -->
<!-- Title: zrtos_event_index__invoke Pages: 1 -->
<svg width="559pt" height="148pt"
 viewBox="0.00 0.00 559.00 147.50" xmlns="http://www.w3.org/2000/svg" xmlns:xlink="http://www.w3.org/1999/xlink">
<g id="graph0" class="graph" transform="scale(1 1) rotate(0) translate(4 143.5)">
<title>zrtos_event_index__invoke</title>
<polygon fill="#ffffff" stroke="transparent" points="-4,4 -4,-143.5 555,-143.5 555,4 -4,4"/>
<!-- Node0 -->
<g id="node1" class="node">
<title>Node0</title>
<polygon fill="#bfbfbf" stroke="#000000" points="0,-57.5 0,-87.5 101,-87.5 101,-57.5 0,-57.5"/>
<text text-anchor="start" x="8" y="-75.5" font-family="Helvetica,sans-Serif" font-size="10.00" fill="#000000">zrtos_event_index_</text>
<text text-anchor="middle" x="50.5" y="-64.5" font-family="Helvetica,sans-Serif" font-size="10.00" fill="#000000">_invoke</text>
</g>
<!-- Node1 -->
<g id="node2" class="node">
<title>Node1</title>
<g id="a_node2"><a xlink:href="event_8h.html#af1328cd513b60ad2241d6f404b7da06d" target="_top" xlink:title="zrtos_event__init">
<polygon fill="#ffffff" stroke="#000000" points="157,-120 157,-139 248,-139 248,-120 157,-120"/>
<text text-anchor="middle" x="202.5" y="-127" font-family="Helvetica,sans-Serif" font-size="10.00" fill="#000000">zrtos_event__init</text>
</a>
</g>
</g>
<!-- Node0&#45;&gt;Node1 -->
<g id="edge1" class="edge">
<title>Node0&#45;&gt;Node1</title>
<path fill="none" stroke="#191970" d="M82.1338,-87.5938C98.3349,-95.0161 118.4976,-103.7854 137,-110.5 143.3563,-112.8067 150.1363,-115.0299 156.8347,-117.0918"/>
<polygon fill="#191970" stroke="#191970" points="155.9478,-120.4797 166.5312,-119.9886 157.9515,-113.7726 155.9478,-120.4797"/>
</g>
<!-- Node2 -->
<g id="node3" class="node">
<title>Node2</title>
<g id="a_node3"><a xlink:href="event__type_8h.html#aff2d2f65e95c74a81c4a979c79bd7bc9" target="_top" xlink:title="zrtos_event_type__is_any">
<polygon fill="#ffffff" stroke="#000000" points="137,-82 137,-101 268,-101 268,-82 137,-82"/>
<text text-anchor="middle" x="202.5" y="-89" font-family="Helvetica,sans-Serif" font-size="10.00" fill="#000000">zrtos_event_type__is_any</text>
</a>
</g>
</g>
<!-- Node0&#45;&gt;Node2 -->
<g id="edge2" class="edge">
<title>Node0&#45;&gt;Node2</title>
<path fill="none" stroke="#191970" d="M101.1138,-78.8267C109.3694,-79.8587 118.0765,-80.9471 126.7787,-82.0348"/>
<polygon fill="#191970" stroke="#191970" points="126.6078,-85.5406 136.9648,-83.3081 127.4761,-78.5947 126.6078,-85.5406"/>
</g>
<!-- Node3 -->
<g id="node4" class="node">
<title>Node3</title>
<g id="a_node4"><a xlink:href="event__type_8h.html#a0ad028c45084de5a2a2d24c08433159e" target="_top" xlink:title="zrtos_event_type__cmp">
<polygon fill="#ffffff" stroke="#000000" points="142,-44 142,-63 263,-63 263,-44 142,-44"/>
<text text-anchor="middle" x="202.5" y="-51" font-family="Helvetica,sans-Serif" font-size="10.00" fill="#000000">zrtos_event_type__cmp</text>
</a>
</g>
</g>
<!-- Node0&#45;&gt;Node3 -->
<g id="edge3" class="edge">
<title>Node0&#45;&gt;Node3</title>
<path fill="none" stroke="#191970" d="M101.1138,-66.1733C110.8942,-64.9507 121.3083,-63.649 131.5973,-62.3628"/>
<polygon fill="#191970" stroke="#191970" points="132.3278,-65.7989 141.8164,-61.0855 131.4595,-58.8529 132.3278,-65.7989"/>
</g>
<!-- Node4 -->
<g id="node5" class="node">
<title>Node4</title>
<g id="a_node5"><a xlink:href="progmem_8h.html#a7185db18272b8514d094ac443ad989eb" target="_top" xlink:title="zrtos_progmem__cpy">
<polygon fill="#ffffff" stroke="#000000" points="147.5,-6 147.5,-25 257.5,-25 257.5,-6 147.5,-6"/>
<text text-anchor="middle" x="202.5" y="-13" font-family="Helvetica,sans-Serif" font-size="10.00" fill="#000000">zrtos_progmem__cpy</text>
</a>
</g>
</g>
<!-- Node0&#45;&gt;Node4 -->
<g id="edge4" class="edge">
<title>Node0&#45;&gt;Node4</title>
<path fill="none" stroke="#191970" d="M82.1338,-57.4062C98.3349,-49.9839 118.4976,-41.2146 137,-34.5 143.3563,-32.1933 150.1363,-29.9701 156.8347,-27.9082"/>
<polygon fill="#191970" stroke="#191970" points="157.9515,-31.2274 166.5312,-25.0114 155.9478,-24.5203 157.9515,-31.2274"/>
</g>
<!-- Node5 -->
<g id="node6" class="node">
<title>Node5</title>
<g id="a_node6"><a xlink:href="mem_8h.html#ac36c32ce5585de38fd4b77b2a322ac78" target="_top" xlink:title="zrtos_mem__cpy">
<polygon fill="#ffffff" stroke="#000000" points="304,-6 304,-25 396,-25 396,-6 304,-6"/>
<text text-anchor="middle" x="350" y="-13" font-family="Helvetica,sans-Serif" font-size="10.00" fill="#000000">zrtos_mem__cpy</text>
</a>
</g>
</g>
<!-- Node4&#45;&gt;Node5 -->
<g id="edge5" class="edge">
<title>Node4&#45;&gt;Node5</title>
<path fill="none" stroke="#191970" d="M257.8432,-15.5C269.6031,-15.5 282.03,-15.5 293.8207,-15.5"/>
<polygon fill="#191970" stroke="#191970" points="293.9857,-19.0001 303.9857,-15.5 293.9857,-12.0001 293.9857,-19.0001"/>
</g>
<!-- Node6 -->
<g id="node7" class="node">
<title>Node6</title>
<g id="a_node7"><a xlink:href="mem_8h.html#a9054cc3824c6ffdaf4ed24fde2f80f32" target="_top" xlink:title="zrtos_mem__move_left\l_overlapping">
<polygon fill="#ffffff" stroke="#000000" points="432,-.5 432,-30.5 551,-30.5 551,-.5 432,-.5"/>
<text text-anchor="start" x="440" y="-18.5" font-family="Helvetica,sans-Serif" font-size="10.00" fill="#000000">zrtos_mem__move_left</text>
<text text-anchor="middle" x="491.5" y="-7.5" font-family="Helvetica,sans-Serif" font-size="10.00" fill="#000000">_overlapping</text>
</a>
</g>
</g>
<!-- Node5&#45;&gt;Node6 -->
<g id="edge6" class="edge">
<title>Node5&#45;&gt;Node6</title>
<path fill="none" stroke="#191970" d="M396.3324,-15.5C404.5007,-15.5 413.164,-15.5 421.8063,-15.5"/>
<polygon fill="#191970" stroke="#191970" points="421.911,-19.0001 431.911,-15.5 421.9109,-12.0001 421.911,-19.0001"/>
</g>
</g>
</svg>
