<?xml version="1.0" encoding="UTF-8" standalone="no"?>
<!DOCTYPE svg PUBLIC "-//W3C//DTD SVG 1.1//EN"
 "http://www.w3.org/Graphics/SVG/1.1/DTD/svg11.dtd">
<!-- Generated by graphviz version 10.0.1 (20240210.2158)
 -->
<!-- Title: zrtos_event_index__invoke Pages: 1 -->
<svg width="551pt" height="148pt"
 viewBox="0.00 0.00 550.50 148.00" xmlns="http://www.w3.org/2000/svg" xmlns:xlink="http://www.w3.org/1999/xlink">
<g id="graph0" class="graph" transform="scale(1 1) rotate(0) translate(4 144)">
<title>zrtos_event_index__invoke</title>
<!-- Node1 -->
<g id="Node000001" class="node">
<title>Node1</title>
<g id="a_Node000001"><a xlink:title=" ">
<polygon fill="#999999" stroke="#666666" points="99.25,-89 0,-89 0,-57 99.25,-57 99.25,-89"/>
<text text-anchor="start" x="8" y="-75.5" font-family="Helvetica,sans-Serif" font-size="10.00">zrtos_event_index_</text>
<text text-anchor="middle" x="49.62" y="-63.5" font-family="Helvetica,sans-Serif" font-size="10.00">_invoke</text>
</a>
</g>
</g>
<!-- Node2 -->
<g id="Node000002" class="node">
<title>Node2</title>
<g id="a_Node000002"><a xlink:href="event_8h.html#af1328cd513b60ad2241d6f404b7da06d" target="_top" xlink:title=" ">
<polygon fill="white" stroke="#666666" points="243.88,-140 155.12,-140 155.12,-120 243.88,-120 243.88,-140"/>
<text text-anchor="middle" x="199.5" y="-126.5" font-family="Helvetica,sans-Serif" font-size="10.00">zrtos_event__init</text>
</a>
</g>
</g>
<!-- Node1&#45;&gt;Node2 -->
<g id="edge1_Node000001_Node000002" class="edge">
<title>Node1&#45;&gt;Node2</title>
<g id="a_edge1_Node000001_Node000002"><a xlink:title=" ">
<path fill="none" stroke="#63b8ff" d="M84.38,-89.37C99.71,-96.49 118.2,-104.64 135.25,-111 139.97,-112.76 144.93,-114.48 149.92,-116.11"/>
<polygon fill="#63b8ff" stroke="#63b8ff" points="148.74,-119.41 159.33,-119.09 150.85,-112.74 148.74,-119.41"/>
</a>
</g>
</g>
<!-- Node3 -->
<g id="Node000003" class="node">
<title>Node3</title>
<g id="a_Node000003"><a xlink:href="event__type_8h.html#a0ad028c45084de5a2a2d24c08433159e" target="_top" xlink:title=" ">
<polygon fill="white" stroke="#666666" points="258.88,-102 140.12,-102 140.12,-82 258.88,-82 258.88,-102"/>
<text text-anchor="middle" x="199.5" y="-88.5" font-family="Helvetica,sans-Serif" font-size="10.00">zrtos_event_type__cmp</text>
</a>
</g>
</g>
<!-- Node1&#45;&gt;Node3 -->
<g id="edge2_Node000001_Node000003" class="edge">
<title>Node1&#45;&gt;Node3</title>
<g id="a_edge2_Node000001_Node000003"><a xlink:title=" ">
<path fill="none" stroke="#63b8ff" d="M99.45,-79.27C108.71,-80.46 118.55,-81.73 128.31,-82.98"/>
<polygon fill="#63b8ff" stroke="#63b8ff" points="127.82,-86.45 138.19,-84.25 128.71,-79.5 127.82,-86.45"/>
</a>
</g>
</g>
<!-- Node4 -->
<g id="Node000004" class="node">
<title>Node4</title>
<g id="a_Node000004"><a xlink:href="event__type_8h.html#aff2d2f65e95c74a81c4a979c79bd7bc9" target="_top" xlink:title=" ">
<polygon fill="white" stroke="#666666" points="263.75,-64 135.25,-64 135.25,-44 263.75,-44 263.75,-64"/>
<text text-anchor="middle" x="199.5" y="-50.5" font-family="Helvetica,sans-Serif" font-size="10.00">zrtos_event_type__is_any</text>
</a>
</g>
</g>
<!-- Node1&#45;&gt;Node4 -->
<g id="edge3_Node000001_Node000004" class="edge">
<title>Node1&#45;&gt;Node4</title>
<g id="a_edge3_Node000001_Node000004"><a xlink:title=" ">
<path fill="none" stroke="#63b8ff" d="M99.45,-66.73C107.26,-65.72 115.49,-64.67 123.74,-63.61"/>
<polygon fill="#63b8ff" stroke="#63b8ff" points="123.98,-67.1 133.45,-62.36 123.09,-60.16 123.98,-67.1"/>
</a>
</g>
</g>
<!-- Node5 -->
<g id="Node000005" class="node">
<title>Node5</title>
<g id="a_Node000005"><a xlink:href="progmem_8h.html#a7185db18272b8514d094ac443ad989eb" target="_top" xlink:title=" ">
<polygon fill="white" stroke="#666666" points="254.38,-26 144.62,-26 144.62,-6 254.38,-6 254.38,-26"/>
<text text-anchor="middle" x="199.5" y="-12.5" font-family="Helvetica,sans-Serif" font-size="10.00">zrtos_progmem__cpy</text>
</a>
</g>
</g>
<!-- Node1&#45;&gt;Node5 -->
<g id="edge4_Node000001_Node000005" class="edge">
<title>Node1&#45;&gt;Node5</title>
<g id="a_edge4_Node000001_Node000005"><a xlink:title=" ">
<path fill="none" stroke="#63b8ff" d="M84.38,-56.63C99.71,-49.51 118.2,-41.36 135.25,-35 139.97,-33.24 144.93,-31.52 149.92,-29.89"/>
<polygon fill="#63b8ff" stroke="#63b8ff" points="150.85,-33.26 159.33,-26.91 148.74,-26.59 150.85,-33.26"/>
</a>
</g>
</g>
<!-- Node6 -->
<g id="Node000006" class="node">
<title>Node6</title>
<g id="a_Node000006"><a xlink:href="mem_8h.html#ac36c32ce5585de38fd4b77b2a322ac78" target="_top" xlink:title=" ">
<polygon fill="white" stroke="#666666" points="390.75,-26 299.75,-26 299.75,-6 390.75,-6 390.75,-26"/>
<text text-anchor="middle" x="345.25" y="-12.5" font-family="Helvetica,sans-Serif" font-size="10.00">zrtos_mem__cpy</text>
</a>
</g>
</g>
<!-- Node5&#45;&gt;Node6 -->
<g id="edge5_Node000005_Node000006" class="edge">
<title>Node5&#45;&gt;Node6</title>
<g id="a_edge5_Node000005_Node000006"><a xlink:title=" ">
<path fill="none" stroke="#63b8ff" d="M254.85,-16C265.82,-16 277.38,-16 288.4,-16"/>
<polygon fill="#63b8ff" stroke="#63b8ff" points="288.14,-19.5 298.14,-16 288.14,-12.5 288.14,-19.5"/>
</a>
</g>
</g>
<!-- Node7 -->
<g id="Node000007" class="node">
<title>Node7</title>
<g id="a_Node000007"><a xlink:href="mem_8h.html#a9054cc3824c6ffdaf4ed24fde2f80f32" target="_top" xlink:title=" ">
<polygon fill="white" stroke="#666666" points="542.5,-32 426.75,-32 426.75,0 542.5,0 542.5,-32"/>
<text text-anchor="start" x="434.75" y="-18.5" font-family="Helvetica,sans-Serif" font-size="10.00">zrtos_mem__move_left</text>
<text text-anchor="middle" x="484.62" y="-6.5" font-family="Helvetica,sans-Serif" font-size="10.00">_overlapping</text>
</a>
</g>
</g>
<!-- Node6&#45;&gt;Node7 -->
<g id="edge6_Node000006_Node000007" class="edge">
<title>Node6&#45;&gt;Node7</title>
<g id="a_edge6_Node000006_Node000007"><a xlink:title=" ">
<path fill="none" stroke="#63b8ff" d="M391.23,-16C398.89,-16 407,-16 415.1,-16"/>
<polygon fill="#63b8ff" stroke="#63b8ff" points="415,-19.5 425,-16 415,-12.5 415,-19.5"/>
</a>
</g>
</g>
</g>
</svg>
