<?xml version="1.0" encoding="UTF-8" standalone="no"?>
<!DOCTYPE svg PUBLIC "-//W3C//DTD SVG 1.1//EN"
 "http://www.w3.org/Graphics/SVG/1.1/DTD/svg11.dtd">
<!-- Generated by graphviz version 2.40.1 (20161225.0304)
 -->
<!-- Title: zrtos_gpio__digital_write Pages: 1 -->
<svg width="1020pt" height="321pt"
 viewBox="0.00 0.00 1020.00 321.00" xmlns="http://www.w3.org/2000/svg" xmlns:xlink="http://www.w3.org/1999/xlink">
<g id="graph0" class="graph" transform="scale(1 1) rotate(0) translate(4 317)">
<title>zrtos_gpio__digital_write</title>
<polygon fill="#ffffff" stroke="transparent" points="-4,4 -4,-317 1016,-317 1016,4 -4,4"/>
<!-- Node55 -->
<g id="node1" class="node">
<title>Node55</title>
<polygon fill="#bfbfbf" stroke="#000000" points="0,-238.5 0,-268.5 98,-268.5 98,-238.5 0,-238.5"/>
<text text-anchor="start" x="8" y="-256.5" font-family="Helvetica,sans-Serif" font-size="10.00" fill="#000000">zrtos_gpio__digital</text>
<text text-anchor="middle" x="49" y="-245.5" font-family="Helvetica,sans-Serif" font-size="10.00" fill="#000000">_write</text>
</g>
<!-- Node56 -->
<g id="node2" class="node">
<title>Node56</title>
<g id="a_node2"><a xlink:href="gpio_8h.html#a8f42e9253742ea9fdd21fc7f19ffa03e" target="_top" xlink:title="zrtos_gpio__digital\l_write_va">
<polygon fill="#ffffff" stroke="#000000" points="139.5,-282.5 139.5,-312.5 237.5,-312.5 237.5,-282.5 139.5,-282.5"/>
<text text-anchor="start" x="147.5" y="-300.5" font-family="Helvetica,sans-Serif" font-size="10.00" fill="#000000">zrtos_gpio__digital</text>
<text text-anchor="middle" x="188.5" y="-289.5" font-family="Helvetica,sans-Serif" font-size="10.00" fill="#000000">_write_va</text>
</a>
</g>
</g>
<!-- Node55&#45;&gt;Node56 -->
<g id="edge1" class="edge">
<title>Node55&#45;&gt;Node56</title>
<path fill="none" stroke="#191970" d="M106.4533,-271.6215C117.8129,-275.2044 129.6219,-278.9291 140.6232,-282.3991"/>
<polygon fill="#191970" stroke="#191970" points="107.2075,-268.1894 96.6178,-268.5192 105.1018,-274.8653 107.2075,-268.1894"/>
</g>
<!-- Node58 -->
<g id="node4" class="node">
<title>Node58</title>
<g id="a_node4"><a xlink:href="gpio_8h.html#adf182ae6089f6e514abe34869ea54fb0" target="_top" xlink:title="zrtos_gpio__set_high">
<polygon fill="#ffffff" stroke="#000000" points="134,-168 134,-187 243,-187 243,-168 134,-168"/>
<text text-anchor="middle" x="188.5" y="-175" font-family="Helvetica,sans-Serif" font-size="10.00" fill="#000000">zrtos_gpio__set_high</text>
</a>
</g>
</g>
<!-- Node55&#45;&gt;Node58 -->
<g id="edge3" class="edge">
<title>Node55&#45;&gt;Node58</title>
<path fill="none" stroke="#191970" d="M85.49,-233.6201C112.9366,-218.6672 149.3542,-198.8267 170.726,-187.1833"/>
<polygon fill="#191970" stroke="#191970" points="83.6676,-230.6272 76.5607,-238.4848 87.0165,-236.7742 83.6676,-230.6272"/>
</g>
<!-- Node62 -->
<g id="node8" class="node">
<title>Node62</title>
<g id="a_node8"><a xlink:href="gpio_8h.html#ab49fa21e06050251bf1f9598d4c4bb1b" target="_top" xlink:title="zrtos_gpio__shift_out">
<polygon fill="#ffffff" stroke="#000000" points="286.5,-244 286.5,-263 396.5,-263 396.5,-244 286.5,-244"/>
<text text-anchor="middle" x="341.5" y="-251" font-family="Helvetica,sans-Serif" font-size="10.00" fill="#000000">zrtos_gpio__shift_out</text>
</a>
</g>
</g>
<!-- Node55&#45;&gt;Node62 -->
<g id="edge20" class="edge">
<title>Node55&#45;&gt;Node62</title>
<path fill="none" stroke="#191970" d="M108.3764,-253.5C160.4243,-253.5 235.4966,-253.5 286.2718,-253.5"/>
<polygon fill="#191970" stroke="#191970" points="108.2879,-250.0001 98.2879,-253.5 108.2878,-257.0001 108.2879,-250.0001"/>
</g>
<!-- Node57 -->
<g id="node3" class="node">
<title>Node57</title>
<g id="a_node3"><a xlink:href="gpio_8h.html#a9c359724b7388fa1829d1efd2a6c46a6" target="_top" xlink:title="zrtos_gpio__digital\l_write_ex">
<polygon fill="#ffffff" stroke="#000000" points="292.5,-282.5 292.5,-312.5 390.5,-312.5 390.5,-282.5 292.5,-282.5"/>
<text text-anchor="start" x="300.5" y="-300.5" font-family="Helvetica,sans-Serif" font-size="10.00" fill="#000000">zrtos_gpio__digital</text>
<text text-anchor="middle" x="341.5" y="-289.5" font-family="Helvetica,sans-Serif" font-size="10.00" fill="#000000">_write_ex</text>
</a>
</g>
</g>
<!-- Node56&#45;&gt;Node57 -->
<g id="edge2" class="edge">
<title>Node56&#45;&gt;Node57</title>
<path fill="none" stroke="#191970" d="M247.7812,-297.5C262.5165,-297.5 278.1507,-297.5 292.3399,-297.5"/>
<polygon fill="#191970" stroke="#191970" points="247.7524,-294.0001 237.7523,-297.5 247.7523,-301.0001 247.7524,-294.0001"/>
</g>
<!-- Node59 -->
<g id="node5" class="node">
<title>Node59</title>
<g id="a_node5"><a xlink:href="gpio_8h.html#a18d01a230a28c80656ed510d10a1ef91" target="_top" xlink:title="zrtos_gpio__set_high_va">
<polygon fill="#ffffff" stroke="#000000" points="279,-206 279,-225 404,-225 404,-206 279,-206"/>
<text text-anchor="middle" x="341.5" y="-213" font-family="Helvetica,sans-Serif" font-size="10.00" fill="#000000">zrtos_gpio__set_high_va</text>
</a>
</g>
</g>
<!-- Node58&#45;&gt;Node59 -->
<g id="edge4" class="edge">
<title>Node58&#45;&gt;Node59</title>
<path fill="none" stroke="#191970" d="M236.9768,-189.54C258.3517,-194.8488 283.1134,-200.9988 303.1693,-205.9799"/>
<polygon fill="#191970" stroke="#191970" points="237.6572,-186.1027 227.1084,-187.089 235.9698,-192.8963 237.6572,-186.1027"/>
</g>
<!-- Node61 -->
<g id="node7" class="node">
<title>Node61</title>
<g id="a_node7"><a xlink:href="gpio_8h.html#aed5f26b5dc5a1f891ad09bec96691b05" target="_top" xlink:title="zrtos_gpio__shift_in">
<polygon fill="#ffffff" stroke="#000000" points="289.5,-168 289.5,-187 393.5,-187 393.5,-168 289.5,-168"/>
<text text-anchor="middle" x="341.5" y="-175" font-family="Helvetica,sans-Serif" font-size="10.00" fill="#000000">zrtos_gpio__shift_in</text>
</a>
</g>
</g>
<!-- Node58&#45;&gt;Node61 -->
<g id="edge6" class="edge">
<title>Node58&#45;&gt;Node61</title>
<path fill="none" stroke="#191970" d="M253.6603,-177.5C265.589,-177.5 277.894,-177.5 289.38,-177.5"/>
<polygon fill="#191970" stroke="#191970" points="253.3044,-174.0001 243.3044,-177.5 253.3043,-181.0001 253.3044,-174.0001"/>
</g>
<!-- Node58&#45;&gt;Node62 -->
<g id="edge7" class="edge">
<title>Node58&#45;&gt;Node62</title>
<path fill="none" stroke="#191970" d="M209.8229,-193.2329C227.601,-205.7723 253.9753,-223.0657 279,-234.5 286.9427,-238.1292 295.7617,-241.2941 304.2113,-243.9457"/>
<polygon fill="#191970" stroke="#191970" points="211.5283,-190.1489 201.3623,-187.1651 207.4487,-195.8373 211.5283,-190.1489"/>
</g>
<!-- Node63 -->
<g id="node9" class="node">
<title>Node63</title>
<g id="a_node9"><a xlink:href="spi_2spi_8h.html#ad566b8f0d10d460dbfa130473b8c43bc" target="_top" xlink:title="zrtos_vfs_module_spi\l__set_high">
<polygon fill="#ffffff" stroke="#000000" points="285.5,-118.5 285.5,-148.5 397.5,-148.5 397.5,-118.5 285.5,-118.5"/>
<text text-anchor="start" x="293.5" y="-136.5" font-family="Helvetica,sans-Serif" font-size="10.00" fill="#000000">zrtos_vfs_module_spi</text>
<text text-anchor="middle" x="341.5" y="-125.5" font-family="Helvetica,sans-Serif" font-size="10.00" fill="#000000">__set_high</text>
</a>
</g>
</g>
<!-- Node58&#45;&gt;Node63 -->
<g id="edge8" class="edge">
<title>Node58&#45;&gt;Node63</title>
<path fill="none" stroke="#191970" d="M231.3113,-165.1882C249.2459,-160.0306 270.2672,-153.9852 289.1136,-148.5654"/>
<polygon fill="#191970" stroke="#191970" points="230.3419,-161.8251 221.6987,-167.9527 232.2766,-168.5525 230.3419,-161.8251"/>
</g>
<!-- Node69 -->
<g id="node15" class="node">
<title>Node69</title>
<g id="a_node15"><a xlink:href="spi__sync_8h.html#a29c9d8a32af2717c5e9ed8e11d0800fa" target="_top" xlink:title="zrtos_vfs_module_spi\l_sync__on_open">
<polygon fill="#ffffff" stroke="#000000" points="285.5,-69.5 285.5,-99.5 397.5,-99.5 397.5,-69.5 285.5,-69.5"/>
<text text-anchor="start" x="293.5" y="-87.5" font-family="Helvetica,sans-Serif" font-size="10.00" fill="#000000">zrtos_vfs_module_spi</text>
<text text-anchor="middle" x="341.5" y="-76.5" font-family="Helvetica,sans-Serif" font-size="10.00" fill="#000000">_sync__on_open</text>
</a>
</g>
</g>
<!-- Node58&#45;&gt;Node69 -->
<g id="edge14" class="edge">
<title>Node58&#45;&gt;Node69</title>
<path fill="none" stroke="#191970" d="M207.0613,-161.2297C224.68,-146.3673 252.3574,-124.4884 279,-109.5 285.4168,-105.8901 292.4605,-102.5429 299.4338,-99.5477"/>
<polygon fill="#191970" stroke="#191970" points="204.5889,-158.739 199.2688,-167.9013 209.1414,-164.0564 204.5889,-158.739"/>
</g>
<!-- Node72 -->
<g id="node18" class="node">
<title>Node72</title>
<g id="a_node18"><a xlink:href="spi__sync_8h.html#acad5edb178ed84b8a1b7b3a877dbcd61" target="_top" xlink:title="zrtos_vfs_module_spi\l_sync__on_write_helper">
<polygon fill="#ffffff" stroke="#000000" points="441.5,-.5 441.5,-30.5 563.5,-30.5 563.5,-.5 441.5,-.5"/>
<text text-anchor="start" x="449.5" y="-18.5" font-family="Helvetica,sans-Serif" font-size="10.00" fill="#000000">zrtos_vfs_module_spi</text>
<text text-anchor="middle" x="502.5" y="-7.5" font-family="Helvetica,sans-Serif" font-size="10.00" fill="#000000">_sync__on_write_helper</text>
</a>
</g>
</g>
<!-- Node58&#45;&gt;Node72 -->
<g id="edge18" class="edge">
<title>Node58&#45;&gt;Node72</title>
<path fill="none" stroke="#191970" d="M197.5106,-158.7445C211.2229,-132.3484 239.9204,-84.7595 279,-60.5 328.0971,-30.0219 393.8876,-19.6713 441.3615,-16.4035"/>
<polygon fill="#191970" stroke="#191970" points="194.3581,-157.2233 192.9986,-167.7306 200.6138,-160.3644 194.3581,-157.2233"/>
</g>
<!-- Node60 -->
<g id="node6" class="node">
<title>Node60</title>
<g id="a_node6"><a xlink:href="gpio_8h.html#a0a8aaa3086b2bbb79c60316413c96f7c" target="_top" xlink:title="zrtos_gpio__set_high_ex">
<polygon fill="#ffffff" stroke="#000000" points="440,-206 440,-225 565,-225 565,-206 440,-206"/>
<text text-anchor="middle" x="502.5" y="-213" font-family="Helvetica,sans-Serif" font-size="10.00" fill="#000000">zrtos_gpio__set_high_ex</text>
</a>
</g>
</g>
<!-- Node59&#45;&gt;Node60 -->
<g id="edge5" class="edge">
<title>Node59&#45;&gt;Node60</title>
<path fill="none" stroke="#191970" d="M414.2184,-215.5C422.8129,-215.5 431.5268,-215.5 439.9633,-215.5"/>
<polygon fill="#191970" stroke="#191970" points="414.2078,-212.0001 404.2078,-215.5 414.2078,-219.0001 414.2078,-212.0001"/>
</g>
<!-- Node64 -->
<g id="node10" class="node">
<title>Node64</title>
<g id="a_node10"><a xlink:href="spi_2spi_8h.html#a7cc1a52aa2cec6b681b7732681bda10b" target="_top" xlink:title="zrtos_vfs_module_spi\l__transfer_out">
<polygon fill="#ffffff" stroke="#000000" points="446.5,-137.5 446.5,-167.5 558.5,-167.5 558.5,-137.5 446.5,-137.5"/>
<text text-anchor="start" x="454.5" y="-155.5" font-family="Helvetica,sans-Serif" font-size="10.00" fill="#000000">zrtos_vfs_module_spi</text>
<text text-anchor="middle" x="502.5" y="-144.5" font-family="Helvetica,sans-Serif" font-size="10.00" fill="#000000">__transfer_out</text>
</a>
</g>
</g>
<!-- Node63&#45;&gt;Node64 -->
<g id="edge9" class="edge">
<title>Node63&#45;&gt;Node64</title>
<path fill="none" stroke="#191970" d="M407.9512,-141.3421C420.7596,-142.8536 434.0576,-144.423 446.4937,-145.8906"/>
<polygon fill="#191970" stroke="#191970" points="408.1513,-137.8415 397.81,-140.1453 407.3308,-144.7932 408.1513,-137.8415"/>
</g>
<!-- Node65 -->
<g id="node11" class="node">
<title>Node65</title>
<g id="a_node11"><a xlink:href="spi_2spi_8h.html#ab31c12597a3f2932aaf01466ffff59bb" target="_top" xlink:title="zrtos_vfs_module_spi\l__transfer">
<polygon fill="#ffffff" stroke="#000000" points="601.5,-137.5 601.5,-167.5 713.5,-167.5 713.5,-137.5 601.5,-137.5"/>
<text text-anchor="start" x="609.5" y="-155.5" font-family="Helvetica,sans-Serif" font-size="10.00" fill="#000000">zrtos_vfs_module_spi</text>
<text text-anchor="middle" x="657.5" y="-144.5" font-family="Helvetica,sans-Serif" font-size="10.00" fill="#000000">__transfer</text>
</a>
</g>
</g>
<!-- Node64&#45;&gt;Node65 -->
<g id="edge10" class="edge">
<title>Node64&#45;&gt;Node65</title>
<path fill="none" stroke="#191970" d="M569.1029,-152.5C579.8683,-152.5 590.92,-152.5 601.4045,-152.5"/>
<polygon fill="#191970" stroke="#191970" points="568.8971,-149.0001 558.897,-152.5 568.897,-156.0001 568.8971,-149.0001"/>
</g>
<!-- Node66 -->
<g id="node12" class="node">
<title>Node66</title>
<g id="a_node12"><a xlink:href="avr_2spi_2spi_8h.html#a3a0f3b324bd986778ccde00670dbabc9" target="_top" xlink:title="zrtos_vfs_module_avr\l_spi__on_interrupt">
<polygon fill="#ffffff" stroke="#000000" points="750,-137.5 750,-167.5 863,-167.5 863,-137.5 750,-137.5"/>
<text text-anchor="start" x="758" y="-155.5" font-family="Helvetica,sans-Serif" font-size="10.00" fill="#000000">zrtos_vfs_module_avr</text>
<text text-anchor="middle" x="806.5" y="-144.5" font-family="Helvetica,sans-Serif" font-size="10.00" fill="#000000">_spi__on_interrupt</text>
</a>
</g>
</g>
<!-- Node65&#45;&gt;Node66 -->
<g id="edge11" class="edge">
<title>Node65&#45;&gt;Node66</title>
<path fill="none" stroke="#191970" d="M724.108,-152.5C732.6149,-152.5 741.2607,-152.5 749.5949,-152.5"/>
<polygon fill="#191970" stroke="#191970" points="723.8305,-149.0001 713.8305,-152.5 723.8305,-156.0001 723.8305,-149.0001"/>
</g>
<!-- Node67 -->
<g id="node13" class="node">
<title>Node67</title>
<g id="a_node13"><a xlink:href="avr_2spi_2spi_8h.html#a0353f98d744b931e541684fe33b272f7" target="_top" xlink:title="ISR">
<polygon fill="#ffffff" stroke="#000000" points="938.5,-165 938.5,-184 972.5,-184 972.5,-165 938.5,-165"/>
<text text-anchor="middle" x="955.5" y="-172" font-family="Helvetica,sans-Serif" font-size="10.00" fill="#000000">ISR</text>
</a>
</g>
</g>
<!-- Node66&#45;&gt;Node67 -->
<g id="edge12" class="edge">
<title>Node66&#45;&gt;Node67</title>
<path fill="none" stroke="#191970" d="M873.4328,-162.3827C897.3988,-165.9213 922.4203,-169.6157 938.4384,-171.9808"/>
<polygon fill="#191970" stroke="#191970" points="873.6596,-158.8783 863.2556,-160.88 872.637,-165.8032 873.6596,-158.8783"/>
</g>
<!-- Node68 -->
<g id="node14" class="node">
<title>Node68</title>
<g id="a_node14"><a xlink:href="avr_2spi_2spi_8h.html#ab6f547c3ce7ee0463c235abe078f9491" target="_top" xlink:title="zrtos_vfs_module_avr\l_spi__on_write">
<polygon fill="#ffffff" stroke="#000000" points="899,-115.5 899,-145.5 1012,-145.5 1012,-115.5 899,-115.5"/>
<text text-anchor="start" x="907" y="-133.5" font-family="Helvetica,sans-Serif" font-size="10.00" fill="#000000">zrtos_vfs_module_avr</text>
<text text-anchor="middle" x="955.5" y="-122.5" font-family="Helvetica,sans-Serif" font-size="10.00" fill="#000000">_spi__on_write</text>
</a>
</g>
</g>
<!-- Node66&#45;&gt;Node68 -->
<g id="edge13" class="edge">
<title>Node66&#45;&gt;Node68</title>
<path fill="none" stroke="#191970" d="M873.228,-142.6475C881.8009,-141.3817 890.5125,-140.0955 898.9022,-138.8567"/>
<polygon fill="#191970" stroke="#191970" points="872.637,-139.1968 863.2556,-144.12 873.6596,-146.1217 872.637,-139.1968"/>
</g>
<!-- Node70 -->
<g id="node16" class="node">
<title>Node70</title>
<g id="a_node16"><a xlink:href="spi__sync_8h.html#a2e3a53c5cd6e19f7859fcf16506d44ec" target="_top" xlink:title="zrtos_vfs_module_spi\l_sync__on_close">
<polygon fill="#ffffff" stroke="#000000" points="446.5,-88.5 446.5,-118.5 558.5,-118.5 558.5,-88.5 446.5,-88.5"/>
<text text-anchor="start" x="454.5" y="-106.5" font-family="Helvetica,sans-Serif" font-size="10.00" fill="#000000">zrtos_vfs_module_spi</text>
<text text-anchor="middle" x="502.5" y="-95.5" font-family="Helvetica,sans-Serif" font-size="10.00" fill="#000000">_sync__on_close</text>
</a>
</g>
</g>
<!-- Node69&#45;&gt;Node70 -->
<g id="edge15" class="edge">
<title>Node69&#45;&gt;Node70</title>
<path fill="none" stroke="#191970" d="M407.9512,-92.3421C420.7596,-93.8536 434.0576,-95.423 446.4937,-96.8906"/>
<polygon fill="#191970" stroke="#191970" points="408.1513,-88.8415 397.81,-91.1453 407.3308,-95.7932 408.1513,-88.8415"/>
</g>
<!-- Node71 -->
<g id="node17" class="node">
<title>Node71</title>
<g id="a_node17"><a xlink:href="sync_8h.html#affc4ed32d5b66e97fb25c63faaf49eed" target="_top" xlink:title="zrtos_vfs_module_avr\l_spi_sync__on_write">
<polygon fill="#ffffff" stroke="#000000" points="601,-44.5 601,-74.5 714,-74.5 714,-44.5 601,-44.5"/>
<text text-anchor="start" x="609" y="-62.5" font-family="Helvetica,sans-Serif" font-size="10.00" fill="#000000">zrtos_vfs_module_avr</text>
<text text-anchor="middle" x="657.5" y="-51.5" font-family="Helvetica,sans-Serif" font-size="10.00" fill="#000000">_spi_sync__on_write</text>
</a>
</g>
</g>
<!-- Node69&#45;&gt;Node71 -->
<g id="edge17" class="edge">
<title>Node69&#45;&gt;Node71</title>
<path fill="none" stroke="#191970" d="M407.6529,-79.2664C464.8343,-74.7425 546.6029,-68.2735 600.8281,-63.9835"/>
<polygon fill="#191970" stroke="#191970" points="407.3231,-75.7814 397.6303,-80.0593 407.8753,-82.7596 407.3231,-75.7814"/>
</g>
<!-- Node70&#45;&gt;Node71 -->
<g id="edge16" class="edge">
<title>Node70&#45;&gt;Node71</title>
<path fill="none" stroke="#191970" d="M565.246,-85.6882C578.2915,-81.985 591.9162,-78.1173 604.5668,-74.5262"/>
<polygon fill="#191970" stroke="#191970" points="564.0728,-82.3829 555.4087,-88.4808 565.9844,-89.1168 564.0728,-82.3829"/>
</g>
<!-- Node72&#45;&gt;Node71 -->
<g id="edge19" class="edge">
<title>Node72&#45;&gt;Node71</title>
<path fill="none" stroke="#191970" d="M565.246,-33.3118C578.2915,-37.015 591.9162,-40.8827 604.5668,-44.4738"/>
<polygon fill="#191970" stroke="#191970" points="565.9844,-29.8832 555.4087,-30.5192 564.0728,-36.6171 565.9844,-29.8832"/>
</g>
</g>
</svg>
