<?xml version="1.0" encoding="UTF-8" standalone="no"?>
<!DOCTYPE svg PUBLIC "-//W3C//DTD SVG 1.1//EN"
 "http://www.w3.org/Graphics/SVG/1.1/DTD/svg11.dtd">
<!-- Generated by graphviz version 10.0.1 (20240210.2158)
 -->
<!-- Title: zrtos_gpio__set_high Pages: 1 -->
<svg width="435pt" height="28pt"
 viewBox="0.00 0.00 434.75 28.00" xmlns="http://www.w3.org/2000/svg" xmlns:xlink="http://www.w3.org/1999/xlink">
<g id="graph0" class="graph" transform="scale(1 1) rotate(0) translate(4 24)">
<title>zrtos_gpio__set_high</title>
<!-- Node1 -->
<g id="Node000001" class="node">
<title>Node1</title>
<g id="a_Node000001"><a xlink:title=" ">
<polygon fill="#999999" stroke="#666666" points="426.75,-20 318.5,-20 318.5,0 426.75,0 426.75,-20"/>
<text text-anchor="middle" x="372.62" y="-6.5" font-family="Helvetica,sans-Serif" font-size="10.00">zrtos_gpio__set_high</text>
</a>
</g>
</g>
<!-- Node2 -->
<g id="Node000002" class="node">
<title>Node2</title>
<g id="a_Node000002"><a xlink:href="gpio_8h.html#a18d01a230a28c80656ed510d10a1ef91" target="_top" xlink:title=" ">
<polygon fill="white" stroke="#666666" points="282.5,-20 160,-20 160,0 282.5,0 282.5,-20"/>
<text text-anchor="middle" x="221.25" y="-6.5" font-family="Helvetica,sans-Serif" font-size="10.00">zrtos_gpio__set_high_va</text>
</a>
</g>
</g>
<!-- Node1&#45;&gt;Node2 -->
<g id="edge1_Node000001_Node000002" class="edge">
<title>Node1&#45;&gt;Node2</title>
<g id="a_edge1_Node000001_Node000002"><a xlink:title=" ">
<path fill="none" stroke="#63b8ff" d="M306.72,-10C298.84,-10 290.82,-10 283,-10"/>
<polygon fill="#63b8ff" stroke="#63b8ff" points="306.61,-13.5 316.61,-10 306.61,-6.5 306.61,-13.5"/>
</a>
</g>
</g>
<!-- Node3 -->
<g id="Node000003" class="node">
<title>Node3</title>
<g id="a_Node000003"><a xlink:href="gpio_8h.html#a0a8aaa3086b2bbb79c60316413c96f7c" target="_top" xlink:title=" ">
<polygon fill="white" stroke="#666666" points="124,-20 0,-20 0,0 124,0 124,-20"/>
<text text-anchor="middle" x="62" y="-6.5" font-family="Helvetica,sans-Serif" font-size="10.00">zrtos_gpio__set_high_ex</text>
</a>
</g>
</g>
<!-- Node2&#45;&gt;Node3 -->
<g id="edge2_Node000002_Node000003" class="edge">
<title>Node2&#45;&gt;Node3</title>
<g id="a_edge2_Node000002_Node000003"><a xlink:title=" ">
<path fill="none" stroke="#63b8ff" d="M148.61,-10C140.56,-10 132.4,-10 124.49,-10"/>
<polygon fill="#63b8ff" stroke="#63b8ff" points="148.39,-13.5 158.39,-10 148.39,-6.5 148.39,-13.5"/>
</a>
</g>
</g>
</g>
</svg>
