<?xml version="1.0" encoding="UTF-8" standalone="no"?>
<!DOCTYPE svg PUBLIC "-//W3C//DTD SVG 1.1//EN"
 "http://www.w3.org/Graphics/SVG/1.1/DTD/svg11.dtd">
<!-- Generated by graphviz version 10.0.1 (20240210.2158)
 -->
<!-- Title: zrtos_gpio__set_mode_ex Pages: 1 -->
<svg width="461pt" height="66pt"
 viewBox="0.00 0.00 461.00 66.00" xmlns="http://www.w3.org/2000/svg" xmlns:xlink="http://www.w3.org/1999/xlink">
<g id="graph0" class="graph" transform="scale(1 1) rotate(0) translate(4 62)">
<title>zrtos_gpio__set_mode_ex</title>
<!-- Node1 -->
<g id="Node000001" class="node">
<title>Node1</title>
<g id="a_Node000001"><a xlink:title=" ">
<polygon fill="#999999" stroke="#666666" points="130,-39 0,-39 0,-19 130,-19 130,-39"/>
<text text-anchor="middle" x="65" y="-25.5" font-family="Helvetica,sans-Serif" font-size="10.00">zrtos_gpio__set_mode_ex</text>
</a>
</g>
</g>
<!-- Node2 -->
<g id="Node000002" class="node">
<title>Node2</title>
<g id="a_Node000002"><a xlink:href="gpio_8h.html#af2a9eeeb5290c0a90ebe5ebceefb8ccd" target="_top" xlink:title=" ">
<polygon fill="white" stroke="#666666" points="294.5,-39 166,-39 166,-19 294.5,-19 294.5,-39"/>
<text text-anchor="middle" x="230.25" y="-25.5" font-family="Helvetica,sans-Serif" font-size="10.00">zrtos_gpio__set_mode_va</text>
</a>
</g>
</g>
<!-- Node1&#45;&gt;Node2 -->
<g id="edge1_Node000001_Node000002" class="edge">
<title>Node1&#45;&gt;Node2</title>
<g id="a_edge1_Node000001_Node000002"><a xlink:title=" ">
<path fill="none" stroke="#63b8ff" d="M130.05,-29C138.01,-29 146.19,-29 154.29,-29"/>
<polygon fill="#63b8ff" stroke="#63b8ff" points="154.14,-32.5 164.14,-29 154.14,-25.5 154.14,-32.5"/>
</a>
</g>
</g>
<!-- Node3 -->
<g id="Node000003" class="node">
<title>Node3</title>
<g id="a_Node000003"><a xlink:href="error_8h.html#add13298163f63b7d37ed9f12d57e1a31" target="_top" xlink:title=" ">
<polygon fill="white" stroke="#666666" points="453,-58 330.5,-58 330.5,-38 453,-38 453,-58"/>
<text text-anchor="middle" x="391.75" y="-44.5" font-family="Helvetica,sans-Serif" font-size="10.00">zrtos_error__is_success</text>
</a>
</g>
</g>
<!-- Node2&#45;&gt;Node3 -->
<g id="edge2_Node000002_Node000003" class="edge">
<title>Node2&#45;&gt;Node3</title>
<g id="a_edge2_Node000002_Node000003"><a xlink:title=" ">
<path fill="none" stroke="#63b8ff" d="M294.75,-36.56C302.66,-37.51 310.79,-38.48 318.82,-39.43"/>
<polygon fill="#63b8ff" stroke="#63b8ff" points="318.22,-42.88 328.56,-40.59 319.05,-35.93 318.22,-42.88"/>
</a>
</g>
</g>
<!-- Node4 -->
<g id="Node000004" class="node">
<title>Node4</title>
<g id="a_Node000004"><a xlink:href="gpio_8h.html#a256ab7a19b884f6960ccbbc56c1e6cf8" target="_top" xlink:title=" ">
<polygon fill="white" stroke="#666666" points="448.88,-20 334.62,-20 334.62,0 448.88,0 448.88,-20"/>
<text text-anchor="middle" x="391.75" y="-6.5" font-family="Helvetica,sans-Serif" font-size="10.00">zrtos_gpio__set_mode</text>
</a>
</g>
</g>
<!-- Node2&#45;&gt;Node4 -->
<g id="edge3_Node000002_Node000004" class="edge">
<title>Node2&#45;&gt;Node4</title>
<g id="a_edge3_Node000002_Node000004"><a xlink:title=" ">
<path fill="none" stroke="#63b8ff" d="M294.75,-21.44C304.01,-20.33 313.58,-19.19 322.93,-18.08"/>
<polygon fill="#63b8ff" stroke="#63b8ff" points="323.16,-21.58 332.68,-16.92 322.33,-14.63 323.16,-21.58"/>
</a>
</g>
</g>
</g>
</svg>
