<?xml version="1.0" encoding="UTF-8" standalone="no"?>
<!DOCTYPE svg PUBLIC "-//W3C//DTD SVG 1.1//EN"
 "http://www.w3.org/Graphics/SVG/1.1/DTD/svg11.dtd">
<!-- Generated by graphviz version 2.40.1 (20161225.0304)
 -->
<!-- Title: zrtos_gpio__set_low_va Pages: 1 -->
<svg width="289pt" height="66pt"
 viewBox="0.00 0.00 289.00 66.00" xmlns="http://www.w3.org/2000/svg" xmlns:xlink="http://www.w3.org/1999/xlink">
<g id="graph0" class="graph" transform="scale(1 1) rotate(0) translate(4 62)">
<title>zrtos_gpio__set_low_va</title>
<polygon fill="#ffffff" stroke="transparent" points="-4,4 -4,-62 285,-62 285,4 -4,4"/>
<!-- Node133 -->
<g id="node1" class="node">
<title>Node133</title>
<polygon fill="#bfbfbf" stroke="#000000" points="0,-19.5 0,-38.5 122,-38.5 122,-19.5 0,-19.5"/>
<text text-anchor="middle" x="61" y="-26.5" font-family="Helvetica,sans-Serif" font-size="10.00" fill="#000000">zrtos_gpio__set_low_va</text>
</g>
<!-- Node134 -->
<g id="node2" class="node">
<title>Node134</title>
<g id="a_node2"><a xlink:href="error_8h.html#add13298163f63b7d37ed9f12d57e1a31" target="_top" xlink:title="zrtos_error__is_success">
<polygon fill="#ffffff" stroke="#000000" points="158,-38.5 158,-57.5 281,-57.5 281,-38.5 158,-38.5"/>
<text text-anchor="middle" x="219.5" y="-45.5" font-family="Helvetica,sans-Serif" font-size="10.00" fill="#000000">zrtos_error__is_success</text>
</a>
</g>
</g>
<!-- Node133&#45;&gt;Node134 -->
<g id="edge1" class="edge">
<title>Node133&#45;&gt;Node134</title>
<path fill="none" stroke="#191970" d="M122.2802,-36.3459C130.6703,-37.3516 139.344,-38.3914 147.8978,-39.4168"/>
<polygon fill="#191970" stroke="#191970" points="147.5144,-42.8958 157.8599,-40.611 148.3476,-35.9455 147.5144,-42.8958"/>
</g>
<!-- Node135 -->
<g id="node3" class="node">
<title>Node135</title>
<g id="a_node3"><a xlink:href="gpio_8h.html#a54c6a96e2e8cb2b5bd47e9863328d499" target="_top" xlink:title="zrtos_gpio__set_low">
<polygon fill="#ffffff" stroke="#000000" points="166.5,-.5 166.5,-19.5 272.5,-19.5 272.5,-.5 166.5,-.5"/>
<text text-anchor="middle" x="219.5" y="-7.5" font-family="Helvetica,sans-Serif" font-size="10.00" fill="#000000">zrtos_gpio__set_low</text>
</a>
</g>
</g>
<!-- Node133&#45;&gt;Node135 -->
<g id="edge2" class="edge">
<title>Node133&#45;&gt;Node135</title>
<path fill="none" stroke="#191970" d="M122.2802,-21.6541C133.4185,-20.3189 145.0566,-18.9238 156.2503,-17.582"/>
<polygon fill="#191970" stroke="#191970" points="156.8659,-21.0333 166.3783,-16.3679 156.0327,-14.0831 156.8659,-21.0333"/>
</g>
</g>
</svg>
