<?xml version="1.0" encoding="UTF-8" standalone="no"?>
<!DOCTYPE svg PUBLIC "-//W3C//DTD SVG 1.1//EN"
 "http://www.w3.org/Graphics/SVG/1.1/DTD/svg11.dtd">
<!-- Generated by graphviz version 2.40.1 (20161225.0304)
 -->
<!-- Title: zrtos_gpio__set_mode_va Pages: 1 -->
<svg width="1049pt" height="105pt"
 viewBox="0.00 0.00 1049.00 104.50" xmlns="http://www.w3.org/2000/svg" xmlns:xlink="http://www.w3.org/1999/xlink">
<g id="graph0" class="graph" transform="scale(1 1) rotate(0) translate(4 100.5)">
<title>zrtos_gpio__set_mode_va</title>
<polygon fill="#ffffff" stroke="transparent" points="-4,4 -4,-100.5 1045,-100.5 1045,4 -4,4"/>
<!-- Node168 -->
<g id="node1" class="node">
<title>Node168</title>
<polygon fill="#bfbfbf" stroke="#000000" points="0,-30 0,-49 131,-49 131,-30 0,-30"/>
<text text-anchor="middle" x="65.5" y="-37" font-family="Helvetica,sans-Serif" font-size="10.00" fill="#000000">zrtos_gpio__set_mode_va</text>
</g>
<!-- Node169 -->
<g id="node2" class="node">
<title>Node169</title>
<g id="a_node2"><a xlink:href="gpio_8h.html#a09265f640ff70e6c6a30db445b052069" target="_top" xlink:title="zrtos_gpio__set_mode_ex">
<polygon fill="#ffffff" stroke="#000000" points="167,-30 167,-49 298,-49 298,-30 167,-30"/>
<text text-anchor="middle" x="232.5" y="-37" font-family="Helvetica,sans-Serif" font-size="10.00" fill="#000000">zrtos_gpio__set_mode_ex</text>
</a>
</g>
</g>
<!-- Node168&#45;&gt;Node169 -->
<g id="edge1" class="edge">
<title>Node168&#45;&gt;Node169</title>
<path fill="none" stroke="#191970" d="M141.0663,-39.5C149.6848,-39.5 158.4171,-39.5 166.8913,-39.5"/>
<polygon fill="#191970" stroke="#191970" points="141.0235,-36.0001 131.0235,-39.5 141.0235,-43.0001 141.0235,-36.0001"/>
</g>
<!-- Node170 -->
<g id="node3" class="node">
<title>Node170</title>
<g id="a_node3"><a xlink:href="spi_2spi_8h.html#ad77e6ecb4213305b573cbf5a8989c1f1" target="_top" xlink:title="zrtos_vfs_module_spi\l__transfer_init">
<polygon fill="#ffffff" stroke="#000000" points="334,-49.5 334,-79.5 446,-79.5 446,-49.5 334,-49.5"/>
<text text-anchor="start" x="342" y="-67.5" font-family="Helvetica,sans-Serif" font-size="10.00" fill="#000000">zrtos_vfs_module_spi</text>
<text text-anchor="middle" x="390" y="-56.5" font-family="Helvetica,sans-Serif" font-size="10.00" fill="#000000">__transfer_init</text>
</a>
</g>
</g>
<!-- Node169&#45;&gt;Node170 -->
<g id="edge2" class="edge">
<title>Node169&#45;&gt;Node170</title>
<path fill="none" stroke="#191970" d="M302.4605,-50.6048C312.9495,-52.2698 323.6491,-53.9681 333.8025,-55.5798"/>
<polygon fill="#191970" stroke="#191970" points="302.9184,-47.1338 292.4933,-49.0227 301.8209,-54.0472 302.9184,-47.1338"/>
</g>
<!-- Node176 -->
<g id="node9" class="node">
<title>Node176</title>
<g id="a_node9"><a xlink:href="spi__sync_8h.html#aafe8ef69f297fdd4855c8f8e2ad4931c" target="_top" xlink:title="zrtos_vfs_module_spi\l_sync__on_mount">
<polygon fill="#ffffff" stroke="#000000" points="334,-.5 334,-30.5 446,-30.5 446,-.5 334,-.5"/>
<text text-anchor="start" x="342" y="-18.5" font-family="Helvetica,sans-Serif" font-size="10.00" fill="#000000">zrtos_vfs_module_spi</text>
<text text-anchor="middle" x="390" y="-7.5" font-family="Helvetica,sans-Serif" font-size="10.00" fill="#000000">_sync__on_mount</text>
</a>
</g>
</g>
<!-- Node169&#45;&gt;Node176 -->
<g id="edge8" class="edge">
<title>Node169&#45;&gt;Node176</title>
<path fill="none" stroke="#191970" d="M305.1798,-28.425C314.8214,-26.9558 324.5852,-25.468 333.8883,-24.0504"/>
<polygon fill="#191970" stroke="#191970" points="304.5593,-24.979 295.2007,-29.9456 305.6139,-31.8992 304.5593,-24.979"/>
</g>
<!-- Node171 -->
<g id="node4" class="node">
<title>Node171</title>
<g id="a_node4"><a xlink:href="spi_2spi_8h.html#a7cc1a52aa2cec6b681b7732681bda10b" target="_top" xlink:title="zrtos_vfs_module_spi\l__transfer_out">
<polygon fill="#ffffff" stroke="#000000" points="482.5,-49.5 482.5,-79.5 594.5,-79.5 594.5,-49.5 482.5,-49.5"/>
<text text-anchor="start" x="490.5" y="-67.5" font-family="Helvetica,sans-Serif" font-size="10.00" fill="#000000">zrtos_vfs_module_spi</text>
<text text-anchor="middle" x="538.5" y="-56.5" font-family="Helvetica,sans-Serif" font-size="10.00" fill="#000000">__transfer_out</text>
</a>
</g>
</g>
<!-- Node170&#45;&gt;Node171 -->
<g id="edge3" class="edge">
<title>Node170&#45;&gt;Node171</title>
<path fill="none" stroke="#191970" d="M456.2467,-64.5C464.9374,-64.5 473.7762,-64.5 482.2791,-64.5"/>
<polygon fill="#191970" stroke="#191970" points="456.1415,-61.0001 446.1415,-64.5 456.1414,-68.0001 456.1415,-61.0001"/>
</g>
<!-- Node172 -->
<g id="node5" class="node">
<title>Node172</title>
<g id="a_node5"><a xlink:href="spi_2spi_8h.html#ab31c12597a3f2932aaf01466ffff59bb" target="_top" xlink:title="zrtos_vfs_module_spi\l__transfer">
<polygon fill="#ffffff" stroke="#000000" points="631,-49.5 631,-79.5 743,-79.5 743,-49.5 631,-49.5"/>
<text text-anchor="start" x="639" y="-67.5" font-family="Helvetica,sans-Serif" font-size="10.00" fill="#000000">zrtos_vfs_module_spi</text>
<text text-anchor="middle" x="687" y="-56.5" font-family="Helvetica,sans-Serif" font-size="10.00" fill="#000000">__transfer</text>
</a>
</g>
</g>
<!-- Node171&#45;&gt;Node172 -->
<g id="edge4" class="edge">
<title>Node171&#45;&gt;Node172</title>
<path fill="none" stroke="#191970" d="M604.7467,-64.5C613.4374,-64.5 622.2762,-64.5 630.7791,-64.5"/>
<polygon fill="#191970" stroke="#191970" points="604.6415,-61.0001 594.6415,-64.5 604.6414,-68.0001 604.6415,-61.0001"/>
</g>
<!-- Node173 -->
<g id="node6" class="node">
<title>Node173</title>
<g id="a_node6"><a xlink:href="avr_2spi_2spi_8h.html#a3a0f3b324bd986778ccde00670dbabc9" target="_top" xlink:title="zrtos_vfs_module_avr\l_spi__on_interrupt">
<polygon fill="#ffffff" stroke="#000000" points="779,-49.5 779,-79.5 892,-79.5 892,-49.5 779,-49.5"/>
<text text-anchor="start" x="787" y="-67.5" font-family="Helvetica,sans-Serif" font-size="10.00" fill="#000000">zrtos_vfs_module_avr</text>
<text text-anchor="middle" x="835.5" y="-56.5" font-family="Helvetica,sans-Serif" font-size="10.00" fill="#000000">_spi__on_interrupt</text>
</a>
</g>
</g>
<!-- Node172&#45;&gt;Node173 -->
<g id="edge5" class="edge">
<title>Node172&#45;&gt;Node173</title>
<path fill="none" stroke="#191970" d="M753.3845,-64.5C761.8629,-64.5 770.4796,-64.5 778.7858,-64.5"/>
<polygon fill="#191970" stroke="#191970" points="753.1415,-61.0001 743.1415,-64.5 753.1414,-68.0001 753.1415,-61.0001"/>
</g>
<!-- Node174 -->
<g id="node7" class="node">
<title>Node174</title>
<g id="a_node7"><a xlink:href="avr_2spi_2spi_8h.html#a0353f98d744b931e541684fe33b272f7" target="_top" xlink:title="ISR">
<polygon fill="#ffffff" stroke="#000000" points="967.5,-77 967.5,-96 1001.5,-96 1001.5,-77 967.5,-77"/>
<text text-anchor="middle" x="984.5" y="-84" font-family="Helvetica,sans-Serif" font-size="10.00" fill="#000000">ISR</text>
</a>
</g>
</g>
<!-- Node173&#45;&gt;Node174 -->
<g id="edge6" class="edge">
<title>Node173&#45;&gt;Node174</title>
<path fill="none" stroke="#191970" d="M902.4328,-74.3827C926.3988,-77.9213 951.4203,-81.6157 967.4384,-83.9808"/>
<polygon fill="#191970" stroke="#191970" points="902.6596,-70.8783 892.2556,-72.88 901.637,-77.8032 902.6596,-70.8783"/>
</g>
<!-- Node175 -->
<g id="node8" class="node">
<title>Node175</title>
<g id="a_node8"><a xlink:href="avr_2spi_2spi_8h.html#ab6f547c3ce7ee0463c235abe078f9491" target="_top" xlink:title="zrtos_vfs_module_avr\l_spi__on_write">
<polygon fill="#ffffff" stroke="#000000" points="928,-27.5 928,-57.5 1041,-57.5 1041,-27.5 928,-27.5"/>
<text text-anchor="start" x="936" y="-45.5" font-family="Helvetica,sans-Serif" font-size="10.00" fill="#000000">zrtos_vfs_module_avr</text>
<text text-anchor="middle" x="984.5" y="-34.5" font-family="Helvetica,sans-Serif" font-size="10.00" fill="#000000">_spi__on_write</text>
</a>
</g>
</g>
<!-- Node173&#45;&gt;Node175 -->
<g id="edge7" class="edge">
<title>Node173&#45;&gt;Node175</title>
<path fill="none" stroke="#191970" d="M902.228,-54.6475C910.8009,-53.3817 919.5125,-52.0955 927.9022,-50.8567"/>
<polygon fill="#191970" stroke="#191970" points="901.637,-51.1968 892.2556,-56.12 902.6596,-58.1217 901.637,-51.1968"/>
</g>
<!-- Node177 -->
<g id="node10" class="node">
<title>Node177</title>
<g id="a_node10"><a xlink:href="sync_8h.html#affc4ed32d5b66e97fb25c63faaf49eed" target="_top" xlink:title="zrtos_vfs_module_avr\l_spi_sync__on_write">
<polygon fill="#ffffff" stroke="#000000" points="482,-.5 482,-30.5 595,-30.5 595,-.5 482,-.5"/>
<text text-anchor="start" x="490" y="-18.5" font-family="Helvetica,sans-Serif" font-size="10.00" fill="#000000">zrtos_vfs_module_avr</text>
<text text-anchor="middle" x="538.5" y="-7.5" font-family="Helvetica,sans-Serif" font-size="10.00" fill="#000000">_spi_sync__on_write</text>
</a>
</g>
</g>
<!-- Node176&#45;&gt;Node177 -->
<g id="edge9" class="edge">
<title>Node176&#45;&gt;Node177</title>
<path fill="none" stroke="#191970" d="M456.3845,-15.5C464.8629,-15.5 473.4796,-15.5 481.7858,-15.5"/>
<polygon fill="#191970" stroke="#191970" points="456.1415,-12.0001 446.1415,-15.5 456.1414,-19.0001 456.1415,-12.0001"/>
</g>
</g>
</svg>
