<?xml version="1.0" encoding="UTF-8" standalone="no"?>
<!DOCTYPE svg PUBLIC "-//W3C//DTD SVG 1.1//EN"
 "http://www.w3.org/Graphics/SVG/1.1/DTD/svg11.dtd">
<!-- Generated by graphviz version 2.40.1 (20161225.0304)
 -->
<!-- Title: zrtos_gpio__shift_out Pages: 1 -->
<svg width="397pt" height="91pt"
 viewBox="0.00 0.00 397.00 90.50" xmlns="http://www.w3.org/2000/svg" xmlns:xlink="http://www.w3.org/1999/xlink">
<g id="graph0" class="graph" transform="scale(1 1) rotate(0) translate(4 86.5)">
<title>zrtos_gpio__shift_out</title>
<polygon fill="#ffffff" stroke="transparent" points="-4,4 -4,-86.5 393,-86.5 393,4 -4,4"/>
<!-- Node184 -->
<g id="node1" class="node">
<title>Node184</title>
<polygon fill="#bfbfbf" stroke="#000000" points="0,-38.5 0,-57.5 110,-57.5 110,-38.5 0,-38.5"/>
<text text-anchor="middle" x="55" y="-45.5" font-family="Helvetica,sans-Serif" font-size="10.00" fill="#000000">zrtos_gpio__shift_out</text>
</g>
<!-- Node185 -->
<g id="node2" class="node">
<title>Node185</title>
<g id="a_node2"><a xlink:href="gpio_8h.html#ab031db7c74dcac4dbc16bfa8f00c8414" target="_top" xlink:title="zrtos_gpio__digital\l_write">
<polygon fill="#ffffff" stroke="#000000" points="291,-52 291,-82 389,-82 389,-52 291,-52"/>
<text text-anchor="start" x="299" y="-70" font-family="Helvetica,sans-Serif" font-size="10.00" fill="#000000">zrtos_gpio__digital</text>
<text text-anchor="middle" x="340" y="-59" font-family="Helvetica,sans-Serif" font-size="10.00" fill="#000000">_write</text>
</a>
</g>
</g>
<!-- Node184&#45;&gt;Node185 -->
<g id="edge1" class="edge">
<title>Node184&#45;&gt;Node185</title>
<path fill="none" stroke="#191970" d="M91.9195,-57.5092C108.3541,-61.2741 128.0196,-65.143 146,-67 191.0548,-71.6533 242.3099,-71.4177 280.8175,-70.1455"/>
<polygon fill="#191970" stroke="#191970" points="280.9555,-73.6429 290.8219,-69.7823 280.7015,-66.6475 280.9555,-73.6429"/>
</g>
<!-- Node186 -->
<g id="node3" class="node">
<title>Node186</title>
<g id="a_node3"><a xlink:href="gpio_8h.html#adf182ae6089f6e514abe34869ea54fb0" target="_top" xlink:title="zrtos_gpio__set_high">
<polygon fill="#ffffff" stroke="#000000" points="146,-38.5 146,-57.5 255,-57.5 255,-38.5 146,-38.5"/>
<text text-anchor="middle" x="200.5" y="-45.5" font-family="Helvetica,sans-Serif" font-size="10.00" fill="#000000">zrtos_gpio__set_high</text>
</a>
</g>
</g>
<!-- Node184&#45;&gt;Node186 -->
<g id="edge2" class="edge">
<title>Node184&#45;&gt;Node186</title>
<path fill="none" stroke="#191970" d="M110.0073,-48C118.4521,-48 127.2366,-48 135.8669,-48"/>
<polygon fill="#191970" stroke="#191970" points="135.8975,-51.5001 145.8975,-48 135.8975,-44.5001 135.8975,-51.5001"/>
</g>
<!-- Node187 -->
<g id="node4" class="node">
<title>Node187</title>
<g id="a_node4"><a xlink:href="gpio_8h.html#a54c6a96e2e8cb2b5bd47e9863328d499" target="_top" xlink:title="zrtos_gpio__set_low">
<polygon fill="#ffffff" stroke="#000000" points="147.5,-.5 147.5,-19.5 253.5,-19.5 253.5,-.5 147.5,-.5"/>
<text text-anchor="middle" x="200.5" y="-7.5" font-family="Helvetica,sans-Serif" font-size="10.00" fill="#000000">zrtos_gpio__set_low</text>
</a>
</g>
</g>
<!-- Node184&#45;&gt;Node187 -->
<g id="edge4" class="edge">
<title>Node184&#45;&gt;Node187</title>
<path fill="none" stroke="#191970" d="M91.7158,-38.411C110.6566,-33.4642 133.9572,-27.3789 154.1285,-22.1108"/>
<polygon fill="#191970" stroke="#191970" points="155.2572,-25.4335 164.0482,-19.5201 153.4883,-18.6606 155.2572,-25.4335"/>
</g>
<!-- Node186&#45;&gt;Node185 -->
<g id="edge3" class="edge">
<title>Node186&#45;&gt;Node185</title>
<path fill="none" stroke="#191970" d="M255.2337,-55.4548C263.5908,-56.593 272.2498,-57.7724 280.6995,-58.9232"/>
<polygon fill="#191970" stroke="#191970" points="280.4872,-62.4266 290.8681,-60.3082 281.432,-55.4906 280.4872,-62.4266"/>
</g>
</g>
</svg>
