<?xml version="1.0" encoding="UTF-8" standalone="no"?>
<!DOCTYPE svg PUBLIC "-//W3C//DTD SVG 1.1//EN"
 "http://www.w3.org/Graphics/SVG/1.1/DTD/svg11.dtd">
<!-- Generated by graphviz version 10.0.1 (20240210.2158)
 -->
<!-- Title: gpio.h Pages: 1 -->
<svg width="144pt" height="140pt"
 viewBox="0.00 0.00 143.62 140.00" xmlns="http://www.w3.org/2000/svg" xmlns:xlink="http://www.w3.org/1999/xlink">
<g id="graph0" class="graph" transform="scale(1 1) rotate(0) translate(4 136)">
<title>gpio.h</title>
<!-- Node1 -->
<g id="Node000001" class="node">
<title>Node1</title>
<g id="a_Node000001"><a xlink:title=" ">
<polygon fill="#999999" stroke="#666666" points="91.25,-132 49,-132 49,-112 91.25,-112 91.25,-132"/>
<text text-anchor="middle" x="70.12" y="-118.5" font-family="Helvetica,sans-Serif" font-size="10.00">gpio.h</text>
</a>
</g>
</g>
<!-- Node2 -->
<g id="Node000002" class="node">
<title>Node2</title>
<g id="a_Node000002"><a xlink:href="vfs_2module_2gpio_2gpio_8h.html" target="_top" xlink:title=" ">
<polygon fill="white" stroke="#666666" points="42.25,-76 0,-76 0,-56 42.25,-56 42.25,-76"/>
<text text-anchor="middle" x="21.12" y="-62.5" font-family="Helvetica,sans-Serif" font-size="10.00">gpio.h</text>
</a>
</g>
</g>
<!-- Node1&#45;&gt;Node2 -->
<g id="edge1_Node000001_Node000002" class="edge">
<title>Node1&#45;&gt;Node2</title>
<g id="a_edge1_Node000001_Node000002"><a xlink:title=" ">
<path fill="none" stroke="#63b8ff" d="M54.05,-103.29C45.88,-94.28 36.28,-83.7 29.56,-76.3"/>
<polygon fill="#63b8ff" stroke="#63b8ff" points="51.26,-105.42 60.57,-110.47 56.44,-100.72 51.26,-105.42"/>
</a>
</g>
</g>
<!-- Node4 -->
<g id="Node000004" class="node">
<title>Node4</title>
<g id="a_Node000004"><a xlink:href="avr_2spi_2spi_8h.html" target="_top" xlink:title=" ">
<polygon fill="white" stroke="#666666" points="116.62,-20 79.62,-20 79.62,0 116.62,0 116.62,-20"/>
<text text-anchor="middle" x="98.12" y="-6.5" font-family="Helvetica,sans-Serif" font-size="10.00">spi.h</text>
</a>
</g>
</g>
<!-- Node1&#45;&gt;Node4 -->
<g id="edge3_Node000001_Node000004" class="edge">
<title>Node1&#45;&gt;Node4</title>
<g id="a_edge3_Node000001_Node000004"><a xlink:title=" ">
<path fill="none" stroke="#63b8ff" d="M75.31,-100.64C81.4,-76.72 91.24,-38.03 95.74,-20.35"/>
<polygon fill="#63b8ff" stroke="#63b8ff" points="71.96,-99.6 72.89,-110.15 78.74,-101.33 71.96,-99.6"/>
</a>
</g>
</g>
<!-- Node5 -->
<g id="Node000005" class="node">
<title>Node5</title>
<g id="a_Node000005"><a xlink:href="spi_2spi_8h.html" target="_top" xlink:title=" ">
<polygon fill="white" stroke="#666666" points="135.62,-76 98.62,-76 98.62,-56 135.62,-56 135.62,-76"/>
<text text-anchor="middle" x="117.12" y="-62.5" font-family="Helvetica,sans-Serif" font-size="10.00">spi.h</text>
</a>
</g>
</g>
<!-- Node1&#45;&gt;Node5 -->
<g id="edge4_Node000001_Node000005" class="edge">
<title>Node1&#45;&gt;Node5</title>
<g id="a_edge4_Node000001_Node000005"><a xlink:title=" ">
<path fill="none" stroke="#63b8ff" d="M85.79,-103C93.57,-94.06 102.66,-83.62 109.03,-76.3"/>
<polygon fill="#63b8ff" stroke="#63b8ff" points="83.23,-100.61 79.31,-110.45 88.51,-105.21 83.23,-100.61"/>
</a>
</g>
</g>
<!-- Node3 -->
<g id="Node000003" class="node">
<title>Node3</title>
<g id="a_Node000003"><a xlink:href="vfs_2module_2arduino_2gpio_8h.html" target="_top" xlink:title=" ">
<polygon fill="white" stroke="#666666" points="42.25,-20 0,-20 0,0 42.25,0 42.25,-20"/>
<text text-anchor="middle" x="21.12" y="-6.5" font-family="Helvetica,sans-Serif" font-size="10.00">gpio.h</text>
</a>
</g>
</g>
<!-- Node2&#45;&gt;Node3 -->
<g id="edge2_Node000002_Node000003" class="edge">
<title>Node2&#45;&gt;Node3</title>
<g id="a_edge2_Node000002_Node000003"><a xlink:title=" ">
<path fill="none" stroke="#63b8ff" d="M21.12,-44.13C21.12,-35.9 21.12,-26.85 21.12,-20.3"/>
<polygon fill="#63b8ff" stroke="#63b8ff" points="17.63,-44.08 21.13,-54.08 24.63,-44.08 17.63,-44.08"/>
</a>
</g>
</g>
<!-- Node5&#45;&gt;Node4 -->
<g id="edge5_Node000005_Node000004" class="edge">
<title>Node5&#45;&gt;Node4</title>
<g id="a_edge5_Node000005_Node000004"><a xlink:title=" ">
<path fill="none" stroke="#63b8ff" d="M110.09,-45C107.11,-36.54 103.78,-27.08 101.4,-20.3"/>
<polygon fill="#63b8ff" stroke="#63b8ff" points="106.69,-45.89 113.31,-54.17 113.3,-43.57 106.69,-45.89"/>
</a>
</g>
</g>
</g>
</svg>
