<?xml version="1.0" encoding="UTF-8" standalone="no"?>
<!DOCTYPE svg PUBLIC "-//W3C//DTD SVG 1.1//EN"
 "http://www.w3.org/Graphics/SVG/1.1/DTD/svg11.dtd">
<!-- Generated by graphviz version 10.0.1 (20240210.2158)
 -->
<!-- Title: zrtos_gpio__set_low Pages: 1 -->
<svg width="424pt" height="28pt"
 viewBox="0.00 0.00 423.50 28.00" xmlns="http://www.w3.org/2000/svg" xmlns:xlink="http://www.w3.org/1999/xlink">
<g id="graph0" class="graph" transform="scale(1 1) rotate(0) translate(4 24)">
<title>zrtos_gpio__set_low</title>
<!-- Node1 -->
<g id="Node000001" class="node">
<title>Node1</title>
<g id="a_Node000001"><a xlink:title=" ">
<polygon fill="#999999" stroke="#666666" points="415.5,-20 311,-20 311,0 415.5,0 415.5,-20"/>
<text text-anchor="middle" x="363.25" y="-6.5" font-family="Helvetica,sans-Serif" font-size="10.00">zrtos_gpio__set_low</text>
</a>
</g>
</g>
<!-- Node2 -->
<g id="Node000002" class="node">
<title>Node2</title>
<g id="a_Node000002"><a xlink:href="gpio_8h.html#a61079337a9a107f175ee95c7ebc50aeb" target="_top" xlink:title=" ">
<polygon fill="white" stroke="#666666" points="275,-20 156.25,-20 156.25,0 275,0 275,-20"/>
<text text-anchor="middle" x="215.62" y="-6.5" font-family="Helvetica,sans-Serif" font-size="10.00">zrtos_gpio__set_low_va</text>
</a>
</g>
</g>
<!-- Node1&#45;&gt;Node2 -->
<g id="edge1_Node000001_Node000002" class="edge">
<title>Node1&#45;&gt;Node2</title>
<g id="a_edge1_Node000001_Node000002"><a xlink:title=" ">
<path fill="none" stroke="#63b8ff" d="M299.42,-10C291.46,-10 283.35,-10 275.46,-10"/>
<polygon fill="#63b8ff" stroke="#63b8ff" points="299.39,-13.5 309.39,-10 299.39,-6.5 299.39,-13.5"/>
</a>
</g>
</g>
<!-- Node3 -->
<g id="Node000003" class="node">
<title>Node3</title>
<g id="a_Node000003"><a xlink:href="gpio_8h.html#ab4fe38cf130b336fe5db3da8cfe24003" target="_top" xlink:title=" ">
<polygon fill="white" stroke="#666666" points="120.25,-20 0,-20 0,0 120.25,0 120.25,-20"/>
<text text-anchor="middle" x="60.12" y="-6.5" font-family="Helvetica,sans-Serif" font-size="10.00">zrtos_gpio__set_low_ex</text>
</a>
</g>
</g>
<!-- Node2&#45;&gt;Node3 -->
<g id="edge2_Node000002_Node000003" class="edge">
<title>Node2&#45;&gt;Node3</title>
<g id="a_edge2_Node000002_Node000003"><a xlink:title=" ">
<path fill="none" stroke="#63b8ff" d="M144.86,-10C136.79,-10 128.62,-10 120.7,-10"/>
<polygon fill="#63b8ff" stroke="#63b8ff" points="144.64,-13.5 154.64,-10 144.64,-6.5 144.64,-13.5"/>
</a>
</g>
</g>
</g>
</svg>
