<?xml version="1.0" encoding="UTF-8" standalone="no"?>
<!DOCTYPE svg PUBLIC "-//W3C//DTD SVG 1.1//EN"
 "http://www.w3.org/Graphics/SVG/1.1/DTD/svg11.dtd">
<!-- Generated by graphviz version 10.0.1 (20240210.2158)
 -->
<!-- Title: zrtos_gpio__set_low_va Pages: 1 -->
<svg width="285pt" height="66pt"
 viewBox="0.00 0.00 285.25 66.00" xmlns="http://www.w3.org/2000/svg" xmlns:xlink="http://www.w3.org/1999/xlink">
<g id="graph0" class="graph" transform="scale(1 1) rotate(0) translate(4 62)">
<title>zrtos_gpio__set_low_va</title>
<!-- Node1 -->
<g id="Node000001" class="node">
<title>Node1</title>
<g id="a_Node000001"><a xlink:title=" ">
<polygon fill="#999999" stroke="#666666" points="118.75,-39 0,-39 0,-19 118.75,-19 118.75,-39"/>
<text text-anchor="middle" x="59.38" y="-25.5" font-family="Helvetica,sans-Serif" font-size="10.00">zrtos_gpio__set_low_va</text>
</a>
</g>
</g>
<!-- Node2 -->
<g id="Node000002" class="node">
<title>Node2</title>
<g id="a_Node000002"><a xlink:href="error_8h.html#add13298163f63b7d37ed9f12d57e1a31" target="_top" xlink:title=" ">
<polygon fill="white" stroke="#666666" points="277.25,-58 154.75,-58 154.75,-38 277.25,-38 277.25,-58"/>
<text text-anchor="middle" x="216" y="-44.5" font-family="Helvetica,sans-Serif" font-size="10.00">zrtos_error__is_success</text>
</a>
</g>
</g>
<!-- Node1&#45;&gt;Node2 -->
<g id="edge1_Node000001_Node000002" class="edge">
<title>Node1&#45;&gt;Node2</title>
<g id="a_edge1_Node000001_Node000002"><a xlink:title=" ">
<path fill="none" stroke="#63b8ff" d="M118.83,-36.18C126.74,-37.15 134.92,-38.16 143.03,-39.16"/>
<polygon fill="#63b8ff" stroke="#63b8ff" points="142.55,-42.62 152.9,-40.37 143.4,-35.68 142.55,-42.62"/>
</a>
</g>
</g>
<!-- Node3 -->
<g id="Node000003" class="node">
<title>Node3</title>
<g id="a_Node000003"><a xlink:href="gpio_8h.html#a54c6a96e2e8cb2b5bd47e9863328d499" target="_top" xlink:title=" ">
<polygon fill="white" stroke="#666666" points="268.25,-20 163.75,-20 163.75,0 268.25,0 268.25,-20"/>
<text text-anchor="middle" x="216" y="-6.5" font-family="Helvetica,sans-Serif" font-size="10.00">zrtos_gpio__set_low</text>
</a>
</g>
</g>
<!-- Node1&#45;&gt;Node3 -->
<g id="edge2_Node000001_Node000003" class="edge">
<title>Node1&#45;&gt;Node3</title>
<g id="a_edge2_Node000001_Node000003"><a xlink:title=" ">
<path fill="none" stroke="#63b8ff" d="M118.83,-21.82C129.69,-20.48 141.07,-19.08 152.05,-17.74"/>
<polygon fill="#63b8ff" stroke="#63b8ff" points="152.31,-21.23 161.81,-16.54 151.45,-14.28 152.31,-21.23"/>
</a>
</g>
</g>
</g>
</svg>
