<?xml version="1.0" encoding="UTF-8" standalone="no"?>
<!DOCTYPE svg PUBLIC "-//W3C//DTD SVG 1.1//EN"
 "http://www.w3.org/Graphics/SVG/1.1/DTD/svg11.dtd">
<!-- Generated by graphviz version 2.40.1 (20161225.0304)
 -->
<!-- Title: zrtos_gpio__set_high Pages: 1 -->
<svg width="886pt" height="280pt"
 viewBox="0.00 0.00 886.00 279.50" xmlns="http://www.w3.org/2000/svg" xmlns:xlink="http://www.w3.org/1999/xlink">
<g id="graph0" class="graph" transform="scale(1 1) rotate(0) translate(4 275.5)">
<title>zrtos_gpio__set_high</title>
<polygon fill="#ffffff" stroke="transparent" points="-4,4 -4,-275.5 882,-275.5 882,4 -4,4"/>
<!-- Node87 -->
<g id="node1" class="node">
<title>Node87</title>
<polygon fill="#bfbfbf" stroke="#000000" points="0,-154 0,-173 109,-173 109,-154 0,-154"/>
<text text-anchor="middle" x="54.5" y="-161" font-family="Helvetica,sans-Serif" font-size="10.00" fill="#000000">zrtos_gpio__set_high</text>
</g>
<!-- Node88 -->
<g id="node2" class="node">
<title>Node88</title>
<g id="a_node2"><a xlink:href="gpio_8h.html#a18d01a230a28c80656ed510d10a1ef91" target="_top" xlink:title="zrtos_gpio__set_high_va">
<polygon fill="#ffffff" stroke="#000000" points="145,-252 145,-271 270,-271 270,-252 145,-252"/>
<text text-anchor="middle" x="207.5" y="-259" font-family="Helvetica,sans-Serif" font-size="10.00" fill="#000000">zrtos_gpio__set_high_va</text>
</a>
</g>
</g>
<!-- Node87&#45;&gt;Node88 -->
<g id="edge1" class="edge">
<title>Node87&#45;&gt;Node88</title>
<path fill="none" stroke="#191970" d="M69.8731,-180.6643C86.6995,-198.4821 115.2655,-226.0084 145,-242.5 151.8432,-246.2954 159.538,-249.4252 167.1281,-251.9724"/>
<polygon fill="#191970" stroke="#191970" points="72.3642,-178.2029 63.0061,-173.2354 67.2238,-182.9545 72.3642,-178.2029"/>
</g>
<!-- Node90 -->
<g id="node4" class="node">
<title>Node90</title>
<g id="a_node4"><a xlink:href="gpio_8h.html#aed5f26b5dc5a1f891ad09bec96691b05" target="_top" xlink:title="zrtos_gpio__shift_in">
<polygon fill="#ffffff" stroke="#000000" points="155.5,-214 155.5,-233 259.5,-233 259.5,-214 155.5,-214"/>
<text text-anchor="middle" x="207.5" y="-221" font-family="Helvetica,sans-Serif" font-size="10.00" fill="#000000">zrtos_gpio__shift_in</text>
</a>
</g>
</g>
<!-- Node87&#45;&gt;Node90 -->
<g id="edge3" class="edge">
<title>Node87&#45;&gt;Node90</title>
<path fill="none" stroke="#191970" d="M82.7831,-177.462C100.4305,-185.8845 123.7534,-196.4967 145,-204.5 154.0211,-207.8981 163.9419,-211.1343 173.1704,-213.9415"/>
<polygon fill="#191970" stroke="#191970" points="84.1397,-174.2306 73.6122,-173.0386 81.0987,-180.5355 84.1397,-174.2306"/>
</g>
<!-- Node91 -->
<g id="node5" class="node">
<title>Node91</title>
<g id="a_node5"><a xlink:href="gpio_8h.html#ab49fa21e06050251bf1f9598d4c4bb1b" target="_top" xlink:title="zrtos_gpio__shift_out">
<polygon fill="#ffffff" stroke="#000000" points="152.5,-176 152.5,-195 262.5,-195 262.5,-176 152.5,-176"/>
<text text-anchor="middle" x="207.5" y="-183" font-family="Helvetica,sans-Serif" font-size="10.00" fill="#000000">zrtos_gpio__shift_out</text>
</a>
</g>
</g>
<!-- Node87&#45;&gt;Node91 -->
<g id="edge4" class="edge">
<title>Node87&#45;&gt;Node91</title>
<path fill="none" stroke="#191970" d="M119.2783,-172.8145C130.2693,-174.3949 141.591,-176.0229 152.3066,-177.5637"/>
<polygon fill="#191970" stroke="#191970" points="119.7007,-169.3394 109.3044,-171.3804 118.7044,-176.2681 119.7007,-169.3394"/>
</g>
<!-- Node92 -->
<g id="node6" class="node">
<title>Node92</title>
<g id="a_node6"><a xlink:href="spi_2spi_8h.html#ad566b8f0d10d460dbfa130473b8c43bc" target="_top" xlink:title="zrtos_vfs_module_spi\l__set_high">
<polygon fill="#ffffff" stroke="#000000" points="151.5,-126.5 151.5,-156.5 263.5,-156.5 263.5,-126.5 151.5,-126.5"/>
<text text-anchor="start" x="159.5" y="-144.5" font-family="Helvetica,sans-Serif" font-size="10.00" fill="#000000">zrtos_vfs_module_spi</text>
<text text-anchor="middle" x="207.5" y="-133.5" font-family="Helvetica,sans-Serif" font-size="10.00" fill="#000000">__set_high</text>
</a>
</g>
</g>
<!-- Node87&#45;&gt;Node92 -->
<g id="edge5" class="edge">
<title>Node87&#45;&gt;Node92</title>
<path fill="none" stroke="#191970" d="M119.3588,-154.1739C129.9723,-152.6478 140.8918,-151.0776 151.2744,-149.5847"/>
<polygon fill="#191970" stroke="#191970" points="118.7044,-150.7319 109.3044,-155.6196 119.7007,-157.6606 118.7044,-150.7319"/>
</g>
<!-- Node98 -->
<g id="node12" class="node">
<title>Node98</title>
<g id="a_node12"><a xlink:href="spi__sync_8h.html#a29c9d8a32af2717c5e9ed8e11d0800fa" target="_top" xlink:title="zrtos_vfs_module_spi\l_sync__on_open">
<polygon fill="#ffffff" stroke="#000000" points="151.5,-77.5 151.5,-107.5 263.5,-107.5 263.5,-77.5 151.5,-77.5"/>
<text text-anchor="start" x="159.5" y="-95.5" font-family="Helvetica,sans-Serif" font-size="10.00" fill="#000000">zrtos_vfs_module_spi</text>
<text text-anchor="middle" x="207.5" y="-84.5" font-family="Helvetica,sans-Serif" font-size="10.00" fill="#000000">_sync__on_open</text>
</a>
</g>
</g>
<!-- Node87&#45;&gt;Node98 -->
<g id="edge11" class="edge">
<title>Node87&#45;&gt;Node98</title>
<path fill="none" stroke="#191970" d="M81.5161,-148.9656C99.3448,-139.5741 123.3268,-127.3189 145,-117.5 152.4515,-114.1241 160.501,-110.7252 168.2643,-107.5683"/>
<polygon fill="#191970" stroke="#191970" points="79.4924,-146.077 72.2982,-153.8548 82.7724,-152.261 79.4924,-146.077"/>
</g>
<!-- Node101 -->
<g id="node15" class="node">
<title>Node101</title>
<g id="a_node15"><a xlink:href="spi__sync_8h.html#acad5edb178ed84b8a1b7b3a877dbcd61" target="_top" xlink:title="zrtos_vfs_module_spi\l_sync__on_write_helper">
<polygon fill="#ffffff" stroke="#000000" points="307.5,-.5 307.5,-30.5 429.5,-30.5 429.5,-.5 307.5,-.5"/>
<text text-anchor="start" x="315.5" y="-18.5" font-family="Helvetica,sans-Serif" font-size="10.00" fill="#000000">zrtos_vfs_module_spi</text>
<text text-anchor="middle" x="368.5" y="-7.5" font-family="Helvetica,sans-Serif" font-size="10.00" fill="#000000">_sync__on_write_helper</text>
</a>
</g>
</g>
<!-- Node87&#45;&gt;Node101 -->
<g id="edge15" class="edge">
<title>Node87&#45;&gt;Node101</title>
<path fill="none" stroke="#191970" d="M66.4979,-145.6401C82.0192,-123.9777 111.122,-87.9532 145,-68.5 195.1444,-39.7063 260.187,-26.5272 307.1638,-20.5118"/>
<polygon fill="#191970" stroke="#191970" points="63.5497,-143.7491 60.7032,-153.9544 69.2925,-147.7517 63.5497,-143.7491"/>
</g>
<!-- Node89 -->
<g id="node3" class="node">
<title>Node89</title>
<g id="a_node3"><a xlink:href="gpio_8h.html#a0a8aaa3086b2bbb79c60316413c96f7c" target="_top" xlink:title="zrtos_gpio__set_high_ex">
<polygon fill="#ffffff" stroke="#000000" points="306,-252 306,-271 431,-271 431,-252 306,-252"/>
<text text-anchor="middle" x="368.5" y="-259" font-family="Helvetica,sans-Serif" font-size="10.00" fill="#000000">zrtos_gpio__set_high_ex</text>
</a>
</g>
</g>
<!-- Node88&#45;&gt;Node89 -->
<g id="edge2" class="edge">
<title>Node88&#45;&gt;Node89</title>
<path fill="none" stroke="#191970" d="M280.2184,-261.5C288.8129,-261.5 297.5268,-261.5 305.9633,-261.5"/>
<polygon fill="#191970" stroke="#191970" points="280.2078,-258.0001 270.2078,-261.5 280.2078,-265.0001 280.2078,-258.0001"/>
</g>
<!-- Node93 -->
<g id="node7" class="node">
<title>Node93</title>
<g id="a_node7"><a xlink:href="spi_2spi_8h.html#a7cc1a52aa2cec6b681b7732681bda10b" target="_top" xlink:title="zrtos_vfs_module_spi\l__transfer_out">
<polygon fill="#ffffff" stroke="#000000" points="312.5,-137.5 312.5,-167.5 424.5,-167.5 424.5,-137.5 312.5,-137.5"/>
<text text-anchor="start" x="320.5" y="-155.5" font-family="Helvetica,sans-Serif" font-size="10.00" fill="#000000">zrtos_vfs_module_spi</text>
<text text-anchor="middle" x="368.5" y="-144.5" font-family="Helvetica,sans-Serif" font-size="10.00" fill="#000000">__transfer_out</text>
</a>
</g>
</g>
<!-- Node92&#45;&gt;Node93 -->
<g id="edge6" class="edge">
<title>Node92&#45;&gt;Node93</title>
<path fill="none" stroke="#191970" d="M273.9512,-146.0401C286.7596,-146.9153 300.0576,-147.8238 312.4937,-148.6735"/>
<polygon fill="#191970" stroke="#191970" points="274.0253,-142.5371 263.81,-145.3473 273.5481,-149.5209 274.0253,-142.5371"/>
</g>
<!-- Node94 -->
<g id="node8" class="node">
<title>Node94</title>
<g id="a_node8"><a xlink:href="spi_2spi_8h.html#ab31c12597a3f2932aaf01466ffff59bb" target="_top" xlink:title="zrtos_vfs_module_spi\l__transfer">
<polygon fill="#ffffff" stroke="#000000" points="467.5,-137.5 467.5,-167.5 579.5,-167.5 579.5,-137.5 467.5,-137.5"/>
<text text-anchor="start" x="475.5" y="-155.5" font-family="Helvetica,sans-Serif" font-size="10.00" fill="#000000">zrtos_vfs_module_spi</text>
<text text-anchor="middle" x="523.5" y="-144.5" font-family="Helvetica,sans-Serif" font-size="10.00" fill="#000000">__transfer</text>
</a>
</g>
</g>
<!-- Node93&#45;&gt;Node94 -->
<g id="edge7" class="edge">
<title>Node93&#45;&gt;Node94</title>
<path fill="none" stroke="#191970" d="M435.1029,-152.5C445.8683,-152.5 456.92,-152.5 467.4045,-152.5"/>
<polygon fill="#191970" stroke="#191970" points="434.8971,-149.0001 424.897,-152.5 434.897,-156.0001 434.8971,-149.0001"/>
</g>
<!-- Node95 -->
<g id="node9" class="node">
<title>Node95</title>
<g id="a_node9"><a xlink:href="avr_2spi_2spi_8h.html#a3a0f3b324bd986778ccde00670dbabc9" target="_top" xlink:title="zrtos_vfs_module_avr\l_spi__on_interrupt">
<polygon fill="#ffffff" stroke="#000000" points="616,-137.5 616,-167.5 729,-167.5 729,-137.5 616,-137.5"/>
<text text-anchor="start" x="624" y="-155.5" font-family="Helvetica,sans-Serif" font-size="10.00" fill="#000000">zrtos_vfs_module_avr</text>
<text text-anchor="middle" x="672.5" y="-144.5" font-family="Helvetica,sans-Serif" font-size="10.00" fill="#000000">_spi__on_interrupt</text>
</a>
</g>
</g>
<!-- Node94&#45;&gt;Node95 -->
<g id="edge8" class="edge">
<title>Node94&#45;&gt;Node95</title>
<path fill="none" stroke="#191970" d="M590.108,-152.5C598.6149,-152.5 607.2607,-152.5 615.5949,-152.5"/>
<polygon fill="#191970" stroke="#191970" points="589.8305,-149.0001 579.8305,-152.5 589.8305,-156.0001 589.8305,-149.0001"/>
</g>
<!-- Node96 -->
<g id="node10" class="node">
<title>Node96</title>
<g id="a_node10"><a xlink:href="avr_2spi_2spi_8h.html#a0353f98d744b931e541684fe33b272f7" target="_top" xlink:title="ISR">
<polygon fill="#ffffff" stroke="#000000" points="804.5,-165 804.5,-184 838.5,-184 838.5,-165 804.5,-165"/>
<text text-anchor="middle" x="821.5" y="-172" font-family="Helvetica,sans-Serif" font-size="10.00" fill="#000000">ISR</text>
</a>
</g>
</g>
<!-- Node95&#45;&gt;Node96 -->
<g id="edge9" class="edge">
<title>Node95&#45;&gt;Node96</title>
<path fill="none" stroke="#191970" d="M739.4328,-162.3827C763.3988,-165.9213 788.4203,-169.6157 804.4384,-171.9808"/>
<polygon fill="#191970" stroke="#191970" points="739.6596,-158.8783 729.2556,-160.88 738.637,-165.8032 739.6596,-158.8783"/>
</g>
<!-- Node97 -->
<g id="node11" class="node">
<title>Node97</title>
<g id="a_node11"><a xlink:href="avr_2spi_2spi_8h.html#ab6f547c3ce7ee0463c235abe078f9491" target="_top" xlink:title="zrtos_vfs_module_avr\l_spi__on_write">
<polygon fill="#ffffff" stroke="#000000" points="765,-115.5 765,-145.5 878,-145.5 878,-115.5 765,-115.5"/>
<text text-anchor="start" x="773" y="-133.5" font-family="Helvetica,sans-Serif" font-size="10.00" fill="#000000">zrtos_vfs_module_avr</text>
<text text-anchor="middle" x="821.5" y="-122.5" font-family="Helvetica,sans-Serif" font-size="10.00" fill="#000000">_spi__on_write</text>
</a>
</g>
</g>
<!-- Node95&#45;&gt;Node97 -->
<g id="edge10" class="edge">
<title>Node95&#45;&gt;Node97</title>
<path fill="none" stroke="#191970" d="M739.228,-142.6475C747.8009,-141.3817 756.5125,-140.0955 764.9022,-138.8567"/>
<polygon fill="#191970" stroke="#191970" points="738.637,-139.1968 729.2556,-144.12 739.6596,-146.1217 738.637,-139.1968"/>
</g>
<!-- Node99 -->
<g id="node13" class="node">
<title>Node99</title>
<g id="a_node13"><a xlink:href="spi__sync_8h.html#a2e3a53c5cd6e19f7859fcf16506d44ec" target="_top" xlink:title="zrtos_vfs_module_spi\l_sync__on_close">
<polygon fill="#ffffff" stroke="#000000" points="312.5,-88.5 312.5,-118.5 424.5,-118.5 424.5,-88.5 312.5,-88.5"/>
<text text-anchor="start" x="320.5" y="-106.5" font-family="Helvetica,sans-Serif" font-size="10.00" fill="#000000">zrtos_vfs_module_spi</text>
<text text-anchor="middle" x="368.5" y="-95.5" font-family="Helvetica,sans-Serif" font-size="10.00" fill="#000000">_sync__on_close</text>
</a>
</g>
</g>
<!-- Node98&#45;&gt;Node99 -->
<g id="edge12" class="edge">
<title>Node98&#45;&gt;Node99</title>
<path fill="none" stroke="#191970" d="M273.9512,-97.0401C286.7596,-97.9153 300.0576,-98.8238 312.4937,-99.6735"/>
<polygon fill="#191970" stroke="#191970" points="274.0253,-93.5371 263.81,-96.3473 273.5481,-100.5209 274.0253,-93.5371"/>
</g>
<!-- Node100 -->
<g id="node14" class="node">
<title>Node100</title>
<g id="a_node14"><a xlink:href="sync_8h.html#affc4ed32d5b66e97fb25c63faaf49eed" target="_top" xlink:title="zrtos_vfs_module_avr\l_spi_sync__on_write">
<polygon fill="#ffffff" stroke="#000000" points="467,-44.5 467,-74.5 580,-74.5 580,-44.5 467,-44.5"/>
<text text-anchor="start" x="475" y="-62.5" font-family="Helvetica,sans-Serif" font-size="10.00" fill="#000000">zrtos_vfs_module_avr</text>
<text text-anchor="middle" x="523.5" y="-51.5" font-family="Helvetica,sans-Serif" font-size="10.00" fill="#000000">_spi_sync__on_write</text>
</a>
</g>
</g>
<!-- Node98&#45;&gt;Node100 -->
<g id="edge14" class="edge">
<title>Node98&#45;&gt;Node100</title>
<path fill="none" stroke="#191970" d="M273.8852,-83.3743C284.6134,-82.0044 295.6077,-80.6631 306,-79.5 360.454,-73.4054 422.7316,-67.8189 466.6513,-64.1086"/>
<polygon fill="#191970" stroke="#191970" points="273.1771,-79.9367 263.7091,-84.6915 274.0757,-86.8787 273.1771,-79.9367"/>
</g>
<!-- Node99&#45;&gt;Node100 -->
<g id="edge13" class="edge">
<title>Node99&#45;&gt;Node100</title>
<path fill="none" stroke="#191970" d="M431.246,-85.6882C444.2915,-81.985 457.9162,-78.1173 470.5668,-74.5262"/>
<polygon fill="#191970" stroke="#191970" points="430.0728,-82.3829 421.4087,-88.4808 431.9844,-89.1168 430.0728,-82.3829"/>
</g>
<!-- Node101&#45;&gt;Node100 -->
<g id="edge16" class="edge">
<title>Node101&#45;&gt;Node100</title>
<path fill="none" stroke="#191970" d="M431.246,-33.3118C444.2915,-37.015 457.9162,-40.8827 470.5668,-44.4738"/>
<polygon fill="#191970" stroke="#191970" points="431.9844,-29.8832 421.4087,-30.5192 430.0728,-36.6171 431.9844,-29.8832"/>
</g>
</g>
</svg>
