<?xml version="1.0" encoding="UTF-8" standalone="no"?>
<!DOCTYPE svg PUBLIC "-//W3C//DTD SVG 1.1//EN"
 "http://www.w3.org/Graphics/SVG/1.1/DTD/svg11.dtd">
<!-- Generated by graphviz version 10.0.1 (20240210.2158)
 -->
<!-- Title: W5500 Pages: 1 -->
<svg width="204pt" height="66pt"
 viewBox="0.00 0.00 204.25 66.00" xmlns="http://www.w3.org/2000/svg" xmlns:xlink="http://www.w3.org/1999/xlink">
<g id="graph0" class="graph" transform="scale(1 1) rotate(0) translate(4 62)">
<title>W5500</title>
<!-- Node1 -->
<g id="Node000001" class="node">
<title>Node1</title>
<g id="a_Node000001"><a xlink:title=" ">
<polygon fill="#999999" stroke="#666666" points="46.75,-39 0,-39 0,-19 46.75,-19 46.75,-39"/>
<text text-anchor="middle" x="23.38" y="-25.5" font-family="Helvetica,sans-Serif" font-size="10.00">W5500</text>
</a>
</g>
</g>
<!-- Node3 -->
<g id="Node000003" class="node">
<title>Node3</title>
<g id="a_Node000003"><a xlink:href="group___w_i_z_c_h_i_p___i_o___functions.html" target="_top" xlink:title=" ">
<polygon fill="white" stroke="#666666" points="196.25,-58 82.75,-58 82.75,-38 196.25,-38 196.25,-58"/>
<text text-anchor="middle" x="139.5" y="-44.5" font-family="Helvetica,sans-Serif" font-size="10.00">WIZCHIP I/O functions</text>
</a>
</g>
</g>
<!-- Node1&#45;&gt;Node3 -->
<g id="edge2" class="edge">
<title>Node1&#45;&gt;Node3</title>
<path fill="none" stroke="black" d="M58.53,-34.69C66.15,-35.95 74.42,-37.33 82.65,-38.7"/>
<polygon fill="black" stroke="black" points="59.13,-31.24 48.69,-33.05 57.98,-38.14 59.13,-31.24"/>
</g>
<!-- Node2 -->
<g id="Node000002" class="node">
<title>Node2</title>
<g id="a_Node000002"><a xlink:href="group___w_i_z_c_h_i_p__register.html" target="_top" xlink:title=" ">
<polygon fill="white" stroke="#666666" points="185,-20 94,-20 94,0 185,0 185,-20"/>
<text text-anchor="middle" x="139.5" y="-6.5" font-family="Helvetica,sans-Serif" font-size="10.00">WIZCHIP register</text>
</a>
</g>
</g>
<!-- Node1&#45;&gt;Node2 -->
<g id="edge1" class="edge">
<title>Node1&#45;&gt;Node2</title>
<path fill="none" stroke="black" d="M58.5,-23.32C69.51,-21.49 81.87,-19.43 93.54,-17.49"/>
<polygon fill="black" stroke="black" points="57.98,-19.86 48.69,-24.95 59.13,-26.76 57.98,-19.86"/>
</g>
</g>
</svg>
