<?xml version="1.0" encoding="UTF-8" standalone="no"?>
<!DOCTYPE svg PUBLIC "-//W3C//DTD SVG 1.1//EN"
 "http://www.w3.org/Graphics/SVG/1.1/DTD/svg11.dtd">
<!-- Generated by graphviz version 2.40.1 (20161225.0304)
 -->
<!-- Title: zrtos_list_node__get_next_node Pages: 1 -->
<svg width="1221pt" height="710pt"
 viewBox="0.00 0.00 1221.00 710.00" xmlns="http://www.w3.org/2000/svg" xmlns:xlink="http://www.w3.org/1999/xlink">
<g id="graph0" class="graph" transform="scale(1 1) rotate(0) translate(4 706)">
<title>zrtos_list_node__get_next_node</title>
<polygon fill="#ffffff" stroke="transparent" points="-4,4 -4,-706 1217,-706 1217,4 -4,4"/>
<!-- Node282 -->
<g id="node1" class="node">
<title>Node282</title>
<polygon fill="#bfbfbf" stroke="#000000" points="0,-100.5 0,-130.5 107,-130.5 107,-100.5 0,-100.5"/>
<text text-anchor="start" x="8" y="-118.5" font-family="Helvetica,sans-Serif" font-size="10.00" fill="#000000">zrtos_list_node__get</text>
<text text-anchor="middle" x="53.5" y="-107.5" font-family="Helvetica,sans-Serif" font-size="10.00" fill="#000000">_next_node</text>
</g>
<!-- Node283 -->
<g id="node2" class="node">
<title>Node283</title>
<g id="a_node2"><a xlink:href="cbuffer_8h.html#ae358d265d5a1d44fa930473e3834bc4c" target="_top" xlink:title="zrtos_cbuffer_node\l__get_next_node">
<polygon fill="#ffffff" stroke="#000000" points="143,-100.5 143,-130.5 243,-130.5 243,-100.5 143,-100.5"/>
<text text-anchor="start" x="151" y="-118.5" font-family="Helvetica,sans-Serif" font-size="10.00" fill="#000000">zrtos_cbuffer_node</text>
<text text-anchor="middle" x="193" y="-107.5" font-family="Helvetica,sans-Serif" font-size="10.00" fill="#000000">__get_next_node</text>
</a>
</g>
</g>
<!-- Node282&#45;&gt;Node283 -->
<g id="edge1" class="edge">
<title>Node282&#45;&gt;Node283</title>
<path fill="none" stroke="#191970" d="M117.2901,-115.5C125.7733,-115.5 134.3748,-115.5 142.588,-115.5"/>
<polygon fill="#191970" stroke="#191970" points="117.0354,-112.0001 107.0354,-115.5 117.0353,-119.0001 117.0354,-112.0001"/>
</g>
<!-- Node284 -->
<g id="node3" class="node">
<title>Node284</title>
<g id="a_node3"><a xlink:href="cbuffer_8h.html#a9aa1ad8581d3c89304d2ff464a53e92e" target="_top" xlink:title="zrtos_cbuffer__rollback\l_write_transaction">
<polygon fill="#ffffff" stroke="#000000" points="279,-173.5 279,-203.5 397,-203.5 397,-173.5 279,-173.5"/>
<text text-anchor="start" x="287" y="-191.5" font-family="Helvetica,sans-Serif" font-size="10.00" fill="#000000">zrtos_cbuffer__rollback</text>
<text text-anchor="middle" x="338" y="-180.5" font-family="Helvetica,sans-Serif" font-size="10.00" fill="#000000">_write_transaction</text>
</a>
</g>
</g>
<!-- Node283&#45;&gt;Node284 -->
<g id="edge2" class="edge">
<title>Node283&#45;&gt;Node284</title>
<path fill="none" stroke="#191970" d="M232.1843,-135.2273C256.0356,-147.2352 286.0345,-162.338 307.9944,-173.3937"/>
<polygon fill="#191970" stroke="#191970" points="233.5499,-131.9963 223.0441,-130.6256 230.4021,-138.2486 233.5499,-131.9963"/>
</g>
<!-- Node305 -->
<g id="node24" class="node">
<title>Node305</title>
<g id="a_node24"><a xlink:href="cbuffer_8h.html#a0de747476125e18253e2b006fb9ec995" target="_top" xlink:title="zrtos_cbuffer__hash">
<polygon fill="#ffffff" stroke="#000000" points="285.5,-62 285.5,-81 390.5,-81 390.5,-62 285.5,-62"/>
<text text-anchor="middle" x="338" y="-69" font-family="Helvetica,sans-Serif" font-size="10.00" fill="#000000">zrtos_cbuffer__hash</text>
</a>
</g>
</g>
<!-- Node283&#45;&gt;Node305 -->
<g id="edge27" class="edge">
<title>Node283&#45;&gt;Node305</title>
<path fill="none" stroke="#191970" d="M252.0868,-97.5702C270.6934,-91.9241 290.5213,-85.9073 306.4352,-81.0783"/>
<polygon fill="#191970" stroke="#191970" points="251.048,-94.2278 242.4952,-100.4808 253.0807,-100.9262 251.048,-94.2278"/>
</g>
<!-- Node306 -->
<g id="node25" class="node">
<title>Node306</title>
<g id="a_node25"><a xlink:href="cbuffer_8h.html#adb4435557fc1a9d76b315fc1e205f611" target="_top" xlink:title="zrtos_cbuffer__can\l_read_length">
<polygon fill="#ffffff" stroke="#000000" points="439.5,-217.5 439.5,-247.5 539.5,-247.5 539.5,-217.5 439.5,-217.5"/>
<text text-anchor="start" x="447.5" y="-235.5" font-family="Helvetica,sans-Serif" font-size="10.00" fill="#000000">zrtos_cbuffer__can</text>
<text text-anchor="middle" x="489.5" y="-224.5" font-family="Helvetica,sans-Serif" font-size="10.00" fill="#000000">_read_length</text>
</a>
</g>
</g>
<!-- Node283&#45;&gt;Node306 -->
<g id="edge29" class="edge">
<title>Node283&#45;&gt;Node306</title>
<path fill="none" stroke="#191970" d="M206.7253,-139.4016C221.396,-162.4654 246.9387,-196.2107 279,-212.5 329.2373,-238.024 394.9104,-240.1297 439.4466,-237.7242"/>
<polygon fill="#191970" stroke="#191970" points="209.6859,-137.5343 201.4679,-130.8473 203.7222,-141.1996 209.6859,-137.5343"/>
</g>
<!-- Node312 -->
<g id="node31" class="node">
<title>Node312</title>
<g id="a_node31"><a xlink:href="cbuffer_8h.html#a45799d6eb84106e183f68a629d0d55c0" target="_top" xlink:title="zrtos_cbuffer__get\l_length">
<polygon fill="#ffffff" stroke="#000000" points="289,-.5 289,-30.5 387,-30.5 387,-.5 289,-.5"/>
<text text-anchor="start" x="297" y="-18.5" font-family="Helvetica,sans-Serif" font-size="10.00" fill="#000000">zrtos_cbuffer__get</text>
<text text-anchor="middle" x="338" y="-7.5" font-family="Helvetica,sans-Serif" font-size="10.00" fill="#000000">_length</text>
</a>
</g>
</g>
<!-- Node283&#45;&gt;Node312 -->
<g id="edge38" class="edge">
<title>Node283&#45;&gt;Node312</title>
<path fill="none" stroke="#191970" d="M221.0698,-94.1468C237.6997,-81.6961 259.3068,-65.8628 279,-52.5 290.0053,-45.0324 302.4461,-37.1509 313.057,-30.59"/>
<polygon fill="#191970" stroke="#191970" points="218.752,-91.5106 212.8636,-100.3184 222.9594,-97.105 218.752,-91.5106"/>
</g>
<!-- Node313 -->
<g id="node32" class="node">
<title>Node313</title>
<g id="a_node32"><a xlink:href="cbuffer_8h.html#a77458b7cd6238ed911ffdab0fe328e04" target="_top" xlink:title="zrtos_cbuffer__pipe">
<polygon fill="#ffffff" stroke="#000000" points="438.5,-106 438.5,-125 540.5,-125 540.5,-106 438.5,-106"/>
<text text-anchor="middle" x="489.5" y="-113" font-family="Helvetica,sans-Serif" font-size="10.00" fill="#000000">zrtos_cbuffer__pipe</text>
</a>
</g>
</g>
<!-- Node283&#45;&gt;Node313 -->
<g id="edge40" class="edge">
<title>Node283&#45;&gt;Node313</title>
<path fill="none" stroke="#191970" d="M253.5064,-115.5C307.9724,-115.5 387.1217,-115.5 438.4587,-115.5"/>
<polygon fill="#191970" stroke="#191970" points="253.2972,-112.0001 243.2972,-115.5 253.2971,-119.0001 253.2972,-112.0001"/>
</g>
<!-- Node285 -->
<g id="node4" class="node">
<title>Node285</title>
<g id="a_node4"><a xlink:href="cbuffer_8h.html#a5d269503e04946737598d2062c5bfaf4" target="_top" xlink:title="zrtos_cbuffer__put_ex">
<polygon fill="#ffffff" stroke="#000000" points="433,-404 433,-423 546,-423 546,-404 433,-404"/>
<text text-anchor="middle" x="489.5" y="-411" font-family="Helvetica,sans-Serif" font-size="10.00" fill="#000000">zrtos_cbuffer__put_ex</text>
</a>
</g>
</g>
<!-- Node284&#45;&gt;Node285 -->
<g id="edge3" class="edge">
<title>Node284&#45;&gt;Node285</title>
<path fill="none" stroke="#191970" d="M353.7859,-211.9444C386.5274,-260.5704 460.6372,-370.6344 482.9948,-403.8388"/>
<polygon fill="#191970" stroke="#191970" points="356.6641,-209.9523 348.1756,-203.6123 350.8576,-213.862 356.6641,-209.9523"/>
</g>
<!-- Node304 -->
<g id="node23" class="node">
<title>Node304</title>
<g id="a_node23"><a xlink:href="msg__queue_8h.html#a0eefe9e5e6f83f1fcd2c66546a05add7" target="_top" xlink:title="zrtos_msg_queue__rollback\l_write_transaction">
<polygon fill="#ffffff" stroke="#000000" points="584,-173.5 584,-203.5 722,-203.5 722,-173.5 584,-173.5"/>
<text text-anchor="start" x="592" y="-191.5" font-family="Helvetica,sans-Serif" font-size="10.00" fill="#000000">zrtos_msg_queue__rollback</text>
<text text-anchor="middle" x="653" y="-180.5" font-family="Helvetica,sans-Serif" font-size="10.00" fill="#000000">_write_transaction</text>
</a>
</g>
</g>
<!-- Node284&#45;&gt;Node304 -->
<g id="edge24" class="edge">
<title>Node284&#45;&gt;Node304</title>
<path fill="none" stroke="#191970" d="M407.4688,-188.5C459.9026,-188.5 531.512,-188.5 583.8643,-188.5"/>
<polygon fill="#191970" stroke="#191970" points="407.2491,-185.0001 397.2491,-188.5 407.2491,-192.0001 407.2491,-185.0001"/>
</g>
<!-- Node286 -->
<g id="node5" class="node">
<title>Node286</title>
<g id="a_node5"><a xlink:href="msg__queue_8h.html#a9f24485c49e6b6ba13406e9a5d1f352d" target="_top" xlink:title="zrtos_msg_queue__put\l_length">
<polygon fill="#ffffff" stroke="#000000" points="594,-261.5 594,-291.5 712,-291.5 712,-261.5 594,-261.5"/>
<text text-anchor="start" x="602" y="-279.5" font-family="Helvetica,sans-Serif" font-size="10.00" fill="#000000">zrtos_msg_queue__put</text>
<text text-anchor="middle" x="653" y="-268.5" font-family="Helvetica,sans-Serif" font-size="10.00" fill="#000000">_length</text>
</a>
</g>
</g>
<!-- Node285&#45;&gt;Node286 -->
<g id="edge4" class="edge">
<title>Node285&#45;&gt;Node286</title>
<path fill="none" stroke="#191970" d="M500.1464,-395.2032C515.3419,-370.5956 545.4914,-326.99 582,-301.5 587.4646,-297.6846 593.5698,-294.3973 599.8434,-291.5789"/>
<polygon fill="#191970" stroke="#191970" points="497.0632,-393.5387 494.9056,-403.9115 503.0608,-397.1482 497.0632,-393.5387"/>
</g>
<!-- Node291 -->
<g id="node10" class="node">
<title>Node291</title>
<g id="a_node10"><a xlink:href="msg__queue_8h.html#a14fb4faf04687986da3435e06db5d587" target="_top" xlink:title="zrtos_msg_queue__put_data">
<polygon fill="#ffffff" stroke="#000000" points="582,-311 582,-330 724,-330 724,-311 582,-311"/>
<text text-anchor="middle" x="653" y="-318" font-family="Helvetica,sans-Serif" font-size="10.00" fill="#000000">zrtos_msg_queue__put_data</text>
</a>
</g>
</g>
<!-- Node285&#45;&gt;Node291 -->
<g id="edge9" class="edge">
<title>Node285&#45;&gt;Node291</title>
<path fill="none" stroke="#191970" d="M505.9567,-396.7564C523.3766,-379.9504 552.3969,-354.4671 582,-339.5 589.5157,-335.7001 597.8753,-332.5967 606.1441,-330.0832"/>
<polygon fill="#191970" stroke="#191970" points="503.4761,-394.2871 498.8089,-403.7986 508.3888,-399.2736 503.4761,-394.2871"/>
</g>
<!-- Node292 -->
<g id="node11" class="node">
<title>Node292</title>
<g id="a_node11"><a xlink:href="msg__queue_8h.html#ab51eb620b09145d1b05966404c9e0ca4" target="_top" xlink:title="zrtos_msg_queue__put">
<polygon fill="#ffffff" stroke="#000000" points="594,-448 594,-467 712,-467 712,-448 594,-448"/>
<text text-anchor="middle" x="653" y="-455" font-family="Helvetica,sans-Serif" font-size="10.00" fill="#000000">zrtos_msg_queue__put</text>
</a>
</g>
</g>
<!-- Node285&#45;&gt;Node292 -->
<g id="edge11" class="edge">
<title>Node285&#45;&gt;Node292</title>
<path fill="none" stroke="#191970" d="M534.6658,-425.6547C560.8287,-432.6955 593.2899,-441.4312 617.5922,-447.9713"/>
<polygon fill="#191970" stroke="#191970" points="535.5431,-422.2663 524.9771,-423.0473 533.7239,-429.0259 535.5431,-422.2663"/>
</g>
<!-- Node293 -->
<g id="node12" class="node">
<title>Node293</title>
<g id="a_node12"><a xlink:href="spi_2spi_8h.html#a7f9adeb6314d47b2442b0a17d1cc2f37" target="_top" xlink:title="zrtos_vfs_module_spi\l__transfer_in">
<polygon fill="#ffffff" stroke="#000000" points="597,-398.5 597,-428.5 709,-428.5 709,-398.5 597,-398.5"/>
<text text-anchor="start" x="605" y="-416.5" font-family="Helvetica,sans-Serif" font-size="10.00" fill="#000000">zrtos_vfs_module_spi</text>
<text text-anchor="middle" x="653" y="-405.5" font-family="Helvetica,sans-Serif" font-size="10.00" fill="#000000">__transfer_in</text>
</a>
</g>
</g>
<!-- Node285&#45;&gt;Node293 -->
<g id="edge12" class="edge">
<title>Node285&#45;&gt;Node293</title>
<path fill="none" stroke="#191970" d="M556.3889,-413.5C569.8545,-413.5 583.8768,-413.5 596.9274,-413.5"/>
<polygon fill="#191970" stroke="#191970" points="556.2255,-410.0001 546.2255,-413.5 556.2255,-417.0001 556.2255,-410.0001"/>
</g>
<!-- Node298 -->
<g id="node17" class="node">
<title>Node298</title>
<g id="a_node17"><a xlink:href="spi_2spi_8h.html#ac672df98eac652a9d1925ba73229c475" target="_top" xlink:title="zrtos_vfs_module_spi\l__on_write">
<polygon fill="#ffffff" stroke="#000000" points="941,-471.5 941,-501.5 1053,-501.5 1053,-471.5 941,-471.5"/>
<text text-anchor="start" x="949" y="-489.5" font-family="Helvetica,sans-Serif" font-size="10.00" fill="#000000">zrtos_vfs_module_spi</text>
<text text-anchor="middle" x="997" y="-478.5" font-family="Helvetica,sans-Serif" font-size="10.00" fill="#000000">__on_write</text>
</a>
</g>
</g>
<!-- Node285&#45;&gt;Node298 -->
<g id="edge17" class="edge">
<title>Node285&#45;&gt;Node298</title>
<path fill="none" stroke="#191970" d="M506.8975,-429.9621C524.3434,-445.2749 552.7504,-467.0982 582,-476.5 705.1588,-516.0875 859.638,-505.0761 940.9657,-494.96"/>
<polygon fill="#191970" stroke="#191970" points="509.0218,-427.1642 499.258,-423.0508 504.3257,-432.3552 509.0218,-427.1642"/>
</g>
<!-- Node299 -->
<g id="node18" class="node">
<title>Node299</title>
<g id="a_node18"><a xlink:href="uart_2uart_8h.html#a9e735d9796aaa30e4a5fce9c763adf92" target="_top" xlink:title="zrtos_vfs_module_uart\l__on_write">
<polygon fill="#ffffff" stroke="#000000" points="595,-573.5 595,-603.5 711,-603.5 711,-573.5 595,-573.5"/>
<text text-anchor="start" x="603" y="-591.5" font-family="Helvetica,sans-Serif" font-size="10.00" fill="#000000">zrtos_vfs_module_uart</text>
<text text-anchor="middle" x="653" y="-580.5" font-family="Helvetica,sans-Serif" font-size="10.00" fill="#000000">__on_write</text>
</a>
</g>
</g>
<!-- Node285&#45;&gt;Node299 -->
<g id="edge19" class="edge">
<title>Node285&#45;&gt;Node299</title>
<path fill="none" stroke="#191970" d="M505.388,-430.5055C537.2619,-464.6213 608.5461,-540.9194 638.8898,-573.3973"/>
<polygon fill="#191970" stroke="#191970" points="507.9078,-428.0757 498.5234,-423.158 502.7928,-432.8546 507.9078,-428.0757"/>
</g>
<!-- Node287 -->
<g id="node6" class="node">
<title>Node287</title>
<g id="a_node6"><a xlink:href="rtu_8h.html#a223fc39dfd241ff17884c9f5d03f8e78" target="_top" xlink:title="zrtos_vfs_module_modbus\l_rtu__on_recv_timeout">
<polygon fill="#ffffff" stroke="#000000" points="760,-75.5 760,-105.5 894,-105.5 894,-75.5 760,-75.5"/>
<text text-anchor="start" x="768" y="-93.5" font-family="Helvetica,sans-Serif" font-size="10.00" fill="#000000">zrtos_vfs_module_modbus</text>
<text text-anchor="middle" x="827" y="-82.5" font-family="Helvetica,sans-Serif" font-size="10.00" fill="#000000">_rtu__on_recv_timeout</text>
</a>
</g>
</g>
<!-- Node286&#45;&gt;Node287 -->
<g id="edge5" class="edge">
<title>Node286&#45;&gt;Node287</title>
<path fill="none" stroke="#191970" d="M720.1363,-255.2583C721.4906,-254.0729 722.7823,-252.8213 724,-251.5 766.664,-205.2049 717.4615,-160.9105 760,-114.5 763.1725,-111.0388 766.8794,-108.0763 770.8921,-105.5408"/>
<polygon fill="#191970" stroke="#191970" points="717.7969,-252.6323 711.7758,-261.3499 721.9191,-258.2898 717.7969,-252.6323"/>
</g>
<!-- Node289 -->
<g id="node8" class="node">
<title>Node289</title>
<g id="a_node8"><a xlink:href="rtu_8h.html#ac0ca767b3e1e9a8b1f290448a122e095" target="_top" xlink:title="zrtos_vfs_module_modbus\l_rtu__on_write">
<polygon fill="#ffffff" stroke="#000000" points="760,-263.5 760,-293.5 894,-293.5 894,-263.5 760,-263.5"/>
<text text-anchor="start" x="768" y="-281.5" font-family="Helvetica,sans-Serif" font-size="10.00" fill="#000000">zrtos_vfs_module_modbus</text>
<text text-anchor="middle" x="827" y="-270.5" font-family="Helvetica,sans-Serif" font-size="10.00" fill="#000000">_rtu__on_write</text>
</a>
</g>
</g>
<!-- Node286&#45;&gt;Node289 -->
<g id="edge7" class="edge">
<title>Node286&#45;&gt;Node289</title>
<path fill="none" stroke="#191970" d="M722.5673,-277.2996C734.8402,-277.4407 747.5956,-277.5873 759.8019,-277.7276"/>
<polygon fill="#191970" stroke="#191970" points="722.4339,-273.798 712.3943,-277.1827 722.3533,-280.7975 722.4339,-273.798"/>
</g>
<!-- Node288 -->
<g id="node7" class="node">
<title>Node288</title>
<g id="a_node7"><a xlink:href="rtu_8h.html#a2376d02a52d42eef634ef843afc499f3" target="_top" xlink:title="zrtos_vfs_module_modbus\l_rtu_inode__init">
<polygon fill="#ffffff" stroke="#000000" points="930,-100.5 930,-130.5 1064,-130.5 1064,-100.5 930,-100.5"/>
<text text-anchor="start" x="938" y="-118.5" font-family="Helvetica,sans-Serif" font-size="10.00" fill="#000000">zrtos_vfs_module_modbus</text>
<text text-anchor="middle" x="997" y="-107.5" font-family="Helvetica,sans-Serif" font-size="10.00" fill="#000000">_rtu_inode__init</text>
</a>
</g>
</g>
<!-- Node287&#45;&gt;Node288 -->
<g id="edge6" class="edge">
<title>Node287&#45;&gt;Node288</title>
<path fill="none" stroke="#191970" d="M904.146,-101.845C912.6879,-103.1012 921.3366,-104.373 929.7428,-105.6092"/>
<polygon fill="#191970" stroke="#191970" points="904.5914,-98.3729 894.1885,-100.3807 903.5728,-105.2984 904.5914,-98.3729"/>
</g>
<!-- Node290 -->
<g id="node9" class="node">
<title>Node290</title>
<g id="a_node9"><a xlink:href="rtu_8h.html#a08670f8758ac6130c738816d306eb923" target="_top" xlink:title="zrtos_vfs_module_modbus\l_rtu__on_ioctl">
<polygon fill="#ffffff" stroke="#000000" points="930,-238.5 930,-268.5 1064,-268.5 1064,-238.5 930,-238.5"/>
<text text-anchor="start" x="938" y="-256.5" font-family="Helvetica,sans-Serif" font-size="10.00" fill="#000000">zrtos_vfs_module_modbus</text>
<text text-anchor="middle" x="997" y="-245.5" font-family="Helvetica,sans-Serif" font-size="10.00" fill="#000000">_rtu__on_ioctl</text>
</a>
</g>
</g>
<!-- Node289&#45;&gt;Node290 -->
<g id="edge8" class="edge">
<title>Node289&#45;&gt;Node290</title>
<path fill="none" stroke="#191970" d="M904.146,-267.155C912.6879,-265.8988 921.3366,-264.627 929.7428,-263.3908"/>
<polygon fill="#191970" stroke="#191970" points="903.5728,-263.7016 894.1885,-268.6193 904.5914,-270.6271 903.5728,-263.7016"/>
</g>
<!-- Node291&#45;&gt;Node289 -->
<g id="edge10" class="edge">
<title>Node291&#45;&gt;Node289</title>
<path fill="none" stroke="#191970" d="M702.3311,-308.5925C721.7558,-303.9038 744.2854,-298.4656 764.8058,-293.5124"/>
<polygon fill="#191970" stroke="#191970" points="701.3828,-305.2208 692.4833,-310.9695 703.0254,-312.0254 701.3828,-305.2208"/>
</g>
<!-- Node294 -->
<g id="node13" class="node">
<title>Node294</title>
<g id="a_node13"><a xlink:href="spi_2spi_8h.html#ab31c12597a3f2932aaf01466ffff59bb" target="_top" xlink:title="zrtos_vfs_module_spi\l__transfer">
<polygon fill="#ffffff" stroke="#000000" points="771,-398.5 771,-428.5 883,-428.5 883,-398.5 771,-398.5"/>
<text text-anchor="start" x="779" y="-416.5" font-family="Helvetica,sans-Serif" font-size="10.00" fill="#000000">zrtos_vfs_module_spi</text>
<text text-anchor="middle" x="827" y="-405.5" font-family="Helvetica,sans-Serif" font-size="10.00" fill="#000000">__transfer</text>
</a>
</g>
</g>
<!-- Node293&#45;&gt;Node294 -->
<g id="edge13" class="edge">
<title>Node293&#45;&gt;Node294</title>
<path fill="none" stroke="#191970" d="M719.3992,-413.5C736.3506,-413.5 754.4091,-413.5 770.7944,-413.5"/>
<polygon fill="#191970" stroke="#191970" points="719.0125,-410.0001 709.0125,-413.5 719.0124,-417.0001 719.0125,-410.0001"/>
</g>
<!-- Node295 -->
<g id="node14" class="node">
<title>Node295</title>
<g id="a_node14"><a xlink:href="avr_2spi_2spi_8h.html#a3a0f3b324bd986778ccde00670dbabc9" target="_top" xlink:title="zrtos_vfs_module_avr\l_spi__on_interrupt">
<polygon fill="#ffffff" stroke="#000000" points="940.5,-406.5 940.5,-436.5 1053.5,-436.5 1053.5,-406.5 940.5,-406.5"/>
<text text-anchor="start" x="948.5" y="-424.5" font-family="Helvetica,sans-Serif" font-size="10.00" fill="#000000">zrtos_vfs_module_avr</text>
<text text-anchor="middle" x="997" y="-413.5" font-family="Helvetica,sans-Serif" font-size="10.00" fill="#000000">_spi__on_interrupt</text>
</a>
</g>
</g>
<!-- Node294&#45;&gt;Node295 -->
<g id="edge14" class="edge">
<title>Node294&#45;&gt;Node295</title>
<path fill="none" stroke="#191970" d="M893.2154,-416.616C908.784,-417.3487 925.2376,-418.1229 940.3426,-418.8338"/>
<polygon fill="#191970" stroke="#191970" points="893.289,-413.1157 883.1355,-416.1417 892.9599,-420.108 893.289,-413.1157"/>
</g>
<!-- Node296 -->
<g id="node15" class="node">
<title>Node296</title>
<g id="a_node15"><a xlink:href="avr_2spi_2spi_8h.html#a0353f98d744b931e541684fe33b272f7" target="_top" xlink:title="ISR">
<polygon fill="#ffffff" stroke="#000000" points="1139.5,-412 1139.5,-431 1173.5,-431 1173.5,-412 1139.5,-412"/>
<text text-anchor="middle" x="1156.5" y="-419" font-family="Helvetica,sans-Serif" font-size="10.00" fill="#000000">ISR</text>
</a>
</g>
</g>
<!-- Node295&#45;&gt;Node296 -->
<g id="edge15" class="edge">
<title>Node295&#45;&gt;Node296</title>
<path fill="none" stroke="#191970" d="M1063.7619,-421.5C1091.4525,-421.5 1121.2899,-421.5 1139.4331,-421.5"/>
<polygon fill="#191970" stroke="#191970" points="1063.6829,-418.0001 1053.6828,-421.5 1063.6828,-425.0001 1063.6829,-418.0001"/>
</g>
<!-- Node297 -->
<g id="node16" class="node">
<title>Node297</title>
<g id="a_node16"><a xlink:href="avr_2spi_2spi_8h.html#ab6f547c3ce7ee0463c235abe078f9491" target="_top" xlink:title="zrtos_vfs_module_avr\l_spi__on_write">
<polygon fill="#ffffff" stroke="#000000" points="1100,-460.5 1100,-490.5 1213,-490.5 1213,-460.5 1100,-460.5"/>
<text text-anchor="start" x="1108" y="-478.5" font-family="Helvetica,sans-Serif" font-size="10.00" fill="#000000">zrtos_vfs_module_avr</text>
<text text-anchor="middle" x="1156.5" y="-467.5" font-family="Helvetica,sans-Serif" font-size="10.00" fill="#000000">_spi__on_write</text>
</a>
</g>
</g>
<!-- Node295&#45;&gt;Node297 -->
<g id="edge16" class="edge">
<title>Node295&#45;&gt;Node297</title>
<path fill="none" stroke="#191970" d="M1050.966,-439.7706C1070.8344,-446.4972 1093.0955,-454.0339 1112.0323,-460.4451"/>
<polygon fill="#191970" stroke="#191970" points="1052.0239,-436.4337 1041.4296,-436.542 1049.7791,-443.064 1052.0239,-436.4337"/>
</g>
<!-- Node298&#45;&gt;Node297 -->
<g id="edge18" class="edge">
<title>Node298&#45;&gt;Node297</title>
<path fill="none" stroke="#191970" d="M1063.3336,-481.9253C1075.5084,-481.0856 1088.1127,-480.2164 1099.9672,-479.3988"/>
<polygon fill="#191970" stroke="#191970" points="1062.9692,-478.442 1053.2337,-482.6218 1063.4509,-485.4254 1062.9692,-478.442"/>
</g>
<!-- Node300 -->
<g id="node19" class="node">
<title>Node300</title>
<g id="a_node19"><a xlink:href="uart0_8h.html#a1c08ba1c9bac4dd9a045d06a07dbe0b4" target="_top" xlink:title="zrtos_vfs_module_avr\l_uart0__on_write">
<polygon fill="#ffffff" stroke="#000000" points="770.5,-573.5 770.5,-603.5 883.5,-603.5 883.5,-573.5 770.5,-573.5"/>
<text text-anchor="start" x="778.5" y="-591.5" font-family="Helvetica,sans-Serif" font-size="10.00" fill="#000000">zrtos_vfs_module_avr</text>
<text text-anchor="middle" x="827" y="-580.5" font-family="Helvetica,sans-Serif" font-size="10.00" fill="#000000">_uart0__on_write</text>
</a>
</g>
</g>
<!-- Node299&#45;&gt;Node300 -->
<g id="edge20" class="edge">
<title>Node299&#45;&gt;Node300</title>
<path fill="none" stroke="#191970" d="M721.8148,-588.5C737.8537,-588.5 754.7557,-588.5 770.2065,-588.5"/>
<polygon fill="#191970" stroke="#191970" points="721.4236,-585.0001 711.4235,-588.5 721.4235,-592.0001 721.4236,-585.0001"/>
</g>
<!-- Node301 -->
<g id="node20" class="node">
<title>Node301</title>
<g id="a_node20"><a xlink:href="uart1_8h.html#af04452122e72ab7408b2e207191cdd33" target="_top" xlink:title="zrtos_vfs_module_avr\l_uart1__on_write">
<polygon fill="#ffffff" stroke="#000000" points="770.5,-524.5 770.5,-554.5 883.5,-554.5 883.5,-524.5 770.5,-524.5"/>
<text text-anchor="start" x="778.5" y="-542.5" font-family="Helvetica,sans-Serif" font-size="10.00" fill="#000000">zrtos_vfs_module_avr</text>
<text text-anchor="middle" x="827" y="-531.5" font-family="Helvetica,sans-Serif" font-size="10.00" fill="#000000">_uart1__on_write</text>
</a>
</g>
</g>
<!-- Node299&#45;&gt;Node301 -->
<g id="edge21" class="edge">
<title>Node299&#45;&gt;Node301</title>
<path fill="none" stroke="#191970" d="M716.2836,-570.6788C735.0704,-565.3882 755.4546,-559.6478 773.5515,-554.5516"/>
<polygon fill="#191970" stroke="#191970" points="715.3024,-567.3189 706.6255,-573.3986 717.1999,-574.0568 715.3024,-567.3189"/>
</g>
<!-- Node302 -->
<g id="node21" class="node">
<title>Node302</title>
<g id="a_node21"><a xlink:href="uart2_8h.html#a244148efdde4e736bdcba74328e85415" target="_top" xlink:title="zrtos_vfs_module_avr\l_uart2__on_write">
<polygon fill="#ffffff" stroke="#000000" points="770.5,-671.5 770.5,-701.5 883.5,-701.5 883.5,-671.5 770.5,-671.5"/>
<text text-anchor="start" x="778.5" y="-689.5" font-family="Helvetica,sans-Serif" font-size="10.00" fill="#000000">zrtos_vfs_module_avr</text>
<text text-anchor="middle" x="827" y="-678.5" font-family="Helvetica,sans-Serif" font-size="10.00" fill="#000000">_uart2__on_write</text>
</a>
</g>
</g>
<!-- Node299&#45;&gt;Node302 -->
<g id="edge22" class="edge">
<title>Node299&#45;&gt;Node302</title>
<path fill="none" stroke="#191970" d="M679.8472,-610.0186C700.7712,-626.041 731.0411,-647.6251 760,-662.5 766.2646,-665.7179 773.0611,-668.6926 779.8421,-671.3729"/>
<polygon fill="#191970" stroke="#191970" points="681.8056,-607.1082 671.7588,-603.7448 677.5154,-612.6394 681.8056,-607.1082"/>
</g>
<!-- Node303 -->
<g id="node22" class="node">
<title>Node303</title>
<g id="a_node22"><a xlink:href="uart3_8h.html#a0ac21cf2483f89180a91b9ca480eb7b8" target="_top" xlink:title="zrtos_vfs_module_avr\l_uart3__on_write">
<polygon fill="#ffffff" stroke="#000000" points="770.5,-622.5 770.5,-652.5 883.5,-652.5 883.5,-622.5 770.5,-622.5"/>
<text text-anchor="start" x="778.5" y="-640.5" font-family="Helvetica,sans-Serif" font-size="10.00" fill="#000000">zrtos_vfs_module_avr</text>
<text text-anchor="middle" x="827" y="-629.5" font-family="Helvetica,sans-Serif" font-size="10.00" fill="#000000">_uart3__on_write</text>
</a>
</g>
</g>
<!-- Node299&#45;&gt;Node303 -->
<g id="edge23" class="edge">
<title>Node299&#45;&gt;Node303</title>
<path fill="none" stroke="#191970" d="M716.2836,-606.3212C735.0704,-611.6118 755.4546,-617.3522 773.5515,-622.4484"/>
<polygon fill="#191970" stroke="#191970" points="717.1999,-602.9432 706.6255,-603.6014 715.3024,-609.6811 717.1999,-602.9432"/>
</g>
<!-- Node304&#45;&gt;Node287 -->
<g id="edge25" class="edge">
<title>Node304&#45;&gt;Node287</title>
<path fill="none" stroke="#191970" d="M716.1288,-168.6659C718.8682,-167.0663 721.5082,-165.347 724,-163.5 745.71,-147.4081 738.3337,-130.6506 760,-114.5 764.5569,-111.1032 769.6394,-108.1522 774.9115,-105.5965"/>
<polygon fill="#191970" stroke="#191970" points="714.3482,-165.6472 707.1018,-173.3764 717.5865,-171.8531 714.3482,-165.6472"/>
</g>
<!-- Node304&#45;&gt;Node289 -->
<g id="edge26" class="edge">
<title>Node304&#45;&gt;Node289</title>
<path fill="none" stroke="#191970" d="M714.8177,-208.0594C718.0019,-209.7443 721.0851,-211.5556 724,-213.5 743.8971,-226.7724 740.2271,-240.0434 760,-253.5 765.5425,-257.272 771.7279,-260.565 778.0384,-263.4134"/>
<polygon fill="#191970" stroke="#191970" points="716.1611,-204.8218 705.6323,-203.6408 713.1266,-211.1299 716.1611,-204.8218"/>
</g>
<!-- Node305&#45;&gt;Node287 -->
<g id="edge28" class="edge">
<title>Node305&#45;&gt;Node287</title>
<path fill="none" stroke="#191970" d="M401.1099,-65.3422C477.7662,-59.0537 610.8666,-51.9667 724,-65.5 740.9919,-67.5326 759.2314,-71.3877 775.5695,-75.473"/>
<polygon fill="#191970" stroke="#191970" points="400.3464,-61.8941 390.6759,-66.2221 400.9346,-68.8694 400.3464,-61.8941"/>
</g>
<!-- Node307 -->
<g id="node26" class="node">
<title>Node307</title>
<g id="a_node26"><a xlink:href="msg__queue_8h.html#aa70867560ae58b87682c996ceccee62a" target="_top" xlink:title="zrtos_msg_queue__get">
<polygon fill="#ffffff" stroke="#000000" points="594,-223 594,-242 712,-242 712,-223 594,-223"/>
<text text-anchor="middle" x="653" y="-230" font-family="Helvetica,sans-Serif" font-size="10.00" fill="#000000">zrtos_msg_queue__get</text>
</a>
</g>
</g>
<!-- Node306&#45;&gt;Node307 -->
<g id="edge30" class="edge">
<title>Node306&#45;&gt;Node307</title>
<path fill="none" stroke="#191970" d="M550.1142,-232.5C564.4189,-232.5 579.6506,-232.5 593.8879,-232.5"/>
<polygon fill="#191970" stroke="#191970" points="549.8895,-229.0001 539.8895,-232.5 549.8895,-236.0001 549.8895,-229.0001"/>
</g>
<!-- Node309 -->
<g id="node28" class="node">
<title>Node309</title>
<g id="a_node28"><a xlink:href="msg__queue_8h.html#a40db633a8c0ef5e3bba9cc700e45f7ef" target="_top" xlink:title="zrtos_msg_queue__pipe\l_next_message_to_cbuffer">
<polygon fill="#ffffff" stroke="#000000" points="586,-124.5 586,-154.5 720,-154.5 720,-124.5 586,-124.5"/>
<text text-anchor="start" x="594" y="-142.5" font-family="Helvetica,sans-Serif" font-size="10.00" fill="#000000">zrtos_msg_queue__pipe</text>
<text text-anchor="middle" x="653" y="-131.5" font-family="Helvetica,sans-Serif" font-size="10.00" fill="#000000">_next_message_to_cbuffer</text>
</a>
</g>
</g>
<!-- Node306&#45;&gt;Node309 -->
<g id="edge33" class="edge">
<title>Node306&#45;&gt;Node309</title>
<path fill="none" stroke="#191970" d="M514.1147,-210.7457C531.9682,-195.8453 557.2335,-176.5021 582,-163.5 588.3363,-160.1736 595.2271,-157.1686 602.1418,-154.5007"/>
<polygon fill="#191970" stroke="#191970" points="511.8214,-208.1013 506.4617,-217.2404 516.3508,-213.4384 511.8214,-208.1013"/>
</g>
<!-- Node311 -->
<g id="node30" class="node">
<title>Node311</title>
<g id="a_node30"><a xlink:href="spi_2spi_8h.html#a7cc1a52aa2cec6b681b7732681bda10b" target="_top" xlink:title="zrtos_vfs_module_spi\l__transfer_out">
<polygon fill="#ffffff" stroke="#000000" points="597,-349.5 597,-379.5 709,-379.5 709,-349.5 597,-349.5"/>
<text text-anchor="start" x="605" y="-367.5" font-family="Helvetica,sans-Serif" font-size="10.00" fill="#000000">zrtos_vfs_module_spi</text>
<text text-anchor="middle" x="653" y="-356.5" font-family="Helvetica,sans-Serif" font-size="10.00" fill="#000000">__transfer_out</text>
</a>
</g>
</g>
<!-- Node306&#45;&gt;Node311 -->
<g id="edge36" class="edge">
<title>Node306&#45;&gt;Node311</title>
<path fill="none" stroke="#191970" d="M504.6475,-256.3986C521.0344,-280.4796 549.2542,-317.1812 582,-339.5 587.6152,-343.3272 593.8787,-346.6311 600.2954,-349.4664"/>
<polygon fill="#191970" stroke="#191970" points="507.4118,-254.2347 498.9617,-247.8436 501.582,-258.1094 507.4118,-254.2347"/>
</g>
<!-- Node308 -->
<g id="node27" class="node">
<title>Node308</title>
<g id="a_node27"><a xlink:href="rtu_8h.html#aea13c3756fb07d48853e039823a846b1" target="_top" xlink:title="zrtos_vfs_module_modbus\l_rtu__on_read">
<polygon fill="#ffffff" stroke="#000000" points="760,-214.5 760,-244.5 894,-244.5 894,-214.5 760,-214.5"/>
<text text-anchor="start" x="768" y="-232.5" font-family="Helvetica,sans-Serif" font-size="10.00" fill="#000000">zrtos_vfs_module_modbus</text>
<text text-anchor="middle" x="827" y="-221.5" font-family="Helvetica,sans-Serif" font-size="10.00" fill="#000000">_rtu__on_read</text>
</a>
</g>
</g>
<!-- Node307&#45;&gt;Node308 -->
<g id="edge31" class="edge">
<title>Node307&#45;&gt;Node308</title>
<path fill="none" stroke="#191970" d="M722.5673,-231.3006C734.8402,-231.089 747.5956,-230.869 759.8019,-230.6586"/>
<polygon fill="#191970" stroke="#191970" points="722.3324,-227.804 712.3943,-231.476 722.4532,-234.803 722.3324,-227.804"/>
</g>
<!-- Node308&#45;&gt;Node290 -->
<g id="edge32" class="edge">
<title>Node308&#45;&gt;Node290</title>
<path fill="none" stroke="#191970" d="M904.146,-240.3912C912.6879,-241.5971 921.3366,-242.8181 929.7428,-244.0049"/>
<polygon fill="#191970" stroke="#191970" points="904.5796,-236.9178 894.1885,-238.9854 903.601,-243.8491 904.5796,-236.9178"/>
</g>
<!-- Node310 -->
<g id="node29" class="node">
<title>Node310</title>
<g id="a_node29"><a xlink:href="rtu_8h.html#ab23606290979709ef6fefa7c6970e64e" target="_top" xlink:title="zrtos_vfs_module_modbus\l_rtu__on_send">
<polygon fill="#ffffff" stroke="#000000" points="760,-124.5 760,-154.5 894,-154.5 894,-124.5 760,-124.5"/>
<text text-anchor="start" x="768" y="-142.5" font-family="Helvetica,sans-Serif" font-size="10.00" fill="#000000">zrtos_vfs_module_modbus</text>
<text text-anchor="middle" x="827" y="-131.5" font-family="Helvetica,sans-Serif" font-size="10.00" fill="#000000">_rtu__on_send</text>
</a>
</g>
</g>
<!-- Node309&#45;&gt;Node310 -->
<g id="edge34" class="edge">
<title>Node309&#45;&gt;Node310</title>
<path fill="none" stroke="#191970" d="M730.4347,-139.5C740.2636,-139.5 750.2574,-139.5 759.906,-139.5"/>
<polygon fill="#191970" stroke="#191970" points="730.273,-136.0001 720.2729,-139.5 730.2729,-143.0001 730.273,-136.0001"/>
</g>
<!-- Node310&#45;&gt;Node288 -->
<g id="edge35" class="edge">
<title>Node310&#45;&gt;Node288</title>
<path fill="none" stroke="#191970" d="M904.146,-128.6088C912.6879,-127.4029 921.3366,-126.1819 929.7428,-124.9951"/>
<polygon fill="#191970" stroke="#191970" points="903.601,-125.1509 894.1885,-130.0146 904.5796,-132.0822 903.601,-125.1509"/>
</g>
<!-- Node311&#45;&gt;Node294 -->
<g id="edge37" class="edge">
<title>Node311&#45;&gt;Node294</title>
<path fill="none" stroke="#191970" d="M716.2836,-382.3212C735.0704,-387.6118 755.4546,-393.3522 773.5515,-398.4484"/>
<polygon fill="#191970" stroke="#191970" points="717.1999,-378.9432 706.6255,-379.6014 715.3024,-385.6811 717.1999,-378.9432"/>
</g>
<!-- Node312&#45;&gt;Node287 -->
<g id="edge39" class="edge">
<title>Node312&#45;&gt;Node287</title>
<path fill="none" stroke="#191970" d="M397.3999,-17.1704C473.7887,-20.3021 610.1745,-29.2294 724,-54.5 746.5608,-59.5088 771.0109,-67.9196 790.4256,-75.3523"/>
<polygon fill="#191970" stroke="#191970" points="397.1568,-13.6583 387.0279,-16.7658 396.8839,-20.653 397.1568,-13.6583"/>
</g>
<!-- Node313&#45;&gt;Node309 -->
<g id="edge43" class="edge">
<title>Node313&#45;&gt;Node309</title>
<path fill="none" stroke="#191970" d="M550.7222,-124.4867C562.2297,-126.1759 574.3175,-127.9503 585.9906,-129.6638"/>
<polygon fill="#191970" stroke="#191970" points="551.1861,-121.0174 540.7838,-123.0279 550.1695,-127.9432 551.1861,-121.0174"/>
</g>
<!-- Node314 -->
<g id="node33" class="node">
<title>Node314</title>
<g id="a_node33"><a xlink:href="msg__queue_8h.html#a7b05ddf4bc60700bfe0b9d3a0f11664b" target="_top" xlink:title="zrtos_msg_queue__put\l_cbuffer_data">
<polygon fill="#ffffff" stroke="#000000" points="594,-75.5 594,-105.5 712,-105.5 712,-75.5 594,-75.5"/>
<text text-anchor="start" x="602" y="-93.5" font-family="Helvetica,sans-Serif" font-size="10.00" fill="#000000">zrtos_msg_queue__put</text>
<text text-anchor="middle" x="653" y="-82.5" font-family="Helvetica,sans-Serif" font-size="10.00" fill="#000000">_cbuffer_data</text>
</a>
</g>
</g>
<!-- Node313&#45;&gt;Node314 -->
<g id="edge41" class="edge">
<title>Node313&#45;&gt;Node314</title>
<path fill="none" stroke="#191970" d="M550.8658,-106.1169C564.957,-103.9622 579.9113,-101.6756 593.9041,-99.5361"/>
<polygon fill="#191970" stroke="#191970" points="550.1399,-102.6871 540.7838,-107.6584 551.198,-109.6067 550.1399,-102.6871"/>
</g>
<!-- Node314&#45;&gt;Node287 -->
<g id="edge42" class="edge">
<title>Node314&#45;&gt;Node287</title>
<path fill="none" stroke="#191970" d="M722.5673,-90.5C734.8402,-90.5 747.5956,-90.5 759.8019,-90.5"/>
<polygon fill="#191970" stroke="#191970" points="722.3943,-87.0001 712.3943,-90.5 722.3942,-94.0001 722.3943,-87.0001"/>
</g>
</g>
</svg>
