<?xml version="1.0" encoding="UTF-8" standalone="no"?>
<!DOCTYPE svg PUBLIC "-//W3C//DTD SVG 1.1//EN"
 "http://www.w3.org/Graphics/SVG/1.1/DTD/svg11.dtd">
<!-- Generated by graphviz version 2.40.1 (20161225.0304)
 -->
<!-- Title: zrtos_list__is_empty Pages: 1 -->
<svg width="684pt" height="137pt"
 viewBox="0.00 0.00 684.00 137.00" xmlns="http://www.w3.org/2000/svg" xmlns:xlink="http://www.w3.org/1999/xlink">
<g id="graph0" class="graph" transform="scale(1 1) rotate(0) translate(4 133)">
<title>zrtos_list__is_empty</title>
<polygon fill="#ffffff" stroke="transparent" points="-4,4 -4,-133 680,-133 680,4 -4,4"/>
<!-- Node176 -->
<g id="node1" class="node">
<title>Node176</title>
<polygon fill="#bfbfbf" stroke="#000000" points="0,-55 0,-74 107,-74 107,-55 0,-55"/>
<text text-anchor="middle" x="53.5" y="-62" font-family="Helvetica,sans-Serif" font-size="10.00" fill="#000000">zrtos_list__is_empty</text>
</g>
<!-- Node177 -->
<g id="node2" class="node">
<title>Node177</title>
<g id="a_node2"><a xlink:href="list_8h.html#ab2efaa1af7b804994b227ea5436bea39" target="_top" xlink:title="zrtos_list__deinit">
<polygon fill="#ffffff" stroke="#000000" points="143,-55 143,-74 233,-74 233,-55 143,-55"/>
<text text-anchor="middle" x="188" y="-62" font-family="Helvetica,sans-Serif" font-size="10.00" fill="#000000">zrtos_list__deinit</text>
</a>
</g>
</g>
<!-- Node176&#45;&gt;Node177 -->
<g id="edge1" class="edge">
<title>Node176&#45;&gt;Node177</title>
<path fill="none" stroke="#191970" d="M117.1641,-64.5C125.8455,-64.5 134.6068,-64.5 142.8671,-64.5"/>
<polygon fill="#191970" stroke="#191970" points="117.0445,-61.0001 107.0444,-64.5 117.0444,-68.0001 117.0445,-61.0001"/>
</g>
<!-- Node178 -->
<g id="node3" class="node">
<title>Node178</title>
<g id="a_node3"><a xlink:href="cbuffer_8h.html#ac432ff17b01aedab263746e01d2df060" target="_top" xlink:title="zrtos_cbuffer__deinit">
<polygon fill="#ffffff" stroke="#000000" points="269,-55 269,-74 376,-74 376,-55 269,-55"/>
<text text-anchor="middle" x="322.5" y="-62" font-family="Helvetica,sans-Serif" font-size="10.00" fill="#000000">zrtos_cbuffer__deinit</text>
</a>
</g>
</g>
<!-- Node177&#45;&gt;Node178 -->
<g id="edge2" class="edge">
<title>Node177&#45;&gt;Node178</title>
<path fill="none" stroke="#191970" d="M243.2912,-64.5C251.7326,-64.5 260.4337,-64.5 268.8392,-64.5"/>
<polygon fill="#191970" stroke="#191970" points="243.1608,-61.0001 233.1607,-64.5 243.1607,-68.0001 243.1608,-61.0001"/>
</g>
<!-- Node179 -->
<g id="node4" class="node">
<title>Node179</title>
<g id="a_node4"><a xlink:href="spi_2spi_8h.html#a18e98b2ff2735e9c263e143d51880842" target="_top" xlink:title="zrtos_vfs_module_spi\l_file__init">
<polygon fill="#ffffff" stroke="#000000" points="414,-98.5 414,-128.5 526,-128.5 526,-98.5 414,-98.5"/>
<text text-anchor="start" x="422" y="-116.5" font-family="Helvetica,sans-Serif" font-size="10.00" fill="#000000">zrtos_vfs_module_spi</text>
<text text-anchor="middle" x="470" y="-105.5" font-family="Helvetica,sans-Serif" font-size="10.00" fill="#000000">_file__init</text>
</a>
</g>
</g>
<!-- Node178&#45;&gt;Node179 -->
<g id="edge3" class="edge">
<title>Node178&#45;&gt;Node179</title>
<path fill="none" stroke="#191970" d="M360.7905,-77.2202C380.3476,-83.7172 404.2706,-91.6645 424.7357,-98.463"/>
<polygon fill="#191970" stroke="#191970" points="361.8831,-73.8952 351.2896,-74.064 359.6762,-80.5382 361.8831,-73.8952"/>
</g>
<!-- Node181 -->
<g id="node6" class="node">
<title>Node181</title>
<g id="a_node6"><a xlink:href="spi_2spi_8h.html#a32046c6fe4df16f4795a3de4fdf61f8f" target="_top" xlink:title="zrtos_vfs_module_spi\l_file__deinit">
<polygon fill="#ffffff" stroke="#000000" points="414,-49.5 414,-79.5 526,-79.5 526,-49.5 414,-49.5"/>
<text text-anchor="start" x="422" y="-67.5" font-family="Helvetica,sans-Serif" font-size="10.00" fill="#000000">zrtos_vfs_module_spi</text>
<text text-anchor="middle" x="470" y="-56.5" font-family="Helvetica,sans-Serif" font-size="10.00" fill="#000000">_file__deinit</text>
</a>
</g>
</g>
<!-- Node178&#45;&gt;Node181 -->
<g id="edge5" class="edge">
<title>Node178&#45;&gt;Node181</title>
<path fill="none" stroke="#191970" d="M386.316,-64.5C395.4081,-64.5 404.7054,-64.5 413.6414,-64.5"/>
<polygon fill="#191970" stroke="#191970" points="386.1682,-61.0001 376.1681,-64.5 386.1681,-68.0001 386.1682,-61.0001"/>
</g>
<!-- Node183 -->
<g id="node8" class="node">
<title>Node183</title>
<g id="a_node8"><a xlink:href="uart_2uart_8h.html#af8b2335443595fdc65e31aa7faa070a3" target="_top" xlink:title="zrtos_vfs_module_uart\l_inode__init">
<polygon fill="#ffffff" stroke="#000000" points="412,-.5 412,-30.5 528,-30.5 528,-.5 412,-.5"/>
<text text-anchor="start" x="420" y="-18.5" font-family="Helvetica,sans-Serif" font-size="10.00" fill="#000000">zrtos_vfs_module_uart</text>
<text text-anchor="middle" x="470" y="-7.5" font-family="Helvetica,sans-Serif" font-size="10.00" fill="#000000">_inode__init</text>
</a>
</g>
</g>
<!-- Node178&#45;&gt;Node183 -->
<g id="edge7" class="edge">
<title>Node178&#45;&gt;Node183</title>
<path fill="none" stroke="#191970" d="M360.7905,-51.7798C380.3476,-45.2828 404.2706,-37.3355 424.7357,-30.537"/>
<polygon fill="#191970" stroke="#191970" points="359.6762,-48.4618 351.2896,-54.936 361.8831,-55.1048 359.6762,-48.4618"/>
</g>
<!-- Node180 -->
<g id="node5" class="node">
<title>Node180</title>
<g id="a_node5"><a xlink:href="spi_2spi_8h.html#a21ab487a7fecc72c5c1de2068586548a" target="_top" xlink:title="zrtos_vfs_module_spi\l_file__new">
<polygon fill="#ffffff" stroke="#000000" points="564,-98.5 564,-128.5 676,-128.5 676,-98.5 564,-98.5"/>
<text text-anchor="start" x="572" y="-116.5" font-family="Helvetica,sans-Serif" font-size="10.00" fill="#000000">zrtos_vfs_module_spi</text>
<text text-anchor="middle" x="620" y="-105.5" font-family="Helvetica,sans-Serif" font-size="10.00" fill="#000000">_file__new</text>
</a>
</g>
</g>
<!-- Node179&#45;&gt;Node180 -->
<g id="edge4" class="edge">
<title>Node179&#45;&gt;Node180</title>
<path fill="none" stroke="#191970" d="M536.5054,-113.5C545.6515,-113.5 554.9682,-113.5 563.9022,-113.5"/>
<polygon fill="#191970" stroke="#191970" points="536.2813,-110.0001 526.2812,-113.5 536.2812,-117.0001 536.2813,-110.0001"/>
</g>
<!-- Node182 -->
<g id="node7" class="node">
<title>Node182</title>
<g id="a_node7"><a xlink:href="spi_2spi_8h.html#ae37ac67ac292b108b745f060bd34c7de" target="_top" xlink:title="zrtos_vfs_module_spi\l_file__free">
<polygon fill="#ffffff" stroke="#000000" points="564,-49.5 564,-79.5 676,-79.5 676,-49.5 564,-49.5"/>
<text text-anchor="start" x="572" y="-67.5" font-family="Helvetica,sans-Serif" font-size="10.00" fill="#000000">zrtos_vfs_module_spi</text>
<text text-anchor="middle" x="620" y="-56.5" font-family="Helvetica,sans-Serif" font-size="10.00" fill="#000000">_file__free</text>
</a>
</g>
</g>
<!-- Node181&#45;&gt;Node182 -->
<g id="edge6" class="edge">
<title>Node181&#45;&gt;Node182</title>
<path fill="none" stroke="#191970" d="M536.5054,-64.5C545.6515,-64.5 554.9682,-64.5 563.9022,-64.5"/>
<polygon fill="#191970" stroke="#191970" points="536.2813,-61.0001 526.2812,-64.5 536.2812,-68.0001 536.2813,-61.0001"/>
</g>
</g>
</svg>
