<?xml version="1.0" encoding="UTF-8" standalone="no"?>
<!DOCTYPE svg PUBLIC "-//W3C//DTD SVG 1.1//EN"
 "http://www.w3.org/Graphics/SVG/1.1/DTD/svg11.dtd">
<!-- Generated by graphviz version 10.0.1 (20240210.2158)
 -->
<!-- Title: zrtos_list_node__get_next_node Pages: 1 -->
<svg width="266pt" height="128pt"
 viewBox="0.00 0.00 265.75 128.00" xmlns="http://www.w3.org/2000/svg" xmlns:xlink="http://www.w3.org/1999/xlink">
<g id="graph0" class="graph" transform="scale(1 1) rotate(0) translate(4 124)">
<title>zrtos_list_node__get_next_node</title>
<!-- Node1 -->
<g id="Node000001" class="node">
<title>Node1</title>
<g id="a_Node000001"><a xlink:title=" ">
<polygon fill="#999999" stroke="#666666" points="257.75,-82 151.75,-82 151.75,-50 257.75,-50 257.75,-82"/>
<text text-anchor="start" x="159.75" y="-68.5" font-family="Helvetica,sans-Serif" font-size="10.00">zrtos_list_node__get</text>
<text text-anchor="middle" x="204.75" y="-56.5" font-family="Helvetica,sans-Serif" font-size="10.00">_next_node</text>
</a>
</g>
</g>
<!-- Node2 -->
<g id="Node000002" class="node">
<title>Node2</title>
<g id="a_Node000002"><a xlink:href="cbuffer_8h.html#a60aee6a4ecd6277dda2569f090c54ebc" target="_top" xlink:title=" ">
<polygon fill="white" stroke="#666666" points="115.75,-120 0,-120 0,-100 115.75,-100 115.75,-120"/>
<text text-anchor="middle" x="57.88" y="-106.5" font-family="Helvetica,sans-Serif" font-size="10.00">zrtos_cbuffer__rollback</text>
</a>
</g>
</g>
<!-- Node1&#45;&gt;Node2 -->
<g id="edge1_Node000001_Node000002" class="edge">
<title>Node1&#45;&gt;Node2</title>
<g id="a_edge1_Node000001_Node000002"><a xlink:title=" ">
<path fill="none" stroke="#63b8ff" d="M140.79,-85.12C124.38,-90.1 107.31,-95.29 93.02,-99.63"/>
<polygon fill="#63b8ff" stroke="#63b8ff" points="141.45,-88.58 150,-82.32 139.41,-81.88 141.45,-88.58"/>
</a>
</g>
</g>
<!-- Node3 -->
<g id="Node000003" class="node">
<title>Node3</title>
<g id="a_Node000003"><a xlink:href="cbuffer_8h.html#aba98fbe0139308abb299f669d01e72cc" target="_top" xlink:title=" ">
<polygon fill="white" stroke="#666666" points="108.62,-82 7.12,-82 7.12,-50 108.62,-50 108.62,-82"/>
<text text-anchor="start" x="15.12" y="-68.5" font-family="Helvetica,sans-Serif" font-size="10.00">zrtos_cbuffer__start</text>
<text text-anchor="middle" x="57.88" y="-56.5" font-family="Helvetica,sans-Serif" font-size="10.00">_write_transaction</text>
</a>
</g>
</g>
<!-- Node1&#45;&gt;Node3 -->
<g id="edge2_Node000001_Node000003" class="edge">
<title>Node1&#45;&gt;Node3</title>
<g id="a_edge2_Node000001_Node000003"><a xlink:title=" ">
<path fill="none" stroke="#63b8ff" d="M140.15,-66C129.61,-66 118.82,-66 108.68,-66"/>
<polygon fill="#63b8ff" stroke="#63b8ff" points="139.93,-69.5 149.93,-66 139.93,-62.5 139.93,-69.5"/>
</a>
</g>
</g>
<!-- Node4 -->
<g id="Node000004" class="node">
<title>Node4</title>
<g id="a_Node000004"><a xlink:href="cbuffer_8h.html#a8228f34a6acad5cce8802e61ec87c9ca" target="_top" xlink:title=" ">
<polygon fill="white" stroke="#666666" points="106.75,-32 9,-32 9,0 106.75,0 106.75,-32"/>
<text text-anchor="start" x="17" y="-18.5" font-family="Helvetica,sans-Serif" font-size="10.00">zrtos_cbuffer_node</text>
<text text-anchor="middle" x="57.88" y="-6.5" font-family="Helvetica,sans-Serif" font-size="10.00">__get_next_node</text>
</a>
</g>
</g>
<!-- Node1&#45;&gt;Node4 -->
<g id="edge3_Node000001_Node000004" class="edge">
<title>Node1&#45;&gt;Node4</title>
<g id="a_edge3_Node000001_Node000004"><a xlink:title=" ">
<path fill="none" stroke="#63b8ff" d="M145.58,-45.92C132.58,-41.44 118.93,-36.73 106.42,-32.41"/>
<polygon fill="#63b8ff" stroke="#63b8ff" points="144.29,-49.18 154.88,-49.13 146.57,-42.56 144.29,-49.18"/>
</a>
</g>
</g>
</g>
</svg>
