<?xml version="1.0" encoding="UTF-8" standalone="no"?>
<!DOCTYPE svg PUBLIC "-//W3C//DTD SVG 1.1//EN"
 "http://www.w3.org/Graphics/SVG/1.1/DTD/svg11.dtd">
<!-- Generated by graphviz version 10.0.1 (20240210.2158)
 -->
<!-- Title: zrtos_list__deinit Pages: 1 -->
<svg width="403pt" height="66pt"
 viewBox="0.00 0.00 402.50 66.00" xmlns="http://www.w3.org/2000/svg" xmlns:xlink="http://www.w3.org/1999/xlink">
<g id="graph0" class="graph" transform="scale(1 1) rotate(0) translate(4 62)">
<title>zrtos_list__deinit</title>
<!-- Node1 -->
<g id="Node000001" class="node">
<title>Node1</title>
<g id="a_Node000001"><a xlink:title=" ">
<polygon fill="#999999" stroke="#666666" points="89.5,-39 0,-39 0,-19 89.5,-19 89.5,-39"/>
<text text-anchor="middle" x="44.75" y="-25.5" font-family="Helvetica,sans-Serif" font-size="10.00">zrtos_list__deinit</text>
</a>
</g>
</g>
<!-- Node2 -->
<g id="Node000002" class="node">
<title>Node2</title>
<g id="a_Node000002"><a xlink:href="list_8h.html#a19f2741be75dd514c2227963d8c629dd" target="_top" xlink:title=" ">
<polygon fill="white" stroke="#666666" points="231.5,-58 125.5,-58 125.5,-38 231.5,-38 231.5,-58"/>
<text text-anchor="middle" x="178.5" y="-44.5" font-family="Helvetica,sans-Serif" font-size="10.00">zrtos_list__is_empty</text>
</a>
</g>
</g>
<!-- Node1&#45;&gt;Node2 -->
<g id="edge1_Node000001_Node000002" class="edge">
<title>Node1&#45;&gt;Node2</title>
<g id="a_edge1_Node000001_Node000002"><a xlink:title=" ">
<path fill="none" stroke="#63b8ff" d="M89.99,-35.38C97.8,-36.51 106.07,-37.7 114.28,-38.88"/>
<polygon fill="#63b8ff" stroke="#63b8ff" points="113.5,-42.31 123.9,-40.27 114.5,-35.38 113.5,-42.31"/>
</a>
</g>
</g>
<!-- Node4 -->
<g id="Node000004" class="node">
<title>Node4</title>
<g id="a_Node000004"><a xlink:href="list_8h.html#a4ecf7568bdda1cd815956c391f29bf1e" target="_top" xlink:title=" ">
<polygon fill="white" stroke="#666666" points="220.62,-20 136.38,-20 136.38,0 220.62,0 220.62,-20"/>
<text text-anchor="middle" x="178.5" y="-6.5" font-family="Helvetica,sans-Serif" font-size="10.00">zrtos_list__shift</text>
</a>
</g>
</g>
<!-- Node1&#45;&gt;Node4 -->
<g id="edge3_Node000001_Node000004" class="edge">
<title>Node1&#45;&gt;Node4</title>
<g id="a_edge3_Node000001_Node000004"><a xlink:title=" ">
<path fill="none" stroke="#63b8ff" d="M89.99,-22.62C101.2,-21 113.35,-19.25 124.94,-17.58"/>
<polygon fill="#63b8ff" stroke="#63b8ff" points="125.37,-21.05 134.77,-16.16 124.38,-14.13 125.37,-21.05"/>
</a>
</g>
</g>
<!-- Node3 -->
<g id="Node000003" class="node">
<title>Node3</title>
<g id="a_Node000003"><a xlink:href="list_8h.html#a0039f0f08299038ab1a71e271a43a086" target="_top" xlink:title=" ">
<polygon fill="white" stroke="#666666" points="394.5,-39 267.5,-39 267.5,-19 394.5,-19 394.5,-39"/>
<text text-anchor="middle" x="331" y="-25.5" font-family="Helvetica,sans-Serif" font-size="10.00">zrtos_list__get_first_node</text>
</a>
</g>
</g>
<!-- Node2&#45;&gt;Node3 -->
<g id="edge2_Node000002_Node000003" class="edge">
<title>Node2&#45;&gt;Node3</title>
<g id="a_edge2_Node000002_Node000003"><a xlink:title=" ">
<path fill="none" stroke="#63b8ff" d="M231.72,-41.41C239.59,-40.41 247.85,-39.37 256.08,-38.33"/>
<polygon fill="#63b8ff" stroke="#63b8ff" points="256.27,-41.84 265.75,-37.11 255.39,-34.89 256.27,-41.84"/>
</a>
</g>
</g>
<!-- Node4&#45;&gt;Node3 -->
<g id="edge4_Node000004_Node000003" class="edge">
<title>Node4&#45;&gt;Node3</title>
<g id="a_edge4_Node000004_Node000003"><a xlink:title=" ">
<path fill="none" stroke="#63b8ff" d="M221.02,-15.24C231.84,-16.61 243.82,-18.12 255.77,-19.63"/>
<polygon fill="#63b8ff" stroke="#63b8ff" points="255.32,-23.1 265.68,-20.88 256.19,-16.15 255.32,-23.1"/>
</a>
</g>
</g>
</g>
</svg>
