<?xml version="1.0" encoding="UTF-8" standalone="no"?>
<!DOCTYPE svg PUBLIC "-//W3C//DTD SVG 1.1//EN"
 "http://www.w3.org/Graphics/SVG/1.1/DTD/svg11.dtd">
<!-- Generated by graphviz version 10.0.1 (20240210.2158)
 -->
<!-- Title: zrtos_list__deinit Pages: 1 -->
<svg width="533pt" height="140pt"
 viewBox="0.00 0.00 532.50 140.00" xmlns="http://www.w3.org/2000/svg" xmlns:xlink="http://www.w3.org/1999/xlink">
<g id="graph0" class="graph" transform="scale(1 1) rotate(0) translate(4 136)">
<title>zrtos_list__deinit</title>
<!-- Node1 -->
<g id="Node000001" class="node">
<title>Node1</title>
<g id="a_Node000001"><a xlink:title=" ">
<polygon fill="#999999" stroke="#666666" points="524.5,-76 435,-76 435,-56 524.5,-56 524.5,-76"/>
<text text-anchor="middle" x="479.75" y="-62.5" font-family="Helvetica,sans-Serif" font-size="10.00">zrtos_list__deinit</text>
</a>
</g>
</g>
<!-- Node2 -->
<g id="Node000002" class="node">
<title>Node2</title>
<g id="a_Node000002"><a xlink:href="cbuffer_8h.html#ac432ff17b01aedab263746e01d2df060" target="_top" xlink:title=" ">
<polygon fill="white" stroke="#666666" points="399,-76 293.75,-76 293.75,-56 399,-56 399,-76"/>
<text text-anchor="middle" x="346.38" y="-62.5" font-family="Helvetica,sans-Serif" font-size="10.00">zrtos_cbuffer__deinit</text>
</a>
</g>
</g>
<!-- Node1&#45;&gt;Node2 -->
<g id="edge1_Node000001_Node000002" class="edge">
<title>Node1&#45;&gt;Node2</title>
<g id="a_edge1_Node000001_Node000002"><a xlink:title=" ">
<path fill="none" stroke="#63b8ff" d="M423.23,-66C415.31,-66 407.18,-66 399.33,-66"/>
<polygon fill="#63b8ff" stroke="#63b8ff" points="423.13,-69.5 433.13,-66 423.12,-62.5 423.13,-69.5"/>
</a>
</g>
</g>
<!-- Node3 -->
<g id="Node000003" class="node">
<title>Node3</title>
<g id="a_Node000003"><a xlink:href="spi_2spi_8h.html#a32046c6fe4df16f4795a3de4fdf61f8f" target="_top" xlink:title=" ">
<polygon fill="white" stroke="#666666" points="255.88,-132 146.88,-132 146.88,-100 255.88,-100 255.88,-132"/>
<text text-anchor="start" x="154.88" y="-118.5" font-family="Helvetica,sans-Serif" font-size="10.00">zrtos_vfs_module_spi</text>
<text text-anchor="middle" x="201.38" y="-106.5" font-family="Helvetica,sans-Serif" font-size="10.00">_file__deinit</text>
</a>
</g>
</g>
<!-- Node2&#45;&gt;Node3 -->
<g id="edge2_Node000002_Node000003" class="edge">
<title>Node2&#45;&gt;Node3</title>
<g id="a_edge2_Node000002_Node000003"><a xlink:title=" ">
<path fill="none" stroke="#63b8ff" d="M304.58,-80.26C287.4,-86.27 267.29,-93.3 249.48,-99.53"/>
<polygon fill="#63b8ff" stroke="#63b8ff" points="305.68,-83.59 313.97,-76.98 303.37,-76.98 305.68,-83.59"/>
</a>
</g>
</g>
<!-- Node5 -->
<g id="Node000005" class="node">
<title>Node5</title>
<g id="a_Node000005"><a xlink:href="spi_2spi_8h.html#a18e98b2ff2735e9c263e143d51880842" target="_top" xlink:title=" ">
<polygon fill="white" stroke="#666666" points="255.88,-82 146.88,-82 146.88,-50 255.88,-50 255.88,-82"/>
<text text-anchor="start" x="154.88" y="-68.5" font-family="Helvetica,sans-Serif" font-size="10.00">zrtos_vfs_module_spi</text>
<text text-anchor="middle" x="201.38" y="-56.5" font-family="Helvetica,sans-Serif" font-size="10.00">_file__init</text>
</a>
</g>
</g>
<!-- Node2&#45;&gt;Node5 -->
<g id="edge4_Node000002_Node000005" class="edge">
<title>Node2&#45;&gt;Node5</title>
<g id="a_edge4_Node000002_Node000005"><a xlink:title=" ">
<path fill="none" stroke="#63b8ff" d="M282.07,-66C273.38,-66 264.54,-66 256.05,-66"/>
<polygon fill="#63b8ff" stroke="#63b8ff" points="281.83,-69.5 291.83,-66 281.83,-62.5 281.83,-69.5"/>
</a>
</g>
</g>
<!-- Node7 -->
<g id="Node000007" class="node">
<title>Node7</title>
<g id="a_Node000007"><a xlink:href="uart_2uart_8h.html#af8b2335443595fdc65e31aa7faa070a3" target="_top" xlink:title=" ">
<polygon fill="white" stroke="#666666" points="257.75,-32 145,-32 145,0 257.75,0 257.75,-32"/>
<text text-anchor="start" x="153" y="-18.5" font-family="Helvetica,sans-Serif" font-size="10.00">zrtos_vfs_module_uart</text>
<text text-anchor="middle" x="201.38" y="-6.5" font-family="Helvetica,sans-Serif" font-size="10.00">_inode__init</text>
</a>
</g>
</g>
<!-- Node2&#45;&gt;Node7 -->
<g id="edge6_Node000002_Node000007" class="edge">
<title>Node2&#45;&gt;Node7</title>
<g id="a_edge6_Node000002_Node000007"><a xlink:title=" ">
<path fill="none" stroke="#63b8ff" d="M304.58,-51.74C287.4,-45.73 267.29,-38.7 249.48,-32.47"/>
<polygon fill="#63b8ff" stroke="#63b8ff" points="303.37,-55.02 313.97,-55.02 305.68,-48.41 303.37,-55.02"/>
</a>
</g>
</g>
<!-- Node4 -->
<g id="Node000004" class="node">
<title>Node4</title>
<g id="a_Node000004"><a xlink:href="spi_2spi_8h.html#ae37ac67ac292b108b745f060bd34c7de" target="_top" xlink:title=" ">
<polygon fill="white" stroke="#666666" points="109,-132 0,-132 0,-100 109,-100 109,-132"/>
<text text-anchor="start" x="8" y="-118.5" font-family="Helvetica,sans-Serif" font-size="10.00">zrtos_vfs_module_spi</text>
<text text-anchor="middle" x="54.5" y="-106.5" font-family="Helvetica,sans-Serif" font-size="10.00">_file__free</text>
</a>
</g>
</g>
<!-- Node3&#45;&gt;Node4 -->
<g id="edge3_Node000003_Node000004" class="edge">
<title>Node3&#45;&gt;Node4</title>
<g id="a_edge3_Node000003_Node000004"><a xlink:title=" ">
<path fill="none" stroke="#63b8ff" d="M134.95,-116C126.43,-116 117.79,-116 109.49,-116"/>
<polygon fill="#63b8ff" stroke="#63b8ff" points="134.92,-119.5 144.92,-116 134.92,-112.5 134.92,-119.5"/>
</a>
</g>
</g>
<!-- Node6 -->
<g id="Node000006" class="node">
<title>Node6</title>
<g id="a_Node000006"><a xlink:href="spi_2spi_8h.html#a233cf747fcbc04752c320e48e8101632" target="_top" xlink:title=" ">
<polygon fill="white" stroke="#666666" points="109,-82 0,-82 0,-50 109,-50 109,-82"/>
<text text-anchor="start" x="8" y="-68.5" font-family="Helvetica,sans-Serif" font-size="10.00">zrtos_vfs_module_spi</text>
<text text-anchor="middle" x="54.5" y="-56.5" font-family="Helvetica,sans-Serif" font-size="10.00">_file__new</text>
</a>
</g>
</g>
<!-- Node5&#45;&gt;Node6 -->
<g id="edge5_Node000005_Node000006" class="edge">
<title>Node5&#45;&gt;Node6</title>
<g id="a_edge5_Node000005_Node000006"><a xlink:title=" ">
<path fill="none" stroke="#63b8ff" d="M134.95,-66C126.43,-66 117.79,-66 109.49,-66"/>
<polygon fill="#63b8ff" stroke="#63b8ff" points="134.92,-69.5 144.92,-66 134.92,-62.5 134.92,-69.5"/>
</a>
</g>
</g>
</g>
</svg>
