<?xml version="1.0" encoding="UTF-8" standalone="no"?>
<!DOCTYPE svg PUBLIC "-//W3C//DTD SVG 1.1//EN"
 "http://www.w3.org/Graphics/SVG/1.1/DTD/svg11.dtd">
<!-- Generated by graphviz version 10.0.1 (20240210.2158)
 -->
<!-- Title: zrtos_list__get_last_node Pages: 1 -->
<svg width="1722pt" height="621pt"
 viewBox="0.00 0.00 1722.25 620.61" xmlns="http://www.w3.org/2000/svg" xmlns:xlink="http://www.w3.org/1999/xlink">
<g id="graph0" class="graph" transform="scale(1 1) rotate(0) translate(4 616.61)">
<title>zrtos_list__get_last_node</title>
<!-- Node1 -->
<g id="Node000001" class="node">
<title>Node1</title>
<g id="a_Node000001"><a xlink:title=" ">
<polygon fill="#999999" stroke="#666666" points="1714.25,-185 1587.25,-185 1587.25,-165 1714.25,-165 1714.25,-185"/>
<text text-anchor="middle" x="1650.75" y="-171.5" font-family="Helvetica,sans-Serif" font-size="10.00">zrtos_list__get_last_node</text>
</a>
</g>
</g>
<!-- Node2 -->
<g id="Node000002" class="node">
<title>Node2</title>
<g id="a_Node000002"><a xlink:href="cbuffer_8h.html#a0866b42eeda6c649a07a451372bad55a" target="_top" xlink:title=" ">
<polygon fill="white" stroke="#666666" points="1085.88,-246 990.38,-246 990.38,-214 1085.88,-214 1085.88,-246"/>
<text text-anchor="start" x="998.38" y="-232.5" font-family="Helvetica,sans-Serif" font-size="10.00">zrtos_cbuffer__get</text>
<text text-anchor="middle" x="1038.12" y="-220.5" font-family="Helvetica,sans-Serif" font-size="10.00">_last_node</text>
</a>
</g>
</g>
<!-- Node1&#45;&gt;Node2 -->
<g id="edge1_Node000001_Node000002" class="edge">
<title>Node1&#45;&gt;Node2</title>
<g id="a_edge1_Node000001_Node000002"><a xlink:title=" ">
<path fill="none" stroke="#63b8ff" d="M1575.62,-186.03C1567.41,-187.11 1559.16,-188.12 1551.25,-189 1380.38,-207.97 1176.49,-221.61 1086.17,-227.2"/>
<polygon fill="#63b8ff" stroke="#63b8ff" points="1575.82,-189.54 1585.27,-184.74 1574.89,-182.6 1575.82,-189.54"/>
</a>
</g>
</g>
<!-- Node25 -->
<g id="Node000025" class="node">
<title>Node25</title>
<g id="a_Node000025"><a xlink:href="cbuffer_8h.html#afdb6a6176387d77a0f10e28536ba28f9" target="_top" xlink:title=" ">
<polygon fill="white" stroke="#666666" points="931.12,-145 835.62,-145 835.62,-125 931.12,-125 931.12,-145"/>
<text text-anchor="middle" x="883.38" y="-131.5" font-family="Helvetica,sans-Serif" font-size="10.00">zrtos_cbuffer__put</text>
</a>
</g>
</g>
<!-- Node1&#45;&gt;Node25 -->
<g id="edge31_Node000001_Node000025" class="edge">
<title>Node1&#45;&gt;Node25</title>
<g id="a_edge31_Node000001_Node000025"><a xlink:title=" ">
<path fill="none" stroke="#63b8ff" d="M1575.64,-175C1517.8,-175 1435.41,-175 1363.25,-175 1363.25,-175 1363.25,-175 1196.75,-175 1098.83,-175 1074.01,-171.05 977.25,-156 959.94,-153.31 941.04,-149.24 924.83,-145.41"/>
<polygon fill="#63b8ff" stroke="#63b8ff" points="1575.36,-178.5 1585.36,-175 1575.36,-171.5 1575.36,-178.5"/>
</a>
</g>
</g>
<!-- Node33 -->
<g id="Node000033" class="node">
<title>Node33</title>
<g id="a_Node000033"><a xlink:href="list_8h.html#aa734984fb49603438b179f49fff38477" target="_top" xlink:title=" ">
<polygon fill="white" stroke="#666666" points="1551.25,-135 1464,-135 1464,-115 1551.25,-115 1551.25,-135"/>
<text text-anchor="middle" x="1507.62" y="-121.5" font-family="Helvetica,sans-Serif" font-size="10.00">zrtos_list__push</text>
</a>
</g>
</g>
<!-- Node1&#45;&gt;Node33 -->
<g id="edge42_Node000001_Node000033" class="edge">
<title>Node1&#45;&gt;Node33</title>
<g id="a_edge42_Node000001_Node000033"><a xlink:title=" ">
<path fill="none" stroke="#63b8ff" d="M1609.48,-160.73C1586.76,-152.68 1558.86,-142.8 1538.17,-135.47"/>
<polygon fill="#63b8ff" stroke="#63b8ff" points="1608.14,-163.97 1618.74,-164.01 1610.48,-157.37 1608.14,-163.97"/>
</a>
</g>
</g>
<!-- Node3 -->
<g id="Node000003" class="node">
<title>Node3</title>
<g id="a_Node000003"><a xlink:href="cbuffer_8h.html#a9aa1ad8581d3c89304d2ff464a53e92e" target="_top" xlink:title=" ">
<polygon fill="white" stroke="#666666" points="941.25,-296 825.5,-296 825.5,-264 941.25,-264 941.25,-296"/>
<text text-anchor="start" x="833.5" y="-282.5" font-family="Helvetica,sans-Serif" font-size="10.00">zrtos_cbuffer__rollback</text>
<text text-anchor="middle" x="883.38" y="-270.5" font-family="Helvetica,sans-Serif" font-size="10.00">_write_transaction</text>
</a>
</g>
</g>
<!-- Node2&#45;&gt;Node3 -->
<g id="edge2_Node000002_Node000003" class="edge">
<title>Node2&#45;&gt;Node3</title>
<g id="a_edge2_Node000002_Node000003"><a xlink:title=" ">
<path fill="none" stroke="#63b8ff" d="M979.53,-248.85C964.8,-253.67 949.08,-258.82 934.74,-263.51"/>
<polygon fill="#63b8ff" stroke="#63b8ff" points="980.2,-252.32 988.61,-245.88 978.02,-245.67 980.2,-252.32"/>
</a>
</g>
</g>
<!-- Node23 -->
<g id="Node000023" class="node">
<title>Node23</title>
<g id="a_Node000023"><a xlink:href="cbuffer_8h.html#aaf9c5c04a1350c2cdd906f7c7081ee38" target="_top" xlink:title=" ">
<polygon fill="white" stroke="#666666" points="934.12,-246 832.62,-246 832.62,-214 934.12,-214 934.12,-246"/>
<text text-anchor="start" x="840.62" y="-232.5" font-family="Helvetica,sans-Serif" font-size="10.00">zrtos_cbuffer__start</text>
<text text-anchor="middle" x="883.38" y="-220.5" font-family="Helvetica,sans-Serif" font-size="10.00">_write_transaction</text>
</a>
</g>
</g>
<!-- Node2&#45;&gt;Node23 -->
<g id="edge26_Node000002_Node000023" class="edge">
<title>Node2&#45;&gt;Node23</title>
<g id="a_edge26_Node000002_Node000023"><a xlink:title=" ">
<path fill="none" stroke="#63b8ff" d="M978.61,-230C964.06,-230 948.59,-230 934.47,-230"/>
<polygon fill="#63b8ff" stroke="#63b8ff" points="978.54,-233.5 988.54,-230 978.53,-226.5 978.54,-233.5"/>
</a>
</g>
</g>
<!-- Node4 -->
<g id="Node000004" class="node">
<title>Node4</title>
<g id="a_Node000004"><a xlink:href="cbuffer_8h.html#a5d269503e04946737598d2062c5bfaf4" target="_top" xlink:title=" ">
<polygon fill="white" stroke="#666666" points="777.88,-384 666.62,-384 666.62,-364 777.88,-364 777.88,-384"/>
<text text-anchor="middle" x="722.25" y="-370.5" font-family="Helvetica,sans-Serif" font-size="10.00">zrtos_cbuffer__put_ex</text>
</a>
</g>
</g>
<!-- Node3&#45;&gt;Node4 -->
<g id="edge3_Node000003_Node000004" class="edge">
<title>Node3&#45;&gt;Node4</title>
<g id="a_edge3_Node000003_Node000004"><a xlink:title=" ">
<path fill="none" stroke="#63b8ff" d="M844.93,-302.12C812.08,-321.53 765.76,-348.89 740.81,-363.63"/>
<polygon fill="#63b8ff" stroke="#63b8ff" points="846.52,-305.24 853.35,-297.14 842.96,-299.22 846.52,-305.24"/>
</a>
</g>
</g>
<!-- Node22 -->
<g id="Node000022" class="node">
<title>Node22</title>
<g id="a_Node000022"><a xlink:href="msg__queue_8h.html#a0eefe9e5e6f83f1fcd2c66546a05add7" target="_top" xlink:title=" ">
<polygon fill="white" stroke="#666666" points="617.12,-296 479.62,-296 479.62,-264 617.12,-264 617.12,-296"/>
<text text-anchor="start" x="487.62" y="-282.5" font-family="Helvetica,sans-Serif" font-size="10.00">zrtos_msg_queue__rollback</text>
<text text-anchor="middle" x="548.38" y="-270.5" font-family="Helvetica,sans-Serif" font-size="10.00">_write_transaction</text>
</a>
</g>
</g>
<!-- Node3&#45;&gt;Node22 -->
<g id="edge23_Node000003_Node000022" class="edge">
<title>Node3&#45;&gt;Node22</title>
<g id="a_edge23_Node000003_Node000022"><a xlink:title=" ">
<path fill="none" stroke="#63b8ff" d="M813.97,-280C756.48,-280 674.73,-280 617.36,-280"/>
<polygon fill="#63b8ff" stroke="#63b8ff" points="813.62,-283.5 823.62,-280 813.62,-276.5 813.62,-283.5"/>
</a>
</g>
</g>
<!-- Node5 -->
<g id="Node000005" class="node">
<title>Node5</title>
<g id="a_Node000005"><a xlink:href="msg__queue_8h.html#ab51eb620b09145d1b05966404c9e0ca4" target="_top" xlink:title=" ">
<polygon fill="white" stroke="#666666" points="607,-384 489.75,-384 489.75,-364 607,-364 607,-384"/>
<text text-anchor="middle" x="548.38" y="-370.5" font-family="Helvetica,sans-Serif" font-size="10.00">zrtos_msg_queue__put</text>
</a>
</g>
</g>
<!-- Node4&#45;&gt;Node5 -->
<g id="edge4_Node000004_Node000005" class="edge">
<title>Node4&#45;&gt;Node5</title>
<g id="a_edge4_Node000004_Node000005"><a xlink:title=" ">
<path fill="none" stroke="#63b8ff" d="M655.11,-374C639.34,-374 622.63,-374 607.26,-374"/>
<polygon fill="#63b8ff" stroke="#63b8ff" points="654.88,-377.5 664.88,-374 654.88,-370.5 654.88,-377.5"/>
</a>
</g>
</g>
<!-- Node6 -->
<g id="Node000006" class="node">
<title>Node6</title>
<g id="a_Node000006"><a xlink:href="msg__queue_8h.html#a14fb4faf04687986da3435e06db5d587" target="_top" xlink:title=" ">
<polygon fill="white" stroke="#666666" points="619,-422 477.75,-422 477.75,-402 619,-402 619,-422"/>
<text text-anchor="middle" x="548.38" y="-408.5" font-family="Helvetica,sans-Serif" font-size="10.00">zrtos_msg_queue__put_data</text>
</a>
</g>
</g>
<!-- Node4&#45;&gt;Node6 -->
<g id="edge5_Node000004_Node000006" class="edge">
<title>Node4&#45;&gt;Node6</title>
<g id="a_edge5_Node000004_Node000006"><a xlink:title=" ">
<path fill="none" stroke="#63b8ff" d="M662.82,-386.92C641.25,-391.69 617.1,-397.03 596.64,-401.55"/>
<polygon fill="#63b8ff" stroke="#63b8ff" points="663.34,-390.39 672.35,-384.81 661.83,-383.55 663.34,-390.39"/>
</a>
</g>
</g>
<!-- Node8 -->
<g id="Node000008" class="node">
<title>Node8</title>
<g id="a_Node000008"><a xlink:href="msg__queue_8h.html#a9f24485c49e6b6ba13406e9a5d1f352d" target="_top" xlink:title=" ">
<polygon fill="white" stroke="#666666" points="607,-346 489.75,-346 489.75,-314 607,-314 607,-346"/>
<text text-anchor="start" x="497.75" y="-332.5" font-family="Helvetica,sans-Serif" font-size="10.00">zrtos_msg_queue__put</text>
<text text-anchor="middle" x="548.38" y="-320.5" font-family="Helvetica,sans-Serif" font-size="10.00">_length</text>
</a>
</g>
</g>
<!-- Node4&#45;&gt;Node8 -->
<g id="edge7_Node000004_Node000008" class="edge">
<title>Node4&#45;&gt;Node8</title>
<g id="a_edge7_Node000004_Node000008"><a xlink:title=" ">
<path fill="none" stroke="#63b8ff" d="M669.37,-360.72C649.81,-355.71 627.45,-349.99 607.38,-344.85"/>
<polygon fill="#63b8ff" stroke="#63b8ff" points="668.5,-364.11 679.05,-363.2 670.23,-357.33 668.5,-364.11"/>
</a>
</g>
</g>
<!-- Node11 -->
<g id="Node000011" class="node">
<title>Node11</title>
<g id="a_Node000011"><a xlink:href="spi_2spi_8h.html#ac672df98eac652a9d1925ba73229c475" target="_top" xlink:title=" ">
<polygon fill="white" stroke="#666666" points="264.12,-612 155.12,-612 155.12,-580 264.12,-580 264.12,-612"/>
<text text-anchor="start" x="163.12" y="-598.5" font-family="Helvetica,sans-Serif" font-size="10.00">zrtos_vfs_module_spi</text>
<text text-anchor="middle" x="209.62" y="-586.5" font-family="Helvetica,sans-Serif" font-size="10.00">__on_write</text>
</a>
</g>
</g>
<!-- Node4&#45;&gt;Node11 -->
<g id="edge11_Node000004_Node000011" class="edge">
<title>Node4&#45;&gt;Node11</title>
<g id="a_edge11_Node000004_Node000011"><a xlink:title=" ">
<path fill="none" stroke="#63b8ff" d="M715.9,-395.28C704.95,-433.94 676.08,-515.2 619,-553 510.07,-625.12 347.84,-616.03 264.43,-605.03"/>
<polygon fill="#63b8ff" stroke="#63b8ff" points="719.23,-396.36 718.44,-385.8 712.47,-394.55 719.23,-396.36"/>
</a>
</g>
</g>
<!-- Node13 -->
<g id="Node000013" class="node">
<title>Node13</title>
<g id="a_Node000013"><a xlink:href="spi_2spi_8h.html#a7f9adeb6314d47b2442b0a17d1cc2f37" target="_top" xlink:title=" ">
<polygon fill="white" stroke="#666666" points="602.88,-544 493.88,-544 493.88,-512 602.88,-512 602.88,-544"/>
<text text-anchor="start" x="501.88" y="-530.5" font-family="Helvetica,sans-Serif" font-size="10.00">zrtos_vfs_module_spi</text>
<text text-anchor="middle" x="548.38" y="-518.5" font-family="Helvetica,sans-Serif" font-size="10.00">__transfer_in</text>
</a>
</g>
</g>
<!-- Node4&#45;&gt;Node13 -->
<g id="edge13_Node000004_Node000013" class="edge">
<title>Node4&#45;&gt;Node13</title>
<g id="a_edge13_Node000004_Node000013"><a xlink:title=" ">
<path fill="none" stroke="#63b8ff" d="M705.3,-393.02C686.07,-415.39 652.16,-453.02 619,-481 605.74,-492.19 589.76,-503.14 576.46,-511.64"/>
<polygon fill="#63b8ff" stroke="#63b8ff" points="707.81,-395.48 711.63,-385.59 702.48,-390.94 707.81,-395.48"/>
</a>
</g>
</g>
<!-- Node17 -->
<g id="Node000017" class="node">
<title>Node17</title>
<g id="a_Node000017"><a xlink:href="uart_2uart_8h.html#a9e735d9796aaa30e4a5fce9c763adf92" target="_top" xlink:title=" ">
<polygon fill="white" stroke="#666666" points="604.75,-472 492,-472 492,-440 604.75,-440 604.75,-472"/>
<text text-anchor="start" x="500" y="-458.5" font-family="Helvetica,sans-Serif" font-size="10.00">zrtos_vfs_module_uart</text>
<text text-anchor="middle" x="548.38" y="-446.5" font-family="Helvetica,sans-Serif" font-size="10.00">__on_write</text>
</a>
</g>
</g>
<!-- Node4&#45;&gt;Node17 -->
<g id="edge18_Node000004_Node000017" class="edge">
<title>Node4&#45;&gt;Node17</title>
<g id="a_edge18_Node000004_Node000017"><a xlink:title=" ">
<path fill="none" stroke="#63b8ff" d="M694.92,-390.25C674.63,-402.39 645.63,-418.9 619,-431 612.45,-433.98 605.44,-436.85 598.47,-439.52"/>
<polygon fill="#63b8ff" stroke="#63b8ff" points="696.64,-393.3 703.39,-385.13 693.02,-387.31 696.64,-393.3"/>
</a>
</g>
</g>
<!-- Node7 -->
<g id="Node000007" class="node">
<title>Node7</title>
<g id="a_Node000007"><a xlink:href="rtu_8h.html#ac0ca767b3e1e9a8b1f290448a122e095" target="_top" xlink:title=" ">
<polygon fill="white" stroke="#666666" points="441.75,-302 311,-302 311,-270 441.75,-270 441.75,-302"/>
<text text-anchor="start" x="319" y="-288.5" font-family="Helvetica,sans-Serif" font-size="10.00">zrtos_vfs_module_modbus</text>
<text text-anchor="middle" x="376.38" y="-276.5" font-family="Helvetica,sans-Serif" font-size="10.00">_rtu__on_write</text>
</a>
</g>
</g>
<!-- Node6&#45;&gt;Node7 -->
<g id="edge6_Node000006_Node000007" class="edge">
<title>Node6&#45;&gt;Node7</title>
<g id="a_edge6_Node000006_Node000007"><a xlink:title=" ">
<path fill="none" stroke="#63b8ff" d="M482.37,-396.35C480.77,-395.3 479.23,-394.19 477.75,-393 450.81,-371.3 465.56,-349.09 441.75,-324 433.62,-315.43 423.14,-308.16 413,-302.33"/>
<polygon fill="#63b8ff" stroke="#63b8ff" points="480.26,-399.18 490.72,-400.88 483.6,-393.03 480.26,-399.18"/>
</a>
</g>
</g>
<!-- Node8&#45;&gt;Node7 -->
<g id="edge10_Node000008_Node000007" class="edge">
<title>Node8&#45;&gt;Node7</title>
<g id="a_edge10_Node000008_Node000007"><a xlink:title=" ">
<path fill="none" stroke="#63b8ff" d="M478.58,-312.19C466.15,-308.98 453.24,-305.64 440.97,-302.46"/>
<polygon fill="#63b8ff" stroke="#63b8ff" points="477.32,-315.48 487.88,-314.6 479.08,-308.71 477.32,-315.48"/>
</a>
</g>
</g>
<!-- Node9 -->
<g id="Node000009" class="node">
<title>Node9</title>
<g id="a_Node000009"><a xlink:href="rtu_8h.html#a223fc39dfd241ff17884c9f5d03f8e78" target="_top" xlink:title=" ">
<polygon fill="white" stroke="#666666" points="441.75,-246 311,-246 311,-214 441.75,-214 441.75,-246"/>
<text text-anchor="start" x="319" y="-232.5" font-family="Helvetica,sans-Serif" font-size="10.00">zrtos_vfs_module_modbus</text>
<text text-anchor="middle" x="376.38" y="-220.5" font-family="Helvetica,sans-Serif" font-size="10.00">_rtu__on_recv_timeout</text>
</a>
</g>
</g>
<!-- Node8&#45;&gt;Node9 -->
<g id="edge8_Node000008_Node000009" class="edge">
<title>Node8&#45;&gt;Node9</title>
<g id="a_edge8_Node000008_Node000009"><a xlink:title=" ">
<path fill="none" stroke="#63b8ff" d="M482.66,-308.23C480.98,-307.2 479.34,-306.12 477.75,-305 457.11,-290.42 461.6,-276.63 441.75,-261 434.73,-255.48 426.57,-250.61 418.46,-246.46"/>
<polygon fill="#63b8ff" stroke="#63b8ff" points="480.92,-311.26 491.38,-312.95 484.25,-305.11 480.92,-311.26"/>
</a>
</g>
</g>
<!-- Node10 -->
<g id="Node000010" class="node">
<title>Node10</title>
<g id="a_Node000010"><a xlink:href="rtu_8h.html#a2376d02a52d42eef634ef843afc499f3" target="_top" xlink:title=" ">
<polygon fill="white" stroke="#666666" points="275,-209 144.25,-209 144.25,-177 275,-177 275,-209"/>
<text text-anchor="start" x="152.25" y="-195.5" font-family="Helvetica,sans-Serif" font-size="10.00">zrtos_vfs_module_modbus</text>
<text text-anchor="middle" x="209.62" y="-183.5" font-family="Helvetica,sans-Serif" font-size="10.00">_rtu_inode__init</text>
</a>
</g>
</g>
<!-- Node9&#45;&gt;Node10 -->
<g id="edge9_Node000009_Node000010" class="edge">
<title>Node9&#45;&gt;Node10</title>
<g id="a_edge9_Node000009_Node000010"><a xlink:title=" ">
<path fill="none" stroke="#63b8ff" d="M299.72,-213.01C291.58,-211.18 283.35,-209.33 275.35,-207.54"/>
<polygon fill="#63b8ff" stroke="#63b8ff" points="298.73,-216.37 309.26,-215.15 300.27,-209.54 298.73,-216.37"/>
</a>
</g>
</g>
<!-- Node12 -->
<g id="Node000012" class="node">
<title>Node12</title>
<g id="a_Node000012"><a xlink:href="avr_2spi_2spi_8h.html#ab6f547c3ce7ee0463c235abe078f9491" target="_top" xlink:title=" ">
<polygon fill="white" stroke="#666666" points="108.25,-609 0,-609 0,-577 108.25,-577 108.25,-609"/>
<text text-anchor="start" x="8" y="-595.5" font-family="Helvetica,sans-Serif" font-size="10.00">zrtos_vfs_module_avr</text>
<text text-anchor="middle" x="54.12" y="-583.5" font-family="Helvetica,sans-Serif" font-size="10.00">_spi__on_write</text>
</a>
</g>
</g>
<!-- Node11&#45;&gt;Node12 -->
<g id="edge12_Node000011_Node000012" class="edge">
<title>Node11&#45;&gt;Node12</title>
<g id="a_edge12_Node000011_Node000012"><a xlink:title=" ">
<path fill="none" stroke="#63b8ff" d="M143.45,-594.73C131.8,-594.5 119.79,-594.26 108.52,-594.04"/>
<polygon fill="#63b8ff" stroke="#63b8ff" points="143.36,-598.23 153.42,-594.92 143.5,-591.23 143.36,-598.23"/>
</a>
</g>
</g>
<!-- Node14 -->
<g id="Node000014" class="node">
<title>Node14</title>
<g id="a_Node000014"><a xlink:href="spi_2spi_8h.html#ab31c12597a3f2932aaf01466ffff59bb" target="_top" xlink:title=" ">
<polygon fill="white" stroke="#666666" points="430.88,-565 321.88,-565 321.88,-533 430.88,-533 430.88,-565"/>
<text text-anchor="start" x="329.88" y="-551.5" font-family="Helvetica,sans-Serif" font-size="10.00">zrtos_vfs_module_spi</text>
<text text-anchor="middle" x="376.38" y="-539.5" font-family="Helvetica,sans-Serif" font-size="10.00">__transfer</text>
</a>
</g>
</g>
<!-- Node13&#45;&gt;Node14 -->
<g id="edge14_Node000013_Node000014" class="edge">
<title>Node13&#45;&gt;Node14</title>
<g id="a_edge14_Node000013_Node000014"><a xlink:title=" ">
<path fill="none" stroke="#63b8ff" d="M482.61,-536C465.61,-538.1 447.46,-540.34 431.11,-542.36"/>
<polygon fill="#63b8ff" stroke="#63b8ff" points="482.59,-539.53 492.08,-534.83 481.73,-532.58 482.59,-539.53"/>
</a>
</g>
</g>
<!-- Node15 -->
<g id="Node000015" class="node">
<title>Node15</title>
<g id="a_Node000015"><a xlink:href="avr_2spi_2spi_8h.html#a3a0f3b324bd986778ccde00670dbabc9" target="_top" xlink:title=" ">
<polygon fill="white" stroke="#666666" points="263.75,-562 155.5,-562 155.5,-530 263.75,-530 263.75,-562"/>
<text text-anchor="start" x="163.5" y="-548.5" font-family="Helvetica,sans-Serif" font-size="10.00">zrtos_vfs_module_avr</text>
<text text-anchor="middle" x="209.62" y="-536.5" font-family="Helvetica,sans-Serif" font-size="10.00">_spi__on_interrupt</text>
</a>
</g>
</g>
<!-- Node14&#45;&gt;Node15 -->
<g id="edge15_Node000014_Node000015" class="edge">
<title>Node14&#45;&gt;Node15</title>
<g id="a_edge15_Node000014_Node000015"><a xlink:title=" ">
<path fill="none" stroke="#63b8ff" d="M309.99,-547.81C294.78,-547.53 278.76,-547.24 264.13,-546.97"/>
<polygon fill="#63b8ff" stroke="#63b8ff" points="309.85,-551.31 319.92,-547.99 309.98,-544.31 309.85,-551.31"/>
</a>
</g>
</g>
<!-- Node15&#45;&gt;Node12 -->
<g id="edge17_Node000015_Node000012" class="edge">
<title>Node15&#45;&gt;Node12</title>
<g id="a_edge17_Node000015_Node000012"><a xlink:title=" ">
<path fill="none" stroke="#63b8ff" d="M144.53,-565.63C132.55,-569.29 120.16,-573.09 108.55,-576.64"/>
<polygon fill="#63b8ff" stroke="#63b8ff" points="145.38,-569.02 153.92,-562.75 143.34,-562.33 145.38,-569.02"/>
</a>
</g>
</g>
<!-- Node16 -->
<g id="Node000016" class="node">
<title>Node16</title>
<g id="a_Node000016"><a xlink:href="avr_2spi_2spi_8h.html#a0353f98d744b931e541684fe33b272f7" target="_top" xlink:title=" ">
<polygon fill="white" stroke="#666666" points="70,-556 38.25,-556 38.25,-536 70,-536 70,-556"/>
<text text-anchor="middle" x="54.12" y="-542.5" font-family="Helvetica,sans-Serif" font-size="10.00">ISR</text>
</a>
</g>
</g>
<!-- Node15&#45;&gt;Node16 -->
<g id="edge16_Node000015_Node000016" class="edge">
<title>Node15&#45;&gt;Node16</title>
<g id="a_edge16_Node000015_Node000016"><a xlink:title=" ">
<path fill="none" stroke="#63b8ff" d="M143.93,-546C116.84,-546 87.7,-546 70.46,-546"/>
<polygon fill="#63b8ff" stroke="#63b8ff" points="143.86,-549.5 153.86,-546 143.86,-542.5 143.86,-549.5"/>
</a>
</g>
</g>
<!-- Node18 -->
<g id="Node000018" class="node">
<title>Node18</title>
<g id="a_Node000018"><a xlink:href="uart0_8h.html#a1c08ba1c9bac4dd9a045d06a07dbe0b4" target="_top" xlink:title=" ">
<polygon fill="white" stroke="#666666" points="430.5,-415 322.25,-415 322.25,-383 430.5,-383 430.5,-415"/>
<text text-anchor="start" x="330.25" y="-401.5" font-family="Helvetica,sans-Serif" font-size="10.00">zrtos_vfs_module_avr</text>
<text text-anchor="middle" x="376.38" y="-389.5" font-family="Helvetica,sans-Serif" font-size="10.00">_uart0__on_write</text>
</a>
</g>
</g>
<!-- Node17&#45;&gt;Node18 -->
<g id="edge19_Node000017_Node000018" class="edge">
<title>Node17&#45;&gt;Node18</title>
<g id="a_edge19_Node000017_Node000018"><a xlink:title=" ">
<path fill="none" stroke="#63b8ff" d="M487.36,-435.88C467.42,-429.19 445.45,-421.83 426.44,-415.45"/>
<polygon fill="#63b8ff" stroke="#63b8ff" points="486.18,-439.17 496.77,-439.03 488.4,-432.53 486.18,-439.17"/>
</a>
</g>
</g>
<!-- Node19 -->
<g id="Node000019" class="node">
<title>Node19</title>
<g id="a_Node000019"><a xlink:href="uart1_8h.html#af04452122e72ab7408b2e207191cdd33" target="_top" xlink:title=" ">
<polygon fill="white" stroke="#666666" points="430.5,-365 322.25,-365 322.25,-333 430.5,-333 430.5,-365"/>
<text text-anchor="start" x="330.25" y="-351.5" font-family="Helvetica,sans-Serif" font-size="10.00">zrtos_vfs_module_avr</text>
<text text-anchor="middle" x="376.38" y="-339.5" font-family="Helvetica,sans-Serif" font-size="10.00">_uart1__on_write</text>
</a>
</g>
</g>
<!-- Node17&#45;&gt;Node19 -->
<g id="edge20_Node000017_Node000019" class="edge">
<title>Node17&#45;&gt;Node19</title>
<g id="a_edge20_Node000017_Node000019"><a xlink:title=" ">
<path fill="none" stroke="#63b8ff" d="M481.83,-434.04C480.43,-433.07 479.06,-432.05 477.75,-431 454.38,-412.25 464.88,-393.05 441.75,-374 437.86,-370.8 433.52,-367.98 428.97,-365.49"/>
<polygon fill="#63b8ff" stroke="#63b8ff" points="479.9,-436.96 490.28,-439.1 483.5,-430.96 479.9,-436.96"/>
</a>
</g>
</g>
<!-- Node20 -->
<g id="Node000020" class="node">
<title>Node20</title>
<g id="a_Node000020"><a xlink:href="uart2_8h.html#a244148efdde4e736bdcba74328e85415" target="_top" xlink:title=" ">
<polygon fill="white" stroke="#666666" points="430.5,-515 322.25,-515 322.25,-483 430.5,-483 430.5,-515"/>
<text text-anchor="start" x="330.25" y="-501.5" font-family="Helvetica,sans-Serif" font-size="10.00">zrtos_vfs_module_avr</text>
<text text-anchor="middle" x="376.38" y="-489.5" font-family="Helvetica,sans-Serif" font-size="10.00">_uart2__on_write</text>
</a>
</g>
</g>
<!-- Node17&#45;&gt;Node20 -->
<g id="edge21_Node000017_Node000020" class="edge">
<title>Node17&#45;&gt;Node20</title>
<g id="a_edge21_Node000017_Node000020"><a xlink:title=" ">
<path fill="none" stroke="#63b8ff" d="M480.97,-472.8C464.35,-477 446.75,-481.45 430.85,-485.47"/>
<polygon fill="#63b8ff" stroke="#63b8ff" points="481.41,-476.3 490.24,-470.45 479.69,-469.51 481.41,-476.3"/>
</a>
</g>
</g>
<!-- Node21 -->
<g id="Node000021" class="node">
<title>Node21</title>
<g id="a_Node000021"><a xlink:href="uart3_8h.html#a0ac21cf2483f89180a91b9ca480eb7b8" target="_top" xlink:title=" ">
<polygon fill="white" stroke="#666666" points="430.5,-465 322.25,-465 322.25,-433 430.5,-433 430.5,-465"/>
<text text-anchor="start" x="330.25" y="-451.5" font-family="Helvetica,sans-Serif" font-size="10.00">zrtos_vfs_module_avr</text>
<text text-anchor="middle" x="376.38" y="-439.5" font-family="Helvetica,sans-Serif" font-size="10.00">_uart3__on_write</text>
</a>
</g>
</g>
<!-- Node17&#45;&gt;Node21 -->
<g id="edge22_Node000017_Node000021" class="edge">
<title>Node17&#45;&gt;Node21</title>
<g id="a_edge22_Node000017_Node000021"><a xlink:title=" ">
<path fill="none" stroke="#63b8ff" d="M480.49,-453.25C464.02,-452.57 446.59,-451.85 430.85,-451.2"/>
<polygon fill="#63b8ff" stroke="#63b8ff" points="480.06,-456.73 490.2,-453.65 480.35,-449.74 480.06,-456.73"/>
</a>
</g>
</g>
<!-- Node22&#45;&gt;Node7 -->
<g id="edge25_Node000022_Node000007" class="edge">
<title>Node22&#45;&gt;Node7</title>
<g id="a_edge25_Node000022_Node000007"><a xlink:title=" ">
<path fill="none" stroke="#63b8ff" d="M467.96,-282.8C459.35,-283.11 450.65,-283.41 442.24,-283.71"/>
<polygon fill="#63b8ff" stroke="#63b8ff" points="467.83,-286.31 477.7,-282.46 467.58,-279.31 467.83,-286.31"/>
</a>
</g>
</g>
<!-- Node22&#45;&gt;Node9 -->
<g id="edge24_Node000022_Node000009" class="edge">
<title>Node22&#45;&gt;Node9</title>
<g id="a_edge24_Node000022_Node000009"><a xlink:title=" ">
<path fill="none" stroke="#63b8ff" d="M481,-260.48C465.28,-255.85 448.67,-250.97 433.46,-246.49"/>
<polygon fill="#63b8ff" stroke="#63b8ff" points="479.68,-263.74 490.26,-263.2 481.65,-257.02 479.68,-263.74"/>
</a>
</g>
</g>
<!-- Node23&#45;&gt;Node4 -->
<g id="edge27_Node000023_Node000004" class="edge">
<title>Node23&#45;&gt;Node4</title>
<g id="a_edge27_Node000023_Node000004"><a xlink:title=" ">
<path fill="none" stroke="#63b8ff" d="M829.61,-252.14C828.2,-253.06 826.83,-254.02 825.5,-255 781.94,-287.26 744.32,-341.28 729.72,-363.73"/>
<polygon fill="#63b8ff" stroke="#63b8ff" points="831.14,-255.29 837.98,-247.2 827.59,-249.26 831.14,-255.29"/>
</a>
</g>
</g>
<!-- Node24 -->
<g id="Node000024" class="node">
<title>Node24</title>
<g id="a_Node000024"><a xlink:href="msg__queue_8h.html#a8d4b5575ad52b762ce101a31c5a29768" target="_top" xlink:title=" ">
<polygon fill="white" stroke="#666666" points="610,-246 486.75,-246 486.75,-214 610,-214 610,-246"/>
<text text-anchor="start" x="494.75" y="-232.5" font-family="Helvetica,sans-Serif" font-size="10.00">zrtos_msg_queue__start</text>
<text text-anchor="middle" x="548.38" y="-220.5" font-family="Helvetica,sans-Serif" font-size="10.00">_write_transaction</text>
</a>
</g>
</g>
<!-- Node23&#45;&gt;Node24 -->
<g id="edge28_Node000023_Node000024" class="edge">
<title>Node23&#45;&gt;Node24</title>
<g id="a_edge28_Node000023_Node000024"><a xlink:title=" ">
<path fill="none" stroke="#63b8ff" d="M820.97,-230C761.02,-230 670.32,-230 610.48,-230"/>
<polygon fill="#63b8ff" stroke="#63b8ff" points="820.65,-233.5 830.65,-230 820.65,-226.5 820.65,-233.5"/>
</a>
</g>
</g>
<!-- Node24&#45;&gt;Node7 -->
<g id="edge30_Node000024_Node000007" class="edge">
<title>Node24&#45;&gt;Node7</title>
<g id="a_edge30_Node000024_Node000007"><a xlink:title=" ">
<path fill="none" stroke="#63b8ff" d="M486.44,-250.07C467.08,-256.45 445.9,-263.43 427.4,-269.52"/>
<polygon fill="#63b8ff" stroke="#63b8ff" points="487.45,-253.43 495.85,-246.97 485.26,-246.78 487.45,-253.43"/>
</a>
</g>
</g>
<!-- Node24&#45;&gt;Node9 -->
<g id="edge29_Node000024_Node000009" class="edge">
<title>Node24&#45;&gt;Node9</title>
<g id="a_edge29_Node000024_Node000009"><a xlink:title=" ">
<path fill="none" stroke="#63b8ff" d="M475.19,-230C464.22,-230 452.95,-230 442.15,-230"/>
<polygon fill="#63b8ff" stroke="#63b8ff" points="474.97,-233.5 484.97,-230 474.97,-226.5 474.97,-233.5"/>
</a>
</g>
</g>
<!-- Node25&#45;&gt;Node4 -->
<g id="edge38_Node000025_Node000004" class="edge">
<title>Node25&#45;&gt;Node4</title>
<g id="a_edge38_Node000025_Node000004"><a xlink:title=" ">
<path fill="none" stroke="#63b8ff" d="M866.04,-153.65C854.25,-167.44 838.24,-186.9 825.5,-205 784.85,-262.77 743.41,-337 728.78,-363.79"/>
<polygon fill="#63b8ff" stroke="#63b8ff" points="868.56,-156.09 872.44,-146.23 863.26,-151.51 868.56,-156.09"/>
</a>
</g>
</g>
<!-- Node26 -->
<g id="Node000026" class="node">
<title>Node26</title>
<g id="a_Node000026"><a xlink:href="cbuffer_8h.html#a77458b7cd6238ed911ffdab0fe328e04" target="_top" xlink:title=" ">
<polygon fill="white" stroke="#666666" points="772.25,-145 672.25,-145 672.25,-125 772.25,-125 772.25,-145"/>
<text text-anchor="middle" x="722.25" y="-131.5" font-family="Helvetica,sans-Serif" font-size="10.00">zrtos_cbuffer__pipe</text>
</a>
</g>
</g>
<!-- Node25&#45;&gt;Node26 -->
<g id="edge32_Node000025_Node000026" class="edge">
<title>Node25&#45;&gt;Node26</title>
<g id="a_edge32_Node000025_Node000026"><a xlink:title=" ">
<path fill="none" stroke="#63b8ff" d="M824.05,-135C807.15,-135 788.86,-135 772.56,-135"/>
<polygon fill="#63b8ff" stroke="#63b8ff" points="823.98,-138.5 833.98,-135 823.98,-131.5 823.98,-138.5"/>
</a>
</g>
</g>
<!-- Node30 -->
<g id="Node000030" class="node">
<title>Node30</title>
<g id="a_Node000030"><a xlink:href="avr_2uart_2uart_8h.html#aea39870a896298195c0769800af5b3e2" target="_top" xlink:title=" ">
<polygon fill="white" stroke="#666666" points="789.5,-107 655,-107 655,-75 789.5,-75 789.5,-107"/>
<text text-anchor="start" x="663" y="-93.5" font-family="Helvetica,sans-Serif" font-size="10.00">zrtos_vfs_module_avr</text>
<text text-anchor="middle" x="722.25" y="-81.5" font-family="Helvetica,sans-Serif" font-size="10.00">_uart__on_receive_interrupt</text>
</a>
</g>
</g>
<!-- Node25&#45;&gt;Node30 -->
<g id="edge39_Node000025_Node000030" class="edge">
<title>Node25&#45;&gt;Node30</title>
<g id="a_edge39_Node000025_Node000030"><a xlink:title=" ">
<path fill="none" stroke="#63b8ff" d="M833.87,-121.59C817.75,-117.13 799.62,-112.12 782.77,-107.46"/>
<polygon fill="#63b8ff" stroke="#63b8ff" points="832.63,-124.88 843.21,-124.17 834.5,-118.13 832.63,-124.88"/>
</a>
</g>
</g>
<!-- Node27 -->
<g id="Node000027" class="node">
<title>Node27</title>
<g id="a_Node000027"><a xlink:href="msg__queue_8h.html#a40db633a8c0ef5e3bba9cc700e45f7ef" target="_top" xlink:title=" ">
<polygon fill="white" stroke="#666666" points="614.5,-146 482.25,-146 482.25,-114 614.5,-114 614.5,-146"/>
<text text-anchor="start" x="490.25" y="-132.5" font-family="Helvetica,sans-Serif" font-size="10.00">zrtos_msg_queue__pipe</text>
<text text-anchor="middle" x="548.38" y="-120.5" font-family="Helvetica,sans-Serif" font-size="10.00">_next_message_to_cbuffer</text>
</a>
</g>
</g>
<!-- Node26&#45;&gt;Node27 -->
<g id="edge33_Node000026_Node000027" class="edge">
<title>Node26&#45;&gt;Node27</title>
<g id="a_edge33_Node000026_Node000027"><a xlink:title=" ">
<path fill="none" stroke="#63b8ff" d="M660.89,-133.24C646.04,-132.81 630.07,-132.35 614.98,-131.91"/>
<polygon fill="#63b8ff" stroke="#63b8ff" points="660.39,-136.73 670.48,-133.52 660.59,-129.73 660.39,-136.73"/>
</a>
</g>
</g>
<!-- Node29 -->
<g id="Node000029" class="node">
<title>Node29</title>
<g id="a_Node000029"><a xlink:href="msg__queue_8h.html#a7b05ddf4bc60700bfe0b9d3a0f11664b" target="_top" xlink:title=" ">
<polygon fill="white" stroke="#666666" points="607,-196 489.75,-196 489.75,-164 607,-164 607,-196"/>
<text text-anchor="start" x="497.75" y="-182.5" font-family="Helvetica,sans-Serif" font-size="10.00">zrtos_msg_queue__put</text>
<text text-anchor="middle" x="548.38" y="-170.5" font-family="Helvetica,sans-Serif" font-size="10.00">_cbuffer_data</text>
</a>
</g>
</g>
<!-- Node26&#45;&gt;Node29 -->
<g id="edge36_Node000026_Node000029" class="edge">
<title>Node26&#45;&gt;Node29</title>
<g id="a_edge36_Node000026_Node000029"><a xlink:title=" ">
<path fill="none" stroke="#63b8ff" d="M670.41,-148.31C650.57,-153.5 627.73,-159.49 607.26,-164.84"/>
<polygon fill="#63b8ff" stroke="#63b8ff" points="671.13,-151.74 679.92,-145.82 669.36,-144.97 671.13,-151.74"/>
</a>
</g>
</g>
<!-- Node28 -->
<g id="Node000028" class="node">
<title>Node28</title>
<g id="a_Node000028"><a xlink:href="rtu_8h.html#ab23606290979709ef6fefa7c6970e64e" target="_top" xlink:title=" ">
<polygon fill="white" stroke="#666666" points="441.75,-171 311,-171 311,-139 441.75,-139 441.75,-171"/>
<text text-anchor="start" x="319" y="-157.5" font-family="Helvetica,sans-Serif" font-size="10.00">zrtos_vfs_module_modbus</text>
<text text-anchor="middle" x="376.38" y="-145.5" font-family="Helvetica,sans-Serif" font-size="10.00">_rtu__on_send</text>
</a>
</g>
</g>
<!-- Node27&#45;&gt;Node28 -->
<g id="edge34_Node000027_Node000028" class="edge">
<title>Node27&#45;&gt;Node28</title>
<g id="a_edge34_Node000027_Node000028"><a xlink:title=" ">
<path fill="none" stroke="#63b8ff" d="M470.95,-141.24C461.33,-142.65 451.57,-144.09 442.16,-145.47"/>
<polygon fill="#63b8ff" stroke="#63b8ff" points="471.25,-144.73 480.64,-139.81 470.23,-137.81 471.25,-144.73"/>
</a>
</g>
</g>
<!-- Node28&#45;&gt;Node10 -->
<g id="edge35_Node000028_Node000010" class="edge">
<title>Node28&#45;&gt;Node10</title>
<g id="a_edge35_Node000028_Node000010"><a xlink:title=" ">
<path fill="none" stroke="#63b8ff" d="M299.72,-172.45C291.58,-174.33 283.35,-176.23 275.35,-178.07"/>
<polygon fill="#63b8ff" stroke="#63b8ff" points="300.3,-175.91 309.26,-170.25 298.73,-169.09 300.3,-175.91"/>
</a>
</g>
</g>
<!-- Node29&#45;&gt;Node9 -->
<g id="edge37_Node000029_Node000009" class="edge">
<title>Node29&#45;&gt;Node9</title>
<g id="a_edge37_Node000029_Node000009"><a xlink:title=" ">
<path fill="none" stroke="#63b8ff" d="M481,-199.52C465.28,-204.15 448.67,-209.03 433.46,-213.51"/>
<polygon fill="#63b8ff" stroke="#63b8ff" points="481.65,-202.98 490.26,-196.8 479.68,-196.26 481.65,-202.98"/>
</a>
</g>
</g>
<!-- Node31 -->
<g id="Node000031" class="node">
<title>Node31</title>
<g id="a_Node000031"><a xlink:href="uart0_8h.html#a69856cc389c8b76c8cf8c45ea5a33bc7" target="_top" xlink:title=" ">
<polygon fill="white" stroke="#666666" points="564.25,-96 532.5,-96 532.5,-76 564.25,-76 564.25,-96"/>
<text text-anchor="middle" x="548.38" y="-82.5" font-family="Helvetica,sans-Serif" font-size="10.00">ISR</text>
</a>
</g>
</g>
<!-- Node30&#45;&gt;Node31 -->
<g id="edge40_Node000030_Node000031" class="edge">
<title>Node30&#45;&gt;Node31</title>
<g id="a_edge40_Node000030_Node000031"><a xlink:title=" ">
<path fill="none" stroke="#63b8ff" d="M643.44,-88.74C613.54,-87.87 582.33,-86.96 564.43,-86.44"/>
<polygon fill="#63b8ff" stroke="#63b8ff" points="643.19,-92.23 653.29,-89.02 643.39,-85.23 643.19,-92.23"/>
</a>
</g>
</g>
<!-- Node32 -->
<g id="Node000032" class="node">
<title>Node32</title>
<g id="a_Node000032"><a xlink:href="uart1_8h.html#a267ce5a39e1419fa9d59d7280b56b70e" target="_top" xlink:title=" ">
<polygon fill="white" stroke="#666666" points="564.25,-58 532.5,-58 532.5,-38 564.25,-38 564.25,-58"/>
<text text-anchor="middle" x="548.38" y="-44.5" font-family="Helvetica,sans-Serif" font-size="10.00">ISR</text>
</a>
</g>
</g>
<!-- Node30&#45;&gt;Node32 -->
<g id="edge41_Node000030_Node000032" class="edge">
<title>Node30&#45;&gt;Node32</title>
<g id="a_edge41_Node000030_Node000032"><a xlink:title=" ">
<path fill="none" stroke="#63b8ff" d="M644.76,-71.86C614.57,-64.31 582.81,-56.37 564.62,-51.81"/>
<polygon fill="#63b8ff" stroke="#63b8ff" points="643.76,-75.22 654.31,-74.25 645.46,-68.43 643.76,-75.22"/>
</a>
</g>
</g>
<!-- Node34 -->
<g id="Node000034" class="node">
<title>Node34</title>
<g id="a_Node000034"><a xlink:href="cbuffer_8h.html#aeb332726de06c905eb2db32ae3d323eb" target="_top" xlink:title=" ">
<polygon fill="white" stroke="#666666" points="1411.12,-141 1313.38,-141 1313.38,-109 1411.12,-109 1411.12,-141"/>
<text text-anchor="start" x="1321.38" y="-127.5" font-family="Helvetica,sans-Serif" font-size="10.00">zrtos_cbuffer_node</text>
<text text-anchor="middle" x="1362.25" y="-115.5" font-family="Helvetica,sans-Serif" font-size="10.00">__init</text>
</a>
</g>
</g>
<!-- Node33&#45;&gt;Node34 -->
<g id="edge43_Node000033_Node000034" class="edge">
<title>Node33&#45;&gt;Node34</title>
<g id="a_edge43_Node000033_Node000034"><a xlink:title=" ">
<path fill="none" stroke="#63b8ff" d="M1452.13,-125C1438.77,-125 1424.56,-125 1411.51,-125"/>
<polygon fill="#63b8ff" stroke="#63b8ff" points="1452.09,-128.5 1462.09,-125 1452.09,-121.5 1452.09,-128.5"/>
</a>
</g>
</g>
<!-- Node41 -->
<g id="Node000041" class="node">
<title>Node41</title>
<g id="a_Node000041"><a xlink:href="list_8h.html#a1b32c7536d371537eea58176e69cb2cb" target="_top" xlink:title=" ">
<polygon fill="white" stroke="#666666" points="1428,-91 1296.5,-91 1296.5,-71 1428,-71 1428,-91"/>
<text text-anchor="middle" x="1362.25" y="-77.5" font-family="Helvetica,sans-Serif" font-size="10.00">zrtos_list__shift_and_push</text>
</a>
</g>
</g>
<!-- Node33&#45;&gt;Node41 -->
<g id="edge52_Node000033_Node000041" class="edge">
<title>Node33&#45;&gt;Node41</title>
<g id="a_edge52_Node000033_Node000041"><a xlink:title=" ">
<path fill="none" stroke="#63b8ff" d="M1463.78,-111.19C1452.19,-107.5 1439.63,-103.55 1428,-100 1418.7,-97.16 1408.63,-94.16 1399.25,-91.41"/>
<polygon fill="#63b8ff" stroke="#63b8ff" points="1462.51,-114.45 1473.1,-114.16 1464.64,-107.78 1462.51,-114.45"/>
</a>
</g>
</g>
<!-- Node35 -->
<g id="Node000035" class="node">
<title>Node35</title>
<g id="a_Node000035"><a xlink:href="cbuffer_8h.html#a1749e471b67565254c5dc85e0cb728a1" target="_top" xlink:title=" ">
<polygon fill="white" stroke="#666666" points="1260.5,-129 1135,-129 1135,-109 1260.5,-109 1260.5,-129"/>
<text text-anchor="middle" x="1197.75" y="-115.5" font-family="Helvetica,sans-Serif" font-size="10.00">zrtos_cbuffer_node__new</text>
</a>
</g>
</g>
<!-- Node34&#45;&gt;Node35 -->
<g id="edge44_Node000034_Node000035" class="edge">
<title>Node34&#45;&gt;Node35</title>
<g id="a_edge44_Node000034_Node000035"><a xlink:title=" ">
<path fill="none" stroke="#63b8ff" d="M1301.52,-122.79C1288.23,-122.3 1274.13,-121.78 1260.76,-121.29"/>
<polygon fill="#63b8ff" stroke="#63b8ff" points="1301.3,-126.29 1311.42,-123.16 1301.56,-119.29 1301.3,-126.29"/>
</a>
</g>
</g>
<!-- Node36 -->
<g id="Node000036" class="node">
<title>Node36</title>
<g id="a_Node000036"><a xlink:href="cbuffer_8h.html#a6a1ffb32acbece23be59f84aa29cf306" target="_top" xlink:title=" ">
<polygon fill="white" stroke="#666666" points="1085.5,-76 990.75,-76 990.75,-56 1085.5,-56 1085.5,-76"/>
<text text-anchor="middle" x="1038.12" y="-62.5" font-family="Helvetica,sans-Serif" font-size="10.00">zrtos_cbuffer__init</text>
</a>
</g>
</g>
<!-- Node35&#45;&gt;Node36 -->
<g id="edge45_Node000035_Node000036" class="edge">
<title>Node35&#45;&gt;Node36</title>
<g id="a_edge45_Node000035_Node000036"><a xlink:title=" ">
<path fill="none" stroke="#63b8ff" d="M1154.71,-104.86C1128.13,-95.93 1094.36,-84.57 1070.2,-76.45"/>
<polygon fill="#63b8ff" stroke="#63b8ff" points="1153.58,-108.18 1164.17,-108.05 1155.81,-101.54 1153.58,-108.18"/>
</a>
</g>
</g>
<!-- Node40 -->
<g id="Node000040" class="node">
<title>Node40</title>
<g id="a_Node000040"><a xlink:href="cbuffer_8h.html#a1846e554cfe5e72cc8df6b60ab5c6d84" target="_top" xlink:title=" ">
<polygon fill="white" stroke="#666666" points="1099,-129 977.25,-129 977.25,-109 1099,-109 1099,-129"/>
<text text-anchor="middle" x="1038.12" y="-115.5" font-family="Helvetica,sans-Serif" font-size="10.00">zrtos_cbuffer_node__put</text>
</a>
</g>
</g>
<!-- Node35&#45;&gt;Node40 -->
<g id="edge49_Node000035_Node000040" class="edge">
<title>Node35&#45;&gt;Node40</title>
<g id="a_edge49_Node000035_Node000040"><a xlink:title=" ">
<path fill="none" stroke="#63b8ff" d="M1123.51,-119C1115.38,-119 1107.18,-119 1099.24,-119"/>
<polygon fill="#63b8ff" stroke="#63b8ff" points="1123.39,-122.5 1133.39,-119 1123.39,-115.5 1123.39,-122.5"/>
</a>
</g>
</g>
<!-- Node37 -->
<g id="Node000037" class="node">
<title>Node37</title>
<g id="a_Node000037"><a xlink:href="spi_2spi_8h.html#a18e98b2ff2735e9c263e143d51880842" target="_top" xlink:title=" ">
<polygon fill="white" stroke="#666666" points="937.88,-82 828.88,-82 828.88,-50 937.88,-50 937.88,-82"/>
<text text-anchor="start" x="836.88" y="-68.5" font-family="Helvetica,sans-Serif" font-size="10.00">zrtos_vfs_module_spi</text>
<text text-anchor="middle" x="883.38" y="-56.5" font-family="Helvetica,sans-Serif" font-size="10.00">_file__init</text>
</a>
</g>
</g>
<!-- Node36&#45;&gt;Node37 -->
<g id="edge46_Node000036_Node000037" class="edge">
<title>Node36&#45;&gt;Node37</title>
<g id="a_edge46_Node000036_Node000037"><a xlink:title=" ">
<path fill="none" stroke="#63b8ff" d="M978.96,-66C965.59,-66 951.42,-66 938.24,-66"/>
<polygon fill="#63b8ff" stroke="#63b8ff" points="978.95,-69.5 988.95,-66 978.95,-62.5 978.95,-69.5"/>
</a>
</g>
</g>
<!-- Node39 -->
<g id="Node000039" class="node">
<title>Node39</title>
<g id="a_Node000039"><a xlink:href="uart_2uart_8h.html#af8b2335443595fdc65e31aa7faa070a3" target="_top" xlink:title=" ">
<polygon fill="white" stroke="#666666" points="939.75,-32 827,-32 827,0 939.75,0 939.75,-32"/>
<text text-anchor="start" x="835" y="-18.5" font-family="Helvetica,sans-Serif" font-size="10.00">zrtos_vfs_module_uart</text>
<text text-anchor="middle" x="883.38" y="-6.5" font-family="Helvetica,sans-Serif" font-size="10.00">_inode__init</text>
</a>
</g>
</g>
<!-- Node36&#45;&gt;Node39 -->
<g id="edge48_Node000036_Node000039" class="edge">
<title>Node36&#45;&gt;Node39</title>
<g id="a_edge48_Node000036_Node000039"><a xlink:title=" ">
<path fill="none" stroke="#63b8ff" d="M994.33,-51.99C975.81,-45.93 953.99,-38.79 934.69,-32.47"/>
<polygon fill="#63b8ff" stroke="#63b8ff" points="993.07,-55.26 1003.67,-55.05 995.25,-48.61 993.07,-55.26"/>
</a>
</g>
</g>
<!-- Node38 -->
<g id="Node000038" class="node">
<title>Node38</title>
<g id="a_Node000038"><a xlink:href="spi_2spi_8h.html#a233cf747fcbc04752c320e48e8101632" target="_top" xlink:title=" ">
<polygon fill="white" stroke="#666666" points="776.75,-57 667.75,-57 667.75,-25 776.75,-25 776.75,-57"/>
<text text-anchor="start" x="675.75" y="-43.5" font-family="Helvetica,sans-Serif" font-size="10.00">zrtos_vfs_module_spi</text>
<text text-anchor="middle" x="722.25" y="-31.5" font-family="Helvetica,sans-Serif" font-size="10.00">_file__new</text>
</a>
</g>
</g>
<!-- Node37&#45;&gt;Node38 -->
<g id="edge47_Node000037_Node000038" class="edge">
<title>Node37&#45;&gt;Node38</title>
<g id="a_edge47_Node000037_Node000038"><a xlink:title=" ">
<path fill="none" stroke="#63b8ff" d="M817.41,-55.79C804,-53.69 790.02,-51.49 777.07,-49.46"/>
<polygon fill="#63b8ff" stroke="#63b8ff" points="816.59,-59.21 827.01,-57.3 817.67,-52.29 816.59,-59.21"/>
</a>
</g>
</g>
<!-- Node40&#45;&gt;Node25 -->
<g id="edge50_Node000040_Node000025" class="edge">
<title>Node40&#45;&gt;Node25</title>
<g id="a_edge50_Node000040_Node000025"><a xlink:title=" ">
<path fill="none" stroke="#63b8ff" d="M965.37,-126.52C953.91,-127.72 942.3,-128.93 931.59,-130.05"/>
<polygon fill="#63b8ff" stroke="#63b8ff" points="965.67,-130 975.25,-125.48 964.94,-123.04 965.67,-130"/>
</a>
</g>
</g>
<!-- Node40&#45;&gt;Node40 -->
<g id="edge51_Node000040_Node000040" class="edge">
<title>Node40&#45;&gt;Node40</title>
<g id="a_edge51_Node000040_Node000040"><a xlink:title=" ">
<path fill="none" stroke="#63b8ff" d="M1065.48,-140.44C1061.95,-144.3 1052.84,-147 1038.12,-147 1011.23,-147 1003.03,-137.98 1013.54,-129.34"/>
<polygon fill="#63b8ff" stroke="#63b8ff" points="1068.89,-139.67 1063.08,-130.81 1062.1,-141.36 1068.89,-139.67"/>
</a>
</g>
</g>
</g>
</svg>
