<?xml version="1.0" encoding="UTF-8" standalone="no"?>
<!DOCTYPE svg PUBLIC "-//W3C//DTD SVG 1.1//EN"
 "http://www.w3.org/Graphics/SVG/1.1/DTD/svg11.dtd">
<!-- Generated by graphviz version 2.40.1 (20161225.0304)
 -->
<!-- Title: list.h Pages: 1 -->
<svg width="361pt" height="196pt"
 viewBox="0.00 0.00 361.00 196.00" xmlns="http://www.w3.org/2000/svg" xmlns:xlink="http://www.w3.org/1999/xlink">
<g id="graph0" class="graph" transform="scale(1 1) rotate(0) translate(4 192)">
<title>list.h</title>
<polygon fill="#ffffff" stroke="transparent" points="-4,4 -4,-192 357,-192 357,4 -4,4"/>
<!-- Node8 -->
<g id="node1" class="node">
<title>Node8</title>
<polygon fill="#bfbfbf" stroke="#000000" points="95,-168.5 95,-187.5 133,-187.5 133,-168.5 95,-168.5"/>
<text text-anchor="middle" x="114" y="-175.5" font-family="Helvetica,sans-Serif" font-size="10.00" fill="#000000">list.h</text>
</g>
<!-- Node9 -->
<g id="node2" class="node">
<title>Node9</title>
<g id="a_node2"><a xlink:href="cbuffer_8h.html" target="_top" xlink:title="cbuffer.h">
<polygon fill="#ffffff" stroke="#000000" points="86.5,-112.5 86.5,-131.5 141.5,-131.5 141.5,-112.5 86.5,-112.5"/>
<text text-anchor="middle" x="114" y="-119.5" font-family="Helvetica,sans-Serif" font-size="10.00" fill="#000000">cbuffer.h</text>
</a>
</g>
</g>
<!-- Node8&#45;&gt;Node9 -->
<g id="edge1" class="edge">
<title>Node8&#45;&gt;Node9</title>
<path fill="none" stroke="#191970" d="M114,-158.1575C114,-149.155 114,-138.9199 114,-131.6427"/>
<polygon fill="#191970" stroke="#191970" points="110.5001,-158.2455 114,-168.2455 117.5001,-158.2456 110.5001,-158.2455"/>
</g>
<!-- Node10 -->
<g id="node3" class="node">
<title>Node10</title>
<g id="a_node3"><a xlink:href="msg__queue_8h.html" target="_top" xlink:title="msg_queue.h">
<polygon fill="#ffffff" stroke="#000000" points="38.5,-56.5 38.5,-75.5 113.5,-75.5 113.5,-56.5 38.5,-56.5"/>
<text text-anchor="middle" x="76" y="-63.5" font-family="Helvetica,sans-Serif" font-size="10.00" fill="#000000">msg_queue.h</text>
</a>
</g>
</g>
<!-- Node9&#45;&gt;Node10 -->
<g id="edge2" class="edge">
<title>Node9&#45;&gt;Node10</title>
<path fill="none" stroke="#191970" d="M101.7321,-103.9209C95.3512,-94.5176 87.8069,-83.3997 82.5432,-75.6427"/>
<polygon fill="#191970" stroke="#191970" points="98.8697,-105.936 107.3809,-112.2455 104.662,-102.0055 98.8697,-105.936"/>
</g>
<!-- Node11 -->
<g id="node4" class="node">
<title>Node11</title>
<g id="a_node4"><a xlink:href="rtu_8h.html" target="_top" xlink:title="rtu.h">
<polygon fill="#ffffff" stroke="#000000" points="0,-.5 0,-19.5 36,-19.5 36,-.5 0,-.5"/>
<text text-anchor="middle" x="18" y="-7.5" font-family="Helvetica,sans-Serif" font-size="10.00" fill="#000000">rtu.h</text>
</a>
</g>
</g>
<!-- Node9&#45;&gt;Node11 -->
<g id="edge4" class="edge">
<title>Node9&#45;&gt;Node11</title>
<path fill="none" stroke="#191970" d="M76.5002,-110.3343C59.4189,-103.1225 40.4905,-92.0969 29,-76 16.9867,-59.1707 16.3613,-33.8363 17.0955,-19.9605"/>
<polygon fill="#191970" stroke="#191970" points="75.6857,-113.7735 86.2739,-114.1494 78.2311,-107.2527 75.6857,-113.7735"/>
</g>
<!-- Node12 -->
<g id="node5" class="node">
<title>Node12</title>
<g id="a_node5"><a xlink:href="spi_2spi_8h.html" target="_top" xlink:title="spi.h">
<polygon fill="#ffffff" stroke="#000000" points="253,-56.5 253,-75.5 291,-75.5 291,-56.5 253,-56.5"/>
<text text-anchor="middle" x="272" y="-63.5" font-family="Helvetica,sans-Serif" font-size="10.00" fill="#000000">spi.h</text>
</a>
</g>
</g>
<!-- Node9&#45;&gt;Node12 -->
<g id="edge5" class="edge">
<title>Node9&#45;&gt;Node12</title>
<path fill="none" stroke="#191970" d="M150.9987,-108.8865C182.8106,-97.6114 227.4344,-81.7954 252.6508,-72.8579"/>
<polygon fill="#191970" stroke="#191970" points="149.4174,-105.7336 141.1612,-112.3733 151.7559,-112.3314 149.4174,-105.7336"/>
</g>
<!-- Node14 -->
<g id="node7" class="node">
<title>Node14</title>
<g id="a_node7"><a xlink:href="uart_2uart_8h.html" target="_top" xlink:title="uart.h">
<polygon fill="#ffffff" stroke="#000000" points="131.5,-56.5 131.5,-75.5 172.5,-75.5 172.5,-56.5 131.5,-56.5"/>
<text text-anchor="middle" x="152" y="-63.5" font-family="Helvetica,sans-Serif" font-size="10.00" fill="#000000">uart.h</text>
</a>
</g>
</g>
<!-- Node9&#45;&gt;Node14 -->
<g id="edge7" class="edge">
<title>Node9&#45;&gt;Node14</title>
<path fill="none" stroke="#191970" d="M126.2679,-103.9209C132.6488,-94.5176 140.1931,-83.3997 145.4568,-75.6427"/>
<polygon fill="#191970" stroke="#191970" points="123.338,-102.0055 120.6191,-112.2455 129.1303,-105.936 123.338,-102.0055"/>
</g>
<!-- Node10&#45;&gt;Node11 -->
<g id="edge3" class="edge">
<title>Node10&#45;&gt;Node11</title>
<path fill="none" stroke="#191970" d="M58.4707,-49.0751C48.4917,-39.4402 36.3524,-27.7196 27.9871,-19.6427"/>
<polygon fill="#191970" stroke="#191970" points="56.272,-51.8175 65.8972,-56.2455 61.1342,-46.7817 56.272,-51.8175"/>
</g>
<!-- Node13 -->
<g id="node6" class="node">
<title>Node13</title>
<g id="a_node6"><a xlink:href="avr_2spi_2spi_8h.html" target="_top" xlink:title="spi.h">
<polygon fill="#ffffff" stroke="#000000" points="315,-.5 315,-19.5 353,-19.5 353,-.5 315,-.5"/>
<text text-anchor="middle" x="334" y="-7.5" font-family="Helvetica,sans-Serif" font-size="10.00" fill="#000000">spi.h</text>
</a>
</g>
</g>
<!-- Node12&#45;&gt;Node13 -->
<g id="edge6" class="edge">
<title>Node12&#45;&gt;Node13</title>
<path fill="none" stroke="#191970" d="M290.4221,-49.3607C301.1481,-39.6727 314.2934,-27.7995 323.3242,-19.6427"/>
<polygon fill="#191970" stroke="#191970" points="287.8746,-46.9453 282.7996,-56.2455 292.5666,-52.14 287.8746,-46.9453"/>
</g>
<!-- Node14&#45;&gt;Node11 -->
<g id="edge12" class="edge">
<title>Node14&#45;&gt;Node11</title>
<path fill="none" stroke="#191970" d="M121.8762,-53.4109C95.5934,-42.4271 58.3145,-26.8478 36.2976,-17.6467"/>
<polygon fill="#191970" stroke="#191970" points="120.7799,-56.7461 131.3562,-57.3727 123.4791,-50.2874 120.7799,-56.7461"/>
</g>
<!-- Node15 -->
<g id="node8" class="node">
<title>Node15</title>
<g id="a_node8"><a xlink:href="uart0_8h.html" target="_top" xlink:title="uart0.h">
<polygon fill="#ffffff" stroke="#000000" points="54.5,-.5 54.5,-19.5 101.5,-19.5 101.5,-.5 54.5,-.5"/>
<text text-anchor="middle" x="78" y="-7.5" font-family="Helvetica,sans-Serif" font-size="10.00" fill="#000000">uart0.h</text>
</a>
</g>
</g>
<!-- Node14&#45;&gt;Node15 -->
<g id="edge8" class="edge">
<title>Node14&#45;&gt;Node15</title>
<path fill="none" stroke="#191970" d="M131.1343,-50.2097C118.1375,-40.3743 101.8378,-28.0394 90.7421,-19.6427"/>
<polygon fill="#191970" stroke="#191970" points="129.024,-53.002 139.1102,-56.2455 133.2482,-47.4201 129.024,-53.002"/>
</g>
<!-- Node16 -->
<g id="node9" class="node">
<title>Node16</title>
<g id="a_node9"><a xlink:href="uart1_8h.html" target="_top" xlink:title="uart1.h">
<polygon fill="#ffffff" stroke="#000000" points="119.5,-.5 119.5,-19.5 166.5,-19.5 166.5,-.5 119.5,-.5"/>
<text text-anchor="middle" x="143" y="-7.5" font-family="Helvetica,sans-Serif" font-size="10.00" fill="#000000">uart1.h</text>
</a>
</g>
</g>
<!-- Node14&#45;&gt;Node16 -->
<g id="edge9" class="edge">
<title>Node14&#45;&gt;Node16</title>
<path fill="none" stroke="#191970" d="M148.811,-46.1575C147.3642,-37.155 145.7193,-26.9199 144.5497,-19.6427"/>
<polygon fill="#191970" stroke="#191970" points="145.3898,-46.9276 150.4323,-56.2455 152.3011,-45.8168 145.3898,-46.9276"/>
</g>
<!-- Node17 -->
<g id="node10" class="node">
<title>Node17</title>
<g id="a_node10"><a xlink:href="uart2_8h.html" target="_top" xlink:title="uart2.h">
<polygon fill="#ffffff" stroke="#000000" points="184.5,-.5 184.5,-19.5 231.5,-19.5 231.5,-.5 184.5,-.5"/>
<text text-anchor="middle" x="208" y="-7.5" font-family="Helvetica,sans-Serif" font-size="10.00" fill="#000000">uart2.h</text>
</a>
</g>
</g>
<!-- Node14&#45;&gt;Node17 -->
<g id="edge10" class="edge">
<title>Node14&#45;&gt;Node17</title>
<path fill="none" stroke="#191970" d="M168.9249,-49.0751C178.5598,-39.4402 190.2804,-27.7196 198.3573,-19.6427"/>
<polygon fill="#191970" stroke="#191970" points="166.3507,-46.6996 161.7545,-56.2455 171.3004,-51.6493 166.3507,-46.6996"/>
</g>
<!-- Node18 -->
<g id="node11" class="node">
<title>Node18</title>
<g id="a_node11"><a xlink:href="uart3_8h.html" target="_top" xlink:title="uart3.h">
<polygon fill="#ffffff" stroke="#000000" points="249.5,-.5 249.5,-19.5 296.5,-19.5 296.5,-.5 249.5,-.5"/>
<text text-anchor="middle" x="273" y="-7.5" font-family="Helvetica,sans-Serif" font-size="10.00" fill="#000000">uart3.h</text>
</a>
</g>
</g>
<!-- Node14&#45;&gt;Node18 -->
<g id="edge11" class="edge">
<title>Node14&#45;&gt;Node18</title>
<path fill="none" stroke="#191970" d="M181.7257,-52.2427C203.6627,-42.09 232.9569,-28.5323 252.3733,-19.5462"/>
<polygon fill="#191970" stroke="#191970" points="180.1312,-49.1239 172.526,-56.5004 183.0713,-55.4765 180.1312,-49.1239"/>
</g>
</g>
</svg>
