<?xml version="1.0" encoding="UTF-8" standalone="no"?>
<!DOCTYPE svg PUBLIC "-//W3C//DTD SVG 1.1//EN"
 "http://www.w3.org/Graphics/SVG/1.1/DTD/svg11.dtd">
<!-- Generated by graphviz version 2.40.1 (20161225.0304)
 -->
<!-- Title: zrtos_malloc__malloc Pages: 1 -->
<svg width="419pt" height="137pt"
 viewBox="0.00 0.00 419.00 137.00" xmlns="http://www.w3.org/2000/svg" xmlns:xlink="http://www.w3.org/1999/xlink">
<g id="graph0" class="graph" transform="scale(1 1) rotate(0) translate(4 133)">
<title>zrtos_malloc__malloc</title>
<polygon fill="#ffffff" stroke="transparent" points="-4,4 -4,-133 415,-133 415,4 -4,4"/>
<!-- Node60 -->
<g id="node1" class="node">
<title>Node60</title>
<polygon fill="#bfbfbf" stroke="#000000" points="0,-55 0,-74 111,-74 111,-55 0,-55"/>
<text text-anchor="middle" x="55.5" y="-62" font-family="Helvetica,sans-Serif" font-size="10.00" fill="#000000">zrtos_malloc__malloc</text>
</g>
<!-- Node61 -->
<g id="node2" class="node">
<title>Node61</title>
<g id="a_node2"><a xlink:href="types_8h.html#a16a3c8eb064a7cb4a9ca61976ddb9d9f" target="_top" xlink:title="zrtos_types__ceil_size\l_to_alignment">
<polygon fill="#ffffff" stroke="#000000" points="148,-98.5 148,-128.5 264,-128.5 264,-98.5 148,-98.5"/>
<text text-anchor="start" x="156" y="-116.5" font-family="Helvetica,sans-Serif" font-size="10.00" fill="#000000">zrtos_types__ceil_size</text>
<text text-anchor="middle" x="206" y="-105.5" font-family="Helvetica,sans-Serif" font-size="10.00" fill="#000000">_to_alignment</text>
</a>
</g>
</g>
<!-- Node60&#45;&gt;Node61 -->
<g id="edge1" class="edge">
<title>Node60&#45;&gt;Node61</title>
<path fill="none" stroke="#191970" d="M84.8752,-74.064C103.4298,-80.105 128.0016,-88.1052 150.1625,-95.3204"/>
<polygon fill="#191970" stroke="#191970" points="149.2227,-98.6952 159.815,-98.463 151.3899,-92.0391 149.2227,-98.6952"/>
</g>
<!-- Node62 -->
<g id="node3" class="node">
<title>Node62</title>
<g id="a_node3"><a xlink:href="types_8h.html#adbc4238237e656eb247fd49ffbfb1a6d" target="_top" xlink:title="zrtos_types__ptr_get\l_byte_distance">
<polygon fill="#ffffff" stroke="#000000" points="152,-49.5 152,-79.5 260,-79.5 260,-49.5 152,-49.5"/>
<text text-anchor="start" x="160" y="-67.5" font-family="Helvetica,sans-Serif" font-size="10.00" fill="#000000">zrtos_types__ptr_get</text>
<text text-anchor="middle" x="206" y="-56.5" font-family="Helvetica,sans-Serif" font-size="10.00" fill="#000000">_byte_distance</text>
</a>
</g>
</g>
<!-- Node60&#45;&gt;Node62 -->
<g id="edge2" class="edge">
<title>Node60&#45;&gt;Node62</title>
<path fill="none" stroke="#191970" d="M111.1131,-64.5C121.0983,-64.5 131.5796,-64.5 141.7842,-64.5"/>
<polygon fill="#191970" stroke="#191970" points="141.8679,-68.0001 151.8679,-64.5 141.8678,-61.0001 141.8679,-68.0001"/>
</g>
<!-- Node63 -->
<g id="node4" class="node">
<title>Node63</title>
<g id="a_node4"><a xlink:href="malloc_8h.html#a0e50b68ef4d4f9f381877c7907bb6884" target="_top" xlink:title="zrtos_malloc__get_free\l_chunk">
<polygon fill="#ffffff" stroke="#000000" points="147,-.5 147,-30.5 265,-30.5 265,-.5 147,-.5"/>
<text text-anchor="start" x="155" y="-18.5" font-family="Helvetica,sans-Serif" font-size="10.00" fill="#000000">zrtos_malloc__get_free</text>
<text text-anchor="middle" x="206" y="-7.5" font-family="Helvetica,sans-Serif" font-size="10.00" fill="#000000">_chunk</text>
</a>
</g>
</g>
<!-- Node60&#45;&gt;Node63 -->
<g id="edge3" class="edge">
<title>Node60&#45;&gt;Node63</title>
<path fill="none" stroke="#191970" d="M84.8752,-54.936C103.4298,-48.895 128.0016,-40.8948 150.1625,-33.6796"/>
<polygon fill="#191970" stroke="#191970" points="151.3899,-36.9609 159.815,-30.537 149.2227,-30.3048 151.3899,-36.9609"/>
</g>
<!-- Node64 -->
<g id="node5" class="node">
<title>Node64</title>
<g id="a_node5"><a xlink:href="types_8h.html#aba57d347db551b6b1bc7f791433322ad" target="_top" xlink:title="zrtos_types__ptr_add">
<polygon fill="#ffffff" stroke="#000000" points="301,-6 301,-25 411,-25 411,-6 301,-6"/>
<text text-anchor="middle" x="356" y="-13" font-family="Helvetica,sans-Serif" font-size="10.00" fill="#000000">zrtos_types__ptr_add</text>
</a>
</g>
</g>
<!-- Node63&#45;&gt;Node64 -->
<g id="edge4" class="edge">
<title>Node63&#45;&gt;Node64</title>
<path fill="none" stroke="#191970" d="M265.284,-15.5C273.551,-15.5 282.0848,-15.5 290.4587,-15.5"/>
<polygon fill="#191970" stroke="#191970" points="290.5651,-19.0001 300.5651,-15.5 290.565,-12.0001 290.5651,-19.0001"/>
</g>
</g>
</svg>
