<?xml version="1.0" encoding="UTF-8" standalone="no"?>
<!DOCTYPE svg PUBLIC "-//W3C//DTD SVG 1.1//EN"
 "http://www.w3.org/Graphics/SVG/1.1/DTD/svg11.dtd">
<!-- Generated by graphviz version 10.0.1 (20240210.2158)
 -->
<!-- Title: zrtos_vfs_module_mcp2515__set_filter Pages: 1 -->
<svg width="1471pt" height="294pt"
 viewBox="0.00 0.00 1471.25 294.00" xmlns="http://www.w3.org/2000/svg" xmlns:xlink="http://www.w3.org/1999/xlink">
<g id="graph0" class="graph" transform="scale(1 1) rotate(0) translate(4 290)">
<title>zrtos_vfs_module_mcp2515__set_filter</title>
<!-- Node1 -->
<g id="Node000001" class="node">
<title>Node1</title>
<g id="a_Node000001"><a xlink:title=" ">
<polygon fill="#999999" stroke="#666666" points="136,-154 0,-154 0,-122 136,-122 136,-154"/>
<text text-anchor="start" x="8" y="-140.5" font-family="Helvetica,sans-Serif" font-size="10.00">zrtos_vfs_module_mcp2515</text>
<text text-anchor="middle" x="68" y="-128.5" font-family="Helvetica,sans-Serif" font-size="10.00">__set_filter</text>
</a>
</g>
</g>
<!-- Node2 -->
<g id="Node000002" class="node">
<title>Node2</title>
<g id="a_Node000002"><a xlink:href="mcp2515_8h.html#ae36edcf41e011b562faf4b1006885296" target="_top" xlink:title=" ">
<polygon fill="white" stroke="#666666" points="308,-154 172,-154 172,-122 308,-122 308,-154"/>
<text text-anchor="start" x="180" y="-140.5" font-family="Helvetica,sans-Serif" font-size="10.00">zrtos_vfs_module_mcp2515</text>
<text text-anchor="middle" x="240" y="-128.5" font-family="Helvetica,sans-Serif" font-size="10.00">__set_filter_ex</text>
</a>
</g>
</g>
<!-- Node1&#45;&gt;Node2 -->
<g id="edge1_Node000001_Node000002" class="edge">
<title>Node1&#45;&gt;Node2</title>
<g id="a_edge1_Node000001_Node000002"><a xlink:title=" ">
<path fill="none" stroke="#63b8ff" d="M136.19,-138C144.14,-138 152.3,-138 160.39,-138"/>
<polygon fill="#63b8ff" stroke="#63b8ff" points="160.23,-141.5 170.23,-138 160.23,-134.5 160.23,-141.5"/>
</a>
</g>
</g>
<!-- Node3 -->
<g id="Node000003" class="node">
<title>Node3</title>
<g id="a_Node000003"><a xlink:href="error_8h.html#add13298163f63b7d37ed9f12d57e1a31" target="_top" xlink:title=" ">
<polygon fill="white" stroke="#666666" points="1326.5,-258 1204,-258 1204,-238 1326.5,-238 1326.5,-258"/>
<text text-anchor="middle" x="1265.25" y="-244.5" font-family="Helvetica,sans-Serif" font-size="10.00">zrtos_error__is_success</text>
</a>
</g>
</g>
<!-- Node2&#45;&gt;Node3 -->
<g id="edge2_Node000002_Node000003" class="edge">
<title>Node2&#45;&gt;Node3</title>
<g id="a_edge2_Node000002_Node000003"><a xlink:title=" ">
<path fill="none" stroke="#63b8ff" d="M254.91,-154.5C273.21,-175.11 307.36,-209.98 344,-229 440.92,-279.32 473.8,-286 583,-286 583,-286 583,-286 929,-286 1021.75,-286 1128.02,-271.46 1195.6,-260.37"/>
<polygon fill="#63b8ff" stroke="#63b8ff" points="1196.15,-263.83 1205.44,-258.73 1195,-256.92 1196.15,-263.83"/>
</a>
</g>
</g>
<!-- Node4 -->
<g id="Node000004" class="node">
<title>Node4</title>
<g id="a_Node000004"><a xlink:href="mcp2515_8h.html#a414b60a917d62f474195a1208159b461" target="_top" xlink:title=" ">
<polygon fill="white" stroke="#666666" points="480,-220 344,-220 344,-188 480,-188 480,-220"/>
<text text-anchor="start" x="352" y="-206.5" font-family="Helvetica,sans-Serif" font-size="10.00">zrtos_vfs_module_mcp2515</text>
<text text-anchor="middle" x="412" y="-194.5" font-family="Helvetica,sans-Serif" font-size="10.00">__set_config_mode</text>
</a>
</g>
</g>
<!-- Node2&#45;&gt;Node4 -->
<g id="edge3_Node000002_Node000004" class="edge">
<title>Node2&#45;&gt;Node4</title>
<g id="a_edge3_Node000002_Node000004"><a xlink:title=" ">
<path fill="none" stroke="#63b8ff" d="M283.46,-154.48C306.06,-163.26 334.07,-174.13 358.07,-183.45"/>
<polygon fill="#63b8ff" stroke="#63b8ff" points="356.79,-186.71 367.38,-187.06 359.32,-180.18 356.79,-186.71"/>
</a>
</g>
</g>
<!-- Node12 -->
<g id="Node000012" class="node">
<title>Node12</title>
<g id="a_Node000012"><a xlink:href="mcp2515_8h.html#a267ca18d5b51831eabb3776665d9400c" target="_top" xlink:title=" ">
<polygon fill="white" stroke="#666666" points="652,-148 516,-148 516,-116 652,-116 652,-148"/>
<text text-anchor="start" x="524" y="-134.5" font-family="Helvetica,sans-Serif" font-size="10.00">zrtos_vfs_module_mcp2515</text>
<text text-anchor="middle" x="584" y="-122.5" font-family="Helvetica,sans-Serif" font-size="10.00">__set_registers</text>
</a>
</g>
</g>
<!-- Node2&#45;&gt;Node12 -->
<g id="edge14_Node000002_Node000012" class="edge">
<title>Node2&#45;&gt;Node12</title>
<g id="a_edge14_Node000002_Node000012"><a xlink:title=" ">
<path fill="none" stroke="#63b8ff" d="M308.25,-140.86C356.16,-142.4 422.06,-143.53 480,-141 487.95,-140.65 496.24,-140.16 504.51,-139.57"/>
<polygon fill="#63b8ff" stroke="#63b8ff" points="504.52,-143.08 514.23,-138.84 503.99,-136.1 504.52,-143.08"/>
</a>
</g>
</g>
<!-- Node13 -->
<g id="Node000013" class="node">
<title>Node13</title>
<g id="a_Node000013"><a xlink:href="mcp2515_8h.html#a69cd48b21930f35db7c85193d6e06ed8" target="_top" xlink:title=" ">
<polygon fill="white" stroke="#666666" points="480,-132 344,-132 344,-100 480,-100 480,-132"/>
<text text-anchor="start" x="352" y="-118.5" font-family="Helvetica,sans-Serif" font-size="10.00">zrtos_vfs_module_mcp2515</text>
<text text-anchor="middle" x="412" y="-106.5" font-family="Helvetica,sans-Serif" font-size="10.00">_id__get_buffer</text>
</a>
</g>
</g>
<!-- Node2&#45;&gt;Node13 -->
<g id="edge16_Node000002_Node000013" class="edge">
<title>Node2&#45;&gt;Node13</title>
<g id="a_edge16_Node000002_Node000013"><a xlink:title=" ">
<path fill="none" stroke="#63b8ff" d="M308.19,-129.31C316.14,-128.28 324.3,-127.22 332.39,-126.17"/>
<polygon fill="#63b8ff" stroke="#63b8ff" points="332.77,-129.65 342.24,-124.9 331.88,-122.71 332.77,-129.65"/>
</a>
</g>
</g>
<!-- Node14 -->
<g id="Node000014" class="node">
<title>Node14</title>
<g id="a_Node000014"><a xlink:href="mcp2515_8h.html#abf6deabd483ab3871ab645eaa5a01a71" target="_top" xlink:title=" ">
<polygon fill="white" stroke="#666666" points="480,-82 344,-82 344,-50 480,-50 480,-82"/>
<text text-anchor="start" x="352" y="-68.5" font-family="Helvetica,sans-Serif" font-size="10.00">zrtos_vfs_module_mcp2515</text>
<text text-anchor="middle" x="412" y="-56.5" font-family="Helvetica,sans-Serif" font-size="10.00">_id__get_length</text>
</a>
</g>
</g>
<!-- Node2&#45;&gt;Node14 -->
<g id="edge17_Node000002_Node000014" class="edge">
<title>Node2&#45;&gt;Node14</title>
<g id="a_edge17_Node000002_Node000014"><a xlink:title=" ">
<path fill="none" stroke="#63b8ff" d="M275.53,-121.5C295.41,-112.19 320.94,-100.55 344,-91 347.61,-89.51 351.34,-88 355.11,-86.51"/>
<polygon fill="#63b8ff" stroke="#63b8ff" points="356.31,-89.8 364.37,-82.92 353.78,-83.28 356.31,-89.8"/>
</a>
</g>
</g>
<!-- Node15 -->
<g id="Node000015" class="node">
<title>Node15</title>
<g id="a_Node000015"><a xlink:href="mcp2515_8h.html#a0fd75d12604ca1a638fbdabe5fce093e" target="_top" xlink:title=" ">
<polygon fill="white" stroke="#666666" points="480,-32 344,-32 344,0 480,0 480,-32"/>
<text text-anchor="start" x="352" y="-18.5" font-family="Helvetica,sans-Serif" font-size="10.00">zrtos_vfs_module_mcp2515</text>
<text text-anchor="middle" x="412" y="-6.5" font-family="Helvetica,sans-Serif" font-size="10.00">_id__init</text>
</a>
</g>
</g>
<!-- Node2&#45;&gt;Node15 -->
<g id="edge18_Node000002_Node000015" class="edge">
<title>Node2&#45;&gt;Node15</title>
<g id="a_edge18_Node000002_Node000015"><a xlink:title=" ">
<path fill="none" stroke="#63b8ff" d="M254.45,-121.83C272.77,-100.69 307.5,-63.7 344,-41 345.98,-39.77 348.02,-38.59 350.12,-37.45"/>
<polygon fill="#63b8ff" stroke="#63b8ff" points="351.44,-40.7 358.85,-33.13 348.33,-34.43 351.44,-40.7"/>
</a>
</g>
</g>
<!-- Node5 -->
<g id="Node000005" class="node">
<title>Node5</title>
<g id="a_Node000005"><a xlink:href="mcp2515_8h.html#a26c81272df128ccf491a5a2ec66e7197" target="_top" xlink:title=" ">
<polygon fill="white" stroke="#666666" points="652,-220 516,-220 516,-188 652,-188 652,-220"/>
<text text-anchor="start" x="524" y="-206.5" font-family="Helvetica,sans-Serif" font-size="10.00">zrtos_vfs_module_mcp2515</text>
<text text-anchor="middle" x="584" y="-194.5" font-family="Helvetica,sans-Serif" font-size="10.00">__set_mode</text>
</a>
</g>
</g>
<!-- Node4&#45;&gt;Node5 -->
<g id="edge4_Node000004_Node000005" class="edge">
<title>Node4&#45;&gt;Node5</title>
<g id="a_edge4_Node000004_Node000005"><a xlink:title=" ">
<path fill="none" stroke="#63b8ff" d="M480.19,-204C488.14,-204 496.3,-204 504.39,-204"/>
<polygon fill="#63b8ff" stroke="#63b8ff" points="504.23,-207.5 514.23,-204 504.23,-200.5 504.23,-207.5"/>
</a>
</g>
</g>
<!-- Node5&#45;&gt;Node3 -->
<g id="edge5_Node000005_Node000003" class="edge">
<title>Node5&#45;&gt;Node3</title>
<g id="a_edge5_Node000005_Node000003"><a xlink:title=" ">
<path fill="none" stroke="#63b8ff" d="M652.24,-213.84C664.13,-215.38 676.42,-216.84 688,-218 869,-236.07 1083.14,-243.6 1192.35,-246.45"/>
<polygon fill="#63b8ff" stroke="#63b8ff" points="1191.94,-249.94 1202.03,-246.7 1192.12,-242.94 1191.94,-249.94"/>
</a>
</g>
</g>
<!-- Node6 -->
<g id="Node000006" class="node">
<title>Node6</title>
<g id="a_Node000006"><a xlink:href="mcp2515_8h.html#aefa30fb59e86697b8523673b355f6a3c" target="_top" xlink:title=" ">
<polygon fill="white" stroke="#666666" points="996,-220 860,-220 860,-188 996,-188 996,-220"/>
<text text-anchor="start" x="868" y="-206.5" font-family="Helvetica,sans-Serif" font-size="10.00">zrtos_vfs_module_mcp2515</text>
<text text-anchor="middle" x="928" y="-194.5" font-family="Helvetica,sans-Serif" font-size="10.00">__modify_register</text>
</a>
</g>
</g>
<!-- Node5&#45;&gt;Node6 -->
<g id="edge6_Node000005_Node000006" class="edge">
<title>Node5&#45;&gt;Node6</title>
<g id="a_edge6_Node000005_Node000006"><a xlink:title=" ">
<path fill="none" stroke="#63b8ff" d="M652.16,-204C708.54,-204 789.16,-204 848.5,-204"/>
<polygon fill="#63b8ff" stroke="#63b8ff" points="848.19,-207.5 858.19,-204 848.19,-200.5 848.19,-207.5"/>
</a>
</g>
</g>
<!-- Node10 -->
<g id="Node000010" class="node">
<title>Node10</title>
<g id="a_Node000010"><a xlink:href="mcp2515_8h.html#a18c1133ba60ff7ea81147e0a76bb0d44" target="_top" xlink:title=" ">
<polygon fill="white" stroke="#666666" points="824,-173 688,-173 688,-141 824,-141 824,-173"/>
<text text-anchor="start" x="696" y="-159.5" font-family="Helvetica,sans-Serif" font-size="10.00">zrtos_vfs_module_mcp2515</text>
<text text-anchor="middle" x="756" y="-147.5" font-family="Helvetica,sans-Serif" font-size="10.00">__read_register</text>
</a>
</g>
</g>
<!-- Node5&#45;&gt;Node10 -->
<g id="edge11_Node000005_Node000010" class="edge">
<title>Node5&#45;&gt;Node10</title>
<g id="a_edge11_Node000005_Node000010"><a xlink:title=" ">
<path fill="none" stroke="#63b8ff" d="M644.46,-187.56C657.4,-183.98 671.21,-180.17 684.53,-176.48"/>
<polygon fill="#63b8ff" stroke="#63b8ff" points="685.41,-179.87 694.12,-173.83 683.55,-173.12 685.41,-179.87"/>
</a>
</g>
</g>
<!-- Node7 -->
<g id="Node000007" class="node">
<title>Node7</title>
<g id="a_Node000007"><a xlink:href="mcp2515_8h.html#a757cc129737831c901694878ce1acba1" target="_top" xlink:title=" ">
<polygon fill="white" stroke="#666666" points="1168,-195 1032,-195 1032,-163 1168,-163 1168,-195"/>
<text text-anchor="start" x="1040" y="-181.5" font-family="Helvetica,sans-Serif" font-size="10.00">zrtos_vfs_module_mcp2515</text>
<text text-anchor="middle" x="1100" y="-169.5" font-family="Helvetica,sans-Serif" font-size="10.00">__spi_transfer</text>
</a>
</g>
</g>
<!-- Node6&#45;&gt;Node7 -->
<g id="edge7_Node000006_Node000007" class="edge">
<title>Node6&#45;&gt;Node7</title>
<g id="a_edge7_Node000006_Node000007"><a xlink:title=" ">
<path fill="none" stroke="#63b8ff" d="M996.19,-194.12C1004.14,-192.95 1012.3,-191.75 1020.39,-190.56"/>
<polygon fill="#63b8ff" stroke="#63b8ff" points="1020.86,-194.03 1030.25,-189.11 1019.84,-187.1 1020.86,-194.03"/>
</a>
</g>
</g>
<!-- Node7&#45;&gt;Node3 -->
<g id="edge8_Node000007_Node000003" class="edge">
<title>Node7&#45;&gt;Node3</title>
<g id="a_edge8_Node000007_Node000003"><a xlink:title=" ">
<path fill="none" stroke="#63b8ff" d="M1139.69,-195.35C1166.87,-206.84 1202.93,-222.08 1229.26,-233.21"/>
<polygon fill="#63b8ff" stroke="#63b8ff" points="1227.57,-236.29 1238.14,-236.96 1230.29,-229.85 1227.57,-236.29"/>
</a>
</g>
</g>
<!-- Node8 -->
<g id="Node000008" class="node">
<title>Node8</title>
<g id="a_Node000008"><a xlink:href="vfs__fd_8h.html#a1c176ae3990492b9deae02682a6782e1" target="_top" xlink:title=" ">
<polygon fill="white" stroke="#666666" points="1313.38,-189 1217.12,-189 1217.12,-169 1313.38,-169 1313.38,-189"/>
<text text-anchor="middle" x="1265.25" y="-175.5" font-family="Helvetica,sans-Serif" font-size="10.00">zrtos_vfs_fd__read</text>
</a>
</g>
</g>
<!-- Node7&#45;&gt;Node8 -->
<g id="edge9_Node000007_Node000008" class="edge">
<title>Node7&#45;&gt;Node8</title>
<g id="a_edge9_Node000007_Node000008"><a xlink:title=" ">
<path fill="none" stroke="#63b8ff" d="M1168.34,-179C1180.72,-179 1193.55,-179 1205.65,-179"/>
<polygon fill="#63b8ff" stroke="#63b8ff" points="1205.47,-182.5 1215.47,-179 1205.47,-175.5 1205.47,-182.5"/>
</a>
</g>
</g>
<!-- Node9 -->
<g id="Node000009" class="node">
<title>Node9</title>
<g id="a_Node000009"><a xlink:href="vfs__file_8h.html#a27e4ed3d3306da0eaccc004eebc8d3c4" target="_top" xlink:title=" ">
<polygon fill="white" stroke="#666666" points="1463.25,-189 1362.5,-189 1362.5,-169 1463.25,-169 1463.25,-189"/>
<text text-anchor="middle" x="1412.88" y="-175.5" font-family="Helvetica,sans-Serif" font-size="10.00">zrtos_vfs_file__read</text>
</a>
</g>
</g>
<!-- Node8&#45;&gt;Node9 -->
<g id="edge10_Node000008_Node000009" class="edge">
<title>Node8&#45;&gt;Node9</title>
<g id="a_edge10_Node000008_Node000009"><a xlink:title=" ">
<path fill="none" stroke="#63b8ff" d="M1313.53,-179C1325.42,-179 1338.35,-179 1350.81,-179"/>
<polygon fill="#63b8ff" stroke="#63b8ff" points="1350.56,-182.5 1360.56,-179 1350.56,-175.5 1350.56,-182.5"/>
</a>
</g>
</g>
<!-- Node11 -->
<g id="Node000011" class="node">
<title>Node11</title>
<g id="a_Node000011"><a xlink:href="mcp2515_8h.html#af0bd06ab9cb60e9f7a3b5d77ae76057d" target="_top" xlink:title=" ">
<polygon fill="white" stroke="#666666" points="996,-170 860,-170 860,-138 996,-138 996,-170"/>
<text text-anchor="start" x="868" y="-156.5" font-family="Helvetica,sans-Serif" font-size="10.00">zrtos_vfs_module_mcp2515</text>
<text text-anchor="middle" x="928" y="-144.5" font-family="Helvetica,sans-Serif" font-size="10.00">__read_registers</text>
</a>
</g>
</g>
<!-- Node10&#45;&gt;Node11 -->
<g id="edge12_Node000010_Node000011" class="edge">
<title>Node10&#45;&gt;Node11</title>
<g id="a_edge12_Node000010_Node000011"><a xlink:title=" ">
<path fill="none" stroke="#63b8ff" d="M824.19,-155.81C832.14,-155.67 840.3,-155.53 848.39,-155.39"/>
<polygon fill="#63b8ff" stroke="#63b8ff" points="848.29,-158.89 858.23,-155.21 848.17,-151.89 848.29,-158.89"/>
</a>
</g>
</g>
<!-- Node11&#45;&gt;Node7 -->
<g id="edge13_Node000011_Node000007" class="edge">
<title>Node11&#45;&gt;Node7</title>
<g id="a_edge13_Node000011_Node000007"><a xlink:title=" ">
<path fill="none" stroke="#63b8ff" d="M996.19,-163.88C1004.14,-165.05 1012.3,-166.25 1020.39,-167.44"/>
<polygon fill="#63b8ff" stroke="#63b8ff" points="1019.84,-170.9 1030.25,-168.89 1020.86,-163.97 1019.84,-170.9"/>
</a>
</g>
</g>
<!-- Node12&#45;&gt;Node7 -->
<g id="edge15_Node000012_Node000007" class="edge">
<title>Node12&#45;&gt;Node7</title>
<g id="a_edge15_Node000012_Node000007"><a xlink:title=" ">
<path fill="none" stroke="#63b8ff" d="M652.23,-122.1C734.49,-112.12 877.43,-101.74 996,-129 1019.81,-134.47 1044.5,-146.22 1063.74,-156.95"/>
<polygon fill="#63b8ff" stroke="#63b8ff" points="1061.82,-159.88 1072.23,-161.84 1065.31,-153.82 1061.82,-159.88"/>
</a>
</g>
</g>
</g>
</svg>
