<?xml version="1.0" encoding="UTF-8" standalone="no"?>
<!DOCTYPE svg PUBLIC "-//W3C//DTD SVG 1.1//EN"
 "http://www.w3.org/Graphics/SVG/1.1/DTD/svg11.dtd">
<!-- Generated by graphviz version 2.40.1 (20161225.0304)
 -->
<!-- Title: zrtos_vfs_module_mcp2515__set_normal_mode Pages: 1 -->
<svg width="1139pt" height="124pt"
 viewBox="0.00 0.00 1139.00 123.50" xmlns="http://www.w3.org/2000/svg" xmlns:xlink="http://www.w3.org/1999/xlink">
<g id="graph0" class="graph" transform="scale(1 1) rotate(0) translate(4 119.5)">
<title>zrtos_vfs_module_mcp2515__set_normal_mode</title>
<polygon fill="#ffffff" stroke="transparent" points="-4,4 -4,-119.5 1135,-119.5 1135,4 -4,4"/>
<!-- Node422 -->
<g id="node1" class="node">
<title>Node422</title>
<polygon fill="#bfbfbf" stroke="#000000" points="0,-36 0,-66 139,-66 139,-36 0,-36"/>
<text text-anchor="start" x="8" y="-54" font-family="Helvetica,sans-Serif" font-size="10.00" fill="#000000">zrtos_vfs_module_mcp2515</text>
<text text-anchor="middle" x="69.5" y="-43" font-family="Helvetica,sans-Serif" font-size="10.00" fill="#000000">__set_normal_mode</text>
</g>
<!-- Node423 -->
<g id="node2" class="node">
<title>Node423</title>
<g id="a_node2"><a xlink:href="mcp2515_8h.html#a26c81272df128ccf491a5a2ec66e7197" target="_top" xlink:title="zrtos_vfs_module_mcp2515\l__set_mode">
<polygon fill="#ffffff" stroke="#000000" points="175,-36 175,-66 314,-66 314,-36 175,-36"/>
<text text-anchor="start" x="183" y="-54" font-family="Helvetica,sans-Serif" font-size="10.00" fill="#000000">zrtos_vfs_module_mcp2515</text>
<text text-anchor="middle" x="244.5" y="-43" font-family="Helvetica,sans-Serif" font-size="10.00" fill="#000000">__set_mode</text>
</a>
</g>
</g>
<!-- Node422&#45;&gt;Node423 -->
<g id="edge1" class="edge">
<title>Node422&#45;&gt;Node423</title>
<path fill="none" stroke="#191970" d="M139.1675,-51C147.5024,-51 156.0628,-51 164.5285,-51"/>
<polygon fill="#191970" stroke="#191970" points="164.7864,-54.5001 174.7863,-51 164.7863,-47.5001 164.7864,-54.5001"/>
</g>
<!-- Node424 -->
<g id="node3" class="node">
<title>Node424</title>
<g id="a_node3"><a xlink:href="mcp2515_8h.html#aefa30fb59e86697b8523673b355f6a3c" target="_top" xlink:title="zrtos_vfs_module_mcp2515\l__modify_register">
<polygon fill="#ffffff" stroke="#000000" points="525,-36 525,-66 664,-66 664,-36 525,-36"/>
<text text-anchor="start" x="533" y="-54" font-family="Helvetica,sans-Serif" font-size="10.00" fill="#000000">zrtos_vfs_module_mcp2515</text>
<text text-anchor="middle" x="594.5" y="-43" font-family="Helvetica,sans-Serif" font-size="10.00" fill="#000000">__modify_register</text>
</a>
</g>
</g>
<!-- Node423&#45;&gt;Node424 -->
<g id="edge2" class="edge">
<title>Node423&#45;&gt;Node424</title>
<path fill="none" stroke="#191970" d="M314.0672,-51C371.8284,-51 454.0211,-51 514.4966,-51"/>
<polygon fill="#191970" stroke="#191970" points="514.7655,-54.5001 524.7654,-51 514.7654,-47.5001 514.7655,-54.5001"/>
</g>
<!-- Node428 -->
<g id="node7" class="node">
<title>Node428</title>
<g id="a_node7"><a xlink:href="error_8h.html#add13298163f63b7d37ed9f12d57e1a31" target="_top" xlink:title="zrtos_error__is_success">
<polygon fill="#ffffff" stroke="#000000" points="868,-.5 868,-19.5 991,-19.5 991,-.5 868,-.5"/>
<text text-anchor="middle" x="929.5" y="-7.5" font-family="Helvetica,sans-Serif" font-size="10.00" fill="#000000">zrtos_error__is_success</text>
</a>
</g>
</g>
<!-- Node423&#45;&gt;Node428 -->
<g id="edge7" class="edge">
<title>Node423&#45;&gt;Node428</title>
<path fill="none" stroke="#191970" d="M314.1671,-43.8281C370.8793,-38.2219 453.0345,-30.6275 525,-26 641.3582,-18.518 776.7859,-14.0138 857.6977,-11.7702"/>
<polygon fill="#191970" stroke="#191970" points="857.874,-15.2668 867.7746,-11.4947 857.6826,-8.2694 857.874,-15.2668"/>
</g>
<!-- Node429 -->
<g id="node8" class="node">
<title>Node429</title>
<g id="a_node8"><a xlink:href="mcp2515_8h.html#a18c1133ba60ff7ea81147e0a76bb0d44" target="_top" xlink:title="zrtos_vfs_module_mcp2515\l__read_register">
<polygon fill="#ffffff" stroke="#000000" points="350,-82 350,-112 489,-112 489,-82 350,-82"/>
<text text-anchor="start" x="358" y="-100" font-family="Helvetica,sans-Serif" font-size="10.00" fill="#000000">zrtos_vfs_module_mcp2515</text>
<text text-anchor="middle" x="419.5" y="-89" font-family="Helvetica,sans-Serif" font-size="10.00" fill="#000000">__read_register</text>
</a>
</g>
</g>
<!-- Node423&#45;&gt;Node429 -->
<g id="edge8" class="edge">
<title>Node423&#45;&gt;Node429</title>
<path fill="none" stroke="#191970" d="M301.8015,-66.0621C318.0506,-70.3333 335.8832,-75.0207 352.6441,-79.4265"/>
<polygon fill="#191970" stroke="#191970" points="351.8075,-82.8254 362.3687,-81.9826 353.5871,-76.0553 351.8075,-82.8254"/>
</g>
<!-- Node425 -->
<g id="node4" class="node">
<title>Node425</title>
<g id="a_node4"><a xlink:href="vfs__fd_8h.html#a1e3e2241dc54e1283f012b7ecc641053" target="_top" xlink:title="zrtos_vfs_fd__spi_transfer">
<polygon fill="#ffffff" stroke="#000000" points="700,-41.5 700,-60.5 832,-60.5 832,-41.5 700,-41.5"/>
<text text-anchor="middle" x="766" y="-48.5" font-family="Helvetica,sans-Serif" font-size="10.00" fill="#000000">zrtos_vfs_fd__spi_transfer</text>
</a>
</g>
</g>
<!-- Node424&#45;&gt;Node425 -->
<g id="edge3" class="edge">
<title>Node424&#45;&gt;Node425</title>
<path fill="none" stroke="#191970" d="M664.2556,-51C672.6286,-51 681.2126,-51 689.6727,-51"/>
<polygon fill="#191970" stroke="#191970" points="689.9083,-54.5001 699.9083,-51 689.9082,-47.5001 689.9083,-54.5001"/>
</g>
<!-- Node426 -->
<g id="node5" class="node">
<title>Node426</title>
<g id="a_node5"><a xlink:href="vfs__fd_8h.html#a1c176ae3990492b9deae02682a6782e1" target="_top" xlink:title="zrtos_vfs_fd__read">
<polygon fill="#ffffff" stroke="#000000" points="879.5,-41.5 879.5,-60.5 979.5,-60.5 979.5,-41.5 879.5,-41.5"/>
<text text-anchor="middle" x="929.5" y="-48.5" font-family="Helvetica,sans-Serif" font-size="10.00" fill="#000000">zrtos_vfs_fd__read</text>
</a>
</g>
</g>
<!-- Node425&#45;&gt;Node426 -->
<g id="edge4" class="edge">
<title>Node425&#45;&gt;Node426</title>
<path fill="none" stroke="#191970" d="M832.0304,-51C844.3552,-51 857.1753,-51 869.3125,-51"/>
<polygon fill="#191970" stroke="#191970" points="869.3213,-54.5001 879.3213,-51 869.3213,-47.5001 869.3213,-54.5001"/>
</g>
<!-- Node425&#45;&gt;Node428 -->
<g id="edge6" class="edge">
<title>Node425&#45;&gt;Node428</title>
<path fill="none" stroke="#191970" d="M803.9211,-41.4907C827.0535,-35.6899 856.8332,-28.2223 881.5869,-22.0149"/>
<polygon fill="#191970" stroke="#191970" points="882.6533,-25.3559 891.5016,-19.5286 880.9506,-18.5662 882.6533,-25.3559"/>
</g>
<!-- Node427 -->
<g id="node6" class="node">
<title>Node427</title>
<g id="a_node6"><a xlink:href="vfs__file_8h.html#a27e4ed3d3306da0eaccc004eebc8d3c4" target="_top" xlink:title="zrtos_vfs_file__read">
<polygon fill="#ffffff" stroke="#000000" points="1027,-41.5 1027,-60.5 1131,-60.5 1131,-41.5 1027,-41.5"/>
<text text-anchor="middle" x="1079" y="-48.5" font-family="Helvetica,sans-Serif" font-size="10.00" fill="#000000">zrtos_vfs_file__read</text>
</a>
</g>
</g>
<!-- Node426&#45;&gt;Node427 -->
<g id="edge5" class="edge">
<title>Node426&#45;&gt;Node427</title>
<path fill="none" stroke="#191970" d="M979.6972,-51C991.5597,-51 1004.3503,-51 1016.677,-51"/>
<polygon fill="#191970" stroke="#191970" points="1016.8917,-54.5001 1026.8917,-51 1016.8917,-47.5001 1016.8917,-54.5001"/>
</g>
<!-- Node430 -->
<g id="node9" class="node">
<title>Node430</title>
<g id="a_node9"><a xlink:href="mcp2515_8h.html#af0bd06ab9cb60e9f7a3b5d77ae76057d" target="_top" xlink:title="zrtos_vfs_module_mcp2515\l__read_registers">
<polygon fill="#ffffff" stroke="#000000" points="525,-85 525,-115 664,-115 664,-85 525,-85"/>
<text text-anchor="start" x="533" y="-103" font-family="Helvetica,sans-Serif" font-size="10.00" fill="#000000">zrtos_vfs_module_mcp2515</text>
<text text-anchor="middle" x="594.5" y="-92" font-family="Helvetica,sans-Serif" font-size="10.00" fill="#000000">__read_registers</text>
</a>
</g>
</g>
<!-- Node429&#45;&gt;Node430 -->
<g id="edge9" class="edge">
<title>Node429&#45;&gt;Node430</title>
<path fill="none" stroke="#191970" d="M489.1675,-98.1943C497.5024,-98.3372 506.0628,-98.4839 514.5285,-98.6291"/>
<polygon fill="#191970" stroke="#191970" points="514.7278,-102.1329 524.7863,-98.8049 514.8478,-95.1339 514.7278,-102.1329"/>
</g>
<!-- Node430&#45;&gt;Node425 -->
<g id="edge10" class="edge">
<title>Node430&#45;&gt;Node425</title>
<path fill="none" stroke="#191970" d="M647.355,-84.8986C671.6174,-77.9665 700.0209,-69.8512 722.9531,-63.2991"/>
<polygon fill="#191970" stroke="#191970" points="724.0895,-66.6145 732.7432,-60.5019 722.1664,-59.8839 724.0895,-66.6145"/>
</g>
</g>
</svg>
