<?xml version="1.0" encoding="UTF-8" standalone="no"?>
<!DOCTYPE svg PUBLIC "-//W3C//DTD SVG 1.1//EN"
 "http://www.w3.org/Graphics/SVG/1.1/DTD/svg11.dtd">
<!-- Generated by graphviz version 10.0.1 (20240210.2158)
 -->
<!-- Title: zrtos_vfs_module_mcp2515__reset Pages: 1 -->
<svg width="1706pt" height="474pt"
 viewBox="0.00 0.00 1705.50 474.00" xmlns="http://www.w3.org/2000/svg" xmlns:xlink="http://www.w3.org/1999/xlink">
<g id="graph0" class="graph" transform="scale(1 1) rotate(0) translate(4 470)">
<title>zrtos_vfs_module_mcp2515__reset</title>
<!-- Node1 -->
<g id="Node000001" class="node">
<title>Node1</title>
<g id="a_Node000001"><a xlink:title=" ">
<polygon fill="#999999" stroke="#666666" points="136,-314 0,-314 0,-282 136,-282 136,-314"/>
<text text-anchor="start" x="8" y="-300.5" font-family="Helvetica,sans-Serif" font-size="10.00">zrtos_vfs_module_mcp2515</text>
<text text-anchor="middle" x="68" y="-288.5" font-family="Helvetica,sans-Serif" font-size="10.00">__reset</text>
</a>
</g>
</g>
<!-- Node2 -->
<g id="Node000002" class="node">
<title>Node2</title>
<g id="a_Node000002"><a xlink:href="error_8h.html#af58428a30fbc7fd6967e15504df633a0" target="_top" xlink:title=" ">
<polygon fill="white" stroke="#666666" points="301.62,-466 196.38,-466 196.38,-446 301.62,-446 301.62,-466"/>
<text text-anchor="middle" x="249" y="-452.5" font-family="Helvetica,sans-Serif" font-size="10.00">zrtos_error__is_error</text>
</a>
</g>
</g>
<!-- Node1&#45;&gt;Node2 -->
<g id="edge1_Node000001_Node000002" class="edge">
<title>Node1&#45;&gt;Node2</title>
<g id="a_edge1_Node000001_Node000002"><a xlink:title=" ">
<path fill="none" stroke="#63b8ff" d="M77.14,-314.2C92.08,-342.32 126.57,-400.2 172,-432 177.3,-435.71 183.2,-438.87 189.31,-441.55"/>
<polygon fill="#63b8ff" stroke="#63b8ff" points="187.7,-444.68 198.29,-445.07 190.26,-438.16 187.7,-444.68"/>
</a>
</g>
</g>
<!-- Node3 -->
<g id="Node000003" class="node">
<title>Node3</title>
<g id="a_Node000003"><a xlink:href="error_8h.html#add13298163f63b7d37ed9f12d57e1a31" target="_top" xlink:title=" ">
<polygon fill="white" stroke="#666666" points="1560.75,-233 1438.25,-233 1438.25,-213 1560.75,-213 1560.75,-233"/>
<text text-anchor="middle" x="1499.5" y="-219.5" font-family="Helvetica,sans-Serif" font-size="10.00">zrtos_error__is_success</text>
</a>
</g>
</g>
<!-- Node1&#45;&gt;Node3 -->
<g id="edge2_Node000001_Node000003" class="edge">
<title>Node1&#45;&gt;Node3</title>
<g id="a_edge2_Node000001_Node000003"><a xlink:title=" ">
<path fill="none" stroke="#63b8ff" d="M79.97,-281.53C97.18,-256.71 132.63,-209.38 172,-179 276.45,-98.4 306.44,-48 438.38,-48 438.38,-48 438.38,-48 1163.25,-48 1297.71,-48 1431.6,-160 1479.77,-204.8"/>
<polygon fill="#63b8ff" stroke="#63b8ff" points="1477.22,-207.21 1486.89,-211.54 1482.03,-202.12 1477.22,-207.21"/>
</a>
</g>
</g>
<!-- Node4 -->
<g id="Node000004" class="node">
<title>Node4</title>
<g id="a_Node000004"><a xlink:href="gpio_8h.html#a1f8ccfbe91f750fb13f00e42103fb8b0" target="_top" xlink:title=" ">
<polygon fill="white" stroke="#666666" points="326,-20 172,-20 172,0 326,0 326,-20"/>
<text text-anchor="middle" x="249" y="-6.5" font-family="Helvetica,sans-Serif" font-size="10.00">zrtos_gpio__delay_milliseconds</text>
</a>
</g>
</g>
<!-- Node1&#45;&gt;Node4 -->
<g id="edge3_Node000001_Node000004" class="edge">
<title>Node1&#45;&gt;Node4</title>
<g id="a_edge3_Node000001_Node000004"><a xlink:title=" ">
<path fill="none" stroke="#63b8ff" d="M70.55,-281.68C75.78,-235.76 96.93,-104.27 172,-34 175.52,-30.7 179.5,-27.86 183.73,-25.4"/>
<polygon fill="#63b8ff" stroke="#63b8ff" points="185.21,-28.58 192.65,-21.03 182.13,-22.29 185.21,-28.58"/>
</a>
</g>
</g>
<!-- Node7 -->
<g id="Node000007" class="node">
<title>Node7</title>
<g id="a_Node000007"><a xlink:href="mcp2515_8h.html#aefa30fb59e86697b8523673b355f6a3c" target="_top" xlink:title=" ">
<polygon fill="white" stroke="#666666" points="1058.25,-390 922.25,-390 922.25,-358 1058.25,-358 1058.25,-390"/>
<text text-anchor="start" x="930.25" y="-376.5" font-family="Helvetica,sans-Serif" font-size="10.00">zrtos_vfs_module_mcp2515</text>
<text text-anchor="middle" x="990.25" y="-364.5" font-family="Helvetica,sans-Serif" font-size="10.00">__modify_register</text>
</a>
</g>
</g>
<!-- Node1&#45;&gt;Node7 -->
<g id="edge6_Node000001_Node000007" class="edge">
<title>Node1&#45;&gt;Node7</title>
<g id="a_edge6_Node000001_Node000007"><a xlink:title=" ">
<path fill="none" stroke="#63b8ff" d="M117.34,-314.49C187.29,-336.84 321.18,-374 438.38,-374 438.38,-374 438.38,-374 634.5,-374 729.5,-374 838.81,-374 910.69,-374"/>
<polygon fill="#63b8ff" stroke="#63b8ff" points="910.39,-377.5 920.39,-374 910.39,-370.5 910.39,-377.5"/>
</a>
</g>
</g>
<!-- Node8 -->
<g id="Node000008" class="node">
<title>Node8</title>
<g id="a_Node000008"><a xlink:href="mcp2515_8h.html#a757cc129737831c901694878ce1acba1" target="_top" xlink:title=" ">
<polygon fill="white" stroke="#666666" points="1402.25,-346 1266.25,-346 1266.25,-314 1402.25,-314 1402.25,-346"/>
<text text-anchor="start" x="1274.25" y="-332.5" font-family="Helvetica,sans-Serif" font-size="10.00">zrtos_vfs_module_mcp2515</text>
<text text-anchor="middle" x="1334.25" y="-320.5" font-family="Helvetica,sans-Serif" font-size="10.00">__spi_transfer</text>
</a>
</g>
</g>
<!-- Node1&#45;&gt;Node8 -->
<g id="edge31_Node000001_Node000008" class="edge">
<title>Node1&#45;&gt;Node8</title>
<g id="a_edge31_Node000001_Node000008"><a xlink:title=" ">
<path fill="none" stroke="#63b8ff" d="M90.3,-314.35C110.34,-328.95 141.72,-349.85 172,-362 284.28,-407.05 317.4,-418 438.38,-418 438.38,-418 438.38,-418 991.25,-418 1098.84,-418 1219.62,-376.65 1284.96,-350.64"/>
<polygon fill="#63b8ff" stroke="#63b8ff" points="1285.98,-354 1293.94,-347.02 1283.36,-347.51 1285.98,-354"/>
</a>
</g>
</g>
<!-- Node11 -->
<g id="Node000011" class="node">
<title>Node11</title>
<g id="a_Node000011"><a xlink:href="mcp2515_8h.html#a2dd342ada1683548e1f020e4edf4310a" target="_top" xlink:title=" ">
<polygon fill="white" stroke="#666666" points="317,-220 181,-220 181,-188 317,-188 317,-220"/>
<text text-anchor="start" x="189" y="-206.5" font-family="Helvetica,sans-Serif" font-size="10.00">zrtos_vfs_module_mcp2515</text>
<text text-anchor="middle" x="249" y="-194.5" font-family="Helvetica,sans-Serif" font-size="10.00">__set_filter</text>
</a>
</g>
</g>
<!-- Node1&#45;&gt;Node11 -->
<g id="edge11_Node000001_Node000011" class="edge">
<title>Node1&#45;&gt;Node11</title>
<g id="a_edge11_Node000001_Node000011"><a xlink:title=" ">
<path fill="none" stroke="#63b8ff" d="M89.67,-281.67C109.77,-266.41 141.63,-243.82 172,-229 175.08,-227.5 178.28,-226.05 181.54,-224.66"/>
<polygon fill="#63b8ff" stroke="#63b8ff" points="182.7,-227.97 190.69,-221 180.1,-221.47 182.7,-227.97"/>
</a>
</g>
</g>
<!-- Node17 -->
<g id="Node000017" class="node">
<title>Node17</title>
<g id="a_Node000017"><a xlink:href="mcp2515_8h.html#a267ca18d5b51831eabb3776665d9400c" target="_top" xlink:title=" ">
<polygon fill="white" stroke="#666666" points="701.5,-346 565.5,-346 565.5,-314 701.5,-314 701.5,-346"/>
<text text-anchor="start" x="573.5" y="-332.5" font-family="Helvetica,sans-Serif" font-size="10.00">zrtos_vfs_module_mcp2515</text>
<text text-anchor="middle" x="633.5" y="-320.5" font-family="Helvetica,sans-Serif" font-size="10.00">__set_registers</text>
</a>
</g>
</g>
<!-- Node1&#45;&gt;Node17 -->
<g id="edge30_Node000001_Node000017" class="edge">
<title>Node1&#45;&gt;Node17</title>
<g id="a_edge30_Node000001_Node000017"><a xlink:title=" ">
<path fill="none" stroke="#63b8ff" d="M136.26,-305.78C148.16,-306.98 160.43,-308.12 172,-309 305.92,-319.2 462.16,-325.05 553.9,-327.87"/>
<polygon fill="#63b8ff" stroke="#63b8ff" points="553.7,-331.37 563.8,-328.17 553.91,-324.37 553.7,-331.37"/>
</a>
</g>
</g>
<!-- Node21 -->
<g id="Node000021" class="node">
<title>Node21</title>
<g id="a_Node000021"><a xlink:href="mcp2515_8h.html#a8c085fb921bd4acc73e2e5aedaf40f54" target="_top" xlink:title=" ">
<polygon fill="white" stroke="#666666" points="317,-270 181,-270 181,-238 317,-238 317,-270"/>
<text text-anchor="start" x="189" y="-256.5" font-family="Helvetica,sans-Serif" font-size="10.00">zrtos_vfs_module_mcp2515</text>
<text text-anchor="middle" x="249" y="-244.5" font-family="Helvetica,sans-Serif" font-size="10.00">__set_filter_mask</text>
</a>
</g>
</g>
<!-- Node1&#45;&gt;Node21 -->
<g id="edge26_Node000001_Node000021" class="edge">
<title>Node1&#45;&gt;Node21</title>
<g id="a_edge26_Node000001_Node000021"><a xlink:title=" ">
<path fill="none" stroke="#63b8ff" d="M135.91,-281.55C146.93,-278.84 158.44,-276.01 169.71,-273.24"/>
<polygon fill="#63b8ff" stroke="#63b8ff" points="170.53,-276.65 179.41,-270.86 168.86,-269.85 170.53,-276.65"/>
</a>
</g>
</g>
<!-- Node22 -->
<g id="Node000022" class="node">
<title>Node22</title>
<g id="a_Node000022"><a xlink:href="mcp2515_8h.html#ac322ac78e5668f59b86ba8744900b5a1" target="_top" xlink:title=" ">
<polygon fill="white" stroke="#666666" points="507.38,-308 371.38,-308 371.38,-276 507.38,-276 507.38,-308"/>
<text text-anchor="start" x="379.38" y="-294.5" font-family="Helvetica,sans-Serif" font-size="10.00">zrtos_vfs_module_mcp2515</text>
<text text-anchor="middle" x="439.38" y="-282.5" font-family="Helvetica,sans-Serif" font-size="10.00">__set_register</text>
</a>
</g>
</g>
<!-- Node1&#45;&gt;Node22 -->
<g id="edge28_Node000001_Node000022" class="edge">
<title>Node1&#45;&gt;Node22</title>
<g id="a_edge28_Node000001_Node000022"><a xlink:title=" ">
<path fill="none" stroke="#63b8ff" d="M136.32,-296.91C199.27,-295.88 293.27,-294.36 359.66,-293.28"/>
<polygon fill="#63b8ff" stroke="#63b8ff" points="359.44,-296.78 369.38,-293.12 359.33,-289.78 359.44,-296.78"/>
</a>
</g>
</g>
<!-- Node5 -->
<g id="Node000005" class="node">
<title>Node5</title>
<g id="a_Node000005"><a xlink:href="atmega2560_8h.html#a4a4aae738e9511b66c4a4ae90d93f210" target="_top" xlink:title=" ">
<polygon fill="white" stroke="#666666" points="516.75,-20 362,-20 362,0 516.75,0 516.75,-20"/>
<text text-anchor="middle" x="439.38" y="-6.5" font-family="Helvetica,sans-Serif" font-size="10.00">zrtos_arch__delay_milliseconds</text>
</a>
</g>
</g>
<!-- Node4&#45;&gt;Node5 -->
<g id="edge4_Node000004_Node000005" class="edge">
<title>Node4&#45;&gt;Node5</title>
<g id="a_edge4_Node000004_Node000005"><a xlink:title=" ">
<path fill="none" stroke="#63b8ff" d="M326.35,-10C334.25,-10 342.33,-10 350.34,-10"/>
<polygon fill="#63b8ff" stroke="#63b8ff" points="350.1,-13.5 360.1,-10 350.1,-6.5 350.1,-13.5"/>
</a>
</g>
</g>
<!-- Node6 -->
<g id="Node000006" class="node">
<title>Node6</title>
<g id="a_Node000006"><a xlink:href="atmega2560_8h.html#ae04abf9c6757be157ce34315a0f8aea5" target="_top" xlink:title=" ">
<polygon fill="white" stroke="#666666" points="714.25,-20 552.75,-20 552.75,0 714.25,0 714.25,-20"/>
<text text-anchor="middle" x="633.5" y="-6.5" font-family="Helvetica,sans-Serif" font-size="10.00">zrtos_arch__delay_microseconds</text>
</a>
</g>
</g>
<!-- Node5&#45;&gt;Node6 -->
<g id="edge5_Node000005_Node000006" class="edge">
<title>Node5&#45;&gt;Node6</title>
<g id="a_edge5_Node000005_Node000006"><a xlink:title=" ">
<path fill="none" stroke="#63b8ff" d="M517.14,-10C525.02,-10 533.09,-10 541.11,-10"/>
<polygon fill="#63b8ff" stroke="#63b8ff" points="540.89,-13.5 550.89,-10 540.89,-6.5 540.89,-13.5"/>
</a>
</g>
</g>
<!-- Node7&#45;&gt;Node8 -->
<g id="edge7_Node000007_Node000008" class="edge">
<title>Node7&#45;&gt;Node8</title>
<g id="a_edge7_Node000007_Node000008"><a xlink:title=" ">
<path fill="none" stroke="#63b8ff" d="M1058.49,-365.75C1106.4,-359.82 1172.3,-351.57 1230.25,-344 1238.18,-342.96 1246.46,-341.86 1254.72,-340.76"/>
<polygon fill="#63b8ff" stroke="#63b8ff" points="1255,-344.25 1264.45,-339.45 1254.07,-337.31 1255,-344.25"/>
</a>
</g>
</g>
<!-- Node8&#45;&gt;Node3 -->
<g id="edge8_Node000008_Node000003" class="edge">
<title>Node8&#45;&gt;Node3</title>
<g id="a_edge8_Node000008_Node000003"><a xlink:title=" ">
<path fill="none" stroke="#63b8ff" d="M1360.4,-313.52C1391.1,-293.4 1442.69,-259.58 1473.38,-239.47"/>
<polygon fill="#63b8ff" stroke="#63b8ff" points="1475.21,-242.45 1481.65,-234.04 1471.37,-236.6 1475.21,-242.45"/>
</a>
</g>
</g>
<!-- Node9 -->
<g id="Node000009" class="node">
<title>Node9</title>
<g id="a_Node000009"><a xlink:href="vfs__fd_8h.html#a1c176ae3990492b9deae02682a6782e1" target="_top" xlink:title=" ">
<polygon fill="white" stroke="#666666" points="1547.62,-340 1451.38,-340 1451.38,-320 1547.62,-320 1547.62,-340"/>
<text text-anchor="middle" x="1499.5" y="-326.5" font-family="Helvetica,sans-Serif" font-size="10.00">zrtos_vfs_fd__read</text>
</a>
</g>
</g>
<!-- Node8&#45;&gt;Node9 -->
<g id="edge9_Node000008_Node000009" class="edge">
<title>Node8&#45;&gt;Node9</title>
<g id="a_edge9_Node000008_Node000009"><a xlink:title=" ">
<path fill="none" stroke="#63b8ff" d="M1402.59,-330C1414.97,-330 1427.8,-330 1439.9,-330"/>
<polygon fill="#63b8ff" stroke="#63b8ff" points="1439.72,-333.5 1449.72,-330 1439.72,-326.5 1439.72,-333.5"/>
</a>
</g>
</g>
<!-- Node10 -->
<g id="Node000010" class="node">
<title>Node10</title>
<g id="a_Node000010"><a xlink:href="vfs__file_8h.html#a27e4ed3d3306da0eaccc004eebc8d3c4" target="_top" xlink:title=" ">
<polygon fill="white" stroke="#666666" points="1697.5,-340 1596.75,-340 1596.75,-320 1697.5,-320 1697.5,-340"/>
<text text-anchor="middle" x="1647.12" y="-326.5" font-family="Helvetica,sans-Serif" font-size="10.00">zrtos_vfs_file__read</text>
</a>
</g>
</g>
<!-- Node9&#45;&gt;Node10 -->
<g id="edge10_Node000009_Node000010" class="edge">
<title>Node9&#45;&gt;Node10</title>
<g id="a_edge10_Node000009_Node000010"><a xlink:title=" ">
<path fill="none" stroke="#63b8ff" d="M1547.78,-330C1559.67,-330 1572.6,-330 1585.06,-330"/>
<polygon fill="#63b8ff" stroke="#63b8ff" points="1584.81,-333.5 1594.81,-330 1584.81,-326.5 1584.81,-333.5"/>
</a>
</g>
</g>
<!-- Node12 -->
<g id="Node000012" class="node">
<title>Node12</title>
<g id="a_Node000012"><a xlink:href="mcp2515_8h.html#ae36edcf41e011b562faf4b1006885296" target="_top" xlink:title=" ">
<polygon fill="white" stroke="#666666" points="507.38,-236 371.38,-236 371.38,-204 507.38,-204 507.38,-236"/>
<text text-anchor="start" x="379.38" y="-222.5" font-family="Helvetica,sans-Serif" font-size="10.00">zrtos_vfs_module_mcp2515</text>
<text text-anchor="middle" x="439.38" y="-210.5" font-family="Helvetica,sans-Serif" font-size="10.00">__set_filter_ex</text>
</a>
</g>
</g>
<!-- Node11&#45;&gt;Node12 -->
<g id="edge12_Node000011_Node000012" class="edge">
<title>Node11&#45;&gt;Node12</title>
<g id="a_edge12_Node000011_Node000012"><a xlink:title=" ">
<path fill="none" stroke="#63b8ff" d="M317.48,-209.73C331.22,-210.9 345.79,-212.14 359.88,-213.33"/>
<polygon fill="#63b8ff" stroke="#63b8ff" points="359.29,-216.79 369.55,-214.15 359.88,-209.82 359.29,-216.79"/>
</a>
</g>
</g>
<!-- Node12&#45;&gt;Node3 -->
<g id="edge13_Node000012_Node000003" class="edge">
<title>Node12&#45;&gt;Node3</title>
<g id="a_edge13_Node000012_Node000003"><a xlink:title=" ">
<path fill="none" stroke="#63b8ff" d="M507.72,-219.61C664.57,-218.81 1066.41,-217.34 1402.25,-221 1410.09,-221.09 1418.28,-221.21 1426.44,-221.35"/>
<polygon fill="#63b8ff" stroke="#63b8ff" points="1426.34,-224.85 1436.4,-221.53 1426.47,-217.85 1426.34,-224.85"/>
</a>
</g>
</g>
<!-- Node13 -->
<g id="Node000013" class="node">
<title>Node13</title>
<g id="a_Node000013"><a xlink:href="mcp2515_8h.html#a414b60a917d62f474195a1208159b461" target="_top" xlink:title=" ">
<polygon fill="white" stroke="#666666" points="701.5,-296 565.5,-296 565.5,-264 701.5,-264 701.5,-296"/>
<text text-anchor="start" x="573.5" y="-282.5" font-family="Helvetica,sans-Serif" font-size="10.00">zrtos_vfs_module_mcp2515</text>
<text text-anchor="middle" x="633.5" y="-270.5" font-family="Helvetica,sans-Serif" font-size="10.00">__set_config_mode</text>
</a>
</g>
</g>
<!-- Node12&#45;&gt;Node13 -->
<g id="edge14_Node000012_Node000013" class="edge">
<title>Node12&#45;&gt;Node13</title>
<g id="a_edge14_Node000012_Node000013"><a xlink:title=" ">
<path fill="none" stroke="#63b8ff" d="M493.13,-236.47C516.64,-243.82 544.54,-252.53 569.17,-260.22"/>
<polygon fill="#63b8ff" stroke="#63b8ff" points="567.83,-263.47 578.42,-263.11 569.92,-256.79 567.83,-263.47"/>
</a>
</g>
</g>
<!-- Node12&#45;&gt;Node17 -->
<g id="edge21_Node000012_Node000017" class="edge">
<title>Node12&#45;&gt;Node17</title>
<g id="a_edge21_Node000012_Node000017"><a xlink:title=" ">
<path fill="none" stroke="#63b8ff" d="M470.97,-236.37C485.44,-244.71 502.61,-255.52 516.75,-267 534.81,-281.67 533.02,-292.68 552.75,-305 554.77,-306.26 556.86,-307.46 559,-308.61"/>
<polygon fill="#63b8ff" stroke="#63b8ff" points="557.43,-311.74 567.96,-312.91 560.46,-305.43 557.43,-311.74"/>
</a>
</g>
</g>
<!-- Node18 -->
<g id="Node000018" class="node">
<title>Node18</title>
<g id="a_Node000018"><a xlink:href="mcp2515_8h.html#a69cd48b21930f35db7c85193d6e06ed8" target="_top" xlink:title=" ">
<polygon fill="white" stroke="#666666" points="701.5,-208 565.5,-208 565.5,-176 701.5,-176 701.5,-208"/>
<text text-anchor="start" x="573.5" y="-194.5" font-family="Helvetica,sans-Serif" font-size="10.00">zrtos_vfs_module_mcp2515</text>
<text text-anchor="middle" x="633.5" y="-182.5" font-family="Helvetica,sans-Serif" font-size="10.00">_id__get_buffer</text>
</a>
</g>
</g>
<!-- Node12&#45;&gt;Node18 -->
<g id="edge23_Node000012_Node000018" class="edge">
<title>Node12&#45;&gt;Node18</title>
<g id="a_edge23_Node000012_Node000018"><a xlink:title=" ">
<path fill="none" stroke="#63b8ff" d="M507.84,-210.17C522.81,-207.99 538.79,-205.66 554.15,-203.42"/>
<polygon fill="#63b8ff" stroke="#63b8ff" points="554.31,-206.93 563.7,-202.03 553.3,-200.01 554.31,-206.93"/>
</a>
</g>
</g>
<!-- Node19 -->
<g id="Node000019" class="node">
<title>Node19</title>
<g id="a_Node000019"><a xlink:href="mcp2515_8h.html#abf6deabd483ab3871ab645eaa5a01a71" target="_top" xlink:title=" ">
<polygon fill="white" stroke="#666666" points="701.5,-158 565.5,-158 565.5,-126 701.5,-126 701.5,-158"/>
<text text-anchor="start" x="573.5" y="-144.5" font-family="Helvetica,sans-Serif" font-size="10.00">zrtos_vfs_module_mcp2515</text>
<text text-anchor="middle" x="633.5" y="-132.5" font-family="Helvetica,sans-Serif" font-size="10.00">_id__get_length</text>
</a>
</g>
</g>
<!-- Node12&#45;&gt;Node19 -->
<g id="edge24_Node000012_Node000019" class="edge">
<title>Node12&#45;&gt;Node19</title>
<g id="a_edge24_Node000012_Node000019"><a xlink:title=" ">
<path fill="none" stroke="#63b8ff" d="M471.84,-203.74C494.09,-192.59 524.82,-177.9 552.75,-167 557.08,-165.31 561.58,-163.65 566.14,-162.04"/>
<polygon fill="#63b8ff" stroke="#63b8ff" points="567.06,-165.42 575.38,-158.87 564.79,-158.8 567.06,-165.42"/>
</a>
</g>
</g>
<!-- Node20 -->
<g id="Node000020" class="node">
<title>Node20</title>
<g id="a_Node000020"><a xlink:href="mcp2515_8h.html#a0fd75d12604ca1a638fbdabe5fce093e" target="_top" xlink:title=" ">
<polygon fill="white" stroke="#666666" points="701.5,-108 565.5,-108 565.5,-76 701.5,-76 701.5,-108"/>
<text text-anchor="start" x="573.5" y="-94.5" font-family="Helvetica,sans-Serif" font-size="10.00">zrtos_vfs_module_mcp2515</text>
<text text-anchor="middle" x="633.5" y="-82.5" font-family="Helvetica,sans-Serif" font-size="10.00">_id__init</text>
</a>
</g>
</g>
<!-- Node12&#45;&gt;Node20 -->
<g id="edge25_Node000012_Node000020" class="edge">
<title>Node12&#45;&gt;Node20</title>
<g id="a_edge25_Node000012_Node000020"><a xlink:title=" ">
<path fill="none" stroke="#63b8ff" d="M453.95,-203.69C473.55,-181.13 511.94,-140.52 552.75,-117 555.08,-115.66 557.5,-114.37 559.97,-113.15"/>
<polygon fill="#63b8ff" stroke="#63b8ff" points="561.32,-116.39 569.01,-109.1 558.45,-110 561.32,-116.39"/>
</a>
</g>
</g>
<!-- Node14 -->
<g id="Node000014" class="node">
<title>Node14</title>
<g id="a_Node000014"><a xlink:href="mcp2515_8h.html#a26c81272df128ccf491a5a2ec66e7197" target="_top" xlink:title=" ">
<polygon fill="white" stroke="#666666" points="886.25,-299 750.25,-299 750.25,-267 886.25,-267 886.25,-299"/>
<text text-anchor="start" x="758.25" y="-285.5" font-family="Helvetica,sans-Serif" font-size="10.00">zrtos_vfs_module_mcp2515</text>
<text text-anchor="middle" x="818.25" y="-273.5" font-family="Helvetica,sans-Serif" font-size="10.00">__set_mode</text>
</a>
</g>
</g>
<!-- Node13&#45;&gt;Node14 -->
<g id="edge15_Node000013_Node000014" class="edge">
<title>Node13&#45;&gt;Node14</title>
<g id="a_edge15_Node000013_Node000014"><a xlink:title=" ">
<path fill="none" stroke="#63b8ff" d="M701.77,-281.1C713.77,-281.3 726.37,-281.51 738.65,-281.71"/>
<polygon fill="#63b8ff" stroke="#63b8ff" points="738.25,-285.2 748.3,-281.87 738.36,-278.2 738.25,-285.2"/>
</a>
</g>
</g>
<!-- Node14&#45;&gt;Node3 -->
<g id="edge16_Node000014_Node000003" class="edge">
<title>Node14&#45;&gt;Node3</title>
<g id="a_edge16_Node000014_Node000003"><a xlink:title=" ">
<path fill="none" stroke="#63b8ff" d="M886.6,-267.16C898.43,-264.79 910.66,-262.61 922.25,-261 1102.8,-235.9 1317.56,-227.28 1426.86,-224.4"/>
<polygon fill="#63b8ff" stroke="#63b8ff" points="1426.64,-227.91 1436.55,-224.15 1426.46,-220.91 1426.64,-227.91"/>
</a>
</g>
</g>
<!-- Node14&#45;&gt;Node7 -->
<g id="edge17_Node000014_Node000007" class="edge">
<title>Node14&#45;&gt;Node7</title>
<g id="a_edge17_Node000014_Node000007"><a xlink:title=" ">
<path fill="none" stroke="#63b8ff" d="M850.04,-299.48C877.72,-314.3 918.56,-336.16 948.86,-352.38"/>
<polygon fill="#63b8ff" stroke="#63b8ff" points="946.89,-355.3 957.36,-356.93 950.19,-349.12 946.89,-355.3"/>
</a>
</g>
</g>
<!-- Node15 -->
<g id="Node000015" class="node">
<title>Node15</title>
<g id="a_Node000015"><a xlink:href="mcp2515_8h.html#a18c1133ba60ff7ea81147e0a76bb0d44" target="_top" xlink:title=" ">
<polygon fill="white" stroke="#666666" points="1058.25,-302 922.25,-302 922.25,-270 1058.25,-270 1058.25,-302"/>
<text text-anchor="start" x="930.25" y="-288.5" font-family="Helvetica,sans-Serif" font-size="10.00">zrtos_vfs_module_mcp2515</text>
<text text-anchor="middle" x="990.25" y="-276.5" font-family="Helvetica,sans-Serif" font-size="10.00">__read_register</text>
</a>
</g>
</g>
<!-- Node14&#45;&gt;Node15 -->
<g id="edge18_Node000014_Node000015" class="edge">
<title>Node14&#45;&gt;Node15</title>
<g id="a_edge18_Node000014_Node000015"><a xlink:title=" ">
<path fill="none" stroke="#63b8ff" d="M886.44,-284.19C894.39,-284.33 902.55,-284.47 910.64,-284.61"/>
<polygon fill="#63b8ff" stroke="#63b8ff" points="910.42,-288.11 920.48,-284.79 910.54,-281.11 910.42,-288.11"/>
</a>
</g>
</g>
<!-- Node16 -->
<g id="Node000016" class="node">
<title>Node16</title>
<g id="a_Node000016"><a xlink:href="mcp2515_8h.html#af0bd06ab9cb60e9f7a3b5d77ae76057d" target="_top" xlink:title=" ">
<polygon fill="white" stroke="#666666" points="1230.25,-302 1094.25,-302 1094.25,-270 1230.25,-270 1230.25,-302"/>
<text text-anchor="start" x="1102.25" y="-288.5" font-family="Helvetica,sans-Serif" font-size="10.00">zrtos_vfs_module_mcp2515</text>
<text text-anchor="middle" x="1162.25" y="-276.5" font-family="Helvetica,sans-Serif" font-size="10.00">__read_registers</text>
</a>
</g>
</g>
<!-- Node15&#45;&gt;Node16 -->
<g id="edge19_Node000015_Node000016" class="edge">
<title>Node15&#45;&gt;Node16</title>
<g id="a_edge19_Node000015_Node000016"><a xlink:title=" ">
<path fill="none" stroke="#63b8ff" d="M1058.44,-286C1066.39,-286 1074.55,-286 1082.64,-286"/>
<polygon fill="#63b8ff" stroke="#63b8ff" points="1082.48,-289.5 1092.48,-286 1082.48,-282.5 1082.48,-289.5"/>
</a>
</g>
</g>
<!-- Node16&#45;&gt;Node8 -->
<g id="edge20_Node000016_Node000008" class="edge">
<title>Node16&#45;&gt;Node8</title>
<g id="a_edge20_Node000016_Node000008"><a xlink:title=" ">
<path fill="none" stroke="#63b8ff" d="M1226.55,-302.38C1236.99,-305.09 1247.9,-307.91 1258.58,-310.67"/>
<polygon fill="#63b8ff" stroke="#63b8ff" points="1257.59,-314.03 1268.15,-313.15 1259.34,-307.26 1257.59,-314.03"/>
</a>
</g>
</g>
<!-- Node17&#45;&gt;Node8 -->
<g id="edge22_Node000017_Node000008" class="edge">
<title>Node17&#45;&gt;Node8</title>
<g id="a_edge22_Node000017_Node000008"><a xlink:title=" ">
<path fill="none" stroke="#63b8ff" d="M701.82,-330C831.65,-330 1116.02,-330 1254.44,-330"/>
<polygon fill="#63b8ff" stroke="#63b8ff" points="1254.25,-333.5 1264.25,-330 1254.25,-326.5 1254.25,-333.5"/>
</a>
</g>
</g>
<!-- Node21&#45;&gt;Node12 -->
<g id="edge27_Node000021_Node000012" class="edge">
<title>Node21&#45;&gt;Node12</title>
<g id="a_edge27_Node000021_Node000012"><a xlink:title=" ">
<path fill="none" stroke="#63b8ff" d="M317.48,-241.82C331.22,-239.34 345.79,-236.71 359.88,-234.17"/>
<polygon fill="#63b8ff" stroke="#63b8ff" points="360.35,-237.64 369.56,-232.42 359.1,-230.75 360.35,-237.64"/>
</a>
</g>
</g>
<!-- Node22&#45;&gt;Node17 -->
<g id="edge29_Node000022_Node000017" class="edge">
<title>Node22&#45;&gt;Node17</title>
<g id="a_edge29_Node000022_Node000017"><a xlink:title=" ">
<path fill="none" stroke="#63b8ff" d="M507.84,-305.34C522.81,-308.3 538.79,-311.47 554.15,-314.5"/>
<polygon fill="#63b8ff" stroke="#63b8ff" points="553.22,-317.89 563.71,-316.39 554.58,-311.02 553.22,-317.89"/>
</a>
</g>
</g>
</g>
</svg>
