<?xml version="1.0" encoding="UTF-8" standalone="no"?>
<!DOCTYPE svg PUBLIC "-//W3C//DTD SVG 1.1//EN"
 "http://www.w3.org/Graphics/SVG/1.1/DTD/svg11.dtd">
<!-- Generated by graphviz version 2.40.1 (20161225.0304)
 -->
<!-- Title: zrtos_vfs_module_mcp2515__reset Pages: 1 -->
<svg width="1719pt" height="461pt"
 viewBox="0.00 0.00 1719.00 461.00" xmlns="http://www.w3.org/2000/svg" xmlns:xlink="http://www.w3.org/1999/xlink">
<g id="graph0" class="graph" transform="scale(1 1) rotate(0) translate(4 457)">
<title>zrtos_vfs_module_mcp2515__reset</title>
<polygon fill="#ffffff" stroke="transparent" points="-4,4 -4,-457 1715,-457 1715,4 -4,4"/>
<!-- Node240 -->
<g id="node1" class="node">
<title>Node240</title>
<polygon fill="#bfbfbf" stroke="#000000" points="0,-262 0,-292 139,-292 139,-262 0,-262"/>
<text text-anchor="start" x="8" y="-280" font-family="Helvetica,sans-Serif" font-size="10.00" fill="#000000">zrtos_vfs_module_mcp2515</text>
<text text-anchor="middle" x="69.5" y="-269" font-family="Helvetica,sans-Serif" font-size="10.00" fill="#000000">__reset</text>
</g>
<!-- Node241 -->
<g id="node2" class="node">
<title>Node241</title>
<g id="a_node2"><a xlink:href="vfs__fd_8h.html#a1e3e2241dc54e1283f012b7ecc641053" target="_top" xlink:title="zrtos_vfs_fd__spi_transfer">
<polygon fill="#ffffff" stroke="#000000" points="1280,-355.5 1280,-374.5 1412,-374.5 1412,-355.5 1280,-355.5"/>
<text text-anchor="middle" x="1346" y="-362.5" font-family="Helvetica,sans-Serif" font-size="10.00" fill="#000000">zrtos_vfs_fd__spi_transfer</text>
</a>
</g>
</g>
<!-- Node240&#45;&gt;Node241 -->
<g id="edge1" class="edge">
<title>Node240&#45;&gt;Node241</title>
<path fill="none" stroke="#191970" d="M79.1614,-292.1128C95.6847,-316.6626 131.8045,-364.9752 175,-390 281.061,-451.4452 320.9258,-453 443.5,-453 443.5,-453 443.5,-453 999.5,-453 1119.1437,-453 1255.0732,-403.1029 1314.9226,-378.454"/>
<polygon fill="#191970" stroke="#191970" points="1316.3138,-381.666 1324.1948,-374.5851 1313.6181,-375.2059 1316.3138,-381.666"/>
</g>
<!-- Node244 -->
<g id="node5" class="node">
<title>Node244</title>
<g id="a_node5"><a xlink:href="error_8h.html#add13298163f63b7d37ed9f12d57e1a31" target="_top" xlink:title="zrtos_error__is_success">
<polygon fill="#ffffff" stroke="#000000" points="1448,-248.5 1448,-267.5 1571,-267.5 1571,-248.5 1448,-248.5"/>
<text text-anchor="middle" x="1509.5" y="-255.5" font-family="Helvetica,sans-Serif" font-size="10.00" fill="#000000">zrtos_error__is_success</text>
</a>
</g>
</g>
<!-- Node240&#45;&gt;Node244 -->
<g id="edge8" class="edge">
<title>Node240&#45;&gt;Node244</title>
<path fill="none" stroke="#191970" d="M85.4958,-261.6925C134.614,-216.369 289.3,-86 443.5,-86 443.5,-86 443.5,-86 1174.5,-86 1309.5674,-86 1444.8084,-198.0188 1491.9771,-241.2549"/>
<polygon fill="#191970" stroke="#191970" points="1489.7975,-244.0077 1499.5017,-248.2597 1494.5671,-238.8842 1489.7975,-244.0077"/>
</g>
<!-- Node245 -->
<g id="node6" class="node">
<title>Node245</title>
<g id="a_node6"><a xlink:href="gpio_8h.html#a1f8ccfbe91f750fb13f00e42103fb8b0" target="_top" xlink:title="zrtos_gpio__delay_milliseconds">
<polygon fill="#ffffff" stroke="#000000" points="175,-38.5 175,-57.5 330,-57.5 330,-38.5 175,-38.5"/>
<text text-anchor="middle" x="252.5" y="-45.5" font-family="Helvetica,sans-Serif" font-size="10.00" fill="#000000">zrtos_gpio__delay_milliseconds</text>
</a>
</g>
</g>
<!-- Node240&#45;&gt;Node245 -->
<g id="edge5" class="edge">
<title>Node240&#45;&gt;Node245</title>
<path fill="none" stroke="#191970" d="M72.9766,-261.8352C82.4443,-223.9797 112.284,-124.6014 175,-72 179.9575,-67.842 185.6314,-64.4034 191.6048,-61.56"/>
<polygon fill="#191970" stroke="#191970" points="193.2983,-64.6459 201.1784,-57.5638 190.6018,-58.1861 193.2983,-64.6459"/>
</g>
<!-- Node248 -->
<g id="node9" class="node">
<title>Node248</title>
<g id="a_node9"><a xlink:href="mcp2515_8h.html#a267ca18d5b51831eabb3776665d9400c" target="_top" xlink:title="zrtos_vfs_module_mcp2515\l__set_registers">
<polygon fill="#ffffff" stroke="#000000" points="568.5,-350 568.5,-380 707.5,-380 707.5,-350 568.5,-350"/>
<text text-anchor="start" x="576.5" y="-368" font-family="Helvetica,sans-Serif" font-size="10.00" fill="#000000">zrtos_vfs_module_mcp2515</text>
<text text-anchor="middle" x="638" y="-357" font-family="Helvetica,sans-Serif" font-size="10.00" fill="#000000">__set_registers</text>
</a>
</g>
</g>
<!-- Node240&#45;&gt;Node248 -->
<g id="edge9" class="edge">
<title>Node240&#45;&gt;Node248</title>
<path fill="none" stroke="#191970" d="M97.783,-292.0327C118.5702,-302.4036 147.8135,-315.6074 175,-323 305.9966,-358.6211 464.721,-365.5652 558.1918,-366.1381"/>
<polygon fill="#191970" stroke="#191970" points="558.4105,-369.6389 568.4237,-366.1769 558.4371,-362.6389 558.4105,-369.6389"/>
</g>
<!-- Node249 -->
<g id="node10" class="node">
<title>Node249</title>
<g id="a_node10"><a xlink:href="mcp2515_8h.html#ac322ac78e5668f59b86ba8744900b5a1" target="_top" xlink:title="zrtos_vfs_module_mcp2515\l__set_register">
<polygon fill="#ffffff" stroke="#000000" points="374,-306 374,-336 513,-336 513,-306 374,-306"/>
<text text-anchor="start" x="382" y="-324" font-family="Helvetica,sans-Serif" font-size="10.00" fill="#000000">zrtos_vfs_module_mcp2515</text>
<text text-anchor="middle" x="443.5" y="-313" font-family="Helvetica,sans-Serif" font-size="10.00" fill="#000000">__set_register</text>
</a>
</g>
</g>
<!-- Node240&#45;&gt;Node249 -->
<g id="edge11" class="edge">
<title>Node240&#45;&gt;Node249</title>
<path fill="none" stroke="#191970" d="M125.2895,-292.0006C141.2422,-295.8037 158.7188,-299.5117 175,-302 238.0353,-311.6339 310.1576,-316.3958 363.77,-318.7423"/>
<polygon fill="#191970" stroke="#191970" points="363.76,-322.2449 373.8978,-319.1666 364.0531,-315.251 363.76,-322.2449"/>
</g>
<!-- Node250 -->
<g id="node11" class="node">
<title>Node250</title>
<g id="a_node11"><a xlink:href="mcp2515_8h.html#aefa30fb59e86697b8523673b355f6a3c" target="_top" xlink:title="zrtos_vfs_module_mcp2515\l__modify_register">
<polygon fill="#ffffff" stroke="#000000" points="930,-394 930,-424 1069,-424 1069,-394 930,-394"/>
<text text-anchor="start" x="938" y="-412" font-family="Helvetica,sans-Serif" font-size="10.00" fill="#000000">zrtos_vfs_module_mcp2515</text>
<text text-anchor="middle" x="999.5" y="-401" font-family="Helvetica,sans-Serif" font-size="10.00" fill="#000000">__modify_register</text>
</a>
</g>
</g>
<!-- Node240&#45;&gt;Node250 -->
<g id="edge13" class="edge">
<title>Node240&#45;&gt;Node250</title>
<path fill="none" stroke="#191970" d="M86.4751,-292.1856C106.302,-309.1013 140.7676,-336.0314 175,-351 286.8595,-399.9122 321.4142,-409 443.5,-409 443.5,-409 443.5,-409 638,-409 734.9547,-409 846.5364,-409 919.785,-409"/>
<polygon fill="#191970" stroke="#191970" points="919.8609,-412.5001 929.8608,-409 919.8608,-405.5001 919.8609,-412.5001"/>
</g>
<!-- Node251 -->
<g id="node12" class="node">
<title>Node251</title>
<g id="a_node12"><a xlink:href="mcp2515_8h.html#a2dd342ada1683548e1f020e4edf4310a" target="_top" xlink:title="zrtos_vfs_module_mcp2515\l__set_filter">
<polygon fill="#ffffff" stroke="#000000" points="183,-213 183,-243 322,-243 322,-213 183,-213"/>
<text text-anchor="start" x="191" y="-231" font-family="Helvetica,sans-Serif" font-size="10.00" fill="#000000">zrtos_vfs_module_mcp2515</text>
<text text-anchor="middle" x="252.5" y="-220" font-family="Helvetica,sans-Serif" font-size="10.00" fill="#000000">__set_filter</text>
</a>
</g>
</g>
<!-- Node240&#45;&gt;Node251 -->
<g id="edge15" class="edge">
<title>Node240&#45;&gt;Node251</title>
<path fill="none" stroke="#191970" d="M125.8993,-261.8986C145.0353,-256.7747 166.5855,-251.0044 186.4079,-245.6968"/>
<polygon fill="#191970" stroke="#191970" points="187.5325,-249.019 196.287,-243.0516 185.722,-242.2572 187.5325,-249.019"/>
</g>
<!-- Node260 -->
<g id="node21" class="node">
<title>Node260</title>
<g id="a_node21"><a xlink:href="error_8h.html#af58428a30fbc7fd6967e15504df633a0" target="_top" xlink:title="zrtos_error__is_error">
<polygon fill="#ffffff" stroke="#000000" points="199.5,-.5 199.5,-19.5 305.5,-19.5 305.5,-.5 199.5,-.5"/>
<text text-anchor="middle" x="252.5" y="-7.5" font-family="Helvetica,sans-Serif" font-size="10.00" fill="#000000">zrtos_error__is_error</text>
</a>
</g>
</g>
<!-- Node240&#45;&gt;Node260 -->
<g id="edge29" class="edge">
<title>Node240&#45;&gt;Node260</title>
<path fill="none" stroke="#191970" d="M71.2853,-261.7093C77.2127,-218.1517 100.3122,-92.4856 175,-29 179.4629,-25.2065 184.5657,-22.1477 189.9752,-19.6846"/>
<polygon fill="#191970" stroke="#191970" points="191.244,-22.9466 199.3099,-16.0769 188.7205,-16.4172 191.244,-22.9466"/>
</g>
<!-- Node261 -->
<g id="node22" class="node">
<title>Node261</title>
<g id="a_node22"><a xlink:href="mcp2515_8h.html#a8c085fb921bd4acc73e2e5aedaf40f54" target="_top" xlink:title="zrtos_vfs_module_mcp2515\l__set_filter_mask">
<polygon fill="#ffffff" stroke="#000000" points="183,-262 183,-292 322,-292 322,-262 183,-262"/>
<text text-anchor="start" x="191" y="-280" font-family="Helvetica,sans-Serif" font-size="10.00" fill="#000000">zrtos_vfs_module_mcp2515</text>
<text text-anchor="middle" x="252.5" y="-269" font-family="Helvetica,sans-Serif" font-size="10.00" fill="#000000">__set_filter_mask</text>
</a>
</g>
</g>
<!-- Node240&#45;&gt;Node261 -->
<g id="edge30" class="edge">
<title>Node240&#45;&gt;Node261</title>
<path fill="none" stroke="#191970" d="M139.2065,-277C150.1879,-277 161.6139,-277 172.8007,-277"/>
<polygon fill="#191970" stroke="#191970" points="172.9873,-280.5001 182.9873,-277 172.9873,-273.5001 172.9873,-280.5001"/>
</g>
<!-- Node242 -->
<g id="node3" class="node">
<title>Node242</title>
<g id="a_node3"><a xlink:href="vfs__fd_8h.html#a1c176ae3990492b9deae02682a6782e1" target="_top" xlink:title="zrtos_vfs_fd__read">
<polygon fill="#ffffff" stroke="#000000" points="1459.5,-355.5 1459.5,-374.5 1559.5,-374.5 1559.5,-355.5 1459.5,-355.5"/>
<text text-anchor="middle" x="1509.5" y="-362.5" font-family="Helvetica,sans-Serif" font-size="10.00" fill="#000000">zrtos_vfs_fd__read</text>
</a>
</g>
</g>
<!-- Node241&#45;&gt;Node242 -->
<g id="edge2" class="edge">
<title>Node241&#45;&gt;Node242</title>
<path fill="none" stroke="#191970" d="M1412.0304,-365C1424.3552,-365 1437.1753,-365 1449.3125,-365"/>
<polygon fill="#191970" stroke="#191970" points="1449.3213,-368.5001 1459.3213,-365 1449.3213,-361.5001 1449.3213,-368.5001"/>
</g>
<!-- Node241&#45;&gt;Node244 -->
<g id="edge4" class="edge">
<title>Node241&#45;&gt;Node244</title>
<path fill="none" stroke="#191970" d="M1360.7979,-355.3157C1389.3729,-336.6153 1452.3308,-295.4135 1486.4442,-273.0885"/>
<polygon fill="#191970" stroke="#191970" points="1488.4025,-275.9899 1494.8533,-267.5853 1484.5693,-270.1327 1488.4025,-275.9899"/>
</g>
<!-- Node243 -->
<g id="node4" class="node">
<title>Node243</title>
<g id="a_node4"><a xlink:href="vfs__file_8h.html#a27e4ed3d3306da0eaccc004eebc8d3c4" target="_top" xlink:title="zrtos_vfs_file__read">
<polygon fill="#ffffff" stroke="#000000" points="1607,-355.5 1607,-374.5 1711,-374.5 1711,-355.5 1607,-355.5"/>
<text text-anchor="middle" x="1659" y="-362.5" font-family="Helvetica,sans-Serif" font-size="10.00" fill="#000000">zrtos_vfs_file__read</text>
</a>
</g>
</g>
<!-- Node242&#45;&gt;Node243 -->
<g id="edge3" class="edge">
<title>Node242&#45;&gt;Node243</title>
<path fill="none" stroke="#191970" d="M1559.6972,-365C1571.5597,-365 1584.3503,-365 1596.677,-365"/>
<polygon fill="#191970" stroke="#191970" points="1596.8917,-368.5001 1606.8917,-365 1596.8917,-361.5001 1596.8917,-368.5001"/>
</g>
<!-- Node246 -->
<g id="node7" class="node">
<title>Node246</title>
<g id="a_node7"><a xlink:href="atmega2560_8h.html#a4a4aae738e9511b66c4a4ae90d93f210" target="_top" xlink:title="zrtos_arch__delay_milliseconds">
<polygon fill="#ffffff" stroke="#000000" points="366,-38.5 366,-57.5 521,-57.5 521,-38.5 366,-38.5"/>
<text text-anchor="middle" x="443.5" y="-45.5" font-family="Helvetica,sans-Serif" font-size="10.00" fill="#000000">zrtos_arch__delay_milliseconds</text>
</a>
</g>
</g>
<!-- Node245&#45;&gt;Node246 -->
<g id="edge6" class="edge">
<title>Node245&#45;&gt;Node246</title>
<path fill="none" stroke="#191970" d="M330.187,-48C338.6495,-48 347.3055,-48 355.8763,-48"/>
<polygon fill="#191970" stroke="#191970" points="355.8819,-51.5001 365.8818,-48 355.8818,-44.5001 355.8819,-51.5001"/>
</g>
<!-- Node247 -->
<g id="node8" class="node">
<title>Node247</title>
<g id="a_node8"><a xlink:href="atmega2560_8h.html#ae04abf9c6757be157ce34315a0f8aea5" target="_top" xlink:title="zrtos_arch__delay_microseconds">
<polygon fill="#ffffff" stroke="#000000" points="557,-38.5 557,-57.5 719,-57.5 719,-38.5 557,-38.5"/>
<text text-anchor="middle" x="638" y="-45.5" font-family="Helvetica,sans-Serif" font-size="10.00" fill="#000000">zrtos_arch__delay_microseconds</text>
</a>
</g>
</g>
<!-- Node246&#45;&gt;Node247 -->
<g id="edge7" class="edge">
<title>Node246&#45;&gt;Node247</title>
<path fill="none" stroke="#191970" d="M521.2101,-48C529.6519,-48 538.2986,-48 546.8814,-48"/>
<polygon fill="#191970" stroke="#191970" points="546.9114,-51.5001 556.9114,-48 546.9113,-44.5001 546.9114,-51.5001"/>
</g>
<!-- Node248&#45;&gt;Node241 -->
<g id="edge10" class="edge">
<title>Node248&#45;&gt;Node241</title>
<path fill="none" stroke="#191970" d="M707.8234,-365C841.2388,-365 1131.3939,-365 1269.7069,-365"/>
<polygon fill="#191970" stroke="#191970" points="1269.8007,-368.5001 1279.8007,-365 1269.8006,-361.5001 1269.8007,-368.5001"/>
</g>
<!-- Node249&#45;&gt;Node248 -->
<g id="edge12" class="edge">
<title>Node249&#45;&gt;Node248</title>
<path fill="none" stroke="#191970" d="M509.8919,-336.0192C526.5428,-339.786 544.5402,-343.8574 561.6341,-347.7244"/>
<polygon fill="#191970" stroke="#191970" points="561.0515,-351.181 571.5773,-349.9738 562.5961,-344.3535 561.0515,-351.181"/>
</g>
<!-- Node250&#45;&gt;Node241 -->
<g id="edge14" class="edge">
<title>Node250&#45;&gt;Node241</title>
<path fill="none" stroke="#191970" d="M1069.0905,-400.7299C1118.0344,-394.8477 1185.0507,-386.6617 1244,-379 1252.3447,-377.9154 1261.0698,-376.7563 1269.7531,-375.5867"/>
<polygon fill="#191970" stroke="#191970" points="1270.4621,-379.0228 1279.9021,-374.2128 1269.5229,-372.086 1270.4621,-379.0228"/>
</g>
<!-- Node252 -->
<g id="node13" class="node">
<title>Node252</title>
<g id="a_node13"><a xlink:href="mcp2515_8h.html#ae36edcf41e011b562faf4b1006885296" target="_top" xlink:title="zrtos_vfs_module_mcp2515\l__set_filter_ex">
<polygon fill="#ffffff" stroke="#000000" points="374,-235 374,-265 513,-265 513,-235 374,-235"/>
<text text-anchor="start" x="382" y="-253" font-family="Helvetica,sans-Serif" font-size="10.00" fill="#000000">zrtos_vfs_module_mcp2515</text>
<text text-anchor="middle" x="443.5" y="-242" font-family="Helvetica,sans-Serif" font-size="10.00" fill="#000000">__set_filter_ex</text>
</a>
</g>
</g>
<!-- Node251&#45;&gt;Node252 -->
<g id="edge16" class="edge">
<title>Node251&#45;&gt;Node252</title>
<path fill="none" stroke="#191970" d="M322.2661,-236.0359C335.815,-237.5965 350.1106,-239.2431 363.9467,-240.8368"/>
<polygon fill="#191970" stroke="#191970" points="363.5881,-244.3185 373.923,-241.9859 364.3892,-237.3645 363.5881,-244.3185"/>
</g>
<!-- Node252&#45;&gt;Node244 -->
<g id="edge24" class="edge">
<title>Node252&#45;&gt;Node244</title>
<path fill="none" stroke="#191970" d="M513.123,-252.0924C527.6226,-252.4574 542.8091,-252.7876 557,-253 936.9598,-258.6873 1032.0251,-251.4365 1412,-256 1420.3351,-256.1001 1429.0704,-256.2357 1437.7438,-256.3894"/>
<polygon fill="#191970" stroke="#191970" points="1437.8062,-259.891 1447.8694,-256.5771 1437.936,-252.8922 1437.8062,-259.891"/>
</g>
<!-- Node252&#45;&gt;Node248 -->
<g id="edge26" class="edge">
<title>Node252&#45;&gt;Node248</title>
<path fill="none" stroke="#191970" d="M473.4322,-265.0102C488.5242,-273.3326 506.6242,-284.5153 521,-297 540.0771,-313.5675 535.9564,-327.0147 557,-341 559.4049,-342.5982 561.9189,-344.0926 564.5111,-345.4896"/>
<polygon fill="#191970" stroke="#191970" points="563.054,-348.6727 573.5806,-349.8738 566.1006,-342.3704 563.054,-348.6727"/>
</g>
<!-- Node253 -->
<g id="node14" class="node">
<title>Node253</title>
<g id="a_node14"><a xlink:href="mcp2515_8h.html#a414b60a917d62f474195a1208159b461" target="_top" xlink:title="zrtos_vfs_module_mcp2515\l__set_config_mode">
<polygon fill="#ffffff" stroke="#000000" points="568.5,-301 568.5,-331 707.5,-331 707.5,-301 568.5,-301"/>
<text text-anchor="start" x="576.5" y="-319" font-family="Helvetica,sans-Serif" font-size="10.00" fill="#000000">zrtos_vfs_module_mcp2515</text>
<text text-anchor="middle" x="638" y="-308" font-family="Helvetica,sans-Serif" font-size="10.00" fill="#000000">__set_config_mode</text>
</a>
</g>
</g>
<!-- Node252&#45;&gt;Node253 -->
<g id="edge17" class="edge">
<title>Node252&#45;&gt;Node253</title>
<path fill="none" stroke="#191970" d="M488.1222,-265.1417C516.6611,-274.8259 553.853,-287.4463 584.0476,-297.6923"/>
<polygon fill="#191970" stroke="#191970" points="582.991,-301.0297 593.5854,-300.9287 585.2404,-294.4009 582.991,-301.0297"/>
</g>
<!-- Node257 -->
<g id="node18" class="node">
<title>Node257</title>
<g id="a_node18"><a xlink:href="mcp2515_8h.html#a0fd75d12604ca1a638fbdabe5fce093e" target="_top" xlink:title="zrtos_vfs_module_mcp2515\l_id__init">
<polygon fill="#ffffff" stroke="#000000" points="568.5,-213 568.5,-243 707.5,-243 707.5,-213 568.5,-213"/>
<text text-anchor="start" x="576.5" y="-231" font-family="Helvetica,sans-Serif" font-size="10.00" fill="#000000">zrtos_vfs_module_mcp2515</text>
<text text-anchor="middle" x="638" y="-220" font-family="Helvetica,sans-Serif" font-size="10.00" fill="#000000">_id__init</text>
</a>
</g>
</g>
<!-- Node252&#45;&gt;Node257 -->
<g id="edge25" class="edge">
<title>Node252&#45;&gt;Node257</title>
<path fill="none" stroke="#191970" d="M513.1696,-242.1196C527.7829,-240.4667 543.3019,-238.7114 558.2504,-237.0205"/>
<polygon fill="#191970" stroke="#191970" points="558.9469,-240.4641 568.4901,-235.8623 558.1601,-233.5085 558.9469,-240.4641"/>
</g>
<!-- Node258 -->
<g id="node19" class="node">
<title>Node258</title>
<g id="a_node19"><a xlink:href="mcp2515_8h.html#a7bcad02e269709a18947a60dd997c0ee" target="_top" xlink:title="zrtos_vfs_module_mcp2515\l_id__get_buffer">
<polygon fill="#ffffff" stroke="#000000" points="568.5,-164 568.5,-194 707.5,-194 707.5,-164 568.5,-164"/>
<text text-anchor="start" x="576.5" y="-182" font-family="Helvetica,sans-Serif" font-size="10.00" fill="#000000">zrtos_vfs_module_mcp2515</text>
<text text-anchor="middle" x="638" y="-171" font-family="Helvetica,sans-Serif" font-size="10.00" fill="#000000">_id__get_buffer</text>
</a>
</g>
</g>
<!-- Node252&#45;&gt;Node258 -->
<g id="edge27" class="edge">
<title>Node252&#45;&gt;Node258</title>
<path fill="none" stroke="#191970" d="M478.4781,-234.9188C500.7671,-225.5346 530.3617,-213.4893 557,-204 563.4271,-201.7105 570.1828,-199.4304 576.9372,-197.2313"/>
<polygon fill="#191970" stroke="#191970" points="578.3372,-200.4581 586.7939,-194.0757 576.2029,-193.7914 578.3372,-200.4581"/>
</g>
<!-- Node259 -->
<g id="node20" class="node">
<title>Node259</title>
<g id="a_node20"><a xlink:href="mcp2515_8h.html#abf6deabd483ab3871ab645eaa5a01a71" target="_top" xlink:title="zrtos_vfs_module_mcp2515\l_id__get_length">
<polygon fill="#ffffff" stroke="#000000" points="568.5,-115 568.5,-145 707.5,-145 707.5,-115 568.5,-115"/>
<text text-anchor="start" x="576.5" y="-133" font-family="Helvetica,sans-Serif" font-size="10.00" fill="#000000">zrtos_vfs_module_mcp2515</text>
<text text-anchor="middle" x="638" y="-122" font-family="Helvetica,sans-Serif" font-size="10.00" fill="#000000">_id__get_length</text>
</a>
</g>
</g>
<!-- Node252&#45;&gt;Node259 -->
<g id="edge28" class="edge">
<title>Node252&#45;&gt;Node259</title>
<path fill="none" stroke="#191970" d="M457.8401,-234.6514C478.0822,-213.8261 517.0447,-176.731 557,-155 561.1452,-152.7455 565.5227,-150.6636 570.0092,-148.7463"/>
<polygon fill="#191970" stroke="#191970" points="571.3326,-151.9867 579.3321,-145.0398 568.7465,-145.4819 571.3326,-151.9867"/>
</g>
<!-- Node254 -->
<g id="node15" class="node">
<title>Node254</title>
<g id="a_node15"><a xlink:href="mcp2515_8h.html#a26c81272df128ccf491a5a2ec66e7197" target="_top" xlink:title="zrtos_vfs_module_mcp2515\l__set_mode">
<polygon fill="#ffffff" stroke="#000000" points="755,-304 755,-334 894,-334 894,-304 755,-304"/>
<text text-anchor="start" x="763" y="-322" font-family="Helvetica,sans-Serif" font-size="10.00" fill="#000000">zrtos_vfs_module_mcp2515</text>
<text text-anchor="middle" x="824.5" y="-311" font-family="Helvetica,sans-Serif" font-size="10.00" fill="#000000">__set_mode</text>
</a>
</g>
</g>
<!-- Node253&#45;&gt;Node254 -->
<g id="edge18" class="edge">
<title>Node253&#45;&gt;Node254</title>
<path fill="none" stroke="#191970" d="M707.7109,-317.1214C719.7546,-317.3151 732.3587,-317.5178 744.646,-317.7155"/>
<polygon fill="#191970" stroke="#191970" points="744.8185,-321.2186 754.8735,-317.88 744.9311,-314.2195 744.8185,-321.2186"/>
</g>
<!-- Node254&#45;&gt;Node244 -->
<g id="edge20" class="edge">
<title>Node254&#45;&gt;Node244</title>
<path fill="none" stroke="#191970" d="M889.5374,-303.9678C902.8636,-301.3028 916.8393,-298.8062 930,-297 1111.6987,-272.063 1327.7318,-262.874 1437.5933,-259.6435"/>
<polygon fill="#191970" stroke="#191970" points="1437.9931,-263.1336 1447.8889,-259.3491 1437.7929,-256.1364 1437.9931,-263.1336"/>
</g>
<!-- Node254&#45;&gt;Node250 -->
<g id="edge19" class="edge">
<title>Node254&#45;&gt;Node250</title>
<path fill="none" stroke="#191970" d="M853.7911,-334.064C883.1928,-349.1848 928.642,-372.5588 960.956,-389.1774"/>
<polygon fill="#191970" stroke="#191970" points="959.6197,-392.4259 970.1134,-393.8869 962.8212,-386.2008 959.6197,-392.4259"/>
</g>
<!-- Node255 -->
<g id="node16" class="node">
<title>Node255</title>
<g id="a_node16"><a xlink:href="mcp2515_8h.html#a18c1133ba60ff7ea81147e0a76bb0d44" target="_top" xlink:title="zrtos_vfs_module_mcp2515\l__read_register">
<polygon fill="#ffffff" stroke="#000000" points="930,-306 930,-336 1069,-336 1069,-306 930,-306"/>
<text text-anchor="start" x="938" y="-324" font-family="Helvetica,sans-Serif" font-size="10.00" fill="#000000">zrtos_vfs_module_mcp2515</text>
<text text-anchor="middle" x="999.5" y="-313" font-family="Helvetica,sans-Serif" font-size="10.00" fill="#000000">__read_register</text>
</a>
</g>
</g>
<!-- Node254&#45;&gt;Node255 -->
<g id="edge21" class="edge">
<title>Node254&#45;&gt;Node255</title>
<path fill="none" stroke="#191970" d="M894.1675,-319.7962C902.5024,-319.8915 911.0628,-319.9893 919.5285,-320.086"/>
<polygon fill="#191970" stroke="#191970" points="919.747,-323.5887 929.7863,-320.2033 919.827,-316.5891 919.747,-323.5887"/>
</g>
<!-- Node256 -->
<g id="node17" class="node">
<title>Node256</title>
<g id="a_node17"><a xlink:href="mcp2515_8h.html#af0bd06ab9cb60e9f7a3b5d77ae76057d" target="_top" xlink:title="zrtos_vfs_module_mcp2515\l__read_registers">
<polygon fill="#ffffff" stroke="#000000" points="1105,-306 1105,-336 1244,-336 1244,-306 1105,-306"/>
<text text-anchor="start" x="1113" y="-324" font-family="Helvetica,sans-Serif" font-size="10.00" fill="#000000">zrtos_vfs_module_mcp2515</text>
<text text-anchor="middle" x="1174.5" y="-313" font-family="Helvetica,sans-Serif" font-size="10.00" fill="#000000">__read_registers</text>
</a>
</g>
</g>
<!-- Node255&#45;&gt;Node256 -->
<g id="edge22" class="edge">
<title>Node255&#45;&gt;Node256</title>
<path fill="none" stroke="#191970" d="M1069.1675,-321C1077.5024,-321 1086.0628,-321 1094.5285,-321"/>
<polygon fill="#191970" stroke="#191970" points="1094.7864,-324.5001 1104.7863,-321 1094.7863,-317.5001 1094.7864,-324.5001"/>
</g>
<!-- Node256&#45;&gt;Node241 -->
<g id="edge23" class="edge">
<title>Node256&#45;&gt;Node241</title>
<path fill="none" stroke="#191970" d="M1233.0409,-336.0192C1254.6389,-341.5604 1278.8061,-347.7607 1299.227,-352.9999"/>
<polygon fill="#191970" stroke="#191970" points="1298.3671,-356.3926 1308.9232,-355.4876 1300.1067,-349.6122 1298.3671,-356.3926"/>
</g>
<!-- Node261&#45;&gt;Node252 -->
<g id="edge31" class="edge">
<title>Node261&#45;&gt;Node252</title>
<path fill="none" stroke="#191970" d="M322.2661,-267.1378C335.815,-265.2225 350.1106,-263.2016 363.9467,-261.2458"/>
<polygon fill="#191970" stroke="#191970" points="364.5113,-264.7008 373.923,-259.8355 363.5315,-257.7697 364.5113,-264.7008"/>
</g>
</g>
</svg>
