<?xml version="1.0" encoding="UTF-8" standalone="no"?>
<!DOCTYPE svg PUBLIC "-//W3C//DTD SVG 1.1//EN"
 "http://www.w3.org/Graphics/SVG/1.1/DTD/svg11.dtd">
<!-- Generated by graphviz version 10.0.1 (20240210.2158)
 -->
<!-- Title: zrtos_vfs_module_mcp2515__send_message Pages: 1 -->
<svg width="1127pt" height="420pt"
 viewBox="0.00 0.00 1127.25 420.00" xmlns="http://www.w3.org/2000/svg" xmlns:xlink="http://www.w3.org/1999/xlink">
<g id="graph0" class="graph" transform="scale(1 1) rotate(0) translate(4 416)">
<title>zrtos_vfs_module_mcp2515__send_message</title>
<!-- Node1 -->
<g id="Node000001" class="node">
<title>Node1</title>
<g id="a_Node000001"><a xlink:title=" ">
<polygon fill="#999999" stroke="#666666" points="136,-340 0,-340 0,-308 136,-308 136,-340"/>
<text text-anchor="start" x="8" y="-326.5" font-family="Helvetica,sans-Serif" font-size="10.00">zrtos_vfs_module_mcp2515</text>
<text text-anchor="middle" x="68" y="-314.5" font-family="Helvetica,sans-Serif" font-size="10.00">__send_message</text>
</a>
</g>
</g>
<!-- Node2 -->
<g id="Node000002" class="node">
<title>Node2</title>
<g id="a_Node000002"><a xlink:href="error_8h.html#add13298163f63b7d37ed9f12d57e1a31" target="_top" xlink:title=" ">
<polygon fill="white" stroke="#666666" points="982.5,-290 860,-290 860,-270 982.5,-270 982.5,-290"/>
<text text-anchor="middle" x="921.25" y="-276.5" font-family="Helvetica,sans-Serif" font-size="10.00">zrtos_error__is_success</text>
</a>
</g>
</g>
<!-- Node1&#45;&gt;Node2 -->
<g id="edge1_Node000001_Node000002" class="edge">
<title>Node1&#45;&gt;Node2</title>
<g id="a_edge1_Node000001_Node000002"><a xlink:title=" ">
<path fill="none" stroke="#63b8ff" d="M106.9,-340.45C169.14,-365.92 297.42,-412 411,-412 411,-412 411,-412 585,-412 709.58,-412 843.23,-332.11 896.44,-296.63"/>
<polygon fill="#63b8ff" stroke="#63b8ff" points="898.13,-299.71 904.44,-291.21 894.2,-293.92 898.13,-299.71"/>
</a>
</g>
</g>
<!-- Node3 -->
<g id="Node000003" class="node">
<title>Node3</title>
<g id="a_Node000003"><a xlink:href="mcp2515_8h.html#a24986e730af04abddde2ceb4e4edf5f8" target="_top" xlink:title=" ">
<polygon fill="white" stroke="#666666" points="308,-340 172,-340 172,-308 308,-308 308,-340"/>
<text text-anchor="start" x="180" y="-326.5" font-family="Helvetica,sans-Serif" font-size="10.00">zrtos_vfs_module_mcp2515</text>
<text text-anchor="middle" x="240" y="-314.5" font-family="Helvetica,sans-Serif" font-size="10.00">__get_available_txb</text>
</a>
</g>
</g>
<!-- Node1&#45;&gt;Node3 -->
<g id="edge2_Node000001_Node000003" class="edge">
<title>Node1&#45;&gt;Node3</title>
<g id="a_edge2_Node000001_Node000003"><a xlink:title=" ">
<path fill="none" stroke="#63b8ff" d="M136.19,-324C144.14,-324 152.3,-324 160.39,-324"/>
<polygon fill="#63b8ff" stroke="#63b8ff" points="160.23,-327.5 170.23,-324 160.23,-320.5 160.23,-327.5"/>
</a>
</g>
</g>
<!-- Node10 -->
<g id="Node000010" class="node">
<title>Node10</title>
<g id="a_Node000010"><a xlink:href="mcp2515_8h.html#a4495c08c9700911d34d8e633beb90a7b" target="_top" xlink:title=" ">
<polygon fill="white" stroke="#666666" points="308,-183 172,-183 172,-151 308,-151 308,-183"/>
<text text-anchor="start" x="180" y="-169.5" font-family="Helvetica,sans-Serif" font-size="10.00">zrtos_vfs_module_mcp2515</text>
<text text-anchor="middle" x="240" y="-157.5" font-family="Helvetica,sans-Serif" font-size="10.00">__send_message_ex</text>
</a>
</g>
</g>
<!-- Node1&#45;&gt;Node10 -->
<g id="edge11_Node000001_Node000010" class="edge">
<title>Node1&#45;&gt;Node10</title>
<g id="a_edge11_Node000001_Node000010"><a xlink:title=" ">
<path fill="none" stroke="#63b8ff" d="M86.55,-307.79C116.58,-280.06 177.96,-223.37 212.99,-191.02"/>
<polygon fill="#63b8ff" stroke="#63b8ff" points="215.2,-193.74 220.18,-184.38 210.46,-188.6 215.2,-193.74"/>
</a>
</g>
</g>
<!-- Node3&#45;&gt;Node2 -->
<g id="edge3_Node000003_Node000002" class="edge">
<title>Node3&#45;&gt;Node2</title>
<g id="a_edge3_Node000003_Node000002"><a xlink:title=" ">
<path fill="none" stroke="#63b8ff" d="M308.33,-321.85C389.78,-319.03 531.04,-313.43 652,-305 718.65,-300.36 794.44,-293.11 848.41,-287.61"/>
<polygon fill="#63b8ff" stroke="#63b8ff" points="848.49,-291.12 858.08,-286.62 847.78,-284.16 848.49,-291.12"/>
</a>
</g>
</g>
<!-- Node4 -->
<g id="Node000004" class="node">
<title>Node4</title>
<g id="a_Node000004"><a xlink:href="mcp2515_8h.html#a5c332568587b05952fcb879ef276910f" target="_top" xlink:title=" ">
<polygon fill="white" stroke="#666666" points="480,-384 344,-384 344,-352 480,-352 480,-384"/>
<text text-anchor="start" x="352" y="-370.5" font-family="Helvetica,sans-Serif" font-size="10.00">zrtos_vfs_module_mcp2515</text>
<text text-anchor="middle" x="412" y="-358.5" font-family="Helvetica,sans-Serif" font-size="10.00">__get_txb</text>
</a>
</g>
</g>
<!-- Node3&#45;&gt;Node4 -->
<g id="edge4_Node000003_Node000004" class="edge">
<title>Node3&#45;&gt;Node4</title>
<g id="a_edge4_Node000003_Node000004"><a xlink:title=" ">
<path fill="none" stroke="#63b8ff" d="M304.3,-340.38C314.74,-343.09 325.65,-345.91 336.33,-348.67"/>
<polygon fill="#63b8ff" stroke="#63b8ff" points="335.34,-352.03 345.9,-351.15 337.09,-345.26 335.34,-352.03"/>
</a>
</g>
</g>
<!-- Node5 -->
<g id="Node000005" class="node">
<title>Node5</title>
<g id="a_Node000005"><a xlink:href="mcp2515_8h.html#a18c1133ba60ff7ea81147e0a76bb0d44" target="_top" xlink:title=" ">
<polygon fill="white" stroke="#666666" points="480,-296 344,-296 344,-264 480,-264 480,-296"/>
<text text-anchor="start" x="352" y="-282.5" font-family="Helvetica,sans-Serif" font-size="10.00">zrtos_vfs_module_mcp2515</text>
<text text-anchor="middle" x="412" y="-270.5" font-family="Helvetica,sans-Serif" font-size="10.00">__read_register</text>
</a>
</g>
</g>
<!-- Node3&#45;&gt;Node5 -->
<g id="edge5_Node000003_Node000005" class="edge">
<title>Node3&#45;&gt;Node5</title>
<g id="a_edge5_Node000003_Node000005"><a xlink:title=" ">
<path fill="none" stroke="#63b8ff" d="M304.3,-307.62C314.74,-304.91 325.65,-302.09 336.33,-299.33"/>
<polygon fill="#63b8ff" stroke="#63b8ff" points="337.09,-302.74 345.9,-296.85 335.34,-295.97 337.09,-302.74"/>
</a>
</g>
</g>
<!-- Node6 -->
<g id="Node000006" class="node">
<title>Node6</title>
<g id="a_Node000006"><a xlink:href="mcp2515_8h.html#af0bd06ab9cb60e9f7a3b5d77ae76057d" target="_top" xlink:title=" ">
<polygon fill="white" stroke="#666666" points="652,-296 516,-296 516,-264 652,-264 652,-296"/>
<text text-anchor="start" x="524" y="-282.5" font-family="Helvetica,sans-Serif" font-size="10.00">zrtos_vfs_module_mcp2515</text>
<text text-anchor="middle" x="584" y="-270.5" font-family="Helvetica,sans-Serif" font-size="10.00">__read_registers</text>
</a>
</g>
</g>
<!-- Node5&#45;&gt;Node6 -->
<g id="edge6_Node000005_Node000006" class="edge">
<title>Node5&#45;&gt;Node6</title>
<g id="a_edge6_Node000005_Node000006"><a xlink:title=" ">
<path fill="none" stroke="#63b8ff" d="M480.19,-280C488.14,-280 496.3,-280 504.39,-280"/>
<polygon fill="#63b8ff" stroke="#63b8ff" points="504.23,-283.5 514.23,-280 504.23,-276.5 504.23,-283.5"/>
</a>
</g>
</g>
<!-- Node7 -->
<g id="Node000007" class="node">
<title>Node7</title>
<g id="a_Node000007"><a xlink:href="mcp2515_8h.html#a757cc129737831c901694878ce1acba1" target="_top" xlink:title=" ">
<polygon fill="white" stroke="#666666" points="824,-198 688,-198 688,-166 824,-166 824,-198"/>
<text text-anchor="start" x="696" y="-184.5" font-family="Helvetica,sans-Serif" font-size="10.00">zrtos_vfs_module_mcp2515</text>
<text text-anchor="middle" x="756" y="-172.5" font-family="Helvetica,sans-Serif" font-size="10.00">__spi_transfer</text>
</a>
</g>
</g>
<!-- Node6&#45;&gt;Node7 -->
<g id="edge7_Node000006_Node000007" class="edge">
<title>Node6&#45;&gt;Node7</title>
<g id="a_edge7_Node000006_Node000007"><a xlink:title=" ">
<path fill="none" stroke="#63b8ff" d="M613.45,-263.6C641.77,-247.27 685.41,-222.12 716.75,-204.05"/>
<polygon fill="#63b8ff" stroke="#63b8ff" points="718.23,-207.24 725.14,-199.21 714.73,-201.17 718.23,-207.24"/>
</a>
</g>
</g>
<!-- Node7&#45;&gt;Node2 -->
<g id="edge8_Node000007_Node000002" class="edge">
<title>Node7&#45;&gt;Node2</title>
<g id="a_edge8_Node000007_Node000002"><a xlink:title=" ">
<path fill="none" stroke="#63b8ff" d="M784.4,-198.32C796.54,-205.56 810.99,-214.2 824,-222 847.4,-236.04 873.96,-252.05 893.24,-263.69"/>
<polygon fill="#63b8ff" stroke="#63b8ff" points="891.21,-266.55 901.58,-268.72 894.83,-260.55 891.21,-266.55"/>
</a>
</g>
</g>
<!-- Node8 -->
<g id="Node000008" class="node">
<title>Node8</title>
<g id="a_Node000008"><a xlink:href="vfs__fd_8h.html#a1c176ae3990492b9deae02682a6782e1" target="_top" xlink:title=" ">
<polygon fill="white" stroke="#666666" points="969.38,-192 873.12,-192 873.12,-172 969.38,-172 969.38,-192"/>
<text text-anchor="middle" x="921.25" y="-178.5" font-family="Helvetica,sans-Serif" font-size="10.00">zrtos_vfs_fd__read</text>
</a>
</g>
</g>
<!-- Node7&#45;&gt;Node8 -->
<g id="edge9_Node000007_Node000008" class="edge">
<title>Node7&#45;&gt;Node8</title>
<g id="a_edge9_Node000007_Node000008"><a xlink:title=" ">
<path fill="none" stroke="#63b8ff" d="M824.34,-182C836.72,-182 849.55,-182 861.65,-182"/>
<polygon fill="#63b8ff" stroke="#63b8ff" points="861.47,-185.5 871.47,-182 861.47,-178.5 861.47,-185.5"/>
</a>
</g>
</g>
<!-- Node9 -->
<g id="Node000009" class="node">
<title>Node9</title>
<g id="a_Node000009"><a xlink:href="vfs__file_8h.html#a27e4ed3d3306da0eaccc004eebc8d3c4" target="_top" xlink:title=" ">
<polygon fill="white" stroke="#666666" points="1119.25,-192 1018.5,-192 1018.5,-172 1119.25,-172 1119.25,-192"/>
<text text-anchor="middle" x="1068.88" y="-178.5" font-family="Helvetica,sans-Serif" font-size="10.00">zrtos_vfs_file__read</text>
</a>
</g>
</g>
<!-- Node8&#45;&gt;Node9 -->
<g id="edge10_Node000008_Node000009" class="edge">
<title>Node8&#45;&gt;Node9</title>
<g id="a_edge10_Node000008_Node000009"><a xlink:title=" ">
<path fill="none" stroke="#63b8ff" d="M969.53,-182C981.42,-182 994.35,-182 1006.81,-182"/>
<polygon fill="#63b8ff" stroke="#63b8ff" points="1006.56,-185.5 1016.56,-182 1006.56,-178.5 1006.56,-185.5"/>
</a>
</g>
</g>
<!-- Node10&#45;&gt;Node2 -->
<g id="edge12_Node000010_Node000002" class="edge">
<title>Node10&#45;&gt;Node2</title>
<g id="a_edge12_Node000010_Node000002"><a xlink:title=" ">
<path fill="none" stroke="#63b8ff" d="M267.95,-183.27C288.15,-194.66 316.88,-209.19 344,-217 391.43,-230.66 704.6,-260.38 848.35,-273.53"/>
<polygon fill="#63b8ff" stroke="#63b8ff" points="847.86,-277 858.14,-274.42 848.5,-270.03 847.86,-277"/>
</a>
</g>
</g>
<!-- Node10&#45;&gt;Node5 -->
<g id="edge15_Node000010_Node000005" class="edge">
<title>Node10&#45;&gt;Node5</title>
<g id="a_edge15_Node000010_Node000005"><a xlink:title=" ">
<path fill="none" stroke="#63b8ff" d="M258.19,-183.18C277.83,-201.1 311.49,-230.09 344,-250 348.9,-253 354.15,-255.88 359.48,-258.58"/>
<polygon fill="#63b8ff" stroke="#63b8ff" points="357.86,-261.68 368.39,-262.88 360.91,-255.38 357.86,-261.68"/>
</a>
</g>
</g>
<!-- Node11 -->
<g id="Node000011" class="node">
<title>Node11</title>
<g id="a_Node000011"><a xlink:href="mcp2515_8h.html#aefa30fb59e86697b8523673b355f6a3c" target="_top" xlink:title=" ">
<polygon fill="white" stroke="#666666" points="652,-178 516,-178 516,-146 652,-146 652,-178"/>
<text text-anchor="start" x="524" y="-164.5" font-family="Helvetica,sans-Serif" font-size="10.00">zrtos_vfs_module_mcp2515</text>
<text text-anchor="middle" x="584" y="-152.5" font-family="Helvetica,sans-Serif" font-size="10.00">__modify_register</text>
</a>
</g>
</g>
<!-- Node10&#45;&gt;Node11 -->
<g id="edge13_Node000010_Node000011" class="edge">
<title>Node10&#45;&gt;Node11</title>
<g id="a_edge13_Node000010_Node000011"><a xlink:title=" ">
<path fill="none" stroke="#63b8ff" d="M266.46,-150.59C286.6,-138.64 315.91,-123.46 344,-117 402.91,-103.46 420.83,-104.64 480,-117 502.14,-121.63 525.34,-131.29 544.11,-140.47"/>
<polygon fill="#63b8ff" stroke="#63b8ff" points="542.47,-143.57 552.97,-144.96 545.63,-137.32 542.47,-143.57"/>
</a>
</g>
</g>
<!-- Node12 -->
<g id="Node000012" class="node">
<title>Node12</title>
<g id="a_Node000012"><a xlink:href="mcp2515_8h.html#a267ca18d5b51831eabb3776665d9400c" target="_top" xlink:title=" ">
<polygon fill="white" stroke="#666666" points="652,-87 516,-87 516,-55 652,-55 652,-87"/>
<text text-anchor="start" x="524" y="-73.5" font-family="Helvetica,sans-Serif" font-size="10.00">zrtos_vfs_module_mcp2515</text>
<text text-anchor="middle" x="584" y="-61.5" font-family="Helvetica,sans-Serif" font-size="10.00">__set_registers</text>
</a>
</g>
</g>
<!-- Node10&#45;&gt;Node12 -->
<g id="edge16_Node000010_Node000012" class="edge">
<title>Node10&#45;&gt;Node12</title>
<g id="a_edge16_Node000010_Node000012"><a xlink:title=" ">
<path fill="none" stroke="#63b8ff" d="M261.34,-150.7C281.2,-135.71 312.89,-114.16 344,-103 395.42,-84.55 456.51,-76.59 504.06,-73.23"/>
<polygon fill="#63b8ff" stroke="#63b8ff" points="504.27,-76.72 514.03,-72.58 503.82,-69.74 504.27,-76.72"/>
</a>
</g>
</g>
<!-- Node13 -->
<g id="Node000013" class="node">
<title>Node13</title>
<g id="a_Node000013"><a xlink:href="mcp2515_8h.html#a69cd48b21930f35db7c85193d6e06ed8" target="_top" xlink:title=" ">
<polygon fill="white" stroke="#666666" points="480,-32 344,-32 344,0 480,0 480,-32"/>
<text text-anchor="start" x="352" y="-18.5" font-family="Helvetica,sans-Serif" font-size="10.00">zrtos_vfs_module_mcp2515</text>
<text text-anchor="middle" x="412" y="-6.5" font-family="Helvetica,sans-Serif" font-size="10.00">_id__get_buffer</text>
</a>
</g>
</g>
<!-- Node10&#45;&gt;Node13 -->
<g id="edge18_Node000010_Node000013" class="edge">
<title>Node10&#45;&gt;Node13</title>
<g id="a_edge18_Node000010_Node000013"><a xlink:title=" ">
<path fill="none" stroke="#63b8ff" d="M251.22,-150.9C267.94,-125.64 303.39,-76.45 344,-46 348.01,-42.99 352.37,-40.2 356.87,-37.64"/>
<polygon fill="#63b8ff" stroke="#63b8ff" points="358.33,-40.82 365.55,-33.07 355.07,-34.63 358.33,-40.82"/>
</a>
</g>
</g>
<!-- Node14 -->
<g id="Node000014" class="node">
<title>Node14</title>
<g id="a_Node000014"><a xlink:href="mcp2515_8h.html#abf6deabd483ab3871ab645eaa5a01a71" target="_top" xlink:title=" ">
<polygon fill="white" stroke="#666666" points="480,-208 344,-208 344,-176 480,-176 480,-208"/>
<text text-anchor="start" x="352" y="-194.5" font-family="Helvetica,sans-Serif" font-size="10.00">zrtos_vfs_module_mcp2515</text>
<text text-anchor="middle" x="412" y="-182.5" font-family="Helvetica,sans-Serif" font-size="10.00">_id__get_length</text>
</a>
</g>
</g>
<!-- Node10&#45;&gt;Node14 -->
<g id="edge19_Node000010_Node000014" class="edge">
<title>Node10&#45;&gt;Node14</title>
<g id="a_edge19_Node000010_Node000014"><a xlink:title=" ">
<path fill="none" stroke="#63b8ff" d="M308.19,-176.88C316.14,-178.05 324.3,-179.25 332.39,-180.44"/>
<polygon fill="#63b8ff" stroke="#63b8ff" points="331.84,-183.9 342.25,-181.89 332.86,-176.97 331.84,-183.9"/>
</a>
</g>
</g>
<!-- Node15 -->
<g id="Node000015" class="node">
<title>Node15</title>
<g id="a_Node000015"><a xlink:href="mcp2515_8h.html#a0fd75d12604ca1a638fbdabe5fce093e" target="_top" xlink:title=" ">
<polygon fill="white" stroke="#666666" points="480,-158 344,-158 344,-126 480,-126 480,-158"/>
<text text-anchor="start" x="352" y="-144.5" font-family="Helvetica,sans-Serif" font-size="10.00">zrtos_vfs_module_mcp2515</text>
<text text-anchor="middle" x="412" y="-132.5" font-family="Helvetica,sans-Serif" font-size="10.00">_id__init</text>
</a>
</g>
</g>
<!-- Node10&#45;&gt;Node15 -->
<g id="edge20_Node000010_Node000015" class="edge">
<title>Node10&#45;&gt;Node15</title>
<g id="a_edge20_Node000010_Node000015"><a xlink:title=" ">
<path fill="none" stroke="#63b8ff" d="M308.19,-157.12C316.14,-155.95 324.3,-154.75 332.39,-153.56"/>
<polygon fill="#63b8ff" stroke="#63b8ff" points="332.86,-157.03 342.25,-152.11 331.84,-150.1 332.86,-157.03"/>
</a>
</g>
</g>
<!-- Node11&#45;&gt;Node7 -->
<g id="edge14_Node000011_Node000007" class="edge">
<title>Node11&#45;&gt;Node7</title>
<g id="a_edge14_Node000011_Node000007"><a xlink:title=" ">
<path fill="none" stroke="#63b8ff" d="M652.19,-169.9C660.14,-170.84 668.3,-171.8 676.39,-172.75"/>
<polygon fill="#63b8ff" stroke="#63b8ff" points="675.9,-176.22 686.24,-173.91 676.72,-169.27 675.9,-176.22"/>
</a>
</g>
</g>
<!-- Node12&#45;&gt;Node7 -->
<g id="edge17_Node000012_Node000007" class="edge">
<title>Node12&#45;&gt;Node7</title>
<g id="a_edge17_Node000012_Node000007"><a xlink:title=" ">
<path fill="none" stroke="#63b8ff" d="M610.08,-87.38C639.21,-106.4 687.44,-137.89 720.19,-159.27"/>
<polygon fill="#63b8ff" stroke="#63b8ff" points="718.26,-162.19 728.55,-164.73 722.09,-156.33 718.26,-162.19"/>
</a>
</g>
</g>
</g>
</svg>
