<?xml version="1.0" encoding="UTF-8" standalone="no"?>
<!DOCTYPE svg PUBLIC "-//W3C//DTD SVG 1.1//EN"
 "http://www.w3.org/Graphics/SVG/1.1/DTD/svg11.dtd">
<!-- Generated by graphviz version 10.0.1 (20240210.2158)
 -->
<!-- Title: zrtos_vfs_module_mcp2515__set_register Pages: 1 -->
<svg width="488pt" height="140pt"
 viewBox="0.00 0.00 488.00 140.00" xmlns="http://www.w3.org/2000/svg" xmlns:xlink="http://www.w3.org/1999/xlink">
<g id="graph0" class="graph" transform="scale(1 1) rotate(0) translate(4 136)">
<title>zrtos_vfs_module_mcp2515__set_register</title>
<!-- Node1 -->
<g id="Node000001" class="node">
<title>Node1</title>
<g id="a_Node000001"><a xlink:title=" ">
<polygon fill="#999999" stroke="#666666" points="480,-82 344,-82 344,-50 480,-50 480,-82"/>
<text text-anchor="start" x="352" y="-68.5" font-family="Helvetica,sans-Serif" font-size="10.00">zrtos_vfs_module_mcp2515</text>
<text text-anchor="middle" x="412" y="-56.5" font-family="Helvetica,sans-Serif" font-size="10.00">__set_register</text>
</a>
</g>
</g>
<!-- Node2 -->
<g id="Node000002" class="node">
<title>Node2</title>
<g id="a_Node000002"><a xlink:href="mcp2515_8h.html#aefab00a666fb26f7e2a83f4b92cc32cc" target="_top" xlink:title=" ">
<polygon fill="white" stroke="#666666" points="308,-132 172,-132 172,-100 308,-100 308,-132"/>
<text text-anchor="start" x="180" y="-118.5" font-family="Helvetica,sans-Serif" font-size="10.00">zrtos_vfs_module_mcp2515</text>
<text text-anchor="middle" x="240" y="-106.5" font-family="Helvetica,sans-Serif" font-size="10.00">__clear_interrupts</text>
</a>
</g>
</g>
<!-- Node1&#45;&gt;Node2 -->
<g id="edge1_Node000001_Node000002" class="edge">
<title>Node1&#45;&gt;Node2</title>
<g id="a_edge1_Node000001_Node000002"><a xlink:title=" ">
<path fill="none" stroke="#63b8ff" d="M344.62,-85.52C328.9,-90.15 312.29,-95.03 297.08,-99.51"/>
<polygon fill="#63b8ff" stroke="#63b8ff" points="345.28,-88.98 353.88,-82.8 343.3,-82.26 345.28,-88.98"/>
</a>
</g>
</g>
<!-- Node4 -->
<g id="Node000004" class="node">
<title>Node4</title>
<g id="a_Node000004"><a xlink:href="mcp2515_8h.html#a46894ab0a30cb5e4d67fa6672327158c" target="_top" xlink:title=" ">
<polygon fill="white" stroke="#666666" points="308,-82 172,-82 172,-50 308,-50 308,-82"/>
<text text-anchor="start" x="180" y="-68.5" font-family="Helvetica,sans-Serif" font-size="10.00">zrtos_vfs_module_mcp2515</text>
<text text-anchor="middle" x="240" y="-56.5" font-family="Helvetica,sans-Serif" font-size="10.00">__reset</text>
</a>
</g>
</g>
<!-- Node1&#45;&gt;Node4 -->
<g id="edge3_Node000001_Node000004" class="edge">
<title>Node1&#45;&gt;Node4</title>
<g id="a_edge3_Node000001_Node000004"><a xlink:title=" ">
<path fill="none" stroke="#63b8ff" d="M332.46,-66C324.37,-66 316.21,-66 308.26,-66"/>
<polygon fill="#63b8ff" stroke="#63b8ff" points="332.3,-69.5 342.3,-66 332.3,-62.5 332.3,-69.5"/>
</a>
</g>
</g>
<!-- Node5 -->
<g id="Node000005" class="node">
<title>Node5</title>
<g id="a_Node000005"><a xlink:href="mcp2515_8h.html#a180ecb3193b7334b800951d74b3f591f" target="_top" xlink:title=" ">
<polygon fill="white" stroke="#666666" points="308,-32 172,-32 172,0 308,0 308,-32"/>
<text text-anchor="start" x="180" y="-18.5" font-family="Helvetica,sans-Serif" font-size="10.00">zrtos_vfs_module_mcp2515</text>
<text text-anchor="middle" x="240" y="-6.5" font-family="Helvetica,sans-Serif" font-size="10.00">__set_bitrate</text>
</a>
</g>
</g>
<!-- Node1&#45;&gt;Node5 -->
<g id="edge4_Node000001_Node000005" class="edge">
<title>Node1&#45;&gt;Node5</title>
<g id="a_edge4_Node000001_Node000005"><a xlink:title=" ">
<path fill="none" stroke="#63b8ff" d="M344.62,-46.48C328.9,-41.85 312.29,-36.97 297.08,-32.49"/>
<polygon fill="#63b8ff" stroke="#63b8ff" points="343.3,-49.74 353.88,-49.2 345.28,-43.02 343.3,-49.74"/>
</a>
</g>
</g>
<!-- Node3 -->
<g id="Node000003" class="node">
<title>Node3</title>
<g id="a_Node000003"><a xlink:href="mcp2515_8h.html#a0efa06269912d6ba6c23a5fbbea49150" target="_top" xlink:title=" ">
<polygon fill="white" stroke="#666666" points="136,-132 0,-132 0,-100 136,-100 136,-132"/>
<text text-anchor="start" x="8" y="-118.5" font-family="Helvetica,sans-Serif" font-size="10.00">zrtos_vfs_module_mcp2515</text>
<text text-anchor="middle" x="68" y="-106.5" font-family="Helvetica,sans-Serif" font-size="10.00">__clear_rx_and_ovr</text>
</a>
</g>
</g>
<!-- Node2&#45;&gt;Node3 -->
<g id="edge2_Node000002_Node000003" class="edge">
<title>Node2&#45;&gt;Node3</title>
<g id="a_edge2_Node000002_Node000003"><a xlink:title=" ">
<path fill="none" stroke="#63b8ff" d="M160.46,-116C152.37,-116 144.21,-116 136.26,-116"/>
<polygon fill="#63b8ff" stroke="#63b8ff" points="160.3,-119.5 170.3,-116 160.3,-112.5 160.3,-119.5"/>
</a>
</g>
</g>
</g>
</svg>
