<?xml version="1.0" encoding="UTF-8" standalone="no"?>
<!DOCTYPE svg PUBLIC "-//W3C//DTD SVG 1.1//EN"
 "http://www.w3.org/Graphics/SVG/1.1/DTD/svg11.dtd">
<!-- Generated by graphviz version 2.40.1 (20161225.0304)
 -->
<!-- Title: zrtos_vfs_module_mcp2515__set_bitrate Pages: 1 -->
<svg width="1314pt" height="292pt"
 viewBox="0.00 0.00 1314.00 291.50" xmlns="http://www.w3.org/2000/svg" xmlns:xlink="http://www.w3.org/1999/xlink">
<g id="graph0" class="graph" transform="scale(1 1) rotate(0) translate(4 287.5)">
<title>zrtos_vfs_module_mcp2515__set_bitrate</title>
<polygon fill="#ffffff" stroke="transparent" points="-4,4 -4,-287.5 1310,-287.5 1310,4 -4,4"/>
<!-- Node293 -->
<g id="node1" class="node">
<title>Node293</title>
<polygon fill="#bfbfbf" stroke="#000000" points="0,-120.5 0,-150.5 139,-150.5 139,-120.5 0,-120.5"/>
<text text-anchor="start" x="8" y="-138.5" font-family="Helvetica,sans-Serif" font-size="10.00" fill="#000000">zrtos_vfs_module_mcp2515</text>
<text text-anchor="middle" x="69.5" y="-127.5" font-family="Helvetica,sans-Serif" font-size="10.00" fill="#000000">__set_bitrate</text>
</g>
<!-- Node294 -->
<g id="node2" class="node">
<title>Node294</title>
<g id="a_node2"><a xlink:href="error_8h.html#add13298163f63b7d37ed9f12d57e1a31" target="_top" xlink:title="zrtos_error__is_success">
<polygon fill="#ffffff" stroke="#000000" points="1043,-236 1043,-255 1166,-255 1166,-236 1043,-236"/>
<text text-anchor="middle" x="1104.5" y="-243" font-family="Helvetica,sans-Serif" font-size="10.00" fill="#000000">zrtos_error__is_success</text>
</a>
</g>
</g>
<!-- Node293&#45;&gt;Node294 -->
<g id="edge1" class="edge">
<title>Node293&#45;&gt;Node294</title>
<path fill="none" stroke="#191970" d="M82.5367,-150.6057C101.0126,-171.022 136.8367,-207.0956 175,-226.5 274.462,-277.072 307.9194,-283.5 419.5,-283.5 419.5,-283.5 419.5,-283.5 769.5,-283.5 865.3996,-283.5 975.7631,-267.9353 1042.7966,-256.7287"/>
<polygon fill="#191970" stroke="#191970" points="1043.4944,-260.1604 1052.7697,-255.04 1042.3257,-253.2587 1043.4944,-260.1604"/>
</g>
<!-- Node295 -->
<g id="node3" class="node">
<title>Node295</title>
<g id="a_node3"><a xlink:href="mcp2515_8h.html#a414b60a917d62f474195a1208159b461" target="_top" xlink:title="zrtos_vfs_module_mcp2515\l__set_config_mode">
<polygon fill="#ffffff" stroke="#000000" points="175,-186.5 175,-216.5 314,-216.5 314,-186.5 175,-186.5"/>
<text text-anchor="start" x="183" y="-204.5" font-family="Helvetica,sans-Serif" font-size="10.00" fill="#000000">zrtos_vfs_module_mcp2515</text>
<text text-anchor="middle" x="244.5" y="-193.5" font-family="Helvetica,sans-Serif" font-size="10.00" fill="#000000">__set_config_mode</text>
</a>
</g>
</g>
<!-- Node293&#45;&gt;Node295 -->
<g id="edge2" class="edge">
<title>Node293&#45;&gt;Node295</title>
<path fill="none" stroke="#191970" d="M109.6485,-150.6417C134.9927,-160.2001 167.9215,-172.6189 194.8951,-182.7919"/>
<polygon fill="#191970" stroke="#191970" points="193.9465,-186.1747 204.5383,-186.4287 196.4167,-179.625 193.9465,-186.1747"/>
</g>
<!-- Node303 -->
<g id="node11" class="node">
<title>Node303</title>
<g id="a_node11"><a xlink:href="mcp2515_8h.html#ac322ac78e5668f59b86ba8744900b5a1" target="_top" xlink:title="zrtos_vfs_module_mcp2515\l__set_register">
<polygon fill="#ffffff" stroke="#000000" points="350,-115.5 350,-145.5 489,-145.5 489,-115.5 350,-115.5"/>
<text text-anchor="start" x="358" y="-133.5" font-family="Helvetica,sans-Serif" font-size="10.00" fill="#000000">zrtos_vfs_module_mcp2515</text>
<text text-anchor="middle" x="419.5" y="-122.5" font-family="Helvetica,sans-Serif" font-size="10.00" fill="#000000">__set_register</text>
</a>
</g>
</g>
<!-- Node293&#45;&gt;Node303 -->
<g id="edge13" class="edge">
<title>Node293&#45;&gt;Node303</title>
<path fill="none" stroke="#191970" d="M139.0761,-137.596C188.0134,-138.6967 255.0278,-139.4543 314,-137.5 322.3074,-137.2247 330.9767,-136.8278 339.6199,-136.3609"/>
<polygon fill="#191970" stroke="#191970" points="339.9469,-139.848 349.7312,-135.7837 339.5479,-132.8594 339.9469,-139.848"/>
</g>
<!-- Node305 -->
<g id="node13" class="node">
<title>Node305</title>
<g id="a_node13"><a xlink:href="mcp2515_8h.html#a6e13d4d518c37254ffe1c2105864f3fa" target="_top" xlink:title="zrtos_vfs_module_mcp2515\l_bitrate__get_cfg1">
<polygon fill="#ffffff" stroke="#000000" points="175,-98.5 175,-128.5 314,-128.5 314,-98.5 175,-98.5"/>
<text text-anchor="start" x="183" y="-116.5" font-family="Helvetica,sans-Serif" font-size="10.00" fill="#000000">zrtos_vfs_module_mcp2515</text>
<text text-anchor="middle" x="244.5" y="-105.5" font-family="Helvetica,sans-Serif" font-size="10.00" fill="#000000">_bitrate__get_cfg1</text>
</a>
</g>
</g>
<!-- Node293&#45;&gt;Node305 -->
<g id="edge16" class="edge">
<title>Node293&#45;&gt;Node305</title>
<path fill="none" stroke="#191970" d="M139.1675,-126.7418C147.594,-125.6825 156.251,-124.5942 164.8076,-123.5185"/>
<polygon fill="#191970" stroke="#191970" points="165.301,-126.9841 174.7863,-122.264 164.4278,-120.0387 165.301,-126.9841"/>
</g>
<!-- Node306 -->
<g id="node14" class="node">
<title>Node306</title>
<g id="a_node14"><a xlink:href="mcp2515_8h.html#a172f5d5a3835d1bb28a2067b83f02a45" target="_top" xlink:title="zrtos_vfs_module_mcp2515\l_bitrate__get_cfg2">
<polygon fill="#ffffff" stroke="#000000" points="175,-49.5 175,-79.5 314,-79.5 314,-49.5 175,-49.5"/>
<text text-anchor="start" x="183" y="-67.5" font-family="Helvetica,sans-Serif" font-size="10.00" fill="#000000">zrtos_vfs_module_mcp2515</text>
<text text-anchor="middle" x="244.5" y="-56.5" font-family="Helvetica,sans-Serif" font-size="10.00" fill="#000000">_bitrate__get_cfg2</text>
</a>
</g>
</g>
<!-- Node293&#45;&gt;Node306 -->
<g id="edge17" class="edge">
<title>Node293&#45;&gt;Node306</title>
<path fill="none" stroke="#191970" d="M101.5146,-120.37C122.2723,-110.7765 150.0063,-98.3614 175,-88.5 179.7033,-86.6443 184.615,-84.7883 189.558,-82.9765"/>
<polygon fill="#191970" stroke="#191970" points="190.8316,-86.2379 199.0557,-79.5585 188.4613,-79.6515 190.8316,-86.2379"/>
</g>
<!-- Node307 -->
<g id="node15" class="node">
<title>Node307</title>
<g id="a_node15"><a xlink:href="mcp2515_8h.html#a4d6330f5a7697ce27e5f5b2a3b48395b" target="_top" xlink:title="zrtos_vfs_module_mcp2515\l_bitrate__get_cfg3">
<polygon fill="#ffffff" stroke="#000000" points="175,-.5 175,-30.5 314,-30.5 314,-.5 175,-.5"/>
<text text-anchor="start" x="183" y="-18.5" font-family="Helvetica,sans-Serif" font-size="10.00" fill="#000000">zrtos_vfs_module_mcp2515</text>
<text text-anchor="middle" x="244.5" y="-7.5" font-family="Helvetica,sans-Serif" font-size="10.00" fill="#000000">_bitrate__get_cfg3</text>
</a>
</g>
</g>
<!-- Node293&#45;&gt;Node307 -->
<g id="edge18" class="edge">
<title>Node293&#45;&gt;Node307</title>
<path fill="none" stroke="#191970" d="M82.3554,-120.4577C100.8926,-99.6161 137.0884,-61.9887 175,-39.5 177.7996,-37.8393 180.7311,-36.2713 183.7403,-34.7941"/>
<polygon fill="#191970" stroke="#191970" points="185.2767,-37.9406 192.9475,-30.6324 182.3935,-31.562 185.2767,-37.9406"/>
</g>
<!-- Node296 -->
<g id="node4" class="node">
<title>Node296</title>
<g id="a_node4"><a xlink:href="mcp2515_8h.html#a26c81272df128ccf491a5a2ec66e7197" target="_top" xlink:title="zrtos_vfs_module_mcp2515\l__set_mode">
<polygon fill="#ffffff" stroke="#000000" points="350,-186.5 350,-216.5 489,-216.5 489,-186.5 350,-186.5"/>
<text text-anchor="start" x="358" y="-204.5" font-family="Helvetica,sans-Serif" font-size="10.00" fill="#000000">zrtos_vfs_module_mcp2515</text>
<text text-anchor="middle" x="419.5" y="-193.5" font-family="Helvetica,sans-Serif" font-size="10.00" fill="#000000">__set_mode</text>
</a>
</g>
</g>
<!-- Node295&#45;&gt;Node296 -->
<g id="edge3" class="edge">
<title>Node295&#45;&gt;Node296</title>
<path fill="none" stroke="#191970" d="M314.1675,-201.5C322.5024,-201.5 331.0628,-201.5 339.5285,-201.5"/>
<polygon fill="#191970" stroke="#191970" points="339.7864,-205.0001 349.7863,-201.5 339.7863,-198.0001 339.7864,-205.0001"/>
</g>
<!-- Node296&#45;&gt;Node294 -->
<g id="edge9" class="edge">
<title>Node296&#45;&gt;Node294</title>
<path fill="none" stroke="#191970" d="M489.2228,-211.4445C501.1425,-212.9462 513.4149,-214.3686 525,-215.5 707.1226,-233.2863 922.5433,-240.9358 1032.3224,-243.879"/>
<polygon fill="#191970" stroke="#191970" points="1032.5233,-247.3854 1042.6118,-244.1493 1032.7072,-240.3878 1032.5233,-247.3854"/>
</g>
<!-- Node297 -->
<g id="node5" class="node">
<title>Node297</title>
<g id="a_node5"><a xlink:href="mcp2515_8h.html#aefa30fb59e86697b8523673b355f6a3c" target="_top" xlink:title="zrtos_vfs_module_mcp2515\l__modify_register">
<polygon fill="#ffffff" stroke="#000000" points="700,-186.5 700,-216.5 839,-216.5 839,-186.5 700,-186.5"/>
<text text-anchor="start" x="708" y="-204.5" font-family="Helvetica,sans-Serif" font-size="10.00" fill="#000000">zrtos_vfs_module_mcp2515</text>
<text text-anchor="middle" x="769.5" y="-193.5" font-family="Helvetica,sans-Serif" font-size="10.00" fill="#000000">__modify_register</text>
</a>
</g>
</g>
<!-- Node296&#45;&gt;Node297 -->
<g id="edge4" class="edge">
<title>Node296&#45;&gt;Node297</title>
<path fill="none" stroke="#191970" d="M489.0672,-201.5C546.8284,-201.5 629.0211,-201.5 689.4966,-201.5"/>
<polygon fill="#191970" stroke="#191970" points="689.7655,-205.0001 699.7654,-201.5 689.7654,-198.0001 689.7655,-205.0001"/>
</g>
<!-- Node301 -->
<g id="node9" class="node">
<title>Node301</title>
<g id="a_node9"><a xlink:href="mcp2515_8h.html#a18c1133ba60ff7ea81147e0a76bb0d44" target="_top" xlink:title="zrtos_vfs_module_mcp2515\l__read_register">
<polygon fill="#ffffff" stroke="#000000" points="525,-142.5 525,-172.5 664,-172.5 664,-142.5 525,-142.5"/>
<text text-anchor="start" x="533" y="-160.5" font-family="Helvetica,sans-Serif" font-size="10.00" fill="#000000">zrtos_vfs_module_mcp2515</text>
<text text-anchor="middle" x="594.5" y="-149.5" font-family="Helvetica,sans-Serif" font-size="10.00" fill="#000000">__read_register</text>
</a>
</g>
</g>
<!-- Node296&#45;&gt;Node301 -->
<g id="edge10" class="edge">
<title>Node296&#45;&gt;Node301</title>
<path fill="none" stroke="#191970" d="M479.2356,-186.4808C493.9372,-182.7844 509.8053,-178.7947 524.9271,-174.9926"/>
<polygon fill="#191970" stroke="#191970" points="525.892,-178.359 534.7367,-172.5262 524.1851,-171.5703 525.892,-178.359"/>
</g>
<!-- Node298 -->
<g id="node6" class="node">
<title>Node298</title>
<g id="a_node6"><a xlink:href="vfs__fd_8h.html#a1e3e2241dc54e1283f012b7ecc641053" target="_top" xlink:title="zrtos_vfs_fd__spi_transfer">
<polygon fill="#ffffff" stroke="#000000" points="875,-167 875,-186 1007,-186 1007,-167 875,-167"/>
<text text-anchor="middle" x="941" y="-174" font-family="Helvetica,sans-Serif" font-size="10.00" fill="#000000">zrtos_vfs_fd__spi_transfer</text>
</a>
</g>
</g>
<!-- Node297&#45;&gt;Node298 -->
<g id="edge5" class="edge">
<title>Node297&#45;&gt;Node298</title>
<path fill="none" stroke="#191970" d="M839.2556,-191.3315C847.9206,-190.0684 856.8115,-188.7724 865.5573,-187.4975"/>
<polygon fill="#191970" stroke="#191970" points="866.3446,-190.9198 875.7352,-186.0138 865.3348,-183.993 866.3446,-190.9198"/>
</g>
<!-- Node298&#45;&gt;Node294 -->
<g id="edge8" class="edge">
<title>Node298&#45;&gt;Node294</title>
<path fill="none" stroke="#191970" d="M963.734,-186.0942C992.0426,-198.0409 1040.5677,-218.5194 1072.5912,-232.0339"/>
<polygon fill="#191970" stroke="#191970" points="1071.3851,-235.3238 1081.9591,-235.9873 1074.1068,-228.8745 1071.3851,-235.3238"/>
</g>
<!-- Node299 -->
<g id="node7" class="node">
<title>Node299</title>
<g id="a_node7"><a xlink:href="vfs__fd_8h.html#a1c176ae3990492b9deae02682a6782e1" target="_top" xlink:title="zrtos_vfs_fd__read">
<polygon fill="#ffffff" stroke="#000000" points="1054.5,-167 1054.5,-186 1154.5,-186 1154.5,-167 1054.5,-167"/>
<text text-anchor="middle" x="1104.5" y="-174" font-family="Helvetica,sans-Serif" font-size="10.00" fill="#000000">zrtos_vfs_fd__read</text>
</a>
</g>
</g>
<!-- Node298&#45;&gt;Node299 -->
<g id="edge6" class="edge">
<title>Node298&#45;&gt;Node299</title>
<path fill="none" stroke="#191970" d="M1007.0304,-176.5C1019.3552,-176.5 1032.1753,-176.5 1044.3125,-176.5"/>
<polygon fill="#191970" stroke="#191970" points="1044.3213,-180.0001 1054.3213,-176.5 1044.3213,-173.0001 1044.3213,-180.0001"/>
</g>
<!-- Node300 -->
<g id="node8" class="node">
<title>Node300</title>
<g id="a_node8"><a xlink:href="vfs__file_8h.html#a27e4ed3d3306da0eaccc004eebc8d3c4" target="_top" xlink:title="zrtos_vfs_file__read">
<polygon fill="#ffffff" stroke="#000000" points="1202,-167 1202,-186 1306,-186 1306,-167 1202,-167"/>
<text text-anchor="middle" x="1254" y="-174" font-family="Helvetica,sans-Serif" font-size="10.00" fill="#000000">zrtos_vfs_file__read</text>
</a>
</g>
</g>
<!-- Node299&#45;&gt;Node300 -->
<g id="edge7" class="edge">
<title>Node299&#45;&gt;Node300</title>
<path fill="none" stroke="#191970" d="M1154.6972,-176.5C1166.5597,-176.5 1179.3503,-176.5 1191.677,-176.5"/>
<polygon fill="#191970" stroke="#191970" points="1191.8917,-180.0001 1201.8917,-176.5 1191.8917,-173.0001 1191.8917,-180.0001"/>
</g>
<!-- Node302 -->
<g id="node10" class="node">
<title>Node302</title>
<g id="a_node10"><a xlink:href="mcp2515_8h.html#af0bd06ab9cb60e9f7a3b5d77ae76057d" target="_top" xlink:title="zrtos_vfs_module_mcp2515\l__read_registers">
<polygon fill="#ffffff" stroke="#000000" points="700,-137.5 700,-167.5 839,-167.5 839,-137.5 700,-137.5"/>
<text text-anchor="start" x="708" y="-155.5" font-family="Helvetica,sans-Serif" font-size="10.00" fill="#000000">zrtos_vfs_module_mcp2515</text>
<text text-anchor="middle" x="769.5" y="-144.5" font-family="Helvetica,sans-Serif" font-size="10.00" fill="#000000">__read_registers</text>
</a>
</g>
</g>
<!-- Node301&#45;&gt;Node302 -->
<g id="edge11" class="edge">
<title>Node301&#45;&gt;Node302</title>
<path fill="none" stroke="#191970" d="M664.1675,-155.5095C672.5024,-155.2714 681.0628,-155.0268 689.5285,-154.7849"/>
<polygon fill="#191970" stroke="#191970" points="689.8904,-158.2761 699.7863,-154.4918 689.6904,-151.2789 689.8904,-158.2761"/>
</g>
<!-- Node302&#45;&gt;Node298 -->
<g id="edge12" class="edge">
<title>Node302&#45;&gt;Node298</title>
<path fill="none" stroke="#191970" d="M839.2556,-162.2617C847.7207,-163.4463 856.4013,-164.6611 864.9516,-165.8577"/>
<polygon fill="#191970" stroke="#191970" points="864.5197,-169.3312 874.9083,-167.251 865.4899,-162.3988 864.5197,-169.3312"/>
</g>
<!-- Node304 -->
<g id="node12" class="node">
<title>Node304</title>
<g id="a_node12"><a xlink:href="mcp2515_8h.html#a267ca18d5b51831eabb3776665d9400c" target="_top" xlink:title="zrtos_vfs_module_mcp2515\l__set_registers">
<polygon fill="#ffffff" stroke="#000000" points="525,-93.5 525,-123.5 664,-123.5 664,-93.5 525,-93.5"/>
<text text-anchor="start" x="533" y="-111.5" font-family="Helvetica,sans-Serif" font-size="10.00" fill="#000000">zrtos_vfs_module_mcp2515</text>
<text text-anchor="middle" x="594.5" y="-100.5" font-family="Helvetica,sans-Serif" font-size="10.00" fill="#000000">__set_registers</text>
</a>
</g>
</g>
<!-- Node303&#45;&gt;Node304 -->
<g id="edge14" class="edge">
<title>Node303&#45;&gt;Node304</title>
<path fill="none" stroke="#191970" d="M489.1675,-121.7418C497.594,-120.6825 506.251,-119.5942 514.8076,-118.5185"/>
<polygon fill="#191970" stroke="#191970" points="515.301,-121.9841 524.7863,-117.264 514.4278,-115.0387 515.301,-121.9841"/>
</g>
<!-- Node304&#45;&gt;Node298 -->
<g id="edge15" class="edge">
<title>Node304&#45;&gt;Node298</title>
<path fill="none" stroke="#191970" d="M664.1531,-107.1335C713.7119,-107.7899 781.4386,-112.0211 839,-127.5 867.17,-135.0752 896.9767,-150.3475 917.0445,-161.8395"/>
<polygon fill="#191970" stroke="#191970" points="915.4034,-164.9345 925.801,-166.9695 918.9418,-158.8946 915.4034,-164.9345"/>
</g>
</g>
</svg>
