<?xml version="1.0" encoding="UTF-8" standalone="no"?>
<!DOCTYPE svg PUBLIC "-//W3C//DTD SVG 1.1//EN"
 "http://www.w3.org/Graphics/SVG/1.1/DTD/svg11.dtd">
<!-- Generated by graphviz version 10.0.1 (20240210.2158)
 -->
<!-- Title: zrtos_vfs_module_mcp2515__spi_transfer Pages: 1 -->
<svg width="439pt" height="66pt"
 viewBox="0.00 0.00 439.25 66.00" xmlns="http://www.w3.org/2000/svg" xmlns:xlink="http://www.w3.org/1999/xlink">
<g id="graph0" class="graph" transform="scale(1 1) rotate(0) translate(4 62)">
<title>zrtos_vfs_module_mcp2515__spi_transfer</title>
<!-- Node1 -->
<g id="Node000001" class="node">
<title>Node1</title>
<g id="a_Node000001"><a xlink:title=" ">
<polygon fill="#999999" stroke="#666666" points="136,-45 0,-45 0,-13 136,-13 136,-45"/>
<text text-anchor="start" x="8" y="-31.5" font-family="Helvetica,sans-Serif" font-size="10.00">zrtos_vfs_module_mcp2515</text>
<text text-anchor="middle" x="68" y="-19.5" font-family="Helvetica,sans-Serif" font-size="10.00">__spi_transfer</text>
</a>
</g>
</g>
<!-- Node2 -->
<g id="Node000002" class="node">
<title>Node2</title>
<g id="a_Node000002"><a xlink:href="error_8h.html#add13298163f63b7d37ed9f12d57e1a31" target="_top" xlink:title=" ">
<polygon fill="white" stroke="#666666" points="294.5,-58 172,-58 172,-38 294.5,-38 294.5,-58"/>
<text text-anchor="middle" x="233.25" y="-44.5" font-family="Helvetica,sans-Serif" font-size="10.00">zrtos_error__is_success</text>
</a>
</g>
</g>
<!-- Node1&#45;&gt;Node2 -->
<g id="edge1_Node000001_Node000002" class="edge">
<title>Node1&#45;&gt;Node2</title>
<g id="a_edge1_Node000001_Node000002"><a xlink:title=" ">
<path fill="none" stroke="#63b8ff" d="M136.34,-36.84C144.28,-37.76 152.41,-38.71 160.41,-39.64"/>
<polygon fill="#63b8ff" stroke="#63b8ff" points="159.76,-43.09 170.09,-40.77 160.57,-36.13 159.76,-43.09"/>
</a>
</g>
</g>
<!-- Node3 -->
<g id="Node000003" class="node">
<title>Node3</title>
<g id="a_Node000003"><a xlink:href="vfs__fd_8h.html#a1c176ae3990492b9deae02682a6782e1" target="_top" xlink:title=" ">
<polygon fill="white" stroke="#666666" points="281.38,-20 185.12,-20 185.12,0 281.38,0 281.38,-20"/>
<text text-anchor="middle" x="233.25" y="-6.5" font-family="Helvetica,sans-Serif" font-size="10.00">zrtos_vfs_fd__read</text>
</a>
</g>
</g>
<!-- Node1&#45;&gt;Node3 -->
<g id="edge2_Node000001_Node000003" class="edge">
<title>Node1&#45;&gt;Node3</title>
<g id="a_edge2_Node000001_Node000003"><a xlink:title=" ">
<path fill="none" stroke="#63b8ff" d="M136.34,-21.16C148.72,-19.72 161.55,-18.23 173.65,-16.82"/>
<polygon fill="#63b8ff" stroke="#63b8ff" points="173.96,-20.31 183.48,-15.68 173.15,-13.36 173.96,-20.31"/>
</a>
</g>
</g>
<!-- Node4 -->
<g id="Node000004" class="node">
<title>Node4</title>
<g id="a_Node000004"><a xlink:href="vfs__file_8h.html#a27e4ed3d3306da0eaccc004eebc8d3c4" target="_top" xlink:title=" ">
<polygon fill="white" stroke="#666666" points="431.25,-20 330.5,-20 330.5,0 431.25,0 431.25,-20"/>
<text text-anchor="middle" x="380.88" y="-6.5" font-family="Helvetica,sans-Serif" font-size="10.00">zrtos_vfs_file__read</text>
</a>
</g>
</g>
<!-- Node3&#45;&gt;Node4 -->
<g id="edge3_Node000003_Node000004" class="edge">
<title>Node3&#45;&gt;Node4</title>
<g id="a_edge3_Node000003_Node000004"><a xlink:title=" ">
<path fill="none" stroke="#63b8ff" d="M281.53,-10C293.42,-10 306.35,-10 318.81,-10"/>
<polygon fill="#63b8ff" stroke="#63b8ff" points="318.56,-13.5 328.56,-10 318.56,-6.5 318.56,-13.5"/>
</a>
</g>
</g>
</g>
</svg>
