<?xml version="1.0" encoding="UTF-8" standalone="no"?>
<!DOCTYPE svg PUBLIC "-//W3C//DTD SVG 1.1//EN"
 "http://www.w3.org/Graphics/SVG/1.1/DTD/svg11.dtd">
<!-- Generated by graphviz version 2.40.1 (20161225.0304)
 -->
<!-- Title: zrtos_vfs_module_mcp2515__set_mode Pages: 1 -->
<svg width="964pt" height="124pt"
 viewBox="0.00 0.00 964.00 123.50" xmlns="http://www.w3.org/2000/svg" xmlns:xlink="http://www.w3.org/1999/xlink">
<g id="graph0" class="graph" transform="scale(1 1) rotate(0) translate(4 119.5)">
<title>zrtos_vfs_module_mcp2515__set_mode</title>
<polygon fill="#ffffff" stroke="transparent" points="-4,4 -4,-119.5 960,-119.5 960,4 -4,4"/>
<!-- Node403 -->
<g id="node1" class="node">
<title>Node403</title>
<polygon fill="#bfbfbf" stroke="#000000" points="0,-36 0,-66 139,-66 139,-36 0,-36"/>
<text text-anchor="start" x="8" y="-54" font-family="Helvetica,sans-Serif" font-size="10.00" fill="#000000">zrtos_vfs_module_mcp2515</text>
<text text-anchor="middle" x="69.5" y="-43" font-family="Helvetica,sans-Serif" font-size="10.00" fill="#000000">__set_mode</text>
</g>
<!-- Node404 -->
<g id="node2" class="node">
<title>Node404</title>
<g id="a_node2"><a xlink:href="mcp2515_8h.html#aefa30fb59e86697b8523673b355f6a3c" target="_top" xlink:title="zrtos_vfs_module_mcp2515\l__modify_register">
<polygon fill="#ffffff" stroke="#000000" points="350,-36 350,-66 489,-66 489,-36 350,-36"/>
<text text-anchor="start" x="358" y="-54" font-family="Helvetica,sans-Serif" font-size="10.00" fill="#000000">zrtos_vfs_module_mcp2515</text>
<text text-anchor="middle" x="419.5" y="-43" font-family="Helvetica,sans-Serif" font-size="10.00" fill="#000000">__modify_register</text>
</a>
</g>
</g>
<!-- Node403&#45;&gt;Node404 -->
<g id="edge1" class="edge">
<title>Node403&#45;&gt;Node404</title>
<path fill="none" stroke="#191970" d="M139.0672,-51C196.8284,-51 279.0211,-51 339.4966,-51"/>
<polygon fill="#191970" stroke="#191970" points="339.7655,-54.5001 349.7654,-51 339.7654,-47.5001 339.7655,-54.5001"/>
</g>
<!-- Node408 -->
<g id="node6" class="node">
<title>Node408</title>
<g id="a_node6"><a xlink:href="error_8h.html#add13298163f63b7d37ed9f12d57e1a31" target="_top" xlink:title="zrtos_error__is_success">
<polygon fill="#ffffff" stroke="#000000" points="693,-.5 693,-19.5 816,-19.5 816,-.5 693,-.5"/>
<text text-anchor="middle" x="754.5" y="-7.5" font-family="Helvetica,sans-Serif" font-size="10.00" fill="#000000">zrtos_error__is_success</text>
</a>
</g>
</g>
<!-- Node403&#45;&gt;Node408 -->
<g id="edge6" class="edge">
<title>Node403&#45;&gt;Node408</title>
<path fill="none" stroke="#191970" d="M139.1671,-43.8281C195.8793,-38.2219 278.0345,-30.6275 350,-26 466.3582,-18.518 601.7859,-14.0138 682.6977,-11.7702"/>
<polygon fill="#191970" stroke="#191970" points="682.874,-15.2668 692.7746,-11.4947 682.6826,-8.2694 682.874,-15.2668"/>
</g>
<!-- Node409 -->
<g id="node7" class="node">
<title>Node409</title>
<g id="a_node7"><a xlink:href="mcp2515_8h.html#a18c1133ba60ff7ea81147e0a76bb0d44" target="_top" xlink:title="zrtos_vfs_module_mcp2515\l__read_register">
<polygon fill="#ffffff" stroke="#000000" points="175,-82 175,-112 314,-112 314,-82 175,-82"/>
<text text-anchor="start" x="183" y="-100" font-family="Helvetica,sans-Serif" font-size="10.00" fill="#000000">zrtos_vfs_module_mcp2515</text>
<text text-anchor="middle" x="244.5" y="-89" font-family="Helvetica,sans-Serif" font-size="10.00" fill="#000000">__read_register</text>
</a>
</g>
</g>
<!-- Node403&#45;&gt;Node409 -->
<g id="edge7" class="edge">
<title>Node403&#45;&gt;Node409</title>
<path fill="none" stroke="#191970" d="M126.8015,-66.0621C143.0506,-70.3333 160.8832,-75.0207 177.6441,-79.4265"/>
<polygon fill="#191970" stroke="#191970" points="176.8075,-82.8254 187.3687,-81.9826 178.5871,-76.0553 176.8075,-82.8254"/>
</g>
<!-- Node405 -->
<g id="node3" class="node">
<title>Node405</title>
<g id="a_node3"><a xlink:href="vfs__fd_8h.html#a1e3e2241dc54e1283f012b7ecc641053" target="_top" xlink:title="zrtos_vfs_fd__spi_transfer">
<polygon fill="#ffffff" stroke="#000000" points="525,-41.5 525,-60.5 657,-60.5 657,-41.5 525,-41.5"/>
<text text-anchor="middle" x="591" y="-48.5" font-family="Helvetica,sans-Serif" font-size="10.00" fill="#000000">zrtos_vfs_fd__spi_transfer</text>
</a>
</g>
</g>
<!-- Node404&#45;&gt;Node405 -->
<g id="edge2" class="edge">
<title>Node404&#45;&gt;Node405</title>
<path fill="none" stroke="#191970" d="M489.2556,-51C497.6286,-51 506.2126,-51 514.6727,-51"/>
<polygon fill="#191970" stroke="#191970" points="514.9083,-54.5001 524.9083,-51 514.9082,-47.5001 514.9083,-54.5001"/>
</g>
<!-- Node406 -->
<g id="node4" class="node">
<title>Node406</title>
<g id="a_node4"><a xlink:href="vfs__fd_8h.html#a1c176ae3990492b9deae02682a6782e1" target="_top" xlink:title="zrtos_vfs_fd__read">
<polygon fill="#ffffff" stroke="#000000" points="704.5,-41.5 704.5,-60.5 804.5,-60.5 804.5,-41.5 704.5,-41.5"/>
<text text-anchor="middle" x="754.5" y="-48.5" font-family="Helvetica,sans-Serif" font-size="10.00" fill="#000000">zrtos_vfs_fd__read</text>
</a>
</g>
</g>
<!-- Node405&#45;&gt;Node406 -->
<g id="edge3" class="edge">
<title>Node405&#45;&gt;Node406</title>
<path fill="none" stroke="#191970" d="M657.0304,-51C669.3552,-51 682.1753,-51 694.3125,-51"/>
<polygon fill="#191970" stroke="#191970" points="694.3213,-54.5001 704.3213,-51 694.3213,-47.5001 694.3213,-54.5001"/>
</g>
<!-- Node405&#45;&gt;Node408 -->
<g id="edge5" class="edge">
<title>Node405&#45;&gt;Node408</title>
<path fill="none" stroke="#191970" d="M628.9211,-41.4907C652.0535,-35.6899 681.8332,-28.2223 706.5869,-22.0149"/>
<polygon fill="#191970" stroke="#191970" points="707.6533,-25.3559 716.5016,-19.5286 705.9506,-18.5662 707.6533,-25.3559"/>
</g>
<!-- Node407 -->
<g id="node5" class="node">
<title>Node407</title>
<g id="a_node5"><a xlink:href="vfs__file_8h.html#a27e4ed3d3306da0eaccc004eebc8d3c4" target="_top" xlink:title="zrtos_vfs_file__read">
<polygon fill="#ffffff" stroke="#000000" points="852,-41.5 852,-60.5 956,-60.5 956,-41.5 852,-41.5"/>
<text text-anchor="middle" x="904" y="-48.5" font-family="Helvetica,sans-Serif" font-size="10.00" fill="#000000">zrtos_vfs_file__read</text>
</a>
</g>
</g>
<!-- Node406&#45;&gt;Node407 -->
<g id="edge4" class="edge">
<title>Node406&#45;&gt;Node407</title>
<path fill="none" stroke="#191970" d="M804.6972,-51C816.5597,-51 829.3503,-51 841.677,-51"/>
<polygon fill="#191970" stroke="#191970" points="841.8917,-54.5001 851.8917,-51 841.8917,-47.5001 841.8917,-54.5001"/>
</g>
<!-- Node410 -->
<g id="node8" class="node">
<title>Node410</title>
<g id="a_node8"><a xlink:href="mcp2515_8h.html#af0bd06ab9cb60e9f7a3b5d77ae76057d" target="_top" xlink:title="zrtos_vfs_module_mcp2515\l__read_registers">
<polygon fill="#ffffff" stroke="#000000" points="350,-85 350,-115 489,-115 489,-85 350,-85"/>
<text text-anchor="start" x="358" y="-103" font-family="Helvetica,sans-Serif" font-size="10.00" fill="#000000">zrtos_vfs_module_mcp2515</text>
<text text-anchor="middle" x="419.5" y="-92" font-family="Helvetica,sans-Serif" font-size="10.00" fill="#000000">__read_registers</text>
</a>
</g>
</g>
<!-- Node409&#45;&gt;Node410 -->
<g id="edge8" class="edge">
<title>Node409&#45;&gt;Node410</title>
<path fill="none" stroke="#191970" d="M314.1675,-98.1943C322.5024,-98.3372 331.0628,-98.4839 339.5285,-98.6291"/>
<polygon fill="#191970" stroke="#191970" points="339.7278,-102.1329 349.7863,-98.8049 339.8478,-95.1339 339.7278,-102.1329"/>
</g>
<!-- Node410&#45;&gt;Node405 -->
<g id="edge9" class="edge">
<title>Node410&#45;&gt;Node405</title>
<path fill="none" stroke="#191970" d="M472.355,-84.8986C496.6174,-77.9665 525.0209,-69.8512 547.9531,-63.2991"/>
<polygon fill="#191970" stroke="#191970" points="549.0895,-66.6145 557.7432,-60.5019 547.1664,-59.8839 549.0895,-66.6145"/>
</g>
</g>
</svg>
