<?xml version="1.0" encoding="UTF-8" standalone="no"?>
<!DOCTYPE svg PUBLIC "-//W3C//DTD SVG 1.1//EN"
 "http://www.w3.org/Graphics/SVG/1.1/DTD/svg11.dtd">
<!-- Generated by graphviz version 2.40.1 (20161225.0304)
 -->
<!-- Title: zrtos_vfs_module_mcp2515__set_register Pages: 1 -->
<svg width="497pt" height="137pt"
 viewBox="0.00 0.00 497.00 137.00" xmlns="http://www.w3.org/2000/svg" xmlns:xlink="http://www.w3.org/1999/xlink">
<g id="graph0" class="graph" transform="scale(1 1) rotate(0) translate(4 133)">
<title>zrtos_vfs_module_mcp2515__set_register</title>
<polygon fill="#ffffff" stroke="transparent" points="-4,4 -4,-133 493,-133 493,4 -4,4"/>
<!-- Node438 -->
<g id="node1" class="node">
<title>Node438</title>
<polygon fill="#bfbfbf" stroke="#000000" points="0,-49.5 0,-79.5 139,-79.5 139,-49.5 0,-49.5"/>
<text text-anchor="start" x="8" y="-67.5" font-family="Helvetica,sans-Serif" font-size="10.00" fill="#000000">zrtos_vfs_module_mcp2515</text>
<text text-anchor="middle" x="69.5" y="-56.5" font-family="Helvetica,sans-Serif" font-size="10.00" fill="#000000">__set_register</text>
</g>
<!-- Node439 -->
<g id="node2" class="node">
<title>Node439</title>
<g id="a_node2"><a xlink:href="mcp2515_8h.html#a180ecb3193b7334b800951d74b3f591f" target="_top" xlink:title="zrtos_vfs_module_mcp2515\l__set_bitrate">
<polygon fill="#ffffff" stroke="#000000" points="175,-98.5 175,-128.5 314,-128.5 314,-98.5 175,-98.5"/>
<text text-anchor="start" x="183" y="-116.5" font-family="Helvetica,sans-Serif" font-size="10.00" fill="#000000">zrtos_vfs_module_mcp2515</text>
<text text-anchor="middle" x="244.5" y="-105.5" font-family="Helvetica,sans-Serif" font-size="10.00" fill="#000000">__set_bitrate</text>
</a>
</g>
</g>
<!-- Node438&#45;&gt;Node439 -->
<g id="edge1" class="edge">
<title>Node438&#45;&gt;Node439</title>
<path fill="none" stroke="#191970" d="M133.1473,-82.3212C152.042,-87.6118 172.5434,-93.3522 190.7444,-98.4484"/>
<polygon fill="#191970" stroke="#191970" points="134.0071,-78.9274 123.4337,-79.6014 132.1196,-85.6682 134.0071,-78.9274"/>
</g>
<!-- Node440 -->
<g id="node3" class="node">
<title>Node440</title>
<g id="a_node3"><a xlink:href="mcp2515_8h.html#a46894ab0a30cb5e4d67fa6672327158c" target="_top" xlink:title="zrtos_vfs_module_mcp2515\l__reset">
<polygon fill="#ffffff" stroke="#000000" points="175,-49.5 175,-79.5 314,-79.5 314,-49.5 175,-49.5"/>
<text text-anchor="start" x="183" y="-67.5" font-family="Helvetica,sans-Serif" font-size="10.00" fill="#000000">zrtos_vfs_module_mcp2515</text>
<text text-anchor="middle" x="244.5" y="-56.5" font-family="Helvetica,sans-Serif" font-size="10.00" fill="#000000">__reset</text>
</a>
</g>
</g>
<!-- Node438&#45;&gt;Node440 -->
<g id="edge2" class="edge">
<title>Node438&#45;&gt;Node440</title>
<path fill="none" stroke="#191970" d="M149.4246,-64.5C157.8899,-64.5 166.4506,-64.5 174.7863,-64.5"/>
<polygon fill="#191970" stroke="#191970" points="149.1675,-61.0001 139.1675,-64.5 149.1674,-68.0001 149.1675,-61.0001"/>
</g>
<!-- Node441 -->
<g id="node4" class="node">
<title>Node441</title>
<g id="a_node4"><a xlink:href="mcp2515_8h.html#aefab00a666fb26f7e2a83f4b92cc32cc" target="_top" xlink:title="zrtos_vfs_module_mcp2515\l__clear_interrupts">
<polygon fill="#ffffff" stroke="#000000" points="175,-.5 175,-30.5 314,-30.5 314,-.5 175,-.5"/>
<text text-anchor="start" x="183" y="-18.5" font-family="Helvetica,sans-Serif" font-size="10.00" fill="#000000">zrtos_vfs_module_mcp2515</text>
<text text-anchor="middle" x="244.5" y="-7.5" font-family="Helvetica,sans-Serif" font-size="10.00" fill="#000000">__clear_interrupts</text>
</a>
</g>
</g>
<!-- Node438&#45;&gt;Node441 -->
<g id="edge3" class="edge">
<title>Node438&#45;&gt;Node441</title>
<path fill="none" stroke="#191970" d="M133.1473,-46.6788C152.042,-41.3882 172.5434,-35.6478 190.7444,-30.5516"/>
<polygon fill="#191970" stroke="#191970" points="132.1196,-43.3318 123.4337,-49.3986 134.0071,-50.0726 132.1196,-43.3318"/>
</g>
<!-- Node442 -->
<g id="node5" class="node">
<title>Node442</title>
<g id="a_node5"><a xlink:href="mcp2515_8h.html#a0efa06269912d6ba6c23a5fbbea49150" target="_top" xlink:title="zrtos_vfs_module_mcp2515\l__clear_rx_and_ovr">
<polygon fill="#ffffff" stroke="#000000" points="350,-.5 350,-30.5 489,-30.5 489,-.5 350,-.5"/>
<text text-anchor="start" x="358" y="-18.5" font-family="Helvetica,sans-Serif" font-size="10.00" fill="#000000">zrtos_vfs_module_mcp2515</text>
<text text-anchor="middle" x="419.5" y="-7.5" font-family="Helvetica,sans-Serif" font-size="10.00" fill="#000000">__clear_rx_and_ovr</text>
</a>
</g>
</g>
<!-- Node441&#45;&gt;Node442 -->
<g id="edge4" class="edge">
<title>Node441&#45;&gt;Node442</title>
<path fill="none" stroke="#191970" d="M324.4246,-15.5C332.8899,-15.5 341.4506,-15.5 349.7863,-15.5"/>
<polygon fill="#191970" stroke="#191970" points="324.1675,-12.0001 314.1675,-15.5 324.1674,-19.0001 324.1675,-12.0001"/>
</g>
</g>
</svg>
