<?xml version="1.0" encoding="UTF-8" standalone="no"?>
<!DOCTYPE svg PUBLIC "-//W3C//DTD SVG 1.1//EN"
 "http://www.w3.org/Graphics/SVG/1.1/DTD/svg11.dtd">
<!-- Generated by graphviz version 10.0.1 (20240210.2158)
 -->
<!-- Title: zrtos_vfs_module_mcp2515__set_mode Pages: 1 -->
<svg width="832pt" height="265pt"
 viewBox="0.00 0.00 832.00 265.00" xmlns="http://www.w3.org/2000/svg" xmlns:xlink="http://www.w3.org/1999/xlink">
<g id="graph0" class="graph" transform="scale(1 1) rotate(0) translate(4 261)">
<title>zrtos_vfs_module_mcp2515__set_mode</title>
<!-- Node1 -->
<g id="Node000001" class="node">
<title>Node1</title>
<g id="a_Node000001"><a xlink:title=" ">
<polygon fill="#999999" stroke="#666666" points="824,-132 688,-132 688,-100 824,-100 824,-132"/>
<text text-anchor="start" x="696" y="-118.5" font-family="Helvetica,sans-Serif" font-size="10.00">zrtos_vfs_module_mcp2515</text>
<text text-anchor="middle" x="756" y="-106.5" font-family="Helvetica,sans-Serif" font-size="10.00">__set_mode</text>
</a>
</g>
</g>
<!-- Node2 -->
<g id="Node000002" class="node">
<title>Node2</title>
<g id="a_Node000002"><a xlink:href="mcp2515_8h.html#a414b60a917d62f474195a1208159b461" target="_top" xlink:title=" ">
<polygon fill="white" stroke="#666666" points="652,-232 516,-232 516,-200 652,-200 652,-232"/>
<text text-anchor="start" x="524" y="-218.5" font-family="Helvetica,sans-Serif" font-size="10.00">zrtos_vfs_module_mcp2515</text>
<text text-anchor="middle" x="584" y="-206.5" font-family="Helvetica,sans-Serif" font-size="10.00">__set_config_mode</text>
</a>
</g>
</g>
<!-- Node1&#45;&gt;Node2 -->
<g id="edge1_Node000001_Node000002" class="edge">
<title>Node1&#45;&gt;Node2</title>
<g id="a_edge1_Node000001_Node000002"><a xlink:title=" ">
<path fill="none" stroke="#63b8ff" d="M727.09,-139.56C707.12,-155.58 679.08,-176.44 652,-191 646.2,-194.12 639.94,-197.01 633.64,-199.65"/>
<polygon fill="#63b8ff" stroke="#63b8ff" points="729.22,-142.34 734.76,-133.31 724.8,-136.91 729.22,-142.34"/>
</a>
</g>
</g>
<!-- Node8 -->
<g id="Node000008" class="node">
<title>Node8</title>
<g id="a_Node000008"><a xlink:href="mcp2515_8h.html#a6790fe7dfa8cdd6f07452fc36a7ce68f" target="_top" xlink:title=" ">
<polygon fill="white" stroke="#666666" points="652,-182 516,-182 516,-150 652,-150 652,-182"/>
<text text-anchor="start" x="524" y="-168.5" font-family="Helvetica,sans-Serif" font-size="10.00">zrtos_vfs_module_mcp2515</text>
<text text-anchor="middle" x="584" y="-156.5" font-family="Helvetica,sans-Serif" font-size="10.00">__set_listen_only_mode</text>
</a>
</g>
</g>
<!-- Node1&#45;&gt;Node8 -->
<g id="edge8_Node000001_Node000008" class="edge">
<title>Node1&#45;&gt;Node8</title>
<g id="a_edge8_Node000001_Node000008"><a xlink:title=" ">
<path fill="none" stroke="#63b8ff" d="M688.62,-135.52C672.9,-140.15 656.29,-145.03 641.08,-149.51"/>
<polygon fill="#63b8ff" stroke="#63b8ff" points="689.28,-138.98 697.88,-132.8 687.3,-132.26 689.28,-138.98"/>
</a>
</g>
</g>
<!-- Node9 -->
<g id="Node000009" class="node">
<title>Node9</title>
<g id="a_Node000009"><a xlink:href="mcp2515_8h.html#ad4965afede1b3d240b6cbfac3a41cf92" target="_top" xlink:title=" ">
<polygon fill="white" stroke="#666666" points="652,-132 516,-132 516,-100 652,-100 652,-132"/>
<text text-anchor="start" x="524" y="-118.5" font-family="Helvetica,sans-Serif" font-size="10.00">zrtos_vfs_module_mcp2515</text>
<text text-anchor="middle" x="584" y="-106.5" font-family="Helvetica,sans-Serif" font-size="10.00">__set_loopback_mode</text>
</a>
</g>
</g>
<!-- Node1&#45;&gt;Node9 -->
<g id="edge9_Node000001_Node000009" class="edge">
<title>Node1&#45;&gt;Node9</title>
<g id="a_edge9_Node000001_Node000009"><a xlink:title=" ">
<path fill="none" stroke="#63b8ff" d="M676.46,-116C668.37,-116 660.21,-116 652.26,-116"/>
<polygon fill="#63b8ff" stroke="#63b8ff" points="676.3,-119.5 686.3,-116 676.3,-112.5 676.3,-119.5"/>
</a>
</g>
</g>
<!-- Node10 -->
<g id="Node000010" class="node">
<title>Node10</title>
<g id="a_Node000010"><a xlink:href="mcp2515_8h.html#a5ef86faff324bf9b10cd9c9e9ec5e383" target="_top" xlink:title=" ">
<polygon fill="white" stroke="#666666" points="652,-82 516,-82 516,-50 652,-50 652,-82"/>
<text text-anchor="start" x="524" y="-68.5" font-family="Helvetica,sans-Serif" font-size="10.00">zrtos_vfs_module_mcp2515</text>
<text text-anchor="middle" x="584" y="-56.5" font-family="Helvetica,sans-Serif" font-size="10.00">__set_normal_mode</text>
</a>
</g>
</g>
<!-- Node1&#45;&gt;Node10 -->
<g id="edge10_Node000001_Node000010" class="edge">
<title>Node1&#45;&gt;Node10</title>
<g id="a_edge10_Node000001_Node000010"><a xlink:title=" ">
<path fill="none" stroke="#63b8ff" d="M688.62,-96.48C672.9,-91.85 656.29,-86.97 641.08,-82.49"/>
<polygon fill="#63b8ff" stroke="#63b8ff" points="687.3,-99.74 697.88,-99.2 689.28,-93.02 687.3,-99.74"/>
</a>
</g>
</g>
<!-- Node11 -->
<g id="Node000011" class="node">
<title>Node11</title>
<g id="a_Node000011"><a xlink:href="mcp2515_8h.html#abfbd0f9bbd80afd764b5932c5684893f" target="_top" xlink:title=" ">
<polygon fill="white" stroke="#666666" points="652,-32 516,-32 516,0 652,0 652,-32"/>
<text text-anchor="start" x="524" y="-18.5" font-family="Helvetica,sans-Serif" font-size="10.00">zrtos_vfs_module_mcp2515</text>
<text text-anchor="middle" x="584" y="-6.5" font-family="Helvetica,sans-Serif" font-size="10.00">__set_sleep_mode</text>
</a>
</g>
</g>
<!-- Node1&#45;&gt;Node11 -->
<g id="edge11_Node000001_Node000011" class="edge">
<title>Node1&#45;&gt;Node11</title>
<g id="a_edge11_Node000001_Node000011"><a xlink:title=" ">
<path fill="none" stroke="#63b8ff" d="M727.09,-92.44C707.12,-76.42 679.08,-55.56 652,-41 646.2,-37.88 639.94,-34.99 633.64,-32.35"/>
<polygon fill="#63b8ff" stroke="#63b8ff" points="724.8,-95.09 734.76,-98.69 729.22,-89.66 724.8,-95.09"/>
</a>
</g>
</g>
<!-- Node3 -->
<g id="Node000003" class="node">
<title>Node3</title>
<g id="a_Node000003"><a xlink:href="mcp2515_8h.html#a180ecb3193b7334b800951d74b3f591f" target="_top" xlink:title=" ">
<polygon fill="white" stroke="#666666" points="480,-257 344,-257 344,-225 480,-225 480,-257"/>
<text text-anchor="start" x="352" y="-243.5" font-family="Helvetica,sans-Serif" font-size="10.00">zrtos_vfs_module_mcp2515</text>
<text text-anchor="middle" x="412" y="-231.5" font-family="Helvetica,sans-Serif" font-size="10.00">__set_bitrate</text>
</a>
</g>
</g>
<!-- Node2&#45;&gt;Node3 -->
<g id="edge2_Node000002_Node000003" class="edge">
<title>Node2&#45;&gt;Node3</title>
<g id="a_edge2_Node000002_Node000003"><a xlink:title=" ">
<path fill="none" stroke="#63b8ff" d="M504.46,-227.55C496.37,-228.74 488.21,-229.94 480.26,-231.11"/>
<polygon fill="#63b8ff" stroke="#63b8ff" points="504.93,-231.02 514.31,-226.1 503.91,-224.09 504.93,-231.02"/>
</a>
</g>
</g>
<!-- Node4 -->
<g id="Node000004" class="node">
<title>Node4</title>
<g id="a_Node000004"><a xlink:href="mcp2515_8h.html#ae36edcf41e011b562faf4b1006885296" target="_top" xlink:title=" ">
<polygon fill="white" stroke="#666666" points="480,-207 344,-207 344,-175 480,-175 480,-207"/>
<text text-anchor="start" x="352" y="-193.5" font-family="Helvetica,sans-Serif" font-size="10.00">zrtos_vfs_module_mcp2515</text>
<text text-anchor="middle" x="412" y="-181.5" font-family="Helvetica,sans-Serif" font-size="10.00">__set_filter_ex</text>
</a>
</g>
</g>
<!-- Node2&#45;&gt;Node4 -->
<g id="edge3_Node000002_Node000004" class="edge">
<title>Node2&#45;&gt;Node4</title>
<g id="a_edge3_Node000002_Node000004"><a xlink:title=" ">
<path fill="none" stroke="#63b8ff" d="M504.46,-204.45C496.37,-203.26 488.21,-202.06 480.26,-200.89"/>
<polygon fill="#63b8ff" stroke="#63b8ff" points="503.91,-207.91 514.31,-205.9 504.93,-200.98 503.91,-207.91"/>
</a>
</g>
</g>
<!-- Node5 -->
<g id="Node000005" class="node">
<title>Node5</title>
<g id="a_Node000005"><a xlink:href="mcp2515_8h.html#a2dd342ada1683548e1f020e4edf4310a" target="_top" xlink:title=" ">
<polygon fill="white" stroke="#666666" points="308,-232 172,-232 172,-200 308,-200 308,-232"/>
<text text-anchor="start" x="180" y="-218.5" font-family="Helvetica,sans-Serif" font-size="10.00">zrtos_vfs_module_mcp2515</text>
<text text-anchor="middle" x="240" y="-206.5" font-family="Helvetica,sans-Serif" font-size="10.00">__set_filter</text>
</a>
</g>
</g>
<!-- Node4&#45;&gt;Node5 -->
<g id="edge4_Node000004_Node000005" class="edge">
<title>Node4&#45;&gt;Node5</title>
<g id="a_edge4_Node000004_Node000005"><a xlink:title=" ">
<path fill="none" stroke="#63b8ff" d="M332.46,-202.55C324.37,-203.74 316.21,-204.94 308.26,-206.11"/>
<polygon fill="#63b8ff" stroke="#63b8ff" points="332.93,-206.02 342.31,-201.1 331.91,-199.09 332.93,-206.02"/>
</a>
</g>
</g>
<!-- Node7 -->
<g id="Node000007" class="node">
<title>Node7</title>
<g id="a_Node000007"><a xlink:href="mcp2515_8h.html#a8c085fb921bd4acc73e2e5aedaf40f54" target="_top" xlink:title=" ">
<polygon fill="white" stroke="#666666" points="308,-182 172,-182 172,-150 308,-150 308,-182"/>
<text text-anchor="start" x="180" y="-168.5" font-family="Helvetica,sans-Serif" font-size="10.00">zrtos_vfs_module_mcp2515</text>
<text text-anchor="middle" x="240" y="-156.5" font-family="Helvetica,sans-Serif" font-size="10.00">__set_filter_mask</text>
</a>
</g>
</g>
<!-- Node4&#45;&gt;Node7 -->
<g id="edge6_Node000004_Node000007" class="edge">
<title>Node4&#45;&gt;Node7</title>
<g id="a_edge6_Node000004_Node000007"><a xlink:title=" ">
<path fill="none" stroke="#63b8ff" d="M332.46,-179.45C324.37,-178.26 316.21,-177.06 308.26,-175.89"/>
<polygon fill="#63b8ff" stroke="#63b8ff" points="331.91,-182.91 342.31,-180.9 332.93,-175.98 331.91,-182.91"/>
</a>
</g>
</g>
<!-- Node6 -->
<g id="Node000006" class="node">
<title>Node6</title>
<g id="a_Node000006"><a xlink:href="mcp2515_8h.html#a46894ab0a30cb5e4d67fa6672327158c" target="_top" xlink:title=" ">
<polygon fill="white" stroke="#666666" points="136,-207 0,-207 0,-175 136,-175 136,-207"/>
<text text-anchor="start" x="8" y="-193.5" font-family="Helvetica,sans-Serif" font-size="10.00">zrtos_vfs_module_mcp2515</text>
<text text-anchor="middle" x="68" y="-181.5" font-family="Helvetica,sans-Serif" font-size="10.00">__reset</text>
</a>
</g>
</g>
<!-- Node5&#45;&gt;Node6 -->
<g id="edge5_Node000005_Node000006" class="edge">
<title>Node5&#45;&gt;Node6</title>
<g id="a_edge5_Node000005_Node000006"><a xlink:title=" ">
<path fill="none" stroke="#63b8ff" d="M160.46,-204.45C152.37,-203.26 144.21,-202.06 136.26,-200.89"/>
<polygon fill="#63b8ff" stroke="#63b8ff" points="159.91,-207.91 170.31,-205.9 160.93,-200.98 159.91,-207.91"/>
</a>
</g>
</g>
<!-- Node7&#45;&gt;Node6 -->
<g id="edge7_Node000007_Node000006" class="edge">
<title>Node7&#45;&gt;Node6</title>
<g id="a_edge7_Node000007_Node000006"><a xlink:title=" ">
<path fill="none" stroke="#63b8ff" d="M160.46,-177.55C152.37,-178.74 144.21,-179.94 136.26,-181.11"/>
<polygon fill="#63b8ff" stroke="#63b8ff" points="160.93,-181.02 170.31,-176.1 159.91,-174.09 160.93,-181.02"/>
</a>
</g>
</g>
</g>
</svg>
