<?xml version="1.0" encoding="UTF-8" standalone="no"?>
<!DOCTYPE svg PUBLIC "-//W3C//DTD SVG 1.1//EN"
 "http://www.w3.org/Graphics/SVG/1.1/DTD/svg11.dtd">
<!-- Generated by graphviz version 2.40.1 (20161225.0304)
 -->
<!-- Title: mcp2515.h Pages: 1 -->
<svg width="798pt" height="431pt"
 viewBox="0.00 0.00 798.19 431.00" xmlns="http://www.w3.org/2000/svg" xmlns:xlink="http://www.w3.org/1999/xlink">
<g id="graph0" class="graph" transform="scale(1 1) rotate(0) translate(4 427)">
<title>mcp2515.h</title>
<polygon fill="#ffffff" stroke="transparent" points="-4,4 -4,-427 794.1892,-427 794.1892,4 -4,4"/>
<!-- Node0 -->
<g id="node1" class="node">
<title>Node0</title>
<polygon fill="#bfbfbf" stroke="#000000" points="199.5,-403.5 199.5,-422.5 264.5,-422.5 264.5,-403.5 199.5,-403.5"/>
<text text-anchor="middle" x="232" y="-410.5" font-family="Helvetica,sans-Serif" font-size="10.00" fill="#000000">mcp2515.h</text>
</g>
<!-- Node1 -->
<g id="node2" class="node">
<title>Node1</title>
<g id="a_node2"><a xlink:href="vfs__module_8h.html" target="_top" xlink:title="zrtos/vfs_module.h">
<polygon fill="#ffffff" stroke="#000000" points="182,-347.5 182,-366.5 282,-366.5 282,-347.5 182,-347.5"/>
<text text-anchor="middle" x="232" y="-354.5" font-family="Helvetica,sans-Serif" font-size="10.00" fill="#000000">zrtos/vfs_module.h</text>
</a>
</g>
</g>
<!-- Node0&#45;&gt;Node1 -->
<g id="edge1" class="edge">
<title>Node0&#45;&gt;Node1</title>
<path fill="none" stroke="#191970" d="M232,-403.2455C232,-395.9382 232,-385.6944 232,-376.7046"/>
<polygon fill="#191970" stroke="#191970" points="235.5001,-376.6426 232,-366.6427 228.5001,-376.6427 235.5001,-376.6426"/>
</g>
<!-- Node15 -->
<g id="node16" class="node">
<title>Node15</title>
<g id="a_node16"><a xlink:href="mem_8h.html" target="_top" xlink:title="zrtos/mem.h">
<polygon fill="#ffffff" stroke="#000000" points="524.5,-112.5 524.5,-131.5 595.5,-131.5 595.5,-112.5 524.5,-112.5"/>
<text text-anchor="middle" x="560" y="-119.5" font-family="Helvetica,sans-Serif" font-size="10.00" fill="#000000">zrtos/mem.h</text>
</a>
</g>
</g>
<!-- Node0&#45;&gt;Node15 -->
<g id="edge39" class="edge">
<title>Node0&#45;&gt;Node15</title>
<path fill="none" stroke="#191970" d="M264.5296,-411.3063C362.9755,-405.3025 651,-380.9089 651,-301 651,-301 651,-301 651,-245 651,-209.7513 652.5408,-196.6451 632,-168 622.1438,-154.2551 606.7839,-143.6286 592.7784,-136.0693"/>
<polygon fill="#191970" stroke="#191970" points="594.3442,-132.9391 583.8417,-131.5428 591.1811,-139.1837 594.3442,-132.9391"/>
</g>
<!-- Node21 -->
<g id="node22" class="node">
<title>Node21</title>
<g id="a_node22"><a xlink:href="va_8h.html" target="_top" xlink:title="zrtos/va.h">
<polygon fill="#ffffff" stroke="#000000" points="0,-112.5 0,-131.5 60,-131.5 60,-112.5 0,-112.5"/>
<text text-anchor="middle" x="30" y="-119.5" font-family="Helvetica,sans-Serif" font-size="10.00" fill="#000000">zrtos/va.h</text>
</a>
</g>
</g>
<!-- Node0&#45;&gt;Node21 -->
<g id="edge40" class="edge">
<title>Node0&#45;&gt;Node21</title>
<path fill="none" stroke="#191970" d="M199.4298,-408.9882C144.6514,-400.2237 40,-373.9353 40,-301 40,-301 40,-301 40,-245 40,-208.379 35.5418,-165.8259 32.5789,-141.5886"/>
<polygon fill="#191970" stroke="#191970" points="36.036,-141.0287 31.3073,-131.5477 29.0915,-141.9082 36.036,-141.0287"/>
</g>
<!-- Node2 -->
<g id="node3" class="node">
<title>Node2</title>
<g id="a_node3"><a xlink:href="error_8h.html" target="_top" xlink:title="zrtos/error.h">
<polygon fill="#ffffff" stroke="#000000" points="58.5,-56.5 58.5,-75.5 127.5,-75.5 127.5,-56.5 58.5,-56.5"/>
<text text-anchor="middle" x="93" y="-63.5" font-family="Helvetica,sans-Serif" font-size="10.00" fill="#000000">zrtos/error.h</text>
</a>
</g>
</g>
<!-- Node1&#45;&gt;Node2 -->
<g id="edge2" class="edge">
<title>Node1&#45;&gt;Node2</title>
<path fill="none" stroke="#191970" d="M181.9728,-347.9309C158.0785,-341.3014 130.6895,-330.0153 112,-311 90.121,-288.7395 88,-276.2125 88,-245 88,-245 88,-245 88,-183.5 88,-149.1088 90.1646,-109.1067 91.6453,-85.7654"/>
<polygon fill="#191970" stroke="#191970" points="95.1405,-85.9512 92.3048,-75.743 88.1556,-85.4916 95.1405,-85.9512"/>
</g>
<!-- Node6 -->
<g id="node7" class="node">
<title>Node6</title>
<g id="a_node7"><a xlink:href="types_8h.html" target="_top" xlink:title="zrtos/types.h">
<polygon fill="#ffffff" stroke="#000000" points="523,-56.5 523,-75.5 597,-75.5 597,-56.5 523,-56.5"/>
<text text-anchor="middle" x="560" y="-63.5" font-family="Helvetica,sans-Serif" font-size="10.00" fill="#000000">zrtos/types.h</text>
</a>
</g>
</g>
<!-- Node1&#45;&gt;Node6 -->
<g id="edge6" class="edge">
<title>Node1&#45;&gt;Node6</title>
<path fill="none" stroke="#191970" d="M282.4124,-352.1735C419.523,-338.373 789,-296.4145 789,-245 789,-245 789,-245 789,-183.5 789,-150.6194 793.757,-134.732 770,-112 747.0729,-90.0621 661.9529,-76.9727 607.3752,-70.6559"/>
<polygon fill="#191970" stroke="#191970" points="607.5558,-67.1543 597.2281,-69.5183 606.7759,-74.1107 607.5558,-67.1543"/>
</g>
<!-- Node10 -->
<g id="node11" class="node">
<title>Node10</title>
<g id="a_node11"><a xlink:href="cast_8h.html" target="_top" xlink:title="zrtos/cast.h">
<polygon fill="#ffffff" stroke="#000000" points="423,-.5 423,-19.5 491,-19.5 491,-.5 423,-.5"/>
<text text-anchor="middle" x="457" y="-7.5" font-family="Helvetica,sans-Serif" font-size="10.00" fill="#000000">zrtos/cast.h</text>
</a>
</g>
</g>
<!-- Node1&#45;&gt;Node10 -->
<g id="edge13" class="edge">
<title>Node1&#45;&gt;Node10</title>
<path fill="none" stroke="#191970" d="M212.0622,-347.3628C181.3566,-330.9628 126,-294.5285 126,-245 126,-245 126,-245 126,-183.5 126,-107.1884 174.9033,-94.1402 241,-56 269.7022,-39.4378 358.1258,-24.2691 412.5327,-16.1634"/>
<polygon fill="#191970" stroke="#191970" points="413.2173,-19.6005 422.6032,-14.6857 412.201,-12.6746 413.2173,-19.6005"/>
</g>
<!-- Node11 -->
<g id="node12" class="node">
<title>Node11</title>
<g id="a_node12"><a xlink:href="vfs__plugin_8h.html" target="_top" xlink:title="zrtos/vfs_plugin.h">
<polygon fill="#ffffff" stroke="#000000" points="229,-112.5 229,-131.5 323,-131.5 323,-112.5 229,-112.5"/>
<text text-anchor="middle" x="276" y="-119.5" font-family="Helvetica,sans-Serif" font-size="10.00" fill="#000000">zrtos/vfs_plugin.h</text>
</a>
</g>
</g>
<!-- Node1&#45;&gt;Node11 -->
<g id="edge14" class="edge">
<title>Node1&#45;&gt;Node11</title>
<path fill="none" stroke="#191970" d="M228.3783,-347.3575C218.1509,-318.4834 191.6403,-230.8303 221,-168 226.9463,-155.2749 238.3358,-144.8307 249.215,-137.129"/>
<polygon fill="#191970" stroke="#191970" points="251.277,-139.9622 257.7167,-131.5491 247.436,-134.1101 251.277,-139.9622"/>
</g>
<!-- Node13 -->
<g id="node14" class="node">
<title>Node13</title>
<g id="a_node14"><a xlink:href="vfs__file_8h.html" target="_top" xlink:title="zrtos/vfs_file.h">
<polygon fill="#ffffff" stroke="#000000" points="311.5,-291.5 311.5,-310.5 392.5,-310.5 392.5,-291.5 311.5,-291.5"/>
<text text-anchor="middle" x="352" y="-298.5" font-family="Helvetica,sans-Serif" font-size="10.00" fill="#000000">zrtos/vfs_file.h</text>
</a>
</g>
</g>
<!-- Node1&#45;&gt;Node13 -->
<g id="edge18" class="edge">
<title>Node1&#45;&gt;Node13</title>
<path fill="none" stroke="#191970" d="M252.6287,-347.3733C271.8919,-338.3838 300.8486,-324.8706 322.5419,-314.7471"/>
<polygon fill="#191970" stroke="#191970" points="324.0587,-317.9017 331.6405,-310.5011 321.0985,-311.5584 324.0587,-317.9017"/>
</g>
<!-- Node16 -->
<g id="node17" class="node">
<title>Node16</title>
<g id="a_node17"><a xlink:href="vfs__dentry_8h.html" target="_top" xlink:title="zrtos/vfs_dentry.h">
<polygon fill="#ffffff" stroke="#000000" points="346.5,-235.5 346.5,-254.5 441.5,-254.5 441.5,-235.5 346.5,-235.5"/>
<text text-anchor="middle" x="394" y="-242.5" font-family="Helvetica,sans-Serif" font-size="10.00" fill="#000000">zrtos/vfs_dentry.h</text>
</a>
</g>
</g>
<!-- Node1&#45;&gt;Node16 -->
<g id="edge38" class="edge">
<title>Node1&#45;&gt;Node16</title>
<path fill="none" stroke="#191970" d="M240.7476,-347.0947C253.3062,-333.2845 277.628,-308.0276 302,-291 320.2801,-278.2286 342.617,-266.9715 360.7034,-258.7901"/>
<polygon fill="#191970" stroke="#191970" points="362.5262,-261.8114 370.2614,-254.5713 359.6996,-255.4075 362.5262,-261.8114"/>
</g>
<!-- Node3 -->
<g id="node4" class="node">
<title>Node3</title>
<polygon fill="#ffffff" stroke="#bfbfbf" points="324,-.5 324,-19.5 372,-19.5 372,-.5 324,-.5"/>
<text text-anchor="middle" x="348" y="-7.5" font-family="Helvetica,sans-Serif" font-size="10.00" fill="#000000">limits.h</text>
</g>
<!-- Node2&#45;&gt;Node3 -->
<g id="edge3" class="edge">
<title>Node2&#45;&gt;Node3</title>
<path fill="none" stroke="#191970" d="M127.6558,-58.3893C176.4994,-47.6629 265.0466,-28.2172 313.6977,-17.533"/>
<polygon fill="#191970" stroke="#191970" points="314.7148,-20.8932 323.7313,-15.3296 313.2133,-14.0561 314.7148,-20.8932"/>
</g>
<!-- Node4 -->
<g id="node5" class="node">
<title>Node4</title>
<polygon fill="#ffffff" stroke="#bfbfbf" points="184,-.5 184,-19.5 240,-19.5 240,-.5 184,-.5"/>
<text text-anchor="middle" x="212" y="-7.5" font-family="Helvetica,sans-Serif" font-size="10.00" fill="#000000">stdbool.h</text>
</g>
<!-- Node2&#45;&gt;Node4 -->
<g id="edge4" class="edge">
<title>Node2&#45;&gt;Node4</title>
<path fill="none" stroke="#191970" d="M113.4568,-56.3733C132.4738,-47.4241 161.0175,-33.9917 182.4976,-23.8835"/>
<polygon fill="#191970" stroke="#191970" points="184.2522,-26.926 191.8101,-19.5011 181.2716,-20.5923 184.2522,-26.926"/>
</g>
<!-- Node5 -->
<g id="node6" class="node">
<title>Node5</title>
<g id="a_node6"><a xlink:href="assert_8h.html" target="_top" xlink:title="zrtos/assert.h">
<polygon fill="#ffffff" stroke="#000000" points="23.5,-.5 23.5,-19.5 100.5,-19.5 100.5,-.5 23.5,-.5"/>
<text text-anchor="middle" x="62" y="-7.5" font-family="Helvetica,sans-Serif" font-size="10.00" fill="#000000">zrtos/assert.h</text>
</a>
</g>
</g>
<!-- Node2&#45;&gt;Node5 -->
<g id="edge5" class="edge">
<title>Node2&#45;&gt;Node5</title>
<path fill="none" stroke="#191970" d="M87.6002,-56.2455C83.3773,-48.617 77.3827,-37.7881 72.2559,-28.5267"/>
<polygon fill="#191970" stroke="#191970" points="75.2432,-26.6965 67.3379,-19.6427 69.119,-30.0867 75.2432,-26.6965"/>
</g>
<!-- Node6&#45;&gt;Node3 -->
<g id="edge10" class="edge">
<title>Node6&#45;&gt;Node3</title>
<path fill="none" stroke="#191970" d="M523.5559,-56.3733C483.7808,-45.8666 420.6118,-29.1805 381.8786,-18.9491"/>
<polygon fill="#191970" stroke="#191970" points="382.6766,-15.5399 372.1143,-16.3698 380.8888,-22.3077 382.6766,-15.5399"/>
</g>
<!-- Node6&#45;&gt;Node4 -->
<g id="edge7" class="edge">
<title>Node6&#45;&gt;Node4</title>
<path fill="none" stroke="#191970" d="M522.7579,-60.007C456.1832,-49.2938 317.4519,-26.9693 250.1952,-16.1464"/>
<polygon fill="#191970" stroke="#191970" points="250.4657,-12.6449 240.0366,-14.5116 249.3535,-19.556 250.4657,-12.6449"/>
</g>
<!-- Node7 -->
<g id="node8" class="node">
<title>Node7</title>
<polygon fill="#ffffff" stroke="#bfbfbf" points="654,-.5 654,-19.5 706,-19.5 706,-.5 654,-.5"/>
<text text-anchor="middle" x="680" y="-7.5" font-family="Helvetica,sans-Serif" font-size="10.00" fill="#000000">stddef.h</text>
</g>
<!-- Node6&#45;&gt;Node7 -->
<g id="edge8" class="edge">
<title>Node6&#45;&gt;Node7</title>
<path fill="none" stroke="#191970" d="M580.6287,-56.3733C599.8919,-47.3838 628.8486,-33.8706 650.5419,-23.7471"/>
<polygon fill="#191970" stroke="#191970" points="652.0587,-26.9017 659.6405,-19.5011 649.0985,-20.5584 652.0587,-26.9017"/>
</g>
<!-- Node8 -->
<g id="node9" class="node">
<title>Node8</title>
<polygon fill="#ffffff" stroke="#bfbfbf" points="509.5,-.5 509.5,-19.5 558.5,-19.5 558.5,-.5 509.5,-.5"/>
<text text-anchor="middle" x="534" y="-7.5" font-family="Helvetica,sans-Serif" font-size="10.00" fill="#000000">stdint.h</text>
</g>
<!-- Node6&#45;&gt;Node8 -->
<g id="edge9" class="edge">
<title>Node6&#45;&gt;Node8</title>
<path fill="none" stroke="#191970" d="M555.4711,-56.2455C551.9666,-48.6973 547.0073,-38.0158 542.7377,-28.8197"/>
<polygon fill="#191970" stroke="#191970" points="545.8627,-27.2389 538.477,-19.6427 539.5136,-30.1867 545.8627,-27.2389"/>
</g>
<!-- Node9 -->
<g id="node10" class="node">
<title>Node9</title>
<polygon fill="#ffffff" stroke="#bfbfbf" points="576.5,-.5 576.5,-19.5 635.5,-19.5 635.5,-.5 576.5,-.5"/>
<text text-anchor="middle" x="606" y="-7.5" font-family="Helvetica,sans-Serif" font-size="10.00" fill="#000000">stdalign.h</text>
</g>
<!-- Node6&#45;&gt;Node9 -->
<g id="edge11" class="edge">
<title>Node6&#45;&gt;Node9</title>
<path fill="none" stroke="#191970" d="M568.0126,-56.2455C574.4768,-48.3761 583.7385,-37.101 591.4983,-27.6542"/>
<polygon fill="#191970" stroke="#191970" points="594.4364,-29.5916 598.0792,-19.6427 589.0273,-25.1484 594.4364,-29.5916"/>
</g>
<!-- Node6&#45;&gt;Node10 -->
<g id="edge12" class="edge">
<title>Node6&#45;&gt;Node10</title>
<path fill="none" stroke="#191970" d="M542.0588,-56.2455C525.96,-47.4928 502.1121,-34.527 483.7609,-24.5496"/>
<polygon fill="#191970" stroke="#191970" points="485.1929,-21.3444 474.7356,-19.6427 481.8493,-27.4942 485.1929,-21.3444"/>
</g>
<!-- Node11&#45;&gt;Node2 -->
<g id="edge17" class="edge">
<title>Node11&#45;&gt;Node2</title>
<path fill="none" stroke="#191970" d="M244.5412,-112.3733C213.9793,-103.021 167.4174,-88.7725 133.9739,-78.5385"/>
<polygon fill="#191970" stroke="#191970" points="134.6348,-75.0806 124.0483,-75.5011 132.5864,-81.7742 134.6348,-75.0806"/>
</g>
<!-- Node11&#45;&gt;Node6 -->
<g id="edge16" class="edge">
<title>Node11&#45;&gt;Node6</title>
<path fill="none" stroke="#191970" d="M323.2156,-112.6899C375.7094,-102.339 460.0076,-85.7168 512.5827,-75.3499"/>
<polygon fill="#191970" stroke="#191970" points="513.5219,-78.7322 522.6559,-73.3636 512.1676,-71.8644 513.5219,-78.7322"/>
</g>
<!-- Node12 -->
<g id="node13" class="node">
<title>Node12</title>
<polygon fill="#ffffff" stroke="#bfbfbf" points="250,-56.5 250,-75.5 302,-75.5 302,-56.5 250,-56.5"/>
<text text-anchor="middle" x="276" y="-63.5" font-family="Helvetica,sans-Serif" font-size="10.00" fill="#000000">stdarg.h</text>
</g>
<!-- Node11&#45;&gt;Node12 -->
<g id="edge15" class="edge">
<title>Node11&#45;&gt;Node12</title>
<path fill="none" stroke="#191970" d="M276,-112.2455C276,-104.9382 276,-94.6944 276,-85.7046"/>
<polygon fill="#191970" stroke="#191970" points="279.5001,-85.6426 276,-75.6427 272.5001,-85.6427 279.5001,-85.6426"/>
</g>
<!-- Node13&#45;&gt;Node2 -->
<g id="edge19" class="edge">
<title>Node13&#45;&gt;Node2</title>
<path fill="none" stroke="#191970" d="M338.4833,-291.4642C314.1453,-274.0818 261.6981,-235.6465 221,-199 177.8068,-160.1068 131.5678,-109.5651 108.2793,-83.4026"/>
<polygon fill="#191970" stroke="#191970" points="110.807,-80.9776 101.5575,-75.8106 105.566,-85.6179 110.807,-80.9776"/>
</g>
<!-- Node14 -->
<g id="node15" class="node">
<title>Node14</title>
<g id="a_node15"><a xlink:href="bitfield_8h.html" target="_top" xlink:title="zrtos/bitfield.h">
<polygon fill="#ffffff" stroke="#000000" points="545,-174 545,-193 623,-193 623,-174 545,-174"/>
<text text-anchor="middle" x="584" y="-181" font-family="Helvetica,sans-Serif" font-size="10.00" fill="#000000">zrtos/bitfield.h</text>
</a>
</g>
</g>
<!-- Node13&#45;&gt;Node14 -->
<g id="edge20" class="edge">
<title>Node13&#45;&gt;Node14</title>
<path fill="none" stroke="#191970" d="M373.1788,-291.4392C393.1296,-282.3431 423.7865,-268.1348 450,-255 487.9587,-235.9799 531.1782,-212.6005 558.0243,-197.8698"/>
<polygon fill="#191970" stroke="#191970" points="559.7269,-200.9279 566.8018,-193.0414 556.353,-194.7946 559.7269,-200.9279"/>
</g>
<!-- Node13&#45;&gt;Node16 -->
<g id="edge25" class="edge">
<title>Node13&#45;&gt;Node16</title>
<path fill="none" stroke="#191970" d="M359.3158,-291.2455C365.2179,-283.3761 373.6742,-272.101 380.7594,-262.6542"/>
<polygon fill="#191970" stroke="#191970" points="383.568,-264.7427 386.768,-254.6427 377.9679,-260.5427 383.568,-264.7427"/>
</g>
<!-- Node14&#45;&gt;Node6 -->
<g id="edge21" class="edge">
<title>Node14&#45;&gt;Node6</title>
<path fill="none" stroke="#191970" d="M590.8182,-173.5621C599.5374,-159.543 612.5441,-133.2934 604,-112 599.3367,-100.3782 590.1812,-90.0324 581.4238,-82.1099"/>
<polygon fill="#191970" stroke="#191970" points="583.5368,-79.3136 573.6336,-75.5484 579.0273,-84.6675 583.5368,-79.3136"/>
</g>
<!-- Node14&#45;&gt;Node15 -->
<g id="edge22" class="edge">
<title>Node14&#45;&gt;Node15</title>
<path fill="none" stroke="#191970" d="M580.25,-173.8906C576.8532,-165.1862 571.7469,-152.1015 567.512,-141.2494"/>
<polygon fill="#191970" stroke="#191970" points="570.6989,-139.7882 563.8029,-131.7449 564.1778,-142.3331 570.6989,-139.7882"/>
</g>
<!-- Node15&#45;&gt;Node6 -->
<g id="edge23" class="edge">
<title>Node15&#45;&gt;Node6</title>
<path fill="none" stroke="#191970" d="M560,-112.2455C560,-104.9382 560,-94.6944 560,-85.7046"/>
<polygon fill="#191970" stroke="#191970" points="563.5001,-85.6426 560,-75.6427 556.5001,-85.6427 563.5001,-85.6426"/>
</g>
<!-- Node15&#45;&gt;Node10 -->
<g id="edge24" class="edge">
<title>Node15&#45;&gt;Node10</title>
<path fill="none" stroke="#191970" d="M549.9174,-112.3339C540.4528,-103.1635 525.9951,-88.9049 514,-76 499.1184,-59.9897 482.893,-41.0462 471.5727,-27.5701"/>
<polygon fill="#191970" stroke="#191970" points="474.0028,-25.0198 464.9054,-19.5897 468.6309,-29.5079 474.0028,-25.0198"/>
</g>
<!-- Node16&#45;&gt;Node6 -->
<g id="edge31" class="edge">
<title>Node16&#45;&gt;Node6</title>
<path fill="none" stroke="#191970" d="M441.7629,-242.7342C504.1859,-238.6571 608.3613,-227.645 632,-199 644.6187,-183.7088 624.4258,-118.9983 620,-112 611.9496,-99.2702 599.061,-88.7101 587.2891,-80.9322"/>
<polygon fill="#191970" stroke="#191970" points="588.9447,-77.8404 578.6033,-75.537 585.2511,-83.7867 588.9447,-77.8404"/>
</g>
<!-- Node17 -->
<g id="node18" class="node">
<title>Node17</title>
<g id="a_node18"><a xlink:href="str_8h.html" target="_top" xlink:title="zrtos/str.h">
<polygon fill="#ffffff" stroke="#000000" points="465.5,-174 465.5,-193 526.5,-193 526.5,-174 465.5,-174"/>
<text text-anchor="middle" x="496" y="-181" font-family="Helvetica,sans-Serif" font-size="10.00" fill="#000000">zrtos/str.h</text>
</a>
</g>
</g>
<!-- Node16&#45;&gt;Node17 -->
<g id="edge26" class="edge">
<title>Node16&#45;&gt;Node17</title>
<path fill="none" stroke="#191970" d="M409.9375,-235.3906C426.4051,-225.4616 452.3258,-209.833 471.4204,-198.3201"/>
<polygon fill="#191970" stroke="#191970" points="473.4178,-201.2027 480.1744,-193.0419 469.8034,-195.2081 473.4178,-201.2027"/>
</g>
<!-- Node18 -->
<g id="node19" class="node">
<title>Node18</title>
<g id="a_node19"><a xlink:href="clist_8h.html" target="_top" xlink:title="zrtos/clist.h">
<polygon fill="#ffffff" stroke="#000000" points="693,-112.5 693,-131.5 761,-131.5 761,-112.5 693,-112.5"/>
<text text-anchor="middle" x="727" y="-119.5" font-family="Helvetica,sans-Serif" font-size="10.00" fill="#000000">zrtos/clist.h</text>
</a>
</g>
</g>
<!-- Node16&#45;&gt;Node18 -->
<g id="edge32" class="edge">
<title>Node16&#45;&gt;Node18</title>
<path fill="none" stroke="#191970" d="M441.7726,-243.9333C518.5379,-241.2516 664.6378,-231.8546 703,-199 719.5671,-184.8114 724.8586,-159.379 726.4625,-141.6404"/>
<polygon fill="#191970" stroke="#191970" points="729.9642,-141.7133 727.0592,-131.5246 722.9763,-141.3011 729.9642,-141.7133"/>
</g>
<!-- Node19 -->
<g id="node20" class="node">
<title>Node19</title>
<g id="a_node20"><a xlink:href="vfs__inode_8h.html" target="_top" xlink:title="zrtos/vfs_inode.h">
<polygon fill="#ffffff" stroke="#000000" points="230,-174 230,-193 322,-193 322,-174 230,-174"/>
<text text-anchor="middle" x="276" y="-181" font-family="Helvetica,sans-Serif" font-size="10.00" fill="#000000">zrtos/vfs_inode.h</text>
</a>
</g>
</g>
<!-- Node16&#45;&gt;Node19 -->
<g id="edge34" class="edge">
<title>Node16&#45;&gt;Node19</title>
<path fill="none" stroke="#191970" d="M375.5625,-235.3906C356.1653,-225.2811 325.431,-209.2628 303.2383,-197.6962"/>
<polygon fill="#191970" stroke="#191970" points="304.7936,-194.56 294.308,-193.0419 301.5582,-200.7675 304.7936,-194.56"/>
</g>
<!-- Node20 -->
<g id="node21" class="node">
<title>Node20</title>
<g id="a_node21"><a xlink:href="null_8h.html" target="_top" xlink:title="zrtos/vfs/module/null\l/null.h">
<polygon fill="#ffffff" stroke="#000000" points="340.5,-168.5 340.5,-198.5 447.5,-198.5 447.5,-168.5 340.5,-168.5"/>
<text text-anchor="start" x="348.5" y="-186.5" font-family="Helvetica,sans-Serif" font-size="10.00" fill="#000000">zrtos/vfs/module/null</text>
<text text-anchor="middle" x="394" y="-175.5" font-family="Helvetica,sans-Serif" font-size="10.00" fill="#000000">/null.h</text>
</a>
</g>
</g>
<!-- Node16&#45;&gt;Node20 -->
<g id="edge36" class="edge">
<title>Node16&#45;&gt;Node20</title>
<path fill="none" stroke="#191970" d="M394,-235.3906C394,-228.2234 394,-218.0862 394,-208.671"/>
<polygon fill="#191970" stroke="#191970" points="397.5001,-208.5446 394,-198.5446 390.5001,-208.5446 397.5001,-208.5446"/>
</g>
<!-- Node17&#45;&gt;Node6 -->
<g id="edge28" class="edge">
<title>Node17&#45;&gt;Node6</title>
<path fill="none" stroke="#191970" d="M497.0076,-173.6504C498.8209,-159.281 503.5714,-132.0968 515,-112 521.3425,-100.847 531.0506,-90.4432 539.8283,-82.3609"/>
<polygon fill="#191970" stroke="#191970" points="542.2889,-84.8583 547.5045,-75.6362 537.6763,-79.593 542.2889,-84.8583"/>
</g>
<!-- Node17&#45;&gt;Node10 -->
<g id="edge29" class="edge">
<title>Node17&#45;&gt;Node10</title>
<path fill="none" stroke="#191970" d="M493.8476,-173.9248C487.6828,-146.499 469.8648,-67.232 461.4724,-29.8964"/>
<polygon fill="#191970" stroke="#191970" points="464.8018,-28.7485 459.1938,-19.7595 457.9722,-30.2837 464.8018,-28.7485"/>
</g>
<!-- Node17&#45;&gt;Node12 -->
<g id="edge27" class="edge">
<title>Node17&#45;&gt;Node12</title>
<path fill="none" stroke="#191970" d="M477.9965,-173.8845C439.3862,-153.2631 348.4445,-104.692 302.9311,-80.3837"/>
<polygon fill="#191970" stroke="#191970" points="304.4134,-77.2075 293.9437,-75.5836 301.1156,-83.382 304.4134,-77.2075"/>
</g>
<!-- Node17&#45;&gt;Node15 -->
<g id="edge30" class="edge">
<title>Node17&#45;&gt;Node15</title>
<path fill="none" stroke="#191970" d="M506,-173.8906C515.7119,-164.5581 530.6639,-150.1902 542.3741,-138.9374"/>
<polygon fill="#191970" stroke="#191970" points="545.0736,-141.1974 549.859,-131.7449 540.2234,-136.15 545.0736,-141.1974"/>
</g>
<!-- Node18&#45;&gt;Node6 -->
<g id="edge33" class="edge">
<title>Node18&#45;&gt;Node6</title>
<path fill="none" stroke="#191970" d="M698.2917,-112.3733C670.6423,-103.1016 628.6424,-89.0178 598.1834,-78.804"/>
<polygon fill="#191970" stroke="#191970" points="598.9276,-75.3621 588.3337,-75.5011 596.7021,-81.9989 598.9276,-75.3621"/>
</g>
<!-- Node19&#45;&gt;Node11 -->
<g id="edge35" class="edge">
<title>Node19&#45;&gt;Node11</title>
<path fill="none" stroke="#191970" d="M276,-173.8906C276,-165.3657 276,-152.6392 276,-141.9235"/>
<polygon fill="#191970" stroke="#191970" points="279.5001,-141.7448 276,-131.7449 272.5001,-141.7449 279.5001,-141.7448"/>
</g>
<!-- Node20&#45;&gt;Node11 -->
<g id="edge37" class="edge">
<title>Node20&#45;&gt;Node11</title>
<path fill="none" stroke="#191970" d="M365.134,-168.4554C346.3089,-158.644 321.889,-145.9167 303.3708,-136.2653"/>
<polygon fill="#191970" stroke="#191970" points="304.7713,-133.0484 294.2858,-131.5303 301.536,-139.2559 304.7713,-133.0484"/>
</g>
<!-- Node21&#45;&gt;Node5 -->
<g id="edge42" class="edge">
<title>Node21&#45;&gt;Node5</title>
<path fill="none" stroke="#191970" d="M32.7283,-112.4509C37.9711,-94.1013 49.5455,-53.5908 56.4659,-29.3693"/>
<polygon fill="#191970" stroke="#191970" points="59.8967,-30.1017 59.2786,-19.5249 53.166,-28.1786 59.8967,-30.1017"/>
</g>
<!-- Node21&#45;&gt;Node12 -->
<g id="edge41" class="edge">
<title>Node21&#45;&gt;Node12</title>
<path fill="none" stroke="#191970" d="M60.1644,-115.1333C105.5607,-104.7992 191.2929,-85.2829 239.9298,-74.2111"/>
<polygon fill="#191970" stroke="#191970" points="240.7438,-77.6154 249.7174,-71.983 239.19,-70.79 240.7438,-77.6154"/>
</g>
</g>
</svg>
