<?xml version="1.0" encoding="UTF-8" standalone="no"?>
<!DOCTYPE svg PUBLIC "-//W3C//DTD SVG 1.1//EN"
 "http://www.w3.org/Graphics/SVG/1.1/DTD/svg11.dtd">
<!-- Generated by graphviz version 10.0.1 (20240210.2158)
 -->
<!-- Title: zrtos_vfs_module_mcp2515__set_sleep_mode Pages: 1 -->
<svg width="1127pt" height="125pt"
 viewBox="0.00 0.00 1127.25 125.00" xmlns="http://www.w3.org/2000/svg" xmlns:xlink="http://www.w3.org/1999/xlink">
<g id="graph0" class="graph" transform="scale(1 1) rotate(0) translate(4 121)">
<title>zrtos_vfs_module_mcp2515__set_sleep_mode</title>
<!-- Node1 -->
<g id="Node000001" class="node">
<title>Node1</title>
<g id="a_Node000001"><a xlink:title=" ">
<polygon fill="#999999" stroke="#666666" points="136,-82 0,-82 0,-50 136,-50 136,-82"/>
<text text-anchor="start" x="8" y="-68.5" font-family="Helvetica,sans-Serif" font-size="10.00">zrtos_vfs_module_mcp2515</text>
<text text-anchor="middle" x="68" y="-56.5" font-family="Helvetica,sans-Serif" font-size="10.00">__set_sleep_mode</text>
</a>
</g>
</g>
<!-- Node2 -->
<g id="Node000002" class="node">
<title>Node2</title>
<g id="a_Node000002"><a xlink:href="mcp2515_8h.html#a26c81272df128ccf491a5a2ec66e7197" target="_top" xlink:title=" ">
<polygon fill="white" stroke="#666666" points="308,-82 172,-82 172,-50 308,-50 308,-82"/>
<text text-anchor="start" x="180" y="-68.5" font-family="Helvetica,sans-Serif" font-size="10.00">zrtos_vfs_module_mcp2515</text>
<text text-anchor="middle" x="240" y="-56.5" font-family="Helvetica,sans-Serif" font-size="10.00">__set_mode</text>
</a>
</g>
</g>
<!-- Node1&#45;&gt;Node2 -->
<g id="edge1_Node000001_Node000002" class="edge">
<title>Node1&#45;&gt;Node2</title>
<g id="a_edge1_Node000001_Node000002"><a xlink:title=" ">
<path fill="none" stroke="#63b8ff" d="M136.19,-66C144.14,-66 152.3,-66 160.39,-66"/>
<polygon fill="#63b8ff" stroke="#63b8ff" points="160.23,-69.5 170.23,-66 160.23,-62.5 160.23,-69.5"/>
</a>
</g>
</g>
<!-- Node3 -->
<g id="Node000003" class="node">
<title>Node3</title>
<g id="a_Node000003"><a xlink:href="error_8h.html#add13298163f63b7d37ed9f12d57e1a31" target="_top" xlink:title=" ">
<polygon fill="white" stroke="#666666" points="982.5,-117 860,-117 860,-97 982.5,-97 982.5,-117"/>
<text text-anchor="middle" x="921.25" y="-103.5" font-family="Helvetica,sans-Serif" font-size="10.00">zrtos_error__is_success</text>
</a>
</g>
</g>
<!-- Node2&#45;&gt;Node3 -->
<g id="edge2_Node000002_Node000003" class="edge">
<title>Node2&#45;&gt;Node3</title>
<g id="a_edge2_Node000002_Node000003"><a xlink:title=" ">
<path fill="none" stroke="#63b8ff" d="M308.24,-75.84C320.13,-77.38 332.42,-78.84 344,-80 524.95,-98.06 739.11,-104.08 848.34,-106.06"/>
<polygon fill="#63b8ff" stroke="#63b8ff" points="847.96,-109.55 858.02,-106.23 848.08,-102.56 847.96,-109.55"/>
</a>
</g>
</g>
<!-- Node4 -->
<g id="Node000004" class="node">
<title>Node4</title>
<g id="a_Node000004"><a xlink:href="mcp2515_8h.html#aefa30fb59e86697b8523673b355f6a3c" target="_top" xlink:title=" ">
<polygon fill="white" stroke="#666666" points="652,-82 516,-82 516,-50 652,-50 652,-82"/>
<text text-anchor="start" x="524" y="-68.5" font-family="Helvetica,sans-Serif" font-size="10.00">zrtos_vfs_module_mcp2515</text>
<text text-anchor="middle" x="584" y="-56.5" font-family="Helvetica,sans-Serif" font-size="10.00">__modify_register</text>
</a>
</g>
</g>
<!-- Node2&#45;&gt;Node4 -->
<g id="edge3_Node000002_Node000004" class="edge">
<title>Node2&#45;&gt;Node4</title>
<g id="a_edge3_Node000002_Node000004"><a xlink:title=" ">
<path fill="none" stroke="#63b8ff" d="M308.16,-66C364.54,-66 445.16,-66 504.5,-66"/>
<polygon fill="#63b8ff" stroke="#63b8ff" points="504.19,-69.5 514.19,-66 504.19,-62.5 504.19,-69.5"/>
</a>
</g>
</g>
<!-- Node8 -->
<g id="Node000008" class="node">
<title>Node8</title>
<g id="a_Node000008"><a xlink:href="mcp2515_8h.html#a18c1133ba60ff7ea81147e0a76bb0d44" target="_top" xlink:title=" ">
<polygon fill="white" stroke="#666666" points="480,-35 344,-35 344,-3 480,-3 480,-35"/>
<text text-anchor="start" x="352" y="-21.5" font-family="Helvetica,sans-Serif" font-size="10.00">zrtos_vfs_module_mcp2515</text>
<text text-anchor="middle" x="412" y="-9.5" font-family="Helvetica,sans-Serif" font-size="10.00">__read_register</text>
</a>
</g>
</g>
<!-- Node2&#45;&gt;Node8 -->
<g id="edge8_Node000002_Node000008" class="edge">
<title>Node2&#45;&gt;Node8</title>
<g id="a_edge8_Node000002_Node000008"><a xlink:title=" ">
<path fill="none" stroke="#63b8ff" d="M300.46,-49.56C313.4,-45.98 327.21,-42.17 340.53,-38.48"/>
<polygon fill="#63b8ff" stroke="#63b8ff" points="341.41,-41.87 350.12,-35.83 339.55,-35.12 341.41,-41.87"/>
</a>
</g>
</g>
<!-- Node5 -->
<g id="Node000005" class="node">
<title>Node5</title>
<g id="a_Node000005"><a xlink:href="mcp2515_8h.html#a757cc129737831c901694878ce1acba1" target="_top" xlink:title=" ">
<polygon fill="white" stroke="#666666" points="824,-82 688,-82 688,-50 824,-50 824,-82"/>
<text text-anchor="start" x="696" y="-68.5" font-family="Helvetica,sans-Serif" font-size="10.00">zrtos_vfs_module_mcp2515</text>
<text text-anchor="middle" x="756" y="-56.5" font-family="Helvetica,sans-Serif" font-size="10.00">__spi_transfer</text>
</a>
</g>
</g>
<!-- Node4&#45;&gt;Node5 -->
<g id="edge4_Node000004_Node000005" class="edge">
<title>Node4&#45;&gt;Node5</title>
<g id="a_edge4_Node000004_Node000005"><a xlink:title=" ">
<path fill="none" stroke="#63b8ff" d="M652.19,-66C660.14,-66 668.3,-66 676.39,-66"/>
<polygon fill="#63b8ff" stroke="#63b8ff" points="676.23,-69.5 686.23,-66 676.23,-62.5 676.23,-69.5"/>
</a>
</g>
</g>
<!-- Node5&#45;&gt;Node3 -->
<g id="edge5_Node000005_Node000003" class="edge">
<title>Node5&#45;&gt;Node3</title>
<g id="a_edge5_Node000005_Node000003"><a xlink:title=" ">
<path fill="none" stroke="#63b8ff" d="M822.46,-82.44C837.59,-86.24 853.49,-90.23 867.96,-93.87"/>
<polygon fill="#63b8ff" stroke="#63b8ff" points="866.7,-97.16 877.25,-96.2 868.41,-90.37 866.7,-97.16"/>
</a>
</g>
</g>
<!-- Node6 -->
<g id="Node000006" class="node">
<title>Node6</title>
<g id="a_Node000006"><a xlink:href="vfs__fd_8h.html#a1c176ae3990492b9deae02682a6782e1" target="_top" xlink:title=" ">
<polygon fill="white" stroke="#666666" points="969.38,-76 873.12,-76 873.12,-56 969.38,-56 969.38,-76"/>
<text text-anchor="middle" x="921.25" y="-62.5" font-family="Helvetica,sans-Serif" font-size="10.00">zrtos_vfs_fd__read</text>
</a>
</g>
</g>
<!-- Node5&#45;&gt;Node6 -->
<g id="edge6_Node000005_Node000006" class="edge">
<title>Node5&#45;&gt;Node6</title>
<g id="a_edge6_Node000005_Node000006"><a xlink:title=" ">
<path fill="none" stroke="#63b8ff" d="M824.34,-66C836.72,-66 849.55,-66 861.65,-66"/>
<polygon fill="#63b8ff" stroke="#63b8ff" points="861.47,-69.5 871.47,-66 861.47,-62.5 861.47,-69.5"/>
</a>
</g>
</g>
<!-- Node7 -->
<g id="Node000007" class="node">
<title>Node7</title>
<g id="a_Node000007"><a xlink:href="vfs__file_8h.html#a27e4ed3d3306da0eaccc004eebc8d3c4" target="_top" xlink:title=" ">
<polygon fill="white" stroke="#666666" points="1119.25,-76 1018.5,-76 1018.5,-56 1119.25,-56 1119.25,-76"/>
<text text-anchor="middle" x="1068.88" y="-62.5" font-family="Helvetica,sans-Serif" font-size="10.00">zrtos_vfs_file__read</text>
</a>
</g>
</g>
<!-- Node6&#45;&gt;Node7 -->
<g id="edge7_Node000006_Node000007" class="edge">
<title>Node6&#45;&gt;Node7</title>
<g id="a_edge7_Node000006_Node000007"><a xlink:title=" ">
<path fill="none" stroke="#63b8ff" d="M969.53,-66C981.42,-66 994.35,-66 1006.81,-66"/>
<polygon fill="#63b8ff" stroke="#63b8ff" points="1006.56,-69.5 1016.56,-66 1006.56,-62.5 1006.56,-69.5"/>
</a>
</g>
</g>
<!-- Node9 -->
<g id="Node000009" class="node">
<title>Node9</title>
<g id="a_Node000009"><a xlink:href="mcp2515_8h.html#af0bd06ab9cb60e9f7a3b5d77ae76057d" target="_top" xlink:title=" ">
<polygon fill="white" stroke="#666666" points="652,-32 516,-32 516,0 652,0 652,-32"/>
<text text-anchor="start" x="524" y="-18.5" font-family="Helvetica,sans-Serif" font-size="10.00">zrtos_vfs_module_mcp2515</text>
<text text-anchor="middle" x="584" y="-6.5" font-family="Helvetica,sans-Serif" font-size="10.00">__read_registers</text>
</a>
</g>
</g>
<!-- Node8&#45;&gt;Node9 -->
<g id="edge9_Node000008_Node000009" class="edge">
<title>Node8&#45;&gt;Node9</title>
<g id="a_edge9_Node000008_Node000009"><a xlink:title=" ">
<path fill="none" stroke="#63b8ff" d="M480.19,-17.81C488.14,-17.67 496.3,-17.53 504.39,-17.39"/>
<polygon fill="#63b8ff" stroke="#63b8ff" points="504.29,-20.89 514.23,-17.21 504.17,-13.89 504.29,-20.89"/>
</a>
</g>
</g>
<!-- Node9&#45;&gt;Node5 -->
<g id="edge10_Node000009_Node000005" class="edge">
<title>Node9&#45;&gt;Node5</title>
<g id="a_edge10_Node000009_Node000005"><a xlink:title=" ">
<path fill="none" stroke="#63b8ff" d="M640.66,-32.37C655.85,-36.84 672.46,-41.72 688.19,-46.35"/>
<polygon fill="#63b8ff" stroke="#63b8ff" points="686.89,-49.61 697.47,-49.08 688.86,-42.9 686.89,-49.61"/>
</a>
</g>
</g>
</g>
</svg>
