<?xml version="1.0" encoding="UTF-8" standalone="no"?>
<!DOCTYPE svg PUBLIC "-//W3C//DTD SVG 1.1//EN"
 "http://www.w3.org/Graphics/SVG/1.1/DTD/svg11.dtd">
<!-- Generated by graphviz version 2.40.1 (20161225.0304)
 -->
<!-- Title: zrtos_vfs_module_mcp2515__clear_interrupts Pages: 1 -->
<svg width="964pt" height="66pt"
 viewBox="0.00 0.00 964.00 66.00" xmlns="http://www.w3.org/2000/svg" xmlns:xlink="http://www.w3.org/1999/xlink">
<g id="graph0" class="graph" transform="scale(1 1) rotate(0) translate(4 62)">
<title>zrtos_vfs_module_mcp2515__clear_interrupts</title>
<polygon fill="#ffffff" stroke="transparent" points="-4,4 -4,-62 960,-62 960,4 -4,4"/>
<!-- Node23 -->
<g id="node1" class="node">
<title>Node23</title>
<polygon fill="#bfbfbf" stroke="#000000" points="0,-14 0,-44 139,-44 139,-14 0,-14"/>
<text text-anchor="start" x="8" y="-32" font-family="Helvetica,sans-Serif" font-size="10.00" fill="#000000">zrtos_vfs_module_mcp2515</text>
<text text-anchor="middle" x="69.5" y="-21" font-family="Helvetica,sans-Serif" font-size="10.00" fill="#000000">__clear_interrupts</text>
</g>
<!-- Node24 -->
<g id="node2" class="node">
<title>Node24</title>
<g id="a_node2"><a xlink:href="mcp2515_8h.html#ac322ac78e5668f59b86ba8744900b5a1" target="_top" xlink:title="zrtos_vfs_module_mcp2515\l__set_register">
<polygon fill="#ffffff" stroke="#000000" points="175,-14 175,-44 314,-44 314,-14 175,-14"/>
<text text-anchor="start" x="183" y="-32" font-family="Helvetica,sans-Serif" font-size="10.00" fill="#000000">zrtos_vfs_module_mcp2515</text>
<text text-anchor="middle" x="244.5" y="-21" font-family="Helvetica,sans-Serif" font-size="10.00" fill="#000000">__set_register</text>
</a>
</g>
</g>
<!-- Node23&#45;&gt;Node24 -->
<g id="edge1" class="edge">
<title>Node23&#45;&gt;Node24</title>
<path fill="none" stroke="#191970" d="M139.1675,-29C147.5024,-29 156.0628,-29 164.5285,-29"/>
<polygon fill="#191970" stroke="#191970" points="164.7864,-32.5001 174.7863,-29 164.7863,-25.5001 164.7864,-32.5001"/>
</g>
<!-- Node25 -->
<g id="node3" class="node">
<title>Node25</title>
<g id="a_node3"><a xlink:href="mcp2515_8h.html#a267ca18d5b51831eabb3776665d9400c" target="_top" xlink:title="zrtos_vfs_module_mcp2515\l__set_registers">
<polygon fill="#ffffff" stroke="#000000" points="350,-14 350,-44 489,-44 489,-14 350,-14"/>
<text text-anchor="start" x="358" y="-32" font-family="Helvetica,sans-Serif" font-size="10.00" fill="#000000">zrtos_vfs_module_mcp2515</text>
<text text-anchor="middle" x="419.5" y="-21" font-family="Helvetica,sans-Serif" font-size="10.00" fill="#000000">__set_registers</text>
</a>
</g>
</g>
<!-- Node24&#45;&gt;Node25 -->
<g id="edge2" class="edge">
<title>Node24&#45;&gt;Node25</title>
<path fill="none" stroke="#191970" d="M314.1675,-29C322.5024,-29 331.0628,-29 339.5285,-29"/>
<polygon fill="#191970" stroke="#191970" points="339.7864,-32.5001 349.7863,-29 339.7863,-25.5001 339.7864,-32.5001"/>
</g>
<!-- Node26 -->
<g id="node4" class="node">
<title>Node26</title>
<g id="a_node4"><a xlink:href="vfs__fd_8h.html#a1e3e2241dc54e1283f012b7ecc641053" target="_top" xlink:title="zrtos_vfs_fd__spi_transfer">
<polygon fill="#ffffff" stroke="#000000" points="525,-19.5 525,-38.5 657,-38.5 657,-19.5 525,-19.5"/>
<text text-anchor="middle" x="591" y="-26.5" font-family="Helvetica,sans-Serif" font-size="10.00" fill="#000000">zrtos_vfs_fd__spi_transfer</text>
</a>
</g>
</g>
<!-- Node25&#45;&gt;Node26 -->
<g id="edge3" class="edge">
<title>Node25&#45;&gt;Node26</title>
<path fill="none" stroke="#191970" d="M489.2556,-29C497.6286,-29 506.2126,-29 514.6727,-29"/>
<polygon fill="#191970" stroke="#191970" points="514.9083,-32.5001 524.9083,-29 514.9082,-25.5001 514.9083,-32.5001"/>
</g>
<!-- Node27 -->
<g id="node5" class="node">
<title>Node27</title>
<g id="a_node5"><a xlink:href="vfs__fd_8h.html#a1c176ae3990492b9deae02682a6782e1" target="_top" xlink:title="zrtos_vfs_fd__read">
<polygon fill="#ffffff" stroke="#000000" points="704.5,-38.5 704.5,-57.5 804.5,-57.5 804.5,-38.5 704.5,-38.5"/>
<text text-anchor="middle" x="754.5" y="-45.5" font-family="Helvetica,sans-Serif" font-size="10.00" fill="#000000">zrtos_vfs_fd__read</text>
</a>
</g>
</g>
<!-- Node26&#45;&gt;Node27 -->
<g id="edge4" class="edge">
<title>Node26&#45;&gt;Node27</title>
<path fill="none" stroke="#191970" d="M657.0304,-36.6733C669.3552,-38.1055 682.1753,-39.5953 694.3125,-41.0057"/>
<polygon fill="#191970" stroke="#191970" points="693.9841,-44.491 704.3213,-42.1688 694.7922,-37.5378 693.9841,-44.491"/>
</g>
<!-- Node29 -->
<g id="node7" class="node">
<title>Node29</title>
<g id="a_node7"><a xlink:href="error_8h.html#add13298163f63b7d37ed9f12d57e1a31" target="_top" xlink:title="zrtos_error__is_success">
<polygon fill="#ffffff" stroke="#000000" points="693,-.5 693,-19.5 816,-19.5 816,-.5 693,-.5"/>
<text text-anchor="middle" x="754.5" y="-7.5" font-family="Helvetica,sans-Serif" font-size="10.00" fill="#000000">zrtos_error__is_success</text>
</a>
</g>
</g>
<!-- Node26&#45;&gt;Node29 -->
<g id="edge6" class="edge">
<title>Node26&#45;&gt;Node29</title>
<path fill="none" stroke="#191970" d="M657.0304,-21.3267C665.5664,-20.3348 674.3399,-19.3152 682.9596,-18.3136"/>
<polygon fill="#191970" stroke="#191970" points="683.4552,-21.7796 692.9843,-17.1486 682.6471,-14.8264 683.4552,-21.7796"/>
</g>
<!-- Node28 -->
<g id="node6" class="node">
<title>Node28</title>
<g id="a_node6"><a xlink:href="vfs__file_8h.html#a27e4ed3d3306da0eaccc004eebc8d3c4" target="_top" xlink:title="zrtos_vfs_file__read">
<polygon fill="#ffffff" stroke="#000000" points="852,-38.5 852,-57.5 956,-57.5 956,-38.5 852,-38.5"/>
<text text-anchor="middle" x="904" y="-45.5" font-family="Helvetica,sans-Serif" font-size="10.00" fill="#000000">zrtos_vfs_file__read</text>
</a>
</g>
</g>
<!-- Node27&#45;&gt;Node28 -->
<g id="edge5" class="edge">
<title>Node27&#45;&gt;Node28</title>
<path fill="none" stroke="#191970" d="M804.6972,-48C816.5597,-48 829.3503,-48 841.677,-48"/>
<polygon fill="#191970" stroke="#191970" points="841.8917,-51.5001 851.8917,-48 841.8917,-44.5001 841.8917,-51.5001"/>
</g>
</g>
</svg>
