<?xml version="1.0" encoding="UTF-8" standalone="no"?>
<!DOCTYPE svg PUBLIC "-//W3C//DTD SVG 1.1//EN"
 "http://www.w3.org/Graphics/SVG/1.1/DTD/svg11.dtd">
<!-- Generated by graphviz version 10.0.1 (20240210.2158)
 -->
<!-- Title: zrtos_vfs_module_mcp2515__read_register Pages: 1 -->
<svg width="783pt" height="66pt"
 viewBox="0.00 0.00 783.25 66.00" xmlns="http://www.w3.org/2000/svg" xmlns:xlink="http://www.w3.org/1999/xlink">
<g id="graph0" class="graph" transform="scale(1 1) rotate(0) translate(4 62)">
<title>zrtos_vfs_module_mcp2515__read_register</title>
<!-- Node1 -->
<g id="Node000001" class="node">
<title>Node1</title>
<g id="a_Node000001"><a xlink:title=" ">
<polygon fill="#999999" stroke="#666666" points="136,-45 0,-45 0,-13 136,-13 136,-45"/>
<text text-anchor="start" x="8" y="-31.5" font-family="Helvetica,sans-Serif" font-size="10.00">zrtos_vfs_module_mcp2515</text>
<text text-anchor="middle" x="68" y="-19.5" font-family="Helvetica,sans-Serif" font-size="10.00">__read_register</text>
</a>
</g>
</g>
<!-- Node2 -->
<g id="Node000002" class="node">
<title>Node2</title>
<g id="a_Node000002"><a xlink:href="mcp2515_8h.html#af0bd06ab9cb60e9f7a3b5d77ae76057d" target="_top" xlink:title=" ">
<polygon fill="white" stroke="#666666" points="308,-45 172,-45 172,-13 308,-13 308,-45"/>
<text text-anchor="start" x="180" y="-31.5" font-family="Helvetica,sans-Serif" font-size="10.00">zrtos_vfs_module_mcp2515</text>
<text text-anchor="middle" x="240" y="-19.5" font-family="Helvetica,sans-Serif" font-size="10.00">__read_registers</text>
</a>
</g>
</g>
<!-- Node1&#45;&gt;Node2 -->
<g id="edge1_Node000001_Node000002" class="edge">
<title>Node1&#45;&gt;Node2</title>
<g id="a_edge1_Node000001_Node000002"><a xlink:title=" ">
<path fill="none" stroke="#63b8ff" d="M136.19,-29C144.14,-29 152.3,-29 160.39,-29"/>
<polygon fill="#63b8ff" stroke="#63b8ff" points="160.23,-32.5 170.23,-29 160.23,-25.5 160.23,-32.5"/>
</a>
</g>
</g>
<!-- Node3 -->
<g id="Node000003" class="node">
<title>Node3</title>
<g id="a_Node000003"><a xlink:href="mcp2515_8h.html#a757cc129737831c901694878ce1acba1" target="_top" xlink:title=" ">
<polygon fill="white" stroke="#666666" points="480,-45 344,-45 344,-13 480,-13 480,-45"/>
<text text-anchor="start" x="352" y="-31.5" font-family="Helvetica,sans-Serif" font-size="10.00">zrtos_vfs_module_mcp2515</text>
<text text-anchor="middle" x="412" y="-19.5" font-family="Helvetica,sans-Serif" font-size="10.00">__spi_transfer</text>
</a>
</g>
</g>
<!-- Node2&#45;&gt;Node3 -->
<g id="edge2_Node000002_Node000003" class="edge">
<title>Node2&#45;&gt;Node3</title>
<g id="a_edge2_Node000002_Node000003"><a xlink:title=" ">
<path fill="none" stroke="#63b8ff" d="M308.19,-29C316.14,-29 324.3,-29 332.39,-29"/>
<polygon fill="#63b8ff" stroke="#63b8ff" points="332.23,-32.5 342.23,-29 332.23,-25.5 332.23,-32.5"/>
</a>
</g>
</g>
<!-- Node4 -->
<g id="Node000004" class="node">
<title>Node4</title>
<g id="a_Node000004"><a xlink:href="error_8h.html#add13298163f63b7d37ed9f12d57e1a31" target="_top" xlink:title=" ">
<polygon fill="white" stroke="#666666" points="638.5,-58 516,-58 516,-38 638.5,-38 638.5,-58"/>
<text text-anchor="middle" x="577.25" y="-44.5" font-family="Helvetica,sans-Serif" font-size="10.00">zrtos_error__is_success</text>
</a>
</g>
</g>
<!-- Node3&#45;&gt;Node4 -->
<g id="edge3_Node000003_Node000004" class="edge">
<title>Node3&#45;&gt;Node4</title>
<g id="a_edge3_Node000003_Node000004"><a xlink:title=" ">
<path fill="none" stroke="#63b8ff" d="M480.34,-36.84C488.28,-37.76 496.41,-38.71 504.41,-39.64"/>
<polygon fill="#63b8ff" stroke="#63b8ff" points="503.76,-43.09 514.09,-40.77 504.57,-36.13 503.76,-43.09"/>
</a>
</g>
</g>
<!-- Node5 -->
<g id="Node000005" class="node">
<title>Node5</title>
<g id="a_Node000005"><a xlink:href="vfs__fd_8h.html#a1c176ae3990492b9deae02682a6782e1" target="_top" xlink:title=" ">
<polygon fill="white" stroke="#666666" points="625.38,-20 529.12,-20 529.12,0 625.38,0 625.38,-20"/>
<text text-anchor="middle" x="577.25" y="-6.5" font-family="Helvetica,sans-Serif" font-size="10.00">zrtos_vfs_fd__read</text>
</a>
</g>
</g>
<!-- Node3&#45;&gt;Node5 -->
<g id="edge4_Node000003_Node000005" class="edge">
<title>Node3&#45;&gt;Node5</title>
<g id="a_edge4_Node000003_Node000005"><a xlink:title=" ">
<path fill="none" stroke="#63b8ff" d="M480.34,-21.16C492.72,-19.72 505.55,-18.23 517.65,-16.82"/>
<polygon fill="#63b8ff" stroke="#63b8ff" points="517.96,-20.31 527.48,-15.68 517.15,-13.36 517.96,-20.31"/>
</a>
</g>
</g>
<!-- Node6 -->
<g id="Node000006" class="node">
<title>Node6</title>
<g id="a_Node000006"><a xlink:href="vfs__file_8h.html#a27e4ed3d3306da0eaccc004eebc8d3c4" target="_top" xlink:title=" ">
<polygon fill="white" stroke="#666666" points="775.25,-20 674.5,-20 674.5,0 775.25,0 775.25,-20"/>
<text text-anchor="middle" x="724.88" y="-6.5" font-family="Helvetica,sans-Serif" font-size="10.00">zrtos_vfs_file__read</text>
</a>
</g>
</g>
<!-- Node5&#45;&gt;Node6 -->
<g id="edge5_Node000005_Node000006" class="edge">
<title>Node5&#45;&gt;Node6</title>
<g id="a_edge5_Node000005_Node000006"><a xlink:title=" ">
<path fill="none" stroke="#63b8ff" d="M625.53,-10C637.42,-10 650.35,-10 662.81,-10"/>
<polygon fill="#63b8ff" stroke="#63b8ff" points="662.56,-13.5 672.56,-10 662.56,-6.5 662.56,-13.5"/>
</a>
</g>
</g>
</g>
</svg>
