<?xml version="1.0" encoding="UTF-8" standalone="no"?>
<!DOCTYPE svg PUBLIC "-//W3C//DTD SVG 1.1//EN"
 "http://www.w3.org/Graphics/SVG/1.1/DTD/svg11.dtd">
<!-- Generated by graphviz version 10.0.1 (20240210.2158)
 -->
<!-- Title: zrtos_vfs_module_mcp2515_id__get_buffer Pages: 1 -->
<svg width="660pt" height="140pt"
 viewBox="0.00 0.00 660.00 140.00" xmlns="http://www.w3.org/2000/svg" xmlns:xlink="http://www.w3.org/1999/xlink">
<g id="graph0" class="graph" transform="scale(1 1) rotate(0) translate(4 136)">
<title>zrtos_vfs_module_mcp2515_id__get_buffer</title>
<!-- Node1 -->
<g id="Node000001" class="node">
<title>Node1</title>
<g id="a_Node000001"><a xlink:title=" ">
<polygon fill="#999999" stroke="#666666" points="652,-107 516,-107 516,-75 652,-75 652,-107"/>
<text text-anchor="start" x="524" y="-93.5" font-family="Helvetica,sans-Serif" font-size="10.00">zrtos_vfs_module_mcp2515</text>
<text text-anchor="middle" x="584" y="-81.5" font-family="Helvetica,sans-Serif" font-size="10.00">_id__get_buffer</text>
</a>
</g>
</g>
<!-- Node2 -->
<g id="Node000002" class="node">
<title>Node2</title>
<g id="a_Node000002"><a xlink:href="mcp2515_8h.html#a4495c08c9700911d34d8e633beb90a7b" target="_top" xlink:title=" ">
<polygon fill="white" stroke="#666666" points="480,-132 344,-132 344,-100 480,-100 480,-132"/>
<text text-anchor="start" x="352" y="-118.5" font-family="Helvetica,sans-Serif" font-size="10.00">zrtos_vfs_module_mcp2515</text>
<text text-anchor="middle" x="412" y="-106.5" font-family="Helvetica,sans-Serif" font-size="10.00">__send_message_ex</text>
</a>
</g>
</g>
<!-- Node1&#45;&gt;Node2 -->
<g id="edge1_Node000001_Node000002" class="edge">
<title>Node1&#45;&gt;Node2</title>
<g id="a_edge1_Node000001_Node000002"><a xlink:title=" ">
<path fill="none" stroke="#63b8ff" d="M504.46,-102.55C496.37,-103.74 488.21,-104.94 480.26,-106.11"/>
<polygon fill="#63b8ff" stroke="#63b8ff" points="504.93,-106.02 514.31,-101.1 503.91,-99.09 504.93,-106.02"/>
</a>
</g>
</g>
<!-- Node4 -->
<g id="Node000004" class="node">
<title>Node4</title>
<g id="a_Node000004"><a xlink:href="mcp2515_8h.html#ae36edcf41e011b562faf4b1006885296" target="_top" xlink:title=" ">
<polygon fill="white" stroke="#666666" points="480,-82 344,-82 344,-50 480,-50 480,-82"/>
<text text-anchor="start" x="352" y="-68.5" font-family="Helvetica,sans-Serif" font-size="10.00">zrtos_vfs_module_mcp2515</text>
<text text-anchor="middle" x="412" y="-56.5" font-family="Helvetica,sans-Serif" font-size="10.00">__set_filter_ex</text>
</a>
</g>
</g>
<!-- Node1&#45;&gt;Node4 -->
<g id="edge3_Node000001_Node000004" class="edge">
<title>Node1&#45;&gt;Node4</title>
<g id="a_edge3_Node000001_Node000004"><a xlink:title=" ">
<path fill="none" stroke="#63b8ff" d="M504.46,-79.45C496.37,-78.26 488.21,-77.06 480.26,-75.89"/>
<polygon fill="#63b8ff" stroke="#63b8ff" points="503.91,-82.91 514.31,-80.9 504.93,-75.98 503.91,-82.91"/>
</a>
</g>
</g>
<!-- Node3 -->
<g id="Node000003" class="node">
<title>Node3</title>
<g id="a_Node000003"><a xlink:href="mcp2515_8h.html#a676018a85ead592f37f7774b0ff2e4c5" target="_top" xlink:title=" ">
<polygon fill="white" stroke="#666666" points="308,-132 172,-132 172,-100 308,-100 308,-132"/>
<text text-anchor="start" x="180" y="-118.5" font-family="Helvetica,sans-Serif" font-size="10.00">zrtos_vfs_module_mcp2515</text>
<text text-anchor="middle" x="240" y="-106.5" font-family="Helvetica,sans-Serif" font-size="10.00">__send_message</text>
</a>
</g>
</g>
<!-- Node2&#45;&gt;Node3 -->
<g id="edge2_Node000002_Node000003" class="edge">
<title>Node2&#45;&gt;Node3</title>
<g id="a_edge2_Node000002_Node000003"><a xlink:title=" ">
<path fill="none" stroke="#63b8ff" d="M332.46,-116C324.37,-116 316.21,-116 308.26,-116"/>
<polygon fill="#63b8ff" stroke="#63b8ff" points="332.3,-119.5 342.3,-116 332.3,-112.5 332.3,-119.5"/>
</a>
</g>
</g>
<!-- Node5 -->
<g id="Node000005" class="node">
<title>Node5</title>
<g id="a_Node000005"><a xlink:href="mcp2515_8h.html#a2dd342ada1683548e1f020e4edf4310a" target="_top" xlink:title=" ">
<polygon fill="white" stroke="#666666" points="308,-82 172,-82 172,-50 308,-50 308,-82"/>
<text text-anchor="start" x="180" y="-68.5" font-family="Helvetica,sans-Serif" font-size="10.00">zrtos_vfs_module_mcp2515</text>
<text text-anchor="middle" x="240" y="-56.5" font-family="Helvetica,sans-Serif" font-size="10.00">__set_filter</text>
</a>
</g>
</g>
<!-- Node4&#45;&gt;Node5 -->
<g id="edge4_Node000004_Node000005" class="edge">
<title>Node4&#45;&gt;Node5</title>
<g id="a_edge4_Node000004_Node000005"><a xlink:title=" ">
<path fill="none" stroke="#63b8ff" d="M332.46,-66C324.37,-66 316.21,-66 308.26,-66"/>
<polygon fill="#63b8ff" stroke="#63b8ff" points="332.3,-69.5 342.3,-66 332.3,-62.5 332.3,-69.5"/>
</a>
</g>
</g>
<!-- Node7 -->
<g id="Node000007" class="node">
<title>Node7</title>
<g id="a_Node000007"><a xlink:href="mcp2515_8h.html#a8c085fb921bd4acc73e2e5aedaf40f54" target="_top" xlink:title=" ">
<polygon fill="white" stroke="#666666" points="308,-32 172,-32 172,0 308,0 308,-32"/>
<text text-anchor="start" x="180" y="-18.5" font-family="Helvetica,sans-Serif" font-size="10.00">zrtos_vfs_module_mcp2515</text>
<text text-anchor="middle" x="240" y="-6.5" font-family="Helvetica,sans-Serif" font-size="10.00">__set_filter_mask</text>
</a>
</g>
</g>
<!-- Node4&#45;&gt;Node7 -->
<g id="edge6_Node000004_Node000007" class="edge">
<title>Node4&#45;&gt;Node7</title>
<g id="a_edge6_Node000004_Node000007"><a xlink:title=" ">
<path fill="none" stroke="#63b8ff" d="M344.62,-46.48C328.9,-41.85 312.29,-36.97 297.08,-32.49"/>
<polygon fill="#63b8ff" stroke="#63b8ff" points="343.3,-49.74 353.88,-49.2 345.28,-43.02 343.3,-49.74"/>
</a>
</g>
</g>
<!-- Node6 -->
<g id="Node000006" class="node">
<title>Node6</title>
<g id="a_Node000006"><a xlink:href="mcp2515_8h.html#a46894ab0a30cb5e4d67fa6672327158c" target="_top" xlink:title=" ">
<polygon fill="white" stroke="#666666" points="136,-57 0,-57 0,-25 136,-25 136,-57"/>
<text text-anchor="start" x="8" y="-43.5" font-family="Helvetica,sans-Serif" font-size="10.00">zrtos_vfs_module_mcp2515</text>
<text text-anchor="middle" x="68" y="-31.5" font-family="Helvetica,sans-Serif" font-size="10.00">__reset</text>
</a>
</g>
</g>
<!-- Node5&#45;&gt;Node6 -->
<g id="edge5_Node000005_Node000006" class="edge">
<title>Node5&#45;&gt;Node6</title>
<g id="a_edge5_Node000005_Node000006"><a xlink:title=" ">
<path fill="none" stroke="#63b8ff" d="M160.46,-54.45C152.37,-53.26 144.21,-52.06 136.26,-50.89"/>
<polygon fill="#63b8ff" stroke="#63b8ff" points="159.91,-57.91 170.31,-55.9 160.93,-50.98 159.91,-57.91"/>
</a>
</g>
</g>
<!-- Node7&#45;&gt;Node6 -->
<g id="edge7_Node000007_Node000006" class="edge">
<title>Node7&#45;&gt;Node6</title>
<g id="a_edge7_Node000007_Node000006"><a xlink:title=" ">
<path fill="none" stroke="#63b8ff" d="M160.46,-27.55C152.37,-28.74 144.21,-29.94 136.26,-31.11"/>
<polygon fill="#63b8ff" stroke="#63b8ff" points="160.93,-31.02 170.31,-26.1 159.91,-24.09 160.93,-31.02"/>
</a>
</g>
</g>
</g>
</svg>
