<?xml version="1.0" encoding="UTF-8" standalone="no"?>
<!DOCTYPE svg PUBLIC "-//W3C//DTD SVG 1.1//EN"
 "http://www.w3.org/Graphics/SVG/1.1/DTD/svg11.dtd">
<!-- Generated by graphviz version 10.0.1 (20240210.2158)
 -->
<!-- Title: zrtos_vfs_module_mcp2515__read_register Pages: 1 -->
<svg width="1004pt" height="690pt"
 viewBox="0.00 0.00 1004.00 690.00" xmlns="http://www.w3.org/2000/svg" xmlns:xlink="http://www.w3.org/1999/xlink">
<g id="graph0" class="graph" transform="scale(1 1) rotate(0) translate(4 686)">
<title>zrtos_vfs_module_mcp2515__read_register</title>
<!-- Node1 -->
<g id="Node000001" class="node">
<title>Node1</title>
<g id="a_Node000001"><a xlink:title=" ">
<polygon fill="#999999" stroke="#666666" points="996,-482 860,-482 860,-450 996,-450 996,-482"/>
<text text-anchor="start" x="868" y="-468.5" font-family="Helvetica,sans-Serif" font-size="10.00">zrtos_vfs_module_mcp2515</text>
<text text-anchor="middle" x="928" y="-456.5" font-family="Helvetica,sans-Serif" font-size="10.00">__read_register</text>
</a>
</g>
</g>
<!-- Node2 -->
<g id="Node000002" class="node">
<title>Node2</title>
<g id="a_Node000002"><a xlink:href="mcp2515_8h.html#a24986e730af04abddde2ceb4e4edf5f8" target="_top" xlink:title=" ">
<polygon fill="white" stroke="#666666" points="824,-532 688,-532 688,-500 824,-500 824,-532"/>
<text text-anchor="start" x="696" y="-518.5" font-family="Helvetica,sans-Serif" font-size="10.00">zrtos_vfs_module_mcp2515</text>
<text text-anchor="middle" x="756" y="-506.5" font-family="Helvetica,sans-Serif" font-size="10.00">__get_available_txb</text>
</a>
</g>
</g>
<!-- Node1&#45;&gt;Node2 -->
<g id="edge1_Node000001_Node000002" class="edge">
<title>Node1&#45;&gt;Node2</title>
<g id="a_edge1_Node000001_Node000002"><a xlink:title=" ">
<path fill="none" stroke="#63b8ff" d="M860.62,-485.52C844.9,-490.15 828.29,-495.03 813.08,-499.51"/>
<polygon fill="#63b8ff" stroke="#63b8ff" points="861.28,-488.98 869.88,-482.8 859.3,-482.26 861.28,-488.98"/>
</a>
</g>
</g>
<!-- Node4 -->
<g id="Node000004" class="node">
<title>Node4</title>
<g id="a_Node000004"><a xlink:href="mcp2515_8h.html#ab9b8f4dd06f80a923608ccf3b038c13b" target="_top" xlink:title=" ">
<polygon fill="white" stroke="#666666" points="824,-632 688,-632 688,-600 824,-600 824,-632"/>
<text text-anchor="start" x="696" y="-618.5" font-family="Helvetica,sans-Serif" font-size="10.00">zrtos_vfs_module_mcp2515</text>
<text text-anchor="middle" x="756" y="-606.5" font-family="Helvetica,sans-Serif" font-size="10.00">__get_error_count_rx</text>
</a>
</g>
</g>
<!-- Node1&#45;&gt;Node4 -->
<g id="edge3_Node000001_Node000004" class="edge">
<title>Node1&#45;&gt;Node4</title>
<g id="a_edge3_Node000001_Node000004"><a xlink:title=" ">
<path fill="none" stroke="#63b8ff" d="M911.74,-491.61C893.9,-519.57 861.93,-563.96 824,-591 819.45,-594.24 814.43,-597.12 809.25,-599.66"/>
<polygon fill="#63b8ff" stroke="#63b8ff" points="914.54,-493.74 916.86,-483.4 908.6,-490.04 914.54,-493.74"/>
</a>
</g>
</g>
<!-- Node5 -->
<g id="Node000005" class="node">
<title>Node5</title>
<g id="a_Node000005"><a xlink:href="mcp2515_8h.html#a4b722e6958adb77634668ee977e7bf9c" target="_top" xlink:title=" ">
<polygon fill="white" stroke="#666666" points="824,-582 688,-582 688,-550 824,-550 824,-582"/>
<text text-anchor="start" x="696" y="-568.5" font-family="Helvetica,sans-Serif" font-size="10.00">zrtos_vfs_module_mcp2515</text>
<text text-anchor="middle" x="756" y="-556.5" font-family="Helvetica,sans-Serif" font-size="10.00">__get_error_count_tx</text>
</a>
</g>
</g>
<!-- Node1&#45;&gt;Node5 -->
<g id="edge4_Node000001_Node000005" class="edge">
<title>Node1&#45;&gt;Node5</title>
<g id="a_edge4_Node000001_Node000005"><a xlink:title=" ">
<path fill="none" stroke="#63b8ff" d="M899.09,-489.56C879.12,-505.58 851.08,-526.44 824,-541 818.2,-544.12 811.94,-547.01 805.64,-549.65"/>
<polygon fill="#63b8ff" stroke="#63b8ff" points="901.22,-492.34 906.76,-483.31 896.8,-486.91 901.22,-492.34"/>
</a>
</g>
</g>
<!-- Node6 -->
<g id="Node000006" class="node">
<title>Node6</title>
<g id="a_Node000006"><a xlink:href="mcp2515_8h.html#ad666097e29f117cb6c42a93e7d00ab9f" target="_top" xlink:title=" ">
<polygon fill="white" stroke="#666666" points="824,-382 688,-382 688,-350 824,-350 824,-382"/>
<text text-anchor="start" x="696" y="-368.5" font-family="Helvetica,sans-Serif" font-size="10.00">zrtos_vfs_module_mcp2515</text>
<text text-anchor="middle" x="756" y="-356.5" font-family="Helvetica,sans-Serif" font-size="10.00">__get_error_flags</text>
</a>
</g>
</g>
<!-- Node1&#45;&gt;Node6 -->
<g id="edge5_Node000001_Node000006" class="edge">
<title>Node1&#45;&gt;Node6</title>
<g id="a_edge5_Node000001_Node000006"><a xlink:title=" ">
<path fill="none" stroke="#63b8ff" d="M899.09,-442.44C879.12,-426.42 851.08,-405.56 824,-391 818.2,-387.88 811.94,-384.99 805.64,-382.35"/>
<polygon fill="#63b8ff" stroke="#63b8ff" points="896.8,-445.09 906.76,-448.69 901.22,-439.66 896.8,-445.09"/>
</a>
</g>
</g>
<!-- Node9 -->
<g id="Node000009" class="node">
<title>Node9</title>
<g id="a_Node000009"><a xlink:href="mcp2515_8h.html#af9138c5998d5c5f0a847d96f4ea20d0c" target="_top" xlink:title=" ">
<polygon fill="white" stroke="#666666" points="824,-482 688,-482 688,-450 824,-450 824,-482"/>
<text text-anchor="start" x="696" y="-468.5" font-family="Helvetica,sans-Serif" font-size="10.00">zrtos_vfs_module_mcp2515</text>
<text text-anchor="middle" x="756" y="-456.5" font-family="Helvetica,sans-Serif" font-size="10.00">__get_interrupt_mask</text>
</a>
</g>
</g>
<!-- Node1&#45;&gt;Node9 -->
<g id="edge8_Node000001_Node000009" class="edge">
<title>Node1&#45;&gt;Node9</title>
<g id="a_edge8_Node000001_Node000009"><a xlink:title=" ">
<path fill="none" stroke="#63b8ff" d="M848.46,-466C840.37,-466 832.21,-466 824.26,-466"/>
<polygon fill="#63b8ff" stroke="#63b8ff" points="848.3,-469.5 858.3,-466 848.3,-462.5 848.3,-469.5"/>
</a>
</g>
</g>
<!-- Node10 -->
<g id="Node000010" class="node">
<title>Node10</title>
<g id="a_Node000010"><a xlink:href="mcp2515_8h.html#ae1ec56366ff48e850e9b6c4496870656" target="_top" xlink:title=" ">
<polygon fill="white" stroke="#666666" points="824,-432 688,-432 688,-400 824,-400 824,-432"/>
<text text-anchor="start" x="696" y="-418.5" font-family="Helvetica,sans-Serif" font-size="10.00">zrtos_vfs_module_mcp2515</text>
<text text-anchor="middle" x="756" y="-406.5" font-family="Helvetica,sans-Serif" font-size="10.00">__get_interrupts</text>
</a>
</g>
</g>
<!-- Node1&#45;&gt;Node10 -->
<g id="edge9_Node000001_Node000010" class="edge">
<title>Node1&#45;&gt;Node10</title>
<g id="a_edge9_Node000001_Node000010"><a xlink:title=" ">
<path fill="none" stroke="#63b8ff" d="M860.62,-446.48C844.9,-441.85 828.29,-436.97 813.08,-432.49"/>
<polygon fill="#63b8ff" stroke="#63b8ff" points="859.3,-449.74 869.88,-449.2 861.28,-443.02 859.3,-449.74"/>
</a>
</g>
</g>
<!-- Node11 -->
<g id="Node000011" class="node">
<title>Node11</title>
<g id="a_Node000011"><a xlink:href="mcp2515_8h.html#ac1756abd1e4ba1ce926f498e77dcda77" target="_top" xlink:title=" ">
<polygon fill="white" stroke="#666666" points="824,-332 688,-332 688,-300 824,-300 824,-332"/>
<text text-anchor="start" x="696" y="-318.5" font-family="Helvetica,sans-Serif" font-size="10.00">zrtos_vfs_module_mcp2515</text>
<text text-anchor="middle" x="756" y="-306.5" font-family="Helvetica,sans-Serif" font-size="10.00">__read_message_ex</text>
</a>
</g>
</g>
<!-- Node1&#45;&gt;Node11 -->
<g id="edge10_Node000001_Node000011" class="edge">
<title>Node1&#45;&gt;Node11</title>
<g id="a_edge10_Node000001_Node000011"><a xlink:title=" ">
<path fill="none" stroke="#63b8ff" d="M911.74,-440.39C893.9,-412.43 861.93,-368.04 824,-341 819.45,-337.76 814.43,-334.88 809.25,-332.34"/>
<polygon fill="#63b8ff" stroke="#63b8ff" points="908.6,-441.96 916.86,-448.6 914.54,-438.26 908.6,-441.96"/>
</a>
</g>
</g>
<!-- Node13 -->
<g id="Node000013" class="node">
<title>Node13</title>
<g id="a_Node000013"><a xlink:href="mcp2515_8h.html#a4495c08c9700911d34d8e633beb90a7b" target="_top" xlink:title=" ">
<polygon fill="white" stroke="#666666" points="824,-682 688,-682 688,-650 824,-650 824,-682"/>
<text text-anchor="start" x="696" y="-668.5" font-family="Helvetica,sans-Serif" font-size="10.00">zrtos_vfs_module_mcp2515</text>
<text text-anchor="middle" x="756" y="-656.5" font-family="Helvetica,sans-Serif" font-size="10.00">__send_message_ex</text>
</a>
</g>
</g>
<!-- Node1&#45;&gt;Node13 -->
<g id="edge12_Node000001_Node000013" class="edge">
<title>Node1&#45;&gt;Node13</title>
<g id="a_edge12_Node000001_Node000013"><a xlink:title=" ">
<path fill="none" stroke="#63b8ff" d="M917.66,-493.27C903.28,-531.41 872.22,-600.55 824,-641 820.1,-644.27 815.73,-647.14 811.14,-649.64"/>
<polygon fill="#63b8ff" stroke="#63b8ff" points="920.93,-494.51 921.07,-483.91 914.36,-492.11 920.93,-494.51"/>
</a>
</g>
</g>
<!-- Node14 -->
<g id="Node000014" class="node">
<title>Node14</title>
<g id="a_Node000014"><a xlink:href="mcp2515_8h.html#a26c81272df128ccf491a5a2ec66e7197" target="_top" xlink:title=" ">
<polygon fill="white" stroke="#666666" points="824,-207 688,-207 688,-175 824,-175 824,-207"/>
<text text-anchor="start" x="696" y="-193.5" font-family="Helvetica,sans-Serif" font-size="10.00">zrtos_vfs_module_mcp2515</text>
<text text-anchor="middle" x="756" y="-181.5" font-family="Helvetica,sans-Serif" font-size="10.00">__set_mode</text>
</a>
</g>
</g>
<!-- Node1&#45;&gt;Node14 -->
<g id="edge14_Node000001_Node000014" class="edge">
<title>Node1&#45;&gt;Node14</title>
<g id="a_edge14_Node000001_Node000014"><a xlink:title=" ">
<path fill="none" stroke="#63b8ff" d="M912.42,-440.16C892.87,-405.76 856.81,-343.21 824,-291 805.21,-261.1 782.03,-227.1 768.44,-207.44"/>
<polygon fill="#63b8ff" stroke="#63b8ff" points="909.21,-441.6 917.19,-448.57 915.3,-438.15 909.21,-441.6"/>
</a>
</g>
</g>
<!-- Node3 -->
<g id="Node000003" class="node">
<title>Node3</title>
<g id="a_Node000003"><a xlink:href="mcp2515_8h.html#a676018a85ead592f37f7774b0ff2e4c5" target="_top" xlink:title=" ">
<polygon fill="white" stroke="#666666" points="652,-607 516,-607 516,-575 652,-575 652,-607"/>
<text text-anchor="start" x="524" y="-593.5" font-family="Helvetica,sans-Serif" font-size="10.00">zrtos_vfs_module_mcp2515</text>
<text text-anchor="middle" x="584" y="-581.5" font-family="Helvetica,sans-Serif" font-size="10.00">__send_message</text>
</a>
</g>
</g>
<!-- Node2&#45;&gt;Node3 -->
<g id="edge2_Node000002_Node000003" class="edge">
<title>Node2&#45;&gt;Node3</title>
<g id="a_edge2_Node000002_Node000003"><a xlink:title=" ">
<path fill="none" stroke="#63b8ff" d="M698.89,-536.49C695.19,-537.98 691.53,-539.49 688,-541 663.7,-551.41 636.85,-564.49 616.65,-574.67"/>
<polygon fill="#63b8ff" stroke="#63b8ff" points="699.93,-539.84 707.95,-532.92 697.36,-533.33 699.93,-539.84"/>
</a>
</g>
</g>
<!-- Node7 -->
<g id="Node000007" class="node">
<title>Node7</title>
<g id="a_Node000007"><a xlink:href="mcp2515_8h.html#ae66cb78f0a42e2dcfe16ac0144a05f54" target="_top" xlink:title=" ">
<polygon fill="white" stroke="#666666" points="652,-432 516,-432 516,-400 652,-400 652,-432"/>
<text text-anchor="start" x="524" y="-418.5" font-family="Helvetica,sans-Serif" font-size="10.00">zrtos_vfs_module_mcp2515</text>
<text text-anchor="middle" x="584" y="-406.5" font-family="Helvetica,sans-Serif" font-size="10.00">__check_error</text>
</a>
</g>
</g>
<!-- Node6&#45;&gt;Node7 -->
<g id="edge6_Node000006_Node000007" class="edge">
<title>Node6&#45;&gt;Node7</title>
<g id="a_edge6_Node000006_Node000007"><a xlink:title=" ">
<path fill="none" stroke="#63b8ff" d="M688.62,-385.52C672.9,-390.15 656.29,-395.03 641.08,-399.51"/>
<polygon fill="#63b8ff" stroke="#63b8ff" points="689.28,-388.98 697.88,-382.8 687.3,-382.26 689.28,-388.98"/>
</a>
</g>
</g>
<!-- Node8 -->
<g id="Node000008" class="node">
<title>Node8</title>
<g id="a_Node000008"><a xlink:href="mcp2515_8h.html#a0efa06269912d6ba6c23a5fbbea49150" target="_top" xlink:title=" ">
<polygon fill="white" stroke="#666666" points="652,-382 516,-382 516,-350 652,-350 652,-382"/>
<text text-anchor="start" x="524" y="-368.5" font-family="Helvetica,sans-Serif" font-size="10.00">zrtos_vfs_module_mcp2515</text>
<text text-anchor="middle" x="584" y="-356.5" font-family="Helvetica,sans-Serif" font-size="10.00">__clear_rx_and_ovr</text>
</a>
</g>
</g>
<!-- Node6&#45;&gt;Node8 -->
<g id="edge7_Node000006_Node000008" class="edge">
<title>Node6&#45;&gt;Node8</title>
<g id="a_edge7_Node000006_Node000008"><a xlink:title=" ">
<path fill="none" stroke="#63b8ff" d="M676.46,-366C668.37,-366 660.21,-366 652.26,-366"/>
<polygon fill="#63b8ff" stroke="#63b8ff" points="676.3,-369.5 686.3,-366 676.3,-362.5 676.3,-369.5"/>
</a>
</g>
</g>
<!-- Node12 -->
<g id="Node000012" class="node">
<title>Node12</title>
<g id="a_Node000012"><a xlink:href="mcp2515_8h.html#aedd1e5a30c6f1d8150213a81926e9728" target="_top" xlink:title=" ">
<polygon fill="white" stroke="#666666" points="652,-332 516,-332 516,-300 652,-300 652,-332"/>
<text text-anchor="start" x="524" y="-318.5" font-family="Helvetica,sans-Serif" font-size="10.00">zrtos_vfs_module_mcp2515</text>
<text text-anchor="middle" x="584" y="-306.5" font-family="Helvetica,sans-Serif" font-size="10.00">__read_message</text>
</a>
</g>
</g>
<!-- Node11&#45;&gt;Node12 -->
<g id="edge11_Node000011_Node000012" class="edge">
<title>Node11&#45;&gt;Node12</title>
<g id="a_edge11_Node000011_Node000012"><a xlink:title=" ">
<path fill="none" stroke="#63b8ff" d="M676.46,-316C668.37,-316 660.21,-316 652.26,-316"/>
<polygon fill="#63b8ff" stroke="#63b8ff" points="676.3,-319.5 686.3,-316 676.3,-312.5 676.3,-319.5"/>
</a>
</g>
</g>
<!-- Node13&#45;&gt;Node3 -->
<g id="edge13_Node000013_Node000003" class="edge">
<title>Node13&#45;&gt;Node3</title>
<g id="a_edge13_Node000013_Node000003"><a xlink:title=" ">
<path fill="none" stroke="#63b8ff" d="M698.89,-645.51C695.19,-644.02 691.53,-642.51 688,-641 663.7,-630.59 636.85,-617.51 616.65,-607.33"/>
<polygon fill="#63b8ff" stroke="#63b8ff" points="697.36,-648.67 707.95,-649.08 699.93,-642.16 697.36,-648.67"/>
</a>
</g>
</g>
<!-- Node15 -->
<g id="Node000015" class="node">
<title>Node15</title>
<g id="a_Node000015"><a xlink:href="mcp2515_8h.html#a414b60a917d62f474195a1208159b461" target="_top" xlink:title=" ">
<polygon fill="white" stroke="#666666" points="652,-82 516,-82 516,-50 652,-50 652,-82"/>
<text text-anchor="start" x="524" y="-68.5" font-family="Helvetica,sans-Serif" font-size="10.00">zrtos_vfs_module_mcp2515</text>
<text text-anchor="middle" x="584" y="-56.5" font-family="Helvetica,sans-Serif" font-size="10.00">__set_config_mode</text>
</a>
</g>
</g>
<!-- Node14&#45;&gt;Node15 -->
<g id="edge15_Node000014_Node000015" class="edge">
<title>Node14&#45;&gt;Node15</title>
<g id="a_edge15_Node000014_Node000015"><a xlink:title=" ">
<path fill="none" stroke="#63b8ff" d="M734.68,-166.09C715.4,-143.82 684.58,-111.61 652,-91 646.96,-87.81 641.46,-84.95 635.84,-82.38"/>
<polygon fill="#63b8ff" stroke="#63b8ff" points="731.85,-168.17 740.99,-173.52 737.19,-163.63 731.85,-168.17"/>
</a>
</g>
</g>
<!-- Node21 -->
<g id="Node000021" class="node">
<title>Node21</title>
<g id="a_Node000021"><a xlink:href="mcp2515_8h.html#a6790fe7dfa8cdd6f07452fc36a7ce68f" target="_top" xlink:title=" ">
<polygon fill="white" stroke="#666666" points="652,-282 516,-282 516,-250 652,-250 652,-282"/>
<text text-anchor="start" x="524" y="-268.5" font-family="Helvetica,sans-Serif" font-size="10.00">zrtos_vfs_module_mcp2515</text>
<text text-anchor="middle" x="584" y="-256.5" font-family="Helvetica,sans-Serif" font-size="10.00">__set_listen_only_mode</text>
</a>
</g>
</g>
<!-- Node14&#45;&gt;Node21 -->
<g id="edge22_Node000014_Node000021" class="edge">
<title>Node14&#45;&gt;Node21</title>
<g id="a_edge22_Node000014_Node000021"><a xlink:title=" ">
<path fill="none" stroke="#63b8ff" d="M713.17,-212.42C694.62,-221.63 672.41,-232.26 652,-241 645.15,-243.93 637.83,-246.86 630.64,-249.63"/>
<polygon fill="#63b8ff" stroke="#63b8ff" points="714.62,-215.61 721.99,-208.01 711.48,-209.35 714.62,-215.61"/>
</a>
</g>
</g>
<!-- Node22 -->
<g id="Node000022" class="node">
<title>Node22</title>
<g id="a_Node000022"><a xlink:href="mcp2515_8h.html#ad4965afede1b3d240b6cbfac3a41cf92" target="_top" xlink:title=" ">
<polygon fill="white" stroke="#666666" points="652,-232 516,-232 516,-200 652,-200 652,-232"/>
<text text-anchor="start" x="524" y="-218.5" font-family="Helvetica,sans-Serif" font-size="10.00">zrtos_vfs_module_mcp2515</text>
<text text-anchor="middle" x="584" y="-206.5" font-family="Helvetica,sans-Serif" font-size="10.00">__set_loopback_mode</text>
</a>
</g>
</g>
<!-- Node14&#45;&gt;Node22 -->
<g id="edge23_Node000014_Node000022" class="edge">
<title>Node14&#45;&gt;Node22</title>
<g id="a_edge23_Node000014_Node000022"><a xlink:title=" ">
<path fill="none" stroke="#63b8ff" d="M676.46,-202.55C668.37,-203.74 660.21,-204.94 652.26,-206.11"/>
<polygon fill="#63b8ff" stroke="#63b8ff" points="676.93,-206.02 686.31,-201.1 675.91,-199.09 676.93,-206.02"/>
</a>
</g>
</g>
<!-- Node23 -->
<g id="Node000023" class="node">
<title>Node23</title>
<g id="a_Node000023"><a xlink:href="mcp2515_8h.html#a5ef86faff324bf9b10cd9c9e9ec5e383" target="_top" xlink:title=" ">
<polygon fill="white" stroke="#666666" points="652,-182 516,-182 516,-150 652,-150 652,-182"/>
<text text-anchor="start" x="524" y="-168.5" font-family="Helvetica,sans-Serif" font-size="10.00">zrtos_vfs_module_mcp2515</text>
<text text-anchor="middle" x="584" y="-156.5" font-family="Helvetica,sans-Serif" font-size="10.00">__set_normal_mode</text>
</a>
</g>
</g>
<!-- Node14&#45;&gt;Node23 -->
<g id="edge24_Node000014_Node000023" class="edge">
<title>Node14&#45;&gt;Node23</title>
<g id="a_edge24_Node000014_Node000023"><a xlink:title=" ">
<path fill="none" stroke="#63b8ff" d="M676.46,-179.45C668.37,-178.26 660.21,-177.06 652.26,-175.89"/>
<polygon fill="#63b8ff" stroke="#63b8ff" points="675.91,-182.91 686.31,-180.9 676.93,-175.98 675.91,-182.91"/>
</a>
</g>
</g>
<!-- Node24 -->
<g id="Node000024" class="node">
<title>Node24</title>
<g id="a_Node000024"><a xlink:href="mcp2515_8h.html#abfbd0f9bbd80afd764b5932c5684893f" target="_top" xlink:title=" ">
<polygon fill="white" stroke="#666666" points="652,-132 516,-132 516,-100 652,-100 652,-132"/>
<text text-anchor="start" x="524" y="-118.5" font-family="Helvetica,sans-Serif" font-size="10.00">zrtos_vfs_module_mcp2515</text>
<text text-anchor="middle" x="584" y="-106.5" font-family="Helvetica,sans-Serif" font-size="10.00">__set_sleep_mode</text>
</a>
</g>
</g>
<!-- Node14&#45;&gt;Node24 -->
<g id="edge25_Node000014_Node000024" class="edge">
<title>Node14&#45;&gt;Node24</title>
<g id="a_edge25_Node000014_Node000024"><a xlink:title=" ">
<path fill="none" stroke="#63b8ff" d="M713.17,-169.58C694.62,-160.37 672.41,-149.74 652,-141 645.15,-138.07 637.83,-135.14 630.64,-132.37"/>
<polygon fill="#63b8ff" stroke="#63b8ff" points="711.48,-172.65 721.99,-173.99 714.62,-166.39 711.48,-172.65"/>
</a>
</g>
</g>
<!-- Node16 -->
<g id="Node000016" class="node">
<title>Node16</title>
<g id="a_Node000016"><a xlink:href="mcp2515_8h.html#a180ecb3193b7334b800951d74b3f591f" target="_top" xlink:title=" ">
<polygon fill="white" stroke="#666666" points="480,-107 344,-107 344,-75 480,-75 480,-107"/>
<text text-anchor="start" x="352" y="-93.5" font-family="Helvetica,sans-Serif" font-size="10.00">zrtos_vfs_module_mcp2515</text>
<text text-anchor="middle" x="412" y="-81.5" font-family="Helvetica,sans-Serif" font-size="10.00">__set_bitrate</text>
</a>
</g>
</g>
<!-- Node15&#45;&gt;Node16 -->
<g id="edge16_Node000015_Node000016" class="edge">
<title>Node15&#45;&gt;Node16</title>
<g id="a_edge16_Node000015_Node000016"><a xlink:title=" ">
<path fill="none" stroke="#63b8ff" d="M504.46,-77.55C496.37,-78.74 488.21,-79.94 480.26,-81.11"/>
<polygon fill="#63b8ff" stroke="#63b8ff" points="504.93,-81.02 514.31,-76.1 503.91,-74.09 504.93,-81.02"/>
</a>
</g>
</g>
<!-- Node17 -->
<g id="Node000017" class="node">
<title>Node17</title>
<g id="a_Node000017"><a xlink:href="mcp2515_8h.html#ae36edcf41e011b562faf4b1006885296" target="_top" xlink:title=" ">
<polygon fill="white" stroke="#666666" points="480,-57 344,-57 344,-25 480,-25 480,-57"/>
<text text-anchor="start" x="352" y="-43.5" font-family="Helvetica,sans-Serif" font-size="10.00">zrtos_vfs_module_mcp2515</text>
<text text-anchor="middle" x="412" y="-31.5" font-family="Helvetica,sans-Serif" font-size="10.00">__set_filter_ex</text>
</a>
</g>
</g>
<!-- Node15&#45;&gt;Node17 -->
<g id="edge17_Node000015_Node000017" class="edge">
<title>Node15&#45;&gt;Node17</title>
<g id="a_edge17_Node000015_Node000017"><a xlink:title=" ">
<path fill="none" stroke="#63b8ff" d="M504.46,-54.45C496.37,-53.26 488.21,-52.06 480.26,-50.89"/>
<polygon fill="#63b8ff" stroke="#63b8ff" points="503.91,-57.91 514.31,-55.9 504.93,-50.98 503.91,-57.91"/>
</a>
</g>
</g>
<!-- Node18 -->
<g id="Node000018" class="node">
<title>Node18</title>
<g id="a_Node000018"><a xlink:href="mcp2515_8h.html#a2dd342ada1683548e1f020e4edf4310a" target="_top" xlink:title=" ">
<polygon fill="white" stroke="#666666" points="308,-82 172,-82 172,-50 308,-50 308,-82"/>
<text text-anchor="start" x="180" y="-68.5" font-family="Helvetica,sans-Serif" font-size="10.00">zrtos_vfs_module_mcp2515</text>
<text text-anchor="middle" x="240" y="-56.5" font-family="Helvetica,sans-Serif" font-size="10.00">__set_filter</text>
</a>
</g>
</g>
<!-- Node17&#45;&gt;Node18 -->
<g id="edge18_Node000017_Node000018" class="edge">
<title>Node17&#45;&gt;Node18</title>
<g id="a_edge18_Node000017_Node000018"><a xlink:title=" ">
<path fill="none" stroke="#63b8ff" d="M332.46,-52.55C324.37,-53.74 316.21,-54.94 308.26,-56.11"/>
<polygon fill="#63b8ff" stroke="#63b8ff" points="332.93,-56.02 342.31,-51.1 331.91,-49.09 332.93,-56.02"/>
</a>
</g>
</g>
<!-- Node20 -->
<g id="Node000020" class="node">
<title>Node20</title>
<g id="a_Node000020"><a xlink:href="mcp2515_8h.html#a8c085fb921bd4acc73e2e5aedaf40f54" target="_top" xlink:title=" ">
<polygon fill="white" stroke="#666666" points="308,-32 172,-32 172,0 308,0 308,-32"/>
<text text-anchor="start" x="180" y="-18.5" font-family="Helvetica,sans-Serif" font-size="10.00">zrtos_vfs_module_mcp2515</text>
<text text-anchor="middle" x="240" y="-6.5" font-family="Helvetica,sans-Serif" font-size="10.00">__set_filter_mask</text>
</a>
</g>
</g>
<!-- Node17&#45;&gt;Node20 -->
<g id="edge20_Node000017_Node000020" class="edge">
<title>Node17&#45;&gt;Node20</title>
<g id="a_edge20_Node000017_Node000020"><a xlink:title=" ">
<path fill="none" stroke="#63b8ff" d="M332.46,-29.45C324.37,-28.26 316.21,-27.06 308.26,-25.89"/>
<polygon fill="#63b8ff" stroke="#63b8ff" points="331.91,-32.91 342.31,-30.9 332.93,-25.98 331.91,-32.91"/>
</a>
</g>
</g>
<!-- Node19 -->
<g id="Node000019" class="node">
<title>Node19</title>
<g id="a_Node000019"><a xlink:href="mcp2515_8h.html#a46894ab0a30cb5e4d67fa6672327158c" target="_top" xlink:title=" ">
<polygon fill="white" stroke="#666666" points="136,-57 0,-57 0,-25 136,-25 136,-57"/>
<text text-anchor="start" x="8" y="-43.5" font-family="Helvetica,sans-Serif" font-size="10.00">zrtos_vfs_module_mcp2515</text>
<text text-anchor="middle" x="68" y="-31.5" font-family="Helvetica,sans-Serif" font-size="10.00">__reset</text>
</a>
</g>
</g>
<!-- Node18&#45;&gt;Node19 -->
<g id="edge19_Node000018_Node000019" class="edge">
<title>Node18&#45;&gt;Node19</title>
<g id="a_edge19_Node000018_Node000019"><a xlink:title=" ">
<path fill="none" stroke="#63b8ff" d="M160.46,-54.45C152.37,-53.26 144.21,-52.06 136.26,-50.89"/>
<polygon fill="#63b8ff" stroke="#63b8ff" points="159.91,-57.91 170.31,-55.9 160.93,-50.98 159.91,-57.91"/>
</a>
</g>
</g>
<!-- Node20&#45;&gt;Node19 -->
<g id="edge21_Node000020_Node000019" class="edge">
<title>Node20&#45;&gt;Node19</title>
<g id="a_edge21_Node000020_Node000019"><a xlink:title=" ">
<path fill="none" stroke="#63b8ff" d="M160.46,-27.55C152.37,-28.74 144.21,-29.94 136.26,-31.11"/>
<polygon fill="#63b8ff" stroke="#63b8ff" points="160.93,-31.02 170.31,-26.1 159.91,-24.09 160.93,-31.02"/>
</a>
</g>
</g>
</g>
</svg>
