<?xml version="1.0" encoding="UTF-8" standalone="no"?>
<!DOCTYPE svg PUBLIC "-//W3C//DTD SVG 1.1//EN"
 "http://www.w3.org/Graphics/SVG/1.1/DTD/svg11.dtd">
<!-- Generated by graphviz version 2.40.1 (20161225.0304)
 -->
<!-- Title: zrtos_vfs_module_mcp2515__check_receive Pages: 1 -->
<svg width="789pt" height="75pt"
 viewBox="0.00 0.00 789.00 74.50" xmlns="http://www.w3.org/2000/svg" xmlns:xlink="http://www.w3.org/1999/xlink">
<g id="graph0" class="graph" transform="scale(1 1) rotate(0) translate(4 70.5)">
<title>zrtos_vfs_module_mcp2515__check_receive</title>
<polygon fill="#ffffff" stroke="transparent" points="-4,4 -4,-70.5 785,-70.5 785,4 -4,4"/>
<!-- Node9 -->
<g id="node1" class="node">
<title>Node9</title>
<polygon fill="#bfbfbf" stroke="#000000" points="0,-14 0,-44 139,-44 139,-14 0,-14"/>
<text text-anchor="start" x="8" y="-32" font-family="Helvetica,sans-Serif" font-size="10.00" fill="#000000">zrtos_vfs_module_mcp2515</text>
<text text-anchor="middle" x="69.5" y="-21" font-family="Helvetica,sans-Serif" font-size="10.00" fill="#000000">__check_receive</text>
</g>
<!-- Node10 -->
<g id="node2" class="node">
<title>Node10</title>
<g id="a_node2"><a xlink:href="mcp2515_8h.html#a681fc2207cb87e9d86c3203e4bd1ff31" target="_top" xlink:title="zrtos_vfs_module_mcp2515\l__get_status">
<polygon fill="#ffffff" stroke="#000000" points="175,-36 175,-66 314,-66 314,-36 175,-36"/>
<text text-anchor="start" x="183" y="-54" font-family="Helvetica,sans-Serif" font-size="10.00" fill="#000000">zrtos_vfs_module_mcp2515</text>
<text text-anchor="middle" x="244.5" y="-43" font-family="Helvetica,sans-Serif" font-size="10.00" fill="#000000">__get_status</text>
</a>
</g>
</g>
<!-- Node9&#45;&gt;Node10 -->
<g id="edge1" class="edge">
<title>Node9&#45;&gt;Node10</title>
<path fill="none" stroke="#191970" d="M139.1675,-37.7582C147.594,-38.8175 156.251,-39.9058 164.8076,-40.9815"/>
<polygon fill="#191970" stroke="#191970" points="164.4278,-44.4613 174.7863,-42.236 165.301,-37.5159 164.4278,-44.4613"/>
</g>
<!-- Node14 -->
<g id="node6" class="node">
<title>Node14</title>
<g id="a_node6"><a xlink:href="error_8h.html#add13298163f63b7d37ed9f12d57e1a31" target="_top" xlink:title="zrtos_error__is_success">
<polygon fill="#ffffff" stroke="#000000" points="518,-.5 518,-19.5 641,-19.5 641,-.5 518,-.5"/>
<text text-anchor="middle" x="579.5" y="-7.5" font-family="Helvetica,sans-Serif" font-size="10.00" fill="#000000">zrtos_error__is_success</text>
</a>
</g>
</g>
<!-- Node9&#45;&gt;Node14 -->
<g id="edge6" class="edge">
<title>Node9&#45;&gt;Node14</title>
<path fill="none" stroke="#191970" d="M139.0776,-26.4079C235.8263,-22.8035 410.0939,-16.3112 507.9063,-12.6672"/>
<polygon fill="#191970" stroke="#191970" points="508.134,-16.1613 517.9967,-12.2913 507.8733,-9.1661 508.134,-16.1613"/>
</g>
<!-- Node11 -->
<g id="node3" class="node">
<title>Node11</title>
<g id="a_node3"><a xlink:href="vfs__fd_8h.html#a1e3e2241dc54e1283f012b7ecc641053" target="_top" xlink:title="zrtos_vfs_fd__spi_transfer">
<polygon fill="#ffffff" stroke="#000000" points="350,-39.5 350,-58.5 482,-58.5 482,-39.5 350,-39.5"/>
<text text-anchor="middle" x="416" y="-46.5" font-family="Helvetica,sans-Serif" font-size="10.00" fill="#000000">zrtos_vfs_fd__spi_transfer</text>
</a>
</g>
</g>
<!-- Node10&#45;&gt;Node11 -->
<g id="edge2" class="edge">
<title>Node10&#45;&gt;Node11</title>
<path fill="none" stroke="#191970" d="M314.2556,-50.1865C322.6286,-50.0889 331.2126,-49.9888 339.6727,-49.8901"/>
<polygon fill="#191970" stroke="#191970" points="339.9498,-53.3872 349.9083,-49.7707 339.8681,-46.3877 339.9498,-53.3872"/>
</g>
<!-- Node12 -->
<g id="node4" class="node">
<title>Node12</title>
<g id="a_node4"><a xlink:href="vfs__fd_8h.html#a1c176ae3990492b9deae02682a6782e1" target="_top" xlink:title="zrtos_vfs_fd__read">
<polygon fill="#ffffff" stroke="#000000" points="529.5,-39.5 529.5,-58.5 629.5,-58.5 629.5,-39.5 529.5,-39.5"/>
<text text-anchor="middle" x="579.5" y="-46.5" font-family="Helvetica,sans-Serif" font-size="10.00" fill="#000000">zrtos_vfs_fd__read</text>
</a>
</g>
</g>
<!-- Node11&#45;&gt;Node12 -->
<g id="edge3" class="edge">
<title>Node11&#45;&gt;Node12</title>
<path fill="none" stroke="#191970" d="M482.0304,-49C494.3552,-49 507.1753,-49 519.3125,-49"/>
<polygon fill="#191970" stroke="#191970" points="519.3213,-52.5001 529.3213,-49 519.3213,-45.5001 519.3213,-52.5001"/>
</g>
<!-- Node11&#45;&gt;Node14 -->
<g id="edge5" class="edge">
<title>Node11&#45;&gt;Node14</title>
<path fill="none" stroke="#191970" d="M455.9966,-39.4595C478.2487,-34.1517 506.1426,-27.4981 529.7883,-21.8578"/>
<polygon fill="#191970" stroke="#191970" points="530.7183,-25.2343 539.6333,-19.5095 529.0941,-18.4253 530.7183,-25.2343"/>
</g>
<!-- Node13 -->
<g id="node5" class="node">
<title>Node13</title>
<g id="a_node5"><a xlink:href="vfs__file_8h.html#a27e4ed3d3306da0eaccc004eebc8d3c4" target="_top" xlink:title="zrtos_vfs_file__read">
<polygon fill="#ffffff" stroke="#000000" points="677,-39.5 677,-58.5 781,-58.5 781,-39.5 677,-39.5"/>
<text text-anchor="middle" x="729" y="-46.5" font-family="Helvetica,sans-Serif" font-size="10.00" fill="#000000">zrtos_vfs_file__read</text>
</a>
</g>
</g>
<!-- Node12&#45;&gt;Node13 -->
<g id="edge4" class="edge">
<title>Node12&#45;&gt;Node13</title>
<path fill="none" stroke="#191970" d="M629.6972,-49C641.5597,-49 654.3503,-49 666.677,-49"/>
<polygon fill="#191970" stroke="#191970" points="666.8917,-52.5001 676.8917,-49 666.8917,-45.5001 666.8917,-52.5001"/>
</g>
</g>
</svg>
