<?xml version="1.0" encoding="UTF-8" standalone="no"?>
<!DOCTYPE svg PUBLIC "-//W3C//DTD SVG 1.1//EN"
 "http://www.w3.org/Graphics/SVG/1.1/DTD/svg11.dtd">
<!-- Generated by graphviz version 10.0.1 (20240210.2158)
 -->
<!-- Title: zrtos_vfs_module_mcp2515__set_registers Pages: 1 -->
<svg width="660pt" height="318pt"
 viewBox="0.00 0.00 660.00 318.45" xmlns="http://www.w3.org/2000/svg" xmlns:xlink="http://www.w3.org/1999/xlink">
<g id="graph0" class="graph" transform="scale(1 1) rotate(0) translate(4 314.45)">
<title>zrtos_vfs_module_mcp2515__set_registers</title>
<!-- Node1 -->
<g id="Node000001" class="node">
<title>Node1</title>
<g id="a_Node000001"><a xlink:title=" ">
<polygon fill="#999999" stroke="#666666" points="652,-245 516,-245 516,-213 652,-213 652,-245"/>
<text text-anchor="start" x="524" y="-231.5" font-family="Helvetica,sans-Serif" font-size="10.00">zrtos_vfs_module_mcp2515</text>
<text text-anchor="middle" x="584" y="-219.5" font-family="Helvetica,sans-Serif" font-size="10.00">__set_registers</text>
</a>
</g>
</g>
<!-- Node2 -->
<g id="Node000002" class="node">
<title>Node2</title>
<g id="a_Node000002"><a xlink:href="mcp2515_8h.html#a46894ab0a30cb5e4d67fa6672327158c" target="_top" xlink:title=" ">
<polygon fill="white" stroke="#666666" points="136,-195 0,-195 0,-163 136,-163 136,-195"/>
<text text-anchor="start" x="8" y="-181.5" font-family="Helvetica,sans-Serif" font-size="10.00">zrtos_vfs_module_mcp2515</text>
<text text-anchor="middle" x="68" y="-169.5" font-family="Helvetica,sans-Serif" font-size="10.00">__reset</text>
</a>
</g>
</g>
<!-- Node1&#45;&gt;Node2 -->
<g id="edge1_Node000001_Node000002" class="edge">
<title>Node1&#45;&gt;Node2</title>
<g id="a_edge1_Node000001_Node000002"><a xlink:title=" ">
<path fill="none" stroke="#63b8ff" d="M547.74,-251.05C528.5,-261.78 503.81,-273.53 480,-279 346.59,-309.67 298.85,-330.45 172,-279 130.2,-262.05 96.02,-219.08 79.58,-195.35"/>
<polygon fill="#63b8ff" stroke="#63b8ff" points="549.31,-254.18 556.23,-246.16 545.82,-248.12 549.31,-254.18"/>
</a>
</g>
</g>
<!-- Node3 -->
<g id="Node000003" class="node">
<title>Node3</title>
<g id="a_Node000003"><a xlink:href="mcp2515_8h.html#a4495c08c9700911d34d8e633beb90a7b" target="_top" xlink:title=" ">
<polygon fill="white" stroke="#666666" points="480,-270 344,-270 344,-238 480,-238 480,-270"/>
<text text-anchor="start" x="352" y="-256.5" font-family="Helvetica,sans-Serif" font-size="10.00">zrtos_vfs_module_mcp2515</text>
<text text-anchor="middle" x="412" y="-244.5" font-family="Helvetica,sans-Serif" font-size="10.00">__send_message_ex</text>
</a>
</g>
</g>
<!-- Node1&#45;&gt;Node3 -->
<g id="edge2_Node000001_Node000003" class="edge">
<title>Node1&#45;&gt;Node3</title>
<g id="a_edge2_Node000001_Node000003"><a xlink:title=" ">
<path fill="none" stroke="#63b8ff" d="M504.46,-240.55C496.37,-241.74 488.21,-242.94 480.26,-244.11"/>
<polygon fill="#63b8ff" stroke="#63b8ff" points="504.93,-244.02 514.31,-239.1 503.91,-237.09 504.93,-244.02"/>
</a>
</g>
</g>
<!-- Node5 -->
<g id="Node000005" class="node">
<title>Node5</title>
<g id="a_Node000005"><a xlink:href="mcp2515_8h.html#ae36edcf41e011b562faf4b1006885296" target="_top" xlink:title=" ">
<polygon fill="white" stroke="#666666" points="480,-220 344,-220 344,-188 480,-188 480,-220"/>
<text text-anchor="start" x="352" y="-206.5" font-family="Helvetica,sans-Serif" font-size="10.00">zrtos_vfs_module_mcp2515</text>
<text text-anchor="middle" x="412" y="-194.5" font-family="Helvetica,sans-Serif" font-size="10.00">__set_filter_ex</text>
</a>
</g>
</g>
<!-- Node1&#45;&gt;Node5 -->
<g id="edge4_Node000001_Node000005" class="edge">
<title>Node1&#45;&gt;Node5</title>
<g id="a_edge4_Node000001_Node000005"><a xlink:title=" ">
<path fill="none" stroke="#63b8ff" d="M504.46,-217.45C496.37,-216.26 488.21,-215.06 480.26,-213.89"/>
<polygon fill="#63b8ff" stroke="#63b8ff" points="503.91,-220.91 514.31,-218.9 504.93,-213.98 503.91,-220.91"/>
</a>
</g>
</g>
<!-- Node8 -->
<g id="Node000008" class="node">
<title>Node8</title>
<g id="a_Node000008"><a xlink:href="mcp2515_8h.html#ac322ac78e5668f59b86ba8744900b5a1" target="_top" xlink:title=" ">
<polygon fill="white" stroke="#666666" points="480,-104 344,-104 344,-72 480,-72 480,-104"/>
<text text-anchor="start" x="352" y="-90.5" font-family="Helvetica,sans-Serif" font-size="10.00">zrtos_vfs_module_mcp2515</text>
<text text-anchor="middle" x="412" y="-78.5" font-family="Helvetica,sans-Serif" font-size="10.00">__set_register</text>
</a>
</g>
</g>
<!-- Node1&#45;&gt;Node8 -->
<g id="edge9_Node000001_Node000008" class="edge">
<title>Node1&#45;&gt;Node8</title>
<g id="a_edge9_Node000001_Node000008"><a xlink:title=" ">
<path fill="none" stroke="#63b8ff" d="M554.49,-205.35C519.96,-176.71 462.7,-129.22 432.71,-104.35"/>
<polygon fill="#63b8ff" stroke="#63b8ff" points="552.07,-207.89 562,-211.58 556.54,-202.51 552.07,-207.89"/>
</a>
</g>
</g>
<!-- Node4 -->
<g id="Node000004" class="node">
<title>Node4</title>
<g id="a_Node000004"><a xlink:href="mcp2515_8h.html#a676018a85ead592f37f7774b0ff2e4c5" target="_top" xlink:title=" ">
<polygon fill="white" stroke="#666666" points="308,-270 172,-270 172,-238 308,-238 308,-270"/>
<text text-anchor="start" x="180" y="-256.5" font-family="Helvetica,sans-Serif" font-size="10.00">zrtos_vfs_module_mcp2515</text>
<text text-anchor="middle" x="240" y="-244.5" font-family="Helvetica,sans-Serif" font-size="10.00">__send_message</text>
</a>
</g>
</g>
<!-- Node3&#45;&gt;Node4 -->
<g id="edge3_Node000003_Node000004" class="edge">
<title>Node3&#45;&gt;Node4</title>
<g id="a_edge3_Node000003_Node000004"><a xlink:title=" ">
<path fill="none" stroke="#63b8ff" d="M332.46,-254C324.37,-254 316.21,-254 308.26,-254"/>
<polygon fill="#63b8ff" stroke="#63b8ff" points="332.3,-257.5 342.3,-254 332.3,-250.5 332.3,-257.5"/>
</a>
</g>
</g>
<!-- Node6 -->
<g id="Node000006" class="node">
<title>Node6</title>
<g id="a_Node000006"><a xlink:href="mcp2515_8h.html#a2dd342ada1683548e1f020e4edf4310a" target="_top" xlink:title=" ">
<polygon fill="white" stroke="#666666" points="308,-220 172,-220 172,-188 308,-188 308,-220"/>
<text text-anchor="start" x="180" y="-206.5" font-family="Helvetica,sans-Serif" font-size="10.00">zrtos_vfs_module_mcp2515</text>
<text text-anchor="middle" x="240" y="-194.5" font-family="Helvetica,sans-Serif" font-size="10.00">__set_filter</text>
</a>
</g>
</g>
<!-- Node5&#45;&gt;Node6 -->
<g id="edge5_Node000005_Node000006" class="edge">
<title>Node5&#45;&gt;Node6</title>
<g id="a_edge5_Node000005_Node000006"><a xlink:title=" ">
<path fill="none" stroke="#63b8ff" d="M332.46,-204C324.37,-204 316.21,-204 308.26,-204"/>
<polygon fill="#63b8ff" stroke="#63b8ff" points="332.3,-207.5 342.3,-204 332.3,-200.5 332.3,-207.5"/>
</a>
</g>
</g>
<!-- Node7 -->
<g id="Node000007" class="node">
<title>Node7</title>
<g id="a_Node000007"><a xlink:href="mcp2515_8h.html#a8c085fb921bd4acc73e2e5aedaf40f54" target="_top" xlink:title=" ">
<polygon fill="white" stroke="#666666" points="308,-170 172,-170 172,-138 308,-138 308,-170"/>
<text text-anchor="start" x="180" y="-156.5" font-family="Helvetica,sans-Serif" font-size="10.00">zrtos_vfs_module_mcp2515</text>
<text text-anchor="middle" x="240" y="-144.5" font-family="Helvetica,sans-Serif" font-size="10.00">__set_filter_mask</text>
</a>
</g>
</g>
<!-- Node5&#45;&gt;Node7 -->
<g id="edge7_Node000005_Node000007" class="edge">
<title>Node5&#45;&gt;Node7</title>
<g id="a_edge7_Node000005_Node000007"><a xlink:title=" ">
<path fill="none" stroke="#63b8ff" d="M344.62,-184.48C328.9,-179.85 312.29,-174.97 297.08,-170.49"/>
<polygon fill="#63b8ff" stroke="#63b8ff" points="343.3,-187.74 353.88,-187.2 345.28,-181.02 343.3,-187.74"/>
</a>
</g>
</g>
<!-- Node6&#45;&gt;Node2 -->
<g id="edge6_Node000006_Node000002" class="edge">
<title>Node6&#45;&gt;Node2</title>
<g id="a_edge6_Node000006_Node000002"><a xlink:title=" ">
<path fill="none" stroke="#63b8ff" d="M160.46,-192.45C152.37,-191.26 144.21,-190.06 136.26,-188.89"/>
<polygon fill="#63b8ff" stroke="#63b8ff" points="159.91,-195.91 170.31,-193.9 160.93,-188.98 159.91,-195.91"/>
</a>
</g>
</g>
<!-- Node7&#45;&gt;Node2 -->
<g id="edge8_Node000007_Node000002" class="edge">
<title>Node7&#45;&gt;Node2</title>
<g id="a_edge8_Node000007_Node000002"><a xlink:title=" ">
<path fill="none" stroke="#63b8ff" d="M160.46,-165.55C152.37,-166.74 144.21,-167.94 136.26,-169.11"/>
<polygon fill="#63b8ff" stroke="#63b8ff" points="160.93,-169.02 170.31,-164.1 159.91,-162.09 160.93,-169.02"/>
</a>
</g>
</g>
<!-- Node8&#45;&gt;Node2 -->
<g id="edge12_Node000008_Node000002" class="edge">
<title>Node8&#45;&gt;Node2</title>
<g id="a_edge12_Node000008_Node000002"><a xlink:title=" ">
<path fill="none" stroke="#63b8ff" d="M332.2,-95.85C284.95,-101.94 224.12,-112.25 172,-129 145.69,-137.45 117.59,-151.47 97.39,-162.51"/>
<polygon fill="#63b8ff" stroke="#63b8ff" points="332.61,-99.32 342.1,-94.61 331.74,-92.38 332.61,-99.32"/>
</a>
</g>
</g>
<!-- Node9 -->
<g id="Node000009" class="node">
<title>Node9</title>
<g id="a_Node000009"><a xlink:href="mcp2515_8h.html#aefab00a666fb26f7e2a83f4b92cc32cc" target="_top" xlink:title=" ">
<polygon fill="white" stroke="#666666" points="308,-82 172,-82 172,-50 308,-50 308,-82"/>
<text text-anchor="start" x="180" y="-68.5" font-family="Helvetica,sans-Serif" font-size="10.00">zrtos_vfs_module_mcp2515</text>
<text text-anchor="middle" x="240" y="-56.5" font-family="Helvetica,sans-Serif" font-size="10.00">__clear_interrupts</text>
</a>
</g>
</g>
<!-- Node8&#45;&gt;Node9 -->
<g id="edge10_Node000008_Node000009" class="edge">
<title>Node8&#45;&gt;Node9</title>
<g id="a_edge10_Node000008_Node000009"><a xlink:title=" ">
<path fill="none" stroke="#63b8ff" d="M332.46,-77.84C324.37,-76.79 316.21,-75.73 308.26,-74.7"/>
<polygon fill="#63b8ff" stroke="#63b8ff" points="331.94,-81.3 342.31,-79.11 332.84,-74.36 331.94,-81.3"/>
</a>
</g>
</g>
<!-- Node11 -->
<g id="Node000011" class="node">
<title>Node11</title>
<g id="a_Node000011"><a xlink:href="mcp2515_8h.html#a180ecb3193b7334b800951d74b3f591f" target="_top" xlink:title=" ">
<polygon fill="white" stroke="#666666" points="308,-32 172,-32 172,0 308,0 308,-32"/>
<text text-anchor="start" x="180" y="-18.5" font-family="Helvetica,sans-Serif" font-size="10.00">zrtos_vfs_module_mcp2515</text>
<text text-anchor="middle" x="240" y="-6.5" font-family="Helvetica,sans-Serif" font-size="10.00">__set_bitrate</text>
</a>
</g>
</g>
<!-- Node8&#45;&gt;Node11 -->
<g id="edge13_Node000008_Node000011" class="edge">
<title>Node8&#45;&gt;Node11</title>
<g id="a_edge13_Node000008_Node000011"><a xlink:title=" ">
<path fill="none" stroke="#63b8ff" d="M366.26,-66.75C348.28,-58.43 327.28,-48.98 308,-41 301,-38.1 293.54,-35.17 286.22,-32.37"/>
<polygon fill="#63b8ff" stroke="#63b8ff" points="364.55,-69.81 375.09,-70.86 367.51,-63.47 364.55,-69.81"/>
</a>
</g>
</g>
<!-- Node10 -->
<g id="Node000010" class="node">
<title>Node10</title>
<g id="a_Node000010"><a xlink:href="mcp2515_8h.html#a0efa06269912d6ba6c23a5fbbea49150" target="_top" xlink:title=" ">
<polygon fill="white" stroke="#666666" points="136,-82 0,-82 0,-50 136,-50 136,-82"/>
<text text-anchor="start" x="8" y="-68.5" font-family="Helvetica,sans-Serif" font-size="10.00">zrtos_vfs_module_mcp2515</text>
<text text-anchor="middle" x="68" y="-56.5" font-family="Helvetica,sans-Serif" font-size="10.00">__clear_rx_and_ovr</text>
</a>
</g>
</g>
<!-- Node9&#45;&gt;Node10 -->
<g id="edge11_Node000009_Node000010" class="edge">
<title>Node9&#45;&gt;Node10</title>
<g id="a_edge11_Node000009_Node000010"><a xlink:title=" ">
<path fill="none" stroke="#63b8ff" d="M160.46,-66C152.37,-66 144.21,-66 136.26,-66"/>
<polygon fill="#63b8ff" stroke="#63b8ff" points="160.3,-69.5 170.3,-66 160.3,-62.5 160.3,-69.5"/>
</a>
</g>
</g>
</g>
</svg>
