<?xml version="1.0" encoding="UTF-8" standalone="no"?>
<!DOCTYPE svg PUBLIC "-//W3C//DTD SVG 1.1//EN"
 "http://www.w3.org/Graphics/SVG/1.1/DTD/svg11.dtd">
<!-- Generated by graphviz version 10.0.1 (20240210.2158)
 -->
<!-- Title: zrtos_mem__cpy Pages: 1 -->
<svg width="692pt" height="390pt"
 viewBox="0.00 0.00 691.75 390.00" xmlns="http://www.w3.org/2000/svg" xmlns:xlink="http://www.w3.org/1999/xlink">
<g id="graph0" class="graph" transform="scale(1 1) rotate(0) translate(4 386)">
<title>zrtos_mem__cpy</title>
<!-- Node1 -->
<g id="Node000001" class="node">
<title>Node1</title>
<g id="a_Node000001"><a xlink:title=" ">
<polygon fill="#999999" stroke="#666666" points="683.75,-180 592.75,-180 592.75,-160 683.75,-160 683.75,-180"/>
<text text-anchor="middle" x="638.25" y="-166.5" font-family="Helvetica,sans-Serif" font-size="10.00">zrtos_mem__cpy</text>
</a>
</g>
</g>
<!-- Node2 -->
<g id="Node000002" class="node">
<title>Node2</title>
<g id="a_Node000002"><a xlink:href="stack_8h.html#aa86feb2b5c314393a0624e3aefee9ed6" target="_top" xlink:title=" ">
<polygon fill="white" stroke="#666666" points="536.88,-308 438.38,-308 438.38,-288 536.88,-288 536.88,-308"/>
<text text-anchor="middle" x="487.62" y="-294.5" font-family="Helvetica,sans-Serif" font-size="10.00">_zrtos_stack__cpy</text>
</a>
</g>
</g>
<!-- Node1&#45;&gt;Node2 -->
<g id="edge1_Node000001_Node000002" class="edge">
<title>Node1&#45;&gt;Node2</title>
<g id="a_edge1_Node000001_Node000002"><a xlink:title=" ">
<path fill="none" stroke="#63b8ff" d="M626.66,-190.23C613.35,-213.79 588.36,-252.38 556.75,-275 549.44,-280.23 540.85,-284.34 532.29,-287.54"/>
<polygon fill="#63b8ff" stroke="#63b8ff" points="629.65,-192.07 631.37,-181.61 623.5,-188.71 629.65,-192.07"/>
</a>
</g>
</g>
<!-- Node9 -->
<g id="Node000009" class="node">
<title>Node9</title>
<g id="a_Node000009"><a xlink:href="bitfield_8h.html#a35443b315a5b7cf5939dca9de8582dc2" target="_top" xlink:title=" ">
<polygon fill="white" stroke="#666666" points="538.75,-266 436.5,-266 436.5,-246 538.75,-246 538.75,-266"/>
<text text-anchor="middle" x="487.62" y="-252.5" font-family="Helvetica,sans-Serif" font-size="10.00">zrtos_bitfield__copy</text>
</a>
</g>
</g>
<!-- Node1&#45;&gt;Node9 -->
<g id="edge10_Node000001_Node000009" class="edge">
<title>Node1&#45;&gt;Node9</title>
<g id="a_edge10_Node000001_Node000009"><a xlink:title=" ">
<path fill="none" stroke="#63b8ff" d="M616.63,-187.89C600.97,-200.82 578.51,-218.04 556.75,-230 545.66,-236.1 532.83,-241.4 521.33,-245.6"/>
<polygon fill="#63b8ff" stroke="#63b8ff" points="618.87,-190.57 624.27,-181.45 614.36,-185.22 618.87,-190.57"/>
</a>
</g>
</g>
<!-- Node12 -->
<g id="Node000012" class="node">
<title>Node12</title>
<g id="a_Node000012"><a xlink:href="progmem_8h.html#a7185db18272b8514d094ac443ad989eb" target="_top" xlink:title=" ">
<polygon fill="white" stroke="#666666" points="542.5,-221 432.75,-221 432.75,-201 542.5,-201 542.5,-221"/>
<text text-anchor="middle" x="487.62" y="-207.5" font-family="Helvetica,sans-Serif" font-size="10.00">zrtos_progmem__cpy</text>
</a>
</g>
</g>
<!-- Node1&#45;&gt;Node12 -->
<g id="edge13_Node000001_Node000012" class="edge">
<title>Node1&#45;&gt;Node12</title>
<g id="a_edge13_Node000001_Node000012"><a xlink:title=" ">
<path fill="none" stroke="#63b8ff" d="M588.5,-183.45C568.33,-189.01 545.3,-195.37 526.44,-200.57"/>
<polygon fill="#63b8ff" stroke="#63b8ff" points="589.19,-186.89 597.9,-180.85 587.33,-180.14 589.19,-186.89"/>
</a>
</g>
</g>
<!-- Node14 -->
<g id="Node000014" class="node">
<title>Node14</title>
<g id="a_Node000014"><a xlink:href="stack_8h.html#ad2f30a04ec3ad6cbb92d5ea61eb939cf" target="_top" xlink:title=" ">
<polygon fill="white" stroke="#666666" points="218.38,-205 125.12,-205 125.12,-185 218.38,-185 218.38,-205"/>
<text text-anchor="middle" x="171.75" y="-191.5" font-family="Helvetica,sans-Serif" font-size="10.00">zrtos_stack__pop</text>
</a>
</g>
</g>
<!-- Node1&#45;&gt;Node14 -->
<g id="edge15_Node000001_Node000014" class="edge">
<title>Node1&#45;&gt;Node14</title>
<g id="a_edge15_Node000001_Node000014"><a xlink:title=" ">
<path fill="none" stroke="#63b8ff" d="M581.29,-172.6C508.36,-176.05 376.87,-182.46 264.5,-189 249.52,-189.87 233.17,-190.91 218.48,-191.88"/>
<polygon fill="#63b8ff" stroke="#63b8ff" points="581.15,-176.11 590.97,-172.14 580.82,-169.12 581.15,-176.11"/>
</a>
</g>
</g>
<!-- Node15 -->
<g id="Node000015" class="node">
<title>Node15</title>
<g id="a_Node000015"><a xlink:href="stack_8h.html#afa31eba570f50c5a4abe165602963225" target="_top" xlink:title=" ">
<polygon fill="white" stroke="#666666" points="219.5,-154 124,-154 124,-134 219.5,-134 219.5,-154"/>
<text text-anchor="middle" x="171.75" y="-140.5" font-family="Helvetica,sans-Serif" font-size="10.00">zrtos_stack__shift</text>
</a>
</g>
</g>
<!-- Node1&#45;&gt;Node15 -->
<g id="edge17_Node000001_Node000015" class="edge">
<title>Node1&#45;&gt;Node15</title>
<g id="a_edge17_Node000001_Node000015"><a xlink:title=" ">
<path fill="none" stroke="#63b8ff" d="M580.92,-166.85C488.39,-161.67 305.89,-151.45 219.8,-146.63"/>
<polygon fill="#63b8ff" stroke="#63b8ff" points="580.6,-170.33 590.78,-167.4 580.99,-163.35 580.6,-170.33"/>
</a>
</g>
</g>
<!-- Node16 -->
<g id="Node000016" class="node">
<title>Node16</title>
<g id="a_Node000016"><a xlink:href="adc_8h.html#a8922bb86f60c10f7e58cf833ba4bfc77" target="_top" xlink:title=" ">
<polygon fill="white" stroke="#666666" points="541.75,-104 433.5,-104 433.5,-72 541.75,-72 541.75,-104"/>
<text text-anchor="start" x="441.5" y="-90.5" font-family="Helvetica,sans-Serif" font-size="10.00">zrtos_vfs_module_avr</text>
<text text-anchor="middle" x="487.62" y="-78.5" font-family="Helvetica,sans-Serif" font-size="10.00">_adc__on_read</text>
</a>
</g>
</g>
<!-- Node1&#45;&gt;Node16 -->
<g id="edge19_Node000001_Node000016" class="edge">
<title>Node1&#45;&gt;Node16</title>
<g id="a_edge19_Node000001_Node000016"><a xlink:title=" ">
<path fill="none" stroke="#63b8ff" d="M613.39,-153.16C597.68,-142.44 576.46,-128.62 556.75,-118 547.88,-113.22 538.09,-108.57 528.76,-104.41"/>
<polygon fill="#63b8ff" stroke="#63b8ff" points="611.38,-156.03 621.6,-158.83 615.36,-150.27 611.38,-156.03"/>
</a>
</g>
</g>
<!-- Node17 -->
<g id="Node000017" class="node">
<title>Node17</title>
<g id="a_Node000017"><a xlink:href="sram_8h.html#ae81a59adc54eb479f21bf266c427b309" target="_top" xlink:title=" ">
<polygon fill="white" stroke="#666666" points="556.75,-54 418.5,-54 418.5,-34 556.75,-34 556.75,-54"/>
<text text-anchor="middle" x="487.62" y="-40.5" font-family="Helvetica,sans-Serif" font-size="10.00">zrtos_vfs_module_sram__rw</text>
</a>
</g>
</g>
<!-- Node1&#45;&gt;Node17 -->
<g id="edge20_Node000001_Node000017" class="edge">
<title>Node1&#45;&gt;Node17</title>
<g id="a_edge20_Node000001_Node000017"><a xlink:title=" ">
<path fill="none" stroke="#63b8ff" d="M627.17,-149.46C614.2,-125.18 589.4,-85.29 556.75,-63 551.68,-59.54 545.99,-56.71 540.12,-54.39"/>
<polygon fill="#63b8ff" stroke="#63b8ff" points="624.05,-151.04 631.73,-158.34 630.27,-147.84 624.05,-151.04"/>
</a>
</g>
</g>
<!-- Node3 -->
<g id="Node000003" class="node">
<title>Node3</title>
<g id="a_Node000003"><a xlink:href="stack_8h.html#ac3fd330de26a2b1020d117ecc4ddb8ce" target="_top" xlink:title=" ">
<polygon fill="white" stroke="#666666" points="221,-382 122.5,-382 122.5,-362 221,-362 221,-382"/>
<text text-anchor="middle" x="171.75" y="-368.5" font-family="Helvetica,sans-Serif" font-size="10.00">zrtos_stack__push</text>
</a>
</g>
</g>
<!-- Node2&#45;&gt;Node3 -->
<g id="edge2_Node000002_Node000003" class="edge">
<title>Node2&#45;&gt;Node3</title>
<g id="a_edge2_Node000002_Node000003"><a xlink:title=" ">
<path fill="none" stroke="#63b8ff" d="M462.15,-314.52C441.78,-327.36 411.51,-344.4 382.5,-353 328.86,-368.9 264.42,-372.58 221.24,-372.97"/>
<polygon fill="#63b8ff" stroke="#63b8ff" points="463.81,-317.61 470.31,-309.25 460.01,-311.73 463.81,-317.61"/>
</a>
</g>
</g>
<!-- Node5 -->
<g id="Node000005" class="node">
<title>Node5</title>
<g id="a_Node000005"><a xlink:href="stack_8h.html#ab6d341f61cf081171285ecc0013eb025" target="_top" xlink:title=" ">
<polygon fill="white" stroke="#666666" points="371.62,-344 275.38,-344 275.38,-324 371.62,-324 371.62,-344"/>
<text text-anchor="middle" x="323.5" y="-330.5" font-family="Helvetica,sans-Serif" font-size="10.00">zrtos_stack__read</text>
</a>
</g>
</g>
<!-- Node2&#45;&gt;Node5 -->
<g id="edge4_Node000002_Node000005" class="edge">
<title>Node2&#45;&gt;Node5</title>
<g id="a_edge4_Node000002_Node000005"><a xlink:title=" ">
<path fill="none" stroke="#63b8ff" d="M428.65,-310.87C409.92,-315.03 389.4,-319.59 371.57,-323.55"/>
<polygon fill="#63b8ff" stroke="#63b8ff" points="429.25,-314.33 438.25,-308.74 427.73,-307.49 429.25,-314.33"/>
</a>
</g>
</g>
<!-- Node7 -->
<g id="Node000007" class="node">
<title>Node7</title>
<g id="a_Node000007"><a xlink:href="stack_8h.html#aebaaa2b5cc93359116c7c7cee1f77bca" target="_top" xlink:title=" ">
<polygon fill="white" stroke="#666666" points="372.38,-306 274.62,-306 274.62,-286 372.38,-286 372.38,-306"/>
<text text-anchor="middle" x="323.5" y="-292.5" font-family="Helvetica,sans-Serif" font-size="10.00">zrtos_stack__write</text>
</a>
</g>
</g>
<!-- Node2&#45;&gt;Node7 -->
<g id="edge7_Node000002_Node000007" class="edge">
<title>Node2&#45;&gt;Node7</title>
<g id="a_edge7_Node000002_Node000007"><a xlink:title=" ">
<path fill="none" stroke="#63b8ff" d="M426.59,-297.26C408.87,-297.04 389.71,-296.8 372.83,-296.6"/>
<polygon fill="#63b8ff" stroke="#63b8ff" points="426.43,-300.76 436.47,-297.38 426.51,-293.76 426.43,-300.76"/>
</a>
</g>
</g>
<!-- Node4 -->
<g id="Node000004" class="node">
<title>Node4</title>
<g id="a_Node000004"><a xlink:href="vm_8h.html#a8d1a7bee17e7bc3e2f5b16385b8108d9" target="_top" xlink:title=" ">
<polygon fill="white" stroke="#666666" points="79,-306 0,-306 0,-286 79,-286 79,-306"/>
<text text-anchor="middle" x="39.5" y="-292.5" font-family="Helvetica,sans-Serif" font-size="10.00">zrtos_vm__run</text>
</a>
</g>
</g>
<!-- Node3&#45;&gt;Node4 -->
<g id="edge3_Node000003_Node000004" class="edge">
<title>Node3&#45;&gt;Node4</title>
<g id="a_edge3_Node000003_Node000004"><a xlink:title=" ">
<path fill="none" stroke="#63b8ff" d="M123.85,-357.28C120.81,-355.94 117.83,-354.51 115,-353 90.3,-339.8 65.16,-318.61 51.32,-306.12"/>
<polygon fill="#63b8ff" stroke="#63b8ff" points="122.35,-360.45 132.93,-360.94 124.96,-353.96 122.35,-360.45"/>
</a>
</g>
</g>
<!-- Node6 -->
<g id="Node000006" class="node">
<title>Node6</title>
<g id="a_Node000006"><a xlink:href="stack_8h.html#a671e22b7c2aaae864486a45d585ea6cd" target="_top" xlink:title=" ">
<polygon fill="white" stroke="#666666" points="227.75,-344 115.75,-344 115.75,-324 227.75,-324 227.75,-344"/>
<text text-anchor="middle" x="171.75" y="-330.5" font-family="Helvetica,sans-Serif" font-size="10.00">zrtos_stack__read_ex</text>
</a>
</g>
</g>
<!-- Node5&#45;&gt;Node6 -->
<g id="edge5_Node000005_Node000006" class="edge">
<title>Node5&#45;&gt;Node6</title>
<g id="a_edge5_Node000005_Node000006"><a xlink:title=" ">
<path fill="none" stroke="#63b8ff" d="M263.66,-334C251.98,-334 239.76,-334 228.19,-334"/>
<polygon fill="#63b8ff" stroke="#63b8ff" points="263.6,-337.5 273.6,-334 263.6,-330.5 263.6,-337.5"/>
</a>
</g>
</g>
<!-- Node6&#45;&gt;Node4 -->
<g id="edge6_Node000006_Node000004" class="edge">
<title>Node6&#45;&gt;Node4</title>
<g id="a_edge6_Node000006_Node000004"><a xlink:title=" ">
<path fill="none" stroke="#63b8ff" d="M124.21,-320.42C108.45,-315.82 91.11,-310.77 76.32,-306.45"/>
<polygon fill="#63b8ff" stroke="#63b8ff" points="122.78,-323.65 133.36,-323.09 124.74,-316.93 122.78,-323.65"/>
</a>
</g>
</g>
<!-- Node8 -->
<g id="Node000008" class="node">
<title>Node8</title>
<g id="a_Node000008"><a xlink:href="stack_8h.html#a34c188132dc24679ed10585279d791d9" target="_top" xlink:title=" ">
<polygon fill="white" stroke="#666666" points="228.5,-306 115,-306 115,-286 228.5,-286 228.5,-306"/>
<text text-anchor="middle" x="171.75" y="-292.5" font-family="Helvetica,sans-Serif" font-size="10.00">zrtos_stack__write_ex</text>
</a>
</g>
</g>
<!-- Node7&#45;&gt;Node8 -->
<g id="edge8_Node000007_Node000008" class="edge">
<title>Node7&#45;&gt;Node8</title>
<g id="a_edge8_Node000007_Node000008"><a xlink:title=" ">
<path fill="none" stroke="#63b8ff" d="M262.86,-296C251.68,-296 240.02,-296 228.95,-296"/>
<polygon fill="#63b8ff" stroke="#63b8ff" points="262.78,-299.5 272.78,-296 262.78,-292.5 262.78,-299.5"/>
</a>
</g>
</g>
<!-- Node8&#45;&gt;Node4 -->
<g id="edge9_Node000008_Node000004" class="edge">
<title>Node8&#45;&gt;Node4</title>
<g id="a_edge9_Node000008_Node000004"><a xlink:title=" ">
<path fill="none" stroke="#63b8ff" d="M103.44,-296C95.12,-296 86.85,-296 79.17,-296"/>
<polygon fill="#63b8ff" stroke="#63b8ff" points="103.24,-299.5 113.24,-296 103.24,-292.5 103.24,-299.5"/>
</a>
</g>
</g>
<!-- Node10 -->
<g id="Node000010" class="node">
<title>Node10</title>
<g id="a_Node000010"><a xlink:href="vfs__fd_8h.html#a71a8f21157553c2313c2395e516d962e" target="_top" xlink:title=" ">
<polygon fill="white" stroke="#666666" points="382.12,-268 264.88,-268 264.88,-248 382.12,-248 382.12,-268"/>
<text text-anchor="middle" x="323.5" y="-254.5" font-family="Helvetica,sans-Serif" font-size="10.00">zrtos_vfs_fd_set__copy</text>
</a>
</g>
</g>
<!-- Node9&#45;&gt;Node10 -->
<g id="edge11_Node000009_Node000010" class="edge">
<title>Node9&#45;&gt;Node10</title>
<g id="a_edge11_Node000009_Node000010"><a xlink:title=" ">
<path fill="none" stroke="#63b8ff" d="M424.79,-256.76C410.91,-256.93 396.24,-257.11 382.53,-257.28"/>
<polygon fill="#63b8ff" stroke="#63b8ff" points="424.75,-260.26 434.7,-256.64 424.66,-253.26 424.75,-260.26"/>
</a>
</g>
</g>
<!-- Node11 -->
<g id="Node000011" class="node">
<title>Node11</title>
<g id="a_Node000011"><a xlink:href="vfs__notify_8h.html#a9abba884c837a89754c83d36d6430778" target="_top" xlink:title=" ">
<polygon fill="white" stroke="#666666" points="228.12,-268 115.38,-268 115.38,-248 228.12,-248 228.12,-268"/>
<text text-anchor="middle" x="171.75" y="-254.5" font-family="Helvetica,sans-Serif" font-size="10.00">zrtos_vfs_notify__start</text>
</a>
</g>
</g>
<!-- Node10&#45;&gt;Node11 -->
<g id="edge12_Node000010_Node000011" class="edge">
<title>Node10&#45;&gt;Node11</title>
<g id="a_edge12_Node000010_Node000011"><a xlink:title=" ">
<path fill="none" stroke="#63b8ff" d="M253.36,-258C245.04,-258 236.62,-258 228.52,-258"/>
<polygon fill="#63b8ff" stroke="#63b8ff" points="253.09,-261.5 263.09,-258 253.09,-254.5 253.09,-261.5"/>
</a>
</g>
</g>
<!-- Node13 -->
<g id="Node000013" class="node">
<title>Node13</title>
<g id="a_Node000013"><a xlink:href="event__index_8h.html#a103b54fae27100dc5d48347a3110f51c" target="_top" xlink:title=" ">
<polygon fill="white" stroke="#666666" points="373.12,-230 273.88,-230 273.88,-198 373.12,-198 373.12,-230"/>
<text text-anchor="start" x="281.88" y="-216.5" font-family="Helvetica,sans-Serif" font-size="10.00">zrtos_event_index_</text>
<text text-anchor="middle" x="323.5" y="-204.5" font-family="Helvetica,sans-Serif" font-size="10.00">_invoke</text>
</a>
</g>
</g>
<!-- Node12&#45;&gt;Node13 -->
<g id="edge14_Node000012_Node000013" class="edge">
<title>Node12&#45;&gt;Node13</title>
<g id="a_edge14_Node000012_Node000013"><a xlink:title=" ">
<path fill="none" stroke="#63b8ff" d="M421.25,-212.21C405.34,-212.5 388.61,-212.81 373.61,-213.09"/>
<polygon fill="#63b8ff" stroke="#63b8ff" points="421.19,-215.71 431.13,-212.03 421.06,-208.71 421.19,-215.71"/>
</a>
</g>
</g>
<!-- Node14&#45;&gt;Node4 -->
<g id="edge16_Node000014_Node000004" class="edge">
<title>Node14&#45;&gt;Node4</title>
<g id="a_edge16_Node000014_Node000004"><a xlink:title=" ">
<path fill="none" stroke="#63b8ff" d="M148.48,-212.27C121.22,-233.41 75.94,-268.52 53.68,-285.78"/>
<polygon fill="#63b8ff" stroke="#63b8ff" points="150.35,-215.25 156.11,-206.36 146.06,-209.72 150.35,-215.25"/>
</a>
</g>
</g>
<!-- Node15&#45;&gt;Node4 -->
<g id="edge18_Node000015_Node000004" class="edge">
<title>Node15&#45;&gt;Node4</title>
<g id="a_edge18_Node000015_Node000004"><a xlink:title=" ">
<path fill="none" stroke="#63b8ff" d="M136.82,-159.91C129.13,-164.45 121.36,-169.85 115,-176 80.08,-209.73 54.61,-263.07 44.86,-285.51"/>
<polygon fill="#63b8ff" stroke="#63b8ff" points="138.35,-163.06 145.44,-155.18 134.99,-156.92 138.35,-163.06"/>
</a>
</g>
</g>
<!-- Node18 -->
<g id="Node000018" class="node">
<title>Node18</title>
<g id="a_Node000018"><a xlink:href="sram_8h.html#ab0d0a1a04578c8af262001c024ae57e5" target="_top" xlink:title=" ">
<polygon fill="white" stroke="#666666" points="382.5,-82 264.5,-82 264.5,-50 382.5,-50 382.5,-82"/>
<text text-anchor="start" x="272.5" y="-68.5" font-family="Helvetica,sans-Serif" font-size="10.00">zrtos_vfs_module_sram</text>
<text text-anchor="middle" x="323.5" y="-56.5" font-family="Helvetica,sans-Serif" font-size="10.00">__on_read</text>
</a>
</g>
</g>
<!-- Node17&#45;&gt;Node18 -->
<g id="edge21_Node000017_Node000018" class="edge">
<title>Node17&#45;&gt;Node18</title>
<g id="a_edge21_Node000017_Node000018"><a xlink:title=" ">
<path fill="none" stroke="#63b8ff" d="M406.95,-54.81C398.86,-55.91 390.76,-57.01 382.95,-58.07"/>
<polygon fill="#63b8ff" stroke="#63b8ff" points="407.4,-58.28 416.84,-53.47 406.46,-51.35 407.4,-58.28"/>
</a>
</g>
</g>
<!-- Node19 -->
<g id="Node000019" class="node">
<title>Node19</title>
<g id="a_Node000019"><a xlink:href="sram_8h.html#ab1fc9892618f21a25027bc7ac993dfe7" target="_top" xlink:title=" ">
<polygon fill="white" stroke="#666666" points="382.5,-32 264.5,-32 264.5,0 382.5,0 382.5,-32"/>
<text text-anchor="start" x="272.5" y="-18.5" font-family="Helvetica,sans-Serif" font-size="10.00">zrtos_vfs_module_sram</text>
<text text-anchor="middle" x="323.5" y="-6.5" font-family="Helvetica,sans-Serif" font-size="10.00">__on_write</text>
</a>
</g>
</g>
<!-- Node17&#45;&gt;Node19 -->
<g id="edge22_Node000017_Node000019" class="edge">
<title>Node17&#45;&gt;Node19</title>
<g id="a_edge22_Node000017_Node000019"><a xlink:title=" ">
<path fill="none" stroke="#63b8ff" d="M415.11,-31.65C404.29,-29.78 393.25,-27.87 382.77,-26.06"/>
<polygon fill="#63b8ff" stroke="#63b8ff" points="414.31,-35.06 424.76,-33.32 415.51,-28.17 414.31,-35.06"/>
</a>
</g>
</g>
</g>
</svg>
