<?xml version="1.0" encoding="UTF-8" standalone="no"?>
<!DOCTYPE svg PUBLIC "-//W3C//DTD SVG 1.1//EN"
 "http://www.w3.org/Graphics/SVG/1.1/DTD/svg11.dtd">
<!-- Generated by graphviz version 10.0.1 (20240210.2158)
 -->
<!-- Title: zrtos_mem__set Pages: 1 -->
<svg width="363pt" height="66pt"
 viewBox="0.00 0.00 362.75 66.00" xmlns="http://www.w3.org/2000/svg" xmlns:xlink="http://www.w3.org/1999/xlink">
<g id="graph0" class="graph" transform="scale(1 1) rotate(0) translate(4 62)">
<title>zrtos_mem__set</title>
<!-- Node1 -->
<g id="Node000001" class="node">
<title>Node1</title>
<g id="a_Node000001"><a xlink:title=" ">
<polygon fill="#999999" stroke="#666666" points="354.75,-39 266,-39 266,-19 354.75,-19 354.75,-39"/>
<text text-anchor="middle" x="310.38" y="-25.5" font-family="Helvetica,sans-Serif" font-size="10.00">zrtos_mem__set</text>
</a>
</g>
</g>
<!-- Node2 -->
<g id="Node000002" class="node">
<title>Node2</title>
<g id="a_Node000002"><a xlink:href="mem_8h.html#a419d9f9e6d69f2577fdce04166a8b8a7" target="_top" xlink:title=" ">
<polygon fill="white" stroke="#666666" points="230,-39 136,-39 136,-19 230,-19 230,-39"/>
<text text-anchor="middle" x="183" y="-25.5" font-family="Helvetica,sans-Serif" font-size="10.00">zrtos_mem__zero</text>
</a>
</g>
</g>
<!-- Node1&#45;&gt;Node2 -->
<g id="edge1_Node000001_Node000002" class="edge">
<title>Node1&#45;&gt;Node2</title>
<g id="a_edge1_Node000001_Node000002"><a xlink:title=" ">
<path fill="none" stroke="#63b8ff" d="M254.03,-29C246.06,-29 237.93,-29 230.17,-29"/>
<polygon fill="#63b8ff" stroke="#63b8ff" points="254.01,-32.5 264.01,-29 254.01,-25.5 254.01,-32.5"/>
</a>
</g>
</g>
<!-- Node3 -->
<g id="Node000003" class="node">
<title>Node3</title>
<g id="a_Node000003"><a xlink:href="bitfield_8h.html#a41e25f1f59cb57785b18503403258629" target="_top" xlink:title=" ">
<polygon fill="white" stroke="#666666" points="100,-58 0,-58 0,-38 100,-38 100,-58"/>
<text text-anchor="middle" x="50" y="-44.5" font-family="Helvetica,sans-Serif" font-size="10.00">zrtos_bitfield__zero</text>
</a>
</g>
</g>
<!-- Node2&#45;&gt;Node3 -->
<g id="edge2_Node000002_Node000003" class="edge">
<title>Node2&#45;&gt;Node3</title>
<g id="a_edge2_Node000002_Node000003"><a xlink:title=" ">
<path fill="none" stroke="#63b8ff" d="M124.56,-37.33C116.48,-38.5 108.23,-39.7 100.32,-40.85"/>
<polygon fill="#63b8ff" stroke="#63b8ff" points="124.92,-40.82 134.32,-35.92 123.92,-33.89 124.92,-40.82"/>
</a>
</g>
</g>
<!-- Node4 -->
<g id="Node000004" class="node">
<title>Node4</title>
<g id="a_Node000004"><a xlink:href="vm_8h.html#a8d1a7bee17e7bc3e2f5b16385b8108d9" target="_top" xlink:title=" ">
<polygon fill="white" stroke="#666666" points="89.5,-20 10.5,-20 10.5,0 89.5,0 89.5,-20"/>
<text text-anchor="middle" x="50" y="-6.5" font-family="Helvetica,sans-Serif" font-size="10.00">zrtos_vm__run</text>
</a>
</g>
</g>
<!-- Node2&#45;&gt;Node4 -->
<g id="edge3_Node000002_Node000004" class="edge">
<title>Node2&#45;&gt;Node4</title>
<g id="a_edge3_Node000002_Node000004"><a xlink:title=" ">
<path fill="none" stroke="#63b8ff" d="M124.68,-20.69C112.91,-18.98 100.77,-17.22 89.84,-15.63"/>
<polygon fill="#63b8ff" stroke="#63b8ff" points="123.92,-24.11 134.32,-22.08 124.92,-17.18 123.92,-24.11"/>
</a>
</g>
</g>
</g>
</svg>
