<?xml version="1.0" encoding="UTF-8" standalone="no"?>
<!DOCTYPE svg PUBLIC "-//W3C//DTD SVG 1.1//EN"
 "http://www.w3.org/Graphics/SVG/1.1/DTD/svg11.dtd">
<!-- Generated by graphviz version 2.40.1 (20161225.0304)
 -->
<!-- Title: zrtos_mem__set Pages: 1 -->
<svg width="832pt" height="154pt"
 viewBox="0.00 0.00 832.00 153.50" xmlns="http://www.w3.org/2000/svg" xmlns:xlink="http://www.w3.org/1999/xlink">
<g id="graph0" class="graph" transform="scale(1 1) rotate(0) translate(4 149.5)">
<title>zrtos_mem__set</title>
<polygon fill="#ffffff" stroke="transparent" points="-4,4 -4,-149.5 828,-149.5 828,4 -4,4"/>
<!-- Node109 -->
<g id="node1" class="node">
<title>Node109</title>
<polygon fill="#bfbfbf" stroke="#000000" points="0,-69 0,-88 89,-88 89,-69 0,-69"/>
<text text-anchor="middle" x="44.5" y="-76" font-family="Helvetica,sans-Serif" font-size="10.00" fill="#000000">zrtos_mem__set</text>
</g>
<!-- Node110 -->
<g id="node2" class="node">
<title>Node110</title>
<g id="a_node2"><a xlink:href="mem_8h.html#a419d9f9e6d69f2577fdce04166a8b8a7" target="_top" xlink:title="zrtos_mem__zero">
<polygon fill="#ffffff" stroke="#000000" points="125,-69 125,-88 220,-88 220,-69 125,-69"/>
<text text-anchor="middle" x="172.5" y="-76" font-family="Helvetica,sans-Serif" font-size="10.00" fill="#000000">zrtos_mem__zero</text>
</a>
</g>
</g>
<!-- Node109&#45;&gt;Node110 -->
<g id="edge1" class="edge">
<title>Node109&#45;&gt;Node110</title>
<path fill="none" stroke="#191970" d="M99.4603,-78.5C107.9375,-78.5 116.6306,-78.5 124.9285,-78.5"/>
<polygon fill="#191970" stroke="#191970" points="99.2682,-75.0001 89.2682,-78.5 99.2682,-82.0001 99.2682,-75.0001"/>
</g>
<!-- Node111 -->
<g id="node3" class="node">
<title>Node111</title>
<g id="a_node3"><a xlink:href="bitfield_8h.html#a41e25f1f59cb57785b18503403258629" target="_top" xlink:title="zrtos_bitfield__zero">
<polygon fill="#ffffff" stroke="#000000" points="264.5,-126 264.5,-145 365.5,-145 365.5,-126 264.5,-126"/>
<text text-anchor="middle" x="315" y="-133" font-family="Helvetica,sans-Serif" font-size="10.00" fill="#000000">zrtos_bitfield__zero</text>
</a>
</g>
</g>
<!-- Node110&#45;&gt;Node111 -->
<g id="edge2" class="edge">
<title>Node110&#45;&gt;Node111</title>
<path fill="none" stroke="#191970" d="M205.8522,-91.8409C231.9875,-102.295 267.7185,-116.5874 291.0709,-125.9284"/>
<polygon fill="#191970" stroke="#191970" points="206.936,-88.5048 196.3513,-88.0405 204.3362,-95.0042 206.936,-88.5048"/>
</g>
<!-- Node114 -->
<g id="node6" class="node">
<title>Node114</title>
<g id="a_node6"><a xlink:href="vfs__notify_8h.html#a390aa07da245cc02fe5949e98e6f48e5" target="_top" xlink:title="zrtos_vfs_notify__init">
<polygon fill="#ffffff" stroke="#000000" points="714,-107 714,-126 824,-126 824,-107 714,-107"/>
<text text-anchor="middle" x="769" y="-114" font-family="Helvetica,sans-Serif" font-size="10.00" fill="#000000">zrtos_vfs_notify__init</text>
</a>
</g>
</g>
<!-- Node110&#45;&gt;Node114 -->
<g id="edge6" class="edge">
<title>Node110&#45;&gt;Node114</title>
<path fill="none" stroke="#191970" d="M230.0507,-82.1663C344.7935,-89.4759 600.6937,-105.7781 713.6257,-112.9724"/>
<polygon fill="#191970" stroke="#191970" points="230.2574,-78.6724 220.0551,-81.5295 229.8123,-85.6583 230.2574,-78.6724"/>
</g>
<!-- Node115 -->
<g id="node7" class="node">
<title>Node115</title>
<g id="a_node7"><a xlink:href="vm_8h.html#a8d1a7bee17e7bc3e2f5b16385b8108d9" target="_top" xlink:title="zrtos_vm__run">
<polygon fill="#ffffff" stroke="#000000" points="274.5,-50 274.5,-69 355.5,-69 355.5,-50 274.5,-50"/>
<text text-anchor="middle" x="315" y="-57" font-family="Helvetica,sans-Serif" font-size="10.00" fill="#000000">zrtos_vm__run</text>
</a>
</g>
</g>
<!-- Node110&#45;&gt;Node115 -->
<g id="edge7" class="edge">
<title>Node110&#45;&gt;Node115</title>
<path fill="none" stroke="#191970" d="M230.3611,-70.7852C245.0545,-68.8261 260.536,-66.7619 274.1831,-64.9423"/>
<polygon fill="#191970" stroke="#191970" points="229.7965,-67.3294 220.3469,-72.1204 230.7217,-74.268 229.7965,-67.3294"/>
</g>
<!-- Node116 -->
<g id="node8" class="node">
<title>Node116</title>
<g id="a_node8"><a xlink:href="zero_8h.html#ab183cd24a395f3b2f709618d3c6ca8d9" target="_top" xlink:title="zrtos_vfs_module_zero\l__on_read">
<polygon fill="#ffffff" stroke="#000000" points="256,-.5 256,-30.5 374,-30.5 374,-.5 256,-.5"/>
<text text-anchor="start" x="264" y="-18.5" font-family="Helvetica,sans-Serif" font-size="10.00" fill="#000000">zrtos_vfs_module_zero</text>
<text text-anchor="middle" x="315" y="-7.5" font-family="Helvetica,sans-Serif" font-size="10.00" fill="#000000">__on_read</text>
</a>
</g>
</g>
<!-- Node110&#45;&gt;Node116 -->
<g id="edge8" class="edge">
<title>Node110&#45;&gt;Node116</title>
<path fill="none" stroke="#191970" d="M202.3417,-64.6896C218.2296,-57.3951 238.128,-48.3515 256,-40.5 263.4351,-37.2336 271.4275,-33.7972 279.0546,-30.5534"/>
<polygon fill="#191970" stroke="#191970" points="200.6422,-61.6188 193.0214,-68.9792 203.5688,-67.9777 200.6422,-61.6188"/>
</g>
<!-- Node112 -->
<g id="node4" class="node">
<title>Node112</title>
<g id="a_node4"><a xlink:href="vfs__fd_8h.html#a7621285229575f9be4267258e7f0b26d" target="_top" xlink:title="zrtos_vfs_fd_set__zero">
<polygon fill="#ffffff" stroke="#000000" points="410,-126 410,-145 529,-145 529,-126 410,-126"/>
<text text-anchor="middle" x="469.5" y="-133" font-family="Helvetica,sans-Serif" font-size="10.00" fill="#000000">zrtos_vfs_fd_set__zero</text>
</a>
</g>
</g>
<!-- Node111&#45;&gt;Node112 -->
<g id="edge3" class="edge">
<title>Node111&#45;&gt;Node112</title>
<path fill="none" stroke="#191970" d="M375.7472,-135.5C386.9898,-135.5 398.7215,-135.5 409.9286,-135.5"/>
<polygon fill="#191970" stroke="#191970" points="375.5891,-132.0001 365.5891,-135.5 375.589,-139.0001 375.5891,-132.0001"/>
</g>
<!-- Node113 -->
<g id="node5" class="node">
<title>Node113</title>
<g id="a_node5"><a xlink:href="vfs__fd_8h.html#a8747abe85b66255bf04adc7610b87374" target="_top" xlink:title="zrtos_vfs_fd_set__init">
<polygon fill="#ffffff" stroke="#000000" points="565,-126 565,-145 678,-145 678,-126 565,-126"/>
<text text-anchor="middle" x="621.5" y="-133" font-family="Helvetica,sans-Serif" font-size="10.00" fill="#000000">zrtos_vfs_fd_set__init</text>
</a>
</g>
</g>
<!-- Node112&#45;&gt;Node113 -->
<g id="edge4" class="edge">
<title>Node112&#45;&gt;Node113</title>
<path fill="none" stroke="#191970" d="M539.3424,-135.5C547.7724,-135.5 556.3042,-135.5 564.5191,-135.5"/>
<polygon fill="#191970" stroke="#191970" points="539.1382,-132.0001 529.1382,-135.5 539.1381,-139.0001 539.1382,-132.0001"/>
</g>
<!-- Node113&#45;&gt;Node114 -->
<g id="edge5" class="edge">
<title>Node113&#45;&gt;Node114</title>
<path fill="none" stroke="#191970" d="M688.0928,-126.9219C696.6755,-125.8164 705.3888,-124.694 713.7618,-123.6154"/>
<polygon fill="#191970" stroke="#191970" points="687.5764,-123.4595 678.1055,-128.2084 688.4707,-130.4021 687.5764,-123.4595"/>
</g>
</g>
</svg>
