<?xml version="1.0" encoding="UTF-8" standalone="no"?>
<!DOCTYPE svg PUBLIC "-//W3C//DTD SVG 1.1//EN"
 "http://www.w3.org/Graphics/SVG/1.1/DTD/svg11.dtd">
<!-- Generated by graphviz version 10.0.1 (20240210.2158)
 -->
<!-- Title: zrtos_mem__reverse Pages: 1 -->
<svg width="754pt" height="91pt"
 viewBox="0.00 0.00 753.50 91.00" xmlns="http://www.w3.org/2000/svg" xmlns:xlink="http://www.w3.org/1999/xlink">
<g id="graph0" class="graph" transform="scale(1 1) rotate(0) translate(4 87)">
<title>zrtos_mem__reverse</title>
<!-- Node1 -->
<g id="Node000001" class="node">
<title>Node1</title>
<g id="a_Node000001"><a xlink:title=" ">
<polygon fill="#999999" stroke="#666666" points="745.5,-64 639.5,-64 639.5,-44 745.5,-44 745.5,-64"/>
<text text-anchor="middle" x="692.5" y="-50.5" font-family="Helvetica,sans-Serif" font-size="10.00">zrtos_mem__reverse</text>
</a>
</g>
</g>
<!-- Node2 -->
<g id="Node000002" class="node">
<title>Node2</title>
<g id="a_Node000002"><a xlink:href="str_8h.html#a1d32a5a8a6bb91bef6370f6f5b03513f" target="_top" xlink:title=" ">
<polygon fill="white" stroke="#666666" points="603.5,-83 508,-83 508,-63 603.5,-63 603.5,-83"/>
<text text-anchor="middle" x="555.75" y="-69.5" font-family="Helvetica,sans-Serif" font-size="10.00">zrtos_str__reverse</text>
</a>
</g>
</g>
<!-- Node1&#45;&gt;Node2 -->
<g id="edge1_Node000001_Node000002" class="edge">
<title>Node1&#45;&gt;Node2</title>
<g id="a_edge1_Node000001_Node000002"><a xlink:title=" ">
<path fill="none" stroke="#63b8ff" d="M627.65,-63C619.55,-64.15 611.37,-65.3 603.6,-66.39"/>
<polygon fill="#63b8ff" stroke="#63b8ff" points="628.1,-66.47 637.52,-61.61 627.13,-59.54 628.1,-66.47"/>
</a>
</g>
</g>
<!-- Node3 -->
<g id="Node000003" class="node">
<title>Node3</title>
<g id="a_Node000003"><a xlink:href="str_8h.html#aee390913b90918b21b4a44f1e07d7189" target="_top" xlink:title=" ">
<polygon fill="white" stroke="#666666" points="598.62,-45 512.88,-45 512.88,-25 598.62,-25 598.62,-45"/>
<text text-anchor="middle" x="555.75" y="-31.5" font-family="Helvetica,sans-Serif" font-size="10.00">zrtos_str__ultoa</text>
</a>
</g>
</g>
<!-- Node1&#45;&gt;Node3 -->
<g id="edge2_Node000001_Node000003" class="edge">
<title>Node1&#45;&gt;Node3</title>
<g id="a_edge2_Node000001_Node000003"><a xlink:title=" ">
<path fill="none" stroke="#63b8ff" d="M627.65,-45C617.88,-43.62 608.02,-42.23 598.88,-40.94"/>
<polygon fill="#63b8ff" stroke="#63b8ff" points="627.13,-48.46 637.52,-46.39 628.1,-41.53 627.13,-48.46"/>
</a>
</g>
</g>
<!-- Node4 -->
<g id="Node000004" class="node">
<title>Node4</title>
<g id="a_Node000004"><a xlink:href="str_8h.html#adcf77443fdcd0ba7a3a37438f6ee3855" target="_top" xlink:title=" ">
<polygon fill="white" stroke="#666666" points="355.5,-45 272,-45 272,-25 355.5,-25 355.5,-45"/>
<text text-anchor="middle" x="313.75" y="-31.5" font-family="Helvetica,sans-Serif" font-size="10.00">zrtos_str__dtoa</text>
</a>
</g>
</g>
<!-- Node3&#45;&gt;Node4 -->
<g id="edge3_Node000003_Node000004" class="edge">
<title>Node3&#45;&gt;Node4</title>
<g id="a_edge3_Node000003_Node000004"><a xlink:title=" ">
<path fill="none" stroke="#63b8ff" d="M506.61,-47.98C495.34,-50.48 483.31,-52.72 472,-54 436.45,-58.03 427.01,-58.33 391.5,-54 377.47,-52.29 362.3,-48.88 349.19,-45.41"/>
<polygon fill="#63b8ff" stroke="#63b8ff" points="507.16,-51.44 516.1,-45.76 505.57,-44.63 507.16,-51.44"/>
</a>
</g>
</g>
<!-- Node5 -->
<g id="Node000005" class="node">
<title>Node5</title>
<g id="a_Node000005"><a xlink:href="str_8h.html#a253e58778bc61b2ca7b51d761ea914b4" target="_top" xlink:title=" ">
<polygon fill="white" stroke="#666666" points="236,-32 136,-32 136,0 236,0 236,-32"/>
<text text-anchor="start" x="144" y="-18.5" font-family="Helvetica,sans-Serif" font-size="10.00">zrtos_str__vsnprintf</text>
<text text-anchor="middle" x="186" y="-6.5" font-family="Helvetica,sans-Serif" font-size="10.00">_internal</text>
</a>
</g>
</g>
<!-- Node3&#45;&gt;Node5 -->
<g id="edge8_Node000003_Node000005" class="edge">
<title>Node3&#45;&gt;Node5</title>
<g id="a_edge8_Node000003_Node000005"><a xlink:title=" ">
<path fill="none" stroke="#63b8ff" d="M506.61,-22.02C495.34,-19.52 483.31,-17.28 472,-16 389.77,-6.68 293.34,-9.54 236.36,-12.64"/>
<polygon fill="#63b8ff" stroke="#63b8ff" points="505.57,-25.37 516.1,-24.24 507.16,-18.56 505.57,-25.37"/>
</a>
</g>
</g>
<!-- Node7 -->
<g id="Node000007" class="node">
<title>Node7</title>
<g id="a_Node000007"><a xlink:href="str_8h.html#a0f900e1b206fe39cd1b56fb61c1802b6" target="_top" xlink:title=" ">
<polygon fill="white" stroke="#666666" points="472,-45 391.5,-45 391.5,-25 472,-25 472,-45"/>
<text text-anchor="middle" x="431.75" y="-31.5" font-family="Helvetica,sans-Serif" font-size="10.00">zrtos_str__ltoa</text>
</a>
</g>
</g>
<!-- Node3&#45;&gt;Node7 -->
<g id="edge6_Node000003_Node000007" class="edge">
<title>Node3&#45;&gt;Node7</title>
<g id="a_edge6_Node000003_Node000007"><a xlink:title=" ">
<path fill="none" stroke="#63b8ff" d="M501.15,-35C491.4,-35 481.38,-35 472.13,-35"/>
<polygon fill="#63b8ff" stroke="#63b8ff" points="500.91,-38.5 510.91,-35 500.91,-31.5 500.91,-38.5"/>
</a>
</g>
</g>
<!-- Node4&#45;&gt;Node5 -->
<g id="edge4_Node000004_Node000005" class="edge">
<title>Node4&#45;&gt;Node5</title>
<g id="a_edge4_Node000004_Node000005"><a xlink:title=" ">
<path fill="none" stroke="#63b8ff" d="M260.43,-27.09C252.39,-25.88 244.12,-24.63 236.15,-23.43"/>
<polygon fill="#63b8ff" stroke="#63b8ff" points="259.67,-30.52 270.08,-28.55 260.71,-23.6 259.67,-30.52"/>
</a>
</g>
</g>
<!-- Node6 -->
<g id="Node000006" class="node">
<title>Node6</title>
<g id="a_Node000006"><a xlink:href="str_8h.html#af64b95fd53da061e4bde68dddbe02232" target="_top" xlink:title=" ">
<polygon fill="white" stroke="#666666" points="100,-26 0,-26 0,-6 100,-6 100,-26"/>
<text text-anchor="middle" x="50" y="-12.5" font-family="Helvetica,sans-Serif" font-size="10.00">zrtos_str__vsnprintf</text>
</a>
</g>
</g>
<!-- Node5&#45;&gt;Node6 -->
<g id="edge5_Node000005_Node000006" class="edge">
<title>Node5&#45;&gt;Node6</title>
<g id="a_edge5_Node000005_Node000006"><a xlink:title=" ">
<path fill="none" stroke="#63b8ff" d="M124.48,-16C116.33,-16 108.05,-16 100.13,-16"/>
<polygon fill="#63b8ff" stroke="#63b8ff" points="124.35,-19.5 134.35,-16 124.35,-12.5 124.35,-19.5"/>
</a>
</g>
</g>
<!-- Node7&#45;&gt;Node4 -->
<g id="edge7_Node000007_Node000004" class="edge">
<title>Node7&#45;&gt;Node4</title>
<g id="a_edge7_Node000007_Node000004"><a xlink:title=" ">
<path fill="none" stroke="#63b8ff" d="M379.64,-35C371.65,-35 363.48,-35 355.75,-35"/>
<polygon fill="#63b8ff" stroke="#63b8ff" points="379.64,-38.5 389.64,-35 379.64,-31.5 379.64,-38.5"/>
</a>
</g>
</g>
</g>
</svg>
