<?xml version="1.0" encoding="UTF-8" standalone="no"?>
<!DOCTYPE svg PUBLIC "-//W3C//DTD SVG 1.1//EN"
 "http://www.w3.org/Graphics/SVG/1.1/DTD/svg11.dtd">
<!-- Generated by graphviz version 2.40.1 (20161225.0304)
 -->
<!-- Title: zrtos_mem__move_right_overlapping Pages: 1 -->
<svg width="1437pt" height="137pt"
 viewBox="0.00 0.00 1437.00 136.50" xmlns="http://www.w3.org/2000/svg" xmlns:xlink="http://www.w3.org/1999/xlink">
<g id="graph0" class="graph" transform="scale(1 1) rotate(0) translate(4 132.5)">
<title>zrtos_mem__move_right_overlapping</title>
<polygon fill="#ffffff" stroke="transparent" points="-4,4 -4,-132.5 1433,-132.5 1433,4 -4,4"/>
<!-- Node81 -->
<g id="node1" class="node">
<title>Node81</title>
<polygon fill="#bfbfbf" stroke="#000000" points="0,-46.5 0,-76.5 124,-76.5 124,-46.5 0,-46.5"/>
<text text-anchor="start" x="8" y="-64.5" font-family="Helvetica,sans-Serif" font-size="10.00" fill="#000000">zrtos_mem__move_right</text>
<text text-anchor="middle" x="62" y="-53.5" font-family="Helvetica,sans-Serif" font-size="10.00" fill="#000000">_overlapping</text>
</g>
<!-- Node82 -->
<g id="node2" class="node">
<title>Node82</title>
<g id="a_node2"><a xlink:href="vheap_8h.html#a0367b40168ba501de389f8550c59f0a7" target="_top" xlink:title="_zrtos_vheap__malloc">
<polygon fill="#ffffff" stroke="#000000" points="160,-74 160,-93 274,-93 274,-74 160,-74"/>
<text text-anchor="middle" x="217" y="-81" font-family="Helvetica,sans-Serif" font-size="10.00" fill="#000000">_zrtos_vheap__malloc</text>
</a>
</g>
</g>
<!-- Node81&#45;&gt;Node82 -->
<g id="edge1" class="edge">
<title>Node81&#45;&gt;Node82</title>
<path fill="none" stroke="#191970" d="M134.1917,-71.7466C142.8008,-72.9685 151.4977,-74.2029 159.8547,-75.3891"/>
<polygon fill="#191970" stroke="#191970" points="134.544,-68.2616 124.1513,-70.3215 133.5602,-75.1921 134.544,-68.2616"/>
</g>
<!-- Node85 -->
<g id="node5" class="node">
<title>Node85</title>
<g id="a_node5"><a xlink:href="vheap_8h.html#a58db7c5ad7c8ab1f99167871437f5d31" target="_top" xlink:title="_zrtos_vheap__swap\l_to_heap_end">
<polygon fill="#ffffff" stroke="#000000" points="162.5,-24.5 162.5,-54.5 271.5,-54.5 271.5,-24.5 162.5,-24.5"/>
<text text-anchor="start" x="170.5" y="-42.5" font-family="Helvetica,sans-Serif" font-size="10.00" fill="#000000">_zrtos_vheap__swap</text>
<text text-anchor="middle" x="217" y="-31.5" font-family="Helvetica,sans-Serif" font-size="10.00" fill="#000000">_to_heap_end</text>
</a>
</g>
</g>
<!-- Node81&#45;&gt;Node85 -->
<g id="edge4" class="edge">
<title>Node81&#45;&gt;Node85</title>
<path fill="none" stroke="#191970" d="M134.312,-51.2364C143.7375,-49.8985 153.2657,-48.5462 162.3358,-47.2588"/>
<polygon fill="#191970" stroke="#191970" points="133.5602,-47.8079 124.1513,-52.6785 134.544,-54.7384 133.5602,-47.8079"/>
</g>
<!-- Node83 -->
<g id="node3" class="node">
<title>Node83</title>
<g id="a_node3"><a xlink:href="vheap_8h.html#a869860bdef21c42bb4afe71995ca995b" target="_top" xlink:title="zrtos_vheap__malloc">
<polygon fill="#ffffff" stroke="#000000" points="312.5,-109 312.5,-128 421.5,-128 421.5,-109 312.5,-109"/>
<text text-anchor="middle" x="367" y="-116" font-family="Helvetica,sans-Serif" font-size="10.00" fill="#000000">zrtos_vheap__malloc</text>
</a>
</g>
</g>
<!-- Node82&#45;&gt;Node83 -->
<g id="edge2" class="edge">
<title>Node82&#45;&gt;Node83</title>
<path fill="none" stroke="#191970" d="M267.9481,-95.3879C286.8925,-99.8082 308.1267,-104.7629 326.0614,-108.9477"/>
<polygon fill="#191970" stroke="#191970" points="268.5219,-91.9278 257.9882,-93.0639 266.9312,-98.7447 268.5219,-91.9278"/>
</g>
<!-- Node84 -->
<g id="node4" class="node">
<title>Node84</title>
<g id="a_node4"><a xlink:href="vheap__task__pthread_8h.html#a091adcef6201bebbf231763328c15286" target="_top" xlink:title="pthread_create">
<polygon fill="#ffffff" stroke="#000000" points="326.5,-71 326.5,-90 407.5,-90 407.5,-71 326.5,-71"/>
<text text-anchor="middle" x="367" y="-78" font-family="Helvetica,sans-Serif" font-size="10.00" fill="#000000">pthread_create</text>
</a>
</g>
</g>
<!-- Node82&#45;&gt;Node84 -->
<g id="edge3" class="edge">
<title>Node82&#45;&gt;Node84</title>
<path fill="none" stroke="#191970" d="M284.4494,-82.151C298.7435,-81.8651 313.4072,-81.5719 326.3352,-81.3133"/>
<polygon fill="#191970" stroke="#191970" points="284.0645,-78.6579 274.1365,-82.3573 284.2045,-85.6565 284.0645,-78.6579"/>
</g>
<!-- Node86 -->
<g id="node6" class="node">
<title>Node86</title>
<g id="a_node6"><a xlink:href="vheap_8h.html#a3bce66e6371563f486d49abcf3c45a25" target="_top" xlink:title="zrtos_vheap__page_in">
<polygon fill="#ffffff" stroke="#000000" points="310,-30 310,-49 424,-49 424,-30 310,-30"/>
<text text-anchor="middle" x="367" y="-37" font-family="Helvetica,sans-Serif" font-size="10.00" fill="#000000">zrtos_vheap__page_in</text>
</a>
</g>
</g>
<!-- Node85&#45;&gt;Node86 -->
<g id="edge5" class="edge">
<title>Node85&#45;&gt;Node86</title>
<path fill="none" stroke="#191970" d="M281.668,-39.5C291.0732,-39.5 300.6994,-39.5 309.9396,-39.5"/>
<polygon fill="#191970" stroke="#191970" points="281.5778,-36.0001 271.5778,-39.5 281.5777,-43.0001 281.5778,-36.0001"/>
</g>
<!-- Node87 -->
<g id="node7" class="node">
<title>Node87</title>
<g id="a_node7"><a xlink:href="vheap__task__scheduler_8h.html#ac3ceec0a4016b00c1670ddce858c6bac" target="_top" xlink:title="zrtos_vheap_task_scheduler\l__page_task_in">
<polygon fill="#ffffff" stroke="#000000" points="460,-24.5 460,-54.5 601,-54.5 601,-24.5 460,-24.5"/>
<text text-anchor="start" x="468" y="-42.5" font-family="Helvetica,sans-Serif" font-size="10.00" fill="#000000">zrtos_vheap_task_scheduler</text>
<text text-anchor="middle" x="530.5" y="-31.5" font-family="Helvetica,sans-Serif" font-size="10.00" fill="#000000">__page_task_in</text>
</a>
</g>
</g>
<!-- Node86&#45;&gt;Node87 -->
<g id="edge6" class="edge">
<title>Node86&#45;&gt;Node87</title>
<path fill="none" stroke="#191970" d="M434.321,-39.5C442.7375,-39.5 451.3646,-39.5 459.8302,-39.5"/>
<polygon fill="#191970" stroke="#191970" points="434.1844,-36.0001 424.1844,-39.5 434.1843,-43.0001 434.1844,-36.0001"/>
</g>
<!-- Node88 -->
<g id="node8" class="node">
<title>Node88</title>
<g id="a_node8"><a xlink:href="vheap__task__scheduler_8h.html#af69e917ca8bd27891eb335dda8289faf" target="_top" xlink:title="_zrtos_vheap_task_scheduler\l__set_active_task">
<polygon fill="#ffffff" stroke="#000000" points="637,-49.5 637,-79.5 783,-79.5 783,-49.5 637,-49.5"/>
<text text-anchor="start" x="645" y="-67.5" font-family="Helvetica,sans-Serif" font-size="10.00" fill="#000000">_zrtos_vheap_task_scheduler</text>
<text text-anchor="middle" x="710" y="-56.5" font-family="Helvetica,sans-Serif" font-size="10.00" fill="#000000">__set_active_task</text>
</a>
</g>
</g>
<!-- Node87&#45;&gt;Node88 -->
<g id="edge7" class="edge">
<title>Node87&#45;&gt;Node88</title>
<path fill="none" stroke="#191970" d="M611.1244,-50.729C619.6503,-51.9165 628.2872,-53.1194 636.723,-54.2943"/>
<polygon fill="#191970" stroke="#191970" points="611.5727,-47.2578 601.1855,-49.3448 610.6071,-54.1908 611.5727,-47.2578"/>
</g>
<!-- Node94 -->
<g id="node14" class="node">
<title>Node94</title>
<g id="a_node14"><a xlink:href="vheap__task__scheduler_8h.html#add5545a77a9d66f232fa03da168ca02f" target="_top" xlink:title="zrtos_vheap_task_scheduler\l__start">
<polygon fill="#ffffff" stroke="#000000" points="639.5,-.5 639.5,-30.5 780.5,-30.5 780.5,-.5 639.5,-.5"/>
<text text-anchor="start" x="647.5" y="-18.5" font-family="Helvetica,sans-Serif" font-size="10.00" fill="#000000">zrtos_vheap_task_scheduler</text>
<text text-anchor="middle" x="710" y="-7.5" font-family="Helvetica,sans-Serif" font-size="10.00" fill="#000000">__start</text>
</a>
</g>
</g>
<!-- Node87&#45;&gt;Node94 -->
<g id="edge13" class="edge">
<title>Node87&#45;&gt;Node94</title>
<path fill="none" stroke="#191970" d="M611.2833,-28.6989C620.6549,-27.4459 630.1581,-26.1752 639.3789,-24.9424"/>
<polygon fill="#191970" stroke="#191970" points="610.6334,-25.2545 601.1855,-30.049 611.5612,-32.1928 610.6334,-25.2545"/>
</g>
<!-- Node89 -->
<g id="node9" class="node">
<title>Node89</title>
<g id="a_node9"><a xlink:href="vheap__task__scheduler_8h.html#a1a1be02692a671c368f4e2335179a042" target="_top" xlink:title="_zrtos_vheap_task_scheduler\l__switch_task">
<polygon fill="#ffffff" stroke="#000000" points="819,-49.5 819,-79.5 965,-79.5 965,-49.5 819,-49.5"/>
<text text-anchor="start" x="827" y="-67.5" font-family="Helvetica,sans-Serif" font-size="10.00" fill="#000000">_zrtos_vheap_task_scheduler</text>
<text text-anchor="middle" x="892" y="-56.5" font-family="Helvetica,sans-Serif" font-size="10.00" fill="#000000">__switch_task</text>
</a>
</g>
</g>
<!-- Node88&#45;&gt;Node89 -->
<g id="edge8" class="edge">
<title>Node88&#45;&gt;Node89</title>
<path fill="none" stroke="#191970" d="M793.516,-64.5C801.9925,-64.5 810.5562,-64.5 818.9103,-64.5"/>
<polygon fill="#191970" stroke="#191970" points="793.2397,-61.0001 783.2397,-64.5 793.2396,-68.0001 793.2397,-61.0001"/>
</g>
<!-- Node90 -->
<g id="node10" class="node">
<title>Node90</title>
<g id="a_node10"><a xlink:href="vheap__task__scheduler_8h.html#acd810187c2b0b8d63548170c9da4b73d" target="_top" xlink:title="_zrtos_vheap_task_scheduler\l__on_tick">
<polygon fill="#ffffff" stroke="#000000" points="1001,-49.5 1001,-79.5 1147,-79.5 1147,-49.5 1001,-49.5"/>
<text text-anchor="start" x="1009" y="-67.5" font-family="Helvetica,sans-Serif" font-size="10.00" fill="#000000">_zrtos_vheap_task_scheduler</text>
<text text-anchor="middle" x="1074" y="-56.5" font-family="Helvetica,sans-Serif" font-size="10.00" fill="#000000">__on_tick</text>
</a>
</g>
</g>
<!-- Node89&#45;&gt;Node90 -->
<g id="edge9" class="edge">
<title>Node89&#45;&gt;Node90</title>
<path fill="none" stroke="#191970" d="M975.516,-64.5C983.9925,-64.5 992.5562,-64.5 1000.9103,-64.5"/>
<polygon fill="#191970" stroke="#191970" points="975.2397,-61.0001 965.2397,-64.5 975.2396,-68.0001 975.2397,-61.0001"/>
</g>
<!-- Node91 -->
<g id="node11" class="node">
<title>Node91</title>
<g id="a_node11"><a xlink:href="vheap__task__scheduler_8h.html#a51ae476e29565ebfde1ec3340150ca06" target="_top" xlink:title="zrtos_vheap_task_scheduler\l__delay_ms">
<polygon fill="#ffffff" stroke="#000000" points="1183,-74.5 1183,-104.5 1324,-104.5 1324,-74.5 1183,-74.5"/>
<text text-anchor="start" x="1191" y="-92.5" font-family="Helvetica,sans-Serif" font-size="10.00" fill="#000000">zrtos_vheap_task_scheduler</text>
<text text-anchor="middle" x="1253.5" y="-81.5" font-family="Helvetica,sans-Serif" font-size="10.00" fill="#000000">__delay_ms</text>
</a>
</g>
</g>
<!-- Node90&#45;&gt;Node91 -->
<g id="edge10" class="edge">
<title>Node90&#45;&gt;Node91</title>
<path fill="none" stroke="#191970" d="M1157.0772,-76.0706C1165.7021,-77.2719 1174.4097,-78.4846 1182.8789,-79.6642"/>
<polygon fill="#191970" stroke="#191970" points="1157.3968,-72.5814 1147.0095,-74.6685 1156.4311,-79.5145 1157.3968,-72.5814"/>
</g>
<!-- Node93 -->
<g id="node13" class="node">
<title>Node93</title>
<g id="a_node13"><a xlink:href="vheap__task__scheduler_8h.html#a3734a190668294fe1e91009e3cf6f72a" target="_top" xlink:title="zrtos_vheap_task_scheduler\l__trampoline_cb">
<polygon fill="#ffffff" stroke="#000000" points="1183,-25.5 1183,-55.5 1324,-55.5 1324,-25.5 1183,-25.5"/>
<text text-anchor="start" x="1191" y="-43.5" font-family="Helvetica,sans-Serif" font-size="10.00" fill="#000000">zrtos_vheap_task_scheduler</text>
<text text-anchor="middle" x="1253.5" y="-32.5" font-family="Helvetica,sans-Serif" font-size="10.00" fill="#000000">__trampoline_cb</text>
</a>
</g>
</g>
<!-- Node90&#45;&gt;Node93 -->
<g id="edge12" class="edge">
<title>Node90&#45;&gt;Node93</title>
<path fill="none" stroke="#191970" d="M1157.0772,-53.3922C1165.7021,-52.239 1174.4097,-51.0747 1182.8789,-49.9424"/>
<polygon fill="#191970" stroke="#191970" points="1156.4574,-49.9438 1147.0095,-54.7383 1157.3852,-56.8821 1156.4574,-49.9438"/>
</g>
<!-- Node92 -->
<g id="node12" class="node">
<title>Node92</title>
<g id="a_node12"><a xlink:href="vheap__task__pthread_8h.html#a28a15bba47cab57cbc9f5dac9af99c8b" target="_top" xlink:title="pthread_join">
<polygon fill="#ffffff" stroke="#000000" points="1360,-80 1360,-99 1429,-99 1429,-80 1360,-80"/>
<text text-anchor="middle" x="1394.5" y="-87" font-family="Helvetica,sans-Serif" font-size="10.00" fill="#000000">pthread_join</text>
</a>
</g>
</g>
<!-- Node91&#45;&gt;Node92 -->
<g id="edge11" class="edge">
<title>Node91&#45;&gt;Node92</title>
<path fill="none" stroke="#191970" d="M1334.5043,-89.5C1343.384,-89.5 1352.0363,-89.5 1359.8806,-89.5"/>
<polygon fill="#191970" stroke="#191970" points="1334.4131,-86.0001 1324.4131,-89.5 1334.413,-93.0001 1334.4131,-86.0001"/>
</g>
</g>
</svg>
