<?xml version="1.0" encoding="UTF-8" standalone="no"?>
<!DOCTYPE svg PUBLIC "-//W3C//DTD SVG 1.1//EN"
 "http://www.w3.org/Graphics/SVG/1.1/DTD/svg11.dtd">
<!-- Generated by graphviz version 2.40.1 (20161225.0304)
 -->
<!-- Title: zrtos_mem__move_left_overlapping Pages: 1 -->
<svg width="1289pt" height="429pt"
 viewBox="0.00 0.00 1289.00 428.50" xmlns="http://www.w3.org/2000/svg" xmlns:xlink="http://www.w3.org/1999/xlink">
<g id="graph0" class="graph" transform="scale(1 1) rotate(0) translate(4 424.5)">
<title>zrtos_mem__move_left_overlapping</title>
<polygon fill="#ffffff" stroke="transparent" points="-4,4 -4,-424.5 1285,-424.5 1285,4 -4,4"/>
<!-- Node52 -->
<g id="node1" class="node">
<title>Node52</title>
<polygon fill="#bfbfbf" stroke="#000000" points="0,-140.5 0,-170.5 119,-170.5 119,-140.5 0,-140.5"/>
<text text-anchor="start" x="8" y="-158.5" font-family="Helvetica,sans-Serif" font-size="10.00" fill="#000000">zrtos_mem__move_left</text>
<text text-anchor="middle" x="59.5" y="-147.5" font-family="Helvetica,sans-Serif" font-size="10.00" fill="#000000">_overlapping</text>
</g>
<!-- Node53 -->
<g id="node2" class="node">
<title>Node53</title>
<g id="a_node2"><a xlink:href="mem_8h.html#ac36c32ce5585de38fd4b77b2a322ac78" target="_top" xlink:title="zrtos_mem__cpy">
<polygon fill="#ffffff" stroke="#000000" points="169,-225 169,-244 261,-244 261,-225 169,-225"/>
<text text-anchor="middle" x="215" y="-232" font-family="Helvetica,sans-Serif" font-size="10.00" fill="#000000">zrtos_mem__cpy</text>
</a>
</g>
</g>
<!-- Node52&#45;&gt;Node53 -->
<g id="edge1" class="edge">
<title>Node52&#45;&gt;Node53</title>
<path fill="none" stroke="#191970" d="M98.4137,-175.2696C129.6476,-191.1377 172.1325,-212.7217 196.2467,-224.9726"/>
<polygon fill="#191970" stroke="#191970" points="99.6151,-171.9543 89.1144,-170.5452 96.4445,-178.1951 99.6151,-171.9543"/>
</g>
<!-- Node72 -->
<g id="node21" class="node">
<title>Node72</title>
<g id="a_node21"><a xlink:href="vheap_8h.html#a7c64f185f189dd5e35dc36b22d1b0397" target="_top" xlink:title="zrtos_vheap__page_out">
<polygon fill="#ffffff" stroke="#000000" points="155,-127 155,-146 275,-146 275,-127 155,-127"/>
<text text-anchor="middle" x="215" y="-134" font-family="Helvetica,sans-Serif" font-size="10.00" fill="#000000">zrtos_vheap__page_out</text>
</a>
</g>
</g>
<!-- Node52&#45;&gt;Node72 -->
<g id="edge25" class="edge">
<title>Node52&#45;&gt;Node72</title>
<path fill="none" stroke="#191970" d="M129.1884,-146.985C137.7917,-145.9338 146.528,-144.8663 154.97,-143.8349"/>
<polygon fill="#191970" stroke="#191970" points="128.6773,-143.5213 119.1756,-148.2084 129.5263,-150.4697 128.6773,-143.5213"/>
</g>
<!-- Node54 -->
<g id="node3" class="node">
<title>Node54</title>
<g id="a_node3"><a xlink:href="adc_8h.html#a8922bb86f60c10f7e58cf833ba4bfc77" target="_top" xlink:title="zrtos_vfs_module_avr\l_adc__on_read">
<polygon fill="#ffffff" stroke="#000000" points="325.5,-368.5 325.5,-398.5 438.5,-398.5 438.5,-368.5 325.5,-368.5"/>
<text text-anchor="start" x="333.5" y="-386.5" font-family="Helvetica,sans-Serif" font-size="10.00" fill="#000000">zrtos_vfs_module_avr</text>
<text text-anchor="middle" x="382" y="-375.5" font-family="Helvetica,sans-Serif" font-size="10.00" fill="#000000">_adc__on_read</text>
</a>
</g>
</g>
<!-- Node53&#45;&gt;Node54 -->
<g id="edge2" class="edge">
<title>Node53&#45;&gt;Node54</title>
<path fill="none" stroke="#191970" d="M224.8523,-253.2113C239.9456,-280.163 271.2651,-329.8154 311,-358.5 316.2979,-362.3245 322.2347,-365.6088 328.3588,-368.4179"/>
<polygon fill="#191970" stroke="#191970" points="227.7369,-251.1902 219.8784,-244.0843 221.5904,-254.5399 227.7369,-251.1902"/>
</g>
<!-- Node55 -->
<g id="node4" class="node">
<title>Node55</title>
<g id="a_node4"><a xlink:href="bitfield_8h.html#a35443b315a5b7cf5939dca9de8582dc2" target="_top" xlink:title="zrtos_bitfield__copy">
<polygon fill="#ffffff" stroke="#000000" points="330,-330 330,-349 434,-349 434,-330 330,-330"/>
<text text-anchor="middle" x="382" y="-337" font-family="Helvetica,sans-Serif" font-size="10.00" fill="#000000">zrtos_bitfield__copy</text>
</a>
</g>
</g>
<!-- Node53&#45;&gt;Node55 -->
<g id="edge3" class="edge">
<title>Node53&#45;&gt;Node55</title>
<path fill="none" stroke="#191970" d="M229.5121,-251.6579C246.926,-271.1633 277.9378,-302.6097 311,-320.5 318.0702,-324.3257 325.9604,-327.4192 333.8389,-329.9091"/>
<polygon fill="#191970" stroke="#191970" points="232.1293,-249.3338 222.9152,-244.1039 226.8568,-253.9382 232.1293,-249.3338"/>
</g>
<!-- Node58 -->
<g id="node7" class="node">
<title>Node58</title>
<g id="a_node7"><a xlink:href="progmem_8h.html#a7185db18272b8514d094ac443ad989eb" target="_top" xlink:title="zrtos_progmem__cpy">
<polygon fill="#ffffff" stroke="#000000" points="327,-292 327,-311 437,-311 437,-292 327,-292"/>
<text text-anchor="middle" x="382" y="-299" font-family="Helvetica,sans-Serif" font-size="10.00" fill="#000000">zrtos_progmem__cpy</text>
</a>
</g>
</g>
<!-- Node53&#45;&gt;Node58 -->
<g id="edge6" class="edge">
<title>Node53&#45;&gt;Node58</title>
<path fill="none" stroke="#191970" d="M240.4352,-248.9935C259.4259,-259.3717 286.2587,-273.1148 311,-282.5 320.4252,-286.0753 330.7946,-289.2533 340.6279,-291.9388"/>
<polygon fill="#191970" stroke="#191970" points="241.9726,-245.844 231.5292,-244.0586 238.5798,-251.9668 241.9726,-245.844"/>
</g>
<!-- Node60 -->
<g id="node9" class="node">
<title>Node60</title>
<g id="a_node9"><a xlink:href="sram_8h.html#ae81a59adc54eb479f21bf266c427b309" target="_top" xlink:title="zrtos_vfs_module_sram__rw">
<polygon fill="#ffffff" stroke="#000000" points="311,-254 311,-273 453,-273 453,-254 311,-254"/>
<text text-anchor="middle" x="382" y="-261" font-family="Helvetica,sans-Serif" font-size="10.00" fill="#000000">zrtos_vfs_module_sram__rw</text>
</a>
</g>
</g>
<!-- Node53&#45;&gt;Node60 -->
<g id="edge8" class="edge">
<title>Node53&#45;&gt;Node60</title>
<path fill="none" stroke="#191970" d="M271.1733,-244.2547C289.2374,-247.3915 309.2191,-250.8614 327.1843,-253.9811"/>
<polygon fill="#191970" stroke="#191970" points="271.527,-240.7638 261.0756,-242.5011 270.3293,-247.6605 271.527,-240.7638"/>
</g>
<!-- Node63 -->
<g id="node12" class="node">
<title>Node63</title>
<g id="a_node12"><a xlink:href="stack_8h.html#aa86feb2b5c314393a0624e3aefee9ed6" target="_top" xlink:title="_zrtos_stack__cpy">
<polygon fill="#ffffff" stroke="#000000" points="332.5,-197 332.5,-216 431.5,-216 431.5,-197 332.5,-197"/>
<text text-anchor="middle" x="382" y="-204" font-family="Helvetica,sans-Serif" font-size="10.00" fill="#000000">_zrtos_stack__cpy</text>
</a>
</g>
</g>
<!-- Node53&#45;&gt;Node63 -->
<g id="edge12" class="edge">
<title>Node53&#45;&gt;Node63</title>
<path fill="none" stroke="#191970" d="M271.1852,-225.0797C290.971,-221.7624 313.0561,-218.0594 332.2717,-214.8377"/>
<polygon fill="#191970" stroke="#191970" points="270.3591,-221.6693 261.0756,-226.7748 271.5167,-228.5729 270.3591,-221.6693"/>
</g>
<!-- Node70 -->
<g id="node19" class="node">
<title>Node70</title>
<g id="a_node19"><a xlink:href="stack_8h.html#ad2f30a04ec3ad6cbb92d5ea61eb939cf" target="_top" xlink:title="zrtos_stack__pop">
<polygon fill="#ffffff" stroke="#000000" points="515,-112 515,-131 609,-131 609,-112 515,-112"/>
<text text-anchor="middle" x="562" y="-119" font-family="Helvetica,sans-Serif" font-size="10.00" fill="#000000">zrtos_stack__pop</text>
</a>
</g>
</g>
<!-- Node53&#45;&gt;Node70 -->
<g id="edge21" class="edge">
<title>Node53&#45;&gt;Node70</title>
<path fill="none" stroke="#191970" d="M240.8052,-220.1244C259.7877,-209.9844 286.4507,-196.6342 311,-187.5 380.2561,-161.7316 463.7883,-141.8925 514.8826,-130.9612"/>
<polygon fill="#191970" stroke="#191970" points="239.0155,-217.1133 231.8889,-224.9532 242.349,-223.2686 239.0155,-217.1133"/>
</g>
<!-- Node71 -->
<g id="node20" class="node">
<title>Node71</title>
<g id="a_node20"><a xlink:href="stack_8h.html#afa31eba570f50c5a4abe165602963225" target="_top" xlink:title="zrtos_stack__shift">
<polygon fill="#ffffff" stroke="#000000" points="695.5,-74 695.5,-93 792.5,-93 792.5,-74 695.5,-74"/>
<text text-anchor="middle" x="744" y="-81" font-family="Helvetica,sans-Serif" font-size="10.00" fill="#000000">zrtos_stack__shift</text>
</a>
</g>
</g>
<!-- Node53&#45;&gt;Node71 -->
<g id="edge23" class="edge">
<title>Node53&#45;&gt;Node71</title>
<path fill="none" stroke="#191970" d="M227.9523,-216.7203C244.6466,-195.176 275.7521,-159.4186 311,-140.5 436.7649,-72.998 611.7082,-73.9491 695.4968,-79.1803"/>
<polygon fill="#191970" stroke="#191970" points="224.9396,-214.9022 221.7099,-224.9928 230.5272,-219.1186 224.9396,-214.9022"/>
</g>
<!-- Node56 -->
<g id="node5" class="node">
<title>Node56</title>
<g id="a_node5"><a xlink:href="vfs__fd_8h.html#a71a8f21157553c2313c2395e516d962e" target="_top" xlink:title="zrtos_vfs_fd_set__copy">
<polygon fill="#ffffff" stroke="#000000" points="501.5,-401 501.5,-420 622.5,-420 622.5,-401 501.5,-401"/>
<text text-anchor="middle" x="562" y="-408" font-family="Helvetica,sans-Serif" font-size="10.00" fill="#000000">zrtos_vfs_fd_set__copy</text>
</a>
</g>
</g>
<!-- Node55&#45;&gt;Node56 -->
<g id="edge4" class="edge">
<title>Node55&#45;&gt;Node56</title>
<path fill="none" stroke="#191970" d="M437.3516,-352.4018C442.776,-354.4569 448.0848,-356.8109 453,-359.5 471.7804,-369.7746 470.118,-381.4132 489,-391.5 496.1616,-395.3257 504.1361,-398.4128 512.1097,-400.8947"/>
<polygon fill="#191970" stroke="#191970" points="438.1177,-348.964 427.523,-349.0179 435.8389,-355.5827 438.1177,-348.964"/>
</g>
<!-- Node57 -->
<g id="node6" class="node">
<title>Node57</title>
<g id="a_node6"><a xlink:href="vfs__notify_8h.html#a9abba884c837a89754c83d36d6430778" target="_top" xlink:title="zrtos_vfs_notify__start">
<polygon fill="#ffffff" stroke="#000000" points="686,-401 686,-420 802,-420 802,-401 686,-401"/>
<text text-anchor="middle" x="744" y="-408" font-family="Helvetica,sans-Serif" font-size="10.00" fill="#000000">zrtos_vfs_notify__start</text>
</a>
</g>
</g>
<!-- Node56&#45;&gt;Node57 -->
<g id="edge5" class="edge">
<title>Node56&#45;&gt;Node57</title>
<path fill="none" stroke="#191970" d="M632.794,-410.5C650.345,-410.5 668.9522,-410.5 685.8217,-410.5"/>
<polygon fill="#191970" stroke="#191970" points="632.6034,-407.0001 622.6034,-410.5 632.6033,-414.0001 632.6034,-407.0001"/>
</g>
<!-- Node59 -->
<g id="node8" class="node">
<title>Node59</title>
<g id="a_node8"><a xlink:href="event__index_8h.html#a103b54fae27100dc5d48347a3110f51c" target="_top" xlink:title="zrtos_event_index_\l_invoke">
<polygon fill="#ffffff" stroke="#000000" points="511.5,-351.5 511.5,-381.5 612.5,-381.5 612.5,-351.5 511.5,-351.5"/>
<text text-anchor="start" x="519.5" y="-369.5" font-family="Helvetica,sans-Serif" font-size="10.00" fill="#000000">zrtos_event_index_</text>
<text text-anchor="middle" x="562" y="-358.5" font-family="Helvetica,sans-Serif" font-size="10.00" fill="#000000">_invoke</text>
</a>
</g>
</g>
<!-- Node58&#45;&gt;Node59 -->
<g id="edge7" class="edge">
<title>Node58&#45;&gt;Node59</title>
<path fill="none" stroke="#191970" d="M435.0861,-313.8987C441.2152,-315.8593 447.3047,-318.0583 453,-320.5 470.2341,-327.8885 471.9801,-334.6305 489,-342.5 496.0234,-345.7474 503.6114,-348.7552 511.1477,-351.4654"/>
<polygon fill="#191970" stroke="#191970" points="436.0569,-310.5359 425.4728,-311.0135 434.0446,-317.2405 436.0569,-310.5359"/>
</g>
<!-- Node61 -->
<g id="node10" class="node">
<title>Node61</title>
<g id="a_node10"><a xlink:href="sram_8h.html#ab0d0a1a04578c8af262001c024ae57e5" target="_top" xlink:title="zrtos_vfs_module_sram\l__on_read">
<polygon fill="#ffffff" stroke="#000000" points="501.5,-302.5 501.5,-332.5 622.5,-332.5 622.5,-302.5 501.5,-302.5"/>
<text text-anchor="start" x="509.5" y="-320.5" font-family="Helvetica,sans-Serif" font-size="10.00" fill="#000000">zrtos_vfs_module_sram</text>
<text text-anchor="middle" x="562" y="-309.5" font-family="Helvetica,sans-Serif" font-size="10.00" fill="#000000">__on_read</text>
</a>
</g>
</g>
<!-- Node60&#45;&gt;Node61 -->
<g id="edge9" class="edge">
<title>Node60&#45;&gt;Node61</title>
<path fill="none" stroke="#191970" d="M428.6914,-275.6438C436.8148,-277.8567 445.1674,-280.196 453,-282.5 474.0695,-288.6978 497.2583,-296.0661 516.8113,-302.4398"/>
<polygon fill="#191970" stroke="#191970" points="429.513,-272.2405 418.9468,-273.0181 427.6917,-278.9994 429.513,-272.2405"/>
</g>
<!-- Node62 -->
<g id="node11" class="node">
<title>Node62</title>
<g id="a_node11"><a xlink:href="sram_8h.html#ab1fc9892618f21a25027bc7ac993dfe7" target="_top" xlink:title="zrtos_vfs_module_sram\l__on_write">
<polygon fill="#ffffff" stroke="#000000" points="683.5,-283.5 683.5,-313.5 804.5,-313.5 804.5,-283.5 683.5,-283.5"/>
<text text-anchor="start" x="691.5" y="-301.5" font-family="Helvetica,sans-Serif" font-size="10.00" fill="#000000">zrtos_vfs_module_sram</text>
<text text-anchor="middle" x="744" y="-290.5" font-family="Helvetica,sans-Serif" font-size="10.00" fill="#000000">__on_write</text>
</a>
</g>
</g>
<!-- Node60&#45;&gt;Node62 -->
<g id="edge11" class="edge">
<title>Node60&#45;&gt;Node62</title>
<path fill="none" stroke="#191970" d="M463.1446,-271.3455C529.8521,-277.7951 622.8978,-286.7912 683.293,-292.6305"/>
<polygon fill="#191970" stroke="#191970" points="463.3781,-267.8518 453.0876,-270.3731 462.7044,-274.8193 463.3781,-267.8518"/>
</g>
<!-- Node61&#45;&gt;Node62 -->
<g id="edge10" class="edge">
<title>Node61&#45;&gt;Node62</title>
<path fill="none" stroke="#191970" d="M632.8465,-310.1039C649.5294,-308.3623 667.1638,-306.5214 683.3512,-304.8315"/>
<polygon fill="#191970" stroke="#191970" points="632.1859,-306.6538 622.6034,-311.1733 632.9128,-313.616 632.1859,-306.6538"/>
</g>
<!-- Node64 -->
<g id="node13" class="node">
<title>Node64</title>
<g id="a_node13"><a xlink:href="stack_8h.html#ab6d341f61cf081171285ecc0013eb025" target="_top" xlink:title="zrtos_stack__read">
<polygon fill="#ffffff" stroke="#000000" points="513.5,-226 513.5,-245 610.5,-245 610.5,-226 513.5,-226"/>
<text text-anchor="middle" x="562" y="-233" font-family="Helvetica,sans-Serif" font-size="10.00" fill="#000000">zrtos_stack__read</text>
</a>
</g>
</g>
<!-- Node63&#45;&gt;Node64 -->
<g id="edge13" class="edge">
<title>Node63&#45;&gt;Node64</title>
<path fill="none" stroke="#191970" d="M441.7694,-216.1295C465.0406,-219.8788 491.3629,-224.1196 513.433,-227.6753"/>
<polygon fill="#191970" stroke="#191970" points="442.0917,-212.6364 431.6623,-214.5011 440.9782,-219.5473 442.0917,-212.6364"/>
</g>
<!-- Node67 -->
<g id="node16" class="node">
<title>Node67</title>
<g id="a_node16"><a xlink:href="stack_8h.html#aebaaa2b5cc93359116c7c7cee1f77bca" target="_top" xlink:title="zrtos_stack__write">
<polygon fill="#ffffff" stroke="#000000" points="512.5,-188 512.5,-207 611.5,-207 611.5,-188 512.5,-188"/>
<text text-anchor="middle" x="562" y="-195" font-family="Helvetica,sans-Serif" font-size="10.00" fill="#000000">zrtos_stack__write</text>
</a>
</g>
</g>
<!-- Node63&#45;&gt;Node67 -->
<g id="edge16" class="edge">
<title>Node63&#45;&gt;Node67</title>
<path fill="none" stroke="#191970" d="M441.9522,-203.5024C464.8511,-202.3574 490.6816,-201.0659 512.4998,-199.975"/>
<polygon fill="#191970" stroke="#191970" points="441.475,-200.0218 431.6623,-204.0169 441.8246,-207.0131 441.475,-200.0218"/>
</g>
<!-- Node69 -->
<g id="node18" class="node">
<title>Node69</title>
<g id="a_node18"><a xlink:href="stack_8h.html#ac3fd330de26a2b1020d117ecc4ddb8ce" target="_top" xlink:title="zrtos_stack__push">
<polygon fill="#ffffff" stroke="#000000" points="694.5,-150 694.5,-169 793.5,-169 793.5,-150 694.5,-150"/>
<text text-anchor="middle" x="744" y="-157" font-family="Helvetica,sans-Serif" font-size="10.00" fill="#000000">zrtos_stack__push</text>
</a>
</g>
</g>
<!-- Node63&#45;&gt;Node69 -->
<g id="edge19" class="edge">
<title>Node63&#45;&gt;Node69</title>
<path fill="none" stroke="#191970" d="M422.2452,-194.1181C442.1477,-188.471 466.6397,-182.2269 489,-178.5 559.72,-166.7127 642.697,-162.236 694.3208,-160.5371"/>
<polygon fill="#191970" stroke="#191970" points="421.216,-190.7722 412.5831,-196.9141 423.1619,-197.4963 421.216,-190.7722"/>
</g>
<!-- Node65 -->
<g id="node14" class="node">
<title>Node65</title>
<g id="a_node14"><a xlink:href="stack_8h.html#a671e22b7c2aaae864486a45d585ea6cd" target="_top" xlink:title="zrtos_stack__read_ex">
<polygon fill="#ffffff" stroke="#000000" points="687.5,-226 687.5,-245 800.5,-245 800.5,-226 687.5,-226"/>
<text text-anchor="middle" x="744" y="-233" font-family="Helvetica,sans-Serif" font-size="10.00" fill="#000000">zrtos_stack__read_ex</text>
</a>
</g>
</g>
<!-- Node64&#45;&gt;Node65 -->
<g id="edge14" class="edge">
<title>Node64&#45;&gt;Node65</title>
<path fill="none" stroke="#191970" d="M620.9871,-235.5C642.2825,-235.5 666.2586,-235.5 687.3495,-235.5"/>
<polygon fill="#191970" stroke="#191970" points="620.7727,-232.0001 610.7727,-235.5 620.7726,-239.0001 620.7727,-232.0001"/>
</g>
<!-- Node66 -->
<g id="node15" class="node">
<title>Node66</title>
<g id="a_node15"><a xlink:href="vm_8h.html#a8d1a7bee17e7bc3e2f5b16385b8108d9" target="_top" xlink:title="zrtos_vm__run">
<polygon fill="#ffffff" stroke="#000000" points="885.5,-150 885.5,-169 966.5,-169 966.5,-150 885.5,-150"/>
<text text-anchor="middle" x="926" y="-157" font-family="Helvetica,sans-Serif" font-size="10.00" fill="#000000">zrtos_vm__run</text>
</a>
</g>
</g>
<!-- Node65&#45;&gt;Node66 -->
<g id="edge15" class="edge">
<title>Node65&#45;&gt;Node66</title>
<path fill="none" stroke="#191970" d="M797.1883,-223.1722C803.9317,-221.1678 810.6791,-218.9388 817,-216.5 851.6667,-203.1248 889.5636,-181.5989 910.2846,-169.1812"/>
<polygon fill="#191970" stroke="#191970" points="796.0342,-219.8612 787.3614,-225.9466 797.9362,-226.5978 796.0342,-219.8612"/>
</g>
<!-- Node68 -->
<g id="node17" class="node">
<title>Node68</title>
<g id="a_node17"><a xlink:href="stack_8h.html#a34c188132dc24679ed10585279d791d9" target="_top" xlink:title="zrtos_stack__write_ex">
<polygon fill="#ffffff" stroke="#000000" points="686.5,-188 686.5,-207 801.5,-207 801.5,-188 686.5,-188"/>
<text text-anchor="middle" x="744" y="-195" font-family="Helvetica,sans-Serif" font-size="10.00" fill="#000000">zrtos_stack__write_ex</text>
</a>
</g>
</g>
<!-- Node67&#45;&gt;Node68 -->
<g id="edge17" class="edge">
<title>Node67&#45;&gt;Node68</title>
<path fill="none" stroke="#191970" d="M621.9828,-197.5C642.6651,-197.5 665.7753,-197.5 686.2734,-197.5"/>
<polygon fill="#191970" stroke="#191970" points="621.7323,-194.0001 611.7323,-197.5 621.7323,-201.0001 621.7323,-194.0001"/>
</g>
<!-- Node68&#45;&gt;Node66 -->
<g id="edge18" class="edge">
<title>Node68&#45;&gt;Node66</title>
<path fill="none" stroke="#191970" d="M799.8442,-185.8402C827.4542,-180.0755 860.1665,-173.2455 885.361,-167.9851"/>
<polygon fill="#191970" stroke="#191970" points="798.9998,-182.441 789.9263,-187.911 800.4306,-189.2932 798.9998,-182.441"/>
</g>
<!-- Node69&#45;&gt;Node66 -->
<g id="edge20" class="edge">
<title>Node69&#45;&gt;Node66</title>
<path fill="none" stroke="#191970" d="M803.7423,-159.5C830.4416,-159.5 861.2273,-159.5 885.2265,-159.5"/>
<polygon fill="#191970" stroke="#191970" points="803.7323,-156.0001 793.7323,-159.5 803.7323,-163.0001 803.7323,-156.0001"/>
</g>
<!-- Node70&#45;&gt;Node66 -->
<g id="edge22" class="edge">
<title>Node70&#45;&gt;Node66</title>
<path fill="none" stroke="#191970" d="M619.1271,-124.1487C670.9116,-126.9314 749.2646,-132.0936 817,-140.5 839.6846,-143.3153 864.8323,-147.6188 885.2515,-151.4185"/>
<polygon fill="#191970" stroke="#191970" points="619.3053,-120.6533 609.1354,-123.6237 618.9379,-127.6437 619.3053,-120.6533"/>
</g>
<!-- Node71&#45;&gt;Node66 -->
<g id="edge24" class="edge">
<title>Node71&#45;&gt;Node66</title>
<path fill="none" stroke="#191970" d="M785.6064,-96.1628C795.9559,-99.5901 806.9596,-103.4736 817,-107.5 849.6933,-120.6106 886.419,-138.9081 907.8048,-149.9384"/>
<polygon fill="#191970" stroke="#191970" points="786.5289,-92.7826 775.9369,-93.027 784.3695,-99.4412 786.5289,-92.7826"/>
</g>
<!-- Node73 -->
<g id="node22" class="node">
<title>Node73</title>
<g id="a_node22"><a xlink:href="vheap__task__scheduler_8h.html#aff9fd65d1ee753d63d6749a7d18ccb05" target="_top" xlink:title="zrtos_vheap_task_scheduler\l__page_task_out">
<polygon fill="#ffffff" stroke="#000000" points="311.5,-24.5 311.5,-54.5 452.5,-54.5 452.5,-24.5 311.5,-24.5"/>
<text text-anchor="start" x="319.5" y="-42.5" font-family="Helvetica,sans-Serif" font-size="10.00" fill="#000000">zrtos_vheap_task_scheduler</text>
<text text-anchor="middle" x="382" y="-31.5" font-family="Helvetica,sans-Serif" font-size="10.00" fill="#000000">__page_task_out</text>
</a>
</g>
</g>
<!-- Node72&#45;&gt;Node73 -->
<g id="edge26" class="edge">
<title>Node72&#45;&gt;Node73</title>
<path fill="none" stroke="#191970" d="M235.0176,-120.6631C253.8989,-106.1859 283.3533,-84.7673 311,-69.5 320.8398,-64.0661 331.8666,-58.9683 342.2419,-54.5709"/>
<polygon fill="#191970" stroke="#191970" points="232.6474,-118.0721 226.8915,-126.9671 236.9381,-123.6029 232.6474,-118.0721"/>
</g>
<!-- Node74 -->
<g id="node23" class="node">
<title>Node74</title>
<g id="a_node23"><a xlink:href="vheap__task__scheduler_8h.html#af69e917ca8bd27891eb335dda8289faf" target="_top" xlink:title="_zrtos_vheap_task_scheduler\l__set_active_task">
<polygon fill="#ffffff" stroke="#000000" points="489,-24.5 489,-54.5 635,-54.5 635,-24.5 489,-24.5"/>
<text text-anchor="start" x="497" y="-42.5" font-family="Helvetica,sans-Serif" font-size="10.00" fill="#000000">_zrtos_vheap_task_scheduler</text>
<text text-anchor="middle" x="562" y="-31.5" font-family="Helvetica,sans-Serif" font-size="10.00" fill="#000000">__set_active_task</text>
</a>
</g>
</g>
<!-- Node73&#45;&gt;Node74 -->
<g id="edge27" class="edge">
<title>Node73&#45;&gt;Node74</title>
<path fill="none" stroke="#191970" d="M462.7727,-39.5C471.4802,-39.5 480.3041,-39.5 488.9138,-39.5"/>
<polygon fill="#191970" stroke="#191970" points="462.6242,-36.0001 452.6241,-39.5 462.6241,-43.0001 462.6242,-36.0001"/>
</g>
<!-- Node75 -->
<g id="node24" class="node">
<title>Node75</title>
<g id="a_node24"><a xlink:href="vheap__task__scheduler_8h.html#a1a1be02692a671c368f4e2335179a042" target="_top" xlink:title="_zrtos_vheap_task_scheduler\l__switch_task">
<polygon fill="#ffffff" stroke="#000000" points="671,-24.5 671,-54.5 817,-54.5 817,-24.5 671,-24.5"/>
<text text-anchor="start" x="679" y="-42.5" font-family="Helvetica,sans-Serif" font-size="10.00" fill="#000000">_zrtos_vheap_task_scheduler</text>
<text text-anchor="middle" x="744" y="-31.5" font-family="Helvetica,sans-Serif" font-size="10.00" fill="#000000">__switch_task</text>
</a>
</g>
</g>
<!-- Node74&#45;&gt;Node75 -->
<g id="edge28" class="edge">
<title>Node74&#45;&gt;Node75</title>
<path fill="none" stroke="#191970" d="M645.516,-39.5C653.9925,-39.5 662.5562,-39.5 670.9103,-39.5"/>
<polygon fill="#191970" stroke="#191970" points="645.2397,-36.0001 635.2397,-39.5 645.2396,-43.0001 645.2397,-36.0001"/>
</g>
<!-- Node76 -->
<g id="node25" class="node">
<title>Node76</title>
<g id="a_node25"><a xlink:href="vheap__task__scheduler_8h.html#acd810187c2b0b8d63548170c9da4b73d" target="_top" xlink:title="_zrtos_vheap_task_scheduler\l__on_tick">
<polygon fill="#ffffff" stroke="#000000" points="853,-24.5 853,-54.5 999,-54.5 999,-24.5 853,-24.5"/>
<text text-anchor="start" x="861" y="-42.5" font-family="Helvetica,sans-Serif" font-size="10.00" fill="#000000">_zrtos_vheap_task_scheduler</text>
<text text-anchor="middle" x="926" y="-31.5" font-family="Helvetica,sans-Serif" font-size="10.00" fill="#000000">__on_tick</text>
</a>
</g>
</g>
<!-- Node75&#45;&gt;Node76 -->
<g id="edge29" class="edge">
<title>Node75&#45;&gt;Node76</title>
<path fill="none" stroke="#191970" d="M827.516,-39.5C835.9925,-39.5 844.5562,-39.5 852.9103,-39.5"/>
<polygon fill="#191970" stroke="#191970" points="827.2397,-36.0001 817.2397,-39.5 827.2396,-43.0001 827.2397,-36.0001"/>
</g>
<!-- Node77 -->
<g id="node26" class="node">
<title>Node77</title>
<g id="a_node26"><a xlink:href="vheap__task__scheduler_8h.html#a51ae476e29565ebfde1ec3340150ca06" target="_top" xlink:title="zrtos_vheap_task_scheduler\l__delay_ms">
<polygon fill="#ffffff" stroke="#000000" points="1035,-49.5 1035,-79.5 1176,-79.5 1176,-49.5 1035,-49.5"/>
<text text-anchor="start" x="1043" y="-67.5" font-family="Helvetica,sans-Serif" font-size="10.00" fill="#000000">zrtos_vheap_task_scheduler</text>
<text text-anchor="middle" x="1105.5" y="-56.5" font-family="Helvetica,sans-Serif" font-size="10.00" fill="#000000">__delay_ms</text>
</a>
</g>
</g>
<!-- Node76&#45;&gt;Node77 -->
<g id="edge30" class="edge">
<title>Node76&#45;&gt;Node77</title>
<path fill="none" stroke="#191970" d="M1009.0772,-51.0706C1017.7021,-52.2719 1026.4097,-53.4846 1034.8789,-54.6642"/>
<polygon fill="#191970" stroke="#191970" points="1009.3968,-47.5814 999.0095,-49.6685 1008.4311,-54.5145 1009.3968,-47.5814"/>
</g>
<!-- Node79 -->
<g id="node28" class="node">
<title>Node79</title>
<g id="a_node28"><a xlink:href="vheap__task__scheduler_8h.html#a3734a190668294fe1e91009e3cf6f72a" target="_top" xlink:title="zrtos_vheap_task_scheduler\l__trampoline_cb">
<polygon fill="#ffffff" stroke="#000000" points="1035,-.5 1035,-30.5 1176,-30.5 1176,-.5 1035,-.5"/>
<text text-anchor="start" x="1043" y="-18.5" font-family="Helvetica,sans-Serif" font-size="10.00" fill="#000000">zrtos_vheap_task_scheduler</text>
<text text-anchor="middle" x="1105.5" y="-7.5" font-family="Helvetica,sans-Serif" font-size="10.00" fill="#000000">__trampoline_cb</text>
</a>
</g>
</g>
<!-- Node76&#45;&gt;Node79 -->
<g id="edge32" class="edge">
<title>Node76&#45;&gt;Node79</title>
<path fill="none" stroke="#191970" d="M1009.0772,-28.3922C1017.7021,-27.239 1026.4097,-26.0747 1034.8789,-24.9424"/>
<polygon fill="#191970" stroke="#191970" points="1008.4574,-24.9438 999.0095,-29.7383 1009.3852,-31.8821 1008.4574,-24.9438"/>
</g>
<!-- Node78 -->
<g id="node27" class="node">
<title>Node78</title>
<g id="a_node27"><a xlink:href="vheap__task__pthread_8h.html#a28a15bba47cab57cbc9f5dac9af99c8b" target="_top" xlink:title="pthread_join">
<polygon fill="#ffffff" stroke="#000000" points="1212,-55 1212,-74 1281,-74 1281,-55 1212,-55"/>
<text text-anchor="middle" x="1246.5" y="-62" font-family="Helvetica,sans-Serif" font-size="10.00" fill="#000000">pthread_join</text>
</a>
</g>
</g>
<!-- Node77&#45;&gt;Node78 -->
<g id="edge31" class="edge">
<title>Node77&#45;&gt;Node78</title>
<path fill="none" stroke="#191970" d="M1186.5043,-64.5C1195.384,-64.5 1204.0363,-64.5 1211.8806,-64.5"/>
<polygon fill="#191970" stroke="#191970" points="1186.4131,-61.0001 1176.4131,-64.5 1186.413,-68.0001 1186.4131,-61.0001"/>
</g>
</g>
</svg>
