<?xml version="1.0" encoding="UTF-8" standalone="no"?>
<!DOCTYPE svg PUBLIC "-//W3C//DTD SVG 1.1//EN"
 "http://www.w3.org/Graphics/SVG/1.1/DTD/svg11.dtd">
<!-- Generated by graphviz version 10.0.1 (20240210.2158)
 -->
<!-- Title: zrtos_mem__cpy Pages: 1 -->
<svg width="692pt" height="352pt"
 viewBox="0.00 0.00 691.75 352.00" xmlns="http://www.w3.org/2000/svg" xmlns:xlink="http://www.w3.org/1999/xlink">
<g id="graph0" class="graph" transform="scale(1 1) rotate(0) translate(4 348)">
<title>zrtos_mem__cpy</title>
<!-- Node1 -->
<g id="Node000001" class="node">
<title>Node1</title>
<g id="a_Node000001"><a xlink:title=" ">
<polygon fill="#999999" stroke="#666666" points="683.75,-161 592.75,-161 592.75,-141 683.75,-141 683.75,-161"/>
<text text-anchor="middle" x="638.25" y="-147.5" font-family="Helvetica,sans-Serif" font-size="10.00">zrtos_mem__cpy</text>
</a>
</g>
</g>
<!-- Node2 -->
<g id="Node000002" class="node">
<title>Node2</title>
<g id="a_Node000002"><a xlink:href="stack_8h.html#aa86feb2b5c314393a0624e3aefee9ed6" target="_top" xlink:title=" ">
<polygon fill="white" stroke="#666666" points="536.88,-287 438.38,-287 438.38,-267 536.88,-267 536.88,-287"/>
<text text-anchor="middle" x="487.62" y="-273.5" font-family="Helvetica,sans-Serif" font-size="10.00">_zrtos_stack__cpy</text>
</a>
</g>
</g>
<!-- Node1&#45;&gt;Node2 -->
<g id="edge1_Node000001_Node000002" class="edge">
<title>Node1&#45;&gt;Node2</title>
<g id="a_edge1_Node000001_Node000002"><a xlink:title=" ">
<path fill="none" stroke="#63b8ff" d="M620.04,-169.63C604.28,-186.26 579.94,-210.86 556.75,-230 540.13,-243.72 519.59,-257.5 505.44,-266.56"/>
<polygon fill="#63b8ff" stroke="#63b8ff" points="622.53,-172.09 626.81,-162.4 617.42,-167.3 622.53,-172.09"/>
</a>
</g>
</g>
<!-- Node9 -->
<g id="Node000009" class="node">
<title>Node9</title>
<g id="a_Node000009"><a xlink:href="progmem_8h.html#a7185db18272b8514d094ac443ad989eb" target="_top" xlink:title=" ">
<polygon fill="white" stroke="#666666" points="542.5,-221 432.75,-221 432.75,-201 542.5,-201 542.5,-221"/>
<text text-anchor="middle" x="487.62" y="-207.5" font-family="Helvetica,sans-Serif" font-size="10.00">zrtos_progmem__cpy</text>
</a>
</g>
</g>
<!-- Node1&#45;&gt;Node9 -->
<g id="edge10_Node000001_Node000009" class="edge">
<title>Node1&#45;&gt;Node9</title>
<g id="a_edge10_Node000001_Node000009"><a xlink:title=" ">
<path fill="none" stroke="#63b8ff" d="M601.28,-165.85C587.38,-171.56 571.34,-178.12 556.75,-184 543.06,-189.52 527.79,-195.58 515.18,-200.56"/>
<polygon fill="#63b8ff" stroke="#63b8ff" points="602.59,-169.1 610.5,-162.06 599.92,-162.62 602.59,-169.1"/>
</a>
</g>
</g>
<!-- Node11 -->
<g id="Node000011" class="node">
<title>Node11</title>
<g id="a_Node000011"><a xlink:href="stack_8h.html#ad2f30a04ec3ad6cbb92d5ea61eb939cf" target="_top" xlink:title=" ">
<polygon fill="white" stroke="#666666" points="218.38,-218 125.12,-218 125.12,-198 218.38,-198 218.38,-218"/>
<text text-anchor="middle" x="171.75" y="-204.5" font-family="Helvetica,sans-Serif" font-size="10.00">zrtos_stack__pop</text>
</a>
</g>
</g>
<!-- Node1&#45;&gt;Node11 -->
<g id="edge12_Node000001_Node000011" class="edge">
<title>Node1&#45;&gt;Node11</title>
<g id="a_edge12_Node000001_Node000011"><a xlink:title=" ">
<path fill="none" stroke="#63b8ff" d="M581.08,-154.92C507.92,-160.44 376.18,-171.79 264.5,-189 249.55,-191.3 233.35,-194.44 218.79,-197.5"/>
<polygon fill="#63b8ff" stroke="#63b8ff" points="581.08,-158.43 590.8,-154.2 580.56,-151.45 581.08,-158.43"/>
</a>
</g>
</g>
<!-- Node12 -->
<g id="Node000012" class="node">
<title>Node12</title>
<g id="a_Node000012"><a xlink:href="stack_8h.html#afa31eba570f50c5a4abe165602963225" target="_top" xlink:title=" ">
<polygon fill="white" stroke="#666666" points="219.5,-155 124,-155 124,-135 219.5,-135 219.5,-155"/>
<text text-anchor="middle" x="171.75" y="-141.5" font-family="Helvetica,sans-Serif" font-size="10.00">zrtos_stack__shift</text>
</a>
</g>
</g>
<!-- Node1&#45;&gt;Node12 -->
<g id="edge14_Node000001_Node000012" class="edge">
<title>Node1&#45;&gt;Node12</title>
<g id="a_edge14_Node000001_Node000012"><a xlink:title=" ">
<path fill="none" stroke="#63b8ff" d="M580.92,-150.27C488.39,-149.08 305.89,-146.72 219.8,-145.61"/>
<polygon fill="#63b8ff" stroke="#63b8ff" points="580.73,-153.77 590.78,-150.4 580.82,-146.77 580.73,-153.77"/>
</a>
</g>
</g>
<!-- Node13 -->
<g id="Node000013" class="node">
<title>Node13</title>
<g id="a_Node000013"><a xlink:href="adc_8h.html#a8922bb86f60c10f7e58cf833ba4bfc77" target="_top" xlink:title=" ">
<polygon fill="white" stroke="#666666" points="541.75,-104 433.5,-104 433.5,-72 541.75,-72 541.75,-104"/>
<text text-anchor="start" x="441.5" y="-90.5" font-family="Helvetica,sans-Serif" font-size="10.00">zrtos_vfs_module_avr</text>
<text text-anchor="middle" x="487.62" y="-78.5" font-family="Helvetica,sans-Serif" font-size="10.00">_adc__on_read</text>
</a>
</g>
</g>
<!-- Node1&#45;&gt;Node13 -->
<g id="edge16_Node000001_Node000013" class="edge">
<title>Node1&#45;&gt;Node13</title>
<g id="a_edge16_Node000001_Node000013"><a xlink:title=" ">
<path fill="none" stroke="#63b8ff" d="M602.28,-136.18C579.83,-126.66 550.63,-114.28 527.46,-104.46"/>
<polygon fill="#63b8ff" stroke="#63b8ff" points="600.74,-139.33 611.31,-140.01 603.47,-132.88 600.74,-139.33"/>
</a>
</g>
</g>
<!-- Node14 -->
<g id="Node000014" class="node">
<title>Node14</title>
<g id="a_Node000014"><a xlink:href="sram_8h.html#ae81a59adc54eb479f21bf266c427b309" target="_top" xlink:title=" ">
<polygon fill="white" stroke="#666666" points="556.75,-54 418.5,-54 418.5,-34 556.75,-34 556.75,-54"/>
<text text-anchor="middle" x="487.62" y="-40.5" font-family="Helvetica,sans-Serif" font-size="10.00">zrtos_vfs_module_sram__rw</text>
</a>
</g>
</g>
<!-- Node1&#45;&gt;Node14 -->
<g id="edge17_Node000001_Node000014" class="edge">
<title>Node1&#45;&gt;Node14</title>
<g id="a_edge17_Node000001_Node000014"><a xlink:title=" ">
<path fill="none" stroke="#63b8ff" d="M624.17,-131.15C609.91,-111.06 585.29,-80.54 556.75,-63 551.21,-59.59 545.04,-56.78 538.74,-54.47"/>
<polygon fill="#63b8ff" stroke="#63b8ff" points="621.24,-133.06 629.78,-139.33 627.01,-129.1 621.24,-133.06"/>
</a>
</g>
</g>
<!-- Node3 -->
<g id="Node000003" class="node">
<title>Node3</title>
<g id="a_Node000003"><a xlink:href="stack_8h.html#ac3fd330de26a2b1020d117ecc4ddb8ce" target="_top" xlink:title=" ">
<polygon fill="white" stroke="#666666" points="221,-344 122.5,-344 122.5,-324 221,-324 221,-344"/>
<text text-anchor="middle" x="171.75" y="-330.5" font-family="Helvetica,sans-Serif" font-size="10.00">zrtos_stack__push</text>
</a>
</g>
</g>
<!-- Node2&#45;&gt;Node3 -->
<g id="edge2_Node000002_Node000003" class="edge">
<title>Node2&#45;&gt;Node3</title>
<g id="a_edge2_Node000002_Node000003"><a xlink:title=" ">
<path fill="none" stroke="#63b8ff" d="M453.1,-291.76C433.01,-299.96 406.74,-309.58 382.5,-315 328.09,-327.18 264.07,-331.59 221.2,-333.16"/>
<polygon fill="#63b8ff" stroke="#63b8ff" points="454.3,-295.05 462.18,-287.97 451.6,-288.59 454.3,-295.05"/>
</a>
</g>
</g>
<!-- Node5 -->
<g id="Node000005" class="node">
<title>Node5</title>
<g id="a_Node000005"><a xlink:href="stack_8h.html#ab6d341f61cf081171285ecc0013eb025" target="_top" xlink:title=" ">
<polygon fill="white" stroke="#666666" points="371.62,-306 275.38,-306 275.38,-286 371.62,-286 371.62,-306"/>
<text text-anchor="middle" x="323.5" y="-292.5" font-family="Helvetica,sans-Serif" font-size="10.00">zrtos_stack__read</text>
</a>
</g>
</g>
<!-- Node2&#45;&gt;Node5 -->
<g id="edge4_Node000002_Node000005" class="edge">
<title>Node2&#45;&gt;Node5</title>
<g id="a_edge4_Node000002_Node000005"><a xlink:title=" ">
<path fill="none" stroke="#63b8ff" d="M426.68,-284.02C408.65,-286.14 389.11,-288.43 371.99,-290.43"/>
<polygon fill="#63b8ff" stroke="#63b8ff" points="426.95,-287.52 436.48,-282.88 426.14,-280.56 426.95,-287.52"/>
</a>
</g>
</g>
<!-- Node7 -->
<g id="Node000007" class="node">
<title>Node7</title>
<g id="a_Node000007"><a xlink:href="stack_8h.html#aebaaa2b5cc93359116c7c7cee1f77bca" target="_top" xlink:title=" ">
<polygon fill="white" stroke="#666666" points="372.38,-268 274.62,-268 274.62,-248 372.38,-248 372.38,-268"/>
<text text-anchor="middle" x="323.5" y="-254.5" font-family="Helvetica,sans-Serif" font-size="10.00">zrtos_stack__write</text>
</a>
</g>
</g>
<!-- Node2&#45;&gt;Node7 -->
<g id="edge7_Node000002_Node000007" class="edge">
<title>Node2&#45;&gt;Node7</title>
<g id="a_edge7_Node000002_Node000007"><a xlink:title=" ">
<path fill="none" stroke="#63b8ff" d="M426.59,-269.96C408.87,-267.89 389.71,-265.64 372.83,-263.66"/>
<polygon fill="#63b8ff" stroke="#63b8ff" points="426.14,-273.44 436.48,-271.12 426.95,-266.48 426.14,-273.44"/>
</a>
</g>
</g>
<!-- Node4 -->
<g id="Node000004" class="node">
<title>Node4</title>
<g id="a_Node000004"><a xlink:href="vm_8h.html#a8d1a7bee17e7bc3e2f5b16385b8108d9" target="_top" xlink:title=" ">
<polygon fill="white" stroke="#666666" points="79,-268 0,-268 0,-248 79,-248 79,-268"/>
<text text-anchor="middle" x="39.5" y="-254.5" font-family="Helvetica,sans-Serif" font-size="10.00">zrtos_vm__run</text>
</a>
</g>
</g>
<!-- Node3&#45;&gt;Node4 -->
<g id="edge3_Node000003_Node000004" class="edge">
<title>Node3&#45;&gt;Node4</title>
<g id="a_edge3_Node000003_Node000004"><a xlink:title=" ">
<path fill="none" stroke="#63b8ff" d="M123.85,-319.28C120.81,-317.94 117.83,-316.51 115,-315 90.3,-301.8 65.16,-280.61 51.32,-268.12"/>
<polygon fill="#63b8ff" stroke="#63b8ff" points="122.35,-322.45 132.93,-322.94 124.96,-315.96 122.35,-322.45"/>
</a>
</g>
</g>
<!-- Node6 -->
<g id="Node000006" class="node">
<title>Node6</title>
<g id="a_Node000006"><a xlink:href="stack_8h.html#a671e22b7c2aaae864486a45d585ea6cd" target="_top" xlink:title=" ">
<polygon fill="white" stroke="#666666" points="227.75,-306 115.75,-306 115.75,-286 227.75,-286 227.75,-306"/>
<text text-anchor="middle" x="171.75" y="-292.5" font-family="Helvetica,sans-Serif" font-size="10.00">zrtos_stack__read_ex</text>
</a>
</g>
</g>
<!-- Node5&#45;&gt;Node6 -->
<g id="edge5_Node000005_Node000006" class="edge">
<title>Node5&#45;&gt;Node6</title>
<g id="a_edge5_Node000005_Node000006"><a xlink:title=" ">
<path fill="none" stroke="#63b8ff" d="M263.66,-296C251.98,-296 239.76,-296 228.19,-296"/>
<polygon fill="#63b8ff" stroke="#63b8ff" points="263.6,-299.5 273.6,-296 263.6,-292.5 263.6,-299.5"/>
</a>
</g>
</g>
<!-- Node6&#45;&gt;Node4 -->
<g id="edge6_Node000006_Node000004" class="edge">
<title>Node6&#45;&gt;Node4</title>
<g id="a_edge6_Node000006_Node000004"><a xlink:title=" ">
<path fill="none" stroke="#63b8ff" d="M124.21,-282.42C108.45,-277.82 91.11,-272.77 76.32,-268.45"/>
<polygon fill="#63b8ff" stroke="#63b8ff" points="122.78,-285.65 133.36,-285.09 124.74,-278.93 122.78,-285.65"/>
</a>
</g>
</g>
<!-- Node8 -->
<g id="Node000008" class="node">
<title>Node8</title>
<g id="a_Node000008"><a xlink:href="stack_8h.html#a34c188132dc24679ed10585279d791d9" target="_top" xlink:title=" ">
<polygon fill="white" stroke="#666666" points="228.5,-268 115,-268 115,-248 228.5,-248 228.5,-268"/>
<text text-anchor="middle" x="171.75" y="-254.5" font-family="Helvetica,sans-Serif" font-size="10.00">zrtos_stack__write_ex</text>
</a>
</g>
</g>
<!-- Node7&#45;&gt;Node8 -->
<g id="edge8_Node000007_Node000008" class="edge">
<title>Node7&#45;&gt;Node8</title>
<g id="a_edge8_Node000007_Node000008"><a xlink:title=" ">
<path fill="none" stroke="#63b8ff" d="M262.86,-258C251.68,-258 240.02,-258 228.95,-258"/>
<polygon fill="#63b8ff" stroke="#63b8ff" points="262.78,-261.5 272.78,-258 262.78,-254.5 262.78,-261.5"/>
</a>
</g>
</g>
<!-- Node8&#45;&gt;Node4 -->
<g id="edge9_Node000008_Node000004" class="edge">
<title>Node8&#45;&gt;Node4</title>
<g id="a_edge9_Node000008_Node000004"><a xlink:title=" ">
<path fill="none" stroke="#63b8ff" d="M103.44,-258C95.12,-258 86.85,-258 79.17,-258"/>
<polygon fill="#63b8ff" stroke="#63b8ff" points="103.24,-261.5 113.24,-258 103.24,-254.5 103.24,-261.5"/>
</a>
</g>
</g>
<!-- Node10 -->
<g id="Node000010" class="node">
<title>Node10</title>
<g id="a_Node000010"><a xlink:href="event__index_8h.html#a103b54fae27100dc5d48347a3110f51c" target="_top" xlink:title=" ">
<polygon fill="white" stroke="#666666" points="373.12,-230 273.88,-230 273.88,-198 373.12,-198 373.12,-230"/>
<text text-anchor="start" x="281.88" y="-216.5" font-family="Helvetica,sans-Serif" font-size="10.00">zrtos_event_index_</text>
<text text-anchor="middle" x="323.5" y="-204.5" font-family="Helvetica,sans-Serif" font-size="10.00">_invoke</text>
</a>
</g>
</g>
<!-- Node9&#45;&gt;Node10 -->
<g id="edge11_Node000009_Node000010" class="edge">
<title>Node9&#45;&gt;Node10</title>
<g id="a_edge11_Node000009_Node000010"><a xlink:title=" ">
<path fill="none" stroke="#63b8ff" d="M421.25,-212.21C405.34,-212.5 388.61,-212.81 373.61,-213.09"/>
<polygon fill="#63b8ff" stroke="#63b8ff" points="421.19,-215.71 431.13,-212.03 421.06,-208.71 421.19,-215.71"/>
</a>
</g>
</g>
<!-- Node11&#45;&gt;Node4 -->
<g id="edge13_Node000011_Node000004" class="edge">
<title>Node11&#45;&gt;Node4</title>
<g id="a_edge13_Node000011_Node000004"><a xlink:title=" ">
<path fill="none" stroke="#63b8ff" d="M132.72,-222.6C111.91,-230.59 86.6,-240.3 67.77,-247.53"/>
<polygon fill="#63b8ff" stroke="#63b8ff" points="133.95,-225.88 142.03,-219.02 131.44,-219.34 133.95,-225.88"/>
</a>
</g>
</g>
<!-- Node12&#45;&gt;Node4 -->
<g id="edge15_Node000012_Node000004" class="edge">
<title>Node12&#45;&gt;Node4</title>
<g id="a_edge15_Node000012_Node000004"><a xlink:title=" ">
<path fill="none" stroke="#63b8ff" d="M148.41,-161.98C138.09,-169.99 125.76,-179.8 115,-189 91.42,-209.17 65.05,-234.22 50.87,-247.91"/>
<polygon fill="#63b8ff" stroke="#63b8ff" points="150.23,-165 156.02,-156.12 145.96,-159.45 150.23,-165"/>
</a>
</g>
</g>
<!-- Node15 -->
<g id="Node000015" class="node">
<title>Node15</title>
<g id="a_Node000015"><a xlink:href="sram_8h.html#ab0d0a1a04578c8af262001c024ae57e5" target="_top" xlink:title=" ">
<polygon fill="white" stroke="#666666" points="382.5,-82 264.5,-82 264.5,-50 382.5,-50 382.5,-82"/>
<text text-anchor="start" x="272.5" y="-68.5" font-family="Helvetica,sans-Serif" font-size="10.00">zrtos_vfs_module_sram</text>
<text text-anchor="middle" x="323.5" y="-56.5" font-family="Helvetica,sans-Serif" font-size="10.00">__on_read</text>
</a>
</g>
</g>
<!-- Node14&#45;&gt;Node15 -->
<g id="edge18_Node000014_Node000015" class="edge">
<title>Node14&#45;&gt;Node15</title>
<g id="a_edge18_Node000014_Node000015"><a xlink:title=" ">
<path fill="none" stroke="#63b8ff" d="M406.95,-54.81C398.86,-55.91 390.76,-57.01 382.95,-58.07"/>
<polygon fill="#63b8ff" stroke="#63b8ff" points="407.4,-58.28 416.84,-53.47 406.46,-51.35 407.4,-58.28"/>
</a>
</g>
</g>
<!-- Node16 -->
<g id="Node000016" class="node">
<title>Node16</title>
<g id="a_Node000016"><a xlink:href="sram_8h.html#ab1fc9892618f21a25027bc7ac993dfe7" target="_top" xlink:title=" ">
<polygon fill="white" stroke="#666666" points="382.5,-32 264.5,-32 264.5,0 382.5,0 382.5,-32"/>
<text text-anchor="start" x="272.5" y="-18.5" font-family="Helvetica,sans-Serif" font-size="10.00">zrtos_vfs_module_sram</text>
<text text-anchor="middle" x="323.5" y="-6.5" font-family="Helvetica,sans-Serif" font-size="10.00">__on_write</text>
</a>
</g>
</g>
<!-- Node14&#45;&gt;Node16 -->
<g id="edge19_Node000014_Node000016" class="edge">
<title>Node14&#45;&gt;Node16</title>
<g id="a_edge19_Node000014_Node000016"><a xlink:title=" ">
<path fill="none" stroke="#63b8ff" d="M415.11,-31.65C404.29,-29.78 393.25,-27.87 382.77,-26.06"/>
<polygon fill="#63b8ff" stroke="#63b8ff" points="414.31,-35.06 424.76,-33.32 415.51,-28.17 414.31,-35.06"/>
</a>
</g>
</g>
</g>
</svg>
