<?xml version="1.0" encoding="UTF-8" standalone="no"?>
<!DOCTYPE svg PUBLIC "-//W3C//DTD SVG 1.1//EN"
 "http://www.w3.org/Graphics/SVG/1.1/DTD/svg11.dtd">
<!-- Generated by graphviz version 2.40.1 (20161225.0304)
 -->
<!-- Title: zrtos_mem__zero Pages: 1 -->
<svg width="707pt" height="154pt"
 viewBox="0.00 0.00 707.00 153.50" xmlns="http://www.w3.org/2000/svg" xmlns:xlink="http://www.w3.org/1999/xlink">
<g id="graph0" class="graph" transform="scale(1 1) rotate(0) translate(4 149.5)">
<title>zrtos_mem__zero</title>
<polygon fill="#ffffff" stroke="transparent" points="-4,4 -4,-149.5 703,-149.5 703,4 -4,4"/>
<!-- Node154 -->
<g id="node1" class="node">
<title>Node154</title>
<polygon fill="#bfbfbf" stroke="#000000" points="0,-69 0,-88 95,-88 95,-69 0,-69"/>
<text text-anchor="middle" x="47.5" y="-76" font-family="Helvetica,sans-Serif" font-size="10.00" fill="#000000">zrtos_mem__zero</text>
</g>
<!-- Node155 -->
<g id="node2" class="node">
<title>Node155</title>
<g id="a_node2"><a xlink:href="bitfield_8h.html#a41e25f1f59cb57785b18503403258629" target="_top" xlink:title="zrtos_bitfield__zero">
<polygon fill="#ffffff" stroke="#000000" points="139.5,-126 139.5,-145 240.5,-145 240.5,-126 139.5,-126"/>
<text text-anchor="middle" x="190" y="-133" font-family="Helvetica,sans-Serif" font-size="10.00" fill="#000000">zrtos_bitfield__zero</text>
</a>
</g>
</g>
<!-- Node154&#45;&gt;Node155 -->
<g id="edge1" class="edge">
<title>Node154&#45;&gt;Node155</title>
<path fill="none" stroke="#191970" d="M80.8522,-91.8409C106.9875,-102.295 142.7185,-116.5874 166.0709,-125.9284"/>
<polygon fill="#191970" stroke="#191970" points="81.936,-88.5048 71.3513,-88.0405 79.3362,-95.0042 81.936,-88.5048"/>
</g>
<!-- Node158 -->
<g id="node5" class="node">
<title>Node158</title>
<g id="a_node5"><a xlink:href="vfs__notify_8h.html#a390aa07da245cc02fe5949e98e6f48e5" target="_top" xlink:title="zrtos_vfs_notify__init">
<polygon fill="#ffffff" stroke="#000000" points="589,-107 589,-126 699,-126 699,-107 589,-107"/>
<text text-anchor="middle" x="644" y="-114" font-family="Helvetica,sans-Serif" font-size="10.00" fill="#000000">zrtos_vfs_notify__init</text>
</a>
</g>
</g>
<!-- Node154&#45;&gt;Node158 -->
<g id="edge5" class="edge">
<title>Node154&#45;&gt;Node158</title>
<path fill="none" stroke="#191970" d="M105.0507,-82.1663C219.7935,-89.4759 475.6937,-105.7781 588.6257,-112.9724"/>
<polygon fill="#191970" stroke="#191970" points="105.2574,-78.6724 95.0551,-81.5295 104.8123,-85.6583 105.2574,-78.6724"/>
</g>
<!-- Node159 -->
<g id="node6" class="node">
<title>Node159</title>
<g id="a_node6"><a xlink:href="vm_8h.html#a8d1a7bee17e7bc3e2f5b16385b8108d9" target="_top" xlink:title="zrtos_vm__run">
<polygon fill="#ffffff" stroke="#000000" points="149.5,-50 149.5,-69 230.5,-69 230.5,-50 149.5,-50"/>
<text text-anchor="middle" x="190" y="-57" font-family="Helvetica,sans-Serif" font-size="10.00" fill="#000000">zrtos_vm__run</text>
</a>
</g>
</g>
<!-- Node154&#45;&gt;Node159 -->
<g id="edge6" class="edge">
<title>Node154&#45;&gt;Node159</title>
<path fill="none" stroke="#191970" d="M105.3611,-70.7852C120.0545,-68.8261 135.536,-66.7619 149.1831,-64.9423"/>
<polygon fill="#191970" stroke="#191970" points="104.7965,-67.3294 95.3469,-72.1204 105.7217,-74.268 104.7965,-67.3294"/>
</g>
<!-- Node160 -->
<g id="node7" class="node">
<title>Node160</title>
<g id="a_node7"><a xlink:href="zero_8h.html#ab183cd24a395f3b2f709618d3c6ca8d9" target="_top" xlink:title="zrtos_vfs_module_zero\l__on_read">
<polygon fill="#ffffff" stroke="#000000" points="131,-.5 131,-30.5 249,-30.5 249,-.5 131,-.5"/>
<text text-anchor="start" x="139" y="-18.5" font-family="Helvetica,sans-Serif" font-size="10.00" fill="#000000">zrtos_vfs_module_zero</text>
<text text-anchor="middle" x="190" y="-7.5" font-family="Helvetica,sans-Serif" font-size="10.00" fill="#000000">__on_read</text>
</a>
</g>
</g>
<!-- Node154&#45;&gt;Node160 -->
<g id="edge7" class="edge">
<title>Node154&#45;&gt;Node160</title>
<path fill="none" stroke="#191970" d="M77.3417,-64.6896C93.2296,-57.3951 113.128,-48.3515 131,-40.5 138.4351,-37.2336 146.4275,-33.7972 154.0546,-30.5534"/>
<polygon fill="#191970" stroke="#191970" points="75.6422,-61.6188 68.0214,-68.9792 78.5688,-67.9777 75.6422,-61.6188"/>
</g>
<!-- Node156 -->
<g id="node3" class="node">
<title>Node156</title>
<g id="a_node3"><a xlink:href="vfs__fd_8h.html#a7621285229575f9be4267258e7f0b26d" target="_top" xlink:title="zrtos_vfs_fd_set__zero">
<polygon fill="#ffffff" stroke="#000000" points="285,-126 285,-145 404,-145 404,-126 285,-126"/>
<text text-anchor="middle" x="344.5" y="-133" font-family="Helvetica,sans-Serif" font-size="10.00" fill="#000000">zrtos_vfs_fd_set__zero</text>
</a>
</g>
</g>
<!-- Node155&#45;&gt;Node156 -->
<g id="edge2" class="edge">
<title>Node155&#45;&gt;Node156</title>
<path fill="none" stroke="#191970" d="M250.7472,-135.5C261.9898,-135.5 273.7215,-135.5 284.9286,-135.5"/>
<polygon fill="#191970" stroke="#191970" points="250.5891,-132.0001 240.5891,-135.5 250.589,-139.0001 250.5891,-132.0001"/>
</g>
<!-- Node157 -->
<g id="node4" class="node">
<title>Node157</title>
<g id="a_node4"><a xlink:href="vfs__fd_8h.html#a8747abe85b66255bf04adc7610b87374" target="_top" xlink:title="zrtos_vfs_fd_set__init">
<polygon fill="#ffffff" stroke="#000000" points="440,-126 440,-145 553,-145 553,-126 440,-126"/>
<text text-anchor="middle" x="496.5" y="-133" font-family="Helvetica,sans-Serif" font-size="10.00" fill="#000000">zrtos_vfs_fd_set__init</text>
</a>
</g>
</g>
<!-- Node156&#45;&gt;Node157 -->
<g id="edge3" class="edge">
<title>Node156&#45;&gt;Node157</title>
<path fill="none" stroke="#191970" d="M414.3424,-135.5C422.7724,-135.5 431.3042,-135.5 439.5191,-135.5"/>
<polygon fill="#191970" stroke="#191970" points="414.1382,-132.0001 404.1382,-135.5 414.1381,-139.0001 414.1382,-132.0001"/>
</g>
<!-- Node157&#45;&gt;Node158 -->
<g id="edge4" class="edge">
<title>Node157&#45;&gt;Node158</title>
<path fill="none" stroke="#191970" d="M563.0928,-126.9219C571.6755,-125.8164 580.3888,-124.694 588.7618,-123.6154"/>
<polygon fill="#191970" stroke="#191970" points="562.5764,-123.4595 553.1055,-128.2084 563.4707,-130.4021 562.5764,-123.4595"/>
</g>
</g>
</svg>
