<?xml version="1.0" encoding="UTF-8" standalone="no"?>
<!DOCTYPE svg PUBLIC "-//W3C//DTD SVG 1.1//EN"
 "http://www.w3.org/Graphics/SVG/1.1/DTD/svg11.dtd">
<!-- Generated by graphviz version 10.0.1 (20240210.2158)
 -->
<!-- Title: zrtos_mem__cpy Pages: 1 -->
<svg width="645pt" height="230pt"
 viewBox="0.00 0.00 644.50 230.00" xmlns="http://www.w3.org/2000/svg" xmlns:xlink="http://www.w3.org/1999/xlink">
<g id="graph0" class="graph" transform="scale(1 1) rotate(0) translate(4 226)">
<title>zrtos_mem__cpy</title>
<!-- Node1 -->
<g id="Node000001" class="node">
<title>Node1</title>
<g id="a_Node000001"><a xlink:title=" ">
<polygon fill="#999999" stroke="#666666" points="636.5,-79 545.5,-79 545.5,-59 636.5,-59 636.5,-79"/>
<text text-anchor="middle" x="591" y="-65.5" font-family="Helvetica,sans-Serif" font-size="10.00">zrtos_mem__cpy</text>
</a>
</g>
</g>
<!-- Node2 -->
<g id="Node000002" class="node">
<title>Node2</title>
<g id="a_Node000002"><a xlink:href="stack_8h.html#aa86feb2b5c314393a0624e3aefee9ed6" target="_top" xlink:title=" ">
<polygon fill="white" stroke="#666666" points="503.88,-165 405.38,-165 405.38,-145 503.88,-145 503.88,-165"/>
<text text-anchor="middle" x="454.62" y="-151.5" font-family="Helvetica,sans-Serif" font-size="10.00">_zrtos_stack__cpy</text>
</a>
</g>
</g>
<!-- Node1&#45;&gt;Node2 -->
<g id="edge1_Node000001_Node000002" class="edge">
<title>Node1&#45;&gt;Node2</title>
<g id="a_edge1_Node000001_Node000002"><a xlink:title=" ">
<path fill="none" stroke="#63b8ff" d="M564.15,-85.55C536.9,-102.98 494.82,-129.91 471.89,-144.59"/>
<polygon fill="#63b8ff" stroke="#63b8ff" points="565.98,-88.53 572.52,-80.19 562.21,-82.63 565.98,-88.53"/>
</a>
</g>
</g>
<!-- Node9 -->
<g id="Node000009" class="node">
<title>Node9</title>
<g id="a_Node000009"><a xlink:href="progmem_8h.html#a7185db18272b8514d094ac443ad989eb" target="_top" xlink:title=" ">
<polygon fill="white" stroke="#666666" points="509.5,-99 399.75,-99 399.75,-79 509.5,-79 509.5,-99"/>
<text text-anchor="middle" x="454.62" y="-85.5" font-family="Helvetica,sans-Serif" font-size="10.00">zrtos_progmem__cpy</text>
</a>
</g>
</g>
<!-- Node1&#45;&gt;Node9 -->
<g id="edge10_Node000001_Node000009" class="edge">
<title>Node1&#45;&gt;Node9</title>
<g id="a_edge10_Node000001_Node000009"><a xlink:title=" ">
<path fill="none" stroke="#63b8ff" d="M533.88,-77.35C525.97,-78.53 517.86,-79.74 509.98,-80.91"/>
<polygon fill="#63b8ff" stroke="#63b8ff" points="534.38,-80.82 543.76,-75.88 533.35,-73.89 534.38,-80.82"/>
</a>
</g>
</g>
<!-- Node11 -->
<g id="Node000011" class="node">
<title>Node11</title>
<g id="a_Node000011"><a xlink:href="stack_8h.html#ad2f30a04ec3ad6cbb92d5ea61eb939cf" target="_top" xlink:title=" ">
<polygon fill="white" stroke="#666666" points="501.25,-59 408,-59 408,-39 501.25,-39 501.25,-59"/>
<text text-anchor="middle" x="454.62" y="-45.5" font-family="Helvetica,sans-Serif" font-size="10.00">zrtos_stack__pop</text>
</a>
</g>
</g>
<!-- Node1&#45;&gt;Node11 -->
<g id="edge12_Node000001_Node000011" class="edge">
<title>Node1&#45;&gt;Node11</title>
<g id="a_edge12_Node000001_Node000011"><a xlink:title=" ">
<path fill="none" stroke="#63b8ff" d="M534.14,-60.69C523.29,-59.07 512.04,-57.4 501.55,-55.84"/>
<polygon fill="#63b8ff" stroke="#63b8ff" points="533.35,-64.11 543.76,-62.12 534.38,-57.18 533.35,-64.11"/>
</a>
</g>
</g>
<!-- Node12 -->
<g id="Node000012" class="node">
<title>Node12</title>
<g id="a_Node000012"><a xlink:href="stack_8h.html#afa31eba570f50c5a4abe165602963225" target="_top" xlink:title=" ">
<polygon fill="white" stroke="#666666" points="219.5,-20 124,-20 124,0 219.5,0 219.5,-20"/>
<text text-anchor="middle" x="171.75" y="-6.5" font-family="Helvetica,sans-Serif" font-size="10.00">zrtos_stack__shift</text>
</a>
</g>
</g>
<!-- Node1&#45;&gt;Node12 -->
<g id="edge14_Node000001_Node000012" class="edge">
<title>Node1&#45;&gt;Node12</title>
<g id="a_edge14_Node000001_Node000012"><a xlink:title=" ">
<path fill="none" stroke="#63b8ff" d="M563.73,-53.01C548.47,-44.58 528.55,-34.97 509.5,-30 408.91,-3.75 285.92,-4.29 219.95,-7.08"/>
<polygon fill="#63b8ff" stroke="#63b8ff" points="561.75,-55.91 572.16,-57.84 565.22,-49.84 561.75,-55.91"/>
</a>
</g>
</g>
<!-- Node3 -->
<g id="Node000003" class="node">
<title>Node3</title>
<g id="a_Node000003"><a xlink:href="stack_8h.html#ac3fd330de26a2b1020d117ecc4ddb8ce" target="_top" xlink:title=" ">
<polygon fill="white" stroke="#666666" points="221,-222 122.5,-222 122.5,-202 221,-202 221,-222"/>
<text text-anchor="middle" x="171.75" y="-208.5" font-family="Helvetica,sans-Serif" font-size="10.00">zrtos_stack__push</text>
</a>
</g>
</g>
<!-- Node2&#45;&gt;Node3 -->
<g id="edge2_Node000002_Node000003" class="edge">
<title>Node2&#45;&gt;Node3</title>
<g id="a_edge2_Node000002_Node000003"><a xlink:title=" ">
<path fill="none" stroke="#63b8ff" d="M423.92,-170.23C406.78,-178.34 384.55,-187.7 363.75,-193 316.28,-205.1 260.35,-209.57 221.33,-211.18"/>
<polygon fill="#63b8ff" stroke="#63b8ff" points="425.05,-173.57 432.52,-166.06 422,-167.28 425.05,-173.57"/>
</a>
</g>
</g>
<!-- Node5 -->
<g id="Node000005" class="node">
<title>Node5</title>
<g id="a_Node000005"><a xlink:href="stack_8h.html#ab6d341f61cf081171285ecc0013eb025" target="_top" xlink:title=" ">
<polygon fill="white" stroke="#666666" points="362.25,-184 266,-184 266,-164 362.25,-164 362.25,-184"/>
<text text-anchor="middle" x="314.12" y="-170.5" font-family="Helvetica,sans-Serif" font-size="10.00">zrtos_stack__read</text>
</a>
</g>
</g>
<!-- Node2&#45;&gt;Node5 -->
<g id="edge4_Node000002_Node000005" class="edge">
<title>Node2&#45;&gt;Node5</title>
<g id="a_edge4_Node000002_Node000005"><a xlink:title=" ">
<path fill="none" stroke="#63b8ff" d="M393.91,-163.19C383.36,-164.64 372.51,-166.13 362.37,-167.52"/>
<polygon fill="#63b8ff" stroke="#63b8ff" points="394.25,-166.68 403.68,-161.85 393.3,-159.74 394.25,-166.68"/>
</a>
</g>
</g>
<!-- Node7 -->
<g id="Node000007" class="node">
<title>Node7</title>
<g id="a_Node000007"><a xlink:href="stack_8h.html#aebaaa2b5cc93359116c7c7cee1f77bca" target="_top" xlink:title=" ">
<polygon fill="white" stroke="#666666" points="363,-146 265.25,-146 265.25,-126 363,-126 363,-146"/>
<text text-anchor="middle" x="314.12" y="-132.5" font-family="Helvetica,sans-Serif" font-size="10.00">zrtos_stack__write</text>
</a>
</g>
</g>
<!-- Node2&#45;&gt;Node7 -->
<g id="edge7_Node000002_Node000007" class="edge">
<title>Node2&#45;&gt;Node7</title>
<g id="a_edge7_Node000002_Node000007"><a xlink:title=" ">
<path fill="none" stroke="#63b8ff" d="M393.83,-146.8C383.63,-145.4 373.16,-143.96 363.3,-142.61"/>
<polygon fill="#63b8ff" stroke="#63b8ff" points="393.3,-150.26 403.68,-148.15 394.25,-143.32 393.3,-150.26"/>
</a>
</g>
</g>
<!-- Node4 -->
<g id="Node000004" class="node">
<title>Node4</title>
<g id="a_Node000004"><a xlink:href="vm_8h.html#a8d1a7bee17e7bc3e2f5b16385b8108d9" target="_top" xlink:title=" ">
<polygon fill="white" stroke="#666666" points="79,-146 0,-146 0,-126 79,-126 79,-146"/>
<text text-anchor="middle" x="39.5" y="-132.5" font-family="Helvetica,sans-Serif" font-size="10.00">zrtos_vm__run</text>
</a>
</g>
</g>
<!-- Node3&#45;&gt;Node4 -->
<g id="edge3_Node000003_Node000004" class="edge">
<title>Node3&#45;&gt;Node4</title>
<g id="a_edge3_Node000003_Node000004"><a xlink:title=" ">
<path fill="none" stroke="#63b8ff" d="M123.85,-197.28C120.81,-195.94 117.83,-194.51 115,-193 90.3,-179.8 65.16,-158.61 51.32,-146.12"/>
<polygon fill="#63b8ff" stroke="#63b8ff" points="122.35,-200.45 132.93,-200.94 124.96,-193.96 122.35,-200.45"/>
</a>
</g>
</g>
<!-- Node6 -->
<g id="Node000006" class="node">
<title>Node6</title>
<g id="a_Node000006"><a xlink:href="stack_8h.html#a671e22b7c2aaae864486a45d585ea6cd" target="_top" xlink:title=" ">
<polygon fill="white" stroke="#666666" points="227.75,-184 115.75,-184 115.75,-164 227.75,-164 227.75,-184"/>
<text text-anchor="middle" x="171.75" y="-170.5" font-family="Helvetica,sans-Serif" font-size="10.00">zrtos_stack__read_ex</text>
</a>
</g>
</g>
<!-- Node5&#45;&gt;Node6 -->
<g id="edge5_Node000005_Node000006" class="edge">
<title>Node5&#45;&gt;Node6</title>
<g id="a_edge5_Node000005_Node000006"><a xlink:title=" ">
<path fill="none" stroke="#63b8ff" d="M254.32,-174C245.59,-174 236.63,-174 227.98,-174"/>
<polygon fill="#63b8ff" stroke="#63b8ff" points="254.09,-177.5 264.09,-174 254.09,-170.5 254.09,-177.5"/>
</a>
</g>
</g>
<!-- Node6&#45;&gt;Node4 -->
<g id="edge6_Node000006_Node000004" class="edge">
<title>Node6&#45;&gt;Node4</title>
<g id="a_edge6_Node000006_Node000004"><a xlink:title=" ">
<path fill="none" stroke="#63b8ff" d="M124.21,-160.42C108.45,-155.82 91.11,-150.77 76.32,-146.45"/>
<polygon fill="#63b8ff" stroke="#63b8ff" points="122.78,-163.65 133.36,-163.09 124.74,-156.93 122.78,-163.65"/>
</a>
</g>
</g>
<!-- Node8 -->
<g id="Node000008" class="node">
<title>Node8</title>
<g id="a_Node000008"><a xlink:href="stack_8h.html#a34c188132dc24679ed10585279d791d9" target="_top" xlink:title=" ">
<polygon fill="white" stroke="#666666" points="228.5,-146 115,-146 115,-126 228.5,-126 228.5,-146"/>
<text text-anchor="middle" x="171.75" y="-132.5" font-family="Helvetica,sans-Serif" font-size="10.00">zrtos_stack__write_ex</text>
</a>
</g>
</g>
<!-- Node7&#45;&gt;Node8 -->
<g id="edge8_Node000007_Node000008" class="edge">
<title>Node7&#45;&gt;Node8</title>
<g id="a_edge8_Node000007_Node000008"><a xlink:title=" ">
<path fill="none" stroke="#63b8ff" d="M253.47,-136C245.31,-136 236.96,-136 228.88,-136"/>
<polygon fill="#63b8ff" stroke="#63b8ff" points="253.3,-139.5 263.3,-136 253.3,-132.5 253.3,-139.5"/>
</a>
</g>
</g>
<!-- Node8&#45;&gt;Node4 -->
<g id="edge9_Node000008_Node000004" class="edge">
<title>Node8&#45;&gt;Node4</title>
<g id="a_edge9_Node000008_Node000004"><a xlink:title=" ">
<path fill="none" stroke="#63b8ff" d="M103.44,-136C95.12,-136 86.85,-136 79.17,-136"/>
<polygon fill="#63b8ff" stroke="#63b8ff" points="103.24,-139.5 113.24,-136 103.24,-132.5 103.24,-139.5"/>
</a>
</g>
</g>
<!-- Node10 -->
<g id="Node000010" class="node">
<title>Node10</title>
<g id="a_Node000010"><a xlink:href="event__index_8h.html#a103b54fae27100dc5d48347a3110f51c" target="_top" xlink:title=" ">
<polygon fill="white" stroke="#666666" points="363.75,-108 264.5,-108 264.5,-76 363.75,-76 363.75,-108"/>
<text text-anchor="start" x="272.5" y="-94.5" font-family="Helvetica,sans-Serif" font-size="10.00">zrtos_event_index_</text>
<text text-anchor="middle" x="314.12" y="-82.5" font-family="Helvetica,sans-Serif" font-size="10.00">_invoke</text>
</a>
</g>
</g>
<!-- Node9&#45;&gt;Node10 -->
<g id="edge11_Node000009_Node000010" class="edge">
<title>Node9&#45;&gt;Node10</title>
<g id="a_edge11_Node000009_Node000010"><a xlink:title=" ">
<path fill="none" stroke="#63b8ff" d="M387.93,-90.42C379.84,-90.6 371.68,-90.77 363.9,-90.94"/>
<polygon fill="#63b8ff" stroke="#63b8ff" points="387.85,-93.93 397.77,-90.21 387.7,-86.93 387.85,-93.93"/>
</a>
</g>
</g>
<!-- Node11&#45;&gt;Node4 -->
<g id="edge13_Node000011_Node000004" class="edge">
<title>Node11&#45;&gt;Node4</title>
<g id="a_edge13_Node000011_Node000004"><a xlink:title=" ">
<path fill="none" stroke="#63b8ff" d="M396.48,-51.4C358.73,-53.73 308.32,-58.26 264.5,-67 192.07,-81.44 109.75,-110.09 67.97,-125.54"/>
<polygon fill="#63b8ff" stroke="#63b8ff" points="396.48,-54.91 406.26,-50.83 396.07,-47.92 396.48,-54.91"/>
</a>
</g>
</g>
<!-- Node12&#45;&gt;Node4 -->
<g id="edge15_Node000012_Node000004" class="edge">
<title>Node12&#45;&gt;Node4</title>
<g id="a_edge15_Node000012_Node000004"><a xlink:title=" ">
<path fill="none" stroke="#63b8ff" d="M128.14,-25.45C123.49,-27.97 119,-30.81 115,-34 81.74,-60.53 56.11,-105.42 45.64,-125.62"/>
<polygon fill="#63b8ff" stroke="#63b8ff" points="129.6,-28.63 137.08,-21.13 126.55,-22.33 129.6,-28.63"/>
</a>
</g>
</g>
</g>
</svg>
