<?xml version="1.0" encoding="UTF-8" standalone="no"?>
<!DOCTYPE svg PUBLIC "-//W3C//DTD SVG 1.1//EN"
 "http://www.w3.org/Graphics/SVG/1.1/DTD/svg11.dtd">
<!-- Generated by graphviz version 2.40.1 (20161225.0304)
 -->
<!-- Title: zrtos_mem__reverse Pages: 1 -->
<svg width="765pt" height="91pt"
 viewBox="0.00 0.00 765.00 90.50" xmlns="http://www.w3.org/2000/svg" xmlns:xlink="http://www.w3.org/1999/xlink">
<g id="graph0" class="graph" transform="scale(1 1) rotate(0) translate(4 86.5)">
<title>zrtos_mem__reverse</title>
<polygon fill="#ffffff" stroke="transparent" points="-4,4 -4,-86.5 761,-86.5 761,4 -4,4"/>
<!-- Node96 -->
<g id="node1" class="node">
<title>Node96</title>
<polygon fill="#bfbfbf" stroke="#000000" points="0,-44 0,-63 108,-63 108,-44 0,-44"/>
<text text-anchor="middle" x="54" y="-51" font-family="Helvetica,sans-Serif" font-size="10.00" fill="#000000">zrtos_mem__reverse</text>
</g>
<!-- Node97 -->
<g id="node2" class="node">
<title>Node97</title>
<g id="a_node2"><a xlink:href="str_8h.html#a1d32a5a8a6bb91bef6370f6f5b03513f" target="_top" xlink:title="zrtos_str__reverse">
<polygon fill="#ffffff" stroke="#000000" points="144,-63 144,-82 242,-82 242,-63 144,-63"/>
<text text-anchor="middle" x="193" y="-70" font-family="Helvetica,sans-Serif" font-size="10.00" fill="#000000">zrtos_str__reverse</text>
</a>
</g>
</g>
<!-- Node96&#45;&gt;Node97 -->
<g id="edge1" class="edge">
<title>Node96&#45;&gt;Node97</title>
<path fill="none" stroke="#191970" d="M118.1581,-62.2698C126.7631,-63.446 135.4779,-64.6373 143.7707,-65.7708"/>
<polygon fill="#191970" stroke="#191970" points="118.521,-58.7869 108.139,-60.9003 117.5729,-65.7225 118.521,-58.7869"/>
</g>
<!-- Node98 -->
<g id="node3" class="node">
<title>Node98</title>
<g id="a_node3"><a xlink:href="str_8h.html#a22de3a5c1c2b998ce126870cb6e8a131" target="_top" xlink:title="zrtos_str__ultoa">
<polygon fill="#ffffff" stroke="#000000" points="150,-25 150,-44 236,-44 236,-25 150,-25"/>
<text text-anchor="middle" x="193" y="-32" font-family="Helvetica,sans-Serif" font-size="10.00" fill="#000000">zrtos_str__ultoa</text>
</a>
</g>
</g>
<!-- Node96&#45;&gt;Node98 -->
<g id="edge2" class="edge">
<title>Node96&#45;&gt;Node98</title>
<path fill="none" stroke="#191970" d="M118.3367,-44.7058C129.0607,-43.2399 139.9496,-41.7515 149.9744,-40.3812"/>
<polygon fill="#191970" stroke="#191970" points="117.5729,-41.2775 108.139,-46.0997 118.521,-48.2131 117.5729,-41.2775"/>
</g>
<!-- Node99 -->
<g id="node4" class="node">
<title>Node99</title>
<g id="a_node4"><a xlink:href="str_8h.html#a35bdd5fa700ecb92cfab4c9b9dd97bbe" target="_top" xlink:title="zrtos_str__ltoa">
<polygon fill="#ffffff" stroke="#000000" points="278,-63 278,-82 359,-82 359,-63 278,-63"/>
<text text-anchor="middle" x="318.5" y="-70" font-family="Helvetica,sans-Serif" font-size="10.00" fill="#000000">zrtos_str__ltoa</text>
</a>
</g>
</g>
<!-- Node98&#45;&gt;Node99 -->
<g id="edge3" class="edge">
<title>Node98&#45;&gt;Node99</title>
<path fill="none" stroke="#191970" d="M234.3995,-47.0353C251.4723,-52.2048 270.9391,-58.0991 286.8412,-62.9141"/>
<polygon fill="#191970" stroke="#191970" points="235.2541,-43.6372 224.6689,-44.089 233.2255,-50.3368 235.2541,-43.6372"/>
</g>
<!-- Node100 -->
<g id="node5" class="node">
<title>Node100</title>
<g id="a_node5"><a xlink:href="str_8h.html#af6faa5ca7f622554d2e5b9201e95292a" target="_top" xlink:title="zrtos_str__dtoa">
<polygon fill="#ffffff" stroke="#000000" points="395,-25 395,-44 479,-44 479,-25 395,-25"/>
<text text-anchor="middle" x="437" y="-32" font-family="Helvetica,sans-Serif" font-size="10.00" fill="#000000">zrtos_str__dtoa</text>
</a>
</g>
</g>
<!-- Node98&#45;&gt;Node100 -->
<g id="edge7" class="edge">
<title>Node98&#45;&gt;Node100</title>
<path fill="none" stroke="#191970" d="M246.1295,-34.5C290.7198,-34.5 353.5643,-34.5 394.7781,-34.5"/>
<polygon fill="#191970" stroke="#191970" points="246.0607,-31.0001 236.0606,-34.5 246.0606,-38.0001 246.0607,-31.0001"/>
</g>
<!-- Node101 -->
<g id="node6" class="node">
<title>Node101</title>
<g id="a_node6"><a xlink:href="str_8h.html#a253e58778bc61b2ca7b51d761ea914b4" target="_top" xlink:title="zrtos_str__vsnprintf\l_internal">
<polygon fill="#ffffff" stroke="#000000" points="515,-.5 515,-30.5 618,-30.5 618,-.5 515,-.5"/>
<text text-anchor="start" x="523" y="-18.5" font-family="Helvetica,sans-Serif" font-size="10.00" fill="#000000">zrtos_str__vsnprintf</text>
<text text-anchor="middle" x="566.5" y="-7.5" font-family="Helvetica,sans-Serif" font-size="10.00" fill="#000000">_internal</text>
</a>
</g>
</g>
<!-- Node98&#45;&gt;Node101 -->
<g id="edge8" class="edge">
<title>Node98&#45;&gt;Node101</title>
<path fill="none" stroke="#191970" d="M246.2261,-28.1195C286.9021,-23.5773 344.3988,-17.8745 395,-15.5 435.1511,-13.6159 480.648,-13.7189 514.6869,-14.2372"/>
<polygon fill="#191970" stroke="#191970" points="245.8048,-24.6447 236.2616,-29.2466 246.5917,-31.6004 245.8048,-24.6447"/>
</g>
<!-- Node99&#45;&gt;Node100 -->
<g id="edge4" class="edge">
<title>Node99&#45;&gt;Node100</title>
<path fill="none" stroke="#191970" d="M358.0429,-59.8196C374.0542,-54.6852 392.2322,-48.8559 407.107,-44.0859"/>
<polygon fill="#191970" stroke="#191970" points="356.8562,-56.5245 348.4026,-62.911 358.9937,-63.1902 356.8562,-56.5245"/>
</g>
<!-- Node100&#45;&gt;Node101 -->
<g id="edge5" class="edge">
<title>Node100&#45;&gt;Node101</title>
<path fill="none" stroke="#191970" d="M489.1357,-26.8507C497.5621,-25.6144 506.2849,-24.3347 514.7031,-23.0995"/>
<polygon fill="#191970" stroke="#191970" points="488.4309,-23.4166 479.0449,-28.3312 489.4471,-30.3424 488.4309,-23.4166"/>
</g>
<!-- Node102 -->
<g id="node7" class="node">
<title>Node102</title>
<g id="a_node7"><a xlink:href="str_8h.html#af64b95fd53da061e4bde68dddbe02232" target="_top" xlink:title="zrtos_str__vsnprintf">
<polygon fill="#ffffff" stroke="#000000" points="654,-6 654,-25 757,-25 757,-6 654,-6"/>
<text text-anchor="middle" x="705.5" y="-13" font-family="Helvetica,sans-Serif" font-size="10.00" fill="#000000">zrtos_str__vsnprintf</text>
</a>
</g>
</g>
<!-- Node101&#45;&gt;Node102 -->
<g id="edge6" class="edge">
<title>Node101&#45;&gt;Node102</title>
<path fill="none" stroke="#191970" d="M628.4413,-15.5C636.8784,-15.5 645.4658,-15.5 653.6983,-15.5"/>
<polygon fill="#191970" stroke="#191970" points="628.2585,-12.0001 618.2585,-15.5 628.2584,-19.0001 628.2585,-12.0001"/>
</g>
</g>
</svg>
