<?xml version="1.0" encoding="UTF-8" standalone="no"?>
<!DOCTYPE svg PUBLIC "-//W3C//DTD SVG 1.1//EN"
 "http://www.w3.org/Graphics/SVG/1.1/DTD/svg11.dtd">
<!-- Generated by graphviz version 10.0.1 (20240210.2158)
 -->
<!-- Title: zrtos_mem__zero Pages: 1 -->
<svg width="691pt" height="154pt"
 viewBox="0.00 0.00 691.00 154.00" xmlns="http://www.w3.org/2000/svg" xmlns:xlink="http://www.w3.org/1999/xlink">
<g id="graph0" class="graph" transform="scale(1 1) rotate(0) translate(4 150)">
<title>zrtos_mem__zero</title>
<!-- Node1 -->
<g id="Node000001" class="node">
<title>Node1</title>
<g id="a_Node000001"><a xlink:title=" ">
<polygon fill="#999999" stroke="#666666" points="683,-86 589,-86 589,-66 683,-66 683,-86"/>
<text text-anchor="middle" x="636" y="-72.5" font-family="Helvetica,sans-Serif" font-size="10.00">zrtos_mem__zero</text>
</a>
</g>
</g>
<!-- Node2 -->
<g id="Node000002" class="node">
<title>Node2</title>
<g id="a_Node000002"><a xlink:href="bitfield_8h.html#a41e25f1f59cb57785b18503403258629" target="_top" xlink:title=" ">
<polygon fill="white" stroke="#666666" points="545.5,-146 445.5,-146 445.5,-126 545.5,-126 545.5,-146"/>
<text text-anchor="middle" x="495.5" y="-132.5" font-family="Helvetica,sans-Serif" font-size="10.00">zrtos_bitfield__zero</text>
</a>
</g>
</g>
<!-- Node1&#45;&gt;Node2 -->
<g id="edge1_Node000001_Node000002" class="edge">
<title>Node1&#45;&gt;Node2</title>
<g id="a_edge1_Node000001_Node000002"><a xlink:title=" ">
<path fill="none" stroke="#63b8ff" d="M601.15,-90.97C586.38,-97.47 568.85,-105.15 553,-112 542.63,-116.48 531.16,-121.36 521.28,-125.55"/>
<polygon fill="#63b8ff" stroke="#63b8ff" points="602.23,-94.32 609.96,-87.08 599.4,-87.92 602.23,-94.32"/>
</a>
</g>
</g>
<!-- Node5 -->
<g id="Node000005" class="node">
<title>Node5</title>
<g id="a_Node000005"><a xlink:href="vfs__notify_8h.html#a390aa07da245cc02fe5949e98e6f48e5" target="_top" xlink:title=" ">
<polygon fill="white" stroke="#666666" points="106,-127 0,-127 0,-107 106,-107 106,-127"/>
<text text-anchor="middle" x="53" y="-113.5" font-family="Helvetica,sans-Serif" font-size="10.00">zrtos_vfs_notify__init</text>
</a>
</g>
</g>
<!-- Node1&#45;&gt;Node5 -->
<g id="edge6_Node000001_Node000005" class="edge">
<title>Node1&#45;&gt;Node5</title>
<g id="a_edge6_Node000001_Node000005"><a xlink:title=" ">
<path fill="none" stroke="#63b8ff" d="M577.45,-80.06C464.4,-88.04 214.94,-105.64 106.29,-113.31"/>
<polygon fill="#63b8ff" stroke="#63b8ff" points="577.69,-83.55 587.41,-79.36 577.19,-76.57 577.69,-83.55"/>
</a>
</g>
</g>
<!-- Node6 -->
<g id="Node000006" class="node">
<title>Node6</title>
<g id="a_Node000006"><a xlink:href="zero_8h.html#ab183cd24a395f3b2f709618d3c6ca8d9" target="_top" xlink:title=" ">
<polygon fill="white" stroke="#666666" points="553,-70 438,-70 438,-38 553,-38 553,-70"/>
<text text-anchor="start" x="446" y="-56.5" font-family="Helvetica,sans-Serif" font-size="10.00">zrtos_vfs_module_zero</text>
<text text-anchor="middle" x="495.5" y="-44.5" font-family="Helvetica,sans-Serif" font-size="10.00">__on_read</text>
</a>
</g>
</g>
<!-- Node1&#45;&gt;Node6 -->
<g id="edge5_Node000001_Node000006" class="edge">
<title>Node1&#45;&gt;Node6</title>
<g id="a_edge5_Node000001_Node000006"><a xlink:title=" ">
<path fill="none" stroke="#63b8ff" d="M577.59,-66.88C569.47,-65.59 561.12,-64.27 553.02,-62.98"/>
<polygon fill="#63b8ff" stroke="#63b8ff" points="576.96,-70.32 587.39,-68.44 578.06,-63.41 576.96,-70.32"/>
</a>
</g>
</g>
<!-- Node7 -->
<g id="Node000007" class="node">
<title>Node7</title>
<g id="a_Node000007"><a xlink:href="vm_8h.html#a8d1a7bee17e7bc3e2f5b16385b8108d9" target="_top" xlink:title=" ">
<polygon fill="white" stroke="#666666" points="535,-20 456,-20 456,0 535,0 535,-20"/>
<text text-anchor="middle" x="495.5" y="-6.5" font-family="Helvetica,sans-Serif" font-size="10.00">zrtos_vm__run</text>
</a>
</g>
</g>
<!-- Node1&#45;&gt;Node7 -->
<g id="edge7_Node000001_Node000007" class="edge">
<title>Node1&#45;&gt;Node7</title>
<g id="a_edge7_Node000001_Node000007"><a xlink:title=" ">
<path fill="none" stroke="#63b8ff" d="M609.56,-59.68C593.7,-49.96 572.64,-37.83 553,-29 546.11,-25.9 538.55,-23.03 531.27,-20.5"/>
<polygon fill="#63b8ff" stroke="#63b8ff" points="607.53,-62.55 617.87,-64.87 611.24,-56.61 607.53,-62.55"/>
</a>
</g>
</g>
<!-- Node3 -->
<g id="Node000003" class="node">
<title>Node3</title>
<g id="a_Node000003"><a xlink:href="vfs__fd_8h.html#a7621285229575f9be4267258e7f0b26d" target="_top" xlink:title=" ">
<polygon fill="white" stroke="#666666" points="402,-146 287,-146 287,-126 402,-126 402,-146"/>
<text text-anchor="middle" x="344.5" y="-132.5" font-family="Helvetica,sans-Serif" font-size="10.00">zrtos_vfs_fd_set__zero</text>
</a>
</g>
</g>
<!-- Node2&#45;&gt;Node3 -->
<g id="edge2_Node000002_Node000003" class="edge">
<title>Node2&#45;&gt;Node3</title>
<g id="a_edge2_Node000002_Node000003"><a xlink:title=" ">
<path fill="none" stroke="#63b8ff" d="M433.79,-136C423.41,-136 412.67,-136 402.4,-136"/>
<polygon fill="#63b8ff" stroke="#63b8ff" points="433.79,-139.5 443.79,-136 433.79,-132.5 433.79,-139.5"/>
</a>
</g>
</g>
<!-- Node4 -->
<g id="Node000004" class="node">
<title>Node4</title>
<g id="a_Node000004"><a xlink:href="vfs__fd_8h.html#a8747abe85b66255bf04adc7610b87374" target="_top" xlink:title=" ">
<polygon fill="white" stroke="#666666" points="251,-146 142,-146 142,-126 251,-126 251,-146"/>
<text text-anchor="middle" x="196.5" y="-132.5" font-family="Helvetica,sans-Serif" font-size="10.00">zrtos_vfs_fd_set__init</text>
</a>
</g>
</g>
<!-- Node3&#45;&gt;Node4 -->
<g id="edge3_Node000003_Node000004" class="edge">
<title>Node3&#45;&gt;Node4</title>
<g id="a_edge3_Node000003_Node000004"><a xlink:title=" ">
<path fill="none" stroke="#63b8ff" d="M275.26,-136C267.16,-136 258.97,-136 251.1,-136"/>
<polygon fill="#63b8ff" stroke="#63b8ff" points="275.12,-139.5 285.12,-136 275.12,-132.5 275.12,-139.5"/>
</a>
</g>
</g>
<!-- Node4&#45;&gt;Node5 -->
<g id="edge4_Node000004_Node000005" class="edge">
<title>Node4&#45;&gt;Node5</title>
<g id="a_edge4_Node000004_Node000005"><a xlink:title=" ">
<path fill="none" stroke="#63b8ff" d="M130.34,-127.25C122.3,-126.17 114.16,-125.08 106.35,-124.03"/>
<polygon fill="#63b8ff" stroke="#63b8ff" points="129.72,-130.7 140.1,-128.56 130.66,-123.76 129.72,-130.7"/>
</a>
</g>
</g>
</g>
</svg>
