<?xml version="1.0" encoding="UTF-8" standalone="no"?>
<!DOCTYPE svg PUBLIC "-//W3C//DTD SVG 1.1//EN"
 "http://www.w3.org/Graphics/SVG/1.1/DTD/svg11.dtd">
<!-- Generated by graphviz version 2.40.1 (20161225.0304)
 -->
<!-- Title: zrtos_mem__search Pages: 1 -->
<svg width="512pt" height="39pt"
 viewBox="0.00 0.00 512.00 39.00" xmlns="http://www.w3.org/2000/svg" xmlns:xlink="http://www.w3.org/1999/xlink">
<g id="graph0" class="graph" transform="scale(1 1) rotate(0) translate(4 35)">
<title>zrtos_mem__search</title>
<polygon fill="#ffffff" stroke="transparent" points="-4,4 -4,-35 508,-35 508,4 -4,4"/>
<!-- Node104 -->
<g id="node1" class="node">
<title>Node104</title>
<polygon fill="#bfbfbf" stroke="#000000" points="0,-6 0,-25 105,-25 105,-6 0,-6"/>
<text text-anchor="middle" x="52.5" y="-13" font-family="Helvetica,sans-Serif" font-size="10.00" fill="#000000">zrtos_mem__search</text>
</g>
<!-- Node105 -->
<g id="node2" class="node">
<title>Node105</title>
<g id="a_node2"><a xlink:href="vm__function__index_8h.html#a7eb54c1041506caa79756f78e34cc246" target="_top" xlink:title="zrtos_vm_function_index\l__get_function">
<polygon fill="#ffffff" stroke="#000000" points="141,-.5 141,-30.5 266,-30.5 266,-.5 141,-.5"/>
<text text-anchor="start" x="149" y="-18.5" font-family="Helvetica,sans-Serif" font-size="10.00" fill="#000000">zrtos_vm_function_index</text>
<text text-anchor="middle" x="203.5" y="-7.5" font-family="Helvetica,sans-Serif" font-size="10.00" fill="#000000">__get_function</text>
</a>
</g>
</g>
<!-- Node104&#45;&gt;Node105 -->
<g id="edge1" class="edge">
<title>Node104&#45;&gt;Node105</title>
<path fill="none" stroke="#191970" d="M115.4333,-15.5C123.8414,-15.5 132.4634,-15.5 140.8663,-15.5"/>
<polygon fill="#191970" stroke="#191970" points="115.3125,-12.0001 105.3125,-15.5 115.3124,-19.0001 115.3125,-12.0001"/>
</g>
<!-- Node106 -->
<g id="node3" class="node">
<title>Node106</title>
<g id="a_node3"><a xlink:href="vm_8h.html#ae6f17a5b030842c91a0d877775ac9a44" target="_top" xlink:title="zrtos_vm__icall">
<polygon fill="#ffffff" stroke="#000000" points="302,-6 302,-25 387,-25 387,-6 302,-6"/>
<text text-anchor="middle" x="344.5" y="-13" font-family="Helvetica,sans-Serif" font-size="10.00" fill="#000000">zrtos_vm__icall</text>
</a>
</g>
</g>
<!-- Node105&#45;&gt;Node106 -->
<g id="edge2" class="edge">
<title>Node105&#45;&gt;Node106</title>
<path fill="none" stroke="#191970" d="M276.3848,-15.5C285.0981,-15.5 293.7628,-15.5 301.8456,-15.5"/>
<polygon fill="#191970" stroke="#191970" points="276.1658,-12.0001 266.1658,-15.5 276.1657,-19.0001 276.1658,-12.0001"/>
</g>
<!-- Node107 -->
<g id="node4" class="node">
<title>Node107</title>
<g id="a_node4"><a xlink:href="vm_8h.html#a8d1a7bee17e7bc3e2f5b16385b8108d9" target="_top" xlink:title="zrtos_vm__run">
<polygon fill="#ffffff" stroke="#000000" points="423,-6 423,-25 504,-25 504,-6 423,-6"/>
<text text-anchor="middle" x="463.5" y="-13" font-family="Helvetica,sans-Serif" font-size="10.00" fill="#000000">zrtos_vm__run</text>
</a>
</g>
</g>
<!-- Node106&#45;&gt;Node107 -->
<g id="edge3" class="edge">
<title>Node106&#45;&gt;Node107</title>
<path fill="none" stroke="#191970" d="M397.375,-15.5C405.8912,-15.5 414.5908,-15.5 422.7641,-15.5"/>
<polygon fill="#191970" stroke="#191970" points="397.1256,-12.0001 387.1256,-15.5 397.1256,-19.0001 397.1256,-12.0001"/>
</g>
</g>
</svg>
