<?xml version="1.0" encoding="UTF-8" standalone="no"?>
<!DOCTYPE svg PUBLIC "-//W3C//DTD SVG 1.1//EN"
 "http://www.w3.org/Graphics/SVG/1.1/DTD/svg11.dtd">
<!-- Generated by graphviz version 2.40.1 (20161225.0304)
 -->
<!-- Title: zrtos_msg_queue__get Pages: 1 -->
<svg width="1205pt" height="254pt"
 viewBox="0.00 0.00 1205.00 253.50" xmlns="http://www.w3.org/2000/svg" xmlns:xlink="http://www.w3.org/1999/xlink">
<g id="graph0" class="graph" transform="scale(1 1) rotate(0) translate(4 249.5)">
<title>zrtos_msg_queue__get</title>
<polygon fill="#ffffff" stroke="transparent" points="-4,4 -4,-249.5 1201,-249.5 1201,4 -4,4"/>
<!-- Node0 -->
<g id="node1" class="node">
<title>Node0</title>
<polygon fill="#bfbfbf" stroke="#000000" points="0,-53 0,-72 118,-72 118,-53 0,-53"/>
<text text-anchor="middle" x="59" y="-60" font-family="Helvetica,sans-Serif" font-size="10.00" fill="#000000">zrtos_msg_queue__get</text>
</g>
<!-- Node1 -->
<g id="node2" class="node">
<title>Node1</title>
<g id="a_node2"><a xlink:href="cbuffer_8h.html#af79ee923f715f4f8d2ea27b725501174" target="_top" xlink:title="zrtos_cbuffer__get_ex">
<polygon fill="#ffffff" stroke="#000000" points="159,-98 159,-117 272,-117 272,-98 159,-98"/>
<text text-anchor="middle" x="215.5" y="-105" font-family="Helvetica,sans-Serif" font-size="10.00" fill="#000000">zrtos_cbuffer__get_ex</text>
</a>
</g>
</g>
<!-- Node0&#45;&gt;Node1 -->
<g id="edge1" class="edge">
<title>Node0&#45;&gt;Node1</title>
<path fill="none" stroke="#191970" d="M92.1896,-72.0433C115.6359,-78.7851 147.2696,-87.881 172.6262,-95.1721"/>
<polygon fill="#191970" stroke="#191970" points="171.7804,-98.5706 182.3582,-97.9704 173.7148,-91.8432 171.7804,-98.5706"/>
</g>
<!-- Node13 -->
<g id="node14" class="node">
<title>Node13</title>
<g id="a_node14"><a xlink:href="cbuffer_8h.html#adb4435557fc1a9d76b315fc1e205f611" target="_top" xlink:title="zrtos_cbuffer__can\l_read_length">
<polygon fill="#ffffff" stroke="#000000" points="469,-46.5 469,-76.5 569,-76.5 569,-46.5 469,-46.5"/>
<text text-anchor="start" x="477" y="-64.5" font-family="Helvetica,sans-Serif" font-size="10.00" fill="#000000">zrtos_cbuffer__can</text>
<text text-anchor="middle" x="519" y="-53.5" font-family="Helvetica,sans-Serif" font-size="10.00" fill="#000000">_read_length</text>
</a>
</g>
</g>
<!-- Node0&#45;&gt;Node13 -->
<g id="edge15" class="edge">
<title>Node0&#45;&gt;Node13</title>
<path fill="none" stroke="#191970" d="M118.1952,-62.3713C206.0748,-62.1803 370.1695,-61.8235 458.6891,-61.6311"/>
<polygon fill="#191970" stroke="#191970" points="458.8464,-65.1309 468.8388,-61.609 458.8311,-58.1309 458.8464,-65.1309"/>
</g>
<!-- Node17 -->
<g id="node18" class="node">
<title>Node17</title>
<g id="a_node18"><a xlink:href="error_8h.html#add13298163f63b7d37ed9f12d57e1a31" target="_top" xlink:title="zrtos_error__is_success">
<polygon fill="#ffffff" stroke="#000000" points="154,-15 154,-34 277,-34 277,-15 154,-15"/>
<text text-anchor="middle" x="215.5" y="-22" font-family="Helvetica,sans-Serif" font-size="10.00" fill="#000000">zrtos_error__is_success</text>
</a>
</g>
</g>
<!-- Node0&#45;&gt;Node17 -->
<g id="edge21" class="edge">
<title>Node0&#45;&gt;Node17</title>
<path fill="none" stroke="#191970" d="M98.4916,-52.911C119.1434,-47.8965 144.614,-41.7119 166.5125,-36.3947"/>
<polygon fill="#191970" stroke="#191970" points="167.4007,-39.7809 176.2924,-34.0201 165.7489,-32.9785 167.4007,-39.7809"/>
</g>
<!-- Node2 -->
<g id="node3" class="node">
<title>Node2</title>
<g id="a_node3"><a xlink:href="cbuffer_8h.html#a1a9cc4256c634d99003e2397924df20a" target="_top" xlink:title="zrtos_cbuffer__get">
<polygon fill="#ffffff" stroke="#000000" points="318,-143 318,-162 416,-162 416,-143 318,-143"/>
<text text-anchor="middle" x="367" y="-150" font-family="Helvetica,sans-Serif" font-size="10.00" fill="#000000">zrtos_cbuffer__get</text>
</a>
</g>
</g>
<!-- Node1&#45;&gt;Node2 -->
<g id="edge2" class="edge">
<title>Node1&#45;&gt;Node2</title>
<path fill="none" stroke="#191970" d="M247.6293,-117.0433C270.226,-123.7552 300.6787,-132.8006 325.1697,-140.0752"/>
<polygon fill="#191970" stroke="#191970" points="324.3344,-143.4781 334.9171,-142.9704 326.3276,-136.7679 324.3344,-143.4781"/>
</g>
<!-- Node12 -->
<g id="node13" class="node">
<title>Node12</title>
<g id="a_node13"><a xlink:href="types_8h.html#adbc4238237e656eb247fd49ffbfb1a6d" target="_top" xlink:title="zrtos_types__ptr_get\l_byte_distance">
<polygon fill="#ffffff" stroke="#000000" points="313,-92.5 313,-122.5 421,-122.5 421,-92.5 313,-92.5"/>
<text text-anchor="start" x="321" y="-110.5" font-family="Helvetica,sans-Serif" font-size="10.00" fill="#000000">zrtos_types__ptr_get</text>
<text text-anchor="middle" x="367" y="-99.5" font-family="Helvetica,sans-Serif" font-size="10.00" fill="#000000">_byte_distance</text>
</a>
</g>
</g>
<!-- Node1&#45;&gt;Node12 -->
<g id="edge14" class="edge">
<title>Node1&#45;&gt;Node12</title>
<path fill="none" stroke="#191970" d="M272.344,-107.5C282.2936,-107.5 292.708,-107.5 302.8392,-107.5"/>
<polygon fill="#191970" stroke="#191970" points="302.8482,-111.0001 312.8482,-107.5 302.8481,-104.0001 302.8482,-111.0001"/>
</g>
<!-- Node3 -->
<g id="node4" class="node">
<title>Node3</title>
<g id="a_node4"><a xlink:href="list_8h.html#a5a9358f4b25c9376dbdef338fa8333a6" target="_top" xlink:title="zrtos_list__get_first_node">
<polygon fill="#ffffff" stroke="#000000" points="1069,-169 1069,-188 1197,-188 1197,-169 1069,-169"/>
<text text-anchor="middle" x="1133" y="-176" font-family="Helvetica,sans-Serif" font-size="10.00" fill="#000000">zrtos_list__get_first_node</text>
</a>
</g>
</g>
<!-- Node2&#45;&gt;Node3 -->
<g id="edge3" class="edge">
<title>Node2&#45;&gt;Node3</title>
<path fill="none" stroke="#191970" d="M384.9483,-162.1024C431.0905,-185.8637 558.1858,-245.5 671.5,-245.5 671.5,-245.5 671.5,-245.5 815.5,-245.5 919.3465,-245.5 1038.2616,-210.7612 1096.7013,-191.3118"/>
<polygon fill="#191970" stroke="#191970" points="1097.8657,-194.6128 1106.2219,-188.0995 1095.6277,-187.9802 1097.8657,-194.6128"/>
</g>
<!-- Node4 -->
<g id="node5" class="node">
<title>Node4</title>
<g id="a_node5"><a xlink:href="cbuffer_8h.html#ad0932ffc31c7150402dc49c28cbf2000" target="_top" xlink:title="zrtos_cbuffer_node__get">
<polygon fill="#ffffff" stroke="#000000" points="457,-143 457,-162 581,-162 581,-143 457,-143"/>
<text text-anchor="middle" x="519" y="-150" font-family="Helvetica,sans-Serif" font-size="10.00" fill="#000000">zrtos_cbuffer_node__get</text>
</a>
</g>
</g>
<!-- Node2&#45;&gt;Node4 -->
<g id="edge4" class="edge">
<title>Node2&#45;&gt;Node4</title>
<path fill="none" stroke="#191970" d="M416.35,-152.5C426.0372,-152.5 436.3857,-152.5 446.6454,-152.5"/>
<polygon fill="#191970" stroke="#191970" points="446.8478,-156.0001 456.8478,-152.5 446.8477,-149.0001 446.8478,-156.0001"/>
</g>
<!-- Node5 -->
<g id="node6" class="node">
<title>Node5</title>
<g id="a_node6"><a xlink:href="cbuffer_8h.html#aa70b33844c0b38a531615564dc35840e" target="_top" xlink:title="zrtos_cbuffer_node\l__is_empty">
<polygon fill="#ffffff" stroke="#000000" points="621.5,-88.5 621.5,-118.5 721.5,-118.5 721.5,-88.5 621.5,-88.5"/>
<text text-anchor="start" x="629.5" y="-106.5" font-family="Helvetica,sans-Serif" font-size="10.00" fill="#000000">zrtos_cbuffer_node</text>
<text text-anchor="middle" x="671.5" y="-95.5" font-family="Helvetica,sans-Serif" font-size="10.00" fill="#000000">__is_empty</text>
</a>
</g>
</g>
<!-- Node4&#45;&gt;Node5 -->
<g id="edge5" class="edge">
<title>Node4&#45;&gt;Node5</title>
<path fill="none" stroke="#191970" d="M548.7656,-142.936C567.5667,-136.895 592.4651,-128.8948 614.9205,-121.6796"/>
<polygon fill="#191970" stroke="#191970" points="616.2514,-124.9283 624.7013,-118.537 614.11,-118.2639 616.2514,-124.9283"/>
</g>
<!-- Node6 -->
<g id="node7" class="node">
<title>Node6</title>
<g id="a_node7"><a xlink:href="list_8h.html#a7262d2a0c144ef76b0f45193cebb8227" target="_top" xlink:title="zrtos_list_node__has\l_next_node">
<polygon fill="#ffffff" stroke="#000000" points="617,-186.5 617,-216.5 726,-216.5 726,-186.5 617,-186.5"/>
<text text-anchor="start" x="625" y="-204.5" font-family="Helvetica,sans-Serif" font-size="10.00" fill="#000000">zrtos_list_node__has</text>
<text text-anchor="middle" x="671.5" y="-193.5" font-family="Helvetica,sans-Serif" font-size="10.00" fill="#000000">_next_node</text>
</a>
</g>
</g>
<!-- Node4&#45;&gt;Node6 -->
<g id="edge6" class="edge">
<title>Node4&#45;&gt;Node6</title>
<path fill="none" stroke="#191970" d="M548.7656,-162.064C567.5667,-168.105 592.4651,-176.1052 614.9205,-183.3204"/>
<polygon fill="#191970" stroke="#191970" points="614.11,-186.7361 624.7013,-186.463 616.2514,-180.0717 614.11,-186.7361"/>
</g>
<!-- Node7 -->
<g id="node8" class="node">
<title>Node7</title>
<g id="a_node8"><a xlink:href="cbuffer_8h.html#afc85ab6d8226b4a1b93d11c2ba1203f6" target="_top" xlink:title="zrtos_cbuffer_node\l__free">
<polygon fill="#ffffff" stroke="#000000" points="621.5,-137.5 621.5,-167.5 721.5,-167.5 721.5,-137.5 621.5,-137.5"/>
<text text-anchor="start" x="629.5" y="-155.5" font-family="Helvetica,sans-Serif" font-size="10.00" fill="#000000">zrtos_cbuffer_node</text>
<text text-anchor="middle" x="671.5" y="-144.5" font-family="Helvetica,sans-Serif" font-size="10.00" fill="#000000">__free</text>
</a>
</g>
</g>
<!-- Node4&#45;&gt;Node7 -->
<g id="edge7" class="edge">
<title>Node4&#45;&gt;Node7</title>
<path fill="none" stroke="#191970" d="M581.0276,-152.5C590.9423,-152.5 601.1897,-152.5 611.0667,-152.5"/>
<polygon fill="#191970" stroke="#191970" points="611.1961,-156.0001 621.196,-152.5 611.196,-149.0001 611.1961,-156.0001"/>
</g>
<!-- Node8 -->
<g id="node9" class="node">
<title>Node8</title>
<g id="a_node9"><a xlink:href="list_8h.html#a2b11d9c6f775a209430f16b719a19617" target="_top" xlink:title="zrtos_list__delete">
<polygon fill="#ffffff" stroke="#000000" points="769,-153 769,-172 862,-172 862,-153 769,-153"/>
<text text-anchor="middle" x="815.5" y="-160" font-family="Helvetica,sans-Serif" font-size="10.00" fill="#000000">zrtos_list__delete</text>
</a>
</g>
</g>
<!-- Node7&#45;&gt;Node8 -->
<g id="edge8" class="edge">
<title>Node7&#45;&gt;Node8</title>
<path fill="none" stroke="#191970" d="M721.8642,-155.9975C733.7764,-156.8248 746.5597,-157.7125 758.734,-158.5579"/>
<polygon fill="#191970" stroke="#191970" points="758.5661,-162.0546 768.7846,-159.2559 759.0512,-155.0714 758.5661,-162.0546"/>
</g>
<!-- Node10 -->
<g id="node11" class="node">
<title>Node10</title>
<g id="a_node11"><a xlink:href="malloc__limit_8h.html#ad9dc03f9dd447b3ffb64b0ec3873f61f" target="_top" xlink:title="zrtos_malloc_limit\l__free">
<polygon fill="#ffffff" stroke="#000000" points="768,-103.5 768,-133.5 863,-133.5 863,-103.5 768,-103.5"/>
<text text-anchor="start" x="776" y="-121.5" font-family="Helvetica,sans-Serif" font-size="10.00" fill="#000000">zrtos_malloc_limit</text>
<text text-anchor="middle" x="815.5" y="-110.5" font-family="Helvetica,sans-Serif" font-size="10.00" fill="#000000">__free</text>
</a>
</g>
</g>
<!-- Node7&#45;&gt;Node10 -->
<g id="edge12" class="edge">
<title>Node7&#45;&gt;Node10</title>
<path fill="none" stroke="#191970" d="M721.8642,-140.6084C733.523,-137.8557 746.0161,-134.9059 757.9561,-132.0868"/>
<polygon fill="#191970" stroke="#191970" points="758.897,-135.4609 767.8251,-129.7566 757.2884,-128.6482 758.897,-135.4609"/>
</g>
<!-- Node8&#45;&gt;Node3 -->
<g id="edge9" class="edge">
<title>Node8&#45;&gt;Node3</title>
<path fill="none" stroke="#191970" d="M859.9054,-172.0379C874.2278,-174.6839 890.2205,-177.1893 905,-178.5 956.211,-183.0415 1014.1469,-182.9747 1058.8017,-181.8067"/>
<polygon fill="#191970" stroke="#191970" points="1059.0899,-185.3 1068.9857,-181.5153 1058.8896,-178.3028 1059.0899,-185.3"/>
</g>
<!-- Node9 -->
<g id="node10" class="node">
<title>Node9</title>
<g id="a_node10"><a xlink:href="list_8h.html#aee76d71632ab03e18ad9358fc8b35044" target="_top" xlink:title="zrtos_list__shift">
<polygon fill="#ffffff" stroke="#000000" points="926,-150 926,-169 1012,-169 1012,-150 926,-150"/>
<text text-anchor="middle" x="969" y="-157" font-family="Helvetica,sans-Serif" font-size="10.00" fill="#000000">zrtos_list__shift</text>
</a>
</g>
</g>
<!-- Node8&#45;&gt;Node9 -->
<g id="edge10" class="edge">
<title>Node8&#45;&gt;Node9</title>
<path fill="none" stroke="#191970" d="M862.3891,-161.5836C879.1092,-161.2568 898.0693,-160.8863 915.3161,-160.5492"/>
<polygon fill="#191970" stroke="#191970" points="915.8684,-164.0392 925.798,-160.3443 915.7315,-157.0405 915.8684,-164.0392"/>
</g>
<!-- Node9&#45;&gt;Node3 -->
<g id="edge11" class="edge">
<title>Node9&#45;&gt;Node3</title>
<path fill="none" stroke="#191970" d="M1012.0891,-164.492C1026.3357,-166.1425 1042.6222,-168.0294 1058.5278,-169.8721"/>
<polygon fill="#191970" stroke="#191970" points="1058.5633,-173.3996 1068.8997,-171.0737 1059.369,-166.4461 1058.5633,-173.3996"/>
</g>
<!-- Node11 -->
<g id="node12" class="node">
<title>Node11</title>
<g id="a_node12"><a xlink:href="malloc_8h.html#aeba49dabb0a21ae4e02fa137e195bb1d" target="_top" xlink:title="zrtos_malloc__get_length">
<polygon fill="#ffffff" stroke="#000000" points="905,-109 905,-128 1033,-128 1033,-109 905,-109"/>
<text text-anchor="middle" x="969" y="-116" font-family="Helvetica,sans-Serif" font-size="10.00" fill="#000000">zrtos_malloc__get_length</text>
</a>
</g>
</g>
<!-- Node10&#45;&gt;Node11 -->
<g id="edge13" class="edge">
<title>Node10&#45;&gt;Node11</title>
<path fill="none" stroke="#191970" d="M863.2269,-118.5C873.231,-118.5 884.0066,-118.5 894.718,-118.5"/>
<polygon fill="#191970" stroke="#191970" points="894.9409,-122.0001 904.9408,-118.5 894.9408,-115.0001 894.9409,-122.0001"/>
</g>
<!-- Node13&#45;&gt;Node5 -->
<g id="edge18" class="edge">
<title>Node13&#45;&gt;Node5</title>
<path fill="none" stroke="#191970" d="M569.3568,-75.3688C582.8307,-79.0796 597.5286,-83.1275 611.4682,-86.9667"/>
<polygon fill="#191970" stroke="#191970" points="610.8857,-90.4365 621.4561,-89.7174 612.7444,-83.6877 610.8857,-90.4365"/>
</g>
<!-- Node14 -->
<g id="node15" class="node">
<title>Node14</title>
<g id="a_node15"><a xlink:href="cbuffer_8h.html#ae8c248c36fbad46279f2a84d60dba91d" target="_top" xlink:title="zrtos_cbuffer__get\l_first_node">
<polygon fill="#ffffff" stroke="#000000" points="920,-57.5 920,-87.5 1018,-87.5 1018,-57.5 920,-57.5"/>
<text text-anchor="start" x="928" y="-75.5" font-family="Helvetica,sans-Serif" font-size="10.00" fill="#000000">zrtos_cbuffer__get</text>
<text text-anchor="middle" x="969" y="-64.5" font-family="Helvetica,sans-Serif" font-size="10.00" fill="#000000">_first_node</text>
</a>
</g>
</g>
<!-- Node13&#45;&gt;Node14 -->
<g id="edge16" class="edge">
<title>Node13&#45;&gt;Node14</title>
<path fill="none" stroke="#191970" d="M569.3109,-62.7298C652.923,-64.7737 820.1083,-68.8604 909.4599,-71.0446"/>
<polygon fill="#191970" stroke="#191970" points="909.6146,-74.5493 919.6972,-71.2948 909.7857,-67.5514 909.6146,-74.5493"/>
</g>
<!-- Node15 -->
<g id="node16" class="node">
<title>Node15</title>
<g id="a_node16"><a xlink:href="cbuffer_8h.html#ae358d265d5a1d44fa930473e3834bc4c" target="_top" xlink:title="zrtos_cbuffer_node\l__get_next_node">
<polygon fill="#ffffff" stroke="#000000" points="621.5,-.5 621.5,-30.5 721.5,-30.5 721.5,-.5 621.5,-.5"/>
<text text-anchor="start" x="629.5" y="-18.5" font-family="Helvetica,sans-Serif" font-size="10.00" fill="#000000">zrtos_cbuffer_node</text>
<text text-anchor="middle" x="671.5" y="-7.5" font-family="Helvetica,sans-Serif" font-size="10.00" fill="#000000">__get_next_node</text>
</a>
</g>
</g>
<!-- Node13&#45;&gt;Node15 -->
<g id="edge19" class="edge">
<title>Node13&#45;&gt;Node15</title>
<path fill="none" stroke="#191970" d="M568.9342,-46.4379C582.697,-42.2865 597.7636,-37.7418 612.0092,-33.4448"/>
<polygon fill="#191970" stroke="#191970" points="613.151,-36.7562 621.7142,-30.5174 611.1295,-30.0544 613.151,-36.7562"/>
</g>
<!-- Node14&#45;&gt;Node3 -->
<g id="edge17" class="edge">
<title>Node14&#45;&gt;Node3</title>
<path fill="none" stroke="#191970" d="M1009.4148,-87.5948C1017.4245,-91.1254 1025.6295,-95.1426 1033,-99.5 1064.0244,-117.8413 1096.0553,-144.8272 1115.2505,-162.0304"/>
<polygon fill="#191970" stroke="#191970" points="1113.1289,-164.8316 1122.8841,-168.9652 1117.8359,-159.6504 1113.1289,-164.8316"/>
</g>
<!-- Node16 -->
<g id="node17" class="node">
<title>Node16</title>
<g id="a_node17"><a xlink:href="list_8h.html#a454de0a8188c1b5a4ffeddd230b42c93" target="_top" xlink:title="zrtos_list_node__get\l_next_node">
<polygon fill="#ffffff" stroke="#000000" points="762,-.5 762,-30.5 869,-30.5 869,-.5 762,-.5"/>
<text text-anchor="start" x="770" y="-18.5" font-family="Helvetica,sans-Serif" font-size="10.00" fill="#000000">zrtos_list_node__get</text>
<text text-anchor="middle" x="815.5" y="-7.5" font-family="Helvetica,sans-Serif" font-size="10.00" fill="#000000">_next_node</text>
</a>
</g>
</g>
<!-- Node15&#45;&gt;Node16 -->
<g id="edge20" class="edge">
<title>Node15&#45;&gt;Node16</title>
<path fill="none" stroke="#191970" d="M721.8642,-15.5C731.4954,-15.5 741.6959,-15.5 751.6836,-15.5"/>
<polygon fill="#191970" stroke="#191970" points="751.9821,-19.0001 761.9821,-15.5 751.982,-12.0001 751.9821,-19.0001"/>
</g>
</g>
</svg>
