<?xml version="1.0" encoding="UTF-8" standalone="no"?>
<!DOCTYPE svg PUBLIC "-//W3C//DTD SVG 1.1//EN"
 "http://www.w3.org/Graphics/SVG/1.1/DTD/svg11.dtd">
<!-- Generated by graphviz version 10.0.1 (20240210.2158)
 -->
<!-- Title: zrtos_msg_queue__rollback_write_transaction Pages: 1 -->
<svg width="920pt" height="168pt"
 viewBox="0.00 0.00 920.00 168.00" xmlns="http://www.w3.org/2000/svg" xmlns:xlink="http://www.w3.org/1999/xlink">
<g id="graph0" class="graph" transform="scale(1 1) rotate(0) translate(4 164)">
<title>zrtos_msg_queue__rollback_write_transaction</title>
<!-- Node1 -->
<g id="Node000001" class="node">
<title>Node1</title>
<g id="a_Node000001"><a xlink:title=" ">
<polygon fill="#999999" stroke="#666666" points="137.5,-106 0,-106 0,-74 137.5,-74 137.5,-106"/>
<text text-anchor="start" x="8" y="-92.5" font-family="Helvetica,sans-Serif" font-size="10.00">zrtos_msg_queue__rollback</text>
<text text-anchor="middle" x="68.75" y="-80.5" font-family="Helvetica,sans-Serif" font-size="10.00">_write_transaction</text>
</a>
</g>
</g>
<!-- Node2 -->
<g id="Node000002" class="node">
<title>Node2</title>
<g id="a_Node000002"><a xlink:href="cbuffer_8h.html#a9aa1ad8581d3c89304d2ff464a53e92e" target="_top" xlink:title=" ">
<polygon fill="white" stroke="#666666" points="289.25,-106 173.5,-106 173.5,-74 289.25,-74 289.25,-106"/>
<text text-anchor="start" x="181.5" y="-92.5" font-family="Helvetica,sans-Serif" font-size="10.00">zrtos_cbuffer__rollback</text>
<text text-anchor="middle" x="231.38" y="-80.5" font-family="Helvetica,sans-Serif" font-size="10.00">_write_transaction</text>
</a>
</g>
</g>
<!-- Node1&#45;&gt;Node2 -->
<g id="edge1_Node000001_Node000002" class="edge">
<title>Node1&#45;&gt;Node2</title>
<g id="a_edge1_Node000001_Node000002"><a xlink:title=" ">
<path fill="none" stroke="#63b8ff" d="M137.87,-90C145.8,-90 153.89,-90 161.82,-90"/>
<polygon fill="#63b8ff" stroke="#63b8ff" points="161.78,-93.5 171.78,-90 161.78,-86.5 161.78,-93.5"/>
</a>
</g>
</g>
<!-- Node3 -->
<g id="Node000003" class="node">
<title>Node3</title>
<g id="a_Node000003"><a xlink:href="cbuffer_8h.html#a0866b42eeda6c649a07a451372bad55a" target="_top" xlink:title=" ">
<polygon fill="white" stroke="#666666" points="421.88,-160 326.38,-160 326.38,-128 421.88,-128 421.88,-160"/>
<text text-anchor="start" x="334.38" y="-146.5" font-family="Helvetica,sans-Serif" font-size="10.00">zrtos_cbuffer__get</text>
<text text-anchor="middle" x="374.12" y="-134.5" font-family="Helvetica,sans-Serif" font-size="10.00">_last_node</text>
</a>
</g>
</g>
<!-- Node2&#45;&gt;Node3 -->
<g id="edge2_Node000002_Node000003" class="edge">
<title>Node2&#45;&gt;Node3</title>
<g id="a_edge2_Node000002_Node000003"><a xlink:title=" ">
<path fill="none" stroke="#63b8ff" d="M275.37,-106.5C289.42,-111.89 305.2,-117.94 319.91,-123.58"/>
<polygon fill="#63b8ff" stroke="#63b8ff" points="318.39,-126.75 328.98,-127.06 320.9,-120.21 318.39,-126.75"/>
</a>
</g>
</g>
<!-- Node5 -->
<g id="Node000005" class="node">
<title>Node5</title>
<g id="a_Node000005"><a xlink:href="cbuffer_8h.html#afc85ab6d8226b4a1b93d11c2ba1203f6" target="_top" xlink:title=" ">
<polygon fill="white" stroke="#666666" points="423,-106 325.25,-106 325.25,-74 423,-74 423,-106"/>
<text text-anchor="start" x="333.25" y="-92.5" font-family="Helvetica,sans-Serif" font-size="10.00">zrtos_cbuffer_node</text>
<text text-anchor="middle" x="374.12" y="-80.5" font-family="Helvetica,sans-Serif" font-size="10.00">__free</text>
</a>
</g>
</g>
<!-- Node2&#45;&gt;Node5 -->
<g id="edge4_Node000002_Node000005" class="edge">
<title>Node2&#45;&gt;Node5</title>
<g id="a_edge4_Node000002_Node000005"><a xlink:title=" ">
<path fill="none" stroke="#63b8ff" d="M289.62,-90C297.5,-90 305.6,-90 313.52,-90"/>
<polygon fill="#63b8ff" stroke="#63b8ff" points="313.42,-93.5 323.42,-90 313.42,-86.5 313.42,-93.5"/>
</a>
</g>
</g>
<!-- Node11 -->
<g id="Node000011" class="node">
<title>Node11</title>
<g id="a_Node000011"><a xlink:href="cbuffer_8h.html#a8228f34a6acad5cce8802e61ec87c9ca" target="_top" xlink:title=" ">
<polygon fill="white" stroke="#666666" points="423,-48 325.25,-48 325.25,-16 423,-16 423,-48"/>
<text text-anchor="start" x="333.25" y="-34.5" font-family="Helvetica,sans-Serif" font-size="10.00">zrtos_cbuffer_node</text>
<text text-anchor="middle" x="374.12" y="-22.5" font-family="Helvetica,sans-Serif" font-size="10.00">__get_next_node</text>
</a>
</g>
</g>
<!-- Node2&#45;&gt;Node11 -->
<g id="edge11_Node000002_Node000011" class="edge">
<title>Node2&#45;&gt;Node11</title>
<g id="a_edge11_Node000002_Node000011"><a xlink:title=" ">
<path fill="none" stroke="#63b8ff" d="M272.33,-73.53C288.07,-67.05 306.31,-59.53 322.92,-52.69"/>
<polygon fill="#63b8ff" stroke="#63b8ff" points="324.24,-55.93 332.16,-48.88 321.58,-49.46 324.24,-55.93"/>
</a>
</g>
</g>
<!-- Node4 -->
<g id="Node000004" class="node">
<title>Node4</title>
<g id="a_Node000004"><a xlink:href="list_8h.html#aa2f26b2b6fd722b708eb7e25cc264a90" target="_top" xlink:title=" ">
<polygon fill="white" stroke="#666666" points="586,-158 459,-158 459,-138 586,-138 586,-158"/>
<text text-anchor="middle" x="522.5" y="-144.5" font-family="Helvetica,sans-Serif" font-size="10.00">zrtos_list__get_last_node</text>
</a>
</g>
</g>
<!-- Node3&#45;&gt;Node4 -->
<g id="edge3_Node000003_Node000004" class="edge">
<title>Node3&#45;&gt;Node4</title>
<g id="a_edge3_Node000003_Node000004"><a xlink:title=" ">
<path fill="none" stroke="#63b8ff" d="M422.24,-145.29C430.32,-145.51 438.89,-145.74 447.47,-145.98"/>
<polygon fill="#63b8ff" stroke="#63b8ff" points="447.11,-149.47 457.2,-146.24 447.3,-142.47 447.11,-149.47"/>
</a>
</g>
</g>
<!-- Node6 -->
<g id="Node000006" class="node">
<title>Node6</title>
<g id="a_Node000006"><a xlink:href="list_8h.html#a2b11d9c6f775a209430f16b719a19617" target="_top" xlink:title=" ">
<polygon fill="white" stroke="#666666" points="568.75,-120 476.25,-120 476.25,-100 568.75,-100 568.75,-120"/>
<text text-anchor="middle" x="522.5" y="-106.5" font-family="Helvetica,sans-Serif" font-size="10.00">zrtos_list__delete</text>
</a>
</g>
</g>
<!-- Node5&#45;&gt;Node6 -->
<g id="edge5_Node000005_Node000006" class="edge">
<title>Node5&#45;&gt;Node6</title>
<g id="a_edge5_Node000005_Node000006"><a xlink:title=" ">
<path fill="none" stroke="#63b8ff" d="M423.46,-96.6C436.73,-98.42 451.24,-100.4 464.93,-102.27"/>
<polygon fill="#63b8ff" stroke="#63b8ff" points="464.31,-105.72 474.69,-103.6 465.26,-98.78 464.31,-105.72"/>
</a>
</g>
</g>
<!-- Node9 -->
<g id="Node000009" class="node">
<title>Node9</title>
<g id="a_Node000009"><a xlink:href="malloc__limit_8h.html#ad9dc03f9dd447b3ffb64b0ec3873f61f" target="_top" xlink:title=" ">
<polygon fill="white" stroke="#666666" points="569.88,-82 475.12,-82 475.12,-50 569.88,-50 569.88,-82"/>
<text text-anchor="start" x="483.12" y="-68.5" font-family="Helvetica,sans-Serif" font-size="10.00">zrtos_malloc_limit</text>
<text text-anchor="middle" x="522.5" y="-56.5" font-family="Helvetica,sans-Serif" font-size="10.00">__free</text>
</a>
</g>
</g>
<!-- Node5&#45;&gt;Node9 -->
<g id="edge9_Node000005_Node000009" class="edge">
<title>Node5&#45;&gt;Node9</title>
<g id="a_edge9_Node000005_Node000009"><a xlink:title=" ">
<path fill="none" stroke="#63b8ff" d="M423.46,-82.07C436.34,-79.96 450.39,-77.66 463.72,-75.47"/>
<polygon fill="#63b8ff" stroke="#63b8ff" points="463.91,-78.99 473.22,-73.92 462.78,-72.08 463.91,-78.99"/>
</a>
</g>
</g>
<!-- Node7 -->
<g id="Node000007" class="node">
<title>Node7</title>
<g id="a_Node000007"><a xlink:href="list_8h.html#a0039f0f08299038ab1a71e271a43a086" target="_top" xlink:title=" ">
<polygon fill="white" stroke="#666666" points="912,-136 785,-136 785,-116 912,-116 912,-136"/>
<text text-anchor="middle" x="848.5" y="-122.5" font-family="Helvetica,sans-Serif" font-size="10.00">zrtos_list__get_first_node</text>
</a>
</g>
</g>
<!-- Node6&#45;&gt;Node7 -->
<g id="edge6_Node000006_Node000007" class="edge">
<title>Node6&#45;&gt;Node7</title>
<g id="a_edge6_Node000006_Node000007"><a xlink:title=" ">
<path fill="none" stroke="#63b8ff" d="M568.92,-118.95C585.55,-121.81 604.56,-124.59 622,-126 672.33,-130.06 729.18,-130.03 773.21,-129"/>
<polygon fill="#63b8ff" stroke="#63b8ff" points="773.28,-132.5 783.18,-128.74 773.09,-125.5 773.28,-132.5"/>
</a>
</g>
</g>
<!-- Node8 -->
<g id="Node000008" class="node">
<title>Node8</title>
<g id="a_Node000008"><a xlink:href="list_8h.html#a4ecf7568bdda1cd815956c391f29bf1e" target="_top" xlink:title=" ">
<polygon fill="white" stroke="#666666" points="727.62,-117 643.38,-117 643.38,-97 727.62,-97 727.62,-117"/>
<text text-anchor="middle" x="685.5" y="-103.5" font-family="Helvetica,sans-Serif" font-size="10.00">zrtos_list__shift</text>
</a>
</g>
</g>
<!-- Node6&#45;&gt;Node8 -->
<g id="edge7_Node000006_Node000008" class="edge">
<title>Node6&#45;&gt;Node8</title>
<g id="a_edge7_Node000006_Node000008"><a xlink:title=" ">
<path fill="none" stroke="#63b8ff" d="M569.21,-109.15C588.72,-108.78 611.62,-108.36 631.85,-107.98"/>
<polygon fill="#63b8ff" stroke="#63b8ff" points="631.64,-111.49 641.57,-107.8 631.51,-104.49 631.64,-111.49"/>
</a>
</g>
</g>
<!-- Node8&#45;&gt;Node7 -->
<g id="edge8_Node000008_Node000007" class="edge">
<title>Node8&#45;&gt;Node7</title>
<g id="a_edge8_Node000008_Node000007"><a xlink:title=" ">
<path fill="none" stroke="#63b8ff" d="M727.96,-111.89C741.83,-113.53 757.74,-115.41 773.33,-117.25"/>
<polygon fill="#63b8ff" stroke="#63b8ff" points="772.75,-120.7 783.09,-118.4 773.57,-113.75 772.75,-120.7"/>
</a>
</g>
</g>
<!-- Node10 -->
<g id="Node000010" class="node">
<title>Node10</title>
<g id="a_Node000010"><a xlink:href="malloc_8h.html#aeba49dabb0a21ae4e02fa137e195bb1d" target="_top" xlink:title=" ">
<polygon fill="white" stroke="#666666" points="749,-76 622,-76 622,-56 749,-56 749,-76"/>
<text text-anchor="middle" x="685.5" y="-62.5" font-family="Helvetica,sans-Serif" font-size="10.00">zrtos_malloc__get_length</text>
</a>
</g>
</g>
<!-- Node9&#45;&gt;Node10 -->
<g id="edge10_Node000009_Node000010" class="edge">
<title>Node9&#45;&gt;Node10</title>
<g id="a_edge10_Node000009_Node000010"><a xlink:title=" ">
<path fill="none" stroke="#63b8ff" d="M570.07,-66C582.62,-66 596.52,-66 610.18,-66"/>
<polygon fill="#63b8ff" stroke="#63b8ff" points="610.05,-69.5 620.05,-66 610.05,-62.5 610.05,-69.5"/>
</a>
</g>
</g>
<!-- Node12 -->
<g id="Node000012" class="node">
<title>Node12</title>
<g id="a_Node000012"><a xlink:href="list_8h.html#a870446d2221a7ce60ce4b2d336f2a577" target="_top" xlink:title=" ">
<polygon fill="white" stroke="#666666" points="575.5,-32 469.5,-32 469.5,0 575.5,0 575.5,-32"/>
<text text-anchor="start" x="477.5" y="-18.5" font-family="Helvetica,sans-Serif" font-size="10.00">zrtos_list_node__get</text>
<text text-anchor="middle" x="522.5" y="-6.5" font-family="Helvetica,sans-Serif" font-size="10.00">_next_node</text>
</a>
</g>
</g>
<!-- Node11&#45;&gt;Node12 -->
<g id="edge12_Node000011_Node000012" class="edge">
<title>Node11&#45;&gt;Node12</title>
<g id="a_edge12_Node000011_Node000012"><a xlink:title=" ">
<path fill="none" stroke="#63b8ff" d="M423.46,-26.72C434.45,-25.52 446.29,-24.22 457.81,-22.96"/>
<polygon fill="#63b8ff" stroke="#63b8ff" points="458.12,-26.45 467.68,-21.88 457.36,-19.49 458.12,-26.45"/>
</a>
</g>
</g>
</g>
</svg>
