<?xml version="1.0" encoding="UTF-8" standalone="no"?>
<!DOCTYPE svg PUBLIC "-//W3C//DTD SVG 1.1//EN"
 "http://www.w3.org/Graphics/SVG/1.1/DTD/svg11.dtd">
<!-- Generated by graphviz version 2.40.1 (20161225.0304)
 -->
<!-- Title: zrtos_msg_queue__put_length Pages: 1 -->
<svg width="466pt" height="88pt"
 viewBox="0.00 0.00 466.00 88.00" xmlns="http://www.w3.org/2000/svg" xmlns:xlink="http://www.w3.org/1999/xlink">
<g id="graph0" class="graph" transform="scale(1 1) rotate(0) translate(4 84)">
<title>zrtos_msg_queue__put_length</title>
<polygon fill="#ffffff" stroke="transparent" points="-4,4 -4,-84 462,-84 462,4 -4,4"/>
<!-- Node177 -->
<g id="node1" class="node">
<title>Node177</title>
<polygon fill="#bfbfbf" stroke="#000000" points="0,-24.5 0,-54.5 118,-54.5 118,-24.5 0,-24.5"/>
<text text-anchor="start" x="8" y="-42.5" font-family="Helvetica,sans-Serif" font-size="10.00" fill="#000000">zrtos_msg_queue__put</text>
<text text-anchor="middle" x="59" y="-31.5" font-family="Helvetica,sans-Serif" font-size="10.00" fill="#000000">_length</text>
</g>
<!-- Node178 -->
<g id="node2" class="node">
<title>Node178</title>
<g id="a_node2"><a xlink:href="rtu_8h.html#a223fc39dfd241ff17884c9f5d03f8e78" target="_top" xlink:title="zrtos_vfs_module_modbus\l_rtu__on_recv_timeout">
<polygon fill="#ffffff" stroke="#000000" points="154,-49.5 154,-79.5 288,-79.5 288,-49.5 154,-49.5"/>
<text text-anchor="start" x="162" y="-67.5" font-family="Helvetica,sans-Serif" font-size="10.00" fill="#000000">zrtos_vfs_module_modbus</text>
<text text-anchor="middle" x="221" y="-56.5" font-family="Helvetica,sans-Serif" font-size="10.00" fill="#000000">_rtu__on_recv_timeout</text>
</a>
</g>
</g>
<!-- Node177&#45;&gt;Node178 -->
<g id="edge1" class="edge">
<title>Node177&#45;&gt;Node178</title>
<path fill="none" stroke="#191970" d="M128.5601,-50.2346C136.976,-51.5333 145.5601,-52.858 153.939,-54.1511"/>
<polygon fill="#191970" stroke="#191970" points="128.8198,-46.7333 118.4029,-48.6671 127.7521,-53.6514 128.8198,-46.7333"/>
</g>
<!-- Node180 -->
<g id="node4" class="node">
<title>Node180</title>
<g id="a_node4"><a xlink:href="rtu_8h.html#ac0ca767b3e1e9a8b1f290448a122e095" target="_top" xlink:title="zrtos_vfs_module_modbus\l_rtu__on_write">
<polygon fill="#ffffff" stroke="#000000" points="154,-.5 154,-30.5 288,-30.5 288,-.5 154,-.5"/>
<text text-anchor="start" x="162" y="-18.5" font-family="Helvetica,sans-Serif" font-size="10.00" fill="#000000">zrtos_vfs_module_modbus</text>
<text text-anchor="middle" x="221" y="-7.5" font-family="Helvetica,sans-Serif" font-size="10.00" fill="#000000">_rtu__on_write</text>
</a>
</g>
</g>
<!-- Node177&#45;&gt;Node180 -->
<g id="edge3" class="edge">
<title>Node177&#45;&gt;Node180</title>
<path fill="none" stroke="#191970" d="M128.5601,-29.1948C136.976,-27.948 145.5601,-26.6763 153.939,-25.435"/>
<polygon fill="#191970" stroke="#191970" points="127.782,-25.7718 118.4029,-30.6996 128.8079,-32.6962 127.782,-25.7718"/>
</g>
<!-- Node179 -->
<g id="node3" class="node">
<title>Node179</title>
<g id="a_node3"><a xlink:href="rtu_8h.html#a2376d02a52d42eef634ef843afc499f3" target="_top" xlink:title="zrtos_vfs_module_modbus\l_rtu_inode__init">
<polygon fill="#ffffff" stroke="#000000" points="324,-49.5 324,-79.5 458,-79.5 458,-49.5 324,-49.5"/>
<text text-anchor="start" x="332" y="-67.5" font-family="Helvetica,sans-Serif" font-size="10.00" fill="#000000">zrtos_vfs_module_modbus</text>
<text text-anchor="middle" x="391" y="-56.5" font-family="Helvetica,sans-Serif" font-size="10.00" fill="#000000">_rtu_inode__init</text>
</a>
</g>
</g>
<!-- Node178&#45;&gt;Node179 -->
<g id="edge2" class="edge">
<title>Node178&#45;&gt;Node179</title>
<path fill="none" stroke="#191970" d="M298.4246,-64.5C306.8759,-64.5 315.4279,-64.5 323.7428,-64.5"/>
<polygon fill="#191970" stroke="#191970" points="298.1885,-61.0001 288.1885,-64.5 298.1885,-68.0001 298.1885,-61.0001"/>
</g>
<!-- Node181 -->
<g id="node5" class="node">
<title>Node181</title>
<g id="a_node5"><a xlink:href="rtu_8h.html#a08670f8758ac6130c738816d306eb923" target="_top" xlink:title="zrtos_vfs_module_modbus\l_rtu__on_ioctl">
<polygon fill="#ffffff" stroke="#000000" points="324,-.5 324,-30.5 458,-30.5 458,-.5 324,-.5"/>
<text text-anchor="start" x="332" y="-18.5" font-family="Helvetica,sans-Serif" font-size="10.00" fill="#000000">zrtos_vfs_module_modbus</text>
<text text-anchor="middle" x="391" y="-7.5" font-family="Helvetica,sans-Serif" font-size="10.00" fill="#000000">_rtu__on_ioctl</text>
</a>
</g>
</g>
<!-- Node180&#45;&gt;Node181 -->
<g id="edge4" class="edge">
<title>Node180&#45;&gt;Node181</title>
<path fill="none" stroke="#191970" d="M298.4246,-15.5C306.8759,-15.5 315.4279,-15.5 323.7428,-15.5"/>
<polygon fill="#191970" stroke="#191970" points="298.1885,-12.0001 288.1885,-15.5 298.1885,-19.0001 298.1885,-12.0001"/>
</g>
</g>
</svg>
