<?xml version="1.0" encoding="UTF-8" standalone="no"?>
<!DOCTYPE svg PUBLIC "-//W3C//DTD SVG 1.1//EN"
 "http://www.w3.org/Graphics/SVG/1.1/DTD/svg11.dtd">
<!-- Generated by graphviz version 2.40.1 (20161225.0304)
 -->
<!-- Title: zrtos_msg_queue__put_end Pages: 1 -->
<svg width="487pt" height="39pt"
 viewBox="0.00 0.00 487.00 39.00" xmlns="http://www.w3.org/2000/svg" xmlns:xlink="http://www.w3.org/1999/xlink">
<g id="graph0" class="graph" transform="scale(1 1) rotate(0) translate(4 35)">
<title>zrtos_msg_queue__put_end</title>
<polygon fill="#ffffff" stroke="transparent" points="-4,4 -4,-35 483,-35 483,4 -4,4"/>
<!-- Node149 -->
<g id="node1" class="node">
<title>Node149</title>
<polygon fill="#bfbfbf" stroke="#000000" points="0,-6 0,-25 139,-25 139,-6 0,-6"/>
<text text-anchor="middle" x="69.5" y="-13" font-family="Helvetica,sans-Serif" font-size="10.00" fill="#000000">zrtos_msg_queue__put_end</text>
</g>
<!-- Node150 -->
<g id="node2" class="node">
<title>Node150</title>
<g id="a_node2"><a xlink:href="rtu_8h.html#ac0ca767b3e1e9a8b1f290448a122e095" target="_top" xlink:title="zrtos_vfs_module_modbus\l_rtu__on_write">
<polygon fill="#ffffff" stroke="#000000" points="175,-.5 175,-30.5 309,-30.5 309,-.5 175,-.5"/>
<text text-anchor="start" x="183" y="-18.5" font-family="Helvetica,sans-Serif" font-size="10.00" fill="#000000">zrtos_vfs_module_modbus</text>
<text text-anchor="middle" x="242" y="-7.5" font-family="Helvetica,sans-Serif" font-size="10.00" fill="#000000">_rtu__on_write</text>
</a>
</g>
</g>
<!-- Node149&#45;&gt;Node150 -->
<g id="edge1" class="edge">
<title>Node149&#45;&gt;Node150</title>
<path fill="none" stroke="#191970" d="M149.1872,-15.5C157.7763,-15.5 166.4526,-15.5 174.8729,-15.5"/>
<polygon fill="#191970" stroke="#191970" points="149.1652,-12.0001 139.1651,-15.5 149.1651,-19.0001 149.1652,-12.0001"/>
</g>
<!-- Node151 -->
<g id="node3" class="node">
<title>Node151</title>
<g id="a_node3"><a xlink:href="rtu_8h.html#a08670f8758ac6130c738816d306eb923" target="_top" xlink:title="zrtos_vfs_module_modbus\l_rtu__on_ioctl">
<polygon fill="#ffffff" stroke="#000000" points="345,-.5 345,-30.5 479,-30.5 479,-.5 345,-.5"/>
<text text-anchor="start" x="353" y="-18.5" font-family="Helvetica,sans-Serif" font-size="10.00" fill="#000000">zrtos_vfs_module_modbus</text>
<text text-anchor="middle" x="412" y="-7.5" font-family="Helvetica,sans-Serif" font-size="10.00" fill="#000000">_rtu__on_ioctl</text>
</a>
</g>
</g>
<!-- Node150&#45;&gt;Node151 -->
<g id="edge2" class="edge">
<title>Node150&#45;&gt;Node151</title>
<path fill="none" stroke="#191970" d="M319.4246,-15.5C327.8759,-15.5 336.4279,-15.5 344.7428,-15.5"/>
<polygon fill="#191970" stroke="#191970" points="319.1885,-12.0001 309.1885,-15.5 319.1885,-19.0001 319.1885,-12.0001"/>
</g>
</g>
</svg>
