<?xml version="1.0" encoding="UTF-8" standalone="no"?>
<!DOCTYPE svg PUBLIC "-//W3C//DTD SVG 1.1//EN"
 "http://www.w3.org/Graphics/SVG/1.1/DTD/svg11.dtd">
<!-- Generated by graphviz version 10.0.1 (20240210.2158)
 -->
<!-- Title: msg_queue.h Pages: 1 -->
<svg width="500pt" height="252pt"
 viewBox="0.00 0.00 500.38 252.00" xmlns="http://www.w3.org/2000/svg" xmlns:xlink="http://www.w3.org/1999/xlink">
<g id="graph0" class="graph" transform="scale(1 1) rotate(0) translate(4 248)">
<title>msg_queue.h</title>
<!-- Node1 -->
<g id="Node000001" class="node">
<title>Node1</title>
<g id="a_Node000001"><a xlink:title=" ">
<polygon fill="#999999" stroke="#666666" points="118.38,-244 43.88,-244 43.88,-224 118.38,-224 118.38,-244"/>
<text text-anchor="middle" x="81.12" y="-230.5" font-family="Helvetica,sans-Serif" font-size="10.00">msg_queue.h</text>
</a>
</g>
</g>
<!-- Node2 -->
<g id="Node000002" class="node">
<title>Node2</title>
<g id="a_Node000002"><a xlink:href="types_8h.html" target="_top" xlink:title=" ">
<polygon fill="white" stroke="#666666" points="130.62,-76 57.62,-76 57.62,-56 130.62,-56 130.62,-76"/>
<text text-anchor="middle" x="94.12" y="-62.5" font-family="Helvetica,sans-Serif" font-size="10.00">zrtos/types.h</text>
</a>
</g>
</g>
<!-- Node1&#45;&gt;Node2 -->
<g id="edge1_Node000001_Node000002" class="edge">
<title>Node1&#45;&gt;Node2</title>
<g id="a_edge1_Node000001_Node000002"><a xlink:title=" ">
<path fill="none" stroke="#63b8ff" d="M67.71,-223.58C40.39,-203.21 -17.03,-153.56 8.12,-112 16.85,-97.59 31.86,-87.58 46.93,-80.72"/>
<polygon fill="#63b8ff" stroke="#63b8ff" points="47.98,-84.07 55.9,-77.04 45.32,-77.6 47.98,-84.07"/>
</a>
</g>
</g>
<!-- Node7 -->
<g id="Node000007" class="node">
<title>Node7</title>
<g id="a_Node000007"><a xlink:href="cbuffer_8h.html" target="_top" xlink:title=" ">
<polygon fill="white" stroke="#666666" points="253.88,-188 176.38,-188 176.38,-168 253.88,-168 253.88,-188"/>
<text text-anchor="middle" x="215.12" y="-174.5" font-family="Helvetica,sans-Serif" font-size="10.00">zrtos/cbuffer.h</text>
</a>
</g>
</g>
<!-- Node1&#45;&gt;Node7 -->
<g id="edge6_Node000001_Node000007" class="edge">
<title>Node1&#45;&gt;Node7</title>
<g id="a_edge6_Node000001_Node000007"><a xlink:title=" ">
<path fill="none" stroke="#63b8ff" d="M104.47,-223.59C125.66,-215.05 157.19,-202.35 181.18,-192.68"/>
<polygon fill="#63b8ff" stroke="#63b8ff" points="182.23,-196.03 190.2,-189.05 179.61,-189.54 182.23,-196.03"/>
</a>
</g>
</g>
<!-- Node3 -->
<g id="Node000003" class="node">
<title>Node3</title>
<g id="a_Node000003"><a xlink:title=" ">
<polygon fill="#e0e0e0" stroke="#999999" points="122,-20 66.25,-20 66.25,0 122,0 122,-20"/>
<text text-anchor="middle" x="94.12" y="-6.5" font-family="Helvetica,sans-Serif" font-size="10.00">stdbool.h</text>
</a>
</g>
</g>
<!-- Node2&#45;&gt;Node3 -->
<g id="edge2_Node000002_Node000003" class="edge">
<title>Node2&#45;&gt;Node3</title>
<g id="a_edge2_Node000002_Node000003"><a xlink:title=" ">
<path fill="none" stroke="#63b8ff" d="M94.12,-55.59C94.12,-49.01 94.12,-39.96 94.12,-31.73"/>
<polygon fill="#63b8ff" stroke="#63b8ff" points="97.63,-31.81 94.13,-21.81 90.63,-31.81 97.63,-31.81"/>
</a>
</g>
</g>
<!-- Node4 -->
<g id="Node000004" class="node">
<title>Node4</title>
<g id="a_Node000004"><a xlink:title=" ">
<polygon fill="#e0e0e0" stroke="#999999" points="190.38,-20 139.88,-20 139.88,0 190.38,0 190.38,-20"/>
<text text-anchor="middle" x="165.12" y="-6.5" font-family="Helvetica,sans-Serif" font-size="10.00">stddef.h</text>
</a>
</g>
</g>
<!-- Node2&#45;&gt;Node4 -->
<g id="edge3_Node000002_Node000004" class="edge">
<title>Node2&#45;&gt;Node4</title>
<g id="a_edge3_Node000002_Node000004"><a xlink:title=" ">
<path fill="none" stroke="#63b8ff" d="M106.49,-55.59C116.77,-47.77 131.64,-36.46 143.84,-27.19"/>
<polygon fill="#63b8ff" stroke="#63b8ff" points="145.85,-30.05 151.69,-21.21 141.62,-24.48 145.85,-30.05"/>
</a>
</g>
</g>
<!-- Node5 -->
<g id="Node000005" class="node">
<title>Node5</title>
<g id="a_Node000005"><a xlink:title=" ">
<polygon fill="#e0e0e0" stroke="#999999" points="48.25,-20 0,-20 0,0 48.25,0 48.25,-20"/>
<text text-anchor="middle" x="24.12" y="-6.5" font-family="Helvetica,sans-Serif" font-size="10.00">stdint.h</text>
</a>
</g>
</g>
<!-- Node2&#45;&gt;Node5 -->
<g id="edge4_Node000002_Node000005" class="edge">
<title>Node2&#45;&gt;Node5</title>
<g id="a_edge4_Node000002_Node000005"><a xlink:title=" ">
<path fill="none" stroke="#63b8ff" d="M81.93,-55.59C71.79,-47.77 57.13,-36.46 45.11,-27.19"/>
<polygon fill="#63b8ff" stroke="#63b8ff" points="47.43,-24.56 37.38,-21.22 43.16,-30.1 47.43,-24.56"/>
</a>
</g>
</g>
<!-- Node6 -->
<g id="Node000006" class="node">
<title>Node6</title>
<g id="a_Node000006"><a xlink:title=" ">
<polygon fill="#e0e0e0" stroke="#999999" points="374.88,-20 327.38,-20 327.38,0 374.88,0 374.88,-20"/>
<text text-anchor="middle" x="351.12" y="-6.5" font-family="Helvetica,sans-Serif" font-size="10.00">limits.h</text>
</a>
</g>
</g>
<!-- Node2&#45;&gt;Node6 -->
<g id="edge5_Node000002_Node000006" class="edge">
<title>Node2&#45;&gt;Node6</title>
<g id="a_edge5_Node000002_Node000006"><a xlink:title=" ">
<path fill="none" stroke="#63b8ff" d="M130.95,-57.26C180.31,-46.89 267.34,-28.6 315.89,-18.4"/>
<polygon fill="#63b8ff" stroke="#63b8ff" points="316.52,-21.85 325.59,-16.37 315.08,-15 316.52,-21.85"/>
</a>
</g>
</g>
<!-- Node7&#45;&gt;Node2 -->
<g id="edge8_Node000007_Node000002" class="edge">
<title>Node7&#45;&gt;Node2</title>
<g id="a_edge8_Node000007_Node000002"><a xlink:title=" ">
<path fill="none" stroke="#63b8ff" d="M185.71,-167.64C166.77,-160.39 142.69,-148.74 126.12,-132 113.67,-119.41 105.24,-101.02 100.17,-87"/>
<polygon fill="#63b8ff" stroke="#63b8ff" points="103.5,-85.91 97.04,-77.51 96.85,-88.1 103.5,-85.91"/>
</a>
</g>
</g>
<!-- Node8 -->
<g id="Node000008" class="node">
<title>Node8</title>
<g id="a_Node000008"><a xlink:title=" ">
<polygon fill="#e0e0e0" stroke="#999999" points="281.75,-132 230.5,-132 230.5,-112 281.75,-112 281.75,-132"/>
<text text-anchor="middle" x="256.12" y="-118.5" font-family="Helvetica,sans-Serif" font-size="10.00">stdarg.h</text>
</a>
</g>
</g>
<!-- Node7&#45;&gt;Node8 -->
<g id="edge7_Node000007_Node000008" class="edge">
<title>Node7&#45;&gt;Node8</title>
<g id="a_edge7_Node000007_Node000008"><a xlink:title=" ">
<path fill="none" stroke="#63b8ff" d="M222.27,-167.59C227.73,-160.39 235.45,-150.23 242.13,-141.43"/>
<polygon fill="#63b8ff" stroke="#63b8ff" points="244.89,-143.58 248.15,-133.5 239.32,-139.35 244.89,-143.58"/>
</a>
</g>
</g>
<!-- Node9 -->
<g id="Node000009" class="node">
<title>Node9</title>
<g id="a_Node000009"><a xlink:href="error_8h.html" target="_top" xlink:title=" ">
<polygon fill="white" stroke="#666666" points="492.38,-132 423.88,-132 423.88,-112 492.38,-112 492.38,-132"/>
<text text-anchor="middle" x="458.12" y="-118.5" font-family="Helvetica,sans-Serif" font-size="10.00">zrtos/error.h</text>
</a>
</g>
</g>
<!-- Node7&#45;&gt;Node9 -->
<g id="edge9_Node000007_Node000009" class="edge">
<title>Node7&#45;&gt;Node9</title>
<g id="a_edge9_Node000007_Node000009"><a xlink:title=" ">
<path fill="none" stroke="#63b8ff" d="M254.17,-168.32C297.33,-158.73 366.78,-143.3 412.44,-133.15"/>
<polygon fill="#63b8ff" stroke="#63b8ff" points="413.03,-136.61 422.03,-131.02 411.51,-129.77 413.03,-136.61"/>
</a>
</g>
</g>
<!-- Node10 -->
<g id="Node000010" class="node">
<title>Node10</title>
<g id="a_Node000010"><a xlink:href="assert_8h.html" target="_top" xlink:title=" ">
<polygon fill="white" stroke="#666666" points="430.12,-76 354.12,-76 354.12,-56 430.12,-56 430.12,-76"/>
<text text-anchor="middle" x="392.12" y="-62.5" font-family="Helvetica,sans-Serif" font-size="10.00">zrtos/assert.h</text>
</a>
</g>
</g>
<!-- Node7&#45;&gt;Node10 -->
<g id="edge18_Node000007_Node000010" class="edge">
<title>Node7&#45;&gt;Node10</title>
<g id="a_edge18_Node000007_Node000010"><a xlink:title=" ">
<path fill="none" stroke="#63b8ff" d="M254.15,-176.92C291,-174.65 345.24,-165.32 377.12,-132 388.4,-120.22 391.81,-101.74 392.59,-87.49"/>
<polygon fill="#63b8ff" stroke="#63b8ff" points="396.09,-87.9 392.72,-77.85 389.09,-87.8 396.09,-87.9"/>
</a>
</g>
</g>
<!-- Node11 -->
<g id="Node000011" class="node">
<title>Node11</title>
<g id="a_Node000011"><a xlink:href="list_8h.html" target="_top" xlink:title=" ">
<polygon fill="white" stroke="#666666" points="79,-132 17.25,-132 17.25,-112 79,-112 79,-132"/>
<text text-anchor="middle" x="48.12" y="-118.5" font-family="Helvetica,sans-Serif" font-size="10.00">zrtos/list.h</text>
</a>
</g>
</g>
<!-- Node7&#45;&gt;Node11 -->
<g id="edge12_Node000007_Node000011" class="edge">
<title>Node7&#45;&gt;Node11</title>
<g id="a_edge12_Node000007_Node000011"><a xlink:title=" ">
<path fill="none" stroke="#63b8ff" d="M186.04,-167.59C158.9,-158.82 118.19,-145.66 88.03,-135.9"/>
<polygon fill="#63b8ff" stroke="#63b8ff" points="89.47,-132.69 78.88,-132.95 87.32,-139.35 89.47,-132.69"/>
</a>
</g>
</g>
<!-- Node12 -->
<g id="Node000012" class="node">
<title>Node12</title>
<g id="a_Node000012"><a xlink:href="malloc_8h.html" target="_top" xlink:title=" ">
<polygon fill="white" stroke="#666666" points="212.88,-132 135.38,-132 135.38,-112 212.88,-112 212.88,-132"/>
<text text-anchor="middle" x="174.12" y="-118.5" font-family="Helvetica,sans-Serif" font-size="10.00">zrtos/malloc.h</text>
</a>
</g>
</g>
<!-- Node7&#45;&gt;Node12 -->
<g id="edge14_Node000007_Node000012" class="edge">
<title>Node7&#45;&gt;Node12</title>
<g id="a_edge14_Node000007_Node000012"><a xlink:title=" ">
<path fill="none" stroke="#63b8ff" d="M207.98,-167.59C202.52,-160.39 194.8,-150.23 188.12,-141.43"/>
<polygon fill="#63b8ff" stroke="#63b8ff" points="190.93,-139.35 182.1,-133.5 185.36,-143.58 190.93,-139.35"/>
</a>
</g>
</g>
<!-- Node14 -->
<g id="Node000014" class="node">
<title>Node14</title>
<g id="a_Node000014"><a xlink:href="cast_8h.html" target="_top" xlink:title=" ">
<polygon fill="white" stroke="#666666" points="368,-132 300.25,-132 300.25,-112 368,-112 368,-132"/>
<text text-anchor="middle" x="334.12" y="-118.5" font-family="Helvetica,sans-Serif" font-size="10.00">zrtos/cast.h</text>
</a>
</g>
</g>
<!-- Node7&#45;&gt;Node14 -->
<g id="edge19_Node000007_Node000014" class="edge">
<title>Node7&#45;&gt;Node14</title>
<g id="a_edge19_Node000007_Node000014"><a xlink:title=" ">
<path fill="none" stroke="#63b8ff" d="M235.85,-167.59C254.34,-159.21 281.67,-146.8 302.82,-137.21"/>
<polygon fill="#63b8ff" stroke="#63b8ff" points="304.2,-140.42 311.86,-133.1 301.3,-134.05 304.2,-140.42"/>
</a>
</g>
</g>
<!-- Node9&#45;&gt;Node6 -->
<g id="edge10_Node000009_Node000006" class="edge">
<title>Node9&#45;&gt;Node6</title>
<g id="a_edge10_Node000009_Node000006"><a xlink:title=" ">
<path fill="none" stroke="#63b8ff" d="M457.66,-111.53C456.53,-97.82 452.62,-72.3 439.12,-56 425.38,-39.39 403.93,-28.25 385.65,-21.2"/>
<polygon fill="#63b8ff" stroke="#63b8ff" points="387.08,-17.99 376.48,-17.93 384.73,-24.59 387.08,-17.99"/>
</a>
</g>
</g>
<!-- Node9&#45;&gt;Node10 -->
<g id="edge11_Node000009_Node000010" class="edge">
<title>Node9&#45;&gt;Node10</title>
<g id="a_edge11_Node000009_Node000010"><a xlink:title=" ">
<path fill="none" stroke="#63b8ff" d="M446.63,-111.59C437.16,-103.85 423.52,-92.69 412.25,-83.47"/>
<polygon fill="#63b8ff" stroke="#63b8ff" points="414.62,-80.88 404.66,-77.26 410.18,-86.3 414.62,-80.88"/>
</a>
</g>
</g>
<!-- Node11&#45;&gt;Node2 -->
<g id="edge13_Node000011_Node000002" class="edge">
<title>Node11&#45;&gt;Node2</title>
<g id="a_edge13_Node000011_Node000002"><a xlink:title=" ">
<path fill="none" stroke="#63b8ff" d="M56.14,-111.59C62.4,-104.24 71.3,-93.8 78.91,-84.87"/>
<polygon fill="#63b8ff" stroke="#63b8ff" points="81.4,-87.33 85.22,-77.45 76.07,-82.79 81.4,-87.33"/>
</a>
</g>
</g>
<!-- Node12&#45;&gt;Node2 -->
<g id="edge16_Node000012_Node000002" class="edge">
<title>Node12&#45;&gt;Node2</title>
<g id="a_edge16_Node000012_Node000002"><a xlink:title=" ">
<path fill="none" stroke="#63b8ff" d="M160.19,-111.59C148.45,-103.67 131.39,-92.16 117.56,-82.82"/>
<polygon fill="#63b8ff" stroke="#63b8ff" points="119.67,-80.02 109.42,-77.33 115.75,-85.82 119.67,-80.02"/>
</a>
</g>
</g>
<!-- Node12&#45;&gt;Node10 -->
<g id="edge15_Node000012_Node000010" class="edge">
<title>Node12&#45;&gt;Node10</title>
<g id="a_edge15_Node000012_Node000010"><a xlink:title=" ">
<path fill="none" stroke="#63b8ff" d="M212.35,-111.53C248.66,-102.54 303.43,-88.97 342.97,-79.18"/>
<polygon fill="#63b8ff" stroke="#63b8ff" points="343.61,-82.62 352.48,-76.82 341.93,-75.83 343.61,-82.62"/>
</a>
</g>
</g>
<!-- Node13 -->
<g id="Node000013" class="node">
<title>Node13</title>
<g id="a_Node000013"><a xlink:href="debug_8h.html" target="_top" xlink:title=" ">
<polygon fill="white" stroke="#666666" points="223.75,-76 148.5,-76 148.5,-56 223.75,-56 223.75,-76"/>
<text text-anchor="middle" x="186.12" y="-62.5" font-family="Helvetica,sans-Serif" font-size="10.00">zrtos/debug.h</text>
</a>
</g>
</g>
<!-- Node12&#45;&gt;Node13 -->
<g id="edge17_Node000012_Node000013" class="edge">
<title>Node12&#45;&gt;Node13</title>
<g id="a_edge17_Node000012_Node000013"><a xlink:title=" ">
<path fill="none" stroke="#63b8ff" d="M176.22,-111.59C177.7,-104.93 179.74,-95.75 181.58,-87.44"/>
<polygon fill="#63b8ff" stroke="#63b8ff" points="184.98,-88.3 183.73,-77.78 178.14,-86.78 184.98,-88.3"/>
</a>
</g>
</g>
</g>
</svg>
