<?xml version="1.0" encoding="UTF-8" standalone="no"?>
<!DOCTYPE svg PUBLIC "-//W3C//DTD SVG 1.1//EN"
 "http://www.w3.org/Graphics/SVG/1.1/DTD/svg11.dtd">
<!-- Generated by graphviz version 2.40.1 (20161225.0304)
 -->
<!-- Title: zrtos_msg_queue__put_cbuffer_data Pages: 1 -->
<svg width="1362pt" height="418pt"
 viewBox="0.00 0.00 1362.00 418.00" xmlns="http://www.w3.org/2000/svg" xmlns:xlink="http://www.w3.org/1999/xlink">
<g id="graph0" class="graph" transform="scale(1 1) rotate(0) translate(4 414)">
<title>zrtos_msg_queue__put_cbuffer_data</title>
<polygon fill="#ffffff" stroke="transparent" points="-4,4 -4,-414 1358,-414 1358,4 -4,4"/>
<!-- Node88 -->
<g id="node1" class="node">
<title>Node88</title>
<polygon fill="#bfbfbf" stroke="#000000" points="0,-288 0,-318 118,-318 118,-288 0,-288"/>
<text text-anchor="start" x="8" y="-306" font-family="Helvetica,sans-Serif" font-size="10.00" fill="#000000">zrtos_msg_queue__put</text>
<text text-anchor="middle" x="59" y="-295" font-family="Helvetica,sans-Serif" font-size="10.00" fill="#000000">_cbuffer_data</text>
</g>
<!-- Node89 -->
<g id="node2" class="node">
<title>Node89</title>
<g id="a_node2"><a xlink:href="cbuffer_8h.html#a77458b7cd6238ed911ffdab0fe328e04" target="_top" xlink:title="zrtos_cbuffer__pipe">
<polygon fill="#ffffff" stroke="#000000" points="154,-274.5 154,-293.5 256,-293.5 256,-274.5 154,-274.5"/>
<text text-anchor="middle" x="205" y="-281.5" font-family="Helvetica,sans-Serif" font-size="10.00" fill="#000000">zrtos_cbuffer__pipe</text>
</a>
</g>
</g>
<!-- Node88&#45;&gt;Node89 -->
<g id="edge1" class="edge">
<title>Node88&#45;&gt;Node89</title>
<path fill="none" stroke="#191970" d="M118.3838,-295.272C126.6905,-294.191 135.2411,-293.0782 143.5845,-291.9924"/>
<polygon fill="#191970" stroke="#191970" points="144.1638,-295.4466 153.6285,-290.6853 143.2604,-288.5052 144.1638,-295.4466"/>
</g>
<!-- Node90 -->
<g id="node3" class="node">
<title>Node90</title>
<g id="a_node3"><a xlink:href="error_8h.html#add13298163f63b7d37ed9f12d57e1a31" target="_top" xlink:title="zrtos_error__is_success">
<polygon fill="#ffffff" stroke="#000000" points="292,-362.5 292,-381.5 415,-381.5 415,-362.5 292,-362.5"/>
<text text-anchor="middle" x="353.5" y="-369.5" font-family="Helvetica,sans-Serif" font-size="10.00" fill="#000000">zrtos_error__is_success</text>
</a>
</g>
</g>
<!-- Node88&#45;&gt;Node90 -->
<g id="edge35" class="edge">
<title>Node88&#45;&gt;Node90</title>
<path fill="none" stroke="#191970" d="M118.2422,-316.8802C172.4114,-329.5718 251.6792,-348.1438 302.9355,-360.153"/>
<polygon fill="#191970" stroke="#191970" points="302.2627,-363.5901 312.7975,-362.4636 303.8596,-356.7746 302.2627,-363.5901"/>
</g>
<!-- Node89&#45;&gt;Node90 -->
<g id="edge2" class="edge">
<title>Node89&#45;&gt;Node90</title>
<path fill="none" stroke="#191970" d="M214.5753,-293.6194C229.7442,-308.3594 260.7913,-336.5503 292,-353 296.2262,-355.2276 300.7559,-357.241 305.3699,-359.0497"/>
<polygon fill="#191970" stroke="#191970" points="304.2946,-362.3824 314.889,-362.4778 306.6664,-355.7965 304.2946,-362.3824"/>
</g>
<!-- Node91 -->
<g id="node4" class="node">
<title>Node91</title>
<g id="a_node4"><a xlink:href="cbuffer_8h.html#a61bcb34a80ed67b44efca42b5c943e87" target="_top" xlink:title="zrtos_cbuffer__peek">
<polygon fill="#ffffff" stroke="#000000" points="460.5,-315.5 460.5,-334.5 565.5,-334.5 565.5,-315.5 460.5,-315.5"/>
<text text-anchor="middle" x="513" y="-322.5" font-family="Helvetica,sans-Serif" font-size="10.00" fill="#000000">zrtos_cbuffer__peek</text>
</a>
</g>
</g>
<!-- Node89&#45;&gt;Node91 -->
<g id="edge3" class="edge">
<title>Node89&#45;&gt;Node91</title>
<path fill="none" stroke="#191970" d="M256.1271,-287.2019C298.7773,-290.2717 361.0689,-295.6823 415,-304 430.9406,-306.4585 448.1861,-309.8899 463.7015,-313.2673"/>
<polygon fill="#191970" stroke="#191970" points="463.0956,-316.7179 473.6164,-315.4682 464.6125,-309.8843 463.0956,-316.7179"/>
</g>
<!-- Node95 -->
<g id="node8" class="node">
<title>Node95</title>
<g id="a_node8"><a xlink:href="cbuffer_8h.html#afdb6a6176387d77a0f10e28536ba28f9" target="_top" xlink:title="zrtos_cbuffer__put">
<polygon fill="#ffffff" stroke="#000000" points="304.5,-60.5 304.5,-79.5 402.5,-79.5 402.5,-60.5 304.5,-60.5"/>
<text text-anchor="middle" x="353.5" y="-67.5" font-family="Helvetica,sans-Serif" font-size="10.00" fill="#000000">zrtos_cbuffer__put</text>
</a>
</g>
</g>
<!-- Node89&#45;&gt;Node95 -->
<g id="edge7" class="edge">
<title>Node89&#45;&gt;Node95</title>
<path fill="none" stroke="#191970" d="M211.7666,-274.2488C234.8625,-240.9658 310.8174,-131.509 340.9864,-88.0331"/>
<polygon fill="#191970" stroke="#191970" points="343.868,-90.0196 346.6936,-79.8085 338.117,-86.0288 343.868,-90.0196"/>
</g>
<!-- Node105 -->
<g id="node18" class="node">
<title>Node105</title>
<g id="a_node18"><a xlink:href="cbuffer_8h.html#a1f62d288fc01ab47fe1ddf16dc31a783" target="_top" xlink:title="zrtos_cbuffer__pop">
<polygon fill="#ffffff" stroke="#000000" points="303.5,-236.5 303.5,-255.5 403.5,-255.5 403.5,-236.5 303.5,-236.5"/>
<text text-anchor="middle" x="353.5" y="-243.5" font-family="Helvetica,sans-Serif" font-size="10.00" fill="#000000">zrtos_cbuffer__pop</text>
</a>
</g>
</g>
<!-- Node89&#45;&gt;Node105 -->
<g id="edge18" class="edge">
<title>Node89&#45;&gt;Node105</title>
<path fill="none" stroke="#191970" d="M242.4728,-274.411C261.8925,-269.4417 285.8025,-263.3233 306.4542,-258.0387"/>
<polygon fill="#191970" stroke="#191970" points="307.4765,-261.3899 316.2966,-255.5201 305.7411,-254.6084 307.4765,-261.3899"/>
</g>
<!-- Node114 -->
<g id="node27" class="node">
<title>Node114</title>
<g id="a_node27"><a xlink:href="cbuffer_8h.html#ae8c248c36fbad46279f2a84d60dba91d" target="_top" xlink:title="zrtos_cbuffer__get\l_first_node">
<polygon fill="#ffffff" stroke="#000000" points="1077,-165 1077,-195 1175,-195 1175,-165 1077,-165"/>
<text text-anchor="start" x="1085" y="-183" font-family="Helvetica,sans-Serif" font-size="10.00" fill="#000000">zrtos_cbuffer__get</text>
<text text-anchor="middle" x="1126" y="-172" font-family="Helvetica,sans-Serif" font-size="10.00" fill="#000000">_first_node</text>
</a>
</g>
</g>
<!-- Node89&#45;&gt;Node114 -->
<g id="edge31" class="edge">
<title>Node89&#45;&gt;Node114</title>
<path fill="none" stroke="#191970" d="M216.2678,-274.4673C232.104,-261.5967 262.3391,-238.9061 292,-227 384.7081,-189.7863 413.1018,-186 513,-186 513,-186 513,-186 829.5,-186 911.875,-186 1007.0968,-183.6564 1066.9322,-181.8986"/>
<polygon fill="#191970" stroke="#191970" points="1067.0609,-185.3964 1076.9522,-181.6 1066.8523,-178.3996 1067.0609,-185.3964"/>
</g>
<!-- Node115 -->
<g id="node28" class="node">
<title>Node115</title>
<g id="a_node28"><a xlink:href="cbuffer_8h.html#ae358d265d5a1d44fa930473e3834bc4c" target="_top" xlink:title="zrtos_cbuffer_node\l__get_next_node">
<polygon fill="#ffffff" stroke="#000000" points="303.5,-313 303.5,-343 403.5,-343 403.5,-313 303.5,-313"/>
<text text-anchor="start" x="311.5" y="-331" font-family="Helvetica,sans-Serif" font-size="10.00" fill="#000000">zrtos_cbuffer_node</text>
<text text-anchor="middle" x="353.5" y="-320" font-family="Helvetica,sans-Serif" font-size="10.00" fill="#000000">__get_next_node</text>
</a>
</g>
</g>
<!-- Node89&#45;&gt;Node115 -->
<g id="edge33" class="edge">
<title>Node89&#45;&gt;Node115</title>
<path fill="none" stroke="#191970" d="M237.2223,-293.5473C253.7144,-298.4339 274.3312,-304.5426 293.6062,-310.2537"/>
<polygon fill="#191970" stroke="#191970" points="292.6521,-313.6213 303.2344,-313.1065 294.6407,-306.9097 292.6521,-313.6213"/>
</g>
<!-- Node92 -->
<g id="node5" class="node">
<title>Node92</title>
<g id="a_node5"><a xlink:href="list_8h.html#a5a9358f4b25c9376dbdef338fa8333a6" target="_top" xlink:title="zrtos_list__get_first_node">
<polygon fill="#ffffff" stroke="#000000" points="1226,-293.5 1226,-312.5 1354,-312.5 1354,-293.5 1226,-293.5"/>
<text text-anchor="middle" x="1290" y="-300.5" font-family="Helvetica,sans-Serif" font-size="10.00" fill="#000000">zrtos_list__get_first_node</text>
</a>
</g>
</g>
<!-- Node91&#45;&gt;Node92 -->
<g id="edge4" class="edge">
<title>Node91&#45;&gt;Node92</title>
<path fill="none" stroke="#191970" d="M549.1742,-334.565C557.8463,-337.4262 566.928,-340.9122 575,-345 592.6075,-353.9166 592.8296,-363.295 611,-371 701.8182,-409.5106 730.8541,-410 829.5,-410 829.5,-410 829.5,-410 973,-410 1071.9715,-410 1097.8075,-395.9986 1190,-360 1218.1219,-349.0192 1247.8782,-331.148 1267.5462,-318.343"/>
<polygon fill="#191970" stroke="#191970" points="1269.6803,-321.1277 1276.0851,-312.6879 1265.8152,-315.2915 1269.6803,-321.1277"/>
</g>
<!-- Node93 -->
<g id="node6" class="node">
<title>Node93</title>
<g id="a_node6"><a xlink:href="cbuffer_8h.html#a2db82192303acfcb9c8328eb96f3ef8a" target="_top" xlink:title="zrtos_cbuffer_node\l__peek">
<polygon fill="#ffffff" stroke="#000000" points="625,-331 625,-361 725,-361 725,-331 625,-331"/>
<text text-anchor="start" x="633" y="-349" font-family="Helvetica,sans-Serif" font-size="10.00" fill="#000000">zrtos_cbuffer_node</text>
<text text-anchor="middle" x="675" y="-338" font-family="Helvetica,sans-Serif" font-size="10.00" fill="#000000">__peek</text>
</a>
</g>
</g>
<!-- Node91&#45;&gt;Node93 -->
<g id="edge5" class="edge">
<title>Node91&#45;&gt;Node93</title>
<path fill="none" stroke="#191970" d="M565.5968,-331.8181C581.209,-333.8419 598.4331,-336.0747 614.5045,-338.158"/>
<polygon fill="#191970" stroke="#191970" points="614.5036,-341.6871 624.8706,-339.5017 615.4036,-334.7452 614.5036,-341.6871"/>
</g>
<!-- Node94 -->
<g id="node7" class="node">
<title>Node94</title>
<g id="a_node7"><a xlink:href="cbuffer_8h.html#aa70b33844c0b38a531615564dc35840e" target="_top" xlink:title="zrtos_cbuffer_node\l__is_empty">
<polygon fill="#ffffff" stroke="#000000" points="779.5,-351 779.5,-381 879.5,-381 879.5,-351 779.5,-351"/>
<text text-anchor="start" x="787.5" y="-369" font-family="Helvetica,sans-Serif" font-size="10.00" fill="#000000">zrtos_cbuffer_node</text>
<text text-anchor="middle" x="829.5" y="-358" font-family="Helvetica,sans-Serif" font-size="10.00" fill="#000000">__is_empty</text>
</a>
</g>
</g>
<!-- Node93&#45;&gt;Node94 -->
<g id="edge6" class="edge">
<title>Node93&#45;&gt;Node94</title>
<path fill="none" stroke="#191970" d="M725.1617,-352.4934C739.265,-354.3191 754.7476,-356.3233 769.3687,-358.216"/>
<polygon fill="#191970" stroke="#191970" points="768.9592,-361.6921 779.3258,-359.505 769.8579,-354.75 768.9592,-361.6921"/>
</g>
<!-- Node96 -->
<g id="node9" class="node">
<title>Node96</title>
<g id="a_node9"><a xlink:href="list_8h.html#a0f2fe7ff1e14a9237a955a4925b062e2" target="_top" xlink:title="zrtos_list__get_last_node">
<polygon fill="#ffffff" stroke="#000000" points="1062,-58.5 1062,-77.5 1190,-77.5 1190,-58.5 1062,-58.5"/>
<text text-anchor="middle" x="1126" y="-65.5" font-family="Helvetica,sans-Serif" font-size="10.00" fill="#000000">zrtos_list__get_last_node</text>
</a>
</g>
</g>
<!-- Node95&#45;&gt;Node96 -->
<g id="edge8" class="edge">
<title>Node95&#45;&gt;Node96</title>
<path fill="none" stroke="#191970" d="M379.3382,-60.4136C433.4021,-41.2423 562.752,0 675,0 675,0 675,0 829.5,0 926.698,0 1037.3869,-35.1461 1091.9317,-54.9034"/>
<polygon fill="#191970" stroke="#191970" points="1090.8536,-58.236 1101.4471,-58.4015 1093.2689,-51.6659 1090.8536,-58.236"/>
</g>
<!-- Node97 -->
<g id="node10" class="node">
<title>Node97</title>
<g id="a_node10"><a xlink:href="cbuffer_8h.html#a1846e554cfe5e72cc8df6b60ab5c6d84" target="_top" xlink:title="zrtos_cbuffer_node__put">
<polygon fill="#ffffff" stroke="#000000" points="451,-60.5 451,-79.5 575,-79.5 575,-60.5 451,-60.5"/>
<text text-anchor="middle" x="513" y="-67.5" font-family="Helvetica,sans-Serif" font-size="10.00" fill="#000000">zrtos_cbuffer_node__put</text>
</a>
</g>
</g>
<!-- Node95&#45;&gt;Node97 -->
<g id="edge9" class="edge">
<title>Node95&#45;&gt;Node97</title>
<path fill="none" stroke="#191970" d="M402.6567,-70C414.6461,-70 427.7228,-70 440.5459,-70"/>
<polygon fill="#191970" stroke="#191970" points="440.7497,-73.5001 450.7497,-70 440.7496,-66.5001 440.7497,-73.5001"/>
</g>
<!-- Node98 -->
<g id="node11" class="node">
<title>Node98</title>
<g id="a_node11"><a xlink:href="cbuffer_8h.html#a0f069b28d310b9b6586aeb37ec2fb1f3" target="_top" xlink:title="zrtos_cbuffer_node\l__get_free_space">
<polygon fill="#ffffff" stroke="#000000" points="625,-32 625,-62 725,-62 725,-32 625,-32"/>
<text text-anchor="start" x="633" y="-50" font-family="Helvetica,sans-Serif" font-size="10.00" fill="#000000">zrtos_cbuffer_node</text>
<text text-anchor="middle" x="675" y="-39" font-family="Helvetica,sans-Serif" font-size="10.00" fill="#000000">__get_free_space</text>
</a>
</g>
</g>
<!-- Node97&#45;&gt;Node98 -->
<g id="edge10" class="edge">
<title>Node97&#45;&gt;Node98</title>
<path fill="none" stroke="#191970" d="M575.1701,-61.1734C588.1249,-59.3341 601.7601,-57.3983 614.6479,-55.5685"/>
<polygon fill="#191970" stroke="#191970" points="615.3876,-58.9987 624.7963,-54.1277 614.4036,-52.0682 615.3876,-58.9987"/>
</g>
<!-- Node100 -->
<g id="node13" class="node">
<title>Node100</title>
<g id="a_node13"><a xlink:href="cbuffer_8h.html#a3cbe982fcebf0d5bbcdae29e3caca316" target="_top" xlink:title="zrtos_cbuffer_node__new">
<polygon fill="#ffffff" stroke="#000000" points="611,-83.5 611,-102.5 739,-102.5 739,-83.5 611,-83.5"/>
<text text-anchor="middle" x="675" y="-90.5" font-family="Helvetica,sans-Serif" font-size="10.00" fill="#000000">zrtos_cbuffer_node__new</text>
</a>
</g>
</g>
<!-- Node97&#45;&gt;Node100 -->
<g id="edge12" class="edge">
<title>Node97&#45;&gt;Node100</title>
<path fill="none" stroke="#191970" d="M575.1701,-78.8266C583.5715,-80.0194 592.259,-81.2528 600.8433,-82.4716"/>
<polygon fill="#191970" stroke="#191970" points="600.457,-85.9518 610.8497,-83.8922 601.441,-79.0213 600.457,-85.9518"/>
</g>
<!-- Node99 -->
<g id="node12" class="node">
<title>Node99</title>
<g id="a_node12"><a xlink:href="cbuffer_8h.html#a640a4e58217d5c24d6e795f0fca19440" target="_top" xlink:title="zrtos_cbuffer_node\l__get_length">
<polygon fill="#ffffff" stroke="#000000" points="779.5,-29 779.5,-59 879.5,-59 879.5,-29 779.5,-29"/>
<text text-anchor="start" x="787.5" y="-47" font-family="Helvetica,sans-Serif" font-size="10.00" fill="#000000">zrtos_cbuffer_node</text>
<text text-anchor="middle" x="829.5" y="-36" font-family="Helvetica,sans-Serif" font-size="10.00" fill="#000000">__get_length</text>
</a>
</g>
</g>
<!-- Node98&#45;&gt;Node99 -->
<g id="edge11" class="edge">
<title>Node98&#45;&gt;Node99</title>
<path fill="none" stroke="#191970" d="M725.1617,-46.026C739.1294,-45.7548 754.45,-45.4573 768.9467,-45.1758"/>
<polygon fill="#191970" stroke="#191970" points="769.3956,-48.6678 779.3258,-44.9743 769.2597,-41.6691 769.3956,-48.6678"/>
</g>
<!-- Node101 -->
<g id="node14" class="node">
<title>Node101</title>
<g id="a_node14"><a xlink:href="malloc__limit_8h.html#ad8180a24feb846d598a7a5a6053eb3cc" target="_top" xlink:title="zrtos_malloc_limit\l__malloc">
<polygon fill="#ffffff" stroke="#000000" points="782,-78 782,-108 877,-108 877,-78 782,-78"/>
<text text-anchor="start" x="790" y="-96" font-family="Helvetica,sans-Serif" font-size="10.00" fill="#000000">zrtos_malloc_limit</text>
<text text-anchor="middle" x="829.5" y="-85" font-family="Helvetica,sans-Serif" font-size="10.00" fill="#000000">__malloc</text>
</a>
</g>
</g>
<!-- Node100&#45;&gt;Node101 -->
<g id="edge13" class="edge">
<title>Node100&#45;&gt;Node101</title>
<path fill="none" stroke="#191970" d="M739.1797,-93C749.9862,-93 761.1441,-93 771.7742,-93"/>
<polygon fill="#191970" stroke="#191970" points="771.7755,-96.5001 781.7755,-93 771.7755,-89.5001 771.7755,-96.5001"/>
</g>
<!-- Node102 -->
<g id="node15" class="node">
<title>Node102</title>
<g id="a_node15"><a xlink:href="cbuffer_8h.html#aeb332726de06c905eb2db32ae3d323eb" target="_top" xlink:title="zrtos_cbuffer_node\l__init">
<polygon fill="#ffffff" stroke="#000000" points="779.5,-127 779.5,-157 879.5,-157 879.5,-127 779.5,-127"/>
<text text-anchor="start" x="787.5" y="-145" font-family="Helvetica,sans-Serif" font-size="10.00" fill="#000000">zrtos_cbuffer_node</text>
<text text-anchor="middle" x="829.5" y="-134" font-family="Helvetica,sans-Serif" font-size="10.00" fill="#000000">__init</text>
</a>
</g>
</g>
<!-- Node100&#45;&gt;Node102 -->
<g id="edge14" class="edge">
<title>Node100&#45;&gt;Node102</title>
<path fill="none" stroke="#191970" d="M705.1559,-102.564C724.2891,-108.6321 749.6549,-116.677 772.4844,-123.9174"/>
<polygon fill="#191970" stroke="#191970" points="771.4973,-127.2761 782.0875,-126.963 773.6136,-120.6036 771.4973,-127.2761"/>
</g>
<!-- Node103 -->
<g id="node16" class="node">
<title>Node103</title>
<g id="a_node16"><a xlink:href="list_8h.html#a40feeb4cd0cc4e30201a279240b52429" target="_top" xlink:title="zrtos_list_node__init">
<polygon fill="#ffffff" stroke="#000000" points="920,-94.5 920,-113.5 1026,-113.5 1026,-94.5 920,-94.5"/>
<text text-anchor="middle" x="973" y="-101.5" font-family="Helvetica,sans-Serif" font-size="10.00" fill="#000000">zrtos_list_node__init</text>
</a>
</g>
</g>
<!-- Node102&#45;&gt;Node103 -->
<g id="edge15" class="edge">
<title>Node102&#45;&gt;Node103</title>
<path fill="none" stroke="#191970" d="M879.6893,-128.7094C895.2035,-124.6012 912.2003,-120.1003 927.3874,-116.0786"/>
<polygon fill="#191970" stroke="#191970" points="928.3016,-119.4572 937.0724,-113.5139 926.5096,-112.6905 928.3016,-119.4572"/>
</g>
<!-- Node104 -->
<g id="node17" class="node">
<title>Node104</title>
<g id="a_node17"><a xlink:href="list_8h.html#aa734984fb49603438b179f49fff38477" target="_top" xlink:title="zrtos_list__push">
<polygon fill="#ffffff" stroke="#000000" points="929,-132.5 929,-151.5 1017,-151.5 1017,-132.5 929,-132.5"/>
<text text-anchor="middle" x="973" y="-139.5" font-family="Helvetica,sans-Serif" font-size="10.00" fill="#000000">zrtos_list__push</text>
</a>
</g>
</g>
<!-- Node102&#45;&gt;Node104 -->
<g id="edge16" class="edge">
<title>Node102&#45;&gt;Node104</title>
<path fill="none" stroke="#191970" d="M879.6893,-142C892.3166,-142 905.9261,-142 918.7426,-142"/>
<polygon fill="#191970" stroke="#191970" points="918.8172,-145.5001 928.8172,-142 918.8171,-138.5001 918.8172,-145.5001"/>
</g>
<!-- Node104&#45;&gt;Node96 -->
<g id="edge17" class="edge">
<title>Node104&#45;&gt;Node96</title>
<path fill="none" stroke="#191970" d="M1002.2124,-132.4637C1010.038,-129.6564 1018.4256,-126.4147 1026,-123 1052.6649,-110.9791 1081.8294,-94.5332 1101.7441,-82.7628"/>
<polygon fill="#191970" stroke="#191970" points="1103.6703,-85.6892 1110.4632,-77.5585 1100.0826,-79.6785 1103.6703,-85.6892"/>
</g>
<!-- Node106 -->
<g id="node19" class="node">
<title>Node106</title>
<g id="a_node19"><a xlink:href="cbuffer_8h.html#a1a9cc4256c634d99003e2397924df20a" target="_top" xlink:title="zrtos_cbuffer__get">
<polygon fill="#ffffff" stroke="#000000" points="464,-236.5 464,-255.5 562,-255.5 562,-236.5 464,-236.5"/>
<text text-anchor="middle" x="513" y="-243.5" font-family="Helvetica,sans-Serif" font-size="10.00" fill="#000000">zrtos_cbuffer__get</text>
</a>
</g>
</g>
<!-- Node105&#45;&gt;Node106 -->
<g id="edge19" class="edge">
<title>Node105&#45;&gt;Node106</title>
<path fill="none" stroke="#191970" d="M403.5292,-246C419.4928,-246 437.3106,-246 453.8575,-246"/>
<polygon fill="#191970" stroke="#191970" points="453.9682,-249.5001 463.9682,-246 453.9682,-242.5001 453.9682,-249.5001"/>
</g>
<!-- Node106&#45;&gt;Node92 -->
<g id="edge20" class="edge">
<title>Node106&#45;&gt;Node92</title>
<path fill="none" stroke="#191970" d="M562.266,-240.4485C624.4547,-233.9312 734.7615,-224 829.5,-224 829.5,-224 829.5,-224 973,-224 1069.9388,-224 1097.6687,-216.4693 1190,-246 1219.2478,-255.3544 1249.4136,-274.016 1268.8574,-287.4411"/>
<polygon fill="#191970" stroke="#191970" points="1267.0561,-290.4539 1277.2424,-293.3677 1271.0965,-284.7376 1267.0561,-290.4539"/>
</g>
<!-- Node107 -->
<g id="node20" class="node">
<title>Node107</title>
<g id="a_node20"><a xlink:href="cbuffer_8h.html#ad0932ffc31c7150402dc49c28cbf2000" target="_top" xlink:title="zrtos_cbuffer_node__get">
<polygon fill="#ffffff" stroke="#000000" points="613,-275.5 613,-294.5 737,-294.5 737,-275.5 613,-275.5"/>
<text text-anchor="middle" x="675" y="-282.5" font-family="Helvetica,sans-Serif" font-size="10.00" fill="#000000">zrtos_cbuffer_node__get</text>
</a>
</g>
</g>
<!-- Node106&#45;&gt;Node107 -->
<g id="edge21" class="edge">
<title>Node106&#45;&gt;Node107</title>
<path fill="none" stroke="#191970" d="M552.6297,-255.5405C574.6776,-260.8483 602.3156,-267.5019 625.7444,-273.1422"/>
<polygon fill="#191970" stroke="#191970" points="624.9576,-276.5527 635.499,-275.4905 626.596,-269.7471 624.9576,-276.5527"/>
</g>
<!-- Node107&#45;&gt;Node94 -->
<g id="edge22" class="edge">
<title>Node107&#45;&gt;Node94</title>
<path fill="none" stroke="#191970" d="M691.4799,-294.5173C717.6718,-309.6248 766.7004,-337.8212 775,-342 778.0949,-343.5583 781.3136,-345.1199 784.5705,-346.6573"/>
<polygon fill="#191970" stroke="#191970" points="783.2331,-349.8947 793.7799,-350.9028 786.1638,-343.5377 783.2331,-349.8947"/>
</g>
<!-- Node108 -->
<g id="node21" class="node">
<title>Node108</title>
<g id="a_node21"><a xlink:href="list_8h.html#a7262d2a0c144ef76b0f45193cebb8227" target="_top" xlink:title="zrtos_list_node__has\l_next_node">
<polygon fill="#ffffff" stroke="#000000" points="775,-302 775,-332 884,-332 884,-302 775,-302"/>
<text text-anchor="start" x="783" y="-320" font-family="Helvetica,sans-Serif" font-size="10.00" fill="#000000">zrtos_list_node__has</text>
<text text-anchor="middle" x="829.5" y="-309" font-family="Helvetica,sans-Serif" font-size="10.00" fill="#000000">_next_node</text>
</a>
</g>
</g>
<!-- Node107&#45;&gt;Node108 -->
<g id="edge23" class="edge">
<title>Node107&#45;&gt;Node108</title>
<path fill="none" stroke="#191970" d="M720.9368,-294.5144C734.6684,-297.3585 749.9891,-300.5317 764.6921,-303.577"/>
<polygon fill="#191970" stroke="#191970" points="764.2433,-307.0583 774.7454,-305.6592 765.6631,-300.2037 764.2433,-307.0583"/>
</g>
<!-- Node109 -->
<g id="node22" class="node">
<title>Node109</title>
<g id="a_node22"><a xlink:href="cbuffer_8h.html#afc85ab6d8226b4a1b93d11c2ba1203f6" target="_top" xlink:title="zrtos_cbuffer_node\l__free">
<polygon fill="#ffffff" stroke="#000000" points="779.5,-253 779.5,-283 879.5,-283 879.5,-253 779.5,-253"/>
<text text-anchor="start" x="787.5" y="-271" font-family="Helvetica,sans-Serif" font-size="10.00" fill="#000000">zrtos_cbuffer_node</text>
<text text-anchor="middle" x="829.5" y="-260" font-family="Helvetica,sans-Serif" font-size="10.00" fill="#000000">__free</text>
</a>
</g>
</g>
<!-- Node107&#45;&gt;Node109 -->
<g id="edge24" class="edge">
<title>Node107&#45;&gt;Node109</title>
<path fill="none" stroke="#191970" d="M737.3957,-278.1345C747.8225,-276.9872 758.6244,-275.7986 769.0025,-274.6567"/>
<polygon fill="#191970" stroke="#191970" points="769.6526,-278.1064 779.2098,-273.5335 768.887,-271.1484 769.6526,-278.1064"/>
</g>
<!-- Node110 -->
<g id="node23" class="node">
<title>Node110</title>
<g id="a_node23"><a xlink:href="list_8h.html#a2b11d9c6f775a209430f16b719a19617" target="_top" xlink:title="zrtos_list__delete">
<polygon fill="#ffffff" stroke="#000000" points="926.5,-302.5 926.5,-321.5 1019.5,-321.5 1019.5,-302.5 926.5,-302.5"/>
<text text-anchor="middle" x="973" y="-309.5" font-family="Helvetica,sans-Serif" font-size="10.00" fill="#000000">zrtos_list__delete</text>
</a>
</g>
</g>
<!-- Node109&#45;&gt;Node110 -->
<g id="edge25" class="edge">
<title>Node109&#45;&gt;Node110</title>
<path fill="none" stroke="#191970" d="M878.4832,-283.0192C895.8306,-288.3383 915.1588,-294.2647 931.7939,-299.3654"/>
<polygon fill="#191970" stroke="#191970" points="931.175,-302.8364 941.7617,-302.4217 933.2271,-296.1439 931.175,-302.8364"/>
</g>
<!-- Node112 -->
<g id="node25" class="node">
<title>Node112</title>
<g id="a_node25"><a xlink:href="malloc__limit_8h.html#ad9dc03f9dd447b3ffb64b0ec3873f61f" target="_top" xlink:title="zrtos_malloc_limit\l__free">
<polygon fill="#ffffff" stroke="#000000" points="925.5,-253 925.5,-283 1020.5,-283 1020.5,-253 925.5,-253"/>
<text text-anchor="start" x="933.5" y="-271" font-family="Helvetica,sans-Serif" font-size="10.00" fill="#000000">zrtos_malloc_limit</text>
<text text-anchor="middle" x="973" y="-260" font-family="Helvetica,sans-Serif" font-size="10.00" fill="#000000">__free</text>
</a>
</g>
</g>
<!-- Node109&#45;&gt;Node112 -->
<g id="edge29" class="edge">
<title>Node109&#45;&gt;Node112</title>
<path fill="none" stroke="#191970" d="M879.6893,-268C891.1914,-268 903.5084,-268 915.2987,-268"/>
<polygon fill="#191970" stroke="#191970" points="915.4906,-271.5001 925.4906,-268 915.4906,-264.5001 915.4906,-271.5001"/>
</g>
<!-- Node110&#45;&gt;Node92 -->
<g id="edge26" class="edge">
<title>Node110&#45;&gt;Node92</title>
<path fill="none" stroke="#191970" d="M1019.7744,-310.672C1071.3025,-309.2091 1154.884,-306.8361 1215.4621,-305.1162"/>
<polygon fill="#191970" stroke="#191970" points="1215.8374,-308.6071 1225.734,-304.8246 1215.6386,-301.6099 1215.8374,-308.6071"/>
</g>
<!-- Node111 -->
<g id="node24" class="node">
<title>Node111</title>
<g id="a_node24"><a xlink:href="list_8h.html#aee76d71632ab03e18ad9358fc8b35044" target="_top" xlink:title="zrtos_list__shift">
<polygon fill="#ffffff" stroke="#000000" points="1083,-331.5 1083,-350.5 1169,-350.5 1169,-331.5 1083,-331.5"/>
<text text-anchor="middle" x="1126" y="-338.5" font-family="Helvetica,sans-Serif" font-size="10.00" fill="#000000">zrtos_list__shift</text>
</a>
</g>
</g>
<!-- Node110&#45;&gt;Node111 -->
<g id="edge27" class="edge">
<title>Node110&#45;&gt;Node111</title>
<path fill="none" stroke="#191970" d="M1019.7364,-320.8585C1036.5592,-324.0472 1055.6571,-327.667 1072.9771,-330.9499"/>
<polygon fill="#191970" stroke="#191970" points="1072.4619,-334.4145 1082.9388,-332.8381 1073.7655,-327.5369 1072.4619,-334.4145"/>
</g>
<!-- Node111&#45;&gt;Node92 -->
<g id="edge28" class="edge">
<title>Node111&#45;&gt;Node92</title>
<path fill="none" stroke="#191970" d="M1167.3841,-331.411C1189.1232,-326.3739 1215.9575,-320.1562 1238.9747,-314.8229"/>
<polygon fill="#191970" stroke="#191970" points="1239.9616,-318.1871 1248.9135,-312.5201 1238.3815,-311.3677 1239.9616,-318.1871"/>
</g>
<!-- Node113 -->
<g id="node26" class="node">
<title>Node113</title>
<g id="a_node26"><a xlink:href="malloc_8h.html#aeba49dabb0a21ae4e02fa137e195bb1d" target="_top" xlink:title="zrtos_malloc__get_length">
<polygon fill="#ffffff" stroke="#000000" points="1062,-255.5 1062,-274.5 1190,-274.5 1190,-255.5 1062,-255.5"/>
<text text-anchor="middle" x="1126" y="-262.5" font-family="Helvetica,sans-Serif" font-size="10.00" fill="#000000">zrtos_malloc__get_length</text>
</a>
</g>
</g>
<!-- Node112&#45;&gt;Node113 -->
<g id="edge30" class="edge">
<title>Node112&#45;&gt;Node113</title>
<path fill="none" stroke="#191970" d="M1020.5715,-267.0672C1030.4765,-266.873 1041.1403,-266.6639 1051.7465,-266.456"/>
<polygon fill="#191970" stroke="#191970" points="1051.9415,-269.9529 1061.871,-266.2574 1051.8042,-262.9542 1051.9415,-269.9529"/>
</g>
<!-- Node114&#45;&gt;Node92 -->
<g id="edge32" class="edge">
<title>Node114&#45;&gt;Node92</title>
<path fill="none" stroke="#191970" d="M1163.2832,-195.0946C1172.3291,-199.3938 1181.7614,-204.4391 1190,-210 1223.161,-232.3832 1256.0556,-265.6675 1274.6261,-285.7554"/>
<polygon fill="#191970" stroke="#191970" points="1272.127,-288.2094 1281.4493,-293.2438 1277.3013,-283.4948 1272.127,-288.2094"/>
</g>
<!-- Node116 -->
<g id="node29" class="node">
<title>Node116</title>
<g id="a_node29"><a xlink:href="list_8h.html#a454de0a8188c1b5a4ffeddd230b42c93" target="_top" xlink:title="zrtos_list_node__get\l_next_node">
<polygon fill="#ffffff" stroke="#000000" points="459.5,-354 459.5,-384 566.5,-384 566.5,-354 459.5,-354"/>
<text text-anchor="start" x="467.5" y="-372" font-family="Helvetica,sans-Serif" font-size="10.00" fill="#000000">zrtos_list_node__get</text>
<text text-anchor="middle" x="513" y="-361" font-family="Helvetica,sans-Serif" font-size="10.00" fill="#000000">_next_node</text>
</a>
</g>
</g>
<!-- Node115&#45;&gt;Node116 -->
<g id="edge34" class="edge">
<title>Node115&#45;&gt;Node116</title>
<path fill="none" stroke="#191970" d="M403.5292,-340.8602C418.0682,-344.5975 434.1451,-348.7301 449.3993,-352.6512"/>
<polygon fill="#191970" stroke="#191970" points="448.7237,-356.0913 459.2802,-355.1912 450.4665,-349.3117 448.7237,-356.0913"/>
</g>
</g>
</svg>
