<?xml version="1.0" encoding="UTF-8" standalone="no"?>
<!DOCTYPE svg PUBLIC "-//W3C//DTD SVG 1.1//EN"
 "http://www.w3.org/Graphics/SVG/1.1/DTD/svg11.dtd">
<!-- Generated by graphviz version 2.40.1 (20161225.0304)
 -->
<!-- Title: network.h Pages: 1 -->
<svg width="168pt" height="84pt"
 viewBox="0.00 0.00 167.50 84.00" xmlns="http://www.w3.org/2000/svg" xmlns:xlink="http://www.w3.org/1999/xlink">
<g id="graph0" class="graph" transform="scale(1 1) rotate(0) translate(4 80)">
<title>network.h</title>
<polygon fill="#ffffff" stroke="transparent" points="-4,4 -4,-80 163.5,-80 163.5,4 -4,4"/>
<!-- Node8 -->
<g id="node1" class="node">
<title>Node8</title>
<polygon fill="#bfbfbf" stroke="#000000" points="41,-56.5 41,-75.5 100,-75.5 100,-56.5 41,-56.5"/>
<text text-anchor="middle" x="70.5" y="-63.5" font-family="Helvetica,sans-Serif" font-size="10.00" fill="#000000">network.h</text>
</g>
<!-- Node9 -->
<g id="node2" class="node">
<title>Node9</title>
<g id="a_node2"><a xlink:href="w5500_8h.html" target="_top" xlink:title="w5500.h">
<polygon fill="#ffffff" stroke="#000000" points="0,-.5 0,-19.5 53,-19.5 53,-.5 0,-.5"/>
<text text-anchor="middle" x="26.5" y="-7.5" font-family="Helvetica,sans-Serif" font-size="10.00" fill="#000000">w5500.h</text>
</a>
</g>
</g>
<!-- Node8&#45;&gt;Node9 -->
<g id="edge1" class="edge">
<title>Node8&#45;&gt;Node9</title>
<path fill="none" stroke="#191970" d="M56.5231,-48.2112C49.0871,-38.7472 40.234,-27.4797 34.0764,-19.6427"/>
<polygon fill="#191970" stroke="#191970" points="53.9054,-50.5447 62.8358,-56.2455 59.4097,-46.22 53.9054,-50.5447"/>
</g>
<!-- Node10 -->
<g id="node3" class="node">
<title>Node10</title>
<g id="a_node3"><a xlink:href="w5500__socket_8h.html" target="_top" xlink:title="w5500_socket.h">
<polygon fill="#ffffff" stroke="#000000" points="71.5,-.5 71.5,-19.5 159.5,-19.5 159.5,-.5 71.5,-.5"/>
<text text-anchor="middle" x="115.5" y="-7.5" font-family="Helvetica,sans-Serif" font-size="10.00" fill="#000000">w5500_socket.h</text>
</a>
</g>
</g>
<!-- Node8&#45;&gt;Node10 -->
<g id="edge2" class="edge">
<title>Node8&#45;&gt;Node10</title>
<path fill="none" stroke="#191970" d="M84.7946,-48.2112C92.3996,-38.7472 101.4538,-27.4797 107.7514,-19.6427"/>
<polygon fill="#191970" stroke="#191970" points="81.8741,-46.2581 78.3384,-56.2455 87.3306,-50.6428 81.8741,-46.2581"/>
</g>
</g>
</svg>
