<?xml version="1.0" encoding="UTF-8" standalone="no"?>
<!DOCTYPE svg PUBLIC "-//W3C//DTD SVG 1.1//EN"
 "http://www.w3.org/Graphics/SVG/1.1/DTD/svg11.dtd">
<!-- Generated by graphviz version 2.40.1 (20161225.0304)
 -->
<!-- Title: zrtos_vfs_module_random__on_open Pages: 1 -->
<svg width="274pt" height="39pt"
 viewBox="0.00 0.00 274.00 39.00" xmlns="http://www.w3.org/2000/svg" xmlns:xlink="http://www.w3.org/1999/xlink">
<g id="graph0" class="graph" transform="scale(1 1) rotate(0) translate(4 35)">
<title>zrtos_vfs_module_random__on_open</title>
<polygon fill="#ffffff" stroke="transparent" points="-4,4 -4,-35 270,-35 270,4 -4,4"/>
<!-- Node0 -->
<g id="node1" class="node">
<title>Node0</title>
<polygon fill="#bfbfbf" stroke="#000000" points="0,-.5 0,-30.5 131,-30.5 131,-.5 0,-.5"/>
<text text-anchor="start" x="8" y="-18.5" font-family="Helvetica,sans-Serif" font-size="10.00" fill="#000000">zrtos_vfs_module_random</text>
<text text-anchor="middle" x="65.5" y="-7.5" font-family="Helvetica,sans-Serif" font-size="10.00" fill="#000000">__on_open</text>
</g>
<!-- Node1 -->
<g id="node2" class="node">
<title>Node1</title>
<g id="a_node2"><a xlink:href="vfs__file_8h.html#a7f3b6e275325d6d776d1eb4a91335023" target="_top" xlink:title="zrtos_vfs_file__set\l_offset">
<polygon fill="#ffffff" stroke="#000000" points="167,-.5 167,-30.5 266,-30.5 266,-.5 167,-.5"/>
<text text-anchor="start" x="175" y="-18.5" font-family="Helvetica,sans-Serif" font-size="10.00" fill="#000000">zrtos_vfs_file__set</text>
<text text-anchor="middle" x="216.5" y="-7.5" font-family="Helvetica,sans-Serif" font-size="10.00" fill="#000000">_offset</text>
</a>
</g>
</g>
<!-- Node0&#45;&gt;Node1 -->
<g id="edge1" class="edge">
<title>Node0&#45;&gt;Node1</title>
<path fill="none" stroke="#191970" d="M131.2915,-15.5C139.7668,-15.5 148.4081,-15.5 156.7785,-15.5"/>
<polygon fill="#191970" stroke="#191970" points="156.825,-19.0001 166.8249,-15.5 156.8249,-12.0001 156.825,-19.0001"/>
</g>
</g>
</svg>
