<?xml version="1.0" encoding="UTF-8" standalone="no"?>
<!DOCTYPE svg PUBLIC "-//W3C//DTD SVG 1.1//EN"
 "http://www.w3.org/Graphics/SVG/1.1/DTD/svg11.dtd">
<!-- Generated by graphviz version 10.0.1 (20240210.2158)
 -->
<!-- Title: random.h Pages: 1 -->
<svg width="565pt" height="376pt"
 viewBox="0.00 0.00 564.93 376.00" xmlns="http://www.w3.org/2000/svg" xmlns:xlink="http://www.w3.org/1999/xlink">
<g id="graph0" class="graph" transform="scale(1 1) rotate(0) translate(4 372)">
<title>random.h</title>
<!-- Node1 -->
<g id="Node000001" class="node">
<title>Node1</title>
<g id="a_Node000001"><a xlink:title=" ">
<polygon fill="#999999" stroke="#666666" points="329.25,-368 272.75,-368 272.75,-348 329.25,-348 329.25,-368"/>
<text text-anchor="middle" x="301" y="-354.5" font-family="Helvetica,sans-Serif" font-size="10.00">random.h</text>
</a>
</g>
</g>
<!-- Node2 -->
<g id="Node000002" class="node">
<title>Node2</title>
<g id="a_Node000002"><a xlink:href="cast_8h.html" target="_top" xlink:title=" ">
<polygon fill="white" stroke="#666666" points="71.88,-76 4.12,-76 4.12,-56 71.88,-56 71.88,-76"/>
<text text-anchor="middle" x="38" y="-62.5" font-family="Helvetica,sans-Serif" font-size="10.00">zrtos/cast.h</text>
</a>
</g>
</g>
<!-- Node1&#45;&gt;Node2 -->
<g id="edge1_Node000001_Node000002" class="edge">
<title>Node1&#45;&gt;Node2</title>
<g id="a_edge1_Node000001_Node000002"><a xlink:title=" ">
<path fill="none" stroke="#63b8ff" d="M272.41,-352.82C197.28,-341.05 0,-304.65 0,-247 0,-247 0,-247 0,-183 0,-147.47 16.3,-108.72 27.55,-86.21"/>
<polygon fill="#63b8ff" stroke="#63b8ff" points="30.5,-88.11 32.02,-77.63 24.3,-84.88 30.5,-88.11"/>
</a>
</g>
</g>
<!-- Node3 -->
<g id="Node000003" class="node">
<title>Node3</title>
<g id="a_Node000003"><a xlink:href="vfs__plugin_8h.html" target="_top" xlink:title=" ">
<polygon fill="white" stroke="#666666" points="493.5,-132 402.5,-132 402.5,-112 493.5,-112 493.5,-132"/>
<text text-anchor="middle" x="448" y="-118.5" font-family="Helvetica,sans-Serif" font-size="10.00">zrtos/vfs_plugin.h</text>
</a>
</g>
</g>
<!-- Node1&#45;&gt;Node3 -->
<g id="edge2_Node000001_Node000003" class="edge">
<title>Node1&#45;&gt;Node3</title>
<g id="a_edge2_Node000001_Node000003"><a xlink:title=" ">
<path fill="none" stroke="#63b8ff" d="M329.63,-348.94C384.09,-331.88 501.45,-286.38 549,-200 555.86,-187.54 556.74,-179.93 549,-168 538.83,-152.33 521.8,-142.07 504.59,-135.38"/>
<polygon fill="#63b8ff" stroke="#63b8ff" points="505.94,-132.14 495.34,-132.15 503.63,-138.75 505.94,-132.14"/>
</a>
</g>
</g>
<!-- Node12 -->
<g id="Node000012" class="node">
<title>Node12</title>
<g id="a_Node000012"><a xlink:href="vfs__file_8h.html" target="_top" xlink:title=" ">
<polygon fill="white" stroke="#666666" points="339.75,-312 262.25,-312 262.25,-292 339.75,-292 339.75,-312"/>
<text text-anchor="middle" x="301" y="-298.5" font-family="Helvetica,sans-Serif" font-size="10.00">zrtos/vfs_file.h</text>
</a>
</g>
</g>
<!-- Node1&#45;&gt;Node12 -->
<g id="edge12_Node000001_Node000012" class="edge">
<title>Node1&#45;&gt;Node12</title>
<g id="a_edge12_Node000001_Node000012"><a xlink:title=" ">
<path fill="none" stroke="#63b8ff" d="M301,-347.59C301,-341.01 301,-331.96 301,-323.73"/>
<polygon fill="#63b8ff" stroke="#63b8ff" points="304.5,-323.81 301,-313.81 297.5,-323.81 304.5,-323.81"/>
</a>
</g>
</g>
<!-- Node4 -->
<g id="Node000004" class="node">
<title>Node4</title>
<g id="a_Node000004"><a xlink:title=" ">
<polygon fill="#e0e0e0" stroke="#999999" points="362.62,-76 311.38,-76 311.38,-56 362.62,-56 362.62,-76"/>
<text text-anchor="middle" x="337" y="-62.5" font-family="Helvetica,sans-Serif" font-size="10.00">stdarg.h</text>
</a>
</g>
</g>
<!-- Node3&#45;&gt;Node4 -->
<g id="edge3_Node000003_Node000004" class="edge">
<title>Node3&#45;&gt;Node4</title>
<g id="a_edge3_Node000003_Node000004"><a xlink:title=" ">
<path fill="none" stroke="#63b8ff" d="M428.67,-111.59C411.58,-103.28 386.4,-91.03 366.75,-81.47"/>
<polygon fill="#63b8ff" stroke="#63b8ff" points="368.37,-78.37 357.85,-77.14 365.31,-84.66 368.37,-78.37"/>
</a>
</g>
</g>
<!-- Node5 -->
<g id="Node000005" class="node">
<title>Node5</title>
<g id="a_Node000005"><a xlink:href="types_8h.html" target="_top" xlink:title=" ">
<polygon fill="white" stroke="#666666" points="288.5,-76 215.5,-76 215.5,-56 288.5,-56 288.5,-76"/>
<text text-anchor="middle" x="252" y="-62.5" font-family="Helvetica,sans-Serif" font-size="10.00">zrtos/types.h</text>
</a>
</g>
</g>
<!-- Node3&#45;&gt;Node5 -->
<g id="edge4_Node000003_Node000005" class="edge">
<title>Node3&#45;&gt;Node5</title>
<g id="a_edge4_Node000003_Node000005"><a xlink:title=" ">
<path fill="none" stroke="#63b8ff" d="M413.86,-111.59C381.6,-102.71 332.98,-89.31 297.45,-79.52"/>
<polygon fill="#63b8ff" stroke="#63b8ff" points="298.44,-76.16 287.87,-76.88 296.58,-82.91 298.44,-76.16"/>
</a>
</g>
</g>
<!-- Node10 -->
<g id="Node000010" class="node">
<title>Node10</title>
<g id="a_Node000010"><a xlink:href="error_8h.html" target="_top" xlink:title=" ">
<polygon fill="white" stroke="#666666" points="483.25,-76 414.75,-76 414.75,-56 483.25,-56 483.25,-76"/>
<text text-anchor="middle" x="449" y="-62.5" font-family="Helvetica,sans-Serif" font-size="10.00">zrtos/error.h</text>
</a>
</g>
</g>
<!-- Node3&#45;&gt;Node10 -->
<g id="edge9_Node000003_Node000010" class="edge">
<title>Node3&#45;&gt;Node10</title>
<g id="a_edge9_Node000003_Node000010"><a xlink:title=" ">
<path fill="none" stroke="#63b8ff" d="M448.17,-111.59C448.3,-105.01 448.46,-95.96 448.62,-87.73"/>
<polygon fill="#63b8ff" stroke="#63b8ff" points="452.11,-87.87 448.8,-77.81 445.12,-87.75 452.11,-87.87"/>
</a>
</g>
</g>
<!-- Node6 -->
<g id="Node000006" class="node">
<title>Node6</title>
<g id="a_Node000006"><a xlink:title=" ">
<polygon fill="#e0e0e0" stroke="#999999" points="195.88,-20 140.12,-20 140.12,0 195.88,0 195.88,-20"/>
<text text-anchor="middle" x="168" y="-6.5" font-family="Helvetica,sans-Serif" font-size="10.00">stdbool.h</text>
</a>
</g>
</g>
<!-- Node5&#45;&gt;Node6 -->
<g id="edge5_Node000005_Node000006" class="edge">
<title>Node5&#45;&gt;Node6</title>
<g id="a_edge5_Node000005_Node000006"><a xlink:title=" ">
<path fill="none" stroke="#63b8ff" d="M237.37,-55.59C224.92,-47.59 206.78,-35.93 192.18,-26.54"/>
<polygon fill="#63b8ff" stroke="#63b8ff" points="194.32,-23.76 184.02,-21.3 190.54,-29.65 194.32,-23.76"/>
</a>
</g>
</g>
<!-- Node7 -->
<g id="Node000007" class="node">
<title>Node7</title>
<g id="a_Node000007"><a xlink:title=" ">
<polygon fill="#e0e0e0" stroke="#999999" points="264.25,-20 213.75,-20 213.75,0 264.25,0 264.25,-20"/>
<text text-anchor="middle" x="239" y="-6.5" font-family="Helvetica,sans-Serif" font-size="10.00">stddef.h</text>
</a>
</g>
</g>
<!-- Node5&#45;&gt;Node7 -->
<g id="edge6_Node000005_Node000007" class="edge">
<title>Node5&#45;&gt;Node7</title>
<g id="a_edge6_Node000005_Node000007"><a xlink:title=" ">
<path fill="none" stroke="#63b8ff" d="M249.74,-55.59C248.13,-48.93 245.92,-39.75 243.92,-31.44"/>
<polygon fill="#63b8ff" stroke="#63b8ff" points="247.34,-30.67 241.59,-21.77 240.53,-32.31 247.34,-30.67"/>
</a>
</g>
</g>
<!-- Node8 -->
<g id="Node000008" class="node">
<title>Node8</title>
<g id="a_Node000008"><a xlink:title=" ">
<polygon fill="#e0e0e0" stroke="#999999" points="330.12,-20 281.88,-20 281.88,0 330.12,0 330.12,-20"/>
<text text-anchor="middle" x="306" y="-6.5" font-family="Helvetica,sans-Serif" font-size="10.00">stdint.h</text>
</a>
</g>
</g>
<!-- Node5&#45;&gt;Node8 -->
<g id="edge7_Node000005_Node000008" class="edge">
<title>Node5&#45;&gt;Node8</title>
<g id="a_edge7_Node000005_Node000008"><a xlink:title=" ">
<path fill="none" stroke="#63b8ff" d="M261.41,-55.59C268.92,-48.08 279.65,-37.35 288.7,-28.3"/>
<polygon fill="#63b8ff" stroke="#63b8ff" points="291.04,-30.91 295.63,-21.37 286.09,-25.96 291.04,-30.91"/>
</a>
</g>
</g>
<!-- Node9 -->
<g id="Node000009" class="node">
<title>Node9</title>
<g id="a_Node000009"><a xlink:title=" ">
<polygon fill="#e0e0e0" stroke="#999999" points="395.75,-20 348.25,-20 348.25,0 395.75,0 395.75,-20"/>
<text text-anchor="middle" x="372" y="-6.5" font-family="Helvetica,sans-Serif" font-size="10.00">limits.h</text>
</a>
</g>
</g>
<!-- Node5&#45;&gt;Node9 -->
<g id="edge8_Node000005_Node000009" class="edge">
<title>Node5&#45;&gt;Node9</title>
<g id="a_edge8_Node000005_Node000009"><a xlink:title=" ">
<path fill="none" stroke="#63b8ff" d="M272.9,-55.59C291.63,-47.17 319.36,-34.69 340.72,-25.07"/>
<polygon fill="#63b8ff" stroke="#63b8ff" points="341.87,-28.4 349.55,-21.1 339,-22.01 341.87,-28.4"/>
</a>
</g>
</g>
<!-- Node10&#45;&gt;Node9 -->
<g id="edge10_Node000010_Node000009" class="edge">
<title>Node10&#45;&gt;Node9</title>
<g id="a_edge10_Node000010_Node000009"><a xlink:title=" ">
<path fill="none" stroke="#63b8ff" d="M435.59,-55.59C424.39,-47.74 408.19,-36.38 394.94,-27.09"/>
<polygon fill="#63b8ff" stroke="#63b8ff" points="396.95,-24.22 386.76,-21.35 392.93,-29.96 396.95,-24.22"/>
</a>
</g>
</g>
<!-- Node11 -->
<g id="Node000011" class="node">
<title>Node11</title>
<g id="a_Node000011"><a xlink:href="assert_8h.html" target="_top" xlink:title=" ">
<polygon fill="white" stroke="#666666" points="490,-20 414,-20 414,0 490,0 490,-20"/>
<text text-anchor="middle" x="452" y="-6.5" font-family="Helvetica,sans-Serif" font-size="10.00">zrtos/assert.h</text>
</a>
</g>
</g>
<!-- Node10&#45;&gt;Node11 -->
<g id="edge11_Node000010_Node000011" class="edge">
<title>Node10&#45;&gt;Node11</title>
<g id="a_edge11_Node000010_Node000011"><a xlink:title=" ">
<path fill="none" stroke="#63b8ff" d="M449.52,-55.59C449.89,-49.01 450.39,-39.96 450.85,-31.73"/>
<polygon fill="#63b8ff" stroke="#63b8ff" points="454.34,-31.99 451.4,-21.81 447.35,-31.6 454.34,-31.99"/>
</a>
</g>
</g>
<!-- Node12&#45;&gt;Node10 -->
<g id="edge13_Node000012_Node000010" class="edge">
<title>Node12&#45;&gt;Node10</title>
<g id="a_edge13_Node000012_Node000010"><a xlink:title=" ">
<path fill="none" stroke="#63b8ff" d="M339.82,-298.11C396.93,-291.52 501.91,-270.02 549,-200 578.6,-155.99 514.31,-106.7 475.58,-82.34"/>
<polygon fill="#63b8ff" stroke="#63b8ff" points="477.54,-79.44 467.18,-77.21 473.89,-85.41 477.54,-79.44"/>
</a>
</g>
</g>
<!-- Node13 -->
<g id="Node000013" class="node">
<title>Node13</title>
<g id="a_Node000013"><a xlink:href="bitfield_8h.html" target="_top" xlink:title=" ">
<polygon fill="white" stroke="#666666" points="154.38,-194 77.62,-194 77.62,-174 154.38,-174 154.38,-194"/>
<text text-anchor="middle" x="116" y="-180.5" font-family="Helvetica,sans-Serif" font-size="10.00">zrtos/bitfield.h</text>
</a>
</g>
</g>
<!-- Node12&#45;&gt;Node13 -->
<g id="edge14_Node000012_Node000013" class="edge">
<title>Node12&#45;&gt;Node13</title>
<g id="a_edge14_Node000012_Node000013"><a xlink:title=" ">
<path fill="none" stroke="#63b8ff" d="M285.86,-291.51C253.94,-271.49 179.47,-224.8 140.6,-200.42"/>
<polygon fill="#63b8ff" stroke="#63b8ff" points="142.7,-197.61 132.37,-195.27 138.98,-203.54 142.7,-197.61"/>
</a>
</g>
</g>
<!-- Node15 -->
<g id="Node000015" class="node">
<title>Node15</title>
<g id="a_Node000015"><a xlink:href="vfs__dentry_8h.html" target="_top" xlink:title=" ">
<polygon fill="white" stroke="#666666" points="347.25,-256 254.75,-256 254.75,-236 347.25,-236 347.25,-256"/>
<text text-anchor="middle" x="301" y="-242.5" font-family="Helvetica,sans-Serif" font-size="10.00">zrtos/vfs_dentry.h</text>
</a>
</g>
</g>
<!-- Node12&#45;&gt;Node15 -->
<g id="edge19_Node000012_Node000015" class="edge">
<title>Node12&#45;&gt;Node15</title>
<g id="a_edge19_Node000012_Node000015"><a xlink:title=" ">
<path fill="none" stroke="#63b8ff" d="M301,-291.59C301,-285.01 301,-275.96 301,-267.73"/>
<polygon fill="#63b8ff" stroke="#63b8ff" points="304.5,-267.81 301,-257.81 297.5,-267.81 304.5,-267.81"/>
</a>
</g>
</g>
<!-- Node13&#45;&gt;Node5 -->
<g id="edge15_Node000013_Node000005" class="edge">
<title>Node13&#45;&gt;Node5</title>
<g id="a_edge15_Node000013_Node000005"><a xlink:title=" ">
<path fill="none" stroke="#63b8ff" d="M108.57,-173.79C97.84,-159.3 80.76,-130.89 95,-112 108.22,-94.46 162.94,-81.67 204.09,-74.3"/>
<polygon fill="#63b8ff" stroke="#63b8ff" points="204.54,-77.78 213.8,-72.63 203.35,-70.88 204.54,-77.78"/>
</a>
</g>
</g>
<!-- Node14 -->
<g id="Node000014" class="node">
<title>Node14</title>
<g id="a_Node000014"><a xlink:href="mem_8h.html" target="_top" xlink:title=" ">
<polygon fill="white" stroke="#666666" points="174.38,-132 103.62,-132 103.62,-112 174.38,-112 174.38,-132"/>
<text text-anchor="middle" x="139" y="-118.5" font-family="Helvetica,sans-Serif" font-size="10.00">zrtos/mem.h</text>
</a>
</g>
</g>
<!-- Node13&#45;&gt;Node14 -->
<g id="edge16_Node000013_Node000014" class="edge">
<title>Node13&#45;&gt;Node14</title>
<g id="a_edge16_Node000013_Node000014"><a xlink:title=" ">
<path fill="none" stroke="#63b8ff" d="M119.59,-173.62C122.75,-165.39 127.45,-153.13 131.43,-142.74"/>
<polygon fill="#63b8ff" stroke="#63b8ff" points="134.65,-144.12 134.97,-133.53 128.12,-141.61 134.65,-144.12"/>
</a>
</g>
</g>
<!-- Node14&#45;&gt;Node2 -->
<g id="edge18_Node000014_Node000002" class="edge">
<title>Node14&#45;&gt;Node2</title>
<g id="a_edge18_Node000014_Node000002"><a xlink:title=" ">
<path fill="none" stroke="#63b8ff" d="M121.41,-111.59C106.08,-103.4 83.58,-91.37 65.81,-81.87"/>
<polygon fill="#63b8ff" stroke="#63b8ff" points="67.53,-78.82 57.06,-77.19 64.23,-84.99 67.53,-78.82"/>
</a>
</g>
</g>
<!-- Node14&#45;&gt;Node5 -->
<g id="edge17_Node000014_Node000005" class="edge">
<title>Node14&#45;&gt;Node5</title>
<g id="a_edge17_Node000014_Node000005"><a xlink:title=" ">
<path fill="none" stroke="#63b8ff" d="M158.68,-111.59C176.16,-103.24 201.95,-90.92 222,-81.34"/>
<polygon fill="#63b8ff" stroke="#63b8ff" points="223.28,-84.6 230.8,-77.13 220.27,-78.29 223.28,-84.6"/>
</a>
</g>
</g>
<!-- Node15&#45;&gt;Node5 -->
<g id="edge25_Node000015_Node000005" class="edge">
<title>Node15&#45;&gt;Node5</title>
<g id="a_edge25_Node000015_Node000005"><a xlink:title=" ">
<path fill="none" stroke="#63b8ff" d="M304.11,-235.72C311.09,-213.22 325.9,-154.48 306,-112 300.43,-100.11 290,-90.26 279.78,-82.84"/>
<polygon fill="#63b8ff" stroke="#63b8ff" points="281.74,-79.94 271.48,-77.32 277.87,-85.77 281.74,-79.94"/>
</a>
</g>
</g>
<!-- Node16 -->
<g id="Node000016" class="node">
<title>Node16</title>
<g id="a_Node000016"><a xlink:href="str_8h.html" target="_top" xlink:title=" ">
<polygon fill="white" stroke="#666666" points="233.12,-194 172.88,-194 172.88,-174 233.12,-174 233.12,-194"/>
<text text-anchor="middle" x="203" y="-180.5" font-family="Helvetica,sans-Serif" font-size="10.00">zrtos/str.h</text>
</a>
</g>
</g>
<!-- Node15&#45;&gt;Node16 -->
<g id="edge20_Node000015_Node000016" class="edge">
<title>Node15&#45;&gt;Node16</title>
<g id="a_edge20_Node000015_Node000016"><a xlink:title=" ">
<path fill="none" stroke="#63b8ff" d="M285.69,-235.62C270.23,-226.16 246.09,-211.38 227.88,-200.23"/>
<polygon fill="#63b8ff" stroke="#63b8ff" points="229.85,-197.34 219.5,-195.1 226.2,-203.31 229.85,-197.34"/>
</a>
</g>
</g>
<!-- Node17 -->
<g id="Node000017" class="node">
<title>Node17</title>
<g id="a_Node000017"><a xlink:href="clist_8h.html" target="_top" xlink:title=" ">
<polygon fill="white" stroke="#666666" points="297.5,-132 230.5,-132 230.5,-112 297.5,-112 297.5,-132"/>
<text text-anchor="middle" x="264" y="-118.5" font-family="Helvetica,sans-Serif" font-size="10.00">zrtos/clist.h</text>
</a>
</g>
</g>
<!-- Node15&#45;&gt;Node17 -->
<g id="edge26_Node000015_Node000017" class="edge">
<title>Node15&#45;&gt;Node17</title>
<g id="a_edge26_Node000015_Node000017"><a xlink:title=" ">
<path fill="none" stroke="#63b8ff" d="M298.07,-235.7C295.22,-226.61 290.77,-212.37 287,-200 281.16,-180.84 274.63,-158.94 270.03,-143.41"/>
<polygon fill="#63b8ff" stroke="#63b8ff" points="273.42,-142.54 267.23,-133.95 266.71,-144.53 273.42,-142.54"/>
</a>
</g>
</g>
<!-- Node18 -->
<g id="Node000018" class="node">
<title>Node18</title>
<g id="a_Node000018"><a xlink:href="vfs__inode_8h.html" target="_top" xlink:title=" ">
<polygon fill="white" stroke="#666666" points="417.38,-194 328.62,-194 328.62,-174 417.38,-174 417.38,-194"/>
<text text-anchor="middle" x="373" y="-180.5" font-family="Helvetica,sans-Serif" font-size="10.00">zrtos/vfs_inode.h</text>
</a>
</g>
</g>
<!-- Node15&#45;&gt;Node18 -->
<g id="edge28_Node000015_Node000018" class="edge">
<title>Node15&#45;&gt;Node18</title>
<g id="a_edge28_Node000015_Node000018"><a xlink:title=" ">
<path fill="none" stroke="#63b8ff" d="M312.25,-235.62C323.2,-226.5 340.07,-212.45 353.25,-201.46"/>
<polygon fill="#63b8ff" stroke="#63b8ff" points="355.46,-204.17 360.9,-195.08 350.98,-198.79 355.46,-204.17"/>
</a>
</g>
</g>
<!-- Node19 -->
<g id="Node000019" class="node">
<title>Node19</title>
<g id="a_Node000019"><a xlink:href="null_8h.html" target="_top" xlink:title=" ">
<polygon fill="white" stroke="#666666" points="540.25,-200 435.75,-200 435.75,-168 540.25,-168 540.25,-200"/>
<text text-anchor="start" x="443.75" y="-186.5" font-family="Helvetica,sans-Serif" font-size="10.00">zrtos/vfs/module/null</text>
<text text-anchor="middle" x="488" y="-174.5" font-family="Helvetica,sans-Serif" font-size="10.00">/null.h</text>
</a>
</g>
</g>
<!-- Node15&#45;&gt;Node19 -->
<g id="edge30_Node000015_Node000019" class="edge">
<title>Node15&#45;&gt;Node19</title>
<g id="a_edge30_Node000015_Node000019"><a xlink:title=" ">
<path fill="none" stroke="#63b8ff" d="M330.22,-235.62C356.52,-227.19 395.98,-214.53 428.85,-203.98"/>
<polygon fill="#63b8ff" stroke="#63b8ff" points="429.83,-207.34 438.28,-200.95 427.69,-200.68 429.83,-207.34"/>
</a>
</g>
</g>
<!-- Node16&#45;&gt;Node2 -->
<g id="edge23_Node000016_Node000002" class="edge">
<title>Node16&#45;&gt;Node2</title>
<g id="a_edge23_Node000016_Node000002"><a xlink:title=" ">
<path fill="none" stroke="#63b8ff" d="M180.35,-173.6C153.1,-162.07 109.24,-142.74 95,-132 77.64,-118.91 61.68,-99.83 51.09,-85.72"/>
<polygon fill="#63b8ff" stroke="#63b8ff" points="53.98,-83.75 45.27,-77.71 48.32,-87.86 53.98,-83.75"/>
</a>
</g>
</g>
<!-- Node16&#45;&gt;Node4 -->
<g id="edge21_Node000016_Node000004" class="edge">
<title>Node16&#45;&gt;Node4</title>
<g id="a_edge21_Node000016_Node000004"><a xlink:title=" ">
<path fill="none" stroke="#63b8ff" d="M233.31,-174.01C255.76,-166.05 285.83,-152.47 306,-132 318.35,-119.46 326.49,-101.06 331.32,-87.03"/>
<polygon fill="#63b8ff" stroke="#63b8ff" points="334.65,-88.12 334.28,-77.54 327.96,-86.04 334.65,-88.12"/>
</a>
</g>
</g>
<!-- Node16&#45;&gt;Node5 -->
<g id="edge22_Node000016_Node000005" class="edge">
<title>Node16&#45;&gt;Node5</title>
<g id="a_edge22_Node000016_Node000005"><a xlink:title=" ">
<path fill="none" stroke="#63b8ff" d="M204.25,-173.92C206.38,-160.07 211.44,-133.08 221,-112 225.24,-102.64 231.44,-93.15 237.18,-85.31"/>
<polygon fill="#63b8ff" stroke="#63b8ff" points="239.79,-87.66 243.11,-77.6 234.24,-83.4 239.79,-87.66"/>
</a>
</g>
</g>
<!-- Node16&#45;&gt;Node14 -->
<g id="edge24_Node000016_Node000014" class="edge">
<title>Node16&#45;&gt;Node14</title>
<g id="a_edge24_Node000016_Node000014"><a xlink:title=" ">
<path fill="none" stroke="#63b8ff" d="M193,-173.62C183.36,-164.59 168.57,-150.72 156.9,-139.78"/>
<polygon fill="#63b8ff" stroke="#63b8ff" points="159.51,-137.43 149.82,-133.15 154.73,-142.54 159.51,-137.43"/>
</a>
</g>
</g>
<!-- Node17&#45;&gt;Node5 -->
<g id="edge27_Node000017_Node000005" class="edge">
<title>Node17&#45;&gt;Node5</title>
<g id="a_edge27_Node000017_Node000005"><a xlink:title=" ">
<path fill="none" stroke="#63b8ff" d="M261.91,-111.59C260.43,-104.93 258.39,-95.75 256.54,-87.44"/>
<polygon fill="#63b8ff" stroke="#63b8ff" points="259.98,-86.78 254.39,-77.78 253.15,-88.3 259.98,-86.78"/>
</a>
</g>
</g>
<!-- Node18&#45;&gt;Node3 -->
<g id="edge29_Node000018_Node000003" class="edge">
<title>Node18&#45;&gt;Node3</title>
<g id="a_edge29_Node000018_Node000003"><a xlink:title=" ">
<path fill="none" stroke="#63b8ff" d="M384.72,-173.62C396.23,-164.41 414.03,-150.17 427.83,-139.14"/>
<polygon fill="#63b8ff" stroke="#63b8ff" points="429.8,-142.04 435.43,-133.06 425.43,-136.57 429.8,-142.04"/>
</a>
</g>
</g>
<!-- Node19&#45;&gt;Node3 -->
<g id="edge31_Node000019_Node000003" class="edge">
<title>Node19&#45;&gt;Node3</title>
<g id="a_edge31_Node000019_Node000003"><a xlink:title=" ">
<path fill="none" stroke="#63b8ff" d="M477.7,-167.55C472.49,-159.74 466.12,-150.19 460.62,-141.94"/>
<polygon fill="#63b8ff" stroke="#63b8ff" points="463.57,-140.05 455.11,-133.67 457.75,-143.93 463.57,-140.05"/>
</a>
</g>
</g>
</g>
</svg>
