<?xml version="1.0" encoding="UTF-8" standalone="no"?>
<!DOCTYPE svg PUBLIC "-//W3C//DTD SVG 1.1//EN"
 "http://www.w3.org/Graphics/SVG/1.1/DTD/svg11.dtd">
<!-- Generated by graphviz version 2.40.1 (20161225.0304)
 -->
<!-- Title: zrtos_vfs_module_modbus_rtu__on_write Pages: 1 -->
<svg width="1469pt" height="403pt"
 viewBox="0.00 0.00 1469.00 403.00" xmlns="http://www.w3.org/2000/svg" xmlns:xlink="http://www.w3.org/1999/xlink">
<g id="graph0" class="graph" transform="scale(1 1) rotate(0) translate(4 399)">
<title>zrtos_vfs_module_modbus_rtu__on_write</title>
<polygon fill="#ffffff" stroke="transparent" points="-4,4 -4,-399 1465,-399 1465,4 -4,4"/>
<!-- Node189 -->
<g id="node1" class="node">
<title>Node189</title>
<polygon fill="#bfbfbf" stroke="#000000" points="0,-205.5 0,-235.5 134,-235.5 134,-205.5 0,-205.5"/>
<text text-anchor="start" x="8" y="-223.5" font-family="Helvetica,sans-Serif" font-size="10.00" fill="#000000">zrtos_vfs_module_modbus</text>
<text text-anchor="middle" x="67" y="-212.5" font-family="Helvetica,sans-Serif" font-size="10.00" fill="#000000">_rtu__on_write</text>
</g>
<!-- Node190 -->
<g id="node2" class="node">
<title>Node190</title>
<g id="a_node2"><a xlink:href="vfs__file_8h.html#af192d2176bcd9a795fe8253a0759b0c7" target="_top" xlink:title="zrtos_vfs_file__get\l_inode_data">
<polygon fill="#ffffff" stroke="#000000" points="191.5,-364.5 191.5,-394.5 290.5,-394.5 290.5,-364.5 191.5,-364.5"/>
<text text-anchor="start" x="199.5" y="-382.5" font-family="Helvetica,sans-Serif" font-size="10.00" fill="#000000">zrtos_vfs_file__get</text>
<text text-anchor="middle" x="241" y="-371.5" font-family="Helvetica,sans-Serif" font-size="10.00" fill="#000000">_inode_data</text>
</a>
</g>
</g>
<!-- Node189&#45;&gt;Node190 -->
<g id="edge1" class="edge">
<title>Node189&#45;&gt;Node190</title>
<path fill="none" stroke="#191970" d="M74.7014,-235.8403C89.4346,-263.6793 124.2551,-322.6687 170,-355.5 173.7279,-358.1755 177.776,-360.5693 181.9855,-362.7083"/>
<polygon fill="#191970" stroke="#191970" points="180.8453,-366.0349 191.3966,-366.9942 183.7465,-359.6644 180.8453,-366.0349"/>
</g>
<!-- Node191 -->
<g id="node3" class="node">
<title>Node191</title>
<g id="a_node3"><a xlink:href="rtu_8h.html#aa413ad116104478c8f81c06609da6f3a" target="_top" xlink:title="zrtos_vfs_module_modbus\l_rtu__crc_str">
<polygon fill="#ffffff" stroke="#000000" points="174,-315.5 174,-345.5 308,-345.5 308,-315.5 174,-315.5"/>
<text text-anchor="start" x="182" y="-333.5" font-family="Helvetica,sans-Serif" font-size="10.00" fill="#000000">zrtos_vfs_module_modbus</text>
<text text-anchor="middle" x="241" y="-322.5" font-family="Helvetica,sans-Serif" font-size="10.00" fill="#000000">_rtu__crc_str</text>
</a>
</g>
</g>
<!-- Node189&#45;&gt;Node191 -->
<g id="edge2" class="edge">
<title>Node189&#45;&gt;Node191</title>
<path fill="none" stroke="#191970" d="M83.5113,-235.5426C103.0788,-252.8246 137.1814,-281.2677 170,-300.5 176.5086,-304.3142 183.5937,-307.9033 190.6859,-311.1815"/>
<polygon fill="#191970" stroke="#191970" points="189.7476,-314.5943 200.3078,-315.4511 192.5868,-308.1959 189.7476,-314.5943"/>
</g>
<!-- Node193 -->
<g id="node5" class="node">
<title>Node193</title>
<g id="a_node5"><a xlink:href="msg__queue_8h.html#a8d4b5575ad52b762ce101a31c5a29768" target="_top" xlink:title="zrtos_msg_queue__start\l_write_transaction">
<polygon fill="#ffffff" stroke="#000000" points="355,-143.5 355,-173.5 479,-173.5 479,-143.5 355,-143.5"/>
<text text-anchor="start" x="363" y="-161.5" font-family="Helvetica,sans-Serif" font-size="10.00" fill="#000000">zrtos_msg_queue__start</text>
<text text-anchor="middle" x="417" y="-150.5" font-family="Helvetica,sans-Serif" font-size="10.00" fill="#000000">_write_transaction</text>
</a>
</g>
</g>
<!-- Node189&#45;&gt;Node193 -->
<g id="edge4" class="edge">
<title>Node189&#45;&gt;Node193</title>
<path fill="none" stroke="#191970" d="M97.7797,-205.4776C117.8555,-196.3811 144.8995,-185.4254 170,-179.5 227.799,-165.8555 295.0547,-160.819 344.7781,-159.075"/>
<polygon fill="#191970" stroke="#191970" points="344.9116,-162.5726 354.7965,-158.7597 344.6913,-155.5761 344.9116,-162.5726"/>
</g>
<!-- Node197 -->
<g id="node9" class="node">
<title>Node197</title>
<g id="a_node9"><a xlink:href="error_8h.html#add13298163f63b7d37ed9f12d57e1a31" target="_top" xlink:title="zrtos_error__is_success">
<polygon fill="#ffffff" stroke="#000000" points="522,-269 522,-288 645,-288 645,-269 522,-269"/>
<text text-anchor="middle" x="583.5" y="-276" font-family="Helvetica,sans-Serif" font-size="10.00" fill="#000000">zrtos_error__is_success</text>
</a>
</g>
</g>
<!-- Node189&#45;&gt;Node197 -->
<g id="edge8" class="edge">
<title>Node189&#45;&gt;Node197</title>
<path fill="none" stroke="#191970" d="M92.6422,-235.7112C112.8806,-246.8331 142.2374,-261.0556 170,-267.5 287.3495,-294.7398 428.4608,-291.0033 511.8025,-285.1904"/>
<polygon fill="#191970" stroke="#191970" points="512.2037,-288.6705 521.9234,-284.4543 511.6958,-281.689 512.2037,-288.6705"/>
</g>
<!-- Node198 -->
<g id="node10" class="node">
<title>Node198</title>
<g id="a_node10"><a xlink:href="msg__queue_8h.html#a9f24485c49e6b6ba13406e9a5d1f352d" target="_top" xlink:title="zrtos_msg_queue__put\l_length">
<polygon fill="#ffffff" stroke="#000000" points="182,-227.5 182,-257.5 300,-257.5 300,-227.5 182,-227.5"/>
<text text-anchor="start" x="190" y="-245.5" font-family="Helvetica,sans-Serif" font-size="10.00" fill="#000000">zrtos_msg_queue__put</text>
<text text-anchor="middle" x="241" y="-234.5" font-family="Helvetica,sans-Serif" font-size="10.00" fill="#000000">_length</text>
</a>
</g>
</g>
<!-- Node189&#45;&gt;Node198 -->
<g id="edge9" class="edge">
<title>Node189&#45;&gt;Node198</title>
<path fill="none" stroke="#191970" d="M134.2729,-229.0058C146.5258,-230.555 159.3297,-232.1739 171.6416,-233.7305"/>
<polygon fill="#191970" stroke="#191970" points="171.4849,-237.2385 181.8449,-235.0206 172.363,-230.2938 171.4849,-237.2385"/>
</g>
<!-- Node219 -->
<g id="node31" class="node">
<title>Node219</title>
<g id="a_node31"><a xlink:href="msg__queue_8h.html#a14fb4faf04687986da3435e06db5d587" target="_top" xlink:title="zrtos_msg_queue__put_data">
<polygon fill="#ffffff" stroke="#000000" points="170,-189 170,-208 312,-208 312,-189 170,-189"/>
<text text-anchor="middle" x="241" y="-196" font-family="Helvetica,sans-Serif" font-size="10.00" fill="#000000">zrtos_msg_queue__put_data</text>
</a>
</g>
</g>
<!-- Node189&#45;&gt;Node219 -->
<g id="edge37" class="edge">
<title>Node189&#45;&gt;Node219</title>
<path fill="none" stroke="#191970" d="M134.2729,-211.9942C142.6587,-210.934 151.3025,-209.8411 159.8701,-208.7578"/>
<polygon fill="#191970" stroke="#191970" points="160.3907,-212.2199 169.8726,-207.4931 159.5125,-205.2752 160.3907,-212.2199"/>
</g>
<!-- Node220 -->
<g id="node32" class="node">
<title>Node220</title>
<g id="a_node32"><a xlink:href="msg__queue_8h.html#adc920d42d263948e762808e1286def07" target="_top" xlink:title="zrtos_msg_queue__put_end">
<polygon fill="#ffffff" stroke="#000000" points="171.5,-113 171.5,-132 310.5,-132 310.5,-113 171.5,-113"/>
<text text-anchor="middle" x="241" y="-120" font-family="Helvetica,sans-Serif" font-size="10.00" fill="#000000">zrtos_msg_queue__put_end</text>
</a>
</g>
</g>
<!-- Node189&#45;&gt;Node220 -->
<g id="edge39" class="edge">
<title>Node189&#45;&gt;Node220</title>
<path fill="none" stroke="#191970" d="M84.5413,-205.3883C104.2363,-189.0418 137.6829,-163.0987 170,-146.5 178.2448,-142.2653 187.3986,-138.529 196.3172,-135.3417"/>
<polygon fill="#191970" stroke="#191970" points="197.5074,-138.6338 205.8483,-132.1009 195.2539,-132.0065 197.5074,-138.6338"/>
</g>
<!-- Node221 -->
<g id="node33" class="node">
<title>Node221</title>
<g id="a_node33"><a xlink:href="msg__queue_8h.html#a0eefe9e5e6f83f1fcd2c66546a05add7" target="_top" xlink:title="zrtos_msg_queue__rollback\l_write_transaction">
<polygon fill="#ffffff" stroke="#000000" points="348,-82.5 348,-112.5 486,-112.5 486,-82.5 348,-82.5"/>
<text text-anchor="start" x="356" y="-100.5" font-family="Helvetica,sans-Serif" font-size="10.00" fill="#000000">zrtos_msg_queue__rollback</text>
<text text-anchor="middle" x="417" y="-89.5" font-family="Helvetica,sans-Serif" font-size="10.00" fill="#000000">_write_transaction</text>
</a>
</g>
</g>
<!-- Node189&#45;&gt;Node221 -->
<g id="edge40" class="edge">
<title>Node189&#45;&gt;Node221</title>
<path fill="none" stroke="#191970" d="M74.9482,-205.0971C89.598,-178.5934 123.6508,-125.1291 170,-103.5 222.0932,-79.1905 287.3363,-78.6889 337.6849,-83.7303"/>
<polygon fill="#191970" stroke="#191970" points="337.5482,-87.2362 347.8697,-84.8452 338.31,-80.2777 337.5482,-87.2362"/>
</g>
<!-- Node192 -->
<g id="node4" class="node">
<title>Node192</title>
<g id="a_node4"><a xlink:href="rtu_8h.html#a185cffe76be1b6316d00295e31e73fc8" target="_top" xlink:title="zrtos_vfs_module_modbus\l_rtu__crc">
<polygon fill="#ffffff" stroke="#000000" points="350,-315.5 350,-345.5 484,-345.5 484,-315.5 350,-315.5"/>
<text text-anchor="start" x="358" y="-333.5" font-family="Helvetica,sans-Serif" font-size="10.00" fill="#000000">zrtos_vfs_module_modbus</text>
<text text-anchor="middle" x="417" y="-322.5" font-family="Helvetica,sans-Serif" font-size="10.00" fill="#000000">_rtu__crc</text>
</a>
</g>
</g>
<!-- Node191&#45;&gt;Node192 -->
<g id="edge3" class="edge">
<title>Node191&#45;&gt;Node192</title>
<path fill="none" stroke="#191970" d="M308.0401,-330.5C318.4201,-330.5 329.2131,-330.5 339.7947,-330.5"/>
<polygon fill="#191970" stroke="#191970" points="339.8549,-334.0001 349.8549,-330.5 339.8548,-327.0001 339.8549,-334.0001"/>
</g>
<!-- Node194 -->
<g id="node6" class="node">
<title>Node194</title>
<g id="a_node6"><a xlink:href="cbuffer_8h.html#aaf9c5c04a1350c2cdd906f7c7081ee38" target="_top" xlink:title="zrtos_cbuffer__start\l_write_transaction">
<polygon fill="#ffffff" stroke="#000000" points="531.5,-143.5 531.5,-173.5 635.5,-173.5 635.5,-143.5 531.5,-143.5"/>
<text text-anchor="start" x="539.5" y="-161.5" font-family="Helvetica,sans-Serif" font-size="10.00" fill="#000000">zrtos_cbuffer__start</text>
<text text-anchor="middle" x="583.5" y="-150.5" font-family="Helvetica,sans-Serif" font-size="10.00" fill="#000000">_write_transaction</text>
</a>
</g>
</g>
<!-- Node193&#45;&gt;Node194 -->
<g id="edge5" class="edge">
<title>Node193&#45;&gt;Node194</title>
<path fill="none" stroke="#191970" d="M479.4722,-158.5C493.0756,-158.5 507.4697,-158.5 521.0715,-158.5"/>
<polygon fill="#191970" stroke="#191970" points="521.2922,-162.0001 531.2921,-158.5 521.2921,-155.0001 521.2922,-162.0001"/>
</g>
<!-- Node195 -->
<g id="node7" class="node">
<title>Node195</title>
<g id="a_node7"><a xlink:href="cbuffer_8h.html#afe959077d3357696d26590a123e56d62" target="_top" xlink:title="zrtos_cbuffer__get\l_last_node">
<polygon fill="#ffffff" stroke="#000000" points="694,-140.5 694,-170.5 792,-170.5 792,-140.5 694,-140.5"/>
<text text-anchor="start" x="702" y="-158.5" font-family="Helvetica,sans-Serif" font-size="10.00" fill="#000000">zrtos_cbuffer__get</text>
<text text-anchor="middle" x="743" y="-147.5" font-family="Helvetica,sans-Serif" font-size="10.00" fill="#000000">_last_node</text>
</a>
</g>
</g>
<!-- Node194&#45;&gt;Node195 -->
<g id="edge6" class="edge">
<title>Node194&#45;&gt;Node195</title>
<path fill="none" stroke="#191970" d="M635.7263,-157.5177C651.0791,-157.2289 667.983,-156.911 683.7419,-156.6146"/>
<polygon fill="#191970" stroke="#191970" points="683.9721,-160.111 693.9045,-156.4234 683.8404,-153.1122 683.9721,-160.111"/>
</g>
<!-- Node196 -->
<g id="node8" class="node">
<title>Node196</title>
<g id="a_node8"><a xlink:href="list_8h.html#a0f2fe7ff1e14a9237a955a4925b062e2" target="_top" xlink:title="zrtos_list__get_last_node">
<polygon fill="#ffffff" stroke="#000000" points="1333,-220 1333,-239 1461,-239 1461,-220 1333,-220"/>
<text text-anchor="middle" x="1397" y="-227" font-family="Helvetica,sans-Serif" font-size="10.00" fill="#000000">zrtos_list__get_last_node</text>
</a>
</g>
</g>
<!-- Node195&#45;&gt;Node196 -->
<g id="edge7" class="edge">
<title>Node195&#45;&gt;Node196</title>
<path fill="none" stroke="#191970" d="M792.1619,-155.4321C866.3286,-155.885 1011.1232,-158.9333 1133,-174.5 1209.8439,-184.3149 1297.6449,-204.42 1350.1342,-217.4123"/>
<polygon fill="#191970" stroke="#191970" points="1349.5977,-220.8857 1360.1476,-219.9108 1351.2924,-214.0939 1349.5977,-220.8857"/>
</g>
<!-- Node198&#45;&gt;Node197 -->
<g id="edge36" class="edge">
<title>Node198&#45;&gt;Node197</title>
<path fill="none" stroke="#191970" d="M300.2679,-248.7296C358.9393,-254.8965 448.839,-264.3459 511.5684,-270.9393"/>
<polygon fill="#191970" stroke="#191970" points="511.4711,-274.4483 521.7822,-272.0129 512.2029,-267.4866 511.4711,-274.4483"/>
</g>
<!-- Node199 -->
<g id="node11" class="node">
<title>Node199</title>
<g id="a_node11"><a xlink:href="cbuffer_8h.html#a5d269503e04946737598d2062c5bfaf4" target="_top" xlink:title="zrtos_cbuffer__put_ex">
<polygon fill="#ffffff" stroke="#000000" points="360.5,-193 360.5,-212 473.5,-212 473.5,-193 360.5,-193"/>
<text text-anchor="middle" x="417" y="-200" font-family="Helvetica,sans-Serif" font-size="10.00" fill="#000000">zrtos_cbuffer__put_ex</text>
</a>
</g>
</g>
<!-- Node198&#45;&gt;Node199 -->
<g id="edge10" class="edge">
<title>Node198&#45;&gt;Node199</title>
<path fill="none" stroke="#191970" d="M300.0951,-229.0693C321.2067,-224.2712 344.8152,-218.9056 365.2594,-214.2592"/>
<polygon fill="#191970" stroke="#191970" points="366.041,-217.6709 375.0166,-212.0417 364.4896,-210.845 366.041,-217.6709"/>
</g>
<!-- Node199&#45;&gt;Node194 -->
<g id="edge11" class="edge">
<title>Node199&#45;&gt;Node194</title>
<path fill="none" stroke="#191970" d="M453.128,-192.9527C473.1293,-187.667 498.5415,-180.9515 521.6076,-174.8559"/>
<polygon fill="#191970" stroke="#191970" points="522.553,-178.2263 531.3269,-172.2875 520.7645,-171.4587 522.553,-178.2263"/>
</g>
<!-- Node199&#45;&gt;Node197 -->
<g id="edge12" class="edge">
<title>Node199&#45;&gt;Node197</title>
<path fill="none" stroke="#191970" d="M444.331,-212.0732C457.3382,-217.104 472.8784,-223.8214 486,-231.5 503.4945,-241.7376 504.024,-250.1337 522,-259.5 526.2367,-261.7075 530.7734,-263.7076 535.3918,-265.508"/>
<polygon fill="#191970" stroke="#191970" points="534.3219,-268.8425 544.9164,-268.9254 536.686,-262.2538 534.3219,-268.8425"/>
</g>
<!-- Node200 -->
<g id="node12" class="node">
<title>Node200</title>
<g id="a_node12"><a xlink:href="cbuffer_8h.html#afdb6a6176387d77a0f10e28536ba28f9" target="_top" xlink:title="zrtos_cbuffer__put">
<polygon fill="#ffffff" stroke="#000000" points="534.5,-231 534.5,-250 632.5,-250 632.5,-231 534.5,-231"/>
<text text-anchor="middle" x="583.5" y="-238" font-family="Helvetica,sans-Serif" font-size="10.00" fill="#000000">zrtos_cbuffer__put</text>
</a>
</g>
</g>
<!-- Node199&#45;&gt;Node200 -->
<g id="edge13" class="edge">
<title>Node199&#45;&gt;Node200</title>
<path fill="none" stroke="#191970" d="M459.015,-212.089C481.1844,-217.1487 508.5732,-223.3996 532.011,-228.7488"/>
<polygon fill="#191970" stroke="#191970" points="531.259,-232.1671 541.7871,-230.9799 532.8166,-225.3425 531.259,-232.1671"/>
</g>
<!-- Node209 -->
<g id="node21" class="node">
<title>Node209</title>
<g id="a_node21"><a xlink:href="error_8h.html#af58428a30fbc7fd6967e15504df633a0" target="_top" xlink:title="zrtos_error__is_error">
<polygon fill="#ffffff" stroke="#000000" points="530.5,-193 530.5,-212 636.5,-212 636.5,-193 530.5,-193"/>
<text text-anchor="middle" x="583.5" y="-200" font-family="Helvetica,sans-Serif" font-size="10.00" fill="#000000">zrtos_error__is_error</text>
</a>
</g>
</g>
<!-- Node199&#45;&gt;Node209 -->
<g id="edge24" class="edge">
<title>Node199&#45;&gt;Node209</title>
<path fill="none" stroke="#191970" d="M473.8342,-202.5C488.6835,-202.5 504.7837,-202.5 519.9572,-202.5"/>
<polygon fill="#191970" stroke="#191970" points="520.2872,-206.0001 530.2872,-202.5 520.2871,-199.0001 520.2872,-206.0001"/>
</g>
<!-- Node210 -->
<g id="node22" class="node">
<title>Node210</title>
<g id="a_node22"><a xlink:href="cbuffer_8h.html#a9aa1ad8581d3c89304d2ff464a53e92e" target="_top" xlink:title="zrtos_cbuffer__rollback\l_write_transaction">
<polygon fill="#ffffff" stroke="#000000" points="524.5,-89.5 524.5,-119.5 642.5,-119.5 642.5,-89.5 524.5,-89.5"/>
<text text-anchor="start" x="532.5" y="-107.5" font-family="Helvetica,sans-Serif" font-size="10.00" fill="#000000">zrtos_cbuffer__rollback</text>
<text text-anchor="middle" x="583.5" y="-96.5" font-family="Helvetica,sans-Serif" font-size="10.00" fill="#000000">_write_transaction</text>
</a>
</g>
</g>
<!-- Node199&#45;&gt;Node210 -->
<g id="edge25" class="edge">
<title>Node199&#45;&gt;Node210</title>
<path fill="none" stroke="#191970" d="M465.2567,-192.9481C472.5799,-190.2719 479.7625,-186.8562 486,-182.5 508.1553,-167.027 501.1392,-150.6784 522,-133.5 525.9981,-130.2076 530.4323,-127.192 535.0355,-124.4549"/>
<polygon fill="#191970" stroke="#191970" points="536.9338,-127.4059 544.0261,-119.5351 533.5735,-121.2652 536.9338,-127.4059"/>
</g>
<!-- Node200&#45;&gt;Node196 -->
<g id="edge14" class="edge">
<title>Node200&#45;&gt;Node196</title>
<path fill="none" stroke="#191970" d="M614.4822,-250.0329C624.2503,-253.0489 635.0794,-256.4032 645,-259.5 760.662,-295.6052 783.8337,-341.5 905,-341.5 905,-341.5 905,-341.5 1069,-341.5 1173.24,-341.5 1200.0953,-324.9117 1297,-286.5 1325.0653,-275.3753 1354.8318,-257.53 1374.5177,-244.7705"/>
<polygon fill="#191970" stroke="#191970" points="1376.6412,-247.5628 1383.0654,-239.1379 1372.7895,-241.7178 1376.6412,-247.5628"/>
</g>
<!-- Node201 -->
<g id="node13" class="node">
<title>Node201</title>
<g id="a_node13"><a xlink:href="cbuffer_8h.html#a1846e554cfe5e72cc8df6b60ab5c6d84" target="_top" xlink:title="zrtos_cbuffer_node__put">
<polygon fill="#ffffff" stroke="#000000" points="681,-231 681,-250 805,-250 805,-231 681,-231"/>
<text text-anchor="middle" x="743" y="-238" font-family="Helvetica,sans-Serif" font-size="10.00" fill="#000000">zrtos_cbuffer_node__put</text>
</a>
</g>
</g>
<!-- Node200&#45;&gt;Node201 -->
<g id="edge15" class="edge">
<title>Node200&#45;&gt;Node201</title>
<path fill="none" stroke="#191970" d="M632.6567,-240.5C644.6461,-240.5 657.7228,-240.5 670.5459,-240.5"/>
<polygon fill="#191970" stroke="#191970" points="670.7497,-244.0001 680.7497,-240.5 670.7496,-237.0001 670.7497,-244.0001"/>
</g>
<!-- Node202 -->
<g id="node14" class="node">
<title>Node202</title>
<g id="a_node14"><a xlink:href="cbuffer_8h.html#a0f069b28d310b9b6586aeb37ec2fb1f3" target="_top" xlink:title="zrtos_cbuffer_node\l__get_free_space">
<polygon fill="#ffffff" stroke="#000000" points="855,-187.5 855,-217.5 955,-217.5 955,-187.5 855,-187.5"/>
<text text-anchor="start" x="863" y="-205.5" font-family="Helvetica,sans-Serif" font-size="10.00" fill="#000000">zrtos_cbuffer_node</text>
<text text-anchor="middle" x="905" y="-194.5" font-family="Helvetica,sans-Serif" font-size="10.00" fill="#000000">__get_free_space</text>
</a>
</g>
</g>
<!-- Node201&#45;&gt;Node202 -->
<g id="edge16" class="edge">
<title>Node201&#45;&gt;Node202</title>
<path fill="none" stroke="#191970" d="M783.8794,-230.911C802.4063,-226.5652 824.6796,-221.3406 845.0456,-216.5634"/>
<polygon fill="#191970" stroke="#191970" points="845.929,-219.9512 854.8654,-214.26 844.3304,-213.1362 845.929,-219.9512"/>
</g>
<!-- Node204 -->
<g id="node16" class="node">
<title>Node204</title>
<g id="a_node16"><a xlink:href="cbuffer_8h.html#a3cbe982fcebf0d5bbcdae29e3caca316" target="_top" xlink:title="zrtos_cbuffer_node__new">
<polygon fill="#ffffff" stroke="#000000" points="841,-239 841,-258 969,-258 969,-239 841,-239"/>
<text text-anchor="middle" x="905" y="-246" font-family="Helvetica,sans-Serif" font-size="10.00" fill="#000000">zrtos_cbuffer_node__new</text>
</a>
</g>
</g>
<!-- Node201&#45;&gt;Node204 -->
<g id="edge18" class="edge">
<title>Node201&#45;&gt;Node204</title>
<path fill="none" stroke="#191970" d="M805.1701,-243.5701C813.5715,-243.985 822.259,-244.414 830.8433,-244.8379"/>
<polygon fill="#191970" stroke="#191970" points="830.6892,-248.3345 840.8497,-245.3321 831.0346,-241.343 830.6892,-248.3345"/>
</g>
<!-- Node203 -->
<g id="node15" class="node">
<title>Node203</title>
<g id="a_node15"><a xlink:href="cbuffer_8h.html#a640a4e58217d5c24d6e795f0fca19440" target="_top" xlink:title="zrtos_cbuffer_node\l__get_length">
<polygon fill="#ffffff" stroke="#000000" points="1019,-184.5 1019,-214.5 1119,-214.5 1119,-184.5 1019,-184.5"/>
<text text-anchor="start" x="1027" y="-202.5" font-family="Helvetica,sans-Serif" font-size="10.00" fill="#000000">zrtos_cbuffer_node</text>
<text text-anchor="middle" x="1069" y="-191.5" font-family="Helvetica,sans-Serif" font-size="10.00" fill="#000000">__get_length</text>
</a>
</g>
</g>
<!-- Node202&#45;&gt;Node203 -->
<g id="edge17" class="edge">
<title>Node202&#45;&gt;Node203</title>
<path fill="none" stroke="#191970" d="M955.0965,-201.5836C972.0264,-201.2739 991.1059,-200.9249 1008.7396,-200.6023"/>
<polygon fill="#191970" stroke="#191970" points="1008.9936,-204.0984 1018.9279,-200.416 1008.8655,-197.0995 1008.9936,-204.0984"/>
</g>
<!-- Node205 -->
<g id="node17" class="node">
<title>Node205</title>
<g id="a_node17"><a xlink:href="malloc__limit_8h.html#ad8180a24feb846d598a7a5a6053eb3cc" target="_top" xlink:title="zrtos_malloc_limit\l__malloc">
<polygon fill="#ffffff" stroke="#000000" points="1021.5,-282.5 1021.5,-312.5 1116.5,-312.5 1116.5,-282.5 1021.5,-282.5"/>
<text text-anchor="start" x="1029.5" y="-300.5" font-family="Helvetica,sans-Serif" font-size="10.00" fill="#000000">zrtos_malloc_limit</text>
<text text-anchor="middle" x="1069" y="-289.5" font-family="Helvetica,sans-Serif" font-size="10.00" fill="#000000">__malloc</text>
</a>
</g>
</g>
<!-- Node204&#45;&gt;Node205 -->
<g id="edge19" class="edge">
<title>Node204&#45;&gt;Node205</title>
<path fill="none" stroke="#191970" d="M937.0102,-258.064C958.1595,-264.383 986.4831,-272.8456 1011.4698,-280.3111"/>
<polygon fill="#191970" stroke="#191970" points="1010.6357,-283.7147 1021.2192,-283.224 1012.6397,-277.0077 1010.6357,-283.7147"/>
</g>
<!-- Node206 -->
<g id="node18" class="node">
<title>Node206</title>
<g id="a_node18"><a xlink:href="cbuffer_8h.html#aeb332726de06c905eb2db32ae3d323eb" target="_top" xlink:title="zrtos_cbuffer_node\l__init">
<polygon fill="#ffffff" stroke="#000000" points="1019,-233.5 1019,-263.5 1119,-263.5 1119,-233.5 1019,-233.5"/>
<text text-anchor="start" x="1027" y="-251.5" font-family="Helvetica,sans-Serif" font-size="10.00" fill="#000000">zrtos_cbuffer_node</text>
<text text-anchor="middle" x="1069" y="-240.5" font-family="Helvetica,sans-Serif" font-size="10.00" fill="#000000">__init</text>
</a>
</g>
</g>
<!-- Node204&#45;&gt;Node206 -->
<g id="edge20" class="edge">
<title>Node204&#45;&gt;Node206</title>
<path fill="none" stroke="#191970" d="M969.3464,-248.5C982.3044,-248.5 995.8797,-248.5 1008.6936,-248.5"/>
<polygon fill="#191970" stroke="#191970" points="1008.7805,-252.0001 1018.7805,-248.5 1008.7804,-245.0001 1008.7805,-252.0001"/>
</g>
<!-- Node207 -->
<g id="node19" class="node">
<title>Node207</title>
<g id="a_node19"><a xlink:href="list_8h.html#a40feeb4cd0cc4e30201a279240b52429" target="_top" xlink:title="zrtos_list_node__init">
<polygon fill="#ffffff" stroke="#000000" points="1180,-258 1180,-277 1286,-277 1286,-258 1180,-258"/>
<text text-anchor="middle" x="1233" y="-265" font-family="Helvetica,sans-Serif" font-size="10.00" fill="#000000">zrtos_list_node__init</text>
</a>
</g>
</g>
<!-- Node206&#45;&gt;Node207 -->
<g id="edge21" class="edge">
<title>Node206&#45;&gt;Node207</title>
<path fill="none" stroke="#191970" d="M1119.0965,-254.3039C1135.0101,-256.1475 1152.8229,-258.2112 1169.5491,-260.149"/>
<polygon fill="#191970" stroke="#191970" points="1169.46,-263.662 1179.7964,-261.3362 1170.2656,-256.7085 1169.46,-263.662"/>
</g>
<!-- Node208 -->
<g id="node20" class="node">
<title>Node208</title>
<g id="a_node20"><a xlink:href="list_8h.html#aa734984fb49603438b179f49fff38477" target="_top" xlink:title="zrtos_list__push">
<polygon fill="#ffffff" stroke="#000000" points="1189,-220 1189,-239 1277,-239 1277,-220 1189,-220"/>
<text text-anchor="middle" x="1233" y="-227" font-family="Helvetica,sans-Serif" font-size="10.00" fill="#000000">zrtos_list__push</text>
</a>
</g>
</g>
<!-- Node206&#45;&gt;Node208 -->
<g id="edge22" class="edge">
<title>Node206&#45;&gt;Node208</title>
<path fill="none" stroke="#191970" d="M1119.0965,-242.6961C1137.9406,-240.513 1159.4477,-238.0213 1178.6601,-235.7955"/>
<polygon fill="#191970" stroke="#191970" points="1179.2371,-239.2521 1188.7678,-234.6245 1178.4314,-232.2986 1179.2371,-239.2521"/>
</g>
<!-- Node208&#45;&gt;Node196 -->
<g id="edge23" class="edge">
<title>Node208&#45;&gt;Node196</title>
<path fill="none" stroke="#191970" d="M1277.3808,-229.5C1291.3877,-229.5 1307.2644,-229.5 1322.7674,-229.5"/>
<polygon fill="#191970" stroke="#191970" points="1322.8777,-233.0001 1332.8777,-229.5 1322.8777,-226.0001 1322.8777,-233.0001"/>
</g>
<!-- Node210&#45;&gt;Node195 -->
<g id="edge26" class="edge">
<title>Node210&#45;&gt;Node195</title>
<path fill="none" stroke="#191970" d="M630.4926,-119.5258C648.0184,-125.1297 668.0989,-131.5504 686.3988,-137.4018"/>
<polygon fill="#191970" stroke="#191970" points="685.477,-140.7816 696.0679,-140.4935 687.609,-134.1141 685.477,-140.7816"/>
</g>
<!-- Node211 -->
<g id="node23" class="node">
<title>Node211</title>
<g id="a_node23"><a xlink:href="cbuffer_8h.html#ae358d265d5a1d44fa930473e3834bc4c" target="_top" xlink:title="zrtos_cbuffer_node\l__get_next_node">
<polygon fill="#ffffff" stroke="#000000" points="693,-13.5 693,-43.5 793,-43.5 793,-13.5 693,-13.5"/>
<text text-anchor="start" x="701" y="-31.5" font-family="Helvetica,sans-Serif" font-size="10.00" fill="#000000">zrtos_cbuffer_node</text>
<text text-anchor="middle" x="743" y="-20.5" font-family="Helvetica,sans-Serif" font-size="10.00" fill="#000000">__get_next_node</text>
</a>
</g>
</g>
<!-- Node210&#45;&gt;Node211 -->
<g id="edge27" class="edge">
<title>Node210&#45;&gt;Node211</title>
<path fill="none" stroke="#191970" d="M615.0121,-89.4848C639.9442,-77.6049 674.9518,-60.9242 702.0537,-48.0105"/>
<polygon fill="#191970" stroke="#191970" points="703.7588,-51.0751 711.2808,-43.6138 700.7477,-44.7558 703.7588,-51.0751"/>
</g>
<!-- Node213 -->
<g id="node25" class="node">
<title>Node213</title>
<g id="a_node25"><a xlink:href="cbuffer_8h.html#afc85ab6d8226b4a1b93d11c2ba1203f6" target="_top" xlink:title="zrtos_cbuffer_node\l__free">
<polygon fill="#ffffff" stroke="#000000" points="693,-89.5 693,-119.5 793,-119.5 793,-89.5 693,-89.5"/>
<text text-anchor="start" x="701" y="-107.5" font-family="Helvetica,sans-Serif" font-size="10.00" fill="#000000">zrtos_cbuffer_node</text>
<text text-anchor="middle" x="743" y="-96.5" font-family="Helvetica,sans-Serif" font-size="10.00" fill="#000000">__free</text>
</a>
</g>
</g>
<!-- Node210&#45;&gt;Node213 -->
<g id="edge29" class="edge">
<title>Node210&#45;&gt;Node213</title>
<path fill="none" stroke="#191970" d="M642.8919,-104.5C655.891,-104.5 669.6635,-104.5 682.6978,-104.5"/>
<polygon fill="#191970" stroke="#191970" points="682.964,-108.0001 692.964,-104.5 682.964,-101.0001 682.964,-108.0001"/>
</g>
<!-- Node212 -->
<g id="node24" class="node">
<title>Node212</title>
<g id="a_node24"><a xlink:href="list_8h.html#a454de0a8188c1b5a4ffeddd230b42c93" target="_top" xlink:title="zrtos_list_node__get\l_next_node">
<polygon fill="#ffffff" stroke="#000000" points="851.5,-.5 851.5,-30.5 958.5,-30.5 958.5,-.5 851.5,-.5"/>
<text text-anchor="start" x="859.5" y="-18.5" font-family="Helvetica,sans-Serif" font-size="10.00" fill="#000000">zrtos_list_node__get</text>
<text text-anchor="middle" x="905" y="-7.5" font-family="Helvetica,sans-Serif" font-size="10.00" fill="#000000">_next_node</text>
</a>
</g>
</g>
<!-- Node211&#45;&gt;Node212 -->
<g id="edge28" class="edge">
<title>Node211&#45;&gt;Node212</title>
<path fill="none" stroke="#191970" d="M793.3698,-24.458C808.4558,-23.2474 825.2043,-21.9034 841.0422,-20.6324"/>
<polygon fill="#191970" stroke="#191970" points="841.6039,-24.0987 851.2919,-19.8099 841.044,-17.1211 841.6039,-24.0987"/>
</g>
<!-- Node214 -->
<g id="node26" class="node">
<title>Node214</title>
<g id="a_node26"><a xlink:href="list_8h.html#a2b11d9c6f775a209430f16b719a19617" target="_top" xlink:title="zrtos_list__delete">
<polygon fill="#ffffff" stroke="#000000" points="858.5,-99 858.5,-118 951.5,-118 951.5,-99 858.5,-99"/>
<text text-anchor="middle" x="905" y="-106" font-family="Helvetica,sans-Serif" font-size="10.00" fill="#000000">zrtos_list__delete</text>
</a>
</g>
</g>
<!-- Node213&#45;&gt;Node214 -->
<g id="edge30" class="edge">
<title>Node213&#45;&gt;Node214</title>
<path fill="none" stroke="#191970" d="M793.3698,-105.7437C810.6843,-106.1712 830.1886,-106.6528 847.9928,-107.0924"/>
<polygon fill="#191970" stroke="#191970" points="848.1665,-110.5977 858.2499,-107.3457 848.3394,-103.5998 848.1665,-110.5977"/>
</g>
<!-- Node217 -->
<g id="node29" class="node">
<title>Node217</title>
<g id="a_node29"><a xlink:href="malloc__limit_8h.html#ad9dc03f9dd447b3ffb64b0ec3873f61f" target="_top" xlink:title="zrtos_malloc_limit\l__free">
<polygon fill="#ffffff" stroke="#000000" points="857.5,-49.5 857.5,-79.5 952.5,-79.5 952.5,-49.5 857.5,-49.5"/>
<text text-anchor="start" x="865.5" y="-67.5" font-family="Helvetica,sans-Serif" font-size="10.00" fill="#000000">zrtos_malloc_limit</text>
<text text-anchor="middle" x="905" y="-56.5" font-family="Helvetica,sans-Serif" font-size="10.00" fill="#000000">__free</text>
</a>
</g>
</g>
<!-- Node213&#45;&gt;Node217 -->
<g id="edge34" class="edge">
<title>Node213&#45;&gt;Node217</title>
<path fill="none" stroke="#191970" d="M793.3698,-92.063C810.4513,-87.8454 829.6642,-83.1014 847.2734,-78.7535"/>
<polygon fill="#191970" stroke="#191970" points="848.5585,-82.0414 857.4279,-76.2462 846.8804,-75.2455 848.5585,-82.0414"/>
</g>
<!-- Node215 -->
<g id="node27" class="node">
<title>Node215</title>
<g id="a_node27"><a xlink:href="list_8h.html#a5a9358f4b25c9376dbdef338fa8333a6" target="_top" xlink:title="zrtos_list__get_first_node">
<polygon fill="#ffffff" stroke="#000000" points="1169,-89 1169,-108 1297,-108 1297,-89 1169,-89"/>
<text text-anchor="middle" x="1233" y="-96" font-family="Helvetica,sans-Serif" font-size="10.00" fill="#000000">zrtos_list__get_first_node</text>
</a>
</g>
</g>
<!-- Node214&#45;&gt;Node215 -->
<g id="edge31" class="edge">
<title>Node214&#45;&gt;Node215</title>
<path fill="none" stroke="#191970" d="M951.7317,-102.8538C968.5032,-101.0851 987.574,-99.3691 1005,-98.5 1056.1647,-95.9481 1113.8683,-95.9764 1158.423,-96.6283"/>
<polygon fill="#191970" stroke="#191970" points="1158.5313,-100.1304 1168.5861,-96.7911 1158.6435,-93.1313 1158.5313,-100.1304"/>
</g>
<!-- Node216 -->
<g id="node28" class="node">
<title>Node216</title>
<g id="a_node28"><a xlink:href="list_8h.html#aee76d71632ab03e18ad9358fc8b35044" target="_top" xlink:title="zrtos_list__shift">
<polygon fill="#ffffff" stroke="#000000" points="1026,-108 1026,-127 1112,-127 1112,-108 1026,-108"/>
<text text-anchor="middle" x="1069" y="-115" font-family="Helvetica,sans-Serif" font-size="10.00" fill="#000000">zrtos_list__shift</text>
</a>
</g>
</g>
<!-- Node214&#45;&gt;Node216 -->
<g id="edge32" class="edge">
<title>Node214&#45;&gt;Node216</title>
<path fill="none" stroke="#191970" d="M951.5571,-111.055C971.567,-112.1531 995.0635,-113.4425 1015.7609,-114.5783"/>
<polygon fill="#191970" stroke="#191970" points="1015.8045,-118.0859 1025.9813,-115.1392 1016.1881,-111.0964 1015.8045,-118.0859"/>
</g>
<!-- Node216&#45;&gt;Node215 -->
<g id="edge33" class="edge">
<title>Node216&#45;&gt;Node215</title>
<path fill="none" stroke="#191970" d="M1112.0891,-112.508C1126.3357,-110.8575 1142.6222,-108.9706 1158.5278,-107.1279"/>
<polygon fill="#191970" stroke="#191970" points="1159.369,-110.5539 1168.8997,-105.9263 1158.5633,-103.6004 1159.369,-110.5539"/>
</g>
<!-- Node218 -->
<g id="node30" class="node">
<title>Node218</title>
<g id="a_node30"><a xlink:href="malloc_8h.html#aeba49dabb0a21ae4e02fa137e195bb1d" target="_top" xlink:title="zrtos_malloc__get_length">
<polygon fill="#ffffff" stroke="#000000" points="1005,-32 1005,-51 1133,-51 1133,-32 1005,-32"/>
<text text-anchor="middle" x="1069" y="-39" font-family="Helvetica,sans-Serif" font-size="10.00" fill="#000000">zrtos_malloc__get_length</text>
</a>
</g>
</g>
<!-- Node217&#45;&gt;Node218 -->
<g id="edge35" class="edge">
<title>Node217&#45;&gt;Node218</title>
<path fill="none" stroke="#191970" d="M952.8765,-57.7856C965.962,-55.9504 980.4587,-53.9174 994.6473,-51.9275"/>
<polygon fill="#191970" stroke="#191970" points="995.4828,-55.3447 1004.8997,-50.4897 994.5105,-48.4125 995.4828,-55.3447"/>
</g>
<!-- Node219&#45;&gt;Node199 -->
<g id="edge38" class="edge">
<title>Node219&#45;&gt;Node199</title>
<path fill="none" stroke="#191970" d="M312.0786,-200.1154C324.6003,-200.4 337.597,-200.6954 350.0023,-200.9773"/>
<polygon fill="#191970" stroke="#191970" points="350.1833,-204.4822 360.2603,-201.2105 350.3424,-197.4841 350.1833,-204.4822"/>
</g>
<!-- Node221&#45;&gt;Node210 -->
<g id="edge41" class="edge">
<title>Node221&#45;&gt;Node210</title>
<path fill="none" stroke="#191970" d="M486.1645,-100.4078C495.4817,-100.7995 505.0414,-101.2014 514.3582,-101.5931"/>
<polygon fill="#191970" stroke="#191970" points="514.2115,-105.09 524.3497,-102.0132 514.5056,-98.0961 514.2115,-105.09"/>
</g>
</g>
</svg>
