<?xml version="1.0" encoding="UTF-8" standalone="no"?>
<!DOCTYPE svg PUBLIC "-//W3C//DTD SVG 1.1//EN"
 "http://www.w3.org/Graphics/SVG/1.1/DTD/svg11.dtd">
<!-- Generated by graphviz version 2.40.1 (20161225.0304)
 -->
<!-- Title: zrtos_vfs_module_modbus_rtu__on_can_read Pages: 1 -->
<svg width="290pt" height="88pt"
 viewBox="0.00 0.00 290.00 88.00" xmlns="http://www.w3.org/2000/svg" xmlns:xlink="http://www.w3.org/1999/xlink">
<g id="graph0" class="graph" transform="scale(1 1) rotate(0) translate(4 84)">
<title>zrtos_vfs_module_modbus_rtu__on_can_read</title>
<polygon fill="#ffffff" stroke="transparent" points="-4,4 -4,-84 286,-84 286,4 -4,4"/>
<!-- Node16 -->
<g id="node1" class="node">
<title>Node16</title>
<polygon fill="#bfbfbf" stroke="#000000" points="0,-24.5 0,-54.5 134,-54.5 134,-24.5 0,-24.5"/>
<text text-anchor="start" x="8" y="-42.5" font-family="Helvetica,sans-Serif" font-size="10.00" fill="#000000">zrtos_vfs_module_modbus</text>
<text text-anchor="middle" x="67" y="-31.5" font-family="Helvetica,sans-Serif" font-size="10.00" fill="#000000">_rtu__on_can_read</text>
</g>
<!-- Node17 -->
<g id="node2" class="node">
<title>Node17</title>
<g id="a_node2"><a xlink:href="vfs__file_8h.html#af192d2176bcd9a795fe8253a0759b0c7" target="_top" xlink:title="zrtos_vfs_file__get\l_inode_data">
<polygon fill="#ffffff" stroke="#000000" points="176.5,-49.5 176.5,-79.5 275.5,-79.5 275.5,-49.5 176.5,-49.5"/>
<text text-anchor="start" x="184.5" y="-67.5" font-family="Helvetica,sans-Serif" font-size="10.00" fill="#000000">zrtos_vfs_file__get</text>
<text text-anchor="middle" x="226" y="-56.5" font-family="Helvetica,sans-Serif" font-size="10.00" fill="#000000">_inode_data</text>
</a>
</g>
</g>
<!-- Node16&#45;&gt;Node17 -->
<g id="edge1" class="edge">
<title>Node16&#45;&gt;Node17</title>
<path fill="none" stroke="#191970" d="M134.4303,-50.1023C144.9679,-51.7591 155.7952,-53.4615 166.1482,-55.0893"/>
<polygon fill="#191970" stroke="#191970" points="165.8925,-58.5921 176.3148,-56.6879 166.9799,-51.677 165.8925,-58.5921"/>
</g>
<!-- Node18 -->
<g id="node3" class="node">
<title>Node18</title>
<g id="a_node3"><a xlink:href="msg__queue_8h.html#adbeda957ab0b749a1d306a34cb42d139" target="_top" xlink:title="zrtos_msg_queue__is\l_empty">
<polygon fill="#ffffff" stroke="#000000" points="170,-.5 170,-30.5 282,-30.5 282,-.5 170,-.5"/>
<text text-anchor="start" x="178" y="-18.5" font-family="Helvetica,sans-Serif" font-size="10.00" fill="#000000">zrtos_msg_queue__is</text>
<text text-anchor="middle" x="226" y="-7.5" font-family="Helvetica,sans-Serif" font-size="10.00" fill="#000000">_empty</text>
</a>
</g>
</g>
<!-- Node16&#45;&gt;Node18 -->
<g id="edge2" class="edge">
<title>Node16&#45;&gt;Node18</title>
<path fill="none" stroke="#191970" d="M134.4303,-29.3218C142.8546,-28.0502 151.464,-26.7507 159.8682,-25.4822"/>
<polygon fill="#191970" stroke="#191970" points="160.6259,-28.9075 169.9915,-23.9541 159.5811,-21.9859 160.6259,-28.9075"/>
</g>
</g>
</svg>
