<?xml version="1.0" encoding="UTF-8" standalone="no"?>
<!DOCTYPE svg PUBLIC "-//W3C//DTD SVG 1.1//EN"
 "http://www.w3.org/Graphics/SVG/1.1/DTD/svg11.dtd">
<!-- Generated by graphviz version 10.0.1 (20240210.2158)
 -->
<!-- Title: zrtos_vfs_module_modbus_rtu__crc Pages: 1 -->
<svg width="472pt" height="90pt"
 viewBox="0.00 0.00 472.25 90.00" xmlns="http://www.w3.org/2000/svg" xmlns:xlink="http://www.w3.org/1999/xlink">
<g id="graph0" class="graph" transform="scale(1 1) rotate(0) translate(4 86)">
<title>zrtos_vfs_module_modbus_rtu__crc</title>
<!-- Node1 -->
<g id="Node000001" class="node">
<title>Node1</title>
<g id="a_Node000001"><a xlink:title=" ">
<polygon fill="#999999" stroke="#666666" points="464.25,-57 333.5,-57 333.5,-25 464.25,-25 464.25,-57"/>
<text text-anchor="start" x="341.5" y="-43.5" font-family="Helvetica,sans-Serif" font-size="10.00">zrtos_vfs_module_modbus</text>
<text text-anchor="middle" x="398.88" y="-31.5" font-family="Helvetica,sans-Serif" font-size="10.00">_rtu__crc</text>
</a>
</g>
</g>
<!-- Node2 -->
<g id="Node000002" class="node">
<title>Node2</title>
<g id="a_Node000002"><a xlink:href="rtu_8h.html#aa413ad116104478c8f81c06609da6f3a" target="_top" xlink:title=" ">
<polygon fill="white" stroke="#666666" points="297.5,-82 166.75,-82 166.75,-50 297.5,-50 297.5,-82"/>
<text text-anchor="start" x="174.75" y="-68.5" font-family="Helvetica,sans-Serif" font-size="10.00">zrtos_vfs_module_modbus</text>
<text text-anchor="middle" x="232.12" y="-56.5" font-family="Helvetica,sans-Serif" font-size="10.00">_rtu__crc_str</text>
</a>
</g>
</g>
<!-- Node1&#45;&gt;Node2 -->
<g id="edge1_Node000001_Node000002" class="edge">
<title>Node1&#45;&gt;Node2</title>
<g id="a_edge1_Node000001_Node000002"><a xlink:title=" ">
<path fill="none" stroke="#63b8ff" d="M321.94,-52.52C313.89,-53.74 305.76,-54.98 297.85,-56.18"/>
<polygon fill="#63b8ff" stroke="#63b8ff" points="322.38,-56 331.74,-51.04 321.33,-49.08 322.38,-56"/>
</a>
</g>
</g>
<!-- Node4 -->
<g id="Node000004" class="node">
<title>Node4</title>
<g id="a_Node000004"><a xlink:href="rtu_8h.html#a223fc39dfd241ff17884c9f5d03f8e78" target="_top" xlink:title=" ">
<polygon fill="white" stroke="#666666" points="297.5,-32 166.75,-32 166.75,0 297.5,0 297.5,-32"/>
<text text-anchor="start" x="174.75" y="-18.5" font-family="Helvetica,sans-Serif" font-size="10.00">zrtos_vfs_module_modbus</text>
<text text-anchor="middle" x="232.12" y="-6.5" font-family="Helvetica,sans-Serif" font-size="10.00">_rtu__on_recv_timeout</text>
</a>
</g>
</g>
<!-- Node1&#45;&gt;Node4 -->
<g id="edge3_Node000001_Node000004" class="edge">
<title>Node1&#45;&gt;Node4</title>
<g id="a_edge3_Node000001_Node000004"><a xlink:title=" ">
<path fill="none" stroke="#63b8ff" d="M321.94,-29.48C313.89,-28.26 305.76,-27.02 297.85,-25.82"/>
<polygon fill="#63b8ff" stroke="#63b8ff" points="321.33,-32.92 331.74,-30.96 322.38,-26 321.33,-32.92"/>
</a>
</g>
</g>
<!-- Node3 -->
<g id="Node000003" class="node">
<title>Node3</title>
<g id="a_Node000003"><a xlink:href="rtu_8h.html#ac0ca767b3e1e9a8b1f290448a122e095" target="_top" xlink:title=" ">
<polygon fill="white" stroke="#666666" points="130.75,-82 0,-82 0,-50 130.75,-50 130.75,-82"/>
<text text-anchor="start" x="8" y="-68.5" font-family="Helvetica,sans-Serif" font-size="10.00">zrtos_vfs_module_modbus</text>
<text text-anchor="middle" x="65.38" y="-56.5" font-family="Helvetica,sans-Serif" font-size="10.00">_rtu__on_write</text>
</a>
</g>
</g>
<!-- Node2&#45;&gt;Node3 -->
<g id="edge2_Node000002_Node000003" class="edge">
<title>Node2&#45;&gt;Node3</title>
<g id="a_edge2_Node000002_Node000003"><a xlink:title=" ">
<path fill="none" stroke="#63b8ff" d="M155.19,-66C147.14,-66 139.01,-66 131.1,-66"/>
<polygon fill="#63b8ff" stroke="#63b8ff" points="154.97,-69.5 164.97,-66 154.97,-62.5 154.97,-69.5"/>
</a>
</g>
</g>
<!-- Node5 -->
<g id="Node000005" class="node">
<title>Node5</title>
<g id="a_Node000005"><a xlink:href="rtu_8h.html#aac1c0a8f15ec0cd7540f53a61fe9ff08" target="_top" xlink:title=" ">
<polygon fill="white" stroke="#666666" points="130.75,-32 0,-32 0,0 130.75,0 130.75,-32"/>
<text text-anchor="start" x="8" y="-18.5" font-family="Helvetica,sans-Serif" font-size="10.00">zrtos_vfs_module_modbus</text>
<text text-anchor="middle" x="65.38" y="-6.5" font-family="Helvetica,sans-Serif" font-size="10.00">_rtu_args__init</text>
</a>
</g>
</g>
<!-- Node4&#45;&gt;Node5 -->
<g id="edge4_Node000004_Node000005" class="edge">
<title>Node4&#45;&gt;Node5</title>
<g id="a_edge4_Node000004_Node000005"><a xlink:title=" ">
<path fill="none" stroke="#63b8ff" d="M155.19,-16C147.14,-16 139.01,-16 131.1,-16"/>
<polygon fill="#63b8ff" stroke="#63b8ff" points="154.97,-19.5 164.97,-16 154.97,-12.5 154.97,-19.5"/>
</a>
</g>
</g>
</g>
</svg>
