<?xml version="1.0" encoding="UTF-8" standalone="no"?>
<!DOCTYPE svg PUBLIC "-//W3C//DTD SVG 1.1//EN"
 "http://www.w3.org/Graphics/SVG/1.1/DTD/svg11.dtd">
<!-- Generated by graphviz version 10.0.1 (20240210.2158)
 -->
<!-- Title: zrtos_vfs_module_modbus_rtu__on_read Pages: 1 -->
<svg width="1364pt" height="236pt"
 viewBox="0.00 0.00 1364.00 236.11" xmlns="http://www.w3.org/2000/svg" xmlns:xlink="http://www.w3.org/1999/xlink">
<g id="graph0" class="graph" transform="scale(1 1) rotate(0) translate(4 232.11)">
<title>zrtos_vfs_module_modbus_rtu__on_read</title>
<!-- Node1 -->
<g id="Node000001" class="node">
<title>Node1</title>
<g id="a_Node000001"><a xlink:title=" ">
<polygon fill="#999999" stroke="#666666" points="130.75,-138 0,-138 0,-106 130.75,-106 130.75,-138"/>
<text text-anchor="start" x="8" y="-124.5" font-family="Helvetica,sans-Serif" font-size="10.00">zrtos_vfs_module_modbus</text>
<text text-anchor="middle" x="65.38" y="-112.5" font-family="Helvetica,sans-Serif" font-size="10.00">_rtu__on_read</text>
</a>
</g>
</g>
<!-- Node2 -->
<g id="Node000002" class="node">
<title>Node2</title>
<g id="a_Node000002"><a xlink:href="msg__queue_8h.html#aa70867560ae58b87682c996ceccee62a" target="_top" xlink:title=" ">
<polygon fill="white" stroke="#666666" points="284,-154 166.75,-154 166.75,-134 284,-134 284,-154"/>
<text text-anchor="middle" x="225.38" y="-140.5" font-family="Helvetica,sans-Serif" font-size="10.00">zrtos_msg_queue__get</text>
</a>
</g>
</g>
<!-- Node1&#45;&gt;Node2 -->
<g id="edge1_Node000001_Node000002" class="edge">
<title>Node1&#45;&gt;Node2</title>
<g id="a_edge1_Node000001_Node000002"><a xlink:title=" ">
<path fill="none" stroke="#63b8ff" d="M131.1,-131.01C139.03,-132.12 147.17,-133.25 155.16,-134.36"/>
<polygon fill="#63b8ff" stroke="#63b8ff" points="154.46,-137.8 164.85,-135.71 155.43,-130.87 154.46,-137.8"/>
</a>
</g>
</g>
<!-- Node20 -->
<g id="Node000020" class="node">
<title>Node20</title>
<g id="a_Node000020"><a xlink:href="vfs__file_8h.html#adbc392417c3fef015ea0c4728d2be7c6" target="_top" xlink:title=" ">
<polygon fill="white" stroke="#666666" points="273.12,-116 177.62,-116 177.62,-84 273.12,-84 273.12,-116"/>
<text text-anchor="start" x="185.62" y="-102.5" font-family="Helvetica,sans-Serif" font-size="10.00">zrtos_vfs_file__get</text>
<text text-anchor="middle" x="225.38" y="-90.5" font-family="Helvetica,sans-Serif" font-size="10.00">_inode_data</text>
</a>
</g>
</g>
<!-- Node1&#45;&gt;Node20 -->
<g id="edge23_Node000001_Node000020" class="edge">
<title>Node1&#45;&gt;Node20</title>
<g id="a_edge23_Node000001_Node000020"><a xlink:title=" ">
<path fill="none" stroke="#63b8ff" d="M131.1,-112.99C142.73,-111.37 154.79,-109.69 166.22,-108.1"/>
<polygon fill="#63b8ff" stroke="#63b8ff" points="166.49,-111.59 175.91,-106.75 165.52,-104.66 166.49,-111.59"/>
</a>
</g>
</g>
<!-- Node3 -->
<g id="Node000003" class="node">
<title>Node3</title>
<g id="a_Node000003"><a xlink:href="cbuffer_8h.html#adb4435557fc1a9d76b315fc1e205f611" target="_top" xlink:title=" ">
<polygon fill="white" stroke="#666666" points="731.75,-208 634,-208 634,-176 731.75,-176 731.75,-208"/>
<text text-anchor="start" x="642" y="-194.5" font-family="Helvetica,sans-Serif" font-size="10.00">zrtos_cbuffer__can</text>
<text text-anchor="middle" x="682.88" y="-182.5" font-family="Helvetica,sans-Serif" font-size="10.00">_read_length</text>
</a>
</g>
</g>
<!-- Node2&#45;&gt;Node3 -->
<g id="edge2_Node000002_Node000003" class="edge">
<title>Node2&#45;&gt;Node3</title>
<g id="a_edge2_Node000002_Node000003"><a xlink:title=" ">
<path fill="none" stroke="#63b8ff" d="M272.38,-154.48C287.48,-157.62 304.4,-160.8 320,-163 426.04,-177.95 550.73,-185.83 622.6,-189.44"/>
<polygon fill="#63b8ff" stroke="#63b8ff" points="622,-192.91 632.16,-189.91 622.35,-185.92 622,-192.91"/>
</a>
</g>
</g>
<!-- Node9 -->
<g id="Node000009" class="node">
<title>Node9</title>
<g id="a_Node000009"><a xlink:href="cbuffer_8h.html#af79ee923f715f4f8d2ea27b725501174" target="_top" xlink:title=" ">
<polygon fill="white" stroke="#666666" points="436.88,-154 325.62,-154 325.62,-134 436.88,-134 436.88,-154"/>
<text text-anchor="middle" x="381.25" y="-140.5" font-family="Helvetica,sans-Serif" font-size="10.00">zrtos_cbuffer__get_ex</text>
</a>
</g>
</g>
<!-- Node2&#45;&gt;Node9 -->
<g id="edge8_Node000002_Node000009" class="edge">
<title>Node2&#45;&gt;Node9</title>
<g id="a_edge8_Node000002_Node000009"><a xlink:title=" ">
<path fill="none" stroke="#63b8ff" d="M284.11,-144C293.79,-144 303.91,-144 313.8,-144"/>
<polygon fill="#63b8ff" stroke="#63b8ff" points="313.74,-147.5 323.74,-144 313.74,-140.5 313.74,-147.5"/>
</a>
</g>
</g>
<!-- Node19 -->
<g id="Node000019" class="node">
<title>Node19</title>
<g id="a_Node000019"><a xlink:href="error_8h.html#add13298163f63b7d37ed9f12d57e1a31" target="_top" xlink:title=" ">
<polygon fill="white" stroke="#666666" points="442.5,-116 320,-116 320,-96 442.5,-96 442.5,-116"/>
<text text-anchor="middle" x="381.25" y="-102.5" font-family="Helvetica,sans-Serif" font-size="10.00">zrtos_error__is_success</text>
</a>
</g>
</g>
<!-- Node2&#45;&gt;Node19 -->
<g id="edge22_Node000002_Node000019" class="edge">
<title>Node2&#45;&gt;Node19</title>
<g id="a_edge22_Node000002_Node000019"><a xlink:title=" ">
<path fill="none" stroke="#63b8ff" d="M268.83,-133.52C286.83,-129.07 307.99,-123.84 327.02,-119.15"/>
<polygon fill="#63b8ff" stroke="#63b8ff" points="327.6,-122.61 336.46,-116.81 325.92,-115.81 327.6,-122.61"/>
</a>
</g>
</g>
<!-- Node4 -->
<g id="Node000004" class="node">
<title>Node4</title>
<g id="a_Node000004"><a xlink:href="cbuffer_8h.html#aefc6499f17723606801f954ac9c35be2" target="_top" xlink:title=" ">
<polygon fill="white" stroke="#666666" points="1177.25,-221 1081.75,-221 1081.75,-189 1177.25,-189 1177.25,-221"/>
<text text-anchor="start" x="1089.75" y="-207.5" font-family="Helvetica,sans-Serif" font-size="10.00">zrtos_cbuffer__get</text>
<text text-anchor="middle" x="1129.5" y="-195.5" font-family="Helvetica,sans-Serif" font-size="10.00">_first_node</text>
</a>
</g>
</g>
<!-- Node3&#45;&gt;Node4 -->
<g id="edge3_Node000003_Node000004" class="edge">
<title>Node3&#45;&gt;Node4</title>
<g id="a_edge3_Node000003_Node000004"><a xlink:title=" ">
<path fill="none" stroke="#63b8ff" d="M732.1,-208.37C747.18,-212.72 763.99,-216.82 779.75,-219 889.93,-234.22 919.05,-226.85 1030,-219 1043.06,-218.08 1057.02,-216.47 1070.2,-214.67"/>
<polygon fill="#63b8ff" stroke="#63b8ff" points="1070.65,-218.14 1080.05,-213.27 1069.66,-211.22 1070.65,-218.14"/>
</a>
</g>
</g>
<!-- Node6 -->
<g id="Node000006" class="node">
<title>Node6</title>
<g id="a_Node000006"><a xlink:href="cbuffer_8h.html#a8228f34a6acad5cce8802e61ec87c9ca" target="_top" xlink:title=" ">
<polygon fill="white" stroke="#666666" points="882.75,-210 785,-210 785,-178 882.75,-178 882.75,-210"/>
<text text-anchor="start" x="793" y="-196.5" font-family="Helvetica,sans-Serif" font-size="10.00">zrtos_cbuffer_node</text>
<text text-anchor="middle" x="833.88" y="-184.5" font-family="Helvetica,sans-Serif" font-size="10.00">__get_next_node</text>
</a>
</g>
</g>
<!-- Node3&#45;&gt;Node6 -->
<g id="edge5_Node000003_Node000006" class="edge">
<title>Node3&#45;&gt;Node6</title>
<g id="a_edge5_Node000003_Node000006"><a xlink:title=" ">
<path fill="none" stroke="#63b8ff" d="M731.84,-192.64C745.07,-192.82 759.58,-193.02 773.37,-193.2"/>
<polygon fill="#63b8ff" stroke="#63b8ff" points="773.19,-196.7 783.23,-193.33 773.28,-189.7 773.19,-196.7"/>
</a>
</g>
</g>
<!-- Node8 -->
<g id="Node000008" class="node">
<title>Node8</title>
<g id="a_Node000008"><a xlink:href="cbuffer_8h.html#aa70b33844c0b38a531615564dc35840e" target="_top" xlink:title=" ">
<polygon fill="white" stroke="#666666" points="882.75,-160 785,-160 785,-128 882.75,-128 882.75,-160"/>
<text text-anchor="start" x="793" y="-146.5" font-family="Helvetica,sans-Serif" font-size="10.00">zrtos_cbuffer_node</text>
<text text-anchor="middle" x="833.88" y="-134.5" font-family="Helvetica,sans-Serif" font-size="10.00">__is_empty</text>
</a>
</g>
</g>
<!-- Node3&#45;&gt;Node8 -->
<g id="edge7_Node000003_Node000008" class="edge">
<title>Node3&#45;&gt;Node8</title>
<g id="a_edge7_Node000003_Node000008"><a xlink:title=" ">
<path fill="none" stroke="#63b8ff" d="M731.84,-176.55C745.33,-172.2 760.16,-167.43 774.2,-162.9"/>
<polygon fill="#63b8ff" stroke="#63b8ff" points="774.86,-166.37 783.3,-159.97 772.71,-159.7 774.86,-166.37"/>
</a>
</g>
</g>
<!-- Node5 -->
<g id="Node000005" class="node">
<title>Node5</title>
<g id="a_Node000005"><a xlink:href="list_8h.html#a0039f0f08299038ab1a71e271a43a086" target="_top" xlink:title=" ">
<polygon fill="white" stroke="#666666" points="1356,-79 1229,-79 1229,-59 1356,-59 1356,-79"/>
<text text-anchor="middle" x="1292.5" y="-65.5" font-family="Helvetica,sans-Serif" font-size="10.00">zrtos_list__get_first_node</text>
</a>
</g>
</g>
<!-- Node4&#45;&gt;Node5 -->
<g id="edge4_Node000004_Node000005" class="edge">
<title>Node4&#45;&gt;Node5</title>
<g id="a_edge4_Node000004_Node000005"><a xlink:title=" ">
<path fill="none" stroke="#63b8ff" d="M1149.92,-188.6C1180.52,-162.75 1239.69,-112.77 1270.97,-86.35"/>
<polygon fill="#63b8ff" stroke="#63b8ff" points="1272.82,-89.36 1278.2,-80.23 1268.3,-84.01 1272.82,-89.36"/>
</a>
</g>
</g>
<!-- Node7 -->
<g id="Node000007" class="node">
<title>Node7</title>
<g id="a_Node000007"><a xlink:href="list_8h.html#a870446d2221a7ce60ce4b2d336f2a577" target="_top" xlink:title=" ">
<polygon fill="white" stroke="#666666" points="1030,-210 924,-210 924,-178 1030,-178 1030,-210"/>
<text text-anchor="start" x="932" y="-196.5" font-family="Helvetica,sans-Serif" font-size="10.00">zrtos_list_node__get</text>
<text text-anchor="middle" x="977" y="-184.5" font-family="Helvetica,sans-Serif" font-size="10.00">_next_node</text>
</a>
</g>
</g>
<!-- Node6&#45;&gt;Node7 -->
<g id="edge6_Node000006_Node000007" class="edge">
<title>Node6&#45;&gt;Node7</title>
<g id="a_edge6_Node000006_Node000007"><a xlink:title=" ">
<path fill="none" stroke="#63b8ff" d="M883.05,-194C892.46,-194 902.46,-194 912.29,-194"/>
<polygon fill="#63b8ff" stroke="#63b8ff" points="912.18,-197.5 922.18,-194 912.18,-190.5 912.18,-197.5"/>
</a>
</g>
</g>
<!-- Node10 -->
<g id="Node000010" class="node">
<title>Node10</title>
<g id="a_Node000010"><a xlink:href="cbuffer_8h.html#a1a9cc4256c634d99003e2397924df20a" target="_top" xlink:title=" ">
<polygon fill="white" stroke="#666666" points="580,-104 484.5,-104 484.5,-84 580,-84 580,-104"/>
<text text-anchor="middle" x="532.25" y="-90.5" font-family="Helvetica,sans-Serif" font-size="10.00">zrtos_cbuffer__get</text>
</a>
</g>
</g>
<!-- Node9&#45;&gt;Node10 -->
<g id="edge9_Node000009_Node000010" class="edge">
<title>Node9&#45;&gt;Node10</title>
<g id="a_edge9_Node000009_Node000010"><a xlink:title=" ">
<path fill="none" stroke="#63b8ff" d="M416.09,-133.53C424.72,-130.8 433.97,-127.84 442.5,-125 458.58,-119.66 476.21,-113.55 491.49,-108.18"/>
<polygon fill="#63b8ff" stroke="#63b8ff" points="492.45,-111.55 500.72,-104.92 490.12,-104.95 492.45,-111.55"/>
</a>
</g>
</g>
<!-- Node18 -->
<g id="Node000018" class="node">
<title>Node18</title>
<g id="a_Node000018"><a xlink:href="types_8h.html#adbc4238237e656eb247fd49ffbfb1a6d" target="_top" xlink:title=" ">
<polygon fill="white" stroke="#666666" points="586,-160 478.5,-160 478.5,-128 586,-128 586,-160"/>
<text text-anchor="start" x="486.5" y="-146.5" font-family="Helvetica,sans-Serif" font-size="10.00">zrtos_types__ptr_get</text>
<text text-anchor="middle" x="532.25" y="-134.5" font-family="Helvetica,sans-Serif" font-size="10.00">_byte_distance</text>
</a>
</g>
</g>
<!-- Node9&#45;&gt;Node18 -->
<g id="edge21_Node000009_Node000018" class="edge">
<title>Node9&#45;&gt;Node18</title>
<g id="a_edge21_Node000009_Node000018"><a xlink:title=" ">
<path fill="none" stroke="#63b8ff" d="M437.31,-144C446.96,-144 457.08,-144 466.96,-144"/>
<polygon fill="#63b8ff" stroke="#63b8ff" points="466.89,-147.5 476.89,-144 466.89,-140.5 466.89,-147.5"/>
</a>
</g>
</g>
<!-- Node10&#45;&gt;Node5 -->
<g id="edge20_Node000010_Node000005" class="edge">
<title>Node10&#45;&gt;Node5</title>
<g id="a_edge20_Node000010_Node000005"><a xlink:title=" ">
<path fill="none" stroke="#63b8ff" d="M552.23,-83.58C598.65,-59.11 722.2,0 832.88,0 832.88,0 832.88,0 978,0 1074.54,0 1099.6,-6.58 1193,-31 1215.38,-36.85 1239.64,-46.17 1258.48,-54.12"/>
<polygon fill="#63b8ff" stroke="#63b8ff" points="1256.94,-57.26 1267.51,-58 1259.7,-50.83 1256.94,-57.26"/>
</a>
</g>
</g>
<!-- Node11 -->
<g id="Node000011" class="node">
<title>Node11</title>
<g id="a_Node000011"><a xlink:href="cbuffer_8h.html#ad0932ffc31c7150402dc49c28cbf2000" target="_top" xlink:title=" ">
<polygon fill="white" stroke="#666666" points="743.75,-104 622,-104 622,-84 743.75,-84 743.75,-104"/>
<text text-anchor="middle" x="682.88" y="-90.5" font-family="Helvetica,sans-Serif" font-size="10.00">zrtos_cbuffer_node__get</text>
</a>
</g>
</g>
<!-- Node10&#45;&gt;Node11 -->
<g id="edge10_Node000010_Node000011" class="edge">
<title>Node10&#45;&gt;Node11</title>
<g id="a_edge10_Node000010_Node000011"><a xlink:title=" ">
<path fill="none" stroke="#63b8ff" d="M580.28,-94C589.79,-94 600,-94 610.14,-94"/>
<polygon fill="#63b8ff" stroke="#63b8ff" points="610.02,-97.5 620.02,-94 610.02,-90.5 610.02,-97.5"/>
</a>
</g>
</g>
<!-- Node11&#45;&gt;Node8 -->
<g id="edge18_Node000011_Node000008" class="edge">
<title>Node11&#45;&gt;Node8</title>
<g id="a_edge18_Node000011_Node000008"><a xlink:title=" ">
<path fill="none" stroke="#63b8ff" d="M715.11,-104.48C732.18,-110.21 753.89,-117.5 774.01,-124.25"/>
<polygon fill="#63b8ff" stroke="#63b8ff" points="772.63,-127.48 783.23,-127.34 774.86,-120.84 772.63,-127.48"/>
</a>
</g>
</g>
<!-- Node12 -->
<g id="Node000012" class="node">
<title>Node12</title>
<g id="a_Node000012"><a xlink:href="cbuffer_8h.html#afc85ab6d8226b4a1b93d11c2ba1203f6" target="_top" xlink:title=" ">
<polygon fill="white" stroke="#666666" points="882.75,-110 785,-110 785,-78 882.75,-78 882.75,-110"/>
<text text-anchor="start" x="793" y="-96.5" font-family="Helvetica,sans-Serif" font-size="10.00">zrtos_cbuffer_node</text>
<text text-anchor="middle" x="833.88" y="-84.5" font-family="Helvetica,sans-Serif" font-size="10.00">__free</text>
</a>
</g>
</g>
<!-- Node11&#45;&gt;Node12 -->
<g id="edge11_Node000011_Node000012" class="edge">
<title>Node11&#45;&gt;Node12</title>
<g id="a_edge11_Node000011_Node000012"><a xlink:title=" ">
<path fill="none" stroke="#63b8ff" d="M744.05,-94C753.8,-94 763.9,-94 773.63,-94"/>
<polygon fill="#63b8ff" stroke="#63b8ff" points="773.33,-97.5 783.33,-94 773.33,-90.5 773.33,-97.5"/>
</a>
</g>
</g>
<!-- Node17 -->
<g id="Node000017" class="node">
<title>Node17</title>
<g id="a_Node000017"><a xlink:href="list_8h.html#a7262d2a0c144ef76b0f45193cebb8227" target="_top" xlink:title=" ">
<polygon fill="white" stroke="#666666" points="888,-60 779.75,-60 779.75,-28 888,-28 888,-60"/>
<text text-anchor="start" x="787.75" y="-46.5" font-family="Helvetica,sans-Serif" font-size="10.00">zrtos_list_node__has</text>
<text text-anchor="middle" x="833.88" y="-34.5" font-family="Helvetica,sans-Serif" font-size="10.00">_next_node</text>
</a>
</g>
</g>
<!-- Node11&#45;&gt;Node17 -->
<g id="edge19_Node000011_Node000017" class="edge">
<title>Node11&#45;&gt;Node17</title>
<g id="a_edge19_Node000011_Node000017"><a xlink:title=" ">
<path fill="none" stroke="#63b8ff" d="M715.11,-83.52C731.89,-77.89 753.14,-70.76 772.96,-64.1"/>
<polygon fill="#63b8ff" stroke="#63b8ff" points="773.99,-67.45 782.36,-60.95 771.76,-60.82 773.99,-67.45"/>
</a>
</g>
</g>
<!-- Node13 -->
<g id="Node000013" class="node">
<title>Node13</title>
<g id="a_Node000013"><a xlink:href="list_8h.html#a2b11d9c6f775a209430f16b719a19617" target="_top" xlink:title=" ">
<polygon fill="white" stroke="#666666" points="1023.25,-95 930.75,-95 930.75,-75 1023.25,-75 1023.25,-95"/>
<text text-anchor="middle" x="977" y="-81.5" font-family="Helvetica,sans-Serif" font-size="10.00">zrtos_list__delete</text>
</a>
</g>
</g>
<!-- Node12&#45;&gt;Node13 -->
<g id="edge12_Node000012_Node000013" class="edge">
<title>Node12&#45;&gt;Node13</title>
<g id="a_edge12_Node000012_Node000013"><a xlink:title=" ">
<path fill="none" stroke="#63b8ff" d="M883.05,-90.93C894.67,-90.19 907.19,-89.39 919.16,-88.62"/>
<polygon fill="#63b8ff" stroke="#63b8ff" points="919.16,-92.13 928.91,-88 918.71,-85.15 919.16,-92.13"/>
</a>
</g>
</g>
<!-- Node15 -->
<g id="Node000015" class="node">
<title>Node15</title>
<g id="a_Node000015"><a xlink:href="malloc__limit_8h.html#ad9dc03f9dd447b3ffb64b0ec3873f61f" target="_top" xlink:title=" ">
<polygon fill="white" stroke="#666666" points="1024.38,-145 929.62,-145 929.62,-113 1024.38,-113 1024.38,-145"/>
<text text-anchor="start" x="937.62" y="-131.5" font-family="Helvetica,sans-Serif" font-size="10.00">zrtos_malloc_limit</text>
<text text-anchor="middle" x="977" y="-119.5" font-family="Helvetica,sans-Serif" font-size="10.00">__free</text>
</a>
</g>
</g>
<!-- Node12&#45;&gt;Node15 -->
<g id="edge16_Node000012_Node000015" class="edge">
<title>Node12&#45;&gt;Node15</title>
<g id="a_edge16_Node000012_Node000015"><a xlink:title=" ">
<path fill="none" stroke="#63b8ff" d="M883.05,-105.95C894.42,-108.77 906.67,-111.8 918.41,-114.72"/>
<polygon fill="#63b8ff" stroke="#63b8ff" points="917.46,-118.09 928.01,-117.1 919.14,-111.29 917.46,-118.09"/>
</a>
</g>
</g>
<!-- Node13&#45;&gt;Node5 -->
<g id="edge13_Node000013_Node000005" class="edge">
<title>Node13&#45;&gt;Node5</title>
<g id="a_edge13_Node000013_Node000005"><a xlink:title=" ">
<path fill="none" stroke="#63b8ff" d="M1023.59,-82.67C1074.32,-80.08 1157.06,-75.86 1217.19,-72.79"/>
<polygon fill="#63b8ff" stroke="#63b8ff" points="1217.2,-76.3 1227,-72.29 1216.84,-69.31 1217.2,-76.3"/>
</a>
</g>
</g>
<!-- Node14 -->
<g id="Node000014" class="node">
<title>Node14</title>
<g id="a_Node000014"><a xlink:href="list_8h.html#a4ecf7568bdda1cd815956c391f29bf1e" target="_top" xlink:title=" ">
<polygon fill="white" stroke="#666666" points="1171.62,-60 1087.38,-60 1087.38,-40 1171.62,-40 1171.62,-60"/>
<text text-anchor="middle" x="1129.5" y="-46.5" font-family="Helvetica,sans-Serif" font-size="10.00">zrtos_list__shift</text>
</a>
</g>
</g>
<!-- Node13&#45;&gt;Node14 -->
<g id="edge14_Node000013_Node000014" class="edge">
<title>Node13&#45;&gt;Node14</title>
<g id="a_edge14_Node000013_Node000014"><a xlink:title=" ">
<path fill="none" stroke="#63b8ff" d="M1022.75,-74.59C1039.45,-70.71 1058.57,-66.26 1075.91,-62.23"/>
<polygon fill="#63b8ff" stroke="#63b8ff" points="1076.59,-65.67 1085.54,-59.99 1075,-58.85 1076.59,-65.67"/>
</a>
</g>
</g>
<!-- Node14&#45;&gt;Node5 -->
<g id="edge15_Node000014_Node000005" class="edge">
<title>Node14&#45;&gt;Node5</title>
<g id="a_edge15_Node000014_Node000005"><a xlink:title=" ">
<path fill="none" stroke="#63b8ff" d="M1171.96,-54.89C1185.83,-56.53 1201.74,-58.41 1217.33,-60.25"/>
<polygon fill="#63b8ff" stroke="#63b8ff" points="1216.75,-63.7 1227.09,-61.4 1217.57,-56.75 1216.75,-63.7"/>
</a>
</g>
</g>
<!-- Node16 -->
<g id="Node000016" class="node">
<title>Node16</title>
<g id="a_Node000016"><a xlink:href="malloc_8h.html#aeba49dabb0a21ae4e02fa137e195bb1d" target="_top" xlink:title=" ">
<polygon fill="white" stroke="#666666" points="1193,-139 1066,-139 1066,-119 1193,-119 1193,-139"/>
<text text-anchor="middle" x="1129.5" y="-125.5" font-family="Helvetica,sans-Serif" font-size="10.00">zrtos_malloc__get_length</text>
</a>
</g>
</g>
<!-- Node15&#45;&gt;Node16 -->
<g id="edge17_Node000015_Node000016" class="edge">
<title>Node15&#45;&gt;Node16</title>
<g id="a_edge17_Node000015_Node000016"><a xlink:title=" ">
<path fill="none" stroke="#63b8ff" d="M1024.79,-129C1034.2,-129 1044.3,-129 1054.37,-129"/>
<polygon fill="#63b8ff" stroke="#63b8ff" points="1054.18,-132.5 1064.18,-129 1054.18,-125.5 1054.18,-132.5"/>
</a>
</g>
</g>
</g>
</svg>
