<?xml version="1.0" encoding="UTF-8" standalone="no"?>
<!DOCTYPE svg PUBLIC "-//W3C//DTD SVG 1.1//EN"
 "http://www.w3.org/Graphics/SVG/1.1/DTD/svg11.dtd">
<!-- Generated by graphviz version 2.40.1 (20161225.0304)
 -->
<!-- Title: zrtos_shell__run Pages: 1 -->
<svg width="653pt" height="156pt"
 viewBox="0.00 0.00 653.00 156.00" xmlns="http://www.w3.org/2000/svg" xmlns:xlink="http://www.w3.org/1999/xlink">
<g id="graph0" class="graph" transform="scale(1 1) rotate(0) translate(4 152)">
<title>zrtos_shell__run</title>
<polygon fill="#ffffff" stroke="transparent" points="-4,4 -4,-152 649,-152 649,4 -4,4"/>
<!-- Node15 -->
<g id="node1" class="node">
<title>Node15</title>
<polygon fill="#bfbfbf" stroke="#000000" points="0,-57.5 0,-76.5 88,-76.5 88,-57.5 0,-57.5"/>
<text text-anchor="middle" x="44" y="-64.5" font-family="Helvetica,sans-Serif" font-size="10.00" fill="#000000">zrtos_shell__run</text>
</g>
<!-- Node16 -->
<g id="node2" class="node">
<title>Node16</title>
<g id="a_node2"><a xlink:href="shell_8h.html#ae83ae2bdbcf73703df16cf91b83837ba" target="_top" xlink:title="zrtos_shell__parse_line">
<polygon fill="#ffffff" stroke="#000000" points="126,-95.5 126,-114.5 245,-114.5 245,-95.5 126,-95.5"/>
<text text-anchor="middle" x="185.5" y="-102.5" font-family="Helvetica,sans-Serif" font-size="10.00" fill="#000000">zrtos_shell__parse_line</text>
</a>
</g>
</g>
<!-- Node15&#45;&gt;Node16 -->
<g id="edge1" class="edge">
<title>Node15&#45;&gt;Node16</title>
<path fill="none" stroke="#191970" d="M79.7064,-76.589C97.9727,-81.4944 120.4084,-87.5196 139.9112,-92.7571"/>
<polygon fill="#191970" stroke="#191970" points="139.2394,-96.2006 149.805,-95.4141 141.055,-89.4401 139.2394,-96.2006"/>
</g>
<!-- Node20 -->
<g id="node6" class="node">
<title>Node20</title>
<g id="a_node6"><a xlink:href="error_8h.html#add13298163f63b7d37ed9f12d57e1a31" target="_top" xlink:title="zrtos_error__is_success">
<polygon fill="#ffffff" stroke="#000000" points="124,-57.5 124,-76.5 247,-76.5 247,-57.5 124,-57.5"/>
<text text-anchor="middle" x="185.5" y="-64.5" font-family="Helvetica,sans-Serif" font-size="10.00" fill="#000000">zrtos_error__is_success</text>
</a>
</g>
</g>
<!-- Node15&#45;&gt;Node20 -->
<g id="edge7" class="edge">
<title>Node15&#45;&gt;Node20</title>
<path fill="none" stroke="#191970" d="M88.3832,-67C96.4806,-67 105.1156,-67 113.7703,-67"/>
<polygon fill="#191970" stroke="#191970" points="113.908,-70.5001 123.9079,-67 113.9079,-63.5001 113.908,-70.5001"/>
</g>
<!-- Node21 -->
<g id="node7" class="node">
<title>Node21</title>
<g id="a_node7"><a xlink:href="shell_8h.html#a1befe6bca07bcbe433df498977603be4" target="_top" xlink:title="zrtos_shell__execute">
<polygon fill="#ffffff" stroke="#000000" points="131,-19.5 131,-38.5 240,-38.5 240,-19.5 131,-19.5"/>
<text text-anchor="middle" x="185.5" y="-26.5" font-family="Helvetica,sans-Serif" font-size="10.00" fill="#000000">zrtos_shell__execute</text>
</a>
</g>
</g>
<!-- Node15&#45;&gt;Node21 -->
<g id="edge8" class="edge">
<title>Node15&#45;&gt;Node21</title>
<path fill="none" stroke="#191970" d="M79.7064,-57.411C97.9727,-52.5056 120.4084,-46.4804 139.9112,-41.2429"/>
<polygon fill="#191970" stroke="#191970" points="141.055,-44.5599 149.805,-38.5859 139.2394,-37.7994 141.055,-44.5599"/>
</g>
<!-- Node17 -->
<g id="node3" class="node">
<title>Node17</title>
<g id="a_node3"><a xlink:href="str_8h.html#a449cee93b0e54bd698d6c14d8ad83957" target="_top" xlink:title="zrtos_str__spn">
<polygon fill="#ffffff" stroke="#000000" points="413,-128.5 413,-147.5 494,-147.5 494,-128.5 413,-128.5"/>
<text text-anchor="middle" x="453.5" y="-135.5" font-family="Helvetica,sans-Serif" font-size="10.00" fill="#000000">zrtos_str__spn</text>
</a>
</g>
</g>
<!-- Node16&#45;&gt;Node17 -->
<g id="edge2" class="edge">
<title>Node16&#45;&gt;Node17</title>
<path fill="none" stroke="#191970" d="M229.0098,-114.5463C245.8106,-117.9514 265.2332,-121.5471 283,-124 322.9945,-129.5217 368.5898,-133.1268 402.5606,-135.2939"/>
<polygon fill="#191970" stroke="#191970" points="402.5143,-138.7976 412.711,-135.9208 402.9458,-131.8109 402.5143,-138.7976"/>
</g>
<!-- Node18 -->
<g id="node4" class="node">
<title>Node18</title>
<g id="a_node4"><a xlink:href="str_8h.html#a94f2645c0c594c77acacede9a145ff11" target="_top" xlink:title="zrtos_str__cspn">
<polygon fill="#ffffff" stroke="#000000" points="410.5,-81.5 410.5,-100.5 496.5,-100.5 496.5,-81.5 410.5,-81.5"/>
<text text-anchor="middle" x="453.5" y="-88.5" font-family="Helvetica,sans-Serif" font-size="10.00" fill="#000000">zrtos_str__cspn</text>
</a>
</g>
</g>
<!-- Node16&#45;&gt;Node18 -->
<g id="edge3" class="edge">
<title>Node16&#45;&gt;Node18</title>
<path fill="none" stroke="#191970" d="M225.0937,-95.4896C242.7091,-91.7245 263.7744,-87.8558 283,-86 321.4878,-82.2849 331.3506,-84.8439 370,-86 379.6962,-86.29 390.0173,-86.7691 399.9771,-87.3189"/>
<polygon fill="#191970" stroke="#191970" points="399.9977,-90.8259 410.184,-87.9124 400.4041,-83.8377 399.9977,-90.8259"/>
</g>
<!-- Node19 -->
<g id="node5" class="node">
<title>Node19</title>
<g id="a_node5"><a xlink:href="str_8h.html#a895ecefd0a6db15a94d6cbf5fd2747d6" target="_top" xlink:title="zrtos_str__tok_r">
<polygon fill="#ffffff" stroke="#000000" points="283,-95.5 283,-114.5 370,-114.5 370,-95.5 283,-95.5"/>
<text text-anchor="middle" x="326.5" y="-102.5" font-family="Helvetica,sans-Serif" font-size="10.00" fill="#000000">zrtos_str__tok_r</text>
</a>
</g>
</g>
<!-- Node16&#45;&gt;Node19 -->
<g id="edge4" class="edge">
<title>Node16&#45;&gt;Node19</title>
<path fill="none" stroke="#191970" d="M245.2967,-105C254.3599,-105 263.6648,-105 272.5932,-105"/>
<polygon fill="#191970" stroke="#191970" points="272.8644,-108.5001 282.8644,-105 272.8643,-101.5001 272.8644,-108.5001"/>
</g>
<!-- Node19&#45;&gt;Node17 -->
<g id="edge5" class="edge">
<title>Node19&#45;&gt;Node17</title>
<path fill="none" stroke="#191970" d="M363.2337,-114.545C376.9237,-118.1022 392.6454,-122.1874 407.0918,-125.9412"/>
<polygon fill="#191970" stroke="#191970" points="406.2901,-129.349 416.8489,-128.4765 408.0505,-122.574 406.2901,-129.349"/>
</g>
<!-- Node19&#45;&gt;Node18 -->
<g id="edge6" class="edge">
<title>Node19&#45;&gt;Node18</title>
<path fill="none" stroke="#191970" d="M370.2062,-100.182C379.7917,-99.1253 390.0458,-97.995 399.967,-96.9013"/>
<polygon fill="#191970" stroke="#191970" points="400.5872,-100.3542 410.1435,-95.7795 399.8201,-93.3963 400.5872,-100.3542"/>
</g>
<!-- Node22 -->
<g id="node8" class="node">
<title>Node22</title>
<g id="a_node8"><a xlink:href="str_8h.html#a7e9860a6921e03fd013bbb20bf4a88b3" target="_top" xlink:title="zrtos_str__cmp">
<polygon fill="#ffffff" stroke="#000000" points="284.5,-19.5 284.5,-38.5 368.5,-38.5 368.5,-19.5 284.5,-19.5"/>
<text text-anchor="middle" x="326.5" y="-26.5" font-family="Helvetica,sans-Serif" font-size="10.00" fill="#000000">zrtos_str__cmp</text>
</a>
</g>
</g>
<!-- Node21&#45;&gt;Node22 -->
<g id="edge9" class="edge">
<title>Node21&#45;&gt;Node22</title>
<path fill="none" stroke="#191970" d="M240.0143,-29C251.2874,-29 263.1361,-29 274.3233,-29"/>
<polygon fill="#191970" stroke="#191970" points="274.3759,-32.5001 284.3759,-29 274.3759,-25.5001 274.3759,-32.5001"/>
</g>
<!-- Node23 -->
<g id="node9" class="node">
<title>Node23</title>
<g id="a_node9"><a xlink:href="str_8h.html#a0bbbf024b181a2c7d5ec9056efb84743" target="_top" xlink:title="zrtos_str__len">
<polygon fill="#ffffff" stroke="#000000" points="414.5,-38.5 414.5,-57.5 492.5,-57.5 492.5,-38.5 414.5,-38.5"/>
<text text-anchor="middle" x="453.5" y="-45.5" font-family="Helvetica,sans-Serif" font-size="10.00" fill="#000000">zrtos_str__len</text>
</a>
</g>
</g>
<!-- Node22&#45;&gt;Node23 -->
<g id="edge10" class="edge">
<title>Node22&#45;&gt;Node23</title>
<path fill="none" stroke="#191970" d="M368.7892,-35.3267C380.1742,-37.03 392.5869,-38.887 404.3128,-40.6413"/>
<polygon fill="#191970" stroke="#191970" points="403.9896,-44.1318 414.3974,-42.15 405.0254,-37.2089 403.9896,-44.1318"/>
</g>
<!-- Node25 -->
<g id="node11" class="node">
<title>Node25</title>
<g id="a_node11"><a xlink:href="mem_8h.html#abc92c0f931688ddf8da31714fff6a8d3" target="_top" xlink:title="zrtos_mem__cmp">
<polygon fill="#ffffff" stroke="#000000" points="406,-.5 406,-19.5 501,-19.5 501,-.5 406,-.5"/>
<text text-anchor="middle" x="453.5" y="-7.5" font-family="Helvetica,sans-Serif" font-size="10.00" fill="#000000">zrtos_mem__cmp</text>
</a>
</g>
</g>
<!-- Node22&#45;&gt;Node25 -->
<g id="edge12" class="edge">
<title>Node22&#45;&gt;Node25</title>
<path fill="none" stroke="#191970" d="M368.7892,-22.6733C377.3871,-21.387 386.5712,-20.013 395.603,-18.6618"/>
<polygon fill="#191970" stroke="#191970" points="396.3239,-22.0929 405.696,-17.1518 395.2882,-15.17 396.3239,-22.0929"/>
</g>
<!-- Node24 -->
<g id="node10" class="node">
<title>Node24</title>
<g id="a_node10"><a xlink:href="types_8h.html#adbc4238237e656eb247fd49ffbfb1a6d" target="_top" xlink:title="zrtos_types__ptr_get\l_byte_distance">
<polygon fill="#ffffff" stroke="#000000" points="537,-33 537,-63 645,-63 645,-33 537,-33"/>
<text text-anchor="start" x="545" y="-51" font-family="Helvetica,sans-Serif" font-size="10.00" fill="#000000">zrtos_types__ptr_get</text>
<text text-anchor="middle" x="591" y="-40" font-family="Helvetica,sans-Serif" font-size="10.00" fill="#000000">_byte_distance</text>
</a>
</g>
</g>
<!-- Node23&#45;&gt;Node24 -->
<g id="edge11" class="edge">
<title>Node23&#45;&gt;Node24</title>
<path fill="none" stroke="#191970" d="M492.5342,-48C503.2192,-48 515.0901,-48 526.7852,-48"/>
<polygon fill="#191970" stroke="#191970" points="526.9832,-51.5001 536.9832,-48 526.9832,-44.5001 526.9832,-51.5001"/>
</g>
</g>
</svg>
