<?xml version="1.0" encoding="UTF-8" standalone="no"?>
<!DOCTYPE svg PUBLIC "-//W3C//DTD SVG 1.1//EN"
 "http://www.w3.org/Graphics/SVG/1.1/DTD/svg11.dtd">
<!-- Generated by graphviz version 2.40.1 (20161225.0304)
 -->
<!-- Title: zrtos_vfs_module_spi_file__free Pages: 1 -->
<svg width="1154pt" height="159pt"
 viewBox="0.00 0.00 1154.00 158.50" xmlns="http://www.w3.org/2000/svg" xmlns:xlink="http://www.w3.org/1999/xlink">
<g id="graph0" class="graph" transform="scale(1 1) rotate(0) translate(4 154.5)">
<title>zrtos_vfs_module_spi_file__free</title>
<polygon fill="#ffffff" stroke="transparent" points="-4,4 -4,-154.5 1150,-154.5 1150,4 -4,4"/>
<!-- Node226 -->
<g id="node1" class="node">
<title>Node226</title>
<polygon fill="#bfbfbf" stroke="#000000" points="0,-25.5 0,-55.5 112,-55.5 112,-25.5 0,-25.5"/>
<text text-anchor="start" x="8" y="-43.5" font-family="Helvetica,sans-Serif" font-size="10.00" fill="#000000">zrtos_vfs_module_spi</text>
<text text-anchor="middle" x="56" y="-32.5" font-family="Helvetica,sans-Serif" font-size="10.00" fill="#000000">_file__free</text>
</g>
<!-- Node227 -->
<g id="node2" class="node">
<title>Node227</title>
<g id="a_node2"><a xlink:href="spi_2spi_8h.html#a32046c6fe4df16f4795a3de4fdf61f8f" target="_top" xlink:title="zrtos_vfs_module_spi\l_file__deinit">
<polygon fill="#ffffff" stroke="#000000" points="148,-25.5 148,-55.5 260,-55.5 260,-25.5 148,-25.5"/>
<text text-anchor="start" x="156" y="-43.5" font-family="Helvetica,sans-Serif" font-size="10.00" fill="#000000">zrtos_vfs_module_spi</text>
<text text-anchor="middle" x="204" y="-32.5" font-family="Helvetica,sans-Serif" font-size="10.00" fill="#000000">_file__deinit</text>
</a>
</g>
</g>
<!-- Node226&#45;&gt;Node227 -->
<g id="edge1" class="edge">
<title>Node226&#45;&gt;Node227</title>
<path fill="none" stroke="#191970" d="M112.3747,-40.5C120.6214,-40.5 129.1782,-40.5 137.6023,-40.5"/>
<polygon fill="#191970" stroke="#191970" points="137.7821,-44.0001 147.7821,-40.5 137.7821,-37.0001 137.7821,-44.0001"/>
</g>
<!-- Node228 -->
<g id="node3" class="node">
<title>Node228</title>
<g id="a_node3"><a xlink:href="cbuffer_8h.html#ac432ff17b01aedab263746e01d2df060" target="_top" xlink:title="zrtos_cbuffer__deinit">
<polygon fill="#ffffff" stroke="#000000" points="296,-55 296,-74 403,-74 403,-55 296,-55"/>
<text text-anchor="middle" x="349.5" y="-62" font-family="Helvetica,sans-Serif" font-size="10.00" fill="#000000">zrtos_cbuffer__deinit</text>
</a>
</g>
</g>
<!-- Node227&#45;&gt;Node228 -->
<g id="edge2" class="edge">
<title>Node227&#45;&gt;Node228</title>
<path fill="none" stroke="#191970" d="M260.2541,-49.779C268.6458,-51.1632 277.3465,-52.5984 285.8772,-54.0055"/>
<polygon fill="#191970" stroke="#191970" points="285.3483,-57.4655 295.7846,-55.6397 286.4876,-50.5588 285.3483,-57.4655"/>
</g>
<!-- Node238 -->
<g id="node13" class="node">
<title>Node238</title>
<g id="a_node13"><a xlink:href="clist_8h.html#a383b927f3eeb7f78f5ae9929138a635f" target="_top" xlink:title="zrtos_clist__delete">
<polygon fill="#ffffff" stroke="#000000" points="300.5,-12 300.5,-31 398.5,-31 398.5,-12 300.5,-12"/>
<text text-anchor="middle" x="349.5" y="-19" font-family="Helvetica,sans-Serif" font-size="10.00" fill="#000000">zrtos_clist__delete</text>
</a>
</g>
</g>
<!-- Node227&#45;&gt;Node238 -->
<g id="edge15" class="edge">
<title>Node227&#45;&gt;Node238</title>
<path fill="none" stroke="#191970" d="M260.2541,-33.1541C269.9877,-31.883 280.1372,-30.5577 289.9548,-29.2757"/>
<polygon fill="#191970" stroke="#191970" points="290.5715,-32.7249 300.0341,-27.9595 289.6651,-25.7839 290.5715,-32.7249"/>
</g>
<!-- Node229 -->
<g id="node4" class="node">
<title>Node229</title>
<g id="a_node4"><a xlink:href="list_8h.html#ab2efaa1af7b804994b227ea5436bea39" target="_top" xlink:title="zrtos_list__deinit">
<polygon fill="#ffffff" stroke="#000000" points="725.5,-99 725.5,-118 815.5,-118 815.5,-99 725.5,-99"/>
<text text-anchor="middle" x="770.5" y="-106" font-family="Helvetica,sans-Serif" font-size="10.00" fill="#000000">zrtos_list__deinit</text>
</a>
</g>
</g>
<!-- Node228&#45;&gt;Node229 -->
<g id="edge3" class="edge">
<title>Node228&#45;&gt;Node229</title>
<path fill="none" stroke="#191970" d="M377.7655,-74.0804C395.2047,-79.5673 418.1522,-86.0324 439,-89.5 535.2151,-105.5033 649.0561,-108.6522 715.1944,-108.9478"/>
<polygon fill="#191970" stroke="#191970" points="715.3812,-112.4481 725.3896,-108.9722 715.3981,-105.4481 715.3812,-112.4481"/>
</g>
<!-- Node233 -->
<g id="node8" class="node">
<title>Node233</title>
<g id="a_node8"><a xlink:href="cbuffer_8h.html#a5100fc709c08ad12bbce96e5320b3e3d" target="_top" xlink:title="zrtos_cbuffer__deinit\l_callback">
<polygon fill="#ffffff" stroke="#000000" points="441.5,-49.5 441.5,-79.5 548.5,-79.5 548.5,-49.5 441.5,-49.5"/>
<text text-anchor="start" x="449.5" y="-67.5" font-family="Helvetica,sans-Serif" font-size="10.00" fill="#000000">zrtos_cbuffer__deinit</text>
<text text-anchor="middle" x="495" y="-56.5" font-family="Helvetica,sans-Serif" font-size="10.00" fill="#000000">_callback</text>
</a>
</g>
</g>
<!-- Node228&#45;&gt;Node233 -->
<g id="edge8" class="edge">
<title>Node228&#45;&gt;Node233</title>
<path fill="none" stroke="#191970" d="M403.2654,-64.5C412.4206,-64.5 422.0071,-64.5 431.3876,-64.5"/>
<polygon fill="#191970" stroke="#191970" points="431.4556,-68.0001 441.4555,-64.5 431.4555,-61.0001 431.4556,-68.0001"/>
</g>
<!-- Node230 -->
<g id="node5" class="node">
<title>Node230</title>
<g id="a_node5"><a xlink:href="list_8h.html#a19f2741be75dd514c2227963d8c629dd" target="_top" xlink:title="zrtos_list__is_empty">
<polygon fill="#ffffff" stroke="#000000" points="864.5,-131 864.5,-150 971.5,-150 971.5,-131 864.5,-131"/>
<text text-anchor="middle" x="918" y="-138" font-family="Helvetica,sans-Serif" font-size="10.00" fill="#000000">zrtos_list__is_empty</text>
</a>
</g>
</g>
<!-- Node229&#45;&gt;Node230 -->
<g id="edge4" class="edge">
<title>Node229&#45;&gt;Node230</title>
<path fill="none" stroke="#191970" d="M814.3555,-118.0144C829.9675,-121.4014 847.7309,-125.2552 864.0878,-128.8038"/>
<polygon fill="#191970" stroke="#191970" points="863.544,-132.2672 874.0588,-130.967 865.0282,-125.4263 863.544,-132.2672"/>
</g>
<!-- Node232 -->
<g id="node7" class="node">
<title>Node232</title>
<g id="a_node7"><a xlink:href="list_8h.html#aee76d71632ab03e18ad9358fc8b35044" target="_top" xlink:title="zrtos_list__shift">
<polygon fill="#ffffff" stroke="#000000" points="875,-93 875,-112 961,-112 961,-93 875,-93"/>
<text text-anchor="middle" x="918" y="-100" font-family="Helvetica,sans-Serif" font-size="10.00" fill="#000000">zrtos_list__shift</text>
</a>
</g>
</g>
<!-- Node229&#45;&gt;Node232 -->
<g id="edge6" class="edge">
<title>Node229&#45;&gt;Node232</title>
<path fill="none" stroke="#191970" d="M815.5563,-106.6672C831.0543,-106.0368 848.555,-105.3249 864.6491,-104.6702"/>
<polygon fill="#191970" stroke="#191970" points="865.1374,-108.1533 874.9869,-104.2497 864.8529,-101.1591 865.1374,-108.1533"/>
</g>
<!-- Node231 -->
<g id="node6" class="node">
<title>Node231</title>
<g id="a_node6"><a xlink:href="list_8h.html#a5a9358f4b25c9376dbdef338fa8333a6" target="_top" xlink:title="zrtos_list__get_first_node">
<polygon fill="#ffffff" stroke="#000000" points="1018,-93 1018,-112 1146,-112 1146,-93 1018,-93"/>
<text text-anchor="middle" x="1082" y="-100" font-family="Helvetica,sans-Serif" font-size="10.00" fill="#000000">zrtos_list__get_first_node</text>
</a>
</g>
</g>
<!-- Node230&#45;&gt;Node231 -->
<g id="edge5" class="edge">
<title>Node230&#45;&gt;Node231</title>
<path fill="none" stroke="#191970" d="M959.3841,-130.911C981.1232,-125.8739 1007.9575,-119.6562 1030.9747,-114.3229"/>
<polygon fill="#191970" stroke="#191970" points="1031.9616,-117.6871 1040.9135,-112.0201 1030.3815,-110.8677 1031.9616,-117.6871"/>
</g>
<!-- Node232&#45;&gt;Node231 -->
<g id="edge7" class="edge">
<title>Node232&#45;&gt;Node231</title>
<path fill="none" stroke="#191970" d="M961.0891,-102.5C975.3357,-102.5 991.6222,-102.5 1007.5278,-102.5"/>
<polygon fill="#191970" stroke="#191970" points="1007.8998,-106.0001 1017.8997,-102.5 1007.8997,-99.0001 1007.8998,-106.0001"/>
</g>
<!-- Node234 -->
<g id="node9" class="node">
<title>Node234</title>
<g id="a_node9"><a xlink:href="cbuffer_8h.html#afc85ab6d8226b4a1b93d11c2ba1203f6" target="_top" xlink:title="zrtos_cbuffer_node\l__free">
<polygon fill="#ffffff" stroke="#000000" points="587,-49.5 587,-79.5 687,-79.5 687,-49.5 587,-49.5"/>
<text text-anchor="start" x="595" y="-67.5" font-family="Helvetica,sans-Serif" font-size="10.00" fill="#000000">zrtos_cbuffer_node</text>
<text text-anchor="middle" x="637" y="-56.5" font-family="Helvetica,sans-Serif" font-size="10.00" fill="#000000">__free</text>
</a>
</g>
</g>
<!-- Node233&#45;&gt;Node234 -->
<g id="edge9" class="edge">
<title>Node233&#45;&gt;Node234</title>
<path fill="none" stroke="#191970" d="M548.6841,-64.5C557.9124,-64.5 567.5564,-64.5 576.9392,-64.5"/>
<polygon fill="#191970" stroke="#191970" points="576.9861,-68.0001 586.986,-64.5 576.986,-61.0001 576.9861,-68.0001"/>
</g>
<!-- Node235 -->
<g id="node10" class="node">
<title>Node235</title>
<g id="a_node10"><a xlink:href="list_8h.html#a2b11d9c6f775a209430f16b719a19617" target="_top" xlink:title="zrtos_list__delete">
<polygon fill="#ffffff" stroke="#000000" points="724,-58 724,-77 817,-77 817,-58 724,-58"/>
<text text-anchor="middle" x="770.5" y="-65" font-family="Helvetica,sans-Serif" font-size="10.00" fill="#000000">zrtos_list__delete</text>
</a>
</g>
</g>
<!-- Node234&#45;&gt;Node235 -->
<g id="edge10" class="edge">
<title>Node234&#45;&gt;Node235</title>
<path fill="none" stroke="#191970" d="M687.0903,-65.6256C695.7051,-65.8192 704.7154,-66.0217 713.4959,-66.219"/>
<polygon fill="#191970" stroke="#191970" points="713.584,-69.7218 723.6602,-66.4474 713.7414,-62.7235 713.584,-69.7218"/>
</g>
<!-- Node236 -->
<g id="node11" class="node">
<title>Node236</title>
<g id="a_node11"><a xlink:href="malloc__limit_8h.html#ad9dc03f9dd447b3ffb64b0ec3873f61f" target="_top" xlink:title="zrtos_malloc_limit\l__free">
<polygon fill="#ffffff" stroke="#000000" points="723,-8.5 723,-38.5 818,-38.5 818,-8.5 723,-8.5"/>
<text text-anchor="start" x="731" y="-26.5" font-family="Helvetica,sans-Serif" font-size="10.00" fill="#000000">zrtos_malloc_limit</text>
<text text-anchor="middle" x="770.5" y="-15.5" font-family="Helvetica,sans-Serif" font-size="10.00" fill="#000000">__free</text>
</a>
</g>
</g>
<!-- Node234&#45;&gt;Node236 -->
<g id="edge13" class="edge">
<title>Node234&#45;&gt;Node236</title>
<path fill="none" stroke="#191970" d="M685.9524,-49.4659C694.8056,-46.747 704.1093,-43.8896 713.1763,-41.105"/>
<polygon fill="#191970" stroke="#191970" points="714.3576,-44.4036 722.8894,-38.122 712.3025,-37.7121 714.3576,-44.4036"/>
</g>
<!-- Node235&#45;&gt;Node231 -->
<g id="edge11" class="edge">
<title>Node235&#45;&gt;Node231</title>
<path fill="none" stroke="#191970" d="M817.2805,-69.5295C860.2414,-71.7509 925.5996,-76.0326 982,-83.5 996.8034,-85.46 1012.7294,-88.1961 1027.4241,-90.9825"/>
<polygon fill="#191970" stroke="#191970" points="1026.8883,-94.4438 1037.3716,-92.9107 1028.2204,-87.5717 1026.8883,-94.4438"/>
</g>
<!-- Node235&#45;&gt;Node232 -->
<g id="edge12" class="edge">
<title>Node235&#45;&gt;Node232</title>
<path fill="none" stroke="#191970" d="M810.805,-77.0639C828.4468,-81.2501 849.328,-86.2049 867.9525,-90.6243"/>
<polygon fill="#191970" stroke="#191970" points="867.2058,-94.0443 877.7437,-92.9477 868.822,-87.2334 867.2058,-94.0443"/>
</g>
<!-- Node237 -->
<g id="node12" class="node">
<title>Node237</title>
<g id="a_node12"><a xlink:href="malloc_8h.html#aeba49dabb0a21ae4e02fa137e195bb1d" target="_top" xlink:title="zrtos_malloc__get_length">
<polygon fill="#ffffff" stroke="#000000" points="854,-14 854,-33 982,-33 982,-14 854,-14"/>
<text text-anchor="middle" x="918" y="-21" font-family="Helvetica,sans-Serif" font-size="10.00" fill="#000000">zrtos_malloc__get_length</text>
</a>
</g>
</g>
<!-- Node236&#45;&gt;Node237 -->
<g id="edge14" class="edge">
<title>Node236&#45;&gt;Node237</title>
<path fill="none" stroke="#191970" d="M818.389,-23.5C826.5512,-23.5 835.1973,-23.5 843.8507,-23.5"/>
<polygon fill="#191970" stroke="#191970" points="843.9839,-27.0001 853.9839,-23.5 843.9838,-20.0001 843.9839,-27.0001"/>
</g>
<!-- Node239 -->
<g id="node14" class="node">
<title>Node239</title>
<g id="a_node14"><a xlink:href="clist_8h.html#adc7d3acc850be7934c1c38390033a93d" target="_top" xlink:title="zrtos_clist_node__get\l_previous_node">
<polygon fill="#ffffff" stroke="#000000" points="439,-.5 439,-30.5 551,-30.5 551,-.5 439,-.5"/>
<text text-anchor="start" x="447" y="-18.5" font-family="Helvetica,sans-Serif" font-size="10.00" fill="#000000">zrtos_clist_node__get</text>
<text text-anchor="middle" x="495" y="-7.5" font-family="Helvetica,sans-Serif" font-size="10.00" fill="#000000">_previous_node</text>
</a>
</g>
</g>
<!-- Node238&#45;&gt;Node239 -->
<g id="edge16" class="edge">
<title>Node238&#45;&gt;Node239</title>
<path fill="none" stroke="#191970" d="M398.7597,-19.4687C408.4055,-19.0709 418.6684,-18.6477 428.7628,-18.2314"/>
<polygon fill="#191970" stroke="#191970" points="428.9247,-21.7278 438.7719,-17.8187 428.6362,-14.7338 428.9247,-21.7278"/>
</g>
</g>
</svg>
