<?xml version="1.0" encoding="UTF-8" standalone="no"?>
<!DOCTYPE svg PUBLIC "-//W3C//DTD SVG 1.1//EN"
 "http://www.w3.org/Graphics/SVG/1.1/DTD/svg11.dtd">
<!-- Generated by graphviz version 10.0.1 (20240210.2158)
 -->
<!-- Title: zrtos_vfs_module_spi_sync__on_write_helper Pages: 1 -->
<svg width="1539pt" height="331pt"
 viewBox="0.00 0.00 1539.00 331.00" xmlns="http://www.w3.org/2000/svg" xmlns:xlink="http://www.w3.org/1999/xlink">
<g id="graph0" class="graph" transform="scale(1 1) rotate(0) translate(4 327)">
<title>zrtos_vfs_module_spi_sync__on_write_helper</title>
<!-- Node1 -->
<g id="Node000001" class="node">
<title>Node1</title>
<g id="a_Node000001"><a xlink:title=" ">
<polygon fill="#999999" stroke="#666666" points="120.25,-215 0,-215 0,-183 120.25,-183 120.25,-215"/>
<text text-anchor="start" x="8" y="-201.5" font-family="Helvetica,sans-Serif" font-size="10.00">zrtos_vfs_module_spi</text>
<text text-anchor="middle" x="60.12" y="-189.5" font-family="Helvetica,sans-Serif" font-size="10.00">_sync__on_write_helper</text>
</a>
</g>
</g>
<!-- Node2 -->
<g id="Node000002" class="node">
<title>Node2</title>
<g id="a_Node000002"><a xlink:href="error_8h.html#add13298163f63b7d37ed9f12d57e1a31" target="_top" xlink:title=" ">
<polygon fill="white" stroke="#666666" points="284,-323 161.5,-323 161.5,-303 284,-303 284,-323"/>
<text text-anchor="middle" x="222.75" y="-309.5" font-family="Helvetica,sans-Serif" font-size="10.00">zrtos_error__is_success</text>
</a>
</g>
</g>
<!-- Node1&#45;&gt;Node2 -->
<g id="edge1_Node000001_Node000002" class="edge">
<title>Node1&#45;&gt;Node2</title>
<g id="a_edge1_Node000001_Node000002"><a xlink:title=" ">
<path fill="none" stroke="#63b8ff" d="M73.11,-215.27C89.54,-236.46 121.08,-273.23 156.25,-294 158.84,-295.53 161.55,-296.94 164.35,-298.24"/>
<polygon fill="#63b8ff" stroke="#63b8ff" points="162.75,-301.37 173.33,-301.93 165.41,-294.9 162.75,-301.37"/>
</a>
</g>
</g>
<!-- Node3 -->
<g id="Node000003" class="node">
<title>Node3</title>
<g id="a_Node000003"><a xlink:href="gpio_8h.html#adf182ae6089f6e514abe34869ea54fb0" target="_top" xlink:title=" ">
<polygon fill="white" stroke="#666666" points="276.88,-285 168.62,-285 168.62,-265 276.88,-265 276.88,-285"/>
<text text-anchor="middle" x="222.75" y="-271.5" font-family="Helvetica,sans-Serif" font-size="10.00">zrtos_gpio__set_high</text>
</a>
</g>
</g>
<!-- Node1&#45;&gt;Node3 -->
<g id="edge2_Node000001_Node000003" class="edge">
<title>Node1&#45;&gt;Node3</title>
<g id="a_edge2_Node000001_Node000003"><a xlink:title=" ">
<path fill="none" stroke="#63b8ff" d="M84.45,-215.31C103.17,-227.81 130.48,-244.77 156.25,-256 160.29,-257.76 164.53,-259.41 168.84,-260.94"/>
<polygon fill="#63b8ff" stroke="#63b8ff" points="167.57,-264.21 178.16,-264.04 169.78,-257.57 167.57,-264.21"/>
</a>
</g>
</g>
<!-- Node5 -->
<g id="Node000005" class="node">
<title>Node5</title>
<g id="a_Node000005"><a xlink:href="gpio_8h.html#a54c6a96e2e8cb2b5bd47e9863328d499" target="_top" xlink:title=" ">
<polygon fill="white" stroke="#666666" points="275,-247 170.5,-247 170.5,-227 275,-227 275,-247"/>
<text text-anchor="middle" x="222.75" y="-233.5" font-family="Helvetica,sans-Serif" font-size="10.00">zrtos_gpio__set_low</text>
</a>
</g>
</g>
<!-- Node1&#45;&gt;Node5 -->
<g id="edge4_Node000001_Node000005" class="edge">
<title>Node1&#45;&gt;Node5</title>
<g id="a_edge4_Node000001_Node000005"><a xlink:title=" ">
<path fill="none" stroke="#63b8ff" d="M120.48,-213.04C135.51,-216.6 151.58,-220.4 166.4,-223.91"/>
<polygon fill="#63b8ff" stroke="#63b8ff" points="165.44,-227.28 175.98,-226.17 167.05,-220.46 165.44,-227.28"/>
</a>
</g>
</g>
<!-- Node6 -->
<g id="Node000006" class="node">
<title>Node6</title>
<g id="a_Node000006"><a xlink:href="task__mutex_8h.html#a123e93e1f2eac3befe64178fba0bbcbd" target="_top" xlink:title=" ">
<polygon fill="white" stroke="#666666" points="284,-209 161.5,-209 161.5,-189 284,-189 284,-209"/>
<text text-anchor="middle" x="222.75" y="-195.5" font-family="Helvetica,sans-Serif" font-size="10.00">zrtos_task_mutex__lock</text>
</a>
</g>
</g>
<!-- Node1&#45;&gt;Node6 -->
<g id="edge5_Node000001_Node000006" class="edge">
<title>Node1&#45;&gt;Node6</title>
<g id="a_edge5_Node000001_Node000006"><a xlink:title=" ">
<path fill="none" stroke="#63b8ff" d="M120.48,-199C129.99,-199 139.91,-199 149.68,-199"/>
<polygon fill="#63b8ff" stroke="#63b8ff" points="149.51,-202.5 159.51,-199 149.51,-195.5 149.51,-202.5"/>
</a>
</g>
</g>
<!-- Node27 -->
<g id="Node000027" class="node">
<title>Node27</title>
<g id="a_Node000027"><a xlink:href="task__mutex_8h.html#a7f508255a1ffb900d7b0da403be75e0d" target="_top" xlink:title=" ">
<polygon fill="white" stroke="#666666" points="289.25,-171 156.25,-171 156.25,-151 289.25,-151 289.25,-171"/>
<text text-anchor="middle" x="222.75" y="-157.5" font-family="Helvetica,sans-Serif" font-size="10.00">zrtos_task_mutex__unlock</text>
</a>
</g>
</g>
<!-- Node1&#45;&gt;Node27 -->
<g id="edge28_Node000001_Node000027" class="edge">
<title>Node1&#45;&gt;Node27</title>
<g id="a_edge28_Node000001_Node000027"><a xlink:title=" ">
<path fill="none" stroke="#63b8ff" d="M120.48,-184.96C135.51,-181.4 151.58,-177.6 166.4,-174.09"/>
<polygon fill="#63b8ff" stroke="#63b8ff" points="167.05,-177.54 175.98,-171.83 165.44,-170.72 167.05,-177.54"/>
</a>
</g>
</g>
<!-- Node28 -->
<g id="Node000028" class="node">
<title>Node28</title>
<g id="a_Node000028"><a xlink:href="vfs__file_8h.html#a54d958c5b0506ceeba5e57caf04631b5" target="_top" xlink:title=" ">
<polygon fill="white" stroke="#666666" points="282.5,-133 163,-133 163,-113 282.5,-113 282.5,-133"/>
<text text-anchor="middle" x="222.75" y="-119.5" font-family="Helvetica,sans-Serif" font-size="10.00">zrtos_vfs_file__get_data</text>
</a>
</g>
</g>
<!-- Node1&#45;&gt;Node28 -->
<g id="edge29_Node000001_Node000028" class="edge">
<title>Node1&#45;&gt;Node28</title>
<g id="a_edge29_Node000001_Node000028"><a xlink:title=" ">
<path fill="none" stroke="#63b8ff" d="M84.45,-182.69C103.17,-170.19 130.48,-153.23 156.25,-142 160.29,-140.24 164.53,-138.59 168.84,-137.06"/>
<polygon fill="#63b8ff" stroke="#63b8ff" points="169.78,-140.43 178.16,-133.96 167.57,-133.79 169.78,-140.43"/>
</a>
</g>
</g>
<!-- Node29 -->
<g id="Node000029" class="node">
<title>Node29</title>
<g id="a_Node000029"><a xlink:href="vfs__file_8h.html#adbc392417c3fef015ea0c4728d2be7c6" target="_top" xlink:title=" ">
<polygon fill="white" stroke="#666666" points="270.5,-95 175,-95 175,-63 270.5,-63 270.5,-95"/>
<text text-anchor="start" x="183" y="-81.5" font-family="Helvetica,sans-Serif" font-size="10.00">zrtos_vfs_file__get</text>
<text text-anchor="middle" x="222.75" y="-69.5" font-family="Helvetica,sans-Serif" font-size="10.00">_inode_data</text>
</a>
</g>
</g>
<!-- Node1&#45;&gt;Node29 -->
<g id="edge30_Node000001_Node000029" class="edge">
<title>Node1&#45;&gt;Node29</title>
<g id="a_edge30_Node000001_Node000029"><a xlink:title=" ">
<path fill="none" stroke="#63b8ff" d="M73.66,-182.8C90.47,-162.03 122.16,-126.08 156.25,-104 158.93,-102.26 161.75,-100.62 164.65,-99.07"/>
<polygon fill="#63b8ff" stroke="#63b8ff" points="165.94,-102.34 173.4,-94.81 162.87,-96.04 165.94,-102.34"/>
</a>
</g>
</g>
<!-- Node4 -->
<g id="Node000004" class="node">
<title>Node4</title>
<g id="a_Node000004"><a xlink:href="gpio_8h.html#ab031db7c74dcac4dbc16bfa8f00c8414" target="_top" xlink:title=" ">
<polygon fill="white" stroke="#666666" points="428.25,-291 331.25,-291 331.25,-259 428.25,-259 428.25,-291"/>
<text text-anchor="start" x="339.25" y="-277.5" font-family="Helvetica,sans-Serif" font-size="10.00">zrtos_gpio__digital</text>
<text text-anchor="middle" x="379.75" y="-265.5" font-family="Helvetica,sans-Serif" font-size="10.00">_write</text>
</a>
</g>
</g>
<!-- Node3&#45;&gt;Node4 -->
<g id="edge3_Node000003_Node000004" class="edge">
<title>Node3&#45;&gt;Node4</title>
<g id="a_edge3_Node000003_Node000004"><a xlink:title=" ">
<path fill="none" stroke="#63b8ff" d="M277.09,-275C290.71,-275 305.43,-275 319.32,-275"/>
<polygon fill="#63b8ff" stroke="#63b8ff" points="319.25,-278.5 329.25,-275 319.25,-271.5 319.25,-278.5"/>
</a>
</g>
</g>
<!-- Node7 -->
<g id="Node000007" class="node">
<title>Node7</title>
<g id="a_Node000007"><a xlink:href="task__scheduler_8h.html#ae070a60f724cc39d3a4118b57004e82f" target="_top" xlink:title=" ">
<polygon fill="white" stroke="#666666" points="434.25,-215 325.25,-215 325.25,-183 434.25,-183 434.25,-215"/>
<text text-anchor="start" x="333.25" y="-201.5" font-family="Helvetica,sans-Serif" font-size="10.00">zrtos_task_scheduler</text>
<text text-anchor="middle" x="379.75" y="-189.5" font-family="Helvetica,sans-Serif" font-size="10.00">__delay_ms</text>
</a>
</g>
</g>
<!-- Node6&#45;&gt;Node7 -->
<g id="edge6_Node000006_Node000007" class="edge">
<title>Node6&#45;&gt;Node7</title>
<g id="a_edge6_Node000006_Node000007"><a xlink:title=" ">
<path fill="none" stroke="#63b8ff" d="M284.12,-199C293.77,-199 303.8,-199 313.56,-199"/>
<polygon fill="#63b8ff" stroke="#63b8ff" points="313.34,-202.5 323.34,-199 313.34,-195.5 313.34,-202.5"/>
</a>
</g>
</g>
<!-- Node8 -->
<g id="Node000008" class="node">
<title>Node8</title>
<g id="a_Node000008"><a xlink:href="task__scheduler_8h.html#a6034c1a6c6888d05559bb9e2cfa7619b" target="_top" xlink:title=" ">
<polygon fill="white" stroke="#666666" points="1379.62,-234 1265.38,-234 1265.38,-202 1379.62,-202 1379.62,-234"/>
<text text-anchor="start" x="1273.38" y="-220.5" font-family="Helvetica,sans-Serif" font-size="10.00">_zrtos_task_scheduler</text>
<text text-anchor="middle" x="1322.5" y="-208.5" font-family="Helvetica,sans-Serif" font-size="10.00">__get_active_task</text>
</a>
</g>
</g>
<!-- Node7&#45;&gt;Node8 -->
<g id="edge7_Node000007_Node000008" class="edge">
<title>Node7&#45;&gt;Node8</title>
<g id="a_edge7_Node000007_Node000008"><a xlink:title=" ">
<path fill="none" stroke="#63b8ff" d="M431.08,-215.47C492.69,-234.14 600.53,-262 695.38,-262 695.38,-262 695.38,-262 1007.62,-262 1093.27,-262 1190.81,-245.73 1254.11,-232.98"/>
<polygon fill="#63b8ff" stroke="#63b8ff" points="1254.55,-236.46 1263.65,-231.03 1253.15,-229.61 1254.55,-236.46"/>
</a>
</g>
</g>
<!-- Node10 -->
<g id="Node000010" class="node">
<title>Node10</title>
<g id="a_Node000010"><a xlink:href="task__scheduler_8h.html#a8f15f366e9ce3328539ee562fd4c1e73" target="_top" xlink:title=" ">
<polygon fill="white" stroke="#666666" points="593.88,-215 479.62,-215 479.62,-183 593.88,-183 593.88,-215"/>
<text text-anchor="start" x="487.62" y="-201.5" font-family="Helvetica,sans-Serif" font-size="10.00">_zrtos_task_scheduler</text>
<text text-anchor="middle" x="536.75" y="-189.5" font-family="Helvetica,sans-Serif" font-size="10.00">__on_tick_ex</text>
</a>
</g>
</g>
<!-- Node7&#45;&gt;Node10 -->
<g id="edge9_Node000007_Node000010" class="edge">
<title>Node7&#45;&gt;Node10</title>
<g id="a_edge9_Node000007_Node000010"><a xlink:title=" ">
<path fill="none" stroke="#63b8ff" d="M434.53,-199C445.23,-199 456.61,-199 467.72,-199"/>
<polygon fill="#63b8ff" stroke="#63b8ff" points="467.66,-202.5 477.66,-199 467.66,-195.5 467.66,-202.5"/>
</a>
</g>
</g>
<!-- Node26 -->
<g id="Node000026" class="node">
<title>Node26</title>
<g id="a_Node000026"><a xlink:href="task_8h.html#ab94dfaf652c3dd1dd48e1b21972edcf9" target="_top" xlink:title=" ">
<polygon fill="white" stroke="#666666" points="603.25,-165 470.25,-165 470.25,-145 603.25,-145 603.25,-165"/>
<text text-anchor="middle" x="536.75" y="-151.5" font-family="Helvetica,sans-Serif" font-size="10.00">zrtos_task__set_delay_ms</text>
</a>
</g>
</g>
<!-- Node7&#45;&gt;Node26 -->
<g id="edge27_Node000007_Node000026" class="edge">
<title>Node7&#45;&gt;Node26</title>
<g id="a_edge27_Node000007_Node000026"><a xlink:title=" ">
<path fill="none" stroke="#63b8ff" d="M434.53,-183.73C452.03,-178.77 471.31,-173.29 488.32,-168.46"/>
<polygon fill="#63b8ff" stroke="#63b8ff" points="489,-171.91 497.66,-165.81 487.09,-165.18 489,-171.91"/>
</a>
</g>
</g>
<!-- Node9 -->
<g id="Node000009" class="node">
<title>Node9</title>
<g id="a_Node000009"><a xlink:href="clist_8h.html#acab2b5c771ea45635a9621a9dc1382d4" target="_top" xlink:title=" ">
<polygon fill="white" stroke="#666666" points="1531,-228 1424.25,-228 1424.25,-208 1531,-208 1531,-228"/>
<text text-anchor="middle" x="1477.62" y="-214.5" font-family="Helvetica,sans-Serif" font-size="10.00">zrtos_clist__get_root</text>
</a>
</g>
</g>
<!-- Node8&#45;&gt;Node9 -->
<g id="edge8_Node000008_Node000009" class="edge">
<title>Node8&#45;&gt;Node9</title>
<g id="a_edge8_Node000008_Node000009"><a xlink:title=" ">
<path fill="none" stroke="#63b8ff" d="M1380.08,-218C1390.59,-218 1401.64,-218 1412.37,-218"/>
<polygon fill="#63b8ff" stroke="#63b8ff" points="1412.31,-221.5 1422.31,-218 1412.31,-214.5 1412.31,-221.5"/>
</a>
</g>
</g>
<!-- Node11 -->
<g id="Node000011" class="node">
<title>Node11</title>
<g id="a_Node000011"><a xlink:href="task__scheduler_8h.html#ab670d7e1ab8db82279714a56efc3c99a" target="_top" xlink:title=" ">
<polygon fill="white" stroke="#666666" points="753.5,-196 639.25,-196 639.25,-164 753.5,-164 753.5,-196"/>
<text text-anchor="start" x="647.25" y="-182.5" font-family="Helvetica,sans-Serif" font-size="10.00">_zrtos_task_scheduler</text>
<text text-anchor="middle" x="696.38" y="-170.5" font-family="Helvetica,sans-Serif" font-size="10.00">__on_tick</text>
</a>
</g>
</g>
<!-- Node10&#45;&gt;Node11 -->
<g id="edge10_Node000010_Node000011" class="edge">
<title>Node10&#45;&gt;Node11</title>
<g id="a_edge10_Node000010_Node000011"><a xlink:title=" ">
<path fill="none" stroke="#63b8ff" d="M594.21,-192.19C604.96,-190.9 616.32,-189.53 627.39,-188.2"/>
<polygon fill="#63b8ff" stroke="#63b8ff" points="627.77,-191.67 637.28,-187 626.93,-184.73 627.77,-191.67"/>
</a>
</g>
</g>
<!-- Node12 -->
<g id="Node000012" class="node">
<title>Node12</title>
<g id="a_Node000012"><a xlink:href="task__scheduler_8h.html#aa63cd785e44d31b9ae87297fad4de032" target="_top" xlink:title=" ">
<polygon fill="white" stroke="#666666" points="903.75,-158 789.5,-158 789.5,-126 903.75,-126 903.75,-158"/>
<text text-anchor="start" x="797.5" y="-144.5" font-family="Helvetica,sans-Serif" font-size="10.00">_zrtos_task_scheduler</text>
<text text-anchor="middle" x="846.62" y="-132.5" font-family="Helvetica,sans-Serif" font-size="10.00">__switch_task</text>
</a>
</g>
</g>
<!-- Node11&#45;&gt;Node12 -->
<g id="edge11_Node000011_Node000012" class="edge">
<title>Node11&#45;&gt;Node12</title>
<g id="a_edge11_Node000011_Node000012"><a xlink:title=" ">
<path fill="none" stroke="#63b8ff" d="M753.84,-165.53C761.83,-163.48 770.11,-161.36 778.28,-159.26"/>
<polygon fill="#63b8ff" stroke="#63b8ff" points="779.03,-162.68 787.85,-156.81 777.29,-155.9 779.03,-162.68"/>
</a>
</g>
</g>
<!-- Node12&#45;&gt;Node8 -->
<g id="edge12_Node000012_Node000008" class="edge">
<title>Node12&#45;&gt;Node8</title>
<g id="a_edge12_Node000012_Node000008"><a xlink:title=" ">
<path fill="none" stroke="#63b8ff" d="M903.37,-158.4C915.3,-161.55 927.89,-164.61 939.75,-167 1048.7,-188.96 1177.11,-203.9 1253.77,-211.68"/>
<polygon fill="#63b8ff" stroke="#63b8ff" points="1253.36,-215.16 1263.65,-212.68 1254.05,-208.19 1253.36,-215.16"/>
</a>
</g>
</g>
<!-- Node13 -->
<g id="Node000013" class="node">
<title>Node13</title>
<g id="a_Node000013"><a xlink:href="task__scheduler_8h.html#a5b02c899435ad102d853bf4fec32cc7b" target="_top" xlink:title=" ">
<polygon fill="white" stroke="#666666" points="1063.75,-158 949.5,-158 949.5,-126 1063.75,-126 1063.75,-158"/>
<text text-anchor="start" x="957.5" y="-144.5" font-family="Helvetica,sans-Serif" font-size="10.00">_zrtos_task_scheduler</text>
<text text-anchor="middle" x="1006.62" y="-132.5" font-family="Helvetica,sans-Serif" font-size="10.00">__get_sleep_task</text>
</a>
</g>
</g>
<!-- Node12&#45;&gt;Node13 -->
<g id="edge13_Node000012_Node000013" class="edge">
<title>Node12&#45;&gt;Node13</title>
<g id="a_edge13_Node000012_Node000013"><a xlink:title=" ">
<path fill="none" stroke="#63b8ff" d="M904.22,-142C915.06,-142 926.52,-142 937.68,-142"/>
<polygon fill="#63b8ff" stroke="#63b8ff" points="937.65,-145.5 947.65,-142 937.65,-138.5 937.65,-145.5"/>
</a>
</g>
</g>
<!-- Node14 -->
<g id="Node000014" class="node">
<title>Node14</title>
<g id="a_Node000014"><a xlink:href="task__scheduler_8h.html#ae6c8c745afe69110cc85c56bff00689a" target="_top" xlink:title=" ">
<polygon fill="white" stroke="#666666" points="1063.75,-108 949.5,-108 949.5,-76 1063.75,-76 1063.75,-108"/>
<text text-anchor="start" x="957.5" y="-94.5" font-family="Helvetica,sans-Serif" font-size="10.00">_zrtos_task_scheduler</text>
<text text-anchor="middle" x="1006.62" y="-82.5" font-family="Helvetica,sans-Serif" font-size="10.00">__set_active_task</text>
</a>
</g>
</g>
<!-- Node12&#45;&gt;Node14 -->
<g id="edge14_Node000012_Node000014" class="edge">
<title>Node12&#45;&gt;Node14</title>
<g id="a_edge14_Node000012_Node000014"><a xlink:title=" ">
<path fill="none" stroke="#63b8ff" d="M899.36,-125.63C913.2,-121.25 928.32,-116.46 942.69,-111.92"/>
<polygon fill="#63b8ff" stroke="#63b8ff" points="943.58,-115.3 952.06,-108.95 941.47,-108.63 943.58,-115.3"/>
</a>
</g>
</g>
<!-- Node22 -->
<g id="Node000022" class="node">
<title>Node22</title>
<g id="a_Node000022"><a xlink:href="task_8h.html#a007a26e54f32157b572c217857c9c190" target="_top" xlink:title=" ">
<polygon fill="white" stroke="#666666" points="1073.5,-58 939.75,-58 939.75,-38 1073.5,-38 1073.5,-58"/>
<text text-anchor="middle" x="1006.62" y="-44.5" font-family="Helvetica,sans-Serif" font-size="10.00">zrtos_task__get_next_task</text>
</a>
</g>
</g>
<!-- Node12&#45;&gt;Node22 -->
<g id="edge23_Node000012_Node000022" class="edge">
<title>Node12&#45;&gt;Node22</title>
<g id="a_edge23_Node000012_Node000022"><a xlink:title=" ">
<path fill="none" stroke="#63b8ff" d="M863.47,-125.67C880.76,-108.73 909.96,-82.58 939.75,-67 942.97,-65.32 946.35,-63.77 949.82,-62.34"/>
<polygon fill="#63b8ff" stroke="#63b8ff" points="950.81,-65.7 958.97,-58.95 948.37,-59.14 950.81,-65.7"/>
</a>
</g>
</g>
<!-- Node24 -->
<g id="Node000024" class="node">
<title>Node24</title>
<g id="a_Node000024"><a xlink:href="task_8h.html#a886f2c097ab9830c80f6d0137c7bd526" target="_top" xlink:title=" ">
<polygon fill="white" stroke="#666666" points="1061.12,-20 952.12,-20 952.12,0 1061.12,0 1061.12,-20"/>
<text text-anchor="middle" x="1006.62" y="-6.5" font-family="Helvetica,sans-Serif" font-size="10.00">zrtos_task__is_ready</text>
</a>
</g>
</g>
<!-- Node12&#45;&gt;Node24 -->
<g id="edge25_Node000012_Node000024" class="edge">
<title>Node12&#45;&gt;Node24</title>
<g id="a_edge25_Node000012_Node000024"><a xlink:title=" ">
<path fill="none" stroke="#63b8ff" d="M856.4,-125.9C870.63,-101.3 901.1,-54.53 939.75,-29 941.85,-27.61 944.05,-26.33 946.32,-25.13"/>
<polygon fill="#63b8ff" stroke="#63b8ff" points="947.59,-28.4 955.26,-21.09 944.7,-22.02 947.59,-28.4"/>
</a>
</g>
</g>
<!-- Node25 -->
<g id="Node000025" class="node">
<title>Node25</title>
<g id="a_Node000025"><a xlink:href="task_8h.html#a3167eade7e7faf3fc23d540b9888aaf9" target="_top" xlink:title=" ">
<polygon fill="white" stroke="#666666" points="1058.5,-234 954.75,-234 954.75,-214 1058.5,-214 1058.5,-234"/>
<text text-anchor="middle" x="1006.62" y="-220.5" font-family="Helvetica,sans-Serif" font-size="10.00">zrtos_task__on_tick</text>
</a>
</g>
</g>
<!-- Node12&#45;&gt;Node25 -->
<g id="edge26_Node000012_Node000025" class="edge">
<title>Node12&#45;&gt;Node25</title>
<g id="a_edge26_Node000012_Node000025"><a xlink:title=" ">
<path fill="none" stroke="#63b8ff" d="M870.69,-158.46C888.85,-170.94 915.14,-187.94 939.75,-200 946.88,-203.49 954.66,-206.77 962.29,-209.7"/>
<polygon fill="#63b8ff" stroke="#63b8ff" points="960.88,-212.91 971.47,-213.09 963.3,-206.35 960.88,-212.91"/>
</a>
</g>
</g>
<!-- Node15 -->
<g id="Node000015" class="node">
<title>Node15</title>
<g id="a_Node000015"><a xlink:href="task__scheduler_8h.html#ac7d131d142e0c3285a06b925e1d39fe1" target="_top" xlink:title=" ">
<polygon fill="white" stroke="#666666" points="1219.62,-108 1110.62,-108 1110.62,-76 1219.62,-76 1219.62,-108"/>
<text text-anchor="start" x="1118.62" y="-94.5" font-family="Helvetica,sans-Serif" font-size="10.00">zrtos_task_scheduler</text>
<text text-anchor="middle" x="1165.12" y="-82.5" font-family="Helvetica,sans-Serif" font-size="10.00">__page_task_in</text>
</a>
</g>
</g>
<!-- Node14&#45;&gt;Node15 -->
<g id="edge15_Node000014_Node000015" class="edge">
<title>Node14&#45;&gt;Node15</title>
<g id="a_edge15_Node000014_Node000015"><a xlink:title=" ">
<path fill="none" stroke="#63b8ff" d="M1064.13,-92C1075.42,-92 1087.37,-92 1098.93,-92"/>
<polygon fill="#63b8ff" stroke="#63b8ff" points="1098.81,-95.5 1108.81,-92 1098.81,-88.5 1098.81,-95.5"/>
</a>
</g>
</g>
<!-- Node19 -->
<g id="Node000019" class="node">
<title>Node19</title>
<g id="a_Node000019"><a xlink:href="task__scheduler_8h.html#ac07ede37ac8af0c3d77478c3362c5098" target="_top" xlink:title=" ">
<polygon fill="white" stroke="#666666" points="1219.62,-158 1110.62,-158 1110.62,-126 1219.62,-126 1219.62,-158"/>
<text text-anchor="start" x="1118.62" y="-144.5" font-family="Helvetica,sans-Serif" font-size="10.00">zrtos_task_scheduler</text>
<text text-anchor="middle" x="1165.12" y="-132.5" font-family="Helvetica,sans-Serif" font-size="10.00">__page_task_out</text>
</a>
</g>
</g>
<!-- Node14&#45;&gt;Node19 -->
<g id="edge19_Node000014_Node000019" class="edge">
<title>Node14&#45;&gt;Node19</title>
<g id="a_edge19_Node000014_Node000019"><a xlink:title=" ">
<path fill="none" stroke="#63b8ff" d="M1058.87,-108.37C1072.58,-112.75 1087.55,-117.54 1101.79,-122.08"/>
<polygon fill="#63b8ff" stroke="#63b8ff" points="1100.47,-125.34 1111.06,-125.05 1102.6,-118.67 1100.47,-125.34"/>
</a>
</g>
</g>
<!-- Node16 -->
<g id="Node000016" class="node">
<title>Node16</title>
<g id="a_Node000016"><a xlink:href="clist_8h.html#aa49bd33d74422329134a7793b1284e80" target="_top" xlink:title=" ">
<polygon fill="white" stroke="#666666" points="1375.88,-70 1269.12,-70 1269.12,-50 1375.88,-50 1375.88,-70"/>
<text text-anchor="middle" x="1322.5" y="-56.5" font-family="Helvetica,sans-Serif" font-size="10.00">zrtos_clist__set_root</text>
</a>
</g>
</g>
<!-- Node15&#45;&gt;Node16 -->
<g id="edge16_Node000015_Node000016" class="edge">
<title>Node15&#45;&gt;Node16</title>
<g id="a_edge16_Node000015_Node000016"><a xlink:title=" ">
<path fill="none" stroke="#63b8ff" d="M1220.03,-80.9C1232.71,-78.29 1246.32,-75.48 1259.33,-72.8"/>
<polygon fill="#63b8ff" stroke="#63b8ff" points="1259.99,-76.24 1269.08,-70.8 1258.58,-69.39 1259.99,-76.24"/>
</a>
</g>
</g>
<!-- Node17 -->
<g id="Node000017" class="node">
<title>Node17</title>
<g id="a_Node000017"><a xlink:href="task_8h.html#a6d97ac60e5777143b600124289cc9de0" target="_top" xlink:title=" ">
<polygon fill="white" stroke="#666666" points="1378.88,-32 1266.12,-32 1266.12,-12 1378.88,-12 1378.88,-32"/>
<text text-anchor="middle" x="1322.5" y="-18.5" font-family="Helvetica,sans-Serif" font-size="10.00">zrtos_task__get_errno</text>
</a>
</g>
</g>
<!-- Node15&#45;&gt;Node17 -->
<g id="edge17_Node000015_Node000017" class="edge">
<title>Node15&#45;&gt;Node17</title>
<g id="a_edge17_Node000015_Node000017"><a xlink:title=" ">
<path fill="none" stroke="#63b8ff" d="M1204.52,-75.59C1210.06,-72.89 1215.61,-69.99 1220.75,-67 1237.81,-57.07 1239.03,-49.68 1256.75,-41 1260.22,-39.3 1263.87,-37.72 1267.6,-36.26"/>
<polygon fill="#63b8ff" stroke="#63b8ff" points="1268.57,-39.64 1276.8,-32.98 1266.21,-33.04 1268.57,-39.64"/>
</a>
</g>
</g>
<!-- Node18 -->
<g id="Node000018" class="node">
<title>Node18</title>
<g id="a_Node000018"><a xlink:href="task_8h.html#a57ff82492e8cb164a83c79630497defd" target="_top" xlink:title=" ">
<polygon fill="white" stroke="#666666" points="1388.25,-108 1256.75,-108 1256.75,-88 1388.25,-88 1388.25,-108"/>
<text text-anchor="middle" x="1322.5" y="-94.5" font-family="Helvetica,sans-Serif" font-size="10.00">zrtos_task__get_stack_ptr</text>
</a>
</g>
</g>
<!-- Node15&#45;&gt;Node18 -->
<g id="edge18_Node000015_Node000018" class="edge">
<title>Node15&#45;&gt;Node18</title>
<g id="a_edge18_Node000015_Node000018"><a xlink:title=" ">
<path fill="none" stroke="#63b8ff" d="M1220.03,-94.08C1228.11,-94.39 1236.56,-94.72 1245,-95.05"/>
<polygon fill="#63b8ff" stroke="#63b8ff" points="1244.81,-98.54 1254.94,-95.43 1245.08,-91.55 1244.81,-98.54"/>
</a>
</g>
</g>
<!-- Node19&#45;&gt;Node8 -->
<g id="edge20_Node000019_Node000008" class="edge">
<title>Node19&#45;&gt;Node8</title>
<g id="a_edge20_Node000019_Node000008"><a xlink:title=" ">
<path fill="none" stroke="#63b8ff" d="M1196.26,-158.37C1204.24,-162.75 1212.84,-167.52 1220.75,-172 1236.87,-181.13 1240.06,-184.97 1256.75,-193 1259.65,-194.4 1262.65,-195.77 1265.7,-197.12"/>
<polygon fill="#63b8ff" stroke="#63b8ff" points="1264.21,-200.29 1274.78,-200.97 1266.94,-193.84 1264.21,-200.29"/>
</a>
</g>
</g>
<!-- Node20 -->
<g id="Node000020" class="node">
<title>Node20</title>
<g id="a_Node000020"><a xlink:href="task_8h.html#a06873ce7299989184f846b48d2cad810" target="_top" xlink:title=" ">
<polygon fill="white" stroke="#666666" points="1378.88,-184 1266.12,-184 1266.12,-164 1378.88,-164 1378.88,-184"/>
<text text-anchor="middle" x="1322.5" y="-170.5" font-family="Helvetica,sans-Serif" font-size="10.00">zrtos_task__set_errno</text>
</a>
</g>
</g>
<!-- Node19&#45;&gt;Node20 -->
<g id="edge21_Node000019_Node000020" class="edge">
<title>Node19&#45;&gt;Node20</title>
<g id="a_edge21_Node000019_Node000020"><a xlink:title=" ">
<path fill="none" stroke="#63b8ff" d="M1220.03,-153.1C1232.71,-155.71 1246.32,-158.52 1259.33,-161.2"/>
<polygon fill="#63b8ff" stroke="#63b8ff" points="1258.58,-164.61 1269.08,-163.2 1259.99,-157.76 1258.58,-164.61"/>
</a>
</g>
</g>
<!-- Node21 -->
<g id="Node000021" class="node">
<title>Node21</title>
<g id="a_Node000021"><a xlink:href="task_8h.html#a6e268bf35f1b190f4cc63eab16068d9e" target="_top" xlink:title=" ">
<polygon fill="white" stroke="#666666" points="1388.25,-146 1256.75,-146 1256.75,-126 1388.25,-126 1388.25,-146"/>
<text text-anchor="middle" x="1322.5" y="-132.5" font-family="Helvetica,sans-Serif" font-size="10.00">zrtos_task__set_stack_ptr</text>
</a>
</g>
</g>
<!-- Node19&#45;&gt;Node21 -->
<g id="edge22_Node000019_Node000021" class="edge">
<title>Node19&#45;&gt;Node21</title>
<g id="a_edge22_Node000019_Node000021"><a xlink:title=" ">
<path fill="none" stroke="#63b8ff" d="M1220.03,-139.92C1228.11,-139.61 1236.56,-139.28 1245,-138.95"/>
<polygon fill="#63b8ff" stroke="#63b8ff" points="1245.08,-142.45 1254.94,-138.57 1244.81,-135.46 1245.08,-142.45"/>
</a>
</g>
</g>
<!-- Node23 -->
<g id="Node000023" class="node">
<title>Node23</title>
<g id="a_Node000023"><a xlink:href="clist_8h.html#aec8fbabbd0ff3c556e46b59eb872d43c" target="_top" xlink:title=" ">
<polygon fill="white" stroke="#666666" points="1220.75,-58 1109.5,-58 1109.5,-26 1220.75,-26 1220.75,-58"/>
<text text-anchor="start" x="1117.5" y="-44.5" font-family="Helvetica,sans-Serif" font-size="10.00">zrtos_clist_node__get</text>
<text text-anchor="middle" x="1165.12" y="-32.5" font-family="Helvetica,sans-Serif" font-size="10.00">_next_node</text>
</a>
</g>
</g>
<!-- Node22&#45;&gt;Node23 -->
<g id="edge24_Node000022_Node000023" class="edge">
<title>Node22&#45;&gt;Node23</title>
<g id="a_edge24_Node000022_Node000023"><a xlink:title=" ">
<path fill="none" stroke="#63b8ff" d="M1074,-45.46C1081.94,-45.15 1090.06,-44.84 1098,-44.54"/>
<polygon fill="#63b8ff" stroke="#63b8ff" points="1098.11,-48.03 1107.97,-44.15 1097.84,-41.04 1098.11,-48.03"/>
</a>
</g>
</g>
</g>
</svg>
