<?xml version="1.0" encoding="UTF-8" standalone="no"?>
<!DOCTYPE svg PUBLIC "-//W3C//DTD SVG 1.1//EN"
 "http://www.w3.org/Graphics/SVG/1.1/DTD/svg11.dtd">
<!-- Generated by graphviz version 2.40.1 (20161225.0304)
 -->
<!-- Title: zrtos_vfs_module_spi_sync__on_close Pages: 1 -->
<svg width="561pt" height="197pt"
 viewBox="0.00 0.00 561.00 197.00" xmlns="http://www.w3.org/2000/svg" xmlns:xlink="http://www.w3.org/1999/xlink">
<g id="graph0" class="graph" transform="scale(1 1) rotate(0) translate(4 193)">
<title>zrtos_vfs_module_spi_sync__on_close</title>
<polygon fill="#ffffff" stroke="transparent" points="-4,4 -4,-193 557,-193 557,4 -4,4"/>
<!-- Node0 -->
<g id="node1" class="node">
<title>Node0</title>
<polygon fill="#bfbfbf" stroke="#000000" points="0,-76.5 0,-106.5 112,-106.5 112,-76.5 0,-76.5"/>
<text text-anchor="start" x="8" y="-94.5" font-family="Helvetica,sans-Serif" font-size="10.00" fill="#000000">zrtos_vfs_module_spi</text>
<text text-anchor="middle" x="56" y="-83.5" font-family="Helvetica,sans-Serif" font-size="10.00" fill="#000000">_sync__on_close</text>
</g>
<!-- Node1 -->
<g id="node2" class="node">
<title>Node1</title>
<g id="a_node2"><a xlink:href="spi__sync_8h.html#a29c9d8a32af2717c5e9ed8e11d0800fa" target="_top" xlink:title="zrtos_vfs_module_spi\l_sync__on_open">
<polygon fill="#ffffff" stroke="#000000" points="148,-76.5 148,-106.5 260,-106.5 260,-76.5 148,-76.5"/>
<text text-anchor="start" x="156" y="-94.5" font-family="Helvetica,sans-Serif" font-size="10.00" fill="#000000">zrtos_vfs_module_spi</text>
<text text-anchor="middle" x="204" y="-83.5" font-family="Helvetica,sans-Serif" font-size="10.00" fill="#000000">_sync__on_open</text>
</a>
</g>
</g>
<!-- Node0&#45;&gt;Node1 -->
<g id="edge1" class="edge">
<title>Node0&#45;&gt;Node1</title>
<path fill="none" stroke="#191970" d="M112.3747,-91.5C120.6214,-91.5 129.1782,-91.5 137.6023,-91.5"/>
<polygon fill="#191970" stroke="#191970" points="137.7821,-95.0001 147.7821,-91.5 137.7821,-88.0001 137.7821,-95.0001"/>
</g>
<!-- Node2 -->
<g id="node3" class="node">
<title>Node2</title>
<g id="a_node3"><a xlink:href="vfs__file_8h.html#af192d2176bcd9a795fe8253a0759b0c7" target="_top" xlink:title="zrtos_vfs_file__get\l_inode_data">
<polygon fill="#ffffff" stroke="#000000" points="308,-158.5 308,-188.5 407,-188.5 407,-158.5 308,-158.5"/>
<text text-anchor="start" x="316" y="-176.5" font-family="Helvetica,sans-Serif" font-size="10.00" fill="#000000">zrtos_vfs_file__get</text>
<text text-anchor="middle" x="357.5" y="-165.5" font-family="Helvetica,sans-Serif" font-size="10.00" fill="#000000">_inode_data</text>
</a>
</g>
</g>
<!-- Node1&#45;&gt;Node2 -->
<g id="edge2" class="edge">
<title>Node1&#45;&gt;Node2</title>
<path fill="none" stroke="#191970" d="M226.0713,-106.6451C244.3361,-118.8146 271.212,-135.8963 296,-148.5 299.9795,-150.5234 304.1627,-152.5068 308.3968,-154.4161"/>
<polygon fill="#191970" stroke="#191970" points="307.1226,-157.6786 317.6883,-158.4639 309.9184,-151.2612 307.1226,-157.6786"/>
</g>
<!-- Node3 -->
<g id="node4" class="node">
<title>Node3</title>
<g id="a_node4"><a xlink:href="vfs__file_8h.html#a04a201b5b034eb09d22292ec8700a144" target="_top" xlink:title="zrtos_vfs_file__get_data">
<polygon fill="#ffffff" stroke="#000000" points="296,-120 296,-139 419,-139 419,-120 296,-120"/>
<text text-anchor="middle" x="357.5" y="-127" font-family="Helvetica,sans-Serif" font-size="10.00" fill="#000000">zrtos_vfs_file__get_data</text>
</a>
</g>
</g>
<!-- Node1&#45;&gt;Node3 -->
<g id="edge3" class="edge">
<title>Node1&#45;&gt;Node3</title>
<path fill="none" stroke="#191970" d="M260.2861,-105.434C276.2893,-109.3957 293.573,-113.6744 309.0662,-117.5099"/>
<polygon fill="#191970" stroke="#191970" points="308.4093,-120.9529 318.9574,-119.9585 310.0915,-114.158 308.4093,-120.9529"/>
</g>
<!-- Node4 -->
<g id="node5" class="node">
<title>Node4</title>
<g id="a_node5"><a xlink:href="gpio_8h.html#a256ab7a19b884f6960ccbbc56c1e6cf8" target="_top" xlink:title="zrtos_gpio__set_mode">
<polygon fill="#ffffff" stroke="#000000" points="300,-82 300,-101 415,-101 415,-82 300,-82"/>
<text text-anchor="middle" x="357.5" y="-89" font-family="Helvetica,sans-Serif" font-size="10.00" fill="#000000">zrtos_gpio__set_mode</text>
</a>
</g>
</g>
<!-- Node1&#45;&gt;Node4 -->
<g id="edge4" class="edge">
<title>Node1&#45;&gt;Node4</title>
<path fill="none" stroke="#191970" d="M260.2861,-91.5C269.8753,-91.5 279.9243,-91.5 289.7723,-91.5"/>
<polygon fill="#191970" stroke="#191970" points="289.9346,-95.0001 299.9346,-91.5 289.9345,-88.0001 289.9346,-95.0001"/>
</g>
<!-- Node5 -->
<g id="node6" class="node">
<title>Node5</title>
<g id="a_node6"><a xlink:href="error_8h.html#add13298163f63b7d37ed9f12d57e1a31" target="_top" xlink:title="zrtos_error__is_success">
<polygon fill="#ffffff" stroke="#000000" points="296,-44 296,-63 419,-63 419,-44 296,-44"/>
<text text-anchor="middle" x="357.5" y="-51" font-family="Helvetica,sans-Serif" font-size="10.00" fill="#000000">zrtos_error__is_success</text>
</a>
</g>
</g>
<!-- Node1&#45;&gt;Node5 -->
<g id="edge5" class="edge">
<title>Node1&#45;&gt;Node5</title>
<path fill="none" stroke="#191970" d="M260.2861,-77.566C276.2893,-73.6043 293.573,-69.3256 309.0662,-65.4901"/>
<polygon fill="#191970" stroke="#191970" points="310.0915,-68.842 318.9574,-63.0415 308.4093,-62.0471 310.0915,-68.842"/>
</g>
<!-- Node6 -->
<g id="node7" class="node">
<title>Node6</title>
<g id="a_node7"><a xlink:href="gpio_8h.html#adf182ae6089f6e514abe34869ea54fb0" target="_top" xlink:title="zrtos_gpio__set_high">
<polygon fill="#ffffff" stroke="#000000" points="303,-6 303,-25 412,-25 412,-6 303,-6"/>
<text text-anchor="middle" x="357.5" y="-13" font-family="Helvetica,sans-Serif" font-size="10.00" fill="#000000">zrtos_gpio__set_high</text>
</a>
</g>
</g>
<!-- Node1&#45;&gt;Node6 -->
<g id="edge6" class="edge">
<title>Node1&#45;&gt;Node6</title>
<path fill="none" stroke="#191970" d="M225.0637,-76.2809C243.1716,-63.7389 270.3484,-46.1763 296,-34.5 300.9583,-32.243 306.2584,-30.1566 311.5903,-28.2577"/>
<polygon fill="#191970" stroke="#191970" points="312.7896,-31.5471 321.1551,-25.0457 310.5611,-24.9113 312.7896,-31.5471"/>
</g>
<!-- Node7 -->
<g id="node8" class="node">
<title>Node7</title>
<g id="a_node8"><a xlink:href="gpio_8h.html#ab031db7c74dcac4dbc16bfa8f00c8414" target="_top" xlink:title="zrtos_gpio__digital\l_write">
<polygon fill="#ffffff" stroke="#000000" points="455,-.5 455,-30.5 553,-30.5 553,-.5 455,-.5"/>
<text text-anchor="start" x="463" y="-18.5" font-family="Helvetica,sans-Serif" font-size="10.00" fill="#000000">zrtos_gpio__digital</text>
<text text-anchor="middle" x="504" y="-7.5" font-family="Helvetica,sans-Serif" font-size="10.00" fill="#000000">_write</text>
</a>
</g>
</g>
<!-- Node6&#45;&gt;Node7 -->
<g id="edge7" class="edge">
<title>Node6&#45;&gt;Node7</title>
<path fill="none" stroke="#191970" d="M412.0512,-15.5C422.6549,-15.5 433.8188,-15.5 444.5705,-15.5"/>
<polygon fill="#191970" stroke="#191970" points="444.7209,-19.0001 454.7208,-15.5 444.7208,-12.0001 444.7209,-19.0001"/>
</g>
</g>
</svg>
