<?xml version="1.0" encoding="UTF-8" standalone="no"?>
<!DOCTYPE svg PUBLIC "-//W3C//DTD SVG 1.1//EN"
 "http://www.w3.org/Graphics/SVG/1.1/DTD/svg11.dtd">
<!-- Generated by graphviz version 10.0.1 (20240210.2158)
 -->
<!-- Title: zrtos_vfs_module_spi__on_can_write Pages: 1 -->
<svg width="273pt" height="78pt"
 viewBox="0.00 0.00 272.50 78.00" xmlns="http://www.w3.org/2000/svg" xmlns:xlink="http://www.w3.org/1999/xlink">
<g id="graph0" class="graph" transform="scale(1 1) rotate(0) translate(4 74)">
<title>zrtos_vfs_module_spi__on_can_write</title>
<!-- Node1 -->
<g id="Node000001" class="node">
<title>Node1</title>
<g id="a_Node000001"><a xlink:title=" ">
<polygon fill="#999999" stroke="#666666" points="109,-48 0,-48 0,-16 109,-16 109,-48"/>
<text text-anchor="start" x="8" y="-34.5" font-family="Helvetica,sans-Serif" font-size="10.00">zrtos_vfs_module_spi</text>
<text text-anchor="middle" x="54.5" y="-22.5" font-family="Helvetica,sans-Serif" font-size="10.00">__on_can_write</text>
</a>
</g>
</g>
<!-- Node2 -->
<g id="Node000002" class="node">
<title>Node2</title>
<g id="a_Node000002"><a xlink:href="cbuffer_8h.html#af7e1a18084c22778a744d9a44a243a5c" target="_top" xlink:title=" ">
<polygon fill="white" stroke="#666666" points="253.62,-70 155.88,-70 155.88,-38 253.62,-38 253.62,-70"/>
<text text-anchor="start" x="163.88" y="-56.5" font-family="Helvetica,sans-Serif" font-size="10.00">zrtos_cbuffer__can</text>
<text text-anchor="middle" x="204.75" y="-44.5" font-family="Helvetica,sans-Serif" font-size="10.00">_write</text>
</a>
</g>
</g>
<!-- Node1&#45;&gt;Node2 -->
<g id="edge1_Node000001_Node000002" class="edge">
<title>Node1&#45;&gt;Node2</title>
<g id="a_edge1_Node000001_Node000002"><a xlink:title=" ">
<path fill="none" stroke="#63b8ff" d="M109.44,-40C120.74,-41.68 132.72,-43.46 144.21,-45.16"/>
<polygon fill="#63b8ff" stroke="#63b8ff" points="143.59,-48.61 154,-46.62 144.62,-41.69 143.59,-48.61"/>
</a>
</g>
</g>
<!-- Node3 -->
<g id="Node000003" class="node">
<title>Node3</title>
<g id="a_Node000003"><a xlink:href="vfs__file_8h.html#a54d958c5b0506ceeba5e57caf04631b5" target="_top" xlink:title=" ">
<polygon fill="white" stroke="#666666" points="264.5,-20 145,-20 145,0 264.5,0 264.5,-20"/>
<text text-anchor="middle" x="204.75" y="-6.5" font-family="Helvetica,sans-Serif" font-size="10.00">zrtos_vfs_file__get_data</text>
</a>
</g>
</g>
<!-- Node1&#45;&gt;Node3 -->
<g id="edge2_Node000001_Node000003" class="edge">
<title>Node1&#45;&gt;Node3</title>
<g id="a_edge2_Node000001_Node000003"><a xlink:title=" ">
<path fill="none" stroke="#63b8ff" d="M109.44,-24C117.21,-22.84 125.29,-21.64 133.32,-20.45"/>
<polygon fill="#63b8ff" stroke="#63b8ff" points="133.72,-23.93 143.09,-19 132.69,-17.01 133.72,-23.93"/>
</a>
</g>
</g>
</g>
</svg>
