<?xml version="1.0" encoding="UTF-8" standalone="no"?>
<!DOCTYPE svg PUBLIC "-//W3C//DTD SVG 1.1//EN"
 "http://www.w3.org/Graphics/SVG/1.1/DTD/svg11.dtd">
<!-- Generated by graphviz version 10.0.1 (20240210.2158)
 -->
<!-- Title: zrtos_vfs_module_spi_sync__on_open Pages: 1 -->
<svg width="409pt" height="192pt"
 viewBox="0.00 0.00 408.50 192.00" xmlns="http://www.w3.org/2000/svg" xmlns:xlink="http://www.w3.org/1999/xlink">
<g id="graph0" class="graph" transform="scale(1 1) rotate(0) translate(4 188)">
<title>zrtos_vfs_module_spi_sync__on_open</title>
<!-- Node1 -->
<g id="Node000001" class="node">
<title>Node1</title>
<g id="a_Node000001"><a xlink:title=" ">
<polygon fill="#999999" stroke="#666666" points="109,-114 0,-114 0,-82 109,-82 109,-114"/>
<text text-anchor="start" x="8" y="-100.5" font-family="Helvetica,sans-Serif" font-size="10.00">zrtos_vfs_module_spi</text>
<text text-anchor="middle" x="54.5" y="-88.5" font-family="Helvetica,sans-Serif" font-size="10.00">_sync__on_open</text>
</a>
</g>
</g>
<!-- Node2 -->
<g id="Node000002" class="node">
<title>Node2</title>
<g id="a_Node000002"><a xlink:href="error_8h.html#add13298163f63b7d37ed9f12d57e1a31" target="_top" xlink:title=" ">
<polygon fill="white" stroke="#666666" points="267.5,-184 145,-184 145,-164 267.5,-164 267.5,-184"/>
<text text-anchor="middle" x="206.25" y="-170.5" font-family="Helvetica,sans-Serif" font-size="10.00">zrtos_error__is_success</text>
</a>
</g>
</g>
<!-- Node1&#45;&gt;Node2 -->
<g id="edge1_Node000001_Node000002" class="edge">
<title>Node1&#45;&gt;Node2</title>
<g id="a_edge1_Node000001_Node000002"><a xlink:title=" ">
<path fill="none" stroke="#63b8ff" d="M77.73,-114.49C95.29,-126.92 120.79,-143.71 145,-155 148.54,-156.65 152.25,-158.21 156.03,-159.67"/>
<polygon fill="#63b8ff" stroke="#63b8ff" points="154.73,-162.92 165.33,-163 157.1,-156.33 154.73,-162.92"/>
</a>
</g>
</g>
<!-- Node3 -->
<g id="Node000003" class="node">
<title>Node3</title>
<g id="a_Node000003"><a xlink:href="gpio_8h.html#adf182ae6089f6e514abe34869ea54fb0" target="_top" xlink:title=" ">
<polygon fill="white" stroke="#666666" points="260.38,-146 152.12,-146 152.12,-126 260.38,-126 260.38,-146"/>
<text text-anchor="middle" x="206.25" y="-132.5" font-family="Helvetica,sans-Serif" font-size="10.00">zrtos_gpio__set_high</text>
</a>
</g>
</g>
<!-- Node1&#45;&gt;Node3 -->
<g id="edge2_Node000001_Node000003" class="edge">
<title>Node1&#45;&gt;Node3</title>
<g id="a_edge2_Node000001_Node000003"><a xlink:title=" ">
<path fill="none" stroke="#63b8ff" d="M109.14,-111.61C123.44,-115.24 138.87,-119.16 153.1,-122.77"/>
<polygon fill="#63b8ff" stroke="#63b8ff" points="152.18,-126.14 162.73,-125.21 153.9,-119.36 152.18,-126.14"/>
</a>
</g>
</g>
<!-- Node5 -->
<g id="Node000005" class="node">
<title>Node5</title>
<g id="a_Node000005"><a xlink:href="gpio_8h.html#a256ab7a19b884f6960ccbbc56c1e6cf8" target="_top" xlink:title=" ">
<polygon fill="white" stroke="#666666" points="263.38,-108 149.12,-108 149.12,-88 263.38,-88 263.38,-108"/>
<text text-anchor="middle" x="206.25" y="-94.5" font-family="Helvetica,sans-Serif" font-size="10.00">zrtos_gpio__set_mode</text>
</a>
</g>
</g>
<!-- Node1&#45;&gt;Node5 -->
<g id="edge4_Node000001_Node000005" class="edge">
<title>Node1&#45;&gt;Node5</title>
<g id="a_edge4_Node000001_Node000005"><a xlink:title=" ">
<path fill="none" stroke="#63b8ff" d="M109.14,-98C118.27,-98 127.86,-98 137.3,-98"/>
<polygon fill="#63b8ff" stroke="#63b8ff" points="137.18,-101.5 147.18,-98 137.18,-94.5 137.18,-101.5"/>
</a>
</g>
</g>
<!-- Node6 -->
<g id="Node000006" class="node">
<title>Node6</title>
<g id="a_Node000006"><a xlink:href="vfs__file_8h.html#a54d958c5b0506ceeba5e57caf04631b5" target="_top" xlink:title=" ">
<polygon fill="white" stroke="#666666" points="266,-70 146.5,-70 146.5,-50 266,-50 266,-70"/>
<text text-anchor="middle" x="206.25" y="-56.5" font-family="Helvetica,sans-Serif" font-size="10.00">zrtos_vfs_file__get_data</text>
</a>
</g>
</g>
<!-- Node1&#45;&gt;Node6 -->
<g id="edge5_Node000001_Node000006" class="edge">
<title>Node1&#45;&gt;Node6</title>
<g id="a_edge5_Node000001_Node000006"><a xlink:title=" ">
<path fill="none" stroke="#63b8ff" d="M109.14,-84.39C123.44,-80.76 138.87,-76.84 153.1,-73.23"/>
<polygon fill="#63b8ff" stroke="#63b8ff" points="153.9,-76.64 162.73,-70.79 152.18,-69.86 153.9,-76.64"/>
</a>
</g>
</g>
<!-- Node7 -->
<g id="Node000007" class="node">
<title>Node7</title>
<g id="a_Node000007"><a xlink:href="vfs__file_8h.html#adbc392417c3fef015ea0c4728d2be7c6" target="_top" xlink:title=" ">
<polygon fill="white" stroke="#666666" points="254,-32 158.5,-32 158.5,0 254,0 254,-32"/>
<text text-anchor="start" x="166.5" y="-18.5" font-family="Helvetica,sans-Serif" font-size="10.00">zrtos_vfs_file__get</text>
<text text-anchor="middle" x="206.25" y="-6.5" font-family="Helvetica,sans-Serif" font-size="10.00">_inode_data</text>
</a>
</g>
</g>
<!-- Node1&#45;&gt;Node7 -->
<g id="edge6_Node000001_Node000007" class="edge">
<title>Node1&#45;&gt;Node7</title>
<g id="a_edge6_Node000001_Node000007"><a xlink:title=" ">
<path fill="none" stroke="#63b8ff" d="M78.76,-81.6C96.45,-69.53 121.64,-53.17 145,-41 147.5,-39.7 150.09,-38.41 152.73,-37.15"/>
<polygon fill="#63b8ff" stroke="#63b8ff" points="154,-40.41 161.63,-33.06 151.08,-34.05 154,-40.41"/>
</a>
</g>
</g>
<!-- Node4 -->
<g id="Node000004" class="node">
<title>Node4</title>
<g id="a_Node000004"><a xlink:href="gpio_8h.html#ab031db7c74dcac4dbc16bfa8f00c8414" target="_top" xlink:title=" ">
<polygon fill="white" stroke="#666666" points="400.5,-152 303.5,-152 303.5,-120 400.5,-120 400.5,-152"/>
<text text-anchor="start" x="311.5" y="-138.5" font-family="Helvetica,sans-Serif" font-size="10.00">zrtos_gpio__digital</text>
<text text-anchor="middle" x="352" y="-126.5" font-family="Helvetica,sans-Serif" font-size="10.00">_write</text>
</a>
</g>
</g>
<!-- Node3&#45;&gt;Node4 -->
<g id="edge3_Node000003_Node000004" class="edge">
<title>Node3&#45;&gt;Node4</title>
<g id="a_edge3_Node000003_Node000004"><a xlink:title=" ">
<path fill="none" stroke="#63b8ff" d="M260.78,-136C270.87,-136 281.48,-136 291.73,-136"/>
<polygon fill="#63b8ff" stroke="#63b8ff" points="291.6,-139.5 301.6,-136 291.6,-132.5 291.6,-139.5"/>
</a>
</g>
</g>
</g>
</svg>
