<?xml version="1.0" encoding="UTF-8" standalone="no"?>
<!DOCTYPE svg PUBLIC "-//W3C//DTD SVG 1.1//EN"
 "http://www.w3.org/Graphics/SVG/1.1/DTD/svg11.dtd">
<!-- Generated by graphviz version 10.0.1 (20240210.2158)
 -->
<!-- Title: zrtos_vfs_module_spi__get Pages: 1 -->
<svg width="575pt" height="96pt"
 viewBox="0.00 0.00 574.50 96.00" xmlns="http://www.w3.org/2000/svg" xmlns:xlink="http://www.w3.org/1999/xlink">
<g id="graph0" class="graph" transform="scale(1 1) rotate(0) translate(4 92)">
<title>zrtos_vfs_module_spi__get</title>
<!-- Node1 -->
<g id="Node000001" class="node">
<title>Node1</title>
<g id="a_Node000001"><a xlink:title=" ">
<polygon fill="#999999" stroke="#666666" points="566.5,-57 433.5,-57 433.5,-37 566.5,-37 566.5,-57"/>
<text text-anchor="middle" x="500" y="-43.5" font-family="Helvetica,sans-Serif" font-size="10.00">zrtos_vfs_module_spi__get</text>
</a>
</g>
</g>
<!-- Node2 -->
<g id="Node000002" class="node">
<title>Node2</title>
<g id="a_Node000002"><a xlink:href="spi_2spi_8h.html#a1f0a277c921e26c6d3039a3959ca23b5" target="_top" xlink:title=" ">
<polygon fill="white" stroke="#666666" points="397.5,-63 288.5,-63 288.5,-31 397.5,-31 397.5,-63"/>
<text text-anchor="start" x="296.5" y="-49.5" font-family="Helvetica,sans-Serif" font-size="10.00">zrtos_vfs_module_spi</text>
<text text-anchor="middle" x="343" y="-37.5" font-family="Helvetica,sans-Serif" font-size="10.00">__transfer</text>
</a>
</g>
</g>
<!-- Node1&#45;&gt;Node2 -->
<g id="edge1_Node000001_Node000002" class="edge">
<title>Node1&#45;&gt;Node2</title>
<g id="a_edge1_Node000001_Node000002"><a xlink:title=" ">
<path fill="none" stroke="#63b8ff" d="M421.77,-47C413.61,-47 405.45,-47 397.64,-47"/>
<polygon fill="#63b8ff" stroke="#63b8ff" points="421.75,-50.5 431.75,-47 421.75,-43.5 421.75,-50.5"/>
</a>
</g>
</g>
<!-- Node3 -->
<g id="Node000003" class="node">
<title>Node3</title>
<g id="a_Node000003"><a xlink:href="avr_2spi_2spi_8h.html#a3a0f3b324bd986778ccde00670dbabc9" target="_top" xlink:title=" ">
<polygon fill="white" stroke="#666666" points="252.5,-63 144.25,-63 144.25,-31 252.5,-31 252.5,-63"/>
<text text-anchor="start" x="152.25" y="-49.5" font-family="Helvetica,sans-Serif" font-size="10.00">zrtos_vfs_module_avr</text>
<text text-anchor="middle" x="198.38" y="-37.5" font-family="Helvetica,sans-Serif" font-size="10.00">_spi__on_interrupt</text>
</a>
</g>
</g>
<!-- Node2&#45;&gt;Node3 -->
<g id="edge2_Node000002_Node000003" class="edge">
<title>Node2&#45;&gt;Node3</title>
<g id="a_edge2_Node000002_Node000003"><a xlink:title=" ">
<path fill="none" stroke="#63b8ff" d="M276.58,-47C268.65,-47 260.63,-47 252.9,-47"/>
<polygon fill="#63b8ff" stroke="#63b8ff" points="276.57,-50.5 286.57,-47 276.57,-43.5 276.57,-50.5"/>
</a>
</g>
</g>
<!-- Node4 -->
<g id="Node000004" class="node">
<title>Node4</title>
<g id="a_Node000004"><a xlink:href="avr_2spi_2spi_8h.html#a4635b3cf0625e8697fcf3c6176f116a3" target="_top" xlink:title=" ">
<polygon fill="white" stroke="#666666" points="70,-88 38.25,-88 38.25,-68 70,-68 70,-88"/>
<text text-anchor="middle" x="54.12" y="-74.5" font-family="Helvetica,sans-Serif" font-size="10.00">ISR</text>
</a>
</g>
</g>
<!-- Node3&#45;&gt;Node4 -->
<g id="edge3_Node000003_Node000004" class="edge">
<title>Node3&#45;&gt;Node4</title>
<g id="a_edge3_Node000003_Node000004"><a xlink:title=" ">
<path fill="none" stroke="#63b8ff" d="M133.05,-61.02C109.75,-66.1 85.47,-71.39 70.33,-74.69"/>
<polygon fill="#63b8ff" stroke="#63b8ff" points="133.5,-64.5 142.52,-58.95 132.01,-57.66 133.5,-64.5"/>
</a>
</g>
</g>
<!-- Node5 -->
<g id="Node000005" class="node">
<title>Node5</title>
<g id="a_Node000005"><a xlink:href="avr_2spi_2spi_8h.html#ab6f547c3ce7ee0463c235abe078f9491" target="_top" xlink:title=" ">
<polygon fill="white" stroke="#666666" points="108.25,-32 0,-32 0,0 108.25,0 108.25,-32"/>
<text text-anchor="start" x="8" y="-18.5" font-family="Helvetica,sans-Serif" font-size="10.00">zrtos_vfs_module_avr</text>
<text text-anchor="middle" x="54.12" y="-6.5" font-family="Helvetica,sans-Serif" font-size="10.00">_spi__on_write</text>
</a>
</g>
</g>
<!-- Node3&#45;&gt;Node5 -->
<g id="edge4_Node000003_Node000005" class="edge">
<title>Node3&#45;&gt;Node5</title>
<g id="a_edge4_Node000003_Node000005"><a xlink:title=" ">
<path fill="none" stroke="#63b8ff" d="M132.91,-32.95C124.68,-31.16 116.34,-29.34 108.32,-27.59"/>
<polygon fill="#63b8ff" stroke="#63b8ff" points="132.01,-36.34 142.52,-35.05 133.5,-29.5 132.01,-36.34"/>
</a>
</g>
</g>
<!-- Node5&#45;&gt;Node5 -->
<g id="edge5_Node000005_Node000005" class="edge">
<title>Node5&#45;&gt;Node5</title>
<g id="a_edge5_Node000005_Node000005"><a xlink:title=" ">
<path fill="none" stroke="#63b8ff" d="M78.16,-43.71C74.16,-47.48 66.14,-50 54.12,-50 32.15,-50 23.57,-41.58 28.37,-32.44"/>
<polygon fill="#63b8ff" stroke="#63b8ff" points="81.61,-44.35 79.65,-33.94 74.69,-43.3 81.61,-44.35"/>
</a>
</g>
</g>
</g>
</svg>
