<?xml version="1.0" encoding="UTF-8" standalone="no"?>
<!DOCTYPE svg PUBLIC "-//W3C//DTD SVG 1.1//EN"
 "http://www.w3.org/Graphics/SVG/1.1/DTD/svg11.dtd">
<!-- Generated by graphviz version 2.40.1 (20161225.0304)
 -->
<!-- Title: zrtos_vfs_module_spi_file__new Pages: 1 -->
<svg width="1202pt" height="305pt"
 viewBox="0.00 0.00 1202.00 305.00" xmlns="http://www.w3.org/2000/svg" xmlns:xlink="http://www.w3.org/1999/xlink">
<g id="graph0" class="graph" transform="scale(1 1) rotate(0) translate(4 301)">
<title>zrtos_vfs_module_spi_file__new</title>
<polygon fill="#ffffff" stroke="transparent" points="-4,4 -4,-301 1198,-301 1198,4 -4,4"/>
<!-- Node268 -->
<g id="node1" class="node">
<title>Node268</title>
<polygon fill="#bfbfbf" stroke="#000000" points="0,-192.5 0,-222.5 112,-222.5 112,-192.5 0,-192.5"/>
<text text-anchor="start" x="8" y="-210.5" font-family="Helvetica,sans-Serif" font-size="10.00" fill="#000000">zrtos_vfs_module_spi</text>
<text text-anchor="middle" x="56" y="-199.5" font-family="Helvetica,sans-Serif" font-size="10.00" fill="#000000">_file__new</text>
</g>
<!-- Node269 -->
<g id="node2" class="node">
<title>Node269</title>
<g id="a_node2"><a xlink:href="spi_2spi_8h.html#a18e98b2ff2735e9c263e143d51880842" target="_top" xlink:title="zrtos_vfs_module_spi\l_file__init">
<polygon fill="#ffffff" stroke="#000000" points="148,-192.5 148,-222.5 260,-222.5 260,-192.5 148,-192.5"/>
<text text-anchor="start" x="156" y="-210.5" font-family="Helvetica,sans-Serif" font-size="10.00" fill="#000000">zrtos_vfs_module_spi</text>
<text text-anchor="middle" x="204" y="-199.5" font-family="Helvetica,sans-Serif" font-size="10.00" fill="#000000">_file__init</text>
</a>
</g>
</g>
<!-- Node268&#45;&gt;Node269 -->
<g id="edge1" class="edge">
<title>Node268&#45;&gt;Node269</title>
<path fill="none" stroke="#191970" d="M112.3747,-207.5C120.6214,-207.5 129.1782,-207.5 137.6023,-207.5"/>
<polygon fill="#191970" stroke="#191970" points="137.7821,-211.0001 147.7821,-207.5 137.7821,-204.0001 137.7821,-211.0001"/>
</g>
<!-- Node270 -->
<g id="node3" class="node">
<title>Node270</title>
<g id="a_node3"><a xlink:href="clist_8h.html#a26b8f9c0c172cd6d9deba237155bf40a" target="_top" xlink:title="zrtos_clist_node__init">
<polygon fill="#ffffff" stroke="#000000" points="296,-258 296,-277 407,-277 407,-258 296,-258"/>
<text text-anchor="middle" x="351.5" y="-265" font-family="Helvetica,sans-Serif" font-size="10.00" fill="#000000">zrtos_clist_node__init</text>
</a>
</g>
</g>
<!-- Node269&#45;&gt;Node270 -->
<g id="edge2" class="edge">
<title>Node269&#45;&gt;Node270</title>
<path fill="none" stroke="#191970" d="M236.0597,-222.6335C253.6042,-230.7001 275.8198,-240.5674 296,-248.5 301.2131,-250.5492 306.748,-252.5949 312.2257,-254.544"/>
<polygon fill="#191970" stroke="#191970" points="311.3473,-257.9442 321.9421,-257.928 313.6496,-251.3336 311.3473,-257.9442"/>
</g>
<!-- Node271 -->
<g id="node4" class="node">
<title>Node271</title>
<g id="a_node4"><a xlink:href="cbuffer_8h.html#a6a1ffb32acbece23be59f84aa29cf306" target="_top" xlink:title="zrtos_cbuffer__init">
<polygon fill="#ffffff" stroke="#000000" points="303,-220 303,-239 400,-239 400,-220 303,-220"/>
<text text-anchor="middle" x="351.5" y="-227" font-family="Helvetica,sans-Serif" font-size="10.00" fill="#000000">zrtos_cbuffer__init</text>
</a>
</g>
</g>
<!-- Node269&#45;&gt;Node271 -->
<g id="edge3" class="edge">
<title>Node269&#45;&gt;Node271</title>
<path fill="none" stroke="#191970" d="M260.1842,-215.88C270.7959,-217.4628 281.9227,-219.1224 292.6147,-220.7171"/>
<polygon fill="#191970" stroke="#191970" points="292.2945,-224.208 302.7015,-222.2216 293.3272,-217.2846 292.2945,-224.208"/>
</g>
<!-- Node279 -->
<g id="node12" class="node">
<title>Node279</title>
<g id="a_node12"><a xlink:href="clist_8h.html#a853d4178de18748d3bee28700929bda4" target="_top" xlink:title="zrtos_clist__push">
<polygon fill="#ffffff" stroke="#000000" points="305,-179 305,-198 398,-198 398,-179 305,-179"/>
<text text-anchor="middle" x="351.5" y="-186" font-family="Helvetica,sans-Serif" font-size="10.00" fill="#000000">zrtos_clist__push</text>
</a>
</g>
</g>
<!-- Node269&#45;&gt;Node279 -->
<g id="edge11" class="edge">
<title>Node269&#45;&gt;Node279</title>
<path fill="none" stroke="#191970" d="M260.1842,-200.2627C271.4039,-198.8175 283.1995,-197.298 294.4482,-195.849"/>
<polygon fill="#191970" stroke="#191970" points="295.1217,-199.2913 304.5926,-194.5423 294.2273,-192.3487 295.1217,-199.2913"/>
</g>
<!-- Node284 -->
<g id="node17" class="node">
<title>Node284</title>
<g id="a_node17"><a xlink:href="cbuffer_8h.html#ac432ff17b01aedab263746e01d2df060" target="_top" xlink:title="zrtos_cbuffer__deinit">
<polygon fill="#ffffff" stroke="#000000" points="298,-91 298,-110 405,-110 405,-91 298,-91"/>
<text text-anchor="middle" x="351.5" y="-98" font-family="Helvetica,sans-Serif" font-size="10.00" fill="#000000">zrtos_cbuffer__deinit</text>
</a>
</g>
</g>
<!-- Node269&#45;&gt;Node284 -->
<g id="edge16" class="edge">
<title>Node269&#45;&gt;Node284</title>
<path fill="none" stroke="#191970" d="M224.8203,-192.3965C252.6229,-172.2278 301.6367,-136.672 329.8527,-116.2035"/>
<polygon fill="#191970" stroke="#191970" points="332.1904,-118.8316 338.2297,-110.1266 328.08,-113.1655 332.1904,-118.8316"/>
</g>
<!-- Node272 -->
<g id="node5" class="node">
<title>Node272</title>
<g id="a_node5"><a xlink:href="list_8h.html#a2da91c03abf243dc0485a6027e970605" target="_top" xlink:title="zrtos_list__init">
<polygon fill="#ffffff" stroke="#000000" points="469.5,-259 469.5,-278 549.5,-278 549.5,-259 469.5,-259"/>
<text text-anchor="middle" x="509.5" y="-266" font-family="Helvetica,sans-Serif" font-size="10.00" fill="#000000">zrtos_list__init</text>
</a>
</g>
</g>
<!-- Node271&#45;&gt;Node272 -->
<g id="edge4" class="edge">
<title>Node271&#45;&gt;Node272</title>
<path fill="none" stroke="#191970" d="M390.1511,-239.0405C411.5587,-244.3246 438.3697,-250.9425 461.1543,-256.5666"/>
<polygon fill="#191970" stroke="#191970" points="460.427,-259.992 470.9744,-258.9905 462.1045,-253.196 460.427,-259.992"/>
</g>
<!-- Node273 -->
<g id="node6" class="node">
<title>Node273</title>
<g id="a_node6"><a xlink:href="cbuffer_8h.html#a3cbe982fcebf0d5bbcdae29e3caca316" target="_top" xlink:title="zrtos_cbuffer_node__new">
<polygon fill="#ffffff" stroke="#000000" points="445.5,-221 445.5,-240 573.5,-240 573.5,-221 445.5,-221"/>
<text text-anchor="middle" x="509.5" y="-228" font-family="Helvetica,sans-Serif" font-size="10.00" fill="#000000">zrtos_cbuffer_node__new</text>
</a>
</g>
</g>
<!-- Node271&#45;&gt;Node273 -->
<g id="edge5" class="edge">
<title>Node271&#45;&gt;Node273</title>
<path fill="none" stroke="#191970" d="M400.1944,-229.8082C411.2047,-229.8779 423.1407,-229.9534 434.944,-230.0281"/>
<polygon fill="#191970" stroke="#191970" points="435.2338,-233.5299 445.2558,-230.0934 435.2782,-226.5301 435.2338,-233.5299"/>
</g>
<!-- Node274 -->
<g id="node7" class="node">
<title>Node274</title>
<g id="a_node7"><a xlink:href="malloc__limit_8h.html#ad8180a24feb846d598a7a5a6053eb3cc" target="_top" xlink:title="zrtos_malloc_limit\l__malloc">
<polygon fill="#ffffff" stroke="#000000" points="620.5,-266.5 620.5,-296.5 715.5,-296.5 715.5,-266.5 620.5,-266.5"/>
<text text-anchor="start" x="628.5" y="-284.5" font-family="Helvetica,sans-Serif" font-size="10.00" fill="#000000">zrtos_malloc_limit</text>
<text text-anchor="middle" x="668" y="-273.5" font-family="Helvetica,sans-Serif" font-size="10.00" fill="#000000">__malloc</text>
</a>
</g>
</g>
<!-- Node273&#45;&gt;Node274 -->
<g id="edge6" class="edge">
<title>Node273&#45;&gt;Node274</title>
<path fill="none" stroke="#191970" d="M544.4691,-240.0909C554.67,-242.9966 565.8117,-246.2755 576,-249.5 589.1047,-253.6475 603.1622,-258.3872 616.2464,-262.925"/>
<polygon fill="#191970" stroke="#191970" points="615.4356,-266.3491 626.0304,-266.3425 617.7439,-259.7406 615.4356,-266.3491"/>
</g>
<!-- Node275 -->
<g id="node8" class="node">
<title>Node275</title>
<g id="a_node8"><a xlink:href="cbuffer_8h.html#aeb332726de06c905eb2db32ae3d323eb" target="_top" xlink:title="zrtos_cbuffer_node\l__init">
<polygon fill="#ffffff" stroke="#000000" points="618,-217.5 618,-247.5 718,-247.5 718,-217.5 618,-217.5"/>
<text text-anchor="start" x="626" y="-235.5" font-family="Helvetica,sans-Serif" font-size="10.00" fill="#000000">zrtos_cbuffer_node</text>
<text text-anchor="middle" x="668" y="-224.5" font-family="Helvetica,sans-Serif" font-size="10.00" fill="#000000">__init</text>
</a>
</g>
</g>
<!-- Node273&#45;&gt;Node275 -->
<g id="edge7" class="edge">
<title>Node273&#45;&gt;Node275</title>
<path fill="none" stroke="#191970" d="M573.5111,-231.3077C584.8254,-231.4505 596.5702,-231.5987 607.7757,-231.7401"/>
<polygon fill="#191970" stroke="#191970" points="607.8436,-235.2411 617.887,-231.8677 607.932,-228.2417 607.8436,-235.2411"/>
</g>
<!-- Node276 -->
<g id="node9" class="node">
<title>Node276</title>
<g id="a_node9"><a xlink:href="list_8h.html#a40feeb4cd0cc4e30201a279240b52429" target="_top" xlink:title="zrtos_list_node__init">
<polygon fill="#ffffff" stroke="#000000" points="760,-242 760,-261 866,-261 866,-242 760,-242"/>
<text text-anchor="middle" x="813" y="-249" font-family="Helvetica,sans-Serif" font-size="10.00" fill="#000000">zrtos_list_node__init</text>
</a>
</g>
</g>
<!-- Node275&#45;&gt;Node276 -->
<g id="edge8" class="edge">
<title>Node275&#45;&gt;Node276</title>
<path fill="none" stroke="#191970" d="M718.307,-239.092C728.4727,-240.424 739.2826,-241.8405 749.8251,-243.2219"/>
<polygon fill="#191970" stroke="#191970" points="749.4511,-246.7027 759.8211,-244.5317 750.3606,-239.7621 749.4511,-246.7027"/>
</g>
<!-- Node277 -->
<g id="node10" class="node">
<title>Node277</title>
<g id="a_node10"><a xlink:href="list_8h.html#aa734984fb49603438b179f49fff38477" target="_top" xlink:title="zrtos_list__push">
<polygon fill="#ffffff" stroke="#000000" points="769,-204 769,-223 857,-223 857,-204 769,-204"/>
<text text-anchor="middle" x="813" y="-211" font-family="Helvetica,sans-Serif" font-size="10.00" fill="#000000">zrtos_list__push</text>
</a>
</g>
</g>
<!-- Node275&#45;&gt;Node277 -->
<g id="edge9" class="edge">
<title>Node275&#45;&gt;Node277</title>
<path fill="none" stroke="#191970" d="M718.307,-225.908C731.3432,-224.1999 745.4389,-222.3528 758.6713,-220.6189"/>
<polygon fill="#191970" stroke="#191970" points="759.1296,-224.0889 768.5901,-219.3192 758.2201,-217.1482 759.1296,-224.0889"/>
</g>
<!-- Node278 -->
<g id="node11" class="node">
<title>Node278</title>
<g id="a_node11"><a xlink:href="list_8h.html#a0f2fe7ff1e14a9237a955a4925b062e2" target="_top" xlink:title="zrtos_list__get_last_node">
<polygon fill="#ffffff" stroke="#000000" points="902,-204 902,-223 1030,-223 1030,-204 902,-204"/>
<text text-anchor="middle" x="966" y="-211" font-family="Helvetica,sans-Serif" font-size="10.00" fill="#000000">zrtos_list__get_last_node</text>
</a>
</g>
</g>
<!-- Node277&#45;&gt;Node278 -->
<g id="edge10" class="edge">
<title>Node277&#45;&gt;Node278</title>
<path fill="none" stroke="#191970" d="M857.2539,-213.5C868.039,-213.5 879.8707,-213.5 891.6351,-213.5"/>
<polygon fill="#191970" stroke="#191970" points="891.9281,-217.0001 901.9281,-213.5 891.928,-210.0001 891.9281,-217.0001"/>
</g>
<!-- Node280 -->
<g id="node13" class="node">
<title>Node280</title>
<g id="a_node13"><a xlink:href="clist_8h.html#ac963d632abfc835ef63877a4cfd401e6" target="_top" xlink:title="zrtos_clist__get_last_node">
<polygon fill="#ffffff" stroke="#000000" points="443,-179 443,-198 576,-198 576,-179 443,-179"/>
<text text-anchor="middle" x="509.5" y="-186" font-family="Helvetica,sans-Serif" font-size="10.00" fill="#000000">zrtos_clist__get_last_node</text>
</a>
</g>
</g>
<!-- Node279&#45;&gt;Node280 -->
<g id="edge12" class="edge">
<title>Node279&#45;&gt;Node280</title>
<path fill="none" stroke="#191970" d="M398.0506,-188.5C408.8929,-188.5 420.7221,-188.5 432.4923,-188.5"/>
<polygon fill="#191970" stroke="#191970" points="432.7944,-192.0001 442.7943,-188.5 432.7943,-185.0001 432.7944,-192.0001"/>
</g>
<!-- Node283 -->
<g id="node16" class="node">
<title>Node283</title>
<g id="a_node16"><a xlink:href="clist_8h.html#a2795f97f269d0259065d7c7219d09341" target="_top" xlink:title="zrtos_clist_node__append">
<polygon fill="#ffffff" stroke="#000000" points="444.5,-141 444.5,-160 574.5,-160 574.5,-141 444.5,-141"/>
<text text-anchor="middle" x="509.5" y="-148" font-family="Helvetica,sans-Serif" font-size="10.00" fill="#000000">zrtos_clist_node__append</text>
</a>
</g>
</g>
<!-- Node279&#45;&gt;Node283 -->
<g id="edge15" class="edge">
<title>Node279&#45;&gt;Node283</title>
<path fill="none" stroke="#191970" d="M391.3701,-178.911C412.2199,-173.8965 437.9346,-167.7119 460.0429,-162.3947"/>
<polygon fill="#191970" stroke="#191970" points="461.0123,-165.7615 469.9166,-160.0201 459.3754,-158.9555 461.0123,-165.7615"/>
</g>
<!-- Node281 -->
<g id="node14" class="node">
<title>Node281</title>
<g id="a_node14"><a xlink:href="clist_8h.html#afb7e643d242da19562a3584abcfca015" target="_top" xlink:title="zrtos_clist__get_root">
<polygon fill="#ffffff" stroke="#000000" points="614.5,-179 614.5,-198 721.5,-198 721.5,-179 614.5,-179"/>
<text text-anchor="middle" x="668" y="-186" font-family="Helvetica,sans-Serif" font-size="10.00" fill="#000000">zrtos_clist__get_root</text>
</a>
</g>
</g>
<!-- Node280&#45;&gt;Node281 -->
<g id="edge13" class="edge">
<title>Node280&#45;&gt;Node281</title>
<path fill="none" stroke="#191970" d="M576.2589,-188.5C585.4793,-188.5 594.9312,-188.5 604.0982,-188.5"/>
<polygon fill="#191970" stroke="#191970" points="604.2994,-192.0001 614.2994,-188.5 604.2994,-185.0001 604.2994,-192.0001"/>
</g>
<!-- Node282 -->
<g id="node15" class="node">
<title>Node282</title>
<g id="a_node15"><a xlink:href="clist_8h.html#adc7d3acc850be7934c1c38390033a93d" target="_top" xlink:title="zrtos_clist_node__get\l_previous_node">
<polygon fill="#ffffff" stroke="#000000" points="612,-129.5 612,-159.5 724,-159.5 724,-129.5 612,-129.5"/>
<text text-anchor="start" x="620" y="-147.5" font-family="Helvetica,sans-Serif" font-size="10.00" fill="#000000">zrtos_clist_node__get</text>
<text text-anchor="middle" x="668" y="-136.5" font-family="Helvetica,sans-Serif" font-size="10.00" fill="#000000">_previous_node</text>
</a>
</g>
</g>
<!-- Node280&#45;&gt;Node282 -->
<g id="edge14" class="edge">
<title>Node280&#45;&gt;Node282</title>
<path fill="none" stroke="#191970" d="M543.8921,-178.9527C561.4984,-174.0651 583.5089,-167.9549 604.0854,-162.2429"/>
<polygon fill="#191970" stroke="#191970" points="605.0311,-165.6128 613.7305,-159.5654 603.1586,-158.8678 605.0311,-165.6128"/>
</g>
<!-- Node285 -->
<g id="node18" class="node">
<title>Node285</title>
<g id="a_node18"><a xlink:href="list_8h.html#ab2efaa1af7b804994b227ea5436bea39" target="_top" xlink:title="zrtos_list__deinit">
<polygon fill="#ffffff" stroke="#000000" points="768,-91 768,-110 858,-110 858,-91 768,-91"/>
<text text-anchor="middle" x="813" y="-98" font-family="Helvetica,sans-Serif" font-size="10.00" fill="#000000">zrtos_list__deinit</text>
</a>
</g>
</g>
<!-- Node284&#45;&gt;Node285 -->
<g id="edge17" class="edge">
<title>Node284&#45;&gt;Node285</title>
<path fill="none" stroke="#191970" d="M405.3431,-100.5C493.6271,-100.5 668.254,-100.5 757.5643,-100.5"/>
<polygon fill="#191970" stroke="#191970" points="757.7608,-104.0001 767.7608,-100.5 757.7607,-97.0001 757.7608,-104.0001"/>
</g>
<!-- Node289 -->
<g id="node22" class="node">
<title>Node289</title>
<g id="a_node22"><a xlink:href="cbuffer_8h.html#a5100fc709c08ad12bbce96e5320b3e3d" target="_top" xlink:title="zrtos_cbuffer__deinit\l_callback">
<polygon fill="#ffffff" stroke="#000000" points="456,-41.5 456,-71.5 563,-71.5 563,-41.5 456,-41.5"/>
<text text-anchor="start" x="464" y="-59.5" font-family="Helvetica,sans-Serif" font-size="10.00" fill="#000000">zrtos_cbuffer__deinit</text>
<text text-anchor="middle" x="509.5" y="-48.5" font-family="Helvetica,sans-Serif" font-size="10.00" fill="#000000">_callback</text>
</a>
</g>
</g>
<!-- Node284&#45;&gt;Node289 -->
<g id="edge22" class="edge">
<title>Node284&#45;&gt;Node289</title>
<path fill="none" stroke="#191970" d="M385.7836,-90.9527C403.4127,-86.0433 425.4714,-79.9004 446.0616,-74.1664"/>
<polygon fill="#191970" stroke="#191970" points="447.0159,-77.5339 455.7104,-71.4794 445.138,-70.7905 447.0159,-77.5339"/>
</g>
<!-- Node286 -->
<g id="node19" class="node">
<title>Node286</title>
<g id="a_node19"><a xlink:href="list_8h.html#a19f2741be75dd514c2227963d8c629dd" target="_top" xlink:title="zrtos_list__is_empty">
<polygon fill="#ffffff" stroke="#000000" points="912.5,-123 912.5,-142 1019.5,-142 1019.5,-123 912.5,-123"/>
<text text-anchor="middle" x="966" y="-130" font-family="Helvetica,sans-Serif" font-size="10.00" fill="#000000">zrtos_list__is_empty</text>
</a>
</g>
</g>
<!-- Node285&#45;&gt;Node286 -->
<g id="edge18" class="edge">
<title>Node285&#45;&gt;Node286</title>
<path fill="none" stroke="#191970" d="M858.0775,-109.928C874.5093,-113.3647 893.2822,-117.2911 910.5132,-120.8949"/>
<polygon fill="#191970" stroke="#191970" points="909.9463,-124.352 920.451,-122.9734 911.3793,-117.5003 909.9463,-124.352"/>
</g>
<!-- Node288 -->
<g id="node21" class="node">
<title>Node288</title>
<g id="a_node21"><a xlink:href="list_8h.html#aee76d71632ab03e18ad9358fc8b35044" target="_top" xlink:title="zrtos_list__shift">
<polygon fill="#ffffff" stroke="#000000" points="923,-85 923,-104 1009,-104 1009,-85 923,-85"/>
<text text-anchor="middle" x="966" y="-92" font-family="Helvetica,sans-Serif" font-size="10.00" fill="#000000">zrtos_list__shift</text>
</a>
</g>
</g>
<!-- Node285&#45;&gt;Node288 -->
<g id="edge20" class="edge">
<title>Node285&#45;&gt;Node288</title>
<path fill="none" stroke="#191970" d="M858.0775,-98.7323C875.1725,-98.0619 894.8013,-97.2921 912.5917,-96.5944"/>
<polygon fill="#191970" stroke="#191970" points="912.9657,-100.0826 922.8209,-96.1933 912.6913,-93.0879 912.9657,-100.0826"/>
</g>
<!-- Node287 -->
<g id="node20" class="node">
<title>Node287</title>
<g id="a_node20"><a xlink:href="list_8h.html#a5a9358f4b25c9376dbdef338fa8333a6" target="_top" xlink:title="zrtos_list__get_first_node">
<polygon fill="#ffffff" stroke="#000000" points="1066,-85 1066,-104 1194,-104 1194,-85 1066,-85"/>
<text text-anchor="middle" x="1130" y="-92" font-family="Helvetica,sans-Serif" font-size="10.00" fill="#000000">zrtos_list__get_first_node</text>
</a>
</g>
</g>
<!-- Node286&#45;&gt;Node287 -->
<g id="edge19" class="edge">
<title>Node286&#45;&gt;Node287</title>
<path fill="none" stroke="#191970" d="M1007.3841,-122.911C1029.1232,-117.8739 1055.9575,-111.6562 1078.9747,-106.3229"/>
<polygon fill="#191970" stroke="#191970" points="1079.9616,-109.6871 1088.9135,-104.0201 1078.3815,-102.8677 1079.9616,-109.6871"/>
</g>
<!-- Node288&#45;&gt;Node287 -->
<g id="edge21" class="edge">
<title>Node288&#45;&gt;Node287</title>
<path fill="none" stroke="#191970" d="M1009.0891,-94.5C1023.3357,-94.5 1039.6222,-94.5 1055.5278,-94.5"/>
<polygon fill="#191970" stroke="#191970" points="1055.8998,-98.0001 1065.8997,-94.5 1055.8997,-91.0001 1055.8998,-98.0001"/>
</g>
<!-- Node290 -->
<g id="node23" class="node">
<title>Node290</title>
<g id="a_node23"><a xlink:href="cbuffer_8h.html#afc85ab6d8226b4a1b93d11c2ba1203f6" target="_top" xlink:title="zrtos_cbuffer_node\l__free">
<polygon fill="#ffffff" stroke="#000000" points="618,-41.5 618,-71.5 718,-71.5 718,-41.5 618,-41.5"/>
<text text-anchor="start" x="626" y="-59.5" font-family="Helvetica,sans-Serif" font-size="10.00" fill="#000000">zrtos_cbuffer_node</text>
<text text-anchor="middle" x="668" y="-48.5" font-family="Helvetica,sans-Serif" font-size="10.00" fill="#000000">__free</text>
</a>
</g>
</g>
<!-- Node289&#45;&gt;Node290 -->
<g id="edge23" class="edge">
<title>Node289&#45;&gt;Node290</title>
<path fill="none" stroke="#191970" d="M563.1609,-56.5C577.5359,-56.5 593.1692,-56.5 607.8692,-56.5"/>
<polygon fill="#191970" stroke="#191970" points="607.87,-60.0001 617.87,-56.5 607.87,-53.0001 607.87,-60.0001"/>
</g>
<!-- Node291 -->
<g id="node24" class="node">
<title>Node291</title>
<g id="a_node24"><a xlink:href="list_8h.html#a2b11d9c6f775a209430f16b719a19617" target="_top" xlink:title="zrtos_list__delete">
<polygon fill="#ffffff" stroke="#000000" points="766.5,-50 766.5,-69 859.5,-69 859.5,-50 766.5,-50"/>
<text text-anchor="middle" x="813" y="-57" font-family="Helvetica,sans-Serif" font-size="10.00" fill="#000000">zrtos_list__delete</text>
</a>
</g>
</g>
<!-- Node290&#45;&gt;Node291 -->
<g id="edge24" class="edge">
<title>Node290&#45;&gt;Node291</title>
<path fill="none" stroke="#191970" d="M718.307,-57.5408C730.4486,-57.792 743.5092,-58.0623 755.9354,-58.3194"/>
<polygon fill="#191970" stroke="#191970" points="756.1198,-61.8238 766.1901,-58.5315 756.2647,-54.8253 756.1198,-61.8238"/>
</g>
<!-- Node292 -->
<g id="node25" class="node">
<title>Node292</title>
<g id="a_node25"><a xlink:href="malloc__limit_8h.html#ad9dc03f9dd447b3ffb64b0ec3873f61f" target="_top" xlink:title="zrtos_malloc_limit\l__free">
<polygon fill="#ffffff" stroke="#000000" points="765.5,-.5 765.5,-30.5 860.5,-30.5 860.5,-.5 765.5,-.5"/>
<text text-anchor="start" x="773.5" y="-18.5" font-family="Helvetica,sans-Serif" font-size="10.00" fill="#000000">zrtos_malloc_limit</text>
<text text-anchor="middle" x="813" y="-7.5" font-family="Helvetica,sans-Serif" font-size="10.00" fill="#000000">__free</text>
</a>
</g>
</g>
<!-- Node290&#45;&gt;Node292 -->
<g id="edge27" class="edge">
<title>Node290&#45;&gt;Node292</title>
<path fill="none" stroke="#191970" d="M718.307,-42.2753C730.3118,-38.8808 743.2151,-35.2323 755.5153,-31.7543"/>
<polygon fill="#191970" stroke="#191970" points="756.5514,-35.0986 765.2218,-29.0097 754.6468,-28.3627 756.5514,-35.0986"/>
</g>
<!-- Node291&#45;&gt;Node287 -->
<g id="edge25" class="edge">
<title>Node291&#45;&gt;Node287</title>
<path fill="none" stroke="#191970" d="M859.7201,-61.4016C903.7729,-63.5592 971.5721,-67.8208 1030,-75.5 1044.9476,-77.4646 1061.0383,-80.2298 1075.8501,-83.0439"/>
<polygon fill="#191970" stroke="#191970" points="1075.3864,-86.5192 1085.8704,-84.9907 1076.7215,-79.6477 1075.3864,-86.5192"/>
</g>
<!-- Node291&#45;&gt;Node288 -->
<g id="edge26" class="edge">
<title>Node291&#45;&gt;Node288</title>
<path fill="none" stroke="#191970" d="M854.8079,-69.0639C873.1919,-73.2694 894.967,-78.2506 914.3533,-82.6854"/>
<polygon fill="#191970" stroke="#191970" points="913.7139,-86.1295 924.2426,-84.9477 915.275,-79.3057 913.7139,-86.1295"/>
</g>
<!-- Node293 -->
<g id="node26" class="node">
<title>Node293</title>
<g id="a_node26"><a xlink:href="malloc_8h.html#aeba49dabb0a21ae4e02fa137e195bb1d" target="_top" xlink:title="zrtos_malloc__get_length">
<polygon fill="#ffffff" stroke="#000000" points="902,-6 902,-25 1030,-25 1030,-6 902,-6"/>
<text text-anchor="middle" x="966" y="-13" font-family="Helvetica,sans-Serif" font-size="10.00" fill="#000000">zrtos_malloc__get_length</text>
</a>
</g>
</g>
<!-- Node292&#45;&gt;Node293 -->
<g id="edge28" class="edge">
<title>Node292&#45;&gt;Node293</title>
<path fill="none" stroke="#191970" d="M860.5715,-15.5C870.4765,-15.5 881.1403,-15.5 891.7465,-15.5"/>
<polygon fill="#191970" stroke="#191970" points="891.871,-19.0001 901.871,-15.5 891.8709,-12.0001 891.871,-19.0001"/>
</g>
</g>
</svg>
