<?xml version="1.0" encoding="UTF-8" standalone="no"?>
<!DOCTYPE svg PUBLIC "-//W3C//DTD SVG 1.1//EN"
 "http://www.w3.org/Graphics/SVG/1.1/DTD/svg11.dtd">
<!-- Generated by graphviz version 2.40.1 (20161225.0304)
 -->
<!-- Title: zrtos_vfs_module_spi__transfer Pages: 1 -->
<svg width="418pt" height="78pt"
 viewBox="0.00 0.00 418.00 77.50" xmlns="http://www.w3.org/2000/svg" xmlns:xlink="http://www.w3.org/1999/xlink">
<g id="graph0" class="graph" transform="scale(1 1) rotate(0) translate(4 73.5)">
<title>zrtos_vfs_module_spi__transfer</title>
<polygon fill="#ffffff" stroke="transparent" points="-4,4 -4,-73.5 414,-73.5 414,4 -4,4"/>
<!-- Node131 -->
<g id="node1" class="node">
<title>Node131</title>
<polygon fill="#bfbfbf" stroke="#000000" points="0,-22.5 0,-52.5 112,-52.5 112,-22.5 0,-22.5"/>
<text text-anchor="start" x="8" y="-40.5" font-family="Helvetica,sans-Serif" font-size="10.00" fill="#000000">zrtos_vfs_module_spi</text>
<text text-anchor="middle" x="56" y="-29.5" font-family="Helvetica,sans-Serif" font-size="10.00" fill="#000000">__transfer</text>
</g>
<!-- Node132 -->
<g id="node2" class="node">
<title>Node132</title>
<g id="a_node2"><a xlink:href="avr_2spi_2spi_8h.html#a3a0f3b324bd986778ccde00670dbabc9" target="_top" xlink:title="zrtos_vfs_module_avr\l_spi__on_interrupt">
<polygon fill="#ffffff" stroke="#000000" points="148,-22.5 148,-52.5 261,-52.5 261,-22.5 148,-22.5"/>
<text text-anchor="start" x="156" y="-40.5" font-family="Helvetica,sans-Serif" font-size="10.00" fill="#000000">zrtos_vfs_module_avr</text>
<text text-anchor="middle" x="204.5" y="-29.5" font-family="Helvetica,sans-Serif" font-size="10.00" fill="#000000">_spi__on_interrupt</text>
</a>
</g>
</g>
<!-- Node131&#45;&gt;Node132 -->
<g id="edge1" class="edge">
<title>Node131&#45;&gt;Node132</title>
<path fill="none" stroke="#191970" d="M122.3845,-37.5C130.8629,-37.5 139.4796,-37.5 147.7858,-37.5"/>
<polygon fill="#191970" stroke="#191970" points="122.1415,-34.0001 112.1415,-37.5 122.1414,-41.0001 122.1415,-34.0001"/>
</g>
<!-- Node133 -->
<g id="node3" class="node">
<title>Node133</title>
<g id="a_node3"><a xlink:href="avr_2spi_2spi_8h.html#a0353f98d744b931e541684fe33b272f7" target="_top" xlink:title="ISR">
<polygon fill="#ffffff" stroke="#000000" points="336.5,-50 336.5,-69 370.5,-69 370.5,-50 336.5,-50"/>
<text text-anchor="middle" x="353.5" y="-57" font-family="Helvetica,sans-Serif" font-size="10.00" fill="#000000">ISR</text>
</a>
</g>
</g>
<!-- Node132&#45;&gt;Node133 -->
<g id="edge2" class="edge">
<title>Node132&#45;&gt;Node133</title>
<path fill="none" stroke="#191970" d="M271.4328,-47.3827C295.3988,-50.9213 320.4203,-54.6157 336.4384,-56.9808"/>
<polygon fill="#191970" stroke="#191970" points="271.6596,-43.8783 261.2556,-45.88 270.637,-50.8032 271.6596,-43.8783"/>
</g>
<!-- Node134 -->
<g id="node4" class="node">
<title>Node134</title>
<g id="a_node4"><a xlink:href="avr_2spi_2spi_8h.html#ab6f547c3ce7ee0463c235abe078f9491" target="_top" xlink:title="zrtos_vfs_module_avr\l_spi__on_write">
<polygon fill="#ffffff" stroke="#000000" points="297,-.5 297,-30.5 410,-30.5 410,-.5 297,-.5"/>
<text text-anchor="start" x="305" y="-18.5" font-family="Helvetica,sans-Serif" font-size="10.00" fill="#000000">zrtos_vfs_module_avr</text>
<text text-anchor="middle" x="353.5" y="-7.5" font-family="Helvetica,sans-Serif" font-size="10.00" fill="#000000">_spi__on_write</text>
</a>
</g>
</g>
<!-- Node132&#45;&gt;Node134 -->
<g id="edge3" class="edge">
<title>Node132&#45;&gt;Node134</title>
<path fill="none" stroke="#191970" d="M271.228,-27.6475C279.8009,-26.3817 288.5125,-25.0955 296.9022,-23.8567"/>
<polygon fill="#191970" stroke="#191970" points="270.637,-24.1968 261.2556,-29.12 271.6596,-31.1217 270.637,-24.1968"/>
</g>
</g>
</svg>
