<?xml version="1.0" encoding="UTF-8" standalone="no"?>
<!DOCTYPE svg PUBLIC "-//W3C//DTD SVG 1.1//EN"
 "http://www.w3.org/Graphics/SVG/1.1/DTD/svg11.dtd">
<!-- Generated by graphviz version 2.40.1 (20161225.0304)
 -->
<!-- Title: zrtos_vfs_module_spi__transfer_init Pages: 1 -->
<svg width="613pt" height="66pt"
 viewBox="0.00 0.00 613.00 66.00" xmlns="http://www.w3.org/2000/svg" xmlns:xlink="http://www.w3.org/1999/xlink">
<g id="graph0" class="graph" transform="scale(1 1) rotate(0) translate(4 62)">
<title>zrtos_vfs_module_spi__transfer_init</title>
<polygon fill="#ffffff" stroke="transparent" points="-4,4 -4,-62 609,-62 609,4 -4,4"/>
<!-- Node165 -->
<g id="node1" class="node">
<title>Node165</title>
<polygon fill="#bfbfbf" stroke="#000000" points="0,-14 0,-44 112,-44 112,-14 0,-14"/>
<text text-anchor="start" x="8" y="-32" font-family="Helvetica,sans-Serif" font-size="10.00" fill="#000000">zrtos_vfs_module_spi</text>
<text text-anchor="middle" x="56" y="-21" font-family="Helvetica,sans-Serif" font-size="10.00" fill="#000000">__transfer_init</text>
</g>
<!-- Node166 -->
<g id="node2" class="node">
<title>Node166</title>
<g id="a_node2"><a xlink:href="gpio_8h.html#a09265f640ff70e6c6a30db445b052069" target="_top" xlink:title="zrtos_gpio__set_mode_ex">
<polygon fill="#ffffff" stroke="#000000" points="148,-19.5 148,-38.5 279,-38.5 279,-19.5 148,-19.5"/>
<text text-anchor="middle" x="213.5" y="-26.5" font-family="Helvetica,sans-Serif" font-size="10.00" fill="#000000">zrtos_gpio__set_mode_ex</text>
</a>
</g>
</g>
<!-- Node165&#45;&gt;Node166 -->
<g id="edge1" class="edge">
<title>Node165&#45;&gt;Node166</title>
<path fill="none" stroke="#191970" d="M112.4163,-29C120.5741,-29 129.0805,-29 137.5439,-29"/>
<polygon fill="#191970" stroke="#191970" points="137.8196,-32.5001 147.8196,-29 137.8196,-25.5001 137.8196,-32.5001"/>
</g>
<!-- Node167 -->
<g id="node3" class="node">
<title>Node167</title>
<g id="a_node3"><a xlink:href="gpio_8h.html#af2a9eeeb5290c0a90ebe5ebceefb8ccd" target="_top" xlink:title="zrtos_gpio__set_mode_va">
<polygon fill="#ffffff" stroke="#000000" points="315,-19.5 315,-38.5 446,-38.5 446,-19.5 315,-19.5"/>
<text text-anchor="middle" x="380.5" y="-26.5" font-family="Helvetica,sans-Serif" font-size="10.00" fill="#000000">zrtos_gpio__set_mode_va</text>
</a>
</g>
</g>
<!-- Node166&#45;&gt;Node167 -->
<g id="edge2" class="edge">
<title>Node166&#45;&gt;Node167</title>
<path fill="none" stroke="#191970" d="M279.0235,-29C287.496,-29 296.2278,-29 304.8471,-29"/>
<polygon fill="#191970" stroke="#191970" points="304.8914,-32.5001 314.8913,-29 304.8913,-25.5001 304.8914,-32.5001"/>
</g>
<!-- Node168 -->
<g id="node4" class="node">
<title>Node168</title>
<g id="a_node4"><a xlink:href="error_8h.html#add13298163f63b7d37ed9f12d57e1a31" target="_top" xlink:title="zrtos_error__is_success">
<polygon fill="#ffffff" stroke="#000000" points="482,-38.5 482,-57.5 605,-57.5 605,-38.5 482,-38.5"/>
<text text-anchor="middle" x="543.5" y="-45.5" font-family="Helvetica,sans-Serif" font-size="10.00" fill="#000000">zrtos_error__is_success</text>
</a>
</g>
</g>
<!-- Node167&#45;&gt;Node168 -->
<g id="edge3" class="edge">
<title>Node167&#45;&gt;Node168</title>
<path fill="none" stroke="#191970" d="M446.3285,-36.6733C454.683,-37.6471 463.2659,-38.6476 471.7077,-39.6316"/>
<polygon fill="#191970" stroke="#191970" points="471.5723,-43.1394 481.9103,-40.8208 472.3828,-36.1865 471.5723,-43.1394"/>
</g>
<!-- Node169 -->
<g id="node5" class="node">
<title>Node169</title>
<g id="a_node5"><a xlink:href="gpio_8h.html#a256ab7a19b884f6960ccbbc56c1e6cf8" target="_top" xlink:title="zrtos_gpio__set_mode">
<polygon fill="#ffffff" stroke="#000000" points="486,-.5 486,-19.5 601,-19.5 601,-.5 486,-.5"/>
<text text-anchor="middle" x="543.5" y="-7.5" font-family="Helvetica,sans-Serif" font-size="10.00" fill="#000000">zrtos_gpio__set_mode</text>
</a>
</g>
</g>
<!-- Node167&#45;&gt;Node169 -->
<g id="edge4" class="edge">
<title>Node167&#45;&gt;Node169</title>
<path fill="none" stroke="#191970" d="M446.3285,-21.3267C456.0339,-20.1954 466.0474,-19.0282 475.7902,-17.8926"/>
<polygon fill="#191970" stroke="#191970" points="476.2934,-21.3577 485.8208,-16.7233 475.4828,-14.4048 476.2934,-21.3577"/>
</g>
</g>
</svg>
