<?xml version="1.0" encoding="UTF-8" standalone="no"?>
<!DOCTYPE svg PUBLIC "-//W3C//DTD SVG 1.1//EN"
 "http://www.w3.org/Graphics/SVG/1.1/DTD/svg11.dtd">
<!-- Generated by graphviz version 10.0.1 (20240210.2158)
 -->
<!-- Title: zrtos_vfs_module_spi__transfer Pages: 1 -->
<svg width="1549pt" height="659pt"
 viewBox="0.00 0.00 1548.75 659.00" xmlns="http://www.w3.org/2000/svg" xmlns:xlink="http://www.w3.org/1999/xlink">
<g id="graph0" class="graph" transform="scale(1 1) rotate(0) translate(4 655)">
<title>zrtos_vfs_module_spi__transfer</title>
<!-- Node1 -->
<g id="Node000001" class="node">
<title>Node1</title>
<g id="a_Node000001"><a xlink:title=" ">
<polygon fill="#999999" stroke="#666666" points="109,-261 0,-261 0,-229 109,-229 109,-261"/>
<text text-anchor="start" x="8" y="-247.5" font-family="Helvetica,sans-Serif" font-size="10.00">zrtos_vfs_module_spi</text>
<text text-anchor="middle" x="54.5" y="-235.5" font-family="Helvetica,sans-Serif" font-size="10.00">__transfer</text>
</a>
</g>
</g>
<!-- Node2 -->
<g id="Node000002" class="node">
<title>Node2</title>
<g id="a_Node000002"><a xlink:href="spi_2spi_8h.html#a7f9adeb6314d47b2442b0a17d1cc2f37" target="_top" xlink:title=" ">
<polygon fill="white" stroke="#666666" points="400.12,-428 291.12,-428 291.12,-396 400.12,-396 400.12,-428"/>
<text text-anchor="start" x="299.12" y="-414.5" font-family="Helvetica,sans-Serif" font-size="10.00">zrtos_vfs_module_spi</text>
<text text-anchor="middle" x="345.62" y="-402.5" font-family="Helvetica,sans-Serif" font-size="10.00">__transfer_in</text>
</a>
</g>
</g>
<!-- Node1&#45;&gt;Node2 -->
<g id="edge1_Node000001_Node000002" class="edge">
<title>Node1&#45;&gt;Node2</title>
<g id="a_edge1_Node000001_Node000002"><a xlink:title=" ">
<path fill="none" stroke="#63b8ff" d="M83.16,-261.48C126.88,-287.45 214.72,-339.35 290,-382 294.7,-384.66 299.63,-387.42 304.54,-390.15"/>
<polygon fill="#63b8ff" stroke="#63b8ff" points="302.72,-393.14 313.17,-394.91 306.1,-387.01 302.72,-393.14"/>
</a>
</g>
</g>
<!-- Node27 -->
<g id="Node000027" class="node">
<title>Node27</title>
<g id="a_Node000027"><a xlink:href="spi_2spi_8h.html#a7cc1a52aa2cec6b681b7732681bda10b" target="_top" xlink:title=" ">
<polygon fill="white" stroke="#666666" points="254,-239 145,-239 145,-207 254,-207 254,-239"/>
<text text-anchor="start" x="153" y="-225.5" font-family="Helvetica,sans-Serif" font-size="10.00">zrtos_vfs_module_spi</text>
<text text-anchor="middle" x="199.5" y="-213.5" font-family="Helvetica,sans-Serif" font-size="10.00">__transfer_out</text>
</a>
</g>
</g>
<!-- Node1&#45;&gt;Node27 -->
<g id="edge32_Node000001_Node000027" class="edge">
<title>Node1&#45;&gt;Node27</title>
<g id="a_edge32_Node000001_Node000027"><a xlink:title=" ">
<path fill="none" stroke="#63b8ff" d="M109.15,-236.75C117.02,-235.54 125.19,-234.28 133.26,-233.04"/>
<polygon fill="#63b8ff" stroke="#63b8ff" points="133.7,-236.51 143.05,-231.53 132.63,-229.59 133.7,-236.51"/>
</a>
</g>
</g>
<!-- Node3 -->
<g id="Node000003" class="node">
<title>Node3</title>
<g id="a_Node000003"><a xlink:href="cbuffer_8h.html#a5d269503e04946737598d2062c5bfaf4" target="_top" xlink:title=" ">
<polygon fill="white" stroke="#666666" points="557.88,-422 446.62,-422 446.62,-402 557.88,-402 557.88,-422"/>
<text text-anchor="middle" x="502.25" y="-408.5" font-family="Helvetica,sans-Serif" font-size="10.00">zrtos_cbuffer__put_ex</text>
</a>
</g>
</g>
<!-- Node2&#45;&gt;Node3 -->
<g id="edge2_Node000002_Node000003" class="edge">
<title>Node2&#45;&gt;Node3</title>
<g id="a_edge2_Node000002_Node000003"><a xlink:title=" ">
<path fill="none" stroke="#63b8ff" d="M400.27,-412C411.46,-412 423.38,-412 434.96,-412"/>
<polygon fill="#63b8ff" stroke="#63b8ff" points="434.87,-415.5 444.87,-412 434.87,-408.5 434.87,-415.5"/>
</a>
</g>
</g>
<!-- Node26 -->
<g id="Node000026" class="node">
<title>Node26</title>
<g id="a_Node000026"><a xlink:href="error_8h.html#add13298163f63b7d37ed9f12d57e1a31" target="_top" xlink:title=" ">
<polygon fill="white" stroke="#666666" points="890.25,-463 767.75,-463 767.75,-443 890.25,-443 890.25,-463"/>
<text text-anchor="middle" x="829" y="-449.5" font-family="Helvetica,sans-Serif" font-size="10.00">zrtos_error__is_success</text>
</a>
</g>
</g>
<!-- Node2&#45;&gt;Node26 -->
<g id="edge31_Node000002_Node000026" class="edge">
<title>Node2&#45;&gt;Node26</title>
<g id="a_edge31_Node000002_Node000026"><a xlink:title=" ">
<path fill="none" stroke="#63b8ff" d="M400.21,-423.71C412.36,-426.23 425.23,-428.8 437.25,-431 510.71,-444.44 528.8,-451.2 603.25,-457 660.19,-461.43 674.65,-458.19 731.75,-457 739.59,-456.84 747.79,-456.6 755.95,-456.32"/>
<polygon fill="#63b8ff" stroke="#63b8ff" points="756.05,-459.82 765.91,-455.96 755.79,-452.82 756.05,-459.82"/>
</a>
</g>
</g>
<!-- Node4 -->
<g id="Node000004" class="node">
<title>Node4</title>
<g id="a_Node000004"><a xlink:href="cbuffer_8h.html#afdb6a6176387d77a0f10e28536ba28f9" target="_top" xlink:title=" ">
<polygon fill="white" stroke="#666666" points="715.25,-542 619.75,-542 619.75,-522 715.25,-522 715.25,-542"/>
<text text-anchor="middle" x="667.5" y="-528.5" font-family="Helvetica,sans-Serif" font-size="10.00">zrtos_cbuffer__put</text>
</a>
</g>
</g>
<!-- Node3&#45;&gt;Node4 -->
<g id="edge3_Node000003_Node000004" class="edge">
<title>Node3&#45;&gt;Node4</title>
<g id="a_edge3_Node000003_Node000004"><a xlink:title=" ">
<path fill="none" stroke="#63b8ff" d="M517.45,-422.44C545.69,-443.2 609.13,-489.83 643.43,-515.04"/>
<polygon fill="#63b8ff" stroke="#63b8ff" points="641.33,-517.84 651.46,-520.94 645.47,-512.2 641.33,-517.84"/>
</a>
</g>
</g>
<!-- Node14 -->
<g id="Node000014" class="node">
<title>Node14</title>
<g id="a_Node000014"><a xlink:href="cbuffer_8h.html#a9aa1ad8581d3c89304d2ff464a53e92e" target="_top" xlink:title=" ">
<polygon fill="white" stroke="#666666" points="725.38,-264 609.62,-264 609.62,-232 725.38,-232 725.38,-264"/>
<text text-anchor="start" x="617.62" y="-250.5" font-family="Helvetica,sans-Serif" font-size="10.00">zrtos_cbuffer__rollback</text>
<text text-anchor="middle" x="667.5" y="-238.5" font-family="Helvetica,sans-Serif" font-size="10.00">_write_transaction</text>
</a>
</g>
</g>
<!-- Node3&#45;&gt;Node14 -->
<g id="edge15_Node000003_Node000014" class="edge">
<title>Node3&#45;&gt;Node14</title>
<g id="a_edge15_Node000003_Node000014"><a xlink:title=" ">
<path fill="none" stroke="#63b8ff" d="M508.03,-401.74C520.31,-376.41 555.41,-310.27 603.25,-273 604.4,-272.1 605.59,-271.23 606.81,-270.39"/>
<polygon fill="#63b8ff" stroke="#63b8ff" points="608.59,-273.41 615.35,-265.25 604.98,-267.41 608.59,-273.41"/>
</a>
</g>
</g>
<!-- Node24 -->
<g id="Node000024" class="node">
<title>Node24</title>
<g id="a_Node000024"><a xlink:href="cbuffer_8h.html#aaf9c5c04a1350c2cdd906f7c7081ee38" target="_top" xlink:title=" ">
<polygon fill="white" stroke="#666666" points="718.25,-428 616.75,-428 616.75,-396 718.25,-396 718.25,-428"/>
<text text-anchor="start" x="624.75" y="-414.5" font-family="Helvetica,sans-Serif" font-size="10.00">zrtos_cbuffer__start</text>
<text text-anchor="middle" x="667.5" y="-402.5" font-family="Helvetica,sans-Serif" font-size="10.00">_write_transaction</text>
</a>
</g>
</g>
<!-- Node3&#45;&gt;Node24 -->
<g id="edge27_Node000003_Node000024" class="edge">
<title>Node3&#45;&gt;Node24</title>
<g id="a_edge27_Node000003_Node000024"><a xlink:title=" ">
<path fill="none" stroke="#63b8ff" d="M558.06,-412C573.27,-412 589.87,-412 605.41,-412"/>
<polygon fill="#63b8ff" stroke="#63b8ff" points="604.99,-415.5 614.99,-412 604.99,-408.5 604.99,-415.5"/>
</a>
</g>
</g>
<!-- Node25 -->
<g id="Node000025" class="node">
<title>Node25</title>
<g id="a_Node000025"><a xlink:href="error_8h.html#af58428a30fbc7fd6967e15504df633a0" target="_top" xlink:title=" ">
<polygon fill="white" stroke="#666666" points="720.12,-378 614.88,-378 614.88,-358 720.12,-358 720.12,-378"/>
<text text-anchor="middle" x="667.5" y="-364.5" font-family="Helvetica,sans-Serif" font-size="10.00">zrtos_error__is_error</text>
</a>
</g>
</g>
<!-- Node3&#45;&gt;Node25 -->
<g id="edge29_Node000003_Node000025" class="edge">
<title>Node3&#45;&gt;Node25</title>
<g id="a_edge29_Node000003_Node000025"><a xlink:title=" ">
<path fill="none" stroke="#63b8ff" d="M541.94,-401.57C564.32,-395.54 592.73,-387.88 616.76,-381.41"/>
<polygon fill="#63b8ff" stroke="#63b8ff" points="617.6,-384.8 626.35,-378.82 615.78,-378.05 617.6,-384.8"/>
</a>
</g>
</g>
<!-- Node3&#45;&gt;Node26 -->
<g id="edge30_Node000003_Node000026" class="edge">
<title>Node3&#45;&gt;Node26</title>
<g id="a_edge30_Node000003_Node000026"><a xlink:title=" ">
<path fill="none" stroke="#63b8ff" d="M538.58,-422.43C557.58,-427.63 581.51,-433.54 603.25,-437 654.07,-445.1 712.01,-449.1 756.33,-451.07"/>
<polygon fill="#63b8ff" stroke="#63b8ff" points="755.93,-454.56 766.07,-451.48 756.22,-447.57 755.93,-454.56"/>
</a>
</g>
</g>
<!-- Node5 -->
<g id="Node000005" class="node">
<title>Node5</title>
<g id="a_Node000005"><a xlink:href="cbuffer_8h.html#a1846e554cfe5e72cc8df6b60ab5c6d84" target="_top" xlink:title=" ">
<polygon fill="white" stroke="#666666" points="889.88,-545 768.12,-545 768.12,-525 889.88,-525 889.88,-545"/>
<text text-anchor="middle" x="829" y="-531.5" font-family="Helvetica,sans-Serif" font-size="10.00">zrtos_cbuffer_node__put</text>
</a>
</g>
</g>
<!-- Node4&#45;&gt;Node5 -->
<g id="edge4_Node000004_Node000005" class="edge">
<title>Node4&#45;&gt;Node5</title>
<g id="a_edge4_Node000004_Node000005"><a xlink:title=" ">
<path fill="none" stroke="#63b8ff" d="M715.49,-532.88C728.27,-533.12 742.41,-533.39 756.22,-533.65"/>
<polygon fill="#63b8ff" stroke="#63b8ff" points="756.14,-537.15 766.2,-533.84 756.27,-530.15 756.14,-537.15"/>
</a>
</g>
</g>
<!-- Node11 -->
<g id="Node000011" class="node">
<title>Node11</title>
<g id="a_Node000011"><a xlink:href="list_8h.html#aa2f26b2b6fd722b708eb7e25cc264a90" target="_top" xlink:title=" ">
<polygon fill="white" stroke="#666666" points="1540.75,-501 1413.75,-501 1413.75,-481 1540.75,-481 1540.75,-501"/>
<text text-anchor="middle" x="1477.25" y="-487.5" font-family="Helvetica,sans-Serif" font-size="10.00">zrtos_list__get_last_node</text>
</a>
</g>
</g>
<!-- Node4&#45;&gt;Node11 -->
<g id="edge14_Node000004_Node000011" class="edge">
<title>Node4&#45;&gt;Node11</title>
<g id="a_edge14_Node000004_Node000011"><a xlink:title=" ">
<path fill="none" stroke="#63b8ff" d="M715.62,-522.13C777.74,-510 890.55,-491 988,-491 988,-491 988,-491 1152.25,-491 1237.95,-491 1336.4,-491 1402.07,-491"/>
<polygon fill="#63b8ff" stroke="#63b8ff" points="1402.02,-494.5 1412.02,-491 1402.02,-487.5 1402.02,-494.5"/>
</a>
</g>
</g>
<!-- Node5&#45;&gt;Node5 -->
<g id="edge13_Node000005_Node000005" class="edge">
<title>Node5&#45;&gt;Node5</title>
<g id="a_edge13_Node000005_Node000005"><a xlink:title=" ">
<path fill="none" stroke="#63b8ff" d="M803.58,-545.34C792.71,-553.98 801.19,-563 829,-563 844.21,-563 853.64,-560.3 857.28,-556.44"/>
<polygon fill="#63b8ff" stroke="#63b8ff" points="860.68,-555.62 854.8,-546.8 853.9,-557.36 860.68,-555.62"/>
</a>
</g>
</g>
<!-- Node6 -->
<g id="Node000006" class="node">
<title>Node6</title>
<g id="a_Node000006"><a xlink:href="cbuffer_8h.html#a0f069b28d310b9b6586aeb37ec2fb1f3" target="_top" xlink:title=" ">
<polygon fill="white" stroke="#666666" points="1037.88,-551 940.12,-551 940.12,-519 1037.88,-519 1037.88,-551"/>
<text text-anchor="start" x="948.12" y="-537.5" font-family="Helvetica,sans-Serif" font-size="10.00">zrtos_cbuffer_node</text>
<text text-anchor="middle" x="989" y="-525.5" font-family="Helvetica,sans-Serif" font-size="10.00">__get_free_space</text>
</a>
</g>
</g>
<!-- Node5&#45;&gt;Node6 -->
<g id="edge5_Node000005_Node000006" class="edge">
<title>Node5&#45;&gt;Node6</title>
<g id="a_edge5_Node000005_Node000006"><a xlink:title=" ">
<path fill="none" stroke="#63b8ff" d="M890.18,-535C902.74,-535 915.96,-535 928.49,-535"/>
<polygon fill="#63b8ff" stroke="#63b8ff" points="928.25,-538.5 938.25,-535 928.25,-531.5 928.25,-538.5"/>
</a>
</g>
</g>
<!-- Node8 -->
<g id="Node000008" class="node">
<title>Node8</title>
<g id="a_Node000008"><a xlink:href="cbuffer_8h.html#a1749e471b67565254c5dc85e0cb728a1" target="_top" xlink:title=" ">
<polygon fill="white" stroke="#666666" points="1051.75,-595 926.25,-595 926.25,-575 1051.75,-575 1051.75,-595"/>
<text text-anchor="middle" x="989" y="-581.5" font-family="Helvetica,sans-Serif" font-size="10.00">zrtos_cbuffer_node__new</text>
</a>
</g>
</g>
<!-- Node5&#45;&gt;Node8 -->
<g id="edge7_Node000005_Node000008" class="edge">
<title>Node5&#45;&gt;Node8</title>
<g id="a_edge7_Node000005_Node000008"><a xlink:title=" ">
<path fill="none" stroke="#63b8ff" d="M863.12,-545.48C886.61,-552.92 918.38,-562.97 944,-571.08"/>
<polygon fill="#63b8ff" stroke="#63b8ff" points="942.89,-574.4 953.48,-574.08 945,-567.72 942.89,-574.4"/>
</a>
</g>
</g>
<!-- Node7 -->
<g id="Node000007" class="node">
<title>Node7</title>
<g id="a_Node000007"><a xlink:href="cbuffer_8h.html#a640a4e58217d5c24d6e795f0fca19440" target="_top" xlink:title=" ">
<polygon fill="white" stroke="#666666" points="1200.12,-551 1102.38,-551 1102.38,-519 1200.12,-519 1200.12,-551"/>
<text text-anchor="start" x="1110.38" y="-537.5" font-family="Helvetica,sans-Serif" font-size="10.00">zrtos_cbuffer_node</text>
<text text-anchor="middle" x="1151.25" y="-525.5" font-family="Helvetica,sans-Serif" font-size="10.00">__get_length</text>
</a>
</g>
</g>
<!-- Node6&#45;&gt;Node7 -->
<g id="edge6_Node000006_Node000007" class="edge">
<title>Node6&#45;&gt;Node7</title>
<g id="a_edge6_Node000006_Node000007"><a xlink:title=" ">
<path fill="none" stroke="#63b8ff" d="M1038.08,-535C1054.64,-535 1073.39,-535 1090.75,-535"/>
<polygon fill="#63b8ff" stroke="#63b8ff" points="1090.41,-538.5 1100.41,-535 1090.41,-531.5 1090.41,-538.5"/>
</a>
</g>
</g>
<!-- Node9 -->
<g id="Node000009" class="node">
<title>Node9</title>
<g id="a_Node000009"><a xlink:href="cbuffer_8h.html#aeb332726de06c905eb2db32ae3d323eb" target="_top" xlink:title=" ">
<polygon fill="white" stroke="#666666" points="1200.12,-651 1102.38,-651 1102.38,-619 1200.12,-619 1200.12,-651"/>
<text text-anchor="start" x="1110.38" y="-637.5" font-family="Helvetica,sans-Serif" font-size="10.00">zrtos_cbuffer_node</text>
<text text-anchor="middle" x="1151.25" y="-625.5" font-family="Helvetica,sans-Serif" font-size="10.00">__init</text>
</a>
</g>
</g>
<!-- Node8&#45;&gt;Node9 -->
<g id="edge8_Node000008_Node000009" class="edge">
<title>Node8&#45;&gt;Node9</title>
<g id="a_edge8_Node000008_Node000009"><a xlink:title=" ">
<path fill="none" stroke="#63b8ff" d="M1023.59,-595.48C1043.15,-601.58 1068.38,-609.45 1091.16,-616.56"/>
<polygon fill="#63b8ff" stroke="#63b8ff" points="1090.08,-619.89 1100.66,-619.53 1092.16,-613.21 1090.08,-619.89"/>
</a>
</g>
</g>
<!-- Node13 -->
<g id="Node000013" class="node">
<title>Node13</title>
<g id="a_Node000013"><a xlink:href="malloc__limit_8h.html#a219ea8916b582afe8c2120d09abf8656" target="_top" xlink:title=" ">
<polygon fill="white" stroke="#666666" points="1198.62,-601 1103.88,-601 1103.88,-569 1198.62,-569 1198.62,-601"/>
<text text-anchor="start" x="1111.88" y="-587.5" font-family="Helvetica,sans-Serif" font-size="10.00">zrtos_malloc_limit</text>
<text text-anchor="middle" x="1151.25" y="-575.5" font-family="Helvetica,sans-Serif" font-size="10.00">__malloc</text>
</a>
</g>
</g>
<!-- Node8&#45;&gt;Node13 -->
<g id="edge12_Node000008_Node000013" class="edge">
<title>Node8&#45;&gt;Node13</title>
<g id="a_edge12_Node000008_Node000013"><a xlink:title=" ">
<path fill="none" stroke="#63b8ff" d="M1051.96,-585C1065.31,-585 1079.37,-585 1092.55,-585"/>
<polygon fill="#63b8ff" stroke="#63b8ff" points="1092.36,-588.5 1102.36,-585 1092.36,-581.5 1092.36,-588.5"/>
</a>
</g>
</g>
<!-- Node10 -->
<g id="Node000010" class="node">
<title>Node10</title>
<g id="a_Node000010"><a xlink:href="list_8h.html#aa734984fb49603438b179f49fff38477" target="_top" xlink:title=" ">
<polygon fill="white" stroke="#666666" points="1357.88,-645 1270.62,-645 1270.62,-625 1357.88,-625 1357.88,-645"/>
<text text-anchor="middle" x="1314.25" y="-631.5" font-family="Helvetica,sans-Serif" font-size="10.00">zrtos_list__push</text>
</a>
</g>
</g>
<!-- Node9&#45;&gt;Node10 -->
<g id="edge9_Node000009_Node000010" class="edge">
<title>Node9&#45;&gt;Node10</title>
<g id="a_edge9_Node000009_Node000010"><a xlink:title=" ">
<path fill="none" stroke="#63b8ff" d="M1200.56,-635C1218.89,-635 1239.89,-635 1258.75,-635"/>
<polygon fill="#63b8ff" stroke="#63b8ff" points="1258.67,-638.5 1268.67,-635 1258.67,-631.5 1258.67,-638.5"/>
</a>
</g>
</g>
<!-- Node12 -->
<g id="Node000012" class="node">
<title>Node12</title>
<g id="a_Node000012"><a xlink:href="list_8h.html#a40feeb4cd0cc4e30201a279240b52429" target="_top" xlink:title=" ">
<polygon fill="white" stroke="#666666" points="1366.88,-607 1261.62,-607 1261.62,-587 1366.88,-587 1366.88,-607"/>
<text text-anchor="middle" x="1314.25" y="-593.5" font-family="Helvetica,sans-Serif" font-size="10.00">zrtos_list_node__init</text>
</a>
</g>
</g>
<!-- Node9&#45;&gt;Node12 -->
<g id="edge11_Node000009_Node000012" class="edge">
<title>Node9&#45;&gt;Node12</title>
<g id="a_edge11_Node000009_Node000012"><a xlink:title=" ">
<path fill="none" stroke="#63b8ff" d="M1200.56,-623.6C1218.59,-619.34 1239.2,-614.48 1257.83,-610.08"/>
<polygon fill="#63b8ff" stroke="#63b8ff" points="1258.42,-613.54 1267.35,-607.83 1256.82,-606.72 1258.42,-613.54"/>
</a>
</g>
</g>
<!-- Node10&#45;&gt;Node11 -->
<g id="edge10_Node000010_Node000011" class="edge">
<title>Node10&#45;&gt;Node11</title>
<g id="a_edge10_Node000010_Node000011"><a xlink:title=" ">
<path fill="none" stroke="#63b8ff" d="M1358.2,-625.76C1365.07,-623.23 1371.85,-620.03 1377.75,-616 1418.23,-588.35 1449.92,-538.97 1465.55,-511.28"/>
<polygon fill="#63b8ff" stroke="#63b8ff" points="1468.45,-513.27 1470.19,-502.82 1462.31,-509.91 1468.45,-513.27"/>
</a>
</g>
</g>
<!-- Node15 -->
<g id="Node000015" class="node">
<title>Node15</title>
<g id="a_Node000015"><a xlink:href="cbuffer_8h.html#a0866b42eeda6c649a07a451372bad55a" target="_top" xlink:title=" ">
<polygon fill="white" stroke="#666666" points="876.75,-425 781.25,-425 781.25,-393 876.75,-393 876.75,-425"/>
<text text-anchor="start" x="789.25" y="-411.5" font-family="Helvetica,sans-Serif" font-size="10.00">zrtos_cbuffer__get</text>
<text text-anchor="middle" x="829" y="-399.5" font-family="Helvetica,sans-Serif" font-size="10.00">_last_node</text>
</a>
</g>
</g>
<!-- Node14&#45;&gt;Node15 -->
<g id="edge16_Node000014_Node000015" class="edge">
<title>Node14&#45;&gt;Node15</title>
<g id="a_edge16_Node000014_Node000015"><a xlink:title=" ">
<path fill="none" stroke="#63b8ff" d="M720.34,-264.36C724.47,-266.86 728.35,-269.72 731.75,-273 760.41,-300.61 744.4,-322.77 767.75,-355 775.84,-366.17 786.6,-376.72 796.78,-385.48"/>
<polygon fill="#63b8ff" stroke="#63b8ff" points="794.39,-388.05 804.33,-391.72 798.85,-382.66 794.39,-388.05"/>
</a>
</g>
</g>
<!-- Node16 -->
<g id="Node000016" class="node">
<title>Node16</title>
<g id="a_Node000016"><a xlink:href="cbuffer_8h.html#afc85ab6d8226b4a1b93d11c2ba1203f6" target="_top" xlink:title=" ">
<polygon fill="white" stroke="#666666" points="877.88,-258 780.12,-258 780.12,-226 877.88,-226 877.88,-258"/>
<text text-anchor="start" x="788.12" y="-244.5" font-family="Helvetica,sans-Serif" font-size="10.00">zrtos_cbuffer_node</text>
<text text-anchor="middle" x="829" y="-232.5" font-family="Helvetica,sans-Serif" font-size="10.00">__free</text>
</a>
</g>
</g>
<!-- Node14&#45;&gt;Node16 -->
<g id="edge18_Node000014_Node000016" class="edge">
<title>Node14&#45;&gt;Node16</title>
<g id="a_edge18_Node000014_Node000016"><a xlink:title=" ">
<path fill="none" stroke="#63b8ff" d="M725.63,-245.85C739.46,-245.33 754.28,-244.77 768.22,-244.25"/>
<polygon fill="#63b8ff" stroke="#63b8ff" points="768.32,-247.75 778.18,-243.87 768.05,-240.75 768.32,-247.75"/>
</a>
</g>
</g>
<!-- Node22 -->
<g id="Node000022" class="node">
<title>Node22</title>
<g id="a_Node000022"><a xlink:href="cbuffer_8h.html#a8228f34a6acad5cce8802e61ec87c9ca" target="_top" xlink:title=" ">
<polygon fill="white" stroke="#666666" points="877.88,-308 780.12,-308 780.12,-276 877.88,-276 877.88,-308"/>
<text text-anchor="start" x="788.12" y="-294.5" font-family="Helvetica,sans-Serif" font-size="10.00">zrtos_cbuffer_node</text>
<text text-anchor="middle" x="829" y="-282.5" font-family="Helvetica,sans-Serif" font-size="10.00">__get_next_node</text>
</a>
</g>
</g>
<!-- Node14&#45;&gt;Node22 -->
<g id="edge25_Node000014_Node000022" class="edge">
<title>Node14&#45;&gt;Node22</title>
<g id="a_edge25_Node000014_Node000022"><a xlink:title=" ">
<path fill="none" stroke="#63b8ff" d="M725.63,-263.76C739.6,-267.61 754.57,-271.74 768.64,-275.62"/>
<polygon fill="#63b8ff" stroke="#63b8ff" points="767.66,-278.99 778.23,-278.27 769.52,-272.24 767.66,-278.99"/>
</a>
</g>
</g>
<!-- Node15&#45;&gt;Node11 -->
<g id="edge17_Node000015_Node000011" class="edge">
<title>Node15&#45;&gt;Node11</title>
<g id="a_edge17_Node000015_Node000011"><a xlink:title=" ">
<path fill="none" stroke="#63b8ff" d="M876.93,-414.54C971.67,-425.79 1192.52,-452.34 1377.75,-477 1385.7,-478.06 1394,-479.19 1402.26,-480.34"/>
<polygon fill="#63b8ff" stroke="#63b8ff" points="1401.59,-483.78 1411.98,-481.7 1402.56,-476.85 1401.59,-483.78"/>
</a>
</g>
</g>
<!-- Node17 -->
<g id="Node000017" class="node">
<title>Node17</title>
<g id="a_Node000017"><a xlink:href="list_8h.html#a2b11d9c6f775a209430f16b719a19617" target="_top" xlink:title=" ">
<polygon fill="white" stroke="#666666" points="1035.25,-208 942.75,-208 942.75,-188 1035.25,-188 1035.25,-208"/>
<text text-anchor="middle" x="989" y="-194.5" font-family="Helvetica,sans-Serif" font-size="10.00">zrtos_list__delete</text>
</a>
</g>
</g>
<!-- Node16&#45;&gt;Node17 -->
<g id="edge19_Node000016_Node000017" class="edge">
<title>Node16&#45;&gt;Node17</title>
<g id="a_edge19_Node000016_Node000017"><a xlink:title=" ">
<path fill="none" stroke="#63b8ff" d="M878.26,-228.56C897.61,-223.17 919.87,-216.97 939.26,-211.57"/>
<polygon fill="#63b8ff" stroke="#63b8ff" points="940.15,-214.96 948.84,-208.9 938.27,-208.22 940.15,-214.96"/>
</a>
</g>
</g>
<!-- Node20 -->
<g id="Node000020" class="node">
<title>Node20</title>
<g id="a_Node000020"><a xlink:href="malloc__limit_8h.html#ad9dc03f9dd447b3ffb64b0ec3873f61f" target="_top" xlink:title=" ">
<polygon fill="white" stroke="#666666" points="1036.38,-258 941.62,-258 941.62,-226 1036.38,-226 1036.38,-258"/>
<text text-anchor="start" x="949.62" y="-244.5" font-family="Helvetica,sans-Serif" font-size="10.00">zrtos_malloc_limit</text>
<text text-anchor="middle" x="989" y="-232.5" font-family="Helvetica,sans-Serif" font-size="10.00">__free</text>
</a>
</g>
</g>
<!-- Node16&#45;&gt;Node20 -->
<g id="edge23_Node000016_Node000020" class="edge">
<title>Node16&#45;&gt;Node20</title>
<g id="a_edge23_Node000016_Node000020"><a xlink:title=" ">
<path fill="none" stroke="#63b8ff" d="M878.26,-242C894.56,-242 912.92,-242 929.9,-242"/>
<polygon fill="#63b8ff" stroke="#63b8ff" points="929.87,-245.5 939.87,-242 929.87,-238.5 929.87,-245.5"/>
</a>
</g>
</g>
<!-- Node18 -->
<g id="Node000018" class="node">
<title>Node18</title>
<g id="a_Node000018"><a xlink:href="list_8h.html#a0039f0f08299038ab1a71e271a43a086" target="_top" xlink:title=" ">
<polygon fill="white" stroke="#666666" points="1377.75,-154 1250.75,-154 1250.75,-134 1377.75,-134 1377.75,-154"/>
<text text-anchor="middle" x="1314.25" y="-140.5" font-family="Helvetica,sans-Serif" font-size="10.00">zrtos_list__get_first_node</text>
</a>
</g>
</g>
<!-- Node17&#45;&gt;Node18 -->
<g id="edge20_Node000017_Node000018" class="edge">
<title>Node17&#45;&gt;Node18</title>
<g id="a_edge20_Node000017_Node000018"><a xlink:title=" ">
<path fill="none" stroke="#63b8ff" d="M1035.34,-198.69C1081.14,-198.48 1153.66,-195.64 1214.75,-182 1237.78,-176.86 1262.56,-167.28 1281.5,-159.02"/>
<polygon fill="#63b8ff" stroke="#63b8ff" points="1282.84,-162.26 1290.54,-154.98 1279.98,-155.87 1282.84,-162.26"/>
</a>
</g>
</g>
<!-- Node19 -->
<g id="Node000019" class="node">
<title>Node19</title>
<g id="a_Node000019"><a xlink:href="list_8h.html#a4ecf7568bdda1cd815956c391f29bf1e" target="_top" xlink:title=" ">
<polygon fill="white" stroke="#666666" points="1193.38,-173 1109.12,-173 1109.12,-153 1193.38,-153 1193.38,-173"/>
<text text-anchor="middle" x="1151.25" y="-159.5" font-family="Helvetica,sans-Serif" font-size="10.00">zrtos_list__shift</text>
</a>
</g>
</g>
<!-- Node17&#45;&gt;Node19 -->
<g id="edge21_Node000017_Node000019" class="edge">
<title>Node17&#45;&gt;Node19</title>
<g id="a_edge21_Node000017_Node000019"><a xlink:title=" ">
<path fill="none" stroke="#63b8ff" d="M1035.49,-188.06C1054.84,-183.84 1077.53,-178.88 1097.6,-174.5"/>
<polygon fill="#63b8ff" stroke="#63b8ff" points="1098.26,-177.94 1107.28,-172.39 1096.76,-171.1 1098.26,-177.94"/>
</a>
</g>
</g>
<!-- Node19&#45;&gt;Node18 -->
<g id="edge22_Node000019_Node000018" class="edge">
<title>Node19&#45;&gt;Node18</title>
<g id="a_edge22_Node000019_Node000018"><a xlink:title=" ">
<path fill="none" stroke="#63b8ff" d="M1193.71,-158.11C1207.58,-156.47 1223.49,-154.59 1239.08,-152.75"/>
<polygon fill="#63b8ff" stroke="#63b8ff" points="1239.32,-156.25 1248.84,-151.6 1238.5,-149.3 1239.32,-156.25"/>
</a>
</g>
</g>
<!-- Node21 -->
<g id="Node000021" class="node">
<title>Node21</title>
<g id="a_Node000021"><a xlink:href="malloc_8h.html#aeba49dabb0a21ae4e02fa137e195bb1d" target="_top" xlink:title=" ">
<polygon fill="white" stroke="#666666" points="1214.75,-252 1087.75,-252 1087.75,-232 1214.75,-232 1214.75,-252"/>
<text text-anchor="middle" x="1151.25" y="-238.5" font-family="Helvetica,sans-Serif" font-size="10.00">zrtos_malloc__get_length</text>
</a>
</g>
</g>
<!-- Node20&#45;&gt;Node21 -->
<g id="edge24_Node000020_Node000021" class="edge">
<title>Node20&#45;&gt;Node21</title>
<g id="a_edge24_Node000020_Node000021"><a xlink:title=" ">
<path fill="none" stroke="#63b8ff" d="M1036.78,-242C1049.12,-242 1062.75,-242 1076.15,-242"/>
<polygon fill="#63b8ff" stroke="#63b8ff" points="1075.81,-245.5 1085.81,-242 1075.81,-238.5 1075.81,-245.5"/>
</a>
</g>
</g>
<!-- Node23 -->
<g id="Node000023" class="node">
<title>Node23</title>
<g id="a_Node000023"><a xlink:href="list_8h.html#a870446d2221a7ce60ce4b2d336f2a577" target="_top" xlink:title=" ">
<polygon fill="white" stroke="#666666" points="1042,-308 936,-308 936,-276 1042,-276 1042,-308"/>
<text text-anchor="start" x="944" y="-294.5" font-family="Helvetica,sans-Serif" font-size="10.00">zrtos_list_node__get</text>
<text text-anchor="middle" x="989" y="-282.5" font-family="Helvetica,sans-Serif" font-size="10.00">_next_node</text>
</a>
</g>
</g>
<!-- Node22&#45;&gt;Node23 -->
<g id="edge26_Node000022_Node000023" class="edge">
<title>Node22&#45;&gt;Node23</title>
<g id="a_edge26_Node000022_Node000023"><a xlink:title=" ">
<path fill="none" stroke="#63b8ff" d="M878.26,-292C892.73,-292 908.82,-292 924.12,-292"/>
<polygon fill="#63b8ff" stroke="#63b8ff" points="924.12,-295.5 934.12,-292 924.12,-288.5 924.12,-295.5"/>
</a>
</g>
</g>
<!-- Node24&#45;&gt;Node15 -->
<g id="edge28_Node000024_Node000015" class="edge">
<title>Node24&#45;&gt;Node15</title>
<g id="a_edge28_Node000024_Node000015"><a xlink:title=" ">
<path fill="none" stroke="#63b8ff" d="M718.53,-411.06C734.71,-410.75 752.8,-410.41 769.54,-410.1"/>
<polygon fill="#63b8ff" stroke="#63b8ff" points="769.42,-413.6 779.35,-409.91 769.29,-406.6 769.42,-413.6"/>
</a>
</g>
</g>
<!-- Node27&#45;&gt;Node25 -->
<g id="edge48_Node000027_Node000025" class="edge">
<title>Node27&#45;&gt;Node25</title>
<g id="a_edge48_Node000027_Node000025"><a xlink:title=" ">
<path fill="none" stroke="#63b8ff" d="M212.12,-239.07C235.7,-271.64 287.17,-342.46 290,-344 388.95,-397.9 524.94,-390.2 603.5,-379.34"/>
<polygon fill="#63b8ff" stroke="#63b8ff" points="603.77,-382.84 613.17,-377.94 602.77,-375.91 603.77,-382.84"/>
</a>
</g>
</g>
<!-- Node27&#45;&gt;Node26 -->
<g id="edge49_Node000027_Node000026" class="edge">
<title>Node27&#45;&gt;Node26</title>
<g id="a_edge49_Node000027_Node000026"><a xlink:title=" ">
<path fill="none" stroke="#63b8ff" d="M211.56,-239.42C226.59,-260.19 255.56,-295.15 290,-311 379.5,-352.2 652.02,-291.11 731.75,-349 764.95,-373.1 737.39,-406.4 767.75,-434 768.82,-434.98 769.95,-435.9 771.11,-436.78"/>
<polygon fill="#63b8ff" stroke="#63b8ff" points="769.07,-439.63 779.43,-441.83 772.7,-433.65 769.07,-439.63"/>
</a>
</g>
</g>
<!-- Node28 -->
<g id="Node000028" class="node">
<title>Node28</title>
<g id="a_Node000028"><a xlink:href="cbuffer_8h.html#adb4435557fc1a9d76b315fc1e205f611" target="_top" xlink:title=" ">
<polygon fill="white" stroke="#666666" points="716.38,-214 618.62,-214 618.62,-182 716.38,-182 716.38,-214"/>
<text text-anchor="start" x="626.62" y="-200.5" font-family="Helvetica,sans-Serif" font-size="10.00">zrtos_cbuffer__can</text>
<text text-anchor="middle" x="667.5" y="-188.5" font-family="Helvetica,sans-Serif" font-size="10.00">_read_length</text>
</a>
</g>
</g>
<!-- Node27&#45;&gt;Node28 -->
<g id="edge33_Node000027_Node000028" class="edge">
<title>Node27&#45;&gt;Node28</title>
<g id="a_edge33_Node000027_Node000028"><a xlink:title=" ">
<path fill="none" stroke="#63b8ff" d="M254.2,-227.12C325.89,-231.68 456.67,-236.71 567.25,-223 580.41,-221.37 594.32,-218.56 607.44,-215.41"/>
<polygon fill="#63b8ff" stroke="#63b8ff" points="607.93,-218.9 616.77,-213.06 606.22,-212.11 607.93,-218.9"/>
</a>
</g>
</g>
<!-- Node31 -->
<g id="Node000031" class="node">
<title>Node31</title>
<g id="a_Node000031"><a xlink:href="cbuffer_8h.html#af79ee923f715f4f8d2ea27b725501174" target="_top" xlink:title=" ">
<polygon fill="white" stroke="#666666" points="401.25,-214 290,-214 290,-194 401.25,-194 401.25,-214"/>
<text text-anchor="middle" x="345.62" y="-200.5" font-family="Helvetica,sans-Serif" font-size="10.00">zrtos_cbuffer__get_ex</text>
</a>
</g>
</g>
<!-- Node27&#45;&gt;Node31 -->
<g id="edge38_Node000027_Node000031" class="edge">
<title>Node27&#45;&gt;Node31</title>
<g id="a_edge38_Node000027_Node000031"><a xlink:title=" ">
<path fill="none" stroke="#63b8ff" d="M254.17,-215.93C262.2,-214.87 270.56,-213.76 278.81,-212.68"/>
<polygon fill="#63b8ff" stroke="#63b8ff" points="278.99,-216.18 288.45,-211.41 278.08,-209.24 278.99,-216.18"/>
</a>
</g>
</g>
<!-- Node36 -->
<g id="Node000036" class="node">
<title>Node36</title>
<g id="a_Node000036"><a xlink:href="clist_8h.html#aa49bd33d74422329134a7793b1284e80" target="_top" xlink:title=" ">
<polygon fill="white" stroke="#666666" points="399,-176 292.25,-176 292.25,-156 399,-156 399,-176"/>
<text text-anchor="middle" x="345.62" y="-162.5" font-family="Helvetica,sans-Serif" font-size="10.00">zrtos_clist__set_root</text>
</a>
</g>
</g>
<!-- Node27&#45;&gt;Node36 -->
<g id="edge46_Node000027_Node000036" class="edge">
<title>Node27&#45;&gt;Node36</title>
<g id="a_edge46_Node000027_Node000036"><a xlink:title=" ">
<path fill="none" stroke="#63b8ff" d="M237.72,-206.54C253.71,-199.64 272.68,-191.68 290,-185 294.1,-183.42 298.39,-181.82 302.69,-180.26"/>
<polygon fill="#63b8ff" stroke="#63b8ff" points="303.62,-183.65 311.87,-177 301.28,-177.05 303.62,-183.65"/>
</a>
</g>
</g>
<!-- Node37 -->
<g id="Node000037" class="node">
<title>Node37</title>
<g id="a_Node000037"><a xlink:href="clist_8h.html#aec8fbabbd0ff3c556e46b59eb872d43c" target="_top" xlink:title=" ">
<polygon fill="white" stroke="#666666" points="401.25,-138 290,-138 290,-106 401.25,-106 401.25,-138"/>
<text text-anchor="start" x="298" y="-124.5" font-family="Helvetica,sans-Serif" font-size="10.00">zrtos_clist_node__get</text>
<text text-anchor="middle" x="345.62" y="-112.5" font-family="Helvetica,sans-Serif" font-size="10.00">_next_node</text>
</a>
</g>
</g>
<!-- Node27&#45;&gt;Node37 -->
<g id="edge47_Node000027_Node000037" class="edge">
<title>Node27&#45;&gt;Node37</title>
<g id="a_edge47_Node000027_Node000037"><a xlink:title=" ">
<path fill="none" stroke="#63b8ff" d="M216.89,-206.65C234.05,-190.13 262.31,-164.62 290,-147 291.63,-145.96 293.32,-144.94 295.04,-143.94"/>
<polygon fill="#63b8ff" stroke="#63b8ff" points="296.67,-147.04 303.81,-139.2 293.35,-140.88 296.67,-147.04"/>
</a>
</g>
</g>
<!-- Node38 -->
<g id="Node000038" class="node">
<title>Node38</title>
<g id="a_Node000038"><a xlink:href="spi_2spi_8h.html#ad566b8f0d10d460dbfa130473b8c43bc" target="_top" xlink:title=" ">
<polygon fill="white" stroke="#666666" points="400.12,-88 291.12,-88 291.12,-56 400.12,-56 400.12,-88"/>
<text text-anchor="start" x="299.12" y="-74.5" font-family="Helvetica,sans-Serif" font-size="10.00">zrtos_vfs_module_spi</text>
<text text-anchor="middle" x="345.62" y="-62.5" font-family="Helvetica,sans-Serif" font-size="10.00">__set_high</text>
</a>
</g>
</g>
<!-- Node27&#45;&gt;Node38 -->
<g id="edge50_Node000027_Node000038" class="edge">
<title>Node27&#45;&gt;Node38</title>
<g id="a_edge50_Node000027_Node000038"><a xlink:title=" ">
<path fill="none" stroke="#63b8ff" d="M208.51,-206.6C222.05,-180.35 251.75,-128.64 290,-97 291.08,-96.1 292.21,-95.23 293.36,-94.38"/>
<polygon fill="#63b8ff" stroke="#63b8ff" points="294.9,-97.55 301.41,-89.19 291.11,-91.67 294.9,-97.55"/>
</a>
</g>
</g>
<!-- Node41 -->
<g id="Node000041" class="node">
<title>Node41</title>
<g id="a_Node000041"><a xlink:href="spi_2spi_8h.html#ae453b47cfb3e55b0858f190da897b52c" target="_top" xlink:title=" ">
<polygon fill="white" stroke="#666666" points="400.12,-38 291.12,-38 291.12,-6 400.12,-6 400.12,-38"/>
<text text-anchor="start" x="299.12" y="-24.5" font-family="Helvetica,sans-Serif" font-size="10.00">zrtos_vfs_module_spi</text>
<text text-anchor="middle" x="345.62" y="-12.5" font-family="Helvetica,sans-Serif" font-size="10.00">__set_low</text>
</a>
</g>
</g>
<!-- Node27&#45;&gt;Node41 -->
<g id="edge53_Node000027_Node000041" class="edge">
<title>Node27&#45;&gt;Node41</title>
<g id="a_edge53_Node000027_Node000041"><a xlink:title=" ">
<path fill="none" stroke="#63b8ff" d="M204.81,-206.71C214.54,-172.78 241.27,-93.76 290,-47 290.74,-46.29 291.51,-45.6 292.29,-44.92"/>
<polygon fill="#63b8ff" stroke="#63b8ff" points="294.11,-47.93 300.15,-39.22 290,-42.26 294.11,-47.93"/>
</a>
</g>
</g>
<!-- Node43 -->
<g id="Node000043" class="node">
<title>Node43</title>
<g id="a_Node000043"><a xlink:href="spi_2spi_8h.html#ad77e6ecb4213305b573cbf5a8989c1f1" target="_top" xlink:title=" ">
<polygon fill="white" stroke="#666666" points="400.12,-302 291.12,-302 291.12,-270 400.12,-270 400.12,-302"/>
<text text-anchor="start" x="299.12" y="-288.5" font-family="Helvetica,sans-Serif" font-size="10.00">zrtos_vfs_module_spi</text>
<text text-anchor="middle" x="345.62" y="-276.5" font-family="Helvetica,sans-Serif" font-size="10.00">__transfer_init</text>
</a>
</g>
</g>
<!-- Node27&#45;&gt;Node43 -->
<g id="edge55_Node000027_Node000043" class="edge">
<title>Node27&#45;&gt;Node43</title>
<g id="a_edge55_Node000027_Node000043"><a xlink:title=" ">
<path fill="none" stroke="#63b8ff" d="M237.99,-239.39C255.94,-247.23 277.63,-256.72 296.75,-265.07"/>
<polygon fill="#63b8ff" stroke="#63b8ff" points="295.12,-268.18 305.68,-268.98 297.92,-261.77 295.12,-268.18"/>
</a>
</g>
</g>
<!-- Node28&#45;&gt;Node22 -->
<g id="edge36_Node000028_Node000022" class="edge">
<title>Node28&#45;&gt;Node22</title>
<g id="a_edge36_Node000028_Node000022"><a xlink:title=" ">
<path fill="none" stroke="#63b8ff" d="M716.85,-214.07C722.09,-216.69 727.17,-219.66 731.75,-223 752.16,-237.9 747.47,-251.93 767.75,-267 769.08,-267.99 770.47,-268.95 771.88,-269.88"/>
<polygon fill="#63b8ff" stroke="#63b8ff" points="769.93,-272.8 780.33,-274.81 773.45,-266.75 769.93,-272.8"/>
</a>
</g>
</g>
<!-- Node29 -->
<g id="Node000029" class="node">
<title>Node29</title>
<g id="a_Node000029"><a xlink:href="cbuffer_8h.html#aefc6499f17723606801f954ac9c35be2" target="_top" xlink:title=" ">
<polygon fill="white" stroke="#666666" points="1036.75,-156 941.25,-156 941.25,-124 1036.75,-124 1036.75,-156"/>
<text text-anchor="start" x="949.25" y="-142.5" font-family="Helvetica,sans-Serif" font-size="10.00">zrtos_cbuffer__get</text>
<text text-anchor="middle" x="989" y="-130.5" font-family="Helvetica,sans-Serif" font-size="10.00">_first_node</text>
</a>
</g>
</g>
<!-- Node28&#45;&gt;Node29 -->
<g id="edge34_Node000028_Node000029" class="edge">
<title>Node28&#45;&gt;Node29</title>
<g id="a_edge34_Node000028_Node000029"><a xlink:title=" ">
<path fill="none" stroke="#63b8ff" d="M716.72,-197.93C762.08,-196.91 831.6,-192.89 890.25,-179 908.19,-174.75 927.17,-167.79 943.59,-160.92"/>
<polygon fill="#63b8ff" stroke="#63b8ff" points="944.78,-164.22 952.58,-157.05 942.01,-157.79 944.78,-164.22"/>
</a>
</g>
</g>
<!-- Node30 -->
<g id="Node000030" class="node">
<title>Node30</title>
<g id="a_Node000030"><a xlink:href="cbuffer_8h.html#aa70b33844c0b38a531615564dc35840e" target="_top" xlink:title=" ">
<polygon fill="white" stroke="#666666" points="877.88,-170 780.12,-170 780.12,-138 877.88,-138 877.88,-170"/>
<text text-anchor="start" x="788.12" y="-156.5" font-family="Helvetica,sans-Serif" font-size="10.00">zrtos_cbuffer_node</text>
<text text-anchor="middle" x="829" y="-144.5" font-family="Helvetica,sans-Serif" font-size="10.00">__is_empty</text>
</a>
</g>
</g>
<!-- Node28&#45;&gt;Node30 -->
<g id="edge37_Node000028_Node000030" class="edge">
<title>Node28&#45;&gt;Node30</title>
<g id="a_edge37_Node000028_Node000030"><a xlink:title=" ">
<path fill="none" stroke="#63b8ff" d="M716.79,-184.68C733.18,-180.16 751.69,-175.05 768.84,-170.32"/>
<polygon fill="#63b8ff" stroke="#63b8ff" points="769.71,-173.71 778.42,-167.68 767.85,-166.96 769.71,-173.71"/>
</a>
</g>
</g>
<!-- Node29&#45;&gt;Node18 -->
<g id="edge35_Node000029_Node000018" class="edge">
<title>Node29&#45;&gt;Node18</title>
<g id="a_edge35_Node000029_Node000018"><a xlink:title=" ">
<path fill="none" stroke="#63b8ff" d="M1037,-140.58C1090,-141.24 1176.87,-142.31 1239.05,-143.08"/>
<polygon fill="#63b8ff" stroke="#63b8ff" points="1238.8,-146.58 1248.85,-143.2 1238.89,-139.58 1238.8,-146.58"/>
</a>
</g>
</g>
<!-- Node32 -->
<g id="Node000032" class="node">
<title>Node32</title>
<g id="a_Node000032"><a xlink:href="cbuffer_8h.html#a1a9cc4256c634d99003e2397924df20a" target="_top" xlink:title=" ">
<polygon fill="white" stroke="#666666" points="550,-164 454.5,-164 454.5,-144 550,-144 550,-164"/>
<text text-anchor="middle" x="502.25" y="-150.5" font-family="Helvetica,sans-Serif" font-size="10.00">zrtos_cbuffer__get</text>
</a>
</g>
</g>
<!-- Node31&#45;&gt;Node32 -->
<g id="edge39_Node000031_Node000032" class="edge">
<title>Node31&#45;&gt;Node32</title>
<g id="a_edge39_Node000031_Node000032"><a xlink:title=" ">
<path fill="none" stroke="#63b8ff" d="M376.49,-193.64C398.22,-186.13 425.77,-176.67 437.25,-173 442.7,-171.26 448.43,-169.48 454.12,-167.75"/>
<polygon fill="#63b8ff" stroke="#63b8ff" points="454.94,-171.16 463.51,-164.93 452.92,-164.46 454.94,-171.16"/>
</a>
</g>
</g>
<!-- Node35 -->
<g id="Node000035" class="node">
<title>Node35</title>
<g id="a_Node000035"><a xlink:href="types_8h.html#adbc4238237e656eb247fd49ffbfb1a6d" target="_top" xlink:title=" ">
<polygon fill="white" stroke="#666666" points="556,-214 448.5,-214 448.5,-182 556,-182 556,-214"/>
<text text-anchor="start" x="456.5" y="-200.5" font-family="Helvetica,sans-Serif" font-size="10.00">zrtos_types__ptr_get</text>
<text text-anchor="middle" x="502.25" y="-188.5" font-family="Helvetica,sans-Serif" font-size="10.00">_byte_distance</text>
</a>
</g>
</g>
<!-- Node31&#45;&gt;Node35 -->
<g id="edge45_Node000031_Node000035" class="edge">
<title>Node31&#45;&gt;Node35</title>
<g id="a_edge45_Node000031_Node000035"><a xlink:title=" ">
<path fill="none" stroke="#63b8ff" d="M401.58,-201.87C412.9,-201.43 424.93,-200.96 436.57,-200.51"/>
<polygon fill="#63b8ff" stroke="#63b8ff" points="436.66,-204.01 446.52,-200.12 436.39,-197.01 436.66,-204.01"/>
</a>
</g>
</g>
<!-- Node32&#45;&gt;Node18 -->
<g id="edge44_Node000032_Node000018" class="edge">
<title>Node32&#45;&gt;Node18</title>
<g id="a_edge44_Node000032_Node000018"><a xlink:title=" ">
<path fill="none" stroke="#63b8ff" d="M523.92,-143.58C574.46,-119.11 708.85,-60 828,-60 828,-60 828,-60 990,-60 1098.67,-60 1221.48,-105.02 1279.48,-129.15"/>
<polygon fill="#63b8ff" stroke="#63b8ff" points="1277.9,-132.28 1288.47,-132.94 1280.62,-125.83 1277.9,-132.28"/>
</a>
</g>
</g>
<!-- Node33 -->
<g id="Node000033" class="node">
<title>Node33</title>
<g id="a_Node000033"><a xlink:href="cbuffer_8h.html#ad0932ffc31c7150402dc49c28cbf2000" target="_top" xlink:title=" ">
<polygon fill="white" stroke="#666666" points="728.38,-164 606.62,-164 606.62,-144 728.38,-144 728.38,-164"/>
<text text-anchor="middle" x="667.5" y="-150.5" font-family="Helvetica,sans-Serif" font-size="10.00">zrtos_cbuffer_node__get</text>
</a>
</g>
</g>
<!-- Node32&#45;&gt;Node33 -->
<g id="edge40_Node000032_Node000033" class="edge">
<title>Node32&#45;&gt;Node33</title>
<g id="a_edge40_Node000032_Node000033"><a xlink:title=" ">
<path fill="none" stroke="#63b8ff" d="M550.47,-154C564.35,-154 579.86,-154 594.9,-154"/>
<polygon fill="#63b8ff" stroke="#63b8ff" points="594.77,-157.5 604.77,-154 594.77,-150.5 594.77,-157.5"/>
</a>
</g>
</g>
<!-- Node33&#45;&gt;Node16 -->
<g id="edge41_Node000033_Node000016" class="edge">
<title>Node33&#45;&gt;Node16</title>
<g id="a_edge41_Node000033_Node000016"><a xlink:title=" ">
<path fill="none" stroke="#63b8ff" d="M710.42,-164.46C717.69,-166.87 725.06,-169.71 731.75,-173 756.69,-185.26 782.13,-203.81 800.58,-218.59"/>
<polygon fill="#63b8ff" stroke="#63b8ff" points="798.17,-221.14 808.13,-224.75 802.6,-215.71 798.17,-221.14"/>
</a>
</g>
</g>
<!-- Node33&#45;&gt;Node30 -->
<g id="edge42_Node000033_Node000030" class="edge">
<title>Node33&#45;&gt;Node30</title>
<g id="a_edge42_Node000033_Node000030"><a xlink:title=" ">
<path fill="none" stroke="#63b8ff" d="M728.8,-154C741.83,-154 755.6,-154 768.6,-154"/>
<polygon fill="#63b8ff" stroke="#63b8ff" points="768.27,-157.5 778.27,-154 768.27,-150.5 768.27,-157.5"/>
</a>
</g>
</g>
<!-- Node34 -->
<g id="Node000034" class="node">
<title>Node34</title>
<g id="a_Node000034"><a xlink:href="list_8h.html#a7262d2a0c144ef76b0f45193cebb8227" target="_top" xlink:title=" ">
<polygon fill="white" stroke="#666666" points="883.12,-120 774.88,-120 774.88,-88 883.12,-88 883.12,-120"/>
<text text-anchor="start" x="782.88" y="-106.5" font-family="Helvetica,sans-Serif" font-size="10.00">zrtos_list_node__has</text>
<text text-anchor="middle" x="829" y="-94.5" font-family="Helvetica,sans-Serif" font-size="10.00">_next_node</text>
</a>
</g>
</g>
<!-- Node33&#45;&gt;Node34 -->
<g id="edge43_Node000033_Node000034" class="edge">
<title>Node33&#45;&gt;Node34</title>
<g id="a_edge43_Node000033_Node000034"><a xlink:title=" ">
<path fill="none" stroke="#63b8ff" d="M701.94,-143.52C720.14,-137.81 743.28,-130.56 764.75,-123.83"/>
<polygon fill="#63b8ff" stroke="#63b8ff" points="765.52,-127.25 774.01,-120.92 763.42,-120.58 765.52,-127.25"/>
</a>
</g>
</g>
<!-- Node39 -->
<g id="Node000039" class="node">
<title>Node39</title>
<g id="a_Node000039"><a xlink:href="gpio_8h.html#adf182ae6089f6e514abe34869ea54fb0" target="_top" xlink:title=" ">
<polygon fill="white" stroke="#666666" points="556.38,-76 448.12,-76 448.12,-56 556.38,-56 556.38,-76"/>
<text text-anchor="middle" x="502.25" y="-62.5" font-family="Helvetica,sans-Serif" font-size="10.00">zrtos_gpio__set_high</text>
</a>
</g>
</g>
<!-- Node38&#45;&gt;Node39 -->
<g id="edge51_Node000038_Node000039" class="edge">
<title>Node38&#45;&gt;Node39</title>
<g id="a_edge51_Node000038_Node000039"><a xlink:title=" ">
<path fill="none" stroke="#63b8ff" d="M400.27,-69.92C411.91,-69.47 424.33,-68.98 436.34,-68.52"/>
<polygon fill="#63b8ff" stroke="#63b8ff" points="436.33,-72.02 446.19,-68.14 436.06,-65.03 436.33,-72.02"/>
</a>
</g>
</g>
<!-- Node40 -->
<g id="Node000040" class="node">
<title>Node40</title>
<g id="a_Node000040"><a xlink:href="gpio_8h.html#ab031db7c74dcac4dbc16bfa8f00c8414" target="_top" xlink:title=" ">
<polygon fill="white" stroke="#666666" points="716,-32 619,-32 619,0 716,0 716,-32"/>
<text text-anchor="start" x="627" y="-18.5" font-family="Helvetica,sans-Serif" font-size="10.00">zrtos_gpio__digital</text>
<text text-anchor="middle" x="667.5" y="-6.5" font-family="Helvetica,sans-Serif" font-size="10.00">_write</text>
</a>
</g>
</g>
<!-- Node39&#45;&gt;Node40 -->
<g id="edge52_Node000039_Node000040" class="edge">
<title>Node39&#45;&gt;Node40</title>
<g id="a_edge52_Node000039_Node000040"><a xlink:title=" ">
<path fill="none" stroke="#63b8ff" d="M537.47,-55.52C557.81,-49.29 584.16,-41.22 607.74,-34"/>
<polygon fill="#63b8ff" stroke="#63b8ff" points="608.72,-37.36 617.25,-31.08 606.67,-30.66 608.72,-37.36"/>
</a>
</g>
</g>
<!-- Node42 -->
<g id="Node000042" class="node">
<title>Node42</title>
<g id="a_Node000042"><a xlink:href="gpio_8h.html#a54c6a96e2e8cb2b5bd47e9863328d499" target="_top" xlink:title=" ">
<polygon fill="white" stroke="#666666" points="554.5,-32 450,-32 450,-12 554.5,-12 554.5,-32"/>
<text text-anchor="middle" x="502.25" y="-18.5" font-family="Helvetica,sans-Serif" font-size="10.00">zrtos_gpio__set_low</text>
</a>
</g>
</g>
<!-- Node41&#45;&gt;Node42 -->
<g id="edge54_Node000041_Node000042" class="edge">
<title>Node41&#45;&gt;Node42</title>
<g id="a_edge54_Node000041_Node000042"><a xlink:title=" ">
<path fill="none" stroke="#63b8ff" d="M400.27,-22C412.49,-22 425.59,-22 438.16,-22"/>
<polygon fill="#63b8ff" stroke="#63b8ff" points="438.01,-25.5 448.01,-22 438.01,-18.5 438.01,-25.5"/>
</a>
</g>
</g>
<!-- Node44 -->
<g id="Node000044" class="node">
<title>Node44</title>
<g id="a_Node000044"><a xlink:href="gpio_8h.html#a09265f640ff70e6c6a30db445b052069" target="_top" xlink:title=" ">
<polygon fill="white" stroke="#666666" points="567.25,-299 437.25,-299 437.25,-279 567.25,-279 567.25,-299"/>
<text text-anchor="middle" x="502.25" y="-285.5" font-family="Helvetica,sans-Serif" font-size="10.00">zrtos_gpio__set_mode_ex</text>
</a>
</g>
</g>
<!-- Node43&#45;&gt;Node44 -->
<g id="edge56_Node000043_Node000044" class="edge">
<title>Node43&#45;&gt;Node44</title>
<g id="a_edge56_Node000043_Node000044"><a xlink:title=" ">
<path fill="none" stroke="#63b8ff" d="M400.27,-287.04C408.37,-287.2 416.85,-287.36 425.3,-287.53"/>
<polygon fill="#63b8ff" stroke="#63b8ff" points="425.2,-291.03 435.27,-287.72 425.34,-284.03 425.2,-291.03"/>
</a>
</g>
</g>
<!-- Node45 -->
<g id="Node000045" class="node">
<title>Node45</title>
<g id="a_Node000045"><a xlink:href="gpio_8h.html#af2a9eeeb5290c0a90ebe5ebceefb8ccd" target="_top" xlink:title=" ">
<polygon fill="white" stroke="#666666" points="731.75,-302 603.25,-302 603.25,-282 731.75,-282 731.75,-302"/>
<text text-anchor="middle" x="667.5" y="-288.5" font-family="Helvetica,sans-Serif" font-size="10.00">zrtos_gpio__set_mode_va</text>
</a>
</g>
</g>
<!-- Node44&#45;&gt;Node45 -->
<g id="edge57_Node000044_Node000045" class="edge">
<title>Node44&#45;&gt;Node45</title>
<g id="a_edge57_Node000044_Node000045"><a xlink:title=" ">
<path fill="none" stroke="#63b8ff" d="M567.3,-290.18C575.26,-290.32 583.44,-290.47 591.54,-290.62"/>
<polygon fill="#63b8ff" stroke="#63b8ff" points="591.32,-294.12 601.39,-290.8 591.45,-287.12 591.32,-294.12"/>
</a>
</g>
</g>
<!-- Node45&#45;&gt;Node26 -->
<g id="edge58_Node000045_Node000026" class="edge">
<title>Node45&#45;&gt;Node26</title>
<g id="a_edge58_Node000045_Node000026"><a xlink:title=" ">
<path fill="none" stroke="#63b8ff" d="M711.9,-302.38C719.27,-305.74 726.29,-310.17 731.75,-316 769.21,-356.04 729.16,-395.05 767.75,-434 768.49,-434.75 769.27,-435.47 770.06,-436.16"/>
<polygon fill="#63b8ff" stroke="#63b8ff" points="767.97,-438.97 778.21,-441.69 771.9,-433.18 767.97,-438.97"/>
</a>
</g>
</g>
<!-- Node46 -->
<g id="Node000046" class="node">
<title>Node46</title>
<g id="a_Node000046"><a xlink:href="gpio_8h.html#a256ab7a19b884f6960ccbbc56c1e6cf8" target="_top" xlink:title=" ">
<polygon fill="white" stroke="#666666" points="886.12,-346 771.88,-346 771.88,-326 886.12,-326 886.12,-346"/>
<text text-anchor="middle" x="829" y="-332.5" font-family="Helvetica,sans-Serif" font-size="10.00">zrtos_gpio__set_mode</text>
</a>
</g>
</g>
<!-- Node45&#45;&gt;Node46 -->
<g id="edge59_Node000045_Node000046" class="edge">
<title>Node45&#45;&gt;Node46</title>
<g id="a_edge59_Node000045_Node000046"><a xlink:title=" ">
<path fill="none" stroke="#63b8ff" d="M706.3,-302.43C728.17,-308.46 755.92,-316.12 779.4,-322.59"/>
<polygon fill="#63b8ff" stroke="#63b8ff" points="778.17,-325.88 788.74,-325.17 780.03,-319.14 778.17,-325.88"/>
</a>
</g>
</g>
</g>
</svg>
