<?xml version="1.0" encoding="UTF-8" standalone="no"?>
<!DOCTYPE svg PUBLIC "-//W3C//DTD SVG 1.1//EN"
 "http://www.w3.org/Graphics/SVG/1.1/DTD/svg11.dtd">
<!-- Generated by graphviz version 10.0.1 (20240210.2158)
 -->
<!-- Title: zrtos_vfs_module_spi_file__init Pages: 1 -->
<svg width="863pt" height="104pt"
 viewBox="0.00 0.00 863.00 104.00" xmlns="http://www.w3.org/2000/svg" xmlns:xlink="http://www.w3.org/1999/xlink">
<g id="graph0" class="graph" transform="scale(1 1) rotate(0) translate(4 100)">
<title>zrtos_vfs_module_spi_file__init</title>
<!-- Node1 -->
<g id="Node000001" class="node">
<title>Node1</title>
<g id="a_Node000001"><a xlink:title=" ">
<polygon fill="#999999" stroke="#666666" points="109,-45 0,-45 0,-13 109,-13 109,-45"/>
<text text-anchor="start" x="8" y="-31.5" font-family="Helvetica,sans-Serif" font-size="10.00">zrtos_vfs_module_spi</text>
<text text-anchor="middle" x="54.5" y="-19.5" font-family="Helvetica,sans-Serif" font-size="10.00">_file__init</text>
</a>
</g>
</g>
<!-- Node2 -->
<g id="Node000002" class="node">
<title>Node2</title>
<g id="a_Node000002"><a xlink:href="cbuffer_8h.html#a6a1ffb32acbece23be59f84aa29cf306" target="_top" xlink:title=" ">
<polygon fill="white" stroke="#666666" points="247.62,-58 152.88,-58 152.88,-38 247.62,-38 247.62,-58"/>
<text text-anchor="middle" x="200.25" y="-44.5" font-family="Helvetica,sans-Serif" font-size="10.00">zrtos_cbuffer__init</text>
</a>
</g>
</g>
<!-- Node1&#45;&gt;Node2 -->
<g id="edge1_Node000001_Node000002" class="edge">
<title>Node1&#45;&gt;Node2</title>
<g id="a_edge1_Node000001_Node000002"><a xlink:title=" ">
<path fill="none" stroke="#63b8ff" d="M109.44,-36.13C119.85,-37.51 130.8,-38.95 141.34,-40.35"/>
<polygon fill="#63b8ff" stroke="#63b8ff" points="140.69,-43.79 151.06,-41.63 141.6,-36.85 140.69,-43.79"/>
</a>
</g>
</g>
<!-- Node9 -->
<g id="Node000009" class="node">
<title>Node9</title>
<g id="a_Node000009"><a xlink:href="clist_8h.html#a26b8f9c0c172cd6d9deba237155bf40a" target="_top" xlink:title=" ">
<polygon fill="white" stroke="#666666" points="255.5,-20 145,-20 145,0 255.5,0 255.5,-20"/>
<text text-anchor="middle" x="200.25" y="-6.5" font-family="Helvetica,sans-Serif" font-size="10.00">zrtos_clist_node__init</text>
</a>
</g>
</g>
<!-- Node1&#45;&gt;Node9 -->
<g id="edge8_Node000001_Node000009" class="edge">
<title>Node1&#45;&gt;Node9</title>
<g id="a_edge8_Node000001_Node000009"><a xlink:title=" ">
<path fill="none" stroke="#63b8ff" d="M109.44,-21.87C117.23,-20.84 125.33,-19.77 133.33,-18.71"/>
<polygon fill="#63b8ff" stroke="#63b8ff" points="133.58,-22.21 143.03,-17.43 132.66,-15.27 133.58,-22.21"/>
</a>
</g>
</g>
<!-- Node3 -->
<g id="Node000003" class="node">
<title>Node3</title>
<g id="a_Node000003"><a xlink:href="cbuffer_8h.html#a1749e471b67565254c5dc85e0cb728a1" target="_top" xlink:title=" ">
<polygon fill="white" stroke="#666666" points="417,-77 291.5,-77 291.5,-57 417,-57 417,-77"/>
<text text-anchor="middle" x="354.25" y="-63.5" font-family="Helvetica,sans-Serif" font-size="10.00">zrtos_cbuffer_node__new</text>
</a>
</g>
</g>
<!-- Node2&#45;&gt;Node3 -->
<g id="edge2_Node000002_Node000003" class="edge">
<title>Node2&#45;&gt;Node3</title>
<g id="a_edge2_Node000002_Node000003"><a xlink:title=" ">
<path fill="none" stroke="#63b8ff" d="M248.1,-53.86C258.19,-55.12 269.1,-56.48 279.94,-57.84"/>
<polygon fill="#63b8ff" stroke="#63b8ff" points="279.31,-61.28 289.67,-59.05 280.18,-54.34 279.31,-61.28"/>
</a>
</g>
</g>
<!-- Node8 -->
<g id="Node000008" class="node">
<title>Node8</title>
<g id="a_Node000008"><a xlink:href="list_8h.html#a2da91c03abf243dc0485a6027e970605" target="_top" xlink:title=" ">
<polygon fill="white" stroke="#666666" points="393.75,-39 314.75,-39 314.75,-19 393.75,-19 393.75,-39"/>
<text text-anchor="middle" x="354.25" y="-25.5" font-family="Helvetica,sans-Serif" font-size="10.00">zrtos_list__init</text>
</a>
</g>
</g>
<!-- Node2&#45;&gt;Node8 -->
<g id="edge7_Node000002_Node000008" class="edge">
<title>Node2&#45;&gt;Node8</title>
<g id="a_edge7_Node000002_Node000008"><a xlink:title=" ">
<path fill="none" stroke="#63b8ff" d="M248.1,-42.14C265.55,-39.96 285.43,-37.48 303.17,-35.26"/>
<polygon fill="#63b8ff" stroke="#63b8ff" points="303.48,-38.75 312.97,-34.03 302.61,-31.8 303.48,-38.75"/>
</a>
</g>
</g>
<!-- Node4 -->
<g id="Node000004" class="node">
<title>Node4</title>
<g id="a_Node000004"><a xlink:href="cbuffer_8h.html#aeb332726de06c905eb2db32ae3d323eb" target="_top" xlink:title=" ">
<polygon fill="white" stroke="#666666" points="550.75,-83 453,-83 453,-51 550.75,-51 550.75,-83"/>
<text text-anchor="start" x="461" y="-69.5" font-family="Helvetica,sans-Serif" font-size="10.00">zrtos_cbuffer_node</text>
<text text-anchor="middle" x="501.88" y="-57.5" font-family="Helvetica,sans-Serif" font-size="10.00">__init</text>
</a>
</g>
</g>
<!-- Node3&#45;&gt;Node4 -->
<g id="edge3_Node000003_Node000004" class="edge">
<title>Node3&#45;&gt;Node4</title>
<g id="a_edge3_Node000003_Node000004"><a xlink:title=" ">
<path fill="none" stroke="#63b8ff" d="M417.43,-67C425.33,-67 433.39,-67 441.24,-67"/>
<polygon fill="#63b8ff" stroke="#63b8ff" points="441.04,-70.5 451.04,-67 441.04,-63.5 441.04,-70.5"/>
</a>
</g>
</g>
<!-- Node5 -->
<g id="Node000005" class="node">
<title>Node5</title>
<g id="a_Node000005"><a xlink:href="list_8h.html#aa734984fb49603438b179f49fff38477" target="_top" xlink:title=" ">
<polygon fill="white" stroke="#666666" points="683,-96 595.75,-96 595.75,-76 683,-76 683,-96"/>
<text text-anchor="middle" x="639.38" y="-82.5" font-family="Helvetica,sans-Serif" font-size="10.00">zrtos_list__push</text>
</a>
</g>
</g>
<!-- Node4&#45;&gt;Node5 -->
<g id="edge4_Node000004_Node000005" class="edge">
<title>Node4&#45;&gt;Node5</title>
<g id="a_edge4_Node000004_Node000005"><a xlink:title=" ">
<path fill="none" stroke="#63b8ff" d="M551.03,-73.75C561.76,-75.26 573.2,-76.86 584.15,-78.4"/>
<polygon fill="#63b8ff" stroke="#63b8ff" points="583.45,-81.83 593.84,-79.75 584.42,-74.9 583.45,-81.83"/>
</a>
</g>
</g>
<!-- Node7 -->
<g id="Node000007" class="node">
<title>Node7</title>
<g id="a_Node000007"><a xlink:href="list_8h.html#a40feeb4cd0cc4e30201a279240b52429" target="_top" xlink:title=" ">
<polygon fill="white" stroke="#666666" points="692,-58 586.75,-58 586.75,-38 692,-38 692,-58"/>
<text text-anchor="middle" x="639.38" y="-44.5" font-family="Helvetica,sans-Serif" font-size="10.00">zrtos_list_node__init</text>
</a>
</g>
</g>
<!-- Node4&#45;&gt;Node7 -->
<g id="edge6_Node000004_Node000007" class="edge">
<title>Node4&#45;&gt;Node7</title>
<g id="a_edge6_Node000004_Node000007"><a xlink:title=" ">
<path fill="none" stroke="#63b8ff" d="M551.03,-60.25C558.98,-59.13 567.32,-57.96 575.57,-56.81"/>
<polygon fill="#63b8ff" stroke="#63b8ff" points="575.79,-60.31 585.2,-55.46 574.81,-53.38 575.79,-60.31"/>
</a>
</g>
</g>
<!-- Node6 -->
<g id="Node000006" class="node">
<title>Node6</title>
<g id="a_Node000006"><a xlink:href="list_8h.html#aa2f26b2b6fd722b708eb7e25cc264a90" target="_top" xlink:title=" ">
<polygon fill="white" stroke="#666666" points="855,-96 728,-96 728,-76 855,-76 855,-96"/>
<text text-anchor="middle" x="791.5" y="-82.5" font-family="Helvetica,sans-Serif" font-size="10.00">zrtos_list__get_last_node</text>
</a>
</g>
</g>
<!-- Node5&#45;&gt;Node6 -->
<g id="edge5_Node000005_Node000006" class="edge">
<title>Node5&#45;&gt;Node6</title>
<g id="a_edge5_Node000005_Node000006"><a xlink:title=" ">
<path fill="none" stroke="#63b8ff" d="M683.39,-86C693.73,-86 705.06,-86 716.36,-86"/>
<polygon fill="#63b8ff" stroke="#63b8ff" points="716.1,-89.5 726.1,-86 716.1,-82.5 716.1,-89.5"/>
</a>
</g>
</g>
</g>
</svg>
