<?xml version="1.0" encoding="UTF-8" standalone="no"?>
<!DOCTYPE svg PUBLIC "-//W3C//DTD SVG 1.1//EN"
 "http://www.w3.org/Graphics/SVG/1.1/DTD/svg11.dtd">
<!-- Generated by graphviz version 10.0.1 (20240210.2158)
 -->
<!-- Title: zrtos_vfs_module_spi__on_write Pages: 1 -->
<svg width="1194pt" height="123pt"
 viewBox="0.00 0.00 1193.50 123.00" xmlns="http://www.w3.org/2000/svg" xmlns:xlink="http://www.w3.org/1999/xlink">
<g id="graph0" class="graph" transform="scale(1 1) rotate(0) translate(4 119)">
<title>zrtos_vfs_module_spi__on_write</title>
<!-- Node1 -->
<g id="Node000001" class="node">
<title>Node1</title>
<g id="a_Node000001"><a xlink:title=" ">
<polygon fill="#999999" stroke="#666666" points="109,-45 0,-45 0,-13 109,-13 109,-45"/>
<text text-anchor="start" x="8" y="-31.5" font-family="Helvetica,sans-Serif" font-size="10.00">zrtos_vfs_module_spi</text>
<text text-anchor="middle" x="54.5" y="-19.5" font-family="Helvetica,sans-Serif" font-size="10.00">__on_write</text>
</a>
</g>
</g>
<!-- Node2 -->
<g id="Node000002" class="node">
<title>Node2</title>
<g id="a_Node000002"><a xlink:href="cbuffer_8h.html#a5d269503e04946737598d2062c5bfaf4" target="_top" xlink:title=" ">
<polygon fill="white" stroke="#666666" points="260.38,-58 149.12,-58 149.12,-38 260.38,-38 260.38,-58"/>
<text text-anchor="middle" x="204.75" y="-44.5" font-family="Helvetica,sans-Serif" font-size="10.00">zrtos_cbuffer__put_ex</text>
</a>
</g>
</g>
<!-- Node1&#45;&gt;Node2 -->
<g id="edge1_Node000001_Node000002" class="edge">
<title>Node1&#45;&gt;Node2</title>
<g id="a_edge1_Node000001_Node000002"><a xlink:title=" ">
<path fill="none" stroke="#63b8ff" d="M109.44,-35.91C118.62,-37.09 128.25,-38.32 137.7,-39.54"/>
<polygon fill="#63b8ff" stroke="#63b8ff" points="137.24,-43 147.6,-40.8 138.13,-36.06 137.24,-43"/>
</a>
</g>
</g>
<!-- Node12 -->
<g id="Node000012" class="node">
<title>Node12</title>
<g id="a_Node000012"><a xlink:href="vfs__file_8h.html#a54d958c5b0506ceeba5e57caf04631b5" target="_top" xlink:title=" ">
<polygon fill="white" stroke="#666666" points="264.5,-20 145,-20 145,0 264.5,0 264.5,-20"/>
<text text-anchor="middle" x="204.75" y="-6.5" font-family="Helvetica,sans-Serif" font-size="10.00">zrtos_vfs_file__get_data</text>
</a>
</g>
</g>
<!-- Node1&#45;&gt;Node12 -->
<g id="edge12_Node000001_Node000012" class="edge">
<title>Node1&#45;&gt;Node12</title>
<g id="a_edge12_Node000001_Node000012"><a xlink:title=" ">
<path fill="none" stroke="#63b8ff" d="M109.44,-22.09C117.21,-21.09 125.29,-20.06 133.32,-19.03"/>
<polygon fill="#63b8ff" stroke="#63b8ff" points="133.61,-22.52 143.09,-17.77 132.73,-15.57 133.61,-22.52"/>
</a>
</g>
</g>
<!-- Node3 -->
<g id="Node000003" class="node">
<title>Node3</title>
<g id="a_Node000003"><a xlink:href="cbuffer_8h.html#afdb6a6176387d77a0f10e28536ba28f9" target="_top" xlink:title=" ">
<polygon fill="white" stroke="#666666" points="409.5,-77 314,-77 314,-57 409.5,-57 409.5,-77"/>
<text text-anchor="middle" x="361.75" y="-63.5" font-family="Helvetica,sans-Serif" font-size="10.00">zrtos_cbuffer__put</text>
</a>
</g>
</g>
<!-- Node2&#45;&gt;Node3 -->
<g id="edge2_Node000002_Node000003" class="edge">
<title>Node2&#45;&gt;Node3</title>
<g id="a_edge2_Node000002_Node000003"><a xlink:title=" ">
<path fill="none" stroke="#63b8ff" d="M260.83,-54.75C274.29,-56.4 288.74,-58.17 302.35,-59.84"/>
<polygon fill="#63b8ff" stroke="#63b8ff" points="301.69,-63.29 312.04,-61.03 302.54,-56.34 301.69,-63.29"/>
</a>
</g>
</g>
<!-- Node11 -->
<g id="Node000011" class="node">
<title>Node11</title>
<g id="a_Node000011"><a xlink:href="error_8h.html#add13298163f63b7d37ed9f12d57e1a31" target="_top" xlink:title=" ">
<polygon fill="white" stroke="#666666" points="423,-39 300.5,-39 300.5,-19 423,-19 423,-39"/>
<text text-anchor="middle" x="361.75" y="-25.5" font-family="Helvetica,sans-Serif" font-size="10.00">zrtos_error__is_success</text>
</a>
</g>
</g>
<!-- Node2&#45;&gt;Node11 -->
<g id="edge11_Node000002_Node000011" class="edge">
<title>Node2&#45;&gt;Node11</title>
<g id="a_edge11_Node000002_Node000011"><a xlink:title=" ">
<path fill="none" stroke="#63b8ff" d="M260.83,-41.25C269.87,-40.14 279.34,-38.98 288.71,-37.83"/>
<polygon fill="#63b8ff" stroke="#63b8ff" points="289.05,-41.32 298.55,-36.62 288.2,-34.37 289.05,-41.32"/>
</a>
</g>
</g>
<!-- Node4 -->
<g id="Node000004" class="node">
<title>Node4</title>
<g id="a_Node000004"><a xlink:href="cbuffer_8h.html#a1846e554cfe5e72cc8df6b60ab5c6d84" target="_top" xlink:title=" ">
<polygon fill="white" stroke="#666666" points="583.38,-96 461.62,-96 461.62,-76 583.38,-76 583.38,-96"/>
<text text-anchor="middle" x="522.5" y="-82.5" font-family="Helvetica,sans-Serif" font-size="10.00">zrtos_cbuffer_node__put</text>
</a>
</g>
</g>
<!-- Node3&#45;&gt;Node4 -->
<g id="edge3_Node000003_Node000004" class="edge">
<title>Node3&#45;&gt;Node4</title>
<g id="a_edge3_Node000003_Node000004"><a xlink:title=" ">
<path fill="none" stroke="#63b8ff" d="M409.95,-72.65C422.52,-74.15 436.38,-75.81 449.94,-77.43"/>
<polygon fill="#63b8ff" stroke="#63b8ff" points="449.37,-80.89 459.71,-78.6 450.2,-73.94 449.37,-80.89"/>
</a>
</g>
</g>
<!-- Node10 -->
<g id="Node000010" class="node">
<title>Node10</title>
<g id="a_Node000010"><a xlink:href="list_8h.html#a0039f0f08299038ab1a71e271a43a086" target="_top" xlink:title=" ">
<polygon fill="white" stroke="#666666" points="586,-58 459,-58 459,-38 586,-38 586,-58"/>
<text text-anchor="middle" x="522.5" y="-44.5" font-family="Helvetica,sans-Serif" font-size="10.00">zrtos_list__get_first_node</text>
</a>
</g>
</g>
<!-- Node3&#45;&gt;Node10 -->
<g id="edge10_Node000003_Node000010" class="edge">
<title>Node3&#45;&gt;Node10</title>
<g id="a_edge10_Node000003_Node000010"><a xlink:title=" ">
<path fill="none" stroke="#63b8ff" d="M409.95,-61.35C421.76,-59.94 434.7,-58.39 447.47,-56.86"/>
<polygon fill="#63b8ff" stroke="#63b8ff" points="447.59,-60.37 457.1,-55.71 446.75,-53.42 447.59,-60.37"/>
</a>
</g>
</g>
<!-- Node4&#45;&gt;Node4 -->
<g id="edge9_Node000004_Node000004" class="edge">
<title>Node4&#45;&gt;Node4</title>
<g id="a_edge9_Node000004_Node000004"><a xlink:title=" ">
<path fill="none" stroke="#63b8ff" d="M496.96,-96.34C486.04,-104.98 494.56,-114 522.5,-114 537.78,-114 547.25,-111.3 550.91,-107.44"/>
<polygon fill="#63b8ff" stroke="#63b8ff" points="554.31,-106.61 548.42,-97.8 547.53,-108.36 554.31,-106.61"/>
</a>
</g>
</g>
<!-- Node5 -->
<g id="Node000005" class="node">
<title>Node5</title>
<g id="a_Node000005"><a xlink:href="cbuffer_8h.html#a1749e471b67565254c5dc85e0cb728a1" target="_top" xlink:title=" ">
<polygon fill="white" stroke="#666666" points="747.5,-96 622,-96 622,-76 747.5,-76 747.5,-96"/>
<text text-anchor="middle" x="684.75" y="-82.5" font-family="Helvetica,sans-Serif" font-size="10.00">zrtos_cbuffer_node__new</text>
</a>
</g>
</g>
<!-- Node4&#45;&gt;Node5 -->
<g id="edge4_Node000004_Node000005" class="edge">
<title>Node4&#45;&gt;Node5</title>
<g id="a_edge4_Node000004_Node000005"><a xlink:title=" ">
<path fill="none" stroke="#63b8ff" d="M583.63,-86C592.37,-86 601.45,-86 610.42,-86"/>
<polygon fill="#63b8ff" stroke="#63b8ff" points="610.17,-89.5 620.17,-86 610.17,-82.5 610.17,-89.5"/>
</a>
</g>
</g>
<!-- Node6 -->
<g id="Node000006" class="node">
<title>Node6</title>
<g id="a_Node000006"><a xlink:href="cbuffer_8h.html#aeb332726de06c905eb2db32ae3d323eb" target="_top" xlink:title=" ">
<polygon fill="white" stroke="#666666" points="881.25,-102 783.5,-102 783.5,-70 881.25,-70 881.25,-102"/>
<text text-anchor="start" x="791.5" y="-88.5" font-family="Helvetica,sans-Serif" font-size="10.00">zrtos_cbuffer_node</text>
<text text-anchor="middle" x="832.38" y="-76.5" font-family="Helvetica,sans-Serif" font-size="10.00">__init</text>
</a>
</g>
</g>
<!-- Node5&#45;&gt;Node6 -->
<g id="edge5_Node000005_Node000006" class="edge">
<title>Node5&#45;&gt;Node6</title>
<g id="a_edge5_Node000005_Node000006"><a xlink:title=" ">
<path fill="none" stroke="#63b8ff" d="M747.93,-86C755.83,-86 763.89,-86 771.74,-86"/>
<polygon fill="#63b8ff" stroke="#63b8ff" points="771.54,-89.5 781.54,-86 771.54,-82.5 771.54,-89.5"/>
</a>
</g>
</g>
<!-- Node7 -->
<g id="Node000007" class="node">
<title>Node7</title>
<g id="a_Node000007"><a xlink:href="list_8h.html#aa734984fb49603438b179f49fff38477" target="_top" xlink:title=" ">
<polygon fill="white" stroke="#666666" points="1013.5,-115 926.25,-115 926.25,-95 1013.5,-95 1013.5,-115"/>
<text text-anchor="middle" x="969.88" y="-101.5" font-family="Helvetica,sans-Serif" font-size="10.00">zrtos_list__push</text>
</a>
</g>
</g>
<!-- Node6&#45;&gt;Node7 -->
<g id="edge6_Node000006_Node000007" class="edge">
<title>Node6&#45;&gt;Node7</title>
<g id="a_edge6_Node000006_Node000007"><a xlink:title=" ">
<path fill="none" stroke="#63b8ff" d="M881.53,-92.75C892.26,-94.26 903.7,-95.86 914.65,-97.4"/>
<polygon fill="#63b8ff" stroke="#63b8ff" points="913.95,-100.83 924.34,-98.75 914.92,-93.9 913.95,-100.83"/>
</a>
</g>
</g>
<!-- Node9 -->
<g id="Node000009" class="node">
<title>Node9</title>
<g id="a_Node000009"><a xlink:href="list_8h.html#a40feeb4cd0cc4e30201a279240b52429" target="_top" xlink:title=" ">
<polygon fill="white" stroke="#666666" points="1022.5,-77 917.25,-77 917.25,-57 1022.5,-57 1022.5,-77"/>
<text text-anchor="middle" x="969.88" y="-63.5" font-family="Helvetica,sans-Serif" font-size="10.00">zrtos_list_node__init</text>
</a>
</g>
</g>
<!-- Node6&#45;&gt;Node9 -->
<g id="edge8_Node000006_Node000009" class="edge">
<title>Node6&#45;&gt;Node9</title>
<g id="a_edge8_Node000006_Node000009"><a xlink:title=" ">
<path fill="none" stroke="#63b8ff" d="M881.53,-79.25C889.48,-78.13 897.82,-76.96 906.07,-75.81"/>
<polygon fill="#63b8ff" stroke="#63b8ff" points="906.29,-79.31 915.7,-74.46 905.31,-72.38 906.29,-79.31"/>
</a>
</g>
</g>
<!-- Node8 -->
<g id="Node000008" class="node">
<title>Node8</title>
<g id="a_Node000008"><a xlink:href="list_8h.html#aa2f26b2b6fd722b708eb7e25cc264a90" target="_top" xlink:title=" ">
<polygon fill="white" stroke="#666666" points="1185.5,-115 1058.5,-115 1058.5,-95 1185.5,-95 1185.5,-115"/>
<text text-anchor="middle" x="1122" y="-101.5" font-family="Helvetica,sans-Serif" font-size="10.00">zrtos_list__get_last_node</text>
</a>
</g>
</g>
<!-- Node7&#45;&gt;Node8 -->
<g id="edge7_Node000007_Node000008" class="edge">
<title>Node7&#45;&gt;Node8</title>
<g id="a_edge7_Node000007_Node000008"><a xlink:title=" ">
<path fill="none" stroke="#63b8ff" d="M1013.89,-105C1024.23,-105 1035.56,-105 1046.86,-105"/>
<polygon fill="#63b8ff" stroke="#63b8ff" points="1046.6,-108.5 1056.6,-105 1046.6,-101.5 1046.6,-108.5"/>
</a>
</g>
</g>
</g>
</svg>
