<?xml version="1.0" encoding="UTF-8" standalone="no"?>
<!DOCTYPE svg PUBLIC "-//W3C//DTD SVG 1.1//EN"
 "http://www.w3.org/Graphics/SVG/1.1/DTD/svg11.dtd">
<!-- Generated by graphviz version 10.0.1 (20240210.2158)
 -->
<!-- Title: zrtos_vfs_module_spi_file__init Pages: 1 -->
<svg width="1046pt" height="307pt"
 viewBox="0.00 0.00 1046.25 307.00" xmlns="http://www.w3.org/2000/svg" xmlns:xlink="http://www.w3.org/1999/xlink">
<g id="graph0" class="graph" transform="scale(1 1) rotate(0) translate(4 303)">
<title>zrtos_vfs_module_spi_file__init</title>
<!-- Node1 -->
<g id="Node000001" class="node">
<title>Node1</title>
<g id="a_Node000001"><a xlink:title=" ">
<polygon fill="#999999" stroke="#666666" points="109,-95 0,-95 0,-63 109,-63 109,-95"/>
<text text-anchor="start" x="8" y="-81.5" font-family="Helvetica,sans-Serif" font-size="10.00">zrtos_vfs_module_spi</text>
<text text-anchor="middle" x="54.5" y="-69.5" font-family="Helvetica,sans-Serif" font-size="10.00">_file__init</text>
</a>
</g>
</g>
<!-- Node2 -->
<g id="Node000002" class="node">
<title>Node2</title>
<g id="a_Node000002"><a xlink:href="cbuffer_8h.html#ac432ff17b01aedab263746e01d2df060" target="_top" xlink:title=" ">
<polygon fill="white" stroke="#666666" points="252.88,-208 147.62,-208 147.62,-188 252.88,-188 252.88,-208"/>
<text text-anchor="middle" x="200.25" y="-194.5" font-family="Helvetica,sans-Serif" font-size="10.00">zrtos_cbuffer__deinit</text>
</a>
</g>
</g>
<!-- Node1&#45;&gt;Node2 -->
<g id="edge1_Node000001_Node000002" class="edge">
<title>Node1&#45;&gt;Node2</title>
<g id="a_edge1_Node000001_Node000002"><a xlink:title=" ">
<path fill="none" stroke="#63b8ff" d="M75.19,-95.3C102.13,-117.6 150.3,-157.48 178.02,-180.43"/>
<polygon fill="#63b8ff" stroke="#63b8ff" points="175.48,-182.87 185.42,-186.55 179.95,-177.48 175.48,-182.87"/>
</a>
</g>
</g>
<!-- Node12 -->
<g id="Node000012" class="node">
<title>Node12</title>
<g id="a_Node000012"><a xlink:href="cbuffer_8h.html#a6a1ffb32acbece23be59f84aa29cf306" target="_top" xlink:title=" ">
<polygon fill="white" stroke="#666666" points="247.62,-108 152.88,-108 152.88,-88 247.62,-88 247.62,-108"/>
<text text-anchor="middle" x="200.25" y="-94.5" font-family="Helvetica,sans-Serif" font-size="10.00">zrtos_cbuffer__init</text>
</a>
</g>
</g>
<!-- Node1&#45;&gt;Node12 -->
<g id="edge14_Node000001_Node000012" class="edge">
<title>Node1&#45;&gt;Node12</title>
<g id="a_edge14_Node000001_Node000012"><a xlink:title=" ">
<path fill="none" stroke="#63b8ff" d="M109.44,-86.13C119.85,-87.51 130.8,-88.95 141.34,-90.35"/>
<polygon fill="#63b8ff" stroke="#63b8ff" points="140.69,-93.79 151.06,-91.63 141.6,-86.85 140.69,-93.79"/>
</a>
</g>
</g>
<!-- Node20 -->
<g id="Node000020" class="node">
<title>Node20</title>
<g id="a_Node000020"><a xlink:href="clist_8h.html#a853d4178de18748d3bee28700929bda4" target="_top" xlink:title=" ">
<polygon fill="white" stroke="#666666" points="246.5,-70 154,-70 154,-50 246.5,-50 246.5,-70"/>
<text text-anchor="middle" x="200.25" y="-56.5" font-family="Helvetica,sans-Serif" font-size="10.00">zrtos_clist__push</text>
</a>
</g>
</g>
<!-- Node1&#45;&gt;Node20 -->
<g id="edge22_Node000001_Node000020" class="edge">
<title>Node1&#45;&gt;Node20</title>
<g id="a_edge22_Node000001_Node000020"><a xlink:title=" ">
<path fill="none" stroke="#63b8ff" d="M109.44,-71.87C120.32,-70.43 131.78,-68.92 142.75,-67.47"/>
<polygon fill="#63b8ff" stroke="#63b8ff" points="142.99,-70.97 152.44,-66.19 142.07,-64.03 142.99,-70.97"/>
</a>
</g>
</g>
<!-- Node25 -->
<g id="Node000025" class="node">
<title>Node25</title>
<g id="a_Node000025"><a xlink:href="clist_8h.html#a26b8f9c0c172cd6d9deba237155bf40a" target="_top" xlink:title=" ">
<polygon fill="white" stroke="#666666" points="255.5,-32 145,-32 145,-12 255.5,-12 255.5,-32"/>
<text text-anchor="middle" x="200.25" y="-18.5" font-family="Helvetica,sans-Serif" font-size="10.00">zrtos_clist_node__init</text>
</a>
</g>
</g>
<!-- Node1&#45;&gt;Node25 -->
<g id="edge27_Node000001_Node000025" class="edge">
<title>Node1&#45;&gt;Node25</title>
<g id="a_edge27_Node000001_Node000025"><a xlink:title=" ">
<path fill="none" stroke="#63b8ff" d="M92.73,-62.56C108.72,-55.66 127.68,-47.7 145,-41 149.12,-39.4 153.44,-37.79 157.77,-36.22"/>
<polygon fill="#63b8ff" stroke="#63b8ff" points="158.76,-39.58 167,-32.92 156.41,-32.99 158.76,-39.58"/>
</a>
</g>
</g>
<!-- Node3 -->
<g id="Node000003" class="node">
<title>Node3</title>
<g id="a_Node000003"><a xlink:href="cbuffer_8h.html#a5100fc709c08ad12bbce96e5320b3e3d" target="_top" xlink:title=" ">
<polygon fill="white" stroke="#666666" points="410.25,-258 305,-258 305,-226 410.25,-226 410.25,-258"/>
<text text-anchor="start" x="313" y="-244.5" font-family="Helvetica,sans-Serif" font-size="10.00">zrtos_cbuffer__deinit</text>
<text text-anchor="middle" x="357.62" y="-232.5" font-family="Helvetica,sans-Serif" font-size="10.00">_callback</text>
</a>
</g>
</g>
<!-- Node2&#45;&gt;Node3 -->
<g id="edge2_Node000002_Node000003" class="edge">
<title>Node2&#45;&gt;Node3</title>
<g id="a_edge2_Node000002_Node000003"><a xlink:title=" ">
<path fill="none" stroke="#63b8ff" d="M238.07,-208.43C254.73,-213.14 274.88,-218.85 293.81,-224.21"/>
<polygon fill="#63b8ff" stroke="#63b8ff" points="292.75,-227.55 303.33,-226.91 294.66,-220.81 292.75,-227.55"/>
</a>
</g>
</g>
<!-- Node10 -->
<g id="Node000010" class="node">
<title>Node10</title>
<g id="a_Node000010"><a xlink:href="list_8h.html#ab2efaa1af7b804994b227ea5436bea39" target="_top" xlink:title=" ">
<polygon fill="white" stroke="#666666" points="704.38,-208 614.88,-208 614.88,-188 704.38,-188 704.38,-208"/>
<text text-anchor="middle" x="659.62" y="-194.5" font-family="Helvetica,sans-Serif" font-size="10.00">zrtos_list__deinit</text>
</a>
</g>
</g>
<!-- Node2&#45;&gt;Node10 -->
<g id="edge10_Node000002_Node000010" class="edge">
<title>Node2&#45;&gt;Node10</title>
<g id="a_edge10_Node000002_Node000010"><a xlink:title=" ">
<path fill="none" stroke="#63b8ff" d="M253.27,-198C340.1,-198 513.81,-198 602.99,-198"/>
<polygon fill="#63b8ff" stroke="#63b8ff" points="602.96,-201.5 612.96,-198 602.96,-194.5 602.96,-201.5"/>
</a>
</g>
</g>
<!-- Node4 -->
<g id="Node000004" class="node">
<title>Node4</title>
<g id="a_Node000004"><a xlink:href="cbuffer_8h.html#afc85ab6d8226b4a1b93d11c2ba1203f6" target="_top" xlink:title=" ">
<polygon fill="white" stroke="#666666" points="564.25,-258 466.5,-258 466.5,-226 564.25,-226 564.25,-258"/>
<text text-anchor="start" x="474.5" y="-244.5" font-family="Helvetica,sans-Serif" font-size="10.00">zrtos_cbuffer_node</text>
<text text-anchor="middle" x="515.38" y="-232.5" font-family="Helvetica,sans-Serif" font-size="10.00">__free</text>
</a>
</g>
</g>
<!-- Node3&#45;&gt;Node4 -->
<g id="edge3_Node000003_Node000004" class="edge">
<title>Node3&#45;&gt;Node4</title>
<g id="a_edge3_Node000003_Node000004"><a xlink:title=" ">
<path fill="none" stroke="#63b8ff" d="M410.49,-242C424.66,-242 440.14,-242 454.71,-242"/>
<polygon fill="#63b8ff" stroke="#63b8ff" points="454.65,-245.5 464.65,-242 454.65,-238.5 454.65,-245.5"/>
</a>
</g>
</g>
<!-- Node5 -->
<g id="Node000005" class="node">
<title>Node5</title>
<g id="a_Node000005"><a xlink:href="list_8h.html#a2b11d9c6f775a209430f16b719a19617" target="_top" xlink:title=" ">
<polygon fill="white" stroke="#666666" points="705.88,-249 613.38,-249 613.38,-229 705.88,-229 705.88,-249"/>
<text text-anchor="middle" x="659.62" y="-235.5" font-family="Helvetica,sans-Serif" font-size="10.00">zrtos_list__delete</text>
</a>
</g>
</g>
<!-- Node4&#45;&gt;Node5 -->
<g id="edge4_Node000004_Node000005" class="edge">
<title>Node4&#45;&gt;Node5</title>
<g id="a_edge4_Node000004_Node000005"><a xlink:title=" ">
<path fill="none" stroke="#63b8ff" d="M564.53,-240.98C576.38,-240.73 589.19,-240.46 601.42,-240.21"/>
<polygon fill="#63b8ff" stroke="#63b8ff" points="601.48,-243.71 611.41,-240 601.33,-236.71 601.48,-243.71"/>
</a>
</g>
</g>
<!-- Node8 -->
<g id="Node000008" class="node">
<title>Node8</title>
<g id="a_Node000008"><a xlink:href="malloc__limit_8h.html#ad9dc03f9dd447b3ffb64b0ec3873f61f" target="_top" xlink:title=" ">
<polygon fill="white" stroke="#666666" points="707,-299 612.25,-299 612.25,-267 707,-267 707,-299"/>
<text text-anchor="start" x="620.25" y="-285.5" font-family="Helvetica,sans-Serif" font-size="10.00">zrtos_malloc_limit</text>
<text text-anchor="middle" x="659.62" y="-273.5" font-family="Helvetica,sans-Serif" font-size="10.00">__free</text>
</a>
</g>
</g>
<!-- Node4&#45;&gt;Node8 -->
<g id="edge8_Node000004_Node000008" class="edge">
<title>Node4&#45;&gt;Node8</title>
<g id="a_edge8_Node000004_Node000008"><a xlink:title=" ">
<path fill="none" stroke="#63b8ff" d="M564.53,-255.88C576.26,-259.26 588.92,-262.91 601.03,-266.4"/>
<polygon fill="#63b8ff" stroke="#63b8ff" points="599.93,-269.72 610.51,-269.13 601.87,-263 599.93,-269.72"/>
</a>
</g>
</g>
<!-- Node6 -->
<g id="Node000006" class="node">
<title>Node6</title>
<g id="a_Node000006"><a xlink:href="list_8h.html#a0039f0f08299038ab1a71e271a43a086" target="_top" xlink:title=" ">
<polygon fill="white" stroke="#666666" points="1038.25,-214 911.25,-214 911.25,-194 1038.25,-194 1038.25,-214"/>
<text text-anchor="middle" x="974.75" y="-200.5" font-family="Helvetica,sans-Serif" font-size="10.00">zrtos_list__get_first_node</text>
</a>
</g>
</g>
<!-- Node5&#45;&gt;Node6 -->
<g id="edge5_Node000005_Node000006" class="edge">
<title>Node5&#45;&gt;Node6</title>
<g id="a_edge5_Node000005_Node000006"><a xlink:title=" ">
<path fill="none" stroke="#63b8ff" d="M706,-237.15C749.55,-235.01 817.1,-230.75 875.25,-223 887.93,-221.31 901.45,-219.02 914.28,-216.63"/>
<polygon fill="#63b8ff" stroke="#63b8ff" points="914.69,-220.11 923.85,-214.78 913.37,-213.24 914.69,-220.11"/>
</a>
</g>
</g>
<!-- Node7 -->
<g id="Node000007" class="node">
<title>Node7</title>
<g id="a_Node000007"><a xlink:href="list_8h.html#a4ecf7568bdda1cd815956c391f29bf1e" target="_top" xlink:title=" ">
<polygon fill="white" stroke="#666666" points="853.88,-214 769.62,-214 769.62,-194 853.88,-194 853.88,-214"/>
<text text-anchor="middle" x="811.75" y="-200.5" font-family="Helvetica,sans-Serif" font-size="10.00">zrtos_list__shift</text>
</a>
</g>
</g>
<!-- Node5&#45;&gt;Node7 -->
<g id="edge6_Node000005_Node000007" class="edge">
<title>Node5&#45;&gt;Node7</title>
<g id="a_edge6_Node000005_Node000007"><a xlink:title=" ">
<path fill="none" stroke="#63b8ff" d="M705.26,-228.59C721.92,-224.71 740.99,-220.26 758.29,-216.23"/>
<polygon fill="#63b8ff" stroke="#63b8ff" points="758.95,-219.67 767.89,-213.99 757.36,-212.85 758.95,-219.67"/>
</a>
</g>
</g>
<!-- Node7&#45;&gt;Node6 -->
<g id="edge7_Node000007_Node000006" class="edge">
<title>Node7&#45;&gt;Node6</title>
<g id="a_edge7_Node000007_Node000006"><a xlink:title=" ">
<path fill="none" stroke="#63b8ff" d="M854.21,-204C868.08,-204 883.99,-204 899.58,-204"/>
<polygon fill="#63b8ff" stroke="#63b8ff" points="899.33,-207.5 909.33,-204 899.33,-200.5 899.33,-207.5"/>
</a>
</g>
</g>
<!-- Node9 -->
<g id="Node000009" class="node">
<title>Node9</title>
<g id="a_Node000009"><a xlink:href="malloc_8h.html#aeba49dabb0a21ae4e02fa137e195bb1d" target="_top" xlink:title=" ">
<polygon fill="white" stroke="#666666" points="875.25,-293 748.25,-293 748.25,-273 875.25,-273 875.25,-293"/>
<text text-anchor="middle" x="811.75" y="-279.5" font-family="Helvetica,sans-Serif" font-size="10.00">zrtos_malloc__get_length</text>
</a>
</g>
</g>
<!-- Node8&#45;&gt;Node9 -->
<g id="edge9_Node000008_Node000009" class="edge">
<title>Node8&#45;&gt;Node9</title>
<g id="a_edge9_Node000008_Node000009"><a xlink:title=" ">
<path fill="none" stroke="#63b8ff" d="M707.3,-283C716.62,-283 726.62,-283 736.6,-283"/>
<polygon fill="#63b8ff" stroke="#63b8ff" points="736.31,-286.5 746.31,-283 736.31,-279.5 736.31,-286.5"/>
</a>
</g>
</g>
<!-- Node10&#45;&gt;Node7 -->
<g id="edge13_Node000010_Node000007" class="edge">
<title>Node10&#45;&gt;Node7</title>
<g id="a_edge13_Node000010_Node000007"><a xlink:title=" ">
<path fill="none" stroke="#63b8ff" d="M704.86,-199.77C721.53,-200.43 740.66,-201.2 758.03,-201.89"/>
<polygon fill="#63b8ff" stroke="#63b8ff" points="757.51,-205.37 767.64,-202.28 757.79,-198.38 757.51,-205.37"/>
</a>
</g>
</g>
<!-- Node11 -->
<g id="Node000011" class="node">
<title>Node11</title>
<g id="a_Node000011"><a xlink:href="list_8h.html#a19f2741be75dd514c2227963d8c629dd" target="_top" xlink:title=" ">
<polygon fill="white" stroke="#666666" points="864.75,-176 758.75,-176 758.75,-156 864.75,-156 864.75,-176"/>
<text text-anchor="middle" x="811.75" y="-162.5" font-family="Helvetica,sans-Serif" font-size="10.00">zrtos_list__is_empty</text>
</a>
</g>
</g>
<!-- Node10&#45;&gt;Node11 -->
<g id="edge11_Node000010_Node000011" class="edge">
<title>Node10&#45;&gt;Node11</title>
<g id="a_edge11_Node000010_Node000011"><a xlink:title=" ">
<path fill="none" stroke="#63b8ff" d="M704.86,-188.57C719.19,-185.52 735.35,-182.07 750.64,-178.81"/>
<polygon fill="#63b8ff" stroke="#63b8ff" points="751.05,-182.3 760.1,-176.8 749.59,-175.46 751.05,-182.3"/>
</a>
</g>
</g>
<!-- Node11&#45;&gt;Node6 -->
<g id="edge12_Node000011_Node000006" class="edge">
<title>Node11&#45;&gt;Node6</title>
<g id="a_edge12_Node000011_Node000006"><a xlink:title=" ">
<path fill="none" stroke="#63b8ff" d="M857.17,-176.48C876.09,-180.95 898.36,-186.21 918.33,-190.92"/>
<polygon fill="#63b8ff" stroke="#63b8ff" points="917.47,-194.31 928,-193.2 919.07,-187.5 917.47,-194.31"/>
</a>
</g>
</g>
<!-- Node13 -->
<g id="Node000013" class="node">
<title>Node13</title>
<g id="a_Node000013"><a xlink:href="cbuffer_8h.html#a1749e471b67565254c5dc85e0cb728a1" target="_top" xlink:title=" ">
<polygon fill="white" stroke="#666666" points="420.38,-146 294.88,-146 294.88,-126 420.38,-126 420.38,-146"/>
<text text-anchor="middle" x="357.62" y="-132.5" font-family="Helvetica,sans-Serif" font-size="10.00">zrtos_cbuffer_node__new</text>
</a>
</g>
</g>
<!-- Node12&#45;&gt;Node13 -->
<g id="edge15_Node000012_Node000013" class="edge">
<title>Node12&#45;&gt;Node13</title>
<g id="a_edge15_Node000012_Node000013"><a xlink:title=" ">
<path fill="none" stroke="#63b8ff" d="M244.12,-108.48C262.29,-112.93 283.67,-118.16 302.88,-122.85"/>
<polygon fill="#63b8ff" stroke="#63b8ff" points="301.88,-126.21 312.43,-125.19 303.54,-119.41 301.88,-126.21"/>
</a>
</g>
</g>
<!-- Node19 -->
<g id="Node000019" class="node">
<title>Node19</title>
<g id="a_Node000019"><a xlink:href="list_8h.html#a2da91c03abf243dc0485a6027e970605" target="_top" xlink:title=" ">
<polygon fill="white" stroke="#666666" points="397.12,-108 318.12,-108 318.12,-88 397.12,-88 397.12,-108"/>
<text text-anchor="middle" x="357.62" y="-94.5" font-family="Helvetica,sans-Serif" font-size="10.00">zrtos_list__init</text>
</a>
</g>
</g>
<!-- Node12&#45;&gt;Node19 -->
<g id="edge21_Node000012_Node000019" class="edge">
<title>Node12&#45;&gt;Node19</title>
<g id="a_edge21_Node000012_Node000019"><a xlink:title=" ">
<path fill="none" stroke="#63b8ff" d="M247.87,-98C266.3,-98 287.53,-98 306.31,-98"/>
<polygon fill="#63b8ff" stroke="#63b8ff" points="306.12,-101.5 316.12,-98 306.12,-94.5 306.12,-101.5"/>
</a>
</g>
</g>
<!-- Node14 -->
<g id="Node000014" class="node">
<title>Node14</title>
<g id="a_Node000014"><a xlink:href="cbuffer_8h.html#aeb332726de06c905eb2db32ae3d323eb" target="_top" xlink:title=" ">
<polygon fill="white" stroke="#666666" points="564.25,-170 466.5,-170 466.5,-138 564.25,-138 564.25,-170"/>
<text text-anchor="start" x="474.5" y="-156.5" font-family="Helvetica,sans-Serif" font-size="10.00">zrtos_cbuffer_node</text>
<text text-anchor="middle" x="515.38" y="-144.5" font-family="Helvetica,sans-Serif" font-size="10.00">__init</text>
</a>
</g>
</g>
<!-- Node13&#45;&gt;Node14 -->
<g id="edge16_Node000013_Node000014" class="edge">
<title>Node13&#45;&gt;Node14</title>
<g id="a_edge16_Node000013_Node000014"><a xlink:title=" ">
<path fill="none" stroke="#63b8ff" d="M420.63,-143.17C431.84,-144.46 443.5,-145.81 454.64,-147.1"/>
<polygon fill="#63b8ff" stroke="#63b8ff" points="454.18,-150.57 464.52,-148.24 454.98,-143.61 454.18,-150.57"/>
</a>
</g>
</g>
<!-- Node18 -->
<g id="Node000018" class="node">
<title>Node18</title>
<g id="a_Node000018"><a xlink:href="malloc__limit_8h.html#a219ea8916b582afe8c2120d09abf8656" target="_top" xlink:title=" ">
<polygon fill="white" stroke="#666666" points="562.75,-120 468,-120 468,-88 562.75,-88 562.75,-120"/>
<text text-anchor="start" x="476" y="-106.5" font-family="Helvetica,sans-Serif" font-size="10.00">zrtos_malloc_limit</text>
<text text-anchor="middle" x="515.38" y="-94.5" font-family="Helvetica,sans-Serif" font-size="10.00">__malloc</text>
</a>
</g>
</g>
<!-- Node13&#45;&gt;Node18 -->
<g id="edge20_Node000013_Node000018" class="edge">
<title>Node13&#45;&gt;Node18</title>
<g id="a_edge20_Node000013_Node000018"><a xlink:title=" ">
<path fill="none" stroke="#63b8ff" d="M409.62,-125.52C424.69,-122.43 441.28,-119.02 456.73,-115.84"/>
<polygon fill="#63b8ff" stroke="#63b8ff" points="457.17,-119.33 466.26,-113.89 455.76,-112.47 457.17,-119.33"/>
</a>
</g>
</g>
<!-- Node15 -->
<g id="Node000015" class="node">
<title>Node15</title>
<g id="a_Node000015"><a xlink:href="list_8h.html#aa734984fb49603438b179f49fff38477" target="_top" xlink:title=" ">
<polygon fill="white" stroke="#666666" points="703.25,-129 616,-129 616,-109 703.25,-109 703.25,-129"/>
<text text-anchor="middle" x="659.62" y="-115.5" font-family="Helvetica,sans-Serif" font-size="10.00">zrtos_list__push</text>
</a>
</g>
</g>
<!-- Node14&#45;&gt;Node15 -->
<g id="edge17_Node000014_Node000015" class="edge">
<title>Node14&#45;&gt;Node15</title>
<g id="a_edge17_Node000014_Node000015"><a xlink:title=" ">
<path fill="none" stroke="#63b8ff" d="M564.53,-142.15C577.63,-138.93 591.89,-135.42 605.26,-132.13"/>
<polygon fill="#63b8ff" stroke="#63b8ff" points="605.89,-135.58 614.76,-129.79 604.22,-128.78 605.89,-135.58"/>
</a>
</g>
</g>
<!-- Node17 -->
<g id="Node000017" class="node">
<title>Node17</title>
<g id="a_Node000017"><a xlink:href="list_8h.html#a40feeb4cd0cc4e30201a279240b52429" target="_top" xlink:title=" ">
<polygon fill="white" stroke="#666666" points="712.25,-167 607,-167 607,-147 712.25,-147 712.25,-167"/>
<text text-anchor="middle" x="659.62" y="-153.5" font-family="Helvetica,sans-Serif" font-size="10.00">zrtos_list_node__init</text>
</a>
</g>
</g>
<!-- Node14&#45;&gt;Node17 -->
<g id="edge19_Node000014_Node000017" class="edge">
<title>Node14&#45;&gt;Node17</title>
<g id="a_edge19_Node000014_Node000017"><a xlink:title=" ">
<path fill="none" stroke="#63b8ff" d="M564.53,-155.02C574.37,-155.22 584.87,-155.44 595.15,-155.66"/>
<polygon fill="#63b8ff" stroke="#63b8ff" points="595.03,-159.16 605.1,-155.87 595.18,-152.16 595.03,-159.16"/>
</a>
</g>
</g>
<!-- Node16 -->
<g id="Node000016" class="node">
<title>Node16</title>
<g id="a_Node000016"><a xlink:href="list_8h.html#aa2f26b2b6fd722b708eb7e25cc264a90" target="_top" xlink:title=" ">
<polygon fill="white" stroke="#666666" points="875.25,-129 748.25,-129 748.25,-109 875.25,-109 875.25,-129"/>
<text text-anchor="middle" x="811.75" y="-115.5" font-family="Helvetica,sans-Serif" font-size="10.00">zrtos_list__get_last_node</text>
</a>
</g>
</g>
<!-- Node15&#45;&gt;Node16 -->
<g id="edge18_Node000015_Node000016" class="edge">
<title>Node15&#45;&gt;Node16</title>
<g id="a_edge18_Node000015_Node000016"><a xlink:title=" ">
<path fill="none" stroke="#63b8ff" d="M703.64,-119C713.98,-119 725.31,-119 736.61,-119"/>
<polygon fill="#63b8ff" stroke="#63b8ff" points="736.35,-122.5 746.35,-119 736.35,-115.5 736.35,-122.5"/>
</a>
</g>
</g>
<!-- Node21 -->
<g id="Node000021" class="node">
<title>Node21</title>
<g id="a_Node000021"><a xlink:href="clist_8h.html#ad48884723dee26734c89f80bef68d0d5" target="_top" xlink:title=" ">
<polygon fill="white" stroke="#666666" points="423.75,-70 291.5,-70 291.5,-50 423.75,-50 423.75,-70"/>
<text text-anchor="middle" x="357.62" y="-56.5" font-family="Helvetica,sans-Serif" font-size="10.00">zrtos_clist__get_last_node</text>
</a>
</g>
</g>
<!-- Node20&#45;&gt;Node21 -->
<g id="edge23_Node000020_Node000021" class="edge">
<title>Node20&#45;&gt;Node21</title>
<g id="a_edge23_Node000020_Node000021"><a xlink:title=" ">
<path fill="none" stroke="#63b8ff" d="M246.61,-60C257.02,-60 268.38,-60 279.71,-60"/>
<polygon fill="#63b8ff" stroke="#63b8ff" points="279.49,-63.5 289.49,-60 279.49,-56.5 279.49,-63.5"/>
</a>
</g>
</g>
<!-- Node24 -->
<g id="Node000024" class="node">
<title>Node24</title>
<g id="a_Node000024"><a xlink:href="clist_8h.html#a2795f97f269d0259065d7c7219d09341" target="_top" xlink:title=" ">
<polygon fill="white" stroke="#666666" points="422.25,-32 293,-32 293,-12 422.25,-12 422.25,-32"/>
<text text-anchor="middle" x="357.62" y="-18.5" font-family="Helvetica,sans-Serif" font-size="10.00">zrtos_clist_node__append</text>
</a>
</g>
</g>
<!-- Node20&#45;&gt;Node24 -->
<g id="edge26_Node000020_Node000024" class="edge">
<title>Node20&#45;&gt;Node24</title>
<g id="a_edge26_Node000020_Node000024"><a xlink:title=" ">
<path fill="none" stroke="#63b8ff" d="M244.12,-49.52C262.29,-45.07 283.67,-39.84 302.88,-35.15"/>
<polygon fill="#63b8ff" stroke="#63b8ff" points="303.54,-38.59 312.43,-32.81 301.88,-31.79 303.54,-38.59"/>
</a>
</g>
</g>
<!-- Node22 -->
<g id="Node000022" class="node">
<title>Node22</title>
<g id="a_Node000022"><a xlink:href="clist_8h.html#acab2b5c771ea45635a9621a9dc1382d4" target="_top" xlink:title=" ">
<polygon fill="white" stroke="#666666" points="568.75,-70 462,-70 462,-50 568.75,-50 568.75,-70"/>
<text text-anchor="middle" x="515.38" y="-56.5" font-family="Helvetica,sans-Serif" font-size="10.00">zrtos_clist__get_root</text>
</a>
</g>
</g>
<!-- Node21&#45;&gt;Node22 -->
<g id="edge24_Node000021_Node000022" class="edge">
<title>Node21&#45;&gt;Node22</title>
<g id="a_edge24_Node000021_Node000022"><a xlink:title=" ">
<path fill="none" stroke="#63b8ff" d="M424.23,-60C432.8,-60 441.58,-60 450.13,-60"/>
<polygon fill="#63b8ff" stroke="#63b8ff" points="450.09,-63.5 460.09,-60 450.09,-56.5 450.09,-63.5"/>
</a>
</g>
</g>
<!-- Node23 -->
<g id="Node000023" class="node">
<title>Node23</title>
<g id="a_Node000023"><a xlink:href="clist_8h.html#a7e4e2a2b78267e86a322ece473242b47" target="_top" xlink:title=" ">
<polygon fill="white" stroke="#666666" points="571,-32 459.75,-32 459.75,0 571,0 571,-32"/>
<text text-anchor="start" x="467.75" y="-18.5" font-family="Helvetica,sans-Serif" font-size="10.00">zrtos_clist_node__get</text>
<text text-anchor="middle" x="515.38" y="-6.5" font-family="Helvetica,sans-Serif" font-size="10.00">_previous_node</text>
</a>
</g>
</g>
<!-- Node21&#45;&gt;Node23 -->
<g id="edge25_Node000021_Node000023" class="edge">
<title>Node21&#45;&gt;Node23</title>
<g id="a_edge25_Node000021_Node000023"><a xlink:title=" ">
<path fill="none" stroke="#63b8ff" d="M395.54,-49.57C411.4,-45.09 430.44,-39.71 448.58,-34.59"/>
<polygon fill="#63b8ff" stroke="#63b8ff" points="449.3,-38.02 457.97,-31.93 447.4,-31.28 449.3,-38.02"/>
</a>
</g>
</g>
</g>
</svg>
