<?xml version="1.0" encoding="UTF-8" standalone="no"?>
<!DOCTYPE svg PUBLIC "-//W3C//DTD SVG 1.1//EN"
 "http://www.w3.org/Graphics/SVG/1.1/DTD/svg11.dtd">
<!-- Generated by graphviz version 10.0.1 (20240210.2158)
 -->
<!-- Title: if Pages: 1 -->
<svg width="670pt" height="292pt"
 viewBox="0.00 0.00 670.05 292.00" xmlns="http://www.w3.org/2000/svg" xmlns:xlink="http://www.w3.org/1999/xlink">
<g id="graph0" class="graph" transform="scale(1 1) rotate(0) translate(4 288)">
<title>if</title>
<!-- Node1 -->
<g id="Node000001" class="node">
<title>Node1</title>
<g id="a_Node000001"><a xlink:title=" ">
<polygon fill="#999999" stroke="#666666" points="28.8,-171 0,-171 0,-151 28.8,-151 28.8,-171"/>
<text text-anchor="middle" x="14.4" y="-157.5" font-family="Helvetica,sans-Serif" font-size="10.00">if</text>
</a>
</g>
</g>
<!-- Node2 -->
<g id="Node000002" class="node">
<title>Node2</title>
<g id="a_Node000002"><a xlink:href="cbuffer_8h.html#af79ee923f715f4f8d2ea27b725501174" target="_top" xlink:title=" ">
<polygon fill="white" stroke="#666666" points="181.3,-240 70.05,-240 70.05,-220 181.3,-220 181.3,-240"/>
<text text-anchor="middle" x="125.67" y="-226.5" font-family="Helvetica,sans-Serif" font-size="10.00">zrtos_cbuffer__get_ex</text>
</a>
</g>
</g>
<!-- Node1&#45;&gt;Node2 -->
<g id="edge1_Node000001_Node000002" class="edge">
<title>Node1&#45;&gt;Node2</title>
<g id="a_edge1_Node000001_Node000002"><a xlink:title=" ">
<path fill="none" stroke="#63b8ff" d="M29.24,-169.74C46.59,-180.7 76.7,-199.71 98.47,-213.45"/>
<polygon fill="#63b8ff" stroke="#63b8ff" points="96.49,-216.34 106.82,-218.72 100.23,-210.42 96.49,-216.34"/>
</a>
</g>
</g>
<!-- Node10 -->
<g id="Node000010" class="node">
<title>Node10</title>
<g id="a_Node000010"><a xlink:href="cbuffer_8h.html#ad43a17ed19b5351451c61a52c7e474d2" target="_top" xlink:title=" ">
<polygon fill="white" stroke="#666666" points="186.55,-171 64.8,-171 64.8,-151 186.55,-151 186.55,-171"/>
<text text-anchor="middle" x="125.67" y="-157.5" font-family="Helvetica,sans-Serif" font-size="10.00">zrtos_cbuffer__is_empty</text>
</a>
</g>
</g>
<!-- Node1&#45;&gt;Node10 -->
<g id="edge9_Node000001_Node000010" class="edge">
<title>Node1&#45;&gt;Node10</title>
<g id="a_edge9_Node000001_Node000010"><a xlink:title=" ">
<path fill="none" stroke="#63b8ff" d="M29.24,-161C35.77,-161 44.11,-161 53.14,-161"/>
<polygon fill="#63b8ff" stroke="#63b8ff" points="52.89,-164.5 62.89,-161 52.89,-157.5 52.89,-164.5"/>
</a>
</g>
</g>
<!-- Node12 -->
<g id="Node000012" class="node">
<title>Node12</title>
<g id="a_Node000012"><a xlink:href="clist_8h.html#a2c9ceea8a0bb3230c7d4ee52fe351872" target="_top" xlink:title=" ">
<polygon fill="white" stroke="#666666" points="170.42,-95 80.92,-95 80.92,-63 170.42,-63 170.42,-95"/>
<text text-anchor="start" x="88.92" y="-81.5" font-family="Helvetica,sans-Serif" font-size="10.00">zrtos_clist__shift</text>
<text text-anchor="middle" x="125.67" y="-69.5" font-family="Helvetica,sans-Serif" font-size="10.00">_and_push</text>
</a>
</g>
</g>
<!-- Node1&#45;&gt;Node12 -->
<g id="edge13_Node000001_Node000012" class="edge">
<title>Node1&#45;&gt;Node12</title>
<g id="a_edge13_Node000001_Node000012"><a xlink:title=" ">
<path fill="none" stroke="#63b8ff" d="M29.24,-150.61C45.45,-138.45 72.79,-117.94 94.06,-101.97"/>
<polygon fill="#63b8ff" stroke="#63b8ff" points="95.94,-104.94 101.84,-96.14 91.74,-99.34 95.94,-104.94"/>
</a>
</g>
</g>
<!-- Node3 -->
<g id="Node000003" class="node">
<title>Node3</title>
<g id="a_Node000003"><a xlink:href="cbuffer_8h.html#a1a9cc4256c634d99003e2397924df20a" target="_top" xlink:title=" ">
<polygon fill="white" stroke="#666666" points="336.42,-284 240.92,-284 240.92,-264 336.42,-264 336.42,-284"/>
<text text-anchor="middle" x="288.67" y="-270.5" font-family="Helvetica,sans-Serif" font-size="10.00">zrtos_cbuffer__get</text>
</a>
</g>
</g>
<!-- Node2&#45;&gt;Node3 -->
<g id="edge2_Node000002_Node000003" class="edge">
<title>Node2&#45;&gt;Node3</title>
<g id="a_edge2_Node000002_Node000003"><a xlink:title=" ">
<path fill="none" stroke="#63b8ff" d="M164.83,-240.43C186.91,-246.46 214.92,-254.12 238.62,-260.59"/>
<polygon fill="#63b8ff" stroke="#63b8ff" points="237.49,-263.91 248.06,-263.17 239.33,-257.16 237.49,-263.91"/>
</a>
</g>
</g>
<!-- Node9 -->
<g id="Node000009" class="node">
<title>Node9</title>
<g id="a_Node000009"><a xlink:href="types_8h.html#adbc4238237e656eb247fd49ffbfb1a6d" target="_top" xlink:title=" ">
<polygon fill="white" stroke="#666666" points="342.42,-246 234.92,-246 234.92,-214 342.42,-214 342.42,-246"/>
<text text-anchor="start" x="242.92" y="-232.5" font-family="Helvetica,sans-Serif" font-size="10.00">zrtos_types__ptr_get</text>
<text text-anchor="middle" x="288.67" y="-220.5" font-family="Helvetica,sans-Serif" font-size="10.00">_byte_distance</text>
</a>
</g>
</g>
<!-- Node2&#45;&gt;Node9 -->
<g id="edge8_Node000002_Node000009" class="edge">
<title>Node2&#45;&gt;Node9</title>
<g id="a_edge8_Node000002_Node000009"><a xlink:title=" ">
<path fill="none" stroke="#63b8ff" d="M181.63,-230C195.01,-230 209.44,-230 223.22,-230"/>
<polygon fill="#63b8ff" stroke="#63b8ff" points="223.09,-233.5 233.09,-230 223.09,-226.5 223.09,-233.5"/>
</a>
</g>
</g>
<!-- Node4 -->
<g id="Node000004" class="node">
<title>Node4</title>
<g id="a_Node000004"><a xlink:href="cbuffer_8h.html#ad0932ffc31c7150402dc49c28cbf2000" target="_top" xlink:title=" ">
<polygon fill="white" stroke="#666666" points="515.17,-256 393.42,-256 393.42,-236 515.17,-236 515.17,-256"/>
<text text-anchor="middle" x="454.3" y="-242.5" font-family="Helvetica,sans-Serif" font-size="10.00">zrtos_cbuffer_node__get</text>
</a>
</g>
</g>
<!-- Node3&#45;&gt;Node4 -->
<g id="edge3_Node000003_Node000004" class="edge">
<title>Node3&#45;&gt;Node4</title>
<g id="a_edge3_Node000003_Node000004"><a xlink:title=" ">
<path fill="none" stroke="#63b8ff" d="M336.56,-265.98C350.7,-263.56 366.54,-260.85 381.89,-258.22"/>
<polygon fill="#63b8ff" stroke="#63b8ff" points="382.19,-261.72 391.46,-256.58 381.01,-254.82 382.19,-261.72"/>
</a>
</g>
</g>
<!-- Node8 -->
<g id="Node000008" class="node">
<title>Node8</title>
<g id="a_Node000008"><a xlink:href="list_8h.html#a0039f0f08299038ab1a71e271a43a086" target="_top" xlink:title=" ">
<polygon fill="white" stroke="#666666" points="517.8,-199 390.8,-199 390.8,-179 517.8,-179 517.8,-199"/>
<text text-anchor="middle" x="454.3" y="-185.5" font-family="Helvetica,sans-Serif" font-size="10.00">zrtos_list__get_first_node</text>
</a>
</g>
</g>
<!-- Node3&#45;&gt;Node8 -->
<g id="edge7_Node000003_Node000008" class="edge">
<title>Node3&#45;&gt;Node8</title>
<g id="a_edge7_Node000003_Node000008"><a xlink:title=" ">
<path fill="none" stroke="#63b8ff" d="M333.99,-263.53C341.13,-261.15 348.3,-258.32 354.8,-255 372.85,-245.78 374.11,-238.51 390.8,-227 401.73,-219.46 414.16,-211.74 425.04,-205.24"/>
<polygon fill="#63b8ff" stroke="#63b8ff" points="426.76,-208.3 433.6,-200.21 423.2,-202.27 426.76,-208.3"/>
</a>
</g>
</g>
<!-- Node5 -->
<g id="Node000005" class="node">
<title>Node5</title>
<g id="a_Node000005"><a xlink:href="cbuffer_8h.html#afc85ab6d8226b4a1b93d11c2ba1203f6" target="_top" xlink:title=" ">
<polygon fill="white" stroke="#666666" points="656.8,-282 559.05,-282 559.05,-250 656.8,-250 656.8,-282"/>
<text text-anchor="start" x="567.05" y="-268.5" font-family="Helvetica,sans-Serif" font-size="10.00">zrtos_cbuffer_node</text>
<text text-anchor="middle" x="607.92" y="-256.5" font-family="Helvetica,sans-Serif" font-size="10.00">__free</text>
</a>
</g>
</g>
<!-- Node4&#45;&gt;Node5 -->
<g id="edge4_Node000004_Node000005" class="edge">
<title>Node4&#45;&gt;Node5</title>
<g id="a_edge4_Node000004_Node000005"><a xlink:title=" ">
<path fill="none" stroke="#63b8ff" d="M515.66,-253.96C526.21,-255.35 537.18,-256.8 547.71,-258.19"/>
<polygon fill="#63b8ff" stroke="#63b8ff" points="547.03,-261.63 557.41,-259.47 547.95,-254.69 547.03,-261.63"/>
</a>
</g>
</g>
<!-- Node6 -->
<g id="Node000006" class="node">
<title>Node6</title>
<g id="a_Node000006"><a xlink:href="cbuffer_8h.html#aa70b33844c0b38a531615564dc35840e" target="_top" xlink:title=" ">
<polygon fill="white" stroke="#666666" points="656.8,-172 559.05,-172 559.05,-140 656.8,-140 656.8,-172"/>
<text text-anchor="start" x="567.05" y="-158.5" font-family="Helvetica,sans-Serif" font-size="10.00">zrtos_cbuffer_node</text>
<text text-anchor="middle" x="607.92" y="-146.5" font-family="Helvetica,sans-Serif" font-size="10.00">__is_empty</text>
</a>
</g>
</g>
<!-- Node4&#45;&gt;Node6 -->
<g id="edge5_Node000004_Node000006" class="edge">
<title>Node4&#45;&gt;Node6</title>
<g id="a_edge5_Node000004_Node000006"><a xlink:title=" ">
<path fill="none" stroke="#63b8ff" d="M472.69,-235.68C496.21,-221.72 538.75,-196.47 569.65,-178.13"/>
<polygon fill="#63b8ff" stroke="#63b8ff" points="571.12,-181.32 577.93,-173.21 567.55,-175.3 571.12,-181.32"/>
</a>
</g>
</g>
<!-- Node7 -->
<g id="Node000007" class="node">
<title>Node7</title>
<g id="a_Node000007"><a xlink:href="list_8h.html#a7262d2a0c144ef76b0f45193cebb8227" target="_top" xlink:title=" ">
<polygon fill="white" stroke="#666666" points="662.05,-232 553.8,-232 553.8,-200 662.05,-200 662.05,-232"/>
<text text-anchor="start" x="561.8" y="-218.5" font-family="Helvetica,sans-Serif" font-size="10.00">zrtos_list_node__has</text>
<text text-anchor="middle" x="607.92" y="-206.5" font-family="Helvetica,sans-Serif" font-size="10.00">_next_node</text>
</a>
</g>
</g>
<!-- Node4&#45;&gt;Node7 -->
<g id="edge6_Node000004_Node000007" class="edge">
<title>Node4&#45;&gt;Node7</title>
<g id="a_edge6_Node000004_Node000007"><a xlink:title=" ">
<path fill="none" stroke="#63b8ff" d="M508.33,-235.51C519.28,-233.34 530.94,-231.04 542.25,-228.8"/>
<polygon fill="#63b8ff" stroke="#63b8ff" points="542.8,-232.26 551.93,-226.88 541.44,-225.39 542.8,-232.26"/>
</a>
</g>
</g>
<!-- Node10&#45;&gt;Node6 -->
<g id="edge12_Node000010_Node000006" class="edge">
<title>Node10&#45;&gt;Node6</title>
<g id="a_edge12_Node000010_Node000006"><a xlink:title=" ">
<path fill="none" stroke="#63b8ff" d="M187,-156.65C198.78,-155.96 211.05,-155.36 222.55,-155 337.54,-151.41 471.97,-153.11 547.51,-154.6"/>
<polygon fill="#63b8ff" stroke="#63b8ff" points="547.09,-158.09 557.16,-154.8 547.23,-151.09 547.09,-158.09"/>
</a>
</g>
</g>
<!-- Node11 -->
<g id="Node000011" class="node">
<title>Node11</title>
<g id="a_Node000011"><a xlink:href="cbuffer_8h.html#aefc6499f17723606801f954ac9c35be2" target="_top" xlink:title=" ">
<polygon fill="white" stroke="#666666" points="336.42,-196 240.92,-196 240.92,-164 336.42,-164 336.42,-196"/>
<text text-anchor="start" x="248.92" y="-182.5" font-family="Helvetica,sans-Serif" font-size="10.00">zrtos_cbuffer__get</text>
<text text-anchor="middle" x="288.67" y="-170.5" font-family="Helvetica,sans-Serif" font-size="10.00">_first_node</text>
</a>
</g>
</g>
<!-- Node10&#45;&gt;Node11 -->
<g id="edge10_Node000010_Node000011" class="edge">
<title>Node10&#45;&gt;Node11</title>
<g id="a_edge10_Node000010_Node000011"><a xlink:title=" ">
<path fill="none" stroke="#63b8ff" d="M186.63,-168.07C200.52,-169.72 215.3,-171.46 229.14,-173.09"/>
<polygon fill="#63b8ff" stroke="#63b8ff" points="228.66,-176.56 239,-174.26 229.48,-169.61 228.66,-176.56"/>
</a>
</g>
</g>
<!-- Node11&#45;&gt;Node8 -->
<g id="edge11_Node000011_Node000008" class="edge">
<title>Node11&#45;&gt;Node8</title>
<g id="a_edge11_Node000011_Node000008"><a xlink:title=" ">
<path fill="none" stroke="#63b8ff" d="M336.56,-182.58C349.83,-183.31 364.6,-184.12 379.05,-184.92"/>
<polygon fill="#63b8ff" stroke="#63b8ff" points="378.85,-188.41 389.03,-185.46 379.24,-181.42 378.85,-188.41"/>
</a>
</g>
</g>
<!-- Node13 -->
<g id="Node000013" class="node">
<title>Node13</title>
<g id="a_Node000013"><a xlink:href="clist_8h.html#ae1b2e219dd5ba17c475496cfe7dde749" target="_top" xlink:title=" ">
<polygon fill="white" stroke="#666666" points="354.8,-108 222.55,-108 222.55,-88 354.8,-88 354.8,-108"/>
<text text-anchor="middle" x="288.67" y="-94.5" font-family="Helvetica,sans-Serif" font-size="10.00">zrtos_clist__get_first_node</text>
</a>
</g>
</g>
<!-- Node12&#45;&gt;Node13 -->
<g id="edge14_Node000012_Node000013" class="edge">
<title>Node12&#45;&gt;Node13</title>
<g id="a_edge14_Node000012_Node000013"><a xlink:title=" ">
<path fill="none" stroke="#63b8ff" d="M170.67,-84.19C183.23,-85.67 197.3,-87.33 211.21,-88.98"/>
<polygon fill="#63b8ff" stroke="#63b8ff" points="210.45,-92.41 220.79,-90.11 211.27,-85.46 210.45,-92.41"/>
</a>
</g>
</g>
<!-- Node14 -->
<g id="Node000014" class="node">
<title>Node14</title>
<g id="a_Node000014"><a xlink:href="clist_8h.html#aa49bd33d74422329134a7793b1284e80" target="_top" xlink:title=" ">
<polygon fill="white" stroke="#666666" points="342.05,-70 235.3,-70 235.3,-50 342.05,-50 342.05,-70"/>
<text text-anchor="middle" x="288.67" y="-56.5" font-family="Helvetica,sans-Serif" font-size="10.00">zrtos_clist__set_root</text>
</a>
</g>
</g>
<!-- Node12&#45;&gt;Node14 -->
<g id="edge15_Node000012_Node000014" class="edge">
<title>Node12&#45;&gt;Node14</title>
<g id="a_edge15_Node000012_Node000014"><a xlink:title=" ">
<path fill="none" stroke="#63b8ff" d="M170.67,-73.81C187.01,-71.88 205.91,-69.65 223.68,-67.55"/>
<polygon fill="#63b8ff" stroke="#63b8ff" points="223.84,-71.06 233.36,-66.41 223.02,-64.11 223.84,-71.06"/>
</a>
</g>
</g>
<!-- Node15 -->
<g id="Node000015" class="node">
<title>Node15</title>
<g id="a_Node000015"><a xlink:href="clist_8h.html#aec8fbabbd0ff3c556e46b59eb872d43c" target="_top" xlink:title=" ">
<polygon fill="white" stroke="#666666" points="344.3,-32 233.05,-32 233.05,0 344.3,0 344.3,-32"/>
<text text-anchor="start" x="241.05" y="-18.5" font-family="Helvetica,sans-Serif" font-size="10.00">zrtos_clist_node__get</text>
<text text-anchor="middle" x="288.67" y="-6.5" font-family="Helvetica,sans-Serif" font-size="10.00">_next_node</text>
</a>
</g>
</g>
<!-- Node12&#45;&gt;Node15 -->
<g id="edge16_Node000012_Node000015" class="edge">
<title>Node12&#45;&gt;Node15</title>
<g id="a_edge16_Node000012_Node000015"><a xlink:title=" ">
<path fill="none" stroke="#63b8ff" d="M167.69,-62.63C184.66,-55.89 204.54,-48.03 222.55,-41 226.33,-39.53 230.23,-38.01 234.16,-36.49"/>
<polygon fill="#63b8ff" stroke="#63b8ff" points="235.08,-39.89 243.15,-33.02 232.56,-33.36 235.08,-39.89"/>
</a>
</g>
</g>
</g>
</svg>
