<?xml version="1.0" encoding="UTF-8" standalone="no"?>
<!DOCTYPE svg PUBLIC "-//W3C//DTD SVG 1.1//EN"
 "http://www.w3.org/Graphics/SVG/1.1/DTD/svg11.dtd">
<!-- Generated by graphviz version 10.0.1 (20240210.2158)
 -->
<!-- Title: spi.h Pages: 1 -->
<svg width="843pt" height="252pt"
 viewBox="0.00 0.00 842.50 252.00" xmlns="http://www.w3.org/2000/svg" xmlns:xlink="http://www.w3.org/1999/xlink">
<g id="graph0" class="graph" transform="scale(1 1) rotate(0) translate(4 248)">
<title>spi.h</title>
<!-- Node1 -->
<g id="Node000001" class="node">
<title>Node1</title>
<g id="a_Node000001"><a xlink:title=" ">
<polygon fill="#999999" stroke="#666666" points="291,-244 254,-244 254,-224 291,-224 291,-244"/>
<text text-anchor="middle" x="272.5" y="-230.5" font-family="Helvetica,sans-Serif" font-size="10.00">spi.h</text>
</a>
</g>
</g>
<!-- Node2 -->
<g id="Node000002" class="node">
<title>Node2</title>
<g id="a_Node000002"><a xlink:href="vfs__plugin_8h.html" target="_top" xlink:title=" ">
<polygon fill="white" stroke="#666666" points="443,-188 352,-188 352,-168 443,-168 443,-188"/>
<text text-anchor="middle" x="397.5" y="-174.5" font-family="Helvetica,sans-Serif" font-size="10.00">zrtos/vfs_plugin.h</text>
</a>
</g>
</g>
<!-- Node1&#45;&gt;Node2 -->
<g id="edge1_Node000001_Node000002" class="edge">
<title>Node1&#45;&gt;Node2</title>
<g id="a_edge1_Node000001_Node000002"><a xlink:title=" ">
<path fill="none" stroke="#63b8ff" d="M291.48,-224.8C311.06,-216.34 341.94,-203 365.33,-192.9"/>
<polygon fill="#63b8ff" stroke="#63b8ff" points="366.63,-196.15 374.42,-188.97 363.85,-189.72 366.63,-196.15"/>
</a>
</g>
</g>
<!-- Node11 -->
<g id="Node000011" class="node">
<title>Node11</title>
<g id="a_Node000011"><a xlink:href="malloc_8h.html" target="_top" xlink:title=" ">
<polygon fill="white" stroke="#666666" points="102.25,-132 24.75,-132 24.75,-112 102.25,-112 102.25,-132"/>
<text text-anchor="middle" x="63.5" y="-118.5" font-family="Helvetica,sans-Serif" font-size="10.00">zrtos/malloc.h</text>
</a>
</g>
</g>
<!-- Node1&#45;&gt;Node11 -->
<g id="edge11_Node000001_Node000011" class="edge">
<title>Node1&#45;&gt;Node11</title>
<g id="a_edge11_Node000001_Node000011"><a xlink:title=" ">
<path fill="none" stroke="#63b8ff" d="M254.68,-223.62C218.2,-204.42 134.79,-160.52 91.2,-137.58"/>
<polygon fill="#63b8ff" stroke="#63b8ff" points="93.09,-134.62 82.61,-133.06 89.83,-140.81 93.09,-134.62"/>
</a>
</g>
</g>
<!-- Node13 -->
<g id="Node000013" class="node">
<title>Node13</title>
<g id="a_Node000013"><a xlink:href="cbuffer_8h.html" target="_top" xlink:title=" ">
<polygon fill="white" stroke="#666666" points="311.25,-188 233.75,-188 233.75,-168 311.25,-168 311.25,-188"/>
<text text-anchor="middle" x="272.5" y="-174.5" font-family="Helvetica,sans-Serif" font-size="10.00">zrtos/cbuffer.h</text>
</a>
</g>
</g>
<!-- Node1&#45;&gt;Node13 -->
<g id="edge15_Node000001_Node000013" class="edge">
<title>Node1&#45;&gt;Node13</title>
<g id="a_edge15_Node000001_Node000013"><a xlink:title=" ">
<path fill="none" stroke="#63b8ff" d="M272.5,-223.59C272.5,-217.01 272.5,-207.96 272.5,-199.73"/>
<polygon fill="#63b8ff" stroke="#63b8ff" points="276,-199.81 272.5,-189.81 269,-199.81 276,-199.81"/>
</a>
</g>
</g>
<!-- Node16 -->
<g id="Node000016" class="node">
<title>Node16</title>
<g id="a_Node000016"><a xlink:href="clist_8h.html" target="_top" xlink:title=" ">
<polygon fill="white" stroke="#666666" points="67,-188 0,-188 0,-168 67,-168 67,-188"/>
<text text-anchor="middle" x="33.5" y="-174.5" font-family="Helvetica,sans-Serif" font-size="10.00">zrtos/clist.h</text>
</a>
</g>
</g>
<!-- Node1&#45;&gt;Node16 -->
<g id="edge24_Node000001_Node000016" class="edge">
<title>Node1&#45;&gt;Node16</title>
<g id="a_edge24_Node000001_Node000016"><a xlink:title=" ">
<path fill="none" stroke="#63b8ff" d="M253.75,-228.76C216.22,-220.28 130.99,-201.03 78.24,-189.11"/>
<polygon fill="#63b8ff" stroke="#63b8ff" points="79.19,-185.74 68.66,-186.95 77.65,-192.56 79.19,-185.74"/>
</a>
</g>
</g>
<!-- Node17 -->
<g id="Node000017" class="node">
<title>Node17</title>
<g id="a_Node000017"><a xlink:href="gpio_8h.html" target="_top" xlink:title=" ">
<polygon fill="white" stroke="#666666" points="569,-188 502,-188 502,-168 569,-168 569,-188"/>
<text text-anchor="middle" x="535.5" y="-174.5" font-family="Helvetica,sans-Serif" font-size="10.00">zrtos/gpio.h</text>
</a>
</g>
</g>
<!-- Node1&#45;&gt;Node17 -->
<g id="edge26_Node000001_Node000017" class="edge">
<title>Node1&#45;&gt;Node17</title>
<g id="a_edge26_Node000001_Node000017"><a xlink:title=" ">
<path fill="none" stroke="#63b8ff" d="M291.41,-229.12C332.82,-220.61 432.45,-200.16 490.82,-188.17"/>
<polygon fill="#63b8ff" stroke="#63b8ff" points="491.34,-191.64 500.43,-186.2 489.93,-184.78 491.34,-191.64"/>
</a>
</g>
</g>
<!-- Node3 -->
<g id="Node000003" class="node">
<title>Node3</title>
<g id="a_Node000003"><a xlink:title=" ">
<polygon fill="#e0e0e0" stroke="#999999" points="414.12,-132 362.88,-132 362.88,-112 414.12,-112 414.12,-132"/>
<text text-anchor="middle" x="388.5" y="-118.5" font-family="Helvetica,sans-Serif" font-size="10.00">stdarg.h</text>
</a>
</g>
</g>
<!-- Node2&#45;&gt;Node3 -->
<g id="edge2_Node000002_Node000003" class="edge">
<title>Node2&#45;&gt;Node3</title>
<g id="a_edge2_Node000002_Node000003"><a xlink:title=" ">
<path fill="none" stroke="#63b8ff" d="M395.93,-167.59C394.82,-160.93 393.29,-151.75 391.91,-143.44"/>
<polygon fill="#63b8ff" stroke="#63b8ff" points="395.39,-143.08 390.3,-133.79 388.49,-144.23 395.39,-143.08"/>
</a>
</g>
</g>
<!-- Node4 -->
<g id="Node000004" class="node">
<title>Node4</title>
<g id="a_Node000004"><a xlink:href="types_8h.html" target="_top" xlink:title=" ">
<polygon fill="white" stroke="#666666" points="304,-76 231,-76 231,-56 304,-56 304,-76"/>
<text text-anchor="middle" x="267.5" y="-62.5" font-family="Helvetica,sans-Serif" font-size="10.00">zrtos/types.h</text>
</a>
</g>
</g>
<!-- Node2&#45;&gt;Node4 -->
<g id="edge3_Node000002_Node000004" class="edge">
<title>Node2&#45;&gt;Node4</title>
<g id="a_edge3_Node000002_Node000004"><a xlink:title=" ">
<path fill="none" stroke="#63b8ff" d="M406.49,-167.84C418.46,-154.52 436.65,-129.48 423.5,-112 410.41,-94.6 356.32,-81.82 315.47,-74.41"/>
<polygon fill="#63b8ff" stroke="#63b8ff" points="316.29,-71 305.83,-72.73 315.08,-77.9 316.29,-71"/>
</a>
</g>
</g>
<!-- Node9 -->
<g id="Node000009" class="node">
<title>Node9</title>
<g id="a_Node000009"><a xlink:href="error_8h.html" target="_top" xlink:title=" ">
<polygon fill="white" stroke="#666666" points="538.75,-132 470.25,-132 470.25,-112 538.75,-112 538.75,-132"/>
<text text-anchor="middle" x="504.5" y="-118.5" font-family="Helvetica,sans-Serif" font-size="10.00">zrtos/error.h</text>
</a>
</g>
</g>
<!-- Node2&#45;&gt;Node9 -->
<g id="edge8_Node000002_Node000009" class="edge">
<title>Node2&#45;&gt;Node9</title>
<g id="a_edge8_Node000002_Node000009"><a xlink:title=" ">
<path fill="none" stroke="#63b8ff" d="M416.14,-167.59C432.53,-159.32 456.66,-147.14 475.56,-137.6"/>
<polygon fill="#63b8ff" stroke="#63b8ff" points="477.01,-140.79 484.37,-133.16 473.86,-134.54 477.01,-140.79"/>
</a>
</g>
</g>
<!-- Node5 -->
<g id="Node000005" class="node">
<title>Node5</title>
<g id="a_Node000005"><a xlink:title=" ">
<polygon fill="#e0e0e0" stroke="#999999" points="365.38,-20 309.62,-20 309.62,0 365.38,0 365.38,-20"/>
<text text-anchor="middle" x="337.5" y="-6.5" font-family="Helvetica,sans-Serif" font-size="10.00">stdbool.h</text>
</a>
</g>
</g>
<!-- Node4&#45;&gt;Node5 -->
<g id="edge4_Node000004_Node000005" class="edge">
<title>Node4&#45;&gt;Node5</title>
<g id="a_edge4_Node000004_Node000005"><a xlink:title=" ">
<path fill="none" stroke="#63b8ff" d="M279.69,-55.59C289.83,-47.77 304.49,-36.46 316.51,-27.19"/>
<polygon fill="#63b8ff" stroke="#63b8ff" points="318.47,-30.1 324.25,-21.22 314.19,-24.56 318.47,-30.1"/>
</a>
</g>
</g>
<!-- Node6 -->
<g id="Node000006" class="node">
<title>Node6</title>
<g id="a_Node000006"><a xlink:title=" ">
<polygon fill="#e0e0e0" stroke="#999999" points="225.75,-20 175.25,-20 175.25,0 225.75,0 225.75,-20"/>
<text text-anchor="middle" x="200.5" y="-6.5" font-family="Helvetica,sans-Serif" font-size="10.00">stddef.h</text>
</a>
</g>
</g>
<!-- Node4&#45;&gt;Node6 -->
<g id="edge5_Node000004_Node000006" class="edge">
<title>Node4&#45;&gt;Node6</title>
<g id="a_edge5_Node000004_Node000006"><a xlink:title=" ">
<path fill="none" stroke="#63b8ff" d="M255.83,-55.59C246.22,-47.85 232.37,-36.69 220.93,-27.47"/>
<polygon fill="#63b8ff" stroke="#63b8ff" points="223.2,-24.8 213.22,-21.25 218.8,-30.25 223.2,-24.8"/>
</a>
</g>
</g>
<!-- Node7 -->
<g id="Node000007" class="node">
<title>Node7</title>
<g id="a_Node000007"><a xlink:title=" ">
<polygon fill="#e0e0e0" stroke="#999999" points="291.62,-20 243.38,-20 243.38,0 291.62,0 291.62,-20"/>
<text text-anchor="middle" x="267.5" y="-6.5" font-family="Helvetica,sans-Serif" font-size="10.00">stdint.h</text>
</a>
</g>
</g>
<!-- Node4&#45;&gt;Node7 -->
<g id="edge6_Node000004_Node000007" class="edge">
<title>Node4&#45;&gt;Node7</title>
<g id="a_edge6_Node000004_Node000007"><a xlink:title=" ">
<path fill="none" stroke="#63b8ff" d="M267.5,-55.59C267.5,-49.01 267.5,-39.96 267.5,-31.73"/>
<polygon fill="#63b8ff" stroke="#63b8ff" points="271,-31.81 267.5,-21.81 264,-31.81 271,-31.81"/>
</a>
</g>
</g>
<!-- Node8 -->
<g id="Node000008" class="node">
<title>Node8</title>
<g id="a_Node000008"><a xlink:title=" ">
<polygon fill="#e0e0e0" stroke="#999999" points="480.25,-20 432.75,-20 432.75,0 480.25,0 480.25,-20"/>
<text text-anchor="middle" x="456.5" y="-6.5" font-family="Helvetica,sans-Serif" font-size="10.00">limits.h</text>
</a>
</g>
</g>
<!-- Node4&#45;&gt;Node8 -->
<g id="edge7_Node000004_Node000008" class="edge">
<title>Node4&#45;&gt;Node8</title>
<g id="a_edge7_Node000004_Node000008"><a xlink:title=" ">
<path fill="none" stroke="#63b8ff" d="M300.42,-55.59C334.25,-45.93 386.72,-30.94 421.34,-21.04"/>
<polygon fill="#63b8ff" stroke="#63b8ff" points="422.24,-24.43 430.89,-18.32 420.31,-17.7 422.24,-24.43"/>
</a>
</g>
</g>
<!-- Node9&#45;&gt;Node8 -->
<g id="edge9_Node000009_Node000008" class="edge">
<title>Node9&#45;&gt;Node8</title>
<g id="a_edge9_Node000009_Node000008"><a xlink:title=" ">
<path fill="none" stroke="#63b8ff" d="M502.7,-111.88C499.98,-99.02 494.19,-75.04 485.5,-56 481.31,-46.83 475.47,-37.35 470.12,-29.47"/>
<polygon fill="#63b8ff" stroke="#63b8ff" points="473.07,-27.58 464.43,-21.43 467.35,-31.62 473.07,-27.58"/>
</a>
</g>
</g>
<!-- Node10 -->
<g id="Node000010" class="node">
<title>Node10</title>
<g id="a_Node000010"><a xlink:href="assert_8h.html" target="_top" xlink:title=" ">
<polygon fill="white" stroke="#666666" points="476.5,-76 400.5,-76 400.5,-56 476.5,-56 476.5,-76"/>
<text text-anchor="middle" x="438.5" y="-62.5" font-family="Helvetica,sans-Serif" font-size="10.00">zrtos/assert.h</text>
</a>
</g>
</g>
<!-- Node9&#45;&gt;Node10 -->
<g id="edge10_Node000009_Node000010" class="edge">
<title>Node9&#45;&gt;Node10</title>
<g id="a_edge10_Node000009_Node000010"><a xlink:title=" ">
<path fill="none" stroke="#63b8ff" d="M493,-111.59C483.54,-103.85 469.9,-92.69 458.63,-83.47"/>
<polygon fill="#63b8ff" stroke="#63b8ff" points="460.99,-80.88 451.04,-77.26 456.56,-86.3 460.99,-80.88"/>
</a>
</g>
</g>
<!-- Node11&#45;&gt;Node4 -->
<g id="edge13_Node000011_Node000004" class="edge">
<title>Node11&#45;&gt;Node4</title>
<g id="a_edge13_Node000011_Node000004"><a xlink:title=" ">
<path fill="none" stroke="#63b8ff" d="M99.03,-111.59C132.76,-102.67 183.66,-89.19 220.68,-79.39"/>
<polygon fill="#63b8ff" stroke="#63b8ff" points="221.45,-82.81 230.23,-76.87 219.66,-76.04 221.45,-82.81"/>
</a>
</g>
</g>
<!-- Node11&#45;&gt;Node10 -->
<g id="edge12_Node000011_Node000010" class="edge">
<title>Node11&#45;&gt;Node10</title>
<g id="a_edge12_Node000011_Node000010"><a xlink:title=" ">
<path fill="none" stroke="#63b8ff" d="M102.57,-115.37C171.27,-105.48 313.54,-84.99 389,-74.13"/>
<polygon fill="#63b8ff" stroke="#63b8ff" points="389.18,-77.64 398.58,-72.75 388.18,-70.71 389.18,-77.64"/>
</a>
</g>
</g>
<!-- Node12 -->
<g id="Node000012" class="node">
<title>Node12</title>
<g id="a_Node000012"><a xlink:href="debug_8h.html" target="_top" xlink:title=" ">
<polygon fill="white" stroke="#666666" points="101.12,-76 25.88,-76 25.88,-56 101.12,-56 101.12,-76"/>
<text text-anchor="middle" x="63.5" y="-62.5" font-family="Helvetica,sans-Serif" font-size="10.00">zrtos/debug.h</text>
</a>
</g>
</g>
<!-- Node11&#45;&gt;Node12 -->
<g id="edge14_Node000011_Node000012" class="edge">
<title>Node11&#45;&gt;Node12</title>
<g id="a_edge14_Node000011_Node000012"><a xlink:title=" ">
<path fill="none" stroke="#63b8ff" d="M63.5,-111.59C63.5,-105.01 63.5,-95.96 63.5,-87.73"/>
<polygon fill="#63b8ff" stroke="#63b8ff" points="67,-87.81 63.5,-77.81 60,-87.81 67,-87.81"/>
</a>
</g>
</g>
<!-- Node13&#45;&gt;Node3 -->
<g id="edge23_Node000013_Node000003" class="edge">
<title>Node13&#45;&gt;Node3</title>
<g id="a_edge23_Node000013_Node000003"><a xlink:title=" ">
<path fill="none" stroke="#63b8ff" d="M292.71,-167.59C310.73,-159.21 337.37,-146.8 357.98,-137.21"/>
<polygon fill="#63b8ff" stroke="#63b8ff" points="359.18,-140.51 366.76,-133.12 356.22,-134.17 359.18,-140.51"/>
</a>
</g>
</g>
<!-- Node13&#45;&gt;Node4 -->
<g id="edge16_Node000013_Node000004" class="edge">
<title>Node13&#45;&gt;Node4</title>
<g id="a_edge16_Node000013_Node000004"><a xlink:title=" ">
<path fill="none" stroke="#63b8ff" d="M233.54,-174.15C205.09,-169.8 168.32,-158.93 149.5,-132 128.33,-101.71 178.25,-84.05 219.56,-74.97"/>
<polygon fill="#63b8ff" stroke="#63b8ff" points="220.08,-78.43 229.17,-72.99 218.67,-71.58 220.08,-78.43"/>
</a>
</g>
</g>
<!-- Node13&#45;&gt;Node9 -->
<g id="edge17_Node000013_Node000009" class="edge">
<title>Node13&#45;&gt;Node9</title>
<g id="a_edge17_Node000013_Node000009"><a xlink:title=" ">
<path fill="none" stroke="#63b8ff" d="M311.59,-167.9C352.25,-158.44 415.86,-143.63 458.81,-133.63"/>
<polygon fill="#63b8ff" stroke="#63b8ff" points="459.38,-137.1 468.33,-131.42 457.79,-130.28 459.38,-137.1"/>
</a>
</g>
</g>
<!-- Node13&#45;&gt;Node10 -->
<g id="edge21_Node000013_Node000010" class="edge">
<title>Node13&#45;&gt;Node10</title>
<g id="a_edge21_Node000013_Node000010"><a xlink:title=" ">
<path fill="none" stroke="#63b8ff" d="M282.76,-167.71C297.68,-154.44 326.53,-129.73 353.5,-112 370.9,-100.56 391.51,-89.59 408.08,-81.35"/>
<polygon fill="#63b8ff" stroke="#63b8ff" points="409.51,-84.54 416.95,-77.01 406.43,-78.26 409.51,-84.54"/>
</a>
</g>
</g>
<!-- Node13&#45;&gt;Node11 -->
<g id="edge20_Node000013_Node000011" class="edge">
<title>Node13&#45;&gt;Node11</title>
<g id="a_edge20_Node000013_Node000011"><a xlink:title=" ">
<path fill="none" stroke="#63b8ff" d="M236.09,-167.59C201.39,-158.63 148.95,-145.08 110.98,-135.27"/>
<polygon fill="#63b8ff" stroke="#63b8ff" points="112.21,-131.97 101.65,-132.86 110.46,-138.75 112.21,-131.97"/>
</a>
</g>
</g>
<!-- Node14 -->
<g id="Node000014" class="node">
<title>Node14</title>
<g id="a_Node000014"><a xlink:href="list_8h.html" target="_top" xlink:title=" ">
<polygon fill="white" stroke="#666666" points="220.38,-132 158.62,-132 158.62,-112 220.38,-112 220.38,-132"/>
<text text-anchor="middle" x="189.5" y="-118.5" font-family="Helvetica,sans-Serif" font-size="10.00">zrtos/list.h</text>
</a>
</g>
</g>
<!-- Node13&#45;&gt;Node14 -->
<g id="edge18_Node000013_Node000014" class="edge">
<title>Node13&#45;&gt;Node14</title>
<g id="a_edge18_Node000013_Node000014"><a xlink:title=" ">
<path fill="none" stroke="#63b8ff" d="M258.04,-167.59C245.74,-159.59 227.82,-147.93 213.39,-138.54"/>
<polygon fill="#63b8ff" stroke="#63b8ff" points="215.63,-135.82 205.34,-133.3 211.81,-141.69 215.63,-135.82"/>
</a>
</g>
</g>
<!-- Node15 -->
<g id="Node000015" class="node">
<title>Node15</title>
<g id="a_Node000015"><a xlink:href="cast_8h.html" target="_top" xlink:title=" ">
<polygon fill="white" stroke="#666666" points="306.38,-132 238.62,-132 238.62,-112 306.38,-112 306.38,-132"/>
<text text-anchor="middle" x="272.5" y="-118.5" font-family="Helvetica,sans-Serif" font-size="10.00">zrtos/cast.h</text>
</a>
</g>
</g>
<!-- Node13&#45;&gt;Node15 -->
<g id="edge22_Node000013_Node000015" class="edge">
<title>Node13&#45;&gt;Node15</title>
<g id="a_edge22_Node000013_Node000015"><a xlink:title=" ">
<path fill="none" stroke="#63b8ff" d="M272.5,-167.59C272.5,-161.01 272.5,-151.96 272.5,-143.73"/>
<polygon fill="#63b8ff" stroke="#63b8ff" points="276,-143.81 272.5,-133.81 269,-143.81 276,-143.81"/>
</a>
</g>
</g>
<!-- Node14&#45;&gt;Node4 -->
<g id="edge19_Node000014_Node000004" class="edge">
<title>Node14&#45;&gt;Node4</title>
<g id="a_edge19_Node000014_Node000004"><a xlink:title=" ">
<path fill="none" stroke="#63b8ff" d="M203.09,-111.59C214.54,-103.67 231.16,-92.16 244.66,-82.82"/>
<polygon fill="#63b8ff" stroke="#63b8ff" points="246.33,-85.91 252.56,-77.34 242.35,-80.16 246.33,-85.91"/>
</a>
</g>
</g>
<!-- Node16&#45;&gt;Node4 -->
<g id="edge25_Node000016_Node000004" class="edge">
<title>Node16&#45;&gt;Node4</title>
<g id="a_edge25_Node000016_Node000004"><a xlink:title=" ">
<path fill="none" stroke="#63b8ff" d="M26.43,-167.94C16.69,-154.3 1.82,-128.34 15.5,-112 40.97,-81.58 153.47,-71.7 219.23,-68.51"/>
<polygon fill="#63b8ff" stroke="#63b8ff" points="219.2,-72.02 229.03,-68.07 218.88,-65.02 219.2,-72.02"/>
</a>
</g>
</g>
<!-- Node17&#45;&gt;Node3 -->
<g id="edge27_Node000017_Node000003" class="edge">
<title>Node17&#45;&gt;Node3</title>
<g id="a_edge27_Node000017_Node000003"><a xlink:title=" ">
<path fill="none" stroke="#63b8ff" d="M509.89,-167.59C486.43,-158.97 451.43,-146.12 425.03,-136.42"/>
<polygon fill="#63b8ff" stroke="#63b8ff" points="426.32,-133.16 415.73,-133 423.91,-139.73 426.32,-133.16"/>
</a>
</g>
</g>
<!-- Node17&#45;&gt;Node4 -->
<g id="edge29_Node000017_Node000004" class="edge">
<title>Node17&#45;&gt;Node4</title>
<g id="a_edge29_Node000017_Node000004"><a xlink:title=" ">
<path fill="none" stroke="#63b8ff" d="M541.32,-167.83C549.27,-154.04 561.05,-127.9 547.5,-112 532.65,-94.58 391.64,-78.72 315.58,-71.35"/>
<polygon fill="#63b8ff" stroke="#63b8ff" points="316.2,-67.89 305.91,-70.43 315.54,-74.86 316.2,-67.89"/>
</a>
</g>
</g>
<!-- Node17&#45;&gt;Node9 -->
<g id="edge28_Node000017_Node000009" class="edge">
<title>Node17&#45;&gt;Node9</title>
<g id="a_edge28_Node000017_Node000009"><a xlink:title=" ">
<path fill="none" stroke="#63b8ff" d="M530.1,-167.59C526.06,-160.55 520.38,-150.67 515.41,-142"/>
<polygon fill="#63b8ff" stroke="#63b8ff" points="518.61,-140.54 510.59,-133.61 512.53,-144.03 518.61,-140.54"/>
</a>
</g>
</g>
<!-- Node17&#45;&gt;Node10 -->
<g id="edge36_Node000017_Node000010" class="edge">
<title>Node17&#45;&gt;Node10</title>
<g id="a_edge36_Node000017_Node000010"><a xlink:title=" ">
<path fill="none" stroke="#63b8ff" d="M550.12,-167.63C568.15,-154.9 594.77,-131.49 580.5,-112 559.55,-83.38 520.29,-72.51 488.35,-68.59"/>
<polygon fill="#63b8ff" stroke="#63b8ff" points="488.77,-65.11 478.47,-67.59 488.06,-72.08 488.77,-65.11"/>
</a>
</g>
</g>
<!-- Node18 -->
<g id="Node000018" class="node">
<title>Node18</title>
<g id="a_Node000018"><a xlink:href="arch_8h.html" target="_top" xlink:title=" ">
<polygon fill="white" stroke="#666666" points="700.38,-132 632.62,-132 632.62,-112 700.38,-112 700.38,-132"/>
<text text-anchor="middle" x="666.5" y="-118.5" font-family="Helvetica,sans-Serif" font-size="10.00">zrtos/arch.h</text>
</a>
</g>
</g>
<!-- Node17&#45;&gt;Node18 -->
<g id="edge30_Node000017_Node000018" class="edge">
<title>Node17&#45;&gt;Node18</title>
<g id="a_edge30_Node000017_Node000018"><a xlink:title=" ">
<path fill="none" stroke="#63b8ff" d="M558.32,-167.59C578.95,-159.09 609.58,-146.46 632.99,-136.81"/>
<polygon fill="#63b8ff" stroke="#63b8ff" points="634.19,-140.1 642.1,-133.06 631.52,-133.63 634.19,-140.1"/>
</a>
</g>
</g>
<!-- Node18&#45;&gt;Node4 -->
<g id="edge31_Node000018_Node000004" class="edge">
<title>Node18&#45;&gt;Node4</title>
<g id="a_edge31_Node000018_Node000004"><a xlink:title=" ">
<path fill="none" stroke="#63b8ff" d="M632.14,-116.35C560.82,-106.7 396.63,-84.48 315.15,-73.45"/>
<polygon fill="#63b8ff" stroke="#63b8ff" points="316.1,-70.05 305.72,-72.17 315.16,-76.98 316.1,-70.05"/>
</a>
</g>
</g>
<!-- Node18&#45;&gt;Node10 -->
<g id="edge32_Node000018_Node000010" class="edge">
<title>Node18&#45;&gt;Node10</title>
<g id="a_edge32_Node000018_Node000010"><a xlink:title=" ">
<path fill="none" stroke="#63b8ff" d="M632.37,-112.92C593.97,-103.82 531.28,-88.97 487.62,-78.63"/>
<polygon fill="#63b8ff" stroke="#63b8ff" points="488.69,-75.29 478.15,-76.39 487.08,-82.1 488.69,-75.29"/>
</a>
</g>
</g>
<!-- Node19 -->
<g id="Node000019" class="node">
<title>Node19</title>
<g id="a_Node000019"><a xlink:href="atmega328p_8h.html" target="_top" xlink:title=" ">
<polygon fill="white" stroke="#666666" points="692.5,-76 568.5,-76 568.5,-56 692.5,-56 692.5,-76"/>
<text text-anchor="middle" x="630.5" y="-62.5" font-family="Helvetica,sans-Serif" font-size="10.00">zrtos/arch/atmega328p.h</text>
</a>
</g>
</g>
<!-- Node18&#45;&gt;Node19 -->
<g id="edge33_Node000018_Node000019" class="edge">
<title>Node18&#45;&gt;Node19</title>
<g id="a_edge33_Node000018_Node000019"><a xlink:title=" ">
<path fill="none" stroke="#63b8ff" d="M660.23,-111.59C655.48,-104.47 648.8,-94.45 642.98,-85.72"/>
<polygon fill="#63b8ff" stroke="#63b8ff" points="646,-83.94 637.54,-77.56 640.17,-87.82 646,-83.94"/>
</a>
</g>
</g>
<!-- Node21 -->
<g id="Node000021" class="node">
<title>Node21</title>
<g id="a_Node000021"><a xlink:href="atmega2560_8h.html" target="_top" xlink:title=" ">
<polygon fill="white" stroke="#666666" points="834.5,-76 710.5,-76 710.5,-56 834.5,-56 834.5,-76"/>
<text text-anchor="middle" x="772.5" y="-62.5" font-family="Helvetica,sans-Serif" font-size="10.00">zrtos/arch/atmega2560.h</text>
</a>
</g>
</g>
<!-- Node18&#45;&gt;Node21 -->
<g id="edge35_Node000018_Node000021" class="edge">
<title>Node18&#45;&gt;Node21</title>
<g id="a_edge35_Node000018_Node000021"><a xlink:title=" ">
<path fill="none" stroke="#63b8ff" d="M684.96,-111.59C701.2,-103.32 725.11,-91.14 743.83,-81.6"/>
<polygon fill="#63b8ff" stroke="#63b8ff" points="745.22,-84.82 752.54,-77.17 742.04,-78.59 745.22,-84.82"/>
</a>
</g>
</g>
<!-- Node20 -->
<g id="Node000020" class="node">
<title>Node20</title>
<g id="a_Node000020"><a xlink:title=" ">
<polygon fill="#e0e0e0" stroke="#999999" points="676.38,-20 584.62,-20 584.62,0 676.38,0 676.38,-20"/>
<text text-anchor="middle" x="630.5" y="-6.5" font-family="Helvetica,sans-Serif" font-size="10.00">util/delay_basic.h</text>
</a>
</g>
</g>
<!-- Node19&#45;&gt;Node20 -->
<g id="edge34_Node000019_Node000020" class="edge">
<title>Node19&#45;&gt;Node20</title>
<g id="a_edge34_Node000019_Node000020"><a xlink:title=" ">
<path fill="none" stroke="#63b8ff" d="M630.5,-55.59C630.5,-49.01 630.5,-39.96 630.5,-31.73"/>
<polygon fill="#63b8ff" stroke="#63b8ff" points="634,-31.81 630.5,-21.81 627,-31.81 634,-31.81"/>
</a>
</g>
</g>
</g>
</svg>
