<?xml version="1.0" encoding="UTF-8" standalone="no"?>
<!DOCTYPE svg PUBLIC "-//W3C//DTD SVG 1.1//EN"
 "http://www.w3.org/Graphics/SVG/1.1/DTD/svg11.dtd">
<!-- Generated by graphviz version 2.40.1 (20161225.0304)
 -->
<!-- Title: zrtos_vfs_module_spi__on_write Pages: 1 -->
<svg width="1254pt" height="342pt"
 viewBox="0.00 0.00 1254.00 341.50" xmlns="http://www.w3.org/2000/svg" xmlns:xlink="http://www.w3.org/1999/xlink">
<g id="graph0" class="graph" transform="scale(1 1) rotate(0) translate(4 337.5)">
<title>zrtos_vfs_module_spi__on_write</title>
<polygon fill="#ffffff" stroke="transparent" points="-4,4 -4,-337.5 1250,-337.5 1250,4 -4,4"/>
<!-- Node40 -->
<g id="node1" class="node">
<title>Node40</title>
<polygon fill="#bfbfbf" stroke="#000000" points="0,-102.5 0,-132.5 112,-132.5 112,-102.5 0,-102.5"/>
<text text-anchor="start" x="8" y="-120.5" font-family="Helvetica,sans-Serif" font-size="10.00" fill="#000000">zrtos_vfs_module_spi</text>
<text text-anchor="middle" x="56" y="-109.5" font-family="Helvetica,sans-Serif" font-size="10.00" fill="#000000">__on_write</text>
</g>
<!-- Node41 -->
<g id="node2" class="node">
<title>Node41</title>
<g id="a_node2"><a xlink:href="vfs__file_8h.html#a04a201b5b034eb09d22292ec8700a144" target="_top" xlink:title="zrtos_vfs_file__get_data">
<polygon fill="#ffffff" stroke="#000000" points="148,-127 148,-146 271,-146 271,-127 148,-127"/>
<text text-anchor="middle" x="209.5" y="-134" font-family="Helvetica,sans-Serif" font-size="10.00" fill="#000000">zrtos_vfs_file__get_data</text>
</a>
</g>
</g>
<!-- Node40&#45;&gt;Node41 -->
<g id="edge1" class="edge">
<title>Node40&#45;&gt;Node41</title>
<path fill="none" stroke="#191970" d="M112.2861,-124.467C120.5885,-125.4947 129.2356,-126.565 137.7984,-127.6249"/>
<polygon fill="#191970" stroke="#191970" points="137.4319,-131.1061 147.7862,-128.8612 138.2919,-124.1592 137.4319,-131.1061"/>
</g>
<!-- Node42 -->
<g id="node3" class="node">
<title>Node42</title>
<g id="a_node3"><a xlink:href="cbuffer_8h.html#a5d269503e04946737598d2062c5bfaf4" target="_top" xlink:title="zrtos_cbuffer__put_ex">
<polygon fill="#ffffff" stroke="#000000" points="153,-89 153,-108 266,-108 266,-89 153,-89"/>
<text text-anchor="middle" x="209.5" y="-96" font-family="Helvetica,sans-Serif" font-size="10.00" fill="#000000">zrtos_cbuffer__put_ex</text>
</a>
</g>
</g>
<!-- Node40&#45;&gt;Node42 -->
<g id="edge2" class="edge">
<title>Node40&#45;&gt;Node42</title>
<path fill="none" stroke="#191970" d="M112.2861,-110.533C122.2329,-109.3018 132.6745,-108.0093 142.8733,-106.747"/>
<polygon fill="#191970" stroke="#191970" points="143.4696,-110.1999 152.9639,-105.498 142.6096,-103.253 143.4696,-110.1999"/>
</g>
<!-- Node43 -->
<g id="node4" class="node">
<title>Node43</title>
<g id="a_node4"><a xlink:href="cbuffer_8h.html#aaf9c5c04a1350c2cdd906f7c7081ee38" target="_top" xlink:title="zrtos_cbuffer__start\l_write_transaction">
<polygon fill="#ffffff" stroke="#000000" points="316.5,-132.5 316.5,-162.5 420.5,-162.5 420.5,-132.5 316.5,-132.5"/>
<text text-anchor="start" x="324.5" y="-150.5" font-family="Helvetica,sans-Serif" font-size="10.00" fill="#000000">zrtos_cbuffer__start</text>
<text text-anchor="middle" x="368.5" y="-139.5" font-family="Helvetica,sans-Serif" font-size="10.00" fill="#000000">_write_transaction</text>
</a>
</g>
</g>
<!-- Node42&#45;&gt;Node43 -->
<g id="edge3" class="edge">
<title>Node42&#45;&gt;Node43</title>
<path fill="none" stroke="#191970" d="M240.5343,-108.064C260.3126,-114.1592 286.5626,-122.2488 310.1382,-129.5143"/>
<polygon fill="#191970" stroke="#191970" points="309.1193,-132.8627 319.7066,-132.463 311.1809,-126.1731 309.1193,-132.8627"/>
</g>
<!-- Node46 -->
<g id="node7" class="node">
<title>Node46</title>
<g id="a_node7"><a xlink:href="error_8h.html#add13298163f63b7d37ed9f12d57e1a31" target="_top" xlink:title="zrtos_error__is_success">
<polygon fill="#ffffff" stroke="#000000" points="307,-45 307,-64 430,-64 430,-45 307,-45"/>
<text text-anchor="middle" x="368.5" y="-52" font-family="Helvetica,sans-Serif" font-size="10.00" fill="#000000">zrtos_error__is_success</text>
</a>
</g>
</g>
<!-- Node42&#45;&gt;Node46 -->
<g id="edge6" class="edge">
<title>Node42&#45;&gt;Node46</title>
<path fill="none" stroke="#191970" d="M244.0006,-88.9527C267.5449,-82.4373 298.9406,-73.7492 324.3133,-66.7278"/>
<polygon fill="#191970" stroke="#191970" points="325.3624,-70.0691 334.0667,-64.0287 323.4954,-63.3226 325.3624,-70.0691"/>
</g>
<!-- Node47 -->
<g id="node8" class="node">
<title>Node47</title>
<g id="a_node8"><a xlink:href="cbuffer_8h.html#afdb6a6176387d77a0f10e28536ba28f9" target="_top" xlink:title="zrtos_cbuffer__put">
<polygon fill="#ffffff" stroke="#000000" points="319.5,-254 319.5,-273 417.5,-273 417.5,-254 319.5,-254"/>
<text text-anchor="middle" x="368.5" y="-261" font-family="Helvetica,sans-Serif" font-size="10.00" fill="#000000">zrtos_cbuffer__put</text>
</a>
</g>
</g>
<!-- Node42&#45;&gt;Node47 -->
<g id="edge7" class="edge">
<title>Node42&#45;&gt;Node47</title>
<path fill="none" stroke="#191970" d="M253.668,-108.019C259.834,-110.4936 265.8223,-113.6011 271,-117.5 294.3382,-135.0744 290.8201,-148.1742 307,-172.5 323.9063,-197.918 343.719,-227.1334 356.1911,-245.4562"/>
<polygon fill="#191970" stroke="#191970" points="353.4667,-247.6736 361.9899,-253.9671 359.2517,-243.7322 353.4667,-247.6736"/>
</g>
<!-- Node56 -->
<g id="node17" class="node">
<title>Node56</title>
<g id="a_node17"><a xlink:href="error_8h.html#af58428a30fbc7fd6967e15504df633a0" target="_top" xlink:title="zrtos_error__is_error">
<polygon fill="#ffffff" stroke="#000000" points="315.5,-7 315.5,-26 421.5,-26 421.5,-7 315.5,-7"/>
<text text-anchor="middle" x="368.5" y="-14" font-family="Helvetica,sans-Serif" font-size="10.00" fill="#000000">zrtos_error__is_error</text>
</a>
</g>
</g>
<!-- Node42&#45;&gt;Node56 -->
<g id="edge18" class="edge">
<title>Node42&#45;&gt;Node56</title>
<path fill="none" stroke="#191970" d="M221.7838,-88.9706C239.6667,-75.4787 274.3104,-50.7562 307,-35.5 311.7515,-33.2825 316.8273,-31.2395 321.9489,-29.3817"/>
<polygon fill="#191970" stroke="#191970" points="323.4395,-32.5718 331.7812,-26.0398 321.1868,-25.9441 323.4395,-32.5718"/>
</g>
<!-- Node57 -->
<g id="node18" class="node">
<title>Node57</title>
<g id="a_node18"><a xlink:href="cbuffer_8h.html#a9aa1ad8581d3c89304d2ff464a53e92e" target="_top" xlink:title="zrtos_cbuffer__rollback\l_write_transaction">
<polygon fill="#ffffff" stroke="#000000" points="309.5,-83.5 309.5,-113.5 427.5,-113.5 427.5,-83.5 309.5,-83.5"/>
<text text-anchor="start" x="317.5" y="-101.5" font-family="Helvetica,sans-Serif" font-size="10.00" fill="#000000">zrtos_cbuffer__rollback</text>
<text text-anchor="middle" x="368.5" y="-90.5" font-family="Helvetica,sans-Serif" font-size="10.00" fill="#000000">_write_transaction</text>
</a>
</g>
</g>
<!-- Node42&#45;&gt;Node57 -->
<g id="edge19" class="edge">
<title>Node42&#45;&gt;Node57</title>
<path fill="none" stroke="#191970" d="M266.0051,-98.5C276.8028,-98.5 288.2197,-98.5 299.3605,-98.5"/>
<polygon fill="#191970" stroke="#191970" points="299.4885,-102.0001 309.4885,-98.5 299.4884,-95.0001 299.4885,-102.0001"/>
</g>
<!-- Node44 -->
<g id="node5" class="node">
<title>Node44</title>
<g id="a_node5"><a xlink:href="cbuffer_8h.html#afe959077d3357696d26590a123e56d62" target="_top" xlink:title="zrtos_cbuffer__get\l_last_node">
<polygon fill="#ffffff" stroke="#000000" points="479,-132.5 479,-162.5 577,-162.5 577,-132.5 479,-132.5"/>
<text text-anchor="start" x="487" y="-150.5" font-family="Helvetica,sans-Serif" font-size="10.00" fill="#000000">zrtos_cbuffer__get</text>
<text text-anchor="middle" x="528" y="-139.5" font-family="Helvetica,sans-Serif" font-size="10.00" fill="#000000">_last_node</text>
</a>
</g>
</g>
<!-- Node43&#45;&gt;Node44 -->
<g id="edge4" class="edge">
<title>Node43&#45;&gt;Node44</title>
<path fill="none" stroke="#191970" d="M420.7263,-147.5C436.0791,-147.5 452.983,-147.5 468.7419,-147.5"/>
<polygon fill="#191970" stroke="#191970" points="468.9045,-151.0001 478.9045,-147.5 468.9044,-144.0001 468.9045,-151.0001"/>
</g>
<!-- Node45 -->
<g id="node6" class="node">
<title>Node45</title>
<g id="a_node6"><a xlink:href="list_8h.html#a0f2fe7ff1e14a9237a955a4925b062e2" target="_top" xlink:title="zrtos_list__get_last_node">
<polygon fill="#ffffff" stroke="#000000" points="1118,-179 1118,-198 1246,-198 1246,-179 1118,-179"/>
<text text-anchor="middle" x="1182" y="-186" font-family="Helvetica,sans-Serif" font-size="10.00" fill="#000000">zrtos_list__get_last_node</text>
</a>
</g>
</g>
<!-- Node44&#45;&gt;Node45 -->
<g id="edge5" class="edge">
<title>Node44&#45;&gt;Node45</title>
<path fill="none" stroke="#191970" d="M577.0978,-147.0173C673.9824,-146.6014 896.469,-148.3088 1082,-169.5 1097.4067,-171.2597 1114.0008,-174.0455 1129.158,-176.9471"/>
<polygon fill="#191970" stroke="#191970" points="1128.9017,-180.4638 1139.3897,-178.9632 1130.255,-173.5959 1128.9017,-180.4638"/>
</g>
<!-- Node47&#45;&gt;Node45 -->
<g id="edge8" class="edge">
<title>Node47&#45;&gt;Node45</title>
<path fill="none" stroke="#191970" d="M394.3382,-273.0864C448.4021,-292.2577 577.752,-333.5 690,-333.5 690,-333.5 690,-333.5 854,-333.5 980.603,-333.5 1113.0269,-242.015 1162.1467,-204.3802"/>
<polygon fill="#191970" stroke="#191970" points="1164.5858,-206.9171 1170.3288,-198.0139 1160.2871,-201.3925 1164.5858,-206.9171"/>
</g>
<!-- Node48 -->
<g id="node9" class="node">
<title>Node48</title>
<g id="a_node9"><a xlink:href="cbuffer_8h.html#a1846e554cfe5e72cc8df6b60ab5c6d84" target="_top" xlink:title="zrtos_cbuffer_node__put">
<polygon fill="#ffffff" stroke="#000000" points="466,-254 466,-273 590,-273 590,-254 466,-254"/>
<text text-anchor="middle" x="528" y="-261" font-family="Helvetica,sans-Serif" font-size="10.00" fill="#000000">zrtos_cbuffer_node__put</text>
</a>
</g>
</g>
<!-- Node47&#45;&gt;Node48 -->
<g id="edge9" class="edge">
<title>Node47&#45;&gt;Node48</title>
<path fill="none" stroke="#191970" d="M417.6567,-263.5C429.6461,-263.5 442.7228,-263.5 455.5459,-263.5"/>
<polygon fill="#191970" stroke="#191970" points="455.7497,-267.0001 465.7497,-263.5 455.7496,-260.0001 455.7497,-267.0001"/>
</g>
<!-- Node49 -->
<g id="node10" class="node">
<title>Node49</title>
<g id="a_node10"><a xlink:href="cbuffer_8h.html#a0f069b28d310b9b6586aeb37ec2fb1f3" target="_top" xlink:title="zrtos_cbuffer_node\l__get_free_space">
<polygon fill="#ffffff" stroke="#000000" points="640,-272.5 640,-302.5 740,-302.5 740,-272.5 640,-272.5"/>
<text text-anchor="start" x="648" y="-290.5" font-family="Helvetica,sans-Serif" font-size="10.00" fill="#000000">zrtos_cbuffer_node</text>
<text text-anchor="middle" x="690" y="-279.5" font-family="Helvetica,sans-Serif" font-size="10.00" fill="#000000">__get_free_space</text>
</a>
</g>
</g>
<!-- Node48&#45;&gt;Node49 -->
<g id="edge10" class="edge">
<title>Node48&#45;&gt;Node49</title>
<path fill="none" stroke="#191970" d="M590.1701,-272.7104C603.1249,-274.6296 616.7601,-276.6496 629.6479,-278.559"/>
<polygon fill="#191970" stroke="#191970" points="629.3913,-282.0591 639.7963,-280.0624 630.4172,-275.1346 629.3913,-282.0591"/>
</g>
<!-- Node51 -->
<g id="node12" class="node">
<title>Node51</title>
<g id="a_node12"><a xlink:href="cbuffer_8h.html#a3cbe982fcebf0d5bbcdae29e3caca316" target="_top" xlink:title="zrtos_cbuffer_node__new">
<polygon fill="#ffffff" stroke="#000000" points="626,-231 626,-250 754,-250 754,-231 626,-231"/>
<text text-anchor="middle" x="690" y="-238" font-family="Helvetica,sans-Serif" font-size="10.00" fill="#000000">zrtos_cbuffer_node__new</text>
</a>
</g>
</g>
<!-- Node48&#45;&gt;Node51 -->
<g id="edge12" class="edge">
<title>Node48&#45;&gt;Node51</title>
<path fill="none" stroke="#191970" d="M590.1701,-254.6734C598.5715,-253.4806 607.259,-252.2472 615.8433,-251.0284"/>
<polygon fill="#191970" stroke="#191970" points="616.441,-254.4787 625.8497,-249.6078 615.457,-247.5482 616.441,-254.4787"/>
</g>
<!-- Node50 -->
<g id="node11" class="node">
<title>Node50</title>
<g id="a_node11"><a xlink:href="cbuffer_8h.html#a640a4e58217d5c24d6e795f0fca19440" target="_top" xlink:title="zrtos_cbuffer_node\l__get_length">
<polygon fill="#ffffff" stroke="#000000" points="804,-274.5 804,-304.5 904,-304.5 904,-274.5 804,-274.5"/>
<text text-anchor="start" x="812" y="-292.5" font-family="Helvetica,sans-Serif" font-size="10.00" fill="#000000">zrtos_cbuffer_node</text>
<text text-anchor="middle" x="854" y="-281.5" font-family="Helvetica,sans-Serif" font-size="10.00" fill="#000000">__get_length</text>
</a>
</g>
</g>
<!-- Node49&#45;&gt;Node50 -->
<g id="edge11" class="edge">
<title>Node49&#45;&gt;Node50</title>
<path fill="none" stroke="#191970" d="M740.0965,-288.1109C757.0264,-288.3174 776.1059,-288.5501 793.7396,-288.7651"/>
<polygon fill="#191970" stroke="#191970" points="793.8859,-292.2671 803.9279,-288.8894 793.9713,-285.2676 793.8859,-292.2671"/>
</g>
<!-- Node52 -->
<g id="node13" class="node">
<title>Node52</title>
<g id="a_node13"><a xlink:href="malloc__limit_8h.html#ad8180a24feb846d598a7a5a6053eb3cc" target="_top" xlink:title="zrtos_malloc_limit\l__malloc">
<polygon fill="#ffffff" stroke="#000000" points="806.5,-225.5 806.5,-255.5 901.5,-255.5 901.5,-225.5 806.5,-225.5"/>
<text text-anchor="start" x="814.5" y="-243.5" font-family="Helvetica,sans-Serif" font-size="10.00" fill="#000000">zrtos_malloc_limit</text>
<text text-anchor="middle" x="854" y="-232.5" font-family="Helvetica,sans-Serif" font-size="10.00" fill="#000000">__malloc</text>
</a>
</g>
</g>
<!-- Node51&#45;&gt;Node52 -->
<g id="edge13" class="edge">
<title>Node51&#45;&gt;Node52</title>
<path fill="none" stroke="#191970" d="M754.3464,-240.5C768.1478,-240.5 782.6495,-240.5 796.1856,-240.5"/>
<polygon fill="#191970" stroke="#191970" points="796.3209,-244.0001 806.3209,-240.5 796.3208,-237.0001 796.3209,-244.0001"/>
</g>
<!-- Node53 -->
<g id="node14" class="node">
<title>Node53</title>
<g id="a_node14"><a xlink:href="cbuffer_8h.html#aeb332726de06c905eb2db32ae3d323eb" target="_top" xlink:title="zrtos_cbuffer_node\l__init">
<polygon fill="#ffffff" stroke="#000000" points="804,-176.5 804,-206.5 904,-206.5 904,-176.5 804,-176.5"/>
<text text-anchor="start" x="812" y="-194.5" font-family="Helvetica,sans-Serif" font-size="10.00" fill="#000000">zrtos_cbuffer_node</text>
<text text-anchor="middle" x="854" y="-183.5" font-family="Helvetica,sans-Serif" font-size="10.00" fill="#000000">__init</text>
</a>
</g>
</g>
<!-- Node51&#45;&gt;Node53 -->
<g id="edge14" class="edge">
<title>Node51&#45;&gt;Node53</title>
<path fill="none" stroke="#191970" d="M722.0102,-230.936C742.4924,-224.8163 769.7035,-216.6862 794.0958,-209.3982"/>
<polygon fill="#191970" stroke="#191970" points="795.4129,-212.6576 803.9924,-206.4413 793.4089,-205.9506 795.4129,-212.6576"/>
</g>
<!-- Node54 -->
<g id="node15" class="node">
<title>Node54</title>
<g id="a_node15"><a xlink:href="list_8h.html#a40feeb4cd0cc4e30201a279240b52429" target="_top" xlink:title="zrtos_list_node__init">
<polygon fill="#ffffff" stroke="#000000" points="965,-217 965,-236 1071,-236 1071,-217 965,-217"/>
<text text-anchor="middle" x="1018" y="-224" font-family="Helvetica,sans-Serif" font-size="10.00" fill="#000000">zrtos_list_node__init</text>
</a>
</g>
</g>
<!-- Node53&#45;&gt;Node54 -->
<g id="edge15" class="edge">
<title>Node53&#45;&gt;Node54</title>
<path fill="none" stroke="#191970" d="M904.0965,-202.1913C922.867,-206.1972 944.2797,-210.767 963.4349,-214.855"/>
<polygon fill="#191970" stroke="#191970" points="962.7098,-218.279 973.2201,-216.9433 964.1709,-211.4332 962.7098,-218.279"/>
</g>
<!-- Node55 -->
<g id="node16" class="node">
<title>Node55</title>
<g id="a_node16"><a xlink:href="list_8h.html#aa734984fb49603438b179f49fff38477" target="_top" xlink:title="zrtos_list__push">
<polygon fill="#ffffff" stroke="#000000" points="974,-179 974,-198 1062,-198 1062,-179 974,-179"/>
<text text-anchor="middle" x="1018" y="-186" font-family="Helvetica,sans-Serif" font-size="10.00" fill="#000000">zrtos_list__push</text>
</a>
</g>
</g>
<!-- Node53&#45;&gt;Node55 -->
<g id="edge16" class="edge">
<title>Node53&#45;&gt;Node55</title>
<path fill="none" stroke="#191970" d="M904.0965,-190.5836C922.9406,-190.2389 944.4477,-189.8455 963.6601,-189.494"/>
<polygon fill="#191970" stroke="#191970" points="963.8335,-192.9915 973.7678,-189.3091 963.7054,-185.9927 963.8335,-192.9915"/>
</g>
<!-- Node55&#45;&gt;Node45 -->
<g id="edge17" class="edge">
<title>Node55&#45;&gt;Node45</title>
<path fill="none" stroke="#191970" d="M1062.3808,-188.5C1076.3877,-188.5 1092.2644,-188.5 1107.7674,-188.5"/>
<polygon fill="#191970" stroke="#191970" points="1107.8777,-192.0001 1117.8777,-188.5 1107.8777,-185.0001 1107.8777,-192.0001"/>
</g>
<!-- Node57&#45;&gt;Node44 -->
<g id="edge20" class="edge">
<title>Node57&#45;&gt;Node44</title>
<path fill="none" stroke="#191970" d="M417.6567,-113.6014C433.9546,-118.6083 452.2617,-124.2324 469.2095,-129.439"/>
<polygon fill="#191970" stroke="#191970" points="468.4186,-132.8574 479.0056,-132.4484 470.4743,-126.166 468.4186,-132.8574"/>
</g>
<!-- Node58 -->
<g id="node19" class="node">
<title>Node58</title>
<g id="a_node19"><a xlink:href="cbuffer_8h.html#ae358d265d5a1d44fa930473e3834bc4c" target="_top" xlink:title="zrtos_cbuffer_node\l__get_next_node">
<polygon fill="#ffffff" stroke="#000000" points="478,-17.5 478,-47.5 578,-47.5 578,-17.5 478,-17.5"/>
<text text-anchor="start" x="486" y="-35.5" font-family="Helvetica,sans-Serif" font-size="10.00" fill="#000000">zrtos_cbuffer_node</text>
<text text-anchor="middle" x="528" y="-24.5" font-family="Helvetica,sans-Serif" font-size="10.00" fill="#000000">__get_next_node</text>
</a>
</g>
</g>
<!-- Node57&#45;&gt;Node58 -->
<g id="edge21" class="edge">
<title>Node57&#45;&gt;Node58</title>
<path fill="none" stroke="#191970" d="M405.5991,-83.4898C413.6502,-80.2126 422.1153,-76.7518 430,-73.5 447.2456,-66.3875 466.1623,-58.4949 482.7375,-51.5489"/>
<polygon fill="#191970" stroke="#191970" points="484.3279,-54.6773 492.1957,-47.5816 481.6203,-48.2221 484.3279,-54.6773"/>
</g>
<!-- Node60 -->
<g id="node21" class="node">
<title>Node60</title>
<g id="a_node21"><a xlink:href="cbuffer_8h.html#afc85ab6d8226b4a1b93d11c2ba1203f6" target="_top" xlink:title="zrtos_cbuffer_node\l__free">
<polygon fill="#ffffff" stroke="#000000" points="478,-83.5 478,-113.5 578,-113.5 578,-83.5 478,-83.5"/>
<text text-anchor="start" x="486" y="-101.5" font-family="Helvetica,sans-Serif" font-size="10.00" fill="#000000">zrtos_cbuffer_node</text>
<text text-anchor="middle" x="528" y="-90.5" font-family="Helvetica,sans-Serif" font-size="10.00" fill="#000000">__free</text>
</a>
</g>
</g>
<!-- Node57&#45;&gt;Node60 -->
<g id="edge23" class="edge">
<title>Node57&#45;&gt;Node60</title>
<path fill="none" stroke="#191970" d="M427.8919,-98.5C440.891,-98.5 454.6635,-98.5 467.6978,-98.5"/>
<polygon fill="#191970" stroke="#191970" points="467.964,-102.0001 477.964,-98.5 467.964,-95.0001 467.964,-102.0001"/>
</g>
<!-- Node59 -->
<g id="node20" class="node">
<title>Node59</title>
<g id="a_node20"><a xlink:href="list_8h.html#a454de0a8188c1b5a4ffeddd230b42c93" target="_top" xlink:title="zrtos_list_node__get\l_next_node">
<polygon fill="#ffffff" stroke="#000000" points="636.5,-.5 636.5,-30.5 743.5,-30.5 743.5,-.5 636.5,-.5"/>
<text text-anchor="start" x="644.5" y="-18.5" font-family="Helvetica,sans-Serif" font-size="10.00" fill="#000000">zrtos_list_node__get</text>
<text text-anchor="middle" x="690" y="-7.5" font-family="Helvetica,sans-Serif" font-size="10.00" fill="#000000">_next_node</text>
</a>
</g>
</g>
<!-- Node58&#45;&gt;Node59 -->
<g id="edge22" class="edge">
<title>Node58&#45;&gt;Node59</title>
<path fill="none" stroke="#191970" d="M578.3698,-27.2143C593.4558,-25.6312 610.2043,-23.8736 626.0422,-22.2116"/>
<polygon fill="#191970" stroke="#191970" points="626.7118,-25.6607 636.2919,-21.136 625.9812,-18.6989 626.7118,-25.6607"/>
</g>
<!-- Node61 -->
<g id="node22" class="node">
<title>Node61</title>
<g id="a_node22"><a xlink:href="list_8h.html#a2b11d9c6f775a209430f16b719a19617" target="_top" xlink:title="zrtos_list__delete">
<polygon fill="#ffffff" stroke="#000000" points="643.5,-50 643.5,-69 736.5,-69 736.5,-50 643.5,-50"/>
<text text-anchor="middle" x="690" y="-57" font-family="Helvetica,sans-Serif" font-size="10.00" fill="#000000">zrtos_list__delete</text>
</a>
</g>
</g>
<!-- Node60&#45;&gt;Node61 -->
<g id="edge24" class="edge">
<title>Node60&#45;&gt;Node61</title>
<path fill="none" stroke="#191970" d="M578.3698,-86.3739C598.2342,-81.5918 620.9808,-76.1157 640.7359,-71.3599"/>
<polygon fill="#191970" stroke="#191970" points="641.5612,-74.7613 650.4642,-69.0179 639.9228,-67.9557 641.5612,-74.7613"/>
</g>
<!-- Node64 -->
<g id="node25" class="node">
<title>Node64</title>
<g id="a_node25"><a xlink:href="malloc__limit_8h.html#ad9dc03f9dd447b3ffb64b0ec3873f61f" target="_top" xlink:title="zrtos_malloc_limit\l__free">
<polygon fill="#ffffff" stroke="#000000" points="642.5,-88.5 642.5,-118.5 737.5,-118.5 737.5,-88.5 642.5,-88.5"/>
<text text-anchor="start" x="650.5" y="-106.5" font-family="Helvetica,sans-Serif" font-size="10.00" fill="#000000">zrtos_malloc_limit</text>
<text text-anchor="middle" x="690" y="-95.5" font-family="Helvetica,sans-Serif" font-size="10.00" fill="#000000">__free</text>
</a>
</g>
</g>
<!-- Node60&#45;&gt;Node64 -->
<g id="edge28" class="edge">
<title>Node60&#45;&gt;Node64</title>
<path fill="none" stroke="#191970" d="M578.3698,-100.0546C595.4513,-100.5818 614.6642,-101.1748 632.2734,-101.7183"/>
<polygon fill="#191970" stroke="#191970" points="632.3246,-105.2215 642.4279,-102.0317 632.5406,-98.2248 632.3246,-105.2215"/>
</g>
<!-- Node62 -->
<g id="node23" class="node">
<title>Node62</title>
<g id="a_node23"><a xlink:href="list_8h.html#a5a9358f4b25c9376dbdef338fa8333a6" target="_top" xlink:title="zrtos_list__get_first_node">
<polygon fill="#ffffff" stroke="#000000" points="954,-34 954,-53 1082,-53 1082,-34 954,-34"/>
<text text-anchor="middle" x="1018" y="-41" font-family="Helvetica,sans-Serif" font-size="10.00" fill="#000000">zrtos_list__get_first_node</text>
</a>
</g>
</g>
<!-- Node61&#45;&gt;Node62 -->
<g id="edge25" class="edge">
<title>Node61&#45;&gt;Node62</title>
<path fill="none" stroke="#191970" d="M736.6196,-50.469C753.3806,-47.6395 772.4734,-44.8933 790,-43.5 841.0672,-39.4404 898.7719,-39.4854 943.3515,-40.5225"/>
<polygon fill="#191970" stroke="#191970" points="943.4349,-44.0256 953.5208,-40.7814 943.6132,-37.0279 943.4349,-44.0256"/>
</g>
<!-- Node63 -->
<g id="node24" class="node">
<title>Node63</title>
<g id="a_node24"><a xlink:href="list_8h.html#aee76d71632ab03e18ad9358fc8b35044" target="_top" xlink:title="zrtos_list__shift">
<polygon fill="#ffffff" stroke="#000000" points="811,-53 811,-72 897,-72 897,-53 811,-53"/>
<text text-anchor="middle" x="854" y="-60" font-family="Helvetica,sans-Serif" font-size="10.00" fill="#000000">zrtos_list__shift</text>
</a>
</g>
</g>
<!-- Node61&#45;&gt;Node63 -->
<g id="edge26" class="edge">
<title>Node61&#45;&gt;Node63</title>
<path fill="none" stroke="#191970" d="M736.5571,-60.3517C756.567,-60.7177 780.0635,-61.1475 800.7609,-61.5261"/>
<polygon fill="#191970" stroke="#191970" points="800.9189,-65.0295 810.9813,-61.7131 801.047,-58.0307 800.9189,-65.0295"/>
</g>
<!-- Node63&#45;&gt;Node62 -->
<g id="edge27" class="edge">
<title>Node63&#45;&gt;Node62</title>
<path fill="none" stroke="#191970" d="M897.0891,-57.508C911.3357,-55.8575 927.6222,-53.9706 943.5278,-52.1279"/>
<polygon fill="#191970" stroke="#191970" points="944.369,-55.5539 953.8997,-50.9263 943.5633,-48.6004 944.369,-55.5539"/>
</g>
<!-- Node65 -->
<g id="node26" class="node">
<title>Node65</title>
<g id="a_node26"><a xlink:href="malloc_8h.html#aeba49dabb0a21ae4e02fa137e195bb1d" target="_top" xlink:title="zrtos_malloc__get_length">
<polygon fill="#ffffff" stroke="#000000" points="790,-94 790,-113 918,-113 918,-94 790,-94"/>
<text text-anchor="middle" x="854" y="-101" font-family="Helvetica,sans-Serif" font-size="10.00" fill="#000000">zrtos_malloc__get_length</text>
</a>
</g>
</g>
<!-- Node64&#45;&gt;Node65 -->
<g id="edge29" class="edge">
<title>Node64&#45;&gt;Node65</title>
<path fill="none" stroke="#191970" d="M737.8765,-103.5C750.962,-103.5 765.4587,-103.5 779.6473,-103.5"/>
<polygon fill="#191970" stroke="#191970" points="779.8998,-107.0001 789.8997,-103.5 779.8997,-100.0001 779.8998,-107.0001"/>
</g>
</g>
</svg>
