<?xml version="1.0" encoding="UTF-8" standalone="no"?>
<!DOCTYPE svg PUBLIC "-//W3C//DTD SVG 1.1//EN"
 "http://www.w3.org/Graphics/SVG/1.1/DTD/svg11.dtd">
<!-- Generated by graphviz version 2.40.1 (20161225.0304)
 -->
<!-- Title: zrtos_vfs_module_spi_file__deinit Pages: 1 -->
<svg width="1006pt" height="159pt"
 viewBox="0.00 0.00 1006.00 158.50" xmlns="http://www.w3.org/2000/svg" xmlns:xlink="http://www.w3.org/1999/xlink">
<g id="graph0" class="graph" transform="scale(1 1) rotate(0) translate(4 154.5)">
<title>zrtos_vfs_module_spi_file__deinit</title>
<polygon fill="#ffffff" stroke="transparent" points="-4,4 -4,-154.5 1002,-154.5 1002,4 -4,4"/>
<!-- Node211 -->
<g id="node1" class="node">
<title>Node211</title>
<polygon fill="#bfbfbf" stroke="#000000" points="0,-25.5 0,-55.5 112,-55.5 112,-25.5 0,-25.5"/>
<text text-anchor="start" x="8" y="-43.5" font-family="Helvetica,sans-Serif" font-size="10.00" fill="#000000">zrtos_vfs_module_spi</text>
<text text-anchor="middle" x="56" y="-32.5" font-family="Helvetica,sans-Serif" font-size="10.00" fill="#000000">_file__deinit</text>
</g>
<!-- Node212 -->
<g id="node2" class="node">
<title>Node212</title>
<g id="a_node2"><a xlink:href="cbuffer_8h.html#ac432ff17b01aedab263746e01d2df060" target="_top" xlink:title="zrtos_cbuffer__deinit">
<polygon fill="#ffffff" stroke="#000000" points="148,-55 148,-74 255,-74 255,-55 148,-55"/>
<text text-anchor="middle" x="201.5" y="-62" font-family="Helvetica,sans-Serif" font-size="10.00" fill="#000000">zrtos_cbuffer__deinit</text>
</a>
</g>
</g>
<!-- Node211&#45;&gt;Node212 -->
<g id="edge1" class="edge">
<title>Node211&#45;&gt;Node212</title>
<path fill="none" stroke="#191970" d="M112.2541,-49.779C120.6458,-51.1632 129.3465,-52.5984 137.8772,-54.0055"/>
<polygon fill="#191970" stroke="#191970" points="137.3483,-57.4655 147.7846,-55.6397 138.4876,-50.5588 137.3483,-57.4655"/>
</g>
<!-- Node222 -->
<g id="node12" class="node">
<title>Node222</title>
<g id="a_node12"><a xlink:href="clist_8h.html#a383b927f3eeb7f78f5ae9929138a635f" target="_top" xlink:title="zrtos_clist__delete">
<polygon fill="#ffffff" stroke="#000000" points="152.5,-12 152.5,-31 250.5,-31 250.5,-12 152.5,-12"/>
<text text-anchor="middle" x="201.5" y="-19" font-family="Helvetica,sans-Serif" font-size="10.00" fill="#000000">zrtos_clist__delete</text>
</a>
</g>
</g>
<!-- Node211&#45;&gt;Node222 -->
<g id="edge14" class="edge">
<title>Node211&#45;&gt;Node222</title>
<path fill="none" stroke="#191970" d="M112.2541,-33.1541C121.9877,-31.883 132.1372,-30.5577 141.9548,-29.2757"/>
<polygon fill="#191970" stroke="#191970" points="142.5715,-32.7249 152.0341,-27.9595 141.6651,-25.7839 142.5715,-32.7249"/>
</g>
<!-- Node213 -->
<g id="node3" class="node">
<title>Node213</title>
<g id="a_node3"><a xlink:href="list_8h.html#ab2efaa1af7b804994b227ea5436bea39" target="_top" xlink:title="zrtos_list__deinit">
<polygon fill="#ffffff" stroke="#000000" points="577.5,-99 577.5,-118 667.5,-118 667.5,-99 577.5,-99"/>
<text text-anchor="middle" x="622.5" y="-106" font-family="Helvetica,sans-Serif" font-size="10.00" fill="#000000">zrtos_list__deinit</text>
</a>
</g>
</g>
<!-- Node212&#45;&gt;Node213 -->
<g id="edge2" class="edge">
<title>Node212&#45;&gt;Node213</title>
<path fill="none" stroke="#191970" d="M229.7655,-74.0804C247.2047,-79.5673 270.1522,-86.0324 291,-89.5 387.2151,-105.5033 501.0561,-108.6522 567.1944,-108.9478"/>
<polygon fill="#191970" stroke="#191970" points="567.3812,-112.4481 577.3896,-108.9722 567.3981,-105.4481 567.3812,-112.4481"/>
</g>
<!-- Node217 -->
<g id="node7" class="node">
<title>Node217</title>
<g id="a_node7"><a xlink:href="cbuffer_8h.html#a5100fc709c08ad12bbce96e5320b3e3d" target="_top" xlink:title="zrtos_cbuffer__deinit\l_callback">
<polygon fill="#ffffff" stroke="#000000" points="293.5,-49.5 293.5,-79.5 400.5,-79.5 400.5,-49.5 293.5,-49.5"/>
<text text-anchor="start" x="301.5" y="-67.5" font-family="Helvetica,sans-Serif" font-size="10.00" fill="#000000">zrtos_cbuffer__deinit</text>
<text text-anchor="middle" x="347" y="-56.5" font-family="Helvetica,sans-Serif" font-size="10.00" fill="#000000">_callback</text>
</a>
</g>
</g>
<!-- Node212&#45;&gt;Node217 -->
<g id="edge7" class="edge">
<title>Node212&#45;&gt;Node217</title>
<path fill="none" stroke="#191970" d="M255.2654,-64.5C264.4206,-64.5 274.0071,-64.5 283.3876,-64.5"/>
<polygon fill="#191970" stroke="#191970" points="283.4556,-68.0001 293.4555,-64.5 283.4555,-61.0001 283.4556,-68.0001"/>
</g>
<!-- Node214 -->
<g id="node4" class="node">
<title>Node214</title>
<g id="a_node4"><a xlink:href="list_8h.html#a19f2741be75dd514c2227963d8c629dd" target="_top" xlink:title="zrtos_list__is_empty">
<polygon fill="#ffffff" stroke="#000000" points="716.5,-131 716.5,-150 823.5,-150 823.5,-131 716.5,-131"/>
<text text-anchor="middle" x="770" y="-138" font-family="Helvetica,sans-Serif" font-size="10.00" fill="#000000">zrtos_list__is_empty</text>
</a>
</g>
</g>
<!-- Node213&#45;&gt;Node214 -->
<g id="edge3" class="edge">
<title>Node213&#45;&gt;Node214</title>
<path fill="none" stroke="#191970" d="M666.3555,-118.0144C681.9675,-121.4014 699.7309,-125.2552 716.0878,-128.8038"/>
<polygon fill="#191970" stroke="#191970" points="715.544,-132.2672 726.0588,-130.967 717.0282,-125.4263 715.544,-132.2672"/>
</g>
<!-- Node216 -->
<g id="node6" class="node">
<title>Node216</title>
<g id="a_node6"><a xlink:href="list_8h.html#aee76d71632ab03e18ad9358fc8b35044" target="_top" xlink:title="zrtos_list__shift">
<polygon fill="#ffffff" stroke="#000000" points="727,-93 727,-112 813,-112 813,-93 727,-93"/>
<text text-anchor="middle" x="770" y="-100" font-family="Helvetica,sans-Serif" font-size="10.00" fill="#000000">zrtos_list__shift</text>
</a>
</g>
</g>
<!-- Node213&#45;&gt;Node216 -->
<g id="edge5" class="edge">
<title>Node213&#45;&gt;Node216</title>
<path fill="none" stroke="#191970" d="M667.5563,-106.6672C683.0543,-106.0368 700.555,-105.3249 716.6491,-104.6702"/>
<polygon fill="#191970" stroke="#191970" points="717.1374,-108.1533 726.9869,-104.2497 716.8529,-101.1591 717.1374,-108.1533"/>
</g>
<!-- Node215 -->
<g id="node5" class="node">
<title>Node215</title>
<g id="a_node5"><a xlink:href="list_8h.html#a5a9358f4b25c9376dbdef338fa8333a6" target="_top" xlink:title="zrtos_list__get_first_node">
<polygon fill="#ffffff" stroke="#000000" points="870,-93 870,-112 998,-112 998,-93 870,-93"/>
<text text-anchor="middle" x="934" y="-100" font-family="Helvetica,sans-Serif" font-size="10.00" fill="#000000">zrtos_list__get_first_node</text>
</a>
</g>
</g>
<!-- Node214&#45;&gt;Node215 -->
<g id="edge4" class="edge">
<title>Node214&#45;&gt;Node215</title>
<path fill="none" stroke="#191970" d="M811.3841,-130.911C833.1232,-125.8739 859.9575,-119.6562 882.9747,-114.3229"/>
<polygon fill="#191970" stroke="#191970" points="883.9616,-117.6871 892.9135,-112.0201 882.3815,-110.8677 883.9616,-117.6871"/>
</g>
<!-- Node216&#45;&gt;Node215 -->
<g id="edge6" class="edge">
<title>Node216&#45;&gt;Node215</title>
<path fill="none" stroke="#191970" d="M813.0891,-102.5C827.3357,-102.5 843.6222,-102.5 859.5278,-102.5"/>
<polygon fill="#191970" stroke="#191970" points="859.8998,-106.0001 869.8997,-102.5 859.8997,-99.0001 859.8998,-106.0001"/>
</g>
<!-- Node218 -->
<g id="node8" class="node">
<title>Node218</title>
<g id="a_node8"><a xlink:href="cbuffer_8h.html#afc85ab6d8226b4a1b93d11c2ba1203f6" target="_top" xlink:title="zrtos_cbuffer_node\l__free">
<polygon fill="#ffffff" stroke="#000000" points="439,-49.5 439,-79.5 539,-79.5 539,-49.5 439,-49.5"/>
<text text-anchor="start" x="447" y="-67.5" font-family="Helvetica,sans-Serif" font-size="10.00" fill="#000000">zrtos_cbuffer_node</text>
<text text-anchor="middle" x="489" y="-56.5" font-family="Helvetica,sans-Serif" font-size="10.00" fill="#000000">__free</text>
</a>
</g>
</g>
<!-- Node217&#45;&gt;Node218 -->
<g id="edge8" class="edge">
<title>Node217&#45;&gt;Node218</title>
<path fill="none" stroke="#191970" d="M400.6841,-64.5C409.9124,-64.5 419.5564,-64.5 428.9392,-64.5"/>
<polygon fill="#191970" stroke="#191970" points="428.9861,-68.0001 438.986,-64.5 428.986,-61.0001 428.9861,-68.0001"/>
</g>
<!-- Node219 -->
<g id="node9" class="node">
<title>Node219</title>
<g id="a_node9"><a xlink:href="list_8h.html#a2b11d9c6f775a209430f16b719a19617" target="_top" xlink:title="zrtos_list__delete">
<polygon fill="#ffffff" stroke="#000000" points="576,-58 576,-77 669,-77 669,-58 576,-58"/>
<text text-anchor="middle" x="622.5" y="-65" font-family="Helvetica,sans-Serif" font-size="10.00" fill="#000000">zrtos_list__delete</text>
</a>
</g>
</g>
<!-- Node218&#45;&gt;Node219 -->
<g id="edge9" class="edge">
<title>Node218&#45;&gt;Node219</title>
<path fill="none" stroke="#191970" d="M539.0903,-65.6256C547.7051,-65.8192 556.7154,-66.0217 565.4959,-66.219"/>
<polygon fill="#191970" stroke="#191970" points="565.584,-69.7218 575.6602,-66.4474 565.7414,-62.7235 565.584,-69.7218"/>
</g>
<!-- Node220 -->
<g id="node10" class="node">
<title>Node220</title>
<g id="a_node10"><a xlink:href="malloc__limit_8h.html#ad9dc03f9dd447b3ffb64b0ec3873f61f" target="_top" xlink:title="zrtos_malloc_limit\l__free">
<polygon fill="#ffffff" stroke="#000000" points="575,-8.5 575,-38.5 670,-38.5 670,-8.5 575,-8.5"/>
<text text-anchor="start" x="583" y="-26.5" font-family="Helvetica,sans-Serif" font-size="10.00" fill="#000000">zrtos_malloc_limit</text>
<text text-anchor="middle" x="622.5" y="-15.5" font-family="Helvetica,sans-Serif" font-size="10.00" fill="#000000">__free</text>
</a>
</g>
</g>
<!-- Node218&#45;&gt;Node220 -->
<g id="edge12" class="edge">
<title>Node218&#45;&gt;Node220</title>
<path fill="none" stroke="#191970" d="M537.9524,-49.4659C546.8056,-46.747 556.1093,-43.8896 565.1763,-41.105"/>
<polygon fill="#191970" stroke="#191970" points="566.3576,-44.4036 574.8894,-38.122 564.3025,-37.7121 566.3576,-44.4036"/>
</g>
<!-- Node219&#45;&gt;Node215 -->
<g id="edge10" class="edge">
<title>Node219&#45;&gt;Node215</title>
<path fill="none" stroke="#191970" d="M669.2805,-69.5295C712.2414,-71.7509 777.5996,-76.0326 834,-83.5 848.8034,-85.46 864.7294,-88.1961 879.4241,-90.9825"/>
<polygon fill="#191970" stroke="#191970" points="878.8883,-94.4438 889.3716,-92.9107 880.2204,-87.5717 878.8883,-94.4438"/>
</g>
<!-- Node219&#45;&gt;Node216 -->
<g id="edge11" class="edge">
<title>Node219&#45;&gt;Node216</title>
<path fill="none" stroke="#191970" d="M662.805,-77.0639C680.4468,-81.2501 701.328,-86.2049 719.9525,-90.6243"/>
<polygon fill="#191970" stroke="#191970" points="719.2058,-94.0443 729.7437,-92.9477 720.822,-87.2334 719.2058,-94.0443"/>
</g>
<!-- Node221 -->
<g id="node11" class="node">
<title>Node221</title>
<g id="a_node11"><a xlink:href="malloc_8h.html#aeba49dabb0a21ae4e02fa137e195bb1d" target="_top" xlink:title="zrtos_malloc__get_length">
<polygon fill="#ffffff" stroke="#000000" points="706,-14 706,-33 834,-33 834,-14 706,-14"/>
<text text-anchor="middle" x="770" y="-21" font-family="Helvetica,sans-Serif" font-size="10.00" fill="#000000">zrtos_malloc__get_length</text>
</a>
</g>
</g>
<!-- Node220&#45;&gt;Node221 -->
<g id="edge13" class="edge">
<title>Node220&#45;&gt;Node221</title>
<path fill="none" stroke="#191970" d="M670.389,-23.5C678.5512,-23.5 687.1973,-23.5 695.8507,-23.5"/>
<polygon fill="#191970" stroke="#191970" points="695.9839,-27.0001 705.9839,-23.5 695.9838,-20.0001 695.9839,-27.0001"/>
</g>
<!-- Node223 -->
<g id="node13" class="node">
<title>Node223</title>
<g id="a_node13"><a xlink:href="clist_8h.html#adc7d3acc850be7934c1c38390033a93d" target="_top" xlink:title="zrtos_clist_node__get\l_previous_node">
<polygon fill="#ffffff" stroke="#000000" points="291,-.5 291,-30.5 403,-30.5 403,-.5 291,-.5"/>
<text text-anchor="start" x="299" y="-18.5" font-family="Helvetica,sans-Serif" font-size="10.00" fill="#000000">zrtos_clist_node__get</text>
<text text-anchor="middle" x="347" y="-7.5" font-family="Helvetica,sans-Serif" font-size="10.00" fill="#000000">_previous_node</text>
</a>
</g>
</g>
<!-- Node222&#45;&gt;Node223 -->
<g id="edge15" class="edge">
<title>Node222&#45;&gt;Node223</title>
<path fill="none" stroke="#191970" d="M250.7597,-19.4687C260.4055,-19.0709 270.6684,-18.6477 280.7628,-18.2314"/>
<polygon fill="#191970" stroke="#191970" points="280.9247,-21.7278 290.7719,-17.8187 280.6362,-14.7338 280.9247,-21.7278"/>
</g>
</g>
</svg>
