<?xml version="1.0" encoding="UTF-8" standalone="no"?>
<!DOCTYPE svg PUBLIC "-//W3C//DTD SVG 1.1//EN"
 "http://www.w3.org/Graphics/SVG/1.1/DTD/svg11.dtd">
<!-- Generated by graphviz version 10.0.1 (20240210.2158)
 -->
<!-- Title: sram.h Pages: 1 -->
<svg width="653pt" height="432pt"
 viewBox="0.00 0.00 653.00 432.00" xmlns="http://www.w3.org/2000/svg" xmlns:xlink="http://www.w3.org/1999/xlink">
<g id="graph0" class="graph" transform="scale(1 1) rotate(0) translate(4 428)">
<title>sram.h</title>
<!-- Node1 -->
<g id="Node000001" class="node">
<title>Node1</title>
<g id="a_Node000001"><a xlink:title=" ">
<polygon fill="#999999" stroke="#666666" points="365,-424 319,-424 319,-404 365,-404 365,-424"/>
<text text-anchor="middle" x="342" y="-410.5" font-family="Helvetica,sans-Serif" font-size="10.00">sram.h</text>
</a>
</g>
</g>
<!-- Node2 -->
<g id="Node000002" class="node">
<title>Node2</title>
<g id="a_Node000002"><a xlink:href="vfs__module_8h.html" target="_top" xlink:title=" ">
<polygon fill="white" stroke="#666666" points="390.5,-368 293.5,-368 293.5,-348 390.5,-348 390.5,-368"/>
<text text-anchor="middle" x="342" y="-354.5" font-family="Helvetica,sans-Serif" font-size="10.00">zrtos/vfs_module.h</text>
</a>
</g>
</g>
<!-- Node1&#45;&gt;Node2 -->
<g id="edge1_Node000001_Node000002" class="edge">
<title>Node1&#45;&gt;Node2</title>
<g id="a_edge1_Node000001_Node000002"><a xlink:title=" ">
<path fill="none" stroke="#63b8ff" d="M342,-403.59C342,-397.01 342,-387.96 342,-379.73"/>
<polygon fill="#63b8ff" stroke="#63b8ff" points="345.5,-379.81 342,-369.81 338.5,-379.81 345.5,-379.81"/>
</a>
</g>
</g>
<!-- Node3 -->
<g id="Node000003" class="node">
<title>Node3</title>
<g id="a_Node000003"><a xlink:href="error_8h.html" target="_top" xlink:title=" ">
<polygon fill="white" stroke="#666666" points="108.25,-76 39.75,-76 39.75,-56 108.25,-56 108.25,-76"/>
<text text-anchor="middle" x="74" y="-62.5" font-family="Helvetica,sans-Serif" font-size="10.00">zrtos/error.h</text>
</a>
</g>
</g>
<!-- Node2&#45;&gt;Node3 -->
<g id="edge2_Node000002_Node000003" class="edge">
<title>Node2&#45;&gt;Node3</title>
<g id="a_edge2_Node000002_Node000003"><a xlink:title=" ">
<path fill="none" stroke="#63b8ff" d="M293.36,-351.64C198.94,-339.89 0,-307.89 0,-247 0,-247 0,-247 0,-183 0,-142.48 32.49,-104.73 54.41,-83.87"/>
<polygon fill="#63b8ff" stroke="#63b8ff" points="56.62,-86.59 61.64,-77.26 51.9,-81.42 56.62,-86.59"/>
</a>
</g>
</g>
<!-- Node7 -->
<g id="Node000007" class="node">
<title>Node7</title>
<g id="a_Node000007"><a xlink:href="types_8h.html" target="_top" xlink:title=" ">
<polygon fill="white" stroke="#666666" points="403.5,-76 330.5,-76 330.5,-56 403.5,-56 403.5,-76"/>
<text text-anchor="middle" x="367" y="-62.5" font-family="Helvetica,sans-Serif" font-size="10.00">zrtos/types.h</text>
</a>
</g>
</g>
<!-- Node2&#45;&gt;Node7 -->
<g id="edge6_Node000002_Node000007" class="edge">
<title>Node2&#45;&gt;Node7</title>
<g id="a_edge6_Node000002_Node000007"><a xlink:title=" ">
<path fill="none" stroke="#63b8ff" d="M390.91,-357.6C467.48,-355.69 607,-339.53 607,-247 607,-247 607,-247 607,-183 607,-146.78 596.06,-133.62 567,-112 522.79,-79.12 458.91,-69.55 415.32,-67.12"/>
<polygon fill="#63b8ff" stroke="#63b8ff" points="415.53,-63.63 405.39,-66.69 415.22,-70.62 415.53,-63.63"/>
</a>
</g>
</g>
<!-- Node11 -->
<g id="Node000011" class="node">
<title>Node11</title>
<g id="a_Node000011"><a xlink:href="cast_8h.html" target="_top" xlink:title=" ">
<polygon fill="white" stroke="#666666" points="546.88,-20 479.12,-20 479.12,0 546.88,0 546.88,-20"/>
<text text-anchor="middle" x="513" y="-6.5" font-family="Helvetica,sans-Serif" font-size="10.00">zrtos/cast.h</text>
</a>
</g>
</g>
<!-- Node2&#45;&gt;Node11 -->
<g id="edge13_Node000002_Node000011" class="edge">
<title>Node2&#45;&gt;Node11</title>
<g id="a_edge13_Node000002_Node000011"><a xlink:title=" ">
<path fill="none" stroke="#63b8ff" d="M390.97,-352.79C455.35,-346.52 564.25,-333.13 598,-312 628.22,-293.08 645,-282.65 645,-247 645,-247 645,-247 645,-121 645,-72.33 591.38,-41.01 552.49,-24.7"/>
<polygon fill="#63b8ff" stroke="#63b8ff" points="553.96,-21.52 543.37,-21.06 551.36,-28.02 553.96,-21.52"/>
</a>
</g>
</g>
<!-- Node12 -->
<g id="Node000012" class="node">
<title>Node12</title>
<g id="a_Node000012"><a xlink:href="vfs__plugin_8h.html" target="_top" xlink:title=" ">
<polygon fill="white" stroke="#666666" points="208.5,-132 117.5,-132 117.5,-112 208.5,-112 208.5,-132"/>
<text text-anchor="middle" x="163" y="-118.5" font-family="Helvetica,sans-Serif" font-size="10.00">zrtos/vfs_plugin.h</text>
</a>
</g>
</g>
<!-- Node2&#45;&gt;Node12 -->
<g id="edge14_Node000002_Node000012" class="edge">
<title>Node2&#45;&gt;Node12</title>
<g id="a_edge14_Node000002_Node000012"><a xlink:title=" ">
<path fill="none" stroke="#63b8ff" d="M309.16,-347.52C253.24,-329.39 141.11,-283.95 95,-200 88.15,-187.53 88.27,-180.53 95,-168 102.14,-154.72 115.11,-144.7 127.82,-137.52"/>
<polygon fill="#63b8ff" stroke="#63b8ff" points="129.21,-140.75 136.5,-133.07 126.01,-134.52 129.21,-140.75"/>
</a>
</g>
</g>
<!-- Node14 -->
<g id="Node000014" class="node">
<title>Node14</title>
<g id="a_Node000014"><a xlink:href="vfs__file_8h.html" target="_top" xlink:title=" ">
<polygon fill="white" stroke="#666666" points="414.75,-312 337.25,-312 337.25,-292 414.75,-292 414.75,-312"/>
<text text-anchor="middle" x="376" y="-298.5" font-family="Helvetica,sans-Serif" font-size="10.00">zrtos/vfs_file.h</text>
</a>
</g>
</g>
<!-- Node2&#45;&gt;Node14 -->
<g id="edge18_Node000002_Node000014" class="edge">
<title>Node2&#45;&gt;Node14</title>
<g id="a_edge18_Node000002_Node000014"><a xlink:title=" ">
<path fill="none" stroke="#63b8ff" d="M347.92,-347.59C352.36,-340.55 358.58,-330.67 364.04,-322"/>
<polygon fill="#63b8ff" stroke="#63b8ff" points="366.97,-323.91 369.34,-313.58 361.05,-320.18 366.97,-323.91"/>
</a>
</g>
</g>
<!-- Node17 -->
<g id="Node000017" class="node">
<title>Node17</title>
<g id="a_Node000017"><a xlink:href="vfs__dentry_8h.html" target="_top" xlink:title=" ">
<polygon fill="white" stroke="#666666" points="389.25,-256 296.75,-256 296.75,-236 389.25,-236 389.25,-256"/>
<text text-anchor="middle" x="343" y="-242.5" font-family="Helvetica,sans-Serif" font-size="10.00">zrtos/vfs_dentry.h</text>
</a>
</g>
</g>
<!-- Node2&#45;&gt;Node17 -->
<g id="edge38_Node000002_Node000017" class="edge">
<title>Node2&#45;&gt;Node17</title>
<g id="a_edge38_Node000002_Node000017"><a xlink:title=" ">
<path fill="none" stroke="#63b8ff" d="M337.8,-347.8C332.58,-335.26 324.75,-312.05 328,-292 329.35,-283.68 332.02,-274.82 334.74,-267.18"/>
<polygon fill="#63b8ff" stroke="#63b8ff" points="338,-268.43 338.32,-257.84 331.47,-265.92 338,-268.43"/>
</a>
</g>
</g>
<!-- Node4 -->
<g id="Node000004" class="node">
<title>Node4</title>
<g id="a_Node000004"><a xlink:title=" ">
<polygon fill="#e0e0e0" stroke="#999999" points="176.75,-20 129.25,-20 129.25,0 176.75,0 176.75,-20"/>
<text text-anchor="middle" x="153" y="-6.5" font-family="Helvetica,sans-Serif" font-size="10.00">limits.h</text>
</a>
</g>
</g>
<!-- Node3&#45;&gt;Node4 -->
<g id="edge3_Node000003_Node000004" class="edge">
<title>Node3&#45;&gt;Node4</title>
<g id="a_edge3_Node000003_Node000004"><a xlink:title=" ">
<path fill="none" stroke="#63b8ff" d="M87.76,-55.59C99.36,-47.67 116.2,-36.16 129.86,-26.82"/>
<polygon fill="#63b8ff" stroke="#63b8ff" points="131.6,-29.87 137.88,-21.33 127.65,-24.09 131.6,-29.87"/>
</a>
</g>
</g>
<!-- Node5 -->
<g id="Node000005" class="node">
<title>Node5</title>
<g id="a_Node000005"><a xlink:title=" ">
<polygon fill="#e0e0e0" stroke="#999999" points="250.88,-20 195.12,-20 195.12,0 250.88,0 250.88,-20"/>
<text text-anchor="middle" x="223" y="-6.5" font-family="Helvetica,sans-Serif" font-size="10.00">stdbool.h</text>
</a>
</g>
</g>
<!-- Node3&#45;&gt;Node5 -->
<g id="edge4_Node000003_Node000005" class="edge">
<title>Node3&#45;&gt;Node5</title>
<g id="a_edge4_Node000003_Node000005"><a xlink:title=" ">
<path fill="none" stroke="#63b8ff" d="M99.95,-55.59C123.84,-46.94 159.53,-34 186.33,-24.29"/>
<polygon fill="#63b8ff" stroke="#63b8ff" points="187.21,-27.69 195.42,-21 184.83,-21.11 187.21,-27.69"/>
</a>
</g>
</g>
<!-- Node6 -->
<g id="Node000006" class="node">
<title>Node6</title>
<g id="a_Node000006"><a xlink:href="assert_8h.html" target="_top" xlink:title=" ">
<polygon fill="white" stroke="#666666" points="111,-20 35,-20 35,0 111,0 111,-20"/>
<text text-anchor="middle" x="73" y="-6.5" font-family="Helvetica,sans-Serif" font-size="10.00">zrtos/assert.h</text>
</a>
</g>
</g>
<!-- Node3&#45;&gt;Node6 -->
<g id="edge5_Node000003_Node000006" class="edge">
<title>Node3&#45;&gt;Node6</title>
<g id="a_edge5_Node000003_Node000006"><a xlink:title=" ">
<path fill="none" stroke="#63b8ff" d="M73.83,-55.59C73.7,-49.01 73.54,-39.96 73.38,-31.73"/>
<polygon fill="#63b8ff" stroke="#63b8ff" points="76.88,-31.75 73.2,-21.81 69.89,-31.87 76.88,-31.75"/>
</a>
</g>
</g>
<!-- Node7&#45;&gt;Node4 -->
<g id="edge10_Node000007_Node000004" class="edge">
<title>Node7&#45;&gt;Node4</title>
<g id="a_edge10_Node000007_Node000004"><a xlink:title=" ">
<path fill="none" stroke="#63b8ff" d="M330.19,-56.11C295.86,-47.76 242.96,-34.74 188.12,-20.51"/>
<polygon fill="#63b8ff" stroke="#63b8ff" points="189.16,-17.16 178.6,-18.03 187.39,-23.94 189.16,-17.16"/>
</a>
</g>
</g>
<!-- Node7&#45;&gt;Node5 -->
<g id="edge7_Node000007_Node000005" class="edge">
<title>Node7&#45;&gt;Node5</title>
<g id="a_edge7_Node000007_Node000005"><a xlink:title=" ">
<path fill="none" stroke="#63b8ff" d="M341.92,-55.59C318.93,-46.97 284.65,-34.12 258.79,-24.42"/>
<polygon fill="#63b8ff" stroke="#63b8ff" points="260.29,-21.25 249.7,-21.01 257.83,-27.8 260.29,-21.25"/>
</a>
</g>
</g>
<!-- Node8 -->
<g id="Node000008" class="node">
<title>Node8</title>
<g id="a_Node000008"><a xlink:title=" ">
<polygon fill="#e0e0e0" stroke="#999999" points="319.25,-20 268.75,-20 268.75,0 319.25,0 319.25,-20"/>
<text text-anchor="middle" x="294" y="-6.5" font-family="Helvetica,sans-Serif" font-size="10.00">stddef.h</text>
</a>
</g>
</g>
<!-- Node7&#45;&gt;Node8 -->
<g id="edge8_Node000007_Node000008" class="edge">
<title>Node7&#45;&gt;Node8</title>
<g id="a_edge8_Node000007_Node000008"><a xlink:title=" ">
<path fill="none" stroke="#63b8ff" d="M354.28,-55.59C343.61,-47.7 328.12,-36.24 315.52,-26.92"/>
<polygon fill="#63b8ff" stroke="#63b8ff" points="317.91,-24.33 307.79,-21.2 313.74,-29.96 317.91,-24.33"/>
</a>
</g>
</g>
<!-- Node9 -->
<g id="Node000009" class="node">
<title>Node9</title>
<g id="a_Node000009"><a xlink:title=" ">
<polygon fill="#e0e0e0" stroke="#999999" points="385.12,-20 336.88,-20 336.88,0 385.12,0 385.12,-20"/>
<text text-anchor="middle" x="361" y="-6.5" font-family="Helvetica,sans-Serif" font-size="10.00">stdint.h</text>
</a>
</g>
</g>
<!-- Node7&#45;&gt;Node9 -->
<g id="edge9_Node000007_Node000009" class="edge">
<title>Node7&#45;&gt;Node9</title>
<g id="a_edge9_Node000007_Node000009"><a xlink:title=" ">
<path fill="none" stroke="#63b8ff" d="M365.95,-55.59C365.22,-49.01 364.22,-39.96 363.3,-31.73"/>
<polygon fill="#63b8ff" stroke="#63b8ff" points="366.78,-31.35 362.2,-21.8 359.83,-32.13 366.78,-31.35"/>
</a>
</g>
</g>
<!-- Node10 -->
<g id="Node000010" class="node">
<title>Node10</title>
<g id="a_Node000010"><a xlink:title=" ">
<polygon fill="#e0e0e0" stroke="#999999" points="461,-20 403,-20 403,0 461,0 461,-20"/>
<text text-anchor="middle" x="432" y="-6.5" font-family="Helvetica,sans-Serif" font-size="10.00">stdalign.h</text>
</a>
</g>
</g>
<!-- Node7&#45;&gt;Node10 -->
<g id="edge11_Node000007_Node000010" class="edge">
<title>Node7&#45;&gt;Node10</title>
<g id="a_edge11_Node000007_Node000010"><a xlink:title=" ">
<path fill="none" stroke="#63b8ff" d="M378.32,-55.59C387.64,-47.85 401.08,-36.69 412.18,-27.47"/>
<polygon fill="#63b8ff" stroke="#63b8ff" points="414.19,-30.35 419.64,-21.27 409.71,-24.96 414.19,-30.35"/>
</a>
</g>
</g>
<!-- Node7&#45;&gt;Node11 -->
<g id="edge12_Node000007_Node000011" class="edge">
<title>Node7&#45;&gt;Node11</title>
<g id="a_edge12_Node000007_Node000011"><a xlink:title=" ">
<path fill="none" stroke="#63b8ff" d="M392.43,-55.59C415.74,-46.97 450.5,-34.12 476.72,-24.42"/>
<polygon fill="#63b8ff" stroke="#63b8ff" points="477.79,-27.76 485.95,-21 475.36,-21.19 477.79,-27.76"/>
</a>
</g>
</g>
<!-- Node12&#45;&gt;Node3 -->
<g id="edge17_Node000012_Node000003" class="edge">
<title>Node12&#45;&gt;Node3</title>
<g id="a_edge17_Node000012_Node000003"><a xlink:title=" ">
<path fill="none" stroke="#63b8ff" d="M147.5,-111.59C134.18,-103.51 114.72,-91.71 99.17,-82.27"/>
<polygon fill="#63b8ff" stroke="#63b8ff" points="101.28,-79.46 90.92,-77.26 97.65,-85.44 101.28,-79.46"/>
</a>
</g>
</g>
<!-- Node12&#45;&gt;Node7 -->
<g id="edge16_Node000012_Node000007" class="edge">
<title>Node12&#45;&gt;Node7</title>
<g id="a_edge16_Node000012_Node000007"><a xlink:title=" ">
<path fill="none" stroke="#63b8ff" d="M198.53,-111.59C232.26,-102.67 283.16,-89.19 320.18,-79.39"/>
<polygon fill="#63b8ff" stroke="#63b8ff" points="320.95,-82.81 329.73,-76.87 319.16,-76.04 320.95,-82.81"/>
</a>
</g>
</g>
<!-- Node13 -->
<g id="Node000013" class="node">
<title>Node13</title>
<g id="a_Node000013"><a xlink:title=" ">
<polygon fill="#e0e0e0" stroke="#999999" points="253.62,-76 202.38,-76 202.38,-56 253.62,-56 253.62,-76"/>
<text text-anchor="middle" x="228" y="-62.5" font-family="Helvetica,sans-Serif" font-size="10.00">stdarg.h</text>
</a>
</g>
</g>
<!-- Node12&#45;&gt;Node13 -->
<g id="edge15_Node000012_Node000013" class="edge">
<title>Node12&#45;&gt;Node13</title>
<g id="a_edge15_Node000012_Node000013"><a xlink:title=" ">
<path fill="none" stroke="#63b8ff" d="M174.32,-111.59C183.64,-103.85 197.08,-92.69 208.18,-83.47"/>
<polygon fill="#63b8ff" stroke="#63b8ff" points="210.19,-86.35 215.64,-77.27 205.71,-80.96 210.19,-86.35"/>
</a>
</g>
</g>
<!-- Node14&#45;&gt;Node3 -->
<g id="edge19_Node000014_Node000003" class="edge">
<title>Node14&#45;&gt;Node3</title>
<g id="a_edge19_Node000014_Node000003"><a xlink:title=" ">
<path fill="none" stroke="#63b8ff" d="M336.75,-299.01C275.01,-293.63 155.97,-273.69 95,-200 68.51,-167.98 68.68,-116.29 71.26,-87.7"/>
<polygon fill="#63b8ff" stroke="#63b8ff" points="74.73,-88.17 72.36,-77.84 67.78,-87.39 74.73,-88.17"/>
</a>
</g>
</g>
<!-- Node15 -->
<g id="Node000015" class="node">
<title>Node15</title>
<g id="a_Node000015"><a xlink:href="bitfield_8h.html" target="_top" xlink:title=" ">
<polygon fill="white" stroke="#666666" points="564.38,-194 487.62,-194 487.62,-174 564.38,-174 564.38,-194"/>
<text text-anchor="middle" x="526" y="-180.5" font-family="Helvetica,sans-Serif" font-size="10.00">zrtos/bitfield.h</text>
</a>
</g>
</g>
<!-- Node14&#45;&gt;Node15 -->
<g id="edge20_Node000014_Node000015" class="edge">
<title>Node14&#45;&gt;Node15</title>
<g id="a_edge20_Node000014_Node000015"><a xlink:title=" ">
<path fill="none" stroke="#63b8ff" d="M388.28,-291.51C413.89,-271.7 473.3,-225.76 505.07,-201.19"/>
<polygon fill="#63b8ff" stroke="#63b8ff" points="507.01,-204.11 512.78,-195.23 502.73,-198.57 507.01,-204.11"/>
</a>
</g>
</g>
<!-- Node14&#45;&gt;Node17 -->
<g id="edge25_Node000014_Node000017" class="edge">
<title>Node14&#45;&gt;Node17</title>
<g id="a_edge25_Node000014_Node000017"><a xlink:title=" ">
<path fill="none" stroke="#63b8ff" d="M370.25,-291.59C365.95,-284.55 359.91,-274.67 354.61,-266"/>
<polygon fill="#63b8ff" stroke="#63b8ff" points="357.67,-264.3 349.47,-257.59 351.7,-267.95 357.67,-264.3"/>
</a>
</g>
</g>
<!-- Node15&#45;&gt;Node7 -->
<g id="edge21_Node000015_Node000007" class="edge">
<title>Node15&#45;&gt;Node7</title>
<g id="a_edge21_Node000015_Node000007"><a xlink:title=" ">
<path fill="none" stroke="#63b8ff" d="M534.13,-173.78C545.91,-159.28 564.77,-130.84 550,-112 533.51,-90.96 463.51,-78.45 415.04,-72.15"/>
<polygon fill="#63b8ff" stroke="#63b8ff" points="415.69,-68.7 405.33,-70.94 414.82,-75.65 415.69,-68.7"/>
</a>
</g>
</g>
<!-- Node16 -->
<g id="Node000016" class="node">
<title>Node16</title>
<g id="a_Node000016"><a xlink:href="mem_8h.html" target="_top" xlink:title=" ">
<polygon fill="white" stroke="#666666" points="541.38,-132 470.62,-132 470.62,-112 541.38,-112 541.38,-132"/>
<text text-anchor="middle" x="506" y="-118.5" font-family="Helvetica,sans-Serif" font-size="10.00">zrtos/mem.h</text>
</a>
</g>
</g>
<!-- Node15&#45;&gt;Node16 -->
<g id="edge22_Node000015_Node000016" class="edge">
<title>Node15&#45;&gt;Node16</title>
<g id="a_edge22_Node000015_Node000016"><a xlink:title=" ">
<path fill="none" stroke="#63b8ff" d="M522.88,-173.62C520.13,-165.39 516.04,-153.13 512.58,-142.74"/>
<polygon fill="#63b8ff" stroke="#63b8ff" points="516,-141.93 509.52,-133.55 509.36,-144.14 516,-141.93"/>
</a>
</g>
</g>
<!-- Node16&#45;&gt;Node7 -->
<g id="edge23_Node000016_Node000007" class="edge">
<title>Node16&#45;&gt;Node7</title>
<g id="a_edge23_Node000016_Node000007"><a xlink:title=" ">
<path fill="none" stroke="#63b8ff" d="M481.79,-111.59C459.7,-103.01 426.8,-90.23 401.88,-80.55"/>
<polygon fill="#63b8ff" stroke="#63b8ff" points="403.4,-77.39 392.81,-77.03 400.87,-83.91 403.4,-77.39"/>
</a>
</g>
</g>
<!-- Node16&#45;&gt;Node11 -->
<g id="edge24_Node000016_Node000011" class="edge">
<title>Node16&#45;&gt;Node11</title>
<g id="a_edge24_Node000016_Node000011"><a xlink:title=" ">
<path fill="none" stroke="#63b8ff" d="M506.6,-111.62C507.72,-94.01 510.16,-55.59 511.69,-31.65"/>
<polygon fill="#63b8ff" stroke="#63b8ff" points="515.17,-32.07 512.31,-21.87 508.18,-31.62 515.17,-32.07"/>
</a>
</g>
</g>
<!-- Node17&#45;&gt;Node7 -->
<g id="edge31_Node000017_Node000007" class="edge">
<title>Node17&#45;&gt;Node7</title>
<g id="a_edge31_Node000017_Node000007"><a xlink:title=" ">
<path fill="none" stroke="#63b8ff" d="M344.22,-235.93C347.91,-208.56 359,-126.31 364.22,-87.59"/>
<polygon fill="#63b8ff" stroke="#63b8ff" points="367.68,-88.14 365.55,-77.77 360.74,-87.21 367.68,-88.14"/>
</a>
</g>
</g>
<!-- Node18 -->
<g id="Node000018" class="node">
<title>Node18</title>
<g id="a_Node000018"><a xlink:href="str_8h.html" target="_top" xlink:title=" ">
<polygon fill="white" stroke="#666666" points="469.12,-194 408.88,-194 408.88,-174 469.12,-174 469.12,-194"/>
<text text-anchor="middle" x="439" y="-180.5" font-family="Helvetica,sans-Serif" font-size="10.00">zrtos/str.h</text>
</a>
</g>
</g>
<!-- Node17&#45;&gt;Node18 -->
<g id="edge26_Node000017_Node000018" class="edge">
<title>Node17&#45;&gt;Node18</title>
<g id="a_edge26_Node000017_Node000018"><a xlink:title=" ">
<path fill="none" stroke="#63b8ff" d="M358,-235.62C373.08,-226.2 396.57,-211.52 414.38,-200.39"/>
<polygon fill="#63b8ff" stroke="#63b8ff" points="416.2,-203.38 422.82,-195.11 412.49,-197.44 416.2,-203.38"/>
</a>
</g>
</g>
<!-- Node19 -->
<g id="Node000019" class="node">
<title>Node19</title>
<g id="a_Node000019"><a xlink:href="clist_8h.html" target="_top" xlink:title=" ">
<polygon fill="white" stroke="#666666" points="300.5,-132 233.5,-132 233.5,-112 300.5,-112 300.5,-132"/>
<text text-anchor="middle" x="267" y="-118.5" font-family="Helvetica,sans-Serif" font-size="10.00">zrtos/clist.h</text>
</a>
</g>
</g>
<!-- Node17&#45;&gt;Node19 -->
<g id="edge32_Node000017_Node000019" class="edge">
<title>Node17&#45;&gt;Node19</title>
<g id="a_edge32_Node000017_Node000019"><a xlink:title=" ">
<path fill="none" stroke="#63b8ff" d="M342.63,-235.71C341.61,-220.42 337.87,-189.53 324,-168 316.42,-156.23 304.7,-146.21 293.85,-138.63"/>
<polygon fill="#63b8ff" stroke="#63b8ff" points="295.83,-135.74 285.54,-133.2 292,-141.6 295.83,-135.74"/>
</a>
</g>
</g>
<!-- Node20 -->
<g id="Node000020" class="node">
<title>Node20</title>
<g id="a_Node000020"><a xlink:href="vfs__inode_8h.html" target="_top" xlink:title=" ">
<polygon fill="white" stroke="#666666" points="315.38,-194 226.62,-194 226.62,-174 315.38,-174 315.38,-194"/>
<text text-anchor="middle" x="271" y="-180.5" font-family="Helvetica,sans-Serif" font-size="10.00">zrtos/vfs_inode.h</text>
</a>
</g>
</g>
<!-- Node17&#45;&gt;Node20 -->
<g id="edge34_Node000017_Node000020" class="edge">
<title>Node17&#45;&gt;Node20</title>
<g id="a_edge34_Node000017_Node000020"><a xlink:title=" ">
<path fill="none" stroke="#63b8ff" d="M331.75,-235.62C320.8,-226.5 303.93,-212.45 290.75,-201.46"/>
<polygon fill="#63b8ff" stroke="#63b8ff" points="293.02,-198.79 283.1,-195.08 288.54,-204.17 293.02,-198.79"/>
</a>
</g>
</g>
<!-- Node21 -->
<g id="Node000021" class="node">
<title>Node21</title>
<g id="a_Node000021"><a xlink:href="null_8h.html" target="_top" xlink:title=" ">
<polygon fill="white" stroke="#666666" points="208.25,-200 103.75,-200 103.75,-168 208.25,-168 208.25,-200"/>
<text text-anchor="start" x="111.75" y="-186.5" font-family="Helvetica,sans-Serif" font-size="10.00">zrtos/vfs/module/null</text>
<text text-anchor="middle" x="156" y="-174.5" font-family="Helvetica,sans-Serif" font-size="10.00">/null.h</text>
</a>
</g>
</g>
<!-- Node17&#45;&gt;Node21 -->
<g id="edge36_Node000017_Node000021" class="edge">
<title>Node17&#45;&gt;Node21</title>
<g id="a_edge36_Node000017_Node000021"><a xlink:title=" ">
<path fill="none" stroke="#63b8ff" d="M313.78,-235.62C287.48,-227.19 248.02,-214.53 215.15,-203.98"/>
<polygon fill="#63b8ff" stroke="#63b8ff" points="216.31,-200.68 205.72,-200.95 214.17,-207.34 216.31,-200.68"/>
</a>
</g>
</g>
<!-- Node18&#45;&gt;Node7 -->
<g id="edge28_Node000018_Node000007" class="edge">
<title>Node18&#45;&gt;Node7</title>
<g id="a_edge28_Node000018_Node000007"><a xlink:title=" ">
<path fill="none" stroke="#63b8ff" d="M433.11,-173.51C421.24,-154.38 394.24,-110.89 378.67,-85.8"/>
<polygon fill="#63b8ff" stroke="#63b8ff" points="381.82,-84.24 373.57,-77.59 375.87,-87.93 381.82,-84.24"/>
</a>
</g>
</g>
<!-- Node18&#45;&gt;Node11 -->
<g id="edge29_Node000018_Node000011" class="edge">
<title>Node18&#45;&gt;Node11</title>
<g id="a_edge29_Node000018_Node000011"><a xlink:title=" ">
<path fill="none" stroke="#63b8ff" d="M441.53,-173.65C445.36,-159.91 453.12,-133.57 462,-112 474.06,-82.71 491.16,-50.25 502.17,-30.23"/>
<polygon fill="#63b8ff" stroke="#63b8ff" points="505.18,-32 506.99,-21.56 499.07,-28.6 505.18,-32"/>
</a>
</g>
</g>
<!-- Node18&#45;&gt;Node13 -->
<g id="edge27_Node000018_Node000013" class="edge">
<title>Node18&#45;&gt;Node13</title>
<g id="a_edge27_Node000018_Node000013"><a xlink:title=" ">
<path fill="none" stroke="#63b8ff" d="M421.73,-173.51C385.09,-153.36 299.3,-106.2 255.21,-81.96"/>
<polygon fill="#63b8ff" stroke="#63b8ff" points="256.99,-78.94 246.54,-77.19 253.61,-85.08 256.99,-78.94"/>
</a>
</g>
</g>
<!-- Node18&#45;&gt;Node16 -->
<g id="edge30_Node000018_Node000016" class="edge">
<title>Node18&#45;&gt;Node16</title>
<g id="a_edge30_Node000018_Node000016"><a xlink:title=" ">
<path fill="none" stroke="#63b8ff" d="M449.47,-173.62C459.56,-164.59 475.05,-150.72 487.26,-139.78"/>
<polygon fill="#63b8ff" stroke="#63b8ff" points="489.58,-142.4 494.7,-133.12 484.91,-137.19 489.58,-142.4"/>
</a>
</g>
</g>
<!-- Node19&#45;&gt;Node7 -->
<g id="edge33_Node000019_Node000007" class="edge">
<title>Node19&#45;&gt;Node7</title>
<g id="a_edge33_Node000019_Node000007"><a xlink:title=" ">
<path fill="none" stroke="#63b8ff" d="M284.42,-111.59C299.67,-103.36 322.08,-91.26 339.71,-81.74"/>
<polygon fill="#63b8ff" stroke="#63b8ff" points="340.98,-85.03 348.11,-77.2 337.65,-78.87 340.98,-85.03"/>
</a>
</g>
</g>
<!-- Node20&#45;&gt;Node12 -->
<g id="edge35_Node000020_Node000012" class="edge">
<title>Node20&#45;&gt;Node12</title>
<g id="a_edge35_Node000020_Node000012"><a xlink:title=" ">
<path fill="none" stroke="#63b8ff" d="M254.12,-173.62C236.85,-164.03 209.74,-148.97 189.58,-137.77"/>
<polygon fill="#63b8ff" stroke="#63b8ff" points="191.52,-134.84 181.08,-133.04 188.12,-140.96 191.52,-134.84"/>
</a>
</g>
</g>
<!-- Node21&#45;&gt;Node12 -->
<g id="edge37_Node000021_Node000012" class="edge">
<title>Node21&#45;&gt;Node12</title>
<g id="a_edge37_Node000021_Node000012"><a xlink:title=" ">
<path fill="none" stroke="#63b8ff" d="M157.8,-167.55C158.65,-160.26 159.68,-151.45 160.6,-143.6"/>
<polygon fill="#63b8ff" stroke="#63b8ff" points="164.04,-144.25 161.73,-133.91 157.09,-143.44 164.04,-144.25"/>
</a>
</g>
</g>
</g>
</svg>
