<?xml version="1.0" encoding="UTF-8" standalone="no"?>
<!DOCTYPE svg PUBLIC "-//W3C//DTD SVG 1.1//EN"
 "http://www.w3.org/Graphics/SVG/1.1/DTD/svg11.dtd">
<!-- Generated by graphviz version 10.0.1 (20240210.2158)
 -->
<!-- Title: sram.h Pages: 1 -->
<svg width="358pt" height="196pt"
 viewBox="0.00 0.00 358.25 196.00" xmlns="http://www.w3.org/2000/svg" xmlns:xlink="http://www.w3.org/1999/xlink">
<g id="graph0" class="graph" transform="scale(1 1) rotate(0) translate(4 192)">
<title>sram.h</title>
<!-- Node1 -->
<g id="Node000001" class="node">
<title>Node1</title>
<g id="a_Node000001"><a xlink:title=" ">
<polygon fill="#999999" stroke="#666666" points="168,-188 122,-188 122,-168 168,-168 168,-188"/>
<text text-anchor="middle" x="145" y="-174.5" font-family="Helvetica,sans-Serif" font-size="10.00">sram.h</text>
</a>
</g>
</g>
<!-- Node2 -->
<g id="Node000002" class="node">
<title>Node2</title>
<g id="a_Node000002"><a xlink:href="error_8h.html" target="_top" xlink:title=" ">
<polygon fill="white" stroke="#666666" points="101.25,-76 32.75,-76 32.75,-56 101.25,-56 101.25,-76"/>
<text text-anchor="middle" x="67" y="-62.5" font-family="Helvetica,sans-Serif" font-size="10.00">zrtos/error.h</text>
</a>
</g>
</g>
<!-- Node1&#45;&gt;Node2 -->
<g id="edge1_Node000001_Node000002" class="edge">
<title>Node1&#45;&gt;Node2</title>
<g id="a_edge1_Node000001_Node000002"><a xlink:title=" ">
<path fill="none" stroke="#63b8ff" d="M129.5,-167.71C117.24,-159.65 100.5,-146.94 90,-132 80.51,-118.5 74.58,-100.7 71.12,-87.14"/>
<polygon fill="#63b8ff" stroke="#63b8ff" points="74.58,-86.57 68.94,-77.6 67.75,-88.13 74.58,-86.57"/>
</a>
</g>
</g>
<!-- Node5 -->
<g id="Node000005" class="node">
<title>Node5</title>
<g id="a_Node000005"><a xlink:href="types_8h.html" target="_top" xlink:title=" ">
<polygon fill="white" stroke="#666666" points="261.5,-76 188.5,-76 188.5,-56 261.5,-56 261.5,-76"/>
<text text-anchor="middle" x="225" y="-62.5" font-family="Helvetica,sans-Serif" font-size="10.00">zrtos/types.h</text>
</a>
</g>
</g>
<!-- Node1&#45;&gt;Node5 -->
<g id="edge4_Node000001_Node000005" class="edge">
<title>Node1&#45;&gt;Node5</title>
<g id="a_edge4_Node000001_Node000005"><a xlink:title=" ">
<path fill="none" stroke="#63b8ff" d="M160.39,-167.63C172.59,-159.52 189.3,-146.8 200,-132 209.76,-118.5 216.26,-100.7 220.18,-87.14"/>
<polygon fill="#63b8ff" stroke="#63b8ff" points="223.53,-88.15 222.69,-77.59 216.76,-86.37 223.53,-88.15"/>
</a>
</g>
</g>
<!-- Node9 -->
<g id="Node000009" class="node">
<title>Node9</title>
<g id="a_Node000009"><a xlink:href="vfs__plugin_8h.html" target="_top" xlink:title=" ">
<polygon fill="white" stroke="#666666" points="190.5,-132 99.5,-132 99.5,-112 190.5,-112 190.5,-132"/>
<text text-anchor="middle" x="145" y="-118.5" font-family="Helvetica,sans-Serif" font-size="10.00">zrtos/vfs_plugin.h</text>
</a>
</g>
</g>
<!-- Node1&#45;&gt;Node9 -->
<g id="edge9_Node000001_Node000009" class="edge">
<title>Node1&#45;&gt;Node9</title>
<g id="a_edge9_Node000001_Node000009"><a xlink:title=" ">
<path fill="none" stroke="#63b8ff" d="M145,-167.59C145,-161.01 145,-151.96 145,-143.73"/>
<polygon fill="#63b8ff" stroke="#63b8ff" points="148.5,-143.81 145,-133.81 141.5,-143.81 148.5,-143.81"/>
</a>
</g>
</g>
<!-- Node3 -->
<g id="Node000003" class="node">
<title>Node3</title>
<g id="a_Node000003"><a xlink:title=" ">
<polygon fill="#e0e0e0" stroke="#999999" points="141.75,-20 94.25,-20 94.25,0 141.75,0 141.75,-20"/>
<text text-anchor="middle" x="118" y="-6.5" font-family="Helvetica,sans-Serif" font-size="10.00">limits.h</text>
</a>
</g>
</g>
<!-- Node2&#45;&gt;Node3 -->
<g id="edge2_Node000002_Node000003" class="edge">
<title>Node2&#45;&gt;Node3</title>
<g id="a_edge2_Node000002_Node000003"><a xlink:title=" ">
<path fill="none" stroke="#63b8ff" d="M75.88,-55.59C82.9,-48.16 92.9,-37.58 101.39,-28.58"/>
<polygon fill="#63b8ff" stroke="#63b8ff" points="103.86,-31.07 108.18,-21.4 98.77,-26.27 103.86,-31.07"/>
</a>
</g>
</g>
<!-- Node4 -->
<g id="Node000004" class="node">
<title>Node4</title>
<g id="a_Node000004"><a xlink:href="assert_8h.html" target="_top" xlink:title=" ">
<polygon fill="white" stroke="#666666" points="76,-20 0,-20 0,0 76,0 76,-20"/>
<text text-anchor="middle" x="38" y="-6.5" font-family="Helvetica,sans-Serif" font-size="10.00">zrtos/assert.h</text>
</a>
</g>
</g>
<!-- Node2&#45;&gt;Node4 -->
<g id="edge3_Node000002_Node000004" class="edge">
<title>Node2&#45;&gt;Node4</title>
<g id="a_edge3_Node000002_Node000004"><a xlink:title=" ">
<path fill="none" stroke="#63b8ff" d="M61.95,-55.59C58.21,-48.63 52.98,-38.89 48.36,-30.29"/>
<polygon fill="#63b8ff" stroke="#63b8ff" points="51.52,-28.79 43.71,-21.63 45.36,-32.1 51.52,-28.79"/>
</a>
</g>
</g>
<!-- Node5&#45;&gt;Node3 -->
<g id="edge8_Node000005_Node000003" class="edge">
<title>Node5&#45;&gt;Node3</title>
<g id="a_edge8_Node000005_Node000003"><a xlink:title=" ">
<path fill="none" stroke="#63b8ff" d="M206.36,-55.59C189.97,-47.32 165.84,-35.14 146.94,-25.6"/>
<polygon fill="#63b8ff" stroke="#63b8ff" points="148.64,-22.54 138.13,-21.16 145.49,-28.79 148.64,-22.54"/>
</a>
</g>
</g>
<!-- Node6 -->
<g id="Node000006" class="node">
<title>Node6</title>
<g id="a_Node000006"><a xlink:title=" ">
<polygon fill="#e0e0e0" stroke="#999999" points="281.88,-20 226.12,-20 226.12,0 281.88,0 281.88,-20"/>
<text text-anchor="middle" x="254" y="-6.5" font-family="Helvetica,sans-Serif" font-size="10.00">stdbool.h</text>
</a>
</g>
</g>
<!-- Node5&#45;&gt;Node6 -->
<g id="edge5_Node000005_Node000006" class="edge">
<title>Node5&#45;&gt;Node6</title>
<g id="a_edge5_Node000005_Node000006"><a xlink:title=" ">
<path fill="none" stroke="#63b8ff" d="M230.05,-55.59C233.79,-48.63 239.02,-38.89 243.64,-30.29"/>
<polygon fill="#63b8ff" stroke="#63b8ff" points="246.64,-32.1 248.29,-21.63 240.48,-28.79 246.64,-32.1"/>
</a>
</g>
</g>
<!-- Node7 -->
<g id="Node000007" class="node">
<title>Node7</title>
<g id="a_Node000007"><a xlink:title=" ">
<polygon fill="#e0e0e0" stroke="#999999" points="350.25,-20 299.75,-20 299.75,0 350.25,0 350.25,-20"/>
<text text-anchor="middle" x="325" y="-6.5" font-family="Helvetica,sans-Serif" font-size="10.00">stddef.h</text>
</a>
</g>
</g>
<!-- Node5&#45;&gt;Node7 -->
<g id="edge6_Node000005_Node000007" class="edge">
<title>Node5&#45;&gt;Node7</title>
<g id="a_edge6_Node000005_Node000007"><a xlink:title=" ">
<path fill="none" stroke="#63b8ff" d="M242.42,-55.59C257.67,-47.36 280.08,-35.26 297.71,-25.74"/>
<polygon fill="#63b8ff" stroke="#63b8ff" points="298.98,-29.03 306.11,-21.2 295.65,-22.87 298.98,-29.03"/>
</a>
</g>
</g>
<!-- Node8 -->
<g id="Node000008" class="node">
<title>Node8</title>
<g id="a_Node000008"><a xlink:title=" ">
<polygon fill="#e0e0e0" stroke="#999999" points="208.12,-20 159.88,-20 159.88,0 208.12,0 208.12,-20"/>
<text text-anchor="middle" x="184" y="-6.5" font-family="Helvetica,sans-Serif" font-size="10.00">stdint.h</text>
</a>
</g>
</g>
<!-- Node5&#45;&gt;Node8 -->
<g id="edge7_Node000005_Node000008" class="edge">
<title>Node5&#45;&gt;Node8</title>
<g id="a_edge7_Node000005_Node000008"><a xlink:title=" ">
<path fill="none" stroke="#63b8ff" d="M217.86,-55.59C212.39,-48.39 204.68,-38.23 197.99,-29.43"/>
<polygon fill="#63b8ff" stroke="#63b8ff" points="200.81,-27.35 191.98,-21.5 195.23,-31.58 200.81,-27.35"/>
</a>
</g>
</g>
<!-- Node9&#45;&gt;Node2 -->
<g id="edge12_Node000009_Node000002" class="edge">
<title>Node9&#45;&gt;Node2</title>
<g id="a_edge12_Node000009_Node000002"><a xlink:title=" ">
<path fill="none" stroke="#63b8ff" d="M131.41,-111.59C119.96,-103.67 103.34,-92.16 89.84,-82.82"/>
<polygon fill="#63b8ff" stroke="#63b8ff" points="92.15,-80.16 81.94,-77.34 88.17,-85.91 92.15,-80.16"/>
</a>
</g>
</g>
<!-- Node9&#45;&gt;Node5 -->
<g id="edge11_Node000009_Node000005" class="edge">
<title>Node9&#45;&gt;Node5</title>
<g id="a_edge11_Node000009_Node000005"><a xlink:title=" ">
<path fill="none" stroke="#63b8ff" d="M158.93,-111.59C170.68,-103.67 187.73,-92.16 201.57,-82.82"/>
<polygon fill="#63b8ff" stroke="#63b8ff" points="203.37,-85.82 209.7,-77.33 199.46,-80.02 203.37,-85.82"/>
</a>
</g>
</g>
<!-- Node10 -->
<g id="Node000010" class="node">
<title>Node10</title>
<g id="a_Node000010"><a xlink:title=" ">
<polygon fill="#e0e0e0" stroke="#999999" points="170.62,-76 119.38,-76 119.38,-56 170.62,-56 170.62,-76"/>
<text text-anchor="middle" x="145" y="-62.5" font-family="Helvetica,sans-Serif" font-size="10.00">stdarg.h</text>
</a>
</g>
</g>
<!-- Node9&#45;&gt;Node10 -->
<g id="edge10_Node000009_Node000010" class="edge">
<title>Node9&#45;&gt;Node10</title>
<g id="a_edge10_Node000009_Node000010"><a xlink:title=" ">
<path fill="none" stroke="#63b8ff" d="M145,-111.59C145,-105.01 145,-95.96 145,-87.73"/>
<polygon fill="#63b8ff" stroke="#63b8ff" points="148.5,-87.81 145,-77.81 141.5,-87.81 148.5,-87.81"/>
</a>
</g>
</g>
</g>
</svg>
