<?xml version="1.0" encoding="UTF-8" standalone="no"?>
<!DOCTYPE svg PUBLIC "-//W3C//DTD SVG 1.1//EN"
 "http://www.w3.org/Graphics/SVG/1.1/DTD/svg11.dtd">
<!-- Generated by graphviz version 2.40.1 (20161225.0304)
 -->
<!-- Title: zrtos_vfs_module_sram__rw Pages: 1 -->
<svg width="463pt" height="170pt"
 viewBox="0.00 0.00 463.00 170.00" xmlns="http://www.w3.org/2000/svg" xmlns:xlink="http://www.w3.org/1999/xlink">
<g id="graph0" class="graph" transform="scale(1 1) rotate(0) translate(4 166)">
<title>zrtos_vfs_module_sram__rw</title>
<polygon fill="#ffffff" stroke="transparent" points="-4,4 -4,-166 459,-166 459,4 -4,4"/>
<!-- Node23 -->
<g id="node1" class="node">
<title>Node23</title>
<polygon fill="#bfbfbf" stroke="#000000" points="0,-66 0,-85 142,-85 142,-66 0,-66"/>
<text text-anchor="middle" x="71" y="-73" font-family="Helvetica,sans-Serif" font-size="10.00" fill="#000000">zrtos_vfs_module_sram__rw</text>
</g>
<!-- Node24 -->
<g id="node2" class="node">
<title>Node24</title>
<g id="a_node2"><a xlink:href="vfs__file_8h.html#af192d2176bcd9a795fe8253a0759b0c7" target="_top" xlink:title="zrtos_vfs_file__get\l_inode_data">
<polygon fill="#ffffff" stroke="#000000" points="184,-131.5 184,-161.5 283,-161.5 283,-131.5 184,-131.5"/>
<text text-anchor="start" x="192" y="-149.5" font-family="Helvetica,sans-Serif" font-size="10.00" fill="#000000">zrtos_vfs_file__get</text>
<text text-anchor="middle" x="233.5" y="-138.5" font-family="Helvetica,sans-Serif" font-size="10.00" fill="#000000">_inode_data</text>
</a>
</g>
</g>
<!-- Node23&#45;&gt;Node24 -->
<g id="edge1" class="edge">
<title>Node23&#45;&gt;Node24</title>
<path fill="none" stroke="#191970" d="M92.7068,-85.0783C114.3128,-94.6018 148.4265,-109.6107 178,-122.5 181.6313,-124.0827 185.398,-125.7202 189.1812,-127.3621"/>
<polygon fill="#191970" stroke="#191970" points="187.9844,-130.6579 198.5516,-131.4234 190.7682,-124.2352 187.9844,-130.6579"/>
</g>
<!-- Node25 -->
<g id="node3" class="node">
<title>Node25</title>
<g id="a_node3"><a xlink:href="types_8h.html#adceb6a2ba8243aab5d92233fe7bb9778" target="_top" xlink:title="zrtos_types__ptr_is\l_valid_address_range">
<polygon fill="#ffffff" stroke="#000000" points="178,-82.5 178,-112.5 289,-112.5 289,-82.5 178,-82.5"/>
<text text-anchor="start" x="186" y="-100.5" font-family="Helvetica,sans-Serif" font-size="10.00" fill="#000000">zrtos_types__ptr_is</text>
<text text-anchor="middle" x="233.5" y="-89.5" font-family="Helvetica,sans-Serif" font-size="10.00" fill="#000000">_valid_address_range</text>
</a>
</g>
</g>
<!-- Node23&#45;&gt;Node25 -->
<g id="edge2" class="edge">
<title>Node23&#45;&gt;Node25</title>
<path fill="none" stroke="#191970" d="M141.3298,-85.0216C150.0843,-86.2068 159.0111,-87.4154 167.6937,-88.5908"/>
<polygon fill="#191970" stroke="#191970" points="167.3698,-92.0788 177.749,-89.9522 168.309,-85.1421 167.3698,-92.0788"/>
</g>
<!-- Node28 -->
<g id="node6" class="node">
<title>Node28</title>
<g id="a_node6"><a xlink:href="types_8h.html#aba57d347db551b6b1bc7f791433322ad" target="_top" xlink:title="zrtos_types__ptr_add">
<polygon fill="#ffffff" stroke="#000000" points="178.5,-44 178.5,-63 288.5,-63 288.5,-44 178.5,-44"/>
<text text-anchor="middle" x="233.5" y="-51" font-family="Helvetica,sans-Serif" font-size="10.00" fill="#000000">zrtos_types__ptr_add</text>
</a>
</g>
</g>
<!-- Node23&#45;&gt;Node28 -->
<g id="edge5" class="edge">
<title>Node23&#45;&gt;Node28</title>
<path fill="none" stroke="#191970" d="M141.3298,-65.9784C150.2076,-64.7765 159.2626,-63.5506 168.0604,-62.3595"/>
<polygon fill="#191970" stroke="#191970" points="168.804,-65.7909 178.244,-60.9808 167.8648,-58.8541 168.804,-65.7909"/>
</g>
<!-- Node29 -->
<g id="node7" class="node">
<title>Node29</title>
<g id="a_node7"><a xlink:href="mem_8h.html#ac36c32ce5585de38fd4b77b2a322ac78" target="_top" xlink:title="zrtos_mem__cpy">
<polygon fill="#ffffff" stroke="#000000" points="187.5,-6 187.5,-25 279.5,-25 279.5,-6 187.5,-6"/>
<text text-anchor="middle" x="233.5" y="-13" font-family="Helvetica,sans-Serif" font-size="10.00" fill="#000000">zrtos_mem__cpy</text>
</a>
</g>
</g>
<!-- Node23&#45;&gt;Node29 -->
<g id="edge6" class="edge">
<title>Node23&#45;&gt;Node29</title>
<path fill="none" stroke="#191970" d="M95.1295,-65.9686C116.7552,-57.4944 149.3863,-44.8761 178,-34.5 183.5815,-32.476 189.4991,-30.3885 195.3102,-28.3714"/>
<polygon fill="#191970" stroke="#191970" points="196.5946,-31.6309 204.9111,-25.0669 194.3164,-25.012 196.5946,-31.6309"/>
</g>
<!-- Node26 -->
<g id="node4" class="node">
<title>Node26</title>
<g id="a_node4"><a xlink:href="types_8h.html#adbc4238237e656eb247fd49ffbfb1a6d" target="_top" xlink:title="zrtos_types__ptr_get\l_byte_distance">
<polygon fill="#ffffff" stroke="#000000" points="336,-107.5 336,-137.5 444,-137.5 444,-107.5 336,-107.5"/>
<text text-anchor="start" x="344" y="-125.5" font-family="Helvetica,sans-Serif" font-size="10.00" fill="#000000">zrtos_types__ptr_get</text>
<text text-anchor="middle" x="390" y="-114.5" font-family="Helvetica,sans-Serif" font-size="10.00" fill="#000000">_byte_distance</text>
</a>
</g>
</g>
<!-- Node25&#45;&gt;Node26 -->
<g id="edge3" class="edge">
<title>Node25&#45;&gt;Node26</title>
<path fill="none" stroke="#191970" d="M289.1167,-106.3845C300.9911,-108.2813 313.6263,-110.2997 325.7931,-112.2433"/>
<polygon fill="#191970" stroke="#191970" points="325.4493,-115.7327 335.8762,-113.854 326.5535,-108.8203 325.4493,-115.7327"/>
</g>
<!-- Node27 -->
<g id="node5" class="node">
<title>Node27</title>
<g id="a_node5"><a xlink:href="types_8h.html#ab287a3ab3a7be12ae8e1a7caaa8669a4" target="_top" xlink:title="zrtos_types__ptr_subtract">
<polygon fill="#ffffff" stroke="#000000" points="325,-69 325,-88 455,-88 455,-69 325,-69"/>
<text text-anchor="middle" x="390" y="-76" font-family="Helvetica,sans-Serif" font-size="10.00" fill="#000000">zrtos_types__ptr_subtract</text>
</a>
</g>
</g>
<!-- Node25&#45;&gt;Node27 -->
<g id="edge4" class="edge">
<title>Node25&#45;&gt;Node27</title>
<path fill="none" stroke="#191970" d="M289.1167,-90.7478C297.4521,-89.7358 306.1624,-88.6784 314.8224,-87.627"/>
<polygon fill="#191970" stroke="#191970" points="315.4347,-91.0784 324.94,-86.3987 314.591,-84.1295 315.4347,-91.0784"/>
</g>
<!-- Node30 -->
<g id="node8" class="node">
<title>Node30</title>
<g id="a_node8"><a xlink:href="mem_8h.html#a9054cc3824c6ffdaf4ed24fde2f80f32" target="_top" xlink:title="zrtos_mem__move_left\l_overlapping">
<polygon fill="#ffffff" stroke="#000000" points="330.5,-.5 330.5,-30.5 449.5,-30.5 449.5,-.5 330.5,-.5"/>
<text text-anchor="start" x="338.5" y="-18.5" font-family="Helvetica,sans-Serif" font-size="10.00" fill="#000000">zrtos_mem__move_left</text>
<text text-anchor="middle" x="390" y="-7.5" font-family="Helvetica,sans-Serif" font-size="10.00" fill="#000000">_overlapping</text>
</a>
</g>
</g>
<!-- Node29&#45;&gt;Node30 -->
<g id="edge7" class="edge">
<title>Node29&#45;&gt;Node30</title>
<path fill="none" stroke="#191970" d="M279.6087,-15.5C292.2541,-15.5 306.255,-15.5 319.9198,-15.5"/>
<polygon fill="#191970" stroke="#191970" points="320.2759,-19.0001 330.2759,-15.5 320.2759,-12.0001 320.2759,-19.0001"/>
</g>
</g>
</svg>
