<?xml version="1.0" encoding="UTF-8" standalone="no"?>
<!DOCTYPE svg PUBLIC "-//W3C//DTD SVG 1.1//EN"
 "http://www.w3.org/Graphics/SVG/1.1/DTD/svg11.dtd">
<!-- Generated by graphviz version 2.40.1 (20161225.0304)
 -->
<!-- Title: sram.h Pages: 1 -->
<svg width="660pt" height="431pt"
 viewBox="0.00 0.00 660.00 431.00" xmlns="http://www.w3.org/2000/svg" xmlns:xlink="http://www.w3.org/1999/xlink">
<g id="graph0" class="graph" transform="scale(1 1) rotate(0) translate(4 427)">
<title>sram.h</title>
<polygon fill="#ffffff" stroke="transparent" points="-4,4 -4,-427 656,-427 656,4 -4,4"/>
<!-- Node0 -->
<g id="node1" class="node">
<title>Node0</title>
<polygon fill="#bfbfbf" stroke="#000000" points="325.5,-403.5 325.5,-422.5 372.5,-422.5 372.5,-403.5 325.5,-403.5"/>
<text text-anchor="middle" x="349" y="-410.5" font-family="Helvetica,sans-Serif" font-size="10.00" fill="#000000">sram.h</text>
</g>
<!-- Node1 -->
<g id="node2" class="node">
<title>Node1</title>
<g id="a_node2"><a xlink:href="vfs__module_8h.html" target="_top" xlink:title="zrtos/vfs_module.h">
<polygon fill="#ffffff" stroke="#000000" points="299,-347.5 299,-366.5 399,-366.5 399,-347.5 299,-347.5"/>
<text text-anchor="middle" x="349" y="-354.5" font-family="Helvetica,sans-Serif" font-size="10.00" fill="#000000">zrtos/vfs_module.h</text>
</a>
</g>
</g>
<!-- Node0&#45;&gt;Node1 -->
<g id="edge1" class="edge">
<title>Node0&#45;&gt;Node1</title>
<path fill="none" stroke="#191970" d="M349,-403.2455C349,-395.9382 349,-385.6944 349,-376.7046"/>
<polygon fill="#191970" stroke="#191970" points="352.5001,-376.6426 349,-366.6427 345.5001,-376.6427 352.5001,-376.6426"/>
</g>
<!-- Node2 -->
<g id="node3" class="node">
<title>Node2</title>
<g id="a_node3"><a xlink:href="error_8h.html" target="_top" xlink:title="zrtos/error.h">
<polygon fill="#ffffff" stroke="#000000" points="45.5,-56.5 45.5,-75.5 114.5,-75.5 114.5,-56.5 45.5,-56.5"/>
<text text-anchor="middle" x="80" y="-63.5" font-family="Helvetica,sans-Serif" font-size="10.00" fill="#000000">zrtos/error.h</text>
</a>
</g>
</g>
<!-- Node1&#45;&gt;Node2 -->
<g id="edge2" class="edge">
<title>Node1&#45;&gt;Node2</title>
<path fill="none" stroke="#191970" d="M298.9968,-351.5212C202.4952,-339.5515 0,-307.043 0,-245 0,-245 0,-245 0,-183.5 0,-141.3353 35.6343,-103.1145 59.3379,-82.3547"/>
<polygon fill="#191970" stroke="#191970" points="61.7635,-84.8874 67.1466,-75.762 57.2478,-79.5387 61.7635,-84.8874"/>
</g>
<!-- Node6 -->
<g id="node7" class="node">
<title>Node6</title>
<g id="a_node7"><a xlink:href="types_8h.html" target="_top" xlink:title="zrtos/types.h">
<polygon fill="#ffffff" stroke="#000000" points="335,-56.5 335,-75.5 409,-75.5 409,-56.5 335,-56.5"/>
<text text-anchor="middle" x="372" y="-63.5" font-family="Helvetica,sans-Serif" font-size="10.00" fill="#000000">zrtos/types.h</text>
</a>
</g>
</g>
<!-- Node1&#45;&gt;Node6 -->
<g id="edge6" class="edge">
<title>Node1&#45;&gt;Node6</title>
<path fill="none" stroke="#191970" d="M394.8569,-347.4971C470.7034,-330.4468 614,-292.0128 614,-245 614,-245 614,-245 614,-183.5 614,-146.8684 602.4353,-133.8046 573,-112 548.9314,-94.1709 470.4409,-79.995 418.9629,-72.3147"/>
<polygon fill="#191970" stroke="#191970" points="419.4527,-68.8492 409.0516,-70.8661 418.4403,-75.7756 419.4527,-68.8492"/>
</g>
<!-- Node10 -->
<g id="node11" class="node">
<title>Node10</title>
<g id="a_node11"><a xlink:href="cast_8h.html" target="_top" xlink:title="zrtos/cast.h">
<polygon fill="#ffffff" stroke="#000000" points="489,-.5 489,-19.5 557,-19.5 557,-.5 489,-.5"/>
<text text-anchor="middle" x="523" y="-7.5" font-family="Helvetica,sans-Serif" font-size="10.00" fill="#000000">zrtos/cast.h</text>
</a>
</g>
</g>
<!-- Node1&#45;&gt;Node10 -->
<g id="edge13" class="edge">
<title>Node1&#45;&gt;Node10</title>
<path fill="none" stroke="#191970" d="M399.3256,-352.2926C443.9348,-346.7179 510.0281,-334.9684 563,-311 607.8661,-290.6993 652,-294.2452 652,-245 652,-245 652,-245 652,-122 652,-72.6478 597.4985,-40.1337 559.3468,-23.4194"/>
<polygon fill="#191970" stroke="#191970" points="560.6177,-20.157 550.0426,-19.5097 557.9059,-26.6104 560.6177,-20.157"/>
</g>
<!-- Node11 -->
<g id="node12" class="node">
<title>Node11</title>
<g id="a_node12"><a xlink:href="vfs__plugin_8h.html" target="_top" xlink:title="zrtos/vfs_plugin.h">
<polygon fill="#ffffff" stroke="#000000" points="114,-112.5 114,-131.5 208,-131.5 208,-112.5 114,-112.5"/>
<text text-anchor="middle" x="161" y="-119.5" font-family="Helvetica,sans-Serif" font-size="10.00" fill="#000000">zrtos/vfs_plugin.h</text>
</a>
</g>
</g>
<!-- Node1&#45;&gt;Node11 -->
<g id="edge14" class="edge">
<title>Node1&#45;&gt;Node11</title>
<path fill="none" stroke="#191970" d="M314.3331,-347.3991C256.566,-329.3087 142.2942,-284.117 95,-199 88.3082,-186.9565 88.6248,-180.2141 95,-168 102.1245,-154.3502 115.3523,-143.926 128.1056,-136.4806"/>
<polygon fill="#191970" stroke="#191970" points="130.0647,-139.4012 137.2141,-131.5822 126.7492,-133.2362 130.0647,-139.4012"/>
</g>
<!-- Node13 -->
<g id="node14" class="node">
<title>Node13</title>
<g id="a_node14"><a xlink:href="vfs__file_8h.html" target="_top" xlink:title="zrtos/vfs_file.h">
<polygon fill="#ffffff" stroke="#000000" points="343.5,-291.5 343.5,-310.5 424.5,-310.5 424.5,-291.5 343.5,-291.5"/>
<text text-anchor="middle" x="384" y="-298.5" font-family="Helvetica,sans-Serif" font-size="10.00" fill="#000000">zrtos/vfs_file.h</text>
</a>
</g>
</g>
<!-- Node1&#45;&gt;Node13 -->
<g id="edge18" class="edge">
<title>Node1&#45;&gt;Node13</title>
<path fill="none" stroke="#191970" d="M355.0965,-347.2455C359.9145,-339.5367 366.7751,-328.5598 372.6032,-319.2348"/>
<polygon fill="#191970" stroke="#191970" points="375.6413,-320.9777 377.9733,-310.6427 369.7053,-317.2677 375.6413,-320.9777"/>
</g>
<!-- Node16 -->
<g id="node17" class="node">
<title>Node16</title>
<g id="a_node17"><a xlink:href="vfs__dentry_8h.html" target="_top" xlink:title="zrtos/vfs_dentry.h">
<polygon fill="#ffffff" stroke="#000000" points="302.5,-235.5 302.5,-254.5 397.5,-254.5 397.5,-235.5 302.5,-235.5"/>
<text text-anchor="middle" x="350" y="-242.5" font-family="Helvetica,sans-Serif" font-size="10.00" fill="#000000">zrtos/vfs_dentry.h</text>
</a>
</g>
</g>
<!-- Node1&#45;&gt;Node16 -->
<g id="edge38" class="edge">
<title>Node1&#45;&gt;Node16</title>
<path fill="none" stroke="#191970" d="M344.3205,-347.2286C338.7476,-334.4055 330.594,-311.1602 334,-291 335.545,-281.8551 338.7034,-272.1019 341.809,-263.9405"/>
<polygon fill="#191970" stroke="#191970" points="345.0742,-265.2021 345.589,-254.6198 338.5873,-262.5713 345.0742,-265.2021"/>
</g>
<!-- Node3 -->
<g id="node4" class="node">
<title>Node3</title>
<polygon fill="#ffffff" stroke="#bfbfbf" points="134,-.5 134,-19.5 182,-19.5 182,-.5 134,-.5"/>
<text text-anchor="middle" x="158" y="-7.5" font-family="Helvetica,sans-Serif" font-size="10.00" fill="#000000">limits.h</text>
</g>
<!-- Node2&#45;&gt;Node3 -->
<g id="edge3" class="edge">
<title>Node2&#45;&gt;Node3</title>
<path fill="none" stroke="#191970" d="M93.5866,-56.2455C105.3305,-47.814 122.5199,-35.4729 136.1882,-25.6598"/>
<polygon fill="#191970" stroke="#191970" points="138.4871,-28.3179 144.5691,-19.6427 134.4046,-22.6316 138.4871,-28.3179"/>
</g>
<!-- Node4 -->
<g id="node5" class="node">
<title>Node4</title>
<polygon fill="#ffffff" stroke="#bfbfbf" points="200,-.5 200,-19.5 256,-19.5 256,-.5 200,-.5"/>
<text text-anchor="middle" x="228" y="-7.5" font-family="Helvetica,sans-Serif" font-size="10.00" fill="#000000">stdbool.h</text>
</g>
<!-- Node2&#45;&gt;Node4 -->
<g id="edge4" class="edge">
<title>Node2&#45;&gt;Node4</title>
<path fill="none" stroke="#191970" d="M105.4421,-56.3733C129.7326,-47.1822 166.5208,-33.2624 193.4543,-23.0713"/>
<polygon fill="#191970" stroke="#191970" points="194.7757,-26.3136 202.8899,-19.5011 192.2984,-19.7666 194.7757,-26.3136"/>
</g>
<!-- Node5 -->
<g id="node6" class="node">
<title>Node5</title>
<g id="a_node6"><a xlink:href="assert_8h.html" target="_top" xlink:title="zrtos/assert.h">
<polygon fill="#ffffff" stroke="#000000" points="38.5,-.5 38.5,-19.5 115.5,-19.5 115.5,-.5 38.5,-.5"/>
<text text-anchor="middle" x="77" y="-7.5" font-family="Helvetica,sans-Serif" font-size="10.00" fill="#000000">zrtos/assert.h</text>
</a>
</g>
</g>
<!-- Node2&#45;&gt;Node5 -->
<g id="edge5" class="edge">
<title>Node2&#45;&gt;Node5</title>
<path fill="none" stroke="#191970" d="M79.4774,-56.2455C79.086,-48.9382 78.5372,-38.6944 78.0556,-29.7046"/>
<polygon fill="#191970" stroke="#191970" points="81.5466,-29.4411 77.5166,-19.6427 74.5566,-29.8156 81.5466,-29.4411"/>
</g>
<!-- Node6&#45;&gt;Node3 -->
<g id="edge10" class="edge">
<title>Node6&#45;&gt;Node3</title>
<path fill="none" stroke="#191970" d="M334.7778,-57.0635C300.1715,-48.6389 246.963,-35.3923 192.0245,-20.2016"/>
<polygon fill="#191970" stroke="#191970" points="192.6859,-16.7528 182.1137,-17.445 190.8101,-23.4967 192.6859,-16.7528"/>
</g>
<!-- Node6&#45;&gt;Node4 -->
<g id="edge7" class="edge">
<title>Node6&#45;&gt;Node4</title>
<path fill="none" stroke="#191970" d="M347.2455,-56.3733C323.7151,-47.2226 288.1313,-33.3844 261.9574,-23.2057"/>
<polygon fill="#191970" stroke="#191970" points="263.0201,-19.8636 252.4315,-19.5011 260.4829,-26.3877 263.0201,-19.8636"/>
</g>
<!-- Node7 -->
<g id="node8" class="node">
<title>Node7</title>
<polygon fill="#ffffff" stroke="#bfbfbf" points="274,-.5 274,-19.5 326,-19.5 326,-.5 274,-.5"/>
<text text-anchor="middle" x="300" y="-7.5" font-family="Helvetica,sans-Serif" font-size="10.00" fill="#000000">stddef.h</text>
</g>
<!-- Node6&#45;&gt;Node7 -->
<g id="edge8" class="edge">
<title>Node6&#45;&gt;Node7</title>
<path fill="none" stroke="#191970" d="M359.4586,-56.2455C348.7213,-47.8943 333.0527,-35.7076 320.4953,-25.9408"/>
<polygon fill="#191970" stroke="#191970" points="322.4401,-23.0194 312.3977,-19.6427 318.1425,-28.5449 322.4401,-23.0194"/>
</g>
<!-- Node8 -->
<g id="node9" class="node">
<title>Node8</title>
<polygon fill="#ffffff" stroke="#bfbfbf" points="344.5,-.5 344.5,-19.5 393.5,-19.5 393.5,-.5 344.5,-.5"/>
<text text-anchor="middle" x="369" y="-7.5" font-family="Helvetica,sans-Serif" font-size="10.00" fill="#000000">stdint.h</text>
</g>
<!-- Node6&#45;&gt;Node8 -->
<g id="edge9" class="edge">
<title>Node6&#45;&gt;Node8</title>
<path fill="none" stroke="#191970" d="M371.4774,-56.2455C371.086,-48.9382 370.5372,-38.6944 370.0556,-29.7046"/>
<polygon fill="#191970" stroke="#191970" points="373.5466,-29.4411 369.5166,-19.6427 366.5566,-29.8156 373.5466,-29.4411"/>
</g>
<!-- Node9 -->
<g id="node10" class="node">
<title>Node9</title>
<polygon fill="#ffffff" stroke="#bfbfbf" points="411.5,-.5 411.5,-19.5 470.5,-19.5 470.5,-.5 411.5,-.5"/>
<text text-anchor="middle" x="441" y="-7.5" font-family="Helvetica,sans-Serif" font-size="10.00" fill="#000000">stdalign.h</text>
</g>
<!-- Node6&#45;&gt;Node9 -->
<g id="edge11" class="edge">
<title>Node6&#45;&gt;Node9</title>
<path fill="none" stroke="#191970" d="M384.0189,-56.2455C394.2098,-47.9746 409.0362,-35.9416 421.0107,-26.2232"/>
<polygon fill="#191970" stroke="#191970" points="423.5598,-28.662 429.1188,-19.6427 419.1486,-23.2268 423.5598,-28.662"/>
</g>
<!-- Node6&#45;&gt;Node10 -->
<g id="edge12" class="edge">
<title>Node6&#45;&gt;Node10</title>
<path fill="none" stroke="#191970" d="M397.9578,-56.3733C422.7407,-47.1822 460.2746,-33.2624 487.754,-23.0713"/>
<polygon fill="#191970" stroke="#191970" points="489.2219,-26.26 497.3809,-19.5011 486.7879,-19.6968 489.2219,-26.26"/>
</g>
<!-- Node11&#45;&gt;Node2 -->
<g id="edge17" class="edge">
<title>Node11&#45;&gt;Node2</title>
<path fill="none" stroke="#191970" d="M146.8909,-112.2455C134.5791,-103.7337 116.5042,-91.2375 102.2462,-81.3801"/>
<polygon fill="#191970" stroke="#191970" points="104.1634,-78.4506 93.9474,-75.6427 100.1826,-84.2085 104.1634,-78.4506"/>
</g>
<!-- Node11&#45;&gt;Node6 -->
<g id="edge16" class="edge">
<title>Node11&#45;&gt;Node6</title>
<path fill="none" stroke="#191970" d="M197.2722,-112.3733C232.9658,-102.9001 287.5879,-88.4032 326.2451,-78.1435"/>
<polygon fill="#191970" stroke="#191970" points="327.4336,-81.4493 336.2011,-75.5011 325.6379,-74.6835 327.4336,-81.4493"/>
</g>
<!-- Node12 -->
<g id="node13" class="node">
<title>Node12</title>
<polygon fill="#ffffff" stroke="#bfbfbf" points="140,-56.5 140,-75.5 192,-75.5 192,-56.5 140,-56.5"/>
<text text-anchor="middle" x="166" y="-63.5" font-family="Helvetica,sans-Serif" font-size="10.00" fill="#000000">stdarg.h</text>
</g>
<!-- Node11&#45;&gt;Node12 -->
<g id="edge15" class="edge">
<title>Node11&#45;&gt;Node12</title>
<path fill="none" stroke="#191970" d="M161.8709,-112.2455C162.5234,-104.9382 163.438,-94.6944 164.2407,-85.7046"/>
<polygon fill="#191970" stroke="#191970" points="167.7358,-85.9143 165.139,-75.6427 160.7635,-85.2918 167.7358,-85.9143"/>
</g>
<!-- Node13&#45;&gt;Node2 -->
<g id="edge19" class="edge">
<title>Node13&#45;&gt;Node2</title>
<path fill="none" stroke="#191970" d="M343.4024,-292.239C271.5553,-275.8761 126.5884,-238.7158 95,-199 68.9507,-166.2484 72.1288,-113.756 76.3037,-85.5066"/>
<polygon fill="#191970" stroke="#191970" points="79.756,-86.0815 77.9529,-75.6412 72.8519,-84.9272 79.756,-86.0815"/>
</g>
<!-- Node14 -->
<g id="node15" class="node">
<title>Node14</title>
<g id="a_node15"><a xlink:href="bitfield_8h.html" target="_top" xlink:title="zrtos/bitfield.h">
<polygon fill="#ffffff" stroke="#000000" points="496,-174 496,-193 574,-193 574,-174 496,-174"/>
<text text-anchor="middle" x="535" y="-181" font-family="Helvetica,sans-Serif" font-size="10.00" fill="#000000">zrtos/bitfield.h</text>
</a>
</g>
</g>
<!-- Node13&#45;&gt;Node14 -->
<g id="edge20" class="edge">
<title>Node13&#45;&gt;Node14</title>
<path fill="none" stroke="#191970" d="M396.357,-291.3845C422.2389,-271.2446 482.3813,-224.445 514.277,-199.6255"/>
<polygon fill="#191970" stroke="#191970" points="516.7296,-202.1519 522.4723,-193.2484 512.4307,-196.6274 516.7296,-202.1519"/>
</g>
<!-- Node13&#45;&gt;Node16 -->
<g id="edge25" class="edge">
<title>Node13&#45;&gt;Node16</title>
<path fill="none" stroke="#191970" d="M378.0777,-291.2455C373.3973,-283.5367 366.7327,-272.5598 361.0711,-263.2348"/>
<polygon fill="#191970" stroke="#191970" points="364.0361,-261.3741 355.8545,-254.6427 358.0525,-265.007 364.0361,-261.3741"/>
</g>
<!-- Node14&#45;&gt;Node6 -->
<g id="edge21" class="edge">
<title>Node14&#45;&gt;Node6</title>
<path fill="none" stroke="#191970" d="M542.8821,-173.6832C553.7633,-158.868 570.4907,-130.5593 556,-112 539.3045,-90.6168 467.8687,-77.7028 419.0791,-71.2145"/>
<polygon fill="#191970" stroke="#191970" points="419.4035,-67.7275 409.0394,-69.9267 418.5129,-74.6706 419.4035,-67.7275"/>
</g>
<!-- Node15 -->
<g id="node16" class="node">
<title>Node15</title>
<g id="a_node16"><a xlink:href="mem_8h.html" target="_top" xlink:title="zrtos/mem.h">
<polygon fill="#ffffff" stroke="#000000" points="476.5,-112.5 476.5,-131.5 547.5,-131.5 547.5,-112.5 476.5,-112.5"/>
<text text-anchor="middle" x="512" y="-119.5" font-family="Helvetica,sans-Serif" font-size="10.00" fill="#000000">zrtos/mem.h</text>
</a>
</g>
</g>
<!-- Node14&#45;&gt;Node15 -->
<g id="edge22" class="edge">
<title>Node14&#45;&gt;Node15</title>
<path fill="none" stroke="#191970" d="M531.4063,-173.8906C528.1509,-165.1862 523.2575,-152.1015 519.199,-141.2494"/>
<polygon fill="#191970" stroke="#191970" points="522.4256,-139.8852 515.6444,-131.7449 515.8691,-142.3373 522.4256,-139.8852"/>
</g>
<!-- Node15&#45;&gt;Node6 -->
<g id="edge23" class="edge">
<title>Node15&#45;&gt;Node6</title>
<path fill="none" stroke="#191970" d="M487.9331,-112.3733C465.1572,-103.2629 430.7656,-89.5062 405.351,-79.3404"/>
<polygon fill="#191970" stroke="#191970" points="406.3375,-75.9654 395.7528,-75.5011 403.7377,-82.4648 406.3375,-75.9654"/>
</g>
<!-- Node15&#45;&gt;Node10 -->
<g id="edge24" class="edge">
<title>Node15&#45;&gt;Node10</title>
<path fill="none" stroke="#191970" d="M512.9379,-112.4509C514.7319,-94.184 518.683,-53.9553 521.0654,-29.6976"/>
<polygon fill="#191970" stroke="#191970" points="524.5702,-29.8191 522.0645,-19.5249 517.6038,-29.1349 524.5702,-29.8191"/>
</g>
<!-- Node16&#45;&gt;Node6 -->
<g id="edge31" class="edge">
<title>Node16&#45;&gt;Node6</title>
<path fill="none" stroke="#191970" d="M351.1828,-235.3762C354.6446,-207.2097 364.8085,-124.5126 369.5331,-86.0713"/>
<polygon fill="#191970" stroke="#191970" points="373.0652,-86.0237 370.8113,-75.6714 366.1175,-85.1697 373.0652,-86.0237"/>
</g>
<!-- Node17 -->
<g id="node18" class="node">
<title>Node17</title>
<g id="a_node18"><a xlink:href="str_8h.html" target="_top" xlink:title="zrtos/str.h">
<polygon fill="#ffffff" stroke="#000000" points="416.5,-174 416.5,-193 477.5,-193 477.5,-174 416.5,-174"/>
<text text-anchor="middle" x="447" y="-181" font-family="Helvetica,sans-Serif" font-size="10.00" fill="#000000">zrtos/str.h</text>
</a>
</g>
</g>
<!-- Node16&#45;&gt;Node17 -->
<g id="edge26" class="edge">
<title>Node16&#45;&gt;Node17</title>
<path fill="none" stroke="#191970" d="M365.1563,-235.3906C380.6743,-225.5519 405.0193,-210.1167 423.1284,-198.6351"/>
<polygon fill="#191970" stroke="#191970" points="425.3787,-201.3526 431.9502,-193.0419 421.6304,-195.4407 425.3787,-201.3526"/>
</g>
<!-- Node18 -->
<g id="node19" class="node">
<title>Node18</title>
<g id="a_node19"><a xlink:href="clist_8h.html" target="_top" xlink:title="zrtos/clist.h">
<polygon fill="#ffffff" stroke="#000000" points="238,-112.5 238,-131.5 306,-131.5 306,-112.5 238,-112.5"/>
<text text-anchor="middle" x="272" y="-119.5" font-family="Helvetica,sans-Serif" font-size="10.00" fill="#000000">zrtos/clist.h</text>
</a>
</g>
</g>
<!-- Node16&#45;&gt;Node18 -->
<g id="edge32" class="edge">
<title>Node16&#45;&gt;Node18</title>
<path fill="none" stroke="#191970" d="M349.6075,-235.1981C348.5686,-219.7356 344.7834,-189.2575 331,-168 322.8351,-155.4077 310.0212,-144.8114 298.4184,-136.9747"/>
<polygon fill="#191970" stroke="#191970" points="300.1928,-133.9552 289.8787,-131.5324 296.4307,-139.8583 300.1928,-133.9552"/>
</g>
<!-- Node19 -->
<g id="node20" class="node">
<title>Node19</title>
<g id="a_node20"><a xlink:href="vfs__inode_8h.html" target="_top" xlink:title="zrtos/vfs_inode.h">
<polygon fill="#ffffff" stroke="#000000" points="230,-174 230,-193 322,-193 322,-174 230,-174"/>
<text text-anchor="middle" x="276" y="-181" font-family="Helvetica,sans-Serif" font-size="10.00" fill="#000000">zrtos/vfs_inode.h</text>
</a>
</g>
</g>
<!-- Node16&#45;&gt;Node19 -->
<g id="edge34" class="edge">
<title>Node16&#45;&gt;Node19</title>
<path fill="none" stroke="#191970" d="M338.4375,-235.3906C326.9921,-225.8786 309.2527,-211.1357 295.603,-199.7917"/>
<polygon fill="#191970" stroke="#191970" points="297.6533,-196.9447 287.7255,-193.2449 293.1792,-202.3283 297.6533,-196.9447"/>
</g>
<!-- Node20 -->
<g id="node21" class="node">
<title>Node20</title>
<g id="a_node21"><a xlink:href="null_8h.html" target="_top" xlink:title="zrtos/vfs/module/null\l/null.h">
<polygon fill="#ffffff" stroke="#000000" points="104.5,-168.5 104.5,-198.5 211.5,-198.5 211.5,-168.5 104.5,-168.5"/>
<text text-anchor="start" x="112.5" y="-186.5" font-family="Helvetica,sans-Serif" font-size="10.00" fill="#000000">zrtos/vfs/module/null</text>
<text text-anchor="middle" x="158" y="-175.5" font-family="Helvetica,sans-Serif" font-size="10.00" fill="#000000">/null.h</text>
</a>
</g>
</g>
<!-- Node16&#45;&gt;Node20 -->
<g id="edge36" class="edge">
<title>Node16&#45;&gt;Node20</title>
<path fill="none" stroke="#191970" d="M320,-235.3906C291.97,-226.4123 249.3905,-212.7735 214.9182,-201.7316"/>
<polygon fill="#191970" stroke="#191970" points="215.5595,-198.2619 204.9685,-198.5446 213.4242,-204.9283 215.5595,-198.2619"/>
</g>
<!-- Node17&#45;&gt;Node6 -->
<g id="edge28" class="edge">
<title>Node17&#45;&gt;Node6</title>
<path fill="none" stroke="#191970" d="M440.8624,-173.8845C428.3917,-154.3471 399.9071,-109.7211 383.7514,-84.4106"/>
<polygon fill="#191970" stroke="#191970" points="386.553,-82.2945 378.2224,-75.7484 380.6525,-86.0608 386.553,-82.2945"/>
</g>
<!-- Node17&#45;&gt;Node10 -->
<g id="edge29" class="edge">
<title>Node17&#45;&gt;Node10</title>
<path fill="none" stroke="#191970" d="M449.0245,-173.5481C452.0487,-159.5124 458.3319,-133.2432 467,-112 479.4619,-81.4591 498.8084,-48.3825 511.1876,-28.4292"/>
<polygon fill="#191970" stroke="#191970" points="514.2811,-30.0847 516.6443,-19.7568 508.3563,-26.3568 514.2811,-30.0847"/>
</g>
<!-- Node17&#45;&gt;Node12 -->
<g id="edge27" class="edge">
<title>Node17&#45;&gt;Node12</title>
<path fill="none" stroke="#191970" d="M431.6467,-173.8825C407.5277,-159.0773 358.968,-130.4823 315,-112 277.442,-96.2122 232.5519,-83.0901 201.9286,-74.9554"/>
<polygon fill="#191970" stroke="#191970" points="202.6815,-71.5346 192.1214,-72.3912 200.9108,-78.307 202.6815,-71.5346"/>
</g>
<!-- Node17&#45;&gt;Node15 -->
<g id="edge30" class="edge">
<title>Node17&#45;&gt;Node15</title>
<path fill="none" stroke="#191970" d="M457.1563,-173.8906C467.0199,-164.5581 482.2055,-150.1902 494.0987,-138.9374"/>
<polygon fill="#191970" stroke="#191970" points="496.8421,-141.1601 501.7006,-131.7449 492.0311,-136.0753 496.8421,-141.1601"/>
</g>
<!-- Node18&#45;&gt;Node6 -->
<g id="edge33" class="edge">
<title>Node18&#45;&gt;Node6</title>
<path fill="none" stroke="#191970" d="M289.4187,-112.2455C305.0485,-103.4928 328.2019,-90.527 346.0185,-80.5496"/>
<polygon fill="#191970" stroke="#191970" points="347.766,-83.5825 354.7809,-75.6427 344.3457,-77.475 347.766,-83.5825"/>
</g>
<!-- Node19&#45;&gt;Node11 -->
<g id="edge35" class="edge">
<title>Node19&#45;&gt;Node11</title>
<path fill="none" stroke="#191970" d="M258.0313,-173.8906C239.2116,-163.8262 209.4415,-147.9057 187.8359,-136.3514"/>
<polygon fill="#191970" stroke="#191970" points="189.3114,-133.1714 178.8426,-131.5419 186.0102,-139.3442 189.3114,-133.1714"/>
</g>
<!-- Node20&#45;&gt;Node11 -->
<g id="edge37" class="edge">
<title>Node20&#45;&gt;Node11</title>
<path fill="none" stroke="#191970" d="M158.7416,-168.2977C159.1276,-160.3834 159.6047,-150.6043 160.0207,-142.0759"/>
<polygon fill="#191970" stroke="#191970" points="163.5282,-142.0056 160.5197,-131.8469 156.5365,-141.6645 163.5282,-142.0056"/>
</g>
</g>
</svg>
