<?xml version="1.0" encoding="UTF-8" standalone="no"?>
<!DOCTYPE svg PUBLIC "-//W3C//DTD SVG 1.1//EN"
 "http://www.w3.org/Graphics/SVG/1.1/DTD/svg11.dtd">
<!-- Generated by graphviz version 2.40.1 (20161225.0304)
 -->
<!-- Title: zrtos_stack__pop Pages: 1 -->
<svg width="403pt" height="72pt"
 viewBox="0.00 0.00 403.00 71.50" xmlns="http://www.w3.org/2000/svg" xmlns:xlink="http://www.w3.org/1999/xlink">
<g id="graph0" class="graph" transform="scale(1 1) rotate(0) translate(4 67.5)">
<title>zrtos_stack__pop</title>
<polygon fill="#ffffff" stroke="transparent" points="-4,4 -4,-67.5 399,-67.5 399,4 -4,4"/>
<!-- Node20 -->
<g id="node1" class="node">
<title>Node20</title>
<polygon fill="#bfbfbf" stroke="#000000" points="0,-19.5 0,-38.5 94,-38.5 94,-19.5 0,-19.5"/>
<text text-anchor="middle" x="47" y="-26.5" font-family="Helvetica,sans-Serif" font-size="10.00" fill="#000000">zrtos_stack__pop</text>
</g>
<!-- Node21 -->
<g id="node2" class="node">
<title>Node21</title>
<g id="a_node2"><a xlink:href="mem_8h.html#ac36c32ce5585de38fd4b77b2a322ac78" target="_top" xlink:title="zrtos_mem__cpy">
<polygon fill="#ffffff" stroke="#000000" points="139,-38.5 139,-57.5 231,-57.5 231,-38.5 139,-38.5"/>
<text text-anchor="middle" x="185" y="-45.5" font-family="Helvetica,sans-Serif" font-size="10.00" fill="#000000">zrtos_mem__cpy</text>
</a>
</g>
</g>
<!-- Node20&#45;&gt;Node21 -->
<g id="edge1" class="edge">
<title>Node20&#45;&gt;Node21</title>
<path fill="none" stroke="#191970" d="M94.1058,-35.4856C105.2177,-37.0155 117.1748,-38.6617 128.6487,-40.2415"/>
<polygon fill="#191970" stroke="#191970" points="128.1901,-43.7113 138.574,-41.608 129.1449,-36.7767 128.1901,-43.7113"/>
</g>
<!-- Node23 -->
<g id="node4" class="node">
<title>Node23</title>
<g id="a_node4"><a xlink:href="types_8h.html#aba57d347db551b6b1bc7f791433322ad" target="_top" xlink:title="zrtos_types__ptr_add">
<polygon fill="#ffffff" stroke="#000000" points="130,-.5 130,-19.5 240,-19.5 240,-.5 130,-.5"/>
<text text-anchor="middle" x="185" y="-7.5" font-family="Helvetica,sans-Serif" font-size="10.00" fill="#000000">zrtos_types__ptr_add</text>
</a>
</g>
</g>
<!-- Node20&#45;&gt;Node23 -->
<g id="edge3" class="edge">
<title>Node20&#45;&gt;Node23</title>
<path fill="none" stroke="#191970" d="M94.1058,-22.5144C102.2994,-21.3863 110.9526,-20.1949 119.5327,-19.0136"/>
<polygon fill="#191970" stroke="#191970" points="120.1104,-22.4672 129.5396,-17.6359 119.1556,-15.5326 120.1104,-22.4672"/>
</g>
<!-- Node22 -->
<g id="node3" class="node">
<title>Node22</title>
<g id="a_node3"><a xlink:href="mem_8h.html#a9054cc3824c6ffdaf4ed24fde2f80f32" target="_top" xlink:title="zrtos_mem__move_left\l_overlapping">
<polygon fill="#ffffff" stroke="#000000" points="276,-33 276,-63 395,-63 395,-33 276,-33"/>
<text text-anchor="start" x="284" y="-51" font-family="Helvetica,sans-Serif" font-size="10.00" fill="#000000">zrtos_mem__move_left</text>
<text text-anchor="middle" x="335.5" y="-40" font-family="Helvetica,sans-Serif" font-size="10.00" fill="#000000">_overlapping</text>
</a>
</g>
</g>
<!-- Node21&#45;&gt;Node22 -->
<g id="edge2" class="edge">
<title>Node21&#45;&gt;Node22</title>
<path fill="none" stroke="#191970" d="M231.383,-48C242.2715,-48 254.1103,-48 265.7715,-48"/>
<polygon fill="#191970" stroke="#191970" points="265.945,-51.5001 275.945,-48 265.9449,-44.5001 265.945,-51.5001"/>
</g>
</g>
</svg>
