<?xml version="1.0" encoding="UTF-8" standalone="no"?>
<!DOCTYPE svg PUBLIC "-//W3C//DTD SVG 1.1//EN"
 "http://www.w3.org/Graphics/SVG/1.1/DTD/svg11.dtd">
<!-- Generated by graphviz version 2.40.1 (20161225.0304)
 -->
<!-- Title: zrtos_stack__write Pages: 1 -->
<svg width="536pt" height="72pt"
 viewBox="0.00 0.00 536.00 71.50" xmlns="http://www.w3.org/2000/svg" xmlns:xlink="http://www.w3.org/1999/xlink">
<g id="graph0" class="graph" transform="scale(1 1) rotate(0) translate(4 67.5)">
<title>zrtos_stack__write</title>
<polygon fill="#ffffff" stroke="transparent" points="-4,4 -4,-67.5 532,-67.5 532,4 -4,4"/>
<!-- Node62 -->
<g id="node1" class="node">
<title>Node62</title>
<polygon fill="#bfbfbf" stroke="#000000" points="0,-19.5 0,-38.5 99,-38.5 99,-19.5 0,-19.5"/>
<text text-anchor="middle" x="49.5" y="-26.5" font-family="Helvetica,sans-Serif" font-size="10.00" fill="#000000">zrtos_stack__write</text>
</g>
<!-- Node63 -->
<g id="node2" class="node">
<title>Node63</title>
<g id="a_node2"><a xlink:href="stack_8h.html#aa86feb2b5c314393a0624e3aefee9ed6" target="_top" xlink:title="_zrtos_stack__cpy">
<polygon fill="#ffffff" stroke="#000000" points="140.5,-38.5 140.5,-57.5 239.5,-57.5 239.5,-38.5 140.5,-38.5"/>
<text text-anchor="middle" x="190" y="-45.5" font-family="Helvetica,sans-Serif" font-size="10.00" fill="#000000">_zrtos_stack__cpy</text>
</a>
</g>
</g>
<!-- Node62&#45;&gt;Node63 -->
<g id="edge1" class="edge">
<title>Node62&#45;&gt;Node63</title>
<path fill="none" stroke="#191970" d="M99.035,-35.6987C109.2132,-37.0751 120.0284,-38.5377 130.5158,-39.9559"/>
<polygon fill="#191970" stroke="#191970" points="130.0598,-43.426 140.4387,-41.2978 130.998,-36.4891 130.0598,-43.426"/>
</g>
<!-- Node66 -->
<g id="node5" class="node">
<title>Node66</title>
<g id="a_node5"><a xlink:href="types_8h.html#aba57d347db551b6b1bc7f791433322ad" target="_top" xlink:title="zrtos_types__ptr_add">
<polygon fill="#ffffff" stroke="#000000" points="135,-.5 135,-19.5 245,-19.5 245,-.5 135,-.5"/>
<text text-anchor="middle" x="190" y="-7.5" font-family="Helvetica,sans-Serif" font-size="10.00" fill="#000000">zrtos_types__ptr_add</text>
</a>
</g>
</g>
<!-- Node62&#45;&gt;Node66 -->
<g id="edge4" class="edge">
<title>Node62&#45;&gt;Node66</title>
<path fill="none" stroke="#191970" d="M99.035,-22.3013C107.3257,-21.1802 116.039,-20.0018 124.6536,-18.8369"/>
<polygon fill="#191970" stroke="#191970" points="125.249,-22.2883 134.6897,-17.4797 124.3108,-15.3515 125.249,-22.2883"/>
</g>
<!-- Node64 -->
<g id="node3" class="node">
<title>Node64</title>
<g id="a_node3"><a xlink:href="mem_8h.html#ac36c32ce5585de38fd4b77b2a322ac78" target="_top" xlink:title="zrtos_mem__cpy">
<polygon fill="#ffffff" stroke="#000000" points="281,-38.5 281,-57.5 373,-57.5 373,-38.5 281,-38.5"/>
<text text-anchor="middle" x="327" y="-45.5" font-family="Helvetica,sans-Serif" font-size="10.00" fill="#000000">zrtos_mem__cpy</text>
</a>
</g>
</g>
<!-- Node63&#45;&gt;Node64 -->
<g id="edge2" class="edge">
<title>Node63&#45;&gt;Node64</title>
<path fill="none" stroke="#191970" d="M239.8477,-48C249.8319,-48 260.3883,-48 270.5767,-48"/>
<polygon fill="#191970" stroke="#191970" points="270.6076,-51.5001 280.6076,-48 270.6076,-44.5001 270.6076,-51.5001"/>
</g>
<!-- Node65 -->
<g id="node4" class="node">
<title>Node65</title>
<g id="a_node4"><a xlink:href="mem_8h.html#a9054cc3824c6ffdaf4ed24fde2f80f32" target="_top" xlink:title="zrtos_mem__move_left\l_overlapping">
<polygon fill="#ffffff" stroke="#000000" points="409,-33 409,-63 528,-63 528,-33 409,-33"/>
<text text-anchor="start" x="417" y="-51" font-family="Helvetica,sans-Serif" font-size="10.00" fill="#000000">zrtos_mem__move_left</text>
<text text-anchor="middle" x="468.5" y="-40" font-family="Helvetica,sans-Serif" font-size="10.00" fill="#000000">_overlapping</text>
</a>
</g>
</g>
<!-- Node64&#45;&gt;Node65 -->
<g id="edge3" class="edge">
<title>Node64&#45;&gt;Node65</title>
<path fill="none" stroke="#191970" d="M373.3324,-48C381.5007,-48 390.164,-48 398.8063,-48"/>
<polygon fill="#191970" stroke="#191970" points="398.911,-51.5001 408.911,-48 398.9109,-44.5001 398.911,-51.5001"/>
</g>
</g>
</svg>
