<?xml version="1.0" encoding="UTF-8" standalone="no"?>
<!DOCTYPE svg PUBLIC "-//W3C//DTD SVG 1.1//EN"
 "http://www.w3.org/Graphics/SVG/1.1/DTD/svg11.dtd">
<!-- Generated by graphviz version 2.40.1 (20161225.0304)
 -->
<!-- Title: zrtos_stack__write Pages: 1 -->
<svg width="375pt" height="28pt"
 viewBox="0.00 0.00 375.00 28.00" xmlns="http://www.w3.org/2000/svg" xmlns:xlink="http://www.w3.org/1999/xlink">
<g id="graph0" class="graph" transform="scale(1 1) rotate(0) translate(4 24)">
<title>zrtos_stack__write</title>
<polygon fill="#ffffff" stroke="transparent" points="-4,4 -4,-24 371,-24 371,4 -4,4"/>
<!-- Node67 -->
<g id="node1" class="node">
<title>Node67</title>
<polygon fill="#bfbfbf" stroke="#000000" points="0,-.5 0,-19.5 99,-19.5 99,-.5 0,-.5"/>
<text text-anchor="middle" x="49.5" y="-7.5" font-family="Helvetica,sans-Serif" font-size="10.00" fill="#000000">zrtos_stack__write</text>
</g>
<!-- Node68 -->
<g id="node2" class="node">
<title>Node68</title>
<g id="a_node2"><a xlink:href="stack_8h.html#a34c188132dc24679ed10585279d791d9" target="_top" xlink:title="zrtos_stack__write_ex">
<polygon fill="#ffffff" stroke="#000000" points="135,-.5 135,-19.5 250,-19.5 250,-.5 135,-.5"/>
<text text-anchor="middle" x="192.5" y="-7.5" font-family="Helvetica,sans-Serif" font-size="10.00" fill="#000000">zrtos_stack__write_ex</text>
</a>
</g>
</g>
<!-- Node67&#45;&gt;Node68 -->
<g id="edge1" class="edge">
<title>Node67&#45;&gt;Node68</title>
<path fill="none" stroke="#191970" d="M109.2221,-10C117.627,-10 126.2552,-10 134.6247,-10"/>
<polygon fill="#191970" stroke="#191970" points="109.1132,-6.5001 99.1131,-10 109.1131,-13.5001 109.1132,-6.5001"/>
</g>
<!-- Node69 -->
<g id="node3" class="node">
<title>Node69</title>
<g id="a_node3"><a xlink:href="vm_8h.html#a8d1a7bee17e7bc3e2f5b16385b8108d9" target="_top" xlink:title="zrtos_vm__run">
<polygon fill="#ffffff" stroke="#000000" points="286,-.5 286,-19.5 367,-19.5 367,-.5 286,-.5"/>
<text text-anchor="middle" x="326.5" y="-7.5" font-family="Helvetica,sans-Serif" font-size="10.00" fill="#000000">zrtos_vm__run</text>
</a>
</g>
</g>
<!-- Node68&#45;&gt;Node69 -->
<g id="edge2" class="edge">
<title>Node68&#45;&gt;Node69</title>
<path fill="none" stroke="#191970" d="M260.343,-10C269.0866,-10 277.811,-10 285.9206,-10"/>
<polygon fill="#191970" stroke="#191970" points="260.1058,-6.5001 250.1057,-10 260.1057,-13.5001 260.1058,-6.5001"/>
</g>
</g>
</svg>
