<?xml version="1.0" encoding="UTF-8" standalone="no"?>
<!DOCTYPE svg PUBLIC "-//W3C//DTD SVG 1.1//EN"
 "http://www.w3.org/Graphics/SVG/1.1/DTD/svg11.dtd">
<!-- Generated by graphviz version 10.0.1 (20240210.2158)
 -->
<!-- Title: zrtos_stack__write Pages: 1 -->
<svg width="370pt" height="28pt"
 viewBox="0.00 0.00 370.25 28.00" xmlns="http://www.w3.org/2000/svg" xmlns:xlink="http://www.w3.org/1999/xlink">
<g id="graph0" class="graph" transform="scale(1 1) rotate(0) translate(4 24)">
<title>zrtos_stack__write</title>
<!-- Node1 -->
<g id="Node000001" class="node">
<title>Node1</title>
<g id="a_Node000001"><a xlink:title=" ">
<polygon fill="#999999" stroke="#666666" points="362.25,-20 264.5,-20 264.5,0 362.25,0 362.25,-20"/>
<text text-anchor="middle" x="313.38" y="-6.5" font-family="Helvetica,sans-Serif" font-size="10.00">zrtos_stack__write</text>
</a>
</g>
</g>
<!-- Node2 -->
<g id="Node000002" class="node">
<title>Node2</title>
<g id="a_Node000002"><a xlink:href="stack_8h.html#a34c188132dc24679ed10585279d791d9" target="_top" xlink:title=" ">
<polygon fill="white" stroke="#666666" points="228.5,-20 115,-20 115,0 228.5,0 228.5,-20"/>
<text text-anchor="middle" x="171.75" y="-6.5" font-family="Helvetica,sans-Serif" font-size="10.00">zrtos_stack__write_ex</text>
</a>
</g>
</g>
<!-- Node1&#45;&gt;Node2 -->
<g id="edge1_Node000001_Node000002" class="edge">
<title>Node1&#45;&gt;Node2</title>
<g id="a_edge1_Node000001_Node000002"><a xlink:title=" ">
<path fill="none" stroke="#63b8ff" d="M253.03,-10C244.92,-10 236.62,-10 228.58,-10"/>
<polygon fill="#63b8ff" stroke="#63b8ff" points="252.81,-13.5 262.81,-10 252.81,-6.5 252.81,-13.5"/>
</a>
</g>
</g>
<!-- Node3 -->
<g id="Node000003" class="node">
<title>Node3</title>
<g id="a_Node000003"><a xlink:href="vm_8h.html#a8d1a7bee17e7bc3e2f5b16385b8108d9" target="_top" xlink:title=" ">
<polygon fill="white" stroke="#666666" points="79,-20 0,-20 0,0 79,0 79,-20"/>
<text text-anchor="middle" x="39.5" y="-6.5" font-family="Helvetica,sans-Serif" font-size="10.00">zrtos_vm__run</text>
</a>
</g>
</g>
<!-- Node2&#45;&gt;Node3 -->
<g id="edge2_Node000002_Node000003" class="edge">
<title>Node2&#45;&gt;Node3</title>
<g id="a_edge2_Node000002_Node000003"><a xlink:title=" ">
<path fill="none" stroke="#63b8ff" d="M103.44,-10C95.12,-10 86.85,-10 79.17,-10"/>
<polygon fill="#63b8ff" stroke="#63b8ff" points="103.24,-13.5 113.24,-10 103.24,-6.5 103.24,-13.5"/>
</a>
</g>
</g>
</g>
</svg>
