<?xml version="1.0" encoding="UTF-8" standalone="no"?>
<!DOCTYPE svg PUBLIC "-//W3C//DTD SVG 1.1//EN"
 "http://www.w3.org/Graphics/SVG/1.1/DTD/svg11.dtd">
<!-- Generated by graphviz version 2.40.1 (20161225.0304)
 -->
<!-- Title: zrtos_stack__read Pages: 1 -->
<svg width="534pt" height="72pt"
 viewBox="0.00 0.00 534.00 71.50" xmlns="http://www.w3.org/2000/svg" xmlns:xlink="http://www.w3.org/1999/xlink">
<g id="graph0" class="graph" transform="scale(1 1) rotate(0) translate(4 67.5)">
<title>zrtos_stack__read</title>
<polygon fill="#ffffff" stroke="transparent" points="-4,4 -4,-67.5 530,-67.5 530,4 -4,4"/>
<!-- Node33 -->
<g id="node1" class="node">
<title>Node33</title>
<polygon fill="#bfbfbf" stroke="#000000" points="0,-19.5 0,-38.5 97,-38.5 97,-19.5 0,-19.5"/>
<text text-anchor="middle" x="48.5" y="-26.5" font-family="Helvetica,sans-Serif" font-size="10.00" fill="#000000">zrtos_stack__read</text>
</g>
<!-- Node34 -->
<g id="node2" class="node">
<title>Node34</title>
<g id="a_node2"><a xlink:href="stack_8h.html#aa86feb2b5c314393a0624e3aefee9ed6" target="_top" xlink:title="_zrtos_stack__cpy">
<polygon fill="#ffffff" stroke="#000000" points="138.5,-38.5 138.5,-57.5 237.5,-57.5 237.5,-38.5 138.5,-38.5"/>
<text text-anchor="middle" x="188" y="-45.5" font-family="Helvetica,sans-Serif" font-size="10.00" fill="#000000">_zrtos_stack__cpy</text>
</a>
</g>
</g>
<!-- Node33&#45;&gt;Node34 -->
<g id="edge1" class="edge">
<title>Node33&#45;&gt;Node34</title>
<path fill="none" stroke="#191970" d="M97.2903,-35.6453C107.1901,-36.9936 117.7109,-38.4266 127.9476,-39.8208"/>
<polygon fill="#191970" stroke="#191970" points="127.675,-43.3159 138.0559,-41.1976 128.6198,-36.38 127.675,-43.3159"/>
</g>
<!-- Node37 -->
<g id="node5" class="node">
<title>Node37</title>
<g id="a_node5"><a xlink:href="types_8h.html#aba57d347db551b6b1bc7f791433322ad" target="_top" xlink:title="zrtos_types__ptr_add">
<polygon fill="#ffffff" stroke="#000000" points="133,-.5 133,-19.5 243,-19.5 243,-.5 133,-.5"/>
<text text-anchor="middle" x="188" y="-7.5" font-family="Helvetica,sans-Serif" font-size="10.00" fill="#000000">zrtos_types__ptr_add</text>
</a>
</g>
</g>
<!-- Node33&#45;&gt;Node37 -->
<g id="edge4" class="edge">
<title>Node33&#45;&gt;Node37</title>
<path fill="none" stroke="#191970" d="M97.2903,-22.3547C105.5353,-21.2318 114.2109,-20.0501 122.7944,-18.881"/>
<polygon fill="#191970" stroke="#191970" points="123.3609,-22.3363 132.797,-17.5187 122.4162,-15.4003 123.3609,-22.3363"/>
</g>
<!-- Node35 -->
<g id="node3" class="node">
<title>Node35</title>
<g id="a_node3"><a xlink:href="mem_8h.html#ac36c32ce5585de38fd4b77b2a322ac78" target="_top" xlink:title="zrtos_mem__cpy">
<polygon fill="#ffffff" stroke="#000000" points="279,-38.5 279,-57.5 371,-57.5 371,-38.5 279,-38.5"/>
<text text-anchor="middle" x="325" y="-45.5" font-family="Helvetica,sans-Serif" font-size="10.00" fill="#000000">zrtos_mem__cpy</text>
</a>
</g>
</g>
<!-- Node34&#45;&gt;Node35 -->
<g id="edge2" class="edge">
<title>Node34&#45;&gt;Node35</title>
<path fill="none" stroke="#191970" d="M237.8477,-48C247.8319,-48 258.3883,-48 268.5767,-48"/>
<polygon fill="#191970" stroke="#191970" points="268.6076,-51.5001 278.6076,-48 268.6076,-44.5001 268.6076,-51.5001"/>
</g>
<!-- Node36 -->
<g id="node4" class="node">
<title>Node36</title>
<g id="a_node4"><a xlink:href="mem_8h.html#a9054cc3824c6ffdaf4ed24fde2f80f32" target="_top" xlink:title="zrtos_mem__move_left\l_overlapping">
<polygon fill="#ffffff" stroke="#000000" points="407,-33 407,-63 526,-63 526,-33 407,-33"/>
<text text-anchor="start" x="415" y="-51" font-family="Helvetica,sans-Serif" font-size="10.00" fill="#000000">zrtos_mem__move_left</text>
<text text-anchor="middle" x="466.5" y="-40" font-family="Helvetica,sans-Serif" font-size="10.00" fill="#000000">_overlapping</text>
</a>
</g>
</g>
<!-- Node35&#45;&gt;Node36 -->
<g id="edge3" class="edge">
<title>Node35&#45;&gt;Node36</title>
<path fill="none" stroke="#191970" d="M371.3324,-48C379.5007,-48 388.164,-48 396.8063,-48"/>
<polygon fill="#191970" stroke="#191970" points="396.911,-51.5001 406.911,-48 396.9109,-44.5001 396.911,-51.5001"/>
</g>
</g>
</svg>
