<?xml version="1.0" encoding="UTF-8" standalone="no"?>
<!DOCTYPE svg PUBLIC "-//W3C//DTD SVG 1.1//EN"
 "http://www.w3.org/Graphics/SVG/1.1/DTD/svg11.dtd">
<!-- Generated by graphviz version 2.40.1 (20161225.0304)
 -->
<!-- Title: zrtos_stack__read_ex Pages: 1 -->
<svg width="723pt" height="85pt"
 viewBox="0.00 0.00 723.00 85.00" xmlns="http://www.w3.org/2000/svg" xmlns:xlink="http://www.w3.org/1999/xlink">
<g id="graph0" class="graph" transform="scale(1 1) rotate(0) translate(4 81)">
<title>zrtos_stack__read_ex</title>
<polygon fill="#ffffff" stroke="transparent" points="-4,4 -4,-81 719,-81 719,4 -4,4"/>
<!-- Node41 -->
<g id="node1" class="node">
<title>Node41</title>
<polygon fill="#bfbfbf" stroke="#000000" points="0,-38.5 0,-57.5 113,-57.5 113,-38.5 0,-38.5"/>
<text text-anchor="middle" x="56.5" y="-45.5" font-family="Helvetica,sans-Serif" font-size="10.00" fill="#000000">zrtos_stack__read_ex</text>
</g>
<!-- Node42 -->
<g id="node2" class="node">
<title>Node42</title>
<g id="a_node2"><a xlink:href="stack_8h.html#a57ec254b26faf939e4214820af6c2200" target="_top" xlink:title="zrtos_stack__get_offset_ex">
<polygon fill="#ffffff" stroke="#000000" points="149,-57.5 149,-76.5 286,-76.5 286,-57.5 149,-57.5"/>
<text text-anchor="middle" x="217.5" y="-64.5" font-family="Helvetica,sans-Serif" font-size="10.00" fill="#000000">zrtos_stack__get_offset_ex</text>
</a>
</g>
</g>
<!-- Node41&#45;&gt;Node42 -->
<g id="edge1" class="edge">
<title>Node41&#45;&gt;Node42</title>
<path fill="none" stroke="#191970" d="M113.2626,-54.6987C121.5265,-55.6739 130.157,-56.6924 138.7607,-57.7078"/>
<polygon fill="#191970" stroke="#191970" points="138.4834,-61.1993 148.8248,-58.8955 139.3039,-54.2475 138.4834,-61.1993"/>
</g>
<!-- Node43 -->
<g id="node3" class="node">
<title>Node43</title>
<g id="a_node3"><a xlink:href="stack_8h.html#ab6d341f61cf081171285ecc0013eb025" target="_top" xlink:title="zrtos_stack__read">
<polygon fill="#ffffff" stroke="#000000" points="169,-19.5 169,-38.5 266,-38.5 266,-19.5 169,-19.5"/>
<text text-anchor="middle" x="217.5" y="-26.5" font-family="Helvetica,sans-Serif" font-size="10.00" fill="#000000">zrtos_stack__read</text>
</a>
</g>
</g>
<!-- Node41&#45;&gt;Node43 -->
<g id="edge2" class="edge">
<title>Node41&#45;&gt;Node43</title>
<path fill="none" stroke="#191970" d="M113.2626,-41.3013C128.0477,-39.5565 144.0062,-37.6732 158.8851,-35.9173"/>
<polygon fill="#191970" stroke="#191970" points="159.4649,-39.3732 168.9857,-34.7253 158.6444,-32.4215 159.4649,-39.3732"/>
</g>
<!-- Node44 -->
<g id="node4" class="node">
<title>Node44</title>
<g id="a_node4"><a xlink:href="stack_8h.html#aa86feb2b5c314393a0624e3aefee9ed6" target="_top" xlink:title="_zrtos_stack__cpy">
<polygon fill="#ffffff" stroke="#000000" points="327.5,-38.5 327.5,-57.5 426.5,-57.5 426.5,-38.5 327.5,-38.5"/>
<text text-anchor="middle" x="377" y="-45.5" font-family="Helvetica,sans-Serif" font-size="10.00" fill="#000000">_zrtos_stack__cpy</text>
</a>
</g>
</g>
<!-- Node43&#45;&gt;Node44 -->
<g id="edge3" class="edge">
<title>Node43&#45;&gt;Node44</title>
<path fill="none" stroke="#191970" d="M266.2219,-34.8039C282.3058,-36.7198 300.3845,-38.8734 317.1989,-40.8764"/>
<polygon fill="#191970" stroke="#191970" points="317.1318,-44.393 327.4757,-42.1005 317.9599,-37.4422 317.1318,-44.393"/>
</g>
<!-- Node47 -->
<g id="node7" class="node">
<title>Node47</title>
<g id="a_node7"><a xlink:href="types_8h.html#aba57d347db551b6b1bc7f791433322ad" target="_top" xlink:title="zrtos_types__ptr_add">
<polygon fill="#ffffff" stroke="#000000" points="322,-.5 322,-19.5 432,-19.5 432,-.5 322,-.5"/>
<text text-anchor="middle" x="377" y="-7.5" font-family="Helvetica,sans-Serif" font-size="10.00" fill="#000000">zrtos_types__ptr_add</text>
</a>
</g>
</g>
<!-- Node43&#45;&gt;Node47 -->
<g id="edge6" class="edge">
<title>Node43&#45;&gt;Node47</title>
<path fill="none" stroke="#191970" d="M266.2219,-23.1961C280.5136,-21.4937 296.3803,-19.6036 311.5355,-17.7983"/>
<polygon fill="#191970" stroke="#191970" points="312.37,-21.2237 321.8858,-16.5653 311.542,-14.2728 312.37,-21.2237"/>
</g>
<!-- Node45 -->
<g id="node5" class="node">
<title>Node45</title>
<g id="a_node5"><a xlink:href="mem_8h.html#ac36c32ce5585de38fd4b77b2a322ac78" target="_top" xlink:title="zrtos_mem__cpy">
<polygon fill="#ffffff" stroke="#000000" points="468,-38.5 468,-57.5 560,-57.5 560,-38.5 468,-38.5"/>
<text text-anchor="middle" x="514" y="-45.5" font-family="Helvetica,sans-Serif" font-size="10.00" fill="#000000">zrtos_mem__cpy</text>
</a>
</g>
</g>
<!-- Node44&#45;&gt;Node45 -->
<g id="edge4" class="edge">
<title>Node44&#45;&gt;Node45</title>
<path fill="none" stroke="#191970" d="M426.8477,-48C436.8319,-48 447.3883,-48 457.5767,-48"/>
<polygon fill="#191970" stroke="#191970" points="457.6076,-51.5001 467.6076,-48 457.6076,-44.5001 457.6076,-51.5001"/>
</g>
<!-- Node46 -->
<g id="node6" class="node">
<title>Node46</title>
<g id="a_node6"><a xlink:href="mem_8h.html#a9054cc3824c6ffdaf4ed24fde2f80f32" target="_top" xlink:title="zrtos_mem__move_left\l_overlapping">
<polygon fill="#ffffff" stroke="#000000" points="596,-33 596,-63 715,-63 715,-33 596,-33"/>
<text text-anchor="start" x="604" y="-51" font-family="Helvetica,sans-Serif" font-size="10.00" fill="#000000">zrtos_mem__move_left</text>
<text text-anchor="middle" x="655.5" y="-40" font-family="Helvetica,sans-Serif" font-size="10.00" fill="#000000">_overlapping</text>
</a>
</g>
</g>
<!-- Node45&#45;&gt;Node46 -->
<g id="edge5" class="edge">
<title>Node45&#45;&gt;Node46</title>
<path fill="none" stroke="#191970" d="M560.3324,-48C568.5007,-48 577.164,-48 585.8063,-48"/>
<polygon fill="#191970" stroke="#191970" points="585.911,-51.5001 595.911,-48 585.9109,-44.5001 585.911,-51.5001"/>
</g>
</g>
</svg>
