<?xml version="1.0" encoding="UTF-8" standalone="no"?>
<!DOCTYPE svg PUBLIC "-//W3C//DTD SVG 1.1//EN"
 "http://www.w3.org/Graphics/SVG/1.1/DTD/svg11.dtd">
<!-- Generated by graphviz version 10.0.1 (20240210.2158)
 -->
<!-- Title: zrtos_stack__read Pages: 1 -->
<svg width="529pt" height="72pt"
 viewBox="0.00 0.00 528.75 72.00" xmlns="http://www.w3.org/2000/svg" xmlns:xlink="http://www.w3.org/1999/xlink">
<g id="graph0" class="graph" transform="scale(1 1) rotate(0) translate(4 68)">
<title>zrtos_stack__read</title>
<!-- Node1 -->
<g id="Node000001" class="node">
<title>Node1</title>
<g id="a_Node000001"><a xlink:title=" ">
<polygon fill="#999999" stroke="#666666" points="96.25,-39 0,-39 0,-19 96.25,-19 96.25,-39"/>
<text text-anchor="middle" x="48.12" y="-25.5" font-family="Helvetica,sans-Serif" font-size="10.00">zrtos_stack__read</text>
</a>
</g>
</g>
<!-- Node2 -->
<g id="Node000002" class="node">
<title>Node2</title>
<g id="a_Node000002"><a xlink:href="stack_8h.html#aa86feb2b5c314393a0624e3aefee9ed6" target="_top" xlink:title=" ">
<polygon fill="white" stroke="#666666" points="236.38,-58 137.88,-58 137.88,-38 236.38,-38 236.38,-58"/>
<text text-anchor="middle" x="187.12" y="-44.5" font-family="Helvetica,sans-Serif" font-size="10.00">_zrtos_stack__cpy</text>
</a>
</g>
</g>
<!-- Node1&#45;&gt;Node2 -->
<g id="edge1_Node000001_Node000002" class="edge">
<title>Node1&#45;&gt;Node2</title>
<g id="a_edge1_Node000001_Node000002"><a xlink:title=" ">
<path fill="none" stroke="#63b8ff" d="M96.66,-35.59C106.31,-36.93 116.59,-38.36 126.6,-39.74"/>
<polygon fill="#63b8ff" stroke="#63b8ff" points="125.86,-43.18 136.25,-41.08 126.83,-36.24 125.86,-43.18"/>
</a>
</g>
</g>
<!-- Node5 -->
<g id="Node000005" class="node">
<title>Node5</title>
<g id="a_Node000005"><a xlink:href="types_8h.html#ab0b4ddf54b9e9f4a54504f833babbc1c" target="_top" xlink:title=" ">
<polygon fill="white" stroke="#666666" points="242,-20 132.25,-20 132.25,0 242,0 242,-20"/>
<text text-anchor="middle" x="187.12" y="-6.5" font-family="Helvetica,sans-Serif" font-size="10.00">zrtos_types__ptr_add</text>
</a>
</g>
</g>
<!-- Node1&#45;&gt;Node5 -->
<g id="edge4_Node000001_Node000005" class="edge">
<title>Node1&#45;&gt;Node5</title>
<g id="a_edge4_Node000001_Node000005"><a xlink:title=" ">
<path fill="none" stroke="#63b8ff" d="M96.66,-22.41C104.43,-21.33 112.6,-20.2 120.72,-19.07"/>
<polygon fill="#63b8ff" stroke="#63b8ff" points="121.18,-22.54 130.61,-17.7 120.22,-15.61 121.18,-22.54"/>
</a>
</g>
</g>
<!-- Node3 -->
<g id="Node000003" class="node">
<title>Node3</title>
<g id="a_Node000003"><a xlink:href="mem_8h.html#ac36c32ce5585de38fd4b77b2a322ac78" target="_top" xlink:title=" ">
<polygon fill="white" stroke="#666666" points="369,-58 278,-58 278,-38 369,-38 369,-58"/>
<text text-anchor="middle" x="323.5" y="-44.5" font-family="Helvetica,sans-Serif" font-size="10.00">zrtos_mem__cpy</text>
</a>
</g>
</g>
<!-- Node2&#45;&gt;Node3 -->
<g id="edge2_Node000002_Node000003" class="edge">
<title>Node2&#45;&gt;Node3</title>
<g id="a_edge2_Node000002_Node000003"><a xlink:title=" ">
<path fill="none" stroke="#63b8ff" d="M236.64,-48C246.26,-48 256.43,-48 266.28,-48"/>
<polygon fill="#63b8ff" stroke="#63b8ff" points="266.12,-51.5 276.12,-48 266.12,-44.5 266.12,-51.5"/>
</a>
</g>
</g>
<!-- Node4 -->
<g id="Node000004" class="node">
<title>Node4</title>
<g id="a_Node000004"><a xlink:href="mem_8h.html#a9054cc3824c6ffdaf4ed24fde2f80f32" target="_top" xlink:title=" ">
<polygon fill="white" stroke="#666666" points="520.75,-64 405,-64 405,-32 520.75,-32 520.75,-64"/>
<text text-anchor="start" x="413" y="-50.5" font-family="Helvetica,sans-Serif" font-size="10.00">zrtos_mem__move_left</text>
<text text-anchor="middle" x="462.88" y="-38.5" font-family="Helvetica,sans-Serif" font-size="10.00">_overlapping</text>
</a>
</g>
</g>
<!-- Node3&#45;&gt;Node4 -->
<g id="edge3_Node000003_Node000004" class="edge">
<title>Node3&#45;&gt;Node4</title>
<g id="a_edge3_Node000003_Node000004"><a xlink:title=" ">
<path fill="none" stroke="#63b8ff" d="M369.48,-48C377.14,-48 385.25,-48 393.35,-48"/>
<polygon fill="#63b8ff" stroke="#63b8ff" points="393.25,-51.5 403.25,-48 393.25,-44.5 393.25,-51.5"/>
</a>
</g>
</g>
</g>
</svg>
