<?xml version="1.0" encoding="UTF-8" standalone="no"?>
<!DOCTYPE svg PUBLIC "-//W3C//DTD SVG 1.1//EN"
 "http://www.w3.org/Graphics/SVG/1.1/DTD/svg11.dtd">
<!-- Generated by graphviz version 2.40.1 (20161225.0304)
 -->
<!-- Title: zrtos_stack__read Pages: 1 -->
<svg width="371pt" height="28pt"
 viewBox="0.00 0.00 371.00 28.00" xmlns="http://www.w3.org/2000/svg" xmlns:xlink="http://www.w3.org/1999/xlink">
<g id="graph0" class="graph" transform="scale(1 1) rotate(0) translate(4 24)">
<title>zrtos_stack__read</title>
<polygon fill="#ffffff" stroke="transparent" points="-4,4 -4,-24 367,-24 367,4 -4,4"/>
<!-- Node38 -->
<g id="node1" class="node">
<title>Node38</title>
<polygon fill="#bfbfbf" stroke="#000000" points="0,-.5 0,-19.5 97,-19.5 97,-.5 0,-.5"/>
<text text-anchor="middle" x="48.5" y="-7.5" font-family="Helvetica,sans-Serif" font-size="10.00" fill="#000000">zrtos_stack__read</text>
</g>
<!-- Node39 -->
<g id="node2" class="node">
<title>Node39</title>
<g id="a_node2"><a xlink:href="stack_8h.html#a671e22b7c2aaae864486a45d585ea6cd" target="_top" xlink:title="zrtos_stack__read_ex">
<polygon fill="#ffffff" stroke="#000000" points="133,-.5 133,-19.5 246,-19.5 246,-.5 133,-.5"/>
<text text-anchor="middle" x="189.5" y="-7.5" font-family="Helvetica,sans-Serif" font-size="10.00" fill="#000000">zrtos_stack__read_ex</text>
</a>
</g>
</g>
<!-- Node38&#45;&gt;Node39 -->
<g id="edge1" class="edge">
<title>Node38&#45;&gt;Node39</title>
<path fill="none" stroke="#191970" d="M107.1544,-10C115.5814,-10 124.2409,-10 132.6325,-10"/>
<polygon fill="#191970" stroke="#191970" points="107.0242,-6.5001 97.0242,-10 107.0242,-13.5001 107.0242,-6.5001"/>
</g>
<!-- Node40 -->
<g id="node3" class="node">
<title>Node40</title>
<g id="a_node3"><a xlink:href="vm_8h.html#a8d1a7bee17e7bc3e2f5b16385b8108d9" target="_top" xlink:title="zrtos_vm__run">
<polygon fill="#ffffff" stroke="#000000" points="282,-.5 282,-19.5 363,-19.5 363,-.5 282,-.5"/>
<text text-anchor="middle" x="322.5" y="-7.5" font-family="Helvetica,sans-Serif" font-size="10.00" fill="#000000">zrtos_vm__run</text>
</a>
</g>
</g>
<!-- Node39&#45;&gt;Node40 -->
<g id="edge2" class="edge">
<title>Node39&#45;&gt;Node40</title>
<path fill="none" stroke="#191970" d="M256.4835,-10C265.1932,-10 273.8919,-10 281.9818,-10"/>
<polygon fill="#191970" stroke="#191970" points="256.2898,-6.5001 246.2898,-10 256.2897,-13.5001 256.2898,-6.5001"/>
</g>
</g>
</svg>
