<?xml version="1.0" encoding="UTF-8" standalone="no"?>
<!DOCTYPE svg PUBLIC "-//W3C//DTD SVG 1.1//EN"
 "http://www.w3.org/Graphics/SVG/1.1/DTD/svg11.dtd">
<!-- Generated by graphviz version 10.0.1 (20240210.2158)
 -->
<!-- Title: zrtos_str__vsnprintf_internal Pages: 1 -->
<svg width="609pt" height="142pt"
 viewBox="0.00 0.00 609.25 142.00" xmlns="http://www.w3.org/2000/svg" xmlns:xlink="http://www.w3.org/1999/xlink">
<g id="graph0" class="graph" transform="scale(1 1) rotate(0) translate(4 138)">
<title>zrtos_str__vsnprintf_internal</title>
<!-- Node1 -->
<g id="Node000001" class="node">
<title>Node1</title>
<g id="a_Node000001"><a xlink:title=" ">
<polygon fill="#999999" stroke="#666666" points="100,-64 0,-64 0,-32 100,-32 100,-64"/>
<text text-anchor="start" x="8" y="-50.5" font-family="Helvetica,sans-Serif" font-size="10.00">zrtos_str__vsnprintf</text>
<text text-anchor="middle" x="50" y="-38.5" font-family="Helvetica,sans-Serif" font-size="10.00">_internal</text>
</a>
</g>
</g>
<!-- Node2 -->
<g id="Node000002" class="node">
<title>Node2</title>
<g id="a_Node000002"><a xlink:href="str_8h.html#adcf77443fdcd0ba7a3a37438f6ee3855" target="_top" xlink:title=" ">
<polygon fill="white" stroke="#666666" points="219.5,-96 136,-96 136,-76 219.5,-76 219.5,-96"/>
<text text-anchor="middle" x="177.75" y="-82.5" font-family="Helvetica,sans-Serif" font-size="10.00">zrtos_str__dtoa</text>
</a>
</g>
</g>
<!-- Node1&#45;&gt;Node2 -->
<g id="edge1_Node000001_Node000002" class="edge">
<title>Node1&#45;&gt;Node2</title>
<g id="a_edge1_Node000001_Node000002"><a xlink:title=" ">
<path fill="none" stroke="#63b8ff" d="M100.34,-62.91C110.54,-65.99 121.23,-69.22 131.29,-72.26"/>
<polygon fill="#63b8ff" stroke="#63b8ff" points="130.27,-75.61 140.85,-75.15 132.29,-68.91 130.27,-75.61"/>
</a>
</g>
</g>
<!-- Node4 -->
<g id="Node000004" class="node">
<title>Node4</title>
<g id="a_Node000004"><a xlink:href="str_8h.html#aee390913b90918b21b4a44f1e07d7189" target="_top" xlink:title=" ">
<polygon fill="white" stroke="#666666" points="457.75,-92 372,-92 372,-72 457.75,-72 457.75,-92"/>
<text text-anchor="middle" x="414.88" y="-78.5" font-family="Helvetica,sans-Serif" font-size="10.00">zrtos_str__ultoa</text>
</a>
</g>
</g>
<!-- Node1&#45;&gt;Node4 -->
<g id="edge9_Node000001_Node000004" class="edge">
<title>Node1&#45;&gt;Node4</title>
<g id="a_edge9_Node000001_Node000004"><a xlink:title=" ">
<path fill="none" stroke="#63b8ff" d="M100.32,-52.62C168.33,-58.99 290.43,-70.43 360.51,-77"/>
<polygon fill="#63b8ff" stroke="#63b8ff" points="359.93,-80.46 370.21,-77.91 360.58,-73.49 359.93,-80.46"/>
</a>
</g>
</g>
<!-- Node7 -->
<g id="Node000007" class="node">
<title>Node7</title>
<g id="a_Node000007"><a xlink:href="str_8h.html#a0bbbf024b181a2c7d5ec9056efb84743" target="_top" xlink:title=" ">
<polygon fill="white" stroke="#666666" points="334.5,-20 257,-20 257,0 334.5,0 334.5,-20"/>
<text text-anchor="middle" x="295.75" y="-6.5" font-family="Helvetica,sans-Serif" font-size="10.00">zrtos_str__len</text>
</a>
</g>
</g>
<!-- Node1&#45;&gt;Node7 -->
<g id="edge7_Node000001_Node000007" class="edge">
<title>Node1&#45;&gt;Node7</title>
<g id="a_edge7_Node000001_Node000007"><a xlink:title=" ">
<path fill="none" stroke="#63b8ff" d="M100.42,-39.75C112.09,-37.83 124.48,-35.82 136,-34 172.66,-28.21 214.13,-21.95 245.49,-17.28"/>
<polygon fill="#63b8ff" stroke="#63b8ff" points="245.68,-20.79 255.06,-15.85 244.65,-13.86 245.68,-20.79"/>
</a>
</g>
</g>
<!-- Node3 -->
<g id="Node000003" class="node">
<title>Node3</title>
<g id="a_Node000003"><a xlink:href="str_8h.html#a0f900e1b206fe39cd1b56fb61c1802b6" target="_top" xlink:title=" ">
<polygon fill="white" stroke="#666666" points="336,-134 255.5,-134 255.5,-114 336,-114 336,-134"/>
<text text-anchor="middle" x="295.75" y="-120.5" font-family="Helvetica,sans-Serif" font-size="10.00">zrtos_str__ltoa</text>
</a>
</g>
</g>
<!-- Node2&#45;&gt;Node3 -->
<g id="edge2_Node000002_Node000003" class="edge">
<title>Node2&#45;&gt;Node3</title>
<g id="a_edge2_Node000002_Node000003"><a xlink:title=" ">
<path fill="none" stroke="#63b8ff" d="M210.75,-96.48C223.56,-100.68 238.5,-105.57 252.19,-110.06"/>
<polygon fill="#63b8ff" stroke="#63b8ff" points="250.82,-113.29 261.41,-113.08 253,-106.64 250.82,-113.29"/>
</a>
</g>
</g>
<!-- Node2&#45;&gt;Node4 -->
<g id="edge6_Node000002_Node000004" class="edge">
<title>Node2&#45;&gt;Node4</title>
<g id="a_edge6_Node000002_Node000004"><a xlink:title=" ">
<path fill="none" stroke="#63b8ff" d="M219.97,-85.3C258.94,-84.64 317.62,-83.64 360.22,-82.91"/>
<polygon fill="#63b8ff" stroke="#63b8ff" points="360.05,-86.42 369.99,-82.75 359.94,-79.42 360.05,-86.42"/>
</a>
</g>
</g>
<!-- Node3&#45;&gt;Node4 -->
<g id="edge3_Node000003_Node000004" class="edge">
<title>Node3&#45;&gt;Node4</title>
<g id="a_edge3_Node000003_Node000004"><a xlink:title=" ">
<path fill="none" stroke="#63b8ff" d="M326,-113.51C340.65,-108.26 358.59,-101.83 374.43,-96.15"/>
<polygon fill="#63b8ff" stroke="#63b8ff" points="375.34,-99.54 383.57,-92.87 372.98,-92.95 375.34,-99.54"/>
</a>
</g>
</g>
<!-- Node5 -->
<g id="Node000005" class="node">
<title>Node5</title>
<g id="a_Node000005"><a xlink:href="mem_8h.html#a3d701c04fc9475a1e6cd8d5b14d6534b" target="_top" xlink:title=" ">
<polygon fill="white" stroke="#666666" points="600.5,-92 494.5,-92 494.5,-72 600.5,-72 600.5,-92"/>
<text text-anchor="middle" x="547.5" y="-78.5" font-family="Helvetica,sans-Serif" font-size="10.00">zrtos_mem__reverse</text>
</a>
</g>
</g>
<!-- Node4&#45;&gt;Node5 -->
<g id="edge4_Node000004_Node000005" class="edge">
<title>Node4&#45;&gt;Node5</title>
<g id="a_edge4_Node000004_Node000005"><a xlink:title=" ">
<path fill="none" stroke="#63b8ff" d="M457.92,-82C465.92,-82 474.46,-82 482.95,-82"/>
<polygon fill="#63b8ff" stroke="#63b8ff" points="482.94,-85.5 492.94,-82 482.94,-78.5 482.94,-85.5"/>
</a>
</g>
</g>
<!-- Node6 -->
<g id="Node000006" class="node">
<title>Node6</title>
<g id="a_Node000006"><a xlink:href="types_8h.html#adbc4238237e656eb247fd49ffbfb1a6d" target="_top" xlink:title=" ">
<polygon fill="white" stroke="#666666" points="601.25,-46 493.75,-46 493.75,-14 601.25,-14 601.25,-46"/>
<text text-anchor="start" x="501.75" y="-32.5" font-family="Helvetica,sans-Serif" font-size="10.00">zrtos_types__ptr_get</text>
<text text-anchor="middle" x="547.5" y="-20.5" font-family="Helvetica,sans-Serif" font-size="10.00">_byte_distance</text>
</a>
</g>
</g>
<!-- Node4&#45;&gt;Node6 -->
<g id="edge5_Node000004_Node000006" class="edge">
<title>Node4&#45;&gt;Node6</title>
<g id="a_edge5_Node000004_Node000006"><a xlink:title=" ">
<path fill="none" stroke="#63b8ff" d="M441.99,-71.6C457.12,-65.58 476.69,-57.79 494.8,-50.58"/>
<polygon fill="#63b8ff" stroke="#63b8ff" points="495.85,-53.93 503.85,-46.98 493.26,-47.43 495.85,-53.93"/>
</a>
</g>
</g>
<!-- Node7&#45;&gt;Node6 -->
<g id="edge8_Node000007_Node000006" class="edge">
<title>Node7&#45;&gt;Node6</title>
<g id="a_edge8_Node000007_Node000006"><a xlink:title=" ">
<path fill="none" stroke="#63b8ff" d="M334.95,-13.06C374.09,-16.19 435.63,-21.12 482.27,-24.86"/>
<polygon fill="#63b8ff" stroke="#63b8ff" points="481.72,-28.32 491.97,-25.63 482.28,-21.35 481.72,-28.32"/>
</a>
</g>
</g>
</g>
</svg>
