<?xml version="1.0" encoding="UTF-8" standalone="no"?>
<!DOCTYPE svg PUBLIC "-//W3C//DTD SVG 1.1//EN"
 "http://www.w3.org/Graphics/SVG/1.1/DTD/svg11.dtd">
<!-- Generated by graphviz version 2.40.1 (20161225.0304)
 -->
<!-- Title: zrtos_str__vsnprintf_internal Pages: 1 -->
<svg width="614pt" height="142pt"
 viewBox="0.00 0.00 614.00 142.00" xmlns="http://www.w3.org/2000/svg" xmlns:xlink="http://www.w3.org/1999/xlink">
<g id="graph0" class="graph" transform="scale(1 1) rotate(0) translate(4 138)">
<title>zrtos_str__vsnprintf_internal</title>
<polygon fill="#ffffff" stroke="transparent" points="-4,4 -4,-138 610,-138 610,4 -4,4"/>
<!-- Node99 -->
<g id="node1" class="node">
<title>Node99</title>
<polygon fill="#bfbfbf" stroke="#000000" points="0,-33 0,-63 103,-63 103,-33 0,-33"/>
<text text-anchor="start" x="8" y="-51" font-family="Helvetica,sans-Serif" font-size="10.00" fill="#000000">zrtos_str__vsnprintf</text>
<text text-anchor="middle" x="51.5" y="-40" font-family="Helvetica,sans-Serif" font-size="10.00" fill="#000000">_internal</text>
</g>
<!-- Node100 -->
<g id="node2" class="node">
<title>Node100</title>
<g id="a_node2"><a xlink:href="str_8h.html#af6faa5ca7f622554d2e5b9201e95292a" target="_top" xlink:title="zrtos_str__dtoa">
<polygon fill="#ffffff" stroke="#000000" points="139,-76.5 139,-95.5 223,-95.5 223,-76.5 139,-76.5"/>
<text text-anchor="middle" x="181" y="-83.5" font-family="Helvetica,sans-Serif" font-size="10.00" fill="#000000">zrtos_str__dtoa</text>
</a>
</g>
</g>
<!-- Node99&#45;&gt;Node100 -->
<g id="edge1" class="edge">
<title>Node99&#45;&gt;Node100</title>
<path fill="none" stroke="#191970" d="M102.6818,-63.0186C114.6022,-66.5165 127.1649,-70.2028 138.6542,-73.5742"/>
<polygon fill="#191970" stroke="#191970" points="137.8505,-76.9859 148.4314,-76.4432 139.8215,-70.2691 137.8505,-76.9859"/>
</g>
<!-- Node102 -->
<g id="node4" class="node">
<title>Node102</title>
<g id="a_node4"><a xlink:href="str_8h.html#a22de3a5c1c2b998ce126870cb6e8a131" target="_top" xlink:title="zrtos_str__ultoa">
<polygon fill="#ffffff" stroke="#000000" points="376,-72.5 376,-91.5 462,-91.5 462,-72.5 376,-72.5"/>
<text text-anchor="middle" x="419" y="-79.5" font-family="Helvetica,sans-Serif" font-size="10.00" fill="#000000">zrtos_str__ultoa</text>
</a>
</g>
</g>
<!-- Node99&#45;&gt;Node102 -->
<g id="edge7" class="edge">
<title>Node99&#45;&gt;Node102</title>
<path fill="none" stroke="#191970" d="M103.3743,-52.7993C172.8179,-59.224 295.3737,-70.5625 365.5902,-77.0587"/>
<polygon fill="#191970" stroke="#191970" points="365.6958,-80.5833 375.9757,-78.0195 366.3407,-73.6131 365.6958,-80.5833"/>
</g>
<!-- Node105 -->
<g id="node7" class="node">
<title>Node105</title>
<g id="a_node7"><a xlink:href="str_8h.html#a0bbbf024b181a2c7d5ec9056efb84743" target="_top" xlink:title="zrtos_str__len">
<polygon fill="#ffffff" stroke="#000000" points="260.5,-.5 260.5,-19.5 338.5,-19.5 338.5,-.5 260.5,-.5"/>
<text text-anchor="middle" x="299.5" y="-7.5" font-family="Helvetica,sans-Serif" font-size="10.00" fill="#000000">zrtos_str__len</text>
</a>
</g>
</g>
<!-- Node99&#45;&gt;Node105 -->
<g id="edge8" class="edge">
<title>Node99&#45;&gt;Node105</title>
<path fill="none" stroke="#191970" d="M103.3065,-39.6212C115.0398,-37.7485 127.4456,-35.7882 139,-34 176.309,-28.226 218.5343,-21.9211 250.3074,-17.223"/>
<polygon fill="#191970" stroke="#191970" points="250.8551,-20.6801 260.2365,-15.7568 249.8325,-13.7552 250.8551,-20.6801"/>
</g>
<!-- Node101 -->
<g id="node3" class="node">
<title>Node101</title>
<g id="a_node3"><a xlink:href="str_8h.html#a35bdd5fa700ecb92cfab4c9b9dd97bbe" target="_top" xlink:title="zrtos_str__ltoa">
<polygon fill="#ffffff" stroke="#000000" points="259,-114.5 259,-133.5 340,-133.5 340,-114.5 259,-114.5"/>
<text text-anchor="middle" x="299.5" y="-121.5" font-family="Helvetica,sans-Serif" font-size="10.00" fill="#000000">zrtos_str__ltoa</text>
</a>
</g>
</g>
<!-- Node100&#45;&gt;Node101 -->
<g id="edge2" class="edge">
<title>Node100&#45;&gt;Node101</title>
<path fill="none" stroke="#191970" d="M210.9026,-95.589C225.7787,-100.3594 243.9571,-106.1888 259.9674,-111.3229"/>
<polygon fill="#191970" stroke="#191970" points="259.0159,-114.6932 269.607,-114.4141 261.1534,-108.0276 259.0159,-114.6932"/>
</g>
<!-- Node100&#45;&gt;Node102 -->
<g id="edge6" class="edge">
<title>Node100&#45;&gt;Node102</title>
<path fill="none" stroke="#191970" d="M223.0018,-85.2941C262.7827,-84.6255 322.682,-83.6188 365.7873,-82.8943"/>
<polygon fill="#191970" stroke="#191970" points="365.8719,-86.3935 375.8116,-82.7259 365.7542,-79.3945 365.8719,-86.3935"/>
</g>
<!-- Node101&#45;&gt;Node102 -->
<g id="edge3" class="edge">
<title>Node101&#45;&gt;Node102</title>
<path fill="none" stroke="#191970" d="M326.6164,-114.4695C343.0013,-108.7108 364.1091,-101.2922 382.0116,-95.0001"/>
<polygon fill="#191970" stroke="#191970" points="383.3035,-98.256 391.5773,-91.6381 380.9824,-91.652 383.3035,-98.256"/>
</g>
<!-- Node103 -->
<g id="node5" class="node">
<title>Node103</title>
<g id="a_node5"><a xlink:href="mem_8h.html#a3d701c04fc9475a1e6cd8d5b14d6534b" target="_top" xlink:title="zrtos_mem__reverse">
<polygon fill="#ffffff" stroke="#000000" points="498,-72.5 498,-91.5 606,-91.5 606,-72.5 498,-72.5"/>
<text text-anchor="middle" x="552" y="-79.5" font-family="Helvetica,sans-Serif" font-size="10.00" fill="#000000">zrtos_mem__reverse</text>
</a>
</g>
</g>
<!-- Node102&#45;&gt;Node103 -->
<g id="edge4" class="edge">
<title>Node102&#45;&gt;Node103</title>
<path fill="none" stroke="#191970" d="M462.1813,-82C470.3589,-82 479.0751,-82 487.7405,-82"/>
<polygon fill="#191970" stroke="#191970" points="487.8544,-85.5001 497.8544,-82 487.8543,-78.5001 487.8544,-85.5001"/>
</g>
<!-- Node104 -->
<g id="node6" class="node">
<title>Node104</title>
<g id="a_node6"><a xlink:href="types_8h.html#adbc4238237e656eb247fd49ffbfb1a6d" target="_top" xlink:title="zrtos_types__ptr_get\l_byte_distance">
<polygon fill="#ffffff" stroke="#000000" points="498,-19 498,-49 606,-49 606,-19 498,-19"/>
<text text-anchor="start" x="506" y="-37" font-family="Helvetica,sans-Serif" font-size="10.00" fill="#000000">zrtos_types__ptr_get</text>
<text text-anchor="middle" x="552" y="-26" font-family="Helvetica,sans-Serif" font-size="10.00" fill="#000000">_byte_distance</text>
</a>
</g>
</g>
<!-- Node102&#45;&gt;Node104 -->
<g id="edge5" class="edge">
<title>Node102&#45;&gt;Node104</title>
<path fill="none" stroke="#191970" d="M445.5949,-72.4018C461.346,-66.7172 481.8369,-59.322 500.6264,-52.5408"/>
<polygon fill="#191970" stroke="#191970" points="502.0449,-55.7499 510.2629,-49.063 499.6686,-49.1656 502.0449,-55.7499"/>
</g>
<!-- Node105&#45;&gt;Node104 -->
<g id="edge9" class="edge">
<title>Node105&#45;&gt;Node104</title>
<path fill="none" stroke="#191970" d="M338.6761,-13.7237C378.4239,-17.5017 440.6228,-23.4136 487.6232,-27.881"/>
<polygon fill="#191970" stroke="#191970" points="487.4225,-31.3776 497.7089,-28.8397 488.0849,-24.409 487.4225,-31.3776"/>
</g>
</g>
</svg>
