<?xml version="1.0" encoding="UTF-8" standalone="no"?>
<!DOCTYPE svg PUBLIC "-//W3C//DTD SVG 1.1//EN"
 "http://www.w3.org/Graphics/SVG/1.1/DTD/svg11.dtd">
<!-- Generated by graphviz version 2.40.1 (20161225.0304)
 -->
<!-- Title: zrtos_str__dtoa Pages: 1 -->
<svg width="370pt" height="39pt"
 viewBox="0.00 0.00 370.00 39.00" xmlns="http://www.w3.org/2000/svg" xmlns:xlink="http://www.w3.org/1999/xlink">
<g id="graph0" class="graph" transform="scale(1 1) rotate(0) translate(4 35)">
<title>zrtos_str__dtoa</title>
<polygon fill="#ffffff" stroke="transparent" points="-4,4 -4,-35 366,-35 366,4 -4,4"/>
<!-- Node26 -->
<g id="node1" class="node">
<title>Node26</title>
<polygon fill="#bfbfbf" stroke="#000000" points="0,-6 0,-25 84,-25 84,-6 0,-6"/>
<text text-anchor="middle" x="42" y="-13" font-family="Helvetica,sans-Serif" font-size="10.00" fill="#000000">zrtos_str__dtoa</text>
</g>
<!-- Node27 -->
<g id="node2" class="node">
<title>Node27</title>
<g id="a_node2"><a xlink:href="str_8h.html#a253e58778bc61b2ca7b51d761ea914b4" target="_top" xlink:title="zrtos_str__vsnprintf\l_internal">
<polygon fill="#ffffff" stroke="#000000" points="120,-.5 120,-30.5 223,-30.5 223,-.5 120,-.5"/>
<text text-anchor="start" x="128" y="-18.5" font-family="Helvetica,sans-Serif" font-size="10.00" fill="#000000">zrtos_str__vsnprintf</text>
<text text-anchor="middle" x="171.5" y="-7.5" font-family="Helvetica,sans-Serif" font-size="10.00" fill="#000000">_internal</text>
</a>
</g>
</g>
<!-- Node26&#45;&gt;Node27 -->
<g id="edge1" class="edge">
<title>Node26&#45;&gt;Node27</title>
<path fill="none" stroke="#191970" d="M94.1357,-15.5C102.5621,-15.5 111.2849,-15.5 119.7031,-15.5"/>
<polygon fill="#191970" stroke="#191970" points="94.045,-12.0001 84.0449,-15.5 94.0449,-19.0001 94.045,-12.0001"/>
</g>
<!-- Node28 -->
<g id="node3" class="node">
<title>Node28</title>
<g id="a_node3"><a xlink:href="str_8h.html#af64b95fd53da061e4bde68dddbe02232" target="_top" xlink:title="zrtos_str__vsnprintf">
<polygon fill="#ffffff" stroke="#000000" points="259,-6 259,-25 362,-25 362,-6 259,-6"/>
<text text-anchor="middle" x="310.5" y="-13" font-family="Helvetica,sans-Serif" font-size="10.00" fill="#000000">zrtos_str__vsnprintf</text>
</a>
</g>
</g>
<!-- Node27&#45;&gt;Node28 -->
<g id="edge2" class="edge">
<title>Node27&#45;&gt;Node28</title>
<path fill="none" stroke="#191970" d="M233.4413,-15.5C241.8784,-15.5 250.4658,-15.5 258.6983,-15.5"/>
<polygon fill="#191970" stroke="#191970" points="233.2585,-12.0001 223.2585,-15.5 233.2584,-19.0001 233.2585,-12.0001"/>
</g>
</g>
</svg>
