<?xml version="1.0" encoding="UTF-8" standalone="no"?>
<!DOCTYPE svg PUBLIC "-//W3C//DTD SVG 1.1//EN"
 "http://www.w3.org/Graphics/SVG/1.1/DTD/svg11.dtd">
<!-- Generated by graphviz version 10.0.1 (20240210.2158)
 -->
<!-- Title: zrtos_str__len Pages: 1 -->
<svg width="522pt" height="116pt"
 viewBox="0.00 0.00 522.00 116.00" xmlns="http://www.w3.org/2000/svg" xmlns:xlink="http://www.w3.org/1999/xlink">
<g id="graph0" class="graph" transform="scale(1 1) rotate(0) translate(4 112)">
<title>zrtos_str__len</title>
<!-- Node1 -->
<g id="Node000001" class="node">
<title>Node1</title>
<g id="a_Node000001"><a xlink:title=" ">
<polygon fill="#999999" stroke="#666666" points="514,-70 436.5,-70 436.5,-50 514,-50 514,-70"/>
<text text-anchor="middle" x="475.25" y="-56.5" font-family="Helvetica,sans-Serif" font-size="10.00">zrtos_str__len</text>
</a>
</g>
</g>
<!-- Node2 -->
<g id="Node000002" class="node">
<title>Node2</title>
<g id="a_Node000002"><a xlink:href="str_8h.html#a7e9860a6921e03fd013bbb20bf4a88b3" target="_top" xlink:title=" ">
<polygon fill="white" stroke="#666666" points="392.25,-108 308.75,-108 308.75,-88 392.25,-88 392.25,-108"/>
<text text-anchor="middle" x="350.5" y="-94.5" font-family="Helvetica,sans-Serif" font-size="10.00">zrtos_str__cmp</text>
</a>
</g>
</g>
<!-- Node1&#45;&gt;Node2 -->
<g id="edge1_Node000001_Node000002" class="edge">
<title>Node1&#45;&gt;Node2</title>
<g id="a_edge1_Node000001_Node000002"><a xlink:title=" ">
<path fill="none" stroke="#63b8ff" d="M429.53,-73.84C414.91,-78.37 398.93,-83.32 385.26,-87.55"/>
<polygon fill="#63b8ff" stroke="#63b8ff" points="430.42,-77.23 438.94,-70.93 428.35,-70.55 430.42,-77.23"/>
</a>
</g>
</g>
<!-- Node5 -->
<g id="Node000005" class="node">
<title>Node5</title>
<g id="a_Node000005"><a xlink:href="str_8h.html#a1d32a5a8a6bb91bef6370f6f5b03513f" target="_top" xlink:title=" ">
<polygon fill="white" stroke="#666666" points="398.25,-70 302.75,-70 302.75,-50 398.25,-50 398.25,-70"/>
<text text-anchor="middle" x="350.5" y="-56.5" font-family="Helvetica,sans-Serif" font-size="10.00">zrtos_str__reverse</text>
</a>
</g>
</g>
<!-- Node1&#45;&gt;Node5 -->
<g id="edge4_Node000001_Node000005" class="edge">
<title>Node1&#45;&gt;Node5</title>
<g id="a_edge4_Node000001_Node000005"><a xlink:title=" ">
<path fill="none" stroke="#63b8ff" d="M424.67,-60C416.11,-60 407.23,-60 398.73,-60"/>
<polygon fill="#63b8ff" stroke="#63b8ff" points="424.57,-63.5 434.57,-60 424.57,-56.5 424.57,-63.5"/>
</a>
</g>
</g>
<!-- Node6 -->
<g id="Node000006" class="node">
<title>Node6</title>
<g id="a_Node000006"><a xlink:href="str_8h.html#a253e58778bc61b2ca7b51d761ea914b4" target="_top" xlink:title=" ">
<polygon fill="white" stroke="#666666" points="400.5,-32 300.5,-32 300.5,0 400.5,0 400.5,-32"/>
<text text-anchor="start" x="308.5" y="-18.5" font-family="Helvetica,sans-Serif" font-size="10.00">zrtos_str__vsnprintf</text>
<text text-anchor="middle" x="350.5" y="-6.5" font-family="Helvetica,sans-Serif" font-size="10.00">_internal</text>
</a>
</g>
</g>
<!-- Node1&#45;&gt;Node6 -->
<g id="edge5_Node000001_Node000006" class="edge">
<title>Node1&#45;&gt;Node6</title>
<g id="a_edge5_Node000001_Node000006"><a xlink:title=" ">
<path fill="none" stroke="#63b8ff" d="M434.61,-45.79C422.67,-41.51 409.47,-36.78 397.18,-32.37"/>
<polygon fill="#63b8ff" stroke="#63b8ff" points="433.14,-48.98 443.74,-49.06 435.5,-42.39 433.14,-48.98"/>
</a>
</g>
</g>
<!-- Node3 -->
<g id="Node000003" class="node">
<title>Node3</title>
<g id="a_Node000003"><a xlink:href="vfs__dentry_8h.html#a25c3d8504af7c99c7fe0705919e4bba6" target="_top" xlink:title=" ">
<polygon fill="white" stroke="#666666" points="264.5,-108 139,-108 139,-88 264.5,-88 264.5,-108"/>
<text text-anchor="middle" x="201.75" y="-94.5" font-family="Helvetica,sans-Serif" font-size="10.00">zrtos_vfs_dentry__lookup</text>
</a>
</g>
</g>
<!-- Node2&#45;&gt;Node3 -->
<g id="edge2_Node000002_Node000003" class="edge">
<title>Node2&#45;&gt;Node3</title>
<g id="a_edge2_Node000002_Node000003"><a xlink:title=" ">
<path fill="none" stroke="#63b8ff" d="M297.12,-98C286.66,-98 275.58,-98 264.83,-98"/>
<polygon fill="#63b8ff" stroke="#63b8ff" points="297.11,-101.5 307.11,-98 297.11,-94.5 297.11,-101.5"/>
</a>
</g>
</g>
<!-- Node4 -->
<g id="Node000004" class="node">
<title>Node4</title>
<g id="a_Node000004"><a xlink:href="vfs__file_8h.html#a4fde804e9df54db6cb8d207603a875fd" target="_top" xlink:title=" ">
<polygon fill="white" stroke="#666666" points="103,-108 0,-108 0,-88 103,-88 103,-108"/>
<text text-anchor="middle" x="51.5" y="-94.5" font-family="Helvetica,sans-Serif" font-size="10.00">zrtos_vfs_file__open</text>
</a>
</g>
</g>
<!-- Node3&#45;&gt;Node4 -->
<g id="edge3_Node000003_Node000004" class="edge">
<title>Node3&#45;&gt;Node4</title>
<g id="a_edge3_Node000003_Node000004"><a xlink:title=" ">
<path fill="none" stroke="#63b8ff" d="M127.37,-98C119.29,-98 111.2,-98 103.48,-98"/>
<polygon fill="#63b8ff" stroke="#63b8ff" points="127.22,-101.5 137.22,-98 127.22,-94.5 127.22,-101.5"/>
</a>
</g>
</g>
<!-- Node7 -->
<g id="Node000007" class="node">
<title>Node7</title>
<g id="a_Node000007"><a xlink:href="str_8h.html#af64b95fd53da061e4bde68dddbe02232" target="_top" xlink:title=" ">
<polygon fill="white" stroke="#666666" points="251.75,-26 151.75,-26 151.75,-6 251.75,-6 251.75,-26"/>
<text text-anchor="middle" x="201.75" y="-12.5" font-family="Helvetica,sans-Serif" font-size="10.00">zrtos_str__vsnprintf</text>
</a>
</g>
</g>
<!-- Node6&#45;&gt;Node7 -->
<g id="edge6_Node000006_Node000007" class="edge">
<title>Node6&#45;&gt;Node7</title>
<g id="a_edge6_Node000006_Node000007"><a xlink:title=" ">
<path fill="none" stroke="#63b8ff" d="M288.74,-16C276.55,-16 263.89,-16 252.14,-16"/>
<polygon fill="#63b8ff" stroke="#63b8ff" points="288.71,-19.5 298.71,-16 288.71,-12.5 288.71,-19.5"/>
</a>
</g>
</g>
</g>
</svg>
