<?xml version="1.0" encoding="UTF-8" standalone="no"?>
<!DOCTYPE svg PUBLIC "-//W3C//DTD SVG 1.1//EN"
 "http://www.w3.org/Graphics/SVG/1.1/DTD/svg11.dtd">
<!-- Generated by graphviz version 10.0.1 (20240210.2158)
 -->
<!-- Title: zrtos_str__reverse Pages: 1 -->
<svg width="389pt" height="72pt"
 viewBox="0.00 0.00 389.00 72.00" xmlns="http://www.w3.org/2000/svg" xmlns:xlink="http://www.w3.org/1999/xlink">
<g id="graph0" class="graph" transform="scale(1 1) rotate(0) translate(4 68)">
<title>zrtos_str__reverse</title>
<!-- Node1 -->
<g id="Node000001" class="node">
<title>Node1</title>
<g id="a_Node000001"><a xlink:title=" ">
<polygon fill="#999999" stroke="#666666" points="95.5,-45 0,-45 0,-25 95.5,-25 95.5,-45"/>
<text text-anchor="middle" x="47.75" y="-31.5" font-family="Helvetica,sans-Serif" font-size="10.00">zrtos_str__reverse</text>
</a>
</g>
</g>
<!-- Node2 -->
<g id="Node000002" class="node">
<title>Node2</title>
<g id="a_Node000002"><a xlink:href="mem_8h.html#a3d701c04fc9475a1e6cd8d5b14d6534b" target="_top" xlink:title=" ">
<polygon fill="white" stroke="#666666" points="237.5,-64 131.5,-64 131.5,-44 237.5,-44 237.5,-64"/>
<text text-anchor="middle" x="184.5" y="-50.5" font-family="Helvetica,sans-Serif" font-size="10.00">zrtos_mem__reverse</text>
</a>
</g>
</g>
<!-- Node1&#45;&gt;Node2 -->
<g id="edge1_Node000001_Node000002" class="edge">
<title>Node1&#45;&gt;Node2</title>
<g id="a_edge1_Node000001_Node000002"><a xlink:title=" ">
<path fill="none" stroke="#63b8ff" d="M95.88,-41.65C103.62,-42.74 111.75,-43.88 119.81,-45.02"/>
<polygon fill="#63b8ff" stroke="#63b8ff" points="119.22,-48.47 129.61,-46.4 120.19,-41.54 119.22,-48.47"/>
</a>
</g>
</g>
<!-- Node3 -->
<g id="Node000003" class="node">
<title>Node3</title>
<g id="a_Node000003"><a xlink:href="str_8h.html#a0bbbf024b181a2c7d5ec9056efb84743" target="_top" xlink:title=" ">
<polygon fill="white" stroke="#666666" points="223.25,-26 145.75,-26 145.75,-6 223.25,-6 223.25,-26"/>
<text text-anchor="middle" x="184.5" y="-12.5" font-family="Helvetica,sans-Serif" font-size="10.00">zrtos_str__len</text>
</a>
</g>
</g>
<!-- Node1&#45;&gt;Node3 -->
<g id="edge2_Node000001_Node000003" class="edge">
<title>Node1&#45;&gt;Node3</title>
<g id="a_edge2_Node000001_Node000003"><a xlink:title=" ">
<path fill="none" stroke="#63b8ff" d="M95.88,-28.35C108.31,-26.6 121.76,-24.71 134.3,-22.94"/>
<polygon fill="#63b8ff" stroke="#63b8ff" points="134.6,-26.43 144.01,-21.57 133.62,-19.5 134.6,-26.43"/>
</a>
</g>
</g>
<!-- Node4 -->
<g id="Node000004" class="node">
<title>Node4</title>
<g id="a_Node000004"><a xlink:href="types_8h.html#adbc4238237e656eb247fd49ffbfb1a6d" target="_top" xlink:title=" ">
<polygon fill="white" stroke="#666666" points="381,-32 273.5,-32 273.5,0 381,0 381,-32"/>
<text text-anchor="start" x="281.5" y="-18.5" font-family="Helvetica,sans-Serif" font-size="10.00">zrtos_types__ptr_get</text>
<text text-anchor="middle" x="327.25" y="-6.5" font-family="Helvetica,sans-Serif" font-size="10.00">_byte_distance</text>
</a>
</g>
</g>
<!-- Node3&#45;&gt;Node4 -->
<g id="edge3_Node000003_Node000004" class="edge">
<title>Node3&#45;&gt;Node4</title>
<g id="a_edge3_Node000003_Node000004"><a xlink:title=" ">
<path fill="none" stroke="#63b8ff" d="M223.59,-16C235.36,-16 248.68,-16 261.72,-16"/>
<polygon fill="#63b8ff" stroke="#63b8ff" points="261.56,-19.5 271.56,-16 261.56,-12.5 261.56,-19.5"/>
</a>
</g>
</g>
</g>
</svg>
