<?xml version="1.0" encoding="UTF-8" standalone="no"?>
<!DOCTYPE svg PUBLIC "-//W3C//DTD SVG 1.1//EN"
 "http://www.w3.org/Graphics/SVG/1.1/DTD/svg11.dtd">
<!-- Generated by graphviz version 2.40.1 (20161225.0304)
 -->
<!-- Title: str.h Pages: 1 -->
<svg width="432pt" height="196pt"
 viewBox="0.00 0.00 432.00 196.00" xmlns="http://www.w3.org/2000/svg" xmlns:xlink="http://www.w3.org/1999/xlink">
<g id="graph0" class="graph" transform="scale(1 1) rotate(0) translate(4 192)">
<title>str.h</title>
<polygon fill="#ffffff" stroke="transparent" points="-4,4 -4,-192 428,-192 428,4 -4,4"/>
<!-- Node0 -->
<g id="node1" class="node">
<title>Node0</title>
<polygon fill="#bfbfbf" stroke="#000000" points="266,-168.5 266,-187.5 302,-187.5 302,-168.5 266,-168.5"/>
<text text-anchor="middle" x="284" y="-175.5" font-family="Helvetica,sans-Serif" font-size="10.00" fill="#000000">str.h</text>
</g>
<!-- Node1 -->
<g id="node2" class="node">
<title>Node1</title>
<polygon fill="#ffffff" stroke="#bfbfbf" points="172,-112.5 172,-131.5 224,-131.5 224,-112.5 172,-112.5"/>
<text text-anchor="middle" x="198" y="-119.5" font-family="Helvetica,sans-Serif" font-size="10.00" fill="#000000">stdarg.h</text>
</g>
<!-- Node0&#45;&gt;Node1 -->
<g id="edge1" class="edge">
<title>Node0&#45;&gt;Node1</title>
<path fill="none" stroke="#191970" d="M269.0199,-168.2455C255.8249,-159.6534 236.3949,-147.0014 221.1921,-137.1018"/>
<polygon fill="#191970" stroke="#191970" points="223.0983,-134.1665 212.8084,-131.6427 219.2785,-140.0325 223.0983,-134.1665"/>
</g>
<!-- Node2 -->
<g id="node3" class="node">
<title>Node2</title>
<g id="a_node3"><a xlink:href="types_8h.html" target="_top" xlink:title="zrtos/types.h">
<polygon fill="#ffffff" stroke="#000000" points="211,-56.5 211,-75.5 285,-75.5 285,-56.5 211,-56.5"/>
<text text-anchor="middle" x="248" y="-63.5" font-family="Helvetica,sans-Serif" font-size="10.00" fill="#000000">zrtos/types.h</text>
</a>
</g>
</g>
<!-- Node0&#45;&gt;Node2 -->
<g id="edge2" class="edge">
<title>Node0&#45;&gt;Node2</title>
<path fill="none" stroke="#191970" d="M280.9307,-168.4509C275.0326,-150.1013 262.0113,-109.5908 254.2259,-85.3693"/>
<polygon fill="#191970" stroke="#191970" points="257.4538,-83.9741 251.0616,-75.5249 250.7896,-86.1162 257.4538,-83.9741"/>
</g>
<!-- Node8 -->
<g id="node9" class="node">
<title>Node8</title>
<g id="a_node9"><a xlink:href="cast_8h.html" target="_top" xlink:title="zrtos/cast.h">
<polygon fill="#ffffff" stroke="#000000" points="356,-.5 356,-19.5 424,-19.5 424,-.5 356,-.5"/>
<text text-anchor="middle" x="390" y="-7.5" font-family="Helvetica,sans-Serif" font-size="10.00" fill="#000000">zrtos/cast.h</text>
</a>
</g>
</g>
<!-- Node0&#45;&gt;Node8 -->
<g id="edge9" class="edge">
<title>Node0&#45;&gt;Node8</title>
<path fill="none" stroke="#191970" d="M302.1468,-171.9209C319.8703,-165.0365 346.2645,-152.0903 361,-132 383.5443,-101.2631 388.8161,-55.5016 389.8965,-29.6457"/>
<polygon fill="#191970" stroke="#191970" points="393.3969,-29.6708 390.1432,-19.588 386.399,-29.4991 393.3969,-29.6708"/>
</g>
<!-- Node9 -->
<g id="node10" class="node">
<title>Node9</title>
<g id="a_node10"><a xlink:href="mem_8h.html" target="_top" xlink:title="zrtos/mem.h">
<polygon fill="#ffffff" stroke="#000000" points="280.5,-112.5 280.5,-131.5 351.5,-131.5 351.5,-112.5 280.5,-112.5"/>
<text text-anchor="middle" x="316" y="-119.5" font-family="Helvetica,sans-Serif" font-size="10.00" fill="#000000">zrtos/mem.h</text>
</a>
</g>
</g>
<!-- Node0&#45;&gt;Node9 -->
<g id="edge10" class="edge">
<title>Node0&#45;&gt;Node9</title>
<path fill="none" stroke="#191970" d="M289.574,-168.2455C293.9331,-160.617 300.1211,-149.7881 305.4133,-140.5267"/>
<polygon fill="#191970" stroke="#191970" points="308.5673,-142.0616 310.4899,-131.6427 302.4896,-138.5886 308.5673,-142.0616"/>
</g>
<!-- Node3 -->
<g id="node4" class="node">
<title>Node3</title>
<polygon fill="#ffffff" stroke="#bfbfbf" points="0,-.5 0,-19.5 56,-19.5 56,-.5 0,-.5"/>
<text text-anchor="middle" x="28" y="-7.5" font-family="Helvetica,sans-Serif" font-size="10.00" fill="#000000">stdbool.h</text>
</g>
<!-- Node2&#45;&gt;Node3 -->
<g id="edge3" class="edge">
<title>Node2&#45;&gt;Node3</title>
<path fill="none" stroke="#191970" d="M210.7987,-56.8536C175.8123,-48.2061 121.7234,-34.7209 65.9595,-20.2212"/>
<polygon fill="#191970" stroke="#191970" points="66.8275,-16.8305 56.2681,-17.6952 65.062,-23.6043 66.8275,-16.8305"/>
</g>
<!-- Node4 -->
<g id="node5" class="node">
<title>Node4</title>
<polygon fill="#ffffff" stroke="#bfbfbf" points="74,-.5 74,-19.5 126,-19.5 126,-.5 74,-.5"/>
<text text-anchor="middle" x="100" y="-7.5" font-family="Helvetica,sans-Serif" font-size="10.00" fill="#000000">stddef.h</text>
</g>
<!-- Node2&#45;&gt;Node4 -->
<g id="edge4" class="edge">
<title>Node2&#45;&gt;Node4</title>
<path fill="none" stroke="#191970" d="M222.5579,-56.3733C198.2674,-47.1822 161.4792,-33.2624 134.5457,-23.0713"/>
<polygon fill="#191970" stroke="#191970" points="135.7016,-19.7666 125.1101,-19.5011 133.2243,-26.3136 135.7016,-19.7666"/>
</g>
<!-- Node5 -->
<g id="node6" class="node">
<title>Node5</title>
<polygon fill="#ffffff" stroke="#bfbfbf" points="144.5,-.5 144.5,-19.5 193.5,-19.5 193.5,-.5 144.5,-.5"/>
<text text-anchor="middle" x="169" y="-7.5" font-family="Helvetica,sans-Serif" font-size="10.00" fill="#000000">stdint.h</text>
</g>
<!-- Node2&#45;&gt;Node5 -->
<g id="edge5" class="edge">
<title>Node2&#45;&gt;Node5</title>
<path fill="none" stroke="#191970" d="M234.2393,-56.2455C222.3448,-47.814 204.935,-35.4729 191.0915,-25.6598"/>
<polygon fill="#191970" stroke="#191970" points="192.7854,-22.5704 182.6031,-19.6427 188.7372,-28.2811 192.7854,-22.5704"/>
</g>
<!-- Node6 -->
<g id="node7" class="node">
<title>Node6</title>
<polygon fill="#ffffff" stroke="#bfbfbf" points="212,-.5 212,-19.5 260,-19.5 260,-.5 212,-.5"/>
<text text-anchor="middle" x="236" y="-7.5" font-family="Helvetica,sans-Serif" font-size="10.00" fill="#000000">limits.h</text>
</g>
<!-- Node2&#45;&gt;Node6 -->
<g id="edge6" class="edge">
<title>Node2&#45;&gt;Node6</title>
<path fill="none" stroke="#191970" d="M245.9098,-56.2455C244.3439,-48.9382 242.1488,-38.6944 240.2224,-29.7046"/>
<polygon fill="#191970" stroke="#191970" points="243.584,-28.6873 238.0663,-19.6427 236.7393,-30.1541 243.584,-28.6873"/>
</g>
<!-- Node7 -->
<g id="node8" class="node">
<title>Node7</title>
<polygon fill="#ffffff" stroke="#bfbfbf" points="278.5,-.5 278.5,-19.5 337.5,-19.5 337.5,-.5 278.5,-.5"/>
<text text-anchor="middle" x="308" y="-7.5" font-family="Helvetica,sans-Serif" font-size="10.00" fill="#000000">stdalign.h</text>
</g>
<!-- Node2&#45;&gt;Node7 -->
<g id="edge7" class="edge">
<title>Node2&#45;&gt;Node7</title>
<path fill="none" stroke="#191970" d="M258.4512,-56.2455C267.2269,-48.0549 279.9554,-36.1749 290.314,-26.5069"/>
<polygon fill="#191970" stroke="#191970" points="292.7461,-29.0246 297.6686,-19.6427 287.9699,-23.9072 292.7461,-29.0246"/>
</g>
<!-- Node2&#45;&gt;Node8 -->
<g id="edge8" class="edge">
<title>Node2&#45;&gt;Node8</title>
<path fill="none" stroke="#191970" d="M272.4107,-56.3733C295.6142,-47.2226 330.7038,-33.3844 356.5142,-23.2057"/>
<polygon fill="#191970" stroke="#191970" points="357.8892,-26.4258 365.9079,-19.5011 355.3211,-19.9139 357.8892,-26.4258"/>
</g>
<!-- Node9&#45;&gt;Node2 -->
<g id="edge11" class="edge">
<title>Node9&#45;&gt;Node2</title>
<path fill="none" stroke="#191970" d="M304.1553,-112.2455C294.112,-103.9746 279.5005,-91.9416 267.6996,-82.2232"/>
<polygon fill="#191970" stroke="#191970" points="269.6533,-79.298 259.709,-75.6427 265.2033,-84.7015 269.6533,-79.298"/>
</g>
<!-- Node9&#45;&gt;Node8 -->
<g id="edge12" class="edge">
<title>Node9&#45;&gt;Node8</title>
<path fill="none" stroke="#191970" d="M322.3092,-112.4509C334.6515,-93.7707 362.1682,-52.1238 378.0568,-28.0761"/>
<polygon fill="#191970" stroke="#191970" points="381.1143,-29.7977 383.7068,-19.5249 375.274,-25.9388 381.1143,-29.7977"/>
</g>
</g>
</svg>
