<?xml version="1.0" encoding="UTF-8" standalone="no"?>
<!DOCTYPE svg PUBLIC "-//W3C//DTD SVG 1.1//EN"
 "http://www.w3.org/Graphics/SVG/1.1/DTD/svg11.dtd">
<!-- Generated by graphviz version 10.0.1 (20240210.2158)
 -->
<!-- Title: zrtos_str__len Pages: 1 -->
<svg width="977pt" height="122pt"
 viewBox="0.00 0.00 977.25 122.00" xmlns="http://www.w3.org/2000/svg" xmlns:xlink="http://www.w3.org/1999/xlink">
<g id="graph0" class="graph" transform="scale(1 1) rotate(0) translate(4 118)">
<title>zrtos_str__len</title>
<!-- Node1 -->
<g id="Node000001" class="node">
<title>Node1</title>
<g id="a_Node000001"><a xlink:title=" ">
<polygon fill="#999999" stroke="#666666" points="969.25,-70 891.75,-70 891.75,-50 969.25,-50 969.25,-70"/>
<text text-anchor="middle" x="930.5" y="-56.5" font-family="Helvetica,sans-Serif" font-size="10.00">zrtos_str__len</text>
</a>
</g>
</g>
<!-- Node2 -->
<g id="Node000002" class="node">
<title>Node2</title>
<g id="a_Node000002"><a xlink:href="str_8h.html#a7e9860a6921e03fd013bbb20bf4a88b3" target="_top" xlink:title=" ">
<polygon fill="white" stroke="#666666" points="847.5,-108 764,-108 764,-88 847.5,-88 847.5,-108"/>
<text text-anchor="middle" x="805.75" y="-94.5" font-family="Helvetica,sans-Serif" font-size="10.00">zrtos_str__cmp</text>
</a>
</g>
</g>
<!-- Node1&#45;&gt;Node2 -->
<g id="edge1_Node000001_Node000002" class="edge">
<title>Node1&#45;&gt;Node2</title>
<g id="a_edge1_Node000001_Node000002"><a xlink:title=" ">
<path fill="none" stroke="#63b8ff" d="M884.78,-73.84C870.16,-78.37 854.18,-83.32 840.51,-87.55"/>
<polygon fill="#63b8ff" stroke="#63b8ff" points="885.67,-77.23 894.19,-70.93 883.6,-70.55 885.67,-77.23"/>
</a>
</g>
</g>
<!-- Node8 -->
<g id="Node000008" class="node">
<title>Node8</title>
<g id="a_Node000008"><a xlink:href="str_8h.html#a1d32a5a8a6bb91bef6370f6f5b03513f" target="_top" xlink:title=" ">
<polygon fill="white" stroke="#666666" points="853.5,-70 758,-70 758,-50 853.5,-50 853.5,-70"/>
<text text-anchor="middle" x="805.75" y="-56.5" font-family="Helvetica,sans-Serif" font-size="10.00">zrtos_str__reverse</text>
</a>
</g>
</g>
<!-- Node1&#45;&gt;Node8 -->
<g id="edge7_Node000001_Node000008" class="edge">
<title>Node1&#45;&gt;Node8</title>
<g id="a_edge7_Node000001_Node000008"><a xlink:title=" ">
<path fill="none" stroke="#63b8ff" d="M879.92,-60C871.36,-60 862.48,-60 853.98,-60"/>
<polygon fill="#63b8ff" stroke="#63b8ff" points="879.82,-63.5 889.82,-60 879.82,-56.5 879.82,-63.5"/>
</a>
</g>
</g>
<!-- Node9 -->
<g id="Node000009" class="node">
<title>Node9</title>
<g id="a_Node000009"><a xlink:href="str_8h.html#a253e58778bc61b2ca7b51d761ea914b4" target="_top" xlink:title=" ">
<polygon fill="white" stroke="#666666" points="855.75,-32 755.75,-32 755.75,0 855.75,0 855.75,-32"/>
<text text-anchor="start" x="763.75" y="-18.5" font-family="Helvetica,sans-Serif" font-size="10.00">zrtos_str__vsnprintf</text>
<text text-anchor="middle" x="805.75" y="-6.5" font-family="Helvetica,sans-Serif" font-size="10.00">_internal</text>
</a>
</g>
</g>
<!-- Node1&#45;&gt;Node9 -->
<g id="edge8_Node000001_Node000009" class="edge">
<title>Node1&#45;&gt;Node9</title>
<g id="a_edge8_Node000001_Node000009"><a xlink:title=" ">
<path fill="none" stroke="#63b8ff" d="M889.86,-45.79C877.92,-41.51 864.72,-36.78 852.43,-32.37"/>
<polygon fill="#63b8ff" stroke="#63b8ff" points="888.39,-48.98 898.99,-49.06 890.75,-42.39 888.39,-48.98"/>
</a>
</g>
</g>
<!-- Node3 -->
<g id="Node000003" class="node">
<title>Node3</title>
<g id="a_Node000003"><a xlink:href="vfs__dentry_8h.html#a4d808bbfc2c1dfabc22e3d6fa45412c1" target="_top" xlink:title=" ">
<polygon fill="white" stroke="#666666" points="719.75,-114 601.75,-114 601.75,-82 719.75,-82 719.75,-114"/>
<text text-anchor="start" x="609.75" y="-100.5" font-family="Helvetica,sans-Serif" font-size="10.00">zrtos_vfs_dentry__each</text>
<text text-anchor="middle" x="660.75" y="-88.5" font-family="Helvetica,sans-Serif" font-size="10.00">_child_filter_name_cb</text>
</a>
</g>
</g>
<!-- Node2&#45;&gt;Node3 -->
<g id="edge2_Node000002_Node000003" class="edge">
<title>Node2&#45;&gt;Node3</title>
<g id="a_edge2_Node000002_Node000003"><a xlink:title=" ">
<path fill="none" stroke="#63b8ff" d="M752.58,-98C742.01,-98 730.82,-98 720.05,-98"/>
<polygon fill="#63b8ff" stroke="#63b8ff" points="752.26,-101.5 762.26,-98 752.26,-94.5 752.26,-101.5"/>
</a>
</g>
</g>
<!-- Node4 -->
<g id="Node000004" class="node">
<title>Node4</title>
<g id="a_Node000004"><a xlink:href="vfs__dentry_8h.html#a25c3d8504af7c99c7fe0705919e4bba6" target="_top" xlink:title=" ">
<polygon fill="white" stroke="#666666" points="565.75,-108 440.25,-108 440.25,-88 565.75,-88 565.75,-108"/>
<text text-anchor="middle" x="503" y="-94.5" font-family="Helvetica,sans-Serif" font-size="10.00">zrtos_vfs_dentry__lookup</text>
</a>
</g>
</g>
<!-- Node3&#45;&gt;Node4 -->
<g id="edge3_Node000003_Node000004" class="edge">
<title>Node3&#45;&gt;Node4</title>
<g id="a_edge3_Node000003_Node000004"><a xlink:title=" ">
<path fill="none" stroke="#63b8ff" d="M589.85,-98C581.95,-98 573.94,-98 566.15,-98"/>
<polygon fill="#63b8ff" stroke="#63b8ff" points="589.8,-101.5 599.8,-98 589.8,-94.5 589.8,-101.5"/>
</a>
</g>
</g>
<!-- Node5 -->
<g id="Node000005" class="node">
<title>Node5</title>
<g id="a_Node000005"><a xlink:href="vfs__file_8h.html#a5e35099a788e6bd302890a2da12cdb10" target="_top" xlink:title=" ">
<polygon fill="white" stroke="#666666" points="404.25,-108 301.25,-108 301.25,-88 404.25,-88 404.25,-108"/>
<text text-anchor="middle" x="352.75" y="-94.5" font-family="Helvetica,sans-Serif" font-size="10.00">zrtos_vfs_file__open</text>
</a>
</g>
</g>
<!-- Node4&#45;&gt;Node5 -->
<g id="edge4_Node000004_Node000005" class="edge">
<title>Node4&#45;&gt;Node5</title>
<g id="a_edge4_Node000004_Node000005"><a xlink:title=" ">
<path fill="none" stroke="#63b8ff" d="M428.62,-98C420.54,-98 412.45,-98 404.73,-98"/>
<polygon fill="#63b8ff" stroke="#63b8ff" points="428.47,-101.5 438.47,-98 428.47,-94.5 428.47,-101.5"/>
</a>
</g>
</g>
<!-- Node6 -->
<g id="Node000006" class="node">
<title>Node6</title>
<g id="a_Node000006"><a xlink:href="vfs__fd_8h.html#a3d77749f16d0a3f932c58f9ae0c20e1c" target="_top" xlink:title=" ">
<polygon fill="white" stroke="#666666" points="265.25,-108 166.75,-108 166.75,-88 265.25,-88 265.25,-108"/>
<text text-anchor="middle" x="216" y="-94.5" font-family="Helvetica,sans-Serif" font-size="10.00">zrtos_vfs_fd__open</text>
</a>
</g>
</g>
<!-- Node5&#45;&gt;Node6 -->
<g id="edge5_Node000005_Node000006" class="edge">
<title>Node5&#45;&gt;Node6</title>
<g id="a_edge5_Node000005_Node000006"><a xlink:title=" ">
<path fill="none" stroke="#63b8ff" d="M289.47,-98C281.37,-98 273.17,-98 265.34,-98"/>
<polygon fill="#63b8ff" stroke="#63b8ff" points="289.29,-101.5 299.29,-98 289.29,-94.5 289.29,-101.5"/>
</a>
</g>
</g>
<!-- Node7 -->
<g id="Node000007" class="node">
<title>Node7</title>
<g id="a_Node000007"><a xlink:href="rtu_8h.html#aac1c0a8f15ec0cd7540f53a61fe9ff08" target="_top" xlink:title=" ">
<polygon fill="white" stroke="#666666" points="130.75,-114 0,-114 0,-82 130.75,-82 130.75,-114"/>
<text text-anchor="start" x="8" y="-100.5" font-family="Helvetica,sans-Serif" font-size="10.00">zrtos_vfs_module_modbus</text>
<text text-anchor="middle" x="65.38" y="-88.5" font-family="Helvetica,sans-Serif" font-size="10.00">_rtu_args__init</text>
</a>
</g>
</g>
<!-- Node6&#45;&gt;Node7 -->
<g id="edge6_Node000006_Node000007" class="edge">
<title>Node6&#45;&gt;Node7</title>
<g id="a_edge6_Node000006_Node000007"><a xlink:title=" ">
<path fill="none" stroke="#63b8ff" d="M155,-98C147.13,-98 139.04,-98 131.09,-98"/>
<polygon fill="#63b8ff" stroke="#63b8ff" points="154.82,-101.5 164.82,-98 154.82,-94.5 154.82,-101.5"/>
</a>
</g>
</g>
<!-- Node10 -->
<g id="Node000010" class="node">
<title>Node10</title>
<g id="a_Node000010"><a xlink:href="str_8h.html#af64b95fd53da061e4bde68dddbe02232" target="_top" xlink:title=" ">
<polygon fill="white" stroke="#666666" points="710.75,-26 610.75,-26 610.75,-6 710.75,-6 710.75,-26"/>
<text text-anchor="middle" x="660.75" y="-12.5" font-family="Helvetica,sans-Serif" font-size="10.00">zrtos_str__vsnprintf</text>
</a>
</g>
</g>
<!-- Node9&#45;&gt;Node10 -->
<g id="edge9_Node000009_Node000010" class="edge">
<title>Node9&#45;&gt;Node10</title>
<g id="a_edge9_Node000009_Node000010"><a xlink:title=" ">
<path fill="none" stroke="#63b8ff" d="M744.19,-16C733.14,-16 721.73,-16 711.05,-16"/>
<polygon fill="#63b8ff" stroke="#63b8ff" points="744.02,-19.5 754.02,-16 744.02,-12.5 744.02,-19.5"/>
</a>
</g>
</g>
</g>
</svg>
