<?xml version="1.0" encoding="UTF-8" standalone="no"?>
<!DOCTYPE svg PUBLIC "-//W3C//DTD SVG 1.1//EN"
 "http://www.w3.org/Graphics/SVG/1.1/DTD/svg11.dtd">
<!-- Generated by graphviz version 10.0.1 (20240210.2158)
 -->
<!-- Title: zrtos_str__cmp Pages: 1 -->
<svg width="681pt" height="40pt"
 viewBox="0.00 0.00 680.50 40.00" xmlns="http://www.w3.org/2000/svg" xmlns:xlink="http://www.w3.org/1999/xlink">
<g id="graph0" class="graph" transform="scale(1 1) rotate(0) translate(4 36)">
<title>zrtos_str__cmp</title>
<!-- Node1 -->
<g id="Node000001" class="node">
<title>Node1</title>
<g id="a_Node000001"><a xlink:title=" ">
<polygon fill="#999999" stroke="#666666" points="672.5,-26 589,-26 589,-6 672.5,-6 672.5,-26"/>
<text text-anchor="middle" x="630.75" y="-12.5" font-family="Helvetica,sans-Serif" font-size="10.00">zrtos_str__cmp</text>
</a>
</g>
</g>
<!-- Node2 -->
<g id="Node000002" class="node">
<title>Node2</title>
<g id="a_Node000002"><a xlink:href="vfs__dentry_8h.html#a4d808bbfc2c1dfabc22e3d6fa45412c1" target="_top" xlink:title=" ">
<polygon fill="white" stroke="#666666" points="553,-32 435,-32 435,0 553,0 553,-32"/>
<text text-anchor="start" x="443" y="-18.5" font-family="Helvetica,sans-Serif" font-size="10.00">zrtos_vfs_dentry__each</text>
<text text-anchor="middle" x="494" y="-6.5" font-family="Helvetica,sans-Serif" font-size="10.00">_child_filter_name_cb</text>
</a>
</g>
</g>
<!-- Node1&#45;&gt;Node2 -->
<g id="edge1_Node000001_Node000002" class="edge">
<title>Node1&#45;&gt;Node2</title>
<g id="a_edge1_Node000001_Node000002"><a xlink:title=" ">
<path fill="none" stroke="#63b8ff" d="M577.3,-16C569.43,-16 561.26,-16 553.27,-16"/>
<polygon fill="#63b8ff" stroke="#63b8ff" points="577.07,-19.5 587.07,-16 577.07,-12.5 577.07,-19.5"/>
</a>
</g>
</g>
<!-- Node3 -->
<g id="Node000003" class="node">
<title>Node3</title>
<g id="a_Node000003"><a xlink:href="vfs__dentry_8h.html#a25c3d8504af7c99c7fe0705919e4bba6" target="_top" xlink:title=" ">
<polygon fill="white" stroke="#666666" points="399,-26 273.5,-26 273.5,-6 399,-6 399,-26"/>
<text text-anchor="middle" x="336.25" y="-12.5" font-family="Helvetica,sans-Serif" font-size="10.00">zrtos_vfs_dentry__lookup</text>
</a>
</g>
</g>
<!-- Node2&#45;&gt;Node3 -->
<g id="edge2_Node000002_Node000003" class="edge">
<title>Node2&#45;&gt;Node3</title>
<g id="a_edge2_Node000002_Node000003"><a xlink:title=" ">
<path fill="none" stroke="#63b8ff" d="M423.1,-16C415.2,-16 407.19,-16 399.4,-16"/>
<polygon fill="#63b8ff" stroke="#63b8ff" points="423.05,-19.5 433.05,-16 423.05,-12.5 423.05,-19.5"/>
</a>
</g>
</g>
<!-- Node4 -->
<g id="Node000004" class="node">
<title>Node4</title>
<g id="a_Node000004"><a xlink:href="vfs__file_8h.html#a927d7e3ca83d067440360207ba94b0fe" target="_top" xlink:title=" ">
<polygon fill="white" stroke="#666666" points="237.5,-26 134.5,-26 134.5,-6 237.5,-6 237.5,-26"/>
<text text-anchor="middle" x="186" y="-12.5" font-family="Helvetica,sans-Serif" font-size="10.00">zrtos_vfs_file__open</text>
</a>
</g>
</g>
<!-- Node3&#45;&gt;Node4 -->
<g id="edge3_Node000003_Node000004" class="edge">
<title>Node3&#45;&gt;Node4</title>
<g id="a_edge3_Node000003_Node000004"><a xlink:title=" ">
<path fill="none" stroke="#63b8ff" d="M261.87,-16C253.79,-16 245.7,-16 237.98,-16"/>
<polygon fill="#63b8ff" stroke="#63b8ff" points="261.72,-19.5 271.72,-16 261.72,-12.5 261.72,-19.5"/>
</a>
</g>
</g>
<!-- Node5 -->
<g id="Node000005" class="node">
<title>Node5</title>
<g id="a_Node000005"><a xlink:href="vfs__fd_8h.html#a3e034b78f0f647eb2c449d3fb832a951" target="_top" xlink:title=" ">
<polygon fill="white" stroke="#666666" points="98.5,-26 0,-26 0,-6 98.5,-6 98.5,-26"/>
<text text-anchor="middle" x="49.25" y="-12.5" font-family="Helvetica,sans-Serif" font-size="10.00">zrtos_vfs_fd__open</text>
</a>
</g>
</g>
<!-- Node4&#45;&gt;Node5 -->
<g id="edge4_Node000004_Node000005" class="edge">
<title>Node4&#45;&gt;Node5</title>
<g id="a_edge4_Node000004_Node000005"><a xlink:title=" ">
<path fill="none" stroke="#63b8ff" d="M122.72,-16C114.62,-16 106.42,-16 98.59,-16"/>
<polygon fill="#63b8ff" stroke="#63b8ff" points="122.54,-19.5 132.54,-16 122.54,-12.5 122.54,-19.5"/>
</a>
</g>
</g>
</g>
</svg>
