<?xml version="1.0" encoding="UTF-8" standalone="no"?>
<!DOCTYPE svg PUBLIC "-//W3C//DTD SVG 1.1//EN"
 "http://www.w3.org/Graphics/SVG/1.1/DTD/svg11.dtd">
<!-- Generated by graphviz version 10.0.1 (20240210.2158)
 -->
<!-- Title: zrtos_str__vsnprintf Pages: 1 -->
<svg width="761pt" height="142pt"
 viewBox="0.00 0.00 761.00 142.00" xmlns="http://www.w3.org/2000/svg" xmlns:xlink="http://www.w3.org/1999/xlink">
<g id="graph0" class="graph" transform="scale(1 1) rotate(0) translate(4 138)">
<title>zrtos_str__vsnprintf</title>
<!-- Node1 -->
<g id="Node000001" class="node">
<title>Node1</title>
<g id="a_Node000001"><a xlink:title=" ">
<polygon fill="#999999" stroke="#666666" points="100,-80 0,-80 0,-60 100,-60 100,-80"/>
<text text-anchor="middle" x="50" y="-66.5" font-family="Helvetica,sans-Serif" font-size="10.00">zrtos_str__vsnprintf</text>
</a>
</g>
</g>
<!-- Node2 -->
<g id="Node000002" class="node">
<title>Node2</title>
<g id="a_Node000002"><a xlink:href="str_8h.html#a61cc952b30f32a264a5ba3c3749f7646" target="_top" xlink:title=" ">
<polygon fill="white" stroke="#666666" points="251.75,-102 136,-102 136,-82 251.75,-82 251.75,-102"/>
<text text-anchor="middle" x="193.88" y="-88.5" font-family="Helvetica,sans-Serif" font-size="10.00">zrtos_str__vsnprintf_cb</text>
</a>
</g>
</g>
<!-- Node1&#45;&gt;Node2 -->
<g id="edge1_Node000001_Node000002" class="edge">
<title>Node1&#45;&gt;Node2</title>
<g id="a_edge1_Node000001_Node000002"><a xlink:title=" ">
<path fill="none" stroke="#63b8ff" d="M100.22,-77.63C108.15,-78.86 116.47,-80.15 124.74,-81.43"/>
<polygon fill="#63b8ff" stroke="#63b8ff" points="124.03,-84.87 134.45,-82.94 125.11,-77.95 124.03,-84.87"/>
</a>
</g>
</g>
<!-- Node3 -->
<g id="Node000003" class="node">
<title>Node3</title>
<g id="a_Node000003"><a xlink:href="str_8h.html#a253e58778bc61b2ca7b51d761ea914b4" target="_top" xlink:title=" ">
<polygon fill="white" stroke="#666666" points="243.88,-64 143.88,-64 143.88,-32 243.88,-32 243.88,-64"/>
<text text-anchor="start" x="151.88" y="-50.5" font-family="Helvetica,sans-Serif" font-size="10.00">zrtos_str__vsnprintf</text>
<text text-anchor="middle" x="193.88" y="-38.5" font-family="Helvetica,sans-Serif" font-size="10.00">_internal</text>
</a>
</g>
</g>
<!-- Node1&#45;&gt;Node3 -->
<g id="edge2_Node000001_Node000003" class="edge">
<title>Node1&#45;&gt;Node3</title>
<g id="a_edge2_Node000001_Node000003"><a xlink:title=" ">
<path fill="none" stroke="#63b8ff" d="M100.22,-62.37C110.68,-60.75 121.83,-59.02 132.64,-57.34"/>
<polygon fill="#63b8ff" stroke="#63b8ff" points="132.9,-60.84 142.24,-55.85 131.83,-53.92 132.9,-60.84"/>
</a>
</g>
</g>
<!-- Node4 -->
<g id="Node000004" class="node">
<title>Node4</title>
<g id="a_Node000004"><a xlink:href="str_8h.html#adcf77443fdcd0ba7a3a37438f6ee3855" target="_top" xlink:title=" ">
<polygon fill="white" stroke="#666666" points="371.25,-96 287.75,-96 287.75,-76 371.25,-76 371.25,-96"/>
<text text-anchor="middle" x="329.5" y="-82.5" font-family="Helvetica,sans-Serif" font-size="10.00">zrtos_str__dtoa</text>
</a>
</g>
</g>
<!-- Node3&#45;&gt;Node4 -->
<g id="edge3_Node000003_Node000004" class="edge">
<title>Node3&#45;&gt;Node4</title>
<g id="a_edge3_Node000003_Node000004"><a xlink:title=" ">
<path fill="none" stroke="#63b8ff" d="M244.25,-62.04C256.2,-65.44 268.94,-69.06 280.8,-72.44"/>
<polygon fill="#63b8ff" stroke="#63b8ff" points="279.82,-75.8 290.4,-75.17 281.74,-69.06 279.82,-75.8"/>
</a>
</g>
</g>
<!-- Node6 -->
<g id="Node000006" class="node">
<title>Node6</title>
<g id="a_Node000006"><a xlink:href="str_8h.html#aee390913b90918b21b4a44f1e07d7189" target="_top" xlink:title=" ">
<polygon fill="white" stroke="#666666" points="609.5,-92 523.75,-92 523.75,-72 609.5,-72 609.5,-92"/>
<text text-anchor="middle" x="566.62" y="-78.5" font-family="Helvetica,sans-Serif" font-size="10.00">zrtos_str__ultoa</text>
</a>
</g>
</g>
<!-- Node3&#45;&gt;Node6 -->
<g id="edge11_Node000003_Node000006" class="edge">
<title>Node3&#45;&gt;Node6</title>
<g id="a_edge11_Node000003_Node000006"><a xlink:title=" ">
<path fill="none" stroke="#63b8ff" d="M244.11,-52.51C313.75,-58.9 440.54,-70.53 512.34,-77.11"/>
<polygon fill="#63b8ff" stroke="#63b8ff" points="511.58,-80.56 521.86,-77.99 512.22,-73.59 511.58,-80.56"/>
</a>
</g>
</g>
<!-- Node9 -->
<g id="Node000009" class="node">
<title>Node9</title>
<g id="a_Node000009"><a xlink:href="str_8h.html#a0bbbf024b181a2c7d5ec9056efb84743" target="_top" xlink:title=" ">
<polygon fill="white" stroke="#666666" points="486.25,-20 408.75,-20 408.75,0 486.25,0 486.25,-20"/>
<text text-anchor="middle" x="447.5" y="-6.5" font-family="Helvetica,sans-Serif" font-size="10.00">zrtos_str__len</text>
</a>
</g>
</g>
<!-- Node3&#45;&gt;Node9 -->
<g id="edge9_Node000003_Node000009" class="edge">
<title>Node3&#45;&gt;Node9</title>
<g id="a_edge9_Node000003_Node000009"><a xlink:title=" ">
<path fill="none" stroke="#63b8ff" d="M244.29,-40.54C288.43,-33.87 352.77,-24.15 396.96,-17.48"/>
<polygon fill="#63b8ff" stroke="#63b8ff" points="397.43,-20.95 406.8,-16 396.39,-14.03 397.43,-20.95"/>
</a>
</g>
</g>
<!-- Node5 -->
<g id="Node000005" class="node">
<title>Node5</title>
<g id="a_Node000005"><a xlink:href="str_8h.html#a0f900e1b206fe39cd1b56fb61c1802b6" target="_top" xlink:title=" ">
<polygon fill="white" stroke="#666666" points="487.75,-134 407.25,-134 407.25,-114 487.75,-114 487.75,-134"/>
<text text-anchor="middle" x="447.5" y="-120.5" font-family="Helvetica,sans-Serif" font-size="10.00">zrtos_str__ltoa</text>
</a>
</g>
</g>
<!-- Node4&#45;&gt;Node5 -->
<g id="edge4_Node000004_Node000005" class="edge">
<title>Node4&#45;&gt;Node5</title>
<g id="a_edge4_Node000004_Node000005"><a xlink:title=" ">
<path fill="none" stroke="#63b8ff" d="M362.5,-96.48C375.31,-100.68 390.25,-105.57 403.94,-110.06"/>
<polygon fill="#63b8ff" stroke="#63b8ff" points="402.57,-113.29 413.16,-113.08 404.75,-106.64 402.57,-113.29"/>
</a>
</g>
</g>
<!-- Node4&#45;&gt;Node6 -->
<g id="edge8_Node000004_Node000006" class="edge">
<title>Node4&#45;&gt;Node6</title>
<g id="a_edge8_Node000004_Node000006"><a xlink:title=" ">
<path fill="none" stroke="#63b8ff" d="M371.72,-85.3C410.69,-84.64 469.37,-83.64 511.97,-82.91"/>
<polygon fill="#63b8ff" stroke="#63b8ff" points="511.8,-86.42 521.74,-82.75 511.69,-79.42 511.8,-86.42"/>
</a>
</g>
</g>
<!-- Node5&#45;&gt;Node6 -->
<g id="edge5_Node000005_Node000006" class="edge">
<title>Node5&#45;&gt;Node6</title>
<g id="a_edge5_Node000005_Node000006"><a xlink:title=" ">
<path fill="none" stroke="#63b8ff" d="M477.75,-113.51C492.4,-108.26 510.34,-101.83 526.18,-96.15"/>
<polygon fill="#63b8ff" stroke="#63b8ff" points="527.09,-99.54 535.32,-92.87 524.73,-92.95 527.09,-99.54"/>
</a>
</g>
</g>
<!-- Node7 -->
<g id="Node000007" class="node">
<title>Node7</title>
<g id="a_Node000007"><a xlink:href="mem_8h.html#a3d701c04fc9475a1e6cd8d5b14d6534b" target="_top" xlink:title=" ">
<polygon fill="white" stroke="#666666" points="752.25,-92 646.25,-92 646.25,-72 752.25,-72 752.25,-92"/>
<text text-anchor="middle" x="699.25" y="-78.5" font-family="Helvetica,sans-Serif" font-size="10.00">zrtos_mem__reverse</text>
</a>
</g>
</g>
<!-- Node6&#45;&gt;Node7 -->
<g id="edge6_Node000006_Node000007" class="edge">
<title>Node6&#45;&gt;Node7</title>
<g id="a_edge6_Node000006_Node000007"><a xlink:title=" ">
<path fill="none" stroke="#63b8ff" d="M609.67,-82C617.67,-82 626.21,-82 634.7,-82"/>
<polygon fill="#63b8ff" stroke="#63b8ff" points="634.69,-85.5 644.69,-82 634.69,-78.5 634.69,-85.5"/>
</a>
</g>
</g>
<!-- Node8 -->
<g id="Node000008" class="node">
<title>Node8</title>
<g id="a_Node000008"><a xlink:href="types_8h.html#adbc4238237e656eb247fd49ffbfb1a6d" target="_top" xlink:title=" ">
<polygon fill="white" stroke="#666666" points="753,-46 645.5,-46 645.5,-14 753,-14 753,-46"/>
<text text-anchor="start" x="653.5" y="-32.5" font-family="Helvetica,sans-Serif" font-size="10.00">zrtos_types__ptr_get</text>
<text text-anchor="middle" x="699.25" y="-20.5" font-family="Helvetica,sans-Serif" font-size="10.00">_byte_distance</text>
</a>
</g>
</g>
<!-- Node6&#45;&gt;Node8 -->
<g id="edge7_Node000006_Node000008" class="edge">
<title>Node6&#45;&gt;Node8</title>
<g id="a_edge7_Node000006_Node000008"><a xlink:title=" ">
<path fill="none" stroke="#63b8ff" d="M593.74,-71.6C608.87,-65.58 628.44,-57.79 646.55,-50.58"/>
<polygon fill="#63b8ff" stroke="#63b8ff" points="647.6,-53.93 655.6,-46.98 645.01,-47.43 647.6,-53.93"/>
</a>
</g>
</g>
<!-- Node9&#45;&gt;Node8 -->
<g id="edge10_Node000009_Node000008" class="edge">
<title>Node9&#45;&gt;Node8</title>
<g id="a_edge10_Node000009_Node000008"><a xlink:title=" ">
<path fill="none" stroke="#63b8ff" d="M486.7,-13.06C525.84,-16.19 587.38,-21.12 634.02,-24.86"/>
<polygon fill="#63b8ff" stroke="#63b8ff" points="633.47,-28.32 643.72,-25.63 634.03,-21.35 633.47,-28.32"/>
</a>
</g>
</g>
</g>
</svg>
