<?xml version="1.0" encoding="UTF-8" standalone="no"?>
<!DOCTYPE svg PUBLIC "-//W3C//DTD SVG 1.1//EN"
 "http://www.w3.org/Graphics/SVG/1.1/DTD/svg11.dtd">
<!-- Generated by graphviz version 10.0.1 (20240210.2158)
 -->
<!-- Title: zrtos_str__cspn Pages: 1 -->
<svg width="651pt" height="28pt"
 viewBox="0.00 0.00 651.25 28.00" xmlns="http://www.w3.org/2000/svg" xmlns:xlink="http://www.w3.org/1999/xlink">
<g id="graph0" class="graph" transform="scale(1 1) rotate(0) translate(4 24)">
<title>zrtos_str__cspn</title>
<!-- Node1 -->
<g id="Node000001" class="node">
<title>Node1</title>
<g id="a_Node000001"><a xlink:title=" ">
<polygon fill="#999999" stroke="#666666" points="643.25,-20 557.5,-20 557.5,0 643.25,0 643.25,-20"/>
<text text-anchor="middle" x="600.38" y="-6.5" font-family="Helvetica,sans-Serif" font-size="10.00">zrtos_str__cspn</text>
</a>
</g>
</g>
<!-- Node2 -->
<g id="Node000002" class="node">
<title>Node2</title>
<g id="a_Node000002"><a xlink:href="str_8h.html#a1952f0c5784b3276bc6e0439f23d3fd0" target="_top" xlink:title=" ">
<polygon fill="white" stroke="#666666" points="521.5,-20 435,-20 435,0 521.5,0 521.5,-20"/>
<text text-anchor="middle" x="478.25" y="-6.5" font-family="Helvetica,sans-Serif" font-size="10.00">zrtos_str__tok_r</text>
</a>
</g>
</g>
<!-- Node1&#45;&gt;Node2 -->
<g id="edge1_Node000001_Node000002" class="edge">
<title>Node1&#45;&gt;Node2</title>
<g id="a_edge1_Node000001_Node000002"><a xlink:title=" ">
<path fill="none" stroke="#63b8ff" d="M545.76,-10C537.67,-10 529.43,-10 521.62,-10"/>
<polygon fill="#63b8ff" stroke="#63b8ff" points="545.51,-13.5 555.51,-10 545.51,-6.5 545.51,-13.5"/>
</a>
</g>
</g>
<!-- Node3 -->
<g id="Node000003" class="node">
<title>Node3</title>
<g id="a_Node000003"><a xlink:href="vfs__dentry_8h.html#a25c3d8504af7c99c7fe0705919e4bba6" target="_top" xlink:title=" ">
<polygon fill="white" stroke="#666666" points="399,-20 273.5,-20 273.5,0 399,0 399,-20"/>
<text text-anchor="middle" x="336.25" y="-6.5" font-family="Helvetica,sans-Serif" font-size="10.00">zrtos_vfs_dentry__lookup</text>
</a>
</g>
</g>
<!-- Node2&#45;&gt;Node3 -->
<g id="edge2_Node000002_Node000003" class="edge">
<title>Node2&#45;&gt;Node3</title>
<g id="a_edge2_Node000002_Node000003"><a xlink:title=" ">
<path fill="none" stroke="#63b8ff" d="M423.54,-10C415.64,-10 407.44,-10 399.38,-10"/>
<polygon fill="#63b8ff" stroke="#63b8ff" points="423.35,-13.5 433.35,-10 423.35,-6.5 423.35,-13.5"/>
</a>
</g>
</g>
<!-- Node4 -->
<g id="Node000004" class="node">
<title>Node4</title>
<g id="a_Node000004"><a xlink:href="vfs__file_8h.html#a927d7e3ca83d067440360207ba94b0fe" target="_top" xlink:title=" ">
<polygon fill="white" stroke="#666666" points="237.5,-20 134.5,-20 134.5,0 237.5,0 237.5,-20"/>
<text text-anchor="middle" x="186" y="-6.5" font-family="Helvetica,sans-Serif" font-size="10.00">zrtos_vfs_file__open</text>
</a>
</g>
</g>
<!-- Node3&#45;&gt;Node4 -->
<g id="edge3_Node000003_Node000004" class="edge">
<title>Node3&#45;&gt;Node4</title>
<g id="a_edge3_Node000003_Node000004"><a xlink:title=" ">
<path fill="none" stroke="#63b8ff" d="M261.87,-10C253.79,-10 245.7,-10 237.98,-10"/>
<polygon fill="#63b8ff" stroke="#63b8ff" points="261.72,-13.5 271.72,-10 261.72,-6.5 261.72,-13.5"/>
</a>
</g>
</g>
<!-- Node5 -->
<g id="Node000005" class="node">
<title>Node5</title>
<g id="a_Node000005"><a xlink:href="vfs__fd_8h.html#a3e034b78f0f647eb2c449d3fb832a951" target="_top" xlink:title=" ">
<polygon fill="white" stroke="#666666" points="98.5,-20 0,-20 0,0 98.5,0 98.5,-20"/>
<text text-anchor="middle" x="49.25" y="-6.5" font-family="Helvetica,sans-Serif" font-size="10.00">zrtos_vfs_fd__open</text>
</a>
</g>
</g>
<!-- Node4&#45;&gt;Node5 -->
<g id="edge4_Node000004_Node000005" class="edge">
<title>Node4&#45;&gt;Node5</title>
<g id="a_edge4_Node000004_Node000005"><a xlink:title=" ">
<path fill="none" stroke="#63b8ff" d="M122.72,-10C114.62,-10 106.42,-10 98.59,-10"/>
<polygon fill="#63b8ff" stroke="#63b8ff" points="122.54,-13.5 132.54,-10 122.54,-6.5 122.54,-13.5"/>
</a>
</g>
</g>
</g>
</svg>
