<?xml version="1.0" encoding="UTF-8" standalone="no"?>
<!DOCTYPE svg PUBLIC "-//W3C//DTD SVG 1.1//EN"
 "http://www.w3.org/Graphics/SVG/1.1/DTD/svg11.dtd">
<!-- Generated by graphviz version 2.40.1 (20161225.0304)
 -->
<!-- Title: zrtos_str__tok_r Pages: 1 -->
<svg width="710pt" height="72pt"
 viewBox="0.00 0.00 710.00 71.50" xmlns="http://www.w3.org/2000/svg" xmlns:xlink="http://www.w3.org/1999/xlink">
<g id="graph0" class="graph" transform="scale(1 1) rotate(0) translate(4 67.5)">
<title>zrtos_str__tok_r</title>
<polygon fill="#ffffff" stroke="transparent" points="-4,4 -4,-67.5 706,-67.5 706,4 -4,4"/>
<!-- Node71 -->
<g id="node1" class="node">
<title>Node71</title>
<polygon fill="#bfbfbf" stroke="#000000" points="0,-25 0,-44 87,-44 87,-25 0,-25"/>
<text text-anchor="middle" x="43.5" y="-32" font-family="Helvetica,sans-Serif" font-size="10.00" fill="#000000">zrtos_str__tok_r</text>
</g>
<!-- Node72 -->
<g id="node2" class="node">
<title>Node72</title>
<g id="a_node2"><a xlink:href="shell_8h.html#ae83ae2bdbcf73703df16cf91b83837ba" target="_top" xlink:title="zrtos_shell__parse_line">
<polygon fill="#ffffff" stroke="#000000" points="127.5,-44 127.5,-63 246.5,-63 246.5,-44 127.5,-44"/>
<text text-anchor="middle" x="187" y="-51" font-family="Helvetica,sans-Serif" font-size="10.00" fill="#000000">zrtos_shell__parse_line</text>
</a>
</g>
</g>
<!-- Node71&#45;&gt;Node72 -->
<g id="edge1" class="edge">
<title>Node71&#45;&gt;Node72</title>
<path fill="none" stroke="#191970" d="M97.3266,-41.6269C107.1121,-42.9225 117.3727,-44.2811 127.3152,-45.5975"/>
<polygon fill="#191970" stroke="#191970" points="97.7074,-38.1468 87.3345,-40.3039 96.7885,-45.0863 97.7074,-38.1468"/>
</g>
<!-- Node74 -->
<g id="node4" class="node">
<title>Node74</title>
<g id="a_node4"><a xlink:href="vfs__dentry_8h.html#a993f8558c29043f4405698f2d4f2747e" target="_top" xlink:title="zrtos_vfs_dentry__lookup">
<polygon fill="#ffffff" stroke="#000000" points="123,-6 123,-25 251,-25 251,-6 123,-6"/>
<text text-anchor="middle" x="187" y="-13" font-family="Helvetica,sans-Serif" font-size="10.00" fill="#000000">zrtos_vfs_dentry__lookup</text>
</a>
</g>
</g>
<!-- Node71&#45;&gt;Node74 -->
<g id="edge3" class="edge">
<title>Node71&#45;&gt;Node74</title>
<path fill="none" stroke="#191970" d="M97.2923,-27.3777C105.6233,-26.2746 114.2995,-25.1259 122.8311,-23.9962"/>
<polygon fill="#191970" stroke="#191970" points="96.7885,-23.9137 87.3345,-28.6961 97.7074,-30.8532 96.7885,-23.9137"/>
</g>
<!-- Node73 -->
<g id="node3" class="node">
<title>Node73</title>
<g id="a_node3"><a xlink:href="shell_8h.html#acaa787a39645868469afb60d54acd0ec" target="_top" xlink:title="zrtos_shell__run">
<polygon fill="#ffffff" stroke="#000000" points="296.5,-44 296.5,-63 384.5,-63 384.5,-44 296.5,-44"/>
<text text-anchor="middle" x="340.5" y="-51" font-family="Helvetica,sans-Serif" font-size="10.00" fill="#000000">zrtos_shell__run</text>
</a>
</g>
</g>
<!-- Node72&#45;&gt;Node73 -->
<g id="edge2" class="edge">
<title>Node72&#45;&gt;Node73</title>
<path fill="none" stroke="#191970" d="M256.9499,-53.5C270.347,-53.5 284.0226,-53.5 296.3267,-53.5"/>
<polygon fill="#191970" stroke="#191970" points="256.7867,-50.0001 246.7866,-53.5 256.7866,-57.0001 256.7867,-50.0001"/>
</g>
<!-- Node75 -->
<g id="node5" class="node">
<title>Node75</title>
<g id="a_node5"><a xlink:href="vfs__file_8h.html#a5e35099a788e6bd302890a2da12cdb10" target="_top" xlink:title="zrtos_vfs_file__open">
<polygon fill="#ffffff" stroke="#000000" points="287,-6 287,-25 394,-25 394,-6 287,-6"/>
<text text-anchor="middle" x="340.5" y="-13" font-family="Helvetica,sans-Serif" font-size="10.00" fill="#000000">zrtos_vfs_file__open</text>
</a>
</g>
</g>
<!-- Node74&#45;&gt;Node75 -->
<g id="edge4" class="edge">
<title>Node74&#45;&gt;Node75</title>
<path fill="none" stroke="#191970" d="M261.2612,-15.5C269.8631,-15.5 278.5067,-15.5 286.7592,-15.5"/>
<polygon fill="#191970" stroke="#191970" points="261.2084,-12.0001 251.2084,-15.5 261.2084,-19.0001 261.2084,-12.0001"/>
</g>
<!-- Node76 -->
<g id="node6" class="node">
<title>Node76</title>
<g id="a_node6"><a xlink:href="vfs__fd_8h.html#a3d77749f16d0a3f932c58f9ae0c20e1c" target="_top" xlink:title="zrtos_vfs_fd__open">
<polygon fill="#ffffff" stroke="#000000" points="430,-6 430,-25 532,-25 532,-6 430,-6"/>
<text text-anchor="middle" x="481" y="-13" font-family="Helvetica,sans-Serif" font-size="10.00" fill="#000000">zrtos_vfs_fd__open</text>
</a>
</g>
</g>
<!-- Node75&#45;&gt;Node76 -->
<g id="edge5" class="edge">
<title>Node75&#45;&gt;Node76</title>
<path fill="none" stroke="#191970" d="M404.09,-15.5C412.7504,-15.5 421.5471,-15.5 429.9472,-15.5"/>
<polygon fill="#191970" stroke="#191970" points="404.0179,-12.0001 394.0178,-15.5 404.0178,-19.0001 404.0179,-12.0001"/>
</g>
<!-- Node77 -->
<g id="node7" class="node">
<title>Node77</title>
<g id="a_node7"><a xlink:href="rtu_8h.html#a2376d02a52d42eef634ef843afc499f3" target="_top" xlink:title="zrtos_vfs_module_modbus\l_rtu_inode__init">
<polygon fill="#ffffff" stroke="#000000" points="568,-.5 568,-30.5 702,-30.5 702,-.5 568,-.5"/>
<text text-anchor="start" x="576" y="-18.5" font-family="Helvetica,sans-Serif" font-size="10.00" fill="#000000">zrtos_vfs_module_modbus</text>
<text text-anchor="middle" x="635" y="-7.5" font-family="Helvetica,sans-Serif" font-size="10.00" fill="#000000">_rtu_inode__init</text>
</a>
</g>
</g>
<!-- Node76&#45;&gt;Node77 -->
<g id="edge6" class="edge">
<title>Node76&#45;&gt;Node77</title>
<path fill="none" stroke="#191970" d="M542.3277,-15.5C550.693,-15.5 559.316,-15.5 567.7789,-15.5"/>
<polygon fill="#191970" stroke="#191970" points="542.2798,-12.0001 532.2798,-15.5 542.2797,-19.0001 542.2798,-12.0001"/>
</g>
</g>
</svg>
