<?xml version="1.0" encoding="UTF-8" standalone="no"?>
<!DOCTYPE svg PUBLIC "-//W3C//DTD SVG 1.1//EN"
 "http://www.w3.org/Graphics/SVG/1.1/DTD/svg11.dtd">
<!-- Generated by graphviz version 2.40.1 (20161225.0304)
 -->
<!-- Title: zrtos_str__spn Pages: 1 -->
<svg width="827pt" height="72pt"
 viewBox="0.00 0.00 827.00 71.50" xmlns="http://www.w3.org/2000/svg" xmlns:xlink="http://www.w3.org/1999/xlink">
<g id="graph0" class="graph" transform="scale(1 1) rotate(0) translate(4 67.5)">
<title>zrtos_str__spn</title>
<polygon fill="#ffffff" stroke="transparent" points="-4,4 -4,-67.5 823,-67.5 823,4 -4,4"/>
<!-- Node57 -->
<g id="node1" class="node">
<title>Node57</title>
<polygon fill="#bfbfbf" stroke="#000000" points="0,-25 0,-44 81,-44 81,-25 0,-25"/>
<text text-anchor="middle" x="40.5" y="-32" font-family="Helvetica,sans-Serif" font-size="10.00" fill="#000000">zrtos_str__spn</text>
</g>
<!-- Node58 -->
<g id="node2" class="node">
<title>Node58</title>
<g id="a_node2"><a xlink:href="shell_8h.html#ae83ae2bdbcf73703df16cf91b83837ba" target="_top" xlink:title="zrtos_shell__parse_line">
<polygon fill="#ffffff" stroke="#000000" points="244.5,-44 244.5,-63 363.5,-63 363.5,-44 244.5,-44"/>
<text text-anchor="middle" x="304" y="-51" font-family="Helvetica,sans-Serif" font-size="10.00" fill="#000000">zrtos_shell__parse_line</text>
</a>
</g>
</g>
<!-- Node57&#45;&gt;Node58 -->
<g id="edge1" class="edge">
<title>Node57&#45;&gt;Node58</title>
<path fill="none" stroke="#191970" d="M91.2145,-38.1568C134.9315,-41.3091 198.1107,-45.8647 244.267,-49.1929"/>
<polygon fill="#191970" stroke="#191970" points="91.3203,-34.6555 81.0944,-37.4271 90.8168,-41.6373 91.3203,-34.6555"/>
</g>
<!-- Node60 -->
<g id="node4" class="node">
<title>Node60</title>
<g id="a_node4"><a xlink:href="str_8h.html#a895ecefd0a6db15a94d6cbf5fd2747d6" target="_top" xlink:title="zrtos_str__tok_r">
<polygon fill="#ffffff" stroke="#000000" points="117,-6 117,-25 204,-25 204,-6 117,-6"/>
<text text-anchor="middle" x="160.5" y="-13" font-family="Helvetica,sans-Serif" font-size="10.00" fill="#000000">zrtos_str__tok_r</text>
</a>
</g>
</g>
<!-- Node57&#45;&gt;Node60 -->
<g id="edge3" class="edge">
<title>Node57&#45;&gt;Node60</title>
<path fill="none" stroke="#191970" d="M91.2491,-26.4647C99.6875,-25.1286 108.3761,-23.753 116.6254,-22.4468"/>
<polygon fill="#191970" stroke="#191970" points="90.4561,-23.0466 81.1265,-28.0675 91.5509,-29.9605 90.4561,-23.0466"/>
</g>
<!-- Node59 -->
<g id="node3" class="node">
<title>Node59</title>
<g id="a_node3"><a xlink:href="shell_8h.html#acaa787a39645868469afb60d54acd0ec" target="_top" xlink:title="zrtos_shell__run">
<polygon fill="#ffffff" stroke="#000000" points="413.5,-44 413.5,-63 501.5,-63 501.5,-44 413.5,-44"/>
<text text-anchor="middle" x="457.5" y="-51" font-family="Helvetica,sans-Serif" font-size="10.00" fill="#000000">zrtos_shell__run</text>
</a>
</g>
</g>
<!-- Node58&#45;&gt;Node59 -->
<g id="edge2" class="edge">
<title>Node58&#45;&gt;Node59</title>
<path fill="none" stroke="#191970" d="M373.9499,-53.5C387.347,-53.5 401.0226,-53.5 413.3267,-53.5"/>
<polygon fill="#191970" stroke="#191970" points="373.7867,-50.0001 363.7866,-53.5 373.7866,-57.0001 373.7867,-50.0001"/>
</g>
<!-- Node60&#45;&gt;Node58 -->
<g id="edge4" class="edge">
<title>Node60&#45;&gt;Node58</title>
<path fill="none" stroke="#191970" d="M206.4735,-27.6742C226.3164,-32.9287 249.1928,-38.9866 267.8005,-43.9141"/>
<polygon fill="#191970" stroke="#191970" points="207.2739,-24.2655 196.7111,-25.089 205.4819,-31.0323 207.2739,-24.2655"/>
</g>
<!-- Node61 -->
<g id="node5" class="node">
<title>Node61</title>
<g id="a_node5"><a xlink:href="vfs__dentry_8h.html#a993f8558c29043f4405698f2d4f2747e" target="_top" xlink:title="zrtos_vfs_dentry__lookup">
<polygon fill="#ffffff" stroke="#000000" points="240,-6 240,-25 368,-25 368,-6 240,-6"/>
<text text-anchor="middle" x="304" y="-13" font-family="Helvetica,sans-Serif" font-size="10.00" fill="#000000">zrtos_vfs_dentry__lookup</text>
</a>
</g>
</g>
<!-- Node60&#45;&gt;Node61 -->
<g id="edge5" class="edge">
<title>Node60&#45;&gt;Node61</title>
<path fill="none" stroke="#191970" d="M214.5671,-15.5C222.814,-15.5 231.3932,-15.5 239.8311,-15.5"/>
<polygon fill="#191970" stroke="#191970" points="214.3345,-12.0001 204.3345,-15.5 214.3344,-19.0001 214.3345,-12.0001"/>
</g>
<!-- Node62 -->
<g id="node6" class="node">
<title>Node62</title>
<g id="a_node6"><a xlink:href="vfs__file_8h.html#a5e35099a788e6bd302890a2da12cdb10" target="_top" xlink:title="zrtos_vfs_file__open">
<polygon fill="#ffffff" stroke="#000000" points="404,-6 404,-25 511,-25 511,-6 404,-6"/>
<text text-anchor="middle" x="457.5" y="-13" font-family="Helvetica,sans-Serif" font-size="10.00" fill="#000000">zrtos_vfs_file__open</text>
</a>
</g>
</g>
<!-- Node61&#45;&gt;Node62 -->
<g id="edge6" class="edge">
<title>Node61&#45;&gt;Node62</title>
<path fill="none" stroke="#191970" d="M378.2612,-15.5C386.8631,-15.5 395.5067,-15.5 403.7592,-15.5"/>
<polygon fill="#191970" stroke="#191970" points="378.2084,-12.0001 368.2084,-15.5 378.2084,-19.0001 378.2084,-12.0001"/>
</g>
<!-- Node63 -->
<g id="node7" class="node">
<title>Node63</title>
<g id="a_node7"><a xlink:href="vfs__fd_8h.html#a3d77749f16d0a3f932c58f9ae0c20e1c" target="_top" xlink:title="zrtos_vfs_fd__open">
<polygon fill="#ffffff" stroke="#000000" points="547,-6 547,-25 649,-25 649,-6 547,-6"/>
<text text-anchor="middle" x="598" y="-13" font-family="Helvetica,sans-Serif" font-size="10.00" fill="#000000">zrtos_vfs_fd__open</text>
</a>
</g>
</g>
<!-- Node62&#45;&gt;Node63 -->
<g id="edge7" class="edge">
<title>Node62&#45;&gt;Node63</title>
<path fill="none" stroke="#191970" d="M521.09,-15.5C529.7504,-15.5 538.5471,-15.5 546.9472,-15.5"/>
<polygon fill="#191970" stroke="#191970" points="521.0179,-12.0001 511.0178,-15.5 521.0178,-19.0001 521.0179,-12.0001"/>
</g>
<!-- Node64 -->
<g id="node8" class="node">
<title>Node64</title>
<g id="a_node8"><a xlink:href="rtu_8h.html#a2376d02a52d42eef634ef843afc499f3" target="_top" xlink:title="zrtos_vfs_module_modbus\l_rtu_inode__init">
<polygon fill="#ffffff" stroke="#000000" points="685,-.5 685,-30.5 819,-30.5 819,-.5 685,-.5"/>
<text text-anchor="start" x="693" y="-18.5" font-family="Helvetica,sans-Serif" font-size="10.00" fill="#000000">zrtos_vfs_module_modbus</text>
<text text-anchor="middle" x="752" y="-7.5" font-family="Helvetica,sans-Serif" font-size="10.00" fill="#000000">_rtu_inode__init</text>
</a>
</g>
</g>
<!-- Node63&#45;&gt;Node64 -->
<g id="edge8" class="edge">
<title>Node63&#45;&gt;Node64</title>
<path fill="none" stroke="#191970" d="M659.3277,-15.5C667.693,-15.5 676.316,-15.5 684.7789,-15.5"/>
<polygon fill="#191970" stroke="#191970" points="659.2798,-12.0001 649.2798,-15.5 659.2797,-19.0001 659.2798,-12.0001"/>
</g>
</g>
</svg>
