<?xml version="1.0" encoding="UTF-8" standalone="no"?>
<!DOCTYPE svg PUBLIC "-//W3C//DTD SVG 1.1//EN"
 "http://www.w3.org/Graphics/SVG/1.1/DTD/svg11.dtd">
<!-- Generated by graphviz version 10.0.1 (20240210.2158)
 -->
<!-- Title: string.h Pages: 1 -->
<svg width="426pt" height="140pt"
 viewBox="0.00 0.00 425.75 140.00" xmlns="http://www.w3.org/2000/svg" xmlns:xlink="http://www.w3.org/1999/xlink">
<g id="graph0" class="graph" transform="scale(1 1) rotate(0) translate(4 136)">
<title>string.h</title>
<!-- Node1 -->
<g id="Node000001" class="node">
<title>Node1</title>
<g id="a_Node000001"><a xlink:title=" ">
<polygon fill="#999999" stroke="#666666" points="223,-132 174.75,-132 174.75,-112 223,-112 223,-132"/>
<text text-anchor="middle" x="198.88" y="-118.5" font-family="Helvetica,sans-Serif" font-size="10.00">string.h</text>
</a>
</g>
</g>
<!-- Node2 -->
<g id="Node000002" class="node">
<title>Node2</title>
<g id="a_Node000002"><a xlink:href="types_8h.html" target="_top" xlink:title=" ">
<polygon fill="white" stroke="#666666" points="235.38,-76 162.38,-76 162.38,-56 235.38,-56 235.38,-76"/>
<text text-anchor="middle" x="198.88" y="-62.5" font-family="Helvetica,sans-Serif" font-size="10.00">zrtos/types.h</text>
</a>
</g>
</g>
<!-- Node1&#45;&gt;Node2 -->
<g id="edge1_Node000001_Node000002" class="edge">
<title>Node1&#45;&gt;Node2</title>
<g id="a_edge1_Node000001_Node000002"><a xlink:title=" ">
<path fill="none" stroke="#63b8ff" d="M198.88,-111.59C198.88,-105.01 198.88,-95.96 198.88,-87.73"/>
<polygon fill="#63b8ff" stroke="#63b8ff" points="202.38,-87.81 198.88,-77.81 195.38,-87.81 202.38,-87.81"/>
</a>
</g>
</g>
<!-- Node3 -->
<g id="Node000003" class="node">
<title>Node3</title>
<g id="a_Node000003"><a xlink:title=" ">
<polygon fill="#e0e0e0" stroke="#999999" points="55.75,-20 0,-20 0,0 55.75,0 55.75,-20"/>
<text text-anchor="middle" x="27.88" y="-6.5" font-family="Helvetica,sans-Serif" font-size="10.00">stdbool.h</text>
</a>
</g>
</g>
<!-- Node2&#45;&gt;Node3 -->
<g id="edge2_Node000002_Node000003" class="edge">
<title>Node2&#45;&gt;Node3</title>
<g id="a_edge2_Node000002_Node000003"><a xlink:title=" ">
<path fill="none" stroke="#63b8ff" d="M169.09,-55.59C140.8,-46.66 98.08,-33.17 67.04,-23.37"/>
<polygon fill="#63b8ff" stroke="#63b8ff" points="68.22,-20.07 57.63,-20.4 66.11,-26.74 68.22,-20.07"/>
</a>
</g>
</g>
<!-- Node4 -->
<g id="Node000004" class="node">
<title>Node4</title>
<g id="a_Node000004"><a xlink:title=" ">
<polygon fill="#e0e0e0" stroke="#999999" points="124.12,-20 73.62,-20 73.62,0 124.12,0 124.12,-20"/>
<text text-anchor="middle" x="98.88" y="-6.5" font-family="Helvetica,sans-Serif" font-size="10.00">stddef.h</text>
</a>
</g>
</g>
<!-- Node2&#45;&gt;Node4 -->
<g id="edge3_Node000002_Node000004" class="edge">
<title>Node2&#45;&gt;Node4</title>
<g id="a_edge3_Node000002_Node000004"><a xlink:title=" ">
<path fill="none" stroke="#63b8ff" d="M181.46,-55.59C166.21,-47.36 143.8,-35.26 126.17,-25.74"/>
<polygon fill="#63b8ff" stroke="#63b8ff" points="128.22,-22.87 117.76,-21.2 124.9,-29.03 128.22,-22.87"/>
</a>
</g>
</g>
<!-- Node5 -->
<g id="Node000005" class="node">
<title>Node5</title>
<g id="a_Node000005"><a xlink:title=" ">
<polygon fill="#e0e0e0" stroke="#999999" points="190,-20 141.75,-20 141.75,0 190,0 190,-20"/>
<text text-anchor="middle" x="165.88" y="-6.5" font-family="Helvetica,sans-Serif" font-size="10.00">stdint.h</text>
</a>
</g>
</g>
<!-- Node2&#45;&gt;Node5 -->
<g id="edge4_Node000002_Node000005" class="edge">
<title>Node2&#45;&gt;Node5</title>
<g id="a_edge4_Node000002_Node000005"><a xlink:title=" ">
<path fill="none" stroke="#63b8ff" d="M193.13,-55.59C188.82,-48.55 182.78,-38.67 177.49,-30"/>
<polygon fill="#63b8ff" stroke="#63b8ff" points="180.55,-28.3 172.35,-21.59 174.57,-31.95 180.55,-28.3"/>
</a>
</g>
</g>
<!-- Node6 -->
<g id="Node000006" class="node">
<title>Node6</title>
<g id="a_Node000006"><a xlink:title=" ">
<polygon fill="#e0e0e0" stroke="#999999" points="255.62,-20 208.12,-20 208.12,0 255.62,0 255.62,-20"/>
<text text-anchor="middle" x="231.88" y="-6.5" font-family="Helvetica,sans-Serif" font-size="10.00">limits.h</text>
</a>
</g>
</g>
<!-- Node2&#45;&gt;Node6 -->
<g id="edge5_Node000002_Node000006" class="edge">
<title>Node2&#45;&gt;Node6</title>
<g id="a_edge5_Node000002_Node000006"><a xlink:title=" ">
<path fill="none" stroke="#63b8ff" d="M204.62,-55.59C208.93,-48.55 214.97,-38.67 220.26,-30"/>
<polygon fill="#63b8ff" stroke="#63b8ff" points="223.18,-31.95 225.4,-21.59 217.2,-28.3 223.18,-31.95"/>
</a>
</g>
</g>
<!-- Node7 -->
<g id="Node000007" class="node">
<title>Node7</title>
<g id="a_Node000007"><a xlink:title=" ">
<polygon fill="#e0e0e0" stroke="#999999" points="331.88,-20 273.88,-20 273.88,0 331.88,0 331.88,-20"/>
<text text-anchor="middle" x="302.88" y="-6.5" font-family="Helvetica,sans-Serif" font-size="10.00">stdalign.h</text>
</a>
</g>
</g>
<!-- Node2&#45;&gt;Node7 -->
<g id="edge6_Node000002_Node000007" class="edge">
<title>Node2&#45;&gt;Node7</title>
<g id="a_edge6_Node000002_Node000007"><a xlink:title=" ">
<path fill="none" stroke="#63b8ff" d="M216.99,-55.59C232.85,-47.36 256.16,-35.26 274.49,-25.74"/>
<polygon fill="#63b8ff" stroke="#63b8ff" points="276.01,-28.89 283.27,-21.18 272.79,-22.68 276.01,-28.89"/>
</a>
</g>
</g>
<!-- Node8 -->
<g id="Node000008" class="node">
<title>Node8</title>
<g id="a_Node000008"><a xlink:href="cast_8h.html" target="_top" xlink:title=" ">
<polygon fill="white" stroke="#666666" points="417.75,-20 350,-20 350,0 417.75,0 417.75,-20"/>
<text text-anchor="middle" x="383.88" y="-6.5" font-family="Helvetica,sans-Serif" font-size="10.00">zrtos/cast.h</text>
</a>
</g>
</g>
<!-- Node2&#45;&gt;Node8 -->
<g id="edge7_Node000002_Node000008" class="edge">
<title>Node2&#45;&gt;Node8</title>
<g id="a_edge7_Node000002_Node000008"><a xlink:title=" ">
<path fill="none" stroke="#63b8ff" d="M231.1,-55.59C261.42,-46.74 307.05,-33.43 340.54,-23.65"/>
<polygon fill="#63b8ff" stroke="#63b8ff" points="341.33,-27.07 349.95,-20.9 339.37,-20.35 341.33,-27.07"/>
</a>
</g>
</g>
</g>
</svg>
