<?xml version="1.0" encoding="UTF-8" standalone="no"?>
<!DOCTYPE svg PUBLIC "-//W3C//DTD SVG 1.1//EN"
 "http://www.w3.org/Graphics/SVG/1.1/DTD/svg11.dtd">
<!-- Generated by graphviz version 2.40.1 (20161225.0304)
 -->
<!-- Title: _zrtos_cbuffer_write_transaction_t Pages: 1 -->
<svg width="210pt" height="251pt"
 viewBox="0.00 0.00 209.50 251.00" xmlns="http://www.w3.org/2000/svg" xmlns:xlink="http://www.w3.org/1999/xlink">
<g id="graph0" class="graph" transform="scale(1 1) rotate(0) translate(4 247)">
<title>_zrtos_cbuffer_write_transaction_t</title>
<polygon fill="#ffffff" stroke="transparent" points="-4,4 -4,-247 205.5,-247 205.5,4 -4,4"/>
<!-- Node1 -->
<g id="node1" class="node">
<title>Node1</title>
<polygon fill="#bfbfbf" stroke="#000000" points="0,-.5 0,-30.5 105,-30.5 105,-.5 0,-.5"/>
<text text-anchor="start" x="8" y="-18.5" font-family="Helvetica,sans-Serif" font-size="10.00" fill="#000000">_zrtos_cbuffer_write</text>
<text text-anchor="middle" x="52.5" y="-7.5" font-family="Helvetica,sans-Serif" font-size="10.00" fill="#000000">_transaction_t</text>
</g>
<!-- Node2 -->
<g id="node2" class="node">
<title>Node2</title>
<polygon fill="#ffffff" stroke="#bfbfbf" points="5.5,-78.5 5.5,-97.5 51.5,-97.5 51.5,-78.5 5.5,-78.5"/>
<text text-anchor="middle" x="28.5" y="-85.5" font-family="Helvetica,sans-Serif" font-size="10.00" fill="#000000">uint8_t</text>
</g>
<!-- Node2&#45;&gt;Node1 -->
<g id="edge1" class="edge">
<title>Node2&#45;&gt;Node1</title>
<path fill="none" stroke="#9a32cd" stroke-dasharray="5,2" d="M34.9943,-68.3817C38.921,-56.52 43.8518,-41.6248 47.4789,-30.668"/>
<polygon fill="#9a32cd" stroke="#9a32cd" points="31.5568,-67.629 31.7367,-78.2223 38.2021,-69.8289 31.5568,-67.629"/>
<text text-anchor="middle" x="54" y="-52" font-family="Helvetica,sans-Serif" font-size="10.00" fill="#000000"> head</text>
</g>
<!-- Node3 -->
<g id="node3" class="node">
<title>Node3</title>
<g id="a_node3"><a xlink:href="struct__zrtos__cbuffer__t.html" target="_top" xlink:title="_zrtos_cbuffer_t">
<polygon fill="#ffffff" stroke="#000000" points="70,-78.5 70,-97.5 157,-97.5 157,-78.5 70,-78.5"/>
<text text-anchor="middle" x="113.5" y="-85.5" font-family="Helvetica,sans-Serif" font-size="10.00" fill="#000000">_zrtos_cbuffer_t</text>
</a>
</g>
</g>
<!-- Node3&#45;&gt;Node1 -->
<g id="edge2" class="edge">
<title>Node3&#45;&gt;Node1</title>
<path fill="none" stroke="#9a32cd" stroke-dasharray="5,2" d="M98.7966,-70.5247C88.5604,-58.3587 75.0453,-42.2956 65.2621,-30.668"/>
<polygon fill="#9a32cd" stroke="#9a32cd" points="96.157,-72.8238 105.2733,-78.2223 101.5133,-68.3171 96.157,-72.8238"/>
<text text-anchor="middle" x="97" y="-52" font-family="Helvetica,sans-Serif" font-size="10.00" fill="#000000"> thiz</text>
</g>
<!-- Node4 -->
<g id="node4" class="node">
<title>Node4</title>
<g id="a_node4"><a xlink:href="struct__zrtos__list__t.html" target="_top" xlink:title="_zrtos_list_t">
<polygon fill="#ffffff" stroke="#000000" points="78.5,-145.5 78.5,-164.5 148.5,-164.5 148.5,-145.5 78.5,-145.5"/>
<text text-anchor="middle" x="113.5" y="-152.5" font-family="Helvetica,sans-Serif" font-size="10.00" fill="#000000">_zrtos_list_t</text>
</a>
</g>
</g>
<!-- Node4&#45;&gt;Node3 -->
<g id="edge3" class="edge">
<title>Node4&#45;&gt;Node3</title>
<path fill="none" stroke="#9a32cd" stroke-dasharray="5,2" d="M113.5,-135.1079C113.5,-122.714 113.5,-107.3263 113.5,-97.5817"/>
<polygon fill="#9a32cd" stroke="#9a32cd" points="110.0001,-135.4005 113.5,-145.4005 117.0001,-135.4006 110.0001,-135.4005"/>
<text text-anchor="middle" x="123.5" y="-119" font-family="Helvetica,sans-Serif" font-size="10.00" fill="#000000"> root</text>
</g>
<!-- Node5 -->
<g id="node5" class="node">
<title>Node5</title>
<g id="a_node5"><a xlink:href="struct__zrtos__list__node__t.html" target="_top" xlink:title="_zrtos_list_node_t">
<polygon fill="#ffffff" stroke="#000000" points="65.5,-223.5 65.5,-242.5 161.5,-242.5 161.5,-223.5 65.5,-223.5"/>
<text text-anchor="middle" x="113.5" y="-230.5" font-family="Helvetica,sans-Serif" font-size="10.00" fill="#000000">_zrtos_list_node_t</text>
</a>
</g>
</g>
<!-- Node5&#45;&gt;Node4 -->
<g id="edge4" class="edge">
<title>Node5&#45;&gt;Node4</title>
<path fill="none" stroke="#9a32cd" stroke-dasharray="5,2" d="M113.5,-213.2866C113.5,-197.7395 113.5,-176.7276 113.5,-164.6426"/>
<polygon fill="#9a32cd" stroke="#9a32cd" points="110.0001,-213.4356 113.5,-223.4357 117.0001,-213.4357 110.0001,-213.4356"/>
<text text-anchor="middle" x="123" y="-197" font-family="Helvetica,sans-Serif" font-size="10.00" fill="#000000"> last</text>
<text text-anchor="middle" x="123" y="-186" font-family="Helvetica,sans-Serif" font-size="10.00" fill="#000000">first</text>
</g>
<!-- Node5&#45;&gt;Node5 -->
<g id="edge5" class="edge">
<title>Node5&#45;&gt;Node5</title>
<path fill="none" stroke="#9a32cd" stroke-dasharray="5,2" d="M171.8036,-238.4668C176.5532,-237.2808 179.5,-235.4585 179.5,-233 179.5,-229.0664 171.9563,-226.7616 161.5542,-226.0855"/>
<polygon fill="#9a32cd" stroke="#9a32cd" points="170.9664,-235.0502 161.5542,-239.9145 171.9455,-241.9814 170.9664,-235.0502"/>
<text text-anchor="middle" x="190.5" y="-230.5" font-family="Helvetica,sans-Serif" font-size="10.00" fill="#000000"> next</text>
</g>
</g>
</svg>
