<?xml version="1.0" encoding="UTF-8" standalone="no"?>
<!DOCTYPE svg PUBLIC "-//W3C//DTD SVG 1.1//EN"
 "http://www.w3.org/Graphics/SVG/1.1/DTD/svg11.dtd">
<!-- Generated by graphviz version 10.0.1 (20240210.2158)
 -->
<!-- Title: _zrtos_vfs_module_spi_sync_inode_t Pages: 1 -->
<svg width="555pt" height="445pt"
 viewBox="0.00 0.00 554.75 445.00" xmlns="http://www.w3.org/2000/svg" xmlns:xlink="http://www.w3.org/1999/xlink">
<g id="graph0" class="graph" transform="scale(1 1) rotate(0) translate(4 441)">
<title>_zrtos_vfs_module_spi_sync_inode_t</title>
<!-- Node1 -->
<g id="Node000001" class="node">
<title>Node1</title>
<g id="a_Node000001"><a xlink:title=" ">
<polygon fill="#999999" stroke="#666666" points="546.75,-83 432.5,-83 432.5,-51 546.75,-51 546.75,-83"/>
<text text-anchor="start" x="440.5" y="-69.5" font-family="Helvetica,sans-Serif" font-size="10.00">_zrtos_vfs_module_spi</text>
<text text-anchor="middle" x="489.62" y="-57.5" font-family="Helvetica,sans-Serif" font-size="10.00">_sync_inode_t</text>
</a>
</g>
</g>
<!-- Node2 -->
<g id="Node000002" class="node">
<title>Node2</title>
<g id="a_Node000002"><a xlink:href="struct__zrtos__gpio__t.html" target="_top" xlink:title=" ">
<polygon fill="white" stroke="#666666" points="336.12,-244 261.62,-244 261.62,-224 336.12,-224 336.12,-244"/>
<text text-anchor="middle" x="298.88" y="-230.5" font-family="Helvetica,sans-Serif" font-size="10.00">_zrtos_gpio_t</text>
</a>
</g>
</g>
<!-- Node2&#45;&gt;Node1 -->
<g id="edge1_Node000001_Node000002" class="edge">
<title>Node2&#45;&gt;Node1</title>
<g id="a_edge1_Node000001_Node000002"><a xlink:title=" ">
<path fill="none" stroke="#9a32cd" stroke-dasharray="5,2" d="M320.13,-216.08C357.01,-183.45 434.58,-114.82 470.12,-83.37"/>
<polygon fill="#9a32cd" stroke="#9a32cd" points="317.99,-213.3 312.82,-222.55 322.62,-218.55 317.99,-213.3"/>
</a>
</g>
<text text-anchor="middle" x="393.5" y="-167.5" font-family="Helvetica,sans-Serif" font-size="10.00" fill="grey"> gpio</text>
</g>
<!-- Node3 -->
<g id="Node000003" class="node">
<title>Node3</title>
<g id="a_Node000003"><a xlink:title=" ">
<polygon fill="white" stroke="#666666" points="140.88,-437 9.38,-437 9.38,-381 140.88,-381 140.88,-437"/>
<text text-anchor="start" x="17.38" y="-423.5" font-family="Helvetica,sans-Serif" font-size="10.00">zrtos_error_t(*)(struct</text>
<text text-anchor="start" x="17.38" y="-411.5" font-family="Helvetica,sans-Serif" font-size="10.00"> _zrtos_gpio_t *thiz,</text>
<text text-anchor="start" x="17.38" y="-399.5" font-family="Helvetica,sans-Serif" font-size="10.00"> zrtos_gpio_pin_t pin,</text>
<text text-anchor="middle" x="75.12" y="-387.5" font-family="Helvetica,sans-Serif" font-size="10.00"> zrtos_gpio_mode_t mode)</text>
</a>
</g>
</g>
<!-- Node3&#45;&gt;Node2 -->
<g id="edge2_Node000002_Node000003" class="edge">
<title>Node3&#45;&gt;Node2</title>
<g id="a_edge2_Node000002_Node000003"><a xlink:title=" ">
<path fill="none" stroke="#9a32cd" stroke-dasharray="5,2" d="M146.06,-374.8C147.48,-373.88 148.88,-372.94 150.25,-372 208.61,-331.79 266.78,-269.11 288.73,-244.46"/>
<polygon fill="#9a32cd" stroke="#9a32cd" points="144.41,-371.71 137.72,-379.93 148.07,-377.67 144.41,-371.71"/>
</a>
</g>
<text text-anchor="middle" x="196.75" y="-357.5" font-family="Helvetica,sans-Serif" font-size="10.00" fill="grey"> set_mode</text>
</g>
<!-- Node4 -->
<g id="Node000004" class="node">
<title>Node4</title>
<g id="a_Node000004"><a xlink:title=" ">
<polygon fill="white" stroke="#666666" points="136,-363 14.25,-363 14.25,-295 136,-295 136,-363"/>
<text text-anchor="start" x="22.25" y="-349.5" font-family="Helvetica,sans-Serif" font-size="10.00">zrtos_error_t(*)(struct</text>
<text text-anchor="start" x="22.25" y="-337.5" font-family="Helvetica,sans-Serif" font-size="10.00"> _zrtos_gpio_t *thiz,</text>
<text text-anchor="start" x="22.25" y="-325.5" font-family="Helvetica,sans-Serif" font-size="10.00"> zrtos_gpio_pin_t pin,</text>
<text text-anchor="start" x="22.25" y="-313.5" font-family="Helvetica,sans-Serif" font-size="10.00"> zrtos_gpio_value_digital</text>
<text text-anchor="middle" x="75.12" y="-301.5" font-family="Helvetica,sans-Serif" font-size="10.00">_t *val)</text>
</a>
</g>
</g>
<!-- Node4&#45;&gt;Node2 -->
<g id="edge3_Node000002_Node000004" class="edge">
<title>Node4&#45;&gt;Node2</title>
<g id="a_edge3_Node000002_Node000004"><a xlink:title=" ">
<path fill="none" stroke="#9a32cd" stroke-dasharray="5,2" d="M146.94,-298.66C190.3,-280.08 243.11,-257.46 273.38,-244.5"/>
<polygon fill="#9a32cd" stroke="#9a32cd" points="145.63,-295.42 137.82,-302.57 148.39,-301.85 145.63,-295.42"/>
</a>
</g>
<text text-anchor="middle" x="196.75" y="-289.5" font-family="Helvetica,sans-Serif" font-size="10.00" fill="grey"> digital_read</text>
</g>
<!-- Node5 -->
<g id="Node000005" class="node">
<title>Node5</title>
<g id="a_Node000005"><a xlink:title=" ">
<polygon fill="white" stroke="#666666" points="148.75,-277 1.5,-277 1.5,-221 148.75,-221 148.75,-277"/>
<text text-anchor="start" x="9.5" y="-263.5" font-family="Helvetica,sans-Serif" font-size="10.00">zrtos_error_t(*)(struct</text>
<text text-anchor="start" x="9.5" y="-251.5" font-family="Helvetica,sans-Serif" font-size="10.00"> _zrtos_gpio_t *thiz,</text>
<text text-anchor="start" x="9.5" y="-239.5" font-family="Helvetica,sans-Serif" font-size="10.00"> zrtos_gpio_pin_t pin,</text>
<text text-anchor="middle" x="75.12" y="-227.5" font-family="Helvetica,sans-Serif" font-size="10.00"> zrtos_gpio_value_digital_t val)</text>
</a>
</g>
</g>
<!-- Node5&#45;&gt;Node2 -->
<g id="edge4_Node000002_Node000005" class="edge">
<title>Node5&#45;&gt;Node2</title>
<g id="a_edge4_Node000002_Node000005"><a xlink:title=" ">
<path fill="none" stroke="#9a32cd" stroke-dasharray="5,2" d="M160.23,-243.31C195.17,-240.95 233.88,-238.33 261.32,-236.47"/>
<polygon fill="#9a32cd" stroke="#9a32cd" points="160.29,-239.8 150.55,-243.97 160.76,-246.78 160.29,-239.8"/>
</a>
</g>
<text text-anchor="middle" x="196.75" y="-244.5" font-family="Helvetica,sans-Serif" font-size="10.00" fill="grey"> digital_write</text>
</g>
<!-- Node6 -->
<g id="Node000006" class="node">
<title>Node6</title>
<g id="a_Node000006"><a xlink:title=" ">
<polygon fill="white" stroke="#666666" points="137.5,-203 12.75,-203 12.75,-135 137.5,-135 137.5,-203"/>
<text text-anchor="start" x="20.75" y="-189.5" font-family="Helvetica,sans-Serif" font-size="10.00">zrtos_error_t(*)(struct</text>
<text text-anchor="start" x="20.75" y="-177.5" font-family="Helvetica,sans-Serif" font-size="10.00"> _zrtos_gpio_t *thiz,</text>
<text text-anchor="start" x="20.75" y="-165.5" font-family="Helvetica,sans-Serif" font-size="10.00"> zrtos_gpio_pin_t pin,</text>
<text text-anchor="start" x="20.75" y="-153.5" font-family="Helvetica,sans-Serif" font-size="10.00"> zrtos_gpio_value_analog</text>
<text text-anchor="middle" x="75.12" y="-141.5" font-family="Helvetica,sans-Serif" font-size="10.00">_t *val)</text>
</a>
</g>
</g>
<!-- Node6&#45;&gt;Node2 -->
<g id="edge5_Node000002_Node000006" class="edge">
<title>Node6&#45;&gt;Node2</title>
<g id="a_edge5_Node000002_Node000006"><a xlink:title=" ">
<path fill="none" stroke="#9a32cd" stroke-dasharray="5,2" d="M148.46,-190.2C186.62,-201.39 231.74,-214.61 262.34,-223.58"/>
<polygon fill="#9a32cd" stroke="#9a32cd" points="149.93,-186.99 139.35,-187.53 147.96,-193.7 149.93,-186.99"/>
</a>
</g>
<text text-anchor="middle" x="196.75" y="-213.5" font-family="Helvetica,sans-Serif" font-size="10.00" fill="grey"> analog_read</text>
</g>
<!-- Node7 -->
<g id="Node000007" class="node">
<title>Node7</title>
<g id="a_Node000007"><a xlink:title=" ">
<polygon fill="white" stroke="#666666" points="150.25,-117 0,-117 0,-61 150.25,-61 150.25,-117"/>
<text text-anchor="start" x="8" y="-103.5" font-family="Helvetica,sans-Serif" font-size="10.00">zrtos_error_t(*)(struct</text>
<text text-anchor="start" x="8" y="-91.5" font-family="Helvetica,sans-Serif" font-size="10.00"> _zrtos_gpio_t *thiz,</text>
<text text-anchor="start" x="8" y="-79.5" font-family="Helvetica,sans-Serif" font-size="10.00"> zrtos_gpio_pin_t pin,</text>
<text text-anchor="middle" x="75.12" y="-67.5" font-family="Helvetica,sans-Serif" font-size="10.00"> zrtos_gpio_value_analog_t val)</text>
</a>
</g>
</g>
<!-- Node7&#45;&gt;Node2 -->
<g id="edge6_Node000002_Node000007" class="edge">
<title>Node7&#45;&gt;Node2</title>
<g id="a_edge6_Node000002_Node000007"><a xlink:title=" ">
<path fill="none" stroke="#9a32cd" stroke-dasharray="5,2" d="M145.23,-123C146.93,-124 148.6,-125 150.25,-126 202.86,-158.06 260.51,-203.55 285.35,-223.71"/>
<polygon fill="#9a32cd" stroke="#9a32cd" points="147.03,-120.01 136.61,-118.14 143.59,-126.1 147.03,-120.01"/>
</a>
</g>
<text text-anchor="middle" x="196.75" y="-178.5" font-family="Helvetica,sans-Serif" font-size="10.00" fill="grey"> analog_write</text>
</g>
<!-- Node8 -->
<g id="Node000008" class="node">
<title>Node8</title>
<g id="a_Node000008"><a xlink:title=" ">
<polygon fill="white" stroke="#666666" points="354.5,-96 243.25,-96 243.25,-76 354.5,-76 354.5,-96"/>
<text text-anchor="middle" x="298.88" y="-82.5" font-family="Helvetica,sans-Serif" font-size="10.00">zrtos_arch_gpio_pin_t</text>
</a>
</g>
</g>
<!-- Node8&#45;&gt;Node1 -->
<g id="edge7_Node000001_Node000008" class="edge">
<title>Node8&#45;&gt;Node1</title>
<g id="a_edge7_Node000001_Node000008"><a xlink:title=" ">
<path fill="none" stroke="#9a32cd" stroke-dasharray="5,2" d="M366.33,-79.31C387.83,-77.15 411.44,-74.77 432.14,-72.69"/>
<polygon fill="#9a32cd" stroke="#9a32cd" points="366.08,-75.82 356.48,-80.3 366.78,-82.78 366.08,-75.82"/>
</a>
</g>
<text text-anchor="middle" x="393.5" y="-104.5" font-family="Helvetica,sans-Serif" font-size="10.00" fill="grey"> pin_miso</text>
<text text-anchor="middle" x="393.5" y="-92.5" font-family="Helvetica,sans-Serif" font-size="10.00" fill="grey">pin_mosi</text>
<text text-anchor="middle" x="393.5" y="-80.5" font-family="Helvetica,sans-Serif" font-size="10.00" fill="grey">pin_sclk</text>
</g>
<!-- Node9 -->
<g id="Node000009" class="node">
<title>Node9</title>
<g id="a_Node000009"><a xlink:href="struct__zrtos__task__mutex__t.html" target="_top" xlink:title=" ">
<polygon fill="white" stroke="#666666" points="352.62,-58 245.12,-58 245.12,-38 352.62,-38 352.62,-58"/>
<text text-anchor="middle" x="298.88" y="-44.5" font-family="Helvetica,sans-Serif" font-size="10.00">_zrtos_task_mutex_t</text>
</a>
</g>
</g>
<!-- Node9&#45;&gt;Node1 -->
<g id="edge8_Node000001_Node000009" class="edge">
<title>Node9&#45;&gt;Node1</title>
<g id="a_edge8_Node000001_Node000009"><a xlink:title=" ">
<path fill="none" stroke="#9a32cd" stroke-dasharray="5,2" d="M364.14,-53.22C380.57,-54.66 398.2,-56.3 414.5,-58 420.3,-58.61 426.35,-59.28 432.39,-59.97"/>
<polygon fill="#9a32cd" stroke="#9a32cd" points="364.76,-49.76 354.49,-52.39 364.15,-56.74 364.76,-49.76"/>
</a>
</g>
<text text-anchor="middle" x="393.5" y="-60.5" font-family="Helvetica,sans-Serif" font-size="10.00" fill="grey"> mutex</text>
</g>
<!-- Node10 -->
<g id="Node000010" class="node">
<title>Node10</title>
<g id="a_Node000010"><a xlink:title=" ">
<polygon fill="white" stroke="#666666" points="92.12,-43 58.12,-43 58.12,-23 92.12,-23 92.12,-43"/>
<text text-anchor="middle" x="75.12" y="-29.5" font-family="Helvetica,sans-Serif" font-size="10.00">bool</text>
</a>
</g>
</g>
<!-- Node10&#45;&gt;Node9 -->
<g id="edge9_Node000009_Node000010" class="edge">
<title>Node10&#45;&gt;Node9</title>
<g id="a_edge9_Node000009_Node000010"><a xlink:title=" ">
<path fill="none" stroke="#9a32cd" stroke-dasharray="5,2" d="M103.71,-34.87C138.92,-37.25 200.57,-41.42 244.97,-44.42"/>
<polygon fill="#9a32cd" stroke="#9a32cd" points="104.15,-31.39 93.94,-34.21 103.68,-38.37 104.15,-31.39"/>
</a>
</g>
<text text-anchor="middle" x="196.75" y="-44.5" font-family="Helvetica,sans-Serif" font-size="10.00" fill="grey"> is_locked</text>
</g>
<!-- Node11 -->
<g id="Node000011" class="node">
<title>Node11</title>
<g id="a_Node000011"><a xlink:title=" ">
<polygon fill="white" stroke="#666666" points="321.5,-20 276.25,-20 276.25,0 321.5,0 321.5,-20"/>
<text text-anchor="middle" x="298.88" y="-6.5" font-family="Helvetica,sans-Serif" font-size="10.00">uint8_t</text>
</a>
</g>
</g>
<!-- Node11&#45;&gt;Node1 -->
<g id="edge10_Node000001_Node000011" class="edge">
<title>Node11&#45;&gt;Node1</title>
<g id="a_edge10_Node000001_Node000011"><a xlink:title=" ">
<path fill="none" stroke="#9a32cd" stroke-dasharray="5,2" d="M332.9,-16.84C355.98,-21.92 387.39,-29.43 414.5,-38 425.96,-41.62 438.2,-46.13 449.35,-50.51"/>
<polygon fill="#9a32cd" stroke="#9a32cd" points="333.65,-13.42 323.14,-14.73 332.18,-20.27 333.65,-13.42"/>
</a>
</g>
<text text-anchor="middle" x="393.5" y="-40.5" font-family="Helvetica,sans-Serif" font-size="10.00" fill="grey"> count</text>
</g>
</g>
</svg>
