<?xml version="1.0" encoding="UTF-8" standalone="no"?>
<!DOCTYPE svg PUBLIC "-//W3C//DTD SVG 1.1//EN"
 "http://www.w3.org/Graphics/SVG/1.1/DTD/svg11.dtd">
<!-- Generated by graphviz version 2.40.1 (20161225.0304)
 -->
<!-- Title: _zrtos_cbuffer_t Pages: 1 -->
<svg width="144pt" height="173pt"
 viewBox="0.00 0.00 144.00 173.00" xmlns="http://www.w3.org/2000/svg" xmlns:xlink="http://www.w3.org/1999/xlink">
<g id="graph0" class="graph" transform="scale(1 1) rotate(0) translate(4 169)">
<title>_zrtos_cbuffer_t</title>
<polygon fill="#ffffff" stroke="transparent" points="-4,4 -4,-169 140,-169 140,4 -4,4"/>
<!-- Node1 -->
<g id="node1" class="node">
<title>Node1</title>
<polygon fill="#bfbfbf" stroke="#000000" points="4.5,-.5 4.5,-19.5 91.5,-19.5 91.5,-.5 4.5,-.5"/>
<text text-anchor="middle" x="48" y="-7.5" font-family="Helvetica,sans-Serif" font-size="10.00" fill="#000000">_zrtos_cbuffer_t</text>
</g>
<!-- Node2 -->
<g id="node2" class="node">
<title>Node2</title>
<g id="a_node2"><a xlink:href="struct__zrtos__list__t.html" target="_top" xlink:title="_zrtos_list_t">
<polygon fill="#ffffff" stroke="#000000" points="13,-67.5 13,-86.5 83,-86.5 83,-67.5 13,-67.5"/>
<text text-anchor="middle" x="48" y="-74.5" font-family="Helvetica,sans-Serif" font-size="10.00" fill="#000000">_zrtos_list_t</text>
</a>
</g>
</g>
<!-- Node2&#45;&gt;Node1 -->
<g id="edge1" class="edge">
<title>Node2&#45;&gt;Node1</title>
<path fill="none" stroke="#9a32cd" stroke-dasharray="5,2" d="M48,-57.1079C48,-44.714 48,-29.3263 48,-19.5817"/>
<polygon fill="#9a32cd" stroke="#9a32cd" points="44.5001,-57.4005 48,-67.4005 51.5001,-57.4006 44.5001,-57.4005"/>
<text text-anchor="middle" x="58" y="-41" font-family="Helvetica,sans-Serif" font-size="10.00" fill="#000000"> root</text>
</g>
<!-- Node3 -->
<g id="node3" class="node">
<title>Node3</title>
<g id="a_node3"><a xlink:href="struct__zrtos__list__node__t.html" target="_top" xlink:title="_zrtos_list_node_t">
<polygon fill="#ffffff" stroke="#000000" points="0,-145.5 0,-164.5 96,-164.5 96,-145.5 0,-145.5"/>
<text text-anchor="middle" x="48" y="-152.5" font-family="Helvetica,sans-Serif" font-size="10.00" fill="#000000">_zrtos_list_node_t</text>
</a>
</g>
</g>
<!-- Node3&#45;&gt;Node2 -->
<g id="edge2" class="edge">
<title>Node3&#45;&gt;Node2</title>
<path fill="none" stroke="#9a32cd" stroke-dasharray="5,2" d="M48,-135.2866C48,-119.7395 48,-98.7276 48,-86.6426"/>
<polygon fill="#9a32cd" stroke="#9a32cd" points="44.5001,-135.4356 48,-145.4357 51.5001,-135.4357 44.5001,-135.4356"/>
<text text-anchor="middle" x="57.5" y="-119" font-family="Helvetica,sans-Serif" font-size="10.00" fill="#000000"> last</text>
<text text-anchor="middle" x="57.5" y="-108" font-family="Helvetica,sans-Serif" font-size="10.00" fill="#000000">first</text>
</g>
<!-- Node3&#45;&gt;Node3 -->
<g id="edge3" class="edge">
<title>Node3&#45;&gt;Node3</title>
<path fill="none" stroke="#9a32cd" stroke-dasharray="5,2" d="M106.3036,-160.4668C111.0532,-159.2808 114,-157.4585 114,-155 114,-151.0664 106.4563,-148.7616 96.0542,-148.0855"/>
<polygon fill="#9a32cd" stroke="#9a32cd" points="105.4664,-157.0502 96.0542,-161.9145 106.4455,-163.9814 105.4664,-157.0502"/>
<text text-anchor="middle" x="125" y="-152.5" font-family="Helvetica,sans-Serif" font-size="10.00" fill="#000000"> next</text>
</g>
</g>
</svg>
