<?xml version="1.0" encoding="UTF-8" standalone="no"?>
<!DOCTYPE svg PUBLIC "-//W3C//DTD SVG 1.1//EN"
 "http://www.w3.org/Graphics/SVG/1.1/DTD/svg11.dtd">
<!-- Generated by graphviz version 10.0.1 (20240210.2158)
 -->
<!-- Title: _zrtos_vfs_module_spi_sync_file_t Pages: 1 -->
<svg width="246pt" height="120pt"
 viewBox="0.00 0.00 246.12 120.00" xmlns="http://www.w3.org/2000/svg" xmlns:xlink="http://www.w3.org/1999/xlink">
<g id="graph0" class="graph" transform="scale(1 1) rotate(0) translate(4 116)">
<title>_zrtos_vfs_module_spi_sync_file_t</title>
<!-- Node1 -->
<g id="Node000001" class="node">
<title>Node1</title>
<g id="a_Node000001"><a xlink:title=" ">
<polygon fill="#999999" stroke="#666666" points="175.62,-32 61.37,-32 61.37,0 175.62,0 175.62,-32"/>
<text text-anchor="start" x="69.38" y="-18.5" font-family="Helvetica,sans-Serif" font-size="10.00">_zrtos_vfs_module_spi</text>
<text text-anchor="middle" x="118.5" y="-6.5" font-family="Helvetica,sans-Serif" font-size="10.00">_sync_file_t</text>
</a>
</g>
</g>
<!-- Node2 -->
<g id="Node000002" class="node">
<title>Node2</title>
<g id="a_Node000002"><a xlink:title=" ">
<polygon fill="white" stroke="#666666" points="109,-112 0,-112 0,-80 109,-80 109,-112"/>
<text text-anchor="start" x="8" y="-98.5" font-family="Helvetica,sans-Serif" font-size="10.00">zrtos_vfs_module_spi</text>
<text text-anchor="middle" x="54.5" y="-86.5" font-family="Helvetica,sans-Serif" font-size="10.00">_sync_control_t</text>
</a>
</g>
</g>
<!-- Node2&#45;&gt;Node1 -->
<g id="edge1_Node000001_Node000002" class="edge">
<title>Node2&#45;&gt;Node1</title>
<g id="a_edge1_Node000001_Node000002"><a xlink:title=" ">
<path fill="none" stroke="#9a32cd" stroke-dasharray="5,2" d="M74.22,-70.96C84.54,-58.39 96.86,-43.37 105.88,-32.38"/>
<polygon fill="#9a32cd" stroke="#9a32cd" points="71.74,-68.47 68.1,-78.42 77.15,-72.91 71.74,-68.47"/>
</a>
</g>
<text text-anchor="middle" x="106.62" y="-52.5" font-family="Helvetica,sans-Serif" font-size="10.00" fill="grey"> control</text>
</g>
<!-- Node3 -->
<g id="Node000003" class="node">
<title>Node3</title>
<g id="a_Node000003"><a xlink:title=" ">
<polygon fill="white" stroke="#666666" points="238.12,-106 126.88,-106 126.88,-86 238.12,-86 238.12,-106"/>
<text text-anchor="middle" x="182.5" y="-92.5" font-family="Helvetica,sans-Serif" font-size="10.00">zrtos_arch_gpio_pin_t</text>
</a>
</g>
</g>
<!-- Node3&#45;&gt;Node1 -->
<g id="edge2_Node000001_Node000003" class="edge">
<title>Node3&#45;&gt;Node1</title>
<g id="a_edge2_Node000001_Node000003"><a xlink:title=" ">
<path fill="none" stroke="#9a32cd" stroke-dasharray="5,2" d="M167.66,-76.91C156.6,-63.43 141.65,-45.21 131.15,-32.42"/>
<polygon fill="#9a32cd" stroke="#9a32cd" points="164.9,-79.07 173.95,-84.58 170.31,-74.63 164.9,-79.07"/>
</a>
</g>
<text text-anchor="middle" x="169.25" y="-52.5" font-family="Helvetica,sans-Serif" font-size="10.00" fill="grey"> pin_cs</text>
</g>
</g>
</svg>
