<?xml version="1.0" encoding="UTF-8" standalone="no"?>
<!DOCTYPE svg PUBLIC "-//W3C//DTD SVG 1.1//EN"
 "http://www.w3.org/Graphics/SVG/1.1/DTD/svg11.dtd">
<!-- Generated by graphviz version 10.0.1 (20240210.2158)
 -->
<!-- Title: _zrtos_vfs_notify_entry_t Pages: 1 -->
<svg width="337pt" height="232pt"
 viewBox="0.00 0.00 337.00 232.00" xmlns="http://www.w3.org/2000/svg" xmlns:xlink="http://www.w3.org/1999/xlink">
<g id="graph0" class="graph" transform="scale(1 1) rotate(0) translate(4 228)">
<title>_zrtos_vfs_notify_entry_t</title>
<!-- Node1 -->
<g id="Node000001" class="node">
<title>Node1</title>
<g id="a_Node000001"><a xlink:title=" ">
<polygon fill="#999999" stroke="#666666" points="123.25,-88 0,-88 0,-68 123.25,-68 123.25,-88"/>
<text text-anchor="middle" x="61.62" y="-74.5" font-family="Helvetica,sans-Serif" font-size="10.00">_zrtos_vfs_notify_entry_t</text>
</a>
</g>
</g>
<!-- Node2 -->
<g id="Node000002" class="node">
<title>Node2</title>
<g id="a_Node000002"><a xlink:href="struct__zrtos__vfs__notify__t.html" target="_top" xlink:title=" ">
<polygon fill="white" stroke="#666666" points="194.75,-20 98.5,-20 98.5,0 194.75,0 194.75,-20"/>
<text text-anchor="middle" x="146.62" y="-6.5" font-family="Helvetica,sans-Serif" font-size="10.00">_zrtos_vfs_notify_t</text>
</a>
</g>
</g>
<!-- Node1&#45;&gt;Node2 -->
<g id="edge5_Node000002_Node000001" class="edge">
<title>Node1&#45;&gt;Node2</title>
<g id="a_edge5_Node000002_Node000001"><a xlink:title=" ">
<path fill="none" stroke="#9a32cd" stroke-dasharray="5,2" d="M62.62,-56.73C63.86,-50.09 66.29,-43.12 70.88,-38 78.14,-29.89 88.01,-24.22 98.23,-20.24"/>
<polygon fill="#9a32cd" stroke="#9a32cd" points="59.17,-56.01 61.59,-66.32 66.13,-56.75 59.17,-56.01"/>
</a>
</g>
<text text-anchor="middle" x="82.5" y="-40.5" font-family="Helvetica,sans-Serif" font-size="10.00" fill="grey"> data</text>
</g>
<!-- Node2&#45;&gt;Node1 -->
<g id="edge1_Node000001_Node000002" class="edge">
<title>Node2&#45;&gt;Node1</title>
<g id="a_edge1_Node000001_Node000002"><a xlink:title=" ">
<path fill="none" stroke="#9a32cd" stroke-dasharray="5,2" d="M125.64,-27.29C109.34,-39.95 87.31,-57.06 73.8,-67.54"/>
<polygon fill="#9a32cd" stroke="#9a32cd" points="127.52,-30.26 133.27,-21.37 123.23,-24.74 127.52,-30.26"/>
</a>
</g>
<text text-anchor="middle" x="132.12" y="-40.5" font-family="Helvetica,sans-Serif" font-size="10.00" fill="grey"> callback</text>
</g>
<!-- Node3 -->
<g id="Node000003" class="node">
<title>Node3</title>
<g id="a_Node000003"><a xlink:href="struct__zrtos__vfs__fd__set__t.html" target="_top" xlink:title=" ">
<polygon fill="white" stroke="#666666" points="240.25,-88 141,-88 141,-68 240.25,-68 240.25,-88"/>
<text text-anchor="middle" x="190.62" y="-74.5" font-family="Helvetica,sans-Serif" font-size="10.00">_zrtos_vfs_fd_set_t</text>
</a>
</g>
</g>
<!-- Node3&#45;&gt;Node2 -->
<g id="edge2_Node000002_Node000003" class="edge">
<title>Node3&#45;&gt;Node2</title>
<g id="a_edge2_Node000002_Node000003"><a xlink:title=" ">
<path fill="none" stroke="#9a32cd" stroke-dasharray="5,2" d="M178.06,-58.15C169.84,-45.82 159.45,-30.23 152.92,-20.44"/>
<polygon fill="#9a32cd" stroke="#9a32cd" points="175.02,-59.91 183.48,-66.28 180.85,-56.02 175.02,-59.91"/>
</a>
</g>
<text text-anchor="middle" x="183.62" y="-40.5" font-family="Helvetica,sans-Serif" font-size="10.00" fill="grey"> fdset</text>
</g>
<!-- Node4 -->
<g id="Node000004" class="node">
<title>Node4</title>
<g id="a_Node000004"><a xlink:href="structzrtos__bitfield__t.html" target="_top" xlink:title=" ">
<polygon fill="white" stroke="#666666" points="230.12,-156 151.12,-156 151.12,-136 230.12,-136 230.12,-156"/>
<text text-anchor="middle" x="190.62" y="-142.5" font-family="Helvetica,sans-Serif" font-size="10.00">zrtos_bitfield_t</text>
</a>
</g>
</g>
<!-- Node4&#45;&gt;Node3 -->
<g id="edge3_Node000003_Node000004" class="edge">
<title>Node4&#45;&gt;Node3</title>
<g id="a_edge3_Node000003_Node000004"><a xlink:title=" ">
<path fill="none" stroke="#9a32cd" stroke-dasharray="5,2" d="M190.62,-124.28C190.62,-112.27 190.62,-97.74 190.62,-88.44"/>
<polygon fill="#9a32cd" stroke="#9a32cd" points="187.13,-124.03 190.63,-134.03 194.13,-124.03 187.13,-124.03"/>
</a>
</g>
<text text-anchor="middle" x="209" y="-108.5" font-family="Helvetica,sans-Serif" font-size="10.00" fill="grey"> fds_bits</text>
</g>
<!-- Node5 -->
<g id="Node000005" class="node">
<title>Node5</title>
<g id="a_Node000005"><a xlink:title=" ">
<polygon fill="white" stroke="#666666" points="213.25,-224 168,-224 168,-204 213.25,-204 213.25,-224"/>
<text text-anchor="middle" x="190.62" y="-210.5" font-family="Helvetica,sans-Serif" font-size="10.00">uint8_t</text>
</a>
</g>
</g>
<!-- Node5&#45;&gt;Node4 -->
<g id="edge4_Node000004_Node000005" class="edge">
<title>Node5&#45;&gt;Node4</title>
<g id="a_edge4_Node000004_Node000005"><a xlink:title=" ">
<path fill="none" stroke="#9a32cd" stroke-dasharray="5,2" d="M190.62,-192.28C190.62,-180.27 190.62,-165.74 190.62,-156.44"/>
<polygon fill="#9a32cd" stroke="#9a32cd" points="187.13,-192.03 190.63,-202.03 194.13,-192.03 187.13,-192.03"/>
</a>
</g>
<text text-anchor="middle" x="197.75" y="-176.5" font-family="Helvetica,sans-Serif" font-size="10.00" fill="grey"> val</text>
</g>
<!-- Node6 -->
<g id="Node000006" class="node">
<title>Node6</title>
<g id="a_Node000006"><a xlink:title=" ">
<polygon fill="white" stroke="#666666" points="329,-88 258.25,-88 258.25,-68 329,-68 329,-88"/>
<text text-anchor="middle" x="293.62" y="-74.5" font-family="Helvetica,sans-Serif" font-size="10.00">zrtos_error_t</text>
</a>
</g>
</g>
<!-- Node6&#45;&gt;Node2 -->
<g id="edge6_Node000002_Node000006" class="edge">
<title>Node6&#45;&gt;Node2</title>
<g id="a_edge6_Node000002_Node000006"><a xlink:title=" ">
<path fill="none" stroke="#9a32cd" stroke-dasharray="5,2" d="M262.32,-62.94C233.78,-50.13 192.41,-31.56 167.65,-20.44"/>
<polygon fill="#9a32cd" stroke="#9a32cd" points="260.63,-66.02 271.18,-66.92 263.49,-59.63 260.63,-66.02"/>
</a>
</g>
<text text-anchor="middle" x="243.88" y="-40.5" font-family="Helvetica,sans-Serif" font-size="10.00" fill="grey"> error</text>
</g>
</g>
</svg>
