<?xml version="1.0" encoding="UTF-8" standalone="no"?>
<!DOCTYPE svg PUBLIC "-//W3C//DTD SVG 1.1//EN"
 "http://www.w3.org/Graphics/SVG/1.1/DTD/svg11.dtd">
<!-- Generated by graphviz version 10.0.1 (20240210.2158)
 -->
<!-- Title: _zrtos_vfs_file_t Pages: 1 -->
<svg width="829pt" height="332pt"
 viewBox="0.00 0.00 829.00 332.00" xmlns="http://www.w3.org/2000/svg" xmlns:xlink="http://www.w3.org/1999/xlink">
<g id="graph0" class="graph" transform="scale(1 1) rotate(0) translate(4 328)">
<title>_zrtos_vfs_file_t</title>
<!-- Node1 -->
<g id="Node000001" class="node">
<title>Node1</title>
<g id="a_Node000001"><a xlink:title=" ">
<polygon fill="#999999" stroke="#666666" points="821,-130 736,-130 736,-110 821,-110 821,-130"/>
<text text-anchor="middle" x="778.5" y="-116.5" font-family="Helvetica,sans-Serif" font-size="10.00">_zrtos_vfs_file_t</text>
</a>
</g>
</g>
<!-- Node2 -->
<g id="Node000002" class="node">
<title>Node2</title>
<g id="a_Node000002"><a xlink:href="struct__zrtos__vfs__dentry__t.html" target="_top" xlink:title=" ">
<polygon fill="white" stroke="#666666" points="670,-130 570,-130 570,-110 670,-110 670,-130"/>
<text text-anchor="middle" x="620" y="-116.5" font-family="Helvetica,sans-Serif" font-size="10.00">_zrtos_vfs_dentry_t</text>
</a>
</g>
</g>
<!-- Node2&#45;&gt;Node1 -->
<g id="edge1_Node000001_Node000002" class="edge">
<title>Node2&#45;&gt;Node1</title>
<g id="a_edge1_Node000001_Node000002"><a xlink:title=" ">
<path fill="none" stroke="#9a32cd" stroke-dasharray="5,2" d="M681.46,-120C699.59,-120 719.06,-120 735.7,-120"/>
<polygon fill="#9a32cd" stroke="#9a32cd" points="681.6,-116.5 671.6,-120 681.6,-123.5 681.6,-116.5"/>
</a>
</g>
<text text-anchor="middle" x="703" y="-122.5" font-family="Helvetica,sans-Serif" font-size="10.00" fill="grey"> dentry</text>
</g>
<!-- Node2&#45;&gt;Node2 -->
<g id="edge5_Node000002_Node000002" class="edge">
<title>Node2&#45;&gt;Node2</title>
<g id="a_edge5_Node000002_Node000002"><a xlink:title=" ">
<path fill="none" stroke="#9a32cd" stroke-dasharray="5,2" d="M605.76,-141.77C607.73,-145.45 612.47,-148 620,-148 634.17,-148 638.48,-138.98 632.95,-130.34"/>
<polygon fill="#9a32cd" stroke="#9a32cd" points="609.24,-142.17 606.88,-131.84 602.28,-141.39 609.24,-142.17"/>
</a>
</g>
<text text-anchor="middle" x="620" y="-150.5" font-family="Helvetica,sans-Serif" font-size="10.00" fill="grey"> parent</text>
</g>
<!-- Node3 -->
<g id="Node000003" class="node">
<title>Node3</title>
<g id="a_Node000003"><a xlink:href="struct__zrtos__clist__node__t.html" target="_top" xlink:title=" ">
<polygon fill="white" stroke="#666666" points="507,-148 406.25,-148 406.25,-128 507,-128 507,-148"/>
<text text-anchor="middle" x="456.62" y="-134.5" font-family="Helvetica,sans-Serif" font-size="10.00">_zrtos_clist_node_t</text>
</a>
</g>
</g>
<!-- Node3&#45;&gt;Node2 -->
<g id="edge2_Node000002_Node000003" class="edge">
<title>Node3&#45;&gt;Node2</title>
<g id="a_edge2_Node000002_Node000003"><a xlink:title=" ">
<path fill="none" stroke="#9a32cd" stroke-dasharray="5,2" d="M518.78,-131.18C535.61,-129.3 553.64,-127.29 569.71,-125.5"/>
<polygon fill="#9a32cd" stroke="#9a32cd" points="518.41,-127.7 508.86,-132.28 519.19,-134.65 518.41,-127.7"/>
</a>
</g>
<text text-anchor="middle" x="538.5" y="-133.5" font-family="Helvetica,sans-Serif" font-size="10.00" fill="grey"> node</text>
</g>
<!-- Node3&#45;&gt;Node3 -->
<g id="edge3_Node000003_Node000003" class="edge">
<title>Node3&#45;&gt;Node3</title>
<g id="a_edge3_Node000003_Node000003"><a xlink:title=" ">
<path fill="none" stroke="#9a32cd" stroke-dasharray="5,2" d="M442.32,-159.77C444.3,-163.45 449.06,-166 456.62,-166 470.86,-166 475.19,-156.98 469.63,-148.34"/>
<polygon fill="#9a32cd" stroke="#9a32cd" points="445.8,-160.17 443.45,-149.84 438.84,-159.39 445.8,-160.17"/>
</a>
</g>
<text text-anchor="middle" x="456.62" y="-168.5" font-family="Helvetica,sans-Serif" font-size="10.00" fill="grey"> next</text>
</g>
<!-- Node4 -->
<g id="Node000004" class="node">
<title>Node4</title>
<g id="a_Node000004"><a xlink:title=" ">
<polygon fill="white" stroke="#666666" points="477.38,-110 435.88,-110 435.88,-90 477.38,-90 477.38,-110"/>
<text text-anchor="middle" x="456.62" y="-96.5" font-family="Helvetica,sans-Serif" font-size="10.00">char *</text>
</a>
</g>
</g>
<!-- Node4&#45;&gt;Node2 -->
<g id="edge4_Node000002_Node000004" class="edge">
<title>Node4&#45;&gt;Node2</title>
<g id="a_edge4_Node000002_Node000004"><a xlink:title=" ">
<path fill="none" stroke="#9a32cd" stroke-dasharray="5,2" d="M488.87,-103.87C511.82,-106.72 543.46,-110.64 569.79,-113.9"/>
<polygon fill="#9a32cd" stroke="#9a32cd" points="489.59,-100.44 479.24,-102.68 488.73,-107.38 489.59,-100.44"/>
</a>
</g>
<text text-anchor="middle" x="538.5" y="-114.5" font-family="Helvetica,sans-Serif" font-size="10.00" fill="grey"> name</text>
</g>
<!-- Node5 -->
<g id="Node000005" class="node">
<title>Node5</title>
<g id="a_Node000005"><a xlink:href="struct__zrtos__vfs__inode__t.html" target="_top" xlink:title=" ">
<polygon fill="white" stroke="#666666" points="504.75,-216 408.5,-216 408.5,-196 504.75,-196 504.75,-216"/>
<text text-anchor="middle" x="456.62" y="-202.5" font-family="Helvetica,sans-Serif" font-size="10.00">_zrtos_vfs_inode_t</text>
</a>
</g>
</g>
<!-- Node5&#45;&gt;Node2 -->
<g id="edge6_Node000002_Node000005" class="edge">
<title>Node5&#45;&gt;Node2</title>
<g id="a_edge6_Node000002_Node000005"><a xlink:title=" ">
<path fill="none" stroke="#9a32cd" stroke-dasharray="5,2" d="M497.86,-191.19C500.98,-189.83 504.06,-188.43 507,-187 542.85,-169.54 582.35,-144.42 603.53,-130.42"/>
<polygon fill="#9a32cd" stroke="#9a32cd" points="496.54,-187.95 488.62,-194.99 499.2,-194.42 496.54,-187.95"/>
</a>
</g>
<text text-anchor="middle" x="538.5" y="-179.5" font-family="Helvetica,sans-Serif" font-size="10.00" fill="grey"> inode</text>
</g>
<!-- Node6 -->
<g id="Node000006" class="node">
<title>Node6</title>
<g id="a_Node000006"><a xlink:href="structzrtos__vfs__plugin__t.html" target="_top" xlink:title=" ">
<polygon fill="white" stroke="#666666" points="341.75,-192 248.5,-192 248.5,-172 341.75,-172 341.75,-192"/>
<text text-anchor="middle" x="295.12" y="-178.5" font-family="Helvetica,sans-Serif" font-size="10.00">zrtos_vfs_plugin_t</text>
</a>
</g>
</g>
<!-- Node6&#45;&gt;Node5 -->
<g id="edge7_Node000005_Node000006" class="edge">
<title>Node6&#45;&gt;Node5</title>
<g id="a_edge7_Node000005_Node000006"><a xlink:title=" ">
<path fill="none" stroke="#9a32cd" stroke-dasharray="5,2" d="M353.26,-179.8C364.9,-180.14 377.02,-181.07 388.25,-183 402.87,-185.51 418.59,-190.72 431.16,-195.55"/>
<polygon fill="#9a32cd" stroke="#9a32cd" points="353.4,-176.3 343.35,-179.66 353.3,-183.3 353.4,-176.3"/>
</a>
</g>
<text text-anchor="middle" x="374" y="-185.5" font-family="Helvetica,sans-Serif" font-size="10.00" fill="grey"> plugin</text>
</g>
<!-- Node7 -->
<g id="Node000007" class="node">
<title>Node7</title>
<g id="a_Node000007"><a xlink:title=" ">
<polygon fill="white" stroke="#666666" points="141.62,-316 28.12,-316 28.12,-284 141.62,-284 141.62,-316"/>
<text text-anchor="start" x="36.12" y="-302.5" font-family="Helvetica,sans-Serif" font-size="10.00">zrtos_error_t(*)(struct</text>
<text text-anchor="middle" x="84.88" y="-290.5" font-family="Helvetica,sans-Serif" font-size="10.00"> _zrtos_vfs_file_t *thiz)</text>
</a>
</g>
</g>
<!-- Node7&#45;&gt;Node6 -->
<g id="edge8_Node000006_Node000007" class="edge">
<title>Node7&#45;&gt;Node6</title>
<g id="a_edge8_Node000006_Node000007"><a xlink:title=" ">
<path fill="none" stroke="#9a32cd" stroke-dasharray="5,2" d="M152.98,-289.17C179.82,-281.93 209.31,-269.9 230.5,-250 243.83,-237.48 236.53,-226.83 248.5,-213 255.64,-204.75 265.47,-197.69 274.18,-192.41"/>
<polygon fill="#9a32cd" stroke="#9a32cd" points="152.39,-285.71 143.54,-291.53 154.09,-292.5 152.39,-285.71"/>
</a>
</g>
<text text-anchor="middle" x="209.12" y="-314.5" font-family="Helvetica,sans-Serif" font-size="10.00" fill="grey"> can_read</text>
<text text-anchor="middle" x="209.12" y="-302.5" font-family="Helvetica,sans-Serif" font-size="10.00" fill="grey">can_write</text>
<text text-anchor="middle" x="209.12" y="-290.5" font-family="Helvetica,sans-Serif" font-size="10.00" fill="grey">close</text>
<text text-anchor="middle" x="209.12" y="-278.5" font-family="Helvetica,sans-Serif" font-size="10.00" fill="grey">open</text>
</g>
<!-- Node8 -->
<g id="Node000008" class="node">
<title>Node8</title>
<g id="a_Node000008"><a xlink:title=" ">
<polygon fill="white" stroke="#666666" points="149.12,-266 20.62,-266 20.62,-234 149.12,-234 149.12,-266"/>
<text text-anchor="start" x="28.62" y="-252.5" font-family="Helvetica,sans-Serif" font-size="10.00">zrtos_error_t(*)(struct</text>
<text text-anchor="middle" x="84.88" y="-240.5" font-family="Helvetica,sans-Serif" font-size="10.00"> _zrtos_vfs_dentry_t *thiz)</text>
</a>
</g>
</g>
<!-- Node8&#45;&gt;Node6 -->
<g id="edge9_Node000006_Node000008" class="edge">
<title>Node8&#45;&gt;Node6</title>
<g id="a_edge9_Node000006_Node000008"><a xlink:title=" ">
<path fill="none" stroke="#9a32cd" stroke-dasharray="5,2" d="M160.45,-231.59C183.15,-225.39 208.04,-218 230.5,-210 244.82,-204.9 260.46,-198.03 272.65,-192.38"/>
<polygon fill="#9a32cd" stroke="#9a32cd" points="159.71,-228.17 150.96,-234.14 161.52,-234.93 159.71,-228.17"/>
</a>
</g>
<text text-anchor="middle" x="209.12" y="-236.5" font-family="Helvetica,sans-Serif" font-size="10.00" fill="grey"> mount</text>
<text text-anchor="middle" x="209.12" y="-224.5" font-family="Helvetica,sans-Serif" font-size="10.00" fill="grey">umount</text>
</g>
<!-- Node9 -->
<g id="Node000009" class="node">
<title>Node9</title>
<g id="a_Node000009"><a xlink:title=" ">
<polygon fill="white" stroke="#666666" points="151.75,-216 18,-216 18,-148 151.75,-148 151.75,-216"/>
<text text-anchor="start" x="26" y="-202.5" font-family="Helvetica,sans-Serif" font-size="10.00">zrtos_error_t(*)(struct</text>
<text text-anchor="start" x="26" y="-190.5" font-family="Helvetica,sans-Serif" font-size="10.00"> _zrtos_vfs_file_t *thiz,</text>
<text text-anchor="start" x="26" y="-178.5" font-family="Helvetica,sans-Serif" font-size="10.00"> char *path, void *buf,</text>
<text text-anchor="start" x="26" y="-166.5" font-family="Helvetica,sans-Serif" font-size="10.00"> size_t len, zrtos_vfs_offset</text>
<text text-anchor="middle" x="84.88" y="-154.5" font-family="Helvetica,sans-Serif" font-size="10.00">_t offset, size_t *out)</text>
</a>
</g>
</g>
<!-- Node9&#45;&gt;Node6 -->
<g id="edge10_Node000006_Node000009" class="edge">
<title>Node9&#45;&gt;Node6</title>
<g id="a_edge10_Node000006_Node000009"><a xlink:title=" ">
<path fill="none" stroke="#9a32cd" stroke-dasharray="5,2" d="M163.26,-182C191.85,-182 223.31,-182 248.23,-182"/>
<polygon fill="#9a32cd" stroke="#9a32cd" points="163.57,-178.5 153.57,-182 163.57,-185.5 163.57,-178.5"/>
</a>
</g>
<text text-anchor="middle" x="209.12" y="-196.5" font-family="Helvetica,sans-Serif" font-size="10.00" fill="grey"> read</text>
<text text-anchor="middle" x="209.12" y="-184.5" font-family="Helvetica,sans-Serif" font-size="10.00" fill="grey">write</text>
</g>
<!-- Node10 -->
<g id="Node000010" class="node">
<title>Node10</title>
<g id="a_Node000010"><a xlink:title=" ">
<polygon fill="white" stroke="#666666" points="169.75,-130 0,-130 0,-74 169.75,-74 169.75,-130"/>
<text text-anchor="start" x="8" y="-116.5" font-family="Helvetica,sans-Serif" font-size="10.00">zrtos_error_t(*)(struct</text>
<text text-anchor="start" x="8" y="-104.5" font-family="Helvetica,sans-Serif" font-size="10.00"> _zrtos_vfs_file_t *thiz,</text>
<text text-anchor="start" x="8" y="-92.5" font-family="Helvetica,sans-Serif" font-size="10.00"> zrtos_vfs_offset_t offset,</text>
<text text-anchor="middle" x="84.88" y="-80.5" font-family="Helvetica,sans-Serif" font-size="10.00"> int whence, zrtos_vfs_offset_t *out)</text>
</a>
</g>
</g>
<!-- Node10&#45;&gt;Node6 -->
<g id="edge11_Node000006_Node000010" class="edge">
<title>Node10&#45;&gt;Node6</title>
<g id="a_edge11_Node000006_Node000010"><a xlink:title=" ">
<path fill="none" stroke="#9a32cd" stroke-dasharray="5,2" d="M170.47,-134.5C204.94,-147.74 242.38,-162.12 266.92,-171.55"/>
<polygon fill="#9a32cd" stroke="#9a32cd" points="171.89,-131.29 161.3,-130.97 169.38,-137.83 171.89,-131.29"/>
</a>
</g>
<text text-anchor="middle" x="209.12" y="-158.5" font-family="Helvetica,sans-Serif" font-size="10.00" fill="grey"> seek</text>
</g>
<!-- Node11 -->
<g id="Node000011" class="node">
<title>Node11</title>
<g id="a_Node000011"><a xlink:title=" ">
<polygon fill="white" stroke="#666666" points="143.88,-56 25.88,-56 25.88,0 143.88,0 143.88,-56"/>
<text text-anchor="start" x="33.88" y="-42.5" font-family="Helvetica,sans-Serif" font-size="10.00">zrtos_error_t(*)(struct</text>
<text text-anchor="start" x="33.88" y="-30.5" font-family="Helvetica,sans-Serif" font-size="10.00"> _zrtos_vfs_file_t *thiz,</text>
<text text-anchor="start" x="33.88" y="-18.5" font-family="Helvetica,sans-Serif" font-size="10.00"> char *path, int request,</text>
<text text-anchor="middle" x="84.88" y="-6.5" font-family="Helvetica,sans-Serif" font-size="10.00"> va_list args)</text>
</a>
</g>
</g>
<!-- Node11&#45;&gt;Node6 -->
<g id="edge12_Node000006_Node000011" class="edge">
<title>Node11&#45;&gt;Node6</title>
<g id="a_edge12_Node000006_Node000011"><a xlink:title=" ">
<path fill="none" stroke="#9a32cd" stroke-dasharray="5,2" d="M154,-55.65C159.46,-58.58 164.77,-61.7 169.75,-65 218.68,-97.42 266.32,-149.68 285.4,-171.7"/>
<polygon fill="#9a32cd" stroke="#9a32cd" points="155.93,-52.7 145.44,-51.27 152.75,-58.94 155.93,-52.7"/>
</a>
</g>
<text text-anchor="middle" x="209.12" y="-114.5" font-family="Helvetica,sans-Serif" font-size="10.00" fill="grey"> ioctl</text>
</g>
<!-- Node12 -->
<g id="Node000012" class="node">
<title>Node12</title>
<g id="a_Node000012"><a xlink:title=" ">
<polygon fill="white" stroke="#666666" points="314.75,-242 275.5,-242 275.5,-222 314.75,-222 314.75,-242"/>
<text text-anchor="middle" x="295.12" y="-228.5" font-family="Helvetica,sans-Serif" font-size="10.00">void *</text>
</a>
</g>
</g>
<!-- Node12&#45;&gt;Node1 -->
<g id="edge16_Node000001_Node000012" class="edge">
<title>Node12&#45;&gt;Node1</title>
<g id="a_edge16_Node000001_Node000012"><a xlink:title=" ">
<path fill="none" stroke="#9a32cd" stroke-dasharray="5,2" d="M326.68,-231.49C344.62,-231.16 367.72,-230.65 388.25,-230 441.05,-228.32 455.09,-234.79 507,-225 582.27,-210.8 598.84,-197.36 670,-169 700.48,-156.85 734.86,-140.75 756.35,-130.38"/>
<polygon fill="#9a32cd" stroke="#9a32cd" points="326.63,-227.99 316.7,-231.67 326.76,-234.99 326.63,-227.99"/>
</a>
</g>
<text text-anchor="middle" x="538.5" y="-223.5" font-family="Helvetica,sans-Serif" font-size="10.00" fill="grey"> ctx</text>
</g>
<!-- Node12&#45;&gt;Node5 -->
<g id="edge13_Node000005_Node000012" class="edge">
<title>Node12&#45;&gt;Node5</title>
<g id="a_edge13_Node000005_Node000012"><a xlink:title=" ">
<path fill="none" stroke="#9a32cd" stroke-dasharray="5,2" d="M326.41,-224.74C336.92,-222.38 348.82,-219.88 359.75,-218 375.45,-215.3 392.71,-212.95 408.19,-211.06"/>
<polygon fill="#9a32cd" stroke="#9a32cd" points="325.68,-221.32 316.72,-226.97 327.25,-228.14 325.68,-221.32"/>
</a>
</g>
<text text-anchor="middle" x="374" y="-220.5" font-family="Helvetica,sans-Serif" font-size="10.00" fill="grey"> ctx</text>
</g>
<!-- Node13 -->
<g id="Node000013" class="node">
<title>Node13</title>
<g id="a_Node000013"><a xlink:title=" ">
<polygon fill="white" stroke="#666666" points="481.88,-59 431.38,-59 431.38,-39 481.88,-39 481.88,-59"/>
<text text-anchor="middle" x="456.62" y="-45.5" font-family="Helvetica,sans-Serif" font-size="10.00">uint16_t</text>
</a>
</g>
</g>
<!-- Node13&#45;&gt;Node1 -->
<g id="edge15_Node000001_Node000013" class="edge">
<title>Node13&#45;&gt;Node1</title>
<g id="a_edge15_Node000001_Node000013"><a xlink:title=" ">
<path fill="none" stroke="#9a32cd" stroke-dasharray="5,2" d="M493.43,-54.68C535.82,-61.65 608.44,-74.36 670,-89 695.13,-94.98 723.17,-103.11 744.3,-109.55"/>
<polygon fill="#9a32cd" stroke="#9a32cd" points="494.24,-51.27 483.8,-53.11 493.11,-58.17 494.24,-51.27"/>
</a>
</g>
<text text-anchor="middle" x="620" y="-91.5" font-family="Helvetica,sans-Serif" font-size="10.00" fill="grey"> offset</text>
</g>
<!-- Node13&#45;&gt;Node2 -->
<g id="edge14_Node000002_Node000013" class="edge">
<title>Node13&#45;&gt;Node2</title>
<g id="a_edge14_Node000002_Node000013"><a xlink:title=" ">
<path fill="none" stroke="#9a32cd" stroke-dasharray="5,2" d="M491.81,-64.04C522.92,-77.73 568.05,-97.59 595.35,-109.6"/>
<polygon fill="#9a32cd" stroke="#9a32cd" points="493.38,-60.91 482.82,-60.09 490.57,-67.32 493.38,-60.91"/>
</a>
</g>
<text text-anchor="middle" x="538.5" y="-91.5" font-family="Helvetica,sans-Serif" font-size="10.00" fill="grey"> count</text>
</g>
</g>
</svg>
