<?xml version="1.0" encoding="UTF-8" standalone="no"?>
<!DOCTYPE svg PUBLIC "-//W3C//DTD SVG 1.1//EN"
 "http://www.w3.org/Graphics/SVG/1.1/DTD/svg11.dtd">
<!-- Generated by graphviz version 10.0.1 (20240210.2158)
 -->
<!-- Title: _zrtos_vheap_task_t Pages: 1 -->
<svg width="300pt" height="108pt"
 viewBox="0.00 0.00 300.00 108.00" xmlns="http://www.w3.org/2000/svg" xmlns:xlink="http://www.w3.org/1999/xlink">
<g id="graph0" class="graph" transform="scale(1 1) rotate(0) translate(4 104)">
<title>_zrtos_vheap_task_t</title>
<!-- Node1 -->
<g id="Node000001" class="node">
<title>Node1</title>
<g id="a_Node000001"><a xlink:title=" ">
<polygon fill="#999999" stroke="#666666" points="181.25,-20 76,-20 76,0 181.25,0 181.25,-20"/>
<text text-anchor="middle" x="128.62" y="-6.5" font-family="Helvetica,sans-Serif" font-size="10.00">_zrtos_vheap_task_t</text>
</a>
</g>
</g>
<!-- Node2 -->
<g id="Node000002" class="node">
<title>Node2</title>
<g id="a_Node000002"><a xlink:title=" ">
<polygon fill="white" stroke="#666666" points="45.25,-100 0,-100 0,-80 45.25,-80 45.25,-100"/>
<text text-anchor="middle" x="22.62" y="-86.5" font-family="Helvetica,sans-Serif" font-size="10.00">uint8_t</text>
</a>
</g>
</g>
<!-- Node2&#45;&gt;Node1 -->
<g id="edge1_Node000001_Node000002" class="edge">
<title>Node2&#45;&gt;Node1</title>
<g id="a_edge1_Node000001_Node000002"><a xlink:title=" ">
<path fill="none" stroke="#9a32cd" stroke-dasharray="5,2" d="M24.27,-68.67C26.12,-58.24 30.01,-46.07 38.12,-38 48.24,-27.94 61.93,-21.6 75.6,-17.61"/>
<polygon fill="#9a32cd" stroke="#9a32cd" points="20.83,-67.9 23.08,-78.25 27.78,-68.76 20.83,-67.9"/>
</a>
</g>
<text text-anchor="middle" x="60.38" y="-46.5" font-family="Helvetica,sans-Serif" font-size="10.00" fill="grey"> stack_ptr</text>
</g>
<!-- Node3 -->
<g id="Node000003" class="node">
<title>Node3</title>
<g id="a_Node000003"><a xlink:title=" ">
<polygon fill="white" stroke="#666666" points="109.25,-100 70,-100 70,-80 109.25,-80 109.25,-100"/>
<text text-anchor="middle" x="89.62" y="-86.5" font-family="Helvetica,sans-Serif" font-size="10.00">void *</text>
</a>
</g>
</g>
<!-- Node3&#45;&gt;Node1 -->
<g id="edge2_Node000001_Node000003" class="edge">
<title>Node3&#45;&gt;Node1</title>
<g id="a_edge2_Node000001_Node000003"><a xlink:title=" ">
<path fill="none" stroke="#9a32cd" stroke-dasharray="5,2" d="M86.06,-68.6C85.33,-58.82 85.98,-47.24 90.88,-38 94.8,-30.6 101.76,-24.75 108.65,-20.42"/>
<polygon fill="#9a32cd" stroke="#9a32cd" points="82.55,-68.75 87.3,-78.22 89.49,-67.86 82.55,-68.75"/>
</a>
</g>
<text text-anchor="middle" x="118" y="-46.5" font-family="Helvetica,sans-Serif" font-size="10.00" fill="grey"> return_value</text>
</g>
<!-- Node4 -->
<g id="Node000004" class="node">
<title>Node4</title>
<g id="a_Node000004"><a xlink:title=" ">
<polygon fill="white" stroke="#666666" points="192.88,-100 142.38,-100 142.38,-80 192.88,-80 192.88,-100"/>
<text text-anchor="middle" x="167.62" y="-86.5" font-family="Helvetica,sans-Serif" font-size="10.00">uint16_t</text>
</a>
</g>
</g>
<!-- Node4&#45;&gt;Node1 -->
<g id="edge3_Node000001_Node000004" class="edge">
<title>Node4&#45;&gt;Node1</title>
<g id="a_edge3_Node000001_Node000004"><a xlink:title=" ">
<path fill="none" stroke="#9a32cd" stroke-dasharray="5,2" d="M159.96,-69.3C156.02,-59.69 150.93,-48.07 145.62,-38 142.43,-31.92 138.34,-25.4 134.97,-20.28"/>
<polygon fill="#9a32cd" stroke="#9a32cd" points="156.62,-70.38 163.58,-78.37 163.12,-67.78 156.62,-70.38"/>
</a>
</g>
<text text-anchor="middle" x="189.62" y="-52.5" font-family="Helvetica,sans-Serif" font-size="10.00" fill="grey"> stacksize_min</text>
<text text-anchor="middle" x="189.62" y="-40.5" font-family="Helvetica,sans-Serif" font-size="10.00" fill="grey">ticks</text>
</g>
<!-- Node5 -->
<g id="Node000005" class="node">
<title>Node5</title>
<g id="a_Node000005"><a xlink:title=" ">
<polygon fill="white" stroke="#666666" points="292,-100 221.25,-100 221.25,-80 292,-80 292,-100"/>
<text text-anchor="middle" x="256.62" y="-86.5" font-family="Helvetica,sans-Serif" font-size="10.00">zrtos_error_t</text>
</a>
</g>
</g>
<!-- Node5&#45;&gt;Node1 -->
<g id="edge4_Node000001_Node000005" class="edge">
<title>Node5&#45;&gt;Node1</title>
<g id="a_edge4_Node000001_Node000005"><a xlink:title=" ">
<path fill="none" stroke="#9a32cd" stroke-dasharray="5,2" d="M249.26,-69.07C244.36,-58.41 236.92,-45.89 226.62,-38 213.67,-28.07 197.28,-21.79 181.63,-17.82"/>
<polygon fill="#9a32cd" stroke="#9a32cd" points="245.97,-70.28 253.01,-78.2 252.45,-67.62 245.97,-70.28"/>
</a>
</g>
<text text-anchor="middle" x="257" y="-46.5" font-family="Helvetica,sans-Serif" font-size="10.00" fill="grey"> errno</text>
</g>
</g>
</svg>
