<?xml version="1.0" encoding="UTF-8" standalone="no"?>
<!DOCTYPE svg PUBLIC "-//W3C//DTD SVG 1.1//EN"
 "http://www.w3.org/Graphics/SVG/1.1/DTD/svg11.dtd">
<!-- Generated by graphviz version 10.0.1 (20240210.2158)
 -->
<!-- Title: _zrtos_vm_value_t Pages: 1 -->
<svg width="466pt" height="506pt"
 viewBox="0.00 0.00 465.50 506.00" xmlns="http://www.w3.org/2000/svg" xmlns:xlink="http://www.w3.org/1999/xlink">
<g id="graph0" class="graph" transform="scale(1 1) rotate(0) translate(4 502)">
<title>_zrtos_vm_value_t</title>
<!-- Node1 -->
<g id="Node000001" class="node">
<title>Node1</title>
<g id="a_Node000001"><a xlink:title=" ">
<polygon fill="#999999" stroke="#666666" points="457.5,-248 362,-248 362,-228 457.5,-228 457.5,-248"/>
<text text-anchor="middle" x="409.75" y="-234.5" font-family="Helvetica,sans-Serif" font-size="10.00">_zrtos_vm_value_t</text>
</a>
</g>
</g>
<!-- Node2 -->
<g id="Node000002" class="node">
<title>Node2</title>
<g id="a_Node000002"><a xlink:title=" ">
<polygon fill="white" stroke="#666666" points="257.38,-498 212.12,-498 212.12,-478 257.38,-478 257.38,-498"/>
<text text-anchor="middle" x="234.75" y="-484.5" font-family="Helvetica,sans-Serif" font-size="10.00">uint8_t</text>
</a>
</g>
</g>
<!-- Node2&#45;&gt;Node1 -->
<g id="edge1_Node000001_Node000002" class="edge">
<title>Node2&#45;&gt;Node1</title>
<g id="a_edge1_Node000001_Node000002"><a xlink:title=" ">
<path fill="none" stroke="#9a32cd" stroke-dasharray="5,2" d="M268.79,-488.43C292.64,-486.96 324.03,-481.07 344,-462 407.22,-401.6 409.85,-283.66 409.13,-248.27"/>
<polygon fill="#9a32cd" stroke="#9a32cd" points="268.82,-484.93 258.95,-488.79 269.07,-491.92 268.82,-484.93"/>
</a>
</g>
<text text-anchor="middle" x="325.25" y="-483.5" font-family="Helvetica,sans-Serif" font-size="10.00" fill="grey"> v_u8</text>
</g>
<!-- Node3 -->
<g id="Node000003" class="node">
<title>Node3</title>
<g id="a_Node000003"><a xlink:title=" ">
<polygon fill="white" stroke="#666666" points="79,-449 28.5,-449 28.5,-429 79,-429 79,-449"/>
<text text-anchor="middle" x="53.75" y="-435.5" font-family="Helvetica,sans-Serif" font-size="10.00">uint16_t</text>
</a>
</g>
</g>
<!-- Node3&#45;&gt;Node1 -->
<g id="edge2_Node000001_Node000003" class="edge">
<title>Node3&#45;&gt;Node1</title>
<g id="a_edge2_Node000001_Node000003"><a xlink:title=" ">
<path fill="none" stroke="#9a32cd" stroke-dasharray="5,2" d="M90.89,-441.9C137.86,-444.42 221.77,-444.55 288.5,-421 316.22,-411.21 324.94,-407.39 344,-385 380.87,-341.68 400.1,-274.05 406.38,-248.37"/>
<polygon fill="#9a32cd" stroke="#9a32cd" points="91.2,-438.42 81.01,-441.3 90.77,-445.4 91.2,-438.42"/>
</a>
</g>
<text text-anchor="middle" x="234.75" y="-443.5" font-family="Helvetica,sans-Serif" font-size="10.00" fill="grey"> v_u16</text>
</g>
<!-- Node14 -->
<g id="Node000014" class="node">
<title>Node14</title>
<g id="a_Node000014"><a xlink:href="struct__zrtos__vm__io__source__address__t.html" target="_top" xlink:title=" ">
<polygon fill="white" stroke="#666666" points="288.5,-412 181,-412 181,-380 288.5,-380 288.5,-412"/>
<text text-anchor="start" x="189" y="-398.5" font-family="Helvetica,sans-Serif" font-size="10.00">_zrtos_vm_io_source</text>
<text text-anchor="middle" x="234.75" y="-386.5" font-family="Helvetica,sans-Serif" font-size="10.00">_address_t</text>
</a>
</g>
</g>
<!-- Node3&#45;&gt;Node14 -->
<g id="edge14_Node000014_Node000003" class="edge">
<title>Node3&#45;&gt;Node14</title>
<g id="a_edge14_Node000014_Node000003"><a xlink:title=" ">
<path fill="none" stroke="#9a32cd" stroke-dasharray="5,2" d="M90.38,-430.44C116.16,-424.25 151.43,-415.78 180.54,-408.78"/>
<polygon fill="#9a32cd" stroke="#9a32cd" points="89.64,-427.02 80.74,-432.76 91.28,-433.82 89.64,-427.02"/>
</a>
</g>
<text text-anchor="middle" x="144.25" y="-423.5" font-family="Helvetica,sans-Serif" font-size="10.00" fill="grey"> address</text>
</g>
<!-- Node4 -->
<g id="Node000004" class="node">
<title>Node4</title>
<g id="a_Node000004"><a xlink:title=" ">
<polygon fill="white" stroke="#666666" points="260,-362 209.5,-362 209.5,-342 260,-342 260,-362"/>
<text text-anchor="middle" x="234.75" y="-348.5" font-family="Helvetica,sans-Serif" font-size="10.00">uint32_t</text>
</a>
</g>
</g>
<!-- Node4&#45;&gt;Node1 -->
<g id="edge3_Node000001_Node000004" class="edge">
<title>Node4&#45;&gt;Node1</title>
<g id="a_edge3_Node000001_Node000004"><a xlink:title=" ">
<path fill="none" stroke="#9a32cd" stroke-dasharray="5,2" d="M271.2,-342.69C293.45,-335.73 321.99,-324.7 344,-309 368.44,-291.56 390.52,-263.54 401.48,-248.45"/>
<polygon fill="#9a32cd" stroke="#9a32cd" points="270.24,-339.32 261.65,-345.52 272.23,-346.03 270.24,-339.32"/>
</a>
</g>
<text text-anchor="middle" x="325.25" y="-332.5" font-family="Helvetica,sans-Serif" font-size="10.00" fill="grey"> v_u32</text>
</g>
<!-- Node5 -->
<g id="Node000005" class="node">
<title>Node5</title>
<g id="a_Node000005"><a xlink:title=" ">
<polygon fill="white" stroke="#666666" points="260,-324 209.5,-324 209.5,-304 260,-304 260,-324"/>
<text text-anchor="middle" x="234.75" y="-310.5" font-family="Helvetica,sans-Serif" font-size="10.00">uint64_t</text>
</a>
</g>
</g>
<!-- Node5&#45;&gt;Node1 -->
<g id="edge4_Node000001_Node000005" class="edge">
<title>Node5&#45;&gt;Node1</title>
<g id="a_edge4_Node000001_Node000005"><a xlink:title=" ">
<path fill="none" stroke="#9a32cd" stroke-dasharray="5,2" d="M271.39,-304.42C292.9,-298.09 320.58,-288.95 344,-278 362.08,-269.55 381.35,-257.15 394.13,-248.4"/>
<polygon fill="#9a32cd" stroke="#9a32cd" points="270.55,-301.02 261.91,-307.14 272.48,-307.75 270.55,-301.02"/>
</a>
</g>
<text text-anchor="middle" x="325.25" y="-295.5" font-family="Helvetica,sans-Serif" font-size="10.00" fill="grey"> v_u64</text>
</g>
<!-- Node6 -->
<g id="Node000006" class="node">
<title>Node6</title>
<g id="a_Node000006"><a xlink:title=" ">
<polygon fill="white" stroke="#666666" points="254.75,-286 214.75,-286 214.75,-266 254.75,-266 254.75,-286"/>
<text text-anchor="middle" x="234.75" y="-272.5" font-family="Helvetica,sans-Serif" font-size="10.00">int8_t</text>
</a>
</g>
</g>
<!-- Node6&#45;&gt;Node1 -->
<g id="edge5_Node000001_Node000006" class="edge">
<title>Node6&#45;&gt;Node1</title>
<g id="a_edge5_Node000001_Node000006"><a xlink:title=" ">
<path fill="none" stroke="#9a32cd" stroke-dasharray="5,2" d="M266.12,-270.18C287.86,-265.93 317.79,-259.9 344,-254 351.68,-252.27 359.85,-250.33 367.71,-248.42"/>
<polygon fill="#9a32cd" stroke="#9a32cd" points="265.6,-266.72 256.45,-272.06 266.93,-273.59 265.6,-266.72"/>
</a>
</g>
<text text-anchor="middle" x="325.25" y="-264.5" font-family="Helvetica,sans-Serif" font-size="10.00" fill="grey"> v_s8</text>
</g>
<!-- Node7 -->
<g id="Node000007" class="node">
<title>Node7</title>
<g id="a_Node000007"><a xlink:title=" ">
<polygon fill="white" stroke="#666666" points="257.38,-248 212.12,-248 212.12,-228 257.38,-228 257.38,-248"/>
<text text-anchor="middle" x="234.75" y="-234.5" font-family="Helvetica,sans-Serif" font-size="10.00">int16_t</text>
</a>
</g>
</g>
<!-- Node7&#45;&gt;Node1 -->
<g id="edge6_Node000001_Node000007" class="edge">
<title>Node7&#45;&gt;Node1</title>
<g id="a_edge6_Node000001_Node000007"><a xlink:title=" ">
<path fill="none" stroke="#9a32cd" stroke-dasharray="5,2" d="M268.91,-238C295.2,-238 332.26,-238 361.62,-238"/>
<polygon fill="#9a32cd" stroke="#9a32cd" points="269.17,-234.5 259.17,-238 269.17,-241.5 269.17,-234.5"/>
</a>
</g>
<text text-anchor="middle" x="325.25" y="-240.5" font-family="Helvetica,sans-Serif" font-size="10.00" fill="grey"> v_s16</text>
</g>
<!-- Node8 -->
<g id="Node000008" class="node">
<title>Node8</title>
<g id="a_Node000008"><a xlink:title=" ">
<polygon fill="white" stroke="#666666" points="257.38,-210 212.12,-210 212.12,-190 257.38,-190 257.38,-210"/>
<text text-anchor="middle" x="234.75" y="-196.5" font-family="Helvetica,sans-Serif" font-size="10.00">int32_t</text>
</a>
</g>
</g>
<!-- Node8&#45;&gt;Node1 -->
<g id="edge7_Node000001_Node000008" class="edge">
<title>Node8&#45;&gt;Node1</title>
<g id="a_edge7_Node000001_Node000008"><a xlink:title=" ">
<path fill="none" stroke="#9a32cd" stroke-dasharray="5,2" d="M268.92,-206.37C290.38,-210.58 318.9,-216.35 344,-222 351.68,-223.73 359.85,-225.67 367.71,-227.58"/>
<polygon fill="#9a32cd" stroke="#9a32cd" points="269.75,-202.97 259.27,-204.49 268.42,-209.84 269.75,-202.97"/>
</a>
</g>
<text text-anchor="middle" x="325.25" y="-224.5" font-family="Helvetica,sans-Serif" font-size="10.00" fill="grey"> v_s32</text>
</g>
<!-- Node9 -->
<g id="Node000009" class="node">
<title>Node9</title>
<g id="a_Node000009"><a xlink:title=" ">
<polygon fill="white" stroke="#666666" points="257.38,-172 212.12,-172 212.12,-152 257.38,-152 257.38,-172"/>
<text text-anchor="middle" x="234.75" y="-158.5" font-family="Helvetica,sans-Serif" font-size="10.00">int64_t</text>
</a>
</g>
</g>
<!-- Node9&#45;&gt;Node1 -->
<g id="edge8_Node000001_Node000009" class="edge">
<title>Node9&#45;&gt;Node1</title>
<g id="a_edge8_Node000001_Node000009"><a xlink:title=" ">
<path fill="none" stroke="#9a32cd" stroke-dasharray="5,2" d="M268.85,-171.31C290.65,-177.92 319.58,-187.63 344,-199 361.73,-207.25 380.75,-219.11 393.56,-227.58"/>
<polygon fill="#9a32cd" stroke="#9a32cd" points="269.88,-167.96 259.3,-168.48 267.89,-174.68 269.88,-167.96"/>
</a>
</g>
<text text-anchor="middle" x="325.25" y="-201.5" font-family="Helvetica,sans-Serif" font-size="10.00" fill="grey"> v_s64</text>
</g>
<!-- Node10 -->
<g id="Node000010" class="node">
<title>Node10</title>
<g id="a_Node000010"><a xlink:title=" ">
<polygon fill="white" stroke="#666666" points="251.75,-134 217.75,-134 217.75,-114 251.75,-114 251.75,-134"/>
<text text-anchor="middle" x="234.75" y="-120.5" font-family="Helvetica,sans-Serif" font-size="10.00">float</text>
</a>
</g>
</g>
<!-- Node10&#45;&gt;Node1 -->
<g id="edge9_Node000001_Node000010" class="edge">
<title>Node10&#45;&gt;Node1</title>
<g id="a_edge9_Node000001_Node000010"><a xlink:title=" ">
<path fill="none" stroke="#9a32cd" stroke-dasharray="5,2" d="M262.73,-133.18C271.06,-136.15 280.21,-139.57 288.5,-143 313.67,-153.4 321.95,-153 344,-169 367.93,-186.36 390.22,-213.42 401.35,-227.96"/>
<polygon fill="#9a32cd" stroke="#9a32cd" points="264.08,-129.94 253.49,-129.94 261.77,-136.55 264.08,-129.94"/>
</a>
</g>
<text text-anchor="middle" x="325.25" y="-171.5" font-family="Helvetica,sans-Serif" font-size="10.00" fill="grey"> v_f32</text>
</g>
<!-- Node11 -->
<g id="Node000011" class="node">
<title>Node11</title>
<g id="a_Node000011"><a xlink:title=" ">
<polygon fill="white" stroke="#666666" points="257,-96 212.5,-96 212.5,-76 257,-76 257,-96"/>
<text text-anchor="middle" x="234.75" y="-82.5" font-family="Helvetica,sans-Serif" font-size="10.00">double</text>
</a>
</g>
</g>
<!-- Node11&#45;&gt;Node1 -->
<g id="edge10_Node000001_Node000011" class="edge">
<title>Node11&#45;&gt;Node1</title>
<g id="a_edge10_Node000001_Node000011"><a xlink:title=" ">
<path fill="none" stroke="#9a32cd" stroke-dasharray="5,2" d="M267.99,-94.48C291.36,-101.97 322.52,-114.89 344,-135 373.91,-163.01 395.67,-207.72 404.46,-227.73"/>
<polygon fill="#9a32cd" stroke="#9a32cd" points="269.25,-91.21 258.66,-91.67 267.22,-97.91 269.25,-91.21"/>
</a>
</g>
<text text-anchor="middle" x="325.25" y="-137.5" font-family="Helvetica,sans-Serif" font-size="10.00" fill="grey"> v_f64</text>
</g>
<!-- Node12 -->
<g id="Node000012" class="node">
<title>Node12</title>
<g id="a_Node000012"><a xlink:title=" ">
<polygon fill="white" stroke="#666666" points="280.25,-58 189.25,-58 189.25,-38 280.25,-38 280.25,-58"/>
<text text-anchor="middle" x="234.75" y="-44.5" font-family="Helvetica,sans-Serif" font-size="10.00">anonymous:value</text>
</a>
</g>
</g>
<!-- Node12&#45;&gt;Node1 -->
<g id="edge11_Node000001_Node000012" class="edge">
<title>Node12&#45;&gt;Node1</title>
<g id="a_edge11_Node000001_Node000012"><a xlink:title=" ">
<path fill="none" stroke="#9a32cd" stroke-dasharray="5,2" d="M291.34,-62.03C310.03,-69.06 329.74,-79.3 344,-94 382.94,-134.13 400.94,-201.75 406.64,-227.56"/>
<polygon fill="#9a32cd" stroke="#9a32cd" points="292.52,-58.74 281.93,-58.76 290.22,-65.35 292.52,-58.74"/>
</a>
</g>
<text text-anchor="middle" x="325.25" y="-96.5" font-family="Helvetica,sans-Serif" font-size="10.00" fill="grey"> value</text>
</g>
<!-- Node13 -->
<g id="Node000013" class="node">
<title>Node13</title>
<g id="a_Node000013"><a xlink:title=" ">
<polygon fill="white" stroke="#666666" points="284.75,-20 184.75,-20 184.75,0 284.75,0 284.75,-20"/>
<text text-anchor="middle" x="234.75" y="-6.5" font-family="Helvetica,sans-Serif" font-size="10.00">zrtos_vm_io_type_t</text>
</a>
</g>
</g>
<!-- Node13&#45;&gt;Node1 -->
<g id="edge12_Node000001_Node000013" class="edge">
<title>Node13&#45;&gt;Node1</title>
<g id="a_edge12_Node000001_Node000013"><a xlink:title=" ">
<path fill="none" stroke="#9a32cd" stroke-dasharray="5,2" d="M295.84,-23.32C313.33,-29.76 331.16,-39.21 344,-53 392.92,-105.55 405.19,-197.15 407.99,-227.73"/>
<polygon fill="#9a32cd" stroke="#9a32cd" points="297.07,-20.04 286.48,-20.17 294.84,-26.68 297.07,-20.04"/>
</a>
</g>
<text text-anchor="middle" x="325.25" y="-55.5" font-family="Helvetica,sans-Serif" font-size="10.00" fill="grey"> type</text>
</g>
<!-- Node14&#45;&gt;Node1 -->
<g id="edge13_Node000001_Node000014" class="edge">
<title>Node14&#45;&gt;Node1</title>
<g id="a_edge13_Node000001_Node000014"><a xlink:title=" ">
<path fill="none" stroke="#9a32cd" stroke-dasharray="5,2" d="M297.26,-375.23C313.66,-367.74 330.54,-358.08 344,-346 375.88,-317.37 396.9,-269.27 405,-248.3"/>
<polygon fill="#9a32cd" stroke="#9a32cd" points="296.33,-371.82 288.54,-379 299.11,-378.24 296.33,-371.82"/>
</a>
</g>
<text text-anchor="middle" x="325.25" y="-371.5" font-family="Helvetica,sans-Serif" font-size="10.00" fill="grey"> address</text>
</g>
<!-- Node15 -->
<g id="Node000015" class="node">
<title>Node15</title>
<g id="a_Node000015"><a xlink:title=" ">
<polygon fill="white" stroke="#666666" points="107.5,-402 0,-402 0,-370 107.5,-370 107.5,-402"/>
<text text-anchor="start" x="8" y="-388.5" font-family="Helvetica,sans-Serif" font-size="10.00">zrtos_vm_io_address</text>
<text text-anchor="middle" x="53.75" y="-376.5" font-family="Helvetica,sans-Serif" font-size="10.00">_type_t</text>
</a>
</g>
</g>
<!-- Node15&#45;&gt;Node14 -->
<g id="edge15_Node000014_Node000015" class="edge">
<title>Node15&#45;&gt;Node14</title>
<g id="a_edge15_Node000014_Node000015"><a xlink:title=" ">
<path fill="none" stroke="#9a32cd" stroke-dasharray="5,2" d="M119.28,-385.36C133.68,-385.56 148.87,-386.04 163,-387 168.68,-387.39 174.61,-387.92 180.5,-388.55"/>
<polygon fill="#9a32cd" stroke="#9a32cd" points="119.48,-381.86 109.44,-385.26 119.41,-388.86 119.48,-381.86"/>
</a>
</g>
<text text-anchor="middle" x="144.25" y="-389.5" font-family="Helvetica,sans-Serif" font-size="10.00" fill="grey"> type</text>
</g>
</g>
</svg>
