<?xml version="1.0" encoding="UTF-8" standalone="no"?>
<!DOCTYPE svg PUBLIC "-//W3C//DTD SVG 1.1//EN"
 "http://www.w3.org/Graphics/SVG/1.1/DTD/svg11.dtd">
<!-- Generated by graphviz version 10.0.1 (20240210.2158)
 -->
<!-- Title: _zrtos_clist_t Pages: 1 -->
<svg width="149pt" height="96pt"
 viewBox="0.00 0.00 148.50 96.00" xmlns="http://www.w3.org/2000/svg" xmlns:xlink="http://www.w3.org/1999/xlink">
<g id="graph0" class="graph" transform="scale(1 1) rotate(0) translate(4 92)">
<title>_zrtos_clist_t</title>
<!-- Node1 -->
<g id="Node000001" class="node">
<title>Node1</title>
<g id="a_Node000001"><a xlink:title=" ">
<polygon fill="#999999" stroke="#666666" points="87.62,-20 13.12,-20 13.12,0 87.62,0 87.62,-20"/>
<text text-anchor="middle" x="50.38" y="-6.5" font-family="Helvetica,sans-Serif" font-size="10.00">_zrtos_clist_t</text>
</a>
</g>
</g>
<!-- Node2 -->
<g id="Node000002" class="node">
<title>Node2</title>
<g id="a_Node000002"><a xlink:href="struct__zrtos__clist__node__t.html" target="_top" xlink:title=" ">
<polygon fill="white" stroke="#666666" points="100.75,-88 0,-88 0,-68 100.75,-68 100.75,-88"/>
<text text-anchor="middle" x="50.38" y="-74.5" font-family="Helvetica,sans-Serif" font-size="10.00">_zrtos_clist_node_t</text>
</a>
</g>
</g>
<!-- Node2&#45;&gt;Node1 -->
<g id="edge1_Node000001_Node000002" class="edge">
<title>Node2&#45;&gt;Node1</title>
<g id="a_edge1_Node000001_Node000002"><a xlink:title=" ">
<path fill="none" stroke="#9a32cd" stroke-dasharray="5,2" d="M50.38,-56.28C50.38,-44.27 50.38,-29.74 50.38,-20.44"/>
<polygon fill="#9a32cd" stroke="#9a32cd" points="46.88,-56.03 50.38,-66.03 53.88,-56.03 46.88,-56.03"/>
</a>
</g>
<text text-anchor="middle" x="60.12" y="-40.5" font-family="Helvetica,sans-Serif" font-size="10.00" fill="grey"> root</text>
</g>
<!-- Node2&#45;&gt;Node2 -->
<g id="edge2_Node000002_Node000002" class="edge">
<title>Node2&#45;&gt;Node2</title>
<g id="a_edge2_Node000002_Node000002"><a xlink:title=" ">
<path fill="none" stroke="#9a32cd" stroke-dasharray="5,2" d="M112.21,-82.55C116.28,-81.49 118.75,-79.98 118.75,-78 118.75,-74.58 111.37,-72.54 101.07,-71.87"/>
<polygon fill="#9a32cd" stroke="#9a32cd" points="111.97,-79.05 102.56,-83.92 112.96,-85.98 111.97,-79.05"/>
</a>
</g>
<text text-anchor="middle" x="129.62" y="-74.5" font-family="Helvetica,sans-Serif" font-size="10.00" fill="grey"> next</text>
</g>
</g>
</svg>
