<?xml version="1.0" encoding="UTF-8" standalone="no"?>
<!DOCTYPE svg PUBLIC "-//W3C//DTD SVG 1.1//EN"
 "http://www.w3.org/Graphics/SVG/1.1/DTD/svg11.dtd">
<!-- Generated by graphviz version 2.40.1 (20161225.0304)
 -->
<!-- Title: zrtos_vfs_module_dns_query_t Pages: 1 -->
<svg width="123pt" height="117pt"
 viewBox="0.00 0.00 123.00 117.00" xmlns="http://www.w3.org/2000/svg" xmlns:xlink="http://www.w3.org/1999/xlink">
<g id="graph0" class="graph" transform="scale(1 1) rotate(0) translate(4 113)">
<title>zrtos_vfs_module_dns_query_t</title>
<polygon fill="#ffffff" stroke="transparent" points="-4,4 -4,-113 119,-113 119,4 -4,4"/>
<!-- Node1 -->
<g id="node1" class="node">
<title>Node1</title>
<polygon fill="#bfbfbf" stroke="#000000" points="0,-.5 0,-30.5 115,-30.5 115,-.5 0,-.5"/>
<text text-anchor="start" x="8" y="-18.5" font-family="Helvetica,sans-Serif" font-size="10.00" fill="#000000">zrtos_vfs_module_dns</text>
<text text-anchor="middle" x="57.5" y="-7.5" font-family="Helvetica,sans-Serif" font-size="10.00" fill="#000000">_query_t</text>
</g>
<!-- Node2 -->
<g id="node2" class="node">
<title>Node2</title>
<polygon fill="#ffffff" stroke="#bfbfbf" points="37,-89.5 37,-108.5 78,-108.5 78,-89.5 37,-89.5"/>
<text text-anchor="middle" x="57.5" y="-96.5" font-family="Helvetica,sans-Serif" font-size="10.00" fill="#000000">u16_t</text>
</g>
<!-- Node2&#45;&gt;Node1 -->
<g id="edge1" class="edge">
<title>Node2&#45;&gt;Node1</title>
<path fill="none" stroke="#9a32cd" stroke-dasharray="5,2" d="M57.5,-79.2427C57.5,-64.345 57.5,-44.2186 57.5,-30.597"/>
<polygon fill="#9a32cd" stroke="#9a32cd" points="54.0001,-79.4215 57.5,-89.4215 61.0001,-79.4215 54.0001,-79.4215"/>
<text text-anchor="middle" x="67" y="-63" font-family="Helvetica,sans-Serif" font-size="10.00" fill="#000000"> cls</text>
<text text-anchor="middle" x="67" y="-52" font-family="Helvetica,sans-Serif" font-size="10.00" fill="#000000">type</text>
</g>
</g>
</svg>
