<?xml version="1.0" encoding="UTF-8" standalone="no"?>
<!DOCTYPE svg PUBLIC "-//W3C//DTD SVG 1.1//EN"
 "http://www.w3.org/Graphics/SVG/1.1/DTD/svg11.dtd">
<!-- Generated by graphviz version 10.0.1 (20240210.2158)
 -->
<!-- Title: _zrtos_vfs_module_modbus_rtu_inode_t Pages: 1 -->
<svg width="922pt" height="419pt"
 viewBox="0.00 0.00 922.00 419.00" xmlns="http://www.w3.org/2000/svg" xmlns:xlink="http://www.w3.org/1999/xlink">
<g id="graph0" class="graph" transform="scale(1 1) rotate(0) translate(4 415)">
<title>_zrtos_vfs_module_modbus_rtu_inode_t</title>
<!-- Node1 -->
<g id="Node000001" class="node">
<title>Node1</title>
<g id="a_Node000001"><a xlink:title=" ">
<polygon fill="#999999" stroke="#666666" points="914,-320 778,-320 778,-288 914,-288 914,-320"/>
<text text-anchor="start" x="786" y="-306.5" font-family="Helvetica,sans-Serif" font-size="10.00">_zrtos_vfs_module_modbus</text>
<text text-anchor="middle" x="846" y="-294.5" font-family="Helvetica,sans-Serif" font-size="10.00">_rtu_inode_t</text>
</a>
</g>
</g>
<!-- Node2 -->
<g id="Node000002" class="node">
<title>Node2</title>
<g id="a_Node000002"><a xlink:href="struct__zrtos__msg__queue__t.html" target="_top" xlink:title=" ">
<polygon fill="white" stroke="#666666" points="667.38,-314 560.62,-314 560.62,-294 667.38,-294 667.38,-314"/>
<text text-anchor="middle" x="614" y="-300.5" font-family="Helvetica,sans-Serif" font-size="10.00">_zrtos_msg_queue_t</text>
</a>
</g>
</g>
<!-- Node2&#45;&gt;Node1 -->
<g id="edge1_Node000001_Node000002" class="edge">
<title>Node2&#45;&gt;Node1</title>
<g id="a_edge1_Node000001_Node000002"><a xlink:title=" ">
<path fill="none" stroke="#9a32cd" stroke-dasharray="5,2" d="M679.2,-304C709.86,-304 746.55,-304 777.61,-304"/>
<polygon fill="#9a32cd" stroke="#9a32cd" points="679.28,-300.5 669.28,-304 679.28,-307.5 679.28,-300.5"/>
</a>
</g>
<text text-anchor="middle" x="725.5" y="-318.5" font-family="Helvetica,sans-Serif" font-size="10.00" fill="grey"> msg_queue_in</text>
<text text-anchor="middle" x="725.5" y="-306.5" font-family="Helvetica,sans-Serif" font-size="10.00" fill="grey">msg_queue_out</text>
</g>
<!-- Node3 -->
<g id="Node000003" class="node">
<title>Node3</title>
<g id="a_Node000003"><a xlink:href="struct__zrtos__cbuffer__t.html" target="_top" xlink:title=" ">
<polygon fill="white" stroke="#666666" points="397.88,-184 312.88,-184 312.88,-164 397.88,-164 397.88,-184"/>
<text text-anchor="middle" x="355.38" y="-170.5" font-family="Helvetica,sans-Serif" font-size="10.00">_zrtos_cbuffer_t</text>
</a>
</g>
</g>
<!-- Node3&#45;&gt;Node2 -->
<g id="edge2_Node000002_Node000003" class="edge">
<title>Node3&#45;&gt;Node2</title>
<g id="a_edge2_Node000002_Node000003"><a xlink:title=" ">
<path fill="none" stroke="#9a32cd" stroke-dasharray="5,2" d="M397.24,-188.15C443.46,-204.71 515.14,-232.25 537,-251 548.51,-260.88 543.43,-270.18 555,-280 561.65,-285.64 569.8,-290.1 577.88,-293.57"/>
<polygon fill="#9a32cd" stroke="#9a32cd" points="398.68,-184.94 388.08,-184.89 396.33,-191.54 398.68,-184.94"/>
</a>
</g>
<text text-anchor="middle" x="490.5" y="-253.5" font-family="Helvetica,sans-Serif" font-size="10.00" fill="grey"> cbuffer</text>
</g>
<!-- Node9 -->
<g id="Node000009" class="node">
<title>Node9</title>
<g id="a_Node000009"><a xlink:href="struct__zrtos__vfs__module__uart__inode__t.html" target="_top" xlink:title=" ">
<polygon fill="white" stroke="#666666" points="673,-130 555,-130 555,-98 673,-98 673,-130"/>
<text text-anchor="start" x="563" y="-116.5" font-family="Helvetica,sans-Serif" font-size="10.00">_zrtos_vfs_module_uart</text>
<text text-anchor="middle" x="614" y="-104.5" font-family="Helvetica,sans-Serif" font-size="10.00">_inode_t</text>
</a>
</g>
</g>
<!-- Node3&#45;&gt;Node9 -->
<g id="edge12_Node000009_Node000003" class="edge">
<title>Node3&#45;&gt;Node9</title>
<g id="a_edge12_Node000009_Node000003"><a xlink:title=" ">
<path fill="none" stroke="#9a32cd" stroke-dasharray="5,2" d="M383.18,-158.19C400.06,-149 422.63,-138.06 444,-132 479.91,-121.81 521.59,-117.29 554.58,-115.33"/>
<polygon fill="#9a32cd" stroke="#9a32cd" points="381.8,-154.95 374.79,-162.89 385.22,-161.06 381.8,-154.95"/>
</a>
</g>
<text text-anchor="middle" x="490.5" y="-146.5" font-family="Helvetica,sans-Serif" font-size="10.00" fill="grey"> cbuffer_in</text>
<text text-anchor="middle" x="490.5" y="-134.5" font-family="Helvetica,sans-Serif" font-size="10.00" fill="grey">cbuffer_out</text>
</g>
<!-- Node4 -->
<g id="Node000004" class="node">
<title>Node4</title>
<g id="a_Node000004"><a xlink:href="struct__zrtos__list__t.html" target="_top" xlink:title=" ">
<polygon fill="white" stroke="#666666" points="219.5,-184 150.25,-184 150.25,-164 219.5,-164 219.5,-184"/>
<text text-anchor="middle" x="184.88" y="-170.5" font-family="Helvetica,sans-Serif" font-size="10.00">_zrtos_list_t</text>
</a>
</g>
</g>
<!-- Node4&#45;&gt;Node3 -->
<g id="edge3_Node000003_Node000004" class="edge">
<title>Node4&#45;&gt;Node3</title>
<g id="a_edge3_Node000003_Node000004"><a xlink:title=" ">
<path fill="none" stroke="#9a32cd" stroke-dasharray="5,2" d="M231.48,-174C256.75,-174 287.93,-174 312.57,-174"/>
<polygon fill="#9a32cd" stroke="#9a32cd" points="231.49,-170.5 221.49,-174 231.49,-177.5 231.49,-170.5"/>
</a>
</g>
<text text-anchor="middle" x="252.12" y="-176.5" font-family="Helvetica,sans-Serif" font-size="10.00" fill="grey"> root</text>
</g>
<!-- Node5 -->
<g id="Node000005" class="node">
<title>Node5</title>
<g id="a_Node000005"><a xlink:href="struct__zrtos__list__node__t.html" target="_top" xlink:title=" ">
<polygon fill="white" stroke="#666666" points="95.5,-184 0,-184 0,-164 95.5,-164 95.5,-184"/>
<text text-anchor="middle" x="47.75" y="-170.5" font-family="Helvetica,sans-Serif" font-size="10.00">_zrtos_list_node_t</text>
</a>
</g>
</g>
<!-- Node5&#45;&gt;Node4 -->
<g id="edge4_Node000004_Node000005" class="edge">
<title>Node5&#45;&gt;Node4</title>
<g id="a_edge4_Node000004_Node000005"><a xlink:title=" ">
<path fill="none" stroke="#9a32cd" stroke-dasharray="5,2" d="M106.72,-174C121.43,-174 136.77,-174 149.85,-174"/>
<polygon fill="#9a32cd" stroke="#9a32cd" points="107.14,-170.5 97.14,-174 107.14,-177.5 107.14,-170.5"/>
</a>
</g>
<text text-anchor="middle" x="122.88" y="-188.5" font-family="Helvetica,sans-Serif" font-size="10.00" fill="grey"> first</text>
<text text-anchor="middle" x="122.88" y="-176.5" font-family="Helvetica,sans-Serif" font-size="10.00" fill="grey">last</text>
</g>
<!-- Node5&#45;&gt;Node5 -->
<g id="edge5_Node000005_Node000005" class="edge">
<title>Node5&#45;&gt;Node5</title>
<g id="a_edge5_Node000005_Node000005"><a xlink:title=" ">
<path fill="none" stroke="#9a32cd" stroke-dasharray="5,2" d="M34.63,-195.77C36.44,-199.45 40.81,-202 47.75,-202 60.81,-202 64.79,-192.98 59.69,-184.34"/>
<polygon fill="#9a32cd" stroke="#9a32cd" points="38.1,-196.15 35.66,-185.84 31.14,-195.43 38.1,-196.15"/>
</a>
</g>
<text text-anchor="middle" x="47.75" y="-204.5" font-family="Helvetica,sans-Serif" font-size="10.00" fill="grey"> next</text>
</g>
<!-- Node6 -->
<g id="Node000006" class="node">
<title>Node6</title>
<g id="a_Node000006"><a xlink:title=" ">
<polygon fill="white" stroke="#666666" points="210.12,-327 159.62,-327 159.62,-307 210.12,-307 210.12,-327"/>
<text text-anchor="middle" x="184.88" y="-313.5" font-family="Helvetica,sans-Serif" font-size="10.00">uint16_t</text>
</a>
</g>
</g>
<!-- Node6&#45;&gt;Node1 -->
<g id="edge20_Node000001_Node000006" class="edge">
<title>Node6&#45;&gt;Node1</title>
<g id="a_edge20_Node000001_Node000006"><a xlink:title=" ">
<path fill="none" stroke="#9a32cd" stroke-dasharray="5,2" d="M221.26,-329.17C226.65,-330.67 232.19,-332.02 237.5,-333 258.19,-336.81 263.72,-335.33 284.75,-336 400.15,-339.66 744.58,-334.57 760,-332 774.56,-329.57 790.02,-325.09 803.7,-320.42"/>
<polygon fill="#9a32cd" stroke="#9a32cd" points="222.56,-325.91 211.97,-326.38 220.54,-332.61 222.56,-325.91"/>
</a>
</g>
<text text-anchor="middle" x="490.5" y="-351.5" font-family="Helvetica,sans-Serif" font-size="10.00" fill="grey"> timeout_frame_us</text>
<text text-anchor="middle" x="490.5" y="-339.5" font-family="Helvetica,sans-Serif" font-size="10.00" fill="grey">timeout_response_us</text>
</g>
<!-- Node6&#45;&gt;Node2 -->
<g id="edge6_Node000002_Node000006" class="edge">
<title>Node6&#45;&gt;Node2</title>
<g id="a_edge6_Node000002_Node000006"><a xlink:title=" ">
<path fill="none" stroke="#9a32cd" stroke-dasharray="5,2" d="M221.19,-303.06C239.78,-296.46 263.15,-289.31 284.75,-286 381.22,-271.23 495.27,-284.22 560.37,-294.48"/>
<polygon fill="#9a32cd" stroke="#9a32cd" points="220.18,-299.7 211.99,-306.43 222.59,-306.27 220.18,-299.7"/>
</a>
</g>
<text text-anchor="middle" x="355.38" y="-288.5" font-family="Helvetica,sans-Serif" font-size="10.00" fill="grey"> msg_count</text>
</g>
<!-- Node7 -->
<g id="Node000007" class="node">
<title>Node7</title>
<g id="a_Node000007"><a xlink:href="struct__zrtos__msg__queue__header__t.html" target="_top" xlink:title=" ">
<polygon fill="white" stroke="#666666" points="426,-327 284.75,-327 284.75,-307 426,-307 426,-327"/>
<text text-anchor="middle" x="355.38" y="-313.5" font-family="Helvetica,sans-Serif" font-size="10.00">_zrtos_msg_queue_header_t</text>
</a>
</g>
</g>
<!-- Node6&#45;&gt;Node7 -->
<g id="edge8_Node000007_Node000006" class="edge">
<title>Node6&#45;&gt;Node7</title>
<g id="a_edge8_Node000007_Node000006"><a xlink:title=" ">
<path fill="none" stroke="#9a32cd" stroke-dasharray="5,2" d="M221.64,-317C239.89,-317 262.73,-317 284.3,-317"/>
<polygon fill="#9a32cd" stroke="#9a32cd" points="221.89,-313.5 211.89,-317 221.89,-320.5 221.89,-313.5"/>
</a>
</g>
<text text-anchor="middle" x="252.12" y="-319.5" font-family="Helvetica,sans-Serif" font-size="10.00" fill="grey"> length</text>
</g>
<!-- Node8 -->
<g id="Node000008" class="node">
<title>Node8</title>
<g id="a_Node000008"><a xlink:href="struct__zrtos__error__count__t.html" target="_top" xlink:title=" ">
<polygon fill="white" stroke="#666666" points="408,-241 302.75,-241 302.75,-221 408,-221 408,-241"/>
<text text-anchor="middle" x="355.38" y="-227.5" font-family="Helvetica,sans-Serif" font-size="10.00">_zrtos_error_count_t</text>
</a>
</g>
</g>
<!-- Node6&#45;&gt;Node8 -->
<g id="edge10_Node000008_Node000006" class="edge">
<title>Node6&#45;&gt;Node8</title>
<g id="a_edge10_Node000008_Node000006"><a xlink:title=" ">
<path fill="none" stroke="#9a32cd" stroke-dasharray="5,2" d="M196.39,-296.59C205.26,-281.51 219.41,-261.8 237.5,-251 256.85,-239.44 281.03,-234.12 302.37,-231.8"/>
<polygon fill="#9a32cd" stroke="#9a32cd" points="193.39,-294.78 191.61,-305.23 199.51,-298.17 193.39,-294.78"/>
</a>
</g>
<text text-anchor="middle" x="252.12" y="-253.5" font-family="Helvetica,sans-Serif" font-size="10.00" fill="grey"> length</text>
</g>
<!-- Node13 -->
<g id="Node000013" class="node">
<title>Node13</title>
<g id="a_Node000013"><a xlink:href="struct__zrtos__vfs__fd__t.html" target="_top" xlink:title=" ">
<polygon fill="white" stroke="#666666" points="530.75,-407 450.25,-407 450.25,-387 530.75,-387 530.75,-407"/>
<text text-anchor="middle" x="490.5" y="-393.5" font-family="Helvetica,sans-Serif" font-size="10.00">_zrtos_vfs_fd_t</text>
</a>
</g>
</g>
<!-- Node6&#45;&gt;Node13 -->
<g id="edge19_Node000013_Node000006" class="edge">
<title>Node6&#45;&gt;Node13</title>
<g id="a_edge19_Node000013_Node000006"><a xlink:title=" ">
<path fill="none" stroke="#9a32cd" stroke-dasharray="5,2" d="M199.66,-336.43C208.96,-347.93 222.29,-361.65 237.5,-369 306.67,-402.4 398.63,-403.28 450.17,-400.45"/>
<polygon fill="#9a32cd" stroke="#9a32cd" points="202.61,-334.52 193.76,-328.68 197.04,-338.76 202.61,-334.52"/>
</a>
</g>
<text text-anchor="middle" x="252.12" y="-382.5" font-family="Helvetica,sans-Serif" font-size="10.00" fill="grey"> fd</text>
</g>
<!-- Node7&#45;&gt;Node2 -->
<g id="edge7_Node000002_Node000007" class="edge">
<title>Node7&#45;&gt;Node2</title>
<g id="a_edge7_Node000002_Node000007"><a xlink:title=" ">
<path fill="none" stroke="#9a32cd" stroke-dasharray="5,2" d="M437.88,-312.87C478,-310.84 525.19,-308.45 560.47,-306.66"/>
<polygon fill="#9a32cd" stroke="#9a32cd" points="437.82,-309.37 428.01,-313.37 438.17,-316.36 437.82,-309.37"/>
</a>
</g>
<text text-anchor="middle" x="490.5" y="-314.5" font-family="Helvetica,sans-Serif" font-size="10.00" fill="grey"> header</text>
</g>
<!-- Node8&#45;&gt;Node1 -->
<g id="edge9_Node000001_Node000008" class="edge">
<title>Node8&#45;&gt;Node1</title>
<g id="a_edge9_Node000001_Node000008"><a xlink:title=" ">
<path fill="none" stroke="#9a32cd" stroke-dasharray="5,2" d="M419.81,-236.49C505.06,-243.96 648.77,-256.85 673,-261 711.98,-267.68 755.17,-278.49 788.51,-287.6"/>
<polygon fill="#9a32cd" stroke="#9a32cd" points="420.21,-233.02 409.95,-235.63 419.6,-239.99 420.21,-233.02"/>
</a>
</g>
<text text-anchor="middle" x="614" y="-275.5" font-family="Helvetica,sans-Serif" font-size="10.00" fill="grey"> rx_error_count</text>
<text text-anchor="middle" x="614" y="-263.5" font-family="Helvetica,sans-Serif" font-size="10.00" fill="grey">tx_error_count</text>
</g>
<!-- Node8&#45;&gt;Node9 -->
<g id="edge13_Node000009_Node000008" class="edge">
<title>Node8&#45;&gt;Node9</title>
<g id="a_edge13_Node000009_Node000008"><a xlink:title=" ">
<path fill="none" stroke="#9a32cd" stroke-dasharray="5,2" d="M387.78,-215.24C399.97,-208.77 413.89,-200.94 426,-193 434.48,-187.44 434.88,-183.42 444,-179 482.31,-160.41 497.36,-171.54 537,-156 554.54,-149.12 573.07,-138.95 587.45,-130.33"/>
<polygon fill="#9a32cd" stroke="#9a32cd" points="386.2,-212.12 378.95,-219.85 389.43,-218.33 386.2,-212.12"/>
</a>
</g>
<text text-anchor="middle" x="490.5" y="-193.5" font-family="Helvetica,sans-Serif" font-size="10.00" fill="grey"> rx_error_count</text>
<text text-anchor="middle" x="490.5" y="-181.5" font-family="Helvetica,sans-Serif" font-size="10.00" fill="grey">tx_error_count</text>
</g>
<!-- Node9&#45;&gt;Node1 -->
<g id="edge11_Node000001_Node000009" class="edge">
<title>Node9&#45;&gt;Node1</title>
<g id="a_edge11_Node000001_Node000009"><a xlink:title=" ">
<path fill="none" stroke="#9a32cd" stroke-dasharray="5,2" d="M646.14,-136.86C675.92,-158.99 721.8,-193.82 760,-226 784.35,-246.52 811.25,-271.64 828.13,-287.73"/>
<polygon fill="#9a32cd" stroke="#9a32cd" points="648.41,-134.18 638.29,-131.04 644.24,-139.8 648.41,-134.18"/>
</a>
</g>
<text text-anchor="middle" x="725.5" y="-228.5" font-family="Helvetica,sans-Serif" font-size="10.00" fill="grey"> uart</text>
</g>
<!-- Node9&#45;&gt;Node9 -->
<g id="edge16_Node000009_Node000009" class="edge">
<title>Node9&#45;&gt;Node9</title>
<g id="a_edge16_Node000009_Node000009"><a xlink:title=" ">
<path fill="none" stroke="#9a32cd" stroke-dasharray="5,2" d="M595.42,-141.71C598.52,-145.48 604.71,-148 614,-148 630.99,-148 637.62,-139.58 633.91,-130.44"/>
<polygon fill="#9a32cd" stroke="#9a32cd" points="598.92,-141.47 594.27,-131.95 591.96,-142.29 598.92,-141.47"/>
</a>
</g>
<text text-anchor="middle" x="614" y="-162.5" font-family="Helvetica,sans-Serif" font-size="10.00" fill="grey"> on_recv</text>
<text text-anchor="middle" x="614" y="-150.5" font-family="Helvetica,sans-Serif" font-size="10.00" fill="grey">on_send</text>
</g>
<!-- Node10 -->
<g id="Node000010" class="node">
<title>Node10</title>
<g id="a_Node000010"><a xlink:title=" ">
<polygon fill="white" stroke="#666666" points="411.75,-70 299,-70 299,-38 411.75,-38 411.75,-70"/>
<text text-anchor="start" x="307" y="-56.5" font-family="Helvetica,sans-Serif" font-size="10.00">zrtos_vfs_module_uart</text>
<text text-anchor="middle" x="355.38" y="-44.5" font-family="Helvetica,sans-Serif" font-size="10.00">_baudrate_t</text>
</a>
</g>
</g>
<!-- Node10&#45;&gt;Node9 -->
<g id="edge14_Node000009_Node000010" class="edge">
<title>Node10&#45;&gt;Node9</title>
<g id="a_edge14_Node000009_Node000010"><a xlink:title=" ">
<path fill="none" stroke="#9a32cd" stroke-dasharray="5,2" d="M423.6,-57.95C458.04,-61.22 500.34,-67.17 537,-78 553.1,-82.76 570.07,-90.5 583.88,-97.6"/>
<polygon fill="#9a32cd" stroke="#9a32cd" points="424.02,-54.47 413.75,-57.07 423.4,-61.45 424.02,-54.47"/>
</a>
</g>
<text text-anchor="middle" x="490.5" y="-80.5" font-family="Helvetica,sans-Serif" font-size="10.00" fill="grey"> baudrate</text>
</g>
<!-- Node11 -->
<g id="Node000011" class="node">
<title>Node11</title>
<g id="a_Node000011"><a xlink:title=" ">
<polygon fill="white" stroke="#666666" points="411.75,-120 299,-120 299,-88 411.75,-88 411.75,-120"/>
<text text-anchor="start" x="307" y="-106.5" font-family="Helvetica,sans-Serif" font-size="10.00">zrtos_vfs_module_uart</text>
<text text-anchor="middle" x="355.38" y="-94.5" font-family="Helvetica,sans-Serif" font-size="10.00">_mode_t</text>
</a>
</g>
</g>
<!-- Node11&#45;&gt;Node9 -->
<g id="edge15_Node000009_Node000011" class="edge">
<title>Node11&#45;&gt;Node9</title>
<g id="a_edge15_Node000009_Node000011"><a xlink:title=" ">
<path fill="none" stroke="#9a32cd" stroke-dasharray="5,2" d="M423.12,-96.7C457.27,-94.15 499.45,-92.85 537,-97 542.78,-97.64 548.76,-98.54 554.71,-99.6"/>
<polygon fill="#9a32cd" stroke="#9a32cd" points="423.06,-93.19 413.37,-97.48 423.62,-100.17 423.06,-93.19"/>
</a>
</g>
<text text-anchor="middle" x="490.5" y="-99.5" font-family="Helvetica,sans-Serif" font-size="10.00" fill="grey"> mode</text>
</g>
<!-- Node12 -->
<g id="Node000012" class="node">
<title>Node12</title>
<g id="a_Node000012"><a xlink:title=" ">
<polygon fill="white" stroke="#666666" points="375,-20 335.75,-20 335.75,0 375,0 375,-20"/>
<text text-anchor="middle" x="355.38" y="-6.5" font-family="Helvetica,sans-Serif" font-size="10.00">void *</text>
</a>
</g>
</g>
<!-- Node12&#45;&gt;Node9 -->
<g id="edge17_Node000009_Node000012" class="edge">
<title>Node12&#45;&gt;Node9</title>
<g id="a_edge17_Node000009_Node000012"><a xlink:title=" ">
<path fill="none" stroke="#9a32cd" stroke-dasharray="5,2" d="M386.47,-10.65C423.69,-12.54 488.11,-19.46 537,-44 562.81,-56.96 586.22,-81.3 600.03,-97.59"/>
<polygon fill="#9a32cd" stroke="#9a32cd" points="387.04,-7.17 376.91,-10.25 386.76,-14.16 387.04,-7.17"/>
</a>
</g>
<text text-anchor="middle" x="490.5" y="-46.5" font-family="Helvetica,sans-Serif" font-size="10.00" fill="grey"> callback_data</text>
</g>
<!-- Node13&#45;&gt;Node1 -->
<g id="edge18_Node000001_Node000013" class="edge">
<title>Node13&#45;&gt;Node1</title>
<g id="a_edge18_Node000001_Node000013"><a xlink:title=" ">
<path fill="none" stroke="#9a32cd" stroke-dasharray="5,2" d="M542.14,-399.74C597.61,-400.93 688.23,-397.53 760,-369 787.45,-358.09 813.59,-335.66 829.46,-320.22"/>
<polygon fill="#9a32cd" stroke="#9a32cd" points="542.47,-396.24 532.37,-399.46 542.27,-403.24 542.47,-396.24"/>
</a>
</g>
<text text-anchor="middle" x="614" y="-401.5" font-family="Helvetica,sans-Serif" font-size="10.00" fill="grey"> timeout_fd</text>
</g>
</g>
</svg>
