<?xml version="1.0" encoding="UTF-8" standalone="no"?>
<!DOCTYPE svg PUBLIC "-//W3C//DTD SVG 1.1//EN"
 "http://www.w3.org/Graphics/SVG/1.1/DTD/svg11.dtd">
<!-- Generated by graphviz version 10.0.1 (20240210.2158)
 -->
<!-- Title: _zrtos_task_scheduler_t Pages: 1 -->
<svg width="513pt" height="164pt"
 viewBox="0.00 0.00 512.62 164.00" xmlns="http://www.w3.org/2000/svg" xmlns:xlink="http://www.w3.org/1999/xlink">
<g id="graph0" class="graph" transform="scale(1 1) rotate(0) translate(4 160)">
<title>_zrtos_task_scheduler_t</title>
<!-- Node1 -->
<g id="Node000001" class="node">
<title>Node1</title>
<g id="a_Node000001"><a xlink:title=" ">
<polygon fill="#999999" stroke="#666666" points="398.62,-20 276.12,-20 276.12,0 398.62,0 398.62,-20"/>
<text text-anchor="middle" x="337.38" y="-6.5" font-family="Helvetica,sans-Serif" font-size="10.00">_zrtos_task_scheduler_t</text>
</a>
</g>
</g>
<!-- Node2 -->
<g id="Node000002" class="node">
<title>Node2</title>
<g id="a_Node000002"><a xlink:href="struct__zrtos__clist__t.html" target="_top" xlink:title=" ">
<polygon fill="white" stroke="#666666" points="142.62,-88 68.12,-88 68.12,-68 142.62,-68 142.62,-88"/>
<text text-anchor="middle" x="105.38" y="-74.5" font-family="Helvetica,sans-Serif" font-size="10.00">_zrtos_clist_t</text>
</a>
</g>
</g>
<!-- Node2&#45;&gt;Node1 -->
<g id="edge1_Node000001_Node000002" class="edge">
<title>Node2&#45;&gt;Node1</title>
<g id="a_edge1_Node000001_Node000002"><a xlink:title=" ">
<path fill="none" stroke="#9a32cd" stroke-dasharray="5,2" d="M149.53,-64.44C194.61,-51.61 263.57,-32 304.2,-20.44"/>
<polygon fill="#9a32cd" stroke="#9a32cd" points="148.73,-61.03 140.07,-67.13 150.65,-67.76 148.73,-61.03"/>
</a>
</g>
<text text-anchor="middle" x="252.12" y="-40.5" font-family="Helvetica,sans-Serif" font-size="10.00" fill="grey"> root</text>
</g>
<!-- Node3 -->
<g id="Node000003" class="node">
<title>Node3</title>
<g id="a_Node000003"><a xlink:href="struct__zrtos__clist__node__t.html" target="_top" xlink:title=" ">
<polygon fill="white" stroke="#666666" points="100.75,-156 0,-156 0,-136 100.75,-136 100.75,-156"/>
<text text-anchor="middle" x="50.38" y="-142.5" font-family="Helvetica,sans-Serif" font-size="10.00">_zrtos_clist_node_t</text>
</a>
</g>
</g>
<!-- Node3&#45;&gt;Node2 -->
<g id="edge2_Node000002_Node000003" class="edge">
<title>Node3&#45;&gt;Node2</title>
<g id="a_edge2_Node000002_Node000003"><a xlink:title=" ">
<path fill="none" stroke="#9a32cd" stroke-dasharray="5,2" d="M65.47,-126.88C75.84,-114.44 89.18,-98.43 97.51,-88.44"/>
<polygon fill="#9a32cd" stroke="#9a32cd" points="62.94,-124.46 59.22,-134.38 68.31,-128.94 62.94,-124.46"/>
</a>
</g>
<text text-anchor="middle" x="93.12" y="-108.5" font-family="Helvetica,sans-Serif" font-size="10.00" fill="grey"> root</text>
</g>
<!-- Node3&#45;&gt;Node3 -->
<g id="edge3_Node000003_Node000003" class="edge">
<title>Node3&#45;&gt;Node3</title>
<g id="a_edge3_Node000003_Node000003"><a xlink:title=" ">
<path fill="none" stroke="#9a32cd" stroke-dasharray="5,2" d="M112.21,-150.55C116.28,-149.49 118.75,-147.98 118.75,-146 118.75,-142.58 111.37,-140.54 101.07,-139.87"/>
<polygon fill="#9a32cd" stroke="#9a32cd" points="111.97,-147.05 102.56,-151.92 112.96,-153.98 111.97,-147.05"/>
</a>
</g>
<text text-anchor="middle" x="129.62" y="-142.5" font-family="Helvetica,sans-Serif" font-size="10.00" fill="grey"> next</text>
</g>
<!-- Node4 -->
<g id="Node000004" class="node">
<title>Node4</title>
<g id="a_Node000004"><a xlink:href="struct__zrtos__task__t.html" target="_top" xlink:title=" ">
<polygon fill="white" stroke="#666666" points="277,-88 201.75,-88 201.75,-68 277,-68 277,-88"/>
<text text-anchor="middle" x="239.38" y="-74.5" font-family="Helvetica,sans-Serif" font-size="10.00">_zrtos_task_t</text>
</a>
</g>
</g>
<!-- Node3&#45;&gt;Node4 -->
<g id="edge5_Node000004_Node000003" class="edge">
<title>Node3&#45;&gt;Node4</title>
<g id="a_edge5_Node000004_Node000003"><a xlink:title=" ">
<path fill="none" stroke="#9a32cd" stroke-dasharray="5,2" d="M88.23,-131.78C124.97,-118.95 179.81,-99.8 212.35,-88.44"/>
<polygon fill="#9a32cd" stroke="#9a32cd" points="87.17,-128.44 78.88,-135.04 89.48,-135.05 87.17,-128.44"/>
</a>
</g>
<text text-anchor="middle" x="174.38" y="-108.5" font-family="Helvetica,sans-Serif" font-size="10.00" fill="grey"> node</text>
</g>
<!-- Node4&#45;&gt;Node1 -->
<g id="edge4_Node000001_Node000004" class="edge">
<title>Node4&#45;&gt;Node1</title>
<g id="a_edge4_Node000001_Node000004"><a xlink:title=" ">
<path fill="none" stroke="#9a32cd" stroke-dasharray="5,2" d="M262.81,-61.22C281.68,-48.51 307.58,-31.07 323.36,-20.44"/>
<polygon fill="#9a32cd" stroke="#9a32cd" points="261.01,-58.21 254.67,-66.7 264.92,-64.02 261.01,-58.21"/>
</a>
</g>
<text text-anchor="middle" x="322.5" y="-40.5" font-family="Helvetica,sans-Serif" font-size="10.00" fill="grey"> sleep_task</text>
</g>
<!-- Node4&#45;&gt;Node4 -->
<g id="edge6_Node000004_Node000004" class="edge">
<title>Node4&#45;&gt;Node4</title>
<g id="a_edge6_Node000004_Node000004"><a xlink:title=" ">
<path fill="none" stroke="#9a32cd" stroke-dasharray="5,2" d="M288.69,-82.84C292.59,-81.78 295,-80.17 295,-78 295,-74.15 287.39,-72.04 277.33,-71.68"/>
<polygon fill="#9a32cd" stroke="#9a32cd" points="288.3,-79.36 278.83,-84.12 289.2,-86.31 288.3,-79.36"/>
</a>
</g>
<text text-anchor="middle" x="310" y="-74.5" font-family="Helvetica,sans-Serif" font-size="10.00" fill="grey"> parent</text>
</g>
<!-- Node5 -->
<g id="Node000005" class="node">
<title>Node5</title>
<g id="a_Node000005"><a xlink:title=" ">
<polygon fill="white" stroke="#666666" points="386,-156 340.75,-156 340.75,-136 386,-136 386,-156"/>
<text text-anchor="middle" x="363.38" y="-142.5" font-family="Helvetica,sans-Serif" font-size="10.00">uint8_t</text>
</a>
</g>
</g>
<!-- Node5&#45;&gt;Node1 -->
<g id="edge10_Node000001_Node000005" class="edge">
<title>Node5&#45;&gt;Node1</title>
<g id="a_edge10_Node000001_Node000005"><a xlink:title=" ">
<path fill="none" stroke="#9a32cd" stroke-dasharray="5,2" d="M363.27,-124.13C362.65,-102.23 360.19,-67.02 351.38,-38 349.47,-31.74 346.13,-25.2 343.18,-20.14"/>
<polygon fill="#9a32cd" stroke="#9a32cd" points="359.77,-124.16 363.44,-134.1 366.77,-124.04 359.77,-124.16"/>
</a>
</g>
<text text-anchor="middle" x="393" y="-74.5" font-family="Helvetica,sans-Serif" font-size="10.00" fill="grey"> tmp_stack_ptr</text>
</g>
<!-- Node5&#45;&gt;Node4 -->
<g id="edge7_Node000004_Node000005" class="edge">
<title>Node5&#45;&gt;Node4</title>
<g id="a_edge7_Node000004_Node000005"><a xlink:title=" ">
<path fill="none" stroke="#9a32cd" stroke-dasharray="5,2" d="M335.68,-130.26C311.67,-117.48 277.63,-99.36 257.11,-88.44"/>
<polygon fill="#9a32cd" stroke="#9a32cd" points="333.8,-133.22 344.27,-134.83 337.09,-127.04 333.8,-133.22"/>
</a>
</g>
<text text-anchor="middle" x="335.12" y="-108.5" font-family="Helvetica,sans-Serif" font-size="10.00" fill="grey"> stack_ptr</text>
</g>
<!-- Node6 -->
<g id="Node000006" class="node">
<title>Node6</title>
<g id="a_Node000006"><a xlink:title=" ">
<polygon fill="white" stroke="#666666" points="226.62,-156 158.12,-156 158.12,-136 226.62,-136 226.62,-156"/>
<text text-anchor="middle" x="192.38" y="-142.5" font-family="Helvetica,sans-Serif" font-size="10.00">unsigned int</text>
</a>
</g>
</g>
<!-- Node6&#45;&gt;Node4 -->
<g id="edge8_Node000004_Node000006" class="edge">
<title>Node6&#45;&gt;Node4</title>
<g id="a_edge8_Node000004_Node000006"><a xlink:title=" ">
<path fill="none" stroke="#9a32cd" stroke-dasharray="5,2" d="M199.12,-125.13C201.78,-118.71 205.22,-111.77 209.38,-106 214.13,-99.41 220.73,-93.24 226.54,-88.48"/>
<polygon fill="#9a32cd" stroke="#9a32cd" points="195.9,-123.74 195.68,-134.34 202.46,-126.19 195.9,-123.74"/>
</a>
</g>
<text text-anchor="middle" x="221.38" y="-108.5" font-family="Helvetica,sans-Serif" font-size="10.00" fill="grey"> ticks</text>
</g>
<!-- Node7 -->
<g id="Node000007" class="node">
<title>Node7</title>
<g id="a_Node000007"><a xlink:title=" ">
<polygon fill="white" stroke="#666666" points="315.75,-156 245,-156 245,-136 315.75,-136 315.75,-156"/>
<text text-anchor="middle" x="280.38" y="-142.5" font-family="Helvetica,sans-Serif" font-size="10.00">zrtos_error_t</text>
</a>
</g>
</g>
<!-- Node7&#45;&gt;Node4 -->
<g id="edge9_Node000004_Node000007" class="edge">
<title>Node7&#45;&gt;Node4</title>
<g id="a_edge9_Node000004_Node000007"><a xlink:title=" ">
<path fill="none" stroke="#9a32cd" stroke-dasharray="5,2" d="M249.89,-129.03C246.2,-125.86 242.93,-122.19 240.62,-118 235.6,-108.86 236.16,-96.6 237.42,-88.29"/>
<polygon fill="#9a32cd" stroke="#9a32cd" points="247.58,-131.69 257.75,-134.66 251.65,-125.99 247.58,-131.69"/>
</a>
</g>
<text text-anchor="middle" x="265.75" y="-108.5" font-family="Helvetica,sans-Serif" font-size="10.00" fill="grey"> error_code</text>
</g>
<!-- Node8 -->
<g id="Node000008" class="node">
<title>Node8</title>
<g id="a_Node000008"><a xlink:title=" ">
<polygon fill="white" stroke="#666666" points="504.62,-88 454.12,-88 454.12,-68 504.62,-68 504.62,-88"/>
<text text-anchor="middle" x="479.38" y="-74.5" font-family="Helvetica,sans-Serif" font-size="10.00">uint16_t</text>
</a>
</g>
</g>
<!-- Node8&#45;&gt;Node1 -->
<g id="edge11_Node000001_Node000008" class="edge">
<title>Node8&#45;&gt;Node1</title>
<g id="a_edge11_Node000001_Node000008"><a xlink:title=" ">
<path fill="none" stroke="#9a32cd" stroke-dasharray="5,2" d="M448.77,-62.77C421.21,-49.97 381.5,-31.51 357.68,-20.44"/>
<polygon fill="#9a32cd" stroke="#9a32cd" points="447.11,-65.86 457.66,-66.91 450.06,-59.52 447.11,-65.86"/>
</a>
</g>
<text text-anchor="middle" x="453.75" y="-40.5" font-family="Helvetica,sans-Serif" font-size="10.00" fill="grey"> do_not_disturb</text>
</g>
</g>
</svg>
