<?xml version="1.0" encoding="UTF-8" standalone="no"?>
<!DOCTYPE svg PUBLIC "-//W3C//DTD SVG 1.1//EN"
 "http://www.w3.org/Graphics/SVG/1.1/DTD/svg11.dtd">
<!-- Generated by graphviz version 10.0.1 (20240210.2158)
 -->
<!-- Title: zrtos_task_pthread__trampoline_cb_args_t Pages: 1 -->
<svg width="183pt" height="120pt"
 viewBox="0.00 0.00 183.25 120.00" xmlns="http://www.w3.org/2000/svg" xmlns:xlink="http://www.w3.org/1999/xlink">
<g id="graph0" class="graph" transform="scale(1 1) rotate(0) translate(4 116)">
<title>zrtos_task_pthread__trampoline_cb_args_t</title>
<!-- Node1 -->
<g id="Node000001" class="node">
<title>Node1</title>
<g id="a_Node000001"><a xlink:title=" ">
<polygon fill="#999999" stroke="#666666" points="151.25,-32 31.75,-32 31.75,0 151.25,0 151.25,-32"/>
<text text-anchor="start" x="39.75" y="-18.5" font-family="Helvetica,sans-Serif" font-size="10.00">zrtos_task_pthread</text>
<text text-anchor="middle" x="91.5" y="-6.5" font-family="Helvetica,sans-Serif" font-size="10.00">__trampoline_cb_args_t</text>
</a>
</g>
</g>
<!-- Node2 -->
<g id="Node000002" class="node">
<title>Node2</title>
<g id="a_Node000002"><a xlink:title=" ">
<polygon fill="white" stroke="#666666" points="97,-112 0,-112 0,-92 97,-92 97,-112"/>
<text text-anchor="middle" x="48.5" y="-98.5" font-family="Helvetica,sans-Serif" font-size="10.00">void *(*)(void *args)</text>
</a>
</g>
</g>
<!-- Node2&#45;&gt;Node1 -->
<g id="edge1_Node000001_Node000002" class="edge">
<title>Node2&#45;&gt;Node1</title>
<g id="a_edge1_Node000001_Node000002"><a xlink:title=" ">
<path fill="none" stroke="#9a32cd" stroke-dasharray="5,2" d="M57.97,-81.18C62.56,-71.7 68.22,-60.21 73.5,-50 76.5,-44.2 79.9,-37.9 82.94,-32.37"/>
<polygon fill="#9a32cd" stroke="#9a32cd" points="54.82,-79.65 53.64,-90.17 61.13,-82.68 54.82,-79.65"/>
</a>
</g>
<text text-anchor="middle" x="93" y="-58.5" font-family="Helvetica,sans-Serif" font-size="10.00" fill="grey"> callback</text>
</g>
<!-- Node3 -->
<g id="Node000003" class="node">
<title>Node3</title>
<g id="a_Node000003"><a xlink:title=" ">
<polygon fill="white" stroke="#666666" points="154.12,-112 114.88,-112 114.88,-92 154.12,-92 154.12,-112"/>
<text text-anchor="middle" x="134.5" y="-98.5" font-family="Helvetica,sans-Serif" font-size="10.00">void *</text>
</a>
</g>
</g>
<!-- Node3&#45;&gt;Node1 -->
<g id="edge2_Node000001_Node000003" class="edge">
<title>Node3&#45;&gt;Node1</title>
<g id="a_edge2_Node000001_Node000003"><a xlink:title=" ">
<path fill="none" stroke="#9a32cd" stroke-dasharray="5,2" d="M126.86,-81.29C122.92,-71.68 117.83,-60.06 112.5,-50 109.39,-44.12 105.58,-37.9 102.06,-32.47"/>
<polygon fill="#9a32cd" stroke="#9a32cd" points="123.52,-82.37 130.47,-90.36 130.02,-79.78 123.52,-82.37"/>
</a>
</g>
<text text-anchor="middle" x="149.38" y="-64.5" font-family="Helvetica,sans-Serif" font-size="10.00" fill="grey"> args</text>
<text text-anchor="middle" x="149.38" y="-52.5" font-family="Helvetica,sans-Serif" font-size="10.00" fill="grey">return_value</text>
</g>
</g>
</svg>
