<?xml version="1.0" encoding="UTF-8" standalone="no"?>
<!DOCTYPE svg PUBLIC "-//W3C//DTD SVG 1.1//EN"
 "http://www.w3.org/Graphics/SVG/1.1/DTD/svg11.dtd">
<!-- Generated by graphviz version 2.40.1 (20161225.0304)
 -->
<!-- Title: _zrtos_vfs_module_spi_sync_inode_t Pages: 1 -->
<svg width="564pt" height="407pt"
 viewBox="0.00 0.00 564.00 406.50" xmlns="http://www.w3.org/2000/svg" xmlns:xlink="http://www.w3.org/1999/xlink">
<g id="graph0" class="graph" transform="scale(1 1) rotate(0) translate(4 402.5)">
<title>_zrtos_vfs_module_spi_sync_inode_t</title>
<polygon fill="#ffffff" stroke="transparent" points="-4,4 -4,-402.5 560,-402.5 560,4 -4,4"/>
<!-- Node1 -->
<g id="node1" class="node">
<title>Node1</title>
<polygon fill="#bfbfbf" stroke="#000000" points="439,-189 439,-219 556,-219 556,-189 439,-189"/>
<text text-anchor="start" x="447" y="-207" font-family="Helvetica,sans-Serif" font-size="10.00" fill="#000000">_zrtos_vfs_module_spi</text>
<text text-anchor="middle" x="497.5" y="-196" font-family="Helvetica,sans-Serif" font-size="10.00" fill="#000000">_sync_inode_t</text>
</g>
<!-- Node2 -->
<g id="node2" class="node">
<title>Node2</title>
<polygon fill="#ffffff" stroke="#bfbfbf" points="248,-249.5 248,-268.5 360,-268.5 360,-249.5 248,-249.5"/>
<text text-anchor="middle" x="304" y="-256.5" font-family="Helvetica,sans-Serif" font-size="10.00" fill="#000000">zrtos_arch_gpio_pin_t</text>
</g>
<!-- Node2&#45;&gt;Node1 -->
<g id="edge1" class="edge">
<title>Node2&#45;&gt;Node1</title>
<path fill="none" stroke="#9a32cd" stroke-dasharray="5,2" d="M353.6415,-247.0277C374.5236,-241.7959 399.0268,-235.4002 421,-229 431.4637,-225.9522 442.6529,-222.4408 453.1541,-219.0313"/>
<polygon fill="#9a32cd" stroke="#9a32cd" points="352.5681,-243.6879 343.7081,-249.4974 354.2572,-250.4811 352.5681,-243.6879"/>
<text text-anchor="middle" x="399.5" y="-265" font-family="Helvetica,sans-Serif" font-size="10.00" fill="#000000"> pin_miso</text>
<text text-anchor="middle" x="399.5" y="-254" font-family="Helvetica,sans-Serif" font-size="10.00" fill="#000000">pin_mosi</text>
<text text-anchor="middle" x="399.5" y="-243" font-family="Helvetica,sans-Serif" font-size="10.00" fill="#000000">pin_sclk</text>
</g>
<!-- Node3 -->
<g id="node3" class="node">
<title>Node3</title>
<polygon fill="#ffffff" stroke="#bfbfbf" points="281,-211.5 281,-230.5 327,-230.5 327,-211.5 281,-211.5"/>
<text text-anchor="middle" x="304" y="-218.5" font-family="Helvetica,sans-Serif" font-size="10.00" fill="#000000">uint8_t</text>
</g>
<!-- Node3&#45;&gt;Node1 -->
<g id="edge2" class="edge">
<title>Node3&#45;&gt;Node1</title>
<path fill="none" stroke="#9a32cd" stroke-dasharray="5,2" d="M337.3613,-218.069C365.2132,-215.6221 405.5832,-212.0754 438.8209,-209.1553"/>
<polygon fill="#9a32cd" stroke="#9a32cd" points="336.9959,-214.5876 327.3406,-218.9494 337.6086,-221.5607 336.9959,-214.5876"/>
<text text-anchor="middle" x="399.5" y="-217" font-family="Helvetica,sans-Serif" font-size="10.00" fill="#000000"> count</text>
</g>
<!-- Node4 -->
<g id="node4" class="node">
<title>Node4</title>
<g id="a_node4"><a xlink:href="struct__zrtos__gpio__t.html" target="_top" xlink:title="_zrtos_gpio_t">
<polygon fill="#ffffff" stroke="#000000" points="266.5,-173.5 266.5,-192.5 341.5,-192.5 341.5,-173.5 266.5,-173.5"/>
<text text-anchor="middle" x="304" y="-180.5" font-family="Helvetica,sans-Serif" font-size="10.00" fill="#000000">_zrtos_gpio_t</text>
</a>
</g>
</g>
<!-- Node4&#45;&gt;Node1 -->
<g id="edge3" class="edge">
<title>Node4&#45;&gt;Node1</title>
<path fill="none" stroke="#9a32cd" stroke-dasharray="5,2" d="M351.7497,-187.7349C372.9651,-189.8806 398.2379,-192.4939 421,-195 426.7158,-195.6293 432.6698,-196.3011 438.6206,-196.9834"/>
<polygon fill="#9a32cd" stroke="#9a32cd" points="351.9901,-184.2415 341.6896,-186.7217 351.2885,-191.2063 351.9901,-184.2415"/>
<text text-anchor="middle" x="399.5" y="-198" font-family="Helvetica,sans-Serif" font-size="10.00" fill="#000000"> gpio</text>
</g>
<!-- Node5 -->
<g id="node5" class="node">
<title>Node5</title>
<polygon fill="#ffffff" stroke="#bfbfbf" points="0,-346 0,-398 154,-398 154,-346 0,-346"/>
<text text-anchor="start" x="8" y="-386" font-family="Helvetica,sans-Serif" font-size="10.00" fill="#000000">zrtos_error_t(*)(struct</text>
<text text-anchor="start" x="8" y="-375" font-family="Helvetica,sans-Serif" font-size="10.00" fill="#000000"> _zrtos_gpio_t *thiz,</text>
<text text-anchor="start" x="8" y="-364" font-family="Helvetica,sans-Serif" font-size="10.00" fill="#000000"> zrtos_gpio_pin_t pin,</text>
<text text-anchor="middle" x="77" y="-353" font-family="Helvetica,sans-Serif" font-size="10.00" fill="#000000"> zrtos_gpio_value_analog_t val)</text>
</g>
<!-- Node5&#45;&gt;Node4 -->
<g id="edge4" class="edge">
<title>Node5&#45;&gt;Node4</title>
<path fill="none" stroke="#9a32cd" stroke-dasharray="5,2" d="M147.9957,-340.7239C150.0409,-339.5064 152.0471,-338.2644 154,-337 191.7985,-312.5271 206.329,-308.3059 230,-270 246.4343,-243.405 226.6616,-224.8486 248,-202 252.9752,-196.6727 259.4983,-192.8389 266.3278,-190.0799"/>
<polygon fill="#9a32cd" stroke="#9a32cd" points="145.8117,-337.9373 138.821,-345.8985 149.2506,-344.0344 145.8117,-337.9373"/>
<text text-anchor="middle" x="201" y="-328" font-family="Helvetica,sans-Serif" font-size="10.00" fill="#000000"> analog_write</text>
</g>
<!-- Node6 -->
<g id="node6" class="node">
<title>Node6</title>
<polygon fill="#ffffff" stroke="#bfbfbf" points="1.5,-275 1.5,-327 152.5,-327 152.5,-275 1.5,-275"/>
<text text-anchor="start" x="9.5" y="-315" font-family="Helvetica,sans-Serif" font-size="10.00" fill="#000000">zrtos_error_t(*)(struct</text>
<text text-anchor="start" x="9.5" y="-304" font-family="Helvetica,sans-Serif" font-size="10.00" fill="#000000"> _zrtos_gpio_t *thiz,</text>
<text text-anchor="start" x="9.5" y="-293" font-family="Helvetica,sans-Serif" font-size="10.00" fill="#000000"> zrtos_gpio_pin_t pin,</text>
<text text-anchor="middle" x="77" y="-282" font-family="Helvetica,sans-Serif" font-size="10.00" fill="#000000"> zrtos_gpio_value_digital_t val)</text>
</g>
<!-- Node6&#45;&gt;Node4 -->
<g id="edge5" class="edge">
<title>Node6&#45;&gt;Node4</title>
<path fill="none" stroke="#9a32cd" stroke-dasharray="5,2" d="M143.4609,-270.4296C147.0424,-268.626 150.5748,-266.8093 154,-265 188.71,-246.6655 198.9889,-244.0677 230,-220 238.9378,-213.0634 238.3919,-207.9737 248,-202 254.1032,-198.2054 261.0557,-195.0655 267.9367,-192.5058"/>
<polygon fill="#9a32cd" stroke="#9a32cd" points="141.8965,-267.2986 134.4899,-274.8744 145.0042,-273.571 141.8965,-267.2986"/>
<text text-anchor="middle" x="201" y="-258" font-family="Helvetica,sans-Serif" font-size="10.00" fill="#000000"> digital_write</text>
</g>
<!-- Node7 -->
<g id="node7" class="node">
<title>Node7</title>
<polygon fill="#ffffff" stroke="#bfbfbf" points="15,-192.5 15,-255.5 139,-255.5 139,-192.5 15,-192.5"/>
<text text-anchor="start" x="23" y="-243.5" font-family="Helvetica,sans-Serif" font-size="10.00" fill="#000000">zrtos_error_t(*)(struct</text>
<text text-anchor="start" x="23" y="-232.5" font-family="Helvetica,sans-Serif" font-size="10.00" fill="#000000"> _zrtos_gpio_t *thiz,</text>
<text text-anchor="start" x="23" y="-221.5" font-family="Helvetica,sans-Serif" font-size="10.00" fill="#000000"> zrtos_gpio_pin_t pin,</text>
<text text-anchor="start" x="23" y="-210.5" font-family="Helvetica,sans-Serif" font-size="10.00" fill="#000000"> zrtos_gpio_value_digital</text>
<text text-anchor="middle" x="77" y="-199.5" font-family="Helvetica,sans-Serif" font-size="10.00" fill="#000000">_t *val)</text>
</g>
<!-- Node7&#45;&gt;Node4 -->
<g id="edge6" class="edge">
<title>Node7&#45;&gt;Node4</title>
<path fill="none" stroke="#9a32cd" stroke-dasharray="5,2" d="M149.2536,-210.9498C188.1201,-203.9299 234.4553,-195.5609 266.2289,-189.8221"/>
<polygon fill="#9a32cd" stroke="#9a32cd" points="148.2474,-207.5748 139.0287,-212.7966 149.4916,-214.4634 148.2474,-207.5748"/>
<text text-anchor="middle" x="201" y="-208" font-family="Helvetica,sans-Serif" font-size="10.00" fill="#000000"> digital_read</text>
</g>
<!-- Node8 -->
<g id="node8" class="node">
<title>Node8</title>
<polygon fill="#ffffff" stroke="#bfbfbf" points="13.5,-110.5 13.5,-173.5 140.5,-173.5 140.5,-110.5 13.5,-110.5"/>
<text text-anchor="start" x="21.5" y="-161.5" font-family="Helvetica,sans-Serif" font-size="10.00" fill="#000000">zrtos_error_t(*)(struct</text>
<text text-anchor="start" x="21.5" y="-150.5" font-family="Helvetica,sans-Serif" font-size="10.00" fill="#000000"> _zrtos_gpio_t *thiz,</text>
<text text-anchor="start" x="21.5" y="-139.5" font-family="Helvetica,sans-Serif" font-size="10.00" fill="#000000"> zrtos_gpio_pin_t pin,</text>
<text text-anchor="start" x="21.5" y="-128.5" font-family="Helvetica,sans-Serif" font-size="10.00" fill="#000000"> zrtos_gpio_value_analog</text>
<text text-anchor="middle" x="77" y="-117.5" font-family="Helvetica,sans-Serif" font-size="10.00" fill="#000000">_t *val)</text>
</g>
<!-- Node8&#45;&gt;Node4 -->
<g id="edge7" class="edge">
<title>Node8&#45;&gt;Node4</title>
<path fill="none" stroke="#9a32cd" stroke-dasharray="5,2" d="M150.7071,-155.3127C189.3403,-162.2905 235.016,-170.5403 266.3997,-176.2088"/>
<polygon fill="#9a32cd" stroke="#9a32cd" points="150.9969,-151.8085 140.534,-153.4753 149.7527,-158.6971 150.9969,-151.8085"/>
<text text-anchor="middle" x="201" y="-171" font-family="Helvetica,sans-Serif" font-size="10.00" fill="#000000"> analog_read</text>
</g>
<!-- Node9 -->
<g id="node9" class="node">
<title>Node9</title>
<polygon fill="#ffffff" stroke="#bfbfbf" points="11,-39 11,-91 143,-91 143,-39 11,-39"/>
<text text-anchor="start" x="19" y="-79" font-family="Helvetica,sans-Serif" font-size="10.00" fill="#000000">zrtos_error_t(*)(struct</text>
<text text-anchor="start" x="19" y="-68" font-family="Helvetica,sans-Serif" font-size="10.00" fill="#000000"> _zrtos_gpio_t *thiz,</text>
<text text-anchor="start" x="19" y="-57" font-family="Helvetica,sans-Serif" font-size="10.00" fill="#000000"> zrtos_gpio_pin_t pin,</text>
<text text-anchor="middle" x="77" y="-46" font-family="Helvetica,sans-Serif" font-size="10.00" fill="#000000"> zrtos_gpio_mode_t mode)</text>
</g>
<!-- Node9&#45;&gt;Node4 -->
<g id="edge8" class="edge">
<title>Node9&#45;&gt;Node4</title>
<path fill="none" stroke="#9a32cd" stroke-dasharray="5,2" d="M143.162,-95.6026C146.8394,-97.4062 150.4723,-99.2133 154,-101 202.9819,-125.8078 259.5045,-157.5836 287.0892,-173.301"/>
<polygon fill="#9a32cd" stroke="#9a32cd" points="144.4888,-92.3561 133.964,-91.1399 141.4331,-98.654 144.4888,-92.3561"/>
<text text-anchor="middle" x="201" y="-143" font-family="Helvetica,sans-Serif" font-size="10.00" fill="#000000"> set_mode</text>
</g>
<!-- Node10 -->
<g id="node10" class="node">
<title>Node10</title>
<g id="a_node10"><a xlink:href="struct__zrtos__task__mutex__t.html" target="_top" xlink:title="_zrtos_task_mutex_t">
<polygon fill="#ffffff" stroke="#000000" points="250,-88.5 250,-107.5 358,-107.5 358,-88.5 250,-88.5"/>
<text text-anchor="middle" x="304" y="-95.5" font-family="Helvetica,sans-Serif" font-size="10.00" fill="#000000">_zrtos_task_mutex_t</text>
</a>
</g>
</g>
<!-- Node10&#45;&gt;Node1 -->
<g id="edge9" class="edge">
<title>Node10&#45;&gt;Node1</title>
<path fill="none" stroke="#9a32cd" stroke-dasharray="5,2" d="M330.6017,-112.5725C367.2524,-132.6499 432.9448,-168.6364 470.0418,-188.9583"/>
<polygon fill="#9a32cd" stroke="#9a32cd" points="331.965,-109.3286 321.5131,-107.5937 328.6019,-115.4678 331.965,-109.3286"/>
<text text-anchor="middle" x="399.5" y="-163" font-family="Helvetica,sans-Serif" font-size="10.00" fill="#000000"> mutex</text>
</g>
<!-- Node11 -->
<g id="node11" class="node">
<title>Node11</title>
<polygon fill="#ffffff" stroke="#bfbfbf" points="59.5,-.5 59.5,-19.5 94.5,-19.5 94.5,-.5 59.5,-.5"/>
<text text-anchor="middle" x="77" y="-7.5" font-family="Helvetica,sans-Serif" font-size="10.00" fill="#000000">bool</text>
</g>
<!-- Node11&#45;&gt;Node10 -->
<g id="edge10" class="edge">
<title>Node11&#45;&gt;Node10</title>
<path fill="none" stroke="#9a32cd" stroke-dasharray="5,2" d="M105.2393,-9.2746C137.0286,-9.5172 189.5189,-13.1612 230,-32 258.7175,-45.3644 284.3821,-73.6132 296.5469,-88.446"/>
<polygon fill="#9a32cd" stroke="#9a32cd" points="104.8994,-5.7757 94.9119,-9.3113 104.9243,-12.7756 104.8994,-5.7757"/>
<text text-anchor="middle" x="201" y="-35" font-family="Helvetica,sans-Serif" font-size="10.00" fill="#000000"> is_locked</text>
</g>
</g>
</svg>
