<?xml version="1.0" encoding="UTF-8" standalone="no"?>
<!DOCTYPE svg PUBLIC "-//W3C//DTD SVG 1.1//EN"
 "http://www.w3.org/Graphics/SVG/1.1/DTD/svg11.dtd">
<!-- Generated by graphviz version 10.0.1 (20240210.2158)
 -->
<!-- Title: _zrtos_vfs_module_spi_file_t Pages: 1 -->
<svg width="592pt" height="263pt"
 viewBox="0.00 0.00 591.75 263.00" xmlns="http://www.w3.org/2000/svg" xmlns:xlink="http://www.w3.org/1999/xlink">
<g id="graph0" class="graph" transform="scale(1 1) rotate(0) translate(4 259)">
<title>_zrtos_vfs_module_spi_file_t</title>
<!-- Node1 -->
<g id="Node000001" class="node">
<title>Node1</title>
<g id="a_Node000001"><a xlink:title=" ">
<polygon fill="#999999" stroke="#666666" points="583.75,-128 469.5,-128 469.5,-96 583.75,-96 583.75,-128"/>
<text text-anchor="start" x="477.5" y="-114.5" font-family="Helvetica,sans-Serif" font-size="10.00">_zrtos_vfs_module_spi</text>
<text text-anchor="middle" x="526.62" y="-102.5" font-family="Helvetica,sans-Serif" font-size="10.00">_file_t</text>
</a>
</g>
</g>
<!-- Node2 -->
<g id="Node000002" class="node">
<title>Node2</title>
<g id="a_Node000002"><a xlink:href="struct__zrtos__clist__node__t.html" target="_top" xlink:title=" ">
<polygon fill="white" stroke="#666666" points="381,-225 280.25,-225 280.25,-205 381,-205 381,-225"/>
<text text-anchor="middle" x="330.62" y="-211.5" font-family="Helvetica,sans-Serif" font-size="10.00">_zrtos_clist_node_t</text>
</a>
</g>
</g>
<!-- Node2&#45;&gt;Node1 -->
<g id="edge1_Node000001_Node000002" class="edge">
<title>Node2&#45;&gt;Node1</title>
<g id="a_edge1_Node000001_Node000002"><a xlink:title=" ">
<path fill="none" stroke="#9a32cd" stroke-dasharray="5,2" d="M392.42,-206.33C412.12,-201.84 433.51,-195.1 451.5,-185 477.17,-170.59 500.2,-144.93 513.55,-128.2"/>
<polygon fill="#9a32cd" stroke="#9a32cd" points="391.92,-202.86 382.86,-208.34 393.36,-209.71 391.92,-202.86"/>
</a>
</g>
<text text-anchor="middle" x="427.88" y="-205.5" font-family="Helvetica,sans-Serif" font-size="10.00" fill="grey"> node</text>
</g>
<!-- Node2&#45;&gt;Node2 -->
<g id="edge2_Node000002_Node000002" class="edge">
<title>Node2&#45;&gt;Node2</title>
<g id="a_edge2_Node000002_Node000002"><a xlink:title=" ">
<path fill="none" stroke="#9a32cd" stroke-dasharray="5,2" d="M316.06,-236.77C318.07,-240.45 322.93,-243 330.62,-243 345.12,-243 349.53,-233.98 343.87,-225.34"/>
<polygon fill="#9a32cd" stroke="#9a32cd" points="319.54,-237.18 317.2,-226.84 312.58,-236.38 319.54,-237.18"/>
</a>
</g>
<text text-anchor="middle" x="330.62" y="-245.5" font-family="Helvetica,sans-Serif" font-size="10.00" fill="grey"> next</text>
</g>
<!-- Node3 -->
<g id="Node000003" class="node">
<title>Node3</title>
<g id="a_Node000003"><a xlink:href="struct__zrtos__cbuffer__t.html" target="_top" xlink:title=" ">
<polygon fill="white" stroke="#666666" points="373.12,-184 288.12,-184 288.12,-164 373.12,-164 373.12,-184"/>
<text text-anchor="middle" x="330.62" y="-170.5" font-family="Helvetica,sans-Serif" font-size="10.00">_zrtos_cbuffer_t</text>
</a>
</g>
</g>
<!-- Node3&#45;&gt;Node1 -->
<g id="edge3_Node000001_Node000003" class="edge">
<title>Node3&#45;&gt;Node1</title>
<g id="a_edge3_Node000001_Node000003"><a xlink:title=" ">
<path fill="none" stroke="#9a32cd" stroke-dasharray="5,2" d="M384.39,-162.08C405.47,-156.88 429.83,-150.29 451.5,-143 464.06,-138.77 477.51,-133.42 489.45,-128.35"/>
<polygon fill="#9a32cd" stroke="#9a32cd" points="383.75,-158.64 374.86,-164.4 385.4,-165.44 383.75,-158.64"/>
</a>
</g>
<text text-anchor="middle" x="427.88" y="-171.5" font-family="Helvetica,sans-Serif" font-size="10.00" fill="grey"> cbuffer_in</text>
<text text-anchor="middle" x="427.88" y="-159.5" font-family="Helvetica,sans-Serif" font-size="10.00" fill="grey">cbuffer_out</text>
</g>
<!-- Node4 -->
<g id="Node000004" class="node">
<title>Node4</title>
<g id="a_Node000004"><a xlink:href="struct__zrtos__list__t.html" target="_top" xlink:title=" ">
<polygon fill="white" stroke="#666666" points="219.5,-184 150.25,-184 150.25,-164 219.5,-164 219.5,-184"/>
<text text-anchor="middle" x="184.88" y="-170.5" font-family="Helvetica,sans-Serif" font-size="10.00">_zrtos_list_t</text>
</a>
</g>
</g>
<!-- Node4&#45;&gt;Node3 -->
<g id="edge4_Node000003_Node000004" class="edge">
<title>Node4&#45;&gt;Node3</title>
<g id="a_edge4_Node000003_Node000004"><a xlink:title=" ">
<path fill="none" stroke="#9a32cd" stroke-dasharray="5,2" d="M231.4,-174C249.48,-174 270.15,-174 287.85,-174"/>
<polygon fill="#9a32cd" stroke="#9a32cd" points="231.46,-170.5 221.46,-174 231.46,-177.5 231.46,-170.5"/>
</a>
</g>
<text text-anchor="middle" x="247.25" y="-176.5" font-family="Helvetica,sans-Serif" font-size="10.00" fill="grey"> root</text>
</g>
<!-- Node5 -->
<g id="Node000005" class="node">
<title>Node5</title>
<g id="a_Node000005"><a xlink:href="struct__zrtos__list__node__t.html" target="_top" xlink:title=" ">
<polygon fill="white" stroke="#666666" points="95.5,-184 0,-184 0,-164 95.5,-164 95.5,-184"/>
<text text-anchor="middle" x="47.75" y="-170.5" font-family="Helvetica,sans-Serif" font-size="10.00">_zrtos_list_node_t</text>
</a>
</g>
</g>
<!-- Node5&#45;&gt;Node4 -->
<g id="edge5_Node000004_Node000005" class="edge">
<title>Node5&#45;&gt;Node4</title>
<g id="a_edge5_Node000004_Node000005"><a xlink:title=" ">
<path fill="none" stroke="#9a32cd" stroke-dasharray="5,2" d="M106.72,-174C121.43,-174 136.77,-174 149.85,-174"/>
<polygon fill="#9a32cd" stroke="#9a32cd" points="107.14,-170.5 97.14,-174 107.14,-177.5 107.14,-170.5"/>
</a>
</g>
<text text-anchor="middle" x="122.88" y="-188.5" font-family="Helvetica,sans-Serif" font-size="10.00" fill="grey"> first</text>
<text text-anchor="middle" x="122.88" y="-176.5" font-family="Helvetica,sans-Serif" font-size="10.00" fill="grey">last</text>
</g>
<!-- Node5&#45;&gt;Node5 -->
<g id="edge6_Node000005_Node000005" class="edge">
<title>Node5&#45;&gt;Node5</title>
<g id="a_edge6_Node000005_Node000005"><a xlink:title=" ">
<path fill="none" stroke="#9a32cd" stroke-dasharray="5,2" d="M34.63,-195.77C36.44,-199.45 40.81,-202 47.75,-202 60.81,-202 64.79,-192.98 59.69,-184.34"/>
<polygon fill="#9a32cd" stroke="#9a32cd" points="38.1,-196.15 35.66,-185.84 31.14,-195.43 38.1,-196.15"/>
</a>
</g>
<text text-anchor="middle" x="47.75" y="-204.5" font-family="Helvetica,sans-Serif" font-size="10.00" fill="grey"> next</text>
</g>
<!-- Node6 -->
<g id="Node000006" class="node">
<title>Node6</title>
<g id="a_Node000006"><a xlink:title=" ">
<polygon fill="white" stroke="#666666" points="366,-146 295.25,-146 295.25,-126 366,-126 366,-146"/>
<text text-anchor="middle" x="330.62" y="-132.5" font-family="Helvetica,sans-Serif" font-size="10.00">zrtos_error_t</text>
</a>
</g>
</g>
<!-- Node6&#45;&gt;Node1 -->
<g id="edge7_Node000001_Node000006" class="edge">
<title>Node6&#45;&gt;Node1</title>
<g id="a_edge7_Node000001_Node000006"><a xlink:title=" ">
<path fill="none" stroke="#9a32cd" stroke-dasharray="5,2" d="M377.56,-130.32C405,-126.92 440.07,-122.58 469.19,-118.98"/>
<polygon fill="#9a32cd" stroke="#9a32cd" points="377.31,-126.82 367.81,-131.52 378.16,-133.77 377.31,-126.82"/>
</a>
</g>
<text text-anchor="middle" x="427.88" y="-129.5" font-family="Helvetica,sans-Serif" font-size="10.00" fill="grey"> error</text>
</g>
<!-- Node7 -->
<g id="Node000007" class="node">
<title>Node7</title>
<g id="a_Node000007"><a xlink:title=" ">
<polygon fill="white" stroke="#666666" points="385.12,-108 276.12,-108 276.12,-76 385.12,-76 385.12,-108"/>
<text text-anchor="start" x="284.12" y="-94.5" font-family="Helvetica,sans-Serif" font-size="10.00">zrtos_vfs_module_spi</text>
<text text-anchor="middle" x="330.62" y="-82.5" font-family="Helvetica,sans-Serif" font-size="10.00">_control_t</text>
</a>
</g>
</g>
<!-- Node7&#45;&gt;Node1 -->
<g id="edge8_Node000001_Node000007" class="edge">
<title>Node7&#45;&gt;Node1</title>
<g id="a_edge8_Node000001_Node000007"><a xlink:title=" ">
<path fill="none" stroke="#9a32cd" stroke-dasharray="5,2" d="M396.87,-94.44C414.63,-95.48 433.83,-96.94 451.5,-99 457.21,-99.67 463.15,-100.49 469.06,-101.39"/>
<polygon fill="#9a32cd" stroke="#9a32cd" points="397.13,-90.95 386.96,-93.9 396.75,-97.94 397.13,-90.95"/>
</a>
</g>
<text text-anchor="middle" x="427.88" y="-101.5" font-family="Helvetica,sans-Serif" font-size="10.00" fill="grey"> control</text>
</g>
<!-- Node8 -->
<g id="Node000008" class="node">
<title>Node8</title>
<g id="a_Node000008"><a xlink:title=" ">
<polygon fill="white" stroke="#666666" points="386.25,-58 275,-58 275,-38 386.25,-38 386.25,-58"/>
<text text-anchor="middle" x="330.62" y="-44.5" font-family="Helvetica,sans-Serif" font-size="10.00">zrtos_arch_gpio_pin_t</text>
</a>
</g>
</g>
<!-- Node8&#45;&gt;Node1 -->
<g id="edge9_Node000001_Node000008" class="edge">
<title>Node8&#45;&gt;Node1</title>
<g id="a_edge9_Node000001_Node000008"><a xlink:title=" ">
<path fill="none" stroke="#9a32cd" stroke-dasharray="5,2" d="M390.38,-61.13C410.03,-66.06 431.9,-72.16 451.5,-79 464.93,-83.69 479.3,-89.82 491.78,-95.52"/>
<polygon fill="#9a32cd" stroke="#9a32cd" points="391.44,-57.78 380.89,-58.8 389.77,-64.58 391.44,-57.78"/>
</a>
</g>
<text text-anchor="middle" x="427.88" y="-81.5" font-family="Helvetica,sans-Serif" font-size="10.00" fill="grey"> pin_cs</text>
</g>
<!-- Node9 -->
<g id="Node000009" class="node">
<title>Node9</title>
<g id="a_Node000009"><a xlink:title=" ">
<polygon fill="white" stroke="#666666" points="350.25,-20 311,-20 311,0 350.25,0 350.25,-20"/>
<text text-anchor="middle" x="330.62" y="-6.5" font-family="Helvetica,sans-Serif" font-size="10.00">void *</text>
</a>
</g>
</g>
<!-- Node9&#45;&gt;Node1 -->
<g id="edge10_Node000001_Node000009" class="edge">
<title>Node9&#45;&gt;Node1</title>
<g id="a_edge10_Node000001_Node000009"><a xlink:title=" ">
<path fill="none" stroke="#9a32cd" stroke-dasharray="5,2" d="M361.38,-16.61C386.45,-22.95 422.73,-33.93 451.5,-50 473.76,-62.43 495.72,-81.96 509.89,-95.77"/>
<polygon fill="#9a32cd" stroke="#9a32cd" points="362.4,-13.26 351.86,-14.31 360.75,-20.06 362.4,-13.26"/>
</a>
</g>
<text text-anchor="middle" x="427.88" y="-52.5" font-family="Helvetica,sans-Serif" font-size="10.00" fill="grey"> data</text>
</g>
</g>
</svg>
