<?xml version="1.0" encoding="UTF-8" standalone="no"?>
<!DOCTYPE svg PUBLIC "-//W3C//DTD SVG 1.1//EN"
 "http://www.w3.org/Graphics/SVG/1.1/DTD/svg11.dtd">
<!-- Generated by graphviz version 10.0.1 (20240210.2158)
 -->
<!-- Title: _zrtos_vfs_notify_t Pages: 1 -->
<svg width="196pt" height="312pt"
 viewBox="0.00 0.00 196.00 312.00" xmlns="http://www.w3.org/2000/svg" xmlns:xlink="http://www.w3.org/1999/xlink">
<g id="graph0" class="graph" transform="scale(1 1) rotate(0) translate(4 308)">
<title>_zrtos_vfs_notify_t</title>
<!-- Node1 -->
<g id="Node000001" class="node">
<title>Node1</title>
<g id="a_Node000001"><a xlink:title=" ">
<polygon fill="#999999" stroke="#666666" points="148.75,-100 52.5,-100 52.5,-80 148.75,-80 148.75,-100"/>
<text text-anchor="middle" x="100.62" y="-86.5" font-family="Helvetica,sans-Serif" font-size="10.00">_zrtos_vfs_notify_t</text>
</a>
</g>
</g>
<!-- Node5 -->
<g id="Node000005" class="node">
<title>Node5</title>
<g id="a_Node000005"><a xlink:href="struct__zrtos__vfs__notify__entry__t.html" target="_top" xlink:title=" ">
<polygon fill="white" stroke="#666666" points="162.25,-20 39,-20 39,0 162.25,0 162.25,-20"/>
<text text-anchor="middle" x="100.62" y="-6.5" font-family="Helvetica,sans-Serif" font-size="10.00">_zrtos_vfs_notify_entry_t</text>
</a>
</g>
</g>
<!-- Node1&#45;&gt;Node5 -->
<g id="edge5_Node000005_Node000001" class="edge">
<title>Node1&#45;&gt;Node5</title>
<g id="a_edge5_Node000005_Node000001"><a xlink:title=" ">
<path fill="none" stroke="#9a32cd" stroke-dasharray="5,2" d="M66.71,-73.13C62.88,-69.97 59.51,-66.28 57.12,-62 51.94,-52.68 51.94,-47.32 57.12,-38 61.36,-30.39 68.73,-24.65 76.21,-20.46"/>
<polygon fill="#9a32cd" stroke="#9a32cd" points="64.71,-76 74.95,-78.69 68.62,-70.2 64.71,-76"/>
</a>
</g>
<text text-anchor="middle" x="86.88" y="-52.5" font-family="Helvetica,sans-Serif" font-size="10.00" fill="grey"> on_can_read</text>
<text text-anchor="middle" x="86.88" y="-40.5" font-family="Helvetica,sans-Serif" font-size="10.00" fill="grey">on_can_write</text>
</g>
<!-- Node2 -->
<g id="Node000002" class="node">
<title>Node2</title>
<g id="a_Node000002"><a xlink:href="struct__zrtos__vfs__fd__set__t.html" target="_top" xlink:title=" ">
<polygon fill="white" stroke="#666666" points="99.25,-168 0,-168 0,-148 99.25,-148 99.25,-168"/>
<text text-anchor="middle" x="49.62" y="-154.5" font-family="Helvetica,sans-Serif" font-size="10.00">_zrtos_vfs_fd_set_t</text>
</a>
</g>
</g>
<!-- Node2&#45;&gt;Node1 -->
<g id="edge1_Node000001_Node000002" class="edge">
<title>Node2&#45;&gt;Node1</title>
<g id="a_edge1_Node000001_Node000002"><a xlink:title=" ">
<path fill="none" stroke="#9a32cd" stroke-dasharray="5,2" d="M63.91,-138.52C73.48,-126.13 85.69,-110.33 93.33,-100.44"/>
<polygon fill="#9a32cd" stroke="#9a32cd" points="61.2,-136.29 57.86,-146.35 66.74,-140.57 61.2,-136.29"/>
</a>
</g>
<text text-anchor="middle" x="92.62" y="-120.5" font-family="Helvetica,sans-Serif" font-size="10.00" fill="grey"> fdset</text>
</g>
<!-- Node3 -->
<g id="Node000003" class="node">
<title>Node3</title>
<g id="a_Node000003"><a xlink:href="structzrtos__bitfield__t.html" target="_top" xlink:title=" ">
<polygon fill="white" stroke="#666666" points="89.12,-236 10.12,-236 10.12,-216 89.12,-216 89.12,-236"/>
<text text-anchor="middle" x="49.62" y="-222.5" font-family="Helvetica,sans-Serif" font-size="10.00">zrtos_bitfield_t</text>
</a>
</g>
</g>
<!-- Node3&#45;&gt;Node2 -->
<g id="edge2_Node000002_Node000003" class="edge">
<title>Node3&#45;&gt;Node2</title>
<g id="a_edge2_Node000002_Node000003"><a xlink:title=" ">
<path fill="none" stroke="#9a32cd" stroke-dasharray="5,2" d="M49.62,-204.28C49.62,-192.27 49.62,-177.74 49.62,-168.44"/>
<polygon fill="#9a32cd" stroke="#9a32cd" points="46.13,-204.03 49.63,-214.03 53.13,-204.03 46.13,-204.03"/>
</a>
</g>
<text text-anchor="middle" x="68" y="-188.5" font-family="Helvetica,sans-Serif" font-size="10.00" fill="grey"> fds_bits</text>
</g>
<!-- Node4 -->
<g id="Node000004" class="node">
<title>Node4</title>
<g id="a_Node000004"><a xlink:title=" ">
<polygon fill="white" stroke="#666666" points="72.25,-304 27,-304 27,-284 72.25,-284 72.25,-304"/>
<text text-anchor="middle" x="49.62" y="-290.5" font-family="Helvetica,sans-Serif" font-size="10.00">uint8_t</text>
</a>
</g>
</g>
<!-- Node4&#45;&gt;Node3 -->
<g id="edge3_Node000003_Node000004" class="edge">
<title>Node4&#45;&gt;Node3</title>
<g id="a_edge3_Node000003_Node000004"><a xlink:title=" ">
<path fill="none" stroke="#9a32cd" stroke-dasharray="5,2" d="M49.62,-272.28C49.62,-260.27 49.62,-245.74 49.62,-236.44"/>
<polygon fill="#9a32cd" stroke="#9a32cd" points="46.13,-272.03 49.63,-282.03 53.13,-272.03 46.13,-272.03"/>
</a>
</g>
<text text-anchor="middle" x="56.75" y="-256.5" font-family="Helvetica,sans-Serif" font-size="10.00" fill="grey"> val</text>
</g>
<!-- Node5&#45;&gt;Node1 -->
<g id="edge4_Node000001_Node000005" class="edge">
<title>Node5&#45;&gt;Node1</title>
<g id="a_edge4_Node000001_Node000005"><a xlink:title=" ">
<path fill="none" stroke="#9a32cd" stroke-dasharray="5,2" d="M115.83,-29.62C117.38,-32.3 118.72,-35.13 119.62,-38 122.84,-48.17 122.84,-51.83 119.62,-62 117.55,-68.56 113.24,-74.9 109.26,-79.79"/>
<polygon fill="#9a32cd" stroke="#9a32cd" points="118.72,-27.64 110.12,-21.45 112.98,-31.65 118.72,-27.64"/>
</a>
</g>
<text text-anchor="middle" x="132.5" y="-46.5" font-family="Helvetica,sans-Serif" font-size="10.00" fill="grey"> data</text>
</g>
<!-- Node6 -->
<g id="Node000006" class="node">
<title>Node6</title>
<g id="a_Node000006"><a xlink:title=" ">
<polygon fill="white" stroke="#666666" points="188,-168 117.25,-168 117.25,-148 188,-148 188,-168"/>
<text text-anchor="middle" x="152.62" y="-154.5" font-family="Helvetica,sans-Serif" font-size="10.00">zrtos_error_t</text>
</a>
</g>
</g>
<!-- Node6&#45;&gt;Node1 -->
<g id="edge6_Node000001_Node000006" class="edge">
<title>Node6&#45;&gt;Node1</title>
<g id="a_edge6_Node000001_Node000006"><a xlink:title=" ">
<path fill="none" stroke="#9a32cd" stroke-dasharray="5,2" d="M138.06,-138.52C128.3,-126.13 115.86,-110.33 108.06,-100.44"/>
<polygon fill="#9a32cd" stroke="#9a32cd" points="135.3,-140.67 144.24,-146.35 140.8,-136.33 135.3,-140.67"/>
</a>
</g>
<text text-anchor="middle" x="141.88" y="-120.5" font-family="Helvetica,sans-Serif" font-size="10.00" fill="grey"> error</text>
</g>
</g>
</svg>
