<?xml version="1.0" encoding="UTF-8" standalone="no"?>
<!DOCTYPE svg PUBLIC "-//W3C//DTD SVG 1.1//EN"
 "http://www.w3.org/Graphics/SVG/1.1/DTD/svg11.dtd">
<!-- Generated by graphviz version 2.40.1 (20161225.0304)
 -->
<!-- Title: zrtos_vfs_module_dns_header_t Pages: 1 -->
<svg width="348pt" height="157pt"
 viewBox="0.00 0.00 348.00 156.50" xmlns="http://www.w3.org/2000/svg" xmlns:xlink="http://www.w3.org/1999/xlink">
<g id="graph0" class="graph" transform="scale(1 1) rotate(0) translate(4 152.5)">
<title>zrtos_vfs_module_dns_header_t</title>
<polygon fill="#ffffff" stroke="transparent" points="-4,4 -4,-152.5 344,-152.5 344,4 -4,4"/>
<!-- Node1 -->
<g id="node1" class="node">
<title>Node1</title>
<polygon fill="#bfbfbf" stroke="#000000" points="225,-49.5 225,-79.5 340,-79.5 340,-49.5 225,-49.5"/>
<text text-anchor="start" x="233" y="-67.5" font-family="Helvetica,sans-Serif" font-size="10.00" fill="#000000">zrtos_vfs_module_dns</text>
<text text-anchor="middle" x="282.5" y="-56.5" font-family="Helvetica,sans-Serif" font-size="10.00" fill="#000000">_header_t</text>
</g>
<!-- Node2 -->
<g id="node2" class="node">
<title>Node2</title>
<polygon fill="#ffffff" stroke="#bfbfbf" points="32,-99 32,-118 83,-118 83,-99 32,-99"/>
<text text-anchor="middle" x="57.5" y="-106" font-family="Helvetica,sans-Serif" font-size="10.00" fill="#000000">uint16_t</text>
</g>
<!-- Node2&#45;&gt;Node1 -->
<g id="edge1" class="edge">
<title>Node2&#45;&gt;Node1</title>
<path fill="none" stroke="#9a32cd" stroke-dasharray="5,2" d="M93.2532,-101.6117C123.5455,-95.7642 168.128,-87.1316 207,-79.5 212.7699,-78.3672 218.7868,-77.1807 224.7953,-75.9924"/>
<polygon fill="#9a32cd" stroke="#9a32cd" points="92.323,-98.2265 83.1672,-103.5576 93.6492,-105.0997 92.323,-98.2265"/>
<text text-anchor="middle" x="170" y="-140.5" font-family="Helvetica,sans-Serif" font-size="10.00" fill="#000000"> answers_length</text>
<text text-anchor="middle" x="170" y="-129.5" font-family="Helvetica,sans-Serif" font-size="10.00" fill="#000000">id</text>
<text text-anchor="middle" x="170" y="-118.5" font-family="Helvetica,sans-Serif" font-size="10.00" fill="#000000">extrarr_length</text>
<text text-anchor="middle" x="170" y="-107.5" font-family="Helvetica,sans-Serif" font-size="10.00" fill="#000000">authrr_length</text>
<text text-anchor="middle" x="170" y="-96.5" font-family="Helvetica,sans-Serif" font-size="10.00" fill="#000000">questions_length</text>
</g>
<!-- Node3 -->
<g id="node3" class="node">
<title>Node3</title>
<polygon fill="#ffffff" stroke="#bfbfbf" points="0,-49.5 0,-79.5 115,-79.5 115,-49.5 0,-49.5"/>
<text text-anchor="start" x="8" y="-67.5" font-family="Helvetica,sans-Serif" font-size="10.00" fill="#000000">zrtos_vfs_module_dns</text>
<text text-anchor="middle" x="57.5" y="-56.5" font-family="Helvetica,sans-Serif" font-size="10.00" fill="#000000">_header_flags_1_t</text>
</g>
<!-- Node3&#45;&gt;Node1 -->
<g id="edge2" class="edge">
<title>Node3&#45;&gt;Node1</title>
<path fill="none" stroke="#9a32cd" stroke-dasharray="5,2" d="M125.2635,-64.5C157.0772,-64.5 194.5928,-64.5 224.999,-64.5"/>
<polygon fill="#9a32cd" stroke="#9a32cd" points="125.1509,-61.0001 115.1509,-64.5 125.1509,-68.0001 125.1509,-61.0001"/>
<text text-anchor="middle" x="170" y="-67.5" font-family="Helvetica,sans-Serif" font-size="10.00" fill="#000000"> flags1</text>
</g>
<!-- Node4 -->
<g id="node4" class="node">
<title>Node4</title>
<polygon fill="#ffffff" stroke="#bfbfbf" points="0,-.5 0,-30.5 115,-30.5 115,-.5 0,-.5"/>
<text text-anchor="start" x="8" y="-18.5" font-family="Helvetica,sans-Serif" font-size="10.00" fill="#000000">zrtos_vfs_module_dns</text>
<text text-anchor="middle" x="57.5" y="-7.5" font-family="Helvetica,sans-Serif" font-size="10.00" fill="#000000">_header_flags_0_t</text>
</g>
<!-- Node4&#45;&gt;Node1 -->
<g id="edge3" class="edge">
<title>Node4&#45;&gt;Node1</title>
<path fill="none" stroke="#9a32cd" stroke-dasharray="5,2" d="M125.2635,-30.2574C157.0772,-37.1857 194.5928,-45.3558 224.999,-51.9776"/>
<polygon fill="#9a32cd" stroke="#9a32cd" points="125.6667,-26.7632 115.1509,-28.0551 124.1771,-33.6029 125.6667,-26.7632"/>
<text text-anchor="middle" x="170" y="-50.5" font-family="Helvetica,sans-Serif" font-size="10.00" fill="#000000"> flags0</text>
</g>
</g>
</svg>
