<?xml version="1.0" encoding="UTF-8" standalone="no"?>
<!DOCTYPE svg PUBLIC "-//W3C//DTD SVG 1.1//EN"
 "http://www.w3.org/Graphics/SVG/1.1/DTD/svg11.dtd">
<!-- Generated by graphviz version 10.0.1 (20240210.2158)
 -->
<!-- Title: zrtos_vfs_plugin_t Pages: 1 -->
<svg width="350pt" height="327pt"
 viewBox="0.00 0.00 349.75 327.00" xmlns="http://www.w3.org/2000/svg" xmlns:xlink="http://www.w3.org/1999/xlink">
<g id="graph0" class="graph" transform="scale(1 1) rotate(0) translate(4 323)">
<title>zrtos_vfs_plugin_t</title>
<!-- Node1 -->
<g id="Node000001" class="node">
<title>Node1</title>
<g id="a_Node000001"><a xlink:title=" ">
<polygon fill="#999999" stroke="#666666" points="341.75,-192 248.5,-192 248.5,-172 341.75,-172 341.75,-192"/>
<text text-anchor="middle" x="295.12" y="-178.5" font-family="Helvetica,sans-Serif" font-size="10.00">zrtos_vfs_plugin_t</text>
</a>
</g>
</g>
<!-- Node2 -->
<g id="Node000002" class="node">
<title>Node2</title>
<g id="a_Node000002"><a xlink:title=" ">
<polygon fill="white" stroke="#666666" points="141.62,-316 28.12,-316 28.12,-284 141.62,-284 141.62,-316"/>
<text text-anchor="start" x="36.12" y="-302.5" font-family="Helvetica,sans-Serif" font-size="10.00">zrtos_error_t(*)(struct</text>
<text text-anchor="middle" x="84.88" y="-290.5" font-family="Helvetica,sans-Serif" font-size="10.00"> _zrtos_vfs_file_t *thiz)</text>
</a>
</g>
</g>
<!-- Node2&#45;&gt;Node1 -->
<g id="edge1_Node000001_Node000002" class="edge">
<title>Node2&#45;&gt;Node1</title>
<g id="a_edge1_Node000001_Node000002"><a xlink:title=" ">
<path fill="none" stroke="#9a32cd" stroke-dasharray="5,2" d="M152.87,-285.08C178.62,-277.3 207.36,-265.99 230.5,-250 254.44,-233.46 276.17,-206.56 286.96,-192.05"/>
<polygon fill="#9a32cd" stroke="#9a32cd" points="152.14,-281.64 143.5,-287.77 154.08,-288.37 152.14,-281.64"/>
</a>
</g>
<text text-anchor="middle" x="209.12" y="-309.5" font-family="Helvetica,sans-Serif" font-size="10.00" fill="grey"> can_read</text>
<text text-anchor="middle" x="209.12" y="-297.5" font-family="Helvetica,sans-Serif" font-size="10.00" fill="grey">can_write</text>
<text text-anchor="middle" x="209.12" y="-285.5" font-family="Helvetica,sans-Serif" font-size="10.00" fill="grey">close</text>
<text text-anchor="middle" x="209.12" y="-273.5" font-family="Helvetica,sans-Serif" font-size="10.00" fill="grey">open</text>
</g>
<!-- Node3 -->
<g id="Node000003" class="node">
<title>Node3</title>
<g id="a_Node000003"><a xlink:title=" ">
<polygon fill="white" stroke="#666666" points="149.12,-266 20.62,-266 20.62,-234 149.12,-234 149.12,-266"/>
<text text-anchor="start" x="28.62" y="-252.5" font-family="Helvetica,sans-Serif" font-size="10.00">zrtos_error_t(*)(struct</text>
<text text-anchor="middle" x="84.88" y="-240.5" font-family="Helvetica,sans-Serif" font-size="10.00"> _zrtos_vfs_dentry_t *thiz)</text>
</a>
</g>
</g>
<!-- Node3&#45;&gt;Node1 -->
<g id="edge2_Node000001_Node000003" class="edge">
<title>Node3&#45;&gt;Node1</title>
<g id="a_edge2_Node000001_Node000003"><a xlink:title=" ">
<path fill="none" stroke="#9a32cd" stroke-dasharray="5,2" d="M160.45,-231.59C183.15,-225.39 208.04,-218 230.5,-210 244.82,-204.9 260.46,-198.03 272.65,-192.38"/>
<polygon fill="#9a32cd" stroke="#9a32cd" points="159.71,-228.17 150.96,-234.14 161.52,-234.93 159.71,-228.17"/>
</a>
</g>
<text text-anchor="middle" x="209.12" y="-236.5" font-family="Helvetica,sans-Serif" font-size="10.00" fill="grey"> mount</text>
<text text-anchor="middle" x="209.12" y="-224.5" font-family="Helvetica,sans-Serif" font-size="10.00" fill="grey">umount</text>
</g>
<!-- Node4 -->
<g id="Node000004" class="node">
<title>Node4</title>
<g id="a_Node000004"><a xlink:title=" ">
<polygon fill="white" stroke="#666666" points="151.75,-216 18,-216 18,-148 151.75,-148 151.75,-216"/>
<text text-anchor="start" x="26" y="-202.5" font-family="Helvetica,sans-Serif" font-size="10.00">zrtos_error_t(*)(struct</text>
<text text-anchor="start" x="26" y="-190.5" font-family="Helvetica,sans-Serif" font-size="10.00"> _zrtos_vfs_file_t *thiz,</text>
<text text-anchor="start" x="26" y="-178.5" font-family="Helvetica,sans-Serif" font-size="10.00"> char *path, void *buf,</text>
<text text-anchor="start" x="26" y="-166.5" font-family="Helvetica,sans-Serif" font-size="10.00"> size_t len, zrtos_vfs_offset</text>
<text text-anchor="middle" x="84.88" y="-154.5" font-family="Helvetica,sans-Serif" font-size="10.00">_t offset, size_t *out)</text>
</a>
</g>
</g>
<!-- Node4&#45;&gt;Node1 -->
<g id="edge3_Node000001_Node000004" class="edge">
<title>Node4&#45;&gt;Node1</title>
<g id="a_edge3_Node000001_Node000004"><a xlink:title=" ">
<path fill="none" stroke="#9a32cd" stroke-dasharray="5,2" d="M163.26,-182C191.85,-182 223.31,-182 248.23,-182"/>
<polygon fill="#9a32cd" stroke="#9a32cd" points="163.57,-178.5 153.57,-182 163.57,-185.5 163.57,-178.5"/>
</a>
</g>
<text text-anchor="middle" x="209.12" y="-196.5" font-family="Helvetica,sans-Serif" font-size="10.00" fill="grey"> read</text>
<text text-anchor="middle" x="209.12" y="-184.5" font-family="Helvetica,sans-Serif" font-size="10.00" fill="grey">write</text>
</g>
<!-- Node5 -->
<g id="Node000005" class="node">
<title>Node5</title>
<g id="a_Node000005"><a xlink:title=" ">
<polygon fill="white" stroke="#666666" points="169.75,-130 0,-130 0,-74 169.75,-74 169.75,-130"/>
<text text-anchor="start" x="8" y="-116.5" font-family="Helvetica,sans-Serif" font-size="10.00">zrtos_error_t(*)(struct</text>
<text text-anchor="start" x="8" y="-104.5" font-family="Helvetica,sans-Serif" font-size="10.00"> _zrtos_vfs_file_t *thiz,</text>
<text text-anchor="start" x="8" y="-92.5" font-family="Helvetica,sans-Serif" font-size="10.00"> zrtos_vfs_offset_t offset,</text>
<text text-anchor="middle" x="84.88" y="-80.5" font-family="Helvetica,sans-Serif" font-size="10.00"> int whence, zrtos_vfs_offset_t *out)</text>
</a>
</g>
</g>
<!-- Node5&#45;&gt;Node1 -->
<g id="edge4_Node000001_Node000005" class="edge">
<title>Node5&#45;&gt;Node1</title>
<g id="a_edge4_Node000001_Node000005"><a xlink:title=" ">
<path fill="none" stroke="#9a32cd" stroke-dasharray="5,2" d="M170.47,-134.5C204.94,-147.74 242.38,-162.12 266.92,-171.55"/>
<polygon fill="#9a32cd" stroke="#9a32cd" points="171.89,-131.29 161.3,-130.97 169.38,-137.83 171.89,-131.29"/>
</a>
</g>
<text text-anchor="middle" x="209.12" y="-158.5" font-family="Helvetica,sans-Serif" font-size="10.00" fill="grey"> seek</text>
</g>
<!-- Node6 -->
<g id="Node000006" class="node">
<title>Node6</title>
<g id="a_Node000006"><a xlink:title=" ">
<polygon fill="white" stroke="#666666" points="143.88,-56 25.88,-56 25.88,0 143.88,0 143.88,-56"/>
<text text-anchor="start" x="33.88" y="-42.5" font-family="Helvetica,sans-Serif" font-size="10.00">zrtos_error_t(*)(struct</text>
<text text-anchor="start" x="33.88" y="-30.5" font-family="Helvetica,sans-Serif" font-size="10.00"> _zrtos_vfs_file_t *thiz,</text>
<text text-anchor="start" x="33.88" y="-18.5" font-family="Helvetica,sans-Serif" font-size="10.00"> char *path, int request,</text>
<text text-anchor="middle" x="84.88" y="-6.5" font-family="Helvetica,sans-Serif" font-size="10.00"> va_list args)</text>
</a>
</g>
</g>
<!-- Node6&#45;&gt;Node1 -->
<g id="edge5_Node000001_Node000006" class="edge">
<title>Node6&#45;&gt;Node1</title>
<g id="a_edge5_Node000001_Node000006"><a xlink:title=" ">
<path fill="none" stroke="#9a32cd" stroke-dasharray="5,2" d="M154,-55.65C159.46,-58.58 164.77,-61.7 169.75,-65 218.68,-97.42 266.32,-149.68 285.4,-171.7"/>
<polygon fill="#9a32cd" stroke="#9a32cd" points="155.93,-52.7 145.44,-51.27 152.75,-58.94 155.93,-52.7"/>
</a>
</g>
<text text-anchor="middle" x="209.12" y="-113.5" font-family="Helvetica,sans-Serif" font-size="10.00" fill="grey"> ioctl</text>
</g>
</g>
</svg>
