<?xml version="1.0" encoding="UTF-8" standalone="no"?>
<!DOCTYPE svg PUBLIC "-//W3C//DTD SVG 1.1//EN"
 "http://www.w3.org/Graphics/SVG/1.1/DTD/svg11.dtd">
<!-- Generated by graphviz version 2.40.1 (20161225.0304)
 -->
<!-- Title: _zrtos_vm_t Pages: 1 -->
<svg width="295pt" height="329pt"
 viewBox="0.00 0.00 295.00 329.00" xmlns="http://www.w3.org/2000/svg" xmlns:xlink="http://www.w3.org/1999/xlink">
<g id="graph0" class="graph" transform="scale(1 1) rotate(0) translate(4 325)">
<title>_zrtos_vm_t</title>
<polygon fill="#ffffff" stroke="transparent" points="-4,4 -4,-325 291,-325 291,4 -4,4"/>
<!-- Node1 -->
<g id="node1" class="node">
<title>Node1</title>
<polygon fill="#bfbfbf" stroke="#000000" points="121.5,-145.5 121.5,-164.5 192.5,-164.5 192.5,-145.5 121.5,-145.5"/>
<text text-anchor="middle" x="157" y="-152.5" font-family="Helvetica,sans-Serif" font-size="10.00" fill="#000000">_zrtos_vm_t</text>
</g>
<!-- Node6 -->
<g id="node6" class="node">
<title>Node6</title>
<g id="a_node6"><a xlink:href="struct__zrtos__vm__function__t.html" target="_top" xlink:title="_zrtos_vm_function_t">
<polygon fill="#ffffff" stroke="#000000" points="144,-78.5 144,-97.5 254,-97.5 254,-78.5 144,-78.5"/>
<text text-anchor="middle" x="199" y="-85.5" font-family="Helvetica,sans-Serif" font-size="10.00" fill="#000000">_zrtos_vm_function_t</text>
</a>
</g>
</g>
<!-- Node1&#45;&gt;Node6 -->
<g id="edge9" class="edge">
<title>Node1&#45;&gt;Node6</title>
<path fill="none" stroke="#9a32cd" stroke-dasharray="5,2" d="M168.5281,-136.6099C176.4457,-123.9795 186.6357,-107.7241 192.9936,-97.5817"/>
<polygon fill="#9a32cd" stroke="#9a32cd" points="165.3635,-135.0687 163.0176,-145.4005 171.2945,-138.7866 165.3635,-135.0687"/>
<text text-anchor="middle" x="201" y="-119" font-family="Helvetica,sans-Serif" font-size="10.00" fill="#000000"> callback</text>
</g>
<!-- Node2 -->
<g id="node2" class="node">
<title>Node2</title>
<g id="a_node2"><a xlink:href="struct__zrtos__stack__t.html" target="_top" xlink:title="_zrtos_stack_t">
<polygon fill="#ffffff" stroke="#000000" points="86.5,-223.5 86.5,-242.5 167.5,-242.5 167.5,-223.5 86.5,-223.5"/>
<text text-anchor="middle" x="127" y="-230.5" font-family="Helvetica,sans-Serif" font-size="10.00" fill="#000000">_zrtos_stack_t</text>
</a>
</g>
</g>
<!-- Node2&#45;&gt;Node1 -->
<g id="edge1" class="edge">
<title>Node2&#45;&gt;Node1</title>
<path fill="none" stroke="#9a32cd" stroke-dasharray="5,2" d="M123.9844,-213.2319C123.371,-203.7227 123.9068,-192.38 128,-183 131.191,-175.6876 137.2908,-169.3354 143.0759,-164.5382"/>
<polygon fill="#9a32cd" stroke="#9a32cd" points="120.5217,-213.765 125.0881,-223.3252 127.4802,-213.004 120.5217,-213.765"/>
<text text-anchor="middle" x="146" y="-197" font-family="Helvetica,sans-Serif" font-size="10.00" fill="#000000"> stack</text>
<text text-anchor="middle" x="146" y="-186" font-family="Helvetica,sans-Serif" font-size="10.00" fill="#000000">program</text>
</g>
<!-- Node3 -->
<g id="node3" class="node">
<title>Node3</title>
<polygon fill="#ffffff" stroke="#bfbfbf" points="32.5,-301.5 32.5,-320.5 83.5,-320.5 83.5,-301.5 32.5,-301.5"/>
<text text-anchor="middle" x="58" y="-308.5" font-family="Helvetica,sans-Serif" font-size="10.00" fill="#000000">uint16_t</text>
</g>
<!-- Node3&#45;&gt;Node2 -->
<g id="edge2" class="edge">
<title>Node3&#45;&gt;Node2</title>
<path fill="none" stroke="#9a32cd" stroke-dasharray="5,2" d="M73.087,-293.9451C86.9996,-278.2178 107.1566,-255.4316 118.47,-242.6426"/>
<polygon fill="#9a32cd" stroke="#9a32cd" points="70.465,-291.6267 66.4608,-301.4357 75.708,-296.2647 70.465,-291.6267"/>
<text text-anchor="middle" x="115" y="-275" font-family="Helvetica,sans-Serif" font-size="10.00" fill="#000000"> offset</text>
<text text-anchor="middle" x="115" y="-264" font-family="Helvetica,sans-Serif" font-size="10.00" fill="#000000">length</text>
</g>
<!-- Node5 -->
<g id="node5" class="node">
<title>Node5</title>
<g id="a_node5"><a xlink:href="struct__zrtos__vm__function__index__t.html" target="_top" xlink:title="_zrtos_vm_function\l_index_t">
<polygon fill="#ffffff" stroke="#000000" points="32,-.5 32,-30.5 134,-30.5 134,-.5 32,-.5"/>
<text text-anchor="start" x="40" y="-18.5" font-family="Helvetica,sans-Serif" font-size="10.00" fill="#000000">_zrtos_vm_function</text>
<text text-anchor="middle" x="83" y="-7.5" font-family="Helvetica,sans-Serif" font-size="10.00" fill="#000000">_index_t</text>
</a>
</g>
</g>
<!-- Node3&#45;&gt;Node5 -->
<g id="edge5" class="edge">
<title>Node3&#45;&gt;Node5</title>
<path fill="none" stroke="#9a32cd" stroke-dasharray="5,2" d="M36.0804,-294.6961C19.6543,-280.4491 0,-258.1479 0,-233 0,-233 0,-233 0,-88 0,-61.5966 24.1188,-42.5917 46.3534,-30.6813"/>
<polygon fill="#9a32cd" stroke="#9a32cd" points="34.299,-297.7607 44.2548,-301.3845 38.7318,-292.3431 34.299,-297.7607"/>
<text text-anchor="middle" x="15" y="-152.5" font-family="Helvetica,sans-Serif" font-size="10.00" fill="#000000"> length</text>
</g>
<!-- Node3&#45;&gt;Node6 -->
<g id="edge7" class="edge">
<title>Node3&#45;&gt;Node6</title>
<path fill="none" stroke="#9a32cd" stroke-dasharray="5,2" d="M59.5922,-291.1379C63.2614,-257.3853 75.0667,-188.2931 112,-145 130.1651,-123.7069 158.227,-107.3027 177.542,-97.673"/>
<polygon fill="#9a32cd" stroke="#9a32cd" points="56.1036,-290.8534 58.6353,-301.1413 63.0717,-291.5201 56.1036,-290.8534"/>
<text text-anchor="middle" x="93.5" y="-191.5" font-family="Helvetica,sans-Serif" font-size="10.00" fill="#000000"> id</text>
</g>
<!-- Node4 -->
<g id="node4" class="node">
<title>Node4</title>
<polygon fill="#ffffff" stroke="#bfbfbf" points="213.5,-301.5 213.5,-320.5 254.5,-320.5 254.5,-301.5 213.5,-301.5"/>
<text text-anchor="middle" x="234" y="-308.5" font-family="Helvetica,sans-Serif" font-size="10.00" fill="#000000">void *</text>
</g>
<!-- Node4&#45;&gt;Node2 -->
<g id="edge3" class="edge">
<title>Node4&#45;&gt;Node2</title>
<path fill="none" stroke="#9a32cd" stroke-dasharray="5,2" d="M212.6517,-295.4377C191.0511,-279.6914 158.3349,-255.8423 140.2276,-242.6426"/>
<polygon fill="#9a32cd" stroke="#9a32cd" points="210.7371,-298.3732 220.8797,-301.4357 214.8606,-292.7166 210.7371,-298.3732"/>
<text text-anchor="middle" x="204" y="-269.5" font-family="Helvetica,sans-Serif" font-size="10.00" fill="#000000"> data</text>
</g>
<!-- Node4&#45;&gt;Node6 -->
<g id="edge8" class="edge">
<title>Node4&#45;&gt;Node6</title>
<path fill="none" stroke="#9a32cd" stroke-dasharray="5,2" d="M239.7568,-291.5377C246.4083,-266.3653 255.6376,-221.2131 249,-183 243.5868,-151.8361 241.4296,-143.0289 225,-116 220.8652,-109.1977 214.8939,-102.6202 209.7163,-97.5514"/>
<polygon fill="#9a32cd" stroke="#9a32cd" points="236.3457,-290.7406 237.033,-301.3131 243.0888,-292.6195 236.3457,-290.7406"/>
<text text-anchor="middle" x="269" y="-191.5" font-family="Helvetica,sans-Serif" font-size="10.00" fill="#000000"> context</text>
</g>
<!-- Node5&#45;&gt;Node1 -->
<g id="edge4" class="edge">
<title>Node5&#45;&gt;Node1</title>
<path fill="none" stroke="#9a32cd" stroke-dasharray="5,2" d="M81.1201,-41.0586C80.9524,-58.0961 82.8896,-80.4907 92,-98 102.8767,-118.9039 124.8598,-135.6063 140.2358,-145.3984"/>
<polygon fill="#9a32cd" stroke="#9a32cd" points="84.6291,-40.8574 81.48,-30.7414 77.6334,-40.6132 84.6291,-40.8574"/>
<text text-anchor="middle" x="113.5" y="-85.5" font-family="Helvetica,sans-Serif" font-size="10.00" fill="#000000"> functions</text>
</g>
<!-- Node6&#45;&gt;Node5 -->
<g id="edge6" class="edge">
<title>Node6&#45;&gt;Node5</title>
<path fill="none" stroke="#9a32cd" stroke-dasharray="5,2" d="M174.613,-72.7581C154.8142,-60.3839 127.0358,-43.0224 107.2688,-30.668"/>
<polygon fill="#9a32cd" stroke="#9a32cd" points="173.0207,-75.8903 183.3557,-78.2223 176.7307,-69.9543 173.0207,-75.8903"/>
<text text-anchor="middle" x="159.5" y="-52" font-family="Helvetica,sans-Serif" font-size="10.00" fill="#000000"> arr</text>
</g>
<!-- Node7 -->
<g id="node7" class="node">
<title>Node7</title>
<polygon fill="#ffffff" stroke="#bfbfbf" points="185.5,-223.5 185.5,-242.5 220.5,-242.5 220.5,-223.5 185.5,-223.5"/>
<text text-anchor="middle" x="203" y="-230.5" font-family="Helvetica,sans-Serif" font-size="10.00" fill="#000000">bool</text>
</g>
<!-- Node7&#45;&gt;Node1 -->
<g id="edge10" class="edge">
<title>Node7&#45;&gt;Node1</title>
<path fill="none" stroke="#9a32cd" stroke-dasharray="5,2" d="M192.1669,-214.6308C182.9317,-198.9711 170.0213,-177.0796 162.6866,-164.6426"/>
<polygon fill="#9a32cd" stroke="#9a32cd" points="189.2648,-216.6 197.3595,-223.4357 195.2944,-213.044 189.2648,-216.6"/>
<text text-anchor="middle" x="216" y="-191.5" font-family="Helvetica,sans-Serif" font-size="10.00" fill="#000000"> is_interrupted</text>
</g>
</g>
</svg>
