<?xml version="1.0" encoding="UTF-8" standalone="no"?>
<!DOCTYPE svg PUBLIC "-//W3C//DTD SVG 1.1//EN"
 "http://www.w3.org/Graphics/SVG/1.1/DTD/svg11.dtd">
<!-- Generated by graphviz version 2.40.1 (20161225.0304)
 -->
<!-- Title: _zrtos_vfs_dentry_t Pages: 1 -->
<svg width="691pt" height="317pt"
 viewBox="0.00 0.00 691.00 316.50" xmlns="http://www.w3.org/2000/svg" xmlns:xlink="http://www.w3.org/1999/xlink">
<g id="graph0" class="graph" transform="scale(1 1) rotate(0) translate(4 312.5)">
<title>_zrtos_vfs_dentry_t</title>
<polygon fill="#ffffff" stroke="transparent" points="-4,4 -4,-312.5 687,-312.5 687,4 -4,4"/>
<!-- Node1 -->
<g id="node1" class="node">
<title>Node1</title>
<polygon fill="#bfbfbf" stroke="#000000" points="580,-86.5 580,-105.5 683,-105.5 683,-86.5 580,-86.5"/>
<text text-anchor="middle" x="631.5" y="-93.5" font-family="Helvetica,sans-Serif" font-size="10.00" fill="#000000">_zrtos_vfs_dentry_t</text>
</g>
<!-- Node1&#45;&gt;Node1 -->
<g id="edge9" class="edge">
<title>Node1&#45;&gt;Node1</title>
<path fill="none" stroke="#9a32cd" stroke-dasharray="5,2" d="M616.3992,-115.7663C617.5852,-120.4965 622.6188,-124 631.5,-124 646.0742,-124 650.2871,-114.5653 644.1386,-105.7571"/>
<polygon fill="#9a32cd" stroke="#9a32cd" points="619.8713,-116.3037 618.8614,-105.7571 613.0739,-114.6315 619.8713,-116.3037"/>
<text text-anchor="middle" x="631.5" y="-127" font-family="Helvetica,sans-Serif" font-size="10.00" fill="#000000"> parent</text>
</g>
<!-- Node2 -->
<g id="node2" class="node">
<title>Node2</title>
<g id="a_node2"><a xlink:href="struct__zrtos__vfs__inode__t.html" target="_top" xlink:title="_zrtos_vfs_inode_t">
<polygon fill="#ffffff" stroke="#000000" points="416,-143.5 416,-162.5 515,-162.5 515,-143.5 416,-143.5"/>
<text text-anchor="middle" x="465.5" y="-150.5" font-family="Helvetica,sans-Serif" font-size="10.00" fill="#000000">_zrtos_vfs_inode_t</text>
</a>
</g>
</g>
<!-- Node2&#45;&gt;Node1 -->
<g id="edge1" class="edge">
<title>Node2&#45;&gt;Node1</title>
<path fill="none" stroke="#9a32cd" stroke-dasharray="5,2" d="M505.0069,-140.1474C522.5036,-134.3914 543.3131,-127.4582 562,-121 576.4222,-116.0157 592.4538,-110.2633 605.4822,-105.5338"/>
<polygon fill="#9a32cd" stroke="#9a32cd" points="503.5398,-136.9451 495.129,-143.3879 505.7218,-143.5963 503.5398,-136.9451"/>
<text text-anchor="middle" x="548" y="-132" font-family="Helvetica,sans-Serif" font-size="10.00" fill="#000000"> inode</text>
</g>
<!-- Node3 -->
<g id="node3" class="node">
<title>Node3</title>
<g id="a_node3"><a xlink:href="structzrtos__vfs__plugin__t.html" target="_top" xlink:title="zrtos_vfs_plugin_t">
<polygon fill="#ffffff" stroke="#000000" points="254,-163.5 254,-182.5 350,-182.5 350,-163.5 254,-163.5"/>
<text text-anchor="middle" x="302" y="-170.5" font-family="Helvetica,sans-Serif" font-size="10.00" fill="#000000">zrtos_vfs_plugin_t</text>
</a>
</g>
</g>
<!-- Node3&#45;&gt;Node2 -->
<g id="edge2" class="edge">
<title>Node3&#45;&gt;Node2</title>
<path fill="none" stroke="#9a32cd" stroke-dasharray="5,2" d="M360.1142,-165.8912C378.3776,-163.6572 398.3629,-161.2125 415.9731,-159.0583"/>
<polygon fill="#9a32cd" stroke="#9a32cd" points="359.6721,-162.4191 350.1711,-167.1075 360.5221,-169.3673 359.6721,-162.4191"/>
<text text-anchor="middle" x="382.5" y="-167" font-family="Helvetica,sans-Serif" font-size="10.00" fill="#000000"> plugin</text>
</g>
<!-- Node4 -->
<g id="node4" class="node">
<title>Node4</title>
<polygon fill="#ffffff" stroke="#bfbfbf" points="29,-278 29,-308 146,-308 146,-278 29,-278"/>
<text text-anchor="start" x="37" y="-296" font-family="Helvetica,sans-Serif" font-size="10.00" fill="#000000">zrtos_error_t(*)(struct</text>
<text text-anchor="middle" x="87.5" y="-285" font-family="Helvetica,sans-Serif" font-size="10.00" fill="#000000"> _zrtos_vfs_file_t *thiz)</text>
</g>
<!-- Node4&#45;&gt;Node3 -->
<g id="edge3" class="edge">
<title>Node4&#45;&gt;Node3</title>
<path fill="none" stroke="#9a32cd" stroke-dasharray="5,2" d="M156.0447,-276.766C162.5678,-274.4602 168.9855,-271.8779 175,-269 223.6172,-245.737 271.8565,-202.213 292.0852,-182.792"/>
<polygon fill="#9a32cd" stroke="#9a32cd" points="154.8369,-273.4791 146.4467,-279.9487 157.0401,-280.1233 154.8369,-273.4791"/>
<text text-anchor="middle" x="214.5" y="-294" font-family="Helvetica,sans-Serif" font-size="10.00" fill="#000000"> close</text>
<text text-anchor="middle" x="214.5" y="-283" font-family="Helvetica,sans-Serif" font-size="10.00" fill="#000000">can_read</text>
<text text-anchor="middle" x="214.5" y="-272" font-family="Helvetica,sans-Serif" font-size="10.00" fill="#000000">can_write</text>
<text text-anchor="middle" x="214.5" y="-261" font-family="Helvetica,sans-Serif" font-size="10.00" fill="#000000">open</text>
</g>
<!-- Node5 -->
<g id="node5" class="node">
<title>Node5</title>
<polygon fill="#ffffff" stroke="#bfbfbf" points="0,-207 0,-259 175,-259 175,-207 0,-207"/>
<text text-anchor="start" x="8" y="-247" font-family="Helvetica,sans-Serif" font-size="10.00" fill="#000000">zrtos_error_t(*)(struct</text>
<text text-anchor="start" x="8" y="-236" font-family="Helvetica,sans-Serif" font-size="10.00" fill="#000000"> _zrtos_vfs_file_t *thiz,</text>
<text text-anchor="start" x="8" y="-225" font-family="Helvetica,sans-Serif" font-size="10.00" fill="#000000"> zrtos_vfs_offset_t offset,</text>
<text text-anchor="middle" x="87.5" y="-214" font-family="Helvetica,sans-Serif" font-size="10.00" fill="#000000"> int whence, zrtos_vfs_offset_t *out)</text>
</g>
<!-- Node5&#45;&gt;Node3 -->
<g id="edge4" class="edge">
<title>Node5&#45;&gt;Node3</title>
<path fill="none" stroke="#9a32cd" stroke-dasharray="5,2" d="M185.2181,-212.8295C202.2643,-208.6857 219.7372,-204.0338 236,-199 251.0588,-194.3389 267.5588,-187.8389 280.2941,-182.5042"/>
<polygon fill="#9a32cd" stroke="#9a32cd" points="184.1578,-209.4842 175.2432,-215.2097 185.7825,-216.293 184.1578,-209.4842"/>
<text text-anchor="middle" x="214.5" y="-213" font-family="Helvetica,sans-Serif" font-size="10.00" fill="#000000"> seek</text>
</g>
<!-- Node6 -->
<g id="node6" class="node">
<title>Node6</title>
<polygon fill="#ffffff" stroke="#bfbfbf" points="22,-158 22,-188 153,-188 153,-158 22,-158"/>
<text text-anchor="start" x="30" y="-176" font-family="Helvetica,sans-Serif" font-size="10.00" fill="#000000">zrtos_error_t(*)(struct</text>
<text text-anchor="middle" x="87.5" y="-165" font-family="Helvetica,sans-Serif" font-size="10.00" fill="#000000"> _zrtos_vfs_dentry_t *thiz)</text>
</g>
<!-- Node6&#45;&gt;Node3 -->
<g id="edge5" class="edge">
<title>Node6&#45;&gt;Node3</title>
<path fill="none" stroke="#9a32cd" stroke-dasharray="5,2" d="M163.1049,-173C193.2963,-173 227.1625,-173 253.8954,-173"/>
<polygon fill="#9a32cd" stroke="#9a32cd" points="163.0226,-169.5001 153.0226,-173 163.0226,-176.5001 163.0226,-169.5001"/>
<text text-anchor="middle" x="214.5" y="-187" font-family="Helvetica,sans-Serif" font-size="10.00" fill="#000000"> mount</text>
<text text-anchor="middle" x="214.5" y="-176" font-family="Helvetica,sans-Serif" font-size="10.00" fill="#000000">umount</text>
</g>
<!-- Node7 -->
<g id="node7" class="node">
<title>Node7</title>
<polygon fill="#ffffff" stroke="#bfbfbf" points="28,-87 28,-139 147,-139 147,-87 28,-87"/>
<text text-anchor="start" x="36" y="-127" font-family="Helvetica,sans-Serif" font-size="10.00" fill="#000000">zrtos_error_t(*)(struct</text>
<text text-anchor="start" x="36" y="-116" font-family="Helvetica,sans-Serif" font-size="10.00" fill="#000000"> _zrtos_vfs_file_t *thiz,</text>
<text text-anchor="start" x="36" y="-105" font-family="Helvetica,sans-Serif" font-size="10.00" fill="#000000"> char *path, int request,</text>
<text text-anchor="middle" x="87.5" y="-94" font-family="Helvetica,sans-Serif" font-size="10.00" fill="#000000"> va_list args)</text>
</g>
<!-- Node7&#45;&gt;Node3 -->
<g id="edge6" class="edge">
<title>Node7&#45;&gt;Node3</title>
<path fill="none" stroke="#9a32cd" stroke-dasharray="5,2" d="M157.0252,-132.4476C194.1622,-142.8356 238.215,-155.158 267.9341,-163.4711"/>
<polygon fill="#9a32cd" stroke="#9a32cd" points="157.8234,-129.0366 147.2502,-129.7133 155.9377,-135.7778 157.8234,-129.0366"/>
<text text-anchor="middle" x="214.5" y="-156" font-family="Helvetica,sans-Serif" font-size="10.00" fill="#000000"> ioctl</text>
</g>
<!-- Node8 -->
<g id="node8" class="node">
<title>Node8</title>
<polygon fill="#ffffff" stroke="#bfbfbf" points="18.5,-4.5 18.5,-67.5 156.5,-67.5 156.5,-4.5 18.5,-4.5"/>
<text text-anchor="start" x="26.5" y="-55.5" font-family="Helvetica,sans-Serif" font-size="10.00" fill="#000000">zrtos_error_t(*)(struct</text>
<text text-anchor="start" x="26.5" y="-44.5" font-family="Helvetica,sans-Serif" font-size="10.00" fill="#000000"> _zrtos_vfs_file_t *thiz,</text>
<text text-anchor="start" x="26.5" y="-33.5" font-family="Helvetica,sans-Serif" font-size="10.00" fill="#000000"> char *path, void *buf,</text>
<text text-anchor="start" x="26.5" y="-22.5" font-family="Helvetica,sans-Serif" font-size="10.00" fill="#000000"> size_t len, zrtos_vfs_offset</text>
<text text-anchor="middle" x="87.5" y="-11.5" font-family="Helvetica,sans-Serif" font-size="10.00" fill="#000000">_t offset, size_t *out)</text>
</g>
<!-- Node8&#45;&gt;Node3 -->
<g id="edge7" class="edge">
<title>Node8&#45;&gt;Node3</title>
<path fill="none" stroke="#9a32cd" stroke-dasharray="5,2" d="M164.3558,-72.2315C167.9742,-74.1436 171.5383,-76.0719 175,-78 203.1121,-93.6578 214.6044,-92.9649 236,-117 248.1592,-130.6592 240.5879,-141.5688 254,-154 258.0754,-157.7773 262.9922,-160.8395 268.1038,-163.3113"/>
<polygon fill="#9a32cd" stroke="#9a32cd" points="165.7652,-69.0197 155.2769,-67.521 162.5414,-75.2332 165.7652,-69.0197"/>
<text text-anchor="middle" x="214.5" y="-131" font-family="Helvetica,sans-Serif" font-size="10.00" fill="#000000"> read</text>
<text text-anchor="middle" x="214.5" y="-120" font-family="Helvetica,sans-Serif" font-size="10.00" fill="#000000">write</text>
</g>
<!-- Node9 -->
<g id="node9" class="node">
<title>Node9</title>
<polygon fill="#ffffff" stroke="#bfbfbf" points="281.5,-125.5 281.5,-144.5 322.5,-144.5 322.5,-125.5 281.5,-125.5"/>
<text text-anchor="middle" x="302" y="-132.5" font-family="Helvetica,sans-Serif" font-size="10.00" fill="#000000">void *</text>
</g>
<!-- Node9&#45;&gt;Node2 -->
<g id="edge8" class="edge">
<title>Node9&#45;&gt;Node2</title>
<path fill="none" stroke="#9a32cd" stroke-dasharray="5,2" d="M333.1007,-134.5441C351.7063,-134.6285 375.7823,-135.3647 397,-138 407.1483,-139.2605 418.0119,-141.3087 428.0288,-143.4921"/>
<polygon fill="#9a32cd" stroke="#9a32cd" points="332.8356,-131.0444 322.8411,-134.5603 332.8467,-138.0444 332.8356,-131.0444"/>
<text text-anchor="middle" x="382.5" y="-141" font-family="Helvetica,sans-Serif" font-size="10.00" fill="#000000"> ctx</text>
</g>
<!-- Node10 -->
<g id="node10" class="node">
<title>Node10</title>
<polygon fill="#ffffff" stroke="#bfbfbf" points="440,-105.5 440,-124.5 491,-124.5 491,-105.5 440,-105.5"/>
<text text-anchor="middle" x="465.5" y="-112.5" font-family="Helvetica,sans-Serif" font-size="10.00" fill="#000000">uint16_t</text>
</g>
<!-- Node10&#45;&gt;Node1 -->
<g id="edge10" class="edge">
<title>Node10&#45;&gt;Node1</title>
<path fill="none" stroke="#9a32cd" stroke-dasharray="5,2" d="M501.0566,-110.9303C523.9916,-108.3052 554.2034,-104.8472 579.7756,-101.9203"/>
<polygon fill="#9a32cd" stroke="#9a32cd" points="500.6108,-107.4583 491.0737,-112.0729 501.4069,-114.4129 500.6108,-107.4583"/>
<text text-anchor="middle" x="548" y="-109" font-family="Helvetica,sans-Serif" font-size="10.00" fill="#000000"> count</text>
</g>
<!-- Node11 -->
<g id="node11" class="node">
<title>Node11</title>
<polygon fill="#ffffff" stroke="#bfbfbf" points="448,-67.5 448,-86.5 483,-86.5 483,-67.5 448,-67.5"/>
<text text-anchor="middle" x="465.5" y="-74.5" font-family="Helvetica,sans-Serif" font-size="10.00" fill="#000000">char</text>
</g>
<!-- Node11&#45;&gt;Node1 -->
<g id="edge11" class="edge">
<title>Node11&#45;&gt;Node1</title>
<path fill="none" stroke="#9a32cd" stroke-dasharray="5,2" d="M493.2446,-80.1756C516.7549,-82.8665 551.103,-86.7979 579.6807,-90.0689"/>
<polygon fill="#9a32cd" stroke="#9a32cd" points="493.5981,-76.6933 483.2649,-79.0333 492.802,-83.6479 493.5981,-76.6933"/>
<text text-anchor="middle" x="548" y="-90" font-family="Helvetica,sans-Serif" font-size="10.00" fill="#000000"> name</text>
</g>
<!-- Node12 -->
<g id="node12" class="node">
<title>Node12</title>
<g id="a_node12"><a xlink:href="struct__zrtos__clist__node__t.html" target="_top" xlink:title="_zrtos_clist_node_t">
<polygon fill="#ffffff" stroke="#000000" points="415,-.5 415,-19.5 516,-19.5 516,-.5 415,-.5"/>
<text text-anchor="middle" x="465.5" y="-7.5" font-family="Helvetica,sans-Serif" font-size="10.00" fill="#000000">_zrtos_clist_node_t</text>
</a>
</g>
</g>
<!-- Node12&#45;&gt;Node1 -->
<g id="edge12" class="edge">
<title>Node12&#45;&gt;Node1</title>
<path fill="none" stroke="#9a32cd" stroke-dasharray="5,2" d="M492.8219,-24.1547C526.7759,-41.7454 583.7996,-71.2877 613.0184,-86.4252"/>
<polygon fill="#9a32cd" stroke="#9a32cd" points="494.3884,-21.0245 483.8992,-19.5321 491.1683,-27.2399 494.3884,-21.0245"/>
<text text-anchor="middle" x="548" y="-61" font-family="Helvetica,sans-Serif" font-size="10.00" fill="#000000"> node</text>
</g>
<!-- Node12&#45;&gt;Node12 -->
<g id="edge13" class="edge">
<title>Node12&#45;&gt;Node12</title>
<path fill="none" stroke="#9a32cd" stroke-dasharray="5,2" d="M450.3992,-29.7663C451.5852,-34.4965 456.6188,-38 465.5,-38 480.0742,-38 484.2871,-28.5653 478.1386,-19.7571"/>
<polygon fill="#9a32cd" stroke="#9a32cd" points="453.8713,-30.3037 452.8614,-19.7571 447.0739,-28.6315 453.8713,-30.3037"/>
<text text-anchor="middle" x="465.5" y="-41" font-family="Helvetica,sans-Serif" font-size="10.00" fill="#000000"> next</text>
</g>
</g>
</svg>
