<?xml version="1.0" encoding="UTF-8" standalone="no"?>
<!DOCTYPE svg PUBLIC "-//W3C//DTD SVG 1.1//EN"
 "http://www.w3.org/Graphics/SVG/1.1/DTD/svg11.dtd">
<!-- Generated by graphviz version 2.40.1 (20161225.0304)
 -->
<!-- Title: _zrtos_vfs_module_spi_inode_t Pages: 1 -->
<svg width="831pt" height="644pt"
 viewBox="0.00 0.00 831.00 643.50" xmlns="http://www.w3.org/2000/svg" xmlns:xlink="http://www.w3.org/1999/xlink">
<g id="graph0" class="graph" transform="scale(1 1) rotate(0) translate(4 639.5)">
<title>_zrtos_vfs_module_spi_inode_t</title>
<polygon fill="#ffffff" stroke="transparent" points="-4,4 -4,-639.5 827,-639.5 827,4 -4,4"/>
<!-- Node1 -->
<g id="node1" class="node">
<title>Node1</title>
<polygon fill="#bfbfbf" stroke="#000000" points="706,-406.5 706,-436.5 823,-436.5 823,-406.5 706,-406.5"/>
<text text-anchor="start" x="714" y="-424.5" font-family="Helvetica,sans-Serif" font-size="10.00" fill="#000000">_zrtos_vfs_module_spi</text>
<text text-anchor="middle" x="764.5" y="-413.5" font-family="Helvetica,sans-Serif" font-size="10.00" fill="#000000">_inode_t</text>
</g>
<!-- Node2 -->
<g id="node2" class="node">
<title>Node2</title>
<g id="a_node2"><a xlink:href="struct__zrtos__vfs__module__spi__file__t.html" target="_top" xlink:title="_zrtos_vfs_module_spi\l_file_t">
<polygon fill="#ffffff" stroke="#000000" points="525,-484.5 525,-514.5 642,-514.5 642,-484.5 525,-484.5"/>
<text text-anchor="start" x="533" y="-502.5" font-family="Helvetica,sans-Serif" font-size="10.00" fill="#000000">_zrtos_vfs_module_spi</text>
<text text-anchor="middle" x="583.5" y="-491.5" font-family="Helvetica,sans-Serif" font-size="10.00" fill="#000000">_file_t</text>
</a>
</g>
</g>
<!-- Node2&#45;&gt;Node1 -->
<g id="edge1" class="edge">
<title>Node2&#45;&gt;Node1</title>
<path fill="none" stroke="#9a32cd" stroke-dasharray="5,2" d="M627.7572,-480.4278C659.0351,-466.9489 700.3898,-449.1276 729.4002,-436.6259"/>
<polygon fill="#9a32cd" stroke="#9a32cd" points="626.197,-477.289 618.3986,-484.4608 628.9674,-483.7174 626.197,-477.289"/>
<text text-anchor="middle" x="674" y="-467.5" font-family="Helvetica,sans-Serif" font-size="10.00" fill="#000000"> last</text>
</g>
<!-- Node3 -->
<g id="node3" class="node">
<title>Node3</title>
<polygon fill="#ffffff" stroke="#bfbfbf" points="298,-614 298,-633 410,-633 410,-614 298,-614"/>
<text text-anchor="middle" x="354" y="-621" font-family="Helvetica,sans-Serif" font-size="10.00" fill="#000000">zrtos_arch_gpio_pin_t</text>
</g>
<!-- Node3&#45;&gt;Node1 -->
<g id="edge12" class="edge">
<title>Node3&#45;&gt;Node1</title>
<path fill="none" stroke="#9a32cd" stroke-dasharray="5,2" d="M420.4727,-625.3462C447.8797,-624.3123 479.5768,-620.7513 507,-611.5 615.1801,-575.0049 715.6089,-474.6689 751.0215,-436.5033"/>
<polygon fill="#9a32cd" stroke="#9a32cd" points="420.0978,-621.855 410.1966,-625.6253 420.288,-628.8524 420.0978,-621.855"/>
<text text-anchor="middle" x="583.5" y="-627.5" font-family="Helvetica,sans-Serif" font-size="10.00" fill="#000000"> pin_miso</text>
<text text-anchor="middle" x="583.5" y="-616.5" font-family="Helvetica,sans-Serif" font-size="10.00" fill="#000000">pin_mosi</text>
<text text-anchor="middle" x="583.5" y="-605.5" font-family="Helvetica,sans-Serif" font-size="10.00" fill="#000000">pin_sclk</text>
</g>
<!-- Node3&#45;&gt;Node2 -->
<g id="edge2" class="edge">
<title>Node3&#45;&gt;Node2</title>
<path fill="none" stroke="#9a32cd" stroke-dasharray="5,2" d="M407.1644,-611.3669C437.8447,-602.8719 476.3045,-589.5878 507,-570.5 532.0815,-554.9032 556.2372,-530.3838 570.4778,-514.6273"/>
<polygon fill="#9a32cd" stroke="#9a32cd" points="406.2494,-607.9885 397.4964,-613.958 408.0616,-614.7499 406.2494,-607.9885"/>
<text text-anchor="middle" x="478" y="-599.5" font-family="Helvetica,sans-Serif" font-size="10.00" fill="#000000"> pin_cs</text>
</g>
<!-- Node4 -->
<g id="node4" class="node">
<title>Node4</title>
<polygon fill="#ffffff" stroke="#bfbfbf" points="298,-521.5 298,-551.5 410,-551.5 410,-521.5 298,-521.5"/>
<text text-anchor="start" x="306" y="-539.5" font-family="Helvetica,sans-Serif" font-size="10.00" fill="#000000">zrtos_vfs_module_spi</text>
<text text-anchor="middle" x="354" y="-528.5" font-family="Helvetica,sans-Serif" font-size="10.00" fill="#000000">_control_t</text>
</g>
<!-- Node4&#45;&gt;Node2 -->
<g id="edge3" class="edge">
<title>Node4&#45;&gt;Node2</title>
<path fill="none" stroke="#9a32cd" stroke-dasharray="5,2" d="M420.1634,-525.8331C453.1865,-520.5091 492.7941,-514.1236 524.7356,-508.974"/>
<polygon fill="#9a32cd" stroke="#9a32cd" points="419.4574,-522.4017 410.142,-527.4488 420.5716,-529.3124 419.4574,-522.4017"/>
<text text-anchor="middle" x="478" y="-522.5" font-family="Helvetica,sans-Serif" font-size="10.00" fill="#000000"> control</text>
</g>
<!-- Node5 -->
<g id="node5" class="node">
<title>Node5</title>
<polygon fill="#ffffff" stroke="#bfbfbf" points="318.5,-483 318.5,-502 389.5,-502 389.5,-483 318.5,-483"/>
<text text-anchor="middle" x="354" y="-490" font-family="Helvetica,sans-Serif" font-size="10.00" fill="#000000">zrtos_error_t</text>
</g>
<!-- Node5&#45;&gt;Node2 -->
<g id="edge4" class="edge">
<title>Node5&#45;&gt;Node2</title>
<path fill="none" stroke="#9a32cd" stroke-dasharray="5,2" d="M399.7792,-493.8963C435.6187,-494.9895 485.7293,-496.5179 524.5646,-497.7024"/>
<polygon fill="#9a32cd" stroke="#9a32cd" points="399.7097,-490.3927 389.6076,-493.5861 399.4962,-497.3894 399.7097,-490.3927"/>
<text text-anchor="middle" x="478" y="-499.5" font-family="Helvetica,sans-Serif" font-size="10.00" fill="#000000"> error</text>
</g>
<!-- Node6 -->
<g id="node6" class="node">
<title>Node6</title>
<g id="a_node6"><a xlink:href="struct__zrtos__cbuffer__t.html" target="_top" xlink:title="_zrtos_cbuffer_t">
<polygon fill="#ffffff" stroke="#000000" points="310.5,-445 310.5,-464 397.5,-464 397.5,-445 310.5,-445"/>
<text text-anchor="middle" x="354" y="-452" font-family="Helvetica,sans-Serif" font-size="10.00" fill="#000000">_zrtos_cbuffer_t</text>
</a>
</g>
</g>
<!-- Node6&#45;&gt;Node2 -->
<g id="edge5" class="edge">
<title>Node6&#45;&gt;Node2</title>
<path fill="none" stroke="#9a32cd" stroke-dasharray="5,2" d="M407.8568,-456.1519C437.4488,-457.9622 474.6156,-461.7215 507,-469.5 521.8425,-473.065 537.6419,-478.8909 551.0055,-484.4648"/>
<polygon fill="#9a32cd" stroke="#9a32cd" points="407.9045,-452.6493 397.7259,-455.5895 407.5165,-459.6385 407.9045,-452.6493"/>
<text text-anchor="middle" x="478" y="-483.5" font-family="Helvetica,sans-Serif" font-size="10.00" fill="#000000"> cbuffer_in</text>
<text text-anchor="middle" x="478" y="-472.5" font-family="Helvetica,sans-Serif" font-size="10.00" fill="#000000">cbuffer_out</text>
</g>
<!-- Node7 -->
<g id="node7" class="node">
<title>Node7</title>
<g id="a_node7"><a xlink:href="struct__zrtos__list__t.html" target="_top" xlink:title="_zrtos_list_t">
<polygon fill="#ffffff" stroke="#000000" points="151,-445 151,-464 221,-464 221,-445 151,-445"/>
<text text-anchor="middle" x="186" y="-452" font-family="Helvetica,sans-Serif" font-size="10.00" fill="#000000">_zrtos_list_t</text>
</a>
</g>
</g>
<!-- Node7&#45;&gt;Node6 -->
<g id="edge6" class="edge">
<title>Node7&#45;&gt;Node6</title>
<path fill="none" stroke="#9a32cd" stroke-dasharray="5,2" d="M231.3731,-454.5C255.952,-454.5 286.1715,-454.5 310.461,-454.5"/>
<polygon fill="#9a32cd" stroke="#9a32cd" points="231.2183,-451.0001 221.2183,-454.5 231.2183,-458.0001 231.2183,-451.0001"/>
<text text-anchor="middle" x="249" y="-457.5" font-family="Helvetica,sans-Serif" font-size="10.00" fill="#000000"> root</text>
</g>
<!-- Node8 -->
<g id="node8" class="node">
<title>Node8</title>
<g id="a_node8"><a xlink:href="struct__zrtos__list__node__t.html" target="_top" xlink:title="_zrtos_list_node_t">
<polygon fill="#ffffff" stroke="#000000" points="0,-445 0,-464 96,-464 96,-445 0,-445"/>
<text text-anchor="middle" x="48" y="-452" font-family="Helvetica,sans-Serif" font-size="10.00" fill="#000000">_zrtos_list_node_t</text>
</a>
</g>
</g>
<!-- Node8&#45;&gt;Node7 -->
<g id="edge7" class="edge">
<title>Node8&#45;&gt;Node7</title>
<path fill="none" stroke="#9a32cd" stroke-dasharray="5,2" d="M106.5014,-454.5C121.4944,-454.5 137.1645,-454.5 150.5904,-454.5"/>
<polygon fill="#9a32cd" stroke="#9a32cd" points="106.2657,-451.0001 96.2657,-454.5 106.2657,-458.0001 106.2657,-451.0001"/>
<text text-anchor="middle" x="123.5" y="-468.5" font-family="Helvetica,sans-Serif" font-size="10.00" fill="#000000"> last</text>
<text text-anchor="middle" x="123.5" y="-457.5" font-family="Helvetica,sans-Serif" font-size="10.00" fill="#000000">first</text>
</g>
<!-- Node8&#45;&gt;Node8 -->
<g id="edge8" class="edge">
<title>Node8&#45;&gt;Node8</title>
<path fill="none" stroke="#9a32cd" stroke-dasharray="5,2" d="M34.3725,-474.2663C35.4428,-478.9965 39.9853,-482.5 48,-482.5 61.1523,-482.5 64.9542,-473.0653 59.4055,-464.2571"/>
<polygon fill="#9a32cd" stroke="#9a32cd" points="37.844,-474.7779 36.5945,-464.2571 31.0104,-473.2609 37.844,-474.7779"/>
<text text-anchor="middle" x="48" y="-485.5" font-family="Helvetica,sans-Serif" font-size="10.00" fill="#000000"> next</text>
</g>
<!-- Node9 -->
<g id="node9" class="node">
<title>Node9</title>
<g id="a_node9"><a xlink:href="struct__zrtos__clist__node__t.html" target="_top" xlink:title="_zrtos_clist_node_t">
<polygon fill="#ffffff" stroke="#000000" points="303.5,-378 303.5,-397 404.5,-397 404.5,-378 303.5,-378"/>
<text text-anchor="middle" x="354" y="-385" font-family="Helvetica,sans-Serif" font-size="10.00" fill="#000000">_zrtos_clist_node_t</text>
</a>
</g>
</g>
<!-- Node9&#45;&gt;Node2 -->
<g id="edge9" class="edge">
<title>Node9&#45;&gt;Node2</title>
<path fill="none" stroke="#9a32cd" stroke-dasharray="5,2" d="M397.0914,-400.1442C428.4962,-410.164 471.5676,-425.6018 507,-444.5 528.3607,-455.8929 550.5916,-472.4954 565.5471,-484.476"/>
<polygon fill="#9a32cd" stroke="#9a32cd" points="397.9186,-396.7356 387.3294,-397.0838 395.8245,-403.415 397.9186,-396.7356"/>
<text text-anchor="middle" x="478" y="-447.5" font-family="Helvetica,sans-Serif" font-size="10.00" fill="#000000"> node</text>
</g>
<!-- Node9&#45;&gt;Node9 -->
<g id="edge10" class="edge">
<title>Node9&#45;&gt;Node9</title>
<path fill="none" stroke="#9a32cd" stroke-dasharray="5,2" d="M334.7417,-406.9C336.0278,-411.8146 342.4473,-415.5 354,-415.5 372.4844,-415.5 377.8275,-406.0653 370.0294,-397.2571"/>
<polygon fill="#9a32cd" stroke="#9a32cd" points="338.1142,-407.8509 337.9706,-397.2571 331.4765,-405.6283 338.1142,-407.8509"/>
<text text-anchor="middle" x="354" y="-418.5" font-family="Helvetica,sans-Serif" font-size="10.00" fill="#000000"> next</text>
</g>
<!-- Node11 -->
<g id="node11" class="node">
<title>Node11</title>
<g id="a_node11"><a xlink:href="struct__zrtos__clist__t.html" target="_top" xlink:title="_zrtos_clist_t">
<polygon fill="#ffffff" stroke="#000000" points="546,-412 546,-431 621,-431 621,-412 546,-412"/>
<text text-anchor="middle" x="583.5" y="-419" font-family="Helvetica,sans-Serif" font-size="10.00" fill="#000000">_zrtos_clist_t</text>
</a>
</g>
</g>
<!-- Node9&#45;&gt;Node11 -->
<g id="edge14" class="edge">
<title>Node9&#45;&gt;Node11</title>
<path fill="none" stroke="#9a32cd" stroke-dasharray="5,2" d="M415.0641,-378.1009C443.7641,-376.0235 477.9713,-376.9902 507,-387.5 516.7917,-391.0451 515.8831,-397.4674 525,-402.5 531.7311,-406.2156 539.3033,-409.3442 546.7112,-411.9219"/>
<polygon fill="#9a32cd" stroke="#9a32cd" points="414.4207,-374.6434 404.7594,-378.992 415.0238,-381.6174 414.4207,-374.6434"/>
<text text-anchor="middle" x="478" y="-390.5" font-family="Helvetica,sans-Serif" font-size="10.00" fill="#000000"> root</text>
</g>
<!-- Node10 -->
<g id="node10" class="node">
<title>Node10</title>
<polygon fill="#ffffff" stroke="#bfbfbf" points="333.5,-571 333.5,-590 374.5,-590 374.5,-571 333.5,-571"/>
<text text-anchor="middle" x="354" y="-578" font-family="Helvetica,sans-Serif" font-size="10.00" fill="#000000">void *</text>
</g>
<!-- Node10&#45;&gt;Node2 -->
<g id="edge11" class="edge">
<title>Node10&#45;&gt;Node2</title>
<path fill="none" stroke="#9a32cd" stroke-dasharray="5,2" d="M384.517,-573.7072C398.7347,-570.3545 415.825,-566.0555 431,-561.5 465.3324,-551.1935 473.7809,-547.9697 507,-534.5 522.0238,-528.4082 538.4014,-521.019 552.1343,-514.6028"/>
<polygon fill="#9a32cd" stroke="#9a32cd" points="383.6929,-570.3053 374.7404,-575.9714 385.2722,-577.1248 383.6929,-570.3053"/>
<text text-anchor="middle" x="478" y="-558.5" font-family="Helvetica,sans-Serif" font-size="10.00" fill="#000000"> data</text>
</g>
<!-- Node11&#45;&gt;Node1 -->
<g id="edge13" class="edge">
<title>Node11&#45;&gt;Node1</title>
<path fill="none" stroke="#9a32cd" stroke-dasharray="5,2" d="M631.1318,-421.5C653.9652,-421.5 681.5331,-421.5 705.6641,-421.5"/>
<polygon fill="#9a32cd" stroke="#9a32cd" points="631.0034,-418.0001 621.0033,-421.5 631.0033,-425.0001 631.0034,-418.0001"/>
<text text-anchor="middle" x="674" y="-424.5" font-family="Helvetica,sans-Serif" font-size="10.00" fill="#000000"> root</text>
</g>
<!-- Node12 -->
<g id="node12" class="node">
<title>Node12</title>
<polygon fill="#ffffff" stroke="#bfbfbf" points="560.5,-374 560.5,-393 606.5,-393 606.5,-374 560.5,-374"/>
<text text-anchor="middle" x="583.5" y="-381" font-family="Helvetica,sans-Serif" font-size="10.00" fill="#000000">uint8_t</text>
</g>
<!-- Node12&#45;&gt;Node1 -->
<g id="edge15" class="edge">
<title>Node12&#45;&gt;Node1</title>
<path fill="none" stroke="#9a32cd" stroke-dasharray="5,2" d="M616.8235,-390.4961C641.73,-395.7251 676.4219,-403.0085 705.923,-409.2021"/>
<polygon fill="#9a32cd" stroke="#9a32cd" points="617.2978,-387.0194 606.792,-388.39 615.8595,-393.8701 617.2978,-387.0194"/>
<text text-anchor="middle" x="674" y="-407.5" font-family="Helvetica,sans-Serif" font-size="10.00" fill="#000000"> count</text>
</g>
<!-- Node13 -->
<g id="node13" class="node">
<title>Node13</title>
<g id="a_node13"><a xlink:href="struct__zrtos__gpio__t.html" target="_top" xlink:title="_zrtos_gpio_t">
<polygon fill="#ffffff" stroke="#000000" points="546,-198 546,-217 621,-217 621,-198 546,-198"/>
<text text-anchor="middle" x="583.5" y="-205" font-family="Helvetica,sans-Serif" font-size="10.00" fill="#000000">_zrtos_gpio_t</text>
</a>
</g>
</g>
<!-- Node13&#45;&gt;Node1 -->
<g id="edge16" class="edge">
<title>Node13&#45;&gt;Node1</title>
<path fill="none" stroke="#9a32cd" stroke-dasharray="5,2" d="M598.3317,-225.0358C633.0063,-266.0324 718.9048,-367.5919 751.5918,-406.2384"/>
<polygon fill="#9a32cd" stroke="#9a32cd" points="600.8777,-222.6262 591.7475,-217.2512 595.533,-227.1467 600.8777,-222.6262"/>
<text text-anchor="middle" x="674" y="-329.5" font-family="Helvetica,sans-Serif" font-size="10.00" fill="#000000"> gpio</text>
</g>
<!-- Node14 -->
<g id="node14" class="node">
<title>Node14</title>
<polygon fill="#ffffff" stroke="#bfbfbf" points="277,-71.5 277,-123.5 431,-123.5 431,-71.5 277,-71.5"/>
<text text-anchor="start" x="285" y="-111.5" font-family="Helvetica,sans-Serif" font-size="10.00" fill="#000000">zrtos_error_t(*)(struct</text>
<text text-anchor="start" x="285" y="-100.5" font-family="Helvetica,sans-Serif" font-size="10.00" fill="#000000"> _zrtos_gpio_t *thiz,</text>
<text text-anchor="start" x="285" y="-89.5" font-family="Helvetica,sans-Serif" font-size="10.00" fill="#000000"> zrtos_gpio_pin_t pin,</text>
<text text-anchor="middle" x="354" y="-78.5" font-family="Helvetica,sans-Serif" font-size="10.00" fill="#000000"> zrtos_gpio_value_analog_t val)</text>
</g>
<!-- Node14&#45;&gt;Node13 -->
<g id="edge17" class="edge">
<title>Node14&#45;&gt;Node13</title>
<path fill="none" stroke="#9a32cd" stroke-dasharray="5,2" d="M419.2759,-127.9388C423.2458,-129.8148 427.1781,-131.6794 431,-133.5 478.8219,-156.2804 534.788,-183.6103 563.803,-197.8297"/>
<polygon fill="#9a32cd" stroke="#9a32cd" points="420.5165,-124.6543 409.9787,-123.5565 417.5319,-130.9862 420.5165,-124.6543"/>
<text text-anchor="middle" x="478" y="-172.5" font-family="Helvetica,sans-Serif" font-size="10.00" fill="#000000"> analog_write</text>
</g>
<!-- Node15 -->
<g id="node15" class="node">
<title>Node15</title>
<polygon fill="#ffffff" stroke="#bfbfbf" points="278.5,-.5 278.5,-52.5 429.5,-52.5 429.5,-.5 278.5,-.5"/>
<text text-anchor="start" x="286.5" y="-40.5" font-family="Helvetica,sans-Serif" font-size="10.00" fill="#000000">zrtos_error_t(*)(struct</text>
<text text-anchor="start" x="286.5" y="-29.5" font-family="Helvetica,sans-Serif" font-size="10.00" fill="#000000"> _zrtos_gpio_t *thiz,</text>
<text text-anchor="start" x="286.5" y="-18.5" font-family="Helvetica,sans-Serif" font-size="10.00" fill="#000000"> zrtos_gpio_pin_t pin,</text>
<text text-anchor="middle" x="354" y="-7.5" font-family="Helvetica,sans-Serif" font-size="10.00" fill="#000000"> zrtos_gpio_value_digital_t val)</text>
</g>
<!-- Node15&#45;&gt;Node13 -->
<g id="edge18" class="edge">
<title>Node15&#45;&gt;Node13</title>
<path fill="none" stroke="#9a32cd" stroke-dasharray="5,2" d="M424.9832,-57.7953C427.0321,-59.0072 429.0424,-60.2428 431,-61.5 494.5329,-102.2997 554.5646,-171.9756 575.5909,-197.6363"/>
<polygon fill="#9a32cd" stroke="#9a32cd" points="426.2297,-54.4814 415.7961,-52.6401 422.8042,-60.586 426.2297,-54.4814"/>
<text text-anchor="middle" x="478" y="-125.5" font-family="Helvetica,sans-Serif" font-size="10.00" fill="#000000"> digital_write</text>
</g>
<!-- Node16 -->
<g id="node16" class="node">
<title>Node16</title>
<polygon fill="#ffffff" stroke="#bfbfbf" points="292,-296 292,-359 416,-359 416,-296 292,-296"/>
<text text-anchor="start" x="300" y="-347" font-family="Helvetica,sans-Serif" font-size="10.00" fill="#000000">zrtos_error_t(*)(struct</text>
<text text-anchor="start" x="300" y="-336" font-family="Helvetica,sans-Serif" font-size="10.00" fill="#000000"> _zrtos_gpio_t *thiz,</text>
<text text-anchor="start" x="300" y="-325" font-family="Helvetica,sans-Serif" font-size="10.00" fill="#000000"> zrtos_gpio_pin_t pin,</text>
<text text-anchor="start" x="300" y="-314" font-family="Helvetica,sans-Serif" font-size="10.00" fill="#000000"> zrtos_gpio_value_digital</text>
<text text-anchor="middle" x="354" y="-303" font-family="Helvetica,sans-Serif" font-size="10.00" fill="#000000">_t *val)</text>
</g>
<!-- Node16&#45;&gt;Node13 -->
<g id="edge19" class="edge">
<title>Node16&#45;&gt;Node13</title>
<path fill="none" stroke="#9a32cd" stroke-dasharray="5,2" d="M423.2983,-291.2656C472.3797,-265.6021 534.6936,-233.0197 565.113,-217.1141"/>
<polygon fill="#9a32cd" stroke="#9a32cd" points="421.5384,-288.2362 414.2984,-295.9714 424.7819,-294.4394 421.5384,-288.2362"/>
<text text-anchor="middle" x="478" y="-277.5" font-family="Helvetica,sans-Serif" font-size="10.00" fill="#000000"> digital_read</text>
</g>
<!-- Node17 -->
<g id="node17" class="node">
<title>Node17</title>
<polygon fill="#ffffff" stroke="#bfbfbf" points="290.5,-214 290.5,-277 417.5,-277 417.5,-214 290.5,-214"/>
<text text-anchor="start" x="298.5" y="-265" font-family="Helvetica,sans-Serif" font-size="10.00" fill="#000000">zrtos_error_t(*)(struct</text>
<text text-anchor="start" x="298.5" y="-254" font-family="Helvetica,sans-Serif" font-size="10.00" fill="#000000"> _zrtos_gpio_t *thiz,</text>
<text text-anchor="start" x="298.5" y="-243" font-family="Helvetica,sans-Serif" font-size="10.00" fill="#000000"> zrtos_gpio_pin_t pin,</text>
<text text-anchor="start" x="298.5" y="-232" font-family="Helvetica,sans-Serif" font-size="10.00" fill="#000000"> zrtos_gpio_value_analog</text>
<text text-anchor="middle" x="354" y="-221" font-family="Helvetica,sans-Serif" font-size="10.00" fill="#000000">_t *val)</text>
</g>
<!-- Node17&#45;&gt;Node13 -->
<g id="edge20" class="edge">
<title>Node17&#45;&gt;Node13</title>
<path fill="none" stroke="#9a32cd" stroke-dasharray="5,2" d="M427.7333,-233.2914C467.1489,-226.7651 513.9994,-219.0077 545.9534,-213.7169"/>
<polygon fill="#9a32cd" stroke="#9a32cd" points="426.9177,-229.8787 417.6238,-234.9653 428.0612,-236.7847 426.9177,-229.8787"/>
<text text-anchor="middle" x="478" y="-231.5" font-family="Helvetica,sans-Serif" font-size="10.00" fill="#000000"> analog_read</text>
</g>
<!-- Node18 -->
<g id="node18" class="node">
<title>Node18</title>
<polygon fill="#ffffff" stroke="#bfbfbf" points="288,-142.5 288,-194.5 420,-194.5 420,-142.5 288,-142.5"/>
<text text-anchor="start" x="296" y="-182.5" font-family="Helvetica,sans-Serif" font-size="10.00" fill="#000000">zrtos_error_t(*)(struct</text>
<text text-anchor="start" x="296" y="-171.5" font-family="Helvetica,sans-Serif" font-size="10.00" fill="#000000"> _zrtos_gpio_t *thiz,</text>
<text text-anchor="start" x="296" y="-160.5" font-family="Helvetica,sans-Serif" font-size="10.00" fill="#000000"> zrtos_gpio_pin_t pin,</text>
<text text-anchor="middle" x="354" y="-149.5" font-family="Helvetica,sans-Serif" font-size="10.00" fill="#000000"> zrtos_gpio_mode_t mode)</text>
</g>
<!-- Node18&#45;&gt;Node13 -->
<g id="edge21" class="edge">
<title>Node18&#45;&gt;Node13</title>
<path fill="none" stroke="#9a32cd" stroke-dasharray="5,2" d="M430.2985,-181.4658C469.0887,-188.0576 514.5076,-195.7758 545.7654,-201.0876"/>
<polygon fill="#9a32cd" stroke="#9a32cd" points="430.5181,-177.953 420.073,-179.7281 429.3453,-184.854 430.5181,-177.953"/>
<text text-anchor="middle" x="478" y="-196.5" font-family="Helvetica,sans-Serif" font-size="10.00" fill="#000000"> set_mode</text>
</g>
</g>
</svg>
