<?xml version="1.0" encoding="UTF-8" standalone="no"?>
<!DOCTYPE svg PUBLIC "-//W3C//DTD SVG 1.1//EN"
 "http://www.w3.org/Graphics/SVG/1.1/DTD/svg11.dtd">
<!-- Generated by graphviz version 2.40.1 (20161225.0304)
 -->
<!-- Title: _zrtos_malloc_heap_chunk_t Pages: 1 -->
<svg width="112pt" height="106pt"
 viewBox="0.00 0.00 112.00 106.00" xmlns="http://www.w3.org/2000/svg" xmlns:xlink="http://www.w3.org/1999/xlink">
<g id="graph0" class="graph" transform="scale(1 1) rotate(0) translate(4 102)">
<title>_zrtos_malloc_heap_chunk_t</title>
<polygon fill="#ffffff" stroke="transparent" points="-4,4 -4,-102 108,-102 108,4 -4,4"/>
<!-- Node1 -->
<g id="node1" class="node">
<title>Node1</title>
<polygon fill="#bfbfbf" stroke="#000000" points="0,-.5 0,-30.5 104,-30.5 104,-.5 0,-.5"/>
<text text-anchor="start" x="8" y="-18.5" font-family="Helvetica,sans-Serif" font-size="10.00" fill="#000000">_zrtos_malloc_heap</text>
<text text-anchor="middle" x="52" y="-7.5" font-family="Helvetica,sans-Serif" font-size="10.00" fill="#000000">_chunk_t</text>
</g>
<!-- Node2 -->
<g id="node2" class="node">
<title>Node2</title>
<polygon fill="#ffffff" stroke="#bfbfbf" points="26.5,-78.5 26.5,-97.5 77.5,-97.5 77.5,-78.5 26.5,-78.5"/>
<text text-anchor="middle" x="52" y="-85.5" font-family="Helvetica,sans-Serif" font-size="10.00" fill="#000000">uint16_t</text>
</g>
<!-- Node2&#45;&gt;Node1 -->
<g id="edge1" class="edge">
<title>Node2&#45;&gt;Node1</title>
<path fill="none" stroke="#9a32cd" stroke-dasharray="5,2" d="M52,-68.0177C52,-56.2164 52,-41.513 52,-30.668"/>
<polygon fill="#9a32cd" stroke="#9a32cd" points="48.5001,-68.2223 52,-78.2223 55.5001,-68.2224 48.5001,-68.2223"/>
<text text-anchor="middle" x="67" y="-52" font-family="Helvetica,sans-Serif" font-size="10.00" fill="#000000"> length</text>
</g>
</g>
</svg>
