<?xml version="1.0" encoding="UTF-8" standalone="no"?>
<!DOCTYPE svg PUBLIC "-//W3C//DTD SVG 1.1//EN"
 "http://www.w3.org/Graphics/SVG/1.1/DTD/svg11.dtd">
<!-- Generated by graphviz version 10.0.1 (20240210.2158)
 -->
<!-- Title: _zrtos_vfs_module_spi_t Pages: 1 -->
<svg width="775pt" height="276pt"
 viewBox="0.00 0.00 775.00 276.00" xmlns="http://www.w3.org/2000/svg" xmlns:xlink="http://www.w3.org/1999/xlink">
<g id="graph0" class="graph" transform="scale(1 1) rotate(0) translate(4 272)">
<title>_zrtos_vfs_module_spi_t</title>
<!-- Node1 -->
<g id="Node000001" class="node">
<title>Node1</title>
<g id="a_Node000001"><a xlink:title=" ">
<polygon fill="#999999" stroke="#666666" points="767,-141 644.5,-141 644.5,-121 767,-121 767,-141"/>
<text text-anchor="middle" x="705.75" y="-127.5" font-family="Helvetica,sans-Serif" font-size="10.00">_zrtos_vfs_module_spi_t</text>
</a>
</g>
</g>
<!-- Node2 -->
<g id="Node000002" class="node">
<title>Node2</title>
<g id="a_Node000002"><a xlink:href="struct__zrtos__clist__t.html" target="_top" xlink:title=" ">
<polygon fill="white" stroke="#666666" points="561.62,-221 487.12,-221 487.12,-201 561.62,-201 561.62,-221"/>
<text text-anchor="middle" x="524.38" y="-207.5" font-family="Helvetica,sans-Serif" font-size="10.00">_zrtos_clist_t</text>
</a>
</g>
</g>
<!-- Node2&#45;&gt;Node1 -->
<g id="edge1_Node000001_Node000002" class="edge">
<title>Node2&#45;&gt;Node1</title>
<g id="a_edge1_Node000001_Node000002"><a xlink:title=" ">
<path fill="none" stroke="#9a32cd" stroke-dasharray="5,2" d="M559.22,-195.91C594.89,-180 650.14,-155.36 681.29,-141.46"/>
<polygon fill="#9a32cd" stroke="#9a32cd" points="557.91,-192.66 550.21,-199.92 560.77,-199.05 557.91,-192.66"/>
</a>
</g>
<text text-anchor="middle" x="613" y="-177.5" font-family="Helvetica,sans-Serif" font-size="10.00" fill="grey"> root</text>
</g>
<!-- Node3 -->
<g id="Node000003" class="node">
<title>Node3</title>
<g id="a_Node000003"><a xlink:href="struct__zrtos__clist__node__t.html" target="_top" xlink:title=" ">
<polygon fill="white" stroke="#666666" points="379.88,-238 279.12,-238 279.12,-218 379.88,-218 379.88,-238"/>
<text text-anchor="middle" x="329.5" y="-224.5" font-family="Helvetica,sans-Serif" font-size="10.00">_zrtos_clist_node_t</text>
</a>
</g>
</g>
<!-- Node3&#45;&gt;Node2 -->
<g id="edge2_Node000002_Node000003" class="edge">
<title>Node3&#45;&gt;Node2</title>
<g id="a_edge2_Node000002_Node000003"><a xlink:title=" ">
<path fill="none" stroke="#9a32cd" stroke-dasharray="5,2" d="M391.6,-229.11C410.16,-228.87 430.58,-228.03 449.25,-226 461.52,-224.67 474.77,-222.29 486.63,-219.82"/>
<polygon fill="#9a32cd" stroke="#9a32cd" points="391.8,-225.6 381.83,-229.17 391.85,-232.6 391.8,-225.6"/>
</a>
</g>
<text text-anchor="middle" x="425.62" y="-230.5" font-family="Helvetica,sans-Serif" font-size="10.00" fill="grey"> root</text>
</g>
<!-- Node3&#45;&gt;Node3 -->
<g id="edge3_Node000003_Node000003" class="edge">
<title>Node3&#45;&gt;Node3</title>
<g id="a_edge3_Node000003_Node000003"><a xlink:title=" ">
<path fill="none" stroke="#9a32cd" stroke-dasharray="5,2" d="M315.13,-249.77C317.11,-253.45 321.9,-256 329.5,-256 343.8,-256 348.15,-246.98 342.57,-238.34"/>
<polygon fill="#9a32cd" stroke="#9a32cd" points="318.61,-250.17 316.26,-239.84 311.65,-249.38 318.61,-250.17"/>
</a>
</g>
<text text-anchor="middle" x="329.5" y="-258.5" font-family="Helvetica,sans-Serif" font-size="10.00" fill="grey"> next</text>
</g>
<!-- Node4 -->
<g id="Node000004" class="node">
<title>Node4</title>
<g id="a_Node000004"><a xlink:href="struct__zrtos__vfs__module__spi__file__t.html" target="_top" xlink:title=" ">
<polygon fill="white" stroke="#666666" points="581.5,-147 467.25,-147 467.25,-115 581.5,-115 581.5,-147"/>
<text text-anchor="start" x="475.25" y="-133.5" font-family="Helvetica,sans-Serif" font-size="10.00">_zrtos_vfs_module_spi</text>
<text text-anchor="middle" x="524.38" y="-121.5" font-family="Helvetica,sans-Serif" font-size="10.00">_file_t</text>
</a>
</g>
</g>
<!-- Node3&#45;&gt;Node4 -->
<g id="edge5_Node000004_Node000003" class="edge">
<title>Node3&#45;&gt;Node4</title>
<g id="a_edge5_Node000004_Node000003"><a xlink:title=" ">
<path fill="none" stroke="#9a32cd" stroke-dasharray="5,2" d="M378.34,-214.1C400.54,-206.8 426.89,-196.88 449.25,-185 469.21,-174.39 489.84,-158.94 504.25,-147.28"/>
<polygon fill="#9a32cd" stroke="#9a32cd" points="377.39,-210.73 368.93,-217.11 379.52,-217.4 377.39,-210.73"/>
</a>
</g>
<text text-anchor="middle" x="425.62" y="-206.5" font-family="Helvetica,sans-Serif" font-size="10.00" fill="grey"> node</text>
</g>
<!-- Node4&#45;&gt;Node1 -->
<g id="edge4_Node000001_Node000004" class="edge">
<title>Node4&#45;&gt;Node1</title>
<g id="a_edge4_Node000001_Node000004"><a xlink:title=" ">
<path fill="none" stroke="#9a32cd" stroke-dasharray="5,2" d="M593.03,-131C609.78,-131 627.63,-131 644.02,-131"/>
<polygon fill="#9a32cd" stroke="#9a32cd" points="593.15,-127.5 583.15,-131 593.15,-134.5 593.15,-127.5"/>
</a>
</g>
<text text-anchor="middle" x="613" y="-133.5" font-family="Helvetica,sans-Serif" font-size="10.00" fill="grey"> last</text>
</g>
<!-- Node5 -->
<g id="Node000005" class="node">
<title>Node5</title>
<g id="a_Node000005"><a xlink:href="struct__zrtos__cbuffer__t.html" target="_top" xlink:title=" ">
<polygon fill="white" stroke="#666666" points="372,-184 287,-184 287,-164 372,-164 372,-184"/>
<text text-anchor="middle" x="329.5" y="-170.5" font-family="Helvetica,sans-Serif" font-size="10.00">_zrtos_cbuffer_t</text>
</a>
</g>
</g>
<!-- Node5&#45;&gt;Node4 -->
<g id="edge6_Node000004_Node000005" class="edge">
<title>Node5&#45;&gt;Node4</title>
<g id="a_edge6_Node000004_Node000005"><a xlink:title=" ">
<path fill="none" stroke="#9a32cd" stroke-dasharray="5,2" d="M383.48,-162.19C409.39,-156.41 440.61,-149.45 466.97,-143.58"/>
<polygon fill="#9a32cd" stroke="#9a32cd" points="382.83,-158.75 373.83,-164.34 384.35,-165.58 382.83,-158.75"/>
</a>
</g>
<text text-anchor="middle" x="425.62" y="-171.5" font-family="Helvetica,sans-Serif" font-size="10.00" fill="grey"> cbuffer_in</text>
<text text-anchor="middle" x="425.62" y="-159.5" font-family="Helvetica,sans-Serif" font-size="10.00" fill="grey">cbuffer_out</text>
</g>
<!-- Node6 -->
<g id="Node000006" class="node">
<title>Node6</title>
<g id="a_Node000006"><a xlink:href="struct__zrtos__list__t.html" target="_top" xlink:title=" ">
<polygon fill="white" stroke="#666666" points="219.5,-184 150.25,-184 150.25,-164 219.5,-164 219.5,-184"/>
<text text-anchor="middle" x="184.88" y="-170.5" font-family="Helvetica,sans-Serif" font-size="10.00">_zrtos_list_t</text>
</a>
</g>
</g>
<!-- Node6&#45;&gt;Node5 -->
<g id="edge7_Node000005_Node000006" class="edge">
<title>Node6&#45;&gt;Node5</title>
<g id="a_edge7_Node000005_Node000006"><a xlink:title=" ">
<path fill="none" stroke="#9a32cd" stroke-dasharray="5,2" d="M230.94,-174C248.73,-174 269.05,-174 286.52,-174"/>
<polygon fill="#9a32cd" stroke="#9a32cd" points="231.19,-170.5 221.19,-174 231.19,-177.5 231.19,-170.5"/>
</a>
</g>
<text text-anchor="middle" x="247.25" y="-176.5" font-family="Helvetica,sans-Serif" font-size="10.00" fill="grey"> root</text>
</g>
<!-- Node7 -->
<g id="Node000007" class="node">
<title>Node7</title>
<g id="a_Node000007"><a xlink:href="struct__zrtos__list__node__t.html" target="_top" xlink:title=" ">
<polygon fill="white" stroke="#666666" points="95.5,-184 0,-184 0,-164 95.5,-164 95.5,-184"/>
<text text-anchor="middle" x="47.75" y="-170.5" font-family="Helvetica,sans-Serif" font-size="10.00">_zrtos_list_node_t</text>
</a>
</g>
</g>
<!-- Node7&#45;&gt;Node6 -->
<g id="edge8_Node000006_Node000007" class="edge">
<title>Node7&#45;&gt;Node6</title>
<g id="a_edge8_Node000006_Node000007"><a xlink:title=" ">
<path fill="none" stroke="#9a32cd" stroke-dasharray="5,2" d="M106.72,-174C121.43,-174 136.77,-174 149.85,-174"/>
<polygon fill="#9a32cd" stroke="#9a32cd" points="107.14,-170.5 97.14,-174 107.14,-177.5 107.14,-170.5"/>
</a>
</g>
<text text-anchor="middle" x="122.88" y="-188.5" font-family="Helvetica,sans-Serif" font-size="10.00" fill="grey"> first</text>
<text text-anchor="middle" x="122.88" y="-176.5" font-family="Helvetica,sans-Serif" font-size="10.00" fill="grey">last</text>
</g>
<!-- Node7&#45;&gt;Node7 -->
<g id="edge9_Node000007_Node000007" class="edge">
<title>Node7&#45;&gt;Node7</title>
<g id="a_edge9_Node000007_Node000007"><a xlink:title=" ">
<path fill="none" stroke="#9a32cd" stroke-dasharray="5,2" d="M34.63,-195.77C36.44,-199.45 40.81,-202 47.75,-202 60.81,-202 64.79,-192.98 59.69,-184.34"/>
<polygon fill="#9a32cd" stroke="#9a32cd" points="38.1,-196.15 35.66,-185.84 31.14,-195.43 38.1,-196.15"/>
</a>
</g>
<text text-anchor="middle" x="47.75" y="-204.5" font-family="Helvetica,sans-Serif" font-size="10.00" fill="grey"> next</text>
</g>
<!-- Node8 -->
<g id="Node000008" class="node">
<title>Node8</title>
<g id="a_Node000008"><a xlink:title=" ">
<polygon fill="white" stroke="#666666" points="364.88,-146 294.12,-146 294.12,-126 364.88,-126 364.88,-146"/>
<text text-anchor="middle" x="329.5" y="-132.5" font-family="Helvetica,sans-Serif" font-size="10.00">zrtos_error_t</text>
</a>
</g>
</g>
<!-- Node8&#45;&gt;Node4 -->
<g id="edge10_Node000004_Node000008" class="edge">
<title>Node8&#45;&gt;Node4</title>
<g id="a_edge10_Node000004_Node000008"><a xlink:title=" ">
<path fill="none" stroke="#9a32cd" stroke-dasharray="5,2" d="M376.38,-133.11C384.89,-132.66 393.71,-132.27 402,-132 423.17,-131.32 446.42,-131.02 466.86,-130.91"/>
<polygon fill="#9a32cd" stroke="#9a32cd" points="376.34,-129.61 366.55,-133.65 376.72,-136.6 376.34,-129.61"/>
</a>
</g>
<text text-anchor="middle" x="425.62" y="-134.5" font-family="Helvetica,sans-Serif" font-size="10.00" fill="grey"> error</text>
</g>
<!-- Node9 -->
<g id="Node000009" class="node">
<title>Node9</title>
<g id="a_Node000009"><a xlink:title=" ">
<polygon fill="white" stroke="#666666" points="384,-108 275,-108 275,-76 384,-76 384,-108"/>
<text text-anchor="start" x="283" y="-94.5" font-family="Helvetica,sans-Serif" font-size="10.00">zrtos_vfs_module_spi</text>
<text text-anchor="middle" x="329.5" y="-82.5" font-family="Helvetica,sans-Serif" font-size="10.00">_control_t</text>
</a>
</g>
</g>
<!-- Node9&#45;&gt;Node4 -->
<g id="edge11_Node000004_Node000009" class="edge">
<title>Node9&#45;&gt;Node4</title>
<g id="a_edge11_Node000004_Node000009"><a xlink:title=" ">
<path fill="none" stroke="#9a32cd" stroke-dasharray="5,2" d="M395.58,-104.35C413.02,-107.73 431.87,-111.44 449.25,-115 455.05,-116.19 461.11,-117.45 467.14,-118.73"/>
<polygon fill="#9a32cd" stroke="#9a32cd" points="396.31,-100.92 385.83,-102.46 394.98,-107.8 396.31,-100.92"/>
</a>
</g>
<text text-anchor="middle" x="425.62" y="-117.5" font-family="Helvetica,sans-Serif" font-size="10.00" fill="grey"> control</text>
</g>
<!-- Node10 -->
<g id="Node000010" class="node">
<title>Node10</title>
<g id="a_Node000010"><a xlink:title=" ">
<polygon fill="white" stroke="#666666" points="352.12,-58 306.88,-58 306.88,-38 352.12,-38 352.12,-58"/>
<text text-anchor="middle" x="329.5" y="-44.5" font-family="Helvetica,sans-Serif" font-size="10.00">uint8_t</text>
</a>
</g>
</g>
<!-- Node10&#45;&gt;Node4 -->
<g id="edge12_Node000004_Node000010" class="edge">
<title>Node10&#45;&gt;Node4</title>
<g id="a_edge12_Node000004_Node000010"><a xlink:title=" ">
<path fill="none" stroke="#9a32cd" stroke-dasharray="5,2" d="M363.29,-55.31C388.09,-61.76 422.36,-72.71 449.25,-89 458.66,-94.7 458.09,-99.9 467.25,-106 471.87,-109.08 476.92,-111.93 482.05,-114.54"/>
<polygon fill="#9a32cd" stroke="#9a32cd" points="364.3,-51.95 353.75,-52.94 362.61,-58.75 364.3,-51.95"/>
</a>
</g>
<text text-anchor="middle" x="425.62" y="-91.5" font-family="Helvetica,sans-Serif" font-size="10.00" fill="grey"> pin_ss</text>
</g>
<!-- Node11 -->
<g id="Node000011" class="node">
<title>Node11</title>
<g id="a_Node000011"><a xlink:title=" ">
<polygon fill="white" stroke="#666666" points="349.12,-20 309.88,-20 309.88,0 349.12,0 349.12,-20"/>
<text text-anchor="middle" x="329.5" y="-6.5" font-family="Helvetica,sans-Serif" font-size="10.00">void *</text>
</a>
</g>
</g>
<!-- Node11&#45;&gt;Node4 -->
<g id="edge13_Node000004_Node000011" class="edge">
<title>Node11&#45;&gt;Node4</title>
<g id="a_edge13_Node000004_Node000011"><a xlink:title=" ">
<path fill="none" stroke="#9a32cd" stroke-dasharray="5,2" d="M360.61,-13.22C387.3,-17.61 425.6,-27.92 449.25,-52 466.97,-70.05 450.25,-87.26 467.25,-106 470.19,-109.24 473.63,-112.08 477.33,-114.57"/>
<polygon fill="#9a32cd" stroke="#9a32cd" points="361.15,-9.76 350.76,-11.8 360.16,-16.69 361.15,-9.76"/>
</a>
</g>
<text text-anchor="middle" x="425.62" y="-54.5" font-family="Helvetica,sans-Serif" font-size="10.00" fill="grey"> data</text>
</g>
<!-- Node12 -->
<g id="Node000012" class="node">
<title>Node12</title>
<g id="a_Node000012"><a xlink:title=" ">
<polygon fill="white" stroke="#666666" points="549.62,-97 499.12,-97 499.12,-77 549.62,-77 549.62,-97"/>
<text text-anchor="middle" x="524.38" y="-83.5" font-family="Helvetica,sans-Serif" font-size="10.00">uint16_t</text>
</a>
</g>
</g>
<!-- Node12&#45;&gt;Node1 -->
<g id="edge14_Node000001_Node000012" class="edge">
<title>Node12&#45;&gt;Node1</title>
<g id="a_edge14_Node000001_Node000012"><a xlink:title=" ">
<path fill="none" stroke="#9a32cd" stroke-dasharray="5,2" d="M560.85,-95.7C589.99,-102.85 631.35,-113 662.26,-120.58"/>
<polygon fill="#9a32cd" stroke="#9a32cd" points="561.96,-92.37 551.41,-93.39 560.29,-99.17 561.96,-92.37"/>
</a>
</g>
<text text-anchor="middle" x="613" y="-113.5" font-family="Helvetica,sans-Serif" font-size="10.00" fill="grey"> count</text>
</g>
</g>
</svg>
