<?xml version="1.0" encoding="UTF-8" standalone="no"?>
<!DOCTYPE svg PUBLIC "-//W3C//DTD SVG 1.1//EN"
 "http://www.w3.org/Graphics/SVG/1.1/DTD/svg11.dtd">
<!-- Generated by graphviz version 2.40.1 (20161225.0304)
 -->
<!-- Title: _zrtos_vfs_module_spi_sync_file_t Pages: 1 -->
<svg width="250pt" height="117pt"
 viewBox="0.00 0.00 250.00 117.00" xmlns="http://www.w3.org/2000/svg" xmlns:xlink="http://www.w3.org/1999/xlink">
<g id="graph0" class="graph" transform="scale(1 1) rotate(0) translate(4 113)">
<title>_zrtos_vfs_module_spi_sync_file_t</title>
<polygon fill="#ffffff" stroke="transparent" points="-4,4 -4,-113 246,-113 246,4 -4,4"/>
<!-- Node1 -->
<g id="node1" class="node">
<title>Node1</title>
<polygon fill="#bfbfbf" stroke="#000000" points="62.5,-.5 62.5,-30.5 179.5,-30.5 179.5,-.5 62.5,-.5"/>
<text text-anchor="start" x="70.5" y="-18.5" font-family="Helvetica,sans-Serif" font-size="10.00" fill="#000000">_zrtos_vfs_module_spi</text>
<text text-anchor="middle" x="121" y="-7.5" font-family="Helvetica,sans-Serif" font-size="10.00" fill="#000000">_sync_file_t</text>
</g>
<!-- Node2 -->
<g id="node2" class="node">
<title>Node2</title>
<polygon fill="#ffffff" stroke="#bfbfbf" points="0,-84 0,-103 112,-103 112,-84 0,-84"/>
<text text-anchor="middle" x="56" y="-91" font-family="Helvetica,sans-Serif" font-size="10.00" fill="#000000">zrtos_arch_gpio_pin_t</text>
</g>
<!-- Node2&#45;&gt;Node1 -->
<g id="edge1" class="edge">
<title>Node2&#45;&gt;Node1</title>
<path fill="none" stroke="#9a32cd" stroke-dasharray="5,2" d="M70.3892,-76.2329C81.7252,-62.6298 97.3795,-43.8446 108.2647,-30.7824"/>
<polygon fill="#9a32cd" stroke="#9a32cd" points="67.6834,-74.0128 63.9703,-83.9357 73.0609,-78.4941 67.6834,-74.0128"/>
<text text-anchor="middle" x="109" y="-52" font-family="Helvetica,sans-Serif" font-size="10.00" fill="#000000"> pin_cs</text>
</g>
<!-- Node3 -->
<g id="node3" class="node">
<title>Node3</title>
<polygon fill="#ffffff" stroke="#bfbfbf" points="130,-78.5 130,-108.5 242,-108.5 242,-78.5 130,-78.5"/>
<text text-anchor="start" x="138" y="-96.5" font-family="Helvetica,sans-Serif" font-size="10.00" fill="#000000">zrtos_vfs_module_spi</text>
<text text-anchor="middle" x="186" y="-85.5" font-family="Helvetica,sans-Serif" font-size="10.00" fill="#000000">_sync_control_t</text>
</g>
<!-- Node3&#45;&gt;Node1 -->
<g id="edge2" class="edge">
<title>Node3&#45;&gt;Node1</title>
<path fill="none" stroke="#9a32cd" stroke-dasharray="5,2" d="M166.843,-70.5116C156.1578,-57.6894 143.1441,-42.0729 133.716,-30.7592"/>
<polygon fill="#9a32cd" stroke="#9a32cd" points="164.3767,-73.0192 173.4673,-78.4608 169.7542,-68.5379 164.3767,-73.0192"/>
<text text-anchor="middle" x="173.5" y="-52" font-family="Helvetica,sans-Serif" font-size="10.00" fill="#000000"> control</text>
</g>
</g>
</svg>
