<?xml version="1.0" encoding="UTF-8" standalone="no"?>
<!DOCTYPE svg PUBLIC "-//W3C//DTD SVG 1.1//EN"
 "http://www.w3.org/Graphics/SVG/1.1/DTD/svg11.dtd">
<!-- Generated by graphviz version 10.0.1 (20240210.2158)
 -->
<!-- Title: _zrtos_msg_queue_write_transaction_t Pages: 1 -->
<svg width="222pt" height="336pt"
 viewBox="0.00 0.00 221.75 336.00" xmlns="http://www.w3.org/2000/svg" xmlns:xlink="http://www.w3.org/1999/xlink">
<g id="graph0" class="graph" transform="scale(1 1) rotate(0) translate(4 332)">
<title>_zrtos_msg_queue_write_transaction_t</title>
<!-- Node1 -->
<g id="Node000001" class="node">
<title>Node1</title>
<g id="a_Node000001"><a xlink:title=" ">
<polygon fill="#999999" stroke="#666666" points="198.75,-32 74.75,-32 74.75,0 198.75,0 198.75,-32"/>
<text text-anchor="start" x="82.75" y="-18.5" font-family="Helvetica,sans-Serif" font-size="10.00">_zrtos_msg_queue_write</text>
<text text-anchor="middle" x="136.75" y="-6.5" font-family="Helvetica,sans-Serif" font-size="10.00">_transaction_t</text>
</a>
</g>
</g>
<!-- Node2 -->
<g id="Node000002" class="node">
<title>Node2</title>
<g id="a_Node000002"><a xlink:href="struct__zrtos__cbuffer__write__transaction__t.html" target="_top" xlink:title=" ">
<polygon fill="white" stroke="#666666" points="140.88,-112 38.62,-112 38.62,-80 140.88,-80 140.88,-112"/>
<text text-anchor="start" x="46.62" y="-98.5" font-family="Helvetica,sans-Serif" font-size="10.00">_zrtos_cbuffer_write</text>
<text text-anchor="middle" x="89.75" y="-86.5" font-family="Helvetica,sans-Serif" font-size="10.00">_transaction_t</text>
</a>
</g>
</g>
<!-- Node2&#45;&gt;Node1 -->
<g id="edge1_Node000001_Node000002" class="edge">
<title>Node2&#45;&gt;Node1</title>
<g id="a_edge1_Node000001_Node000002"><a xlink:title=" ">
<path fill="none" stroke="#9a32cd" stroke-dasharray="5,2" d="M104.9,-69.86C112.34,-57.52 121.05,-43.05 127.48,-32.38"/>
<polygon fill="#9a32cd" stroke="#9a32cd" points="101.98,-67.92 99.82,-78.29 107.98,-71.53 101.98,-67.92"/>
</a>
</g>
<text text-anchor="middle" x="125" y="-52.5" font-family="Helvetica,sans-Serif" font-size="10.00" fill="grey"> txn</text>
</g>
<!-- Node3 -->
<g id="Node000003" class="node">
<title>Node3</title>
<g id="a_Node000003"><a xlink:href="struct__zrtos__cbuffer__t.html" target="_top" xlink:title=" ">
<polygon fill="white" stroke="#666666" points="90.25,-180 5.25,-180 5.25,-160 90.25,-160 90.25,-180"/>
<text text-anchor="middle" x="47.75" y="-166.5" font-family="Helvetica,sans-Serif" font-size="10.00">_zrtos_cbuffer_t</text>
</a>
</g>
</g>
<!-- Node3&#45;&gt;Node2 -->
<g id="edge2_Node000002_Node000003" class="edge">
<title>Node3&#45;&gt;Node2</title>
<g id="a_edge2_Node000002_Node000003"><a xlink:title=" ">
<path fill="none" stroke="#9a32cd" stroke-dasharray="5,2" d="M58.89,-149.91C65.71,-138.21 74.33,-123.43 80.73,-112.47"/>
<polygon fill="#9a32cd" stroke="#9a32cd" points="56.02,-147.88 54,-158.28 62.07,-151.41 56.02,-147.88"/>
</a>
</g>
<text text-anchor="middle" x="80.12" y="-132.5" font-family="Helvetica,sans-Serif" font-size="10.00" fill="grey"> thiz</text>
</g>
<!-- Node4 -->
<g id="Node000004" class="node">
<title>Node4</title>
<g id="a_Node000004"><a xlink:href="struct__zrtos__list__t.html" target="_top" xlink:title=" ">
<polygon fill="white" stroke="#666666" points="82.38,-248 13.12,-248 13.12,-228 82.38,-228 82.38,-248"/>
<text text-anchor="middle" x="47.75" y="-234.5" font-family="Helvetica,sans-Serif" font-size="10.00">_zrtos_list_t</text>
</a>
</g>
</g>
<!-- Node4&#45;&gt;Node3 -->
<g id="edge3_Node000003_Node000004" class="edge">
<title>Node4&#45;&gt;Node3</title>
<g id="a_edge3_Node000003_Node000004"><a xlink:title=" ">
<path fill="none" stroke="#9a32cd" stroke-dasharray="5,2" d="M47.75,-216.28C47.75,-204.27 47.75,-189.74 47.75,-180.44"/>
<polygon fill="#9a32cd" stroke="#9a32cd" points="44.25,-216.03 47.75,-226.03 51.25,-216.03 44.25,-216.03"/>
</a>
</g>
<text text-anchor="middle" x="57.5" y="-200.5" font-family="Helvetica,sans-Serif" font-size="10.00" fill="grey"> root</text>
</g>
<!-- Node5 -->
<g id="Node000005" class="node">
<title>Node5</title>
<g id="a_Node000005"><a xlink:href="struct__zrtos__list__node__t.html" target="_top" xlink:title=" ">
<polygon fill="white" stroke="#666666" points="95.5,-328 0,-328 0,-308 95.5,-308 95.5,-328"/>
<text text-anchor="middle" x="47.75" y="-314.5" font-family="Helvetica,sans-Serif" font-size="10.00">_zrtos_list_node_t</text>
</a>
</g>
</g>
<!-- Node5&#45;&gt;Node4 -->
<g id="edge4_Node000004_Node000005" class="edge">
<title>Node5&#45;&gt;Node4</title>
<g id="a_edge4_Node000004_Node000005"><a xlink:title=" ">
<path fill="none" stroke="#9a32cd" stroke-dasharray="5,2" d="M47.75,-296.59C47.75,-280.94 47.75,-260.08 47.75,-248.24"/>
<polygon fill="#9a32cd" stroke="#9a32cd" points="44.25,-296.23 47.75,-306.23 51.25,-296.23 44.25,-296.23"/>
</a>
</g>
<text text-anchor="middle" x="57.12" y="-280.5" font-family="Helvetica,sans-Serif" font-size="10.00" fill="grey"> first</text>
<text text-anchor="middle" x="57.12" y="-268.5" font-family="Helvetica,sans-Serif" font-size="10.00" fill="grey">last</text>
</g>
<!-- Node5&#45;&gt;Node5 -->
<g id="edge5_Node000005_Node000005" class="edge">
<title>Node5&#45;&gt;Node5</title>
<g id="a_edge5_Node000005_Node000005"><a xlink:title=" ">
<path fill="none" stroke="#9a32cd" stroke-dasharray="5,2" d="M106.98,-323.43C111.04,-322.18 113.5,-320.37 113.5,-318 113.5,-313.9 106.13,-311.48 95.91,-310.74"/>
<polygon fill="#9a32cd" stroke="#9a32cd" points="106.7,-319.93 97.41,-325.01 107.85,-326.83 106.7,-319.93"/>
</a>
</g>
<text text-anchor="middle" x="124.38" y="-314.5" font-family="Helvetica,sans-Serif" font-size="10.00" fill="grey"> next</text>
</g>
<!-- Node6 -->
<g id="Node000006" class="node">
<title>Node6</title>
<g id="a_Node000006"><a xlink:title=" ">
<polygon fill="white" stroke="#666666" points="153.38,-180 108.12,-180 108.12,-160 153.38,-160 153.38,-180"/>
<text text-anchor="middle" x="130.75" y="-166.5" font-family="Helvetica,sans-Serif" font-size="10.00">uint8_t</text>
</a>
</g>
</g>
<!-- Node6&#45;&gt;Node2 -->
<g id="edge6_Node000002_Node000006" class="edge">
<title>Node6&#45;&gt;Node2</title>
<g id="a_edge6_Node000002_Node000006"><a xlink:title=" ">
<path fill="none" stroke="#9a32cd" stroke-dasharray="5,2" d="M119.88,-149.91C113.22,-138.21 104.8,-123.43 98.56,-112.47"/>
<polygon fill="#9a32cd" stroke="#9a32cd" points="116.65,-151.31 124.64,-158.27 122.73,-147.85 116.65,-151.31"/>
</a>
</g>
<text text-anchor="middle" x="127.75" y="-132.5" font-family="Helvetica,sans-Serif" font-size="10.00" fill="grey"> head</text>
</g>
<!-- Node7 -->
<g id="Node000007" class="node">
<title>Node7</title>
<g id="a_Node000007"><a xlink:title=" ">
<polygon fill="white" stroke="#666666" points="209,-106 158.5,-106 158.5,-86 209,-86 209,-106"/>
<text text-anchor="middle" x="183.75" y="-92.5" font-family="Helvetica,sans-Serif" font-size="10.00">uint16_t</text>
</a>
</g>
</g>
<!-- Node7&#45;&gt;Node1 -->
<g id="edge7_Node000001_Node000007" class="edge">
<title>Node7&#45;&gt;Node1</title>
<g id="a_edge7_Node000001_Node000007"><a xlink:title=" ">
<path fill="none" stroke="#9a32cd" stroke-dasharray="5,2" d="M172.37,-76.12C164.3,-62.72 153.6,-44.96 146.04,-32.42"/>
<polygon fill="#9a32cd" stroke="#9a32cd" points="169.23,-77.69 177.39,-84.45 175.23,-74.08 169.23,-77.69"/>
</a>
</g>
<text text-anchor="middle" x="188.25" y="-52.5" font-family="Helvetica,sans-Serif" font-size="10.00" fill="grey"> msg_count</text>
</g>
</g>
</svg>
