<?xml version="1.0" encoding="UTF-8" standalone="no"?>
<!DOCTYPE svg PUBLIC "-//W3C//DTD SVG 1.1//EN"
 "http://www.w3.org/Graphics/SVG/1.1/DTD/svg11.dtd">
<!-- Generated by graphviz version 2.40.1 (20161225.0304)
 -->
<!-- Title: zrtos_vfs_module_mcp2515_rxbn_regs_t Pages: 1 -->
<svg width="304pt" height="139pt"
 viewBox="0.00 0.00 304.00 139.00" xmlns="http://www.w3.org/2000/svg" xmlns:xlink="http://www.w3.org/1999/xlink">
<g id="graph0" class="graph" transform="scale(1 1) rotate(0) translate(4 135)">
<title>zrtos_vfs_module_mcp2515_rxbn_regs_t</title>
<polygon fill="#ffffff" stroke="transparent" points="-4,4 -4,-135 300,-135 300,4 -4,4"/>
<!-- Node1 -->
<g id="node1" class="node">
<title>Node1</title>
<polygon fill="#bfbfbf" stroke="#000000" points="78,-.5 78,-30.5 217,-30.5 217,-.5 78,-.5"/>
<text text-anchor="start" x="86" y="-18.5" font-family="Helvetica,sans-Serif" font-size="10.00" fill="#000000">zrtos_vfs_module_mcp2515</text>
<text text-anchor="middle" x="147.5" y="-7.5" font-family="Helvetica,sans-Serif" font-size="10.00" fill="#000000">_rxbn_regs_t</text>
</g>
<!-- Node2 -->
<g id="node2" class="node">
<title>Node2</title>
<polygon fill="#ffffff" stroke="#bfbfbf" points="0,-100.5 0,-130.5 139,-130.5 139,-100.5 0,-100.5"/>
<text text-anchor="start" x="8" y="-118.5" font-family="Helvetica,sans-Serif" font-size="10.00" fill="#000000">zrtos_vfs_module_mcp2515</text>
<text text-anchor="middle" x="69.5" y="-107.5" font-family="Helvetica,sans-Serif" font-size="10.00" fill="#000000">_register_canintf_t</text>
</g>
<!-- Node2&#45;&gt;Node1 -->
<g id="edge1" class="edge">
<title>Node2&#45;&gt;Node1</title>
<path fill="none" stroke="#9a32cd" stroke-dasharray="5,2" d="M87.5173,-92.4009C102.3725,-73.3557 123.0113,-46.8957 135.7976,-30.5031"/>
<polygon fill="#9a32cd" stroke="#9a32cd" points="84.7371,-90.2745 81.3465,-100.3122 90.2566,-94.5797 84.7371,-90.2745"/>
<text text-anchor="middle" x="131.5" y="-63" font-family="Helvetica,sans-Serif" font-size="10.00" fill="#000000"> rxnif</text>
</g>
<!-- Node3 -->
<g id="node3" class="node">
<title>Node3</title>
<polygon fill="#ffffff" stroke="#bfbfbf" points="157,-100.5 157,-130.5 296,-130.5 296,-100.5 157,-100.5"/>
<text text-anchor="start" x="165" y="-118.5" font-family="Helvetica,sans-Serif" font-size="10.00" fill="#000000">zrtos_vfs_module_mcp2515</text>
<text text-anchor="middle" x="226.5" y="-107.5" font-family="Helvetica,sans-Serif" font-size="10.00" fill="#000000">_register_t</text>
</g>
<!-- Node3&#45;&gt;Node1 -->
<g id="edge2" class="edge">
<title>Node3&#45;&gt;Node1</title>
<path fill="none" stroke="#9a32cd" stroke-dasharray="5,2" d="M208.2517,-92.4009C193.206,-73.3557 172.3026,-46.8957 159.3525,-30.5031"/>
<polygon fill="#9a32cd" stroke="#9a32cd" points="205.5562,-94.635 214.5016,-100.3122 211.049,-90.2957 205.5562,-94.635"/>
<text text-anchor="middle" x="209.5" y="-74" font-family="Helvetica,sans-Serif" font-size="10.00" fill="#000000"> sidh</text>
<text text-anchor="middle" x="209.5" y="-63" font-family="Helvetica,sans-Serif" font-size="10.00" fill="#000000">ctrl</text>
<text text-anchor="middle" x="209.5" y="-52" font-family="Helvetica,sans-Serif" font-size="10.00" fill="#000000">data</text>
</g>
</g>
</svg>
