<?xml version="1.0" encoding="UTF-8" standalone="no"?>
<!DOCTYPE svg PUBLIC "-//W3C//DTD SVG 1.1//EN"
 "http://www.w3.org/Graphics/SVG/1.1/DTD/svg11.dtd">
<!-- Generated by graphviz version 10.0.1 (20240210.2158)
 -->
<!-- Title: _zrtos_vfs_file_t Pages: 1 -->
<svg width="829pt" height="327pt"
 viewBox="0.00 0.00 829.00 327.00" xmlns="http://www.w3.org/2000/svg" xmlns:xlink="http://www.w3.org/1999/xlink">
<g id="graph0" class="graph" transform="scale(1 1) rotate(0) translate(4 323)">
<title>_zrtos_vfs_file_t</title>
<!-- Node1 -->
<g id="Node000001" class="node">
<title>Node1</title>
<g id="a_Node000001"><a xlink:title=" ">
<polygon fill="#999999" stroke="#666666" points="821,-132 736,-132 736,-112 821,-112 821,-132"/>
<text text-anchor="middle" x="778.5" y="-118.5" font-family="Helvetica,sans-Serif" font-size="10.00">_zrtos_vfs_file_t</text>
</a>
</g>
</g>
<!-- Node2 -->
<g id="Node000002" class="node">
<title>Node2</title>
<g id="a_Node000002"><a xlink:href="struct__zrtos__vfs__dentry__t.html" target="_top" xlink:title=" ">
<polygon fill="white" stroke="#666666" points="670,-175 570,-175 570,-155 670,-155 670,-175"/>
<text text-anchor="middle" x="620" y="-161.5" font-family="Helvetica,sans-Serif" font-size="10.00">_zrtos_vfs_dentry_t</text>
</a>
</g>
</g>
<!-- Node2&#45;&gt;Node1 -->
<g id="edge1_Node000001_Node000002" class="edge">
<title>Node2&#45;&gt;Node1</title>
<g id="a_edge1_Node000001_Node000002"><a xlink:title=" ">
<path fill="none" stroke="#9a32cd" stroke-dasharray="5,2" d="M669.88,-151.57C692.31,-145.41 718.49,-138.21 739.42,-132.46"/>
<polygon fill="#9a32cd" stroke="#9a32cd" points="669.06,-148.17 660.34,-154.19 670.91,-154.92 669.06,-148.17"/>
</a>
</g>
<text text-anchor="middle" x="703" y="-148.5" font-family="Helvetica,sans-Serif" font-size="10.00" fill="grey"> dentry</text>
</g>
<!-- Node2&#45;&gt;Node2 -->
<g id="edge5_Node000002_Node000002" class="edge">
<title>Node2&#45;&gt;Node2</title>
<g id="a_edge5_Node000002_Node000002"><a xlink:title=" ">
<path fill="none" stroke="#9a32cd" stroke-dasharray="5,2" d="M605.76,-186.77C607.73,-190.45 612.47,-193 620,-193 634.17,-193 638.48,-183.98 632.95,-175.34"/>
<polygon fill="#9a32cd" stroke="#9a32cd" points="609.24,-187.17 606.88,-176.84 602.28,-186.39 609.24,-187.17"/>
</a>
</g>
<text text-anchor="middle" x="620" y="-195.5" font-family="Helvetica,sans-Serif" font-size="10.00" fill="grey"> parent</text>
</g>
<!-- Node3 -->
<g id="Node000003" class="node">
<title>Node3</title>
<g id="a_Node000003"><a xlink:href="struct__zrtos__clist__node__t.html" target="_top" xlink:title=" ">
<polygon fill="white" stroke="#666666" points="507,-248 406.25,-248 406.25,-228 507,-228 507,-248"/>
<text text-anchor="middle" x="456.62" y="-234.5" font-family="Helvetica,sans-Serif" font-size="10.00">_zrtos_clist_node_t</text>
</a>
</g>
</g>
<!-- Node3&#45;&gt;Node2 -->
<g id="edge2_Node000002_Node000003" class="edge">
<title>Node3&#45;&gt;Node2</title>
<g id="a_edge2_Node000002_Node000003"><a xlink:title=" ">
<path fill="none" stroke="#9a32cd" stroke-dasharray="5,2" d="M495.87,-223.42C499.64,-221.94 503.4,-220.45 507,-219 527.13,-210.88 532.36,-209.26 552,-200 568.5,-192.22 586.84,-182.57 600.15,-175.38"/>
<polygon fill="#9a32cd" stroke="#9a32cd" points="494.83,-220.07 486.78,-226.96 497.37,-226.6 494.83,-220.07"/>
</a>
</g>
<text text-anchor="middle" x="538.5" y="-213.5" font-family="Helvetica,sans-Serif" font-size="10.00" fill="grey"> node</text>
</g>
<!-- Node3&#45;&gt;Node3 -->
<g id="edge3_Node000003_Node000003" class="edge">
<title>Node3&#45;&gt;Node3</title>
<g id="a_edge3_Node000003_Node000003"><a xlink:title=" ">
<path fill="none" stroke="#9a32cd" stroke-dasharray="5,2" d="M442.32,-259.77C444.3,-263.45 449.06,-266 456.62,-266 470.86,-266 475.19,-256.98 469.63,-248.34"/>
<polygon fill="#9a32cd" stroke="#9a32cd" points="445.8,-260.17 443.45,-249.84 438.84,-259.39 445.8,-260.17"/>
</a>
</g>
<text text-anchor="middle" x="456.62" y="-268.5" font-family="Helvetica,sans-Serif" font-size="10.00" fill="grey"> next</text>
</g>
<!-- Node4 -->
<g id="Node000004" class="node">
<title>Node4</title>
<g id="a_Node000004"><a xlink:title=" ">
<polygon fill="white" stroke="#666666" points="477.38,-210 435.88,-210 435.88,-190 477.38,-190 477.38,-210"/>
<text text-anchor="middle" x="456.62" y="-196.5" font-family="Helvetica,sans-Serif" font-size="10.00">char *</text>
</a>
</g>
</g>
<!-- Node4&#45;&gt;Node2 -->
<g id="edge4_Node000002_Node000004" class="edge">
<title>Node4&#45;&gt;Node2</title>
<g id="a_edge4_Node000002_Node000004"><a xlink:title=" ">
<path fill="none" stroke="#9a32cd" stroke-dasharray="5,2" d="M488.69,-193.26C511.95,-188.22 544.21,-181.22 570.81,-175.45"/>
<polygon fill="#9a32cd" stroke="#9a32cd" points="488.25,-189.78 479.22,-195.32 489.73,-196.62 488.25,-189.78"/>
</a>
</g>
<text text-anchor="middle" x="538.5" y="-186.5" font-family="Helvetica,sans-Serif" font-size="10.00" fill="grey"> name</text>
</g>
<!-- Node5 -->
<g id="Node000005" class="node">
<title>Node5</title>
<g id="a_Node000005"><a xlink:href="struct__zrtos__vfs__inode__t.html" target="_top" xlink:title=" ">
<polygon fill="white" stroke="#666666" points="504.75,-172 408.5,-172 408.5,-152 504.75,-152 504.75,-172"/>
<text text-anchor="middle" x="456.62" y="-158.5" font-family="Helvetica,sans-Serif" font-size="10.00">_zrtos_vfs_inode_t</text>
</a>
</g>
</g>
<!-- Node5&#45;&gt;Node2 -->
<g id="edge6_Node000002_Node000005" class="edge">
<title>Node5&#45;&gt;Node2</title>
<g id="a_edge6_Node000002_Node000005"><a xlink:title=" ">
<path fill="none" stroke="#9a32cd" stroke-dasharray="5,2" d="M516.38,-163.09C533.83,-163.42 552.76,-163.77 569.55,-164.08"/>
<polygon fill="#9a32cd" stroke="#9a32cd" points="516.75,-159.6 506.68,-162.91 516.62,-166.6 516.75,-159.6"/>
</a>
</g>
<text text-anchor="middle" x="538.5" y="-165.5" font-family="Helvetica,sans-Serif" font-size="10.00" fill="grey"> inode</text>
</g>
<!-- Node6 -->
<g id="Node000006" class="node">
<title>Node6</title>
<g id="a_Node000006"><a xlink:href="structzrtos__vfs__plugin__t.html" target="_top" xlink:title=" ">
<polygon fill="white" stroke="#666666" points="341.75,-192 248.5,-192 248.5,-172 341.75,-172 341.75,-192"/>
<text text-anchor="middle" x="295.12" y="-178.5" font-family="Helvetica,sans-Serif" font-size="10.00">zrtos_vfs_plugin_t</text>
</a>
</g>
</g>
<!-- Node6&#45;&gt;Node5 -->
<g id="edge7_Node000005_Node000006" class="edge">
<title>Node6&#45;&gt;Node5</title>
<g id="a_edge7_Node000005_Node000006"><a xlink:title=" ">
<path fill="none" stroke="#9a32cd" stroke-dasharray="5,2" d="M353.11,-174.85C371.18,-172.59 390.94,-170.11 408.25,-167.94"/>
<polygon fill="#9a32cd" stroke="#9a32cd" points="352.82,-171.36 343.33,-176.08 353.69,-178.31 352.82,-171.36"/>
</a>
</g>
<text text-anchor="middle" x="374" y="-175.5" font-family="Helvetica,sans-Serif" font-size="10.00" fill="grey"> plugin</text>
</g>
<!-- Node7 -->
<g id="Node000007" class="node">
<title>Node7</title>
<g id="a_Node000007"><a xlink:title=" ">
<polygon fill="white" stroke="#666666" points="141.62,-316 28.12,-316 28.12,-284 141.62,-284 141.62,-316"/>
<text text-anchor="start" x="36.12" y="-302.5" font-family="Helvetica,sans-Serif" font-size="10.00">zrtos_error_t(*)(struct</text>
<text text-anchor="middle" x="84.88" y="-290.5" font-family="Helvetica,sans-Serif" font-size="10.00"> _zrtos_vfs_file_t *thiz)</text>
</a>
</g>
</g>
<!-- Node7&#45;&gt;Node6 -->
<g id="edge8_Node000006_Node000007" class="edge">
<title>Node7&#45;&gt;Node6</title>
<g id="a_edge8_Node000006_Node000007"><a xlink:title=" ">
<path fill="none" stroke="#9a32cd" stroke-dasharray="5,2" d="M152.87,-285.08C178.62,-277.3 207.36,-265.99 230.5,-250 254.44,-233.46 276.17,-206.56 286.96,-192.05"/>
<polygon fill="#9a32cd" stroke="#9a32cd" points="152.14,-281.64 143.5,-287.77 154.08,-288.37 152.14,-281.64"/>
</a>
</g>
<text text-anchor="middle" x="209.12" y="-309.5" font-family="Helvetica,sans-Serif" font-size="10.00" fill="grey"> can_read</text>
<text text-anchor="middle" x="209.12" y="-297.5" font-family="Helvetica,sans-Serif" font-size="10.00" fill="grey">can_write</text>
<text text-anchor="middle" x="209.12" y="-285.5" font-family="Helvetica,sans-Serif" font-size="10.00" fill="grey">close</text>
<text text-anchor="middle" x="209.12" y="-273.5" font-family="Helvetica,sans-Serif" font-size="10.00" fill="grey">open</text>
</g>
<!-- Node8 -->
<g id="Node000008" class="node">
<title>Node8</title>
<g id="a_Node000008"><a xlink:title=" ">
<polygon fill="white" stroke="#666666" points="149.12,-266 20.62,-266 20.62,-234 149.12,-234 149.12,-266"/>
<text text-anchor="start" x="28.62" y="-252.5" font-family="Helvetica,sans-Serif" font-size="10.00">zrtos_error_t(*)(struct</text>
<text text-anchor="middle" x="84.88" y="-240.5" font-family="Helvetica,sans-Serif" font-size="10.00"> _zrtos_vfs_dentry_t *thiz)</text>
</a>
</g>
</g>
<!-- Node8&#45;&gt;Node6 -->
<g id="edge9_Node000006_Node000008" class="edge">
<title>Node8&#45;&gt;Node6</title>
<g id="a_edge9_Node000006_Node000008"><a xlink:title=" ">
<path fill="none" stroke="#9a32cd" stroke-dasharray="5,2" d="M160.45,-231.59C183.15,-225.39 208.04,-218 230.5,-210 244.82,-204.9 260.46,-198.03 272.65,-192.38"/>
<polygon fill="#9a32cd" stroke="#9a32cd" points="159.71,-228.17 150.96,-234.14 161.52,-234.93 159.71,-228.17"/>
</a>
</g>
<text text-anchor="middle" x="209.12" y="-236.5" font-family="Helvetica,sans-Serif" font-size="10.00" fill="grey"> mount</text>
<text text-anchor="middle" x="209.12" y="-224.5" font-family="Helvetica,sans-Serif" font-size="10.00" fill="grey">umount</text>
</g>
<!-- Node9 -->
<g id="Node000009" class="node">
<title>Node9</title>
<g id="a_Node000009"><a xlink:title=" ">
<polygon fill="white" stroke="#666666" points="151.75,-216 18,-216 18,-148 151.75,-148 151.75,-216"/>
<text text-anchor="start" x="26" y="-202.5" font-family="Helvetica,sans-Serif" font-size="10.00">zrtos_error_t(*)(struct</text>
<text text-anchor="start" x="26" y="-190.5" font-family="Helvetica,sans-Serif" font-size="10.00"> _zrtos_vfs_file_t *thiz,</text>
<text text-anchor="start" x="26" y="-178.5" font-family="Helvetica,sans-Serif" font-size="10.00"> char *path, void *buf,</text>
<text text-anchor="start" x="26" y="-166.5" font-family="Helvetica,sans-Serif" font-size="10.00"> size_t len, zrtos_vfs_offset</text>
<text text-anchor="middle" x="84.88" y="-154.5" font-family="Helvetica,sans-Serif" font-size="10.00">_t offset, size_t *out)</text>
</a>
</g>
</g>
<!-- Node9&#45;&gt;Node6 -->
<g id="edge10_Node000006_Node000009" class="edge">
<title>Node9&#45;&gt;Node6</title>
<g id="a_edge10_Node000006_Node000009"><a xlink:title=" ">
<path fill="none" stroke="#9a32cd" stroke-dasharray="5,2" d="M163.26,-182C191.85,-182 223.31,-182 248.23,-182"/>
<polygon fill="#9a32cd" stroke="#9a32cd" points="163.57,-178.5 153.57,-182 163.57,-185.5 163.57,-178.5"/>
</a>
</g>
<text text-anchor="middle" x="209.12" y="-196.5" font-family="Helvetica,sans-Serif" font-size="10.00" fill="grey"> read</text>
<text text-anchor="middle" x="209.12" y="-184.5" font-family="Helvetica,sans-Serif" font-size="10.00" fill="grey">write</text>
</g>
<!-- Node10 -->
<g id="Node000010" class="node">
<title>Node10</title>
<g id="a_Node000010"><a xlink:title=" ">
<polygon fill="white" stroke="#666666" points="169.75,-130 0,-130 0,-74 169.75,-74 169.75,-130"/>
<text text-anchor="start" x="8" y="-116.5" font-family="Helvetica,sans-Serif" font-size="10.00">zrtos_error_t(*)(struct</text>
<text text-anchor="start" x="8" y="-104.5" font-family="Helvetica,sans-Serif" font-size="10.00"> _zrtos_vfs_file_t *thiz,</text>
<text text-anchor="start" x="8" y="-92.5" font-family="Helvetica,sans-Serif" font-size="10.00"> zrtos_vfs_offset_t offset,</text>
<text text-anchor="middle" x="84.88" y="-80.5" font-family="Helvetica,sans-Serif" font-size="10.00"> int whence, zrtos_vfs_offset_t *out)</text>
</a>
</g>
</g>
<!-- Node10&#45;&gt;Node6 -->
<g id="edge11_Node000006_Node000010" class="edge">
<title>Node10&#45;&gt;Node6</title>
<g id="a_edge11_Node000006_Node000010"><a xlink:title=" ">
<path fill="none" stroke="#9a32cd" stroke-dasharray="5,2" d="M170.47,-134.5C204.94,-147.74 242.38,-162.12 266.92,-171.55"/>
<polygon fill="#9a32cd" stroke="#9a32cd" points="171.89,-131.29 161.3,-130.97 169.38,-137.83 171.89,-131.29"/>
</a>
</g>
<text text-anchor="middle" x="209.12" y="-158.5" font-family="Helvetica,sans-Serif" font-size="10.00" fill="grey"> seek</text>
</g>
<!-- Node11 -->
<g id="Node000011" class="node">
<title>Node11</title>
<g id="a_Node000011"><a xlink:title=" ">
<polygon fill="white" stroke="#666666" points="143.88,-56 25.88,-56 25.88,0 143.88,0 143.88,-56"/>
<text text-anchor="start" x="33.88" y="-42.5" font-family="Helvetica,sans-Serif" font-size="10.00">zrtos_error_t(*)(struct</text>
<text text-anchor="start" x="33.88" y="-30.5" font-family="Helvetica,sans-Serif" font-size="10.00"> _zrtos_vfs_file_t *thiz,</text>
<text text-anchor="start" x="33.88" y="-18.5" font-family="Helvetica,sans-Serif" font-size="10.00"> char *path, int request,</text>
<text text-anchor="middle" x="84.88" y="-6.5" font-family="Helvetica,sans-Serif" font-size="10.00"> va_list args)</text>
</a>
</g>
</g>
<!-- Node11&#45;&gt;Node6 -->
<g id="edge12_Node000006_Node000011" class="edge">
<title>Node11&#45;&gt;Node6</title>
<g id="a_edge12_Node000006_Node000011"><a xlink:title=" ">
<path fill="none" stroke="#9a32cd" stroke-dasharray="5,2" d="M154.12,-55.47C159.55,-58.44 164.83,-61.62 169.75,-65 201.3,-86.65 208.33,-94.82 230.5,-126 241.1,-140.9 235.2,-150.45 248.5,-163 252.12,-166.42 256.44,-169.26 260.96,-171.61"/>
<polygon fill="#9a32cd" stroke="#9a32cd" points="156.08,-52.54 145.59,-51.05 152.86,-58.76 156.08,-52.54"/>
</a>
</g>
<text text-anchor="middle" x="209.12" y="-128.5" font-family="Helvetica,sans-Serif" font-size="10.00" fill="grey"> ioctl</text>
</g>
<!-- Node12 -->
<g id="Node000012" class="node">
<title>Node12</title>
<g id="a_Node000012"><a xlink:title=" ">
<polygon fill="white" stroke="#666666" points="314.75,-154 275.5,-154 275.5,-134 314.75,-134 314.75,-154"/>
<text text-anchor="middle" x="295.12" y="-140.5" font-family="Helvetica,sans-Serif" font-size="10.00">void *</text>
</a>
</g>
</g>
<!-- Node12&#45;&gt;Node5 -->
<g id="edge13_Node000005_Node000012" class="edge">
<title>Node12&#45;&gt;Node5</title>
<g id="a_edge13_Node000005_Node000012"><a xlink:title=" ">
<path fill="none" stroke="#9a32cd" stroke-dasharray="5,2" d="M326.2,-143.05C344.26,-142.88 367.65,-143.36 388.25,-146 397.91,-147.24 408.2,-149.29 417.76,-151.53"/>
<polygon fill="#9a32cd" stroke="#9a32cd" points="326.36,-139.55 316.43,-143.23 326.49,-146.55 326.36,-139.55"/>
</a>
</g>
<text text-anchor="middle" x="374" y="-148.5" font-family="Helvetica,sans-Serif" font-size="10.00" fill="grey"> ctx</text>
</g>
<!-- Node13 -->
<g id="Node000013" class="node">
<title>Node13</title>
<g id="a_Node000013"><a xlink:title=" ">
<polygon fill="white" stroke="#666666" points="481.88,-121 431.38,-121 431.38,-101 481.88,-101 481.88,-121"/>
<text text-anchor="middle" x="456.62" y="-107.5" font-family="Helvetica,sans-Serif" font-size="10.00">uint16_t</text>
</a>
</g>
</g>
<!-- Node13&#45;&gt;Node1 -->
<g id="edge15_Node000001_Node000013" class="edge">
<title>Node13&#45;&gt;Node1</title>
<g id="a_edge15_Node000001_Node000013"><a xlink:title=" ">
<path fill="none" stroke="#9a32cd" stroke-dasharray="5,2" d="M493.64,-112.24C553.27,-114.29 672.21,-118.38 735.54,-120.56"/>
<polygon fill="#9a32cd" stroke="#9a32cd" points="493.82,-108.74 483.71,-111.9 493.58,-115.74 493.82,-108.74"/>
</a>
</g>
<text text-anchor="middle" x="620" y="-120.5" font-family="Helvetica,sans-Serif" font-size="10.00" fill="grey"> offset</text>
</g>
<!-- Node13&#45;&gt;Node2 -->
<g id="edge14_Node000002_Node000013" class="edge">
<title>Node13&#45;&gt;Node2</title>
<g id="a_edge14_Node000002_Node000013"><a xlink:title=" ">
<path fill="none" stroke="#9a32cd" stroke-dasharray="5,2" d="M492.78,-122.77C521.15,-132.26 560.66,-145.48 587.89,-154.59"/>
<polygon fill="#9a32cd" stroke="#9a32cd" points="494.16,-119.54 483.57,-119.68 491.94,-126.17 494.16,-119.54"/>
</a>
</g>
<text text-anchor="middle" x="538.5" y="-143.5" font-family="Helvetica,sans-Serif" font-size="10.00" fill="grey"> count</text>
</g>
</g>
</svg>
