<?xml version="1.0" encoding="UTF-8" standalone="no"?>
<!DOCTYPE svg PUBLIC "-//W3C//DTD SVG 1.1//EN"
 "http://www.w3.org/Graphics/SVG/1.1/DTD/svg11.dtd">
<!-- Generated by graphviz version 2.40.1 (20161225.0304)
 -->
<!-- Title: zrtos_vfs_module_w5500_socket_inode_t Pages: 1 -->
<svg width="141pt" height="251pt"
 viewBox="0.00 0.00 141.00 251.00" xmlns="http://www.w3.org/2000/svg" xmlns:xlink="http://www.w3.org/1999/xlink">
<g id="graph0" class="graph" transform="scale(1 1) rotate(0) translate(4 247)">
<title>zrtos_vfs_module_w5500_socket_inode_t</title>
<polygon fill="#ffffff" stroke="transparent" points="-4,4 -4,-247 137,-247 137,4 -4,4"/>
<!-- Node1 -->
<g id="node1" class="node">
<title>Node1</title>
<polygon fill="#bfbfbf" stroke="#000000" points="2.5,-.5 2.5,-30.5 130.5,-30.5 130.5,-.5 2.5,-.5"/>
<text text-anchor="start" x="10.5" y="-18.5" font-family="Helvetica,sans-Serif" font-size="10.00" fill="#000000">zrtos_vfs_module_w5500</text>
<text text-anchor="middle" x="66.5" y="-7.5" font-family="Helvetica,sans-Serif" font-size="10.00" fill="#000000">_socket_inode_t</text>
</g>
<!-- Node2 -->
<g id="node2" class="node">
<title>Node2</title>
<g id="a_node2"><a xlink:href="struct__zrtos__vfs__module__w5500__inode__t.html" target="_top" xlink:title="_zrtos_vfs_module_w5500\l_inode_t">
<polygon fill="#ffffff" stroke="#000000" points="0,-78.5 0,-108.5 133,-108.5 133,-78.5 0,-78.5"/>
<text text-anchor="start" x="8" y="-96.5" font-family="Helvetica,sans-Serif" font-size="10.00" fill="#000000">_zrtos_vfs_module_w5500</text>
<text text-anchor="middle" x="66.5" y="-85.5" font-family="Helvetica,sans-Serif" font-size="10.00" fill="#000000">_inode_t</text>
</a>
</g>
</g>
<!-- Node2&#45;&gt;Node1 -->
<g id="edge1" class="edge">
<title>Node2&#45;&gt;Node1</title>
<path fill="none" stroke="#9a32cd" stroke-dasharray="5,2" d="M66.5,-68.2875C66.5,-55.9187 66.5,-41.4264 66.5,-30.7592"/>
<polygon fill="#9a32cd" stroke="#9a32cd" points="63.0001,-68.4608 66.5,-78.4608 70.0001,-68.4608 63.0001,-68.4608"/>
<text text-anchor="middle" x="82.5" y="-52" font-family="Helvetica,sans-Serif" font-size="10.00" fill="#000000"> w5500</text>
</g>
<!-- Node3 -->
<g id="node3" class="node">
<title>Node3</title>
<g id="a_node3"><a xlink:href="struct__zrtos__vfs__fd__t.html" target="_top" xlink:title="_zrtos_vfs_fd_t">
<polygon fill="#ffffff" stroke="#000000" points="24.5,-156.5 24.5,-175.5 108.5,-175.5 108.5,-156.5 24.5,-156.5"/>
<text text-anchor="middle" x="66.5" y="-163.5" font-family="Helvetica,sans-Serif" font-size="10.00" fill="#000000">_zrtos_vfs_fd_t</text>
</a>
</g>
</g>
<!-- Node3&#45;&gt;Node2 -->
<g id="edge2" class="edge">
<title>Node3&#45;&gt;Node2</title>
<path fill="none" stroke="#9a32cd" stroke-dasharray="5,2" d="M66.5,-146.0177C66.5,-134.2164 66.5,-119.513 66.5,-108.668"/>
<polygon fill="#9a32cd" stroke="#9a32cd" points="63.0001,-146.2223 66.5,-156.2223 70.0001,-146.2224 63.0001,-146.2223"/>
<text text-anchor="middle" x="72.5" y="-130" font-family="Helvetica,sans-Serif" font-size="10.00" fill="#000000"> fd</text>
</g>
<!-- Node4 -->
<g id="node4" class="node">
<title>Node4</title>
<polygon fill="#ffffff" stroke="#bfbfbf" points="41,-223.5 41,-242.5 92,-242.5 92,-223.5 41,-223.5"/>
<text text-anchor="middle" x="66.5" y="-230.5" font-family="Helvetica,sans-Serif" font-size="10.00" fill="#000000">uint16_t</text>
</g>
<!-- Node4&#45;&gt;Node3 -->
<g id="edge3" class="edge">
<title>Node4&#45;&gt;Node3</title>
<path fill="none" stroke="#9a32cd" stroke-dasharray="5,2" d="M66.5,-213.1079C66.5,-200.714 66.5,-185.3263 66.5,-175.5817"/>
<polygon fill="#9a32cd" stroke="#9a32cd" points="63.0001,-213.4005 66.5,-223.4005 70.0001,-213.4006 63.0001,-213.4005"/>
<text text-anchor="middle" x="72.5" y="-197" font-family="Helvetica,sans-Serif" font-size="10.00" fill="#000000"> fd</text>
</g>
</g>
</svg>
