<?xml version="1.0" encoding="UTF-8" standalone="no"?>
<!DOCTYPE svg PUBLIC "-//W3C//DTD SVG 1.1//EN"
 "http://www.w3.org/Graphics/SVG/1.1/DTD/svg11.dtd">
<!-- Generated by graphviz version 2.40.1 (20161225.0304)
 -->
<!-- Title: _zrtos_vfs_notify_entry_t Pages: 1 -->
<svg width="345pt" height="229pt"
 viewBox="0.00 0.00 345.00 229.00" xmlns="http://www.w3.org/2000/svg" xmlns:xlink="http://www.w3.org/1999/xlink">
<g id="graph0" class="graph" transform="scale(1 1) rotate(0) translate(4 225)">
<title>_zrtos_vfs_notify_entry_t</title>
<polygon fill="#ffffff" stroke="transparent" points="-4,4 -4,-225 341,-225 341,4 -4,4"/>
<!-- Node1 -->
<g id="node1" class="node">
<title>Node1</title>
<polygon fill="#bfbfbf" stroke="#000000" points="0,-67.5 0,-86.5 127,-86.5 127,-67.5 0,-67.5"/>
<text text-anchor="middle" x="63.5" y="-74.5" font-family="Helvetica,sans-Serif" font-size="10.00" fill="#000000">_zrtos_vfs_notify_entry_t</text>
</g>
<!-- Node2 -->
<g id="node2" class="node">
<title>Node2</title>
<g id="a_node2"><a xlink:href="struct__zrtos__vfs__notify__t.html" target="_top" xlink:title="_zrtos_vfs_notify_t">
<polygon fill="#ffffff" stroke="#000000" points="97.5,-.5 97.5,-19.5 197.5,-19.5 197.5,-.5 97.5,-.5"/>
<text text-anchor="middle" x="147.5" y="-7.5" font-family="Helvetica,sans-Serif" font-size="10.00" fill="#000000">_zrtos_vfs_notify_t</text>
</a>
</g>
</g>
<!-- Node1&#45;&gt;Node2 -->
<g id="edge2" class="edge">
<title>Node1&#45;&gt;Node2</title>
<path fill="none" stroke="#9a32cd" stroke-dasharray="5,2" d="M64.8781,-57.2196C66.239,-50.4497 68.789,-43.2638 73.5,-38 81.0117,-29.6069 91.3036,-23.7178 101.8239,-19.5898"/>
<polygon fill="#9a32cd" stroke="#9a32cd" points="61.4019,-56.811 63.5786,-67.1798 68.343,-57.7167 61.4019,-56.811"/>
<text text-anchor="middle" x="84.5" y="-41" font-family="Helvetica,sans-Serif" font-size="10.00" fill="#000000"> data</text>
</g>
<!-- Node2&#45;&gt;Node1 -->
<g id="edge1" class="edge">
<title>Node2&#45;&gt;Node1</title>
<path fill="none" stroke="#9a32cd" stroke-dasharray="5,2" d="M127.6624,-25.8229C111.4754,-38.7339 89.1332,-56.5544 75.5352,-67.4005"/>
<polygon fill="#9a32cd" stroke="#9a32cd" points="129.8519,-28.5535 135.4872,-19.5817 125.4869,-23.0811 129.8519,-28.5535"/>
<text text-anchor="middle" x="130.5" y="-41" font-family="Helvetica,sans-Serif" font-size="10.00" fill="#000000"> callback</text>
</g>
<!-- Node3 -->
<g id="node3" class="node">
<title>Node3</title>
<polygon fill="#ffffff" stroke="#bfbfbf" points="145,-67.5 145,-86.5 216,-86.5 216,-67.5 145,-67.5"/>
<text text-anchor="middle" x="180.5" y="-74.5" font-family="Helvetica,sans-Serif" font-size="10.00" fill="#000000">zrtos_error_t</text>
</g>
<!-- Node3&#45;&gt;Node2 -->
<g id="edge3" class="edge">
<title>Node3&#45;&gt;Node2</title>
<path fill="none" stroke="#9a32cd" stroke-dasharray="5,2" d="M171.2587,-58.2374C165.0646,-45.6614 157.1659,-29.6246 152.2193,-19.5817"/>
<polygon fill="#9a32cd" stroke="#9a32cd" points="168.2135,-59.9761 175.7719,-67.4005 174.4932,-56.8831 168.2135,-59.9761"/>
<text text-anchor="middle" x="177" y="-41" font-family="Helvetica,sans-Serif" font-size="10.00" fill="#000000"> error</text>
</g>
<!-- Node4 -->
<g id="node4" class="node">
<title>Node4</title>
<g id="a_node4"><a xlink:href="struct__zrtos__vfs__fd__set__t.html" target="_top" xlink:title="_zrtos_vfs_fd_set_t">
<polygon fill="#ffffff" stroke="#000000" points="234,-67.5 234,-86.5 337,-86.5 337,-67.5 234,-67.5"/>
<text text-anchor="middle" x="285.5" y="-74.5" font-family="Helvetica,sans-Serif" font-size="10.00" fill="#000000">_zrtos_vfs_fd_set_t</text>
</a>
</g>
</g>
<!-- Node4&#45;&gt;Node2 -->
<g id="edge4" class="edge">
<title>Node4&#45;&gt;Node2</title>
<path fill="none" stroke="#9a32cd" stroke-dasharray="5,2" d="M256.4609,-62.9013C229.6594,-49.889 190.5834,-30.9173 167.2354,-19.5817"/>
<polygon fill="#9a32cd" stroke="#9a32cd" points="255.2035,-66.1815 265.728,-67.4005 258.2608,-59.8844 255.2035,-66.1815"/>
<text text-anchor="middle" x="237" y="-41" font-family="Helvetica,sans-Serif" font-size="10.00" fill="#000000"> fdset</text>
</g>
<!-- Node5 -->
<g id="node5" class="node">
<title>Node5</title>
<g id="a_node5"><a xlink:href="structzrtos__bitfield__t.html" target="_top" xlink:title="zrtos_bitfield_t">
<polygon fill="#ffffff" stroke="#000000" points="245.5,-134.5 245.5,-153.5 325.5,-153.5 325.5,-134.5 245.5,-134.5"/>
<text text-anchor="middle" x="285.5" y="-141.5" font-family="Helvetica,sans-Serif" font-size="10.00" fill="#000000">zrtos_bitfield_t</text>
</a>
</g>
</g>
<!-- Node5&#45;&gt;Node4 -->
<g id="edge5" class="edge">
<title>Node5&#45;&gt;Node4</title>
<path fill="none" stroke="#9a32cd" stroke-dasharray="5,2" d="M285.5,-124.1079C285.5,-111.714 285.5,-96.3263 285.5,-86.5817"/>
<polygon fill="#9a32cd" stroke="#9a32cd" points="282.0001,-124.4005 285.5,-134.4005 289.0001,-124.4006 282.0001,-124.4005"/>
<text text-anchor="middle" x="304.5" y="-108" font-family="Helvetica,sans-Serif" font-size="10.00" fill="#000000"> fds_bits</text>
</g>
<!-- Node6 -->
<g id="node6" class="node">
<title>Node6</title>
<polygon fill="#ffffff" stroke="#bfbfbf" points="262.5,-201.5 262.5,-220.5 308.5,-220.5 308.5,-201.5 262.5,-201.5"/>
<text text-anchor="middle" x="285.5" y="-208.5" font-family="Helvetica,sans-Serif" font-size="10.00" fill="#000000">uint8_t</text>
</g>
<!-- Node6&#45;&gt;Node5 -->
<g id="edge6" class="edge">
<title>Node6&#45;&gt;Node5</title>
<path fill="none" stroke="#9a32cd" stroke-dasharray="5,2" d="M285.5,-191.1079C285.5,-178.714 285.5,-163.3263 285.5,-153.5817"/>
<polygon fill="#9a32cd" stroke="#9a32cd" points="282.0001,-191.4005 285.5,-201.4005 289.0001,-191.4006 282.0001,-191.4005"/>
<text text-anchor="middle" x="293.5" y="-175" font-family="Helvetica,sans-Serif" font-size="10.00" fill="#000000"> val</text>
</g>
</g>
</svg>
