<?xml version="1.0" encoding="UTF-8" standalone="no"?>
<!DOCTYPE svg PUBLIC "-//W3C//DTD SVG 1.1//EN"
 "http://www.w3.org/Graphics/SVG/1.1/DTD/svg11.dtd">
<!-- Generated by graphviz version 10.0.1 (20240210.2158)
 -->
<!-- Title: _zrtos_cbuffer_state_t Pages: 1 -->
<svg width="206pt" height="200pt"
 viewBox="0.00 0.00 206.38 200.00" xmlns="http://www.w3.org/2000/svg" xmlns:xlink="http://www.w3.org/1999/xlink">
<g id="graph0" class="graph" transform="scale(1 1) rotate(0) translate(4 196)">
<title>_zrtos_cbuffer_state_t</title>
<!-- Node1 -->
<g id="Node000001" class="node">
<title>Node1</title>
<g id="a_Node000001"><a xlink:title=" ">
<polygon fill="#999999" stroke="#666666" points="185.75,-20 73.75,-20 73.75,0 185.75,0 185.75,-20"/>
<text text-anchor="middle" x="129.75" y="-6.5" font-family="Helvetica,sans-Serif" font-size="10.00">_zrtos_cbuffer_state_t</text>
</a>
</g>
</g>
<!-- Node2 -->
<g id="Node000002" class="node">
<title>Node2</title>
<g id="a_Node000002"><a xlink:href="struct__zrtos__cbuffer__node__t.html" target="_top" xlink:title=" ">
<polygon fill="white" stroke="#666666" points="139.38,-100 28.12,-100 28.12,-80 139.38,-80 139.38,-100"/>
<text text-anchor="middle" x="83.75" y="-86.5" font-family="Helvetica,sans-Serif" font-size="10.00">_zrtos_cbuffer_node_t</text>
</a>
</g>
</g>
<!-- Node2&#45;&gt;Node1 -->
<g id="edge1_Node000001_Node000002" class="edge">
<title>Node2&#45;&gt;Node1</title>
<g id="a_edge1_Node000001_Node000002"><a xlink:title=" ">
<path fill="none" stroke="#9a32cd" stroke-dasharray="5,2" d="M94.98,-69.97C104.28,-54.19 117.11,-32.43 124.3,-20.24"/>
<polygon fill="#9a32cd" stroke="#9a32cd" points="92.04,-68.05 89.98,-78.44 98.07,-71.61 92.04,-68.05"/>
</a>
</g>
<text text-anchor="middle" x="123.12" y="-52.5" font-family="Helvetica,sans-Serif" font-size="10.00" fill="grey"> first</text>
<text text-anchor="middle" x="123.12" y="-40.5" font-family="Helvetica,sans-Serif" font-size="10.00" fill="grey">last</text>
</g>
<!-- Node3 -->
<g id="Node000003" class="node">
<title>Node3</title>
<g id="a_Node000003"><a xlink:href="struct__zrtos__list__node__t.html" target="_top" xlink:title=" ">
<polygon fill="white" stroke="#666666" points="95.5,-192 0,-192 0,-172 95.5,-172 95.5,-192"/>
<text text-anchor="middle" x="47.75" y="-178.5" font-family="Helvetica,sans-Serif" font-size="10.00">_zrtos_list_node_t</text>
</a>
</g>
</g>
<!-- Node3&#45;&gt;Node2 -->
<g id="edge2_Node000002_Node000003" class="edge">
<title>Node3&#45;&gt;Node2</title>
<g id="a_edge2_Node000002_Node000003"><a xlink:title=" ">
<path fill="none" stroke="#9a32cd" stroke-dasharray="5,2" d="M55.64,-161.28C63.19,-142.39 74.27,-114.71 80,-100.38"/>
<polygon fill="#9a32cd" stroke="#9a32cd" points="52.49,-159.72 52.03,-170.3 58.99,-162.32 52.49,-159.72"/>
</a>
</g>
<text text-anchor="middle" x="84.75" y="-132.5" font-family="Helvetica,sans-Serif" font-size="10.00" fill="grey"> node</text>
</g>
<!-- Node3&#45;&gt;Node3 -->
<g id="edge3_Node000003_Node000003" class="edge">
<title>Node3&#45;&gt;Node3</title>
<g id="a_edge3_Node000003_Node000003"><a xlink:title=" ">
<path fill="none" stroke="#9a32cd" stroke-dasharray="5,2" d="M106.98,-188.24C111.04,-186.81 113.5,-184.73 113.5,-182 113.5,-177.28 106.13,-174.5 95.91,-173.65"/>
<polygon fill="#9a32cd" stroke="#9a32cd" points="106.57,-184.76 97.4,-190.06 107.88,-191.63 106.57,-184.76"/>
</a>
</g>
<text text-anchor="middle" x="124.38" y="-178.5" font-family="Helvetica,sans-Serif" font-size="10.00" fill="grey"> next</text>
</g>
<!-- Node4 -->
<g id="Node000004" class="node">
<title>Node4</title>
<g id="a_Node000004"><a xlink:title=" ">
<polygon fill="white" stroke="#666666" points="198.38,-192 153.12,-192 153.12,-172 198.38,-172 198.38,-192"/>
<text text-anchor="middle" x="175.75" y="-178.5" font-family="Helvetica,sans-Serif" font-size="10.00">uint8_t</text>
</a>
</g>
</g>
<!-- Node4&#45;&gt;Node1 -->
<g id="edge5_Node000001_Node000004" class="edge">
<title>Node4&#45;&gt;Node1</title>
<g id="a_edge5_Node000001_Node000004"><a xlink:title=" ">
<path fill="none" stroke="#9a32cd" stroke-dasharray="5,2" d="M171.61,-160.62C169,-148.25 165.43,-132.15 161.75,-118 152.28,-81.6 138.78,-38.92 132.8,-20.38"/>
<polygon fill="#9a32cd" stroke="#9a32cd" points="168.11,-160.99 173.57,-170.07 174.97,-159.57 168.11,-160.99"/>
</a>
</g>
<text text-anchor="middle" x="168.75" y="-86.5" font-family="Helvetica,sans-Serif" font-size="10.00" fill="grey"> head</text>
</g>
<!-- Node4&#45;&gt;Node2 -->
<g id="edge4_Node000002_Node000004" class="edge">
<title>Node4&#45;&gt;Node2</title>
<g id="a_edge4_Node000002_Node000004"><a xlink:title=" ">
<path fill="none" stroke="#9a32cd" stroke-dasharray="5,2" d="M153.13,-164.98C148.65,-161.51 144.08,-157.75 140,-154 121.02,-136.52 101.55,-113.29 91.24,-100.49"/>
<polygon fill="#9a32cd" stroke="#9a32cd" points="150.69,-167.52 160.8,-170.69 154.87,-161.91 150.69,-167.52"/>
</a>
</g>
<text text-anchor="middle" x="151.62" y="-144.5" font-family="Helvetica,sans-Serif" font-size="10.00" fill="grey"> data</text>
<text text-anchor="middle" x="151.62" y="-132.5" font-family="Helvetica,sans-Serif" font-size="10.00" fill="grey">head</text>
<text text-anchor="middle" x="151.62" y="-120.5" font-family="Helvetica,sans-Serif" font-size="10.00" fill="grey">tail</text>
</g>
</g>
</svg>
