<?xml version="1.0" encoding="UTF-8" standalone="no"?>
<!DOCTYPE svg PUBLIC "-//W3C//DTD SVG 1.1//EN"
 "http://www.w3.org/Graphics/SVG/1.1/DTD/svg11.dtd">
<!-- Generated by graphviz version 2.40.1 (20161225.0304)
 -->
<!-- Title: _zrtos_vheap_t Pages: 1 -->
<svg width="125pt" height="117pt"
 viewBox="0.00 0.00 125.00 117.00" xmlns="http://www.w3.org/2000/svg" xmlns:xlink="http://www.w3.org/1999/xlink">
<g id="graph0" class="graph" transform="scale(1 1) rotate(0) translate(4 113)">
<title>_zrtos_vheap_t</title>
<polygon fill="#ffffff" stroke="transparent" points="-4,4 -4,-113 121,-113 121,4 -4,4"/>
<!-- Node1 -->
<g id="node1" class="node">
<title>Node1</title>
<polygon fill="#bfbfbf" stroke="#000000" points="19,-.5 19,-19.5 102,-19.5 102,-.5 19,-.5"/>
<text text-anchor="middle" x="60.5" y="-7.5" font-family="Helvetica,sans-Serif" font-size="10.00" fill="#000000">_zrtos_vheap_t</text>
</g>
<!-- Node2 -->
<g id="node2" class="node">
<title>Node2</title>
<polygon fill="#ffffff" stroke="#bfbfbf" points="0,-89.5 0,-108.5 51,-108.5 51,-89.5 0,-89.5"/>
<text text-anchor="middle" x="25.5" y="-96.5" font-family="Helvetica,sans-Serif" font-size="10.00" fill="#000000">uint16_t</text>
</g>
<!-- Node2&#45;&gt;Node1 -->
<g id="edge1" class="edge">
<title>Node2&#45;&gt;Node1</title>
<path fill="none" stroke="#9a32cd" stroke-dasharray="5,2" d="M21.7417,-79.1358C20.3526,-66.7114 20.3736,-50.7107 26.5,-38 30.1521,-30.4228 36.9432,-24.1875 43.5013,-19.54"/>
<polygon fill="#9a32cd" stroke="#9a32cd" points="18.3287,-79.9765 23.2791,-89.3436 25.2507,-78.9339 18.3287,-79.9765"/>
<text text-anchor="middle" x="50.5" y="-63" font-family="Helvetica,sans-Serif" font-size="10.00" fill="#000000"> heap_size</text>
<text text-anchor="middle" x="50.5" y="-52" font-family="Helvetica,sans-Serif" font-size="10.00" fill="#000000">total_size</text>
<text text-anchor="middle" x="50.5" y="-41" font-family="Helvetica,sans-Serif" font-size="10.00" fill="#000000">length</text>
</g>
<!-- Node3 -->
<g id="node3" class="node">
<title>Node3</title>
<polygon fill="#ffffff" stroke="#bfbfbf" points="76,-89.5 76,-108.5 117,-108.5 117,-89.5 76,-89.5"/>
<text text-anchor="middle" x="96.5" y="-96.5" font-family="Helvetica,sans-Serif" font-size="10.00" fill="#000000">void *</text>
</g>
<!-- Node3&#45;&gt;Node1 -->
<g id="edge2" class="edge">
<title>Node3&#45;&gt;Node1</title>
<path fill="none" stroke="#9a32cd" stroke-dasharray="5,2" d="M90.2319,-79.826C86.1086,-67.697 80.3996,-51.7657 74.5,-38 71.8453,-31.8056 68.4776,-25.0427 65.7106,-19.7154"/>
<polygon fill="#9a32cd" stroke="#9a32cd" points="86.9266,-80.9781 93.4122,-89.3559 93.5666,-78.7622 86.9266,-80.9781"/>
<text text-anchor="middle" x="94" y="-52" font-family="Helvetica,sans-Serif" font-size="10.00" fill="#000000"> ptr</text>
</g>
</g>
</svg>
