<?xml version="1.0" encoding="UTF-8" standalone="no"?>
<!DOCTYPE svg PUBLIC "-//W3C//DTD SVG 1.1//EN"
 "http://www.w3.org/Graphics/SVG/1.1/DTD/svg11.dtd">
<!-- Generated by graphviz version 2.40.1 (20161225.0304)
 -->
<!-- Title: zrtos_vfs_module_dns_answer_t Pages: 1 -->
<svg width="123pt" height="128pt"
 viewBox="0.00 0.00 123.00 128.00" xmlns="http://www.w3.org/2000/svg" xmlns:xlink="http://www.w3.org/1999/xlink">
<g id="graph0" class="graph" transform="scale(1 1) rotate(0) translate(4 124)">
<title>zrtos_vfs_module_dns_answer_t</title>
<polygon fill="#ffffff" stroke="transparent" points="-4,4 -4,-124 119,-124 119,4 -4,4"/>
<!-- Node1 -->
<g id="node1" class="node">
<title>Node1</title>
<polygon fill="#bfbfbf" stroke="#000000" points="0,-.5 0,-30.5 115,-30.5 115,-.5 0,-.5"/>
<text text-anchor="start" x="8" y="-18.5" font-family="Helvetica,sans-Serif" font-size="10.00" fill="#000000">zrtos_vfs_module_dns</text>
<text text-anchor="middle" x="57.5" y="-7.5" font-family="Helvetica,sans-Serif" font-size="10.00" fill="#000000">_answer_t</text>
</g>
<!-- Node2 -->
<g id="node2" class="node">
<title>Node2</title>
<polygon fill="#ffffff" stroke="#bfbfbf" points="8,-100.5 8,-119.5 49,-119.5 49,-100.5 8,-100.5"/>
<text text-anchor="middle" x="28.5" y="-107.5" font-family="Helvetica,sans-Serif" font-size="10.00" fill="#000000">u32_t</text>
</g>
<!-- Node2&#45;&gt;Node1 -->
<g id="edge1" class="edge">
<title>Node2&#45;&gt;Node1</title>
<path fill="none" stroke="#9a32cd" stroke-dasharray="5,2" d="M34.444,-90.6308C39.8961,-72.8645 47.8609,-46.9103 52.8582,-30.6257"/>
<polygon fill="#9a32cd" stroke="#9a32cd" points="31.0821,-89.656 31.4943,-100.2428 37.7741,-91.7096 31.0821,-89.656"/>
<text text-anchor="middle" x="52.5" y="-63" font-family="Helvetica,sans-Serif" font-size="10.00" fill="#000000"> ttl</text>
</g>
<!-- Node3 -->
<g id="node3" class="node">
<title>Node3</title>
<polygon fill="#ffffff" stroke="#bfbfbf" points="67,-100.5 67,-119.5 108,-119.5 108,-100.5 67,-100.5"/>
<text text-anchor="middle" x="87.5" y="-107.5" font-family="Helvetica,sans-Serif" font-size="10.00" fill="#000000">u16_t</text>
</g>
<!-- Node3&#45;&gt;Node1 -->
<g id="edge2" class="edge">
<title>Node3&#45;&gt;Node1</title>
<path fill="none" stroke="#9a32cd" stroke-dasharray="5,2" d="M81.3511,-90.6308C75.7109,-72.8645 67.4715,-46.9103 62.3018,-30.6257"/>
<polygon fill="#9a32cd" stroke="#9a32cd" points="78.0407,-91.7706 84.4025,-100.2428 84.7125,-89.6525 78.0407,-91.7706"/>
<text text-anchor="middle" x="87" y="-74" font-family="Helvetica,sans-Serif" font-size="10.00" fill="#000000"> cls</text>
<text text-anchor="middle" x="87" y="-63" font-family="Helvetica,sans-Serif" font-size="10.00" fill="#000000">type</text>
<text text-anchor="middle" x="87" y="-52" font-family="Helvetica,sans-Serif" font-size="10.00" fill="#000000">len</text>
</g>
</g>
</svg>
