<?xml version="1.0" encoding="UTF-8" standalone="no"?>
<!DOCTYPE svg PUBLIC "-//W3C//DTD SVG 1.1//EN"
 "http://www.w3.org/Graphics/SVG/1.1/DTD/svg11.dtd">
<!-- Generated by graphviz version 2.40.1 (20161225.0304)
 -->
<!-- Title: _zrtos_task_t Pages: 1 -->
<svg width="450pt" height="95pt"
 viewBox="0.00 0.00 450.00 95.00" xmlns="http://www.w3.org/2000/svg" xmlns:xlink="http://www.w3.org/1999/xlink">
<g id="graph0" class="graph" transform="scale(1 1) rotate(0) translate(4 91)">
<title>_zrtos_task_t</title>
<polygon fill="#ffffff" stroke="transparent" points="-4,4 -4,-91 446,-91 446,4 -4,4"/>
<!-- Node1 -->
<g id="node1" class="node">
<title>Node1</title>
<polygon fill="#bfbfbf" stroke="#000000" points="157.5,-.5 157.5,-19.5 233.5,-19.5 233.5,-.5 157.5,-.5"/>
<text text-anchor="middle" x="195.5" y="-7.5" font-family="Helvetica,sans-Serif" font-size="10.00" fill="#000000">_zrtos_task_t</text>
</g>
<!-- Node1&#45;&gt;Node1 -->
<g id="edge1" class="edge">
<title>Node1&#45;&gt;Node1</title>
<path fill="none" stroke="#9a32cd" stroke-dasharray="5,2" d="M243.7891,-14.872C248.5057,-13.8896 251.5,-12.2656 251.5,-10 251.5,-6.375 243.8346,-4.3926 233.714,-4.0527"/>
<polygon fill="#9a32cd" stroke="#9a32cd" points="243.286,-11.4057 233.714,-15.9473 244.029,-18.3662 243.286,-11.4057"/>
<text text-anchor="middle" x="267" y="-7.5" font-family="Helvetica,sans-Serif" font-size="10.00" fill="#000000"> parent</text>
</g>
<!-- Node2 -->
<g id="node2" class="node">
<title>Node2</title>
<polygon fill="#ffffff" stroke="#bfbfbf" points="0,-67.5 0,-86.5 71,-86.5 71,-67.5 0,-67.5"/>
<text text-anchor="middle" x="35.5" y="-74.5" font-family="Helvetica,sans-Serif" font-size="10.00" fill="#000000">zrtos_error_t</text>
</g>
<!-- Node2&#45;&gt;Node1 -->
<g id="edge2" class="edge">
<title>Node2&#45;&gt;Node1</title>
<path fill="none" stroke="#9a32cd" stroke-dasharray="5,2" d="M61.6049,-62.6002C76.3107,-54.7892 95.1561,-45.2735 112.5,-38 129.0486,-31.06 147.9759,-24.5688 163.5731,-19.5872"/>
<polygon fill="#9a32cd" stroke="#9a32cd" points="59.7447,-59.6265 52.5962,-67.4463 63.061,-65.7912 59.7447,-59.6265"/>
<text text-anchor="middle" x="137" y="-41" font-family="Helvetica,sans-Serif" font-size="10.00" fill="#000000"> error_code</text>
</g>
<!-- Node3 -->
<g id="node3" class="node">
<title>Node3</title>
<polygon fill="#ffffff" stroke="#bfbfbf" points="89,-67.5 89,-86.5 196,-86.5 196,-67.5 89,-67.5"/>
<text text-anchor="middle" x="142.5" y="-74.5" font-family="Helvetica,sans-Serif" font-size="10.00" fill="#000000">zrtos_arch_stack_t *</text>
</g>
<!-- Node3&#45;&gt;Node1 -->
<g id="edge3" class="edge">
<title>Node3&#45;&gt;Node1</title>
<path fill="none" stroke="#9a32cd" stroke-dasharray="5,2" d="M156.463,-59.3486C166.5324,-46.6194 179.7401,-29.9229 187.9205,-19.5817"/>
<polygon fill="#9a32cd" stroke="#9a32cd" points="153.5527,-57.3863 150.0936,-67.4005 159.0427,-61.7291 153.5527,-57.3863"/>
<text text-anchor="middle" x="193.5" y="-41" font-family="Helvetica,sans-Serif" font-size="10.00" fill="#000000"> stack_ptr</text>
</g>
<!-- Node4 -->
<g id="node4" class="node">
<title>Node4</title>
<polygon fill="#ffffff" stroke="#bfbfbf" points="214,-67.5 214,-86.5 283,-86.5 283,-67.5 214,-67.5"/>
<text text-anchor="middle" x="248.5" y="-74.5" font-family="Helvetica,sans-Serif" font-size="10.00" fill="#000000">unsigned int</text>
</g>
<!-- Node4&#45;&gt;Node1 -->
<g id="edge4" class="edge">
<title>Node4&#45;&gt;Node1</title>
<path fill="none" stroke="#9a32cd" stroke-dasharray="5,2" d="M235.438,-58.8915C230.5384,-52.2445 224.8582,-44.7079 219.5,-38 214.5451,-31.797 208.7594,-25.0338 204.1102,-19.7085"/>
<polygon fill="#9a32cd" stroke="#9a32cd" points="232.8101,-61.2279 241.5322,-67.2427 238.4647,-57.1016 232.8101,-61.2279"/>
<text text-anchor="middle" x="240" y="-41" font-family="Helvetica,sans-Serif" font-size="10.00" fill="#000000"> ticks</text>
</g>
<!-- Node5 -->
<g id="node5" class="node">
<title>Node5</title>
<g id="a_node5"><a xlink:href="struct__zrtos__clist__node__t.html" target="_top" xlink:title="_zrtos_clist_node_t">
<polygon fill="#ffffff" stroke="#000000" points="301,-67.5 301,-86.5 402,-86.5 402,-67.5 301,-67.5"/>
<text text-anchor="middle" x="351.5" y="-74.5" font-family="Helvetica,sans-Serif" font-size="10.00" fill="#000000">_zrtos_clist_node_t</text>
</a>
</g>
</g>
<!-- Node5&#45;&gt;Node1 -->
<g id="edge5" class="edge">
<title>Node5&#45;&gt;Node1</title>
<path fill="none" stroke="#9a32cd" stroke-dasharray="5,2" d="M319.8619,-63.4118C289.5413,-50.3895 244.5502,-31.0664 217.8095,-19.5817"/>
<polygon fill="#9a32cd" stroke="#9a32cd" points="318.5794,-66.6701 329.149,-67.4005 321.3418,-60.2382 318.5794,-66.6701"/>
<text text-anchor="middle" x="295" y="-41" font-family="Helvetica,sans-Serif" font-size="10.00" fill="#000000"> node</text>
</g>
<!-- Node5&#45;&gt;Node5 -->
<g id="edge6" class="edge">
<title>Node5&#45;&gt;Node5</title>
<path fill="none" stroke="#9a32cd" stroke-dasharray="5,2" d="M412.4261,-81.5175C417.1123,-80.5176 420,-79.0117 420,-77 420,-73.7813 412.6075,-71.8575 402.2839,-71.2289"/>
<polygon fill="#9a32cd" stroke="#9a32cd" points="411.779,-78.0708 402.2839,-82.7711 412.6377,-85.0179 411.779,-78.0708"/>
<text text-anchor="middle" x="431" y="-74.5" font-family="Helvetica,sans-Serif" font-size="10.00" fill="#000000"> next</text>
</g>
</g>
</svg>
