<?xml version="1.0" encoding="UTF-8" standalone="no"?>
<!DOCTYPE svg PUBLIC "-//W3C//DTD SVG 1.1//EN"
 "http://www.w3.org/Graphics/SVG/1.1/DTD/svg11.dtd">
<!-- Generated by graphviz version 10.0.1 (20240210.2158)
 -->
<!-- Title: _zrtos_vm_function_t Pages: 1 -->
<svg width="347pt" height="256pt"
 viewBox="0.00 0.00 347.25 256.00" xmlns="http://www.w3.org/2000/svg" xmlns:xlink="http://www.w3.org/1999/xlink">
<g id="graph0" class="graph" transform="scale(1 1) rotate(0) translate(4 252)">
<title>_zrtos_vm_function_t</title>
<!-- Node1 -->
<g id="Node000001" class="node">
<title>Node1</title>
<g id="a_Node000001"><a xlink:title=" ">
<polygon fill="#999999" stroke="#666666" points="206,-168 98.5,-168 98.5,-148 206,-148 206,-168"/>
<text text-anchor="middle" x="152.25" y="-154.5" font-family="Helvetica,sans-Serif" font-size="10.00">_zrtos_vm_function_t</text>
</a>
</g>
</g>
<!-- Node6 -->
<g id="Node000006" class="node">
<title>Node6</title>
<g id="a_Node000006"><a xlink:href="struct__zrtos__vm__function__index__t.html" target="_top" xlink:title=" ">
<polygon fill="white" stroke="#666666" points="286.88,-100 187.62,-100 187.62,-68 286.88,-68 286.88,-100"/>
<text text-anchor="start" x="195.62" y="-86.5" font-family="Helvetica,sans-Serif" font-size="10.00">_zrtos_vm_function</text>
<text text-anchor="middle" x="237.25" y="-74.5" font-family="Helvetica,sans-Serif" font-size="10.00">_index_t</text>
</a>
</g>
</g>
<!-- Node1&#45;&gt;Node6 -->
<g id="edge7_Node000006_Node000001" class="edge">
<title>Node1&#45;&gt;Node6</title>
<g id="a_edge7_Node000006_Node000001"><a xlink:title=" ">
<path fill="none" stroke="#9a32cd" stroke-dasharray="5,2" d="M171.89,-140.37C186.08,-128.34 205.12,-112.22 218.99,-100.47"/>
<polygon fill="#9a32cd" stroke="#9a32cd" points="169.89,-137.47 164.52,-146.61 174.41,-142.82 169.89,-137.47"/>
</a>
</g>
<text text-anchor="middle" x="205.38" y="-120.5" font-family="Helvetica,sans-Serif" font-size="10.00" fill="grey"> arr</text>
</g>
<!-- Node2 -->
<g id="Node000002" class="node">
<title>Node2</title>
<g id="a_Node000002"><a xlink:title=" ">
<polygon fill="white" stroke="#666666" points="220.5,-248 170,-248 170,-228 220.5,-228 220.5,-248"/>
<text text-anchor="middle" x="195.25" y="-234.5" font-family="Helvetica,sans-Serif" font-size="10.00">uint16_t</text>
</a>
</g>
</g>
<!-- Node2&#45;&gt;Node1 -->
<g id="edge1_Node000001_Node000002" class="edge">
<title>Node2&#45;&gt;Node1</title>
<g id="a_edge1_Node000001_Node000002"><a xlink:title=" ">
<path fill="none" stroke="#9a32cd" stroke-dasharray="5,2" d="M188.02,-217.06C184.17,-207.4 179.04,-195.79 173.25,-186 169.5,-179.66 164.46,-173.13 160.25,-168.08"/>
<polygon fill="#9a32cd" stroke="#9a32cd" points="184.67,-218.11 191.49,-226.22 191.21,-215.62 184.67,-218.11"/>
</a>
</g>
<text text-anchor="middle" x="190.5" y="-194.5" font-family="Helvetica,sans-Serif" font-size="10.00" fill="grey"> id</text>
</g>
<!-- Node4 -->
<g id="Node000004" class="node">
<title>Node4</title>
<g id="a_Node000004"><a xlink:href="struct__zrtos__stack__t.html" target="_top" xlink:title=" ">
<polygon fill="white" stroke="#666666" points="80.5,-168 0,-168 0,-148 80.5,-148 80.5,-168"/>
<text text-anchor="middle" x="40.25" y="-154.5" font-family="Helvetica,sans-Serif" font-size="10.00">_zrtos_stack_t</text>
</a>
</g>
</g>
<!-- Node2&#45;&gt;Node4 -->
<g id="edge5_Node000004_Node000002" class="edge">
<title>Node2&#45;&gt;Node4</title>
<g id="a_edge5_Node000004_Node000002"><a xlink:title=" ">
<path fill="none" stroke="#9a32cd" stroke-dasharray="5,2" d="M159.88,-222.69C152.93,-219.08 145.96,-214.83 140,-210 129.48,-201.48 132.31,-193.81 121.25,-186 109.26,-177.54 94.43,-171.58 80.75,-167.46"/>
<polygon fill="#9a32cd" stroke="#9a32cd" points="158.01,-225.68 168.54,-226.86 161.05,-219.37 158.01,-225.68"/>
</a>
</g>
<text text-anchor="middle" x="154.88" y="-200.5" font-family="Helvetica,sans-Serif" font-size="10.00" fill="grey"> length</text>
<text text-anchor="middle" x="154.88" y="-188.5" font-family="Helvetica,sans-Serif" font-size="10.00" fill="grey">offset</text>
</g>
<!-- Node2&#45;&gt;Node6 -->
<g id="edge8_Node000006_Node000002" class="edge">
<title>Node2&#45;&gt;Node6</title>
<g id="a_edge8_Node000006_Node000002"><a xlink:title=" ">
<path fill="none" stroke="#9a32cd" stroke-dasharray="5,2" d="M201.18,-217.01C205.22,-203.25 210.66,-184.55 215.25,-168 221.79,-144.44 228.98,-117 233.3,-100.33"/>
<polygon fill="#9a32cd" stroke="#9a32cd" points="197.94,-215.61 198.46,-226.19 204.65,-217.59 197.94,-215.61"/>
</a>
</g>
<text text-anchor="middle" x="234.88" y="-154.5" font-family="Helvetica,sans-Serif" font-size="10.00" fill="grey"> length</text>
</g>
<!-- Node3 -->
<g id="Node000003" class="node">
<title>Node3</title>
<g id="a_Node000003"><a xlink:href="struct__zrtos__vm__t.html" target="_top" xlink:title=" ">
<polygon fill="white" stroke="#666666" points="217.5,-20 149,-20 149,0 217.5,0 217.5,-20"/>
<text text-anchor="middle" x="183.25" y="-6.5" font-family="Helvetica,sans-Serif" font-size="10.00">_zrtos_vm_t</text>
</a>
</g>
</g>
<!-- Node3&#45;&gt;Node1 -->
<g id="edge2_Node000001_Node000003" class="edge">
<title>Node3&#45;&gt;Node1</title>
<g id="a_edge2_Node000001_Node000003"><a xlink:title=" ">
<path fill="none" stroke="#9a32cd" stroke-dasharray="5,2" d="M164.86,-28.43C155.22,-38.86 144.37,-52.99 139.25,-68 129.72,-95.93 141.35,-131.13 148.09,-147.64"/>
<polygon fill="#9a32cd" stroke="#9a32cd" points="167.29,-30.95 171.79,-21.36 162.29,-26.05 167.29,-30.95"/>
</a>
</g>
<text text-anchor="middle" x="158.75" y="-80.5" font-family="Helvetica,sans-Serif" font-size="10.00" fill="grey"> callback</text>
</g>
<!-- Node4&#45;&gt;Node3 -->
<g id="edge3_Node000003_Node000004" class="edge">
<title>Node4&#45;&gt;Node3</title>
<g id="a_edge3_Node000003_Node000004"><a xlink:title=" ">
<path fill="none" stroke="#9a32cd" stroke-dasharray="5,2" d="M48.79,-137.47C57.93,-118.18 73.87,-88.64 94,-68 114.41,-47.07 143.9,-30.15 163.31,-20.34"/>
<polygon fill="#9a32cd" stroke="#9a32cd" points="45.7,-135.82 44.74,-146.37 52.07,-138.72 45.7,-135.82"/>
</a>
</g>
<text text-anchor="middle" x="113.38" y="-86.5" font-family="Helvetica,sans-Serif" font-size="10.00" fill="grey"> program</text>
<text text-anchor="middle" x="113.38" y="-74.5" font-family="Helvetica,sans-Serif" font-size="10.00" fill="grey">stack</text>
</g>
<!-- Node5 -->
<g id="Node000005" class="node">
<title>Node5</title>
<g id="a_Node000005"><a xlink:title=" ">
<polygon fill="white" stroke="#666666" points="82.88,-248 43.62,-248 43.62,-228 82.88,-228 82.88,-248"/>
<text text-anchor="middle" x="63.25" y="-234.5" font-family="Helvetica,sans-Serif" font-size="10.00">void *</text>
</a>
</g>
</g>
<!-- Node5&#45;&gt;Node1 -->
<g id="edge10_Node000001_Node000005" class="edge">
<title>Node5&#45;&gt;Node1</title>
<g id="a_edge10_Node000001_Node000005"><a xlink:title=" ">
<path fill="none" stroke="#9a32cd" stroke-dasharray="5,2" d="M68.3,-216.88C71.79,-206.51 77.39,-194.34 86,-186 94.12,-178.14 104.84,-172.46 115.28,-168.39"/>
<polygon fill="#9a32cd" stroke="#9a32cd" points="64.96,-215.84 65.54,-226.42 71.68,-217.79 64.96,-215.84"/>
</a>
</g>
<text text-anchor="middle" x="103.88" y="-194.5" font-family="Helvetica,sans-Serif" font-size="10.00" fill="grey"> context</text>
</g>
<!-- Node5&#45;&gt;Node4 -->
<g id="edge4_Node000004_Node000005" class="edge">
<title>Node5&#45;&gt;Node4</title>
<g id="a_edge4_Node000004_Node000005"><a xlink:title=" ">
<path fill="none" stroke="#9a32cd" stroke-dasharray="5,2" d="M46.32,-219.14C44.37,-216.26 42.67,-213.18 41.5,-210 36.44,-196.2 37.42,-178.85 38.73,-168.36"/>
<polygon fill="#9a32cd" stroke="#9a32cd" points="43.5,-221.23 52.51,-226.8 48.94,-216.82 43.5,-221.23"/>
</a>
</g>
<text text-anchor="middle" x="53.12" y="-194.5" font-family="Helvetica,sans-Serif" font-size="10.00" fill="grey"> data</text>
</g>
<!-- Node6&#45;&gt;Node3 -->
<g id="edge6_Node000003_Node000006" class="edge">
<title>Node6&#45;&gt;Node3</title>
<g id="a_edge6_Node000003_Node000006"><a xlink:title=" ">
<path fill="none" stroke="#9a32cd" stroke-dasharray="5,2" d="M219,-58.67C209.12,-45.49 197.48,-29.97 190.23,-20.31"/>
<polygon fill="#9a32cd" stroke="#9a32cd" points="216.09,-60.62 224.89,-66.52 221.69,-56.42 216.09,-60.62"/>
</a>
</g>
<text text-anchor="middle" x="232.25" y="-40.5" font-family="Helvetica,sans-Serif" font-size="10.00" fill="grey"> functions</text>
</g>
<!-- Node7 -->
<g id="Node000007" class="node">
<title>Node7</title>
<g id="a_Node000007"><a xlink:title=" ">
<polygon fill="white" stroke="#666666" points="339.25,-94 305.25,-94 305.25,-74 339.25,-74 339.25,-94"/>
<text text-anchor="middle" x="322.25" y="-80.5" font-family="Helvetica,sans-Serif" font-size="10.00">bool</text>
</a>
</g>
</g>
<!-- Node7&#45;&gt;Node3 -->
<g id="edge9_Node000003_Node000007" class="edge">
<title>Node7&#45;&gt;Node3</title>
<g id="a_edge9_Node000003_Node000007"><a xlink:title=" ">
<path fill="none" stroke="#9a32cd" stroke-dasharray="5,2" d="M301.86,-66.86C289.46,-57.57 273.02,-46.17 257.25,-38 243.77,-31.02 228.07,-25.02 214.6,-20.46"/>
<polygon fill="#9a32cd" stroke="#9a32cd" points="299.58,-69.52 309.64,-72.83 303.84,-63.97 299.58,-69.52"/>
</a>
</g>
<text text-anchor="middle" x="306" y="-40.5" font-family="Helvetica,sans-Serif" font-size="10.00" fill="grey"> is_interrupted</text>
</g>
</g>
</svg>
