<?xml version="1.0" encoding="UTF-8" standalone="no"?>
<!DOCTYPE svg PUBLIC "-//W3C//DTD SVG 1.1//EN"
 "http://www.w3.org/Graphics/SVG/1.1/DTD/svg11.dtd">
<!-- Generated by graphviz version 2.40.1 (20161225.0304)
 -->
<!-- Title: _zrtos_shell_t Pages: 1 -->
<svg width="556pt" height="156pt"
 viewBox="0.00 0.00 556.00 156.00" xmlns="http://www.w3.org/2000/svg" xmlns:xlink="http://www.w3.org/1999/xlink">
<g id="graph0" class="graph" transform="scale(1 1) rotate(0) translate(4 152)">
<title>_zrtos_shell_t</title>
<polygon fill="#ffffff" stroke="transparent" points="-4,4 -4,-152 552,-152 552,4 -4,4"/>
<!-- Node1 -->
<g id="node1" class="node">
<title>Node1</title>
<polygon fill="#bfbfbf" stroke="#000000" points="471,-38.5 471,-57.5 548,-57.5 548,-38.5 471,-38.5"/>
<text text-anchor="middle" x="509.5" y="-45.5" font-family="Helvetica,sans-Serif" font-size="10.00" fill="#000000">_zrtos_shell_t</text>
</g>
<!-- Node2 -->
<g id="node2" class="node">
<title>Node2</title>
<g id="a_node2"><a xlink:href="structzrtos__shell__fn__t.html" target="_top" xlink:title="zrtos_shell_fn_t">
<polygon fill="#ffffff" stroke="#000000" points="313.5,-79.5 313.5,-98.5 399.5,-98.5 399.5,-79.5 313.5,-79.5"/>
<text text-anchor="middle" x="356.5" y="-86.5" font-family="Helvetica,sans-Serif" font-size="10.00" fill="#000000">zrtos_shell_fn_t</text>
</a>
</g>
</g>
<!-- Node2&#45;&gt;Node1 -->
<g id="edge1" class="edge">
<title>Node2&#45;&gt;Node1</title>
<path fill="none" stroke="#9a32cd" stroke-dasharray="5,2" d="M401.8774,-76.84C424.9073,-70.6686 452.4738,-63.2815 473.9419,-57.5286"/>
<polygon fill="#9a32cd" stroke="#9a32cd" points="400.7391,-73.5215 391.9858,-79.4907 402.551,-80.283 400.7391,-73.5215"/>
<text text-anchor="middle" x="442" y="-71" font-family="Helvetica,sans-Serif" font-size="10.00" fill="#000000"> fn</text>
</g>
<!-- Node3 -->
<g id="node3" class="node">
<title>Node3</title>
<polygon fill="#ffffff" stroke="#bfbfbf" points="144,-128.5 144,-147.5 179,-147.5 179,-128.5 144,-128.5"/>
<text text-anchor="middle" x="161.5" y="-135.5" font-family="Helvetica,sans-Serif" font-size="10.00" fill="#000000">char</text>
</g>
<!-- Node3&#45;&gt;Node2 -->
<g id="edge2" class="edge">
<title>Node3&#45;&gt;Node2</title>
<path fill="none" stroke="#9a32cd" stroke-dasharray="5,2" d="M189.2586,-131.0248C223.1116,-122.5181 280.5008,-108.0972 318.4518,-98.5608"/>
<polygon fill="#9a32cd" stroke="#9a32cd" points="187.9944,-127.7336 179.1489,-133.5652 189.7004,-134.5225 187.9944,-127.7336"/>
<text text-anchor="middle" x="262" y="-119" font-family="Helvetica,sans-Serif" font-size="10.00" fill="#000000"> name</text>
</g>
<!-- Node4 -->
<g id="node4" class="node">
<title>Node4</title>
<polygon fill="#ffffff" stroke="#bfbfbf" points="99,-68.5 99,-109.5 224,-109.5 224,-68.5 99,-68.5"/>
<text text-anchor="start" x="107" y="-97.5" font-family="Helvetica,sans-Serif" font-size="10.00" fill="#000000">zrtos_error_t(*)(struct</text>
<text text-anchor="start" x="107" y="-86.5" font-family="Helvetica,sans-Serif" font-size="10.00" fill="#000000"> _zrtos_shell_t *thiz,</text>
<text text-anchor="middle" x="161.5" y="-75.5" font-family="Helvetica,sans-Serif" font-size="10.00" fill="#000000"> size_t argc, char **argv)</text>
</g>
<!-- Node4&#45;&gt;Node2 -->
<g id="edge3" class="edge">
<title>Node4&#45;&gt;Node2</title>
<path fill="none" stroke="#9a32cd" stroke-dasharray="5,2" d="M234.0902,-89C260.7967,-89 290.1757,-89 313.4565,-89"/>
<polygon fill="#9a32cd" stroke="#9a32cd" points="234.0039,-85.5001 224.0038,-89 234.0038,-92.5001 234.0039,-85.5001"/>
<text text-anchor="middle" x="262" y="-92" font-family="Helvetica,sans-Serif" font-size="10.00" fill="#000000"> callback</text>
</g>
<!-- Node5 -->
<g id="node5" class="node">
<title>Node5</title>
<g id="a_node5"><a xlink:href="structzrtos__shell__fd__array__t.html" target="_top" xlink:title="zrtos_shell_fd_array_t">
<polygon fill="#ffffff" stroke="#000000" points="300,-38.5 300,-57.5 413,-57.5 413,-38.5 300,-38.5"/>
<text text-anchor="middle" x="356.5" y="-45.5" font-family="Helvetica,sans-Serif" font-size="10.00" fill="#000000">zrtos_shell_fd_array_t</text>
</a>
</g>
</g>
<!-- Node5&#45;&gt;Node1 -->
<g id="edge4" class="edge">
<title>Node5&#45;&gt;Node1</title>
<path fill="none" stroke="#9a32cd" stroke-dasharray="5,2" d="M423.0899,-48C439.4063,-48 456.3345,-48 470.8376,-48"/>
<polygon fill="#9a32cd" stroke="#9a32cd" points="423.0369,-44.5001 413.0369,-48 423.0368,-51.5001 423.0369,-44.5001"/>
<text text-anchor="middle" x="442" y="-51" font-family="Helvetica,sans-Serif" font-size="10.00" fill="#000000"> files</text>
</g>
<!-- Node6 -->
<g id="node6" class="node">
<title>Node6</title>
<g id="a_node6"><a xlink:href="struct__zrtos__vfs__fd__t.html" target="_top" xlink:title="_zrtos_vfs_fd_t">
<polygon fill="#ffffff" stroke="#000000" points="119.5,-30.5 119.5,-49.5 203.5,-49.5 203.5,-30.5 119.5,-30.5"/>
<text text-anchor="middle" x="161.5" y="-37.5" font-family="Helvetica,sans-Serif" font-size="10.00" fill="#000000">_zrtos_vfs_fd_t</text>
</a>
</g>
</g>
<!-- Node6&#45;&gt;Node5 -->
<g id="edge5" class="edge">
<title>Node6&#45;&gt;Node5</title>
<path fill="none" stroke="#9a32cd" stroke-dasharray="5,2" d="M214.0473,-42.1558C240.5664,-43.2438 272.7658,-44.5648 299.838,-45.6754"/>
<polygon fill="#9a32cd" stroke="#9a32cd" points="213.9472,-38.6488 203.8121,-41.7359 213.6602,-45.6429 213.9472,-38.6488"/>
<text text-anchor="middle" x="262" y="-58" font-family="Helvetica,sans-Serif" font-size="10.00" fill="#000000"> cwd</text>
<text text-anchor="middle" x="262" y="-47" font-family="Helvetica,sans-Serif" font-size="10.00" fill="#000000">fd</text>
</g>
<!-- Node7 -->
<g id="node7" class="node">
<title>Node7</title>
<polygon fill="#ffffff" stroke="#bfbfbf" points="0,-30.5 0,-49.5 51,-49.5 51,-30.5 0,-30.5"/>
<text text-anchor="middle" x="25.5" y="-37.5" font-family="Helvetica,sans-Serif" font-size="10.00" fill="#000000">uint16_t</text>
</g>
<!-- Node7&#45;&gt;Node6 -->
<g id="edge6" class="edge">
<title>Node7&#45;&gt;Node6</title>
<path fill="none" stroke="#9a32cd" stroke-dasharray="5,2" d="M61.1045,-40C78.9843,-40 100.7634,-40 119.4611,-40"/>
<polygon fill="#9a32cd" stroke="#9a32cd" points="61.0806,-36.5001 51.0806,-40 61.0805,-43.5001 61.0806,-36.5001"/>
<text text-anchor="middle" x="75" y="-43" font-family="Helvetica,sans-Serif" font-size="10.00" fill="#000000"> fd</text>
</g>
<!-- Node8 -->
<g id="node8" class="node">
<title>Node8</title>
<polygon fill="#ffffff" stroke="#bfbfbf" points="336,-.5 336,-19.5 377,-19.5 377,-.5 336,-.5"/>
<text text-anchor="middle" x="356.5" y="-7.5" font-family="Helvetica,sans-Serif" font-size="10.00" fill="#000000">void *</text>
</g>
<!-- Node8&#45;&gt;Node1 -->
<g id="edge7" class="edge">
<title>Node8&#45;&gt;Node1</title>
<path fill="none" stroke="#9a32cd" stroke-dasharray="5,2" d="M387.1343,-17.0908C406.1289,-21.5397 431.0171,-27.4632 453,-33 459.889,-34.7351 467.235,-36.6429 474.273,-38.4991"/>
<polygon fill="#9a32cd" stroke="#9a32cd" points="387.7778,-13.647 377.244,-14.7828 386.1869,-20.4639 387.7778,-13.647"/>
<text text-anchor="middle" x="442" y="-36" font-family="Helvetica,sans-Serif" font-size="10.00" fill="#000000"> data</text>
</g>
</g>
</svg>
