<?xml version="1.0" encoding="UTF-8" standalone="no"?>
<!DOCTYPE svg PUBLIC "-//W3C//DTD SVG 1.1//EN"
 "http://www.w3.org/Graphics/SVG/1.1/DTD/svg11.dtd">
<!-- Generated by graphviz version 2.40.1 (20161225.0304)
 -->
<!-- Title: zrtos_vfs_module_timeout_inode_t Pages: 1 -->
<svg width="189pt" height="106pt"
 viewBox="0.00 0.00 189.00 106.00" xmlns="http://www.w3.org/2000/svg" xmlns:xlink="http://www.w3.org/1999/xlink">
<g id="graph0" class="graph" transform="scale(1 1) rotate(0) translate(4 102)">
<title>zrtos_vfs_module_timeout_inode_t</title>
<polygon fill="#ffffff" stroke="transparent" points="-4,4 -4,-102 185,-102 185,4 -4,4"/>
<!-- Node1 -->
<g id="node1" class="node">
<title>Node1</title>
<polygon fill="#bfbfbf" stroke="#000000" points="24.5,-.5 24.5,-30.5 155.5,-30.5 155.5,-.5 24.5,-.5"/>
<text text-anchor="start" x="32.5" y="-18.5" font-family="Helvetica,sans-Serif" font-size="10.00" fill="#000000">zrtos_vfs_module_timeout</text>
<text text-anchor="middle" x="90" y="-7.5" font-family="Helvetica,sans-Serif" font-size="10.00" fill="#000000">_inode_t</text>
</g>
<!-- Node2 -->
<g id="node2" class="node">
<title>Node2</title>
<polygon fill="#ffffff" stroke="#bfbfbf" points="0,-78.5 0,-97.5 94,-97.5 94,-78.5 0,-78.5"/>
<text text-anchor="middle" x="47" y="-85.5" font-family="Helvetica,sans-Serif" font-size="10.00" fill="#000000">void(*)(void *data)</text>
</g>
<!-- Node2&#45;&gt;Node1 -->
<g id="edge1" class="edge">
<title>Node2&#45;&gt;Node1</title>
<path fill="none" stroke="#9a32cd" stroke-dasharray="5,2" d="M57.9948,-69.4623C65.1278,-57.4356 74.3063,-41.9602 81.0038,-30.668"/>
<polygon fill="#9a32cd" stroke="#9a32cd" points="54.8901,-67.8359 52.7992,-78.2223 60.9108,-71.4068 54.8901,-67.8359"/>
<text text-anchor="middle" x="89" y="-52" font-family="Helvetica,sans-Serif" font-size="10.00" fill="#000000"> callback</text>
</g>
<!-- Node3 -->
<g id="node3" class="node">
<title>Node3</title>
<polygon fill="#ffffff" stroke="#bfbfbf" points="112.5,-78.5 112.5,-97.5 153.5,-97.5 153.5,-78.5 112.5,-78.5"/>
<text text-anchor="middle" x="133" y="-85.5" font-family="Helvetica,sans-Serif" font-size="10.00" fill="#000000">void *</text>
</g>
<!-- Node3&#45;&gt;Node1 -->
<g id="edge2" class="edge">
<title>Node3&#45;&gt;Node1</title>
<path fill="none" stroke="#9a32cd" stroke-dasharray="5,2" d="M122.8146,-69.5352C119.1542,-63.0095 114.9529,-55.643 111,-49 107.4197,-42.9832 103.3586,-36.4428 99.7683,-30.7512"/>
<polygon fill="#9a32cd" stroke="#9a32cd" points="119.7777,-71.2757 127.6985,-78.3122 125.8946,-67.8721 119.7777,-71.2757"/>
<text text-anchor="middle" x="149" y="-52" font-family="Helvetica,sans-Serif" font-size="10.00" fill="#000000"> callback_data</text>
</g>
</g>
</svg>
