<?xml version="1.0" encoding="UTF-8" standalone="no"?>
<!DOCTYPE svg PUBLIC "-//W3C//DTD SVG 1.1//EN"
 "http://www.w3.org/Graphics/SVG/1.1/DTD/svg11.dtd">
<!-- Generated by graphviz version 2.40.1 (20161225.0304)
 -->
<!-- Title: _zrtos_list_t Pages: 1 -->
<svg width="144pt" height="106pt"
 viewBox="0.00 0.00 144.00 106.00" xmlns="http://www.w3.org/2000/svg" xmlns:xlink="http://www.w3.org/1999/xlink">
<g id="graph0" class="graph" transform="scale(1 1) rotate(0) translate(4 102)">
<title>_zrtos_list_t</title>
<polygon fill="#ffffff" stroke="transparent" points="-4,4 -4,-102 140,-102 140,4 -4,4"/>
<!-- Node1 -->
<g id="node1" class="node">
<title>Node1</title>
<polygon fill="#bfbfbf" stroke="#000000" points="13,-.5 13,-19.5 83,-19.5 83,-.5 13,-.5"/>
<text text-anchor="middle" x="48" y="-7.5" font-family="Helvetica,sans-Serif" font-size="10.00" fill="#000000">_zrtos_list_t</text>
</g>
<!-- Node2 -->
<g id="node2" class="node">
<title>Node2</title>
<g id="a_node2"><a xlink:href="struct__zrtos__list__node__t.html" target="_top" xlink:title="_zrtos_list_node_t">
<polygon fill="#ffffff" stroke="#000000" points="0,-78.5 0,-97.5 96,-97.5 96,-78.5 0,-78.5"/>
<text text-anchor="middle" x="48" y="-85.5" font-family="Helvetica,sans-Serif" font-size="10.00" fill="#000000">_zrtos_list_node_t</text>
</a>
</g>
</g>
<!-- Node2&#45;&gt;Node1 -->
<g id="edge1" class="edge">
<title>Node2&#45;&gt;Node1</title>
<path fill="none" stroke="#9a32cd" stroke-dasharray="5,2" d="M48,-68.2866C48,-52.7395 48,-31.7276 48,-19.6426"/>
<polygon fill="#9a32cd" stroke="#9a32cd" points="44.5001,-68.4356 48,-78.4357 51.5001,-68.4357 44.5001,-68.4356"/>
<text text-anchor="middle" x="57.5" y="-52" font-family="Helvetica,sans-Serif" font-size="10.00" fill="#000000"> last</text>
<text text-anchor="middle" x="57.5" y="-41" font-family="Helvetica,sans-Serif" font-size="10.00" fill="#000000">first</text>
</g>
<!-- Node2&#45;&gt;Node2 -->
<g id="edge2" class="edge">
<title>Node2&#45;&gt;Node2</title>
<path fill="none" stroke="#9a32cd" stroke-dasharray="5,2" d="M106.3036,-93.4668C111.0532,-92.2808 114,-90.4585 114,-88 114,-84.0664 106.4563,-81.7616 96.0542,-81.0855"/>
<polygon fill="#9a32cd" stroke="#9a32cd" points="105.4664,-90.0502 96.0542,-94.9145 106.4455,-96.9814 105.4664,-90.0502"/>
<text text-anchor="middle" x="125" y="-85.5" font-family="Helvetica,sans-Serif" font-size="10.00" fill="#000000"> next</text>
</g>
</g>
</svg>
