<?xml version="1.0" encoding="UTF-8" standalone="no"?>
<!DOCTYPE svg PUBLIC "-//W3C//DTD SVG 1.1//EN"
 "http://www.w3.org/Graphics/SVG/1.1/DTD/svg11.dtd">
<!-- Generated by graphviz version 10.0.1 (20240210.2158)
 -->
<!-- Title: zrtos_vfs_module_avr_spi_sync__on_write Pages: 1 -->
<svg width="1711pt" height="431pt"
 viewBox="0.00 0.00 1711.00 431.00" xmlns="http://www.w3.org/2000/svg" xmlns:xlink="http://www.w3.org/1999/xlink">
<g id="graph0" class="graph" transform="scale(1 1) rotate(0) translate(4 427)">
<title>zrtos_vfs_module_avr_spi_sync__on_write</title>
<!-- Node1 -->
<g id="Node000001" class="node">
<title>Node1</title>
<g id="a_Node000001"><a xlink:title=" ">
<polygon fill="#999999" stroke="#666666" points="108.25,-297 0,-297 0,-265 108.25,-265 108.25,-297"/>
<text text-anchor="start" x="8" y="-283.5" font-family="Helvetica,sans-Serif" font-size="10.00">zrtos_vfs_module_avr</text>
<text text-anchor="middle" x="54.12" y="-271.5" font-family="Helvetica,sans-Serif" font-size="10.00">_spi_sync__on_write</text>
</a>
</g>
</g>
<!-- Node2 -->
<g id="Node000002" class="node">
<title>Node2</title>
<g id="a_Node000002"><a xlink:href="sync_8h.html#a1b6ca0787e6aa453ec7b646089c4a176" target="_top" xlink:title=" ">
<polygon fill="white" stroke="#666666" points="292.25,-372 144.25,-372 144.25,-340 292.25,-340 292.25,-372"/>
<text text-anchor="start" x="152.25" y="-358.5" font-family="Helvetica,sans-Serif" font-size="10.00">zrtos_vfs_module_avr</text>
<text text-anchor="middle" x="218.25" y="-346.5" font-family="Helvetica,sans-Serif" font-size="10.00">_spi_sync__on_write_callback</text>
</a>
</g>
</g>
<!-- Node1&#45;&gt;Node2 -->
<g id="edge1_Node000001_Node000002" class="edge">
<title>Node1&#45;&gt;Node2</title>
<g id="a_edge1_Node000001_Node000002"><a xlink:title=" ">
<path fill="none" stroke="#63b8ff" d="M90.7,-297.46C114.46,-308.45 145.93,-323.01 171.54,-334.85"/>
<polygon fill="#63b8ff" stroke="#63b8ff" points="169.83,-337.92 180.38,-338.94 172.77,-331.57 169.83,-337.92"/>
</a>
</g>
</g>
<!-- Node4 -->
<g id="Node000004" class="node">
<title>Node4</title>
<g id="a_Node000004"><a xlink:href="spi__sync_8h.html#acad5edb178ed84b8a1b7b3a877dbcd61" target="_top" xlink:title=" ">
<polygon fill="white" stroke="#666666" points="278.38,-272 158.12,-272 158.12,-240 278.38,-240 278.38,-272"/>
<text text-anchor="start" x="166.12" y="-258.5" font-family="Helvetica,sans-Serif" font-size="10.00">zrtos_vfs_module_spi</text>
<text text-anchor="middle" x="218.25" y="-246.5" font-family="Helvetica,sans-Serif" font-size="10.00">_sync__on_write_helper</text>
</a>
</g>
</g>
<!-- Node1&#45;&gt;Node4 -->
<g id="edge3_Node000001_Node000004" class="edge">
<title>Node1&#45;&gt;Node4</title>
<g id="a_edge3_Node000001_Node000004"><a xlink:title=" ">
<path fill="none" stroke="#63b8ff" d="M108.66,-272.74C120.86,-270.86 134,-268.84 146.79,-266.87"/>
<polygon fill="#63b8ff" stroke="#63b8ff" points="147.05,-270.37 156.4,-265.38 145.98,-263.45 147.05,-270.37"/>
</a>
</g>
</g>
<!-- Node3 -->
<g id="Node000003" class="node">
<title>Node3</title>
<g id="a_Node000003"><a xlink:href="types_8h.html#adbc4238237e656eb247fd49ffbfb1a6d" target="_top" xlink:title=" ">
<polygon fill="white" stroke="#666666" points="448.5,-423 341,-423 341,-391 448.5,-391 448.5,-423"/>
<text text-anchor="start" x="349" y="-409.5" font-family="Helvetica,sans-Serif" font-size="10.00">zrtos_types__ptr_get</text>
<text text-anchor="middle" x="394.75" y="-397.5" font-family="Helvetica,sans-Serif" font-size="10.00">_byte_distance</text>
</a>
</g>
</g>
<!-- Node2&#45;&gt;Node3 -->
<g id="edge2_Node000002_Node000003" class="edge">
<title>Node2&#45;&gt;Node3</title>
<g id="a_edge2_Node000002_Node000003"><a xlink:title=" ">
<path fill="none" stroke="#63b8ff" d="M275.42,-372.42C292.75,-377.48 311.96,-383.1 329.77,-388.3"/>
<polygon fill="#63b8ff" stroke="#63b8ff" points="328.62,-391.61 339.2,-391.06 330.58,-384.89 328.62,-391.61"/>
</a>
</g>
</g>
<!-- Node5 -->
<g id="Node000005" class="node">
<title>Node5</title>
<g id="a_Node000005"><a xlink:href="error_8h.html#add13298163f63b7d37ed9f12d57e1a31" target="_top" xlink:title=" ">
<polygon fill="white" stroke="#666666" points="456,-323 333.5,-323 333.5,-303 456,-303 456,-323"/>
<text text-anchor="middle" x="394.75" y="-309.5" font-family="Helvetica,sans-Serif" font-size="10.00">zrtos_error__is_success</text>
</a>
</g>
</g>
<!-- Node4&#45;&gt;Node5 -->
<g id="edge4_Node000004_Node000005" class="edge">
<title>Node4&#45;&gt;Node5</title>
<g id="a_edge4_Node000004_Node000005"><a xlink:title=" ">
<path fill="none" stroke="#63b8ff" d="M264.68,-272.44C284.17,-279.34 307.25,-287.3 328.25,-294 333.96,-295.82 339.97,-297.67 345.95,-299.45"/>
<polygon fill="#63b8ff" stroke="#63b8ff" points="344.55,-302.69 355.13,-302.16 346.53,-295.98 344.55,-302.69"/>
</a>
</g>
</g>
<!-- Node6 -->
<g id="Node000006" class="node">
<title>Node6</title>
<g id="a_Node000006"><a xlink:href="gpio_8h.html#adf182ae6089f6e514abe34869ea54fb0" target="_top" xlink:title=" ">
<polygon fill="white" stroke="#666666" points="448.88,-285 340.62,-285 340.62,-265 448.88,-265 448.88,-285"/>
<text text-anchor="middle" x="394.75" y="-271.5" font-family="Helvetica,sans-Serif" font-size="10.00">zrtos_gpio__set_high</text>
</a>
</g>
</g>
<!-- Node4&#45;&gt;Node6 -->
<g id="edge5_Node000004_Node000006" class="edge">
<title>Node4&#45;&gt;Node6</title>
<g id="a_edge5_Node000004_Node000006"><a xlink:title=" ">
<path fill="none" stroke="#63b8ff" d="M278.81,-262.49C295.02,-264.25 312.65,-266.17 329.12,-267.96"/>
<polygon fill="#63b8ff" stroke="#63b8ff" points="328.48,-271.41 338.8,-269.02 329.24,-264.45 328.48,-271.41"/>
</a>
</g>
</g>
<!-- Node8 -->
<g id="Node000008" class="node">
<title>Node8</title>
<g id="a_Node000008"><a xlink:href="gpio_8h.html#a54c6a96e2e8cb2b5bd47e9863328d499" target="_top" xlink:title=" ">
<polygon fill="white" stroke="#666666" points="447,-247 342.5,-247 342.5,-227 447,-227 447,-247"/>
<text text-anchor="middle" x="394.75" y="-233.5" font-family="Helvetica,sans-Serif" font-size="10.00">zrtos_gpio__set_low</text>
</a>
</g>
</g>
<!-- Node4&#45;&gt;Node8 -->
<g id="edge7_Node000004_Node000008" class="edge">
<title>Node4&#45;&gt;Node8</title>
<g id="a_edge7_Node000004_Node000008"><a xlink:title=" ">
<path fill="none" stroke="#63b8ff" d="M278.81,-249.51C295.66,-247.68 314.04,-245.68 331.07,-243.83"/>
<polygon fill="#63b8ff" stroke="#63b8ff" points="330.96,-247.36 340.52,-242.8 330.2,-240.4 330.96,-247.36"/>
</a>
</g>
</g>
<!-- Node9 -->
<g id="Node000009" class="node">
<title>Node9</title>
<g id="a_Node000009"><a xlink:href="task__mutex_8h.html#a123e93e1f2eac3befe64178fba0bbcbd" target="_top" xlink:title=" ">
<polygon fill="white" stroke="#666666" points="456,-209 333.5,-209 333.5,-189 456,-189 456,-209"/>
<text text-anchor="middle" x="394.75" y="-195.5" font-family="Helvetica,sans-Serif" font-size="10.00">zrtos_task_mutex__lock</text>
</a>
</g>
</g>
<!-- Node4&#45;&gt;Node9 -->
<g id="edge8_Node000004_Node000009" class="edge">
<title>Node4&#45;&gt;Node9</title>
<g id="a_edge8_Node000004_Node000009"><a xlink:title=" ">
<path fill="none" stroke="#63b8ff" d="M264.68,-239.56C284.17,-232.66 307.25,-224.7 328.25,-218 333.96,-216.18 339.97,-214.33 345.95,-212.55"/>
<polygon fill="#63b8ff" stroke="#63b8ff" points="346.53,-216.02 355.13,-209.84 344.55,-209.31 346.53,-216.02"/>
</a>
</g>
</g>
<!-- Node30 -->
<g id="Node000030" class="node">
<title>Node30</title>
<g id="a_Node000030"><a xlink:href="task__mutex_8h.html#a7f508255a1ffb900d7b0da403be75e0d" target="_top" xlink:title=" ">
<polygon fill="white" stroke="#666666" points="461.25,-171 328.25,-171 328.25,-151 461.25,-151 461.25,-171"/>
<text text-anchor="middle" x="394.75" y="-157.5" font-family="Helvetica,sans-Serif" font-size="10.00">zrtos_task_mutex__unlock</text>
</a>
</g>
</g>
<!-- Node4&#45;&gt;Node30 -->
<g id="edge31_Node000004_Node000030" class="edge">
<title>Node4&#45;&gt;Node30</title>
<g id="a_edge31_Node000004_Node000030"><a xlink:title=" ">
<path fill="none" stroke="#63b8ff" d="M238.52,-239.61C259.41,-222.59 294.32,-196.21 328.25,-180 331.94,-178.24 335.83,-176.61 339.79,-175.1"/>
<polygon fill="#63b8ff" stroke="#63b8ff" points="340.65,-178.5 348.94,-171.91 338.35,-171.9 340.65,-178.5"/>
</a>
</g>
</g>
<!-- Node31 -->
<g id="Node000031" class="node">
<title>Node31</title>
<g id="a_Node000031"><a xlink:href="vfs__file_8h.html#a54d958c5b0506ceeba5e57caf04631b5" target="_top" xlink:title=" ">
<polygon fill="white" stroke="#666666" points="454.5,-133 335,-133 335,-113 454.5,-113 454.5,-133"/>
<text text-anchor="middle" x="394.75" y="-119.5" font-family="Helvetica,sans-Serif" font-size="10.00">zrtos_vfs_file__get_data</text>
</a>
</g>
</g>
<!-- Node4&#45;&gt;Node31 -->
<g id="edge32_Node000004_Node000031" class="edge">
<title>Node4&#45;&gt;Node31</title>
<g id="a_edge32_Node000004_Node000031"><a xlink:title=" ">
<path fill="none" stroke="#63b8ff" d="M230.33,-239.82C248.11,-215.07 285.4,-167.98 328.25,-142 330.82,-140.44 333.52,-139.01 336.31,-137.68"/>
<polygon fill="#63b8ff" stroke="#63b8ff" points="337.38,-141.03 345.27,-133.96 334.69,-134.57 337.38,-141.03"/>
</a>
</g>
</g>
<!-- Node32 -->
<g id="Node000032" class="node">
<title>Node32</title>
<g id="a_Node000032"><a xlink:href="vfs__file_8h.html#adbc392417c3fef015ea0c4728d2be7c6" target="_top" xlink:title=" ">
<polygon fill="white" stroke="#666666" points="442.5,-373 347,-373 347,-341 442.5,-341 442.5,-373"/>
<text text-anchor="start" x="355" y="-359.5" font-family="Helvetica,sans-Serif" font-size="10.00">zrtos_vfs_file__get</text>
<text text-anchor="middle" x="394.75" y="-347.5" font-family="Helvetica,sans-Serif" font-size="10.00">_inode_data</text>
</a>
</g>
</g>
<!-- Node4&#45;&gt;Node32 -->
<g id="edge33_Node000004_Node000032" class="edge">
<title>Node4&#45;&gt;Node32</title>
<g id="a_edge33_Node000004_Node000032"><a xlink:title=" ">
<path fill="none" stroke="#63b8ff" d="M239.58,-272.45C260.77,-289.05 295.42,-314.63 328.25,-332 330.79,-333.35 333.42,-334.65 336.1,-335.92"/>
<polygon fill="#63b8ff" stroke="#63b8ff" points="334.67,-339.12 345.23,-339.99 337.52,-332.73 334.67,-339.12"/>
</a>
</g>
</g>
<!-- Node7 -->
<g id="Node000007" class="node">
<title>Node7</title>
<g id="a_Node000007"><a xlink:href="gpio_8h.html#ab031db7c74dcac4dbc16bfa8f00c8414" target="_top" xlink:title=" ">
<polygon fill="white" stroke="#666666" points="600.25,-291 503.25,-291 503.25,-259 600.25,-259 600.25,-291"/>
<text text-anchor="start" x="511.25" y="-277.5" font-family="Helvetica,sans-Serif" font-size="10.00">zrtos_gpio__digital</text>
<text text-anchor="middle" x="551.75" y="-265.5" font-family="Helvetica,sans-Serif" font-size="10.00">_write</text>
</a>
</g>
</g>
<!-- Node6&#45;&gt;Node7 -->
<g id="edge6_Node000006_Node000007" class="edge">
<title>Node6&#45;&gt;Node7</title>
<g id="a_edge6_Node000006_Node000007"><a xlink:title=" ">
<path fill="none" stroke="#63b8ff" d="M449.09,-275C462.71,-275 477.43,-275 491.32,-275"/>
<polygon fill="#63b8ff" stroke="#63b8ff" points="491.25,-278.5 501.25,-275 491.25,-271.5 491.25,-278.5"/>
</a>
</g>
</g>
<!-- Node10 -->
<g id="Node000010" class="node">
<title>Node10</title>
<g id="a_Node000010"><a xlink:href="task__scheduler_8h.html#ae070a60f724cc39d3a4118b57004e82f" target="_top" xlink:title=" ">
<polygon fill="white" stroke="#666666" points="606.25,-215 497.25,-215 497.25,-183 606.25,-183 606.25,-215"/>
<text text-anchor="start" x="505.25" y="-201.5" font-family="Helvetica,sans-Serif" font-size="10.00">zrtos_task_scheduler</text>
<text text-anchor="middle" x="551.75" y="-189.5" font-family="Helvetica,sans-Serif" font-size="10.00">__delay_ms</text>
</a>
</g>
</g>
<!-- Node9&#45;&gt;Node10 -->
<g id="edge9_Node000009_Node000010" class="edge">
<title>Node9&#45;&gt;Node10</title>
<g id="a_edge9_Node000009_Node000010"><a xlink:title=" ">
<path fill="none" stroke="#63b8ff" d="M456.12,-199C465.77,-199 475.8,-199 485.56,-199"/>
<polygon fill="#63b8ff" stroke="#63b8ff" points="485.34,-202.5 495.34,-199 485.34,-195.5 485.34,-202.5"/>
</a>
</g>
</g>
<!-- Node11 -->
<g id="Node000011" class="node">
<title>Node11</title>
<g id="a_Node000011"><a xlink:href="task__scheduler_8h.html#a6034c1a6c6888d05559bb9e2cfa7619b" target="_top" xlink:title=" ">
<polygon fill="white" stroke="#666666" points="1551.62,-234 1437.38,-234 1437.38,-202 1551.62,-202 1551.62,-234"/>
<text text-anchor="start" x="1445.38" y="-220.5" font-family="Helvetica,sans-Serif" font-size="10.00">_zrtos_task_scheduler</text>
<text text-anchor="middle" x="1494.5" y="-208.5" font-family="Helvetica,sans-Serif" font-size="10.00">__get_active_task</text>
</a>
</g>
</g>
<!-- Node10&#45;&gt;Node11 -->
<g id="edge10_Node000010_Node000011" class="edge">
<title>Node10&#45;&gt;Node11</title>
<g id="a_edge10_Node000010_Node000011"><a xlink:title=" ">
<path fill="none" stroke="#63b8ff" d="M603.08,-215.47C664.69,-234.14 772.53,-262 867.38,-262 867.38,-262 867.38,-262 1179.62,-262 1265.27,-262 1362.81,-245.73 1426.11,-232.98"/>
<polygon fill="#63b8ff" stroke="#63b8ff" points="1426.55,-236.46 1435.65,-231.03 1425.15,-229.61 1426.55,-236.46"/>
</a>
</g>
</g>
<!-- Node13 -->
<g id="Node000013" class="node">
<title>Node13</title>
<g id="a_Node000013"><a xlink:href="task__scheduler_8h.html#a8f15f366e9ce3328539ee562fd4c1e73" target="_top" xlink:title=" ">
<polygon fill="white" stroke="#666666" points="765.88,-215 651.62,-215 651.62,-183 765.88,-183 765.88,-215"/>
<text text-anchor="start" x="659.62" y="-201.5" font-family="Helvetica,sans-Serif" font-size="10.00">_zrtos_task_scheduler</text>
<text text-anchor="middle" x="708.75" y="-189.5" font-family="Helvetica,sans-Serif" font-size="10.00">__on_tick_ex</text>
</a>
</g>
</g>
<!-- Node10&#45;&gt;Node13 -->
<g id="edge12_Node000010_Node000013" class="edge">
<title>Node10&#45;&gt;Node13</title>
<g id="a_edge12_Node000010_Node000013"><a xlink:title=" ">
<path fill="none" stroke="#63b8ff" d="M606.53,-199C617.23,-199 628.61,-199 639.72,-199"/>
<polygon fill="#63b8ff" stroke="#63b8ff" points="639.66,-202.5 649.66,-199 639.66,-195.5 639.66,-202.5"/>
</a>
</g>
</g>
<!-- Node29 -->
<g id="Node000029" class="node">
<title>Node29</title>
<g id="a_Node000029"><a xlink:href="task_8h.html#ab94dfaf652c3dd1dd48e1b21972edcf9" target="_top" xlink:title=" ">
<polygon fill="white" stroke="#666666" points="775.25,-165 642.25,-165 642.25,-145 775.25,-145 775.25,-165"/>
<text text-anchor="middle" x="708.75" y="-151.5" font-family="Helvetica,sans-Serif" font-size="10.00">zrtos_task__set_delay_ms</text>
</a>
</g>
</g>
<!-- Node10&#45;&gt;Node29 -->
<g id="edge30_Node000010_Node000029" class="edge">
<title>Node10&#45;&gt;Node29</title>
<g id="a_edge30_Node000010_Node000029"><a xlink:title=" ">
<path fill="none" stroke="#63b8ff" d="M606.53,-183.73C624.03,-178.77 643.31,-173.29 660.32,-168.46"/>
<polygon fill="#63b8ff" stroke="#63b8ff" points="661,-171.91 669.66,-165.81 659.09,-165.18 661,-171.91"/>
</a>
</g>
</g>
<!-- Node12 -->
<g id="Node000012" class="node">
<title>Node12</title>
<g id="a_Node000012"><a xlink:href="clist_8h.html#acab2b5c771ea45635a9621a9dc1382d4" target="_top" xlink:title=" ">
<polygon fill="white" stroke="#666666" points="1703,-228 1596.25,-228 1596.25,-208 1703,-208 1703,-228"/>
<text text-anchor="middle" x="1649.62" y="-214.5" font-family="Helvetica,sans-Serif" font-size="10.00">zrtos_clist__get_root</text>
</a>
</g>
</g>
<!-- Node11&#45;&gt;Node12 -->
<g id="edge11_Node000011_Node000012" class="edge">
<title>Node11&#45;&gt;Node12</title>
<g id="a_edge11_Node000011_Node000012"><a xlink:title=" ">
<path fill="none" stroke="#63b8ff" d="M1552.08,-218C1562.59,-218 1573.64,-218 1584.37,-218"/>
<polygon fill="#63b8ff" stroke="#63b8ff" points="1584.31,-221.5 1594.31,-218 1584.31,-214.5 1584.31,-221.5"/>
</a>
</g>
</g>
<!-- Node14 -->
<g id="Node000014" class="node">
<title>Node14</title>
<g id="a_Node000014"><a xlink:href="task__scheduler_8h.html#ab670d7e1ab8db82279714a56efc3c99a" target="_top" xlink:title=" ">
<polygon fill="white" stroke="#666666" points="925.5,-196 811.25,-196 811.25,-164 925.5,-164 925.5,-196"/>
<text text-anchor="start" x="819.25" y="-182.5" font-family="Helvetica,sans-Serif" font-size="10.00">_zrtos_task_scheduler</text>
<text text-anchor="middle" x="868.38" y="-170.5" font-family="Helvetica,sans-Serif" font-size="10.00">__on_tick</text>
</a>
</g>
</g>
<!-- Node13&#45;&gt;Node14 -->
<g id="edge13_Node000013_Node000014" class="edge">
<title>Node13&#45;&gt;Node14</title>
<g id="a_edge13_Node000013_Node000014"><a xlink:title=" ">
<path fill="none" stroke="#63b8ff" d="M766.21,-192.19C776.96,-190.9 788.32,-189.53 799.39,-188.2"/>
<polygon fill="#63b8ff" stroke="#63b8ff" points="799.77,-191.67 809.28,-187 798.93,-184.73 799.77,-191.67"/>
</a>
</g>
</g>
<!-- Node15 -->
<g id="Node000015" class="node">
<title>Node15</title>
<g id="a_Node000015"><a xlink:href="task__scheduler_8h.html#aa63cd785e44d31b9ae87297fad4de032" target="_top" xlink:title=" ">
<polygon fill="white" stroke="#666666" points="1075.75,-158 961.5,-158 961.5,-126 1075.75,-126 1075.75,-158"/>
<text text-anchor="start" x="969.5" y="-144.5" font-family="Helvetica,sans-Serif" font-size="10.00">_zrtos_task_scheduler</text>
<text text-anchor="middle" x="1018.62" y="-132.5" font-family="Helvetica,sans-Serif" font-size="10.00">__switch_task</text>
</a>
</g>
</g>
<!-- Node14&#45;&gt;Node15 -->
<g id="edge14_Node000014_Node000015" class="edge">
<title>Node14&#45;&gt;Node15</title>
<g id="a_edge14_Node000014_Node000015"><a xlink:title=" ">
<path fill="none" stroke="#63b8ff" d="M925.84,-165.53C933.83,-163.48 942.11,-161.36 950.28,-159.26"/>
<polygon fill="#63b8ff" stroke="#63b8ff" points="951.03,-162.68 959.85,-156.81 949.29,-155.9 951.03,-162.68"/>
</a>
</g>
</g>
<!-- Node15&#45;&gt;Node11 -->
<g id="edge15_Node000015_Node000011" class="edge">
<title>Node15&#45;&gt;Node11</title>
<g id="a_edge15_Node000015_Node000011"><a xlink:title=" ">
<path fill="none" stroke="#63b8ff" d="M1075.37,-158.4C1087.3,-161.55 1099.89,-164.61 1111.75,-167 1220.7,-188.96 1349.11,-203.9 1425.77,-211.68"/>
<polygon fill="#63b8ff" stroke="#63b8ff" points="1425.36,-215.16 1435.65,-212.68 1426.05,-208.19 1425.36,-215.16"/>
</a>
</g>
</g>
<!-- Node16 -->
<g id="Node000016" class="node">
<title>Node16</title>
<g id="a_Node000016"><a xlink:href="task__scheduler_8h.html#a5b02c899435ad102d853bf4fec32cc7b" target="_top" xlink:title=" ">
<polygon fill="white" stroke="#666666" points="1235.75,-158 1121.5,-158 1121.5,-126 1235.75,-126 1235.75,-158"/>
<text text-anchor="start" x="1129.5" y="-144.5" font-family="Helvetica,sans-Serif" font-size="10.00">_zrtos_task_scheduler</text>
<text text-anchor="middle" x="1178.62" y="-132.5" font-family="Helvetica,sans-Serif" font-size="10.00">__get_sleep_task</text>
</a>
</g>
</g>
<!-- Node15&#45;&gt;Node16 -->
<g id="edge16_Node000015_Node000016" class="edge">
<title>Node15&#45;&gt;Node16</title>
<g id="a_edge16_Node000015_Node000016"><a xlink:title=" ">
<path fill="none" stroke="#63b8ff" d="M1076.22,-142C1087.06,-142 1098.52,-142 1109.68,-142"/>
<polygon fill="#63b8ff" stroke="#63b8ff" points="1109.65,-145.5 1119.65,-142 1109.65,-138.5 1109.65,-145.5"/>
</a>
</g>
</g>
<!-- Node17 -->
<g id="Node000017" class="node">
<title>Node17</title>
<g id="a_Node000017"><a xlink:href="task__scheduler_8h.html#ae6c8c745afe69110cc85c56bff00689a" target="_top" xlink:title=" ">
<polygon fill="white" stroke="#666666" points="1235.75,-108 1121.5,-108 1121.5,-76 1235.75,-76 1235.75,-108"/>
<text text-anchor="start" x="1129.5" y="-94.5" font-family="Helvetica,sans-Serif" font-size="10.00">_zrtos_task_scheduler</text>
<text text-anchor="middle" x="1178.62" y="-82.5" font-family="Helvetica,sans-Serif" font-size="10.00">__set_active_task</text>
</a>
</g>
</g>
<!-- Node15&#45;&gt;Node17 -->
<g id="edge17_Node000015_Node000017" class="edge">
<title>Node15&#45;&gt;Node17</title>
<g id="a_edge17_Node000015_Node000017"><a xlink:title=" ">
<path fill="none" stroke="#63b8ff" d="M1071.36,-125.63C1085.2,-121.25 1100.32,-116.46 1114.69,-111.92"/>
<polygon fill="#63b8ff" stroke="#63b8ff" points="1115.58,-115.3 1124.06,-108.95 1113.47,-108.63 1115.58,-115.3"/>
</a>
</g>
</g>
<!-- Node25 -->
<g id="Node000025" class="node">
<title>Node25</title>
<g id="a_Node000025"><a xlink:href="task_8h.html#a007a26e54f32157b572c217857c9c190" target="_top" xlink:title=" ">
<polygon fill="white" stroke="#666666" points="1245.5,-58 1111.75,-58 1111.75,-38 1245.5,-38 1245.5,-58"/>
<text text-anchor="middle" x="1178.62" y="-44.5" font-family="Helvetica,sans-Serif" font-size="10.00">zrtos_task__get_next_task</text>
</a>
</g>
</g>
<!-- Node15&#45;&gt;Node25 -->
<g id="edge26_Node000015_Node000025" class="edge">
<title>Node15&#45;&gt;Node25</title>
<g id="a_edge26_Node000015_Node000025"><a xlink:title=" ">
<path fill="none" stroke="#63b8ff" d="M1035.47,-125.67C1052.76,-108.73 1081.96,-82.58 1111.75,-67 1114.97,-65.32 1118.35,-63.77 1121.82,-62.34"/>
<polygon fill="#63b8ff" stroke="#63b8ff" points="1122.81,-65.7 1130.97,-58.95 1120.37,-59.14 1122.81,-65.7"/>
</a>
</g>
</g>
<!-- Node27 -->
<g id="Node000027" class="node">
<title>Node27</title>
<g id="a_Node000027"><a xlink:href="task_8h.html#a886f2c097ab9830c80f6d0137c7bd526" target="_top" xlink:title=" ">
<polygon fill="white" stroke="#666666" points="1233.12,-20 1124.12,-20 1124.12,0 1233.12,0 1233.12,-20"/>
<text text-anchor="middle" x="1178.62" y="-6.5" font-family="Helvetica,sans-Serif" font-size="10.00">zrtos_task__is_ready</text>
</a>
</g>
</g>
<!-- Node15&#45;&gt;Node27 -->
<g id="edge28_Node000015_Node000027" class="edge">
<title>Node15&#45;&gt;Node27</title>
<g id="a_edge28_Node000015_Node000027"><a xlink:title=" ">
<path fill="none" stroke="#63b8ff" d="M1028.4,-125.9C1042.63,-101.3 1073.1,-54.53 1111.75,-29 1113.85,-27.61 1116.05,-26.33 1118.32,-25.13"/>
<polygon fill="#63b8ff" stroke="#63b8ff" points="1119.59,-28.4 1127.26,-21.09 1116.7,-22.02 1119.59,-28.4"/>
</a>
</g>
</g>
<!-- Node28 -->
<g id="Node000028" class="node">
<title>Node28</title>
<g id="a_Node000028"><a xlink:href="task_8h.html#a3167eade7e7faf3fc23d540b9888aaf9" target="_top" xlink:title=" ">
<polygon fill="white" stroke="#666666" points="1230.5,-234 1126.75,-234 1126.75,-214 1230.5,-214 1230.5,-234"/>
<text text-anchor="middle" x="1178.62" y="-220.5" font-family="Helvetica,sans-Serif" font-size="10.00">zrtos_task__on_tick</text>
</a>
</g>
</g>
<!-- Node15&#45;&gt;Node28 -->
<g id="edge29_Node000015_Node000028" class="edge">
<title>Node15&#45;&gt;Node28</title>
<g id="a_edge29_Node000015_Node000028"><a xlink:title=" ">
<path fill="none" stroke="#63b8ff" d="M1042.69,-158.46C1060.85,-170.94 1087.14,-187.94 1111.75,-200 1118.88,-203.49 1126.66,-206.77 1134.29,-209.7"/>
<polygon fill="#63b8ff" stroke="#63b8ff" points="1132.88,-212.91 1143.47,-213.09 1135.3,-206.35 1132.88,-212.91"/>
</a>
</g>
</g>
<!-- Node18 -->
<g id="Node000018" class="node">
<title>Node18</title>
<g id="a_Node000018"><a xlink:href="task__scheduler_8h.html#ac7d131d142e0c3285a06b925e1d39fe1" target="_top" xlink:title=" ">
<polygon fill="white" stroke="#666666" points="1391.62,-108 1282.62,-108 1282.62,-76 1391.62,-76 1391.62,-108"/>
<text text-anchor="start" x="1290.62" y="-94.5" font-family="Helvetica,sans-Serif" font-size="10.00">zrtos_task_scheduler</text>
<text text-anchor="middle" x="1337.12" y="-82.5" font-family="Helvetica,sans-Serif" font-size="10.00">__page_task_in</text>
</a>
</g>
</g>
<!-- Node17&#45;&gt;Node18 -->
<g id="edge18_Node000017_Node000018" class="edge">
<title>Node17&#45;&gt;Node18</title>
<g id="a_edge18_Node000017_Node000018"><a xlink:title=" ">
<path fill="none" stroke="#63b8ff" d="M1236.13,-92C1247.42,-92 1259.37,-92 1270.93,-92"/>
<polygon fill="#63b8ff" stroke="#63b8ff" points="1270.81,-95.5 1280.81,-92 1270.81,-88.5 1270.81,-95.5"/>
</a>
</g>
</g>
<!-- Node22 -->
<g id="Node000022" class="node">
<title>Node22</title>
<g id="a_Node000022"><a xlink:href="task__scheduler_8h.html#ac07ede37ac8af0c3d77478c3362c5098" target="_top" xlink:title=" ">
<polygon fill="white" stroke="#666666" points="1391.62,-158 1282.62,-158 1282.62,-126 1391.62,-126 1391.62,-158"/>
<text text-anchor="start" x="1290.62" y="-144.5" font-family="Helvetica,sans-Serif" font-size="10.00">zrtos_task_scheduler</text>
<text text-anchor="middle" x="1337.12" y="-132.5" font-family="Helvetica,sans-Serif" font-size="10.00">__page_task_out</text>
</a>
</g>
</g>
<!-- Node17&#45;&gt;Node22 -->
<g id="edge22_Node000017_Node000022" class="edge">
<title>Node17&#45;&gt;Node22</title>
<g id="a_edge22_Node000017_Node000022"><a xlink:title=" ">
<path fill="none" stroke="#63b8ff" d="M1230.87,-108.37C1244.58,-112.75 1259.55,-117.54 1273.79,-122.08"/>
<polygon fill="#63b8ff" stroke="#63b8ff" points="1272.47,-125.34 1283.06,-125.05 1274.6,-118.67 1272.47,-125.34"/>
</a>
</g>
</g>
<!-- Node19 -->
<g id="Node000019" class="node">
<title>Node19</title>
<g id="a_Node000019"><a xlink:href="clist_8h.html#aa49bd33d74422329134a7793b1284e80" target="_top" xlink:title=" ">
<polygon fill="white" stroke="#666666" points="1547.88,-70 1441.12,-70 1441.12,-50 1547.88,-50 1547.88,-70"/>
<text text-anchor="middle" x="1494.5" y="-56.5" font-family="Helvetica,sans-Serif" font-size="10.00">zrtos_clist__set_root</text>
</a>
</g>
</g>
<!-- Node18&#45;&gt;Node19 -->
<g id="edge19_Node000018_Node000019" class="edge">
<title>Node18&#45;&gt;Node19</title>
<g id="a_edge19_Node000018_Node000019"><a xlink:title=" ">
<path fill="none" stroke="#63b8ff" d="M1392.03,-80.9C1404.71,-78.29 1418.32,-75.48 1431.33,-72.8"/>
<polygon fill="#63b8ff" stroke="#63b8ff" points="1431.99,-76.24 1441.08,-70.8 1430.58,-69.39 1431.99,-76.24"/>
</a>
</g>
</g>
<!-- Node20 -->
<g id="Node000020" class="node">
<title>Node20</title>
<g id="a_Node000020"><a xlink:href="task_8h.html#a6d97ac60e5777143b600124289cc9de0" target="_top" xlink:title=" ">
<polygon fill="white" stroke="#666666" points="1550.88,-32 1438.12,-32 1438.12,-12 1550.88,-12 1550.88,-32"/>
<text text-anchor="middle" x="1494.5" y="-18.5" font-family="Helvetica,sans-Serif" font-size="10.00">zrtos_task__get_errno</text>
</a>
</g>
</g>
<!-- Node18&#45;&gt;Node20 -->
<g id="edge20_Node000018_Node000020" class="edge">
<title>Node18&#45;&gt;Node20</title>
<g id="a_edge20_Node000018_Node000020"><a xlink:title=" ">
<path fill="none" stroke="#63b8ff" d="M1376.52,-75.59C1382.06,-72.89 1387.61,-69.99 1392.75,-67 1409.81,-57.07 1411.03,-49.68 1428.75,-41 1432.22,-39.3 1435.87,-37.72 1439.6,-36.26"/>
<polygon fill="#63b8ff" stroke="#63b8ff" points="1440.57,-39.64 1448.8,-32.98 1438.21,-33.04 1440.57,-39.64"/>
</a>
</g>
</g>
<!-- Node21 -->
<g id="Node000021" class="node">
<title>Node21</title>
<g id="a_Node000021"><a xlink:href="task_8h.html#a57ff82492e8cb164a83c79630497defd" target="_top" xlink:title=" ">
<polygon fill="white" stroke="#666666" points="1560.25,-108 1428.75,-108 1428.75,-88 1560.25,-88 1560.25,-108"/>
<text text-anchor="middle" x="1494.5" y="-94.5" font-family="Helvetica,sans-Serif" font-size="10.00">zrtos_task__get_stack_ptr</text>
</a>
</g>
</g>
<!-- Node18&#45;&gt;Node21 -->
<g id="edge21_Node000018_Node000021" class="edge">
<title>Node18&#45;&gt;Node21</title>
<g id="a_edge21_Node000018_Node000021"><a xlink:title=" ">
<path fill="none" stroke="#63b8ff" d="M1392.03,-94.08C1400.11,-94.39 1408.56,-94.72 1417,-95.05"/>
<polygon fill="#63b8ff" stroke="#63b8ff" points="1416.81,-98.54 1426.94,-95.43 1417.08,-91.55 1416.81,-98.54"/>
</a>
</g>
</g>
<!-- Node22&#45;&gt;Node11 -->
<g id="edge23_Node000022_Node000011" class="edge">
<title>Node22&#45;&gt;Node11</title>
<g id="a_edge23_Node000022_Node000011"><a xlink:title=" ">
<path fill="none" stroke="#63b8ff" d="M1368.26,-158.37C1376.24,-162.75 1384.84,-167.52 1392.75,-172 1408.87,-181.13 1412.06,-184.97 1428.75,-193 1431.65,-194.4 1434.65,-195.77 1437.7,-197.12"/>
<polygon fill="#63b8ff" stroke="#63b8ff" points="1436.21,-200.29 1446.78,-200.97 1438.94,-193.84 1436.21,-200.29"/>
</a>
</g>
</g>
<!-- Node23 -->
<g id="Node000023" class="node">
<title>Node23</title>
<g id="a_Node000023"><a xlink:href="task_8h.html#a06873ce7299989184f846b48d2cad810" target="_top" xlink:title=" ">
<polygon fill="white" stroke="#666666" points="1550.88,-184 1438.12,-184 1438.12,-164 1550.88,-164 1550.88,-184"/>
<text text-anchor="middle" x="1494.5" y="-170.5" font-family="Helvetica,sans-Serif" font-size="10.00">zrtos_task__set_errno</text>
</a>
</g>
</g>
<!-- Node22&#45;&gt;Node23 -->
<g id="edge24_Node000022_Node000023" class="edge">
<title>Node22&#45;&gt;Node23</title>
<g id="a_edge24_Node000022_Node000023"><a xlink:title=" ">
<path fill="none" stroke="#63b8ff" d="M1392.03,-153.1C1404.71,-155.71 1418.32,-158.52 1431.33,-161.2"/>
<polygon fill="#63b8ff" stroke="#63b8ff" points="1430.58,-164.61 1441.08,-163.2 1431.99,-157.76 1430.58,-164.61"/>
</a>
</g>
</g>
<!-- Node24 -->
<g id="Node000024" class="node">
<title>Node24</title>
<g id="a_Node000024"><a xlink:href="task_8h.html#a6e268bf35f1b190f4cc63eab16068d9e" target="_top" xlink:title=" ">
<polygon fill="white" stroke="#666666" points="1560.25,-146 1428.75,-146 1428.75,-126 1560.25,-126 1560.25,-146"/>
<text text-anchor="middle" x="1494.5" y="-132.5" font-family="Helvetica,sans-Serif" font-size="10.00">zrtos_task__set_stack_ptr</text>
</a>
</g>
</g>
<!-- Node22&#45;&gt;Node24 -->
<g id="edge25_Node000022_Node000024" class="edge">
<title>Node22&#45;&gt;Node24</title>
<g id="a_edge25_Node000022_Node000024"><a xlink:title=" ">
<path fill="none" stroke="#63b8ff" d="M1392.03,-139.92C1400.11,-139.61 1408.56,-139.28 1417,-138.95"/>
<polygon fill="#63b8ff" stroke="#63b8ff" points="1417.08,-142.45 1426.94,-138.57 1416.81,-135.46 1417.08,-142.45"/>
</a>
</g>
</g>
<!-- Node26 -->
<g id="Node000026" class="node">
<title>Node26</title>
<g id="a_Node000026"><a xlink:href="clist_8h.html#aec8fbabbd0ff3c556e46b59eb872d43c" target="_top" xlink:title=" ">
<polygon fill="white" stroke="#666666" points="1392.75,-58 1281.5,-58 1281.5,-26 1392.75,-26 1392.75,-58"/>
<text text-anchor="start" x="1289.5" y="-44.5" font-family="Helvetica,sans-Serif" font-size="10.00">zrtos_clist_node__get</text>
<text text-anchor="middle" x="1337.12" y="-32.5" font-family="Helvetica,sans-Serif" font-size="10.00">_next_node</text>
</a>
</g>
</g>
<!-- Node25&#45;&gt;Node26 -->
<g id="edge27_Node000025_Node000026" class="edge">
<title>Node25&#45;&gt;Node26</title>
<g id="a_edge27_Node000025_Node000026"><a xlink:title=" ">
<path fill="none" stroke="#63b8ff" d="M1246,-45.46C1253.94,-45.15 1262.06,-44.84 1270,-44.54"/>
<polygon fill="#63b8ff" stroke="#63b8ff" points="1270.11,-48.03 1279.97,-44.15 1269.84,-41.04 1270.11,-48.03"/>
</a>
</g>
</g>
</g>
</svg>
