<?xml version="1.0" encoding="UTF-8" standalone="no"?>
<!DOCTYPE svg PUBLIC "-//W3C//DTD SVG 1.1//EN"
 "http://www.w3.org/Graphics/SVG/1.1/DTD/svg11.dtd">
<!-- Generated by graphviz version 10.0.1 (20240210.2158)
 -->
<!-- Title: _zrtos_task_scheduler__set_active_task Pages: 1 -->
<svg width="578pt" height="230pt"
 viewBox="0.00 0.00 577.50 230.00" xmlns="http://www.w3.org/2000/svg" xmlns:xlink="http://www.w3.org/1999/xlink">
<g id="graph0" class="graph" transform="scale(1 1) rotate(0) translate(4 226)">
<title>_zrtos_task_scheduler__set_active_task</title>
<!-- Node1 -->
<g id="Node000001" class="node">
<title>Node1</title>
<g id="a_Node000001"><a xlink:title=" ">
<polygon fill="#999999" stroke="#666666" points="114.25,-120 0,-120 0,-88 114.25,-88 114.25,-120"/>
<text text-anchor="start" x="8" y="-106.5" font-family="Helvetica,sans-Serif" font-size="10.00">_zrtos_task_scheduler</text>
<text text-anchor="middle" x="57.12" y="-94.5" font-family="Helvetica,sans-Serif" font-size="10.00">__set_active_task</text>
</a>
</g>
</g>
<!-- Node2 -->
<g id="Node000002" class="node">
<title>Node2</title>
<g id="a_Node000002"><a xlink:href="task__scheduler_8h.html#ac7d131d142e0c3285a06b925e1d39fe1" target="_top" xlink:title=" ">
<polygon fill="white" stroke="#666666" points="259.25,-164 150.25,-164 150.25,-132 259.25,-132 259.25,-164"/>
<text text-anchor="start" x="158.25" y="-150.5" font-family="Helvetica,sans-Serif" font-size="10.00">zrtos_task_scheduler</text>
<text text-anchor="middle" x="204.75" y="-138.5" font-family="Helvetica,sans-Serif" font-size="10.00">__page_task_in</text>
</a>
</g>
</g>
<!-- Node1&#45;&gt;Node2 -->
<g id="edge1_Node000001_Node000002" class="edge">
<title>Node1&#45;&gt;Node2</title>
<g id="a_edge1_Node000001_Node000002"><a xlink:title=" ">
<path fill="none" stroke="#63b8ff" d="M112.35,-120.38C121.09,-123.02 130.21,-125.78 139.16,-128.49"/>
<polygon fill="#63b8ff" stroke="#63b8ff" points="137.93,-131.77 148.52,-131.31 139.96,-125.07 137.93,-131.77"/>
</a>
</g>
</g>
<!-- Node6 -->
<g id="Node000006" class="node">
<title>Node6</title>
<g id="a_Node000006"><a xlink:href="task__scheduler_8h.html#ac07ede37ac8af0c3d77478c3362c5098" target="_top" xlink:title=" ">
<polygon fill="white" stroke="#666666" points="259.25,-95 150.25,-95 150.25,-63 259.25,-63 259.25,-95"/>
<text text-anchor="start" x="158.25" y="-81.5" font-family="Helvetica,sans-Serif" font-size="10.00">zrtos_task_scheduler</text>
<text text-anchor="middle" x="204.75" y="-69.5" font-family="Helvetica,sans-Serif" font-size="10.00">__page_task_out</text>
</a>
</g>
</g>
<!-- Node1&#45;&gt;Node6 -->
<g id="edge5_Node000001_Node000006" class="edge">
<title>Node1&#45;&gt;Node6</title>
<g id="a_edge5_Node000001_Node000006"><a xlink:title=" ">
<path fill="none" stroke="#63b8ff" d="M114.43,-94.33C122.37,-92.97 130.59,-91.56 138.68,-90.17"/>
<polygon fill="#63b8ff" stroke="#63b8ff" points="139.23,-93.63 148.5,-88.49 138.05,-86.73 139.23,-93.63"/>
</a>
</g>
</g>
<!-- Node3 -->
<g id="Node000003" class="node">
<title>Node3</title>
<g id="a_Node000003"><a xlink:href="clist_8h.html#aa49bd33d74422329134a7793b1284e80" target="_top" xlink:title=" ">
<polygon fill="white" stroke="#666666" points="414.38,-222 307.62,-222 307.62,-202 414.38,-202 414.38,-222"/>
<text text-anchor="middle" x="361" y="-208.5" font-family="Helvetica,sans-Serif" font-size="10.00">zrtos_clist__set_root</text>
</a>
</g>
</g>
<!-- Node2&#45;&gt;Node3 -->
<g id="edge2_Node000002_Node000003" class="edge">
<title>Node2&#45;&gt;Node3</title>
<g id="a_edge2_Node000002_Node000003"><a xlink:title=" ">
<path fill="none" stroke="#63b8ff" d="M234.97,-164.37C252.17,-173.58 274.54,-184.83 295.25,-193 299.85,-194.81 304.69,-196.55 309.57,-198.17"/>
<polygon fill="#63b8ff" stroke="#63b8ff" points="308.21,-201.41 318.8,-201.11 310.33,-194.74 308.21,-201.41"/>
</a>
</g>
</g>
<!-- Node4 -->
<g id="Node000004" class="node">
<title>Node4</title>
<g id="a_Node000004"><a xlink:href="task_8h.html#a6d97ac60e5777143b600124289cc9de0" target="_top" xlink:title=" ">
<polygon fill="white" stroke="#666666" points="417.38,-184 304.62,-184 304.62,-164 417.38,-164 417.38,-184"/>
<text text-anchor="middle" x="361" y="-170.5" font-family="Helvetica,sans-Serif" font-size="10.00">zrtos_task__get_errno</text>
</a>
</g>
</g>
<!-- Node2&#45;&gt;Node4 -->
<g id="edge3_Node000002_Node000004" class="edge">
<title>Node2&#45;&gt;Node4</title>
<g id="a_edge3_Node000002_Node000004"><a xlink:title=" ">
<path fill="none" stroke="#63b8ff" d="M259.7,-157.09C270.52,-158.92 282,-160.85 293.19,-162.74"/>
<polygon fill="#63b8ff" stroke="#63b8ff" points="292.32,-166.14 302.76,-164.35 293.48,-159.24 292.32,-166.14"/>
</a>
</g>
</g>
<!-- Node5 -->
<g id="Node000005" class="node">
<title>Node5</title>
<g id="a_Node000005"><a xlink:href="task_8h.html#a57ff82492e8cb164a83c79630497defd" target="_top" xlink:title=" ">
<polygon fill="white" stroke="#666666" points="426.75,-146 295.25,-146 295.25,-126 426.75,-126 426.75,-146"/>
<text text-anchor="middle" x="361" y="-132.5" font-family="Helvetica,sans-Serif" font-size="10.00">zrtos_task__get_stack_ptr</text>
</a>
</g>
</g>
<!-- Node2&#45;&gt;Node5 -->
<g id="edge4_Node000002_Node000005" class="edge">
<title>Node2&#45;&gt;Node5</title>
<g id="a_edge4_Node000002_Node000005"><a xlink:title=" ">
<path fill="none" stroke="#63b8ff" d="M259.7,-143.8C267.43,-143.2 275.51,-142.57 283.58,-141.95"/>
<polygon fill="#63b8ff" stroke="#63b8ff" points="283.74,-145.44 293.43,-141.18 283.19,-138.46 283.74,-145.44"/>
</a>
</g>
</g>
<!-- Node7 -->
<g id="Node000007" class="node">
<title>Node7</title>
<g id="a_Node000007"><a xlink:href="task__scheduler_8h.html#a6034c1a6c6888d05559bb9e2cfa7619b" target="_top" xlink:title=" ">
<polygon fill="white" stroke="#666666" points="418.12,-108 303.88,-108 303.88,-76 418.12,-76 418.12,-108"/>
<text text-anchor="start" x="311.88" y="-94.5" font-family="Helvetica,sans-Serif" font-size="10.00">_zrtos_task_scheduler</text>
<text text-anchor="middle" x="361" y="-82.5" font-family="Helvetica,sans-Serif" font-size="10.00">__get_active_task</text>
</a>
</g>
</g>
<!-- Node6&#45;&gt;Node7 -->
<g id="edge6_Node000006_Node000007" class="edge">
<title>Node6&#45;&gt;Node7</title>
<g id="a_edge6_Node000006_Node000007"><a xlink:title=" ">
<path fill="none" stroke="#63b8ff" d="M259.7,-83.55C270.21,-84.43 281.35,-85.37 292.24,-86.29"/>
<polygon fill="#63b8ff" stroke="#63b8ff" points="291.7,-89.76 301.95,-87.11 292.28,-82.78 291.7,-89.76"/>
</a>
</g>
</g>
<!-- Node9 -->
<g id="Node000009" class="node">
<title>Node9</title>
<g id="a_Node000009"><a xlink:href="task_8h.html#a06873ce7299989184f846b48d2cad810" target="_top" xlink:title=" ">
<polygon fill="white" stroke="#666666" points="417.38,-58 304.62,-58 304.62,-38 417.38,-38 417.38,-58"/>
<text text-anchor="middle" x="361" y="-44.5" font-family="Helvetica,sans-Serif" font-size="10.00">zrtos_task__set_errno</text>
</a>
</g>
</g>
<!-- Node6&#45;&gt;Node9 -->
<g id="edge8_Node000006_Node000009" class="edge">
<title>Node6&#45;&gt;Node9</title>
<g id="a_edge8_Node000006_Node000009"><a xlink:title=" ">
<path fill="none" stroke="#63b8ff" d="M259.7,-68.16C271.67,-65.75 284.47,-63.18 296.77,-60.71"/>
<polygon fill="#63b8ff" stroke="#63b8ff" points="297.3,-64.17 306.42,-58.77 295.92,-57.31 297.3,-64.17"/>
</a>
</g>
</g>
<!-- Node10 -->
<g id="Node000010" class="node">
<title>Node10</title>
<g id="a_Node000010"><a xlink:href="task_8h.html#a6e268bf35f1b190f4cc63eab16068d9e" target="_top" xlink:title=" ">
<polygon fill="white" stroke="#666666" points="426.75,-20 295.25,-20 295.25,0 426.75,0 426.75,-20"/>
<text text-anchor="middle" x="361" y="-6.5" font-family="Helvetica,sans-Serif" font-size="10.00">zrtos_task__set_stack_ptr</text>
</a>
</g>
</g>
<!-- Node6&#45;&gt;Node10 -->
<g id="edge9_Node000006_Node000010" class="edge">
<title>Node6&#45;&gt;Node10</title>
<g id="a_edge9_Node000006_Node000010"><a xlink:title=" ">
<path fill="none" stroke="#63b8ff" d="M231.6,-62.52C249.07,-51.9 272.93,-38.37 295.25,-29 299.5,-27.21 303.98,-25.53 308.51,-23.95"/>
<polygon fill="#63b8ff" stroke="#63b8ff" points="309.25,-27.4 317.66,-20.96 307.07,-20.74 309.25,-27.4"/>
</a>
</g>
</g>
<!-- Node8 -->
<g id="Node000008" class="node">
<title>Node8</title>
<g id="a_Node000008"><a xlink:href="clist_8h.html#acab2b5c771ea45635a9621a9dc1382d4" target="_top" xlink:title=" ">
<polygon fill="white" stroke="#666666" points="569.5,-102 462.75,-102 462.75,-82 569.5,-82 569.5,-102"/>
<text text-anchor="middle" x="516.12" y="-88.5" font-family="Helvetica,sans-Serif" font-size="10.00">zrtos_clist__get_root</text>
</a>
</g>
</g>
<!-- Node7&#45;&gt;Node8 -->
<g id="edge7_Node000007_Node000008" class="edge">
<title>Node7&#45;&gt;Node8</title>
<g id="a_edge7_Node000007_Node000008"><a xlink:title=" ">
<path fill="none" stroke="#63b8ff" d="M418.58,-92C429.09,-92 440.14,-92 450.87,-92"/>
<polygon fill="#63b8ff" stroke="#63b8ff" points="450.81,-95.5 460.81,-92 450.81,-88.5 450.81,-95.5"/>
</a>
</g>
</g>
</g>
</svg>
