<?xml version="1.0" encoding="UTF-8" standalone="no"?>
<!DOCTYPE svg PUBLIC "-//W3C//DTD SVG 1.1//EN"
 "http://www.w3.org/Graphics/SVG/1.1/DTD/svg11.dtd">
<!-- Generated by graphviz version 2.40.1 (20161225.0304)
 -->
<!-- Title: zrtos_task_mutex__lock Pages: 1 -->
<svg width="438pt" height="78pt"
 viewBox="0.00 0.00 438.00 77.50" xmlns="http://www.w3.org/2000/svg" xmlns:xlink="http://www.w3.org/1999/xlink">
<g id="graph0" class="graph" transform="scale(1 1) rotate(0) translate(4 73.5)">
<title>zrtos_task_mutex__lock</title>
<polygon fill="#ffffff" stroke="transparent" points="-4,4 -4,-73.5 434,-73.5 434,4 -4,4"/>
<!-- Node28 -->
<g id="node1" class="node">
<title>Node28</title>
<polygon fill="#bfbfbf" stroke="#000000" points="0,-22.5 0,-41.5 123,-41.5 123,-22.5 0,-22.5"/>
<text text-anchor="middle" x="61.5" y="-29.5" font-family="Helvetica,sans-Serif" font-size="10.00" fill="#000000">zrtos_task_mutex__lock</text>
</g>
<!-- Node29 -->
<g id="node2" class="node">
<title>Node29</title>
<g id="a_node2"><a xlink:href="spi__sync_8h.html#acad5edb178ed84b8a1b7b3a877dbcd61" target="_top" xlink:title="zrtos_vfs_module_spi\l_sync__on_write_helper">
<polygon fill="#ffffff" stroke="#000000" points="159,-39 159,-69 281,-69 281,-39 159,-39"/>
<text text-anchor="start" x="167" y="-57" font-family="Helvetica,sans-Serif" font-size="10.00" fill="#000000">zrtos_vfs_module_spi</text>
<text text-anchor="middle" x="220" y="-46" font-family="Helvetica,sans-Serif" font-size="10.00" fill="#000000">_sync__on_write_helper</text>
</a>
</g>
</g>
<!-- Node28&#45;&gt;Node29 -->
<g id="edge1" class="edge">
<title>Node28&#45;&gt;Node29</title>
<path fill="none" stroke="#191970" d="M133.2386,-41.9574C141.8282,-43.1497 150.5367,-44.3584 158.9553,-45.5269"/>
<polygon fill="#191970" stroke="#191970" points="133.6204,-38.4769 123.2341,-40.5688 132.6579,-45.4105 133.6204,-38.4769"/>
</g>
<!-- Node31 -->
<g id="node4" class="node">
<title>Node31</title>
<g id="a_node4"><a xlink:href="task__pthread_8h.html#a12809c44718c21544ceb280dc1a53573" target="_top" xlink:title="pthread_mutex_lock">
<polygon fill="#ffffff" stroke="#000000" points="168,-.5 168,-19.5 272,-19.5 272,-.5 168,-.5"/>
<text text-anchor="middle" x="220" y="-7.5" font-family="Helvetica,sans-Serif" font-size="10.00" fill="#000000">pthread_mutex_lock</text>
</a>
</g>
</g>
<!-- Node28&#45;&gt;Node31 -->
<g id="edge3" class="edge">
<title>Node28&#45;&gt;Node31</title>
<path fill="none" stroke="#191970" d="M133.3838,-22.0224C145.0252,-20.4066 156.8805,-18.7611 167.9331,-17.2269"/>
<polygon fill="#191970" stroke="#191970" points="132.6579,-18.5895 123.2341,-23.4312 133.6204,-25.5231 132.6579,-18.5895"/>
</g>
<!-- Node30 -->
<g id="node3" class="node">
<title>Node30</title>
<g id="a_node3"><a xlink:href="sync_8h.html#affc4ed32d5b66e97fb25c63faaf49eed" target="_top" xlink:title="zrtos_vfs_module_avr\l_spi_sync__on_write">
<polygon fill="#ffffff" stroke="#000000" points="317,-39 317,-69 430,-69 430,-39 317,-39"/>
<text text-anchor="start" x="325" y="-57" font-family="Helvetica,sans-Serif" font-size="10.00" fill="#000000">zrtos_vfs_module_avr</text>
<text text-anchor="middle" x="373.5" y="-46" font-family="Helvetica,sans-Serif" font-size="10.00" fill="#000000">_spi_sync__on_write</text>
</a>
</g>
</g>
<!-- Node29&#45;&gt;Node30 -->
<g id="edge2" class="edge">
<title>Node29&#45;&gt;Node30</title>
<path fill="none" stroke="#191970" d="M291.3578,-54C299.8191,-54 308.3682,-54 316.5911,-54"/>
<polygon fill="#191970" stroke="#191970" points="291.1084,-50.5001 281.1083,-54 291.1083,-57.5001 291.1084,-50.5001"/>
</g>
</g>
</svg>
