<?xml version="1.0" encoding="UTF-8" standalone="no"?>
<!DOCTYPE svg PUBLIC "-//W3C//DTD SVG 1.1//EN"
 "http://www.w3.org/Graphics/SVG/1.1/DTD/svg11.dtd">
<!-- Generated by graphviz version 2.40.1 (20161225.0304)
 -->
<!-- Title: zrtos_task_scheduler__page_task_in Pages: 1 -->
<svg width="1334pt" height="176pt"
 viewBox="0.00 0.00 1334.00 176.00" xmlns="http://www.w3.org/2000/svg" xmlns:xlink="http://www.w3.org/1999/xlink">
<g id="graph0" class="graph" transform="scale(1 1) rotate(0) translate(4 172)">
<title>zrtos_task_scheduler__page_task_in</title>
<polygon fill="#ffffff" stroke="transparent" points="-4,4 -4,-172 1330,-172 1330,4 -4,4"/>
<!-- Node219 -->
<g id="node1" class="node">
<title>Node219</title>
<polygon fill="#bfbfbf" stroke="#000000" points="0,-71.5 0,-101.5 110,-101.5 110,-71.5 0,-71.5"/>
<text text-anchor="start" x="8" y="-89.5" font-family="Helvetica,sans-Serif" font-size="10.00" fill="#000000">zrtos_task_scheduler</text>
<text text-anchor="middle" x="55" y="-78.5" font-family="Helvetica,sans-Serif" font-size="10.00" fill="#000000">__page_task_in</text>
</g>
<!-- Node220 -->
<g id="node2" class="node">
<title>Node220</title>
<g id="a_node2"><a xlink:href="task__scheduler_8h.html#ae6c8c745afe69110cc85c56bff00689a" target="_top" xlink:title="_zrtos_task_scheduler\l__set_active_task">
<polygon fill="#ffffff" stroke="#000000" points="146,-71.5 146,-101.5 261,-101.5 261,-71.5 146,-71.5"/>
<text text-anchor="start" x="154" y="-89.5" font-family="Helvetica,sans-Serif" font-size="10.00" fill="#000000">_zrtos_task_scheduler</text>
<text text-anchor="middle" x="203.5" y="-78.5" font-family="Helvetica,sans-Serif" font-size="10.00" fill="#000000">__set_active_task</text>
</a>
</g>
</g>
<!-- Node219&#45;&gt;Node220 -->
<g id="edge1" class="edge">
<title>Node219&#45;&gt;Node220</title>
<path fill="none" stroke="#191970" d="M120.4421,-86.5C128.8464,-86.5 137.4033,-86.5 145.6741,-86.5"/>
<polygon fill="#191970" stroke="#191970" points="120.296,-83.0001 110.2959,-86.5 120.2959,-90.0001 120.296,-83.0001"/>
</g>
<!-- Node221 -->
<g id="node3" class="node">
<title>Node221</title>
<g id="a_node3"><a xlink:href="task__scheduler_8h.html#aa63cd785e44d31b9ae87297fad4de032" target="_top" xlink:title="_zrtos_task_scheduler\l__switch_task">
<polygon fill="#ffffff" stroke="#000000" points="297,-71.5 297,-101.5 412,-101.5 412,-71.5 297,-71.5"/>
<text text-anchor="start" x="305" y="-89.5" font-family="Helvetica,sans-Serif" font-size="10.00" fill="#000000">_zrtos_task_scheduler</text>
<text text-anchor="middle" x="354.5" y="-78.5" font-family="Helvetica,sans-Serif" font-size="10.00" fill="#000000">__switch_task</text>
</a>
</g>
</g>
<!-- Node220&#45;&gt;Node221 -->
<g id="edge2" class="edge">
<title>Node220&#45;&gt;Node221</title>
<path fill="none" stroke="#191970" d="M271.0519,-86.5C279.6779,-86.5 288.4438,-86.5 296.8925,-86.5"/>
<polygon fill="#191970" stroke="#191970" points="271.0174,-83.0001 261.0174,-86.5 271.0173,-90.0001 271.0174,-83.0001"/>
</g>
<!-- Node222 -->
<g id="node4" class="node">
<title>Node222</title>
<g id="a_node4"><a xlink:href="task__scheduler_8h.html#ab670d7e1ab8db82279714a56efc3c99a" target="_top" xlink:title="_zrtos_task_scheduler\l__on_tick">
<polygon fill="#ffffff" stroke="#000000" points="448,-71.5 448,-101.5 563,-101.5 563,-71.5 448,-71.5"/>
<text text-anchor="start" x="456" y="-89.5" font-family="Helvetica,sans-Serif" font-size="10.00" fill="#000000">_zrtos_task_scheduler</text>
<text text-anchor="middle" x="505.5" y="-78.5" font-family="Helvetica,sans-Serif" font-size="10.00" fill="#000000">__on_tick</text>
</a>
</g>
</g>
<!-- Node221&#45;&gt;Node222 -->
<g id="edge3" class="edge">
<title>Node221&#45;&gt;Node222</title>
<path fill="none" stroke="#191970" d="M422.0519,-86.5C430.6779,-86.5 439.4438,-86.5 447.8925,-86.5"/>
<polygon fill="#191970" stroke="#191970" points="422.0174,-83.0001 412.0174,-86.5 422.0173,-90.0001 422.0174,-83.0001"/>
</g>
<!-- Node223 -->
<g id="node5" class="node">
<title>Node223</title>
<g id="a_node5"><a xlink:href="task__scheduler_8h.html#a8f15f366e9ce3328539ee562fd4c1e73" target="_top" xlink:title="_zrtos_task_scheduler\l__on_tick_ex">
<polygon fill="#ffffff" stroke="#000000" points="599,-71.5 599,-101.5 714,-101.5 714,-71.5 599,-71.5"/>
<text text-anchor="start" x="607" y="-89.5" font-family="Helvetica,sans-Serif" font-size="10.00" fill="#000000">_zrtos_task_scheduler</text>
<text text-anchor="middle" x="656.5" y="-78.5" font-family="Helvetica,sans-Serif" font-size="10.00" fill="#000000">__on_tick_ex</text>
</a>
</g>
</g>
<!-- Node222&#45;&gt;Node223 -->
<g id="edge4" class="edge">
<title>Node222&#45;&gt;Node223</title>
<path fill="none" stroke="#191970" d="M573.0519,-86.5C581.6779,-86.5 590.4438,-86.5 598.8925,-86.5"/>
<polygon fill="#191970" stroke="#191970" points="573.0174,-83.0001 563.0174,-86.5 573.0173,-90.0001 573.0174,-83.0001"/>
</g>
<!-- Node224 -->
<g id="node6" class="node">
<title>Node224</title>
<g id="a_node6"><a xlink:href="task__pthread_8h.html#ace168cf0d23cd4b085a2da31b881c750" target="_top" xlink:title="zrtos_task_pthread\l__trampoline_cb">
<polygon fill="#ffffff" stroke="#000000" points="755,-137.5 755,-167.5 855,-167.5 855,-137.5 755,-137.5"/>
<text text-anchor="start" x="763" y="-155.5" font-family="Helvetica,sans-Serif" font-size="10.00" fill="#000000">zrtos_task_pthread</text>
<text text-anchor="middle" x="805" y="-144.5" font-family="Helvetica,sans-Serif" font-size="10.00" fill="#000000">__trampoline_cb</text>
</a>
</g>
</g>
<!-- Node223&#45;&gt;Node224 -->
<g id="edge5" class="edge">
<title>Node223&#45;&gt;Node224</title>
<path fill="none" stroke="#191970" d="M699.9728,-105.8212C722.6544,-115.902 749.9917,-128.0519 771.0896,-137.4287"/>
<polygon fill="#191970" stroke="#191970" points="701.1285,-102.5048 690.5689,-101.6417 698.2855,-108.9015 701.1285,-102.5048"/>
</g>
<!-- Node226 -->
<g id="node8" class="node">
<title>Node226</title>
<g id="a_node8"><a xlink:href="task__pthread_8h.html#a28a15bba47cab57cbc9f5dac9af99c8b" target="_top" xlink:title="pthread_join">
<polygon fill="#ffffff" stroke="#000000" points="770.5,-99 770.5,-118 839.5,-118 839.5,-99 770.5,-99"/>
<text text-anchor="middle" x="805" y="-106" font-family="Helvetica,sans-Serif" font-size="10.00" fill="#000000">pthread_join</text>
</a>
</g>
</g>
<!-- Node223&#45;&gt;Node226 -->
<g id="edge7" class="edge">
<title>Node223&#45;&gt;Node226</title>
<path fill="none" stroke="#191970" d="M724.6382,-96.5946C740.4383,-98.9353 756.61,-101.3311 770.2654,-103.3541"/>
<polygon fill="#191970" stroke="#191970" points="724.7442,-93.0721 714.3392,-95.0688 723.7183,-99.9966 724.7442,-93.0721"/>
</g>
<!-- Node227 -->
<g id="node9" class="node">
<title>Node227</title>
<g id="a_node9"><a xlink:href="task__scheduler_8h.html#ae070a60f724cc39d3a4118b57004e82f" target="_top" xlink:title="zrtos_task_scheduler\l__delay_ms">
<polygon fill="#ffffff" stroke="#000000" points="750,-49.5 750,-79.5 860,-79.5 860,-49.5 750,-49.5"/>
<text text-anchor="start" x="758" y="-67.5" font-family="Helvetica,sans-Serif" font-size="10.00" fill="#000000">zrtos_task_scheduler</text>
<text text-anchor="middle" x="805" y="-56.5" font-family="Helvetica,sans-Serif" font-size="10.00" fill="#000000">__delay_ms</text>
</a>
</g>
</g>
<!-- Node223&#45;&gt;Node227 -->
<g id="edge8" class="edge">
<title>Node223&#45;&gt;Node227</title>
<path fill="none" stroke="#191970" d="M724.3425,-76.4493C732.9327,-75.1766 741.6381,-73.887 749.9942,-72.649"/>
<polygon fill="#191970" stroke="#191970" points="723.7183,-73.0034 714.3392,-77.9312 724.7442,-79.9279 723.7183,-73.0034"/>
</g>
<!-- Node232 -->
<g id="node14" class="node">
<title>Node232</title>
<g id="a_node14"><a xlink:href="task__scheduler_8h.html#a1e85f61c031a36a33f08d891597103b2" target="_top" xlink:title="zrtos_task_scheduler\l__init">
<polygon fill="#ffffff" stroke="#000000" points="750,-.5 750,-30.5 860,-30.5 860,-.5 750,-.5"/>
<text text-anchor="start" x="758" y="-18.5" font-family="Helvetica,sans-Serif" font-size="10.00" fill="#000000">zrtos_task_scheduler</text>
<text text-anchor="middle" x="805" y="-7.5" font-family="Helvetica,sans-Serif" font-size="10.00" fill="#000000">__init</text>
</a>
</g>
</g>
<!-- Node223&#45;&gt;Node232 -->
<g id="edge13" class="edge">
<title>Node223&#45;&gt;Node232</title>
<path fill="none" stroke="#191970" d="M696.1012,-66.6842C712.6969,-58.4667 732.229,-48.9079 750,-40.5 756.9212,-37.2254 764.3675,-33.7855 771.4765,-30.5408"/>
<polygon fill="#191970" stroke="#191970" points="694.1056,-63.7673 686.7047,-71.3487 697.2181,-70.0372 694.1056,-63.7673"/>
</g>
<!-- Node225 -->
<g id="node7" class="node">
<title>Node225</title>
<g id="a_node7"><a xlink:href="task__pthread_8h.html#a091adcef6201bebbf231763328c15286" target="_top" xlink:title="pthread_create">
<polygon fill="#ffffff" stroke="#000000" points="917,-143 917,-162 998,-162 998,-143 917,-143"/>
<text text-anchor="middle" x="957.5" y="-150" font-family="Helvetica,sans-Serif" font-size="10.00" fill="#000000">pthread_create</text>
</a>
</g>
</g>
<!-- Node224&#45;&gt;Node225 -->
<g id="edge6" class="edge">
<title>Node224&#45;&gt;Node225</title>
<path fill="none" stroke="#191970" d="M865.3664,-152.5C882.6384,-152.5 901.0482,-152.5 916.8347,-152.5"/>
<polygon fill="#191970" stroke="#191970" points="865.3569,-149.0001 855.3568,-152.5 865.3568,-156.0001 865.3569,-149.0001"/>
</g>
<!-- Node228 -->
<g id="node10" class="node">
<title>Node228</title>
<g id="a_node10"><a xlink:href="task__mutex_8h.html#a123e93e1f2eac3befe64178fba0bbcbd" target="_top" xlink:title="zrtos_task_mutex__lock">
<polygon fill="#ffffff" stroke="#000000" points="896,-55 896,-74 1019,-74 1019,-55 896,-55"/>
<text text-anchor="middle" x="957.5" y="-62" font-family="Helvetica,sans-Serif" font-size="10.00" fill="#000000">zrtos_task_mutex__lock</text>
</a>
</g>
</g>
<!-- Node227&#45;&gt;Node228 -->
<g id="edge9" class="edge">
<title>Node227&#45;&gt;Node228</title>
<path fill="none" stroke="#191970" d="M870.2673,-64.5C878.7376,-64.5 887.3925,-64.5 895.8021,-64.5"/>
<polygon fill="#191970" stroke="#191970" points="870.056,-61.0001 860.056,-64.5 870.056,-68.0001 870.056,-61.0001"/>
</g>
<!-- Node229 -->
<g id="node11" class="node">
<title>Node229</title>
<g id="a_node11"><a xlink:href="spi__sync_8h.html#acad5edb178ed84b8a1b7b3a877dbcd61" target="_top" xlink:title="zrtos_vfs_module_spi\l_sync__on_write_helper">
<polygon fill="#ffffff" stroke="#000000" points="1055,-71.5 1055,-101.5 1177,-101.5 1177,-71.5 1055,-71.5"/>
<text text-anchor="start" x="1063" y="-89.5" font-family="Helvetica,sans-Serif" font-size="10.00" fill="#000000">zrtos_vfs_module_spi</text>
<text text-anchor="middle" x="1116" y="-78.5" font-family="Helvetica,sans-Serif" font-size="10.00" fill="#000000">_sync__on_write_helper</text>
</a>
</g>
</g>
<!-- Node228&#45;&gt;Node229 -->
<g id="edge10" class="edge">
<title>Node228&#45;&gt;Node229</title>
<path fill="none" stroke="#191970" d="M1029.2386,-74.4574C1037.8282,-75.6497 1046.5367,-76.8584 1054.9553,-78.0269"/>
<polygon fill="#191970" stroke="#191970" points="1029.6204,-70.9769 1019.2341,-73.0688 1028.6579,-77.9105 1029.6204,-70.9769"/>
</g>
<!-- Node231 -->
<g id="node13" class="node">
<title>Node231</title>
<g id="a_node13"><a xlink:href="task__pthread_8h.html#a12809c44718c21544ceb280dc1a53573" target="_top" xlink:title="pthread_mutex_lock">
<polygon fill="#ffffff" stroke="#000000" points="1064,-33 1064,-52 1168,-52 1168,-33 1064,-33"/>
<text text-anchor="middle" x="1116" y="-40" font-family="Helvetica,sans-Serif" font-size="10.00" fill="#000000">pthread_mutex_lock</text>
</a>
</g>
</g>
<!-- Node228&#45;&gt;Node231 -->
<g id="edge12" class="edge">
<title>Node228&#45;&gt;Node231</title>
<path fill="none" stroke="#191970" d="M1029.3838,-54.5224C1041.0252,-52.9066 1052.8805,-51.2611 1063.9331,-49.7269"/>
<polygon fill="#191970" stroke="#191970" points="1028.6579,-51.0895 1019.2341,-55.9312 1029.6204,-58.0231 1028.6579,-51.0895"/>
</g>
<!-- Node230 -->
<g id="node12" class="node">
<title>Node230</title>
<g id="a_node12"><a xlink:href="sync_8h.html#affc4ed32d5b66e97fb25c63faaf49eed" target="_top" xlink:title="zrtos_vfs_module_avr\l_spi_sync__on_write">
<polygon fill="#ffffff" stroke="#000000" points="1213,-71.5 1213,-101.5 1326,-101.5 1326,-71.5 1213,-71.5"/>
<text text-anchor="start" x="1221" y="-89.5" font-family="Helvetica,sans-Serif" font-size="10.00" fill="#000000">zrtos_vfs_module_avr</text>
<text text-anchor="middle" x="1269.5" y="-78.5" font-family="Helvetica,sans-Serif" font-size="10.00" fill="#000000">_spi_sync__on_write</text>
</a>
</g>
</g>
<!-- Node229&#45;&gt;Node230 -->
<g id="edge11" class="edge">
<title>Node229&#45;&gt;Node230</title>
<path fill="none" stroke="#191970" d="M1187.3578,-86.5C1195.8191,-86.5 1204.3682,-86.5 1212.5911,-86.5"/>
<polygon fill="#191970" stroke="#191970" points="1187.1084,-83.0001 1177.1083,-86.5 1187.1083,-90.0001 1187.1084,-83.0001"/>
</g>
</g>
</svg>
