<?xml version="1.0" encoding="UTF-8" standalone="no"?>
<!DOCTYPE svg PUBLIC "-//W3C//DTD SVG 1.1//EN"
 "http://www.w3.org/Graphics/SVG/1.1/DTD/svg11.dtd">
<!-- Generated by graphviz version 2.40.1 (20161225.0304)
 -->
<!-- Title: zrtos_task__get_errno Pages: 1 -->
<svg width="1483pt" height="176pt"
 viewBox="0.00 0.00 1483.00 176.00" xmlns="http://www.w3.org/2000/svg" xmlns:xlink="http://www.w3.org/1999/xlink">
<g id="graph0" class="graph" transform="scale(1 1) rotate(0) translate(4 172)">
<title>zrtos_task__get_errno</title>
<polygon fill="#ffffff" stroke="transparent" points="-4,4 -4,-172 1479,-172 1479,4 -4,4"/>
<!-- Node1 -->
<g id="node1" class="node">
<title>Node1</title>
<polygon fill="#bfbfbf" stroke="#000000" points="0,-77 0,-96 113,-96 113,-77 0,-77"/>
<text text-anchor="middle" x="56.5" y="-84" font-family="Helvetica,sans-Serif" font-size="10.00" fill="#000000">zrtos_task__get_errno</text>
</g>
<!-- Node2 -->
<g id="node2" class="node">
<title>Node2</title>
<g id="a_node2"><a xlink:href="task__scheduler_8h.html#ac7d131d142e0c3285a06b925e1d39fe1" target="_top" xlink:title="zrtos_task_scheduler\l__page_task_in">
<polygon fill="#ffffff" stroke="#000000" points="149,-71.5 149,-101.5 259,-101.5 259,-71.5 149,-71.5"/>
<text text-anchor="start" x="157" y="-89.5" font-family="Helvetica,sans-Serif" font-size="10.00" fill="#000000">zrtos_task_scheduler</text>
<text text-anchor="middle" x="204" y="-78.5" font-family="Helvetica,sans-Serif" font-size="10.00" fill="#000000">__page_task_in</text>
</a>
</g>
</g>
<!-- Node1&#45;&gt;Node2 -->
<g id="edge1" class="edge">
<title>Node1&#45;&gt;Node2</title>
<path fill="none" stroke="#191970" d="M123.3727,-86.5C131.8649,-86.5 140.4798,-86.5 148.7618,-86.5"/>
<polygon fill="#191970" stroke="#191970" points="123.1055,-83.0001 113.1055,-86.5 123.1055,-90.0001 123.1055,-83.0001"/>
</g>
<!-- Node3 -->
<g id="node3" class="node">
<title>Node3</title>
<g id="a_node3"><a xlink:href="task__scheduler_8h.html#ae6c8c745afe69110cc85c56bff00689a" target="_top" xlink:title="_zrtos_task_scheduler\l__set_active_task">
<polygon fill="#ffffff" stroke="#000000" points="295,-71.5 295,-101.5 410,-101.5 410,-71.5 295,-71.5"/>
<text text-anchor="start" x="303" y="-89.5" font-family="Helvetica,sans-Serif" font-size="10.00" fill="#000000">_zrtos_task_scheduler</text>
<text text-anchor="middle" x="352.5" y="-78.5" font-family="Helvetica,sans-Serif" font-size="10.00" fill="#000000">__set_active_task</text>
</a>
</g>
</g>
<!-- Node2&#45;&gt;Node3 -->
<g id="edge2" class="edge">
<title>Node2&#45;&gt;Node3</title>
<path fill="none" stroke="#191970" d="M269.4421,-86.5C277.8464,-86.5 286.4033,-86.5 294.6741,-86.5"/>
<polygon fill="#191970" stroke="#191970" points="269.296,-83.0001 259.2959,-86.5 269.2959,-90.0001 269.296,-83.0001"/>
</g>
<!-- Node4 -->
<g id="node4" class="node">
<title>Node4</title>
<g id="a_node4"><a xlink:href="task__scheduler_8h.html#aa63cd785e44d31b9ae87297fad4de032" target="_top" xlink:title="_zrtos_task_scheduler\l__switch_task">
<polygon fill="#ffffff" stroke="#000000" points="446,-71.5 446,-101.5 561,-101.5 561,-71.5 446,-71.5"/>
<text text-anchor="start" x="454" y="-89.5" font-family="Helvetica,sans-Serif" font-size="10.00" fill="#000000">_zrtos_task_scheduler</text>
<text text-anchor="middle" x="503.5" y="-78.5" font-family="Helvetica,sans-Serif" font-size="10.00" fill="#000000">__switch_task</text>
</a>
</g>
</g>
<!-- Node3&#45;&gt;Node4 -->
<g id="edge3" class="edge">
<title>Node3&#45;&gt;Node4</title>
<path fill="none" stroke="#191970" d="M420.0519,-86.5C428.6779,-86.5 437.4438,-86.5 445.8925,-86.5"/>
<polygon fill="#191970" stroke="#191970" points="420.0174,-83.0001 410.0174,-86.5 420.0173,-90.0001 420.0174,-83.0001"/>
</g>
<!-- Node5 -->
<g id="node5" class="node">
<title>Node5</title>
<g id="a_node5"><a xlink:href="task__scheduler_8h.html#ab670d7e1ab8db82279714a56efc3c99a" target="_top" xlink:title="_zrtos_task_scheduler\l__on_tick">
<polygon fill="#ffffff" stroke="#000000" points="597,-71.5 597,-101.5 712,-101.5 712,-71.5 597,-71.5"/>
<text text-anchor="start" x="605" y="-89.5" font-family="Helvetica,sans-Serif" font-size="10.00" fill="#000000">_zrtos_task_scheduler</text>
<text text-anchor="middle" x="654.5" y="-78.5" font-family="Helvetica,sans-Serif" font-size="10.00" fill="#000000">__on_tick</text>
</a>
</g>
</g>
<!-- Node4&#45;&gt;Node5 -->
<g id="edge4" class="edge">
<title>Node4&#45;&gt;Node5</title>
<path fill="none" stroke="#191970" d="M571.0519,-86.5C579.6779,-86.5 588.4438,-86.5 596.8925,-86.5"/>
<polygon fill="#191970" stroke="#191970" points="571.0174,-83.0001 561.0174,-86.5 571.0173,-90.0001 571.0174,-83.0001"/>
</g>
<!-- Node6 -->
<g id="node6" class="node">
<title>Node6</title>
<g id="a_node6"><a xlink:href="task__scheduler_8h.html#a8f15f366e9ce3328539ee562fd4c1e73" target="_top" xlink:title="_zrtos_task_scheduler\l__on_tick_ex">
<polygon fill="#ffffff" stroke="#000000" points="748,-71.5 748,-101.5 863,-101.5 863,-71.5 748,-71.5"/>
<text text-anchor="start" x="756" y="-89.5" font-family="Helvetica,sans-Serif" font-size="10.00" fill="#000000">_zrtos_task_scheduler</text>
<text text-anchor="middle" x="805.5" y="-78.5" font-family="Helvetica,sans-Serif" font-size="10.00" fill="#000000">__on_tick_ex</text>
</a>
</g>
</g>
<!-- Node5&#45;&gt;Node6 -->
<g id="edge5" class="edge">
<title>Node5&#45;&gt;Node6</title>
<path fill="none" stroke="#191970" d="M722.0519,-86.5C730.6779,-86.5 739.4438,-86.5 747.8925,-86.5"/>
<polygon fill="#191970" stroke="#191970" points="722.0174,-83.0001 712.0174,-86.5 722.0173,-90.0001 722.0174,-83.0001"/>
</g>
<!-- Node7 -->
<g id="node7" class="node">
<title>Node7</title>
<g id="a_node7"><a xlink:href="task__pthread_8h.html#ace168cf0d23cd4b085a2da31b881c750" target="_top" xlink:title="zrtos_task_pthread\l__trampoline_cb">
<polygon fill="#ffffff" stroke="#000000" points="904,-137.5 904,-167.5 1004,-167.5 1004,-137.5 904,-137.5"/>
<text text-anchor="start" x="912" y="-155.5" font-family="Helvetica,sans-Serif" font-size="10.00" fill="#000000">zrtos_task_pthread</text>
<text text-anchor="middle" x="954" y="-144.5" font-family="Helvetica,sans-Serif" font-size="10.00" fill="#000000">__trampoline_cb</text>
</a>
</g>
</g>
<!-- Node6&#45;&gt;Node7 -->
<g id="edge6" class="edge">
<title>Node6&#45;&gt;Node7</title>
<path fill="none" stroke="#191970" d="M848.9728,-105.8212C871.6544,-115.902 898.9917,-128.0519 920.0896,-137.4287"/>
<polygon fill="#191970" stroke="#191970" points="850.1285,-102.5048 839.5689,-101.6417 847.2855,-108.9015 850.1285,-102.5048"/>
</g>
<!-- Node9 -->
<g id="node9" class="node">
<title>Node9</title>
<g id="a_node9"><a xlink:href="task__pthread_8h.html#a28a15bba47cab57cbc9f5dac9af99c8b" target="_top" xlink:title="pthread_join">
<polygon fill="#ffffff" stroke="#000000" points="919.5,-99 919.5,-118 988.5,-118 988.5,-99 919.5,-99"/>
<text text-anchor="middle" x="954" y="-106" font-family="Helvetica,sans-Serif" font-size="10.00" fill="#000000">pthread_join</text>
</a>
</g>
</g>
<!-- Node6&#45;&gt;Node9 -->
<g id="edge8" class="edge">
<title>Node6&#45;&gt;Node9</title>
<path fill="none" stroke="#191970" d="M873.6382,-96.5946C889.4383,-98.9353 905.61,-101.3311 919.2654,-103.3541"/>
<polygon fill="#191970" stroke="#191970" points="873.7442,-93.0721 863.3392,-95.0688 872.7183,-99.9966 873.7442,-93.0721"/>
</g>
<!-- Node10 -->
<g id="node10" class="node">
<title>Node10</title>
<g id="a_node10"><a xlink:href="task__scheduler_8h.html#ae070a60f724cc39d3a4118b57004e82f" target="_top" xlink:title="zrtos_task_scheduler\l__delay_ms">
<polygon fill="#ffffff" stroke="#000000" points="899,-49.5 899,-79.5 1009,-79.5 1009,-49.5 899,-49.5"/>
<text text-anchor="start" x="907" y="-67.5" font-family="Helvetica,sans-Serif" font-size="10.00" fill="#000000">zrtos_task_scheduler</text>
<text text-anchor="middle" x="954" y="-56.5" font-family="Helvetica,sans-Serif" font-size="10.00" fill="#000000">__delay_ms</text>
</a>
</g>
</g>
<!-- Node6&#45;&gt;Node10 -->
<g id="edge9" class="edge">
<title>Node6&#45;&gt;Node10</title>
<path fill="none" stroke="#191970" d="M873.3425,-76.4493C881.9327,-75.1766 890.6381,-73.887 898.9942,-72.649"/>
<polygon fill="#191970" stroke="#191970" points="872.7183,-73.0034 863.3392,-77.9312 873.7442,-79.9279 872.7183,-73.0034"/>
</g>
<!-- Node15 -->
<g id="node15" class="node">
<title>Node15</title>
<g id="a_node15"><a xlink:href="task__scheduler_8h.html#a1e85f61c031a36a33f08d891597103b2" target="_top" xlink:title="zrtos_task_scheduler\l__init">
<polygon fill="#ffffff" stroke="#000000" points="899,-.5 899,-30.5 1009,-30.5 1009,-.5 899,-.5"/>
<text text-anchor="start" x="907" y="-18.5" font-family="Helvetica,sans-Serif" font-size="10.00" fill="#000000">zrtos_task_scheduler</text>
<text text-anchor="middle" x="954" y="-7.5" font-family="Helvetica,sans-Serif" font-size="10.00" fill="#000000">__init</text>
</a>
</g>
</g>
<!-- Node6&#45;&gt;Node15 -->
<g id="edge14" class="edge">
<title>Node6&#45;&gt;Node15</title>
<path fill="none" stroke="#191970" d="M845.1012,-66.6842C861.6969,-58.4667 881.229,-48.9079 899,-40.5 905.9212,-37.2254 913.3675,-33.7855 920.4765,-30.5408"/>
<polygon fill="#191970" stroke="#191970" points="843.1056,-63.7673 835.7047,-71.3487 846.2181,-70.0372 843.1056,-63.7673"/>
</g>
<!-- Node8 -->
<g id="node8" class="node">
<title>Node8</title>
<g id="a_node8"><a xlink:href="task__pthread_8h.html#a091adcef6201bebbf231763328c15286" target="_top" xlink:title="pthread_create">
<polygon fill="#ffffff" stroke="#000000" points="1066,-143 1066,-162 1147,-162 1147,-143 1066,-143"/>
<text text-anchor="middle" x="1106.5" y="-150" font-family="Helvetica,sans-Serif" font-size="10.00" fill="#000000">pthread_create</text>
</a>
</g>
</g>
<!-- Node7&#45;&gt;Node8 -->
<g id="edge7" class="edge">
<title>Node7&#45;&gt;Node8</title>
<path fill="none" stroke="#191970" d="M1014.3664,-152.5C1031.6384,-152.5 1050.0482,-152.5 1065.8347,-152.5"/>
<polygon fill="#191970" stroke="#191970" points="1014.3569,-149.0001 1004.3568,-152.5 1014.3568,-156.0001 1014.3569,-149.0001"/>
</g>
<!-- Node11 -->
<g id="node11" class="node">
<title>Node11</title>
<g id="a_node11"><a xlink:href="task__mutex_8h.html#a123e93e1f2eac3befe64178fba0bbcbd" target="_top" xlink:title="zrtos_task_mutex__lock">
<polygon fill="#ffffff" stroke="#000000" points="1045,-55 1045,-74 1168,-74 1168,-55 1045,-55"/>
<text text-anchor="middle" x="1106.5" y="-62" font-family="Helvetica,sans-Serif" font-size="10.00" fill="#000000">zrtos_task_mutex__lock</text>
</a>
</g>
</g>
<!-- Node10&#45;&gt;Node11 -->
<g id="edge10" class="edge">
<title>Node10&#45;&gt;Node11</title>
<path fill="none" stroke="#191970" d="M1019.2673,-64.5C1027.7376,-64.5 1036.3925,-64.5 1044.8021,-64.5"/>
<polygon fill="#191970" stroke="#191970" points="1019.056,-61.0001 1009.056,-64.5 1019.056,-68.0001 1019.056,-61.0001"/>
</g>
<!-- Node12 -->
<g id="node12" class="node">
<title>Node12</title>
<g id="a_node12"><a xlink:href="spi__sync_8h.html#acad5edb178ed84b8a1b7b3a877dbcd61" target="_top" xlink:title="zrtos_vfs_module_spi\l_sync__on_write_helper">
<polygon fill="#ffffff" stroke="#000000" points="1204,-71.5 1204,-101.5 1326,-101.5 1326,-71.5 1204,-71.5"/>
<text text-anchor="start" x="1212" y="-89.5" font-family="Helvetica,sans-Serif" font-size="10.00" fill="#000000">zrtos_vfs_module_spi</text>
<text text-anchor="middle" x="1265" y="-78.5" font-family="Helvetica,sans-Serif" font-size="10.00" fill="#000000">_sync__on_write_helper</text>
</a>
</g>
</g>
<!-- Node11&#45;&gt;Node12 -->
<g id="edge11" class="edge">
<title>Node11&#45;&gt;Node12</title>
<path fill="none" stroke="#191970" d="M1178.2386,-74.4574C1186.8282,-75.6497 1195.5367,-76.8584 1203.9553,-78.0269"/>
<polygon fill="#191970" stroke="#191970" points="1178.6204,-70.9769 1168.2341,-73.0688 1177.6579,-77.9105 1178.6204,-70.9769"/>
</g>
<!-- Node14 -->
<g id="node14" class="node">
<title>Node14</title>
<g id="a_node14"><a xlink:href="task__pthread_8h.html#a12809c44718c21544ceb280dc1a53573" target="_top" xlink:title="pthread_mutex_lock">
<polygon fill="#ffffff" stroke="#000000" points="1213,-33 1213,-52 1317,-52 1317,-33 1213,-33"/>
<text text-anchor="middle" x="1265" y="-40" font-family="Helvetica,sans-Serif" font-size="10.00" fill="#000000">pthread_mutex_lock</text>
</a>
</g>
</g>
<!-- Node11&#45;&gt;Node14 -->
<g id="edge13" class="edge">
<title>Node11&#45;&gt;Node14</title>
<path fill="none" stroke="#191970" d="M1178.3838,-54.5224C1190.0252,-52.9066 1201.8805,-51.2611 1212.9331,-49.7269"/>
<polygon fill="#191970" stroke="#191970" points="1177.6579,-51.0895 1168.2341,-55.9312 1178.6204,-58.0231 1177.6579,-51.0895"/>
</g>
<!-- Node13 -->
<g id="node13" class="node">
<title>Node13</title>
<g id="a_node13"><a xlink:href="sync_8h.html#affc4ed32d5b66e97fb25c63faaf49eed" target="_top" xlink:title="zrtos_vfs_module_avr\l_spi_sync__on_write">
<polygon fill="#ffffff" stroke="#000000" points="1362,-71.5 1362,-101.5 1475,-101.5 1475,-71.5 1362,-71.5"/>
<text text-anchor="start" x="1370" y="-89.5" font-family="Helvetica,sans-Serif" font-size="10.00" fill="#000000">zrtos_vfs_module_avr</text>
<text text-anchor="middle" x="1418.5" y="-78.5" font-family="Helvetica,sans-Serif" font-size="10.00" fill="#000000">_spi_sync__on_write</text>
</a>
</g>
</g>
<!-- Node12&#45;&gt;Node13 -->
<g id="edge12" class="edge">
<title>Node12&#45;&gt;Node13</title>
<path fill="none" stroke="#191970" d="M1336.3578,-86.5C1344.8191,-86.5 1353.3682,-86.5 1361.5911,-86.5"/>
<polygon fill="#191970" stroke="#191970" points="1336.1084,-83.0001 1326.1083,-86.5 1336.1083,-90.0001 1336.1084,-83.0001"/>
</g>
</g>
</svg>
