<?xml version="1.0" encoding="UTF-8" standalone="no"?>
<!DOCTYPE svg PUBLIC "-//W3C//DTD SVG 1.1//EN"
 "http://www.w3.org/Graphics/SVG/1.1/DTD/svg11.dtd">
<!-- Generated by graphviz version 2.40.1 (20161225.0304)
 -->
<!-- Title: zrtos_task_scheduler__remove_task Pages: 1 -->
<svg width="421pt" height="72pt"
 viewBox="0.00 0.00 421.00 71.50" xmlns="http://www.w3.org/2000/svg" xmlns:xlink="http://www.w3.org/1999/xlink">
<g id="graph0" class="graph" transform="scale(1 1) rotate(0) translate(4 67.5)">
<title>zrtos_task_scheduler__remove_task</title>
<polygon fill="#ffffff" stroke="transparent" points="-4,4 -4,-67.5 417,-67.5 417,4 -4,4"/>
<!-- Node252 -->
<g id="node1" class="node">
<title>Node252</title>
<polygon fill="#bfbfbf" stroke="#000000" points="0,-14 0,-44 110,-44 110,-14 0,-14"/>
<text text-anchor="start" x="8" y="-32" font-family="Helvetica,sans-Serif" font-size="10.00" fill="#000000">zrtos_task_scheduler</text>
<text text-anchor="middle" x="55" y="-21" font-family="Helvetica,sans-Serif" font-size="10.00" fill="#000000">__remove_task</text>
</g>
<!-- Node253 -->
<g id="node2" class="node">
<title>Node253</title>
<g id="a_node2"><a xlink:href="clist_8h.html#a383b927f3eeb7f78f5ae9929138a635f" target="_top" xlink:title="zrtos_clist__delete">
<polygon fill="#ffffff" stroke="#000000" points="156.5,-38.5 156.5,-57.5 254.5,-57.5 254.5,-38.5 156.5,-38.5"/>
<text text-anchor="middle" x="205.5" y="-45.5" font-family="Helvetica,sans-Serif" font-size="10.00" fill="#000000">zrtos_clist__delete</text>
</a>
</g>
</g>
<!-- Node252&#45;&gt;Node253 -->
<g id="edge1" class="edge">
<title>Node252&#45;&gt;Node253</title>
<path fill="none" stroke="#191970" d="M110.1861,-35.967C121.8654,-37.4415 134.2403,-39.0038 146.0691,-40.4971"/>
<polygon fill="#191970" stroke="#191970" points="145.9326,-44.0076 156.2923,-41.7877 146.8094,-37.0627 145.9326,-44.0076"/>
</g>
<!-- Node255 -->
<g id="node4" class="node">
<title>Node255</title>
<g id="a_node4"><a xlink:href="task_8h.html#a34aca34833e1ab06a5e0d26fda080286" target="_top" xlink:title="zrtos_task__set_parent">
<polygon fill="#ffffff" stroke="#000000" points="146,-.5 146,-19.5 265,-19.5 265,-.5 146,-.5"/>
<text text-anchor="middle" x="205.5" y="-7.5" font-family="Helvetica,sans-Serif" font-size="10.00" fill="#000000">zrtos_task__set_parent</text>
</a>
</g>
</g>
<!-- Node252&#45;&gt;Node255 -->
<g id="edge3" class="edge">
<title>Node252&#45;&gt;Node255</title>
<path fill="none" stroke="#191970" d="M110.1861,-22.033C118.5071,-20.9825 127.1812,-19.8874 135.7593,-18.8045"/>
<polygon fill="#191970" stroke="#191970" points="136.2755,-22.2672 145.7583,-17.5421 135.3987,-15.3223 136.2755,-22.2672"/>
</g>
<!-- Node254 -->
<g id="node3" class="node">
<title>Node254</title>
<g id="a_node3"><a xlink:href="clist_8h.html#adc7d3acc850be7934c1c38390033a93d" target="_top" xlink:title="zrtos_clist_node__get\l_previous_node">
<polygon fill="#ffffff" stroke="#000000" points="301,-33 301,-63 413,-63 413,-33 301,-33"/>
<text text-anchor="start" x="309" y="-51" font-family="Helvetica,sans-Serif" font-size="10.00" fill="#000000">zrtos_clist_node__get</text>
<text text-anchor="middle" x="357" y="-40" font-family="Helvetica,sans-Serif" font-size="10.00" fill="#000000">_previous_node</text>
</a>
</g>
</g>
<!-- Node253&#45;&gt;Node254 -->
<g id="edge2" class="edge">
<title>Node253&#45;&gt;Node254</title>
<path fill="none" stroke="#191970" d="M254.6877,-48C266.2303,-48 278.715,-48 290.8643,-48"/>
<polygon fill="#191970" stroke="#191970" points="290.9629,-51.5001 300.9628,-48 290.9628,-44.5001 290.9629,-51.5001"/>
</g>
</g>
</svg>
