<?xml version="1.0" encoding="UTF-8" standalone="no"?>
<!DOCTYPE svg PUBLIC "-//W3C//DTD SVG 1.1//EN"
 "http://www.w3.org/Graphics/SVG/1.1/DTD/svg11.dtd">
<!-- Generated by graphviz version 2.40.1 (20161225.0304)
 -->
<!-- Title: zrtos_task_scheduler__page_task_in Pages: 1 -->
<svg width="286pt" height="104pt"
 viewBox="0.00 0.00 286.00 104.00" xmlns="http://www.w3.org/2000/svg" xmlns:xlink="http://www.w3.org/1999/xlink">
<g id="graph0" class="graph" transform="scale(1 1) rotate(0) translate(4 100)">
<title>zrtos_task_scheduler__page_task_in</title>
<polygon fill="#ffffff" stroke="transparent" points="-4,4 -4,-100 282,-100 282,4 -4,4"/>
<!-- Node215 -->
<g id="node1" class="node">
<title>Node215</title>
<polygon fill="#bfbfbf" stroke="#000000" points="0,-33 0,-63 110,-63 110,-33 0,-33"/>
<text text-anchor="start" x="8" y="-51" font-family="Helvetica,sans-Serif" font-size="10.00" fill="#000000">zrtos_task_scheduler</text>
<text text-anchor="middle" x="55" y="-40" font-family="Helvetica,sans-Serif" font-size="10.00" fill="#000000">__page_task_in</text>
</g>
<!-- Node216 -->
<g id="node2" class="node">
<title>Node216</title>
<g id="a_node2"><a xlink:href="clist_8h.html#aa49bd33d74422329134a7793b1284e80" target="_top" xlink:title="zrtos_clist__set_root">
<polygon fill="#ffffff" stroke="#000000" points="158.5,-76.5 158.5,-95.5 265.5,-95.5 265.5,-76.5 158.5,-76.5"/>
<text text-anchor="middle" x="212" y="-83.5" font-family="Helvetica,sans-Serif" font-size="10.00" fill="#000000">zrtos_clist__set_root</text>
</a>
</g>
</g>
<!-- Node215&#45;&gt;Node216 -->
<g id="edge1" class="edge">
<title>Node215&#45;&gt;Node216</title>
<path fill="none" stroke="#191970" d="M110.3523,-61.3974C127.3138,-65.5027 145.8587,-69.9913 162.4104,-73.9974"/>
<polygon fill="#191970" stroke="#191970" points="161.8839,-77.471 172.4266,-76.4217 163.5307,-70.6674 161.8839,-77.471"/>
</g>
<!-- Node217 -->
<g id="node3" class="node">
<title>Node217</title>
<g id="a_node3"><a xlink:href="task_8h.html#a3d68cbcbba4cc8f46e3649dade9ad3d6" target="_top" xlink:title="zrtos_task__get_stack_ptr">
<polygon fill="#ffffff" stroke="#000000" points="146,-38.5 146,-57.5 278,-57.5 278,-38.5 146,-38.5"/>
<text text-anchor="middle" x="212" y="-45.5" font-family="Helvetica,sans-Serif" font-size="10.00" fill="#000000">zrtos_task__get_stack_ptr</text>
</a>
</g>
</g>
<!-- Node215&#45;&gt;Node217 -->
<g id="edge2" class="edge">
<title>Node215&#45;&gt;Node217</title>
<path fill="none" stroke="#191970" d="M110.3523,-48C118.6013,-48 127.2249,-48 135.8115,-48"/>
<polygon fill="#191970" stroke="#191970" points="135.8498,-51.5001 145.8498,-48 135.8498,-44.5001 135.8498,-51.5001"/>
</g>
<!-- Node218 -->
<g id="node4" class="node">
<title>Node218</title>
<g id="a_node4"><a xlink:href="task_8h.html#a6d97ac60e5777143b600124289cc9de0" target="_top" xlink:title="zrtos_task__get_errno">
<polygon fill="#ffffff" stroke="#000000" points="155.5,-.5 155.5,-19.5 268.5,-19.5 268.5,-.5 155.5,-.5"/>
<text text-anchor="middle" x="212" y="-7.5" font-family="Helvetica,sans-Serif" font-size="10.00" fill="#000000">zrtos_task__get_errno</text>
</a>
</g>
</g>
<!-- Node215&#45;&gt;Node218 -->
<g id="edge3" class="edge">
<title>Node215&#45;&gt;Node218</title>
<path fill="none" stroke="#191970" d="M110.3523,-34.6026C127.3138,-30.4973 145.8587,-26.0087 162.4104,-22.0026"/>
<polygon fill="#191970" stroke="#191970" points="163.5307,-25.3326 172.4266,-19.5783 161.8839,-18.529 163.5307,-25.3326"/>
</g>
</g>
</svg>
