<?xml version="1.0" encoding="UTF-8" standalone="no"?>
<!DOCTYPE svg PUBLIC "-//W3C//DTD SVG 1.1//EN"
 "http://www.w3.org/Graphics/SVG/1.1/DTD/svg11.dtd">
<!-- Generated by graphviz version 10.0.1 (20240210.2158)
 -->
<!-- Title: task_scheduler.h Pages: 1 -->
<svg width="1045pt" height="264pt"
 viewBox="0.00 0.00 1045.00 264.00" xmlns="http://www.w3.org/2000/svg" xmlns:xlink="http://www.w3.org/1999/xlink">
<g id="graph0" class="graph" transform="scale(1 1) rotate(0) translate(4 260)">
<title>task_scheduler.h</title>
<!-- Node1 -->
<g id="Node000001" class="node">
<title>Node1</title>
<g id="a_Node000001"><a xlink:title=" ">
<polygon fill="#999999" stroke="#666666" points="361,-256 270.75,-256 270.75,-236 361,-236 361,-256"/>
<text text-anchor="middle" x="315.88" y="-242.5" font-family="Helvetica,sans-Serif" font-size="10.00">task_scheduler.h</text>
</a>
</g>
</g>
<!-- Node2 -->
<g id="Node000002" class="node">
<title>Node2</title>
<g id="a_Node000002"><a xlink:href="zrtos_8h.html" target="_top" xlink:title=" ">
<polygon fill="white" stroke="#666666" points="588.25,-200 517.5,-200 517.5,-180 588.25,-180 588.25,-200"/>
<text text-anchor="middle" x="552.88" y="-186.5" font-family="Helvetica,sans-Serif" font-size="10.00">zrtos/zrtos.h</text>
</a>
</g>
</g>
<!-- Node1&#45;&gt;Node2 -->
<g id="edge1_Node000001_Node000002" class="edge">
<title>Node1&#45;&gt;Node2</title>
<g id="a_edge1_Node000001_Node000002"><a xlink:title=" ">
<path fill="none" stroke="#63b8ff" d="M357.43,-235.53C398.98,-226.06 462.78,-211.53 506.09,-201.66"/>
<polygon fill="#63b8ff" stroke="#63b8ff" points="506.73,-205.1 515.71,-199.47 505.18,-198.28 506.73,-205.1"/>
</a>
</g>
</g>
<!-- Node5 -->
<g id="Node000005" class="node">
<title>Node5</title>
<g id="a_Node000005"><a xlink:href="types_8h.html" target="_top" xlink:title=" ">
<polygon fill="white" stroke="#666666" points="285.38,-82 212.38,-82 212.38,-62 285.38,-62 285.38,-82"/>
<text text-anchor="middle" x="248.88" y="-68.5" font-family="Helvetica,sans-Serif" font-size="10.00">zrtos/types.h</text>
</a>
</g>
</g>
<!-- Node1&#45;&gt;Node5 -->
<g id="edge21_Node000001_Node000005" class="edge">
<title>Node1&#45;&gt;Node5</title>
<g id="a_edge21_Node000001_Node000005"><a xlink:title=" ">
<path fill="none" stroke="#63b8ff" d="M299.15,-235.6C273.94,-220.28 227.37,-187.25 210.88,-144 203.53,-124.74 217.24,-104.12 230.2,-90.09"/>
<polygon fill="#63b8ff" stroke="#63b8ff" points="232.33,-92.91 236.9,-83.35 227.37,-87.97 232.33,-92.91"/>
</a>
</g>
</g>
<!-- Node21 -->
<g id="Node000021" class="node">
<title>Node21</title>
<g id="a_Node000021"><a xlink:href="clist_8h.html" target="_top" xlink:title=" ">
<polygon fill="white" stroke="#666666" points="287.38,-144 220.38,-144 220.38,-124 287.38,-124 287.38,-144"/>
<text text-anchor="middle" x="253.88" y="-130.5" font-family="Helvetica,sans-Serif" font-size="10.00">zrtos/clist.h</text>
</a>
</g>
</g>
<!-- Node1&#45;&gt;Node21 -->
<g id="edge22_Node000001_Node000021" class="edge">
<title>Node1&#45;&gt;Node21</title>
<g id="a_edge22_Node000001_Node000021"><a xlink:title=" ">
<path fill="none" stroke="#63b8ff" d="M304.42,-235.8C294.71,-227.42 281.09,-214.22 272.88,-200 264.95,-186.27 260.1,-168.96 257.29,-155.66"/>
<polygon fill="#63b8ff" stroke="#63b8ff" points="260.73,-155.05 255.46,-145.87 253.85,-156.34 260.73,-155.05"/>
</a>
</g>
</g>
<!-- Node22 -->
<g id="Node000022" class="node">
<title>Node22</title>
<g id="a_Node000022"><a xlink:href="error_8h.html" target="_top" xlink:title=" ">
<polygon fill="white" stroke="#666666" points="418.12,-82 349.62,-82 349.62,-62 418.12,-62 418.12,-82"/>
<text text-anchor="middle" x="383.88" y="-68.5" font-family="Helvetica,sans-Serif" font-size="10.00">zrtos/error.h</text>
</a>
</g>
</g>
<!-- Node1&#45;&gt;Node22 -->
<g id="edge24_Node000001_Node000022" class="edge">
<title>Node1&#45;&gt;Node22</title>
<g id="a_edge24_Node000001_Node000022"><a xlink:title=" ">
<path fill="none" stroke="#63b8ff" d="M332.5,-235.52C357.64,-220.09 404.36,-186.93 422.88,-144 431.08,-124.96 416.91,-104.31 403.41,-90.21"/>
<polygon fill="#63b8ff" stroke="#63b8ff" points="406,-87.85 396.38,-83.41 401.13,-92.88 406,-87.85"/>
</a>
</g>
</g>
<!-- Node23 -->
<g id="Node000023" class="node">
<title>Node23</title>
<g id="a_Node000023"><a xlink:href="task_8h.html" target="_top" xlink:title=" ">
<polygon fill="white" stroke="#666666" points="349.75,-200 282,-200 282,-180 349.75,-180 349.75,-200"/>
<text text-anchor="middle" x="315.88" y="-186.5" font-family="Helvetica,sans-Serif" font-size="10.00">zrtos/task.h</text>
</a>
</g>
</g>
<!-- Node1&#45;&gt;Node23 -->
<g id="edge28_Node000001_Node000023" class="edge">
<title>Node1&#45;&gt;Node23</title>
<g id="a_edge28_Node000001_Node000023"><a xlink:title=" ">
<path fill="none" stroke="#63b8ff" d="M315.88,-235.59C315.88,-229.01 315.88,-219.96 315.88,-211.73"/>
<polygon fill="#63b8ff" stroke="#63b8ff" points="319.38,-211.81 315.88,-201.81 312.38,-211.81 319.38,-211.81"/>
</a>
</g>
</g>
<!-- Node3 -->
<g id="Node000003" class="node">
<title>Node3</title>
<g id="a_Node000003"><a xlink:href="debug_8h.html" target="_top" xlink:title=" ">
<polygon fill="white" stroke="#666666" points="545.5,-144 470.25,-144 470.25,-124 545.5,-124 545.5,-144"/>
<text text-anchor="middle" x="507.88" y="-130.5" font-family="Helvetica,sans-Serif" font-size="10.00">zrtos/debug.h</text>
</a>
</g>
</g>
<!-- Node2&#45;&gt;Node3 -->
<g id="edge2_Node000002_Node000003" class="edge">
<title>Node2&#45;&gt;Node3</title>
<g id="a_edge2_Node000002_Node000003"><a xlink:title=" ">
<path fill="none" stroke="#63b8ff" d="M545.04,-179.59C538.91,-172.24 530.2,-161.8 522.76,-152.87"/>
<polygon fill="#63b8ff" stroke="#63b8ff" points="525.68,-150.9 516.59,-145.46 520.31,-155.38 525.68,-150.9"/>
</a>
</g>
</g>
<!-- Node4 -->
<g id="Node000004" class="node">
<title>Node4</title>
<g id="a_Node000004"><a xlink:href="arch_8h.html" target="_top" xlink:title=" ">
<polygon fill="white" stroke="#666666" points="631.75,-144 564,-144 564,-124 631.75,-124 631.75,-144"/>
<text text-anchor="middle" x="597.88" y="-130.5" font-family="Helvetica,sans-Serif" font-size="10.00">zrtos/arch.h</text>
</a>
</g>
</g>
<!-- Node2&#45;&gt;Node4 -->
<g id="edge3_Node000002_Node000004" class="edge">
<title>Node2&#45;&gt;Node4</title>
<g id="a_edge3_Node000002_Node000004"><a xlink:title=" ">
<path fill="none" stroke="#63b8ff" d="M560.71,-179.59C566.84,-172.24 575.55,-161.8 582.99,-152.87"/>
<polygon fill="#63b8ff" stroke="#63b8ff" points="585.44,-155.38 589.16,-145.46 580.07,-150.9 585.44,-155.38"/>
</a>
</g>
</g>
<!-- Node16 -->
<g id="Node000016" class="node">
<title>Node16</title>
<g id="a_Node000016"><a xlink:href="board_8h.html" target="_top" xlink:title=" ">
<polygon fill="white" stroke="#666666" points="874.38,-144 801.38,-144 801.38,-124 874.38,-124 874.38,-144"/>
<text text-anchor="middle" x="837.88" y="-130.5" font-family="Helvetica,sans-Serif" font-size="10.00">zrtos/board.h</text>
</a>
</g>
</g>
<!-- Node2&#45;&gt;Node16 -->
<g id="edge16_Node000002_Node000016" class="edge">
<title>Node2&#45;&gt;Node16</title>
<g id="a_edge16_Node000002_Node000016"><a xlink:title=" ">
<path fill="none" stroke="#63b8ff" d="M588.68,-182.22C639.59,-172.57 733.02,-154.87 789.88,-144.09"/>
<polygon fill="#63b8ff" stroke="#63b8ff" points="790.43,-147.55 799.6,-142.25 789.12,-140.67 790.43,-147.55"/>
</a>
</g>
</g>
<!-- Node4&#45;&gt;Node5 -->
<g id="edge4_Node000004_Node000005" class="edge">
<title>Node4&#45;&gt;Node5</title>
<g id="a_edge4_Node000004_Node000005"><a xlink:title=" ">
<path fill="none" stroke="#63b8ff" d="M563.63,-125.7C560.67,-125.11 557.72,-124.54 554.88,-124 530,-119.33 376.62,-94.01 296.91,-80.89"/>
<polygon fill="#63b8ff" stroke="#63b8ff" points="297.63,-77.47 287.2,-79.3 296.49,-84.37 297.63,-77.47"/>
</a>
</g>
</g>
<!-- Node12 -->
<g id="Node000012" class="node">
<title>Node12</title>
<g id="a_Node000012"><a xlink:href="assert_8h.html" target="_top" xlink:title=" ">
<polygon fill="white" stroke="#666666" points="511.88,-20 435.88,-20 435.88,0 511.88,0 511.88,-20"/>
<text text-anchor="middle" x="473.88" y="-6.5" font-family="Helvetica,sans-Serif" font-size="10.00">zrtos/assert.h</text>
</a>
</g>
</g>
<!-- Node4&#45;&gt;Node12 -->
<g id="edge11_Node000004_Node000012" class="edge">
<title>Node4&#45;&gt;Node12</title>
<g id="a_edge11_Node000004_Node000012"><a xlink:title=" ">
<path fill="none" stroke="#63b8ff" d="M567.95,-123.52C540.64,-114.29 503.02,-99.94 492.88,-88 479.6,-72.36 475.34,-48.84 474.1,-31.91"/>
<polygon fill="#63b8ff" stroke="#63b8ff" points="477.6,-31.85 473.7,-22 470.61,-32.13 477.6,-31.85"/>
</a>
</g>
</g>
<!-- Node13 -->
<g id="Node000013" class="node">
<title>Node13</title>
<g id="a_Node000013"><a xlink:href="atmega328p_8h.html" target="_top" xlink:title=" ">
<polygon fill="white" stroke="#666666" points="625.88,-82 501.88,-82 501.88,-62 625.88,-62 625.88,-82"/>
<text text-anchor="middle" x="563.88" y="-68.5" font-family="Helvetica,sans-Serif" font-size="10.00">zrtos/arch/atmega328p.h</text>
</a>
</g>
</g>
<!-- Node4&#45;&gt;Node13 -->
<g id="edge12_Node000004_Node000013" class="edge">
<title>Node4&#45;&gt;Node13</title>
<g id="a_edge12_Node000004_Node000013"><a xlink:title=" ">
<path fill="none" stroke="#63b8ff" d="M592.56,-123.62C587.79,-115.21 580.65,-102.6 574.68,-92.07"/>
<polygon fill="#63b8ff" stroke="#63b8ff" points="577.76,-90.4 569.79,-83.43 571.67,-93.86 577.76,-90.4"/>
</a>
</g>
</g>
<!-- Node15 -->
<g id="Node000015" class="node">
<title>Node15</title>
<g id="a_Node000015"><a xlink:href="atmega2560_8h.html" target="_top" xlink:title=" ">
<polygon fill="white" stroke="#666666" points="767.88,-82 643.88,-82 643.88,-62 767.88,-62 767.88,-82"/>
<text text-anchor="middle" x="705.88" y="-68.5" font-family="Helvetica,sans-Serif" font-size="10.00">zrtos/arch/atmega2560.h</text>
</a>
</g>
</g>
<!-- Node4&#45;&gt;Node15 -->
<g id="edge14_Node000004_Node000015" class="edge">
<title>Node4&#45;&gt;Node15</title>
<g id="a_edge14_Node000004_Node000015"><a xlink:title=" ">
<path fill="none" stroke="#63b8ff" d="M614.75,-123.62C632.03,-114.03 659.13,-98.97 679.3,-87.77"/>
<polygon fill="#63b8ff" stroke="#63b8ff" points="680.75,-90.96 687.8,-83.04 677.35,-84.84 680.75,-90.96"/>
</a>
</g>
</g>
<!-- Node6 -->
<g id="Node000006" class="node">
<title>Node6</title>
<g id="a_Node000006"><a xlink:title=" ">
<polygon fill="#e0e0e0" stroke="#999999" points="351.75,-20 296,-20 296,0 351.75,0 351.75,-20"/>
<text text-anchor="middle" x="323.88" y="-6.5" font-family="Helvetica,sans-Serif" font-size="10.00">stdbool.h</text>
</a>
</g>
</g>
<!-- Node5&#45;&gt;Node6 -->
<g id="edge5_Node000005_Node000006" class="edge">
<title>Node5&#45;&gt;Node6</title>
<g id="a_edge5_Node000005_Node000006"><a xlink:title=" ">
<path fill="none" stroke="#63b8ff" d="M260.59,-61.62C272.11,-52.41 289.91,-38.17 303.7,-27.14"/>
<polygon fill="#63b8ff" stroke="#63b8ff" points="305.68,-30.04 311.3,-21.06 301.31,-24.57 305.68,-30.04"/>
</a>
</g>
</g>
<!-- Node7 -->
<g id="Node000007" class="node">
<title>Node7</title>
<g id="a_Node000007"><a xlink:title=" ">
<polygon fill="#e0e0e0" stroke="#999999" points="136.12,-20 85.62,-20 85.62,0 136.12,0 136.12,-20"/>
<text text-anchor="middle" x="110.88" y="-6.5" font-family="Helvetica,sans-Serif" font-size="10.00">stddef.h</text>
</a>
</g>
</g>
<!-- Node5&#45;&gt;Node7 -->
<g id="edge6_Node000005_Node000007" class="edge">
<title>Node5&#45;&gt;Node7</title>
<g id="a_edge6_Node000005_Node000007"><a xlink:title=" ">
<path fill="none" stroke="#63b8ff" d="M227.31,-61.62C204.63,-51.76 168.68,-36.13 142.73,-24.85"/>
<polygon fill="#63b8ff" stroke="#63b8ff" points="144.24,-21.69 133.67,-20.91 141.45,-28.11 144.24,-21.69"/>
</a>
</g>
</g>
<!-- Node8 -->
<g id="Node000008" class="node">
<title>Node8</title>
<g id="a_Node000008"><a xlink:title=" ">
<polygon fill="#e0e0e0" stroke="#999999" points="202,-20 153.75,-20 153.75,0 202,0 202,-20"/>
<text text-anchor="middle" x="177.88" y="-6.5" font-family="Helvetica,sans-Serif" font-size="10.00">stdint.h</text>
</a>
</g>
</g>
<!-- Node5&#45;&gt;Node8 -->
<g id="edge7_Node000005_Node000008" class="edge">
<title>Node5&#45;&gt;Node8</title>
<g id="a_edge7_Node000005_Node000008"><a xlink:title=" ">
<path fill="none" stroke="#63b8ff" d="M237.78,-61.62C226.99,-52.5 210.35,-38.45 197.35,-27.46"/>
<polygon fill="#63b8ff" stroke="#63b8ff" points="199.71,-24.87 189.81,-21.09 195.19,-30.22 199.71,-24.87"/>
</a>
</g>
</g>
<!-- Node9 -->
<g id="Node000009" class="node">
<title>Node9</title>
<g id="a_Node000009"><a xlink:title=" ">
<polygon fill="#e0e0e0" stroke="#999999" points="417.62,-20 370.12,-20 370.12,0 417.62,0 417.62,-20"/>
<text text-anchor="middle" x="393.88" y="-6.5" font-family="Helvetica,sans-Serif" font-size="10.00">limits.h</text>
</a>
</g>
</g>
<!-- Node5&#45;&gt;Node9 -->
<g id="edge8_Node000005_Node000009" class="edge">
<title>Node5&#45;&gt;Node9</title>
<g id="a_edge8_Node000005_Node000009"><a xlink:title=" ">
<path fill="none" stroke="#63b8ff" d="M271.53,-61.62C295.47,-51.72 333.47,-35.99 360.77,-24.7"/>
<polygon fill="#63b8ff" stroke="#63b8ff" points="362.08,-27.95 369.98,-20.89 359.4,-21.48 362.08,-27.95"/>
</a>
</g>
</g>
<!-- Node10 -->
<g id="Node000010" class="node">
<title>Node10</title>
<g id="a_Node000010"><a xlink:title=" ">
<polygon fill="#e0e0e0" stroke="#999999" points="277.88,-20 219.88,-20 219.88,0 277.88,0 277.88,-20"/>
<text text-anchor="middle" x="248.88" y="-6.5" font-family="Helvetica,sans-Serif" font-size="10.00">stdalign.h</text>
</a>
</g>
</g>
<!-- Node5&#45;&gt;Node10 -->
<g id="edge9_Node000005_Node000010" class="edge">
<title>Node5&#45;&gt;Node10</title>
<g id="a_edge9_Node000005_Node000010"><a xlink:title=" ">
<path fill="none" stroke="#63b8ff" d="M248.88,-61.62C248.88,-53.56 248.88,-41.65 248.88,-31.41"/>
<polygon fill="#63b8ff" stroke="#63b8ff" points="252.38,-31.63 248.88,-21.63 245.38,-31.63 252.38,-31.63"/>
</a>
</g>
</g>
<!-- Node11 -->
<g id="Node000011" class="node">
<title>Node11</title>
<g id="a_Node000011"><a xlink:href="cast_8h.html" target="_top" xlink:title=" ">
<polygon fill="white" stroke="#666666" points="67.75,-20 0,-20 0,0 67.75,0 67.75,-20"/>
<text text-anchor="middle" x="33.88" y="-6.5" font-family="Helvetica,sans-Serif" font-size="10.00">zrtos/cast.h</text>
</a>
</g>
</g>
<!-- Node5&#45;&gt;Node11 -->
<g id="edge10_Node000005_Node000011" class="edge">
<title>Node5&#45;&gt;Node11</title>
<g id="a_edge10_Node000005_Node000011"><a xlink:title=" ">
<path fill="none" stroke="#63b8ff" d="M215.28,-61.62C178.47,-51.35 119.25,-34.82 78.54,-23.47"/>
<polygon fill="#63b8ff" stroke="#63b8ff" points="79.62,-20.13 69.04,-20.81 77.74,-26.87 79.62,-20.13"/>
</a>
</g>
</g>
<!-- Node14 -->
<g id="Node000014" class="node">
<title>Node14</title>
<g id="a_Node000014"><a xlink:title=" ">
<polygon fill="#e0e0e0" stroke="#999999" points="686.75,-20 595,-20 595,0 686.75,0 686.75,-20"/>
<text text-anchor="middle" x="640.88" y="-6.5" font-family="Helvetica,sans-Serif" font-size="10.00">util/delay_basic.h</text>
</a>
</g>
</g>
<!-- Node13&#45;&gt;Node14 -->
<g id="edge13_Node000013_Node000014" class="edge">
<title>Node13&#45;&gt;Node14</title>
<g id="a_edge13_Node000013_Node000014"><a xlink:title=" ">
<path fill="none" stroke="#63b8ff" d="M575.91,-61.62C587.66,-52.47 605.79,-38.34 619.92,-27.33"/>
<polygon fill="#63b8ff" stroke="#63b8ff" points="622,-30.15 627.73,-21.24 617.7,-24.63 622,-30.15"/>
</a>
</g>
</g>
<!-- Node15&#45;&gt;Node14 -->
<g id="edge15_Node000015_Node000014" class="edge">
<title>Node15&#45;&gt;Node14</title>
<g id="a_edge15_Node000015_Node000014"><a xlink:title=" ">
<path fill="none" stroke="#63b8ff" d="M695.72,-61.62C685.93,-52.59 670.9,-38.72 659.05,-27.78"/>
<polygon fill="#63b8ff" stroke="#63b8ff" points="661.58,-25.35 651.86,-21.14 656.83,-30.49 661.58,-25.35"/>
</a>
</g>
</g>
<!-- Node17 -->
<g id="Node000017" class="node">
<title>Node17</title>
<g id="a_Node000017"><a xlink:href="ansi__c_8h.html" target="_top" xlink:title=" ">
<polygon fill="white" stroke="#666666" points="890.12,-82 785.62,-82 785.62,-62 890.12,-62 890.12,-82"/>
<text text-anchor="middle" x="837.88" y="-68.5" font-family="Helvetica,sans-Serif" font-size="10.00">zrtos/board/ansi_c.h</text>
</a>
</g>
</g>
<!-- Node16&#45;&gt;Node17 -->
<g id="edge17_Node000016_Node000017" class="edge">
<title>Node16&#45;&gt;Node17</title>
<g id="a_edge17_Node000016_Node000017"><a xlink:title=" ">
<path fill="none" stroke="#63b8ff" d="M837.88,-123.62C837.88,-115.56 837.88,-103.65 837.88,-93.41"/>
<polygon fill="#63b8ff" stroke="#63b8ff" points="841.38,-93.63 837.88,-83.63 834.38,-93.63 841.38,-93.63"/>
</a>
</g>
</g>
<!-- Node18 -->
<g id="Node000018" class="node">
<title>Node18</title>
<g id="a_Node000018"><a xlink:href="avr__software__emulator_8h.html" target="_top" xlink:title=" ">
<polygon fill="white" stroke="#666666" points="1029.38,-88 908.38,-88 908.38,-56 1029.38,-56 1029.38,-88"/>
<text text-anchor="start" x="916.38" y="-74.5" font-family="Helvetica,sans-Serif" font-size="10.00">zrtos/board/avr_software</text>
<text text-anchor="middle" x="968.88" y="-62.5" font-family="Helvetica,sans-Serif" font-size="10.00">_emulator.h</text>
</a>
</g>
</g>
<!-- Node16&#45;&gt;Node18 -->
<g id="edge18_Node000016_Node000018" class="edge">
<title>Node16&#45;&gt;Node18</title>
<g id="a_edge18_Node000016_Node000018"><a xlink:title=" ">
<path fill="none" stroke="#63b8ff" d="M858.34,-123.62C876.05,-115.52 902.26,-103.51 924.72,-93.23"/>
<polygon fill="#63b8ff" stroke="#63b8ff" points="926.04,-96.47 933.68,-89.12 923.13,-90.1 926.04,-96.47"/>
</a>
</g>
</g>
<!-- Node19 -->
<g id="Node000019" class="node">
<title>Node19</title>
<g id="a_Node000019"><a xlink:title=" ">
<polygon fill="#e0e0e0" stroke="#999999" points="965.12,-20 890.62,-20 890.62,0 965.12,0 965.12,-20"/>
<text text-anchor="middle" x="927.88" y="-6.5" font-family="Helvetica,sans-Serif" font-size="10.00">avr/interrupt.h</text>
</a>
</g>
</g>
<!-- Node18&#45;&gt;Node19 -->
<g id="edge19_Node000018_Node000019" class="edge">
<title>Node18&#45;&gt;Node19</title>
<g id="a_edge19_Node000018_Node000019"><a xlink:title=" ">
<path fill="none" stroke="#63b8ff" d="M958.32,-55.55C952.92,-47.65 946.31,-37.97 940.63,-29.66"/>
<polygon fill="#63b8ff" stroke="#63b8ff" points="943.69,-27.94 935.16,-21.66 937.91,-31.89 943.69,-27.94"/>
</a>
</g>
</g>
<!-- Node20 -->
<g id="Node000020" class="node">
<title>Node20</title>
<g id="a_Node000020"><a xlink:title=" ">
<polygon fill="#e0e0e0" stroke="#999999" points="1037,-20 982.75,-20 982.75,0 1037,0 1037,-20"/>
<text text-anchor="middle" x="1009.88" y="-6.5" font-family="Helvetica,sans-Serif" font-size="10.00">avr/wdt.h</text>
</a>
</g>
</g>
<!-- Node18&#45;&gt;Node20 -->
<g id="edge20_Node000018_Node000020" class="edge">
<title>Node18&#45;&gt;Node20</title>
<g id="a_edge20_Node000018_Node000020"><a xlink:title=" ">
<path fill="none" stroke="#63b8ff" d="M979.43,-55.55C984.83,-47.65 991.44,-37.97 997.12,-29.66"/>
<polygon fill="#63b8ff" stroke="#63b8ff" points="999.84,-31.89 1002.59,-21.66 994.06,-27.94 999.84,-31.89"/>
</a>
</g>
</g>
<!-- Node21&#45;&gt;Node5 -->
<g id="edge23_Node000021_Node000005" class="edge">
<title>Node21&#45;&gt;Node5</title>
<g id="a_edge23_Node000021_Node000005"><a xlink:title=" ">
<path fill="none" stroke="#63b8ff" d="M253.09,-123.62C252.42,-115.56 251.43,-103.65 250.58,-93.41"/>
<polygon fill="#63b8ff" stroke="#63b8ff" points="254.08,-93.3 249.76,-83.62 247.1,-93.88 254.08,-93.3"/>
</a>
</g>
</g>
<!-- Node22&#45;&gt;Node6 -->
<g id="edge26_Node000022_Node000006" class="edge">
<title>Node22&#45;&gt;Node6</title>
<g id="a_edge26_Node000022_Node000006"><a xlink:title=" ">
<path fill="none" stroke="#63b8ff" d="M374.5,-61.62C365.55,-52.68 351.86,-38.99 340.98,-28.1"/>
<polygon fill="#63b8ff" stroke="#63b8ff" points="343.6,-25.78 334.06,-21.18 338.65,-30.73 343.6,-25.78"/>
</a>
</g>
</g>
<!-- Node22&#45;&gt;Node9 -->
<g id="edge25_Node000022_Node000009" class="edge">
<title>Node22&#45;&gt;Node9</title>
<g id="a_edge25_Node000022_Node000009"><a xlink:title=" ">
<path fill="none" stroke="#63b8ff" d="M385.44,-61.62C386.78,-53.56 388.77,-41.65 390.47,-31.41"/>
<polygon fill="#63b8ff" stroke="#63b8ff" points="393.92,-32.05 392.11,-21.61 387.01,-30.89 393.92,-32.05"/>
</a>
</g>
</g>
<!-- Node22&#45;&gt;Node12 -->
<g id="edge27_Node000022_Node000012" class="edge">
<title>Node22&#45;&gt;Node12</title>
<g id="a_edge27_Node000022_Node000012"><a xlink:title=" ">
<path fill="none" stroke="#63b8ff" d="M397.94,-61.62C412.07,-52.2 434.1,-37.52 450.8,-26.39"/>
<polygon fill="#63b8ff" stroke="#63b8ff" points="452.27,-29.61 458.65,-21.15 448.39,-23.78 452.27,-29.61"/>
</a>
</g>
</g>
<!-- Node23&#45;&gt;Node21 -->
<g id="edge32_Node000023_Node000021" class="edge">
<title>Node23&#45;&gt;Node21</title>
<g id="a_edge32_Node000023_Node000021"><a xlink:title=" ">
<path fill="none" stroke="#63b8ff" d="M305.08,-179.59C296.27,-171.93 283.62,-160.91 273.1,-151.75"/>
<polygon fill="#63b8ff" stroke="#63b8ff" points="275.53,-149.22 265.69,-145.29 270.93,-154.5 275.53,-149.22"/>
</a>
</g>
</g>
<!-- Node23&#45;&gt;Node22 -->
<g id="edge29_Node000023_Node000022" class="edge">
<title>Node23&#45;&gt;Node22</title>
<g id="a_edge29_Node000023_Node000022"><a xlink:title=" ">
<path fill="none" stroke="#63b8ff" d="M317.17,-179.62C319.3,-166.46 324.39,-142.11 334.88,-124 342.32,-111.15 353.67,-99.05 363.57,-89.87"/>
<polygon fill="#63b8ff" stroke="#63b8ff" points="365.8,-92.57 370.97,-83.32 361.16,-87.33 365.8,-92.57"/>
</a>
</g>
</g>
<!-- Node24 -->
<g id="Node000024" class="node">
<title>Node24</title>
<g id="a_Node000024"><a xlink:href="errno_8h.html" target="_top" xlink:title=" ">
<polygon fill="white" stroke="#666666" points="414.25,-144 343.5,-144 343.5,-124 414.25,-124 414.25,-144"/>
<text text-anchor="middle" x="378.88" y="-130.5" font-family="Helvetica,sans-Serif" font-size="10.00">zrtos/errno.h</text>
</a>
</g>
</g>
<!-- Node23&#45;&gt;Node24 -->
<g id="edge30_Node000023_Node000024" class="edge">
<title>Node23&#45;&gt;Node24</title>
<g id="a_edge30_Node000023_Node000024"><a xlink:title=" ">
<path fill="none" stroke="#63b8ff" d="M326.85,-179.59C335.79,-171.93 348.65,-160.91 359.34,-151.75"/>
<polygon fill="#63b8ff" stroke="#63b8ff" points="361.56,-154.45 366.88,-145.28 357.01,-149.13 361.56,-154.45"/>
</a>
</g>
</g>
<!-- Node24&#45;&gt;Node22 -->
<g id="edge31_Node000024_Node000022" class="edge">
<title>Node24&#45;&gt;Node22</title>
<g id="a_edge31_Node000024_Node000022"><a xlink:title=" ">
<path fill="none" stroke="#63b8ff" d="M379.66,-123.62C380.33,-115.56 381.32,-103.65 382.17,-93.41"/>
<polygon fill="#63b8ff" stroke="#63b8ff" points="385.65,-93.88 382.99,-83.62 378.67,-93.3 385.65,-93.88"/>
</a>
</g>
</g>
</g>
</svg>
