<?xml version="1.0" encoding="UTF-8" standalone="no"?>
<!DOCTYPE svg PUBLIC "-//W3C//DTD SVG 1.1//EN"
 "http://www.w3.org/Graphics/SVG/1.1/DTD/svg11.dtd">
<!-- Generated by graphviz version 10.0.1 (20240210.2158)
 -->
<!-- Title: task_mutex.h Pages: 1 -->
<svg width="218pt" height="84pt"
 viewBox="0.00 0.00 217.50 84.00" xmlns="http://www.w3.org/2000/svg" xmlns:xlink="http://www.w3.org/1999/xlink">
<g id="graph0" class="graph" transform="scale(1 1) rotate(0) translate(4 80)">
<title>task_mutex.h</title>
<!-- Node1 -->
<g id="Node000001" class="node">
<title>Node1</title>
<g id="a_Node000001"><a xlink:title=" ">
<polygon fill="#999999" stroke="#666666" points="134.88,-76 59.62,-76 59.62,-56 134.88,-56 134.88,-76"/>
<text text-anchor="middle" x="97.25" y="-62.5" font-family="Helvetica,sans-Serif" font-size="10.00">task_mutex.h</text>
</a>
</g>
</g>
<!-- Node2 -->
<g id="Node000002" class="node">
<title>Node2</title>
<g id="a_Node000002"><a xlink:href="task__pthread_8h.html" target="_top" xlink:title=" ">
<polygon fill="white" stroke="#666666" points="80.5,-20 0,-20 0,0 80.5,0 80.5,-20"/>
<text text-anchor="middle" x="40.25" y="-6.5" font-family="Helvetica,sans-Serif" font-size="10.00">task_pthread.h</text>
</a>
</g>
</g>
<!-- Node1&#45;&gt;Node2 -->
<g id="edge1_Node000001_Node000002" class="edge">
<title>Node1&#45;&gt;Node2</title>
<g id="a_edge1_Node000001_Node000002"><a xlink:title=" ">
<path fill="none" stroke="#63b8ff" d="M79.14,-47.85C69.51,-38.72 58.04,-27.86 50.06,-20.3"/>
<polygon fill="#63b8ff" stroke="#63b8ff" points="76.56,-50.22 86.22,-54.55 81.37,-45.13 76.56,-50.22"/>
</a>
</g>
</g>
<!-- Node3 -->
<g id="Node000003" class="node">
<title>Node3</title>
<g id="a_Node000003"><a xlink:href="vheap__task__pthread_8h.html" target="_top" xlink:title=" ">
<polygon fill="white" stroke="#666666" points="209.5,-20 99,-20 99,0 209.5,0 209.5,-20"/>
<text text-anchor="middle" x="154.25" y="-6.5" font-family="Helvetica,sans-Serif" font-size="10.00">vheap_task_pthread.h</text>
</a>
</g>
</g>
<!-- Node1&#45;&gt;Node3 -->
<g id="edge2_Node000001_Node000003" class="edge">
<title>Node1&#45;&gt;Node3</title>
<g id="a_edge2_Node000001_Node000003"><a xlink:title=" ">
<path fill="none" stroke="#63b8ff" d="M115.36,-47.85C124.99,-38.72 136.46,-27.86 144.44,-20.3"/>
<polygon fill="#63b8ff" stroke="#63b8ff" points="113.13,-45.13 108.28,-54.55 117.94,-50.22 113.13,-45.13"/>
</a>
</g>
</g>
</g>
</svg>
