<?xml version="1.0" encoding="UTF-8" standalone="no"?>
<!DOCTYPE svg PUBLIC "-//W3C//DTD SVG 1.1//EN"
 "http://www.w3.org/Graphics/SVG/1.1/DTD/svg11.dtd">
<!-- Generated by graphviz version 2.40.1 (20161225.0304)
 -->
<!-- Title: zrtos_task__init Pages: 1 -->
<svg width="357pt" height="78pt"
 viewBox="0.00 0.00 357.00 77.50" xmlns="http://www.w3.org/2000/svg" xmlns:xlink="http://www.w3.org/1999/xlink">
<g id="graph0" class="graph" transform="scale(1 1) rotate(0) translate(4 73.5)">
<title>zrtos_task__init</title>
<polygon fill="#ffffff" stroke="transparent" points="-4,4 -4,-73.5 353,-73.5 353,4 -4,4"/>
<!-- Node58 -->
<g id="node1" class="node">
<title>Node58</title>
<polygon fill="#bfbfbf" stroke="#000000" points="0,-28 0,-47 86,-47 86,-28 0,-28"/>
<text text-anchor="middle" x="43" y="-35" font-family="Helvetica,sans-Serif" font-size="10.00" fill="#000000">zrtos_task__init</text>
</g>
<!-- Node59 -->
<g id="node2" class="node">
<title>Node59</title>
<g id="a_node2"><a xlink:href="task_8h.html#a6834fca580b85c21da7be34f815f5f50" target="_top" xlink:title="zrtos_task__init_ex">
<polygon fill="#ffffff" stroke="#000000" points="126.5,-50 126.5,-69 227.5,-69 227.5,-50 126.5,-50"/>
<text text-anchor="middle" x="177" y="-57" font-family="Helvetica,sans-Serif" font-size="10.00" fill="#000000">zrtos_task__init_ex</text>
</a>
</g>
</g>
<!-- Node58&#45;&gt;Node59 -->
<g id="edge1" class="edge">
<title>Node58&#45;&gt;Node59</title>
<path fill="none" stroke="#191970" d="M96.3073,-46.2519C106.2509,-47.8845 116.6148,-49.586 126.4716,-51.2043"/>
<polygon fill="#191970" stroke="#191970" points="96.571,-42.7485 86.136,-44.582 95.4369,-49.656 96.571,-42.7485"/>
</g>
<!-- Node61 -->
<g id="node4" class="node">
<title>Node61</title>
<g id="a_node4"><a xlink:href="task__scheduler_8h.html#a1e85f61c031a36a33f08d891597103b2" target="_top" xlink:title="zrtos_task_scheduler\l__init">
<polygon fill="#ffffff" stroke="#000000" points="122,-.5 122,-30.5 232,-30.5 232,-.5 122,-.5"/>
<text text-anchor="start" x="130" y="-18.5" font-family="Helvetica,sans-Serif" font-size="10.00" fill="#000000">zrtos_task_scheduler</text>
<text text-anchor="middle" x="177" y="-7.5" font-family="Helvetica,sans-Serif" font-size="10.00" fill="#000000">__init</text>
</a>
</g>
</g>
<!-- Node58&#45;&gt;Node61 -->
<g id="edge3" class="edge">
<title>Node58&#45;&gt;Node61</title>
<path fill="none" stroke="#191970" d="M96.1802,-28.7689C104.5682,-27.3918 113.2583,-25.9651 121.6932,-24.5802"/>
<polygon fill="#191970" stroke="#191970" points="95.4369,-25.344 86.136,-30.418 96.571,-32.2515 95.4369,-25.344"/>
</g>
<!-- Node60 -->
<g id="node3" class="node">
<title>Node60</title>
<g id="a_node3"><a xlink:href="task__pthread_8h.html#a091adcef6201bebbf231763328c15286" target="_top" xlink:title="pthread_create">
<polygon fill="#ffffff" stroke="#000000" points="268,-50 268,-69 349,-69 349,-50 268,-50"/>
<text text-anchor="middle" x="308.5" y="-57" font-family="Helvetica,sans-Serif" font-size="10.00" fill="#000000">pthread_create</text>
</a>
</g>
</g>
<!-- Node59&#45;&gt;Node60 -->
<g id="edge2" class="edge">
<title>Node59&#45;&gt;Node60</title>
<path fill="none" stroke="#191970" d="M237.9397,-59.5C248.1261,-59.5 258.4673,-59.5 267.9783,-59.5"/>
<polygon fill="#191970" stroke="#191970" points="237.8414,-56.0001 227.8413,-59.5 237.8413,-63.0001 237.8414,-56.0001"/>
</g>
</g>
</svg>
