<?xml version="1.0" encoding="UTF-8" standalone="no"?>
<!DOCTYPE svg PUBLIC "-//W3C//DTD SVG 1.1//EN"
 "http://www.w3.org/Graphics/SVG/1.1/DTD/svg11.dtd">
<!-- Generated by graphviz version 2.40.1 (20161225.0304)
 -->
<!-- Title: pthread_join Pages: 1 -->
<svg width="1163pt" height="422pt"
 viewBox="0.00 0.00 1163.00 421.50" xmlns="http://www.w3.org/2000/svg" xmlns:xlink="http://www.w3.org/1999/xlink">
<g id="graph0" class="graph" transform="scale(1 1) rotate(0) translate(4 417.5)">
<title>pthread_join</title>
<polygon fill="#ffffff" stroke="transparent" points="-4,4 -4,-417.5 1159,-417.5 1159,4 -4,4"/>
<!-- Node47 -->
<g id="node1" class="node">
<title>Node47</title>
<polygon fill="#bfbfbf" stroke="#000000" points="0,-122 0,-141 69,-141 69,-122 0,-122"/>
<text text-anchor="middle" x="34.5" y="-129" font-family="Helvetica,sans-Serif" font-size="10.00" fill="#000000">pthread_join</text>
</g>
<!-- Node48 -->
<g id="node2" class="node">
<title>Node48</title>
<g id="a_node2"><a xlink:href="task__scheduler_8h.html#ae5915a01574e06572708120eaea79d3b" target="_top" xlink:title="zrtos_task_scheduler\l__has_task">
<polygon fill="#ffffff" stroke="#000000" points="411.5,-135.5 411.5,-165.5 521.5,-165.5 521.5,-135.5 411.5,-135.5"/>
<text text-anchor="start" x="419.5" y="-153.5" font-family="Helvetica,sans-Serif" font-size="10.00" fill="#000000">zrtos_task_scheduler</text>
<text text-anchor="middle" x="466.5" y="-142.5" font-family="Helvetica,sans-Serif" font-size="10.00" fill="#000000">__has_task</text>
</a>
</g>
</g>
<!-- Node47&#45;&gt;Node48 -->
<g id="edge1" class="edge">
<title>Node47&#45;&gt;Node48</title>
<path fill="none" stroke="#191970" d="M69.1221,-133.0227C141.2017,-136.1929 308.3805,-143.5457 401.2877,-147.6319"/>
<polygon fill="#191970" stroke="#191970" points="401.27,-151.1344 411.4142,-148.0772 401.5777,-144.1411 401.27,-151.1344"/>
</g>
<!-- Node53 -->
<g id="node7" class="node">
<title>Node53</title>
<g id="a_node7"><a xlink:href="task_8h.html#a56a77b15f26b91d18a628aa1881b20df" target="_top" xlink:title="zrtos_task__is_done">
<polygon fill="#ffffff" stroke="#000000" points="109,-103 109,-122 216,-122 216,-103 109,-103"/>
<text text-anchor="middle" x="162.5" y="-110" font-family="Helvetica,sans-Serif" font-size="10.00" fill="#000000">zrtos_task__is_done</text>
</a>
</g>
</g>
<!-- Node47&#45;&gt;Node53 -->
<g id="edge6" class="edge">
<title>Node47&#45;&gt;Node53</title>
<path fill="none" stroke="#191970" d="M69.1386,-126.3583C78.2454,-125.0065 88.3647,-123.5045 98.4846,-122.0023"/>
<polygon fill="#191970" stroke="#191970" points="99.1895,-125.4361 108.5672,-120.5057 98.1616,-118.512 99.1895,-125.4361"/>
</g>
<!-- Node54 -->
<g id="node8" class="node">
<title>Node54</title>
<g id="a_node8"><a xlink:href="task__pthread_8h.html#a138580b425fd21586b4efd4ab448d593" target="_top" xlink:title="zrtos_task_pthread\l__free">
<polygon fill="#ffffff" stroke="#000000" points="112.5,-50.5 112.5,-80.5 212.5,-80.5 212.5,-50.5 112.5,-50.5"/>
<text text-anchor="start" x="120.5" y="-68.5" font-family="Helvetica,sans-Serif" font-size="10.00" fill="#000000">zrtos_task_pthread</text>
<text text-anchor="middle" x="162.5" y="-57.5" font-family="Helvetica,sans-Serif" font-size="10.00" fill="#000000">__free</text>
</a>
</g>
</g>
<!-- Node47&#45;&gt;Node54 -->
<g id="edge7" class="edge">
<title>Node47&#45;&gt;Node54</title>
<path fill="none" stroke="#191970" d="M51.7781,-121.9298C65.9862,-114.1223 86.6881,-102.8886 105,-93.5 110.3802,-90.7415 116.0731,-87.8897 121.7023,-85.1091"/>
<polygon fill="#191970" stroke="#191970" points="123.6116,-88.0711 131.0492,-80.5257 120.5296,-81.786 123.6116,-88.0711"/>
</g>
<!-- Node62 -->
<g id="node16" class="node">
<title>Node62</title>
<g id="a_node16"><a xlink:href="task__scheduler_8h.html#a8f15f366e9ce3328539ee562fd4c1e73" target="_top" xlink:title="_zrtos_task_scheduler\l__on_tick_ex">
<polygon fill="#ffffff" stroke="#000000" points="105,-201.5 105,-231.5 220,-231.5 220,-201.5 105,-201.5"/>
<text text-anchor="start" x="113" y="-219.5" font-family="Helvetica,sans-Serif" font-size="10.00" fill="#000000">_zrtos_task_scheduler</text>
<text text-anchor="middle" x="162.5" y="-208.5" font-family="Helvetica,sans-Serif" font-size="10.00" fill="#000000">__on_tick_ex</text>
</a>
</g>
</g>
<!-- Node47&#45;&gt;Node62 -->
<g id="edge15" class="edge">
<title>Node47&#45;&gt;Node62</title>
<path fill="none" stroke="#191970" d="M49.1832,-141.2506C69.1244,-154.4928 105.2734,-178.498 131.3893,-195.8406"/>
<polygon fill="#191970" stroke="#191970" points="129.5568,-198.825 139.8235,-201.4414 133.4292,-192.9937 129.5568,-198.825"/>
</g>
<!-- Node49 -->
<g id="node3" class="node">
<title>Node49</title>
<g id="a_node3"><a xlink:href="task__scheduler_8h.html#ab70567884a5fe24345f654d1213b0699" target="_top" xlink:title="_zrtos_task_scheduler\l__get_active_task">
<polygon fill="#ffffff" stroke="#000000" points="888.5,-180.5 888.5,-210.5 1003.5,-210.5 1003.5,-180.5 888.5,-180.5"/>
<text text-anchor="start" x="896.5" y="-198.5" font-family="Helvetica,sans-Serif" font-size="10.00" fill="#000000">_zrtos_task_scheduler</text>
<text text-anchor="middle" x="946" y="-187.5" font-family="Helvetica,sans-Serif" font-size="10.00" fill="#000000">__get_active_task</text>
</a>
</g>
</g>
<!-- Node48&#45;&gt;Node49 -->
<g id="edge2" class="edge">
<title>Node48&#45;&gt;Node49</title>
<path fill="none" stroke="#191970" d="M521.3335,-135.431C596.0565,-117.5079 733.2403,-93.9647 844,-127.5 873.765,-136.5121 902.7832,-157.3913 922.2093,-173.6538"/>
<polygon fill="#191970" stroke="#191970" points="920.0595,-176.4214 929.9218,-180.2928 924.6263,-171.1162 920.0595,-176.4214"/>
</g>
<!-- Node51 -->
<g id="node5" class="node">
<title>Node51</title>
<g id="a_node5"><a xlink:href="task_8h.html#a2051d6d2075855207e5aab40a5f93c6c" target="_top" xlink:title="zrtos_task__get_next_task">
<polygon fill="#ffffff" stroke="#000000" points="562,-142 562,-161 696,-161 696,-142 562,-142"/>
<text text-anchor="middle" x="629" y="-149" font-family="Helvetica,sans-Serif" font-size="10.00" fill="#000000">zrtos_task__get_next_task</text>
</a>
</g>
</g>
<!-- Node48&#45;&gt;Node51 -->
<g id="edge4" class="edge">
<title>Node48&#45;&gt;Node51</title>
<path fill="none" stroke="#191970" d="M521.5151,-150.8386C531.252,-150.8985 541.5521,-150.9619 551.7673,-151.0247"/>
<polygon fill="#191970" stroke="#191970" points="551.9088,-154.5256 561.9302,-151.0873 551.9519,-147.5257 551.9088,-154.5256"/>
</g>
<!-- Node50 -->
<g id="node4" class="node">
<title>Node50</title>
<g id="a_node4"><a xlink:href="clist_8h.html#afb7e643d242da19562a3584abcfca015" target="_top" xlink:title="zrtos_clist__get_root">
<polygon fill="#ffffff" stroke="#000000" points="1048,-186 1048,-205 1155,-205 1155,-186 1048,-186"/>
<text text-anchor="middle" x="1101.5" y="-193" font-family="Helvetica,sans-Serif" font-size="10.00" fill="#000000">zrtos_clist__get_root</text>
</a>
</g>
</g>
<!-- Node49&#45;&gt;Node50 -->
<g id="edge3" class="edge">
<title>Node49&#45;&gt;Node50</title>
<path fill="none" stroke="#191970" d="M1003.9025,-195.5C1014.943,-195.5 1026.5558,-195.5 1037.7665,-195.5"/>
<polygon fill="#191970" stroke="#191970" points="1037.9211,-199.0001 1047.9211,-195.5 1037.9211,-192.0001 1037.9211,-199.0001"/>
</g>
<!-- Node52 -->
<g id="node6" class="node">
<title>Node52</title>
<g id="a_node6"><a xlink:href="clist_8h.html#a2f867bef78a818daa14ead2547bb531d" target="_top" xlink:title="zrtos_clist_node__get\l_next_node">
<polygon fill="#ffffff" stroke="#000000" points="732,-136.5 732,-166.5 844,-166.5 844,-136.5 732,-136.5"/>
<text text-anchor="start" x="740" y="-154.5" font-family="Helvetica,sans-Serif" font-size="10.00" fill="#000000">zrtos_clist_node__get</text>
<text text-anchor="middle" x="788" y="-143.5" font-family="Helvetica,sans-Serif" font-size="10.00" fill="#000000">_next_node</text>
</a>
</g>
</g>
<!-- Node51&#45;&gt;Node52 -->
<g id="edge5" class="edge">
<title>Node51&#45;&gt;Node52</title>
<path fill="none" stroke="#191970" d="M696.4303,-151.5C704.8546,-151.5 713.464,-151.5 721.8682,-151.5"/>
<polygon fill="#191970" stroke="#191970" points="721.9915,-155.0001 731.9915,-151.5 721.9914,-148.0001 721.9915,-155.0001"/>
</g>
<!-- Node55 -->
<g id="node9" class="node">
<title>Node55</title>
<g id="a_node9"><a xlink:href="task__scheduler_8h.html#a14396d8e572aeb29daef9a2dc81020b6" target="_top" xlink:title="zrtos_task_scheduler\l__get_any_child">
<polygon fill="#ffffff" stroke="#000000" points="258.5,-.5 258.5,-30.5 368.5,-30.5 368.5,-.5 258.5,-.5"/>
<text text-anchor="start" x="266.5" y="-18.5" font-family="Helvetica,sans-Serif" font-size="10.00" fill="#000000">zrtos_task_scheduler</text>
<text text-anchor="middle" x="313.5" y="-7.5" font-family="Helvetica,sans-Serif" font-size="10.00" fill="#000000">__get_any_child</text>
</a>
</g>
</g>
<!-- Node54&#45;&gt;Node55 -->
<g id="edge8" class="edge">
<title>Node54&#45;&gt;Node55</title>
<path fill="none" stroke="#191970" d="M207.805,-50.4984C223.7085,-45.2323 241.7521,-39.2576 258.3721,-33.7543"/>
<polygon fill="#191970" stroke="#191970" points="259.5733,-37.0435 267.9662,-30.5774 257.3729,-30.3983 259.5733,-37.0435"/>
</g>
<!-- Node57 -->
<g id="node11" class="node">
<title>Node57</title>
<g id="a_node11"><a xlink:href="task__scheduler_8h.html#a8eaf55f184537faea5e8e9641ed4ad27" target="_top" xlink:title="zrtos_task_scheduler\l__remove_task">
<polygon fill="#ffffff" stroke="#000000" points="258.5,-88.5 258.5,-118.5 368.5,-118.5 368.5,-88.5 258.5,-88.5"/>
<text text-anchor="start" x="266.5" y="-106.5" font-family="Helvetica,sans-Serif" font-size="10.00" fill="#000000">zrtos_task_scheduler</text>
<text text-anchor="middle" x="313.5" y="-95.5" font-family="Helvetica,sans-Serif" font-size="10.00" fill="#000000">__remove_task</text>
</a>
</g>
</g>
<!-- Node54&#45;&gt;Node57 -->
<g id="edge10" class="edge">
<title>Node54&#45;&gt;Node57</title>
<path fill="none" stroke="#191970" d="M212.7808,-78.1534C224.1752,-81.0209 236.4354,-84.1063 248.3455,-87.1035"/>
<polygon fill="#191970" stroke="#191970" points="247.6891,-90.5474 258.2409,-89.5937 249.3975,-83.759 247.6891,-90.5474"/>
</g>
<!-- Node61 -->
<g id="node15" class="node">
<title>Node61</title>
<g id="a_node15"><a xlink:href="malloc_8h.html#a299a13aa87e9bdb9fb23fb30cc5b1c32" target="_top" xlink:title="zrtos_malloc__free">
<polygon fill="#ffffff" stroke="#000000" points="264,-50 264,-69 363,-69 363,-50 264,-50"/>
<text text-anchor="middle" x="313.5" y="-57" font-family="Helvetica,sans-Serif" font-size="10.00" fill="#000000">zrtos_malloc__free</text>
</a>
</g>
</g>
<!-- Node54&#45;&gt;Node61 -->
<g id="edge14" class="edge">
<title>Node54&#45;&gt;Node61</title>
<path fill="none" stroke="#191970" d="M212.7808,-63.5021C225.9071,-62.9805 240.1825,-62.4133 253.748,-61.8743"/>
<polygon fill="#191970" stroke="#191970" points="254.0993,-65.3632 263.9524,-61.4688 253.8213,-58.3687 254.0993,-65.3632"/>
</g>
<!-- Node56 -->
<g id="node10" class="node">
<title>Node56</title>
<g id="a_node10"><a xlink:href="task_8h.html#a633ccaed5fbf415f504b00c0474adeac" target="_top" xlink:title="zrtos_task__get_parent">
<polygon fill="#ffffff" stroke="#000000" points="407,-6 407,-25 526,-25 526,-6 407,-6"/>
<text text-anchor="middle" x="466.5" y="-13" font-family="Helvetica,sans-Serif" font-size="10.00" fill="#000000">zrtos_task__get_parent</text>
</a>
</g>
</g>
<!-- Node55&#45;&gt;Node56 -->
<g id="edge9" class="edge">
<title>Node55&#45;&gt;Node56</title>
<path fill="none" stroke="#191970" d="M368.7365,-15.5C377.8511,-15.5 387.4032,-15.5 396.8165,-15.5"/>
<polygon fill="#191970" stroke="#191970" points="396.9492,-19.0001 406.9492,-15.5 396.9492,-12.0001 396.9492,-19.0001"/>
</g>
<!-- Node58 -->
<g id="node12" class="node">
<title>Node58</title>
<g id="a_node12"><a xlink:href="clist_8h.html#a383b927f3eeb7f78f5ae9929138a635f" target="_top" xlink:title="zrtos_clist__delete">
<polygon fill="#ffffff" stroke="#000000" points="417.5,-55 417.5,-74 515.5,-74 515.5,-55 417.5,-55"/>
<text text-anchor="middle" x="466.5" y="-62" font-family="Helvetica,sans-Serif" font-size="10.00" fill="#000000">zrtos_clist__delete</text>
</a>
</g>
</g>
<!-- Node57&#45;&gt;Node58 -->
<g id="edge11" class="edge">
<title>Node57&#45;&gt;Node58</title>
<path fill="none" stroke="#191970" d="M368.7365,-89.4201C385.1669,-85.232 403.0188,-80.6815 418.9169,-76.629"/>
<polygon fill="#191970" stroke="#191970" points="420.2219,-79.9084 429.0475,-74.0467 418.4928,-73.1253 420.2219,-79.9084"/>
</g>
<!-- Node60 -->
<g id="node14" class="node">
<title>Node60</title>
<g id="a_node14"><a xlink:href="task_8h.html#a34aca34833e1ab06a5e0d26fda080286" target="_top" xlink:title="zrtos_task__set_parent">
<polygon fill="#ffffff" stroke="#000000" points="407,-94 407,-113 526,-113 526,-94 407,-94"/>
<text text-anchor="middle" x="466.5" y="-101" font-family="Helvetica,sans-Serif" font-size="10.00" fill="#000000">zrtos_task__set_parent</text>
</a>
</g>
</g>
<!-- Node57&#45;&gt;Node60 -->
<g id="edge13" class="edge">
<title>Node57&#45;&gt;Node60</title>
<path fill="none" stroke="#191970" d="M368.7365,-103.5C377.8511,-103.5 387.4032,-103.5 396.8165,-103.5"/>
<polygon fill="#191970" stroke="#191970" points="396.9492,-107.0001 406.9492,-103.5 396.9492,-100.0001 396.9492,-107.0001"/>
</g>
<!-- Node59 -->
<g id="node13" class="node">
<title>Node59</title>
<g id="a_node13"><a xlink:href="clist_8h.html#adc7d3acc850be7934c1c38390033a93d" target="_top" xlink:title="zrtos_clist_node__get\l_previous_node">
<polygon fill="#ffffff" stroke="#000000" points="573,-48.5 573,-78.5 685,-78.5 685,-48.5 573,-48.5"/>
<text text-anchor="start" x="581" y="-66.5" font-family="Helvetica,sans-Serif" font-size="10.00" fill="#000000">zrtos_clist_node__get</text>
<text text-anchor="middle" x="629" y="-55.5" font-family="Helvetica,sans-Serif" font-size="10.00" fill="#000000">_previous_node</text>
</a>
</g>
</g>
<!-- Node58&#45;&gt;Node59 -->
<g id="edge12" class="edge">
<title>Node58&#45;&gt;Node59</title>
<path fill="none" stroke="#191970" d="M515.6963,-64.1973C530.4857,-64.1062 546.9624,-64.0048 562.6689,-63.9082"/>
<polygon fill="#191970" stroke="#191970" points="562.8754,-67.4071 572.8536,-63.8455 562.8322,-60.4072 562.8754,-67.4071"/>
</g>
<!-- Node63 -->
<g id="node17" class="node">
<title>Node63</title>
<g id="a_node17"><a xlink:href="task__scheduler_8h.html#ab670d7e1ab8db82279714a56efc3c99a" target="_top" xlink:title="_zrtos_task_scheduler\l__on_tick">
<polygon fill="#ffffff" stroke="#000000" points="256,-213.5 256,-243.5 371,-243.5 371,-213.5 256,-213.5"/>
<text text-anchor="start" x="264" y="-231.5" font-family="Helvetica,sans-Serif" font-size="10.00" fill="#000000">_zrtos_task_scheduler</text>
<text text-anchor="middle" x="313.5" y="-220.5" font-family="Helvetica,sans-Serif" font-size="10.00" fill="#000000">__on_tick</text>
</a>
</g>
</g>
<!-- Node62&#45;&gt;Node63 -->
<g id="edge16" class="edge">
<title>Node62&#45;&gt;Node63</title>
<path fill="none" stroke="#191970" d="M220.0174,-221.0709C228.4639,-221.7422 237.2292,-222.4387 245.8561,-223.1243"/>
<polygon fill="#191970" stroke="#191970" points="245.6467,-226.6186 255.8925,-223.9219 246.2013,-219.6406 245.6467,-226.6186"/>
</g>
<!-- Node64 -->
<g id="node18" class="node">
<title>Node64</title>
<g id="a_node18"><a xlink:href="task__scheduler_8h.html#aa63cd785e44d31b9ae87297fad4de032" target="_top" xlink:title="_zrtos_task_scheduler\l__switch_task">
<polygon fill="#ffffff" stroke="#000000" points="409,-224.5 409,-254.5 524,-254.5 524,-224.5 409,-224.5"/>
<text text-anchor="start" x="417" y="-242.5" font-family="Helvetica,sans-Serif" font-size="10.00" fill="#000000">_zrtos_task_scheduler</text>
<text text-anchor="middle" x="466.5" y="-231.5" font-family="Helvetica,sans-Serif" font-size="10.00" fill="#000000">__switch_task</text>
</a>
</g>
</g>
<!-- Node63&#45;&gt;Node64 -->
<g id="edge17" class="edge">
<title>Node63&#45;&gt;Node64</title>
<path fill="none" stroke="#191970" d="M371.3427,-232.6586C380.2579,-233.2996 389.5331,-233.9664 398.6427,-234.6214"/>
<polygon fill="#191970" stroke="#191970" points="398.604,-238.1275 408.8293,-235.3537 399.1061,-231.1456 398.604,-238.1275"/>
</g>
<!-- Node64&#45;&gt;Node49 -->
<g id="edge18" class="edge">
<title>Node64&#45;&gt;Node49</title>
<path fill="none" stroke="#191970" d="M518.67,-224.4455C532.6356,-220.9509 547.7992,-217.6335 562,-215.5 671.9323,-198.9839 801.3274,-195.4921 878.3496,-195.0689"/>
<polygon fill="#191970" stroke="#191970" points="878.4146,-198.5688 888.4007,-195.0295 878.3871,-191.5688 878.4146,-198.5688"/>
</g>
<!-- Node64&#45;&gt;Node51 -->
<g id="edge20" class="edge">
<title>Node64&#45;&gt;Node51</title>
<path fill="none" stroke="#191970" d="M489.5771,-224.3662C508.6332,-212.1439 536.5802,-194.8436 562,-181.5 572.9971,-175.7273 585.3308,-170.0022 596.3898,-165.1251"/>
<polygon fill="#191970" stroke="#191970" points="597.9352,-168.2699 605.7146,-161.0775 595.1479,-161.8487 597.9352,-168.2699"/>
</g>
<!-- Node65 -->
<g id="node19" class="node">
<title>Node65</title>
<g id="a_node19"><a xlink:href="task_8h.html#a3167eade7e7faf3fc23d540b9888aaf9" target="_top" xlink:title="zrtos_task__on_tick">
<polygon fill="#ffffff" stroke="#000000" points="577,-312 577,-331 681,-331 681,-312 577,-312"/>
<text text-anchor="middle" x="629" y="-319" font-family="Helvetica,sans-Serif" font-size="10.00" fill="#000000">zrtos_task__on_tick</text>
</a>
</g>
</g>
<!-- Node64&#45;&gt;Node65 -->
<g id="edge19" class="edge">
<title>Node64&#45;&gt;Node65</title>
<path fill="none" stroke="#191970" d="M485.5813,-254.649C504.1551,-268.756 533.6513,-289.5076 562,-302.5 567.0835,-304.8298 572.517,-306.9379 578.0081,-308.8284"/>
<polygon fill="#191970" stroke="#191970" points="577.3002,-312.2769 587.8913,-311.9972 579.4374,-305.6111 577.3002,-312.2769"/>
</g>
<!-- Node66 -->
<g id="node20" class="node">
<title>Node66</title>
<g id="a_node20"><a xlink:href="task_8h.html#a886f2c097ab9830c80f6d0137c7bd526" target="_top" xlink:title="zrtos_task__is_ready">
<polygon fill="#ffffff" stroke="#000000" points="574,-274 574,-293 684,-293 684,-274 574,-274"/>
<text text-anchor="middle" x="629" y="-281" font-family="Helvetica,sans-Serif" font-size="10.00" fill="#000000">zrtos_task__is_ready</text>
</a>
</g>
</g>
<!-- Node64&#45;&gt;Node66 -->
<g id="edge21" class="edge">
<title>Node64&#45;&gt;Node66</title>
<path fill="none" stroke="#191970" d="M521.9688,-254.5192C542.169,-259.9888 564.7411,-266.1007 583.93,-271.2964"/>
<polygon fill="#191970" stroke="#191970" points="583.0585,-274.6864 593.6257,-273.9217 584.888,-267.9297 583.0585,-274.6864"/>
</g>
<!-- Node67 -->
<g id="node21" class="node">
<title>Node67</title>
<g id="a_node21"><a xlink:href="task__scheduler_8h.html#ae6c8c745afe69110cc85c56bff00689a" target="_top" xlink:title="_zrtos_task_scheduler\l__set_active_task">
<polygon fill="#ffffff" stroke="#000000" points="571.5,-350.5 571.5,-380.5 686.5,-380.5 686.5,-350.5 571.5,-350.5"/>
<text text-anchor="start" x="579.5" y="-368.5" font-family="Helvetica,sans-Serif" font-size="10.00" fill="#000000">_zrtos_task_scheduler</text>
<text text-anchor="middle" x="629" y="-357.5" font-family="Helvetica,sans-Serif" font-size="10.00" fill="#000000">__set_active_task</text>
</a>
</g>
</g>
<!-- Node64&#45;&gt;Node67 -->
<g id="edge22" class="edge">
<title>Node64&#45;&gt;Node67</title>
<path fill="none" stroke="#191970" d="M477.1794,-254.575C493.2875,-276.3197 525.7916,-316.5044 562,-340.5 564.9349,-342.445 568.0418,-344.2659 571.2465,-345.9662"/>
<polygon fill="#191970" stroke="#191970" points="569.9507,-349.2276 580.4757,-350.4422 573.0053,-342.9292 569.9507,-349.2276"/>
</g>
<!-- Node75 -->
<g id="node29" class="node">
<title>Node75</title>
<g id="a_node29"><a xlink:href="task__scheduler_8h.html#acd4741c53776add4b13e4b3bd4d034c1" target="_top" xlink:title="_zrtos_task_scheduler\l__get_sleep_task">
<polygon fill="#ffffff" stroke="#000000" points="571.5,-224.5 571.5,-254.5 686.5,-254.5 686.5,-224.5 571.5,-224.5"/>
<text text-anchor="start" x="579.5" y="-242.5" font-family="Helvetica,sans-Serif" font-size="10.00" fill="#000000">_zrtos_task_scheduler</text>
<text text-anchor="middle" x="629" y="-231.5" font-family="Helvetica,sans-Serif" font-size="10.00" fill="#000000">__get_sleep_task</text>
</a>
</g>
</g>
<!-- Node64&#45;&gt;Node75 -->
<g id="edge31" class="edge">
<title>Node64&#45;&gt;Node75</title>
<path fill="none" stroke="#191970" d="M524.249,-239.5C536.2222,-239.5 548.9405,-239.5 561.235,-239.5"/>
<polygon fill="#191970" stroke="#191970" points="561.437,-243.0001 571.437,-239.5 561.437,-236.0001 561.437,-243.0001"/>
</g>
<!-- Node68 -->
<g id="node22" class="node">
<title>Node68</title>
<g id="a_node22"><a xlink:href="task__scheduler_8h.html#ac07ede37ac8af0c3d77478c3362c5098" target="_top" xlink:title="zrtos_task_scheduler\l__page_task_out">
<polygon fill="#ffffff" stroke="#000000" points="733,-249.5 733,-279.5 843,-279.5 843,-249.5 733,-249.5"/>
<text text-anchor="start" x="741" y="-267.5" font-family="Helvetica,sans-Serif" font-size="10.00" fill="#000000">zrtos_task_scheduler</text>
<text text-anchor="middle" x="788" y="-256.5" font-family="Helvetica,sans-Serif" font-size="10.00" fill="#000000">__page_task_out</text>
</a>
</g>
</g>
<!-- Node67&#45;&gt;Node68 -->
<g id="edge23" class="edge">
<title>Node67&#45;&gt;Node68</title>
<path fill="none" stroke="#191970" d="M675.6956,-350.3804C682.679,-347.4666 689.657,-344.1637 696,-340.5 721.8248,-325.5835 747.6965,-303.4114 765.3967,-286.8601"/>
<polygon fill="#191970" stroke="#191970" points="768.0927,-289.1261 772.9246,-279.6973 763.2674,-284.0549 768.0927,-289.1261"/>
</g>
<!-- Node71 -->
<g id="node25" class="node">
<title>Node71</title>
<g id="a_node25"><a xlink:href="task__scheduler_8h.html#ac7d131d142e0c3285a06b925e1d39fe1" target="_top" xlink:title="zrtos_task_scheduler\l__page_task_in">
<polygon fill="#ffffff" stroke="#000000" points="733,-350.5 733,-380.5 843,-380.5 843,-350.5 733,-350.5"/>
<text text-anchor="start" x="741" y="-368.5" font-family="Helvetica,sans-Serif" font-size="10.00" fill="#000000">zrtos_task_scheduler</text>
<text text-anchor="middle" x="788" y="-357.5" font-family="Helvetica,sans-Serif" font-size="10.00" fill="#000000">__page_task_in</text>
</a>
</g>
</g>
<!-- Node67&#45;&gt;Node71 -->
<g id="edge27" class="edge">
<title>Node67&#45;&gt;Node71</title>
<path fill="none" stroke="#191970" d="M686.8524,-365.5C698.4587,-365.5 710.7312,-365.5 722.5734,-365.5"/>
<polygon fill="#191970" stroke="#191970" points="722.8419,-369.0001 732.8418,-365.5 722.8418,-362.0001 722.8419,-369.0001"/>
</g>
<!-- Node68&#45;&gt;Node49 -->
<g id="edge24" class="edge">
<title>Node68&#45;&gt;Node49</title>
<path fill="none" stroke="#191970" d="M822.6738,-249.3577C846.033,-239.1565 877.0371,-225.6167 902.1144,-214.6652"/>
<polygon fill="#191970" stroke="#191970" points="903.6436,-217.8167 911.4071,-210.607 900.8421,-211.4017 903.6436,-217.8167"/>
</g>
<!-- Node69 -->
<g id="node23" class="node">
<title>Node69</title>
<g id="a_node23"><a xlink:href="task_8h.html#a6e268bf35f1b190f4cc63eab16068d9e" target="_top" xlink:title="zrtos_task__set_stack_ptr">
<polygon fill="#ffffff" stroke="#000000" points="880,-236 880,-255 1012,-255 1012,-236 880,-236"/>
<text text-anchor="middle" x="946" y="-243" font-family="Helvetica,sans-Serif" font-size="10.00" fill="#000000">zrtos_task__set_stack_ptr</text>
</a>
</g>
</g>
<!-- Node68&#45;&gt;Node69 -->
<g id="edge25" class="edge">
<title>Node68&#45;&gt;Node69</title>
<path fill="none" stroke="#191970" d="M843.2607,-257.8547C851.86,-256.8206 860.8731,-255.7368 869.8373,-254.6588"/>
<polygon fill="#191970" stroke="#191970" points="870.4023,-258.1162 879.9128,-253.4472 869.5664,-251.1662 870.4023,-258.1162"/>
</g>
<!-- Node70 -->
<g id="node24" class="node">
<title>Node70</title>
<g id="a_node24"><a xlink:href="task_8h.html#a06873ce7299989184f846b48d2cad810" target="_top" xlink:title="zrtos_task__set_errno">
<polygon fill="#ffffff" stroke="#000000" points="889.5,-274 889.5,-293 1002.5,-293 1002.5,-274 889.5,-274"/>
<text text-anchor="middle" x="946" y="-281" font-family="Helvetica,sans-Serif" font-size="10.00" fill="#000000">zrtos_task__set_errno</text>
</a>
</g>
</g>
<!-- Node68&#45;&gt;Node70 -->
<g id="edge26" class="edge">
<title>Node68&#45;&gt;Node70</title>
<path fill="none" stroke="#191970" d="M843.2607,-271.1453C854.9406,-272.5498 867.3837,-274.0461 879.4311,-275.4949"/>
<polygon fill="#191970" stroke="#191970" points="879.0861,-278.9785 889.4325,-276.6976 879.922,-272.0286 879.0861,-278.9785"/>
</g>
<!-- Node72 -->
<g id="node26" class="node">
<title>Node72</title>
<g id="a_node26"><a xlink:href="clist_8h.html#aa49bd33d74422329134a7793b1284e80" target="_top" xlink:title="zrtos_clist__set_root">
<polygon fill="#ffffff" stroke="#000000" points="892.5,-394 892.5,-413 999.5,-413 999.5,-394 892.5,-394"/>
<text text-anchor="middle" x="946" y="-401" font-family="Helvetica,sans-Serif" font-size="10.00" fill="#000000">zrtos_clist__set_root</text>
</a>
</g>
</g>
<!-- Node71&#45;&gt;Node72 -->
<g id="edge28" class="edge">
<title>Node71&#45;&gt;Node72</title>
<path fill="none" stroke="#191970" d="M843.2607,-378.7906C860.5052,-382.938 879.4134,-387.4855 896.2557,-391.5362"/>
<polygon fill="#191970" stroke="#191970" points="895.9009,-395.0506 906.4421,-393.9861 897.5378,-388.2446 895.9009,-395.0506"/>
</g>
<!-- Node73 -->
<g id="node27" class="node">
<title>Node73</title>
<g id="a_node27"><a xlink:href="task_8h.html#a3d68cbcbba4cc8f46e3649dade9ad3d6" target="_top" xlink:title="zrtos_task__get_stack_ptr">
<polygon fill="#ffffff" stroke="#000000" points="880,-356 880,-375 1012,-375 1012,-356 880,-356"/>
<text text-anchor="middle" x="946" y="-363" font-family="Helvetica,sans-Serif" font-size="10.00" fill="#000000">zrtos_task__get_stack_ptr</text>
</a>
</g>
</g>
<!-- Node71&#45;&gt;Node73 -->
<g id="edge29" class="edge">
<title>Node71&#45;&gt;Node73</title>
<path fill="none" stroke="#191970" d="M843.2607,-365.5C851.86,-365.5 860.8731,-365.5 869.8373,-365.5"/>
<polygon fill="#191970" stroke="#191970" points="869.9129,-369.0001 879.9128,-365.5 869.9128,-362.0001 869.9129,-369.0001"/>
</g>
<!-- Node74 -->
<g id="node28" class="node">
<title>Node74</title>
<g id="a_node28"><a xlink:href="task_8h.html#a6d97ac60e5777143b600124289cc9de0" target="_top" xlink:title="zrtos_task__get_errno">
<polygon fill="#ffffff" stroke="#000000" points="889.5,-318 889.5,-337 1002.5,-337 1002.5,-318 889.5,-318"/>
<text text-anchor="middle" x="946" y="-325" font-family="Helvetica,sans-Serif" font-size="10.00" fill="#000000">zrtos_task__get_errno</text>
</a>
</g>
</g>
<!-- Node71&#45;&gt;Node74 -->
<g id="edge30" class="edge">
<title>Node71&#45;&gt;Node74</title>
<path fill="none" stroke="#191970" d="M843.2607,-352.2094C860.5052,-348.062 879.4134,-343.5145 896.2557,-339.4638"/>
<polygon fill="#191970" stroke="#191970" points="897.5378,-342.7554 906.4421,-337.0139 895.9009,-335.9494 897.5378,-342.7554"/>
</g>
</g>
</svg>
