<?xml version="1.0" encoding="UTF-8" standalone="no"?>
<!DOCTYPE svg PUBLIC "-//W3C//DTD SVG 1.1//EN"
 "http://www.w3.org/Graphics/SVG/1.1/DTD/svg11.dtd">
<!-- Generated by graphviz version 2.40.1 (20161225.0304)
 -->
<!-- Title: zrtos_task_scheduler__delay_ms Pages: 1 -->
<svg width="1219pt" height="329pt"
 viewBox="0.00 0.00 1219.00 329.00" xmlns="http://www.w3.org/2000/svg" xmlns:xlink="http://www.w3.org/1999/xlink">
<g id="graph0" class="graph" transform="scale(1 1) rotate(0) translate(4 325)">
<title>zrtos_task_scheduler__delay_ms</title>
<polygon fill="#ffffff" stroke="transparent" points="-4,4 -4,-325 1215,-325 1215,4 -4,4"/>
<!-- Node151 -->
<g id="node1" class="node">
<title>Node151</title>
<polygon fill="#bfbfbf" stroke="#000000" points="0,-258 0,-288 110,-288 110,-258 0,-258"/>
<text text-anchor="start" x="8" y="-276" font-family="Helvetica,sans-Serif" font-size="10.00" fill="#000000">zrtos_task_scheduler</text>
<text text-anchor="middle" x="55" y="-265" font-family="Helvetica,sans-Serif" font-size="10.00" fill="#000000">__delay_ms</text>
</g>
<!-- Node152 -->
<g id="node2" class="node">
<title>Node152</title>
<g id="a_node2"><a xlink:href="task_8h.html#ab94dfaf652c3dd1dd48e1b21972edcf9" target="_top" xlink:title="zrtos_task__set_delay_ms">
<polygon fill="#ffffff" stroke="#000000" points="146,-301.5 146,-320.5 280,-320.5 280,-301.5 146,-301.5"/>
<text text-anchor="middle" x="213" y="-308.5" font-family="Helvetica,sans-Serif" font-size="10.00" fill="#000000">zrtos_task__set_delay_ms</text>
</a>
</g>
</g>
<!-- Node151&#45;&gt;Node152 -->
<g id="edge1" class="edge">
<title>Node151&#45;&gt;Node152</title>
<path fill="none" stroke="#191970" d="M110.2607,-286.2906C127.5052,-290.438 146.4134,-294.9855 163.2557,-299.0362"/>
<polygon fill="#191970" stroke="#191970" points="162.9009,-302.5506 173.4421,-301.4861 164.5378,-295.7446 162.9009,-302.5506"/>
</g>
<!-- Node153 -->
<g id="node3" class="node">
<title>Node153</title>
<g id="a_node3"><a xlink:href="task__scheduler_8h.html#ab70567884a5fe24345f654d1213b0699" target="_top" xlink:title="_zrtos_task_scheduler\l__get_active_task">
<polygon fill="#ffffff" stroke="#000000" points="944.5,-220 944.5,-250 1059.5,-250 1059.5,-220 944.5,-220"/>
<text text-anchor="start" x="952.5" y="-238" font-family="Helvetica,sans-Serif" font-size="10.00" fill="#000000">_zrtos_task_scheduler</text>
<text text-anchor="middle" x="1002" y="-227" font-family="Helvetica,sans-Serif" font-size="10.00" fill="#000000">__get_active_task</text>
</a>
</g>
</g>
<!-- Node151&#45;&gt;Node153 -->
<g id="edge2" class="edge">
<title>Node151&#45;&gt;Node153</title>
<path fill="none" stroke="#191970" d="M110.237,-273C173.7544,-273 281.1571,-273 373.5,-273 373.5,-273 373.5,-273 685,-273 780.7878,-273 805.2273,-271.9086 900,-258 911.1826,-256.3589 922.9591,-254.1555 934.3792,-251.7606"/>
<polygon fill="#191970" stroke="#191970" points="935.2649,-255.15 944.2995,-249.6159 933.7857,-248.3081 935.2649,-255.15"/>
</g>
<!-- Node155 -->
<g id="node5" class="node">
<title>Node155</title>
<g id="a_node5"><a xlink:href="task__scheduler_8h.html#a8f15f366e9ce3328539ee562fd4c1e73" target="_top" xlink:title="_zrtos_task_scheduler\l__on_tick_ex">
<polygon fill="#ffffff" stroke="#000000" points="155.5,-214 155.5,-244 270.5,-244 270.5,-214 155.5,-214"/>
<text text-anchor="start" x="163.5" y="-232" font-family="Helvetica,sans-Serif" font-size="10.00" fill="#000000">_zrtos_task_scheduler</text>
<text text-anchor="middle" x="213" y="-221" font-family="Helvetica,sans-Serif" font-size="10.00" fill="#000000">__on_tick_ex</text>
</a>
</g>
</g>
<!-- Node151&#45;&gt;Node155 -->
<g id="edge4" class="edge">
<title>Node151&#45;&gt;Node155</title>
<path fill="none" stroke="#191970" d="M108.9327,-257.9808C121.9533,-254.3548 135.9874,-250.4466 149.4047,-246.7101"/>
<polygon fill="#191970" stroke="#191970" points="150.3478,-250.0807 159.0423,-244.0262 148.4699,-243.3373 150.3478,-250.0807"/>
</g>
<!-- Node154 -->
<g id="node4" class="node">
<title>Node154</title>
<g id="a_node4"><a xlink:href="clist_8h.html#afb7e643d242da19562a3584abcfca015" target="_top" xlink:title="zrtos_clist__get_root">
<polygon fill="#ffffff" stroke="#000000" points="1104,-225.5 1104,-244.5 1211,-244.5 1211,-225.5 1104,-225.5"/>
<text text-anchor="middle" x="1157.5" y="-232.5" font-family="Helvetica,sans-Serif" font-size="10.00" fill="#000000">zrtos_clist__get_root</text>
</a>
</g>
</g>
<!-- Node153&#45;&gt;Node154 -->
<g id="edge3" class="edge">
<title>Node153&#45;&gt;Node154</title>
<path fill="none" stroke="#191970" d="M1059.9025,-235C1070.943,-235 1082.5558,-235 1093.7665,-235"/>
<polygon fill="#191970" stroke="#191970" points="1093.9211,-238.5001 1103.9211,-235 1093.9211,-231.5001 1093.9211,-238.5001"/>
</g>
<!-- Node156 -->
<g id="node6" class="node">
<title>Node156</title>
<g id="a_node6"><a xlink:href="task__scheduler_8h.html#ab670d7e1ab8db82279714a56efc3c99a" target="_top" xlink:title="_zrtos_task_scheduler\l__on_tick">
<polygon fill="#ffffff" stroke="#000000" points="316,-179 316,-209 431,-209 431,-179 316,-179"/>
<text text-anchor="start" x="324" y="-197" font-family="Helvetica,sans-Serif" font-size="10.00" fill="#000000">_zrtos_task_scheduler</text>
<text text-anchor="middle" x="373.5" y="-186" font-family="Helvetica,sans-Serif" font-size="10.00" fill="#000000">__on_tick</text>
</a>
</g>
</g>
<!-- Node155&#45;&gt;Node156 -->
<g id="edge5" class="edge">
<title>Node155&#45;&gt;Node156</title>
<path fill="none" stroke="#191970" d="M270.9442,-216.3642C282.2642,-213.8956 294.2275,-211.2868 305.8309,-208.7565"/>
<polygon fill="#191970" stroke="#191970" points="306.8854,-212.1089 315.91,-206.5586 305.3939,-205.2696 306.8854,-212.1089"/>
</g>
<!-- Node157 -->
<g id="node7" class="node">
<title>Node157</title>
<g id="a_node7"><a xlink:href="task__scheduler_8h.html#aa63cd785e44d31b9ae87297fad4de032" target="_top" xlink:title="_zrtos_task_scheduler\l__switch_task">
<polygon fill="#ffffff" stroke="#000000" points="467,-144 467,-174 582,-174 582,-144 467,-144"/>
<text text-anchor="start" x="475" y="-162" font-family="Helvetica,sans-Serif" font-size="10.00" fill="#000000">_zrtos_task_scheduler</text>
<text text-anchor="middle" x="524.5" y="-151" font-family="Helvetica,sans-Serif" font-size="10.00" fill="#000000">__switch_task</text>
</a>
</g>
</g>
<!-- Node156&#45;&gt;Node157 -->
<g id="edge6" class="edge">
<title>Node156&#45;&gt;Node157</title>
<path fill="none" stroke="#191970" d="M431.0174,-180.6682C439.5557,-178.6891 448.4197,-176.6345 457.1374,-174.6138"/>
<polygon fill="#191970" stroke="#191970" points="457.9411,-178.0204 466.8925,-172.3527 456.3605,-171.2012 457.9411,-178.0204"/>
</g>
<!-- Node157&#45;&gt;Node153 -->
<g id="edge7" class="edge">
<title>Node157&#45;&gt;Node153</title>
<path fill="none" stroke="#191970" d="M542.8349,-174.0426C560.7686,-187.7735 589.4719,-207.2236 618,-216 724.6956,-248.8241 855.8703,-246.87 934.0045,-241.5692"/>
<polygon fill="#191970" stroke="#191970" points="934.477,-245.0444 944.2009,-240.8378 933.9761,-238.0623 934.477,-245.0444"/>
</g>
<!-- Node158 -->
<g id="node8" class="node">
<title>Node158</title>
<g id="a_node8"><a xlink:href="task_8h.html#a3167eade7e7faf3fc23d540b9888aaf9" target="_top" xlink:title="zrtos_task__on_tick">
<polygon fill="#ffffff" stroke="#000000" points="633,-187.5 633,-206.5 737,-206.5 737,-187.5 633,-187.5"/>
<text text-anchor="middle" x="685" y="-194.5" font-family="Helvetica,sans-Serif" font-size="10.00" fill="#000000">zrtos_task__on_tick</text>
</a>
</g>
</g>
<!-- Node157&#45;&gt;Node158 -->
<g id="edge8" class="edge">
<title>Node157&#45;&gt;Node158</title>
<path fill="none" stroke="#191970" d="M582.4442,-172.7189C599.5467,-176.7681 618.1174,-181.1649 634.6971,-185.0903"/>
<polygon fill="#191970" stroke="#191970" points="634.1947,-188.568 644.7321,-187.4662 635.8075,-181.7563 634.1947,-188.568"/>
</g>
<!-- Node159 -->
<g id="node9" class="node">
<title>Node159</title>
<g id="a_node9"><a xlink:href="task_8h.html#a2051d6d2075855207e5aab40a5f93c6c" target="_top" xlink:title="zrtos_task__get_next_task">
<polygon fill="#ffffff" stroke="#000000" points="618,-149.5 618,-168.5 752,-168.5 752,-149.5 618,-149.5"/>
<text text-anchor="middle" x="685" y="-156.5" font-family="Helvetica,sans-Serif" font-size="10.00" fill="#000000">zrtos_task__get_next_task</text>
</a>
</g>
</g>
<!-- Node157&#45;&gt;Node159 -->
<g id="edge9" class="edge">
<title>Node157&#45;&gt;Node159</title>
<path fill="none" stroke="#191970" d="M582.4442,-159C590.6152,-159 599.1214,-159 607.5855,-159"/>
<polygon fill="#191970" stroke="#191970" points="607.8635,-162.5001 617.8635,-159 607.8635,-155.5001 607.8635,-162.5001"/>
</g>
<!-- Node161 -->
<g id="node11" class="node">
<title>Node161</title>
<g id="a_node11"><a xlink:href="task_8h.html#a886f2c097ab9830c80f6d0137c7bd526" target="_top" xlink:title="zrtos_task__is_ready">
<polygon fill="#ffffff" stroke="#000000" points="630,-111.5 630,-130.5 740,-130.5 740,-111.5 630,-111.5"/>
<text text-anchor="middle" x="685" y="-118.5" font-family="Helvetica,sans-Serif" font-size="10.00" fill="#000000">zrtos_task__is_ready</text>
</a>
</g>
</g>
<!-- Node157&#45;&gt;Node161 -->
<g id="edge11" class="edge">
<title>Node157&#45;&gt;Node161</title>
<path fill="none" stroke="#191970" d="M582.4442,-145.2811C599.5467,-141.2319 618.1174,-136.8351 634.6971,-132.9097"/>
<polygon fill="#191970" stroke="#191970" points="635.8075,-136.2437 644.7321,-130.5338 634.1947,-129.432 635.8075,-136.2437"/>
</g>
<!-- Node162 -->
<g id="node12" class="node">
<title>Node162</title>
<g id="a_node12"><a xlink:href="task__scheduler_8h.html#ae6c8c745afe69110cc85c56bff00689a" target="_top" xlink:title="_zrtos_task_scheduler\l__set_active_task">
<polygon fill="#ffffff" stroke="#000000" points="627.5,-62 627.5,-92 742.5,-92 742.5,-62 627.5,-62"/>
<text text-anchor="start" x="635.5" y="-80" font-family="Helvetica,sans-Serif" font-size="10.00" fill="#000000">_zrtos_task_scheduler</text>
<text text-anchor="middle" x="685" y="-69" font-family="Helvetica,sans-Serif" font-size="10.00" fill="#000000">__set_active_task</text>
</a>
</g>
</g>
<!-- Node157&#45;&gt;Node162 -->
<g id="edge12" class="edge">
<title>Node157&#45;&gt;Node162</title>
<path fill="none" stroke="#191970" d="M546.4953,-143.9389C565.0277,-131.6581 592.5217,-114.3798 618,-102 622.3097,-99.9059 626.8428,-97.8751 631.4338,-95.9359"/>
<polygon fill="#191970" stroke="#191970" points="632.9403,-99.1017 640.8861,-92.0936 630.3042,-92.617 632.9403,-99.1017"/>
</g>
<!-- Node170 -->
<g id="node20" class="node">
<title>Node170</title>
<g id="a_node20"><a xlink:href="task__scheduler_8h.html#acd4741c53776add4b13e4b3bd4d034c1" target="_top" xlink:title="_zrtos_task_scheduler\l__get_sleep_task">
<polygon fill="#ffffff" stroke="#000000" points="627.5,-13 627.5,-43 742.5,-43 742.5,-13 627.5,-13"/>
<text text-anchor="start" x="635.5" y="-31" font-family="Helvetica,sans-Serif" font-size="10.00" fill="#000000">_zrtos_task_scheduler</text>
<text text-anchor="middle" x="685" y="-20" font-family="Helvetica,sans-Serif" font-size="10.00" fill="#000000">__get_sleep_task</text>
</a>
</g>
</g>
<!-- Node157&#45;&gt;Node170 -->
<g id="edge21" class="edge">
<title>Node157&#45;&gt;Node170</title>
<path fill="none" stroke="#191970" d="M534.1214,-143.686C549.2941,-120.7011 580.9007,-77.2884 618,-52 620.2668,-50.4548 622.6444,-48.9972 625.0965,-47.6234"/>
<polygon fill="#191970" stroke="#191970" points="626.8865,-50.6406 634.2368,-43.0102 623.7323,-44.3915 626.8865,-50.6406"/>
</g>
<!-- Node160 -->
<g id="node10" class="node">
<title>Node160</title>
<g id="a_node10"><a xlink:href="clist_8h.html#a2f867bef78a818daa14ead2547bb531d" target="_top" xlink:title="zrtos_clist_node__get\l_next_node">
<polygon fill="#ffffff" stroke="#000000" points="788,-158 788,-188 900,-188 900,-158 788,-158"/>
<text text-anchor="start" x="796" y="-176" font-family="Helvetica,sans-Serif" font-size="10.00" fill="#000000">zrtos_clist_node__get</text>
<text text-anchor="middle" x="844" y="-165" font-family="Helvetica,sans-Serif" font-size="10.00" fill="#000000">_next_node</text>
</a>
</g>
</g>
<!-- Node159&#45;&gt;Node160 -->
<g id="edge10" class="edge">
<title>Node159&#45;&gt;Node160</title>
<path fill="none" stroke="#191970" d="M752.4303,-164.9373C760.8546,-165.679 769.464,-166.4371 777.8682,-167.1771"/>
<polygon fill="#191970" stroke="#191970" points="777.723,-170.6777 787.9915,-168.0684 778.337,-163.7047 777.723,-170.6777"/>
</g>
<!-- Node163 -->
<g id="node13" class="node">
<title>Node163</title>
<g id="a_node13"><a xlink:href="task__scheduler_8h.html#ac07ede37ac8af0c3d77478c3362c5098" target="_top" xlink:title="zrtos_task_scheduler\l__page_task_out">
<polygon fill="#ffffff" stroke="#000000" points="789,-109 789,-139 899,-139 899,-109 789,-109"/>
<text text-anchor="start" x="797" y="-127" font-family="Helvetica,sans-Serif" font-size="10.00" fill="#000000">zrtos_task_scheduler</text>
<text text-anchor="middle" x="844" y="-116" font-family="Helvetica,sans-Serif" font-size="10.00" fill="#000000">__page_task_out</text>
</a>
</g>
</g>
<!-- Node162&#45;&gt;Node163 -->
<g id="edge13" class="edge">
<title>Node162&#45;&gt;Node163</title>
<path fill="none" stroke="#191970" d="M735.7458,-92.0003C750.9489,-96.4943 767.7734,-101.4676 783.537,-106.1273"/>
<polygon fill="#191970" stroke="#191970" points="782.609,-109.5026 793.191,-108.981 784.5934,-102.7898 782.609,-109.5026"/>
</g>
<!-- Node166 -->
<g id="node16" class="node">
<title>Node166</title>
<g id="a_node16"><a xlink:href="task__scheduler_8h.html#ac7d131d142e0c3285a06b925e1d39fe1" target="_top" xlink:title="zrtos_task_scheduler\l__page_task_in">
<polygon fill="#ffffff" stroke="#000000" points="789,-47 789,-77 899,-77 899,-47 789,-47"/>
<text text-anchor="start" x="797" y="-65" font-family="Helvetica,sans-Serif" font-size="10.00" fill="#000000">zrtos_task_scheduler</text>
<text text-anchor="middle" x="844" y="-54" font-family="Helvetica,sans-Serif" font-size="10.00" fill="#000000">__page_task_in</text>
</a>
</g>
</g>
<!-- Node162&#45;&gt;Node166 -->
<g id="edge17" class="edge">
<title>Node162&#45;&gt;Node166</title>
<path fill="none" stroke="#191970" d="M742.8524,-71.5422C754.4587,-70.4473 766.7312,-69.2895 778.5734,-68.1723"/>
<polygon fill="#191970" stroke="#191970" points="779.2148,-71.6274 788.8418,-67.2036 778.5573,-64.6584 779.2148,-71.6274"/>
</g>
<!-- Node163&#45;&gt;Node153 -->
<g id="edge14" class="edge">
<title>Node163&#45;&gt;Node153</title>
<path fill="none" stroke="#191970" d="M883.7262,-139.031C889.3496,-141.725 894.9352,-144.7291 900,-148 918.2334,-159.7752 919.5941,-166.7888 936,-181 948.6381,-191.9474 962.9704,-203.7454 975.0425,-213.5128"/>
<polygon fill="#191970" stroke="#191970" points="973.0071,-216.3675 982.9904,-219.915 977.3984,-210.9161 973.0071,-216.3675"/>
</g>
<!-- Node164 -->
<g id="node14" class="node">
<title>Node164</title>
<g id="a_node14"><a xlink:href="task_8h.html#a6e268bf35f1b190f4cc63eab16068d9e" target="_top" xlink:title="zrtos_task__set_stack_ptr">
<polygon fill="#ffffff" stroke="#000000" points="936,-152.5 936,-171.5 1068,-171.5 1068,-152.5 936,-152.5"/>
<text text-anchor="middle" x="1002" y="-159.5" font-family="Helvetica,sans-Serif" font-size="10.00" fill="#000000">zrtos_task__set_stack_ptr</text>
</a>
</g>
</g>
<!-- Node163&#45;&gt;Node164 -->
<g id="edge15" class="edge">
<title>Node163&#45;&gt;Node164</title>
<path fill="none" stroke="#191970" d="M899.2607,-137.2906C916.5052,-141.438 935.4134,-145.9855 952.2557,-150.0362"/>
<polygon fill="#191970" stroke="#191970" points="951.9009,-153.5506 962.4421,-152.4861 953.5378,-146.7446 951.9009,-153.5506"/>
</g>
<!-- Node165 -->
<g id="node15" class="node">
<title>Node165</title>
<g id="a_node15"><a xlink:href="task_8h.html#a06873ce7299989184f846b48d2cad810" target="_top" xlink:title="zrtos_task__set_errno">
<polygon fill="#ffffff" stroke="#000000" points="945.5,-114.5 945.5,-133.5 1058.5,-133.5 1058.5,-114.5 945.5,-114.5"/>
<text text-anchor="middle" x="1002" y="-121.5" font-family="Helvetica,sans-Serif" font-size="10.00" fill="#000000">zrtos_task__set_errno</text>
</a>
</g>
</g>
<!-- Node163&#45;&gt;Node165 -->
<g id="edge16" class="edge">
<title>Node163&#45;&gt;Node165</title>
<path fill="none" stroke="#191970" d="M899.2607,-124C910.9406,-124 923.3837,-124 935.4311,-124"/>
<polygon fill="#191970" stroke="#191970" points="935.4326,-127.5001 945.4325,-124 935.4325,-120.5001 935.4326,-127.5001"/>
</g>
<!-- Node167 -->
<g id="node17" class="node">
<title>Node167</title>
<g id="a_node17"><a xlink:href="clist_8h.html#aa49bd33d74422329134a7793b1284e80" target="_top" xlink:title="zrtos_clist__set_root">
<polygon fill="#ffffff" stroke="#000000" points="948.5,-76.5 948.5,-95.5 1055.5,-95.5 1055.5,-76.5 948.5,-76.5"/>
<text text-anchor="middle" x="1002" y="-83.5" font-family="Helvetica,sans-Serif" font-size="10.00" fill="#000000">zrtos_clist__set_root</text>
</a>
</g>
</g>
<!-- Node166&#45;&gt;Node167 -->
<g id="edge18" class="edge">
<title>Node166&#45;&gt;Node167</title>
<path fill="none" stroke="#191970" d="M899.2607,-70.394C911.8298,-72.3033 925.2827,-74.3467 938.1753,-76.3051"/>
<polygon fill="#191970" stroke="#191970" points="937.955,-79.8117 948.3672,-77.8532 939.0062,-72.8911 937.955,-79.8117"/>
</g>
<!-- Node168 -->
<g id="node18" class="node">
<title>Node168</title>
<g id="a_node18"><a xlink:href="task_8h.html#a3d68cbcbba4cc8f46e3649dade9ad3d6" target="_top" xlink:title="zrtos_task__get_stack_ptr">
<polygon fill="#ffffff" stroke="#000000" points="936,-38.5 936,-57.5 1068,-57.5 1068,-38.5 936,-38.5"/>
<text text-anchor="middle" x="1002" y="-45.5" font-family="Helvetica,sans-Serif" font-size="10.00" fill="#000000">zrtos_task__get_stack_ptr</text>
</a>
</g>
</g>
<!-- Node166&#45;&gt;Node168 -->
<g id="edge19" class="edge">
<title>Node166&#45;&gt;Node168</title>
<path fill="none" stroke="#191970" d="M899.2607,-57.1035C907.86,-56.3415 916.8731,-55.5429 925.8373,-54.7486"/>
<polygon fill="#191970" stroke="#191970" points="926.2608,-58.2249 935.9128,-53.8558 925.6429,-51.2522 926.2608,-58.2249"/>
</g>
<!-- Node169 -->
<g id="node19" class="node">
<title>Node169</title>
<g id="a_node19"><a xlink:href="task_8h.html#a6d97ac60e5777143b600124289cc9de0" target="_top" xlink:title="zrtos_task__get_errno">
<polygon fill="#ffffff" stroke="#000000" points="945.5,-.5 945.5,-19.5 1058.5,-19.5 1058.5,-.5 945.5,-.5"/>
<text text-anchor="middle" x="1002" y="-7.5" font-family="Helvetica,sans-Serif" font-size="10.00" fill="#000000">zrtos_task__get_errno</text>
</a>
</g>
</g>
<!-- Node166&#45;&gt;Node169 -->
<g id="edge20" class="edge">
<title>Node166&#45;&gt;Node169</title>
<path fill="none" stroke="#191970" d="M884.1132,-46.9809C900.1684,-41.135 918.8835,-34.5273 936,-29 942.9428,-26.758 950.3372,-24.5024 957.5706,-22.3676"/>
<polygon fill="#191970" stroke="#191970" points="958.6527,-25.698 967.2771,-19.5442 956.6975,-18.9766 958.6527,-25.698"/>
</g>
</g>
</svg>
