<?xml version="1.0" encoding="UTF-8" standalone="no"?>
<!DOCTYPE svg PUBLIC "-//W3C//DTD SVG 1.1//EN"
 "http://www.w3.org/Graphics/SVG/1.1/DTD/svg11.dtd">
<!-- Generated by graphviz version 10.0.1 (20240210.2158)
 -->
<!-- Title: _zrtos_task_scheduler__on_tick_ex Pages: 1 -->
<svg width="726pt" height="178pt"
 viewBox="0.00 0.00 726.25 178.00" xmlns="http://www.w3.org/2000/svg" xmlns:xlink="http://www.w3.org/1999/xlink">
<g id="graph0" class="graph" transform="scale(1 1) rotate(0) translate(4 174)">
<title>_zrtos_task_scheduler__on_tick_ex</title>
<!-- Node1 -->
<g id="Node000001" class="node">
<title>Node1</title>
<g id="a_Node000001"><a xlink:title=" ">
<polygon fill="#999999" stroke="#666666" points="718.25,-107 604,-107 604,-75 718.25,-75 718.25,-107"/>
<text text-anchor="start" x="612" y="-93.5" font-family="Helvetica,sans-Serif" font-size="10.00">_zrtos_task_scheduler</text>
<text text-anchor="middle" x="661.12" y="-81.5" font-family="Helvetica,sans-Serif" font-size="10.00">__on_tick_ex</text>
</a>
</g>
</g>
<!-- Node2 -->
<g id="Node000002" class="node">
<title>Node2</title>
<g id="a_Node000002"><a xlink:href="task__pthread_8h.html#a28a15bba47cab57cbc9f5dac9af99c8b" target="_top" xlink:title=" ">
<polygon fill="white" stroke="#666666" points="547.75,-170 479.25,-170 479.25,-150 547.75,-150 547.75,-170"/>
<text text-anchor="middle" x="513.5" y="-156.5" font-family="Helvetica,sans-Serif" font-size="10.00">pthread_join</text>
</a>
</g>
</g>
<!-- Node1&#45;&gt;Node2 -->
<g id="edge1_Node000001_Node000002" class="edge">
<title>Node1&#45;&gt;Node2</title>
<g id="a_edge1_Node000001_Node000002"><a xlink:title=" ">
<path fill="none" stroke="#63b8ff" d="M622.68,-113.05C606.21,-122.29 586.44,-132.78 568,-141 561.16,-144.05 553.66,-146.96 546.51,-149.55"/>
<polygon fill="#63b8ff" stroke="#63b8ff" points="624.19,-116.21 631.16,-108.23 620.74,-110.13 624.19,-116.21"/>
</a>
</g>
</g>
<!-- Node3 -->
<g id="Node000003" class="node">
<title>Node3</title>
<g id="a_Node000003"><a xlink:href="task__pthread_8h.html#ace168cf0d23cd4b085a2da31b881c750" target="_top" xlink:title=" ">
<polygon fill="white" stroke="#666666" points="563.12,-132 463.88,-132 463.88,-100 563.12,-100 563.12,-132"/>
<text text-anchor="start" x="471.88" y="-118.5" font-family="Helvetica,sans-Serif" font-size="10.00">zrtos_task_pthread</text>
<text text-anchor="middle" x="513.5" y="-106.5" font-family="Helvetica,sans-Serif" font-size="10.00">__trampoline_cb</text>
</a>
</g>
</g>
<!-- Node1&#45;&gt;Node3 -->
<g id="edge2_Node000001_Node000003" class="edge">
<title>Node1&#45;&gt;Node3</title>
<g id="a_edge2_Node000001_Node000003"><a xlink:title=" ">
<path fill="none" stroke="#63b8ff" d="M592.79,-102.56C582.93,-104.25 572.94,-105.97 563.54,-107.58"/>
<polygon fill="#63b8ff" stroke="#63b8ff" points="593.07,-106.06 602.33,-100.92 591.88,-99.16 593.07,-106.06"/>
</a>
</g>
</g>
<!-- Node5 -->
<g id="Node000005" class="node">
<title>Node5</title>
<g id="a_Node000005"><a xlink:href="task__scheduler_8h.html#ae070a60f724cc39d3a4118b57004e82f" target="_top" xlink:title=" ">
<polygon fill="white" stroke="#666666" points="568,-82 459,-82 459,-50 568,-50 568,-82"/>
<text text-anchor="start" x="467" y="-68.5" font-family="Helvetica,sans-Serif" font-size="10.00">zrtos_task_scheduler</text>
<text text-anchor="middle" x="513.5" y="-56.5" font-family="Helvetica,sans-Serif" font-size="10.00">__delay_ms</text>
</a>
</g>
</g>
<!-- Node1&#45;&gt;Node5 -->
<g id="edge4_Node000001_Node000005" class="edge">
<title>Node1&#45;&gt;Node5</title>
<g id="a_edge4_Node000001_Node000005"><a xlink:title=" ">
<path fill="none" stroke="#63b8ff" d="M592.73,-79.43C584.53,-78.02 576.23,-76.6 568.26,-75.23"/>
<polygon fill="#63b8ff" stroke="#63b8ff" points="591.88,-82.84 602.33,-81.08 593.07,-75.94 591.88,-82.84"/>
</a>
</g>
</g>
<!-- Node10 -->
<g id="Node000010" class="node">
<title>Node10</title>
<g id="a_Node000010"><a xlink:href="task__scheduler_8h.html#a1e85f61c031a36a33f08d891597103b2" target="_top" xlink:title=" ">
<polygon fill="white" stroke="#666666" points="568,-32 459,-32 459,0 568,0 568,-32"/>
<text text-anchor="start" x="467" y="-18.5" font-family="Helvetica,sans-Serif" font-size="10.00">zrtos_task_scheduler</text>
<text text-anchor="middle" x="513.5" y="-6.5" font-family="Helvetica,sans-Serif" font-size="10.00">__init</text>
</a>
</g>
</g>
<!-- Node1&#45;&gt;Node10 -->
<g id="edge9_Node000001_Node000010" class="edge">
<title>Node1&#45;&gt;Node10</title>
<g id="a_edge9_Node000001_Node000010"><a xlink:title=" ">
<path fill="none" stroke="#63b8ff" d="M621.17,-69.18C604.86,-60.23 585.63,-49.89 568,-41 562.32,-38.14 556.26,-35.19 550.33,-32.38"/>
<polygon fill="#63b8ff" stroke="#63b8ff" points="619.13,-72.06 629.58,-73.83 622.52,-65.93 619.13,-72.06"/>
</a>
</g>
</g>
<!-- Node4 -->
<g id="Node000004" class="node">
<title>Node4</title>
<g id="a_Node000004"><a xlink:href="task__pthread_8h.html#a091adcef6201bebbf231763328c15286" target="_top" xlink:title=" ">
<polygon fill="white" stroke="#666666" points="402,-126 321.5,-126 321.5,-106 402,-106 402,-126"/>
<text text-anchor="middle" x="361.75" y="-112.5" font-family="Helvetica,sans-Serif" font-size="10.00">pthread_create</text>
</a>
</g>
</g>
<!-- Node3&#45;&gt;Node4 -->
<g id="edge3_Node000003_Node000004" class="edge">
<title>Node3&#45;&gt;Node4</title>
<g id="a_edge3_Node000003_Node000004"><a xlink:title=" ">
<path fill="none" stroke="#63b8ff" d="M452.09,-116C435.36,-116 417.63,-116 402.41,-116"/>
<polygon fill="#63b8ff" stroke="#63b8ff" points="451.95,-119.5 461.95,-116 451.95,-112.5 451.95,-119.5"/>
</a>
</g>
</g>
<!-- Node6 -->
<g id="Node000006" class="node">
<title>Node6</title>
<g id="a_Node000006"><a xlink:href="task__mutex_8h.html#a123e93e1f2eac3befe64178fba0bbcbd" target="_top" xlink:title=" ">
<polygon fill="white" stroke="#666666" points="423,-76 300.5,-76 300.5,-56 423,-56 423,-76"/>
<text text-anchor="middle" x="361.75" y="-62.5" font-family="Helvetica,sans-Serif" font-size="10.00">zrtos_task_mutex__lock</text>
</a>
</g>
</g>
<!-- Node5&#45;&gt;Node6 -->
<g id="edge5_Node000005_Node000006" class="edge">
<title>Node5&#45;&gt;Node6</title>
<g id="a_edge5_Node000005_Node000006"><a xlink:title=" ">
<path fill="none" stroke="#63b8ff" d="M447.35,-66C439.39,-66 431.28,-66 423.4,-66"/>
<polygon fill="#63b8ff" stroke="#63b8ff" points="447.35,-69.5 457.35,-66 447.35,-62.5 447.35,-69.5"/>
</a>
</g>
</g>
<!-- Node7 -->
<g id="Node000007" class="node">
<title>Node7</title>
<g id="a_Node000007"><a xlink:href="task__pthread_8h.html#a12809c44718c21544ceb280dc1a53573" target="_top" xlink:title=" ">
<polygon fill="white" stroke="#666666" points="256.25,-98 152.5,-98 152.5,-78 256.25,-78 256.25,-98"/>
<text text-anchor="middle" x="204.38" y="-84.5" font-family="Helvetica,sans-Serif" font-size="10.00">pthread_mutex_lock</text>
</a>
</g>
</g>
<!-- Node6&#45;&gt;Node7 -->
<g id="edge6_Node000006_Node000007" class="edge">
<title>Node6&#45;&gt;Node7</title>
<g id="a_edge6_Node000006_Node000007"><a xlink:title=" ">
<path fill="none" stroke="#63b8ff" d="M288.9,-76.17C277.93,-77.73 266.81,-79.3 256.42,-80.77"/>
<polygon fill="#63b8ff" stroke="#63b8ff" points="289.32,-79.65 298.73,-74.78 288.34,-72.72 289.32,-79.65"/>
</a>
</g>
</g>
<!-- Node8 -->
<g id="Node000008" class="node">
<title>Node8</title>
<g id="a_Node000008"><a xlink:href="spi__sync_8h.html#acad5edb178ed84b8a1b7b3a877dbcd61" target="_top" xlink:title=" ">
<polygon fill="white" stroke="#666666" points="264.5,-60 144.25,-60 144.25,-28 264.5,-28 264.5,-60"/>
<text text-anchor="start" x="152.25" y="-46.5" font-family="Helvetica,sans-Serif" font-size="10.00">zrtos_vfs_module_spi</text>
<text text-anchor="middle" x="204.38" y="-34.5" font-family="Helvetica,sans-Serif" font-size="10.00">_sync__on_write_helper</text>
</a>
</g>
</g>
<!-- Node6&#45;&gt;Node8 -->
<g id="edge7_Node000006_Node000008" class="edge">
<title>Node6&#45;&gt;Node8</title>
<g id="a_edge7_Node000006_Node000008"><a xlink:title=" ">
<path fill="none" stroke="#63b8ff" d="M288.97,-55.84C280.94,-54.7 272.82,-53.55 264.96,-52.44"/>
<polygon fill="#63b8ff" stroke="#63b8ff" points="288.34,-59.28 298.73,-57.22 289.32,-52.35 288.34,-59.28"/>
</a>
</g>
</g>
<!-- Node9 -->
<g id="Node000009" class="node">
<title>Node9</title>
<g id="a_Node000009"><a xlink:href="sync_8h.html#affc4ed32d5b66e97fb25c63faaf49eed" target="_top" xlink:title=" ">
<polygon fill="white" stroke="#666666" points="108.25,-60 0,-60 0,-28 108.25,-28 108.25,-60"/>
<text text-anchor="start" x="8" y="-46.5" font-family="Helvetica,sans-Serif" font-size="10.00">zrtos_vfs_module_avr</text>
<text text-anchor="middle" x="54.12" y="-34.5" font-family="Helvetica,sans-Serif" font-size="10.00">_spi_sync__on_write</text>
</a>
</g>
</g>
<!-- Node8&#45;&gt;Node9 -->
<g id="edge8_Node000008_Node000009" class="edge">
<title>Node8&#45;&gt;Node9</title>
<g id="a_edge8_Node000008_Node000009"><a xlink:title=" ">
<path fill="none" stroke="#63b8ff" d="M132.51,-44C124.38,-44 116.2,-44 108.36,-44"/>
<polygon fill="#63b8ff" stroke="#63b8ff" points="132.42,-47.5 142.42,-44 132.42,-40.5 132.42,-47.5"/>
</a>
</g>
</g>
</g>
</svg>
