<?xml version="1.0" encoding="UTF-8" standalone="no"?>
<!DOCTYPE svg PUBLIC "-//W3C//DTD SVG 1.1//EN"
 "http://www.w3.org/Graphics/SVG/1.1/DTD/svg11.dtd">
<!-- Generated by graphviz version 2.40.1 (20161225.0304)
 -->
<!-- Title: zrtos_task_mutex__lock Pages: 1 -->
<svg width="1378pt" height="329pt"
 viewBox="0.00 0.00 1378.00 329.00" xmlns="http://www.w3.org/2000/svg" xmlns:xlink="http://www.w3.org/1999/xlink">
<g id="graph0" class="graph" transform="scale(1 1) rotate(0) translate(4 325)">
<title>zrtos_task_mutex__lock</title>
<polygon fill="#ffffff" stroke="transparent" points="-4,4 -4,-325 1374,-325 1374,4 -4,4"/>
<!-- Node7 -->
<g id="node1" class="node">
<title>Node7</title>
<polygon fill="#bfbfbf" stroke="#000000" points="0,-263.5 0,-282.5 123,-282.5 123,-263.5 0,-263.5"/>
<text text-anchor="middle" x="61.5" y="-270.5" font-family="Helvetica,sans-Serif" font-size="10.00" fill="#000000">zrtos_task_mutex__lock</text>
</g>
<!-- Node8 -->
<g id="node2" class="node">
<title>Node8</title>
<g id="a_node2"><a xlink:href="task__scheduler_8h.html#ae070a60f724cc39d3a4118b57004e82f" target="_top" xlink:title="zrtos_task_scheduler\l__delay_ms">
<polygon fill="#ffffff" stroke="#000000" points="159,-258 159,-288 269,-288 269,-258 159,-258"/>
<text text-anchor="start" x="167" y="-276" font-family="Helvetica,sans-Serif" font-size="10.00" fill="#000000">zrtos_task_scheduler</text>
<text text-anchor="middle" x="214" y="-265" font-family="Helvetica,sans-Serif" font-size="10.00" fill="#000000">__delay_ms</text>
</a>
</g>
</g>
<!-- Node7&#45;&gt;Node8 -->
<g id="edge1" class="edge">
<title>Node7&#45;&gt;Node8</title>
<path fill="none" stroke="#191970" d="M123.088,-273C131.4333,-273 140.022,-273 148.4338,-273"/>
<polygon fill="#191970" stroke="#191970" points="148.5784,-276.5001 158.5784,-273 148.5783,-269.5001 148.5784,-276.5001"/>
</g>
<!-- Node9 -->
<g id="node3" class="node">
<title>Node9</title>
<g id="a_node3"><a xlink:href="task_8h.html#ab94dfaf652c3dd1dd48e1b21972edcf9" target="_top" xlink:title="zrtos_task__set_delay_ms">
<polygon fill="#ffffff" stroke="#000000" points="305,-301.5 305,-320.5 439,-320.5 439,-301.5 305,-301.5"/>
<text text-anchor="middle" x="372" y="-308.5" font-family="Helvetica,sans-Serif" font-size="10.00" fill="#000000">zrtos_task__set_delay_ms</text>
</a>
</g>
</g>
<!-- Node8&#45;&gt;Node9 -->
<g id="edge2" class="edge">
<title>Node8&#45;&gt;Node9</title>
<path fill="none" stroke="#191970" d="M269.2607,-286.2906C286.5052,-290.438 305.4134,-294.9855 322.2557,-299.0362"/>
<polygon fill="#191970" stroke="#191970" points="321.9009,-302.5506 332.4421,-301.4861 323.5378,-295.7446 321.9009,-302.5506"/>
</g>
<!-- Node10 -->
<g id="node4" class="node">
<title>Node10</title>
<g id="a_node4"><a xlink:href="task__scheduler_8h.html#ab70567884a5fe24345f654d1213b0699" target="_top" xlink:title="_zrtos_task_scheduler\l__get_active_task">
<polygon fill="#ffffff" stroke="#000000" points="1103.5,-220 1103.5,-250 1218.5,-250 1218.5,-220 1103.5,-220"/>
<text text-anchor="start" x="1111.5" y="-238" font-family="Helvetica,sans-Serif" font-size="10.00" fill="#000000">_zrtos_task_scheduler</text>
<text text-anchor="middle" x="1161" y="-227" font-family="Helvetica,sans-Serif" font-size="10.00" fill="#000000">__get_active_task</text>
</a>
</g>
</g>
<!-- Node8&#45;&gt;Node10 -->
<g id="edge3" class="edge">
<title>Node8&#45;&gt;Node10</title>
<path fill="none" stroke="#191970" d="M269.237,-273C332.7544,-273 440.1571,-273 532.5,-273 532.5,-273 532.5,-273 844,-273 939.7878,-273 964.2273,-271.9086 1059,-258 1070.1826,-256.3589 1081.9591,-254.1555 1093.3792,-251.7606"/>
<polygon fill="#191970" stroke="#191970" points="1094.2649,-255.15 1103.2995,-249.6159 1092.7857,-248.3081 1094.2649,-255.15"/>
</g>
<!-- Node12 -->
<g id="node6" class="node">
<title>Node12</title>
<g id="a_node6"><a xlink:href="task__scheduler_8h.html#a8f15f366e9ce3328539ee562fd4c1e73" target="_top" xlink:title="_zrtos_task_scheduler\l__on_tick_ex">
<polygon fill="#ffffff" stroke="#000000" points="314.5,-214 314.5,-244 429.5,-244 429.5,-214 314.5,-214"/>
<text text-anchor="start" x="322.5" y="-232" font-family="Helvetica,sans-Serif" font-size="10.00" fill="#000000">_zrtos_task_scheduler</text>
<text text-anchor="middle" x="372" y="-221" font-family="Helvetica,sans-Serif" font-size="10.00" fill="#000000">__on_tick_ex</text>
</a>
</g>
</g>
<!-- Node8&#45;&gt;Node12 -->
<g id="edge5" class="edge">
<title>Node8&#45;&gt;Node12</title>
<path fill="none" stroke="#191970" d="M267.9327,-257.9808C280.9533,-254.3548 294.9874,-250.4466 308.4047,-246.7101"/>
<polygon fill="#191970" stroke="#191970" points="309.3478,-250.0807 318.0423,-244.0262 307.4699,-243.3373 309.3478,-250.0807"/>
</g>
<!-- Node11 -->
<g id="node5" class="node">
<title>Node11</title>
<g id="a_node5"><a xlink:href="clist_8h.html#afb7e643d242da19562a3584abcfca015" target="_top" xlink:title="zrtos_clist__get_root">
<polygon fill="#ffffff" stroke="#000000" points="1263,-225.5 1263,-244.5 1370,-244.5 1370,-225.5 1263,-225.5"/>
<text text-anchor="middle" x="1316.5" y="-232.5" font-family="Helvetica,sans-Serif" font-size="10.00" fill="#000000">zrtos_clist__get_root</text>
</a>
</g>
</g>
<!-- Node10&#45;&gt;Node11 -->
<g id="edge4" class="edge">
<title>Node10&#45;&gt;Node11</title>
<path fill="none" stroke="#191970" d="M1218.9025,-235C1229.943,-235 1241.5558,-235 1252.7665,-235"/>
<polygon fill="#191970" stroke="#191970" points="1252.9211,-238.5001 1262.9211,-235 1252.9211,-231.5001 1252.9211,-238.5001"/>
</g>
<!-- Node13 -->
<g id="node7" class="node">
<title>Node13</title>
<g id="a_node7"><a xlink:href="task__scheduler_8h.html#ab670d7e1ab8db82279714a56efc3c99a" target="_top" xlink:title="_zrtos_task_scheduler\l__on_tick">
<polygon fill="#ffffff" stroke="#000000" points="475,-179 475,-209 590,-209 590,-179 475,-179"/>
<text text-anchor="start" x="483" y="-197" font-family="Helvetica,sans-Serif" font-size="10.00" fill="#000000">_zrtos_task_scheduler</text>
<text text-anchor="middle" x="532.5" y="-186" font-family="Helvetica,sans-Serif" font-size="10.00" fill="#000000">__on_tick</text>
</a>
</g>
</g>
<!-- Node12&#45;&gt;Node13 -->
<g id="edge6" class="edge">
<title>Node12&#45;&gt;Node13</title>
<path fill="none" stroke="#191970" d="M429.9442,-216.3642C441.2642,-213.8956 453.2275,-211.2868 464.8309,-208.7565"/>
<polygon fill="#191970" stroke="#191970" points="465.8854,-212.1089 474.91,-206.5586 464.3939,-205.2696 465.8854,-212.1089"/>
</g>
<!-- Node14 -->
<g id="node8" class="node">
<title>Node14</title>
<g id="a_node8"><a xlink:href="task__scheduler_8h.html#aa63cd785e44d31b9ae87297fad4de032" target="_top" xlink:title="_zrtos_task_scheduler\l__switch_task">
<polygon fill="#ffffff" stroke="#000000" points="626,-144 626,-174 741,-174 741,-144 626,-144"/>
<text text-anchor="start" x="634" y="-162" font-family="Helvetica,sans-Serif" font-size="10.00" fill="#000000">_zrtos_task_scheduler</text>
<text text-anchor="middle" x="683.5" y="-151" font-family="Helvetica,sans-Serif" font-size="10.00" fill="#000000">__switch_task</text>
</a>
</g>
</g>
<!-- Node13&#45;&gt;Node14 -->
<g id="edge7" class="edge">
<title>Node13&#45;&gt;Node14</title>
<path fill="none" stroke="#191970" d="M590.0174,-180.6682C598.5557,-178.6891 607.4197,-176.6345 616.1374,-174.6138"/>
<polygon fill="#191970" stroke="#191970" points="616.9411,-178.0204 625.8925,-172.3527 615.3605,-171.2012 616.9411,-178.0204"/>
</g>
<!-- Node14&#45;&gt;Node10 -->
<g id="edge8" class="edge">
<title>Node14&#45;&gt;Node10</title>
<path fill="none" stroke="#191970" d="M701.8349,-174.0426C719.7686,-187.7735 748.4719,-207.2236 777,-216 883.6956,-248.8241 1014.8703,-246.87 1093.0045,-241.5692"/>
<polygon fill="#191970" stroke="#191970" points="1093.477,-245.0444 1103.2009,-240.8378 1092.9761,-238.0623 1093.477,-245.0444"/>
</g>
<!-- Node15 -->
<g id="node9" class="node">
<title>Node15</title>
<g id="a_node9"><a xlink:href="task_8h.html#a3167eade7e7faf3fc23d540b9888aaf9" target="_top" xlink:title="zrtos_task__on_tick">
<polygon fill="#ffffff" stroke="#000000" points="792,-187.5 792,-206.5 896,-206.5 896,-187.5 792,-187.5"/>
<text text-anchor="middle" x="844" y="-194.5" font-family="Helvetica,sans-Serif" font-size="10.00" fill="#000000">zrtos_task__on_tick</text>
</a>
</g>
</g>
<!-- Node14&#45;&gt;Node15 -->
<g id="edge9" class="edge">
<title>Node14&#45;&gt;Node15</title>
<path fill="none" stroke="#191970" d="M741.4442,-172.7189C758.5467,-176.7681 777.1174,-181.1649 793.6971,-185.0903"/>
<polygon fill="#191970" stroke="#191970" points="793.1947,-188.568 803.7321,-187.4662 794.8075,-181.7563 793.1947,-188.568"/>
</g>
<!-- Node16 -->
<g id="node10" class="node">
<title>Node16</title>
<g id="a_node10"><a xlink:href="task_8h.html#a2051d6d2075855207e5aab40a5f93c6c" target="_top" xlink:title="zrtos_task__get_next_task">
<polygon fill="#ffffff" stroke="#000000" points="777,-149.5 777,-168.5 911,-168.5 911,-149.5 777,-149.5"/>
<text text-anchor="middle" x="844" y="-156.5" font-family="Helvetica,sans-Serif" font-size="10.00" fill="#000000">zrtos_task__get_next_task</text>
</a>
</g>
</g>
<!-- Node14&#45;&gt;Node16 -->
<g id="edge10" class="edge">
<title>Node14&#45;&gt;Node16</title>
<path fill="none" stroke="#191970" d="M741.4442,-159C749.6152,-159 758.1214,-159 766.5855,-159"/>
<polygon fill="#191970" stroke="#191970" points="766.8635,-162.5001 776.8635,-159 766.8635,-155.5001 766.8635,-162.5001"/>
</g>
<!-- Node18 -->
<g id="node12" class="node">
<title>Node18</title>
<g id="a_node12"><a xlink:href="task_8h.html#a886f2c097ab9830c80f6d0137c7bd526" target="_top" xlink:title="zrtos_task__is_ready">
<polygon fill="#ffffff" stroke="#000000" points="789,-111.5 789,-130.5 899,-130.5 899,-111.5 789,-111.5"/>
<text text-anchor="middle" x="844" y="-118.5" font-family="Helvetica,sans-Serif" font-size="10.00" fill="#000000">zrtos_task__is_ready</text>
</a>
</g>
</g>
<!-- Node14&#45;&gt;Node18 -->
<g id="edge12" class="edge">
<title>Node14&#45;&gt;Node18</title>
<path fill="none" stroke="#191970" d="M741.4442,-145.2811C758.5467,-141.2319 777.1174,-136.8351 793.6971,-132.9097"/>
<polygon fill="#191970" stroke="#191970" points="794.8075,-136.2437 803.7321,-130.5338 793.1947,-129.432 794.8075,-136.2437"/>
</g>
<!-- Node19 -->
<g id="node13" class="node">
<title>Node19</title>
<g id="a_node13"><a xlink:href="task__scheduler_8h.html#ae6c8c745afe69110cc85c56bff00689a" target="_top" xlink:title="_zrtos_task_scheduler\l__set_active_task">
<polygon fill="#ffffff" stroke="#000000" points="786.5,-62 786.5,-92 901.5,-92 901.5,-62 786.5,-62"/>
<text text-anchor="start" x="794.5" y="-80" font-family="Helvetica,sans-Serif" font-size="10.00" fill="#000000">_zrtos_task_scheduler</text>
<text text-anchor="middle" x="844" y="-69" font-family="Helvetica,sans-Serif" font-size="10.00" fill="#000000">__set_active_task</text>
</a>
</g>
</g>
<!-- Node14&#45;&gt;Node19 -->
<g id="edge13" class="edge">
<title>Node14&#45;&gt;Node19</title>
<path fill="none" stroke="#191970" d="M705.4953,-143.9389C724.0277,-131.6581 751.5217,-114.3798 777,-102 781.3097,-99.9059 785.8428,-97.8751 790.4338,-95.9359"/>
<polygon fill="#191970" stroke="#191970" points="791.9403,-99.1017 799.8861,-92.0936 789.3042,-92.617 791.9403,-99.1017"/>
</g>
<!-- Node27 -->
<g id="node21" class="node">
<title>Node27</title>
<g id="a_node21"><a xlink:href="task__scheduler_8h.html#acd4741c53776add4b13e4b3bd4d034c1" target="_top" xlink:title="_zrtos_task_scheduler\l__get_sleep_task">
<polygon fill="#ffffff" stroke="#000000" points="786.5,-13 786.5,-43 901.5,-43 901.5,-13 786.5,-13"/>
<text text-anchor="start" x="794.5" y="-31" font-family="Helvetica,sans-Serif" font-size="10.00" fill="#000000">_zrtos_task_scheduler</text>
<text text-anchor="middle" x="844" y="-20" font-family="Helvetica,sans-Serif" font-size="10.00" fill="#000000">__get_sleep_task</text>
</a>
</g>
</g>
<!-- Node14&#45;&gt;Node27 -->
<g id="edge22" class="edge">
<title>Node14&#45;&gt;Node27</title>
<path fill="none" stroke="#191970" d="M693.1214,-143.686C708.2941,-120.7011 739.9007,-77.2884 777,-52 779.2668,-50.4548 781.6444,-48.9972 784.0965,-47.6234"/>
<polygon fill="#191970" stroke="#191970" points="785.8865,-50.6406 793.2368,-43.0102 782.7323,-44.3915 785.8865,-50.6406"/>
</g>
<!-- Node17 -->
<g id="node11" class="node">
<title>Node17</title>
<g id="a_node11"><a xlink:href="clist_8h.html#a2f867bef78a818daa14ead2547bb531d" target="_top" xlink:title="zrtos_clist_node__get\l_next_node">
<polygon fill="#ffffff" stroke="#000000" points="947,-158 947,-188 1059,-188 1059,-158 947,-158"/>
<text text-anchor="start" x="955" y="-176" font-family="Helvetica,sans-Serif" font-size="10.00" fill="#000000">zrtos_clist_node__get</text>
<text text-anchor="middle" x="1003" y="-165" font-family="Helvetica,sans-Serif" font-size="10.00" fill="#000000">_next_node</text>
</a>
</g>
</g>
<!-- Node16&#45;&gt;Node17 -->
<g id="edge11" class="edge">
<title>Node16&#45;&gt;Node17</title>
<path fill="none" stroke="#191970" d="M911.4303,-164.9373C919.8546,-165.679 928.464,-166.4371 936.8682,-167.1771"/>
<polygon fill="#191970" stroke="#191970" points="936.723,-170.6777 946.9915,-168.0684 937.337,-163.7047 936.723,-170.6777"/>
</g>
<!-- Node20 -->
<g id="node14" class="node">
<title>Node20</title>
<g id="a_node14"><a xlink:href="task__scheduler_8h.html#ac07ede37ac8af0c3d77478c3362c5098" target="_top" xlink:title="zrtos_task_scheduler\l__page_task_out">
<polygon fill="#ffffff" stroke="#000000" points="948,-109 948,-139 1058,-139 1058,-109 948,-109"/>
<text text-anchor="start" x="956" y="-127" font-family="Helvetica,sans-Serif" font-size="10.00" fill="#000000">zrtos_task_scheduler</text>
<text text-anchor="middle" x="1003" y="-116" font-family="Helvetica,sans-Serif" font-size="10.00" fill="#000000">__page_task_out</text>
</a>
</g>
</g>
<!-- Node19&#45;&gt;Node20 -->
<g id="edge14" class="edge">
<title>Node19&#45;&gt;Node20</title>
<path fill="none" stroke="#191970" d="M894.7458,-92.0003C909.9489,-96.4943 926.7734,-101.4676 942.537,-106.1273"/>
<polygon fill="#191970" stroke="#191970" points="941.609,-109.5026 952.191,-108.981 943.5934,-102.7898 941.609,-109.5026"/>
</g>
<!-- Node23 -->
<g id="node17" class="node">
<title>Node23</title>
<g id="a_node17"><a xlink:href="task__scheduler_8h.html#ac7d131d142e0c3285a06b925e1d39fe1" target="_top" xlink:title="zrtos_task_scheduler\l__page_task_in">
<polygon fill="#ffffff" stroke="#000000" points="948,-47 948,-77 1058,-77 1058,-47 948,-47"/>
<text text-anchor="start" x="956" y="-65" font-family="Helvetica,sans-Serif" font-size="10.00" fill="#000000">zrtos_task_scheduler</text>
<text text-anchor="middle" x="1003" y="-54" font-family="Helvetica,sans-Serif" font-size="10.00" fill="#000000">__page_task_in</text>
</a>
</g>
</g>
<!-- Node19&#45;&gt;Node23 -->
<g id="edge18" class="edge">
<title>Node19&#45;&gt;Node23</title>
<path fill="none" stroke="#191970" d="M901.8524,-71.5422C913.4587,-70.4473 925.7312,-69.2895 937.5734,-68.1723"/>
<polygon fill="#191970" stroke="#191970" points="938.2148,-71.6274 947.8418,-67.2036 937.5573,-64.6584 938.2148,-71.6274"/>
</g>
<!-- Node20&#45;&gt;Node10 -->
<g id="edge15" class="edge">
<title>Node20&#45;&gt;Node10</title>
<path fill="none" stroke="#191970" d="M1042.7262,-139.031C1048.3496,-141.725 1053.9352,-144.7291 1059,-148 1077.2334,-159.7752 1078.5941,-166.7888 1095,-181 1107.6381,-191.9474 1121.9704,-203.7454 1134.0425,-213.5128"/>
<polygon fill="#191970" stroke="#191970" points="1132.0071,-216.3675 1141.9904,-219.915 1136.3984,-210.9161 1132.0071,-216.3675"/>
</g>
<!-- Node21 -->
<g id="node15" class="node">
<title>Node21</title>
<g id="a_node15"><a xlink:href="task_8h.html#a6e268bf35f1b190f4cc63eab16068d9e" target="_top" xlink:title="zrtos_task__set_stack_ptr">
<polygon fill="#ffffff" stroke="#000000" points="1095,-152.5 1095,-171.5 1227,-171.5 1227,-152.5 1095,-152.5"/>
<text text-anchor="middle" x="1161" y="-159.5" font-family="Helvetica,sans-Serif" font-size="10.00" fill="#000000">zrtos_task__set_stack_ptr</text>
</a>
</g>
</g>
<!-- Node20&#45;&gt;Node21 -->
<g id="edge16" class="edge">
<title>Node20&#45;&gt;Node21</title>
<path fill="none" stroke="#191970" d="M1058.2607,-137.2906C1075.5052,-141.438 1094.4134,-145.9855 1111.2557,-150.0362"/>
<polygon fill="#191970" stroke="#191970" points="1110.9009,-153.5506 1121.4421,-152.4861 1112.5378,-146.7446 1110.9009,-153.5506"/>
</g>
<!-- Node22 -->
<g id="node16" class="node">
<title>Node22</title>
<g id="a_node16"><a xlink:href="task_8h.html#a06873ce7299989184f846b48d2cad810" target="_top" xlink:title="zrtos_task__set_errno">
<polygon fill="#ffffff" stroke="#000000" points="1104.5,-114.5 1104.5,-133.5 1217.5,-133.5 1217.5,-114.5 1104.5,-114.5"/>
<text text-anchor="middle" x="1161" y="-121.5" font-family="Helvetica,sans-Serif" font-size="10.00" fill="#000000">zrtos_task__set_errno</text>
</a>
</g>
</g>
<!-- Node20&#45;&gt;Node22 -->
<g id="edge17" class="edge">
<title>Node20&#45;&gt;Node22</title>
<path fill="none" stroke="#191970" d="M1058.2607,-124C1069.9406,-124 1082.3837,-124 1094.4311,-124"/>
<polygon fill="#191970" stroke="#191970" points="1094.4326,-127.5001 1104.4325,-124 1094.4325,-120.5001 1094.4326,-127.5001"/>
</g>
<!-- Node24 -->
<g id="node18" class="node">
<title>Node24</title>
<g id="a_node18"><a xlink:href="clist_8h.html#aa49bd33d74422329134a7793b1284e80" target="_top" xlink:title="zrtos_clist__set_root">
<polygon fill="#ffffff" stroke="#000000" points="1107.5,-76.5 1107.5,-95.5 1214.5,-95.5 1214.5,-76.5 1107.5,-76.5"/>
<text text-anchor="middle" x="1161" y="-83.5" font-family="Helvetica,sans-Serif" font-size="10.00" fill="#000000">zrtos_clist__set_root</text>
</a>
</g>
</g>
<!-- Node23&#45;&gt;Node24 -->
<g id="edge19" class="edge">
<title>Node23&#45;&gt;Node24</title>
<path fill="none" stroke="#191970" d="M1058.2607,-70.394C1070.8298,-72.3033 1084.2827,-74.3467 1097.1753,-76.3051"/>
<polygon fill="#191970" stroke="#191970" points="1096.955,-79.8117 1107.3672,-77.8532 1098.0062,-72.8911 1096.955,-79.8117"/>
</g>
<!-- Node25 -->
<g id="node19" class="node">
<title>Node25</title>
<g id="a_node19"><a xlink:href="task_8h.html#a3d68cbcbba4cc8f46e3649dade9ad3d6" target="_top" xlink:title="zrtos_task__get_stack_ptr">
<polygon fill="#ffffff" stroke="#000000" points="1095,-38.5 1095,-57.5 1227,-57.5 1227,-38.5 1095,-38.5"/>
<text text-anchor="middle" x="1161" y="-45.5" font-family="Helvetica,sans-Serif" font-size="10.00" fill="#000000">zrtos_task__get_stack_ptr</text>
</a>
</g>
</g>
<!-- Node23&#45;&gt;Node25 -->
<g id="edge20" class="edge">
<title>Node23&#45;&gt;Node25</title>
<path fill="none" stroke="#191970" d="M1058.2607,-57.1035C1066.86,-56.3415 1075.8731,-55.5429 1084.8373,-54.7486"/>
<polygon fill="#191970" stroke="#191970" points="1085.2608,-58.2249 1094.9128,-53.8558 1084.6429,-51.2522 1085.2608,-58.2249"/>
</g>
<!-- Node26 -->
<g id="node20" class="node">
<title>Node26</title>
<g id="a_node20"><a xlink:href="task_8h.html#a6d97ac60e5777143b600124289cc9de0" target="_top" xlink:title="zrtos_task__get_errno">
<polygon fill="#ffffff" stroke="#000000" points="1104.5,-.5 1104.5,-19.5 1217.5,-19.5 1217.5,-.5 1104.5,-.5"/>
<text text-anchor="middle" x="1161" y="-7.5" font-family="Helvetica,sans-Serif" font-size="10.00" fill="#000000">zrtos_task__get_errno</text>
</a>
</g>
</g>
<!-- Node23&#45;&gt;Node26 -->
<g id="edge21" class="edge">
<title>Node23&#45;&gt;Node26</title>
<path fill="none" stroke="#191970" d="M1043.1132,-46.9809C1059.1684,-41.135 1077.8835,-34.5273 1095,-29 1101.9428,-26.758 1109.3372,-24.5024 1116.5706,-22.3676"/>
<polygon fill="#191970" stroke="#191970" points="1117.6527,-25.698 1126.2771,-19.5442 1115.6975,-18.9766 1117.6527,-25.698"/>
</g>
</g>
</svg>
