<?xml version="1.0" encoding="UTF-8" standalone="no"?>
<!DOCTYPE svg PUBLIC "-//W3C//DTD SVG 1.1//EN"
 "http://www.w3.org/Graphics/SVG/1.1/DTD/svg11.dtd">
<!-- Generated by graphviz version 2.40.1 (20161225.0304)
 -->
<!-- Title: task_mutex.h Pages: 1 -->
<svg width="839pt" height="263pt"
 viewBox="0.00 0.00 838.50 263.00" xmlns="http://www.w3.org/2000/svg" xmlns:xlink="http://www.w3.org/1999/xlink">
<g id="graph0" class="graph" transform="scale(1 1) rotate(0) translate(4 259)">
<title>task_mutex.h</title>
<polygon fill="#ffffff" stroke="transparent" points="-4,4 -4,-259 834.5,-259 834.5,4 -4,4"/>
<!-- Node0 -->
<g id="node1" class="node">
<title>Node0</title>
<polygon fill="#bfbfbf" stroke="#000000" points="176,-235.5 176,-254.5 252,-254.5 252,-235.5 176,-235.5"/>
<text text-anchor="middle" x="214" y="-242.5" font-family="Helvetica,sans-Serif" font-size="10.00" fill="#000000">task_mutex.h</text>
</g>
<!-- Node1 -->
<g id="node2" class="node">
<title>Node1</title>
<g id="a_node2"><a xlink:href="zrtos_8h.html" target="_top" xlink:title="zrtos/zrtos.h">
<polygon fill="#ffffff" stroke="#000000" points="239.5,-179.5 239.5,-198.5 310.5,-198.5 310.5,-179.5 239.5,-179.5"/>
<text text-anchor="middle" x="275" y="-186.5" font-family="Helvetica,sans-Serif" font-size="10.00" fill="#000000">zrtos/zrtos.h</text>
</a>
</g>
</g>
<!-- Node0&#45;&gt;Node1 -->
<g id="edge1" class="edge">
<title>Node0&#45;&gt;Node1</title>
<path fill="none" stroke="#191970" d="M224.6254,-235.2455C233.5473,-227.0549 246.488,-215.1749 257.0192,-205.5069"/>
<polygon fill="#191970" stroke="#191970" points="259.4968,-207.9837 264.4964,-198.6427 254.7629,-202.8271 259.4968,-207.9837"/>
</g>
<!-- Node20 -->
<g id="node21" class="node">
<title>Node20</title>
<g id="a_node21"><a xlink:href="error_8h.html" target="_top" xlink:title="zrtos/error.h">
<polygon fill="#ffffff" stroke="#000000" points="71.5,-123.5 71.5,-142.5 140.5,-142.5 140.5,-123.5 71.5,-123.5"/>
<text text-anchor="middle" x="106" y="-130.5" font-family="Helvetica,sans-Serif" font-size="10.00" fill="#000000">zrtos/error.h</text>
</a>
</g>
</g>
<!-- Node0&#45;&gt;Node20 -->
<g id="edge21" class="edge">
<title>Node0&#45;&gt;Node20</title>
<path fill="none" stroke="#191970" d="M204.792,-235.4509C186.4601,-216.4401 145.1908,-173.6423 122.2155,-149.816"/>
<polygon fill="#191970" stroke="#191970" points="124.6456,-147.2939 115.1847,-142.5249 119.6066,-152.1528 124.6456,-147.2939"/>
</g>
<!-- Node2 -->
<g id="node3" class="node">
<title>Node2</title>
<g id="a_node3"><a xlink:href="debug_8h.html" target="_top" xlink:title="zrtos/debug.h">
<polygon fill="#ffffff" stroke="#000000" points="192,-123.5 192,-142.5 268,-142.5 268,-123.5 192,-123.5"/>
<text text-anchor="middle" x="230" y="-130.5" font-family="Helvetica,sans-Serif" font-size="10.00" fill="#000000">zrtos/debug.h</text>
</a>
</g>
</g>
<!-- Node1&#45;&gt;Node2 -->
<g id="edge2" class="edge">
<title>Node1&#45;&gt;Node2</title>
<path fill="none" stroke="#191970" d="M267.1616,-179.2455C260.838,-171.3761 251.7776,-160.101 244.1864,-150.6542"/>
<polygon fill="#191970" stroke="#191970" points="246.7408,-148.2454 237.7486,-142.6427 241.2842,-152.6302 246.7408,-148.2454"/>
</g>
<!-- Node3 -->
<g id="node4" class="node">
<title>Node3</title>
<g id="a_node4"><a xlink:href="arch_8h.html" target="_top" xlink:title="zrtos/arch.h">
<polygon fill="#ffffff" stroke="#000000" points="286,-123.5 286,-142.5 354,-142.5 354,-123.5 286,-123.5"/>
<text text-anchor="middle" x="320" y="-130.5" font-family="Helvetica,sans-Serif" font-size="10.00" fill="#000000">zrtos/arch.h</text>
</a>
</g>
</g>
<!-- Node1&#45;&gt;Node3 -->
<g id="edge3" class="edge">
<title>Node1&#45;&gt;Node3</title>
<path fill="none" stroke="#191970" d="M282.8384,-179.2455C289.162,-171.3761 298.2224,-160.101 305.8136,-150.6542"/>
<polygon fill="#191970" stroke="#191970" points="308.7158,-152.6302 312.2514,-142.6427 303.2592,-148.2454 308.7158,-152.6302"/>
</g>
<!-- Node15 -->
<g id="node16" class="node">
<title>Node15</title>
<g id="a_node16"><a xlink:href="board_8h.html" target="_top" xlink:title="zrtos/board.h">
<polygon fill="#ffffff" stroke="#000000" points="590,-123.5 590,-142.5 664,-142.5 664,-123.5 590,-123.5"/>
<text text-anchor="middle" x="627" y="-130.5" font-family="Helvetica,sans-Serif" font-size="10.00" fill="#000000">zrtos/board.h</text>
</a>
</g>
</g>
<!-- Node1&#45;&gt;Node15 -->
<g id="edge16" class="edge">
<title>Node1&#45;&gt;Node15</title>
<path fill="none" stroke="#191970" d="M310.6888,-183.3222C374.5758,-173.1584 508.4582,-151.8589 579.8333,-140.5038"/>
<polygon fill="#191970" stroke="#191970" points="580.5689,-143.9309 589.8947,-138.9031 579.469,-137.0178 580.5689,-143.9309"/>
</g>
<!-- Node4 -->
<g id="node5" class="node">
<title>Node4</title>
<g id="a_node5"><a xlink:href="types_8h.html" target="_top" xlink:title="zrtos/types.h">
<polygon fill="#ffffff" stroke="#000000" points="196,-62 196,-81 270,-81 270,-62 196,-62"/>
<text text-anchor="middle" x="233" y="-69" font-family="Helvetica,sans-Serif" font-size="10.00" fill="#000000">zrtos/types.h</text>
</a>
</g>
</g>
<!-- Node3&#45;&gt;Node4 -->
<g id="edge4" class="edge">
<title>Node3&#45;&gt;Node4</title>
<path fill="none" stroke="#191970" d="M306.4063,-123.3906C292.6157,-113.6421 271.0528,-98.3994 254.859,-86.9521"/>
<polygon fill="#191970" stroke="#191970" points="256.6844,-83.9563 246.4983,-81.0419 252.6437,-89.6723 256.6844,-83.9563"/>
</g>
<!-- Node11 -->
<g id="node12" class="node">
<title>Node11</title>
<g id="a_node12"><a xlink:href="assert_8h.html" target="_top" xlink:title="zrtos/assert.h">
<polygon fill="#ffffff" stroke="#000000" points="100.5,-62 100.5,-81 177.5,-81 177.5,-62 100.5,-62"/>
<text text-anchor="middle" x="139" y="-69" font-family="Helvetica,sans-Serif" font-size="10.00" fill="#000000">zrtos/assert.h</text>
</a>
</g>
</g>
<!-- Node3&#45;&gt;Node11 -->
<g id="edge11" class="edge">
<title>Node3&#45;&gt;Node11</title>
<path fill="none" stroke="#191970" d="M291.7188,-123.3906C260.77,-112.8749 211.0058,-95.966 176.743,-84.3243"/>
<polygon fill="#191970" stroke="#191970" points="177.6771,-80.9452 167.0827,-81.0419 175.425,-87.573 177.6771,-80.9452"/>
</g>
<!-- Node12 -->
<g id="node13" class="node">
<title>Node12</title>
<g id="a_node13"><a xlink:href="atmega328p_8h.html" target="_top" xlink:title="zrtos/arch/atmega328p.h">
<polygon fill="#ffffff" stroke="#000000" points="288.5,-62 288.5,-81 413.5,-81 413.5,-62 288.5,-62"/>
<text text-anchor="middle" x="351" y="-69" font-family="Helvetica,sans-Serif" font-size="10.00" fill="#000000">zrtos/arch/atmega328p.h</text>
</a>
</g>
</g>
<!-- Node3&#45;&gt;Node12 -->
<g id="edge12" class="edge">
<title>Node3&#45;&gt;Node12</title>
<path fill="none" stroke="#191970" d="M324.8438,-123.3906C329.2766,-114.5965 335.9631,-101.3312 341.4659,-90.4145"/>
<polygon fill="#191970" stroke="#191970" points="344.7122,-91.75 346.088,-81.2449 338.4614,-88.5992 344.7122,-91.75"/>
</g>
<!-- Node14 -->
<g id="node15" class="node">
<title>Node14</title>
<g id="a_node15"><a xlink:href="atmega2560_8h.html" target="_top" xlink:title="zrtos/arch/atmega2560.h">
<polygon fill="#ffffff" stroke="#000000" points="431.5,-62 431.5,-81 556.5,-81 556.5,-62 431.5,-62"/>
<text text-anchor="middle" x="494" y="-69" font-family="Helvetica,sans-Serif" font-size="10.00" fill="#000000">zrtos/arch/atmega2560.h</text>
</a>
</g>
</g>
<!-- Node3&#45;&gt;Node14 -->
<g id="edge14" class="edge">
<title>Node3&#45;&gt;Node14</title>
<path fill="none" stroke="#191970" d="M347.1875,-123.3906C376.8117,-112.92 424.3687,-96.1111 457.2918,-84.4745"/>
<polygon fill="#191970" stroke="#191970" points="458.7414,-87.6744 467.0034,-81.0419 456.4086,-81.0745 458.7414,-87.6744"/>
</g>
<!-- Node5 -->
<g id="node6" class="node">
<title>Node5</title>
<polygon fill="#ffffff" stroke="#bfbfbf" points="0,-.5 0,-19.5 56,-19.5 56,-.5 0,-.5"/>
<text text-anchor="middle" x="28" y="-7.5" font-family="Helvetica,sans-Serif" font-size="10.00" fill="#000000">stdbool.h</text>
</g>
<!-- Node4&#45;&gt;Node5 -->
<g id="edge5" class="edge">
<title>Node4&#45;&gt;Node5</title>
<path fill="none" stroke="#191970" d="M204.7186,-61.9943C198.5613,-59.9748 192.0723,-57.8846 186,-56 145.1292,-43.3154 97.994,-29.7262 65.9176,-20.6337"/>
<polygon fill="#191970" stroke="#191970" points="66.6344,-17.1992 56.0593,-17.8464 64.7298,-23.9352 66.6344,-17.1992"/>
</g>
<!-- Node6 -->
<g id="node7" class="node">
<title>Node6</title>
<polygon fill="#ffffff" stroke="#bfbfbf" points="140,-.5 140,-19.5 192,-19.5 192,-.5 140,-.5"/>
<text text-anchor="middle" x="166" y="-7.5" font-family="Helvetica,sans-Serif" font-size="10.00" fill="#000000">stddef.h</text>
</g>
<!-- Node4&#45;&gt;Node6 -->
<g id="edge6" class="edge">
<title>Node4&#45;&gt;Node6</title>
<path fill="none" stroke="#191970" d="M222.5313,-61.8906C212.2663,-52.4683 196.4097,-37.9134 184.0994,-26.6137"/>
<polygon fill="#191970" stroke="#191970" points="186.3501,-23.9287 176.6163,-19.7449 181.6166,-29.0856 186.3501,-23.9287"/>
</g>
<!-- Node7 -->
<g id="node8" class="node">
<title>Node7</title>
<polygon fill="#ffffff" stroke="#bfbfbf" points="210.5,-.5 210.5,-19.5 259.5,-19.5 259.5,-.5 210.5,-.5"/>
<text text-anchor="middle" x="235" y="-7.5" font-family="Helvetica,sans-Serif" font-size="10.00" fill="#000000">stdint.h</text>
</g>
<!-- Node4&#45;&gt;Node7 -->
<g id="edge7" class="edge">
<title>Node4&#45;&gt;Node7</title>
<path fill="none" stroke="#191970" d="M233.3125,-61.8906C233.5897,-53.3657 234.0036,-40.6392 234.3521,-29.9235"/>
<polygon fill="#191970" stroke="#191970" points="237.8561,-29.8534 234.6831,-19.7449 230.8598,-29.6258 237.8561,-29.8534"/>
</g>
<!-- Node8 -->
<g id="node9" class="node">
<title>Node8</title>
<polygon fill="#ffffff" stroke="#bfbfbf" points="74,-.5 74,-19.5 122,-19.5 122,-.5 74,-.5"/>
<text text-anchor="middle" x="98" y="-7.5" font-family="Helvetica,sans-Serif" font-size="10.00" fill="#000000">limits.h</text>
</g>
<!-- Node4&#45;&gt;Node8 -->
<g id="edge8" class="edge">
<title>Node4&#45;&gt;Node8</title>
<path fill="none" stroke="#191970" d="M211.9063,-61.8906C189.4173,-51.6457 153.6082,-35.3326 128.1476,-23.7339"/>
<polygon fill="#191970" stroke="#191970" points="129.4968,-20.5025 118.9456,-19.5419 126.5948,-26.8727 129.4968,-20.5025"/>
</g>
<!-- Node9 -->
<g id="node10" class="node">
<title>Node9</title>
<polygon fill="#ffffff" stroke="#bfbfbf" points="277.5,-.5 277.5,-19.5 336.5,-19.5 336.5,-.5 277.5,-.5"/>
<text text-anchor="middle" x="307" y="-7.5" font-family="Helvetica,sans-Serif" font-size="10.00" fill="#000000">stdalign.h</text>
</g>
<!-- Node4&#45;&gt;Node9 -->
<g id="edge9" class="edge">
<title>Node4&#45;&gt;Node9</title>
<path fill="none" stroke="#191970" d="M244.5625,-61.8906C256.0079,-52.3786 273.7473,-37.6357 287.397,-26.2917"/>
<polygon fill="#191970" stroke="#191970" points="289.8208,-28.8283 295.2745,-19.7449 285.3467,-23.4447 289.8208,-28.8283"/>
</g>
<!-- Node10 -->
<g id="node11" class="node">
<title>Node10</title>
<g id="a_node11"><a xlink:href="cast_8h.html" target="_top" xlink:title="zrtos/cast.h">
<polygon fill="#ffffff" stroke="#000000" points="355,-.5 355,-19.5 423,-19.5 423,-.5 355,-.5"/>
<text text-anchor="middle" x="389" y="-7.5" font-family="Helvetica,sans-Serif" font-size="10.00" fill="#000000">zrtos/cast.h</text>
</a>
</g>
</g>
<!-- Node4&#45;&gt;Node10 -->
<g id="edge10" class="edge">
<title>Node4&#45;&gt;Node10</title>
<path fill="none" stroke="#191970" d="M257.375,-61.8906C283.7056,-51.5103 325.838,-34.9004 355.3229,-23.2766"/>
<polygon fill="#191970" stroke="#191970" points="356.7767,-26.4657 364.7962,-19.5419 354.2093,-19.9534 356.7767,-26.4657"/>
</g>
<!-- Node13 -->
<g id="node14" class="node">
<title>Node13</title>
<polygon fill="#ffffff" stroke="#bfbfbf" points="446,-.5 446,-19.5 538,-19.5 538,-.5 446,-.5"/>
<text text-anchor="middle" x="492" y="-7.5" font-family="Helvetica,sans-Serif" font-size="10.00" fill="#000000">util/delay_basic.h</text>
</g>
<!-- Node12&#45;&gt;Node13 -->
<g id="edge13" class="edge">
<title>Node12&#45;&gt;Node13</title>
<path fill="none" stroke="#191970" d="M373.0313,-61.8906C396.6231,-51.6005 434.2501,-35.1888 460.8633,-23.5809"/>
<polygon fill="#191970" stroke="#191970" points="462.3567,-26.748 470.1235,-19.5419 459.5581,-20.3318 462.3567,-26.748"/>
</g>
<!-- Node14&#45;&gt;Node13 -->
<g id="edge15" class="edge">
<title>Node14&#45;&gt;Node13</title>
<path fill="none" stroke="#191970" d="M493.6875,-61.8906C493.4103,-53.3657 492.9964,-40.6392 492.6479,-29.9235"/>
<polygon fill="#191970" stroke="#191970" points="496.1402,-29.6258 492.3169,-19.7449 489.1439,-29.8534 496.1402,-29.6258"/>
</g>
<!-- Node16 -->
<g id="node17" class="node">
<title>Node16</title>
<g id="a_node17"><a xlink:href="ansi__c_8h.html" target="_top" xlink:title="zrtos/board/ansi_c.h">
<polygon fill="#ffffff" stroke="#000000" points="574.5,-62 574.5,-81 679.5,-81 679.5,-62 574.5,-62"/>
<text text-anchor="middle" x="627" y="-69" font-family="Helvetica,sans-Serif" font-size="10.00" fill="#000000">zrtos/board/ansi_c.h</text>
</a>
</g>
</g>
<!-- Node15&#45;&gt;Node16 -->
<g id="edge17" class="edge">
<title>Node15&#45;&gt;Node16</title>
<path fill="none" stroke="#191970" d="M627,-123.3906C627,-114.8657 627,-102.1392 627,-91.4235"/>
<polygon fill="#191970" stroke="#191970" points="630.5001,-91.2448 627,-81.2449 623.5001,-91.2449 630.5001,-91.2448"/>
</g>
<!-- Node17 -->
<g id="node18" class="node">
<title>Node17</title>
<g id="a_node18"><a xlink:href="avr__software__emulator_8h.html" target="_top" xlink:title="zrtos/board/avr_software\l_emulator.h">
<polygon fill="#ffffff" stroke="#000000" points="697.5,-56.5 697.5,-86.5 822.5,-86.5 822.5,-56.5 697.5,-56.5"/>
<text text-anchor="start" x="705.5" y="-74.5" font-family="Helvetica,sans-Serif" font-size="10.00" fill="#000000">zrtos/board/avr_software</text>
<text text-anchor="middle" x="760" y="-63.5" font-family="Helvetica,sans-Serif" font-size="10.00" fill="#000000">_emulator.h</text>
</a>
</g>
</g>
<!-- Node15&#45;&gt;Node17 -->
<g id="edge18" class="edge">
<title>Node15&#45;&gt;Node17</title>
<path fill="none" stroke="#191970" d="M647.7813,-123.3906C666.5312,-114.7205 694.6795,-101.7046 718.0934,-90.8779"/>
<polygon fill="#191970" stroke="#191970" points="719.8569,-93.9185 727.4645,-86.5446 716.9189,-87.5649 719.8569,-93.9185"/>
</g>
<!-- Node18 -->
<g id="node19" class="node">
<title>Node18</title>
<polygon fill="#ffffff" stroke="#bfbfbf" points="678.5,-.5 678.5,-19.5 755.5,-19.5 755.5,-.5 678.5,-.5"/>
<text text-anchor="middle" x="717" y="-7.5" font-family="Helvetica,sans-Serif" font-size="10.00" fill="#000000">avr/interrupt.h</text>
</g>
<!-- Node17&#45;&gt;Node18 -->
<g id="edge19" class="edge">
<title>Node17&#45;&gt;Node18</title>
<path fill="none" stroke="#191970" d="M749.3708,-56.2977C743.4019,-47.7609 735.9162,-37.0545 729.6471,-28.0883"/>
<polygon fill="#191970" stroke="#191970" points="732.4835,-26.0368 723.8848,-19.8469 726.7466,-30.048 732.4835,-26.0368"/>
</g>
<!-- Node19 -->
<g id="node20" class="node">
<title>Node19</title>
<polygon fill="#ffffff" stroke="#bfbfbf" points="773.5,-.5 773.5,-19.5 830.5,-19.5 830.5,-.5 773.5,-.5"/>
<text text-anchor="middle" x="802" y="-7.5" font-family="Helvetica,sans-Serif" font-size="10.00" fill="#000000">avr/wdt.h</text>
</g>
<!-- Node17&#45;&gt;Node19 -->
<g id="edge20" class="edge">
<title>Node17&#45;&gt;Node19</title>
<path fill="none" stroke="#191970" d="M770.382,-56.2977C776.1513,-47.8498 783.3716,-37.2773 789.4553,-28.369"/>
<polygon fill="#191970" stroke="#191970" points="792.5259,-30.0788 795.2753,-19.8469 786.7453,-26.1311 792.5259,-30.0788"/>
</g>
<!-- Node20&#45;&gt;Node5 -->
<g id="edge23" class="edge">
<title>Node20&#45;&gt;Node5</title>
<path fill="none" stroke="#191970" d="M99.8795,-123.3484C86.8933,-102.8703 56.3983,-54.782 39.6024,-28.2962"/>
<polygon fill="#191970" stroke="#191970" points="42.4033,-26.1775 34.0921,-19.6068 36.4918,-29.9263 42.4033,-26.1775"/>
</g>
<!-- Node20&#45;&gt;Node8 -->
<g id="edge22" class="edge">
<title>Node20&#45;&gt;Node8</title>
<path fill="none" stroke="#191970" d="M101.8632,-123.3507C98.1769,-114.1921 93.0567,-99.9416 91,-87 87.9145,-67.585 90.6502,-45.1835 93.5566,-29.5667"/>
<polygon fill="#191970" stroke="#191970" points="97.0337,-30.0344 95.6223,-19.5341 90.1775,-28.6228 97.0337,-30.0344"/>
</g>
<!-- Node20&#45;&gt;Node11 -->
<g id="edge24" class="edge">
<title>Node20&#45;&gt;Node11</title>
<path fill="none" stroke="#191970" d="M111.1563,-123.3906C115.9232,-114.5068 123.1385,-101.0601 129.0297,-90.0811"/>
<polygon fill="#191970" stroke="#191970" points="132.1269,-91.7114 133.7711,-81.2449 125.9588,-88.4016 132.1269,-91.7114"/>
</g>
</g>
</svg>
