<?xml version="1.0" encoding="UTF-8" standalone="no"?>
<!DOCTYPE svg PUBLIC "-//W3C//DTD SVG 1.1//EN"
 "http://www.w3.org/Graphics/SVG/1.1/DTD/svg11.dtd">
<!-- Generated by graphviz version 2.40.1 (20161225.0304)
 -->
<!-- Title: zrtos_task_scheduler__remove_task Pages: 1 -->
<svg width="359pt" height="39pt"
 viewBox="0.00 0.00 359.00 39.00" xmlns="http://www.w3.org/2000/svg" xmlns:xlink="http://www.w3.org/1999/xlink">
<g id="graph0" class="graph" transform="scale(1 1) rotate(0) translate(4 35)">
<title>zrtos_task_scheduler__remove_task</title>
<polygon fill="#ffffff" stroke="transparent" points="-4,4 -4,-35 355,-35 355,4 -4,4"/>
<!-- Node256 -->
<g id="node1" class="node">
<title>Node256</title>
<polygon fill="#bfbfbf" stroke="#000000" points="0,-.5 0,-30.5 110,-30.5 110,-.5 0,-.5"/>
<text text-anchor="start" x="8" y="-18.5" font-family="Helvetica,sans-Serif" font-size="10.00" fill="#000000">zrtos_task_scheduler</text>
<text text-anchor="middle" x="55" y="-7.5" font-family="Helvetica,sans-Serif" font-size="10.00" fill="#000000">__remove_task</text>
</g>
<!-- Node257 -->
<g id="node2" class="node">
<title>Node257</title>
<g id="a_node2"><a xlink:href="task__pthread_8h.html#a138580b425fd21586b4efd4ab448d593" target="_top" xlink:title="zrtos_task_pthread\l__free">
<polygon fill="#ffffff" stroke="#000000" points="146,-.5 146,-30.5 246,-30.5 246,-.5 146,-.5"/>
<text text-anchor="start" x="154" y="-18.5" font-family="Helvetica,sans-Serif" font-size="10.00" fill="#000000">zrtos_task_pthread</text>
<text text-anchor="middle" x="196" y="-7.5" font-family="Helvetica,sans-Serif" font-size="10.00" fill="#000000">__free</text>
</a>
</g>
</g>
<!-- Node256&#45;&gt;Node257 -->
<g id="edge1" class="edge">
<title>Node256&#45;&gt;Node257</title>
<path fill="none" stroke="#191970" d="M120.3258,-15.5C128.9139,-15.5 137.6049,-15.5 145.8855,-15.5"/>
<polygon fill="#191970" stroke="#191970" points="120.3223,-12.0001 110.3222,-15.5 120.3222,-19.0001 120.3223,-12.0001"/>
</g>
<!-- Node258 -->
<g id="node3" class="node">
<title>Node258</title>
<g id="a_node3"><a xlink:href="task__pthread_8h.html#a28a15bba47cab57cbc9f5dac9af99c8b" target="_top" xlink:title="pthread_join">
<polygon fill="#ffffff" stroke="#000000" points="282,-6 282,-25 351,-25 351,-6 282,-6"/>
<text text-anchor="middle" x="316.5" y="-13" font-family="Helvetica,sans-Serif" font-size="10.00" fill="#000000">pthread_join</text>
</a>
</g>
</g>
<!-- Node257&#45;&gt;Node258 -->
<g id="edge2" class="edge">
<title>Node257&#45;&gt;Node258</title>
<path fill="none" stroke="#191970" d="M256.2921,-15.5C265.049,-15.5 273.8048,-15.5 281.8194,-15.5"/>
<polygon fill="#191970" stroke="#191970" points="256.056,-12.0001 246.056,-15.5 256.056,-19.0001 256.056,-12.0001"/>
</g>
</g>
</svg>
