<?xml version="1.0" encoding="UTF-8" standalone="no"?>
<!DOCTYPE svg PUBLIC "-//W3C//DTD SVG 1.1//EN"
 "http://www.w3.org/Graphics/SVG/1.1/DTD/svg11.dtd">
<!-- Generated by graphviz version 10.0.1 (20240210.2158)
 -->
<!-- Title: task.h Pages: 1 -->
<svg width="520pt" height="196pt"
 viewBox="0.00 0.00 520.25 196.00" xmlns="http://www.w3.org/2000/svg" xmlns:xlink="http://www.w3.org/1999/xlink">
<g id="graph0" class="graph" transform="scale(1 1) rotate(0) translate(4 192)">
<title>task.h</title>
<!-- Node1 -->
<g id="Node000001" class="node">
<title>Node1</title>
<g id="a_Node000001"><a xlink:title=" ">
<polygon fill="#999999" stroke="#666666" points="211.5,-188 168.5,-188 168.5,-168 211.5,-168 211.5,-188"/>
<text text-anchor="middle" x="190" y="-174.5" font-family="Helvetica,sans-Serif" font-size="10.00">task.h</text>
</a>
</g>
</g>
<!-- Node2 -->
<g id="Node000002" class="node">
<title>Node2</title>
<g id="a_Node000002"><a xlink:href="error_8h.html" target="_top" xlink:title=" ">
<polygon fill="white" stroke="#666666" points="161.25,-76 92.75,-76 92.75,-56 161.25,-56 161.25,-76"/>
<text text-anchor="middle" x="127" y="-62.5" font-family="Helvetica,sans-Serif" font-size="10.00">zrtos/error.h</text>
</a>
</g>
</g>
<!-- Node1&#45;&gt;Node2 -->
<g id="edge1_Node000001_Node000002" class="edge">
<title>Node1&#45;&gt;Node2</title>
<g id="a_edge1_Node000001_Node000002"><a xlink:title=" ">
<path fill="none" stroke="#63b8ff" d="M188.73,-167.61C186.62,-154.43 181.57,-130.06 171,-112 164.92,-101.61 155.93,-91.83 147.65,-84.06"/>
<polygon fill="#63b8ff" stroke="#63b8ff" points="150.06,-81.51 140.26,-77.49 145.41,-86.75 150.06,-81.51"/>
</a>
</g>
</g>
<!-- Node6 -->
<g id="Node000006" class="node">
<title>Node6</title>
<g id="a_Node000006"><a xlink:href="errno_8h.html" target="_top" xlink:title=" ">
<polygon fill="white" stroke="#666666" points="162.38,-132 91.62,-132 91.62,-112 162.38,-112 162.38,-132"/>
<text text-anchor="middle" x="127" y="-118.5" font-family="Helvetica,sans-Serif" font-size="10.00">zrtos/errno.h</text>
</a>
</g>
</g>
<!-- Node1&#45;&gt;Node6 -->
<g id="edge5_Node000001_Node000006" class="edge">
<title>Node1&#45;&gt;Node6</title>
<g id="a_edge5_Node000001_Node000006"><a xlink:title=" ">
<path fill="none" stroke="#63b8ff" d="M179.03,-167.59C170.08,-159.93 157.23,-148.91 146.54,-139.75"/>
<polygon fill="#63b8ff" stroke="#63b8ff" points="148.87,-137.13 139,-133.28 144.31,-142.45 148.87,-137.13"/>
</a>
</g>
</g>
<!-- Node7 -->
<g id="Node000007" class="node">
<title>Node7</title>
<g id="a_Node000007"><a xlink:href="clist_8h.html" target="_top" xlink:title=" ">
<polygon fill="white" stroke="#666666" points="288.5,-132 221.5,-132 221.5,-112 288.5,-112 288.5,-132"/>
<text text-anchor="middle" x="255" y="-118.5" font-family="Helvetica,sans-Serif" font-size="10.00">zrtos/clist.h</text>
</a>
</g>
</g>
<!-- Node1&#45;&gt;Node7 -->
<g id="edge7_Node000001_Node000007" class="edge">
<title>Node1&#45;&gt;Node7</title>
<g id="a_edge7_Node000001_Node000007"><a xlink:title=" ">
<path fill="none" stroke="#63b8ff" d="M201.32,-167.59C210.64,-159.85 224.08,-148.69 235.18,-139.47"/>
<polygon fill="#63b8ff" stroke="#63b8ff" points="237.19,-142.35 242.64,-133.27 232.71,-136.96 237.19,-142.35"/>
</a>
</g>
</g>
<!-- Node3 -->
<g id="Node000003" class="node">
<title>Node3</title>
<g id="a_Node000003"><a xlink:title=" ">
<polygon fill="#e0e0e0" stroke="#999999" points="215.75,-20 168.25,-20 168.25,0 215.75,0 215.75,-20"/>
<text text-anchor="middle" x="192" y="-6.5" font-family="Helvetica,sans-Serif" font-size="10.00">limits.h</text>
</a>
</g>
</g>
<!-- Node2&#45;&gt;Node3 -->
<g id="edge2_Node000002_Node000003" class="edge">
<title>Node2&#45;&gt;Node3</title>
<g id="a_edge2_Node000002_Node000003"><a xlink:title=" ">
<path fill="none" stroke="#63b8ff" d="M138.32,-55.59C147.64,-47.85 161.08,-36.69 172.18,-27.47"/>
<polygon fill="#63b8ff" stroke="#63b8ff" points="174.19,-30.35 179.64,-21.27 169.71,-24.96 174.19,-30.35"/>
</a>
</g>
</g>
<!-- Node4 -->
<g id="Node000004" class="node">
<title>Node4</title>
<g id="a_Node000004"><a xlink:title=" ">
<polygon fill="#e0e0e0" stroke="#999999" points="149.88,-20 94.12,-20 94.12,0 149.88,0 149.88,-20"/>
<text text-anchor="middle" x="122" y="-6.5" font-family="Helvetica,sans-Serif" font-size="10.00">stdbool.h</text>
</a>
</g>
</g>
<!-- Node2&#45;&gt;Node4 -->
<g id="edge3_Node000002_Node000004" class="edge">
<title>Node2&#45;&gt;Node4</title>
<g id="a_edge3_Node000002_Node000004"><a xlink:title=" ">
<path fill="none" stroke="#63b8ff" d="M126.13,-55.59C125.52,-49.01 124.68,-39.96 123.92,-31.73"/>
<polygon fill="#63b8ff" stroke="#63b8ff" points="127.41,-31.44 123,-21.81 120.44,-32.09 127.41,-31.44"/>
</a>
</g>
</g>
<!-- Node5 -->
<g id="Node000005" class="node">
<title>Node5</title>
<g id="a_Node000005"><a xlink:href="assert_8h.html" target="_top" xlink:title=" ">
<polygon fill="white" stroke="#666666" points="76,-20 0,-20 0,0 76,0 76,-20"/>
<text text-anchor="middle" x="38" y="-6.5" font-family="Helvetica,sans-Serif" font-size="10.00">zrtos/assert.h</text>
</a>
</g>
</g>
<!-- Node2&#45;&gt;Node5 -->
<g id="edge4_Node000002_Node000005" class="edge">
<title>Node2&#45;&gt;Node5</title>
<g id="a_edge4_Node000002_Node000005"><a xlink:title=" ">
<path fill="none" stroke="#63b8ff" d="M111.5,-55.59C98.18,-47.51 78.72,-35.71 63.17,-26.27"/>
<polygon fill="#63b8ff" stroke="#63b8ff" points="65.28,-23.46 54.92,-21.26 61.65,-29.44 65.28,-23.46"/>
</a>
</g>
</g>
<!-- Node6&#45;&gt;Node2 -->
<g id="edge6_Node000006_Node000002" class="edge">
<title>Node6&#45;&gt;Node2</title>
<g id="a_edge6_Node000006_Node000002"><a xlink:title=" ">
<path fill="none" stroke="#63b8ff" d="M127,-111.59C127,-105.01 127,-95.96 127,-87.73"/>
<polygon fill="#63b8ff" stroke="#63b8ff" points="130.5,-87.81 127,-77.81 123.5,-87.81 130.5,-87.81"/>
</a>
</g>
</g>
<!-- Node8 -->
<g id="Node000008" class="node">
<title>Node8</title>
<g id="a_Node000008"><a xlink:href="types_8h.html" target="_top" xlink:title=" ">
<polygon fill="white" stroke="#666666" points="294.5,-76 221.5,-76 221.5,-56 294.5,-56 294.5,-76"/>
<text text-anchor="middle" x="258" y="-62.5" font-family="Helvetica,sans-Serif" font-size="10.00">zrtos/types.h</text>
</a>
</g>
</g>
<!-- Node7&#45;&gt;Node8 -->
<g id="edge8_Node000007_Node000008" class="edge">
<title>Node7&#45;&gt;Node8</title>
<g id="a_edge8_Node000007_Node000008"><a xlink:title=" ">
<path fill="none" stroke="#63b8ff" d="M255.52,-111.59C255.89,-105.01 256.39,-95.96 256.85,-87.73"/>
<polygon fill="#63b8ff" stroke="#63b8ff" points="260.34,-87.99 257.4,-77.81 253.35,-87.6 260.34,-87.99"/>
</a>
</g>
</g>
<!-- Node8&#45;&gt;Node3 -->
<g id="edge12_Node000008_Node000003" class="edge">
<title>Node8&#45;&gt;Node3</title>
<g id="a_edge12_Node000008_Node000003"><a xlink:title=" ">
<path fill="none" stroke="#63b8ff" d="M246.5,-55.59C237.04,-47.85 223.4,-36.69 212.13,-27.47"/>
<polygon fill="#63b8ff" stroke="#63b8ff" points="214.49,-24.88 204.54,-21.26 210.06,-30.3 214.49,-24.88"/>
</a>
</g>
</g>
<!-- Node8&#45;&gt;Node4 -->
<g id="edge9_Node000008_Node000004" class="edge">
<title>Node8&#45;&gt;Node4</title>
<g id="a_edge9_Node000008_Node000004"><a xlink:title=" ">
<path fill="none" stroke="#63b8ff" d="M234.31,-55.59C212.8,-47.05 180.8,-34.35 156.46,-24.68"/>
<polygon fill="#63b8ff" stroke="#63b8ff" points="157.87,-21.48 147.28,-21.04 155.28,-27.98 157.87,-21.48"/>
</a>
</g>
</g>
<!-- Node9 -->
<g id="Node000009" class="node">
<title>Node9</title>
<g id="a_Node000009"><a xlink:title=" ">
<polygon fill="#e0e0e0" stroke="#999999" points="512.25,-20 461.75,-20 461.75,0 512.25,0 512.25,-20"/>
<text text-anchor="middle" x="487" y="-6.5" font-family="Helvetica,sans-Serif" font-size="10.00">stddef.h</text>
</a>
</g>
</g>
<!-- Node8&#45;&gt;Node9 -->
<g id="edge10_Node000008_Node000009" class="edge">
<title>Node8&#45;&gt;Node9</title>
<g id="a_edge10_Node000008_Node000009"><a xlink:title=" ">
<path fill="none" stroke="#63b8ff" d="M294.74,-56.89C331.7,-48.65 390.61,-35.3 450.26,-20.62"/>
<polygon fill="#63b8ff" stroke="#63b8ff" points="451.07,-24.03 459.93,-18.23 449.39,-17.23 451.07,-24.03"/>
</a>
</g>
</g>
<!-- Node10 -->
<g id="Node000010" class="node">
<title>Node10</title>
<g id="a_Node000010"><a xlink:title=" ">
<polygon fill="#e0e0e0" stroke="#999999" points="282.12,-20 233.88,-20 233.88,0 282.12,0 282.12,-20"/>
<text text-anchor="middle" x="258" y="-6.5" font-family="Helvetica,sans-Serif" font-size="10.00">stdint.h</text>
</a>
</g>
</g>
<!-- Node8&#45;&gt;Node10 -->
<g id="edge11_Node000008_Node000010" class="edge">
<title>Node8&#45;&gt;Node10</title>
<g id="a_edge11_Node000008_Node000010"><a xlink:title=" ">
<path fill="none" stroke="#63b8ff" d="M258,-55.59C258,-49.01 258,-39.96 258,-31.73"/>
<polygon fill="#63b8ff" stroke="#63b8ff" points="261.5,-31.81 258,-21.81 254.5,-31.81 261.5,-31.81"/>
</a>
</g>
</g>
<!-- Node11 -->
<g id="Node000011" class="node">
<title>Node11</title>
<g id="a_Node000011"><a xlink:title=" ">
<polygon fill="#e0e0e0" stroke="#999999" points="358,-20 300,-20 300,0 358,0 358,-20"/>
<text text-anchor="middle" x="329" y="-6.5" font-family="Helvetica,sans-Serif" font-size="10.00">stdalign.h</text>
</a>
</g>
</g>
<!-- Node8&#45;&gt;Node11 -->
<g id="edge13_Node000008_Node000011" class="edge">
<title>Node8&#45;&gt;Node11</title>
<g id="a_edge13_Node000008_Node000011"><a xlink:title=" ">
<path fill="none" stroke="#63b8ff" d="M270.37,-55.59C280.65,-47.77 295.52,-36.46 307.71,-27.19"/>
<polygon fill="#63b8ff" stroke="#63b8ff" points="309.73,-30.05 315.57,-21.21 305.49,-24.48 309.73,-30.05"/>
</a>
</g>
</g>
<!-- Node12 -->
<g id="Node000012" class="node">
<title>Node12</title>
<g id="a_Node000012"><a xlink:href="cast_8h.html" target="_top" xlink:title=" ">
<polygon fill="white" stroke="#666666" points="443.88,-20 376.12,-20 376.12,0 443.88,0 443.88,-20"/>
<text text-anchor="middle" x="410" y="-6.5" font-family="Helvetica,sans-Serif" font-size="10.00">zrtos/cast.h</text>
</a>
</g>
</g>
<!-- Node8&#45;&gt;Node12 -->
<g id="edge14_Node000008_Node000012" class="edge">
<title>Node8&#45;&gt;Node12</title>
<g id="a_edge14_Node000008_Node000012"><a xlink:title=" ">
<path fill="none" stroke="#63b8ff" d="M284.48,-55.59C308.85,-46.94 345.25,-34 372.59,-24.29"/>
<polygon fill="#63b8ff" stroke="#63b8ff" points="373.64,-27.63 381.89,-20.99 371.3,-21.04 373.64,-27.63"/>
</a>
</g>
</g>
</g>
</svg>
