<?xml version="1.0" encoding="UTF-8" standalone="no"?>
<!DOCTYPE svg PUBLIC "-//W3C//DTD SVG 1.1//EN"
 "http://www.w3.org/Graphics/SVG/1.1/DTD/svg11.dtd">
<!-- Generated by graphviz version 10.0.1 (20240210.2158)
 -->
<!-- Title: task.h Pages: 1 -->
<svg width="358pt" height="196pt"
 viewBox="0.00 0.00 358.12 196.00" xmlns="http://www.w3.org/2000/svg" xmlns:xlink="http://www.w3.org/1999/xlink">
<g id="graph0" class="graph" transform="scale(1 1) rotate(0) translate(4 192)">
<title>task.h</title>
<!-- Node1 -->
<g id="Node000001" class="node">
<title>Node1</title>
<g id="a_Node000001"><a xlink:title=" ">
<polygon fill="#999999" stroke="#666666" points="137.5,-188 94.5,-188 94.5,-168 137.5,-168 137.5,-188"/>
<text text-anchor="middle" x="116" y="-174.5" font-family="Helvetica,sans-Serif" font-size="10.00">task.h</text>
</a>
</g>
</g>
<!-- Node2 -->
<g id="Node000002" class="node">
<title>Node2</title>
<g id="a_Node000002"><a xlink:href="error_8h.html" target="_top" xlink:title=" ">
<polygon fill="white" stroke="#666666" points="102.25,-76 33.75,-76 33.75,-56 102.25,-56 102.25,-76"/>
<text text-anchor="middle" x="68" y="-62.5" font-family="Helvetica,sans-Serif" font-size="10.00">zrtos/error.h</text>
</a>
</g>
</g>
<!-- Node1&#45;&gt;Node2 -->
<g id="edge1_Node000001_Node000002" class="edge">
<title>Node1&#45;&gt;Node2</title>
<g id="a_edge1_Node000001_Node000002"><a xlink:title=" ">
<path fill="none" stroke="#63b8ff" d="M102.62,-167.62C92.24,-159.51 78.56,-146.78 72,-132 65.81,-118.06 65.03,-100.76 65.68,-87.52"/>
<polygon fill="#63b8ff" stroke="#63b8ff" points="69.15,-88.07 66.49,-77.81 62.17,-87.49 69.15,-88.07"/>
</a>
</g>
</g>
<!-- Node5 -->
<g id="Node000005" class="node">
<title>Node5</title>
<g id="a_Node000005"><a xlink:href="errno_8h.html" target="_top" xlink:title=" ">
<polygon fill="white" stroke="#666666" points="151.38,-132 80.62,-132 80.62,-112 151.38,-112 151.38,-132"/>
<text text-anchor="middle" x="116" y="-118.5" font-family="Helvetica,sans-Serif" font-size="10.00">zrtos/errno.h</text>
</a>
</g>
</g>
<!-- Node1&#45;&gt;Node5 -->
<g id="edge4_Node000001_Node000005" class="edge">
<title>Node1&#45;&gt;Node5</title>
<g id="a_edge4_Node000001_Node000005"><a xlink:title=" ">
<path fill="none" stroke="#63b8ff" d="M116,-167.59C116,-161.01 116,-151.96 116,-143.73"/>
<polygon fill="#63b8ff" stroke="#63b8ff" points="119.5,-143.81 116,-133.81 112.5,-143.81 119.5,-143.81"/>
</a>
</g>
</g>
<!-- Node6 -->
<g id="Node000006" class="node">
<title>Node6</title>
<g id="a_Node000006"><a xlink:href="clist_8h.html" target="_top" xlink:title=" ">
<polygon fill="white" stroke="#666666" points="236.5,-132 169.5,-132 169.5,-112 236.5,-112 236.5,-132"/>
<text text-anchor="middle" x="203" y="-118.5" font-family="Helvetica,sans-Serif" font-size="10.00">zrtos/clist.h</text>
</a>
</g>
</g>
<!-- Node1&#45;&gt;Node6 -->
<g id="edge6_Node000001_Node000006" class="edge">
<title>Node1&#45;&gt;Node6</title>
<g id="a_edge6_Node000001_Node000006"><a xlink:title=" ">
<path fill="none" stroke="#63b8ff" d="M131.15,-167.59C144.05,-159.59 162.83,-147.93 177.96,-138.54"/>
<polygon fill="#63b8ff" stroke="#63b8ff" points="179.79,-141.53 186.44,-133.28 176.1,-135.58 179.79,-141.53"/>
</a>
</g>
</g>
<!-- Node3 -->
<g id="Node000003" class="node">
<title>Node3</title>
<g id="a_Node000003"><a xlink:title=" ">
<polygon fill="#e0e0e0" stroke="#999999" points="141.75,-20 94.25,-20 94.25,0 141.75,0 141.75,-20"/>
<text text-anchor="middle" x="118" y="-6.5" font-family="Helvetica,sans-Serif" font-size="10.00">limits.h</text>
</a>
</g>
</g>
<!-- Node2&#45;&gt;Node3 -->
<g id="edge2_Node000002_Node000003" class="edge">
<title>Node2&#45;&gt;Node3</title>
<g id="a_edge2_Node000002_Node000003"><a xlink:title=" ">
<path fill="none" stroke="#63b8ff" d="M76.71,-55.59C83.59,-48.16 93.39,-37.58 101.72,-28.58"/>
<polygon fill="#63b8ff" stroke="#63b8ff" points="104.14,-31.12 108.36,-21.41 99,-26.37 104.14,-31.12"/>
</a>
</g>
</g>
<!-- Node4 -->
<g id="Node000004" class="node">
<title>Node4</title>
<g id="a_Node000004"><a xlink:href="assert_8h.html" target="_top" xlink:title=" ">
<polygon fill="white" stroke="#666666" points="76,-20 0,-20 0,0 76,0 76,-20"/>
<text text-anchor="middle" x="38" y="-6.5" font-family="Helvetica,sans-Serif" font-size="10.00">zrtos/assert.h</text>
</a>
</g>
</g>
<!-- Node2&#45;&gt;Node4 -->
<g id="edge3_Node000002_Node000004" class="edge">
<title>Node2&#45;&gt;Node4</title>
<g id="a_edge3_Node000002_Node000004"><a xlink:title=" ">
<path fill="none" stroke="#63b8ff" d="M62.77,-55.59C58.9,-48.63 53.49,-38.89 48.72,-30.29"/>
<polygon fill="#63b8ff" stroke="#63b8ff" points="51.82,-28.66 43.9,-21.62 45.7,-32.06 51.82,-28.66"/>
</a>
</g>
</g>
<!-- Node5&#45;&gt;Node2 -->
<g id="edge5_Node000005_Node000002" class="edge">
<title>Node5&#45;&gt;Node2</title>
<g id="a_edge5_Node000005_Node000002"><a xlink:title=" ">
<path fill="none" stroke="#63b8ff" d="M107.64,-111.59C101.1,-104.24 91.82,-93.8 83.88,-84.87"/>
<polygon fill="#63b8ff" stroke="#63b8ff" points="86.53,-82.58 77.27,-77.43 81.3,-87.23 86.53,-82.58"/>
</a>
</g>
</g>
<!-- Node7 -->
<g id="Node000007" class="node">
<title>Node7</title>
<g id="a_Node000007"><a xlink:href="types_8h.html" target="_top" xlink:title=" ">
<polygon fill="white" stroke="#666666" points="239.5,-76 166.5,-76 166.5,-56 239.5,-56 239.5,-76"/>
<text text-anchor="middle" x="203" y="-62.5" font-family="Helvetica,sans-Serif" font-size="10.00">zrtos/types.h</text>
</a>
</g>
</g>
<!-- Node6&#45;&gt;Node7 -->
<g id="edge7_Node000006_Node000007" class="edge">
<title>Node6&#45;&gt;Node7</title>
<g id="a_edge7_Node000006_Node000007"><a xlink:title=" ">
<path fill="none" stroke="#63b8ff" d="M203,-111.59C203,-105.01 203,-95.96 203,-87.73"/>
<polygon fill="#63b8ff" stroke="#63b8ff" points="206.5,-87.81 203,-77.81 199.5,-87.81 206.5,-87.81"/>
</a>
</g>
</g>
<!-- Node7&#45;&gt;Node3 -->
<g id="edge11_Node000007_Node000003" class="edge">
<title>Node7&#45;&gt;Node3</title>
<g id="a_edge11_Node000007_Node000003"><a xlink:title=" ">
<path fill="none" stroke="#63b8ff" d="M188.19,-55.59C175.6,-47.59 157.25,-35.93 142.47,-26.54"/>
<polygon fill="#63b8ff" stroke="#63b8ff" points="144.52,-23.7 134.2,-21.29 140.76,-29.61 144.52,-23.7"/>
</a>
</g>
</g>
<!-- Node8 -->
<g id="Node000008" class="node">
<title>Node8</title>
<g id="a_Node000008"><a xlink:title=" ">
<polygon fill="#e0e0e0" stroke="#999999" points="215.88,-20 160.12,-20 160.12,0 215.88,0 215.88,-20"/>
<text text-anchor="middle" x="188" y="-6.5" font-family="Helvetica,sans-Serif" font-size="10.00">stdbool.h</text>
</a>
</g>
</g>
<!-- Node7&#45;&gt;Node8 -->
<g id="edge8_Node000007_Node000008" class="edge">
<title>Node7&#45;&gt;Node8</title>
<g id="a_edge8_Node000007_Node000008"><a xlink:title=" ">
<path fill="none" stroke="#63b8ff" d="M200.39,-55.59C198.52,-48.86 195.93,-39.53 193.6,-31.15"/>
<polygon fill="#63b8ff" stroke="#63b8ff" points="197.04,-30.46 190.99,-21.76 190.29,-32.33 197.04,-30.46"/>
</a>
</g>
</g>
<!-- Node9 -->
<g id="Node000009" class="node">
<title>Node9</title>
<g id="a_Node000009"><a xlink:title=" ">
<polygon fill="#e0e0e0" stroke="#999999" points="284.25,-20 233.75,-20 233.75,0 284.25,0 284.25,-20"/>
<text text-anchor="middle" x="259" y="-6.5" font-family="Helvetica,sans-Serif" font-size="10.00">stddef.h</text>
</a>
</g>
</g>
<!-- Node7&#45;&gt;Node9 -->
<g id="edge9_Node000007_Node000009" class="edge">
<title>Node7&#45;&gt;Node9</title>
<g id="a_edge9_Node000007_Node000009"><a xlink:title=" ">
<path fill="none" stroke="#63b8ff" d="M212.75,-55.59C220.62,-48.01 231.9,-37.13 241.35,-28.02"/>
<polygon fill="#63b8ff" stroke="#63b8ff" points="243.5,-30.81 248.27,-21.35 238.64,-25.77 243.5,-30.81"/>
</a>
</g>
</g>
<!-- Node10 -->
<g id="Node000010" class="node">
<title>Node10</title>
<g id="a_Node000010"><a xlink:title=" ">
<polygon fill="#e0e0e0" stroke="#999999" points="350.12,-20 301.88,-20 301.88,0 350.12,0 350.12,-20"/>
<text text-anchor="middle" x="326" y="-6.5" font-family="Helvetica,sans-Serif" font-size="10.00">stdint.h</text>
</a>
</g>
</g>
<!-- Node7&#45;&gt;Node10 -->
<g id="edge10_Node000007_Node000010" class="edge">
<title>Node7&#45;&gt;Node10</title>
<g id="a_edge10_Node000007_Node000010"><a xlink:title=" ">
<path fill="none" stroke="#63b8ff" d="M224.42,-55.59C243.62,-47.17 272.04,-34.69 293.94,-25.07"/>
<polygon fill="#63b8ff" stroke="#63b8ff" points="295.27,-28.31 303.02,-21.09 292.46,-21.9 295.27,-28.31"/>
</a>
</g>
</g>
</g>
</svg>
