<?xml version="1.0" encoding="UTF-8" standalone="no"?>
<!DOCTYPE svg PUBLIC "-//W3C//DTD SVG 1.1//EN"
 "http://www.w3.org/Graphics/SVG/1.1/DTD/svg11.dtd">
<!-- Generated by graphviz version 2.40.1 (20161225.0304)
 -->
<!-- Title: zrtos_task__get_next_task Pages: 1 -->
<svg width="1207pt" height="181pt"
 viewBox="0.00 0.00 1207.00 181.00" xmlns="http://www.w3.org/2000/svg" xmlns:xlink="http://www.w3.org/1999/xlink">
<g id="graph0" class="graph" transform="scale(1 1) rotate(0) translate(4 177)">
<title>zrtos_task__get_next_task</title>
<polygon fill="#ffffff" stroke="transparent" points="-4,4 -4,-177 1203,-177 1203,4 -4,4"/>
<!-- Node18 -->
<g id="node1" class="node">
<title>Node18</title>
<polygon fill="#bfbfbf" stroke="#000000" points="0,-123 0,-142 134,-142 134,-123 0,-123"/>
<text text-anchor="middle" x="67" y="-130" font-family="Helvetica,sans-Serif" font-size="10.00" fill="#000000">zrtos_task__get_next_task</text>
</g>
<!-- Node19 -->
<g id="node2" class="node">
<title>Node19</title>
<g id="a_node2"><a xlink:href="task__scheduler_8h.html#ae5915a01574e06572708120eaea79d3b" target="_top" xlink:title="zrtos_task_scheduler\l__has_task">
<polygon fill="#ffffff" stroke="#000000" points="323.5,-142.5 323.5,-172.5 433.5,-172.5 433.5,-142.5 323.5,-142.5"/>
<text text-anchor="start" x="331.5" y="-160.5" font-family="Helvetica,sans-Serif" font-size="10.00" fill="#000000">zrtos_task_scheduler</text>
<text text-anchor="middle" x="378.5" y="-149.5" font-family="Helvetica,sans-Serif" font-size="10.00" fill="#000000">__has_task</text>
</a>
</g>
</g>
<!-- Node18&#45;&gt;Node19 -->
<g id="edge1" class="edge">
<title>Node18&#45;&gt;Node19</title>
<path fill="none" stroke="#191970" d="M144.3718,-138.7096C199.9848,-143.1729 273.6296,-149.0834 323.3565,-153.0744"/>
<polygon fill="#191970" stroke="#191970" points="144.4553,-135.2052 134.2074,-137.8938 143.8953,-142.1827 144.4553,-135.2052"/>
</g>
<!-- Node21 -->
<g id="node4" class="node">
<title>Node21</title>
<g id="a_node4"><a xlink:href="task__scheduler_8h.html#aa63cd785e44d31b9ae87297fad4de032" target="_top" xlink:title="_zrtos_task_scheduler\l__switch_task">
<polygon fill="#ffffff" stroke="#000000" points="170,-95.5 170,-125.5 285,-125.5 285,-95.5 170,-95.5"/>
<text text-anchor="start" x="178" y="-113.5" font-family="Helvetica,sans-Serif" font-size="10.00" fill="#000000">_zrtos_task_scheduler</text>
<text text-anchor="middle" x="227.5" y="-102.5" font-family="Helvetica,sans-Serif" font-size="10.00" fill="#000000">__switch_task</text>
</a>
</g>
</g>
<!-- Node18&#45;&gt;Node21 -->
<g id="edge3" class="edge">
<title>Node18&#45;&gt;Node21</title>
<path fill="none" stroke="#191970" d="M144.2078,-121.917C152.8257,-120.7357 161.4905,-119.548 169.8038,-118.4085"/>
<polygon fill="#191970" stroke="#191970" points="143.5685,-118.4718 134.1365,-123.2975 144.5192,-125.407 143.5685,-118.4718"/>
</g>
<!-- Node20 -->
<g id="node3" class="node">
<title>Node20</title>
<g id="a_node3"><a xlink:href="task__pthread_8h.html#a28a15bba47cab57cbc9f5dac9af99c8b" target="_top" xlink:title="pthread_join">
<polygon fill="#ffffff" stroke="#000000" points="643.5,-148 643.5,-167 712.5,-167 712.5,-148 643.5,-148"/>
<text text-anchor="middle" x="678" y="-155" font-family="Helvetica,sans-Serif" font-size="10.00" fill="#000000">pthread_join</text>
</a>
</g>
</g>
<!-- Node19&#45;&gt;Node20 -->
<g id="edge2" class="edge">
<title>Node19&#45;&gt;Node20</title>
<path fill="none" stroke="#191970" d="M444.1261,-157.5C505.4139,-157.5 594.5288,-157.5 643.1527,-157.5"/>
<polygon fill="#191970" stroke="#191970" points="443.782,-154.0001 433.7819,-157.5 443.7819,-161.0001 443.782,-154.0001"/>
</g>
<!-- Node22 -->
<g id="node5" class="node">
<title>Node22</title>
<g id="a_node5"><a xlink:href="task__scheduler_8h.html#ab670d7e1ab8db82279714a56efc3c99a" target="_top" xlink:title="_zrtos_task_scheduler\l__on_tick">
<polygon fill="#ffffff" stroke="#000000" points="321,-93.5 321,-123.5 436,-123.5 436,-93.5 321,-93.5"/>
<text text-anchor="start" x="329" y="-111.5" font-family="Helvetica,sans-Serif" font-size="10.00" fill="#000000">_zrtos_task_scheduler</text>
<text text-anchor="middle" x="378.5" y="-100.5" font-family="Helvetica,sans-Serif" font-size="10.00" fill="#000000">__on_tick</text>
</a>
</g>
</g>
<!-- Node21&#45;&gt;Node22 -->
<g id="edge4" class="edge">
<title>Node21&#45;&gt;Node22</title>
<path fill="none" stroke="#191970" d="M295.0519,-109.6053C303.6779,-109.491 312.4438,-109.3749 320.8925,-109.263"/>
<polygon fill="#191970" stroke="#191970" points="294.9701,-106.106 285.0174,-109.7382 295.0629,-113.1053 294.9701,-106.106"/>
</g>
<!-- Node23 -->
<g id="node6" class="node">
<title>Node23</title>
<g id="a_node6"><a xlink:href="task__scheduler_8h.html#a8f15f366e9ce3328539ee562fd4c1e73" target="_top" xlink:title="_zrtos_task_scheduler\l__on_tick_ex">
<polygon fill="#ffffff" stroke="#000000" points="472,-93.5 472,-123.5 587,-123.5 587,-93.5 472,-93.5"/>
<text text-anchor="start" x="480" y="-111.5" font-family="Helvetica,sans-Serif" font-size="10.00" fill="#000000">_zrtos_task_scheduler</text>
<text text-anchor="middle" x="529.5" y="-100.5" font-family="Helvetica,sans-Serif" font-size="10.00" fill="#000000">__on_tick_ex</text>
</a>
</g>
</g>
<!-- Node22&#45;&gt;Node23 -->
<g id="edge5" class="edge">
<title>Node22&#45;&gt;Node23</title>
<path fill="none" stroke="#191970" d="M446.0519,-108.5C454.6779,-108.5 463.4438,-108.5 471.8925,-108.5"/>
<polygon fill="#191970" stroke="#191970" points="446.0174,-105.0001 436.0174,-108.5 446.0173,-112.0001 446.0174,-105.0001"/>
</g>
<!-- Node23&#45;&gt;Node20 -->
<g id="edge8" class="edge">
<title>Node23&#45;&gt;Node20</title>
<path fill="none" stroke="#191970" d="M584.7675,-126.7364C606.5752,-133.9322 630.7247,-141.9008 648.9807,-147.9246"/>
<polygon fill="#191970" stroke="#191970" points="585.8597,-123.4113 575.2666,-123.6014 583.6663,-130.0587 585.8597,-123.4113"/>
</g>
<!-- Node24 -->
<g id="node7" class="node">
<title>Node24</title>
<g id="a_node7"><a xlink:href="task__pthread_8h.html#ace168cf0d23cd4b085a2da31b881c750" target="_top" xlink:title="zrtos_task_pthread\l__trampoline_cb">
<polygon fill="#ffffff" stroke="#000000" points="628,-98.5 628,-128.5 728,-128.5 728,-98.5 628,-98.5"/>
<text text-anchor="start" x="636" y="-116.5" font-family="Helvetica,sans-Serif" font-size="10.00" fill="#000000">zrtos_task_pthread</text>
<text text-anchor="middle" x="678" y="-105.5" font-family="Helvetica,sans-Serif" font-size="10.00" fill="#000000">__trampoline_cb</text>
</a>
</g>
</g>
<!-- Node23&#45;&gt;Node24 -->
<g id="edge6" class="edge">
<title>Node23&#45;&gt;Node24</title>
<path fill="none" stroke="#191970" d="M597.467,-110.7885C607.6769,-111.1322 618.0464,-111.4814 627.7959,-111.8096"/>
<polygon fill="#191970" stroke="#191970" points="597.4513,-107.286 587.3392,-110.4474 597.2157,-114.2821 597.4513,-107.286"/>
</g>
<!-- Node26 -->
<g id="node9" class="node">
<title>Node26</title>
<g id="a_node9"><a xlink:href="task__scheduler_8h.html#ae070a60f724cc39d3a4118b57004e82f" target="_top" xlink:title="zrtos_task_scheduler\l__delay_ms">
<polygon fill="#ffffff" stroke="#000000" points="623,-49.5 623,-79.5 733,-79.5 733,-49.5 623,-49.5"/>
<text text-anchor="start" x="631" y="-67.5" font-family="Helvetica,sans-Serif" font-size="10.00" fill="#000000">zrtos_task_scheduler</text>
<text text-anchor="middle" x="678" y="-56.5" font-family="Helvetica,sans-Serif" font-size="10.00" fill="#000000">__delay_ms</text>
</a>
</g>
</g>
<!-- Node23&#45;&gt;Node26 -->
<g id="edge9" class="edge">
<title>Node23&#45;&gt;Node26</title>
<path fill="none" stroke="#191970" d="M589.9825,-90.5793C602.369,-86.9092 615.2853,-83.0821 627.2866,-79.5262"/>
<polygon fill="#191970" stroke="#191970" points="588.7836,-87.284 580.1899,-93.4808 590.7723,-93.9956 588.7836,-87.284"/>
</g>
<!-- Node31 -->
<g id="node14" class="node">
<title>Node31</title>
<g id="a_node14"><a xlink:href="task__scheduler_8h.html#a1e85f61c031a36a33f08d891597103b2" target="_top" xlink:title="zrtos_task_scheduler\l__init">
<polygon fill="#ffffff" stroke="#000000" points="623,-.5 623,-30.5 733,-30.5 733,-.5 623,-.5"/>
<text text-anchor="start" x="631" y="-18.5" font-family="Helvetica,sans-Serif" font-size="10.00" fill="#000000">zrtos_task_scheduler</text>
<text text-anchor="middle" x="678" y="-7.5" font-family="Helvetica,sans-Serif" font-size="10.00" fill="#000000">__init</text>
</a>
</g>
</g>
<!-- Node23&#45;&gt;Node31 -->
<g id="edge14" class="edge">
<title>Node23&#45;&gt;Node31</title>
<path fill="none" stroke="#191970" d="M555.119,-87.1439C573.3283,-72.5897 598.7586,-53.496 623,-39.5 628.5036,-36.3224 634.5072,-33.2965 640.46,-30.5304"/>
<polygon fill="#191970" stroke="#191970" points="552.8639,-84.4662 547.2909,-93.4769 557.2666,-89.9083 552.8639,-84.4662"/>
</g>
<!-- Node25 -->
<g id="node8" class="node">
<title>Node25</title>
<g id="a_node8"><a xlink:href="task__pthread_8h.html#a091adcef6201bebbf231763328c15286" target="_top" xlink:title="pthread_create">
<polygon fill="#ffffff" stroke="#000000" points="790,-104 790,-123 871,-123 871,-104 790,-104"/>
<text text-anchor="middle" x="830.5" y="-111" font-family="Helvetica,sans-Serif" font-size="10.00" fill="#000000">pthread_create</text>
</a>
</g>
</g>
<!-- Node24&#45;&gt;Node25 -->
<g id="edge7" class="edge">
<title>Node24&#45;&gt;Node25</title>
<path fill="none" stroke="#191970" d="M738.3664,-113.5C755.6384,-113.5 774.0482,-113.5 789.8347,-113.5"/>
<polygon fill="#191970" stroke="#191970" points="738.3569,-110.0001 728.3568,-113.5 738.3568,-117.0001 738.3569,-110.0001"/>
</g>
<!-- Node27 -->
<g id="node10" class="node">
<title>Node27</title>
<g id="a_node10"><a xlink:href="task__mutex_8h.html#a123e93e1f2eac3befe64178fba0bbcbd" target="_top" xlink:title="zrtos_task_mutex__lock">
<polygon fill="#ffffff" stroke="#000000" points="769,-55 769,-74 892,-74 892,-55 769,-55"/>
<text text-anchor="middle" x="830.5" y="-62" font-family="Helvetica,sans-Serif" font-size="10.00" fill="#000000">zrtos_task_mutex__lock</text>
</a>
</g>
</g>
<!-- Node26&#45;&gt;Node27 -->
<g id="edge10" class="edge">
<title>Node26&#45;&gt;Node27</title>
<path fill="none" stroke="#191970" d="M743.2673,-64.5C751.7376,-64.5 760.3925,-64.5 768.8021,-64.5"/>
<polygon fill="#191970" stroke="#191970" points="743.056,-61.0001 733.056,-64.5 743.056,-68.0001 743.056,-61.0001"/>
</g>
<!-- Node28 -->
<g id="node11" class="node">
<title>Node28</title>
<g id="a_node11"><a xlink:href="spi__sync_8h.html#acad5edb178ed84b8a1b7b3a877dbcd61" target="_top" xlink:title="zrtos_vfs_module_spi\l_sync__on_write_helper">
<polygon fill="#ffffff" stroke="#000000" points="928,-71.5 928,-101.5 1050,-101.5 1050,-71.5 928,-71.5"/>
<text text-anchor="start" x="936" y="-89.5" font-family="Helvetica,sans-Serif" font-size="10.00" fill="#000000">zrtos_vfs_module_spi</text>
<text text-anchor="middle" x="989" y="-78.5" font-family="Helvetica,sans-Serif" font-size="10.00" fill="#000000">_sync__on_write_helper</text>
</a>
</g>
</g>
<!-- Node27&#45;&gt;Node28 -->
<g id="edge11" class="edge">
<title>Node27&#45;&gt;Node28</title>
<path fill="none" stroke="#191970" d="M902.2386,-74.4574C910.8282,-75.6497 919.5367,-76.8584 927.9553,-78.0269"/>
<polygon fill="#191970" stroke="#191970" points="902.6204,-70.9769 892.2341,-73.0688 901.6579,-77.9105 902.6204,-70.9769"/>
</g>
<!-- Node30 -->
<g id="node13" class="node">
<title>Node30</title>
<g id="a_node13"><a xlink:href="task__pthread_8h.html#a12809c44718c21544ceb280dc1a53573" target="_top" xlink:title="pthread_mutex_lock">
<polygon fill="#ffffff" stroke="#000000" points="937,-33 937,-52 1041,-52 1041,-33 937,-33"/>
<text text-anchor="middle" x="989" y="-40" font-family="Helvetica,sans-Serif" font-size="10.00" fill="#000000">pthread_mutex_lock</text>
</a>
</g>
</g>
<!-- Node27&#45;&gt;Node30 -->
<g id="edge13" class="edge">
<title>Node27&#45;&gt;Node30</title>
<path fill="none" stroke="#191970" d="M902.3838,-54.5224C914.0252,-52.9066 925.8805,-51.2611 936.9331,-49.7269"/>
<polygon fill="#191970" stroke="#191970" points="901.6579,-51.0895 892.2341,-55.9312 902.6204,-58.0231 901.6579,-51.0895"/>
</g>
<!-- Node29 -->
<g id="node12" class="node">
<title>Node29</title>
<g id="a_node12"><a xlink:href="sync_8h.html#affc4ed32d5b66e97fb25c63faaf49eed" target="_top" xlink:title="zrtos_vfs_module_avr\l_spi_sync__on_write">
<polygon fill="#ffffff" stroke="#000000" points="1086,-71.5 1086,-101.5 1199,-101.5 1199,-71.5 1086,-71.5"/>
<text text-anchor="start" x="1094" y="-89.5" font-family="Helvetica,sans-Serif" font-size="10.00" fill="#000000">zrtos_vfs_module_avr</text>
<text text-anchor="middle" x="1142.5" y="-78.5" font-family="Helvetica,sans-Serif" font-size="10.00" fill="#000000">_spi_sync__on_write</text>
</a>
</g>
</g>
<!-- Node28&#45;&gt;Node29 -->
<g id="edge12" class="edge">
<title>Node28&#45;&gt;Node29</title>
<path fill="none" stroke="#191970" d="M1060.3578,-86.5C1068.8191,-86.5 1077.3682,-86.5 1085.5911,-86.5"/>
<polygon fill="#191970" stroke="#191970" points="1060.1084,-83.0001 1050.1083,-86.5 1060.1083,-90.0001 1060.1084,-83.0001"/>
</g>
</g>
</svg>
