<?xml version="1.0" encoding="UTF-8" standalone="no"?>
<!DOCTYPE svg PUBLIC "-//W3C//DTD SVG 1.1//EN"
 "http://www.w3.org/Graphics/SVG/1.1/DTD/svg11.dtd">
<!-- Generated by graphviz version 2.40.1 (20161225.0304)
 -->
<!-- Title: zrtos_task__is_ready Pages: 1 -->
<svg width="1183pt" height="176pt"
 viewBox="0.00 0.00 1183.00 176.00" xmlns="http://www.w3.org/2000/svg" xmlns:xlink="http://www.w3.org/1999/xlink">
<g id="graph0" class="graph" transform="scale(1 1) rotate(0) translate(4 172)">
<title>zrtos_task__is_ready</title>
<polygon fill="#ffffff" stroke="transparent" points="-4,4 -4,-172 1179,-172 1179,4 -4,4"/>
<!-- Node71 -->
<g id="node1" class="node">
<title>Node71</title>
<polygon fill="#bfbfbf" stroke="#000000" points="0,-77 0,-96 110,-96 110,-77 0,-77"/>
<text text-anchor="middle" x="55" y="-84" font-family="Helvetica,sans-Serif" font-size="10.00" fill="#000000">zrtos_task__is_ready</text>
</g>
<!-- Node72 -->
<g id="node2" class="node">
<title>Node72</title>
<g id="a_node2"><a xlink:href="task__scheduler_8h.html#aa63cd785e44d31b9ae87297fad4de032" target="_top" xlink:title="_zrtos_task_scheduler\l__switch_task">
<polygon fill="#ffffff" stroke="#000000" points="146,-71.5 146,-101.5 261,-101.5 261,-71.5 146,-71.5"/>
<text text-anchor="start" x="154" y="-89.5" font-family="Helvetica,sans-Serif" font-size="10.00" fill="#000000">_zrtos_task_scheduler</text>
<text text-anchor="middle" x="203.5" y="-78.5" font-family="Helvetica,sans-Serif" font-size="10.00" fill="#000000">__switch_task</text>
</a>
</g>
</g>
<!-- Node71&#45;&gt;Node72 -->
<g id="edge1" class="edge">
<title>Node71&#45;&gt;Node72</title>
<path fill="none" stroke="#191970" d="M120.4421,-86.5C128.8464,-86.5 137.4033,-86.5 145.6741,-86.5"/>
<polygon fill="#191970" stroke="#191970" points="120.296,-83.0001 110.2959,-86.5 120.2959,-90.0001 120.296,-83.0001"/>
</g>
<!-- Node73 -->
<g id="node3" class="node">
<title>Node73</title>
<g id="a_node3"><a xlink:href="task__scheduler_8h.html#ab670d7e1ab8db82279714a56efc3c99a" target="_top" xlink:title="_zrtos_task_scheduler\l__on_tick">
<polygon fill="#ffffff" stroke="#000000" points="297,-71.5 297,-101.5 412,-101.5 412,-71.5 297,-71.5"/>
<text text-anchor="start" x="305" y="-89.5" font-family="Helvetica,sans-Serif" font-size="10.00" fill="#000000">_zrtos_task_scheduler</text>
<text text-anchor="middle" x="354.5" y="-78.5" font-family="Helvetica,sans-Serif" font-size="10.00" fill="#000000">__on_tick</text>
</a>
</g>
</g>
<!-- Node72&#45;&gt;Node73 -->
<g id="edge2" class="edge">
<title>Node72&#45;&gt;Node73</title>
<path fill="none" stroke="#191970" d="M271.0519,-86.5C279.6779,-86.5 288.4438,-86.5 296.8925,-86.5"/>
<polygon fill="#191970" stroke="#191970" points="271.0174,-83.0001 261.0174,-86.5 271.0173,-90.0001 271.0174,-83.0001"/>
</g>
<!-- Node74 -->
<g id="node4" class="node">
<title>Node74</title>
<g id="a_node4"><a xlink:href="task__scheduler_8h.html#a8f15f366e9ce3328539ee562fd4c1e73" target="_top" xlink:title="_zrtos_task_scheduler\l__on_tick_ex">
<polygon fill="#ffffff" stroke="#000000" points="448,-71.5 448,-101.5 563,-101.5 563,-71.5 448,-71.5"/>
<text text-anchor="start" x="456" y="-89.5" font-family="Helvetica,sans-Serif" font-size="10.00" fill="#000000">_zrtos_task_scheduler</text>
<text text-anchor="middle" x="505.5" y="-78.5" font-family="Helvetica,sans-Serif" font-size="10.00" fill="#000000">__on_tick_ex</text>
</a>
</g>
</g>
<!-- Node73&#45;&gt;Node74 -->
<g id="edge3" class="edge">
<title>Node73&#45;&gt;Node74</title>
<path fill="none" stroke="#191970" d="M422.0519,-86.5C430.6779,-86.5 439.4438,-86.5 447.8925,-86.5"/>
<polygon fill="#191970" stroke="#191970" points="422.0174,-83.0001 412.0174,-86.5 422.0173,-90.0001 422.0174,-83.0001"/>
</g>
<!-- Node75 -->
<g id="node5" class="node">
<title>Node75</title>
<g id="a_node5"><a xlink:href="task__pthread_8h.html#ace168cf0d23cd4b085a2da31b881c750" target="_top" xlink:title="zrtos_task_pthread\l__trampoline_cb">
<polygon fill="#ffffff" stroke="#000000" points="604,-137.5 604,-167.5 704,-167.5 704,-137.5 604,-137.5"/>
<text text-anchor="start" x="612" y="-155.5" font-family="Helvetica,sans-Serif" font-size="10.00" fill="#000000">zrtos_task_pthread</text>
<text text-anchor="middle" x="654" y="-144.5" font-family="Helvetica,sans-Serif" font-size="10.00" fill="#000000">__trampoline_cb</text>
</a>
</g>
</g>
<!-- Node74&#45;&gt;Node75 -->
<g id="edge4" class="edge">
<title>Node74&#45;&gt;Node75</title>
<path fill="none" stroke="#191970" d="M548.9728,-105.8212C571.6544,-115.902 598.9917,-128.0519 620.0896,-137.4287"/>
<polygon fill="#191970" stroke="#191970" points="550.1285,-102.5048 539.5689,-101.6417 547.2855,-108.9015 550.1285,-102.5048"/>
</g>
<!-- Node77 -->
<g id="node7" class="node">
<title>Node77</title>
<g id="a_node7"><a xlink:href="task__pthread_8h.html#a28a15bba47cab57cbc9f5dac9af99c8b" target="_top" xlink:title="pthread_join">
<polygon fill="#ffffff" stroke="#000000" points="619.5,-99 619.5,-118 688.5,-118 688.5,-99 619.5,-99"/>
<text text-anchor="middle" x="654" y="-106" font-family="Helvetica,sans-Serif" font-size="10.00" fill="#000000">pthread_join</text>
</a>
</g>
</g>
<!-- Node74&#45;&gt;Node77 -->
<g id="edge6" class="edge">
<title>Node74&#45;&gt;Node77</title>
<path fill="none" stroke="#191970" d="M573.6382,-96.5946C589.4383,-98.9353 605.61,-101.3311 619.2654,-103.3541"/>
<polygon fill="#191970" stroke="#191970" points="573.7442,-93.0721 563.3392,-95.0688 572.7183,-99.9966 573.7442,-93.0721"/>
</g>
<!-- Node78 -->
<g id="node8" class="node">
<title>Node78</title>
<g id="a_node8"><a xlink:href="task__scheduler_8h.html#ae070a60f724cc39d3a4118b57004e82f" target="_top" xlink:title="zrtos_task_scheduler\l__delay_ms">
<polygon fill="#ffffff" stroke="#000000" points="599,-49.5 599,-79.5 709,-79.5 709,-49.5 599,-49.5"/>
<text text-anchor="start" x="607" y="-67.5" font-family="Helvetica,sans-Serif" font-size="10.00" fill="#000000">zrtos_task_scheduler</text>
<text text-anchor="middle" x="654" y="-56.5" font-family="Helvetica,sans-Serif" font-size="10.00" fill="#000000">__delay_ms</text>
</a>
</g>
</g>
<!-- Node74&#45;&gt;Node78 -->
<g id="edge7" class="edge">
<title>Node74&#45;&gt;Node78</title>
<path fill="none" stroke="#191970" d="M573.3425,-76.4493C581.9327,-75.1766 590.6381,-73.887 598.9942,-72.649"/>
<polygon fill="#191970" stroke="#191970" points="572.7183,-73.0034 563.3392,-77.9312 573.7442,-79.9279 572.7183,-73.0034"/>
</g>
<!-- Node83 -->
<g id="node13" class="node">
<title>Node83</title>
<g id="a_node13"><a xlink:href="task__scheduler_8h.html#a1e85f61c031a36a33f08d891597103b2" target="_top" xlink:title="zrtos_task_scheduler\l__init">
<polygon fill="#ffffff" stroke="#000000" points="599,-.5 599,-30.5 709,-30.5 709,-.5 599,-.5"/>
<text text-anchor="start" x="607" y="-18.5" font-family="Helvetica,sans-Serif" font-size="10.00" fill="#000000">zrtos_task_scheduler</text>
<text text-anchor="middle" x="654" y="-7.5" font-family="Helvetica,sans-Serif" font-size="10.00" fill="#000000">__init</text>
</a>
</g>
</g>
<!-- Node74&#45;&gt;Node83 -->
<g id="edge12" class="edge">
<title>Node74&#45;&gt;Node83</title>
<path fill="none" stroke="#191970" d="M545.1012,-66.6842C561.6969,-58.4667 581.229,-48.9079 599,-40.5 605.9212,-37.2254 613.3675,-33.7855 620.4765,-30.5408"/>
<polygon fill="#191970" stroke="#191970" points="543.1056,-63.7673 535.7047,-71.3487 546.2181,-70.0372 543.1056,-63.7673"/>
</g>
<!-- Node76 -->
<g id="node6" class="node">
<title>Node76</title>
<g id="a_node6"><a xlink:href="task__pthread_8h.html#a091adcef6201bebbf231763328c15286" target="_top" xlink:title="pthread_create">
<polygon fill="#ffffff" stroke="#000000" points="766,-143 766,-162 847,-162 847,-143 766,-143"/>
<text text-anchor="middle" x="806.5" y="-150" font-family="Helvetica,sans-Serif" font-size="10.00" fill="#000000">pthread_create</text>
</a>
</g>
</g>
<!-- Node75&#45;&gt;Node76 -->
<g id="edge5" class="edge">
<title>Node75&#45;&gt;Node76</title>
<path fill="none" stroke="#191970" d="M714.3664,-152.5C731.6384,-152.5 750.0482,-152.5 765.8347,-152.5"/>
<polygon fill="#191970" stroke="#191970" points="714.3569,-149.0001 704.3568,-152.5 714.3568,-156.0001 714.3569,-149.0001"/>
</g>
<!-- Node79 -->
<g id="node9" class="node">
<title>Node79</title>
<g id="a_node9"><a xlink:href="task__mutex_8h.html#a123e93e1f2eac3befe64178fba0bbcbd" target="_top" xlink:title="zrtos_task_mutex__lock">
<polygon fill="#ffffff" stroke="#000000" points="745,-55 745,-74 868,-74 868,-55 745,-55"/>
<text text-anchor="middle" x="806.5" y="-62" font-family="Helvetica,sans-Serif" font-size="10.00" fill="#000000">zrtos_task_mutex__lock</text>
</a>
</g>
</g>
<!-- Node78&#45;&gt;Node79 -->
<g id="edge8" class="edge">
<title>Node78&#45;&gt;Node79</title>
<path fill="none" stroke="#191970" d="M719.2673,-64.5C727.7376,-64.5 736.3925,-64.5 744.8021,-64.5"/>
<polygon fill="#191970" stroke="#191970" points="719.056,-61.0001 709.056,-64.5 719.056,-68.0001 719.056,-61.0001"/>
</g>
<!-- Node80 -->
<g id="node10" class="node">
<title>Node80</title>
<g id="a_node10"><a xlink:href="spi__sync_8h.html#acad5edb178ed84b8a1b7b3a877dbcd61" target="_top" xlink:title="zrtos_vfs_module_spi\l_sync__on_write_helper">
<polygon fill="#ffffff" stroke="#000000" points="904,-71.5 904,-101.5 1026,-101.5 1026,-71.5 904,-71.5"/>
<text text-anchor="start" x="912" y="-89.5" font-family="Helvetica,sans-Serif" font-size="10.00" fill="#000000">zrtos_vfs_module_spi</text>
<text text-anchor="middle" x="965" y="-78.5" font-family="Helvetica,sans-Serif" font-size="10.00" fill="#000000">_sync__on_write_helper</text>
</a>
</g>
</g>
<!-- Node79&#45;&gt;Node80 -->
<g id="edge9" class="edge">
<title>Node79&#45;&gt;Node80</title>
<path fill="none" stroke="#191970" d="M878.2386,-74.4574C886.8282,-75.6497 895.5367,-76.8584 903.9553,-78.0269"/>
<polygon fill="#191970" stroke="#191970" points="878.6204,-70.9769 868.2341,-73.0688 877.6579,-77.9105 878.6204,-70.9769"/>
</g>
<!-- Node82 -->
<g id="node12" class="node">
<title>Node82</title>
<g id="a_node12"><a xlink:href="task__pthread_8h.html#a12809c44718c21544ceb280dc1a53573" target="_top" xlink:title="pthread_mutex_lock">
<polygon fill="#ffffff" stroke="#000000" points="913,-33 913,-52 1017,-52 1017,-33 913,-33"/>
<text text-anchor="middle" x="965" y="-40" font-family="Helvetica,sans-Serif" font-size="10.00" fill="#000000">pthread_mutex_lock</text>
</a>
</g>
</g>
<!-- Node79&#45;&gt;Node82 -->
<g id="edge11" class="edge">
<title>Node79&#45;&gt;Node82</title>
<path fill="none" stroke="#191970" d="M878.3838,-54.5224C890.0252,-52.9066 901.8805,-51.2611 912.9331,-49.7269"/>
<polygon fill="#191970" stroke="#191970" points="877.6579,-51.0895 868.2341,-55.9312 878.6204,-58.0231 877.6579,-51.0895"/>
</g>
<!-- Node81 -->
<g id="node11" class="node">
<title>Node81</title>
<g id="a_node11"><a xlink:href="sync_8h.html#affc4ed32d5b66e97fb25c63faaf49eed" target="_top" xlink:title="zrtos_vfs_module_avr\l_spi_sync__on_write">
<polygon fill="#ffffff" stroke="#000000" points="1062,-71.5 1062,-101.5 1175,-101.5 1175,-71.5 1062,-71.5"/>
<text text-anchor="start" x="1070" y="-89.5" font-family="Helvetica,sans-Serif" font-size="10.00" fill="#000000">zrtos_vfs_module_avr</text>
<text text-anchor="middle" x="1118.5" y="-78.5" font-family="Helvetica,sans-Serif" font-size="10.00" fill="#000000">_spi_sync__on_write</text>
</a>
</g>
</g>
<!-- Node80&#45;&gt;Node81 -->
<g id="edge10" class="edge">
<title>Node80&#45;&gt;Node81</title>
<path fill="none" stroke="#191970" d="M1036.3578,-86.5C1044.8191,-86.5 1053.3682,-86.5 1061.5911,-86.5"/>
<polygon fill="#191970" stroke="#191970" points="1036.1084,-83.0001 1026.1083,-86.5 1036.1083,-90.0001 1036.1084,-83.0001"/>
</g>
</g>
</svg>
