<?xml version="1.0" encoding="UTF-8" standalone="no"?>
<!DOCTYPE svg PUBLIC "-//W3C//DTD SVG 1.1//EN"
 "http://www.w3.org/Graphics/SVG/1.1/DTD/svg11.dtd">
<!-- Generated by graphviz version 10.0.1 (20240210.2158)
 -->
<!-- Title: zrtos_task__init_ex Pages: 1 -->
<svg width="376pt" height="28pt"
 viewBox="0.00 0.00 376.25 28.00" xmlns="http://www.w3.org/2000/svg" xmlns:xlink="http://www.w3.org/1999/xlink">
<g id="graph0" class="graph" transform="scale(1 1) rotate(0) translate(4 24)">
<title>zrtos_task__init_ex</title>
<!-- Node1 -->
<g id="Node000001" class="node">
<title>Node1</title>
<g id="a_Node000001"><a xlink:title=" ">
<polygon fill="#999999" stroke="#666666" points="100.75,-20 0,-20 0,0 100.75,0 100.75,-20"/>
<text text-anchor="middle" x="50.38" y="-6.5" font-family="Helvetica,sans-Serif" font-size="10.00">zrtos_task__init_ex</text>
</a>
</g>
</g>
<!-- Node2 -->
<g id="Node000002" class="node">
<title>Node2</title>
<g id="a_Node000002"><a xlink:href="task_8h.html#a57b11c5affd2719f0abf5fa9bc8feaa6" target="_top" xlink:title=" ">
<polygon fill="white" stroke="#666666" points="221.75,-20 136.75,-20 136.75,0 221.75,0 221.75,-20"/>
<text text-anchor="middle" x="179.25" y="-6.5" font-family="Helvetica,sans-Serif" font-size="10.00">zrtos_task__init</text>
</a>
</g>
</g>
<!-- Node1&#45;&gt;Node2 -->
<g id="edge1_Node000001_Node000002" class="edge">
<title>Node1&#45;&gt;Node2</title>
<g id="a_edge1_Node000001_Node000002"><a xlink:title=" ">
<path fill="none" stroke="#63b8ff" d="M101.16,-10C108.99,-10 117.12,-10 125.03,-10"/>
<polygon fill="#63b8ff" stroke="#63b8ff" points="124.89,-13.5 134.89,-10 124.89,-6.5 124.89,-13.5"/>
</a>
</g>
</g>
<!-- Node3 -->
<g id="Node000003" class="node">
<title>Node3</title>
<g id="a_Node000003"><a xlink:href="clist_8h.html#a26b8f9c0c172cd6d9deba237155bf40a" target="_top" xlink:title=" ">
<polygon fill="white" stroke="#666666" points="368.25,-20 257.75,-20 257.75,0 368.25,0 368.25,-20"/>
<text text-anchor="middle" x="313" y="-6.5" font-family="Helvetica,sans-Serif" font-size="10.00">zrtos_clist_node__init</text>
</a>
</g>
</g>
<!-- Node2&#45;&gt;Node3 -->
<g id="edge2_Node000002_Node000003" class="edge">
<title>Node2&#45;&gt;Node3</title>
<g id="a_edge2_Node000002_Node000003"><a xlink:title=" ">
<path fill="none" stroke="#63b8ff" d="M221.94,-10C229.71,-10 238.01,-10 246.3,-10"/>
<polygon fill="#63b8ff" stroke="#63b8ff" points="246.04,-13.5 256.04,-10 246.04,-6.5 246.04,-13.5"/>
</a>
</g>
</g>
</g>
</svg>
