<?xml version="1.0" encoding="UTF-8" standalone="no"?>
<!DOCTYPE svg PUBLIC "-//W3C//DTD SVG 1.1//EN"
 "http://www.w3.org/Graphics/SVG/1.1/DTD/svg11.dtd">
<!-- Generated by graphviz version 10.0.1 (20240210.2158)
 -->
<!-- Title: _zrtos_task_scheduler__get_active_task Pages: 1 -->
<svg width="1472pt" height="254pt"
 viewBox="0.00 0.00 1472.25 254.00" xmlns="http://www.w3.org/2000/svg" xmlns:xlink="http://www.w3.org/1999/xlink">
<g id="graph0" class="graph" transform="scale(1 1) rotate(0) translate(4 250)">
<title>_zrtos_task_scheduler__get_active_task</title>
<!-- Node1 -->
<g id="Node000001" class="node">
<title>Node1</title>
<g id="a_Node000001"><a xlink:title=" ">
<polygon fill="#999999" stroke="#666666" points="1464.25,-142 1350,-142 1350,-110 1464.25,-110 1464.25,-142"/>
<text text-anchor="start" x="1358" y="-128.5" font-family="Helvetica,sans-Serif" font-size="10.00">_zrtos_task_scheduler</text>
<text text-anchor="middle" x="1407.12" y="-116.5" font-family="Helvetica,sans-Serif" font-size="10.00">__get_active_task</text>
</a>
</g>
</g>
<!-- Node2 -->
<g id="Node000002" class="node">
<title>Node2</title>
<g id="a_Node000002"><a xlink:href="task__scheduler_8h.html#aa63cd785e44d31b9ae87297fad4de032" target="_top" xlink:title=" ">
<polygon fill="white" stroke="#666666" points="1018.75,-143 904.5,-143 904.5,-111 1018.75,-111 1018.75,-143"/>
<text text-anchor="start" x="912.5" y="-129.5" font-family="Helvetica,sans-Serif" font-size="10.00">_zrtos_task_scheduler</text>
<text text-anchor="middle" x="961.62" y="-117.5" font-family="Helvetica,sans-Serif" font-size="10.00">__switch_task</text>
</a>
</g>
</g>
<!-- Node1&#45;&gt;Node2 -->
<g id="edge1_Node000001_Node000002" class="edge">
<title>Node1&#45;&gt;Node2</title>
<g id="a_edge1_Node000001_Node000002"><a xlink:title=" ">
<path fill="none" stroke="#63b8ff" d="M1367.66,-147.44C1351.59,-155.24 1332.4,-163.09 1314,-167 1209.35,-189.24 1084.37,-162.67 1015.22,-143.43"/>
<polygon fill="#63b8ff" stroke="#63b8ff" points="1369.02,-150.68 1376.37,-143.05 1365.87,-144.42 1369.02,-150.68"/>
</a>
</g>
</g>
<!-- Node8 -->
<g id="Node000008" class="node">
<title>Node8</title>
<g id="a_Node000008"><a xlink:href="task__scheduler_8h.html#ae070a60f724cc39d3a4118b57004e82f" target="_top" xlink:title=" ">
<polygon fill="white" stroke="#666666" points="568,-230 459,-230 459,-198 568,-198 568,-230"/>
<text text-anchor="start" x="467" y="-216.5" font-family="Helvetica,sans-Serif" font-size="10.00">zrtos_task_scheduler</text>
<text text-anchor="middle" x="513.5" y="-204.5" font-family="Helvetica,sans-Serif" font-size="10.00">__delay_ms</text>
</a>
</g>
</g>
<!-- Node1&#45;&gt;Node8 -->
<g id="edge16_Node000001_Node000008" class="edge">
<title>Node1&#45;&gt;Node8</title>
<g id="a_edge16_Node000001_Node000008"><a xlink:title=" ">
<path fill="none" stroke="#63b8ff" d="M1376.75,-148.9C1359.39,-161.36 1336.47,-176.01 1314,-185 1229.46,-218.82 1203.93,-224 1112.88,-224 1112.88,-224 1112.88,-224 810.38,-224 725.83,-224 627.77,-219.87 568.47,-216.92"/>
<polygon fill="#63b8ff" stroke="#63b8ff" points="1378.58,-151.9 1384.56,-143.15 1374.43,-146.26 1378.58,-151.9"/>
</a>
</g>
</g>
<!-- Node14 -->
<g id="Node000014" class="node">
<title>Node14</title>
<g id="a_Node000014"><a xlink:href="task__pthread_8h.html#a4c4f5f3b4f8f45d9d897847d53b11aaa" target="_top" xlink:title=" ">
<polygon fill="white" stroke="#666666" points="1293.75,-158 1225.25,-158 1225.25,-138 1293.75,-138 1293.75,-158"/>
<text text-anchor="middle" x="1259.5" y="-144.5" font-family="Helvetica,sans-Serif" font-size="10.00">pthread_self</text>
</a>
</g>
</g>
<!-- Node1&#45;&gt;Node14 -->
<g id="edge13_Node000001_Node000014" class="edge">
<title>Node1&#45;&gt;Node14</title>
<g id="a_edge13_Node000001_Node000014"><a xlink:title=" ">
<path fill="none" stroke="#63b8ff" d="M1338.62,-136.2C1323.09,-138.54 1307.25,-140.94 1293.92,-142.95"/>
<polygon fill="#63b8ff" stroke="#63b8ff" points="1338.96,-139.69 1348.33,-134.73 1337.92,-132.76 1338.96,-139.69"/>
</a>
</g>
</g>
<!-- Node15 -->
<g id="Node000015" class="node">
<title>Node15</title>
<g id="a_Node000015"><a xlink:href="task__scheduler_8h.html#ae82b03fcfb70e448c4a0bbd59ef8a035" target="_top" xlink:title=" ">
<polygon fill="white" stroke="#666666" points="1166.38,-32 1057.38,-32 1057.38,0 1166.38,0 1166.38,-32"/>
<text text-anchor="start" x="1065.38" y="-18.5" font-family="Helvetica,sans-Serif" font-size="10.00">zrtos_task_scheduler</text>
<text text-anchor="middle" x="1111.88" y="-6.5" font-family="Helvetica,sans-Serif" font-size="10.00">__add_task</text>
</a>
</g>
</g>
<!-- Node1&#45;&gt;Node15 -->
<g id="edge14_Node000001_Node000015" class="edge">
<title>Node1&#45;&gt;Node15</title>
<g id="a_edge14_Node000001_Node000015"><a xlink:title=" ">
<path fill="none" stroke="#63b8ff" d="M1385,-101.26C1367.83,-82.88 1341.94,-58.87 1314,-46 1267.34,-24.51 1208.75,-17.76 1166.86,-15.93"/>
<polygon fill="#63b8ff" stroke="#63b8ff" points="1382.38,-103.57 1391.69,-108.63 1387.56,-98.87 1382.38,-103.57"/>
</a>
</g>
</g>
<!-- Node16 -->
<g id="Node000016" class="node">
<title>Node16</title>
<g id="a_Node000016"><a xlink:href="task__scheduler_8h.html#ae5915a01574e06572708120eaea79d3b" target="_top" xlink:title=" ">
<polygon fill="white" stroke="#666666" points="1016.12,-76 907.12,-76 907.12,-44 1016.12,-44 1016.12,-76"/>
<text text-anchor="start" x="915.12" y="-62.5" font-family="Helvetica,sans-Serif" font-size="10.00">zrtos_task_scheduler</text>
<text text-anchor="middle" x="961.62" y="-50.5" font-family="Helvetica,sans-Serif" font-size="10.00">__has_task</text>
</a>
</g>
</g>
<!-- Node1&#45;&gt;Node16 -->
<g id="edge17_Node000001_Node000016" class="edge">
<title>Node1&#45;&gt;Node16</title>
<g id="a_edge17_Node000001_Node000016"><a xlink:title=" ">
<path fill="none" stroke="#63b8ff" d="M1371.26,-103.84C1354.59,-94.41 1333.96,-84.37 1314,-79 1211.5,-51.42 1086.28,-52.52 1016.39,-56.08"/>
<polygon fill="#63b8ff" stroke="#63b8ff" points="1369.38,-106.8 1379.78,-108.82 1372.91,-100.75 1369.38,-106.8"/>
</a>
</g>
</g>
<!-- Node17 -->
<g id="Node000017" class="node">
<title>Node17</title>
<g id="a_Node000017"><a xlink:href="task__scheduler_8h.html#ac07ede37ac8af0c3d77478c3362c5098" target="_top" xlink:title=" ">
<polygon fill="white" stroke="#666666" points="1314,-120 1205,-120 1205,-88 1314,-88 1314,-120"/>
<text text-anchor="start" x="1213" y="-106.5" font-family="Helvetica,sans-Serif" font-size="10.00">zrtos_task_scheduler</text>
<text text-anchor="middle" x="1259.5" y="-94.5" font-family="Helvetica,sans-Serif" font-size="10.00">__page_task_out</text>
</a>
</g>
</g>
<!-- Node1&#45;&gt;Node17 -->
<g id="edge19_Node000001_Node000017" class="edge">
<title>Node1&#45;&gt;Node17</title>
<g id="a_edge19_Node000001_Node000017"><a xlink:title=" ">
<path fill="none" stroke="#63b8ff" d="M1338.45,-115.78C1330.34,-114.55 1322.14,-113.31 1314.26,-112.12"/>
<polygon fill="#63b8ff" stroke="#63b8ff" points="1337.92,-119.24 1348.33,-117.27 1338.96,-112.31 1337.92,-119.24"/>
</a>
</g>
</g>
<!-- Node3 -->
<g id="Node000003" class="node">
<title>Node3</title>
<g id="a_Node000003"><a xlink:href="task__scheduler_8h.html#ab670d7e1ab8db82279714a56efc3c99a" target="_top" xlink:title=" ">
<polygon fill="white" stroke="#666666" points="868.5,-143 754.25,-143 754.25,-111 868.5,-111 868.5,-143"/>
<text text-anchor="start" x="762.25" y="-129.5" font-family="Helvetica,sans-Serif" font-size="10.00">_zrtos_task_scheduler</text>
<text text-anchor="middle" x="811.38" y="-117.5" font-family="Helvetica,sans-Serif" font-size="10.00">__on_tick</text>
</a>
</g>
</g>
<!-- Node2&#45;&gt;Node3 -->
<g id="edge2_Node000002_Node000003" class="edge">
<title>Node2&#45;&gt;Node3</title>
<g id="a_edge2_Node000002_Node000003"><a xlink:title=" ">
<path fill="none" stroke="#63b8ff" d="M892.84,-127C884.76,-127 876.58,-127 868.69,-127"/>
<polygon fill="#63b8ff" stroke="#63b8ff" points="892.64,-130.5 902.64,-127 892.64,-123.5 892.64,-130.5"/>
</a>
</g>
</g>
<!-- Node4 -->
<g id="Node000004" class="node">
<title>Node4</title>
<g id="a_Node000004"><a xlink:href="task__scheduler_8h.html#a8f15f366e9ce3328539ee562fd4c1e73" target="_top" xlink:title=" ">
<polygon fill="white" stroke="#666666" points="718.25,-143 604,-143 604,-111 718.25,-111 718.25,-143"/>
<text text-anchor="start" x="612" y="-129.5" font-family="Helvetica,sans-Serif" font-size="10.00">_zrtos_task_scheduler</text>
<text text-anchor="middle" x="661.12" y="-117.5" font-family="Helvetica,sans-Serif" font-size="10.00">__on_tick_ex</text>
</a>
</g>
</g>
<!-- Node3&#45;&gt;Node4 -->
<g id="edge3_Node000003_Node000004" class="edge">
<title>Node3&#45;&gt;Node4</title>
<g id="a_edge3_Node000003_Node000004"><a xlink:title=" ">
<path fill="none" stroke="#63b8ff" d="M742.59,-127C734.51,-127 726.33,-127 718.44,-127"/>
<polygon fill="#63b8ff" stroke="#63b8ff" points="742.39,-130.5 752.39,-127 742.39,-123.5 742.39,-130.5"/>
</a>
</g>
</g>
<!-- Node5 -->
<g id="Node000005" class="node">
<title>Node5</title>
<g id="a_Node000005"><a xlink:href="task__pthread_8h.html#a28a15bba47cab57cbc9f5dac9af99c8b" target="_top" xlink:title=" ">
<polygon fill="white" stroke="#666666" points="547.75,-70 479.25,-70 479.25,-50 547.75,-50 547.75,-70"/>
<text text-anchor="middle" x="513.5" y="-56.5" font-family="Helvetica,sans-Serif" font-size="10.00">pthread_join</text>
</a>
</g>
</g>
<!-- Node4&#45;&gt;Node5 -->
<g id="edge4_Node000004_Node000005" class="edge">
<title>Node4&#45;&gt;Node5</title>
<g id="a_edge4_Node000004_Node000005"><a xlink:title=" ">
<path fill="none" stroke="#63b8ff" d="M621.48,-105.34C605.22,-96.62 585.94,-86.81 568,-79 561.04,-75.97 553.43,-73.04 546.19,-70.43"/>
<polygon fill="#63b8ff" stroke="#63b8ff" points="619.38,-108.18 629.84,-109.87 622.72,-102.03 619.38,-108.18"/>
</a>
</g>
</g>
<!-- Node6 -->
<g id="Node000006" class="node">
<title>Node6</title>
<g id="a_Node000006"><a xlink:href="task__pthread_8h.html#ace168cf0d23cd4b085a2da31b881c750" target="_top" xlink:title=" ">
<polygon fill="white" stroke="#666666" points="563.12,-170 463.88,-170 463.88,-138 563.12,-138 563.12,-170"/>
<text text-anchor="start" x="471.88" y="-156.5" font-family="Helvetica,sans-Serif" font-size="10.00">zrtos_task_pthread</text>
<text text-anchor="middle" x="513.5" y="-144.5" font-family="Helvetica,sans-Serif" font-size="10.00">__trampoline_cb</text>
</a>
</g>
</g>
<!-- Node4&#45;&gt;Node6 -->
<g id="edge5_Node000004_Node000006" class="edge">
<title>Node4&#45;&gt;Node6</title>
<g id="a_edge5_Node000004_Node000006"><a xlink:title=" ">
<path fill="none" stroke="#63b8ff" d="M592.79,-139.48C582.93,-141.31 572.94,-143.16 563.54,-144.91"/>
<polygon fill="#63b8ff" stroke="#63b8ff" points="593.14,-142.98 602.33,-137.71 591.86,-136.1 593.14,-142.98"/>
</a>
</g>
</g>
<!-- Node4&#45;&gt;Node8 -->
<g id="edge7_Node000004_Node000008" class="edge">
<title>Node4&#45;&gt;Node8</title>
<g id="a_edge7_Node000004_Node000008"><a xlink:title=" ">
<path fill="none" stroke="#63b8ff" d="M623.09,-149.12C597.75,-164.26 564.72,-184 541.77,-197.71"/>
<polygon fill="#63b8ff" stroke="#63b8ff" points="624.65,-152.27 631.43,-144.14 621.05,-146.26 624.65,-152.27"/>
</a>
</g>
</g>
<!-- Node13 -->
<g id="Node000013" class="node">
<title>Node13</title>
<g id="a_Node000013"><a xlink:href="task__scheduler_8h.html#a1e85f61c031a36a33f08d891597103b2" target="_top" xlink:title=" ">
<polygon fill="white" stroke="#666666" points="568,-120 459,-120 459,-88 568,-88 568,-120"/>
<text text-anchor="start" x="467" y="-106.5" font-family="Helvetica,sans-Serif" font-size="10.00">zrtos_task_scheduler</text>
<text text-anchor="middle" x="513.5" y="-94.5" font-family="Helvetica,sans-Serif" font-size="10.00">__init</text>
</a>
</g>
</g>
<!-- Node4&#45;&gt;Node13 -->
<g id="edge12_Node000004_Node000013" class="edge">
<title>Node4&#45;&gt;Node13</title>
<g id="a_edge12_Node000004_Node000013"><a xlink:title=" ">
<path fill="none" stroke="#63b8ff" d="M592.45,-116.31C584.34,-115.03 576.14,-113.74 568.26,-112.49"/>
<polygon fill="#63b8ff" stroke="#63b8ff" points="591.9,-119.77 602.33,-117.87 593,-112.85 591.9,-119.77"/>
</a>
</g>
</g>
<!-- Node7 -->
<g id="Node000007" class="node">
<title>Node7</title>
<g id="a_Node000007"><a xlink:href="task__pthread_8h.html#a091adcef6201bebbf231763328c15286" target="_top" xlink:title=" ">
<polygon fill="white" stroke="#666666" points="402,-95 321.5,-95 321.5,-75 402,-75 402,-95"/>
<text text-anchor="middle" x="361.75" y="-81.5" font-family="Helvetica,sans-Serif" font-size="10.00">pthread_create</text>
</a>
</g>
</g>
<!-- Node6&#45;&gt;Node7 -->
<g id="edge6_Node000006_Node000007" class="edge">
<title>Node6&#45;&gt;Node7</title>
<g id="a_edge6_Node000006_Node000007"><a xlink:title=" ">
<path fill="none" stroke="#63b8ff" d="M466.64,-132.87C439.72,-120.47 406.88,-105.33 385.42,-95.45"/>
<polygon fill="#63b8ff" stroke="#63b8ff" points="465.09,-136.01 475.64,-137.01 468.02,-129.65 465.09,-136.01"/>
</a>
</g>
</g>
<!-- Node9 -->
<g id="Node000009" class="node">
<title>Node9</title>
<g id="a_Node000009"><a xlink:href="task__mutex_8h.html#a123e93e1f2eac3befe64178fba0bbcbd" target="_top" xlink:title=" ">
<polygon fill="white" stroke="#666666" points="423,-224 300.5,-224 300.5,-204 423,-204 423,-224"/>
<text text-anchor="middle" x="361.75" y="-210.5" font-family="Helvetica,sans-Serif" font-size="10.00">zrtos_task_mutex__lock</text>
</a>
</g>
</g>
<!-- Node8&#45;&gt;Node9 -->
<g id="edge8_Node000008_Node000009" class="edge">
<title>Node8&#45;&gt;Node9</title>
<g id="a_edge8_Node000008_Node000009"><a xlink:title=" ">
<path fill="none" stroke="#63b8ff" d="M447.35,-214C439.39,-214 431.28,-214 423.4,-214"/>
<polygon fill="#63b8ff" stroke="#63b8ff" points="447.35,-217.5 457.35,-214 447.35,-210.5 447.35,-217.5"/>
</a>
</g>
</g>
<!-- Node10 -->
<g id="Node000010" class="node">
<title>Node10</title>
<g id="a_Node000010"><a xlink:href="task__pthread_8h.html#a12809c44718c21544ceb280dc1a53573" target="_top" xlink:title=" ">
<polygon fill="white" stroke="#666666" points="256.25,-246 152.5,-246 152.5,-226 256.25,-226 256.25,-246"/>
<text text-anchor="middle" x="204.38" y="-232.5" font-family="Helvetica,sans-Serif" font-size="10.00">pthread_mutex_lock</text>
</a>
</g>
</g>
<!-- Node9&#45;&gt;Node10 -->
<g id="edge9_Node000009_Node000010" class="edge">
<title>Node9&#45;&gt;Node10</title>
<g id="a_edge9_Node000009_Node000010"><a xlink:title=" ">
<path fill="none" stroke="#63b8ff" d="M288.9,-224.17C277.93,-225.73 266.81,-227.3 256.42,-228.77"/>
<polygon fill="#63b8ff" stroke="#63b8ff" points="289.32,-227.65 298.73,-222.78 288.34,-220.72 289.32,-227.65"/>
</a>
</g>
</g>
<!-- Node11 -->
<g id="Node000011" class="node">
<title>Node11</title>
<g id="a_Node000011"><a xlink:href="spi__sync_8h.html#acad5edb178ed84b8a1b7b3a877dbcd61" target="_top" xlink:title=" ">
<polygon fill="white" stroke="#666666" points="264.5,-208 144.25,-208 144.25,-176 264.5,-176 264.5,-208"/>
<text text-anchor="start" x="152.25" y="-194.5" font-family="Helvetica,sans-Serif" font-size="10.00">zrtos_vfs_module_spi</text>
<text text-anchor="middle" x="204.38" y="-182.5" font-family="Helvetica,sans-Serif" font-size="10.00">_sync__on_write_helper</text>
</a>
</g>
</g>
<!-- Node9&#45;&gt;Node11 -->
<g id="edge10_Node000009_Node000011" class="edge">
<title>Node9&#45;&gt;Node11</title>
<g id="a_edge10_Node000009_Node000011"><a xlink:title=" ">
<path fill="none" stroke="#63b8ff" d="M288.97,-203.84C280.94,-202.7 272.82,-201.55 264.96,-200.44"/>
<polygon fill="#63b8ff" stroke="#63b8ff" points="288.34,-207.28 298.73,-205.22 289.32,-200.35 288.34,-207.28"/>
</a>
</g>
</g>
<!-- Node12 -->
<g id="Node000012" class="node">
<title>Node12</title>
<g id="a_Node000012"><a xlink:href="sync_8h.html#affc4ed32d5b66e97fb25c63faaf49eed" target="_top" xlink:title=" ">
<polygon fill="white" stroke="#666666" points="108.25,-208 0,-208 0,-176 108.25,-176 108.25,-208"/>
<text text-anchor="start" x="8" y="-194.5" font-family="Helvetica,sans-Serif" font-size="10.00">zrtos_vfs_module_avr</text>
<text text-anchor="middle" x="54.12" y="-182.5" font-family="Helvetica,sans-Serif" font-size="10.00">_spi_sync__on_write</text>
</a>
</g>
</g>
<!-- Node11&#45;&gt;Node12 -->
<g id="edge11_Node000011_Node000012" class="edge">
<title>Node11&#45;&gt;Node12</title>
<g id="a_edge11_Node000011_Node000012"><a xlink:title=" ">
<path fill="none" stroke="#63b8ff" d="M132.51,-192C124.38,-192 116.2,-192 108.36,-192"/>
<polygon fill="#63b8ff" stroke="#63b8ff" points="132.42,-195.5 142.42,-192 132.42,-188.5 132.42,-195.5"/>
</a>
</g>
</g>
<!-- Node15&#45;&gt;Node7 -->
<g id="edge15_Node000015_Node000007" class="edge">
<title>Node15&#45;&gt;Node7</title>
<g id="a_edge15_Node000015_Node000007"><a xlink:title=" ">
<path fill="none" stroke="#63b8ff" d="M1045.67,-16C985.2,-16 892.71,-16 812.38,-16 812.38,-16 812.38,-16 660.12,-16 570.05,-16 545.66,-16.43 459,-41 430.54,-49.07 399.81,-64.39 380.92,-74.65"/>
<polygon fill="#63b8ff" stroke="#63b8ff" points="1045.44,-19.5 1055.44,-16 1045.44,-12.5 1045.44,-19.5"/>
</a>
</g>
</g>
<!-- Node16&#45;&gt;Node5 -->
<g id="edge18_Node000016_Node000005" class="edge">
<title>Node16&#45;&gt;Node5</title>
<g id="a_edge18_Node000016_Node000005"><a xlink:title=" ">
<path fill="none" stroke="#63b8ff" d="M895.47,-60C799.08,-60 621.93,-60 548.14,-60"/>
<polygon fill="#63b8ff" stroke="#63b8ff" points="895.3,-63.5 905.3,-60 895.3,-56.5 895.3,-63.5"/>
</a>
</g>
</g>
<!-- Node18 -->
<g id="Node000018" class="node">
<title>Node18</title>
<g id="a_Node000018"><a xlink:href="task__scheduler_8h.html#ae6c8c745afe69110cc85c56bff00689a" target="_top" xlink:title=" ">
<polygon fill="white" stroke="#666666" points="1169,-140 1054.75,-140 1054.75,-108 1169,-108 1169,-140"/>
<text text-anchor="start" x="1062.75" y="-126.5" font-family="Helvetica,sans-Serif" font-size="10.00">_zrtos_task_scheduler</text>
<text text-anchor="middle" x="1111.88" y="-114.5" font-family="Helvetica,sans-Serif" font-size="10.00">__set_active_task</text>
</a>
</g>
</g>
<!-- Node17&#45;&gt;Node18 -->
<g id="edge20_Node000017_Node000018" class="edge">
<title>Node17&#45;&gt;Node18</title>
<g id="a_edge20_Node000017_Node000018"><a xlink:title=" ">
<path fill="none" stroke="#63b8ff" d="M1193.46,-112.93C1185.44,-114.03 1177.28,-115.15 1169.39,-116.24"/>
<polygon fill="#63b8ff" stroke="#63b8ff" points="1193.76,-116.42 1203.19,-111.6 1192.81,-109.49 1193.76,-116.42"/>
</a>
</g>
</g>
<!-- Node18&#45;&gt;Node2 -->
<g id="edge21_Node000018_Node000002" class="edge">
<title>Node18&#45;&gt;Node2</title>
<g id="a_edge21_Node000018_Node000002"><a xlink:title=" ">
<path fill="none" stroke="#63b8ff" d="M1043.09,-125.37C1035.01,-125.54 1026.83,-125.7 1018.94,-125.86"/>
<polygon fill="#63b8ff" stroke="#63b8ff" points="1042.96,-128.88 1052.89,-125.17 1042.82,-121.88 1042.96,-128.88"/>
</a>
</g>
</g>
</g>
</svg>
