<?xml version="1.0" encoding="UTF-8" standalone="no"?>
<!DOCTYPE svg PUBLIC "-//W3C//DTD SVG 1.1//EN"
 "http://www.w3.org/Graphics/SVG/1.1/DTD/svg11.dtd">
<!-- Generated by graphviz version 10.0.1 (20240210.2158)
 -->
<!-- Title: zrtos_task_scheduler__init Pages: 1 -->
<svg width="1213pt" height="280pt"
 viewBox="0.00 0.00 1213.00 280.22" xmlns="http://www.w3.org/2000/svg" xmlns:xlink="http://www.w3.org/1999/xlink">
<g id="graph0" class="graph" transform="scale(1 1) rotate(0) translate(4 276.22)">
<title>zrtos_task_scheduler__init</title>
<!-- Node1 -->
<g id="Node000001" class="node">
<title>Node1</title>
<g id="a_Node000001"><a xlink:title=" ">
<polygon fill="#999999" stroke="#666666" points="109,-85.22 0,-85.22 0,-53.22 109,-53.22 109,-85.22"/>
<text text-anchor="start" x="8" y="-71.72" font-family="Helvetica,sans-Serif" font-size="10.00">zrtos_task_scheduler</text>
<text text-anchor="middle" x="54.5" y="-59.72" font-family="Helvetica,sans-Serif" font-size="10.00">__init</text>
</a>
</g>
</g>
<!-- Node2 -->
<g id="Node000002" class="node">
<title>Node2</title>
<g id="a_Node000002"><a xlink:href="task__scheduler_8h.html#a8f15f366e9ce3328539ee562fd4c1e73" target="_top" xlink:title=" ">
<polygon fill="white" stroke="#666666" points="259.25,-148.22 145,-148.22 145,-116.22 259.25,-116.22 259.25,-148.22"/>
<text text-anchor="start" x="153" y="-134.72" font-family="Helvetica,sans-Serif" font-size="10.00">_zrtos_task_scheduler</text>
<text text-anchor="middle" x="202.12" y="-122.72" font-family="Helvetica,sans-Serif" font-size="10.00">__on_tick_ex</text>
</a>
</g>
</g>
<!-- Node1&#45;&gt;Node2 -->
<g id="edge1_Node000001_Node000002" class="edge">
<title>Node1&#45;&gt;Node2</title>
<g id="a_edge1_Node000001_Node000002"><a xlink:title=" ">
<path fill="none" stroke="#63b8ff" d="M93.38,-85.61C111.51,-93.46 133.43,-102.94 152.75,-111.3"/>
<polygon fill="#63b8ff" stroke="#63b8ff" points="151.22,-114.45 161.79,-115.21 154,-108.03 151.22,-114.45"/>
</a>
</g>
</g>
<!-- Node20 -->
<g id="Node000020" class="node">
<title>Node20</title>
<g id="a_Node000020"><a xlink:href="clist_8h.html#ab31fe788595eec286d76a972ddad6b88" target="_top" xlink:title=" ">
<polygon fill="white" stroke="#666666" points="244.25,-98.22 160,-98.22 160,-78.22 244.25,-78.22 244.25,-98.22"/>
<text text-anchor="middle" x="202.12" y="-84.72" font-family="Helvetica,sans-Serif" font-size="10.00">zrtos_clist__init</text>
</a>
</g>
</g>
<!-- Node1&#45;&gt;Node20 -->
<g id="edge20_Node000001_Node000020" class="edge">
<title>Node1&#45;&gt;Node20</title>
<g id="a_edge20_Node000001_Node000020"><a xlink:title=" ">
<path fill="none" stroke="#63b8ff" d="M109.31,-76.25C122.09,-77.91 135.71,-79.69 148.44,-81.35"/>
<polygon fill="#63b8ff" stroke="#63b8ff" points="147.96,-84.82 158.32,-82.64 148.86,-77.88 147.96,-84.82"/>
</a>
</g>
</g>
<!-- Node21 -->
<g id="Node000021" class="node">
<title>Node21</title>
<g id="a_Node000021"><a xlink:href="clist_8h.html#a853d4178de18748d3bee28700929bda4" target="_top" xlink:title=" ">
<polygon fill="white" stroke="#666666" points="248.38,-60.22 155.88,-60.22 155.88,-40.22 248.38,-40.22 248.38,-60.22"/>
<text text-anchor="middle" x="202.12" y="-46.72" font-family="Helvetica,sans-Serif" font-size="10.00">zrtos_clist__push</text>
</a>
</g>
</g>
<!-- Node1&#45;&gt;Node21 -->
<g id="edge21_Node000001_Node000021" class="edge">
<title>Node1&#45;&gt;Node21</title>
<g id="a_edge21_Node000001_Node000021"><a xlink:title=" ">
<path fill="none" stroke="#63b8ff" d="M109.31,-62.2C120.74,-60.71 132.83,-59.13 144.36,-57.63"/>
<polygon fill="#63b8ff" stroke="#63b8ff" points="144.69,-61.12 154.16,-56.35 143.79,-54.18 144.69,-61.12"/>
</a>
</g>
</g>
<!-- Node24 -->
<g id="Node000024" class="node">
<title>Node24</title>
<g id="a_Node000024"><a xlink:href="task_8h.html#a57b11c5affd2719f0abf5fa9bc8feaa6" target="_top" xlink:title=" ">
<polygon fill="white" stroke="#666666" points="244.62,-22.22 159.62,-22.22 159.62,-2.22 244.62,-2.22 244.62,-22.22"/>
<text text-anchor="middle" x="202.12" y="-8.72" font-family="Helvetica,sans-Serif" font-size="10.00">zrtos_task__init</text>
</a>
</g>
</g>
<!-- Node1&#45;&gt;Node24 -->
<g id="edge25_Node000001_Node000024" class="edge">
<title>Node1&#45;&gt;Node24</title>
<g id="a_edge25_Node000001_Node000024"><a xlink:title=" ">
<path fill="none" stroke="#63b8ff" d="M92.26,-52.88C108.34,-45.92 127.49,-37.89 145,-31.22 149.33,-29.58 153.87,-27.92 158.41,-26.31"/>
<polygon fill="#63b8ff" stroke="#63b8ff" points="159.19,-29.74 167.49,-23.16 156.9,-23.13 159.19,-29.74"/>
</a>
</g>
</g>
<!-- Node3 -->
<g id="Node000003" class="node">
<title>Node3</title>
<g id="a_Node000003"><a xlink:href="task__scheduler_8h.html#ab670d7e1ab8db82279714a56efc3c99a" target="_top" xlink:title=" ">
<polygon fill="white" stroke="#666666" points="418.5,-148.22 304.25,-148.22 304.25,-116.22 418.5,-116.22 418.5,-148.22"/>
<text text-anchor="start" x="312.25" y="-134.72" font-family="Helvetica,sans-Serif" font-size="10.00">_zrtos_task_scheduler</text>
<text text-anchor="middle" x="361.38" y="-122.72" font-family="Helvetica,sans-Serif" font-size="10.00">__on_tick</text>
</a>
</g>
</g>
<!-- Node2&#45;&gt;Node3 -->
<g id="edge2_Node000002_Node000003" class="edge">
<title>Node2&#45;&gt;Node3</title>
<g id="a_edge2_Node000002_Node000003"><a xlink:title=" ">
<path fill="none" stroke="#63b8ff" d="M259.45,-132.22C270.18,-132.22 281.51,-132.22 292.55,-132.22"/>
<polygon fill="#63b8ff" stroke="#63b8ff" points="292.4,-135.72 302.4,-132.22 292.4,-128.72 292.4,-135.72"/>
</a>
</g>
</g>
<!-- Node4 -->
<g id="Node000004" class="node">
<title>Node4</title>
<g id="a_Node000004"><a xlink:href="task__scheduler_8h.html#aa63cd785e44d31b9ae87297fad4de032" target="_top" xlink:title=" ">
<polygon fill="white" stroke="#666666" points="577.75,-148.22 463.5,-148.22 463.5,-116.22 577.75,-116.22 577.75,-148.22"/>
<text text-anchor="start" x="471.5" y="-134.72" font-family="Helvetica,sans-Serif" font-size="10.00">_zrtos_task_scheduler</text>
<text text-anchor="middle" x="520.62" y="-122.72" font-family="Helvetica,sans-Serif" font-size="10.00">__switch_task</text>
</a>
</g>
</g>
<!-- Node3&#45;&gt;Node4 -->
<g id="edge3_Node000003_Node000004" class="edge">
<title>Node3&#45;&gt;Node4</title>
<g id="a_edge3_Node000003_Node000004"><a xlink:title=" ">
<path fill="none" stroke="#63b8ff" d="M418.7,-132.22C429.43,-132.22 440.76,-132.22 451.8,-132.22"/>
<polygon fill="#63b8ff" stroke="#63b8ff" points="451.65,-135.72 461.65,-132.22 451.65,-128.72 451.65,-135.72"/>
</a>
</g>
</g>
<!-- Node5 -->
<g id="Node000005" class="node">
<title>Node5</title>
<g id="a_Node000005"><a xlink:href="task__scheduler_8h.html#a6034c1a6c6888d05559bb9e2cfa7619b" target="_top" xlink:title=" ">
<polygon fill="white" stroke="#666666" points="1053.62,-257.22 939.38,-257.22 939.38,-225.22 1053.62,-225.22 1053.62,-257.22"/>
<text text-anchor="start" x="947.38" y="-243.72" font-family="Helvetica,sans-Serif" font-size="10.00">_zrtos_task_scheduler</text>
<text text-anchor="middle" x="996.5" y="-231.72" font-family="Helvetica,sans-Serif" font-size="10.00">__get_active_task</text>
</a>
</g>
</g>
<!-- Node4&#45;&gt;Node5 -->
<g id="edge4_Node000004_Node000005" class="edge">
<title>Node4&#45;&gt;Node5</title>
<g id="a_edge4_Node000004_Node000005"><a xlink:title=" ">
<path fill="none" stroke="#63b8ff" d="M536.43,-148.58C553.27,-165.97 582.51,-192.67 613.75,-205.22 717.52,-246.92 849.48,-249.39 927.96,-246.17"/>
<polygon fill="#63b8ff" stroke="#63b8ff" points="927.8,-249.68 937.62,-245.73 927.47,-242.69 927.8,-249.68"/>
</a>
</g>
</g>
<!-- Node7 -->
<g id="Node000007" class="node">
<title>Node7</title>
<g id="a_Node000007"><a xlink:href="task__scheduler_8h.html#a5b02c899435ad102d853bf4fec32cc7b" target="_top" xlink:title=" ">
<polygon fill="white" stroke="#666666" points="737.75,-196.22 623.5,-196.22 623.5,-164.22 737.75,-164.22 737.75,-196.22"/>
<text text-anchor="start" x="631.5" y="-182.72" font-family="Helvetica,sans-Serif" font-size="10.00">_zrtos_task_scheduler</text>
<text text-anchor="middle" x="680.62" y="-170.72" font-family="Helvetica,sans-Serif" font-size="10.00">__get_sleep_task</text>
</a>
</g>
</g>
<!-- Node4&#45;&gt;Node7 -->
<g id="edge6_Node000004_Node000007" class="edge">
<title>Node4&#45;&gt;Node7</title>
<g id="a_edge6_Node000004_Node000007"><a xlink:title=" ">
<path fill="none" stroke="#63b8ff" d="M575.56,-148.61C588.13,-152.43 601.65,-156.53 614.64,-160.48"/>
<polygon fill="#63b8ff" stroke="#63b8ff" points="613.37,-163.75 623.95,-163.31 615.4,-157.05 613.37,-163.75"/>
</a>
</g>
</g>
<!-- Node8 -->
<g id="Node000008" class="node">
<title>Node8</title>
<g id="a_Node000008"><a xlink:href="task__scheduler_8h.html#ae6c8c745afe69110cc85c56bff00689a" target="_top" xlink:title=" ">
<polygon fill="white" stroke="#666666" points="737.75,-146.22 623.5,-146.22 623.5,-114.22 737.75,-114.22 737.75,-146.22"/>
<text text-anchor="start" x="631.5" y="-132.72" font-family="Helvetica,sans-Serif" font-size="10.00">_zrtos_task_scheduler</text>
<text text-anchor="middle" x="680.62" y="-120.72" font-family="Helvetica,sans-Serif" font-size="10.00">__set_active_task</text>
</a>
</g>
</g>
<!-- Node4&#45;&gt;Node8 -->
<g id="edge7_Node000004_Node000008" class="edge">
<title>Node4&#45;&gt;Node8</title>
<g id="a_edge7_Node000004_Node000008"><a xlink:title=" ">
<path fill="none" stroke="#63b8ff" d="M578.22,-131.51C589.06,-131.37 600.52,-131.23 611.68,-131.08"/>
<polygon fill="#63b8ff" stroke="#63b8ff" points="611.69,-134.58 621.65,-130.96 611.6,-127.59 611.69,-134.58"/>
</a>
</g>
</g>
<!-- Node16 -->
<g id="Node000016" class="node">
<title>Node16</title>
<g id="a_Node000016"><a xlink:href="task_8h.html#a007a26e54f32157b572c217857c9c190" target="_top" xlink:title=" ">
<polygon fill="white" stroke="#666666" points="747.5,-96.22 613.75,-96.22 613.75,-76.22 747.5,-76.22 747.5,-96.22"/>
<text text-anchor="middle" x="680.62" y="-82.72" font-family="Helvetica,sans-Serif" font-size="10.00">zrtos_task__get_next_task</text>
</a>
</g>
</g>
<!-- Node4&#45;&gt;Node16 -->
<g id="edge16_Node000004_Node000016" class="edge">
<title>Node4&#45;&gt;Node16</title>
<g id="a_edge16_Node000004_Node000016"><a xlink:title=" ">
<path fill="none" stroke="#63b8ff" d="M577.64,-115.77C589.56,-112.28 602.07,-108.62 613.75,-105.22 619.9,-103.44 626.38,-101.56 632.77,-99.71"/>
<polygon fill="#63b8ff" stroke="#63b8ff" points="633.28,-103.21 641.92,-97.07 631.34,-96.48 633.28,-103.21"/>
</a>
</g>
</g>
<!-- Node18 -->
<g id="Node000018" class="node">
<title>Node18</title>
<g id="a_Node000018"><a xlink:href="task_8h.html#a886f2c097ab9830c80f6d0137c7bd526" target="_top" xlink:title=" ">
<polygon fill="white" stroke="#666666" points="735.12,-58.22 626.12,-58.22 626.12,-38.22 735.12,-38.22 735.12,-58.22"/>
<text text-anchor="middle" x="680.62" y="-44.72" font-family="Helvetica,sans-Serif" font-size="10.00">zrtos_task__is_ready</text>
</a>
</g>
</g>
<!-- Node4&#45;&gt;Node18 -->
<g id="edge18_Node000004_Node000018" class="edge">
<title>Node4&#45;&gt;Node18</title>
<g id="a_edge18_Node000004_Node000018"><a xlink:title=" ">
<path fill="none" stroke="#63b8ff" d="M540.56,-115.99C558.4,-101.41 586.4,-80.36 613.75,-67.22 617.29,-65.52 621.01,-63.95 624.81,-62.49"/>
<polygon fill="#63b8ff" stroke="#63b8ff" points="625.93,-65.81 634.2,-59.19 623.61,-59.2 625.93,-65.81"/>
</a>
</g>
</g>
<!-- Node19 -->
<g id="Node000019" class="node">
<title>Node19</title>
<g id="a_Node000019"><a xlink:href="task_8h.html#a3167eade7e7faf3fc23d540b9888aaf9" target="_top" xlink:title=" ">
<polygon fill="white" stroke="#666666" points="732.5,-272.22 628.75,-272.22 628.75,-252.22 732.5,-252.22 732.5,-272.22"/>
<text text-anchor="middle" x="680.62" y="-258.72" font-family="Helvetica,sans-Serif" font-size="10.00">zrtos_task__on_tick</text>
</a>
</g>
</g>
<!-- Node4&#45;&gt;Node19 -->
<g id="edge19_Node000004_Node000019" class="edge">
<title>Node4&#45;&gt;Node19</title>
<g id="a_edge19_Node000004_Node000019"><a xlink:title=" ">
<path fill="none" stroke="#63b8ff" d="M531.85,-148.51C547.08,-171.53 577.79,-213.5 613.75,-238.22 618.83,-241.72 624.47,-244.76 630.26,-247.41"/>
<polygon fill="#63b8ff" stroke="#63b8ff" points="628.77,-250.58 639.35,-251.17 631.45,-244.11 628.77,-250.58"/>
</a>
</g>
</g>
<!-- Node6 -->
<g id="Node000006" class="node">
<title>Node6</title>
<g id="a_Node000006"><a xlink:href="clist_8h.html#acab2b5c771ea45635a9621a9dc1382d4" target="_top" xlink:title=" ">
<polygon fill="white" stroke="#666666" points="1205,-134.22 1098.25,-134.22 1098.25,-114.22 1205,-114.22 1205,-134.22"/>
<text text-anchor="middle" x="1151.62" y="-120.72" font-family="Helvetica,sans-Serif" font-size="10.00">zrtos_clist__get_root</text>
</a>
</g>
</g>
<!-- Node5&#45;&gt;Node6 -->
<g id="edge5_Node000005_Node000006" class="edge">
<title>Node5&#45;&gt;Node6</title>
<g id="a_edge5_Node000005_Node000006"><a xlink:title=" ">
<path fill="none" stroke="#63b8ff" d="M1046.74,-224.88C1052.15,-222.31 1057.43,-219.43 1062.25,-216.22 1092.52,-196.09 1120.3,-163.95 1136.35,-143.48"/>
<polygon fill="#63b8ff" stroke="#63b8ff" points="1139.02,-145.75 1142.32,-135.68 1133.46,-141.49 1139.02,-145.75"/>
</a>
</g>
</g>
<!-- Node9 -->
<g id="Node000009" class="node">
<title>Node9</title>
<g id="a_Node000009"><a xlink:href="task__scheduler_8h.html#ac7d131d142e0c3285a06b925e1d39fe1" target="_top" xlink:title=" ">
<polygon fill="white" stroke="#666666" points="893.62,-137.22 784.62,-137.22 784.62,-105.22 893.62,-105.22 893.62,-137.22"/>
<text text-anchor="start" x="792.62" y="-123.72" font-family="Helvetica,sans-Serif" font-size="10.00">zrtos_task_scheduler</text>
<text text-anchor="middle" x="839.12" y="-111.72" font-family="Helvetica,sans-Serif" font-size="10.00">__page_task_in</text>
</a>
</g>
</g>
<!-- Node8&#45;&gt;Node9 -->
<g id="edge8_Node000008_Node000009" class="edge">
<title>Node8&#45;&gt;Node9</title>
<g id="a_edge8_Node000008_Node000009"><a xlink:title=" ">
<path fill="none" stroke="#63b8ff" d="M738.13,-126.98C749.42,-126.33 761.37,-125.64 772.93,-124.97"/>
<polygon fill="#63b8ff" stroke="#63b8ff" points="773.03,-128.47 782.81,-124.41 772.63,-121.49 773.03,-128.47"/>
</a>
</g>
</g>
<!-- Node13 -->
<g id="Node000013" class="node">
<title>Node13</title>
<g id="a_Node000013"><a xlink:href="task__scheduler_8h.html#ac07ede37ac8af0c3d77478c3362c5098" target="_top" xlink:title=" ">
<polygon fill="white" stroke="#666666" points="893.62,-192.22 784.62,-192.22 784.62,-160.22 893.62,-160.22 893.62,-192.22"/>
<text text-anchor="start" x="792.62" y="-178.72" font-family="Helvetica,sans-Serif" font-size="10.00">zrtos_task_scheduler</text>
<text text-anchor="middle" x="839.12" y="-166.72" font-family="Helvetica,sans-Serif" font-size="10.00">__page_task_out</text>
</a>
</g>
</g>
<!-- Node8&#45;&gt;Node13 -->
<g id="edge12_Node000008_Node000013" class="edge">
<title>Node8&#45;&gt;Node13</title>
<g id="a_edge12_Node000008_Node000013"><a xlink:title=" ">
<path fill="none" stroke="#63b8ff" d="M737.68,-146.7C749.3,-150.12 761.63,-153.74 773.52,-157.24"/>
<polygon fill="#63b8ff" stroke="#63b8ff" points="772.26,-160.51 782.84,-159.97 774.23,-153.8 772.26,-160.51"/>
</a>
</g>
</g>
<!-- Node10 -->
<g id="Node000010" class="node">
<title>Node10</title>
<g id="a_Node000010"><a xlink:href="clist_8h.html#aa49bd33d74422329134a7793b1284e80" target="_top" xlink:title=" ">
<polygon fill="white" stroke="#666666" points="1049.88,-55.22 943.12,-55.22 943.12,-35.22 1049.88,-35.22 1049.88,-55.22"/>
<text text-anchor="middle" x="996.5" y="-41.72" font-family="Helvetica,sans-Serif" font-size="10.00">zrtos_clist__set_root</text>
</a>
</g>
</g>
<!-- Node9&#45;&gt;Node10 -->
<g id="edge9_Node000009_Node000010" class="edge">
<title>Node9&#45;&gt;Node10</title>
<g id="a_edge9_Node000009_Node000010"><a xlink:title=" ">
<path fill="none" stroke="#63b8ff" d="M879.67,-104.84C884.87,-102.19 890.03,-99.3 894.75,-96.22 912.68,-84.53 912.03,-74.6 930.75,-64.22 933.58,-62.65 936.56,-61.2 939.62,-59.86"/>
<polygon fill="#63b8ff" stroke="#63b8ff" points="940.78,-63.16 948.81,-56.26 938.23,-56.65 940.78,-63.16"/>
</a>
</g>
</g>
<!-- Node11 -->
<g id="Node000011" class="node">
<title>Node11</title>
<g id="a_Node000011"><a xlink:href="task_8h.html#a6d97ac60e5777143b600124289cc9de0" target="_top" xlink:title=" ">
<polygon fill="white" stroke="#666666" points="1052.88,-131.22 940.12,-131.22 940.12,-111.22 1052.88,-111.22 1052.88,-131.22"/>
<text text-anchor="middle" x="996.5" y="-117.72" font-family="Helvetica,sans-Serif" font-size="10.00">zrtos_task__get_errno</text>
</a>
</g>
</g>
<!-- Node9&#45;&gt;Node11 -->
<g id="edge10_Node000009_Node000011" class="edge">
<title>Node9&#45;&gt;Node11</title>
<g id="a_edge10_Node000009_Node000011"><a xlink:title=" ">
<path fill="none" stroke="#63b8ff" d="M894.03,-121.22C905.14,-121.22 916.97,-121.22 928.48,-121.22"/>
<polygon fill="#63b8ff" stroke="#63b8ff" points="928.33,-124.72 938.33,-121.22 928.33,-117.72 928.33,-124.72"/>
</a>
</g>
</g>
<!-- Node12 -->
<g id="Node000012" class="node">
<title>Node12</title>
<g id="a_Node000012"><a xlink:href="task_8h.html#a57ff82492e8cb164a83c79630497defd" target="_top" xlink:title=" ">
<polygon fill="white" stroke="#666666" points="1062.25,-93.22 930.75,-93.22 930.75,-73.22 1062.25,-73.22 1062.25,-93.22"/>
<text text-anchor="middle" x="996.5" y="-79.72" font-family="Helvetica,sans-Serif" font-size="10.00">zrtos_task__get_stack_ptr</text>
</a>
</g>
</g>
<!-- Node9&#45;&gt;Node12 -->
<g id="edge11_Node000009_Node000012" class="edge">
<title>Node9&#45;&gt;Node12</title>
<g id="a_edge11_Node000009_Node000012"><a xlink:title=" ">
<path fill="none" stroke="#63b8ff" d="M894.03,-108.04C909.55,-104.25 926.47,-100.11 941.96,-96.32"/>
<polygon fill="#63b8ff" stroke="#63b8ff" points="942.6,-99.77 951.48,-93.99 940.93,-92.97 942.6,-99.77"/>
</a>
</g>
</g>
<!-- Node13&#45;&gt;Node5 -->
<g id="edge13_Node000013_Node000005" class="edge">
<title>Node13&#45;&gt;Node5</title>
<g id="a_edge13_Node000013_Node000005"><a xlink:title=" ">
<path fill="none" stroke="#63b8ff" d="M876.12,-192.58C892.68,-199.98 912.63,-208.73 930.75,-216.22 934.31,-217.7 937.99,-219.19 941.71,-220.68"/>
<polygon fill="#63b8ff" stroke="#63b8ff" points="940.21,-223.85 950.79,-224.27 942.78,-217.34 940.21,-223.85"/>
</a>
</g>
</g>
<!-- Node14 -->
<g id="Node000014" class="node">
<title>Node14</title>
<g id="a_Node000014"><a xlink:href="task_8h.html#a06873ce7299989184f846b48d2cad810" target="_top" xlink:title=" ">
<polygon fill="white" stroke="#666666" points="1052.88,-169.22 940.12,-169.22 940.12,-149.22 1052.88,-149.22 1052.88,-169.22"/>
<text text-anchor="middle" x="996.5" y="-155.72" font-family="Helvetica,sans-Serif" font-size="10.00">zrtos_task__set_errno</text>
</a>
</g>
</g>
<!-- Node13&#45;&gt;Node14 -->
<g id="edge14_Node000013_Node000014" class="edge">
<title>Node13&#45;&gt;Node14</title>
<g id="a_edge14_Node000013_Node000014"><a xlink:title=" ">
<path fill="none" stroke="#63b8ff" d="M894.03,-170.33C905.14,-169.11 916.97,-167.82 928.48,-166.56"/>
<polygon fill="#63b8ff" stroke="#63b8ff" points="928.78,-170.05 938.34,-165.48 928.02,-163.09 928.78,-170.05"/>
</a>
</g>
</g>
<!-- Node15 -->
<g id="Node000015" class="node">
<title>Node15</title>
<g id="a_Node000015"><a xlink:href="task_8h.html#a6e268bf35f1b190f4cc63eab16068d9e" target="_top" xlink:title=" ">
<polygon fill="white" stroke="#666666" points="1062.25,-207.22 930.75,-207.22 930.75,-187.22 1062.25,-187.22 1062.25,-207.22"/>
<text text-anchor="middle" x="996.5" y="-193.72" font-family="Helvetica,sans-Serif" font-size="10.00">zrtos_task__set_stack_ptr</text>
</a>
</g>
</g>
<!-- Node13&#45;&gt;Node15 -->
<g id="edge15_Node000013_Node000015" class="edge">
<title>Node13&#45;&gt;Node15</title>
<g id="a_edge15_Node000013_Node000015"><a xlink:title=" ">
<path fill="none" stroke="#63b8ff" d="M894.03,-183.51C902.2,-184.61 910.75,-185.77 919.28,-186.92"/>
<polygon fill="#63b8ff" stroke="#63b8ff" points="918.57,-190.36 928.95,-188.23 919.51,-183.42 918.57,-190.36"/>
</a>
</g>
</g>
<!-- Node17 -->
<g id="Node000017" class="node">
<title>Node17</title>
<g id="a_Node000017"><a xlink:href="clist_8h.html#aec8fbabbd0ff3c556e46b59eb872d43c" target="_top" xlink:title=" ">
<polygon fill="white" stroke="#666666" points="894.75,-87.22 783.5,-87.22 783.5,-55.22 894.75,-55.22 894.75,-87.22"/>
<text text-anchor="start" x="791.5" y="-73.72" font-family="Helvetica,sans-Serif" font-size="10.00">zrtos_clist_node__get</text>
<text text-anchor="middle" x="839.12" y="-61.72" font-family="Helvetica,sans-Serif" font-size="10.00">_next_node</text>
</a>
</g>
</g>
<!-- Node16&#45;&gt;Node17 -->
<g id="edge17_Node000016_Node000017" class="edge">
<title>Node16&#45;&gt;Node17</title>
<g id="a_edge17_Node000016_Node000017"><a xlink:title=" ">
<path fill="none" stroke="#63b8ff" d="M748,-79.86C756.04,-79.09 764.25,-78.31 772.28,-77.54"/>
<polygon fill="#63b8ff" stroke="#63b8ff" points="772.35,-81.04 781.97,-76.61 771.69,-74.08 772.35,-81.04"/>
</a>
</g>
</g>
<!-- Node22 -->
<g id="Node000022" class="node">
<title>Node22</title>
<g id="a_Node000022"><a xlink:href="clist_8h.html#ad48884723dee26734c89f80bef68d0d5" target="_top" xlink:title=" ">
<polygon fill="white" stroke="#666666" points="427.5,-60.22 295.25,-60.22 295.25,-40.22 427.5,-40.22 427.5,-60.22"/>
<text text-anchor="middle" x="361.38" y="-46.72" font-family="Helvetica,sans-Serif" font-size="10.00">zrtos_clist__get_last_node</text>
</a>
</g>
</g>
<!-- Node21&#45;&gt;Node22 -->
<g id="edge22_Node000021_Node000022" class="edge">
<title>Node21&#45;&gt;Node22</title>
<g id="a_edge22_Node000021_Node000022"><a xlink:title=" ">
<path fill="none" stroke="#63b8ff" d="M248.61,-50.22C259.54,-50.22 271.51,-50.22 283.44,-50.22"/>
<polygon fill="#63b8ff" stroke="#63b8ff" points="283.3,-53.72 293.3,-50.22 283.3,-46.72 283.3,-53.72"/>
</a>
</g>
</g>
<!-- Node22&#45;&gt;Node6 -->
<g id="edge23_Node000022_Node000006" class="edge">
<title>Node22&#45;&gt;Node6</title>
<g id="a_edge23_Node000022_Node000006"><a xlink:title=" ">
<path fill="none" stroke="#63b8ff" d="M400.53,-39.78C419.35,-34.99 442.48,-29.62 463.5,-26.22 558.69,-10.83 583.2,-7.22 679.62,-7.22 679.62,-7.22 679.62,-7.22 840.12,-7.22 939.21,-7.22 973.52,17.87 1062.25,-26.22 1097.12,-43.55 1124.65,-81.07 1139.21,-104.33"/>
<polygon fill="#63b8ff" stroke="#63b8ff" points="1136.03,-105.83 1144.18,-112.59 1142.02,-102.22 1136.03,-105.83"/>
</a>
</g>
</g>
<!-- Node23 -->
<g id="Node000023" class="node">
<title>Node23</title>
<g id="a_Node000023"><a xlink:href="clist_8h.html#a7e4e2a2b78267e86a322ece473242b47" target="_top" xlink:title=" ">
<polygon fill="white" stroke="#666666" points="576.25,-67.22 465,-67.22 465,-35.22 576.25,-35.22 576.25,-67.22"/>
<text text-anchor="start" x="473" y="-53.72" font-family="Helvetica,sans-Serif" font-size="10.00">zrtos_clist_node__get</text>
<text text-anchor="middle" x="520.62" y="-41.72" font-family="Helvetica,sans-Serif" font-size="10.00">_previous_node</text>
</a>
</g>
</g>
<!-- Node22&#45;&gt;Node23 -->
<g id="edge24_Node000022_Node000023" class="edge">
<title>Node22&#45;&gt;Node23</title>
<g id="a_edge24_Node000022_Node000023"><a xlink:title=" ">
<path fill="none" stroke="#63b8ff" d="M427.7,-50.64C436.17,-50.69 444.85,-50.75 453.33,-50.8"/>
<polygon fill="#63b8ff" stroke="#63b8ff" points="453.21,-54.3 463.23,-50.87 453.25,-47.3 453.21,-54.3"/>
</a>
</g>
</g>
<!-- Node25 -->
<g id="Node000025" class="node">
<title>Node25</title>
<g id="a_Node000025"><a xlink:href="clist_8h.html#a26b8f9c0c172cd6d9deba237155bf40a" target="_top" xlink:title=" ">
<polygon fill="white" stroke="#666666" points="416.62,-22.22 306.12,-22.22 306.12,-2.22 416.62,-2.22 416.62,-22.22"/>
<text text-anchor="middle" x="361.38" y="-8.72" font-family="Helvetica,sans-Serif" font-size="10.00">zrtos_clist_node__init</text>
</a>
</g>
</g>
<!-- Node24&#45;&gt;Node25 -->
<g id="edge26_Node000024_Node000025" class="edge">
<title>Node24&#45;&gt;Node25</title>
<g id="a_edge26_Node000024_Node000025"><a xlink:title=" ">
<path fill="none" stroke="#63b8ff" d="M244.85,-12.22C260.01,-12.22 277.53,-12.22 294.27,-12.22"/>
<polygon fill="#63b8ff" stroke="#63b8ff" points="294.19,-15.72 304.19,-12.22 294.19,-8.72 294.19,-15.72"/>
</a>
</g>
</g>
</g>
</svg>
