<?xml version="1.0" encoding="UTF-8" standalone="no"?>
<!DOCTYPE svg PUBLIC "-//W3C//DTD SVG 1.1//EN"
 "http://www.w3.org/Graphics/SVG/1.1/DTD/svg11.dtd">
<!-- Generated by graphviz version 2.40.1 (20161225.0304)
 -->
<!-- Title: zrtos_task_pthread__free Pages: 1 -->
<svg width="557pt" height="127pt"
 viewBox="0.00 0.00 557.00 126.50" xmlns="http://www.w3.org/2000/svg" xmlns:xlink="http://www.w3.org/1999/xlink">
<g id="graph0" class="graph" transform="scale(1 1) rotate(0) translate(4 122.5)">
<title>zrtos_task_pthread__free</title>
<polygon fill="#ffffff" stroke="transparent" points="-4,4 -4,-122.5 553,-122.5 553,4 -4,4"/>
<!-- Node120 -->
<g id="node1" class="node">
<title>Node120</title>
<polygon fill="#bfbfbf" stroke="#000000" points="0,-39 0,-69 100,-69 100,-39 0,-39"/>
<text text-anchor="start" x="8" y="-57" font-family="Helvetica,sans-Serif" font-size="10.00" fill="#000000">zrtos_task_pthread</text>
<text text-anchor="middle" x="50" y="-46" font-family="Helvetica,sans-Serif" font-size="10.00" fill="#000000">__free</text>
</g>
<!-- Node121 -->
<g id="node2" class="node">
<title>Node121</title>
<g id="a_node2"><a xlink:href="task__scheduler_8h.html#a14396d8e572aeb29daef9a2dc81020b6" target="_top" xlink:title="zrtos_task_scheduler\l__get_any_child">
<polygon fill="#ffffff" stroke="#000000" points="136,-88 136,-118 246,-118 246,-88 136,-88"/>
<text text-anchor="start" x="144" y="-106" font-family="Helvetica,sans-Serif" font-size="10.00" fill="#000000">zrtos_task_scheduler</text>
<text text-anchor="middle" x="191" y="-95" font-family="Helvetica,sans-Serif" font-size="10.00" fill="#000000">__get_any_child</text>
</a>
</g>
</g>
<!-- Node120&#45;&gt;Node121 -->
<g id="edge1" class="edge">
<title>Node120&#45;&gt;Node121</title>
<path fill="none" stroke="#191970" d="M93.4552,-69.1014C107.527,-73.9917 123.2932,-79.4707 137.9794,-84.5744"/>
<polygon fill="#191970" stroke="#191970" points="136.8508,-87.8875 147.4456,-87.8641 139.1487,-81.2753 136.8508,-87.8875"/>
</g>
<!-- Node123 -->
<g id="node4" class="node">
<title>Node123</title>
<g id="a_node4"><a xlink:href="task__scheduler_8h.html#a8eaf55f184537faea5e8e9641ed4ad27" target="_top" xlink:title="zrtos_task_scheduler\l__remove_task">
<polygon fill="#ffffff" stroke="#000000" points="136,-39 136,-69 246,-69 246,-39 136,-39"/>
<text text-anchor="start" x="144" y="-57" font-family="Helvetica,sans-Serif" font-size="10.00" fill="#000000">zrtos_task_scheduler</text>
<text text-anchor="middle" x="191" y="-46" font-family="Helvetica,sans-Serif" font-size="10.00" fill="#000000">__remove_task</text>
</a>
</g>
</g>
<!-- Node120&#45;&gt;Node123 -->
<g id="edge3" class="edge">
<title>Node120&#45;&gt;Node123</title>
<path fill="none" stroke="#191970" d="M100.1083,-54C108.4147,-54 117.1342,-54 125.7487,-54"/>
<polygon fill="#191970" stroke="#191970" points="125.782,-57.5001 135.782,-54 125.782,-50.5001 125.782,-57.5001"/>
</g>
<!-- Node127 -->
<g id="node8" class="node">
<title>Node127</title>
<g id="a_node8"><a xlink:href="malloc_8h.html#a299a13aa87e9bdb9fb23fb30cc5b1c32" target="_top" xlink:title="zrtos_malloc__free">
<polygon fill="#ffffff" stroke="#000000" points="141.5,-.5 141.5,-19.5 240.5,-19.5 240.5,-.5 141.5,-.5"/>
<text text-anchor="middle" x="191" y="-7.5" font-family="Helvetica,sans-Serif" font-size="10.00" fill="#000000">zrtos_malloc__free</text>
</a>
</g>
</g>
<!-- Node120&#45;&gt;Node127 -->
<g id="edge7" class="edge">
<title>Node120&#45;&gt;Node127</title>
<path fill="none" stroke="#191970" d="M98.1298,-38.9808C115.175,-33.6617 134.1665,-27.7353 150.5118,-22.6346"/>
<polygon fill="#191970" stroke="#191970" points="151.8026,-25.8983 160.306,-19.5783 149.7173,-19.2161 151.8026,-25.8983"/>
</g>
<!-- Node122 -->
<g id="node3" class="node">
<title>Node122</title>
<g id="a_node3"><a xlink:href="task_8h.html#a633ccaed5fbf415f504b00c0474adeac" target="_top" xlink:title="zrtos_task__get_parent">
<polygon fill="#ffffff" stroke="#000000" points="282,-93.5 282,-112.5 401,-112.5 401,-93.5 282,-93.5"/>
<text text-anchor="middle" x="341.5" y="-100.5" font-family="Helvetica,sans-Serif" font-size="10.00" fill="#000000">zrtos_task__get_parent</text>
</a>
</g>
</g>
<!-- Node121&#45;&gt;Node122 -->
<g id="edge2" class="edge">
<title>Node121&#45;&gt;Node122</title>
<path fill="none" stroke="#191970" d="M246.1861,-103C254.4166,-103 262.9927,-103 271.4796,-103"/>
<polygon fill="#191970" stroke="#191970" points="271.7584,-106.5001 281.7583,-103 271.7583,-99.5001 271.7584,-106.5001"/>
</g>
<!-- Node124 -->
<g id="node5" class="node">
<title>Node124</title>
<g id="a_node5"><a xlink:href="clist_8h.html#a383b927f3eeb7f78f5ae9929138a635f" target="_top" xlink:title="zrtos_clist__delete">
<polygon fill="#ffffff" stroke="#000000" points="292.5,-49.5 292.5,-68.5 390.5,-68.5 390.5,-49.5 292.5,-49.5"/>
<text text-anchor="middle" x="341.5" y="-56.5" font-family="Helvetica,sans-Serif" font-size="10.00" fill="#000000">zrtos_clist__delete</text>
</a>
</g>
</g>
<!-- Node123&#45;&gt;Node124 -->
<g id="edge4" class="edge">
<title>Node123&#45;&gt;Node124</title>
<path fill="none" stroke="#191970" d="M246.1861,-55.8334C257.8654,-56.2214 270.2403,-56.6326 282.0691,-57.0256"/>
<polygon fill="#191970" stroke="#191970" points="282.1815,-60.5311 292.2923,-57.3652 282.414,-53.535 282.1815,-60.5311"/>
</g>
<!-- Node126 -->
<g id="node7" class="node">
<title>Node126</title>
<g id="a_node7"><a xlink:href="task_8h.html#a34aca34833e1ab06a5e0d26fda080286" target="_top" xlink:title="zrtos_task__set_parent">
<polygon fill="#ffffff" stroke="#000000" points="282,-11.5 282,-30.5 401,-30.5 401,-11.5 282,-11.5"/>
<text text-anchor="middle" x="341.5" y="-18.5" font-family="Helvetica,sans-Serif" font-size="10.00" fill="#000000">zrtos_task__set_parent</text>
</a>
</g>
</g>
<!-- Node123&#45;&gt;Node126 -->
<g id="edge6" class="edge">
<title>Node123&#45;&gt;Node126</title>
<path fill="none" stroke="#191970" d="M246.1861,-41.8994C259.8237,-38.9091 274.4099,-35.7108 287.9674,-32.738"/>
<polygon fill="#191970" stroke="#191970" points="289.0834,-36.0766 298.1017,-30.5159 287.5841,-29.239 289.0834,-36.0766"/>
</g>
<!-- Node125 -->
<g id="node6" class="node">
<title>Node125</title>
<g id="a_node6"><a xlink:href="clist_8h.html#adc7d3acc850be7934c1c38390033a93d" target="_top" xlink:title="zrtos_clist_node__get\l_previous_node">
<polygon fill="#ffffff" stroke="#000000" points="437,-44 437,-74 549,-74 549,-44 437,-44"/>
<text text-anchor="start" x="445" y="-62" font-family="Helvetica,sans-Serif" font-size="10.00" fill="#000000">zrtos_clist_node__get</text>
<text text-anchor="middle" x="493" y="-51" font-family="Helvetica,sans-Serif" font-size="10.00" fill="#000000">_previous_node</text>
</a>
</g>
</g>
<!-- Node124&#45;&gt;Node125 -->
<g id="edge5" class="edge">
<title>Node124&#45;&gt;Node125</title>
<path fill="none" stroke="#191970" d="M390.6877,-59C402.2303,-59 414.715,-59 426.8643,-59"/>
<polygon fill="#191970" stroke="#191970" points="426.9629,-62.5001 436.9628,-59 426.9628,-55.5001 426.9629,-62.5001"/>
</g>
</g>
</svg>
