<?xml version="1.0" encoding="UTF-8" standalone="no"?>
<!DOCTYPE svg PUBLIC "-//W3C//DTD SVG 1.1//EN"
 "http://www.w3.org/Graphics/SVG/1.1/DTD/svg11.dtd">
<!-- Generated by graphviz version 2.40.1 (20161225.0304)
 -->
<!-- Title: _zrtos_task_scheduler__set_active_task Pages: 1 -->
<svg width="1188pt" height="176pt"
 viewBox="0.00 0.00 1188.00 176.00" xmlns="http://www.w3.org/2000/svg" xmlns:xlink="http://www.w3.org/1999/xlink">
<g id="graph0" class="graph" transform="scale(1 1) rotate(0) translate(4 172)">
<title>_zrtos_task_scheduler__set_active_task</title>
<polygon fill="#ffffff" stroke="transparent" points="-4,4 -4,-172 1184,-172 1184,4 -4,4"/>
<!-- Node100 -->
<g id="node1" class="node">
<title>Node100</title>
<polygon fill="#bfbfbf" stroke="#000000" points="0,-71.5 0,-101.5 115,-101.5 115,-71.5 0,-71.5"/>
<text text-anchor="start" x="8" y="-89.5" font-family="Helvetica,sans-Serif" font-size="10.00" fill="#000000">_zrtos_task_scheduler</text>
<text text-anchor="middle" x="57.5" y="-78.5" font-family="Helvetica,sans-Serif" font-size="10.00" fill="#000000">__set_active_task</text>
</g>
<!-- Node101 -->
<g id="node2" class="node">
<title>Node101</title>
<g id="a_node2"><a xlink:href="task__scheduler_8h.html#aa63cd785e44d31b9ae87297fad4de032" target="_top" xlink:title="_zrtos_task_scheduler\l__switch_task">
<polygon fill="#ffffff" stroke="#000000" points="151,-71.5 151,-101.5 266,-101.5 266,-71.5 151,-71.5"/>
<text text-anchor="start" x="159" y="-89.5" font-family="Helvetica,sans-Serif" font-size="10.00" fill="#000000">_zrtos_task_scheduler</text>
<text text-anchor="middle" x="208.5" y="-78.5" font-family="Helvetica,sans-Serif" font-size="10.00" fill="#000000">__switch_task</text>
</a>
</g>
</g>
<!-- Node100&#45;&gt;Node101 -->
<g id="edge1" class="edge">
<title>Node100&#45;&gt;Node101</title>
<path fill="none" stroke="#191970" d="M125.0519,-86.5C133.6779,-86.5 142.4438,-86.5 150.8925,-86.5"/>
<polygon fill="#191970" stroke="#191970" points="125.0174,-83.0001 115.0174,-86.5 125.0173,-90.0001 125.0174,-83.0001"/>
</g>
<!-- Node102 -->
<g id="node3" class="node">
<title>Node102</title>
<g id="a_node3"><a xlink:href="task__scheduler_8h.html#ab670d7e1ab8db82279714a56efc3c99a" target="_top" xlink:title="_zrtos_task_scheduler\l__on_tick">
<polygon fill="#ffffff" stroke="#000000" points="302,-71.5 302,-101.5 417,-101.5 417,-71.5 302,-71.5"/>
<text text-anchor="start" x="310" y="-89.5" font-family="Helvetica,sans-Serif" font-size="10.00" fill="#000000">_zrtos_task_scheduler</text>
<text text-anchor="middle" x="359.5" y="-78.5" font-family="Helvetica,sans-Serif" font-size="10.00" fill="#000000">__on_tick</text>
</a>
</g>
</g>
<!-- Node101&#45;&gt;Node102 -->
<g id="edge2" class="edge">
<title>Node101&#45;&gt;Node102</title>
<path fill="none" stroke="#191970" d="M276.0519,-86.5C284.6779,-86.5 293.4438,-86.5 301.8925,-86.5"/>
<polygon fill="#191970" stroke="#191970" points="276.0174,-83.0001 266.0174,-86.5 276.0173,-90.0001 276.0174,-83.0001"/>
</g>
<!-- Node103 -->
<g id="node4" class="node">
<title>Node103</title>
<g id="a_node4"><a xlink:href="task__scheduler_8h.html#a8f15f366e9ce3328539ee562fd4c1e73" target="_top" xlink:title="_zrtos_task_scheduler\l__on_tick_ex">
<polygon fill="#ffffff" stroke="#000000" points="453,-71.5 453,-101.5 568,-101.5 568,-71.5 453,-71.5"/>
<text text-anchor="start" x="461" y="-89.5" font-family="Helvetica,sans-Serif" font-size="10.00" fill="#000000">_zrtos_task_scheduler</text>
<text text-anchor="middle" x="510.5" y="-78.5" font-family="Helvetica,sans-Serif" font-size="10.00" fill="#000000">__on_tick_ex</text>
</a>
</g>
</g>
<!-- Node102&#45;&gt;Node103 -->
<g id="edge3" class="edge">
<title>Node102&#45;&gt;Node103</title>
<path fill="none" stroke="#191970" d="M427.0519,-86.5C435.6779,-86.5 444.4438,-86.5 452.8925,-86.5"/>
<polygon fill="#191970" stroke="#191970" points="427.0174,-83.0001 417.0174,-86.5 427.0173,-90.0001 427.0174,-83.0001"/>
</g>
<!-- Node104 -->
<g id="node5" class="node">
<title>Node104</title>
<g id="a_node5"><a xlink:href="task__pthread_8h.html#ace168cf0d23cd4b085a2da31b881c750" target="_top" xlink:title="zrtos_task_pthread\l__trampoline_cb">
<polygon fill="#ffffff" stroke="#000000" points="609,-137.5 609,-167.5 709,-167.5 709,-137.5 609,-137.5"/>
<text text-anchor="start" x="617" y="-155.5" font-family="Helvetica,sans-Serif" font-size="10.00" fill="#000000">zrtos_task_pthread</text>
<text text-anchor="middle" x="659" y="-144.5" font-family="Helvetica,sans-Serif" font-size="10.00" fill="#000000">__trampoline_cb</text>
</a>
</g>
</g>
<!-- Node103&#45;&gt;Node104 -->
<g id="edge4" class="edge">
<title>Node103&#45;&gt;Node104</title>
<path fill="none" stroke="#191970" d="M553.9728,-105.8212C576.6544,-115.902 603.9917,-128.0519 625.0896,-137.4287"/>
<polygon fill="#191970" stroke="#191970" points="555.1285,-102.5048 544.5689,-101.6417 552.2855,-108.9015 555.1285,-102.5048"/>
</g>
<!-- Node106 -->
<g id="node7" class="node">
<title>Node106</title>
<g id="a_node7"><a xlink:href="task__pthread_8h.html#a28a15bba47cab57cbc9f5dac9af99c8b" target="_top" xlink:title="pthread_join">
<polygon fill="#ffffff" stroke="#000000" points="624.5,-99 624.5,-118 693.5,-118 693.5,-99 624.5,-99"/>
<text text-anchor="middle" x="659" y="-106" font-family="Helvetica,sans-Serif" font-size="10.00" fill="#000000">pthread_join</text>
</a>
</g>
</g>
<!-- Node103&#45;&gt;Node106 -->
<g id="edge6" class="edge">
<title>Node103&#45;&gt;Node106</title>
<path fill="none" stroke="#191970" d="M578.6382,-96.5946C594.4383,-98.9353 610.61,-101.3311 624.2654,-103.3541"/>
<polygon fill="#191970" stroke="#191970" points="578.7442,-93.0721 568.3392,-95.0688 577.7183,-99.9966 578.7442,-93.0721"/>
</g>
<!-- Node107 -->
<g id="node8" class="node">
<title>Node107</title>
<g id="a_node8"><a xlink:href="task__scheduler_8h.html#ae070a60f724cc39d3a4118b57004e82f" target="_top" xlink:title="zrtos_task_scheduler\l__delay_ms">
<polygon fill="#ffffff" stroke="#000000" points="604,-49.5 604,-79.5 714,-79.5 714,-49.5 604,-49.5"/>
<text text-anchor="start" x="612" y="-67.5" font-family="Helvetica,sans-Serif" font-size="10.00" fill="#000000">zrtos_task_scheduler</text>
<text text-anchor="middle" x="659" y="-56.5" font-family="Helvetica,sans-Serif" font-size="10.00" fill="#000000">__delay_ms</text>
</a>
</g>
</g>
<!-- Node103&#45;&gt;Node107 -->
<g id="edge7" class="edge">
<title>Node103&#45;&gt;Node107</title>
<path fill="none" stroke="#191970" d="M578.3425,-76.4493C586.9327,-75.1766 595.6381,-73.887 603.9942,-72.649"/>
<polygon fill="#191970" stroke="#191970" points="577.7183,-73.0034 568.3392,-77.9312 578.7442,-79.9279 577.7183,-73.0034"/>
</g>
<!-- Node112 -->
<g id="node13" class="node">
<title>Node112</title>
<g id="a_node13"><a xlink:href="task__scheduler_8h.html#a1e85f61c031a36a33f08d891597103b2" target="_top" xlink:title="zrtos_task_scheduler\l__init">
<polygon fill="#ffffff" stroke="#000000" points="604,-.5 604,-30.5 714,-30.5 714,-.5 604,-.5"/>
<text text-anchor="start" x="612" y="-18.5" font-family="Helvetica,sans-Serif" font-size="10.00" fill="#000000">zrtos_task_scheduler</text>
<text text-anchor="middle" x="659" y="-7.5" font-family="Helvetica,sans-Serif" font-size="10.00" fill="#000000">__init</text>
</a>
</g>
</g>
<!-- Node103&#45;&gt;Node112 -->
<g id="edge12" class="edge">
<title>Node103&#45;&gt;Node112</title>
<path fill="none" stroke="#191970" d="M550.1012,-66.6842C566.6969,-58.4667 586.229,-48.9079 604,-40.5 610.9212,-37.2254 618.3675,-33.7855 625.4765,-30.5408"/>
<polygon fill="#191970" stroke="#191970" points="548.1056,-63.7673 540.7047,-71.3487 551.2181,-70.0372 548.1056,-63.7673"/>
</g>
<!-- Node105 -->
<g id="node6" class="node">
<title>Node105</title>
<g id="a_node6"><a xlink:href="task__pthread_8h.html#a091adcef6201bebbf231763328c15286" target="_top" xlink:title="pthread_create">
<polygon fill="#ffffff" stroke="#000000" points="771,-143 771,-162 852,-162 852,-143 771,-143"/>
<text text-anchor="middle" x="811.5" y="-150" font-family="Helvetica,sans-Serif" font-size="10.00" fill="#000000">pthread_create</text>
</a>
</g>
</g>
<!-- Node104&#45;&gt;Node105 -->
<g id="edge5" class="edge">
<title>Node104&#45;&gt;Node105</title>
<path fill="none" stroke="#191970" d="M719.3664,-152.5C736.6384,-152.5 755.0482,-152.5 770.8347,-152.5"/>
<polygon fill="#191970" stroke="#191970" points="719.3569,-149.0001 709.3568,-152.5 719.3568,-156.0001 719.3569,-149.0001"/>
</g>
<!-- Node108 -->
<g id="node9" class="node">
<title>Node108</title>
<g id="a_node9"><a xlink:href="task__mutex_8h.html#a123e93e1f2eac3befe64178fba0bbcbd" target="_top" xlink:title="zrtos_task_mutex__lock">
<polygon fill="#ffffff" stroke="#000000" points="750,-55 750,-74 873,-74 873,-55 750,-55"/>
<text text-anchor="middle" x="811.5" y="-62" font-family="Helvetica,sans-Serif" font-size="10.00" fill="#000000">zrtos_task_mutex__lock</text>
</a>
</g>
</g>
<!-- Node107&#45;&gt;Node108 -->
<g id="edge8" class="edge">
<title>Node107&#45;&gt;Node108</title>
<path fill="none" stroke="#191970" d="M724.2673,-64.5C732.7376,-64.5 741.3925,-64.5 749.8021,-64.5"/>
<polygon fill="#191970" stroke="#191970" points="724.056,-61.0001 714.056,-64.5 724.056,-68.0001 724.056,-61.0001"/>
</g>
<!-- Node109 -->
<g id="node10" class="node">
<title>Node109</title>
<g id="a_node10"><a xlink:href="spi__sync_8h.html#acad5edb178ed84b8a1b7b3a877dbcd61" target="_top" xlink:title="zrtos_vfs_module_spi\l_sync__on_write_helper">
<polygon fill="#ffffff" stroke="#000000" points="909,-71.5 909,-101.5 1031,-101.5 1031,-71.5 909,-71.5"/>
<text text-anchor="start" x="917" y="-89.5" font-family="Helvetica,sans-Serif" font-size="10.00" fill="#000000">zrtos_vfs_module_spi</text>
<text text-anchor="middle" x="970" y="-78.5" font-family="Helvetica,sans-Serif" font-size="10.00" fill="#000000">_sync__on_write_helper</text>
</a>
</g>
</g>
<!-- Node108&#45;&gt;Node109 -->
<g id="edge9" class="edge">
<title>Node108&#45;&gt;Node109</title>
<path fill="none" stroke="#191970" d="M883.2386,-74.4574C891.8282,-75.6497 900.5367,-76.8584 908.9553,-78.0269"/>
<polygon fill="#191970" stroke="#191970" points="883.6204,-70.9769 873.2341,-73.0688 882.6579,-77.9105 883.6204,-70.9769"/>
</g>
<!-- Node111 -->
<g id="node12" class="node">
<title>Node111</title>
<g id="a_node12"><a xlink:href="task__pthread_8h.html#a12809c44718c21544ceb280dc1a53573" target="_top" xlink:title="pthread_mutex_lock">
<polygon fill="#ffffff" stroke="#000000" points="918,-33 918,-52 1022,-52 1022,-33 918,-33"/>
<text text-anchor="middle" x="970" y="-40" font-family="Helvetica,sans-Serif" font-size="10.00" fill="#000000">pthread_mutex_lock</text>
</a>
</g>
</g>
<!-- Node108&#45;&gt;Node111 -->
<g id="edge11" class="edge">
<title>Node108&#45;&gt;Node111</title>
<path fill="none" stroke="#191970" d="M883.3838,-54.5224C895.0252,-52.9066 906.8805,-51.2611 917.9331,-49.7269"/>
<polygon fill="#191970" stroke="#191970" points="882.6579,-51.0895 873.2341,-55.9312 883.6204,-58.0231 882.6579,-51.0895"/>
</g>
<!-- Node110 -->
<g id="node11" class="node">
<title>Node110</title>
<g id="a_node11"><a xlink:href="sync_8h.html#affc4ed32d5b66e97fb25c63faaf49eed" target="_top" xlink:title="zrtos_vfs_module_avr\l_spi_sync__on_write">
<polygon fill="#ffffff" stroke="#000000" points="1067,-71.5 1067,-101.5 1180,-101.5 1180,-71.5 1067,-71.5"/>
<text text-anchor="start" x="1075" y="-89.5" font-family="Helvetica,sans-Serif" font-size="10.00" fill="#000000">zrtos_vfs_module_avr</text>
<text text-anchor="middle" x="1123.5" y="-78.5" font-family="Helvetica,sans-Serif" font-size="10.00" fill="#000000">_spi_sync__on_write</text>
</a>
</g>
</g>
<!-- Node109&#45;&gt;Node110 -->
<g id="edge10" class="edge">
<title>Node109&#45;&gt;Node110</title>
<path fill="none" stroke="#191970" d="M1041.3578,-86.5C1049.8191,-86.5 1058.3682,-86.5 1066.5911,-86.5"/>
<polygon fill="#191970" stroke="#191970" points="1041.1084,-83.0001 1031.1083,-86.5 1041.1083,-90.0001 1041.1084,-83.0001"/>
</g>
</g>
</svg>
