<?xml version="1.0" encoding="UTF-8" standalone="no"?>
<!DOCTYPE svg PUBLIC "-//W3C//DTD SVG 1.1//EN"
 "http://www.w3.org/Graphics/SVG/1.1/DTD/svg11.dtd">
<!-- Generated by graphviz version 10.0.1 (20240210.2158)
 -->
<!-- Title: zrtos_task__init Pages: 1 -->
<svg width="355pt" height="78pt"
 viewBox="0.00 0.00 354.50 78.00" xmlns="http://www.w3.org/2000/svg" xmlns:xlink="http://www.w3.org/1999/xlink">
<g id="graph0" class="graph" transform="scale(1 1) rotate(0) translate(4 74)">
<title>zrtos_task__init</title>
<!-- Node1 -->
<g id="Node000001" class="node">
<title>Node1</title>
<g id="a_Node000001"><a xlink:title=" ">
<polygon fill="#999999" stroke="#666666" points="346.5,-48 261.5,-48 261.5,-28 346.5,-28 346.5,-48"/>
<text text-anchor="middle" x="304" y="-34.5" font-family="Helvetica,sans-Serif" font-size="10.00">zrtos_task__init</text>
</a>
</g>
</g>
<!-- Node2 -->
<g id="Node000002" class="node">
<title>Node2</title>
<g id="a_Node000002"><a xlink:href="task_8h.html#a6834fca580b85c21da7be34f815f5f50" target="_top" xlink:title=" ">
<polygon fill="white" stroke="#666666" points="221.38,-70 120.62,-70 120.62,-50 221.38,-50 221.38,-70"/>
<text text-anchor="middle" x="171" y="-56.5" font-family="Helvetica,sans-Serif" font-size="10.00">zrtos_task__init_ex</text>
</a>
</g>
</g>
<!-- Node1&#45;&gt;Node2 -->
<g id="edge1_Node000001_Node000002" class="edge">
<title>Node1&#45;&gt;Node2</title>
<g id="a_edge1_Node000001_Node000002"><a xlink:title=" ">
<path fill="none" stroke="#63b8ff" d="M250,-46.9C240.63,-48.47 230.92,-50.11 221.65,-51.66"/>
<polygon fill="#63b8ff" stroke="#63b8ff" points="250.42,-50.38 259.7,-45.27 249.26,-43.48 250.42,-50.38"/>
</a>
</g>
</g>
<!-- Node4 -->
<g id="Node000004" class="node">
<title>Node4</title>
<g id="a_Node000004"><a xlink:href="task__scheduler_8h.html#a1e85f61c031a36a33f08d891597103b2" target="_top" xlink:title=" ">
<polygon fill="white" stroke="#666666" points="225.5,-32 116.5,-32 116.5,0 225.5,0 225.5,-32"/>
<text text-anchor="start" x="124.5" y="-18.5" font-family="Helvetica,sans-Serif" font-size="10.00">zrtos_task_scheduler</text>
<text text-anchor="middle" x="171" y="-6.5" font-family="Helvetica,sans-Serif" font-size="10.00">__init</text>
</a>
</g>
</g>
<!-- Node1&#45;&gt;Node4 -->
<g id="edge3_Node000001_Node000004" class="edge">
<title>Node1&#45;&gt;Node4</title>
<g id="a_edge3_Node000001_Node000004"><a xlink:title=" ">
<path fill="none" stroke="#63b8ff" d="M249.84,-29.07C241.94,-27.75 233.79,-26.38 225.87,-25.05"/>
<polygon fill="#63b8ff" stroke="#63b8ff" points="249.26,-32.52 259.7,-30.73 250.42,-25.62 249.26,-32.52"/>
</a>
</g>
</g>
<!-- Node3 -->
<g id="Node000003" class="node">
<title>Node3</title>
<g id="a_Node000003"><a xlink:href="task__pthread_8h.html#a091adcef6201bebbf231763328c15286" target="_top" xlink:title=" ">
<polygon fill="white" stroke="#666666" points="80.5,-70 0,-70 0,-50 80.5,-50 80.5,-70"/>
<text text-anchor="middle" x="40.25" y="-56.5" font-family="Helvetica,sans-Serif" font-size="10.00">pthread_create</text>
</a>
</g>
</g>
<!-- Node2&#45;&gt;Node3 -->
<g id="edge2_Node000002_Node000003" class="edge">
<title>Node2&#45;&gt;Node3</title>
<g id="a_edge2_Node000002_Node000003"><a xlink:title=" ">
<path fill="none" stroke="#63b8ff" d="M108.78,-60C99.31,-60 89.75,-60 80.92,-60"/>
<polygon fill="#63b8ff" stroke="#63b8ff" points="108.71,-63.5 118.71,-60 108.71,-56.5 108.71,-63.5"/>
</a>
</g>
</g>
</g>
</svg>
