<?xml version="1.0" encoding="UTF-8" standalone="no"?>
<!DOCTYPE svg PUBLIC "-//W3C//DTD SVG 1.1//EN"
 "http://www.w3.org/Graphics/SVG/1.1/DTD/svg11.dtd">
<!-- Generated by graphviz version 2.40.1 (20161225.0304)
 -->
<!-- Title: _zrtos_task_scheduler__get_active_task Pages: 1 -->
<svg width="1485pt" height="262pt"
 viewBox="0.00 0.00 1485.00 262.00" xmlns="http://www.w3.org/2000/svg" xmlns:xlink="http://www.w3.org/1999/xlink">
<g id="graph0" class="graph" transform="scale(1 1) rotate(0) translate(4 258)">
<title>_zrtos_task_scheduler__get_active_task</title>
<polygon fill="#ffffff" stroke="transparent" points="-4,4 -4,-258 1481,-258 1481,4 -4,4"/>
<!-- Node2 -->
<g id="node1" class="node">
<title>Node2</title>
<polygon fill="#bfbfbf" stroke="#000000" points="0,-131 0,-161 115,-161 115,-131 0,-131"/>
<text text-anchor="start" x="8" y="-149" font-family="Helvetica,sans-Serif" font-size="10.00" fill="#000000">_zrtos_task_scheduler</text>
<text text-anchor="middle" x="57.5" y="-138" font-family="Helvetica,sans-Serif" font-size="10.00" fill="#000000">__get_active_task</text>
</g>
<!-- Node3 -->
<g id="node2" class="node">
<title>Node3</title>
<g id="a_node2"><a xlink:href="task__pthread_8h.html#a4c4f5f3b4f8f45d9d897847d53b11aaa" target="_top" xlink:title="pthread_self">
<polygon fill="#ffffff" stroke="#000000" points="171,-234.5 171,-253.5 241,-253.5 241,-234.5 171,-234.5"/>
<text text-anchor="middle" x="206" y="-241.5" font-family="Helvetica,sans-Serif" font-size="10.00" fill="#000000">pthread_self</text>
</a>
</g>
</g>
<!-- Node2&#45;&gt;Node3 -->
<g id="edge1" class="edge">
<title>Node2&#45;&gt;Node3</title>
<path fill="none" stroke="#191970" d="M81.5315,-167.8825C99.7029,-183.6955 125.7552,-204.8511 151,-220 160.2011,-225.5214 170.9017,-230.485 180.4055,-234.4457"/>
<polygon fill="#191970" stroke="#191970" points="83.5827,-165.0247 73.7682,-161.0338 78.9518,-170.274 83.5827,-165.0247"/>
</g>
<!-- Node4 -->
<g id="node3" class="node">
<title>Node4</title>
<g id="a_node3"><a xlink:href="task__scheduler_8h.html#ae82b03fcfb70e448c4a0bbd59ef8a035" target="_top" xlink:title="zrtos_task_scheduler\l__add_task">
<polygon fill="#ffffff" stroke="#000000" points="299.5,-197 299.5,-227 409.5,-227 409.5,-197 299.5,-197"/>
<text text-anchor="start" x="307.5" y="-215" font-family="Helvetica,sans-Serif" font-size="10.00" fill="#000000">zrtos_task_scheduler</text>
<text text-anchor="middle" x="354.5" y="-204" font-family="Helvetica,sans-Serif" font-size="10.00" fill="#000000">__add_task</text>
</a>
</g>
</g>
<!-- Node2&#45;&gt;Node4 -->
<g id="edge2" class="edge">
<title>Node2&#45;&gt;Node4</title>
<path fill="none" stroke="#191970" d="M100.5087,-164.8497C116.1568,-171.0932 134.1426,-177.5706 151,-182 200.3912,-194.9779 258.1006,-202.8179 299.4239,-207.2105"/>
<polygon fill="#191970" stroke="#191970" points="101.6799,-161.5475 91.0986,-161.0128 99.0369,-168.0294 101.6799,-161.5475"/>
</g>
<!-- Node6 -->
<g id="node5" class="node">
<title>Node6</title>
<g id="a_node5"><a xlink:href="task__scheduler_8h.html#ae5915a01574e06572708120eaea79d3b" target="_top" xlink:title="zrtos_task_scheduler\l__has_task">
<polygon fill="#ffffff" stroke="#000000" points="450.5,-153 450.5,-183 560.5,-183 560.5,-153 450.5,-153"/>
<text text-anchor="start" x="458.5" y="-171" font-family="Helvetica,sans-Serif" font-size="10.00" fill="#000000">zrtos_task_scheduler</text>
<text text-anchor="middle" x="505.5" y="-160" font-family="Helvetica,sans-Serif" font-size="10.00" fill="#000000">__has_task</text>
</a>
</g>
</g>
<!-- Node2&#45;&gt;Node6 -->
<g id="edge4" class="edge">
<title>Node2&#45;&gt;Node6</title>
<path fill="none" stroke="#191970" d="M125.3839,-149.3336C214.1817,-153.6942 368.0866,-161.252 450.1786,-165.2833"/>
<polygon fill="#191970" stroke="#191970" points="125.3107,-145.8259 115.151,-148.8311 124.9673,-152.8174 125.3107,-145.8259"/>
</g>
<!-- Node8 -->
<g id="node7" class="node">
<title>Node8</title>
<g id="a_node7"><a xlink:href="task__scheduler_8h.html#ac07ede37ac8af0c3d77478c3362c5098" target="_top" xlink:title="zrtos_task_scheduler\l__page_task_out">
<polygon fill="#ffffff" stroke="#000000" points="151,-109 151,-139 261,-139 261,-109 151,-109"/>
<text text-anchor="start" x="159" y="-127" font-family="Helvetica,sans-Serif" font-size="10.00" fill="#000000">zrtos_task_scheduler</text>
<text text-anchor="middle" x="206" y="-116" font-family="Helvetica,sans-Serif" font-size="10.00" fill="#000000">__page_task_out</text>
</a>
</g>
</g>
<!-- Node2&#45;&gt;Node8 -->
<g id="edge6" class="edge">
<title>Node2&#45;&gt;Node8</title>
<path fill="none" stroke="#191970" d="M125.3425,-135.9493C133.9327,-134.6766 142.6381,-133.387 150.9942,-132.149"/>
<polygon fill="#191970" stroke="#191970" points="124.7183,-132.5034 115.3392,-137.4312 125.7442,-139.4279 124.7183,-132.5034"/>
</g>
<!-- Node10 -->
<g id="node9" class="node">
<title>Node10</title>
<g id="a_node9"><a xlink:href="task__scheduler_8h.html#aa63cd785e44d31b9ae87297fad4de032" target="_top" xlink:title="_zrtos_task_scheduler\l__switch_task">
<polygon fill="#ffffff" stroke="#000000" points="448,-82 448,-112 563,-112 563,-82 448,-82"/>
<text text-anchor="start" x="456" y="-100" font-family="Helvetica,sans-Serif" font-size="10.00" fill="#000000">_zrtos_task_scheduler</text>
<text text-anchor="middle" x="505.5" y="-89" font-family="Helvetica,sans-Serif" font-size="10.00" fill="#000000">__switch_task</text>
</a>
</g>
</g>
<!-- Node2&#45;&gt;Node10 -->
<g id="edge20" class="edge">
<title>Node2&#45;&gt;Node10</title>
<path fill="none" stroke="#191970" d="M89.2533,-125.925C106.7447,-116.0379 129.2649,-105.1542 151,-100 253.2563,-75.7513 376.8137,-82.5153 447.7653,-89.7093"/>
<polygon fill="#191970" stroke="#191970" points="87.4743,-122.9107 80.5956,-130.9688 90.9981,-128.9591 87.4743,-122.9107"/>
</g>
<!-- Node14 -->
<g id="node13" class="node">
<title>Node14</title>
<g id="a_node13"><a xlink:href="task__scheduler_8h.html#ae070a60f724cc39d3a4118b57004e82f" target="_top" xlink:title="zrtos_task_scheduler\l__delay_ms">
<polygon fill="#ffffff" stroke="#000000" points="901,-17 901,-47 1011,-47 1011,-17 901,-17"/>
<text text-anchor="start" x="909" y="-35" font-family="Helvetica,sans-Serif" font-size="10.00" fill="#000000">zrtos_task_scheduler</text>
<text text-anchor="middle" x="956" y="-24" font-family="Helvetica,sans-Serif" font-size="10.00" fill="#000000">__delay_ms</text>
</a>
</g>
</g>
<!-- Node2&#45;&gt;Node14 -->
<g id="edge21" class="edge">
<title>Node2&#45;&gt;Node14</title>
<path fill="none" stroke="#191970" d="M83.0311,-124.0801C100.9485,-109.7879 126.0718,-91.8409 151,-81 235.8574,-44.0968 261.9656,-37 354.5,-37 354.5,-37 354.5,-37 656.5,-37 741.7862,-37 840.7144,-34.948 900.8042,-33.4731"/>
<polygon fill="#191970" stroke="#191970" points="80.3837,-121.7227 74.8465,-130.7555 84.808,-127.1473 80.3837,-121.7227"/>
</g>
<!-- Node5 -->
<g id="node4" class="node">
<title>Node5</title>
<g id="a_node4"><a xlink:href="task__pthread_8h.html#a091adcef6201bebbf231763328c15286" target="_top" xlink:title="pthread_create">
<polygon fill="#ffffff" stroke="#000000" points="1068,-161.5 1068,-180.5 1149,-180.5 1149,-161.5 1068,-161.5"/>
<text text-anchor="middle" x="1108.5" y="-168.5" font-family="Helvetica,sans-Serif" font-size="10.00" fill="#000000">pthread_create</text>
</a>
</g>
</g>
<!-- Node4&#45;&gt;Node5 -->
<g id="edge3" class="edge">
<title>Node4&#45;&gt;Node5</title>
<path fill="none" stroke="#191970" d="M419.8866,-212C481.0556,-212 574.9684,-212 656.5,-212 656.5,-212 656.5,-212 807.5,-212 898.3378,-212 921.2867,-207.2488 1011,-193 1031.0513,-189.8153 1053.14,-184.9463 1071.2155,-180.5978"/>
<polygon fill="#191970" stroke="#191970" points="419.608,-208.5001 409.608,-212 419.608,-215.5001 419.608,-208.5001"/>
</g>
<!-- Node7 -->
<g id="node6" class="node">
<title>Node7</title>
<g id="a_node6"><a xlink:href="task__pthread_8h.html#a28a15bba47cab57cbc9f5dac9af99c8b" target="_top" xlink:title="pthread_join">
<polygon fill="#ffffff" stroke="#000000" points="921.5,-164.5 921.5,-183.5 990.5,-183.5 990.5,-164.5 921.5,-164.5"/>
<text text-anchor="middle" x="956" y="-171.5" font-family="Helvetica,sans-Serif" font-size="10.00" fill="#000000">pthread_join</text>
</a>
</g>
</g>
<!-- Node6&#45;&gt;Node7 -->
<g id="edge5" class="edge">
<title>Node6&#45;&gt;Node7</title>
<path fill="none" stroke="#191970" d="M571.0066,-168.8725C667.9726,-170.1639 846.3088,-172.5391 921.3166,-173.5381"/>
<polygon fill="#191970" stroke="#191970" points="570.7859,-165.3693 560.7401,-168.7357 570.6926,-172.3687 570.7859,-165.3693"/>
</g>
<!-- Node9 -->
<g id="node8" class="node">
<title>Node9</title>
<g id="a_node8"><a xlink:href="task__scheduler_8h.html#ae6c8c745afe69110cc85c56bff00689a" target="_top" xlink:title="_zrtos_task_scheduler\l__set_active_task">
<polygon fill="#ffffff" stroke="#000000" points="297,-109 297,-139 412,-139 412,-109 297,-109"/>
<text text-anchor="start" x="305" y="-127" font-family="Helvetica,sans-Serif" font-size="10.00" fill="#000000">_zrtos_task_scheduler</text>
<text text-anchor="middle" x="354.5" y="-116" font-family="Helvetica,sans-Serif" font-size="10.00" fill="#000000">__set_active_task</text>
</a>
</g>
</g>
<!-- Node8&#45;&gt;Node9 -->
<g id="edge7" class="edge">
<title>Node8&#45;&gt;Node9</title>
<path fill="none" stroke="#191970" d="M271.4421,-124C279.8464,-124 288.4033,-124 296.6741,-124"/>
<polygon fill="#191970" stroke="#191970" points="271.296,-120.5001 261.2959,-124 271.2959,-127.5001 271.296,-120.5001"/>
</g>
<!-- Node9&#45;&gt;Node10 -->
<g id="edge8" class="edge">
<title>Node9&#45;&gt;Node10</title>
<path fill="none" stroke="#191970" d="M422.0519,-111.9212C430.6779,-110.3788 439.4438,-108.8114 447.8925,-107.3007"/>
<polygon fill="#191970" stroke="#191970" points="421.2452,-108.5098 412.0174,-113.7154 422.4773,-115.4005 421.2452,-108.5098"/>
</g>
<!-- Node11 -->
<g id="node10" class="node">
<title>Node11</title>
<g id="a_node10"><a xlink:href="task__scheduler_8h.html#ab670d7e1ab8db82279714a56efc3c99a" target="_top" xlink:title="_zrtos_task_scheduler\l__on_tick">
<polygon fill="#ffffff" stroke="#000000" points="599,-82 599,-112 714,-112 714,-82 599,-82"/>
<text text-anchor="start" x="607" y="-100" font-family="Helvetica,sans-Serif" font-size="10.00" fill="#000000">_zrtos_task_scheduler</text>
<text text-anchor="middle" x="656.5" y="-89" font-family="Helvetica,sans-Serif" font-size="10.00" fill="#000000">__on_tick</text>
</a>
</g>
</g>
<!-- Node10&#45;&gt;Node11 -->
<g id="edge9" class="edge">
<title>Node10&#45;&gt;Node11</title>
<path fill="none" stroke="#191970" d="M573.0519,-97C581.6779,-97 590.4438,-97 598.8925,-97"/>
<polygon fill="#191970" stroke="#191970" points="573.0174,-93.5001 563.0174,-97 573.0173,-100.5001 573.0174,-93.5001"/>
</g>
<!-- Node12 -->
<g id="node11" class="node">
<title>Node12</title>
<g id="a_node11"><a xlink:href="task__scheduler_8h.html#a8f15f366e9ce3328539ee562fd4c1e73" target="_top" xlink:title="_zrtos_task_scheduler\l__on_tick_ex">
<polygon fill="#ffffff" stroke="#000000" points="750,-82 750,-112 865,-112 865,-82 750,-82"/>
<text text-anchor="start" x="758" y="-100" font-family="Helvetica,sans-Serif" font-size="10.00" fill="#000000">_zrtos_task_scheduler</text>
<text text-anchor="middle" x="807.5" y="-89" font-family="Helvetica,sans-Serif" font-size="10.00" fill="#000000">__on_tick_ex</text>
</a>
</g>
</g>
<!-- Node11&#45;&gt;Node12 -->
<g id="edge10" class="edge">
<title>Node11&#45;&gt;Node12</title>
<path fill="none" stroke="#191970" d="M724.0519,-97C732.6779,-97 741.4438,-97 749.8925,-97"/>
<polygon fill="#191970" stroke="#191970" points="724.0174,-93.5001 714.0174,-97 724.0173,-100.5001 724.0174,-93.5001"/>
</g>
<!-- Node12&#45;&gt;Node7 -->
<g id="edge13" class="edge">
<title>Node12&#45;&gt;Node7</title>
<path fill="none" stroke="#191970" d="M836.9537,-117.6342C854.8991,-129.598 878.6146,-144.3539 901,-155 908.3897,-158.5144 916.6094,-161.707 924.3939,-164.4296"/>
<polygon fill="#191970" stroke="#191970" points="838.8841,-114.7145 828.6388,-112.0156 834.9649,-120.5145 838.8841,-114.7145"/>
</g>
<!-- Node13 -->
<g id="node12" class="node">
<title>Node13</title>
<g id="a_node12"><a xlink:href="task__pthread_8h.html#ace168cf0d23cd4b085a2da31b881c750" target="_top" xlink:title="zrtos_task_pthread\l__trampoline_cb">
<polygon fill="#ffffff" stroke="#000000" points="906,-115 906,-145 1006,-145 1006,-115 906,-115"/>
<text text-anchor="start" x="914" y="-133" font-family="Helvetica,sans-Serif" font-size="10.00" fill="#000000">zrtos_task_pthread</text>
<text text-anchor="middle" x="956" y="-122" font-family="Helvetica,sans-Serif" font-size="10.00" fill="#000000">__trampoline_cb</text>
</a>
</g>
</g>
<!-- Node12&#45;&gt;Node13 -->
<g id="edge11" class="edge">
<title>Node12&#45;&gt;Node13</title>
<path fill="none" stroke="#191970" d="M875.148,-112.0329C885.4608,-114.3246 895.9449,-116.6544 905.7959,-118.8435"/>
<polygon fill="#191970" stroke="#191970" points="875.8604,-108.6059 865.3392,-109.8532 874.3418,-115.4392 875.8604,-108.6059"/>
</g>
<!-- Node12&#45;&gt;Node14 -->
<g id="edge14" class="edge">
<title>Node12&#45;&gt;Node14</title>
<path fill="none" stroke="#191970" d="M851.1591,-77.836C866.8693,-70.9452 884.728,-63.1179 901,-56 907.586,-53.1191 914.6173,-50.0476 921.3754,-47.0976"/>
<polygon fill="#191970" stroke="#191970" points="849.4398,-74.7682 841.6883,-81.9908 852.252,-81.1785 849.4398,-74.7682"/>
</g>
<!-- Node19 -->
<g id="node18" class="node">
<title>Node19</title>
<g id="a_node18"><a xlink:href="task__scheduler_8h.html#a1e85f61c031a36a33f08d891597103b2" target="_top" xlink:title="zrtos_task_scheduler\l__init">
<polygon fill="#ffffff" stroke="#000000" points="901,-66 901,-96 1011,-96 1011,-66 901,-66"/>
<text text-anchor="start" x="909" y="-84" font-family="Helvetica,sans-Serif" font-size="10.00" fill="#000000">zrtos_task_scheduler</text>
<text text-anchor="middle" x="956" y="-73" font-family="Helvetica,sans-Serif" font-size="10.00" fill="#000000">__init</text>
</a>
</g>
</g>
<!-- Node12&#45;&gt;Node19 -->
<g id="edge19" class="edge">
<title>Node12&#45;&gt;Node19</title>
<path fill="none" stroke="#191970" d="M875.3425,-89.6904C883.9327,-88.7648 892.6381,-87.8269 900.9942,-86.9265"/>
<polygon fill="#191970" stroke="#191970" points="874.9067,-86.217 865.3392,-90.7682 875.6566,-93.1767 874.9067,-86.217"/>
</g>
<!-- Node13&#45;&gt;Node5 -->
<g id="edge12" class="edge">
<title>Node13&#45;&gt;Node5</title>
<path fill="none" stroke="#191970" d="M1016.278,-146.2059C1035.5515,-151.3876 1056.2503,-156.9526 1073.1451,-161.4948"/>
<polygon fill="#191970" stroke="#191970" points="1016.9227,-142.755 1006.3568,-143.5386 1015.1052,-149.5149 1016.9227,-142.755"/>
</g>
<!-- Node15 -->
<g id="node14" class="node">
<title>Node15</title>
<g id="a_node14"><a xlink:href="task__mutex_8h.html#a123e93e1f2eac3befe64178fba0bbcbd" target="_top" xlink:title="zrtos_task_mutex__lock">
<polygon fill="#ffffff" stroke="#000000" points="1047,-22.5 1047,-41.5 1170,-41.5 1170,-22.5 1047,-22.5"/>
<text text-anchor="middle" x="1108.5" y="-29.5" font-family="Helvetica,sans-Serif" font-size="10.00" fill="#000000">zrtos_task_mutex__lock</text>
</a>
</g>
</g>
<!-- Node14&#45;&gt;Node15 -->
<g id="edge15" class="edge">
<title>Node14&#45;&gt;Node15</title>
<path fill="none" stroke="#191970" d="M1021.2673,-32C1029.7376,-32 1038.3925,-32 1046.8021,-32"/>
<polygon fill="#191970" stroke="#191970" points="1021.056,-28.5001 1011.056,-32 1021.056,-35.5001 1021.056,-28.5001"/>
</g>
<!-- Node16 -->
<g id="node15" class="node">
<title>Node16</title>
<g id="a_node15"><a xlink:href="spi__sync_8h.html#acad5edb178ed84b8a1b7b3a877dbcd61" target="_top" xlink:title="zrtos_vfs_module_spi\l_sync__on_write_helper">
<polygon fill="#ffffff" stroke="#000000" points="1206,-39 1206,-69 1328,-69 1328,-39 1206,-39"/>
<text text-anchor="start" x="1214" y="-57" font-family="Helvetica,sans-Serif" font-size="10.00" fill="#000000">zrtos_vfs_module_spi</text>
<text text-anchor="middle" x="1267" y="-46" font-family="Helvetica,sans-Serif" font-size="10.00" fill="#000000">_sync__on_write_helper</text>
</a>
</g>
</g>
<!-- Node15&#45;&gt;Node16 -->
<g id="edge16" class="edge">
<title>Node15&#45;&gt;Node16</title>
<path fill="none" stroke="#191970" d="M1180.2386,-41.9574C1188.8282,-43.1497 1197.5367,-44.3584 1205.9553,-45.5269"/>
<polygon fill="#191970" stroke="#191970" points="1180.6204,-38.4769 1170.2341,-40.5688 1179.6579,-45.4105 1180.6204,-38.4769"/>
</g>
<!-- Node18 -->
<g id="node17" class="node">
<title>Node18</title>
<g id="a_node17"><a xlink:href="task__pthread_8h.html#a12809c44718c21544ceb280dc1a53573" target="_top" xlink:title="pthread_mutex_lock">
<polygon fill="#ffffff" stroke="#000000" points="1215,-.5 1215,-19.5 1319,-19.5 1319,-.5 1215,-.5"/>
<text text-anchor="middle" x="1267" y="-7.5" font-family="Helvetica,sans-Serif" font-size="10.00" fill="#000000">pthread_mutex_lock</text>
</a>
</g>
</g>
<!-- Node15&#45;&gt;Node18 -->
<g id="edge18" class="edge">
<title>Node15&#45;&gt;Node18</title>
<path fill="none" stroke="#191970" d="M1180.3838,-22.0224C1192.0252,-20.4066 1203.8805,-18.7611 1214.9331,-17.2269"/>
<polygon fill="#191970" stroke="#191970" points="1179.6579,-18.5895 1170.2341,-23.4312 1180.6204,-25.5231 1179.6579,-18.5895"/>
</g>
<!-- Node17 -->
<g id="node16" class="node">
<title>Node17</title>
<g id="a_node16"><a xlink:href="sync_8h.html#affc4ed32d5b66e97fb25c63faaf49eed" target="_top" xlink:title="zrtos_vfs_module_avr\l_spi_sync__on_write">
<polygon fill="#ffffff" stroke="#000000" points="1364,-39 1364,-69 1477,-69 1477,-39 1364,-39"/>
<text text-anchor="start" x="1372" y="-57" font-family="Helvetica,sans-Serif" font-size="10.00" fill="#000000">zrtos_vfs_module_avr</text>
<text text-anchor="middle" x="1420.5" y="-46" font-family="Helvetica,sans-Serif" font-size="10.00" fill="#000000">_spi_sync__on_write</text>
</a>
</g>
</g>
<!-- Node16&#45;&gt;Node17 -->
<g id="edge17" class="edge">
<title>Node16&#45;&gt;Node17</title>
<path fill="none" stroke="#191970" d="M1338.3578,-54C1346.8191,-54 1355.3682,-54 1363.5911,-54"/>
<polygon fill="#191970" stroke="#191970" points="1338.1084,-50.5001 1328.1083,-54 1338.1083,-57.5001 1338.1084,-50.5001"/>
</g>
</g>
</svg>
