<?xml version="1.0" encoding="UTF-8" standalone="no"?>
<!DOCTYPE svg PUBLIC "-//W3C//DTD SVG 1.1//EN"
 "http://www.w3.org/Graphics/SVG/1.1/DTD/svg11.dtd">
<!-- Generated by graphviz version 10.0.1 (20240210.2158)
 -->
<!-- Title: zrtos_task_scheduler__init Pages: 1 -->
<svg width="1213pt" height="299pt"
 viewBox="0.00 0.00 1213.00 299.00" xmlns="http://www.w3.org/2000/svg" xmlns:xlink="http://www.w3.org/1999/xlink">
<g id="graph0" class="graph" transform="scale(1 1) rotate(0) translate(4 295)">
<title>zrtos_task_scheduler__init</title>
<!-- Node1 -->
<g id="Node000001" class="node">
<title>Node1</title>
<g id="a_Node000001"><a xlink:title=" ">
<polygon fill="#999999" stroke="#666666" points="109,-93 0,-93 0,-61 109,-61 109,-93"/>
<text text-anchor="start" x="8" y="-79.5" font-family="Helvetica,sans-Serif" font-size="10.00">zrtos_task_scheduler</text>
<text text-anchor="middle" x="54.5" y="-67.5" font-family="Helvetica,sans-Serif" font-size="10.00">__init</text>
</a>
</g>
</g>
<!-- Node2 -->
<g id="Node000002" class="node">
<title>Node2</title>
<g id="a_Node000002"><a xlink:href="task__scheduler_8h.html#a8f15f366e9ce3328539ee562fd4c1e73" target="_top" xlink:title=" ">
<polygon fill="white" stroke="#666666" points="259.25,-157 145,-157 145,-125 259.25,-125 259.25,-157"/>
<text text-anchor="start" x="153" y="-143.5" font-family="Helvetica,sans-Serif" font-size="10.00">_zrtos_task_scheduler</text>
<text text-anchor="middle" x="202.12" y="-131.5" font-family="Helvetica,sans-Serif" font-size="10.00">__on_tick_ex</text>
</a>
</g>
</g>
<!-- Node1&#45;&gt;Node2 -->
<g id="edge1_Node000001_Node000002" class="edge">
<title>Node1&#45;&gt;Node2</title>
<g id="a_edge1_Node000001_Node000002"><a xlink:title=" ">
<path fill="none" stroke="#63b8ff" d="M93,-93.48C111.43,-101.58 133.84,-111.43 153.47,-120.06"/>
<polygon fill="#63b8ff" stroke="#63b8ff" points="151.8,-123.15 162.36,-123.97 154.62,-116.74 151.8,-123.15"/>
</a>
</g>
</g>
<!-- Node20 -->
<g id="Node000020" class="node">
<title>Node20</title>
<g id="a_Node000020"><a xlink:href="clist_8h.html#ab31fe788595eec286d76a972ddad6b88" target="_top" xlink:title=" ">
<polygon fill="white" stroke="#666666" points="244.25,-106 160,-106 160,-86 244.25,-86 244.25,-106"/>
<text text-anchor="middle" x="202.12" y="-92.5" font-family="Helvetica,sans-Serif" font-size="10.00">zrtos_clist__init</text>
</a>
</g>
</g>
<!-- Node1&#45;&gt;Node20 -->
<g id="edge20_Node000001_Node000020" class="edge">
<title>Node1&#45;&gt;Node20</title>
<g id="a_edge20_Node000001_Node000020"><a xlink:title=" ">
<path fill="none" stroke="#63b8ff" d="M109.31,-84.02C122.09,-85.69 135.71,-87.46 148.44,-89.13"/>
<polygon fill="#63b8ff" stroke="#63b8ff" points="147.96,-92.59 158.32,-90.42 148.86,-85.65 147.96,-92.59"/>
</a>
</g>
</g>
<!-- Node21 -->
<g id="Node000021" class="node">
<title>Node21</title>
<g id="a_Node000021"><a xlink:href="clist_8h.html#a853d4178de18748d3bee28700929bda4" target="_top" xlink:title=" ">
<polygon fill="white" stroke="#666666" points="248.38,-68 155.88,-68 155.88,-48 248.38,-48 248.38,-68"/>
<text text-anchor="middle" x="202.12" y="-54.5" font-family="Helvetica,sans-Serif" font-size="10.00">zrtos_clist__push</text>
</a>
</g>
</g>
<!-- Node1&#45;&gt;Node21 -->
<g id="edge21_Node000001_Node000021" class="edge">
<title>Node1&#45;&gt;Node21</title>
<g id="a_edge21_Node000001_Node000021"><a xlink:title=" ">
<path fill="none" stroke="#63b8ff" d="M109.31,-69.98C120.74,-68.49 132.83,-66.91 144.36,-65.41"/>
<polygon fill="#63b8ff" stroke="#63b8ff" points="144.69,-68.89 154.16,-64.13 143.79,-61.95 144.69,-68.89"/>
</a>
</g>
</g>
<!-- Node25 -->
<g id="Node000025" class="node">
<title>Node25</title>
<g id="a_Node000025"><a xlink:href="task_8h.html#a57b11c5affd2719f0abf5fa9bc8feaa6" target="_top" xlink:title=" ">
<polygon fill="white" stroke="#666666" points="244.62,-27 159.62,-27 159.62,-7 244.62,-7 244.62,-27"/>
<text text-anchor="middle" x="202.12" y="-13.5" font-family="Helvetica,sans-Serif" font-size="10.00">zrtos_task__init</text>
</a>
</g>
</g>
<!-- Node1&#45;&gt;Node25 -->
<g id="edge26_Node000001_Node000025" class="edge">
<title>Node1&#45;&gt;Node25</title>
<g id="a_edge26_Node000001_Node000025"><a xlink:title=" ">
<path fill="none" stroke="#63b8ff" d="M93.29,-60.68C109.21,-53.87 127.96,-45.95 145,-39 151.02,-36.54 157.43,-33.98 163.67,-31.51"/>
<polygon fill="#63b8ff" stroke="#63b8ff" points="164.51,-34.95 172.54,-28.03 161.95,-28.43 164.51,-34.95"/>
</a>
</g>
</g>
<!-- Node3 -->
<g id="Node000003" class="node">
<title>Node3</title>
<g id="a_Node000003"><a xlink:href="task__scheduler_8h.html#ab670d7e1ab8db82279714a56efc3c99a" target="_top" xlink:title=" ">
<polygon fill="white" stroke="#666666" points="418.5,-158 304.25,-158 304.25,-126 418.5,-126 418.5,-158"/>
<text text-anchor="start" x="312.25" y="-144.5" font-family="Helvetica,sans-Serif" font-size="10.00">_zrtos_task_scheduler</text>
<text text-anchor="middle" x="361.38" y="-132.5" font-family="Helvetica,sans-Serif" font-size="10.00">__on_tick</text>
</a>
</g>
</g>
<!-- Node2&#45;&gt;Node3 -->
<g id="edge2_Node000002_Node000003" class="edge">
<title>Node2&#45;&gt;Node3</title>
<g id="a_edge2_Node000002_Node000003"><a xlink:title=" ">
<path fill="none" stroke="#63b8ff" d="M259.45,-141.36C270.18,-141.43 281.51,-141.5 292.55,-141.57"/>
<polygon fill="#63b8ff" stroke="#63b8ff" points="292.38,-145.07 302.4,-141.63 292.42,-138.07 292.38,-145.07"/>
</a>
</g>
</g>
<!-- Node4 -->
<g id="Node000004" class="node">
<title>Node4</title>
<g id="a_Node000004"><a xlink:href="task__scheduler_8h.html#aa63cd785e44d31b9ae87297fad4de032" target="_top" xlink:title=" ">
<polygon fill="white" stroke="#666666" points="577.75,-165 463.5,-165 463.5,-133 577.75,-133 577.75,-165"/>
<text text-anchor="start" x="471.5" y="-151.5" font-family="Helvetica,sans-Serif" font-size="10.00">_zrtos_task_scheduler</text>
<text text-anchor="middle" x="520.62" y="-139.5" font-family="Helvetica,sans-Serif" font-size="10.00">__switch_task</text>
</a>
</g>
</g>
<!-- Node3&#45;&gt;Node4 -->
<g id="edge3_Node000003_Node000004" class="edge">
<title>Node3&#45;&gt;Node4</title>
<g id="a_edge3_Node000003_Node000004"><a xlink:title=" ">
<path fill="none" stroke="#63b8ff" d="M418.7,-144.51C429.43,-144.98 440.76,-145.49 451.8,-145.98"/>
<polygon fill="#63b8ff" stroke="#63b8ff" points="451.51,-149.47 461.65,-146.42 451.82,-142.48 451.51,-149.47"/>
</a>
</g>
</g>
<!-- Node5 -->
<g id="Node000005" class="node">
<title>Node5</title>
<g id="a_Node000005"><a xlink:href="task__scheduler_8h.html#a6034c1a6c6888d05559bb9e2cfa7619b" target="_top" xlink:title=" ">
<polygon fill="white" stroke="#666666" points="1053.62,-279 939.38,-279 939.38,-247 1053.62,-247 1053.62,-279"/>
<text text-anchor="start" x="947.38" y="-265.5" font-family="Helvetica,sans-Serif" font-size="10.00">_zrtos_task_scheduler</text>
<text text-anchor="middle" x="996.5" y="-253.5" font-family="Helvetica,sans-Serif" font-size="10.00">__get_active_task</text>
</a>
</g>
</g>
<!-- Node4&#45;&gt;Node5 -->
<g id="edge4_Node000004_Node000005" class="edge">
<title>Node4&#45;&gt;Node5</title>
<g id="a_edge4_Node000004_Node000005"><a xlink:title=" ">
<path fill="none" stroke="#63b8ff" d="M536.05,-165.44C552.77,-183.26 582.12,-210.9 613.75,-224 717.15,-266.81 849.23,-270.23 927.83,-267.52"/>
<polygon fill="#63b8ff" stroke="#63b8ff" points="927.66,-271.03 937.51,-267.14 927.38,-264.04 927.66,-271.03"/>
</a>
</g>
</g>
<!-- Node7 -->
<g id="Node000007" class="node">
<title>Node7</title>
<g id="a_Node000007"><a xlink:href="task__scheduler_8h.html#a5b02c899435ad102d853bf4fec32cc7b" target="_top" xlink:title=" ">
<polygon fill="white" stroke="#666666" points="737.75,-215 623.5,-215 623.5,-183 737.75,-183 737.75,-215"/>
<text text-anchor="start" x="631.5" y="-201.5" font-family="Helvetica,sans-Serif" font-size="10.00">_zrtos_task_scheduler</text>
<text text-anchor="middle" x="680.62" y="-189.5" font-family="Helvetica,sans-Serif" font-size="10.00">__get_sleep_task</text>
</a>
</g>
</g>
<!-- Node4&#45;&gt;Node7 -->
<g id="edge6_Node000004_Node000007" class="edge">
<title>Node4&#45;&gt;Node7</title>
<g id="a_edge6_Node000004_Node000007"><a xlink:title=" ">
<path fill="none" stroke="#63b8ff" d="M573.36,-165.37C587.2,-169.75 602.32,-174.54 616.69,-179.08"/>
<polygon fill="#63b8ff" stroke="#63b8ff" points="615.47,-182.37 626.06,-182.05 617.58,-175.7 615.47,-182.37"/>
</a>
</g>
</g>
<!-- Node8 -->
<g id="Node000008" class="node">
<title>Node8</title>
<g id="a_Node000008"><a xlink:href="task__scheduler_8h.html#ae6c8c745afe69110cc85c56bff00689a" target="_top" xlink:title=" ">
<polygon fill="white" stroke="#666666" points="737.75,-165 623.5,-165 623.5,-133 737.75,-133 737.75,-165"/>
<text text-anchor="start" x="631.5" y="-151.5" font-family="Helvetica,sans-Serif" font-size="10.00">_zrtos_task_scheduler</text>
<text text-anchor="middle" x="680.62" y="-139.5" font-family="Helvetica,sans-Serif" font-size="10.00">__set_active_task</text>
</a>
</g>
</g>
<!-- Node4&#45;&gt;Node8 -->
<g id="edge7_Node000004_Node000008" class="edge">
<title>Node4&#45;&gt;Node8</title>
<g id="a_edge7_Node000004_Node000008"><a xlink:title=" ">
<path fill="none" stroke="#63b8ff" d="M578.22,-149C589.06,-149 600.52,-149 611.68,-149"/>
<polygon fill="#63b8ff" stroke="#63b8ff" points="611.65,-152.5 621.65,-149 611.65,-145.5 611.65,-152.5"/>
</a>
</g>
</g>
<!-- Node16 -->
<g id="Node000016" class="node">
<title>Node16</title>
<g id="a_Node000016"><a xlink:href="task_8h.html#a007a26e54f32157b572c217857c9c190" target="_top" xlink:title=" ">
<polygon fill="white" stroke="#666666" points="747.5,-115 613.75,-115 613.75,-95 747.5,-95 747.5,-115"/>
<text text-anchor="middle" x="680.62" y="-101.5" font-family="Helvetica,sans-Serif" font-size="10.00">zrtos_task__get_next_task</text>
</a>
</g>
</g>
<!-- Node4&#45;&gt;Node16 -->
<g id="edge16_Node000004_Node000016" class="edge">
<title>Node4&#45;&gt;Node16</title>
<g id="a_edge16_Node000004_Node000016"><a xlink:title=" ">
<path fill="none" stroke="#63b8ff" d="M578.22,-133.24C595.65,-128.38 614.67,-123.09 631.48,-118.41"/>
<polygon fill="#63b8ff" stroke="#63b8ff" points="632.02,-121.89 640.71,-115.84 630.14,-115.15 632.02,-121.89"/>
</a>
</g>
</g>
<!-- Node18 -->
<g id="Node000018" class="node">
<title>Node18</title>
<g id="a_Node000018"><a xlink:href="task_8h.html#a886f2c097ab9830c80f6d0137c7bd526" target="_top" xlink:title=" ">
<polygon fill="white" stroke="#666666" points="735.12,-77 626.12,-77 626.12,-57 735.12,-57 735.12,-77"/>
<text text-anchor="middle" x="680.62" y="-63.5" font-family="Helvetica,sans-Serif" font-size="10.00">zrtos_task__is_ready</text>
</a>
</g>
</g>
<!-- Node4&#45;&gt;Node18 -->
<g id="edge18_Node000004_Node000018" class="edge">
<title>Node4&#45;&gt;Node18</title>
<g id="a_edge18_Node000004_Node000018"><a xlink:title=" ">
<path fill="none" stroke="#63b8ff" d="M545.98,-132.6C555.86,-125.93 567.37,-118.12 577.75,-111 593.82,-99.98 596.16,-94.37 613.75,-86 617.46,-84.23 621.37,-82.6 625.36,-81.09"/>
<polygon fill="#63b8ff" stroke="#63b8ff" points="626.27,-84.48 634.57,-77.89 623.98,-77.87 626.27,-84.48"/>
</a>
</g>
</g>
<!-- Node19 -->
<g id="Node000019" class="node">
<title>Node19</title>
<g id="a_Node000019"><a xlink:href="task_8h.html#a3167eade7e7faf3fc23d540b9888aaf9" target="_top" xlink:title=" ">
<polygon fill="white" stroke="#666666" points="732.5,-291 628.75,-291 628.75,-271 732.5,-271 732.5,-291"/>
<text text-anchor="middle" x="680.62" y="-277.5" font-family="Helvetica,sans-Serif" font-size="10.00">zrtos_task__on_tick</text>
</a>
</g>
</g>
<!-- Node4&#45;&gt;Node19 -->
<g id="edge19_Node000004_Node000019" class="edge">
<title>Node4&#45;&gt;Node19</title>
<g id="a_edge19_Node000004_Node000019"><a xlink:title=" ">
<path fill="none" stroke="#63b8ff" d="M531.53,-165.21C546.57,-188.58 577.31,-231.7 613.75,-257 618.81,-260.51 624.45,-263.58 630.23,-266.23"/>
<polygon fill="#63b8ff" stroke="#63b8ff" points="628.74,-269.4 639.32,-269.99 631.42,-262.93 628.74,-269.4"/>
</a>
</g>
</g>
<!-- Node6 -->
<g id="Node000006" class="node">
<title>Node6</title>
<g id="a_Node000006"><a xlink:href="clist_8h.html#acab2b5c771ea45635a9621a9dc1382d4" target="_top" xlink:title=" ">
<polygon fill="white" stroke="#666666" points="1205,-156 1098.25,-156 1098.25,-136 1205,-136 1205,-156"/>
<text text-anchor="middle" x="1151.62" y="-142.5" font-family="Helvetica,sans-Serif" font-size="10.00">zrtos_clist__get_root</text>
</a>
</g>
</g>
<!-- Node5&#45;&gt;Node6 -->
<g id="edge5_Node000005_Node000006" class="edge">
<title>Node5&#45;&gt;Node6</title>
<g id="a_edge5_Node000005_Node000006"><a xlink:title=" ">
<path fill="none" stroke="#63b8ff" d="M1046.74,-246.65C1052.15,-244.08 1057.43,-241.2 1062.25,-238 1092.52,-217.87 1120.3,-185.73 1136.35,-165.26"/>
<polygon fill="#63b8ff" stroke="#63b8ff" points="1139.02,-167.52 1142.32,-157.45 1133.46,-163.27 1139.02,-167.52"/>
</a>
</g>
</g>
<!-- Node9 -->
<g id="Node000009" class="node">
<title>Node9</title>
<g id="a_Node000009"><a xlink:href="task__scheduler_8h.html#ac7d131d142e0c3285a06b925e1d39fe1" target="_top" xlink:title=" ">
<polygon fill="white" stroke="#666666" points="893.62,-159 784.62,-159 784.62,-127 893.62,-127 893.62,-159"/>
<text text-anchor="start" x="792.62" y="-145.5" font-family="Helvetica,sans-Serif" font-size="10.00">zrtos_task_scheduler</text>
<text text-anchor="middle" x="839.12" y="-133.5" font-family="Helvetica,sans-Serif" font-size="10.00">__page_task_in</text>
</a>
</g>
</g>
<!-- Node8&#45;&gt;Node9 -->
<g id="edge8_Node000008_Node000009" class="edge">
<title>Node8&#45;&gt;Node9</title>
<g id="a_edge8_Node000008_Node000009"><a xlink:title=" ">
<path fill="none" stroke="#63b8ff" d="M738.13,-146.83C749.42,-146.4 761.37,-145.94 772.93,-145.5"/>
<polygon fill="#63b8ff" stroke="#63b8ff" points="772.95,-149 782.81,-145.12 772.68,-142.01 772.95,-149"/>
</a>
</g>
</g>
<!-- Node13 -->
<g id="Node000013" class="node">
<title>Node13</title>
<g id="a_Node000013"><a xlink:href="task__scheduler_8h.html#ac07ede37ac8af0c3d77478c3362c5098" target="_top" xlink:title=" ">
<polygon fill="white" stroke="#666666" points="893.62,-212 784.62,-212 784.62,-180 893.62,-180 893.62,-212"/>
<text text-anchor="start" x="792.62" y="-198.5" font-family="Helvetica,sans-Serif" font-size="10.00">zrtos_task_scheduler</text>
<text text-anchor="middle" x="839.12" y="-186.5" font-family="Helvetica,sans-Serif" font-size="10.00">__page_task_out</text>
</a>
</g>
</g>
<!-- Node8&#45;&gt;Node13 -->
<g id="edge12_Node000008_Node000013" class="edge">
<title>Node8&#45;&gt;Node13</title>
<g id="a_edge12_Node000008_Node000013"><a xlink:title=" ">
<path fill="none" stroke="#63b8ff" d="M736.36,-165.44C748.36,-169.04 761.17,-172.89 773.52,-176.6"/>
<polygon fill="#63b8ff" stroke="#63b8ff" points="772.18,-179.85 782.76,-179.37 774.19,-173.15 772.18,-179.85"/>
</a>
</g>
</g>
<!-- Node10 -->
<g id="Node000010" class="node">
<title>Node10</title>
<g id="a_Node000010"><a xlink:href="clist_8h.html#aa49bd33d74422329134a7793b1284e80" target="_top" xlink:title=" ">
<polygon fill="white" stroke="#666666" points="1049.88,-77 943.12,-77 943.12,-57 1049.88,-57 1049.88,-77"/>
<text text-anchor="middle" x="996.5" y="-63.5" font-family="Helvetica,sans-Serif" font-size="10.00">zrtos_clist__set_root</text>
</a>
</g>
</g>
<!-- Node9&#45;&gt;Node10 -->
<g id="edge9_Node000009_Node000010" class="edge">
<title>Node9&#45;&gt;Node10</title>
<g id="a_edge9_Node000009_Node000010"><a xlink:title=" ">
<path fill="none" stroke="#63b8ff" d="M879.67,-126.61C884.87,-123.97 890.03,-121.08 894.75,-118 912.68,-106.31 912.03,-96.38 930.75,-86 933.58,-84.43 936.56,-82.98 939.62,-81.63"/>
<polygon fill="#63b8ff" stroke="#63b8ff" points="940.78,-84.94 948.81,-78.04 938.23,-78.42 940.78,-84.94"/>
</a>
</g>
</g>
<!-- Node11 -->
<g id="Node000011" class="node">
<title>Node11</title>
<g id="a_Node000011"><a xlink:href="task_8h.html#a6d97ac60e5777143b600124289cc9de0" target="_top" xlink:title=" ">
<polygon fill="white" stroke="#666666" points="1052.88,-153 940.12,-153 940.12,-133 1052.88,-133 1052.88,-153"/>
<text text-anchor="middle" x="996.5" y="-139.5" font-family="Helvetica,sans-Serif" font-size="10.00">zrtos_task__get_errno</text>
</a>
</g>
</g>
<!-- Node9&#45;&gt;Node11 -->
<g id="edge10_Node000009_Node000011" class="edge">
<title>Node9&#45;&gt;Node11</title>
<g id="a_edge10_Node000009_Node000011"><a xlink:title=" ">
<path fill="none" stroke="#63b8ff" d="M894.03,-143C905.14,-143 916.97,-143 928.48,-143"/>
<polygon fill="#63b8ff" stroke="#63b8ff" points="928.33,-146.5 938.33,-143 928.33,-139.5 928.33,-146.5"/>
</a>
</g>
</g>
<!-- Node12 -->
<g id="Node000012" class="node">
<title>Node12</title>
<g id="a_Node000012"><a xlink:href="task_8h.html#a57ff82492e8cb164a83c79630497defd" target="_top" xlink:title=" ">
<polygon fill="white" stroke="#666666" points="1062.25,-115 930.75,-115 930.75,-95 1062.25,-95 1062.25,-115"/>
<text text-anchor="middle" x="996.5" y="-101.5" font-family="Helvetica,sans-Serif" font-size="10.00">zrtos_task__get_stack_ptr</text>
</a>
</g>
</g>
<!-- Node9&#45;&gt;Node12 -->
<g id="edge11_Node000009_Node000012" class="edge">
<title>Node9&#45;&gt;Node12</title>
<g id="a_edge11_Node000009_Node000012"><a xlink:title=" ">
<path fill="none" stroke="#63b8ff" d="M894.03,-129.82C909.55,-126.02 926.47,-121.88 941.96,-118.09"/>
<polygon fill="#63b8ff" stroke="#63b8ff" points="942.6,-121.54 951.48,-115.77 940.93,-114.74 942.6,-121.54"/>
</a>
</g>
</g>
<!-- Node13&#45;&gt;Node5 -->
<g id="edge13_Node000013_Node000005" class="edge">
<title>Node13&#45;&gt;Node5</title>
<g id="a_edge13_Node000013_Node000005"><a xlink:title=" ">
<path fill="none" stroke="#63b8ff" d="M874.31,-212.49C891.19,-220.46 911.91,-230.01 930.75,-238 934.13,-239.44 937.63,-240.88 941.16,-242.32"/>
<polygon fill="#63b8ff" stroke="#63b8ff" points="939.82,-245.55 950.4,-246.02 942.42,-239.05 939.82,-245.55"/>
</a>
</g>
</g>
<!-- Node14 -->
<g id="Node000014" class="node">
<title>Node14</title>
<g id="a_Node000014"><a xlink:href="task_8h.html#a06873ce7299989184f846b48d2cad810" target="_top" xlink:title=" ">
<polygon fill="white" stroke="#666666" points="1052.88,-191 940.12,-191 940.12,-171 1052.88,-171 1052.88,-191"/>
<text text-anchor="middle" x="996.5" y="-177.5" font-family="Helvetica,sans-Serif" font-size="10.00">zrtos_task__set_errno</text>
</a>
</g>
</g>
<!-- Node13&#45;&gt;Node14 -->
<g id="edge14_Node000013_Node000014" class="edge">
<title>Node13&#45;&gt;Node14</title>
<g id="a_edge14_Node000013_Node000014"><a xlink:title=" ">
<path fill="none" stroke="#63b8ff" d="M894.03,-190.8C905.14,-189.72 916.97,-188.58 928.48,-187.47"/>
<polygon fill="#63b8ff" stroke="#63b8ff" points="928.72,-190.96 938.34,-186.52 928.05,-184 928.72,-190.96"/>
</a>
</g>
</g>
<!-- Node15 -->
<g id="Node000015" class="node">
<title>Node15</title>
<g id="a_Node000015"><a xlink:href="task_8h.html#a6e268bf35f1b190f4cc63eab16068d9e" target="_top" xlink:title=" ">
<polygon fill="white" stroke="#666666" points="1062.25,-229 930.75,-229 930.75,-209 1062.25,-209 1062.25,-229"/>
<text text-anchor="middle" x="996.5" y="-215.5" font-family="Helvetica,sans-Serif" font-size="10.00">zrtos_task__set_stack_ptr</text>
</a>
</g>
</g>
<!-- Node13&#45;&gt;Node15 -->
<g id="edge15_Node000013_Node000015" class="edge">
<title>Node13&#45;&gt;Node15</title>
<g id="a_edge15_Node000013_Node000015"><a xlink:title=" ">
<path fill="none" stroke="#63b8ff" d="M894.03,-203.98C902.2,-205.19 910.75,-206.45 919.28,-207.72"/>
<polygon fill="#63b8ff" stroke="#63b8ff" points="918.55,-211.15 928.95,-209.15 919.57,-204.22 918.55,-211.15"/>
</a>
</g>
</g>
<!-- Node17 -->
<g id="Node000017" class="node">
<title>Node17</title>
<g id="a_Node000017"><a xlink:href="clist_8h.html#aec8fbabbd0ff3c556e46b59eb872d43c" target="_top" xlink:title=" ">
<polygon fill="white" stroke="#666666" points="894.75,-109 783.5,-109 783.5,-77 894.75,-77 894.75,-109"/>
<text text-anchor="start" x="791.5" y="-95.5" font-family="Helvetica,sans-Serif" font-size="10.00">zrtos_clist_node__get</text>
<text text-anchor="middle" x="839.12" y="-83.5" font-family="Helvetica,sans-Serif" font-size="10.00">_next_node</text>
</a>
</g>
</g>
<!-- Node16&#45;&gt;Node17 -->
<g id="edge17_Node000016_Node000017" class="edge">
<title>Node16&#45;&gt;Node17</title>
<g id="a_edge17_Node000016_Node000017"><a xlink:title=" ">
<path fill="none" stroke="#63b8ff" d="M748,-99.91C755.94,-99.3 764.06,-98.68 772,-98.07"/>
<polygon fill="#63b8ff" stroke="#63b8ff" points="772.27,-101.56 781.97,-97.31 771.73,-94.58 772.27,-101.56"/>
</a>
</g>
</g>
<!-- Node22 -->
<g id="Node000022" class="node">
<title>Node22</title>
<g id="a_Node000022"><a xlink:href="clist_8h.html#ad48884723dee26734c89f80bef68d0d5" target="_top" xlink:title=" ">
<polygon fill="white" stroke="#666666" points="427.5,-96 295.25,-96 295.25,-76 427.5,-76 427.5,-96"/>
<text text-anchor="middle" x="361.38" y="-82.5" font-family="Helvetica,sans-Serif" font-size="10.00">zrtos_clist__get_last_node</text>
</a>
</g>
</g>
<!-- Node21&#45;&gt;Node22 -->
<g id="edge22_Node000021_Node000022" class="edge">
<title>Node21&#45;&gt;Node22</title>
<g id="a_edge22_Node000021_Node000022"><a xlink:title=" ">
<path fill="none" stroke="#63b8ff" d="M248.61,-66.1C261.63,-68.42 276.15,-71 290.29,-73.52"/>
<polygon fill="#63b8ff" stroke="#63b8ff" points="289.56,-76.95 300.02,-75.25 290.79,-70.05 289.56,-76.95"/>
</a>
</g>
</g>
<!-- Node24 -->
<g id="Node000024" class="node">
<title>Node24</title>
<g id="a_Node000024"><a xlink:href="clist_8h.html#a2795f97f269d0259065d7c7219d09341" target="_top" xlink:title=" ">
<polygon fill="white" stroke="#666666" points="426,-58 296.75,-58 296.75,-38 426,-38 426,-58"/>
<text text-anchor="middle" x="361.38" y="-44.5" font-family="Helvetica,sans-Serif" font-size="10.00">zrtos_clist_node__append</text>
</a>
</g>
</g>
<!-- Node21&#45;&gt;Node24 -->
<g id="edge25_Node000021_Node000024" class="edge">
<title>Node21&#45;&gt;Node24</title>
<g id="a_edge25_Node000021_Node000024"><a xlink:title=" ">
<path fill="none" stroke="#63b8ff" d="M248.61,-55.11C260,-54.38 272.52,-53.59 284.94,-52.8"/>
<polygon fill="#63b8ff" stroke="#63b8ff" points="285.01,-56.3 294.77,-52.17 284.57,-49.31 285.01,-56.3"/>
</a>
</g>
</g>
<!-- Node22&#45;&gt;Node6 -->
<g id="edge23_Node000022_Node000006" class="edge">
<title>Node22&#45;&gt;Node6</title>
<g id="a_edge23_Node000022_Node000006"><a xlink:title=" ">
<path fill="none" stroke="#63b8ff" d="M397.22,-75.55C455.23,-59.09 575.54,-29 679.62,-29 679.62,-29 679.62,-29 840.12,-29 939.21,-29 973.52,-3.91 1062.25,-48 1097.12,-65.33 1124.65,-102.85 1139.21,-126.11"/>
<polygon fill="#63b8ff" stroke="#63b8ff" points="1136.03,-127.61 1144.18,-134.37 1142.02,-124 1136.03,-127.61"/>
</a>
</g>
</g>
<!-- Node23 -->
<g id="Node000023" class="node">
<title>Node23</title>
<g id="a_Node000023"><a xlink:href="clist_8h.html#a7e4e2a2b78267e86a322ece473242b47" target="_top" xlink:title=" ">
<polygon fill="white" stroke="#666666" points="576.25,-102 465,-102 465,-70 576.25,-70 576.25,-102"/>
<text text-anchor="start" x="473" y="-88.5" font-family="Helvetica,sans-Serif" font-size="10.00">zrtos_clist_node__get</text>
<text text-anchor="middle" x="520.62" y="-76.5" font-family="Helvetica,sans-Serif" font-size="10.00">_previous_node</text>
</a>
</g>
</g>
<!-- Node22&#45;&gt;Node23 -->
<g id="edge24_Node000022_Node000023" class="edge">
<title>Node22&#45;&gt;Node23</title>
<g id="a_edge24_Node000022_Node000023"><a xlink:title=" ">
<path fill="none" stroke="#63b8ff" d="M427.7,-86C436.17,-86 444.85,-86 453.33,-86"/>
<polygon fill="#63b8ff" stroke="#63b8ff" points="453.23,-89.5 463.23,-86 453.23,-82.5 453.23,-89.5"/>
</a>
</g>
</g>
<!-- Node26 -->
<g id="Node000026" class="node">
<title>Node26</title>
<g id="a_Node000026"><a xlink:href="clist_8h.html#a26b8f9c0c172cd6d9deba237155bf40a" target="_top" xlink:title=" ">
<polygon fill="white" stroke="#666666" points="416.62,-20 306.12,-20 306.12,0 416.62,0 416.62,-20"/>
<text text-anchor="middle" x="361.38" y="-6.5" font-family="Helvetica,sans-Serif" font-size="10.00">zrtos_clist_node__init</text>
</a>
</g>
</g>
<!-- Node25&#45;&gt;Node26 -->
<g id="edge27_Node000025_Node000026" class="edge">
<title>Node25&#45;&gt;Node26</title>
<g id="a_edge27_Node000025_Node000026"><a xlink:title=" ">
<path fill="none" stroke="#63b8ff" d="M244.85,-15.14C260.01,-14.47 277.53,-13.69 294.27,-12.94"/>
<polygon fill="#63b8ff" stroke="#63b8ff" points="294.35,-16.44 304.19,-12.5 294.04,-9.45 294.35,-16.44"/>
</a>
</g>
</g>
</g>
</svg>
