<?xml version="1.0" encoding="UTF-8" standalone="no"?>
<!DOCTYPE svg PUBLIC "-//W3C//DTD SVG 1.1//EN"
 "http://www.w3.org/Graphics/SVG/1.1/DTD/svg11.dtd">
<!-- Generated by graphviz version 10.0.1 (20240210.2158)
 -->
<!-- Title: zrtos_task_mutex__unlock Pages: 1 -->
<svg width="442pt" height="78pt"
 viewBox="0.00 0.00 441.50 78.00" xmlns="http://www.w3.org/2000/svg" xmlns:xlink="http://www.w3.org/1999/xlink">
<g id="graph0" class="graph" transform="scale(1 1) rotate(0) translate(4 74)">
<title>zrtos_task_mutex__unlock</title>
<!-- Node1 -->
<g id="Node000001" class="node">
<title>Node1</title>
<g id="a_Node000001"><a xlink:title=" ">
<polygon fill="#999999" stroke="#666666" points="433.5,-48 300.5,-48 300.5,-28 433.5,-28 433.5,-48"/>
<text text-anchor="middle" x="367" y="-34.5" font-family="Helvetica,sans-Serif" font-size="10.00">zrtos_task_mutex__unlock</text>
</a>
</g>
</g>
<!-- Node2 -->
<g id="Node000002" class="node">
<title>Node2</title>
<g id="a_Node000002"><a xlink:href="task__pthread_8h.html#a96184290ffb60e04c53a52869cf960a2" target="_top" xlink:title=" ">
<polygon fill="white" stroke="#666666" points="261.5,-70 147.25,-70 147.25,-50 261.5,-50 261.5,-70"/>
<text text-anchor="middle" x="204.38" y="-56.5" font-family="Helvetica,sans-Serif" font-size="10.00">pthread_mutex_unlock</text>
</a>
</g>
</g>
<!-- Node1&#45;&gt;Node2 -->
<g id="edge1_Node000001_Node000002" class="edge">
<title>Node1&#45;&gt;Node2</title>
<g id="a_edge1_Node000001_Node000002"><a xlink:title=" ">
<path fill="none" stroke="#63b8ff" d="M289.07,-48.54C279.88,-49.79 270.64,-51.06 261.82,-52.27"/>
<polygon fill="#63b8ff" stroke="#63b8ff" points="289.27,-52.04 298.7,-47.22 288.32,-45.11 289.27,-52.04"/>
</a>
</g>
</g>
<!-- Node3 -->
<g id="Node000003" class="node">
<title>Node3</title>
<g id="a_Node000003"><a xlink:href="spi__sync_8h.html#acad5edb178ed84b8a1b7b3a877dbcd61" target="_top" xlink:title=" ">
<polygon fill="white" stroke="#666666" points="264.5,-32 144.25,-32 144.25,0 264.5,0 264.5,-32"/>
<text text-anchor="start" x="152.25" y="-18.5" font-family="Helvetica,sans-Serif" font-size="10.00">zrtos_vfs_module_spi</text>
<text text-anchor="middle" x="204.38" y="-6.5" font-family="Helvetica,sans-Serif" font-size="10.00">_sync__on_write_helper</text>
</a>
</g>
</g>
<!-- Node1&#45;&gt;Node3 -->
<g id="edge2_Node000001_Node000003" class="edge">
<title>Node1&#45;&gt;Node3</title>
<g id="a_edge2_Node000001_Node000003"><a xlink:title=" ">
<path fill="none" stroke="#63b8ff" d="M288.87,-27.44C280.81,-26.33 272.7,-25.22 264.88,-24.15"/>
<polygon fill="#63b8ff" stroke="#63b8ff" points="288.32,-30.89 298.7,-28.78 289.27,-23.96 288.32,-30.89"/>
</a>
</g>
</g>
<!-- Node4 -->
<g id="Node000004" class="node">
<title>Node4</title>
<g id="a_Node000004"><a xlink:href="sync_8h.html#affc4ed32d5b66e97fb25c63faaf49eed" target="_top" xlink:title=" ">
<polygon fill="white" stroke="#666666" points="108.25,-32 0,-32 0,0 108.25,0 108.25,-32"/>
<text text-anchor="start" x="8" y="-18.5" font-family="Helvetica,sans-Serif" font-size="10.00">zrtos_vfs_module_avr</text>
<text text-anchor="middle" x="54.12" y="-6.5" font-family="Helvetica,sans-Serif" font-size="10.00">_spi_sync__on_write</text>
</a>
</g>
</g>
<!-- Node3&#45;&gt;Node4 -->
<g id="edge3_Node000003_Node000004" class="edge">
<title>Node3&#45;&gt;Node4</title>
<g id="a_edge3_Node000003_Node000004"><a xlink:title=" ">
<path fill="none" stroke="#63b8ff" d="M132.51,-16C124.38,-16 116.2,-16 108.36,-16"/>
<polygon fill="#63b8ff" stroke="#63b8ff" points="132.42,-19.5 142.42,-16 132.42,-12.5 132.42,-19.5"/>
</a>
</g>
</g>
</g>
</svg>
