<?xml version="1.0" encoding="UTF-8" standalone="no"?>
<!DOCTYPE svg PUBLIC "-//W3C//DTD SVG 1.1//EN"
 "http://www.w3.org/Graphics/SVG/1.1/DTD/svg11.dtd">
<!-- Generated by graphviz version 10.0.1 (20240210.2158)
 -->
<!-- Title: timeout4.h Pages: 1 -->
<svg width="445pt" height="208pt"
 viewBox="0.00 0.00 445.25 208.00" xmlns="http://www.w3.org/2000/svg" xmlns:xlink="http://www.w3.org/1999/xlink">
<g id="graph0" class="graph" transform="scale(1 1) rotate(0) translate(4 204)">
<title>timeout4.h</title>
<!-- Node1 -->
<g id="Node000001" class="node">
<title>Node1</title>
<g id="a_Node000001"><a xlink:title=" ">
<polygon fill="#999999" stroke="#666666" points="133.25,-200 71.5,-200 71.5,-180 133.25,-180 133.25,-200"/>
<text text-anchor="middle" x="102.38" y="-186.5" font-family="Helvetica,sans-Serif" font-size="10.00">timeout4.h</text>
</a>
</g>
</g>
<!-- Node2 -->
<g id="Node000002" class="node">
<title>Node2</title>
<g id="a_Node000002"><a xlink:title=" ">
<polygon fill="#e0e0e0" stroke="#999999" points="46.75,-138 0,-138 0,-118 46.75,-118 46.75,-138"/>
<text text-anchor="middle" x="23.38" y="-124.5" font-family="Helvetica,sans-Serif" font-size="10.00">avr/io.h</text>
</a>
</g>
</g>
<!-- Node1&#45;&gt;Node2 -->
<g id="edge1_Node000001_Node000002" class="edge">
<title>Node1&#45;&gt;Node2</title>
<g id="a_edge1_Node000001_Node000002"><a xlink:title=" ">
<path fill="none" stroke="#63b8ff" d="M90.03,-179.62C77.86,-170.38 59.01,-156.07 44.46,-145.01"/>
<polygon fill="#63b8ff" stroke="#63b8ff" points="46.92,-142.49 36.84,-139.22 42.68,-148.06 46.92,-142.49"/>
</a>
</g>
</g>
<!-- Node3 -->
<g id="Node000003" class="node">
<title>Node3</title>
<g id="a_Node000003"><a xlink:title=" ">
<polygon fill="#e0e0e0" stroke="#999999" points="139.62,-138 65.12,-138 65.12,-118 139.62,-118 139.62,-138"/>
<text text-anchor="middle" x="102.38" y="-124.5" font-family="Helvetica,sans-Serif" font-size="10.00">avr/interrupt.h</text>
</a>
</g>
</g>
<!-- Node1&#45;&gt;Node3 -->
<g id="edge2_Node000001_Node000003" class="edge">
<title>Node1&#45;&gt;Node3</title>
<g id="a_edge2_Node000001_Node000003"><a xlink:title=" ">
<path fill="none" stroke="#63b8ff" d="M102.38,-179.62C102.38,-171.56 102.38,-159.65 102.38,-149.41"/>
<polygon fill="#63b8ff" stroke="#63b8ff" points="105.88,-149.63 102.38,-139.63 98.88,-149.63 105.88,-149.63"/>
</a>
</g>
</g>
<!-- Node4 -->
<g id="Node000004" class="node">
<title>Node4</title>
<g id="a_Node000004"><a xlink:href="timeout_8h.html" target="_top" xlink:title=" ">
<polygon fill="white" stroke="#666666" points="279.25,-144 157.5,-144 157.5,-112 279.25,-112 279.25,-144"/>
<text text-anchor="start" x="165.5" y="-130.5" font-family="Helvetica,sans-Serif" font-size="10.00">zrtos/vfs/module/timeout</text>
<text text-anchor="middle" x="218.38" y="-118.5" font-family="Helvetica,sans-Serif" font-size="10.00">/timeout.h</text>
</a>
</g>
</g>
<!-- Node1&#45;&gt;Node4 -->
<g id="edge3_Node000001_Node000004" class="edge">
<title>Node1&#45;&gt;Node4</title>
<g id="a_edge3_Node000001_Node000004"><a xlink:title=" ">
<path fill="none" stroke="#63b8ff" d="M120.5,-179.62C136.02,-171.6 158.92,-159.75 178.67,-149.54"/>
<polygon fill="#63b8ff" stroke="#63b8ff" points="180.03,-152.77 187.31,-145.07 176.82,-146.55 180.03,-152.77"/>
</a>
</g>
</g>
<!-- Node5 -->
<g id="Node000005" class="node">
<title>Node5</title>
<g id="a_Node000005"><a xlink:href="types_8h.html" target="_top" xlink:title=" ">
<polygon fill="white" stroke="#666666" points="254.88,-76 181.88,-76 181.88,-56 254.88,-56 254.88,-76"/>
<text text-anchor="middle" x="218.38" y="-62.5" font-family="Helvetica,sans-Serif" font-size="10.00">zrtos/types.h</text>
</a>
</g>
</g>
<!-- Node4&#45;&gt;Node5 -->
<g id="edge4_Node000004_Node000005" class="edge">
<title>Node4&#45;&gt;Node5</title>
<g id="a_edge4_Node000004_Node000005"><a xlink:title=" ">
<path fill="none" stroke="#63b8ff" d="M218.38,-111.55C218.38,-104.34 218.38,-95.66 218.38,-87.88"/>
<polygon fill="#63b8ff" stroke="#63b8ff" points="221.88,-87.92 218.38,-77.92 214.88,-87.92 221.88,-87.92"/>
</a>
</g>
</g>
<!-- Node6 -->
<g id="Node000006" class="node">
<title>Node6</title>
<g id="a_Node000006"><a xlink:title=" ">
<polygon fill="#e0e0e0" stroke="#999999" points="75.25,-20 19.5,-20 19.5,0 75.25,0 75.25,-20"/>
<text text-anchor="middle" x="47.38" y="-6.5" font-family="Helvetica,sans-Serif" font-size="10.00">stdbool.h</text>
</a>
</g>
</g>
<!-- Node5&#45;&gt;Node6 -->
<g id="edge5_Node000005_Node000006" class="edge">
<title>Node5&#45;&gt;Node6</title>
<g id="a_edge5_Node000005_Node000006"><a xlink:title=" ">
<path fill="none" stroke="#63b8ff" d="M188.59,-55.59C160.3,-46.66 117.58,-33.17 86.54,-23.37"/>
<polygon fill="#63b8ff" stroke="#63b8ff" points="87.72,-20.07 77.13,-20.4 85.61,-26.74 87.72,-20.07"/>
</a>
</g>
</g>
<!-- Node7 -->
<g id="Node000007" class="node">
<title>Node7</title>
<g id="a_Node000007"><a xlink:title=" ">
<polygon fill="#e0e0e0" stroke="#999999" points="143.62,-20 93.12,-20 93.12,0 143.62,0 143.62,-20"/>
<text text-anchor="middle" x="118.38" y="-6.5" font-family="Helvetica,sans-Serif" font-size="10.00">stddef.h</text>
</a>
</g>
</g>
<!-- Node5&#45;&gt;Node7 -->
<g id="edge6_Node000005_Node000007" class="edge">
<title>Node5&#45;&gt;Node7</title>
<g id="a_edge6_Node000005_Node000007"><a xlink:title=" ">
<path fill="none" stroke="#63b8ff" d="M200.96,-55.59C185.71,-47.36 163.3,-35.26 145.67,-25.74"/>
<polygon fill="#63b8ff" stroke="#63b8ff" points="147.72,-22.87 137.26,-21.2 144.4,-29.03 147.72,-22.87"/>
</a>
</g>
</g>
<!-- Node8 -->
<g id="Node000008" class="node">
<title>Node8</title>
<g id="a_Node000008"><a xlink:title=" ">
<polygon fill="#e0e0e0" stroke="#999999" points="209.5,-20 161.25,-20 161.25,0 209.5,0 209.5,-20"/>
<text text-anchor="middle" x="185.38" y="-6.5" font-family="Helvetica,sans-Serif" font-size="10.00">stdint.h</text>
</a>
</g>
</g>
<!-- Node5&#45;&gt;Node8 -->
<g id="edge7_Node000005_Node000008" class="edge">
<title>Node5&#45;&gt;Node8</title>
<g id="a_edge7_Node000005_Node000008"><a xlink:title=" ">
<path fill="none" stroke="#63b8ff" d="M212.63,-55.59C208.32,-48.55 202.28,-38.67 196.99,-30"/>
<polygon fill="#63b8ff" stroke="#63b8ff" points="200.05,-28.3 191.85,-21.59 194.07,-31.95 200.05,-28.3"/>
</a>
</g>
</g>
<!-- Node9 -->
<g id="Node000009" class="node">
<title>Node9</title>
<g id="a_Node000009"><a xlink:title=" ">
<polygon fill="#e0e0e0" stroke="#999999" points="275.12,-20 227.62,-20 227.62,0 275.12,0 275.12,-20"/>
<text text-anchor="middle" x="251.38" y="-6.5" font-family="Helvetica,sans-Serif" font-size="10.00">limits.h</text>
</a>
</g>
</g>
<!-- Node5&#45;&gt;Node9 -->
<g id="edge8_Node000005_Node000009" class="edge">
<title>Node5&#45;&gt;Node9</title>
<g id="a_edge8_Node000005_Node000009"><a xlink:title=" ">
<path fill="none" stroke="#63b8ff" d="M224.12,-55.59C228.43,-48.55 234.47,-38.67 239.76,-30"/>
<polygon fill="#63b8ff" stroke="#63b8ff" points="242.68,-31.95 244.9,-21.59 236.7,-28.3 242.68,-31.95"/>
</a>
</g>
</g>
<!-- Node10 -->
<g id="Node000010" class="node">
<title>Node10</title>
<g id="a_Node000010"><a xlink:title=" ">
<polygon fill="#e0e0e0" stroke="#999999" points="351.38,-20 293.38,-20 293.38,0 351.38,0 351.38,-20"/>
<text text-anchor="middle" x="322.38" y="-6.5" font-family="Helvetica,sans-Serif" font-size="10.00">stdalign.h</text>
</a>
</g>
</g>
<!-- Node5&#45;&gt;Node10 -->
<g id="edge9_Node000005_Node000010" class="edge">
<title>Node5&#45;&gt;Node10</title>
<g id="a_edge9_Node000005_Node000010"><a xlink:title=" ">
<path fill="none" stroke="#63b8ff" d="M236.49,-55.59C252.35,-47.36 275.66,-35.26 293.99,-25.74"/>
<polygon fill="#63b8ff" stroke="#63b8ff" points="295.51,-28.89 302.77,-21.18 292.29,-22.68 295.51,-28.89"/>
</a>
</g>
</g>
<!-- Node11 -->
<g id="Node000011" class="node">
<title>Node11</title>
<g id="a_Node000011"><a xlink:href="cast_8h.html" target="_top" xlink:title=" ">
<polygon fill="white" stroke="#666666" points="437.25,-20 369.5,-20 369.5,0 437.25,0 437.25,-20"/>
<text text-anchor="middle" x="403.38" y="-6.5" font-family="Helvetica,sans-Serif" font-size="10.00">zrtos/cast.h</text>
</a>
</g>
</g>
<!-- Node5&#45;&gt;Node11 -->
<g id="edge10_Node000005_Node000011" class="edge">
<title>Node5&#45;&gt;Node11</title>
<g id="a_edge10_Node000005_Node000011"><a xlink:title=" ">
<path fill="none" stroke="#63b8ff" d="M250.6,-55.59C280.92,-46.74 326.55,-33.43 360.04,-23.65"/>
<polygon fill="#63b8ff" stroke="#63b8ff" points="360.83,-27.07 369.45,-20.9 358.87,-20.35 360.83,-27.07"/>
</a>
</g>
</g>
</g>
</svg>
