<?xml version="1.0" encoding="UTF-8" standalone="no"?>
<!DOCTYPE svg PUBLIC "-//W3C//DTD SVG 1.1//EN"
 "http://www.w3.org/Graphics/SVG/1.1/DTD/svg11.dtd">
<!-- Generated by graphviz version 10.0.1 (20240210.2158)
 -->
<!-- Title: time.h Pages: 1 -->
<svg width="259pt" height="208pt"
 viewBox="0.00 0.00 259.38 208.00" xmlns="http://www.w3.org/2000/svg" xmlns:xlink="http://www.w3.org/1999/xlink">
<g id="graph0" class="graph" transform="scale(1 1) rotate(0) translate(4 204)">
<title>time.h</title>
<!-- Node1 -->
<g id="Node000001" class="node">
<title>Node1</title>
<g id="a_Node000001"><a xlink:title=" ">
<polygon fill="#999999" stroke="#666666" points="138.75,-200 95.75,-200 95.75,-180 138.75,-180 138.75,-200"/>
<text text-anchor="middle" x="117.25" y="-186.5" font-family="Helvetica,sans-Serif" font-size="10.00">time.h</text>
</a>
</g>
</g>
<!-- Node2 -->
<g id="Node000002" class="node">
<title>Node2</title>
<g id="a_Node000002"><a xlink:href="board_8h.html" target="_top" xlink:title=" ">
<polygon fill="white" stroke="#666666" points="153.75,-144 80.75,-144 80.75,-124 153.75,-124 153.75,-144"/>
<text text-anchor="middle" x="117.25" y="-130.5" font-family="Helvetica,sans-Serif" font-size="10.00">zrtos/board.h</text>
</a>
</g>
</g>
<!-- Node1&#45;&gt;Node2 -->
<g id="edge1_Node000001_Node000002" class="edge">
<title>Node1&#45;&gt;Node2</title>
<g id="a_edge1_Node000001_Node000002"><a xlink:title=" ">
<path fill="none" stroke="#63b8ff" d="M117.25,-179.59C117.25,-173.01 117.25,-163.96 117.25,-155.73"/>
<polygon fill="#63b8ff" stroke="#63b8ff" points="120.75,-155.81 117.25,-145.81 113.75,-155.81 120.75,-155.81"/>
</a>
</g>
</g>
<!-- Node3 -->
<g id="Node000003" class="node">
<title>Node3</title>
<g id="a_Node000003"><a xlink:href="ansi__c_8h.html" target="_top" xlink:title=" ">
<polygon fill="white" stroke="#666666" points="104.5,-82 0,-82 0,-62 104.5,-62 104.5,-82"/>
<text text-anchor="middle" x="52.25" y="-68.5" font-family="Helvetica,sans-Serif" font-size="10.00">zrtos/board/ansi_c.h</text>
</a>
</g>
</g>
<!-- Node2&#45;&gt;Node3 -->
<g id="edge2_Node000002_Node000003" class="edge">
<title>Node2&#45;&gt;Node3</title>
<g id="a_edge2_Node000002_Node000003"><a xlink:title=" ">
<path fill="none" stroke="#63b8ff" d="M107.09,-123.62C97.31,-114.59 82.28,-100.72 70.43,-89.78"/>
<polygon fill="#63b8ff" stroke="#63b8ff" points="72.96,-87.35 63.23,-83.14 68.21,-92.49 72.96,-87.35"/>
</a>
</g>
</g>
<!-- Node4 -->
<g id="Node000004" class="node">
<title>Node4</title>
<g id="a_Node000004"><a xlink:href="avr__software__emulator_8h.html" target="_top" xlink:title=" ">
<polygon fill="white" stroke="#666666" points="243.75,-88 122.75,-88 122.75,-56 243.75,-56 243.75,-88"/>
<text text-anchor="start" x="130.75" y="-74.5" font-family="Helvetica,sans-Serif" font-size="10.00">zrtos/board/avr_software</text>
<text text-anchor="middle" x="183.25" y="-62.5" font-family="Helvetica,sans-Serif" font-size="10.00">_emulator.h</text>
</a>
</g>
</g>
<!-- Node2&#45;&gt;Node4 -->
<g id="edge3_Node000002_Node000004" class="edge">
<title>Node2&#45;&gt;Node4</title>
<g id="a_edge3_Node000002_Node000004"><a xlink:title=" ">
<path fill="none" stroke="#63b8ff" d="M127.56,-123.62C135.66,-116.26 147.3,-105.68 157.84,-96.1"/>
<polygon fill="#63b8ff" stroke="#63b8ff" points="160.17,-98.71 165.22,-89.39 155.47,-93.53 160.17,-98.71"/>
</a>
</g>
</g>
<!-- Node5 -->
<g id="Node000005" class="node">
<title>Node5</title>
<g id="a_Node000005"><a xlink:title=" ">
<polygon fill="#e0e0e0" stroke="#999999" points="179.5,-20 105,-20 105,0 179.5,0 179.5,-20"/>
<text text-anchor="middle" x="142.25" y="-6.5" font-family="Helvetica,sans-Serif" font-size="10.00">avr/interrupt.h</text>
</a>
</g>
</g>
<!-- Node4&#45;&gt;Node5 -->
<g id="edge4_Node000004_Node000005" class="edge">
<title>Node4&#45;&gt;Node5</title>
<g id="a_edge4_Node000004_Node000005"><a xlink:title=" ">
<path fill="none" stroke="#63b8ff" d="M172.69,-55.55C167.29,-47.65 160.68,-37.97 155,-29.66"/>
<polygon fill="#63b8ff" stroke="#63b8ff" points="158.06,-27.94 149.53,-21.66 152.28,-31.89 158.06,-27.94"/>
</a>
</g>
</g>
<!-- Node6 -->
<g id="Node000006" class="node">
<title>Node6</title>
<g id="a_Node000006"><a xlink:title=" ">
<polygon fill="#e0e0e0" stroke="#999999" points="251.38,-20 197.12,-20 197.12,0 251.38,0 251.38,-20"/>
<text text-anchor="middle" x="224.25" y="-6.5" font-family="Helvetica,sans-Serif" font-size="10.00">avr/wdt.h</text>
</a>
</g>
</g>
<!-- Node4&#45;&gt;Node6 -->
<g id="edge5_Node000004_Node000006" class="edge">
<title>Node4&#45;&gt;Node6</title>
<g id="a_edge5_Node000004_Node000006"><a xlink:title=" ">
<path fill="none" stroke="#63b8ff" d="M193.81,-55.55C199.21,-47.65 205.82,-37.97 211.5,-29.66"/>
<polygon fill="#63b8ff" stroke="#63b8ff" points="214.22,-31.89 216.97,-21.66 208.44,-27.94 214.22,-31.89"/>
</a>
</g>
</g>
</g>
</svg>
