<?xml version="1.0" encoding="UTF-8" standalone="no"?>
<!DOCTYPE svg PUBLIC "-//W3C//DTD SVG 1.1//EN"
 "http://www.w3.org/Graphics/SVG/1.1/DTD/svg11.dtd">
<!-- Generated by graphviz version 10.0.1 (20240210.2158)
 -->
<!-- Title: zrtos_vfs_module_avr_timeout5__on_ioctl Pages: 1 -->
<svg width="460pt" height="146pt"
 viewBox="0.00 0.00 460.25 146.00" xmlns="http://www.w3.org/2000/svg" xmlns:xlink="http://www.w3.org/1999/xlink">
<g id="graph0" class="graph" transform="scale(1 1) rotate(0) translate(4 142)">
<title>zrtos_vfs_module_avr_timeout5__on_ioctl</title>
<!-- Node1 -->
<g id="Node000001" class="node">
<title>Node1</title>
<g id="a_Node000001"><a xlink:title=" ">
<polygon fill="#999999" stroke="#666666" points="108.25,-88 0,-88 0,-56 108.25,-56 108.25,-88"/>
<text text-anchor="start" x="8" y="-74.5" font-family="Helvetica,sans-Serif" font-size="10.00">zrtos_vfs_module_avr</text>
<text text-anchor="middle" x="54.12" y="-62.5" font-family="Helvetica,sans-Serif" font-size="10.00">_timeout5__on_ioctl</text>
</a>
</g>
</g>
<!-- Node2 -->
<g id="Node000002" class="node">
<title>Node2</title>
<g id="a_Node000002"><a xlink:href="vfs__file_8h.html#af74fd0459f24c9b7181d514760774410" target="_top" xlink:title=" ">
<polygon fill="white" stroke="#666666" points="263.75,-138 168.25,-138 168.25,-106 263.75,-106 263.75,-138"/>
<text text-anchor="start" x="176.25" y="-124.5" font-family="Helvetica,sans-Serif" font-size="10.00">zrtos_vfs_file__get</text>
<text text-anchor="middle" x="216" y="-112.5" font-family="Helvetica,sans-Serif" font-size="10.00">_offset</text>
</a>
</g>
</g>
<!-- Node1&#45;&gt;Node2 -->
<g id="edge1_Node000001_Node000002" class="edge">
<title>Node1&#45;&gt;Node2</title>
<g id="a_edge1_Node000001_Node000002"><a xlink:title=" ">
<path fill="none" stroke="#63b8ff" d="M107.47,-88.37C123.31,-93.32 140.79,-98.79 156.97,-103.85"/>
<polygon fill="#63b8ff" stroke="#63b8ff" points="155.9,-107.18 166.49,-106.83 157.99,-100.5 155.9,-107.18"/>
</a>
</g>
</g>
<!-- Node3 -->
<g id="Node000003" class="node">
<title>Node3</title>
<g id="a_Node000003"><a xlink:href="vfs__file_8h.html#a7f3b6e275325d6d776d1eb4a91335023" target="_top" xlink:title=" ">
<polygon fill="white" stroke="#666666" points="263.75,-88 168.25,-88 168.25,-56 263.75,-56 263.75,-88"/>
<text text-anchor="start" x="176.25" y="-74.5" font-family="Helvetica,sans-Serif" font-size="10.00">zrtos_vfs_file__set</text>
<text text-anchor="middle" x="216" y="-62.5" font-family="Helvetica,sans-Serif" font-size="10.00">_offset</text>
</a>
</g>
</g>
<!-- Node1&#45;&gt;Node3 -->
<g id="edge2_Node000001_Node000003" class="edge">
<title>Node1&#45;&gt;Node3</title>
<g id="a_edge2_Node000001_Node000003"><a xlink:title=" ">
<path fill="none" stroke="#63b8ff" d="M108.36,-72C123.86,-72 140.87,-72 156.66,-72"/>
<polygon fill="#63b8ff" stroke="#63b8ff" points="156.39,-75.5 166.39,-72 156.39,-68.5 156.39,-75.5"/>
</a>
</g>
</g>
<!-- Node4 -->
<g id="Node000004" class="node">
<title>Node4</title>
<g id="a_Node000004"><a xlink:href="timeout_8h.html#a06b1e137244f90f0ef2218c874c4712b" target="_top" xlink:title=" ">
<polygon fill="white" stroke="#666666" points="287.75,-38 144.25,-38 144.25,-6 287.75,-6 287.75,-38"/>
<text text-anchor="start" x="152.25" y="-24.5" font-family="Helvetica,sans-Serif" font-size="10.00">zrtos_vfs_module_timeout</text>
<text text-anchor="middle" x="216" y="-12.5" font-family="Helvetica,sans-Serif" font-size="10.00">__get_overflow_counter_value</text>
</a>
</g>
</g>
<!-- Node1&#45;&gt;Node4 -->
<g id="edge3_Node000001_Node000004" class="edge">
<title>Node1&#45;&gt;Node4</title>
<g id="a_edge3_Node000001_Node000004"><a xlink:title=" ">
<path fill="none" stroke="#63b8ff" d="M107.47,-55.63C121.48,-51.25 136.77,-46.46 151.32,-41.92"/>
<polygon fill="#63b8ff" stroke="#63b8ff" points="152.32,-45.27 160.82,-38.95 150.23,-38.59 152.32,-45.27"/>
</a>
</g>
</g>
<!-- Node5 -->
<g id="Node000005" class="node">
<title>Node5</title>
<g id="a_Node000005"><a xlink:href="timeout_8h.html#a60f1be70922ea65aa9c7beedbe30f9d0" target="_top" xlink:title=" ">
<polygon fill="white" stroke="#666666" points="452.25,-44 323.75,-44 323.75,0 452.25,0 452.25,-44"/>
<text text-anchor="start" x="331.75" y="-30.5" font-family="Helvetica,sans-Serif" font-size="10.00">zrtos_vfs_module_timeout</text>
<text text-anchor="start" x="331.75" y="-18.5" font-family="Helvetica,sans-Serif" font-size="10.00">__get_overflow_counter</text>
<text text-anchor="middle" x="388" y="-6.5" font-family="Helvetica,sans-Serif" font-size="10.00">_value_divider</text>
</a>
</g>
</g>
<!-- Node4&#45;&gt;Node5 -->
<g id="edge4_Node000004_Node000005" class="edge">
<title>Node4&#45;&gt;Node5</title>
<g id="a_edge4_Node000004_Node000005"><a xlink:title=" ">
<path fill="none" stroke="#63b8ff" d="M288.11,-22C296,-22 304.05,-22 311.98,-22"/>
<polygon fill="#63b8ff" stroke="#63b8ff" points="311.97,-25.5 321.97,-22 311.97,-18.5 311.97,-25.5"/>
</a>
</g>
</g>
</g>
</svg>
