<?xml version="1.0" encoding="UTF-8" standalone="no"?>
<!DOCTYPE svg PUBLIC "-//W3C//DTD SVG 1.1//EN"
 "http://www.w3.org/Graphics/SVG/1.1/DTD/svg11.dtd">
<!-- Generated by graphviz version 2.40.1 (20161225.0304)
 -->
<!-- Title: timeout.h Pages: 1 -->
<svg width="492pt" height="140pt"
 viewBox="0.00 0.00 492.00 140.00" xmlns="http://www.w3.org/2000/svg" xmlns:xlink="http://www.w3.org/1999/xlink">
<g id="graph0" class="graph" transform="scale(1 1) rotate(0) translate(4 136)">
<title>timeout.h</title>
<polygon fill="#ffffff" stroke="transparent" points="-4,4 -4,-136 488,-136 488,4 -4,4"/>
<!-- Node8 -->
<g id="node1" class="node">
<title>Node8</title>
<polygon fill="#bfbfbf" stroke="#000000" points="162.5,-112.5 162.5,-131.5 219.5,-131.5 219.5,-112.5 162.5,-112.5"/>
<text text-anchor="middle" x="191" y="-119.5" font-family="Helvetica,sans-Serif" font-size="10.00" fill="#000000">timeout.h</text>
</g>
<!-- Node9 -->
<g id="node2" class="node">
<title>Node9</title>
<g id="a_node2"><a xlink:href="timeout1_8h.html" target="_top" xlink:title="timeout1.h">
<polygon fill="#ffffff" stroke="#000000" points="0,-56.5 0,-75.5 62,-75.5 62,-56.5 0,-56.5"/>
<text text-anchor="middle" x="31" y="-63.5" font-family="Helvetica,sans-Serif" font-size="10.00" fill="#000000">timeout1.h</text>
</a>
</g>
</g>
<!-- Node8&#45;&gt;Node9 -->
<g id="edge1" class="edge">
<title>Node8&#45;&gt;Node9</title>
<path fill="none" stroke="#191970" d="M154.0201,-109.057C124.7382,-98.8084 84.5115,-84.729 58.1461,-75.5011"/>
<polygon fill="#191970" stroke="#191970" points="152.9002,-112.3732 163.495,-112.3733 155.2127,-105.7662 152.9002,-112.3732"/>
</g>
<!-- Node10 -->
<g id="node3" class="node">
<title>Node10</title>
<g id="a_node3"><a xlink:href="timeout3_8h.html" target="_top" xlink:title="timeout3.h">
<polygon fill="#ffffff" stroke="#000000" points="80,-56.5 80,-75.5 142,-75.5 142,-56.5 80,-56.5"/>
<text text-anchor="middle" x="111" y="-63.5" font-family="Helvetica,sans-Serif" font-size="10.00" fill="#000000">timeout3.h</text>
</a>
</g>
</g>
<!-- Node8&#45;&gt;Node10 -->
<g id="edge2" class="edge">
<title>Node8&#45;&gt;Node10</title>
<path fill="none" stroke="#191970" d="M168.8429,-106.49C154.728,-96.6096 136.8849,-84.1194 124.7752,-75.6427"/>
<polygon fill="#191970" stroke="#191970" points="166.8656,-109.3782 177.0651,-112.2455 170.8799,-103.6436 166.8656,-109.3782"/>
</g>
<!-- Node11 -->
<g id="node4" class="node">
<title>Node11</title>
<g id="a_node4"><a xlink:href="timeout4_8h.html" target="_top" xlink:title="timeout4.h">
<polygon fill="#ffffff" stroke="#000000" points="160,-56.5 160,-75.5 222,-75.5 222,-56.5 160,-56.5"/>
<text text-anchor="middle" x="191" y="-63.5" font-family="Helvetica,sans-Serif" font-size="10.00" fill="#000000">timeout4.h</text>
</a>
</g>
</g>
<!-- Node8&#45;&gt;Node11 -->
<g id="edge3" class="edge">
<title>Node8&#45;&gt;Node11</title>
<path fill="none" stroke="#191970" d="M191,-102.1575C191,-93.155 191,-82.9199 191,-75.6427"/>
<polygon fill="#191970" stroke="#191970" points="187.5001,-102.2455 191,-112.2455 194.5001,-102.2456 187.5001,-102.2455"/>
</g>
<!-- Node12 -->
<g id="node5" class="node">
<title>Node12</title>
<g id="a_node5"><a xlink:href="timeout5_8h.html" target="_top" xlink:title="timeout5.h">
<polygon fill="#ffffff" stroke="#000000" points="240,-56.5 240,-75.5 302,-75.5 302,-56.5 240,-56.5"/>
<text text-anchor="middle" x="271" y="-63.5" font-family="Helvetica,sans-Serif" font-size="10.00" fill="#000000">timeout5.h</text>
</a>
</g>
</g>
<!-- Node8&#45;&gt;Node12 -->
<g id="edge4" class="edge">
<title>Node8&#45;&gt;Node12</title>
<path fill="none" stroke="#191970" d="M213.1571,-106.49C227.272,-96.6096 245.1151,-84.1194 257.2248,-75.6427"/>
<polygon fill="#191970" stroke="#191970" points="211.1201,-103.6436 204.9349,-112.2455 215.1344,-109.3782 211.1201,-103.6436"/>
</g>
<!-- Node13 -->
<g id="node6" class="node">
<title>Node13</title>
<g id="a_node6"><a xlink:href="uart_2uart_8h.html" target="_top" xlink:title="uart.h">
<polygon fill="#ffffff" stroke="#000000" points="320.5,-56.5 320.5,-75.5 361.5,-75.5 361.5,-56.5 320.5,-56.5"/>
<text text-anchor="middle" x="341" y="-63.5" font-family="Helvetica,sans-Serif" font-size="10.00" fill="#000000">uart.h</text>
</a>
</g>
</g>
<!-- Node8&#45;&gt;Node13 -->
<g id="edge5" class="edge">
<title>Node8&#45;&gt;Node13</title>
<path fill="none" stroke="#191970" d="M226.2344,-108.8458C255.4978,-97.9208 296.1243,-82.7536 320.3682,-73.7026"/>
<polygon fill="#191970" stroke="#191970" points="224.9302,-105.5967 216.7859,-112.3733 227.3785,-112.1546 224.9302,-105.5967"/>
</g>
<!-- Node14 -->
<g id="node7" class="node">
<title>Node14</title>
<g id="a_node7"><a xlink:href="uart0_8h.html" target="_top" xlink:title="uart0.h">
<polygon fill="#ffffff" stroke="#000000" points="187.5,-.5 187.5,-19.5 234.5,-19.5 234.5,-.5 187.5,-.5"/>
<text text-anchor="middle" x="211" y="-7.5" font-family="Helvetica,sans-Serif" font-size="10.00" fill="#000000">uart0.h</text>
</a>
</g>
</g>
<!-- Node13&#45;&gt;Node14 -->
<g id="edge6" class="edge">
<title>Node13&#45;&gt;Node14</title>
<path fill="none" stroke="#191970" d="M311.1513,-53.1421C287.4127,-42.9162 254.7282,-28.8367 233.2439,-19.582"/>
<polygon fill="#191970" stroke="#191970" points="309.8323,-56.3848 320.4011,-57.1266 312.6017,-49.9559 309.8323,-56.3848"/>
</g>
<!-- Node15 -->
<g id="node8" class="node">
<title>Node15</title>
<g id="a_node8"><a xlink:href="uart1_8h.html" target="_top" xlink:title="uart1.h">
<polygon fill="#ffffff" stroke="#000000" points="252.5,-.5 252.5,-19.5 299.5,-19.5 299.5,-.5 252.5,-.5"/>
<text text-anchor="middle" x="276" y="-7.5" font-family="Helvetica,sans-Serif" font-size="10.00" fill="#000000">uart1.h</text>
</a>
</g>
</g>
<!-- Node13&#45;&gt;Node15 -->
<g id="edge7" class="edge">
<title>Node13&#45;&gt;Node15</title>
<path fill="none" stroke="#191970" d="M322.0165,-49.645C310.7121,-39.9058 296.753,-27.8795 287.1924,-19.6427"/>
<polygon fill="#191970" stroke="#191970" points="319.8173,-52.3701 329.6779,-56.2455 324.3862,-47.0668 319.8173,-52.3701"/>
</g>
<!-- Node16 -->
<g id="node9" class="node">
<title>Node16</title>
<g id="a_node9"><a xlink:href="uart2_8h.html" target="_top" xlink:title="uart2.h">
<polygon fill="#ffffff" stroke="#000000" points="317.5,-.5 317.5,-19.5 364.5,-19.5 364.5,-.5 317.5,-.5"/>
<text text-anchor="middle" x="341" y="-7.5" font-family="Helvetica,sans-Serif" font-size="10.00" fill="#000000">uart2.h</text>
</a>
</g>
</g>
<!-- Node13&#45;&gt;Node16 -->
<g id="edge8" class="edge">
<title>Node13&#45;&gt;Node16</title>
<path fill="none" stroke="#191970" d="M341,-46.1575C341,-37.155 341,-26.9199 341,-19.6427"/>
<polygon fill="#191970" stroke="#191970" points="337.5001,-46.2455 341,-56.2455 344.5001,-46.2456 337.5001,-46.2455"/>
</g>
<!-- Node17 -->
<g id="node10" class="node">
<title>Node17</title>
<g id="a_node10"><a xlink:href="uart3_8h.html" target="_top" xlink:title="uart3.h">
<polygon fill="#ffffff" stroke="#000000" points="382.5,-.5 382.5,-19.5 429.5,-19.5 429.5,-.5 382.5,-.5"/>
<text text-anchor="middle" x="406" y="-7.5" font-family="Helvetica,sans-Serif" font-size="10.00" fill="#000000">uart3.h</text>
</a>
</g>
</g>
<!-- Node13&#45;&gt;Node17 -->
<g id="edge9" class="edge">
<title>Node13&#45;&gt;Node17</title>
<path fill="none" stroke="#191970" d="M359.9835,-49.645C371.2879,-39.9058 385.247,-27.8795 394.8076,-19.6427"/>
<polygon fill="#191970" stroke="#191970" points="357.6138,-47.0668 352.3221,-56.2455 362.1827,-52.3701 357.6138,-47.0668"/>
</g>
<!-- Node18 -->
<g id="node11" class="node">
<title>Node18</title>
<g id="a_node11"><a xlink:href="rtu_8h.html" target="_top" xlink:title="rtu.h">
<polygon fill="#ffffff" stroke="#000000" points="448,-.5 448,-19.5 484,-19.5 484,-.5 448,-.5"/>
<text text-anchor="middle" x="466" y="-7.5" font-family="Helvetica,sans-Serif" font-size="10.00" fill="#000000">rtu.h</text>
</a>
</g>
</g>
<!-- Node13&#45;&gt;Node18 -->
<g id="edge10" class="edge">
<title>Node13&#45;&gt;Node18</title>
<path fill="none" stroke="#191970" d="M370.9713,-52.5729C394.8941,-41.8554 427.632,-27.1889 447.7696,-18.1672"/>
<polygon fill="#191970" stroke="#191970" points="369.3363,-49.4701 361.6412,-56.7527 372.1982,-55.8583 369.3363,-49.4701"/>
</g>
</g>
</svg>
