<?xml version="1.0" encoding="UTF-8" standalone="no"?>
<!DOCTYPE svg PUBLIC "-//W3C//DTD SVG 1.1//EN"
 "http://www.w3.org/Graphics/SVG/1.1/DTD/svg11.dtd">
<!-- Generated by graphviz version 10.0.1 (20240210.2158)
 -->
<!-- Title: zrtos_vfs_module_timeout__get_overflow_counter_value_divider Pages: 1 -->
<svg width="460pt" height="190pt"
 viewBox="0.00 0.00 460.25 190.00" xmlns="http://www.w3.org/2000/svg" xmlns:xlink="http://www.w3.org/1999/xlink">
<g id="graph0" class="graph" transform="scale(1 1) rotate(0) translate(4 186)">
<title>zrtos_vfs_module_timeout__get_overflow_counter_value_divider</title>
<!-- Node1 -->
<g id="Node000001" class="node">
<title>Node1</title>
<g id="a_Node000001"><a xlink:title=" ">
<polygon fill="#999999" stroke="#666666" points="452.25,-113 323.75,-113 323.75,-69 452.25,-69 452.25,-113"/>
<text text-anchor="start" x="331.75" y="-99.5" font-family="Helvetica,sans-Serif" font-size="10.00">zrtos_vfs_module_timeout</text>
<text text-anchor="start" x="331.75" y="-87.5" font-family="Helvetica,sans-Serif" font-size="10.00">__get_overflow_counter</text>
<text text-anchor="middle" x="388" y="-75.5" font-family="Helvetica,sans-Serif" font-size="10.00">_value_divider</text>
</a>
</g>
</g>
<!-- Node2 -->
<g id="Node000002" class="node">
<title>Node2</title>
<g id="a_Node000002"><a xlink:href="timeout_8h.html#a06b1e137244f90f0ef2218c874c4712b" target="_top" xlink:title=" ">
<polygon fill="white" stroke="#666666" points="287.75,-107 144.25,-107 144.25,-75 287.75,-75 287.75,-107"/>
<text text-anchor="start" x="152.25" y="-93.5" font-family="Helvetica,sans-Serif" font-size="10.00">zrtos_vfs_module_timeout</text>
<text text-anchor="middle" x="216" y="-81.5" font-family="Helvetica,sans-Serif" font-size="10.00">__get_overflow_counter_value</text>
</a>
</g>
</g>
<!-- Node1&#45;&gt;Node2 -->
<g id="edge1_Node000001_Node000002" class="edge">
<title>Node1&#45;&gt;Node2</title>
<g id="a_edge1_Node000001_Node000002"><a xlink:title=" ">
<path fill="none" stroke="#63b8ff" d="M312.39,-91C304.32,-91 296.11,-91 288.08,-91"/>
<polygon fill="#63b8ff" stroke="#63b8ff" points="312.18,-94.5 322.18,-91 312.18,-87.5 312.18,-94.5"/>
</a>
</g>
</g>
<!-- Node3 -->
<g id="Node000003" class="node">
<title>Node3</title>
<g id="a_Node000003"><a xlink:href="timeout1_8h.html#ae75d159c49609926357e94297bd3edcf" target="_top" xlink:title=" ">
<polygon fill="white" stroke="#666666" points="108.25,-182 0,-182 0,-150 108.25,-150 108.25,-182"/>
<text text-anchor="start" x="8" y="-168.5" font-family="Helvetica,sans-Serif" font-size="10.00">zrtos_vfs_module_avr</text>
<text text-anchor="middle" x="54.12" y="-156.5" font-family="Helvetica,sans-Serif" font-size="10.00">_timeout1__on_ioctl</text>
</a>
</g>
</g>
<!-- Node2&#45;&gt;Node3 -->
<g id="edge2_Node000002_Node000003" class="edge">
<title>Node2&#45;&gt;Node3</title>
<g id="a_edge2_Node000002_Node000003"><a xlink:title=" ">
<path fill="none" stroke="#63b8ff" d="M169.5,-112.35C144.29,-124.17 113.43,-138.65 90.13,-149.58"/>
<polygon fill="#63b8ff" stroke="#63b8ff" points="170.98,-115.52 178.54,-108.1 168,-109.18 170.98,-115.52"/>
</a>
</g>
</g>
<!-- Node4 -->
<g id="Node000004" class="node">
<title>Node4</title>
<g id="a_Node000004"><a xlink:href="timeout3_8h.html#a5507f610cce521b2e59ac2b8f4a9fb95" target="_top" xlink:title=" ">
<polygon fill="white" stroke="#666666" points="108.25,-132 0,-132 0,-100 108.25,-100 108.25,-132"/>
<text text-anchor="start" x="8" y="-118.5" font-family="Helvetica,sans-Serif" font-size="10.00">zrtos_vfs_module_avr</text>
<text text-anchor="middle" x="54.12" y="-106.5" font-family="Helvetica,sans-Serif" font-size="10.00">_timeout3__on_ioctl</text>
</a>
</g>
</g>
<!-- Node2&#45;&gt;Node4 -->
<g id="edge3_Node000002_Node000004" class="edge">
<title>Node2&#45;&gt;Node4</title>
<g id="a_edge3_Node000002_Node000004"><a xlink:title=" ">
<path fill="none" stroke="#63b8ff" d="M132.8,-103.85C124.61,-105.13 116.46,-106.41 108.69,-107.62"/>
<polygon fill="#63b8ff" stroke="#63b8ff" points="133.11,-107.35 142.45,-102.34 132.03,-100.43 133.11,-107.35"/>
</a>
</g>
</g>
<!-- Node5 -->
<g id="Node000005" class="node">
<title>Node5</title>
<g id="a_Node000005"><a xlink:href="timeout4_8h.html#afb47e1c8e108a4f07a44001bdc8b4f99" target="_top" xlink:title=" ">
<polygon fill="white" stroke="#666666" points="108.25,-82 0,-82 0,-50 108.25,-50 108.25,-82"/>
<text text-anchor="start" x="8" y="-68.5" font-family="Helvetica,sans-Serif" font-size="10.00">zrtos_vfs_module_avr</text>
<text text-anchor="middle" x="54.12" y="-56.5" font-family="Helvetica,sans-Serif" font-size="10.00">_timeout4__on_ioctl</text>
</a>
</g>
</g>
<!-- Node2&#45;&gt;Node5 -->
<g id="edge4_Node000002_Node000005" class="edge">
<title>Node2&#45;&gt;Node5</title>
<g id="a_edge4_Node000002_Node000005"><a xlink:title=" ">
<path fill="none" stroke="#63b8ff" d="M132.8,-78.15C124.61,-76.87 116.46,-75.59 108.69,-74.38"/>
<polygon fill="#63b8ff" stroke="#63b8ff" points="132.03,-81.57 142.45,-79.66 133.11,-74.65 132.03,-81.57"/>
</a>
</g>
</g>
<!-- Node6 -->
<g id="Node000006" class="node">
<title>Node6</title>
<g id="a_Node000006"><a xlink:href="timeout5_8h.html#afa0f3c8a84f24c543b48ca499024640e" target="_top" xlink:title=" ">
<polygon fill="white" stroke="#666666" points="108.25,-32 0,-32 0,0 108.25,0 108.25,-32"/>
<text text-anchor="start" x="8" y="-18.5" font-family="Helvetica,sans-Serif" font-size="10.00">zrtos_vfs_module_avr</text>
<text text-anchor="middle" x="54.12" y="-6.5" font-family="Helvetica,sans-Serif" font-size="10.00">_timeout5__on_ioctl</text>
</a>
</g>
</g>
<!-- Node2&#45;&gt;Node6 -->
<g id="edge5_Node000002_Node000006" class="edge">
<title>Node2&#45;&gt;Node6</title>
<g id="a_edge5_Node000002_Node000006"><a xlink:title=" ">
<path fill="none" stroke="#63b8ff" d="M169.5,-69.65C144.29,-57.83 113.43,-43.35 90.13,-32.42"/>
<polygon fill="#63b8ff" stroke="#63b8ff" points="168,-72.82 178.54,-73.9 170.98,-66.48 168,-72.82"/>
</a>
</g>
</g>
</g>
</svg>
