<?xml version="1.0" encoding="UTF-8" standalone="no"?>
<!DOCTYPE svg PUBLIC "-//W3C//DTD SVG 1.1//EN"
 "http://www.w3.org/Graphics/SVG/1.1/DTD/svg11.dtd">
<!-- Generated by graphviz version 10.0.1 (20240210.2158)
 -->
<!-- Title: zrtos_types__ptr_subtract Pages: 1 -->
<svg width="1313pt" height="246pt"
 viewBox="0.00 0.00 1312.75 246.22" xmlns="http://www.w3.org/2000/svg" xmlns:xlink="http://www.w3.org/1999/xlink">
<g id="graph0" class="graph" transform="scale(1 1) rotate(0) translate(4 242.22)">
<title>zrtos_types__ptr_subtract</title>
<!-- Node1 -->
<g id="Node000001" class="node">
<title>Node1</title>
<g id="a_Node000001"><a xlink:title=" ">
<polygon fill="#999999" stroke="#666666" points="1304.75,-89 1175.5,-89 1175.5,-69 1304.75,-69 1304.75,-89"/>
<text text-anchor="middle" x="1240.12" y="-75.5" font-family="Helvetica,sans-Serif" font-size="10.00">zrtos_types__ptr_subtract</text>
</a>
</g>
</g>
<!-- Node2 -->
<g id="Node000002" class="node">
<title>Node2</title>
<g id="a_Node000002"><a xlink:href="vheap__task__scheduler_8h.html#a525247f445d250b1eb2aff8eadaa0c87" target="_top" xlink:title=" ">
<polygon fill="white" stroke="#666666" points="1139.5,-183 995.25,-183 995.25,-151 1139.5,-151 1139.5,-183"/>
<text text-anchor="start" x="1003.25" y="-169.5" font-family="Helvetica,sans-Serif" font-size="10.00">_zrtos_vheap_task_scheduler</text>
<text text-anchor="middle" x="1067.38" y="-157.5" font-family="Helvetica,sans-Serif" font-size="10.00">__get_active_task</text>
</a>
</g>
</g>
<!-- Node1&#45;&gt;Node2 -->
<g id="edge1_Node000001_Node000002" class="edge">
<title>Node1&#45;&gt;Node2</title>
<g id="a_edge1_Node000001_Node000002"><a xlink:title=" ">
<path fill="none" stroke="#63b8ff" d="M1208.8,-94.63C1178.25,-110.37 1131.3,-134.57 1100.22,-150.59"/>
<polygon fill="#63b8ff" stroke="#63b8ff" points="1210.24,-97.83 1217.52,-90.13 1207.03,-91.6 1210.24,-97.83"/>
</a>
</g>
</g>
<!-- Node4 -->
<g id="Node000004" class="node">
<title>Node4</title>
<g id="a_Node000004"><a xlink:href="vheap__task__pthread_8h.html#a28a15bba47cab57cbc9f5dac9af99c8b" target="_top" xlink:title=" ">
<polygon fill="white" stroke="#666666" points="68.5,-177 0,-177 0,-157 68.5,-157 68.5,-177"/>
<text text-anchor="middle" x="34.25" y="-163.5" font-family="Helvetica,sans-Serif" font-size="10.00">pthread_join</text>
</a>
</g>
</g>
<!-- Node1&#45;&gt;Node4 -->
<g id="edge14_Node000001_Node000004" class="edge">
<title>Node1&#45;&gt;Node4</title>
<g id="a_edge14_Node000001_Node000004"><a xlink:title=" ">
<path fill="none" stroke="#63b8ff" d="M1163.88,-85.48C1093.36,-90.98 984.99,-98 890.75,-98 890.75,-98 890.75,-98 350.62,-98 239.73,-98 211.24,-108.92 104.5,-139 88.4,-143.54 70.94,-150.61 57.58,-156.51"/>
<polygon fill="#63b8ff" stroke="#63b8ff" points="1164.09,-88.97 1173.78,-84.69 1163.54,-81.99 1164.09,-88.97"/>
</a>
</g>
</g>
<!-- Node12 -->
<g id="Node000012" class="node">
<title>Node12</title>
<g id="a_Node000012"><a xlink:href="vheap__task__pthread_8h.html#a091adcef6201bebbf231763328c15286" target="_top" xlink:title=" ">
<polygon fill="white" stroke="#666666" points="1107.62,-70 1027.12,-70 1027.12,-50 1107.62,-50 1107.62,-70"/>
<text text-anchor="middle" x="1067.38" y="-56.5" font-family="Helvetica,sans-Serif" font-size="10.00">pthread_create</text>
</a>
</g>
</g>
<!-- Node1&#45;&gt;Node12 -->
<g id="edge13_Node000001_Node000012" class="edge">
<title>Node1&#45;&gt;Node12</title>
<g id="a_edge13_Node000001_Node000012"><a xlink:title=" ">
<path fill="none" stroke="#63b8ff" d="M1163.83,-70.62C1144.58,-68.48 1124.63,-66.26 1107.98,-64.41"/>
<polygon fill="#63b8ff" stroke="#63b8ff" points="1163.23,-74.08 1173.55,-71.7 1164,-67.12 1163.23,-74.08"/>
</a>
</g>
</g>
<!-- Node13 -->
<g id="Node000013" class="node">
<title>Node13</title>
<g id="a_Node000013"><a xlink:href="task__pthread_8h.html#ace168cf0d23cd4b085a2da31b881c750" target="_top" xlink:title=" ">
<polygon fill="white" stroke="#666666" points="1117,-32 1017.75,-32 1017.75,0 1117,0 1117,-32"/>
<text text-anchor="start" x="1025.75" y="-18.5" font-family="Helvetica,sans-Serif" font-size="10.00">zrtos_task_pthread</text>
<text text-anchor="middle" x="1067.38" y="-6.5" font-family="Helvetica,sans-Serif" font-size="10.00">__trampoline_cb</text>
</a>
</g>
</g>
<!-- Node1&#45;&gt;Node13 -->
<g id="edge15_Node000001_Node000013" class="edge">
<title>Node1&#45;&gt;Node13</title>
<g id="a_edge15_Node000001_Node000013"><a xlink:title=" ">
<path fill="none" stroke="#63b8ff" d="M1201.83,-64.51C1183.16,-57.32 1160.18,-48.58 1139.5,-41 1131.76,-38.16 1123.52,-35.21 1115.5,-32.37"/>
<polygon fill="#63b8ff" stroke="#63b8ff" points="1200.56,-67.77 1211.15,-68.1 1203.08,-61.24 1200.56,-67.77"/>
</a>
</g>
</g>
<!-- Node3 -->
<g id="Node000003" class="node">
<title>Node3</title>
<g id="a_Node000003"><a xlink:href="vheap__task__scheduler_8h.html#a51ae476e29565ebfde1ec3340150ca06" target="_top" xlink:title=" ">
<polygon fill="white" stroke="#666666" points="243.5,-230 104.5,-230 104.5,-198 243.5,-198 243.5,-230"/>
<text text-anchor="start" x="112.5" y="-216.5" font-family="Helvetica,sans-Serif" font-size="10.00">zrtos_vheap_task_scheduler</text>
<text text-anchor="middle" x="174" y="-204.5" font-family="Helvetica,sans-Serif" font-size="10.00">__delay_ms</text>
</a>
</g>
</g>
<!-- Node2&#45;&gt;Node3 -->
<g id="edge2_Node000002_Node000003" class="edge">
<title>Node2&#45;&gt;Node3</title>
<g id="a_edge2_Node000002_Node000003"><a xlink:title=" ">
<path fill="none" stroke="#63b8ff" d="M1028.84,-188.59C1008.84,-199.03 983.42,-210.65 959.25,-217 853.14,-244.87 822.84,-236 713.12,-236 713.12,-236 713.12,-236 530.88,-236 430.9,-236 315.44,-227.24 243.81,-220.78"/>
<polygon fill="#63b8ff" stroke="#63b8ff" points="1030.28,-191.79 1037.44,-183.98 1026.97,-185.62 1030.28,-191.79"/>
</a>
</g>
</g>
<!-- Node5 -->
<g id="Node000005" class="node">
<title>Node5</title>
<g id="a_Node000005"><a xlink:href="vheap__task__scheduler_8h.html#ac3ceec0a4016b00c1670ddce858c6bac" target="_top" xlink:title=" ">
<polygon fill="white" stroke="#666666" points="959.25,-158 820.25,-158 820.25,-126 959.25,-126 959.25,-158"/>
<text text-anchor="start" x="828.25" y="-144.5" font-family="Helvetica,sans-Serif" font-size="10.00">zrtos_vheap_task_scheduler</text>
<text text-anchor="middle" x="889.75" y="-132.5" font-family="Helvetica,sans-Serif" font-size="10.00">__page_task_in</text>
</a>
</g>
</g>
<!-- Node2&#45;&gt;Node5 -->
<g id="edge4_Node000002_Node000005" class="edge">
<title>Node2&#45;&gt;Node5</title>
<g id="a_edge4_Node000002_Node000005"><a xlink:title=" ">
<path fill="none" stroke="#63b8ff" d="M983.62,-155.22C975.57,-154.07 967.46,-152.92 959.56,-151.8"/>
<polygon fill="#63b8ff" stroke="#63b8ff" points="983.05,-158.67 993.44,-156.62 984.04,-151.74 983.05,-158.67"/>
</a>
</g>
</g>
<!-- Node11 -->
<g id="Node000011" class="node">
<title>Node11</title>
<g id="a_Node000011"><a xlink:href="vheap__task__scheduler_8h.html#aff9fd65d1ee753d63d6749a7d18ccb05" target="_top" xlink:title=" ">
<polygon fill="white" stroke="#666666" points="959.25,-208 820.25,-208 820.25,-176 959.25,-176 959.25,-208"/>
<text text-anchor="start" x="828.25" y="-194.5" font-family="Helvetica,sans-Serif" font-size="10.00">zrtos_vheap_task_scheduler</text>
<text text-anchor="middle" x="889.75" y="-182.5" font-family="Helvetica,sans-Serif" font-size="10.00">__page_task_out</text>
</a>
</g>
</g>
<!-- Node2&#45;&gt;Node11 -->
<g id="edge11_Node000002_Node000011" class="edge">
<title>Node2&#45;&gt;Node11</title>
<g id="a_edge11_Node000002_Node000011"><a xlink:title=" ">
<path fill="none" stroke="#63b8ff" d="M983.62,-178.78C975.57,-179.93 967.46,-181.08 959.56,-182.2"/>
<polygon fill="#63b8ff" stroke="#63b8ff" points="984.04,-182.26 993.44,-177.38 983.05,-175.33 984.04,-182.26"/>
</a>
</g>
</g>
<!-- Node3&#45;&gt;Node4 -->
<g id="edge3_Node000003_Node000004" class="edge">
<title>Node3&#45;&gt;Node4</title>
<g id="a_edge3_Node000003_Node000004"><a xlink:title=" ">
<path fill="none" stroke="#63b8ff" d="M114.09,-193.9C97.51,-188.24 80.16,-182.32 65.96,-177.48"/>
<polygon fill="#63b8ff" stroke="#63b8ff" points="112.79,-197.16 123.39,-197.07 115.06,-190.53 112.79,-197.16"/>
</a>
</g>
</g>
<!-- Node6 -->
<g id="Node000006" class="node">
<title>Node6</title>
<g id="a_Node000006"><a xlink:href="vheap__task__scheduler_8h.html#af69e917ca8bd27891eb335dda8289faf" target="_top" xlink:title=" ">
<polygon fill="white" stroke="#666666" points="784.25,-208 640,-208 640,-176 784.25,-176 784.25,-208"/>
<text text-anchor="start" x="648" y="-194.5" font-family="Helvetica,sans-Serif" font-size="10.00">_zrtos_vheap_task_scheduler</text>
<text text-anchor="middle" x="712.12" y="-182.5" font-family="Helvetica,sans-Serif" font-size="10.00">__set_active_task</text>
</a>
</g>
</g>
<!-- Node5&#45;&gt;Node6 -->
<g id="edge5_Node000005_Node000006" class="edge">
<title>Node5&#45;&gt;Node6</title>
<g id="a_edge5_Node000005_Node000006"><a xlink:title=" ">
<path fill="none" stroke="#63b8ff" d="M820.18,-161.52C803.94,-166.15 786.77,-171.03 771.06,-175.51"/>
<polygon fill="#63b8ff" stroke="#63b8ff" points="821.13,-164.89 829.79,-158.79 819.21,-158.16 821.13,-164.89"/>
</a>
</g>
</g>
<!-- Node10 -->
<g id="Node000010" class="node">
<title>Node10</title>
<g id="a_Node000010"><a xlink:href="vheap__task__scheduler_8h.html#add5545a77a9d66f232fa03da168ca02f" target="_top" xlink:title=" ">
<polygon fill="white" stroke="#666666" points="781.62,-158 642.62,-158 642.62,-126 781.62,-126 781.62,-158"/>
<text text-anchor="start" x="650.62" y="-144.5" font-family="Helvetica,sans-Serif" font-size="10.00">zrtos_vheap_task_scheduler</text>
<text text-anchor="middle" x="712.12" y="-132.5" font-family="Helvetica,sans-Serif" font-size="10.00">__start</text>
</a>
</g>
</g>
<!-- Node5&#45;&gt;Node10 -->
<g id="edge10_Node000005_Node000010" class="edge">
<title>Node5&#45;&gt;Node10</title>
<g id="a_edge10_Node000005_Node000010"><a xlink:title=" ">
<path fill="none" stroke="#63b8ff" d="M808.39,-142C799.62,-142 790.74,-142 782.12,-142"/>
<polygon fill="#63b8ff" stroke="#63b8ff" points="808.33,-145.5 818.33,-142 808.33,-138.5 808.33,-145.5"/>
</a>
</g>
</g>
<!-- Node7 -->
<g id="Node000007" class="node">
<title>Node7</title>
<g id="a_Node000007"><a xlink:href="vheap__task__scheduler_8h.html#a1a1be02692a671c368f4e2335179a042" target="_top" xlink:title=" ">
<polygon fill="white" stroke="#666666" points="604,-208 459.75,-208 459.75,-176 604,-176 604,-208"/>
<text text-anchor="start" x="467.75" y="-194.5" font-family="Helvetica,sans-Serif" font-size="10.00">_zrtos_vheap_task_scheduler</text>
<text text-anchor="middle" x="531.88" y="-182.5" font-family="Helvetica,sans-Serif" font-size="10.00">__switch_task</text>
</a>
</g>
</g>
<!-- Node6&#45;&gt;Node7 -->
<g id="edge6_Node000006_Node000007" class="edge">
<title>Node6&#45;&gt;Node7</title>
<g id="a_edge6_Node000006_Node000007"><a xlink:title=" ">
<path fill="none" stroke="#63b8ff" d="M628.38,-192C620.36,-192 612.27,-192 604.37,-192"/>
<polygon fill="#63b8ff" stroke="#63b8ff" points="628.14,-195.5 638.14,-192 628.14,-188.5 628.14,-195.5"/>
</a>
</g>
</g>
<!-- Node8 -->
<g id="Node000008" class="node">
<title>Node8</title>
<g id="a_Node000008"><a xlink:href="vheap__task__scheduler_8h.html#acd810187c2b0b8d63548170c9da4b73d" target="_top" xlink:title=" ">
<polygon fill="white" stroke="#666666" points="423.75,-208 279.5,-208 279.5,-176 423.75,-176 423.75,-208"/>
<text text-anchor="start" x="287.5" y="-194.5" font-family="Helvetica,sans-Serif" font-size="10.00">_zrtos_vheap_task_scheduler</text>
<text text-anchor="middle" x="351.62" y="-182.5" font-family="Helvetica,sans-Serif" font-size="10.00">__on_tick</text>
</a>
</g>
</g>
<!-- Node7&#45;&gt;Node8 -->
<g id="edge7_Node000007_Node000008" class="edge">
<title>Node7&#45;&gt;Node8</title>
<g id="a_edge7_Node000007_Node000008"><a xlink:title=" ">
<path fill="none" stroke="#63b8ff" d="M448.13,-192C440.11,-192 432.02,-192 424.12,-192"/>
<polygon fill="#63b8ff" stroke="#63b8ff" points="447.89,-195.5 457.89,-192 447.89,-188.5 447.89,-195.5"/>
</a>
</g>
</g>
<!-- Node8&#45;&gt;Node3 -->
<g id="edge8_Node000008_Node000003" class="edge">
<title>Node8&#45;&gt;Node3</title>
<g id="a_edge8_Node000008_Node000003"><a xlink:title=" ">
<path fill="none" stroke="#63b8ff" d="M267.87,-202.37C259.82,-203.38 251.71,-204.39 243.81,-205.38"/>
<polygon fill="#63b8ff" stroke="#63b8ff" points="268.2,-205.85 277.69,-201.14 267.33,-198.91 268.2,-205.85"/>
</a>
</g>
</g>
<!-- Node9 -->
<g id="Node000009" class="node">
<title>Node9</title>
<g id="a_Node000009"><a xlink:href="vheap__task__scheduler_8h.html#a3734a190668294fe1e91009e3cf6f72a" target="_top" xlink:title=" ">
<polygon fill="white" stroke="#666666" points="243.5,-180 104.5,-180 104.5,-148 243.5,-148 243.5,-180"/>
<text text-anchor="start" x="112.5" y="-166.5" font-family="Helvetica,sans-Serif" font-size="10.00">zrtos_vheap_task_scheduler</text>
<text text-anchor="middle" x="174" y="-154.5" font-family="Helvetica,sans-Serif" font-size="10.00">__trampoline_cb</text>
</a>
</g>
</g>
<!-- Node8&#45;&gt;Node9 -->
<g id="edge9_Node000008_Node000009" class="edge">
<title>Node8&#45;&gt;Node9</title>
<g id="a_edge9_Node000008_Node000009"><a xlink:title=" ">
<path fill="none" stroke="#63b8ff" d="M267.87,-178.81C259.82,-177.52 251.71,-176.23 243.81,-174.97"/>
<polygon fill="#63b8ff" stroke="#63b8ff" points="267.27,-182.25 277.7,-180.37 268.37,-175.34 267.27,-182.25"/>
</a>
</g>
</g>
<!-- Node11&#45;&gt;Node6 -->
<g id="edge12_Node000011_Node000006" class="edge">
<title>Node11&#45;&gt;Node6</title>
<g id="a_edge12_Node000011_Node000006"><a xlink:title=" ">
<path fill="none" stroke="#63b8ff" d="M808.37,-192C800.49,-192 792.52,-192 784.72,-192"/>
<polygon fill="#63b8ff" stroke="#63b8ff" points="808.33,-195.5 818.33,-192 808.33,-188.5 808.33,-195.5"/>
</a>
</g>
</g>
<!-- Node14 -->
<g id="Node000014" class="node">
<title>Node14</title>
<g id="a_Node000014"><a xlink:href="task__pthread_8h.html#a091adcef6201bebbf231763328c15286" target="_top" xlink:title=" ">
<polygon fill="white" stroke="#666666" points="930,-26 849.5,-26 849.5,-6 930,-6 930,-26"/>
<text text-anchor="middle" x="889.75" y="-12.5" font-family="Helvetica,sans-Serif" font-size="10.00">pthread_create</text>
</a>
</g>
</g>
<!-- Node13&#45;&gt;Node14 -->
<g id="edge16_Node000013_Node000014" class="edge">
<title>Node13&#45;&gt;Node14</title>
<g id="a_edge16_Node000013_Node000014"><a xlink:title=" ">
<path fill="none" stroke="#63b8ff" d="M1006.19,-16C981.09,-16 952.64,-16 930.26,-16"/>
<polygon fill="#63b8ff" stroke="#63b8ff" points="1005.94,-19.5 1015.94,-16 1005.94,-12.5 1005.94,-19.5"/>
</a>
</g>
</g>
</g>
</svg>
