<?xml version="1.0" encoding="UTF-8" standalone="no"?>
<!DOCTYPE svg PUBLIC "-//W3C//DTD SVG 1.1//EN"
 "http://www.w3.org/Graphics/SVG/1.1/DTD/svg11.dtd">
<!-- Generated by graphviz version 2.40.1 (20161225.0304)
 -->
<!-- Title: zrtos_types__uint32_is_valid_address_range Pages: 1 -->
<svg width="281pt" height="39pt"
 viewBox="0.00 0.00 281.00 39.00" xmlns="http://www.w3.org/2000/svg" xmlns:xlink="http://www.w3.org/1999/xlink">
<g id="graph0" class="graph" transform="scale(1 1) rotate(0) translate(4 35)">
<title>zrtos_types__uint32_is_valid_address_range</title>
<polygon fill="#ffffff" stroke="transparent" points="-4,4 -4,-35 277,-35 277,4 -4,4"/>
<!-- Node150 -->
<g id="node1" class="node">
<title>Node150</title>
<polygon fill="#bfbfbf" stroke="#000000" points="0,-.5 0,-30.5 124,-30.5 124,-.5 0,-.5"/>
<text text-anchor="start" x="8" y="-18.5" font-family="Helvetica,sans-Serif" font-size="10.00" fill="#000000">zrtos_types__uint32</text>
<text text-anchor="middle" x="62" y="-7.5" font-family="Helvetica,sans-Serif" font-size="10.00" fill="#000000">_is_valid_address_range</text>
</g>
<!-- Node151 -->
<g id="node2" class="node">
<title>Node151</title>
<g id="a_node2"><a xlink:href="vfs_2module_2avr_2progmem_8h.html#aa87e2c298b856cf12a5db65f0a27432d" target="_top" xlink:title="zrtos_vfs_module_avr\l_progmem__on_read">
<polygon fill="#ffffff" stroke="#000000" points="160,-.5 160,-30.5 273,-30.5 273,-.5 160,-.5"/>
<text text-anchor="start" x="168" y="-18.5" font-family="Helvetica,sans-Serif" font-size="10.00" fill="#000000">zrtos_vfs_module_avr</text>
<text text-anchor="middle" x="216.5" y="-7.5" font-family="Helvetica,sans-Serif" font-size="10.00" fill="#000000">_progmem__on_read</text>
</a>
</g>
</g>
<!-- Node150&#45;&gt;Node151 -->
<g id="edge1" class="edge">
<title>Node150&#45;&gt;Node151</title>
<path fill="none" stroke="#191970" d="M134.6549,-15.5C143.118,-15.5 151.6549,-15.5 159.8575,-15.5"/>
<polygon fill="#191970" stroke="#191970" points="134.3958,-12.0001 124.3957,-15.5 134.3957,-19.0001 134.3958,-12.0001"/>
</g>
</g>
</svg>
