<?xml version="1.0" encoding="UTF-8" standalone="no"?>
<!DOCTYPE svg PUBLIC "-//W3C//DTD SVG 1.1//EN"
 "http://www.w3.org/Graphics/SVG/1.1/DTD/svg11.dtd">
<!-- Generated by graphviz version 2.40.1 (20161225.0304)
 -->
<!-- Title: zrtos_types__ptr_subtract Pages: 1 -->
<svg width="1326pt" height="251pt"
 viewBox="0.00 0.00 1326.00 250.50" xmlns="http://www.w3.org/2000/svg" xmlns:xlink="http://www.w3.org/1999/xlink">
<g id="graph0" class="graph" transform="scale(1 1) rotate(0) translate(4 246.5)">
<title>zrtos_types__ptr_subtract</title>
<polygon fill="#ffffff" stroke="transparent" points="-4,4 -4,-246.5 1322,-246.5 1322,4 -4,4"/>
<!-- Node125 -->
<g id="node1" class="node">
<title>Node125</title>
<polygon fill="#bfbfbf" stroke="#000000" points="0,-124.5 0,-143.5 130,-143.5 130,-124.5 0,-124.5"/>
<text text-anchor="middle" x="65" y="-131.5" font-family="Helvetica,sans-Serif" font-size="10.00" fill="#000000">zrtos_types__ptr_subtract</text>
</g>
<!-- Node126 -->
<g id="node2" class="node">
<title>Node126</title>
<g id="a_node2"><a xlink:href="task__pthread_8h.html#ace168cf0d23cd4b085a2da31b881c750" target="_top" xlink:title="zrtos_task_pthread\l__trampoline_cb">
<polygon fill="#ffffff" stroke="#000000" points="189,-212 189,-242 289,-242 289,-212 189,-212"/>
<text text-anchor="start" x="197" y="-230" font-family="Helvetica,sans-Serif" font-size="10.00" fill="#000000">zrtos_task_pthread</text>
<text text-anchor="middle" x="239" y="-219" font-family="Helvetica,sans-Serif" font-size="10.00" fill="#000000">__trampoline_cb</text>
</a>
</g>
</g>
<!-- Node125&#45;&gt;Node126 -->
<g id="edge1" class="edge">
<title>Node125&#45;&gt;Node126</title>
<path fill="none" stroke="#191970" d="M84.6429,-149.9083C104.2768,-165.1911 135.8097,-188.0991 166,-203 173.1779,-206.5428 181.0012,-209.7432 188.773,-212.5672"/>
<polygon fill="#191970" stroke="#191970" points="86.768,-147.1268 76.7511,-143.6752 82.4293,-152.62 86.768,-147.1268"/>
</g>
<!-- Node128 -->
<g id="node4" class="node">
<title>Node128</title>
<g id="a_node4"><a xlink:href="types_8h.html#adceb6a2ba8243aab5d92233fe7bb9778" target="_top" xlink:title="zrtos_types__ptr_is\l_valid_address_range">
<polygon fill="#ffffff" stroke="#000000" points="183.5,-163 183.5,-193 294.5,-193 294.5,-163 183.5,-163"/>
<text text-anchor="start" x="191.5" y="-181" font-family="Helvetica,sans-Serif" font-size="10.00" fill="#000000">zrtos_types__ptr_is</text>
<text text-anchor="middle" x="239" y="-170" font-family="Helvetica,sans-Serif" font-size="10.00" fill="#000000">_valid_address_range</text>
</a>
</g>
</g>
<!-- Node125&#45;&gt;Node128 -->
<g id="edge3" class="edge">
<title>Node125&#45;&gt;Node128</title>
<path fill="none" stroke="#191970" d="M112.5077,-146.0134C134.4439,-151.5605 160.632,-158.1828 183.4744,-163.959"/>
<polygon fill="#191970" stroke="#191970" points="113.3083,-142.6058 102.7554,-143.5473 111.5922,-149.3922 113.3083,-142.6058"/>
</g>
<!-- Node132 -->
<g id="node8" class="node">
<title>Node132</title>
<g id="a_node8"><a xlink:href="vheap__task__pthread_8h.html#a091adcef6201bebbf231763328c15286" target="_top" xlink:title="pthread_create">
<polygon fill="#ffffff" stroke="#000000" points="198.5,-124.5 198.5,-143.5 279.5,-143.5 279.5,-124.5 198.5,-124.5"/>
<text text-anchor="middle" x="239" y="-131.5" font-family="Helvetica,sans-Serif" font-size="10.00" fill="#000000">pthread_create</text>
</a>
</g>
</g>
<!-- Node125&#45;&gt;Node132 -->
<g id="edge8" class="edge">
<title>Node125&#45;&gt;Node132</title>
<path fill="none" stroke="#191970" d="M140.3088,-134C160.2653,-134 181.0577,-134 198.3823,-134"/>
<polygon fill="#191970" stroke="#191970" points="140.2863,-130.5001 130.2862,-134 140.2862,-137.5001 140.2863,-130.5001"/>
</g>
<!-- Node133 -->
<g id="node9" class="node">
<title>Node133</title>
<g id="a_node9"><a xlink:href="vheap__task__pthread_8h.html#a28a15bba47cab57cbc9f5dac9af99c8b" target="_top" xlink:title="pthread_join">
<polygon fill="#ffffff" stroke="#000000" points="1249,-58.5 1249,-77.5 1318,-77.5 1318,-58.5 1249,-58.5"/>
<text text-anchor="middle" x="1283.5" y="-65.5" font-family="Helvetica,sans-Serif" font-size="10.00" fill="#000000">pthread_join</text>
</a>
</g>
</g>
<!-- Node125&#45;&gt;Node133 -->
<g id="edge9" class="edge">
<title>Node125&#45;&gt;Node133</title>
<path fill="none" stroke="#191970" d="M84.1671,-118.1827C103.6595,-102.8253 135.2851,-79.8593 166,-66 271.9236,-18.2048 302.7924,0 419,0 419,0 419,0 963,0 1075.6682,0 1104.1152,-13.048 1213,-42 1229.3895,-46.3579 1247.3135,-52.9945 1260.9871,-58.4718"/>
<polygon fill="#191970" stroke="#191970" points="81.9664,-115.4611 76.3529,-124.4466 86.3446,-120.9229 81.9664,-115.4611"/>
</g>
<!-- Node134 -->
<g id="node10" class="node">
<title>Node134</title>
<g id="a_node10"><a xlink:href="vheap__task__scheduler_8h.html#a5bfb3d2b504f0179293fe98c19fbcb57" target="_top" xlink:title="_zrtos_vheap_task_scheduler\l__get_active_task">
<polygon fill="#ffffff" stroke="#000000" points="166,-75 166,-105 312,-105 312,-75 166,-75"/>
<text text-anchor="start" x="174" y="-93" font-family="Helvetica,sans-Serif" font-size="10.00" fill="#000000">_zrtos_vheap_task_scheduler</text>
<text text-anchor="middle" x="239" y="-82" font-family="Helvetica,sans-Serif" font-size="10.00" fill="#000000">__get_active_task</text>
</a>
</g>
</g>
<!-- Node125&#45;&gt;Node134 -->
<g id="edge10" class="edge">
<title>Node125&#45;&gt;Node134</title>
<path fill="none" stroke="#191970" d="M112.5579,-121.9739C133.1972,-116.7547 157.5933,-110.5856 179.4233,-105.0654"/>
<polygon fill="#191970" stroke="#191970" points="111.5922,-118.6078 102.7554,-124.4527 113.3083,-125.3942 111.5922,-118.6078"/>
</g>
<!-- Node127 -->
<g id="node3" class="node">
<title>Node127</title>
<g id="a_node3"><a xlink:href="task__pthread_8h.html#a091adcef6201bebbf231763328c15286" target="_top" xlink:title="pthread_create">
<polygon fill="#ffffff" stroke="#000000" points="378.5,-217.5 378.5,-236.5 459.5,-236.5 459.5,-217.5 378.5,-217.5"/>
<text text-anchor="middle" x="419" y="-224.5" font-family="Helvetica,sans-Serif" font-size="10.00" fill="#000000">pthread_create</text>
</a>
</g>
</g>
<!-- Node126&#45;&gt;Node127 -->
<g id="edge2" class="edge">
<title>Node126&#45;&gt;Node127</title>
<path fill="none" stroke="#191970" d="M299.258,-227C325.2185,-227 354.8987,-227 378.215,-227"/>
<polygon fill="#191970" stroke="#191970" points="299.1401,-223.5001 289.14,-227 299.14,-230.5001 299.1401,-223.5001"/>
</g>
<!-- Node129 -->
<g id="node5" class="node">
<title>Node129</title>
<g id="a_node5"><a xlink:href="sram_8h.html#ae81a59adc54eb479f21bf266c427b309" target="_top" xlink:title="zrtos_vfs_module_sram__rw">
<polygon fill="#ffffff" stroke="#000000" points="348,-168.5 348,-187.5 490,-187.5 490,-168.5 348,-168.5"/>
<text text-anchor="middle" x="419" y="-175.5" font-family="Helvetica,sans-Serif" font-size="10.00" fill="#000000">zrtos_vfs_module_sram__rw</text>
</a>
</g>
</g>
<!-- Node128&#45;&gt;Node129 -->
<g id="edge4" class="edge">
<title>Node128&#45;&gt;Node129</title>
<path fill="none" stroke="#191970" d="M305.3581,-178C319.1824,-178 333.8077,-178 347.7987,-178"/>
<polygon fill="#191970" stroke="#191970" points="304.9665,-174.5001 294.9664,-178 304.9664,-181.5001 304.9665,-174.5001"/>
</g>
<!-- Node130 -->
<g id="node6" class="node">
<title>Node130</title>
<g id="a_node6"><a xlink:href="sram_8h.html#ab0d0a1a04578c8af262001c024ae57e5" target="_top" xlink:title="zrtos_vfs_module_sram\l__on_read">
<polygon fill="#ffffff" stroke="#000000" points="538.5,-206 538.5,-236 659.5,-236 659.5,-206 538.5,-206"/>
<text text-anchor="start" x="546.5" y="-224" font-family="Helvetica,sans-Serif" font-size="10.00" fill="#000000">zrtos_vfs_module_sram</text>
<text text-anchor="middle" x="599" y="-213" font-family="Helvetica,sans-Serif" font-size="10.00" fill="#000000">__on_read</text>
</a>
</g>
</g>
<!-- Node129&#45;&gt;Node130 -->
<g id="edge5" class="edge">
<title>Node129&#45;&gt;Node130</title>
<path fill="none" stroke="#191970" d="M468.848,-189.9081C490.3498,-195.0447 515.6975,-201.1 538.2837,-206.4956"/>
<polygon fill="#191970" stroke="#191970" points="469.4874,-186.4625 458.9478,-187.5431 467.8609,-193.2709 469.4874,-186.4625"/>
</g>
<!-- Node131 -->
<g id="node7" class="node">
<title>Node131</title>
<g id="a_node7"><a xlink:href="sram_8h.html#ab1fc9892618f21a25027bc7ac993dfe7" target="_top" xlink:title="zrtos_vfs_module_sram\l__on_write">
<polygon fill="#ffffff" stroke="#000000" points="720.5,-186 720.5,-216 841.5,-216 841.5,-186 720.5,-186"/>
<text text-anchor="start" x="728.5" y="-204" font-family="Helvetica,sans-Serif" font-size="10.00" fill="#000000">zrtos_vfs_module_sram</text>
<text text-anchor="middle" x="781" y="-193" font-family="Helvetica,sans-Serif" font-size="10.00" fill="#000000">__on_write</text>
</a>
</g>
</g>
<!-- Node129&#45;&gt;Node131 -->
<g id="edge7" class="edge">
<title>Node129&#45;&gt;Node131</title>
<path fill="none" stroke="#191970" d="M500.1446,-183.1556C566.8521,-187.3939 659.8978,-193.3057 720.293,-197.1429"/>
<polygon fill="#191970" stroke="#191970" points="500.2895,-179.6578 490.0876,-182.5166 499.8455,-186.6437 500.2895,-179.6578"/>
</g>
<!-- Node130&#45;&gt;Node131 -->
<g id="edge6" class="edge">
<title>Node130&#45;&gt;Node131</title>
<path fill="none" stroke="#191970" d="M669.8465,-213.2147C686.5294,-211.3814 704.1638,-209.4435 720.3512,-207.6647"/>
<polygon fill="#191970" stroke="#191970" points="669.1612,-209.7688 659.6034,-214.3403 669.9259,-216.7269 669.1612,-209.7688"/>
</g>
<!-- Node135 -->
<g id="node11" class="node">
<title>Node135</title>
<g id="a_node11"><a xlink:href="vheap__task__scheduler_8h.html#aff9fd65d1ee753d63d6749a7d18ccb05" target="_top" xlink:title="zrtos_vheap_task_scheduler\l__page_task_out">
<polygon fill="#ffffff" stroke="#000000" points="348.5,-78 348.5,-108 489.5,-108 489.5,-78 348.5,-78"/>
<text text-anchor="start" x="356.5" y="-96" font-family="Helvetica,sans-Serif" font-size="10.00" fill="#000000">zrtos_vheap_task_scheduler</text>
<text text-anchor="middle" x="419" y="-85" font-family="Helvetica,sans-Serif" font-size="10.00" fill="#000000">__page_task_out</text>
</a>
</g>
</g>
<!-- Node134&#45;&gt;Node135 -->
<g id="edge11" class="edge">
<title>Node134&#45;&gt;Node135</title>
<path fill="none" stroke="#191970" d="M322.3919,-91.3899C331.1122,-91.5352 339.9158,-91.6819 348.4727,-91.8245"/>
<polygon fill="#191970" stroke="#191970" points="322.2699,-87.8874 312.2129,-91.2202 322.1531,-94.8865 322.2699,-87.8874"/>
</g>
<!-- Node139 -->
<g id="node15" class="node">
<title>Node139</title>
<g id="a_node15"><a xlink:href="vheap__task__scheduler_8h.html#a51ae476e29565ebfde1ec3340150ca06" target="_top" xlink:title="zrtos_vheap_task_scheduler\l__delay_ms">
<polygon fill="#ffffff" stroke="#000000" points="1072,-100 1072,-130 1213,-130 1213,-100 1072,-100"/>
<text text-anchor="start" x="1080" y="-118" font-family="Helvetica,sans-Serif" font-size="10.00" fill="#000000">zrtos_vheap_task_scheduler</text>
<text text-anchor="middle" x="1142.5" y="-107" font-family="Helvetica,sans-Serif" font-size="10.00" fill="#000000">__delay_ms</text>
</a>
</g>
</g>
<!-- Node134&#45;&gt;Node139 -->
<g id="edge21" class="edge">
<title>Node134&#45;&gt;Node139</title>
<path fill="none" stroke="#191970" d="M299.9228,-107.6629C315.4841,-111.6174 332.2655,-115.4043 348,-118 458.3827,-136.21 487.1253,-137 599,-137 599,-137 599,-137 781,-137 882.2312,-137 999.1141,-128.2985 1071.9226,-121.8403"/>
<polygon fill="#191970" stroke="#191970" points="300.4556,-104.1849 289.8962,-105.0508 298.6908,-110.9588 300.4556,-104.1849"/>
</g>
<!-- Node141 -->
<g id="node17" class="node">
<title>Node141</title>
<g id="a_node17"><a xlink:href="vheap__task__scheduler_8h.html#ac3ceec0a4016b00c1670ddce858c6bac" target="_top" xlink:title="zrtos_vheap_task_scheduler\l__page_task_in">
<polygon fill="#ffffff" stroke="#000000" points="348.5,-29 348.5,-59 489.5,-59 489.5,-29 348.5,-29"/>
<text text-anchor="start" x="356.5" y="-47" font-family="Helvetica,sans-Serif" font-size="10.00" fill="#000000">zrtos_vheap_task_scheduler</text>
<text text-anchor="middle" x="419" y="-36" font-family="Helvetica,sans-Serif" font-size="10.00" fill="#000000">__page_task_in</text>
</a>
</g>
</g>
<!-- Node134&#45;&gt;Node141 -->
<g id="edge18" class="edge">
<title>Node134&#45;&gt;Node141</title>
<path fill="none" stroke="#191970" d="M307.9468,-72.3803C325.1943,-67.9726 343.5346,-63.2856 360.2364,-59.0174"/>
<polygon fill="#191970" stroke="#191970" points="306.7607,-69.0708 297.9387,-74.9379 308.494,-75.8528 306.7607,-69.0708"/>
</g>
<!-- Node136 -->
<g id="node12" class="node">
<title>Node136</title>
<g id="a_node12"><a xlink:href="vheap__task__scheduler_8h.html#af69e917ca8bd27891eb335dda8289faf" target="_top" xlink:title="_zrtos_vheap_task_scheduler\l__set_active_task">
<polygon fill="#ffffff" stroke="#000000" points="526,-78 526,-108 672,-108 672,-78 526,-78"/>
<text text-anchor="start" x="534" y="-96" font-family="Helvetica,sans-Serif" font-size="10.00" fill="#000000">_zrtos_vheap_task_scheduler</text>
<text text-anchor="middle" x="599" y="-85" font-family="Helvetica,sans-Serif" font-size="10.00" fill="#000000">__set_active_task</text>
</a>
</g>
</g>
<!-- Node135&#45;&gt;Node136 -->
<g id="edge12" class="edge">
<title>Node135&#45;&gt;Node136</title>
<path fill="none" stroke="#191970" d="M499.7727,-93C508.4802,-93 517.3041,-93 525.9138,-93"/>
<polygon fill="#191970" stroke="#191970" points="499.6242,-89.5001 489.6241,-93 499.6241,-96.5001 499.6242,-89.5001"/>
</g>
<!-- Node137 -->
<g id="node13" class="node">
<title>Node137</title>
<g id="a_node13"><a xlink:href="vheap__task__scheduler_8h.html#a1a1be02692a671c368f4e2335179a042" target="_top" xlink:title="_zrtos_vheap_task_scheduler\l__switch_task">
<polygon fill="#ffffff" stroke="#000000" points="708,-78 708,-108 854,-108 854,-78 708,-78"/>
<text text-anchor="start" x="716" y="-96" font-family="Helvetica,sans-Serif" font-size="10.00" fill="#000000">_zrtos_vheap_task_scheduler</text>
<text text-anchor="middle" x="781" y="-85" font-family="Helvetica,sans-Serif" font-size="10.00" fill="#000000">__switch_task</text>
</a>
</g>
</g>
<!-- Node136&#45;&gt;Node137 -->
<g id="edge13" class="edge">
<title>Node136&#45;&gt;Node137</title>
<path fill="none" stroke="#191970" d="M682.516,-93C690.9925,-93 699.5562,-93 707.9103,-93"/>
<polygon fill="#191970" stroke="#191970" points="682.2397,-89.5001 672.2397,-93 682.2396,-96.5001 682.2397,-89.5001"/>
</g>
<!-- Node138 -->
<g id="node14" class="node">
<title>Node138</title>
<g id="a_node14"><a xlink:href="vheap__task__scheduler_8h.html#acd810187c2b0b8d63548170c9da4b73d" target="_top" xlink:title="_zrtos_vheap_task_scheduler\l__on_tick">
<polygon fill="#ffffff" stroke="#000000" points="890,-78 890,-108 1036,-108 1036,-78 890,-78"/>
<text text-anchor="start" x="898" y="-96" font-family="Helvetica,sans-Serif" font-size="10.00" fill="#000000">_zrtos_vheap_task_scheduler</text>
<text text-anchor="middle" x="963" y="-85" font-family="Helvetica,sans-Serif" font-size="10.00" fill="#000000">__on_tick</text>
</a>
</g>
</g>
<!-- Node137&#45;&gt;Node138 -->
<g id="edge14" class="edge">
<title>Node137&#45;&gt;Node138</title>
<path fill="none" stroke="#191970" d="M864.516,-93C872.9925,-93 881.5562,-93 889.9103,-93"/>
<polygon fill="#191970" stroke="#191970" points="864.2397,-89.5001 854.2397,-93 864.2396,-96.5001 864.2397,-89.5001"/>
</g>
<!-- Node138&#45;&gt;Node139 -->
<g id="edge15" class="edge">
<title>Node138&#45;&gt;Node139</title>
<path fill="none" stroke="#191970" d="M1046.0772,-103.1822C1054.7021,-104.2393 1063.4097,-105.3065 1071.8789,-106.3445"/>
<polygon fill="#191970" stroke="#191970" points="1046.3611,-99.6908 1036.0095,-101.9482 1045.5094,-106.6389 1046.3611,-99.6908"/>
</g>
<!-- Node140 -->
<g id="node16" class="node">
<title>Node140</title>
<g id="a_node16"><a xlink:href="vheap__task__scheduler_8h.html#a3734a190668294fe1e91009e3cf6f72a" target="_top" xlink:title="zrtos_vheap_task_scheduler\l__trampoline_cb">
<polygon fill="#ffffff" stroke="#000000" points="1072,-51 1072,-81 1213,-81 1213,-51 1072,-51"/>
<text text-anchor="start" x="1080" y="-69" font-family="Helvetica,sans-Serif" font-size="10.00" fill="#000000">zrtos_vheap_task_scheduler</text>
<text text-anchor="middle" x="1142.5" y="-58" font-family="Helvetica,sans-Serif" font-size="10.00" fill="#000000">__trampoline_cb</text>
</a>
</g>
</g>
<!-- Node138&#45;&gt;Node140 -->
<g id="edge17" class="edge">
<title>Node138&#45;&gt;Node140</title>
<path fill="none" stroke="#191970" d="M1046.0772,-80.5037C1054.7021,-79.2064 1063.4097,-77.8966 1071.8789,-76.6227"/>
<polygon fill="#191970" stroke="#191970" points="1045.3776,-77.0695 1036.0095,-82.0181 1046.4189,-83.9916 1045.3776,-77.0695"/>
</g>
<!-- Node139&#45;&gt;Node133 -->
<g id="edge16" class="edge">
<title>Node139&#45;&gt;Node133</title>
<path fill="none" stroke="#191970" d="M1197.017,-96.8277C1216.7494,-90.2502 1238.245,-83.085 1254.8697,-77.5434"/>
<polygon fill="#191970" stroke="#191970" points="1195.881,-93.5169 1187.501,-99.9997 1198.0946,-100.1577 1195.881,-93.5169"/>
</g>
<!-- Node141&#45;&gt;Node136 -->
<g id="edge19" class="edge">
<title>Node141&#45;&gt;Node136</title>
<path fill="none" stroke="#191970" d="M484.1985,-61.7485C503.7069,-67.0591 524.9016,-72.8288 543.7085,-77.9484"/>
<polygon fill="#191970" stroke="#191970" points="485.0429,-58.351 474.4747,-59.1014 483.2042,-65.1053 485.0429,-58.351"/>
</g>
<!-- Node142 -->
<g id="node18" class="node">
<title>Node142</title>
<g id="a_node18"><a xlink:href="vheap__task__scheduler_8h.html#add5545a77a9d66f232fa03da168ca02f" target="_top" xlink:title="zrtos_vheap_task_scheduler\l__start">
<polygon fill="#ffffff" stroke="#000000" points="528.5,-29 528.5,-59 669.5,-59 669.5,-29 528.5,-29"/>
<text text-anchor="start" x="536.5" y="-47" font-family="Helvetica,sans-Serif" font-size="10.00" fill="#000000">zrtos_vheap_task_scheduler</text>
<text text-anchor="middle" x="599" y="-36" font-family="Helvetica,sans-Serif" font-size="10.00" fill="#000000">__start</text>
</a>
</g>
</g>
<!-- Node141&#45;&gt;Node142 -->
<g id="edge20" class="edge">
<title>Node141&#45;&gt;Node142</title>
<path fill="none" stroke="#191970" d="M499.8431,-44C509.3288,-44 518.9516,-44 528.2841,-44"/>
<polygon fill="#191970" stroke="#191970" points="499.6242,-40.5001 489.6241,-44 499.6241,-47.5001 499.6242,-40.5001"/>
</g>
</g>
</svg>
