<?xml version="1.0" encoding="UTF-8" standalone="no"?>
<!DOCTYPE svg PUBLIC "-//W3C//DTD SVG 1.1//EN"
 "http://www.w3.org/Graphics/SVG/1.1/DTD/svg11.dtd">
<!-- Generated by graphviz version 10.0.1 (20240210.2158)
 -->
<!-- Title: zrtos_types__ptr_get_byte_distance Pages: 1 -->
<svg width="1265pt" height="762pt"
 viewBox="0.00 0.00 1264.75 762.39" xmlns="http://www.w3.org/2000/svg" xmlns:xlink="http://www.w3.org/1999/xlink">
<g id="graph0" class="graph" transform="scale(1 1) rotate(0) translate(4 758.39)">
<title>zrtos_types__ptr_get_byte_distance</title>
<!-- Node1 -->
<g id="Node000001" class="node">
<title>Node1</title>
<g id="a_Node000001"><a xlink:title=" ">
<polygon fill="#999999" stroke="#666666" points="1256.75,-429 1149.25,-429 1149.25,-397 1256.75,-397 1256.75,-429"/>
<text text-anchor="start" x="1157.25" y="-415.5" font-family="Helvetica,sans-Serif" font-size="10.00">zrtos_types__ptr_get</text>
<text text-anchor="middle" x="1203" y="-403.5" font-family="Helvetica,sans-Serif" font-size="10.00">_byte_distance</text>
</a>
</g>
</g>
<!-- Node2 -->
<g id="Node000002" class="node">
<title>Node2</title>
<g id="a_Node000002"><a xlink:href="vheap_8h.html#ad2723df7cc03e8a85b5886b8fd2c2b4e" target="_top" xlink:title=" ">
<polygon fill="white" stroke="#666666" points="1113.25,-646 995.25,-646 995.25,-614 1113.25,-614 1113.25,-646"/>
<text text-anchor="start" x="1003.25" y="-632.5" font-family="Helvetica,sans-Serif" font-size="10.00">_zrtos_vheap__get_free</text>
<text text-anchor="middle" x="1054.25" y="-620.5" font-family="Helvetica,sans-Serif" font-size="10.00">_space_ex</text>
</a>
</g>
</g>
<!-- Node1&#45;&gt;Node2 -->
<g id="edge1_Node000001_Node000002" class="edge">
<title>Node1&#45;&gt;Node2</title>
<g id="a_edge1_Node000001_Node000002"><a xlink:title=" ">
<path fill="none" stroke="#63b8ff" d="M1193.73,-439.81C1181.15,-477.25 1154.24,-545.79 1113.25,-592 1105.82,-600.38 1096.14,-607.68 1086.81,-613.59"/>
<polygon fill="#63b8ff" stroke="#63b8ff" points="1196.93,-441.28 1196.71,-430.69 1190.28,-439.11 1196.93,-441.28"/>
</a>
</g>
</g>
<!-- Node5 -->
<g id="Node000005" class="node">
<title>Node5</title>
<g id="a_Node000005"><a xlink:href="vheap__task__pthread_8h.html#a091adcef6201bebbf231763328c15286" target="_top" xlink:title=" ">
<polygon fill="white" stroke="#666666" points="572.12,-728 491.62,-728 491.62,-708 572.12,-708 572.12,-728"/>
<text text-anchor="middle" x="531.88" y="-714.5" font-family="Helvetica,sans-Serif" font-size="10.00">pthread_create</text>
</a>
</g>
</g>
<!-- Node1&#45;&gt;Node5 -->
<g id="edge12_Node000001_Node000005" class="edge">
<title>Node1&#45;&gt;Node5</title>
<g id="a_edge12_Node000001_Node000005"><a xlink:title=" ">
<path fill="none" stroke="#63b8ff" d="M1199.87,-440.45C1194.49,-490.48 1175.94,-596.74 1113.25,-655 959.94,-797.48 676.33,-751.09 572.39,-727.83"/>
<polygon fill="#63b8ff" stroke="#63b8ff" points="1203.33,-441.07 1200.8,-430.78 1196.36,-440.4 1203.33,-441.07"/>
</a>
</g>
</g>
<!-- Node13 -->
<g id="Node000013" class="node">
<title>Node13</title>
<g id="a_Node000013"><a xlink:href="cbuffer_8h.html#af79ee923f715f4f8d2ea27b725501174" target="_top" xlink:title=" ">
<polygon fill="white" stroke="#666666" points="1109.88,-442 998.62,-442 998.62,-422 1109.88,-422 1109.88,-442"/>
<text text-anchor="middle" x="1054.25" y="-428.5" font-family="Helvetica,sans-Serif" font-size="10.00">zrtos_cbuffer__get_ex</text>
</a>
</g>
</g>
<!-- Node1&#45;&gt;Node13 -->
<g id="edge13_Node000001_Node000013" class="edge">
<title>Node1&#45;&gt;Node13</title>
<g id="a_edge13_Node000001_Node000013"><a xlink:title=" ">
<path fill="none" stroke="#63b8ff" d="M1137.88,-421.3C1128.63,-422.5 1119.18,-423.72 1110.13,-424.89"/>
<polygon fill="#63b8ff" stroke="#63b8ff" points="1138.05,-424.81 1147.52,-420.05 1137.15,-417.87 1138.05,-424.81"/>
</a>
</g>
</g>
<!-- Node19 -->
<g id="Node000019" class="node">
<title>Node19</title>
<g id="a_Node000019"><a xlink:href="malloc_8h.html#a886b38a033247d17a6681a94b237aab7" target="_top" xlink:title=" ">
<polygon fill="white" stroke="#666666" points="1109.5,-404 999,-404 999,-384 1109.5,-384 1109.5,-404"/>
<text text-anchor="middle" x="1054.25" y="-390.5" font-family="Helvetica,sans-Serif" font-size="10.00">zrtos_malloc__malloc</text>
</a>
</g>
</g>
<!-- Node1&#45;&gt;Node19 -->
<g id="edge19_Node000001_Node000019" class="edge">
<title>Node1&#45;&gt;Node19</title>
<g id="a_edge19_Node000001_Node000019"><a xlink:title=" ">
<path fill="none" stroke="#63b8ff" d="M1137.73,-404.68C1128.36,-403.47 1118.78,-402.23 1109.63,-401.04"/>
<polygon fill="#63b8ff" stroke="#63b8ff" points="1137.15,-408.13 1147.52,-405.95 1138.05,-401.19 1137.15,-408.13"/>
</a>
</g>
</g>
<!-- Node21 -->
<g id="Node000021" class="node">
<title>Node21</title>
<g id="a_Node000021"><a xlink:href="mem_8h.html#a771efa36ca068866859a039d8782dad6" target="_top" xlink:title=" ">
<polygon fill="white" stroke="#666666" points="1111.75,-366 996.75,-366 996.75,-346 1111.75,-346 1111.75,-366"/>
<text text-anchor="middle" x="1054.25" y="-352.5" font-family="Helvetica,sans-Serif" font-size="10.00">zrtos_mem__from_hex</text>
</a>
</g>
</g>
<!-- Node1&#45;&gt;Node21 -->
<g id="edge21_Node000001_Node000021" class="edge">
<title>Node1&#45;&gt;Node21</title>
<g id="a_edge21_Node000001_Node000021"><a xlink:title=" ">
<path fill="none" stroke="#63b8ff" d="M1155.14,-392.03C1141.71,-386.26 1126.99,-380.18 1113.25,-375 1105.42,-372.05 1096.9,-369.11 1088.86,-366.45"/>
<polygon fill="#63b8ff" stroke="#63b8ff" points="1153.64,-395.19 1164.2,-395.95 1156.42,-388.76 1153.64,-395.19"/>
</a>
</g>
</g>
<!-- Node22 -->
<g id="Node000022" class="node">
<title>Node22</title>
<g id="a_Node000022"><a xlink:href="str_8h.html#a0bbbf024b181a2c7d5ec9056efb84743" target="_top" xlink:title=" ">
<polygon fill="white" stroke="#666666" points="1093,-269 1015.5,-269 1015.5,-249 1093,-249 1093,-269"/>
<text text-anchor="middle" x="1054.25" y="-255.5" font-family="Helvetica,sans-Serif" font-size="10.00">zrtos_str__len</text>
</a>
</g>
</g>
<!-- Node1&#45;&gt;Node22 -->
<g id="edge22_Node000001_Node000022" class="edge">
<title>Node1&#45;&gt;Node22</title>
<g id="a_edge22_Node000001_Node000022"><a xlink:title=" ">
<path fill="none" stroke="#63b8ff" d="M1178.58,-388.42C1145.95,-354.18 1088.23,-293.61 1065.17,-269.41"/>
<polygon fill="#63b8ff" stroke="#63b8ff" points="1175.82,-390.6 1185.25,-395.42 1180.89,-385.77 1175.82,-390.6"/>
</a>
</g>
</g>
<!-- Node30 -->
<g id="Node000030" class="node">
<title>Node30</title>
<g id="a_Node000030"><a xlink:href="str_8h.html#ac8c95d7c5e198a5fd0b41ffae7ecccb1" target="_top" xlink:title=" ">
<polygon fill="white" stroke="#666666" points="1101.25,-136 1007.25,-136 1007.25,-116 1101.25,-116 1101.25,-136"/>
<text text-anchor="middle" x="1054.25" y="-122.5" font-family="Helvetica,sans-Serif" font-size="10.00">zrtos_str__to_hex</text>
</a>
</g>
</g>
<!-- Node1&#45;&gt;Node30 -->
<g id="edge30_Node000001_Node000030" class="edge">
<title>Node1&#45;&gt;Node30</title>
<g id="a_edge30_Node000001_Node000030"><a xlink:title=" ">
<path fill="none" stroke="#63b8ff" d="M1200.75,-385.18C1196.82,-331.29 1180.56,-212.09 1113.25,-145 1109.8,-141.56 1105.71,-138.74 1101.34,-136.43"/>
<polygon fill="#63b8ff" stroke="#63b8ff" points="1197.25,-385.26 1201.37,-395.02 1204.23,-384.82 1197.25,-385.26"/>
</a>
</g>
</g>
<!-- Node31 -->
<g id="Node000031" class="node">
<title>Node31</title>
<g id="a_Node000031"><a xlink:href="str_8h.html#aee390913b90918b21b4a44f1e07d7189" target="_top" xlink:title=" ">
<polygon fill="white" stroke="#666666" points="1097.12,-174 1011.38,-174 1011.38,-154 1097.12,-154 1097.12,-174"/>
<text text-anchor="middle" x="1054.25" y="-160.5" font-family="Helvetica,sans-Serif" font-size="10.00">zrtos_str__ultoa</text>
</a>
</g>
</g>
<!-- Node1&#45;&gt;Node31 -->
<g id="edge31_Node000001_Node000031" class="edge">
<title>Node1&#45;&gt;Node31</title>
<g id="a_edge31_Node000001_Node000031"><a xlink:title=" ">
<path fill="none" stroke="#63b8ff" d="M1190.21,-386.5C1174.38,-351.85 1144.62,-289.72 1113.25,-240 1097.66,-215.3 1076.09,-188.64 1064.13,-174.39"/>
<polygon fill="#63b8ff" stroke="#63b8ff" points="1186.9,-387.69 1194.21,-395.36 1193.28,-384.8 1186.9,-387.69"/>
</a>
</g>
</g>
<!-- Node34 -->
<g id="Node000034" class="node">
<title>Node34</title>
<g id="a_Node000034"><a xlink:href="types_8h.html#adceb6a2ba8243aab5d92233fe7bb9778" target="_top" xlink:title=" ">
<polygon fill="white" stroke="#666666" points="1108.75,-82 999.75,-82 999.75,-50 1108.75,-50 1108.75,-82"/>
<text text-anchor="start" x="1007.75" y="-68.5" font-family="Helvetica,sans-Serif" font-size="10.00">zrtos_types__ptr_is</text>
<text text-anchor="middle" x="1054.25" y="-56.5" font-family="Helvetica,sans-Serif" font-size="10.00">_valid_address_range</text>
</a>
</g>
</g>
<!-- Node1&#45;&gt;Node34 -->
<g id="edge37_Node000001_Node000034" class="edge">
<title>Node1&#45;&gt;Node34</title>
<g id="a_edge37_Node000001_Node000034"><a xlink:title=" ">
<path fill="none" stroke="#63b8ff" d="M1200.07,-385.51C1194.86,-328.55 1176.33,-195.57 1113.25,-107 1106.24,-97.16 1096.1,-88.84 1086.25,-82.33"/>
<polygon fill="#63b8ff" stroke="#63b8ff" points="1196.56,-385.59 1200.89,-395.26 1203.54,-385.01 1196.56,-385.59"/>
</a>
</g>
</g>
<!-- Node38 -->
<g id="Node000038" class="node">
<title>Node38</title>
<g id="a_Node000038"><a xlink:href="vheap_8h.html#ad63813b8a0f34f7eef0cf65af8eb8289" target="_top" xlink:title=" ">
<polygon fill="white" stroke="#666666" points="1110.25,-583 998.25,-583 998.25,-563 1110.25,-563 1110.25,-583"/>
<text text-anchor="middle" x="1054.25" y="-569.5" font-family="Helvetica,sans-Serif" font-size="10.00">zrtos_vheap__page_in</text>
</a>
</g>
</g>
<!-- Node1&#45;&gt;Node38 -->
<g id="edge41_Node000001_Node000038" class="edge">
<title>Node1&#45;&gt;Node38</title>
<g id="a_edge41_Node000001_Node000038"><a xlink:title=" ">
<path fill="none" stroke="#63b8ff" d="M1187.3,-438.94C1171.42,-465.46 1144.18,-506.79 1113.25,-536 1102.05,-546.58 1087.41,-555.89 1075.64,-562.53"/>
<polygon fill="#63b8ff" stroke="#63b8ff" points="1190.2,-440.93 1192.25,-430.53 1184.16,-437.38 1190.2,-440.93"/>
</a>
</g>
</g>
<!-- Node42 -->
<g id="Node000042" class="node">
<title>Node42</title>
<g id="a_Node000042"><a xlink:href="vheap_8h.html#a7c64f185f189dd5e35dc36b22d1b0397" target="_top" xlink:title=" ">
<polygon fill="white" stroke="#666666" points="1113.25,-487 995.25,-487 995.25,-467 1113.25,-467 1113.25,-487"/>
<text text-anchor="middle" x="1054.25" y="-473.5" font-family="Helvetica,sans-Serif" font-size="10.00">zrtos_vheap__page_out</text>
</a>
</g>
</g>
<!-- Node1&#45;&gt;Node42 -->
<g id="edge46_Node000001_Node000042" class="edge">
<title>Node1&#45;&gt;Node42</title>
<g id="a_edge46_Node000001_Node000042"><a xlink:title=" ">
<path fill="none" stroke="#63b8ff" d="M1153.79,-434.02C1128.76,-444.94 1099.28,-457.8 1079.13,-466.59"/>
<polygon fill="#63b8ff" stroke="#63b8ff" points="1155.05,-437.29 1162.82,-430.09 1152.26,-430.88 1155.05,-437.29"/>
</a>
</g>
</g>
<!-- Node43 -->
<g id="Node000043" class="node">
<title>Node43</title>
<g id="a_Node000043"><a xlink:href="vheap__task__scheduler_8h.html#aff9fd65d1ee753d63d6749a7d18ccb05" target="_top" xlink:title=" ">
<polygon fill="white" stroke="#666666" points="959.25,-552 820.25,-552 820.25,-520 959.25,-520 959.25,-552"/>
<text text-anchor="start" x="828.25" y="-538.5" font-family="Helvetica,sans-Serif" font-size="10.00">zrtos_vheap_task_scheduler</text>
<text text-anchor="middle" x="889.75" y="-526.5" font-family="Helvetica,sans-Serif" font-size="10.00">__page_task_out</text>
</a>
</g>
</g>
<!-- Node1&#45;&gt;Node43 -->
<g id="edge49_Node000001_Node000043" class="edge">
<title>Node1&#45;&gt;Node43</title>
<g id="a_edge49_Node000001_Node000043"><a xlink:title=" ">
<path fill="none" stroke="#63b8ff" d="M1182.2,-438.12C1165.81,-457.1 1140.8,-482.18 1113.25,-496 1065.36,-520.02 1005.28,-529.8 959.63,-533.69"/>
<polygon fill="#63b8ff" stroke="#63b8ff" points="1184.83,-440.44 1188.56,-430.52 1179.46,-435.94 1184.83,-440.44"/>
</a>
</g>
</g>
<!-- Node3 -->
<g id="Node000003" class="node">
<title>Node3</title>
<g id="a_Node000003"><a xlink:href="vheap_8h.html#afaa17fa156a136951a309b102c38e71e" target="_top" xlink:title=" ">
<polygon fill="white" stroke="#666666" points="948.75,-690 830.75,-690 830.75,-658 948.75,-658 948.75,-690"/>
<text text-anchor="start" x="838.75" y="-676.5" font-family="Helvetica,sans-Serif" font-size="10.00">_zrtos_vheap__get_free</text>
<text text-anchor="middle" x="889.75" y="-664.5" font-family="Helvetica,sans-Serif" font-size="10.00">_space</text>
</a>
</g>
</g>
<!-- Node2&#45;&gt;Node3 -->
<g id="edge2_Node000002_Node000003" class="edge">
<title>Node2&#45;&gt;Node3</title>
<g id="a_edge2_Node000002_Node000003"><a xlink:title=" ">
<path fill="none" stroke="#63b8ff" d="M984.02,-648.74C972.39,-651.89 960.42,-655.14 949.1,-658.2"/>
<polygon fill="#63b8ff" stroke="#63b8ff" points="984.84,-652.15 993.58,-646.16 983.01,-645.39 984.84,-652.15"/>
</a>
</g>
</g>
<!-- Node7 -->
<g id="Node000007" class="node">
<title>Node7</title>
<g id="a_Node000007"><a xlink:href="vheap__task__scheduler_8h.html#a99d7655ba93c186077c9de6a6f310c43" target="_top" xlink:title=" ">
<polygon fill="white" stroke="#666666" points="782,-652 642.25,-652 642.25,-620 782,-620 782,-652"/>
<text text-anchor="start" x="650.25" y="-638.5" font-family="Helvetica,sans-Serif" font-size="10.00">zrtos_vheap_task_scheduler</text>
<text text-anchor="middle" x="712.12" y="-626.5" font-family="Helvetica,sans-Serif" font-size="10.00">__has_enough_stack_space</text>
</a>
</g>
</g>
<!-- Node2&#45;&gt;Node7 -->
<g id="edge6_Node000002_Node000007" class="edge">
<title>Node2&#45;&gt;Node7</title>
<g id="a_edge6_Node000002_Node000007"><a xlink:title=" ">
<path fill="none" stroke="#63b8ff" d="M983.36,-631.23C924.54,-632.27 840.87,-633.75 782.26,-634.78"/>
<polygon fill="#63b8ff" stroke="#63b8ff" points="983.33,-634.73 993.27,-631.06 983.21,-627.74 983.33,-634.73"/>
</a>
</g>
</g>
<!-- Node4 -->
<g id="Node000004" class="node">
<title>Node4</title>
<g id="a_Node000004"><a xlink:href="vheap_8h.html#a058a33f1fd97b68ef95cda5ceaff4e03" target="_top" xlink:title=" ">
<polygon fill="white" stroke="#666666" points="768.12,-690 656.12,-690 656.12,-670 768.12,-670 768.12,-690"/>
<text text-anchor="middle" x="712.12" y="-676.5" font-family="Helvetica,sans-Serif" font-size="10.00">_zrtos_vheap__malloc</text>
</a>
</g>
</g>
<!-- Node3&#45;&gt;Node4 -->
<g id="edge3_Node000003_Node000004" class="edge">
<title>Node3&#45;&gt;Node4</title>
<g id="a_edge3_Node000003_Node000004"><a xlink:title=" ">
<path fill="none" stroke="#63b8ff" d="M818.83,-676.39C802.06,-676.96 784.38,-677.57 768.38,-678.11"/>
<polygon fill="#63b8ff" stroke="#63b8ff" points="818.88,-679.89 828.76,-676.05 818.64,-672.89 818.88,-679.89"/>
</a>
</g>
</g>
<!-- Node4&#45;&gt;Node5 -->
<g id="edge4_Node000004_Node000005" class="edge">
<title>Node4&#45;&gt;Node5</title>
<g id="a_edge4_Node000004_Node000005"><a xlink:title=" ">
<path fill="none" stroke="#63b8ff" d="M650.76,-692.87C624.97,-698.37 595.58,-704.63 572.6,-709.53"/>
<polygon fill="#63b8ff" stroke="#63b8ff" points="651.41,-696.31 660.47,-690.8 649.96,-689.46 651.41,-696.31"/>
</a>
</g>
</g>
<!-- Node6 -->
<g id="Node000006" class="node">
<title>Node6</title>
<g id="a_Node000006"><a xlink:href="vheap_8h.html#a869860bdef21c42bb4afe71995ca995b" target="_top" xlink:title=" ">
<polygon fill="white" stroke="#666666" points="585.25,-690 478.5,-690 478.5,-670 585.25,-670 585.25,-690"/>
<text text-anchor="middle" x="531.88" y="-676.5" font-family="Helvetica,sans-Serif" font-size="10.00">zrtos_vheap__malloc</text>
</a>
</g>
</g>
<!-- Node4&#45;&gt;Node6 -->
<g id="edge5_Node000004_Node000006" class="edge">
<title>Node4&#45;&gt;Node6</title>
<g id="a_edge5_Node000004_Node000006"><a xlink:title=" ">
<path fill="none" stroke="#63b8ff" d="M644.45,-680C624.98,-680 603.99,-680 585.52,-680"/>
<polygon fill="#63b8ff" stroke="#63b8ff" points="644.19,-683.5 654.19,-680 644.19,-676.5 644.19,-683.5"/>
</a>
</g>
</g>
<!-- Node8 -->
<g id="Node000008" class="node">
<title>Node8</title>
<g id="a_Node000008"><a xlink:href="vheap__task__scheduler_8h.html#a1a1be02692a671c368f4e2335179a042" target="_top" xlink:title=" ">
<polygon fill="white" stroke="#666666" points="604,-602 459.75,-602 459.75,-570 604,-570 604,-602"/>
<text text-anchor="start" x="467.75" y="-588.5" font-family="Helvetica,sans-Serif" font-size="10.00">_zrtos_vheap_task_scheduler</text>
<text text-anchor="middle" x="531.88" y="-576.5" font-family="Helvetica,sans-Serif" font-size="10.00">__switch_task</text>
</a>
</g>
</g>
<!-- Node7&#45;&gt;Node8 -->
<g id="edge7_Node000007_Node000008" class="edge">
<title>Node7&#45;&gt;Node8</title>
<g id="a_edge7_Node000007_Node000008"><a xlink:title=" ">
<path fill="none" stroke="#63b8ff" d="M642,-616.61C625.38,-611.95 607.78,-607.01 591.68,-602.49"/>
<polygon fill="#63b8ff" stroke="#63b8ff" points="640.73,-619.89 651.3,-619.22 642.62,-613.15 640.73,-619.89"/>
</a>
</g>
</g>
<!-- Node9 -->
<g id="Node000009" class="node">
<title>Node9</title>
<g id="a_Node000009"><a xlink:href="vheap__task__scheduler_8h.html#acd810187c2b0b8d63548170c9da4b73d" target="_top" xlink:title=" ">
<polygon fill="white" stroke="#666666" points="423.75,-602 279.5,-602 279.5,-570 423.75,-570 423.75,-602"/>
<text text-anchor="start" x="287.5" y="-588.5" font-family="Helvetica,sans-Serif" font-size="10.00">_zrtos_vheap_task_scheduler</text>
<text text-anchor="middle" x="351.62" y="-576.5" font-family="Helvetica,sans-Serif" font-size="10.00">__on_tick</text>
</a>
</g>
</g>
<!-- Node8&#45;&gt;Node9 -->
<g id="edge8_Node000008_Node000009" class="edge">
<title>Node8&#45;&gt;Node9</title>
<g id="a_edge8_Node000008_Node000009"><a xlink:title=" ">
<path fill="none" stroke="#63b8ff" d="M448.13,-586C440.11,-586 432.02,-586 424.12,-586"/>
<polygon fill="#63b8ff" stroke="#63b8ff" points="447.89,-589.5 457.89,-586 447.89,-582.5 447.89,-589.5"/>
</a>
</g>
</g>
<!-- Node10 -->
<g id="Node000010" class="node">
<title>Node10</title>
<g id="a_Node000010"><a xlink:href="vheap__task__scheduler_8h.html#a51ae476e29565ebfde1ec3340150ca06" target="_top" xlink:title=" ">
<polygon fill="white" stroke="#666666" points="243.5,-627 104.5,-627 104.5,-595 243.5,-595 243.5,-627"/>
<text text-anchor="start" x="112.5" y="-613.5" font-family="Helvetica,sans-Serif" font-size="10.00">zrtos_vheap_task_scheduler</text>
<text text-anchor="middle" x="174" y="-601.5" font-family="Helvetica,sans-Serif" font-size="10.00">__delay_ms</text>
</a>
</g>
</g>
<!-- Node9&#45;&gt;Node10 -->
<g id="edge9_Node000009_Node000010" class="edge">
<title>Node9&#45;&gt;Node10</title>
<g id="a_edge9_Node000009_Node000010"><a xlink:title=" ">
<path fill="none" stroke="#63b8ff" d="M267.87,-597.78C259.82,-598.93 251.71,-600.08 243.81,-601.2"/>
<polygon fill="#63b8ff" stroke="#63b8ff" points="268.29,-601.26 277.69,-596.38 267.3,-594.33 268.29,-601.26"/>
</a>
</g>
</g>
<!-- Node12 -->
<g id="Node000012" class="node">
<title>Node12</title>
<g id="a_Node000012"><a xlink:href="vheap__task__scheduler_8h.html#a3734a190668294fe1e91009e3cf6f72a" target="_top" xlink:title=" ">
<polygon fill="white" stroke="#666666" points="243.5,-577 104.5,-577 104.5,-545 243.5,-545 243.5,-577"/>
<text text-anchor="start" x="112.5" y="-563.5" font-family="Helvetica,sans-Serif" font-size="10.00">zrtos_vheap_task_scheduler</text>
<text text-anchor="middle" x="174" y="-551.5" font-family="Helvetica,sans-Serif" font-size="10.00">__trampoline_cb</text>
</a>
</g>
</g>
<!-- Node9&#45;&gt;Node12 -->
<g id="edge11_Node000009_Node000012" class="edge">
<title>Node9&#45;&gt;Node12</title>
<g id="a_edge11_Node000009_Node000012"><a xlink:title=" ">
<path fill="none" stroke="#63b8ff" d="M267.87,-574.22C259.82,-573.07 251.71,-571.92 243.81,-570.8"/>
<polygon fill="#63b8ff" stroke="#63b8ff" points="267.3,-577.67 277.69,-575.62 268.29,-570.74 267.3,-577.67"/>
</a>
</g>
</g>
<!-- Node11 -->
<g id="Node000011" class="node">
<title>Node11</title>
<g id="a_Node000011"><a xlink:href="vheap__task__pthread_8h.html#a28a15bba47cab57cbc9f5dac9af99c8b" target="_top" xlink:title=" ">
<polygon fill="white" stroke="#666666" points="68.5,-621 0,-621 0,-601 68.5,-601 68.5,-621"/>
<text text-anchor="middle" x="34.25" y="-607.5" font-family="Helvetica,sans-Serif" font-size="10.00">pthread_join</text>
</a>
</g>
</g>
<!-- Node10&#45;&gt;Node11 -->
<g id="edge10_Node000010_Node000011" class="edge">
<title>Node10&#45;&gt;Node11</title>
<g id="a_edge10_Node000010_Node000011"><a xlink:title=" ">
<path fill="none" stroke="#63b8ff" d="M92.7,-611C84.38,-611 76.3,-611 68.95,-611"/>
<polygon fill="#63b8ff" stroke="#63b8ff" points="92.61,-614.5 102.61,-611 92.61,-607.5 92.61,-614.5"/>
</a>
</g>
</g>
<!-- Node14 -->
<g id="Node000014" class="node">
<title>Node14</title>
<g id="a_Node000014"><a xlink:href="spi_2spi_8h.html#a3f4d02ed7068606c0f62cfefd0ac3fb6" target="_top" xlink:title=" ">
<polygon fill="white" stroke="#666666" points="904.15,-502 875.35,-502 875.35,-482 904.15,-482 904.15,-502"/>
<text text-anchor="middle" x="889.75" y="-488.5" font-family="Helvetica,sans-Serif" font-size="10.00">if</text>
</a>
</g>
</g>
<!-- Node13&#45;&gt;Node14 -->
<g id="edge14_Node000013_Node000014" class="edge">
<title>Node13&#45;&gt;Node14</title>
<g id="a_edge14_Node000013_Node000014"><a xlink:title=" ">
<path fill="none" stroke="#63b8ff" d="M1019.66,-446.92C995.23,-457.74 965.39,-470.82 959.25,-473 940.64,-479.6 918.53,-485.37 904.57,-488.77"/>
<polygon fill="#63b8ff" stroke="#63b8ff" points="1020.95,-450.18 1028.68,-442.93 1018.12,-443.78 1020.95,-450.18"/>
</a>
</g>
</g>
<!-- Node15 -->
<g id="Node000015" class="node">
<title>Node15</title>
<g id="a_Node000015"><a xlink:href="msg__queue_8h.html#aa70867560ae58b87682c996ceccee62a" target="_top" xlink:title=" ">
<polygon fill="white" stroke="#666666" points="948.38,-464 831.12,-464 831.12,-444 948.38,-444 948.38,-464"/>
<text text-anchor="middle" x="889.75" y="-450.5" font-family="Helvetica,sans-Serif" font-size="10.00">zrtos_msg_queue__get</text>
</a>
</g>
</g>
<!-- Node13&#45;&gt;Node15 -->
<g id="edge15_Node000013_Node000015" class="edge">
<title>Node13&#45;&gt;Node15</title>
<g id="a_edge15_Node000013_Node000015"><a xlink:title=" ">
<path fill="none" stroke="#63b8ff" d="M987.21,-440.94C974.47,-442.67 961.22,-444.46 948.76,-446.15"/>
<polygon fill="#63b8ff" stroke="#63b8ff" points="987.3,-444.46 996.74,-439.65 986.36,-437.52 987.3,-444.46"/>
</a>
</g>
</g>
<!-- Node17 -->
<g id="Node000017" class="node">
<title>Node17</title>
<g id="a_Node000017"><a xlink:href="spi_2spi_8h.html#aa716f787c62ac9a980729df0fc9aa6e9" target="_top" xlink:title=" ">
<polygon fill="white" stroke="#666666" points="944.25,-426 835.25,-426 835.25,-394 944.25,-394 944.25,-426"/>
<text text-anchor="start" x="843.25" y="-412.5" font-family="Helvetica,sans-Serif" font-size="10.00">zrtos_vfs_module_spi</text>
<text text-anchor="middle" x="889.75" y="-400.5" font-family="Helvetica,sans-Serif" font-size="10.00">__on_read</text>
</a>
</g>
</g>
<!-- Node13&#45;&gt;Node17 -->
<g id="edge17_Node000013_Node000017" class="edge">
<title>Node13&#45;&gt;Node17</title>
<g id="a_edge17_Node000013_Node000017"><a xlink:title=" ">
<path fill="none" stroke="#63b8ff" d="M987.08,-423.04C972.95,-421.13 958.2,-419.13 944.61,-417.29"/>
<polygon fill="#63b8ff" stroke="#63b8ff" points="986.36,-426.48 996.74,-424.35 987.3,-419.54 986.36,-426.48"/>
</a>
</g>
</g>
<!-- Node18 -->
<g id="Node000018" class="node">
<title>Node18</title>
<g id="a_Node000018"><a xlink:href="uart_2uart_8h.html#a6a55bd7ce001957fedb1647045d64cf9" target="_top" xlink:title=" ">
<polygon fill="white" stroke="#666666" points="946.12,-376 833.38,-376 833.38,-344 946.12,-344 946.12,-376"/>
<text text-anchor="start" x="841.38" y="-362.5" font-family="Helvetica,sans-Serif" font-size="10.00">zrtos_vfs_module_uart</text>
<text text-anchor="middle" x="889.75" y="-350.5" font-family="Helvetica,sans-Serif" font-size="10.00">__on_read</text>
</a>
</g>
</g>
<!-- Node13&#45;&gt;Node18 -->
<g id="edge18_Node000013_Node000018" class="edge">
<title>Node13&#45;&gt;Node18</title>
<g id="a_edge18_Node000013_Node000018"><a xlink:title=" ">
<path fill="none" stroke="#63b8ff" d="M1004.61,-417.47C1001.39,-416.08 998.24,-414.59 995.25,-413 977.35,-403.48 976.98,-394.82 959.25,-385 953.6,-381.87 947.48,-379 941.31,-376.4"/>
<polygon fill="#63b8ff" stroke="#63b8ff" points="1003.03,-420.61 1013.62,-421.01 1005.59,-414.1 1003.03,-420.61"/>
</a>
</g>
</g>
<!-- Node16 -->
<g id="Node000016" class="node">
<title>Node16</title>
<g id="a_Node000016"><a xlink:href="rtu_8h.html#aea13c3756fb07d48853e039823a846b1" target="_top" xlink:title=" ">
<polygon fill="white" stroke="#666666" points="777.5,-470 646.75,-470 646.75,-438 777.5,-438 777.5,-470"/>
<text text-anchor="start" x="654.75" y="-456.5" font-family="Helvetica,sans-Serif" font-size="10.00">zrtos_vfs_module_modbus</text>
<text text-anchor="middle" x="712.12" y="-444.5" font-family="Helvetica,sans-Serif" font-size="10.00">_rtu__on_read</text>
</a>
</g>
</g>
<!-- Node15&#45;&gt;Node16 -->
<g id="edge16_Node000015_Node000016" class="edge">
<title>Node15&#45;&gt;Node16</title>
<g id="a_edge16_Node000015_Node000016"><a xlink:title=" ">
<path fill="none" stroke="#63b8ff" d="M819.4,-454C805.66,-454 791.3,-454 777.73,-454"/>
<polygon fill="#63b8ff" stroke="#63b8ff" points="819.24,-457.5 829.24,-454 819.24,-450.5 819.24,-457.5"/>
</a>
</g>
</g>
<!-- Node20 -->
<g id="Node000020" class="node">
<title>Node20</title>
<g id="a_Node000020"><a xlink:href="task__pthread_8h.html#a091adcef6201bebbf231763328c15286" target="_top" xlink:title=" ">
<polygon fill="white" stroke="#666666" points="930,-326 849.5,-326 849.5,-306 930,-306 930,-326"/>
<text text-anchor="middle" x="889.75" y="-312.5" font-family="Helvetica,sans-Serif" font-size="10.00">pthread_create</text>
</a>
</g>
</g>
<!-- Node19&#45;&gt;Node20 -->
<g id="edge20_Node000019_Node000020" class="edge">
<title>Node19&#45;&gt;Node20</title>
<g id="a_edge20_Node000019_Node000020"><a xlink:title=" ">
<path fill="none" stroke="#63b8ff" d="M1001.81,-378.82C999.54,-377.64 997.34,-376.36 995.25,-375 975.21,-361.95 979.59,-347.59 959.25,-335 950.54,-329.61 940.28,-325.72 930.38,-322.92"/>
<polygon fill="#63b8ff" stroke="#63b8ff" points="1000.15,-381.91 1010.7,-382.88 1003.05,-375.54 1000.15,-381.91"/>
</a>
</g>
</g>
<!-- Node23 -->
<g id="Node000023" class="node">
<title>Node23</title>
<g id="a_Node000023"><a xlink:href="str_8h.html#a7e9860a6921e03fd013bbb20bf4a88b3" target="_top" xlink:title=" ">
<polygon fill="white" stroke="#666666" points="931.5,-288 848,-288 848,-268 931.5,-268 931.5,-288"/>
<text text-anchor="middle" x="889.75" y="-274.5" font-family="Helvetica,sans-Serif" font-size="10.00">zrtos_str__cmp</text>
</a>
</g>
</g>
<!-- Node22&#45;&gt;Node23 -->
<g id="edge23_Node000022_Node000023" class="edge">
<title>Node22&#45;&gt;Node23</title>
<g id="a_edge23_Node000022_Node000023"><a xlink:title=" ">
<path fill="none" stroke="#63b8ff" d="M1003.85,-264.78C980.79,-267.47 953.65,-270.65 931.74,-273.21"/>
<polygon fill="#63b8ff" stroke="#63b8ff" points="1004.12,-268.27 1013.65,-263.63 1003.31,-261.32 1004.12,-268.27"/>
</a>
</g>
</g>
<!-- Node27 -->
<g id="Node000027" class="node">
<title>Node27</title>
<g id="a_Node000027"><a xlink:href="str_8h.html#a1d32a5a8a6bb91bef6370f6f5b03513f" target="_top" xlink:title=" ">
<polygon fill="white" stroke="#666666" points="937.5,-250 842,-250 842,-230 937.5,-230 937.5,-250"/>
<text text-anchor="middle" x="889.75" y="-236.5" font-family="Helvetica,sans-Serif" font-size="10.00">zrtos_str__reverse</text>
</a>
</g>
</g>
<!-- Node22&#45;&gt;Node27 -->
<g id="edge27_Node000022_Node000027" class="edge">
<title>Node22&#45;&gt;Node27</title>
<g id="a_edge27_Node000022_Node000027"><a xlink:title=" ">
<path fill="none" stroke="#63b8ff" d="M1003.9,-253.23C982.94,-250.78 958.62,-247.94 937.91,-245.51"/>
<polygon fill="#63b8ff" stroke="#63b8ff" points="1003.31,-256.68 1013.65,-254.37 1004.12,-249.73 1003.31,-256.68"/>
</a>
</g>
</g>
<!-- Node28 -->
<g id="Node000028" class="node">
<title>Node28</title>
<g id="a_Node000028"><a xlink:href="str_8h.html#a253e58778bc61b2ca7b51d761ea914b4" target="_top" xlink:title=" ">
<polygon fill="white" stroke="#666666" points="581.88,-180 481.88,-180 481.88,-148 581.88,-148 581.88,-180"/>
<text text-anchor="start" x="489.88" y="-166.5" font-family="Helvetica,sans-Serif" font-size="10.00">zrtos_str__vsnprintf</text>
<text text-anchor="middle" x="531.88" y="-154.5" font-family="Helvetica,sans-Serif" font-size="10.00">_internal</text>
</a>
</g>
</g>
<!-- Node22&#45;&gt;Node28 -->
<g id="edge28_Node000022_Node000028" class="edge">
<title>Node22&#45;&gt;Node28</title>
<g id="a_edge28_Node000022_Node000028"><a xlink:title=" ">
<path fill="none" stroke="#63b8ff" d="M1021.68,-243.92C1003.75,-235.95 980.67,-226.66 959.25,-221 954.7,-219.8 693.16,-185.17 582,-170.49"/>
<polygon fill="#63b8ff" stroke="#63b8ff" points="1020.19,-247.08 1030.74,-248.04 1023.09,-240.71 1020.19,-247.08"/>
</a>
</g>
</g>
<!-- Node24 -->
<g id="Node000024" class="node">
<title>Node24</title>
<g id="a_Node000024"><a xlink:href="vfs__dentry_8h.html#a4d808bbfc2c1dfabc22e3d6fa45412c1" target="_top" xlink:title=" ">
<polygon fill="white" stroke="#666666" points="771.12,-294 653.12,-294 653.12,-262 771.12,-262 771.12,-294"/>
<text text-anchor="start" x="661.12" y="-280.5" font-family="Helvetica,sans-Serif" font-size="10.00">zrtos_vfs_dentry__each</text>
<text text-anchor="middle" x="712.12" y="-268.5" font-family="Helvetica,sans-Serif" font-size="10.00">_child_filter_name_cb</text>
</a>
</g>
</g>
<!-- Node23&#45;&gt;Node24 -->
<g id="edge24_Node000023_Node000024" class="edge">
<title>Node23&#45;&gt;Node24</title>
<g id="a_edge24_Node000023_Node000024"><a xlink:title=" ">
<path fill="none" stroke="#63b8ff" d="M836.25,-278C815.8,-278 792.29,-278 771.33,-278"/>
<polygon fill="#63b8ff" stroke="#63b8ff" points="836.06,-281.5 846.06,-278 836.06,-274.5 836.06,-281.5"/>
</a>
</g>
</g>
<!-- Node25 -->
<g id="Node000025" class="node">
<title>Node25</title>
<g id="a_Node000025"><a xlink:href="vfs__dentry_8h.html#a25c3d8504af7c99c7fe0705919e4bba6" target="_top" xlink:title=" ">
<polygon fill="white" stroke="#666666" points="594.62,-288 469.12,-288 469.12,-268 594.62,-268 594.62,-288"/>
<text text-anchor="middle" x="531.88" y="-274.5" font-family="Helvetica,sans-Serif" font-size="10.00">zrtos_vfs_dentry__lookup</text>
</a>
</g>
</g>
<!-- Node24&#45;&gt;Node25 -->
<g id="edge25_Node000024_Node000025" class="edge">
<title>Node24&#45;&gt;Node25</title>
<g id="a_edge25_Node000024_Node000025"><a xlink:title=" ">
<path fill="none" stroke="#63b8ff" d="M641.28,-278C626.03,-278 609.98,-278 595.05,-278"/>
<polygon fill="#63b8ff" stroke="#63b8ff" points="641.25,-281.5 651.25,-278 641.25,-274.5 641.25,-281.5"/>
</a>
</g>
</g>
<!-- Node26 -->
<g id="Node000026" class="node">
<title>Node26</title>
<g id="a_Node000026"><a xlink:href="vfs__file_8h.html#a4fde804e9df54db6cb8d207603a875fd" target="_top" xlink:title=" ">
<polygon fill="white" stroke="#666666" points="403.12,-288 300.12,-288 300.12,-268 403.12,-268 403.12,-288"/>
<text text-anchor="middle" x="351.62" y="-274.5" font-family="Helvetica,sans-Serif" font-size="10.00">zrtos_vfs_file__open</text>
</a>
</g>
</g>
<!-- Node25&#45;&gt;Node26 -->
<g id="edge26_Node000025_Node000026" class="edge">
<title>Node25&#45;&gt;Node26</title>
<g id="a_edge26_Node000025_Node000026"><a xlink:title=" ">
<path fill="none" stroke="#63b8ff" d="M457.55,-278C439.37,-278 420.28,-278 403.44,-278"/>
<polygon fill="#63b8ff" stroke="#63b8ff" points="457.52,-281.5 467.52,-278 457.52,-274.5 457.52,-281.5"/>
</a>
</g>
</g>
<!-- Node29 -->
<g id="Node000029" class="node">
<title>Node29</title>
<g id="a_Node000029"><a xlink:href="str_8h.html#af64b95fd53da061e4bde68dddbe02232" target="_top" xlink:title=" ">
<polygon fill="white" stroke="#666666" points="401.62,-174 301.62,-174 301.62,-154 401.62,-154 401.62,-174"/>
<text text-anchor="middle" x="351.62" y="-160.5" font-family="Helvetica,sans-Serif" font-size="10.00">zrtos_str__vsnprintf</text>
</a>
</g>
</g>
<!-- Node28&#45;&gt;Node29 -->
<g id="edge29_Node000028_Node000029" class="edge">
<title>Node28&#45;&gt;Node29</title>
<g id="a_edge29_Node000028_Node000029"><a xlink:title=" ">
<path fill="none" stroke="#63b8ff" d="M470.33,-164C448.05,-164 423.12,-164 401.95,-164"/>
<polygon fill="#63b8ff" stroke="#63b8ff" points="470.18,-167.5 480.18,-164 470.18,-160.5 470.18,-167.5"/>
</a>
</g>
</g>
<!-- Node31&#45;&gt;Node28 -->
<g id="edge36_Node000031_Node000028" class="edge">
<title>Node31&#45;&gt;Node28</title>
<g id="a_edge36_Node000031_Node000028"><a xlink:title=" ">
<path fill="none" stroke="#63b8ff" d="M999.63,-164C898.31,-164 680.09,-164 582.18,-164"/>
<polygon fill="#63b8ff" stroke="#63b8ff" points="999.59,-167.5 1009.59,-164 999.59,-160.5 999.59,-167.5"/>
</a>
</g>
</g>
<!-- Node32 -->
<g id="Node000032" class="node">
<title>Node32</title>
<g id="a_Node000032"><a xlink:href="str_8h.html#adcf77443fdcd0ba7a3a37438f6ee3855" target="_top" xlink:title=" ">
<polygon fill="white" stroke="#666666" points="753.88,-136 670.38,-136 670.38,-116 753.88,-116 753.88,-136"/>
<text text-anchor="middle" x="712.12" y="-122.5" font-family="Helvetica,sans-Serif" font-size="10.00">zrtos_str__dtoa</text>
</a>
</g>
</g>
<!-- Node31&#45;&gt;Node32 -->
<g id="edge32_Node000031_Node000032" class="edge">
<title>Node31&#45;&gt;Node32</title>
<g id="a_edge32_Node000031_Node000032"><a xlink:title=" ">
<path fill="none" stroke="#63b8ff" d="M999.84,-155.57C986.6,-153.61 972.42,-151.62 959.25,-150 887.24,-141.13 803.04,-133.51 754.13,-129.36"/>
<polygon fill="#63b8ff" stroke="#63b8ff" points="999.29,-159.02 1009.7,-157.05 1000.33,-152.1 999.29,-159.02"/>
</a>
</g>
</g>
<!-- Node33 -->
<g id="Node000033" class="node">
<title>Node33</title>
<g id="a_Node000033"><a xlink:href="str_8h.html#a0f900e1b206fe39cd1b56fb61c1802b6" target="_top" xlink:title=" ">
<polygon fill="white" stroke="#666666" points="930,-98 849.5,-98 849.5,-78 930,-78 930,-98"/>
<text text-anchor="middle" x="889.75" y="-84.5" font-family="Helvetica,sans-Serif" font-size="10.00">zrtos_str__ltoa</text>
</a>
</g>
</g>
<!-- Node31&#45;&gt;Node33 -->
<g id="edge34_Node000031_Node000033" class="edge">
<title>Node31&#45;&gt;Node33</title>
<g id="a_edge34_Node000031_Node000033"><a xlink:title=" ">
<path fill="none" stroke="#63b8ff" d="M1003.01,-149.07C1000.34,-147.81 997.73,-146.45 995.25,-145 976.51,-134.04 977.87,-123.15 959.25,-112 950.06,-106.5 939.42,-102 929.31,-98.45"/>
<polygon fill="#63b8ff" stroke="#63b8ff" points="1001.61,-152.28 1012.18,-152.93 1004.32,-145.83 1001.61,-152.28"/>
</a>
</g>
</g>
<!-- Node32&#45;&gt;Node28 -->
<g id="edge33_Node000032_Node000028" class="edge">
<title>Node32&#45;&gt;Node28</title>
<g id="a_edge33_Node000032_Node000028"><a xlink:title=" ">
<path fill="none" stroke="#63b8ff" d="M659.07,-137.1C634.8,-142.27 606.06,-148.4 582.14,-153.5"/>
<polygon fill="#63b8ff" stroke="#63b8ff" points="659.7,-140.54 668.75,-135.03 658.24,-133.7 659.7,-140.54"/>
</a>
</g>
</g>
<!-- Node33&#45;&gt;Node32 -->
<g id="edge35_Node000033_Node000032" class="edge">
<title>Node33&#45;&gt;Node32</title>
<g id="a_edge35_Node000033_Node000032"><a xlink:title=" ">
<path fill="none" stroke="#63b8ff" d="M838.3,-98.92C811.65,-104.68 779.35,-111.67 754.24,-117.1"/>
<polygon fill="#63b8ff" stroke="#63b8ff" points="838.82,-102.38 847.86,-96.85 837.34,-95.54 838.82,-102.38"/>
</a>
</g>
</g>
<!-- Node35 -->
<g id="Node000035" class="node">
<title>Node35</title>
<g id="a_Node000035"><a xlink:href="sram_8h.html#ae81a59adc54eb479f21bf266c427b309" target="_top" xlink:title=" ">
<polygon fill="white" stroke="#666666" points="958.88,-60 820.62,-60 820.62,-40 958.88,-40 958.88,-60"/>
<text text-anchor="middle" x="889.75" y="-46.5" font-family="Helvetica,sans-Serif" font-size="10.00">zrtos_vfs_module_sram__rw</text>
</a>
</g>
</g>
<!-- Node34&#45;&gt;Node35 -->
<g id="edge38_Node000034_Node000035" class="edge">
<title>Node34&#45;&gt;Node35</title>
<g id="a_edge38_Node000034_Node000035"><a xlink:title=" ">
<path fill="none" stroke="#63b8ff" d="M988.14,-59.59C978.59,-58.65 968.74,-57.68 959.13,-56.73"/>
<polygon fill="#63b8ff" stroke="#63b8ff" points="987.79,-63.07 998.08,-60.57 988.48,-56.11 987.79,-63.07"/>
</a>
</g>
</g>
<!-- Node36 -->
<g id="Node000036" class="node">
<title>Node36</title>
<g id="a_Node000036"><a xlink:href="sram_8h.html#ab0d0a1a04578c8af262001c024ae57e5" target="_top" xlink:title=" ">
<polygon fill="white" stroke="#666666" points="771.12,-82 653.12,-82 653.12,-50 771.12,-50 771.12,-82"/>
<text text-anchor="start" x="661.12" y="-68.5" font-family="Helvetica,sans-Serif" font-size="10.00">zrtos_vfs_module_sram</text>
<text text-anchor="middle" x="712.12" y="-56.5" font-family="Helvetica,sans-Serif" font-size="10.00">__on_read</text>
</a>
</g>
</g>
<!-- Node35&#45;&gt;Node36 -->
<g id="edge39_Node000035_Node000036" class="edge">
<title>Node35&#45;&gt;Node36</title>
<g id="a_edge39_Node000035_Node000036"><a xlink:title=" ">
<path fill="none" stroke="#63b8ff" d="M809.23,-57.24C796.49,-58.41 783.51,-59.59 771.38,-60.69"/>
<polygon fill="#63b8ff" stroke="#63b8ff" points="809.2,-60.76 818.84,-56.37 808.56,-53.79 809.2,-60.76"/>
</a>
</g>
</g>
<!-- Node37 -->
<g id="Node000037" class="node">
<title>Node37</title>
<g id="a_Node000037"><a xlink:href="sram_8h.html#ab1fc9892618f21a25027bc7ac993dfe7" target="_top" xlink:title=" ">
<polygon fill="white" stroke="#666666" points="771.12,-32 653.12,-32 653.12,0 771.12,0 771.12,-32"/>
<text text-anchor="start" x="661.12" y="-18.5" font-family="Helvetica,sans-Serif" font-size="10.00">zrtos_vfs_module_sram</text>
<text text-anchor="middle" x="712.12" y="-6.5" font-family="Helvetica,sans-Serif" font-size="10.00">__on_write</text>
</a>
</g>
</g>
<!-- Node35&#45;&gt;Node37 -->
<g id="edge40_Node000035_Node000037" class="edge">
<title>Node35&#45;&gt;Node37</title>
<g id="a_edge40_Node000035_Node000037"><a xlink:title=" ">
<path fill="none" stroke="#63b8ff" d="M823.57,-37.38C806.44,-34.07 788.08,-30.51 771.34,-27.27"/>
<polygon fill="#63b8ff" stroke="#63b8ff" points="822.65,-40.77 833.14,-39.23 823.99,-33.9 822.65,-40.77"/>
</a>
</g>
</g>
<!-- Node39 -->
<g id="Node000039" class="node">
<title>Node39</title>
<g id="a_Node000039"><a xlink:href="vheap__task__scheduler_8h.html#ac3ceec0a4016b00c1670ddce858c6bac" target="_top" xlink:title=" ">
<polygon fill="white" stroke="#666666" points="959.25,-602 820.25,-602 820.25,-570 959.25,-570 959.25,-602"/>
<text text-anchor="start" x="828.25" y="-588.5" font-family="Helvetica,sans-Serif" font-size="10.00">zrtos_vheap_task_scheduler</text>
<text text-anchor="middle" x="889.75" y="-576.5" font-family="Helvetica,sans-Serif" font-size="10.00">__page_task_in</text>
</a>
</g>
</g>
<!-- Node38&#45;&gt;Node39 -->
<g id="edge42_Node000038_Node000039" class="edge">
<title>Node38&#45;&gt;Node39</title>
<g id="a_edge42_Node000038_Node000039"><a xlink:title=" ">
<path fill="none" stroke="#63b8ff" d="M986.31,-578.36C977.45,-579.06 968.36,-579.79 959.48,-580.5"/>
<polygon fill="#63b8ff" stroke="#63b8ff" points="986.58,-581.84 996.27,-577.56 986.03,-574.87 986.58,-581.84"/>
</a>
</g>
</g>
<!-- Node40 -->
<g id="Node000040" class="node">
<title>Node40</title>
<g id="a_Node000040"><a xlink:href="vheap__task__scheduler_8h.html#af69e917ca8bd27891eb335dda8289faf" target="_top" xlink:title=" ">
<polygon fill="white" stroke="#666666" points="784.25,-552 640,-552 640,-520 784.25,-520 784.25,-552"/>
<text text-anchor="start" x="648" y="-538.5" font-family="Helvetica,sans-Serif" font-size="10.00">_zrtos_vheap_task_scheduler</text>
<text text-anchor="middle" x="712.12" y="-526.5" font-family="Helvetica,sans-Serif" font-size="10.00">__set_active_task</text>
</a>
</g>
</g>
<!-- Node39&#45;&gt;Node40 -->
<g id="edge43_Node000039_Node000040" class="edge">
<title>Node39&#45;&gt;Node40</title>
<g id="a_edge43_Node000039_Node000040"><a xlink:title=" ">
<path fill="none" stroke="#63b8ff" d="M820.18,-566.48C803.94,-561.85 786.77,-556.97 771.06,-552.49"/>
<polygon fill="#63b8ff" stroke="#63b8ff" points="819.21,-569.84 829.79,-569.21 821.13,-563.11 819.21,-569.84"/>
</a>
</g>
</g>
<!-- Node41 -->
<g id="Node000041" class="node">
<title>Node41</title>
<g id="a_Node000041"><a xlink:href="vheap__task__scheduler_8h.html#add5545a77a9d66f232fa03da168ca02f" target="_top" xlink:title=" ">
<polygon fill="white" stroke="#666666" points="781.62,-602 642.62,-602 642.62,-570 781.62,-570 781.62,-602"/>
<text text-anchor="start" x="650.62" y="-588.5" font-family="Helvetica,sans-Serif" font-size="10.00">zrtos_vheap_task_scheduler</text>
<text text-anchor="middle" x="712.12" y="-576.5" font-family="Helvetica,sans-Serif" font-size="10.00">__start</text>
</a>
</g>
</g>
<!-- Node39&#45;&gt;Node41 -->
<g id="edge45_Node000039_Node000041" class="edge">
<title>Node39&#45;&gt;Node41</title>
<g id="a_edge45_Node000039_Node000041"><a xlink:title=" ">
<path fill="none" stroke="#63b8ff" d="M808.39,-586C799.62,-586 790.74,-586 782.12,-586"/>
<polygon fill="#63b8ff" stroke="#63b8ff" points="808.33,-589.5 818.33,-586 808.33,-582.5 808.33,-589.5"/>
</a>
</g>
</g>
<!-- Node40&#45;&gt;Node8 -->
<g id="edge44_Node000040_Node000008" class="edge">
<title>Node40&#45;&gt;Node8</title>
<g id="a_edge44_Node000040_Node000008"><a xlink:title=" ">
<path fill="none" stroke="#63b8ff" d="M642,-555.39C625.38,-560.05 607.78,-564.99 591.68,-569.51"/>
<polygon fill="#63b8ff" stroke="#63b8ff" points="642.62,-558.85 651.3,-552.78 640.73,-552.11 642.62,-558.85"/>
</a>
</g>
</g>
<!-- Node42&#45;&gt;Node43 -->
<g id="edge47_Node000042_Node000043" class="edge">
<title>Node42&#45;&gt;Node43</title>
<g id="a_edge47_Node000042_Node000043"><a xlink:title=" ">
<path fill="none" stroke="#63b8ff" d="M1013.94,-491.27C990.44,-499.81 960.49,-510.68 936.01,-519.57"/>
<polygon fill="#63b8ff" stroke="#63b8ff" points="1014.94,-494.63 1023.15,-487.93 1012.56,-488.05 1014.94,-494.63"/>
</a>
</g>
</g>
<!-- Node43&#45;&gt;Node40 -->
<g id="edge48_Node000043_Node000040" class="edge">
<title>Node43&#45;&gt;Node40</title>
<g id="a_edge48_Node000043_Node000040"><a xlink:title=" ">
<path fill="none" stroke="#63b8ff" d="M808.37,-536C800.49,-536 792.52,-536 784.72,-536"/>
<polygon fill="#63b8ff" stroke="#63b8ff" points="808.33,-539.5 818.33,-536 808.33,-532.5 808.33,-539.5"/>
</a>
</g>
</g>
</g>
</svg>
