<?xml version="1.0" encoding="UTF-8" standalone="no"?>
<!DOCTYPE svg PUBLIC "-//W3C//DTD SVG 1.1//EN"
 "http://www.w3.org/Graphics/SVG/1.1/DTD/svg11.dtd">
<!-- Generated by graphviz version 2.40.1 (20161225.0304)
 -->
<!-- Title: zrtos_types__ptr_is_valid_address_range Pages: 1 -->
<svg width="611pt" height="61pt"
 viewBox="0.00 0.00 611.00 61.00" xmlns="http://www.w3.org/2000/svg" xmlns:xlink="http://www.w3.org/1999/xlink">
<g id="graph0" class="graph" transform="scale(1 1) rotate(0) translate(4 57)">
<title>zrtos_types__ptr_is_valid_address_range</title>
<polygon fill="#ffffff" stroke="transparent" points="-4,4 -4,-57 607,-57 607,4 -4,4"/>
<!-- Node120 -->
<g id="node1" class="node">
<title>Node120</title>
<polygon fill="#bfbfbf" stroke="#000000" points="0,-.5 0,-30.5 111,-30.5 111,-.5 0,-.5"/>
<text text-anchor="start" x="8" y="-18.5" font-family="Helvetica,sans-Serif" font-size="10.00" fill="#000000">zrtos_types__ptr_is</text>
<text text-anchor="middle" x="55.5" y="-7.5" font-family="Helvetica,sans-Serif" font-size="10.00" fill="#000000">_valid_address_range</text>
</g>
<!-- Node121 -->
<g id="node2" class="node">
<title>Node121</title>
<g id="a_node2"><a xlink:href="sram_8h.html#ae81a59adc54eb479f21bf266c427b309" target="_top" xlink:title="zrtos_vfs_module_sram__rw">
<polygon fill="#ffffff" stroke="#000000" points="147,-6 147,-25 289,-25 289,-6 147,-6"/>
<text text-anchor="middle" x="218" y="-13" font-family="Helvetica,sans-Serif" font-size="10.00" fill="#000000">zrtos_vfs_module_sram__rw</text>
</a>
</g>
</g>
<!-- Node120&#45;&gt;Node121 -->
<g id="edge1" class="edge">
<title>Node120&#45;&gt;Node121</title>
<path fill="none" stroke="#191970" d="M121.4555,-15.5C129.7909,-15.5 138.3492,-15.5 146.7621,-15.5"/>
<polygon fill="#191970" stroke="#191970" points="121.4233,-12.0001 111.4233,-15.5 121.4232,-19.0001 121.4233,-12.0001"/>
</g>
<!-- Node122 -->
<g id="node3" class="node">
<title>Node122</title>
<g id="a_node3"><a xlink:href="sram_8h.html#ab0d0a1a04578c8af262001c024ae57e5" target="_top" xlink:title="zrtos_vfs_module_sram\l__on_read">
<polygon fill="#ffffff" stroke="#000000" points="325,-22.5 325,-52.5 446,-52.5 446,-22.5 325,-22.5"/>
<text text-anchor="start" x="333" y="-40.5" font-family="Helvetica,sans-Serif" font-size="10.00" fill="#000000">zrtos_vfs_module_sram</text>
<text text-anchor="middle" x="385.5" y="-29.5" font-family="Helvetica,sans-Serif" font-size="10.00" fill="#000000">__on_read</text>
</a>
</g>
</g>
<!-- Node121&#45;&gt;Node122 -->
<g id="edge2" class="edge">
<title>Node121&#45;&gt;Node122</title>
<path fill="none" stroke="#191970" d="M299.1778,-26.1622C307.8513,-27.3014 316.5616,-28.4454 324.9362,-29.5453"/>
<polygon fill="#191970" stroke="#191970" points="299.4057,-22.6621 289.0351,-24.83 298.4941,-29.6025 299.4057,-22.6621"/>
</g>
<!-- Node123 -->
<g id="node4" class="node">
<title>Node123</title>
<g id="a_node4"><a xlink:href="sram_8h.html#ab1fc9892618f21a25027bc7ac993dfe7" target="_top" xlink:title="zrtos_vfs_module_sram\l__on_write">
<polygon fill="#ffffff" stroke="#000000" points="482,-.5 482,-30.5 603,-30.5 603,-.5 482,-.5"/>
<text text-anchor="start" x="490" y="-18.5" font-family="Helvetica,sans-Serif" font-size="10.00" fill="#000000">zrtos_vfs_module_sram</text>
<text text-anchor="middle" x="542.5" y="-7.5" font-family="Helvetica,sans-Serif" font-size="10.00" fill="#000000">__on_write</text>
</a>
</g>
</g>
<!-- Node121&#45;&gt;Node123 -->
<g id="edge4" class="edge">
<title>Node121&#45;&gt;Node123</title>
<path fill="none" stroke="#191970" d="M299.2504,-13.8222C307.9424,-13.6902 316.654,-13.578 325,-13.5 378.7754,-12.9975 392.2251,-12.9428 446,-13.5 457.5618,-13.6198 469.9014,-13.8203 481.7598,-14.0493"/>
<polygon fill="#191970" stroke="#191970" points="299.0213,-10.3253 289.0788,-13.9854 299.1337,-17.3244 299.0213,-10.3253"/>
</g>
<!-- Node122&#45;&gt;Node123 -->
<g id="edge3" class="edge">
<title>Node122&#45;&gt;Node123</title>
<path fill="none" stroke="#191970" d="M456.2098,-27.5916C464.807,-26.3869 473.5301,-25.1646 481.9611,-23.9832"/>
<polygon fill="#191970" stroke="#191970" points="455.6178,-24.1403 446.2003,-28.9942 456.5893,-31.0726 455.6178,-24.1403"/>
</g>
</g>
</svg>
