<?xml version="1.0" encoding="UTF-8" standalone="no"?>
<!DOCTYPE svg PUBLIC "-//W3C//DTD SVG 1.1//EN"
 "http://www.w3.org/Graphics/SVG/1.1/DTD/svg11.dtd">
<!-- Generated by graphviz version 10.0.1 (20240210.2158)
 -->
<!-- Title: types.h Pages: 1 -->
<svg width="1359pt" height="252pt"
 viewBox="0.00 0.00 1358.58 252.00" xmlns="http://www.w3.org/2000/svg" xmlns:xlink="http://www.w3.org/1999/xlink">
<g id="graph0" class="graph" transform="scale(1 1) rotate(0) translate(4 248)">
<title>types.h</title>
<!-- Node1 -->
<g id="Node000001" class="node">
<title>Node1</title>
<g id="a_Node000001"><a xlink:title=" ">
<polygon fill="#999999" stroke="#666666" points="687.25,-244 639,-244 639,-224 687.25,-224 687.25,-244"/>
<text text-anchor="middle" x="663.12" y="-230.5" font-family="Helvetica,sans-Serif" font-size="10.00">types.h</text>
</a>
</g>
</g>
<!-- Node2 -->
<g id="Node000002" class="node">
<title>Node2</title>
<g id="a_Node000002"><a xlink:href="arch_8h.html" target="_top" xlink:title=" ">
<polygon fill="white" stroke="#666666" points="313.62,-188 270.62,-188 270.62,-168 313.62,-168 313.62,-188"/>
<text text-anchor="middle" x="292.12" y="-174.5" font-family="Helvetica,sans-Serif" font-size="10.00">arch.h</text>
</a>
</g>
</g>
<!-- Node1&#45;&gt;Node2 -->
<g id="edge1_Node000001_Node000002" class="edge">
<title>Node1&#45;&gt;Node2</title>
<g id="a_edge1_Node000001_Node000002"><a xlink:title=" ">
<path fill="none" stroke="#63b8ff" d="M627.22,-229.5C565.66,-223.22 436.19,-208.7 328.12,-188 323.57,-187.13 318.73,-186.03 314.12,-184.91"/>
<polygon fill="#63b8ff" stroke="#63b8ff" points="626.79,-232.98 637.09,-230.5 627.49,-226.01 626.79,-232.98"/>
</a>
</g>
</g>
<!-- Node3 -->
<g id="Node000003" class="node">
<title>Node3</title>
<g id="a_Node000003"><a xlink:href="gpio_8h.html" target="_top" xlink:title=" ">
<polygon fill="white" stroke="#666666" points="353.25,-132 311,-132 311,-112 353.25,-112 353.25,-132"/>
<text text-anchor="middle" x="332.12" y="-118.5" font-family="Helvetica,sans-Serif" font-size="10.00">gpio.h</text>
</a>
</g>
</g>
<!-- Node1&#45;&gt;Node3 -->
<g id="edge27_Node000001_Node000003" class="edge">
<title>Node1&#45;&gt;Node3</title>
<g id="a_edge27_Node000001_Node000003"><a xlink:title=" ">
<path fill="none" stroke="#63b8ff" d="M627.09,-231.89C556.29,-229.03 402.33,-219.29 361.12,-188 343.02,-174.25 335.96,-146.69 333.42,-132.27"/>
<polygon fill="#63b8ff" stroke="#63b8ff" points="626.87,-235.38 636.99,-232.26 627.13,-228.39 626.87,-235.38"/>
</a>
</g>
</g>
<!-- Node5 -->
<g id="Node000005" class="node">
<title>Node5</title>
<g id="a_Node000005"><a xlink:href="stack_8h.html" target="_top" xlink:title=" ">
<polygon fill="white" stroke="#666666" points="906.25,-76 858,-76 858,-56 906.25,-56 906.25,-76"/>
<text text-anchor="middle" x="882.12" y="-62.5" font-family="Helvetica,sans-Serif" font-size="10.00">stack.h</text>
</a>
</g>
</g>
<!-- Node1&#45;&gt;Node5 -->
<g id="edge44_Node000001_Node000005" class="edge">
<title>Node1&#45;&gt;Node5</title>
<g id="a_edge44_Node000001_Node000005"><a xlink:title=" ">
<path fill="none" stroke="#63b8ff" d="M698.14,-223.75C759.88,-206.66 883.87,-168.53 908.12,-132 920.09,-113.98 902.85,-89.59 891.23,-76.41"/>
<polygon fill="#63b8ff" stroke="#63b8ff" points="697.56,-220.28 688.84,-226.3 699.41,-227.04 697.56,-220.28"/>
</a>
</g>
</g>
<!-- Node6 -->
<g id="Node000006" class="node">
<title>Node6</title>
<g id="a_Node000006"><a xlink:href="vm_8h.html" target="_top" xlink:title=" ">
<polygon fill="white" stroke="#666666" points="1161.25,-20 1125,-20 1125,0 1161.25,0 1161.25,-20"/>
<text text-anchor="middle" x="1143.12" y="-6.5" font-family="Helvetica,sans-Serif" font-size="10.00">vm.h</text>
</a>
</g>
</g>
<!-- Node1&#45;&gt;Node6 -->
<g id="edge55_Node000001_Node000006" class="edge">
<title>Node1&#45;&gt;Node6</title>
<g id="a_edge55_Node000001_Node000006"><a xlink:title=" ">
<path fill="none" stroke="#63b8ff" d="M698.77,-231.45C795.59,-226.93 1058.26,-212.52 1088.12,-188 1141.34,-144.3 1144.02,-49.97 1143.47,-20.2"/>
<polygon fill="#63b8ff" stroke="#63b8ff" points="698.89,-227.94 689.06,-231.89 699.21,-234.93 698.89,-227.94"/>
</a>
</g>
</g>
<!-- Node8 -->
<g id="Node000008" class="node">
<title>Node8</title>
<g id="a_Node000008"><a xlink:href="task__pthread_8h.html" target="_top" xlink:title=" ">
<polygon fill="white" stroke="#666666" points="202.38,-20 121.88,-20 121.88,0 202.38,0 202.38,-20"/>
<text text-anchor="middle" x="162.12" y="-6.5" font-family="Helvetica,sans-Serif" font-size="10.00">task_pthread.h</text>
</a>
</g>
</g>
<!-- Node1&#45;&gt;Node8 -->
<g id="edge47_Node000001_Node000008" class="edge">
<title>Node1&#45;&gt;Node8</title>
<g id="a_edge47_Node000001_Node000008"><a xlink:title=" ">
<path fill="none" stroke="#63b8ff" d="M627.37,-233.09C540.45,-232.67 320.77,-227.61 261.12,-188 198.35,-146.32 171.35,-50.64 164.18,-20.36"/>
<polygon fill="#63b8ff" stroke="#63b8ff" points="627.21,-236.59 637.22,-233.12 627.23,-229.59 627.21,-236.59"/>
</a>
</g>
</g>
<!-- Node9 -->
<g id="Node000009" class="node">
<title>Node9</title>
<g id="a_Node000009"><a xlink:href="vheap__task__pthread_8h.html" target="_top" xlink:title=" ">
<polygon fill="white" stroke="#666666" points="705.38,-20 594.88,-20 594.88,0 705.38,0 705.38,-20"/>
<text text-anchor="middle" x="650.12" y="-6.5" font-family="Helvetica,sans-Serif" font-size="10.00">vheap_task_pthread.h</text>
</a>
</g>
</g>
<!-- Node1&#45;&gt;Node9 -->
<g id="edge53_Node000001_Node000009" class="edge">
<title>Node1&#45;&gt;Node9</title>
<g id="a_edge53_Node000001_Node000009"><a xlink:title=" ">
<path fill="none" stroke="#63b8ff" d="M653.5,-213.82C635.95,-178.45 600.01,-104 594.12,-76 592.3,-67.3 590.28,-64.02 594.12,-56 601.73,-40.14 617.94,-28.1 630.98,-20.48"/>
<polygon fill="#63b8ff" stroke="#63b8ff" points="650.22,-215.09 657.81,-222.47 656.48,-211.96 650.22,-215.09"/>
</a>
</g>
</g>
<!-- Node10 -->
<g id="Node000010" class="node">
<title>Node10</title>
<g id="a_Node000010"><a xlink:href="task__scheduler_8h.html" target="_top" xlink:title=" ">
<polygon fill="white" stroke="#666666" points="90.25,-76 0,-76 0,-56 90.25,-56 90.25,-76"/>
<text text-anchor="middle" x="45.12" y="-62.5" font-family="Helvetica,sans-Serif" font-size="10.00">task_scheduler.h</text>
</a>
</g>
</g>
<!-- Node1&#45;&gt;Node10 -->
<g id="edge48_Node000001_Node000010" class="edge">
<title>Node1&#45;&gt;Node10</title>
<g id="a_edge48_Node000001_Node000010"><a xlink:title=" ">
<path fill="none" stroke="#63b8ff" d="M627.52,-232.05C506.15,-228.59 113.37,-215.35 64.12,-188 37.16,-173.02 32.71,-161.32 23.12,-132 16.61,-112.07 29.45,-88.82 38.11,-76.24"/>
<polygon fill="#63b8ff" stroke="#63b8ff" points="627.11,-235.54 637.21,-232.32 627.31,-228.55 627.11,-235.54"/>
</a>
</g>
</g>
<!-- Node11 -->
<g id="Node000011" class="node">
<title>Node11</title>
<g id="a_Node000011"><a xlink:href="bitfield_8h.html" target="_top" xlink:title=" ">
<polygon fill="white" stroke="#666666" points="597.12,-132 545.12,-132 545.12,-112 597.12,-112 597.12,-132"/>
<text text-anchor="middle" x="571.12" y="-118.5" font-family="Helvetica,sans-Serif" font-size="10.00">bitfield.h</text>
</a>
</g>
</g>
<!-- Node1&#45;&gt;Node11 -->
<g id="edge11_Node000001_Node000011" class="edge">
<title>Node1&#45;&gt;Node11</title>
<g id="a_edge11_Node000001_Node000011"><a xlink:title=" ">
<path fill="none" stroke="#63b8ff" d="M641.32,-216.64C631.45,-208.64 620.03,-198.48 611.12,-188 595.85,-170.03 582.48,-145.62 575.75,-132.42"/>
<polygon fill="#63b8ff" stroke="#63b8ff" points="638.96,-219.24 648.98,-222.66 643.28,-213.73 638.96,-219.24"/>
</a>
</g>
</g>
<!-- Node13 -->
<g id="Node000013" class="node">
<title>Node13</title>
<g id="a_Node000013"><a xlink:href="clist_8h.html" target="_top" xlink:title=" ">
<polygon fill="white" stroke="#666666" points="115.25,-188 73,-188 73,-168 115.25,-168 115.25,-188"/>
<text text-anchor="middle" x="94.12" y="-174.5" font-family="Helvetica,sans-Serif" font-size="10.00">clist.h</text>
</a>
</g>
</g>
<!-- Node1&#45;&gt;Node13 -->
<g id="edge13_Node000001_Node000013" class="edge">
<title>Node1&#45;&gt;Node13</title>
<g id="a_edge13_Node000001_Node000013"><a xlink:title=" ">
<path fill="none" stroke="#63b8ff" d="M627.25,-232.05C540.91,-229.32 314.88,-219.48 129.12,-188 124.67,-187.25 119.95,-186.2 115.47,-185.09"/>
<polygon fill="#63b8ff" stroke="#63b8ff" points="627.11,-235.55 637.21,-232.35 627.32,-228.55 627.11,-235.55"/>
</a>
</g>
</g>
<!-- Node15 -->
<g id="Node000015" class="node">
<title>Node15</title>
<g id="a_Node000015"><a xlink:href="vfs__dentry_8h.html" target="_top" xlink:title=" ">
<polygon fill="white" stroke="#666666" points="497,-76 429.25,-76 429.25,-56 497,-56 497,-76"/>
<text text-anchor="middle" x="463.12" y="-62.5" font-family="Helvetica,sans-Serif" font-size="10.00">vfs_dentry.h</text>
</a>
</g>
</g>
<!-- Node1&#45;&gt;Node15 -->
<g id="edge49_Node000001_Node000015" class="edge">
<title>Node1&#45;&gt;Node15</title>
<g id="a_edge49_Node000001_Node000015"><a xlink:title=" ">
<path fill="none" stroke="#63b8ff" d="M627.75,-223.23C586.1,-209.8 518.07,-181.51 482.12,-132 469.69,-114.88 465.35,-89.7 463.87,-76.26"/>
<polygon fill="#63b8ff" stroke="#63b8ff" points="626.71,-226.57 637.3,-226.18 628.78,-219.88 626.71,-226.57"/>
</a>
</g>
</g>
<!-- Node16 -->
<g id="Node000016" class="node">
<title>Node16</title>
<g id="a_Node000016"><a xlink:href="event_8h.html" target="_top" xlink:title=" ">
<polygon fill="white" stroke="#666666" points="1077.5,-132 1030.75,-132 1030.75,-112 1077.5,-112 1077.5,-132"/>
<text text-anchor="middle" x="1054.12" y="-118.5" font-family="Helvetica,sans-Serif" font-size="10.00">event.h</text>
</a>
</g>
</g>
<!-- Node1&#45;&gt;Node16 -->
<g id="edge19_Node000001_Node000016" class="edge">
<title>Node1&#45;&gt;Node16</title>
<g id="a_edge19_Node000001_Node000016"><a xlink:title=" ">
<path fill="none" stroke="#63b8ff" d="M698.88,-231.32C789.51,-226.7 1022.82,-212.53 1047.12,-188 1061.66,-173.33 1059.07,-146.66 1056.35,-132.48"/>
<polygon fill="#63b8ff" stroke="#63b8ff" points="698.89,-227.81 689.08,-231.8 699.24,-234.8 698.89,-227.81"/>
</a>
</g>
</g>
<!-- Node17 -->
<g id="Node000017" class="node">
<title>Node17</title>
<g id="a_Node000017"><a xlink:href="event__index_8h.html" target="_top" xlink:title=" ">
<polygon fill="white" stroke="#666666" points="1040.75,-76 965.5,-76 965.5,-56 1040.75,-56 1040.75,-76"/>
<text text-anchor="middle" x="1003.12" y="-62.5" font-family="Helvetica,sans-Serif" font-size="10.00">event_index.h</text>
</a>
</g>
</g>
<!-- Node1&#45;&gt;Node17 -->
<g id="edge23_Node000001_Node000017" class="edge">
<title>Node1&#45;&gt;Node17</title>
<g id="a_edge23_Node000001_Node000017"><a xlink:title=" ">
<path fill="none" stroke="#63b8ff" d="M698.96,-233.63C786.57,-234.46 1008.57,-232.05 1065.12,-188 1092.77,-166.47 1104.05,-142.11 1086.12,-112 1075.64,-94.39 1055.61,-83.25 1037.85,-76.46"/>
<polygon fill="#63b8ff" stroke="#63b8ff" points="699.08,-230.13 689.03,-233.51 698.99,-237.13 699.08,-230.13"/>
</a>
</g>
</g>
<!-- Node18 -->
<g id="Node000018" class="node">
<title>Node18</title>
<g id="a_Node000018"><a xlink:href="event__handler_8h.html" target="_top" xlink:title=" ">
<polygon fill="white" stroke="#666666" points="949.88,-188 866.38,-188 866.38,-168 949.88,-168 949.88,-188"/>
<text text-anchor="middle" x="908.12" y="-174.5" font-family="Helvetica,sans-Serif" font-size="10.00">event_handler.h</text>
</a>
</g>
</g>
<!-- Node1&#45;&gt;Node18 -->
<g id="edge21_Node000001_Node000018" class="edge">
<title>Node1&#45;&gt;Node18</title>
<g id="a_edge21_Node000001_Node000018"><a xlink:title=" ">
<path fill="none" stroke="#63b8ff" d="M698.6,-225.18C742.91,-215.41 818.65,-198.72 865.9,-188.31"/>
<polygon fill="#63b8ff" stroke="#63b8ff" points="698,-221.73 688.99,-227.3 699.51,-228.56 698,-221.73"/>
</a>
</g>
</g>
<!-- Node19 -->
<g id="Node000019" class="node">
<title>Node19</title>
<g id="a_Node000019"><a xlink:href="event__type_8h.html" target="_top" xlink:title=" ">
<polygon fill="white" stroke="#666666" points="1038.5,-188 967.75,-188 967.75,-168 1038.5,-168 1038.5,-188"/>
<text text-anchor="middle" x="1003.12" y="-174.5" font-family="Helvetica,sans-Serif" font-size="10.00">event_type.h</text>
</a>
</g>
</g>
<!-- Node1&#45;&gt;Node19 -->
<g id="edge24_Node000001_Node000019" class="edge">
<title>Node1&#45;&gt;Node19</title>
<g id="a_edge24_Node000001_Node000019"><a xlink:title=" ">
<path fill="none" stroke="#63b8ff" d="M698.7,-228.19C754.38,-220.52 865.44,-204.69 959.12,-188 961.89,-187.51 964.74,-186.98 967.61,-186.43"/>
<polygon fill="#63b8ff" stroke="#63b8ff" points="698.3,-224.71 688.87,-229.54 699.25,-231.65 698.3,-224.71"/>
</a>
</g>
</g>
<!-- Node20 -->
<g id="Node000020" class="node">
<title>Node20</title>
<g id="a_Node000020"><a xlink:href="malloc_8h.html" target="_top" xlink:title=" ">
<polygon fill="white" stroke="#666666" points="161.5,-76 108.75,-76 108.75,-56 161.5,-56 161.5,-76"/>
<text text-anchor="middle" x="135.12" y="-62.5" font-family="Helvetica,sans-Serif" font-size="10.00">malloc.h</text>
</a>
</g>
</g>
<!-- Node1&#45;&gt;Node20 -->
<g id="edge28_Node000001_Node000020" class="edge">
<title>Node1&#45;&gt;Node20</title>
<g id="a_edge28_Node000001_Node000020"><a xlink:title=" ">
<path fill="none" stroke="#63b8ff" d="M627.38,-232.09C519.46,-229.03 202.14,-217.58 167.12,-188 133.26,-159.4 133.05,-99.54 134.36,-76.41"/>
<polygon fill="#63b8ff" stroke="#63b8ff" points="627.01,-235.58 637.1,-232.36 627.2,-228.59 627.01,-235.58"/>
</a>
</g>
</g>
<!-- Node21 -->
<g id="Node000021" class="node">
<title>Node21</title>
<g id="a_Node000021"><a xlink:href="mem_8h.html" target="_top" xlink:title=" ">
<polygon fill="white" stroke="#666666" points="766.12,-188 720.12,-188 720.12,-168 766.12,-168 766.12,-188"/>
<text text-anchor="middle" x="743.12" y="-174.5" font-family="Helvetica,sans-Serif" font-size="10.00">mem.h</text>
</a>
</g>
</g>
<!-- Node1&#45;&gt;Node21 -->
<g id="edge30_Node000001_Node000021" class="edge">
<title>Node1&#45;&gt;Node21</title>
<g id="a_edge30_Node000001_Node000021"><a xlink:title=" ">
<path fill="none" stroke="#63b8ff" d="M686.43,-217.27C700.25,-207.94 717.31,-196.43 729.08,-188.48"/>
<polygon fill="#63b8ff" stroke="#63b8ff" points="684.64,-214.25 678.31,-222.75 688.56,-220.05 684.64,-214.25"/>
</a>
</g>
</g>
<!-- Node23 -->
<g id="Node000023" class="node">
<title>Node23</title>
<g id="a_Node000023"><a xlink:href="str_8h.html" target="_top" xlink:title=" ">
<polygon fill="white" stroke="#666666" points="526.88,-132 491.38,-132 491.38,-112 526.88,-112 526.88,-132"/>
<text text-anchor="middle" x="509.12" y="-118.5" font-family="Helvetica,sans-Serif" font-size="10.00">str.h</text>
</a>
</g>
</g>
<!-- Node1&#45;&gt;Node23 -->
<g id="edge45_Node000001_Node000023" class="edge">
<title>Node1&#45;&gt;Node23</title>
<g id="a_edge45_Node000001_Node000023"><a xlink:title=" ">
<path fill="none" stroke="#63b8ff" d="M638.66,-217.68C625.33,-209.17 608.64,-198.26 594.12,-188 567.28,-169.02 536.92,-145.21 520.74,-132.33"/>
<polygon fill="#63b8ff" stroke="#63b8ff" points="636.51,-220.45 646.83,-222.85 640.25,-214.54 636.51,-220.45"/>
</a>
</g>
</g>
<!-- Node25 -->
<g id="Node000025" class="node">
<title>Node25</title>
<g id="a_Node000025"><a xlink:href="vheap__task__scheduler_8h.html" target="_top" xlink:title=" ">
<polygon fill="white" stroke="#666666" points="723.25,-76 603,-76 603,-56 723.25,-56 723.25,-76"/>
<text text-anchor="middle" x="663.12" y="-62.5" font-family="Helvetica,sans-Serif" font-size="10.00">vheap_task_scheduler.h</text>
</a>
</g>
</g>
<!-- Node1&#45;&gt;Node25 -->
<g id="edge54_Node000001_Node000025" class="edge">
<title>Node1&#45;&gt;Node25</title>
<g id="a_edge54_Node000001_Node000025"><a xlink:title=" ">
<path fill="none" stroke="#63b8ff" d="M663.12,-212.5C663.12,-176.27 663.12,-102.31 663.12,-76.3"/>
<polygon fill="#63b8ff" stroke="#63b8ff" points="659.63,-212.09 663.13,-222.09 666.63,-212.09 659.63,-212.09"/>
</a>
</g>
</g>
<!-- Node26 -->
<g id="Node000026" class="node">
<title>Node26</title>
<g id="a_Node000026"><a xlink:href="vm__function__index_8h.html" target="_top" xlink:title=" ">
<polygon fill="white" stroke="#666666" points="1300,-132 1196.25,-132 1196.25,-112 1300,-112 1300,-132"/>
<text text-anchor="middle" x="1248.12" y="-118.5" font-family="Helvetica,sans-Serif" font-size="10.00">vm_function_index.h</text>
</a>
</g>
</g>
<!-- Node1&#45;&gt;Node26 -->
<g id="edge58_Node000001_Node000026" class="edge">
<title>Node1&#45;&gt;Node26</title>
<g id="a_edge58_Node000001_Node000026"><a xlink:title=" ">
<path fill="none" stroke="#63b8ff" d="M698.72,-233.33C829.56,-234.17 1278.45,-233.7 1321.12,-188 1341.16,-166.54 1300.78,-144.4 1272.49,-132.3"/>
<polygon fill="#63b8ff" stroke="#63b8ff" points="698.96,-229.83 688.93,-233.26 698.91,-236.83 698.96,-229.83"/>
</a>
</g>
</g>
<!-- Node27 -->
<g id="Node000027" class="node">
<title>Node27</title>
<g id="a_Node000027"><a xlink:href="string_8h.html" target="_top" xlink:title=" ">
<polygon fill="white" stroke="#666666" points="1218.25,-188 1170,-188 1170,-168 1218.25,-168 1218.25,-188"/>
<text text-anchor="middle" x="1194.12" y="-174.5" font-family="Helvetica,sans-Serif" font-size="10.00">string.h</text>
</a>
</g>
</g>
<!-- Node1&#45;&gt;Node27 -->
<g id="edge46_Node000001_Node000027" class="edge">
<title>Node1&#45;&gt;Node27</title>
<g id="a_edge46_Node000001_Node000027"><a xlink:title=" ">
<path fill="none" stroke="#63b8ff" d="M698.99,-231.47C780.61,-227.6 986.32,-215.72 1156.12,-188 1160.54,-187.28 1165.21,-186.33 1169.7,-185.32"/>
<polygon fill="#63b8ff" stroke="#63b8ff" points="698.99,-227.96 689.16,-231.92 699.31,-234.96 698.99,-227.96"/>
</a>
</g>
</g>
<!-- Node28 -->
<g id="Node000028" class="node">
<title>Node28</title>
<g id="a_Node000028"><a xlink:href="vfs__plugin_8h.html" target="_top" xlink:title=" ">
<polygon fill="white" stroke="#666666" points="436.25,-188 370,-188 370,-168 436.25,-168 436.25,-188"/>
<text text-anchor="middle" x="403.12" y="-174.5" font-family="Helvetica,sans-Serif" font-size="10.00">vfs_plugin.h</text>
</a>
</g>
</g>
<!-- Node1&#45;&gt;Node28 -->
<g id="edge50_Node000001_Node000028" class="edge">
<title>Node1&#45;&gt;Node28</title>
<g id="a_edge50_Node000001_Node000028"><a xlink:title=" ">
<path fill="none" stroke="#63b8ff" d="M627.7,-225.64C577.38,-215.19 485.88,-196.19 436.64,-185.96"/>
<polygon fill="#63b8ff" stroke="#63b8ff" points="626.68,-229.01 637.18,-227.61 628.1,-222.15 626.68,-229.01"/>
</a>
</g>
</g>
<!-- Node30 -->
<g id="Node000030" class="node">
<title>Node30</title>
<g id="a_Node000030"><a xlink:href="vm__function_8h.html" target="_top" xlink:title=" ">
<polygon fill="white" stroke="#666666" points="1311.75,-188 1236.5,-188 1236.5,-168 1311.75,-168 1311.75,-188"/>
<text text-anchor="middle" x="1274.12" y="-174.5" font-family="Helvetica,sans-Serif" font-size="10.00">vm_function.h</text>
</a>
</g>
</g>
<!-- Node1&#45;&gt;Node30 -->
<g id="edge56_Node000001_Node000030" class="edge">
<title>Node1&#45;&gt;Node30</title>
<g id="a_edge56_Node000001_Node000030"><a xlink:title=" ">
<path fill="none" stroke="#63b8ff" d="M699.06,-231.5C788.59,-227.47 1028.67,-214.84 1227.12,-188 1230.09,-187.6 1233.15,-187.13 1236.22,-186.63"/>
<polygon fill="#63b8ff" stroke="#63b8ff" points="699.04,-228 689.2,-231.94 699.35,-234.99 699.04,-228"/>
</a>
</g>
</g>
<!-- Node31 -->
<g id="Node000031" class="node">
<title>Node31</title>
<g id="a_Node000031"><a xlink:href="vm__io_8h.html" target="_top" xlink:title=" ">
<polygon fill="white" stroke="#666666" points="1346.62,-76 1297.62,-76 1297.62,-56 1346.62,-56 1346.62,-76"/>
<text text-anchor="middle" x="1322.12" y="-62.5" font-family="Helvetica,sans-Serif" font-size="10.00">vm_io.h</text>
</a>
</g>
</g>
<!-- Node1&#45;&gt;Node31 -->
<g id="edge59_Node000001_Node000031" class="edge">
<title>Node1&#45;&gt;Node31</title>
<g id="a_edge59_Node000001_Node000031"><a xlink:title=" ">
<path fill="none" stroke="#63b8ff" d="M698.74,-233.39C831.64,-234.49 1293.28,-234.87 1337.12,-188 1366.48,-156.62 1339.85,-98.92 1327.56,-76.38"/>
<polygon fill="#63b8ff" stroke="#63b8ff" points="699.17,-229.9 689.14,-233.31 699.1,-236.9 699.17,-229.9"/>
</a>
</g>
</g>
<!-- Node2&#45;&gt;Node3 -->
<g id="edge2_Node000002_Node000003" class="edge">
<title>Node2&#45;&gt;Node3</title>
<g id="a_edge2_Node000002_Node000003"><a xlink:title=" ">
<path fill="none" stroke="#63b8ff" d="M305.88,-158.44C312.41,-149.62 319.93,-139.47 325.24,-132.3"/>
<polygon fill="#63b8ff" stroke="#63b8ff" points="303.13,-156.26 299.99,-166.38 308.76,-160.43 303.13,-156.26"/>
</a>
</g>
</g>
<!-- Node4 -->
<g id="Node000004" class="node">
<title>Node4</title>
<g id="a_Node000004"><a xlink:href="zrtos_8h.html" target="_top" xlink:title=" ">
<polygon fill="white" stroke="#666666" points="293.12,-132 247.12,-132 247.12,-112 293.12,-112 293.12,-132"/>
<text text-anchor="middle" x="270.12" y="-118.5" font-family="Helvetica,sans-Serif" font-size="10.00">zrtos.h</text>
</a>
</g>
</g>
<!-- Node2&#45;&gt;Node4 -->
<g id="edge3_Node000002_Node000004" class="edge">
<title>Node2&#45;&gt;Node4</title>
<g id="a_edge3_Node000002_Node000004"><a xlink:title=" ">
<path fill="none" stroke="#63b8ff" d="M283.98,-157C280.53,-148.54 276.68,-139.08 273.91,-132.3"/>
<polygon fill="#63b8ff" stroke="#63b8ff" points="280.71,-158.25 287.72,-166.19 287.19,-155.61 280.71,-158.25"/>
</a>
</g>
</g>
<!-- Node4&#45;&gt;Node5 -->
<g id="edge4_Node000004_Node000005" class="edge">
<title>Node4&#45;&gt;Node5</title>
<g id="a_edge4_Node000004_Node000005"><a xlink:title=" ">
<path fill="none" stroke="#63b8ff" d="M304.56,-112.14C394.04,-99.71 759.57,-75.12 857.77,-68.61"/>
<polygon fill="#63b8ff" stroke="#63b8ff" points="304.26,-108.64 294.92,-113.64 305.34,-115.56 304.26,-108.64"/>
</a>
</g>
</g>
<!-- Node7 -->
<g id="Node000007" class="node">
<title>Node7</title>
<g id="a_Node000007"><a xlink:href="task__mutex_8h.html" target="_top" xlink:title=" ">
<polygon fill="white" stroke="#666666" points="307.75,-76 232.5,-76 232.5,-56 307.75,-56 307.75,-76"/>
<text text-anchor="middle" x="270.12" y="-62.5" font-family="Helvetica,sans-Serif" font-size="10.00">task_mutex.h</text>
</a>
</g>
</g>
<!-- Node4&#45;&gt;Node7 -->
<g id="edge6_Node000004_Node000007" class="edge">
<title>Node4&#45;&gt;Node7</title>
<g id="a_edge6_Node000004_Node000007"><a xlink:title=" ">
<path fill="none" stroke="#63b8ff" d="M270.12,-100.13C270.12,-91.9 270.12,-82.85 270.12,-76.3"/>
<polygon fill="#63b8ff" stroke="#63b8ff" points="266.63,-100.08 270.13,-110.08 273.63,-100.08 266.63,-100.08"/>
</a>
</g>
</g>
<!-- Node4&#45;&gt;Node10 -->
<g id="edge9_Node000004_Node000010" class="edge">
<title>Node4&#45;&gt;Node10</title>
<g id="a_edge9_Node000004_Node000010"><a xlink:title=" ">
<path fill="none" stroke="#63b8ff" d="M235.92,-112.79C195.17,-103.01 127.24,-86.71 84.39,-76.42"/>
<polygon fill="#63b8ff" stroke="#63b8ff" points="234.88,-116.14 245.42,-115.07 236.51,-109.33 234.88,-116.14"/>
</a>
</g>
</g>
<!-- Node5&#45;&gt;Node6 -->
<g id="edge5_Node000005_Node000006" class="edge">
<title>Node5&#45;&gt;Node6</title>
<g id="a_edge5_Node000005_Node000006"><a xlink:title=" ">
<path fill="none" stroke="#63b8ff" d="M917.88,-57.6C974.18,-45.96 1081.51,-23.75 1124.57,-14.84"/>
<polygon fill="#63b8ff" stroke="#63b8ff" points="917.24,-54.16 908.16,-59.61 918.66,-61.01 917.24,-54.16"/>
</a>
</g>
</g>
<!-- Node7&#45;&gt;Node8 -->
<g id="edge7_Node000007_Node000008" class="edge">
<title>Node7&#45;&gt;Node8</title>
<g id="a_edge7_Node000007_Node000008"><a xlink:title=" ">
<path fill="none" stroke="#63b8ff" d="M241.09,-50.48C222.04,-40.96 197.68,-28.78 181.08,-20.48"/>
<polygon fill="#63b8ff" stroke="#63b8ff" points="239.45,-53.58 249.96,-54.92 242.58,-47.31 239.45,-53.58"/>
</a>
</g>
</g>
<!-- Node7&#45;&gt;Node9 -->
<g id="edge8_Node000007_Node000009" class="edge">
<title>Node7&#45;&gt;Node9</title>
<g id="a_edge8_Node000007_Node000009"><a xlink:title=" ">
<path fill="none" stroke="#63b8ff" d="M319.19,-58.03C389.93,-47.98 520.2,-29.46 594.45,-18.91"/>
<polygon fill="#63b8ff" stroke="#63b8ff" points="318.86,-54.54 309.45,-59.41 319.84,-61.47 318.86,-54.54"/>
</a>
</g>
</g>
<!-- Node10&#45;&gt;Node8 -->
<g id="edge10_Node000010_Node000008" class="edge">
<title>Node10&#45;&gt;Node8</title>
<g id="a_edge10_Node000010_Node000008"><a xlink:title=" ">
<path fill="none" stroke="#63b8ff" d="M75.72,-50.88C96.48,-41.3 123.36,-28.89 141.59,-20.48"/>
<polygon fill="#63b8ff" stroke="#63b8ff" points="74.49,-47.59 66.88,-54.96 77.43,-53.95 74.49,-47.59"/>
</a>
</g>
</g>
<!-- Node12 -->
<g id="Node000012" class="node">
<title>Node12</title>
<g id="a_Node000012"><a xlink:href="vfs__file_8h.html" target="_top" xlink:title=" ">
<polygon fill="white" stroke="#666666" points="520.5,-20 467.75,-20 467.75,0 520.5,0 520.5,-20"/>
<text text-anchor="middle" x="494.12" y="-6.5" font-family="Helvetica,sans-Serif" font-size="10.00">vfs_file.h</text>
</a>
</g>
</g>
<!-- Node11&#45;&gt;Node12 -->
<g id="edge12_Node000011_Node000012" class="edge">
<title>Node11&#45;&gt;Node12</title>
<g id="a_edge12_Node000011_Node000012"><a xlink:title=" ">
<path fill="none" stroke="#63b8ff" d="M558.01,-102.27C541.38,-78.5 513.33,-38.44 500.67,-20.35"/>
<polygon fill="#63b8ff" stroke="#63b8ff" points="555.09,-104.2 563.69,-110.38 560.82,-100.18 555.09,-104.2"/>
</a>
</g>
</g>
<!-- Node13&#45;&gt;Node10 -->
<g id="edge16_Node000013_Node000010" class="edge">
<title>Node13&#45;&gt;Node10</title>
<g id="a_edge16_Node000013_Node000010"><a xlink:title=" ">
<path fill="none" stroke="#63b8ff" d="M93.87,-156.51C93.02,-143.27 90.59,-125.98 84.12,-112 77.53,-97.74 65.01,-84.55 55.94,-76.18"/>
<polygon fill="#63b8ff" stroke="#63b8ff" points="90.36,-156.33 94.23,-166.2 97.36,-156.08 90.36,-156.33"/>
</a>
</g>
</g>
<!-- Node14 -->
<g id="Node000014" class="node">
<title>Node14</title>
<g id="a_Node000014"><a xlink:href="task_8h.html" target="_top" xlink:title=" ">
<polygon fill="white" stroke="#666666" points="75.62,-132 32.62,-132 32.62,-112 75.62,-112 75.62,-132"/>
<text text-anchor="middle" x="54.12" y="-118.5" font-family="Helvetica,sans-Serif" font-size="10.00">task.h</text>
</a>
</g>
</g>
<!-- Node13&#45;&gt;Node14 -->
<g id="edge14_Node000013_Node000014" class="edge">
<title>Node13&#45;&gt;Node14</title>
<g id="a_edge14_Node000013_Node000014"><a xlink:title=" ">
<path fill="none" stroke="#63b8ff" d="M80.37,-158.44C73.84,-149.62 66.32,-139.47 61.01,-132.3"/>
<polygon fill="#63b8ff" stroke="#63b8ff" points="77.49,-160.43 86.26,-166.38 83.12,-156.26 77.49,-160.43"/>
</a>
</g>
</g>
<!-- Node13&#45;&gt;Node15 -->
<g id="edge17_Node000013_Node000015" class="edge">
<title>Node13&#45;&gt;Node15</title>
<g id="a_edge17_Node000013_Node000015"><a xlink:title=" ">
<path fill="none" stroke="#63b8ff" d="M121.33,-162.47C149.74,-147.84 195.98,-125.53 238.12,-112 304.12,-90.81 384.35,-77.64 428.97,-71.37"/>
<polygon fill="#63b8ff" stroke="#63b8ff" points="119.94,-159.25 112.69,-166.97 123.18,-165.45 119.94,-159.25"/>
</a>
</g>
</g>
<!-- Node14&#45;&gt;Node10 -->
<g id="edge15_Node000014_Node000010" class="edge">
<title>Node14&#45;&gt;Node10</title>
<g id="a_edge15_Node000014_Node000010"><a xlink:title=" ">
<path fill="none" stroke="#63b8ff" d="M50.7,-100.43C49.31,-92.11 47.78,-82.93 46.67,-76.3"/>
<polygon fill="#63b8ff" stroke="#63b8ff" points="47.21,-100.81 52.31,-110.1 54.12,-99.66 47.21,-100.81"/>
</a>
</g>
</g>
<!-- Node15&#45;&gt;Node12 -->
<g id="edge18_Node000015_Node000012" class="edge">
<title>Node15&#45;&gt;Node12</title>
<g id="a_edge18_Node000015_Node000012"><a xlink:title=" ">
<path fill="none" stroke="#63b8ff" d="M474.11,-45.87C479.09,-37.19 484.76,-27.32 488.79,-20.3"/>
<polygon fill="#63b8ff" stroke="#63b8ff" points="471.22,-43.87 469.28,-54.28 477.29,-47.35 471.22,-43.87"/>
</a>
</g>
</g>
<!-- Node16&#45;&gt;Node17 -->
<g id="edge20_Node000016_Node000017" class="edge">
<title>Node16&#45;&gt;Node17</title>
<g id="a_edge20_Node000016_Node000017"><a xlink:title=" ">
<path fill="none" stroke="#63b8ff" d="M1037.39,-103.29C1028.89,-94.28 1018.9,-83.7 1011.91,-76.3"/>
<polygon fill="#63b8ff" stroke="#63b8ff" points="1034.79,-105.63 1044.2,-110.49 1039.88,-100.82 1034.79,-105.63"/>
</a>
</g>
</g>
<!-- Node18&#45;&gt;Node17 -->
<g id="edge22_Node000018_Node000017" class="edge">
<title>Node18&#45;&gt;Node17</title>
<g id="a_edge22_Node000018_Node000017"><a xlink:title=" ">
<path fill="none" stroke="#63b8ff" d="M923.48,-159.22C943.89,-135.58 979.22,-94.68 995.05,-76.35"/>
<polygon fill="#63b8ff" stroke="#63b8ff" points="921.1,-156.62 917.21,-166.48 926.4,-161.2 921.1,-156.62"/>
</a>
</g>
</g>
<!-- Node19&#45;&gt;Node16 -->
<g id="edge25_Node000019_Node000016" class="edge">
<title>Node19&#45;&gt;Node16</title>
<g id="a_edge25_Node000019_Node000016"><a xlink:title=" ">
<path fill="none" stroke="#63b8ff" d="M1019.86,-159.29C1028.36,-150.28 1038.35,-139.7 1045.34,-132.3"/>
<polygon fill="#63b8ff" stroke="#63b8ff" points="1017.37,-156.82 1013.05,-166.49 1022.46,-161.63 1017.37,-156.82"/>
</a>
</g>
</g>
<!-- Node19&#45;&gt;Node17 -->
<g id="edge26_Node000019_Node000017" class="edge">
<title>Node19&#45;&gt;Node17</title>
<g id="a_edge26_Node000019_Node000017"><a xlink:title=" ">
<path fill="none" stroke="#63b8ff" d="M1003.12,-156.31C1003.12,-132.36 1003.12,-93.95 1003.12,-76.35"/>
<polygon fill="#63b8ff" stroke="#63b8ff" points="999.63,-156.11 1003.13,-166.11 1006.63,-156.11 999.63,-156.11"/>
</a>
</g>
</g>
<!-- Node20&#45;&gt;Node8 -->
<g id="edge29_Node000020_Node000008" class="edge">
<title>Node20&#45;&gt;Node8</title>
<g id="a_edge29_Node000020_Node000008"><a xlink:title=" ">
<path fill="none" stroke="#63b8ff" d="M144.84,-45.58C149.14,-36.97 154.01,-27.24 157.48,-20.3"/>
<polygon fill="#63b8ff" stroke="#63b8ff" points="141.85,-43.73 140.5,-54.24 148.11,-46.86 141.85,-43.73"/>
</a>
</g>
</g>
<!-- Node21&#45;&gt;Node5 -->
<g id="edge34_Node000021_Node000005" class="edge">
<title>Node21&#45;&gt;Node5</title>
<g id="a_edge34_Node000021_Node000005"><a xlink:title=" ">
<path fill="none" stroke="#63b8ff" d="M763.65,-160.76C793.16,-137.4 846.63,-95.09 870.3,-76.35"/>
<polygon fill="#63b8ff" stroke="#63b8ff" points="761.83,-157.73 756.16,-166.68 766.18,-163.22 761.83,-157.73"/>
</a>
</g>
</g>
<!-- Node21&#45;&gt;Node6 -->
<g id="edge41_Node000021_Node000006" class="edge">
<title>Node21&#45;&gt;Node6</title>
<g id="a_edge41_Node000021_Node000006"><a xlink:title=" ">
<path fill="none" stroke="#63b8ff" d="M753.59,-158.01C769.97,-130.34 804.46,-79.66 849.12,-56 897.61,-30.32 1068.18,-16.27 1124.74,-12.23"/>
<polygon fill="#63b8ff" stroke="#63b8ff" points="750.73,-155.97 748.8,-166.38 756.8,-159.45 750.73,-155.97"/>
</a>
</g>
</g>
<!-- Node21&#45;&gt;Node11 -->
<g id="edge31_Node000021_Node000011" class="edge">
<title>Node21&#45;&gt;Node11</title>
<g id="a_edge31_Node000021_Node000011"><a xlink:title=" ">
<path fill="none" stroke="#63b8ff" d="M709.08,-166.31C676.34,-156.03 627.54,-140.71 597.61,-131.32"/>
<polygon fill="#63b8ff" stroke="#63b8ff" points="707.9,-169.61 718.48,-169.26 709.99,-162.93 707.9,-169.61"/>
</a>
</g>
</g>
<!-- Node22 -->
<g id="Node000022" class="node">
<title>Node22</title>
<g id="a_Node000022"><a xlink:href="progmem_8h.html" target="_top" xlink:title=" ">
<polygon fill="white" stroke="#666666" points="899.5,-132 834.75,-132 834.75,-112 899.5,-112 899.5,-132"/>
<text text-anchor="middle" x="867.12" y="-118.5" font-family="Helvetica,sans-Serif" font-size="10.00">progmem.h</text>
</a>
</g>
</g>
<!-- Node21&#45;&gt;Node22 -->
<g id="edge32_Node000021_Node000022" class="edge">
<title>Node21&#45;&gt;Node22</title>
<g id="a_edge32_Node000021_Node000022"><a xlink:title=" ">
<path fill="none" stroke="#63b8ff" d="M775.25,-163.01C797.29,-153.41 825.95,-140.93 845.36,-132.48"/>
<polygon fill="#63b8ff" stroke="#63b8ff" points="773.88,-159.79 766.11,-166.99 776.68,-166.21 773.88,-159.79"/>
</a>
</g>
</g>
<!-- Node21&#45;&gt;Node23 -->
<g id="edge35_Node000021_Node000023" class="edge">
<title>Node21&#45;&gt;Node23</title>
<g id="a_edge35_Node000021_Node000023"><a xlink:title=" ">
<path fill="none" stroke="#63b8ff" d="M708.56,-170.67C667.24,-162.83 596.13,-148.47 536.12,-132 533.27,-131.22 530.26,-130.3 527.34,-129.37"/>
<polygon fill="#63b8ff" stroke="#63b8ff" points="707.68,-174.06 718.16,-172.47 708.97,-167.18 707.68,-174.06"/>
</a>
</g>
</g>
<!-- Node24 -->
<g id="Node000024" class="node">
<title>Node24</title>
<g id="a_Node000024"><a xlink:href="vheap_8h.html" target="_top" xlink:title=" ">
<polygon fill="white" stroke="#666666" points="740.62,-132 691.62,-132 691.62,-112 740.62,-112 740.62,-132"/>
<text text-anchor="middle" x="716.12" y="-118.5" font-family="Helvetica,sans-Serif" font-size="10.00">vheap.h</text>
</a>
</g>
</g>
<!-- Node21&#45;&gt;Node24 -->
<g id="edge37_Node000021_Node000024" class="edge">
<title>Node21&#45;&gt;Node24</title>
<g id="a_edge37_Node000021_Node000024"><a xlink:title=" ">
<path fill="none" stroke="#63b8ff" d="M733.41,-157.58C729.11,-148.97 724.24,-139.24 720.77,-132.3"/>
<polygon fill="#63b8ff" stroke="#63b8ff" points="730.14,-158.86 737.75,-166.24 736.4,-155.73 730.14,-158.86"/>
</a>
</g>
</g>
<!-- Node21&#45;&gt;Node26 -->
<g id="edge42_Node000021_Node000026" class="edge">
<title>Node21&#45;&gt;Node26</title>
<g id="a_edge42_Node000021_Node000026"><a xlink:title=" ">
<path fill="none" stroke="#63b8ff" d="M777.77,-173.3C864.69,-164 1092.4,-139.65 1195.76,-128.6"/>
<polygon fill="#63b8ff" stroke="#63b8ff" points="777.55,-169.8 767.97,-174.34 778.29,-176.76 777.55,-169.8"/>
</a>
</g>
</g>
<!-- Node22&#45;&gt;Node17 -->
<g id="edge33_Node000022_Node000017" class="edge">
<title>Node22&#45;&gt;Node17</title>
<g id="a_edge33_Node000022_Node000017"><a xlink:title=" ">
<path fill="none" stroke="#63b8ff" d="M901.37,-107.4C925.67,-97.75 957.68,-85.05 979.25,-76.48"/>
<polygon fill="#63b8ff" stroke="#63b8ff" points="900.22,-104.09 892.22,-111.04 902.81,-110.6 900.22,-104.09"/>
</a>
</g>
</g>
<!-- Node23&#45;&gt;Node15 -->
<g id="edge36_Node000023_Node000015" class="edge">
<title>Node23&#45;&gt;Node15</title>
<g id="a_edge36_Node000023_Node000015"><a xlink:title=" ">
<path fill="none" stroke="#63b8ff" d="M493.79,-103C486.17,-94.06 477.29,-83.62 471.05,-76.3"/>
<polygon fill="#63b8ff" stroke="#63b8ff" points="490.98,-105.1 500.13,-110.44 496.31,-100.56 490.98,-105.1"/>
</a>
</g>
</g>
<!-- Node24&#45;&gt;Node9 -->
<g id="edge38_Node000024_Node000009" class="edge">
<title>Node24&#45;&gt;Node9</title>
<g id="a_edge38_Node000024_Node000009"><a xlink:title=" ">
<path fill="none" stroke="#63b8ff" d="M728.04,-101.81C734.81,-88.25 740.44,-70.05 732.12,-56 721.7,-38.39 701.68,-27.22 684.02,-20.41"/>
<polygon fill="#63b8ff" stroke="#63b8ff" points="725.17,-99.77 723.35,-110.21 731.28,-103.19 725.17,-99.77"/>
</a>
</g>
</g>
<!-- Node24&#45;&gt;Node25 -->
<g id="edge39_Node000024_Node000025" class="edge">
<title>Node24&#45;&gt;Node25</title>
<g id="a_edge39_Node000024_Node000025"><a xlink:title=" ">
<path fill="none" stroke="#63b8ff" d="M699.01,-103.57C690.11,-94.5 679.59,-83.78 672.25,-76.3"/>
<polygon fill="#63b8ff" stroke="#63b8ff" points="696.33,-105.83 705.83,-110.51 701.33,-100.93 696.33,-105.83"/>
</a>
</g>
</g>
<!-- Node25&#45;&gt;Node9 -->
<g id="edge40_Node000025_Node000009" class="edge">
<title>Node25&#45;&gt;Node9</title>
<g id="a_edge40_Node000025_Node000009"><a xlink:title=" ">
<path fill="none" stroke="#63b8ff" d="M658.17,-44.43C656.17,-36.11 653.96,-26.93 652.36,-20.3"/>
<polygon fill="#63b8ff" stroke="#63b8ff" points="654.76,-45.22 660.51,-54.12 661.57,-43.58 654.76,-45.22"/>
</a>
</g>
</g>
<!-- Node26&#45;&gt;Node6 -->
<g id="edge43_Node000026_Node000006" class="edge">
<title>Node26&#45;&gt;Node6</title>
<g id="a_edge43_Node000026_Node000006"><a xlink:title=" ">
<path fill="none" stroke="#63b8ff" d="M1231.45,-103.53C1208.94,-79.95 1169.63,-38.76 1152.05,-20.35"/>
<polygon fill="#63b8ff" stroke="#63b8ff" points="1228.69,-105.71 1238.13,-110.53 1233.75,-100.88 1228.69,-105.71"/>
</a>
</g>
</g>
<!-- Node29 -->
<g id="Node000029" class="node">
<title>Node29</title>
<g id="a_Node000029"><a xlink:href="vfs__inode_8h.html" target="_top" xlink:title=" ">
<polygon fill="white" stroke="#666666" points="435.12,-132 371.12,-132 371.12,-112 435.12,-112 435.12,-132"/>
<text text-anchor="middle" x="403.12" y="-118.5" font-family="Helvetica,sans-Serif" font-size="10.00">vfs_inode.h</text>
</a>
</g>
</g>
<!-- Node28&#45;&gt;Node29 -->
<g id="edge51_Node000028_Node000029" class="edge">
<title>Node28&#45;&gt;Node29</title>
<g id="a_edge51_Node000028_Node000029"><a xlink:title=" ">
<path fill="none" stroke="#63b8ff" d="M403.12,-156.13C403.12,-147.9 403.12,-138.85 403.12,-132.3"/>
<polygon fill="#63b8ff" stroke="#63b8ff" points="399.63,-156.08 403.13,-166.08 406.63,-156.08 399.63,-156.08"/>
</a>
</g>
</g>
<!-- Node29&#45;&gt;Node15 -->
<g id="edge52_Node000029_Node000015" class="edge">
<title>Node29&#45;&gt;Node15</title>
<g id="a_edge52_Node000029_Node000015"><a xlink:title=" ">
<path fill="none" stroke="#63b8ff" d="M421.87,-104.13C432.08,-94.94 444.31,-83.93 452.79,-76.3"/>
<polygon fill="#63b8ff" stroke="#63b8ff" points="419.79,-101.29 414.7,-110.58 424.48,-106.49 419.79,-101.29"/>
</a>
</g>
</g>
<!-- Node30&#45;&gt;Node26 -->
<g id="edge57_Node000030_Node000026" class="edge">
<title>Node30&#45;&gt;Node26</title>
<g id="a_edge57_Node000030_Node000026"><a xlink:title=" ">
<path fill="none" stroke="#63b8ff" d="M1264.64,-157.29C1260.52,-148.75 1255.91,-139.16 1252.6,-132.3"/>
<polygon fill="#63b8ff" stroke="#63b8ff" points="1261.45,-158.74 1268.94,-166.23 1267.75,-155.7 1261.45,-158.74"/>
</a>
</g>
</g>
<!-- Node31&#45;&gt;Node6 -->
<g id="edge60_Node000031_Node000006" class="edge">
<title>Node31&#45;&gt;Node6</title>
<g id="a_edge60_Node000031_Node000006"><a xlink:title=" ">
<path fill="none" stroke="#63b8ff" d="M1286.24,-54.18C1248.58,-42.81 1190.85,-25.4 1161.55,-16.56"/>
<polygon fill="#63b8ff" stroke="#63b8ff" points="1285.2,-57.52 1295.79,-57.05 1287.22,-50.82 1285.2,-57.52"/>
</a>
</g>
</g>
</g>
</svg>
