<?xml version="1.0" encoding="UTF-8" standalone="no"?>
<!DOCTYPE svg PUBLIC "-//W3C//DTD SVG 1.1//EN"
 "http://www.w3.org/Graphics/SVG/1.1/DTD/svg11.dtd">
<!-- Generated by graphviz version 2.40.1 (20161225.0304)
 -->
<!-- Title: types.h Pages: 1 -->
<svg width="432pt" height="84pt"
 viewBox="0.00 0.00 432.00 84.00" xmlns="http://www.w3.org/2000/svg" xmlns:xlink="http://www.w3.org/1999/xlink">
<g id="graph0" class="graph" transform="scale(1 1) rotate(0) translate(4 80)">
<title>types.h</title>
<polygon fill="#ffffff" stroke="transparent" points="-4,4 -4,-80 428,-80 428,4 -4,4"/>
<!-- Node0 -->
<g id="node1" class="node">
<title>Node0</title>
<polygon fill="#bfbfbf" stroke="#000000" points="177.5,-56.5 177.5,-75.5 226.5,-75.5 226.5,-56.5 177.5,-56.5"/>
<text text-anchor="middle" x="202" y="-63.5" font-family="Helvetica,sans-Serif" font-size="10.00" fill="#000000">types.h</text>
</g>
<!-- Node1 -->
<g id="node2" class="node">
<title>Node1</title>
<polygon fill="#ffffff" stroke="#bfbfbf" points="0,-.5 0,-19.5 56,-19.5 56,-.5 0,-.5"/>
<text text-anchor="middle" x="28" y="-7.5" font-family="Helvetica,sans-Serif" font-size="10.00" fill="#000000">stdbool.h</text>
</g>
<!-- Node0&#45;&gt;Node1 -->
<g id="edge1" class="edge">
<title>Node0&#45;&gt;Node1</title>
<path fill="none" stroke="#191970" d="M177.4391,-58.0953C148.3648,-48.7381 99.6272,-33.0524 65.7487,-22.149"/>
<polygon fill="#191970" stroke="#191970" points="66.775,-18.8026 56.1835,-19.0706 64.6304,-25.466 66.775,-18.8026"/>
</g>
<!-- Node2 -->
<g id="node3" class="node">
<title>Node2</title>
<polygon fill="#ffffff" stroke="#bfbfbf" points="74,-.5 74,-19.5 126,-19.5 126,-.5 74,-.5"/>
<text text-anchor="middle" x="100" y="-7.5" font-family="Helvetica,sans-Serif" font-size="10.00" fill="#000000">stddef.h</text>
</g>
<!-- Node0&#45;&gt;Node2 -->
<g id="edge2" class="edge">
<title>Node0&#45;&gt;Node2</title>
<path fill="none" stroke="#191970" d="M184.233,-56.2455C168.2905,-47.4928 144.6741,-34.527 126.5011,-24.5496"/>
<polygon fill="#191970" stroke="#191970" points="128.0137,-21.3873 117.5634,-19.6427 124.6448,-27.5233 128.0137,-21.3873"/>
</g>
<!-- Node3 -->
<g id="node4" class="node">
<title>Node3</title>
<polygon fill="#ffffff" stroke="#bfbfbf" points="144.5,-.5 144.5,-19.5 193.5,-19.5 193.5,-.5 144.5,-.5"/>
<text text-anchor="middle" x="169" y="-7.5" font-family="Helvetica,sans-Serif" font-size="10.00" fill="#000000">stdint.h</text>
</g>
<!-- Node0&#45;&gt;Node3 -->
<g id="edge3" class="edge">
<title>Node0&#45;&gt;Node3</title>
<path fill="none" stroke="#191970" d="M196.2518,-56.2455C191.7565,-48.617 185.3752,-37.7881 179.9175,-28.5267"/>
<polygon fill="#191970" stroke="#191970" points="182.7747,-26.4811 174.6823,-19.6427 176.7439,-30.035 182.7747,-26.4811"/>
</g>
<!-- Node4 -->
<g id="node5" class="node">
<title>Node4</title>
<polygon fill="#ffffff" stroke="#bfbfbf" points="212,-.5 212,-19.5 260,-19.5 260,-.5 212,-.5"/>
<text text-anchor="middle" x="236" y="-7.5" font-family="Helvetica,sans-Serif" font-size="10.00" fill="#000000">limits.h</text>
</g>
<!-- Node0&#45;&gt;Node4 -->
<g id="edge4" class="edge">
<title>Node0&#45;&gt;Node4</title>
<path fill="none" stroke="#191970" d="M207.9223,-56.2455C212.6027,-48.5367 219.2673,-37.5598 224.9289,-28.2348"/>
<polygon fill="#191970" stroke="#191970" points="227.9475,-30.007 230.1455,-19.6427 221.9639,-26.3741 227.9475,-30.007"/>
</g>
<!-- Node5 -->
<g id="node6" class="node">
<title>Node5</title>
<polygon fill="#ffffff" stroke="#bfbfbf" points="278.5,-.5 278.5,-19.5 337.5,-19.5 337.5,-.5 278.5,-.5"/>
<text text-anchor="middle" x="308" y="-7.5" font-family="Helvetica,sans-Serif" font-size="10.00" fill="#000000">stdalign.h</text>
</g>
<!-- Node0&#45;&gt;Node5 -->
<g id="edge5" class="edge">
<title>Node0&#45;&gt;Node5</title>
<path fill="none" stroke="#191970" d="M220.4638,-56.2455C237.1074,-47.4527 261.7993,-34.4079 280.7192,-24.4125"/>
<polygon fill="#191970" stroke="#191970" points="282.5408,-27.4086 289.7478,-19.6427 279.2709,-21.2193 282.5408,-27.4086"/>
</g>
<!-- Node6 -->
<g id="node7" class="node">
<title>Node6</title>
<g id="a_node7"><a xlink:href="cast_8h.html" target="_top" xlink:title="zrtos/cast.h">
<polygon fill="#ffffff" stroke="#000000" points="356,-.5 356,-19.5 424,-19.5 424,-.5 356,-.5"/>
<text text-anchor="middle" x="390" y="-7.5" font-family="Helvetica,sans-Serif" font-size="10.00" fill="#000000">zrtos/cast.h</text>
</a>
</g>
</g>
<!-- Node0&#45;&gt;Node6 -->
<g id="edge6" class="edge">
<title>Node0&#45;&gt;Node6</title>
<path fill="none" stroke="#191970" d="M226.5777,-58.679C257.4594,-49.4802 310.9274,-33.5535 348.266,-22.4314"/>
<polygon fill="#191970" stroke="#191970" points="349.2772,-25.7822 357.8619,-19.573 347.2789,-19.0735 349.2772,-25.7822"/>
</g>
</g>
</svg>
