<?xml version="1.0" encoding="UTF-8" standalone="no"?>
<!DOCTYPE svg PUBLIC "-//W3C//DTD SVG 1.1//EN"
 "http://www.w3.org/Graphics/SVG/1.1/DTD/svg11.dtd">
<!-- Generated by graphviz version 10.0.1 (20240210.2158)
 -->
<!-- Title: ISR Pages: 1 -->
<svg width="934pt" height="85pt"
 viewBox="0.00 0.00 933.75 85.00" xmlns="http://www.w3.org/2000/svg" xmlns:xlink="http://www.w3.org/1999/xlink">
<g id="graph0" class="graph" transform="scale(1 1) rotate(0) translate(4 81)">
<title>ISR</title>
<!-- Node1 -->
<g id="Node000001" class="node">
<title>Node1</title>
<g id="a_Node000001"><a xlink:title=" ">
<polygon fill="#999999" stroke="#666666" points="31.75,-39 0,-39 0,-19 31.75,-19 31.75,-39"/>
<text text-anchor="middle" x="15.88" y="-25.5" font-family="Helvetica,sans-Serif" font-size="10.00">ISR</text>
</a>
</g>
</g>
<!-- Node2 -->
<g id="Node000002" class="node">
<title>Node2</title>
<g id="a_Node000002"><a xlink:href="cbuffer_8h.html#afdb6a6176387d77a0f10e28536ba28f9" target="_top" xlink:title=" ">
<polygon fill="white" stroke="#666666" points="163.25,-39 67.75,-39 67.75,-19 163.25,-19 163.25,-39"/>
<text text-anchor="middle" x="115.5" y="-25.5" font-family="Helvetica,sans-Serif" font-size="10.00">zrtos_cbuffer__put</text>
</a>
</g>
</g>
<!-- Node1&#45;&gt;Node2 -->
<g id="edge1_Node000001_Node000002" class="edge">
<title>Node1&#45;&gt;Node2</title>
<g id="a_edge1_Node000001_Node000002"><a xlink:title=" ">
<path fill="none" stroke="#63b8ff" d="M32.13,-29C38.84,-29 47.19,-29 55.98,-29"/>
<polygon fill="#63b8ff" stroke="#63b8ff" points="55.75,-32.5 65.75,-29 55.75,-25.5 55.75,-32.5"/>
</a>
</g>
</g>
<!-- Node3 -->
<g id="Node000003" class="node">
<title>Node3</title>
<g id="a_Node000003"><a xlink:href="cbuffer_8h.html#a1846e554cfe5e72cc8df6b60ab5c6d84" target="_top" xlink:title=" ">
<polygon fill="white" stroke="#666666" points="323.62,-58 201.88,-58 201.88,-38 323.62,-38 323.62,-58"/>
<text text-anchor="middle" x="262.75" y="-44.5" font-family="Helvetica,sans-Serif" font-size="10.00">zrtos_cbuffer_node__put</text>
</a>
</g>
</g>
<!-- Node2&#45;&gt;Node3 -->
<g id="edge2_Node000002_Node000003" class="edge">
<title>Node2&#45;&gt;Node3</title>
<g id="a_edge2_Node000002_Node000003"><a xlink:title=" ">
<path fill="none" stroke="#63b8ff" d="M163.66,-35.17C172.16,-36.28 181.2,-37.46 190.21,-38.64"/>
<polygon fill="#63b8ff" stroke="#63b8ff" points="189.71,-42.11 200.08,-39.93 190.62,-35.17 189.71,-42.11"/>
</a>
</g>
</g>
<!-- Node9 -->
<g id="Node000009" class="node">
<title>Node9</title>
<g id="a_Node000009"><a xlink:href="list_8h.html#a0039f0f08299038ab1a71e271a43a086" target="_top" xlink:title=" ">
<polygon fill="white" stroke="#666666" points="326.25,-20 199.25,-20 199.25,0 326.25,0 326.25,-20"/>
<text text-anchor="middle" x="262.75" y="-6.5" font-family="Helvetica,sans-Serif" font-size="10.00">zrtos_list__get_first_node</text>
</a>
</g>
</g>
<!-- Node2&#45;&gt;Node9 -->
<g id="edge9_Node000002_Node000009" class="edge">
<title>Node2&#45;&gt;Node9</title>
<g id="a_edge9_Node000002_Node000009"><a xlink:title=" ">
<path fill="none" stroke="#63b8ff" d="M163.66,-22.83C171.4,-21.82 179.59,-20.75 187.8,-19.67"/>
<polygon fill="#63b8ff" stroke="#63b8ff" points="188.01,-23.18 197.47,-18.41 187.1,-16.23 188.01,-23.18"/>
</a>
</g>
</g>
<!-- Node3&#45;&gt;Node3 -->
<g id="edge8_Node000003_Node000003" class="edge">
<title>Node3&#45;&gt;Node3</title>
<g id="a_edge8_Node000003_Node000003"><a xlink:title=" ">
<path fill="none" stroke="#63b8ff" d="M239.35,-58.34C229.35,-66.98 237.15,-76 262.75,-76 276.75,-76 285.42,-73.3 288.78,-69.44"/>
<polygon fill="#63b8ff" stroke="#63b8ff" points="292.21,-68.74 286.5,-59.81 285.39,-70.35 292.21,-68.74"/>
</a>
</g>
</g>
<!-- Node4 -->
<g id="Node000004" class="node">
<title>Node4</title>
<g id="a_Node000004"><a xlink:href="cbuffer_8h.html#a1749e471b67565254c5dc85e0cb728a1" target="_top" xlink:title=" ">
<polygon fill="white" stroke="#666666" points="487.75,-58 362.25,-58 362.25,-38 487.75,-38 487.75,-58"/>
<text text-anchor="middle" x="425" y="-44.5" font-family="Helvetica,sans-Serif" font-size="10.00">zrtos_cbuffer_node__new</text>
</a>
</g>
</g>
<!-- Node3&#45;&gt;Node4 -->
<g id="edge3_Node000003_Node000004" class="edge">
<title>Node3&#45;&gt;Node4</title>
<g id="a_edge3_Node000003_Node000004"><a xlink:title=" ">
<path fill="none" stroke="#63b8ff" d="M323.88,-48C332.62,-48 341.7,-48 350.67,-48"/>
<polygon fill="#63b8ff" stroke="#63b8ff" points="350.42,-51.5 360.42,-48 350.42,-44.5 350.42,-51.5"/>
</a>
</g>
</g>
<!-- Node5 -->
<g id="Node000005" class="node">
<title>Node5</title>
<g id="a_Node000005"><a xlink:href="cbuffer_8h.html#aeb332726de06c905eb2db32ae3d323eb" target="_top" xlink:title=" ">
<polygon fill="white" stroke="#666666" points="621.5,-64 523.75,-64 523.75,-32 621.5,-32 621.5,-64"/>
<text text-anchor="start" x="531.75" y="-50.5" font-family="Helvetica,sans-Serif" font-size="10.00">zrtos_cbuffer_node</text>
<text text-anchor="middle" x="572.62" y="-38.5" font-family="Helvetica,sans-Serif" font-size="10.00">__init</text>
</a>
</g>
</g>
<!-- Node4&#45;&gt;Node5 -->
<g id="edge4_Node000004_Node000005" class="edge">
<title>Node4&#45;&gt;Node5</title>
<g id="a_edge4_Node000004_Node000005"><a xlink:title=" ">
<path fill="none" stroke="#63b8ff" d="M488.18,-48C496.08,-48 504.14,-48 511.99,-48"/>
<polygon fill="#63b8ff" stroke="#63b8ff" points="511.79,-51.5 521.79,-48 511.79,-44.5 511.79,-51.5"/>
</a>
</g>
</g>
<!-- Node6 -->
<g id="Node000006" class="node">
<title>Node6</title>
<g id="a_Node000006"><a xlink:href="list_8h.html#aa734984fb49603438b179f49fff38477" target="_top" xlink:title=" ">
<polygon fill="white" stroke="#666666" points="753.75,-77 666.5,-77 666.5,-57 753.75,-57 753.75,-77"/>
<text text-anchor="middle" x="710.12" y="-63.5" font-family="Helvetica,sans-Serif" font-size="10.00">zrtos_list__push</text>
</a>
</g>
</g>
<!-- Node5&#45;&gt;Node6 -->
<g id="edge5_Node000005_Node000006" class="edge">
<title>Node5&#45;&gt;Node6</title>
<g id="a_edge5_Node000005_Node000006"><a xlink:title=" ">
<path fill="none" stroke="#63b8ff" d="M621.78,-54.75C632.51,-56.26 643.95,-57.86 654.9,-59.4"/>
<polygon fill="#63b8ff" stroke="#63b8ff" points="654.2,-62.83 664.59,-60.75 655.17,-55.9 654.2,-62.83"/>
</a>
</g>
</g>
<!-- Node8 -->
<g id="Node000008" class="node">
<title>Node8</title>
<g id="a_Node000008"><a xlink:href="list_8h.html#a40feeb4cd0cc4e30201a279240b52429" target="_top" xlink:title=" ">
<polygon fill="white" stroke="#666666" points="762.75,-39 657.5,-39 657.5,-19 762.75,-19 762.75,-39"/>
<text text-anchor="middle" x="710.12" y="-25.5" font-family="Helvetica,sans-Serif" font-size="10.00">zrtos_list_node__init</text>
</a>
</g>
</g>
<!-- Node5&#45;&gt;Node8 -->
<g id="edge7_Node000005_Node000008" class="edge">
<title>Node5&#45;&gt;Node8</title>
<g id="a_edge7_Node000005_Node000008"><a xlink:title=" ">
<path fill="none" stroke="#63b8ff" d="M621.78,-41.25C629.73,-40.13 638.07,-38.96 646.32,-37.81"/>
<polygon fill="#63b8ff" stroke="#63b8ff" points="646.54,-41.31 655.95,-36.46 645.56,-34.38 646.54,-41.31"/>
</a>
</g>
</g>
<!-- Node7 -->
<g id="Node000007" class="node">
<title>Node7</title>
<g id="a_Node000007"><a xlink:href="list_8h.html#aa2f26b2b6fd722b708eb7e25cc264a90" target="_top" xlink:title=" ">
<polygon fill="white" stroke="#666666" points="925.75,-77 798.75,-77 798.75,-57 925.75,-57 925.75,-77"/>
<text text-anchor="middle" x="862.25" y="-63.5" font-family="Helvetica,sans-Serif" font-size="10.00">zrtos_list__get_last_node</text>
</a>
</g>
</g>
<!-- Node6&#45;&gt;Node7 -->
<g id="edge6_Node000006_Node000007" class="edge">
<title>Node6&#45;&gt;Node7</title>
<g id="a_edge6_Node000006_Node000007"><a xlink:title=" ">
<path fill="none" stroke="#63b8ff" d="M754.14,-67C764.48,-67 775.81,-67 787.11,-67"/>
<polygon fill="#63b8ff" stroke="#63b8ff" points="786.85,-70.5 796.85,-67 786.85,-63.5 786.85,-70.5"/>
</a>
</g>
</g>
</g>
</svg>
