<?xml version="1.0" encoding="UTF-8" standalone="no"?>
<!DOCTYPE svg PUBLIC "-//W3C//DTD SVG 1.1//EN"
 "http://www.w3.org/Graphics/SVG/1.1/DTD/svg11.dtd">
<!-- Generated by graphviz version 10.0.1 (20240210.2158)
 -->
<!-- Title: zrtos_vfs_module_uart_inode__get_cbuffer_out Pages: 1 -->
<svg width="373pt" height="66pt"
 viewBox="0.00 0.00 372.50 66.00" xmlns="http://www.w3.org/2000/svg" xmlns:xlink="http://www.w3.org/1999/xlink">
<g id="graph0" class="graph" transform="scale(1 1) rotate(0) translate(4 62)">
<title>zrtos_vfs_module_uart_inode__get_cbuffer_out</title>
<!-- Node1 -->
<g id="Node000001" class="node">
<title>Node1</title>
<g id="a_Node000001"><a xlink:title=" ">
<polygon fill="#999999" stroke="#666666" points="364.5,-45 243.5,-45 243.5,-13 364.5,-13 364.5,-45"/>
<text text-anchor="start" x="251.5" y="-31.5" font-family="Helvetica,sans-Serif" font-size="10.00">zrtos_vfs_module_uart</text>
<text text-anchor="middle" x="304" y="-19.5" font-family="Helvetica,sans-Serif" font-size="10.00">_inode__get_cbuffer_out</text>
</a>
</g>
</g>
<!-- Node2 -->
<g id="Node000002" class="node">
<title>Node2</title>
<g id="a_Node000002"><a xlink:href="avr_2uart_2uart_8h.html#a4ad82b41bf19a0c78e59277745226a13" target="_top" xlink:title=" ">
<polygon fill="white" stroke="#666666" points="207.5,-45 67.75,-45 67.75,-13 207.5,-13 207.5,-45"/>
<text text-anchor="start" x="75.75" y="-31.5" font-family="Helvetica,sans-Serif" font-size="10.00">zrtos_vfs_module_avr</text>
<text text-anchor="middle" x="137.62" y="-19.5" font-family="Helvetica,sans-Serif" font-size="10.00">_uart__on_transmit_interrupt</text>
</a>
</g>
</g>
<!-- Node1&#45;&gt;Node2 -->
<g id="edge1_Node000001_Node000002" class="edge">
<title>Node1&#45;&gt;Node2</title>
<g id="a_edge1_Node000001_Node000002"><a xlink:title=" ">
<path fill="none" stroke="#63b8ff" d="M231.73,-29C223.81,-29 215.76,-29 207.87,-29"/>
<polygon fill="#63b8ff" stroke="#63b8ff" points="231.68,-32.5 241.68,-29 231.68,-25.5 231.68,-32.5"/>
</a>
</g>
</g>
<!-- Node3 -->
<g id="Node000003" class="node">
<title>Node3</title>
<g id="a_Node000003"><a xlink:href="uart0_8h.html#a91dc2a9d312bdd124f13347731b7e1bd" target="_top" xlink:title=" ">
<polygon fill="white" stroke="#666666" points="31.75,-58 0,-58 0,-38 31.75,-38 31.75,-58"/>
<text text-anchor="middle" x="15.88" y="-44.5" font-family="Helvetica,sans-Serif" font-size="10.00">ISR</text>
</a>
</g>
</g>
<!-- Node2&#45;&gt;Node3 -->
<g id="edge2_Node000002_Node000003" class="edge">
<title>Node2&#45;&gt;Node3</title>
<g id="a_edge2_Node000002_Node000003"><a xlink:title=" ">
<path fill="none" stroke="#63b8ff" d="M56.05,-41.78C47.06,-43.21 38.77,-44.53 32.16,-45.57"/>
<polygon fill="#63b8ff" stroke="#63b8ff" points="56.49,-45.26 65.82,-40.23 55.39,-38.34 56.49,-45.26"/>
</a>
</g>
</g>
<!-- Node4 -->
<g id="Node000004" class="node">
<title>Node4</title>
<g id="a_Node000004"><a xlink:href="uart1_8h.html#ac57d848063d5538df7bd4dcf291210eb" target="_top" xlink:title=" ">
<polygon fill="white" stroke="#666666" points="31.75,-20 0,-20 0,0 31.75,0 31.75,-20"/>
<text text-anchor="middle" x="15.88" y="-6.5" font-family="Helvetica,sans-Serif" font-size="10.00">ISR</text>
</a>
</g>
</g>
<!-- Node2&#45;&gt;Node4 -->
<g id="edge3_Node000002_Node000004" class="edge">
<title>Node2&#45;&gt;Node4</title>
<g id="a_edge3_Node000002_Node000004"><a xlink:title=" ">
<path fill="none" stroke="#63b8ff" d="M56.05,-16.22C47.06,-14.79 38.77,-13.47 32.16,-12.43"/>
<polygon fill="#63b8ff" stroke="#63b8ff" points="55.39,-19.66 65.82,-17.77 56.49,-12.74 55.39,-19.66"/>
</a>
</g>
</g>
</g>
</svg>
