<?xml version="1.0" encoding="UTF-8" standalone="no"?>
<!DOCTYPE svg PUBLIC "-//W3C//DTD SVG 1.1//EN"
 "http://www.w3.org/Graphics/SVG/1.1/DTD/svg11.dtd">
<!-- Generated by graphviz version 2.40.1 (20161225.0304)
 -->
<!-- Title: uart.h Pages: 1 -->
<svg width="305pt" height="84pt"
 viewBox="0.00 0.00 304.50 84.00" xmlns="http://www.w3.org/2000/svg" xmlns:xlink="http://www.w3.org/1999/xlink">
<g id="graph0" class="graph" transform="scale(1 1) rotate(0) translate(4 80)">
<title>uart.h</title>
<polygon fill="#ffffff" stroke="transparent" points="-4,4 -4,-80 300.5,-80 300.5,4 -4,4"/>
<!-- Node21 -->
<g id="node1" class="node">
<title>Node21</title>
<polygon fill="#bfbfbf" stroke="#000000" points="133,-56.5 133,-75.5 174,-75.5 174,-56.5 133,-56.5"/>
<text text-anchor="middle" x="153.5" y="-63.5" font-family="Helvetica,sans-Serif" font-size="10.00" fill="#000000">uart.h</text>
</g>
<!-- Node22 -->
<g id="node2" class="node">
<title>Node22</title>
<g id="a_node2"><a xlink:href="uart0_8h.html" target="_top" xlink:title="uart0.h">
<polygon fill="#ffffff" stroke="#000000" points="0,-.5 0,-19.5 47,-19.5 47,-.5 0,-.5"/>
<text text-anchor="middle" x="23.5" y="-7.5" font-family="Helvetica,sans-Serif" font-size="10.00" fill="#000000">uart0.h</text>
</a>
</g>
</g>
<!-- Node21&#45;&gt;Node22 -->
<g id="edge1" class="edge">
<title>Node21&#45;&gt;Node22</title>
<path fill="none" stroke="#191970" d="M123.6513,-53.1421C99.9127,-42.9162 67.2282,-28.8367 45.7439,-19.582"/>
<polygon fill="#191970" stroke="#191970" points="122.3323,-56.3848 132.9011,-57.1266 125.1017,-49.9559 122.3323,-56.3848"/>
</g>
<!-- Node23 -->
<g id="node3" class="node">
<title>Node23</title>
<g id="a_node3"><a xlink:href="uart1_8h.html" target="_top" xlink:title="uart1.h">
<polygon fill="#ffffff" stroke="#000000" points="65,-.5 65,-19.5 112,-19.5 112,-.5 65,-.5"/>
<text text-anchor="middle" x="88.5" y="-7.5" font-family="Helvetica,sans-Serif" font-size="10.00" fill="#000000">uart1.h</text>
</a>
</g>
</g>
<!-- Node21&#45;&gt;Node23 -->
<g id="edge2" class="edge">
<title>Node21&#45;&gt;Node23</title>
<path fill="none" stroke="#191970" d="M134.5165,-49.645C123.2121,-39.9058 109.253,-27.8795 99.6924,-19.6427"/>
<polygon fill="#191970" stroke="#191970" points="132.3173,-52.3701 142.1779,-56.2455 136.8862,-47.0668 132.3173,-52.3701"/>
</g>
<!-- Node24 -->
<g id="node4" class="node">
<title>Node24</title>
<g id="a_node4"><a xlink:href="uart2_8h.html" target="_top" xlink:title="uart2.h">
<polygon fill="#ffffff" stroke="#000000" points="130,-.5 130,-19.5 177,-19.5 177,-.5 130,-.5"/>
<text text-anchor="middle" x="153.5" y="-7.5" font-family="Helvetica,sans-Serif" font-size="10.00" fill="#000000">uart2.h</text>
</a>
</g>
</g>
<!-- Node21&#45;&gt;Node24 -->
<g id="edge3" class="edge">
<title>Node21&#45;&gt;Node24</title>
<path fill="none" stroke="#191970" d="M153.5,-46.1575C153.5,-37.155 153.5,-26.9199 153.5,-19.6427"/>
<polygon fill="#191970" stroke="#191970" points="150.0001,-46.2455 153.5,-56.2455 157.0001,-46.2456 150.0001,-46.2455"/>
</g>
<!-- Node25 -->
<g id="node5" class="node">
<title>Node25</title>
<g id="a_node5"><a xlink:href="uart3_8h.html" target="_top" xlink:title="uart3.h">
<polygon fill="#ffffff" stroke="#000000" points="195,-.5 195,-19.5 242,-19.5 242,-.5 195,-.5"/>
<text text-anchor="middle" x="218.5" y="-7.5" font-family="Helvetica,sans-Serif" font-size="10.00" fill="#000000">uart3.h</text>
</a>
</g>
</g>
<!-- Node21&#45;&gt;Node25 -->
<g id="edge4" class="edge">
<title>Node21&#45;&gt;Node25</title>
<path fill="none" stroke="#191970" d="M172.4835,-49.645C183.7879,-39.9058 197.747,-27.8795 207.3076,-19.6427"/>
<polygon fill="#191970" stroke="#191970" points="170.1138,-47.0668 164.8221,-56.2455 174.6827,-52.3701 170.1138,-47.0668"/>
</g>
<!-- Node26 -->
<g id="node6" class="node">
<title>Node26</title>
<g id="a_node6"><a xlink:href="rtu_8h.html" target="_top" xlink:title="rtu.h">
<polygon fill="#ffffff" stroke="#000000" points="260.5,-.5 260.5,-19.5 296.5,-19.5 296.5,-.5 260.5,-.5"/>
<text text-anchor="middle" x="278.5" y="-7.5" font-family="Helvetica,sans-Serif" font-size="10.00" fill="#000000">rtu.h</text>
</a>
</g>
</g>
<!-- Node21&#45;&gt;Node26 -->
<g id="edge5" class="edge">
<title>Node21&#45;&gt;Node26</title>
<path fill="none" stroke="#191970" d="M183.4713,-52.5729C207.3941,-41.8554 240.132,-27.1889 260.2696,-18.1672"/>
<polygon fill="#191970" stroke="#191970" points="181.8363,-49.4701 174.1412,-56.7527 184.6982,-55.8583 181.8363,-49.4701"/>
</g>
</g>
</svg>
