<?xml version="1.0" encoding="UTF-8" standalone="no"?>
<!DOCTYPE svg PUBLIC "-//W3C//DTD SVG 1.1//EN"
 "http://www.w3.org/Graphics/SVG/1.1/DTD/svg11.dtd">
<!-- Generated by graphviz version 10.0.1 (20240210.2158)
 -->
<!-- Title: ISR Pages: 1 -->
<svg width="1122pt" height="294pt"
 viewBox="0.00 0.00 1121.50 294.00" xmlns="http://www.w3.org/2000/svg" xmlns:xlink="http://www.w3.org/1999/xlink">
<g id="graph0" class="graph" transform="scale(1 1) rotate(0) translate(4 290)">
<title>ISR</title>
<!-- Node1 -->
<g id="Node000001" class="node">
<title>Node1</title>
<g id="a_Node000001"><a xlink:title=" ">
<polygon fill="#999999" stroke="#666666" points="31.75,-89 0,-89 0,-69 31.75,-69 31.75,-89"/>
<text text-anchor="middle" x="15.88" y="-75.5" font-family="Helvetica,sans-Serif" font-size="10.00">ISR</text>
</a>
</g>
</g>
<!-- Node2 -->
<g id="Node000002" class="node">
<title>Node2</title>
<g id="a_Node000002"><a xlink:href="avr_2uart_2uart_8h.html#aea39870a896298195c0769800af5b3e2" target="_top" xlink:title=" ">
<polygon fill="white" stroke="#666666" points="202.25,-95 67.75,-95 67.75,-63 202.25,-63 202.25,-95"/>
<text text-anchor="start" x="75.75" y="-81.5" font-family="Helvetica,sans-Serif" font-size="10.00">zrtos_vfs_module_avr</text>
<text text-anchor="middle" x="135" y="-69.5" font-family="Helvetica,sans-Serif" font-size="10.00">_uart__on_receive_interrupt</text>
</a>
</g>
</g>
<!-- Node1&#45;&gt;Node2 -->
<g id="edge1_Node000001_Node000002" class="edge">
<title>Node1&#45;&gt;Node2</title>
<g id="a_edge1_Node000001_Node000002"><a xlink:title=" ">
<path fill="none" stroke="#63b8ff" d="M32.19,-79C38.84,-79 47.18,-79 56.21,-79"/>
<polygon fill="#63b8ff" stroke="#63b8ff" points="55.98,-82.5 65.98,-79 55.98,-75.5 55.98,-82.5"/>
</a>
</g>
</g>
<!-- Node3 -->
<g id="Node000003" class="node">
<title>Node3</title>
<g id="a_Node000003"><a xlink:href="cbuffer_8h.html#afdb6a6176387d77a0f10e28536ba28f9" target="_top" xlink:title=" ">
<polygon fill="white" stroke="#666666" points="345,-146 249.5,-146 249.5,-126 345,-126 345,-146"/>
<text text-anchor="middle" x="297.25" y="-132.5" font-family="Helvetica,sans-Serif" font-size="10.00">zrtos_cbuffer__put</text>
</a>
</g>
</g>
<!-- Node2&#45;&gt;Node3 -->
<g id="edge2_Node000002_Node000003" class="edge">
<title>Node2&#45;&gt;Node3</title>
<g id="a_edge2_Node000002_Node000003"><a xlink:title=" ">
<path fill="none" stroke="#63b8ff" d="M182.35,-95.49C205.76,-103.81 233.87,-113.81 256.31,-121.79"/>
<polygon fill="#63b8ff" stroke="#63b8ff" points="255.13,-125.09 265.72,-125.14 257.47,-118.49 255.13,-125.09"/>
</a>
</g>
</g>
<!-- Node13 -->
<g id="Node000013" class="node">
<title>Node13</title>
<g id="a_Node000013"><a xlink:href="error_8h.html#af58428a30fbc7fd6967e15504df633a0" target="_top" xlink:title=" ">
<polygon fill="white" stroke="#666666" points="505.75,-89 400.5,-89 400.5,-69 505.75,-69 505.75,-89"/>
<text text-anchor="middle" x="453.12" y="-75.5" font-family="Helvetica,sans-Serif" font-size="10.00">zrtos_error__is_error</text>
</a>
</g>
</g>
<!-- Node2&#45;&gt;Node13 -->
<g id="edge14_Node000002_Node000013" class="edge">
<title>Node2&#45;&gt;Node13</title>
<g id="a_edge14_Node000002_Node000013"><a xlink:title=" ">
<path fill="none" stroke="#63b8ff" d="M202.66,-79C257.5,-79 334.73,-79 388.68,-79"/>
<polygon fill="#63b8ff" stroke="#63b8ff" points="388.65,-82.5 398.65,-79 388.65,-75.5 388.65,-82.5"/>
</a>
</g>
</g>
<!-- Node14 -->
<g id="Node000014" class="node">
<title>Node14</title>
<g id="a_Node000014"><a xlink:href="error__count_8h.html#a363c818bc6ef2c68e407c999a189a441" target="_top" xlink:title=" ">
<polygon fill="white" stroke="#666666" points="356.25,-70 238.25,-70 238.25,-50 356.25,-50 356.25,-70"/>
<text text-anchor="middle" x="297.25" y="-56.5" font-family="Helvetica,sans-Serif" font-size="10.00">zrtos_error_count__add</text>
</a>
</g>
</g>
<!-- Node2&#45;&gt;Node14 -->
<g id="edge15_Node000002_Node000014" class="edge">
<title>Node2&#45;&gt;Node14</title>
<g id="a_edge15_Node000002_Node000014"><a xlink:title=" ">
<path fill="none" stroke="#63b8ff" d="M202.57,-71.11C210.52,-70.16 218.65,-69.2 226.64,-68.25"/>
<polygon fill="#63b8ff" stroke="#63b8ff" points="226.79,-71.76 236.31,-67.11 225.96,-64.81 226.79,-71.76"/>
</a>
</g>
</g>
<!-- Node15 -->
<g id="Node000015" class="node">
<title>Node15</title>
<g id="a_Node000015"><a xlink:href="uart_2uart_8h.html#a8b394d1c76748a8e3d98603fe7145ebc" target="_top" xlink:title=" ">
<polygon fill="white" stroke="#666666" points="353.62,-32 240.88,-32 240.88,0 353.62,0 353.62,-32"/>
<text text-anchor="start" x="248.88" y="-18.5" font-family="Helvetica,sans-Serif" font-size="10.00">zrtos_vfs_module_uart</text>
<text text-anchor="middle" x="297.25" y="-6.5" font-family="Helvetica,sans-Serif" font-size="10.00">_args__get_cbuffer_in</text>
</a>
</g>
</g>
<!-- Node2&#45;&gt;Node15 -->
<g id="edge17_Node000002_Node000015" class="edge">
<title>Node2&#45;&gt;Node15</title>
<g id="a_edge17_Node000002_Node000015"><a xlink:title=" ">
<path fill="none" stroke="#63b8ff" d="M177.69,-62.61C197.92,-54.66 222.43,-45.02 243.91,-36.58"/>
<polygon fill="#63b8ff" stroke="#63b8ff" points="245.06,-39.89 253.09,-32.97 242.5,-33.37 245.06,-39.89"/>
</a>
</g>
</g>
<!-- Node4 -->
<g id="Node000004" class="node">
<title>Node4</title>
<g id="a_Node000004"><a xlink:href="cbuffer_8h.html#a1846e554cfe5e72cc8df6b60ab5c6d84" target="_top" xlink:title=" ">
<polygon fill="white" stroke="#666666" points="514,-205 392.25,-205 392.25,-185 514,-185 514,-205"/>
<text text-anchor="middle" x="453.12" y="-191.5" font-family="Helvetica,sans-Serif" font-size="10.00">zrtos_cbuffer_node__put</text>
</a>
</g>
</g>
<!-- Node3&#45;&gt;Node4 -->
<g id="edge3_Node000003_Node000004" class="edge">
<title>Node3&#45;&gt;Node4</title>
<g id="a_edge3_Node000003_Node000004"><a xlink:title=" ">
<path fill="none" stroke="#63b8ff" d="M325.41,-146.41C350.16,-155.9 386.96,-170.02 414.54,-180.59"/>
<polygon fill="#63b8ff" stroke="#63b8ff" points="412.98,-183.74 423.57,-184.05 415.49,-177.2 412.98,-183.74"/>
</a>
</g>
</g>
<!-- Node10 -->
<g id="Node000010" class="node">
<title>Node10</title>
<g id="a_Node000010"><a xlink:href="list_8h.html#aa2f26b2b6fd722b708eb7e25cc264a90" target="_top" xlink:title=" ">
<polygon fill="white" stroke="#666666" points="1113.5,-183 986.5,-183 986.5,-163 1113.5,-163 1113.5,-183"/>
<text text-anchor="middle" x="1050" y="-169.5" font-family="Helvetica,sans-Serif" font-size="10.00">zrtos_list__get_last_node</text>
</a>
</g>
</g>
<!-- Node3&#45;&gt;Node10 -->
<g id="edge13_Node000003_Node000010" class="edge">
<title>Node3&#45;&gt;Node10</title>
<g id="a_edge13_Node000003_Node000010"><a xlink:title=" ">
<path fill="none" stroke="#63b8ff" d="M345.24,-133.57C406.54,-130.61 517.13,-126 611.75,-126 611.75,-126 611.75,-126 761.38,-126 845.81,-126 942.38,-145.97 999.39,-159.88"/>
<polygon fill="#63b8ff" stroke="#63b8ff" points="998.23,-163.2 1008.78,-162.2 999.92,-156.4 998.23,-163.2"/>
</a>
</g>
</g>
<!-- Node4&#45;&gt;Node4 -->
<g id="edge12_Node000004_Node000004" class="edge">
<title>Node4&#45;&gt;Node4</title>
<g id="a_edge12_Node000004_Node000004"><a xlink:title=" ">
<path fill="none" stroke="#63b8ff" d="M428.36,-205.34C417.77,-213.98 426.03,-223 453.12,-223 467.94,-223 477.13,-220.3 480.68,-216.44"/>
<polygon fill="#63b8ff" stroke="#63b8ff" points="484.09,-215.66 478.26,-206.81 477.3,-217.36 484.09,-215.66"/>
</a>
</g>
</g>
<!-- Node5 -->
<g id="Node000005" class="node">
<title>Node5</title>
<g id="a_Node000005"><a xlink:href="cbuffer_8h.html#a0f069b28d310b9b6586aeb37ec2fb1f3" target="_top" xlink:title=" ">
<polygon fill="white" stroke="#666666" points="661.62,-270 563.88,-270 563.88,-238 661.62,-238 661.62,-270"/>
<text text-anchor="start" x="571.88" y="-256.5" font-family="Helvetica,sans-Serif" font-size="10.00">zrtos_cbuffer_node</text>
<text text-anchor="middle" x="612.75" y="-244.5" font-family="Helvetica,sans-Serif" font-size="10.00">__get_free_space</text>
</a>
</g>
</g>
<!-- Node4&#45;&gt;Node5 -->
<g id="edge4_Node000004_Node000005" class="edge">
<title>Node4&#45;&gt;Node5</title>
<g id="a_edge4_Node000004_Node000005"><a xlink:title=" ">
<path fill="none" stroke="#63b8ff" d="M481.94,-205.41C502.74,-213.2 531.85,-224.09 557.24,-233.6"/>
<polygon fill="#63b8ff" stroke="#63b8ff" points="555.84,-236.81 566.43,-237.04 558.3,-230.25 555.84,-236.81"/>
</a>
</g>
</g>
<!-- Node7 -->
<g id="Node000007" class="node">
<title>Node7</title>
<g id="a_Node000007"><a xlink:href="cbuffer_8h.html#a1749e471b67565254c5dc85e0cb728a1" target="_top" xlink:title=" ">
<polygon fill="white" stroke="#666666" points="675.5,-205 550,-205 550,-185 675.5,-185 675.5,-205"/>
<text text-anchor="middle" x="612.75" y="-191.5" font-family="Helvetica,sans-Serif" font-size="10.00">zrtos_cbuffer_node__new</text>
</a>
</g>
</g>
<!-- Node4&#45;&gt;Node7 -->
<g id="edge6_Node000004_Node000007" class="edge">
<title>Node4&#45;&gt;Node7</title>
<g id="a_edge6_Node000004_Node000007"><a xlink:title=" ">
<path fill="none" stroke="#63b8ff" d="M514.17,-195C522.03,-195 530.16,-195 538.22,-195"/>
<polygon fill="#63b8ff" stroke="#63b8ff" points="538.01,-198.5 548.01,-195 538.01,-191.5 538.01,-198.5"/>
</a>
</g>
</g>
<!-- Node6 -->
<g id="Node000006" class="node">
<title>Node6</title>
<g id="a_Node000006"><a xlink:href="cbuffer_8h.html#a640a4e58217d5c24d6e795f0fca19440" target="_top" xlink:title=" ">
<polygon fill="white" stroke="#666666" points="809.25,-286 711.5,-286 711.5,-254 809.25,-254 809.25,-286"/>
<text text-anchor="start" x="719.5" y="-272.5" font-family="Helvetica,sans-Serif" font-size="10.00">zrtos_cbuffer_node</text>
<text text-anchor="middle" x="760.38" y="-260.5" font-family="Helvetica,sans-Serif" font-size="10.00">__get_length</text>
</a>
</g>
</g>
<!-- Node5&#45;&gt;Node6 -->
<g id="edge5_Node000005_Node000006" class="edge">
<title>Node5&#45;&gt;Node6</title>
<g id="a_edge5_Node000005_Node000006"><a xlink:title=" ">
<path fill="none" stroke="#63b8ff" d="M661.84,-259.28C674.02,-260.62 687.24,-262.07 699.91,-263.47"/>
<polygon fill="#63b8ff" stroke="#63b8ff" points="699.51,-266.94 709.83,-264.56 700.28,-259.99 699.51,-266.94"/>
</a>
</g>
</g>
<!-- Node8 -->
<g id="Node000008" class="node">
<title>Node8</title>
<g id="a_Node000008"><a xlink:href="cbuffer_8h.html#aeb332726de06c905eb2db32ae3d323eb" target="_top" xlink:title=" ">
<polygon fill="white" stroke="#666666" points="809.25,-236 711.5,-236 711.5,-204 809.25,-204 809.25,-236"/>
<text text-anchor="start" x="719.5" y="-222.5" font-family="Helvetica,sans-Serif" font-size="10.00">zrtos_cbuffer_node</text>
<text text-anchor="middle" x="760.38" y="-210.5" font-family="Helvetica,sans-Serif" font-size="10.00">__init</text>
</a>
</g>
</g>
<!-- Node7&#45;&gt;Node8 -->
<g id="edge7_Node000007_Node000008" class="edge">
<title>Node7&#45;&gt;Node8</title>
<g id="a_edge7_Node000007_Node000008"><a xlink:title=" ">
<path fill="none" stroke="#63b8ff" d="M674.66,-205.46C683.02,-206.89 691.6,-208.36 699.93,-209.79"/>
<polygon fill="#63b8ff" stroke="#63b8ff" points="699.16,-213.21 709.61,-211.46 700.34,-206.31 699.16,-213.21"/>
</a>
</g>
</g>
<!-- Node12 -->
<g id="Node000012" class="node">
<title>Node12</title>
<g id="a_Node000012"><a xlink:href="malloc__limit_8h.html#a219ea8916b582afe8c2120d09abf8656" target="_top" xlink:title=" ">
<polygon fill="white" stroke="#666666" points="807.75,-186 713,-186 713,-154 807.75,-154 807.75,-186"/>
<text text-anchor="start" x="721" y="-172.5" font-family="Helvetica,sans-Serif" font-size="10.00">zrtos_malloc_limit</text>
<text text-anchor="middle" x="760.38" y="-160.5" font-family="Helvetica,sans-Serif" font-size="10.00">__malloc</text>
</a>
</g>
</g>
<!-- Node7&#45;&gt;Node12 -->
<g id="edge11_Node000007_Node000012" class="edge">
<title>Node7&#45;&gt;Node12</title>
<g id="a_edge11_Node000007_Node000012"><a xlink:title=" ">
<path fill="none" stroke="#63b8ff" d="M674.66,-184.54C683.65,-183 692.89,-181.41 701.8,-179.88"/>
<polygon fill="#63b8ff" stroke="#63b8ff" points="702.13,-183.38 711.39,-178.24 700.95,-176.48 702.13,-183.38"/>
</a>
</g>
</g>
<!-- Node9 -->
<g id="Node000009" class="node">
<title>Node9</title>
<g id="a_Node000009"><a xlink:href="list_8h.html#aa734984fb49603438b179f49fff38477" target="_top" xlink:title=" ">
<polygon fill="white" stroke="#666666" points="941.5,-230 854.25,-230 854.25,-210 941.5,-210 941.5,-230"/>
<text text-anchor="middle" x="897.88" y="-216.5" font-family="Helvetica,sans-Serif" font-size="10.00">zrtos_list__push</text>
</a>
</g>
</g>
<!-- Node8&#45;&gt;Node9 -->
<g id="edge8_Node000008_Node000009" class="edge">
<title>Node8&#45;&gt;Node9</title>
<g id="a_edge8_Node000008_Node000009"><a xlink:title=" ">
<path fill="none" stroke="#63b8ff" d="M809.53,-220C820.26,-220 831.7,-220 842.65,-220"/>
<polygon fill="#63b8ff" stroke="#63b8ff" points="842.32,-223.5 852.32,-220 842.32,-216.5 842.32,-223.5"/>
</a>
</g>
</g>
<!-- Node11 -->
<g id="Node000011" class="node">
<title>Node11</title>
<g id="a_Node000011"><a xlink:href="list_8h.html#a40feeb4cd0cc4e30201a279240b52429" target="_top" xlink:title=" ">
<polygon fill="white" stroke="#666666" points="950.5,-192 845.25,-192 845.25,-172 950.5,-172 950.5,-192"/>
<text text-anchor="middle" x="897.88" y="-178.5" font-family="Helvetica,sans-Serif" font-size="10.00">zrtos_list_node__init</text>
</a>
</g>
</g>
<!-- Node8&#45;&gt;Node11 -->
<g id="edge10_Node000008_Node000011" class="edge">
<title>Node8&#45;&gt;Node11</title>
<g id="a_edge10_Node000008_Node000011"><a xlink:title=" ">
<path fill="none" stroke="#63b8ff" d="M809.53,-206.5C822.24,-202.93 835.95,-199.09 848.66,-195.52"/>
<polygon fill="#63b8ff" stroke="#63b8ff" points="849.38,-198.95 858.07,-192.88 847.49,-192.21 849.38,-198.95"/>
</a>
</g>
</g>
<!-- Node9&#45;&gt;Node10 -->
<g id="edge9_Node000009_Node000010" class="edge">
<title>Node9&#45;&gt;Node10</title>
<g id="a_edge9_Node000009_Node000010"><a xlink:title=" ">
<path fill="none" stroke="#63b8ff" d="M932.19,-209.57C953.5,-202.9 981.38,-194.17 1004.56,-186.91"/>
<polygon fill="#63b8ff" stroke="#63b8ff" points="1005.57,-190.26 1014.07,-183.94 1003.48,-183.58 1005.57,-190.26"/>
</a>
</g>
</g>
<!-- Node14&#45;&gt;Node13 -->
<g id="edge16_Node000014_Node000013" class="edge">
<title>Node14&#45;&gt;Node13</title>
<g id="a_edge16_Node000014_Node000013"><a xlink:title=" ">
<path fill="none" stroke="#63b8ff" d="M356.42,-67.18C367.16,-68.51 378.42,-69.9 389.29,-71.24"/>
<polygon fill="#63b8ff" stroke="#63b8ff" points="388.58,-74.68 398.93,-72.43 389.44,-67.73 388.58,-74.68"/>
</a>
</g>
</g>
</g>
</svg>
