<?xml version="1.0" encoding="UTF-8" standalone="no"?>
<!DOCTYPE svg PUBLIC "-//W3C//DTD SVG 1.1//EN"
 "http://www.w3.org/Graphics/SVG/1.1/DTD/svg11.dtd">
<!-- Generated by graphviz version 2.40.1 (20161225.0304)
 -->
<!-- Title: zrtos_vfs_module_avr_uart2__on_write Pages: 1 -->
<svg width="1412pt" height="511pt"
 viewBox="0.00 0.00 1412.00 510.50" xmlns="http://www.w3.org/2000/svg" xmlns:xlink="http://www.w3.org/1999/xlink">
<g id="graph0" class="graph" transform="scale(1 1) rotate(0) translate(4 506.5)">
<title>zrtos_vfs_module_avr_uart2__on_write</title>
<polygon fill="#ffffff" stroke="transparent" points="-4,4 -4,-506.5 1408,-506.5 1408,4 -4,4"/>
<!-- Node41 -->
<g id="node1" class="node">
<title>Node41</title>
<polygon fill="#bfbfbf" stroke="#000000" points="0,-229.5 0,-259.5 113,-259.5 113,-229.5 0,-229.5"/>
<text text-anchor="start" x="8" y="-247.5" font-family="Helvetica,sans-Serif" font-size="10.00" fill="#000000">zrtos_vfs_module_avr</text>
<text text-anchor="middle" x="56.5" y="-236.5" font-family="Helvetica,sans-Serif" font-size="10.00" fill="#000000">_uart2__on_write</text>
</g>
<!-- Node42 -->
<g id="node2" class="node">
<title>Node42</title>
<g id="a_node2"><a xlink:href="uart_2uart_8h.html#a9e735d9796aaa30e4a5fce9c763adf92" target="_top" xlink:title="zrtos_vfs_module_uart\l__on_write">
<polygon fill="#ffffff" stroke="#000000" points="165,-278.5 165,-308.5 281,-308.5 281,-278.5 165,-278.5"/>
<text text-anchor="start" x="173" y="-296.5" font-family="Helvetica,sans-Serif" font-size="10.00" fill="#000000">zrtos_vfs_module_uart</text>
<text text-anchor="middle" x="223" y="-285.5" font-family="Helvetica,sans-Serif" font-size="10.00" fill="#000000">__on_write</text>
</a>
</g>
</g>
<!-- Node41&#45;&gt;Node42 -->
<g id="edge1" class="edge">
<title>Node41&#45;&gt;Node42</title>
<path fill="none" stroke="#191970" d="M107.8141,-259.6014C124.9862,-264.6551 144.2952,-270.3376 162.125,-275.5848"/>
<polygon fill="#191970" stroke="#191970" points="161.274,-278.9828 171.8554,-278.4484 163.2503,-272.2675 161.274,-278.9828"/>
</g>
<!-- Node48 -->
<g id="node8" class="node">
<title>Node48</title>
<g id="a_node8"><a xlink:href="error_8h.html#add13298163f63b7d37ed9f12d57e1a31" target="_top" xlink:title="zrtos_error__is_success">
<polygon fill="#ffffff" stroke="#000000" points="493,-432 493,-451 616,-451 616,-432 493,-432"/>
<text text-anchor="middle" x="554.5" y="-439" font-family="Helvetica,sans-Serif" font-size="10.00" fill="#000000">zrtos_error__is_success</text>
</a>
</g>
</g>
<!-- Node41&#45;&gt;Node48 -->
<g id="edge31" class="edge">
<title>Node41&#45;&gt;Node48</title>
<path fill="none" stroke="#191970" d="M60.1864,-259.7364C69.0663,-292.7807 95.017,-370.8437 149,-405.5 254.7305,-473.3775 409.1607,-464.3433 493.6675,-452.484"/>
<polygon fill="#191970" stroke="#191970" points="494.2303,-455.939 503.6186,-451.0287 493.2173,-449.0127 494.2303,-455.939"/>
</g>
<!-- Node68 -->
<g id="node28" class="node">
<title>Node68</title>
<g id="a_node28"><a xlink:href="uart2_8h.html#ab235c61161ec0b9c2899d1700a55feb6" target="_top" xlink:title="ZRTOS_VFS_PLUGIN__INIT">
<polygon fill="#ffffff" stroke="#000000" points="149,-328 149,-347 297,-347 297,-328 149,-328"/>
<text text-anchor="middle" x="223" y="-335" font-family="Helvetica,sans-Serif" font-size="10.00" fill="#000000">ZRTOS_VFS_PLUGIN__INIT</text>
</a>
</g>
</g>
<!-- Node41&#45;&gt;Node68 -->
<g id="edge32" class="edge">
<title>Node41&#45;&gt;Node68</title>
<path fill="none" stroke="#191970" d="M71.5104,-259.5655C88.775,-276.0761 118.662,-302.2402 149,-317.5 154.5395,-320.2863 160.5139,-322.7209 166.5814,-324.8395"/>
<polygon fill="#191970" stroke="#191970" points="165.5522,-328.185 176.1435,-327.9138 167.6947,-321.5209 165.5522,-328.185"/>
</g>
<!-- Node69 -->
<g id="node29" class="node">
<title>Node69</title>
<g id="a_node29"><a xlink:href="uart2_8h.html#a38a5cf860eb80ff299465dace7624a9a" target="_top" xlink:title="zrtos_vfs_module_avr\l_uart2__on_mount">
<polygon fill="#ffffff" stroke="#000000" points="166.5,-366.5 166.5,-396.5 279.5,-396.5 279.5,-366.5 166.5,-366.5"/>
<text text-anchor="start" x="174.5" y="-384.5" font-family="Helvetica,sans-Serif" font-size="10.00" fill="#000000">zrtos_vfs_module_avr</text>
<text text-anchor="middle" x="223" y="-373.5" font-family="Helvetica,sans-Serif" font-size="10.00" fill="#000000">_uart2__on_mount</text>
</a>
</g>
</g>
<!-- Node41&#45;&gt;Node69 -->
<g id="edge33" class="edge">
<title>Node41&#45;&gt;Node69</title>
<path fill="none" stroke="#191970" d="M65.2663,-259.8487C79.7183,-283.8353 110.7848,-330.1795 149,-356.5 151.8792,-358.4831 154.9291,-360.3203 158.0859,-362.0209"/>
<polygon fill="#191970" stroke="#191970" points="156.6895,-365.2337 167.2132,-366.4595 159.7509,-358.9386 156.6895,-365.2337"/>
</g>
<!-- Node72 -->
<g id="node32" class="node">
<title>Node72</title>
<g id="a_node32"><a xlink:href="uart2_8h.html#abd713744e57ce9d58462dfde4c61e844" target="_top" xlink:title="zrtos_vfs_module_avr\l_uart2__on_umount">
<polygon fill="#ffffff" stroke="#000000" points="166.5,-229.5 166.5,-259.5 279.5,-259.5 279.5,-229.5 166.5,-229.5"/>
<text text-anchor="start" x="174.5" y="-247.5" font-family="Helvetica,sans-Serif" font-size="10.00" fill="#000000">zrtos_vfs_module_avr</text>
<text text-anchor="middle" x="223" y="-236.5" font-family="Helvetica,sans-Serif" font-size="10.00" fill="#000000">_uart2__on_umount</text>
</a>
</g>
</g>
<!-- Node41&#45;&gt;Node72 -->
<g id="edge36" class="edge">
<title>Node41&#45;&gt;Node72</title>
<path fill="none" stroke="#191970" d="M113.3342,-244.5C127.131,-244.5 142.0077,-244.5 156.2177,-244.5"/>
<polygon fill="#191970" stroke="#191970" points="156.422,-248.0001 166.422,-244.5 156.4219,-241.0001 156.422,-248.0001"/>
</g>
<!-- Node73 -->
<g id="node33" class="node">
<title>Node73</title>
<g id="a_node33"><a xlink:href="uart_2uart_8h.html#a6a55bd7ce001957fedb1647045d64cf9" target="_top" xlink:title="zrtos_vfs_module_uart\l__on_read">
<polygon fill="#ffffff" stroke="#000000" points="165,-180.5 165,-210.5 281,-210.5 281,-180.5 165,-180.5"/>
<text text-anchor="start" x="173" y="-198.5" font-family="Helvetica,sans-Serif" font-size="10.00" fill="#000000">zrtos_vfs_module_uart</text>
<text text-anchor="middle" x="223" y="-187.5" font-family="Helvetica,sans-Serif" font-size="10.00" fill="#000000">__on_read</text>
</a>
</g>
</g>
<!-- Node41&#45;&gt;Node73 -->
<g id="edge37" class="edge">
<title>Node41&#45;&gt;Node73</title>
<path fill="none" stroke="#191970" d="M107.8141,-229.3986C124.9862,-224.3449 144.2952,-218.6624 162.125,-213.4152"/>
<polygon fill="#191970" stroke="#191970" points="163.2503,-216.7325 171.8554,-210.5516 161.274,-210.0172 163.2503,-216.7325"/>
</g>
<!-- Node80 -->
<g id="node40" class="node">
<title>Node80</title>
<g id="a_node40"><a xlink:href="uart_2uart_8h.html#ae0df07d6b2030b70ae3c65b98ab0d15a" target="_top" xlink:title="zrtos_vfs_module_uart\l__on_can_read">
<polygon fill="#ffffff" stroke="#000000" points="165,-82.5 165,-112.5 281,-112.5 281,-82.5 165,-82.5"/>
<text text-anchor="start" x="173" y="-100.5" font-family="Helvetica,sans-Serif" font-size="10.00" fill="#000000">zrtos_vfs_module_uart</text>
<text text-anchor="middle" x="223" y="-89.5" font-family="Helvetica,sans-Serif" font-size="10.00" fill="#000000">__on_can_read</text>
</a>
</g>
</g>
<!-- Node41&#45;&gt;Node80 -->
<g id="edge47" class="edge">
<title>Node41&#45;&gt;Node80</title>
<path fill="none" stroke="#191970" d="M63.9576,-229.2512C77.3925,-203.3357 108.1122,-150.6783 149,-121.5 151.1163,-119.9898 153.3327,-118.571 155.6223,-117.2384"/>
<polygon fill="#191970" stroke="#191970" points="157.4831,-120.2165 164.7587,-112.5148 154.2682,-113.9984 157.4831,-120.2165"/>
</g>
<!-- Node84 -->
<g id="node44" class="node">
<title>Node84</title>
<g id="a_node44"><a xlink:href="uart_2uart_8h.html#aceac60cc4f8d7474e117088335ff0db7" target="_top" xlink:title="zrtos_vfs_module_uart\l__on_can_write">
<polygon fill="#ffffff" stroke="#000000" points="165,-33.5 165,-63.5 281,-63.5 281,-33.5 165,-33.5"/>
<text text-anchor="start" x="173" y="-51.5" font-family="Helvetica,sans-Serif" font-size="10.00" fill="#000000">zrtos_vfs_module_uart</text>
<text text-anchor="middle" x="223" y="-40.5" font-family="Helvetica,sans-Serif" font-size="10.00" fill="#000000">__on_can_write</text>
</a>
</g>
</g>
<!-- Node41&#45;&gt;Node84 -->
<g id="edge54" class="edge">
<title>Node41&#45;&gt;Node84</title>
<path fill="none" stroke="#191970" d="M60.4396,-229.3975C69.9019,-196.0878 97.0694,-115.8424 149,-72.5 151.2358,-70.6339 153.62,-68.912 156.1117,-67.323"/>
<polygon fill="#191970" stroke="#191970" points="157.8977,-70.3347 164.9381,-62.4173 154.4971,-64.2162 157.8977,-70.3347"/>
</g>
<!-- Node86 -->
<g id="node46" class="node">
<title>Node86</title>
<g id="a_node46"><a xlink:href="uart_2uart_8h.html#ad7c2b1650fefd09f873588725a30a2be" target="_top" xlink:title="zrtos_vfs_module_uart\l__on_ioctl">
<polygon fill="#ffffff" stroke="#000000" points="165,-131.5 165,-161.5 281,-161.5 281,-131.5 165,-131.5"/>
<text text-anchor="start" x="173" y="-149.5" font-family="Helvetica,sans-Serif" font-size="10.00" fill="#000000">zrtos_vfs_module_uart</text>
<text text-anchor="middle" x="223" y="-138.5" font-family="Helvetica,sans-Serif" font-size="10.00" fill="#000000">__on_ioctl</text>
</a>
</g>
</g>
<!-- Node41&#45;&gt;Node86 -->
<g id="edge57" class="edge">
<title>Node41&#45;&gt;Node86</title>
<path fill="none" stroke="#191970" d="M71.6155,-229.4965C88.9744,-213.0002 118.9456,-186.6924 149,-170.5 152.2846,-168.7303 155.7221,-167.0631 159.2411,-165.4969"/>
<polygon fill="#191970" stroke="#191970" points="160.7947,-168.6419 168.6978,-161.5857 158.1193,-162.1734 160.7947,-168.6419"/>
</g>
<!-- Node43 -->
<g id="node3" class="node">
<title>Node43</title>
<g id="a_node3"><a xlink:href="vfs__file_8h.html#af192d2176bcd9a795fe8253a0759b0c7" target="_top" xlink:title="zrtos_vfs_file__get\l_inode_data">
<polygon fill="#ffffff" stroke="#000000" points="345.5,-131.5 345.5,-161.5 444.5,-161.5 444.5,-131.5 345.5,-131.5"/>
<text text-anchor="start" x="353.5" y="-149.5" font-family="Helvetica,sans-Serif" font-size="10.00" fill="#000000">zrtos_vfs_file__get</text>
<text text-anchor="middle" x="395" y="-138.5" font-family="Helvetica,sans-Serif" font-size="10.00" fill="#000000">_inode_data</text>
</a>
</g>
</g>
<!-- Node42&#45;&gt;Node43 -->
<g id="edge2" class="edge">
<title>Node42&#45;&gt;Node43</title>
<path fill="none" stroke="#191970" d="M281.2434,-279.5483C287.0016,-276.5529 292.4042,-272.9158 297,-268.5 329.2592,-237.5044 302.3041,-207.0445 333,-174.5 335.5831,-171.7613 338.4841,-169.2706 341.5839,-167.0085"/>
<polygon fill="#191970" stroke="#191970" points="343.6155,-169.8642 350.1714,-161.5412 339.8562,-163.9593 343.6155,-169.8642"/>
</g>
<!-- Node44 -->
<g id="node4" class="node">
<title>Node44</title>
<g id="a_node4"><a xlink:href="cbuffer_8h.html#a5d269503e04946737598d2062c5bfaf4" target="_top" xlink:title="zrtos_cbuffer__put_ex">
<polygon fill="#ffffff" stroke="#000000" points="338.5,-295 338.5,-314 451.5,-314 451.5,-295 338.5,-295"/>
<text text-anchor="middle" x="395" y="-302" font-family="Helvetica,sans-Serif" font-size="10.00" fill="#000000">zrtos_cbuffer__put_ex</text>
</a>
</g>
</g>
<!-- Node42&#45;&gt;Node44 -->
<g id="edge3" class="edge">
<title>Node42&#45;&gt;Node44</title>
<path fill="none" stroke="#191970" d="M281.2314,-297.2241C296.3412,-298.1904 312.7321,-299.2387 328.2428,-300.2306"/>
<polygon fill="#191970" stroke="#191970" points="328.0831,-303.7275 338.2861,-300.8729 328.5299,-296.7418 328.0831,-303.7275"/>
</g>
<!-- Node45 -->
<g id="node5" class="node">
<title>Node45</title>
<g id="a_node5"><a xlink:href="cbuffer_8h.html#aaf9c5c04a1350c2cdd906f7c7081ee38" target="_top" xlink:title="zrtos_cbuffer__start\l_write_transaction">
<polygon fill="#ffffff" stroke="#000000" points="502.5,-333.5 502.5,-363.5 606.5,-363.5 606.5,-333.5 502.5,-333.5"/>
<text text-anchor="start" x="510.5" y="-351.5" font-family="Helvetica,sans-Serif" font-size="10.00" fill="#000000">zrtos_cbuffer__start</text>
<text text-anchor="middle" x="554.5" y="-340.5" font-family="Helvetica,sans-Serif" font-size="10.00" fill="#000000">_write_transaction</text>
</a>
</g>
</g>
<!-- Node44&#45;&gt;Node45 -->
<g id="edge4" class="edge">
<title>Node44&#45;&gt;Node45</title>
<path fill="none" stroke="#191970" d="M429.6091,-314.0473C448.0422,-319.1323 471.2728,-325.5408 492.6843,-331.4474"/>
<polygon fill="#191970" stroke="#191970" points="491.7996,-334.834 502.3703,-334.1194 493.6612,-328.0861 491.7996,-334.834"/>
</g>
<!-- Node44&#45;&gt;Node48 -->
<g id="edge7" class="edge">
<title>Node44&#45;&gt;Node48</title>
<path fill="none" stroke="#191970" d="M442.9004,-314.078C448.0666,-316.5362 452.9187,-319.6233 457,-323.5 490.9458,-355.7441 459.0909,-390.2173 493,-422.5 494.644,-424.0652 496.4143,-425.5016 498.2806,-426.8198"/>
<polygon fill="#191970" stroke="#191970" points="496.578,-429.8784 506.9829,-431.8754 500.0943,-423.8257 496.578,-429.8784"/>
</g>
<!-- Node49 -->
<g id="node9" class="node">
<title>Node49</title>
<g id="a_node9"><a xlink:href="cbuffer_8h.html#afdb6a6176387d77a0f10e28536ba28f9" target="_top" xlink:title="zrtos_cbuffer__put">
<polygon fill="#ffffff" stroke="#000000" points="505.5,-394 505.5,-413 603.5,-413 603.5,-394 505.5,-394"/>
<text text-anchor="middle" x="554.5" y="-401" font-family="Helvetica,sans-Serif" font-size="10.00" fill="#000000">zrtos_cbuffer__put</text>
</a>
</g>
</g>
<!-- Node44&#45;&gt;Node49 -->
<g id="edge8" class="edge">
<title>Node44&#45;&gt;Node49</title>
<path fill="none" stroke="#191970" d="M439.0158,-314.1076C445.3705,-316.5738 451.5835,-319.6554 457,-323.5 479.0367,-339.1414 472.3666,-355.0491 493,-372.5 501.0111,-379.2755 510.756,-385.0483 520.105,-389.7099"/>
<polygon fill="#191970" stroke="#191970" points="518.7032,-392.9182 529.243,-393.9969 521.6764,-386.581 518.7032,-392.9182"/>
</g>
<!-- Node58 -->
<g id="node18" class="node">
<title>Node58</title>
<g id="a_node18"><a xlink:href="error_8h.html#af58428a30fbc7fd6967e15504df633a0" target="_top" xlink:title="zrtos_error__is_error">
<polygon fill="#ffffff" stroke="#000000" points="501.5,-295 501.5,-314 607.5,-314 607.5,-295 501.5,-295"/>
<text text-anchor="middle" x="554.5" y="-302" font-family="Helvetica,sans-Serif" font-size="10.00" fill="#000000">zrtos_error__is_error</text>
</a>
</g>
</g>
<!-- Node44&#45;&gt;Node58 -->
<g id="edge19" class="edge">
<title>Node44&#45;&gt;Node58</title>
<path fill="none" stroke="#191970" d="M451.6828,-304.5C464.4711,-304.5 478.1252,-304.5 491.167,-304.5"/>
<polygon fill="#191970" stroke="#191970" points="491.4668,-308.0001 501.4667,-304.5 491.4667,-301.0001 491.4668,-308.0001"/>
</g>
<!-- Node59 -->
<g id="node19" class="node">
<title>Node59</title>
<g id="a_node19"><a xlink:href="cbuffer_8h.html#a9aa1ad8581d3c89304d2ff464a53e92e" target="_top" xlink:title="zrtos_cbuffer__rollback\l_write_transaction">
<polygon fill="#ffffff" stroke="#000000" points="495.5,-245.5 495.5,-275.5 613.5,-275.5 613.5,-245.5 495.5,-245.5"/>
<text text-anchor="start" x="503.5" y="-263.5" font-family="Helvetica,sans-Serif" font-size="10.00" fill="#000000">zrtos_cbuffer__rollback</text>
<text text-anchor="middle" x="554.5" y="-252.5" font-family="Helvetica,sans-Serif" font-size="10.00" fill="#000000">_write_transaction</text>
</a>
</g>
</g>
<!-- Node44&#45;&gt;Node59 -->
<g id="edge20" class="edge">
<title>Node44&#45;&gt;Node59</title>
<path fill="none" stroke="#191970" d="M429.6091,-294.9527C447.3264,-290.0651 469.4758,-283.9549 490.1821,-278.2429"/>
<polygon fill="#191970" stroke="#191970" points="491.1789,-281.5987 499.8881,-275.5654 489.3173,-274.8508 491.1789,-281.5987"/>
</g>
<!-- Node46 -->
<g id="node6" class="node">
<title>Node46</title>
<g id="a_node6"><a xlink:href="cbuffer_8h.html#afe959077d3357696d26590a123e56d62" target="_top" xlink:title="zrtos_cbuffer__get\l_last_node">
<polygon fill="#ffffff" stroke="#000000" points="665,-309.5 665,-339.5 763,-339.5 763,-309.5 665,-309.5"/>
<text text-anchor="start" x="673" y="-327.5" font-family="Helvetica,sans-Serif" font-size="10.00" fill="#000000">zrtos_cbuffer__get</text>
<text text-anchor="middle" x="714" y="-316.5" font-family="Helvetica,sans-Serif" font-size="10.00" fill="#000000">_last_node</text>
</a>
</g>
</g>
<!-- Node45&#45;&gt;Node46 -->
<g id="edge5" class="edge">
<title>Node45&#45;&gt;Node46</title>
<path fill="none" stroke="#191970" d="M606.7263,-340.6415C622.0791,-338.3314 638.983,-335.7878 654.7419,-333.4166"/>
<polygon fill="#191970" stroke="#191970" points="655.5366,-336.8365 664.9045,-331.8874 654.495,-329.9144 655.5366,-336.8365"/>
</g>
<!-- Node47 -->
<g id="node7" class="node">
<title>Node47</title>
<g id="a_node7"><a xlink:href="list_8h.html#a0f2fe7ff1e14a9237a955a4925b062e2" target="_top" xlink:title="zrtos_list__get_last_node">
<polygon fill="#ffffff" stroke="#000000" points="1276,-419 1276,-438 1404,-438 1404,-419 1276,-419"/>
<text text-anchor="middle" x="1340" y="-426" font-family="Helvetica,sans-Serif" font-size="10.00" fill="#000000">zrtos_list__get_last_node</text>
</a>
</g>
</g>
<!-- Node46&#45;&gt;Node47 -->
<g id="edge6" class="edge">
<title>Node46&#45;&gt;Node47</title>
<path fill="none" stroke="#191970" d="M763.138,-320.1514C858.6302,-313.5592 1074.4117,-307.8306 1240,-371.5 1268.3395,-382.3967 1298.2646,-400.4371 1317.9106,-413.3032"/>
<polygon fill="#191970" stroke="#191970" points="1316.1619,-416.3438 1326.4241,-418.9777 1320.0443,-410.5191 1316.1619,-416.3438"/>
</g>
<!-- Node49&#45;&gt;Node47 -->
<g id="edge9" class="edge">
<title>Node49&#45;&gt;Node47</title>
<path fill="none" stroke="#191970" d="M585.5142,-413.0825C665.9401,-437.9277 875.0567,-502.5 876,-502.5 876,-502.5 876,-502.5 1026,-502.5 1130.8775,-502.5 1250.3312,-462.9062 1306.9221,-441.6421"/>
<polygon fill="#191970" stroke="#191970" points="1308.321,-444.8546 1316.4189,-438.0227 1305.828,-438.3136 1308.321,-444.8546"/>
</g>
<!-- Node50 -->
<g id="node10" class="node">
<title>Node50</title>
<g id="a_node10"><a xlink:href="cbuffer_8h.html#a1846e554cfe5e72cc8df6b60ab5c6d84" target="_top" xlink:title="zrtos_cbuffer_node__put">
<polygon fill="#ffffff" stroke="#000000" points="652,-398 652,-417 776,-417 776,-398 652,-398"/>
<text text-anchor="middle" x="714" y="-405" font-family="Helvetica,sans-Serif" font-size="10.00" fill="#000000">zrtos_cbuffer_node__put</text>
</a>
</g>
</g>
<!-- Node49&#45;&gt;Node50 -->
<g id="edge10" class="edge">
<title>Node49&#45;&gt;Node50</title>
<path fill="none" stroke="#191970" d="M603.6567,-404.7328C615.6461,-405.0334 628.7228,-405.3614 641.5459,-405.683"/>
<polygon fill="#191970" stroke="#191970" points="641.665,-409.187 651.7497,-405.9389 641.8406,-402.1892 641.665,-409.187"/>
</g>
<!-- Node51 -->
<g id="node11" class="node">
<title>Node51</title>
<g id="a_node11"><a xlink:href="cbuffer_8h.html#a0f069b28d310b9b6586aeb37ec2fb1f3" target="_top" xlink:title="zrtos_cbuffer_node\l__get_free_space">
<polygon fill="#ffffff" stroke="#000000" points="826,-441.5 826,-471.5 926,-471.5 926,-441.5 826,-441.5"/>
<text text-anchor="start" x="834" y="-459.5" font-family="Helvetica,sans-Serif" font-size="10.00" fill="#000000">zrtos_cbuffer_node</text>
<text text-anchor="middle" x="876" y="-448.5" font-family="Helvetica,sans-Serif" font-size="10.00" fill="#000000">__get_free_space</text>
</a>
</g>
</g>
<!-- Node50&#45;&gt;Node51 -->
<g id="edge11" class="edge">
<title>Node50&#45;&gt;Node51</title>
<path fill="none" stroke="#191970" d="M745.6198,-417.064C765.7713,-423.1592 792.5166,-431.2488 816.537,-438.5143"/>
<polygon fill="#191970" stroke="#191970" points="815.7009,-441.9179 826.286,-441.463 817.7275,-435.2177 815.7009,-441.9179"/>
</g>
<!-- Node53 -->
<g id="node13" class="node">
<title>Node53</title>
<g id="a_node13"><a xlink:href="cbuffer_8h.html#a3cbe982fcebf0d5bbcdae29e3caca316" target="_top" xlink:title="zrtos_cbuffer_node__new">
<polygon fill="#ffffff" stroke="#000000" points="812,-398 812,-417 940,-417 940,-398 812,-398"/>
<text text-anchor="middle" x="876" y="-405" font-family="Helvetica,sans-Serif" font-size="10.00" fill="#000000">zrtos_cbuffer_node__new</text>
</a>
</g>
</g>
<!-- Node50&#45;&gt;Node53 -->
<g id="edge13" class="edge">
<title>Node50&#45;&gt;Node53</title>
<path fill="none" stroke="#191970" d="M776.1701,-407.5C784.5715,-407.5 793.259,-407.5 801.8433,-407.5"/>
<polygon fill="#191970" stroke="#191970" points="801.8498,-411.0001 811.8497,-407.5 801.8497,-404.0001 801.8498,-411.0001"/>
</g>
<!-- Node52 -->
<g id="node12" class="node">
<title>Node52</title>
<g id="a_node12"><a xlink:href="cbuffer_8h.html#a640a4e58217d5c24d6e795f0fca19440" target="_top" xlink:title="zrtos_cbuffer_node\l__get_length">
<polygon fill="#ffffff" stroke="#000000" points="976,-443.5 976,-473.5 1076,-473.5 1076,-443.5 976,-443.5"/>
<text text-anchor="start" x="984" y="-461.5" font-family="Helvetica,sans-Serif" font-size="10.00" fill="#000000">zrtos_cbuffer_node</text>
<text text-anchor="middle" x="1026" y="-450.5" font-family="Helvetica,sans-Serif" font-size="10.00" fill="#000000">__get_length</text>
</a>
</g>
</g>
<!-- Node51&#45;&gt;Node52 -->
<g id="edge12" class="edge">
<title>Node51&#45;&gt;Node52</title>
<path fill="none" stroke="#191970" d="M926.3651,-457.1715C938.9236,-457.339 952.5187,-457.5202 965.5099,-457.6935"/>
<polygon fill="#191970" stroke="#191970" points="965.722,-461.1965 975.7678,-457.8302 965.8154,-454.1971 965.722,-461.1965"/>
</g>
<!-- Node54 -->
<g id="node14" class="node">
<title>Node54</title>
<g id="a_node14"><a xlink:href="malloc__limit_8h.html#ad8180a24feb846d598a7a5a6053eb3cc" target="_top" xlink:title="zrtos_malloc_limit\l__malloc">
<polygon fill="#ffffff" stroke="#000000" points="978.5,-345.5 978.5,-375.5 1073.5,-375.5 1073.5,-345.5 978.5,-345.5"/>
<text text-anchor="start" x="986.5" y="-363.5" font-family="Helvetica,sans-Serif" font-size="10.00" fill="#000000">zrtos_malloc_limit</text>
<text text-anchor="middle" x="1026" y="-352.5" font-family="Helvetica,sans-Serif" font-size="10.00" fill="#000000">__malloc</text>
</a>
</g>
</g>
<!-- Node53&#45;&gt;Node54 -->
<g id="edge14" class="edge">
<title>Node53&#45;&gt;Node54</title>
<path fill="none" stroke="#191970" d="M906.3547,-397.9888C924.2458,-392.383 947.466,-385.1073 968.6838,-378.4591"/>
<polygon fill="#191970" stroke="#191970" points="969.7693,-381.7868 978.2653,-375.4569 967.6762,-375.1071 969.7693,-381.7868"/>
</g>
<!-- Node55 -->
<g id="node15" class="node">
<title>Node55</title>
<g id="a_node15"><a xlink:href="cbuffer_8h.html#aeb332726de06c905eb2db32ae3d323eb" target="_top" xlink:title="zrtos_cbuffer_node\l__init">
<polygon fill="#ffffff" stroke="#000000" points="976,-394.5 976,-424.5 1076,-424.5 1076,-394.5 976,-394.5"/>
<text text-anchor="start" x="984" y="-412.5" font-family="Helvetica,sans-Serif" font-size="10.00" fill="#000000">zrtos_cbuffer_node</text>
<text text-anchor="middle" x="1026" y="-401.5" font-family="Helvetica,sans-Serif" font-size="10.00" fill="#000000">__init</text>
</a>
</g>
</g>
<!-- Node53&#45;&gt;Node55 -->
<g id="edge15" class="edge">
<title>Node53&#45;&gt;Node55</title>
<path fill="none" stroke="#191970" d="M940.0486,-408.354C948.5402,-408.4672 957.2232,-408.583 965.6495,-408.6953"/>
<polygon fill="#191970" stroke="#191970" points="965.7245,-412.1965 975.7703,-408.8303 965.8179,-405.1972 965.7245,-412.1965"/>
</g>
<!-- Node56 -->
<g id="node16" class="node">
<title>Node56</title>
<g id="a_node16"><a xlink:href="list_8h.html#a40feeb4cd0cc4e30201a279240b52429" target="_top" xlink:title="zrtos_list_node__init">
<polygon fill="#ffffff" stroke="#000000" points="1123,-381 1123,-400 1229,-400 1229,-381 1123,-381"/>
<text text-anchor="middle" x="1176" y="-388" font-family="Helvetica,sans-Serif" font-size="10.00" fill="#000000">zrtos_list_node__init</text>
</a>
</g>
</g>
<!-- Node55&#45;&gt;Node56 -->
<g id="edge16" class="edge">
<title>Node55&#45;&gt;Node56</title>
<path fill="none" stroke="#191970" d="M1076.3651,-403.1204C1088.0678,-401.6381 1100.6707,-400.0417 1112.8463,-398.4995"/>
<polygon fill="#191970" stroke="#191970" points="1113.4632,-401.9494 1122.9441,-397.2204 1112.5835,-395.0049 1113.4632,-401.9494"/>
</g>
<!-- Node57 -->
<g id="node17" class="node">
<title>Node57</title>
<g id="a_node17"><a xlink:href="list_8h.html#aa734984fb49603438b179f49fff38477" target="_top" xlink:title="zrtos_list__push">
<polygon fill="#ffffff" stroke="#000000" points="1132,-419 1132,-438 1220,-438 1220,-419 1132,-419"/>
<text text-anchor="middle" x="1176" y="-426" font-family="Helvetica,sans-Serif" font-size="10.00" fill="#000000">zrtos_list__push</text>
</a>
</g>
</g>
<!-- Node55&#45;&gt;Node57 -->
<g id="edge17" class="edge">
<title>Node55&#45;&gt;Node57</title>
<path fill="none" stroke="#191970" d="M1076.3651,-415.8796C1090.8871,-417.719 1106.7953,-419.7341 1121.5529,-421.6034"/>
<polygon fill="#191970" stroke="#191970" points="1121.1942,-425.0858 1131.5548,-422.8703 1122.0739,-418.1413 1121.1942,-425.0858"/>
</g>
<!-- Node57&#45;&gt;Node47 -->
<g id="edge18" class="edge">
<title>Node57&#45;&gt;Node47</title>
<path fill="none" stroke="#191970" d="M1220.3808,-428.5C1234.3877,-428.5 1250.2644,-428.5 1265.7674,-428.5"/>
<polygon fill="#191970" stroke="#191970" points="1265.8777,-432.0001 1275.8777,-428.5 1265.8777,-425.0001 1265.8777,-432.0001"/>
</g>
<!-- Node59&#45;&gt;Node46 -->
<g id="edge21" class="edge">
<title>Node59&#45;&gt;Node46</title>
<path fill="none" stroke="#191970" d="M591.8957,-275.5052C614.3124,-284.5 643.0188,-296.0185 666.9649,-305.627"/>
<polygon fill="#191970" stroke="#191970" points="665.9785,-309.0024 676.5626,-309.4781 668.5853,-302.5058 665.9785,-309.0024"/>
</g>
<!-- Node60 -->
<g id="node20" class="node">
<title>Node60</title>
<g id="a_node20"><a xlink:href="cbuffer_8h.html#ae358d265d5a1d44fa930473e3834bc4c" target="_top" xlink:title="zrtos_cbuffer_node\l__get_next_node">
<polygon fill="#ffffff" stroke="#000000" points="664,-260.5 664,-290.5 764,-290.5 764,-260.5 664,-260.5"/>
<text text-anchor="start" x="672" y="-278.5" font-family="Helvetica,sans-Serif" font-size="10.00" fill="#000000">zrtos_cbuffer_node</text>
<text text-anchor="middle" x="714" y="-267.5" font-family="Helvetica,sans-Serif" font-size="10.00" fill="#000000">__get_next_node</text>
</a>
</g>
</g>
<!-- Node59&#45;&gt;Node60 -->
<g id="edge22" class="edge">
<title>Node59&#45;&gt;Node60</title>
<path fill="none" stroke="#191970" d="M613.8919,-266.0854C626.891,-267.3079 640.6635,-268.6031 653.6978,-269.829"/>
<polygon fill="#191970" stroke="#191970" points="653.6802,-273.3426 663.964,-270.7944 654.3357,-266.3734 653.6802,-273.3426"/>
</g>
<!-- Node62 -->
<g id="node22" class="node">
<title>Node62</title>
<g id="a_node22"><a xlink:href="cbuffer_8h.html#afc85ab6d8226b4a1b93d11c2ba1203f6" target="_top" xlink:title="zrtos_cbuffer_node\l__free">
<polygon fill="#ffffff" stroke="#000000" points="826,-134.5 826,-164.5 926,-164.5 926,-134.5 826,-134.5"/>
<text text-anchor="start" x="834" y="-152.5" font-family="Helvetica,sans-Serif" font-size="10.00" fill="#000000">zrtos_cbuffer_node</text>
<text text-anchor="middle" x="876" y="-141.5" font-family="Helvetica,sans-Serif" font-size="10.00" fill="#000000">__free</text>
</a>
</g>
</g>
<!-- Node59&#45;&gt;Node62 -->
<g id="edge24" class="edge">
<title>Node59&#45;&gt;Node62</title>
<path fill="none" stroke="#191970" d="M598.1935,-245.4145C656.5364,-225.2712 759.811,-189.615 822.6731,-167.9115"/>
<polygon fill="#191970" stroke="#191970" points="824.0918,-171.1245 832.402,-164.5525 821.8073,-164.5077 824.0918,-171.1245"/>
</g>
<!-- Node61 -->
<g id="node21" class="node">
<title>Node61</title>
<g id="a_node21"><a xlink:href="list_8h.html#a454de0a8188c1b5a4ffeddd230b42c93" target="_top" xlink:title="zrtos_list_node__get\l_next_node">
<polygon fill="#ffffff" stroke="#000000" points="822.5,-257.5 822.5,-287.5 929.5,-287.5 929.5,-257.5 822.5,-257.5"/>
<text text-anchor="start" x="830.5" y="-275.5" font-family="Helvetica,sans-Serif" font-size="10.00" fill="#000000">zrtos_list_node__get</text>
<text text-anchor="middle" x="876" y="-264.5" font-family="Helvetica,sans-Serif" font-size="10.00" fill="#000000">_next_node</text>
</a>
</g>
</g>
<!-- Node60&#45;&gt;Node61 -->
<g id="edge23" class="edge">
<title>Node60&#45;&gt;Node61</title>
<path fill="none" stroke="#191970" d="M764.3698,-274.5672C779.4558,-274.2879 796.2043,-273.9777 812.0422,-273.6844"/>
<polygon fill="#191970" stroke="#191970" points="812.3585,-277.1792 822.2919,-273.4946 812.2288,-270.1804 812.3585,-277.1792"/>
</g>
<!-- Node63 -->
<g id="node23" class="node">
<title>Node63</title>
<g id="a_node23"><a xlink:href="list_8h.html#a2b11d9c6f775a209430f16b719a19617" target="_top" xlink:title="zrtos_list__delete">
<polygon fill="#ffffff" stroke="#000000" points="979.5,-96 979.5,-115 1072.5,-115 1072.5,-96 979.5,-96"/>
<text text-anchor="middle" x="1026" y="-103" font-family="Helvetica,sans-Serif" font-size="10.00" fill="#000000">zrtos_list__delete</text>
</a>
</g>
</g>
<!-- Node62&#45;&gt;Node63 -->
<g id="edge25" class="edge">
<title>Node62&#45;&gt;Node63</title>
<path fill="none" stroke="#191970" d="M926.3651,-134.7262C944.8633,-129.3001 965.6108,-123.2142 983.3645,-118.0064"/>
<polygon fill="#191970" stroke="#191970" points="984.8215,-121.2266 993.432,-115.0533 982.8511,-114.5096 984.8215,-121.2266"/>
</g>
<!-- Node66 -->
<g id="node26" class="node">
<title>Node66</title>
<g id="a_node26"><a xlink:href="malloc__limit_8h.html#ad9dc03f9dd447b3ffb64b0ec3873f61f" target="_top" xlink:title="zrtos_malloc_limit\l__free">
<polygon fill="#ffffff" stroke="#000000" points="978.5,-134.5 978.5,-164.5 1073.5,-164.5 1073.5,-134.5 978.5,-134.5"/>
<text text-anchor="start" x="986.5" y="-152.5" font-family="Helvetica,sans-Serif" font-size="10.00" fill="#000000">zrtos_malloc_limit</text>
<text text-anchor="middle" x="1026" y="-141.5" font-family="Helvetica,sans-Serif" font-size="10.00" fill="#000000">__free</text>
</a>
</g>
</g>
<!-- Node62&#45;&gt;Node66 -->
<g id="edge29" class="edge">
<title>Node62&#45;&gt;Node66</title>
<path fill="none" stroke="#191970" d="M926.3651,-149.5C939.7261,-149.5 954.2606,-149.5 967.9928,-149.5"/>
<polygon fill="#191970" stroke="#191970" points="968.3048,-153.0001 978.3048,-149.5 968.3047,-146.0001 968.3048,-153.0001"/>
</g>
<!-- Node64 -->
<g id="node24" class="node">
<title>Node64</title>
<g id="a_node24"><a xlink:href="list_8h.html#a5a9358f4b25c9376dbdef338fa8333a6" target="_top" xlink:title="zrtos_list__get_first_node">
<polygon fill="#ffffff" stroke="#000000" points="1276,-80 1276,-99 1404,-99 1404,-80 1276,-80"/>
<text text-anchor="middle" x="1340" y="-87" font-family="Helvetica,sans-Serif" font-size="10.00" fill="#000000">zrtos_list__get_first_node</text>
</a>
</g>
</g>
<!-- Node63&#45;&gt;Node64 -->
<g id="edge26" class="edge">
<title>Node63&#45;&gt;Node64</title>
<path fill="none" stroke="#191970" d="M1068.6523,-95.9626C1082.4138,-93.3166 1097.7848,-90.8111 1112,-89.5 1163.1947,-84.7782 1221.1308,-84.8477 1265.7899,-86.0621"/>
<polygon fill="#191970" stroke="#191970" points="1265.8752,-89.5661 1275.9748,-86.365 1266.0833,-82.5692 1265.8752,-89.5661"/>
</g>
<!-- Node65 -->
<g id="node25" class="node">
<title>Node65</title>
<g id="a_node25"><a xlink:href="list_8h.html#aee76d71632ab03e18ad9358fc8b35044" target="_top" xlink:title="zrtos_list__shift">
<polygon fill="#ffffff" stroke="#000000" points="1133,-99 1133,-118 1219,-118 1219,-99 1133,-99"/>
<text text-anchor="middle" x="1176" y="-106" font-family="Helvetica,sans-Serif" font-size="10.00" fill="#000000">zrtos_list__shift</text>
</a>
</g>
</g>
<!-- Node63&#45;&gt;Node65 -->
<g id="edge27" class="edge">
<title>Node63&#45;&gt;Node65</title>
<path fill="none" stroke="#191970" d="M1072.6387,-106.4328C1088.4415,-106.7488 1106.2144,-107.1043 1122.5079,-107.4302"/>
<polygon fill="#191970" stroke="#191970" points="1122.8978,-110.9386 1132.9658,-107.6393 1123.0378,-103.94 1122.8978,-110.9386"/>
</g>
<!-- Node65&#45;&gt;Node64 -->
<g id="edge28" class="edge">
<title>Node65&#45;&gt;Node64</title>
<path fill="none" stroke="#191970" d="M1219.0891,-103.508C1233.3357,-101.8575 1249.6222,-99.9706 1265.5278,-98.1279"/>
<polygon fill="#191970" stroke="#191970" points="1266.369,-101.5539 1275.8997,-96.9263 1265.5633,-94.6004 1266.369,-101.5539"/>
</g>
<!-- Node67 -->
<g id="node27" class="node">
<title>Node67</title>
<g id="a_node27"><a xlink:href="malloc_8h.html#aeba49dabb0a21ae4e02fa137e195bb1d" target="_top" xlink:title="zrtos_malloc__get_length">
<polygon fill="#ffffff" stroke="#000000" points="1112,-140 1112,-159 1240,-159 1240,-140 1112,-140"/>
<text text-anchor="middle" x="1176" y="-147" font-family="Helvetica,sans-Serif" font-size="10.00" fill="#000000">zrtos_malloc__get_length</text>
</a>
</g>
</g>
<!-- Node66&#45;&gt;Node67 -->
<g id="edge30" class="edge">
<title>Node66&#45;&gt;Node67</title>
<path fill="none" stroke="#191970" d="M1073.8734,-149.5C1082.7514,-149.5 1092.2155,-149.5 1101.6656,-149.5"/>
<polygon fill="#191970" stroke="#191970" points="1101.886,-153.0001 1111.8859,-149.5 1101.8859,-146.0001 1101.886,-153.0001"/>
</g>
<!-- Node70 -->
<g id="node30" class="node">
<title>Node70</title>
<g id="a_node30"><a xlink:href="vfs__dentry_8h.html#adafc5dd5281c9a2ee71f45a6ba6fd5c6" target="_top" xlink:title="zrtos_vfs_dentry__get\l_inode_data">
<polygon fill="#ffffff" stroke="#000000" points="338.5,-382.5 338.5,-412.5 451.5,-412.5 451.5,-382.5 338.5,-382.5"/>
<text text-anchor="start" x="346.5" y="-400.5" font-family="Helvetica,sans-Serif" font-size="10.00" fill="#000000">zrtos_vfs_dentry__get</text>
<text text-anchor="middle" x="395" y="-389.5" font-family="Helvetica,sans-Serif" font-size="10.00" fill="#000000">_inode_data</text>
</a>
</g>
</g>
<!-- Node69&#45;&gt;Node70 -->
<g id="edge34" class="edge">
<title>Node69&#45;&gt;Node70</title>
<path fill="none" stroke="#191970" d="M279.7959,-386.7833C295.2075,-388.217 312.0389,-389.7827 327.9582,-391.2636"/>
<polygon fill="#191970" stroke="#191970" points="327.9825,-394.7808 338.2637,-392.2222 328.6309,-387.8109 327.9825,-394.7808"/>
</g>
<!-- Node71 -->
<g id="node31" class="node">
<title>Node71</title>
<g id="a_node31"><a xlink:href="avr_2uart_2uart_8h.html#ae7970c6edb532436a6886394d1bdf42f" target="_top" xlink:title="zrtos_vfs_module_avr\l_uart__baud_select">
<polygon fill="#ffffff" stroke="#000000" points="338.5,-333.5 338.5,-363.5 451.5,-363.5 451.5,-333.5 338.5,-333.5"/>
<text text-anchor="start" x="346.5" y="-351.5" font-family="Helvetica,sans-Serif" font-size="10.00" fill="#000000">zrtos_vfs_module_avr</text>
<text text-anchor="middle" x="395" y="-340.5" font-family="Helvetica,sans-Serif" font-size="10.00" fill="#000000">_uart__baud_select</text>
</a>
</g>
</g>
<!-- Node69&#45;&gt;Node71 -->
<g id="edge35" class="edge">
<title>Node69&#45;&gt;Node71</title>
<path fill="none" stroke="#191970" d="M279.7959,-370.6031C295.3543,-367.6181 312.3596,-364.3554 328.4128,-361.2754"/>
<polygon fill="#191970" stroke="#191970" points="329.1023,-364.7071 338.2637,-359.3854 327.7833,-357.8325 329.1023,-364.7071"/>
</g>
<!-- Node73&#45;&gt;Node43 -->
<g id="edge38" class="edge">
<title>Node73&#45;&gt;Node43</title>
<path fill="none" stroke="#191970" d="M276.0091,-180.3986C294.9238,-175.0101 316.3479,-168.9067 335.7536,-163.3783"/>
<polygon fill="#191970" stroke="#191970" points="336.7363,-166.7377 345.3947,-160.6317 334.8184,-160.0056 336.7363,-166.7377"/>
</g>
<!-- Node74 -->
<g id="node34" class="node">
<title>Node74</title>
<g id="a_node34"><a xlink:href="cbuffer_8h.html#af79ee923f715f4f8d2ea27b725501174" target="_top" xlink:title="zrtos_cbuffer__get_ex">
<polygon fill="#ffffff" stroke="#000000" points="338.5,-184 338.5,-203 451.5,-203 451.5,-184 338.5,-184"/>
<text text-anchor="middle" x="395" y="-191" font-family="Helvetica,sans-Serif" font-size="10.00" fill="#000000">zrtos_cbuffer__get_ex</text>
</a>
</g>
</g>
<!-- Node73&#45;&gt;Node74 -->
<g id="edge39" class="edge">
<title>Node73&#45;&gt;Node74</title>
<path fill="none" stroke="#191970" d="M281.2314,-194.8229C296.3412,-194.6472 312.7321,-194.4566 328.2428,-194.2762"/>
<polygon fill="#191970" stroke="#191970" points="328.3275,-197.7756 338.2861,-194.1595 328.246,-190.7761 328.3275,-197.7756"/>
</g>
<!-- Node75 -->
<g id="node35" class="node">
<title>Node75</title>
<g id="a_node35"><a xlink:href="cbuffer_8h.html#a1a9cc4256c634d99003e2397924df20a" target="_top" xlink:title="zrtos_cbuffer__get">
<polygon fill="#ffffff" stroke="#000000" points="505.5,-184 505.5,-203 603.5,-203 603.5,-184 505.5,-184"/>
<text text-anchor="middle" x="554.5" y="-191" font-family="Helvetica,sans-Serif" font-size="10.00" fill="#000000">zrtos_cbuffer__get</text>
</a>
</g>
</g>
<!-- Node74&#45;&gt;Node75 -->
<g id="edge40" class="edge">
<title>Node74&#45;&gt;Node75</title>
<path fill="none" stroke="#191970" d="M451.6828,-193.5C465.8051,-193.5 480.9833,-193.5 495.2267,-193.5"/>
<polygon fill="#191970" stroke="#191970" points="495.4045,-197.0001 505.4045,-193.5 495.4044,-190.0001 495.4045,-197.0001"/>
</g>
<!-- Node79 -->
<g id="node39" class="node">
<title>Node79</title>
<g id="a_node39"><a xlink:href="types_8h.html#adbc4238237e656eb247fd49ffbfb1a6d" target="_top" xlink:title="zrtos_types__ptr_get\l_byte_distance">
<polygon fill="#ffffff" stroke="#000000" points="500.5,-134.5 500.5,-164.5 608.5,-164.5 608.5,-134.5 500.5,-134.5"/>
<text text-anchor="start" x="508.5" y="-152.5" font-family="Helvetica,sans-Serif" font-size="10.00" fill="#000000">zrtos_types__ptr_get</text>
<text text-anchor="middle" x="554.5" y="-141.5" font-family="Helvetica,sans-Serif" font-size="10.00" fill="#000000">_byte_distance</text>
</a>
</g>
</g>
<!-- Node74&#45;&gt;Node79 -->
<g id="edge46" class="edge">
<title>Node74&#45;&gt;Node79</title>
<path fill="none" stroke="#191970" d="M429.6091,-183.9527C447.4055,-179.0433 469.6737,-172.9004 490.4594,-167.1664"/>
<polygon fill="#191970" stroke="#191970" points="491.4906,-170.5127 500.1997,-164.4794 489.629,-163.7648 491.4906,-170.5127"/>
</g>
<!-- Node75&#45;&gt;Node64 -->
<g id="edge41" class="edge">
<title>Node75&#45;&gt;Node64</title>
<path fill="none" stroke="#191970" d="M603.5209,-193.5C666.5631,-193.5 779.4384,-193.5 876,-193.5 876,-193.5 876,-193.5 1026,-193.5 1121.7579,-193.5 1151.5223,-205.1233 1240,-168.5 1274.1653,-154.3581 1306.3411,-125.0118 1324.5642,-106.34"/>
<polygon fill="#191970" stroke="#191970" points="1327.1271,-108.724 1331.485,-99.0669 1322.056,-103.8986 1327.1271,-108.724"/>
</g>
<!-- Node76 -->
<g id="node36" class="node">
<title>Node76</title>
<g id="a_node36"><a xlink:href="cbuffer_8h.html#ad0932ffc31c7150402dc49c28cbf2000" target="_top" xlink:title="zrtos_cbuffer_node__get">
<polygon fill="#ffffff" stroke="#000000" points="652,-115 652,-134 776,-134 776,-115 652,-115"/>
<text text-anchor="middle" x="714" y="-122" font-family="Helvetica,sans-Serif" font-size="10.00" fill="#000000">zrtos_cbuffer_node__get</text>
</a>
</g>
</g>
<!-- Node75&#45;&gt;Node76 -->
<g id="edge42" class="edge">
<title>Node75&#45;&gt;Node76</title>
<path fill="none" stroke="#191970" d="M587.0651,-183.9097C596.5039,-180.8622 606.7542,-177.2901 616,-173.5 640.9573,-163.2694 668.3334,-149.339 687.792,-138.9462"/>
<polygon fill="#191970" stroke="#191970" points="689.5241,-141.9886 696.6631,-134.1601 686.2004,-135.828 689.5241,-141.9886"/>
</g>
<!-- Node76&#45;&gt;Node62 -->
<g id="edge45" class="edge">
<title>Node76&#45;&gt;Node62</title>
<path fill="none" stroke="#191970" d="M775.7074,-134.0227C788.7601,-136.037 802.5224,-138.1609 815.5287,-140.168"/>
<polygon fill="#191970" stroke="#191970" points="815.3526,-143.6822 825.7695,-141.7484 816.4203,-136.7641 815.3526,-143.6822"/>
</g>
<!-- Node77 -->
<g id="node37" class="node">
<title>Node77</title>
<g id="a_node37"><a xlink:href="cbuffer_8h.html#aa70b33844c0b38a531615564dc35840e" target="_top" xlink:title="zrtos_cbuffer_node\l__is_empty">
<polygon fill="#ffffff" stroke="#000000" points="826,-36.5 826,-66.5 926,-66.5 926,-36.5 826,-36.5"/>
<text text-anchor="start" x="834" y="-54.5" font-family="Helvetica,sans-Serif" font-size="10.00" fill="#000000">zrtos_cbuffer_node</text>
<text text-anchor="middle" x="876" y="-43.5" font-family="Helvetica,sans-Serif" font-size="10.00" fill="#000000">__is_empty</text>
</a>
</g>
</g>
<!-- Node76&#45;&gt;Node77 -->
<g id="edge43" class="edge">
<title>Node76&#45;&gt;Node77</title>
<path fill="none" stroke="#191970" d="M731.7938,-114.8948C751.2276,-104.5722 783.4043,-87.9697 812,-75.5 815.9159,-73.7924 819.996,-72.0905 824.1168,-70.4263"/>
<polygon fill="#191970" stroke="#191970" points="825.7296,-73.5527 833.7476,-66.6272 823.1609,-67.041 825.7296,-73.5527"/>
</g>
<!-- Node78 -->
<g id="node38" class="node">
<title>Node78</title>
<g id="a_node38"><a xlink:href="list_8h.html#a7262d2a0c144ef76b0f45193cebb8227" target="_top" xlink:title="zrtos_list_node__has\l_next_node">
<polygon fill="#ffffff" stroke="#000000" points="821.5,-85.5 821.5,-115.5 930.5,-115.5 930.5,-85.5 821.5,-85.5"/>
<text text-anchor="start" x="829.5" y="-103.5" font-family="Helvetica,sans-Serif" font-size="10.00" fill="#000000">zrtos_list_node__has</text>
<text text-anchor="middle" x="876" y="-92.5" font-family="Helvetica,sans-Serif" font-size="10.00" fill="#000000">_next_node</text>
</a>
</g>
</g>
<!-- Node76&#45;&gt;Node78 -->
<g id="edge44" class="edge">
<title>Node76&#45;&gt;Node78</title>
<path fill="none" stroke="#191970" d="M776.1701,-115.2896C787.6952,-113.5822 799.7587,-111.795 811.3555,-110.077"/>
<polygon fill="#191970" stroke="#191970" points="812.0221,-113.5165 821.4012,-108.5887 810.9962,-106.5921 812.0221,-113.5165"/>
</g>
<!-- Node80&#45;&gt;Node43 -->
<g id="edge48" class="edge">
<title>Node80&#45;&gt;Node43</title>
<path fill="none" stroke="#191970" d="M276.0091,-112.6014C294.9238,-117.9899 316.3479,-124.0933 335.7536,-129.6217"/>
<polygon fill="#191970" stroke="#191970" points="334.8184,-132.9944 345.3947,-132.3683 336.7363,-126.2623 334.8184,-132.9944"/>
</g>
<!-- Node81 -->
<g id="node41" class="node">
<title>Node81</title>
<g id="a_node41"><a xlink:href="cbuffer_8h.html#ab86e2564d7bc0b53fe019ab228b22415" target="_top" xlink:title="zrtos_cbuffer__can_read">
<polygon fill="#ffffff" stroke="#000000" points="333,-86 333,-105 457,-105 457,-86 333,-86"/>
<text text-anchor="middle" x="395" y="-93" font-family="Helvetica,sans-Serif" font-size="10.00" fill="#000000">zrtos_cbuffer__can_read</text>
</a>
</g>
</g>
<!-- Node80&#45;&gt;Node81 -->
<g id="edge49" class="edge">
<title>Node80&#45;&gt;Node81</title>
<path fill="none" stroke="#191970" d="M281.2314,-96.8229C294.4339,-96.6694 308.6145,-96.5045 322.3314,-96.345"/>
<polygon fill="#191970" stroke="#191970" points="322.7479,-99.8405 332.7065,-96.2243 322.6664,-92.8409 322.7479,-99.8405"/>
</g>
<!-- Node82 -->
<g id="node42" class="node">
<title>Node82</title>
<g id="a_node42"><a xlink:href="cbuffer_8h.html#ad43a17ed19b5351451c61a52c7e474d2" target="_top" xlink:title="zrtos_cbuffer__is_empty">
<polygon fill="#ffffff" stroke="#000000" points="652,-42 652,-61 776,-61 776,-42 652,-42"/>
<text text-anchor="middle" x="714" y="-49" font-family="Helvetica,sans-Serif" font-size="10.00" fill="#000000">zrtos_cbuffer__is_empty</text>
</a>
</g>
</g>
<!-- Node81&#45;&gt;Node82 -->
<g id="edge50" class="edge">
<title>Node81&#45;&gt;Node82</title>
<path fill="none" stroke="#191970" d="M457.2637,-86.9119C510.1788,-79.6133 586.1828,-69.13 641.7631,-61.4637"/>
<polygon fill="#191970" stroke="#191970" points="642.4654,-64.9001 651.8934,-60.0664 641.5089,-57.9657 642.4654,-64.9001"/>
</g>
<!-- Node82&#45;&gt;Node77 -->
<g id="edge53" class="edge">
<title>Node82&#45;&gt;Node77</title>
<path fill="none" stroke="#191970" d="M776.1701,-51.5C789.1249,-51.5 802.7601,-51.5 815.6479,-51.5"/>
<polygon fill="#191970" stroke="#191970" points="815.7963,-55.0001 825.7963,-51.5 815.7963,-48.0001 815.7963,-55.0001"/>
</g>
<!-- Node83 -->
<g id="node43" class="node">
<title>Node83</title>
<g id="a_node43"><a xlink:href="cbuffer_8h.html#ae8c248c36fbad46279f2a84d60dba91d" target="_top" xlink:title="zrtos_cbuffer__get\l_first_node">
<polygon fill="#ffffff" stroke="#000000" points="1127,-.5 1127,-30.5 1225,-30.5 1225,-.5 1127,-.5"/>
<text text-anchor="start" x="1135" y="-18.5" font-family="Helvetica,sans-Serif" font-size="10.00" fill="#000000">zrtos_cbuffer__get</text>
<text text-anchor="middle" x="1176" y="-7.5" font-family="Helvetica,sans-Serif" font-size="10.00" fill="#000000">_first_node</text>
</a>
</g>
</g>
<!-- Node82&#45;&gt;Node83 -->
<g id="edge51" class="edge">
<title>Node82&#45;&gt;Node83</title>
<path fill="none" stroke="#191970" d="M744.1153,-41.9888C763.3272,-36.3791 788.8753,-29.7586 812,-26.5 918.5113,-11.491 1044.219,-11.5731 1116.5653,-13.3167"/>
<polygon fill="#191970" stroke="#191970" points="1116.7558,-16.8228 1126.8436,-13.5844 1116.9381,-9.8251 1116.7558,-16.8228"/>
</g>
<!-- Node83&#45;&gt;Node64 -->
<g id="edge52" class="edge">
<title>Node83&#45;&gt;Node64</title>
<path fill="none" stroke="#191970" d="M1209.5836,-30.6536C1238.9234,-43.8923 1281.1471,-62.9444 1309.5269,-75.7499"/>
<polygon fill="#191970" stroke="#191970" points="1308.3894,-79.0764 1318.944,-79.9991 1311.2684,-72.6959 1308.3894,-79.0764"/>
</g>
<!-- Node84&#45;&gt;Node43 -->
<g id="edge55" class="edge">
<title>Node84&#45;&gt;Node43</title>
<path fill="none" stroke="#191970" d="M280.6374,-63.6663C286.3768,-66.2019 291.9427,-69.1292 297,-72.5 317.4578,-86.1354 313.719,-99.2459 333,-114.5 338.489,-118.8426 344.6587,-122.8551 350.9222,-126.4652"/>
<polygon fill="#191970" stroke="#191970" points="349.641,-129.7527 360.0977,-131.4583 352.9869,-123.6041 349.641,-129.7527"/>
</g>
<!-- Node85 -->
<g id="node45" class="node">
<title>Node85</title>
<g id="a_node45"><a xlink:href="cbuffer_8h.html#af7e1a18084c22778a744d9a44a243a5c" target="_top" xlink:title="zrtos_cbuffer__can\l_write">
<polygon fill="#ffffff" stroke="#000000" points="345,-33.5 345,-63.5 445,-63.5 445,-33.5 345,-33.5"/>
<text text-anchor="start" x="353" y="-51.5" font-family="Helvetica,sans-Serif" font-size="10.00" fill="#000000">zrtos_cbuffer__can</text>
<text text-anchor="middle" x="395" y="-40.5" font-family="Helvetica,sans-Serif" font-size="10.00" fill="#000000">_write</text>
</a>
</g>
</g>
<!-- Node84&#45;&gt;Node85 -->
<g id="edge56" class="edge">
<title>Node84&#45;&gt;Node85</title>
<path fill="none" stroke="#191970" d="M281.2314,-48.5C298.5028,-48.5 317.448,-48.5 334.8392,-48.5"/>
<polygon fill="#191970" stroke="#191970" points="334.8749,-52.0001 344.8749,-48.5 334.8749,-45.0001 334.8749,-52.0001"/>
</g>
<!-- Node86&#45;&gt;Node43 -->
<g id="edge58" class="edge">
<title>Node86&#45;&gt;Node43</title>
<path fill="none" stroke="#191970" d="M281.2314,-146.5C298.6657,-146.5 317.8056,-146.5 335.331,-146.5"/>
<polygon fill="#191970" stroke="#191970" points="335.438,-150.0001 345.438,-146.5 335.438,-143.0001 335.438,-150.0001"/>
</g>
</g>
</svg>
