<?xml version="1.0" encoding="UTF-8" standalone="no"?>
<!DOCTYPE svg PUBLIC "-//W3C//DTD SVG 1.1//EN"
 "http://www.w3.org/Graphics/SVG/1.1/DTD/svg11.dtd">
<!-- Generated by graphviz version 2.40.1 (20161225.0304)
 -->
<!-- Title: zrtos_vfs_module_uart_inode__get_cbuffer_out Pages: 1 -->
<svg width="377pt" height="39pt"
 viewBox="0.00 0.00 377.00 39.00" xmlns="http://www.w3.org/2000/svg" xmlns:xlink="http://www.w3.org/1999/xlink">
<g id="graph0" class="graph" transform="scale(1 1) rotate(0) translate(4 35)">
<title>zrtos_vfs_module_uart_inode__get_cbuffer_out</title>
<polygon fill="#ffffff" stroke="transparent" points="-4,4 -4,-35 373,-35 373,4 -4,4"/>
<!-- Node96 -->
<g id="node1" class="node">
<title>Node96</title>
<polygon fill="#bfbfbf" stroke="#000000" points="0,-.5 0,-30.5 123,-30.5 123,-.5 0,-.5"/>
<text text-anchor="start" x="8" y="-18.5" font-family="Helvetica,sans-Serif" font-size="10.00" fill="#000000">zrtos_vfs_module_uart</text>
<text text-anchor="middle" x="61.5" y="-7.5" font-family="Helvetica,sans-Serif" font-size="10.00" fill="#000000">_inode__get_cbuffer_out</text>
</g>
<!-- Node97 -->
<g id="node2" class="node">
<title>Node97</title>
<g id="a_node2"><a xlink:href="avr_2uart_2uart_8h.html#a4ad82b41bf19a0c78e59277745226a13" target="_top" xlink:title="zrtos_vfs_module_avr\l_uart__on_transmit_interrupt">
<polygon fill="#ffffff" stroke="#000000" points="159,-.5 159,-30.5 299,-30.5 299,-.5 159,-.5"/>
<text text-anchor="start" x="167" y="-18.5" font-family="Helvetica,sans-Serif" font-size="10.00" fill="#000000">zrtos_vfs_module_avr</text>
<text text-anchor="middle" x="229" y="-7.5" font-family="Helvetica,sans-Serif" font-size="10.00" fill="#000000">_uart__on_transmit_interrupt</text>
</a>
</g>
</g>
<!-- Node96&#45;&gt;Node97 -->
<g id="edge1" class="edge">
<title>Node96&#45;&gt;Node97</title>
<path fill="none" stroke="#191970" d="M133.5423,-15.5C141.9457,-15.5 150.5094,-15.5 158.8862,-15.5"/>
<polygon fill="#191970" stroke="#191970" points="133.395,-12.0001 123.3949,-15.5 133.3949,-19.0001 133.395,-12.0001"/>
</g>
<!-- Node98 -->
<g id="node3" class="node">
<title>Node98</title>
<g id="a_node3"><a xlink:href="uart0_8h.html#a91dc2a9d312bdd124f13347731b7e1bd" target="_top" xlink:title="ISR">
<polygon fill="#ffffff" stroke="#000000" points="335,-6 335,-25 369,-25 369,-6 335,-6"/>
<text text-anchor="middle" x="352" y="-13" font-family="Helvetica,sans-Serif" font-size="10.00" fill="#000000">ISR</text>
</a>
</g>
</g>
<!-- Node97&#45;&gt;Node98 -->
<g id="edge2" class="edge">
<title>Node97&#45;&gt;Node98</title>
<path fill="none" stroke="#191970" d="M309.316,-15.5C318.9052,-15.5 327.8191,-15.5 334.9943,-15.5"/>
<polygon fill="#191970" stroke="#191970" points="309.1231,-12.0001 299.1231,-15.5 309.1231,-19.0001 309.1231,-12.0001"/>
</g>
</g>
</svg>
