<?xml version="1.0" encoding="UTF-8" standalone="no"?>
<!DOCTYPE svg PUBLIC "-//W3C//DTD SVG 1.1//EN"
 "http://www.w3.org/Graphics/SVG/1.1/DTD/svg11.dtd">
<!-- Generated by graphviz version 2.40.1 (20161225.0304)
 -->
<!-- Title: zrtos_vfs_module_uart__on_can_write Pages: 1 -->
<svg width="260pt" height="88pt"
 viewBox="0.00 0.00 260.00 88.00" xmlns="http://www.w3.org/2000/svg" xmlns:xlink="http://www.w3.org/1999/xlink">
<g id="graph0" class="graph" transform="scale(1 1) rotate(0) translate(4 84)">
<title>zrtos_vfs_module_uart__on_can_write</title>
<polygon fill="#ffffff" stroke="transparent" points="-4,4 -4,-84 256,-84 256,4 -4,4"/>
<!-- Node17 -->
<g id="node1" class="node">
<title>Node17</title>
<polygon fill="#bfbfbf" stroke="#000000" points="0,-24.5 0,-54.5 116,-54.5 116,-24.5 0,-24.5"/>
<text text-anchor="start" x="8" y="-42.5" font-family="Helvetica,sans-Serif" font-size="10.00" fill="#000000">zrtos_vfs_module_uart</text>
<text text-anchor="middle" x="58" y="-31.5" font-family="Helvetica,sans-Serif" font-size="10.00" fill="#000000">__on_can_write</text>
</g>
<!-- Node18 -->
<g id="node2" class="node">
<title>Node18</title>
<g id="a_node2"><a xlink:href="vfs__file_8h.html#af192d2176bcd9a795fe8253a0759b0c7" target="_top" xlink:title="zrtos_vfs_file__get\l_inode_data">
<polygon fill="#ffffff" stroke="#000000" points="152.5,-49.5 152.5,-79.5 251.5,-79.5 251.5,-49.5 152.5,-49.5"/>
<text text-anchor="start" x="160.5" y="-67.5" font-family="Helvetica,sans-Serif" font-size="10.00" fill="#000000">zrtos_vfs_file__get</text>
<text text-anchor="middle" x="202" y="-56.5" font-family="Helvetica,sans-Serif" font-size="10.00" fill="#000000">_inode_data</text>
</a>
</g>
</g>
<!-- Node17&#45;&gt;Node18 -->
<g id="edge1" class="edge">
<title>Node17&#45;&gt;Node18</title>
<path fill="none" stroke="#191970" d="M116.1552,-49.5964C124.7952,-51.0964 133.7116,-52.6444 142.381,-54.1495"/>
<polygon fill="#191970" stroke="#191970" points="141.9621,-57.629 152.4134,-55.8912 143.1595,-50.7322 141.9621,-57.629"/>
</g>
<!-- Node19 -->
<g id="node3" class="node">
<title>Node19</title>
<g id="a_node3"><a xlink:href="cbuffer_8h.html#af7e1a18084c22778a744d9a44a243a5c" target="_top" xlink:title="zrtos_cbuffer__can\l_write">
<polygon fill="#ffffff" stroke="#000000" points="152,-.5 152,-30.5 252,-30.5 252,-.5 152,-.5"/>
<text text-anchor="start" x="160" y="-18.5" font-family="Helvetica,sans-Serif" font-size="10.00" fill="#000000">zrtos_cbuffer__can</text>
<text text-anchor="middle" x="202" y="-7.5" font-family="Helvetica,sans-Serif" font-size="10.00" fill="#000000">_write</text>
</a>
</g>
</g>
<!-- Node17&#45;&gt;Node19 -->
<g id="edge2" class="edge">
<title>Node17&#45;&gt;Node19</title>
<path fill="none" stroke="#191970" d="M116.1552,-29.8075C124.683,-28.3862 133.48,-26.92 142.0431,-25.4928"/>
<polygon fill="#191970" stroke="#191970" points="142.6694,-28.9368 151.9579,-23.8404 141.5185,-22.032 142.6694,-28.9368"/>
</g>
</g>
</svg>
