<?xml version="1.0" encoding="UTF-8" standalone="no"?>
<!DOCTYPE svg PUBLIC "-//W3C//DTD SVG 1.1//EN"
 "http://www.w3.org/Graphics/SVG/1.1/DTD/svg11.dtd">
<!-- Generated by graphviz version 2.40.1 (20161225.0304)
 -->
<!-- Title: zrtos_vfs_module_uart__on_read Pages: 1 -->
<svg width="273pt" height="186pt"
 viewBox="0.00 0.00 273.00 186.00" xmlns="http://www.w3.org/2000/svg" xmlns:xlink="http://www.w3.org/1999/xlink">
<g id="graph0" class="graph" transform="scale(1 1) rotate(0) translate(4 182)">
<title>zrtos_vfs_module_uart__on_read</title>
<polygon fill="#ffffff" stroke="transparent" points="-4,4 -4,-182 269,-182 269,4 -4,4"/>
<!-- Node46 -->
<g id="node1" class="node">
<title>Node46</title>
<polygon fill="#bfbfbf" stroke="#000000" points="0,-73.5 0,-103.5 116,-103.5 116,-73.5 0,-73.5"/>
<text text-anchor="start" x="8" y="-91.5" font-family="Helvetica,sans-Serif" font-size="10.00" fill="#000000">zrtos_vfs_module_uart</text>
<text text-anchor="middle" x="58" y="-80.5" font-family="Helvetica,sans-Serif" font-size="10.00" fill="#000000">__on_read</text>
</g>
<!-- Node47 -->
<g id="node2" class="node">
<title>Node47</title>
<g id="a_node2"><a xlink:href="uart0_8h.html#a1c08ba1c9bac4dd9a045d06a07dbe0b4" target="_top" xlink:title="zrtos_vfs_module_avr\l_uart0__on_write">
<polygon fill="#ffffff" stroke="#000000" points="152,-147.5 152,-177.5 265,-177.5 265,-147.5 152,-147.5"/>
<text text-anchor="start" x="160" y="-165.5" font-family="Helvetica,sans-Serif" font-size="10.00" fill="#000000">zrtos_vfs_module_avr</text>
<text text-anchor="middle" x="208.5" y="-154.5" font-family="Helvetica,sans-Serif" font-size="10.00" fill="#000000">_uart0__on_write</text>
</a>
</g>
</g>
<!-- Node46&#45;&gt;Node47 -->
<g id="edge1" class="edge">
<title>Node46&#45;&gt;Node47</title>
<path fill="none" stroke="#191970" d="M94.032,-108.613C111.3749,-118.049 132.5757,-129.2301 152,-138.5 158.348,-141.5295 165.1782,-144.5921 171.8201,-147.4694"/>
<polygon fill="#191970" stroke="#191970" points="95.2819,-105.307 84.8298,-103.5736 91.9195,-111.4467 95.2819,-105.307"/>
</g>
<!-- Node48 -->
<g id="node3" class="node">
<title>Node48</title>
<g id="a_node3"><a xlink:href="uart1_8h.html#af04452122e72ab7408b2e207191cdd33" target="_top" xlink:title="zrtos_vfs_module_avr\l_uart1__on_write">
<polygon fill="#ffffff" stroke="#000000" points="152,-98.5 152,-128.5 265,-128.5 265,-98.5 152,-98.5"/>
<text text-anchor="start" x="160" y="-116.5" font-family="Helvetica,sans-Serif" font-size="10.00" fill="#000000">zrtos_vfs_module_avr</text>
<text text-anchor="middle" x="208.5" y="-105.5" font-family="Helvetica,sans-Serif" font-size="10.00" fill="#000000">_uart1__on_write</text>
</a>
</g>
</g>
<!-- Node46&#45;&gt;Node48 -->
<g id="edge2" class="edge">
<title>Node46&#45;&gt;Node48</title>
<path fill="none" stroke="#191970" d="M126.2093,-99.8304C134.8184,-101.2605 143.5515,-102.7112 151.9525,-104.1067"/>
<polygon fill="#191970" stroke="#191970" points="126.6256,-96.3517 116.1872,-98.1657 125.4785,-103.2571 126.6256,-96.3517"/>
</g>
<!-- Node49 -->
<g id="node4" class="node">
<title>Node49</title>
<g id="a_node4"><a xlink:href="uart2_8h.html#a244148efdde4e736bdcba74328e85415" target="_top" xlink:title="zrtos_vfs_module_avr\l_uart2__on_write">
<polygon fill="#ffffff" stroke="#000000" points="152,-49.5 152,-79.5 265,-79.5 265,-49.5 152,-49.5"/>
<text text-anchor="start" x="160" y="-67.5" font-family="Helvetica,sans-Serif" font-size="10.00" fill="#000000">zrtos_vfs_module_avr</text>
<text text-anchor="middle" x="208.5" y="-56.5" font-family="Helvetica,sans-Serif" font-size="10.00" fill="#000000">_uart2__on_write</text>
</a>
</g>
</g>
<!-- Node46&#45;&gt;Node49 -->
<g id="edge3" class="edge">
<title>Node46&#45;&gt;Node49</title>
<path fill="none" stroke="#191970" d="M126.2093,-77.6228C134.8184,-76.2499 143.5515,-74.8572 151.9525,-73.5175"/>
<polygon fill="#191970" stroke="#191970" points="125.5113,-74.1898 116.1872,-79.221 126.6137,-81.1024 125.5113,-74.1898"/>
</g>
<!-- Node50 -->
<g id="node5" class="node">
<title>Node50</title>
<g id="a_node5"><a xlink:href="uart3_8h.html#a0ac21cf2483f89180a91b9ca480eb7b8" target="_top" xlink:title="zrtos_vfs_module_avr\l_uart3__on_write">
<polygon fill="#ffffff" stroke="#000000" points="152,-.5 152,-30.5 265,-30.5 265,-.5 152,-.5"/>
<text text-anchor="start" x="160" y="-18.5" font-family="Helvetica,sans-Serif" font-size="10.00" fill="#000000">zrtos_vfs_module_avr</text>
<text text-anchor="middle" x="208.5" y="-7.5" font-family="Helvetica,sans-Serif" font-size="10.00" fill="#000000">_uart3__on_write</text>
</a>
</g>
</g>
<!-- Node46&#45;&gt;Node50 -->
<g id="edge4" class="edge">
<title>Node46&#45;&gt;Node50</title>
<path fill="none" stroke="#191970" d="M95.6952,-68.6473C112.7762,-59.8079 133.2943,-49.4059 152,-40.5 158.973,-37.1801 166.4929,-33.7501 173.7006,-30.5346"/>
<polygon fill="#191970" stroke="#191970" points="93.852,-65.6607 86.5927,-73.3779 97.08,-71.872 93.852,-65.6607"/>
</g>
</g>
</svg>
