<?xml version="1.0" encoding="UTF-8" standalone="no"?>
<!DOCTYPE svg PUBLIC "-//W3C//DTD SVG 1.1//EN"
 "http://www.w3.org/Graphics/SVG/1.1/DTD/svg11.dtd">
<!-- Generated by graphviz version 10.0.1 (20240210.2158)
 -->
<!-- Title: zrtos_vfs_module_uart_args__init Pages: 1 -->
<svg width="1034pt" height="301pt"
 viewBox="0.00 0.00 1034.25 301.00" xmlns="http://www.w3.org/2000/svg" xmlns:xlink="http://www.w3.org/1999/xlink">
<g id="graph0" class="graph" transform="scale(1 1) rotate(0) translate(4 297)">
<title>zrtos_vfs_module_uart_args__init</title>
<!-- Node1 -->
<g id="Node000001" class="node">
<title>Node1</title>
<g id="a_Node000001"><a xlink:title=" ">
<polygon fill="#999999" stroke="#666666" points="112.75,-120 0,-120 0,-88 112.75,-88 112.75,-120"/>
<text text-anchor="start" x="8" y="-106.5" font-family="Helvetica,sans-Serif" font-size="10.00">zrtos_vfs_module_uart</text>
<text text-anchor="middle" x="56.38" y="-94.5" font-family="Helvetica,sans-Serif" font-size="10.00">_args__init</text>
</a>
</g>
</g>
<!-- Node2 -->
<g id="Node000002" class="node">
<title>Node2</title>
<g id="a_Node000002"><a xlink:href="cbuffer_8h.html#ac432ff17b01aedab263746e01d2df060" target="_top" xlink:title=" ">
<polygon fill="white" stroke="#666666" points="258.88,-202 153.62,-202 153.62,-182 258.88,-182 258.88,-202"/>
<text text-anchor="middle" x="206.25" y="-188.5" font-family="Helvetica,sans-Serif" font-size="10.00">zrtos_cbuffer__deinit</text>
</a>
</g>
</g>
<!-- Node1&#45;&gt;Node2 -->
<g id="edge1_Node000001_Node000002" class="edge">
<title>Node1&#45;&gt;Node2</title>
<g id="a_edge1_Node000001_Node000002"><a xlink:title=" ">
<path fill="none" stroke="#63b8ff" d="M78.79,-120.47C96.85,-133.94 123.69,-152.98 148.75,-167 155.02,-170.51 161.87,-173.89 168.57,-176.97"/>
<polygon fill="#63b8ff" stroke="#63b8ff" points="166.93,-180.07 177.49,-180.93 169.77,-173.67 166.93,-180.07"/>
</a>
</g>
</g>
<!-- Node12 -->
<g id="Node000012" class="node">
<title>Node12</title>
<g id="a_Node000012"><a xlink:href="cbuffer_8h.html#a6a1ffb32acbece23be59f84aa29cf306" target="_top" xlink:title=" ">
<polygon fill="white" stroke="#666666" points="253.62,-158 158.88,-158 158.88,-138 253.62,-138 253.62,-158"/>
<text text-anchor="middle" x="206.25" y="-144.5" font-family="Helvetica,sans-Serif" font-size="10.00">zrtos_cbuffer__init</text>
</a>
</g>
</g>
<!-- Node1&#45;&gt;Node12 -->
<g id="edge14_Node000001_Node000012" class="edge">
<title>Node1&#45;&gt;Node12</title>
<g id="a_edge14_Node000001_Node000012"><a xlink:title=" ">
<path fill="none" stroke="#63b8ff" d="M112.44,-120.38C127.88,-124.98 144.5,-129.92 159.35,-134.34"/>
<polygon fill="#63b8ff" stroke="#63b8ff" points="158.28,-137.67 168.86,-137.17 160.27,-130.97 158.28,-137.67"/>
</a>
</g>
</g>
<!-- Node20 -->
<g id="Node000020" class="node">
<title>Node20</title>
<g id="a_Node000020"><a xlink:href="error__count_8h.html#af82dae96e08d09cea3031f7393a1c2ea" target="_top" xlink:title=" ">
<polygon fill="white" stroke="#666666" points="254.75,-120 157.75,-120 157.75,-88 254.75,-88 254.75,-120"/>
<text text-anchor="start" x="165.75" y="-106.5" font-family="Helvetica,sans-Serif" font-size="10.00">zrtos_error_count_</text>
<text text-anchor="middle" x="206.25" y="-94.5" font-family="Helvetica,sans-Serif" font-size="10.00">_deinit</text>
</a>
</g>
</g>
<!-- Node1&#45;&gt;Node20 -->
<g id="edge22_Node000001_Node000020" class="edge">
<title>Node1&#45;&gt;Node20</title>
<g id="a_edge22_Node000001_Node000020"><a xlink:title=" ">
<path fill="none" stroke="#63b8ff" d="M112.86,-104C123.81,-104 135.33,-104 146.39,-104"/>
<polygon fill="#63b8ff" stroke="#63b8ff" points="146.18,-107.5 156.18,-104 146.18,-100.5 146.18,-107.5"/>
</a>
</g>
</g>
<!-- Node21 -->
<g id="Node000021" class="node">
<title>Node21</title>
<g id="a_Node000021"><a xlink:href="error__count_8h.html#a18688a8d7e690569df54b5ed82f93efa" target="_top" xlink:title=" ">
<polygon fill="white" stroke="#666666" points="263.75,-70 148.75,-70 148.75,-50 263.75,-50 263.75,-70"/>
<text text-anchor="middle" x="206.25" y="-56.5" font-family="Helvetica,sans-Serif" font-size="10.00">zrtos_error_count__init</text>
</a>
</g>
</g>
<!-- Node1&#45;&gt;Node21 -->
<g id="edge23_Node000001_Node000021" class="edge">
<title>Node1&#45;&gt;Node21</title>
<g id="a_edge23_Node000001_Node000021"><a xlink:title=" ">
<path fill="none" stroke="#63b8ff" d="M112.44,-87.62C127.88,-83.02 144.5,-78.08 159.35,-73.66"/>
<polygon fill="#63b8ff" stroke="#63b8ff" points="160.27,-77.03 168.86,-70.83 158.28,-70.33 160.27,-77.03"/>
</a>
</g>
</g>
<!-- Node22 -->
<g id="Node000022" class="node">
<title>Node22</title>
<g id="a_Node000022"><a xlink:href="uart_2uart_8h.html#a2ed4588edee3786f4fc26a3ecca2bc83" target="_top" xlink:title=" ">
<polygon fill="white" stroke="#666666" points="262.62,-32 149.88,-32 149.88,0 262.62,0 262.62,-32"/>
<text text-anchor="start" x="157.88" y="-18.5" font-family="Helvetica,sans-Serif" font-size="10.00">zrtos_vfs_module_uart</text>
<text text-anchor="middle" x="206.25" y="-6.5" font-family="Helvetica,sans-Serif" font-size="10.00">_args__callback</text>
</a>
</g>
</g>
<!-- Node1&#45;&gt;Node22 -->
<g id="edge24_Node000001_Node000022" class="edge">
<title>Node1&#45;&gt;Node22</title>
<g id="a_edge24_Node000001_Node000022"><a xlink:title=" ">
<path fill="none" stroke="#63b8ff" d="M78.79,-87.53C96.85,-74.06 123.69,-55.02 148.75,-41 150.92,-39.79 153.16,-38.59 155.43,-37.41"/>
<polygon fill="#63b8ff" stroke="#63b8ff" points="156.79,-40.65 164.22,-33.09 153.7,-34.36 156.79,-40.65"/>
</a>
</g>
</g>
<!-- Node3 -->
<g id="Node000003" class="node">
<title>Node3</title>
<g id="a_Node000003"><a xlink:href="cbuffer_8h.html#a5100fc709c08ad12bbce96e5320b3e3d" target="_top" xlink:title=" ">
<polygon fill="white" stroke="#666666" points="415.12,-252 309.88,-252 309.88,-220 415.12,-220 415.12,-252"/>
<text text-anchor="start" x="317.88" y="-238.5" font-family="Helvetica,sans-Serif" font-size="10.00">zrtos_cbuffer__deinit</text>
<text text-anchor="middle" x="362.5" y="-226.5" font-family="Helvetica,sans-Serif" font-size="10.00">_callback</text>
</a>
</g>
</g>
<!-- Node2&#45;&gt;Node3 -->
<g id="edge2_Node000002_Node000003" class="edge">
<title>Node2&#45;&gt;Node3</title>
<g id="a_edge2_Node000002_Node000003"><a xlink:title=" ">
<path fill="none" stroke="#63b8ff" d="M243.81,-202.43C260.19,-207.1 279.99,-212.75 298.63,-218.07"/>
<polygon fill="#63b8ff" stroke="#63b8ff" points="297.41,-221.36 307.99,-220.74 299.33,-214.63 297.41,-221.36"/>
</a>
</g>
</g>
<!-- Node10 -->
<g id="Node000010" class="node">
<title>Node10</title>
<g id="a_Node000010"><a xlink:href="list_8h.html#ab2efaa1af7b804994b227ea5436bea39" target="_top" xlink:title=" ">
<polygon fill="white" stroke="#666666" points="692.38,-202 602.88,-202 602.88,-182 692.38,-182 692.38,-202"/>
<text text-anchor="middle" x="647.62" y="-188.5" font-family="Helvetica,sans-Serif" font-size="10.00">zrtos_list__deinit</text>
</a>
</g>
</g>
<!-- Node2&#45;&gt;Node10 -->
<g id="edge10_Node000002_Node000010" class="edge">
<title>Node2&#45;&gt;Node10</title>
<g id="a_edge10_Node000002_Node000010"><a xlink:title=" ">
<path fill="none" stroke="#63b8ff" d="M258.94,-192C342.22,-192 505.4,-192 591.07,-192"/>
<polygon fill="#63b8ff" stroke="#63b8ff" points="590.87,-195.5 600.87,-192 590.87,-188.5 590.87,-195.5"/>
</a>
</g>
</g>
<!-- Node4 -->
<g id="Node000004" class="node">
<title>Node4</title>
<g id="a_Node000004"><a xlink:href="cbuffer_8h.html#afc85ab6d8226b4a1b93d11c2ba1203f6" target="_top" xlink:title=" ">
<polygon fill="white" stroke="#666666" points="559,-252 461.25,-252 461.25,-220 559,-220 559,-252"/>
<text text-anchor="start" x="469.25" y="-238.5" font-family="Helvetica,sans-Serif" font-size="10.00">zrtos_cbuffer_node</text>
<text text-anchor="middle" x="510.12" y="-226.5" font-family="Helvetica,sans-Serif" font-size="10.00">__free</text>
</a>
</g>
</g>
<!-- Node3&#45;&gt;Node4 -->
<g id="edge3_Node000003_Node000004" class="edge">
<title>Node3&#45;&gt;Node4</title>
<g id="a_edge3_Node000003_Node000004"><a xlink:title=" ">
<path fill="none" stroke="#63b8ff" d="M415.25,-236C426.41,-236 438.29,-236 449.72,-236"/>
<polygon fill="#63b8ff" stroke="#63b8ff" points="449.43,-239.5 459.43,-236 449.43,-232.5 449.43,-239.5"/>
</a>
</g>
</g>
<!-- Node5 -->
<g id="Node000005" class="node">
<title>Node5</title>
<g id="a_Node000005"><a xlink:href="list_8h.html#a2b11d9c6f775a209430f16b719a19617" target="_top" xlink:title=" ">
<polygon fill="white" stroke="#666666" points="693.88,-243 601.38,-243 601.38,-223 693.88,-223 693.88,-243"/>
<text text-anchor="middle" x="647.62" y="-229.5" font-family="Helvetica,sans-Serif" font-size="10.00">zrtos_list__delete</text>
</a>
</g>
</g>
<!-- Node4&#45;&gt;Node5 -->
<g id="edge4_Node000004_Node000005" class="edge">
<title>Node4&#45;&gt;Node5</title>
<g id="a_edge4_Node000004_Node000005"><a xlink:title=" ">
<path fill="none" stroke="#63b8ff" d="M559.28,-234.93C569.12,-234.72 579.56,-234.48 589.67,-234.26"/>
<polygon fill="#63b8ff" stroke="#63b8ff" points="589.46,-237.77 599.38,-234.05 589.31,-230.77 589.46,-237.77"/>
</a>
</g>
</g>
<!-- Node8 -->
<g id="Node000008" class="node">
<title>Node8</title>
<g id="a_Node000008"><a xlink:href="malloc__limit_8h.html#ad9dc03f9dd447b3ffb64b0ec3873f61f" target="_top" xlink:title=" ">
<polygon fill="white" stroke="#666666" points="695,-293 600.25,-293 600.25,-261 695,-261 695,-293"/>
<text text-anchor="start" x="608.25" y="-279.5" font-family="Helvetica,sans-Serif" font-size="10.00">zrtos_malloc_limit</text>
<text text-anchor="middle" x="647.62" y="-267.5" font-family="Helvetica,sans-Serif" font-size="10.00">__free</text>
</a>
</g>
</g>
<!-- Node4&#45;&gt;Node8 -->
<g id="edge8_Node000004_Node000008" class="edge">
<title>Node4&#45;&gt;Node8</title>
<g id="a_edge8_Node000004_Node000008"><a xlink:title=" ">
<path fill="none" stroke="#63b8ff" d="M559.28,-250.57C568.9,-253.48 579.09,-256.56 588.99,-259.56"/>
<polygon fill="#63b8ff" stroke="#63b8ff" points="587.96,-262.9 598.54,-262.45 589.98,-256.2 587.96,-262.9"/>
</a>
</g>
</g>
<!-- Node6 -->
<g id="Node000006" class="node">
<title>Node6</title>
<g id="a_Node000006"><a xlink:href="list_8h.html#a0039f0f08299038ab1a71e271a43a086" target="_top" xlink:title=" ">
<polygon fill="white" stroke="#666666" points="1026.25,-208 899.25,-208 899.25,-188 1026.25,-188 1026.25,-208"/>
<text text-anchor="middle" x="962.75" y="-194.5" font-family="Helvetica,sans-Serif" font-size="10.00">zrtos_list__get_first_node</text>
</a>
</g>
</g>
<!-- Node5&#45;&gt;Node6 -->
<g id="edge5_Node000005_Node000006" class="edge">
<title>Node5&#45;&gt;Node6</title>
<g id="a_edge5_Node000005_Node000006"><a xlink:title=" ">
<path fill="none" stroke="#63b8ff" d="M694,-231.15C737.55,-229.01 805.1,-224.75 863.25,-217 875.93,-215.31 889.45,-213.02 902.28,-210.63"/>
<polygon fill="#63b8ff" stroke="#63b8ff" points="902.69,-214.11 911.85,-208.78 901.37,-207.24 902.69,-214.11"/>
</a>
</g>
</g>
<!-- Node7 -->
<g id="Node000007" class="node">
<title>Node7</title>
<g id="a_Node000007"><a xlink:href="list_8h.html#a4ecf7568bdda1cd815956c391f29bf1e" target="_top" xlink:title=" ">
<polygon fill="white" stroke="#666666" points="841.88,-208 757.62,-208 757.62,-188 841.88,-188 841.88,-208"/>
<text text-anchor="middle" x="799.75" y="-194.5" font-family="Helvetica,sans-Serif" font-size="10.00">zrtos_list__shift</text>
</a>
</g>
</g>
<!-- Node5&#45;&gt;Node7 -->
<g id="edge6_Node000005_Node000007" class="edge">
<title>Node5&#45;&gt;Node7</title>
<g id="a_edge6_Node000005_Node000007"><a xlink:title=" ">
<path fill="none" stroke="#63b8ff" d="M693.26,-222.59C709.92,-218.71 728.99,-214.26 746.29,-210.23"/>
<polygon fill="#63b8ff" stroke="#63b8ff" points="746.95,-213.67 755.89,-207.99 745.36,-206.85 746.95,-213.67"/>
</a>
</g>
</g>
<!-- Node7&#45;&gt;Node6 -->
<g id="edge7_Node000007_Node000006" class="edge">
<title>Node7&#45;&gt;Node6</title>
<g id="a_edge7_Node000007_Node000006"><a xlink:title=" ">
<path fill="none" stroke="#63b8ff" d="M842.21,-198C856.08,-198 871.99,-198 887.58,-198"/>
<polygon fill="#63b8ff" stroke="#63b8ff" points="887.33,-201.5 897.33,-198 887.33,-194.5 887.33,-201.5"/>
</a>
</g>
</g>
<!-- Node9 -->
<g id="Node000009" class="node">
<title>Node9</title>
<g id="a_Node000009"><a xlink:href="malloc_8h.html#aeba49dabb0a21ae4e02fa137e195bb1d" target="_top" xlink:title=" ">
<polygon fill="white" stroke="#666666" points="863.25,-287 736.25,-287 736.25,-267 863.25,-267 863.25,-287"/>
<text text-anchor="middle" x="799.75" y="-273.5" font-family="Helvetica,sans-Serif" font-size="10.00">zrtos_malloc__get_length</text>
</a>
</g>
</g>
<!-- Node8&#45;&gt;Node9 -->
<g id="edge9_Node000008_Node000009" class="edge">
<title>Node8&#45;&gt;Node9</title>
<g id="a_edge9_Node000008_Node000009"><a xlink:title=" ">
<path fill="none" stroke="#63b8ff" d="M695.3,-277C704.62,-277 714.62,-277 724.6,-277"/>
<polygon fill="#63b8ff" stroke="#63b8ff" points="724.31,-280.5 734.31,-277 724.31,-273.5 724.31,-280.5"/>
</a>
</g>
</g>
<!-- Node10&#45;&gt;Node7 -->
<g id="edge13_Node000010_Node000007" class="edge">
<title>Node10&#45;&gt;Node7</title>
<g id="a_edge13_Node000010_Node000007"><a xlink:title=" ">
<path fill="none" stroke="#63b8ff" d="M692.86,-193.77C709.53,-194.43 728.66,-195.2 746.03,-195.89"/>
<polygon fill="#63b8ff" stroke="#63b8ff" points="745.51,-199.37 755.64,-196.28 745.79,-192.38 745.51,-199.37"/>
</a>
</g>
</g>
<!-- Node11 -->
<g id="Node000011" class="node">
<title>Node11</title>
<g id="a_Node000011"><a xlink:href="list_8h.html#a19f2741be75dd514c2227963d8c629dd" target="_top" xlink:title=" ">
<polygon fill="white" stroke="#666666" points="852.75,-170 746.75,-170 746.75,-150 852.75,-150 852.75,-170"/>
<text text-anchor="middle" x="799.75" y="-156.5" font-family="Helvetica,sans-Serif" font-size="10.00">zrtos_list__is_empty</text>
</a>
</g>
</g>
<!-- Node10&#45;&gt;Node11 -->
<g id="edge11_Node000010_Node000011" class="edge">
<title>Node10&#45;&gt;Node11</title>
<g id="a_edge11_Node000010_Node000011"><a xlink:title=" ">
<path fill="none" stroke="#63b8ff" d="M692.86,-182.57C707.19,-179.52 723.35,-176.07 738.64,-172.81"/>
<polygon fill="#63b8ff" stroke="#63b8ff" points="739.05,-176.3 748.1,-170.8 737.59,-169.46 739.05,-176.3"/>
</a>
</g>
</g>
<!-- Node11&#45;&gt;Node6 -->
<g id="edge12_Node000011_Node000006" class="edge">
<title>Node11&#45;&gt;Node6</title>
<g id="a_edge12_Node000011_Node000006"><a xlink:title=" ">
<path fill="none" stroke="#63b8ff" d="M845.17,-170.48C864.09,-174.95 886.36,-180.21 906.33,-184.92"/>
<polygon fill="#63b8ff" stroke="#63b8ff" points="905.47,-188.31 916,-187.2 907.07,-181.5 905.47,-188.31"/>
</a>
</g>
</g>
<!-- Node13 -->
<g id="Node000013" class="node">
<title>Node13</title>
<g id="a_Node000013"><a xlink:href="cbuffer_8h.html#a1749e471b67565254c5dc85e0cb728a1" target="_top" xlink:title=" ">
<polygon fill="white" stroke="#666666" points="425.25,-158 299.75,-158 299.75,-138 425.25,-138 425.25,-158"/>
<text text-anchor="middle" x="362.5" y="-144.5" font-family="Helvetica,sans-Serif" font-size="10.00">zrtos_cbuffer_node__new</text>
</a>
</g>
</g>
<!-- Node12&#45;&gt;Node13 -->
<g id="edge15_Node000012_Node000013" class="edge">
<title>Node12&#45;&gt;Node13</title>
<g id="a_edge15_Node000012_Node000013"><a xlink:title=" ">
<path fill="none" stroke="#63b8ff" d="M253.95,-148C264.66,-148 276.29,-148 287.83,-148"/>
<polygon fill="#63b8ff" stroke="#63b8ff" points="287.78,-151.5 297.78,-148 287.78,-144.5 287.78,-151.5"/>
</a>
</g>
</g>
<!-- Node19 -->
<g id="Node000019" class="node">
<title>Node19</title>
<g id="a_Node000019"><a xlink:href="list_8h.html#a2da91c03abf243dc0485a6027e970605" target="_top" xlink:title=" ">
<polygon fill="white" stroke="#666666" points="402,-120 323,-120 323,-100 402,-100 402,-120"/>
<text text-anchor="middle" x="362.5" y="-106.5" font-family="Helvetica,sans-Serif" font-size="10.00">zrtos_list__init</text>
</a>
</g>
</g>
<!-- Node12&#45;&gt;Node19 -->
<g id="edge21_Node000012_Node000019" class="edge">
<title>Node12&#45;&gt;Node19</title>
<g id="a_edge21_Node000012_Node000019"><a xlink:title=" ">
<path fill="none" stroke="#63b8ff" d="M249.81,-137.52C268.91,-132.81 291.57,-127.23 311.47,-122.32"/>
<polygon fill="#63b8ff" stroke="#63b8ff" points="312.17,-125.76 321.05,-119.97 310.5,-118.96 312.17,-125.76"/>
</a>
</g>
</g>
<!-- Node14 -->
<g id="Node000014" class="node">
<title>Node14</title>
<g id="a_Node000014"><a xlink:href="cbuffer_8h.html#aeb332726de06c905eb2db32ae3d323eb" target="_top" xlink:title=" ">
<polygon fill="white" stroke="#666666" points="559,-164 461.25,-164 461.25,-132 559,-132 559,-164"/>
<text text-anchor="start" x="469.25" y="-150.5" font-family="Helvetica,sans-Serif" font-size="10.00">zrtos_cbuffer_node</text>
<text text-anchor="middle" x="510.12" y="-138.5" font-family="Helvetica,sans-Serif" font-size="10.00">__init</text>
</a>
</g>
</g>
<!-- Node13&#45;&gt;Node14 -->
<g id="edge16_Node000013_Node000014" class="edge">
<title>Node13&#45;&gt;Node14</title>
<g id="a_edge16_Node000013_Node000014"><a xlink:title=" ">
<path fill="none" stroke="#63b8ff" d="M425.68,-148C433.58,-148 441.64,-148 449.49,-148"/>
<polygon fill="#63b8ff" stroke="#63b8ff" points="449.29,-151.5 459.29,-148 449.29,-144.5 449.29,-151.5"/>
</a>
</g>
</g>
<!-- Node18 -->
<g id="Node000018" class="node">
<title>Node18</title>
<g id="a_Node000018"><a xlink:href="malloc__limit_8h.html#a219ea8916b582afe8c2120d09abf8656" target="_top" xlink:title=" ">
<polygon fill="white" stroke="#666666" points="557.5,-114 462.75,-114 462.75,-82 557.5,-82 557.5,-114"/>
<text text-anchor="start" x="470.75" y="-100.5" font-family="Helvetica,sans-Serif" font-size="10.00">zrtos_malloc_limit</text>
<text text-anchor="middle" x="510.12" y="-88.5" font-family="Helvetica,sans-Serif" font-size="10.00">__malloc</text>
</a>
</g>
</g>
<!-- Node13&#45;&gt;Node18 -->
<g id="edge20_Node000013_Node000018" class="edge">
<title>Node13&#45;&gt;Node18</title>
<g id="a_edge20_Node000013_Node000018"><a xlink:title=" ">
<path fill="none" stroke="#63b8ff" d="M398.55,-137.58C407.3,-134.88 416.64,-131.91 425.25,-129 435.08,-125.67 445.49,-121.97 455.51,-118.32"/>
<polygon fill="#63b8ff" stroke="#63b8ff" points="456.59,-121.65 464.77,-114.91 454.17,-115.08 456.59,-121.65"/>
</a>
</g>
</g>
<!-- Node15 -->
<g id="Node000015" class="node">
<title>Node15</title>
<g id="a_Node000015"><a xlink:href="list_8h.html#aa734984fb49603438b179f49fff38477" target="_top" xlink:title=" ">
<polygon fill="white" stroke="#666666" points="691.25,-123 604,-123 604,-103 691.25,-103 691.25,-123"/>
<text text-anchor="middle" x="647.62" y="-109.5" font-family="Helvetica,sans-Serif" font-size="10.00">zrtos_list__push</text>
</a>
</g>
</g>
<!-- Node14&#45;&gt;Node15 -->
<g id="edge17_Node000014_Node000015" class="edge">
<title>Node14&#45;&gt;Node15</title>
<g id="a_edge17_Node000014_Node000015"><a xlink:title=" ">
<path fill="none" stroke="#63b8ff" d="M559.28,-135.56C570.92,-132.55 583.41,-129.33 595.2,-126.28"/>
<polygon fill="#63b8ff" stroke="#63b8ff" points="595.96,-129.7 604.77,-123.81 594.21,-122.92 595.96,-129.7"/>
</a>
</g>
</g>
<!-- Node17 -->
<g id="Node000017" class="node">
<title>Node17</title>
<g id="a_Node000017"><a xlink:href="list_8h.html#a40feeb4cd0cc4e30201a279240b52429" target="_top" xlink:title=" ">
<polygon fill="white" stroke="#666666" points="700.25,-161 595,-161 595,-141 700.25,-141 700.25,-161"/>
<text text-anchor="middle" x="647.62" y="-147.5" font-family="Helvetica,sans-Serif" font-size="10.00">zrtos_list_node__init</text>
</a>
</g>
</g>
<!-- Node14&#45;&gt;Node17 -->
<g id="edge19_Node000014_Node000017" class="edge">
<title>Node14&#45;&gt;Node17</title>
<g id="a_edge19_Node000014_Node000017"><a xlink:title=" ">
<path fill="none" stroke="#63b8ff" d="M559.28,-149.07C567.14,-149.24 575.38,-149.42 583.53,-149.6"/>
<polygon fill="#63b8ff" stroke="#63b8ff" points="583.36,-153.1 593.44,-149.82 583.52,-146.1 583.36,-153.1"/>
</a>
</g>
</g>
<!-- Node16 -->
<g id="Node000016" class="node">
<title>Node16</title>
<g id="a_Node000016"><a xlink:href="list_8h.html#aa2f26b2b6fd722b708eb7e25cc264a90" target="_top" xlink:title=" ">
<polygon fill="white" stroke="#666666" points="863.25,-123 736.25,-123 736.25,-103 863.25,-103 863.25,-123"/>
<text text-anchor="middle" x="799.75" y="-109.5" font-family="Helvetica,sans-Serif" font-size="10.00">zrtos_list__get_last_node</text>
</a>
</g>
</g>
<!-- Node15&#45;&gt;Node16 -->
<g id="edge18_Node000015_Node000016" class="edge">
<title>Node15&#45;&gt;Node16</title>
<g id="a_edge18_Node000015_Node000016"><a xlink:title=" ">
<path fill="none" stroke="#63b8ff" d="M691.64,-113C701.98,-113 713.31,-113 724.61,-113"/>
<polygon fill="#63b8ff" stroke="#63b8ff" points="724.35,-116.5 734.35,-113 724.35,-109.5 724.35,-116.5"/>
</a>
</g>
</g>
</g>
</svg>
