<?xml version="1.0" encoding="UTF-8" standalone="no"?>
<!DOCTYPE svg PUBLIC "-//W3C//DTD SVG 1.1//EN"
 "http://www.w3.org/Graphics/SVG/1.1/DTD/svg11.dtd">
<!-- Generated by graphviz version 2.40.1 (20161225.0304)
 -->
<!-- Title: zrtos_vfs_module_uart__on_read Pages: 1 -->
<svg width="1181pt" height="169pt"
 viewBox="0.00 0.00 1181.00 169.00" xmlns="http://www.w3.org/2000/svg" xmlns:xlink="http://www.w3.org/1999/xlink">
<g id="graph0" class="graph" transform="scale(1 1) rotate(0) translate(4 165)">
<title>zrtos_vfs_module_uart__on_read</title>
<polygon fill="#ffffff" stroke="transparent" points="-4,4 -4,-165 1177,-165 1177,4 -4,4"/>
<!-- Node32 -->
<g id="node1" class="node">
<title>Node32</title>
<polygon fill="#bfbfbf" stroke="#000000" points="0,-108.5 0,-138.5 116,-138.5 116,-108.5 0,-108.5"/>
<text text-anchor="start" x="8" y="-126.5" font-family="Helvetica,sans-Serif" font-size="10.00" fill="#000000">zrtos_vfs_module_uart</text>
<text text-anchor="middle" x="58" y="-115.5" font-family="Helvetica,sans-Serif" font-size="10.00" fill="#000000">__on_read</text>
</g>
<!-- Node33 -->
<g id="node2" class="node">
<title>Node33</title>
<g id="a_node2"><a xlink:href="vfs__file_8h.html#af192d2176bcd9a795fe8253a0759b0c7" target="_top" xlink:title="zrtos_vfs_file__get\l_inode_data">
<polygon fill="#ffffff" stroke="#000000" points="159,-130.5 159,-160.5 258,-160.5 258,-130.5 159,-130.5"/>
<text text-anchor="start" x="167" y="-148.5" font-family="Helvetica,sans-Serif" font-size="10.00" fill="#000000">zrtos_vfs_file__get</text>
<text text-anchor="middle" x="208.5" y="-137.5" font-family="Helvetica,sans-Serif" font-size="10.00" fill="#000000">_inode_data</text>
</a>
</g>
</g>
<!-- Node32&#45;&gt;Node33 -->
<g id="edge1" class="edge">
<title>Node32&#45;&gt;Node33</title>
<path fill="none" stroke="#191970" d="M116.1872,-132.0058C126.8434,-133.5635 137.9815,-135.1916 148.6842,-136.7562"/>
<polygon fill="#191970" stroke="#191970" points="148.3813,-140.249 158.7824,-138.2323 149.3938,-133.3226 148.3813,-140.249"/>
</g>
<!-- Node34 -->
<g id="node3" class="node">
<title>Node34</title>
<g id="a_node3"><a xlink:href="cbuffer_8h.html#af79ee923f715f4f8d2ea27b725501174" target="_top" xlink:title="zrtos_cbuffer__get_ex">
<polygon fill="#ffffff" stroke="#000000" points="152,-92 152,-111 265,-111 265,-92 152,-92"/>
<text text-anchor="middle" x="208.5" y="-99" font-family="Helvetica,sans-Serif" font-size="10.00" fill="#000000">zrtos_cbuffer__get_ex</text>
</a>
</g>
</g>
<!-- Node32&#45;&gt;Node34 -->
<g id="edge2" class="edge">
<title>Node32&#45;&gt;Node34</title>
<path fill="none" stroke="#191970" d="M116.1872,-114.9942C124.6294,-113.7601 133.3741,-112.4819 141.9652,-111.226"/>
<polygon fill="#191970" stroke="#191970" points="142.5639,-114.6758 151.9525,-109.7661 141.5514,-107.7494 142.5639,-114.6758"/>
</g>
<!-- Node35 -->
<g id="node4" class="node">
<title>Node35</title>
<g id="a_node4"><a xlink:href="cbuffer_8h.html#a1a9cc4256c634d99003e2397924df20a" target="_top" xlink:title="zrtos_cbuffer__get">
<polygon fill="#ffffff" stroke="#000000" points="306,-114 306,-133 404,-133 404,-114 306,-114"/>
<text text-anchor="middle" x="355" y="-121" font-family="Helvetica,sans-Serif" font-size="10.00" fill="#000000">zrtos_cbuffer__get</text>
</a>
</g>
</g>
<!-- Node34&#45;&gt;Node35 -->
<g id="edge3" class="edge">
<title>Node34&#45;&gt;Node35</title>
<path fill="none" stroke="#191970" d="M265.1407,-110.0058C275.1652,-111.5112 285.6277,-113.0823 295.7226,-114.5983"/>
<polygon fill="#191970" stroke="#191970" points="295.2561,-118.0674 305.665,-116.0913 296.2957,-111.145 295.2561,-118.0674"/>
</g>
<!-- Node45 -->
<g id="node14" class="node">
<title>Node45</title>
<g id="a_node14"><a xlink:href="types_8h.html#adbc4238237e656eb247fd49ffbfb1a6d" target="_top" xlink:title="zrtos_types__ptr_get\l_byte_distance">
<polygon fill="#ffffff" stroke="#000000" points="301,-64.5 301,-94.5 409,-94.5 409,-64.5 301,-64.5"/>
<text text-anchor="start" x="309" y="-82.5" font-family="Helvetica,sans-Serif" font-size="10.00" fill="#000000">zrtos_types__ptr_get</text>
<text text-anchor="middle" x="355" y="-71.5" font-family="Helvetica,sans-Serif" font-size="10.00" fill="#000000">_byte_distance</text>
</a>
</g>
</g>
<!-- Node34&#45;&gt;Node45 -->
<g id="edge15" class="edge">
<title>Node34&#45;&gt;Node45</title>
<path fill="none" stroke="#191970" d="M265.1407,-92.9942C273.5901,-91.7254 282.3506,-90.4098 290.9399,-89.1199"/>
<polygon fill="#191970" stroke="#191970" points="291.5461,-92.5682 300.9154,-87.6219 290.5065,-85.6459 291.5461,-92.5682"/>
</g>
<!-- Node36 -->
<g id="node5" class="node">
<title>Node36</title>
<g id="a_node5"><a xlink:href="list_8h.html#a5a9358f4b25c9376dbdef338fa8333a6" target="_top" xlink:title="zrtos_list__get_first_node">
<polygon fill="#ffffff" stroke="#000000" points="1045,-99 1045,-118 1173,-118 1173,-99 1045,-99"/>
<text text-anchor="middle" x="1109" y="-106" font-family="Helvetica,sans-Serif" font-size="10.00" fill="#000000">zrtos_list__get_first_node</text>
</a>
</g>
</g>
<!-- Node35&#45;&gt;Node36 -->
<g id="edge4" class="edge">
<title>Node35&#45;&gt;Node36</title>
<path fill="none" stroke="#191970" d="M404.1235,-132.3887C464.1577,-142.4626 568.9387,-157.5 659.5,-157.5 659.5,-157.5 659.5,-157.5 797.5,-157.5 892.4631,-157.5 1001.7542,-135.0022 1062.3549,-120.4956"/>
<polygon fill="#191970" stroke="#191970" points="1063.4792,-123.8244 1072.3713,-118.064 1061.8279,-117.0219 1063.4792,-123.8244"/>
</g>
<!-- Node37 -->
<g id="node6" class="node">
<title>Node37</title>
<g id="a_node6"><a xlink:href="cbuffer_8h.html#ad0932ffc31c7150402dc49c28cbf2000" target="_top" xlink:title="zrtos_cbuffer_node__get">
<polygon fill="#ffffff" stroke="#000000" points="445,-80 445,-99 569,-99 569,-80 445,-80"/>
<text text-anchor="middle" x="507" y="-87" font-family="Helvetica,sans-Serif" font-size="10.00" fill="#000000">zrtos_cbuffer_node__get</text>
</a>
</g>
</g>
<!-- Node35&#45;&gt;Node37 -->
<g id="edge5" class="edge">
<title>Node35&#45;&gt;Node37</title>
<path fill="none" stroke="#191970" d="M397.745,-113.9386C415.3852,-109.9928 436.0028,-105.381 454.5455,-101.2332"/>
<polygon fill="#191970" stroke="#191970" points="455.318,-104.647 464.3128,-99.0485 453.7899,-97.8158 455.318,-104.647"/>
</g>
<!-- Node38 -->
<g id="node7" class="node">
<title>Node38</title>
<g id="a_node7"><a xlink:href="cbuffer_8h.html#aa70b33844c0b38a531615564dc35840e" target="_top" xlink:title="zrtos_cbuffer_node\l__is_empty">
<polygon fill="#ffffff" stroke="#000000" points="609.5,-98.5 609.5,-128.5 709.5,-128.5 709.5,-98.5 609.5,-98.5"/>
<text text-anchor="start" x="617.5" y="-116.5" font-family="Helvetica,sans-Serif" font-size="10.00" fill="#000000">zrtos_cbuffer_node</text>
<text text-anchor="middle" x="659.5" y="-105.5" font-family="Helvetica,sans-Serif" font-size="10.00" fill="#000000">__is_empty</text>
</a>
</g>
</g>
<!-- Node37&#45;&gt;Node38 -->
<g id="edge6" class="edge">
<title>Node37&#45;&gt;Node38</title>
<path fill="none" stroke="#191970" d="M567.7102,-99.0544C578.0513,-100.6819 588.7907,-102.372 599.1232,-103.9981"/>
<polygon fill="#191970" stroke="#191970" points="598.8676,-107.5009 609.2902,-105.5981 599.9559,-100.586 598.8676,-107.5009"/>
</g>
<!-- Node39 -->
<g id="node8" class="node">
<title>Node39</title>
<g id="a_node8"><a xlink:href="list_8h.html#a7262d2a0c144ef76b0f45193cebb8227" target="_top" xlink:title="zrtos_list_node__has\l_next_node">
<polygon fill="#ffffff" stroke="#000000" points="605,-49.5 605,-79.5 714,-79.5 714,-49.5 605,-49.5"/>
<text text-anchor="start" x="613" y="-67.5" font-family="Helvetica,sans-Serif" font-size="10.00" fill="#000000">zrtos_list_node__has</text>
<text text-anchor="middle" x="659.5" y="-56.5" font-family="Helvetica,sans-Serif" font-size="10.00" fill="#000000">_next_node</text>
</a>
</g>
</g>
<!-- Node37&#45;&gt;Node39 -->
<g id="edge7" class="edge">
<title>Node37&#45;&gt;Node39</title>
<path fill="none" stroke="#191970" d="M565.0887,-79.9773C574.7094,-78.4001 584.7397,-76.7558 594.5172,-75.1529"/>
<polygon fill="#191970" stroke="#191970" points="595.2851,-78.5738 604.5871,-73.5021 594.1526,-71.6661 595.2851,-78.5738"/>
</g>
<!-- Node40 -->
<g id="node9" class="node">
<title>Node40</title>
<g id="a_node9"><a xlink:href="cbuffer_8h.html#afc85ab6d8226b4a1b93d11c2ba1203f6" target="_top" xlink:title="zrtos_cbuffer_node\l__free">
<polygon fill="#ffffff" stroke="#000000" points="609.5,-.5 609.5,-30.5 709.5,-30.5 709.5,-.5 609.5,-.5"/>
<text text-anchor="start" x="617.5" y="-18.5" font-family="Helvetica,sans-Serif" font-size="10.00" fill="#000000">zrtos_cbuffer_node</text>
<text text-anchor="middle" x="659.5" y="-7.5" font-family="Helvetica,sans-Serif" font-size="10.00" fill="#000000">__free</text>
</a>
</g>
</g>
<!-- Node37&#45;&gt;Node40 -->
<g id="edge8" class="edge">
<title>Node37&#45;&gt;Node40</title>
<path fill="none" stroke="#191970" d="M525.6953,-79.9185C545.3475,-69.9016 577.2101,-53.8167 605,-40.5 608.8548,-38.6528 612.8752,-36.755 616.9088,-34.8703"/>
<polygon fill="#191970" stroke="#191970" points="618.6743,-37.9096 626.2731,-30.5266 615.7287,-31.5596 618.6743,-37.9096"/>
</g>
<!-- Node41 -->
<g id="node10" class="node">
<title>Node41</title>
<g id="a_node10"><a xlink:href="list_8h.html#a2b11d9c6f775a209430f16b719a19617" target="_top" xlink:title="zrtos_list__delete">
<polygon fill="#ffffff" stroke="#000000" points="751,-61 751,-80 844,-80 844,-61 751,-61"/>
<text text-anchor="middle" x="797.5" y="-68" font-family="Helvetica,sans-Serif" font-size="10.00" fill="#000000">zrtos_list__delete</text>
</a>
</g>
</g>
<!-- Node40&#45;&gt;Node41 -->
<g id="edge9" class="edge">
<title>Node40&#45;&gt;Node41</title>
<path fill="none" stroke="#191970" d="M697.2091,-30.529C718.0577,-38.8382 743.7418,-49.0746 763.8986,-57.1081"/>
<polygon fill="#191970" stroke="#191970" points="762.7191,-60.4057 773.3043,-60.8568 765.3107,-53.9031 762.7191,-60.4057"/>
</g>
<!-- Node43 -->
<g id="node12" class="node">
<title>Node43</title>
<g id="a_node12"><a xlink:href="malloc__limit_8h.html#ad9dc03f9dd447b3ffb64b0ec3873f61f" target="_top" xlink:title="zrtos_malloc_limit\l__free">
<polygon fill="#ffffff" stroke="#000000" points="750,-.5 750,-30.5 845,-30.5 845,-.5 750,-.5"/>
<text text-anchor="start" x="758" y="-18.5" font-family="Helvetica,sans-Serif" font-size="10.00" fill="#000000">zrtos_malloc_limit</text>
<text text-anchor="middle" x="797.5" y="-7.5" font-family="Helvetica,sans-Serif" font-size="10.00" fill="#000000">__free</text>
</a>
</g>
</g>
<!-- Node40&#45;&gt;Node43 -->
<g id="edge13" class="edge">
<title>Node40&#45;&gt;Node43</title>
<path fill="none" stroke="#191970" d="M709.7115,-15.5C719.4351,-15.5 729.6974,-15.5 739.6426,-15.5"/>
<polygon fill="#191970" stroke="#191970" points="739.8558,-19.0001 749.8558,-15.5 739.8557,-12.0001 739.8558,-19.0001"/>
</g>
<!-- Node41&#45;&gt;Node36 -->
<g id="edge10" class="edge">
<title>Node41&#45;&gt;Node36</title>
<path fill="none" stroke="#191970" d="M834.2799,-80.0428C848.7539,-83.4891 865.573,-87.1141 881,-89.5 931.984,-97.3849 989.9233,-102.1597 1034.6365,-104.9506"/>
<polygon fill="#191970" stroke="#191970" points="1034.642,-108.4572 1044.835,-105.5672 1035.0645,-101.47 1034.642,-108.4572"/>
</g>
<!-- Node42 -->
<g id="node11" class="node">
<title>Node42</title>
<g id="a_node11"><a xlink:href="list_8h.html#aee76d71632ab03e18ad9358fc8b35044" target="_top" xlink:title="zrtos_list__shift">
<polygon fill="#ffffff" stroke="#000000" points="902,-61 902,-80 988,-80 988,-61 902,-61"/>
<text text-anchor="middle" x="945" y="-68" font-family="Helvetica,sans-Serif" font-size="10.00" fill="#000000">zrtos_list__shift</text>
</a>
</g>
</g>
<!-- Node41&#45;&gt;Node42 -->
<g id="edge11" class="edge">
<title>Node41&#45;&gt;Node42</title>
<path fill="none" stroke="#191970" d="M844.1699,-70.5C859.1193,-70.5 875.7926,-70.5 891.2079,-70.5"/>
<polygon fill="#191970" stroke="#191970" points="891.6424,-74.0001 901.6424,-70.5 891.6423,-67.0001 891.6424,-74.0001"/>
</g>
<!-- Node42&#45;&gt;Node36 -->
<g id="edge12" class="edge">
<title>Node42&#45;&gt;Node36</title>
<path fill="none" stroke="#191970" d="M986.3841,-80.089C1008.1232,-85.1261 1034.9575,-91.3438 1057.9747,-96.6771"/>
<polygon fill="#191970" stroke="#191970" points="1057.3815,-100.1323 1067.9135,-98.9799 1058.9616,-93.3129 1057.3815,-100.1323"/>
</g>
<!-- Node44 -->
<g id="node13" class="node">
<title>Node44</title>
<g id="a_node13"><a xlink:href="malloc_8h.html#aeba49dabb0a21ae4e02fa137e195bb1d" target="_top" xlink:title="zrtos_malloc__get_length">
<polygon fill="#ffffff" stroke="#000000" points="881,-6 881,-25 1009,-25 1009,-6 881,-6"/>
<text text-anchor="middle" x="945" y="-13" font-family="Helvetica,sans-Serif" font-size="10.00" fill="#000000">zrtos_malloc__get_length</text>
</a>
</g>
</g>
<!-- Node43&#45;&gt;Node44 -->
<g id="edge14" class="edge">
<title>Node43&#45;&gt;Node44</title>
<path fill="none" stroke="#191970" d="M845.389,-15.5C853.5512,-15.5 862.1973,-15.5 870.8507,-15.5"/>
<polygon fill="#191970" stroke="#191970" points="870.9839,-19.0001 880.9839,-15.5 870.9838,-12.0001 870.9839,-19.0001"/>
</g>
</g>
</svg>
