<?xml version="1.0" encoding="UTF-8" standalone="no"?>
<!DOCTYPE svg PUBLIC "-//W3C//DTD SVG 1.1//EN"
 "http://www.w3.org/Graphics/SVG/1.1/DTD/svg11.dtd">
<!-- Generated by graphviz version 10.0.1 (20240210.2158)
 -->
<!-- Title: zrtos_vfs_module_uart__on_write Pages: 1 -->
<svg width="1189pt" height="135pt"
 viewBox="0.00 0.00 1189.00 135.00" xmlns="http://www.w3.org/2000/svg" xmlns:xlink="http://www.w3.org/1999/xlink">
<g id="graph0" class="graph" transform="scale(1 1) rotate(0) translate(4 131)">
<title>zrtos_vfs_module_uart__on_write</title>
<!-- Node1 -->
<g id="Node000001" class="node">
<title>Node1</title>
<g id="a_Node000001"><a xlink:title=" ">
<polygon fill="#999999" stroke="#666666" points="112.75,-54 0,-54 0,-22 112.75,-22 112.75,-54"/>
<text text-anchor="start" x="8" y="-40.5" font-family="Helvetica,sans-Serif" font-size="10.00">zrtos_vfs_module_uart</text>
<text text-anchor="middle" x="56.38" y="-28.5" font-family="Helvetica,sans-Serif" font-size="10.00">__on_write</text>
</a>
</g>
</g>
<!-- Node2 -->
<g id="Node000002" class="node">
<title>Node2</title>
<g id="a_Node000002"><a xlink:href="cbuffer_8h.html#a5d269503e04946737598d2062c5bfaf4" target="_top" xlink:title=" ">
<polygon fill="white" stroke="#666666" points="260,-70 148.75,-70 148.75,-50 260,-50 260,-70"/>
<text text-anchor="middle" x="204.38" y="-56.5" font-family="Helvetica,sans-Serif" font-size="10.00">zrtos_cbuffer__put_ex</text>
</a>
</g>
</g>
<!-- Node1&#45;&gt;Node2 -->
<g id="edge1_Node000001_Node000002" class="edge">
<title>Node1&#45;&gt;Node2</title>
<g id="a_edge1_Node000001_Node000002"><a xlink:title=" ">
<path fill="none" stroke="#63b8ff" d="M112.99,-46.38C120.88,-47.57 129.05,-48.8 137.11,-50.02"/>
<polygon fill="#63b8ff" stroke="#63b8ff" points="136.49,-53.46 146.9,-51.49 137.54,-46.54 136.49,-53.46"/>
</a>
</g>
</g>
<!-- Node12 -->
<g id="Node000012" class="node">
<title>Node12</title>
<g id="a_Node000012"><a xlink:href="vfs__file_8h.html#adbc392417c3fef015ea0c4728d2be7c6" target="_top" xlink:title=" ">
<polygon fill="white" stroke="#666666" points="252.12,-32 156.62,-32 156.62,0 252.12,0 252.12,-32"/>
<text text-anchor="start" x="164.62" y="-18.5" font-family="Helvetica,sans-Serif" font-size="10.00">zrtos_vfs_file__get</text>
<text text-anchor="middle" x="204.38" y="-6.5" font-family="Helvetica,sans-Serif" font-size="10.00">_inode_data</text>
</a>
</g>
</g>
<!-- Node1&#45;&gt;Node12 -->
<g id="edge12_Node000001_Node000012" class="edge">
<title>Node1&#45;&gt;Node12</title>
<g id="a_edge12_Node000001_Node000012"><a xlink:title=" ">
<path fill="none" stroke="#63b8ff" d="M112.99,-29.62C123.52,-28.03 134.57,-26.37 145.18,-24.77"/>
<polygon fill="#63b8ff" stroke="#63b8ff" points="145.61,-28.24 154.98,-23.29 144.57,-21.32 145.61,-28.24"/>
</a>
</g>
</g>
<!-- Node3 -->
<g id="Node000003" class="node">
<title>Node3</title>
<g id="a_Node000003"><a xlink:href="cbuffer_8h.html#afdb6a6176387d77a0f10e28536ba28f9" target="_top" xlink:title=" ">
<polygon fill="white" stroke="#666666" points="405,-89 309.5,-89 309.5,-69 405,-69 405,-89"/>
<text text-anchor="middle" x="357.25" y="-75.5" font-family="Helvetica,sans-Serif" font-size="10.00">zrtos_cbuffer__put</text>
</a>
</g>
</g>
<!-- Node2&#45;&gt;Node3 -->
<g id="edge2_Node000002_Node000003" class="edge">
<title>Node2&#45;&gt;Node3</title>
<g id="a_edge2_Node000002_Node000003"><a xlink:title=" ">
<path fill="none" stroke="#63b8ff" d="M260.27,-66.91C272.53,-68.46 285.57,-70.1 297.96,-71.66"/>
<polygon fill="#63b8ff" stroke="#63b8ff" points="297.25,-75.1 307.61,-72.87 298.12,-68.15 297.25,-75.1"/>
</a>
</g>
</g>
<!-- Node11 -->
<g id="Node000011" class="node">
<title>Node11</title>
<g id="a_Node000011"><a xlink:href="error_8h.html#add13298163f63b7d37ed9f12d57e1a31" target="_top" xlink:title=" ">
<polygon fill="white" stroke="#666666" points="418.5,-51 296,-51 296,-31 418.5,-31 418.5,-51"/>
<text text-anchor="middle" x="357.25" y="-37.5" font-family="Helvetica,sans-Serif" font-size="10.00">zrtos_error__is_success</text>
</a>
</g>
</g>
<!-- Node2&#45;&gt;Node11 -->
<g id="edge11_Node000002_Node000011" class="edge">
<title>Node2&#45;&gt;Node11</title>
<g id="a_edge11_Node000002_Node000011"><a xlink:title=" ">
<path fill="none" stroke="#63b8ff" d="M260.27,-53.09C268.06,-52.11 276.16,-51.09 284.22,-50.07"/>
<polygon fill="#63b8ff" stroke="#63b8ff" points="284.54,-53.56 294.03,-48.84 283.67,-46.61 284.54,-53.56"/>
</a>
</g>
</g>
<!-- Node4 -->
<g id="Node000004" class="node">
<title>Node4</title>
<g id="a_Node000004"><a xlink:href="cbuffer_8h.html#a1846e554cfe5e72cc8df6b60ab5c6d84" target="_top" xlink:title=" ">
<polygon fill="white" stroke="#666666" points="578.88,-108 457.12,-108 457.12,-88 578.88,-88 578.88,-108"/>
<text text-anchor="middle" x="518" y="-94.5" font-family="Helvetica,sans-Serif" font-size="10.00">zrtos_cbuffer_node__put</text>
</a>
</g>
</g>
<!-- Node3&#45;&gt;Node4 -->
<g id="edge3_Node000003_Node000004" class="edge">
<title>Node3&#45;&gt;Node4</title>
<g id="a_edge3_Node000003_Node000004"><a xlink:title=" ">
<path fill="none" stroke="#63b8ff" d="M405.45,-84.65C418.02,-86.15 431.88,-87.81 445.44,-89.43"/>
<polygon fill="#63b8ff" stroke="#63b8ff" points="444.87,-92.89 455.21,-90.6 445.7,-85.94 444.87,-92.89"/>
</a>
</g>
</g>
<!-- Node10 -->
<g id="Node000010" class="node">
<title>Node10</title>
<g id="a_Node000010"><a xlink:href="list_8h.html#a0039f0f08299038ab1a71e271a43a086" target="_top" xlink:title=" ">
<polygon fill="white" stroke="#666666" points="581.5,-70 454.5,-70 454.5,-50 581.5,-50 581.5,-70"/>
<text text-anchor="middle" x="518" y="-56.5" font-family="Helvetica,sans-Serif" font-size="10.00">zrtos_list__get_first_node</text>
</a>
</g>
</g>
<!-- Node3&#45;&gt;Node10 -->
<g id="edge10_Node000003_Node000010" class="edge">
<title>Node3&#45;&gt;Node10</title>
<g id="a_edge10_Node000003_Node000010"><a xlink:title=" ">
<path fill="none" stroke="#63b8ff" d="M405.45,-73.35C417.26,-71.94 430.2,-70.39 442.97,-68.86"/>
<polygon fill="#63b8ff" stroke="#63b8ff" points="443.09,-72.37 452.6,-67.71 442.25,-65.42 443.09,-72.37"/>
</a>
</g>
</g>
<!-- Node4&#45;&gt;Node4 -->
<g id="edge9_Node000004_Node000004" class="edge">
<title>Node4&#45;&gt;Node4</title>
<g id="a_edge9_Node000004_Node000004"><a xlink:title=" ">
<path fill="none" stroke="#63b8ff" d="M492.46,-108.34C481.54,-116.98 490.06,-126 518,-126 533.28,-126 542.75,-123.3 546.41,-119.44"/>
<polygon fill="#63b8ff" stroke="#63b8ff" points="549.81,-118.61 543.92,-109.8 543.03,-120.36 549.81,-118.61"/>
</a>
</g>
</g>
<!-- Node5 -->
<g id="Node000005" class="node">
<title>Node5</title>
<g id="a_Node000005"><a xlink:href="cbuffer_8h.html#a1749e471b67565254c5dc85e0cb728a1" target="_top" xlink:title=" ">
<polygon fill="white" stroke="#666666" points="743,-108 617.5,-108 617.5,-88 743,-88 743,-108"/>
<text text-anchor="middle" x="680.25" y="-94.5" font-family="Helvetica,sans-Serif" font-size="10.00">zrtos_cbuffer_node__new</text>
</a>
</g>
</g>
<!-- Node4&#45;&gt;Node5 -->
<g id="edge4_Node000004_Node000005" class="edge">
<title>Node4&#45;&gt;Node5</title>
<g id="a_edge4_Node000004_Node000005"><a xlink:title=" ">
<path fill="none" stroke="#63b8ff" d="M579.13,-98C587.87,-98 596.95,-98 605.92,-98"/>
<polygon fill="#63b8ff" stroke="#63b8ff" points="605.67,-101.5 615.67,-98 605.67,-94.5 605.67,-101.5"/>
</a>
</g>
</g>
<!-- Node6 -->
<g id="Node000006" class="node">
<title>Node6</title>
<g id="a_Node000006"><a xlink:href="cbuffer_8h.html#aeb332726de06c905eb2db32ae3d323eb" target="_top" xlink:title=" ">
<polygon fill="white" stroke="#666666" points="876.75,-114 779,-114 779,-82 876.75,-82 876.75,-114"/>
<text text-anchor="start" x="787" y="-100.5" font-family="Helvetica,sans-Serif" font-size="10.00">zrtos_cbuffer_node</text>
<text text-anchor="middle" x="827.88" y="-88.5" font-family="Helvetica,sans-Serif" font-size="10.00">__init</text>
</a>
</g>
</g>
<!-- Node5&#45;&gt;Node6 -->
<g id="edge5_Node000005_Node000006" class="edge">
<title>Node5&#45;&gt;Node6</title>
<g id="a_edge5_Node000005_Node000006"><a xlink:title=" ">
<path fill="none" stroke="#63b8ff" d="M743.43,-98C751.33,-98 759.39,-98 767.24,-98"/>
<polygon fill="#63b8ff" stroke="#63b8ff" points="767.04,-101.5 777.04,-98 767.04,-94.5 767.04,-101.5"/>
</a>
</g>
</g>
<!-- Node7 -->
<g id="Node000007" class="node">
<title>Node7</title>
<g id="a_Node000007"><a xlink:href="list_8h.html#aa734984fb49603438b179f49fff38477" target="_top" xlink:title=" ">
<polygon fill="white" stroke="#666666" points="1009,-127 921.75,-127 921.75,-107 1009,-107 1009,-127"/>
<text text-anchor="middle" x="965.38" y="-113.5" font-family="Helvetica,sans-Serif" font-size="10.00">zrtos_list__push</text>
</a>
</g>
</g>
<!-- Node6&#45;&gt;Node7 -->
<g id="edge6_Node000006_Node000007" class="edge">
<title>Node6&#45;&gt;Node7</title>
<g id="a_edge6_Node000006_Node000007"><a xlink:title=" ">
<path fill="none" stroke="#63b8ff" d="M877.03,-104.75C887.76,-106.26 899.2,-107.86 910.15,-109.4"/>
<polygon fill="#63b8ff" stroke="#63b8ff" points="909.45,-112.83 919.84,-110.75 910.42,-105.9 909.45,-112.83"/>
</a>
</g>
</g>
<!-- Node9 -->
<g id="Node000009" class="node">
<title>Node9</title>
<g id="a_Node000009"><a xlink:href="list_8h.html#a40feeb4cd0cc4e30201a279240b52429" target="_top" xlink:title=" ">
<polygon fill="white" stroke="#666666" points="1018,-89 912.75,-89 912.75,-69 1018,-69 1018,-89"/>
<text text-anchor="middle" x="965.38" y="-75.5" font-family="Helvetica,sans-Serif" font-size="10.00">zrtos_list_node__init</text>
</a>
</g>
</g>
<!-- Node6&#45;&gt;Node9 -->
<g id="edge8_Node000006_Node000009" class="edge">
<title>Node6&#45;&gt;Node9</title>
<g id="a_edge8_Node000006_Node000009"><a xlink:title=" ">
<path fill="none" stroke="#63b8ff" d="M877.03,-91.25C884.98,-90.13 893.32,-88.96 901.57,-87.81"/>
<polygon fill="#63b8ff" stroke="#63b8ff" points="901.79,-91.31 911.2,-86.46 900.81,-84.38 901.79,-91.31"/>
</a>
</g>
</g>
<!-- Node8 -->
<g id="Node000008" class="node">
<title>Node8</title>
<g id="a_Node000008"><a xlink:href="list_8h.html#aa2f26b2b6fd722b708eb7e25cc264a90" target="_top" xlink:title=" ">
<polygon fill="white" stroke="#666666" points="1181,-127 1054,-127 1054,-107 1181,-107 1181,-127"/>
<text text-anchor="middle" x="1117.5" y="-113.5" font-family="Helvetica,sans-Serif" font-size="10.00">zrtos_list__get_last_node</text>
</a>
</g>
</g>
<!-- Node7&#45;&gt;Node8 -->
<g id="edge7_Node000007_Node000008" class="edge">
<title>Node7&#45;&gt;Node8</title>
<g id="a_edge7_Node000007_Node000008"><a xlink:title=" ">
<path fill="none" stroke="#63b8ff" d="M1009.39,-117C1019.73,-117 1031.06,-117 1042.36,-117"/>
<polygon fill="#63b8ff" stroke="#63b8ff" points="1042.1,-120.5 1052.1,-117 1042.1,-113.5 1042.1,-120.5"/>
</a>
</g>
</g>
</g>
</svg>
