<?xml version="1.0" encoding="UTF-8" standalone="no"?>
<!DOCTYPE svg PUBLIC "-//W3C//DTD SVG 1.1//EN"
 "http://www.w3.org/Graphics/SVG/1.1/DTD/svg11.dtd">
<!-- Generated by graphviz version 10.0.1 (20240210.2158)
 -->
<!-- Title: zrtos_vfs_module_uart_args__get_cbuffer_in Pages: 1 -->
<svg width="458pt" height="119pt"
 viewBox="0.00 0.00 458.00 119.00" xmlns="http://www.w3.org/2000/svg" xmlns:xlink="http://www.w3.org/1999/xlink">
<g id="graph0" class="graph" transform="scale(1 1) rotate(0) translate(4 115)">
<title>zrtos_vfs_module_uart_args__get_cbuffer_in</title>
<!-- Node1 -->
<g id="Node000001" class="node">
<title>Node1</title>
<g id="a_Node000001"><a xlink:title=" ">
<polygon fill="#999999" stroke="#666666" points="450,-57 337.25,-57 337.25,-25 450,-25 450,-57"/>
<text text-anchor="start" x="345.25" y="-43.5" font-family="Helvetica,sans-Serif" font-size="10.00">zrtos_vfs_module_uart</text>
<text text-anchor="middle" x="393.62" y="-31.5" font-family="Helvetica,sans-Serif" font-size="10.00">_args__get_cbuffer_in</text>
</a>
</g>
</g>
<!-- Node2 -->
<g id="Node000002" class="node">
<title>Node2</title>
<g id="a_Node000002"><a xlink:href="avr_2uart_2uart_8h.html#aea39870a896298195c0769800af5b3e2" target="_top" xlink:title=" ">
<polygon fill="white" stroke="#666666" points="301.25,-82 166.75,-82 166.75,-50 301.25,-50 301.25,-82"/>
<text text-anchor="start" x="174.75" y="-68.5" font-family="Helvetica,sans-Serif" font-size="10.00">zrtos_vfs_module_avr</text>
<text text-anchor="middle" x="234" y="-56.5" font-family="Helvetica,sans-Serif" font-size="10.00">_uart__on_receive_interrupt</text>
</a>
</g>
</g>
<!-- Node1&#45;&gt;Node2 -->
<g id="edge1_Node000001_Node000002" class="edge">
<title>Node1&#45;&gt;Node2</title>
<g id="a_edge1_Node000001_Node000002"><a xlink:title=" ">
<path fill="none" stroke="#63b8ff" d="M325.88,-51.59C317.87,-52.86 309.69,-54.15 301.69,-55.42"/>
<polygon fill="#63b8ff" stroke="#63b8ff" points="326.23,-55.07 335.56,-50.05 325.13,-48.16 326.23,-55.07"/>
</a>
</g>
</g>
<!-- Node5 -->
<g id="Node000005" class="node">
<title>Node5</title>
<g id="a_Node000005"><a xlink:href="rtu_8h.html#a223fc39dfd241ff17884c9f5d03f8e78" target="_top" xlink:title=" ">
<polygon fill="white" stroke="#666666" points="299.38,-32 168.62,-32 168.62,0 299.38,0 299.38,-32"/>
<text text-anchor="start" x="176.62" y="-18.5" font-family="Helvetica,sans-Serif" font-size="10.00">zrtos_vfs_module_modbus</text>
<text text-anchor="middle" x="234" y="-6.5" font-family="Helvetica,sans-Serif" font-size="10.00">_rtu__on_recv_timeout</text>
</a>
</g>
</g>
<!-- Node1&#45;&gt;Node5 -->
<g id="edge4_Node000001_Node000005" class="edge">
<title>Node1&#45;&gt;Node5</title>
<g id="a_edge4_Node000001_Node000005"><a xlink:title=" ">
<path fill="none" stroke="#63b8ff" d="M325.85,-30.41C317.21,-29.04 308.38,-27.64 299.77,-26.27"/>
<polygon fill="#63b8ff" stroke="#63b8ff" points="325.13,-33.84 335.56,-31.95 326.23,-26.93 325.13,-33.84"/>
</a>
</g>
</g>
<!-- Node3 -->
<g id="Node000003" class="node">
<title>Node3</title>
<g id="a_Node000003"><a xlink:href="uart0_8h.html#a69856cc389c8b76c8cf8c45ea5a33bc7" target="_top" xlink:title=" ">
<polygon fill="white" stroke="#666666" points="81.25,-111 49.5,-111 49.5,-91 81.25,-91 81.25,-111"/>
<text text-anchor="middle" x="65.38" y="-97.5" font-family="Helvetica,sans-Serif" font-size="10.00">ISR</text>
</a>
</g>
</g>
<!-- Node2&#45;&gt;Node3 -->
<g id="edge2_Node000002_Node000003" class="edge">
<title>Node2&#45;&gt;Node3</title>
<g id="a_edge2_Node000002_Node000003"><a xlink:title=" ">
<path fill="none" stroke="#63b8ff" d="M155.58,-82.26C127.56,-88.15 98.64,-94.22 81.6,-97.8"/>
<polygon fill="#63b8ff" stroke="#63b8ff" points="156.12,-85.73 165.19,-80.24 154.68,-78.88 156.12,-85.73"/>
</a>
</g>
</g>
<!-- Node4 -->
<g id="Node000004" class="node">
<title>Node4</title>
<g id="a_Node000004"><a xlink:href="uart1_8h.html#a267ce5a39e1419fa9d59d7280b56b70e" target="_top" xlink:title=" ">
<polygon fill="white" stroke="#666666" points="81.25,-73 49.5,-73 49.5,-53 81.25,-53 81.25,-73"/>
<text text-anchor="middle" x="65.38" y="-59.5" font-family="Helvetica,sans-Serif" font-size="10.00">ISR</text>
</a>
</g>
</g>
<!-- Node2&#45;&gt;Node4 -->
<g id="edge3_Node000002_Node000004" class="edge">
<title>Node2&#45;&gt;Node4</title>
<g id="a_edge3_Node000002_Node000004"><a xlink:title=" ">
<path fill="none" stroke="#63b8ff" d="M155.21,-64.6C127.3,-64.1 98.57,-63.58 81.6,-63.27"/>
<polygon fill="#63b8ff" stroke="#63b8ff" points="155.09,-68.1 165.15,-64.78 155.22,-61.1 155.09,-68.1"/>
</a>
</g>
</g>
<!-- Node6 -->
<g id="Node000006" class="node">
<title>Node6</title>
<g id="a_Node000006"><a xlink:href="rtu_8h.html#aac1c0a8f15ec0cd7540f53a61fe9ff08" target="_top" xlink:title=" ">
<polygon fill="white" stroke="#666666" points="130.75,-32 0,-32 0,0 130.75,0 130.75,-32"/>
<text text-anchor="start" x="8" y="-18.5" font-family="Helvetica,sans-Serif" font-size="10.00">zrtos_vfs_module_modbus</text>
<text text-anchor="middle" x="65.38" y="-6.5" font-family="Helvetica,sans-Serif" font-size="10.00">_rtu_args__init</text>
</a>
</g>
</g>
<!-- Node5&#45;&gt;Node6 -->
<g id="edge5_Node000005_Node000006" class="edge">
<title>Node5&#45;&gt;Node6</title>
<g id="a_edge5_Node000005_Node000006"><a xlink:title=" ">
<path fill="none" stroke="#63b8ff" d="M157.23,-16C148.53,-16 139.72,-16 131.17,-16"/>
<polygon fill="#63b8ff" stroke="#63b8ff" points="157.06,-19.5 167.06,-16 157.06,-12.5 157.06,-19.5"/>
</a>
</g>
</g>
</g>
</svg>
