<?xml version="1.0" encoding="UTF-8" standalone="no"?>
<!DOCTYPE svg PUBLIC "-//W3C//DTD SVG 1.1//EN"
 "http://www.w3.org/Graphics/SVG/1.1/DTD/svg11.dtd">
<!-- Generated by graphviz version 10.0.1 (20240210.2158)
 -->
<!-- Title: zrtos_vfs_module_avr_uart1__on_write Pages: 1 -->
<svg width="1379pt" height="363pt"
 viewBox="0.00 0.00 1379.00 363.00" xmlns="http://www.w3.org/2000/svg" xmlns:xlink="http://www.w3.org/1999/xlink">
<g id="graph0" class="graph" transform="scale(1 1) rotate(0) translate(4 359)">
<title>zrtos_vfs_module_avr_uart1__on_write</title>
<!-- Node1 -->
<g id="Node000001" class="node">
<title>Node1</title>
<g id="a_Node000001"><a xlink:title=" ">
<polygon fill="#999999" stroke="#666666" points="108.25,-198 0,-198 0,-166 108.25,-166 108.25,-198"/>
<text text-anchor="start" x="8" y="-184.5" font-family="Helvetica,sans-Serif" font-size="10.00">zrtos_vfs_module_avr</text>
<text text-anchor="middle" x="54.12" y="-172.5" font-family="Helvetica,sans-Serif" font-size="10.00">_uart1__on_write</text>
</a>
</g>
</g>
<!-- Node2 -->
<g id="Node000002" class="node">
<title>Node2</title>
<g id="a_Node000002"><a xlink:href="error_8h.html#add13298163f63b7d37ed9f12d57e1a31" target="_top" xlink:title=" ">
<polygon fill="white" stroke="#666666" points="562.75,-243 440.25,-243 440.25,-223 562.75,-223 562.75,-243"/>
<text text-anchor="middle" x="501.5" y="-229.5" font-family="Helvetica,sans-Serif" font-size="10.00">zrtos_error__is_success</text>
</a>
</g>
</g>
<!-- Node1&#45;&gt;Node2 -->
<g id="edge1_Node000001_Node000002" class="edge">
<title>Node1&#45;&gt;Node2</title>
<g id="a_edge1_Node000001_Node000002"><a xlink:title=" ">
<path fill="none" stroke="#63b8ff" d="M108.41,-188.1C188.26,-197.25 339.13,-214.52 428.65,-224.77"/>
<polygon fill="#63b8ff" stroke="#63b8ff" points="428.22,-228.25 438.55,-225.91 429.01,-221.29 428.22,-228.25"/>
</a>
</g>
</g>
<!-- Node3 -->
<g id="Node000003" class="node">
<title>Node3</title>
<g id="a_Node000003"><a xlink:href="uart_2uart_8h.html#a9e735d9796aaa30e4a5fce9c763adf92" target="_top" xlink:title=" ">
<polygon fill="white" stroke="#666666" points="257,-176 144.25,-176 144.25,-144 257,-144 257,-176"/>
<text text-anchor="start" x="152.25" y="-162.5" font-family="Helvetica,sans-Serif" font-size="10.00">zrtos_vfs_module_uart</text>
<text text-anchor="middle" x="200.62" y="-150.5" font-family="Helvetica,sans-Serif" font-size="10.00">__on_write</text>
</a>
</g>
</g>
<!-- Node1&#45;&gt;Node3 -->
<g id="edge2_Node000001_Node000003" class="edge">
<title>Node1&#45;&gt;Node3</title>
<g id="a_edge2_Node000001_Node000003"><a xlink:title=" ">
<path fill="none" stroke="#63b8ff" d="M108.52,-173.87C116.39,-172.67 124.58,-171.43 132.68,-170.19"/>
<polygon fill="#63b8ff" stroke="#63b8ff" points="133.17,-173.66 142.53,-168.69 132.12,-166.74 133.17,-173.66"/>
</a>
</g>
</g>
<!-- Node4 -->
<g id="Node000004" class="node">
<title>Node4</title>
<g id="a_Node000004"><a xlink:href="cbuffer_8h.html#a5d269503e04946737598d2062c5bfaf4" target="_top" xlink:title=" ">
<polygon fill="white" stroke="#666666" points="404.25,-170 293,-170 293,-150 404.25,-150 404.25,-170"/>
<text text-anchor="middle" x="348.62" y="-156.5" font-family="Helvetica,sans-Serif" font-size="10.00">zrtos_cbuffer__put_ex</text>
</a>
</g>
</g>
<!-- Node3&#45;&gt;Node4 -->
<g id="edge3_Node000003_Node000004" class="edge">
<title>Node3&#45;&gt;Node4</title>
<g id="a_edge3_Node000003_Node000004"><a xlink:title=" ">
<path fill="none" stroke="#63b8ff" d="M257.24,-160C265.13,-160 273.3,-160 281.36,-160"/>
<polygon fill="#63b8ff" stroke="#63b8ff" points="281.14,-163.5 291.14,-160 281.14,-156.5 281.14,-163.5"/>
</a>
</g>
</g>
<!-- Node27 -->
<g id="Node000027" class="node">
<title>Node27</title>
<g id="a_Node000027"><a xlink:href="vfs__file_8h.html#adbc392417c3fef015ea0c4728d2be7c6" target="_top" xlink:title=" ">
<polygon fill="white" stroke="#666666" points="396.38,-132 300.88,-132 300.88,-100 396.38,-100 396.38,-132"/>
<text text-anchor="start" x="308.88" y="-118.5" font-family="Helvetica,sans-Serif" font-size="10.00">zrtos_vfs_file__get</text>
<text text-anchor="middle" x="348.62" y="-106.5" font-family="Helvetica,sans-Serif" font-size="10.00">_inode_data</text>
</a>
</g>
</g>
<!-- Node3&#45;&gt;Node27 -->
<g id="edge32_Node000003_Node000027" class="edge">
<title>Node3&#45;&gt;Node27</title>
<g id="a_edge32_Node000003_Node000027"><a xlink:title=" ">
<path fill="none" stroke="#63b8ff" d="M255.99,-143.62C266.93,-140.32 278.48,-136.84 289.55,-133.5"/>
<polygon fill="#63b8ff" stroke="#63b8ff" points="290.4,-136.9 298.96,-130.67 288.38,-130.2 290.4,-136.9"/>
</a>
</g>
</g>
<!-- Node4&#45;&gt;Node2 -->
<g id="edge31_Node000004_Node000002" class="edge">
<title>Node4&#45;&gt;Node2</title>
<g id="a_edge31_Node000004_Node000002"><a xlink:title=" ">
<path fill="none" stroke="#63b8ff" d="M364.44,-170.29C381.92,-182.09 412.17,-201.41 440.25,-214 444.02,-215.69 448,-217.3 452.02,-218.81"/>
<polygon fill="#63b8ff" stroke="#63b8ff" points="450.69,-222.05 461.29,-222.06 453.01,-215.45 450.69,-222.05"/>
</a>
</g>
</g>
<!-- Node5 -->
<g id="Node000005" class="node">
<title>Node5</title>
<g id="a_Node000005"><a xlink:href="cbuffer_8h.html#afdb6a6176387d77a0f10e28536ba28f9" target="_top" xlink:title=" ">
<polygon fill="white" stroke="#666666" points="549.25,-205 453.75,-205 453.75,-185 549.25,-185 549.25,-205"/>
<text text-anchor="middle" x="501.5" y="-191.5" font-family="Helvetica,sans-Serif" font-size="10.00">zrtos_cbuffer__put</text>
</a>
</g>
</g>
<!-- Node4&#45;&gt;Node5 -->
<g id="edge4_Node000004_Node000005" class="edge">
<title>Node4&#45;&gt;Node5</title>
<g id="a_edge4_Node000004_Node000005"><a xlink:title=" ">
<path fill="none" stroke="#63b8ff" d="M394.48,-170.41C410.08,-174.02 427.78,-178.13 444.18,-181.94"/>
<polygon fill="#63b8ff" stroke="#63b8ff" points="443.29,-185.32 453.82,-184.17 444.87,-178.5 443.29,-185.32"/>
</a>
</g>
</g>
<!-- Node15 -->
<g id="Node000015" class="node">
<title>Node15</title>
<g id="a_Node000015"><a xlink:href="cbuffer_8h.html#a9aa1ad8581d3c89304d2ff464a53e92e" target="_top" xlink:title=" ">
<polygon fill="white" stroke="#666666" points="559.38,-117 443.62,-117 443.62,-85 559.38,-85 559.38,-117"/>
<text text-anchor="start" x="451.62" y="-103.5" font-family="Helvetica,sans-Serif" font-size="10.00">zrtos_cbuffer__rollback</text>
<text text-anchor="middle" x="501.5" y="-91.5" font-family="Helvetica,sans-Serif" font-size="10.00">_write_transaction</text>
</a>
</g>
</g>
<!-- Node4&#45;&gt;Node15 -->
<g id="edge16_Node000004_Node000015" class="edge">
<title>Node4&#45;&gt;Node15</title>
<g id="a_edge16_Node000004_Node000015"><a xlink:title=" ">
<path fill="none" stroke="#63b8ff" d="M380.65,-149.57C388.39,-146.87 396.65,-143.9 404.25,-141 420.44,-134.82 424.25,-132.65 440.25,-126 443.6,-124.61 447.05,-123.17 450.52,-121.73"/>
<polygon fill="#63b8ff" stroke="#63b8ff" points="451.67,-125.05 459.56,-117.98 448.98,-118.58 451.67,-125.05"/>
</a>
</g>
</g>
<!-- Node25 -->
<g id="Node000025" class="node">
<title>Node25</title>
<g id="a_Node000025"><a xlink:href="cbuffer_8h.html#aaf9c5c04a1350c2cdd906f7c7081ee38" target="_top" xlink:title=" ">
<polygon fill="white" stroke="#666666" points="552.25,-167 450.75,-167 450.75,-135 552.25,-135 552.25,-167"/>
<text text-anchor="start" x="458.75" y="-153.5" font-family="Helvetica,sans-Serif" font-size="10.00">zrtos_cbuffer__start</text>
<text text-anchor="middle" x="501.5" y="-141.5" font-family="Helvetica,sans-Serif" font-size="10.00">_write_transaction</text>
</a>
</g>
</g>
<!-- Node4&#45;&gt;Node25 -->
<g id="edge28_Node000004_Node000025" class="edge">
<title>Node4&#45;&gt;Node25</title>
<g id="a_edge28_Node000004_Node000025"><a xlink:title=" ">
<path fill="none" stroke="#63b8ff" d="M404.52,-156.73C415.77,-156.05 427.68,-155.34 439.14,-154.66"/>
<polygon fill="#63b8ff" stroke="#63b8ff" points="439.12,-158.17 448.89,-154.08 438.7,-151.18 439.12,-158.17"/>
</a>
</g>
</g>
<!-- Node26 -->
<g id="Node000026" class="node">
<title>Node26</title>
<g id="a_Node000026"><a xlink:href="error_8h.html#af58428a30fbc7fd6967e15504df633a0" target="_top" xlink:title=" ">
<polygon fill="white" stroke="#666666" points="554.12,-67 448.88,-67 448.88,-47 554.12,-47 554.12,-67"/>
<text text-anchor="middle" x="501.5" y="-53.5" font-family="Helvetica,sans-Serif" font-size="10.00">zrtos_error__is_error</text>
</a>
</g>
</g>
<!-- Node4&#45;&gt;Node26 -->
<g id="edge30_Node000004_Node000026" class="edge">
<title>Node4&#45;&gt;Node26</title>
<g id="a_edge30_Node000004_Node000026"><a xlink:title=" ">
<path fill="none" stroke="#63b8ff" d="M390.52,-149.57C395.45,-147.25 400.18,-144.43 404.25,-141 429.51,-119.73 414.68,-96.9 440.25,-76 441.71,-74.81 443.24,-73.69 444.84,-72.64"/>
<polygon fill="#63b8ff" stroke="#63b8ff" points="446.07,-75.96 453.17,-68.09 442.71,-69.81 446.07,-75.96"/>
</a>
</g>
</g>
<!-- Node6 -->
<g id="Node000006" class="node">
<title>Node6</title>
<g id="a_Node000006"><a xlink:href="cbuffer_8h.html#a1846e554cfe5e72cc8df6b60ab5c6d84" target="_top" xlink:title=" ">
<polygon fill="white" stroke="#666666" points="720.5,-263 598.75,-263 598.75,-243 720.5,-243 720.5,-263"/>
<text text-anchor="middle" x="659.62" y="-249.5" font-family="Helvetica,sans-Serif" font-size="10.00">zrtos_cbuffer_node__put</text>
</a>
</g>
</g>
<!-- Node5&#45;&gt;Node6 -->
<g id="edge5_Node000005_Node000006" class="edge">
<title>Node5&#45;&gt;Node6</title>
<g id="a_edge5_Node000005_Node000006"><a xlink:title=" ">
<path fill="none" stroke="#63b8ff" d="M537.39,-205.48C545.74,-208.13 554.6,-211.06 562.75,-214 583.29,-221.4 605.92,-230.56 624.04,-238.14"/>
<polygon fill="#63b8ff" stroke="#63b8ff" points="622.43,-241.26 633.01,-241.92 625.15,-234.81 622.43,-241.26"/>
</a>
</g>
</g>
<!-- Node12 -->
<g id="Node000012" class="node">
<title>Node12</title>
<g id="a_Node000012"><a xlink:href="list_8h.html#aa2f26b2b6fd722b708eb7e25cc264a90" target="_top" xlink:title=" ">
<polygon fill="white" stroke="#666666" points="1371,-205 1244,-205 1244,-185 1371,-185 1371,-205"/>
<text text-anchor="middle" x="1307.5" y="-191.5" font-family="Helvetica,sans-Serif" font-size="10.00">zrtos_list__get_last_node</text>
</a>
</g>
</g>
<!-- Node5&#45;&gt;Node12 -->
<g id="edge15_Node000005_Node000012" class="edge">
<title>Node5&#45;&gt;Node12</title>
<g id="a_edge15_Node000005_Node000012"><a xlink:title=" ">
<path fill="none" stroke="#63b8ff" d="M549.58,-195C611.28,-195 722.87,-195 818.25,-195 818.25,-195 818.25,-195 982.5,-195 1068.2,-195 1166.65,-195 1232.32,-195"/>
<polygon fill="#63b8ff" stroke="#63b8ff" points="1232.27,-198.5 1242.27,-195 1232.27,-191.5 1232.27,-198.5"/>
</a>
</g>
</g>
<!-- Node6&#45;&gt;Node6 -->
<g id="edge14_Node000006_Node000006" class="edge">
<title>Node6&#45;&gt;Node6</title>
<g id="a_edge14_Node000006_Node000006"><a xlink:title=" ">
<path fill="none" stroke="#63b8ff" d="M634.5,-263.34C623.76,-271.98 632.14,-281 659.62,-281 674.66,-281 683.97,-278.3 687.57,-274.44"/>
<polygon fill="#63b8ff" stroke="#63b8ff" points="690.98,-273.63 685.12,-264.81 684.19,-275.36 690.98,-273.63"/>
</a>
</g>
</g>
<!-- Node7 -->
<g id="Node000007" class="node">
<title>Node7</title>
<g id="a_Node000007"><a xlink:href="cbuffer_8h.html#a0f069b28d310b9b6586aeb37ec2fb1f3" target="_top" xlink:title=" ">
<polygon fill="white" stroke="#666666" points="868.12,-341 770.38,-341 770.38,-309 868.12,-309 868.12,-341"/>
<text text-anchor="start" x="778.38" y="-327.5" font-family="Helvetica,sans-Serif" font-size="10.00">zrtos_cbuffer_node</text>
<text text-anchor="middle" x="819.25" y="-315.5" font-family="Helvetica,sans-Serif" font-size="10.00">__get_free_space</text>
</a>
</g>
</g>
<!-- Node6&#45;&gt;Node7 -->
<g id="edge6_Node000006_Node000007" class="edge">
<title>Node6&#45;&gt;Node7</title>
<g id="a_edge6_Node000006_Node000007"><a xlink:title=" ">
<path fill="none" stroke="#63b8ff" d="M683.55,-263.47C706.59,-273.99 742.76,-290.52 771.82,-303.79"/>
<polygon fill="#63b8ff" stroke="#63b8ff" points="770.24,-306.92 780.79,-307.89 773.15,-300.55 770.24,-306.92"/>
</a>
</g>
</g>
<!-- Node9 -->
<g id="Node000009" class="node">
<title>Node9</title>
<g id="a_Node000009"><a xlink:href="cbuffer_8h.html#a1749e471b67565254c5dc85e0cb728a1" target="_top" xlink:title=" ">
<polygon fill="white" stroke="#666666" points="882,-263 756.5,-263 756.5,-243 882,-243 882,-263"/>
<text text-anchor="middle" x="819.25" y="-249.5" font-family="Helvetica,sans-Serif" font-size="10.00">zrtos_cbuffer_node__new</text>
</a>
</g>
</g>
<!-- Node6&#45;&gt;Node9 -->
<g id="edge8_Node000006_Node000009" class="edge">
<title>Node6&#45;&gt;Node9</title>
<g id="a_edge8_Node000006_Node000009"><a xlink:title=" ">
<path fill="none" stroke="#63b8ff" d="M720.67,-253C728.53,-253 736.66,-253 744.72,-253"/>
<polygon fill="#63b8ff" stroke="#63b8ff" points="744.51,-256.5 754.51,-253 744.51,-249.5 744.51,-256.5"/>
</a>
</g>
</g>
<!-- Node8 -->
<g id="Node000008" class="node">
<title>Node8</title>
<g id="a_Node000008"><a xlink:href="cbuffer_8h.html#a640a4e58217d5c24d6e795f0fca19440" target="_top" xlink:title=" ">
<polygon fill="white" stroke="#666666" points="1030.38,-355 932.62,-355 932.62,-323 1030.38,-323 1030.38,-355"/>
<text text-anchor="start" x="940.62" y="-341.5" font-family="Helvetica,sans-Serif" font-size="10.00">zrtos_cbuffer_node</text>
<text text-anchor="middle" x="981.5" y="-329.5" font-family="Helvetica,sans-Serif" font-size="10.00">__get_length</text>
</a>
</g>
</g>
<!-- Node7&#45;&gt;Node8 -->
<g id="edge7_Node000007_Node000008" class="edge">
<title>Node7&#45;&gt;Node8</title>
<g id="a_edge7_Node000007_Node000008"><a xlink:title=" ">
<path fill="none" stroke="#63b8ff" d="M868.33,-329.2C884.89,-330.65 903.64,-332.29 921,-333.8"/>
<polygon fill="#63b8ff" stroke="#63b8ff" points="920.4,-337.26 930.67,-334.65 921.01,-330.29 920.4,-337.26"/>
</a>
</g>
</g>
<!-- Node10 -->
<g id="Node000010" class="node">
<title>Node10</title>
<g id="a_Node000010"><a xlink:href="cbuffer_8h.html#aeb332726de06c905eb2db32ae3d323eb" target="_top" xlink:title=" ">
<polygon fill="white" stroke="#666666" points="1030.38,-305 932.62,-305 932.62,-273 1030.38,-273 1030.38,-305"/>
<text text-anchor="start" x="940.62" y="-291.5" font-family="Helvetica,sans-Serif" font-size="10.00">zrtos_cbuffer_node</text>
<text text-anchor="middle" x="981.5" y="-279.5" font-family="Helvetica,sans-Serif" font-size="10.00">__init</text>
</a>
</g>
</g>
<!-- Node9&#45;&gt;Node10 -->
<g id="edge9_Node000009_Node000010" class="edge">
<title>Node9&#45;&gt;Node10</title>
<g id="a_edge9_Node000009_Node000010"><a xlink:title=" ">
<path fill="none" stroke="#63b8ff" d="M866.6,-263.41C883.67,-267.25 903.25,-271.64 921.3,-275.7"/>
<polygon fill="#63b8ff" stroke="#63b8ff" points="920.3,-279.06 930.83,-277.84 921.84,-272.23 920.3,-279.06"/>
</a>
</g>
</g>
<!-- Node14 -->
<g id="Node000014" class="node">
<title>Node14</title>
<g id="a_Node000014"><a xlink:href="malloc__limit_8h.html#a219ea8916b582afe8c2120d09abf8656" target="_top" xlink:title=" ">
<polygon fill="white" stroke="#666666" points="1028.88,-255 934.12,-255 934.12,-223 1028.88,-223 1028.88,-255"/>
<text text-anchor="start" x="942.12" y="-241.5" font-family="Helvetica,sans-Serif" font-size="10.00">zrtos_malloc_limit</text>
<text text-anchor="middle" x="981.5" y="-229.5" font-family="Helvetica,sans-Serif" font-size="10.00">__malloc</text>
</a>
</g>
</g>
<!-- Node9&#45;&gt;Node14 -->
<g id="edge13_Node000009_Node000014" class="edge">
<title>Node9&#45;&gt;Node14</title>
<g id="a_edge13_Node000009_Node000014"><a xlink:title=" ">
<path fill="none" stroke="#63b8ff" d="M882.21,-247.59C895.56,-246.42 909.62,-245.19 922.8,-244.04"/>
<polygon fill="#63b8ff" stroke="#63b8ff" points="922.95,-247.54 932.61,-243.18 922.34,-240.57 922.95,-247.54"/>
</a>
</g>
</g>
<!-- Node11 -->
<g id="Node000011" class="node">
<title>Node11</title>
<g id="a_Node000011"><a xlink:href="list_8h.html#aa734984fb49603438b179f49fff38477" target="_top" xlink:title=" ">
<polygon fill="white" stroke="#666666" points="1188.12,-299 1100.88,-299 1100.88,-279 1188.12,-279 1188.12,-299"/>
<text text-anchor="middle" x="1144.5" y="-285.5" font-family="Helvetica,sans-Serif" font-size="10.00">zrtos_list__push</text>
</a>
</g>
</g>
<!-- Node10&#45;&gt;Node11 -->
<g id="edge10_Node000010_Node000011" class="edge">
<title>Node10&#45;&gt;Node11</title>
<g id="a_edge10_Node000010_Node000011"><a xlink:title=" ">
<path fill="none" stroke="#63b8ff" d="M1030.81,-289C1049.14,-289 1070.14,-289 1089,-289"/>
<polygon fill="#63b8ff" stroke="#63b8ff" points="1088.92,-292.5 1098.92,-289 1088.92,-285.5 1088.92,-292.5"/>
</a>
</g>
</g>
<!-- Node13 -->
<g id="Node000013" class="node">
<title>Node13</title>
<g id="a_Node000013"><a xlink:href="list_8h.html#a40feeb4cd0cc4e30201a279240b52429" target="_top" xlink:title=" ">
<polygon fill="white" stroke="#666666" points="1197.12,-261 1091.88,-261 1091.88,-241 1197.12,-241 1197.12,-261"/>
<text text-anchor="middle" x="1144.5" y="-247.5" font-family="Helvetica,sans-Serif" font-size="10.00">zrtos_list_node__init</text>
</a>
</g>
</g>
<!-- Node10&#45;&gt;Node13 -->
<g id="edge12_Node000010_Node000013" class="edge">
<title>Node10&#45;&gt;Node13</title>
<g id="a_edge12_Node000010_Node000013"><a xlink:title=" ">
<path fill="none" stroke="#63b8ff" d="M1030.81,-277.6C1048.84,-273.34 1069.45,-268.48 1088.08,-264.08"/>
<polygon fill="#63b8ff" stroke="#63b8ff" points="1088.67,-267.54 1097.6,-261.83 1087.07,-260.72 1088.67,-267.54"/>
</a>
</g>
</g>
<!-- Node11&#45;&gt;Node12 -->
<g id="edge11_Node000011_Node000012" class="edge">
<title>Node11&#45;&gt;Node12</title>
<g id="a_edge11_Node000011_Node000012"><a xlink:title=" ">
<path fill="none" stroke="#63b8ff" d="M1187.33,-278.55C1194.4,-276.15 1201.54,-273.31 1208,-270 1238.09,-254.6 1268.38,-229.82 1287.27,-212.99"/>
<polygon fill="#63b8ff" stroke="#63b8ff" points="1289.41,-215.78 1294.46,-206.46 1284.71,-210.6 1289.41,-215.78"/>
</a>
</g>
</g>
<!-- Node16 -->
<g id="Node000016" class="node">
<title>Node16</title>
<g id="a_Node000016"><a xlink:href="cbuffer_8h.html#a0866b42eeda6c649a07a451372bad55a" target="_top" xlink:title=" ">
<polygon fill="white" stroke="#666666" points="707.38,-167 611.88,-167 611.88,-135 707.38,-135 707.38,-167"/>
<text text-anchor="start" x="619.88" y="-153.5" font-family="Helvetica,sans-Serif" font-size="10.00">zrtos_cbuffer__get</text>
<text text-anchor="middle" x="659.62" y="-141.5" font-family="Helvetica,sans-Serif" font-size="10.00">_last_node</text>
</a>
</g>
</g>
<!-- Node15&#45;&gt;Node16 -->
<g id="edge17_Node000015_Node000016" class="edge">
<title>Node15&#45;&gt;Node16</title>
<g id="a_edge17_Node000015_Node000016"><a xlink:title=" ">
<path fill="none" stroke="#63b8ff" d="M553.62,-117.37C568.8,-122.23 585.52,-127.59 601.07,-132.57"/>
<polygon fill="#63b8ff" stroke="#63b8ff" points="599.58,-135.77 610.18,-135.48 601.72,-129.1 599.58,-135.77"/>
</a>
</g>
</g>
<!-- Node17 -->
<g id="Node000017" class="node">
<title>Node17</title>
<g id="a_Node000017"><a xlink:href="cbuffer_8h.html#afc85ab6d8226b4a1b93d11c2ba1203f6" target="_top" xlink:title=" ">
<polygon fill="white" stroke="#666666" points="708.5,-117 610.75,-117 610.75,-85 708.5,-85 708.5,-117"/>
<text text-anchor="start" x="618.75" y="-103.5" font-family="Helvetica,sans-Serif" font-size="10.00">zrtos_cbuffer_node</text>
<text text-anchor="middle" x="659.62" y="-91.5" font-family="Helvetica,sans-Serif" font-size="10.00">__free</text>
</a>
</g>
</g>
<!-- Node15&#45;&gt;Node17 -->
<g id="edge19_Node000015_Node000017" class="edge">
<title>Node15&#45;&gt;Node17</title>
<g id="a_edge19_Node000015_Node000017"><a xlink:title=" ">
<path fill="none" stroke="#63b8ff" d="M559.75,-101C572.6,-101 586.27,-101 599.22,-101"/>
<polygon fill="#63b8ff" stroke="#63b8ff" points="598.85,-104.5 608.85,-101 598.85,-97.5 598.85,-104.5"/>
</a>
</g>
</g>
<!-- Node23 -->
<g id="Node000023" class="node">
<title>Node23</title>
<g id="a_Node000023"><a xlink:href="cbuffer_8h.html#a8228f34a6acad5cce8802e61ec87c9ca" target="_top" xlink:title=" ">
<polygon fill="white" stroke="#666666" points="708.5,-54 610.75,-54 610.75,-22 708.5,-22 708.5,-54"/>
<text text-anchor="start" x="618.75" y="-40.5" font-family="Helvetica,sans-Serif" font-size="10.00">zrtos_cbuffer_node</text>
<text text-anchor="middle" x="659.62" y="-28.5" font-family="Helvetica,sans-Serif" font-size="10.00">__get_next_node</text>
</a>
</g>
</g>
<!-- Node15&#45;&gt;Node23 -->
<g id="edge26_Node000015_Node000023" class="edge">
<title>Node15&#45;&gt;Node23</title>
<g id="a_edge26_Node000015_Node000023"><a xlink:title=" ">
<path fill="none" stroke="#63b8ff" d="M543.11,-84.61C562.73,-76.7 586.49,-67.11 607.34,-58.69"/>
<polygon fill="#63b8ff" stroke="#63b8ff" points="608.58,-61.97 616.54,-54.98 605.96,-55.48 608.58,-61.97"/>
</a>
</g>
</g>
<!-- Node16&#45;&gt;Node12 -->
<g id="edge18_Node000016_Node000012" class="edge">
<title>Node16&#45;&gt;Node12</title>
<g id="a_edge18_Node000016_Node000012"><a xlink:title=" ">
<path fill="none" stroke="#63b8ff" d="M707.59,-152.21C802.38,-154.94 1023.3,-162.85 1208,-181 1215.92,-181.78 1224.18,-182.73 1232.39,-183.77"/>
<polygon fill="#63b8ff" stroke="#63b8ff" points="1231.67,-187.2 1242.04,-185.03 1232.58,-180.26 1231.67,-187.2"/>
</a>
</g>
</g>
<!-- Node18 -->
<g id="Node000018" class="node">
<title>Node18</title>
<g id="a_Node000018"><a xlink:href="list_8h.html#a2b11d9c6f775a209430f16b719a19617" target="_top" xlink:title=" ">
<polygon fill="white" stroke="#666666" points="865.5,-120 773,-120 773,-100 865.5,-100 865.5,-120"/>
<text text-anchor="middle" x="819.25" y="-106.5" font-family="Helvetica,sans-Serif" font-size="10.00">zrtos_list__delete</text>
</a>
</g>
</g>
<!-- Node17&#45;&gt;Node18 -->
<g id="edge20_Node000017_Node000018" class="edge">
<title>Node17&#45;&gt;Node18</title>
<g id="a_edge20_Node000017_Node000018"><a xlink:title=" ">
<path fill="none" stroke="#63b8ff" d="M708.77,-103.75C725.41,-104.7 744.21,-105.77 761.47,-106.76"/>
<polygon fill="#63b8ff" stroke="#63b8ff" points="760.86,-110.23 771.04,-107.3 761.26,-103.24 760.86,-110.23"/>
</a>
</g>
</g>
<!-- Node21 -->
<g id="Node000021" class="node">
<title>Node21</title>
<g id="a_Node000021"><a xlink:href="malloc__limit_8h.html#ad9dc03f9dd447b3ffb64b0ec3873f61f" target="_top" xlink:title=" ">
<polygon fill="white" stroke="#666666" points="866.62,-82 771.88,-82 771.88,-50 866.62,-50 866.62,-82"/>
<text text-anchor="start" x="779.88" y="-68.5" font-family="Helvetica,sans-Serif" font-size="10.00">zrtos_malloc_limit</text>
<text text-anchor="middle" x="819.25" y="-56.5" font-family="Helvetica,sans-Serif" font-size="10.00">__free</text>
</a>
</g>
</g>
<!-- Node17&#45;&gt;Node21 -->
<g id="edge24_Node000017_Node000021" class="edge">
<title>Node17&#45;&gt;Node21</title>
<g id="a_edge24_Node000017_Node000021"><a xlink:title=" ">
<path fill="none" stroke="#63b8ff" d="M708.77,-90.31C725.11,-86.68 743.54,-82.59 760.54,-78.81"/>
<polygon fill="#63b8ff" stroke="#63b8ff" points="761,-82.3 770,-76.71 759.48,-75.46 761,-82.3"/>
</a>
</g>
</g>
<!-- Node19 -->
<g id="Node000019" class="node">
<title>Node19</title>
<g id="a_Node000019"><a xlink:href="list_8h.html#a0039f0f08299038ab1a71e271a43a086" target="_top" xlink:title=" ">
<polygon fill="white" stroke="#666666" points="1208,-110 1081,-110 1081,-90 1208,-90 1208,-110"/>
<text text-anchor="middle" x="1144.5" y="-96.5" font-family="Helvetica,sans-Serif" font-size="10.00">zrtos_list__get_first_node</text>
</a>
</g>
</g>
<!-- Node18&#45;&gt;Node19 -->
<g id="edge21_Node000018_Node000019" class="edge">
<title>Node18&#45;&gt;Node19</title>
<g id="a_edge21_Node000018_Node000019"><a xlink:title=" ">
<path fill="none" stroke="#63b8ff" d="M865.88,-108.59C918.71,-106.95 1006.51,-104.24 1069.22,-102.3"/>
<polygon fill="#63b8ff" stroke="#63b8ff" points="1069.23,-105.8 1079.11,-101.99 1069.01,-98.8 1069.23,-105.8"/>
</a>
</g>
</g>
<!-- Node20 -->
<g id="Node000020" class="node">
<title>Node20</title>
<g id="a_Node000020"><a xlink:href="list_8h.html#a4ecf7568bdda1cd815956c391f29bf1e" target="_top" xlink:title=" ">
<polygon fill="white" stroke="#666666" points="1023.62,-91 939.38,-91 939.38,-71 1023.62,-71 1023.62,-91"/>
<text text-anchor="middle" x="981.5" y="-77.5" font-family="Helvetica,sans-Serif" font-size="10.00">zrtos_list__shift</text>
</a>
</g>
</g>
<!-- Node18&#45;&gt;Node20 -->
<g id="edge22_Node000018_Node000020" class="edge">
<title>Node18&#45;&gt;Node20</title>
<g id="a_edge22_Node000018_Node000020"><a xlink:title=" ">
<path fill="none" stroke="#63b8ff" d="M865.74,-101.77C885.09,-98.27 907.78,-94.16 927.85,-90.53"/>
<polygon fill="#63b8ff" stroke="#63b8ff" points="928.3,-94 937.52,-88.78 927.05,-87.12 928.3,-94"/>
</a>
</g>
</g>
<!-- Node20&#45;&gt;Node19 -->
<g id="edge23_Node000020_Node000019" class="edge">
<title>Node20&#45;&gt;Node19</title>
<g id="a_edge23_Node000020_Node000019"><a xlink:title=" ">
<path fill="none" stroke="#63b8ff" d="M1023.96,-85.89C1037.83,-87.53 1053.74,-89.41 1069.33,-91.25"/>
<polygon fill="#63b8ff" stroke="#63b8ff" points="1068.75,-94.7 1079.09,-92.4 1069.57,-87.75 1068.75,-94.7"/>
</a>
</g>
</g>
<!-- Node22 -->
<g id="Node000022" class="node">
<title>Node22</title>
<g id="a_Node000022"><a xlink:href="malloc_8h.html#aeba49dabb0a21ae4e02fa137e195bb1d" target="_top" xlink:title=" ">
<polygon fill="white" stroke="#666666" points="1045,-53 918,-53 918,-33 1045,-33 1045,-53"/>
<text text-anchor="middle" x="981.5" y="-39.5" font-family="Helvetica,sans-Serif" font-size="10.00">zrtos_malloc__get_length</text>
</a>
</g>
</g>
<!-- Node21&#45;&gt;Node22 -->
<g id="edge25_Node000021_Node000022" class="edge">
<title>Node21&#45;&gt;Node22</title>
<g id="a_edge25_Node000021_Node000022"><a xlink:title=" ">
<path fill="none" stroke="#63b8ff" d="M867.03,-59.29C879.37,-57.51 893,-55.56 906.4,-53.64"/>
<polygon fill="#63b8ff" stroke="#63b8ff" points="906.67,-57.13 916.07,-52.25 905.68,-50.2 906.67,-57.13"/>
</a>
</g>
</g>
<!-- Node24 -->
<g id="Node000024" class="node">
<title>Node24</title>
<g id="a_Node000024"><a xlink:href="list_8h.html#a870446d2221a7ce60ce4b2d336f2a577" target="_top" xlink:title=" ">
<polygon fill="white" stroke="#666666" points="872.25,-32 766.25,-32 766.25,0 872.25,0 872.25,-32"/>
<text text-anchor="start" x="774.25" y="-18.5" font-family="Helvetica,sans-Serif" font-size="10.00">zrtos_list_node__get</text>
<text text-anchor="middle" x="819.25" y="-6.5" font-family="Helvetica,sans-Serif" font-size="10.00">_next_node</text>
</a>
</g>
</g>
<!-- Node23&#45;&gt;Node24 -->
<g id="edge27_Node000023_Node000024" class="edge">
<title>Node23&#45;&gt;Node24</title>
<g id="a_edge27_Node000023_Node000024"><a xlink:title=" ">
<path fill="none" stroke="#63b8ff" d="M708.77,-31.28C723.34,-29.25 739.57,-26.98 754.98,-24.83"/>
<polygon fill="#63b8ff" stroke="#63b8ff" points="755.09,-28.35 764.51,-23.5 754.12,-21.42 755.09,-28.35"/>
</a>
</g>
</g>
<!-- Node25&#45;&gt;Node16 -->
<g id="edge29_Node000025_Node000016" class="edge">
<title>Node25&#45;&gt;Node16</title>
<g id="a_edge29_Node000025_Node000016"><a xlink:title=" ">
<path fill="none" stroke="#63b8ff" d="M552.33,-151C567.55,-151 584.43,-151 600.17,-151"/>
<polygon fill="#63b8ff" stroke="#63b8ff" points="599.88,-154.5 609.88,-151 599.88,-147.5 599.88,-154.5"/>
</a>
</g>
</g>
</g>
</svg>
