<?xml version="1.0" encoding="UTF-8" standalone="no"?>
<!DOCTYPE svg PUBLIC "-//W3C//DTD SVG 1.1//EN"
 "http://www.w3.org/Graphics/SVG/1.1/DTD/svg11.dtd">
<!-- Generated by graphviz version 10.0.1 (20240210.2158)
 -->
<!-- Title: zrtos_vfs_module_uart__on_read Pages: 1 -->
<svg width="1170pt" height="203pt"
 viewBox="0.00 0.00 1170.25 203.00" xmlns="http://www.w3.org/2000/svg" xmlns:xlink="http://www.w3.org/1999/xlink">
<g id="graph0" class="graph" transform="scale(1 1) rotate(0) translate(4 199)">
<title>zrtos_vfs_module_uart__on_read</title>
<!-- Node1 -->
<g id="Node000001" class="node">
<title>Node1</title>
<g id="a_Node000001"><a xlink:title=" ">
<polygon fill="#999999" stroke="#666666" points="112.75,-54 0,-54 0,-22 112.75,-22 112.75,-54"/>
<text text-anchor="start" x="8" y="-40.5" font-family="Helvetica,sans-Serif" font-size="10.00">zrtos_vfs_module_uart</text>
<text text-anchor="middle" x="56.38" y="-28.5" font-family="Helvetica,sans-Serif" font-size="10.00">__on_read</text>
</a>
</g>
</g>
<!-- Node2 -->
<g id="Node000002" class="node">
<title>Node2</title>
<g id="a_Node000002"><a xlink:href="cbuffer_8h.html#af79ee923f715f4f8d2ea27b725501174" target="_top" xlink:title=" ">
<polygon fill="white" stroke="#666666" points="260,-70 148.75,-70 148.75,-50 260,-50 260,-70"/>
<text text-anchor="middle" x="204.38" y="-56.5" font-family="Helvetica,sans-Serif" font-size="10.00">zrtos_cbuffer__get_ex</text>
</a>
</g>
</g>
<!-- Node1&#45;&gt;Node2 -->
<g id="edge1_Node000001_Node000002" class="edge">
<title>Node1&#45;&gt;Node2</title>
<g id="a_edge1_Node000001_Node000002"><a xlink:title=" ">
<path fill="none" stroke="#63b8ff" d="M112.99,-46.38C120.88,-47.57 129.05,-48.8 137.11,-50.02"/>
<polygon fill="#63b8ff" stroke="#63b8ff" points="136.49,-53.46 146.9,-51.49 137.54,-46.54 136.49,-53.46"/>
</a>
</g>
</g>
<!-- Node14 -->
<g id="Node000014" class="node">
<title>Node14</title>
<g id="a_Node000014"><a xlink:href="vfs__file_8h.html#adbc392417c3fef015ea0c4728d2be7c6" target="_top" xlink:title=" ">
<polygon fill="white" stroke="#666666" points="252.12,-32 156.62,-32 156.62,0 252.12,0 252.12,-32"/>
<text text-anchor="start" x="164.62" y="-18.5" font-family="Helvetica,sans-Serif" font-size="10.00">zrtos_vfs_file__get</text>
<text text-anchor="middle" x="204.38" y="-6.5" font-family="Helvetica,sans-Serif" font-size="10.00">_inode_data</text>
</a>
</g>
</g>
<!-- Node1&#45;&gt;Node14 -->
<g id="edge15_Node000001_Node000014" class="edge">
<title>Node1&#45;&gt;Node14</title>
<g id="a_edge15_Node000001_Node000014"><a xlink:title=" ">
<path fill="none" stroke="#63b8ff" d="M112.99,-29.62C123.52,-28.03 134.57,-26.37 145.18,-24.77"/>
<polygon fill="#63b8ff" stroke="#63b8ff" points="145.61,-28.24 154.98,-23.29 144.57,-21.32 145.61,-28.24"/>
</a>
</g>
</g>
<!-- Node3 -->
<g id="Node000003" class="node">
<title>Node3</title>
<g id="a_Node000003"><a xlink:href="cbuffer_8h.html#a1a9cc4256c634d99003e2397924df20a" target="_top" xlink:title=" ">
<polygon fill="white" stroke="#666666" points="397.5,-92 302,-92 302,-72 397.5,-72 397.5,-92"/>
<text text-anchor="middle" x="349.75" y="-78.5" font-family="Helvetica,sans-Serif" font-size="10.00">zrtos_cbuffer__get</text>
</a>
</g>
</g>
<!-- Node2&#45;&gt;Node3 -->
<g id="edge2_Node000002_Node000003" class="edge">
<title>Node2&#45;&gt;Node3</title>
<g id="a_edge2_Node000002_Node000003"><a xlink:title=" ">
<path fill="none" stroke="#63b8ff" d="M260.4,-68.44C270.16,-69.94 280.36,-71.51 290.21,-73.02"/>
<polygon fill="#63b8ff" stroke="#63b8ff" points="289.67,-76.48 300.08,-74.53 290.73,-69.56 289.67,-76.48"/>
</a>
</g>
</g>
<!-- Node13 -->
<g id="Node000013" class="node">
<title>Node13</title>
<g id="a_Node000013"><a xlink:href="types_8h.html#adbc4238237e656eb247fd49ffbfb1a6d" target="_top" xlink:title=" ">
<polygon fill="white" stroke="#666666" points="403.5,-54 296,-54 296,-22 403.5,-22 403.5,-54"/>
<text text-anchor="start" x="304" y="-40.5" font-family="Helvetica,sans-Serif" font-size="10.00">zrtos_types__ptr_get</text>
<text text-anchor="middle" x="349.75" y="-28.5" font-family="Helvetica,sans-Serif" font-size="10.00">_byte_distance</text>
</a>
</g>
</g>
<!-- Node2&#45;&gt;Node13 -->
<g id="edge14_Node000002_Node000013" class="edge">
<title>Node2&#45;&gt;Node13</title>
<g id="a_edge14_Node000002_Node000013"><a xlink:title=" ">
<path fill="none" stroke="#63b8ff" d="M260.4,-51.56C268.23,-50.35 276.35,-49.11 284.35,-47.88"/>
<polygon fill="#63b8ff" stroke="#63b8ff" points="284.68,-51.37 294.03,-46.4 283.62,-44.45 284.68,-51.37"/>
</a>
</g>
</g>
<!-- Node4 -->
<g id="Node000004" class="node">
<title>Node4</title>
<g id="a_Node000004"><a xlink:href="cbuffer_8h.html#ad0932ffc31c7150402dc49c28cbf2000" target="_top" xlink:title=" ">
<polygon fill="white" stroke="#666666" points="561.25,-114 439.5,-114 439.5,-94 561.25,-94 561.25,-114"/>
<text text-anchor="middle" x="500.38" y="-100.5" font-family="Helvetica,sans-Serif" font-size="10.00">zrtos_cbuffer_node__get</text>
</a>
</g>
</g>
<!-- Node3&#45;&gt;Node4 -->
<g id="edge3_Node000003_Node000004" class="edge">
<title>Node3&#45;&gt;Node4</title>
<g id="a_edge3_Node000003_Node000004"><a xlink:title=" ">
<path fill="none" stroke="#63b8ff" d="M397.78,-88.96C407.29,-90.37 417.5,-91.88 427.64,-93.38"/>
<polygon fill="#63b8ff" stroke="#63b8ff" points="427.13,-96.84 437.53,-94.85 428.15,-89.92 427.13,-96.84"/>
</a>
</g>
</g>
<!-- Node7 -->
<g id="Node000007" class="node">
<title>Node7</title>
<g id="a_Node000007"><a xlink:href="list_8h.html#a0039f0f08299038ab1a71e271a43a086" target="_top" xlink:title=" ">
<polygon fill="white" stroke="#666666" points="1162.25,-167 1035.25,-167 1035.25,-147 1162.25,-147 1162.25,-167"/>
<text text-anchor="middle" x="1098.75" y="-153.5" font-family="Helvetica,sans-Serif" font-size="10.00">zrtos_list__get_first_node</text>
</a>
</g>
</g>
<!-- Node3&#45;&gt;Node7 -->
<g id="edge13_Node000003_Node000007" class="edge">
<title>Node3&#45;&gt;Node7</title>
<g id="a_edge13_Node000003_Node000007"><a xlink:title=" ">
<path fill="none" stroke="#63b8ff" d="M391.14,-71.57C448.4,-57.72 556.65,-35 650.38,-35 650.38,-35 650.38,-35 789.88,-35 902.83,-35 1023.74,-106.85 1073.87,-140.27"/>
<polygon fill="#63b8ff" stroke="#63b8ff" points="1071.7,-143.03 1081.94,-145.75 1075.63,-137.24 1071.7,-143.03"/>
</a>
</g>
</g>
<!-- Node5 -->
<g id="Node000005" class="node">
<title>Node5</title>
<g id="a_Node000005"><a xlink:href="cbuffer_8h.html#afc85ab6d8226b4a1b93d11c2ba1203f6" target="_top" xlink:title=" ">
<polygon fill="white" stroke="#666666" points="700.25,-195 602.5,-195 602.5,-163 700.25,-163 700.25,-195"/>
<text text-anchor="start" x="610.5" y="-181.5" font-family="Helvetica,sans-Serif" font-size="10.00">zrtos_cbuffer_node</text>
<text text-anchor="middle" x="651.38" y="-169.5" font-family="Helvetica,sans-Serif" font-size="10.00">__free</text>
</a>
</g>
</g>
<!-- Node4&#45;&gt;Node5 -->
<g id="edge4_Node000004_Node000005" class="edge">
<title>Node4&#45;&gt;Node5</title>
<g id="a_edge4_Node000004_Node000005"><a xlink:title=" ">
<path fill="none" stroke="#63b8ff" d="M520.72,-114.38C540,-124.66 570.51,-140.74 597.25,-154 599.64,-155.18 602.09,-156.39 604.58,-157.59"/>
<polygon fill="#63b8ff" stroke="#63b8ff" points="602.95,-160.69 613.48,-161.87 605.98,-154.39 602.95,-160.69"/>
</a>
</g>
</g>
<!-- Node11 -->
<g id="Node000011" class="node">
<title>Node11</title>
<g id="a_Node000011"><a xlink:href="cbuffer_8h.html#aa70b33844c0b38a531615564dc35840e" target="_top" xlink:title=" ">
<polygon fill="white" stroke="#666666" points="700.25,-145 602.5,-145 602.5,-113 700.25,-113 700.25,-145"/>
<text text-anchor="start" x="610.5" y="-131.5" font-family="Helvetica,sans-Serif" font-size="10.00">zrtos_cbuffer_node</text>
<text text-anchor="middle" x="651.38" y="-119.5" font-family="Helvetica,sans-Serif" font-size="10.00">__is_empty</text>
</a>
</g>
</g>
<!-- Node4&#45;&gt;Node11 -->
<g id="edge11_Node000004_Node000011" class="edge">
<title>Node4&#45;&gt;Node11</title>
<g id="a_edge11_Node000004_Node000011"><a xlink:title=" ">
<path fill="none" stroke="#63b8ff" d="M561.55,-114.1C571.3,-115.73 581.4,-117.43 591.13,-119.06"/>
<polygon fill="#63b8ff" stroke="#63b8ff" points="590.41,-122.49 600.85,-120.69 591.56,-115.58 590.41,-122.49"/>
</a>
</g>
</g>
<!-- Node12 -->
<g id="Node000012" class="node">
<title>Node12</title>
<g id="a_Node000012"><a xlink:href="list_8h.html#a7262d2a0c144ef76b0f45193cebb8227" target="_top" xlink:title=" ">
<polygon fill="white" stroke="#666666" points="705.5,-95 597.25,-95 597.25,-63 705.5,-63 705.5,-95"/>
<text text-anchor="start" x="605.25" y="-81.5" font-family="Helvetica,sans-Serif" font-size="10.00">zrtos_list_node__has</text>
<text text-anchor="middle" x="651.38" y="-69.5" font-family="Helvetica,sans-Serif" font-size="10.00">_next_node</text>
</a>
</g>
</g>
<!-- Node4&#45;&gt;Node12 -->
<g id="edge12_Node000004_Node000012" class="edge">
<title>Node4&#45;&gt;Node12</title>
<g id="a_edge12_Node000004_Node000012"><a xlink:title=" ">
<path fill="none" stroke="#63b8ff" d="M561.55,-93.9C569.56,-92.56 577.81,-91.18 585.89,-89.82"/>
<polygon fill="#63b8ff" stroke="#63b8ff" points="586.4,-93.28 595.68,-88.18 585.24,-86.38 586.4,-93.28"/>
</a>
</g>
</g>
<!-- Node6 -->
<g id="Node000006" class="node">
<title>Node6</title>
<g id="a_Node000006"><a xlink:href="list_8h.html#a2b11d9c6f775a209430f16b719a19617" target="_top" xlink:title=" ">
<polygon fill="white" stroke="#666666" points="835.12,-189 742.62,-189 742.62,-169 835.12,-169 835.12,-189"/>
<text text-anchor="middle" x="788.88" y="-175.5" font-family="Helvetica,sans-Serif" font-size="10.00">zrtos_list__delete</text>
</a>
</g>
</g>
<!-- Node5&#45;&gt;Node6 -->
<g id="edge5_Node000005_Node000006" class="edge">
<title>Node5&#45;&gt;Node6</title>
<g id="a_edge5_Node000005_Node000006"><a xlink:title=" ">
<path fill="none" stroke="#63b8ff" d="M700.53,-179C710.37,-179 720.81,-179 730.92,-179"/>
<polygon fill="#63b8ff" stroke="#63b8ff" points="730.63,-182.5 740.63,-179 730.63,-175.5 730.63,-182.5"/>
</a>
</g>
</g>
<!-- Node9 -->
<g id="Node000009" class="node">
<title>Node9</title>
<g id="a_Node000009"><a xlink:href="malloc__limit_8h.html#ad9dc03f9dd447b3ffb64b0ec3873f61f" target="_top" xlink:title=" ">
<polygon fill="white" stroke="#666666" points="836.25,-143 741.5,-143 741.5,-111 836.25,-111 836.25,-143"/>
<text text-anchor="start" x="749.5" y="-129.5" font-family="Helvetica,sans-Serif" font-size="10.00">zrtos_malloc_limit</text>
<text text-anchor="middle" x="788.88" y="-117.5" font-family="Helvetica,sans-Serif" font-size="10.00">__free</text>
</a>
</g>
</g>
<!-- Node5&#45;&gt;Node9 -->
<g id="edge9_Node000005_Node000009" class="edge">
<title>Node5&#45;&gt;Node9</title>
<g id="a_edge9_Node000005_Node000009"><a xlink:title=" ">
<path fill="none" stroke="#63b8ff" d="M695.25,-162.55C707.73,-157.76 721.51,-152.47 734.55,-147.46"/>
<polygon fill="#63b8ff" stroke="#63b8ff" points="735.79,-150.74 743.87,-143.89 733.28,-144.2 735.79,-150.74"/>
</a>
</g>
</g>
<!-- Node6&#45;&gt;Node7 -->
<g id="edge6_Node000006_Node000007" class="edge">
<title>Node6&#45;&gt;Node7</title>
<g id="a_edge6_Node000006_Node000007"><a xlink:title=" ">
<path fill="none" stroke="#63b8ff" d="M835.34,-180.65C877.85,-181.65 943.02,-181.78 999.25,-176 1012.92,-174.59 1027.52,-172.25 1041.18,-169.68"/>
<polygon fill="#63b8ff" stroke="#63b8ff" points="1041.77,-173.13 1050.91,-167.77 1040.42,-166.26 1041.77,-173.13"/>
</a>
</g>
</g>
<!-- Node8 -->
<g id="Node000008" class="node">
<title>Node8</title>
<g id="a_Node000008"><a xlink:href="list_8h.html#a4ecf7568bdda1cd815956c391f29bf1e" target="_top" xlink:title=" ">
<polygon fill="white" stroke="#666666" points="977.88,-167 893.62,-167 893.62,-147 977.88,-147 977.88,-167"/>
<text text-anchor="middle" x="935.75" y="-153.5" font-family="Helvetica,sans-Serif" font-size="10.00">zrtos_list__shift</text>
</a>
</g>
</g>
<!-- Node6&#45;&gt;Node8 -->
<g id="edge7_Node000006_Node000008" class="edge">
<title>Node6&#45;&gt;Node8</title>
<g id="a_edge7_Node000006_Node000008"><a xlink:title=" ">
<path fill="none" stroke="#63b8ff" d="M835.32,-172.1C850.27,-169.83 867.02,-167.28 882.45,-164.94"/>
<polygon fill="#63b8ff" stroke="#63b8ff" points="882.55,-168.47 891.91,-163.51 881.5,-161.55 882.55,-168.47"/>
</a>
</g>
</g>
<!-- Node8&#45;&gt;Node7 -->
<g id="edge8_Node000008_Node000007" class="edge">
<title>Node8&#45;&gt;Node7</title>
<g id="a_edge8_Node000008_Node000007"><a xlink:title=" ">
<path fill="none" stroke="#63b8ff" d="M978.21,-157C992.08,-157 1007.99,-157 1023.58,-157"/>
<polygon fill="#63b8ff" stroke="#63b8ff" points="1023.33,-160.5 1033.33,-157 1023.33,-153.5 1023.33,-160.5"/>
</a>
</g>
</g>
<!-- Node10 -->
<g id="Node000010" class="node">
<title>Node10</title>
<g id="a_Node000010"><a xlink:href="malloc_8h.html#aeba49dabb0a21ae4e02fa137e195bb1d" target="_top" xlink:title=" ">
<polygon fill="white" stroke="#666666" points="999.25,-129 872.25,-129 872.25,-109 999.25,-109 999.25,-129"/>
<text text-anchor="middle" x="935.75" y="-115.5" font-family="Helvetica,sans-Serif" font-size="10.00">zrtos_malloc__get_length</text>
</a>
</g>
</g>
<!-- Node9&#45;&gt;Node10 -->
<g id="edge10_Node000009_Node000010" class="edge">
<title>Node9&#45;&gt;Node10</title>
<g id="a_edge10_Node000009_Node000010"><a xlink:title=" ">
<path fill="none" stroke="#63b8ff" d="M836.51,-124.42C844.16,-124 852.25,-123.56 860.37,-123.11"/>
<polygon fill="#63b8ff" stroke="#63b8ff" points="860.52,-126.6 870.31,-122.56 860.14,-119.61 860.52,-126.6"/>
</a>
</g>
</g>
</g>
</svg>
