<?xml version="1.0" encoding="UTF-8" standalone="no"?>
<!DOCTYPE svg PUBLIC "-//W3C//DTD SVG 1.1//EN"
 "http://www.w3.org/Graphics/SVG/1.1/DTD/svg11.dtd">
<!-- Generated by graphviz version 10.0.1 (20240210.2158)
 -->
<!-- Title: __WIZCHIP::_IF Pages: 1 -->
<svg width="304pt" height="292pt"
 viewBox="0.00 0.00 304.00 292.00" xmlns="http://www.w3.org/2000/svg" xmlns:xlink="http://www.w3.org/1999/xlink">
<g id="graph0" class="graph" transform="scale(1 1) rotate(0) translate(4 288)">
<title>__WIZCHIP::_IF</title>
<!-- Node1 -->
<g id="Node000001" class="node">
<title>Node1</title>
<g id="a_Node000001"><a xlink:title="The set of interface IO callback func.">
<polygon fill="#999999" stroke="#666666" points="296,-146 210.25,-146 210.25,-126 296,-126 296,-146"/>
<text text-anchor="middle" x="253.12" y="-132.5" font-family="Helvetica,sans-Serif" font-size="10.00">__WIZCHIP::_IF</text>
</a>
</g>
</g>
<!-- Node2 -->
<g id="Node000002" class="node">
<title>Node2</title>
<g id="a_Node000002"><a xlink:title=" ">
<polygon fill="white" stroke="#666666" points="104.88,-284 15.38,-284 15.38,-252 104.88,-252 104.88,-284"/>
<text text-anchor="start" x="23.38" y="-270.5" font-family="Helvetica,sans-Serif" font-size="10.00">iodata_t(*)(uint32</text>
<text text-anchor="middle" x="60.12" y="-258.5" font-family="Helvetica,sans-Serif" font-size="10.00">_t AddrSel)</text>
</a>
</g>
</g>
<!-- Node2&#45;&gt;Node1 -->
<g id="edge1_Node000001_Node000002" class="edge">
<title>Node2&#45;&gt;Node1</title>
<g id="a_edge1_Node000001_Node000002"><a xlink:title=" ">
<path fill="none" stroke="#9a32cd" stroke-dasharray="5,2" d="M115.91,-252.66C140.81,-243.95 169.69,-231.27 192.25,-214 217.33,-194.8 237.43,-162.62 246.65,-146.24"/>
<polygon fill="#9a32cd" stroke="#9a32cd" points="114.95,-249.29 106.58,-255.79 117.18,-255.93 114.95,-249.29"/>
</a>
</g>
<text text-anchor="middle" x="165.25" y="-246.5" font-family="Helvetica,sans-Serif" font-size="10.00" fill="grey"> _read_data</text>
</g>
<!-- Node3 -->
<g id="Node000003" class="node">
<title>Node3</title>
<g id="a_Node000003"><a xlink:title=" ">
<polygon fill="white" stroke="#666666" points="120.25,-234 0,-234 0,-202 120.25,-202 120.25,-234"/>
<text text-anchor="start" x="8" y="-220.5" font-family="Helvetica,sans-Serif" font-size="10.00">void(*)(uint32_t AddrSel,</text>
<text text-anchor="middle" x="60.12" y="-208.5" font-family="Helvetica,sans-Serif" font-size="10.00"> iodata_t wb)</text>
</a>
</g>
</g>
<!-- Node3&#45;&gt;Node1 -->
<g id="edge2_Node000001_Node000003" class="edge">
<title>Node3&#45;&gt;Node1</title>
<g id="a_edge2_Node000001_Node000003"><a xlink:title=" ">
<path fill="none" stroke="#9a32cd" stroke-dasharray="5,2" d="M131.7,-200.92C151.76,-194.88 173.3,-187.25 192.25,-178 210.05,-169.31 228.39,-155.62 240,-146.24"/>
<polygon fill="#9a32cd" stroke="#9a32cd" points="130.81,-197.53 122.18,-203.68 132.76,-204.25 130.81,-197.53"/>
</a>
</g>
<text text-anchor="middle" x="165.25" y="-200.5" font-family="Helvetica,sans-Serif" font-size="10.00" fill="grey"> _write_data</text>
</g>
<!-- Node4 -->
<g id="Node000004" class="node">
<title>Node4</title>
<g id="a_Node000004"><a xlink:title=" ">
<polygon fill="white" stroke="#666666" points="104.88,-184 15.38,-184 15.38,-164 104.88,-164 104.88,-184"/>
<text text-anchor="middle" x="60.12" y="-170.5" font-family="Helvetica,sans-Serif" font-size="10.00">anonymous:BUS</text>
</a>
</g>
</g>
<!-- Node4&#45;&gt;Node1 -->
<g id="edge3_Node000001_Node000004" class="edge">
<title>Node4&#45;&gt;Node1</title>
<g id="a_edge3_Node000001_Node000004"><a xlink:title=" ">
<path fill="none" stroke="#9a32cd" stroke-dasharray="5,2" d="M116.49,-165.9C139.95,-162.17 167.53,-157.36 192.25,-152 199.72,-150.38 207.65,-148.43 215.21,-146.45"/>
<polygon fill="#9a32cd" stroke="#9a32cd" points="116.16,-162.41 106.83,-167.42 117.25,-169.33 116.16,-162.41"/>
</a>
</g>
<text text-anchor="middle" x="165.25" y="-164.5" font-family="Helvetica,sans-Serif" font-size="10.00" fill="grey"> BUS</text>
</g>
<!-- Node5 -->
<g id="Node000005" class="node">
<title>Node5</title>
<g id="a_Node000005"><a xlink:title=" ">
<polygon fill="white" stroke="#666666" points="82.75,-146 37.5,-146 37.5,-126 82.75,-126 82.75,-146"/>
<text text-anchor="middle" x="60.12" y="-132.5" font-family="Helvetica,sans-Serif" font-size="10.00">uint8_t</text>
</a>
</g>
</g>
<!-- Node5&#45;&gt;Node1 -->
<g id="edge4_Node000001_Node000005" class="edge">
<title>Node5&#45;&gt;Node1</title>
<g id="a_edge4_Node000001_Node000005"><a xlink:title=" ">
<path fill="none" stroke="#9a32cd" stroke-dasharray="5,2" d="M94.46,-136C126.56,-136 175.23,-136 210,-136"/>
<polygon fill="#9a32cd" stroke="#9a32cd" points="94.55,-132.5 84.55,-136 94.55,-139.5 94.55,-132.5"/>
</a>
</g>
<text text-anchor="middle" x="165.25" y="-138.5" font-family="Helvetica,sans-Serif" font-size="10.00" fill="grey"> _read_byte</text>
</g>
<!-- Node6 -->
<g id="Node000006" class="node">
<title>Node6</title>
<g id="a_Node000006"><a xlink:title=" ">
<polygon fill="white" stroke="#666666" points="106.38,-108 13.88,-108 13.88,-88 106.38,-88 106.38,-108"/>
<text text-anchor="middle" x="60.12" y="-94.5" font-family="Helvetica,sans-Serif" font-size="10.00">void(*)(uint8_t wb)</text>
</a>
</g>
</g>
<!-- Node6&#45;&gt;Node1 -->
<g id="edge5_Node000001_Node000006" class="edge">
<title>Node6&#45;&gt;Node1</title>
<g id="a_edge5_Node000001_Node000006"><a xlink:title=" ">
<path fill="none" stroke="#9a32cd" stroke-dasharray="5,2" d="M118.19,-106.37C141.28,-110.07 168.13,-114.77 192.25,-120 199.72,-121.62 207.65,-123.57 215.21,-125.55"/>
<polygon fill="#9a32cd" stroke="#9a32cd" points="118.76,-102.91 108.34,-104.82 117.67,-109.83 118.76,-102.91"/>
</a>
</g>
<text text-anchor="middle" x="165.25" y="-122.5" font-family="Helvetica,sans-Serif" font-size="10.00" fill="grey"> _write_byte</text>
</g>
<!-- Node7 -->
<g id="Node000007" class="node">
<title>Node7</title>
<g id="a_Node000007"><a xlink:title=" ">
<polygon fill="white" stroke="#666666" points="112,-70 8.25,-70 8.25,-38 112,-38 112,-70"/>
<text text-anchor="start" x="16.25" y="-56.5" font-family="Helvetica,sans-Serif" font-size="10.00">void(*)(uint8_t *pBuf,</text>
<text text-anchor="middle" x="60.12" y="-44.5" font-family="Helvetica,sans-Serif" font-size="10.00"> uint16_t len)</text>
</a>
</g>
</g>
<!-- Node7&#45;&gt;Node1 -->
<g id="edge6_Node000001_Node000007" class="edge">
<title>Node7&#45;&gt;Node1</title>
<g id="a_edge6_Node000001_Node000007"><a xlink:title=" ">
<path fill="none" stroke="#9a32cd" stroke-dasharray="5,2" d="M123.61,-59.85C146.14,-63.74 171.19,-70.22 192.25,-81 213.86,-92.06 233.46,-113.09 244,-125.69"/>
<polygon fill="#9a32cd" stroke="#9a32cd" points="124.35,-56.43 113.93,-58.33 123.27,-63.34 124.35,-56.43"/>
</a>
</g>
<text text-anchor="middle" x="165.25" y="-95.5" font-family="Helvetica,sans-Serif" font-size="10.00" fill="grey"> _read_burst</text>
<text text-anchor="middle" x="165.25" y="-83.5" font-family="Helvetica,sans-Serif" font-size="10.00" fill="grey">_write_burst</text>
</g>
<!-- Node8 -->
<g id="Node000008" class="node">
<title>Node8</title>
<g id="a_Node000008"><a xlink:title=" ">
<polygon fill="white" stroke="#666666" points="102.62,-20 17.62,-20 17.62,0 102.62,0 102.62,-20"/>
<text text-anchor="middle" x="60.12" y="-6.5" font-family="Helvetica,sans-Serif" font-size="10.00">anonymous:SPI</text>
</a>
</g>
</g>
<!-- Node8&#45;&gt;Node1 -->
<g id="edge7_Node000001_Node000008" class="edge">
<title>Node8&#45;&gt;Node1</title>
<g id="a_edge7_Node000001_Node000008"><a xlink:title=" ">
<path fill="none" stroke="#9a32cd" stroke-dasharray="5,2" d="M114.07,-16.27C139.56,-21.35 169.47,-30.5 192.25,-47 221.06,-67.86 240.21,-107.14 248.08,-125.74"/>
<polygon fill="#9a32cd" stroke="#9a32cd" points="115.03,-12.89 104.56,-14.55 113.78,-19.78 115.03,-12.89"/>
</a>
</g>
<text text-anchor="middle" x="165.25" y="-49.5" font-family="Helvetica,sans-Serif" font-size="10.00" fill="grey"> SPI</text>
</g>
</g>
</svg>
