<?xml version="1.0" encoding="UTF-8" standalone="no"?>
<!DOCTYPE svg PUBLIC "-//W3C//DTD SVG 1.1//EN"
 "http://www.w3.org/Graphics/SVG/1.1/DTD/svg11.dtd">
<!-- Generated by graphviz version 2.40.1 (20161225.0304)
 -->
<!-- Title: va.h Pages: 1 -->
<svg width="156pt" height="84pt"
 viewBox="0.00 0.00 155.50 84.00" xmlns="http://www.w3.org/2000/svg" xmlns:xlink="http://www.w3.org/1999/xlink">
<g id="graph0" class="graph" transform="scale(1 1) rotate(0) translate(4 80)">
<title>va.h</title>
<polygon fill="#ffffff" stroke="transparent" points="-4,4 -4,-80 151.5,-80 151.5,4 -4,4"/>
<!-- Node0 -->
<g id="node1" class="node">
<title>Node0</title>
<polygon fill="#bfbfbf" stroke="#000000" points="49.5,-56.5 49.5,-75.5 84.5,-75.5 84.5,-56.5 49.5,-56.5"/>
<text text-anchor="middle" x="67" y="-63.5" font-family="Helvetica,sans-Serif" font-size="10.00" fill="#000000">va.h</text>
</g>
<!-- Node1 -->
<g id="node2" class="node">
<title>Node1</title>
<polygon fill="#ffffff" stroke="#bfbfbf" points="0,-.5 0,-19.5 52,-19.5 52,-.5 0,-.5"/>
<text text-anchor="middle" x="26" y="-7.5" font-family="Helvetica,sans-Serif" font-size="10.00" fill="#000000">stdarg.h</text>
</g>
<!-- Node0&#45;&gt;Node1 -->
<g id="edge1" class="edge">
<title>Node0&#45;&gt;Node1</title>
<path fill="none" stroke="#191970" d="M59.8583,-56.2455C54.1556,-48.4564 46.01,-37.3308 39.1375,-27.9439"/>
<polygon fill="#191970" stroke="#191970" points="41.7913,-25.6437 33.0598,-19.6427 36.1432,-29.7789 41.7913,-25.6437"/>
</g>
<!-- Node2 -->
<g id="node3" class="node">
<title>Node2</title>
<g id="a_node3"><a xlink:href="assert_8h.html" target="_top" xlink:title="zrtos/assert.h">
<polygon fill="#ffffff" stroke="#000000" points="70.5,-.5 70.5,-19.5 147.5,-19.5 147.5,-.5 70.5,-.5"/>
<text text-anchor="middle" x="109" y="-7.5" font-family="Helvetica,sans-Serif" font-size="10.00" fill="#000000">zrtos/assert.h</text>
</a>
</g>
</g>
<!-- Node0&#45;&gt;Node2 -->
<g id="edge2" class="edge">
<title>Node0&#45;&gt;Node2</title>
<path fill="none" stroke="#191970" d="M74.3158,-56.2455C80.2179,-48.3761 88.6742,-37.101 95.7594,-27.6542"/>
<polygon fill="#191970" stroke="#191970" points="98.568,-29.7427 101.768,-19.6427 92.9679,-25.5427 98.568,-29.7427"/>
</g>
</g>
</svg>
