<?xml version="1.0" encoding="UTF-8" standalone="no"?>
<!DOCTYPE svg PUBLIC "-//W3C//DTD SVG 1.1//EN"
 "http://www.w3.org/Graphics/SVG/1.1/DTD/svg11.dtd">
<!-- Generated by graphviz version 2.40.1 (20161225.0304)
 -->
<!-- Title: va.h Pages: 1 -->
<svg width="432pt" height="140pt"
 viewBox="0.00 0.00 431.50 140.00" xmlns="http://www.w3.org/2000/svg" xmlns:xlink="http://www.w3.org/1999/xlink">
<g id="graph0" class="graph" transform="scale(1 1) rotate(0) translate(4 136)">
<title>va.h</title>
<polygon fill="#ffffff" stroke="transparent" points="-4,4 -4,-136 427.5,-136 427.5,4 -4,4"/>
<!-- Node3 -->
<g id="node1" class="node">
<title>Node3</title>
<polygon fill="#bfbfbf" stroke="#000000" points="119,-112.5 119,-131.5 154,-131.5 154,-112.5 119,-112.5"/>
<text text-anchor="middle" x="136.5" y="-119.5" font-family="Helvetica,sans-Serif" font-size="10.00" fill="#000000">va.h</text>
</g>
<!-- Node4 -->
<g id="node2" class="node">
<title>Node4</title>
<g id="a_node2"><a xlink:href="mcp2515_8h.html" target="_top" xlink:title="mcp2515.h">
<polygon fill="#ffffff" stroke="#000000" points="0,-56.5 0,-75.5 65,-75.5 65,-56.5 0,-56.5"/>
<text text-anchor="middle" x="32.5" y="-63.5" font-family="Helvetica,sans-Serif" font-size="10.00" fill="#000000">mcp2515.h</text>
</a>
</g>
</g>
<!-- Node3&#45;&gt;Node4 -->
<g id="edge1" class="edge">
<title>Node3&#45;&gt;Node4</title>
<path fill="none" stroke="#191970" d="M109.93,-107.6931C91.1951,-97.6051 66.6179,-84.3712 50.2287,-75.5462"/>
<polygon fill="#191970" stroke="#191970" points="108.3937,-110.841 118.8578,-112.5004 111.7125,-104.6777 108.3937,-110.841"/>
</g>
<!-- Node5 -->
<g id="node3" class="node">
<title>Node5</title>
<g id="a_node3"><a xlink:href="spi_2spi_8h.html" target="_top" xlink:title="spi.h">
<polygon fill="#ffffff" stroke="#000000" points="83.5,-56.5 83.5,-75.5 121.5,-75.5 121.5,-56.5 83.5,-56.5"/>
<text text-anchor="middle" x="102.5" y="-63.5" font-family="Helvetica,sans-Serif" font-size="10.00" fill="#000000">spi.h</text>
</a>
</g>
</g>
<!-- Node3&#45;&gt;Node5 -->
<g id="edge2" class="edge">
<title>Node3&#45;&gt;Node5</title>
<path fill="none" stroke="#191970" d="M125.3465,-103.6296C119.6753,-94.2887 113.0155,-83.3197 108.3545,-75.6427"/>
<polygon fill="#191970" stroke="#191970" points="122.3961,-105.5141 130.5777,-112.2455 128.3796,-101.8812 122.3961,-105.5141"/>
</g>
<!-- Node7 -->
<g id="node5" class="node">
<title>Node7</title>
<g id="a_node5"><a xlink:href="spi__sync_8h.html" target="_top" xlink:title="spi_sync.h">
<polygon fill="#ffffff" stroke="#000000" points="139.5,-56.5 139.5,-75.5 203.5,-75.5 203.5,-56.5 139.5,-56.5"/>
<text text-anchor="middle" x="171.5" y="-63.5" font-family="Helvetica,sans-Serif" font-size="10.00" fill="#000000">spi_sync.h</text>
</a>
</g>
</g>
<!-- Node3&#45;&gt;Node7 -->
<g id="edge4" class="edge">
<title>Node3&#45;&gt;Node7</title>
<path fill="none" stroke="#191970" d="M147.9815,-103.6296C153.8196,-94.2887 160.6752,-83.3197 165.4733,-75.6427"/>
<polygon fill="#191970" stroke="#191970" points="144.9286,-101.9105 142.5965,-112.2455 150.8646,-105.6206 144.9286,-101.9105"/>
</g>
<!-- Node8 -->
<g id="node6" class="node">
<title>Node8</title>
<g id="a_node6"><a xlink:href="uart_2uart_8h.html" target="_top" xlink:title="uart.h">
<polygon fill="#ffffff" stroke="#000000" points="247,-56.5 247,-75.5 288,-75.5 288,-56.5 247,-56.5"/>
<text text-anchor="middle" x="267.5" y="-63.5" font-family="Helvetica,sans-Serif" font-size="10.00" fill="#000000">uart.h</text>
</a>
</g>
</g>
<!-- Node3&#45;&gt;Node8 -->
<g id="edge5" class="edge">
<title>Node3&#45;&gt;Node8</title>
<path fill="none" stroke="#191970" d="M163.661,-110.3892C188.3278,-99.8446 224.1896,-84.5144 246.6612,-74.9082"/>
<polygon fill="#191970" stroke="#191970" points="161.9866,-107.2985 154.1672,-114.4476 164.7381,-113.7351 161.9866,-107.2985"/>
</g>
<!-- Node6 -->
<g id="node4" class="node">
<title>Node6</title>
<g id="a_node4"><a xlink:href="avr_2spi_2spi_8h.html" target="_top" xlink:title="spi.h">
<polygon fill="#ffffff" stroke="#000000" points="70.5,-.5 70.5,-19.5 108.5,-19.5 108.5,-.5 70.5,-.5"/>
<text text-anchor="middle" x="89.5" y="-7.5" font-family="Helvetica,sans-Serif" font-size="10.00" fill="#000000">spi.h</text>
</a>
</g>
</g>
<!-- Node5&#45;&gt;Node6 -->
<g id="edge3" class="edge">
<title>Node5&#45;&gt;Node6</title>
<path fill="none" stroke="#191970" d="M97.9625,-46.4538C95.8561,-37.3803 93.4464,-26.9998 91.7385,-19.6427"/>
<polygon fill="#191970" stroke="#191970" points="94.5649,-47.2961 100.2356,-56.2455 101.3835,-45.7131 94.5649,-47.2961"/>
</g>
<!-- Node9 -->
<g id="node7" class="node">
<title>Node9</title>
<g id="a_node7"><a xlink:href="uart0_8h.html" target="_top" xlink:title="uart0.h">
<polygon fill="#ffffff" stroke="#000000" points="127,-.5 127,-19.5 174,-19.5 174,-.5 127,-.5"/>
<text text-anchor="middle" x="150.5" y="-7.5" font-family="Helvetica,sans-Serif" font-size="10.00" fill="#000000">uart0.h</text>
</a>
</g>
</g>
<!-- Node8&#45;&gt;Node9 -->
<g id="edge6" class="edge">
<title>Node8&#45;&gt;Node9</title>
<path fill="none" stroke="#191970" d="M238.1958,-51.9741C217.012,-41.8348 188.9597,-28.408 170.3506,-19.5011"/>
<polygon fill="#191970" stroke="#191970" points="236.8559,-55.2129 247.387,-56.3733 239.878,-48.8989 236.8559,-55.2129"/>
</g>
<!-- Node10 -->
<g id="node8" class="node">
<title>Node10</title>
<g id="a_node8"><a xlink:href="uart1_8h.html" target="_top" xlink:title="uart1.h">
<polygon fill="#ffffff" stroke="#000000" points="192,-.5 192,-19.5 239,-19.5 239,-.5 192,-.5"/>
<text text-anchor="middle" x="215.5" y="-7.5" font-family="Helvetica,sans-Serif" font-size="10.00" fill="#000000">uart1.h</text>
</a>
</g>
</g>
<!-- Node8&#45;&gt;Node10 -->
<g id="edge7" class="edge">
<title>Node8&#45;&gt;Node10</title>
<path fill="none" stroke="#191970" d="M251.5178,-48.7884C242.6222,-39.2085 231.8796,-27.6396 224.4539,-19.6427"/>
<polygon fill="#191970" stroke="#191970" points="249.073,-51.2992 258.4423,-56.2455 254.2025,-46.536 249.073,-51.2992"/>
</g>
<!-- Node11 -->
<g id="node9" class="node">
<title>Node11</title>
<g id="a_node9"><a xlink:href="uart2_8h.html" target="_top" xlink:title="uart2.h">
<polygon fill="#ffffff" stroke="#000000" points="257,-.5 257,-19.5 304,-19.5 304,-.5 257,-.5"/>
<text text-anchor="middle" x="280.5" y="-7.5" font-family="Helvetica,sans-Serif" font-size="10.00" fill="#000000">uart2.h</text>
</a>
</g>
</g>
<!-- Node8&#45;&gt;Node11 -->
<g id="edge8" class="edge">
<title>Node8&#45;&gt;Node11</title>
<path fill="none" stroke="#191970" d="M272.0375,-46.4538C274.1439,-37.3803 276.5536,-26.9998 278.2615,-19.6427"/>
<polygon fill="#191970" stroke="#191970" points="268.6165,-45.7131 269.7644,-56.2455 275.4351,-47.2961 268.6165,-45.7131"/>
</g>
<!-- Node12 -->
<g id="node10" class="node">
<title>Node12</title>
<g id="a_node10"><a xlink:href="uart3_8h.html" target="_top" xlink:title="uart3.h">
<polygon fill="#ffffff" stroke="#000000" points="322,-.5 322,-19.5 369,-19.5 369,-.5 322,-.5"/>
<text text-anchor="middle" x="345.5" y="-7.5" font-family="Helvetica,sans-Serif" font-size="10.00" fill="#000000">uart3.h</text>
</a>
</g>
</g>
<!-- Node8&#45;&gt;Node12 -->
<g id="edge9" class="edge">
<title>Node8&#45;&gt;Node12</title>
<path fill="none" stroke="#191970" d="M289.4936,-50.2097C303.1929,-40.3743 320.3736,-28.0394 332.0691,-19.6427"/>
<polygon fill="#191970" stroke="#191970" points="287.1686,-47.5703 281.0866,-56.2455 291.2511,-53.2566 287.1686,-47.5703"/>
</g>
<!-- Node13 -->
<g id="node11" class="node">
<title>Node13</title>
<g id="a_node11"><a xlink:href="rtu_8h.html" target="_top" xlink:title="rtu.h">
<polygon fill="#ffffff" stroke="#000000" points="387.5,-.5 387.5,-19.5 423.5,-19.5 423.5,-.5 387.5,-.5"/>
<text text-anchor="middle" x="405.5" y="-7.5" font-family="Helvetica,sans-Serif" font-size="10.00" fill="#000000">rtu.h</text>
</a>
</g>
</g>
<!-- Node8&#45;&gt;Node13 -->
<g id="edge10" class="edge">
<title>Node8&#45;&gt;Node13</title>
<path fill="none" stroke="#191970" d="M297.6471,-53.7664C325.0298,-42.6546 364.5238,-26.628 387.3448,-17.3673"/>
<polygon fill="#191970" stroke="#191970" points="296.11,-50.6129 288.16,-57.6162 298.7422,-57.0992 296.11,-50.6129"/>
</g>
</g>
</svg>
