<?xml version="1.0" encoding="UTF-8" standalone="no"?>
<!DOCTYPE svg PUBLIC "-//W3C//DTD SVG 1.1//EN"
 "http://www.w3.org/Graphics/SVG/1.1/DTD/svg11.dtd">
<!-- Generated by graphviz version 10.0.1 (20240210.2158)
 -->
<!-- Title: vfs_dentry.h Pages: 1 -->
<svg width="521pt" height="264pt"
 viewBox="0.00 0.00 521.25 264.00" xmlns="http://www.w3.org/2000/svg" xmlns:xlink="http://www.w3.org/1999/xlink">
<g id="graph0" class="graph" transform="scale(1 1) rotate(0) translate(4 260)">
<title>vfs_dentry.h</title>
<!-- Node1 -->
<g id="Node000001" class="node">
<title>Node1</title>
<g id="a_Node000001"><a xlink:title=" ">
<polygon fill="#999999" stroke="#666666" points="273.25,-256 205.5,-256 205.5,-236 273.25,-236 273.25,-256"/>
<text text-anchor="middle" x="239.38" y="-242.5" font-family="Helvetica,sans-Serif" font-size="10.00">vfs_dentry.h</text>
</a>
</g>
</g>
<!-- Node2 -->
<g id="Node000002" class="node">
<title>Node2</title>
<g id="a_Node000002"><a xlink:href="str_8h.html" target="_top" xlink:title=" ">
<polygon fill="white" stroke="#666666" points="393.5,-194 333.25,-194 333.25,-174 393.5,-174 393.5,-194"/>
<text text-anchor="middle" x="363.38" y="-180.5" font-family="Helvetica,sans-Serif" font-size="10.00">zrtos/str.h</text>
</a>
</g>
</g>
<!-- Node1&#45;&gt;Node2 -->
<g id="edge1_Node000001_Node000002" class="edge">
<title>Node1&#45;&gt;Node2</title>
<g id="a_edge1_Node000001_Node000002"><a xlink:title=" ">
<path fill="none" stroke="#63b8ff" d="M258.75,-235.62C278.86,-225.89 310.57,-210.55 333.81,-199.31"/>
<polygon fill="#63b8ff" stroke="#63b8ff" points="335.3,-202.47 342.77,-194.97 332.25,-196.17 335.3,-202.47"/>
</a>
</g>
</g>
<!-- Node4 -->
<g id="Node000004" class="node">
<title>Node4</title>
<g id="a_Node000004"><a xlink:href="types_8h.html" target="_top" xlink:title=" ">
<polygon fill="white" stroke="#666666" points="337.88,-76 264.88,-76 264.88,-56 337.88,-56 337.88,-76"/>
<text text-anchor="middle" x="301.38" y="-62.5" font-family="Helvetica,sans-Serif" font-size="10.00">zrtos/types.h</text>
</a>
</g>
</g>
<!-- Node1&#45;&gt;Node4 -->
<g id="edge14_Node000001_Node000004" class="edge">
<title>Node1&#45;&gt;Node4</title>
<g id="a_edge14_Node000001_Node000004"><a xlink:title=" ">
<path fill="none" stroke="#63b8ff" d="M238.82,-235.73C237.86,-213.26 237.68,-154.59 258.38,-112 263.58,-101.29 272.26,-91.47 280.47,-83.75"/>
<polygon fill="#63b8ff" stroke="#63b8ff" points="282.66,-86.48 287.87,-77.26 278.05,-81.22 282.66,-86.48"/>
</a>
</g>
</g>
<!-- Node12 -->
<g id="Node000012" class="node">
<title>Node12</title>
<g id="a_Node000012"><a xlink:href="clist_8h.html" target="_top" xlink:title=" ">
<polygon fill="white" stroke="#666666" points="334.88,-132 267.88,-132 267.88,-112 334.88,-112 334.88,-132"/>
<text text-anchor="middle" x="301.38" y="-118.5" font-family="Helvetica,sans-Serif" font-size="10.00">zrtos/clist.h</text>
</a>
</g>
</g>
<!-- Node1&#45;&gt;Node12 -->
<g id="edge15_Node000001_Node000012" class="edge">
<title>Node1&#45;&gt;Node12</title>
<g id="a_edge15_Node000001_Node000012"><a xlink:title=" ">
<path fill="none" stroke="#63b8ff" d="M244.04,-235.83C254.09,-216.05 278,-169 291.56,-142.32"/>
<polygon fill="#63b8ff" stroke="#63b8ff" points="294.56,-144.13 295.98,-133.63 288.32,-140.95 294.56,-144.13"/>
</a>
</g>
</g>
<!-- Node13 -->
<g id="Node000013" class="node">
<title>Node13</title>
<g id="a_Node000013"><a xlink:href="vfs__inode_8h.html" target="_top" xlink:title=" ">
<polygon fill="white" stroke="#666666" points="88.75,-194 0,-194 0,-174 88.75,-174 88.75,-194"/>
<text text-anchor="middle" x="44.38" y="-180.5" font-family="Helvetica,sans-Serif" font-size="10.00">zrtos/vfs_inode.h</text>
</a>
</g>
</g>
<!-- Node1&#45;&gt;Node13 -->
<g id="edge17_Node000001_Node000013" class="edge">
<title>Node1&#45;&gt;Node13</title>
<g id="a_edge17_Node000001_Node000013"><a xlink:title=" ">
<path fill="none" stroke="#63b8ff" d="M208.91,-235.62C175.8,-225.44 122.72,-209.11 85.84,-197.76"/>
<polygon fill="#63b8ff" stroke="#63b8ff" points="86.98,-194.45 76.4,-194.85 84.93,-201.14 86.98,-194.45"/>
</a>
</g>
</g>
<!-- Node17 -->
<g id="Node000017" class="node">
<title>Node17</title>
<g id="a_Node000017"><a xlink:href="null_8h.html" target="_top" xlink:title=" ">
<polygon fill="white" stroke="#666666" points="211.62,-200 107.12,-200 107.12,-168 211.62,-168 211.62,-200"/>
<text text-anchor="start" x="115.12" y="-186.5" font-family="Helvetica,sans-Serif" font-size="10.00">zrtos/vfs/module/null</text>
<text text-anchor="middle" x="159.38" y="-174.5" font-family="Helvetica,sans-Serif" font-size="10.00">/null.h</text>
</a>
</g>
</g>
<!-- Node1&#45;&gt;Node17 -->
<g id="edge25_Node000001_Node000017" class="edge">
<title>Node1&#45;&gt;Node17</title>
<g id="a_edge25_Node000001_Node000017"><a xlink:title=" ">
<path fill="none" stroke="#63b8ff" d="M226.88,-235.62C216.76,-228.04 202.1,-217.05 189.03,-207.24"/>
<polygon fill="#63b8ff" stroke="#63b8ff" points="191.18,-204.48 181.08,-201.28 186.98,-210.08 191.18,-204.48"/>
</a>
</g>
</g>
<!-- Node3 -->
<g id="Node000003" class="node">
<title>Node3</title>
<g id="a_Node000003"><a xlink:title=" ">
<polygon fill="#e0e0e0" stroke="#999999" points="227,-76 175.75,-76 175.75,-56 227,-56 227,-76"/>
<text text-anchor="middle" x="201.38" y="-62.5" font-family="Helvetica,sans-Serif" font-size="10.00">stdarg.h</text>
</a>
</g>
</g>
<!-- Node2&#45;&gt;Node3 -->
<g id="edge2_Node000002_Node000003" class="edge">
<title>Node2&#45;&gt;Node3</title>
<g id="a_edge2_Node000002_Node000003"><a xlink:title=" ">
<path fill="none" stroke="#63b8ff" d="M337.15,-173.66C314.87,-164.97 282.71,-150.56 258.38,-132 241.09,-118.82 225.12,-99.74 214.5,-85.67"/>
<polygon fill="#63b8ff" stroke="#63b8ff" points="217.4,-83.69 208.68,-77.68 211.74,-87.82 217.4,-83.69"/>
</a>
</g>
</g>
<!-- Node2&#45;&gt;Node4 -->
<g id="edge3_Node000002_Node000004" class="edge">
<title>Node2&#45;&gt;Node4</title>
<g id="a_edge3_Node000002_Node000004"><a xlink:title=" ">
<path fill="none" stroke="#63b8ff" d="M362.38,-173.71C360.56,-159.59 355.75,-132.24 344.38,-112 338.54,-101.62 329.77,-91.85 321.66,-84.07"/>
<polygon fill="#63b8ff" stroke="#63b8ff" points="324.18,-81.63 314.42,-77.51 319.48,-86.82 324.18,-81.63"/>
</a>
</g>
</g>
<!-- Node10 -->
<g id="Node000010" class="node">
<title>Node10</title>
<g id="a_Node000010"><a xlink:href="cast_8h.html" target="_top" xlink:title=" ">
<polygon fill="white" stroke="#666666" points="513.25,-20 445.5,-20 445.5,0 513.25,0 513.25,-20"/>
<text text-anchor="middle" x="479.38" y="-6.5" font-family="Helvetica,sans-Serif" font-size="10.00">zrtos/cast.h</text>
</a>
</g>
</g>
<!-- Node2&#45;&gt;Node10 -->
<g id="edge10_Node000002_Node000010" class="edge">
<title>Node2&#45;&gt;Node10</title>
<g id="a_edge10_Node000002_Node000010"><a xlink:title=" ">
<path fill="none" stroke="#63b8ff" d="M393.75,-177.24C418.75,-170.78 452.83,-157.64 470.38,-132 491.03,-101.82 487.81,-56.93 483.6,-31.16"/>
<polygon fill="#63b8ff" stroke="#63b8ff" points="487.1,-30.87 481.83,-21.68 480.22,-32.15 487.1,-30.87"/>
</a>
</g>
</g>
<!-- Node11 -->
<g id="Node000011" class="node">
<title>Node11</title>
<g id="a_Node000011"><a xlink:href="mem_8h.html" target="_top" xlink:title=" ">
<polygon fill="white" stroke="#666666" points="461.75,-132 391,-132 391,-112 461.75,-112 461.75,-132"/>
<text text-anchor="middle" x="426.38" y="-118.5" font-family="Helvetica,sans-Serif" font-size="10.00">zrtos/mem.h</text>
</a>
</g>
</g>
<!-- Node2&#45;&gt;Node11 -->
<g id="edge11_Node000002_Node000011" class="edge">
<title>Node2&#45;&gt;Node11</title>
<g id="a_edge11_Node000002_Node000011"><a xlink:title=" ">
<path fill="none" stroke="#63b8ff" d="M373.22,-173.62C382.71,-164.59 397.27,-150.72 408.76,-139.78"/>
<polygon fill="#63b8ff" stroke="#63b8ff" points="410.88,-142.59 415.71,-133.16 406.06,-137.52 410.88,-142.59"/>
</a>
</g>
</g>
<!-- Node5 -->
<g id="Node000005" class="node">
<title>Node5</title>
<g id="a_Node000005"><a xlink:title=" ">
<polygon fill="#e0e0e0" stroke="#999999" points="151.25,-20 95.5,-20 95.5,0 151.25,0 151.25,-20"/>
<text text-anchor="middle" x="123.38" y="-6.5" font-family="Helvetica,sans-Serif" font-size="10.00">stdbool.h</text>
</a>
</g>
</g>
<!-- Node4&#45;&gt;Node5 -->
<g id="edge4_Node000004_Node000005" class="edge">
<title>Node4&#45;&gt;Node5</title>
<g id="a_edge4_Node000004_Node000005"><a xlink:title=" ">
<path fill="none" stroke="#63b8ff" d="M270.37,-55.59C240.43,-46.51 194.99,-32.73 162.56,-22.89"/>
<polygon fill="#63b8ff" stroke="#63b8ff" points="163.71,-19.58 153.13,-20.03 161.68,-26.28 163.71,-19.58"/>
</a>
</g>
</g>
<!-- Node6 -->
<g id="Node000006" class="node">
<title>Node6</title>
<g id="a_Node000006"><a xlink:title=" ">
<polygon fill="#e0e0e0" stroke="#999999" points="427.62,-20 377.12,-20 377.12,0 427.62,0 427.62,-20"/>
<text text-anchor="middle" x="402.38" y="-6.5" font-family="Helvetica,sans-Serif" font-size="10.00">stddef.h</text>
</a>
</g>
</g>
<!-- Node4&#45;&gt;Node6 -->
<g id="edge5_Node000004_Node000006" class="edge">
<title>Node4&#45;&gt;Node6</title>
<g id="a_edge5_Node000004_Node000006"><a xlink:title=" ">
<path fill="none" stroke="#63b8ff" d="M318.97,-55.59C334.3,-47.4 356.79,-35.37 374.56,-25.87"/>
<polygon fill="#63b8ff" stroke="#63b8ff" points="376.14,-28.99 383.31,-21.19 372.84,-22.82 376.14,-28.99"/>
</a>
</g>
</g>
<!-- Node7 -->
<g id="Node000007" class="node">
<title>Node7</title>
<g id="a_Node000007"><a xlink:title=" ">
<polygon fill="#e0e0e0" stroke="#999999" points="283.5,-20 235.25,-20 235.25,0 283.5,0 283.5,-20"/>
<text text-anchor="middle" x="259.38" y="-6.5" font-family="Helvetica,sans-Serif" font-size="10.00">stdint.h</text>
</a>
</g>
</g>
<!-- Node4&#45;&gt;Node7 -->
<g id="edge6_Node000004_Node000007" class="edge">
<title>Node4&#45;&gt;Node7</title>
<g id="a_edge6_Node000004_Node000007"><a xlink:title=" ">
<path fill="none" stroke="#63b8ff" d="M294.06,-55.59C288.4,-48.32 280.39,-38.02 273.49,-29.15"/>
<polygon fill="#63b8ff" stroke="#63b8ff" points="276.44,-27.24 267.54,-21.49 270.91,-31.54 276.44,-27.24"/>
</a>
</g>
</g>
<!-- Node8 -->
<g id="Node000008" class="node">
<title>Node8</title>
<g id="a_Node000008"><a xlink:title=" ">
<polygon fill="#e0e0e0" stroke="#999999" points="217.12,-20 169.62,-20 169.62,0 217.12,0 217.12,-20"/>
<text text-anchor="middle" x="193.38" y="-6.5" font-family="Helvetica,sans-Serif" font-size="10.00">limits.h</text>
</a>
</g>
</g>
<!-- Node4&#45;&gt;Node8 -->
<g id="edge7_Node000004_Node000008" class="edge">
<title>Node4&#45;&gt;Node8</title>
<g id="a_edge7_Node000004_Node000008"><a xlink:title=" ">
<path fill="none" stroke="#63b8ff" d="M282.56,-55.59C266.02,-47.32 241.66,-35.14 222.58,-25.6"/>
<polygon fill="#63b8ff" stroke="#63b8ff" points="224.2,-22.5 213.69,-21.16 221.07,-28.76 224.2,-22.5"/>
</a>
</g>
</g>
<!-- Node9 -->
<g id="Node000009" class="node">
<title>Node9</title>
<g id="a_Node000009"><a xlink:title=" ">
<polygon fill="#e0e0e0" stroke="#999999" points="359.38,-20 301.38,-20 301.38,0 359.38,0 359.38,-20"/>
<text text-anchor="middle" x="330.38" y="-6.5" font-family="Helvetica,sans-Serif" font-size="10.00">stdalign.h</text>
</a>
</g>
</g>
<!-- Node4&#45;&gt;Node9 -->
<g id="edge8_Node000004_Node000009" class="edge">
<title>Node4&#45;&gt;Node9</title>
<g id="a_edge8_Node000004_Node000009"><a xlink:title=" ">
<path fill="none" stroke="#63b8ff" d="M306.43,-55.59C310.17,-48.63 315.4,-38.89 320.02,-30.29"/>
<polygon fill="#63b8ff" stroke="#63b8ff" points="323.02,-32.1 324.67,-21.63 316.85,-28.79 323.02,-32.1"/>
</a>
</g>
</g>
<!-- Node4&#45;&gt;Node10 -->
<g id="edge9_Node000004_Node000010" class="edge">
<title>Node4&#45;&gt;Node10</title>
<g id="a_edge9_Node000004_Node000010"><a xlink:title=" ">
<path fill="none" stroke="#63b8ff" d="M332.38,-55.59C361.43,-46.78 405.07,-33.54 437.26,-23.78"/>
<polygon fill="#63b8ff" stroke="#63b8ff" points="438.13,-27.17 446.68,-20.92 436.09,-20.47 438.13,-27.17"/>
</a>
</g>
</g>
<!-- Node11&#45;&gt;Node4 -->
<g id="edge12_Node000011_Node000004" class="edge">
<title>Node11&#45;&gt;Node4</title>
<g id="a_edge12_Node000011_Node000004"><a xlink:title=" ">
<path fill="none" stroke="#63b8ff" d="M404.6,-111.59C385.01,-103.13 355.95,-90.58 333.65,-80.94"/>
<polygon fill="#63b8ff" stroke="#63b8ff" points="335.28,-77.83 324.71,-77.08 332.5,-84.26 335.28,-77.83"/>
</a>
</g>
</g>
<!-- Node11&#45;&gt;Node10 -->
<g id="edge13_Node000011_Node000010" class="edge">
<title>Node11&#45;&gt;Node10</title>
<g id="a_edge13_Node000011_Node000010"><a xlink:title=" ">
<path fill="none" stroke="#63b8ff" d="M430.89,-111.62C439.5,-93.76 458.4,-54.53 469.9,-30.67"/>
<polygon fill="#63b8ff" stroke="#63b8ff" points="473.02,-32.25 474.21,-21.72 466.72,-29.21 473.02,-32.25"/>
</a>
</g>
</g>
<!-- Node12&#45;&gt;Node4 -->
<g id="edge16_Node000012_Node000004" class="edge">
<title>Node12&#45;&gt;Node4</title>
<g id="a_edge16_Node000012_Node000004"><a xlink:title=" ">
<path fill="none" stroke="#63b8ff" d="M301.38,-111.59C301.38,-105.01 301.38,-95.96 301.38,-87.73"/>
<polygon fill="#63b8ff" stroke="#63b8ff" points="304.88,-87.81 301.38,-77.81 297.88,-87.81 304.88,-87.81"/>
</a>
</g>
</g>
<!-- Node14 -->
<g id="Node000014" class="node">
<title>Node14</title>
<g id="a_Node000014"><a xlink:href="vfs__plugin_8h.html" target="_top" xlink:title=" ">
<polygon fill="white" stroke="#666666" points="172.88,-132 81.88,-132 81.88,-112 172.88,-112 172.88,-132"/>
<text text-anchor="middle" x="127.38" y="-118.5" font-family="Helvetica,sans-Serif" font-size="10.00">zrtos/vfs_plugin.h</text>
</a>
</g>
</g>
<!-- Node13&#45;&gt;Node14 -->
<g id="edge18_Node000013_Node000014" class="edge">
<title>Node13&#45;&gt;Node14</title>
<g id="a_edge18_Node000013_Node000014"><a xlink:title=" ">
<path fill="none" stroke="#63b8ff" d="M57.34,-173.62C70.13,-164.38 89.93,-150.07 105.22,-139.01"/>
<polygon fill="#63b8ff" stroke="#63b8ff" points="107.22,-141.89 113.27,-133.2 103.12,-136.22 107.22,-141.89"/>
</a>
</g>
</g>
<!-- Node14&#45;&gt;Node3 -->
<g id="edge19_Node000014_Node000003" class="edge">
<title>Node14&#45;&gt;Node3</title>
<g id="a_edge19_Node000014_Node000003"><a xlink:title=" ">
<path fill="none" stroke="#63b8ff" d="M140.26,-111.59C151.09,-103.7 166.79,-92.24 179.56,-82.92"/>
<polygon fill="#63b8ff" stroke="#63b8ff" points="181.4,-85.91 187.41,-77.19 177.27,-80.26 181.4,-85.91"/>
</a>
</g>
</g>
<!-- Node14&#45;&gt;Node4 -->
<g id="edge20_Node000014_Node000004" class="edge">
<title>Node14&#45;&gt;Node4</title>
<g id="a_edge20_Node000014_Node000004"><a xlink:title=" ">
<path fill="none" stroke="#63b8ff" d="M157.68,-111.59C186.08,-102.78 228.74,-89.54 260.21,-79.78"/>
<polygon fill="#63b8ff" stroke="#63b8ff" points="260.87,-83.23 269.38,-76.93 258.8,-76.55 260.87,-83.23"/>
</a>
</g>
</g>
<!-- Node15 -->
<g id="Node000015" class="node">
<title>Node15</title>
<g id="a_Node000015"><a xlink:href="error_8h.html" target="_top" xlink:title=" ">
<polygon fill="white" stroke="#666666" points="157.62,-76 89.12,-76 89.12,-56 157.62,-56 157.62,-76"/>
<text text-anchor="middle" x="123.38" y="-62.5" font-family="Helvetica,sans-Serif" font-size="10.00">zrtos/error.h</text>
</a>
</g>
</g>
<!-- Node14&#45;&gt;Node15 -->
<g id="edge21_Node000014_Node000015" class="edge">
<title>Node14&#45;&gt;Node15</title>
<g id="a_edge21_Node000014_Node000015"><a xlink:title=" ">
<path fill="none" stroke="#63b8ff" d="M126.68,-111.59C126.19,-105.01 125.52,-95.96 124.91,-87.73"/>
<polygon fill="#63b8ff" stroke="#63b8ff" points="128.4,-87.52 124.18,-77.81 121.42,-88.04 128.4,-87.52"/>
</a>
</g>
</g>
<!-- Node15&#45;&gt;Node5 -->
<g id="edge23_Node000015_Node000005" class="edge">
<title>Node15&#45;&gt;Node5</title>
<g id="a_edge23_Node000015_Node000005"><a xlink:title=" ">
<path fill="none" stroke="#63b8ff" d="M123.38,-55.59C123.38,-49.01 123.38,-39.96 123.38,-31.73"/>
<polygon fill="#63b8ff" stroke="#63b8ff" points="126.88,-31.81 123.38,-21.81 119.88,-31.81 126.88,-31.81"/>
</a>
</g>
</g>
<!-- Node15&#45;&gt;Node8 -->
<g id="edge22_Node000015_Node000008" class="edge">
<title>Node15&#45;&gt;Node8</title>
<g id="a_edge22_Node000015_Node000008"><a xlink:title=" ">
<path fill="none" stroke="#63b8ff" d="M135.57,-55.59C145.71,-47.77 160.37,-36.46 172.39,-27.19"/>
<polygon fill="#63b8ff" stroke="#63b8ff" points="174.34,-30.1 180.12,-21.22 170.07,-24.56 174.34,-30.1"/>
</a>
</g>
</g>
<!-- Node16 -->
<g id="Node000016" class="node">
<title>Node16</title>
<g id="a_Node000016"><a xlink:href="assert_8h.html" target="_top" xlink:title=" ">
<polygon fill="white" stroke="#666666" points="77.38,-20 1.38,-20 1.38,0 77.38,0 77.38,-20"/>
<text text-anchor="middle" x="39.38" y="-6.5" font-family="Helvetica,sans-Serif" font-size="10.00">zrtos/assert.h</text>
</a>
</g>
</g>
<!-- Node15&#45;&gt;Node16 -->
<g id="edge24_Node000015_Node000016" class="edge">
<title>Node15&#45;&gt;Node16</title>
<g id="a_edge24_Node000015_Node000016"><a xlink:title=" ">
<path fill="none" stroke="#63b8ff" d="M108.74,-55.59C96.29,-47.59 78.16,-35.93 63.55,-26.54"/>
<polygon fill="#63b8ff" stroke="#63b8ff" points="65.7,-23.76 55.39,-21.3 61.91,-29.65 65.7,-23.76"/>
</a>
</g>
</g>
<!-- Node17&#45;&gt;Node14 -->
<g id="edge26_Node000017_Node000014" class="edge">
<title>Node17&#45;&gt;Node14</title>
<g id="a_edge26_Node000017_Node000014"><a xlink:title=" ">
<path fill="none" stroke="#63b8ff" d="M151.13,-167.55C147.06,-159.91 142.1,-150.61 137.77,-142.49"/>
<polygon fill="#63b8ff" stroke="#63b8ff" points="140.9,-140.92 133.1,-133.74 134.72,-144.21 140.9,-140.92"/>
</a>
</g>
</g>
</g>
</svg>
