<?xml version="1.0" encoding="UTF-8" standalone="no"?>
<!DOCTYPE svg PUBLIC "-//W3C//DTD SVG 1.1//EN"
 "http://www.w3.org/Graphics/SVG/1.1/DTD/svg11.dtd">
<!-- Generated by graphviz version 2.40.1 (20161225.0304)
 -->
<!-- Title: zrtos_vfs_dentry__init Pages: 1 -->
<svg width="585pt" height="123pt"
 viewBox="0.00 0.00 585.00 123.00" xmlns="http://www.w3.org/2000/svg" xmlns:xlink="http://www.w3.org/1999/xlink">
<g id="graph0" class="graph" transform="scale(1 1) rotate(0) translate(4 119)">
<title>zrtos_vfs_dentry__init</title>
<polygon fill="#ffffff" stroke="transparent" points="-4,4 -4,-119 581,-119 581,4 -4,4"/>
<!-- Node39 -->
<g id="node1" class="node">
<title>Node39</title>
<polygon fill="#bfbfbf" stroke="#000000" points="0,-57.5 0,-76.5 113,-76.5 113,-57.5 0,-57.5"/>
<text text-anchor="middle" x="56.5" y="-64.5" font-family="Helvetica,sans-Serif" font-size="10.00" fill="#000000">zrtos_vfs_dentry__init</text>
</g>
<!-- Node40 -->
<g id="node2" class="node">
<title>Node40</title>
<g id="a_node2"><a xlink:href="clist_8h.html#a26b8f9c0c172cd6d9deba237155bf40a" target="_top" xlink:title="zrtos_clist_node__init">
<polygon fill="#ffffff" stroke="#000000" points="149,-95.5 149,-114.5 260,-114.5 260,-95.5 149,-95.5"/>
<text text-anchor="middle" x="204.5" y="-102.5" font-family="Helvetica,sans-Serif" font-size="10.00" fill="#000000">zrtos_clist_node__init</text>
</a>
</g>
</g>
<!-- Node39&#45;&gt;Node40 -->
<g id="edge1" class="edge">
<title>Node39&#45;&gt;Node40</title>
<path fill="none" stroke="#191970" d="M93.8466,-76.589C113.2009,-81.5583 137.0304,-87.6767 157.6126,-92.9613"/>
<polygon fill="#191970" stroke="#191970" points="156.8656,-96.383 167.4219,-95.4799 158.6065,-89.6029 156.8656,-96.383"/>
</g>
<!-- Node41 -->
<g id="node3" class="node">
<title>Node41</title>
<g id="a_node3"><a xlink:href="vfs__inode_8h.html#a017cf6850f11efa189da7d3655d9ea53" target="_top" xlink:title="zrtos_vfs_inode__init">
<polygon fill="#ffffff" stroke="#000000" points="150,-57.5 150,-76.5 259,-76.5 259,-57.5 150,-57.5"/>
<text text-anchor="middle" x="204.5" y="-64.5" font-family="Helvetica,sans-Serif" font-size="10.00" fill="#000000">zrtos_vfs_inode__init</text>
</a>
</g>
</g>
<!-- Node39&#45;&gt;Node41 -->
<g id="edge2" class="edge">
<title>Node39&#45;&gt;Node41</title>
<path fill="none" stroke="#191970" d="M113.2974,-67C121.8516,-67 130.7305,-67 139.4416,-67"/>
<polygon fill="#191970" stroke="#191970" points="139.5612,-70.5001 149.5612,-67 139.5611,-63.5001 139.5612,-70.5001"/>
</g>
<!-- Node42 -->
<g id="node4" class="node">
<title>Node42</title>
<g id="a_node4"><a xlink:href="clist_8h.html#a853d4178de18748d3bee28700929bda4" target="_top" xlink:title="zrtos_clist__push">
<polygon fill="#ffffff" stroke="#000000" points="158,-19.5 158,-38.5 251,-38.5 251,-19.5 158,-19.5"/>
<text text-anchor="middle" x="204.5" y="-26.5" font-family="Helvetica,sans-Serif" font-size="10.00" fill="#000000">zrtos_clist__push</text>
</a>
</g>
</g>
<!-- Node39&#45;&gt;Node42 -->
<g id="edge3" class="edge">
<title>Node39&#45;&gt;Node42</title>
<path fill="none" stroke="#191970" d="M93.8466,-57.411C113.2009,-52.4417 137.0304,-46.3233 157.6126,-41.0387"/>
<polygon fill="#191970" stroke="#191970" points="158.6065,-44.3971 167.4219,-38.5201 156.8656,-37.617 158.6065,-44.3971"/>
</g>
<!-- Node43 -->
<g id="node5" class="node">
<title>Node43</title>
<g id="a_node5"><a xlink:href="clist_8h.html#ac963d632abfc835ef63877a4cfd401e6" target="_top" xlink:title="zrtos_clist__get_last_node">
<polygon fill="#ffffff" stroke="#000000" points="296,-38.5 296,-57.5 429,-57.5 429,-38.5 296,-38.5"/>
<text text-anchor="middle" x="362.5" y="-45.5" font-family="Helvetica,sans-Serif" font-size="10.00" fill="#000000">zrtos_clist__get_last_node</text>
</a>
</g>
</g>
<!-- Node42&#45;&gt;Node43 -->
<g id="edge4" class="edge">
<title>Node42&#45;&gt;Node43</title>
<path fill="none" stroke="#191970" d="M251.0506,-34.5979C262.0024,-35.9148 273.9612,-37.3529 285.849,-38.7825"/>
<polygon fill="#191970" stroke="#191970" points="285.448,-42.2594 295.7943,-39.9784 286.2838,-35.3094 285.448,-42.2594"/>
</g>
<!-- Node46 -->
<g id="node8" class="node">
<title>Node46</title>
<g id="a_node8"><a xlink:href="clist_8h.html#a2795f97f269d0259065d7c7219d09341" target="_top" xlink:title="zrtos_clist_node__append">
<polygon fill="#ffffff" stroke="#000000" points="297.5,-.5 297.5,-19.5 427.5,-19.5 427.5,-.5 297.5,-.5"/>
<text text-anchor="middle" x="362.5" y="-7.5" font-family="Helvetica,sans-Serif" font-size="10.00" fill="#000000">zrtos_clist_node__append</text>
</a>
</g>
</g>
<!-- Node42&#45;&gt;Node46 -->
<g id="edge7" class="edge">
<title>Node42&#45;&gt;Node46</title>
<path fill="none" stroke="#191970" d="M251.0506,-23.4021C262.358,-22.0424 274.7388,-20.5536 287.0066,-19.0783"/>
<polygon fill="#191970" stroke="#191970" points="287.7484,-22.5144 297.2589,-17.8454 286.9126,-15.5645 287.7484,-22.5144"/>
</g>
<!-- Node44 -->
<g id="node6" class="node">
<title>Node44</title>
<g id="a_node6"><a xlink:href="clist_8h.html#afb7e643d242da19562a3584abcfca015" target="_top" xlink:title="zrtos_clist__get_root">
<polygon fill="#ffffff" stroke="#000000" points="467.5,-60.5 467.5,-79.5 574.5,-79.5 574.5,-60.5 467.5,-60.5"/>
<text text-anchor="middle" x="521" y="-67.5" font-family="Helvetica,sans-Serif" font-size="10.00" fill="#000000">zrtos_clist__get_root</text>
</a>
</g>
</g>
<!-- Node43&#45;&gt;Node44 -->
<g id="edge5" class="edge">
<title>Node43&#45;&gt;Node44</title>
<path fill="none" stroke="#191970" d="M429.2589,-57.2662C438.5785,-58.5598 448.1345,-59.8862 457.3938,-61.1714"/>
<polygon fill="#191970" stroke="#191970" points="456.9131,-64.6381 467.2994,-62.5463 457.8756,-57.7046 456.9131,-64.6381"/>
</g>
<!-- Node45 -->
<g id="node7" class="node">
<title>Node45</title>
<g id="a_node7"><a xlink:href="clist_8h.html#adc7d3acc850be7934c1c38390033a93d" target="_top" xlink:title="zrtos_clist_node__get\l_previous_node">
<polygon fill="#ffffff" stroke="#000000" points="465,-11 465,-41 577,-41 577,-11 465,-11"/>
<text text-anchor="start" x="473" y="-29" font-family="Helvetica,sans-Serif" font-size="10.00" fill="#000000">zrtos_clist_node__get</text>
<text text-anchor="middle" x="521" y="-18" font-family="Helvetica,sans-Serif" font-size="10.00" fill="#000000">_previous_node</text>
</a>
</g>
</g>
<!-- Node43&#45;&gt;Node45 -->
<g id="edge6" class="edge">
<title>Node43&#45;&gt;Node45</title>
<path fill="none" stroke="#191970" d="M429.2589,-38.7338C437.6796,-37.565 446.2933,-36.3694 454.7067,-35.2016"/>
<polygon fill="#191970" stroke="#191970" points="455.4197,-38.6363 464.8435,-33.7946 454.4572,-31.7027 455.4197,-38.6363"/>
</g>
</g>
</svg>
