<?xml version="1.0" encoding="UTF-8" standalone="no"?>
<!DOCTYPE svg PUBLIC "-//W3C//DTD SVG 1.1//EN"
 "http://www.w3.org/Graphics/SVG/1.1/DTD/svg11.dtd">
<!-- Generated by graphviz version 2.40.1 (20161225.0304)
 -->
<!-- Title: zrtos_vfs_dentry__each_child_cb Pages: 1 -->
<svg width="901pt" height="39pt"
 viewBox="0.00 0.00 901.00 39.00" xmlns="http://www.w3.org/2000/svg" xmlns:xlink="http://www.w3.org/1999/xlink">
<g id="graph0" class="graph" transform="scale(1 1) rotate(0) translate(4 35)">
<title>zrtos_vfs_dentry__each_child_cb</title>
<polygon fill="#ffffff" stroke="transparent" points="-4,4 -4,-35 897,-35 897,4 -4,4"/>
<!-- Node11 -->
<g id="node1" class="node">
<title>Node11</title>
<polygon fill="#bfbfbf" stroke="#000000" points="0,-.5 0,-30.5 121,-30.5 121,-.5 0,-.5"/>
<text text-anchor="start" x="8" y="-18.5" font-family="Helvetica,sans-Serif" font-size="10.00" fill="#000000">zrtos_vfs_dentry__each</text>
<text text-anchor="middle" x="60.5" y="-7.5" font-family="Helvetica,sans-Serif" font-size="10.00" fill="#000000">_child_cb</text>
</g>
<!-- Node12 -->
<g id="node2" class="node">
<title>Node12</title>
<g id="a_node2"><a xlink:href="vfs__dentry_8h.html#a911f5eb8673c68fe4147f56a21062ed7" target="_top" xlink:title="zrtos_vfs_dentry__each\l_child">
<polygon fill="#ffffff" stroke="#000000" points="157,-.5 157,-30.5 278,-30.5 278,-.5 157,-.5"/>
<text text-anchor="start" x="165" y="-18.5" font-family="Helvetica,sans-Serif" font-size="10.00" fill="#000000">zrtos_vfs_dentry__each</text>
<text text-anchor="middle" x="217.5" y="-7.5" font-family="Helvetica,sans-Serif" font-size="10.00" fill="#000000">_child</text>
</a>
</g>
</g>
<!-- Node11&#45;&gt;Node12 -->
<g id="edge1" class="edge">
<title>Node11&#45;&gt;Node12</title>
<path fill="none" stroke="#191970" d="M131.2098,-15.5C139.807,-15.5 148.5301,-15.5 156.9611,-15.5"/>
<polygon fill="#191970" stroke="#191970" points="131.2003,-12.0001 121.2003,-15.5 131.2003,-19.0001 131.2003,-12.0001"/>
</g>
<!-- Node13 -->
<g id="node3" class="node">
<title>Node13</title>
<g id="a_node3"><a xlink:href="vfs__dentry_8h.html#a993f8558c29043f4405698f2d4f2747e" target="_top" xlink:title="zrtos_vfs_dentry__lookup">
<polygon fill="#ffffff" stroke="#000000" points="314,-6 314,-25 442,-25 442,-6 314,-6"/>
<text text-anchor="middle" x="378" y="-13" font-family="Helvetica,sans-Serif" font-size="10.00" fill="#000000">zrtos_vfs_dentry__lookup</text>
</a>
</g>
</g>
<!-- Node12&#45;&gt;Node13 -->
<g id="edge2" class="edge">
<title>Node12&#45;&gt;Node13</title>
<path fill="none" stroke="#191970" d="M288.3835,-15.5C296.828,-15.5 305.4128,-15.5 313.757,-15.5"/>
<polygon fill="#191970" stroke="#191970" points="288.1782,-12.0001 278.1782,-15.5 288.1781,-19.0001 288.1782,-12.0001"/>
</g>
<!-- Node14 -->
<g id="node4" class="node">
<title>Node14</title>
<g id="a_node4"><a xlink:href="vfs__file_8h.html#a5e35099a788e6bd302890a2da12cdb10" target="_top" xlink:title="zrtos_vfs_file__open">
<polygon fill="#ffffff" stroke="#000000" points="478,-6 478,-25 585,-25 585,-6 478,-6"/>
<text text-anchor="middle" x="531.5" y="-13" font-family="Helvetica,sans-Serif" font-size="10.00" fill="#000000">zrtos_vfs_file__open</text>
</a>
</g>
</g>
<!-- Node13&#45;&gt;Node14 -->
<g id="edge3" class="edge">
<title>Node13&#45;&gt;Node14</title>
<path fill="none" stroke="#191970" d="M452.2612,-15.5C460.8631,-15.5 469.5067,-15.5 477.7592,-15.5"/>
<polygon fill="#191970" stroke="#191970" points="452.2084,-12.0001 442.2084,-15.5 452.2084,-19.0001 452.2084,-12.0001"/>
</g>
<!-- Node15 -->
<g id="node5" class="node">
<title>Node15</title>
<g id="a_node5"><a xlink:href="vfs__fd_8h.html#a3d77749f16d0a3f932c58f9ae0c20e1c" target="_top" xlink:title="zrtos_vfs_fd__open">
<polygon fill="#ffffff" stroke="#000000" points="621,-6 621,-25 723,-25 723,-6 621,-6"/>
<text text-anchor="middle" x="672" y="-13" font-family="Helvetica,sans-Serif" font-size="10.00" fill="#000000">zrtos_vfs_fd__open</text>
</a>
</g>
</g>
<!-- Node14&#45;&gt;Node15 -->
<g id="edge4" class="edge">
<title>Node14&#45;&gt;Node15</title>
<path fill="none" stroke="#191970" d="M595.09,-15.5C603.7504,-15.5 612.5471,-15.5 620.9472,-15.5"/>
<polygon fill="#191970" stroke="#191970" points="595.0179,-12.0001 585.0178,-15.5 595.0178,-19.0001 595.0179,-12.0001"/>
</g>
<!-- Node16 -->
<g id="node6" class="node">
<title>Node16</title>
<g id="a_node6"><a xlink:href="rtu_8h.html#a2376d02a52d42eef634ef843afc499f3" target="_top" xlink:title="zrtos_vfs_module_modbus\l_rtu_inode__init">
<polygon fill="#ffffff" stroke="#000000" points="759,-.5 759,-30.5 893,-30.5 893,-.5 759,-.5"/>
<text text-anchor="start" x="767" y="-18.5" font-family="Helvetica,sans-Serif" font-size="10.00" fill="#000000">zrtos_vfs_module_modbus</text>
<text text-anchor="middle" x="826" y="-7.5" font-family="Helvetica,sans-Serif" font-size="10.00" fill="#000000">_rtu_inode__init</text>
</a>
</g>
</g>
<!-- Node15&#45;&gt;Node16 -->
<g id="edge5" class="edge">
<title>Node15&#45;&gt;Node16</title>
<path fill="none" stroke="#191970" d="M733.3277,-15.5C741.693,-15.5 750.316,-15.5 758.7789,-15.5"/>
<polygon fill="#191970" stroke="#191970" points="733.2798,-12.0001 723.2798,-15.5 733.2797,-19.0001 733.2798,-12.0001"/>
</g>
</g>
</svg>
