<?xml version="1.0" encoding="UTF-8" standalone="no"?>
<!DOCTYPE svg PUBLIC "-//W3C//DTD SVG 1.1//EN"
 "http://www.w3.org/Graphics/SVG/1.1/DTD/svg11.dtd">
<!-- Generated by graphviz version 2.40.1 (20161225.0304)
 -->
<!-- Title: vfs_module.h Pages: 1 -->
<svg width="677pt" height="140pt"
 viewBox="0.00 0.00 676.50 140.00" xmlns="http://www.w3.org/2000/svg" xmlns:xlink="http://www.w3.org/1999/xlink">
<g id="graph0" class="graph" transform="scale(1 1) rotate(0) translate(4 136)">
<title>vfs_module.h</title>
<polygon fill="#ffffff" stroke="transparent" points="-4,4 -4,-136 672.5,-136 672.5,4 -4,4"/>
<!-- Node20 -->
<g id="node1" class="node">
<title>Node20</title>
<polygon fill="#bfbfbf" stroke="#000000" points="294,-112.5 294,-131.5 369,-131.5 369,-112.5 294,-112.5"/>
<text text-anchor="middle" x="331.5" y="-119.5" font-family="Helvetica,sans-Serif" font-size="10.00" fill="#000000">vfs_module.h</text>
</g>
<!-- Node21 -->
<g id="node2" class="node">
<title>Node21</title>
<g id="a_node2"><a xlink:href="max7219_8h.html" target="_top" xlink:title="max7219.h">
<polygon fill="#ffffff" stroke="#000000" points="0,-56.5 0,-75.5 65,-75.5 65,-56.5 0,-56.5"/>
<text text-anchor="middle" x="32.5" y="-63.5" font-family="Helvetica,sans-Serif" font-size="10.00" fill="#000000">max7219.h</text>
</a>
</g>
</g>
<!-- Node20&#45;&gt;Node21 -->
<g id="edge1" class="edge">
<title>Node20&#45;&gt;Node21</title>
<path fill="none" stroke="#191970" d="M284.0368,-114.3322C232.3436,-105.7884 147.3012,-91.1694 74.5,-76 71.4181,-75.3578 68.2169,-74.6572 65.0186,-73.9346"/>
<polygon fill="#191970" stroke="#191970" points="283.4816,-117.7878 293.9173,-115.9583 284.6184,-110.8808 283.4816,-117.7878"/>
</g>
<!-- Node22 -->
<g id="node3" class="node">
<title>Node22</title>
<g id="a_node3"><a xlink:href="mcp2515_8h.html" target="_top" xlink:title="mcp2515.h">
<polygon fill="#ffffff" stroke="#000000" points="83,-56.5 83,-75.5 148,-75.5 148,-56.5 83,-56.5"/>
<text text-anchor="middle" x="115.5" y="-63.5" font-family="Helvetica,sans-Serif" font-size="10.00" fill="#000000">mcp2515.h</text>
</a>
</g>
</g>
<!-- Node20&#45;&gt;Node22 -->
<g id="edge2" class="edge">
<title>Node20&#45;&gt;Node22</title>
<path fill="none" stroke="#191970" d="M284.5642,-109.8315C243.3832,-99.1549 184.5593,-83.9043 148.2645,-74.4945"/>
<polygon fill="#191970" stroke="#191970" points="283.8099,-113.2516 294.3683,-112.3733 285.5667,-106.4756 283.8099,-113.2516"/>
</g>
<!-- Node23 -->
<g id="node4" class="node">
<title>Node23</title>
<g id="a_node4"><a xlink:href="sdm630_8h.html" target="_top" xlink:title="sdm630.h">
<polygon fill="#ffffff" stroke="#000000" points="166,-56.5 166,-75.5 225,-75.5 225,-56.5 166,-56.5"/>
<text text-anchor="middle" x="195.5" y="-63.5" font-family="Helvetica,sans-Serif" font-size="10.00" fill="#000000">sdm630.h</text>
</a>
</g>
</g>
<!-- Node20&#45;&gt;Node23 -->
<g id="edge3" class="edge">
<title>Node20&#45;&gt;Node23</title>
<path fill="none" stroke="#191970" d="M298.7601,-108.5189C273.9917,-98.3201 240.595,-84.5685 218.5742,-75.5011"/>
<polygon fill="#191970" stroke="#191970" points="297.5413,-111.8021 308.1208,-112.3733 300.2066,-105.3293 297.5413,-111.8021"/>
</g>
<!-- Node24 -->
<g id="node5" class="node">
<title>Node24</title>
<g id="a_node5"><a xlink:href="spi_2spi_8h.html" target="_top" xlink:title="spi.h">
<polygon fill="#ffffff" stroke="#000000" points="243.5,-56.5 243.5,-75.5 281.5,-75.5 281.5,-56.5 243.5,-56.5"/>
<text text-anchor="middle" x="262.5" y="-63.5" font-family="Helvetica,sans-Serif" font-size="10.00" fill="#000000">spi.h</text>
</a>
</g>
</g>
<!-- Node20&#45;&gt;Node24 -->
<g id="edge4" class="edge">
<title>Node20&#45;&gt;Node24</title>
<path fill="none" stroke="#191970" d="M311.697,-105.928C299.6364,-96.1397 284.6286,-83.9595 274.3812,-75.6427"/>
<polygon fill="#191970" stroke="#191970" points="309.5109,-108.6614 319.4811,-112.2455 313.9221,-103.2262 309.5109,-108.6614"/>
</g>
<!-- Node26 -->
<g id="node7" class="node">
<title>Node26</title>
<g id="a_node7"><a xlink:href="spi__sync_8h.html" target="_top" xlink:title="spi_sync.h">
<polygon fill="#ffffff" stroke="#000000" points="299.5,-56.5 299.5,-75.5 363.5,-75.5 363.5,-56.5 299.5,-56.5"/>
<text text-anchor="middle" x="331.5" y="-63.5" font-family="Helvetica,sans-Serif" font-size="10.00" fill="#000000">spi_sync.h</text>
</a>
</g>
</g>
<!-- Node20&#45;&gt;Node26 -->
<g id="edge6" class="edge">
<title>Node20&#45;&gt;Node26</title>
<path fill="none" stroke="#191970" d="M331.5,-102.1575C331.5,-93.155 331.5,-82.9199 331.5,-75.6427"/>
<polygon fill="#191970" stroke="#191970" points="328.0001,-102.2455 331.5,-112.2455 335.0001,-102.2456 328.0001,-102.2455"/>
</g>
<!-- Node27 -->
<g id="node8" class="node">
<title>Node27</title>
<g id="a_node8"><a xlink:href="sram_8h.html" target="_top" xlink:title="sram.h">
<polygon fill="#ffffff" stroke="#000000" points="382,-56.5 382,-75.5 429,-75.5 429,-56.5 382,-56.5"/>
<text text-anchor="middle" x="405.5" y="-63.5" font-family="Helvetica,sans-Serif" font-size="10.00" fill="#000000">sram.h</text>
</a>
</g>
</g>
<!-- Node20&#45;&gt;Node27 -->
<g id="edge7" class="edge">
<title>Node20&#45;&gt;Node27</title>
<path fill="none" stroke="#191970" d="M352.3657,-106.2097C365.3625,-96.3743 381.6622,-84.0394 392.7579,-75.6427"/>
<polygon fill="#191970" stroke="#191970" points="350.2518,-103.4201 344.3898,-112.2455 354.476,-109.002 350.2518,-103.4201"/>
</g>
<!-- Node28 -->
<g id="node9" class="node">
<title>Node28</title>
<g id="a_node9"><a xlink:href="w5500_8h.html" target="_top" xlink:title="w5500.h">
<polygon fill="#ffffff" stroke="#000000" points="447,-56.5 447,-75.5 500,-75.5 500,-56.5 447,-56.5"/>
<text text-anchor="middle" x="473.5" y="-63.5" font-family="Helvetica,sans-Serif" font-size="10.00" fill="#000000">w5500.h</text>
</a>
</g>
</g>
<!-- Node20&#45;&gt;Node28 -->
<g id="edge8" class="edge">
<title>Node20&#45;&gt;Node28</title>
<path fill="none" stroke="#191970" d="M365.3415,-108.6541C391.2366,-98.4419 426.3138,-84.6086 449.4079,-75.5011"/>
<polygon fill="#191970" stroke="#191970" points="363.9293,-105.4486 355.9107,-112.3733 366.4975,-111.9605 363.9293,-105.4486"/>
</g>
<!-- Node29 -->
<g id="node10" class="node">
<title>Node29</title>
<g id="a_node10"><a xlink:href="w5500__socket_8h.html" target="_top" xlink:title="w5500_socket.h">
<polygon fill="#ffffff" stroke="#000000" points="518.5,-56.5 518.5,-75.5 606.5,-75.5 606.5,-56.5 518.5,-56.5"/>
<text text-anchor="middle" x="562.5" y="-63.5" font-family="Helvetica,sans-Serif" font-size="10.00" fill="#000000">w5500_socket.h</text>
</a>
</g>
</g>
<!-- Node20&#45;&gt;Node29 -->
<g id="edge9" class="edge">
<title>Node20&#45;&gt;Node29</title>
<path fill="none" stroke="#191970" d="M378.9607,-110.4944C421.4616,-100.1911 483.0635,-85.2573 522.9528,-75.5872"/>
<polygon fill="#191970" stroke="#191970" points="378.0221,-107.1204 369.1283,-112.878 379.6714,-113.9234 378.0221,-107.1204"/>
</g>
<!-- Node30 -->
<g id="node11" class="node">
<title>Node30</title>
<g id="a_node11"><a xlink:href="zero_8h.html" target="_top" xlink:title="zero.h">
<polygon fill="#ffffff" stroke="#000000" points="624.5,-56.5 624.5,-75.5 668.5,-75.5 668.5,-56.5 624.5,-56.5"/>
<text text-anchor="middle" x="646.5" y="-63.5" font-family="Helvetica,sans-Serif" font-size="10.00" fill="#000000">zero.h</text>
</a>
</g>
</g>
<!-- Node20&#45;&gt;Node30 -->
<g id="edge10" class="edge">
<title>Node20&#45;&gt;Node30</title>
<path fill="none" stroke="#191970" d="M379.19,-116.5179C435.9718,-109.4764 533.4421,-95.7603 615.5,-76 618.3589,-75.3116 621.3354,-74.4902 624.2638,-73.6183"/>
<polygon fill="#191970" stroke="#191970" points="378.5752,-113.0669 369.074,-117.755 379.425,-120.0152 378.5752,-113.0669"/>
</g>
<!-- Node25 -->
<g id="node6" class="node">
<title>Node25</title>
<g id="a_node6"><a xlink:href="avr_2spi_2spi_8h.html" target="_top" xlink:title="spi.h">
<polygon fill="#ffffff" stroke="#000000" points="243.5,-.5 243.5,-19.5 281.5,-19.5 281.5,-.5 243.5,-.5"/>
<text text-anchor="middle" x="262.5" y="-7.5" font-family="Helvetica,sans-Serif" font-size="10.00" fill="#000000">spi.h</text>
</a>
</g>
</g>
<!-- Node24&#45;&gt;Node25 -->
<g id="edge5" class="edge">
<title>Node24&#45;&gt;Node25</title>
<path fill="none" stroke="#191970" d="M262.5,-46.1575C262.5,-37.155 262.5,-26.9199 262.5,-19.6427"/>
<polygon fill="#191970" stroke="#191970" points="259.0001,-46.2455 262.5,-56.2455 266.0001,-46.2456 259.0001,-46.2455"/>
</g>
</g>
</svg>
