<?xml version="1.0" encoding="UTF-8" standalone="no"?>
<!DOCTYPE svg PUBLIC "-//W3C//DTD SVG 1.1//EN"
 "http://www.w3.org/Graphics/SVG/1.1/DTD/svg11.dtd">
<!-- Generated by graphviz version 10.0.1 (20240210.2158)
 -->
<!-- Title: zrtos_vfs_notify__start Pages: 1 -->
<svg width="744pt" height="154pt"
 viewBox="0.00 0.00 743.50 154.00" xmlns="http://www.w3.org/2000/svg" xmlns:xlink="http://www.w3.org/1999/xlink">
<g id="graph0" class="graph" transform="scale(1 1) rotate(0) translate(4 150)">
<title>zrtos_vfs_notify__start</title>
<!-- Node1 -->
<g id="Node000001" class="node">
<title>Node1</title>
<g id="a_Node000001"><a xlink:title=" ">
<polygon fill="#999999" stroke="#666666" points="112.75,-72 0,-72 0,-52 112.75,-52 112.75,-72"/>
<text text-anchor="middle" x="56.38" y="-58.5" font-family="Helvetica,sans-Serif" font-size="10.00">zrtos_vfs_notify__start</text>
</a>
</g>
</g>
<!-- Node2 -->
<g id="Node000002" class="node">
<title>Node2</title>
<g id="a_Node000002"><a xlink:href="error_8h.html#add13298163f63b7d37ed9f12d57e1a31" target="_top" xlink:title=" ">
<polygon fill="white" stroke="#666666" points="271.25,-110 148.75,-110 148.75,-90 271.25,-90 271.25,-110"/>
<text text-anchor="middle" x="210" y="-96.5" font-family="Helvetica,sans-Serif" font-size="10.00">zrtos_error__is_success</text>
</a>
</g>
</g>
<!-- Node1&#45;&gt;Node2 -->
<g id="edge1_Node000001_Node000002" class="edge">
<title>Node1&#45;&gt;Node2</title>
<g id="a_edge1_Node000001_Node000002"><a xlink:title=" ">
<path fill="none" stroke="#63b8ff" d="M99.21,-72.48C116.86,-76.91 137.61,-82.11 156.29,-86.79"/>
<polygon fill="#63b8ff" stroke="#63b8ff" points="155.28,-90.15 165.83,-89.18 156.99,-83.36 155.28,-90.15"/>
</a>
</g>
</g>
<!-- Node3 -->
<g id="Node000003" class="node">
<title>Node3</title>
<g id="a_Node000003"><a xlink:href="vfs__fd_8h.html#a8804d81bd731c8b3df5763a432c1ebdd" target="_top" xlink:title=" ">
<polygon fill="white" stroke="#666666" points="261.88,-72 158.12,-72 158.12,-52 261.88,-52 261.88,-72"/>
<text text-anchor="middle" x="210" y="-58.5" font-family="Helvetica,sans-Serif" font-size="10.00">zrtos_vfs_fd__select</text>
</a>
</g>
</g>
<!-- Node1&#45;&gt;Node3 -->
<g id="edge2_Node000001_Node000003" class="edge">
<title>Node1&#45;&gt;Node3</title>
<g id="a_edge2_Node000001_Node000003"><a xlink:title=" ">
<path fill="none" stroke="#63b8ff" d="M112.97,-62C123.89,-62 135.41,-62 146.53,-62"/>
<polygon fill="#63b8ff" stroke="#63b8ff" points="146.42,-65.5 156.42,-62 146.42,-58.5 146.42,-65.5"/>
</a>
</g>
</g>
<!-- Node9 -->
<g id="Node000009" class="node">
<title>Node9</title>
<g id="a_Node000009"><a xlink:href="vfs__fd_8h.html#a71a8f21157553c2313c2395e516d962e" target="_top" xlink:title=" ">
<polygon fill="white" stroke="#666666" points="268.62,-33 151.38,-33 151.38,-13 268.62,-13 268.62,-33"/>
<text text-anchor="middle" x="210" y="-19.5" font-family="Helvetica,sans-Serif" font-size="10.00">zrtos_vfs_fd_set__copy</text>
</a>
</g>
</g>
<!-- Node1&#45;&gt;Node9 -->
<g id="edge8_Node000001_Node000009" class="edge">
<title>Node1&#45;&gt;Node9</title>
<g id="a_edge8_Node000001_Node000009"><a xlink:title=" ">
<path fill="none" stroke="#63b8ff" d="M98.01,-51.55C116.19,-46.87 137.85,-41.3 157.18,-36.33"/>
<polygon fill="#63b8ff" stroke="#63b8ff" points="157.98,-39.74 166.79,-33.86 156.23,-32.96 157.98,-39.74"/>
</a>
</g>
</g>
<!-- Node4 -->
<g id="Node000004" class="node">
<title>Node4</title>
<g id="a_Node000004"><a xlink:href="bitfield_8h.html#a31e4cbdaf65df7464b28c25d1780eb84" target="_top" xlink:title=" ">
<polygon fill="white" stroke="#666666" points="414,-146 319.25,-146 319.25,-126 414,-126 414,-146"/>
<text text-anchor="middle" x="366.62" y="-132.5" font-family="Helvetica,sans-Serif" font-size="10.00">zrtos_bitfield__set</text>
</a>
</g>
</g>
<!-- Node3&#45;&gt;Node4 -->
<g id="edge3_Node000003_Node000004" class="edge">
<title>Node3&#45;&gt;Node4</title>
<g id="a_edge3_Node000003_Node000004"><a xlink:title=" ">
<path fill="none" stroke="#63b8ff" d="M253.3,-72.47C259.54,-74.82 265.72,-77.64 271.25,-81 290.59,-92.74 287.96,-105.17 307.25,-117 309.55,-118.41 311.97,-119.73 314.45,-120.96"/>
<polygon fill="#63b8ff" stroke="#63b8ff" points="313,-124.14 323.57,-124.92 315.79,-117.72 313,-124.14"/>
</a>
</g>
</g>
<!-- Node5 -->
<g id="Node000005" class="node">
<title>Node5</title>
<g id="a_Node000005"><a xlink:href="vfs__fd_8h.html#adf388ba2df2bcae398b2a985609d364e" target="_top" xlink:title=" ">
<polygon fill="white" stroke="#666666" points="425.25,-108 308,-108 308,-88 425.25,-88 425.25,-108"/>
<text text-anchor="middle" x="366.62" y="-94.5" font-family="Helvetica,sans-Serif" font-size="10.00">zrtos_vfs_fd__can_read</text>
</a>
</g>
</g>
<!-- Node3&#45;&gt;Node5 -->
<g id="edge4_Node000003_Node000005" class="edge">
<title>Node3&#45;&gt;Node5</title>
<g id="a_edge4_Node000003_Node000005"><a xlink:title=" ">
<path fill="none" stroke="#63b8ff" d="M255.72,-72.41C272.56,-76.33 291.92,-80.84 309.65,-84.97"/>
<polygon fill="#63b8ff" stroke="#63b8ff" points="308.73,-88.35 319.26,-87.21 310.31,-81.53 308.73,-88.35"/>
</a>
</g>
</g>
<!-- Node7 -->
<g id="Node000007" class="node">
<title>Node7</title>
<g id="a_Node000007"><a xlink:href="vfs__fd_8h.html#a0c49dac81e96abdc11ac15deda3da529" target="_top" xlink:title=" ">
<polygon fill="white" stroke="#666666" points="426,-70 307.25,-70 307.25,-50 426,-50 426,-70"/>
<text text-anchor="middle" x="366.62" y="-56.5" font-family="Helvetica,sans-Serif" font-size="10.00">zrtos_vfs_fd__can_write</text>
</a>
</g>
</g>
<!-- Node3&#45;&gt;Node7 -->
<g id="edge6_Node000003_Node000007" class="edge">
<title>Node3&#45;&gt;Node7</title>
<g id="a_edge6_Node000003_Node000007"><a xlink:title=" ">
<path fill="none" stroke="#63b8ff" d="M262.06,-61.34C272.81,-61.2 284.34,-61.05 295.65,-60.91"/>
<polygon fill="#63b8ff" stroke="#63b8ff" points="295.38,-64.41 305.34,-60.78 295.29,-57.41 295.38,-64.41"/>
</a>
</g>
</g>
<!-- Node6 -->
<g id="Node000006" class="node">
<title>Node6</title>
<g id="a_Node000006"><a xlink:href="vfs__file_8h.html#ac71e6005c8d8d45e13ed13c7e35e525c" target="_top" xlink:title=" ">
<polygon fill="white" stroke="#666666" points="583.75,-114 462,-114 462,-94 583.75,-94 583.75,-114"/>
<text text-anchor="middle" x="522.88" y="-100.5" font-family="Helvetica,sans-Serif" font-size="10.00">zrtos_vfs_file__can_read</text>
</a>
</g>
</g>
<!-- Node5&#45;&gt;Node6 -->
<g id="edge5_Node000005_Node000006" class="edge">
<title>Node5&#45;&gt;Node6</title>
<g id="a_edge5_Node000005_Node000006"><a xlink:title=" ">
<path fill="none" stroke="#63b8ff" d="M425.5,-100.25C433.61,-100.57 442.03,-100.89 450.35,-101.22"/>
<polygon fill="#63b8ff" stroke="#63b8ff" points="449.97,-104.71 460.1,-101.6 450.25,-97.71 449.97,-104.71"/>
</a>
</g>
</g>
<!-- Node8 -->
<g id="Node000008" class="node">
<title>Node8</title>
<g id="a_Node000008"><a xlink:href="vfs__file_8h.html#a891c512b98778579fb6487504a6cb058" target="_top" xlink:title=" ">
<polygon fill="white" stroke="#666666" points="571.75,-76 474,-76 474,-44 571.75,-44 571.75,-76"/>
<text text-anchor="start" x="482" y="-62.5" font-family="Helvetica,sans-Serif" font-size="10.00">zrtos_vfs_file__can</text>
<text text-anchor="middle" x="522.88" y="-50.5" font-family="Helvetica,sans-Serif" font-size="10.00">_write</text>
</a>
</g>
</g>
<!-- Node7&#45;&gt;Node8 -->
<g id="edge7_Node000007_Node000008" class="edge">
<title>Node7&#45;&gt;Node8</title>
<g id="a_edge7_Node000007_Node000008"><a xlink:title=" ">
<path fill="none" stroke="#63b8ff" d="M426.38,-60C438.25,-60 450.74,-60 462.63,-60"/>
<polygon fill="#63b8ff" stroke="#63b8ff" points="462.29,-63.5 472.29,-60 462.29,-56.5 462.29,-63.5"/>
</a>
</g>
</g>
<!-- Node10 -->
<g id="Node000010" class="node">
<title>Node10</title>
<g id="a_Node000010"><a xlink:href="bitfield_8h.html#a35443b315a5b7cf5939dca9de8582dc2" target="_top" xlink:title=" ">
<polygon fill="white" stroke="#666666" points="417.75,-30 315.5,-30 315.5,-10 417.75,-10 417.75,-30"/>
<text text-anchor="middle" x="366.62" y="-16.5" font-family="Helvetica,sans-Serif" font-size="10.00">zrtos_bitfield__copy</text>
</a>
</g>
</g>
<!-- Node9&#45;&gt;Node10 -->
<g id="edge9_Node000009_Node000010" class="edge">
<title>Node9&#45;&gt;Node10</title>
<g id="a_edge9_Node000009_Node000010"><a xlink:title=" ">
<path fill="none" stroke="#63b8ff" d="M269.02,-21.87C280.46,-21.65 292.5,-21.42 304.05,-21.19"/>
<polygon fill="#63b8ff" stroke="#63b8ff" points="303.96,-24.7 313.89,-21 303.82,-17.7 303.96,-24.7"/>
</a>
</g>
</g>
<!-- Node11 -->
<g id="Node000011" class="node">
<title>Node11</title>
<g id="a_Node000011"><a xlink:href="mem_8h.html#ac36c32ce5585de38fd4b77b2a322ac78" target="_top" xlink:title=" ">
<polygon fill="white" stroke="#666666" points="568.38,-26 477.38,-26 477.38,-6 568.38,-6 568.38,-26"/>
<text text-anchor="middle" x="522.88" y="-12.5" font-family="Helvetica,sans-Serif" font-size="10.00">zrtos_mem__cpy</text>
</a>
</g>
</g>
<!-- Node10&#45;&gt;Node11 -->
<g id="edge10_Node000010_Node000011" class="edge">
<title>Node10&#45;&gt;Node11</title>
<g id="a_edge10_Node000010_Node000011"><a xlink:title=" ">
<path fill="none" stroke="#63b8ff" d="M418.13,-18.69C433.4,-18.29 450.26,-17.86 465.87,-17.45"/>
<polygon fill="#63b8ff" stroke="#63b8ff" points="465.56,-20.96 475.46,-17.2 465.37,-13.96 465.56,-20.96"/>
</a>
</g>
</g>
<!-- Node12 -->
<g id="Node000012" class="node">
<title>Node12</title>
<g id="a_Node000012"><a xlink:href="mem_8h.html#a9054cc3824c6ffdaf4ed24fde2f80f32" target="_top" xlink:title=" ">
<polygon fill="white" stroke="#666666" points="735.5,-32 619.75,-32 619.75,0 735.5,0 735.5,-32"/>
<text text-anchor="start" x="627.75" y="-18.5" font-family="Helvetica,sans-Serif" font-size="10.00">zrtos_mem__move_left</text>
<text text-anchor="middle" x="677.62" y="-6.5" font-family="Helvetica,sans-Serif" font-size="10.00">_overlapping</text>
</a>
</g>
</g>
<!-- Node11&#45;&gt;Node12 -->
<g id="edge11_Node000011_Node000012" class="edge">
<title>Node11&#45;&gt;Node12</title>
<g id="a_edge11_Node000011_Node000012"><a xlink:title=" ">
<path fill="none" stroke="#63b8ff" d="M568.47,-16C580.92,-16 594.74,-16 608.23,-16"/>
<polygon fill="#63b8ff" stroke="#63b8ff" points="607.93,-19.5 617.93,-16 607.93,-12.5 607.93,-19.5"/>
</a>
</g>
</g>
</g>
</svg>
