<?xml version="1.0" encoding="UTF-8" standalone="no"?>
<!DOCTYPE svg PUBLIC "-//W3C//DTD SVG 1.1//EN"
 "http://www.w3.org/Graphics/SVG/1.1/DTD/svg11.dtd">
<!-- Generated by graphviz version 10.0.1 (20240210.2158)
 -->
<!-- Title: zrtos_vfs_fd__open Pages: 1 -->
<svg width="1013pt" height="282pt"
 viewBox="0.00 0.00 1013.25 282.00" xmlns="http://www.w3.org/2000/svg" xmlns:xlink="http://www.w3.org/1999/xlink">
<g id="graph0" class="graph" transform="scale(1 1) rotate(0) translate(4 278)">
<title>zrtos_vfs_fd__open</title>
<!-- Node1 -->
<g id="Node000001" class="node">
<title>Node1</title>
<g id="a_Node000001"><a xlink:title=" ">
<polygon fill="#999999" stroke="#666666" points="98.5,-145 0,-145 0,-125 98.5,-125 98.5,-145"/>
<text text-anchor="middle" x="49.25" y="-131.5" font-family="Helvetica,sans-Serif" font-size="10.00">zrtos_vfs_fd__open</text>
</a>
</g>
</g>
<!-- Node2 -->
<g id="Node000002" class="node">
<title>Node2</title>
<g id="a_Node000002"><a xlink:href="vfs__file_8h.html#a927d7e3ca83d067440360207ba94b0fe" target="_top" xlink:title=" ">
<polygon fill="white" stroke="#666666" points="237.5,-145 134.5,-145 134.5,-125 237.5,-125 237.5,-145"/>
<text text-anchor="middle" x="186" y="-131.5" font-family="Helvetica,sans-Serif" font-size="10.00">zrtos_vfs_file__open</text>
</a>
</g>
</g>
<!-- Node1&#45;&gt;Node2 -->
<g id="edge1_Node000001_Node000002" class="edge">
<title>Node1&#45;&gt;Node2</title>
<g id="a_edge1_Node000001_Node000002"><a xlink:title=" ">
<path fill="none" stroke="#63b8ff" d="M98.9,-135C106.69,-135 114.84,-135 122.89,-135"/>
<polygon fill="#63b8ff" stroke="#63b8ff" points="122.64,-138.5 132.64,-135 122.64,-131.5 122.64,-138.5"/>
</a>
</g>
</g>
<!-- Node3 -->
<g id="Node000003" class="node">
<title>Node3</title>
<g id="a_Node000003"><a xlink:href="error_8h.html#add13298163f63b7d37ed9f12d57e1a31" target="_top" xlink:title=" ">
<polygon fill="white" stroke="#666666" points="397.5,-164 275,-164 275,-144 397.5,-144 397.5,-164"/>
<text text-anchor="middle" x="336.25" y="-150.5" font-family="Helvetica,sans-Serif" font-size="10.00">zrtos_error__is_success</text>
</a>
</g>
</g>
<!-- Node2&#45;&gt;Node3 -->
<g id="edge2_Node000002_Node000003" class="edge">
<title>Node2&#45;&gt;Node3</title>
<g id="a_edge2_Node000002_Node000003"><a xlink:title=" ">
<path fill="none" stroke="#63b8ff" d="M237.6,-141.49C245.89,-142.55 254.61,-143.66 263.28,-144.78"/>
<polygon fill="#63b8ff" stroke="#63b8ff" points="262.77,-148.24 273.13,-146.04 263.66,-141.3 262.77,-148.24"/>
</a>
</g>
</g>
<!-- Node4 -->
<g id="Node000004" class="node">
<title>Node4</title>
<g id="a_Node000004"><a xlink:href="vfs__dentry_8h.html#a25c3d8504af7c99c7fe0705919e4bba6" target="_top" xlink:title=" ">
<polygon fill="white" stroke="#666666" points="399,-126 273.5,-126 273.5,-106 399,-106 399,-126"/>
<text text-anchor="middle" x="336.25" y="-112.5" font-family="Helvetica,sans-Serif" font-size="10.00">zrtos_vfs_dentry__lookup</text>
</a>
</g>
</g>
<!-- Node2&#45;&gt;Node4 -->
<g id="edge3_Node000002_Node000004" class="edge">
<title>Node2&#45;&gt;Node4</title>
<g id="a_edge3_Node000002_Node000004"><a xlink:title=" ">
<path fill="none" stroke="#63b8ff" d="M237.6,-128.51C245.45,-127.51 253.68,-126.45 261.9,-125.4"/>
<polygon fill="#63b8ff" stroke="#63b8ff" points="262.09,-128.9 271.57,-124.16 261.2,-121.96 262.09,-128.9"/>
</a>
</g>
</g>
<!-- Node5 -->
<g id="Node000005" class="node">
<title>Node5</title>
<g id="a_Node000005"><a xlink:href="str_8h.html#a1952f0c5784b3276bc6e0439f23d3fd0" target="_top" xlink:title=" ">
<polygon fill="white" stroke="#666666" points="541,-236 454.5,-236 454.5,-216 541,-216 541,-236"/>
<text text-anchor="middle" x="497.75" y="-222.5" font-family="Helvetica,sans-Serif" font-size="10.00">zrtos_str__tok_r</text>
</a>
</g>
</g>
<!-- Node4&#45;&gt;Node5 -->
<g id="edge4_Node000004_Node000005" class="edge">
<title>Node4&#45;&gt;Node5</title>
<g id="a_edge4_Node000004_Node000005"><a xlink:title=" ">
<path fill="none" stroke="#63b8ff" d="M383.86,-126.39C389.25,-128.71 394.44,-131.54 399,-135 422.57,-152.88 413.5,-170.67 435,-191 442.96,-198.52 452.83,-205.04 462.33,-210.35"/>
<polygon fill="#63b8ff" stroke="#63b8ff" points="460.56,-213.37 471.04,-214.91 463.81,-207.17 460.56,-213.37"/>
</a>
</g>
</g>
<!-- Node8 -->
<g id="Node000008" class="node">
<title>Node8</title>
<g id="a_Node000008"><a xlink:href="vfs__dentry_8h.html#a911f5eb8673c68fe4147f56a21062ed7" target="_top" xlink:title=" ">
<polygon fill="white" stroke="#666666" points="556.75,-182 438.75,-182 438.75,-150 556.75,-150 556.75,-182"/>
<text text-anchor="start" x="446.75" y="-168.5" font-family="Helvetica,sans-Serif" font-size="10.00">zrtos_vfs_dentry__each</text>
<text text-anchor="middle" x="497.75" y="-156.5" font-family="Helvetica,sans-Serif" font-size="10.00">_child</text>
</a>
</g>
</g>
<!-- Node4&#45;&gt;Node8 -->
<g id="edge7_Node000004_Node000008" class="edge">
<title>Node4&#45;&gt;Node8</title>
<g id="a_edge7_Node000004_Node000008"><a xlink:title=" ">
<path fill="none" stroke="#63b8ff" d="M371.24,-126.4C380.27,-129.18 390.01,-132.19 399,-135 410.45,-138.58 422.64,-142.42 434.4,-146.14"/>
<polygon fill="#63b8ff" stroke="#63b8ff" points="433,-149.37 443.59,-149.05 435.11,-142.69 433,-149.37"/>
</a>
</g>
</g>
<!-- Node13 -->
<g id="Node000013" class="node">
<title>Node13</title>
<g id="a_Node000013"><a xlink:href="vfs__dentry_8h.html#a4d808bbfc2c1dfabc22e3d6fa45412c1" target="_top" xlink:title=" ">
<polygon fill="white" stroke="#666666" points="556.75,-132 438.75,-132 438.75,-100 556.75,-100 556.75,-132"/>
<text text-anchor="start" x="446.75" y="-118.5" font-family="Helvetica,sans-Serif" font-size="10.00">zrtos_vfs_dentry__each</text>
<text text-anchor="middle" x="497.75" y="-106.5" font-family="Helvetica,sans-Serif" font-size="10.00">_child_filter_name_cb</text>
</a>
</g>
</g>
<!-- Node4&#45;&gt;Node13 -->
<g id="edge12_Node000004_Node000013" class="edge">
<title>Node4&#45;&gt;Node13</title>
<g id="a_edge12_Node000004_Node000013"><a xlink:title=" ">
<path fill="none" stroke="#63b8ff" d="M399.37,-116C408.41,-116 417.77,-116 426.95,-116"/>
<polygon fill="#63b8ff" stroke="#63b8ff" points="426.94,-119.5 436.94,-116 426.94,-112.5 426.94,-119.5"/>
</a>
</g>
</g>
<!-- Node18 -->
<g id="Node000018" class="node">
<title>Node18</title>
<g id="a_Node000018"><a xlink:href="vfs__dentry_8h.html#a4ece9a5dc55701c2c03fcc470baf49be" target="_top" xlink:title=" ">
<polygon fill="white" stroke="#666666" points="550,-82 445.5,-82 445.5,-50 550,-50 550,-82"/>
<text text-anchor="start" x="453.5" y="-68.5" font-family="Helvetica,sans-Serif" font-size="10.00">zrtos_vfs_dentry__is</text>
<text text-anchor="middle" x="497.75" y="-56.5" font-family="Helvetica,sans-Serif" font-size="10.00">_filesystem</text>
</a>
</g>
</g>
<!-- Node4&#45;&gt;Node18 -->
<g id="edge17_Node000004_Node000018" class="edge">
<title>Node4&#45;&gt;Node18</title>
<g id="a_edge17_Node000004_Node000018"><a xlink:title=" ">
<path fill="none" stroke="#63b8ff" d="M370.69,-105.52C389.13,-99.74 412.63,-92.37 434.33,-85.57"/>
<polygon fill="#63b8ff" stroke="#63b8ff" points="435.2,-88.96 443.7,-82.63 433.11,-82.28 435.2,-88.96"/>
</a>
</g>
</g>
<!-- Node19 -->
<g id="Node000019" class="node">
<title>Node19</title>
<g id="a_Node000019"><a xlink:href="vfs__dentry_8h.html#a835709f315151b37e82e35da258094d8" target="_top" xlink:title=" ">
<polygon fill="white" stroke="#666666" points="560.5,-32 435,-32 435,0 560.5,0 560.5,-32"/>
<text text-anchor="start" x="443" y="-18.5" font-family="Helvetica,sans-Serif" font-size="10.00">zrtos_vfs_dentry__lookup</text>
<text text-anchor="middle" x="497.75" y="-6.5" font-family="Helvetica,sans-Serif" font-size="10.00">_callback_cb</text>
</a>
</g>
</g>
<!-- Node4&#45;&gt;Node19 -->
<g id="edge18_Node000004_Node000019" class="edge">
<title>Node4&#45;&gt;Node19</title>
<g id="a_edge18_Node000004_Node000019"><a xlink:title=" ">
<path fill="none" stroke="#63b8ff" d="M348.56,-105.67C366.06,-90.08 401.21,-60.33 435,-41 437.16,-39.76 439.4,-38.56 441.68,-37.39"/>
<polygon fill="#63b8ff" stroke="#63b8ff" points="443.02,-40.63 450.52,-33.14 439.99,-34.32 443.02,-40.63"/>
</a>
</g>
</g>
<!-- Node6 -->
<g id="Node000006" class="node">
<title>Node6</title>
<g id="a_Node000006"><a xlink:href="str_8h.html#a94f2645c0c594c77acacede9a145ff11" target="_top" xlink:title=" ">
<polygon fill="white" stroke="#666666" points="698.38,-274 612.62,-274 612.62,-254 698.38,-254 698.38,-274"/>
<text text-anchor="middle" x="655.5" y="-260.5" font-family="Helvetica,sans-Serif" font-size="10.00">zrtos_str__cspn</text>
</a>
</g>
</g>
<!-- Node5&#45;&gt;Node6 -->
<g id="edge5_Node000005_Node000006" class="edge">
<title>Node5&#45;&gt;Node6</title>
<g id="a_edge5_Node000005_Node000006"><a xlink:title=" ">
<path fill="none" stroke="#63b8ff" d="M541.31,-236.38C559.84,-240.91 581.76,-246.25 601.35,-251.03"/>
<polygon fill="#63b8ff" stroke="#63b8ff" points="600.25,-254.37 610.79,-253.34 601.91,-247.57 600.25,-254.37"/>
</a>
</g>
</g>
<!-- Node7 -->
<g id="Node000007" class="node">
<title>Node7</title>
<g id="a_Node000007"><a xlink:href="str_8h.html#a449cee93b0e54bd698d6c14d8ad83957" target="_top" xlink:title=" ">
<polygon fill="white" stroke="#666666" points="695.75,-236 615.25,-236 615.25,-216 695.75,-216 695.75,-236"/>
<text text-anchor="middle" x="655.5" y="-222.5" font-family="Helvetica,sans-Serif" font-size="10.00">zrtos_str__spn</text>
</a>
</g>
</g>
<!-- Node5&#45;&gt;Node7 -->
<g id="edge6_Node000005_Node000007" class="edge">
<title>Node5&#45;&gt;Node7</title>
<g id="a_edge6_Node000005_Node000007"><a xlink:title=" ">
<path fill="none" stroke="#63b8ff" d="M541.31,-226C560.51,-226 583.34,-226 603.45,-226"/>
<polygon fill="#63b8ff" stroke="#63b8ff" points="603.42,-229.5 613.42,-226 603.42,-222.5 603.42,-229.5"/>
</a>
</g>
</g>
<!-- Node9 -->
<g id="Node000009" class="node">
<title>Node9</title>
<g id="a_Node000009"><a xlink:href="clist_8h.html#a7cc31f994820f2b59d07e96ab9dcce0b" target="_top" xlink:title=" ">
<polygon fill="white" stroke="#666666" points="701.75,-198 609.25,-198 609.25,-178 701.75,-178 701.75,-198"/>
<text text-anchor="middle" x="655.5" y="-184.5" font-family="Helvetica,sans-Serif" font-size="10.00">zrtos_clist__each</text>
</a>
</g>
</g>
<!-- Node8&#45;&gt;Node9 -->
<g id="edge8_Node000008_Node000009" class="edge">
<title>Node8&#45;&gt;Node9</title>
<g id="a_edge8_Node000008_Node000009"><a xlink:title=" ">
<path fill="none" stroke="#63b8ff" d="M557.19,-174.25C570.41,-176.12 584.42,-178.1 597.58,-179.96"/>
<polygon fill="#63b8ff" stroke="#63b8ff" points="596.99,-183.41 607.38,-181.34 597.97,-176.48 596.99,-183.41"/>
</a>
</g>
</g>
<!-- Node12 -->
<g id="Node000012" class="node">
<title>Node12</title>
<g id="a_Node000012"><a xlink:href="vfs__dentry_8h.html#a05f11e0155e29bdfa726f3407120a19d" target="_top" xlink:title=" ">
<polygon fill="white" stroke="#666666" points="714.5,-160 596.5,-160 596.5,-128 714.5,-128 714.5,-160"/>
<text text-anchor="start" x="604.5" y="-146.5" font-family="Helvetica,sans-Serif" font-size="10.00">zrtos_vfs_dentry__each</text>
<text text-anchor="middle" x="655.5" y="-134.5" font-family="Helvetica,sans-Serif" font-size="10.00">_child_cb</text>
</a>
</g>
</g>
<!-- Node8&#45;&gt;Node12 -->
<g id="edge11_Node000008_Node000012" class="edge">
<title>Node8&#45;&gt;Node12</title>
<g id="a_edge11_Node000008_Node000012"><a xlink:title=" ">
<path fill="none" stroke="#63b8ff" d="M557.19,-157.75C566.27,-156.46 575.73,-155.13 585.03,-153.81"/>
<polygon fill="#63b8ff" stroke="#63b8ff" points="585.34,-157.3 594.75,-152.44 584.36,-150.37 585.34,-157.3"/>
</a>
</g>
</g>
<!-- Node10 -->
<g id="Node000010" class="node">
<title>Node10</title>
<g id="a_Node000010"><a xlink:href="clist_8h.html#acab2b5c771ea45635a9621a9dc1382d4" target="_top" xlink:title=" ">
<polygon fill="white" stroke="#666666" points="859.5,-229 752.75,-229 752.75,-209 859.5,-209 859.5,-229"/>
<text text-anchor="middle" x="806.12" y="-215.5" font-family="Helvetica,sans-Serif" font-size="10.00">zrtos_clist__get_root</text>
</a>
</g>
</g>
<!-- Node9&#45;&gt;Node10 -->
<g id="edge9_Node000009_Node000010" class="edge">
<title>Node9&#45;&gt;Node10</title>
<g id="a_edge9_Node000009_Node000010"><a xlink:title=" ">
<path fill="none" stroke="#63b8ff" d="M701.9,-197.47C715.1,-200.22 729.75,-203.28 743.76,-206.2"/>
<polygon fill="#63b8ff" stroke="#63b8ff" points="742.83,-209.58 753.34,-208.2 744.26,-202.73 742.83,-209.58"/>
</a>
</g>
</g>
<!-- Node11 -->
<g id="Node000011" class="node">
<title>Node11</title>
<g id="a_Node000011"><a xlink:href="clist_8h.html#aec8fbabbd0ff3c556e46b59eb872d43c" target="_top" xlink:title=" ">
<polygon fill="white" stroke="#666666" points="861.75,-191 750.5,-191 750.5,-159 861.75,-159 861.75,-191"/>
<text text-anchor="start" x="758.5" y="-177.5" font-family="Helvetica,sans-Serif" font-size="10.00">zrtos_clist_node__get</text>
<text text-anchor="middle" x="806.12" y="-165.5" font-family="Helvetica,sans-Serif" font-size="10.00">_next_node</text>
</a>
</g>
</g>
<!-- Node9&#45;&gt;Node11 -->
<g id="edge10_Node000009_Node000011" class="edge">
<title>Node9&#45;&gt;Node11</title>
<g id="a_edge10_Node000009_Node000011"><a xlink:title=" ">
<path fill="none" stroke="#63b8ff" d="M701.9,-184.03C713.53,-183.01 726.29,-181.9 738.74,-180.81"/>
<polygon fill="#63b8ff" stroke="#63b8ff" points="738.89,-184.31 748.55,-179.95 738.28,-177.33 738.89,-184.31"/>
</a>
</g>
</g>
<!-- Node14 -->
<g id="Node000014" class="node">
<title>Node14</title>
<g id="a_Node000014"><a xlink:href="str_8h.html#a7e9860a6921e03fd013bbb20bf4a88b3" target="_top" xlink:title=" ">
<polygon fill="white" stroke="#666666" points="697.25,-110 613.75,-110 613.75,-90 697.25,-90 697.25,-110"/>
<text text-anchor="middle" x="655.5" y="-96.5" font-family="Helvetica,sans-Serif" font-size="10.00">zrtos_str__cmp</text>
</a>
</g>
</g>
<!-- Node13&#45;&gt;Node14 -->
<g id="edge13_Node000013_Node000014" class="edge">
<title>Node13&#45;&gt;Node14</title>
<g id="a_edge13_Node000013_Node000014"><a xlink:title=" ">
<path fill="none" stroke="#63b8ff" d="M557.19,-110C572.04,-108.47 587.89,-106.84 602.4,-105.35"/>
<polygon fill="#63b8ff" stroke="#63b8ff" points="602.61,-108.85 612.2,-104.35 601.89,-101.89 602.61,-108.85"/>
</a>
</g>
</g>
<!-- Node15 -->
<g id="Node000015" class="node">
<title>Node15</title>
<g id="a_Node000015"><a xlink:href="mem_8h.html#abc92c0f931688ddf8da31714fff6a8d3" target="_top" xlink:title=" ">
<polygon fill="white" stroke="#666666" points="853.12,-129 759.12,-129 759.12,-109 853.12,-109 853.12,-129"/>
<text text-anchor="middle" x="806.12" y="-115.5" font-family="Helvetica,sans-Serif" font-size="10.00">zrtos_mem__cmp</text>
</a>
</g>
</g>
<!-- Node14&#45;&gt;Node15 -->
<g id="edge14_Node000014_Node000015" class="edge">
<title>Node14&#45;&gt;Node15</title>
<g id="a_edge14_Node000014_Node000015"><a xlink:title=" ">
<path fill="none" stroke="#63b8ff" d="M697.51,-105.24C712.93,-107.21 730.78,-109.5 747.44,-111.63"/>
<polygon fill="#63b8ff" stroke="#63b8ff" points="746.89,-115.08 757.25,-112.88 747.77,-108.14 746.89,-115.08"/>
</a>
</g>
</g>
<!-- Node16 -->
<g id="Node000016" class="node">
<title>Node16</title>
<g id="a_Node000016"><a xlink:href="str_8h.html#a0bbbf024b181a2c7d5ec9056efb84743" target="_top" xlink:title=" ">
<polygon fill="white" stroke="#666666" points="844.88,-91 767.38,-91 767.38,-71 844.88,-71 844.88,-91"/>
<text text-anchor="middle" x="806.12" y="-77.5" font-family="Helvetica,sans-Serif" font-size="10.00">zrtos_str__len</text>
</a>
</g>
</g>
<!-- Node14&#45;&gt;Node16 -->
<g id="edge15_Node000014_Node000016" class="edge">
<title>Node14&#45;&gt;Node16</title>
<g id="a_edge15_Node000014_Node000016"><a xlink:title=" ">
<path fill="none" stroke="#63b8ff" d="M697.51,-94.76C715.51,-92.46 736.8,-89.73 755.67,-87.32"/>
<polygon fill="#63b8ff" stroke="#63b8ff" points="756.08,-90.8 765.56,-86.06 755.19,-83.85 756.08,-90.8"/>
</a>
</g>
</g>
<!-- Node17 -->
<g id="Node000017" class="node">
<title>Node17</title>
<g id="a_Node000017"><a xlink:href="types_8h.html#adbc4238237e656eb247fd49ffbfb1a6d" target="_top" xlink:title=" ">
<polygon fill="white" stroke="#666666" points="1005.25,-97 897.75,-97 897.75,-65 1005.25,-65 1005.25,-97"/>
<text text-anchor="start" x="905.75" y="-83.5" font-family="Helvetica,sans-Serif" font-size="10.00">zrtos_types__ptr_get</text>
<text text-anchor="middle" x="951.5" y="-71.5" font-family="Helvetica,sans-Serif" font-size="10.00">_byte_distance</text>
</a>
</g>
</g>
<!-- Node16&#45;&gt;Node17 -->
<g id="edge16_Node000016_Node000017" class="edge">
<title>Node16&#45;&gt;Node17</title>
<g id="a_edge16_Node000016_Node000017"><a xlink:title=" ">
<path fill="none" stroke="#63b8ff" d="M845.17,-81C857.8,-81 872.24,-81 886.29,-81"/>
<polygon fill="#63b8ff" stroke="#63b8ff" points="885.92,-84.5 895.92,-81 885.92,-77.5 885.92,-84.5"/>
</a>
</g>
</g>
</g>
</svg>
