<?xml version="1.0" encoding="UTF-8" standalone="no"?>
<!DOCTYPE svg PUBLIC "-//W3C//DTD SVG 1.1//EN"
 "http://www.w3.org/Graphics/SVG/1.1/DTD/svg11.dtd">
<!-- Generated by graphviz version 10.0.1 (20240210.2158)
 -->
<!-- Title: zrtos_vfs_notify__init Pages: 1 -->
<svg width="801pt" height="47pt"
 viewBox="0.00 0.00 800.75 47.00" xmlns="http://www.w3.org/2000/svg" xmlns:xlink="http://www.w3.org/1999/xlink">
<g id="graph0" class="graph" transform="scale(1 1) rotate(0) translate(4 43)">
<title>zrtos_vfs_notify__init</title>
<!-- Node1 -->
<g id="Node000001" class="node">
<title>Node1</title>
<g id="a_Node000001"><a xlink:title=" ">
<polygon fill="#999999" stroke="#666666" points="106,-39 0,-39 0,-19 106,-19 106,-39"/>
<text text-anchor="middle" x="53" y="-25.5" font-family="Helvetica,sans-Serif" font-size="10.00">zrtos_vfs_notify__init</text>
</a>
</g>
</g>
<!-- Node2 -->
<g id="Node000002" class="node">
<title>Node2</title>
<g id="a_Node000002"><a xlink:href="mem_8h.html#a419d9f9e6d69f2577fdce04166a8b8a7" target="_top" xlink:title=" ">
<polygon fill="white" stroke="#666666" points="668,-39 574,-39 574,-19 668,-19 668,-39"/>
<text text-anchor="middle" x="621" y="-25.5" font-family="Helvetica,sans-Serif" font-size="10.00">zrtos_mem__zero</text>
</a>
</g>
</g>
<!-- Node1&#45;&gt;Node2 -->
<g id="edge1_Node000001_Node000002" class="edge">
<title>Node1&#45;&gt;Node2</title>
<g id="a_edge1_Node000001_Node000002"><a xlink:title=" ">
<path fill="none" stroke="#63b8ff" d="M106.49,-29C212.62,-29 452.02,-29 562.34,-29"/>
<polygon fill="#63b8ff" stroke="#63b8ff" points="562.04,-32.5 572.04,-29 562.04,-25.5 562.04,-32.5"/>
</a>
</g>
</g>
<!-- Node4 -->
<g id="Node000004" class="node">
<title>Node4</title>
<g id="a_Node000004"><a xlink:href="vfs__fd_8h.html#a8747abe85b66255bf04adc7610b87374" target="_top" xlink:title=" ">
<polygon fill="white" stroke="#666666" points="251,-20 142,-20 142,0 251,0 251,-20"/>
<text text-anchor="middle" x="196.5" y="-6.5" font-family="Helvetica,sans-Serif" font-size="10.00">zrtos_vfs_fd_set__init</text>
</a>
</g>
</g>
<!-- Node1&#45;&gt;Node4 -->
<g id="edge3_Node000001_Node000004" class="edge">
<title>Node1&#45;&gt;Node4</title>
<g id="a_edge3_Node000001_Node000004"><a xlink:title=" ">
<path fill="none" stroke="#63b8ff" d="M106.29,-21.98C114.1,-20.93 122.24,-19.84 130.27,-18.76"/>
<polygon fill="#63b8ff" stroke="#63b8ff" points="130.59,-22.25 140.03,-17.45 129.66,-15.31 130.59,-22.25"/>
</a>
</g>
</g>
<!-- Node3 -->
<g id="Node000003" class="node">
<title>Node3</title>
<g id="a_Node000003"><a xlink:href="mem_8h.html#ad6c786590236d1d560b6277f638bf766" target="_top" xlink:title=" ">
<polygon fill="white" stroke="#666666" points="792.75,-39 704,-39 704,-19 792.75,-19 792.75,-39"/>
<text text-anchor="middle" x="748.38" y="-25.5" font-family="Helvetica,sans-Serif" font-size="10.00">zrtos_mem__set</text>
</a>
</g>
</g>
<!-- Node2&#45;&gt;Node3 -->
<g id="edge2_Node000002_Node000003" class="edge">
<title>Node2&#45;&gt;Node3</title>
<g id="a_edge2_Node000002_Node000003"><a xlink:title=" ">
<path fill="none" stroke="#63b8ff" d="M668.33,-29C676.11,-29 684.25,-29 692.23,-29"/>
<polygon fill="#63b8ff" stroke="#63b8ff" points="692.22,-32.5 702.22,-29 692.22,-25.5 692.22,-32.5"/>
</a>
</g>
</g>
<!-- Node5 -->
<g id="Node000005" class="node">
<title>Node5</title>
<g id="a_Node000005"><a xlink:href="vfs__fd_8h.html#a7621285229575f9be4267258e7f0b26d" target="_top" xlink:title=" ">
<polygon fill="white" stroke="#666666" points="402,-20 287,-20 287,0 402,0 402,-20"/>
<text text-anchor="middle" x="344.5" y="-6.5" font-family="Helvetica,sans-Serif" font-size="10.00">zrtos_vfs_fd_set__zero</text>
</a>
</g>
</g>
<!-- Node4&#45;&gt;Node5 -->
<g id="edge4_Node000004_Node000005" class="edge">
<title>Node4&#45;&gt;Node5</title>
<g id="a_edge4_Node000004_Node000005"><a xlink:title=" ">
<path fill="none" stroke="#63b8ff" d="M251.45,-10C259.29,-10 267.45,-10 275.52,-10"/>
<polygon fill="#63b8ff" stroke="#63b8ff" points="275.32,-13.5 285.32,-10 275.32,-6.5 275.32,-13.5"/>
</a>
</g>
</g>
<!-- Node6 -->
<g id="Node000006" class="node">
<title>Node6</title>
<g id="a_Node000006"><a xlink:href="bitfield_8h.html#a41e25f1f59cb57785b18503403258629" target="_top" xlink:title=" ">
<polygon fill="white" stroke="#666666" points="538,-20 438,-20 438,0 538,0 538,-20"/>
<text text-anchor="middle" x="488" y="-6.5" font-family="Helvetica,sans-Serif" font-size="10.00">zrtos_bitfield__zero</text>
</a>
</g>
</g>
<!-- Node5&#45;&gt;Node6 -->
<g id="edge5_Node000005_Node000006" class="edge">
<title>Node5&#45;&gt;Node6</title>
<g id="a_edge5_Node000005_Node000006"><a xlink:title=" ">
<path fill="none" stroke="#63b8ff" d="M402.24,-10C410.09,-10 418.18,-10 426.11,-10"/>
<polygon fill="#63b8ff" stroke="#63b8ff" points="426.03,-13.5 436.03,-10 426.03,-6.5 426.03,-13.5"/>
</a>
</g>
</g>
<!-- Node6&#45;&gt;Node2 -->
<g id="edge6_Node000006_Node000002" class="edge">
<title>Node6&#45;&gt;Node2</title>
<g id="a_edge6_Node000006_Node000002"><a xlink:title=" ">
<path fill="none" stroke="#63b8ff" d="M538.15,-17.13C546.05,-18.27 554.28,-19.47 562.35,-20.64"/>
<polygon fill="#63b8ff" stroke="#63b8ff" points="561.71,-24.08 572.11,-22.05 562.71,-17.15 561.71,-24.08"/>
</a>
</g>
</g>
</g>
</svg>
