<?xml version="1.0" encoding="UTF-8" standalone="no"?>
<!DOCTYPE svg PUBLIC "-//W3C//DTD SVG 1.1//EN"
 "http://www.w3.org/Graphics/SVG/1.1/DTD/svg11.dtd">
<!-- Generated by graphviz version 10.0.1 (20240210.2158)
 -->
<!-- Title: zrtos_vfs_file__get_inode_data Pages: 1 -->
<svg width="445pt" height="803pt"
 viewBox="0.00 0.00 444.50 803.00" xmlns="http://www.w3.org/2000/svg" xmlns:xlink="http://www.w3.org/1999/xlink">
<g id="graph0" class="graph" transform="scale(1 1) rotate(0) translate(4 799)">
<title>zrtos_vfs_file__get_inode_data</title>
<!-- Node1 -->
<g id="Node000001" class="node">
<title>Node1</title>
<g id="a_Node000001"><a xlink:title=" ">
<polygon fill="#999999" stroke="#666666" points="436.5,-445 341,-445 341,-413 436.5,-413 436.5,-445"/>
<text text-anchor="start" x="349" y="-431.5" font-family="Helvetica,sans-Serif" font-size="10.00">zrtos_vfs_file__get</text>
<text text-anchor="middle" x="388.75" y="-419.5" font-family="Helvetica,sans-Serif" font-size="10.00">_inode_data</text>
</a>
</g>
</g>
<!-- Node2 -->
<g id="Node000002" class="node">
<title>Node2</title>
<g id="a_Node000002"><a xlink:href="vfs_2module_2avr_2progmem_8h.html#aa87e2c298b856cf12a5db65f0a27432d" target="_top" xlink:title=" ">
<polygon fill="white" stroke="#666666" points="290,-795 181.75,-795 181.75,-763 290,-763 290,-795"/>
<text text-anchor="start" x="189.75" y="-781.5" font-family="Helvetica,sans-Serif" font-size="10.00">zrtos_vfs_module_avr</text>
<text text-anchor="middle" x="235.88" y="-769.5" font-family="Helvetica,sans-Serif" font-size="10.00">_progmem__on_read</text>
</a>
</g>
</g>
<!-- Node1&#45;&gt;Node2 -->
<g id="edge1_Node000001_Node000002" class="edge">
<title>Node1&#45;&gt;Node2</title>
<g id="a_edge1_Node000001_Node000002"><a xlink:title=" ">
<path fill="none" stroke="#63b8ff" d="M384.06,-456.61C374.18,-526.78 345.11,-709.55 305,-754 300.86,-758.58 295.82,-762.33 290.36,-765.39"/>
<polygon fill="#63b8ff" stroke="#63b8ff" points="387.52,-457.13 385.42,-446.74 380.59,-456.17 387.52,-457.13"/>
</a>
</g>
</g>
<!-- Node3 -->
<g id="Node000003" class="node">
<title>Node3</title>
<g id="a_Node000003"><a xlink:href="rtu_8h.html#ab6a665819054d99f132b4cb31b0d6d1c" target="_top" xlink:title=" ">
<polygon fill="white" stroke="#666666" points="301.25,-745 170.5,-745 170.5,-713 301.25,-713 301.25,-745"/>
<text text-anchor="start" x="178.5" y="-731.5" font-family="Helvetica,sans-Serif" font-size="10.00">zrtos_vfs_module_modbus</text>
<text text-anchor="middle" x="235.88" y="-719.5" font-family="Helvetica,sans-Serif" font-size="10.00">_rtu__on_can_read</text>
</a>
</g>
</g>
<!-- Node1&#45;&gt;Node3 -->
<g id="edge2_Node000001_Node000003" class="edge">
<title>Node1&#45;&gt;Node3</title>
<g id="a_edge2_Node000001_Node000003"><a xlink:title=" ">
<path fill="none" stroke="#63b8ff" d="M387.23,-456.89C384.7,-511.52 371.46,-633.47 305,-704 301.89,-707.3 298.31,-710.17 294.45,-712.66"/>
<polygon fill="#63b8ff" stroke="#63b8ff" points="390.72,-457.03 387.59,-446.91 383.73,-456.78 390.72,-457.03"/>
</a>
</g>
</g>
<!-- Node4 -->
<g id="Node000004" class="node">
<title>Node4</title>
<g id="a_Node000004"><a xlink:href="rtu_8h.html#a08670f8758ac6130c738816d306eb923" target="_top" xlink:title=" ">
<polygon fill="white" stroke="#666666" points="301.25,-695 170.5,-695 170.5,-663 301.25,-663 301.25,-695"/>
<text text-anchor="start" x="178.5" y="-681.5" font-family="Helvetica,sans-Serif" font-size="10.00">zrtos_vfs_module_modbus</text>
<text text-anchor="middle" x="235.88" y="-669.5" font-family="Helvetica,sans-Serif" font-size="10.00">_rtu__on_ioctl</text>
</a>
</g>
</g>
<!-- Node1&#45;&gt;Node4 -->
<g id="edge3_Node000001_Node000004" class="edge">
<title>Node1&#45;&gt;Node4</title>
<g id="a_edge3_Node000001_Node000004"><a xlink:title=" ">
<path fill="none" stroke="#63b8ff" d="M385.03,-456.69C378.98,-503.55 360.27,-598.77 305,-654 301.7,-657.29 297.94,-660.16 293.9,-662.65"/>
<polygon fill="#63b8ff" stroke="#63b8ff" points="388.49,-457.19 386.18,-446.85 381.54,-456.37 388.49,-457.19"/>
</a>
</g>
</g>
<!-- Node5 -->
<g id="Node000005" class="node">
<title>Node5</title>
<g id="a_Node000005"><a xlink:href="rtu_8h.html#aea13c3756fb07d48853e039823a846b1" target="_top" xlink:title=" ">
<polygon fill="white" stroke="#666666" points="301.25,-645 170.5,-645 170.5,-613 301.25,-613 301.25,-645"/>
<text text-anchor="start" x="178.5" y="-631.5" font-family="Helvetica,sans-Serif" font-size="10.00">zrtos_vfs_module_modbus</text>
<text text-anchor="middle" x="235.88" y="-619.5" font-family="Helvetica,sans-Serif" font-size="10.00">_rtu__on_read</text>
</a>
</g>
</g>
<!-- Node1&#45;&gt;Node5 -->
<g id="edge4_Node000001_Node000005" class="edge">
<title>Node1&#45;&gt;Node5</title>
<g id="a_edge4_Node000001_Node000005"><a xlink:title=" ">
<path fill="none" stroke="#63b8ff" d="M381.77,-456.26C372.05,-494.39 349.29,-563.52 305,-604 301.47,-607.23 297.48,-610.05 293.25,-612.51"/>
<polygon fill="#63b8ff" stroke="#63b8ff" points="385.07,-457.5 384.02,-446.96 378.27,-455.85 385.07,-457.5"/>
</a>
</g>
</g>
<!-- Node6 -->
<g id="Node000006" class="node">
<title>Node6</title>
<g id="a_Node000006"><a xlink:href="rtu_8h.html#a223fc39dfd241ff17884c9f5d03f8e78" target="_top" xlink:title=" ">
<polygon fill="white" stroke="#666666" points="301.25,-595 170.5,-595 170.5,-563 301.25,-563 301.25,-595"/>
<text text-anchor="start" x="178.5" y="-581.5" font-family="Helvetica,sans-Serif" font-size="10.00">zrtos_vfs_module_modbus</text>
<text text-anchor="middle" x="235.88" y="-569.5" font-family="Helvetica,sans-Serif" font-size="10.00">_rtu__on_recv_timeout</text>
</a>
</g>
</g>
<!-- Node1&#45;&gt;Node6 -->
<g id="edge5_Node000001_Node000006" class="edge">
<title>Node1&#45;&gt;Node6</title>
<g id="a_edge5_Node000001_Node000006"><a xlink:title=" ">
<path fill="none" stroke="#63b8ff" d="M376.39,-455.47C363.09,-483.57 338.53,-527.5 305,-554 300.85,-557.28 296.23,-560.16 291.4,-562.68"/>
<polygon fill="#63b8ff" stroke="#63b8ff" points="379.49,-457.12 380.46,-446.57 373.12,-454.21 379.49,-457.12"/>
</a>
</g>
</g>
<!-- Node8 -->
<g id="Node000008" class="node">
<title>Node8</title>
<g id="a_Node000008"><a xlink:href="rtu_8h.html#ac0ca767b3e1e9a8b1f290448a122e095" target="_top" xlink:title=" ">
<polygon fill="white" stroke="#666666" points="301.25,-545 170.5,-545 170.5,-513 301.25,-513 301.25,-545"/>
<text text-anchor="start" x="178.5" y="-531.5" font-family="Helvetica,sans-Serif" font-size="10.00">zrtos_vfs_module_modbus</text>
<text text-anchor="middle" x="235.88" y="-519.5" font-family="Helvetica,sans-Serif" font-size="10.00">_rtu__on_write</text>
</a>
</g>
</g>
<!-- Node1&#45;&gt;Node8 -->
<g id="edge7_Node000001_Node000008" class="edge">
<title>Node1&#45;&gt;Node8</title>
<g id="a_edge7_Node000001_Node000008"><a xlink:title=" ">
<path fill="none" stroke="#63b8ff" d="M365.79,-453.3C350.14,-469.45 327.89,-490.16 305,-504 299.83,-507.13 294.2,-509.97 288.47,-512.51"/>
<polygon fill="#63b8ff" stroke="#63b8ff" points="367.96,-456.1 372.3,-446.43 362.88,-451.28 367.96,-456.1"/>
</a>
</g>
</g>
<!-- Node9 -->
<g id="Node000009" class="node">
<title>Node9</title>
<g id="a_Node000009"><a xlink:href="spi__sync_8h.html#aafe8ef69f297fdd4855c8f8e2ad4931c" target="_top" xlink:title=" ">
<polygon fill="white" stroke="#666666" points="290.38,-495 181.38,-495 181.38,-463 290.38,-463 290.38,-495"/>
<text text-anchor="start" x="189.38" y="-481.5" font-family="Helvetica,sans-Serif" font-size="10.00">zrtos_vfs_module_spi</text>
<text text-anchor="middle" x="235.88" y="-469.5" font-family="Helvetica,sans-Serif" font-size="10.00">_sync__on_mount</text>
</a>
</g>
</g>
<!-- Node1&#45;&gt;Node9 -->
<g id="edge8_Node000001_Node000009" class="edge">
<title>Node1&#45;&gt;Node9</title>
<g id="a_edge8_Node000001_Node000009"><a xlink:title=" ">
<path fill="none" stroke="#63b8ff" d="M330.1,-448.11C315.77,-452.85 300.54,-457.9 286.63,-462.51"/>
<polygon fill="#63b8ff" stroke="#63b8ff" points="331.01,-451.49 339.4,-445.02 328.81,-444.85 331.01,-451.49"/>
</a>
</g>
</g>
<!-- Node10 -->
<g id="Node000010" class="node">
<title>Node10</title>
<g id="a_Node000010"><a xlink:href="spi__sync_8h.html#a29c9d8a32af2717c5e9ed8e11d0800fa" target="_top" xlink:title=" ">
<polygon fill="white" stroke="#666666" points="290.38,-445 181.38,-445 181.38,-413 290.38,-413 290.38,-445"/>
<text text-anchor="start" x="189.38" y="-431.5" font-family="Helvetica,sans-Serif" font-size="10.00">zrtos_vfs_module_spi</text>
<text text-anchor="middle" x="235.88" y="-419.5" font-family="Helvetica,sans-Serif" font-size="10.00">_sync__on_open</text>
</a>
</g>
</g>
<!-- Node1&#45;&gt;Node10 -->
<g id="edge9_Node000001_Node000010" class="edge">
<title>Node1&#45;&gt;Node10</title>
<g id="a_edge9_Node000001_Node000010"><a xlink:title=" ">
<path fill="none" stroke="#63b8ff" d="M329.37,-429C316.61,-429 303.17,-429 290.61,-429"/>
<polygon fill="#63b8ff" stroke="#63b8ff" points="329.33,-432.5 339.33,-429 329.33,-425.5 329.33,-432.5"/>
</a>
</g>
</g>
<!-- Node12 -->
<g id="Node000012" class="node">
<title>Node12</title>
<g id="a_Node000012"><a xlink:href="spi__sync_8h.html#acad5edb178ed84b8a1b7b3a877dbcd61" target="_top" xlink:title=" ">
<polygon fill="white" stroke="#666666" points="296,-395 175.75,-395 175.75,-363 296,-363 296,-395"/>
<text text-anchor="start" x="183.75" y="-381.5" font-family="Helvetica,sans-Serif" font-size="10.00">zrtos_vfs_module_spi</text>
<text text-anchor="middle" x="235.88" y="-369.5" font-family="Helvetica,sans-Serif" font-size="10.00">_sync__on_write_helper</text>
</a>
</g>
</g>
<!-- Node1&#45;&gt;Node12 -->
<g id="edge11_Node000001_Node000012" class="edge">
<title>Node1&#45;&gt;Node12</title>
<g id="a_edge11_Node000001_Node000012"><a xlink:title=" ">
<path fill="none" stroke="#63b8ff" d="M330.1,-409.89C315.77,-405.15 300.54,-400.1 286.63,-395.49"/>
<polygon fill="#63b8ff" stroke="#63b8ff" points="328.81,-413.15 339.4,-412.98 331.01,-406.51 328.81,-413.15"/>
</a>
</g>
</g>
<!-- Node14 -->
<g id="Node000014" class="node">
<title>Node14</title>
<g id="a_Node000014"><a xlink:href="sram_8h.html#ae81a59adc54eb479f21bf266c427b309" target="_top" xlink:title=" ">
<polygon fill="white" stroke="#666666" points="305,-345 166.75,-345 166.75,-325 305,-325 305,-345"/>
<text text-anchor="middle" x="235.88" y="-331.5" font-family="Helvetica,sans-Serif" font-size="10.00">zrtos_vfs_module_sram__rw</text>
</a>
</g>
</g>
<!-- Node1&#45;&gt;Node14 -->
<g id="edge13_Node000001_Node000014" class="edge">
<title>Node1&#45;&gt;Node14</title>
<g id="a_edge13_Node000001_Node000014"><a xlink:title=" ">
<path fill="none" stroke="#63b8ff" d="M366.42,-404.41C350.9,-387.95 328.56,-367 305,-354 298.87,-350.62 292.1,-347.8 285.26,-345.46"/>
<polygon fill="#63b8ff" stroke="#63b8ff" points="363.52,-406.42 372.85,-411.43 368.67,-401.69 363.52,-406.42"/>
</a>
</g>
</g>
<!-- Node17 -->
<g id="Node000017" class="node">
<title>Node17</title>
<g id="a_Node000017"><a xlink:href="uart_2uart_8h.html#ae0df07d6b2030b70ae3c65b98ab0d15a" target="_top" xlink:title=" ">
<polygon fill="white" stroke="#666666" points="292.25,-307 179.5,-307 179.5,-275 292.25,-275 292.25,-307"/>
<text text-anchor="start" x="187.5" y="-293.5" font-family="Helvetica,sans-Serif" font-size="10.00">zrtos_vfs_module_uart</text>
<text text-anchor="middle" x="235.88" y="-281.5" font-family="Helvetica,sans-Serif" font-size="10.00">__on_can_read</text>
</a>
</g>
</g>
<!-- Node1&#45;&gt;Node17 -->
<g id="edge16_Node000001_Node000017" class="edge">
<title>Node1&#45;&gt;Node17</title>
<g id="a_edge16_Node000001_Node000017"><a xlink:title=" ">
<path fill="none" stroke="#63b8ff" d="M374.48,-402.76C360.41,-377.33 335.94,-339.29 305,-316 300.67,-312.74 295.88,-309.87 290.89,-307.35"/>
<polygon fill="#63b8ff" stroke="#63b8ff" points="371.34,-404.31 379.15,-411.47 377.51,-401 371.34,-404.31"/>
</a>
</g>
</g>
<!-- Node18 -->
<g id="Node000018" class="node">
<title>Node18</title>
<g id="a_Node000018"><a xlink:href="uart_2uart_8h.html#aceac60cc4f8d7474e117088335ff0db7" target="_top" xlink:title=" ">
<polygon fill="white" stroke="#666666" points="292.25,-257 179.5,-257 179.5,-225 292.25,-225 292.25,-257"/>
<text text-anchor="start" x="187.5" y="-243.5" font-family="Helvetica,sans-Serif" font-size="10.00">zrtos_vfs_module_uart</text>
<text text-anchor="middle" x="235.88" y="-231.5" font-family="Helvetica,sans-Serif" font-size="10.00">__on_can_write</text>
</a>
</g>
</g>
<!-- Node1&#45;&gt;Node18 -->
<g id="edge17_Node000001_Node000018" class="edge">
<title>Node1&#45;&gt;Node18</title>
<g id="a_edge17_Node000001_Node000018"><a xlink:title=" ">
<path fill="none" stroke="#63b8ff" d="M380.65,-401.57C370,-365.65 346.57,-302.93 305,-266 301.23,-262.65 296.98,-259.74 292.48,-257.21"/>
<polygon fill="#63b8ff" stroke="#63b8ff" points="377.28,-402.52 383.36,-411.19 384.01,-400.62 377.28,-402.52"/>
</a>
</g>
</g>
<!-- Node19 -->
<g id="Node000019" class="node">
<title>Node19</title>
<g id="a_Node000019"><a xlink:href="uart_2uart_8h.html#ad7c2b1650fefd09f873588725a30a2be" target="_top" xlink:title=" ">
<polygon fill="white" stroke="#666666" points="292.25,-207 179.5,-207 179.5,-175 292.25,-175 292.25,-207"/>
<text text-anchor="start" x="187.5" y="-193.5" font-family="Helvetica,sans-Serif" font-size="10.00">zrtos_vfs_module_uart</text>
<text text-anchor="middle" x="235.88" y="-181.5" font-family="Helvetica,sans-Serif" font-size="10.00">__on_ioctl</text>
</a>
</g>
</g>
<!-- Node1&#45;&gt;Node19 -->
<g id="edge18_Node000001_Node000019" class="edge">
<title>Node1&#45;&gt;Node19</title>
<g id="a_edge18_Node000001_Node000019"><a xlink:title=" ">
<path fill="none" stroke="#63b8ff" d="M384.38,-401.49C377.47,-356.66 357.65,-267.67 305,-216 301.31,-212.38 297.06,-209.28 292.52,-206.63"/>
<polygon fill="#63b8ff" stroke="#63b8ff" points="380.88,-401.74 385.76,-411.15 387.81,-400.75 380.88,-401.74"/>
</a>
</g>
</g>
<!-- Node20 -->
<g id="Node000020" class="node">
<title>Node20</title>
<g id="a_Node000020"><a xlink:href="uart_2uart_8h.html#a6a55bd7ce001957fedb1647045d64cf9" target="_top" xlink:title=" ">
<polygon fill="white" stroke="#666666" points="292.25,-157 179.5,-157 179.5,-125 292.25,-125 292.25,-157"/>
<text text-anchor="start" x="187.5" y="-143.5" font-family="Helvetica,sans-Serif" font-size="10.00">zrtos_vfs_module_uart</text>
<text text-anchor="middle" x="235.88" y="-131.5" font-family="Helvetica,sans-Serif" font-size="10.00">__on_read</text>
</a>
</g>
</g>
<!-- Node1&#45;&gt;Node20 -->
<g id="edge19_Node000001_Node000020" class="edge">
<title>Node1&#45;&gt;Node20</title>
<g id="a_edge19_Node000001_Node000020"><a xlink:title=" ">
<path fill="none" stroke="#63b8ff" d="M386.77,-401.22C383.43,-348.41 368.78,-232.85 305,-166 301.35,-162.17 297.06,-158.93 292.44,-156.18"/>
<polygon fill="#63b8ff" stroke="#63b8ff" points="383.27,-401.34 387.3,-411.14 390.26,-400.97 383.27,-401.34"/>
</a>
</g>
</g>
<!-- Node21 -->
<g id="Node000021" class="node">
<title>Node21</title>
<g id="a_Node000021"><a xlink:href="uart_2uart_8h.html#a9e735d9796aaa30e4a5fce9c763adf92" target="_top" xlink:title=" ">
<polygon fill="white" stroke="#666666" points="292.25,-107 179.5,-107 179.5,-75 292.25,-75 292.25,-107"/>
<text text-anchor="start" x="187.5" y="-93.5" font-family="Helvetica,sans-Serif" font-size="10.00">zrtos_vfs_module_uart</text>
<text text-anchor="middle" x="235.88" y="-81.5" font-family="Helvetica,sans-Serif" font-size="10.00">__on_write</text>
</a>
</g>
</g>
<!-- Node1&#45;&gt;Node21 -->
<g id="edge20_Node000001_Node000021" class="edge">
<title>Node1&#45;&gt;Node21</title>
<g id="a_edge20_Node000001_Node000021"><a xlink:title=" ">
<path fill="none" stroke="#63b8ff" d="M388.47,-401.1C388.49,-341.08 380.09,-198.44 305,-116 301.44,-112.09 297.21,-108.79 292.63,-106"/>
<polygon fill="#63b8ff" stroke="#63b8ff" points="384.97,-401.06 388.38,-411.09 391.97,-401.13 384.97,-401.06"/>
</a>
</g>
</g>
<!-- Node7 -->
<g id="Node000007" class="node">
<title>Node7</title>
<g id="a_Node000007"><a xlink:href="rtu_8h.html#aac1c0a8f15ec0cd7540f53a61fe9ff08" target="_top" xlink:title=" ">
<polygon fill="white" stroke="#666666" points="130.75,-595 0,-595 0,-563 130.75,-563 130.75,-595"/>
<text text-anchor="start" x="8" y="-581.5" font-family="Helvetica,sans-Serif" font-size="10.00">zrtos_vfs_module_modbus</text>
<text text-anchor="middle" x="65.38" y="-569.5" font-family="Helvetica,sans-Serif" font-size="10.00">_rtu_args__init</text>
</a>
</g>
</g>
<!-- Node6&#45;&gt;Node7 -->
<g id="edge6_Node000006_Node000007" class="edge">
<title>Node6&#45;&gt;Node7</title>
<g id="a_edge6_Node000006_Node000007"><a xlink:title=" ">
<path fill="none" stroke="#63b8ff" d="M158.97,-579C149.68,-579 140.25,-579 131.14,-579"/>
<polygon fill="#63b8ff" stroke="#63b8ff" points="158.7,-582.5 168.7,-579 158.7,-575.5 158.7,-582.5"/>
</a>
</g>
</g>
<!-- Node11 -->
<g id="Node000011" class="node">
<title>Node11</title>
<g id="a_Node000011"><a xlink:href="spi__sync_8h.html#a2e3a53c5cd6e19f7859fcf16506d44ec" target="_top" xlink:title=" ">
<polygon fill="white" stroke="#666666" points="119.88,-448 10.88,-448 10.88,-416 119.88,-416 119.88,-448"/>
<text text-anchor="start" x="18.88" y="-434.5" font-family="Helvetica,sans-Serif" font-size="10.00">zrtos_vfs_module_spi</text>
<text text-anchor="middle" x="65.38" y="-422.5" font-family="Helvetica,sans-Serif" font-size="10.00">_sync__on_close</text>
</a>
</g>
</g>
<!-- Node10&#45;&gt;Node11 -->
<g id="edge10_Node000010_Node000011" class="edge">
<title>Node10&#45;&gt;Node11</title>
<g id="a_edge10_Node000010_Node000011"><a xlink:title=" ">
<path fill="none" stroke="#63b8ff" d="M169.92,-430.16C153.49,-430.45 136.03,-430.76 120.22,-431.04"/>
<polygon fill="#63b8ff" stroke="#63b8ff" points="169.65,-433.66 179.58,-429.98 169.52,-426.66 169.65,-433.66"/>
</a>
</g>
</g>
<!-- Node13 -->
<g id="Node000013" class="node">
<title>Node13</title>
<g id="a_Node000013"><a xlink:href="sync_8h.html#affc4ed32d5b66e97fb25c63faaf49eed" target="_top" xlink:title=" ">
<polygon fill="white" stroke="#666666" points="119.5,-398 11.25,-398 11.25,-366 119.5,-366 119.5,-398"/>
<text text-anchor="start" x="19.25" y="-384.5" font-family="Helvetica,sans-Serif" font-size="10.00">zrtos_vfs_module_avr</text>
<text text-anchor="middle" x="65.38" y="-372.5" font-family="Helvetica,sans-Serif" font-size="10.00">_spi_sync__on_write</text>
</a>
</g>
</g>
<!-- Node12&#45;&gt;Node13 -->
<g id="edge12_Node000012_Node000013" class="edge">
<title>Node12&#45;&gt;Node13</title>
<g id="a_edge12_Node000012_Node000013"><a xlink:title=" ">
<path fill="none" stroke="#63b8ff" d="M164.26,-380.26C149.42,-380.52 134,-380.8 119.91,-381.05"/>
<polygon fill="#63b8ff" stroke="#63b8ff" points="164.02,-383.76 173.95,-380.08 163.89,-376.76 164.02,-383.76"/>
</a>
</g>
</g>
<!-- Node15 -->
<g id="Node000015" class="node">
<title>Node15</title>
<g id="a_Node000015"><a xlink:href="sram_8h.html#ab0d0a1a04578c8af262001c024ae57e5" target="_top" xlink:title=" ">
<polygon fill="white" stroke="#666666" points="124.38,-348 6.38,-348 6.38,-316 124.38,-316 124.38,-348"/>
<text text-anchor="start" x="14.38" y="-334.5" font-family="Helvetica,sans-Serif" font-size="10.00">zrtos_vfs_module_sram</text>
<text text-anchor="middle" x="65.38" y="-322.5" font-family="Helvetica,sans-Serif" font-size="10.00">__on_read</text>
</a>
</g>
</g>
<!-- Node14&#45;&gt;Node15 -->
<g id="edge14_Node000014_Node000015" class="edge">
<title>Node14&#45;&gt;Node15</title>
<g id="a_edge14_Node000014_Node000015"><a xlink:title=" ">
<path fill="none" stroke="#63b8ff" d="M154.96,-333.58C144.81,-333.4 134.59,-333.21 124.86,-333.04"/>
<polygon fill="#63b8ff" stroke="#63b8ff" points="154.77,-337.07 164.83,-333.75 154.89,-330.08 154.77,-337.07"/>
</a>
</g>
</g>
<!-- Node16 -->
<g id="Node000016" class="node">
<title>Node16</title>
<g id="a_Node000016"><a xlink:href="sram_8h.html#ab1fc9892618f21a25027bc7ac993dfe7" target="_top" xlink:title=" ">
<polygon fill="white" stroke="#666666" points="124.38,-298 6.38,-298 6.38,-266 124.38,-266 124.38,-298"/>
<text text-anchor="start" x="14.38" y="-284.5" font-family="Helvetica,sans-Serif" font-size="10.00">zrtos_vfs_module_sram</text>
<text text-anchor="middle" x="65.38" y="-272.5" font-family="Helvetica,sans-Serif" font-size="10.00">__on_write</text>
</a>
</g>
</g>
<!-- Node14&#45;&gt;Node16 -->
<g id="edge15_Node000014_Node000016" class="edge">
<title>Node14&#45;&gt;Node16</title>
<g id="a_edge15_Node000014_Node000016"><a xlink:title=" ">
<path fill="none" stroke="#63b8ff" d="M184.93,-321.41C178.79,-319.64 172.62,-317.81 166.75,-316 149.17,-310.58 130.01,-304.2 113.18,-298.45"/>
<polygon fill="#63b8ff" stroke="#63b8ff" points="183.83,-324.73 194.4,-324.1 185.74,-318 183.83,-324.73"/>
</a>
</g>
</g>
<!-- Node22 -->
<g id="Node000022" class="node">
<title>Node22</title>
<g id="a_Node000022"><a xlink:href="uart0_8h.html#a1c08ba1c9bac4dd9a045d06a07dbe0b4" target="_top" xlink:title=" ">
<polygon fill="white" stroke="#666666" points="119.5,-182 11.25,-182 11.25,-150 119.5,-150 119.5,-182"/>
<text text-anchor="start" x="19.25" y="-168.5" font-family="Helvetica,sans-Serif" font-size="10.00">zrtos_vfs_module_avr</text>
<text text-anchor="middle" x="65.38" y="-156.5" font-family="Helvetica,sans-Serif" font-size="10.00">_uart0__on_write</text>
</a>
</g>
</g>
<!-- Node21&#45;&gt;Node22 -->
<g id="edge21_Node000021_Node000022" class="edge">
<title>Node21&#45;&gt;Node22</title>
<g id="a_edge21_Node000021_Node000022"><a xlink:title=" ">
<path fill="none" stroke="#63b8ff" d="M175.05,-111.94C172.22,-113.25 169.43,-114.6 166.75,-116 149.47,-124.98 147.95,-131.85 130.75,-141 125.03,-144.04 118.86,-146.91 112.69,-149.55"/>
<polygon fill="#63b8ff" stroke="#63b8ff" points="176.31,-115.21 184.09,-108.02 173.52,-108.79 176.31,-115.21"/>
</a>
</g>
</g>
<!-- Node23 -->
<g id="Node000023" class="node">
<title>Node23</title>
<g id="a_Node000023"><a xlink:href="uart1_8h.html#af04452122e72ab7408b2e207191cdd33" target="_top" xlink:title=" ">
<polygon fill="white" stroke="#666666" points="119.5,-132 11.25,-132 11.25,-100 119.5,-100 119.5,-132"/>
<text text-anchor="start" x="19.25" y="-118.5" font-family="Helvetica,sans-Serif" font-size="10.00">zrtos_vfs_module_avr</text>
<text text-anchor="middle" x="65.38" y="-106.5" font-family="Helvetica,sans-Serif" font-size="10.00">_uart1__on_write</text>
</a>
</g>
</g>
<!-- Node21&#45;&gt;Node23 -->
<g id="edge22_Node000021_Node000023" class="edge">
<title>Node21&#45;&gt;Node23</title>
<g id="a_edge22_Node000021_Node000023"><a xlink:title=" ">
<path fill="none" stroke="#63b8ff" d="M168.3,-100.88C152.26,-103.26 135.32,-105.77 119.95,-108.05"/>
<polygon fill="#63b8ff" stroke="#63b8ff" points="168.36,-104.41 177.74,-99.48 167.33,-97.48 168.36,-104.41"/>
</a>
</g>
</g>
<!-- Node24 -->
<g id="Node000024" class="node">
<title>Node24</title>
<g id="a_Node000024"><a xlink:href="uart2_8h.html#a244148efdde4e736bdcba74328e85415" target="_top" xlink:title=" ">
<polygon fill="white" stroke="#666666" points="119.5,-82 11.25,-82 11.25,-50 119.5,-50 119.5,-82"/>
<text text-anchor="start" x="19.25" y="-68.5" font-family="Helvetica,sans-Serif" font-size="10.00">zrtos_vfs_module_avr</text>
<text text-anchor="middle" x="65.38" y="-56.5" font-family="Helvetica,sans-Serif" font-size="10.00">_uart2__on_write</text>
</a>
</g>
</g>
<!-- Node21&#45;&gt;Node24 -->
<g id="edge23_Node000021_Node000024" class="edge">
<title>Node21&#45;&gt;Node24</title>
<g id="a_edge23_Node000021_Node000024"><a xlink:title=" ">
<path fill="none" stroke="#63b8ff" d="M168.3,-81.12C152.26,-78.74 135.32,-76.23 119.95,-73.95"/>
<polygon fill="#63b8ff" stroke="#63b8ff" points="167.33,-84.52 177.74,-82.52 168.36,-77.59 167.33,-84.52"/>
</a>
</g>
</g>
<!-- Node25 -->
<g id="Node000025" class="node">
<title>Node25</title>
<g id="a_Node000025"><a xlink:href="uart3_8h.html#a0ac21cf2483f89180a91b9ca480eb7b8" target="_top" xlink:title=" ">
<polygon fill="white" stroke="#666666" points="119.5,-32 11.25,-32 11.25,0 119.5,0 119.5,-32"/>
<text text-anchor="start" x="19.25" y="-18.5" font-family="Helvetica,sans-Serif" font-size="10.00">zrtos_vfs_module_avr</text>
<text text-anchor="middle" x="65.38" y="-6.5" font-family="Helvetica,sans-Serif" font-size="10.00">_uart3__on_write</text>
</a>
</g>
</g>
<!-- Node21&#45;&gt;Node25 -->
<g id="edge24_Node000021_Node000025" class="edge">
<title>Node21&#45;&gt;Node25</title>
<g id="a_edge24_Node000021_Node000025"><a xlink:title=" ">
<path fill="none" stroke="#63b8ff" d="M192.09,-69.53C173.4,-60.4 151.15,-49.84 130.75,-41 124.15,-38.14 117.11,-35.25 110.19,-32.49"/>
<polygon fill="#63b8ff" stroke="#63b8ff" points="190.47,-72.64 200.99,-73.91 193.56,-66.36 190.47,-72.64"/>
</a>
</g>
</g>
</g>
</svg>
