<?xml version="1.0" encoding="UTF-8" standalone="no"?>
<!DOCTYPE svg PUBLIC "-//W3C//DTD SVG 1.1//EN"
 "http://www.w3.org/Graphics/SVG/1.1/DTD/svg11.dtd">
<!-- Generated by graphviz version 10.0.1 (20240210.2158)
 -->
<!-- Title: zrtos_vfs_fd__is_sync_again_error Pages: 1 -->
<svg width="279pt" height="66pt"
 viewBox="0.00 0.00 279.25 66.00" xmlns="http://www.w3.org/2000/svg" xmlns:xlink="http://www.w3.org/1999/xlink">
<g id="graph0" class="graph" transform="scale(1 1) rotate(0) translate(4 62)">
<title>zrtos_vfs_fd__is_sync_again_error</title>
<!-- Node1 -->
<g id="Node000001" class="node">
<title>Node1</title>
<g id="a_Node000001"><a xlink:title=" ">
<polygon fill="#999999" stroke="#666666" points="271.25,-45 160,-45 160,-13 271.25,-13 271.25,-45"/>
<text text-anchor="start" x="168" y="-31.5" font-family="Helvetica,sans-Serif" font-size="10.00">zrtos_vfs_fd__is_sync</text>
<text text-anchor="middle" x="215.62" y="-19.5" font-family="Helvetica,sans-Serif" font-size="10.00">_again_error</text>
</a>
</g>
</g>
<!-- Node2 -->
<g id="Node000002" class="node">
<title>Node2</title>
<g id="a_Node000002"><a xlink:href="vfs__fd_8h.html#ae737855f8418bd0b815a5113c0b2203e" target="_top" xlink:title=" ">
<polygon fill="white" stroke="#666666" points="123.25,-58 0.75,-58 0.75,-38 123.25,-38 123.25,-58"/>
<text text-anchor="middle" x="62" y="-44.5" font-family="Helvetica,sans-Serif" font-size="10.00">zrtos_vfs_fd__read_sync</text>
</a>
</g>
</g>
<!-- Node1&#45;&gt;Node2 -->
<g id="edge1_Node000001_Node000002" class="edge">
<title>Node1&#45;&gt;Node2</title>
<g id="a_edge1_Node000001_Node000002"><a xlink:title=" ">
<path fill="none" stroke="#63b8ff" d="M148.65,-37.27C140.31,-38.31 131.82,-39.38 123.57,-40.41"/>
<polygon fill="#63b8ff" stroke="#63b8ff" points="148.9,-40.76 158.38,-36.05 148.03,-33.82 148.9,-40.76"/>
</a>
</g>
</g>
<!-- Node3 -->
<g id="Node000003" class="node">
<title>Node3</title>
<g id="a_Node000003"><a xlink:href="vfs__fd_8h.html#ad2e1f59b4c70fbc7dc35cab85a0ff367" target="_top" xlink:title=" ">
<polygon fill="white" stroke="#666666" points="124,-20 0,-20 0,0 124,0 124,-20"/>
<text text-anchor="middle" x="62" y="-6.5" font-family="Helvetica,sans-Serif" font-size="10.00">zrtos_vfs_fd__write_sync</text>
</a>
</g>
</g>
<!-- Node1&#45;&gt;Node3 -->
<g id="edge2_Node000001_Node000003" class="edge">
<title>Node1&#45;&gt;Node3</title>
<g id="a_edge2_Node000001_Node000003"><a xlink:title=" ">
<path fill="none" stroke="#63b8ff" d="M148.62,-20.73C140.55,-19.72 132.34,-18.69 124.34,-17.69"/>
<polygon fill="#63b8ff" stroke="#63b8ff" points="148.03,-24.18 158.38,-21.95 148.9,-17.24 148.03,-24.18"/>
</a>
</g>
</g>
</g>
</svg>
