<?xml version="1.0" encoding="UTF-8" standalone="no"?>
<!DOCTYPE svg PUBLIC "-//W3C//DTD SVG 1.1//EN"
 "http://www.w3.org/Graphics/SVG/1.1/DTD/svg11.dtd">
<!-- Generated by graphviz version 10.0.1 (20240210.2158)
 -->
<!-- Title: vfs_file.h Pages: 1 -->
<svg width="571pt" height="320pt"
 viewBox="0.00 0.00 571.19 320.00" xmlns="http://www.w3.org/2000/svg" xmlns:xlink="http://www.w3.org/1999/xlink">
<g id="graph0" class="graph" transform="scale(1 1) rotate(0) translate(4 316)">
<title>vfs_file.h</title>
<!-- Node1 -->
<g id="Node000001" class="node">
<title>Node1</title>
<g id="a_Node000001"><a xlink:title=" ">
<polygon fill="#999999" stroke="#666666" points="283.38,-312 230.62,-312 230.62,-292 283.38,-292 283.38,-312"/>
<text text-anchor="middle" x="257" y="-298.5" font-family="Helvetica,sans-Serif" font-size="10.00">vfs_file.h</text>
</a>
</g>
</g>
<!-- Node2 -->
<g id="Node000002" class="node">
<title>Node2</title>
<g id="a_Node000002"><a xlink:href="error_8h.html" target="_top" xlink:title=" ">
<polygon fill="white" stroke="#666666" points="156.25,-76 87.75,-76 87.75,-56 156.25,-56 156.25,-76"/>
<text text-anchor="middle" x="122" y="-62.5" font-family="Helvetica,sans-Serif" font-size="10.00">zrtos/error.h</text>
</a>
</g>
</g>
<!-- Node1&#45;&gt;Node2 -->
<g id="edge1_Node000001_Node000002" class="edge">
<title>Node1&#45;&gt;Node2</title>
<g id="a_edge1_Node000001_Node000002"><a xlink:title=" ">
<path fill="none" stroke="#63b8ff" d="M230.49,-299.38C177.6,-294.55 59.72,-275.42 9,-200 -22.08,-153.78 49.75,-105.35 92.72,-81.73"/>
<polygon fill="#63b8ff" stroke="#63b8ff" points="94.18,-84.92 101.35,-77.12 90.88,-78.74 94.18,-84.92"/>
</a>
</g>
</g>
<!-- Node6 -->
<g id="Node000006" class="node">
<title>Node6</title>
<g id="a_Node000006"><a xlink:href="bitfield_8h.html" target="_top" xlink:title=" ">
<polygon fill="white" stroke="#666666" points="552.38,-194 475.62,-194 475.62,-174 552.38,-174 552.38,-194"/>
<text text-anchor="middle" x="514" y="-180.5" font-family="Helvetica,sans-Serif" font-size="10.00">zrtos/bitfield.h</text>
</a>
</g>
</g>
<!-- Node1&#45;&gt;Node6 -->
<g id="edge5_Node000001_Node000006" class="edge">
<title>Node1&#45;&gt;Node6</title>
<g id="a_edge5_Node000001_Node000006"><a xlink:title=" ">
<path fill="none" stroke="#63b8ff" d="M278.03,-291.51C323.23,-271.11 429.82,-223 482.87,-199.05"/>
<polygon fill="#63b8ff" stroke="#63b8ff" points="483.98,-202.39 491.66,-195.08 481.1,-196.01 483.98,-202.39"/>
</a>
</g>
</g>
<!-- Node13 -->
<g id="Node000013" class="node">
<title>Node13</title>
<g id="a_Node000013"><a xlink:href="vfs__dentry_8h.html" target="_top" xlink:title=" ">
<polygon fill="white" stroke="#666666" points="303.25,-256 210.75,-256 210.75,-236 303.25,-236 303.25,-256"/>
<text text-anchor="middle" x="257" y="-242.5" font-family="Helvetica,sans-Serif" font-size="10.00">zrtos/vfs_dentry.h</text>
</a>
</g>
</g>
<!-- Node1&#45;&gt;Node13 -->
<g id="edge16_Node000001_Node000013" class="edge">
<title>Node1&#45;&gt;Node13</title>
<g id="a_edge16_Node000001_Node000013"><a xlink:title=" ">
<path fill="none" stroke="#63b8ff" d="M257,-291.59C257,-285.01 257,-275.96 257,-267.73"/>
<polygon fill="#63b8ff" stroke="#63b8ff" points="260.5,-267.81 257,-257.81 253.5,-267.81 260.5,-267.81"/>
</a>
</g>
</g>
<!-- Node3 -->
<g id="Node000003" class="node">
<title>Node3</title>
<g id="a_Node000003"><a xlink:title=" ">
<polygon fill="#e0e0e0" stroke="#999999" points="215.75,-20 168.25,-20 168.25,0 215.75,0 215.75,-20"/>
<text text-anchor="middle" x="192" y="-6.5" font-family="Helvetica,sans-Serif" font-size="10.00">limits.h</text>
</a>
</g>
</g>
<!-- Node2&#45;&gt;Node3 -->
<g id="edge2_Node000002_Node000003" class="edge">
<title>Node2&#45;&gt;Node3</title>
<g id="a_edge2_Node000002_Node000003"><a xlink:title=" ">
<path fill="none" stroke="#63b8ff" d="M134.19,-55.59C144.33,-47.77 158.99,-36.46 171.01,-27.19"/>
<polygon fill="#63b8ff" stroke="#63b8ff" points="172.97,-30.1 178.75,-21.22 168.69,-24.56 172.97,-30.1"/>
</a>
</g>
</g>
<!-- Node4 -->
<g id="Node000004" class="node">
<title>Node4</title>
<g id="a_Node000004"><a xlink:title=" ">
<polygon fill="#e0e0e0" stroke="#999999" points="149.88,-20 94.12,-20 94.12,0 149.88,0 149.88,-20"/>
<text text-anchor="middle" x="122" y="-6.5" font-family="Helvetica,sans-Serif" font-size="10.00">stdbool.h</text>
</a>
</g>
</g>
<!-- Node2&#45;&gt;Node4 -->
<g id="edge3_Node000002_Node000004" class="edge">
<title>Node2&#45;&gt;Node4</title>
<g id="a_edge3_Node000002_Node000004"><a xlink:title=" ">
<path fill="none" stroke="#63b8ff" d="M122,-55.59C122,-49.01 122,-39.96 122,-31.73"/>
<polygon fill="#63b8ff" stroke="#63b8ff" points="125.5,-31.81 122,-21.81 118.5,-31.81 125.5,-31.81"/>
</a>
</g>
</g>
<!-- Node5 -->
<g id="Node000005" class="node">
<title>Node5</title>
<g id="a_Node000005"><a xlink:href="assert_8h.html" target="_top" xlink:title=" ">
<polygon fill="white" stroke="#666666" points="76,-20 0,-20 0,0 76,0 76,-20"/>
<text text-anchor="middle" x="38" y="-6.5" font-family="Helvetica,sans-Serif" font-size="10.00">zrtos/assert.h</text>
</a>
</g>
</g>
<!-- Node2&#45;&gt;Node5 -->
<g id="edge4_Node000002_Node000005" class="edge">
<title>Node2&#45;&gt;Node5</title>
<g id="a_edge4_Node000002_Node000005"><a xlink:title=" ">
<path fill="none" stroke="#63b8ff" d="M107.37,-55.59C94.92,-47.59 76.78,-35.93 62.18,-26.54"/>
<polygon fill="#63b8ff" stroke="#63b8ff" points="64.32,-23.76 54.02,-21.3 60.54,-29.65 64.32,-23.76"/>
</a>
</g>
</g>
<!-- Node7 -->
<g id="Node000007" class="node">
<title>Node7</title>
<g id="a_Node000007"><a xlink:href="types_8h.html" target="_top" xlink:title=" ">
<polygon fill="white" stroke="#666666" points="357.5,-76 284.5,-76 284.5,-56 357.5,-56 357.5,-76"/>
<text text-anchor="middle" x="321" y="-62.5" font-family="Helvetica,sans-Serif" font-size="10.00">zrtos/types.h</text>
</a>
</g>
</g>
<!-- Node6&#45;&gt;Node7 -->
<g id="edge6_Node000006_Node000007" class="edge">
<title>Node6&#45;&gt;Node7</title>
<g id="a_edge6_Node000006_Node000007"><a xlink:title=" ">
<path fill="none" stroke="#63b8ff" d="M527.12,-173.73C545.49,-159.64 574.83,-132.33 558,-112 534.49,-83.61 431.24,-72.98 369.04,-69.12"/>
<polygon fill="#63b8ff" stroke="#63b8ff" points="369.63,-65.65 359.44,-68.56 369.22,-72.63 369.63,-65.65"/>
</a>
</g>
</g>
<!-- Node12 -->
<g id="Node000012" class="node">
<title>Node12</title>
<g id="a_Node000012"><a xlink:href="mem_8h.html" target="_top" xlink:title=" ">
<polygon fill="white" stroke="#666666" points="549.38,-132 478.62,-132 478.62,-112 549.38,-112 549.38,-132"/>
<text text-anchor="middle" x="514" y="-118.5" font-family="Helvetica,sans-Serif" font-size="10.00">zrtos/mem.h</text>
</a>
</g>
</g>
<!-- Node6&#45;&gt;Node12 -->
<g id="edge13_Node000006_Node000012" class="edge">
<title>Node6&#45;&gt;Node12</title>
<g id="a_edge13_Node000006_Node000012"><a xlink:title=" ">
<path fill="none" stroke="#63b8ff" d="M514,-173.62C514,-165.56 514,-153.65 514,-143.41"/>
<polygon fill="#63b8ff" stroke="#63b8ff" points="517.5,-143.63 514,-133.63 510.5,-143.63 517.5,-143.63"/>
</a>
</g>
</g>
<!-- Node7&#45;&gt;Node3 -->
<g id="edge10_Node000007_Node000003" class="edge">
<title>Node7&#45;&gt;Node3</title>
<g id="a_edge10_Node000007_Node000003"><a xlink:title=" ">
<path fill="none" stroke="#63b8ff" d="M298.53,-55.59C278.21,-47.09 248.05,-34.46 224.99,-24.81"/>
<polygon fill="#63b8ff" stroke="#63b8ff" points="226.62,-21.7 216.04,-21.06 223.91,-28.15 226.62,-21.7"/>
</a>
</g>
</g>
<!-- Node7&#45;&gt;Node4 -->
<g id="edge7_Node000007_Node000004" class="edge">
<title>Node7&#45;&gt;Node4</title>
<g id="a_edge7_Node000007_Node000004"><a xlink:title=" ">
<path fill="none" stroke="#63b8ff" d="M286.34,-55.59C251.32,-46.09 197.32,-31.44 160.87,-21.55"/>
<polygon fill="#63b8ff" stroke="#63b8ff" points="162.19,-18.28 151.62,-19.04 160.36,-25.04 162.19,-18.28"/>
</a>
</g>
</g>
<!-- Node8 -->
<g id="Node000008" class="node">
<title>Node8</title>
<g id="a_Node000008"><a xlink:title=" ">
<polygon fill="#e0e0e0" stroke="#999999" points="426.25,-20 375.75,-20 375.75,0 426.25,0 426.25,-20"/>
<text text-anchor="middle" x="401" y="-6.5" font-family="Helvetica,sans-Serif" font-size="10.00">stddef.h</text>
</a>
</g>
</g>
<!-- Node7&#45;&gt;Node8 -->
<g id="edge8_Node000007_Node000008" class="edge">
<title>Node7&#45;&gt;Node8</title>
<g id="a_edge8_Node000007_Node000008"><a xlink:title=" ">
<path fill="none" stroke="#63b8ff" d="M334.93,-55.59C346.68,-47.67 363.73,-36.16 377.57,-26.82"/>
<polygon fill="#63b8ff" stroke="#63b8ff" points="379.37,-29.82 385.7,-21.33 375.46,-24.02 379.37,-29.82"/>
</a>
</g>
</g>
<!-- Node9 -->
<g id="Node000009" class="node">
<title>Node9</title>
<g id="a_Node000009"><a xlink:title=" ">
<polygon fill="#e0e0e0" stroke="#999999" points="282.12,-20 233.88,-20 233.88,0 282.12,0 282.12,-20"/>
<text text-anchor="middle" x="258" y="-6.5" font-family="Helvetica,sans-Serif" font-size="10.00">stdint.h</text>
</a>
</g>
</g>
<!-- Node7&#45;&gt;Node9 -->
<g id="edge9_Node000007_Node000009" class="edge">
<title>Node7&#45;&gt;Node9</title>
<g id="a_edge9_Node000007_Node000009"><a xlink:title=" ">
<path fill="none" stroke="#63b8ff" d="M310.03,-55.59C301.08,-47.93 288.23,-36.91 277.54,-27.75"/>
<polygon fill="#63b8ff" stroke="#63b8ff" points="279.87,-25.13 270,-21.28 275.31,-30.45 279.87,-25.13"/>
</a>
</g>
</g>
<!-- Node10 -->
<g id="Node000010" class="node">
<title>Node10</title>
<g id="a_Node000010"><a xlink:title=" ">
<polygon fill="#e0e0e0" stroke="#999999" points="358,-20 300,-20 300,0 358,0 358,-20"/>
<text text-anchor="middle" x="329" y="-6.5" font-family="Helvetica,sans-Serif" font-size="10.00">stdalign.h</text>
</a>
</g>
</g>
<!-- Node7&#45;&gt;Node10 -->
<g id="edge11_Node000007_Node000010" class="edge">
<title>Node7&#45;&gt;Node10</title>
<g id="a_edge11_Node000007_Node000010"><a xlink:title=" ">
<path fill="none" stroke="#63b8ff" d="M322.39,-55.59C323.38,-48.93 324.74,-39.75 325.97,-31.44"/>
<polygon fill="#63b8ff" stroke="#63b8ff" points="329.4,-32.2 327.4,-21.8 322.47,-31.17 329.4,-32.2"/>
</a>
</g>
</g>
<!-- Node11 -->
<g id="Node000011" class="node">
<title>Node11</title>
<g id="a_Node000011"><a xlink:href="cast_8h.html" target="_top" xlink:title=" ">
<polygon fill="white" stroke="#666666" points="511.88,-20 444.12,-20 444.12,0 511.88,0 511.88,-20"/>
<text text-anchor="middle" x="478" y="-6.5" font-family="Helvetica,sans-Serif" font-size="10.00">zrtos/cast.h</text>
</a>
</g>
</g>
<!-- Node7&#45;&gt;Node11 -->
<g id="edge12_Node000007_Node000011" class="edge">
<title>Node7&#45;&gt;Node11</title>
<g id="a_edge12_Node000007_Node000011"><a xlink:title=" ">
<path fill="none" stroke="#63b8ff" d="M348.35,-55.59C373.63,-46.9 411.46,-33.89 439.73,-24.16"/>
<polygon fill="#63b8ff" stroke="#63b8ff" points="440.69,-27.53 449.01,-20.97 438.41,-20.91 440.69,-27.53"/>
</a>
</g>
</g>
<!-- Node12&#45;&gt;Node7 -->
<g id="edge14_Node000012_Node000007" class="edge">
<title>Node12&#45;&gt;Node7</title>
<g id="a_edge14_Node000012_Node000007"><a xlink:title=" ">
<path fill="none" stroke="#63b8ff" d="M480.38,-111.59C448.61,-102.71 400.74,-89.31 365.75,-79.52"/>
<polygon fill="#63b8ff" stroke="#63b8ff" points="366.91,-76.21 356.34,-76.89 365.03,-82.95 366.91,-76.21"/>
</a>
</g>
</g>
<!-- Node12&#45;&gt;Node11 -->
<g id="edge15_Node000012_Node000011" class="edge">
<title>Node12&#45;&gt;Node11</title>
<g id="a_edge15_Node000012_Node000011"><a xlink:title=" ">
<path fill="none" stroke="#63b8ff" d="M510.93,-111.62C505.11,-93.84 492.36,-54.88 484.54,-31"/>
<polygon fill="#63b8ff" stroke="#63b8ff" points="487.97,-30.21 481.53,-21.79 481.32,-32.39 487.97,-30.21"/>
</a>
</g>
</g>
<!-- Node13&#45;&gt;Node7 -->
<g id="edge22_Node000013_Node000007" class="edge">
<title>Node13&#45;&gt;Node7</title>
<g id="a_edge22_Node000013_Node000007"><a xlink:title=" ">
<path fill="none" stroke="#63b8ff" d="M255.8,-235.66C253.33,-213.02 249.59,-153.99 271,-112 276.81,-100.61 286.8,-90.73 296.32,-83.15"/>
<polygon fill="#63b8ff" stroke="#63b8ff" points="298.33,-86.02 304.31,-77.27 294.18,-80.38 298.33,-86.02"/>
</a>
</g>
</g>
<!-- Node14 -->
<g id="Node000014" class="node">
<title>Node14</title>
<g id="a_Node000014"><a xlink:href="str_8h.html" target="_top" xlink:title=" ">
<polygon fill="white" stroke="#666666" points="443.12,-194 382.88,-194 382.88,-174 443.12,-174 443.12,-194"/>
<text text-anchor="middle" x="413" y="-180.5" font-family="Helvetica,sans-Serif" font-size="10.00">zrtos/str.h</text>
</a>
</g>
</g>
<!-- Node13&#45;&gt;Node14 -->
<g id="edge17_Node000013_Node000014" class="edge">
<title>Node13&#45;&gt;Node14</title>
<g id="a_edge17_Node000013_Node000014"><a xlink:title=" ">
<path fill="none" stroke="#63b8ff" d="M281.38,-235.62C307.29,-225.66 348.5,-209.81 377.9,-198.5"/>
<polygon fill="#63b8ff" stroke="#63b8ff" points="379.05,-201.81 387.13,-194.95 376.54,-195.27 379.05,-201.81"/>
</a>
</g>
</g>
<!-- Node16 -->
<g id="Node000016" class="node">
<title>Node16</title>
<g id="a_Node000016"><a xlink:href="clist_8h.html" target="_top" xlink:title=" ">
<polygon fill="white" stroke="#666666" points="346.5,-132 279.5,-132 279.5,-112 346.5,-112 346.5,-132"/>
<text text-anchor="middle" x="313" y="-118.5" font-family="Helvetica,sans-Serif" font-size="10.00">zrtos/clist.h</text>
</a>
</g>
</g>
<!-- Node13&#45;&gt;Node16 -->
<g id="edge23_Node000013_Node000016" class="edge">
<title>Node13&#45;&gt;Node16</title>
<g id="a_edge23_Node000013_Node000016"><a xlink:title=" ">
<path fill="none" stroke="#63b8ff" d="M261.21,-235.83C270.25,-216.14 291.69,-169.42 303.97,-142.68"/>
<polygon fill="#63b8ff" stroke="#63b8ff" points="307.12,-144.2 308.11,-133.65 300.76,-141.28 307.12,-144.2"/>
</a>
</g>
</g>
<!-- Node17 -->
<g id="Node000017" class="node">
<title>Node17</title>
<g id="a_Node000017"><a xlink:href="vfs__inode_8h.html" target="_top" xlink:title=" ">
<polygon fill="white" stroke="#666666" points="229.38,-194 140.62,-194 140.62,-174 229.38,-174 229.38,-194"/>
<text text-anchor="middle" x="185" y="-180.5" font-family="Helvetica,sans-Serif" font-size="10.00">zrtos/vfs_inode.h</text>
</a>
</g>
</g>
<!-- Node13&#45;&gt;Node17 -->
<g id="edge25_Node000013_Node000017" class="edge">
<title>Node13&#45;&gt;Node17</title>
<g id="a_edge25_Node000013_Node000017"><a xlink:title=" ">
<path fill="none" stroke="#63b8ff" d="M245.75,-235.62C234.8,-226.5 217.93,-212.45 204.75,-201.46"/>
<polygon fill="#63b8ff" stroke="#63b8ff" points="207.02,-198.79 197.1,-195.08 202.54,-204.17 207.02,-198.79"/>
</a>
</g>
</g>
<!-- Node19 -->
<g id="Node000019" class="node">
<title>Node19</title>
<g id="a_Node000019"><a xlink:href="null_8h.html" target="_top" xlink:title=" ">
<polygon fill="white" stroke="#666666" points="122.25,-200 17.75,-200 17.75,-168 122.25,-168 122.25,-200"/>
<text text-anchor="start" x="25.75" y="-186.5" font-family="Helvetica,sans-Serif" font-size="10.00">zrtos/vfs/module/null</text>
<text text-anchor="middle" x="70" y="-174.5" font-family="Helvetica,sans-Serif" font-size="10.00">/null.h</text>
</a>
</g>
</g>
<!-- Node13&#45;&gt;Node19 -->
<g id="edge30_Node000013_Node000019" class="edge">
<title>Node13&#45;&gt;Node19</title>
<g id="a_edge30_Node000013_Node000019"><a xlink:title=" ">
<path fill="none" stroke="#63b8ff" d="M227.78,-235.62C201.48,-227.19 162.02,-214.53 129.15,-203.98"/>
<polygon fill="#63b8ff" stroke="#63b8ff" points="130.31,-200.68 119.72,-200.95 128.17,-207.34 130.31,-200.68"/>
</a>
</g>
</g>
<!-- Node14&#45;&gt;Node7 -->
<g id="edge19_Node000014_Node000007" class="edge">
<title>Node14&#45;&gt;Node7</title>
<g id="a_edge19_Node000014_Node000007"><a xlink:title=" ">
<path fill="none" stroke="#63b8ff" d="M411.84,-173.81C409.61,-159.35 403.6,-130.97 389,-112 379.32,-99.43 365.09,-89.24 352.14,-81.76"/>
<polygon fill="#63b8ff" stroke="#63b8ff" points="353.94,-78.75 343.48,-77.07 350.61,-84.91 353.94,-78.75"/>
</a>
</g>
</g>
<!-- Node14&#45;&gt;Node11 -->
<g id="edge20_Node000014_Node000011" class="edge">
<title>Node14&#45;&gt;Node11</title>
<g id="a_edge20_Node000014_Node000011"><a xlink:title=" ">
<path fill="none" stroke="#63b8ff" d="M416.59,-173.51C426.87,-146.31 456.58,-67.68 470.56,-30.68"/>
<polygon fill="#63b8ff" stroke="#63b8ff" points="473.71,-32.26 473.97,-21.67 467.16,-29.79 473.71,-32.26"/>
</a>
</g>
</g>
<!-- Node14&#45;&gt;Node12 -->
<g id="edge21_Node000014_Node000012" class="edge">
<title>Node14&#45;&gt;Node12</title>
<g id="a_edge21_Node000014_Node000012"><a xlink:title=" ">
<path fill="none" stroke="#63b8ff" d="M428.78,-173.62C444.79,-164.11 469.82,-149.24 488.62,-138.08"/>
<polygon fill="#63b8ff" stroke="#63b8ff" points="490.22,-141.2 497.03,-133.08 486.64,-135.18 490.22,-141.2"/>
</a>
</g>
</g>
<!-- Node15 -->
<g id="Node000015" class="node">
<title>Node15</title>
<g id="a_Node000015"><a xlink:title=" ">
<polygon fill="#e0e0e0" stroke="#999999" points="255.62,-76 204.38,-76 204.38,-56 255.62,-56 255.62,-76"/>
<text text-anchor="middle" x="230" y="-62.5" font-family="Helvetica,sans-Serif" font-size="10.00">stdarg.h</text>
</a>
</g>
</g>
<!-- Node14&#45;&gt;Node15 -->
<g id="edge18_Node000014_Node000015" class="edge">
<title>Node14&#45;&gt;Node15</title>
<g id="a_edge18_Node000014_Node000015"><a xlink:title=" ">
<path fill="none" stroke="#63b8ff" d="M407.92,-173.8C399.19,-158.81 379.95,-129.05 356,-112 329.3,-92.99 293.75,-81.26 267.22,-74.57"/>
<polygon fill="#63b8ff" stroke="#63b8ff" points="268.1,-71.18 257.56,-72.27 266.48,-77.99 268.1,-71.18"/>
</a>
</g>
</g>
<!-- Node16&#45;&gt;Node7 -->
<g id="edge24_Node000016_Node000007" class="edge">
<title>Node16&#45;&gt;Node7</title>
<g id="a_edge24_Node000016_Node000007"><a xlink:title=" ">
<path fill="none" stroke="#63b8ff" d="M314.39,-111.59C315.38,-104.93 316.74,-95.75 317.97,-87.44"/>
<polygon fill="#63b8ff" stroke="#63b8ff" points="321.4,-88.2 319.4,-77.8 314.47,-87.17 321.4,-88.2"/>
</a>
</g>
</g>
<!-- Node18 -->
<g id="Node000018" class="node">
<title>Node18</title>
<g id="a_Node000018"><a xlink:href="vfs__plugin_8h.html" target="_top" xlink:title=" ">
<polygon fill="white" stroke="#666666" points="222.5,-132 131.5,-132 131.5,-112 222.5,-112 222.5,-132"/>
<text text-anchor="middle" x="177" y="-118.5" font-family="Helvetica,sans-Serif" font-size="10.00">zrtos/vfs_plugin.h</text>
</a>
</g>
</g>
<!-- Node17&#45;&gt;Node18 -->
<g id="edge26_Node000017_Node000018" class="edge">
<title>Node17&#45;&gt;Node18</title>
<g id="a_edge26_Node000017_Node000018"><a xlink:title=" ">
<path fill="none" stroke="#63b8ff" d="M183.75,-173.62C182.68,-165.56 181.09,-153.65 179.72,-143.41"/>
<polygon fill="#63b8ff" stroke="#63b8ff" points="183.21,-143.06 178.42,-133.61 176.27,-143.99 183.21,-143.06"/>
</a>
</g>
</g>
<!-- Node18&#45;&gt;Node2 -->
<g id="edge29_Node000018_Node000002" class="edge">
<title>Node18&#45;&gt;Node2</title>
<g id="a_edge29_Node000018_Node000002"><a xlink:title=" ">
<path fill="none" stroke="#63b8ff" d="M167.42,-111.59C159.77,-104.08 148.84,-93.35 139.62,-84.3"/>
<polygon fill="#63b8ff" stroke="#63b8ff" points="142.14,-81.87 132.55,-77.36 137.23,-86.86 142.14,-81.87"/>
</a>
</g>
</g>
<!-- Node18&#45;&gt;Node7 -->
<g id="edge28_Node000018_Node000007" class="edge">
<title>Node18&#45;&gt;Node7</title>
<g id="a_edge28_Node000018_Node000007"><a xlink:title=" ">
<path fill="none" stroke="#63b8ff" d="M202.08,-111.59C225.07,-102.97 259.35,-90.12 285.21,-80.42"/>
<polygon fill="#63b8ff" stroke="#63b8ff" points="286.17,-83.8 294.3,-77.01 283.71,-77.25 286.17,-83.8"/>
</a>
</g>
</g>
<!-- Node18&#45;&gt;Node15 -->
<g id="edge27_Node000018_Node000015" class="edge">
<title>Node18&#45;&gt;Node15</title>
<g id="a_edge27_Node000018_Node000015"><a xlink:title=" ">
<path fill="none" stroke="#63b8ff" d="M186.23,-111.59C193.6,-104.08 204.13,-93.35 213.02,-84.3"/>
<polygon fill="#63b8ff" stroke="#63b8ff" points="215.31,-86.97 219.81,-77.38 210.31,-82.06 215.31,-86.97"/>
</a>
</g>
</g>
<!-- Node19&#45;&gt;Node18 -->
<g id="edge31_Node000019_Node000018" class="edge">
<title>Node19&#45;&gt;Node18</title>
<g id="a_edge31_Node000019_Node000018"><a xlink:title=" ">
<path fill="none" stroke="#63b8ff" d="M97.56,-167.55C113.81,-158.43 134.28,-146.96 150.37,-137.93"/>
<polygon fill="#63b8ff" stroke="#63b8ff" points="151.89,-141.09 158.9,-133.15 148.47,-134.99 151.89,-141.09"/>
</a>
</g>
</g>
</g>
</svg>
