<?xml version="1.0" encoding="UTF-8" standalone="no"?>
<!DOCTYPE svg PUBLIC "-//W3C//DTD SVG 1.1//EN"
 "http://www.w3.org/Graphics/SVG/1.1/DTD/svg11.dtd">
<!-- Generated by graphviz version 2.40.1 (20161225.0304)
 -->
<!-- Title: zrtos_vfs_dentry__get_inode_data Pages: 1 -->
<svg width="419pt" height="235pt"
 viewBox="0.00 0.00 419.00 235.00" xmlns="http://www.w3.org/2000/svg" xmlns:xlink="http://www.w3.org/1999/xlink">
<g id="graph0" class="graph" transform="scale(1 1) rotate(0) translate(4 231)">
<title>zrtos_vfs_dentry__get_inode_data</title>
<polygon fill="#ffffff" stroke="transparent" points="-4,4 -4,-231 415,-231 415,4 -4,4"/>
<!-- Node28 -->
<g id="node1" class="node">
<title>Node28</title>
<polygon fill="#bfbfbf" stroke="#000000" points="0,-98.5 0,-128.5 113,-128.5 113,-98.5 0,-98.5"/>
<text text-anchor="start" x="8" y="-116.5" font-family="Helvetica,sans-Serif" font-size="10.00" fill="#000000">zrtos_vfs_dentry__get</text>
<text text-anchor="middle" x="56.5" y="-105.5" font-family="Helvetica,sans-Serif" font-size="10.00" fill="#000000">_inode_data</text>
</g>
<!-- Node29 -->
<g id="node2" class="node">
<title>Node29</title>
<g id="a_node2"><a xlink:href="avr_2spi_2spi_8h.html#ae1429a164723e9eff5e3f28991322267" target="_top" xlink:title="zrtos_vfs_module_avr\l_spi__on_mount">
<polygon fill="#ffffff" stroke="#000000" points="149,-196.5 149,-226.5 262,-226.5 262,-196.5 149,-196.5"/>
<text text-anchor="start" x="157" y="-214.5" font-family="Helvetica,sans-Serif" font-size="10.00" fill="#000000">zrtos_vfs_module_avr</text>
<text text-anchor="middle" x="205.5" y="-203.5" font-family="Helvetica,sans-Serif" font-size="10.00" fill="#000000">_spi__on_mount</text>
</a>
</g>
</g>
<!-- Node28&#45;&gt;Node29 -->
<g id="edge1" class="edge">
<title>Node28&#45;&gt;Node29</title>
<path fill="none" stroke="#191970" d="M80.1924,-135.4751C98.1285,-151.3344 123.8868,-172.5074 149,-187.5 154.3989,-190.7231 160.3103,-193.7354 166.2111,-196.4628"/>
<polygon fill="#191970" stroke="#191970" points="82.3134,-132.6759 72.5324,-128.6036 77.6391,-137.8866 82.3134,-132.6759"/>
</g>
<!-- Node31 -->
<g id="node4" class="node">
<title>Node31</title>
<g id="a_node4"><a xlink:href="uart0_8h.html#a6d4b2d66f34cb9716c8ff3364349555e" target="_top" xlink:title="zrtos_vfs_module_avr\l_uart0__on_mount">
<polygon fill="#ffffff" stroke="#000000" points="149,-147.5 149,-177.5 262,-177.5 262,-147.5 149,-147.5"/>
<text text-anchor="start" x="157" y="-165.5" font-family="Helvetica,sans-Serif" font-size="10.00" fill="#000000">zrtos_vfs_module_avr</text>
<text text-anchor="middle" x="205.5" y="-154.5" font-family="Helvetica,sans-Serif" font-size="10.00" fill="#000000">_uart0__on_mount</text>
</a>
</g>
</g>
<!-- Node28&#45;&gt;Node31 -->
<g id="edge3" class="edge">
<title>Node28&#45;&gt;Node31</title>
<path fill="none" stroke="#191970" d="M112.0225,-131.7591C127.738,-136.9273 144.6606,-142.4924 159.7309,-147.4484"/>
<polygon fill="#191970" stroke="#191970" points="113.0136,-128.4007 102.4207,-128.6014 110.8268,-135.0503 113.0136,-128.4007"/>
</g>
<!-- Node33 -->
<g id="node6" class="node">
<title>Node33</title>
<g id="a_node6"><a xlink:href="uart1_8h.html#afa55913686cef53e9c0299b65cb3afd0" target="_top" xlink:title="zrtos_vfs_module_avr\l_uart1__on_mount">
<polygon fill="#ffffff" stroke="#000000" points="149,-98.5 149,-128.5 262,-128.5 262,-98.5 149,-98.5"/>
<text text-anchor="start" x="157" y="-116.5" font-family="Helvetica,sans-Serif" font-size="10.00" fill="#000000">zrtos_vfs_module_avr</text>
<text text-anchor="middle" x="205.5" y="-105.5" font-family="Helvetica,sans-Serif" font-size="10.00" fill="#000000">_uart1__on_mount</text>
</a>
</g>
</g>
<!-- Node28&#45;&gt;Node33 -->
<g id="edge5" class="edge">
<title>Node28&#45;&gt;Node33</title>
<path fill="none" stroke="#191970" d="M123.5076,-113.5C131.9902,-113.5 140.6037,-113.5 148.9022,-113.5"/>
<polygon fill="#191970" stroke="#191970" points="123.2556,-110.0001 113.2556,-113.5 123.2555,-117.0001 123.2556,-110.0001"/>
</g>
<!-- Node35 -->
<g id="node8" class="node">
<title>Node35</title>
<g id="a_node8"><a xlink:href="uart2_8h.html#a38a5cf860eb80ff299465dace7624a9a" target="_top" xlink:title="zrtos_vfs_module_avr\l_uart2__on_mount">
<polygon fill="#ffffff" stroke="#000000" points="149,-49.5 149,-79.5 262,-79.5 262,-49.5 149,-49.5"/>
<text text-anchor="start" x="157" y="-67.5" font-family="Helvetica,sans-Serif" font-size="10.00" fill="#000000">zrtos_vfs_module_avr</text>
<text text-anchor="middle" x="205.5" y="-56.5" font-family="Helvetica,sans-Serif" font-size="10.00" fill="#000000">_uart2__on_mount</text>
</a>
</g>
</g>
<!-- Node28&#45;&gt;Node35 -->
<g id="edge7" class="edge">
<title>Node28&#45;&gt;Node35</title>
<path fill="none" stroke="#191970" d="M112.0225,-95.2409C127.738,-90.0727 144.6606,-84.5076 159.7309,-79.5516"/>
<polygon fill="#191970" stroke="#191970" points="110.8268,-91.9497 102.4207,-98.3986 113.0136,-98.5993 110.8268,-91.9497"/>
</g>
<!-- Node37 -->
<g id="node10" class="node">
<title>Node37</title>
<g id="a_node10"><a xlink:href="uart3_8h.html#a4e9ea3b1efdb9c3d1a6c2e4be4f8823c" target="_top" xlink:title="zrtos_vfs_module_avr\l_uart3__on_mount">
<polygon fill="#ffffff" stroke="#000000" points="149,-.5 149,-30.5 262,-30.5 262,-.5 149,-.5"/>
<text text-anchor="start" x="157" y="-18.5" font-family="Helvetica,sans-Serif" font-size="10.00" fill="#000000">zrtos_vfs_module_avr</text>
<text text-anchor="middle" x="205.5" y="-7.5" font-family="Helvetica,sans-Serif" font-size="10.00" fill="#000000">_uart3__on_mount</text>
</a>
</g>
</g>
<!-- Node28&#45;&gt;Node37 -->
<g id="edge9" class="edge">
<title>Node28&#45;&gt;Node37</title>
<path fill="none" stroke="#191970" d="M80.6373,-91.6708C98.6151,-76.1245 124.2325,-55.4255 149,-40.5 154.8798,-36.9567 161.3509,-33.6226 167.7502,-30.6144"/>
<polygon fill="#191970" stroke="#191970" points="78.1591,-89.1888 72.9453,-98.4119 82.7728,-94.4532 78.1591,-89.1888"/>
</g>
<!-- Node30 -->
<g id="node3" class="node">
<title>Node30</title>
<g id="a_node3"><a xlink:href="avr_2spi_2spi_8h.html#ab6f547c3ce7ee0463c235abe078f9491" target="_top" xlink:title="zrtos_vfs_module_avr\l_spi__on_write">
<polygon fill="#ffffff" stroke="#000000" points="298,-196.5 298,-226.5 411,-226.5 411,-196.5 298,-196.5"/>
<text text-anchor="start" x="306" y="-214.5" font-family="Helvetica,sans-Serif" font-size="10.00" fill="#000000">zrtos_vfs_module_avr</text>
<text text-anchor="middle" x="354.5" y="-203.5" font-family="Helvetica,sans-Serif" font-size="10.00" fill="#000000">_spi__on_write</text>
</a>
</g>
</g>
<!-- Node29&#45;&gt;Node30 -->
<g id="edge2" class="edge">
<title>Node29&#45;&gt;Node30</title>
<path fill="none" stroke="#191970" d="M272.5076,-211.5C280.9902,-211.5 289.6037,-211.5 297.9022,-211.5"/>
<polygon fill="#191970" stroke="#191970" points="272.2556,-208.0001 262.2556,-211.5 272.2555,-215.0001 272.2556,-208.0001"/>
</g>
<!-- Node32 -->
<g id="node5" class="node">
<title>Node32</title>
<g id="a_node5"><a xlink:href="uart0_8h.html#a1c08ba1c9bac4dd9a045d06a07dbe0b4" target="_top" xlink:title="zrtos_vfs_module_avr\l_uart0__on_write">
<polygon fill="#ffffff" stroke="#000000" points="298,-147.5 298,-177.5 411,-177.5 411,-147.5 298,-147.5"/>
<text text-anchor="start" x="306" y="-165.5" font-family="Helvetica,sans-Serif" font-size="10.00" fill="#000000">zrtos_vfs_module_avr</text>
<text text-anchor="middle" x="354.5" y="-154.5" font-family="Helvetica,sans-Serif" font-size="10.00" fill="#000000">_uart0__on_write</text>
</a>
</g>
</g>
<!-- Node31&#45;&gt;Node32 -->
<g id="edge4" class="edge">
<title>Node31&#45;&gt;Node32</title>
<path fill="none" stroke="#191970" d="M272.5076,-162.5C280.9902,-162.5 289.6037,-162.5 297.9022,-162.5"/>
<polygon fill="#191970" stroke="#191970" points="272.2556,-159.0001 262.2556,-162.5 272.2555,-166.0001 272.2556,-159.0001"/>
</g>
<!-- Node34 -->
<g id="node7" class="node">
<title>Node34</title>
<g id="a_node7"><a xlink:href="uart1_8h.html#af04452122e72ab7408b2e207191cdd33" target="_top" xlink:title="zrtos_vfs_module_avr\l_uart1__on_write">
<polygon fill="#ffffff" stroke="#000000" points="298,-98.5 298,-128.5 411,-128.5 411,-98.5 298,-98.5"/>
<text text-anchor="start" x="306" y="-116.5" font-family="Helvetica,sans-Serif" font-size="10.00" fill="#000000">zrtos_vfs_module_avr</text>
<text text-anchor="middle" x="354.5" y="-105.5" font-family="Helvetica,sans-Serif" font-size="10.00" fill="#000000">_uart1__on_write</text>
</a>
</g>
</g>
<!-- Node33&#45;&gt;Node34 -->
<g id="edge6" class="edge">
<title>Node33&#45;&gt;Node34</title>
<path fill="none" stroke="#191970" d="M272.5076,-113.5C280.9902,-113.5 289.6037,-113.5 297.9022,-113.5"/>
<polygon fill="#191970" stroke="#191970" points="272.2556,-110.0001 262.2556,-113.5 272.2555,-117.0001 272.2556,-110.0001"/>
</g>
<!-- Node36 -->
<g id="node9" class="node">
<title>Node36</title>
<g id="a_node9"><a xlink:href="uart2_8h.html#a244148efdde4e736bdcba74328e85415" target="_top" xlink:title="zrtos_vfs_module_avr\l_uart2__on_write">
<polygon fill="#ffffff" stroke="#000000" points="298,-49.5 298,-79.5 411,-79.5 411,-49.5 298,-49.5"/>
<text text-anchor="start" x="306" y="-67.5" font-family="Helvetica,sans-Serif" font-size="10.00" fill="#000000">zrtos_vfs_module_avr</text>
<text text-anchor="middle" x="354.5" y="-56.5" font-family="Helvetica,sans-Serif" font-size="10.00" fill="#000000">_uart2__on_write</text>
</a>
</g>
</g>
<!-- Node35&#45;&gt;Node36 -->
<g id="edge8" class="edge">
<title>Node35&#45;&gt;Node36</title>
<path fill="none" stroke="#191970" d="M272.5076,-64.5C280.9902,-64.5 289.6037,-64.5 297.9022,-64.5"/>
<polygon fill="#191970" stroke="#191970" points="272.2556,-61.0001 262.2556,-64.5 272.2555,-68.0001 272.2556,-61.0001"/>
</g>
<!-- Node38 -->
<g id="node11" class="node">
<title>Node38</title>
<g id="a_node11"><a xlink:href="uart3_8h.html#a0ac21cf2483f89180a91b9ca480eb7b8" target="_top" xlink:title="zrtos_vfs_module_avr\l_uart3__on_write">
<polygon fill="#ffffff" stroke="#000000" points="298,-.5 298,-30.5 411,-30.5 411,-.5 298,-.5"/>
<text text-anchor="start" x="306" y="-18.5" font-family="Helvetica,sans-Serif" font-size="10.00" fill="#000000">zrtos_vfs_module_avr</text>
<text text-anchor="middle" x="354.5" y="-7.5" font-family="Helvetica,sans-Serif" font-size="10.00" fill="#000000">_uart3__on_write</text>
</a>
</g>
</g>
<!-- Node37&#45;&gt;Node38 -->
<g id="edge10" class="edge">
<title>Node37&#45;&gt;Node38</title>
<path fill="none" stroke="#191970" d="M272.5076,-15.5C280.9902,-15.5 289.6037,-15.5 297.9022,-15.5"/>
<polygon fill="#191970" stroke="#191970" points="272.2556,-12.0001 262.2556,-15.5 272.2555,-19.0001 272.2556,-12.0001"/>
</g>
</g>
</svg>
