<?xml version="1.0" encoding="UTF-8" standalone="no"?>
<!DOCTYPE svg PUBLIC "-//W3C//DTD SVG 1.1//EN"
 "http://www.w3.org/Graphics/SVG/1.1/DTD/svg11.dtd">
<!-- Generated by graphviz version 10.0.1 (20240210.2158)
 -->
<!-- Title: zrtos_vfs_notify__remove Pages: 1 -->
<svg width="416pt" height="28pt"
 viewBox="0.00 0.00 416.00 28.00" xmlns="http://www.w3.org/2000/svg" xmlns:xlink="http://www.w3.org/1999/xlink">
<g id="graph0" class="graph" transform="scale(1 1) rotate(0) translate(4 24)">
<title>zrtos_vfs_notify__remove</title>
<!-- Node1 -->
<g id="Node000001" class="node">
<title>Node1</title>
<g id="a_Node000001"><a xlink:title=" ">
<polygon fill="#999999" stroke="#666666" points="124,-20 0,-20 0,0 124,0 124,-20"/>
<text text-anchor="middle" x="62" y="-6.5" font-family="Helvetica,sans-Serif" font-size="10.00">zrtos_vfs_notify__remove</text>
</a>
</g>
</g>
<!-- Node2 -->
<g id="Node000002" class="node">
<title>Node2</title>
<g id="a_Node000002"><a xlink:href="vfs__fd_8h.html#ad15bcee237278a1e0d14f758b3cd0990" target="_top" xlink:title=" ">
<polygon fill="white" stroke="#666666" points="277.25,-20 160,-20 160,0 277.25,0 277.25,-20"/>
<text text-anchor="middle" x="218.62" y="-6.5" font-family="Helvetica,sans-Serif" font-size="10.00">zrtos_vfs_fd_set__clear</text>
</a>
</g>
</g>
<!-- Node1&#45;&gt;Node2 -->
<g id="edge1_Node000001_Node000002" class="edge">
<title>Node1&#45;&gt;Node2</title>
<g id="a_edge1_Node000001_Node000002"><a xlink:title=" ">
<path fill="none" stroke="#63b8ff" d="M124.11,-10C132.09,-10 140.3,-10 148.4,-10"/>
<polygon fill="#63b8ff" stroke="#63b8ff" points="148.22,-13.5 158.22,-10 148.22,-6.5 148.22,-13.5"/>
</a>
</g>
</g>
<!-- Node3 -->
<g id="Node000003" class="node">
<title>Node3</title>
<g id="a_Node000003"><a xlink:href="bitfield_8h.html#a31e4cbdaf65df7464b28c25d1780eb84" target="_top" xlink:title=" ">
<polygon fill="white" stroke="#666666" points="408,-20 313.25,-20 313.25,0 408,0 408,-20"/>
<text text-anchor="middle" x="360.62" y="-6.5" font-family="Helvetica,sans-Serif" font-size="10.00">zrtos_bitfield__set</text>
</a>
</g>
</g>
<!-- Node2&#45;&gt;Node3 -->
<g id="edge2_Node000002_Node000003" class="edge">
<title>Node2&#45;&gt;Node3</title>
<g id="a_edge2_Node000002_Node000003"><a xlink:title=" ">
<path fill="none" stroke="#63b8ff" d="M277.38,-10C285.47,-10 293.78,-10 301.87,-10"/>
<polygon fill="#63b8ff" stroke="#63b8ff" points="301.59,-13.5 311.59,-10 301.59,-6.5 301.59,-13.5"/>
</a>
</g>
</g>
</g>
</svg>
