<?xml version="1.0" encoding="UTF-8" standalone="no"?>
<!DOCTYPE svg PUBLIC "-//W3C//DTD SVG 1.1//EN"
 "http://www.w3.org/Graphics/SVG/1.1/DTD/svg11.dtd">
<!-- Generated by graphviz version 10.0.1 (20240210.2158)
 -->
<!-- Title: zrtos_vfs_dentry__init Pages: 1 -->
<svg width="580pt" height="145pt"
 viewBox="0.00 0.00 579.75 145.00" xmlns="http://www.w3.org/2000/svg" xmlns:xlink="http://www.w3.org/1999/xlink">
<g id="graph0" class="graph" transform="scale(1 1) rotate(0) translate(4 141)">
<title>zrtos_vfs_dentry__init</title>
<!-- Node1 -->
<g id="Node000001" class="node">
<title>Node1</title>
<g id="a_Node000001"><a xlink:title=" ">
<polygon fill="#999999" stroke="#666666" points="109.75,-58 0,-58 0,-38 109.75,-38 109.75,-58"/>
<text text-anchor="middle" x="54.88" y="-44.5" font-family="Helvetica,sans-Serif" font-size="10.00">zrtos_vfs_dentry__init</text>
</a>
</g>
</g>
<!-- Node2 -->
<g id="Node000002" class="node">
<title>Node2</title>
<g id="a_Node000002"><a xlink:href="clist_8h.html#a853d4178de18748d3bee28700929bda4" target="_top" xlink:title=" ">
<polygon fill="white" stroke="#666666" points="247.25,-96 154.75,-96 154.75,-76 247.25,-76 247.25,-96"/>
<text text-anchor="middle" x="201" y="-82.5" font-family="Helvetica,sans-Serif" font-size="10.00">zrtos_clist__push</text>
</a>
</g>
</g>
<!-- Node1&#45;&gt;Node2 -->
<g id="edge1_Node000001_Node000002" class="edge">
<title>Node1&#45;&gt;Node2</title>
<g id="a_edge1_Node000001_Node000002"><a xlink:title=" ">
<path fill="none" stroke="#63b8ff" d="M95.64,-58.48C112.26,-62.87 131.77,-68.01 149.39,-72.66"/>
<polygon fill="#63b8ff" stroke="#63b8ff" points="148.34,-76 158.9,-75.16 150.12,-69.23 148.34,-76"/>
</a>
</g>
</g>
<!-- Node7 -->
<g id="Node000007" class="node">
<title>Node7</title>
<g id="a_Node000007"><a xlink:href="clist_8h.html#a26b8f9c0c172cd6d9deba237155bf40a" target="_top" xlink:title=" ">
<polygon fill="white" stroke="#666666" points="256.25,-58 145.75,-58 145.75,-38 256.25,-38 256.25,-58"/>
<text text-anchor="middle" x="201" y="-44.5" font-family="Helvetica,sans-Serif" font-size="10.00">zrtos_clist_node__init</text>
</a>
</g>
</g>
<!-- Node1&#45;&gt;Node7 -->
<g id="edge6_Node000001_Node000007" class="edge">
<title>Node1&#45;&gt;Node7</title>
<g id="a_edge6_Node000001_Node000007"><a xlink:title=" ">
<path fill="none" stroke="#63b8ff" d="M109.95,-48C117.88,-48 126.11,-48 134.24,-48"/>
<polygon fill="#63b8ff" stroke="#63b8ff" points="134.11,-51.5 144.11,-48 134.11,-44.5 134.11,-51.5"/>
</a>
</g>
</g>
<!-- Node8 -->
<g id="Node000008" class="node">
<title>Node8</title>
<g id="a_Node000008"><a xlink:href="vfs__inode_8h.html#a017cf6850f11efa189da7d3655d9ea53" target="_top" xlink:title=" ">
<polygon fill="white" stroke="#666666" points="254,-20 148,-20 148,0 254,0 254,-20"/>
<text text-anchor="middle" x="201" y="-6.5" font-family="Helvetica,sans-Serif" font-size="10.00">zrtos_vfs_inode__init</text>
</a>
</g>
</g>
<!-- Node1&#45;&gt;Node8 -->
<g id="edge7_Node000001_Node000008" class="edge">
<title>Node1&#45;&gt;Node8</title>
<g id="a_edge7_Node000001_Node000008"><a xlink:title=" ">
<path fill="none" stroke="#63b8ff" d="M95.64,-37.52C112.26,-33.13 131.77,-27.99 149.39,-23.34"/>
<polygon fill="#63b8ff" stroke="#63b8ff" points="150.12,-26.77 158.9,-20.84 148.34,-20 150.12,-26.77"/>
</a>
</g>
</g>
<!-- Node3 -->
<g id="Node000003" class="node">
<title>Node3</title>
<g id="a_Node000003"><a xlink:href="clist_8h.html#ad48884723dee26734c89f80bef68d0d5" target="_top" xlink:title=" ">
<polygon fill="white" stroke="#666666" points="424.5,-115 292.25,-115 292.25,-95 424.5,-95 424.5,-115"/>
<text text-anchor="middle" x="358.38" y="-101.5" font-family="Helvetica,sans-Serif" font-size="10.00">zrtos_clist__get_last_node</text>
</a>
</g>
</g>
<!-- Node2&#45;&gt;Node3 -->
<g id="edge2_Node000002_Node000003" class="edge">
<title>Node2&#45;&gt;Node3</title>
<g id="a_edge2_Node000002_Node000003"><a xlink:title=" ">
<path fill="none" stroke="#63b8ff" d="M247.36,-91.55C257.77,-92.82 269.13,-94.21 280.46,-95.59"/>
<polygon fill="#63b8ff" stroke="#63b8ff" points="279.9,-99.05 290.25,-96.79 280.75,-92.1 279.9,-99.05"/>
</a>
</g>
</g>
<!-- Node6 -->
<g id="Node000006" class="node">
<title>Node6</title>
<g id="a_Node000006"><a xlink:href="clist_8h.html#a2795f97f269d0259065d7c7219d09341" target="_top" xlink:title=" ">
<polygon fill="white" stroke="#666666" points="423,-77 293.75,-77 293.75,-57 423,-57 423,-77"/>
<text text-anchor="middle" x="358.38" y="-63.5" font-family="Helvetica,sans-Serif" font-size="10.00">zrtos_clist_node__append</text>
</a>
</g>
</g>
<!-- Node2&#45;&gt;Node6 -->
<g id="edge5_Node000002_Node000006" class="edge">
<title>Node2&#45;&gt;Node6</title>
<g id="a_edge5_Node000002_Node000006"><a xlink:title=" ">
<path fill="none" stroke="#63b8ff" d="M247.36,-80.45C258.29,-79.12 270.25,-77.65 282.15,-76.2"/>
<polygon fill="#63b8ff" stroke="#63b8ff" points="282.48,-79.68 291.98,-75 281.63,-72.74 282.48,-79.68"/>
</a>
</g>
</g>
<!-- Node4 -->
<g id="Node000004" class="node">
<title>Node4</title>
<g id="a_Node000004"><a xlink:href="clist_8h.html#acab2b5c771ea45635a9621a9dc1382d4" target="_top" xlink:title=" ">
<polygon fill="white" stroke="#666666" points="569.5,-137 462.75,-137 462.75,-117 569.5,-117 569.5,-137"/>
<text text-anchor="middle" x="516.12" y="-123.5" font-family="Helvetica,sans-Serif" font-size="10.00">zrtos_clist__get_root</text>
</a>
</g>
</g>
<!-- Node3&#45;&gt;Node4 -->
<g id="edge3_Node000003_Node000004" class="edge">
<title>Node3&#45;&gt;Node4</title>
<g id="a_edge3_Node000003_Node000004"><a xlink:title=" ">
<path fill="none" stroke="#63b8ff" d="M424.98,-114.27C433.65,-115.49 442.53,-116.75 451.17,-117.97"/>
<polygon fill="#63b8ff" stroke="#63b8ff" points="450.47,-121.4 460.86,-119.33 451.45,-114.47 450.47,-121.4"/>
</a>
</g>
</g>
<!-- Node5 -->
<g id="Node000005" class="node">
<title>Node5</title>
<g id="a_Node000005"><a xlink:href="clist_8h.html#a7e4e2a2b78267e86a322ece473242b47" target="_top" xlink:title=" ">
<polygon fill="white" stroke="#666666" points="571.75,-99 460.5,-99 460.5,-67 571.75,-67 571.75,-99"/>
<text text-anchor="start" x="468.5" y="-85.5" font-family="Helvetica,sans-Serif" font-size="10.00">zrtos_clist_node__get</text>
<text text-anchor="middle" x="516.12" y="-73.5" font-family="Helvetica,sans-Serif" font-size="10.00">_previous_node</text>
</a>
</g>
</g>
<!-- Node3&#45;&gt;Node5 -->
<g id="edge4_Node000003_Node000005" class="edge">
<title>Node3&#45;&gt;Node5</title>
<g id="a_edge4_Node000003_Node000005"><a xlink:title=" ">
<path fill="none" stroke="#63b8ff" d="M424.98,-95.73C433,-94.6 441.2,-93.44 449.23,-92.31"/>
<polygon fill="#63b8ff" stroke="#63b8ff" points="449.52,-95.8 458.93,-90.94 448.54,-88.87 449.52,-95.8"/>
</a>
</g>
</g>
</g>
</svg>
