<?xml version="1.0" encoding="UTF-8" standalone="no"?>
<!DOCTYPE svg PUBLIC "-//W3C//DTD SVG 1.1//EN"
 "http://www.w3.org/Graphics/SVG/1.1/DTD/svg11.dtd">
<!-- Generated by graphviz version 10.0.1 (20240210.2158)
 -->
<!-- Title: zrtos_vfs_fd__write_sync Pages: 1 -->
<svg width="429pt" height="116pt"
 viewBox="0.00 0.00 428.75 116.00" xmlns="http://www.w3.org/2000/svg" xmlns:xlink="http://www.w3.org/1999/xlink">
<g id="graph0" class="graph" transform="scale(1 1) rotate(0) translate(4 112)">
<title>zrtos_vfs_fd__write_sync</title>
<!-- Node1 -->
<g id="Node000001" class="node">
<title>Node1</title>
<g id="a_Node000001"><a xlink:title=" ">
<polygon fill="#999999" stroke="#666666" points="124,-64 0,-64 0,-44 124,-44 124,-64"/>
<text text-anchor="middle" x="62" y="-50.5" font-family="Helvetica,sans-Serif" font-size="10.00">zrtos_vfs_fd__write_sync</text>
</a>
</g>
</g>
<!-- Node2 -->
<g id="Node000002" class="node">
<title>Node2</title>
<g id="a_Node000002"><a xlink:href="error_8h.html#add13298163f63b7d37ed9f12d57e1a31" target="_top" xlink:title=" ">
<polygon fill="white" stroke="#666666" points="282.5,-108 160,-108 160,-88 282.5,-88 282.5,-108"/>
<text text-anchor="middle" x="221.25" y="-94.5" font-family="Helvetica,sans-Serif" font-size="10.00">zrtos_error__is_success</text>
</a>
</g>
</g>
<!-- Node1&#45;&gt;Node2 -->
<g id="edge1_Node000001_Node000002" class="edge">
<title>Node1&#45;&gt;Node2</title>
<g id="a_edge1_Node000001_Node000002"><a xlink:title=" ">
<path fill="none" stroke="#63b8ff" d="M100.27,-64.43C121.73,-70.43 148.94,-78.05 172.02,-84.51"/>
<polygon fill="#63b8ff" stroke="#63b8ff" points="170.95,-87.84 181.52,-87.16 172.83,-81.1 170.95,-87.84"/>
</a>
</g>
</g>
<!-- Node3 -->
<g id="Node000003" class="node">
<title>Node3</title>
<g id="a_Node000003"><a xlink:href="vfs__fd_8h.html#a95d1b7c8b9ceed7e6f9f44e8831f4700" target="_top" xlink:title=" ">
<polygon fill="white" stroke="#666666" points="276.88,-70 165.62,-70 165.62,-38 276.88,-38 276.88,-70"/>
<text text-anchor="start" x="173.62" y="-56.5" font-family="Helvetica,sans-Serif" font-size="10.00">zrtos_vfs_fd__is_sync</text>
<text text-anchor="middle" x="221.25" y="-44.5" font-family="Helvetica,sans-Serif" font-size="10.00">_again_error</text>
</a>
</g>
</g>
<!-- Node1&#45;&gt;Node3 -->
<g id="edge2_Node000001_Node000003" class="edge">
<title>Node1&#45;&gt;Node3</title>
<g id="a_edge2_Node000001_Node000003"><a xlink:title=" ">
<path fill="none" stroke="#63b8ff" d="M124.25,-54C133.98,-54 144.08,-54 153.93,-54"/>
<polygon fill="#63b8ff" stroke="#63b8ff" points="153.81,-57.5 163.81,-54 153.81,-50.5 153.81,-57.5"/>
</a>
</g>
</g>
<!-- Node4 -->
<g id="Node000004" class="node">
<title>Node4</title>
<g id="a_Node000004"><a xlink:href="vfs__fd_8h.html#a823e991e7f073e7c8f835309fe4ba2aa" target="_top" xlink:title=" ">
<polygon fill="white" stroke="#666666" points="270.12,-20 172.38,-20 172.38,0 270.12,0 270.12,-20"/>
<text text-anchor="middle" x="221.25" y="-6.5" font-family="Helvetica,sans-Serif" font-size="10.00">zrtos_vfs_fd__write</text>
</a>
</g>
</g>
<!-- Node1&#45;&gt;Node4 -->
<g id="edge3_Node000001_Node000004" class="edge">
<title>Node1&#45;&gt;Node4</title>
<g id="a_edge3_Node000001_Node000004"><a xlink:title=" ">
<path fill="none" stroke="#63b8ff" d="M100.27,-43.57C121.73,-37.57 148.94,-29.95 172.02,-23.49"/>
<polygon fill="#63b8ff" stroke="#63b8ff" points="172.83,-26.9 181.52,-20.84 170.95,-20.16 172.83,-26.9"/>
</a>
</g>
</g>
<!-- Node5 -->
<g id="Node000005" class="node">
<title>Node5</title>
<g id="a_Node000005"><a xlink:href="vfs__file_8h.html#aa8a4e752ff2d76c564cca915eb8ad71d" target="_top" xlink:title=" ">
<polygon fill="white" stroke="#666666" points="420.75,-20 318.5,-20 318.5,0 420.75,0 420.75,-20"/>
<text text-anchor="middle" x="369.62" y="-6.5" font-family="Helvetica,sans-Serif" font-size="10.00">zrtos_vfs_file__write</text>
</a>
</g>
</g>
<!-- Node4&#45;&gt;Node5 -->
<g id="edge4_Node000004_Node000005" class="edge">
<title>Node4&#45;&gt;Node5</title>
<g id="a_edge4_Node000004_Node000005"><a xlink:title=" ">
<path fill="none" stroke="#63b8ff" d="M270.58,-10C282.13,-10 294.62,-10 306.68,-10"/>
<polygon fill="#63b8ff" stroke="#63b8ff" points="306.57,-13.5 316.57,-10 306.57,-6.5 306.57,-13.5"/>
</a>
</g>
</g>
</g>
</svg>
