<?xml version="1.0" encoding="UTF-8" standalone="no"?>
<!DOCTYPE svg PUBLIC "-//W3C//DTD SVG 1.1//EN"
 "http://www.w3.org/Graphics/SVG/1.1/DTD/svg11.dtd">
<!-- Generated by graphviz version 2.40.1 (20161225.0304)
 -->
<!-- Title: zrtos_vfs_notify__add Pages: 1 -->
<svg width="402pt" height="28pt"
 viewBox="0.00 0.00 402.00 28.00" xmlns="http://www.w3.org/2000/svg" xmlns:xlink="http://www.w3.org/1999/xlink">
<g id="graph0" class="graph" transform="scale(1 1) rotate(0) translate(4 24)">
<title>zrtos_vfs_notify__add</title>
<polygon fill="#ffffff" stroke="transparent" points="-4,4 -4,-24 398,-24 398,4 -4,4"/>
<!-- Node0 -->
<g id="node1" class="node">
<title>Node0</title>
<polygon fill="#bfbfbf" stroke="#000000" points="0,-.5 0,-19.5 113,-19.5 113,-.5 0,-.5"/>
<text text-anchor="middle" x="56.5" y="-7.5" font-family="Helvetica,sans-Serif" font-size="10.00" fill="#000000">zrtos_vfs_notify__add</text>
</g>
<!-- Node1 -->
<g id="node2" class="node">
<title>Node1</title>
<g id="a_node2"><a xlink:href="vfs__fd_8h.html#a4f1ec4e10e75a6a8a3c5f4f6fd555a13" target="_top" xlink:title="zrtos_vfs_fd_set__set">
<polygon fill="#ffffff" stroke="#000000" points="149,-.5 149,-19.5 262,-19.5 262,-.5 149,-.5"/>
<text text-anchor="middle" x="205.5" y="-7.5" font-family="Helvetica,sans-Serif" font-size="10.00" fill="#000000">zrtos_vfs_fd_set__set</text>
</a>
</g>
</g>
<!-- Node0&#45;&gt;Node1 -->
<g id="edge1" class="edge">
<title>Node0&#45;&gt;Node1</title>
<path fill="none" stroke="#191970" d="M113.2556,-10C121.558,-10 130.1727,-10 138.6536,-10"/>
<polygon fill="#191970" stroke="#191970" points="138.9023,-13.5001 148.9022,-10 138.9022,-6.5001 138.9023,-13.5001"/>
</g>
<!-- Node2 -->
<g id="node3" class="node">
<title>Node2</title>
<g id="a_node3"><a xlink:href="bitfield_8h.html#a31e4cbdaf65df7464b28c25d1780eb84" target="_top" xlink:title="zrtos_bitfield__set">
<polygon fill="#ffffff" stroke="#000000" points="298,-.5 298,-19.5 394,-19.5 394,-.5 298,-.5"/>
<text text-anchor="middle" x="346" y="-7.5" font-family="Helvetica,sans-Serif" font-size="10.00" fill="#000000">zrtos_bitfield__set</text>
</a>
</g>
</g>
<!-- Node1&#45;&gt;Node2 -->
<g id="edge2" class="edge">
<title>Node1&#45;&gt;Node2</title>
<path fill="none" stroke="#191970" d="M262.2417,-10C270.5801,-10 279.1823,-10 287.5542,-10"/>
<polygon fill="#191970" stroke="#191970" points="287.6187,-13.5001 297.6187,-10 287.6186,-6.5001 287.6187,-13.5001"/>
</g>
</g>
</svg>
