<?xml version="1.0" encoding="UTF-8" standalone="no"?>
<!DOCTYPE svg PUBLIC "-//W3C//DTD SVG 1.1//EN"
 "http://www.w3.org/Graphics/SVG/1.1/DTD/svg11.dtd">
<!-- Generated by graphviz version 2.40.1 (20161225.0304)
 -->
<!-- Title: zrtos_vfs_file__can_read Pages: 1 -->
<svg width="585pt" height="28pt"
 viewBox="0.00 0.00 585.00 28.00" xmlns="http://www.w3.org/2000/svg" xmlns:xlink="http://www.w3.org/1999/xlink">
<g id="graph0" class="graph" transform="scale(1 1) rotate(0) translate(4 24)">
<title>zrtos_vfs_file__can_read</title>
<polygon fill="#ffffff" stroke="transparent" points="-4,4 -4,-24 581,-24 581,4 -4,4"/>
<!-- Node1 -->
<g id="node1" class="node">
<title>Node1</title>
<polygon fill="#bfbfbf" stroke="#000000" points="0,-.5 0,-19.5 125,-19.5 125,-.5 0,-.5"/>
<text text-anchor="middle" x="62.5" y="-7.5" font-family="Helvetica,sans-Serif" font-size="10.00" fill="#000000">zrtos_vfs_file__can_read</text>
</g>
<!-- Node2 -->
<g id="node2" class="node">
<title>Node2</title>
<g id="a_node2"><a xlink:href="vfs__fd_8h.html#adf388ba2df2bcae398b2a985609d364e" target="_top" xlink:title="zrtos_vfs_fd__can_read">
<polygon fill="#ffffff" stroke="#000000" points="161,-.5 161,-19.5 282,-19.5 282,-.5 161,-.5"/>
<text text-anchor="middle" x="221.5" y="-7.5" font-family="Helvetica,sans-Serif" font-size="10.00" fill="#000000">zrtos_vfs_fd__can_read</text>
</a>
</g>
</g>
<!-- Node1&#45;&gt;Node2 -->
<g id="edge1" class="edge">
<title>Node1&#45;&gt;Node2</title>
<path fill="none" stroke="#191970" d="M135.6037,-10C144.0784,-10 152.6506,-10 160.9318,-10"/>
<polygon fill="#191970" stroke="#191970" points="135.341,-6.5001 125.341,-10 135.341,-13.5001 135.341,-6.5001"/>
</g>
<!-- Node3 -->
<g id="node3" class="node">
<title>Node3</title>
<g id="a_node3"><a xlink:href="vfs__fd_8h.html#a8804d81bd731c8b3df5763a432c1ebdd" target="_top" xlink:title="zrtos_vfs_fd__select">
<polygon fill="#ffffff" stroke="#000000" points="318,-.5 318,-19.5 425,-19.5 425,-.5 318,-.5"/>
<text text-anchor="middle" x="371.5" y="-7.5" font-family="Helvetica,sans-Serif" font-size="10.00" fill="#000000">zrtos_vfs_fd__select</text>
</a>
</g>
</g>
<!-- Node2&#45;&gt;Node3 -->
<g id="edge2" class="edge">
<title>Node2&#45;&gt;Node3</title>
<path fill="none" stroke="#191970" d="M292.1857,-10C300.8496,-10 309.5904,-10 317.9438,-10"/>
<polygon fill="#191970" stroke="#191970" points="292.0784,-6.5001 282.0784,-10 292.0783,-13.5001 292.0784,-6.5001"/>
</g>
<!-- Node4 -->
<g id="node4" class="node">
<title>Node4</title>
<g id="a_node4"><a xlink:href="vfs__notify_8h.html#a9abba884c837a89754c83d36d6430778" target="_top" xlink:title="zrtos_vfs_notify__start">
<polygon fill="#ffffff" stroke="#000000" points="461,-.5 461,-19.5 577,-19.5 577,-.5 461,-.5"/>
<text text-anchor="middle" x="519" y="-7.5" font-family="Helvetica,sans-Serif" font-size="10.00" fill="#000000">zrtos_vfs_notify__start</text>
</a>
</g>
</g>
<!-- Node3&#45;&gt;Node4 -->
<g id="edge3" class="edge">
<title>Node3&#45;&gt;Node4</title>
<path fill="none" stroke="#191970" d="M435.3894,-10C443.8662,-10 452.52,-10 460.8918,-10"/>
<polygon fill="#191970" stroke="#191970" points="435.1682,-6.5001 425.1681,-10 435.1681,-13.5001 435.1682,-6.5001"/>
</g>
</g>
</svg>
