<?xml version="1.0" encoding="UTF-8" standalone="no"?>
<!DOCTYPE svg PUBLIC "-//W3C//DTD SVG 1.1//EN"
 "http://www.w3.org/Graphics/SVG/1.1/DTD/svg11.dtd">
<!-- Generated by graphviz version 10.0.1 (20240210.2158)
 -->
<!-- Title: vfs_dentry.h Pages: 1 -->
<svg width="489pt" height="264pt"
 viewBox="0.00 0.00 489.12 264.00" xmlns="http://www.w3.org/2000/svg" xmlns:xlink="http://www.w3.org/1999/xlink">
<g id="graph0" class="graph" transform="scale(1 1) rotate(0) translate(4 260)">
<title>vfs_dentry.h</title>
<!-- Node1 -->
<g id="Node000001" class="node">
<title>Node1</title>
<g id="a_Node000001"><a xlink:title=" ">
<polygon fill="#999999" stroke="#666666" points="273.12,-256 205.38,-256 205.38,-236 273.12,-236 273.12,-256"/>
<text text-anchor="middle" x="239.25" y="-242.5" font-family="Helvetica,sans-Serif" font-size="10.00">vfs_dentry.h</text>
</a>
</g>
</g>
<!-- Node2 -->
<g id="Node000002" class="node">
<title>Node2</title>
<g id="a_Node000002"><a xlink:href="str_8h.html" target="_top" xlink:title=" ">
<polygon fill="white" stroke="#666666" points="383.38,-194 323.12,-194 323.12,-174 383.38,-174 383.38,-194"/>
<text text-anchor="middle" x="353.25" y="-180.5" font-family="Helvetica,sans-Serif" font-size="10.00">zrtos/str.h</text>
</a>
</g>
</g>
<!-- Node1&#45;&gt;Node2 -->
<g id="edge1_Node000001_Node000002" class="edge">
<title>Node1&#45;&gt;Node2</title>
<g id="a_edge1_Node000001_Node000002"><a xlink:title=" ">
<path fill="none" stroke="#63b8ff" d="M257.06,-235.62C275.38,-225.98 304.17,-210.83 325.49,-199.61"/>
<polygon fill="#63b8ff" stroke="#63b8ff" points="327,-202.77 334.22,-195.01 323.74,-196.57 327,-202.77"/>
</a>
</g>
</g>
<!-- Node4 -->
<g id="Node000004" class="node">
<title>Node4</title>
<g id="a_Node000004"><a xlink:href="types_8h.html" target="_top" xlink:title=" ">
<polygon fill="white" stroke="#666666" points="313.75,-76 240.75,-76 240.75,-56 313.75,-56 313.75,-76"/>
<text text-anchor="middle" x="277.25" y="-62.5" font-family="Helvetica,sans-Serif" font-size="10.00">zrtos/types.h</text>
</a>
</g>
</g>
<!-- Node1&#45;&gt;Node4 -->
<g id="edge12_Node000001_Node000004" class="edge">
<title>Node1&#45;&gt;Node4</title>
<g id="a_edge12_Node000001_Node000004"><a xlink:title=" ">
<path fill="none" stroke="#63b8ff" d="M241.19,-235.93C247.04,-208.5 264.66,-125.96 272.91,-87.34"/>
<polygon fill="#63b8ff" stroke="#63b8ff" points="276.29,-88.26 274.96,-77.75 269.44,-86.8 276.29,-88.26"/>
</a>
</g>
</g>
<!-- Node11 -->
<g id="Node000011" class="node">
<title>Node11</title>
<g id="a_Node000011"><a xlink:href="clist_8h.html" target="_top" xlink:title=" ">
<polygon fill="white" stroke="#666666" points="248.75,-132 181.75,-132 181.75,-112 248.75,-112 248.75,-132"/>
<text text-anchor="middle" x="215.25" y="-118.5" font-family="Helvetica,sans-Serif" font-size="10.00">zrtos/clist.h</text>
</a>
</g>
</g>
<!-- Node1&#45;&gt;Node11 -->
<g id="edge13_Node000001_Node000011" class="edge">
<title>Node1&#45;&gt;Node11</title>
<g id="a_edge13_Node000001_Node000011"><a xlink:title=" ">
<path fill="none" stroke="#63b8ff" d="M237.45,-235.83C233.61,-216.31 224.55,-170.25 219.26,-143.4"/>
<polygon fill="#63b8ff" stroke="#63b8ff" points="222.73,-142.9 217.37,-133.76 215.86,-144.25 222.73,-142.9"/>
</a>
</g>
</g>
<!-- Node12 -->
<g id="Node000012" class="node">
<title>Node12</title>
<g id="a_Node000012"><a xlink:href="vfs__inode_8h.html" target="_top" xlink:title=" ">
<polygon fill="white" stroke="#666666" points="211.62,-194 122.88,-194 122.88,-174 211.62,-174 211.62,-194"/>
<text text-anchor="middle" x="167.25" y="-180.5" font-family="Helvetica,sans-Serif" font-size="10.00">zrtos/vfs_inode.h</text>
</a>
</g>
</g>
<!-- Node1&#45;&gt;Node12 -->
<g id="edge15_Node000001_Node000012" class="edge">
<title>Node1&#45;&gt;Node12</title>
<g id="a_edge15_Node000001_Node000012"><a xlink:title=" ">
<path fill="none" stroke="#63b8ff" d="M228,-235.62C217.05,-226.5 200.18,-212.45 187,-201.46"/>
<polygon fill="#63b8ff" stroke="#63b8ff" points="189.27,-198.79 179.35,-195.08 184.79,-204.17 189.27,-198.79"/>
</a>
</g>
</g>
<!-- Node16 -->
<g id="Node000016" class="node">
<title>Node16</title>
<g id="a_Node000016"><a xlink:href="null_8h.html" target="_top" xlink:title=" ">
<polygon fill="white" stroke="#666666" points="104.5,-200 0,-200 0,-168 104.5,-168 104.5,-200"/>
<text text-anchor="start" x="8" y="-186.5" font-family="Helvetica,sans-Serif" font-size="10.00">zrtos/vfs/module/null</text>
<text text-anchor="middle" x="52.25" y="-174.5" font-family="Helvetica,sans-Serif" font-size="10.00">/null.h</text>
</a>
</g>
</g>
<!-- Node1&#45;&gt;Node16 -->
<g id="edge22_Node000001_Node000016" class="edge">
<title>Node1&#45;&gt;Node16</title>
<g id="a_edge22_Node000001_Node000016"><a xlink:title=" ">
<path fill="none" stroke="#63b8ff" d="M210.03,-235.62C183.73,-227.19 144.27,-214.53 111.4,-203.98"/>
<polygon fill="#63b8ff" stroke="#63b8ff" points="112.56,-200.68 101.97,-200.95 110.42,-207.34 112.56,-200.68"/>
</a>
</g>
</g>
<!-- Node3 -->
<g id="Node000003" class="node">
<title>Node3</title>
<g id="a_Node000003"><a xlink:title=" ">
<polygon fill="#e0e0e0" stroke="#999999" points="222.88,-76 171.62,-76 171.62,-56 222.88,-56 222.88,-76"/>
<text text-anchor="middle" x="197.25" y="-62.5" font-family="Helvetica,sans-Serif" font-size="10.00">stdarg.h</text>
</a>
</g>
</g>
<!-- Node2&#45;&gt;Node3 -->
<g id="edge2_Node000002_Node000003" class="edge">
<title>Node2&#45;&gt;Node3</title>
<g id="a_edge2_Node000002_Node000003"><a xlink:title=" ">
<path fill="none" stroke="#63b8ff" d="M340.67,-173.56C322.5,-159.93 287.84,-133.97 258.25,-112 245.21,-102.32 230.56,-91.51 218.89,-82.91"/>
<polygon fill="#63b8ff" stroke="#63b8ff" points="221.23,-80.29 211.1,-77.18 217.08,-85.93 221.23,-80.29"/>
</a>
</g>
</g>
<!-- Node2&#45;&gt;Node4 -->
<g id="edge3_Node000002_Node000004" class="edge">
<title>Node2&#45;&gt;Node4</title>
<g id="a_edge3_Node000002_Node000004"><a xlink:title=" ">
<path fill="none" stroke="#63b8ff" d="M351.7,-173.56C349.02,-159.25 342.46,-131.66 329.25,-112 321.78,-100.89 310.88,-90.87 300.98,-83.13"/>
<polygon fill="#63b8ff" stroke="#63b8ff" points="303.28,-80.48 293.16,-77.34 299.11,-86.1 303.28,-80.48"/>
</a>
</g>
</g>
<!-- Node9 -->
<g id="Node000009" class="node">
<title>Node9</title>
<g id="a_Node000009"><a xlink:href="cast_8h.html" target="_top" xlink:title=" ">
<polygon fill="white" stroke="#666666" points="481.12,-76 413.38,-76 413.38,-56 481.12,-56 481.12,-76"/>
<text text-anchor="middle" x="447.25" y="-62.5" font-family="Helvetica,sans-Serif" font-size="10.00">zrtos/cast.h</text>
</a>
</g>
</g>
<!-- Node2&#45;&gt;Node9 -->
<g id="edge8_Node000002_Node000009" class="edge">
<title>Node2&#45;&gt;Node9</title>
<g id="a_edge8_Node000002_Node000009"><a xlink:title=" ">
<path fill="none" stroke="#63b8ff" d="M383.86,-177.62C409.19,-171.39 443.61,-158.36 460.25,-132 468.89,-118.31 464.11,-100.05 458.05,-86.37"/>
<polygon fill="#63b8ff" stroke="#63b8ff" points="461.22,-84.87 453.61,-77.51 454.96,-88.01 461.22,-84.87"/>
</a>
</g>
</g>
<!-- Node10 -->
<g id="Node000010" class="node">
<title>Node10</title>
<g id="a_Node000010"><a xlink:href="mem_8h.html" target="_top" xlink:title=" ">
<polygon fill="white" stroke="#666666" points="451.62,-132 380.88,-132 380.88,-112 451.62,-112 451.62,-132"/>
<text text-anchor="middle" x="416.25" y="-118.5" font-family="Helvetica,sans-Serif" font-size="10.00">zrtos/mem.h</text>
</a>
</g>
</g>
<!-- Node2&#45;&gt;Node10 -->
<g id="edge9_Node000002_Node000010" class="edge">
<title>Node2&#45;&gt;Node10</title>
<g id="a_edge9_Node000002_Node000010"><a xlink:title=" ">
<path fill="none" stroke="#63b8ff" d="M363.09,-173.62C372.58,-164.59 387.15,-150.72 398.63,-139.78"/>
<polygon fill="#63b8ff" stroke="#63b8ff" points="400.76,-142.59 405.59,-133.16 395.93,-137.52 400.76,-142.59"/>
</a>
</g>
</g>
<!-- Node5 -->
<g id="Node000005" class="node">
<title>Node5</title>
<g id="a_Node000005"><a xlink:title=" ">
<polygon fill="#e0e0e0" stroke="#999999" points="265.12,-20 209.38,-20 209.38,0 265.12,0 265.12,-20"/>
<text text-anchor="middle" x="237.25" y="-6.5" font-family="Helvetica,sans-Serif" font-size="10.00">stdbool.h</text>
</a>
</g>
</g>
<!-- Node4&#45;&gt;Node5 -->
<g id="edge4_Node000004_Node000005" class="edge">
<title>Node4&#45;&gt;Node5</title>
<g id="a_edge4_Node000004_Node000005"><a xlink:title=" ">
<path fill="none" stroke="#63b8ff" d="M270.28,-55.59C264.95,-48.39 257.42,-38.23 250.9,-29.43"/>
<polygon fill="#63b8ff" stroke="#63b8ff" points="253.8,-27.47 245.04,-21.51 248.18,-31.63 253.8,-27.47"/>
</a>
</g>
</g>
<!-- Node6 -->
<g id="Node000006" class="node">
<title>Node6</title>
<g id="a_Node000006"><a xlink:title=" ">
<polygon fill="#e0e0e0" stroke="#999999" points="333.5,-20 283,-20 283,0 333.5,0 333.5,-20"/>
<text text-anchor="middle" x="308.25" y="-6.5" font-family="Helvetica,sans-Serif" font-size="10.00">stddef.h</text>
</a>
</g>
</g>
<!-- Node4&#45;&gt;Node6 -->
<g id="edge5_Node000004_Node000006" class="edge">
<title>Node4&#45;&gt;Node6</title>
<g id="a_edge5_Node000004_Node000006"><a xlink:title=" ">
<path fill="none" stroke="#63b8ff" d="M282.65,-55.59C286.69,-48.55 292.37,-38.67 297.34,-30"/>
<polygon fill="#63b8ff" stroke="#63b8ff" points="300.22,-32.03 302.16,-21.61 294.14,-28.54 300.22,-32.03"/>
</a>
</g>
</g>
<!-- Node7 -->
<g id="Node000007" class="node">
<title>Node7</title>
<g id="a_Node000007"><a xlink:title=" ">
<polygon fill="#e0e0e0" stroke="#999999" points="399.38,-20 351.12,-20 351.12,0 399.38,0 399.38,-20"/>
<text text-anchor="middle" x="375.25" y="-6.5" font-family="Helvetica,sans-Serif" font-size="10.00">stdint.h</text>
</a>
</g>
</g>
<!-- Node4&#45;&gt;Node7 -->
<g id="edge6_Node000004_Node000007" class="edge">
<title>Node4&#45;&gt;Node7</title>
<g id="a_edge6_Node000004_Node000007"><a xlink:title=" ">
<path fill="none" stroke="#63b8ff" d="M294.32,-55.59C309.13,-47.44 330.82,-35.48 348.02,-26"/>
<polygon fill="#63b8ff" stroke="#63b8ff" points="349.65,-29.1 356.72,-21.21 346.27,-22.97 349.65,-29.1"/>
</a>
</g>
</g>
<!-- Node8 -->
<g id="Node000008" class="node">
<title>Node8</title>
<g id="a_Node000008"><a xlink:title=" ">
<polygon fill="#e0e0e0" stroke="#999999" points="191,-20 143.5,-20 143.5,0 191,0 191,-20"/>
<text text-anchor="middle" x="167.25" y="-6.5" font-family="Helvetica,sans-Serif" font-size="10.00">limits.h</text>
</a>
</g>
</g>
<!-- Node4&#45;&gt;Node8 -->
<g id="edge7_Node000004_Node000008" class="edge">
<title>Node4&#45;&gt;Node8</title>
<g id="a_edge7_Node000004_Node000008"><a xlink:title=" ">
<path fill="none" stroke="#63b8ff" d="M258.09,-55.59C241.16,-47.28 216.2,-35.03 196.73,-25.47"/>
<polygon fill="#63b8ff" stroke="#63b8ff" points="198.44,-22.41 187.92,-21.15 195.35,-28.7 198.44,-22.41"/>
</a>
</g>
</g>
<!-- Node10&#45;&gt;Node4 -->
<g id="edge10_Node000010_Node000004" class="edge">
<title>Node10&#45;&gt;Node4</title>
<g id="a_edge10_Node000010_Node000004"><a xlink:title=" ">
<path fill="none" stroke="#63b8ff" d="M392.04,-111.59C369.95,-103.01 337.05,-90.23 312.13,-80.55"/>
<polygon fill="#63b8ff" stroke="#63b8ff" points="313.65,-77.39 303.06,-77.03 311.12,-83.91 313.65,-77.39"/>
</a>
</g>
</g>
<!-- Node10&#45;&gt;Node9 -->
<g id="edge11_Node000010_Node000009" class="edge">
<title>Node10&#45;&gt;Node9</title>
<g id="a_edge11_Node000010_Node000009"><a xlink:title=" ">
<path fill="none" stroke="#63b8ff" d="M421.65,-111.59C425.69,-104.55 431.37,-94.67 436.34,-86"/>
<polygon fill="#63b8ff" stroke="#63b8ff" points="439.22,-88.03 441.16,-77.61 433.14,-84.54 439.22,-88.03"/>
</a>
</g>
</g>
<!-- Node11&#45;&gt;Node4 -->
<g id="edge14_Node000011_Node000004" class="edge">
<title>Node11&#45;&gt;Node4</title>
<g id="a_edge14_Node000011_Node000004"><a xlink:title=" ">
<path fill="none" stroke="#63b8ff" d="M226.05,-111.59C234.85,-103.93 247.5,-92.91 258.02,-83.75"/>
<polygon fill="#63b8ff" stroke="#63b8ff" points="260.19,-86.5 265.43,-77.29 255.59,-81.22 260.19,-86.5"/>
</a>
</g>
</g>
<!-- Node13 -->
<g id="Node000013" class="node">
<title>Node13</title>
<g id="a_Node000013"><a xlink:href="vfs__plugin_8h.html" target="_top" xlink:title=" ">
<polygon fill="white" stroke="#666666" points="163.75,-132 72.75,-132 72.75,-112 163.75,-112 163.75,-132"/>
<text text-anchor="middle" x="118.25" y="-118.5" font-family="Helvetica,sans-Serif" font-size="10.00">zrtos/vfs_plugin.h</text>
</a>
</g>
</g>
<!-- Node12&#45;&gt;Node13 -->
<g id="edge16_Node000012_Node000013" class="edge">
<title>Node12&#45;&gt;Node13</title>
<g id="a_edge16_Node000012_Node000013"><a xlink:title=" ">
<path fill="none" stroke="#63b8ff" d="M159.59,-173.62C152.43,-164.86 141.55,-151.53 132.75,-140.75"/>
<polygon fill="#63b8ff" stroke="#63b8ff" points="135.69,-138.82 126.65,-133.28 130.26,-143.24 135.69,-138.82"/>
</a>
</g>
</g>
<!-- Node13&#45;&gt;Node3 -->
<g id="edge17_Node000013_Node000003" class="edge">
<title>Node13&#45;&gt;Node3</title>
<g id="a_edge17_Node000013_Node000003"><a xlink:title=" ">
<path fill="none" stroke="#63b8ff" d="M132.01,-111.59C143.61,-103.67 160.45,-92.16 174.11,-82.82"/>
<polygon fill="#63b8ff" stroke="#63b8ff" points="175.85,-85.87 182.13,-77.33 171.9,-80.09 175.85,-85.87"/>
</a>
</g>
</g>
<!-- Node13&#45;&gt;Node4 -->
<g id="edge18_Node000013_Node000004" class="edge">
<title>Node13&#45;&gt;Node4</title>
<g id="a_edge18_Node000013_Node000004"><a xlink:title=" ">
<path fill="none" stroke="#63b8ff" d="M145.95,-111.59C171.55,-102.9 209.86,-89.89 238.5,-80.16"/>
<polygon fill="#63b8ff" stroke="#63b8ff" points="239.56,-83.5 247.91,-76.97 237.31,-76.87 239.56,-83.5"/>
</a>
</g>
</g>
<!-- Node14 -->
<g id="Node000014" class="node">
<title>Node14</title>
<g id="a_Node000014"><a xlink:href="error_8h.html" target="_top" xlink:title=" ">
<polygon fill="white" stroke="#666666" points="152.5,-76 84,-76 84,-56 152.5,-56 152.5,-76"/>
<text text-anchor="middle" x="118.25" y="-62.5" font-family="Helvetica,sans-Serif" font-size="10.00">zrtos/error.h</text>
</a>
</g>
</g>
<!-- Node13&#45;&gt;Node14 -->
<g id="edge19_Node000013_Node000014" class="edge">
<title>Node13&#45;&gt;Node14</title>
<g id="a_edge19_Node000013_Node000014"><a xlink:title=" ">
<path fill="none" stroke="#63b8ff" d="M118.25,-111.59C118.25,-105.01 118.25,-95.96 118.25,-87.73"/>
<polygon fill="#63b8ff" stroke="#63b8ff" points="121.75,-87.81 118.25,-77.81 114.75,-87.81 121.75,-87.81"/>
</a>
</g>
</g>
<!-- Node14&#45;&gt;Node8 -->
<g id="edge20_Node000014_Node000008" class="edge">
<title>Node14&#45;&gt;Node8</title>
<g id="a_edge20_Node000014_Node000008"><a xlink:title=" ">
<path fill="none" stroke="#63b8ff" d="M126.79,-55.59C133.53,-48.16 143.14,-37.58 151.29,-28.58"/>
<polygon fill="#63b8ff" stroke="#63b8ff" points="153.67,-31.18 157.8,-21.42 148.48,-26.47 153.67,-31.18"/>
</a>
</g>
</g>
<!-- Node15 -->
<g id="Node000015" class="node">
<title>Node15</title>
<g id="a_Node000015"><a xlink:href="assert_8h.html" target="_top" xlink:title=" ">
<polygon fill="white" stroke="#666666" points="125.25,-20 49.25,-20 49.25,0 125.25,0 125.25,-20"/>
<text text-anchor="middle" x="87.25" y="-6.5" font-family="Helvetica,sans-Serif" font-size="10.00">zrtos/assert.h</text>
</a>
</g>
</g>
<!-- Node14&#45;&gt;Node15 -->
<g id="edge21_Node000014_Node000015" class="edge">
<title>Node14&#45;&gt;Node15</title>
<g id="a_edge21_Node000014_Node000015"><a xlink:title=" ">
<path fill="none" stroke="#63b8ff" d="M112.85,-55.59C108.81,-48.55 103.13,-38.67 98.16,-30"/>
<polygon fill="#63b8ff" stroke="#63b8ff" points="101.36,-28.54 93.34,-21.61 95.28,-32.03 101.36,-28.54"/>
</a>
</g>
</g>
<!-- Node16&#45;&gt;Node13 -->
<g id="edge23_Node000016_Node000013" class="edge">
<title>Node16&#45;&gt;Node13</title>
<g id="a_edge23_Node000016_Node000013"><a xlink:title=" ">
<path fill="none" stroke="#63b8ff" d="M69.25,-167.55C78.51,-159.13 89.99,-148.69 99.51,-140.04"/>
<polygon fill="#63b8ff" stroke="#63b8ff" points="101.74,-142.74 106.78,-133.43 97.03,-137.56 101.74,-142.74"/>
</a>
</g>
</g>
</g>
</svg>
