<?xml version="1.0" encoding="UTF-8" standalone="no"?>
<!DOCTYPE svg PUBLIC "-//W3C//DTD SVG 1.1//EN"
 "http://www.w3.org/Graphics/SVG/1.1/DTD/svg11.dtd">
<!-- Generated by graphviz version 2.40.1 (20161225.0304)
 -->
<!-- Title: zrtos_vfs_file__open Pages: 1 -->
<svg width="892pt" height="261pt"
 viewBox="0.00 0.00 892.00 260.50" xmlns="http://www.w3.org/2000/svg" xmlns:xlink="http://www.w3.org/1999/xlink">
<g id="graph0" class="graph" transform="scale(1 1) rotate(0) translate(4 256.5)">
<title>zrtos_vfs_file__open</title>
<polygon fill="#ffffff" stroke="transparent" points="-4,4 -4,-256.5 888,-256.5 888,4 -4,4"/>
<!-- Node86 -->
<g id="node1" class="node">
<title>Node86</title>
<polygon fill="#bfbfbf" stroke="#000000" points="0,-85 0,-104 107,-104 107,-85 0,-85"/>
<text text-anchor="middle" x="53.5" y="-92" font-family="Helvetica,sans-Serif" font-size="10.00" fill="#000000">zrtos_vfs_file__open</text>
</g>
<!-- Node87 -->
<g id="node2" class="node">
<title>Node87</title>
<g id="a_node2"><a xlink:href="vfs__dentry_8h.html#a993f8558c29043f4405698f2d4f2747e" target="_top" xlink:title="zrtos_vfs_dentry__lookup">
<polygon fill="#ffffff" stroke="#000000" points="143,-104 143,-123 271,-123 271,-104 143,-104"/>
<text text-anchor="middle" x="207" y="-111" font-family="Helvetica,sans-Serif" font-size="10.00" fill="#000000">zrtos_vfs_dentry__lookup</text>
</a>
</g>
</g>
<!-- Node86&#45;&gt;Node87 -->
<g id="edge1" class="edge">
<title>Node86&#45;&gt;Node87</title>
<path fill="none" stroke="#191970" d="M107.1869,-101.1453C115.4514,-102.1683 124.1093,-103.2399 132.7255,-104.3064"/>
<polygon fill="#191970" stroke="#191970" points="132.4408,-107.7978 142.7951,-105.5528 133.3008,-100.8508 132.4408,-107.7978"/>
</g>
<!-- Node103 -->
<g id="node18" class="node">
<title>Node103</title>
<g id="a_node18"><a xlink:href="error_8h.html#add13298163f63b7d37ed9f12d57e1a31" target="_top" xlink:title="zrtos_error__is_success">
<polygon fill="#ffffff" stroke="#000000" points="145.5,-66 145.5,-85 268.5,-85 268.5,-66 145.5,-66"/>
<text text-anchor="middle" x="207" y="-73" font-family="Helvetica,sans-Serif" font-size="10.00" fill="#000000">zrtos_error__is_success</text>
</a>
</g>
</g>
<!-- Node86&#45;&gt;Node103 -->
<g id="edge17" class="edge">
<title>Node86&#45;&gt;Node103</title>
<path fill="none" stroke="#191970" d="M107.1869,-87.8547C116.266,-86.7309 125.8198,-85.5484 135.2716,-84.3784"/>
<polygon fill="#191970" stroke="#191970" points="135.9662,-87.8193 145.4605,-83.1173 135.1063,-80.8723 135.9662,-87.8193"/>
</g>
<!-- Node88 -->
<g id="node3" class="node">
<title>Node88</title>
<g id="a_node3"><a xlink:href="str_8h.html#a895ecefd0a6db15a94d6cbf5fd2747d6" target="_top" xlink:title="zrtos_str__tok_r">
<polygon fill="#ffffff" stroke="#000000" points="327.5,-197 327.5,-216 414.5,-216 414.5,-197 327.5,-197"/>
<text text-anchor="middle" x="371" y="-204" font-family="Helvetica,sans-Serif" font-size="10.00" fill="#000000">zrtos_str__tok_r</text>
</a>
</g>
</g>
<!-- Node87&#45;&gt;Node88 -->
<g id="edge2" class="edge">
<title>Node87&#45;&gt;Node88</title>
<path fill="none" stroke="#191970" d="M217.2789,-123.0496C234.5531,-138.6272 271.0547,-169.5641 307,-187.5 311.5503,-189.7705 316.4208,-191.8208 321.368,-193.6597"/>
<polygon fill="#191970" stroke="#191970" points="320.3178,-196.9997 330.9124,-196.9379 322.5917,-190.3793 320.3178,-196.9997"/>
</g>
<!-- Node91 -->
<g id="node6" class="node">
<title>Node91</title>
<g id="a_node6"><a xlink:href="vfs__dentry_8h.html#a911f5eb8673c68fe4147f56a21062ed7" target="_top" xlink:title="zrtos_vfs_dentry__each\l_child">
<polygon fill="#ffffff" stroke="#000000" points="310.5,-147.5 310.5,-177.5 431.5,-177.5 431.5,-147.5 310.5,-147.5"/>
<text text-anchor="start" x="318.5" y="-165.5" font-family="Helvetica,sans-Serif" font-size="10.00" fill="#000000">zrtos_vfs_dentry__each</text>
<text text-anchor="middle" x="371" y="-154.5" font-family="Helvetica,sans-Serif" font-size="10.00" fill="#000000">_child</text>
</a>
</g>
</g>
<!-- Node87&#45;&gt;Node91 -->
<g id="edge5" class="edge">
<title>Node87&#45;&gt;Node91</title>
<path fill="none" stroke="#191970" d="M239.0102,-123.064C259.4104,-129.1592 286.4859,-137.2488 310.8029,-144.5143"/>
<polygon fill="#191970" stroke="#191970" points="310.0887,-147.9537 320.6722,-147.463 312.0927,-141.2467 310.0887,-147.9537"/>
</g>
<!-- Node96 -->
<g id="node11" class="node">
<title>Node96</title>
<g id="a_node11"><a xlink:href="vfs__dentry_8h.html#a835709f315151b37e82e35da258094d8" target="_top" xlink:title="zrtos_vfs_dentry__lookup\l_callback_cb">
<polygon fill="#ffffff" stroke="#000000" points="307,-98.5 307,-128.5 435,-128.5 435,-98.5 307,-98.5"/>
<text text-anchor="start" x="315" y="-116.5" font-family="Helvetica,sans-Serif" font-size="10.00" fill="#000000">zrtos_vfs_dentry__lookup</text>
<text text-anchor="middle" x="371" y="-105.5" font-family="Helvetica,sans-Serif" font-size="10.00" fill="#000000">_callback_cb</text>
</a>
</g>
</g>
<!-- Node87&#45;&gt;Node96 -->
<g id="edge10" class="edge">
<title>Node87&#45;&gt;Node96</title>
<path fill="none" stroke="#191970" d="M271.3464,-113.5C279.6401,-113.5 288.1868,-113.5 296.6248,-113.5"/>
<polygon fill="#191970" stroke="#191970" points="296.8392,-117.0001 306.8391,-113.5 296.8391,-110.0001 296.8392,-117.0001"/>
</g>
<!-- Node97 -->
<g id="node12" class="node">
<title>Node97</title>
<g id="a_node12"><a xlink:href="vfs__dentry_8h.html#a4d808bbfc2c1dfabc22e3d6fa45412c1" target="_top" xlink:title="zrtos_vfs_dentry__each\l_child_filter_name_cb">
<polygon fill="#ffffff" stroke="#000000" points="310.5,-49.5 310.5,-79.5 431.5,-79.5 431.5,-49.5 310.5,-49.5"/>
<text text-anchor="start" x="318.5" y="-67.5" font-family="Helvetica,sans-Serif" font-size="10.00" fill="#000000">zrtos_vfs_dentry__each</text>
<text text-anchor="middle" x="371" y="-56.5" font-family="Helvetica,sans-Serif" font-size="10.00" fill="#000000">_child_filter_name_cb</text>
</a>
</g>
</g>
<!-- Node87&#45;&gt;Node97 -->
<g id="edge11" class="edge">
<title>Node87&#45;&gt;Node97</title>
<path fill="none" stroke="#191970" d="M239.2355,-103.9497C249.4005,-100.9329 260.6711,-97.5825 271,-94.5 283.9409,-90.6379 297.8198,-86.4827 310.9945,-82.5321"/>
<polygon fill="#191970" stroke="#191970" points="312.3322,-85.785 320.9048,-79.5592 310.3208,-79.0802 312.3322,-85.785"/>
</g>
<!-- Node102 -->
<g id="node17" class="node">
<title>Node102</title>
<g id="a_node17"><a xlink:href="vfs__dentry_8h.html#a4ece9a5dc55701c2c03fcc470baf49be" target="_top" xlink:title="zrtos_vfs_dentry__is\l_filesystem">
<polygon fill="#ffffff" stroke="#000000" points="317.5,-.5 317.5,-30.5 424.5,-30.5 424.5,-.5 317.5,-.5"/>
<text text-anchor="start" x="325.5" y="-18.5" font-family="Helvetica,sans-Serif" font-size="10.00" fill="#000000">zrtos_vfs_dentry__is</text>
<text text-anchor="middle" x="371" y="-7.5" font-family="Helvetica,sans-Serif" font-size="10.00" fill="#000000">_filesystem</text>
</a>
</g>
</g>
<!-- Node87&#45;&gt;Node102 -->
<g id="edge16" class="edge">
<title>Node87&#45;&gt;Node102</title>
<path fill="none" stroke="#191970" d="M253.5892,-103.8861C259.7769,-101.4306 265.7772,-98.3537 271,-94.5 294.21,-77.3741 284.5278,-58.5832 307,-40.5 309.0736,-38.8314 311.2719,-37.2637 313.5575,-35.7921"/>
<polygon fill="#191970" stroke="#191970" points="315.7612,-38.5655 322.726,-30.5816 312.3026,-32.4796 315.7612,-38.5655"/>
</g>
<!-- Node89 -->
<g id="node4" class="node">
<title>Node89</title>
<g id="a_node4"><a xlink:href="str_8h.html#a449cee93b0e54bd698d6c14d8ad83957" target="_top" xlink:title="zrtos_str__spn">
<polygon fill="#ffffff" stroke="#000000" points="491,-233 491,-252 572,-252 572,-233 491,-233"/>
<text text-anchor="middle" x="531.5" y="-240" font-family="Helvetica,sans-Serif" font-size="10.00" fill="#000000">zrtos_str__spn</text>
</a>
</g>
</g>
<!-- Node88&#45;&gt;Node89 -->
<g id="edge3" class="edge">
<title>Node88&#45;&gt;Node89</title>
<path fill="none" stroke="#191970" d="M413.5897,-216.0528C434.2741,-220.6923 459.2754,-226.3001 480.9236,-231.1558"/>
<polygon fill="#191970" stroke="#191970" points="480.4026,-234.6258 490.9262,-233.3993 481.9346,-227.7955 480.4026,-234.6258"/>
</g>
<!-- Node90 -->
<g id="node5" class="node">
<title>Node90</title>
<g id="a_node5"><a xlink:href="str_8h.html#a94f2645c0c594c77acacede9a145ff11" target="_top" xlink:title="zrtos_str__cspn">
<polygon fill="#ffffff" stroke="#000000" points="488.5,-195 488.5,-214 574.5,-214 574.5,-195 488.5,-195"/>
<text text-anchor="middle" x="531.5" y="-202" font-family="Helvetica,sans-Serif" font-size="10.00" fill="#000000">zrtos_str__cspn</text>
</a>
</g>
</g>
<!-- Node88&#45;&gt;Node90 -->
<g id="edge4" class="edge">
<title>Node88&#45;&gt;Node90</title>
<path fill="none" stroke="#191970" d="M414.8573,-205.9535C434.3897,-205.7101 457.5714,-205.4212 478.1025,-205.1654"/>
<polygon fill="#191970" stroke="#191970" points="478.2958,-208.6633 488.2514,-205.0389 478.2085,-201.6639 478.2958,-208.6633"/>
</g>
<!-- Node92 -->
<g id="node7" class="node">
<title>Node92</title>
<g id="a_node7"><a xlink:href="clist_8h.html#a7cc31f994820f2b59d07e96ab9dcce0b" target="_top" xlink:title="zrtos_clist__each">
<polygon fill="#ffffff" stroke="#000000" points="485,-154 485,-173 578,-173 578,-154 485,-154"/>
<text text-anchor="middle" x="531.5" y="-161" font-family="Helvetica,sans-Serif" font-size="10.00" fill="#000000">zrtos_clist__each</text>
</a>
</g>
</g>
<!-- Node91&#45;&gt;Node92 -->
<g id="edge6" class="edge">
<title>Node91&#45;&gt;Node92</title>
<path fill="none" stroke="#191970" d="M431.6782,-162.8781C445.6846,-162.9653 460.5381,-163.0579 474.3865,-163.1442"/>
<polygon fill="#191970" stroke="#191970" points="474.7282,-166.6463 484.7499,-163.2087 474.7719,-159.6464 474.7282,-166.6463"/>
</g>
<!-- Node95 -->
<g id="node10" class="node">
<title>Node95</title>
<g id="a_node10"><a xlink:href="vfs__dentry_8h.html#a05f11e0155e29bdfa726f3407120a19d" target="_top" xlink:title="zrtos_vfs_dentry__each\l_child_cb">
<polygon fill="#ffffff" stroke="#000000" points="471,-104.5 471,-134.5 592,-134.5 592,-104.5 471,-104.5"/>
<text text-anchor="start" x="479" y="-122.5" font-family="Helvetica,sans-Serif" font-size="10.00" fill="#000000">zrtos_vfs_dentry__each</text>
<text text-anchor="middle" x="531.5" y="-111.5" font-family="Helvetica,sans-Serif" font-size="10.00" fill="#000000">_child_cb</text>
</a>
</g>
</g>
<!-- Node91&#45;&gt;Node95 -->
<g id="edge9" class="edge">
<title>Node91&#45;&gt;Node95</title>
<path fill="none" stroke="#191970" d="M427.1351,-147.4607C439.5973,-144.1219 452.9147,-140.554 465.7235,-137.1224"/>
<polygon fill="#191970" stroke="#191970" points="466.643,-140.4995 475.3966,-134.5308 464.8315,-133.738 466.643,-140.4995"/>
</g>
<!-- Node93 -->
<g id="node8" class="node">
<title>Node93</title>
<g id="a_node8"><a xlink:href="clist_8h.html#afb7e643d242da19562a3584abcfca015" target="_top" xlink:title="zrtos_clist__get_root">
<polygon fill="#ffffff" stroke="#000000" points="630.5,-182 630.5,-201 737.5,-201 737.5,-182 630.5,-182"/>
<text text-anchor="middle" x="684" y="-189" font-family="Helvetica,sans-Serif" font-size="10.00" fill="#000000">zrtos_clist__get_root</text>
</a>
</g>
</g>
<!-- Node92&#45;&gt;Node93 -->
<g id="edge7" class="edge">
<title>Node92&#45;&gt;Node93</title>
<path fill="none" stroke="#191970" d="M578.0837,-172.0531C591.9616,-174.6012 607.3929,-177.4344 622.0873,-180.1324"/>
<polygon fill="#191970" stroke="#191970" points="621.6467,-183.61 632.1144,-181.9735 622.9109,-176.7251 621.6467,-183.61"/>
</g>
<!-- Node94 -->
<g id="node9" class="node">
<title>Node94</title>
<g id="a_node9"><a xlink:href="clist_8h.html#a2f867bef78a818daa14ead2547bb531d" target="_top" xlink:title="zrtos_clist_node__get\l_next_node">
<polygon fill="#ffffff" stroke="#000000" points="628,-132.5 628,-162.5 740,-162.5 740,-132.5 628,-132.5"/>
<text text-anchor="start" x="636" y="-150.5" font-family="Helvetica,sans-Serif" font-size="10.00" fill="#000000">zrtos_clist_node__get</text>
<text text-anchor="middle" x="684" y="-139.5" font-family="Helvetica,sans-Serif" font-size="10.00" fill="#000000">_next_node</text>
</a>
</g>
</g>
<!-- Node92&#45;&gt;Node94 -->
<g id="edge8" class="edge">
<title>Node92&#45;&gt;Node94</title>
<path fill="none" stroke="#191970" d="M578.0837,-158.6125C590.5779,-157.3017 604.3312,-155.8587 617.6723,-154.459"/>
<polygon fill="#191970" stroke="#191970" points="618.1861,-157.9244 627.7663,-153.3999 617.4556,-150.9626 618.1861,-157.9244"/>
</g>
<!-- Node98 -->
<g id="node13" class="node">
<title>Node98</title>
<g id="a_node13"><a xlink:href="str_8h.html#a7e9860a6921e03fd013bbb20bf4a88b3" target="_top" xlink:title="zrtos_str__cmp">
<polygon fill="#ffffff" stroke="#000000" points="489.5,-55 489.5,-74 573.5,-74 573.5,-55 489.5,-55"/>
<text text-anchor="middle" x="531.5" y="-62" font-family="Helvetica,sans-Serif" font-size="10.00" fill="#000000">zrtos_str__cmp</text>
</a>
</g>
</g>
<!-- Node97&#45;&gt;Node98 -->
<g id="edge12" class="edge">
<title>Node97&#45;&gt;Node98</title>
<path fill="none" stroke="#191970" d="M431.6782,-64.5C447.2575,-64.5 463.8849,-64.5 479.0114,-64.5"/>
<polygon fill="#191970" stroke="#191970" points="479.2125,-68.0001 489.2125,-64.5 479.2124,-61.0001 479.2125,-68.0001"/>
</g>
<!-- Node99 -->
<g id="node14" class="node">
<title>Node99</title>
<g id="a_node14"><a xlink:href="str_8h.html#a0bbbf024b181a2c7d5ec9056efb84743" target="_top" xlink:title="zrtos_str__len">
<polygon fill="#ffffff" stroke="#000000" points="645,-79 645,-98 723,-98 723,-79 645,-79"/>
<text text-anchor="middle" x="684" y="-86" font-family="Helvetica,sans-Serif" font-size="10.00" fill="#000000">zrtos_str__len</text>
</a>
</g>
</g>
<!-- Node98&#45;&gt;Node99 -->
<g id="edge13" class="edge">
<title>Node98&#45;&gt;Node99</title>
<path fill="none" stroke="#191970" d="M573.575,-71.1216C592.5691,-74.1109 615.1306,-77.6615 634.894,-80.7718"/>
<polygon fill="#191970" stroke="#191970" points="634.5176,-84.2556 644.9402,-82.3529 635.6059,-77.3407 634.5176,-84.2556"/>
</g>
<!-- Node101 -->
<g id="node16" class="node">
<title>Node101</title>
<g id="a_node16"><a xlink:href="mem_8h.html#abc92c0f931688ddf8da31714fff6a8d3" target="_top" xlink:title="zrtos_mem__cmp">
<polygon fill="#ffffff" stroke="#000000" points="636.5,-41 636.5,-60 731.5,-60 731.5,-41 636.5,-41"/>
<text text-anchor="middle" x="684" y="-48" font-family="Helvetica,sans-Serif" font-size="10.00" fill="#000000">zrtos_mem__cmp</text>
</a>
</g>
</g>
<!-- Node98&#45;&gt;Node101 -->
<g id="edge15" class="edge">
<title>Node98&#45;&gt;Node101</title>
<path fill="none" stroke="#191970" d="M573.575,-60.6374C589.8623,-59.1422 608.7726,-57.4061 626.2925,-55.7977"/>
<polygon fill="#191970" stroke="#191970" points="626.7788,-59.2679 636.4169,-54.8683 626.1388,-52.2972 626.7788,-59.2679"/>
</g>
<!-- Node100 -->
<g id="node15" class="node">
<title>Node100</title>
<g id="a_node15"><a xlink:href="types_8h.html#adbc4238237e656eb247fd49ffbfb1a6d" target="_top" xlink:title="zrtos_types__ptr_get\l_byte_distance">
<polygon fill="#ffffff" stroke="#000000" points="776,-73.5 776,-103.5 884,-103.5 884,-73.5 776,-73.5"/>
<text text-anchor="start" x="784" y="-91.5" font-family="Helvetica,sans-Serif" font-size="10.00" fill="#000000">zrtos_types__ptr_get</text>
<text text-anchor="middle" x="830" y="-80.5" font-family="Helvetica,sans-Serif" font-size="10.00" fill="#000000">_byte_distance</text>
</a>
</g>
</g>
<!-- Node99&#45;&gt;Node100 -->
<g id="edge14" class="edge">
<title>Node99&#45;&gt;Node100</title>
<path fill="none" stroke="#191970" d="M723.1253,-88.5C736.1754,-88.5 751.0814,-88.5 765.5348,-88.5"/>
<polygon fill="#191970" stroke="#191970" points="765.9462,-92.0001 775.9462,-88.5 765.9461,-85.0001 765.9462,-92.0001"/>
</g>
</g>
</svg>
