<?xml version="1.0" encoding="UTF-8" standalone="no"?>
<!DOCTYPE svg PUBLIC "-//W3C//DTD SVG 1.1//EN"
 "http://www.w3.org/Graphics/SVG/1.1/DTD/svg11.dtd">
<!-- Generated by graphviz version 10.0.1 (20240210.2158)
 -->
<!-- Title: zrtos_vfs_file__ioctl_va Pages: 1 -->
<svg width="258pt" height="66pt"
 viewBox="0.00 0.00 258.25 66.00" xmlns="http://www.w3.org/2000/svg" xmlns:xlink="http://www.w3.org/1999/xlink">
<g id="graph0" class="graph" transform="scale(1 1) rotate(0) translate(4 62)">
<title>zrtos_vfs_file__ioctl_va</title>
<!-- Node1 -->
<g id="Node000001" class="node">
<title>Node1</title>
<g id="a_Node000001"><a xlink:title=" ">
<polygon fill="#999999" stroke="#666666" points="250.25,-39 136,-39 136,-19 250.25,-19 250.25,-39"/>
<text text-anchor="middle" x="193.12" y="-25.5" font-family="Helvetica,sans-Serif" font-size="10.00">zrtos_vfs_file__ioctl_va</text>
</a>
</g>
</g>
<!-- Node2 -->
<g id="Node000002" class="node">
<title>Node2</title>
<g id="a_Node000002"><a xlink:href="vfs__fd_8h.html#a8b47613498290a479e0e9ef1ed5d04c7" target="_top" xlink:title=" ">
<polygon fill="white" stroke="#666666" points="97.75,-58 2.25,-58 2.25,-38 97.75,-38 97.75,-58"/>
<text text-anchor="middle" x="50" y="-44.5" font-family="Helvetica,sans-Serif" font-size="10.00">zrtos_vfs_fd__ioctl</text>
</a>
</g>
</g>
<!-- Node1&#45;&gt;Node2 -->
<g id="edge1_Node000001_Node000002" class="edge">
<title>Node1&#45;&gt;Node2</title>
<g id="a_edge1_Node000001_Node000002"><a xlink:title=" ">
<path fill="none" stroke="#63b8ff" d="M124.36,-38.12C115.47,-39.32 106.53,-40.52 98.09,-41.66"/>
<polygon fill="#63b8ff" stroke="#63b8ff" points="124.59,-41.62 134.04,-36.82 123.66,-34.69 124.59,-41.62"/>
</a>
</g>
</g>
<!-- Node3 -->
<g id="Node000003" class="node">
<title>Node3</title>
<g id="a_Node000003"><a xlink:href="vfs__file_8h.html#af127ff734773439a8b847e52ec9c7c49" target="_top" xlink:title=" ">
<polygon fill="white" stroke="#666666" points="100,-20 0,-20 0,0 100,0 100,-20"/>
<text text-anchor="middle" x="50" y="-6.5" font-family="Helvetica,sans-Serif" font-size="10.00">zrtos_vfs_file__ioctl</text>
</a>
</g>
</g>
<!-- Node1&#45;&gt;Node3 -->
<g id="edge2_Node000001_Node000003" class="edge">
<title>Node1&#45;&gt;Node3</title>
<g id="a_edge2_Node000001_Node000003"><a xlink:title=" ">
<path fill="none" stroke="#63b8ff" d="M124.22,-19.86C116.16,-18.77 108.05,-17.68 100.32,-16.64"/>
<polygon fill="#63b8ff" stroke="#63b8ff" points="123.66,-23.31 134.04,-21.18 124.59,-16.38 123.66,-23.31"/>
</a>
</g>
</g>
</g>
</svg>
