<?xml version="1.0" encoding="UTF-8" standalone="no"?>
<!DOCTYPE svg PUBLIC "-//W3C//DTD SVG 1.1//EN"
 "http://www.w3.org/Graphics/SVG/1.1/DTD/svg11.dtd">
<!-- Generated by graphviz version 10.0.1 (20240210.2158)
 -->
<!-- Title: zrtos_vfs_file__get_data Pages: 1 -->
<svg width="287pt" height="390pt"
 viewBox="0.00 0.00 286.75 390.00" xmlns="http://www.w3.org/2000/svg" xmlns:xlink="http://www.w3.org/1999/xlink">
<g id="graph0" class="graph" transform="scale(1 1) rotate(0) translate(4 386)">
<title>zrtos_vfs_file__get_data</title>
<!-- Node1 -->
<g id="Node000001" class="node">
<title>Node1</title>
<g id="a_Node000001"><a xlink:title=" ">
<polygon fill="#999999" stroke="#666666" points="278.75,-201 159.25,-201 159.25,-181 278.75,-181 278.75,-201"/>
<text text-anchor="middle" x="219" y="-187.5" font-family="Helvetica,sans-Serif" font-size="10.00">zrtos_vfs_file__get_data</text>
</a>
</g>
</g>
<!-- Node2 -->
<g id="Node000002" class="node">
<title>Node2</title>
<g id="a_Node000002"><a xlink:href="spi_2spi_8h.html#ab9f0c0c32de4ecde5b4b06fc58dbeb4c" target="_top" xlink:title=" ">
<polygon fill="white" stroke="#666666" points="119.5,-382 3.75,-382 3.75,-350 119.5,-350 119.5,-382"/>
<text text-anchor="start" x="11.75" y="-368.5" font-family="Helvetica,sans-Serif" font-size="10.00">zrtos_vfs_module_spi</text>
<text text-anchor="middle" x="61.62" y="-356.5" font-family="Helvetica,sans-Serif" font-size="10.00">__on_after_file_transfer</text>
</a>
</g>
</g>
<!-- Node1&#45;&gt;Node2 -->
<g id="edge1_Node000001_Node000002" class="edge">
<title>Node1&#45;&gt;Node2</title>
<g id="a_edge1_Node000001_Node000002"><a xlink:title=" ">
<path fill="none" stroke="#63b8ff" d="M209.91,-211.54C196.42,-243.34 166.5,-304.63 123.25,-341 119.42,-344.22 115.11,-347.08 110.61,-349.6"/>
<polygon fill="#63b8ff" stroke="#63b8ff" points="212.99,-213.24 213.55,-202.66 206.52,-210.58 212.99,-213.24"/>
</a>
</g>
</g>
<!-- Node3 -->
<g id="Node000003" class="node">
<title>Node3</title>
<g id="a_Node000003"><a xlink:href="spi_2spi_8h.html#ae77580f002265b4ebf00e41a734b92a5" target="_top" xlink:title=" ">
<polygon fill="white" stroke="#666666" points="123.25,-332 0,-332 0,-300 123.25,-300 123.25,-332"/>
<text text-anchor="start" x="8" y="-318.5" font-family="Helvetica,sans-Serif" font-size="10.00">zrtos_vfs_module_spi</text>
<text text-anchor="middle" x="61.62" y="-306.5" font-family="Helvetica,sans-Serif" font-size="10.00">__on_before_file_transfer</text>
</a>
</g>
</g>
<!-- Node1&#45;&gt;Node3 -->
<g id="edge2_Node000001_Node000003" class="edge">
<title>Node1&#45;&gt;Node3</title>
<g id="a_edge2_Node000001_Node000003"><a xlink:title=" ">
<path fill="none" stroke="#63b8ff" d="M203.66,-210.51C186.6,-232.57 156.25,-268.34 123.25,-291 118.65,-294.16 113.59,-297.02 108.42,-299.59"/>
<polygon fill="#63b8ff" stroke="#63b8ff" points="206.37,-212.73 209.61,-202.65 200.78,-208.51 206.37,-212.73"/>
</a>
</g>
</g>
<!-- Node4 -->
<g id="Node000004" class="node">
<title>Node4</title>
<g id="a_Node000004"><a xlink:href="spi_2spi_8h.html#ae9ec912577b7ab2bf0b54a44d131556a" target="_top" xlink:title=" ">
<polygon fill="white" stroke="#666666" points="116.12,-282 7.12,-282 7.12,-250 116.12,-250 116.12,-282"/>
<text text-anchor="start" x="15.12" y="-268.5" font-family="Helvetica,sans-Serif" font-size="10.00">zrtos_vfs_module_spi</text>
<text text-anchor="middle" x="61.62" y="-256.5" font-family="Helvetica,sans-Serif" font-size="10.00">__on_can_read</text>
</a>
</g>
</g>
<!-- Node1&#45;&gt;Node4 -->
<g id="edge3_Node000001_Node000004" class="edge">
<title>Node1&#45;&gt;Node4</title>
<g id="a_edge3_Node000001_Node000004"><a xlink:title=" ">
<path fill="none" stroke="#63b8ff" d="M189.49,-206.95C170.86,-217.14 145.88,-230.39 123.25,-241 117.06,-243.9 110.45,-246.81 103.94,-249.57"/>
<polygon fill="#63b8ff" stroke="#63b8ff" points="190.99,-210.12 198.06,-202.22 187.62,-203.98 190.99,-210.12"/>
</a>
</g>
</g>
<!-- Node5 -->
<g id="Node000005" class="node">
<title>Node5</title>
<g id="a_Node000005"><a xlink:href="spi_2spi_8h.html#ab93abfacf91e2b203789d39463dfb39b" target="_top" xlink:title=" ">
<polygon fill="white" stroke="#666666" points="116.12,-232 7.12,-232 7.12,-200 116.12,-200 116.12,-232"/>
<text text-anchor="start" x="15.12" y="-218.5" font-family="Helvetica,sans-Serif" font-size="10.00">zrtos_vfs_module_spi</text>
<text text-anchor="middle" x="61.62" y="-206.5" font-family="Helvetica,sans-Serif" font-size="10.00">__on_can_write</text>
</a>
</g>
</g>
<!-- Node1&#45;&gt;Node5 -->
<g id="edge4_Node000001_Node000005" class="edge">
<title>Node1&#45;&gt;Node5</title>
<g id="a_edge4_Node000001_Node000005"><a xlink:title=" ">
<path fill="none" stroke="#63b8ff" d="M147.6,-202.33C137.17,-204.01 126.57,-205.71 116.54,-207.32"/>
<polygon fill="#63b8ff" stroke="#63b8ff" points="148,-205.81 157.32,-200.76 146.89,-198.9 148,-205.81"/>
</a>
</g>
</g>
<!-- Node6 -->
<g id="Node000006" class="node">
<title>Node6</title>
<g id="a_Node000006"><a xlink:href="spi_2spi_8h.html#a826707272b70b23c5ad24939f3115ca1" target="_top" xlink:title=" ">
<polygon fill="white" stroke="#666666" points="116.12,-182 7.12,-182 7.12,-150 116.12,-150 116.12,-182"/>
<text text-anchor="start" x="15.12" y="-168.5" font-family="Helvetica,sans-Serif" font-size="10.00">zrtos_vfs_module_spi</text>
<text text-anchor="middle" x="61.62" y="-156.5" font-family="Helvetica,sans-Serif" font-size="10.00">__on_close</text>
</a>
</g>
</g>
<!-- Node1&#45;&gt;Node6 -->
<g id="edge5_Node000001_Node000006" class="edge">
<title>Node1&#45;&gt;Node6</title>
<g id="a_edge5_Node000001_Node000006"><a xlink:title=" ">
<path fill="none" stroke="#63b8ff" d="M147.6,-179.67C137.17,-177.99 126.57,-176.29 116.54,-174.68"/>
<polygon fill="#63b8ff" stroke="#63b8ff" points="146.89,-183.1 157.32,-181.24 148,-176.19 146.89,-183.1"/>
</a>
</g>
</g>
<!-- Node7 -->
<g id="Node000007" class="node">
<title>Node7</title>
<g id="a_Node000007"><a xlink:href="spi_2spi_8h.html#a9ac4a098eaca792cc002870c820c1a01" target="_top" xlink:title=" ">
<polygon fill="white" stroke="#666666" points="116.12,-132 7.12,-132 7.12,-100 116.12,-100 116.12,-132"/>
<text text-anchor="start" x="15.12" y="-118.5" font-family="Helvetica,sans-Serif" font-size="10.00">zrtos_vfs_module_spi</text>
<text text-anchor="middle" x="61.62" y="-106.5" font-family="Helvetica,sans-Serif" font-size="10.00">__on_ioctl</text>
</a>
</g>
</g>
<!-- Node1&#45;&gt;Node7 -->
<g id="edge6_Node000001_Node000007" class="edge">
<title>Node1&#45;&gt;Node7</title>
<g id="a_edge6_Node000001_Node000007"><a xlink:title=" ">
<path fill="none" stroke="#63b8ff" d="M189.49,-175.05C170.86,-164.86 145.88,-151.61 123.25,-141 117.06,-138.1 110.45,-135.19 103.94,-132.43"/>
<polygon fill="#63b8ff" stroke="#63b8ff" points="187.62,-178.02 198.06,-179.78 190.99,-171.88 187.62,-178.02"/>
</a>
</g>
</g>
<!-- Node8 -->
<g id="Node000008" class="node">
<title>Node8</title>
<g id="a_Node000008"><a xlink:href="spi_2spi_8h.html#aa716f787c62ac9a980729df0fc9aa6e9" target="_top" xlink:title=" ">
<polygon fill="white" stroke="#666666" points="116.12,-82 7.12,-82 7.12,-50 116.12,-50 116.12,-82"/>
<text text-anchor="start" x="15.12" y="-68.5" font-family="Helvetica,sans-Serif" font-size="10.00">zrtos_vfs_module_spi</text>
<text text-anchor="middle" x="61.62" y="-56.5" font-family="Helvetica,sans-Serif" font-size="10.00">__on_read</text>
</a>
</g>
</g>
<!-- Node1&#45;&gt;Node8 -->
<g id="edge7_Node000001_Node000008" class="edge">
<title>Node1&#45;&gt;Node8</title>
<g id="a_edge7_Node000001_Node000008"><a xlink:title=" ">
<path fill="none" stroke="#63b8ff" d="M203.66,-171.49C186.6,-149.43 156.25,-113.66 123.25,-91 118.65,-87.84 113.59,-84.98 108.42,-82.41"/>
<polygon fill="#63b8ff" stroke="#63b8ff" points="200.78,-173.49 209.61,-179.35 206.37,-169.27 200.78,-173.49"/>
</a>
</g>
</g>
<!-- Node9 -->
<g id="Node000009" class="node">
<title>Node9</title>
<g id="a_Node000009"><a xlink:href="spi_2spi_8h.html#ac672df98eac652a9d1925ba73229c475" target="_top" xlink:title=" ">
<polygon fill="white" stroke="#666666" points="116.12,-32 7.12,-32 7.12,0 116.12,0 116.12,-32"/>
<text text-anchor="start" x="15.12" y="-18.5" font-family="Helvetica,sans-Serif" font-size="10.00">zrtos_vfs_module_spi</text>
<text text-anchor="middle" x="61.62" y="-6.5" font-family="Helvetica,sans-Serif" font-size="10.00">__on_write</text>
</a>
</g>
</g>
<!-- Node1&#45;&gt;Node9 -->
<g id="edge8_Node000001_Node000009" class="edge">
<title>Node1&#45;&gt;Node9</title>
<g id="a_edge8_Node000001_Node000009"><a xlink:title=" ">
<path fill="none" stroke="#63b8ff" d="M209.91,-170.46C196.42,-138.66 166.5,-77.37 123.25,-41 119.42,-37.78 115.11,-34.92 110.61,-32.4"/>
<polygon fill="#63b8ff" stroke="#63b8ff" points="206.52,-171.42 213.55,-179.34 212.99,-168.76 206.52,-171.42"/>
</a>
</g>
</g>
</g>
</svg>
