<?xml version="1.0" encoding="UTF-8" standalone="no"?>
<!DOCTYPE svg PUBLIC "-//W3C//DTD SVG 1.1//EN"
 "http://www.w3.org/Graphics/SVG/1.1/DTD/svg11.dtd">
<!-- Generated by graphviz version 10.0.1 (20240210.2158)
 -->
<!-- Title: vfs_file.h Pages: 1 -->
<svg width="520pt" height="320pt"
 viewBox="0.00 0.00 520.05 320.00" xmlns="http://www.w3.org/2000/svg" xmlns:xlink="http://www.w3.org/1999/xlink">
<g id="graph0" class="graph" transform="scale(1 1) rotate(0) translate(4 316)">
<title>vfs_file.h</title>
<!-- Node1 -->
<g id="Node000001" class="node">
<title>Node1</title>
<g id="a_Node000001"><a xlink:title=" ">
<polygon fill="#999999" stroke="#666666" points="299.05,-312 246.3,-312 246.3,-292 299.05,-292 299.05,-312"/>
<text text-anchor="middle" x="272.67" y="-298.5" font-family="Helvetica,sans-Serif" font-size="10.00">vfs_file.h</text>
</a>
</g>
</g>
<!-- Node2 -->
<g id="Node000002" class="node">
<title>Node2</title>
<g id="a_Node000002"><a xlink:href="error_8h.html" target="_top" xlink:title=" ">
<polygon fill="white" stroke="#666666" points="90.92,-76 22.42,-76 22.42,-56 90.92,-56 90.92,-76"/>
<text text-anchor="middle" x="56.67" y="-62.5" font-family="Helvetica,sans-Serif" font-size="10.00">zrtos/error.h</text>
</a>
</g>
</g>
<!-- Node1&#45;&gt;Node2 -->
<g id="edge1_Node000001_Node000002" class="edge">
<title>Node1&#45;&gt;Node2</title>
<g id="a_edge1_Node000001_Node000002"><a xlink:title=" ">
<path fill="none" stroke="#63b8ff" d="M246.17,-300.3C190.08,-297.21 59.92,-281.19 3.67,-200 -2.71,-190.79 0.25,-125.44 6.67,-112 12.19,-100.46 22.13,-90.56 31.71,-83.01"/>
<polygon fill="#63b8ff" stroke="#63b8ff" points="33.73,-85.87 39.76,-77.15 29.61,-80.2 33.73,-85.87"/>
</a>
</g>
</g>
<!-- Node5 -->
<g id="Node000005" class="node">
<title>Node5</title>
<g id="a_Node000005"><a xlink:href="bitfield_8h.html" target="_top" xlink:title=" ">
<polygon fill="white" stroke="#666666" points="512.05,-194 435.3,-194 435.3,-174 512.05,-174 512.05,-194"/>
<text text-anchor="middle" x="473.67" y="-180.5" font-family="Helvetica,sans-Serif" font-size="10.00">zrtos/bitfield.h</text>
</a>
</g>
</g>
<!-- Node1&#45;&gt;Node5 -->
<g id="edge4_Node000001_Node000005" class="edge">
<title>Node1&#45;&gt;Node5</title>
<g id="a_edge4_Node000001_Node000005"><a xlink:title=" ">
<path fill="none" stroke="#63b8ff" d="M289.12,-291.51C323.96,-271.4 405.41,-224.4 447.48,-200.11"/>
<polygon fill="#63b8ff" stroke="#63b8ff" points="449.06,-203.25 455.97,-195.22 445.56,-197.18 449.06,-203.25"/>
</a>
</g>
</g>
<!-- Node12 -->
<g id="Node000012" class="node">
<title>Node12</title>
<g id="a_Node000012"><a xlink:href="vfs__dentry_8h.html" target="_top" xlink:title=" ">
<polygon fill="white" stroke="#666666" points="318.92,-256 226.42,-256 226.42,-236 318.92,-236 318.92,-256"/>
<text text-anchor="middle" x="272.67" y="-242.5" font-family="Helvetica,sans-Serif" font-size="10.00">zrtos/vfs_dentry.h</text>
</a>
</g>
</g>
<!-- Node1&#45;&gt;Node12 -->
<g id="edge13_Node000001_Node000012" class="edge">
<title>Node1&#45;&gt;Node12</title>
<g id="a_edge13_Node000001_Node000012"><a xlink:title=" ">
<path fill="none" stroke="#63b8ff" d="M272.67,-291.59C272.67,-285.01 272.67,-275.96 272.67,-267.73"/>
<polygon fill="#63b8ff" stroke="#63b8ff" points="276.17,-267.81 272.67,-257.81 269.17,-267.81 276.17,-267.81"/>
</a>
</g>
</g>
<!-- Node3 -->
<g id="Node000003" class="node">
<title>Node3</title>
<g id="a_Node000003"><a xlink:title=" ">
<polygon fill="#e0e0e0" stroke="#999999" points="172.42,-20 124.92,-20 124.92,0 172.42,0 172.42,-20"/>
<text text-anchor="middle" x="148.67" y="-6.5" font-family="Helvetica,sans-Serif" font-size="10.00">limits.h</text>
</a>
</g>
</g>
<!-- Node2&#45;&gt;Node3 -->
<g id="edge2_Node000002_Node000003" class="edge">
<title>Node2&#45;&gt;Node3</title>
<g id="a_edge2_Node000002_Node000003"><a xlink:title=" ">
<path fill="none" stroke="#63b8ff" d="M72.7,-55.59C86.47,-47.51 106.58,-35.71 122.65,-26.27"/>
<polygon fill="#63b8ff" stroke="#63b8ff" points="124.37,-29.33 131.22,-21.25 120.82,-23.29 124.37,-29.33"/>
</a>
</g>
</g>
<!-- Node4 -->
<g id="Node000004" class="node">
<title>Node4</title>
<g id="a_Node000004"><a xlink:href="assert_8h.html" target="_top" xlink:title=" ">
<polygon fill="white" stroke="#666666" points="94.67,-20 18.67,-20 18.67,0 94.67,0 94.67,-20"/>
<text text-anchor="middle" x="56.67" y="-6.5" font-family="Helvetica,sans-Serif" font-size="10.00">zrtos/assert.h</text>
</a>
</g>
</g>
<!-- Node2&#45;&gt;Node4 -->
<g id="edge3_Node000002_Node000004" class="edge">
<title>Node2&#45;&gt;Node4</title>
<g id="a_edge3_Node000002_Node000004"><a xlink:title=" ">
<path fill="none" stroke="#63b8ff" d="M56.67,-55.59C56.67,-49.01 56.67,-39.96 56.67,-31.73"/>
<polygon fill="#63b8ff" stroke="#63b8ff" points="60.17,-31.81 56.67,-21.81 53.17,-31.81 60.17,-31.81"/>
</a>
</g>
</g>
<!-- Node6 -->
<g id="Node000006" class="node">
<title>Node6</title>
<g id="a_Node000006"><a xlink:href="types_8h.html" target="_top" xlink:title=" ">
<polygon fill="white" stroke="#666666" points="337.17,-76 264.17,-76 264.17,-56 337.17,-56 337.17,-76"/>
<text text-anchor="middle" x="300.67" y="-62.5" font-family="Helvetica,sans-Serif" font-size="10.00">zrtos/types.h</text>
</a>
</g>
</g>
<!-- Node5&#45;&gt;Node6 -->
<g id="edge5_Node000005_Node000006" class="edge">
<title>Node5&#45;&gt;Node6</title>
<g id="a_edge5_Node000005_Node000006"><a xlink:title=" ">
<path fill="none" stroke="#63b8ff" d="M471.45,-173.73C467.34,-158.64 457.18,-128.75 437.67,-112 412.69,-90.55 377.21,-79.26 348.62,-73.36"/>
<polygon fill="#63b8ff" stroke="#63b8ff" points="349.6,-69.98 339.12,-71.56 348.3,-76.86 349.6,-69.98"/>
</a>
</g>
</g>
<!-- Node10 -->
<g id="Node000010" class="node">
<title>Node10</title>
<g id="a_Node000010"><a xlink:href="mem_8h.html" target="_top" xlink:title=" ">
<polygon fill="white" stroke="#666666" points="272.05,-132 201.3,-132 201.3,-112 272.05,-112 272.05,-132"/>
<text text-anchor="middle" x="236.67" y="-118.5" font-family="Helvetica,sans-Serif" font-size="10.00">zrtos/mem.h</text>
</a>
</g>
</g>
<!-- Node5&#45;&gt;Node10 -->
<g id="edge10_Node000005_Node000010" class="edge">
<title>Node5&#45;&gt;Node10</title>
<g id="a_edge10_Node000005_Node000010"><a xlink:title=" ">
<path fill="none" stroke="#63b8ff" d="M436.38,-173.56C394.92,-163.06 327.91,-146.1 283.09,-134.75"/>
<polygon fill="#63b8ff" stroke="#63b8ff" points="284.22,-131.43 273.67,-132.37 282.5,-138.21 284.22,-131.43"/>
</a>
</g>
</g>
<!-- Node6&#45;&gt;Node3 -->
<g id="edge9_Node000006_Node000003" class="edge">
<title>Node6&#45;&gt;Node3</title>
<g id="a_edge9_Node000006_Node000003"><a xlink:title=" ">
<path fill="none" stroke="#63b8ff" d="M274.2,-55.59C249.08,-46.67 211.18,-33.21 183.6,-23.41"/>
<polygon fill="#63b8ff" stroke="#63b8ff" points="184.86,-20.14 174.27,-20.09 182.52,-26.74 184.86,-20.14"/>
</a>
</g>
</g>
<!-- Node7 -->
<g id="Node000007" class="node">
<title>Node7</title>
<g id="a_Node000007"><a xlink:title=" ">
<polygon fill="#e0e0e0" stroke="#999999" points="257.55,-20 201.8,-20 201.8,0 257.55,0 257.55,-20"/>
<text text-anchor="middle" x="229.67" y="-6.5" font-family="Helvetica,sans-Serif" font-size="10.00">stdbool.h</text>
</a>
</g>
</g>
<!-- Node6&#45;&gt;Node7 -->
<g id="edge6_Node000006_Node000007" class="edge">
<title>Node6&#45;&gt;Node7</title>
<g id="a_edge6_Node000006_Node000007"><a xlink:title=" ">
<path fill="none" stroke="#63b8ff" d="M288.31,-55.59C278.02,-47.77 263.15,-36.46 250.96,-27.19"/>
<polygon fill="#63b8ff" stroke="#63b8ff" points="253.18,-24.48 243.1,-21.21 248.94,-30.05 253.18,-24.48"/>
</a>
</g>
</g>
<!-- Node8 -->
<g id="Node000008" class="node">
<title>Node8</title>
<g id="a_Node000008"><a xlink:title=" ">
<polygon fill="#e0e0e0" stroke="#999999" points="325.92,-20 275.42,-20 275.42,0 325.92,0 325.92,-20"/>
<text text-anchor="middle" x="300.67" y="-6.5" font-family="Helvetica,sans-Serif" font-size="10.00">stddef.h</text>
</a>
</g>
</g>
<!-- Node6&#45;&gt;Node8 -->
<g id="edge7_Node000006_Node000008" class="edge">
<title>Node6&#45;&gt;Node8</title>
<g id="a_edge7_Node000006_Node000008"><a xlink:title=" ">
<path fill="none" stroke="#63b8ff" d="M300.67,-55.59C300.67,-49.01 300.67,-39.96 300.67,-31.73"/>
<polygon fill="#63b8ff" stroke="#63b8ff" points="304.17,-31.81 300.67,-21.81 297.17,-31.81 304.17,-31.81"/>
</a>
</g>
</g>
<!-- Node9 -->
<g id="Node000009" class="node">
<title>Node9</title>
<g id="a_Node000009"><a xlink:title=" ">
<polygon fill="#e0e0e0" stroke="#999999" points="391.8,-20 343.55,-20 343.55,0 391.8,0 391.8,-20"/>
<text text-anchor="middle" x="367.67" y="-6.5" font-family="Helvetica,sans-Serif" font-size="10.00">stdint.h</text>
</a>
</g>
</g>
<!-- Node6&#45;&gt;Node9 -->
<g id="edge8_Node000006_Node000009" class="edge">
<title>Node6&#45;&gt;Node9</title>
<g id="a_edge8_Node000006_Node000009"><a xlink:title=" ">
<path fill="none" stroke="#63b8ff" d="M312.34,-55.59C321.95,-47.85 335.8,-36.69 347.24,-27.47"/>
<polygon fill="#63b8ff" stroke="#63b8ff" points="349.37,-30.25 354.96,-21.25 344.98,-24.8 349.37,-30.25"/>
</a>
</g>
</g>
<!-- Node10&#45;&gt;Node6 -->
<g id="edge11_Node000010_Node000006" class="edge">
<title>Node10&#45;&gt;Node6</title>
<g id="a_edge11_Node000010_Node000006"><a xlink:title=" ">
<path fill="none" stroke="#63b8ff" d="M247.82,-111.59C257,-103.85 270.23,-92.69 281.16,-83.47"/>
<polygon fill="#63b8ff" stroke="#63b8ff" points="283.11,-86.4 288.5,-77.27 278.6,-81.05 283.11,-86.4"/>
</a>
</g>
</g>
<!-- Node11 -->
<g id="Node000011" class="node">
<title>Node11</title>
<g id="a_Node000011"><a xlink:href="cast_8h.html" target="_top" xlink:title=" ">
<polygon fill="white" stroke="#666666" points="246.55,-76 178.8,-76 178.8,-56 246.55,-56 246.55,-76"/>
<text text-anchor="middle" x="212.67" y="-62.5" font-family="Helvetica,sans-Serif" font-size="10.00">zrtos/cast.h</text>
</a>
</g>
</g>
<!-- Node10&#45;&gt;Node11 -->
<g id="edge12_Node000010_Node000011" class="edge">
<title>Node10&#45;&gt;Node11</title>
<g id="a_edge12_Node000010_Node000011"><a xlink:title=" ">
<path fill="none" stroke="#63b8ff" d="M232.49,-111.59C229.43,-104.7 225.16,-95.1 221.37,-86.57"/>
<polygon fill="#63b8ff" stroke="#63b8ff" points="224.68,-85.4 217.42,-77.68 218.28,-88.24 224.68,-85.4"/>
</a>
</g>
</g>
<!-- Node12&#45;&gt;Node6 -->
<g id="edge19_Node000012_Node000006" class="edge">
<title>Node12&#45;&gt;Node6</title>
<g id="a_edge19_Node000012_Node000006"><a xlink:title=" ">
<path fill="none" stroke="#63b8ff" d="M292.83,-235.51C324.21,-219.42 383.37,-183.42 404.67,-132 416.57,-103.28 381.07,-86.18 348.37,-76.78"/>
<polygon fill="#63b8ff" stroke="#63b8ff" points="349.48,-73.46 338.92,-74.27 347.69,-80.22 349.48,-73.46"/>
</a>
</g>
</g>
<!-- Node13 -->
<g id="Node000013" class="node">
<title>Node13</title>
<g id="a_Node000013"><a xlink:href="str_8h.html" target="_top" xlink:title=" ">
<polygon fill="white" stroke="#666666" points="302.8,-194 242.55,-194 242.55,-174 302.8,-174 302.8,-194"/>
<text text-anchor="middle" x="272.67" y="-180.5" font-family="Helvetica,sans-Serif" font-size="10.00">zrtos/str.h</text>
</a>
</g>
</g>
<!-- Node12&#45;&gt;Node13 -->
<g id="edge14_Node000012_Node000013" class="edge">
<title>Node12&#45;&gt;Node13</title>
<g id="a_edge14_Node000012_Node000013"><a xlink:title=" ">
<path fill="none" stroke="#63b8ff" d="M272.67,-235.62C272.67,-227.56 272.67,-215.65 272.67,-205.41"/>
<polygon fill="#63b8ff" stroke="#63b8ff" points="276.17,-205.63 272.67,-195.63 269.17,-205.63 276.17,-205.63"/>
</a>
</g>
</g>
<!-- Node15 -->
<g id="Node000015" class="node">
<title>Node15</title>
<g id="a_Node000015"><a xlink:href="clist_8h.html" target="_top" xlink:title=" ">
<polygon fill="white" stroke="#666666" points="395.17,-132 328.17,-132 328.17,-112 395.17,-112 395.17,-132"/>
<text text-anchor="middle" x="361.67" y="-118.5" font-family="Helvetica,sans-Serif" font-size="10.00">zrtos/clist.h</text>
</a>
</g>
</g>
<!-- Node12&#45;&gt;Node15 -->
<g id="edge20_Node000012_Node000015" class="edge">
<title>Node12&#45;&gt;Node15</title>
<g id="a_edge20_Node000012_Node000015"><a xlink:title=" ">
<path fill="none" stroke="#63b8ff" d="M281.44,-235.66C289.62,-226.78 301.98,-212.89 311.67,-200 326,-180.96 340.65,-157.9 350.35,-142"/>
<polygon fill="#63b8ff" stroke="#63b8ff" points="353.26,-143.95 355.44,-133.58 347.27,-140.33 353.26,-143.95"/>
</a>
</g>
</g>
<!-- Node16 -->
<g id="Node000016" class="node">
<title>Node16</title>
<g id="a_Node000016"><a xlink:href="vfs__inode_8h.html" target="_top" xlink:title=" ">
<polygon fill="white" stroke="#666666" points="224.05,-194 135.3,-194 135.3,-174 224.05,-174 224.05,-194"/>
<text text-anchor="middle" x="179.67" y="-180.5" font-family="Helvetica,sans-Serif" font-size="10.00">zrtos/vfs_inode.h</text>
</a>
</g>
</g>
<!-- Node12&#45;&gt;Node16 -->
<g id="edge22_Node000012_Node000016" class="edge">
<title>Node12&#45;&gt;Node16</title>
<g id="a_edge22_Node000012_Node000016"><a xlink:title=" ">
<path fill="none" stroke="#63b8ff" d="M258.14,-235.62C243.54,-226.2 220.78,-211.52 203.52,-200.39"/>
<polygon fill="#63b8ff" stroke="#63b8ff" points="205.68,-197.61 195.37,-195.13 201.88,-203.49 205.68,-197.61"/>
</a>
</g>
</g>
<!-- Node18 -->
<g id="Node000018" class="node">
<title>Node18</title>
<g id="a_Node000018"><a xlink:href="null_8h.html" target="_top" xlink:title=" ">
<polygon fill="white" stroke="#666666" points="116.92,-200 12.42,-200 12.42,-168 116.92,-168 116.92,-200"/>
<text text-anchor="start" x="20.42" y="-186.5" font-family="Helvetica,sans-Serif" font-size="10.00">zrtos/vfs/module/null</text>
<text text-anchor="middle" x="64.67" y="-174.5" font-family="Helvetica,sans-Serif" font-size="10.00">/null.h</text>
</a>
</g>
</g>
<!-- Node12&#45;&gt;Node18 -->
<g id="edge27_Node000012_Node000018" class="edge">
<title>Node12&#45;&gt;Node18</title>
<g id="a_edge27_Node000012_Node000018"><a xlink:title=" ">
<path fill="none" stroke="#63b8ff" d="M240.17,-235.62C210.22,-226.99 164.94,-213.92 127.87,-203.23"/>
<polygon fill="#63b8ff" stroke="#63b8ff" points="129.19,-199.97 118.62,-200.56 127.25,-206.69 129.19,-199.97"/>
</a>
</g>
</g>
<!-- Node13&#45;&gt;Node6 -->
<g id="edge16_Node000013_Node000006" class="edge">
<title>Node13&#45;&gt;Node6</title>
<g id="a_edge16_Node000013_Node000006"><a xlink:title=" ">
<path fill="none" stroke="#63b8ff" d="M274.97,-173.51C279.5,-154.72 289.71,-112.44 295.81,-87.16"/>
<polygon fill="#63b8ff" stroke="#63b8ff" points="299.13,-88.31 298.07,-77.77 292.33,-86.67 299.13,-88.31"/>
</a>
</g>
</g>
<!-- Node13&#45;&gt;Node10 -->
<g id="edge18_Node000013_Node000010" class="edge">
<title>Node13&#45;&gt;Node10</title>
<g id="a_edge18_Node000013_Node000010"><a xlink:title=" ">
<path fill="none" stroke="#63b8ff" d="M267.05,-173.62C261.95,-165.12 254.27,-152.33 247.92,-141.74"/>
<polygon fill="#63b8ff" stroke="#63b8ff" points="251.07,-140.18 242.92,-133.41 245.06,-143.79 251.07,-140.18"/>
</a>
</g>
</g>
<!-- Node13&#45;&gt;Node11 -->
<g id="edge17_Node000013_Node000011" class="edge">
<title>Node13&#45;&gt;Node11</title>
<g id="a_edge17_Node000013_Node000011"><a xlink:title=" ">
<path fill="none" stroke="#63b8ff" d="M245.11,-173.53C226.65,-165.58 203.76,-152.22 192.67,-132 184.7,-117.46 191.5,-99.31 199.26,-85.89"/>
<polygon fill="#63b8ff" stroke="#63b8ff" points="202.14,-87.87 204.6,-77.57 196.25,-84.09 202.14,-87.87"/>
</a>
</g>
</g>
<!-- Node14 -->
<g id="Node000014" class="node">
<title>Node14</title>
<g id="a_Node000014"><a xlink:title=" ">
<polygon fill="#e0e0e0" stroke="#999999" points="160.3,-76 109.05,-76 109.05,-56 160.3,-56 160.3,-76"/>
<text text-anchor="middle" x="134.67" y="-62.5" font-family="Helvetica,sans-Serif" font-size="10.00">stdarg.h</text>
</a>
</g>
</g>
<!-- Node13&#45;&gt;Node14 -->
<g id="edge15_Node000013_Node000014" class="edge">
<title>Node13&#45;&gt;Node14</title>
<g id="a_edge15_Node000013_Node000014"><a xlink:title=" ">
<path fill="none" stroke="#63b8ff" d="M251.92,-173.61C233.34,-164.59 205.98,-149.74 185.67,-132 170.18,-118.47 156.04,-99.69 146.59,-85.8"/>
<polygon fill="#63b8ff" stroke="#63b8ff" points="149.6,-83.99 141.18,-77.56 143.75,-87.84 149.6,-83.99"/>
</a>
</g>
</g>
<!-- Node15&#45;&gt;Node6 -->
<g id="edge21_Node000015_Node000006" class="edge">
<title>Node15&#45;&gt;Node6</title>
<g id="a_edge21_Node000015_Node000006"><a xlink:title=" ">
<path fill="none" stroke="#63b8ff" d="M351.05,-111.59C342.39,-103.93 329.94,-92.91 319.59,-83.75"/>
<polygon fill="#63b8ff" stroke="#63b8ff" points="322.12,-81.31 312.31,-77.3 317.48,-86.55 322.12,-81.31"/>
</a>
</g>
</g>
<!-- Node17 -->
<g id="Node000017" class="node">
<title>Node17</title>
<g id="a_Node000017"><a xlink:href="vfs__plugin_8h.html" target="_top" xlink:title=" ">
<polygon fill="white" stroke="#666666" points="107.17,-132 16.17,-132 16.17,-112 107.17,-112 107.17,-132"/>
<text text-anchor="middle" x="61.67" y="-118.5" font-family="Helvetica,sans-Serif" font-size="10.00">zrtos/vfs_plugin.h</text>
</a>
</g>
</g>
<!-- Node16&#45;&gt;Node17 -->
<g id="edge23_Node000016_Node000017" class="edge">
<title>Node16&#45;&gt;Node17</title>
<g id="a_edge23_Node000016_Node000017"><a xlink:title=" ">
<path fill="none" stroke="#63b8ff" d="M161.24,-173.62C142.19,-163.94 112.2,-148.69 90.11,-137.46"/>
<polygon fill="#63b8ff" stroke="#63b8ff" points="91.83,-134.41 81.33,-133 88.66,-140.65 91.83,-134.41"/>
</a>
</g>
</g>
<!-- Node17&#45;&gt;Node2 -->
<g id="edge26_Node000017_Node000002" class="edge">
<title>Node17&#45;&gt;Node2</title>
<g id="a_edge26_Node000017_Node000002"><a xlink:title=" ">
<path fill="none" stroke="#63b8ff" d="M60.8,-111.59C60.19,-105.01 59.36,-95.96 58.59,-87.73"/>
<polygon fill="#63b8ff" stroke="#63b8ff" points="62.08,-87.44 57.67,-77.81 55.11,-88.09 62.08,-87.44"/>
</a>
</g>
</g>
<!-- Node17&#45;&gt;Node6 -->
<g id="edge25_Node000017_Node000006" class="edge">
<title>Node17&#45;&gt;Node6</title>
<g id="a_edge25_Node000017_Node000006"><a xlink:title=" ">
<path fill="none" stroke="#63b8ff" d="M103.58,-111.53C145.24,-102.12 209.07,-87.7 252.73,-77.83"/>
<polygon fill="#63b8ff" stroke="#63b8ff" points="253.46,-81.26 262.44,-75.64 251.92,-74.43 253.46,-81.26"/>
</a>
</g>
</g>
<!-- Node17&#45;&gt;Node14 -->
<g id="edge24_Node000017_Node000014" class="edge">
<title>Node17&#45;&gt;Node14</title>
<g id="a_edge24_Node000017_Node000014"><a xlink:title=" ">
<path fill="none" stroke="#63b8ff" d="M74.39,-111.59C85.07,-103.7 100.55,-92.24 113.16,-82.92"/>
<polygon fill="#63b8ff" stroke="#63b8ff" points="114.93,-85.96 120.89,-77.2 110.77,-80.33 114.93,-85.96"/>
</a>
</g>
</g>
<!-- Node18&#45;&gt;Node17 -->
<g id="edge28_Node000018_Node000017" class="edge">
<title>Node18&#45;&gt;Node17</title>
<g id="a_edge28_Node000018_Node000017"><a xlink:title=" ">
<path fill="none" stroke="#63b8ff" d="M63.9,-167.55C63.54,-160.34 63.11,-151.66 62.72,-143.88"/>
<polygon fill="#63b8ff" stroke="#63b8ff" points="66.21,-143.73 62.22,-133.92 59.22,-144.08 66.21,-143.73"/>
</a>
</g>
</g>
</g>
</svg>
