<?xml version="1.0" encoding="UTF-8" standalone="no"?>
<!DOCTYPE svg PUBLIC "-//W3C//DTD SVG 1.1//EN"
 "http://www.w3.org/Graphics/SVG/1.1/DTD/svg11.dtd">
<!-- Generated by graphviz version 2.40.1 (20161225.0304)
 -->
<!-- Title: gpio.h Pages: 1 -->
<svg width="607pt" height="319pt"
 viewBox="0.00 0.00 606.50 319.00" xmlns="http://www.w3.org/2000/svg" xmlns:xlink="http://www.w3.org/1999/xlink">
<g id="graph0" class="graph" transform="scale(1 1) rotate(0) translate(4 315)">
<title>gpio.h</title>
<polygon fill="#ffffff" stroke="transparent" points="-4,4 -4,-315 602.5,-315 602.5,4 -4,4"/>
<!-- Node0 -->
<g id="node1" class="node">
<title>Node0</title>
<polygon fill="#bfbfbf" stroke="#000000" points="64.5,-291.5 64.5,-310.5 107.5,-310.5 107.5,-291.5 64.5,-291.5"/>
<text text-anchor="middle" x="86" y="-298.5" font-family="Helvetica,sans-Serif" font-size="10.00" fill="#000000">gpio.h</text>
</g>
<!-- Node1 -->
<g id="node2" class="node">
<title>Node1</title>
<polygon fill="#ffffff" stroke="#bfbfbf" points="0,-230 0,-249 58,-249 58,-230 0,-230"/>
<text text-anchor="middle" x="29" y="-237" font-family="Helvetica,sans-Serif" font-size="10.00" fill="#000000">Arduino.h</text>
</g>
<!-- Node0&#45;&gt;Node1 -->
<g id="edge1" class="edge">
<title>Node0&#45;&gt;Node1</title>
<path fill="none" stroke="#191970" d="M77.0938,-291.3906C68.5272,-282.1478 55.3831,-267.966 44.9997,-256.7628"/>
<polygon fill="#191970" stroke="#191970" points="47.3965,-254.2 38.0318,-249.2449 42.2625,-258.9584 47.3965,-254.2"/>
</g>
<!-- Node2 -->
<g id="node3" class="node">
<title>Node2</title>
<g id="a_node3"><a xlink:href="error_8h.html" target="_top" xlink:title="zrtos/error.h">
<polygon fill="#ffffff" stroke="#000000" points="54.5,-112.5 54.5,-131.5 123.5,-131.5 123.5,-112.5 54.5,-112.5"/>
<text text-anchor="middle" x="89" y="-119.5" font-family="Helvetica,sans-Serif" font-size="10.00" fill="#000000">zrtos/error.h</text>
</a>
</g>
</g>
<!-- Node0&#45;&gt;Node2 -->
<g id="edge2" class="edge">
<title>Node0&#45;&gt;Node2</title>
<path fill="none" stroke="#191970" d="M86.1613,-291.3762C86.6334,-263.2097 88.0193,-180.5126 88.6636,-142.0713"/>
<polygon fill="#191970" stroke="#191970" points="92.1697,-141.7287 88.8379,-131.6714 85.1707,-141.6113 92.1697,-141.7287"/>
</g>
<!-- Node6 -->
<g id="node7" class="node">
<title>Node6</title>
<g id="a_node7"><a xlink:href="vfs_2module_2gpio_2gpio_8h.html" target="_top" xlink:title="zrtos/vfs/module/gpio\l/gpio.h">
<polygon fill="#ffffff" stroke="#000000" points="114,-224.5 114,-254.5 224,-254.5 224,-224.5 114,-224.5"/>
<text text-anchor="start" x="122" y="-242.5" font-family="Helvetica,sans-Serif" font-size="10.00" fill="#000000">zrtos/vfs/module/gpio</text>
<text text-anchor="middle" x="169" y="-231.5" font-family="Helvetica,sans-Serif" font-size="10.00" fill="#000000">/gpio.h</text>
</a>
</g>
</g>
<!-- Node0&#45;&gt;Node6 -->
<g id="edge6" class="edge">
<title>Node0&#45;&gt;Node6</title>
<path fill="none" stroke="#191970" d="M98.9688,-291.3906C109.9938,-283.2215 126.2258,-271.1941 140.2872,-260.7752"/>
<polygon fill="#191970" stroke="#191970" points="142.7449,-263.3102 148.6959,-254.5446 138.5775,-257.6859 142.7449,-263.3102"/>
</g>
<!-- Node3 -->
<g id="node4" class="node">
<title>Node3</title>
<polygon fill="#ffffff" stroke="#bfbfbf" points="41,-.5 41,-19.5 89,-19.5 89,-.5 41,-.5"/>
<text text-anchor="middle" x="65" y="-7.5" font-family="Helvetica,sans-Serif" font-size="10.00" fill="#000000">limits.h</text>
</g>
<!-- Node2&#45;&gt;Node3 -->
<g id="edge3" class="edge">
<title>Node2&#45;&gt;Node3</title>
<path fill="none" stroke="#191970" d="M86.9538,-112.4509C83.0217,-94.1013 74.3409,-53.5908 69.1506,-29.3693"/>
<polygon fill="#191970" stroke="#191970" points="72.5587,-28.5695 67.041,-19.5249 65.7141,-30.0363 72.5587,-28.5695"/>
</g>
<!-- Node4 -->
<g id="node5" class="node">
<title>Node4</title>
<polygon fill="#ffffff" stroke="#bfbfbf" points="107,-.5 107,-19.5 163,-19.5 163,-.5 107,-.5"/>
<text text-anchor="middle" x="135" y="-7.5" font-family="Helvetica,sans-Serif" font-size="10.00" fill="#000000">stdbool.h</text>
</g>
<!-- Node2&#45;&gt;Node4 -->
<g id="edge4" class="edge">
<title>Node2&#45;&gt;Node4</title>
<path fill="none" stroke="#191970" d="M92.9219,-112.4509C100.4923,-94.0186 117.2467,-53.2254 127.1788,-29.043"/>
<polygon fill="#191970" stroke="#191970" points="130.5263,-30.1048 131.088,-19.5249 124.0512,-27.4454 130.5263,-30.1048"/>
</g>
<!-- Node5 -->
<g id="node6" class="node">
<title>Node5</title>
<g id="a_node6"><a xlink:href="assert_8h.html" target="_top" xlink:title="zrtos/assert.h">
<polygon fill="#ffffff" stroke="#000000" points="142.5,-56.5 142.5,-75.5 219.5,-75.5 219.5,-56.5 142.5,-56.5"/>
<text text-anchor="middle" x="181" y="-63.5" font-family="Helvetica,sans-Serif" font-size="10.00" fill="#000000">zrtos/assert.h</text>
</a>
</g>
</g>
<!-- Node2&#45;&gt;Node5 -->
<g id="edge5" class="edge">
<title>Node2&#45;&gt;Node5</title>
<path fill="none" stroke="#191970" d="M105.0252,-112.2455C119.1408,-103.6534 139.9263,-91.0014 156.1899,-81.1018"/>
<polygon fill="#191970" stroke="#191970" points="158.4363,-83.8319 165.1585,-75.6427 154.7966,-77.8525 158.4363,-83.8319"/>
</g>
<!-- Node7 -->
<g id="node8" class="node">
<title>Node7</title>
<g id="a_node8"><a xlink:href="vfs__plugin_8h.html" target="_top" xlink:title="zrtos/vfs_plugin.h">
<polygon fill="#ffffff" stroke="#000000" points="114,-168.5 114,-187.5 208,-187.5 208,-168.5 114,-168.5"/>
<text text-anchor="middle" x="161" y="-175.5" font-family="Helvetica,sans-Serif" font-size="10.00" fill="#000000">zrtos/vfs_plugin.h</text>
</a>
</g>
</g>
<!-- Node6&#45;&gt;Node7 -->
<g id="edge7" class="edge">
<title>Node6&#45;&gt;Node7</title>
<path fill="none" stroke="#191970" d="M167.0225,-224.2977C165.9814,-216.2945 164.6923,-206.3843 163.5742,-197.7889"/>
<polygon fill="#191970" stroke="#191970" points="167.0417,-197.3119 162.2809,-187.8469 160.1002,-198.2149 167.0417,-197.3119"/>
</g>
<!-- Node14 -->
<g id="node15" class="node">
<title>Node14</title>
<g id="a_node15"><a xlink:href="gpio_8h.html" target="_top" xlink:title="zrtos/gpio.h">
<polygon fill="#ffffff" stroke="#000000" points="226,-168.5 226,-187.5 294,-187.5 294,-168.5 226,-168.5"/>
<text text-anchor="middle" x="260" y="-175.5" font-family="Helvetica,sans-Serif" font-size="10.00" fill="#000000">zrtos/gpio.h</text>
</a>
</g>
</g>
<!-- Node6&#45;&gt;Node14 -->
<g id="edge17" class="edge">
<title>Node6&#45;&gt;Node14</title>
<path fill="none" stroke="#191970" d="M191.4944,-224.2977C205.3967,-214.9022 223.1876,-202.8787 237.1546,-193.4395"/>
<polygon fill="#191970" stroke="#191970" points="239.376,-196.1626 245.7015,-187.6633 235.4564,-190.3629 239.376,-196.1626"/>
</g>
<!-- Node7&#45;&gt;Node2 -->
<g id="edge16" class="edge">
<title>Node7&#45;&gt;Node2</title>
<path fill="none" stroke="#191970" d="M148.4586,-168.2455C137.7213,-159.8943 122.0527,-147.7076 109.4953,-137.9408"/>
<polygon fill="#191970" stroke="#191970" points="111.4401,-135.0194 101.3977,-131.6427 107.1425,-140.5449 111.4401,-135.0194"/>
</g>
<!-- Node8 -->
<g id="node9" class="node">
<title>Node8</title>
<polygon fill="#ffffff" stroke="#bfbfbf" points="180,-112.5 180,-131.5 232,-131.5 232,-112.5 180,-112.5"/>
<text text-anchor="middle" x="206" y="-119.5" font-family="Helvetica,sans-Serif" font-size="10.00" fill="#000000">stdarg.h</text>
</g>
<!-- Node7&#45;&gt;Node8 -->
<g id="edge8" class="edge">
<title>Node7&#45;&gt;Node8</title>
<path fill="none" stroke="#191970" d="M168.8384,-168.2455C175.162,-160.3761 184.2224,-149.101 191.8136,-139.6542"/>
<polygon fill="#191970" stroke="#191970" points="194.7158,-141.6302 198.2514,-131.6427 189.2592,-137.2454 194.7158,-141.6302"/>
</g>
<!-- Node9 -->
<g id="node10" class="node">
<title>Node9</title>
<g id="a_node10"><a xlink:href="types_8h.html" target="_top" xlink:title="zrtos/types.h">
<polygon fill="#ffffff" stroke="#000000" points="238,-56.5 238,-75.5 312,-75.5 312,-56.5 238,-56.5"/>
<text text-anchor="middle" x="275" y="-63.5" font-family="Helvetica,sans-Serif" font-size="10.00" fill="#000000">zrtos/types.h</text>
</a>
</g>
</g>
<!-- Node7&#45;&gt;Node9 -->
<g id="edge9" class="edge">
<title>Node7&#45;&gt;Node9</title>
<path fill="none" stroke="#191970" d="M159.7724,-168.3861C158.5371,-154.4718 158.3363,-128.5767 171,-112 179.4223,-100.9752 209.943,-88.1911 235.7593,-78.9023"/>
<polygon fill="#191970" stroke="#191970" points="237.0944,-82.143 245.3675,-75.5244 234.7727,-75.5392 237.0944,-82.143"/>
</g>
<!-- Node9&#45;&gt;Node3 -->
<g id="edge13" class="edge">
<title>Node9&#45;&gt;Node3</title>
<path fill="none" stroke="#191970" d="M237.9325,-56.8252C204.0731,-48.3426 152.4059,-35.1447 98.7926,-20.1497"/>
<polygon fill="#191970" stroke="#191970" points="99.692,-16.7669 89.118,-17.4299 97.7976,-23.5057 99.692,-16.7669"/>
</g>
<!-- Node9&#45;&gt;Node4 -->
<g id="edge10" class="edge">
<title>Node9&#45;&gt;Node4</title>
<path fill="none" stroke="#191970" d="M250.9331,-56.3733C228.1572,-47.2629 193.7656,-33.5062 168.351,-23.3404"/>
<polygon fill="#191970" stroke="#191970" points="169.3375,-19.9654 158.7528,-19.5011 166.7377,-26.4648 169.3375,-19.9654"/>
</g>
<!-- Node10 -->
<g id="node11" class="node">
<title>Node10</title>
<polygon fill="#ffffff" stroke="#bfbfbf" points="412,-.5 412,-19.5 464,-19.5 464,-.5 412,-.5"/>
<text text-anchor="middle" x="438" y="-7.5" font-family="Helvetica,sans-Serif" font-size="10.00" fill="#000000">stddef.h</text>
</g>
<!-- Node9&#45;&gt;Node10 -->
<g id="edge11" class="edge">
<title>Node9&#45;&gt;Node10</title>
<path fill="none" stroke="#191970" d="M303.0207,-56.3733C330.4985,-46.933 372.497,-32.5041 402.3414,-22.2508"/>
<polygon fill="#191970" stroke="#191970" points="403.6379,-25.5063 411.9581,-18.9469 401.3634,-18.8861 403.6379,-25.5063"/>
</g>
<!-- Node11 -->
<g id="node12" class="node">
<title>Node11</title>
<polygon fill="#ffffff" stroke="#bfbfbf" points="181.5,-.5 181.5,-19.5 230.5,-19.5 230.5,-.5 181.5,-.5"/>
<text text-anchor="middle" x="206" y="-7.5" font-family="Helvetica,sans-Serif" font-size="10.00" fill="#000000">stdint.h</text>
</g>
<!-- Node9&#45;&gt;Node11 -->
<g id="edge12" class="edge">
<title>Node9&#45;&gt;Node11</title>
<path fill="none" stroke="#191970" d="M262.9811,-56.2455C252.7902,-47.9746 237.9638,-35.9416 225.9893,-26.2232"/>
<polygon fill="#191970" stroke="#191970" points="227.8514,-23.2268 217.8812,-19.6427 223.4402,-28.662 227.8514,-23.2268"/>
</g>
<!-- Node12 -->
<g id="node13" class="node">
<title>Node12</title>
<polygon fill="#ffffff" stroke="#bfbfbf" points="248.5,-.5 248.5,-19.5 307.5,-19.5 307.5,-.5 248.5,-.5"/>
<text text-anchor="middle" x="278" y="-7.5" font-family="Helvetica,sans-Serif" font-size="10.00" fill="#000000">stdalign.h</text>
</g>
<!-- Node9&#45;&gt;Node12 -->
<g id="edge14" class="edge">
<title>Node9&#45;&gt;Node12</title>
<path fill="none" stroke="#191970" d="M275.5226,-56.2455C275.914,-48.9382 276.4628,-38.6944 276.9444,-29.7046"/>
<polygon fill="#191970" stroke="#191970" points="280.4434,-29.8156 277.4834,-19.6427 273.4534,-29.4411 280.4434,-29.8156"/>
</g>
<!-- Node13 -->
<g id="node14" class="node">
<title>Node13</title>
<g id="a_node14"><a xlink:href="cast_8h.html" target="_top" xlink:title="zrtos/cast.h">
<polygon fill="#ffffff" stroke="#000000" points="326,-.5 326,-19.5 394,-19.5 394,-.5 326,-.5"/>
<text text-anchor="middle" x="360" y="-7.5" font-family="Helvetica,sans-Serif" font-size="10.00" fill="#000000">zrtos/cast.h</text>
</a>
</g>
</g>
<!-- Node9&#45;&gt;Node13 -->
<g id="edge15" class="edge">
<title>Node9&#45;&gt;Node13</title>
<path fill="none" stroke="#191970" d="M289.8059,-56.2455C302.7256,-47.7337 321.6931,-35.2375 336.6552,-25.3801"/>
<polygon fill="#191970" stroke="#191970" points="338.9387,-28.067 345.3638,-19.6427 335.0876,-22.2216 338.9387,-28.067"/>
</g>
<!-- Node14&#45;&gt;Node2 -->
<g id="edge19" class="edge">
<title>Node14&#45;&gt;Node2</title>
<path fill="none" stroke="#191970" d="M230.6041,-168.3733C202.1693,-159.0613 158.9123,-144.8953 127.6919,-134.671"/>
<polygon fill="#191970" stroke="#191970" points="128.605,-131.2872 118.0124,-131.5011 126.4264,-137.9396 128.605,-131.2872"/>
</g>
<!-- Node14&#45;&gt;Node5 -->
<g id="edge28" class="edge">
<title>Node14&#45;&gt;Node5</title>
<path fill="none" stroke="#191970" d="M259.1136,-168.236C257.4726,-154.5937 252.9579,-129.5349 241,-112 232.4551,-99.4699 219.4005,-88.8796 207.6479,-81.0308"/>
<polygon fill="#191970" stroke="#191970" points="209.3347,-77.9566 199.0107,-75.5764 205.5971,-83.8752 209.3347,-77.9566"/>
</g>
<!-- Node14&#45;&gt;Node8 -->
<g id="edge18" class="edge">
<title>Node14&#45;&gt;Node8</title>
<path fill="none" stroke="#191970" d="M250.5939,-168.2455C242.8507,-160.2155 231.688,-148.6394 222.4682,-139.0781"/>
<polygon fill="#191970" stroke="#191970" points="224.7591,-136.4117 215.2983,-131.6427 219.7202,-141.2706 224.7591,-136.4117"/>
</g>
<!-- Node14&#45;&gt;Node9 -->
<g id="edge20" class="edge">
<title>Node14&#45;&gt;Node9</title>
<path fill="none" stroke="#191970" d="M263.8177,-168.316C267.2277,-159.133 271.9858,-144.8658 274,-132 276.3854,-116.7634 276.5391,-99.3069 276.1484,-86.1753"/>
<polygon fill="#191970" stroke="#191970" points="279.6336,-85.7536 275.7072,-75.9131 272.64,-86.0543 279.6336,-85.7536"/>
</g>
<!-- Node15 -->
<g id="node16" class="node">
<title>Node15</title>
<g id="a_node16"><a xlink:href="arch_8h.html" target="_top" xlink:title="zrtos/arch.h">
<polygon fill="#ffffff" stroke="#000000" points="326,-112.5 326,-131.5 394,-131.5 394,-112.5 326,-112.5"/>
<text text-anchor="middle" x="360" y="-119.5" font-family="Helvetica,sans-Serif" font-size="10.00" fill="#000000">zrtos/arch.h</text>
</a>
</g>
</g>
<!-- Node14&#45;&gt;Node15 -->
<g id="edge21" class="edge">
<title>Node14&#45;&gt;Node15</title>
<path fill="none" stroke="#191970" d="M277.4187,-168.2455C293.0485,-159.4928 316.2019,-146.527 334.0185,-136.5496"/>
<polygon fill="#191970" stroke="#191970" points="335.766,-139.5825 342.7809,-131.6427 332.3457,-133.475 335.766,-139.5825"/>
</g>
<!-- Node15&#45;&gt;Node5 -->
<g id="edge23" class="edge">
<title>Node15&#45;&gt;Node5</title>
<path fill="none" stroke="#191970" d="M329.2288,-112.3733C299.335,-103.021 253.7907,-88.7725 221.0783,-78.5385"/>
<polygon fill="#191970" stroke="#191970" points="221.9586,-75.1466 211.3697,-75.5011 219.8685,-81.8273 221.9586,-75.1466"/>
</g>
<!-- Node15&#45;&gt;Node9 -->
<g id="edge22" class="edge">
<title>Node15&#45;&gt;Node9</title>
<path fill="none" stroke="#191970" d="M345.1941,-112.2455C332.2744,-103.7337 313.3069,-91.2375 298.3448,-81.3801"/>
<polygon fill="#191970" stroke="#191970" points="299.9124,-78.2216 289.6362,-75.6427 296.0613,-84.067 299.9124,-78.2216"/>
</g>
<!-- Node16 -->
<g id="node17" class="node">
<title>Node16</title>
<g id="a_node17"><a xlink:href="atmega328p_8h.html" target="_top" xlink:title="zrtos/arch/atmega328p.h">
<polygon fill="#ffffff" stroke="#000000" points="330.5,-56.5 330.5,-75.5 455.5,-75.5 455.5,-56.5 330.5,-56.5"/>
<text text-anchor="middle" x="393" y="-63.5" font-family="Helvetica,sans-Serif" font-size="10.00" fill="#000000">zrtos/arch/atmega328p.h</text>
</a>
</g>
</g>
<!-- Node15&#45;&gt;Node16 -->
<g id="edge24" class="edge">
<title>Node15&#45;&gt;Node16</title>
<path fill="none" stroke="#191970" d="M365.7482,-112.2455C370.2435,-104.617 376.6248,-93.7881 382.0825,-84.5267"/>
<polygon fill="#191970" stroke="#191970" points="385.2561,-86.035 387.3177,-75.6427 379.2253,-82.4811 385.2561,-86.035"/>
</g>
<!-- Node18 -->
<g id="node19" class="node">
<title>Node18</title>
<g id="a_node19"><a xlink:href="atmega2560_8h.html" target="_top" xlink:title="zrtos/arch/atmega2560.h">
<polygon fill="#ffffff" stroke="#000000" points="473.5,-56.5 473.5,-75.5 598.5,-75.5 598.5,-56.5 473.5,-56.5"/>
<text text-anchor="middle" x="536" y="-63.5" font-family="Helvetica,sans-Serif" font-size="10.00" fill="#000000">zrtos/arch/atmega2560.h</text>
</a>
</g>
</g>
<!-- Node15&#45;&gt;Node18 -->
<g id="edge26" class="edge">
<title>Node15&#45;&gt;Node18</title>
<path fill="none" stroke="#191970" d="M390.2555,-112.3733C419.6483,-103.021 464.4292,-88.7725 496.5934,-78.5385"/>
<polygon fill="#191970" stroke="#191970" points="497.6713,-81.8685 506.1393,-75.5011 495.5488,-75.198 497.6713,-81.8685"/>
</g>
<!-- Node17 -->
<g id="node18" class="node">
<title>Node17</title>
<polygon fill="#ffffff" stroke="#bfbfbf" points="487,-.5 487,-19.5 579,-19.5 579,-.5 487,-.5"/>
<text text-anchor="middle" x="533" y="-7.5" font-family="Helvetica,sans-Serif" font-size="10.00" fill="#000000">util/delay_basic.h</text>
</g>
<!-- Node16&#45;&gt;Node17 -->
<g id="edge25" class="edge">
<title>Node16&#45;&gt;Node17</title>
<path fill="none" stroke="#191970" d="M417.0669,-56.3733C439.8428,-47.2629 474.2344,-33.5062 499.649,-23.3404"/>
<polygon fill="#191970" stroke="#191970" points="501.2623,-26.4648 509.2472,-19.5011 498.6625,-19.9654 501.2623,-26.4648"/>
</g>
<!-- Node18&#45;&gt;Node17 -->
<g id="edge27" class="edge">
<title>Node18&#45;&gt;Node17</title>
<path fill="none" stroke="#191970" d="M535.4774,-56.2455C535.086,-48.9382 534.5372,-38.6944 534.0556,-29.7046"/>
<polygon fill="#191970" stroke="#191970" points="537.5466,-29.4411 533.5166,-19.6427 530.5566,-29.8156 537.5466,-29.4411"/>
</g>
</g>
</svg>
