<?xml version="1.0" encoding="UTF-8" standalone="no"?>
<!DOCTYPE svg PUBLIC "-//W3C//DTD SVG 1.1//EN"
 "http://www.w3.org/Graphics/SVG/1.1/DTD/svg11.dtd">
<!-- Generated by graphviz version 10.0.1 (20240210.2158)
 -->
<!-- Title: zrtos_vfs_file__close Pages: 1 -->
<svg width="417pt" height="40pt"
 viewBox="0.00 0.00 416.75 40.00" xmlns="http://www.w3.org/2000/svg" xmlns:xlink="http://www.w3.org/1999/xlink">
<g id="graph0" class="graph" transform="scale(1 1) rotate(0) translate(4 36)">
<title>zrtos_vfs_file__close</title>
<!-- Node1 -->
<g id="Node000001" class="node">
<title>Node1</title>
<g id="a_Node000001"><a xlink:title=" ">
<polygon fill="#999999" stroke="#666666" points="408.75,-26 303.5,-26 303.5,-6 408.75,-6 408.75,-26"/>
<text text-anchor="middle" x="356.12" y="-12.5" font-family="Helvetica,sans-Serif" font-size="10.00">zrtos_vfs_file__close</text>
</a>
</g>
</g>
<!-- Node2 -->
<g id="Node000002" class="node">
<title>Node2</title>
<g id="a_Node000002"><a xlink:href="vfs__fd_8h.html#aedfcf7515f1b31b3c17586ee9e90f229" target="_top" xlink:title=" ">
<polygon fill="white" stroke="#666666" points="267.5,-26 166.75,-26 166.75,-6 267.5,-6 267.5,-26"/>
<text text-anchor="middle" x="217.12" y="-12.5" font-family="Helvetica,sans-Serif" font-size="10.00">zrtos_vfs_fd__close</text>
</a>
</g>
</g>
<!-- Node1&#45;&gt;Node2 -->
<g id="edge1_Node000001_Node000002" class="edge">
<title>Node1&#45;&gt;Node2</title>
<g id="a_edge1_Node000001_Node000002"><a xlink:title=" ">
<path fill="none" stroke="#63b8ff" d="M291.95,-16C283.83,-16 275.6,-16 267.73,-16"/>
<polygon fill="#63b8ff" stroke="#63b8ff" points="291.82,-19.5 301.82,-16 291.82,-12.5 291.82,-19.5"/>
</a>
</g>
</g>
<!-- Node3 -->
<g id="Node000003" class="node">
<title>Node3</title>
<g id="a_Node000003"><a xlink:href="rtu_8h.html#aac1c0a8f15ec0cd7540f53a61fe9ff08" target="_top" xlink:title=" ">
<polygon fill="white" stroke="#666666" points="130.75,-32 0,-32 0,0 130.75,0 130.75,-32"/>
<text text-anchor="start" x="8" y="-18.5" font-family="Helvetica,sans-Serif" font-size="10.00">zrtos_vfs_module_modbus</text>
<text text-anchor="middle" x="65.38" y="-6.5" font-family="Helvetica,sans-Serif" font-size="10.00">_rtu_args__init</text>
</a>
</g>
</g>
<!-- Node2&#45;&gt;Node3 -->
<g id="edge2_Node000002_Node000003" class="edge">
<title>Node2&#45;&gt;Node3</title>
<g id="a_edge2_Node000002_Node000003"><a xlink:title=" ">
<path fill="none" stroke="#63b8ff" d="M154.97,-16C147.14,-16 139.1,-16 131.21,-16"/>
<polygon fill="#63b8ff" stroke="#63b8ff" points="154.75,-19.5 164.75,-16 154.75,-12.5 154.75,-19.5"/>
</a>
</g>
</g>
</g>
</svg>
