<?xml version="1.0" encoding="UTF-8" standalone="no"?>
<!DOCTYPE svg PUBLIC "-//W3C//DTD SVG 1.1//EN"
 "http://www.w3.org/Graphics/SVG/1.1/DTD/svg11.dtd">
<!-- Generated by graphviz version 10.0.1 (20240210.2158)
 -->
<!-- Title: vfs_notify.h Pages: 1 -->
<svg width="550pt" height="432pt"
 viewBox="0.00 0.00 550.38 432.00" xmlns="http://www.w3.org/2000/svg" xmlns:xlink="http://www.w3.org/1999/xlink">
<g id="graph0" class="graph" transform="scale(1 1) rotate(0) translate(4 428)">
<title>vfs_notify.h</title>
<!-- Node1 -->
<g id="Node000001" class="node">
<title>Node1</title>
<g id="a_Node000001"><a xlink:title=" ">
<polygon fill="#999999" stroke="#666666" points="163.38,-424 99.38,-424 99.38,-404 163.38,-404 163.38,-424"/>
<text text-anchor="middle" x="131.38" y="-410.5" font-family="Helvetica,sans-Serif" font-size="10.00">vfs_notify.h</text>
</a>
</g>
</g>
<!-- Node2 -->
<g id="Node000002" class="node">
<title>Node2</title>
<g id="a_Node000002"><a xlink:href="bitfield_8h.html" target="_top" xlink:title=" ">
<polygon fill="white" stroke="#666666" points="137.75,-256 61,-256 61,-236 137.75,-236 137.75,-256"/>
<text text-anchor="middle" x="99.38" y="-242.5" font-family="Helvetica,sans-Serif" font-size="10.00">zrtos/bitfield.h</text>
</a>
</g>
</g>
<!-- Node1&#45;&gt;Node2 -->
<g id="edge1_Node000001_Node000002" class="edge">
<title>Node1&#45;&gt;Node2</title>
<g id="a_edge1_Node000001_Node000002"><a xlink:title=" ">
<path fill="none" stroke="#63b8ff" d="M128.34,-403.78C125.46,-394.74 121.16,-380.54 118.38,-368 110.64,-333.16 104.88,-291.99 101.83,-267.77"/>
<polygon fill="#63b8ff" stroke="#63b8ff" points="105.32,-267.49 100.64,-257.99 98.37,-268.34 105.32,-267.49"/>
</a>
</g>
</g>
<!-- Node11 -->
<g id="Node000011" class="node">
<title>Node11</title>
<g id="a_Node000011"><a xlink:href="vfs__fd_8h.html" target="_top" xlink:title=" ">
<polygon fill="white" stroke="#666666" points="200.88,-368 127.88,-368 127.88,-348 200.88,-348 200.88,-368"/>
<text text-anchor="middle" x="164.38" y="-354.5" font-family="Helvetica,sans-Serif" font-size="10.00">zrtos/vfs_fd.h</text>
</a>
</g>
</g>
<!-- Node1&#45;&gt;Node11 -->
<g id="edge12_Node000001_Node000011" class="edge">
<title>Node1&#45;&gt;Node11</title>
<g id="a_edge12_Node000001_Node000011"><a xlink:title=" ">
<path fill="none" stroke="#63b8ff" d="M137.12,-403.59C141.43,-396.55 147.47,-386.67 152.76,-378"/>
<polygon fill="#63b8ff" stroke="#63b8ff" points="155.68,-379.95 157.9,-369.59 149.7,-376.3 155.68,-379.95"/>
</a>
</g>
</g>
<!-- Node3 -->
<g id="Node000003" class="node">
<title>Node3</title>
<g id="a_Node000003"><a xlink:href="types_8h.html" target="_top" xlink:title=" ">
<polygon fill="white" stroke="#666666" points="246.88,-76 173.88,-76 173.88,-56 246.88,-56 246.88,-76"/>
<text text-anchor="middle" x="210.38" y="-62.5" font-family="Helvetica,sans-Serif" font-size="10.00">zrtos/types.h</text>
</a>
</g>
</g>
<!-- Node2&#45;&gt;Node3 -->
<g id="edge2_Node000002_Node000003" class="edge">
<title>Node2&#45;&gt;Node3</title>
<g id="a_edge2_Node000002_Node000003"><a xlink:title=" ">
<path fill="none" stroke="#63b8ff" d="M99.68,-235.93C100.52,-220.97 103.65,-190.53 115.38,-168 133.48,-133.22 167.01,-101.8 189,-83.56"/>
<polygon fill="#63b8ff" stroke="#63b8ff" points="191.16,-86.31 196.74,-77.3 186.76,-80.87 191.16,-86.31"/>
</a>
</g>
</g>
<!-- Node10 -->
<g id="Node000010" class="node">
<title>Node10</title>
<g id="a_Node000010"><a xlink:href="mem_8h.html" target="_top" xlink:title=" ">
<polygon fill="white" stroke="#666666" points="70.75,-132 0,-132 0,-112 70.75,-112 70.75,-132"/>
<text text-anchor="middle" x="35.38" y="-118.5" font-family="Helvetica,sans-Serif" font-size="10.00">zrtos/mem.h</text>
</a>
</g>
</g>
<!-- Node2&#45;&gt;Node10 -->
<g id="edge9_Node000002_Node000010" class="edge">
<title>Node2&#45;&gt;Node10</title>
<g id="a_edge9_Node000002_Node000010"><a xlink:title=" ">
<path fill="none" stroke="#63b8ff" d="M94.56,-235.83C84.19,-216.05 59.5,-169 45.51,-142.32"/>
<polygon fill="#63b8ff" stroke="#63b8ff" points="48.69,-140.85 40.94,-133.62 42.49,-144.1 48.69,-140.85"/>
</a>
</g>
</g>
<!-- Node4 -->
<g id="Node000004" class="node">
<title>Node4</title>
<g id="a_Node000004"><a xlink:title=" ">
<polygon fill="#e0e0e0" stroke="#999999" points="448.25,-20 392.5,-20 392.5,0 448.25,0 448.25,-20"/>
<text text-anchor="middle" x="420.38" y="-6.5" font-family="Helvetica,sans-Serif" font-size="10.00">stdbool.h</text>
</a>
</g>
</g>
<!-- Node3&#45;&gt;Node4 -->
<g id="edge3_Node000003_Node000004" class="edge">
<title>Node3&#45;&gt;Node4</title>
<g id="a_edge3_Node000003_Node000004"><a xlink:title=" ">
<path fill="none" stroke="#63b8ff" d="M246.95,-55.59C284.6,-45.91 343.04,-30.89 381.5,-21"/>
<polygon fill="#63b8ff" stroke="#63b8ff" points="381.99,-24.48 390.81,-18.6 380.25,-17.7 381.99,-24.48"/>
</a>
</g>
</g>
<!-- Node5 -->
<g id="Node000005" class="node">
<title>Node5</title>
<g id="a_Node000005"><a xlink:title=" ">
<polygon fill="#e0e0e0" stroke="#999999" points="166.62,-20 116.12,-20 116.12,0 166.62,0 166.62,-20"/>
<text text-anchor="middle" x="141.38" y="-6.5" font-family="Helvetica,sans-Serif" font-size="10.00">stddef.h</text>
</a>
</g>
</g>
<!-- Node3&#45;&gt;Node5 -->
<g id="edge4_Node000003_Node000005" class="edge">
<title>Node3&#45;&gt;Node5</title>
<g id="a_edge4_Node000003_Node000005"><a xlink:title=" ">
<path fill="none" stroke="#63b8ff" d="M198.36,-55.59C188.36,-47.77 173.91,-36.46 162.07,-27.19"/>
<polygon fill="#63b8ff" stroke="#63b8ff" points="164.48,-24.64 154.45,-21.23 160.17,-30.15 164.48,-24.64"/>
</a>
</g>
</g>
<!-- Node6 -->
<g id="Node000006" class="node">
<title>Node6</title>
<g id="a_Node000006"><a xlink:title=" ">
<polygon fill="#e0e0e0" stroke="#999999" points="232.5,-20 184.25,-20 184.25,0 232.5,0 232.5,-20"/>
<text text-anchor="middle" x="208.38" y="-6.5" font-family="Helvetica,sans-Serif" font-size="10.00">stdint.h</text>
</a>
</g>
</g>
<!-- Node3&#45;&gt;Node6 -->
<g id="edge5_Node000003_Node000006" class="edge">
<title>Node3&#45;&gt;Node6</title>
<g id="a_edge5_Node000003_Node000006"><a xlink:title=" ">
<path fill="none" stroke="#63b8ff" d="M210.03,-55.59C209.78,-49.01 209.45,-39.96 209.14,-31.73"/>
<polygon fill="#63b8ff" stroke="#63b8ff" points="212.64,-31.67 208.78,-21.81 205.65,-31.93 212.64,-31.67"/>
</a>
</g>
</g>
<!-- Node7 -->
<g id="Node000007" class="node">
<title>Node7</title>
<g id="a_Node000007"><a xlink:title=" ">
<polygon fill="#e0e0e0" stroke="#999999" points="374.12,-20 326.62,-20 326.62,0 374.12,0 374.12,-20"/>
<text text-anchor="middle" x="350.38" y="-6.5" font-family="Helvetica,sans-Serif" font-size="10.00">limits.h</text>
</a>
</g>
</g>
<!-- Node3&#45;&gt;Node7 -->
<g id="edge6_Node000003_Node000007" class="edge">
<title>Node3&#45;&gt;Node7</title>
<g id="a_edge6_Node000003_Node000007"><a xlink:title=" ">
<path fill="none" stroke="#63b8ff" d="M234.76,-55.59C257.14,-46.96 290.55,-34.08 315.71,-24.37"/>
<polygon fill="#63b8ff" stroke="#63b8ff" points="316.79,-27.71 324.86,-20.84 314.27,-21.18 316.79,-27.71"/>
</a>
</g>
</g>
<!-- Node8 -->
<g id="Node000008" class="node">
<title>Node8</title>
<g id="a_Node000008"><a xlink:title=" ">
<polygon fill="#e0e0e0" stroke="#999999" points="308.38,-20 250.38,-20 250.38,0 308.38,0 308.38,-20"/>
<text text-anchor="middle" x="279.38" y="-6.5" font-family="Helvetica,sans-Serif" font-size="10.00">stdalign.h</text>
</a>
</g>
</g>
<!-- Node3&#45;&gt;Node8 -->
<g id="edge7_Node000003_Node000008" class="edge">
<title>Node3&#45;&gt;Node8</title>
<g id="a_edge7_Node000003_Node000008"><a xlink:title=" ">
<path fill="none" stroke="#63b8ff" d="M222.39,-55.59C232.39,-47.77 246.84,-36.46 258.68,-27.19"/>
<polygon fill="#63b8ff" stroke="#63b8ff" points="260.58,-30.15 266.3,-21.23 256.27,-24.64 260.58,-30.15"/>
</a>
</g>
</g>
<!-- Node9 -->
<g id="Node000009" class="node">
<title>Node9</title>
<g id="a_Node000009"><a xlink:href="cast_8h.html" target="_top" xlink:title=" ">
<polygon fill="white" stroke="#666666" points="98.25,-20 30.5,-20 30.5,0 98.25,0 98.25,-20"/>
<text text-anchor="middle" x="64.38" y="-6.5" font-family="Helvetica,sans-Serif" font-size="10.00">zrtos/cast.h</text>
</a>
</g>
</g>
<!-- Node3&#45;&gt;Node9 -->
<g id="edge8_Node000003_Node000009" class="edge">
<title>Node3&#45;&gt;Node9</title>
<g id="a_edge8_Node000003_Node000009"><a xlink:title=" ">
<path fill="none" stroke="#63b8ff" d="M184.94,-55.59C161.64,-46.97 126.88,-34.12 100.66,-24.42"/>
<polygon fill="#63b8ff" stroke="#63b8ff" points="102.02,-21.19 91.42,-21 99.59,-27.76 102.02,-21.19"/>
</a>
</g>
</g>
<!-- Node10&#45;&gt;Node3 -->
<g id="edge10_Node000010_Node000003" class="edge">
<title>Node10&#45;&gt;Node3</title>
<g id="a_edge10_Node000010_Node000003"><a xlink:title=" ">
<path fill="none" stroke="#63b8ff" d="M65.86,-111.59C94.41,-102.78 137.32,-89.54 168.97,-79.78"/>
<polygon fill="#63b8ff" stroke="#63b8ff" points="169.68,-83.22 178.21,-76.93 167.62,-76.53 169.68,-83.22"/>
</a>
</g>
</g>
<!-- Node10&#45;&gt;Node9 -->
<g id="edge11_Node000010_Node000009" class="edge">
<title>Node10&#45;&gt;Node9</title>
<g id="a_edge11_Node000010_Node000009"><a xlink:title=" ">
<path fill="none" stroke="#63b8ff" d="M37.85,-111.62C42.51,-93.92 52.71,-55.24 59.02,-31.32"/>
<polygon fill="#63b8ff" stroke="#63b8ff" points="62.36,-32.38 61.52,-21.82 55.59,-30.6 62.36,-32.38"/>
</a>
</g>
</g>
<!-- Node11&#45;&gt;Node2 -->
<g id="edge13_Node000011_Node000002" class="edge">
<title>Node11&#45;&gt;Node2</title>
<g id="a_edge13_Node000011_Node000002"><a xlink:title=" ">
<path fill="none" stroke="#63b8ff" d="M158.83,-347.62C148.18,-329.6 124.67,-289.81 110.62,-266.02"/>
<polygon fill="#63b8ff" stroke="#63b8ff" points="113.77,-264.49 105.67,-257.66 107.75,-268.05 113.77,-264.49"/>
</a>
</g>
</g>
<!-- Node12 -->
<g id="Node000012" class="node">
<title>Node12</title>
<g id="a_Node000012"><a xlink:href="vfs__file_8h.html" target="_top" xlink:title=" ">
<polygon fill="white" stroke="#666666" points="262.12,-312 184.62,-312 184.62,-292 262.12,-292 262.12,-312"/>
<text text-anchor="middle" x="223.38" y="-298.5" font-family="Helvetica,sans-Serif" font-size="10.00">zrtos/vfs_file.h</text>
</a>
</g>
</g>
<!-- Node11&#45;&gt;Node12 -->
<g id="edge14_Node000011_Node000012" class="edge">
<title>Node11&#45;&gt;Node12</title>
<g id="a_edge14_Node000011_Node000012"><a xlink:title=" ">
<path fill="none" stroke="#63b8ff" d="M174.65,-347.59C182.94,-340.01 194.82,-329.13 204.78,-320.02"/>
<polygon fill="#63b8ff" stroke="#63b8ff" points="207.09,-322.65 212.1,-313.32 202.36,-317.49 207.09,-322.65"/>
</a>
</g>
</g>
<!-- Node12&#45;&gt;Node2 -->
<g id="edge19_Node000012_Node000002" class="edge">
<title>Node12&#45;&gt;Node2</title>
<g id="a_edge19_Node000012_Node000002"><a xlink:title=" ">
<path fill="none" stroke="#63b8ff" d="M201.78,-291.59C182.42,-283.17 153.77,-270.69 131.69,-261.07"/>
<polygon fill="#63b8ff" stroke="#63b8ff" points="133.1,-257.87 122.53,-257.08 130.3,-264.29 133.1,-257.87"/>
</a>
</g>
</g>
<!-- Node13 -->
<g id="Node000013" class="node">
<title>Node13</title>
<g id="a_Node000013"><a xlink:href="error_8h.html" target="_top" xlink:title=" ">
<polygon fill="white" stroke="#666666" points="454.62,-76 386.12,-76 386.12,-56 454.62,-56 454.62,-76"/>
<text text-anchor="middle" x="420.38" y="-62.5" font-family="Helvetica,sans-Serif" font-size="10.00">zrtos/error.h</text>
</a>
</g>
</g>
<!-- Node12&#45;&gt;Node13 -->
<g id="edge15_Node000012_Node000013" class="edge">
<title>Node12&#45;&gt;Node13</title>
<g id="a_edge15_Node000012_Node000013"><a xlink:title=" ">
<path fill="none" stroke="#63b8ff" d="M262.42,-299.82C324.56,-295.59 444.44,-277.26 498.38,-200 526.54,-159.65 474.02,-108.66 442.18,-83.12"/>
<polygon fill="#63b8ff" stroke="#63b8ff" points="444.69,-80.64 434.65,-77.27 440.4,-86.17 444.69,-80.64"/>
</a>
</g>
</g>
<!-- Node15 -->
<g id="Node000015" class="node">
<title>Node15</title>
<g id="a_Node000015"><a xlink:href="vfs__dentry_8h.html" target="_top" xlink:title=" ">
<polygon fill="white" stroke="#666666" points="270.62,-256 178.12,-256 178.12,-236 270.62,-236 270.62,-256"/>
<text text-anchor="middle" x="224.38" y="-242.5" font-family="Helvetica,sans-Serif" font-size="10.00">zrtos/vfs_dentry.h</text>
</a>
</g>
</g>
<!-- Node12&#45;&gt;Node15 -->
<g id="edge20_Node000012_Node000015" class="edge">
<title>Node12&#45;&gt;Node15</title>
<g id="a_edge20_Node000012_Node000015"><a xlink:title=" ">
<path fill="none" stroke="#63b8ff" d="M223.55,-291.59C223.67,-285.01 223.84,-275.96 223.99,-267.73"/>
<polygon fill="#63b8ff" stroke="#63b8ff" points="227.49,-267.87 224.17,-257.81 220.49,-267.75 227.49,-267.87"/>
</a>
</g>
</g>
<!-- Node13&#45;&gt;Node4 -->
<g id="edge17_Node000013_Node000004" class="edge">
<title>Node13&#45;&gt;Node4</title>
<g id="a_edge17_Node000013_Node000004"><a xlink:title=" ">
<path fill="none" stroke="#63b8ff" d="M420.38,-55.59C420.38,-49.01 420.38,-39.96 420.38,-31.73"/>
<polygon fill="#63b8ff" stroke="#63b8ff" points="423.88,-31.81 420.38,-21.81 416.88,-31.81 423.88,-31.81"/>
</a>
</g>
</g>
<!-- Node13&#45;&gt;Node7 -->
<g id="edge16_Node000013_Node000007" class="edge">
<title>Node13&#45;&gt;Node7</title>
<g id="a_edge16_Node000013_Node000007"><a xlink:title=" ">
<path fill="none" stroke="#63b8ff" d="M408.18,-55.59C398.04,-47.77 383.38,-36.46 371.36,-27.19"/>
<polygon fill="#63b8ff" stroke="#63b8ff" points="373.68,-24.56 363.63,-21.22 369.41,-30.1 373.68,-24.56"/>
</a>
</g>
</g>
<!-- Node14 -->
<g id="Node000014" class="node">
<title>Node14</title>
<g id="a_Node000014"><a xlink:href="assert_8h.html" target="_top" xlink:title=" ">
<polygon fill="white" stroke="#666666" points="542.38,-20 466.38,-20 466.38,0 542.38,0 542.38,-20"/>
<text text-anchor="middle" x="504.38" y="-6.5" font-family="Helvetica,sans-Serif" font-size="10.00">zrtos/assert.h</text>
</a>
</g>
</g>
<!-- Node13&#45;&gt;Node14 -->
<g id="edge18_Node000013_Node000014" class="edge">
<title>Node13&#45;&gt;Node14</title>
<g id="a_edge18_Node000013_Node000014"><a xlink:title=" ">
<path fill="none" stroke="#63b8ff" d="M435.01,-55.59C447.46,-47.59 465.59,-35.93 480.2,-26.54"/>
<polygon fill="#63b8ff" stroke="#63b8ff" points="481.84,-29.65 488.36,-21.3 478.05,-23.76 481.84,-29.65"/>
</a>
</g>
</g>
<!-- Node15&#45;&gt;Node3 -->
<g id="edge26_Node000015_Node000003" class="edge">
<title>Node15&#45;&gt;Node3</title>
<g id="a_edge26_Node000015_Node000003"><a xlink:title=" ">
<path fill="none" stroke="#63b8ff" d="M223.66,-235.93C221.51,-208.56 215.04,-126.31 211.99,-87.59"/>
<polygon fill="#63b8ff" stroke="#63b8ff" points="215.5,-87.47 211.22,-77.78 208.52,-88.02 215.5,-87.47"/>
</a>
</g>
</g>
<!-- Node16 -->
<g id="Node000016" class="node">
<title>Node16</title>
<g id="a_Node000016"><a xlink:href="str_8h.html" target="_top" xlink:title=" ">
<polygon fill="white" stroke="#666666" points="184.5,-194 124.25,-194 124.25,-174 184.5,-174 184.5,-194"/>
<text text-anchor="middle" x="154.38" y="-180.5" font-family="Helvetica,sans-Serif" font-size="10.00">zrtos/str.h</text>
</a>
</g>
</g>
<!-- Node15&#45;&gt;Node16 -->
<g id="edge21_Node000015_Node000016" class="edge">
<title>Node15&#45;&gt;Node16</title>
<g id="a_edge21_Node000015_Node000016"><a xlink:title=" ">
<path fill="none" stroke="#63b8ff" d="M213.44,-235.62C202.79,-226.5 186.39,-212.45 173.58,-201.46"/>
<polygon fill="#63b8ff" stroke="#63b8ff" points="176.03,-198.95 166.16,-195.1 171.47,-204.26 176.03,-198.95"/>
</a>
</g>
</g>
<!-- Node18 -->
<g id="Node000018" class="node">
<title>Node18</title>
<g id="a_Node000018"><a xlink:href="clist_8h.html" target="_top" xlink:title=" ">
<polygon fill="white" stroke="#666666" points="307.88,-132 240.88,-132 240.88,-112 307.88,-112 307.88,-132"/>
<text text-anchor="middle" x="274.38" y="-118.5" font-family="Helvetica,sans-Serif" font-size="10.00">zrtos/clist.h</text>
</a>
</g>
</g>
<!-- Node15&#45;&gt;Node18 -->
<g id="edge27_Node000015_Node000018" class="edge">
<title>Node15&#45;&gt;Node18</title>
<g id="a_edge27_Node000015_Node000018"><a xlink:title=" ">
<path fill="none" stroke="#63b8ff" d="M228.13,-235.83C236.2,-216.14 255.35,-169.42 266.31,-142.68"/>
<polygon fill="#63b8ff" stroke="#63b8ff" points="269.45,-144.26 270,-133.68 262.97,-141.6 269.45,-144.26"/>
</a>
</g>
</g>
<!-- Node19 -->
<g id="Node000019" class="node">
<title>Node19</title>
<g id="a_Node000019"><a xlink:href="vfs__inode_8h.html" target="_top" xlink:title=" ">
<polygon fill="white" stroke="#666666" points="366.75,-194 278,-194 278,-174 366.75,-174 366.75,-194"/>
<text text-anchor="middle" x="322.38" y="-180.5" font-family="Helvetica,sans-Serif" font-size="10.00">zrtos/vfs_inode.h</text>
</a>
</g>
</g>
<!-- Node15&#45;&gt;Node19 -->
<g id="edge29_Node000015_Node000019" class="edge">
<title>Node15&#45;&gt;Node19</title>
<g id="a_edge29_Node000015_Node000019"><a xlink:title=" ">
<path fill="none" stroke="#63b8ff" d="M239.69,-235.62C255.15,-226.16 279.29,-211.38 297.5,-200.23"/>
<polygon fill="#63b8ff" stroke="#63b8ff" points="299.18,-203.31 305.88,-195.1 295.52,-197.34 299.18,-203.31"/>
</a>
</g>
</g>
<!-- Node21 -->
<g id="Node000021" class="node">
<title>Node21</title>
<g id="a_Node000021"><a xlink:href="null_8h.html" target="_top" xlink:title=" ">
<polygon fill="white" stroke="#666666" points="489.62,-200 385.12,-200 385.12,-168 489.62,-168 489.62,-200"/>
<text text-anchor="start" x="393.12" y="-186.5" font-family="Helvetica,sans-Serif" font-size="10.00">zrtos/vfs/module/null</text>
<text text-anchor="middle" x="437.38" y="-174.5" font-family="Helvetica,sans-Serif" font-size="10.00">/null.h</text>
</a>
</g>
</g>
<!-- Node15&#45;&gt;Node21 -->
<g id="edge34_Node000015_Node000021" class="edge">
<title>Node15&#45;&gt;Node21</title>
<g id="a_edge34_Node000015_Node000021"><a xlink:title=" ">
<path fill="none" stroke="#63b8ff" d="M257.66,-235.62C288.65,-226.9 335.67,-213.65 373.84,-202.9"/>
<polygon fill="#63b8ff" stroke="#63b8ff" points="374.73,-206.28 383.4,-200.2 372.83,-199.55 374.73,-206.28"/>
</a>
</g>
</g>
<!-- Node16&#45;&gt;Node3 -->
<g id="edge23_Node000016_Node000003" class="edge">
<title>Node16&#45;&gt;Node3</title>
<g id="a_edge23_Node000016_Node000003"><a xlink:title=" ">
<path fill="none" stroke="#63b8ff" d="M158.96,-173.51C168.11,-154.55 188.81,-111.67 200.97,-86.48"/>
<polygon fill="#63b8ff" stroke="#63b8ff" points="204.03,-88.19 205.23,-77.66 197.73,-85.15 204.03,-88.19"/>
</a>
</g>
</g>
<!-- Node16&#45;&gt;Node9 -->
<g id="edge24_Node000016_Node000009" class="edge">
<title>Node16&#45;&gt;Node9</title>
<g id="a_edge24_Node000016_Node000009"><a xlink:title=" ">
<path fill="none" stroke="#63b8ff" d="M149.41,-173.51C135.11,-146.19 93.68,-67 74.42,-30.21"/>
<polygon fill="#63b8ff" stroke="#63b8ff" points="77.66,-28.83 69.92,-21.59 71.45,-32.08 77.66,-28.83"/>
</a>
</g>
</g>
<!-- Node16&#45;&gt;Node10 -->
<g id="edge25_Node000016_Node000010" class="edge">
<title>Node16&#45;&gt;Node10</title>
<g id="a_edge25_Node000016_Node000010"><a xlink:title=" ">
<path fill="none" stroke="#63b8ff" d="M135.78,-173.62C116.57,-163.94 86.33,-148.69 64.05,-137.46"/>
<polygon fill="#63b8ff" stroke="#63b8ff" points="65.69,-134.37 55.19,-132.99 62.54,-140.62 65.69,-134.37"/>
</a>
</g>
</g>
<!-- Node17 -->
<g id="Node000017" class="node">
<title>Node17</title>
<g id="a_Node000017"><a xlink:title=" ">
<polygon fill="#e0e0e0" stroke="#999999" points="363,-76 311.75,-76 311.75,-56 363,-56 363,-76"/>
<text text-anchor="middle" x="337.38" y="-62.5" font-family="Helvetica,sans-Serif" font-size="10.00">stdarg.h</text>
</a>
</g>
</g>
<!-- Node16&#45;&gt;Node17 -->
<g id="edge22_Node000016_Node000017" class="edge">
<title>Node16&#45;&gt;Node17</title>
<g id="a_edge22_Node000016_Node000017"><a xlink:title=" ">
<path fill="none" stroke="#63b8ff" d="M184.84,-181.72C221.25,-178.56 281.71,-167.83 317.38,-132 329.1,-120.22 333.98,-101.74 335.99,-87.49"/>
<polygon fill="#63b8ff" stroke="#63b8ff" points="339.44,-88.14 336.97,-77.84 332.48,-87.44 339.44,-88.14"/>
</a>
</g>
</g>
<!-- Node18&#45;&gt;Node3 -->
<g id="edge28_Node000018_Node000003" class="edge">
<title>Node18&#45;&gt;Node3</title>
<g id="a_edge28_Node000018_Node000003"><a xlink:title=" ">
<path fill="none" stroke="#63b8ff" d="M263.23,-111.59C254.05,-103.85 240.82,-92.69 229.89,-83.47"/>
<polygon fill="#63b8ff" stroke="#63b8ff" points="232.45,-81.05 222.55,-77.27 227.94,-86.4 232.45,-81.05"/>
</a>
</g>
</g>
<!-- Node20 -->
<g id="Node000020" class="node">
<title>Node20</title>
<g id="a_Node000020"><a xlink:href="vfs__plugin_8h.html" target="_top" xlink:title=" ">
<polygon fill="white" stroke="#666666" points="455.88,-132 364.88,-132 364.88,-112 455.88,-112 455.88,-132"/>
<text text-anchor="middle" x="410.38" y="-118.5" font-family="Helvetica,sans-Serif" font-size="10.00">zrtos/vfs_plugin.h</text>
</a>
</g>
</g>
<!-- Node19&#45;&gt;Node20 -->
<g id="edge30_Node000019_Node000020" class="edge">
<title>Node19&#45;&gt;Node20</title>
<g id="a_edge30_Node000019_Node000020"><a xlink:title=" ">
<path fill="none" stroke="#63b8ff" d="M336.12,-173.62C349.82,-164.29 371.08,-149.79 387.35,-138.7"/>
<polygon fill="#63b8ff" stroke="#63b8ff" points="389.18,-141.69 395.47,-133.16 385.24,-135.9 389.18,-141.69"/>
</a>
</g>
</g>
<!-- Node20&#45;&gt;Node3 -->
<g id="edge32_Node000020_Node000003" class="edge">
<title>Node20&#45;&gt;Node3</title>
<g id="a_edge32_Node000020_Node000003"><a xlink:title=" ">
<path fill="none" stroke="#63b8ff" d="M375.54,-111.59C342.47,-102.67 292.57,-89.19 256.28,-79.39"/>
<polygon fill="#63b8ff" stroke="#63b8ff" points="257.51,-76.1 246.95,-76.87 255.69,-82.86 257.51,-76.1"/>
</a>
</g>
</g>
<!-- Node20&#45;&gt;Node13 -->
<g id="edge33_Node000020_Node000013" class="edge">
<title>Node20&#45;&gt;Node13</title>
<g id="a_edge33_Node000020_Node000013"><a xlink:title=" ">
<path fill="none" stroke="#63b8ff" d="M412.12,-111.59C413.35,-104.93 415.05,-95.75 416.59,-87.44"/>
<polygon fill="#63b8ff" stroke="#63b8ff" points="420,-88.26 418.38,-77.79 413.12,-86.98 420,-88.26"/>
</a>
</g>
</g>
<!-- Node20&#45;&gt;Node17 -->
<g id="edge31_Node000020_Node000017" class="edge">
<title>Node20&#45;&gt;Node17</title>
<g id="a_edge31_Node000020_Node000017"><a xlink:title=" ">
<path fill="none" stroke="#63b8ff" d="M397.66,-111.59C386.98,-103.7 371.5,-92.24 358.89,-82.92"/>
<polygon fill="#63b8ff" stroke="#63b8ff" points="361.28,-80.33 351.16,-77.2 357.12,-85.96 361.28,-80.33"/>
</a>
</g>
</g>
<!-- Node21&#45;&gt;Node20 -->
<g id="edge35_Node000021_Node000020" class="edge">
<title>Node21&#45;&gt;Node20</title>
<g id="a_edge35_Node000021_Node000020"><a xlink:title=" ">
<path fill="none" stroke="#63b8ff" d="M430.42,-167.55C427.02,-160 422.89,-150.82 419.27,-142.77"/>
<polygon fill="#63b8ff" stroke="#63b8ff" points="422.53,-141.47 415.23,-133.79 416.14,-144.34 422.53,-141.47"/>
</a>
</g>
</g>
</g>
</svg>
