<?xml version="1.0" encoding="UTF-8" standalone="no"?>
<!DOCTYPE svg PUBLIC "-//W3C//DTD SVG 1.1//EN"
 "http://www.w3.org/Graphics/SVG/1.1/DTD/svg11.dtd">
<!-- Generated by graphviz version 10.0.1 (20240210.2158)
 -->
<!-- Title: zrtos_vfs_dentry__each_child Pages: 1 -->
<svg width="427pt" height="100pt"
 viewBox="0.00 0.00 427.25 100.00" xmlns="http://www.w3.org/2000/svg" xmlns:xlink="http://www.w3.org/1999/xlink">
<g id="graph0" class="graph" transform="scale(1 1) rotate(0) translate(4 96)">
<title>zrtos_vfs_dentry__each_child</title>
<!-- Node1 -->
<g id="Node000001" class="node">
<title>Node1</title>
<g id="a_Node000001"><a xlink:title=" ">
<polygon fill="#999999" stroke="#666666" points="118,-54 0,-54 0,-22 118,-22 118,-54"/>
<text text-anchor="start" x="8" y="-40.5" font-family="Helvetica,sans-Serif" font-size="10.00">zrtos_vfs_dentry__each</text>
<text text-anchor="middle" x="59" y="-28.5" font-family="Helvetica,sans-Serif" font-size="10.00">_child</text>
</a>
</g>
</g>
<!-- Node2 -->
<g id="Node000002" class="node">
<title>Node2</title>
<g id="a_Node000002"><a xlink:href="clist_8h.html#a7cc31f994820f2b59d07e96ab9dcce0b" target="_top" xlink:title=" ">
<polygon fill="white" stroke="#666666" points="259.25,-70 166.75,-70 166.75,-50 259.25,-50 259.25,-70"/>
<text text-anchor="middle" x="213" y="-56.5" font-family="Helvetica,sans-Serif" font-size="10.00">zrtos_clist__each</text>
</a>
</g>
</g>
<!-- Node1&#45;&gt;Node2 -->
<g id="edge1_Node000001_Node000002" class="edge">
<title>Node1&#45;&gt;Node2</title>
<g id="a_edge1_Node000001_Node000002"><a xlink:title=" ">
<path fill="none" stroke="#63b8ff" d="M118.33,-46.44C130.39,-48.19 143.07,-50.02 155.07,-51.76"/>
<polygon fill="#63b8ff" stroke="#63b8ff" points="154.43,-55.2 164.83,-53.17 155.44,-48.28 154.43,-55.2"/>
</a>
</g>
</g>
<!-- Node5 -->
<g id="Node000005" class="node">
<title>Node5</title>
<g id="a_Node000005"><a xlink:href="vfs__dentry_8h.html#a05f11e0155e29bdfa726f3407120a19d" target="_top" xlink:title=" ">
<polygon fill="white" stroke="#666666" points="272,-32 154,-32 154,0 272,0 272,-32"/>
<text text-anchor="start" x="162" y="-18.5" font-family="Helvetica,sans-Serif" font-size="10.00">zrtos_vfs_dentry__each</text>
<text text-anchor="middle" x="213" y="-6.5" font-family="Helvetica,sans-Serif" font-size="10.00">_child_cb</text>
</a>
</g>
</g>
<!-- Node1&#45;&gt;Node5 -->
<g id="edge4_Node000001_Node000005" class="edge">
<title>Node1&#45;&gt;Node5</title>
<g id="a_edge4_Node000001_Node000005"><a xlink:title=" ">
<path fill="none" stroke="#63b8ff" d="M118.33,-29.56C126.19,-28.42 134.3,-27.25 142.33,-26.08"/>
<polygon fill="#63b8ff" stroke="#63b8ff" points="142.68,-29.57 152.07,-24.67 141.68,-22.64 142.68,-29.57"/>
</a>
</g>
</g>
<!-- Node3 -->
<g id="Node000003" class="node">
<title>Node3</title>
<g id="a_Node000003"><a xlink:href="clist_8h.html#acab2b5c771ea45635a9621a9dc1382d4" target="_top" xlink:title=" ">
<polygon fill="white" stroke="#666666" points="417,-92 310.25,-92 310.25,-72 417,-72 417,-92"/>
<text text-anchor="middle" x="363.62" y="-78.5" font-family="Helvetica,sans-Serif" font-size="10.00">zrtos_clist__get_root</text>
</a>
</g>
</g>
<!-- Node2&#45;&gt;Node3 -->
<g id="edge2_Node000002_Node000003" class="edge">
<title>Node2&#45;&gt;Node3</title>
<g id="a_edge2_Node000002_Node000003"><a xlink:title=" ">
<path fill="none" stroke="#63b8ff" d="M259.4,-66.72C271.87,-68.57 285.63,-70.6 298.93,-72.57"/>
<polygon fill="#63b8ff" stroke="#63b8ff" points="298.05,-75.98 308.45,-73.98 299.07,-69.05 298.05,-75.98"/>
</a>
</g>
</g>
<!-- Node4 -->
<g id="Node000004" class="node">
<title>Node4</title>
<g id="a_Node000004"><a xlink:href="clist_8h.html#aec8fbabbd0ff3c556e46b59eb872d43c" target="_top" xlink:title=" ">
<polygon fill="white" stroke="#666666" points="419.25,-54 308,-54 308,-22 419.25,-22 419.25,-54"/>
<text text-anchor="start" x="316" y="-40.5" font-family="Helvetica,sans-Serif" font-size="10.00">zrtos_clist_node__get</text>
<text text-anchor="middle" x="363.62" y="-28.5" font-family="Helvetica,sans-Serif" font-size="10.00">_next_node</text>
</a>
</g>
</g>
<!-- Node2&#45;&gt;Node4 -->
<g id="edge3_Node000002_Node000004" class="edge">
<title>Node2&#45;&gt;Node4</title>
<g id="a_edge3_Node000002_Node000004"><a xlink:title=" ">
<path fill="none" stroke="#63b8ff" d="M259.4,-53.28C271.03,-51.56 283.79,-49.67 296.24,-47.83"/>
<polygon fill="#63b8ff" stroke="#63b8ff" points="296.68,-51.3 306.06,-46.37 295.65,-44.38 296.68,-51.3"/>
</a>
</g>
</g>
</g>
</svg>
