<?xml version="1.0" encoding="UTF-8" standalone="no"?>
<!DOCTYPE svg PUBLIC "-//W3C//DTD SVG 1.1//EN"
 "http://www.w3.org/Graphics/SVG/1.1/DTD/svg11.dtd">
<!-- Generated by graphviz version 10.0.1 (20240210.2158)
 -->
<!-- Title: zrtos_vfs_fd__select Pages: 1 -->
<svg width="424pt" height="114pt"
 viewBox="0.00 0.00 424.25 114.00" xmlns="http://www.w3.org/2000/svg" xmlns:xlink="http://www.w3.org/1999/xlink">
<g id="graph0" class="graph" transform="scale(1 1) rotate(0) translate(4 110)">
<title>zrtos_vfs_fd__select</title>
<!-- Node1 -->
<g id="Node000001" class="node">
<title>Node1</title>
<g id="a_Node000001"><a xlink:title=" ">
<polygon fill="#999999" stroke="#666666" points="103.75,-68 0,-68 0,-48 103.75,-48 103.75,-68"/>
<text text-anchor="middle" x="51.88" y="-54.5" font-family="Helvetica,sans-Serif" font-size="10.00">zrtos_vfs_fd__select</text>
</a>
</g>
</g>
<!-- Node2 -->
<g id="Node000002" class="node">
<title>Node2</title>
<g id="a_Node000002"><a xlink:href="bitfield_8h.html#a31e4cbdaf65df7464b28c25d1780eb84" target="_top" xlink:title=" ">
<polygon fill="white" stroke="#666666" points="246.5,-106 151.75,-106 151.75,-86 246.5,-86 246.5,-106"/>
<text text-anchor="middle" x="199.12" y="-92.5" font-family="Helvetica,sans-Serif" font-size="10.00">zrtos_bitfield__set</text>
</a>
</g>
</g>
<!-- Node1&#45;&gt;Node2 -->
<g id="edge1_Node000001_Node000002" class="edge">
<title>Node1&#45;&gt;Node2</title>
<g id="a_edge1_Node000001_Node000002"><a xlink:title=" ">
<path fill="none" stroke="#63b8ff" d="M92.95,-68.48C109.7,-72.87 129.36,-78.01 147.12,-82.66"/>
<polygon fill="#63b8ff" stroke="#63b8ff" points="146.16,-86.02 156.72,-85.17 147.93,-79.25 146.16,-86.02"/>
</a>
</g>
</g>
<!-- Node3 -->
<g id="Node000003" class="node">
<title>Node3</title>
<g id="a_Node000003"><a xlink:href="vfs__fd_8h.html#adf388ba2df2bcae398b2a985609d364e" target="_top" xlink:title=" ">
<polygon fill="white" stroke="#666666" points="257.75,-68 140.5,-68 140.5,-48 257.75,-48 257.75,-68"/>
<text text-anchor="middle" x="199.12" y="-54.5" font-family="Helvetica,sans-Serif" font-size="10.00">zrtos_vfs_fd__can_read</text>
</a>
</g>
</g>
<!-- Node1&#45;&gt;Node3 -->
<g id="edge2_Node000001_Node000003" class="edge">
<title>Node1&#45;&gt;Node3</title>
<g id="a_edge2_Node000001_Node000003"><a xlink:title=" ">
<path fill="none" stroke="#63b8ff" d="M104.08,-58C112.11,-58 120.53,-58 128.88,-58"/>
<polygon fill="#63b8ff" stroke="#63b8ff" points="128.68,-61.5 138.68,-58 128.68,-54.5 128.68,-61.5"/>
</a>
</g>
</g>
<!-- Node5 -->
<g id="Node000005" class="node">
<title>Node5</title>
<g id="a_Node000005"><a xlink:href="vfs__fd_8h.html#a0c49dac81e96abdc11ac15deda3da529" target="_top" xlink:title=" ">
<polygon fill="white" stroke="#666666" points="258.5,-29 139.75,-29 139.75,-9 258.5,-9 258.5,-29"/>
<text text-anchor="middle" x="199.12" y="-15.5" font-family="Helvetica,sans-Serif" font-size="10.00">zrtos_vfs_fd__can_write</text>
</a>
</g>
</g>
<!-- Node1&#45;&gt;Node5 -->
<g id="edge4_Node000001_Node000005" class="edge">
<title>Node1&#45;&gt;Node5</title>
<g id="a_edge4_Node000001_Node000005"><a xlink:title=" ">
<path fill="none" stroke="#63b8ff" d="M91.8,-47.55C109.14,-42.89 129.77,-37.35 148.23,-32.4"/>
<polygon fill="#63b8ff" stroke="#63b8ff" points="148.88,-35.85 157.63,-29.87 147.07,-29.09 148.88,-35.85"/>
</a>
</g>
</g>
<!-- Node4 -->
<g id="Node000004" class="node">
<title>Node4</title>
<g id="a_Node000004"><a xlink:href="vfs__file_8h.html#ac71e6005c8d8d45e13ed13c7e35e525c" target="_top" xlink:title=" ">
<polygon fill="white" stroke="#666666" points="416.25,-70 294.5,-70 294.5,-50 416.25,-50 416.25,-70"/>
<text text-anchor="middle" x="355.38" y="-56.5" font-family="Helvetica,sans-Serif" font-size="10.00">zrtos_vfs_file__can_read</text>
</a>
</g>
</g>
<!-- Node3&#45;&gt;Node4 -->
<g id="edge3_Node000003_Node000004" class="edge">
<title>Node3&#45;&gt;Node4</title>
<g id="a_edge3_Node000003_Node000004"><a xlink:title=" ">
<path fill="none" stroke="#63b8ff" d="M258,-58.75C266.11,-58.86 274.53,-58.96 282.85,-59.07"/>
<polygon fill="#63b8ff" stroke="#63b8ff" points="282.56,-62.57 292.6,-59.2 282.65,-55.57 282.56,-62.57"/>
</a>
</g>
</g>
<!-- Node6 -->
<g id="Node000006" class="node">
<title>Node6</title>
<g id="a_Node000006"><a xlink:href="vfs__file_8h.html#a891c512b98778579fb6487504a6cb058" target="_top" xlink:title=" ">
<polygon fill="white" stroke="#666666" points="404.25,-32 306.5,-32 306.5,0 404.25,0 404.25,-32"/>
<text text-anchor="start" x="314.5" y="-18.5" font-family="Helvetica,sans-Serif" font-size="10.00">zrtos_vfs_file__can</text>
<text text-anchor="middle" x="355.38" y="-6.5" font-family="Helvetica,sans-Serif" font-size="10.00">_write</text>
</a>
</g>
</g>
<!-- Node5&#45;&gt;Node6 -->
<g id="edge5_Node000005_Node000006" class="edge">
<title>Node5&#45;&gt;Node6</title>
<g id="a_edge5_Node000005_Node000006"><a xlink:title=" ">
<path fill="none" stroke="#63b8ff" d="M258.88,-17.86C270.75,-17.63 283.24,-17.38 295.13,-17.15"/>
<polygon fill="#63b8ff" stroke="#63b8ff" points="294.86,-20.66 304.79,-16.96 294.72,-13.66 294.86,-20.66"/>
</a>
</g>
</g>
</g>
</svg>
