<?xml version="1.0" encoding="UTF-8" standalone="no"?>
<!DOCTYPE svg PUBLIC "-//W3C//DTD SVG 1.1//EN"
 "http://www.w3.org/Graphics/SVG/1.1/DTD/svg11.dtd">
<!-- Generated by graphviz version 2.40.1 (20161225.0304)
 -->
<!-- Title: zrtos_vfs_fd__write_sync Pages: 1 -->
<svg width="438pt" height="116pt"
 viewBox="0.00 0.00 438.00 115.50" xmlns="http://www.w3.org/2000/svg" xmlns:xlink="http://www.w3.org/1999/xlink">
<g id="graph0" class="graph" transform="scale(1 1) rotate(0) translate(4 111.5)">
<title>zrtos_vfs_fd__write_sync</title>
<polygon fill="#ffffff" stroke="transparent" points="-4,4 -4,-111.5 434,-111.5 434,4 -4,4"/>
<!-- Node168 -->
<g id="node1" class="node">
<title>Node168</title>
<polygon fill="#bfbfbf" stroke="#000000" points="0,-38.5 0,-57.5 128,-57.5 128,-38.5 0,-38.5"/>
<text text-anchor="middle" x="64" y="-45.5" font-family="Helvetica,sans-Serif" font-size="10.00" fill="#000000">zrtos_vfs_fd__write_sync</text>
</g>
<!-- Node169 -->
<g id="node2" class="node">
<title>Node169</title>
<g id="a_node2"><a xlink:href="vfs__fd_8h.html#a95d1b7c8b9ceed7e6f9f44e8831f4700" target="_top" xlink:title="zrtos_vfs_fd__is_sync\l_again_error">
<polygon fill="#ffffff" stroke="#000000" points="168,-77 168,-107 283,-107 283,-77 168,-77"/>
<text text-anchor="start" x="176" y="-95" font-family="Helvetica,sans-Serif" font-size="10.00" fill="#000000">zrtos_vfs_fd__is_sync</text>
<text text-anchor="middle" x="225.5" y="-84" font-family="Helvetica,sans-Serif" font-size="10.00" fill="#000000">_again_error</text>
</a>
</g>
</g>
<!-- Node168&#45;&gt;Node169 -->
<g id="edge1" class="edge">
<title>Node168&#45;&gt;Node169</title>
<path fill="none" stroke="#191970" d="M99.0431,-57.5473C116.9826,-62.4349 139.4097,-68.5451 160.3756,-74.2571"/>
<polygon fill="#191970" stroke="#191970" points="159.6349,-77.6828 170.2033,-76.9346 161.475,-70.929 159.6349,-77.6828"/>
</g>
<!-- Node170 -->
<g id="node3" class="node">
<title>Node170</title>
<g id="a_node3"><a xlink:href="vfs__fd_8h.html#a823e991e7f073e7c8f835309fe4ba2aa" target="_top" xlink:title="zrtos_vfs_fd__write">
<polygon fill="#ffffff" stroke="#000000" points="174.5,-38.5 174.5,-57.5 276.5,-57.5 276.5,-38.5 174.5,-38.5"/>
<text text-anchor="middle" x="225.5" y="-45.5" font-family="Helvetica,sans-Serif" font-size="10.00" fill="#000000">zrtos_vfs_fd__write</text>
</a>
</g>
</g>
<!-- Node168&#45;&gt;Node170 -->
<g id="edge2" class="edge">
<title>Node168&#45;&gt;Node170</title>
<path fill="none" stroke="#191970" d="M128.2931,-48C140.131,-48 152.4617,-48 164.2083,-48"/>
<polygon fill="#191970" stroke="#191970" points="164.3536,-51.5001 174.3536,-48 164.3536,-44.5001 164.3536,-51.5001"/>
</g>
<!-- Node172 -->
<g id="node5" class="node">
<title>Node172</title>
<g id="a_node5"><a xlink:href="error_8h.html#add13298163f63b7d37ed9f12d57e1a31" target="_top" xlink:title="zrtos_error__is_success">
<polygon fill="#ffffff" stroke="#000000" points="164,-.5 164,-19.5 287,-19.5 287,-.5 164,-.5"/>
<text text-anchor="middle" x="225.5" y="-7.5" font-family="Helvetica,sans-Serif" font-size="10.00" fill="#000000">zrtos_error__is_success</text>
</a>
</g>
</g>
<!-- Node168&#45;&gt;Node172 -->
<g id="edge4" class="edge">
<title>Node168&#45;&gt;Node172</title>
<path fill="none" stroke="#191970" d="M104.7533,-38.411C126.1609,-33.3739 152.5862,-27.1562 175.2525,-21.8229"/>
<polygon fill="#191970" stroke="#191970" points="176.1073,-25.2175 185.0398,-19.5201 174.5039,-18.4036 176.1073,-25.2175"/>
</g>
<!-- Node171 -->
<g id="node4" class="node">
<title>Node171</title>
<g id="a_node4"><a xlink:href="vfs__file_8h.html#aa8a4e752ff2d76c564cca915eb8ad71d" target="_top" xlink:title="zrtos_vfs_file__write">
<polygon fill="#ffffff" stroke="#000000" points="323,-38.5 323,-57.5 430,-57.5 430,-38.5 323,-38.5"/>
<text text-anchor="middle" x="376.5" y="-45.5" font-family="Helvetica,sans-Serif" font-size="10.00" fill="#000000">zrtos_vfs_file__write</text>
</a>
</g>
</g>
<!-- Node170&#45;&gt;Node171 -->
<g id="edge3" class="edge">
<title>Node170&#45;&gt;Node171</title>
<path fill="none" stroke="#191970" d="M276.6217,-48C288.2524,-48 300.7477,-48 312.8287,-48"/>
<polygon fill="#191970" stroke="#191970" points="312.8512,-51.5001 322.8512,-48 312.8511,-44.5001 312.8512,-51.5001"/>
</g>
</g>
</svg>
