<?xml version="1.0" encoding="UTF-8" standalone="no"?>
<!DOCTYPE svg PUBLIC "-//W3C//DTD SVG 1.1//EN"
 "http://www.w3.org/Graphics/SVG/1.1/DTD/svg11.dtd">
<!-- Generated by graphviz version 10.0.1 (20240210.2158)
 -->
<!-- Title: zrtos_vfs_fd_set__zero Pages: 1 -->
<svg width="514pt" height="28pt"
 viewBox="0.00 0.00 513.75 28.00" xmlns="http://www.w3.org/2000/svg" xmlns:xlink="http://www.w3.org/1999/xlink">
<g id="graph0" class="graph" transform="scale(1 1) rotate(0) translate(4 24)">
<title>zrtos_vfs_fd_set__zero</title>
<!-- Node1 -->
<g id="Node000001" class="node">
<title>Node1</title>
<g id="a_Node000001"><a xlink:title=" ">
<polygon fill="#999999" stroke="#666666" points="115,-20 0,-20 0,0 115,0 115,-20"/>
<text text-anchor="middle" x="57.5" y="-6.5" font-family="Helvetica,sans-Serif" font-size="10.00">zrtos_vfs_fd_set__zero</text>
</a>
</g>
</g>
<!-- Node2 -->
<g id="Node000002" class="node">
<title>Node2</title>
<g id="a_Node000002"><a xlink:href="bitfield_8h.html#a41e25f1f59cb57785b18503403258629" target="_top" xlink:title=" ">
<polygon fill="white" stroke="#666666" points="251,-20 151,-20 151,0 251,0 251,-20"/>
<text text-anchor="middle" x="201" y="-6.5" font-family="Helvetica,sans-Serif" font-size="10.00">zrtos_bitfield__zero</text>
</a>
</g>
</g>
<!-- Node1&#45;&gt;Node2 -->
<g id="edge1_Node000001_Node000002" class="edge">
<title>Node1&#45;&gt;Node2</title>
<g id="a_edge1_Node000001_Node000002"><a xlink:title=" ">
<path fill="none" stroke="#63b8ff" d="M115.24,-10C123.09,-10 131.18,-10 139.11,-10"/>
<polygon fill="#63b8ff" stroke="#63b8ff" points="139.03,-13.5 149.03,-10 139.03,-6.5 139.03,-13.5"/>
</a>
</g>
</g>
<!-- Node3 -->
<g id="Node000003" class="node">
<title>Node3</title>
<g id="a_Node000003"><a xlink:href="mem_8h.html#a419d9f9e6d69f2577fdce04166a8b8a7" target="_top" xlink:title=" ">
<polygon fill="white" stroke="#666666" points="381,-20 287,-20 287,0 381,0 381,-20"/>
<text text-anchor="middle" x="334" y="-6.5" font-family="Helvetica,sans-Serif" font-size="10.00">zrtos_mem__zero</text>
</a>
</g>
</g>
<!-- Node2&#45;&gt;Node3 -->
<g id="edge2_Node000002_Node000003" class="edge">
<title>Node2&#45;&gt;Node3</title>
<g id="a_edge2_Node000002_Node000003"><a xlink:title=" ">
<path fill="none" stroke="#63b8ff" d="M251.15,-10C259.05,-10 267.28,-10 275.35,-10"/>
<polygon fill="#63b8ff" stroke="#63b8ff" points="275.09,-13.5 285.09,-10 275.09,-6.5 275.09,-13.5"/>
</a>
</g>
</g>
<!-- Node4 -->
<g id="Node000004" class="node">
<title>Node4</title>
<g id="a_Node000004"><a xlink:href="mem_8h.html#ad6c786590236d1d560b6277f638bf766" target="_top" xlink:title=" ">
<polygon fill="white" stroke="#666666" points="505.75,-20 417,-20 417,0 505.75,0 505.75,-20"/>
<text text-anchor="middle" x="461.38" y="-6.5" font-family="Helvetica,sans-Serif" font-size="10.00">zrtos_mem__set</text>
</a>
</g>
</g>
<!-- Node3&#45;&gt;Node4 -->
<g id="edge3_Node000003_Node000004" class="edge">
<title>Node3&#45;&gt;Node4</title>
<g id="a_edge3_Node000003_Node000004"><a xlink:title=" ">
<path fill="none" stroke="#63b8ff" d="M381.33,-10C389.11,-10 397.25,-10 405.23,-10"/>
<polygon fill="#63b8ff" stroke="#63b8ff" points="405.22,-13.5 415.22,-10 405.22,-6.5 405.22,-13.5"/>
</a>
</g>
</g>
</g>
</svg>
