<?xml version="1.0" encoding="UTF-8" standalone="no"?>
<!DOCTYPE svg PUBLIC "-//W3C//DTD SVG 1.1//EN"
 "http://www.w3.org/Graphics/SVG/1.1/DTD/svg11.dtd">
<!-- Generated by graphviz version 2.40.1 (20161225.0304)
 -->
<!-- Title: vfs_dentry.h Pages: 1 -->
<svg width="532pt" height="263pt"
 viewBox="0.00 0.00 532.00 263.00" xmlns="http://www.w3.org/2000/svg" xmlns:xlink="http://www.w3.org/1999/xlink">
<g id="graph0" class="graph" transform="scale(1 1) rotate(0) translate(4 259)">
<title>vfs_dentry.h</title>
<polygon fill="#ffffff" stroke="transparent" points="-4,4 -4,-259 528,-259 528,4 -4,4"/>
<!-- Node0 -->
<g id="node1" class="node">
<title>Node0</title>
<polygon fill="#bfbfbf" stroke="#000000" points="210.5,-235.5 210.5,-254.5 281.5,-254.5 281.5,-235.5 210.5,-235.5"/>
<text text-anchor="middle" x="246" y="-242.5" font-family="Helvetica,sans-Serif" font-size="10.00" fill="#000000">vfs_dentry.h</text>
</g>
<!-- Node1 -->
<g id="node2" class="node">
<title>Node1</title>
<g id="a_node2"><a xlink:href="str_8h.html" target="_top" xlink:title="zrtos/str.h">
<polygon fill="#ffffff" stroke="#000000" points="339.5,-174 339.5,-193 400.5,-193 400.5,-174 339.5,-174"/>
<text text-anchor="middle" x="370" y="-181" font-family="Helvetica,sans-Serif" font-size="10.00" fill="#000000">zrtos/str.h</text>
</a>
</g>
</g>
<!-- Node0&#45;&gt;Node1 -->
<g id="edge1" class="edge">
<title>Node0&#45;&gt;Node1</title>
<path fill="none" stroke="#191970" d="M265.375,-235.3906C285.8495,-225.2359 318.3442,-209.1196 341.6885,-197.5416"/>
<polygon fill="#191970" stroke="#191970" points="343.3575,-200.6207 350.7611,-193.0419 340.2472,-194.3496 343.3575,-200.6207"/>
</g>
<!-- Node3 -->
<g id="node4" class="node">
<title>Node3</title>
<g id="a_node4"><a xlink:href="types_8h.html" target="_top" xlink:title="zrtos/types.h">
<polygon fill="#ffffff" stroke="#000000" points="271,-56.5 271,-75.5 345,-75.5 345,-56.5 271,-56.5"/>
<text text-anchor="middle" x="308" y="-63.5" font-family="Helvetica,sans-Serif" font-size="10.00" fill="#000000">zrtos/types.h</text>
</a>
</g>
</g>
<!-- Node0&#45;&gt;Node3 -->
<g id="edge14" class="edge">
<title>Node0&#45;&gt;Node3</title>
<path fill="none" stroke="#191970" d="M245.4621,-235.415C244.5817,-212.7342 244.6421,-154.4907 265,-112 270.4247,-100.6777 279.636,-90.2565 288.1447,-82.2065"/>
<polygon fill="#191970" stroke="#191970" points="290.5032,-84.7928 295.6326,-75.5225 285.8417,-79.5707 290.5032,-84.7928"/>
</g>
<!-- Node11 -->
<g id="node12" class="node">
<title>Node11</title>
<g id="a_node12"><a xlink:href="clist_8h.html" target="_top" xlink:title="zrtos/clist.h">
<polygon fill="#ffffff" stroke="#000000" points="274,-112.5 274,-131.5 342,-131.5 342,-112.5 274,-112.5"/>
<text text-anchor="middle" x="308" y="-119.5" font-family="Helvetica,sans-Serif" font-size="10.00" fill="#000000">zrtos/clist.h</text>
</a>
</g>
</g>
<!-- Node0&#45;&gt;Node11 -->
<g id="edge15" class="edge">
<title>Node0&#45;&gt;Node11</title>
<path fill="none" stroke="#191970" d="M250.865,-235.3484C261.1421,-214.9601 285.2146,-167.2033 298.6013,-140.6459"/>
<polygon fill="#191970" stroke="#191970" points="301.7818,-142.1119 303.1576,-131.6068 295.531,-138.9611 301.7818,-142.1119"/>
</g>
<!-- Node12 -->
<g id="node13" class="node">
<title>Node12</title>
<g id="a_node13"><a xlink:href="vfs__inode_8h.html" target="_top" xlink:title="zrtos/vfs_inode.h">
<polygon fill="#ffffff" stroke="#000000" points="0,-174 0,-193 92,-193 92,-174 0,-174"/>
<text text-anchor="middle" x="46" y="-181" font-family="Helvetica,sans-Serif" font-size="10.00" fill="#000000">zrtos/vfs_inode.h</text>
</a>
</g>
</g>
<!-- Node0&#45;&gt;Node12 -->
<g id="edge17" class="edge">
<title>Node0&#45;&gt;Node12</title>
<path fill="none" stroke="#191970" d="M214.75,-235.3906C180.2589,-224.7846 124.6188,-207.6753 86.7338,-196.0257"/>
<polygon fill="#191970" stroke="#191970" points="87.6176,-192.6357 77.0306,-193.0419 85.5601,-199.3266 87.6176,-192.6357"/>
</g>
<!-- Node16 -->
<g id="node17" class="node">
<title>Node16</title>
<g id="a_node17"><a xlink:href="null_8h.html" target="_top" xlink:title="zrtos/vfs/module/null\l/null.h">
<polygon fill="#ffffff" stroke="#000000" points="110.5,-168.5 110.5,-198.5 217.5,-198.5 217.5,-168.5 110.5,-168.5"/>
<text text-anchor="start" x="118.5" y="-186.5" font-family="Helvetica,sans-Serif" font-size="10.00" fill="#000000">zrtos/vfs/module/null</text>
<text text-anchor="middle" x="164" y="-175.5" font-family="Helvetica,sans-Serif" font-size="10.00" fill="#000000">/null.h</text>
</a>
</g>
</g>
<!-- Node0&#45;&gt;Node16 -->
<g id="edge25" class="edge">
<title>Node0&#45;&gt;Node16</title>
<path fill="none" stroke="#191970" d="M233.1875,-235.3906C222.2953,-227.2215 206.2588,-215.1941 192.3669,-204.7752"/>
<polygon fill="#191970" stroke="#191970" points="194.1595,-201.7446 184.0595,-198.5446 189.9595,-207.3446 194.1595,-201.7446"/>
</g>
<!-- Node2 -->
<g id="node3" class="node">
<title>Node2</title>
<polygon fill="#ffffff" stroke="#bfbfbf" points="182,-56.5 182,-75.5 234,-75.5 234,-56.5 182,-56.5"/>
<text text-anchor="middle" x="208" y="-63.5" font-family="Helvetica,sans-Serif" font-size="10.00" fill="#000000">stdarg.h</text>
</g>
<!-- Node1&#45;&gt;Node2 -->
<g id="edge2" class="edge">
<title>Node1&#45;&gt;Node2</title>
<path fill="none" stroke="#191970" d="M343.3035,-173.8931C321.0163,-165.0891 289.1116,-150.6059 265,-132 247.3015,-118.3428 231.0567,-98.4833 220.4766,-84.1198"/>
<polygon fill="#191970" stroke="#191970" points="223.0459,-81.6953 214.3836,-75.5949 217.351,-85.7657 223.0459,-81.6953"/>
</g>
<!-- Node1&#45;&gt;Node3 -->
<g id="edge3" class="edge">
<title>Node1&#45;&gt;Node3</title>
<path fill="none" stroke="#191970" d="M368.9319,-173.6843C367.0432,-159.3573 362.1997,-132.2253 351,-112 344.9801,-101.1289 335.8282,-90.8425 327.5127,-82.7649"/>
<polygon fill="#191970" stroke="#191970" points="329.6444,-79.9691 319.9258,-75.7502 324.8923,-85.1089 329.6444,-79.9691"/>
</g>
<!-- Node9 -->
<g id="node10" class="node">
<title>Node9</title>
<g id="a_node10"><a xlink:href="cast_8h.html" target="_top" xlink:title="zrtos/cast.h">
<polygon fill="#ffffff" stroke="#000000" points="456,-.5 456,-19.5 524,-19.5 524,-.5 456,-.5"/>
<text text-anchor="middle" x="490" y="-7.5" font-family="Helvetica,sans-Serif" font-size="10.00" fill="#000000">zrtos/cast.h</text>
</a>
</g>
</g>
<!-- Node1&#45;&gt;Node9 -->
<g id="edge10" class="edge">
<title>Node1&#45;&gt;Node9</title>
<path fill="none" stroke="#191970" d="M400.5839,-177.7566C426.0031,-171.2595 460.8441,-157.9956 479,-132 500.3207,-101.4729 497.6226,-55.6343 493.7874,-29.7086"/>
<polygon fill="#191970" stroke="#191970" points="497.2003,-28.899 492.0842,-19.6213 490.298,-30.0645 497.2003,-28.899"/>
</g>
<!-- Node10 -->
<g id="node11" class="node">
<title>Node10</title>
<g id="a_node11"><a xlink:href="mem_8h.html" target="_top" xlink:title="zrtos/mem.h">
<polygon fill="#ffffff" stroke="#000000" points="398.5,-112.5 398.5,-131.5 469.5,-131.5 469.5,-112.5 398.5,-112.5"/>
<text text-anchor="middle" x="434" y="-119.5" font-family="Helvetica,sans-Serif" font-size="10.00" fill="#000000">zrtos/mem.h</text>
</a>
</g>
</g>
<!-- Node1&#45;&gt;Node10 -->
<g id="edge11" class="edge">
<title>Node1&#45;&gt;Node10</title>
<path fill="none" stroke="#191970" d="M380,-173.8906C389.7119,-164.5581 404.6639,-150.1902 416.3741,-138.9374"/>
<polygon fill="#191970" stroke="#191970" points="419.0736,-141.1974 423.859,-131.7449 414.2234,-136.15 419.0736,-141.1974"/>
</g>
<!-- Node4 -->
<g id="node5" class="node">
<title>Node4</title>
<polygon fill="#ffffff" stroke="#bfbfbf" points="101,-.5 101,-19.5 157,-19.5 157,-.5 101,-.5"/>
<text text-anchor="middle" x="129" y="-7.5" font-family="Helvetica,sans-Serif" font-size="10.00" fill="#000000">stdbool.h</text>
</g>
<!-- Node3&#45;&gt;Node4 -->
<g id="edge4" class="edge">
<title>Node3&#45;&gt;Node4</title>
<path fill="none" stroke="#191970" d="M277.2288,-56.3733C246.6103,-46.7943 199.5733,-32.0788 166.7222,-21.8014"/>
<polygon fill="#191970" stroke="#191970" points="167.6053,-18.4104 157.0164,-18.7649 165.5152,-25.0911 167.6053,-18.4104"/>
</g>
<!-- Node5 -->
<g id="node6" class="node">
<title>Node5</title>
<polygon fill="#ffffff" stroke="#bfbfbf" points="386,-.5 386,-19.5 438,-19.5 438,-.5 386,-.5"/>
<text text-anchor="middle" x="412" y="-7.5" font-family="Helvetica,sans-Serif" font-size="10.00" fill="#000000">stddef.h</text>
</g>
<!-- Node3&#45;&gt;Node5 -->
<g id="edge5" class="edge">
<title>Node3&#45;&gt;Node5</title>
<path fill="none" stroke="#191970" d="M326.1154,-56.2455C342.445,-47.4527 366.671,-34.4079 385.2339,-24.4125"/>
<polygon fill="#191970" stroke="#191970" points="386.9468,-27.4654 394.0922,-19.6427 383.6281,-21.3021 386.9468,-27.4654"/>
</g>
<!-- Node6 -->
<g id="node7" class="node">
<title>Node6</title>
<polygon fill="#ffffff" stroke="#bfbfbf" points="241.5,-.5 241.5,-19.5 290.5,-19.5 290.5,-.5 241.5,-.5"/>
<text text-anchor="middle" x="266" y="-7.5" font-family="Helvetica,sans-Serif" font-size="10.00" fill="#000000">stdint.h</text>
</g>
<!-- Node3&#45;&gt;Node6 -->
<g id="edge6" class="edge">
<title>Node3&#45;&gt;Node6</title>
<path fill="none" stroke="#191970" d="M300.6842,-56.2455C294.7821,-48.3761 286.3258,-37.101 279.2406,-27.6542"/>
<polygon fill="#191970" stroke="#191970" points="282.0321,-25.5427 273.232,-19.6427 276.432,-29.7427 282.0321,-25.5427"/>
</g>
<!-- Node7 -->
<g id="node8" class="node">
<title>Node7</title>
<polygon fill="#ffffff" stroke="#bfbfbf" points="175,-.5 175,-19.5 223,-19.5 223,-.5 175,-.5"/>
<text text-anchor="middle" x="199" y="-7.5" font-family="Helvetica,sans-Serif" font-size="10.00" fill="#000000">limits.h</text>
</g>
<!-- Node3&#45;&gt;Node7 -->
<g id="edge7" class="edge">
<title>Node3&#45;&gt;Node7</title>
<path fill="none" stroke="#191970" d="M289.0136,-56.2455C271.8208,-47.4125 246.2762,-34.2887 226.7868,-24.2758"/>
<polygon fill="#191970" stroke="#191970" points="228.263,-21.0993 217.7688,-19.6427 225.0641,-27.3257 228.263,-21.0993"/>
</g>
<!-- Node8 -->
<g id="node9" class="node">
<title>Node8</title>
<polygon fill="#ffffff" stroke="#bfbfbf" points="308.5,-.5 308.5,-19.5 367.5,-19.5 367.5,-.5 308.5,-.5"/>
<text text-anchor="middle" x="338" y="-7.5" font-family="Helvetica,sans-Serif" font-size="10.00" fill="#000000">stdalign.h</text>
</g>
<!-- Node3&#45;&gt;Node8 -->
<g id="edge8" class="edge">
<title>Node3&#45;&gt;Node8</title>
<path fill="none" stroke="#191970" d="M313.2256,-56.2455C317.3123,-48.617 323.1135,-37.7881 328.075,-28.5267"/>
<polygon fill="#191970" stroke="#191970" points="331.1972,-30.1103 332.8343,-19.6427 325.0268,-26.8047 331.1972,-30.1103"/>
</g>
<!-- Node3&#45;&gt;Node9 -->
<g id="edge9" class="edge">
<title>Node3&#45;&gt;Node9</title>
<path fill="none" stroke="#191970" d="M339.2869,-56.3733C369.6818,-47.021 415.9893,-32.7725 449.25,-22.5385"/>
<polygon fill="#191970" stroke="#191970" points="450.5929,-25.7873 459.1214,-19.5011 448.5342,-19.0968 450.5929,-25.7873"/>
</g>
<!-- Node10&#45;&gt;Node3 -->
<g id="edge12" class="edge">
<title>Node10&#45;&gt;Node3</title>
<path fill="none" stroke="#191970" d="M412.3398,-112.3733C392.0228,-103.3435 361.436,-89.7494 338.625,-79.6111"/>
<polygon fill="#191970" stroke="#191970" points="339.9372,-76.3642 329.3775,-75.5011 337.0941,-82.7609 339.9372,-76.3642"/>
</g>
<!-- Node10&#45;&gt;Node9 -->
<g id="edge13" class="edge">
<title>Node10&#45;&gt;Node9</title>
<path fill="none" stroke="#191970" d="M438.7745,-112.4509C448.032,-93.936 468.5705,-52.8591 480.6407,-28.7187"/>
<polygon fill="#191970" stroke="#191970" points="483.8959,-30.0344 485.2376,-19.5249 477.6349,-26.9039 483.8959,-30.0344"/>
</g>
<!-- Node11&#45;&gt;Node3 -->
<g id="edge16" class="edge">
<title>Node11&#45;&gt;Node3</title>
<path fill="none" stroke="#191970" d="M308,-112.2455C308,-104.9382 308,-94.6944 308,-85.7046"/>
<polygon fill="#191970" stroke="#191970" points="311.5001,-85.6426 308,-75.6427 304.5001,-85.6427 311.5001,-85.6426"/>
</g>
<!-- Node13 -->
<g id="node14" class="node">
<title>Node13</title>
<g id="a_node14"><a xlink:href="vfs__plugin_8h.html" target="_top" xlink:title="zrtos/vfs_plugin.h">
<polygon fill="#ffffff" stroke="#000000" points="86,-112.5 86,-131.5 180,-131.5 180,-112.5 86,-112.5"/>
<text text-anchor="middle" x="133" y="-119.5" font-family="Helvetica,sans-Serif" font-size="10.00" fill="#000000">zrtos/vfs_plugin.h</text>
</a>
</g>
</g>
<!-- Node12&#45;&gt;Node13 -->
<g id="edge18" class="edge">
<title>Node12&#45;&gt;Node13</title>
<path fill="none" stroke="#191970" d="M59.5938,-173.8906C73.3843,-164.1421 94.9472,-148.8994 111.141,-137.4521"/>
<polygon fill="#191970" stroke="#191970" points="113.3563,-140.1723 119.5017,-131.5419 109.3156,-134.4563 113.3563,-140.1723"/>
</g>
<!-- Node13&#45;&gt;Node2 -->
<g id="edge19" class="edge">
<title>Node13&#45;&gt;Node2</title>
<path fill="none" stroke="#191970" d="M146.064,-112.2455C157.3562,-103.814 173.8845,-91.4729 187.0271,-81.6598"/>
<polygon fill="#191970" stroke="#191970" points="189.1669,-84.4301 195.0857,-75.6427 184.9789,-78.8211 189.1669,-84.4301"/>
</g>
<!-- Node13&#45;&gt;Node3 -->
<g id="edge20" class="edge">
<title>Node13&#45;&gt;Node3</title>
<path fill="none" stroke="#191970" d="M163.0836,-112.3733C192.1834,-103.0613 236.4523,-88.8953 268.403,-78.671"/>
<polygon fill="#191970" stroke="#191970" points="269.8515,-81.8824 278.309,-75.5011 267.718,-75.2155 269.8515,-81.8824"/>
</g>
<!-- Node14 -->
<g id="node15" class="node">
<title>Node14</title>
<g id="a_node15"><a xlink:href="error_8h.html" target="_top" xlink:title="zrtos/error.h">
<polygon fill="#ffffff" stroke="#000000" points="94.5,-56.5 94.5,-75.5 163.5,-75.5 163.5,-56.5 94.5,-56.5"/>
<text text-anchor="middle" x="129" y="-63.5" font-family="Helvetica,sans-Serif" font-size="10.00" fill="#000000">zrtos/error.h</text>
</a>
</g>
</g>
<!-- Node13&#45;&gt;Node14 -->
<g id="edge21" class="edge">
<title>Node13&#45;&gt;Node14</title>
<path fill="none" stroke="#191970" d="M132.3033,-112.2455C131.7813,-104.9382 131.0496,-94.6944 130.4075,-85.7046"/>
<polygon fill="#191970" stroke="#191970" points="133.8924,-85.3679 129.6888,-75.6427 126.9102,-85.8667 133.8924,-85.3679"/>
</g>
<!-- Node14&#45;&gt;Node4 -->
<g id="edge23" class="edge">
<title>Node14&#45;&gt;Node4</title>
<path fill="none" stroke="#191970" d="M129,-56.2455C129,-48.9382 129,-38.6944 129,-29.7046"/>
<polygon fill="#191970" stroke="#191970" points="132.5001,-29.6426 129,-19.6427 125.5001,-29.6427 132.5001,-29.6426"/>
</g>
<!-- Node14&#45;&gt;Node7 -->
<g id="edge22" class="edge">
<title>Node14&#45;&gt;Node7</title>
<path fill="none" stroke="#191970" d="M141.1931,-56.2455C151.6321,-47.8943 166.8655,-35.7076 179.074,-25.9408"/>
<polygon fill="#191970" stroke="#191970" points="181.3244,-28.6227 186.9467,-19.6427 176.9515,-23.1566 181.3244,-28.6227"/>
</g>
<!-- Node15 -->
<g id="node16" class="node">
<title>Node15</title>
<g id="a_node16"><a xlink:href="assert_8h.html" target="_top" xlink:title="zrtos/assert.h">
<polygon fill="#ffffff" stroke="#000000" points="5.5,-.5 5.5,-19.5 82.5,-19.5 82.5,-.5 5.5,-.5"/>
<text text-anchor="middle" x="44" y="-7.5" font-family="Helvetica,sans-Serif" font-size="10.00" fill="#000000">zrtos/assert.h</text>
</a>
</g>
</g>
<!-- Node14&#45;&gt;Node15 -->
<g id="edge24" class="edge">
<title>Node14&#45;&gt;Node15</title>
<path fill="none" stroke="#191970" d="M114.1941,-56.2455C101.2744,-47.7337 82.3069,-35.2375 67.3448,-25.3801"/>
<polygon fill="#191970" stroke="#191970" points="68.9124,-22.2216 58.6362,-19.6427 65.0613,-28.067 68.9124,-22.2216"/>
</g>
<!-- Node16&#45;&gt;Node13 -->
<g id="edge26" class="edge">
<title>Node16&#45;&gt;Node13</title>
<path fill="none" stroke="#191970" d="M156.3371,-168.2977C152.1684,-160.0277 146.9735,-149.7215 142.5439,-140.9339"/>
<polygon fill="#191970" stroke="#191970" points="145.5901,-139.2012 137.9635,-131.8469 139.3393,-142.3521 145.5901,-139.2012"/>
</g>
</g>
</svg>
