<?xml version="1.0" encoding="UTF-8" standalone="no"?>
<!DOCTYPE svg PUBLIC "-//W3C//DTD SVG 1.1//EN"
 "http://www.w3.org/Graphics/SVG/1.1/DTD/svg11.dtd">
<!-- Generated by graphviz version 10.0.1 (20240210.2158)
 -->
<!-- Title: zrtos_vfs_dentry__umount Pages: 1 -->
<svg width="296pt" height="66pt"
 viewBox="0.00 0.00 295.75 66.00" xmlns="http://www.w3.org/2000/svg" xmlns:xlink="http://www.w3.org/1999/xlink">
<g id="graph0" class="graph" transform="scale(1 1) rotate(0) translate(4 62)">
<title>zrtos_vfs_dentry__umount</title>
<!-- Node1 -->
<g id="Node000001" class="node">
<title>Node1</title>
<g id="a_Node000001"><a xlink:title=" ">
<polygon fill="#999999" stroke="#666666" points="129.25,-39 0,-39 0,-19 129.25,-19 129.25,-39"/>
<text text-anchor="middle" x="64.62" y="-25.5" font-family="Helvetica,sans-Serif" font-size="10.00">zrtos_vfs_dentry__umount</text>
</a>
</g>
</g>
<!-- Node2 -->
<g id="Node000002" class="node">
<title>Node2</title>
<g id="a_Node000002"><a xlink:href="error_8h.html#add13298163f63b7d37ed9f12d57e1a31" target="_top" xlink:title=" ">
<polygon fill="white" stroke="#666666" points="287.75,-58 165.25,-58 165.25,-38 287.75,-38 287.75,-58"/>
<text text-anchor="middle" x="226.5" y="-44.5" font-family="Helvetica,sans-Serif" font-size="10.00">zrtos_error__is_success</text>
</a>
</g>
</g>
<!-- Node1&#45;&gt;Node2 -->
<g id="edge1_Node000001_Node000002" class="edge">
<title>Node1&#45;&gt;Node2</title>
<g id="a_edge1_Node000001_Node000002"><a xlink:title=" ">
<path fill="none" stroke="#63b8ff" d="M129.73,-36.62C137.49,-37.54 145.46,-38.49 153.33,-39.42"/>
<polygon fill="#63b8ff" stroke="#63b8ff" points="152.91,-42.9 163.25,-40.6 153.73,-35.95 152.91,-42.9"/>
</a>
</g>
</g>
<!-- Node3 -->
<g id="Node000003" class="node">
<title>Node3</title>
<g id="a_Node000003"><a xlink:href="vfs__inode_8h.html#a642746b730ce3fe49070eaa4b6514ffc" target="_top" xlink:title=" ">
<polygon fill="white" stroke="#666666" points="284.75,-20 168.25,-20 168.25,0 284.75,0 284.75,-20"/>
<text text-anchor="middle" x="226.5" y="-6.5" font-family="Helvetica,sans-Serif" font-size="10.00">zrtos_vfs_inode__deinit</text>
</a>
</g>
</g>
<!-- Node1&#45;&gt;Node3 -->
<g id="edge2_Node000001_Node000003" class="edge">
<title>Node1&#45;&gt;Node3</title>
<g id="a_edge2_Node000001_Node000003"><a xlink:title=" ">
<path fill="none" stroke="#63b8ff" d="M129.73,-21.38C138.59,-20.33 147.71,-19.24 156.65,-18.18"/>
<polygon fill="#63b8ff" stroke="#63b8ff" points="156.82,-21.69 166.34,-17.03 155.99,-14.74 156.82,-21.69"/>
</a>
</g>
</g>
</g>
</svg>
