<?xml version="1.0" encoding="UTF-8" standalone="no"?>
<!DOCTYPE svg PUBLIC "-//W3C//DTD SVG 1.1//EN"
 "http://www.w3.org/Graphics/SVG/1.1/DTD/svg11.dtd">
<!-- Generated by graphviz version 10.0.1 (20240210.2158)
 -->
<!-- Title: zrtos_vfs_file__can_write Pages: 1 -->
<svg width="549pt" height="40pt"
 viewBox="0.00 0.00 549.00 40.00" xmlns="http://www.w3.org/2000/svg" xmlns:xlink="http://www.w3.org/1999/xlink">
<g id="graph0" class="graph" transform="scale(1 1) rotate(0) translate(4 36)">
<title>zrtos_vfs_file__can_write</title>
<!-- Node1 -->
<g id="Node000001" class="node">
<title>Node1</title>
<g id="a_Node000001"><a xlink:title=" ">
<polygon fill="#999999" stroke="#666666" points="541,-32 443.25,-32 443.25,0 541,0 541,-32"/>
<text text-anchor="start" x="451.25" y="-18.5" font-family="Helvetica,sans-Serif" font-size="10.00">zrtos_vfs_file__can</text>
<text text-anchor="middle" x="492.12" y="-6.5" font-family="Helvetica,sans-Serif" font-size="10.00">_write</text>
</a>
</g>
</g>
<!-- Node2 -->
<g id="Node000002" class="node">
<title>Node2</title>
<g id="a_Node000002"><a xlink:href="vfs__fd_8h.html#a0c49dac81e96abdc11ac15deda3da529" target="_top" xlink:title=" ">
<polygon fill="white" stroke="#666666" points="407.25,-26 288.5,-26 288.5,-6 407.25,-6 407.25,-26"/>
<text text-anchor="middle" x="347.88" y="-12.5" font-family="Helvetica,sans-Serif" font-size="10.00">zrtos_vfs_fd__can_write</text>
</a>
</g>
</g>
<!-- Node1&#45;&gt;Node2 -->
<g id="edge1_Node000001_Node000002" class="edge">
<title>Node1&#45;&gt;Node2</title>
<g id="a_edge1_Node000001_Node000002"><a xlink:title=" ">
<path fill="none" stroke="#63b8ff" d="M431.54,-16C423.62,-16 415.5,-16 407.59,-16"/>
<polygon fill="#63b8ff" stroke="#63b8ff" points="431.45,-19.5 441.45,-16 431.45,-12.5 431.45,-19.5"/>
</a>
</g>
</g>
<!-- Node3 -->
<g id="Node000003" class="node">
<title>Node3</title>
<g id="a_Node000003"><a xlink:href="vfs__fd_8h.html#a8804d81bd731c8b3df5763a432c1ebdd" target="_top" xlink:title=" ">
<polygon fill="white" stroke="#666666" points="252.5,-26 148.75,-26 148.75,-6 252.5,-6 252.5,-26"/>
<text text-anchor="middle" x="200.62" y="-12.5" font-family="Helvetica,sans-Serif" font-size="10.00">zrtos_vfs_fd__select</text>
</a>
</g>
</g>
<!-- Node2&#45;&gt;Node3 -->
<g id="edge2_Node000002_Node000003" class="edge">
<title>Node2&#45;&gt;Node3</title>
<g id="a_edge2_Node000002_Node000003"><a xlink:title=" ">
<path fill="none" stroke="#63b8ff" d="M276.75,-16C268.59,-16 260.39,-16 252.56,-16"/>
<polygon fill="#63b8ff" stroke="#63b8ff" points="276.7,-19.5 286.7,-16 276.7,-12.5 276.7,-19.5"/>
</a>
</g>
</g>
<!-- Node4 -->
<g id="Node000004" class="node">
<title>Node4</title>
<g id="a_Node000004"><a xlink:href="vfs__notify_8h.html#a9abba884c837a89754c83d36d6430778" target="_top" xlink:title=" ">
<polygon fill="white" stroke="#666666" points="112.75,-26 0,-26 0,-6 112.75,-6 112.75,-26"/>
<text text-anchor="middle" x="56.38" y="-12.5" font-family="Helvetica,sans-Serif" font-size="10.00">zrtos_vfs_notify__start</text>
</a>
</g>
</g>
<!-- Node3&#45;&gt;Node4 -->
<g id="edge3_Node000003_Node000004" class="edge">
<title>Node3&#45;&gt;Node4</title>
<g id="a_edge3_Node000003_Node000004"><a xlink:title=" ">
<path fill="none" stroke="#63b8ff" d="M136.8,-16C128.86,-16 120.79,-16 112.98,-16"/>
<polygon fill="#63b8ff" stroke="#63b8ff" points="136.76,-19.5 146.76,-16 136.76,-12.5 136.76,-19.5"/>
</a>
</g>
</g>
</g>
</svg>
