<?xml version="1.0" encoding="UTF-8" standalone="no"?>
<!DOCTYPE svg PUBLIC "-//W3C//DTD SVG 1.1//EN"
 "http://www.w3.org/Graphics/SVG/1.1/DTD/svg11.dtd">
<!-- Generated by graphviz version 2.40.1 (20161225.0304)
 -->
<!-- Title: zrtos_vfs_fd_set__zero Pages: 1 -->
<svg width="422pt" height="28pt"
 viewBox="0.00 0.00 422.00 28.00" xmlns="http://www.w3.org/2000/svg" xmlns:xlink="http://www.w3.org/1999/xlink">
<g id="graph0" class="graph" transform="scale(1 1) rotate(0) translate(4 24)">
<title>zrtos_vfs_fd_set__zero</title>
<polygon fill="#ffffff" stroke="transparent" points="-4,4 -4,-24 418,-24 418,4 -4,4"/>
<!-- Node202 -->
<g id="node1" class="node">
<title>Node202</title>
<polygon fill="#bfbfbf" stroke="#000000" points="0,-.5 0,-19.5 119,-19.5 119,-.5 0,-.5"/>
<text text-anchor="middle" x="59.5" y="-7.5" font-family="Helvetica,sans-Serif" font-size="10.00" fill="#000000">zrtos_vfs_fd_set__zero</text>
</g>
<!-- Node203 -->
<g id="node2" class="node">
<title>Node203</title>
<g id="a_node2"><a xlink:href="vfs__fd_8h.html#a8747abe85b66255bf04adc7610b87374" target="_top" xlink:title="zrtos_vfs_fd_set__init">
<polygon fill="#ffffff" stroke="#000000" points="155,-.5 155,-19.5 268,-19.5 268,-.5 155,-.5"/>
<text text-anchor="middle" x="211.5" y="-7.5" font-family="Helvetica,sans-Serif" font-size="10.00" fill="#000000">zrtos_vfs_fd_set__init</text>
</a>
</g>
</g>
<!-- Node202&#45;&gt;Node203 -->
<g id="edge1" class="edge">
<title>Node202&#45;&gt;Node203</title>
<path fill="none" stroke="#191970" d="M129.3424,-10C137.7724,-10 146.3042,-10 154.5191,-10"/>
<polygon fill="#191970" stroke="#191970" points="129.1382,-6.5001 119.1382,-10 129.1381,-13.5001 129.1382,-6.5001"/>
</g>
<!-- Node204 -->
<g id="node3" class="node">
<title>Node204</title>
<g id="a_node3"><a xlink:href="vfs__notify_8h.html#a390aa07da245cc02fe5949e98e6f48e5" target="_top" xlink:title="zrtos_vfs_notify__init">
<polygon fill="#ffffff" stroke="#000000" points="304,-.5 304,-19.5 414,-19.5 414,-.5 304,-.5"/>
<text text-anchor="middle" x="359" y="-7.5" font-family="Helvetica,sans-Serif" font-size="10.00" fill="#000000">zrtos_vfs_notify__init</text>
</a>
</g>
</g>
<!-- Node203&#45;&gt;Node204 -->
<g id="edge2" class="edge">
<title>Node203&#45;&gt;Node204</title>
<path fill="none" stroke="#191970" d="M278.3727,-10C286.8649,-10 295.4798,-10 303.7618,-10"/>
<polygon fill="#191970" stroke="#191970" points="278.1055,-6.5001 268.1055,-10 278.1055,-13.5001 278.1055,-6.5001"/>
</g>
</g>
</svg>
