<?xml version="1.0" encoding="UTF-8" standalone="no"?>
<!DOCTYPE svg PUBLIC "-//W3C//DTD SVG 1.1//EN"
 "http://www.w3.org/Graphics/SVG/1.1/DTD/svg11.dtd">
<!-- Generated by graphviz version 2.40.1 (20161225.0304)
 -->
<!-- Title: zrtos_vfs_fd__is_sync_again_error Pages: 1 -->
<svg width="287pt" height="66pt"
 viewBox="0.00 0.00 287.00 66.00" xmlns="http://www.w3.org/2000/svg" xmlns:xlink="http://www.w3.org/1999/xlink">
<g id="graph0" class="graph" transform="scale(1 1) rotate(0) translate(4 62)">
<title>zrtos_vfs_fd__is_sync_again_error</title>
<polygon fill="#ffffff" stroke="transparent" points="-4,4 -4,-62 283,-62 283,4 -4,4"/>
<!-- Node20 -->
<g id="node1" class="node">
<title>Node20</title>
<polygon fill="#bfbfbf" stroke="#000000" points="0,-14 0,-44 115,-44 115,-14 0,-14"/>
<text text-anchor="start" x="8" y="-32" font-family="Helvetica,sans-Serif" font-size="10.00" fill="#000000">zrtos_vfs_fd__is_sync</text>
<text text-anchor="middle" x="57.5" y="-21" font-family="Helvetica,sans-Serif" font-size="10.00" fill="#000000">_again_error</text>
</g>
<!-- Node21 -->
<g id="node2" class="node">
<title>Node21</title>
<g id="a_node2"><a xlink:href="vfs__fd_8h.html#ae737855f8418bd0b815a5113c0b2203e" target="_top" xlink:title="zrtos_vfs_fd__read_sync">
<polygon fill="#ffffff" stroke="#000000" points="152,-38.5 152,-57.5 278,-57.5 278,-38.5 152,-38.5"/>
<text text-anchor="middle" x="215" y="-45.5" font-family="Helvetica,sans-Serif" font-size="10.00" fill="#000000">zrtos_vfs_fd__read_sync</text>
</a>
</g>
</g>
<!-- Node20&#45;&gt;Node21 -->
<g id="edge1" class="edge">
<title>Node20&#45;&gt;Node21</title>
<path fill="none" stroke="#191970" d="M125.4651,-37.199C134.2589,-38.2598 143.2356,-39.3427 151.9454,-40.3934"/>
<polygon fill="#191970" stroke="#191970" points="125.6001,-33.69 115.2529,-35.967 124.7617,-40.6396 125.6001,-33.69"/>
</g>
<!-- Node22 -->
<g id="node3" class="node">
<title>Node22</title>
<g id="a_node3"><a xlink:href="vfs__fd_8h.html#ad2e1f59b4c70fbc7dc35cab85a0ff367" target="_top" xlink:title="zrtos_vfs_fd__write_sync">
<polygon fill="#ffffff" stroke="#000000" points="151,-.5 151,-19.5 279,-19.5 279,-.5 151,-.5"/>
<text text-anchor="middle" x="215" y="-7.5" font-family="Helvetica,sans-Serif" font-size="10.00" fill="#000000">zrtos_vfs_fd__write_sync</text>
</a>
</g>
</g>
<!-- Node20&#45;&gt;Node22 -->
<g id="edge2" class="edge">
<title>Node20&#45;&gt;Node22</title>
<path fill="none" stroke="#191970" d="M125.4398,-20.8041C133.8819,-19.7857 142.4929,-18.7469 150.8748,-17.7357"/>
<polygon fill="#191970" stroke="#191970" points="124.7617,-17.3604 115.2529,-22.033 125.6001,-24.31 124.7617,-17.3604"/>
</g>
</g>
</svg>
