<?xml version="1.0" encoding="UTF-8" standalone="no"?>
<!DOCTYPE svg PUBLIC "-//W3C//DTD SVG 1.1//EN"
 "http://www.w3.org/Graphics/SVG/1.1/DTD/svg11.dtd">
<!-- Generated by graphviz version 2.40.1 (20161225.0304)
 -->
<!-- Title: zrtos_vfs_dentry__each_child_filter_name_cb Pages: 1 -->
<svg width="524pt" height="72pt"
 viewBox="0.00 0.00 524.00 71.50" xmlns="http://www.w3.org/2000/svg" xmlns:xlink="http://www.w3.org/1999/xlink">
<g id="graph0" class="graph" transform="scale(1 1) rotate(0) translate(4 67.5)">
<title>zrtos_vfs_dentry__each_child_filter_name_cb</title>
<polygon fill="#ffffff" stroke="transparent" points="-4,4 -4,-67.5 520,-67.5 520,4 -4,4"/>
<!-- Node17 -->
<g id="node1" class="node">
<title>Node17</title>
<polygon fill="#bfbfbf" stroke="#000000" points="0,-14 0,-44 121,-44 121,-14 0,-14"/>
<text text-anchor="start" x="8" y="-32" font-family="Helvetica,sans-Serif" font-size="10.00" fill="#000000">zrtos_vfs_dentry__each</text>
<text text-anchor="middle" x="60.5" y="-21" font-family="Helvetica,sans-Serif" font-size="10.00" fill="#000000">_child_filter_name_cb</text>
</g>
<!-- Node18 -->
<g id="node2" class="node">
<title>Node18</title>
<g id="a_node2"><a xlink:href="str_8h.html#a7e9860a6921e03fd013bbb20bf4a88b3" target="_top" xlink:title="zrtos_str__cmp">
<polygon fill="#ffffff" stroke="#000000" points="157,-19.5 157,-38.5 241,-38.5 241,-19.5 157,-19.5"/>
<text text-anchor="middle" x="199" y="-26.5" font-family="Helvetica,sans-Serif" font-size="10.00" fill="#000000">zrtos_str__cmp</text>
</a>
</g>
</g>
<!-- Node17&#45;&gt;Node18 -->
<g id="edge1" class="edge">
<title>Node17&#45;&gt;Node18</title>
<path fill="none" stroke="#191970" d="M121.2481,-29C129.8257,-29 138.58,-29 146.9738,-29"/>
<polygon fill="#191970" stroke="#191970" points="146.9976,-32.5001 156.9975,-29 146.9975,-25.5001 146.9976,-32.5001"/>
</g>
<!-- Node19 -->
<g id="node3" class="node">
<title>Node19</title>
<g id="a_node3"><a xlink:href="str_8h.html#a0bbbf024b181a2c7d5ec9056efb84743" target="_top" xlink:title="zrtos_str__len">
<polygon fill="#ffffff" stroke="#000000" points="285.5,-38.5 285.5,-57.5 363.5,-57.5 363.5,-38.5 285.5,-38.5"/>
<text text-anchor="middle" x="324.5" y="-45.5" font-family="Helvetica,sans-Serif" font-size="10.00" fill="#000000">zrtos_str__len</text>
</a>
</g>
</g>
<!-- Node18&#45;&gt;Node19 -->
<g id="edge2" class="edge">
<title>Node18&#45;&gt;Node19</title>
<path fill="none" stroke="#191970" d="M241.1388,-35.3796C252.0427,-37.0304 263.8807,-38.8226 275.1187,-40.5239"/>
<polygon fill="#191970" stroke="#191970" points="274.8154,-44.0178 285.2267,-42.0542 275.8633,-37.0967 274.8154,-44.0178"/>
</g>
<!-- Node21 -->
<g id="node5" class="node">
<title>Node21</title>
<g id="a_node5"><a xlink:href="mem_8h.html#abc92c0f931688ddf8da31714fff6a8d3" target="_top" xlink:title="zrtos_mem__cmp">
<polygon fill="#ffffff" stroke="#000000" points="277,-.5 277,-19.5 372,-19.5 372,-.5 277,-.5"/>
<text text-anchor="middle" x="324.5" y="-7.5" font-family="Helvetica,sans-Serif" font-size="10.00" fill="#000000">zrtos_mem__cmp</text>
</a>
</g>
</g>
<!-- Node18&#45;&gt;Node21 -->
<g id="edge4" class="edge">
<title>Node18&#45;&gt;Node21</title>
<path fill="none" stroke="#191970" d="M241.1388,-22.6204C249.3279,-21.3806 258.0438,-20.0611 266.6367,-18.7602"/>
<polygon fill="#191970" stroke="#191970" points="267.2652,-22.205 276.6286,-17.2475 266.2174,-15.2839 267.2652,-22.205"/>
</g>
<!-- Node20 -->
<g id="node4" class="node">
<title>Node20</title>
<g id="a_node4"><a xlink:href="types_8h.html#adbc4238237e656eb247fd49ffbfb1a6d" target="_top" xlink:title="zrtos_types__ptr_get\l_byte_distance">
<polygon fill="#ffffff" stroke="#000000" points="408,-33 408,-63 516,-63 516,-33 408,-33"/>
<text text-anchor="start" x="416" y="-51" font-family="Helvetica,sans-Serif" font-size="10.00" fill="#000000">zrtos_types__ptr_get</text>
<text text-anchor="middle" x="462" y="-40" font-family="Helvetica,sans-Serif" font-size="10.00" fill="#000000">_byte_distance</text>
</a>
</g>
</g>
<!-- Node19&#45;&gt;Node20 -->
<g id="edge3" class="edge">
<title>Node19&#45;&gt;Node20</title>
<path fill="none" stroke="#191970" d="M363.5342,-48C374.2192,-48 386.0901,-48 397.7852,-48"/>
<polygon fill="#191970" stroke="#191970" points="397.9832,-51.5001 407.9832,-48 397.9832,-44.5001 397.9832,-51.5001"/>
</g>
</g>
</svg>
