<?xml version="1.0" encoding="UTF-8" standalone="no"?>
<!DOCTYPE svg PUBLIC "-//W3C//DTD SVG 1.1//EN"
 "http://www.w3.org/Graphics/SVG/1.1/DTD/svg11.dtd">
<!-- Generated by graphviz version 10.0.1 (20240210.2158)
 -->
<!-- Title: vfs_plugin.h Pages: 1 -->
<svg width="917pt" height="364pt"
 viewBox="0.00 0.00 917.00 364.00" xmlns="http://www.w3.org/2000/svg" xmlns:xlink="http://www.w3.org/1999/xlink">
<g id="graph0" class="graph" transform="scale(1 1) rotate(0) translate(4 360)">
<title>vfs_plugin.h</title>
<!-- Node1 -->
<g id="Node000001" class="node">
<title>Node1</title>
<g id="a_Node000001"><a xlink:title=" ">
<polygon fill="#999999" stroke="#666666" points="463.12,-356 396.88,-356 396.88,-336 463.12,-336 463.12,-356"/>
<text text-anchor="middle" x="430" y="-342.5" font-family="Helvetica,sans-Serif" font-size="10.00">vfs_plugin.h</text>
</a>
</g>
</g>
<!-- Node2 -->
<g id="Node000002" class="node">
<title>Node2</title>
<g id="a_Node000002"><a xlink:href="adc_8h.html" target="_top" xlink:title=" ">
<polygon fill="white" stroke="#666666" points="144,-300 104,-300 104,-280 144,-280 144,-300"/>
<text text-anchor="middle" x="124" y="-286.5" font-family="Helvetica,sans-Serif" font-size="10.00">adc.h</text>
</a>
</g>
</g>
<!-- Node1&#45;&gt;Node2 -->
<g id="edge1_Node000001_Node000002" class="edge">
<title>Node1&#45;&gt;Node2</title>
<g id="a_edge1_Node000001_Node000002"><a xlink:title=" ">
<path fill="none" stroke="#63b8ff" d="M385.34,-339.7C330.28,-332.72 234.03,-319.06 153,-300 150.23,-299.35 147.34,-298.57 144.5,-297.75"/>
<polygon fill="#63b8ff" stroke="#63b8ff" points="384.59,-343.13 394.94,-340.9 385.46,-336.19 384.59,-343.13"/>
</a>
</g>
</g>
<!-- Node3 -->
<g id="Node000003" class="node">
<title>Node3</title>
<g id="a_Node000003"><a xlink:href="directory_8h.html" target="_top" xlink:title=" ">
<polygon fill="white" stroke="#666666" points="223.88,-300 162.12,-300 162.12,-280 223.88,-280 223.88,-300"/>
<text text-anchor="middle" x="193" y="-286.5" font-family="Helvetica,sans-Serif" font-size="10.00">directory.h</text>
</a>
</g>
</g>
<!-- Node1&#45;&gt;Node3 -->
<g id="edge2_Node000001_Node000003" class="edge">
<title>Node1&#45;&gt;Node3</title>
<g id="a_edge2_Node000001_Node000003"><a xlink:title=" ">
<path fill="none" stroke="#63b8ff" d="M385.45,-334.85C338.34,-324.12 265.24,-307.46 224.02,-298.07"/>
<polygon fill="#63b8ff" stroke="#63b8ff" points="384.54,-338.23 395.07,-337.04 386.1,-331.41 384.54,-338.23"/>
</a>
</g>
</g>
<!-- Node4 -->
<g id="Node000004" class="node">
<title>Node4</title>
<g id="a_Node000004"><a xlink:href="vfs_2module_2gpio_2gpio_8h.html" target="_top" xlink:title=" ">
<polygon fill="white" stroke="#666666" points="284.12,-300 241.88,-300 241.88,-280 284.12,-280 284.12,-300"/>
<text text-anchor="middle" x="263" y="-286.5" font-family="Helvetica,sans-Serif" font-size="10.00">gpio.h</text>
</a>
</g>
</g>
<!-- Node1&#45;&gt;Node4 -->
<g id="edge3_Node000001_Node000004" class="edge">
<title>Node1&#45;&gt;Node4</title>
<g id="a_edge3_Node000001_Node000004"><a xlink:title=" ">
<path fill="none" stroke="#63b8ff" d="M390.22,-332.14C357.12,-321.43 311.25,-306.6 284.59,-297.98"/>
<polygon fill="#63b8ff" stroke="#63b8ff" points="388.88,-335.38 399.47,-335.13 391.03,-328.72 388.88,-335.38"/>
</a>
</g>
</g>
<!-- Node6 -->
<g id="Node000006" class="node">
<title>Node6</title>
<g id="a_Node000006"><a xlink:href="null_8h.html" target="_top" xlink:title=" ">
<polygon fill="white" stroke="#666666" points="379.62,-300 340.38,-300 340.38,-280 379.62,-280 379.62,-300"/>
<text text-anchor="middle" x="360" y="-286.5" font-family="Helvetica,sans-Serif" font-size="10.00">null.h</text>
</a>
</g>
</g>
<!-- Node1&#45;&gt;Node6 -->
<g id="edge5_Node000001_Node000006" class="edge">
<title>Node1&#45;&gt;Node6</title>
<g id="a_edge5_Node000001_Node000006"><a xlink:title=" ">
<path fill="none" stroke="#63b8ff" d="M408.84,-328.68C396.8,-319.39 382.15,-308.09 372.05,-300.3"/>
<polygon fill="#63b8ff" stroke="#63b8ff" points="406.55,-331.33 416.61,-334.67 410.83,-325.79 406.55,-331.33"/>
</a>
</g>
</g>
<!-- Node9 -->
<g id="Node000009" class="node">
<title>Node9</title>
<g id="a_Node000009"><a xlink:href="random_8h.html" target="_top" xlink:title=" ">
<polygon fill="white" stroke="#666666" points="299.25,-132 242.75,-132 242.75,-112 299.25,-112 299.25,-132"/>
<text text-anchor="middle" x="271" y="-118.5" font-family="Helvetica,sans-Serif" font-size="10.00">random.h</text>
</a>
</g>
</g>
<!-- Node1&#45;&gt;Node9 -->
<g id="edge22_Node000001_Node000009" class="edge">
<title>Node1&#45;&gt;Node9</title>
<g id="a_edge22_Node000001_Node000009"><a xlink:title=" ">
<path fill="none" stroke="#63b8ff" d="M385.58,-333.5C366.54,-326.57 345.4,-315.92 331,-300 307.38,-273.9 280.69,-164.87 273.11,-132.25"/>
<polygon fill="#63b8ff" stroke="#63b8ff" points="384.46,-336.81 395.06,-336.68 386.69,-330.18 384.46,-336.81"/>
</a>
</g>
</g>
<!-- Node12 -->
<g id="Node000012" class="node">
<title>Node12</title>
<g id="a_Node000012"><a xlink:href="vfs__module_8h.html" target="_top" xlink:title=" ">
<polygon fill="white" stroke="#666666" points="455.12,-132 382.88,-132 382.88,-112 455.12,-112 455.12,-132"/>
<text text-anchor="middle" x="419" y="-118.5" font-family="Helvetica,sans-Serif" font-size="10.00">vfs_module.h</text>
</a>
</g>
</g>
<!-- Node1&#45;&gt;Node12 -->
<g id="edge33_Node000001_Node000012" class="edge">
<title>Node1&#45;&gt;Node12</title>
<g id="a_edge33_Node000001_Node000012"><a xlink:title=" ">
<path fill="none" stroke="#63b8ff" d="M451.23,-327.84C459.01,-320.23 466.9,-310.6 471,-300 474.21,-291.71 472.42,-288.78 471,-280 461.63,-221.89 433.92,-156.17 423.25,-132.29"/>
<polygon fill="#63b8ff" stroke="#63b8ff" points="448.93,-325.21 443.84,-334.51 453.61,-330.41 448.93,-325.21"/>
</a>
</g>
</g>
<!-- Node17 -->
<g id="Node000017" class="node">
<title>Node17</title>
<g id="a_Node000017"><a xlink:href="avr_2spi_2spi_8h.html" target="_top" xlink:title=" ">
<polygon fill="white" stroke="#666666" points="486.5,-20 449.5,-20 449.5,0 486.5,0 486.5,-20"/>
<text text-anchor="middle" x="468" y="-6.5" font-family="Helvetica,sans-Serif" font-size="10.00">spi.h</text>
</a>
</g>
</g>
<!-- Node1&#45;&gt;Node17 -->
<g id="edge24_Node000001_Node000017" class="edge">
<title>Node1&#45;&gt;Node17</title>
<g id="a_edge24_Node000001_Node000017"><a xlink:title=" ">
<path fill="none" stroke="#63b8ff" d="M454.97,-329.24C465.67,-321.49 477.61,-311.37 486,-300 549.63,-213.82 554.86,-181.22 575,-76 576.67,-67.27 579.92,-63.4 575,-56 555.26,-26.29 511.67,-16.15 486.64,-12.72"/>
<polygon fill="#63b8ff" stroke="#63b8ff" points="453.14,-326.25 446.88,-334.8 457.11,-332.02 453.14,-326.25"/>
</a>
</g>
</g>
<!-- Node21 -->
<g id="Node000021" class="node">
<title>Node21</title>
<g id="a_Node000021"><a xlink:href="vfs_2module_2avr_2progmem_8h.html" target="_top" xlink:title=" ">
<polygon fill="white" stroke="#666666" points="639.38,-300 574.62,-300 574.62,-280 639.38,-280 639.38,-300"/>
<text text-anchor="middle" x="607" y="-286.5" font-family="Helvetica,sans-Serif" font-size="10.00">progmem.h</text>
</a>
</g>
</g>
<!-- Node1&#45;&gt;Node21 -->
<g id="edge21_Node000001_Node000021" class="edge">
<title>Node1&#45;&gt;Node21</title>
<g id="a_edge21_Node000001_Node000021"><a xlink:title=" ">
<path fill="none" stroke="#63b8ff" d="M471.61,-332.31C503.56,-322.56 546.96,-309.32 575.93,-300.48"/>
<polygon fill="#63b8ff" stroke="#63b8ff" points="470.82,-328.89 462.28,-335.15 472.86,-335.58 470.82,-328.89"/>
</a>
</g>
</g>
<!-- Node22 -->
<g id="Node000022" class="node">
<title>Node22</title>
<g id="a_Node000022"><a xlink:href="rtu_8h.html" target="_top" xlink:title=" ">
<polygon fill="white" stroke="#666666" points="652.75,-244 617.25,-244 617.25,-224 652.75,-224 652.75,-244"/>
<text text-anchor="middle" x="635" y="-230.5" font-family="Helvetica,sans-Serif" font-size="10.00">rtu.h</text>
</a>
</g>
</g>
<!-- Node1&#45;&gt;Node22 -->
<g id="edge23_Node000001_Node000022" class="edge">
<title>Node1&#45;&gt;Node22</title>
<g id="a_edge23_Node000001_Node000022"><a xlink:title=" ">
<path fill="none" stroke="#63b8ff" d="M474.84,-342.24C532.17,-337.67 626.59,-326.28 648,-300 661.23,-283.76 649.08,-257.76 640.95,-244.08"/>
<polygon fill="#63b8ff" stroke="#63b8ff" points="474.78,-338.74 465.07,-342.98 475.3,-345.72 474.78,-338.74"/>
</a>
</g>
</g>
<!-- Node23 -->
<g id="Node000023" class="node">
<title>Node23</title>
<g id="a_Node000023"><a xlink:href="uart_2uart_8h.html" target="_top" xlink:title=" ">
<polygon fill="white" stroke="#666666" points="757.38,-300 716.62,-300 716.62,-280 757.38,-280 757.38,-300"/>
<text text-anchor="middle" x="737" y="-286.5" font-family="Helvetica,sans-Serif" font-size="10.00">uart.h</text>
</a>
</g>
</g>
<!-- Node1&#45;&gt;Node23 -->
<g id="edge25_Node000001_Node000023" class="edge">
<title>Node1&#45;&gt;Node23</title>
<g id="a_edge25_Node000001_Node000023"><a xlink:title=" ">
<path fill="none" stroke="#63b8ff" d="M474.52,-337.17C541.9,-325.32 667.1,-303.3 716.34,-294.63"/>
<polygon fill="#63b8ff" stroke="#63b8ff" points="474.17,-333.68 464.93,-338.86 475.38,-340.57 474.17,-333.68"/>
</a>
</g>
</g>
<!-- Node28 -->
<g id="Node000028" class="node">
<title>Node28</title>
<g id="a_Node000028"><a xlink:href="vfs__inode_8h.html" target="_top" xlink:title=" ">
<polygon fill="white" stroke="#666666" points="462,-300 398,-300 398,-280 462,-280 462,-300"/>
<text text-anchor="middle" x="430" y="-286.5" font-family="Helvetica,sans-Serif" font-size="10.00">vfs_inode.h</text>
</a>
</g>
</g>
<!-- Node1&#45;&gt;Node28 -->
<g id="edge31_Node000001_Node000028" class="edge">
<title>Node1&#45;&gt;Node28</title>
<g id="a_edge31_Node000001_Node000028"><a xlink:title=" ">
<path fill="none" stroke="#63b8ff" d="M430,-324.13C430,-315.9 430,-306.85 430,-300.3"/>
<polygon fill="#63b8ff" stroke="#63b8ff" points="426.5,-324.08 430,-334.08 433.5,-324.08 426.5,-324.08"/>
</a>
</g>
</g>
<!-- Node5 -->
<g id="Node000005" class="node">
<title>Node5</title>
<g id="a_Node000005"><a xlink:href="vfs_2module_2arduino_2gpio_8h.html" target="_top" xlink:title=" ">
<polygon fill="white" stroke="#666666" points="284.12,-244 241.88,-244 241.88,-224 284.12,-224 284.12,-244"/>
<text text-anchor="middle" x="263" y="-230.5" font-family="Helvetica,sans-Serif" font-size="10.00">gpio.h</text>
</a>
</g>
</g>
<!-- Node4&#45;&gt;Node5 -->
<g id="edge4_Node000004_Node000005" class="edge">
<title>Node4&#45;&gt;Node5</title>
<g id="a_edge4_Node000004_Node000005"><a xlink:title=" ">
<path fill="none" stroke="#63b8ff" d="M263,-268.13C263,-259.9 263,-250.85 263,-244.3"/>
<polygon fill="#63b8ff" stroke="#63b8ff" points="259.5,-268.08 263,-278.08 266.5,-268.08 259.5,-268.08"/>
</a>
</g>
</g>
<!-- Node7 -->
<g id="Node000007" class="node">
<title>Node7</title>
<g id="a_Node000007"><a xlink:href="vfs__dentry_8h.html" target="_top" xlink:title=" ">
<polygon fill="white" stroke="#666666" points="430.88,-244 363.12,-244 363.12,-224 430.88,-224 430.88,-244"/>
<text text-anchor="middle" x="397" y="-230.5" font-family="Helvetica,sans-Serif" font-size="10.00">vfs_dentry.h</text>
</a>
</g>
</g>
<!-- Node6&#45;&gt;Node7 -->
<g id="edge6_Node000006_Node000007" class="edge">
<title>Node6&#45;&gt;Node7</title>
<g id="a_edge6_Node000006_Node000007"><a xlink:title=" ">
<path fill="none" stroke="#63b8ff" d="M372.91,-270.15C378.91,-261.4 385.77,-251.39 390.63,-244.3"/>
<polygon fill="#63b8ff" stroke="#63b8ff" points="370.07,-268.12 367.3,-278.35 375.84,-272.07 370.07,-268.12"/>
</a>
</g>
</g>
<!-- Node8 -->
<g id="Node000008" class="node">
<title>Node8</title>
<g id="a_Node000008"><a xlink:href="vfs__file_8h.html" target="_top" xlink:title=" ">
<polygon fill="white" stroke="#666666" points="392.38,-188 339.62,-188 339.62,-168 392.38,-168 392.38,-188"/>
<text text-anchor="middle" x="366" y="-174.5" font-family="Helvetica,sans-Serif" font-size="10.00">vfs_file.h</text>
</a>
</g>
</g>
<!-- Node7&#45;&gt;Node8 -->
<g id="edge7_Node000007_Node000008" class="edge">
<title>Node7&#45;&gt;Node8</title>
<g id="a_edge7_Node000007_Node000008"><a xlink:title=" ">
<path fill="none" stroke="#63b8ff" d="M386.02,-213.87C381.03,-205.19 375.37,-195.32 371.34,-188.3"/>
<polygon fill="#63b8ff" stroke="#63b8ff" points="382.83,-215.35 390.85,-222.28 388.9,-211.87 382.83,-215.35"/>
</a>
</g>
</g>
<!-- Node7&#45;&gt;Node12 -->
<g id="edge20_Node000007_Node000012" class="edge">
<title>Node7&#45;&gt;Node12</title>
<g id="a_edge20_Node000007_Node000012"><a xlink:title=" ">
<path fill="none" stroke="#63b8ff" d="M401.07,-212.64C405.86,-188.72 413.59,-150.03 417.13,-132.35"/>
<polygon fill="#63b8ff" stroke="#63b8ff" points="397.7,-211.65 399.17,-222.14 404.57,-213.02 397.7,-211.65"/>
</a>
</g>
</g>
<!-- Node8&#45;&gt;Node9 -->
<g id="edge8_Node000008_Node000009" class="edge">
<title>Node8&#45;&gt;Node9</title>
<g id="a_edge8_Node000008_Node000009"><a xlink:title=" ">
<path fill="none" stroke="#63b8ff" d="M339.75,-162.08C323.1,-152.62 302.07,-140.66 287.68,-132.48"/>
<polygon fill="#63b8ff" stroke="#63b8ff" points="337.71,-164.95 348.14,-166.85 341.17,-158.86 337.71,-164.95"/>
</a>
</g>
</g>
<!-- Node10 -->
<g id="Node000010" class="node">
<title>Node10</title>
<g id="a_Node000010"><a xlink:href="vfs__fd_8h.html" target="_top" xlink:title=" ">
<polygon fill="white" stroke="#666666" points="365.12,-132 316.88,-132 316.88,-112 365.12,-112 365.12,-132"/>
<text text-anchor="middle" x="341" y="-118.5" font-family="Helvetica,sans-Serif" font-size="10.00">vfs_fd.h</text>
</a>
</g>
</g>
<!-- Node8&#45;&gt;Node10 -->
<g id="edge9_Node000008_Node000010" class="edge">
<title>Node8&#45;&gt;Node10</title>
<g id="a_edge9_Node000008_Node000010"><a xlink:title=" ">
<path fill="none" stroke="#63b8ff" d="M356.88,-157.29C352.92,-148.75 348.48,-139.16 345.3,-132.3"/>
<polygon fill="#63b8ff" stroke="#63b8ff" points="353.63,-158.62 361.01,-166.22 359.98,-155.68 353.63,-158.62"/>
</a>
</g>
</g>
<!-- Node8&#45;&gt;Node12 -->
<g id="edge11_Node000008_Node000012" class="edge">
<title>Node8&#45;&gt;Node12</title>
<g id="a_edge11_Node000008_Node000012"><a xlink:title=" ">
<path fill="none" stroke="#63b8ff" d="M383.11,-159.57C392.01,-150.5 402.53,-139.78 409.87,-132.3"/>
<polygon fill="#63b8ff" stroke="#63b8ff" points="380.8,-156.93 376.29,-166.51 385.79,-161.83 380.8,-156.93"/>
</a>
</g>
</g>
<!-- Node11 -->
<g id="Node000011" class="node">
<title>Node11</title>
<g id="a_Node000011"><a xlink:href="vfs__notify_8h.html" target="_top" xlink:title=" ">
<polygon fill="white" stroke="#666666" points="64,-76 0,-76 0,-56 64,-56 64,-76"/>
<text text-anchor="middle" x="32" y="-62.5" font-family="Helvetica,sans-Serif" font-size="10.00">vfs_notify.h</text>
</a>
</g>
</g>
<!-- Node10&#45;&gt;Node11 -->
<g id="edge10_Node000010_Node000011" class="edge">
<title>Node10&#45;&gt;Node11</title>
<g id="a_edge10_Node000010_Node000011"><a xlink:title=" ">
<path fill="none" stroke="#63b8ff" d="M305.38,-111.65C202.65,-90.4 173.33,-94.68 73,-76 70.13,-75.47 67.16,-74.88 64.19,-74.27"/>
<polygon fill="#63b8ff" stroke="#63b8ff" points="304.58,-115.06 315.09,-113.69 306.02,-108.21 304.58,-115.06"/>
</a>
</g>
</g>
<!-- Node13 -->
<g id="Node000013" class="node">
<title>Node13</title>
<g id="a_Node000013"><a xlink:href="max7219_8h.html" target="_top" xlink:title=" ">
<polygon fill="white" stroke="#666666" points="146,-76 82,-76 82,-56 146,-56 146,-76"/>
<text text-anchor="middle" x="114" y="-62.5" font-family="Helvetica,sans-Serif" font-size="10.00">max7219.h</text>
</a>
</g>
</g>
<!-- Node12&#45;&gt;Node13 -->
<g id="edge12_Node000012_Node000013" class="edge">
<title>Node12&#45;&gt;Node13</title>
<g id="a_edge12_Node000012_Node000013"><a xlink:title=" ">
<path fill="none" stroke="#63b8ff" d="M371.52,-111.61C275.05,-94.32 248.37,-93.91 155,-76 152.14,-75.45 149.17,-74.85 146.2,-74.24"/>
<polygon fill="#63b8ff" stroke="#63b8ff" points="370.72,-115.02 381.18,-113.35 371.96,-108.13 370.72,-115.02"/>
</a>
</g>
</g>
<!-- Node14 -->
<g id="Node000014" class="node">
<title>Node14</title>
<g id="a_Node000014"><a xlink:href="mcp2515_8h.html" target="_top" xlink:title=" ">
<polygon fill="white" stroke="#666666" points="228,-76 164,-76 164,-56 228,-56 228,-76"/>
<text text-anchor="middle" x="196" y="-62.5" font-family="Helvetica,sans-Serif" font-size="10.00">mcp2515.h</text>
</a>
</g>
</g>
<!-- Node12&#45;&gt;Node14 -->
<g id="edge13_Node000012_Node000014" class="edge">
<title>Node12&#45;&gt;Node14</title>
<g id="a_edge13_Node000012_Node000014"><a xlink:title=" ">
<path fill="none" stroke="#63b8ff" d="M371.61,-109.52C328.48,-99.08 265.96,-83.94 228.32,-74.83"/>
<polygon fill="#63b8ff" stroke="#63b8ff" points="370.66,-112.9 381.2,-111.85 372.31,-106.09 370.66,-112.9"/>
</a>
</g>
</g>
<!-- Node15 -->
<g id="Node000015" class="node">
<title>Node15</title>
<g id="a_Node000015"><a xlink:href="sdm630_8h.html" target="_top" xlink:title=" ">
<polygon fill="white" stroke="#666666" points="304.38,-76 245.62,-76 245.62,-56 304.38,-56 304.38,-76"/>
<text text-anchor="middle" x="275" y="-62.5" font-family="Helvetica,sans-Serif" font-size="10.00">sdm630.h</text>
</a>
</g>
</g>
<!-- Node12&#45;&gt;Node15 -->
<g id="edge14_Node000012_Node000015" class="edge">
<title>Node12&#45;&gt;Node15</title>
<g id="a_edge14_Node000012_Node000015"><a xlink:title=" ">
<path fill="none" stroke="#63b8ff" d="M383.43,-107.66C357.62,-97.98 323.33,-85.12 300.28,-76.48"/>
<polygon fill="#63b8ff" stroke="#63b8ff" points="381.91,-110.83 392.5,-111.06 384.37,-104.27 381.91,-110.83"/>
</a>
</g>
</g>
<!-- Node16 -->
<g id="Node000016" class="node">
<title>Node16</title>
<g id="a_Node000016"><a xlink:href="spi_2spi_8h.html" target="_top" xlink:title=" ">
<polygon fill="white" stroke="#666666" points="359.5,-76 322.5,-76 322.5,-56 359.5,-56 359.5,-76"/>
<text text-anchor="middle" x="341" y="-62.5" font-family="Helvetica,sans-Serif" font-size="10.00">spi.h</text>
</a>
</g>
</g>
<!-- Node12&#45;&gt;Node16 -->
<g id="edge15_Node000012_Node000016" class="edge">
<title>Node12&#45;&gt;Node16</title>
<g id="a_edge15_Node000012_Node000016"><a xlink:title=" ">
<path fill="none" stroke="#63b8ff" d="M396.28,-105.27C382.81,-95.94 366.17,-84.43 354.69,-76.48"/>
<polygon fill="#63b8ff" stroke="#63b8ff" points="393.95,-107.92 404.17,-110.73 397.94,-102.16 393.95,-107.92"/>
</a>
</g>
</g>
<!-- Node18 -->
<g id="Node000018" class="node">
<title>Node18</title>
<g id="a_Node000018"><a xlink:href="spi__sync_8h.html" target="_top" xlink:title=" ">
<polygon fill="white" stroke="#666666" points="440.62,-76 377.38,-76 377.38,-56 440.62,-56 440.62,-76"/>
<text text-anchor="middle" x="409" y="-62.5" font-family="Helvetica,sans-Serif" font-size="10.00">spi_sync.h</text>
</a>
</g>
</g>
<!-- Node12&#45;&gt;Node18 -->
<g id="edge17_Node000012_Node000018" class="edge">
<title>Node12&#45;&gt;Node18</title>
<g id="a_edge17_Node000012_Node000018"><a xlink:title=" ">
<path fill="none" stroke="#63b8ff" d="M415.19,-100.43C413.65,-92.11 411.95,-82.93 410.72,-76.3"/>
<polygon fill="#63b8ff" stroke="#63b8ff" points="411.72,-100.91 416.98,-110.11 418.6,-99.64 411.72,-100.91"/>
</a>
</g>
</g>
<!-- Node19 -->
<g id="Node000019" class="node">
<title>Node19</title>
<g id="a_Node000019"><a xlink:href="sram_8h.html" target="_top" xlink:title=" ">
<polygon fill="white" stroke="#666666" points="505,-76 459,-76 459,-56 505,-56 505,-76"/>
<text text-anchor="middle" x="482" y="-62.5" font-family="Helvetica,sans-Serif" font-size="10.00">sram.h</text>
</a>
</g>
</g>
<!-- Node12&#45;&gt;Node19 -->
<g id="edge18_Node000012_Node000019" class="edge">
<title>Node12&#45;&gt;Node19</title>
<g id="a_edge18_Node000012_Node000019"><a xlink:title=" ">
<path fill="none" stroke="#63b8ff" d="M438.69,-104.13C449.4,-94.94 462.25,-83.93 471.15,-76.3"/>
<polygon fill="#63b8ff" stroke="#63b8ff" points="436.44,-101.44 431.12,-110.61 440.99,-106.76 436.44,-101.44"/>
</a>
</g>
</g>
<!-- Node20 -->
<g id="Node000020" class="node">
<title>Node20</title>
<g id="a_Node000020"><a xlink:href="zero_8h.html" target="_top" xlink:title=" ">
<polygon fill="white" stroke="#666666" points="566.5,-76 523.5,-76 523.5,-56 566.5,-56 566.5,-76"/>
<text text-anchor="middle" x="545" y="-62.5" font-family="Helvetica,sans-Serif" font-size="10.00">zero.h</text>
</a>
</g>
</g>
<!-- Node12&#45;&gt;Node20 -->
<g id="edge19_Node000012_Node000020" class="edge">
<title>Node12&#45;&gt;Node20</title>
<g id="a_edge19_Node000012_Node000020"><a xlink:title=" ">
<path fill="none" stroke="#63b8ff" d="M451.41,-107.11C473.99,-97.43 503.51,-84.78 523.3,-76.3"/>
<polygon fill="#63b8ff" stroke="#63b8ff" points="450.15,-103.84 442.34,-111 452.91,-110.28 450.15,-103.84"/>
</a>
</g>
</g>
<!-- Node16&#45;&gt;Node17 -->
<g id="edge16_Node000016_Node000017" class="edge">
<title>Node16&#45;&gt;Node17</title>
<g id="a_edge16_Node000016_Node000017"><a xlink:title=" ">
<path fill="none" stroke="#63b8ff" d="M370.14,-52.61C394.44,-42.28 428.33,-27.87 449.18,-19"/>
<polygon fill="#63b8ff" stroke="#63b8ff" points="368.97,-49.31 361.13,-56.44 371.7,-55.75 368.97,-49.31"/>
</a>
</g>
</g>
<!-- Node23&#45;&gt;Node22 -->
<g id="edge26_Node000023_Node000022" class="edge">
<title>Node23&#45;&gt;Node22</title>
<g id="a_edge26_Node000023_Node000022"><a xlink:title=" ">
<path fill="none" stroke="#63b8ff" d="M709.07,-274.21C691.16,-264.73 668.43,-252.7 652.91,-244.48"/>
<polygon fill="#63b8ff" stroke="#63b8ff" points="707.42,-277.3 717.9,-278.89 710.7,-271.11 707.42,-277.3"/>
</a>
</g>
</g>
<!-- Node24 -->
<g id="Node000024" class="node">
<title>Node24</title>
<g id="a_Node000024"><a xlink:href="uart0_8h.html" target="_top" xlink:title=" ">
<polygon fill="white" stroke="#666666" points="717,-244 671,-244 671,-224 717,-224 717,-244"/>
<text text-anchor="middle" x="694" y="-230.5" font-family="Helvetica,sans-Serif" font-size="10.00">uart0.h</text>
</a>
</g>
</g>
<!-- Node23&#45;&gt;Node24 -->
<g id="edge27_Node000023_Node000024" class="edge">
<title>Node23&#45;&gt;Node24</title>
<g id="a_edge27_Node000023_Node000024"><a xlink:title=" ">
<path fill="none" stroke="#63b8ff" d="M722.44,-270.72C715.37,-261.84 707.18,-251.55 701.4,-244.3"/>
<polygon fill="#63b8ff" stroke="#63b8ff" points="719.6,-272.77 728.57,-278.41 725.08,-268.41 719.6,-272.77"/>
</a>
</g>
</g>
<!-- Node25 -->
<g id="Node000025" class="node">
<title>Node25</title>
<g id="a_Node000025"><a xlink:href="uart1_8h.html" target="_top" xlink:title=" ">
<polygon fill="white" stroke="#666666" points="781,-244 735,-244 735,-224 781,-224 781,-244"/>
<text text-anchor="middle" x="758" y="-230.5" font-family="Helvetica,sans-Serif" font-size="10.00">uart1.h</text>
</a>
</g>
</g>
<!-- Node23&#45;&gt;Node25 -->
<g id="edge28_Node000023_Node000025" class="edge">
<title>Node23&#45;&gt;Node25</title>
<g id="a_edge28_Node000023_Node000025"><a xlink:title=" ">
<path fill="none" stroke="#63b8ff" d="M744.78,-269C748.07,-260.54 751.75,-251.08 754.38,-244.3"/>
<polygon fill="#63b8ff" stroke="#63b8ff" points="741.57,-267.59 741.21,-278.18 748.09,-270.13 741.57,-267.59"/>
</a>
</g>
</g>
<!-- Node26 -->
<g id="Node000026" class="node">
<title>Node26</title>
<g id="a_Node000026"><a xlink:href="uart2_8h.html" target="_top" xlink:title=" ">
<polygon fill="white" stroke="#666666" points="845,-244 799,-244 799,-224 845,-224 845,-244"/>
<text text-anchor="middle" x="822" y="-230.5" font-family="Helvetica,sans-Serif" font-size="10.00">uart2.h</text>
</a>
</g>
</g>
<!-- Node23&#45;&gt;Node26 -->
<g id="edge29_Node000023_Node000026" class="edge">
<title>Node23&#45;&gt;Node26</title>
<g id="a_edge29_Node000023_Node000026"><a xlink:title=" ">
<path fill="none" stroke="#63b8ff" d="M761.33,-273.54C776.09,-264.17 794.44,-252.51 807.08,-244.48"/>
<polygon fill="#63b8ff" stroke="#63b8ff" points="759.65,-270.47 753.08,-278.78 763.4,-276.37 759.65,-270.47"/>
</a>
</g>
</g>
<!-- Node27 -->
<g id="Node000027" class="node">
<title>Node27</title>
<g id="a_Node000027"><a xlink:href="uart3_8h.html" target="_top" xlink:title=" ">
<polygon fill="white" stroke="#666666" points="909,-244 863,-244 863,-224 909,-224 909,-244"/>
<text text-anchor="middle" x="886" y="-230.5" font-family="Helvetica,sans-Serif" font-size="10.00">uart3.h</text>
</a>
</g>
</g>
<!-- Node23&#45;&gt;Node27 -->
<g id="edge30_Node000023_Node000027" class="edge">
<title>Node23&#45;&gt;Node27</title>
<g id="a_edge30_Node000023_Node000027"><a xlink:title=" ">
<path fill="none" stroke="#63b8ff" d="M768.19,-277.7C796.31,-267.5 837.06,-252.74 862.51,-243.51"/>
<polygon fill="#63b8ff" stroke="#63b8ff" points="767.35,-274.28 759.14,-280.98 769.73,-280.86 767.35,-274.28"/>
</a>
</g>
</g>
<!-- Node28&#45;&gt;Node7 -->
<g id="edge32_Node000028_Node000007" class="edge">
<title>Node28&#45;&gt;Node7</title>
<g id="a_edge32_Node000028_Node000007"><a xlink:title=" ">
<path fill="none" stroke="#63b8ff" d="M418.31,-269.87C413,-261.19 406.97,-251.32 402.68,-244.3"/>
<polygon fill="#63b8ff" stroke="#63b8ff" points="415.26,-271.59 423.46,-278.3 421.23,-267.94 415.26,-271.59"/>
</a>
</g>
</g>
</g>
</svg>
