<?xml version="1.0" encoding="UTF-8" standalone="no"?>
<!DOCTYPE svg PUBLIC "-//W3C//DTD SVG 1.1//EN"
 "http://www.w3.org/Graphics/SVG/1.1/DTD/svg11.dtd">
<!-- Generated by graphviz version 2.40.1 (20161225.0304)
 -->
<!-- Title: vheap_chunk.h Pages: 1 -->
<svg width="282pt" height="140pt"
 viewBox="0.00 0.00 282.00 140.00" xmlns="http://www.w3.org/2000/svg" xmlns:xlink="http://www.w3.org/1999/xlink">
<g id="graph0" class="graph" transform="scale(1 1) rotate(0) translate(4 136)">
<title>vheap_chunk.h</title>
<polygon fill="#ffffff" stroke="transparent" points="-4,4 -4,-136 278,-136 278,4 -4,4"/>
<!-- Node0 -->
<g id="node1" class="node">
<title>Node0</title>
<polygon fill="#bfbfbf" stroke="#000000" points="94,-112.5 94,-131.5 177,-131.5 177,-112.5 94,-112.5"/>
<text text-anchor="middle" x="135.5" y="-119.5" font-family="Helvetica,sans-Serif" font-size="10.00" fill="#000000">vheap_chunk.h</text>
</g>
<!-- Node1 -->
<g id="node2" class="node">
<title>Node1</title>
<g id="a_node2"><a xlink:href="vheap__chunk__uid_8h.html" target="_top" xlink:title="zrtos/vheap_chunk_uid.h">
<polygon fill="#ffffff" stroke="#000000" points="0,-56.5 0,-75.5 125,-75.5 125,-56.5 0,-56.5"/>
<text text-anchor="middle" x="62.5" y="-63.5" font-family="Helvetica,sans-Serif" font-size="10.00" fill="#000000">zrtos/vheap_chunk_uid.h</text>
</a>
</g>
</g>
<!-- Node0&#45;&gt;Node1 -->
<g id="edge1" class="edge">
<title>Node0&#45;&gt;Node1</title>
<path fill="none" stroke="#191970" d="M122.7844,-112.2455C111.898,-103.8943 96.0117,-91.7076 83.28,-81.9408"/>
<polygon fill="#191970" stroke="#191970" points="85.1346,-78.9523 75.0699,-75.6427 80.8739,-84.5063 85.1346,-78.9523"/>
</g>
<!-- Node2 -->
<g id="node3" class="node">
<title>Node2</title>
<g id="a_node3"><a xlink:href="vheap__chunk__type_8h.html" target="_top" xlink:title="zrtos/vheap_chunk_type.h">
<polygon fill="#ffffff" stroke="#000000" points="143,-56.5 143,-75.5 274,-75.5 274,-56.5 143,-56.5"/>
<text text-anchor="middle" x="208.5" y="-63.5" font-family="Helvetica,sans-Serif" font-size="10.00" fill="#000000">zrtos/vheap_chunk_type.h</text>
</a>
</g>
</g>
<!-- Node0&#45;&gt;Node2 -->
<g id="edge2" class="edge">
<title>Node0&#45;&gt;Node2</title>
<path fill="none" stroke="#191970" d="M148.2156,-112.2455C159.102,-103.8943 174.9883,-91.7076 187.72,-81.9408"/>
<polygon fill="#191970" stroke="#191970" points="190.1261,-84.5063 195.9301,-75.6427 185.8654,-78.9523 190.1261,-84.5063"/>
</g>
<!-- Node3 -->
<g id="node4" class="node">
<title>Node3</title>
<g id="a_node4"><a xlink:href="vheap__type_8h.html" target="_top" xlink:title="zrtos/vheap_type.h">
<polygon fill="#ffffff" stroke="#000000" points="158.5,-.5 158.5,-19.5 258.5,-19.5 258.5,-.5 158.5,-.5"/>
<text text-anchor="middle" x="208.5" y="-7.5" font-family="Helvetica,sans-Serif" font-size="10.00" fill="#000000">zrtos/vheap_type.h</text>
</a>
</g>
</g>
<!-- Node2&#45;&gt;Node3 -->
<g id="edge3" class="edge">
<title>Node2&#45;&gt;Node3</title>
<path fill="none" stroke="#191970" d="M208.5,-56.2455C208.5,-48.9382 208.5,-38.6944 208.5,-29.7046"/>
<polygon fill="#191970" stroke="#191970" points="212.0001,-29.6426 208.5,-19.6427 205.0001,-29.6427 212.0001,-29.6426"/>
</g>
</g>
</svg>
