<?xml version="1.0" encoding="UTF-8" standalone="no"?>
<!DOCTYPE svg PUBLIC "-//W3C//DTD SVG 1.1//EN"
 "http://www.w3.org/Graphics/SVG/1.1/DTD/svg11.dtd">
<!-- Generated by graphviz version 2.40.1 (20161225.0304)
 -->
<!-- Title: zrtos_vheap_task_scheduler__start Pages: 1 -->
<svg width="1147pt" height="444pt"
 viewBox="0.00 0.00 1147.00 444.00" xmlns="http://www.w3.org/2000/svg" xmlns:xlink="http://www.w3.org/1999/xlink">
<g id="graph0" class="graph" transform="scale(1 1) rotate(0) translate(4 440)">
<title>zrtos_vheap_task_scheduler__start</title>
<polygon fill="#ffffff" stroke="transparent" points="-4,4 -4,-440 1143,-440 1143,4 -4,4"/>
<!-- Node260 -->
<g id="node1" class="node">
<title>Node260</title>
<polygon fill="#bfbfbf" stroke="#000000" points="0,-71.5 0,-101.5 141,-101.5 141,-71.5 0,-71.5"/>
<text text-anchor="start" x="8" y="-89.5" font-family="Helvetica,sans-Serif" font-size="10.00" fill="#000000">zrtos_vheap_task_scheduler</text>
<text text-anchor="middle" x="70.5" y="-78.5" font-family="Helvetica,sans-Serif" font-size="10.00" fill="#000000">__start</text>
</g>
<!-- Node261 -->
<g id="node2" class="node">
<title>Node261</title>
<g id="a_node2"><a xlink:href="vheap__task__scheduler_8h.html#a2205b06b30712719cfe0f785f5898425" target="_top" xlink:title="zrtos_vheap_task_scheduler\l__get_heap">
<polygon fill="#ffffff" stroke="#000000" points="541,-93.5 541,-123.5 682,-123.5 682,-93.5 541,-93.5"/>
<text text-anchor="start" x="549" y="-111.5" font-family="Helvetica,sans-Serif" font-size="10.00" fill="#000000">zrtos_vheap_task_scheduler</text>
<text text-anchor="middle" x="611.5" y="-100.5" font-family="Helvetica,sans-Serif" font-size="10.00" fill="#000000">__get_heap</text>
</a>
</g>
</g>
<!-- Node260&#45;&gt;Node261 -->
<g id="edge1" class="edge">
<title>Node260&#45;&gt;Node261</title>
<path fill="none" stroke="#191970" d="M141.2263,-89.3761C241.5672,-93.4565 424.7711,-100.9066 530.4617,-105.2045"/>
<polygon fill="#191970" stroke="#191970" points="530.6224,-108.7139 540.7563,-105.6232 530.9068,-101.7197 530.6224,-108.7139"/>
</g>
<!-- Node262 -->
<g id="node3" class="node">
<title>Node262</title>
<g id="a_node3"><a xlink:href="vheap_8h.html#a324d34b06d29c4d590434ad465ca1271" target="_top" xlink:title="zrtos_vheap__get_by\l_type_ex">
<polygon fill="#ffffff" stroke="#000000" points="195,-49.5 195,-79.5 305,-79.5 305,-49.5 195,-49.5"/>
<text text-anchor="start" x="203" y="-67.5" font-family="Helvetica,sans-Serif" font-size="10.00" fill="#000000">zrtos_vheap__get_by</text>
<text text-anchor="middle" x="250" y="-56.5" font-family="Helvetica,sans-Serif" font-size="10.00" fill="#000000">_type_ex</text>
</a>
</g>
</g>
<!-- Node260&#45;&gt;Node262 -->
<g id="edge2" class="edge">
<title>Node260&#45;&gt;Node262</title>
<path fill="none" stroke="#191970" d="M141.1855,-77.8366C155.5536,-76.0756 170.6051,-74.2308 184.7735,-72.4943"/>
<polygon fill="#191970" stroke="#191970" points="185.4119,-75.9424 194.9118,-71.2518 184.5602,-68.9944 185.4119,-75.9424"/>
</g>
<!-- Node265 -->
<g id="node6" class="node">
<title>Node265</title>
<g id="a_node6"><a xlink:href="vheap__task__scheduler_8h.html#ac3ceec0a4016b00c1670ddce858c6bac" target="_top" xlink:title="zrtos_vheap_task_scheduler\l__page_task_in">
<polygon fill="#ffffff" stroke="#000000" points="179.5,-221.5 179.5,-251.5 320.5,-251.5 320.5,-221.5 179.5,-221.5"/>
<text text-anchor="start" x="187.5" y="-239.5" font-family="Helvetica,sans-Serif" font-size="10.00" fill="#000000">zrtos_vheap_task_scheduler</text>
<text text-anchor="middle" x="250" y="-228.5" font-family="Helvetica,sans-Serif" font-size="10.00" fill="#000000">__page_task_in</text>
</a>
</g>
</g>
<!-- Node260&#45;&gt;Node265 -->
<g id="edge5" class="edge">
<title>Node260&#45;&gt;Node265</title>
<path fill="none" stroke="#191970" d="M88.6992,-101.7083C120.7669,-128.5058 187.4171,-184.2023 224.2114,-214.9496"/>
<polygon fill="#191970" stroke="#191970" points="222.1017,-217.7478 232.0195,-221.4745 226.5903,-212.3764 222.1017,-217.7478"/>
</g>
<!-- Node281 -->
<g id="node22" class="node">
<title>Node281</title>
<g id="a_node22"><a xlink:href="vheap__task__scheduler_8h.html#a393742fc3d9f5e784e97f4915c6b557d" target="_top" xlink:title="_zrtos_vheap_task_scheduler\l__restore_task">
<polygon fill="#ffffff" stroke="#000000" points="177,-.5 177,-30.5 323,-30.5 323,-.5 177,-.5"/>
<text text-anchor="start" x="185" y="-18.5" font-family="Helvetica,sans-Serif" font-size="10.00" fill="#000000">_zrtos_vheap_task_scheduler</text>
<text text-anchor="middle" x="250" y="-7.5" font-family="Helvetica,sans-Serif" font-size="10.00" fill="#000000">__restore_task</text>
</a>
</g>
</g>
<!-- Node260&#45;&gt;Node281 -->
<g id="edge25" class="edge">
<title>Node260&#45;&gt;Node281</title>
<path fill="none" stroke="#191970" d="M102.3156,-71.4806C123.3058,-61.8156 151.5296,-49.2802 177,-39.5 181.8572,-37.6349 186.9287,-35.7811 192.0365,-33.9784"/>
<polygon fill="#191970" stroke="#191970" points="193.5483,-37.1591 201.857,-30.5852 191.2622,-30.5429 193.5483,-37.1591"/>
</g>
<!-- Node263 -->
<g id="node4" class="node">
<title>Node263</title>
<g id="a_node4"><a xlink:href="vheap__chunk__type_8h.html#a3ba86ab73e8b4b86da90ba791d52bf27" target="_top" xlink:title="zrtos_vheap_chunk_type\l__init">
<polygon fill="#ffffff" stroke="#000000" points="369.5,-49.5 369.5,-79.5 494.5,-79.5 494.5,-49.5 369.5,-49.5"/>
<text text-anchor="start" x="377.5" y="-67.5" font-family="Helvetica,sans-Serif" font-size="10.00" fill="#000000">zrtos_vheap_chunk_type</text>
<text text-anchor="middle" x="432" y="-56.5" font-family="Helvetica,sans-Serif" font-size="10.00" fill="#000000">__init</text>
</a>
</g>
</g>
<!-- Node262&#45;&gt;Node263 -->
<g id="edge3" class="edge">
<title>Node262&#45;&gt;Node263</title>
<path fill="none" stroke="#191970" d="M305.0999,-64.5C322.1462,-64.5 341.1941,-64.5 359.2434,-64.5"/>
<polygon fill="#191970" stroke="#191970" points="359.4396,-68.0001 369.4396,-64.5 359.4395,-61.0001 359.4396,-68.0001"/>
</g>
<!-- Node264 -->
<g id="node5" class="node">
<title>Node264</title>
<g id="a_node5"><a xlink:href="vheap_8h.html#aeee007ca1180d2a9b9f5659603fe6044" target="_top" xlink:title="zrtos_vheap__get_by_type">
<polygon fill="#ffffff" stroke="#000000" points="365,-11 365,-30 499,-30 499,-11 365,-11"/>
<text text-anchor="middle" x="432" y="-18" font-family="Helvetica,sans-Serif" font-size="10.00" fill="#000000">zrtos_vheap__get_by_type</text>
</a>
</g>
</g>
<!-- Node262&#45;&gt;Node264 -->
<g id="edge4" class="edge">
<title>Node262&#45;&gt;Node264</title>
<path fill="none" stroke="#191970" d="M305.0999,-51.1791C329.8172,-45.2035 358.7429,-38.2105 382.7306,-32.4113"/>
<polygon fill="#191970" stroke="#191970" points="383.7846,-35.7574 392.6821,-30.0054 382.1396,-28.9534 383.7846,-35.7574"/>
</g>
<!-- Node265&#45;&gt;Node261 -->
<g id="edge6" class="edge">
<title>Node265&#45;&gt;Node261</title>
<path fill="none" stroke="#191970" d="M268.9424,-221.4193C289.8319,-205.5107 325.0043,-180.8063 359,-166.5 414.1897,-143.2747 480.2611,-128.5203 530.9724,-119.7072"/>
<polygon fill="#191970" stroke="#191970" points="531.6282,-123.1461 540.9021,-118.0231 530.4576,-116.2446 531.6282,-123.1461"/>
</g>
<!-- Node266 -->
<g id="node7" class="node">
<title>Node266</title>
<g id="a_node7"><a xlink:href="vheap_8h.html#a3bce66e6371563f486d49abcf3c45a25" target="_top" xlink:title="zrtos_vheap__page_in">
<polygon fill="#ffffff" stroke="#000000" points="375,-251 375,-270 489,-270 489,-251 375,-251"/>
<text text-anchor="middle" x="432" y="-258" font-family="Helvetica,sans-Serif" font-size="10.00" fill="#000000">zrtos_vheap__page_in</text>
</a>
</g>
</g>
<!-- Node265&#45;&gt;Node266 -->
<g id="edge7" class="edge">
<title>Node265&#45;&gt;Node266</title>
<path fill="none" stroke="#191970" d="M320.6264,-245.8134C335.0992,-247.7219 350.2967,-249.7259 364.6506,-251.6188"/>
<polygon fill="#191970" stroke="#191970" points="364.5592,-255.1369 374.931,-252.9744 365.4744,-248.197 364.5592,-255.1369"/>
</g>
<!-- Node276 -->
<g id="node17" class="node">
<title>Node276</title>
<g id="a_node17"><a xlink:href="vheap__task__scheduler_8h.html#a5bfb3d2b504f0179293fe98c19fbcb57" target="_top" xlink:title="_zrtos_vheap_task_scheduler\l__get_active_task">
<polygon fill="#ffffff" stroke="#000000" points="359,-175.5 359,-205.5 505,-205.5 505,-175.5 359,-175.5"/>
<text text-anchor="start" x="367" y="-193.5" font-family="Helvetica,sans-Serif" font-size="10.00" fill="#000000">_zrtos_vheap_task_scheduler</text>
<text text-anchor="middle" x="432" y="-182.5" font-family="Helvetica,sans-Serif" font-size="10.00" fill="#000000">__get_active_task</text>
</a>
</g>
</g>
<!-- Node265&#45;&gt;Node276 -->
<g id="edge18" class="edge">
<title>Node265&#45;&gt;Node276</title>
<path fill="none" stroke="#191970" d="M309.5936,-221.4379C326.4926,-217.1667 345.0385,-212.4793 362.4699,-208.0735"/>
<polygon fill="#191970" stroke="#191970" points="363.746,-211.3611 372.5835,-205.5174 362.0307,-204.5746 363.746,-211.3611"/>
</g>
<!-- Node279 -->
<g id="node20" class="node">
<title>Node279</title>
<g id="a_node20"><a xlink:href="vheap__task_8h.html#a4c7bdc8ec72e41c5edecf60880368905" target="_top" xlink:title="zrtos_vheap_task__get\l_stack_ptr">
<polygon fill="#ffffff" stroke="#000000" points="373,-338.5 373,-368.5 491,-368.5 491,-338.5 373,-338.5"/>
<text text-anchor="start" x="381" y="-356.5" font-family="Helvetica,sans-Serif" font-size="10.00" fill="#000000">zrtos_vheap_task__get</text>
<text text-anchor="middle" x="432" y="-345.5" font-family="Helvetica,sans-Serif" font-size="10.00" fill="#000000">_stack_ptr</text>
</a>
</g>
</g>
<!-- Node265&#45;&gt;Node279 -->
<g id="edge23" class="edge">
<title>Node265&#45;&gt;Node279</title>
<path fill="none" stroke="#191970" d="M264.0991,-251.7859C283.6262,-272.1373 320.8332,-308.051 359,-329.5 362.0584,-331.2188 365.2587,-332.8377 368.5396,-334.3591"/>
<polygon fill="#191970" stroke="#191970" points="367.3777,-337.6689 377.9479,-338.3906 370.1348,-331.2347 367.3777,-337.6689"/>
</g>
<!-- Node280 -->
<g id="node21" class="node">
<title>Node280</title>
<g id="a_node21"><a xlink:href="vheap__task_8h.html#a9a6382869bc3582f4c52e85d4915fea5" target="_top" xlink:title="zrtos_vheap_task__get\l_errno">
<polygon fill="#ffffff" stroke="#000000" points="373,-289.5 373,-319.5 491,-319.5 491,-289.5 373,-289.5"/>
<text text-anchor="start" x="381" y="-307.5" font-family="Helvetica,sans-Serif" font-size="10.00" fill="#000000">zrtos_vheap_task__get</text>
<text text-anchor="middle" x="432" y="-296.5" font-family="Helvetica,sans-Serif" font-size="10.00" fill="#000000">_errno</text>
</a>
</g>
</g>
<!-- Node265&#45;&gt;Node280 -->
<g id="edge24" class="edge">
<title>Node265&#45;&gt;Node280</title>
<path fill="none" stroke="#191970" d="M287.1694,-251.6513C308.1662,-260.0872 334.9471,-270.6423 359,-279.5 364.9397,-281.6874 371.1737,-283.919 377.391,-286.1039"/>
<polygon fill="#191970" stroke="#191970" points="376.5077,-289.5024 387.1025,-289.486 378.8099,-282.8918 376.5077,-289.5024"/>
</g>
<!-- Node267 -->
<g id="node8" class="node">
<title>Node267</title>
<g id="a_node8"><a xlink:href="types_8h.html#aba57d347db551b6b1bc7f791433322ad" target="_top" xlink:title="zrtos_types__ptr_add">
<polygon fill="#ffffff" stroke="#000000" points="1029,-318 1029,-337 1139,-337 1139,-318 1029,-318"/>
<text text-anchor="middle" x="1084" y="-325" font-family="Helvetica,sans-Serif" font-size="10.00" fill="#000000">zrtos_types__ptr_add</text>
</a>
</g>
</g>
<!-- Node266&#45;&gt;Node267 -->
<g id="edge8" class="edge">
<title>Node266&#45;&gt;Node267</title>
<path fill="none" stroke="#191970" d="M477.8136,-270.0787C487.0644,-272.8286 496.54,-276.2639 505,-280.5 523.1246,-289.5754 521.9453,-301.5874 541,-308.5 626.9257,-339.6717 893.9503,-334.5361 1018.6316,-330.2005"/>
<polygon fill="#191970" stroke="#191970" points="1018.9335,-333.6921 1028.8023,-329.8376 1018.6838,-326.6965 1018.9335,-333.6921"/>
</g>
<!-- Node268 -->
<g id="node9" class="node">
<title>Node268</title>
<g id="a_node9"><a xlink:href="vheap_8h.html#a53d9ca47afe3a2f353e12566c3c82a1d" target="_top" xlink:title="_zrtos_vheap__update\l_index_ptr">
<polygon fill="#ffffff" stroke="#000000" points="554,-268.5 554,-298.5 669,-298.5 669,-268.5 554,-268.5"/>
<text text-anchor="start" x="562" y="-286.5" font-family="Helvetica,sans-Serif" font-size="10.00" fill="#000000">_zrtos_vheap__update</text>
<text text-anchor="middle" x="611.5" y="-275.5" font-family="Helvetica,sans-Serif" font-size="10.00" fill="#000000">_index_ptr</text>
</a>
</g>
</g>
<!-- Node266&#45;&gt;Node268 -->
<g id="edge9" class="edge">
<title>Node266&#45;&gt;Node268</title>
<path fill="none" stroke="#191970" d="M489.2884,-267.8406C506.6084,-270.0599 525.7925,-272.518 543.7286,-274.8162"/>
<polygon fill="#191970" stroke="#191970" points="543.4683,-278.3114 553.8321,-276.1108 544.358,-271.3681 543.4683,-278.3114"/>
</g>
<!-- Node269 -->
<g id="node10" class="node">
<title>Node269</title>
<g id="a_node10"><a xlink:href="vheap_8h.html#a58db7c5ad7c8ab1f99167871437f5d31" target="_top" xlink:title="_zrtos_vheap__swap\l_to_heap_end">
<polygon fill="#ffffff" stroke="#000000" points="557,-356.5 557,-386.5 666,-386.5 666,-356.5 557,-356.5"/>
<text text-anchor="start" x="565" y="-374.5" font-family="Helvetica,sans-Serif" font-size="10.00" fill="#000000">_zrtos_vheap__swap</text>
<text text-anchor="middle" x="611.5" y="-363.5" font-family="Helvetica,sans-Serif" font-size="10.00" fill="#000000">_to_heap_end</text>
</a>
</g>
</g>
<!-- Node266&#45;&gt;Node269 -->
<g id="edge10" class="edge">
<title>Node266&#45;&gt;Node269</title>
<path fill="none" stroke="#191970" d="M485.719,-270.0112C492.6129,-272.6857 499.2575,-276.1116 505,-280.5 530.0128,-299.6147 517.3325,-320.7428 541,-341.5 545.3564,-345.3207 550.2717,-348.7099 555.4294,-351.7036"/>
<polygon fill="#191970" stroke="#191970" points="553.8048,-354.8037 564.2825,-356.375 557.0716,-348.6127 553.8048,-354.8037"/>
</g>
<!-- Node274 -->
<g id="node15" class="node">
<title>Node274</title>
<g id="a_node15"><a xlink:href="types_8h.html#adbc4238237e656eb247fd49ffbfb1a6d" target="_top" xlink:title="zrtos_types__ptr_get\l_byte_distance">
<polygon fill="#ffffff" stroke="#000000" points="557.5,-219.5 557.5,-249.5 665.5,-249.5 665.5,-219.5 557.5,-219.5"/>
<text text-anchor="start" x="565.5" y="-237.5" font-family="Helvetica,sans-Serif" font-size="10.00" fill="#000000">zrtos_types__ptr_get</text>
<text text-anchor="middle" x="611.5" y="-226.5" font-family="Helvetica,sans-Serif" font-size="10.00" fill="#000000">_byte_distance</text>
</a>
</g>
</g>
<!-- Node266&#45;&gt;Node274 -->
<g id="edge16" class="edge">
<title>Node266&#45;&gt;Node274</title>
<path fill="none" stroke="#191970" d="M489.2884,-252.202C507.7262,-249.5313 528.2764,-246.5547 547.1849,-243.8158"/>
<polygon fill="#191970" stroke="#191970" points="547.8039,-247.2628 557.1989,-242.3653 546.8004,-240.3351 547.8039,-247.2628"/>
</g>
<!-- Node275 -->
<g id="node16" class="node">
<title>Node275</title>
<g id="a_node16"><a xlink:href="vheap__chunk_8h.html#a50f3da740523a69829e865dcaa7d77ad" target="_top" xlink:title="zrtos_vheap_chunk_\l_set_type">
<polygon fill="#ffffff" stroke="#000000" points="558,-405.5 558,-435.5 665,-435.5 665,-405.5 558,-405.5"/>
<text text-anchor="start" x="566" y="-423.5" font-family="Helvetica,sans-Serif" font-size="10.00" fill="#000000">zrtos_vheap_chunk_</text>
<text text-anchor="middle" x="611.5" y="-412.5" font-family="Helvetica,sans-Serif" font-size="10.00" fill="#000000">_set_type</text>
</a>
</g>
</g>
<!-- Node266&#45;&gt;Node275 -->
<g id="edge17" class="edge">
<title>Node266&#45;&gt;Node275</title>
<path fill="none" stroke="#191970" d="M489.2834,-269.9705C495.0655,-272.6717 500.4658,-276.1153 505,-280.5 543.8047,-318.0256 503.3521,-357.8139 541,-396.5 543.4642,-399.0322 546.2058,-401.2973 549.1373,-403.3234"/>
<polygon fill="#191970" stroke="#191970" points="547.4334,-406.3816 557.8295,-408.4241 550.9762,-400.3443 547.4334,-406.3816"/>
</g>
<!-- Node270 -->
<g id="node11" class="node">
<title>Node270</title>
<g id="a_node11"><a xlink:href="mem_8h.html#a2e3d82e56bdea756a305d5ced180ca57" target="_top" xlink:title="zrtos_mem__left_rotate">
<polygon fill="#ffffff" stroke="#000000" points="720.5,-406 720.5,-425 839.5,-425 839.5,-406 720.5,-406"/>
<text text-anchor="middle" x="780" y="-413" font-family="Helvetica,sans-Serif" font-size="10.00" fill="#000000">zrtos_mem__left_rotate</text>
</a>
</g>
</g>
<!-- Node269&#45;&gt;Node270 -->
<g id="edge11" class="edge">
<title>Node269&#45;&gt;Node270</title>
<path fill="none" stroke="#191970" d="M666.2071,-385.7855C687.9262,-391.457 712.6445,-397.9116 733.4818,-403.3528"/>
<polygon fill="#191970" stroke="#191970" points="732.8092,-406.7945 743.369,-405.9346 734.5778,-400.0216 732.8092,-406.7945"/>
</g>
<!-- Node273 -->
<g id="node14" class="node">
<title>Node273</title>
<g id="a_node14"><a xlink:href="mem_8h.html#a1590269d1001c17c2c99725ef85f6386" target="_top" xlink:title="zrtos_mem__move_right\l_overlapping">
<polygon fill="#ffffff" stroke="#000000" points="718,-356.5 718,-386.5 842,-386.5 842,-356.5 718,-356.5"/>
<text text-anchor="start" x="726" y="-374.5" font-family="Helvetica,sans-Serif" font-size="10.00" fill="#000000">zrtos_mem__move_right</text>
<text text-anchor="middle" x="780" y="-363.5" font-family="Helvetica,sans-Serif" font-size="10.00" fill="#000000">_overlapping</text>
</a>
</g>
</g>
<!-- Node269&#45;&gt;Node273 -->
<g id="edge15" class="edge">
<title>Node269&#45;&gt;Node273</title>
<path fill="none" stroke="#191970" d="M666.2071,-371.5C679.5073,-371.5 693.9323,-371.5 707.9019,-371.5"/>
<polygon fill="#191970" stroke="#191970" points="707.971,-375.0001 717.9709,-371.5 707.9709,-368.0001 707.971,-375.0001"/>
</g>
<!-- Node271 -->
<g id="node12" class="node">
<title>Node271</title>
<g id="a_node12"><a xlink:href="mem_8h.html#a76a7df82d207aef7d339f7ff95cce550" target="_top" xlink:title="zrtos_mem__swap_ex">
<polygon fill="#ffffff" stroke="#000000" points="878,-381 878,-400 993,-400 993,-381 878,-381"/>
<text text-anchor="middle" x="935.5" y="-388" font-family="Helvetica,sans-Serif" font-size="10.00" fill="#000000">zrtos_mem__swap_ex</text>
</a>
</g>
</g>
<!-- Node270&#45;&gt;Node271 -->
<g id="edge12" class="edge">
<title>Node270&#45;&gt;Node271</title>
<path fill="none" stroke="#191970" d="M839.2315,-405.9773C848.6592,-404.4615 858.4726,-402.8838 868.0724,-401.3405"/>
<polygon fill="#191970" stroke="#191970" points="868.6562,-404.7916 877.9738,-399.7486 867.545,-397.8804 868.6562,-404.7916"/>
</g>
<!-- Node271&#45;&gt;Node267 -->
<g id="edge14" class="edge">
<title>Node271&#45;&gt;Node267</title>
<path fill="none" stroke="#191970" d="M958.054,-380.9317C983.0215,-370.3394 1023.4712,-353.1789 1051.7745,-341.1714"/>
<polygon fill="#191970" stroke="#191970" points="1053.3949,-344.286 1061.2338,-337.1584 1050.661,-337.8419 1053.3949,-344.286"/>
</g>
<!-- Node272 -->
<g id="node13" class="node">
<title>Node272</title>
<g id="a_node13"><a xlink:href="mem_8h.html#af7e65258e9f403545514aa561c040c71" target="_top" xlink:title="Swap len bytes of dest and src inplace. ">
<polygon fill="#ffffff" stroke="#000000" points="1034.5,-381 1034.5,-400 1133.5,-400 1133.5,-381 1034.5,-381"/>
<text text-anchor="middle" x="1084" y="-388" font-family="Helvetica,sans-Serif" font-size="10.00" fill="#000000">zrtos_mem__swap</text>
</a>
</g>
</g>
<!-- Node271&#45;&gt;Node272 -->
<g id="edge13" class="edge">
<title>Node271&#45;&gt;Node272</title>
<path fill="none" stroke="#191970" d="M993.3392,-390.5C1003.4782,-390.5 1014.047,-390.5 1024.2371,-390.5"/>
<polygon fill="#191970" stroke="#191970" points="1024.271,-394.0001 1034.2709,-390.5 1024.2709,-387.0001 1024.271,-394.0001"/>
</g>
<!-- Node276&#45;&gt;Node261 -->
<g id="edge22" class="edge">
<title>Node276&#45;&gt;Node261</title>
<path fill="none" stroke="#191970" d="M471.9159,-175.4316C482.8029,-170.9628 494.4899,-165.8287 505,-160.5 521.7244,-152.0207 524.3285,-147.0829 541,-138.5 548.3148,-134.7342 556.2104,-131.0368 563.9791,-127.5947"/>
<polygon fill="#191970" stroke="#191970" points="565.5615,-130.7235 573.3447,-123.5352 562.7776,-124.3009 565.5615,-130.7235"/>
</g>
<!-- Node277 -->
<g id="node18" class="node">
<title>Node277</title>
<g id="a_node18"><a xlink:href="types_8h.html#ab287a3ab3a7be12ae8e1a7caaa8669a4" target="_top" xlink:title="zrtos_types__ptr_subtract">
<polygon fill="#ffffff" stroke="#000000" points="546.5,-181 546.5,-200 676.5,-200 676.5,-181 546.5,-181"/>
<text text-anchor="middle" x="611.5" y="-188" font-family="Helvetica,sans-Serif" font-size="10.00" fill="#000000">zrtos_types__ptr_subtract</text>
</a>
</g>
</g>
<!-- Node276&#45;&gt;Node277 -->
<g id="edge19" class="edge">
<title>Node276&#45;&gt;Node277</title>
<path fill="none" stroke="#191970" d="M505.0095,-190.5C515.2738,-190.5 525.8409,-190.5 536.1479,-190.5"/>
<polygon fill="#191970" stroke="#191970" points="536.3474,-194.0001 546.3474,-190.5 536.3473,-187.0001 536.3474,-194.0001"/>
</g>
<!-- Node278 -->
<g id="node19" class="node">
<title>Node278</title>
<g id="a_node19"><a xlink:href="vheap_8h.html#a4b2a8e30df4a416638232339c09f4cbe" target="_top" xlink:title="zrtos_vheap__get_last\l_address">
<polygon fill="#ffffff" stroke="#000000" points="878,-203.5 878,-233.5 993,-233.5 993,-203.5 878,-203.5"/>
<text text-anchor="start" x="886" y="-221.5" font-family="Helvetica,sans-Serif" font-size="10.00" fill="#000000">zrtos_vheap__get_last</text>
<text text-anchor="middle" x="935.5" y="-210.5" font-family="Helvetica,sans-Serif" font-size="10.00" fill="#000000">_address</text>
</a>
</g>
</g>
<!-- Node276&#45;&gt;Node278 -->
<g id="edge20" class="edge">
<title>Node276&#45;&gt;Node278</title>
<path fill="none" stroke="#191970" d="M505.0629,-175.98C517.0268,-174.1172 529.3261,-172.5098 541,-171.5 603.4335,-166.0993 619.5964,-165.7639 682,-171.5 745.6203,-177.3479 817.1021,-191.2856 867.9014,-202.4741"/>
<polygon fill="#191970" stroke="#191970" points="867.2554,-205.9159 877.777,-204.6719 868.7761,-199.0831 867.2554,-205.9159"/>
</g>
<!-- Node278&#45;&gt;Node267 -->
<g id="edge21" class="edge">
<title>Node278&#45;&gt;Node267</title>
<path fill="none" stroke="#191970" d="M956.1483,-233.656C984.3154,-254.3308 1034.5191,-291.1807 1062.9129,-312.022"/>
<polygon fill="#191970" stroke="#191970" points="1060.8436,-314.8447 1070.9761,-317.9404 1064.9857,-309.2017 1060.8436,-314.8447"/>
</g>
</g>
</svg>
