<?xml version="1.0" encoding="UTF-8" standalone="no"?>
<!DOCTYPE svg PUBLIC "-//W3C//DTD SVG 1.1//EN"
 "http://www.w3.org/Graphics/SVG/1.1/DTD/svg11.dtd">
<!-- Generated by graphviz version 10.0.1 (20240210.2158)
 -->
<!-- Title: zrtos_vheap_task__set_delay_ms Pages: 1 -->
<svg width="403pt" height="40pt"
 viewBox="0.00 0.00 403.25 40.00" xmlns="http://www.w3.org/2000/svg" xmlns:xlink="http://www.w3.org/1999/xlink">
<g id="graph0" class="graph" transform="scale(1 1) rotate(0) translate(4 36)">
<title>zrtos_vheap_task__set_delay_ms</title>
<!-- Node1 -->
<g id="Node000001" class="node">
<title>Node1</title>
<g id="a_Node000001"><a xlink:title=" ">
<polygon fill="#999999" stroke="#666666" points="395.25,-32 279.5,-32 279.5,0 395.25,0 395.25,-32"/>
<text text-anchor="start" x="287.5" y="-18.5" font-family="Helvetica,sans-Serif" font-size="10.00">zrtos_vheap_task__set</text>
<text text-anchor="middle" x="337.38" y="-6.5" font-family="Helvetica,sans-Serif" font-size="10.00">_delay_ms</text>
</a>
</g>
</g>
<!-- Node2 -->
<g id="Node000002" class="node">
<title>Node2</title>
<g id="a_Node000002"><a xlink:href="vheap__task__scheduler_8h.html#a51ae476e29565ebfde1ec3340150ca06" target="_top" xlink:title=" ">
<polygon fill="white" stroke="#666666" points="243.5,-32 104.5,-32 104.5,0 243.5,0 243.5,-32"/>
<text text-anchor="start" x="112.5" y="-18.5" font-family="Helvetica,sans-Serif" font-size="10.00">zrtos_vheap_task_scheduler</text>
<text text-anchor="middle" x="174" y="-6.5" font-family="Helvetica,sans-Serif" font-size="10.00">__delay_ms</text>
</a>
</g>
</g>
<!-- Node1&#45;&gt;Node2 -->
<g id="edge1_Node000001_Node000002" class="edge">
<title>Node1&#45;&gt;Node2</title>
<g id="a_edge1_Node000001_Node000002"><a xlink:title=" ">
<path fill="none" stroke="#63b8ff" d="M267.61,-16C259.71,-16 251.66,-16 243.76,-16"/>
<polygon fill="#63b8ff" stroke="#63b8ff" points="267.51,-19.5 277.51,-16 267.51,-12.5 267.51,-19.5"/>
</a>
</g>
</g>
<!-- Node3 -->
<g id="Node000003" class="node">
<title>Node3</title>
<g id="a_Node000003"><a xlink:href="vheap__task__pthread_8h.html#a28a15bba47cab57cbc9f5dac9af99c8b" target="_top" xlink:title=" ">
<polygon fill="white" stroke="#666666" points="68.5,-26 0,-26 0,-6 68.5,-6 68.5,-26"/>
<text text-anchor="middle" x="34.25" y="-12.5" font-family="Helvetica,sans-Serif" font-size="10.00">pthread_join</text>
</a>
</g>
</g>
<!-- Node2&#45;&gt;Node3 -->
<g id="edge2_Node000002_Node000003" class="edge">
<title>Node2&#45;&gt;Node3</title>
<g id="a_edge2_Node000002_Node000003"><a xlink:title=" ">
<path fill="none" stroke="#63b8ff" d="M92.7,-16C84.38,-16 76.3,-16 68.95,-16"/>
<polygon fill="#63b8ff" stroke="#63b8ff" points="92.61,-19.5 102.61,-16 92.61,-12.5 92.61,-19.5"/>
</a>
</g>
</g>
</g>
</svg>
