<?xml version="1.0" encoding="UTF-8" standalone="no"?>
<!DOCTYPE svg PUBLIC "-//W3C//DTD SVG 1.1//EN"
 "http://www.w3.org/Graphics/SVG/1.1/DTD/svg11.dtd">
<!-- Generated by graphviz version 2.40.1 (20161225.0304)
 -->
<!-- Title: vheap.h Pages: 1 -->
<svg width="171pt" height="140pt"
 viewBox="0.00 0.00 170.50 140.00" xmlns="http://www.w3.org/2000/svg" xmlns:xlink="http://www.w3.org/1999/xlink">
<g id="graph0" class="graph" transform="scale(1 1) rotate(0) translate(4 136)">
<title>vheap.h</title>
<polygon fill="#ffffff" stroke="transparent" points="-4,4 -4,-136 166.5,-136 166.5,4 -4,4"/>
<!-- Node14 -->
<g id="node1" class="node">
<title>Node14</title>
<polygon fill="#bfbfbf" stroke="#000000" points="31,-112.5 31,-131.5 82,-131.5 82,-112.5 31,-112.5"/>
<text text-anchor="middle" x="56.5" y="-119.5" font-family="Helvetica,sans-Serif" font-size="10.00" fill="#000000">vheap.h</text>
</g>
<!-- Node15 -->
<g id="node2" class="node">
<title>Node15</title>
<g id="a_node2"><a xlink:href="vheap__task__pthread_8h.html" target="_top" xlink:title="vheap_task_pthread.h">
<polygon fill="#ffffff" stroke="#000000" points="0,-.5 0,-19.5 113,-19.5 113,-.5 0,-.5"/>
<text text-anchor="middle" x="56.5" y="-7.5" font-family="Helvetica,sans-Serif" font-size="10.00" fill="#000000">vheap_task_pthread.h</text>
</a>
</g>
</g>
<!-- Node14&#45;&gt;Node15 -->
<g id="edge1" class="edge">
<title>Node14&#45;&gt;Node15</title>
<path fill="none" stroke="#191970" d="M43.8751,-103.7872C38.9873,-95.6691 33.9785,-85.7507 31.5,-76 26.2479,-55.3372 39.6847,-32.2725 48.8316,-19.6167"/>
<polygon fill="#191970" stroke="#191970" points="41.0444,-105.8563 49.3985,-112.3724 46.9313,-102.0688 41.0444,-105.8563"/>
</g>
<!-- Node16 -->
<g id="node3" class="node">
<title>Node16</title>
<g id="a_node3"><a xlink:href="vheap__task__scheduler_8h.html" target="_top" xlink:title="vheap_task_scheduler.h">
<polygon fill="#ffffff" stroke="#000000" points="40.5,-56.5 40.5,-75.5 162.5,-75.5 162.5,-56.5 40.5,-56.5"/>
<text text-anchor="middle" x="101.5" y="-63.5" font-family="Helvetica,sans-Serif" font-size="10.00" fill="#000000">vheap_task_scheduler.h</text>
</a>
</g>
</g>
<!-- Node14&#45;&gt;Node16 -->
<g id="edge2" class="edge">
<title>Node14&#45;&gt;Node16</title>
<path fill="none" stroke="#191970" d="M70.7946,-104.2112C78.3996,-94.7472 87.4538,-83.4797 93.7514,-75.6427"/>
<polygon fill="#191970" stroke="#191970" points="67.8741,-102.2581 64.3384,-112.2455 73.3306,-106.6428 67.8741,-102.2581"/>
</g>
<!-- Node16&#45;&gt;Node15 -->
<g id="edge3" class="edge">
<title>Node16&#45;&gt;Node15</title>
<path fill="none" stroke="#191970" d="M87.2054,-48.2112C79.6004,-38.7472 70.5462,-27.4797 64.2486,-19.6427"/>
<polygon fill="#191970" stroke="#191970" points="84.6694,-50.6428 93.6616,-56.2455 90.1259,-46.2581 84.6694,-50.6428"/>
</g>
</g>
</svg>
