<?xml version="1.0" encoding="UTF-8" standalone="no"?>
<!DOCTYPE svg PUBLIC "-//W3C//DTD SVG 1.1//EN"
 "http://www.w3.org/Graphics/SVG/1.1/DTD/svg11.dtd">
<!-- Generated by graphviz version 2.40.1 (20161225.0304)
 -->
<!-- Title: zrtos_vheap_chunk_uid__cmp Pages: 1 -->
<svg width="583pt" height="85pt"
 viewBox="0.00 0.00 583.00 85.00" xmlns="http://www.w3.org/2000/svg" xmlns:xlink="http://www.w3.org/1999/xlink">
<g id="graph0" class="graph" transform="scale(1 1) rotate(0) translate(4 81)">
<title>zrtos_vheap_chunk_uid__cmp</title>
<polygon fill="#ffffff" stroke="transparent" points="-4,4 -4,-81 579,-81 579,4 -4,4"/>
<!-- Node1 -->
<g id="node1" class="node">
<title>Node1</title>
<polygon fill="#bfbfbf" stroke="#000000" points="0,-19.5 0,-38.5 149,-38.5 149,-19.5 0,-19.5"/>
<text text-anchor="middle" x="74.5" y="-26.5" font-family="Helvetica,sans-Serif" font-size="10.00" fill="#000000">zrtos_vheap_chunk_uid__cmp</text>
</g>
<!-- Node2 -->
<g id="node2" class="node">
<title>Node2</title>
<g id="a_node2"><a xlink:href="vheap_8h.html#a68ab37710064e12145e5786f254b865f" target="_top" xlink:title="zrtos_vheap__get_child">
<polygon fill="#ffffff" stroke="#000000" points="185,-38.5 185,-57.5 304,-57.5 304,-38.5 185,-38.5"/>
<text text-anchor="middle" x="244.5" y="-45.5" font-family="Helvetica,sans-Serif" font-size="10.00" fill="#000000">zrtos_vheap__get_child</text>
</a>
</g>
</g>
<!-- Node1&#45;&gt;Node2 -->
<g id="edge1" class="edge">
<title>Node1&#45;&gt;Node2</title>
<path fill="none" stroke="#191970" d="M159.196,-38.466C167.8464,-39.4328 176.5011,-40.4001 184.8015,-41.3278"/>
<polygon fill="#191970" stroke="#191970" points="159.3914,-34.9662 149.0645,-37.3337 158.6138,-41.9228 159.3914,-34.9662"/>
</g>
<!-- Node6 -->
<g id="node6" class="node">
<title>Node6</title>
<g id="a_node6"><a xlink:href="vheap__task__pthread_8h.html#a98ec817164a6641eda2341de473b659d" target="_top" xlink:title="pthread_equal">
<polygon fill="#ffffff" stroke="#000000" points="206,-.5 206,-19.5 283,-19.5 283,-.5 206,-.5"/>
<text text-anchor="middle" x="244.5" y="-7.5" font-family="Helvetica,sans-Serif" font-size="10.00" fill="#000000">pthread_equal</text>
</a>
</g>
</g>
<!-- Node1&#45;&gt;Node6 -->
<g id="edge5" class="edge">
<title>Node1&#45;&gt;Node6</title>
<path fill="none" stroke="#191970" d="M159.2296,-19.5302C175.5931,-17.7014 191.9699,-15.871 205.9343,-14.3103"/>
<polygon fill="#191970" stroke="#191970" points="158.6138,-16.0772 149.0645,-20.6663 159.3914,-23.0338 158.6138,-16.0772"/>
</g>
<!-- Node3 -->
<g id="node3" class="node">
<title>Node3</title>
<g id="a_node3"><a xlink:href="vheap_8h.html#a9b492c659e97e04a4c480621cf8ea4fa" target="_top" xlink:title="_zrtos_vheap__free">
<polygon fill="#ffffff" stroke="#000000" points="340,-38.5 340,-57.5 442,-57.5 442,-38.5 340,-38.5"/>
<text text-anchor="middle" x="391" y="-45.5" font-family="Helvetica,sans-Serif" font-size="10.00" fill="#000000">_zrtos_vheap__free</text>
</a>
</g>
</g>
<!-- Node2&#45;&gt;Node3 -->
<g id="edge2" class="edge">
<title>Node2&#45;&gt;Node3</title>
<path fill="none" stroke="#191970" d="M314.202,-48C322.8691,-48 331.6026,-48 339.9157,-48"/>
<polygon fill="#191970" stroke="#191970" points="314.0872,-44.5001 304.0872,-48 314.0871,-51.5001 314.0872,-44.5001"/>
</g>
<!-- Node4 -->
<g id="node4" class="node">
<title>Node4</title>
<g id="a_node4"><a xlink:href="vheap_8h.html#a8cb25649260ebcdadebc5cc733e01254" target="_top" xlink:title="zrtos_vheap__free">
<polygon fill="#ffffff" stroke="#000000" points="478,-57.5 478,-76.5 575,-76.5 575,-57.5 478,-57.5"/>
<text text-anchor="middle" x="526.5" y="-64.5" font-family="Helvetica,sans-Serif" font-size="10.00" fill="#000000">zrtos_vheap__free</text>
</a>
</g>
</g>
<!-- Node3&#45;&gt;Node4 -->
<g id="edge3" class="edge">
<title>Node3&#45;&gt;Node4</title>
<path fill="none" stroke="#191970" d="M452.2235,-56.5848C460.8233,-57.7907 469.5647,-59.0164 477.8864,-60.1833"/>
<polygon fill="#191970" stroke="#191970" points="452.6159,-53.1057 442.2267,-55.1831 451.6438,-60.0379 452.6159,-53.1057"/>
</g>
<!-- Node5 -->
<g id="node5" class="node">
<title>Node5</title>
<g id="a_node5"><a xlink:href="vheap__task__pthread_8h.html#a28a15bba47cab57cbc9f5dac9af99c8b" target="_top" xlink:title="pthread_join">
<polygon fill="#ffffff" stroke="#000000" points="492,-19.5 492,-38.5 561,-38.5 561,-19.5 492,-19.5"/>
<text text-anchor="middle" x="526.5" y="-26.5" font-family="Helvetica,sans-Serif" font-size="10.00" fill="#000000">pthread_join</text>
</a>
</g>
</g>
<!-- Node3&#45;&gt;Node5 -->
<g id="edge4" class="edge">
<title>Node3&#45;&gt;Node5</title>
<path fill="none" stroke="#191970" d="M452.4105,-39.3889C465.8598,-37.5031 479.6453,-35.57 491.6219,-33.8907"/>
<polygon fill="#191970" stroke="#191970" points="451.6438,-35.9621 442.2267,-40.8169 452.6159,-42.8943 451.6438,-35.9621"/>
</g>
</g>
</svg>
