<?xml version="1.0" encoding="UTF-8" standalone="no"?>
<!DOCTYPE svg PUBLIC "-//W3C//DTD SVG 1.1//EN"
 "http://www.w3.org/Graphics/SVG/1.1/DTD/svg11.dtd">
<!-- Generated by graphviz version 10.0.1 (20240210.2158)
 -->
<!-- Title: vheap_task_scheduler.h Pages: 1 -->
<svg width="676pt" height="252pt"
 viewBox="0.00 0.00 675.62 252.00" xmlns="http://www.w3.org/2000/svg" xmlns:xlink="http://www.w3.org/1999/xlink">
<g id="graph0" class="graph" transform="scale(1 1) rotate(0) translate(4 248)">
<title>vheap_task_scheduler.h</title>
<!-- Node1 -->
<g id="Node000001" class="node">
<title>Node1</title>
<g id="a_Node000001"><a xlink:title=" ">
<polygon fill="#999999" stroke="#666666" points="364.12,-244 243.88,-244 243.88,-224 364.12,-224 364.12,-244"/>
<text text-anchor="middle" x="304" y="-230.5" font-family="Helvetica,sans-Serif" font-size="10.00">vheap_task_scheduler.h</text>
</a>
</g>
</g>
<!-- Node2 -->
<g id="Node000002" class="node">
<title>Node2</title>
<g id="a_Node000002"><a xlink:href="types_8h.html" target="_top" xlink:title=" ">
<polygon fill="white" stroke="#666666" points="340.5,-76 267.5,-76 267.5,-56 340.5,-56 340.5,-76"/>
<text text-anchor="middle" x="304" y="-62.5" font-family="Helvetica,sans-Serif" font-size="10.00">zrtos/types.h</text>
</a>
</g>
</g>
<!-- Node1&#45;&gt;Node2 -->
<g id="edge1_Node000001_Node000002" class="edge">
<title>Node1&#45;&gt;Node2</title>
<g id="a_edge1_Node000001_Node000002"><a xlink:title=" ">
<path fill="none" stroke="#63b8ff" d="M304,-223.6C304,-197.46 304,-123.48 304,-87.36"/>
<polygon fill="#63b8ff" stroke="#63b8ff" points="307.5,-87.81 304,-77.81 300.5,-87.81 307.5,-87.81"/>
</a>
</g>
</g>
<!-- Node9 -->
<g id="Node000009" class="node">
<title>Node9</title>
<g id="a_Node000009"><a xlink:href="vheap__task_8h.html" target="_top" xlink:title=" ">
<polygon fill="white" stroke="#666666" points="275.88,-188 178.12,-188 178.12,-168 275.88,-168 275.88,-188"/>
<text text-anchor="middle" x="227" y="-174.5" font-family="Helvetica,sans-Serif" font-size="10.00">zrtos/vheap_task.h</text>
</a>
</g>
</g>
<!-- Node1&#45;&gt;Node9 -->
<g id="edge8_Node000001_Node000009" class="edge">
<title>Node1&#45;&gt;Node9</title>
<g id="a_edge8_Node000001_Node000009"><a xlink:title=" ">
<path fill="none" stroke="#63b8ff" d="M290.59,-223.59C279.39,-215.74 263.19,-204.38 249.94,-195.09"/>
<polygon fill="#63b8ff" stroke="#63b8ff" points="251.95,-192.22 241.76,-189.35 247.93,-197.96 251.95,-192.22"/>
</a>
</g>
</g>
<!-- Node14 -->
<g id="Node000014" class="node">
<title>Node14</title>
<g id="a_Node000014"><a xlink:href="vheap_8h.html" target="_top" xlink:title=" ">
<polygon fill="white" stroke="#666666" points="476.88,-188 403.12,-188 403.12,-168 476.88,-168 476.88,-188"/>
<text text-anchor="middle" x="440" y="-174.5" font-family="Helvetica,sans-Serif" font-size="10.00">zrtos/vheap.h</text>
</a>
</g>
</g>
<!-- Node1&#45;&gt;Node14 -->
<g id="edge16_Node000001_Node000014" class="edge">
<title>Node1&#45;&gt;Node14</title>
<g id="a_edge16_Node000001_Node000014"><a xlink:title=" ">
<path fill="none" stroke="#63b8ff" d="M327.69,-223.59C349.2,-215.05 381.2,-202.35 405.54,-192.68"/>
<polygon fill="#63b8ff" stroke="#63b8ff" points="406.72,-195.98 414.72,-189.04 404.13,-189.48 406.72,-195.98"/>
</a>
</g>
</g>
<!-- Node3 -->
<g id="Node000003" class="node">
<title>Node3</title>
<g id="a_Node000003"><a xlink:title=" ">
<polygon fill="#e0e0e0" stroke="#999999" points="215.88,-20 160.12,-20 160.12,0 215.88,0 215.88,-20"/>
<text text-anchor="middle" x="188" y="-6.5" font-family="Helvetica,sans-Serif" font-size="10.00">stdbool.h</text>
</a>
</g>
</g>
<!-- Node2&#45;&gt;Node3 -->
<g id="edge2_Node000002_Node000003" class="edge">
<title>Node2&#45;&gt;Node3</title>
<g id="a_edge2_Node000002_Node000003"><a xlink:title=" ">
<path fill="none" stroke="#63b8ff" d="M283.79,-55.59C265.77,-47.21 239.13,-34.8 218.52,-25.21"/>
<polygon fill="#63b8ff" stroke="#63b8ff" points="220.28,-22.17 209.74,-21.12 217.32,-28.51 220.28,-22.17"/>
</a>
</g>
</g>
<!-- Node4 -->
<g id="Node000004" class="node">
<title>Node4</title>
<g id="a_Node000004"><a xlink:title=" ">
<polygon fill="#e0e0e0" stroke="#999999" points="360.25,-20 309.75,-20 309.75,0 360.25,0 360.25,-20"/>
<text text-anchor="middle" x="335" y="-6.5" font-family="Helvetica,sans-Serif" font-size="10.00">stddef.h</text>
</a>
</g>
</g>
<!-- Node2&#45;&gt;Node4 -->
<g id="edge3_Node000002_Node000004" class="edge">
<title>Node2&#45;&gt;Node4</title>
<g id="a_edge3_Node000002_Node000004"><a xlink:title=" ">
<path fill="none" stroke="#63b8ff" d="M309.4,-55.59C313.44,-48.55 319.12,-38.67 324.09,-30"/>
<polygon fill="#63b8ff" stroke="#63b8ff" points="326.97,-32.03 328.91,-21.61 320.89,-28.54 326.97,-32.03"/>
</a>
</g>
</g>
<!-- Node5 -->
<g id="Node000005" class="node">
<title>Node5</title>
<g id="a_Node000005"><a xlink:title=" ">
<polygon fill="#e0e0e0" stroke="#999999" points="426.12,-20 377.88,-20 377.88,0 426.12,0 426.12,-20"/>
<text text-anchor="middle" x="402" y="-6.5" font-family="Helvetica,sans-Serif" font-size="10.00">stdint.h</text>
</a>
</g>
</g>
<!-- Node2&#45;&gt;Node5 -->
<g id="edge4_Node000002_Node000005" class="edge">
<title>Node2&#45;&gt;Node5</title>
<g id="a_edge4_Node000002_Node000005"><a xlink:title=" ">
<path fill="none" stroke="#63b8ff" d="M321.07,-55.59C335.88,-47.44 357.57,-35.48 374.77,-26"/>
<polygon fill="#63b8ff" stroke="#63b8ff" points="376.4,-29.1 383.47,-21.21 373.02,-22.97 376.4,-29.1"/>
</a>
</g>
</g>
<!-- Node6 -->
<g id="Node000006" class="node">
<title>Node6</title>
<g id="a_Node000006"><a xlink:title=" ">
<polygon fill="#e0e0e0" stroke="#999999" points="141.75,-20 94.25,-20 94.25,0 141.75,0 141.75,-20"/>
<text text-anchor="middle" x="118" y="-6.5" font-family="Helvetica,sans-Serif" font-size="10.00">limits.h</text>
</a>
</g>
</g>
<!-- Node2&#45;&gt;Node6 -->
<g id="edge5_Node000002_Node000006" class="edge">
<title>Node2&#45;&gt;Node6</title>
<g id="a_edge5_Node000002_Node000006"><a xlink:title=" ">
<path fill="none" stroke="#63b8ff" d="M271.6,-55.59C238.4,-45.96 186.96,-31.02 152.89,-21.13"/>
<polygon fill="#63b8ff" stroke="#63b8ff" points="154.08,-17.83 143.5,-18.4 152.13,-24.55 154.08,-17.83"/>
</a>
</g>
</g>
<!-- Node7 -->
<g id="Node000007" class="node">
<title>Node7</title>
<g id="a_Node000007"><a xlink:title=" ">
<polygon fill="#e0e0e0" stroke="#999999" points="292,-20 234,-20 234,0 292,0 292,-20"/>
<text text-anchor="middle" x="263" y="-6.5" font-family="Helvetica,sans-Serif" font-size="10.00">stdalign.h</text>
</a>
</g>
</g>
<!-- Node2&#45;&gt;Node7 -->
<g id="edge6_Node000002_Node000007" class="edge">
<title>Node2&#45;&gt;Node7</title>
<g id="a_edge6_Node000002_Node000007"><a xlink:title=" ">
<path fill="none" stroke="#63b8ff" d="M296.86,-55.59C291.39,-48.39 283.68,-38.23 276.99,-29.43"/>
<polygon fill="#63b8ff" stroke="#63b8ff" points="279.81,-27.35 270.98,-21.5 274.23,-31.58 279.81,-27.35"/>
</a>
</g>
</g>
<!-- Node8 -->
<g id="Node000008" class="node">
<title>Node8</title>
<g id="a_Node000008"><a xlink:href="cast_8h.html" target="_top" xlink:title=" ">
<polygon fill="white" stroke="#666666" points="511.88,-20 444.12,-20 444.12,0 511.88,0 511.88,-20"/>
<text text-anchor="middle" x="478" y="-6.5" font-family="Helvetica,sans-Serif" font-size="10.00">zrtos/cast.h</text>
</a>
</g>
</g>
<!-- Node2&#45;&gt;Node8 -->
<g id="edge7_Node000002_Node000008" class="edge">
<title>Node2&#45;&gt;Node8</title>
<g id="a_edge7_Node000002_Node000008"><a xlink:title=" ">
<path fill="none" stroke="#63b8ff" d="M334.31,-55.59C362.7,-46.78 405.37,-33.54 436.83,-23.78"/>
<polygon fill="#63b8ff" stroke="#63b8ff" points="437.5,-27.23 446.01,-20.93 435.42,-20.55 437.5,-27.23"/>
</a>
</g>
</g>
<!-- Node10 -->
<g id="Node000010" class="node">
<title>Node10</title>
<g id="a_Node000010"><a xlink:href="error_8h.html" target="_top" xlink:title=" ">
<polygon fill="white" stroke="#666666" points="198.25,-76 129.75,-76 129.75,-56 198.25,-56 198.25,-76"/>
<text text-anchor="middle" x="164" y="-62.5" font-family="Helvetica,sans-Serif" font-size="10.00">zrtos/error.h</text>
</a>
</g>
</g>
<!-- Node9&#45;&gt;Node10 -->
<g id="edge9_Node000009_Node000010" class="edge">
<title>Node9&#45;&gt;Node10</title>
<g id="a_edge9_Node000009_Node000010"><a xlink:title=" ">
<path fill="none" stroke="#63b8ff" d="M225.73,-167.61C223.62,-154.43 218.57,-130.06 208,-112 201.92,-101.61 192.93,-91.83 184.65,-84.06"/>
<polygon fill="#63b8ff" stroke="#63b8ff" points="187.06,-81.51 177.26,-77.49 182.41,-86.75 187.06,-81.51"/>
</a>
</g>
</g>
<!-- Node12 -->
<g id="Node000012" class="node">
<title>Node12</title>
<g id="a_Node000012"><a xlink:href="errno_8h.html" target="_top" xlink:title=" ">
<polygon fill="white" stroke="#666666" points="199.38,-132 128.62,-132 128.62,-112 199.38,-112 199.38,-132"/>
<text text-anchor="middle" x="164" y="-118.5" font-family="Helvetica,sans-Serif" font-size="10.00">zrtos/errno.h</text>
</a>
</g>
</g>
<!-- Node9&#45;&gt;Node12 -->
<g id="edge13_Node000009_Node000012" class="edge">
<title>Node9&#45;&gt;Node12</title>
<g id="a_edge13_Node000009_Node000012"><a xlink:title=" ">
<path fill="none" stroke="#63b8ff" d="M216.03,-167.59C207.08,-159.93 194.23,-148.91 183.54,-139.75"/>
<polygon fill="#63b8ff" stroke="#63b8ff" points="185.87,-137.13 176,-133.28 181.31,-142.45 185.87,-137.13"/>
</a>
</g>
</g>
<!-- Node13 -->
<g id="Node000013" class="node">
<title>Node13</title>
<g id="a_Node000013"><a xlink:href="vheap__chunk__uid_8h.html" target="_top" xlink:title=" ">
<polygon fill="white" stroke="#666666" points="520.62,-76 397.38,-76 397.38,-56 520.62,-56 520.62,-76"/>
<text text-anchor="middle" x="459" y="-62.5" font-family="Helvetica,sans-Serif" font-size="10.00">zrtos/vheap_chunk_uid.h</text>
</a>
</g>
</g>
<!-- Node9&#45;&gt;Node13 -->
<g id="edge15_Node000009_Node000013" class="edge">
<title>Node9&#45;&gt;Node13</title>
<g id="a_edge15_Node000009_Node000013"><a xlink:title=" ">
<path fill="none" stroke="#63b8ff" d="M275.98,-174.13C315.32,-169.8 370.48,-158.97 411,-132 428.12,-120.6 441.38,-100.94 449.58,-86.22"/>
<polygon fill="#63b8ff" stroke="#63b8ff" points="452.61,-87.96 454.14,-77.48 446.41,-84.72 452.61,-87.96"/>
</a>
</g>
</g>
<!-- Node10&#45;&gt;Node3 -->
<g id="edge11_Node000010_Node000003" class="edge">
<title>Node10&#45;&gt;Node3</title>
<g id="a_edge11_Node000010_Node000003"><a xlink:title=" ">
<path fill="none" stroke="#63b8ff" d="M168.18,-55.59C171.24,-48.7 175.51,-39.1 179.3,-30.57"/>
<polygon fill="#63b8ff" stroke="#63b8ff" points="182.39,-32.24 183.25,-21.68 175.99,-29.4 182.39,-32.24"/>
</a>
</g>
</g>
<!-- Node10&#45;&gt;Node6 -->
<g id="edge10_Node000010_Node000006" class="edge">
<title>Node10&#45;&gt;Node6</title>
<g id="a_edge10_Node000010_Node000006"><a xlink:title=" ">
<path fill="none" stroke="#63b8ff" d="M155.99,-55.59C149.72,-48.24 140.83,-37.8 133.22,-28.87"/>
<polygon fill="#63b8ff" stroke="#63b8ff" points="136.05,-26.79 126.9,-21.45 130.72,-31.33 136.05,-26.79"/>
</a>
</g>
</g>
<!-- Node11 -->
<g id="Node000011" class="node">
<title>Node11</title>
<g id="a_Node000011"><a xlink:href="assert_8h.html" target="_top" xlink:title=" ">
<polygon fill="white" stroke="#666666" points="76,-20 0,-20 0,0 76,0 76,-20"/>
<text text-anchor="middle" x="38" y="-6.5" font-family="Helvetica,sans-Serif" font-size="10.00">zrtos/assert.h</text>
</a>
</g>
</g>
<!-- Node10&#45;&gt;Node11 -->
<g id="edge12_Node000010_Node000011" class="edge">
<title>Node10&#45;&gt;Node11</title>
<g id="a_edge12_Node000010_Node000011"><a xlink:title=" ">
<path fill="none" stroke="#63b8ff" d="M142.05,-55.59C122.3,-47.13 93.01,-34.58 70.53,-24.94"/>
<polygon fill="#63b8ff" stroke="#63b8ff" points="72.08,-21.8 61.51,-21.08 69.32,-28.23 72.08,-21.8"/>
</a>
</g>
</g>
<!-- Node12&#45;&gt;Node10 -->
<g id="edge14_Node000012_Node000010" class="edge">
<title>Node12&#45;&gt;Node10</title>
<g id="a_edge14_Node000012_Node000010"><a xlink:title=" ">
<path fill="none" stroke="#63b8ff" d="M164,-111.59C164,-105.01 164,-95.96 164,-87.73"/>
<polygon fill="#63b8ff" stroke="#63b8ff" points="167.5,-87.81 164,-77.81 160.5,-87.81 167.5,-87.81"/>
</a>
</g>
</g>
<!-- Node15 -->
<g id="Node000015" class="node">
<title>Node15</title>
<g id="a_Node000015"><a xlink:href="debug_8h.html" target="_top" xlink:title=" ">
<polygon fill="white" stroke="#666666" points="656.62,-132 581.38,-132 581.38,-112 656.62,-112 656.62,-132"/>
<text text-anchor="middle" x="619" y="-118.5" font-family="Helvetica,sans-Serif" font-size="10.00">zrtos/debug.h</text>
</a>
</g>
</g>
<!-- Node14&#45;&gt;Node15 -->
<g id="edge17_Node000014_Node000015" class="edge">
<title>Node14&#45;&gt;Node15</title>
<g id="a_edge17_Node000014_Node000015"><a xlink:title=" ">
<path fill="none" stroke="#63b8ff" d="M471.18,-167.59C500.39,-158.78 544.28,-145.54 576.65,-135.78"/>
<polygon fill="#63b8ff" stroke="#63b8ff" points="577.57,-139.16 586.13,-132.92 575.54,-132.45 577.57,-139.16"/>
</a>
</g>
</g>
<!-- Node16 -->
<g id="Node000016" class="node">
<title>Node16</title>
<g id="a_Node000016"><a xlink:href="mem_8h.html" target="_top" xlink:title=" ">
<polygon fill="white" stroke="#666666" points="402.38,-132 331.62,-132 331.62,-112 402.38,-112 402.38,-132"/>
<text text-anchor="middle" x="367" y="-118.5" font-family="Helvetica,sans-Serif" font-size="10.00">zrtos/mem.h</text>
</a>
</g>
</g>
<!-- Node14&#45;&gt;Node16 -->
<g id="edge18_Node000014_Node000016" class="edge">
<title>Node14&#45;&gt;Node16</title>
<g id="a_edge18_Node000014_Node000016"><a xlink:title=" ">
<path fill="none" stroke="#63b8ff" d="M427.28,-167.59C416.61,-159.7 401.12,-148.24 388.52,-138.92"/>
<polygon fill="#63b8ff" stroke="#63b8ff" points="390.91,-136.33 380.79,-133.2 386.74,-141.96 390.91,-136.33"/>
</a>
</g>
</g>
<!-- Node17 -->
<g id="Node000017" class="node">
<title>Node17</title>
<g id="a_Node000017"><a xlink:href="vheap__chunk_8h.html" target="_top" xlink:title=" ">
<polygon fill="white" stroke="#666666" points="563.62,-132 458.38,-132 458.38,-112 563.62,-112 563.62,-132"/>
<text text-anchor="middle" x="511" y="-118.5" font-family="Helvetica,sans-Serif" font-size="10.00">zrtos/vheap_chunk.h</text>
</a>
</g>
</g>
<!-- Node14&#45;&gt;Node17 -->
<g id="edge21_Node000014_Node000017" class="edge">
<title>Node14&#45;&gt;Node17</title>
<g id="a_edge21_Node000014_Node000017"><a xlink:title=" ">
<path fill="none" stroke="#63b8ff" d="M452.37,-167.59C462.65,-159.77 477.52,-148.46 489.71,-139.19"/>
<polygon fill="#63b8ff" stroke="#63b8ff" points="491.73,-142.05 497.57,-133.21 487.49,-136.48 491.73,-142.05"/>
</a>
</g>
</g>
<!-- Node16&#45;&gt;Node2 -->
<g id="edge19_Node000016_Node000002" class="edge">
<title>Node16&#45;&gt;Node2</title>
<g id="a_edge19_Node000016_Node000002"><a xlink:title=" ">
<path fill="none" stroke="#63b8ff" d="M356.03,-111.59C347.08,-103.93 334.23,-92.91 323.54,-83.75"/>
<polygon fill="#63b8ff" stroke="#63b8ff" points="325.87,-81.13 316,-77.28 321.31,-86.45 325.87,-81.13"/>
</a>
</g>
</g>
<!-- Node16&#45;&gt;Node8 -->
<g id="edge20_Node000016_Node000008" class="edge">
<title>Node16&#45;&gt;Node8</title>
<g id="a_edge20_Node000016_Node000008"><a xlink:title=" ">
<path fill="none" stroke="#63b8ff" d="M367.72,-111.95C369.25,-98.32 373.93,-72.37 388,-56 400.14,-41.87 417.78,-31.7 434.24,-24.65"/>
<polygon fill="#63b8ff" stroke="#63b8ff" points="435.4,-27.95 443.4,-21.01 432.82,-21.45 435.4,-27.95"/>
</a>
</g>
</g>
<!-- Node17&#45;&gt;Node13 -->
<g id="edge22_Node000017_Node000013" class="edge">
<title>Node17&#45;&gt;Node13</title>
<g id="a_edge22_Node000017_Node000013"><a xlink:title=" ">
<path fill="none" stroke="#63b8ff" d="M501.94,-111.59C494.78,-104.16 484.59,-93.58 475.93,-84.58"/>
<polygon fill="#63b8ff" stroke="#63b8ff" points="478.46,-82.16 469,-77.39 473.42,-87.02 478.46,-82.16"/>
</a>
</g>
</g>
<!-- Node18 -->
<g id="Node000018" class="node">
<title>Node18</title>
<g id="a_Node000018"><a xlink:href="vheap__chunk__type_8h.html" target="_top" xlink:title=" ">
<polygon fill="white" stroke="#666666" points="667.62,-76 538.38,-76 538.38,-56 667.62,-56 667.62,-76"/>
<text text-anchor="middle" x="603" y="-62.5" font-family="Helvetica,sans-Serif" font-size="10.00">zrtos/vheap_chunk_type.h</text>
</a>
</g>
</g>
<!-- Node17&#45;&gt;Node18 -->
<g id="edge23_Node000017_Node000018" class="edge">
<title>Node17&#45;&gt;Node18</title>
<g id="a_edge23_Node000017_Node000018"><a xlink:title=" ">
<path fill="none" stroke="#63b8ff" d="M527.03,-111.59C540.79,-103.51 560.9,-91.71 576.98,-82.27"/>
<polygon fill="#63b8ff" stroke="#63b8ff" points="578.69,-85.33 585.54,-77.25 575.15,-79.29 578.69,-85.33"/>
</a>
</g>
</g>
<!-- Node19 -->
<g id="Node000019" class="node">
<title>Node19</title>
<g id="a_Node000019"><a xlink:href="vheap__type_8h.html" target="_top" xlink:title=" ">
<polygon fill="white" stroke="#666666" points="651.88,-20 554.12,-20 554.12,0 651.88,0 651.88,-20"/>
<text text-anchor="middle" x="603" y="-6.5" font-family="Helvetica,sans-Serif" font-size="10.00">zrtos/vheap_type.h</text>
</a>
</g>
</g>
<!-- Node18&#45;&gt;Node19 -->
<g id="edge24_Node000018_Node000019" class="edge">
<title>Node18&#45;&gt;Node19</title>
<g id="a_edge24_Node000018_Node000019"><a xlink:title=" ">
<path fill="none" stroke="#63b8ff" d="M603,-55.59C603,-49.01 603,-39.96 603,-31.73"/>
<polygon fill="#63b8ff" stroke="#63b8ff" points="606.5,-31.81 603,-21.81 599.5,-31.81 606.5,-31.81"/>
</a>
</g>
</g>
</g>
</svg>
