<?xml version="1.0" encoding="UTF-8" standalone="no"?>
<!DOCTYPE svg PUBLIC "-//W3C//DTD SVG 1.1//EN"
 "http://www.w3.org/Graphics/SVG/1.1/DTD/svg11.dtd">
<!-- Generated by graphviz version 10.0.1 (20240210.2158)
 -->
<!-- Title: vheap_chunk_uid.h Pages: 1 -->
<svg width="184pt" height="252pt"
 viewBox="0.00 0.00 184.38 252.00" xmlns="http://www.w3.org/2000/svg" xmlns:xlink="http://www.w3.org/1999/xlink">
<g id="graph0" class="graph" transform="scale(1 1) rotate(0) translate(4 248)">
<title>vheap_chunk_uid.h</title>
<!-- Node1 -->
<g id="Node000001" class="node">
<title>Node1</title>
<g id="a_Node000001"><a xlink:title=" ">
<polygon fill="#999999" stroke="#666666" points="125.5,-244 27,-244 27,-224 125.5,-224 125.5,-244"/>
<text text-anchor="middle" x="76.25" y="-230.5" font-family="Helvetica,sans-Serif" font-size="10.00">vheap_chunk_uid.h</text>
</a>
</g>
</g>
<!-- Node2 -->
<g id="Node000002" class="node">
<title>Node2</title>
<g id="a_Node000002"><a xlink:href="vheap__chunk_8h.html" target="_top" xlink:title=" ">
<polygon fill="white" stroke="#666666" points="80.5,-188 0,-188 0,-168 80.5,-168 80.5,-188"/>
<text text-anchor="middle" x="40.25" y="-174.5" font-family="Helvetica,sans-Serif" font-size="10.00">vheap_chunk.h</text>
</a>
</g>
</g>
<!-- Node1&#45;&gt;Node2 -->
<g id="edge1_Node000001_Node000002" class="edge">
<title>Node1&#45;&gt;Node2</title>
<g id="a_edge1_Node000001_Node000002"><a xlink:title=" ">
<path fill="none" stroke="#63b8ff" d="M63.68,-214.15C57.85,-205.4 51.18,-195.39 46.45,-188.3"/>
<polygon fill="#63b8ff" stroke="#63b8ff" points="60.68,-215.96 69.14,-222.33 66.5,-212.07 60.68,-215.96"/>
</a>
</g>
</g>
<!-- Node6 -->
<g id="Node000006" class="node">
<title>Node6</title>
<g id="a_Node000006"><a xlink:href="vheap__task_8h.html" target="_top" xlink:title=" ">
<polygon fill="white" stroke="#666666" points="152.75,-132 79.75,-132 79.75,-112 152.75,-112 152.75,-132"/>
<text text-anchor="middle" x="116.25" y="-118.5" font-family="Helvetica,sans-Serif" font-size="10.00">vheap_task.h</text>
</a>
</g>
</g>
<!-- Node1&#45;&gt;Node6 -->
<g id="edge6_Node000001_Node000006" class="edge">
<title>Node1&#45;&gt;Node6</title>
<g id="a_edge6_Node000001_Node000006"><a xlink:title=" ">
<path fill="none" stroke="#63b8ff" d="M83.53,-212.97C92.22,-189.07 106.39,-150.11 112.85,-132.35"/>
<polygon fill="#63b8ff" stroke="#63b8ff" points="80.31,-211.6 80.18,-222.2 86.88,-214 80.31,-211.6"/>
</a>
</g>
</g>
<!-- Node3 -->
<g id="Node000003" class="node">
<title>Node3</title>
<g id="a_Node000003"><a xlink:href="vheap_8h.html" target="_top" xlink:title=" ">
<polygon fill="white" stroke="#666666" points="61.75,-132 12.75,-132 12.75,-112 61.75,-112 61.75,-132"/>
<text text-anchor="middle" x="37.25" y="-118.5" font-family="Helvetica,sans-Serif" font-size="10.00">vheap.h</text>
</a>
</g>
</g>
<!-- Node2&#45;&gt;Node3 -->
<g id="edge2_Node000002_Node000003" class="edge">
<title>Node2&#45;&gt;Node3</title>
<g id="a_edge2_Node000002_Node000003"><a xlink:title=" ">
<path fill="none" stroke="#63b8ff" d="M39.09,-156.13C38.63,-147.9 38.13,-138.85 37.77,-132.3"/>
<polygon fill="#63b8ff" stroke="#63b8ff" points="35.59,-156.29 39.64,-166.08 42.58,-155.9 35.59,-156.29"/>
</a>
</g>
</g>
<!-- Node4 -->
<g id="Node000004" class="node">
<title>Node4</title>
<g id="a_Node000004"><a xlink:href="vheap__task__pthread_8h.html" target="_top" xlink:title=" ">
<polygon fill="white" stroke="#666666" points="127.5,-20 17,-20 17,0 127.5,0 127.5,-20"/>
<text text-anchor="middle" x="72.25" y="-6.5" font-family="Helvetica,sans-Serif" font-size="10.00">vheap_task_pthread.h</text>
</a>
</g>
</g>
<!-- Node3&#45;&gt;Node4 -->
<g id="edge3_Node000003_Node000004" class="edge">
<title>Node3&#45;&gt;Node4</title>
<g id="a_edge3_Node000003_Node000004"><a xlink:title=" ">
<path fill="none" stroke="#63b8ff" d="M38.54,-100.5C39.81,-87.48 42.31,-70.42 47.25,-56 51.77,-42.81 60.06,-28.98 65.85,-20.2"/>
<polygon fill="#63b8ff" stroke="#63b8ff" points="35.05,-100.18 37.75,-110.42 42.03,-100.73 35.05,-100.18"/>
</a>
</g>
</g>
<!-- Node5 -->
<g id="Node000005" class="node">
<title>Node5</title>
<g id="a_Node000005"><a xlink:href="vheap__task__scheduler_8h.html" target="_top" xlink:title=" ">
<polygon fill="white" stroke="#666666" points="176.38,-76 56.12,-76 56.12,-56 176.38,-56 176.38,-76"/>
<text text-anchor="middle" x="116.25" y="-62.5" font-family="Helvetica,sans-Serif" font-size="10.00">vheap_task_scheduler.h</text>
</a>
</g>
</g>
<!-- Node3&#45;&gt;Node5 -->
<g id="edge4_Node000003_Node000005" class="edge">
<title>Node3&#45;&gt;Node5</title>
<g id="a_edge4_Node000003_Node000005"><a xlink:title=" ">
<path fill="none" stroke="#63b8ff" d="M60.26,-105.27C73.91,-95.94 90.75,-84.43 102.38,-76.48"/>
<polygon fill="#63b8ff" stroke="#63b8ff" points="58.54,-102.21 52.26,-110.74 62.49,-107.99 58.54,-102.21"/>
</a>
</g>
</g>
<!-- Node5&#45;&gt;Node4 -->
<g id="edge5_Node000005_Node000004" class="edge">
<title>Node5&#45;&gt;Node4</title>
<g id="a_edge5_Node000005_Node000004"><a xlink:title=" ">
<path fill="none" stroke="#63b8ff" d="M101.36,-46.72C94.12,-37.84 85.73,-27.55 79.83,-20.3"/>
<polygon fill="#63b8ff" stroke="#63b8ff" points="98.6,-48.88 107.63,-54.42 104.03,-44.46 98.6,-48.88"/>
</a>
</g>
</g>
<!-- Node6&#45;&gt;Node5 -->
<g id="edge7_Node000006_Node000005" class="edge">
<title>Node6&#45;&gt;Node5</title>
<g id="a_edge7_Node000006_Node000005"><a xlink:title=" ">
<path fill="none" stroke="#63b8ff" d="M116.25,-100.13C116.25,-91.9 116.25,-82.85 116.25,-76.3"/>
<polygon fill="#63b8ff" stroke="#63b8ff" points="112.75,-100.08 116.25,-110.08 119.75,-100.08 112.75,-100.08"/>
</a>
</g>
</g>
</g>
</svg>
