<?xml version="1.0" encoding="UTF-8" standalone="no"?>
<!DOCTYPE svg PUBLIC "-//W3C//DTD SVG 1.1//EN"
 "http://www.w3.org/Graphics/SVG/1.1/DTD/svg11.dtd">
<!-- Generated by graphviz version 2.40.1 (20161225.0304)
 -->
<!-- Title: zrtos_vheap__get_by_type_ex Pages: 1 -->
<svg width="288pt" height="78pt"
 viewBox="0.00 0.00 288.00 77.50" xmlns="http://www.w3.org/2000/svg" xmlns:xlink="http://www.w3.org/1999/xlink">
<g id="graph0" class="graph" transform="scale(1 1) rotate(0) translate(4 73.5)">
<title>zrtos_vheap__get_by_type_ex</title>
<polygon fill="#ffffff" stroke="transparent" points="-4,4 -4,-73.5 284,-73.5 284,4 -4,4"/>
<!-- Node108 -->
<g id="node1" class="node">
<title>Node108</title>
<polygon fill="#bfbfbf" stroke="#000000" points="0,-17 0,-47 110,-47 110,-17 0,-17"/>
<text text-anchor="start" x="8" y="-35" font-family="Helvetica,sans-Serif" font-size="10.00" fill="#000000">zrtos_vheap__get_by</text>
<text text-anchor="middle" x="55" y="-24" font-family="Helvetica,sans-Serif" font-size="10.00" fill="#000000">_type_ex</text>
</g>
<!-- Node109 -->
<g id="node2" class="node">
<title>Node109</title>
<g id="a_node2"><a xlink:href="vheap__chunk__type_8h.html#a3ba86ab73e8b4b86da90ba791d52bf27" target="_top" xlink:title="zrtos_vheap_chunk_type\l__init">
<polygon fill="#ffffff" stroke="#000000" points="150.5,-39 150.5,-69 275.5,-69 275.5,-39 150.5,-39"/>
<text text-anchor="start" x="158.5" y="-57" font-family="Helvetica,sans-Serif" font-size="10.00" fill="#000000">zrtos_vheap_chunk_type</text>
<text text-anchor="middle" x="213" y="-46" font-family="Helvetica,sans-Serif" font-size="10.00" fill="#000000">__init</text>
</a>
</g>
</g>
<!-- Node108&#45;&gt;Node109 -->
<g id="edge1" class="edge">
<title>Node108&#45;&gt;Node109</title>
<path fill="none" stroke="#191970" d="M110.2607,-39.6945C120.0051,-41.0513 130.2807,-42.4821 140.4145,-43.8932"/>
<polygon fill="#191970" stroke="#191970" points="140.0891,-47.3815 150.4762,-45.2942 141.0545,-40.4484 140.0891,-47.3815"/>
</g>
<!-- Node110 -->
<g id="node3" class="node">
<title>Node110</title>
<g id="a_node3"><a xlink:href="vheap_8h.html#aeee007ca1180d2a9b9f5659603fe6044" target="_top" xlink:title="zrtos_vheap__get_by_type">
<polygon fill="#ffffff" stroke="#000000" points="146,-.5 146,-19.5 280,-19.5 280,-.5 146,-.5"/>
<text text-anchor="middle" x="213" y="-7.5" font-family="Helvetica,sans-Serif" font-size="10.00" fill="#000000">zrtos_vheap__get_by_type</text>
</a>
</g>
</g>
<!-- Node108&#45;&gt;Node110 -->
<g id="edge2" class="edge">
<title>Node108&#45;&gt;Node110</title>
<path fill="none" stroke="#191970" d="M110.2607,-24.3055C118.5117,-23.1566 127.1436,-21.9547 135.7478,-20.7566"/>
<polygon fill="#191970" stroke="#191970" points="136.3895,-24.2011 145.8112,-19.3554 135.4241,-17.268 136.3895,-24.2011"/>
</g>
</g>
</svg>
