<?xml version="1.0" encoding="UTF-8" standalone="no"?>
<!DOCTYPE svg PUBLIC "-//W3C//DTD SVG 1.1//EN"
 "http://www.w3.org/Graphics/SVG/1.1/DTD/svg11.dtd">
<!-- Generated by graphviz version 2.40.1 (20161225.0304)
 -->
<!-- Title: _zrtos_vheap_task_scheduler__switch_task Pages: 1 -->
<svg width="1329pt" height="905pt"
 viewBox="0.00 0.00 1329.00 904.50" xmlns="http://www.w3.org/2000/svg" xmlns:xlink="http://www.w3.org/1999/xlink">
<g id="graph0" class="graph" transform="scale(1 1) rotate(0) translate(4 900.5)">
<title>_zrtos_vheap_task_scheduler__switch_task</title>
<polygon fill="#ffffff" stroke="transparent" points="-4,4 -4,-900.5 1325,-900.5 1325,4 -4,4"/>
<!-- Node97 -->
<g id="node1" class="node">
<title>Node97</title>
<polygon fill="#bfbfbf" stroke="#000000" points="0,-604 0,-634 146,-634 146,-604 0,-604"/>
<text text-anchor="start" x="8" y="-622" font-family="Helvetica,sans-Serif" font-size="10.00" fill="#000000">_zrtos_vheap_task_scheduler</text>
<text text-anchor="middle" x="73" y="-611" font-family="Helvetica,sans-Serif" font-size="10.00" fill="#000000">__switch_task</text>
</g>
<!-- Node98 -->
<g id="node2" class="node">
<title>Node98</title>
<g id="a_node2"><a xlink:href="vheap__task__scheduler_8h.html#a2205b06b30712719cfe0f785f5898425" target="_top" xlink:title="zrtos_vheap_task_scheduler\l__get_heap">
<polygon fill="#ffffff" stroke="#000000" points="723,-628 723,-658 864,-658 864,-628 723,-628"/>
<text text-anchor="start" x="731" y="-646" font-family="Helvetica,sans-Serif" font-size="10.00" fill="#000000">zrtos_vheap_task_scheduler</text>
<text text-anchor="middle" x="793.5" y="-635" font-family="Helvetica,sans-Serif" font-size="10.00" fill="#000000">__get_heap</text>
</a>
</g>
</g>
<!-- Node97&#45;&gt;Node98 -->
<g id="edge1" class="edge">
<title>Node97&#45;&gt;Node98</title>
<path fill="none" stroke="#191970" d="M130.3139,-603.9407C146.8711,-600.2564 165.0483,-596.8442 182,-595 405.128,-570.7262 467.5672,-547.8349 687,-595 712.4479,-600.4698 739.1477,-612.5196 759.448,-623.177"/>
<polygon fill="#191970" stroke="#191970" points="757.834,-626.2831 768.2974,-627.947 761.1555,-620.1212 757.834,-626.2831"/>
</g>
<!-- Node99 -->
<g id="node3" class="node">
<title>Node99</title>
<g id="a_node3"><a xlink:href="vheap__task_8h.html#a0ea9061da5e4ce4f8fd62f431a83242e" target="_top" xlink:title="zrtos_vheap_task__on_tick">
<polygon fill="#ffffff" stroke="#000000" points="187,-691.5 187,-710.5 323,-710.5 323,-691.5 187,-691.5"/>
<text text-anchor="middle" x="255" y="-698.5" font-family="Helvetica,sans-Serif" font-size="10.00" fill="#000000">zrtos_vheap_task__on_tick</text>
</a>
</g>
</g>
<!-- Node97&#45;&gt;Node99 -->
<g id="edge2" class="edge">
<title>Node97&#45;&gt;Node99</title>
<path fill="none" stroke="#191970" d="M95.0519,-634.134C116.449,-648.2302 150.2527,-668.9743 182,-682 187.8837,-684.414 194.1621,-686.5959 200.4736,-688.5469"/>
<polygon fill="#191970" stroke="#191970" points="199.7877,-691.9923 210.3672,-691.4227 201.7416,-685.2705 199.7877,-691.9923"/>
</g>
<!-- Node100 -->
<g id="node4" class="node">
<title>Node100</title>
<g id="a_node4"><a xlink:href="vheap__task_8h.html#abecb6e03f5c4faa424a02f82e707066a" target="_top" xlink:title="zrtos_vheap_task__is_idle">
<polygon fill="#ffffff" stroke="#000000" points="189,-653.5 189,-672.5 321,-672.5 321,-653.5 189,-653.5"/>
<text text-anchor="middle" x="255" y="-660.5" font-family="Helvetica,sans-Serif" font-size="10.00" fill="#000000">zrtos_vheap_task__is_idle</text>
</a>
</g>
</g>
<!-- Node97&#45;&gt;Node100 -->
<g id="edge3" class="edge">
<title>Node97&#45;&gt;Node100</title>
<path fill="none" stroke="#191970" d="M135.125,-634.0192C158.1496,-639.5856 183.9254,-645.8171 205.6586,-651.0713"/>
<polygon fill="#191970" stroke="#191970" points="205.1107,-654.5396 215.6532,-653.4876 206.7557,-647.7356 205.1107,-654.5396"/>
</g>
<!-- Node101 -->
<g id="node5" class="node">
<title>Node101</title>
<g id="a_node5"><a xlink:href="vheap__task__scheduler_8h.html#a99d7655ba93c186077c9de6a6f310c43" target="_top" xlink:title="zrtos_vheap_task_scheduler\l__has_enough_stack_space">
<polygon fill="#ffffff" stroke="#000000" points="364,-779 364,-809 505,-809 505,-779 364,-779"/>
<text text-anchor="start" x="372" y="-797" font-family="Helvetica,sans-Serif" font-size="10.00" fill="#000000">zrtos_vheap_task_scheduler</text>
<text text-anchor="middle" x="434.5" y="-786" font-family="Helvetica,sans-Serif" font-size="10.00" fill="#000000">__has_enough_stack_space</text>
</a>
</g>
</g>
<!-- Node97&#45;&gt;Node101 -->
<g id="edge4" class="edge">
<title>Node97&#45;&gt;Node101</title>
<path fill="none" stroke="#191970" d="M85.4377,-634.3592C104.1325,-656.4579 141.6133,-697.0793 182,-720 235.354,-750.2801 302.2178,-769.1554 353.7339,-780.2587"/>
<polygon fill="#191970" stroke="#191970" points="353.3182,-783.7476 363.8239,-782.3768 354.7563,-776.897 353.3182,-783.7476"/>
</g>
<!-- Node108 -->
<g id="node12" class="node">
<title>Node108</title>
<g id="a_node12"><a xlink:href="vheap__task__scheduler_8h.html#af69e917ca8bd27891eb335dda8289faf" target="_top" xlink:title="_zrtos_vheap_task_scheduler\l__set_active_task">
<polygon fill="#ffffff" stroke="#000000" points="182,-604 182,-634 328,-634 328,-604 182,-604"/>
<text text-anchor="start" x="190" y="-622" font-family="Helvetica,sans-Serif" font-size="10.00" fill="#000000">_zrtos_vheap_task_scheduler</text>
<text text-anchor="middle" x="255" y="-611" font-family="Helvetica,sans-Serif" font-size="10.00" fill="#000000">__set_active_task</text>
</a>
</g>
</g>
<!-- Node97&#45;&gt;Node108 -->
<g id="edge12" class="edge">
<title>Node97&#45;&gt;Node108</title>
<path fill="none" stroke="#191970" d="M146.2397,-619C154.5962,-619 163.1607,-619 171.6361,-619"/>
<polygon fill="#191970" stroke="#191970" points="171.9103,-622.5001 181.9103,-619 171.9102,-615.5001 171.9103,-622.5001"/>
</g>
<!-- Node131 -->
<g id="node35" class="node">
<title>Node131</title>
<g id="a_node35"><a xlink:href="vheap__chunk_8h.html#a9e677451890886104ec8623e0c5757af" target="_top" xlink:title="zrtos_vheap_chunk_\l_get_uid">
<polygon fill="#ffffff" stroke="#000000" points="201.5,-516 201.5,-546 308.5,-546 308.5,-516 201.5,-516"/>
<text text-anchor="start" x="209.5" y="-534" font-family="Helvetica,sans-Serif" font-size="10.00" fill="#000000">zrtos_vheap_chunk_</text>
<text text-anchor="middle" x="255" y="-523" font-family="Helvetica,sans-Serif" font-size="10.00" fill="#000000">_get_uid</text>
</a>
</g>
</g>
<!-- Node97&#45;&gt;Node131 -->
<g id="edge50" class="edge">
<title>Node97&#45;&gt;Node131</title>
<path fill="none" stroke="#191970" d="M99.5009,-603.9484C121.3445,-591.7738 153.2894,-574.4975 182,-561 190.0184,-557.2304 198.6437,-553.451 207.0577,-549.9073"/>
<polygon fill="#191970" stroke="#191970" points="208.5297,-553.0859 216.4239,-546.0196 205.8461,-546.6207 208.5297,-553.0859"/>
</g>
<!-- Node132 -->
<g id="node36" class="node">
<title>Node132</title>
<g id="a_node36"><a xlink:href="vheap__task__scheduler_8h.html#a393742fc3d9f5e784e97f4915c6b557d" target="_top" xlink:title="_zrtos_vheap_task_scheduler\l__restore_task">
<polygon fill="#ffffff" stroke="#000000" points="182,-467 182,-497 328,-497 328,-467 182,-467"/>
<text text-anchor="start" x="190" y="-485" font-family="Helvetica,sans-Serif" font-size="10.00" fill="#000000">_zrtos_vheap_task_scheduler</text>
<text text-anchor="middle" x="255" y="-474" font-family="Helvetica,sans-Serif" font-size="10.00" fill="#000000">__restore_task</text>
</a>
</g>
</g>
<!-- Node97&#45;&gt;Node132 -->
<g id="edge51" class="edge">
<title>Node97&#45;&gt;Node132</title>
<path fill="none" stroke="#191970" d="M83.6464,-603.9318C101.386,-579.8824 139.2901,-532.8082 182,-506 184.6271,-504.351 187.3792,-502.8036 190.2118,-501.3529"/>
<polygon fill="#191970" stroke="#191970" points="191.8872,-504.4337 199.4784,-497.0429 188.9351,-498.0867 191.8872,-504.4337"/>
</g>
<!-- Node101&#45;&gt;Node98 -->
<g id="edge5" class="edge">
<title>Node101&#45;&gt;Node98</title>
<path fill="none" stroke="#191970" d="M505.1618,-798.7751C558.1173,-799.3375 630.8199,-793.5093 687,-764 729.2919,-741.7856 762.5361,-695.396 779.9944,-666.9489"/>
<polygon fill="#191970" stroke="#191970" points="783.185,-668.432 785.3001,-658.0504 777.1726,-664.8471 783.185,-668.432"/>
</g>
<!-- Node102 -->
<g id="node6" class="node">
<title>Node102</title>
<g id="a_node6"><a xlink:href="vheap_8h.html#ad2723df7cc03e8a85b5886b8fd2c2b4e" target="_top" xlink:title="_zrtos_vheap__get_free\l_space_ex">
<polygon fill="#ffffff" stroke="#000000" points="553.5,-390 553.5,-420 674.5,-420 674.5,-390 553.5,-390"/>
<text text-anchor="start" x="561.5" y="-408" font-family="Helvetica,sans-Serif" font-size="10.00" fill="#000000">_zrtos_vheap__get_free</text>
<text text-anchor="middle" x="614" y="-397" font-family="Helvetica,sans-Serif" font-size="10.00" fill="#000000">_space_ex</text>
</a>
</g>
</g>
<!-- Node101&#45;&gt;Node102 -->
<g id="edge6" class="edge">
<title>Node101&#45;&gt;Node102</title>
<path fill="none" stroke="#191970" d="M446.9056,-778.7413C462.9913,-758.1125 490.6766,-719.5701 505,-682 539.3578,-591.8797 493.6869,-552.0452 541,-468 550.405,-451.2934 566.0045,-436.9263 580.3741,-426.1491"/>
<polygon fill="#191970" stroke="#191970" points="582.547,-428.8979 588.6365,-420.2278 578.4694,-423.2081 582.547,-428.8979"/>
</g>
<!-- Node106 -->
<g id="node10" class="node">
<title>Node106</title>
<g id="a_node10"><a xlink:href="vheap__task_8h.html#a896d233acb32ead8d7e1fd170a42aae3" target="_top" xlink:title="zrtos_vheap_task__get\l_stack_size_min">
<polygon fill="#ffffff" stroke="#000000" points="555,-866 555,-896 673,-896 673,-866 555,-866"/>
<text text-anchor="start" x="563" y="-884" font-family="Helvetica,sans-Serif" font-size="10.00" fill="#000000">zrtos_vheap_task__get</text>
<text text-anchor="middle" x="614" y="-873" font-family="Helvetica,sans-Serif" font-size="10.00" fill="#000000">_stack_size_min</text>
</a>
</g>
</g>
<!-- Node101&#45;&gt;Node106 -->
<g id="edge10" class="edge">
<title>Node101&#45;&gt;Node106</title>
<path fill="none" stroke="#191970" d="M456.9915,-809.257C478.0311,-823.0496 510.677,-843.2431 541,-857 545.0738,-858.8482 549.3327,-860.6239 553.6585,-862.3146"/>
<polygon fill="#191970" stroke="#191970" points="552.5967,-865.6541 563.1892,-865.8747 555.0462,-859.0966 552.5967,-865.6541"/>
</g>
<!-- Node107 -->
<g id="node11" class="node">
<title>Node107</title>
<g id="a_node11"><a xlink:href="vheap__chunk_8h.html#a26bcd8779d88d67764f563058787008a" target="_top" xlink:title="zrtos_vheap_chunk_\l_get_length">
<polygon fill="#ffffff" stroke="#000000" points="560.5,-817 560.5,-847 667.5,-847 667.5,-817 560.5,-817"/>
<text text-anchor="start" x="568.5" y="-835" font-family="Helvetica,sans-Serif" font-size="10.00" fill="#000000">zrtos_vheap_chunk_</text>
<text text-anchor="middle" x="614" y="-824" font-family="Helvetica,sans-Serif" font-size="10.00" fill="#000000">_get_length</text>
</a>
</g>
</g>
<!-- Node101&#45;&gt;Node107 -->
<g id="edge11" class="edge">
<title>Node101&#45;&gt;Node107</title>
<path fill="none" stroke="#191970" d="M505.1855,-808.9641C520.0916,-812.1197 535.7334,-815.431 550.3614,-818.5278"/>
<polygon fill="#191970" stroke="#191970" points="549.797,-821.9858 560.3051,-820.6328 551.2468,-815.1376 549.797,-821.9858"/>
</g>
<!-- Node103 -->
<g id="node7" class="node">
<title>Node103</title>
<g id="a_node7"><a xlink:href="types_8h.html#adbc4238237e656eb247fd49ffbfb1a6d" target="_top" xlink:title="zrtos_types__ptr_get\l_byte_distance">
<polygon fill="#ffffff" stroke="#000000" points="739.5,-264 739.5,-294 847.5,-294 847.5,-264 739.5,-264"/>
<text text-anchor="start" x="747.5" y="-282" font-family="Helvetica,sans-Serif" font-size="10.00" fill="#000000">zrtos_types__ptr_get</text>
<text text-anchor="middle" x="793.5" y="-271" font-family="Helvetica,sans-Serif" font-size="10.00" fill="#000000">_byte_distance</text>
</a>
</g>
</g>
<!-- Node102&#45;&gt;Node103 -->
<g id="edge7" class="edge">
<title>Node102&#45;&gt;Node103</title>
<path fill="none" stroke="#191970" d="M672.612,-389.8722C677.8084,-387.1098 682.7141,-383.8487 687,-380 715.1081,-354.7592 694.8689,-328.2151 723,-303 725.3317,-300.91 727.8533,-299.0006 730.5078,-297.2564"/>
<polygon fill="#191970" stroke="#191970" points="732.3983,-300.2079 739.3689,-292.2291 728.9441,-294.1195 732.3983,-300.2079"/>
</g>
<!-- Node104 -->
<g id="node8" class="node">
<title>Node104</title>
<g id="a_node8"><a xlink:href="vheap_8h.html#a4b2a8e30df4a416638232339c09f4cbe" target="_top" xlink:title="zrtos_vheap__get_last\l_address">
<polygon fill="#ffffff" stroke="#000000" points="736,-450 736,-480 851,-480 851,-450 736,-450"/>
<text text-anchor="start" x="744" y="-468" font-family="Helvetica,sans-Serif" font-size="10.00" fill="#000000">zrtos_vheap__get_last</text>
<text text-anchor="middle" x="793.5" y="-457" font-family="Helvetica,sans-Serif" font-size="10.00" fill="#000000">_address</text>
</a>
</g>
</g>
<!-- Node102&#45;&gt;Node104 -->
<g id="edge8" class="edge">
<title>Node102&#45;&gt;Node104</title>
<path fill="none" stroke="#191970" d="M659.2954,-420.1405C683.5159,-428.2365 713.515,-438.2641 739.0038,-446.784"/>
<polygon fill="#191970" stroke="#191970" points="737.9365,-450.1175 748.5303,-449.9683 740.1557,-443.4786 737.9365,-450.1175"/>
</g>
<!-- Node105 -->
<g id="node9" class="node">
<title>Node105</title>
<g id="a_node9"><a xlink:href="types_8h.html#aba57d347db551b6b1bc7f791433322ad" target="_top" xlink:title="zrtos_types__ptr_add">
<polygon fill="#ffffff" stroke="#000000" points="1211,-293.5 1211,-312.5 1321,-312.5 1321,-293.5 1211,-293.5"/>
<text text-anchor="middle" x="1266" y="-300.5" font-family="Helvetica,sans-Serif" font-size="10.00" fill="#000000">zrtos_types__ptr_add</text>
</a>
</g>
</g>
<!-- Node104&#45;&gt;Node105 -->
<g id="edge9" class="edge">
<title>Node104&#45;&gt;Node105</title>
<path fill="none" stroke="#191970" d="M851.2955,-475.0134C930.1507,-485.6057 1073.2608,-493.6376 1175,-435 1219.4393,-409.3873 1247.0527,-352.2533 1259.0377,-322.2482"/>
<polygon fill="#191970" stroke="#191970" points="1262.3241,-323.453 1262.6272,-312.8625 1255.786,-320.9525 1262.3241,-323.453"/>
</g>
<!-- Node108&#45;&gt;Node98 -->
<g id="edge13" class="edge">
<title>Node108&#45;&gt;Node98</title>
<path fill="none" stroke="#191970" d="M309.0238,-634.1502C315.6483,-636.9664 322.1397,-640.234 328,-644 347.5715,-656.5774 343.5351,-670.9356 364,-682 490.899,-750.6084 548.9315,-755.8038 687,-714 718.5908,-704.4351 749.3759,-682.0674 769.6552,-664.9738"/>
<polygon fill="#191970" stroke="#191970" points="772.1448,-667.4479 777.4136,-658.256 767.5627,-662.1559 772.1448,-667.4479"/>
</g>
<!-- Node109 -->
<g id="node13" class="node">
<title>Node109</title>
<g id="a_node13"><a xlink:href="vheap__task__scheduler_8h.html#aff9fd65d1ee753d63d6749a7d18ccb05" target="_top" xlink:title="zrtos_vheap_task_scheduler\l__page_task_out">
<polygon fill="#ffffff" stroke="#000000" points="364,-302 364,-332 505,-332 505,-302 364,-302"/>
<text text-anchor="start" x="372" y="-320" font-family="Helvetica,sans-Serif" font-size="10.00" fill="#000000">zrtos_vheap_task_scheduler</text>
<text text-anchor="middle" x="434.5" y="-309" font-family="Helvetica,sans-Serif" font-size="10.00" fill="#000000">__page_task_out</text>
</a>
</g>
</g>
<!-- Node108&#45;&gt;Node109 -->
<g id="edge14" class="edge">
<title>Node108&#45;&gt;Node109</title>
<path fill="none" stroke="#191970" d="M276.7467,-603.9339C292.5856,-592.0887 313.6862,-574.3914 328,-555 379.3783,-485.3962 413.3993,-387.0746 427.3447,-341.7043"/>
<polygon fill="#191970" stroke="#191970" points="430.7034,-342.689 430.2368,-332.1045 424.0009,-340.6698 430.7034,-342.689"/>
</g>
<!-- Node123 -->
<g id="node27" class="node">
<title>Node123</title>
<g id="a_node27"><a xlink:href="vheap_8h.html#ad64ed97d65218c007f9548e0f1adb82f" target="_top" xlink:title="zrtos_vheap__get_by_id">
<polygon fill="#ffffff" stroke="#000000" points="373.5,-653.5 373.5,-672.5 495.5,-672.5 495.5,-653.5 373.5,-653.5"/>
<text text-anchor="middle" x="434.5" y="-660.5" font-family="Helvetica,sans-Serif" font-size="10.00" fill="#000000">zrtos_vheap__get_by_id</text>
</a>
</g>
</g>
<!-- Node108&#45;&gt;Node123 -->
<g id="edge36" class="edge">
<title>Node108&#45;&gt;Node123</title>
<path fill="none" stroke="#191970" d="M316.2717,-634.0192C338.9799,-639.5856 364.4017,-645.8171 385.8364,-651.0713"/>
<polygon fill="#191970" stroke="#191970" points="385.1479,-654.5061 395.6937,-653.4876 386.8145,-647.7074 385.1479,-654.5061"/>
</g>
<!-- Node124 -->
<g id="node28" class="node">
<title>Node124</title>
<g id="a_node28"><a xlink:href="vheap__task__scheduler_8h.html#ac3ceec0a4016b00c1670ddce858c6bac" target="_top" xlink:title="zrtos_vheap_task_scheduler\l__page_task_in">
<polygon fill="#ffffff" stroke="#000000" points="364,-604 364,-634 505,-634 505,-604 364,-604"/>
<text text-anchor="start" x="372" y="-622" font-family="Helvetica,sans-Serif" font-size="10.00" fill="#000000">zrtos_vheap_task_scheduler</text>
<text text-anchor="middle" x="434.5" y="-611" font-family="Helvetica,sans-Serif" font-size="10.00" fill="#000000">__page_task_in</text>
</a>
</g>
</g>
<!-- Node108&#45;&gt;Node124 -->
<g id="edge37" class="edge">
<title>Node108&#45;&gt;Node124</title>
<path fill="none" stroke="#191970" d="M328.0095,-619C336.5206,-619 345.2399,-619 353.8465,-619"/>
<polygon fill="#191970" stroke="#191970" points="353.8789,-622.5001 363.8789,-619 353.8789,-615.5001 353.8789,-622.5001"/>
</g>
<!-- Node109&#45;&gt;Node98 -->
<g id="edge15" class="edge">
<title>Node109&#45;&gt;Node98</title>
<path fill="none" stroke="#191970" d="M438.2181,-332.1028C448.1676,-369.3189 478.9596,-466.0975 541,-517 593.3934,-559.9874 626.7136,-530.0397 687,-561 718.3363,-577.0929 749.749,-602.7204 770.2512,-621.0415"/>
<polygon fill="#191970" stroke="#191970" points="768.0583,-623.778 777.8133,-627.9119 772.7654,-618.5969 768.0583,-623.778"/>
</g>
<!-- Node109&#45;&gt;Node103 -->
<g id="edge34" class="edge">
<title>Node109&#45;&gt;Node103</title>
<path fill="none" stroke="#191970" d="M449.7755,-301.7502C469.0844,-283.6614 504.2608,-254.5109 541,-243 602.9208,-223.5994 622.9711,-232.4708 687,-243 692.8869,-243.9681 717.4448,-252.2236 741.4958,-260.5845"/>
<polygon fill="#191970" stroke="#191970" points="740.4071,-263.9116 751.0019,-263.9029 742.7141,-257.3027 740.4071,-263.9116"/>
</g>
<!-- Node109&#45;&gt;Node104 -->
<g id="edge35" class="edge">
<title>Node109&#45;&gt;Node104</title>
<path fill="none" stroke="#191970" d="M443.8208,-332.0116C460.1333,-356.8423 496.4042,-406.004 541,-429 598.4657,-458.6324 672.5224,-466.1735 725.5488,-467.1836"/>
<polygon fill="#191970" stroke="#191970" points="725.8226,-470.6869 735.8626,-467.3032 725.9038,-463.6874 725.8226,-470.6869"/>
</g>
<!-- Node110 -->
<g id="node14" class="node">
<title>Node110</title>
<g id="a_node14"><a xlink:href="vheap__task__scheduler_8h.html#a5bfb3d2b504f0179293fe98c19fbcb57" target="_top" xlink:title="_zrtos_vheap_task_scheduler\l__get_active_task">
<polygon fill="#ffffff" stroke="#000000" points="541,-478 541,-508 687,-508 687,-478 541,-478"/>
<text text-anchor="start" x="549" y="-496" font-family="Helvetica,sans-Serif" font-size="10.00" fill="#000000">_zrtos_vheap_task_scheduler</text>
<text text-anchor="middle" x="614" y="-485" font-family="Helvetica,sans-Serif" font-size="10.00" fill="#000000">__get_active_task</text>
</a>
</g>
</g>
<!-- Node109&#45;&gt;Node110 -->
<g id="edge16" class="edge">
<title>Node109&#45;&gt;Node110</title>
<path fill="none" stroke="#191970" d="M442.0194,-332.3835C457.0201,-361.6212 493.3595,-425.6238 541,-463 545.9522,-466.8852 551.4777,-470.3421 557.2113,-473.3993"/>
<polygon fill="#191970" stroke="#191970" points="555.8208,-476.6155 566.3401,-477.8784 558.9043,-470.3313 555.8208,-476.6155"/>
</g>
<!-- Node112 -->
<g id="node16" class="node">
<title>Node112</title>
<g id="a_node16"><a xlink:href="vheap__task_8h.html#ab4203191e1dca81c750ca246d31fda8c" target="_top" xlink:title="zrtos_vheap_task__set\l_stack_ptr">
<polygon fill="#ffffff" stroke="#000000" points="555,-302 555,-332 673,-332 673,-302 555,-302"/>
<text text-anchor="start" x="563" y="-320" font-family="Helvetica,sans-Serif" font-size="10.00" fill="#000000">zrtos_vheap_task__set</text>
<text text-anchor="middle" x="614" y="-309" font-family="Helvetica,sans-Serif" font-size="10.00" fill="#000000">_stack_ptr</text>
</a>
</g>
</g>
<!-- Node109&#45;&gt;Node112 -->
<g id="edge20" class="edge">
<title>Node109&#45;&gt;Node112</title>
<path fill="none" stroke="#191970" d="M505.1855,-317C518.1908,-317 531.7561,-317 544.7195,-317"/>
<polygon fill="#191970" stroke="#191970" points="544.9647,-320.5001 554.9647,-317 544.9647,-313.5001 544.9647,-320.5001"/>
</g>
<!-- Node113 -->
<g id="node17" class="node">
<title>Node113</title>
<g id="a_node17"><a xlink:href="vheap__task_8h.html#a4916fc70f9461b91fd5c6c8186bbb8f0" target="_top" xlink:title="zrtos_vheap_task__set\l_errno">
<polygon fill="#ffffff" stroke="#000000" points="555,-253 555,-283 673,-283 673,-253 555,-253"/>
<text text-anchor="start" x="563" y="-271" font-family="Helvetica,sans-Serif" font-size="10.00" fill="#000000">zrtos_vheap_task__set</text>
<text text-anchor="middle" x="614" y="-260" font-family="Helvetica,sans-Serif" font-size="10.00" fill="#000000">_errno</text>
</a>
</g>
</g>
<!-- Node109&#45;&gt;Node113 -->
<g id="edge21" class="edge">
<title>Node109&#45;&gt;Node113</title>
<path fill="none" stroke="#191970" d="M489.8206,-301.8986C508.5906,-296.7747 529.7287,-291.0044 549.172,-285.6968"/>
<polygon fill="#191970" stroke="#191970" points="550.1368,-289.0616 558.8621,-283.0516 548.2933,-282.3086 550.1368,-289.0616"/>
</g>
<!-- Node114 -->
<g id="node18" class="node">
<title>Node114</title>
<g id="a_node18"><a xlink:href="vheap_8h.html#a7c64f185f189dd5e35dc36b22d1b0397" target="_top" xlink:title="zrtos_vheap__page_out">
<polygon fill="#ffffff" stroke="#000000" points="554,-176.5 554,-195.5 674,-195.5 674,-176.5 554,-176.5"/>
<text text-anchor="middle" x="614" y="-183.5" font-family="Helvetica,sans-Serif" font-size="10.00" fill="#000000">zrtos_vheap__page_out</text>
</a>
</g>
</g>
<!-- Node109&#45;&gt;Node114 -->
<g id="edge22" class="edge">
<title>Node109&#45;&gt;Node114</title>
<path fill="none" stroke="#191970" d="M445.8747,-301.6243C463.6998,-278.5588 500.4004,-235.0422 541,-210 548.0231,-205.6681 555.9138,-202.0285 563.843,-198.9994"/>
<polygon fill="#191970" stroke="#191970" points="565.2111,-202.2283 573.4781,-195.6021 562.8833,-195.6267 565.2111,-202.2283"/>
</g>
<!-- Node120 -->
<g id="node24" class="node">
<title>Node120</title>
<g id="a_node24"><a xlink:href="vheap_8h.html#a324d34b06d29c4d590434ad465ca1271" target="_top" xlink:title="zrtos_vheap__get_by\l_type_ex">
<polygon fill="#ffffff" stroke="#000000" points="559,-39 559,-69 669,-69 669,-39 559,-39"/>
<text text-anchor="start" x="567" y="-57" font-family="Helvetica,sans-Serif" font-size="10.00" fill="#000000">zrtos_vheap__get_by</text>
<text text-anchor="middle" x="614" y="-46" font-family="Helvetica,sans-Serif" font-size="10.00" fill="#000000">_type_ex</text>
</a>
</g>
</g>
<!-- Node109&#45;&gt;Node120 -->
<g id="edge31" class="edge">
<title>Node109&#45;&gt;Node120</title>
<path fill="none" stroke="#191970" d="M444.9265,-301.7232C474.9168,-257.7821 561.566,-130.8253 597.7857,-77.7569"/>
<polygon fill="#191970" stroke="#191970" points="600.7982,-79.5516 603.5447,-69.3189 595.0165,-75.6055 600.7982,-79.5516"/>
</g>
<!-- Node110&#45;&gt;Node98 -->
<g id="edge19" class="edge">
<title>Node110&#45;&gt;Node98</title>
<path fill="none" stroke="#191970" d="M659.6914,-508.0282C669.145,-512.1467 678.7325,-517.1298 687,-523 724.954,-549.9484 758.7382,-592.8477 777.6238,-619.3904"/>
<polygon fill="#191970" stroke="#191970" points="774.8455,-621.525 783.4419,-627.7181 780.5839,-617.516 774.8455,-621.525"/>
</g>
<!-- Node110&#45;&gt;Node104 -->
<g id="edge18" class="edge">
<title>Node110&#45;&gt;Node104</title>
<path fill="none" stroke="#191970" d="M687.0095,-481.6113C699.8763,-479.6043 713.2189,-477.523 725.9285,-475.5404"/>
<polygon fill="#191970" stroke="#191970" points="726.6234,-478.9744 735.9644,-473.9749 725.5444,-472.0581 726.6234,-478.9744"/>
</g>
<!-- Node111 -->
<g id="node15" class="node">
<title>Node111</title>
<g id="a_node15"><a xlink:href="types_8h.html#ab287a3ab3a7be12ae8e1a7caaa8669a4" target="_top" xlink:title="zrtos_types__ptr_subtract">
<polygon fill="#ffffff" stroke="#000000" points="728.5,-499.5 728.5,-518.5 858.5,-518.5 858.5,-499.5 728.5,-499.5"/>
<text text-anchor="middle" x="793.5" y="-506.5" font-family="Helvetica,sans-Serif" font-size="10.00" fill="#000000">zrtos_types__ptr_subtract</text>
</a>
</g>
</g>
<!-- Node110&#45;&gt;Node111 -->
<g id="edge17" class="edge">
<title>Node110&#45;&gt;Node111</title>
<path fill="none" stroke="#191970" d="M687.0095,-499.5078C697.2738,-500.4227 707.8409,-501.3646 718.1479,-502.2834"/>
<polygon fill="#191970" stroke="#191970" points="718.0761,-505.7908 728.3474,-503.1925 718.6976,-498.8184 718.0761,-505.7908"/>
</g>
<!-- Node114&#45;&gt;Node103 -->
<g id="edge30" class="edge">
<title>Node114&#45;&gt;Node103</title>
<path fill="none" stroke="#191970" d="M656.827,-195.6126C667.248,-199.1242 677.9795,-203.8108 687,-210 707.8344,-224.295 702.3324,-239.4649 723,-254 725.7087,-255.905 728.5773,-257.6785 731.5471,-259.3279"/>
<polygon fill="#191970" stroke="#191970" points="730.1922,-262.5636 740.701,-263.9107 733.3259,-256.3042 730.1922,-262.5636"/>
</g>
<!-- Node114&#45;&gt;Node105 -->
<g id="edge23" class="edge">
<title>Node114&#45;&gt;Node105</title>
<path fill="none" stroke="#191970" d="M674.1783,-187.8189C725.0177,-190.0127 799.6236,-194.777 864,-205 997.8251,-226.2515 1152.69,-269.3913 1224.9336,-290.6258"/>
<polygon fill="#191970" stroke="#191970" points="1223.9865,-293.9955 1234.5684,-293.4722 1225.9698,-287.2823 1223.9865,-293.9955"/>
</g>
<!-- Node115 -->
<g id="node19" class="node">
<title>Node115</title>
<g id="a_node19"><a xlink:href="mem_8h.html#a9054cc3824c6ffdaf4ed24fde2f80f32" target="_top" xlink:title="zrtos_mem__move_left\l_overlapping">
<polygon fill="#ffffff" stroke="#000000" points="734,-127 734,-157 853,-157 853,-127 734,-127"/>
<text text-anchor="start" x="742" y="-145" font-family="Helvetica,sans-Serif" font-size="10.00" fill="#000000">zrtos_mem__move_left</text>
<text text-anchor="middle" x="793.5" y="-134" font-family="Helvetica,sans-Serif" font-size="10.00" fill="#000000">_overlapping</text>
</a>
</g>
</g>
<!-- Node114&#45;&gt;Node115 -->
<g id="edge24" class="edge">
<title>Node114&#45;&gt;Node115</title>
<path fill="none" stroke="#191970" d="M652.9488,-176.4527C673.7018,-171.3656 699.8581,-164.954 723.9626,-159.0454"/>
<polygon fill="#191970" stroke="#191970" points="724.9103,-162.4168 733.7895,-156.6366 723.2437,-155.618 724.9103,-162.4168"/>
</g>
<!-- Node116 -->
<g id="node20" class="node">
<title>Node116</title>
<g id="a_node20"><a xlink:href="vheap__chunk_8h.html#a50f3da740523a69829e865dcaa7d77ad" target="_top" xlink:title="zrtos_vheap_chunk_\l_set_type">
<polygon fill="#ffffff" stroke="#000000" points="740,-215 740,-245 847,-245 847,-215 740,-215"/>
<text text-anchor="start" x="748" y="-233" font-family="Helvetica,sans-Serif" font-size="10.00" fill="#000000">zrtos_vheap_chunk_</text>
<text text-anchor="middle" x="793.5" y="-222" font-family="Helvetica,sans-Serif" font-size="10.00" fill="#000000">_set_type</text>
</a>
</g>
</g>
<!-- Node114&#45;&gt;Node116 -->
<g id="edge25" class="edge">
<title>Node114&#45;&gt;Node116</title>
<path fill="none" stroke="#191970" d="M652.9488,-195.5473C675.4325,-201.0587 704.2584,-208.1246 729.9462,-214.4214"/>
<polygon fill="#191970" stroke="#191970" points="729.4421,-217.9013 739.9878,-216.8828 731.1086,-211.1026 729.4421,-217.9013"/>
</g>
<!-- Node117 -->
<g id="node21" class="node">
<title>Node117</title>
<g id="a_node21"><a xlink:href="mem_8h.html#a2e3d82e56bdea756a305d5ced180ca57" target="_top" xlink:title="zrtos_mem__left_rotate">
<polygon fill="#ffffff" stroke="#000000" points="902.5,-138.5 902.5,-157.5 1021.5,-157.5 1021.5,-138.5 902.5,-138.5"/>
<text text-anchor="middle" x="962" y="-145.5" font-family="Helvetica,sans-Serif" font-size="10.00" fill="#000000">zrtos_mem__left_rotate</text>
</a>
</g>
</g>
<!-- Node114&#45;&gt;Node117 -->
<g id="edge26" class="edge">
<title>Node114&#45;&gt;Node117</title>
<path fill="none" stroke="#191970" d="M624.4264,-176.4628C642.7317,-160.4406 682.5598,-128.7241 723,-117 783.1883,-99.5507 802.0671,-107.438 864,-117 886.2742,-120.439 910.4238,-128.0302 929.1765,-134.8395"/>
<polygon fill="#191970" stroke="#191970" points="928.1297,-138.1847 938.7222,-138.4065 930.58,-131.6275 928.1297,-138.1847"/>
</g>
<!-- Node118 -->
<g id="node22" class="node">
<title>Node118</title>
<g id="a_node22"><a xlink:href="mem_8h.html#a76a7df82d207aef7d339f7ff95cce550" target="_top" xlink:title="zrtos_mem__swap_ex">
<polygon fill="#ffffff" stroke="#000000" points="1060,-138.5 1060,-157.5 1175,-157.5 1175,-138.5 1060,-138.5"/>
<text text-anchor="middle" x="1117.5" y="-145.5" font-family="Helvetica,sans-Serif" font-size="10.00" fill="#000000">zrtos_mem__swap_ex</text>
</a>
</g>
</g>
<!-- Node117&#45;&gt;Node118 -->
<g id="edge27" class="edge">
<title>Node117&#45;&gt;Node118</title>
<path fill="none" stroke="#191970" d="M1021.6756,-148C1030.8587,-148 1040.3979,-148 1049.7414,-148"/>
<polygon fill="#191970" stroke="#191970" points="1049.7771,-151.5001 1059.7771,-148 1049.7771,-144.5001 1049.7771,-151.5001"/>
</g>
<!-- Node118&#45;&gt;Node105 -->
<g id="edge29" class="edge">
<title>Node118&#45;&gt;Node105</title>
<path fill="none" stroke="#191970" d="M1149.4224,-157.5907C1158.2797,-161.2057 1167.5112,-165.9498 1175,-172 1214.1365,-203.6182 1243.5578,-256.3409 1257.3411,-284.2856"/>
<polygon fill="#191970" stroke="#191970" points="1254.2202,-285.8721 1261.7006,-293.375 1260.5318,-282.8448 1254.2202,-285.8721"/>
</g>
<!-- Node119 -->
<g id="node23" class="node">
<title>Node119</title>
<g id="a_node23"><a xlink:href="mem_8h.html#af7e65258e9f403545514aa561c040c71" target="_top" xlink:title="Swap len bytes of dest and src inplace. ">
<polygon fill="#ffffff" stroke="#000000" points="1216.5,-138.5 1216.5,-157.5 1315.5,-157.5 1315.5,-138.5 1216.5,-138.5"/>
<text text-anchor="middle" x="1266" y="-145.5" font-family="Helvetica,sans-Serif" font-size="10.00" fill="#000000">zrtos_mem__swap</text>
</a>
</g>
</g>
<!-- Node118&#45;&gt;Node119 -->
<g id="edge28" class="edge">
<title>Node118&#45;&gt;Node119</title>
<path fill="none" stroke="#191970" d="M1175.3392,-148C1185.4782,-148 1196.047,-148 1206.2371,-148"/>
<polygon fill="#191970" stroke="#191970" points="1206.271,-151.5001 1216.2709,-148 1206.2709,-144.5001 1206.271,-151.5001"/>
</g>
<!-- Node121 -->
<g id="node25" class="node">
<title>Node121</title>
<g id="a_node25"><a xlink:href="vheap__chunk__type_8h.html#a3ba86ab73e8b4b86da90ba791d52bf27" target="_top" xlink:title="zrtos_vheap_chunk_type\l__init">
<polygon fill="#ffffff" stroke="#000000" points="731,-39 731,-69 856,-69 856,-39 731,-39"/>
<text text-anchor="start" x="739" y="-57" font-family="Helvetica,sans-Serif" font-size="10.00" fill="#000000">zrtos_vheap_chunk_type</text>
<text text-anchor="middle" x="793.5" y="-46" font-family="Helvetica,sans-Serif" font-size="10.00" fill="#000000">__init</text>
</a>
</g>
</g>
<!-- Node120&#45;&gt;Node121 -->
<g id="edge32" class="edge">
<title>Node120&#45;&gt;Node121</title>
<path fill="none" stroke="#191970" d="M669.3206,-54C685.4433,-54 703.3133,-54 720.3555,-54"/>
<polygon fill="#191970" stroke="#191970" points="720.8368,-57.5001 730.8368,-54 720.8367,-50.5001 720.8368,-57.5001"/>
</g>
<!-- Node122 -->
<g id="node26" class="node">
<title>Node122</title>
<g id="a_node26"><a xlink:href="vheap_8h.html#aeee007ca1180d2a9b9f5659603fe6044" target="_top" xlink:title="zrtos_vheap__get_by_type">
<polygon fill="#ffffff" stroke="#000000" points="726.5,-.5 726.5,-19.5 860.5,-19.5 860.5,-.5 726.5,-.5"/>
<text text-anchor="middle" x="793.5" y="-7.5" font-family="Helvetica,sans-Serif" font-size="10.00" fill="#000000">zrtos_vheap__get_by_type</text>
</a>
</g>
</g>
<!-- Node120&#45;&gt;Node122 -->
<g id="edge33" class="edge">
<title>Node120&#45;&gt;Node122</title>
<path fill="none" stroke="#191970" d="M669.3206,-40.4395C693.3687,-34.5447 721.3039,-27.6971 744.5818,-21.9911"/>
<polygon fill="#191970" stroke="#191970" points="745.7031,-25.3199 754.5823,-19.5397 744.0365,-18.5212 745.7031,-25.3199"/>
</g>
<!-- Node124&#45;&gt;Node98 -->
<g id="edge38" class="edge">
<title>Node124&#45;&gt;Node98</title>
<path fill="none" stroke="#191970" d="M488.2212,-634.1593C494.1567,-636.9471 499.8921,-640.2051 505,-644 526.6921,-660.116 516.8893,-680.7956 541,-693 613.067,-729.4791 709.2421,-689.52 759.5557,-662.8766"/>
<polygon fill="#191970" stroke="#191970" points="761.2797,-665.9232 768.4005,-658.078 757.9416,-659.7703 761.2797,-665.9232"/>
</g>
<!-- Node124&#45;&gt;Node110 -->
<g id="edge47" class="edge">
<title>Node124&#45;&gt;Node110</title>
<path fill="none" stroke="#191970" d="M456.1519,-603.8015C488.1783,-581.3205 548.2698,-539.1393 584.3603,-513.8056"/>
<polygon fill="#191970" stroke="#191970" points="586.3768,-516.6664 592.5507,-508.0563 582.355,-510.937 586.3768,-516.6664"/>
</g>
<!-- Node125 -->
<g id="node29" class="node">
<title>Node125</title>
<g id="a_node29"><a xlink:href="vheap_8h.html#a3bce66e6371563f486d49abcf3c45a25" target="_top" xlink:title="zrtos_vheap__page_in">
<polygon fill="#ffffff" stroke="#000000" points="557,-351.5 557,-370.5 671,-370.5 671,-351.5 557,-351.5"/>
<text text-anchor="middle" x="614" y="-358.5" font-family="Helvetica,sans-Serif" font-size="10.00" fill="#000000">zrtos_vheap__page_in</text>
</a>
</g>
</g>
<!-- Node124&#45;&gt;Node125 -->
<g id="edge39" class="edge">
<title>Node124&#45;&gt;Node125</title>
<path fill="none" stroke="#191970" d="M436.6277,-603.9979C443.4226,-561.8391 468.5761,-441.3883 541,-380 543.0542,-378.2588 545.2493,-376.6748 547.5496,-375.2339"/>
<polygon fill="#191970" stroke="#191970" points="549.6308,-378.095 556.8667,-370.356 546.384,-371.8934 549.6308,-378.095"/>
</g>
<!-- Node129 -->
<g id="node33" class="node">
<title>Node129</title>
<g id="a_node33"><a xlink:href="vheap__task_8h.html#a4c7bdc8ec72e41c5edecf60880368905" target="_top" xlink:title="zrtos_vheap_task__get\l_stack_ptr">
<polygon fill="#ffffff" stroke="#000000" points="555,-653 555,-683 673,-683 673,-653 555,-653"/>
<text text-anchor="start" x="563" y="-671" font-family="Helvetica,sans-Serif" font-size="10.00" fill="#000000">zrtos_vheap_task__get</text>
<text text-anchor="middle" x="614" y="-660" font-family="Helvetica,sans-Serif" font-size="10.00" fill="#000000">_stack_ptr</text>
</a>
</g>
</g>
<!-- Node124&#45;&gt;Node129 -->
<g id="edge48" class="edge">
<title>Node124&#45;&gt;Node129</title>
<path fill="none" stroke="#191970" d="M489.8206,-634.1014C508.5906,-639.2253 529.7287,-644.9956 549.172,-650.3032"/>
<polygon fill="#191970" stroke="#191970" points="548.2933,-653.6914 558.8621,-652.9484 550.1368,-646.9384 548.2933,-653.6914"/>
</g>
<!-- Node130 -->
<g id="node34" class="node">
<title>Node130</title>
<g id="a_node34"><a xlink:href="vheap__task_8h.html#a9a6382869bc3582f4c52e85d4915fea5" target="_top" xlink:title="zrtos_vheap_task__get\l_errno">
<polygon fill="#ffffff" stroke="#000000" points="555,-604 555,-634 673,-634 673,-604 555,-604"/>
<text text-anchor="start" x="563" y="-622" font-family="Helvetica,sans-Serif" font-size="10.00" fill="#000000">zrtos_vheap_task__get</text>
<text text-anchor="middle" x="614" y="-611" font-family="Helvetica,sans-Serif" font-size="10.00" fill="#000000">_errno</text>
</a>
</g>
</g>
<!-- Node124&#45;&gt;Node130 -->
<g id="edge49" class="edge">
<title>Node124&#45;&gt;Node130</title>
<path fill="none" stroke="#191970" d="M505.1855,-619C518.1908,-619 531.7561,-619 544.7195,-619"/>
<polygon fill="#191970" stroke="#191970" points="544.9647,-622.5001 554.9647,-619 544.9647,-615.5001 544.9647,-622.5001"/>
</g>
<!-- Node125&#45;&gt;Node103 -->
<g id="edge45" class="edge">
<title>Node125&#45;&gt;Node103</title>
<path fill="none" stroke="#191970" d="M663.4206,-351.4205C671.6169,-348.7349 679.7863,-345.3233 687,-341 706.9551,-329.0406 703.417,-315.5595 723,-303 725.4488,-301.4295 728.0117,-299.9497 730.6497,-298.5567"/>
<polygon fill="#191970" stroke="#191970" points="732.3447,-301.6257 739.8521,-294.1498 729.3212,-295.3123 732.3447,-301.6257"/>
</g>
<!-- Node125&#45;&gt;Node105 -->
<g id="edge40" class="edge">
<title>Node125&#45;&gt;Node105</title>
<path fill="none" stroke="#191970" d="M658.644,-370.5501C668.1628,-373.1565 678.0418,-376.3035 687,-380 704.1228,-387.0654 705.1187,-396.1658 723,-401 916.2744,-453.2516 1155.8955,-354.8632 1237.3605,-316.9783"/>
<polygon fill="#191970" stroke="#191970" points="1238.9437,-320.1014 1246.4975,-312.6723 1235.9596,-313.7694 1238.9437,-320.1014"/>
</g>
<!-- Node125&#45;&gt;Node116 -->
<g id="edge46" class="edge">
<title>Node125&#45;&gt;Node116</title>
<path fill="none" stroke="#191970" d="M670.1628,-351.4348C676.2861,-348.7586 682.0731,-345.3468 687,-341 718.3792,-313.315 692.4755,-282.6246 723,-254 725.4521,-251.7005 728.1334,-249.6205 730.9719,-247.7392"/>
<polygon fill="#191970" stroke="#191970" points="732.9241,-250.6555 739.8875,-242.6704 729.4644,-244.5702 732.9241,-250.6555"/>
</g>
<!-- Node126 -->
<g id="node30" class="node">
<title>Node126</title>
<g id="a_node30"><a xlink:href="vheap_8h.html#a53d9ca47afe3a2f353e12566c3c82a1d" target="_top" xlink:title="_zrtos_vheap__update\l_index_ptr">
<polygon fill="#ffffff" stroke="#000000" points="736,-362 736,-392 851,-392 851,-362 736,-362"/>
<text text-anchor="start" x="744" y="-380" font-family="Helvetica,sans-Serif" font-size="10.00" fill="#000000">_zrtos_vheap__update</text>
<text text-anchor="middle" x="793.5" y="-369" font-family="Helvetica,sans-Serif" font-size="10.00" fill="#000000">_index_ptr</text>
</a>
</g>
</g>
<!-- Node125&#45;&gt;Node126 -->
<g id="edge41" class="edge">
<title>Node125&#45;&gt;Node126</title>
<path fill="none" stroke="#191970" d="M671.2884,-366.1065C688.6084,-367.6503 707.7925,-369.3603 725.7286,-370.9591"/>
<polygon fill="#191970" stroke="#191970" points="725.5608,-374.4579 735.8321,-371.8597 726.1823,-367.4856 725.5608,-374.4579"/>
</g>
<!-- Node127 -->
<g id="node31" class="node">
<title>Node127</title>
<g id="a_node31"><a xlink:href="vheap_8h.html#a58db7c5ad7c8ab1f99167871437f5d31" target="_top" xlink:title="_zrtos_vheap__swap\l_to_heap_end">
<polygon fill="#ffffff" stroke="#000000" points="739,-313 739,-343 848,-343 848,-313 739,-313"/>
<text text-anchor="start" x="747" y="-331" font-family="Helvetica,sans-Serif" font-size="10.00" fill="#000000">_zrtos_vheap__swap</text>
<text text-anchor="middle" x="793.5" y="-320" font-family="Helvetica,sans-Serif" font-size="10.00" fill="#000000">_to_heap_end</text>
</a>
</g>
</g>
<!-- Node125&#45;&gt;Node127 -->
<g id="edge42" class="edge">
<title>Node125&#45;&gt;Node127</title>
<path fill="none" stroke="#191970" d="M665.9188,-351.455C685.5836,-347.8398 708.2143,-343.6793 728.9046,-339.8755"/>
<polygon fill="#191970" stroke="#191970" points="729.6821,-343.2913 738.8844,-338.0408 728.4163,-336.4067 729.6821,-343.2913"/>
</g>
<!-- Node127&#45;&gt;Node117 -->
<g id="edge43" class="edge">
<title>Node127&#45;&gt;Node117</title>
<path fill="none" stroke="#191970" d="M848.207,-312.8345C853.8362,-310.0617 859.2306,-306.8088 864,-303 910.7136,-265.6946 941.624,-199.7243 954.782,-167.2105"/>
<polygon fill="#191970" stroke="#191970" points="958.175,-168.1443 958.5608,-157.5565 951.6566,-165.5927 958.175,-168.1443"/>
</g>
<!-- Node128 -->
<g id="node32" class="node">
<title>Node128</title>
<g id="a_node32"><a xlink:href="mem_8h.html#a1590269d1001c17c2c99725ef85f6386" target="_top" xlink:title="zrtos_mem__move_right\l_overlapping">
<polygon fill="#ffffff" stroke="#000000" points="900,-313 900,-343 1024,-343 1024,-313 900,-313"/>
<text text-anchor="start" x="908" y="-331" font-family="Helvetica,sans-Serif" font-size="10.00" fill="#000000">zrtos_mem__move_right</text>
<text text-anchor="middle" x="962" y="-320" font-family="Helvetica,sans-Serif" font-size="10.00" fill="#000000">_overlapping</text>
</a>
</g>
</g>
<!-- Node127&#45;&gt;Node128 -->
<g id="edge44" class="edge">
<title>Node127&#45;&gt;Node128</title>
<path fill="none" stroke="#191970" d="M848.2071,-328C861.5073,-328 875.9323,-328 889.9019,-328"/>
<polygon fill="#191970" stroke="#191970" points="889.971,-331.5001 899.9709,-328 889.9709,-324.5001 889.971,-331.5001"/>
</g>
</g>
</svg>
