<?xml version="1.0" encoding="UTF-8" standalone="no"?>
<!DOCTYPE svg PUBLIC "-//W3C//DTD SVG 1.1//EN"
 "http://www.w3.org/Graphics/SVG/1.1/DTD/svg11.dtd">
<!-- Generated by graphviz version 2.40.1 (20161225.0304)
 -->
<!-- Title: _zrtos_vheap_task_scheduler__restore_task Pages: 1 -->
<svg width="800pt" height="112pt"
 viewBox="0.00 0.00 800.00 112.00" xmlns="http://www.w3.org/2000/svg" xmlns:xlink="http://www.w3.org/1999/xlink">
<g id="graph0" class="graph" transform="scale(1 1) rotate(0) translate(4 108)">
<title>_zrtos_vheap_task_scheduler__restore_task</title>
<polygon fill="#ffffff" stroke="transparent" points="-4,4 -4,-108 796,-108 796,4 -4,4"/>
<!-- Node57 -->
<g id="node1" class="node">
<title>Node57</title>
<polygon fill="#bfbfbf" stroke="#000000" points="0,-48.5 0,-78.5 146,-78.5 146,-48.5 0,-48.5"/>
<text text-anchor="start" x="8" y="-66.5" font-family="Helvetica,sans-Serif" font-size="10.00" fill="#000000">_zrtos_vheap_task_scheduler</text>
<text text-anchor="middle" x="73" y="-55.5" font-family="Helvetica,sans-Serif" font-size="10.00" fill="#000000">__restore_task</text>
</g>
<!-- Node58 -->
<g id="node2" class="node">
<title>Node58</title>
<g id="a_node2"><a xlink:href="vheap__task__scheduler_8h.html#add5545a77a9d66f232fa03da168ca02f" target="_top" xlink:title="zrtos_vheap_task_scheduler\l__start">
<polygon fill="#ffffff" stroke="#000000" points="184.5,-73.5 184.5,-103.5 325.5,-103.5 325.5,-73.5 184.5,-73.5"/>
<text text-anchor="start" x="192.5" y="-91.5" font-family="Helvetica,sans-Serif" font-size="10.00" fill="#000000">zrtos_vheap_task_scheduler</text>
<text text-anchor="middle" x="255" y="-80.5" font-family="Helvetica,sans-Serif" font-size="10.00" fill="#000000">__start</text>
</a>
</g>
</g>
<!-- Node57&#45;&gt;Node58 -->
<g id="edge1" class="edge">
<title>Node57&#45;&gt;Node58</title>
<path fill="none" stroke="#191970" d="M156.3164,-74.9446C165.6595,-76.2279 175.1113,-77.5263 184.2743,-78.7849"/>
<polygon fill="#191970" stroke="#191970" points="156.623,-71.4539 146.2397,-73.5604 155.6703,-78.3888 156.623,-71.4539"/>
</g>
<!-- Node59 -->
<g id="node3" class="node">
<title>Node59</title>
<g id="a_node3"><a xlink:href="vheap__task__scheduler_8h.html#a1a1be02692a671c368f4e2335179a042" target="_top" xlink:title="_zrtos_vheap_task_scheduler\l__switch_task">
<polygon fill="#ffffff" stroke="#000000" points="182,-24.5 182,-54.5 328,-54.5 328,-24.5 182,-24.5"/>
<text text-anchor="start" x="190" y="-42.5" font-family="Helvetica,sans-Serif" font-size="10.00" fill="#000000">_zrtos_vheap_task_scheduler</text>
<text text-anchor="middle" x="255" y="-31.5" font-family="Helvetica,sans-Serif" font-size="10.00" fill="#000000">__switch_task</text>
</a>
</g>
</g>
<!-- Node57&#45;&gt;Node59 -->
<g id="edge2" class="edge">
<title>Node57&#45;&gt;Node59</title>
<path fill="none" stroke="#191970" d="M156.2365,-52.5238C164.8043,-51.3939 173.4644,-50.2519 181.9103,-49.1382"/>
<polygon fill="#191970" stroke="#191970" points="155.6962,-49.0646 146.2397,-53.842 156.6114,-56.0045 155.6962,-49.0646"/>
</g>
<!-- Node60 -->
<g id="node4" class="node">
<title>Node60</title>
<g id="a_node4"><a xlink:href="vheap__task__scheduler_8h.html#acd810187c2b0b8d63548170c9da4b73d" target="_top" xlink:title="_zrtos_vheap_task_scheduler\l__on_tick">
<polygon fill="#ffffff" stroke="#000000" points="364,-24.5 364,-54.5 510,-54.5 510,-24.5 364,-24.5"/>
<text text-anchor="start" x="372" y="-42.5" font-family="Helvetica,sans-Serif" font-size="10.00" fill="#000000">_zrtos_vheap_task_scheduler</text>
<text text-anchor="middle" x="437" y="-31.5" font-family="Helvetica,sans-Serif" font-size="10.00" fill="#000000">__on_tick</text>
</a>
</g>
</g>
<!-- Node59&#45;&gt;Node60 -->
<g id="edge3" class="edge">
<title>Node59&#45;&gt;Node60</title>
<path fill="none" stroke="#191970" d="M338.516,-39.5C346.9925,-39.5 355.5562,-39.5 363.9103,-39.5"/>
<polygon fill="#191970" stroke="#191970" points="338.2397,-36.0001 328.2397,-39.5 338.2396,-43.0001 338.2397,-36.0001"/>
</g>
<!-- Node61 -->
<g id="node5" class="node">
<title>Node61</title>
<g id="a_node5"><a xlink:href="vheap__task__scheduler_8h.html#a51ae476e29565ebfde1ec3340150ca06" target="_top" xlink:title="zrtos_vheap_task_scheduler\l__delay_ms">
<polygon fill="#ffffff" stroke="#000000" points="546,-49.5 546,-79.5 687,-79.5 687,-49.5 546,-49.5"/>
<text text-anchor="start" x="554" y="-67.5" font-family="Helvetica,sans-Serif" font-size="10.00" fill="#000000">zrtos_vheap_task_scheduler</text>
<text text-anchor="middle" x="616.5" y="-56.5" font-family="Helvetica,sans-Serif" font-size="10.00" fill="#000000">__delay_ms</text>
</a>
</g>
</g>
<!-- Node60&#45;&gt;Node61 -->
<g id="edge4" class="edge">
<title>Node60&#45;&gt;Node61</title>
<path fill="none" stroke="#191970" d="M520.0772,-51.0706C528.7021,-52.2719 537.4097,-53.4846 545.8789,-54.6642"/>
<polygon fill="#191970" stroke="#191970" points="520.3968,-47.5814 510.0095,-49.6685 519.4311,-54.5145 520.3968,-47.5814"/>
</g>
<!-- Node63 -->
<g id="node7" class="node">
<title>Node63</title>
<g id="a_node7"><a xlink:href="vheap__task__scheduler_8h.html#a3734a190668294fe1e91009e3cf6f72a" target="_top" xlink:title="zrtos_vheap_task_scheduler\l__trampoline_cb">
<polygon fill="#ffffff" stroke="#000000" points="546,-.5 546,-30.5 687,-30.5 687,-.5 546,-.5"/>
<text text-anchor="start" x="554" y="-18.5" font-family="Helvetica,sans-Serif" font-size="10.00" fill="#000000">zrtos_vheap_task_scheduler</text>
<text text-anchor="middle" x="616.5" y="-7.5" font-family="Helvetica,sans-Serif" font-size="10.00" fill="#000000">__trampoline_cb</text>
</a>
</g>
</g>
<!-- Node60&#45;&gt;Node63 -->
<g id="edge6" class="edge">
<title>Node60&#45;&gt;Node63</title>
<path fill="none" stroke="#191970" d="M520.0772,-28.3922C528.7021,-27.239 537.4097,-26.0747 545.8789,-24.9424"/>
<polygon fill="#191970" stroke="#191970" points="519.4574,-24.9438 510.0095,-29.7383 520.3852,-31.8821 519.4574,-24.9438"/>
</g>
<!-- Node62 -->
<g id="node6" class="node">
<title>Node62</title>
<g id="a_node6"><a xlink:href="vheap__task__pthread_8h.html#a28a15bba47cab57cbc9f5dac9af99c8b" target="_top" xlink:title="pthread_join">
<polygon fill="#ffffff" stroke="#000000" points="723,-55 723,-74 792,-74 792,-55 723,-55"/>
<text text-anchor="middle" x="757.5" y="-62" font-family="Helvetica,sans-Serif" font-size="10.00" fill="#000000">pthread_join</text>
</a>
</g>
</g>
<!-- Node61&#45;&gt;Node62 -->
<g id="edge5" class="edge">
<title>Node61&#45;&gt;Node62</title>
<path fill="none" stroke="#191970" d="M697.5043,-64.5C706.384,-64.5 715.0363,-64.5 722.8806,-64.5"/>
<polygon fill="#191970" stroke="#191970" points="697.4131,-61.0001 687.4131,-64.5 697.413,-68.0001 697.4131,-61.0001"/>
</g>
</g>
</svg>
