<?xml version="1.0" encoding="UTF-8" standalone="no"?>
<!DOCTYPE svg PUBLIC "-//W3C//DTD SVG 1.1//EN"
 "http://www.w3.org/Graphics/SVG/1.1/DTD/svg11.dtd">
<!-- Generated by graphviz version 2.40.1 (20161225.0304)
 -->
<!-- Title: pthread_create Pages: 1 -->
<svg width="905pt" height="521pt"
 viewBox="0.00 0.00 905.00 520.56" xmlns="http://www.w3.org/2000/svg" xmlns:xlink="http://www.w3.org/1999/xlink">
<g id="graph0" class="graph" transform="scale(1 1) rotate(0) translate(4 516.5597)">
<title>pthread_create</title>
<polygon fill="#ffffff" stroke="transparent" points="-4,4 -4,-516.5597 901,-516.5597 901,4 -4,4"/>
<!-- Node6 -->
<g id="node1" class="node">
<title>Node6</title>
<polygon fill="#bfbfbf" stroke="#000000" points="0,-183 0,-202 81,-202 81,-183 0,-183"/>
<text text-anchor="middle" x="40.5" y="-190" font-family="Helvetica,sans-Serif" font-size="10.00" fill="#000000">pthread_create</text>
</g>
<!-- Node7 -->
<g id="node2" class="node">
<title>Node7</title>
<g id="a_node2"><a xlink:href="vheap__task__scheduler_8h.html#a2205b06b30712719cfe0f785f5898425" target="_top" xlink:title="zrtos_vheap_task_scheduler\l__get_heap">
<polygon fill="#ffffff" stroke="#000000" points="283,-322.5 283,-352.5 424,-352.5 424,-322.5 283,-322.5"/>
<text text-anchor="start" x="291" y="-340.5" font-family="Helvetica,sans-Serif" font-size="10.00" fill="#000000">zrtos_vheap_task_scheduler</text>
<text text-anchor="middle" x="353.5" y="-329.5" font-family="Helvetica,sans-Serif" font-size="10.00" fill="#000000">__get_heap</text>
</a>
</g>
</g>
<!-- Node6&#45;&gt;Node7 -->
<g id="edge1" class="edge">
<title>Node6&#45;&gt;Node7</title>
<path fill="none" stroke="#191970" d="M49.467,-202.3697C62.8839,-216.6026 89.5546,-242.8907 117,-258.5 166.9013,-286.8808 228.5668,-307.0572 276.4173,-319.9135"/>
<polygon fill="#191970" stroke="#191970" points="275.5401,-323.3018 286.102,-322.4667 277.3246,-316.533 275.5401,-323.3018"/>
</g>
<!-- Node8 -->
<g id="node3" class="node">
<title>Node8</title>
<g id="a_node3"><a xlink:href="vheap_8h.html#a0367b40168ba501de389f8550c59f0a7" target="_top" xlink:title="_zrtos_vheap__malloc">
<polygon fill="#ffffff" stroke="#000000" points="125,-394 125,-413 239,-413 239,-394 125,-394"/>
<text text-anchor="middle" x="182" y="-401" font-family="Helvetica,sans-Serif" font-size="10.00" fill="#000000">_zrtos_vheap__malloc</text>
</a>
</g>
</g>
<!-- Node6&#45;&gt;Node8 -->
<g id="edge2" class="edge">
<title>Node6&#45;&gt;Node8</title>
<path fill="none" stroke="#191970" d="M45.6422,-202.1597C57.3918,-223.9967 87.4771,-278.6018 117,-321.5 132.9021,-344.6066 153.2678,-369.6704 166.9277,-385.9246"/>
<polygon fill="#191970" stroke="#191970" points="164.6197,-388.6147 173.7557,-393.9799 169.9596,-384.0885 164.6197,-388.6147"/>
</g>
<!-- Node11 -->
<g id="node6" class="node">
<title>Node11</title>
<g id="a_node6"><a xlink:href="types_8h.html#adbc4238237e656eb247fd49ffbfb1a6d" target="_top" xlink:title="zrtos_types__ptr_get\l_byte_distance">
<polygon fill="#ffffff" stroke="#000000" points="639.5,-456.5 639.5,-486.5 747.5,-486.5 747.5,-456.5 639.5,-456.5"/>
<text text-anchor="start" x="647.5" y="-474.5" font-family="Helvetica,sans-Serif" font-size="10.00" fill="#000000">zrtos_types__ptr_get</text>
<text text-anchor="middle" x="693.5" y="-463.5" font-family="Helvetica,sans-Serif" font-size="10.00" fill="#000000">_byte_distance</text>
</a>
</g>
</g>
<!-- Node6&#45;&gt;Node11 -->
<g id="edge27" class="edge">
<title>Node6&#45;&gt;Node11</title>
<path fill="none" stroke="#191970" d="M41.0512,-202.1446C43.5039,-236.4847 56.1862,-354.3796 117,-422.5 171.1621,-483.1695 203.5816,-481.9773 283,-499.5 403.2423,-526.0299 547.6749,-504.1369 629.203,-487.0033"/>
<polygon fill="#191970" stroke="#191970" points="630.2681,-490.3545 639.3118,-484.8352 628.8001,-483.5102 630.2681,-490.3545"/>
</g>
<!-- Node12 -->
<g id="node7" class="node">
<title>Node12</title>
<g id="a_node7"><a xlink:href="vheap_8h.html#a4b2a8e30df4a416638232339c09f4cbe" target="_top" xlink:title="zrtos_vheap__get_last\l_address">
<polygon fill="#ffffff" stroke="#000000" points="636,-137.5 636,-167.5 751,-167.5 751,-137.5 636,-137.5"/>
<text text-anchor="start" x="644" y="-155.5" font-family="Helvetica,sans-Serif" font-size="10.00" fill="#000000">zrtos_vheap__get_last</text>
<text text-anchor="middle" x="693.5" y="-144.5" font-family="Helvetica,sans-Serif" font-size="10.00" fill="#000000">_address</text>
</a>
</g>
</g>
<!-- Node6&#45;&gt;Node12 -->
<g id="edge26" class="edge">
<title>Node6&#45;&gt;Node12</title>
<path fill="none" stroke="#191970" d="M81.1809,-187.2242C129.2905,-181.1972 211.8307,-171.5222 283,-166.5 403.5689,-157.9918 544.4374,-154.6129 625.8679,-153.3009"/>
<polygon fill="#191970" stroke="#191970" points="626.0395,-156.7987 635.9838,-153.1436 625.9306,-149.7996 626.0395,-156.7987"/>
</g>
<!-- Node18 -->
<g id="node13" class="node">
<title>Node18</title>
<g id="a_node13"><a xlink:href="vheap__task__pthread_8h.html#a4c4f5f3b4f8f45d9d897847d53b11aaa" target="_top" xlink:title="pthread_self">
<polygon fill="#ffffff" stroke="#000000" points="147,-230 147,-249 217,-249 217,-230 147,-230"/>
<text text-anchor="middle" x="182" y="-237" font-family="Helvetica,sans-Serif" font-size="10.00" fill="#000000">pthread_self</text>
</a>
</g>
</g>
<!-- Node6&#45;&gt;Node18 -->
<g id="edge12" class="edge">
<title>Node6&#45;&gt;Node18</title>
<path fill="none" stroke="#191970" d="M69.1346,-202.0112C90.4742,-209.0992 119.8508,-218.8568 143.2841,-226.6403"/>
<polygon fill="#191970" stroke="#191970" points="142.3288,-230.011 152.9223,-229.8417 144.5354,-223.3678 142.3288,-230.011"/>
</g>
<!-- Node25 -->
<g id="node20" class="node">
<title>Node25</title>
<g id="a_node20"><a xlink:href="vheap__chunk_8h.html#ab6591db6901861c777b5e354aa672514" target="_top" xlink:title="zrtos_vheap_chunk_\l_get_last_address">
<polygon fill="#ffffff" stroke="#000000" points="128.5,-87.5 128.5,-117.5 235.5,-117.5 235.5,-87.5 128.5,-87.5"/>
<text text-anchor="start" x="136.5" y="-105.5" font-family="Helvetica,sans-Serif" font-size="10.00" fill="#000000">zrtos_vheap_chunk_</text>
<text text-anchor="middle" x="182" y="-94.5" font-family="Helvetica,sans-Serif" font-size="10.00" fill="#000000">_get_last_address</text>
</a>
</g>
</g>
<!-- Node6&#45;&gt;Node25 -->
<g id="edge20" class="edge">
<title>Node6&#45;&gt;Node25</title>
<path fill="none" stroke="#191970" d="M51.3059,-182.6911C65.6066,-170.0328 91.9428,-147.8198 117,-132.5 122.9845,-128.8411 129.4895,-125.3374 135.9946,-122.0983"/>
<polygon fill="#191970" stroke="#191970" points="137.9628,-125.0361 145.4648,-117.5548 134.9348,-118.7249 137.9628,-125.0361"/>
</g>
<!-- Node28 -->
<g id="node23" class="node">
<title>Node28</title>
<g id="a_node23"><a xlink:href="types_8h.html#ab287a3ab3a7be12ae8e1a7caaa8669a4" target="_top" xlink:title="zrtos_types__ptr_subtract">
<polygon fill="#ffffff" stroke="#000000" points="117,-49 117,-68 247,-68 247,-49 117,-49"/>
<text text-anchor="middle" x="182" y="-56" font-family="Helvetica,sans-Serif" font-size="10.00" fill="#000000">zrtos_types__ptr_subtract</text>
</a>
</g>
</g>
<!-- Node6&#45;&gt;Node28 -->
<g id="edge24" class="edge">
<title>Node6&#45;&gt;Node28</title>
<path fill="none" stroke="#191970" d="M44.1992,-182.8105C53.1557,-160.6638 78.171,-106.0549 117,-77.5 119.652,-75.5497 122.5015,-73.7987 125.4735,-72.2268"/>
<polygon fill="#191970" stroke="#191970" points="127.0355,-75.3613 134.6823,-68.028 124.1314,-68.9922 127.0355,-75.3613"/>
</g>
<!-- Node29 -->
<g id="node24" class="node">
<title>Node29</title>
<g id="a_node24"><a xlink:href="vheap__task_8h.html#a823b2b2d0f95e82c00810aa8e4f85d66" target="_top" xlink:title="zrtos_vheap_task__init">
<polygon fill="#ffffff" stroke="#000000" points="123.5,-11 123.5,-30 240.5,-30 240.5,-11 123.5,-11"/>
<text text-anchor="middle" x="182" y="-18" font-family="Helvetica,sans-Serif" font-size="10.00" fill="#000000">zrtos_vheap_task__init</text>
</a>
</g>
</g>
<!-- Node6&#45;&gt;Node29 -->
<g id="edge25" class="edge">
<title>Node6&#45;&gt;Node29</title>
<path fill="none" stroke="#191970" d="M42.4714,-182.9452C48.518,-156.0857 69.3587,-79.2842 117,-39.5 119.053,-37.7856 121.2544,-36.2258 123.5617,-34.8068"/>
<polygon fill="#191970" stroke="#191970" points="125.6067,-37.6906 132.8956,-30.0015 122.4026,-31.467 125.6067,-37.6906"/>
</g>
<!-- Node9 -->
<g id="node4" class="node">
<title>Node9</title>
<g id="a_node4"><a xlink:href="vheap_8h.html#afaa17fa156a136951a309b102c38e71e" target="_top" xlink:title="_zrtos_vheap__get_free\l_space">
<polygon fill="#ffffff" stroke="#000000" points="293,-410.5 293,-440.5 414,-440.5 414,-410.5 293,-410.5"/>
<text text-anchor="start" x="301" y="-428.5" font-family="Helvetica,sans-Serif" font-size="10.00" fill="#000000">_zrtos_vheap__get_free</text>
<text text-anchor="middle" x="353.5" y="-417.5" font-family="Helvetica,sans-Serif" font-size="10.00" fill="#000000">_space</text>
</a>
</g>
</g>
<!-- Node8&#45;&gt;Node9 -->
<g id="edge3" class="edge">
<title>Node8&#45;&gt;Node9</title>
<path fill="none" stroke="#191970" d="M239.107,-410.8257C253.1202,-412.6233 268.2863,-414.5688 282.8521,-416.4373"/>
<polygon fill="#191970" stroke="#191970" points="282.4546,-419.9149 292.8187,-417.7158 283.3453,-412.9718 282.4546,-419.9149"/>
</g>
<!-- Node15 -->
<g id="node10" class="node">
<title>Node15</title>
<g id="a_node10"><a xlink:href="mem_8h.html#a1590269d1001c17c2c99725ef85f6386" target="_top" xlink:title="zrtos_mem__move_right\l_overlapping">
<polygon fill="#ffffff" stroke="#000000" points="291.5,-459.5 291.5,-489.5 415.5,-489.5 415.5,-459.5 291.5,-459.5"/>
<text text-anchor="start" x="299.5" y="-477.5" font-family="Helvetica,sans-Serif" font-size="10.00" fill="#000000">zrtos_mem__move_right</text>
<text text-anchor="middle" x="353.5" y="-466.5" font-family="Helvetica,sans-Serif" font-size="10.00" fill="#000000">_overlapping</text>
</a>
</g>
</g>
<!-- Node8&#45;&gt;Node15 -->
<g id="edge9" class="edge">
<title>Node8&#45;&gt;Node15</title>
<path fill="none" stroke="#191970" d="M201.0919,-413.1348C221.2025,-423.1052 253.9251,-438.8253 283,-450.5 287.6793,-452.3789 292.5691,-454.2424 297.4967,-456.0514"/>
<polygon fill="#191970" stroke="#191970" points="296.3792,-459.3689 306.9737,-459.4532 298.7441,-452.7805 296.3792,-459.3689"/>
</g>
<!-- Node16 -->
<g id="node11" class="node">
<title>Node16</title>
<g id="a_node11"><a xlink:href="vheap_8h.html#a8681e975680d07e73d260e73bac6e74a" target="_top" xlink:title="zrtos_vheap__get_next_uid">
<polygon fill="#ffffff" stroke="#000000" points="285.5,-372 285.5,-391 421.5,-391 421.5,-372 285.5,-372"/>
<text text-anchor="middle" x="353.5" y="-379" font-family="Helvetica,sans-Serif" font-size="10.00" fill="#000000">zrtos_vheap__get_next_uid</text>
</a>
</g>
</g>
<!-- Node8&#45;&gt;Node16 -->
<g id="edge10" class="edge">
<title>Node8&#45;&gt;Node16</title>
<path fill="none" stroke="#191970" d="M239.107,-396.1743C250.6781,-394.69 263.0352,-393.1048 275.1914,-391.5454"/>
<polygon fill="#191970" stroke="#191970" points="275.8604,-394.9884 285.3337,-390.2444 274.9696,-388.0453 275.8604,-394.9884"/>
</g>
<!-- Node10 -->
<g id="node5" class="node">
<title>Node10</title>
<g id="a_node5"><a xlink:href="vheap_8h.html#ad2723df7cc03e8a85b5886b8fd2c2b4e" target="_top" xlink:title="_zrtos_vheap__get_free\l_space_ex">
<polygon fill="#ffffff" stroke="#000000" points="469.5,-410.5 469.5,-440.5 590.5,-440.5 590.5,-410.5 469.5,-410.5"/>
<text text-anchor="start" x="477.5" y="-428.5" font-family="Helvetica,sans-Serif" font-size="10.00" fill="#000000">_zrtos_vheap__get_free</text>
<text text-anchor="middle" x="530" y="-417.5" font-family="Helvetica,sans-Serif" font-size="10.00" fill="#000000">_space_ex</text>
</a>
</g>
</g>
<!-- Node9&#45;&gt;Node10 -->
<g id="edge4" class="edge">
<title>Node9&#45;&gt;Node10</title>
<path fill="none" stroke="#191970" d="M414.2413,-425.5C428.7439,-425.5 444.3478,-425.5 459.2571,-425.5"/>
<polygon fill="#191970" stroke="#191970" points="459.4459,-429.0001 469.4459,-425.5 459.4458,-422.0001 459.4459,-429.0001"/>
</g>
<!-- Node14 -->
<g id="node9" class="node">
<title>Node14</title>
<g id="a_node9"><a xlink:href="vheap_8h.html#ac2aa4978f16950ae57e7532d94df5d4f" target="_top" xlink:title="zrtos_vheap__get_stack_ptr">
<polygon fill="#ffffff" stroke="#000000" points="460,-460 460,-479 600,-479 600,-460 460,-460"/>
<text text-anchor="middle" x="530" y="-467" font-family="Helvetica,sans-Serif" font-size="10.00" fill="#000000">zrtos_vheap__get_stack_ptr</text>
</a>
</g>
</g>
<!-- Node9&#45;&gt;Node14 -->
<g id="edge8" class="edge">
<title>Node9&#45;&gt;Node14</title>
<path fill="none" stroke="#191970" d="M413.7476,-440.5192C435.9753,-446.0604 460.8471,-452.2607 481.8633,-457.4999"/>
<polygon fill="#191970" stroke="#191970" points="481.2926,-460.9647 491.8422,-459.9876 482.9858,-454.1726 481.2926,-460.9647"/>
</g>
<!-- Node10&#45;&gt;Node11 -->
<g id="edge5" class="edge">
<title>Node10&#45;&gt;Node11</title>
<path fill="none" stroke="#191970" d="M583.536,-440.5621C598.4335,-444.7535 614.7557,-449.3456 630.1584,-453.6791"/>
<polygon fill="#191970" stroke="#191970" points="629.5489,-457.1435 640.1231,-456.4826 631.4447,-450.4051 629.5489,-457.1435"/>
</g>
<!-- Node10&#45;&gt;Node12 -->
<g id="edge6" class="edge">
<title>Node10&#45;&gt;Node12</title>
<path fill="none" stroke="#191970" d="M586.5187,-410.4563C591.4388,-407.6772 596.0421,-404.3892 600,-400.5 663.7716,-337.8356 684.6015,-227.427 690.9376,-177.8502"/>
<polygon fill="#191970" stroke="#191970" points="694.4401,-178.0343 692.1388,-167.6925 687.4886,-177.2122 694.4401,-178.0343"/>
</g>
<!-- Node13 -->
<g id="node8" class="node">
<title>Node13</title>
<g id="a_node8"><a xlink:href="types_8h.html#aba57d347db551b6b1bc7f791433322ad" target="_top" xlink:title="zrtos_types__ptr_add">
<polygon fill="#ffffff" stroke="#000000" points="787,-121 787,-140 897,-140 897,-121 787,-121"/>
<text text-anchor="middle" x="842" y="-128" font-family="Helvetica,sans-Serif" font-size="10.00" fill="#000000">zrtos_types__ptr_add</text>
</a>
</g>
</g>
<!-- Node12&#45;&gt;Node13 -->
<g id="edge7" class="edge">
<title>Node12&#45;&gt;Node13</title>
<path fill="none" stroke="#191970" d="M751.3392,-143.9312C759.768,-142.6825 768.4939,-141.3898 777.0522,-140.1219"/>
<polygon fill="#191970" stroke="#191970" points="777.6151,-143.5768 786.9942,-138.649 776.5892,-136.6524 777.6151,-143.5768"/>
</g>
<!-- Node17 -->
<g id="node12" class="node">
<title>Node17</title>
<g id="a_node12"><a xlink:href="vheap_8h.html#ad64ed97d65218c007f9548e0f1adb82f" target="_top" xlink:title="zrtos_vheap__get_by_id">
<polygon fill="#ffffff" stroke="#000000" points="469,-372 469,-391 591,-391 591,-372 469,-372"/>
<text text-anchor="middle" x="530" y="-379" font-family="Helvetica,sans-Serif" font-size="10.00" fill="#000000">zrtos_vheap__get_by_id</text>
</a>
</g>
</g>
<!-- Node16&#45;&gt;Node17 -->
<g id="edge11" class="edge">
<title>Node16&#45;&gt;Node17</title>
<path fill="none" stroke="#191970" d="M421.7395,-381.5C433.8653,-381.5 446.5231,-381.5 458.7304,-381.5"/>
<polygon fill="#191970" stroke="#191970" points="458.857,-385.0001 468.857,-381.5 458.857,-378.0001 458.857,-385.0001"/>
</g>
<!-- Node18&#45;&gt;Node7 -->
<g id="edge16" class="edge">
<title>Node18&#45;&gt;Node7</title>
<path fill="none" stroke="#191970" d="M192.7671,-249.1318C210.4712,-264.5499 247.3342,-294.922 283,-313.5 286.449,-315.2966 290.0608,-317.0023 293.7495,-318.6137"/>
<polygon fill="#191970" stroke="#191970" points="292.448,-321.8628 303.0281,-322.423 295.1066,-315.3873 292.448,-321.8628"/>
</g>
<!-- Node19 -->
<g id="node14" class="node">
<title>Node19</title>
<g id="a_node14"><a xlink:href="vheap_8h.html#a324d34b06d29c4d590434ad465ca1271" target="_top" xlink:title="zrtos_vheap__get_by\l_type_ex">
<polygon fill="#ffffff" stroke="#000000" points="298.5,-273.5 298.5,-303.5 408.5,-303.5 408.5,-273.5 298.5,-273.5"/>
<text text-anchor="start" x="306.5" y="-291.5" font-family="Helvetica,sans-Serif" font-size="10.00" fill="#000000">zrtos_vheap__get_by</text>
<text text-anchor="middle" x="353.5" y="-280.5" font-family="Helvetica,sans-Serif" font-size="10.00" fill="#000000">_type_ex</text>
</a>
</g>
</g>
<!-- Node18&#45;&gt;Node19 -->
<g id="edge13" class="edge">
<title>Node18&#45;&gt;Node19</title>
<path fill="none" stroke="#191970" d="M215.4741,-249.064C236.9969,-255.2134 265.6248,-263.3928 291.2274,-270.7078"/>
<polygon fill="#191970" stroke="#191970" points="290.2938,-274.0811 300.8706,-273.463 292.2169,-267.3504 290.2938,-274.0811"/>
</g>
<!-- Node22 -->
<g id="node17" class="node">
<title>Node22</title>
<g id="a_node17"><a xlink:href="vheap__chunk_8h.html#a9e677451890886104ec8623e0c5757af" target="_top" xlink:title="zrtos_vheap_chunk_\l_get_uid">
<polygon fill="#ffffff" stroke="#000000" points="300,-224.5 300,-254.5 407,-254.5 407,-224.5 300,-224.5"/>
<text text-anchor="start" x="308" y="-242.5" font-family="Helvetica,sans-Serif" font-size="10.00" fill="#000000">zrtos_vheap_chunk_</text>
<text text-anchor="middle" x="353.5" y="-231.5" font-family="Helvetica,sans-Serif" font-size="10.00" fill="#000000">_get_uid</text>
</a>
</g>
</g>
<!-- Node18&#45;&gt;Node22 -->
<g id="edge17" class="edge">
<title>Node18&#45;&gt;Node22</title>
<path fill="none" stroke="#191970" d="M217.1194,-239.5C237.9561,-239.5 265.0067,-239.5 289.5167,-239.5"/>
<polygon fill="#191970" stroke="#191970" points="289.84,-243.0001 299.84,-239.5 289.8399,-236.0001 289.84,-243.0001"/>
</g>
<!-- Node23 -->
<g id="node18" class="node">
<title>Node23</title>
<g id="a_node18"><a xlink:href="vheap__chunk__uid_8h.html#ac28b650d7254ba9c46f2e53368c5c17d" target="_top" xlink:title="zrtos_vheap_chunk_uid\l__error">
<polygon fill="#ffffff" stroke="#000000" points="294,-175.5 294,-205.5 413,-205.5 413,-175.5 294,-175.5"/>
<text text-anchor="start" x="302" y="-193.5" font-family="Helvetica,sans-Serif" font-size="10.00" fill="#000000">zrtos_vheap_chunk_uid</text>
<text text-anchor="middle" x="353.5" y="-182.5" font-family="Helvetica,sans-Serif" font-size="10.00" fill="#000000">__error</text>
</a>
</g>
</g>
<!-- Node18&#45;&gt;Node23 -->
<g id="edge18" class="edge">
<title>Node18&#45;&gt;Node23</title>
<path fill="none" stroke="#191970" d="M215.4741,-229.936C236.9969,-223.7866 265.6248,-215.6072 291.2274,-208.2922"/>
<polygon fill="#191970" stroke="#191970" points="292.2169,-211.6496 300.8706,-205.537 290.2938,-204.9189 292.2169,-211.6496"/>
</g>
<!-- Node20 -->
<g id="node15" class="node">
<title>Node20</title>
<g id="a_node15"><a xlink:href="vheap__chunk__type_8h.html#a3ba86ab73e8b4b86da90ba791d52bf27" target="_top" xlink:title="zrtos_vheap_chunk_type\l__init">
<polygon fill="#ffffff" stroke="#000000" points="467.5,-251.5 467.5,-281.5 592.5,-281.5 592.5,-251.5 467.5,-251.5"/>
<text text-anchor="start" x="475.5" y="-269.5" font-family="Helvetica,sans-Serif" font-size="10.00" fill="#000000">zrtos_vheap_chunk_type</text>
<text text-anchor="middle" x="530" y="-258.5" font-family="Helvetica,sans-Serif" font-size="10.00" fill="#000000">__init</text>
</a>
</g>
</g>
<!-- Node19&#45;&gt;Node20 -->
<g id="edge14" class="edge">
<title>Node19&#45;&gt;Node20</title>
<path fill="none" stroke="#191970" d="M408.8614,-281.5994C424.2661,-279.6793 441.2309,-277.5647 457.4629,-275.5414"/>
<polygon fill="#191970" stroke="#191970" points="457.9642,-279.0061 467.4544,-274.296 457.0983,-272.0599 457.9642,-279.0061"/>
</g>
<!-- Node21 -->
<g id="node16" class="node">
<title>Node21</title>
<g id="a_node16"><a xlink:href="vheap_8h.html#aeee007ca1180d2a9b9f5659603fe6044" target="_top" xlink:title="zrtos_vheap__get_by_type">
<polygon fill="#ffffff" stroke="#000000" points="463,-301 463,-320 597,-320 597,-301 463,-301"/>
<text text-anchor="middle" x="530" y="-308" font-family="Helvetica,sans-Serif" font-size="10.00" fill="#000000">zrtos_vheap__get_by_type</text>
</a>
</g>
</g>
<!-- Node19&#45;&gt;Node21 -->
<g id="edge15" class="edge">
<title>Node19&#45;&gt;Node21</title>
<path fill="none" stroke="#191970" d="M408.8614,-295.4006C422.7433,-297.1309 437.8922,-299.0191 452.63,-300.8561"/>
<polygon fill="#191970" stroke="#191970" points="452.3906,-304.3533 462.7468,-302.1172 453.2565,-297.4071 452.3906,-304.3533"/>
</g>
<!-- Node24 -->
<g id="node19" class="node">
<title>Node24</title>
<g id="a_node19"><a xlink:href="vheap__chunk__uid_8h.html#a25e30e50f03ae38e8c9a0aab47b04f6c" target="_top" xlink:title="zrtos_vheap_chunk_uid\l__set_error">
<polygon fill="#ffffff" stroke="#000000" points="470.5,-175.5 470.5,-205.5 589.5,-205.5 589.5,-175.5 470.5,-175.5"/>
<text text-anchor="start" x="478.5" y="-193.5" font-family="Helvetica,sans-Serif" font-size="10.00" fill="#000000">zrtos_vheap_chunk_uid</text>
<text text-anchor="middle" x="530" y="-182.5" font-family="Helvetica,sans-Serif" font-size="10.00" fill="#000000">__set_error</text>
</a>
</g>
</g>
<!-- Node23&#45;&gt;Node24 -->
<g id="edge19" class="edge">
<title>Node23&#45;&gt;Node24</title>
<path fill="none" stroke="#191970" d="M413.2548,-190.5C428.3498,-190.5 444.6907,-190.5 460.2311,-190.5"/>
<polygon fill="#191970" stroke="#191970" points="460.3067,-194.0001 470.3067,-190.5 460.3067,-187.0001 460.3067,-194.0001"/>
</g>
<!-- Node25&#45;&gt;Node13 -->
<g id="edge21" class="edge">
<title>Node25&#45;&gt;Node13</title>
<path fill="none" stroke="#191970" d="M235.7307,-104.7795C355.8876,-109.877 645.9809,-122.184 776.4728,-127.7201"/>
<polygon fill="#191970" stroke="#191970" points="776.5774,-131.2276 786.7168,-128.1547 776.8742,-124.2338 776.5774,-131.2276"/>
</g>
<!-- Node26 -->
<g id="node21" class="node">
<title>Node26</title>
<g id="a_node21"><a xlink:href="vheap__chunk_8h.html#aa70f012cfcb71ca5ed145487689738bd" target="_top" xlink:title="zrtos_vheap_chunk_\l_get_ptr">
<polygon fill="#ffffff" stroke="#000000" points="300,-49.5 300,-79.5 407,-79.5 407,-49.5 300,-49.5"/>
<text text-anchor="start" x="308" y="-67.5" font-family="Helvetica,sans-Serif" font-size="10.00" fill="#000000">zrtos_vheap_chunk_</text>
<text text-anchor="middle" x="353.5" y="-56.5" font-family="Helvetica,sans-Serif" font-size="10.00" fill="#000000">_get_ptr</text>
</a>
</g>
</g>
<!-- Node25&#45;&gt;Node26 -->
<g id="edge22" class="edge">
<title>Node25&#45;&gt;Node26</title>
<path fill="none" stroke="#191970" d="M235.7931,-90.5808C252.8734,-86.7963 271.9277,-82.5743 289.6453,-78.6486"/>
<polygon fill="#191970" stroke="#191970" points="290.8917,-81.9574 299.8977,-76.3769 289.3774,-75.1231 290.8917,-81.9574"/>
</g>
<!-- Node27 -->
<g id="node22" class="node">
<title>Node27</title>
<g id="a_node22"><a xlink:href="vheap__chunk_8h.html#a26bcd8779d88d67764f563058787008a" target="_top" xlink:title="zrtos_vheap_chunk_\l_get_length">
<polygon fill="#ffffff" stroke="#000000" points="300,-.5 300,-30.5 407,-30.5 407,-.5 300,-.5"/>
<text text-anchor="start" x="308" y="-18.5" font-family="Helvetica,sans-Serif" font-size="10.00" fill="#000000">zrtos_vheap_chunk_</text>
<text text-anchor="middle" x="353.5" y="-7.5" font-family="Helvetica,sans-Serif" font-size="10.00" fill="#000000">_get_length</text>
</a>
</g>
</g>
<!-- Node25&#45;&gt;Node27 -->
<g id="edge23" class="edge">
<title>Node25&#45;&gt;Node27</title>
<path fill="none" stroke="#191970" d="M228.7266,-87.4609C235.0977,-84.5804 241.3731,-81.2658 247,-77.5 266.334,-64.5605 263.417,-52.0595 283,-39.5 285.4488,-37.9295 288.0117,-36.4497 290.6497,-35.0567"/>
<polygon fill="#191970" stroke="#191970" points="292.3447,-38.1257 299.8521,-30.6498 289.3212,-31.8123 292.3447,-38.1257"/>
</g>
</g>
</svg>
