<?xml version="1.0" encoding="UTF-8" standalone="no"?>
<!DOCTYPE svg PUBLIC "-//W3C//DTD SVG 1.1//EN"
 "http://www.w3.org/Graphics/SVG/1.1/DTD/svg11.dtd">
<!-- Generated by graphviz version 10.0.1 (20240210.2158)
 -->
<!-- Title: zrtos_vheap_chunk__set_type Pages: 1 -->
<svg width="1262pt" height="129pt"
 viewBox="0.00 0.00 1261.75 129.00" xmlns="http://www.w3.org/2000/svg" xmlns:xlink="http://www.w3.org/1999/xlink">
<g id="graph0" class="graph" transform="scale(1 1) rotate(0) translate(4 125)">
<title>zrtos_vheap_chunk__set_type</title>
<!-- Node1 -->
<g id="Node000001" class="node">
<title>Node1</title>
<g id="a_Node000001"><a xlink:title=" ">
<polygon fill="#999999" stroke="#666666" points="1253.75,-82 1149.25,-82 1149.25,-50 1253.75,-50 1253.75,-82"/>
<text text-anchor="start" x="1157.25" y="-68.5" font-family="Helvetica,sans-Serif" font-size="10.00">zrtos_vheap_chunk_</text>
<text text-anchor="middle" x="1201.5" y="-56.5" font-family="Helvetica,sans-Serif" font-size="10.00">_set_type</text>
</a>
</g>
</g>
<!-- Node2 -->
<g id="Node000002" class="node">
<title>Node2</title>
<g id="a_Node000002"><a xlink:href="vheap_8h.html#ad63813b8a0f34f7eef0cf65af8eb8289" target="_top" xlink:title=" ">
<polygon fill="white" stroke="#666666" points="1110.25,-76 998.25,-76 998.25,-56 1110.25,-56 1110.25,-76"/>
<text text-anchor="middle" x="1054.25" y="-62.5" font-family="Helvetica,sans-Serif" font-size="10.00">zrtos_vheap__page_in</text>
</a>
</g>
</g>
<!-- Node1&#45;&gt;Node2 -->
<g id="edge1_Node000001_Node000002" class="edge">
<title>Node1&#45;&gt;Node2</title>
<g id="a_edge1_Node000001_Node000002"><a xlink:title=" ">
<path fill="none" stroke="#63b8ff" d="M1137.65,-66C1128.66,-66 1119.47,-66 1110.64,-66"/>
<polygon fill="#63b8ff" stroke="#63b8ff" points="1137.37,-69.5 1147.37,-66 1137.37,-62.5 1137.37,-69.5"/>
</a>
</g>
</g>
<!-- Node9 -->
<g id="Node000009" class="node">
<title>Node9</title>
<g id="a_Node000009"><a xlink:href="vheap__task__scheduler_8h.html#a3734a190668294fe1e91009e3cf6f72a" target="_top" xlink:title=" ">
<polygon fill="white" stroke="#666666" points="243.5,-121 104.5,-121 104.5,-89 243.5,-89 243.5,-121"/>
<text text-anchor="start" x="112.5" y="-107.5" font-family="Helvetica,sans-Serif" font-size="10.00">zrtos_vheap_task_scheduler</text>
<text text-anchor="middle" x="174" y="-95.5" font-family="Helvetica,sans-Serif" font-size="10.00">__trampoline_cb</text>
</a>
</g>
</g>
<!-- Node1&#45;&gt;Node9 -->
<g id="edge13_Node000001_Node000009" class="edge">
<title>Node1&#45;&gt;Node9</title>
<g id="a_edge13_Node000001_Node000009"><a xlink:title=" ">
<path fill="none" stroke="#63b8ff" d="M1137.55,-80.25C1075.22,-93.11 976.91,-110 890.75,-110 890.75,-110 890.75,-110 530.88,-110 431.08,-110 315.57,-108.01 243.88,-106.54"/>
<polygon fill="#63b8ff" stroke="#63b8ff" points="1138.2,-83.69 1147.27,-78.22 1136.77,-76.84 1138.2,-83.69"/>
</a>
</g>
</g>
<!-- Node11 -->
<g id="Node000011" class="node">
<title>Node11</title>
<g id="a_Node000011"><a xlink:href="vheap_8h.html#a7c64f185f189dd5e35dc36b22d1b0397" target="_top" xlink:title=" ">
<polygon fill="white" stroke="#666666" points="1113.25,-32 995.25,-32 995.25,-12 1113.25,-12 1113.25,-32"/>
<text text-anchor="middle" x="1054.25" y="-18.5" font-family="Helvetica,sans-Serif" font-size="10.00">zrtos_vheap__page_out</text>
</a>
</g>
</g>
<!-- Node1&#45;&gt;Node11 -->
<g id="edge10_Node000001_Node000011" class="edge">
<title>Node1&#45;&gt;Node11</title>
<g id="a_edge10_Node000001_Node000011"><a xlink:title=" ">
<path fill="none" stroke="#63b8ff" d="M1138.15,-47.11C1121.61,-42.1 1104.35,-36.87 1089.88,-32.49"/>
<polygon fill="#63b8ff" stroke="#63b8ff" points="1136.85,-50.38 1147.43,-49.92 1138.88,-43.68 1136.85,-50.38"/>
</a>
</g>
</g>
<!-- Node3 -->
<g id="Node000003" class="node">
<title>Node3</title>
<g id="a_Node000003"><a xlink:href="vheap__task__scheduler_8h.html#ac3ceec0a4016b00c1670ddce858c6bac" target="_top" xlink:title=" ">
<polygon fill="white" stroke="#666666" points="959.25,-82 820.25,-82 820.25,-50 959.25,-50 959.25,-82"/>
<text text-anchor="start" x="828.25" y="-68.5" font-family="Helvetica,sans-Serif" font-size="10.00">zrtos_vheap_task_scheduler</text>
<text text-anchor="middle" x="889.75" y="-56.5" font-family="Helvetica,sans-Serif" font-size="10.00">__page_task_in</text>
</a>
</g>
</g>
<!-- Node2&#45;&gt;Node3 -->
<g id="edge2_Node000002_Node000003" class="edge">
<title>Node2&#45;&gt;Node3</title>
<g id="a_edge2_Node000002_Node000003"><a xlink:title=" ">
<path fill="none" stroke="#63b8ff" d="M986.31,-66C977.45,-66 968.36,-66 959.48,-66"/>
<polygon fill="#63b8ff" stroke="#63b8ff" points="986.27,-69.5 996.27,-66 986.27,-62.5 986.27,-69.5"/>
</a>
</g>
</g>
<!-- Node4 -->
<g id="Node000004" class="node">
<title>Node4</title>
<g id="a_Node000004"><a xlink:href="vheap__task__scheduler_8h.html#af69e917ca8bd27891eb335dda8289faf" target="_top" xlink:title=" ">
<polygon fill="white" stroke="#666666" points="784.25,-32 640,-32 640,0 784.25,0 784.25,-32"/>
<text text-anchor="start" x="648" y="-18.5" font-family="Helvetica,sans-Serif" font-size="10.00">_zrtos_vheap_task_scheduler</text>
<text text-anchor="middle" x="712.12" y="-6.5" font-family="Helvetica,sans-Serif" font-size="10.00">__set_active_task</text>
</a>
</g>
</g>
<!-- Node3&#45;&gt;Node4 -->
<g id="edge3_Node000003_Node000004" class="edge">
<title>Node3&#45;&gt;Node4</title>
<g id="a_edge3_Node000003_Node000004"><a xlink:title=" ">
<path fill="none" stroke="#63b8ff" d="M820.18,-46.48C803.94,-41.85 786.77,-36.97 771.06,-32.49"/>
<polygon fill="#63b8ff" stroke="#63b8ff" points="819.21,-49.84 829.79,-49.21 821.13,-43.11 819.21,-49.84"/>
</a>
</g>
</g>
<!-- Node10 -->
<g id="Node000010" class="node">
<title>Node10</title>
<g id="a_Node000010"><a xlink:href="vheap__task__scheduler_8h.html#add5545a77a9d66f232fa03da168ca02f" target="_top" xlink:title=" ">
<polygon fill="white" stroke="#666666" points="781.62,-82 642.62,-82 642.62,-50 781.62,-50 781.62,-82"/>
<text text-anchor="start" x="650.62" y="-68.5" font-family="Helvetica,sans-Serif" font-size="10.00">zrtos_vheap_task_scheduler</text>
<text text-anchor="middle" x="712.12" y="-56.5" font-family="Helvetica,sans-Serif" font-size="10.00">__start</text>
</a>
</g>
</g>
<!-- Node3&#45;&gt;Node10 -->
<g id="edge9_Node000003_Node000010" class="edge">
<title>Node3&#45;&gt;Node10</title>
<g id="a_edge9_Node000003_Node000010"><a xlink:title=" ">
<path fill="none" stroke="#63b8ff" d="M808.39,-66C799.62,-66 790.74,-66 782.12,-66"/>
<polygon fill="#63b8ff" stroke="#63b8ff" points="808.33,-69.5 818.33,-66 808.33,-62.5 808.33,-69.5"/>
</a>
</g>
</g>
<!-- Node5 -->
<g id="Node000005" class="node">
<title>Node5</title>
<g id="a_Node000005"><a xlink:href="vheap__task__scheduler_8h.html#a1a1be02692a671c368f4e2335179a042" target="_top" xlink:title=" ">
<polygon fill="white" stroke="#666666" points="604,-38 459.75,-38 459.75,-6 604,-6 604,-38"/>
<text text-anchor="start" x="467.75" y="-24.5" font-family="Helvetica,sans-Serif" font-size="10.00">_zrtos_vheap_task_scheduler</text>
<text text-anchor="middle" x="531.88" y="-12.5" font-family="Helvetica,sans-Serif" font-size="10.00">__switch_task</text>
</a>
</g>
</g>
<!-- Node4&#45;&gt;Node5 -->
<g id="edge4_Node000004_Node000005" class="edge">
<title>Node4&#45;&gt;Node5</title>
<g id="a_edge4_Node000004_Node000005"><a xlink:title=" ">
<path fill="none" stroke="#63b8ff" d="M628.38,-18.79C620.36,-19.06 612.27,-19.33 604.37,-19.59"/>
<polygon fill="#63b8ff" stroke="#63b8ff" points="628.26,-22.29 638.14,-18.46 628.03,-15.3 628.26,-22.29"/>
</a>
</g>
</g>
<!-- Node6 -->
<g id="Node000006" class="node">
<title>Node6</title>
<g id="a_Node000006"><a xlink:href="vheap__task__scheduler_8h.html#acd810187c2b0b8d63548170c9da4b73d" target="_top" xlink:title=" ">
<polygon fill="white" stroke="#666666" points="423.75,-60 279.5,-60 279.5,-28 423.75,-28 423.75,-60"/>
<text text-anchor="start" x="287.5" y="-46.5" font-family="Helvetica,sans-Serif" font-size="10.00">_zrtos_vheap_task_scheduler</text>
<text text-anchor="middle" x="351.62" y="-34.5" font-family="Helvetica,sans-Serif" font-size="10.00">__on_tick</text>
</a>
</g>
</g>
<!-- Node5&#45;&gt;Node6 -->
<g id="edge5_Node000005_Node000006" class="edge">
<title>Node5&#45;&gt;Node6</title>
<g id="a_edge5_Node000005_Node000006"><a xlink:title=" ">
<path fill="none" stroke="#63b8ff" d="M448.13,-32.21C440.11,-33.2 432.02,-34.2 424.12,-35.18"/>
<polygon fill="#63b8ff" stroke="#63b8ff" points="448.4,-35.71 457.9,-31.01 447.55,-28.76 448.4,-35.71"/>
</a>
</g>
</g>
<!-- Node7 -->
<g id="Node000007" class="node">
<title>Node7</title>
<g id="a_Node000007"><a xlink:href="vheap__task__scheduler_8h.html#a51ae476e29565ebfde1ec3340150ca06" target="_top" xlink:title=" ">
<polygon fill="white" stroke="#666666" points="243.5,-60 104.5,-60 104.5,-28 243.5,-28 243.5,-60"/>
<text text-anchor="start" x="112.5" y="-46.5" font-family="Helvetica,sans-Serif" font-size="10.00">zrtos_vheap_task_scheduler</text>
<text text-anchor="middle" x="174" y="-34.5" font-family="Helvetica,sans-Serif" font-size="10.00">__delay_ms</text>
</a>
</g>
</g>
<!-- Node6&#45;&gt;Node7 -->
<g id="edge6_Node000006_Node000007" class="edge">
<title>Node6&#45;&gt;Node7</title>
<g id="a_edge6_Node000006_Node000007"><a xlink:title=" ">
<path fill="none" stroke="#63b8ff" d="M267.87,-44C259.82,-44 251.71,-44 243.81,-44"/>
<polygon fill="#63b8ff" stroke="#63b8ff" points="267.68,-47.5 277.68,-44 267.68,-40.5 267.68,-47.5"/>
</a>
</g>
</g>
<!-- Node6&#45;&gt;Node9 -->
<g id="edge8_Node000006_Node000009" class="edge">
<title>Node6&#45;&gt;Node9</title>
<g id="a_edge8_Node000006_Node000009"><a xlink:title=" ">
<path fill="none" stroke="#63b8ff" d="M292.98,-64.02C270.15,-71.95 244.22,-80.96 222.5,-88.5"/>
<polygon fill="#63b8ff" stroke="#63b8ff" points="293.83,-67.43 302.13,-60.84 291.54,-60.82 293.83,-67.43"/>
</a>
</g>
</g>
<!-- Node8 -->
<g id="Node000008" class="node">
<title>Node8</title>
<g id="a_Node000008"><a xlink:href="vheap__task__pthread_8h.html#a28a15bba47cab57cbc9f5dac9af99c8b" target="_top" xlink:title=" ">
<polygon fill="white" stroke="#666666" points="68.5,-54 0,-54 0,-34 68.5,-34 68.5,-54"/>
<text text-anchor="middle" x="34.25" y="-40.5" font-family="Helvetica,sans-Serif" font-size="10.00">pthread_join</text>
</a>
</g>
</g>
<!-- Node7&#45;&gt;Node8 -->
<g id="edge7_Node000007_Node000008" class="edge">
<title>Node7&#45;&gt;Node8</title>
<g id="a_edge7_Node000007_Node000008"><a xlink:title=" ">
<path fill="none" stroke="#63b8ff" d="M92.7,-44C84.38,-44 76.3,-44 68.95,-44"/>
<polygon fill="#63b8ff" stroke="#63b8ff" points="92.61,-47.5 102.61,-44 92.61,-40.5 92.61,-47.5"/>
</a>
</g>
</g>
<!-- Node12 -->
<g id="Node000012" class="node">
<title>Node12</title>
<g id="a_Node000012"><a xlink:href="vheap__task__scheduler_8h.html#aff9fd65d1ee753d63d6749a7d18ccb05" target="_top" xlink:title=" ">
<polygon fill="white" stroke="#666666" points="959.25,-32 820.25,-32 820.25,0 959.25,0 959.25,-32"/>
<text text-anchor="start" x="828.25" y="-18.5" font-family="Helvetica,sans-Serif" font-size="10.00">zrtos_vheap_task_scheduler</text>
<text text-anchor="middle" x="889.75" y="-6.5" font-family="Helvetica,sans-Serif" font-size="10.00">__page_task_out</text>
</a>
</g>
</g>
<!-- Node11&#45;&gt;Node12 -->
<g id="edge11_Node000011_Node000012" class="edge">
<title>Node11&#45;&gt;Node12</title>
<g id="a_edge11_Node000011_Node000012"><a xlink:title=" ">
<path fill="none" stroke="#63b8ff" d="M983.57,-19.43C975.64,-19.13 967.56,-18.84 959.64,-18.54"/>
<polygon fill="#63b8ff" stroke="#63b8ff" points="983.41,-22.92 993.53,-19.79 983.67,-15.93 983.41,-22.92"/>
</a>
</g>
</g>
<!-- Node12&#45;&gt;Node4 -->
<g id="edge12_Node000012_Node000004" class="edge">
<title>Node12&#45;&gt;Node4</title>
<g id="a_edge12_Node000012_Node000004"><a xlink:title=" ">
<path fill="none" stroke="#63b8ff" d="M808.37,-16C800.49,-16 792.52,-16 784.72,-16"/>
<polygon fill="#63b8ff" stroke="#63b8ff" points="808.33,-19.5 818.33,-16 808.33,-12.5 808.33,-19.5"/>
</a>
</g>
</g>
</g>
</svg>
