<?xml version="1.0" encoding="UTF-8" standalone="no"?>
<!DOCTYPE svg PUBLIC "-//W3C//DTD SVG 1.1//EN"
 "http://www.w3.org/Graphics/SVG/1.1/DTD/svg11.dtd">
<!-- Generated by graphviz version 10.0.1 (20240210.2158)
 -->
<!-- Title: zrtos_vheap_task_scheduler__get_heap Pages: 1 -->
<svg width="1323pt" height="429pt"
 viewBox="0.00 0.00 1322.50 428.92" xmlns="http://www.w3.org/2000/svg" xmlns:xlink="http://www.w3.org/1999/xlink">
<g id="graph0" class="graph" transform="scale(1 1) rotate(0) translate(4 424.92)">
<title>zrtos_vheap_task_scheduler__get_heap</title>
<!-- Node1 -->
<g id="Node000001" class="node">
<title>Node1</title>
<g id="a_Node000001"><a xlink:title=" ">
<polygon fill="#999999" stroke="#666666" points="1314.5,-219 1175.5,-219 1175.5,-187 1314.5,-187 1314.5,-219"/>
<text text-anchor="start" x="1183.5" y="-205.5" font-family="Helvetica,sans-Serif" font-size="10.00">zrtos_vheap_task_scheduler</text>
<text text-anchor="middle" x="1245" y="-193.5" font-family="Helvetica,sans-Serif" font-size="10.00">__get_heap</text>
</a>
</g>
</g>
<!-- Node2 -->
<g id="Node000002" class="node">
<title>Node2</title>
<g id="a_Node000002"><a xlink:href="vheap__task__scheduler_8h.html#a525247f445d250b1eb2aff8eadaa0c87" target="_top" xlink:title=" ">
<polygon fill="white" stroke="#666666" points="1139.5,-339 995.25,-339 995.25,-307 1139.5,-307 1139.5,-339"/>
<text text-anchor="start" x="1003.25" y="-325.5" font-family="Helvetica,sans-Serif" font-size="10.00">_zrtos_vheap_task_scheduler</text>
<text text-anchor="middle" x="1067.38" y="-313.5" font-family="Helvetica,sans-Serif" font-size="10.00">__get_active_task</text>
</a>
</g>
</g>
<!-- Node1&#45;&gt;Node2 -->
<g id="edge1_Node000001_Node000002" class="edge">
<title>Node1&#45;&gt;Node2</title>
<g id="a_edge1_Node000001_Node000002"><a xlink:title=" ">
<path fill="none" stroke="#63b8ff" d="M1220.28,-227.27C1200.14,-246.88 1169.77,-274.23 1139.5,-293 1131.3,-298.08 1122.09,-302.68 1113.08,-306.66"/>
<polygon fill="#63b8ff" stroke="#63b8ff" points="1222.53,-229.97 1227.18,-220.44 1217.61,-224.99 1222.53,-229.97"/>
</a>
</g>
</g>
<!-- Node4 -->
<g id="Node000004" class="node">
<title>Node4</title>
<g id="a_Node000004"><a xlink:href="vheap__task__pthread_8h.html#a28a15bba47cab57cbc9f5dac9af99c8b" target="_top" xlink:title=" ">
<polygon fill="white" stroke="#666666" points="68.5,-389 0,-389 0,-369 68.5,-369 68.5,-389"/>
<text text-anchor="middle" x="34.25" y="-375.5" font-family="Helvetica,sans-Serif" font-size="10.00">pthread_join</text>
</a>
</g>
</g>
<!-- Node1&#45;&gt;Node4 -->
<g id="edge16_Node000001_Node000004" class="edge">
<title>Node1&#45;&gt;Node4</title>
<g id="a_edge16_Node000001_Node000004"><a xlink:title=" ">
<path fill="none" stroke="#63b8ff" d="M1235.75,-229.71C1222.29,-268.48 1191.74,-339.56 1139.5,-375 1046.71,-437.94 1002.87,-417 890.75,-417 890.75,-417 890.75,-417 350.62,-417 247.22,-417 126.11,-396.61 68.7,-385.7"/>
<polygon fill="#63b8ff" stroke="#63b8ff" points="1238.92,-231.27 1238.76,-220.67 1232.28,-229.05 1238.92,-231.27"/>
</a>
</g>
</g>
<!-- Node5 -->
<g id="Node000005" class="node">
<title>Node5</title>
<g id="a_Node000005"><a xlink:href="vheap__task__scheduler_8h.html#ac3ceec0a4016b00c1670ddce858c6bac" target="_top" xlink:title=" ">
<polygon fill="white" stroke="#666666" points="959.25,-263 820.25,-263 820.25,-231 959.25,-231 959.25,-263"/>
<text text-anchor="start" x="828.25" y="-249.5" font-family="Helvetica,sans-Serif" font-size="10.00">zrtos_vheap_task_scheduler</text>
<text text-anchor="middle" x="889.75" y="-237.5" font-family="Helvetica,sans-Serif" font-size="10.00">__page_task_in</text>
</a>
</g>
</g>
<!-- Node1&#45;&gt;Node5 -->
<g id="edge21_Node000001_Node000005" class="edge">
<title>Node1&#45;&gt;Node5</title>
<g id="a_edge21_Node000001_Node000005"><a xlink:title=" ">
<path fill="none" stroke="#63b8ff" d="M1163.94,-213.83C1155.69,-214.92 1147.43,-215.99 1139.5,-217 1078.77,-224.73 1009.62,-233.03 959.67,-238.93"/>
<polygon fill="#63b8ff" stroke="#63b8ff" points="1164.2,-217.33 1173.66,-212.55 1163.29,-210.39 1164.2,-217.33"/>
</a>
</g>
</g>
<!-- Node6 -->
<g id="Node000006" class="node">
<title>Node6</title>
<g id="a_Node000006"><a xlink:href="vheap__task__scheduler_8h.html#af69e917ca8bd27891eb335dda8289faf" target="_top" xlink:title=" ">
<polygon fill="white" stroke="#666666" points="784.25,-307 640,-307 640,-275 784.25,-275 784.25,-307"/>
<text text-anchor="start" x="648" y="-293.5" font-family="Helvetica,sans-Serif" font-size="10.00">_zrtos_vheap_task_scheduler</text>
<text text-anchor="middle" x="712.12" y="-281.5" font-family="Helvetica,sans-Serif" font-size="10.00">__set_active_task</text>
</a>
</g>
</g>
<!-- Node1&#45;&gt;Node6 -->
<g id="edge13_Node000001_Node000006" class="edge">
<title>Node1&#45;&gt;Node6</title>
<g id="a_edge13_Node000001_Node000006"><a xlink:title=" ">
<path fill="none" stroke="#63b8ff" d="M1233.99,-229.36C1219.26,-263.94 1188.1,-323.12 1139.5,-348 1006.21,-416.23 820.17,-342.62 745.76,-307.49"/>
<polygon fill="#63b8ff" stroke="#63b8ff" points="1237.08,-231.06 1237.63,-220.48 1230.6,-228.41 1237.08,-231.06"/>
</a>
</g>
</g>
<!-- Node7 -->
<g id="Node000007" class="node">
<title>Node7</title>
<g id="a_Node000007"><a xlink:href="vheap__task__scheduler_8h.html#a1a1be02692a671c368f4e2335179a042" target="_top" xlink:title=" ">
<polygon fill="white" stroke="#666666" points="604,-187 459.75,-187 459.75,-155 604,-155 604,-187"/>
<text text-anchor="start" x="467.75" y="-173.5" font-family="Helvetica,sans-Serif" font-size="10.00">_zrtos_vheap_task_scheduler</text>
<text text-anchor="middle" x="531.88" y="-161.5" font-family="Helvetica,sans-Serif" font-size="10.00">__switch_task</text>
</a>
</g>
</g>
<!-- Node1&#45;&gt;Node7 -->
<g id="edge14_Node000001_Node000007" class="edge">
<title>Node1&#45;&gt;Node7</title>
<g id="a_edge14_Node000001_Node000007"><a xlink:title=" ">
<path fill="none" stroke="#63b8ff" d="M1163.85,-184.79C1048.07,-160.91 827.34,-124.43 640,-146 624.44,-147.79 607.86,-151 592.51,-154.53"/>
<polygon fill="#63b8ff" stroke="#63b8ff" points="1163.08,-188.2 1173.58,-186.82 1164.51,-181.35 1163.08,-188.2"/>
</a>
</g>
</g>
<!-- Node9 -->
<g id="Node000009" class="node">
<title>Node9</title>
<g id="a_Node000009"><a xlink:href="vheap__task__scheduler_8h.html#a3734a190668294fe1e91009e3cf6f72a" target="_top" xlink:title=" ">
<polygon fill="white" stroke="#666666" points="243.5,-108 104.5,-108 104.5,-76 243.5,-76 243.5,-108"/>
<text text-anchor="start" x="112.5" y="-94.5" font-family="Helvetica,sans-Serif" font-size="10.00">zrtos_vheap_task_scheduler</text>
<text text-anchor="middle" x="174" y="-82.5" font-family="Helvetica,sans-Serif" font-size="10.00">__trampoline_cb</text>
</a>
</g>
</g>
<!-- Node1&#45;&gt;Node9 -->
<g id="edge24_Node000001_Node000009" class="edge">
<title>Node1&#45;&gt;Node9</title>
<g id="a_edge24_Node000001_Node000009"><a xlink:title=" ">
<path fill="none" stroke="#63b8ff" d="M1236.12,-175.86C1223.12,-136.53 1193.13,-64.82 1139.5,-32 1044.93,25.89 1001.63,-13 890.75,-13 890.75,-13 890.75,-13 530.88,-13 416.48,-13 286.22,-52.38 219.52,-75.53"/>
<polygon fill="#63b8ff" stroke="#63b8ff" points="1232.74,-176.79 1239.09,-185.27 1239.42,-174.68 1232.74,-176.79"/>
</a>
</g>
</g>
<!-- Node10 -->
<g id="Node000010" class="node">
<title>Node10</title>
<g id="a_Node000010"><a xlink:href="vheap__task__scheduler_8h.html#add5545a77a9d66f232fa03da168ca02f" target="_top" xlink:title=" ">
<polygon fill="white" stroke="#666666" points="781.62,-244 642.62,-244 642.62,-212 781.62,-212 781.62,-244"/>
<text text-anchor="start" x="650.62" y="-230.5" font-family="Helvetica,sans-Serif" font-size="10.00">zrtos_vheap_task_scheduler</text>
<text text-anchor="middle" x="712.12" y="-218.5" font-family="Helvetica,sans-Serif" font-size="10.00">__start</text>
</a>
</g>
</g>
<!-- Node1&#45;&gt;Node10 -->
<g id="edge23_Node000001_Node000010" class="edge">
<title>Node1&#45;&gt;Node10</title>
<g id="a_edge23_Node000001_Node000010"><a xlink:title=" ">
<path fill="none" stroke="#63b8ff" d="M1163.96,-206.32C1078.75,-209.92 939.96,-215.96 820.25,-222 807.88,-222.62 794.71,-223.32 781.98,-224.03"/>
<polygon fill="#63b8ff" stroke="#63b8ff" points="1164.01,-209.82 1173.85,-205.9 1163.71,-202.83 1164.01,-209.82"/>
</a>
</g>
</g>
<!-- Node11 -->
<g id="Node000011" class="node">
<title>Node11</title>
<g id="a_Node000011"><a xlink:href="vheap__task__scheduler_8h.html#aff9fd65d1ee753d63d6749a7d18ccb05" target="_top" xlink:title=" ">
<polygon fill="white" stroke="#666666" points="959.25,-313 820.25,-313 820.25,-281 959.25,-281 959.25,-313"/>
<text text-anchor="start" x="828.25" y="-299.5" font-family="Helvetica,sans-Serif" font-size="10.00">zrtos_vheap_task_scheduler</text>
<text text-anchor="middle" x="889.75" y="-287.5" font-family="Helvetica,sans-Serif" font-size="10.00">__page_task_out</text>
</a>
</g>
</g>
<!-- Node1&#45;&gt;Node11 -->
<g id="edge22_Node000001_Node000011" class="edge">
<title>Node1&#45;&gt;Node11</title>
<g id="a_edge22_Node000001_Node000011"><a xlink:title=" ">
<path fill="none" stroke="#63b8ff" d="M1188.88,-223.17C1173.05,-228.64 1155.68,-234.34 1139.5,-239 1079.31,-256.33 1009.81,-272.19 959.6,-282.93"/>
<polygon fill="#63b8ff" stroke="#63b8ff" points="1189.86,-226.54 1198.14,-219.93 1187.55,-219.93 1189.86,-226.54"/>
</a>
</g>
</g>
<!-- Node12 -->
<g id="Node000012" class="node">
<title>Node12</title>
<g id="a_Node000012"><a xlink:href="vheap__task__pthread_8h.html#a091adcef6201bebbf231763328c15286" target="_top" xlink:title=" ">
<polygon fill="white" stroke="#666666" points="930,-80 849.5,-80 849.5,-60 930,-60 930,-80"/>
<text text-anchor="middle" x="889.75" y="-66.5" font-family="Helvetica,sans-Serif" font-size="10.00">pthread_create</text>
</a>
</g>
</g>
<!-- Node1&#45;&gt;Node12 -->
<g id="edge15_Node000001_Node000012" class="edge">
<title>Node1&#45;&gt;Node12</title>
<g id="a_edge15_Node000001_Node000012"><a xlink:title=" ">
<path fill="none" stroke="#63b8ff" d="M1222.66,-178.3C1203.18,-157.44 1172.46,-128.56 1139.5,-113 1070.74,-80.53 980.92,-72.32 930.18,-70.4"/>
<polygon fill="#63b8ff" stroke="#63b8ff" points="1219.96,-180.53 1229.28,-185.57 1225.13,-175.82 1219.96,-180.53"/>
</a>
</g>
</g>
<!-- Node13 -->
<g id="Node000013" class="node">
<title>Node13</title>
<g id="a_Node000013"><a xlink:href="vheap__task__pthread_8h.html#a4c4f5f3b4f8f45d9d897847d53b11aaa" target="_top" xlink:title=" ">
<polygon fill="white" stroke="#666666" points="1101.62,-61 1033.12,-61 1033.12,-41 1101.62,-41 1101.62,-61"/>
<text text-anchor="middle" x="1067.38" y="-47.5" font-family="Helvetica,sans-Serif" font-size="10.00">pthread_self</text>
</a>
</g>
</g>
<!-- Node1&#45;&gt;Node13 -->
<g id="edge17_Node000001_Node000013" class="edge">
<title>Node1&#45;&gt;Node13</title>
<g id="a_edge17_Node000001_Node000013"><a xlink:title=" ">
<path fill="none" stroke="#63b8ff" d="M1229.03,-177C1211.18,-148.18 1178.78,-102.2 1139.5,-75 1128.36,-67.28 1114.53,-61.87 1102.04,-58.17"/>
<polygon fill="#63b8ff" stroke="#63b8ff" points="1225.98,-178.72 1234.15,-185.47 1231.97,-175.11 1225.98,-178.72"/>
</a>
</g>
</g>
<!-- Node14 -->
<g id="Node000014" class="node">
<title>Node14</title>
<g id="a_Node000014"><a xlink:href="vheap__task__scheduler_8h.html#a99d7655ba93c186077c9de6a6f310c43" target="_top" xlink:title=" ">
<polygon fill="white" stroke="#666666" points="782,-187 642.25,-187 642.25,-155 782,-155 782,-187"/>
<text text-anchor="start" x="650.25" y="-173.5" font-family="Helvetica,sans-Serif" font-size="10.00">zrtos_vheap_task_scheduler</text>
<text text-anchor="middle" x="712.12" y="-161.5" font-family="Helvetica,sans-Serif" font-size="10.00">__has_enough_stack_space</text>
</a>
</g>
</g>
<!-- Node1&#45;&gt;Node14 -->
<g id="edge19_Node000001_Node000014" class="edge">
<title>Node1&#45;&gt;Node14</title>
<g id="a_edge19_Node000001_Node000014"><a xlink:title=" ">
<path fill="none" stroke="#63b8ff" d="M1163.78,-198.16C1059.88,-191.9 880.47,-181.08 782.28,-175.17"/>
<polygon fill="#63b8ff" stroke="#63b8ff" points="1163.44,-201.65 1173.63,-198.75 1163.86,-194.66 1163.44,-201.65"/>
</a>
</g>
</g>
<!-- Node3 -->
<g id="Node000003" class="node">
<title>Node3</title>
<g id="a_Node000003"><a xlink:href="vheap__task__scheduler_8h.html#a51ae476e29565ebfde1ec3340150ca06" target="_top" xlink:title=" ">
<polygon fill="white" stroke="#666666" points="243.5,-357 104.5,-357 104.5,-325 243.5,-325 243.5,-357"/>
<text text-anchor="start" x="112.5" y="-343.5" font-family="Helvetica,sans-Serif" font-size="10.00">zrtos_vheap_task_scheduler</text>
<text text-anchor="middle" x="174" y="-331.5" font-family="Helvetica,sans-Serif" font-size="10.00">__delay_ms</text>
</a>
</g>
</g>
<!-- Node2&#45;&gt;Node3 -->
<g id="edge2_Node000002_Node000003" class="edge">
<title>Node2&#45;&gt;Node3</title>
<g id="a_edge2_Node000002_Node000003"><a xlink:title=" ">
<path fill="none" stroke="#63b8ff" d="M983.87,-329.58C912.32,-334.72 805.95,-341 713.12,-341 713.12,-341 713.12,-341 530.88,-341 431.09,-341 315.58,-341 243.89,-341"/>
<polygon fill="#63b8ff" stroke="#63b8ff" points="983.82,-333.09 993.54,-328.88 983.31,-326.11 983.82,-333.09"/>
</a>
</g>
</g>
<!-- Node2&#45;&gt;Node5 -->
<g id="edge4_Node000002_Node000005" class="edge">
<title>Node2&#45;&gt;Node5</title>
<g id="a_edge4_Node000002_Node000005"><a xlink:title=" ">
<path fill="none" stroke="#63b8ff" d="M1023.83,-301.61C1004.34,-292.1 980.83,-281.05 959.25,-272 952.36,-269.11 945.01,-266.22 937.78,-263.49"/>
<polygon fill="#63b8ff" stroke="#63b8ff" points="1022.04,-304.63 1032.56,-305.89 1025.13,-298.34 1022.04,-304.63"/>
</a>
</g>
</g>
<!-- Node2&#45;&gt;Node11 -->
<g id="edge11_Node000002_Node000011" class="edge">
<title>Node2&#45;&gt;Node11</title>
<g id="a_edge11_Node000002_Node000011"><a xlink:title=" ">
<path fill="none" stroke="#63b8ff" d="M983.62,-310.75C975.57,-309.55 967.46,-308.35 959.56,-307.18"/>
<polygon fill="#63b8ff" stroke="#63b8ff" points="983.04,-314.2 993.44,-312.2 984.06,-307.27 983.04,-314.2"/>
</a>
</g>
</g>
<!-- Node3&#45;&gt;Node4 -->
<g id="edge3_Node000003_Node000004" class="edge">
<title>Node3&#45;&gt;Node4</title>
<g id="a_edge3_Node000003_Node000004"><a xlink:title=" ">
<path fill="none" stroke="#63b8ff" d="M102.58,-360.42C90.8,-363.67 79.08,-366.91 68.79,-369.74"/>
<polygon fill="#63b8ff" stroke="#63b8ff" points="103.21,-363.88 111.92,-357.85 101.35,-357.13 103.21,-363.88"/>
</a>
</g>
</g>
<!-- Node5&#45;&gt;Node6 -->
<g id="edge5_Node000005_Node000006" class="edge">
<title>Node5&#45;&gt;Node6</title>
<g id="a_edge5_Node000005_Node000006"><a xlink:title=" ">
<path fill="none" stroke="#63b8ff" d="M812.16,-266.19C801.1,-268.96 789.8,-271.79 778.98,-274.5"/>
<polygon fill="#63b8ff" stroke="#63b8ff" points="812.79,-269.64 821.64,-263.81 811.09,-262.85 812.79,-269.64"/>
</a>
</g>
</g>
<!-- Node5&#45;&gt;Node10 -->
<g id="edge10_Node000005_Node000010" class="edge">
<title>Node5&#45;&gt;Node10</title>
<g id="a_edge10_Node000005_Node000010"><a xlink:title=" ">
<path fill="none" stroke="#63b8ff" d="M808.69,-238.34C799.82,-237.38 790.84,-236.4 782.12,-235.46"/>
<polygon fill="#63b8ff" stroke="#63b8ff" points="808.02,-241.78 818.34,-239.38 808.77,-234.82 808.02,-241.78"/>
</a>
</g>
</g>
<!-- Node6&#45;&gt;Node7 -->
<g id="edge6_Node000006_Node000007" class="edge">
<title>Node6&#45;&gt;Node7</title>
<g id="a_edge6_Node000006_Node000007"><a xlink:title=" ">
<path fill="none" stroke="#63b8ff" d="M667.94,-269.37C658.56,-264.28 648.82,-258.67 640,-253 607.9,-232.33 573.25,-204.74 552.31,-187.42"/>
<polygon fill="#63b8ff" stroke="#63b8ff" points="666.1,-272.36 676.57,-273.97 669.39,-266.18 666.1,-272.36"/>
</a>
</g>
</g>
<!-- Node8 -->
<g id="Node000008" class="node">
<title>Node8</title>
<g id="a_Node000008"><a xlink:href="vheap__task__scheduler_8h.html#acd810187c2b0b8d63548170c9da4b73d" target="_top" xlink:title=" ">
<polygon fill="white" stroke="#666666" points="423.75,-187 279.5,-187 279.5,-155 423.75,-155 423.75,-187"/>
<text text-anchor="start" x="287.5" y="-173.5" font-family="Helvetica,sans-Serif" font-size="10.00">_zrtos_vheap_task_scheduler</text>
<text text-anchor="middle" x="351.62" y="-161.5" font-family="Helvetica,sans-Serif" font-size="10.00">__on_tick</text>
</a>
</g>
</g>
<!-- Node7&#45;&gt;Node8 -->
<g id="edge7_Node000007_Node000008" class="edge">
<title>Node7&#45;&gt;Node8</title>
<g id="a_edge7_Node000007_Node000008"><a xlink:title=" ">
<path fill="none" stroke="#63b8ff" d="M448.13,-171C440.11,-171 432.02,-171 424.12,-171"/>
<polygon fill="#63b8ff" stroke="#63b8ff" points="447.89,-174.5 457.89,-171 447.89,-167.5 447.89,-174.5"/>
</a>
</g>
</g>
<!-- Node8&#45;&gt;Node3 -->
<g id="edge8_Node000008_Node000003" class="edge">
<title>Node8&#45;&gt;Node3</title>
<g id="a_edge8_Node000008_Node000003"><a xlink:title=" ">
<path fill="none" stroke="#63b8ff" d="M325.66,-195.16C289.33,-230.33 222.83,-294.7 191.79,-324.75"/>
<polygon fill="#63b8ff" stroke="#63b8ff" points="327.95,-197.82 332.7,-188.35 323.08,-192.79 327.95,-197.82"/>
</a>
</g>
</g>
<!-- Node8&#45;&gt;Node9 -->
<g id="edge9_Node000008_Node000009" class="edge">
<title>Node8&#45;&gt;Node9</title>
<g id="a_edge9_Node000008_Node000009"><a xlink:title=" ">
<path fill="none" stroke="#63b8ff" d="M303.97,-150.01C275.06,-137 238.46,-120.54 211.64,-108.48"/>
<polygon fill="#63b8ff" stroke="#63b8ff" points="302.3,-153.1 312.86,-154.01 305.17,-146.71 302.3,-153.1"/>
</a>
</g>
</g>
<!-- Node11&#45;&gt;Node6 -->
<g id="edge12_Node000011_Node000006" class="edge">
<title>Node11&#45;&gt;Node6</title>
<g id="a_edge12_Node000011_Node000006"><a xlink:title=" ">
<path fill="none" stroke="#63b8ff" d="M808.37,-294.25C800.49,-293.98 792.52,-293.71 784.72,-293.44"/>
<polygon fill="#63b8ff" stroke="#63b8ff" points="808.22,-297.75 818.33,-294.59 808.46,-290.75 808.22,-297.75"/>
</a>
</g>
</g>
<!-- Node13&#45;&gt;Node12 -->
<g id="edge18_Node000013_Node000012" class="edge">
<title>Node13&#45;&gt;Node12</title>
<g id="a_edge18_Node000013_Node000012"><a xlink:title=" ">
<path fill="none" stroke="#63b8ff" d="M1021.76,-55.82C993.54,-58.88 957.39,-62.79 930.21,-65.73"/>
<polygon fill="#63b8ff" stroke="#63b8ff" points="1021.86,-59.33 1031.42,-54.78 1021.1,-52.37 1021.86,-59.33"/>
</a>
</g>
</g>
<!-- Node14&#45;&gt;Node7 -->
<g id="edge20_Node000014_Node000007" class="edge">
<title>Node14&#45;&gt;Node7</title>
<g id="a_edge20_Node000014_Node000007"><a xlink:title=" ">
<path fill="none" stroke="#63b8ff" d="M630.56,-171C621.83,-171 612.98,-171 604.36,-171"/>
<polygon fill="#63b8ff" stroke="#63b8ff" points="630.44,-174.5 640.44,-171 630.44,-167.5 630.44,-174.5"/>
</a>
</g>
</g>
</g>
</svg>
