<?xml version="1.0" encoding="UTF-8" standalone="no"?>
<!DOCTYPE svg PUBLIC "-//W3C//DTD SVG 1.1//EN"
 "http://www.w3.org/Graphics/SVG/1.1/DTD/svg11.dtd">
<!-- Generated by graphviz version 10.0.1 (20240210.2158)
 -->
<!-- Title: _zrtos_vheap__free Pages: 1 -->
<svg width="443pt" height="28pt"
 viewBox="0.00 0.00 443.00 28.00" xmlns="http://www.w3.org/2000/svg" xmlns:xlink="http://www.w3.org/1999/xlink">
<g id="graph0" class="graph" transform="scale(1 1) rotate(0) translate(4 24)">
<title>_zrtos_vheap__free</title>
<!-- Node1 -->
<g id="Node000001" class="node">
<title>Node1</title>
<g id="a_Node000001"><a xlink:title=" ">
<polygon fill="#999999" stroke="#666666" points="99.25,-20 0,-20 0,0 99.25,0 99.25,-20"/>
<text text-anchor="middle" x="49.62" y="-6.5" font-family="Helvetica,sans-Serif" font-size="10.00">_zrtos_vheap__free</text>
</a>
</g>
</g>
<!-- Node2 -->
<g id="Node000002" class="node">
<title>Node2</title>
<g id="a_Node000002"><a xlink:href="vheap_8h.html#a8a3fefca8c0f8ef89bea12c8cf3a7eaa" target="_top" xlink:title=" ">
<polygon fill="white" stroke="#666666" points="252.5,-20 135.25,-20 135.25,0 252.5,0 252.5,-20"/>
<text text-anchor="middle" x="193.88" y="-6.5" font-family="Helvetica,sans-Serif" font-size="10.00">zrtos_vheap__get_child</text>
</a>
</g>
</g>
<!-- Node1&#45;&gt;Node2 -->
<g id="edge1_Node000001_Node000002" class="edge">
<title>Node1&#45;&gt;Node2</title>
<g id="a_edge1_Node000001_Node000002"><a xlink:title=" ">
<path fill="none" stroke="#63b8ff" d="M99.58,-10C107.34,-10 115.48,-10 123.6,-10"/>
<polygon fill="#63b8ff" stroke="#63b8ff" points="123.49,-13.5 133.49,-10 123.49,-6.5 123.49,-13.5"/>
</a>
</g>
</g>
<!-- Node3 -->
<g id="Node000003" class="node">
<title>Node3</title>
<g id="a_Node000003"><a xlink:href="vheap__chunk__uid_8h.html#a5ea1de04848149211440781876259490" target="_top" xlink:title=" ">
<polygon fill="white" stroke="#666666" points="435,-20 288.5,-20 288.5,0 435,0 435,-20"/>
<text text-anchor="middle" x="361.75" y="-6.5" font-family="Helvetica,sans-Serif" font-size="10.00">zrtos_vheap_chunk_uid__cmp</text>
</a>
</g>
</g>
<!-- Node2&#45;&gt;Node3 -->
<g id="edge2_Node000002_Node000003" class="edge">
<title>Node2&#45;&gt;Node3</title>
<g id="a_edge2_Node000002_Node000003"><a xlink:title=" ">
<path fill="none" stroke="#63b8ff" d="M252.89,-10C260.64,-10 268.7,-10 276.78,-10"/>
<polygon fill="#63b8ff" stroke="#63b8ff" points="276.67,-13.5 286.67,-10 276.67,-6.5 276.67,-13.5"/>
</a>
</g>
</g>
</g>
</svg>
