<?xml version="1.0" encoding="UTF-8" standalone="no"?>
<!DOCTYPE svg PUBLIC "-//W3C//DTD SVG 1.1//EN"
 "http://www.w3.org/Graphics/SVG/1.1/DTD/svg11.dtd">
<!-- Generated by graphviz version 10.0.1 (20240210.2158)
 -->
<!-- Title: zrtos_vheap_chunk__get_last_address Pages: 1 -->
<svg width="258pt" height="128pt"
 viewBox="0.00 0.00 258.25 128.00" xmlns="http://www.w3.org/2000/svg" xmlns:xlink="http://www.w3.org/1999/xlink">
<g id="graph0" class="graph" transform="scale(1 1) rotate(0) translate(4 124)">
<title>zrtos_vheap_chunk__get_last_address</title>
<!-- Node1 -->
<g id="Node000001" class="node">
<title>Node1</title>
<g id="a_Node000001"><a xlink:title=" ">
<polygon fill="#999999" stroke="#666666" points="104.5,-82 0,-82 0,-50 104.5,-50 104.5,-82"/>
<text text-anchor="start" x="8" y="-68.5" font-family="Helvetica,sans-Serif" font-size="10.00">zrtos_vheap_chunk_</text>
<text text-anchor="middle" x="52.25" y="-56.5" font-family="Helvetica,sans-Serif" font-size="10.00">_get_last_address</text>
</a>
</g>
</g>
<!-- Node2 -->
<g id="Node000002" class="node">
<title>Node2</title>
<g id="a_Node000002"><a xlink:href="types_8h.html#ab0b4ddf54b9e9f4a54504f833babbc1c" target="_top" xlink:title=" ">
<polygon fill="white" stroke="#666666" points="250.25,-120 140.5,-120 140.5,-100 250.25,-100 250.25,-120"/>
<text text-anchor="middle" x="195.38" y="-106.5" font-family="Helvetica,sans-Serif" font-size="10.00">zrtos_types__ptr_add</text>
</a>
</g>
</g>
<!-- Node1&#45;&gt;Node2 -->
<g id="edge1_Node000001_Node000002" class="edge">
<title>Node1&#45;&gt;Node2</title>
<g id="a_edge1_Node000001_Node000002"><a xlink:title=" ">
<path fill="none" stroke="#63b8ff" d="M105,-82.13C119.92,-86.79 136.05,-91.81 150.44,-96.3"/>
<polygon fill="#63b8ff" stroke="#63b8ff" points="149.03,-99.53 159.62,-99.16 151.12,-92.85 149.03,-99.53"/>
</a>
</g>
</g>
<!-- Node3 -->
<g id="Node000003" class="node">
<title>Node3</title>
<g id="a_Node000003"><a xlink:href="vheap__chunk_8h.html#a26bcd8779d88d67764f563058787008a" target="_top" xlink:title=" ">
<polygon fill="white" stroke="#666666" points="247.62,-82 143.12,-82 143.12,-50 247.62,-50 247.62,-82"/>
<text text-anchor="start" x="151.12" y="-68.5" font-family="Helvetica,sans-Serif" font-size="10.00">zrtos_vheap_chunk_</text>
<text text-anchor="middle" x="195.38" y="-56.5" font-family="Helvetica,sans-Serif" font-size="10.00">_get_length</text>
</a>
</g>
</g>
<!-- Node1&#45;&gt;Node3 -->
<g id="edge2_Node000001_Node000003" class="edge">
<title>Node1&#45;&gt;Node3</title>
<g id="a_edge2_Node000001_Node000003"><a xlink:title=" ">
<path fill="none" stroke="#63b8ff" d="M105,-66C113.53,-66 122.46,-66 131.23,-66"/>
<polygon fill="#63b8ff" stroke="#63b8ff" points="131.12,-69.5 141.12,-66 131.12,-62.5 131.12,-69.5"/>
</a>
</g>
</g>
<!-- Node4 -->
<g id="Node000004" class="node">
<title>Node4</title>
<g id="a_Node000004"><a xlink:href="vheap__chunk_8h.html#a1297a66f589ee6ebd3fa69639f5fac6e" target="_top" xlink:title=" ">
<polygon fill="white" stroke="#666666" points="247.62,-32 143.12,-32 143.12,0 247.62,0 247.62,-32"/>
<text text-anchor="start" x="151.12" y="-18.5" font-family="Helvetica,sans-Serif" font-size="10.00">zrtos_vheap_chunk_</text>
<text text-anchor="middle" x="195.38" y="-6.5" font-family="Helvetica,sans-Serif" font-size="10.00">_get_ptr</text>
</a>
</g>
</g>
<!-- Node1&#45;&gt;Node4 -->
<g id="edge3_Node000001_Node000004" class="edge">
<title>Node1&#45;&gt;Node4</title>
<g id="a_edge3_Node000001_Node000004"><a xlink:title=" ">
<path fill="none" stroke="#63b8ff" d="M99.46,-49.63C111.52,-45.35 124.67,-40.7 137.22,-36.25"/>
<polygon fill="#63b8ff" stroke="#63b8ff" points="138.38,-39.55 146.63,-32.91 136.04,-32.95 138.38,-39.55"/>
</a>
</g>
</g>
</g>
</svg>
