<?xml version="1.0" encoding="UTF-8" standalone="no"?>
<!DOCTYPE svg PUBLIC "-//W3C//DTD SVG 1.1//EN"
 "http://www.w3.org/Graphics/SVG/1.1/DTD/svg11.dtd">
<!-- Generated by graphviz version 2.40.1 (20161225.0304)
 -->
<!-- Title: zrtos_vheap_chunk__get_ptr Pages: 1 -->
<svg width="375pt" height="66pt"
 viewBox="0.00 0.00 375.00 66.00" xmlns="http://www.w3.org/2000/svg" xmlns:xlink="http://www.w3.org/1999/xlink">
<g id="graph0" class="graph" transform="scale(1 1) rotate(0) translate(4 62)">
<title>zrtos_vheap_chunk__get_ptr</title>
<polygon fill="#ffffff" stroke="transparent" points="-4,4 -4,-62 371,-62 371,4 -4,4"/>
<!-- Node18 -->
<g id="node1" class="node">
<title>Node18</title>
<polygon fill="#bfbfbf" stroke="#000000" points="0,-14 0,-44 107,-44 107,-14 0,-14"/>
<text text-anchor="start" x="8" y="-32" font-family="Helvetica,sans-Serif" font-size="10.00" fill="#000000">zrtos_vheap_chunk_</text>
<text text-anchor="middle" x="53.5" y="-21" font-family="Helvetica,sans-Serif" font-size="10.00" fill="#000000">_get_ptr</text>
</g>
<!-- Node19 -->
<g id="node2" class="node">
<title>Node19</title>
<g id="a_node2"><a xlink:href="vheap__chunk_8h.html#ab6591db6901861c777b5e354aa672514" target="_top" xlink:title="zrtos_vheap_chunk_\l_get_last_address">
<polygon fill="#ffffff" stroke="#000000" points="143,-14 143,-44 250,-44 250,-14 143,-14"/>
<text text-anchor="start" x="151" y="-32" font-family="Helvetica,sans-Serif" font-size="10.00" fill="#000000">zrtos_vheap_chunk_</text>
<text text-anchor="middle" x="196.5" y="-21" font-family="Helvetica,sans-Serif" font-size="10.00" fill="#000000">_get_last_address</text>
</a>
</g>
</g>
<!-- Node18&#45;&gt;Node19 -->
<g id="edge1" class="edge">
<title>Node18&#45;&gt;Node19</title>
<path fill="none" stroke="#191970" d="M117.3238,-29C125.7452,-29 134.3103,-29 142.5445,-29"/>
<polygon fill="#191970" stroke="#191970" points="117.1548,-25.5001 107.1548,-29 117.1547,-32.5001 117.1548,-25.5001"/>
</g>
<!-- Node20 -->
<g id="node3" class="node">
<title>Node20</title>
<g id="a_node3"><a xlink:href="vheap__task__pthread_8h.html#a091adcef6201bebbf231763328c15286" target="_top" xlink:title="pthread_create">
<polygon fill="#ffffff" stroke="#000000" points="286,-38.5 286,-57.5 367,-57.5 367,-38.5 286,-38.5"/>
<text text-anchor="middle" x="326.5" y="-45.5" font-family="Helvetica,sans-Serif" font-size="10.00" fill="#000000">pthread_create</text>
</a>
</g>
</g>
<!-- Node19&#45;&gt;Node20 -->
<g id="edge2" class="edge">
<title>Node19&#45;&gt;Node20</title>
<path fill="none" stroke="#191970" d="M260.2462,-38.3168C268.9097,-39.583 277.6029,-40.8535 285.71,-42.0384"/>
<polygon fill="#191970" stroke="#191970" points="260.5276,-34.8208 250.1265,-36.8377 259.5152,-41.7472 260.5276,-34.8208"/>
</g>
<!-- Node21 -->
<g id="node4" class="node">
<title>Node21</title>
<g id="a_node4"><a xlink:href="vheap__task__pthread_8h.html#a28a15bba47cab57cbc9f5dac9af99c8b" target="_top" xlink:title="pthread_join">
<polygon fill="#ffffff" stroke="#000000" points="292,-.5 292,-19.5 361,-19.5 361,-.5 292,-.5"/>
<text text-anchor="middle" x="326.5" y="-7.5" font-family="Helvetica,sans-Serif" font-size="10.00" fill="#000000">pthread_join</text>
</a>
</g>
</g>
<!-- Node19&#45;&gt;Node21 -->
<g id="edge3" class="edge">
<title>Node19&#45;&gt;Node21</title>
<path fill="none" stroke="#191970" d="M260.1465,-19.6978C271.1119,-18.0952 282.1286,-16.4851 291.9478,-15.0499"/>
<polygon fill="#191970" stroke="#191970" points="259.5152,-16.2528 250.1265,-21.1623 260.5276,-23.1792 259.5152,-16.2528"/>
</g>
</g>
</svg>
