<?xml version="1.0" encoding="UTF-8" standalone="no"?>
<!DOCTYPE svg PUBLIC "-//W3C//DTD SVG 1.1//EN"
 "http://www.w3.org/Graphics/SVG/1.1/DTD/svg11.dtd">
<!-- Generated by graphviz version 2.40.1 (20161225.0304)
 -->
<!-- Title: _zrtos_vheap__swap_to_heap_end Pages: 1 -->
<svg width="574pt" height="97pt"
 viewBox="0.00 0.00 574.00 96.50" xmlns="http://www.w3.org/2000/svg" xmlns:xlink="http://www.w3.org/1999/xlink">
<g id="graph0" class="graph" transform="scale(1 1) rotate(0) translate(4 92.5)">
<title>_zrtos_vheap__swap_to_heap_end</title>
<polygon fill="#ffffff" stroke="transparent" points="-4,4 -4,-92.5 570,-92.5 570,4 -4,4"/>
<!-- Node44 -->
<g id="node1" class="node">
<title>Node44</title>
<polygon fill="#bfbfbf" stroke="#000000" points="0,-22.5 0,-52.5 109,-52.5 109,-22.5 0,-22.5"/>
<text text-anchor="start" x="8" y="-40.5" font-family="Helvetica,sans-Serif" font-size="10.00" fill="#000000">_zrtos_vheap__swap</text>
<text text-anchor="middle" x="54.5" y="-29.5" font-family="Helvetica,sans-Serif" font-size="10.00" fill="#000000">_to_heap_end</text>
</g>
<!-- Node45 -->
<g id="node2" class="node">
<title>Node45</title>
<g id="a_node2"><a xlink:href="mem_8h.html#a2e3d82e56bdea756a305d5ced180ca57" target="_top" xlink:title="zrtos_mem__left_rotate">
<polygon fill="#ffffff" stroke="#000000" points="147.5,-50 147.5,-69 266.5,-69 266.5,-50 147.5,-50"/>
<text text-anchor="middle" x="207" y="-57" font-family="Helvetica,sans-Serif" font-size="10.00" fill="#000000">zrtos_mem__left_rotate</text>
</a>
</g>
</g>
<!-- Node44&#45;&gt;Node45 -->
<g id="edge1" class="edge">
<title>Node44&#45;&gt;Node45</title>
<path fill="none" stroke="#191970" d="M109.1253,-45.3804C118.226,-46.6933 127.7747,-48.0708 137.1915,-49.4293"/>
<polygon fill="#191970" stroke="#191970" points="136.9332,-52.9282 147.3305,-50.8919 137.9328,-45.9999 136.9332,-52.9282"/>
</g>
<!-- Node49 -->
<g id="node6" class="node">
<title>Node49</title>
<g id="a_node6"><a xlink:href="mem_8h.html#a1590269d1001c17c2c99725ef85f6386" target="_top" xlink:title="zrtos_mem__move_right\l_overlapping">
<polygon fill="#ffffff" stroke="#000000" points="145,-.5 145,-30.5 269,-30.5 269,-.5 145,-.5"/>
<text text-anchor="start" x="153" y="-18.5" font-family="Helvetica,sans-Serif" font-size="10.00" fill="#000000">zrtos_mem__move_right</text>
<text text-anchor="middle" x="207" y="-7.5" font-family="Helvetica,sans-Serif" font-size="10.00" fill="#000000">_overlapping</text>
</a>
</g>
</g>
<!-- Node44&#45;&gt;Node49 -->
<g id="edge5" class="edge">
<title>Node44&#45;&gt;Node49</title>
<path fill="none" stroke="#191970" d="M109.1253,-29.6196C117.4795,-28.4144 126.2113,-27.1548 134.872,-25.9054"/>
<polygon fill="#191970" stroke="#191970" points="135.5815,-29.3393 144.9793,-24.4473 134.582,-22.411 135.5815,-29.3393"/>
</g>
<!-- Node46 -->
<g id="node3" class="node">
<title>Node46</title>
<g id="a_node3"><a xlink:href="mem_8h.html#a76a7df82d207aef7d339f7ff95cce550" target="_top" xlink:title="zrtos_mem__swap_ex">
<polygon fill="#ffffff" stroke="#000000" points="305,-50 305,-69 420,-69 420,-50 305,-50"/>
<text text-anchor="middle" x="362.5" y="-57" font-family="Helvetica,sans-Serif" font-size="10.00" fill="#000000">zrtos_mem__swap_ex</text>
</a>
</g>
</g>
<!-- Node45&#45;&gt;Node46 -->
<g id="edge2" class="edge">
<title>Node45&#45;&gt;Node46</title>
<path fill="none" stroke="#191970" d="M266.6756,-59.5C275.8587,-59.5 285.3979,-59.5 294.7414,-59.5"/>
<polygon fill="#191970" stroke="#191970" points="294.7771,-63.0001 304.7771,-59.5 294.7771,-56.0001 294.7771,-63.0001"/>
</g>
<!-- Node47 -->
<g id="node4" class="node">
<title>Node47</title>
<g id="a_node4"><a xlink:href="mem_8h.html#af7e65258e9f403545514aa561c040c71" target="_top" xlink:title="Swap len bytes of dest and src inplace. ">
<polygon fill="#ffffff" stroke="#000000" points="461.5,-69 461.5,-88 560.5,-88 560.5,-69 461.5,-69"/>
<text text-anchor="middle" x="511" y="-76" font-family="Helvetica,sans-Serif" font-size="10.00" fill="#000000">zrtos_mem__swap</text>
</a>
</g>
</g>
<!-- Node46&#45;&gt;Node47 -->
<g id="edge3" class="edge">
<title>Node46&#45;&gt;Node47</title>
<path fill="none" stroke="#191970" d="M420.3392,-66.9003C430.4782,-68.1976 441.047,-69.5498 451.2371,-70.8536"/>
<polygon fill="#191970" stroke="#191970" points="450.9076,-74.3399 461.2709,-72.1374 451.796,-67.3965 450.9076,-74.3399"/>
</g>
<!-- Node48 -->
<g id="node5" class="node">
<title>Node48</title>
<g id="a_node5"><a xlink:href="types_8h.html#aba57d347db551b6b1bc7f791433322ad" target="_top" xlink:title="zrtos_types__ptr_add">
<polygon fill="#ffffff" stroke="#000000" points="456,-31 456,-50 566,-50 566,-31 456,-31"/>
<text text-anchor="middle" x="511" y="-38" font-family="Helvetica,sans-Serif" font-size="10.00" fill="#000000">zrtos_types__ptr_add</text>
</a>
</g>
</g>
<!-- Node46&#45;&gt;Node48 -->
<g id="edge4" class="edge">
<title>Node46&#45;&gt;Node48</title>
<path fill="none" stroke="#191970" d="M420.3392,-52.0997C428.768,-51.0213 437.4939,-49.9048 446.0522,-48.8098"/>
<polygon fill="#191970" stroke="#191970" points="446.5193,-52.2787 455.9942,-47.5378 445.6308,-45.3353 446.5193,-52.2787"/>
</g>
</g>
</svg>
