<?xml version="1.0" encoding="UTF-8" standalone="no"?>
<!DOCTYPE svg PUBLIC "-//W3C//DTD SVG 1.1//EN"
 "http://www.w3.org/Graphics/SVG/1.1/DTD/svg11.dtd">
<!-- Generated by graphviz version 10.0.1 (20240210.2158)
 -->
<!-- Title: vheap.h Pages: 1 -->
<svg width="551pt" height="196pt"
 viewBox="0.00 0.00 550.50 196.00" xmlns="http://www.w3.org/2000/svg" xmlns:xlink="http://www.w3.org/1999/xlink">
<g id="graph0" class="graph" transform="scale(1 1) rotate(0) translate(4 192)">
<title>vheap.h</title>
<!-- Node1 -->
<g id="Node000001" class="node">
<title>Node1</title>
<g id="a_Node000001"><a xlink:title=" ">
<polygon fill="#999999" stroke="#666666" points="244.38,-188 195.38,-188 195.38,-168 244.38,-168 244.38,-188"/>
<text text-anchor="middle" x="219.88" y="-174.5" font-family="Helvetica,sans-Serif" font-size="10.00">vheap.h</text>
</a>
</g>
</g>
<!-- Node2 -->
<g id="Node000002" class="node">
<title>Node2</title>
<g id="a_Node000002"><a xlink:href="debug_8h.html" target="_top" xlink:title=" ">
<polygon fill="white" stroke="#666666" points="166.5,-132 91.25,-132 91.25,-112 166.5,-112 166.5,-132"/>
<text text-anchor="middle" x="128.88" y="-118.5" font-family="Helvetica,sans-Serif" font-size="10.00">zrtos/debug.h</text>
</a>
</g>
</g>
<!-- Node1&#45;&gt;Node2 -->
<g id="edge1_Node000001_Node000002" class="edge">
<title>Node1&#45;&gt;Node2</title>
<g id="a_edge1_Node000001_Node000002"><a xlink:title=" ">
<path fill="none" stroke="#63b8ff" d="M204.02,-167.59C190.41,-159.51 170.51,-147.71 154.61,-138.27"/>
<polygon fill="#63b8ff" stroke="#63b8ff" points="156.54,-135.35 146.15,-133.25 152.97,-141.37 156.54,-135.35"/>
</a>
</g>
</g>
<!-- Node3 -->
<g id="Node000003" class="node">
<title>Node3</title>
<g id="a_Node000003"><a xlink:href="mem_8h.html" target="_top" xlink:title=" ">
<polygon fill="white" stroke="#666666" points="255.25,-132 184.5,-132 184.5,-112 255.25,-112 255.25,-132"/>
<text text-anchor="middle" x="219.88" y="-118.5" font-family="Helvetica,sans-Serif" font-size="10.00">zrtos/mem.h</text>
</a>
</g>
</g>
<!-- Node1&#45;&gt;Node3 -->
<g id="edge2_Node000001_Node000003" class="edge">
<title>Node1&#45;&gt;Node3</title>
<g id="a_edge2_Node000001_Node000003"><a xlink:title=" ">
<path fill="none" stroke="#63b8ff" d="M219.88,-167.59C219.88,-161.01 219.88,-151.96 219.88,-143.73"/>
<polygon fill="#63b8ff" stroke="#63b8ff" points="223.38,-143.81 219.88,-133.81 216.38,-143.81 223.38,-143.81"/>
</a>
</g>
</g>
<!-- Node10 -->
<g id="Node000010" class="node">
<title>Node10</title>
<g id="a_Node000010"><a xlink:href="vheap__chunk_8h.html" target="_top" xlink:title=" ">
<polygon fill="white" stroke="#666666" points="386.5,-132 281.25,-132 281.25,-112 386.5,-112 386.5,-132"/>
<text text-anchor="middle" x="333.88" y="-118.5" font-family="Helvetica,sans-Serif" font-size="10.00">zrtos/vheap_chunk.h</text>
</a>
</g>
</g>
<!-- Node1&#45;&gt;Node10 -->
<g id="edge9_Node000001_Node000010" class="edge">
<title>Node1&#45;&gt;Node10</title>
<g id="a_edge9_Node000001_Node000010"><a xlink:title=" ">
<path fill="none" stroke="#63b8ff" d="M239.73,-167.59C257.36,-159.24 283.38,-146.92 303.6,-137.34"/>
<polygon fill="#63b8ff" stroke="#63b8ff" points="304.96,-140.57 312.49,-133.13 301.96,-134.25 304.96,-140.57"/>
</a>
</g>
</g>
<!-- Node4 -->
<g id="Node000004" class="node">
<title>Node4</title>
<g id="a_Node000004"><a xlink:href="types_8h.html" target="_top" xlink:title=" ">
<polygon fill="white" stroke="#666666" points="168.38,-76 95.38,-76 95.38,-56 168.38,-56 168.38,-76"/>
<text text-anchor="middle" x="131.88" y="-62.5" font-family="Helvetica,sans-Serif" font-size="10.00">zrtos/types.h</text>
</a>
</g>
</g>
<!-- Node3&#45;&gt;Node4 -->
<g id="edge3_Node000003_Node000004" class="edge">
<title>Node3&#45;&gt;Node4</title>
<g id="a_edge3_Node000003_Node000004"><a xlink:title=" ">
<path fill="none" stroke="#63b8ff" d="M204.55,-111.59C191.38,-103.51 172.14,-91.71 156.77,-82.27"/>
<polygon fill="#63b8ff" stroke="#63b8ff" points="158.97,-79.52 148.61,-77.27 155.31,-85.48 158.97,-79.52"/>
</a>
</g>
</g>
<!-- Node9 -->
<g id="Node000009" class="node">
<title>Node9</title>
<g id="a_Node000009"><a xlink:href="cast_8h.html" target="_top" xlink:title=" ">
<polygon fill="white" stroke="#666666" points="253.75,-76 186,-76 186,-56 253.75,-56 253.75,-76"/>
<text text-anchor="middle" x="219.88" y="-62.5" font-family="Helvetica,sans-Serif" font-size="10.00">zrtos/cast.h</text>
</a>
</g>
</g>
<!-- Node3&#45;&gt;Node9 -->
<g id="edge8_Node000003_Node000009" class="edge">
<title>Node3&#45;&gt;Node9</title>
<g id="a_edge8_Node000003_Node000009"><a xlink:title=" ">
<path fill="none" stroke="#63b8ff" d="M219.88,-111.59C219.88,-105.01 219.88,-95.96 219.88,-87.73"/>
<polygon fill="#63b8ff" stroke="#63b8ff" points="223.38,-87.81 219.88,-77.81 216.38,-87.81 223.38,-87.81"/>
</a>
</g>
</g>
<!-- Node5 -->
<g id="Node000005" class="node">
<title>Node5</title>
<g id="a_Node000005"><a xlink:title=" ">
<polygon fill="#e0e0e0" stroke="#999999" points="55.75,-20 0,-20 0,0 55.75,0 55.75,-20"/>
<text text-anchor="middle" x="27.88" y="-6.5" font-family="Helvetica,sans-Serif" font-size="10.00">stdbool.h</text>
</a>
</g>
</g>
<!-- Node4&#45;&gt;Node5 -->
<g id="edge4_Node000004_Node000005" class="edge">
<title>Node4&#45;&gt;Node5</title>
<g id="a_edge4_Node000004_Node000005"><a xlink:title=" ">
<path fill="none" stroke="#63b8ff" d="M113.76,-55.59C97.9,-47.36 74.59,-35.26 56.26,-25.74"/>
<polygon fill="#63b8ff" stroke="#63b8ff" points="57.96,-22.68 47.48,-21.18 54.74,-28.89 57.96,-22.68"/>
</a>
</g>
</g>
<!-- Node6 -->
<g id="Node000006" class="node">
<title>Node6</title>
<g id="a_Node000006"><a xlink:title=" ">
<polygon fill="#e0e0e0" stroke="#999999" points="124.12,-20 73.62,-20 73.62,0 124.12,0 124.12,-20"/>
<text text-anchor="middle" x="98.88" y="-6.5" font-family="Helvetica,sans-Serif" font-size="10.00">stddef.h</text>
</a>
</g>
</g>
<!-- Node4&#45;&gt;Node6 -->
<g id="edge5_Node000004_Node000006" class="edge">
<title>Node4&#45;&gt;Node6</title>
<g id="a_edge5_Node000004_Node000006"><a xlink:title=" ">
<path fill="none" stroke="#63b8ff" d="M126.13,-55.59C121.82,-48.55 115.78,-38.67 110.49,-30"/>
<polygon fill="#63b8ff" stroke="#63b8ff" points="113.55,-28.3 105.35,-21.59 107.57,-31.95 113.55,-28.3"/>
</a>
</g>
</g>
<!-- Node7 -->
<g id="Node000007" class="node">
<title>Node7</title>
<g id="a_Node000007"><a xlink:title=" ">
<polygon fill="#e0e0e0" stroke="#999999" points="190,-20 141.75,-20 141.75,0 190,0 190,-20"/>
<text text-anchor="middle" x="165.88" y="-6.5" font-family="Helvetica,sans-Serif" font-size="10.00">stdint.h</text>
</a>
</g>
</g>
<!-- Node4&#45;&gt;Node7 -->
<g id="edge6_Node000004_Node000007" class="edge">
<title>Node4&#45;&gt;Node7</title>
<g id="a_edge6_Node000004_Node000007"><a xlink:title=" ">
<path fill="none" stroke="#63b8ff" d="M137.8,-55.59C142.23,-48.55 148.45,-38.67 153.91,-30"/>
<polygon fill="#63b8ff" stroke="#63b8ff" points="156.85,-31.91 159.21,-21.58 150.92,-28.18 156.85,-31.91"/>
</a>
</g>
</g>
<!-- Node8 -->
<g id="Node000008" class="node">
<title>Node8</title>
<g id="a_Node000008"><a xlink:title=" ">
<polygon fill="#e0e0e0" stroke="#999999" points="255.62,-20 208.12,-20 208.12,0 255.62,0 255.62,-20"/>
<text text-anchor="middle" x="231.88" y="-6.5" font-family="Helvetica,sans-Serif" font-size="10.00">limits.h</text>
</a>
</g>
</g>
<!-- Node4&#45;&gt;Node8 -->
<g id="edge7_Node000004_Node000008" class="edge">
<title>Node4&#45;&gt;Node8</title>
<g id="a_edge7_Node000004_Node000008"><a xlink:title=" ">
<path fill="none" stroke="#63b8ff" d="M149.29,-55.59C164.54,-47.36 186.95,-35.26 204.58,-25.74"/>
<polygon fill="#63b8ff" stroke="#63b8ff" points="205.85,-29.03 212.99,-21.2 202.53,-22.87 205.85,-29.03"/>
</a>
</g>
</g>
<!-- Node11 -->
<g id="Node000011" class="node">
<title>Node11</title>
<g id="a_Node000011"><a xlink:href="vheap__chunk__uid_8h.html" target="_top" xlink:title=" ">
<polygon fill="white" stroke="#666666" points="395.5,-76 272.25,-76 272.25,-56 395.5,-56 395.5,-76"/>
<text text-anchor="middle" x="333.88" y="-62.5" font-family="Helvetica,sans-Serif" font-size="10.00">zrtos/vheap_chunk_uid.h</text>
</a>
</g>
</g>
<!-- Node10&#45;&gt;Node11 -->
<g id="edge10_Node000010_Node000011" class="edge">
<title>Node10&#45;&gt;Node11</title>
<g id="a_edge10_Node000010_Node000011"><a xlink:title=" ">
<path fill="none" stroke="#63b8ff" d="M333.88,-111.59C333.88,-105.01 333.88,-95.96 333.88,-87.73"/>
<polygon fill="#63b8ff" stroke="#63b8ff" points="337.38,-87.81 333.88,-77.81 330.38,-87.81 337.38,-87.81"/>
</a>
</g>
</g>
<!-- Node12 -->
<g id="Node000012" class="node">
<title>Node12</title>
<g id="a_Node000012"><a xlink:href="vheap__chunk__type_8h.html" target="_top" xlink:title=" ">
<polygon fill="white" stroke="#666666" points="542.5,-76 413.25,-76 413.25,-56 542.5,-56 542.5,-76"/>
<text text-anchor="middle" x="477.88" y="-62.5" font-family="Helvetica,sans-Serif" font-size="10.00">zrtos/vheap_chunk_type.h</text>
</a>
</g>
</g>
<!-- Node10&#45;&gt;Node12 -->
<g id="edge11_Node000010_Node000012" class="edge">
<title>Node10&#45;&gt;Node12</title>
<g id="a_edge11_Node000010_Node000012"><a xlink:title=" ">
<path fill="none" stroke="#63b8ff" d="M358.96,-111.59C381.94,-102.97 416.23,-90.12 442.09,-80.42"/>
<polygon fill="#63b8ff" stroke="#63b8ff" points="443.04,-83.8 451.18,-77.01 440.59,-77.25 443.04,-83.8"/>
</a>
</g>
</g>
<!-- Node13 -->
<g id="Node000013" class="node">
<title>Node13</title>
<g id="a_Node000013"><a xlink:href="vheap__type_8h.html" target="_top" xlink:title=" ">
<polygon fill="white" stroke="#666666" points="526.75,-20 429,-20 429,0 526.75,0 526.75,-20"/>
<text text-anchor="middle" x="477.88" y="-6.5" font-family="Helvetica,sans-Serif" font-size="10.00">zrtos/vheap_type.h</text>
</a>
</g>
</g>
<!-- Node12&#45;&gt;Node13 -->
<g id="edge12_Node000012_Node000013" class="edge">
<title>Node12&#45;&gt;Node13</title>
<g id="a_edge12_Node000012_Node000013"><a xlink:title=" ">
<path fill="none" stroke="#63b8ff" d="M477.88,-55.59C477.88,-49.01 477.88,-39.96 477.88,-31.73"/>
<polygon fill="#63b8ff" stroke="#63b8ff" points="481.38,-31.81 477.88,-21.81 474.38,-31.81 481.38,-31.81"/>
</a>
</g>
</g>
</g>
</svg>
