<?xml version="1.0" encoding="UTF-8" standalone="no"?>
<!DOCTYPE svg PUBLIC "-//W3C//DTD SVG 1.1//EN"
 "http://www.w3.org/Graphics/SVG/1.1/DTD/svg11.dtd">
<!-- Generated by graphviz version 2.40.1 (20161225.0304)
 -->
<!-- Title: _zrtos_vheap__malloc Pages: 1 -->
<svg width="267pt" height="66pt"
 viewBox="0.00 0.00 267.00 66.00" xmlns="http://www.w3.org/2000/svg" xmlns:xlink="http://www.w3.org/1999/xlink">
<g id="graph0" class="graph" transform="scale(1 1) rotate(0) translate(4 62)">
<title>_zrtos_vheap__malloc</title>
<polygon fill="#ffffff" stroke="transparent" points="-4,4 -4,-62 263,-62 263,4 -4,4"/>
<!-- Node41 -->
<g id="node1" class="node">
<title>Node41</title>
<polygon fill="#bfbfbf" stroke="#000000" points="0,-19.5 0,-38.5 114,-38.5 114,-19.5 0,-19.5"/>
<text text-anchor="middle" x="57" y="-26.5" font-family="Helvetica,sans-Serif" font-size="10.00" fill="#000000">_zrtos_vheap__malloc</text>
</g>
<!-- Node42 -->
<g id="node2" class="node">
<title>Node42</title>
<g id="a_node2"><a xlink:href="vheap_8h.html#a869860bdef21c42bb4afe71995ca995b" target="_top" xlink:title="zrtos_vheap__malloc">
<polygon fill="#ffffff" stroke="#000000" points="150,-38.5 150,-57.5 259,-57.5 259,-38.5 150,-38.5"/>
<text text-anchor="middle" x="204.5" y="-45.5" font-family="Helvetica,sans-Serif" font-size="10.00" fill="#000000">zrtos_vheap__malloc</text>
</a>
</g>
</g>
<!-- Node41&#45;&gt;Node42 -->
<g id="edge1" class="edge">
<title>Node41&#45;&gt;Node42</title>
<path fill="none" stroke="#191970" d="M123.9891,-37.6291C132.5468,-38.7315 141.2269,-39.8496 149.5633,-40.9234"/>
<polygon fill="#191970" stroke="#191970" points="124.3926,-34.1522 114.0274,-36.3459 123.4982,-41.0949 124.3926,-34.1522"/>
</g>
<!-- Node43 -->
<g id="node3" class="node">
<title>Node43</title>
<g id="a_node3"><a xlink:href="vheap__task__pthread_8h.html#a091adcef6201bebbf231763328c15286" target="_top" xlink:title="pthread_create">
<polygon fill="#ffffff" stroke="#000000" points="164,-.5 164,-19.5 245,-19.5 245,-.5 164,-.5"/>
<text text-anchor="middle" x="204.5" y="-7.5" font-family="Helvetica,sans-Serif" font-size="10.00" fill="#000000">pthread_create</text>
</a>
</g>
</g>
<!-- Node41&#45;&gt;Node43 -->
<g id="edge2" class="edge">
<title>Node41&#45;&gt;Node43</title>
<path fill="none" stroke="#191970" d="M124.2217,-20.3409C137.6662,-18.6091 151.4024,-16.8397 163.6242,-15.2654"/>
<polygon fill="#191970" stroke="#191970" points="123.4982,-16.9051 114.0274,-21.6541 124.3926,-23.8478 123.4982,-16.9051"/>
</g>
</g>
</svg>
