<?xml version="1.0" encoding="UTF-8" standalone="no"?>
<!DOCTYPE svg PUBLIC "-//W3C//DTD SVG 1.1//EN"
 "http://www.w3.org/Graphics/SVG/1.1/DTD/svg11.dtd">
<!-- Generated by graphviz version 10.0.1 (20240210.2158)
 -->
<!-- Title: _zrtos_vheap_task_scheduler__on_tick Pages: 1 -->
<svg width="1497pt" height="910pt"
 viewBox="0.00 0.00 1496.75 909.88" xmlns="http://www.w3.org/2000/svg" xmlns:xlink="http://www.w3.org/1999/xlink">
<g id="graph0" class="graph" transform="scale(1 1) rotate(0) translate(4 905.88)">
<title>_zrtos_vheap_task_scheduler__on_tick</title>
<!-- Node1 -->
<g id="Node000001" class="node">
<title>Node1</title>
<g id="a_Node000001"><a xlink:title=" ">
<polygon fill="#999999" stroke="#666666" points="144.25,-191.88 0,-191.88 0,-159.88 144.25,-159.88 144.25,-191.88"/>
<text text-anchor="start" x="8" y="-178.38" font-family="Helvetica,sans-Serif" font-size="10.00">_zrtos_vheap_task_scheduler</text>
<text text-anchor="middle" x="72.12" y="-166.38" font-family="Helvetica,sans-Serif" font-size="10.00">__on_tick</text>
</a>
</g>
</g>
<!-- Node2 -->
<g id="Node000002" class="node">
<title>Node2</title>
<g id="a_Node000002"><a xlink:href="vheap__task__scheduler_8h.html#a1a1be02692a671c368f4e2335179a042" target="_top" xlink:title=" ">
<polygon fill="white" stroke="#666666" points="324.5,-191.88 180.25,-191.88 180.25,-159.88 324.5,-159.88 324.5,-191.88"/>
<text text-anchor="start" x="188.25" y="-178.38" font-family="Helvetica,sans-Serif" font-size="10.00">_zrtos_vheap_task_scheduler</text>
<text text-anchor="middle" x="252.38" y="-166.38" font-family="Helvetica,sans-Serif" font-size="10.00">__switch_task</text>
</a>
</g>
</g>
<!-- Node1&#45;&gt;Node2 -->
<g id="edge1_Node000001_Node000002" class="edge">
<title>Node1&#45;&gt;Node2</title>
<g id="a_edge1_Node000001_Node000002"><a xlink:title=" ">
<path fill="none" stroke="#63b8ff" d="M144.6,-175.88C152.5,-175.88 160.59,-175.88 168.61,-175.88"/>
<polygon fill="#63b8ff" stroke="#63b8ff" points="168.37,-179.38 178.37,-175.88 168.37,-172.38 168.37,-179.38"/>
</a>
</g>
</g>
<!-- Node3 -->
<g id="Node000003" class="node">
<title>Node3</title>
<g id="a_Node000003"><a xlink:href="vheap__task__scheduler_8h.html#a393742fc3d9f5e784e97f4915c6b557d" target="_top" xlink:title=" ">
<polygon fill="white" stroke="#666666" points="504.75,-331.88 360.5,-331.88 360.5,-299.88 504.75,-299.88 504.75,-331.88"/>
<text text-anchor="start" x="368.5" y="-318.38" font-family="Helvetica,sans-Serif" font-size="10.00">_zrtos_vheap_task_scheduler</text>
<text text-anchor="middle" x="432.62" y="-306.38" font-family="Helvetica,sans-Serif" font-size="10.00">__restore_task</text>
</a>
</g>
</g>
<!-- Node2&#45;&gt;Node3 -->
<g id="edge2_Node000002_Node000003" class="edge">
<title>Node2&#45;&gt;Node3</title>
<g id="a_edge2_Node000002_Node000003"><a xlink:title=" ">
<path fill="none" stroke="#63b8ff" d="M264.64,-192.33C282.33,-217.03 318.95,-263.69 360.5,-290.88 362.35,-292.09 364.26,-293.24 366.22,-294.35"/>
<polygon fill="#63b8ff" stroke="#63b8ff" points="364.51,-297.41 375.01,-298.81 367.68,-291.17 364.51,-297.41"/>
</a>
</g>
</g>
<!-- Node4 -->
<g id="Node000004" class="node">
<title>Node4</title>
<g id="a_Node000004"><a xlink:href="vheap__task__scheduler_8h.html#af69e917ca8bd27891eb335dda8289faf" target="_top" xlink:title=" ">
<polygon fill="white" stroke="#666666" points="504.75,-281.88 360.5,-281.88 360.5,-249.88 504.75,-249.88 504.75,-281.88"/>
<text text-anchor="start" x="368.5" y="-268.38" font-family="Helvetica,sans-Serif" font-size="10.00">_zrtos_vheap_task_scheduler</text>
<text text-anchor="middle" x="432.62" y="-256.38" font-family="Helvetica,sans-Serif" font-size="10.00">__set_active_task</text>
</a>
</g>
</g>
<!-- Node2&#45;&gt;Node4 -->
<g id="edge3_Node000002_Node000004" class="edge">
<title>Node2&#45;&gt;Node4</title>
<g id="a_edge3_Node000002_Node000004"><a xlink:title=" ">
<path fill="none" stroke="#63b8ff" d="M282.17,-192.21C303.57,-204.17 333.58,-220.56 360.5,-233.88 367.84,-237.51 375.69,-241.21 383.39,-244.75"/>
<polygon fill="#63b8ff" stroke="#63b8ff" points="381.8,-247.88 392.35,-248.82 384.7,-241.5 381.8,-247.88"/>
</a>
</g>
</g>
<!-- Node6 -->
<g id="Node000006" class="node">
<title>Node6</title>
<g id="a_Node000006"><a xlink:href="vheap__task__scheduler_8h.html#ac02ff4499bb01c86b3610bc5b5d2ed0a" target="_top" xlink:title=" ">
<polygon fill="white" stroke="#666666" points="1035.75,-263.88 896.75,-263.88 896.75,-231.88 1035.75,-231.88 1035.75,-263.88"/>
<text text-anchor="start" x="904.75" y="-250.38" font-family="Helvetica,sans-Serif" font-size="10.00">zrtos_vheap_task_scheduler</text>
<text text-anchor="middle" x="966.25" y="-238.38" font-family="Helvetica,sans-Serif" font-size="10.00">__get_heap</text>
</a>
</g>
</g>
<!-- Node2&#45;&gt;Node6 -->
<g id="edge45_Node000002_Node000006" class="edge">
<title>Node2&#45;&gt;Node6</title>
<g id="a_edge45_Node000002_Node000006"><a xlink:title=" ">
<path fill="none" stroke="#63b8ff" d="M264.52,-159.39C281.8,-135.48 317.57,-92.13 360.5,-74.88 566.79,8.05 667.52,38.11 860.75,-71.88 917.11,-103.96 946.22,-179.73 958.29,-220.61"/>
<polygon fill="#63b8ff" stroke="#63b8ff" points="954.9,-221.48 960.97,-230.16 961.64,-219.59 954.9,-221.48"/>
</a>
</g>
</g>
<!-- Node31 -->
<g id="Node000031" class="node">
<title>Node31</title>
<g id="a_Node000031"><a xlink:href="vheap__chunk_8h.html#a9e677451890886104ec8623e0c5757af" target="_top" xlink:title=" ">
<polygon fill="white" stroke="#666666" points="484.88,-191.88 380.38,-191.88 380.38,-159.88 484.88,-159.88 484.88,-191.88"/>
<text text-anchor="start" x="388.38" y="-178.38" font-family="Helvetica,sans-Serif" font-size="10.00">zrtos_vheap_chunk_</text>
<text text-anchor="middle" x="432.62" y="-166.38" font-family="Helvetica,sans-Serif" font-size="10.00">_get_uid</text>
</a>
</g>
</g>
<!-- Node2&#45;&gt;Node31 -->
<g id="edge42_Node000002_Node000031" class="edge">
<title>Node2&#45;&gt;Node31</title>
<g id="a_edge42_Node000002_Node000031"><a xlink:title=" ">
<path fill="none" stroke="#63b8ff" d="M324.85,-175.88C339.37,-175.88 354.54,-175.88 368.74,-175.88"/>
<polygon fill="#63b8ff" stroke="#63b8ff" points="368.37,-179.38 378.37,-175.88 368.37,-172.38 368.37,-179.38"/>
</a>
</g>
</g>
<!-- Node32 -->
<g id="Node000032" class="node">
<title>Node32</title>
<g id="a_Node000032"><a xlink:href="vheap__task_8h.html#abecb6e03f5c4faa424a02f82e707066a" target="_top" xlink:title=" ">
<polygon fill="white" stroke="#666666" points="497.62,-141.88 367.62,-141.88 367.62,-121.88 497.62,-121.88 497.62,-141.88"/>
<text text-anchor="middle" x="432.62" y="-128.38" font-family="Helvetica,sans-Serif" font-size="10.00">zrtos_vheap_task__is_idle</text>
</a>
</g>
</g>
<!-- Node2&#45;&gt;Node32 -->
<g id="edge43_Node000002_Node000032" class="edge">
<title>Node2&#45;&gt;Node32</title>
<g id="a_edge43_Node000002_Node000032"><a xlink:title=" ">
<path fill="none" stroke="#63b8ff" d="M320,-159.43C339.16,-154.7 359.81,-149.6 378.07,-145.1"/>
<polygon fill="#63b8ff" stroke="#63b8ff" points="378.76,-148.53 387.63,-142.74 377.09,-141.73 378.76,-148.53"/>
</a>
</g>
</g>
<!-- Node33 -->
<g id="Node000033" class="node">
<title>Node33</title>
<g id="a_Node000033"><a xlink:href="vheap__task_8h.html#a0ea9061da5e4ce4f8fd62f431a83242e" target="_top" xlink:title=" ">
<polygon fill="white" stroke="#666666" points="499.5,-103.88 365.75,-103.88 365.75,-83.88 499.5,-83.88 499.5,-103.88"/>
<text text-anchor="middle" x="432.62" y="-90.38" font-family="Helvetica,sans-Serif" font-size="10.00">zrtos_vheap_task__on_tick</text>
</a>
</g>
</g>
<!-- Node2&#45;&gt;Node33 -->
<g id="edge44_Node000002_Node000033" class="edge">
<title>Node2&#45;&gt;Node33</title>
<g id="a_edge44_Node000002_Node000033"><a xlink:title=" ">
<path fill="none" stroke="#63b8ff" d="M277.07,-159.4C298.15,-145.37 330.25,-125.54 360.5,-112.88 364.88,-111.04 369.48,-109.34 374.15,-107.78"/>
<polygon fill="#63b8ff" stroke="#63b8ff" points="375.16,-111.13 383.66,-104.81 373.07,-104.45 375.16,-111.13"/>
</a>
</g>
</g>
<!-- Node34 -->
<g id="Node000034" class="node">
<title>Node34</title>
<g id="a_Node000034"><a xlink:href="vheap__task__scheduler_8h.html#a99d7655ba93c186077c9de6a6f310c43" target="_top" xlink:title=" ">
<polygon fill="white" stroke="#666666" points="680.5,-200.88 540.75,-200.88 540.75,-168.88 680.5,-168.88 680.5,-200.88"/>
<text text-anchor="start" x="548.75" y="-187.38" font-family="Helvetica,sans-Serif" font-size="10.00">zrtos_vheap_task_scheduler</text>
<text text-anchor="middle" x="610.62" y="-175.38" font-family="Helvetica,sans-Serif" font-size="10.00">__has_enough_stack_space</text>
</a>
</g>
</g>
<!-- Node2&#45;&gt;Node34 -->
<g id="edge46_Node000002_Node000034" class="edge">
<title>Node2&#45;&gt;Node34</title>
<g id="a_edge46_Node000002_Node000034"><a xlink:title=" ">
<path fill="none" stroke="#63b8ff" d="M313.01,-192.34C328.36,-195.88 344.94,-199.09 360.5,-200.88 424.19,-208.21 440.82,-205.72 504.75,-200.88 512.7,-200.27 520.97,-199.42 529.21,-198.41"/>
<polygon fill="#63b8ff" stroke="#63b8ff" points="529.44,-201.91 538.91,-197.15 528.54,-194.97 529.44,-201.91"/>
</a>
</g>
</g>
<!-- Node5 -->
<g id="Node000005" class="node">
<title>Node5</title>
<g id="a_Node000005"><a xlink:href="vheap_8h.html#abe149f8bc1f24a77d03fb3e5e92a3886" target="_top" xlink:title=" ">
<polygon fill="white" stroke="#666666" points="670.75,-276.88 550.5,-276.88 550.5,-256.88 670.75,-256.88 670.75,-276.88"/>
<text text-anchor="middle" x="610.62" y="-263.38" font-family="Helvetica,sans-Serif" font-size="10.00">zrtos_vheap__get_by_id</text>
</a>
</g>
</g>
<!-- Node4&#45;&gt;Node5 -->
<g id="edge4_Node000004_Node000005" class="edge">
<title>Node4&#45;&gt;Node5</title>
<g id="a_edge4_Node000004_Node000005"><a xlink:title=" ">
<path fill="none" stroke="#63b8ff" d="M505.21,-266.28C516.3,-266.35 527.75,-266.41 538.82,-266.47"/>
<polygon fill="#63b8ff" stroke="#63b8ff" points="538.66,-269.97 548.68,-266.53 538.7,-262.97 538.66,-269.97"/>
</a>
</g>
</g>
<!-- Node4&#45;&gt;Node6 -->
<g id="edge5_Node000004_Node000006" class="edge">
<title>Node4&#45;&gt;Node6</title>
<g id="a_edge5_Node000004_Node000006"><a xlink:title=" ">
<path fill="none" stroke="#63b8ff" d="M505.16,-252.16C517,-250.38 529.19,-248.84 540.75,-247.88 660.29,-237.9 799.43,-240.61 884.92,-243.91"/>
<polygon fill="#63b8ff" stroke="#63b8ff" points="884.71,-247.4 894.85,-244.3 884.99,-240.41 884.71,-247.4"/>
</a>
</g>
</g>
<!-- Node7 -->
<g id="Node000007" class="node">
<title>Node7</title>
<g id="a_Node000007"><a xlink:href="vheap__task__scheduler_8h.html#ac3ceec0a4016b00c1670ddce858c6bac" target="_top" xlink:title=" ">
<polygon fill="white" stroke="#666666" points="680.12,-351.88 541.12,-351.88 541.12,-319.88 680.12,-319.88 680.12,-351.88"/>
<text text-anchor="start" x="549.12" y="-338.38" font-family="Helvetica,sans-Serif" font-size="10.00">zrtos_vheap_task_scheduler</text>
<text text-anchor="middle" x="610.62" y="-326.38" font-family="Helvetica,sans-Serif" font-size="10.00">__page_task_in</text>
</a>
</g>
</g>
<!-- Node4&#45;&gt;Node7 -->
<g id="edge6_Node000004_Node000007" class="edge">
<title>Node4&#45;&gt;Node7</title>
<g id="a_edge6_Node000004_Node000007"><a xlink:title=" ">
<path fill="none" stroke="#63b8ff" d="M481.61,-282.25C489.38,-285.04 497.31,-287.98 504.75,-290.88 523.8,-298.3 544.52,-307.05 562.48,-314.85"/>
<polygon fill="#63b8ff" stroke="#63b8ff" points="561.04,-318.04 571.6,-318.83 563.84,-311.62 561.04,-318.04"/>
</a>
</g>
</g>
<!-- Node23 -->
<g id="Node000023" class="node">
<title>Node23</title>
<g id="a_Node000023"><a xlink:href="vheap__task__scheduler_8h.html#aff9fd65d1ee753d63d6749a7d18ccb05" target="_top" xlink:title=" ">
<polygon fill="white" stroke="#666666" points="680.12,-637.88 541.12,-637.88 541.12,-605.88 680.12,-605.88 680.12,-637.88"/>
<text text-anchor="start" x="549.12" y="-624.38" font-family="Helvetica,sans-Serif" font-size="10.00">zrtos_vheap_task_scheduler</text>
<text text-anchor="middle" x="610.62" y="-612.38" font-family="Helvetica,sans-Serif" font-size="10.00">__page_task_out</text>
</a>
</g>
</g>
<!-- Node4&#45;&gt;Node23 -->
<g id="edge26_Node000004_Node000023" class="edge">
<title>Node4&#45;&gt;Node23</title>
<g id="a_edge26_Node000004_Node000023"><a xlink:title=" ">
<path fill="none" stroke="#63b8ff" d="M494,-282.25C497.92,-284.73 501.56,-287.59 504.75,-290.88 526.65,-313.47 582.61,-519.46 602.49,-594.6"/>
<polygon fill="#63b8ff" stroke="#63b8ff" points="599.04,-595.25 604.97,-604.03 605.81,-593.47 599.04,-595.25"/>
</a>
</g>
</g>
<!-- Node7&#45;&gt;Node6 -->
<g id="edge25_Node000007_Node000006" class="edge">
<title>Node7&#45;&gt;Node6</title>
<g id="a_edge25_Node000007_Node000006"><a xlink:title=" ">
<path fill="none" stroke="#63b8ff" d="M640.08,-319.49C660.67,-308.35 689.51,-294.17 716.5,-285.88 771.51,-268.97 835.78,-259.4 885.21,-254.09"/>
<polygon fill="#63b8ff" stroke="#63b8ff" points="885.38,-257.59 894.97,-253.08 884.66,-250.63 885.38,-257.59"/>
</a>
</g>
</g>
<!-- Node8 -->
<g id="Node000008" class="node">
<title>Node8</title>
<g id="a_Node000008"><a xlink:href="vheap__task__scheduler_8h.html#a525247f445d250b1eb2aff8eadaa0c87" target="_top" xlink:title=" ">
<polygon fill="white" stroke="#666666" points="860.75,-464.88 716.5,-464.88 716.5,-432.88 860.75,-432.88 860.75,-464.88"/>
<text text-anchor="start" x="724.5" y="-451.38" font-family="Helvetica,sans-Serif" font-size="10.00">_zrtos_vheap_task_scheduler</text>
<text text-anchor="middle" x="788.62" y="-439.38" font-family="Helvetica,sans-Serif" font-size="10.00">__get_active_task</text>
</a>
</g>
</g>
<!-- Node7&#45;&gt;Node8 -->
<g id="edge7_Node000007_Node000008" class="edge">
<title>Node7&#45;&gt;Node8</title>
<g id="a_edge7_Node000007_Node000008"><a xlink:title=" ">
<path fill="none" stroke="#63b8ff" d="M637.22,-352.31C667.59,-371.81 718.39,-404.42 752.44,-426.29"/>
<polygon fill="#63b8ff" stroke="#63b8ff" points="750.42,-429.15 760.73,-431.61 754.2,-423.26 750.42,-429.15"/>
</a>
</g>
</g>
<!-- Node12 -->
<g id="Node000012" class="node">
<title>Node12</title>
<g id="a_Node000012"><a xlink:href="vheap_8h.html#ad63813b8a0f34f7eef0cf65af8eb8289" target="_top" xlink:title=" ">
<polygon fill="white" stroke="#666666" points="844.62,-590.88 732.62,-590.88 732.62,-570.88 844.62,-570.88 844.62,-590.88"/>
<text text-anchor="middle" x="788.62" y="-577.38" font-family="Helvetica,sans-Serif" font-size="10.00">zrtos_vheap__page_in</text>
</a>
</g>
</g>
<!-- Node7&#45;&gt;Node12 -->
<g id="edge12_Node000007_Node000012" class="edge">
<title>Node7&#45;&gt;Node12</title>
<g id="a_edge12_Node000007_Node000012"><a xlink:title=" ">
<path fill="none" stroke="#63b8ff" d="M614.31,-352.12C622.07,-393.69 648.44,-504.7 716.5,-561.88 718.41,-563.48 720.44,-564.95 722.56,-566.29"/>
<polygon fill="#63b8ff" stroke="#63b8ff" points="720.55,-569.19 731.03,-570.74 723.8,-562.99 720.55,-569.19"/>
</a>
</g>
</g>
<!-- Node21 -->
<g id="Node000021" class="node">
<title>Node21</title>
<g id="a_Node000021"><a xlink:href="vheap__task_8h.html#a9a6382869bc3582f4c52e85d4915fea5" target="_top" xlink:title=" ">
<polygon fill="white" stroke="#666666" points="846.5,-376.88 730.75,-376.88 730.75,-344.88 846.5,-344.88 846.5,-376.88"/>
<text text-anchor="start" x="738.75" y="-363.38" font-family="Helvetica,sans-Serif" font-size="10.00">zrtos_vheap_task__get</text>
<text text-anchor="middle" x="788.62" y="-351.38" font-family="Helvetica,sans-Serif" font-size="10.00">_errno</text>
</a>
</g>
</g>
<!-- Node7&#45;&gt;Node21 -->
<g id="edge23_Node000007_Node000021" class="edge">
<title>Node7&#45;&gt;Node21</title>
<g id="a_edge23_Node000007_Node000021"><a xlink:title=" ">
<path fill="none" stroke="#63b8ff" d="M680.43,-345.65C693.18,-347.46 706.5,-349.35 719.23,-351.16"/>
<polygon fill="#63b8ff" stroke="#63b8ff" points="718.36,-354.57 728.75,-352.51 719.34,-347.64 718.36,-354.57"/>
</a>
</g>
</g>
<!-- Node22 -->
<g id="Node000022" class="node">
<title>Node22</title>
<g id="a_Node000022"><a xlink:href="vheap__task_8h.html#ab0321ff67d7684a511cd63a794c9b651" target="_top" xlink:title=" ">
<polygon fill="white" stroke="#666666" points="846.5,-326.88 730.75,-326.88 730.75,-294.88 846.5,-294.88 846.5,-326.88"/>
<text text-anchor="start" x="738.75" y="-313.38" font-family="Helvetica,sans-Serif" font-size="10.00">zrtos_vheap_task__get</text>
<text text-anchor="middle" x="788.62" y="-301.38" font-family="Helvetica,sans-Serif" font-size="10.00">_stack_ptr</text>
</a>
</g>
</g>
<!-- Node7&#45;&gt;Node22 -->
<g id="edge24_Node000007_Node000022" class="edge">
<title>Node7&#45;&gt;Node22</title>
<g id="a_edge24_Node000007_Node000022"><a xlink:title=" ">
<path fill="none" stroke="#63b8ff" d="M680.43,-326.1C693.18,-324.29 706.5,-322.4 719.23,-320.59"/>
<polygon fill="#63b8ff" stroke="#63b8ff" points="719.34,-324.11 728.75,-319.24 718.36,-317.18 719.34,-324.11"/>
</a>
</g>
</g>
<!-- Node8&#45;&gt;Node6 -->
<g id="edge11_Node000008_Node000006" class="edge">
<title>Node8&#45;&gt;Node6</title>
<g id="a_edge11_Node000008_Node000006"><a xlink:title=" ">
<path fill="none" stroke="#63b8ff" d="M839.77,-432.46C847.27,-428.7 854.55,-424.21 860.75,-418.88 873.26,-408.11 924.65,-319.32 950.4,-274.12"/>
<polygon fill="#63b8ff" stroke="#63b8ff" points="953.42,-275.89 955.32,-265.46 947.34,-272.43 953.42,-275.89"/>
</a>
</g>
</g>
<!-- Node9 -->
<g id="Node000009" class="node">
<title>Node9</title>
<g id="a_Node000009"><a xlink:href="types_8h.html#a1824c547b5262eed148a0bfac2912537" target="_top" xlink:title=" ">
<polygon fill="white" stroke="#666666" points="1030.88,-399.88 901.62,-399.88 901.62,-379.88 1030.88,-379.88 1030.88,-399.88"/>
<text text-anchor="middle" x="966.25" y="-386.38" font-family="Helvetica,sans-Serif" font-size="10.00">zrtos_types__ptr_subtract</text>
</a>
</g>
</g>
<!-- Node8&#45;&gt;Node9 -->
<g id="edge8_Node000008_Node000009" class="edge">
<title>Node8&#45;&gt;Node9</title>
<g id="a_edge8_Node000008_Node000009"><a xlink:title=" ">
<path fill="none" stroke="#63b8ff" d="M831.05,-432.45C850.8,-424.87 874.85,-415.99 896.75,-408.88 902.47,-407.02 908.5,-405.18 914.51,-403.42"/>
<polygon fill="#63b8ff" stroke="#63b8ff" points="915.13,-406.88 923.78,-400.76 913.2,-400.15 915.13,-406.88"/>
</a>
</g>
</g>
<!-- Node10 -->
<g id="Node000010" class="node">
<title>Node10</title>
<g id="a_Node000010"><a xlink:href="vheap_8h.html#a9cff4e6aefa63154b78bcb1a5f442d72" target="_top" xlink:title=" ">
<polygon fill="white" stroke="#666666" points="1022.62,-449.88 909.88,-449.88 909.88,-417.88 1022.62,-417.88 1022.62,-449.88"/>
<text text-anchor="start" x="917.88" y="-436.38" font-family="Helvetica,sans-Serif" font-size="10.00">zrtos_vheap__get_last</text>
<text text-anchor="middle" x="966.25" y="-424.38" font-family="Helvetica,sans-Serif" font-size="10.00">_address</text>
</a>
</g>
</g>
<!-- Node8&#45;&gt;Node10 -->
<g id="edge9_Node000008_Node000010" class="edge">
<title>Node8&#45;&gt;Node10</title>
<g id="a_edge9_Node000008_Node000010"><a xlink:title=" ">
<path fill="none" stroke="#63b8ff" d="M861.06,-442.78C873.29,-441.73 885.97,-440.65 898.08,-439.61"/>
<polygon fill="#63b8ff" stroke="#63b8ff" points="898.33,-443.11 907.99,-438.77 897.73,-436.13 898.33,-443.11"/>
</a>
</g>
</g>
<!-- Node11 -->
<g id="Node000011" class="node">
<title>Node11</title>
<g id="a_Node000011"><a xlink:href="types_8h.html#ab0b4ddf54b9e9f4a54504f833babbc1c" target="_top" xlink:title=" ">
<polygon fill="white" stroke="#666666" points="1488.75,-587.88 1379,-587.88 1379,-567.88 1488.75,-567.88 1488.75,-587.88"/>
<text text-anchor="middle" x="1433.88" y="-574.38" font-family="Helvetica,sans-Serif" font-size="10.00">zrtos_types__ptr_add</text>
</a>
</g>
</g>
<!-- Node10&#45;&gt;Node11 -->
<g id="edge10_Node000010_Node000011" class="edge">
<title>Node10&#45;&gt;Node11</title>
<g id="a_edge10_Node000010_Node000011"><a xlink:title=" ">
<path fill="none" stroke="#63b8ff" d="M1022.97,-434.35C1101.11,-437.59 1244.68,-453.21 1343,-520.88 1362.16,-534.07 1359.49,-546.21 1379,-558.88 1381.1,-560.24 1383.3,-561.51 1385.57,-562.71"/>
<polygon fill="#63b8ff" stroke="#63b8ff" points="1383.92,-565.8 1394.46,-566.81 1386.85,-559.44 1383.92,-565.8"/>
</a>
</g>
</g>
<!-- Node12&#45;&gt;Node11 -->
<g id="edge20_Node000012_Node000011" class="edge">
<title>Node12&#45;&gt;Node11</title>
<g id="a_edge20_Node000012_Node000011"><a xlink:title=" ">
<path fill="none" stroke="#63b8ff" d="M845.02,-580.62C963.38,-580.07 1240.42,-578.77 1367.31,-578.18"/>
<polygon fill="#63b8ff" stroke="#63b8ff" points="1367.25,-581.68 1377.23,-578.14 1367.22,-574.68 1367.25,-581.68"/>
</a>
</g>
</g>
<!-- Node13 -->
<g id="Node000013" class="node">
<title>Node13</title>
<g id="a_Node000013"><a xlink:href="vheap_8h.html#a807e6713ecdd9d455cb0d90d68a1b4ad" target="_top" xlink:title=" ">
<polygon fill="white" stroke="#666666" points="1019.25,-499.88 913.25,-499.88 913.25,-467.88 1019.25,-467.88 1019.25,-499.88"/>
<text text-anchor="start" x="921.25" y="-486.38" font-family="Helvetica,sans-Serif" font-size="10.00">_zrtos_vheap__swap</text>
<text text-anchor="middle" x="966.25" y="-474.38" font-family="Helvetica,sans-Serif" font-size="10.00">_to_heap_end</text>
</a>
</g>
</g>
<!-- Node12&#45;&gt;Node13 -->
<g id="edge13_Node000012_Node000013" class="edge">
<title>Node12&#45;&gt;Node13</title>
<g id="a_edge13_Node000012_Node000013"><a xlink:title=" ">
<path fill="none" stroke="#63b8ff" d="M844.65,-570.52C850.36,-568.2 855.85,-565.35 860.75,-561.88 883.97,-545.39 874.29,-526.38 896.75,-508.88 898.74,-507.33 900.83,-505.87 903,-504.49"/>
<polygon fill="#63b8ff" stroke="#63b8ff" points="904.54,-507.64 911.59,-499.73 901.15,-501.52 904.54,-507.64"/>
</a>
</g>
</g>
<!-- Node18 -->
<g id="Node000018" class="node">
<title>Node18</title>
<g id="a_Node000018"><a xlink:href="vheap_8h.html#a53d9ca47afe3a2f353e12566c3c82a1d" target="_top" xlink:title=" ">
<polygon fill="white" stroke="#666666" points="1022.62,-549.88 909.88,-549.88 909.88,-517.88 1022.62,-517.88 1022.62,-549.88"/>
<text text-anchor="start" x="917.88" y="-536.38" font-family="Helvetica,sans-Serif" font-size="10.00">_zrtos_vheap__update</text>
<text text-anchor="middle" x="966.25" y="-524.38" font-family="Helvetica,sans-Serif" font-size="10.00">_index_ptr</text>
</a>
</g>
</g>
<!-- Node12&#45;&gt;Node18 -->
<g id="edge19_Node000012_Node000018" class="edge">
<title>Node12&#45;&gt;Node18</title>
<g id="a_edge19_Node000012_Node000018"><a xlink:title=" ">
<path fill="none" stroke="#63b8ff" d="M828.76,-570.43C839.16,-567.65 850.38,-564.65 860.75,-561.88 872.96,-558.61 885.97,-555.13 898.52,-551.77"/>
<polygon fill="#63b8ff" stroke="#63b8ff" points="899.18,-555.21 907.93,-549.24 897.37,-548.45 899.18,-555.21"/>
</a>
</g>
</g>
<!-- Node19 -->
<g id="Node000019" class="node">
<title>Node19</title>
<g id="a_Node000019"><a xlink:href="types_8h.html#adbc4238237e656eb247fd49ffbfb1a6d" target="_top" xlink:title=" ">
<polygon fill="white" stroke="#666666" points="1020,-637.88 912.5,-637.88 912.5,-605.88 1020,-605.88 1020,-637.88"/>
<text text-anchor="start" x="920.5" y="-624.38" font-family="Helvetica,sans-Serif" font-size="10.00">zrtos_types__ptr_get</text>
<text text-anchor="middle" x="966.25" y="-612.38" font-family="Helvetica,sans-Serif" font-size="10.00">_byte_distance</text>
</a>
</g>
</g>
<!-- Node12&#45;&gt;Node19 -->
<g id="edge21_Node000012_Node000019" class="edge">
<title>Node12&#45;&gt;Node19</title>
<g id="a_edge21_Node000012_Node000019"><a xlink:title=" ">
<path fill="none" stroke="#63b8ff" d="M834.4,-591.33C854.65,-596.06 878.97,-601.73 901.12,-606.9"/>
<polygon fill="#63b8ff" stroke="#63b8ff" points="900.12,-610.26 910.65,-609.13 901.71,-603.45 900.12,-610.26"/>
</a>
</g>
</g>
<!-- Node20 -->
<g id="Node000020" class="node">
<title>Node20</title>
<g id="a_Node000020"><a xlink:href="vheap__chunk_8h.html#a50f3da740523a69829e865dcaa7d77ad" target="_top" xlink:title=" ">
<polygon fill="white" stroke="#666666" points="1018.5,-687.88 914,-687.88 914,-655.88 1018.5,-655.88 1018.5,-687.88"/>
<text text-anchor="start" x="922" y="-674.38" font-family="Helvetica,sans-Serif" font-size="10.00">zrtos_vheap_chunk_</text>
<text text-anchor="middle" x="966.25" y="-662.38" font-family="Helvetica,sans-Serif" font-size="10.00">_set_type</text>
</a>
</g>
</g>
<!-- Node12&#45;&gt;Node20 -->
<g id="edge22_Node000012_Node000020" class="edge">
<title>Node12&#45;&gt;Node20</title>
<g id="a_edge22_Node000012_Node000020"><a xlink:title=" ">
<path fill="none" stroke="#63b8ff" d="M804.33,-591.27C824.49,-605.21 862.15,-630.12 896.75,-646.88 899.79,-648.35 902.93,-649.78 906.13,-651.17"/>
<polygon fill="#63b8ff" stroke="#63b8ff" points="904.49,-654.28 915.07,-654.88 907.17,-647.81 904.49,-654.28"/>
</a>
</g>
</g>
<!-- Node14 -->
<g id="Node000014" class="node">
<title>Node14</title>
<g id="a_Node000014"><a xlink:href="mem_8h.html#a2e3d82e56bdea756a305d5ced180ca57" target="_top" xlink:title=" ">
<polygon fill="white" stroke="#666666" points="1191.62,-549.88 1073.62,-549.88 1073.62,-529.88 1191.62,-529.88 1191.62,-549.88"/>
<text text-anchor="middle" x="1132.62" y="-536.38" font-family="Helvetica,sans-Serif" font-size="10.00">zrtos_mem__left_rotate</text>
</a>
</g>
</g>
<!-- Node13&#45;&gt;Node14 -->
<g id="edge14_Node000013_Node000014" class="edge">
<title>Node13&#45;&gt;Node14</title>
<g id="a_edge14_Node000013_Node000014"><a xlink:title=" ">
<path fill="none" stroke="#63b8ff" d="M1015.68,-500.38C1039.44,-508.47 1067.76,-518.12 1090.47,-525.85"/>
<polygon fill="#63b8ff" stroke="#63b8ff" points="1089.09,-529.08 1099.68,-528.99 1091.35,-522.46 1089.09,-529.08"/>
</a>
</g>
</g>
<!-- Node17 -->
<g id="Node000017" class="node">
<title>Node17</title>
<g id="a_Node000017"><a xlink:href="mem_8h.html#a1590269d1001c17c2c99725ef85f6386" target="_top" xlink:title=" ">
<polygon fill="white" stroke="#666666" points="1193.5,-499.88 1071.75,-499.88 1071.75,-467.88 1193.5,-467.88 1193.5,-499.88"/>
<text text-anchor="start" x="1079.75" y="-486.38" font-family="Helvetica,sans-Serif" font-size="10.00">zrtos_mem__move_right</text>
<text text-anchor="middle" x="1132.62" y="-474.38" font-family="Helvetica,sans-Serif" font-size="10.00">_overlapping</text>
</a>
</g>
</g>
<!-- Node13&#45;&gt;Node17 -->
<g id="edge18_Node000013_Node000017" class="edge">
<title>Node13&#45;&gt;Node17</title>
<g id="a_edge18_Node000013_Node000017"><a xlink:title=" ">
<path fill="none" stroke="#63b8ff" d="M1019.71,-483.88C1032.56,-483.88 1046.52,-483.88 1060.09,-483.88"/>
<polygon fill="#63b8ff" stroke="#63b8ff" points="1059.85,-487.38 1069.85,-483.88 1059.85,-480.38 1059.85,-487.38"/>
</a>
</g>
</g>
<!-- Node15 -->
<g id="Node000015" class="node">
<title>Node15</title>
<g id="a_Node000015"><a xlink:href="mem_8h.html#a76a7df82d207aef7d339f7ff95cce550" target="_top" xlink:title=" ">
<polygon fill="white" stroke="#666666" points="1343,-549.88 1229.5,-549.88 1229.5,-529.88 1343,-529.88 1343,-549.88"/>
<text text-anchor="middle" x="1286.25" y="-536.38" font-family="Helvetica,sans-Serif" font-size="10.00">zrtos_mem__swap_ex</text>
</a>
</g>
</g>
<!-- Node14&#45;&gt;Node15 -->
<g id="edge15_Node000014_Node000015" class="edge">
<title>Node14&#45;&gt;Node15</title>
<g id="a_edge15_Node000014_Node000015"><a xlink:title=" ">
<path fill="none" stroke="#63b8ff" d="M1191.81,-539.88C1200.41,-539.88 1209.32,-539.88 1218.08,-539.88"/>
<polygon fill="#63b8ff" stroke="#63b8ff" points="1217.95,-543.38 1227.95,-539.88 1217.95,-536.38 1217.95,-543.38"/>
</a>
</g>
</g>
<!-- Node15&#45;&gt;Node11 -->
<g id="edge17_Node000015_Node000011" class="edge">
<title>Node15&#45;&gt;Node11</title>
<g id="a_edge17_Node000015_Node000011"><a xlink:title=" ">
<path fill="none" stroke="#63b8ff" d="M1327.43,-550.36C1344.22,-554.74 1363.93,-559.89 1381.74,-564.53"/>
<polygon fill="#63b8ff" stroke="#63b8ff" points="1380.8,-567.91 1391.36,-567.04 1382.57,-561.13 1380.8,-567.91"/>
</a>
</g>
</g>
<!-- Node16 -->
<g id="Node000016" class="node">
<title>Node16</title>
<g id="a_Node000016"><a xlink:href="mem_8h.html#af7e65258e9f403545514aa561c040c71" target="_top" xlink:title="Swap len bytes of dest and src inplace.">
<polygon fill="white" stroke="#666666" points="1482.75,-549.88 1385,-549.88 1385,-529.88 1482.75,-529.88 1482.75,-549.88"/>
<text text-anchor="middle" x="1433.88" y="-536.38" font-family="Helvetica,sans-Serif" font-size="10.00">zrtos_mem__swap</text>
</a>
</g>
</g>
<!-- Node15&#45;&gt;Node16 -->
<g id="edge16_Node000015_Node000016" class="edge">
<title>Node15&#45;&gt;Node16</title>
<g id="a_edge16_Node000015_Node000016"><a xlink:title=" ">
<path fill="none" stroke="#63b8ff" d="M1343.14,-539.88C1353.16,-539.88 1363.64,-539.88 1373.75,-539.88"/>
<polygon fill="#63b8ff" stroke="#63b8ff" points="1373.45,-543.38 1383.45,-539.88 1373.45,-536.38 1373.45,-543.38"/>
</a>
</g>
</g>
<!-- Node23&#45;&gt;Node6 -->
<g id="edge41_Node000023_Node000006" class="edge">
<title>Node23&#45;&gt;Node6</title>
<g id="a_edge41_Node000023_Node000006"><a xlink:title=" ">
<path fill="none" stroke="#63b8ff" d="M615.51,-605.4C625.38,-567.29 655.09,-472.59 716.5,-423.88 768.44,-382.67 805.66,-422.77 860.75,-385.88 903.19,-357.45 935.34,-305.94 952.15,-274.53"/>
<polygon fill="#63b8ff" stroke="#63b8ff" points="955.25,-276.16 956.76,-265.67 949.04,-272.93 955.25,-276.16"/>
</a>
</g>
</g>
<!-- Node23&#45;&gt;Node8 -->
<g id="edge27_Node000023_Node000008" class="edge">
<title>Node23&#45;&gt;Node8</title>
<g id="a_edge27_Node000023_Node000008"><a xlink:title=" ">
<path fill="none" stroke="#63b8ff" d="M619.79,-605.49C635.06,-576.34 670.6,-515.14 716.5,-478.88 720.39,-475.8 724.64,-472.99 729.07,-470.43"/>
<polygon fill="#63b8ff" stroke="#63b8ff" points="730.41,-473.68 737.63,-465.92 727.15,-467.48 730.41,-473.68"/>
</a>
</g>
</g>
<!-- Node23&#45;&gt;Node10 -->
<g id="edge32_Node000023_Node000010" class="edge">
<title>Node23&#45;&gt;Node10</title>
<g id="a_edge32_Node000023_Node000010"><a xlink:title=" ">
<path fill="none" stroke="#63b8ff" d="M622.48,-605.74C639.59,-581.59 675.15,-536.29 716.5,-511.88 773.59,-478.17 797.95,-495.12 860.75,-473.88 877.17,-468.32 880.6,-465.18 896.75,-458.88 900.63,-457.36 904.65,-455.82 908.71,-454.29"/>
<polygon fill="#63b8ff" stroke="#63b8ff" points="909.89,-457.58 918.04,-450.8 907.44,-451.02 909.89,-457.58"/>
</a>
</g>
</g>
<!-- Node23&#45;&gt;Node19 -->
<g id="edge28_Node000023_Node000019" class="edge">
<title>Node23&#45;&gt;Node19</title>
<g id="a_edge28_Node000023_Node000019"><a xlink:title=" ">
<path fill="none" stroke="#63b8ff" d="M680.23,-621.88C744.04,-621.88 838.42,-621.88 900.85,-621.88"/>
<polygon fill="#63b8ff" stroke="#63b8ff" points="900.6,-625.38 910.6,-621.88 900.6,-618.38 900.6,-625.38"/>
</a>
</g>
</g>
<!-- Node24 -->
<g id="Node000024" class="node">
<title>Node24</title>
<g id="a_Node000024"><a xlink:href="vheap_8h.html#a73b1530334cc53fe2b1ed9e811ad16b7" target="_top" xlink:title=" ">
<polygon fill="white" stroke="#666666" points="842.38,-819.88 734.88,-819.88 734.88,-787.88 842.38,-787.88 842.38,-819.88"/>
<text text-anchor="start" x="742.88" y="-806.38" font-family="Helvetica,sans-Serif" font-size="10.00">zrtos_vheap__get_by</text>
<text text-anchor="middle" x="788.62" y="-794.38" font-family="Helvetica,sans-Serif" font-size="10.00">_type_ex</text>
</a>
</g>
</g>
<!-- Node23&#45;&gt;Node24 -->
<g id="edge29_Node000023_Node000024" class="edge">
<title>Node23&#45;&gt;Node24</title>
<g id="a_edge29_Node000023_Node000024"><a xlink:title=" ">
<path fill="none" stroke="#63b8ff" d="M624.93,-638.23C644.28,-661.7 681.69,-705.98 716.5,-740.88 729.94,-754.35 745.71,-768.48 758.99,-779.93"/>
<polygon fill="#63b8ff" stroke="#63b8ff" points="756.69,-782.57 766.56,-786.41 761.24,-777.25 756.69,-782.57"/>
</a>
</g>
</g>
<!-- Node27 -->
<g id="Node000027" class="node">
<title>Node27</title>
<g id="a_Node000027"><a xlink:href="vheap_8h.html#a7c64f185f189dd5e35dc36b22d1b0397" target="_top" xlink:title=" ">
<polygon fill="white" stroke="#666666" points="847.62,-681.88 729.62,-681.88 729.62,-661.88 847.62,-661.88 847.62,-681.88"/>
<text text-anchor="middle" x="788.62" y="-668.38" font-family="Helvetica,sans-Serif" font-size="10.00">zrtos_vheap__page_out</text>
</a>
</g>
</g>
<!-- Node23&#45;&gt;Node27 -->
<g id="edge33_Node000023_Node000027" class="edge">
<title>Node23&#45;&gt;Node27</title>
<g id="a_edge33_Node000023_Node000027"><a xlink:title=" ">
<path fill="none" stroke="#63b8ff" d="M669.25,-638.25C692.13,-644.75 718.13,-652.13 739.93,-658.33"/>
<polygon fill="#63b8ff" stroke="#63b8ff" points="738.87,-661.66 749.45,-661.03 740.78,-654.93 738.87,-661.66"/>
</a>
</g>
</g>
<!-- Node29 -->
<g id="Node000029" class="node">
<title>Node29</title>
<g id="a_Node000029"><a xlink:href="vheap__task_8h.html#a4916fc70f9461b91fd5c6c8186bbb8f0" target="_top" xlink:title=" ">
<polygon fill="white" stroke="#666666" points="846.5,-731.88 730.75,-731.88 730.75,-699.88 846.5,-699.88 846.5,-731.88"/>
<text text-anchor="start" x="738.75" y="-718.38" font-family="Helvetica,sans-Serif" font-size="10.00">zrtos_vheap_task__set</text>
<text text-anchor="middle" x="788.62" y="-706.38" font-family="Helvetica,sans-Serif" font-size="10.00">_errno</text>
</a>
</g>
</g>
<!-- Node23&#45;&gt;Node29 -->
<g id="edge39_Node000023_Node000029" class="edge">
<title>Node23&#45;&gt;Node29</title>
<g id="a_edge39_Node000023_Node000029"><a xlink:title=" ">
<path fill="none" stroke="#63b8ff" d="M633.18,-638.33C653.75,-653.46 686.03,-675.78 716.5,-690.88 719.41,-692.32 722.43,-693.72 725.51,-695.07"/>
<polygon fill="#63b8ff" stroke="#63b8ff" points="724.13,-698.29 734.71,-698.88 726.81,-691.82 724.13,-698.29"/>
</a>
</g>
</g>
<!-- Node30 -->
<g id="Node000030" class="node">
<title>Node30</title>
<g id="a_Node000030"><a xlink:href="vheap__task_8h.html#ab4203191e1dca81c750ca246d31fda8c" target="_top" xlink:title=" ">
<polygon fill="white" stroke="#666666" points="846.5,-869.88 730.75,-869.88 730.75,-837.88 846.5,-837.88 846.5,-869.88"/>
<text text-anchor="start" x="738.75" y="-856.38" font-family="Helvetica,sans-Serif" font-size="10.00">zrtos_vheap_task__set</text>
<text text-anchor="middle" x="788.62" y="-844.38" font-family="Helvetica,sans-Serif" font-size="10.00">_stack_ptr</text>
</a>
</g>
</g>
<!-- Node23&#45;&gt;Node30 -->
<g id="edge40_Node000023_Node000030" class="edge">
<title>Node23&#45;&gt;Node30</title>
<g id="a_edge40_Node000023_Node000030"><a xlink:title=" ">
<path fill="none" stroke="#63b8ff" d="M615.42,-638.17C625.24,-676.87 655.16,-775.09 716.5,-828.88 717.92,-830.12 719.41,-831.31 720.95,-832.43"/>
<polygon fill="#63b8ff" stroke="#63b8ff" points="718.66,-835.13 729,-837.47 722.38,-829.2 718.66,-835.13"/>
</a>
</g>
</g>
<!-- Node25 -->
<g id="Node000025" class="node">
<title>Node25</title>
<g id="a_Node000025"><a xlink:href="vheap_8h.html#a40019e160b773014a45fd5b8aa6ac436" target="_top" xlink:title=" ">
<polygon fill="white" stroke="#666666" points="1032,-851.88 900.5,-851.88 900.5,-831.88 1032,-831.88 1032,-851.88"/>
<text text-anchor="middle" x="966.25" y="-838.38" font-family="Helvetica,sans-Serif" font-size="10.00">zrtos_vheap__get_by_type</text>
</a>
</g>
</g>
<!-- Node24&#45;&gt;Node25 -->
<g id="edge30_Node000024_Node000025" class="edge">
<title>Node24&#45;&gt;Node25</title>
<g id="a_edge30_Node000024_Node000025"><a xlink:title=" ">
<path fill="none" stroke="#63b8ff" d="M842.79,-815.38C862.64,-819.68 885.3,-824.58 905.69,-828.99"/>
<polygon fill="#63b8ff" stroke="#63b8ff" points="904.76,-832.37 915.27,-831.06 906.24,-825.53 904.76,-832.37"/>
</a>
</g>
</g>
<!-- Node26 -->
<g id="Node000026" class="node">
<title>Node26</title>
<g id="a_Node000026"><a xlink:href="vheap__chunk__type_8h.html#a3ba86ab73e8b4b86da90ba791d52bf27" target="_top" xlink:title=" ">
<polygon fill="white" stroke="#666666" points="1027.88,-901.88 904.62,-901.88 904.62,-869.88 1027.88,-869.88 1027.88,-901.88"/>
<text text-anchor="start" x="912.62" y="-888.38" font-family="Helvetica,sans-Serif" font-size="10.00">zrtos_vheap_chunk_type</text>
<text text-anchor="middle" x="966.25" y="-876.38" font-family="Helvetica,sans-Serif" font-size="10.00">__init</text>
</a>
</g>
</g>
<!-- Node24&#45;&gt;Node26 -->
<g id="edge31_Node000024_Node000026" class="edge">
<title>Node24&#45;&gt;Node26</title>
<g id="a_edge31_Node000024_Node000026"><a xlink:title=" ">
<path fill="none" stroke="#63b8ff" d="M842.72,-819.94C848.96,-822.58 855.11,-825.55 860.75,-828.88 879.2,-839.74 878.37,-849.9 896.75,-860.88 898.91,-862.17 901.16,-863.41 903.45,-864.6"/>
<polygon fill="#63b8ff" stroke="#63b8ff" points="901.86,-867.72 912.4,-868.86 904.87,-861.4 901.86,-867.72"/>
</a>
</g>
</g>
<!-- Node27&#45;&gt;Node11 -->
<g id="edge36_Node000027_Node000011" class="edge">
<title>Node27&#45;&gt;Node11</title>
<g id="a_edge36_Node000027_Node000011"><a xlink:title=" ">
<path fill="none" stroke="#63b8ff" d="M838.73,-682.34C846.28,-684.7 853.85,-687.53 860.75,-690.88 878.74,-699.62 877.78,-711.55 896.75,-717.88 955.36,-737.41 974.86,-728.3 1035.75,-717.88 1177.38,-693.64 1335.64,-624.09 1401.49,-593.1"/>
<polygon fill="#63b8ff" stroke="#63b8ff" points="1402.71,-596.39 1410.25,-588.94 1399.71,-590.07 1402.71,-596.39"/>
</a>
</g>
</g>
<!-- Node27&#45;&gt;Node14 -->
<g id="edge34_Node000027_Node000014" class="edge">
<title>Node27&#45;&gt;Node14</title>
<g id="a_edge34_Node000027_Node000014"><a xlink:title=" ">
<path fill="none" stroke="#63b8ff" d="M824.97,-682.28C845.68,-687.83 872.47,-694.08 896.75,-696.88 958.12,-703.94 981.87,-727.1 1035.75,-696.88 1088.07,-667.52 1115.23,-596.71 1125.98,-561.09"/>
<polygon fill="#63b8ff" stroke="#63b8ff" points="1129.33,-562.12 1128.7,-551.54 1122.6,-560.2 1129.33,-562.12"/>
</a>
</g>
</g>
<!-- Node27&#45;&gt;Node19 -->
<g id="edge37_Node000027_Node000019" class="edge">
<title>Node27&#45;&gt;Node19</title>
<g id="a_edge37_Node000027_Node000019"><a xlink:title=" ">
<path fill="none" stroke="#63b8ff" d="M826.44,-661.39C848.08,-655.23 876.05,-647.27 901.2,-640.11"/>
<polygon fill="#63b8ff" stroke="#63b8ff" points="902.04,-643.51 910.7,-637.41 900.12,-636.78 902.04,-643.51"/>
</a>
</g>
</g>
<!-- Node27&#45;&gt;Node20 -->
<g id="edge38_Node000027_Node000020" class="edge">
<title>Node27&#45;&gt;Node20</title>
<g id="a_edge38_Node000027_Node000020"><a xlink:title=" ">
<path fill="none" stroke="#63b8ff" d="M848.11,-671.88C865.46,-671.88 884.54,-671.88 902.17,-671.88"/>
<polygon fill="#63b8ff" stroke="#63b8ff" points="902,-675.38 912,-671.88 902,-668.38 902,-675.38"/>
</a>
</g>
</g>
<!-- Node28 -->
<g id="Node000028" class="node">
<title>Node28</title>
<g id="a_Node000028"><a xlink:href="mem_8h.html#a9054cc3824c6ffdaf4ed24fde2f80f32" target="_top" xlink:title=" ">
<polygon fill="white" stroke="#666666" points="1024.12,-813.88 908.38,-813.88 908.38,-781.88 1024.12,-781.88 1024.12,-813.88"/>
<text text-anchor="start" x="916.38" y="-800.38" font-family="Helvetica,sans-Serif" font-size="10.00">zrtos_mem__move_left</text>
<text text-anchor="middle" x="966.25" y="-788.38" font-family="Helvetica,sans-Serif" font-size="10.00">_overlapping</text>
</a>
</g>
</g>
<!-- Node27&#45;&gt;Node28 -->
<g id="edge35_Node000027_Node000028" class="edge">
<title>Node27&#45;&gt;Node28</title>
<g id="a_edge35_Node000027_Node000028"><a xlink:title=" ">
<path fill="none" stroke="#63b8ff" d="M847.01,-682.28C851.96,-684.6 856.63,-687.43 860.75,-690.88 889.71,-715.13 869.71,-741.49 896.75,-767.88 899.58,-770.63 902.7,-773.16 906.01,-775.47"/>
<polygon fill="#63b8ff" stroke="#63b8ff" points="904.08,-778.4 914.44,-780.64 907.74,-772.43 904.08,-778.4"/>
</a>
</g>
</g>
<!-- Node34&#45;&gt;Node6 -->
<g id="edge52_Node000034_Node000006" class="edge">
<title>Node34&#45;&gt;Node6</title>
<g id="a_edge52_Node000034_Node000006"><a xlink:title=" ">
<path fill="none" stroke="#63b8ff" d="M680.93,-189.74C731.24,-194.12 800.71,-201.9 860.75,-214.88 876.46,-218.27 893.19,-223.02 908.54,-227.86"/>
<polygon fill="#63b8ff" stroke="#63b8ff" points="907.42,-231.17 918.01,-230.92 909.57,-224.51 907.42,-231.17"/>
</a>
</g>
</g>
<!-- Node35 -->
<g id="Node000035" class="node">
<title>Node35</title>
<g id="a_Node000035"><a xlink:href="vheap_8h.html#ad2723df7cc03e8a85b5886b8fd2c2b4e" target="_top" xlink:title=" ">
<polygon fill="white" stroke="#666666" points="847.62,-552.88 729.62,-552.88 729.62,-520.88 847.62,-520.88 847.62,-552.88"/>
<text text-anchor="start" x="737.62" y="-539.38" font-family="Helvetica,sans-Serif" font-size="10.00">_zrtos_vheap__get_free</text>
<text text-anchor="middle" x="788.62" y="-527.38" font-family="Helvetica,sans-Serif" font-size="10.00">_space_ex</text>
</a>
</g>
</g>
<!-- Node34&#45;&gt;Node35 -->
<g id="edge47_Node000034_Node000035" class="edge">
<title>Node34&#45;&gt;Node35</title>
<g id="a_edge47_Node000034_Node000035"><a xlink:title=" ">
<path fill="none" stroke="#63b8ff" d="M636.63,-201.14C651.82,-212.39 670.2,-228.76 680.5,-247.88 728.72,-337.43 667.56,-384.71 716.5,-473.88 725.08,-489.5 739.09,-503.16 752.41,-513.73"/>
<polygon fill="#63b8ff" stroke="#63b8ff" points="750.15,-516.41 760.25,-519.63 754.36,-510.82 750.15,-516.41"/>
</a>
</g>
</g>
<!-- Node36 -->
<g id="Node000036" class="node">
<title>Node36</title>
<g id="a_Node000036"><a xlink:href="vheap__chunk_8h.html#a26bcd8779d88d67764f563058787008a" target="_top" xlink:title=" ">
<polygon fill="white" stroke="#666666" points="840.88,-162.88 736.38,-162.88 736.38,-130.88 840.88,-130.88 840.88,-162.88"/>
<text text-anchor="start" x="744.38" y="-149.38" font-family="Helvetica,sans-Serif" font-size="10.00">zrtos_vheap_chunk_</text>
<text text-anchor="middle" x="788.62" y="-137.38" font-family="Helvetica,sans-Serif" font-size="10.00">_get_length</text>
</a>
</g>
</g>
<!-- Node34&#45;&gt;Node36 -->
<g id="edge50_Node000034_Node000036" class="edge">
<title>Node34&#45;&gt;Node36</title>
<g id="a_edge50_Node000034_Node000036"><a xlink:title=" ">
<path fill="none" stroke="#63b8ff" d="M680.93,-169.91C695.43,-166.78 710.64,-163.5 724.88,-160.42"/>
<polygon fill="#63b8ff" stroke="#63b8ff" points="725.55,-163.86 734.58,-158.33 724.07,-157.02 725.55,-163.86"/>
</a>
</g>
</g>
<!-- Node37 -->
<g id="Node000037" class="node">
<title>Node37</title>
<g id="a_Node000037"><a xlink:href="vheap__task_8h.html#a896d233acb32ead8d7e1fd170a42aae3" target="_top" xlink:title=" ">
<polygon fill="white" stroke="#666666" points="846.5,-112.88 730.75,-112.88 730.75,-80.88 846.5,-80.88 846.5,-112.88"/>
<text text-anchor="start" x="738.75" y="-99.38" font-family="Helvetica,sans-Serif" font-size="10.00">zrtos_vheap_task__get</text>
<text text-anchor="middle" x="788.62" y="-87.38" font-family="Helvetica,sans-Serif" font-size="10.00">_stack_size_min</text>
</a>
</g>
</g>
<!-- Node34&#45;&gt;Node37 -->
<g id="edge51_Node000034_Node000037" class="edge">
<title>Node34&#45;&gt;Node37</title>
<g id="a_edge51_Node000034_Node000037"><a xlink:title=" ">
<path fill="none" stroke="#63b8ff" d="M635.85,-168.39C656.62,-154.73 687.67,-135.43 716.5,-121.88 719.76,-120.34 723.14,-118.85 726.57,-117.41"/>
<polygon fill="#63b8ff" stroke="#63b8ff" points="727.6,-120.77 735.58,-113.81 725,-114.27 727.6,-120.77"/>
</a>
</g>
</g>
<!-- Node35&#45;&gt;Node10 -->
<g id="edge49_Node000035_Node000010" class="edge">
<title>Node35&#45;&gt;Node10</title>
<g id="a_edge49_Node000035_Node000010"><a xlink:title=" ">
<path fill="none" stroke="#63b8ff" d="M838.23,-520.47C846.17,-516.67 853.99,-512.16 860.75,-506.88 881.76,-490.46 875.34,-474.77 896.75,-458.88 898.12,-457.86 899.53,-456.89 900.98,-455.95"/>
<polygon fill="#63b8ff" stroke="#63b8ff" points="902.7,-458.99 909.66,-451.01 899.24,-452.91 902.7,-458.99"/>
</a>
</g>
</g>
<!-- Node35&#45;&gt;Node19 -->
<g id="edge48_Node000035_Node000019" class="edge">
<title>Node35&#45;&gt;Node19</title>
<g id="a_edge48_Node000035_Node000019"><a xlink:title=" ">
<path fill="none" stroke="#63b8ff" d="M840.21,-553.37C847.19,-556.01 854.21,-558.88 860.75,-561.88 884.67,-572.83 910.3,-587.5 930.2,-599.6"/>
<polygon fill="#63b8ff" stroke="#63b8ff" points="928.11,-602.42 938.46,-604.68 931.78,-596.46 928.11,-602.42"/>
</a>
</g>
</g>
</g>
</svg>
