<?xml version="1.0" encoding="UTF-8" standalone="no"?>
<!DOCTYPE svg PUBLIC "-//W3C//DTD SVG 1.1//EN"
 "http://www.w3.org/Graphics/SVG/1.1/DTD/svg11.dtd">
<!-- Generated by graphviz version 10.0.1 (20240210.2158)
 -->
<!-- Title: _zrtos_vheap__get_free_space Pages: 1 -->
<svg width="594pt" height="103pt"
 viewBox="0.00 0.00 594.00 103.00" xmlns="http://www.w3.org/2000/svg" xmlns:xlink="http://www.w3.org/1999/xlink">
<g id="graph0" class="graph" transform="scale(1 1) rotate(0) translate(4 99)">
<title>_zrtos_vheap__get_free_space</title>
<!-- Node1 -->
<g id="Node000001" class="node">
<title>Node1</title>
<g id="a_Node000001"><a xlink:title=" ">
<polygon fill="#999999" stroke="#666666" points="118,-48 0,-48 0,-16 118,-16 118,-48"/>
<text text-anchor="start" x="8" y="-34.5" font-family="Helvetica,sans-Serif" font-size="10.00">_zrtos_vheap__get_free</text>
<text text-anchor="middle" x="59" y="-22.5" font-family="Helvetica,sans-Serif" font-size="10.00">_space</text>
</a>
</g>
</g>
<!-- Node2 -->
<g id="Node000002" class="node">
<title>Node2</title>
<g id="a_Node000002"><a xlink:href="vheap_8h.html#ad2723df7cc03e8a85b5886b8fd2c2b4e" target="_top" xlink:title=" ">
<polygon fill="white" stroke="#666666" points="281.75,-70 163.75,-70 163.75,-38 281.75,-38 281.75,-70"/>
<text text-anchor="start" x="171.75" y="-56.5" font-family="Helvetica,sans-Serif" font-size="10.00">_zrtos_vheap__get_free</text>
<text text-anchor="middle" x="222.75" y="-44.5" font-family="Helvetica,sans-Serif" font-size="10.00">_space_ex</text>
</a>
</g>
</g>
<!-- Node1&#45;&gt;Node2 -->
<g id="edge1_Node000001_Node000002" class="edge">
<title>Node1&#45;&gt;Node2</title>
<g id="a_edge1_Node000001_Node000002"><a xlink:title=" ">
<path fill="none" stroke="#63b8ff" d="M118.4,-39.94C129.39,-41.44 140.99,-43.02 152.28,-44.55"/>
<polygon fill="#63b8ff" stroke="#63b8ff" points="151.56,-47.99 161.94,-45.87 152.5,-41.05 151.56,-47.99"/>
</a>
</g>
</g>
<!-- Node6 -->
<g id="Node000006" class="node">
<title>Node6</title>
<g id="a_Node000006"><a xlink:href="vheap_8h.html#a8db165ab2eef6113422d6f72c9321ea9" target="_top" xlink:title=" ">
<polygon fill="white" stroke="#666666" points="291.5,-20 154,-20 154,0 291.5,0 291.5,-20"/>
<text text-anchor="middle" x="222.75" y="-6.5" font-family="Helvetica,sans-Serif" font-size="10.00">zrtos_vheap__get_stack_ptr</text>
</a>
</g>
</g>
<!-- Node1&#45;&gt;Node6 -->
<g id="edge5_Node000001_Node000006" class="edge">
<title>Node1&#45;&gt;Node6</title>
<g id="a_edge5_Node000001_Node000006"><a xlink:title=" ">
<path fill="none" stroke="#63b8ff" d="M118.4,-24.06C126.15,-23 134.19,-21.91 142.23,-20.82"/>
<polygon fill="#63b8ff" stroke="#63b8ff" points="142.6,-24.3 152.03,-19.48 141.65,-17.36 142.6,-24.3"/>
</a>
</g>
</g>
<!-- Node3 -->
<g id="Node000003" class="node">
<title>Node3</title>
<g id="a_Node000003"><a xlink:href="types_8h.html#adbc4238237e656eb247fd49ffbfb1a6d" target="_top" xlink:title=" ">
<polygon fill="white" stroke="#666666" points="437.62,-95 330.12,-95 330.12,-63 437.62,-63 437.62,-95"/>
<text text-anchor="start" x="338.12" y="-81.5" font-family="Helvetica,sans-Serif" font-size="10.00">zrtos_types__ptr_get</text>
<text text-anchor="middle" x="383.88" y="-69.5" font-family="Helvetica,sans-Serif" font-size="10.00">_byte_distance</text>
</a>
</g>
</g>
<!-- Node2&#45;&gt;Node3 -->
<g id="edge2_Node000002_Node000003" class="edge">
<title>Node2&#45;&gt;Node3</title>
<g id="a_edge2_Node000002_Node000003"><a xlink:title=" ">
<path fill="none" stroke="#63b8ff" d="M282.1,-63.17C293.93,-65.03 306.43,-66.99 318.46,-68.88"/>
<polygon fill="#63b8ff" stroke="#63b8ff" points="317.89,-72.33 328.31,-70.43 318.97,-65.42 317.89,-72.33"/>
</a>
</g>
</g>
<!-- Node4 -->
<g id="Node000004" class="node">
<title>Node4</title>
<g id="a_Node000004"><a xlink:href="vheap_8h.html#a9cff4e6aefa63154b78bcb1a5f442d72" target="_top" xlink:title=" ">
<polygon fill="white" stroke="#666666" points="440.25,-45 327.5,-45 327.5,-13 440.25,-13 440.25,-45"/>
<text text-anchor="start" x="335.5" y="-31.5" font-family="Helvetica,sans-Serif" font-size="10.00">zrtos_vheap__get_last</text>
<text text-anchor="middle" x="383.88" y="-19.5" font-family="Helvetica,sans-Serif" font-size="10.00">_address</text>
</a>
</g>
</g>
<!-- Node2&#45;&gt;Node4 -->
<g id="edge3_Node000002_Node000004" class="edge">
<title>Node2&#45;&gt;Node4</title>
<g id="a_edge3_Node000002_Node000004"><a xlink:title=" ">
<path fill="none" stroke="#63b8ff" d="M282.1,-44.83C293.14,-43.1 304.77,-41.27 316.05,-39.5"/>
<polygon fill="#63b8ff" stroke="#63b8ff" points="316.35,-42.99 325.69,-37.98 315.27,-36.08 316.35,-42.99"/>
</a>
</g>
</g>
<!-- Node5 -->
<g id="Node000005" class="node">
<title>Node5</title>
<g id="a_Node000005"><a xlink:href="types_8h.html#ab0b4ddf54b9e9f4a54504f833babbc1c" target="_top" xlink:title=" ">
<polygon fill="white" stroke="#666666" points="586,-39 476.25,-39 476.25,-19 586,-19 586,-39"/>
<text text-anchor="middle" x="531.12" y="-25.5" font-family="Helvetica,sans-Serif" font-size="10.00">zrtos_types__ptr_add</text>
</a>
</g>
</g>
<!-- Node4&#45;&gt;Node5 -->
<g id="edge4_Node000004_Node000005" class="edge">
<title>Node4&#45;&gt;Node5</title>
<g id="a_edge4_Node000004_Node000005"><a xlink:title=" ">
<path fill="none" stroke="#63b8ff" d="M440.62,-29C448.56,-29 456.78,-29 464.88,-29"/>
<polygon fill="#63b8ff" stroke="#63b8ff" points="464.69,-32.5 474.69,-29 464.69,-25.5 464.69,-32.5"/>
</a>
</g>
</g>
</g>
</svg>
