<?xml version="1.0" encoding="UTF-8" standalone="no"?>
<!DOCTYPE svg PUBLIC "-//W3C//DTD SVG 1.1//EN"
 "http://www.w3.org/Graphics/SVG/1.1/DTD/svg11.dtd">
<!-- Generated by graphviz version 10.0.1 (20240210.2158)
 -->
<!-- Title: _zrtos_vheap_task_scheduler__get_active_task Pages: 1 -->
<svg width="1148pt" height="134pt"
 viewBox="0.00 0.00 1147.50 134.00" xmlns="http://www.w3.org/2000/svg" xmlns:xlink="http://www.w3.org/1999/xlink">
<g id="graph0" class="graph" transform="scale(1 1) rotate(0) translate(4 130)">
<title>_zrtos_vheap_task_scheduler__get_active_task</title>
<!-- Node1 -->
<g id="Node000001" class="node">
<title>Node1</title>
<g id="a_Node000001"><a xlink:title=" ">
<polygon fill="#999999" stroke="#666666" points="1139.5,-82 995.25,-82 995.25,-50 1139.5,-50 1139.5,-82"/>
<text text-anchor="start" x="1003.25" y="-68.5" font-family="Helvetica,sans-Serif" font-size="10.00">_zrtos_vheap_task_scheduler</text>
<text text-anchor="middle" x="1067.38" y="-56.5" font-family="Helvetica,sans-Serif" font-size="10.00">__get_active_task</text>
</a>
</g>
</g>
<!-- Node2 -->
<g id="Node000002" class="node">
<title>Node2</title>
<g id="a_Node000002"><a xlink:href="vheap__task__scheduler_8h.html#a51ae476e29565ebfde1ec3340150ca06" target="_top" xlink:title=" ">
<polygon fill="white" stroke="#666666" points="243.5,-126 104.5,-126 104.5,-94 243.5,-94 243.5,-126"/>
<text text-anchor="start" x="112.5" y="-112.5" font-family="Helvetica,sans-Serif" font-size="10.00">zrtos_vheap_task_scheduler</text>
<text text-anchor="middle" x="174" y="-100.5" font-family="Helvetica,sans-Serif" font-size="10.00">__delay_ms</text>
</a>
</g>
</g>
<!-- Node1&#45;&gt;Node2 -->
<g id="edge1_Node000001_Node000002" class="edge">
<title>Node1&#45;&gt;Node2</title>
<g id="a_edge1_Node000001_Node000002"><a xlink:title=" ">
<path fill="none" stroke="#63b8ff" d="M991.76,-84.94C980.9,-87.25 969.83,-89.37 959.25,-91 850.82,-107.74 822.84,-110 713.12,-110 713.12,-110 713.12,-110 530.88,-110 431.09,-110 315.58,-110 243.89,-110"/>
<polygon fill="#63b8ff" stroke="#63b8ff" points="992.47,-88.37 1001.48,-82.8 990.96,-81.53 992.47,-88.37"/>
</a>
</g>
</g>
<!-- Node4 -->
<g id="Node000004" class="node">
<title>Node4</title>
<g id="a_Node000004"><a xlink:href="vheap__task__scheduler_8h.html#ac3ceec0a4016b00c1670ddce858c6bac" target="_top" xlink:title=" ">
<polygon fill="white" stroke="#666666" points="959.25,-32 820.25,-32 820.25,0 959.25,0 959.25,-32"/>
<text text-anchor="start" x="828.25" y="-18.5" font-family="Helvetica,sans-Serif" font-size="10.00">zrtos_vheap_task_scheduler</text>
<text text-anchor="middle" x="889.75" y="-6.5" font-family="Helvetica,sans-Serif" font-size="10.00">__page_task_in</text>
</a>
</g>
</g>
<!-- Node1&#45;&gt;Node4 -->
<g id="edge3_Node000001_Node000004" class="edge">
<title>Node1&#45;&gt;Node4</title>
<g id="a_edge3_Node000001_Node000004"><a xlink:title=" ">
<path fill="none" stroke="#63b8ff" d="M997.8,-46.48C981.56,-41.85 964.4,-36.97 948.69,-32.49"/>
<polygon fill="#63b8ff" stroke="#63b8ff" points="996.84,-49.84 1007.41,-49.21 998.75,-43.11 996.84,-49.84"/>
</a>
</g>
</g>
<!-- Node10 -->
<g id="Node000010" class="node">
<title>Node10</title>
<g id="a_Node000010"><a xlink:href="vheap__task__scheduler_8h.html#aff9fd65d1ee753d63d6749a7d18ccb05" target="_top" xlink:title=" ">
<polygon fill="white" stroke="#666666" points="959.25,-82 820.25,-82 820.25,-50 959.25,-50 959.25,-82"/>
<text text-anchor="start" x="828.25" y="-68.5" font-family="Helvetica,sans-Serif" font-size="10.00">zrtos_vheap_task_scheduler</text>
<text text-anchor="middle" x="889.75" y="-56.5" font-family="Helvetica,sans-Serif" font-size="10.00">__page_task_out</text>
</a>
</g>
</g>
<!-- Node1&#45;&gt;Node10 -->
<g id="edge10_Node000001_Node000010" class="edge">
<title>Node1&#45;&gt;Node10</title>
<g id="a_edge10_Node000001_Node000010"><a xlink:title=" ">
<path fill="none" stroke="#63b8ff" d="M983.62,-66C975.57,-66 967.46,-66 959.56,-66"/>
<polygon fill="#63b8ff" stroke="#63b8ff" points="983.43,-69.5 993.43,-66 983.43,-62.5 983.43,-69.5"/>
</a>
</g>
</g>
<!-- Node3 -->
<g id="Node000003" class="node">
<title>Node3</title>
<g id="a_Node000003"><a xlink:href="vheap__task__pthread_8h.html#a28a15bba47cab57cbc9f5dac9af99c8b" target="_top" xlink:title=" ">
<polygon fill="white" stroke="#666666" points="68.5,-120 0,-120 0,-100 68.5,-100 68.5,-120"/>
<text text-anchor="middle" x="34.25" y="-106.5" font-family="Helvetica,sans-Serif" font-size="10.00">pthread_join</text>
</a>
</g>
</g>
<!-- Node2&#45;&gt;Node3 -->
<g id="edge2_Node000002_Node000003" class="edge">
<title>Node2&#45;&gt;Node3</title>
<g id="a_edge2_Node000002_Node000003"><a xlink:title=" ">
<path fill="none" stroke="#63b8ff" d="M92.7,-110C84.38,-110 76.3,-110 68.95,-110"/>
<polygon fill="#63b8ff" stroke="#63b8ff" points="92.61,-113.5 102.61,-110 92.61,-106.5 92.61,-113.5"/>
</a>
</g>
</g>
<!-- Node5 -->
<g id="Node000005" class="node">
<title>Node5</title>
<g id="a_Node000005"><a xlink:href="vheap__task__scheduler_8h.html#af69e917ca8bd27891eb335dda8289faf" target="_top" xlink:title=" ">
<polygon fill="white" stroke="#666666" points="784.25,-82 640,-82 640,-50 784.25,-50 784.25,-82"/>
<text text-anchor="start" x="648" y="-68.5" font-family="Helvetica,sans-Serif" font-size="10.00">_zrtos_vheap_task_scheduler</text>
<text text-anchor="middle" x="712.12" y="-56.5" font-family="Helvetica,sans-Serif" font-size="10.00">__set_active_task</text>
</a>
</g>
</g>
<!-- Node4&#45;&gt;Node5 -->
<g id="edge4_Node000004_Node000005" class="edge">
<title>Node4&#45;&gt;Node5</title>
<g id="a_edge4_Node000004_Node000005"><a xlink:title=" ">
<path fill="none" stroke="#63b8ff" d="M820.18,-35.52C803.94,-40.15 786.77,-45.03 771.06,-49.51"/>
<polygon fill="#63b8ff" stroke="#63b8ff" points="821.13,-38.89 829.79,-32.79 819.21,-32.16 821.13,-38.89"/>
</a>
</g>
</g>
<!-- Node9 -->
<g id="Node000009" class="node">
<title>Node9</title>
<g id="a_Node000009"><a xlink:href="vheap__task__scheduler_8h.html#add5545a77a9d66f232fa03da168ca02f" target="_top" xlink:title=" ">
<polygon fill="white" stroke="#666666" points="781.62,-32 642.62,-32 642.62,0 781.62,0 781.62,-32"/>
<text text-anchor="start" x="650.62" y="-18.5" font-family="Helvetica,sans-Serif" font-size="10.00">zrtos_vheap_task_scheduler</text>
<text text-anchor="middle" x="712.12" y="-6.5" font-family="Helvetica,sans-Serif" font-size="10.00">__start</text>
</a>
</g>
</g>
<!-- Node4&#45;&gt;Node9 -->
<g id="edge9_Node000004_Node000009" class="edge">
<title>Node4&#45;&gt;Node9</title>
<g id="a_edge9_Node000004_Node000009"><a xlink:title=" ">
<path fill="none" stroke="#63b8ff" d="M808.39,-16C799.62,-16 790.74,-16 782.12,-16"/>
<polygon fill="#63b8ff" stroke="#63b8ff" points="808.33,-19.5 818.33,-16 808.33,-12.5 808.33,-19.5"/>
</a>
</g>
</g>
<!-- Node6 -->
<g id="Node000006" class="node">
<title>Node6</title>
<g id="a_Node000006"><a xlink:href="vheap__task__scheduler_8h.html#a1a1be02692a671c368f4e2335179a042" target="_top" xlink:title=" ">
<polygon fill="white" stroke="#666666" points="604,-82 459.75,-82 459.75,-50 604,-50 604,-82"/>
<text text-anchor="start" x="467.75" y="-68.5" font-family="Helvetica,sans-Serif" font-size="10.00">_zrtos_vheap_task_scheduler</text>
<text text-anchor="middle" x="531.88" y="-56.5" font-family="Helvetica,sans-Serif" font-size="10.00">__switch_task</text>
</a>
</g>
</g>
<!-- Node5&#45;&gt;Node6 -->
<g id="edge5_Node000005_Node000006" class="edge">
<title>Node5&#45;&gt;Node6</title>
<g id="a_edge5_Node000005_Node000006"><a xlink:title=" ">
<path fill="none" stroke="#63b8ff" d="M628.38,-66C620.36,-66 612.27,-66 604.37,-66"/>
<polygon fill="#63b8ff" stroke="#63b8ff" points="628.14,-69.5 638.14,-66 628.14,-62.5 628.14,-69.5"/>
</a>
</g>
</g>
<!-- Node7 -->
<g id="Node000007" class="node">
<title>Node7</title>
<g id="a_Node000007"><a xlink:href="vheap__task__scheduler_8h.html#acd810187c2b0b8d63548170c9da4b73d" target="_top" xlink:title=" ">
<polygon fill="white" stroke="#666666" points="423.75,-82 279.5,-82 279.5,-50 423.75,-50 423.75,-82"/>
<text text-anchor="start" x="287.5" y="-68.5" font-family="Helvetica,sans-Serif" font-size="10.00">_zrtos_vheap_task_scheduler</text>
<text text-anchor="middle" x="351.62" y="-56.5" font-family="Helvetica,sans-Serif" font-size="10.00">__on_tick</text>
</a>
</g>
</g>
<!-- Node6&#45;&gt;Node7 -->
<g id="edge6_Node000006_Node000007" class="edge">
<title>Node6&#45;&gt;Node7</title>
<g id="a_edge6_Node000006_Node000007"><a xlink:title=" ">
<path fill="none" stroke="#63b8ff" d="M448.13,-66C440.11,-66 432.02,-66 424.12,-66"/>
<polygon fill="#63b8ff" stroke="#63b8ff" points="447.89,-69.5 457.89,-66 447.89,-62.5 447.89,-69.5"/>
</a>
</g>
</g>
<!-- Node7&#45;&gt;Node2 -->
<g id="edge7_Node000007_Node000002" class="edge">
<title>Node7&#45;&gt;Node2</title>
<g id="a_edge7_Node000007_Node000002"><a xlink:title=" ">
<path fill="none" stroke="#63b8ff" d="M274.03,-85.19C262.98,-87.96 251.68,-90.79 240.86,-93.5"/>
<polygon fill="#63b8ff" stroke="#63b8ff" points="274.66,-88.64 283.51,-82.81 272.96,-81.85 274.66,-88.64"/>
</a>
</g>
</g>
<!-- Node8 -->
<g id="Node000008" class="node">
<title>Node8</title>
<g id="a_Node000008"><a xlink:href="vheap__task__scheduler_8h.html#a3734a190668294fe1e91009e3cf6f72a" target="_top" xlink:title=" ">
<polygon fill="white" stroke="#666666" points="243.5,-76 104.5,-76 104.5,-44 243.5,-44 243.5,-76"/>
<text text-anchor="start" x="112.5" y="-62.5" font-family="Helvetica,sans-Serif" font-size="10.00">zrtos_vheap_task_scheduler</text>
<text text-anchor="middle" x="174" y="-50.5" font-family="Helvetica,sans-Serif" font-size="10.00">__trampoline_cb</text>
</a>
</g>
</g>
<!-- Node7&#45;&gt;Node8 -->
<g id="edge8_Node000007_Node000008" class="edge">
<title>Node7&#45;&gt;Node8</title>
<g id="a_edge8_Node000007_Node000008"><a xlink:title=" ">
<path fill="none" stroke="#63b8ff" d="M267.87,-63.17C259.82,-62.9 251.71,-62.62 243.81,-62.35"/>
<polygon fill="#63b8ff" stroke="#63b8ff" points="267.57,-66.66 277.68,-63.51 267.8,-59.67 267.57,-66.66"/>
</a>
</g>
</g>
<!-- Node10&#45;&gt;Node5 -->
<g id="edge11_Node000010_Node000005" class="edge">
<title>Node10&#45;&gt;Node5</title>
<g id="a_edge11_Node000010_Node000005"><a xlink:title=" ">
<path fill="none" stroke="#63b8ff" d="M808.37,-66C800.49,-66 792.52,-66 784.72,-66"/>
<polygon fill="#63b8ff" stroke="#63b8ff" points="808.33,-69.5 818.33,-66 808.33,-62.5 808.33,-69.5"/>
</a>
</g>
</g>
</g>
</svg>
