<?xml version="1.0" encoding="UTF-8" standalone="no"?>
<!DOCTYPE svg PUBLIC "-//W3C//DTD SVG 1.1//EN"
 "http://www.w3.org/Graphics/SVG/1.1/DTD/svg11.dtd">
<!-- Generated by graphviz version 10.0.1 (20240210.2158)
 -->
<!-- Title: zrtos_vheap_chunk__get_length Pages: 1 -->
<svg width="928pt" height="166pt"
 viewBox="0.00 0.00 928.25 166.00" xmlns="http://www.w3.org/2000/svg" xmlns:xlink="http://www.w3.org/1999/xlink">
<g id="graph0" class="graph" transform="scale(1 1) rotate(0) translate(4 162)">
<title>zrtos_vheap_chunk__get_length</title>
<!-- Node1 -->
<g id="Node000001" class="node">
<title>Node1</title>
<g id="a_Node000001"><a xlink:title=" ">
<polygon fill="#999999" stroke="#666666" points="920.25,-104 815.75,-104 815.75,-72 920.25,-72 920.25,-104"/>
<text text-anchor="start" x="823.75" y="-90.5" font-family="Helvetica,sans-Serif" font-size="10.00">zrtos_vheap_chunk_</text>
<text text-anchor="middle" x="868" y="-78.5" font-family="Helvetica,sans-Serif" font-size="10.00">_get_length</text>
</a>
</g>
</g>
<!-- Node2 -->
<g id="Node000002" class="node">
<title>Node2</title>
<g id="a_Node000002"><a xlink:href="vheap__chunk_8h.html#aba957344872ae69126cf74e3c8941588" target="_top" xlink:title=" ">
<polygon fill="white" stroke="#666666" points="762.12,-129 657.62,-129 657.62,-97 762.12,-97 762.12,-129"/>
<text text-anchor="start" x="665.62" y="-115.5" font-family="Helvetica,sans-Serif" font-size="10.00">zrtos_vheap_chunk_</text>
<text text-anchor="middle" x="709.88" y="-103.5" font-family="Helvetica,sans-Serif" font-size="10.00">_get_last_address</text>
</a>
</g>
</g>
<!-- Node1&#45;&gt;Node2 -->
<g id="edge1_Node000001_Node000002" class="edge">
<title>Node1&#45;&gt;Node2</title>
<g id="a_edge1_Node000001_Node000002"><a xlink:title=" ">
<path fill="none" stroke="#63b8ff" d="M804.43,-98.02C790.48,-100.25 775.83,-102.6 762.37,-104.75"/>
<polygon fill="#63b8ff" stroke="#63b8ff" points="804.63,-101.53 813.95,-96.49 803.52,-94.62 804.63,-101.53"/>
</a>
</g>
</g>
<!-- Node5 -->
<g id="Node000005" class="node">
<title>Node5</title>
<g id="a_Node000005"><a xlink:href="vheap__task__scheduler_8h.html#a99d7655ba93c186077c9de6a6f310c43" target="_top" xlink:title=" ">
<polygon fill="white" stroke="#666666" points="779.75,-79 640,-79 640,-47 779.75,-47 779.75,-79"/>
<text text-anchor="start" x="648" y="-65.5" font-family="Helvetica,sans-Serif" font-size="10.00">zrtos_vheap_task_scheduler</text>
<text text-anchor="middle" x="709.88" y="-53.5" font-family="Helvetica,sans-Serif" font-size="10.00">__has_enough_stack_space</text>
</a>
</g>
</g>
<!-- Node1&#45;&gt;Node5 -->
<g id="edge4_Node000001_Node000005" class="edge">
<title>Node1&#45;&gt;Node5</title>
<g id="a_edge4_Node000001_Node000005"><a xlink:title=" ">
<path fill="none" stroke="#63b8ff" d="M804.11,-77.93C796.24,-76.67 788.16,-75.38 780.2,-74.1"/>
<polygon fill="#63b8ff" stroke="#63b8ff" points="803.52,-81.38 813.95,-79.51 804.63,-74.47 803.52,-81.38"/>
</a>
</g>
</g>
<!-- Node3 -->
<g id="Node000003" class="node">
<title>Node3</title>
<g id="a_Node000003"><a xlink:href="vheap__task__pthread_8h.html#a091adcef6201bebbf231763328c15286" target="_top" xlink:title=" ">
<polygon fill="white" stroke="#666666" points="572.12,-158 491.62,-158 491.62,-138 572.12,-138 572.12,-158"/>
<text text-anchor="middle" x="531.88" y="-144.5" font-family="Helvetica,sans-Serif" font-size="10.00">pthread_create</text>
</a>
</g>
</g>
<!-- Node2&#45;&gt;Node3 -->
<g id="edge2_Node000002_Node000003" class="edge">
<title>Node2&#45;&gt;Node3</title>
<g id="a_edge2_Node000002_Node000003"><a xlink:title=" ">
<path fill="none" stroke="#63b8ff" d="M646.43,-125.42C621.85,-130.31 594.34,-135.78 572.56,-140.11"/>
<polygon fill="#63b8ff" stroke="#63b8ff" points="646.89,-128.9 656.01,-123.51 645.52,-122.03 646.89,-128.9"/>
</a>
</g>
</g>
<!-- Node4 -->
<g id="Node000004" class="node">
<title>Node4</title>
<g id="a_Node000004"><a xlink:href="vheap__task__pthread_8h.html#a28a15bba47cab57cbc9f5dac9af99c8b" target="_top" xlink:title=" ">
<polygon fill="white" stroke="#666666" points="68.5,-98 0,-98 0,-78 68.5,-78 68.5,-98"/>
<text text-anchor="middle" x="34.25" y="-84.5" font-family="Helvetica,sans-Serif" font-size="10.00">pthread_join</text>
</a>
</g>
</g>
<!-- Node2&#45;&gt;Node4 -->
<g id="edge3_Node000002_Node000004" class="edge">
<title>Node2&#45;&gt;Node4</title>
<g id="a_edge3_Node000002_Node000004"><a xlink:title=" ">
<path fill="none" stroke="#63b8ff" d="M645.94,-110.85C536.06,-107.07 302.09,-98.88 104.5,-91 92.84,-90.54 80.07,-89.99 68.71,-89.5"/>
<polygon fill="#63b8ff" stroke="#63b8ff" points="645.5,-114.34 655.62,-111.18 645.74,-107.34 645.5,-114.34"/>
</a>
</g>
</g>
<!-- Node6 -->
<g id="Node000006" class="node">
<title>Node6</title>
<g id="a_Node000006"><a xlink:href="vheap__task__scheduler_8h.html#a1a1be02692a671c368f4e2335179a042" target="_top" xlink:title=" ">
<polygon fill="white" stroke="#666666" points="604,-79 459.75,-79 459.75,-47 604,-47 604,-79"/>
<text text-anchor="start" x="467.75" y="-65.5" font-family="Helvetica,sans-Serif" font-size="10.00">_zrtos_vheap_task_scheduler</text>
<text text-anchor="middle" x="531.88" y="-53.5" font-family="Helvetica,sans-Serif" font-size="10.00">__switch_task</text>
</a>
</g>
</g>
<!-- Node5&#45;&gt;Node6 -->
<g id="edge5_Node000005_Node000006" class="edge">
<title>Node5&#45;&gt;Node6</title>
<g id="a_edge5_Node000005_Node000006"><a xlink:title=" ">
<path fill="none" stroke="#63b8ff" d="M628.09,-63C620.2,-63 612.23,-63 604.43,-63"/>
<polygon fill="#63b8ff" stroke="#63b8ff" points="628.05,-66.5 638.05,-63 628.05,-59.5 628.05,-66.5"/>
</a>
</g>
</g>
<!-- Node7 -->
<g id="Node000007" class="node">
<title>Node7</title>
<g id="a_Node000007"><a xlink:href="vheap__task__scheduler_8h.html#acd810187c2b0b8d63548170c9da4b73d" target="_top" xlink:title=" ">
<polygon fill="white" stroke="#666666" points="423.75,-79 279.5,-79 279.5,-47 423.75,-47 423.75,-79"/>
<text text-anchor="start" x="287.5" y="-65.5" font-family="Helvetica,sans-Serif" font-size="10.00">_zrtos_vheap_task_scheduler</text>
<text text-anchor="middle" x="351.62" y="-53.5" font-family="Helvetica,sans-Serif" font-size="10.00">__on_tick</text>
</a>
</g>
</g>
<!-- Node6&#45;&gt;Node7 -->
<g id="edge6_Node000006_Node000007" class="edge">
<title>Node6&#45;&gt;Node7</title>
<g id="a_edge6_Node000006_Node000007"><a xlink:title=" ">
<path fill="none" stroke="#63b8ff" d="M448.13,-63C440.11,-63 432.02,-63 424.12,-63"/>
<polygon fill="#63b8ff" stroke="#63b8ff" points="447.89,-66.5 457.89,-63 447.89,-59.5 447.89,-66.5"/>
</a>
</g>
</g>
<!-- Node8 -->
<g id="Node000008" class="node">
<title>Node8</title>
<g id="a_Node000008"><a xlink:href="vheap__task__scheduler_8h.html#a51ae476e29565ebfde1ec3340150ca06" target="_top" xlink:title=" ">
<polygon fill="white" stroke="#666666" points="243.5,-82 104.5,-82 104.5,-50 243.5,-50 243.5,-82"/>
<text text-anchor="start" x="112.5" y="-68.5" font-family="Helvetica,sans-Serif" font-size="10.00">zrtos_vheap_task_scheduler</text>
<text text-anchor="middle" x="174" y="-56.5" font-family="Helvetica,sans-Serif" font-size="10.00">__delay_ms</text>
</a>
</g>
</g>
<!-- Node7&#45;&gt;Node8 -->
<g id="edge7_Node000007_Node000008" class="edge">
<title>Node7&#45;&gt;Node8</title>
<g id="a_edge7_Node000007_Node000008"><a xlink:title=" ">
<path fill="none" stroke="#63b8ff" d="M267.87,-64.41C259.82,-64.55 251.71,-64.69 243.81,-64.82"/>
<polygon fill="#63b8ff" stroke="#63b8ff" points="267.74,-67.92 277.68,-64.25 267.62,-60.92 267.74,-67.92"/>
</a>
</g>
</g>
<!-- Node9 -->
<g id="Node000009" class="node">
<title>Node9</title>
<g id="a_Node000009"><a xlink:href="vheap__task__scheduler_8h.html#a3734a190668294fe1e91009e3cf6f72a" target="_top" xlink:title=" ">
<polygon fill="white" stroke="#666666" points="243.5,-32 104.5,-32 104.5,0 243.5,0 243.5,-32"/>
<text text-anchor="start" x="112.5" y="-18.5" font-family="Helvetica,sans-Serif" font-size="10.00">zrtos_vheap_task_scheduler</text>
<text text-anchor="middle" x="174" y="-6.5" font-family="Helvetica,sans-Serif" font-size="10.00">__trampoline_cb</text>
</a>
</g>
</g>
<!-- Node7&#45;&gt;Node9 -->
<g id="edge9_Node000007_Node000009" class="edge">
<title>Node7&#45;&gt;Node9</title>
<g id="a_edge9_Node000007_Node000009"><a xlink:title=" ">
<path fill="none" stroke="#63b8ff" d="M278.2,-43.62C264.31,-39.9 249.89,-36.04 236.39,-32.43"/>
<polygon fill="#63b8ff" stroke="#63b8ff" points="277.17,-46.97 287.74,-46.17 278.98,-40.2 277.17,-46.97"/>
</a>
</g>
</g>
<!-- Node8&#45;&gt;Node4 -->
<g id="edge8_Node000008_Node000004" class="edge">
<title>Node8&#45;&gt;Node4</title>
<g id="a_edge8_Node000008_Node000004"><a xlink:title=" ">
<path fill="none" stroke="#63b8ff" d="M92.98,-78.78C84.57,-80.12 76.38,-81.43 68.95,-82.62"/>
<polygon fill="#63b8ff" stroke="#63b8ff" points="93.31,-82.27 102.63,-77.24 92.2,-75.36 93.31,-82.27"/>
</a>
</g>
</g>
</g>
</svg>
