<?xml version="1.0" encoding="UTF-8" standalone="no"?>
<!DOCTYPE svg PUBLIC "-//W3C//DTD SVG 1.1//EN"
 "http://www.w3.org/Graphics/SVG/1.1/DTD/svg11.dtd">
<!-- Generated by graphviz version 2.40.1 (20161225.0304)
 -->
<!-- Title: vheap_task_scheduler.h Pages: 1 -->
<svg width="684pt" height="252pt"
 viewBox="0.00 0.00 684.00 252.00" xmlns="http://www.w3.org/2000/svg" xmlns:xlink="http://www.w3.org/1999/xlink">
<g id="graph0" class="graph" transform="scale(1 1) rotate(0) translate(4 248)">
<title>vheap_task_scheduler.h</title>
<polygon fill="#ffffff" stroke="transparent" points="-4,4 -4,-248 680,-248 680,4 -4,4"/>
<!-- Node0 -->
<g id="node1" class="node">
<title>Node0</title>
<polygon fill="#bfbfbf" stroke="#000000" points="247.5,-224.5 247.5,-243.5 369.5,-243.5 369.5,-224.5 247.5,-224.5"/>
<text text-anchor="middle" x="308.5" y="-231.5" font-family="Helvetica,sans-Serif" font-size="10.00" fill="#000000">vheap_task_scheduler.h</text>
</g>
<!-- Node1 -->
<g id="node2" class="node">
<title>Node1</title>
<g id="a_node2"><a xlink:href="types_8h.html" target="_top" xlink:title="zrtos/types.h">
<polygon fill="#ffffff" stroke="#000000" points="271.5,-56.5 271.5,-75.5 345.5,-75.5 345.5,-56.5 271.5,-56.5"/>
<text text-anchor="middle" x="308.5" y="-63.5" font-family="Helvetica,sans-Serif" font-size="10.00" fill="#000000">zrtos/types.h</text>
</a>
</g>
</g>
<!-- Node0&#45;&gt;Node1 -->
<g id="edge1" class="edge">
<title>Node0&#45;&gt;Node1</title>
<path fill="none" stroke="#191970" d="M308.5,-224.4862C308.5,-197.9293 308.5,-122.5651 308.5,-86.1655"/>
<polygon fill="#191970" stroke="#191970" points="312.0001,-85.8278 308.5,-75.8279 305.0001,-85.8279 312.0001,-85.8278"/>
</g>
<!-- Node8 -->
<g id="node9" class="node">
<title>Node8</title>
<g id="a_node9"><a xlink:href="vheap__task_8h.html" target="_top" xlink:title="zrtos/vheap_task.h">
<polygon fill="#ffffff" stroke="#000000" points="180.5,-168.5 180.5,-187.5 280.5,-187.5 280.5,-168.5 180.5,-168.5"/>
<text text-anchor="middle" x="230.5" y="-175.5" font-family="Helvetica,sans-Serif" font-size="10.00" fill="#000000">zrtos/vheap_task.h</text>
</a>
</g>
</g>
<!-- Node0&#45;&gt;Node8 -->
<g id="edge8" class="edge">
<title>Node0&#45;&gt;Node8</title>
<path fill="none" stroke="#191970" d="M294.9134,-224.2455C283.1695,-215.814 265.9801,-203.4729 252.3118,-193.6598"/>
<polygon fill="#191970" stroke="#191970" points="254.0954,-190.6316 243.9309,-187.6427 250.0129,-196.3179 254.0954,-190.6316"/>
</g>
<!-- Node13 -->
<g id="node14" class="node">
<title>Node13</title>
<g id="a_node14"><a xlink:href="vheap_8h.html" target="_top" xlink:title="zrtos/vheap.h">
<polygon fill="#ffffff" stroke="#000000" points="408.5,-168.5 408.5,-187.5 484.5,-187.5 484.5,-168.5 408.5,-168.5"/>
<text text-anchor="middle" x="446.5" y="-175.5" font-family="Helvetica,sans-Serif" font-size="10.00" fill="#000000">zrtos/vheap.h</text>
</a>
</g>
</g>
<!-- Node0&#45;&gt;Node13 -->
<g id="edge16" class="edge">
<title>Node0&#45;&gt;Node13</title>
<path fill="none" stroke="#191970" d="M332.223,-224.3733C354.6737,-215.2629 388.5739,-201.5062 413.6255,-191.3404"/>
<polygon fill="#191970" stroke="#191970" points="415.1365,-194.5045 423.0865,-187.5011 412.5043,-188.0182 415.1365,-194.5045"/>
</g>
<!-- Node2 -->
<g id="node3" class="node">
<title>Node2</title>
<polygon fill="#ffffff" stroke="#bfbfbf" points="161.5,-.5 161.5,-19.5 217.5,-19.5 217.5,-.5 161.5,-.5"/>
<text text-anchor="middle" x="189.5" y="-7.5" font-family="Helvetica,sans-Serif" font-size="10.00" fill="#000000">stdbool.h</text>
</g>
<!-- Node1&#45;&gt;Node2 -->
<g id="edge2" class="edge">
<title>Node1&#45;&gt;Node2</title>
<path fill="none" stroke="#191970" d="M288.0432,-56.3733C269.0262,-47.4241 240.4825,-33.9917 219.0024,-23.8835"/>
<polygon fill="#191970" stroke="#191970" points="220.2284,-20.5923 209.6899,-19.5011 217.2478,-26.926 220.2284,-20.5923"/>
</g>
<!-- Node3 -->
<g id="node4" class="node">
<title>Node3</title>
<polygon fill="#ffffff" stroke="#bfbfbf" points="313.5,-.5 313.5,-19.5 365.5,-19.5 365.5,-.5 313.5,-.5"/>
<text text-anchor="middle" x="339.5" y="-7.5" font-family="Helvetica,sans-Serif" font-size="10.00" fill="#000000">stddef.h</text>
</g>
<!-- Node1&#45;&gt;Node3 -->
<g id="edge3" class="edge">
<title>Node1&#45;&gt;Node3</title>
<path fill="none" stroke="#191970" d="M313.8998,-56.2455C318.1227,-48.617 324.1173,-37.7881 329.2441,-28.5267"/>
<polygon fill="#191970" stroke="#191970" points="332.381,-30.0867 334.1621,-19.6427 326.2568,-26.6965 332.381,-30.0867"/>
</g>
<!-- Node4 -->
<g id="node5" class="node">
<title>Node4</title>
<polygon fill="#ffffff" stroke="#bfbfbf" points="384,-.5 384,-19.5 433,-19.5 433,-.5 384,-.5"/>
<text text-anchor="middle" x="408.5" y="-7.5" font-family="Helvetica,sans-Serif" font-size="10.00" fill="#000000">stdint.h</text>
</g>
<!-- Node1&#45;&gt;Node4 -->
<g id="edge4" class="edge">
<title>Node1&#45;&gt;Node4</title>
<path fill="none" stroke="#191970" d="M325.9187,-56.2455C341.5485,-47.4928 364.7019,-34.527 382.5185,-24.5496"/>
<polygon fill="#191970" stroke="#191970" points="384.266,-27.5825 391.2809,-19.6427 380.8457,-21.475 384.266,-27.5825"/>
</g>
<!-- Node5 -->
<g id="node6" class="node">
<title>Node5</title>
<polygon fill="#ffffff" stroke="#bfbfbf" points="95.5,-.5 95.5,-19.5 143.5,-19.5 143.5,-.5 95.5,-.5"/>
<text text-anchor="middle" x="119.5" y="-7.5" font-family="Helvetica,sans-Serif" font-size="10.00" fill="#000000">limits.h</text>
</g>
<!-- Node1&#45;&gt;Node5 -->
<g id="edge5" class="edge">
<title>Node1&#45;&gt;Node5</title>
<path fill="none" stroke="#191970" d="M275.9115,-56.4677C246.3103,-47.7921 201.1934,-34.5269 153.2639,-20.2146"/>
<polygon fill="#191970" stroke="#191970" points="154.2278,-16.8497 143.6443,-17.3392 152.223,-23.5565 154.2278,-16.8497"/>
</g>
<!-- Node6 -->
<g id="node7" class="node">
<title>Node6</title>
<polygon fill="#ffffff" stroke="#bfbfbf" points="236,-.5 236,-19.5 295,-19.5 295,-.5 236,-.5"/>
<text text-anchor="middle" x="265.5" y="-7.5" font-family="Helvetica,sans-Serif" font-size="10.00" fill="#000000">stdalign.h</text>
</g>
<!-- Node1&#45;&gt;Node6 -->
<g id="edge6" class="edge">
<title>Node1&#45;&gt;Node6</title>
<path fill="none" stroke="#191970" d="M301.01,-56.2455C294.9674,-48.3761 286.3097,-37.101 279.0559,-27.6542"/>
<polygon fill="#191970" stroke="#191970" points="281.7705,-25.4426 272.9042,-19.6427 276.2185,-29.7058 281.7705,-25.4426"/>
</g>
<!-- Node7 -->
<g id="node8" class="node">
<title>Node7</title>
<g id="a_node8"><a xlink:href="cast_8h.html" target="_top" xlink:title="zrtos/cast.h">
<polygon fill="#ffffff" stroke="#000000" points="451.5,-.5 451.5,-19.5 519.5,-19.5 519.5,-.5 451.5,-.5"/>
<text text-anchor="middle" x="485.5" y="-7.5" font-family="Helvetica,sans-Serif" font-size="10.00" fill="#000000">zrtos/cast.h</text>
</a>
</g>
</g>
<!-- Node1&#45;&gt;Node7 -->
<g id="edge7" class="edge">
<title>Node1&#45;&gt;Node7</title>
<path fill="none" stroke="#191970" d="M338.9274,-56.3733C368.4872,-47.021 413.5226,-32.7725 445.8695,-22.5385"/>
<polygon fill="#191970" stroke="#191970" points="446.9913,-25.8546 455.4697,-19.5011 444.8797,-19.1807 446.9913,-25.8546"/>
</g>
<!-- Node9 -->
<g id="node10" class="node">
<title>Node9</title>
<g id="a_node10"><a xlink:href="error_8h.html" target="_top" xlink:title="zrtos/error.h">
<polygon fill="#ffffff" stroke="#000000" points="132,-56.5 132,-75.5 201,-75.5 201,-56.5 132,-56.5"/>
<text text-anchor="middle" x="166.5" y="-63.5" font-family="Helvetica,sans-Serif" font-size="10.00" fill="#000000">zrtos/error.h</text>
</a>
</g>
</g>
<!-- Node8&#45;&gt;Node9 -->
<g id="edge9" class="edge">
<title>Node8&#45;&gt;Node9</title>
<path fill="none" stroke="#191970" d="M229.0553,-168.4774C226.72,-155.1219 221.25,-130.4018 210.5,-112 204.0981,-101.0412 194.5851,-90.6574 186.0407,-82.5381"/>
<polygon fill="#191970" stroke="#191970" points="188.3395,-79.8978 178.5832,-75.7667 183.6338,-85.0802 188.3395,-79.8978"/>
</g>
<!-- Node11 -->
<g id="node12" class="node">
<title>Node11</title>
<g id="a_node12"><a xlink:href="errno_8h.html" target="_top" xlink:title="zrtos/errno.h">
<polygon fill="#ffffff" stroke="#000000" points="131,-112.5 131,-131.5 202,-131.5 202,-112.5 131,-112.5"/>
<text text-anchor="middle" x="166.5" y="-119.5" font-family="Helvetica,sans-Serif" font-size="10.00" fill="#000000">zrtos/errno.h</text>
</a>
</g>
</g>
<!-- Node8&#45;&gt;Node11 -->
<g id="edge13" class="edge">
<title>Node8&#45;&gt;Node11</title>
<path fill="none" stroke="#191970" d="M219.3521,-168.2455C209.9913,-160.0549 196.4142,-148.1749 185.3651,-138.5069"/>
<polygon fill="#191970" stroke="#191970" points="187.3508,-135.5937 177.5202,-131.6427 182.7412,-140.8618 187.3508,-135.5937"/>
</g>
<!-- Node12 -->
<g id="node13" class="node">
<title>Node12</title>
<g id="a_node13"><a xlink:href="vheap__chunk__uid_8h.html" target="_top" xlink:title="zrtos/vheap_chunk_uid.h">
<polygon fill="#ffffff" stroke="#000000" points="402,-56.5 402,-75.5 527,-75.5 527,-56.5 402,-56.5"/>
<text text-anchor="middle" x="464.5" y="-63.5" font-family="Helvetica,sans-Serif" font-size="10.00" fill="#000000">zrtos/vheap_chunk_uid.h</text>
</a>
</g>
</g>
<!-- Node8&#45;&gt;Node12 -->
<g id="edge15" class="edge">
<title>Node8&#45;&gt;Node12</title>
<path fill="none" stroke="#191970" d="M280.7796,-169.7045C328.28,-161.1501 395.443,-146.9799 417.5,-132 434.708,-120.3133 447.7182,-100.1061 455.6386,-85.1213"/>
<polygon fill="#191970" stroke="#191970" points="458.9797,-86.2631 460.2978,-75.7505 452.7117,-83.1466 458.9797,-86.2631"/>
</g>
<!-- Node9&#45;&gt;Node2 -->
<g id="edge11" class="edge">
<title>Node9&#45;&gt;Node2</title>
<path fill="none" stroke="#191970" d="M170.5063,-56.2455C173.5735,-48.7776 177.9003,-38.2427 181.6497,-29.1137"/>
<polygon fill="#191970" stroke="#191970" points="184.9779,-30.2226 185.5396,-19.6427 178.5028,-27.5631 184.9779,-30.2226"/>
</g>
<!-- Node9&#45;&gt;Node5 -->
<g id="edge10" class="edge">
<title>Node9&#45;&gt;Node5</title>
<path fill="none" stroke="#191970" d="M158.3132,-56.2455C151.6411,-48.2958 142.0521,-36.8706 134.0747,-27.3656"/>
<polygon fill="#191970" stroke="#191970" points="136.7026,-25.0524 127.593,-19.6427 131.3408,-29.5525 136.7026,-25.0524"/>
</g>
<!-- Node10 -->
<g id="node11" class="node">
<title>Node10</title>
<g id="a_node11"><a xlink:href="assert_8h.html" target="_top" xlink:title="zrtos/assert.h">
<polygon fill="#ffffff" stroke="#000000" points="0,-.5 0,-19.5 77,-19.5 77,-.5 0,-.5"/>
<text text-anchor="middle" x="38.5" y="-7.5" font-family="Helvetica,sans-Serif" font-size="10.00" fill="#000000">zrtos/assert.h</text>
</a>
</g>
</g>
<!-- Node9&#45;&gt;Node10 -->
<g id="edge12" class="edge">
<title>Node9&#45;&gt;Node10</title>
<path fill="none" stroke="#191970" d="M144.496,-56.3733C123.8565,-47.3435 92.7842,-33.7494 69.6111,-23.6111"/>
<polygon fill="#191970" stroke="#191970" points="70.7813,-20.3028 60.2169,-19.5011 67.9755,-26.7159 70.7813,-20.3028"/>
</g>
<!-- Node11&#45;&gt;Node9 -->
<g id="edge14" class="edge">
<title>Node11&#45;&gt;Node9</title>
<path fill="none" stroke="#191970" d="M166.5,-112.2455C166.5,-104.9382 166.5,-94.6944 166.5,-85.7046"/>
<polygon fill="#191970" stroke="#191970" points="170.0001,-85.6426 166.5,-75.6427 163.0001,-85.6427 170.0001,-85.6426"/>
</g>
<!-- Node14 -->
<g id="node15" class="node">
<title>Node14</title>
<g id="a_node15"><a xlink:href="debug_8h.html" target="_top" xlink:title="zrtos/debug.h">
<polygon fill="#ffffff" stroke="#000000" points="590.5,-112.5 590.5,-131.5 666.5,-131.5 666.5,-112.5 590.5,-112.5"/>
<text text-anchor="middle" x="628.5" y="-119.5" font-family="Helvetica,sans-Serif" font-size="10.00" fill="#000000">zrtos/debug.h</text>
</a>
</g>
</g>
<!-- Node13&#45;&gt;Node14 -->
<g id="edge17" class="edge">
<title>Node13&#45;&gt;Node14</title>
<path fill="none" stroke="#191970" d="M477.7869,-168.3733C508.1818,-159.021 554.4893,-144.7725 587.75,-134.5385"/>
<polygon fill="#191970" stroke="#191970" points="589.0929,-137.7873 597.6214,-131.5011 587.0342,-131.0968 589.0929,-137.7873"/>
</g>
<!-- Node15 -->
<g id="node16" class="node">
<title>Node15</title>
<g id="a_node16"><a xlink:href="mem_8h.html" target="_top" xlink:title="zrtos/mem.h">
<polygon fill="#ffffff" stroke="#000000" points="337,-112.5 337,-131.5 408,-131.5 408,-112.5 337,-112.5"/>
<text text-anchor="middle" x="372.5" y="-119.5" font-family="Helvetica,sans-Serif" font-size="10.00" fill="#000000">zrtos/mem.h</text>
</a>
</g>
</g>
<!-- Node13&#45;&gt;Node15 -->
<g id="edge18" class="edge">
<title>Node13&#45;&gt;Node15</title>
<path fill="none" stroke="#191970" d="M433.6102,-168.2455C422.5746,-159.8943 406.4708,-147.7076 393.5647,-137.9408"/>
<polygon fill="#191970" stroke="#191970" points="395.3283,-134.8862 385.2421,-131.6427 391.1041,-140.4681 395.3283,-134.8862"/>
</g>
<!-- Node16 -->
<g id="node17" class="node">
<title>Node16</title>
<g id="a_node17"><a xlink:href="vheap__chunk_8h.html" target="_top" xlink:title="zrtos/vheap_chunk.h">
<polygon fill="#ffffff" stroke="#000000" points="465,-112.5 465,-131.5 572,-131.5 572,-112.5 465,-112.5"/>
<text text-anchor="middle" x="518.5" y="-119.5" font-family="Helvetica,sans-Serif" font-size="10.00" fill="#000000">zrtos/vheap_chunk.h</text>
</a>
</g>
</g>
<!-- Node13&#45;&gt;Node16 -->
<g id="edge21" class="edge">
<title>Node13&#45;&gt;Node16</title>
<path fill="none" stroke="#191970" d="M459.0414,-168.2455C469.7787,-159.8943 485.4473,-147.7076 498.0047,-137.9408"/>
<polygon fill="#191970" stroke="#191970" points="500.3575,-140.5449 506.1023,-131.6427 496.0599,-135.0194 500.3575,-140.5449"/>
</g>
<!-- Node15&#45;&gt;Node1 -->
<g id="edge19" class="edge">
<title>Node15&#45;&gt;Node1</title>
<path fill="none" stroke="#191970" d="M361.3521,-112.2455C351.9913,-104.0549 338.4142,-92.1749 327.3651,-82.5069"/>
<polygon fill="#191970" stroke="#191970" points="329.3508,-79.5937 319.5202,-75.6427 324.7412,-84.8618 329.3508,-79.5937"/>
</g>
<!-- Node15&#45;&gt;Node7 -->
<g id="edge20" class="edge">
<title>Node15&#45;&gt;Node7</title>
<path fill="none" stroke="#191970" d="M373.2337,-112.3519C374.7646,-98.3952 379.4312,-72.4477 393.5,-56 406.2321,-41.115 424.9433,-30.5407 442.1726,-23.3156"/>
<polygon fill="#191970" stroke="#191970" points="443.5127,-26.5496 451.5445,-19.6402 440.957,-20.0328 443.5127,-26.5496"/>
</g>
<!-- Node16&#45;&gt;Node12 -->
<g id="edge22" class="edge">
<title>Node16&#45;&gt;Node12</title>
<path fill="none" stroke="#191970" d="M509.0939,-112.2455C501.3507,-104.2155 490.188,-92.6394 480.9682,-83.0781"/>
<polygon fill="#191970" stroke="#191970" points="483.2591,-80.4117 473.7983,-75.6427 478.2202,-85.2706 483.2591,-80.4117"/>
</g>
<!-- Node17 -->
<g id="node18" class="node">
<title>Node17</title>
<g id="a_node18"><a xlink:href="vheap__chunk__type_8h.html" target="_top" xlink:title="zrtos/vheap_chunk_type.h">
<polygon fill="#ffffff" stroke="#000000" points="545,-56.5 545,-75.5 676,-75.5 676,-56.5 545,-56.5"/>
<text text-anchor="middle" x="610.5" y="-63.5" font-family="Helvetica,sans-Serif" font-size="10.00" fill="#000000">zrtos/vheap_chunk_type.h</text>
</a>
</g>
</g>
<!-- Node16&#45;&gt;Node17 -->
<g id="edge23" class="edge">
<title>Node16&#45;&gt;Node17</title>
<path fill="none" stroke="#191970" d="M534.5252,-112.2455C548.6408,-103.6534 569.4263,-91.0014 585.6899,-81.1018"/>
<polygon fill="#191970" stroke="#191970" points="587.9363,-83.8319 594.6585,-75.6427 584.2966,-77.8525 587.9363,-83.8319"/>
</g>
<!-- Node18 -->
<g id="node19" class="node">
<title>Node18</title>
<g id="a_node19"><a xlink:href="vheap__type_8h.html" target="_top" xlink:title="zrtos/vheap_type.h">
<polygon fill="#ffffff" stroke="#000000" points="560.5,-.5 560.5,-19.5 660.5,-19.5 660.5,-.5 560.5,-.5"/>
<text text-anchor="middle" x="610.5" y="-7.5" font-family="Helvetica,sans-Serif" font-size="10.00" fill="#000000">zrtos/vheap_type.h</text>
</a>
</g>
</g>
<!-- Node17&#45;&gt;Node18 -->
<g id="edge24" class="edge">
<title>Node17&#45;&gt;Node18</title>
<path fill="none" stroke="#191970" d="M610.5,-56.2455C610.5,-48.9382 610.5,-38.6944 610.5,-29.7046"/>
<polygon fill="#191970" stroke="#191970" points="614.0001,-29.6426 610.5,-19.6427 607.0001,-29.6427 614.0001,-29.6426"/>
</g>
</g>
</svg>
