<?xml version="1.0" encoding="UTF-8" standalone="no"?>
<!DOCTYPE svg PUBLIC "-//W3C//DTD SVG 1.1//EN"
 "http://www.w3.org/Graphics/SVG/1.1/DTD/svg11.dtd">
<!-- Generated by graphviz version 2.40.1 (20161225.0304)
 -->
<!-- Title: zrtos_vheap_task_scheduler__has_enough_stack_space Pages: 1 -->
<svg width="623pt" height="186pt"
 viewBox="0.00 0.00 623.00 186.00" xmlns="http://www.w3.org/2000/svg" xmlns:xlink="http://www.w3.org/1999/xlink">
<g id="graph0" class="graph" transform="scale(1 1) rotate(0) translate(4 182)">
<title>zrtos_vheap_task_scheduler__has_enough_stack_space</title>
<polygon fill="#ffffff" stroke="transparent" points="-4,4 -4,-182 619,-182 619,4 -4,4"/>
<!-- Node194 -->
<g id="node1" class="node">
<title>Node194</title>
<polygon fill="#bfbfbf" stroke="#000000" points="0,-73.5 0,-103.5 141,-103.5 141,-73.5 0,-73.5"/>
<text text-anchor="start" x="8" y="-91.5" font-family="Helvetica,sans-Serif" font-size="10.00" fill="#000000">zrtos_vheap_task_scheduler</text>
<text text-anchor="middle" x="70.5" y="-80.5" font-family="Helvetica,sans-Serif" font-size="10.00" fill="#000000">__has_enough_stack_space</text>
</g>
<!-- Node195 -->
<g id="node2" class="node">
<title>Node195</title>
<g id="a_node2"><a xlink:href="vheap__task__scheduler_8h.html#a2205b06b30712719cfe0f785f5898425" target="_top" xlink:title="zrtos_vheap_task_scheduler\l__get_heap">
<polygon fill="#ffffff" stroke="#000000" points="177,-147.5 177,-177.5 318,-177.5 318,-147.5 177,-147.5"/>
<text text-anchor="start" x="185" y="-165.5" font-family="Helvetica,sans-Serif" font-size="10.00" fill="#000000">zrtos_vheap_task_scheduler</text>
<text text-anchor="middle" x="247.5" y="-154.5" font-family="Helvetica,sans-Serif" font-size="10.00" fill="#000000">__get_heap</text>
</a>
</g>
</g>
<!-- Node194&#45;&gt;Node195 -->
<g id="edge1" class="edge">
<title>Node194&#45;&gt;Node195</title>
<path fill="none" stroke="#191970" d="M100.4038,-103.6278C121.5356,-114.0481 150.6707,-127.8759 177,-138.5 181.6761,-140.3869 186.5637,-142.2558 191.4898,-144.0686"/>
<polygon fill="#191970" stroke="#191970" points="190.3704,-147.3854 200.9649,-147.4752 192.7388,-140.7982 190.3704,-147.3854"/>
</g>
<!-- Node196 -->
<g id="node3" class="node">
<title>Node196</title>
<g id="a_node3"><a xlink:href="vheap_8h.html#ad2723df7cc03e8a85b5886b8fd2c2b4e" target="_top" xlink:title="_zrtos_vheap__get_free\l_space_ex">
<polygon fill="#ffffff" stroke="#000000" points="187,-98.5 187,-128.5 308,-128.5 308,-98.5 187,-98.5"/>
<text text-anchor="start" x="195" y="-116.5" font-family="Helvetica,sans-Serif" font-size="10.00" fill="#000000">_zrtos_vheap__get_free</text>
<text text-anchor="middle" x="247.5" y="-105.5" font-family="Helvetica,sans-Serif" font-size="10.00" fill="#000000">_space_ex</text>
</a>
</g>
</g>
<!-- Node194&#45;&gt;Node196 -->
<g id="edge2" class="edge">
<title>Node194&#45;&gt;Node196</title>
<path fill="none" stroke="#191970" d="M141.2182,-98.4884C152.9109,-100.14 165.0355,-101.8525 176.7294,-103.5042"/>
<polygon fill="#191970" stroke="#191970" points="176.4822,-107.0039 186.8734,-104.9369 177.4612,-100.0727 176.4822,-107.0039"/>
</g>
<!-- Node200 -->
<g id="node7" class="node">
<title>Node200</title>
<g id="a_node7"><a xlink:href="vheap__task_8h.html#a896d233acb32ead8d7e1fd170a42aae3" target="_top" xlink:title="zrtos_vheap_task__get\l_stack_size_min">
<polygon fill="#ffffff" stroke="#000000" points="188.5,-49.5 188.5,-79.5 306.5,-79.5 306.5,-49.5 188.5,-49.5"/>
<text text-anchor="start" x="196.5" y="-67.5" font-family="Helvetica,sans-Serif" font-size="10.00" fill="#000000">zrtos_vheap_task__get</text>
<text text-anchor="middle" x="247.5" y="-56.5" font-family="Helvetica,sans-Serif" font-size="10.00" fill="#000000">_stack_size_min</text>
</a>
</g>
</g>
<!-- Node194&#45;&gt;Node200 -->
<g id="edge6" class="edge">
<title>Node194&#45;&gt;Node200</title>
<path fill="none" stroke="#191970" d="M141.2182,-78.9111C153.4051,-77.2586 166.0613,-75.5425 178.21,-73.8953"/>
<polygon fill="#191970" stroke="#191970" points="178.8351,-77.3426 188.2741,-72.5306 177.8945,-70.4061 178.8351,-77.3426"/>
</g>
<!-- Node201 -->
<g id="node8" class="node">
<title>Node201</title>
<g id="a_node8"><a xlink:href="vheap__chunk_8h.html#a26bcd8779d88d67764f563058787008a" target="_top" xlink:title="zrtos_vheap_chunk_\l_get_length">
<polygon fill="#ffffff" stroke="#000000" points="194,-.5 194,-30.5 301,-30.5 301,-.5 194,-.5"/>
<text text-anchor="start" x="202" y="-18.5" font-family="Helvetica,sans-Serif" font-size="10.00" fill="#000000">zrtos_vheap_chunk_</text>
<text text-anchor="middle" x="247.5" y="-7.5" font-family="Helvetica,sans-Serif" font-size="10.00" fill="#000000">_get_length</text>
</a>
</g>
</g>
<!-- Node194&#45;&gt;Node201 -->
<g id="edge7" class="edge">
<title>Node194&#45;&gt;Node201</title>
<path fill="none" stroke="#191970" d="M102.3598,-73.309C123.3681,-63.4991 151.5955,-50.709 177,-40.5 182.4036,-38.3285 188.0773,-36.1507 193.7608,-34.0353"/>
<polygon fill="#191970" stroke="#191970" points="195.102,-37.2716 203.2889,-30.5465 192.6951,-30.6984 195.102,-37.2716"/>
</g>
<!-- Node197 -->
<g id="node4" class="node">
<title>Node197</title>
<g id="a_node4"><a xlink:href="types_8h.html#adbc4238237e656eb247fd49ffbfb1a6d" target="_top" xlink:title="zrtos_types__ptr_get\l_byte_distance">
<polygon fill="#ffffff" stroke="#000000" points="357.5,-122.5 357.5,-152.5 465.5,-152.5 465.5,-122.5 357.5,-122.5"/>
<text text-anchor="start" x="365.5" y="-140.5" font-family="Helvetica,sans-Serif" font-size="10.00" fill="#000000">zrtos_types__ptr_get</text>
<text text-anchor="middle" x="411.5" y="-129.5" font-family="Helvetica,sans-Serif" font-size="10.00" fill="#000000">_byte_distance</text>
</a>
</g>
</g>
<!-- Node196&#45;&gt;Node197 -->
<g id="edge3" class="edge">
<title>Node196&#45;&gt;Node197</title>
<path fill="none" stroke="#191970" d="M308.1016,-122.3685C320.8453,-124.2335 334.3303,-126.2069 347.204,-128.0908"/>
<polygon fill="#191970" stroke="#191970" points="346.9701,-131.5938 357.3715,-129.5788 347.9837,-124.6676 346.9701,-131.5938"/>
</g>
<!-- Node198 -->
<g id="node5" class="node">
<title>Node198</title>
<g id="a_node5"><a xlink:href="vheap_8h.html#a4b2a8e30df4a416638232339c09f4cbe" target="_top" xlink:title="zrtos_vheap__get_last\l_address">
<polygon fill="#ffffff" stroke="#000000" points="354,-73.5 354,-103.5 469,-103.5 469,-73.5 354,-73.5"/>
<text text-anchor="start" x="362" y="-91.5" font-family="Helvetica,sans-Serif" font-size="10.00" fill="#000000">zrtos_vheap__get_last</text>
<text text-anchor="middle" x="411.5" y="-80.5" font-family="Helvetica,sans-Serif" font-size="10.00" fill="#000000">_address</text>
</a>
</g>
</g>
<!-- Node196&#45;&gt;Node198 -->
<g id="edge4" class="edge">
<title>Node196&#45;&gt;Node198</title>
<path fill="none" stroke="#191970" d="M308.1016,-104.262C319.6755,-102.4976 331.8608,-100.6401 343.6444,-98.8438"/>
<polygon fill="#191970" stroke="#191970" points="344.5124,-102.252 353.8707,-97.285 343.4574,-95.332 344.5124,-102.252"/>
</g>
<!-- Node199 -->
<g id="node6" class="node">
<title>Node199</title>
<g id="a_node6"><a xlink:href="types_8h.html#aba57d347db551b6b1bc7f791433322ad" target="_top" xlink:title="zrtos_types__ptr_add">
<polygon fill="#ffffff" stroke="#000000" points="505,-79 505,-98 615,-98 615,-79 505,-79"/>
<text text-anchor="middle" x="560" y="-86" font-family="Helvetica,sans-Serif" font-size="10.00" fill="#000000">zrtos_types__ptr_add</text>
</a>
</g>
</g>
<!-- Node198&#45;&gt;Node199 -->
<g id="edge5" class="edge">
<title>Node198&#45;&gt;Node199</title>
<path fill="none" stroke="#191970" d="M469.3392,-88.5C477.6764,-88.5 486.3042,-88.5 494.7731,-88.5"/>
<polygon fill="#191970" stroke="#191970" points="494.9942,-92.0001 504.9942,-88.5 494.9942,-85.0001 494.9942,-92.0001"/>
</g>
</g>
</svg>
