<?xml version="1.0" encoding="UTF-8" standalone="no"?>
<!DOCTYPE svg PUBLIC "-//W3C//DTD SVG 1.1//EN"
 "http://www.w3.org/Graphics/SVG/1.1/DTD/svg11.dtd">
<!-- Generated by graphviz version 2.40.1 (20161225.0304)
 -->
<!-- Title: zrtos_vheap_chunk_uid__error Pages: 1 -->
<svg width="389pt" height="66pt"
 viewBox="0.00 0.00 389.00 66.00" xmlns="http://www.w3.org/2000/svg" xmlns:xlink="http://www.w3.org/1999/xlink">
<g id="graph0" class="graph" transform="scale(1 1) rotate(0) translate(4 62)">
<title>zrtos_vheap_chunk_uid__error</title>
<polygon fill="#ffffff" stroke="transparent" points="-4,4 -4,-62 385,-62 385,4 -4,4"/>
<!-- Node9 -->
<g id="node1" class="node">
<title>Node9</title>
<polygon fill="#bfbfbf" stroke="#000000" points="0,-14 0,-44 119,-44 119,-14 0,-14"/>
<text text-anchor="start" x="8" y="-32" font-family="Helvetica,sans-Serif" font-size="10.00" fill="#000000">zrtos_vheap_chunk_uid</text>
<text text-anchor="middle" x="59.5" y="-21" font-family="Helvetica,sans-Serif" font-size="10.00" fill="#000000">__error</text>
</g>
<!-- Node10 -->
<g id="node2" class="node">
<title>Node10</title>
<g id="a_node2"><a xlink:href="vheap_8h.html#a869860bdef21c42bb4afe71995ca995b" target="_top" xlink:title="zrtos_vheap__malloc">
<polygon fill="#ffffff" stroke="#000000" points="155,-38.5 155,-57.5 264,-57.5 264,-38.5 155,-38.5"/>
<text text-anchor="middle" x="209.5" y="-45.5" font-family="Helvetica,sans-Serif" font-size="10.00" fill="#000000">zrtos_vheap__malloc</text>
</a>
</g>
</g>
<!-- Node9&#45;&gt;Node10 -->
<g id="edge1" class="edge">
<title>Node9&#45;&gt;Node10</title>
<path fill="none" stroke="#191970" d="M129.2386,-37.8336C137.8367,-38.9226 146.5274,-40.0235 154.8559,-41.0784"/>
<polygon fill="#191970" stroke="#191970" points="129.5756,-34.3484 119.215,-36.5639 128.6959,-41.2929 129.5756,-34.3484"/>
</g>
<!-- Node11 -->
<g id="node3" class="node">
<title>Node11</title>
<g id="a_node3"><a xlink:href="vheap__task__pthread_8h.html#a4c4f5f3b4f8f45d9d897847d53b11aaa" target="_top" xlink:title="pthread_self">
<polygon fill="#ffffff" stroke="#000000" points="174.5,-.5 174.5,-19.5 244.5,-19.5 244.5,-.5 174.5,-.5"/>
<text text-anchor="middle" x="209.5" y="-7.5" font-family="Helvetica,sans-Serif" font-size="10.00" fill="#000000">pthread_self</text>
</a>
</g>
</g>
<!-- Node9&#45;&gt;Node11 -->
<g id="edge2" class="edge">
<title>Node9&#45;&gt;Node11</title>
<path fill="none" stroke="#191970" d="M129.3554,-20.1517C144.8942,-18.1834 160.7289,-16.1777 174.1747,-14.4745"/>
<polygon fill="#191970" stroke="#191970" points="128.6959,-16.7071 119.215,-21.4361 129.5756,-23.6516 128.6959,-16.7071"/>
</g>
<!-- Node12 -->
<g id="node4" class="node">
<title>Node12</title>
<g id="a_node4"><a xlink:href="vheap__task__pthread_8h.html#a091adcef6201bebbf231763328c15286" target="_top" xlink:title="pthread_create">
<polygon fill="#ffffff" stroke="#000000" points="300,-.5 300,-19.5 381,-19.5 381,-.5 300,-.5"/>
<text text-anchor="middle" x="340.5" y="-7.5" font-family="Helvetica,sans-Serif" font-size="10.00" fill="#000000">pthread_create</text>
</a>
</g>
</g>
<!-- Node11&#45;&gt;Node12 -->
<g id="edge3" class="edge">
<title>Node11&#45;&gt;Node12</title>
<path fill="none" stroke="#191970" d="M254.9064,-10C269.4738,-10 285.5093,-10 299.7241,-10"/>
<polygon fill="#191970" stroke="#191970" points="254.6056,-6.5001 244.6056,-10 254.6056,-13.5001 254.6056,-6.5001"/>
</g>
</g>
</svg>
