<?xml version="1.0" encoding="UTF-8" standalone="no"?>
<!DOCTYPE svg PUBLIC "-//W3C//DTD SVG 1.1//EN"
 "http://www.w3.org/Graphics/SVG/1.1/DTD/svg11.dtd">
<!-- Generated by graphviz version 2.40.1 (20161225.0304)
 -->
<!-- Title: zrtos_vheap_task_scheduler__delay_ms Pages: 1 -->
<svg width="1688pt" height="904pt"
 viewBox="0.00 0.00 1688.00 904.00" xmlns="http://www.w3.org/2000/svg" xmlns:xlink="http://www.w3.org/1999/xlink">
<g id="graph0" class="graph" transform="scale(1 1) rotate(0) translate(4 900)">
<title>zrtos_vheap_task_scheduler__delay_ms</title>
<polygon fill="#ffffff" stroke="transparent" points="-4,4 -4,-900 1684,-900 1684,4 -4,4"/>
<!-- Node138 -->
<g id="node1" class="node">
<title>Node138</title>
<polygon fill="#bfbfbf" stroke="#000000" points="0,-393.5 0,-423.5 141,-423.5 141,-393.5 0,-393.5"/>
<text text-anchor="start" x="8" y="-411.5" font-family="Helvetica,sans-Serif" font-size="10.00" fill="#000000">zrtos_vheap_task_scheduler</text>
<text text-anchor="middle" x="70.5" y="-400.5" font-family="Helvetica,sans-Serif" font-size="10.00" fill="#000000">__delay_ms</text>
</g>
<!-- Node139 -->
<g id="node2" class="node">
<title>Node139</title>
<g id="a_node2"><a xlink:href="vheap__task_8h.html#a3ea1d6ec255b8647bbbd19a5d751b43e" target="_top" xlink:title="zrtos_vheap_task__set\l_delay_ms">
<polygon fill="#ffffff" stroke="#000000" points="191,-437.5 191,-467.5 309,-467.5 309,-437.5 191,-437.5"/>
<text text-anchor="start" x="199" y="-455.5" font-family="Helvetica,sans-Serif" font-size="10.00" fill="#000000">zrtos_vheap_task__set</text>
<text text-anchor="middle" x="250" y="-444.5" font-family="Helvetica,sans-Serif" font-size="10.00" fill="#000000">_delay_ms</text>
</a>
</g>
</g>
<!-- Node138&#45;&gt;Node139 -->
<g id="edge1" class="edge">
<title>Node138&#45;&gt;Node139</title>
<path fill="none" stroke="#191970" d="M131.7717,-423.5192C147.5836,-427.3951 164.7112,-431.5936 180.8923,-435.5599"/>
<polygon fill="#191970" stroke="#191970" points="180.279,-439.0132 190.8248,-437.9946 181.9456,-432.2144 180.279,-439.0132"/>
</g>
<!-- Node140 -->
<g id="node3" class="node">
<title>Node140</title>
<g id="a_node3"><a xlink:href="vheap__task__scheduler_8h.html#a5bfb3d2b504f0179293fe98c19fbcb57" target="_top" xlink:title="_zrtos_vheap_task_scheduler\l__get_active_task">
<polygon fill="#ffffff" stroke="#000000" points="900,-388.5 900,-418.5 1046,-418.5 1046,-388.5 900,-388.5"/>
<text text-anchor="start" x="908" y="-406.5" font-family="Helvetica,sans-Serif" font-size="10.00" fill="#000000">_zrtos_vheap_task_scheduler</text>
<text text-anchor="middle" x="973" y="-395.5" font-family="Helvetica,sans-Serif" font-size="10.00" fill="#000000">__get_active_task</text>
</a>
</g>
</g>
<!-- Node138&#45;&gt;Node140 -->
<g id="edge2" class="edge">
<title>Node138&#45;&gt;Node140</title>
<path fill="none" stroke="#191970" d="M141.1547,-408.5C214.0246,-408.5 330.9557,-408.5 432,-408.5 432,-408.5 432,-408.5 614,-408.5 708.5076,-408.5 816.9963,-406.7461 889.7545,-405.3159"/>
<polygon fill="#191970" stroke="#191970" points="889.8503,-408.8148 899.7787,-405.1165 889.711,-401.8162 889.8503,-408.8148"/>
</g>
<!-- Node145 -->
<g id="node8" class="node">
<title>Node145</title>
<g id="a_node8"><a xlink:href="vheap__task__scheduler_8h.html#acd810187c2b0b8d63548170c9da4b73d" target="_top" xlink:title="_zrtos_vheap_task_scheduler\l__on_tick">
<polygon fill="#ffffff" stroke="#000000" points="177,-311.5 177,-341.5 323,-341.5 323,-311.5 177,-311.5"/>
<text text-anchor="start" x="185" y="-329.5" font-family="Helvetica,sans-Serif" font-size="10.00" fill="#000000">_zrtos_vheap_task_scheduler</text>
<text text-anchor="middle" x="250" y="-318.5" font-family="Helvetica,sans-Serif" font-size="10.00" fill="#000000">__on_tick</text>
</a>
</g>
</g>
<!-- Node138&#45;&gt;Node145 -->
<g id="edge7" class="edge">
<title>Node138&#45;&gt;Node145</title>
<path fill="none" stroke="#191970" d="M103.4231,-393.4599C132.6826,-380.0935 175.6309,-360.4736 207.4813,-345.9236"/>
<polygon fill="#191970" stroke="#191970" points="209.3407,-348.9221 216.9822,-341.5833 206.432,-342.555 209.3407,-348.9221"/>
</g>
<!-- Node141 -->
<g id="node4" class="node">
<title>Node141</title>
<g id="a_node4"><a xlink:href="types_8h.html#ab287a3ab3a7be12ae8e1a7caaa8669a4" target="_top" xlink:title="zrtos_types__ptr_subtract">
<polygon fill="#ffffff" stroke="#000000" points="1087.5,-378 1087.5,-397 1217.5,-397 1217.5,-378 1087.5,-378"/>
<text text-anchor="middle" x="1152.5" y="-385" font-family="Helvetica,sans-Serif" font-size="10.00" fill="#000000">zrtos_types__ptr_subtract</text>
</a>
</g>
</g>
<!-- Node140&#45;&gt;Node141 -->
<g id="edge3" class="edge">
<title>Node140&#45;&gt;Node141</title>
<path fill="none" stroke="#191970" d="M1046.0095,-396.9922C1056.2738,-396.0773 1066.8409,-395.1354 1077.1479,-394.2166"/>
<polygon fill="#191970" stroke="#191970" points="1077.6976,-397.6816 1087.3474,-393.3075 1077.0761,-390.7092 1077.6976,-397.6816"/>
</g>
<!-- Node142 -->
<g id="node5" class="node">
<title>Node142</title>
<g id="a_node5"><a xlink:href="vheap_8h.html#a4b2a8e30df4a416638232339c09f4cbe" target="_top" xlink:title="zrtos_vheap__get_last\l_address">
<polygon fill="#ffffff" stroke="#000000" points="1095,-416.5 1095,-446.5 1210,-446.5 1210,-416.5 1095,-416.5"/>
<text text-anchor="start" x="1103" y="-434.5" font-family="Helvetica,sans-Serif" font-size="10.00" fill="#000000">zrtos_vheap__get_last</text>
<text text-anchor="middle" x="1152.5" y="-423.5" font-family="Helvetica,sans-Serif" font-size="10.00" fill="#000000">_address</text>
</a>
</g>
</g>
<!-- Node140&#45;&gt;Node142 -->
<g id="edge4" class="edge">
<title>Node140&#45;&gt;Node142</title>
<path fill="none" stroke="#191970" d="M1046.0095,-414.8887C1058.8763,-416.8957 1072.2189,-418.977 1084.9285,-420.9596"/>
<polygon fill="#191970" stroke="#191970" points="1084.5444,-424.4419 1094.9644,-422.5251 1085.6234,-417.5256 1084.5444,-424.4419"/>
</g>
<!-- Node144 -->
<g id="node7" class="node">
<title>Node144</title>
<g id="a_node7"><a xlink:href="vheap__task__scheduler_8h.html#a2205b06b30712719cfe0f785f5898425" target="_top" xlink:title="zrtos_vheap_task_scheduler\l__get_heap">
<polygon fill="#ffffff" stroke="#000000" points="1082,-188.5 1082,-218.5 1223,-218.5 1223,-188.5 1082,-188.5"/>
<text text-anchor="start" x="1090" y="-206.5" font-family="Helvetica,sans-Serif" font-size="10.00" fill="#000000">zrtos_vheap_task_scheduler</text>
<text text-anchor="middle" x="1152.5" y="-195.5" font-family="Helvetica,sans-Serif" font-size="10.00" fill="#000000">__get_heap</text>
</a>
</g>
</g>
<!-- Node140&#45;&gt;Node144 -->
<g id="edge6" class="edge">
<title>Node140&#45;&gt;Node144</title>
<path fill="none" stroke="#191970" d="M1021.7596,-388.4432C1030.3872,-384.4383 1038.8768,-379.5062 1046,-373.5 1094.1879,-332.8683 1127.4704,-264.7202 1142.8382,-228.2703"/>
<polygon fill="#191970" stroke="#191970" points="1146.1336,-229.4593 1146.6952,-218.8793 1139.6584,-226.7998 1146.1336,-229.4593"/>
</g>
<!-- Node143 -->
<g id="node6" class="node">
<title>Node143</title>
<g id="a_node6"><a xlink:href="types_8h.html#aba57d347db551b6b1bc7f791433322ad" target="_top" xlink:title="zrtos_types__ptr_add">
<polygon fill="#ffffff" stroke="#000000" points="1570,-608 1570,-627 1680,-627 1680,-608 1570,-608"/>
<text text-anchor="middle" x="1625" y="-615" font-family="Helvetica,sans-Serif" font-size="10.00" fill="#000000">zrtos_types__ptr_add</text>
</a>
</g>
</g>
<!-- Node142&#45;&gt;Node143 -->
<g id="edge5" class="edge">
<title>Node142&#45;&gt;Node143</title>
<path fill="none" stroke="#191970" d="M1210.3129,-432.0115C1288.8738,-435.1376 1431.3073,-449.6234 1534,-510.5 1570.8739,-532.359 1600.0141,-574.6478 1614.6558,-599.0042"/>
<polygon fill="#191970" stroke="#191970" points="1611.808,-601.0692 1619.8644,-607.95 1617.8573,-597.547 1611.808,-601.0692"/>
</g>
<!-- Node146 -->
<g id="node9" class="node">
<title>Node146</title>
<g id="a_node9"><a xlink:href="vheap__task__scheduler_8h.html#a1a1be02692a671c368f4e2335179a042" target="_top" xlink:title="_zrtos_vheap_task_scheduler\l__switch_task">
<polygon fill="#ffffff" stroke="#000000" points="359,-249.5 359,-279.5 505,-279.5 505,-249.5 359,-249.5"/>
<text text-anchor="start" x="367" y="-267.5" font-family="Helvetica,sans-Serif" font-size="10.00" fill="#000000">_zrtos_vheap_task_scheduler</text>
<text text-anchor="middle" x="432" y="-256.5" font-family="Helvetica,sans-Serif" font-size="10.00" fill="#000000">__switch_task</text>
</a>
</g>
</g>
<!-- Node145&#45;&gt;Node146 -->
<g id="edge8" class="edge">
<title>Node145&#45;&gt;Node146</title>
<path fill="none" stroke="#191970" d="M294.0571,-311.4915C319.3549,-302.8736 351.3179,-291.9851 378.105,-282.8598"/>
<polygon fill="#191970" stroke="#191970" points="379.3806,-286.1229 387.7178,-279.5851 377.1233,-279.4968 379.3806,-286.1229"/>
</g>
<!-- Node146&#45;&gt;Node144 -->
<g id="edge9" class="edge">
<title>Node146&#45;&gt;Node144</title>
<path fill="none" stroke="#191970" d="M442.6041,-249.4345C460.0097,-226.1788 497.1231,-182.4516 541,-165.5 734.6362,-90.6897 988.4166,-152.0241 1098.109,-185.4039"/>
<polygon fill="#191970" stroke="#191970" points="1097.3673,-188.8379 1107.9548,-188.4434 1099.4321,-182.1494 1097.3673,-188.8379"/>
</g>
<!-- Node147 -->
<g id="node10" class="node">
<title>Node147</title>
<g id="a_node10"><a xlink:href="vheap__task_8h.html#a0ea9061da5e4ce4f8fd62f431a83242e" target="_top" xlink:title="zrtos_vheap_task__on_tick">
<polygon fill="#ffffff" stroke="#000000" points="546,-361 546,-380 682,-380 682,-361 546,-361"/>
<text text-anchor="middle" x="614" y="-368" font-family="Helvetica,sans-Serif" font-size="10.00" fill="#000000">zrtos_vheap_task__on_tick</text>
</a>
</g>
</g>
<!-- Node146&#45;&gt;Node147 -->
<g id="edge10" class="edge">
<title>Node146&#45;&gt;Node147</title>
<path fill="none" stroke="#191970" d="M446.7902,-279.7555C466.5106,-299.2267 503.3272,-332.6412 541,-351.5 545.6385,-353.822 550.5891,-355.8803 555.6444,-357.7009"/>
<polygon fill="#191970" stroke="#191970" points="554.8474,-361.123 565.4402,-360.916 557.0303,-354.472 554.8474,-361.123"/>
</g>
<!-- Node148 -->
<g id="node11" class="node">
<title>Node148</title>
<g id="a_node11"><a xlink:href="vheap__task_8h.html#abecb6e03f5c4faa424a02f82e707066a" target="_top" xlink:title="zrtos_vheap_task__is_idle">
<polygon fill="#ffffff" stroke="#000000" points="548,-323 548,-342 680,-342 680,-323 548,-323"/>
<text text-anchor="middle" x="614" y="-330" font-family="Helvetica,sans-Serif" font-size="10.00" fill="#000000">zrtos_vheap_task__is_idle</text>
</a>
</g>
</g>
<!-- Node146&#45;&gt;Node148 -->
<g id="edge11" class="edge">
<title>Node146&#45;&gt;Node148</title>
<path fill="none" stroke="#191970" d="M462.9865,-279.6088C484.5362,-289.7517 514.1095,-302.9542 541,-312.5 548.7474,-315.2503 557.068,-317.8508 565.2189,-320.2104"/>
<polygon fill="#191970" stroke="#191970" points="564.4533,-323.6307 575.0271,-322.9632 566.3448,-316.8911 564.4533,-323.6307"/>
</g>
<!-- Node149 -->
<g id="node12" class="node">
<title>Node149</title>
<g id="a_node12"><a xlink:href="vheap__task__scheduler_8h.html#a99d7655ba93c186077c9de6a6f310c43" target="_top" xlink:title="zrtos_vheap_task_scheduler\l__has_enough_stack_space">
<polygon fill="#ffffff" stroke="#000000" points="723,-87.5 723,-117.5 864,-117.5 864,-87.5 723,-87.5"/>
<text text-anchor="start" x="731" y="-105.5" font-family="Helvetica,sans-Serif" font-size="10.00" fill="#000000">zrtos_vheap_task_scheduler</text>
<text text-anchor="middle" x="793.5" y="-94.5" font-family="Helvetica,sans-Serif" font-size="10.00" fill="#000000">__has_enough_stack_space</text>
</a>
</g>
</g>
<!-- Node146&#45;&gt;Node149 -->
<g id="edge12" class="edge">
<title>Node146&#45;&gt;Node149</title>
<path fill="none" stroke="#191970" d="M439.4061,-249.4429C454.2635,-221.0456 490.6458,-159.9695 541,-132.5 593.3174,-103.9595 660.6744,-97.1776 712.6599,-97.1426"/>
<polygon fill="#191970" stroke="#191970" points="712.8163,-100.6438 722.843,-97.2211 712.8703,-93.644 712.8163,-100.6438"/>
</g>
<!-- Node154 -->
<g id="node17" class="node">
<title>Node154</title>
<g id="a_node17"><a xlink:href="vheap__task__scheduler_8h.html#af69e917ca8bd27891eb335dda8289faf" target="_top" xlink:title="_zrtos_vheap_task_scheduler\l__set_active_task">
<polygon fill="#ffffff" stroke="#000000" points="541,-175.5 541,-205.5 687,-205.5 687,-175.5 541,-175.5"/>
<text text-anchor="start" x="549" y="-193.5" font-family="Helvetica,sans-Serif" font-size="10.00" fill="#000000">_zrtos_vheap_task_scheduler</text>
<text text-anchor="middle" x="614" y="-182.5" font-family="Helvetica,sans-Serif" font-size="10.00" fill="#000000">__set_active_task</text>
</a>
</g>
</g>
<!-- Node146&#45;&gt;Node154 -->
<g id="edge19" class="edge">
<title>Node146&#45;&gt;Node154</title>
<path fill="none" stroke="#191970" d="M462.6103,-249.3375C484.2401,-238.9013 514.0597,-225.0688 541,-214.5 545.7679,-212.6295 550.7475,-210.7803 555.768,-208.9881"/>
<polygon fill="#191970" stroke="#191970" points="557.1375,-212.2173 565.4285,-205.621 554.8336,-205.6073 557.1375,-212.2173"/>
</g>
<!-- Node175 -->
<g id="node38" class="node">
<title>Node175</title>
<g id="a_node38"><a xlink:href="vheap__chunk_8h.html#a9e677451890886104ec8623e0c5757af" target="_top" xlink:title="zrtos_vheap_chunk_\l_get_uid">
<polygon fill="#ffffff" stroke="#000000" points="560.5,-273.5 560.5,-303.5 667.5,-303.5 667.5,-273.5 560.5,-273.5"/>
<text text-anchor="start" x="568.5" y="-291.5" font-family="Helvetica,sans-Serif" font-size="10.00" fill="#000000">zrtos_vheap_chunk_</text>
<text text-anchor="middle" x="614" y="-280.5" font-family="Helvetica,sans-Serif" font-size="10.00" fill="#000000">_get_uid</text>
</a>
</g>
</g>
<!-- Node146&#45;&gt;Node175 -->
<g id="edge54" class="edge">
<title>Node146&#45;&gt;Node175</title>
<path fill="none" stroke="#191970" d="M505.2397,-274.158C520.2473,-276.137 535.9256,-278.2045 550.5547,-280.1336"/>
<polygon fill="#191970" stroke="#191970" points="550.1221,-283.6068 560.4939,-281.4443 551.0373,-276.6668 550.1221,-283.6068"/>
</g>
<!-- Node176 -->
<g id="node39" class="node">
<title>Node176</title>
<g id="a_node39"><a xlink:href="vheap__task__scheduler_8h.html#a393742fc3d9f5e784e97f4915c6b557d" target="_top" xlink:title="_zrtos_vheap_task_scheduler\l__restore_task">
<polygon fill="#ffffff" stroke="#000000" points="541,-224.5 541,-254.5 687,-254.5 687,-224.5 541,-224.5"/>
<text text-anchor="start" x="549" y="-242.5" font-family="Helvetica,sans-Serif" font-size="10.00" fill="#000000">_zrtos_vheap_task_scheduler</text>
<text text-anchor="middle" x="614" y="-231.5" font-family="Helvetica,sans-Serif" font-size="10.00" fill="#000000">__restore_task</text>
</a>
</g>
</g>
<!-- Node146&#45;&gt;Node176 -->
<g id="edge55" class="edge">
<title>Node146&#45;&gt;Node176</title>
<path fill="none" stroke="#191970" d="M505.2397,-254.4396C513.688,-253.2791 522.3489,-252.0894 530.9155,-250.9127"/>
<polygon fill="#191970" stroke="#191970" points="531.4796,-254.3682 540.9103,-249.5398 530.527,-247.4333 531.4796,-254.3682"/>
</g>
<!-- Node149&#45;&gt;Node144 -->
<g id="edge13" class="edge">
<title>Node149&#45;&gt;Node144</title>
<path fill="none" stroke="#191970" d="M864.1283,-102.1518C915.9264,-103.9617 987.182,-110.8209 1046,-132.5 1076.6038,-143.78 1107.124,-165.465 1127.596,-181.9155"/>
<polygon fill="#191970" stroke="#191970" points="1125.511,-184.7323 1135.4595,-188.3761 1129.9547,-179.3236 1125.511,-184.7323"/>
</g>
<!-- Node150 -->
<g id="node13" class="node">
<title>Node150</title>
<g id="a_node13"><a xlink:href="vheap_8h.html#ad2723df7cc03e8a85b5886b8fd2c2b4e" target="_top" xlink:title="_zrtos_vheap__get_free\l_space_ex">
<polygon fill="#ffffff" stroke="#000000" points="912.5,-476.5 912.5,-506.5 1033.5,-506.5 1033.5,-476.5 912.5,-476.5"/>
<text text-anchor="start" x="920.5" y="-494.5" font-family="Helvetica,sans-Serif" font-size="10.00" fill="#000000">_zrtos_vheap__get_free</text>
<text text-anchor="middle" x="973" y="-483.5" font-family="Helvetica,sans-Serif" font-size="10.00" fill="#000000">_space_ex</text>
</a>
</g>
</g>
<!-- Node149&#45;&gt;Node150 -->
<g id="edge14" class="edge">
<title>Node149&#45;&gt;Node150</title>
<path fill="none" stroke="#191970" d="M803.0143,-117.7179C818.1776,-142.6439 847.7655,-194.1476 864,-241.5 891.3074,-321.1497 858.0826,-354.4746 900,-427.5 909.7496,-444.485 925.6877,-459.2363 940.1881,-470.2825"/>
<polygon fill="#191970" stroke="#191970" points="938.3603,-473.2814 948.5019,-476.3471 942.4856,-467.6261 938.3603,-473.2814"/>
</g>
<!-- Node152 -->
<g id="node15" class="node">
<title>Node152</title>
<g id="a_node15"><a xlink:href="vheap__task_8h.html#a896d233acb32ead8d7e1fd170a42aae3" target="_top" xlink:title="zrtos_vheap_task__get\l_stack_size_min">
<polygon fill="#ffffff" stroke="#000000" points="914,-49.5 914,-79.5 1032,-79.5 1032,-49.5 914,-49.5"/>
<text text-anchor="start" x="922" y="-67.5" font-family="Helvetica,sans-Serif" font-size="10.00" fill="#000000">zrtos_vheap_task__get</text>
<text text-anchor="middle" x="973" y="-56.5" font-family="Helvetica,sans-Serif" font-size="10.00" fill="#000000">_stack_size_min</text>
</a>
</g>
</g>
<!-- Node149&#45;&gt;Node152 -->
<g id="edge17" class="edge">
<title>Node149&#45;&gt;Node152</title>
<path fill="none" stroke="#191970" d="M864.1855,-87.5359C877.3196,-84.7555 891.0248,-81.8541 904.1044,-79.0851"/>
<polygon fill="#191970" stroke="#191970" points="904.9064,-82.493 913.9647,-76.9977 903.4566,-75.6448 904.9064,-82.493"/>
</g>
<!-- Node153 -->
<g id="node16" class="node">
<title>Node153</title>
<g id="a_node16"><a xlink:href="vheap__chunk_8h.html#a26bcd8779d88d67764f563058787008a" target="_top" xlink:title="zrtos_vheap_chunk_\l_get_length">
<polygon fill="#ffffff" stroke="#000000" points="919.5,-.5 919.5,-30.5 1026.5,-30.5 1026.5,-.5 919.5,-.5"/>
<text text-anchor="start" x="927.5" y="-18.5" font-family="Helvetica,sans-Serif" font-size="10.00" fill="#000000">zrtos_vheap_chunk_</text>
<text text-anchor="middle" x="973" y="-7.5" font-family="Helvetica,sans-Serif" font-size="10.00" fill="#000000">_get_length</text>
</a>
</g>
</g>
<!-- Node149&#45;&gt;Node153 -->
<g id="edge18" class="edge">
<title>Node149&#45;&gt;Node153</title>
<path fill="none" stroke="#191970" d="M815.9915,-87.243C837.0311,-73.4504 869.677,-53.2569 900,-39.5 904.0738,-37.6518 908.3327,-35.8761 912.6585,-34.1854"/>
<polygon fill="#191970" stroke="#191970" points="914.0462,-37.4034 922.1892,-30.6253 911.5967,-30.8459 914.0462,-37.4034"/>
</g>
<!-- Node150&#45;&gt;Node142 -->
<g id="edge16" class="edge">
<title>Node150&#45;&gt;Node142</title>
<path fill="none" stroke="#191970" d="M1018.2954,-476.3595C1042.5159,-468.2635 1072.515,-458.2359 1098.0038,-449.716"/>
<polygon fill="#191970" stroke="#191970" points="1099.1557,-453.0214 1107.5303,-446.5317 1096.9365,-446.3825 1099.1557,-453.0214"/>
</g>
<!-- Node151 -->
<g id="node14" class="node">
<title>Node151</title>
<g id="a_node14"><a xlink:href="types_8h.html#adbc4238237e656eb247fd49ffbfb1a6d" target="_top" xlink:title="zrtos_types__ptr_get\l_byte_distance">
<polygon fill="#ffffff" stroke="#000000" points="1098.5,-602.5 1098.5,-632.5 1206.5,-632.5 1206.5,-602.5 1098.5,-602.5"/>
<text text-anchor="start" x="1106.5" y="-620.5" font-family="Helvetica,sans-Serif" font-size="10.00" fill="#000000">zrtos_types__ptr_get</text>
<text text-anchor="middle" x="1152.5" y="-609.5" font-family="Helvetica,sans-Serif" font-size="10.00" fill="#000000">_byte_distance</text>
</a>
</g>
</g>
<!-- Node150&#45;&gt;Node151 -->
<g id="edge15" class="edge">
<title>Node150&#45;&gt;Node151</title>
<path fill="none" stroke="#191970" d="M1031.5919,-506.6502C1036.7922,-509.4081 1041.7044,-512.6621 1046,-516.5 1073.8717,-541.402 1054.2636,-567.4475 1082,-592.5 1084.334,-594.6081 1086.8574,-596.5412 1089.5134,-598.3133"/>
<polygon fill="#191970" stroke="#191970" points="1087.9697,-601.4638 1098.378,-603.4431 1091.4758,-595.4051 1087.9697,-601.4638"/>
</g>
<!-- Node154&#45;&gt;Node144 -->
<g id="edge20" class="edge">
<title>Node154&#45;&gt;Node144</title>
<path fill="none" stroke="#191970" d="M687.1849,-192.2668C787.513,-194.6888 967.1672,-199.0259 1071.4558,-201.5435"/>
<polygon fill="#191970" stroke="#191970" points="1071.5361,-205.0464 1081.6177,-201.7888 1071.7051,-198.0484 1071.5361,-205.0464"/>
</g>
<!-- Node155 -->
<g id="node18" class="node">
<title>Node155</title>
<g id="a_node18"><a xlink:href="vheap__task__scheduler_8h.html#aff9fd65d1ee753d63d6749a7d18ccb05" target="_top" xlink:title="zrtos_vheap_task_scheduler\l__page_task_out">
<polygon fill="#ffffff" stroke="#000000" points="723,-564.5 723,-594.5 864,-594.5 864,-564.5 723,-564.5"/>
<text text-anchor="start" x="731" y="-582.5" font-family="Helvetica,sans-Serif" font-size="10.00" fill="#000000">zrtos_vheap_task_scheduler</text>
<text text-anchor="middle" x="793.5" y="-571.5" font-family="Helvetica,sans-Serif" font-size="10.00" fill="#000000">__page_task_out</text>
</a>
</g>
</g>
<!-- Node154&#45;&gt;Node155 -->
<g id="edge21" class="edge">
<title>Node154&#45;&gt;Node155</title>
<path fill="none" stroke="#191970" d="M675.679,-205.5596C679.8187,-208.0908 683.6617,-211.0471 687,-214.5 693.1475,-220.8585 763.6815,-472.5213 786.4563,-554.1928"/>
<polygon fill="#191970" stroke="#191970" points="783.1689,-555.4345 789.2249,-564.1278 789.9119,-553.5553 783.1689,-555.4345"/>
</g>
<!-- Node167 -->
<g id="node30" class="node">
<title>Node167</title>
<g id="a_node30"><a xlink:href="vheap_8h.html#ad64ed97d65218c007f9548e0f1adb82f" target="_top" xlink:title="zrtos_vheap__get_by_id">
<polygon fill="#ffffff" stroke="#000000" points="732.5,-301 732.5,-320 854.5,-320 854.5,-301 732.5,-301"/>
<text text-anchor="middle" x="793.5" y="-308" font-family="Helvetica,sans-Serif" font-size="10.00" fill="#000000">zrtos_vheap__get_by_id</text>
</a>
</g>
</g>
<!-- Node154&#45;&gt;Node167 -->
<g id="edge40" class="edge">
<title>Node154&#45;&gt;Node167</title>
<path fill="none" stroke="#191970" d="M674.0242,-205.578C678.692,-208.1067 683.0988,-211.0574 687,-214.5 715.0244,-239.2299 694.472,-266.3527 723,-290.5 725.5734,-292.6782 728.3694,-294.6198 731.3145,-296.3503"/>
<polygon fill="#191970" stroke="#191970" points="730.0111,-299.6112 740.5229,-300.9347 733.1308,-293.3448 730.0111,-299.6112"/>
</g>
<!-- Node168 -->
<g id="node31" class="node">
<title>Node168</title>
<g id="a_node31"><a xlink:href="vheap__task__scheduler_8h.html#ac3ceec0a4016b00c1670ddce858c6bac" target="_top" xlink:title="zrtos_vheap_task_scheduler\l__page_task_in">
<polygon fill="#ffffff" stroke="#000000" points="723,-251.5 723,-281.5 864,-281.5 864,-251.5 723,-251.5"/>
<text text-anchor="start" x="731" y="-269.5" font-family="Helvetica,sans-Serif" font-size="10.00" fill="#000000">zrtos_vheap_task_scheduler</text>
<text text-anchor="middle" x="793.5" y="-258.5" font-family="Helvetica,sans-Serif" font-size="10.00" fill="#000000">__page_task_in</text>
</a>
</g>
</g>
<!-- Node154&#45;&gt;Node168 -->
<g id="edge41" class="edge">
<title>Node154&#45;&gt;Node168</title>
<path fill="none" stroke="#191970" d="M663.0264,-205.5947C671.1039,-208.3734 679.337,-211.3865 687,-214.5 710.368,-223.9944 735.7767,-236.3195 755.9134,-246.5873"/>
<polygon fill="#191970" stroke="#191970" points="754.5617,-249.8279 765.055,-251.2914 757.7647,-243.6036 754.5617,-249.8279"/>
</g>
<!-- Node155&#45;&gt;Node140 -->
<g id="edge23" class="edge">
<title>Node155&#45;&gt;Node140</title>
<path fill="none" stroke="#191970" d="M801.0194,-564.1165C816.0201,-534.8788 852.3595,-470.8762 900,-433.5 904.9522,-429.6148 910.4777,-426.1579 916.2113,-423.1007"/>
<polygon fill="#191970" stroke="#191970" points="917.9043,-426.1687 925.3401,-418.6216 914.8208,-419.8845 917.9043,-426.1687"/>
</g>
<!-- Node155&#45;&gt;Node142 -->
<g id="edge39" class="edge">
<title>Node155&#45;&gt;Node142</title>
<path fill="none" stroke="#191970" d="M802.7765,-564.3359C819.0238,-539.2563 855.2011,-489.6164 900,-466.5 957.4261,-436.8679 1031.4883,-429.6521 1084.5269,-428.9214"/>
<polygon fill="#191970" stroke="#191970" points="1084.8652,-432.4194 1094.8431,-428.857 1084.8215,-425.4196 1084.8652,-432.4194"/>
</g>
<!-- Node155&#45;&gt;Node144 -->
<g id="edge22" class="edge">
<title>Node155&#45;&gt;Node144</title>
<path fill="none" stroke="#191970" d="M797.0246,-564.4758C806.6168,-526.9996 836.8134,-428.7959 900,-378.5 952.5489,-336.6715 989.9578,-376.5174 1046,-339.5 1089.3526,-310.8644 1122.8039,-258.6994 1139.8999,-227.9675"/>
<polygon fill="#191970" stroke="#191970" points="1143.1807,-229.2594 1144.8677,-218.7997 1137.0262,-225.9244 1143.1807,-229.2594"/>
</g>
<!-- Node155&#45;&gt;Node151 -->
<g id="edge38" class="edge">
<title>Node155&#45;&gt;Node151</title>
<path fill="none" stroke="#191970" d="M808.7755,-594.7498C828.0844,-612.8386 863.2608,-641.9891 900,-653.5 961.9208,-672.9006 981.9711,-664.0292 1046,-653.5 1051.8869,-652.5319 1076.4448,-644.2764 1100.4958,-635.9155"/>
<polygon fill="#191970" stroke="#191970" points="1101.7141,-639.1973 1110.0019,-632.5971 1099.4071,-632.5884 1101.7141,-639.1973"/>
</g>
<!-- Node156 -->
<g id="node19" class="node">
<title>Node156</title>
<g id="a_node19"><a xlink:href="vheap__task_8h.html#ab4203191e1dca81c750ca246d31fda8c" target="_top" xlink:title="zrtos_vheap_task__set\l_stack_ptr">
<polygon fill="#ffffff" stroke="#000000" points="914,-613.5 914,-643.5 1032,-643.5 1032,-613.5 914,-613.5"/>
<text text-anchor="start" x="922" y="-631.5" font-family="Helvetica,sans-Serif" font-size="10.00" fill="#000000">zrtos_vheap_task__set</text>
<text text-anchor="middle" x="973" y="-620.5" font-family="Helvetica,sans-Serif" font-size="10.00" fill="#000000">_stack_ptr</text>
</a>
</g>
</g>
<!-- Node155&#45;&gt;Node156 -->
<g id="edge24" class="edge">
<title>Node155&#45;&gt;Node156</title>
<path fill="none" stroke="#191970" d="M848.8206,-594.6014C867.5906,-599.7253 888.7287,-605.4956 908.172,-610.8032"/>
<polygon fill="#191970" stroke="#191970" points="907.2933,-614.1914 917.8621,-613.4484 909.1368,-607.4384 907.2933,-614.1914"/>
</g>
<!-- Node157 -->
<g id="node20" class="node">
<title>Node157</title>
<g id="a_node20"><a xlink:href="vheap__task_8h.html#a4916fc70f9461b91fd5c6c8186bbb8f0" target="_top" xlink:title="zrtos_vheap_task__set\l_errno">
<polygon fill="#ffffff" stroke="#000000" points="914,-564.5 914,-594.5 1032,-594.5 1032,-564.5 914,-564.5"/>
<text text-anchor="start" x="922" y="-582.5" font-family="Helvetica,sans-Serif" font-size="10.00" fill="#000000">zrtos_vheap_task__set</text>
<text text-anchor="middle" x="973" y="-571.5" font-family="Helvetica,sans-Serif" font-size="10.00" fill="#000000">_errno</text>
</a>
</g>
</g>
<!-- Node155&#45;&gt;Node157 -->
<g id="edge25" class="edge">
<title>Node155&#45;&gt;Node157</title>
<path fill="none" stroke="#191970" d="M864.1855,-579.5C877.1908,-579.5 890.7561,-579.5 903.7195,-579.5"/>
<polygon fill="#191970" stroke="#191970" points="903.9647,-583.0001 913.9647,-579.5 903.9647,-576.0001 903.9647,-583.0001"/>
</g>
<!-- Node158 -->
<g id="node21" class="node">
<title>Node158</title>
<g id="a_node21"><a xlink:href="vheap_8h.html#a7c64f185f189dd5e35dc36b22d1b0397" target="_top" xlink:title="zrtos_vheap__page_out">
<polygon fill="#ffffff" stroke="#000000" points="913,-701 913,-720 1033,-720 1033,-701 913,-701"/>
<text text-anchor="middle" x="973" y="-708" font-family="Helvetica,sans-Serif" font-size="10.00" fill="#000000">zrtos_vheap__page_out</text>
</a>
</g>
</g>
<!-- Node155&#45;&gt;Node158 -->
<g id="edge26" class="edge">
<title>Node155&#45;&gt;Node158</title>
<path fill="none" stroke="#191970" d="M804.8747,-594.8757C822.6998,-617.9412 859.4004,-661.4578 900,-686.5 907.0231,-690.8319 914.9138,-694.4715 922.843,-697.5006"/>
<polygon fill="#191970" stroke="#191970" points="921.8833,-700.8733 932.4781,-700.8979 924.2111,-694.2717 921.8833,-700.8733"/>
</g>
<!-- Node164 -->
<g id="node27" class="node">
<title>Node164</title>
<g id="a_node27"><a xlink:href="vheap_8h.html#a324d34b06d29c4d590434ad465ca1271" target="_top" xlink:title="zrtos_vheap__get_by\l_type_ex">
<polygon fill="#ffffff" stroke="#000000" points="918,-821.5 918,-851.5 1028,-851.5 1028,-821.5 918,-821.5"/>
<text text-anchor="start" x="926" y="-839.5" font-family="Helvetica,sans-Serif" font-size="10.00" fill="#000000">zrtos_vheap__get_by</text>
<text text-anchor="middle" x="973" y="-828.5" font-family="Helvetica,sans-Serif" font-size="10.00" fill="#000000">_type_ex</text>
</a>
</g>
</g>
<!-- Node155&#45;&gt;Node164 -->
<g id="edge35" class="edge">
<title>Node155&#45;&gt;Node164</title>
<path fill="none" stroke="#191970" d="M804.191,-594.8069C834.3708,-638.017 920.3748,-761.1536 956.5985,-813.0171"/>
<polygon fill="#191970" stroke="#191970" points="953.7695,-815.0791 962.365,-821.2733 959.5083,-811.0709 953.7695,-815.0791"/>
</g>
<!-- Node158&#45;&gt;Node143 -->
<g id="edge27" class="edge">
<title>Node158&#45;&gt;Node143</title>
<path fill="none" stroke="#191970" d="M1033.0411,-707.7296C1083.7973,-704.9591 1158.3581,-699.882 1223,-691.5 1348.9467,-675.1688 1495.2628,-645.5064 1571.9165,-629.1333"/>
<polygon fill="#191970" stroke="#191970" points="1572.7683,-632.5302 1581.8118,-627.0107 1571.3002,-625.6859 1572.7683,-632.5302"/>
</g>
<!-- Node158&#45;&gt;Node151 -->
<g id="edge34" class="edge">
<title>Node158&#45;&gt;Node151</title>
<path fill="none" stroke="#191970" d="M1015.827,-700.8874C1026.248,-697.3758 1036.9795,-692.6892 1046,-686.5 1066.8344,-672.205 1061.3324,-657.0351 1082,-642.5 1084.7087,-640.595 1087.5773,-638.8215 1090.5471,-637.1721"/>
<polygon fill="#191970" stroke="#191970" points="1092.3259,-640.1958 1099.701,-632.5893 1089.1922,-633.9364 1092.3259,-640.1958"/>
</g>
<!-- Node159 -->
<g id="node22" class="node">
<title>Node159</title>
<g id="a_node22"><a xlink:href="mem_8h.html#a9054cc3824c6ffdaf4ed24fde2f80f32" target="_top" xlink:title="zrtos_mem__move_left\l_overlapping">
<polygon fill="#ffffff" stroke="#000000" points="1093,-777.5 1093,-807.5 1212,-807.5 1212,-777.5 1093,-777.5"/>
<text text-anchor="start" x="1101" y="-795.5" font-family="Helvetica,sans-Serif" font-size="10.00" fill="#000000">zrtos_mem__move_left</text>
<text text-anchor="middle" x="1152.5" y="-784.5" font-family="Helvetica,sans-Serif" font-size="10.00" fill="#000000">_overlapping</text>
</a>
</g>
</g>
<!-- Node158&#45;&gt;Node159 -->
<g id="edge28" class="edge">
<title>Node158&#45;&gt;Node159</title>
<path fill="none" stroke="#191970" d="M992.573,-720.1486C1014.2993,-730.7857 1050.4644,-748.2759 1082,-762.5 1090.0169,-766.116 1098.5954,-769.8653 1106.9105,-773.4379"/>
<polygon fill="#191970" stroke="#191970" points="1105.5716,-776.6718 1116.1428,-777.3797 1108.3204,-770.2341 1105.5716,-776.6718"/>
</g>
<!-- Node160 -->
<g id="node23" class="node">
<title>Node160</title>
<g id="a_node23"><a xlink:href="vheap__chunk_8h.html#a50f3da740523a69829e865dcaa7d77ad" target="_top" xlink:title="zrtos_vheap_chunk_\l_set_type">
<polygon fill="#ffffff" stroke="#000000" points="1099,-651.5 1099,-681.5 1206,-681.5 1206,-651.5 1099,-651.5"/>
<text text-anchor="start" x="1107" y="-669.5" font-family="Helvetica,sans-Serif" font-size="10.00" fill="#000000">zrtos_vheap_chunk_</text>
<text text-anchor="middle" x="1152.5" y="-658.5" font-family="Helvetica,sans-Serif" font-size="10.00" fill="#000000">_set_type</text>
</a>
</g>
</g>
<!-- Node158&#45;&gt;Node160 -->
<g id="edge29" class="edge">
<title>Node158&#45;&gt;Node160</title>
<path fill="none" stroke="#191970" d="M1011.9488,-700.9527C1034.4325,-695.4413 1063.2584,-688.3754 1088.9462,-682.0786"/>
<polygon fill="#191970" stroke="#191970" points="1090.1086,-685.3974 1098.9878,-679.6172 1088.4421,-678.5987 1090.1086,-685.3974"/>
</g>
<!-- Node161 -->
<g id="node24" class="node">
<title>Node161</title>
<g id="a_node24"><a xlink:href="mem_8h.html#a2e3d82e56bdea756a305d5ced180ca57" target="_top" xlink:title="zrtos_mem__left_rotate">
<polygon fill="#ffffff" stroke="#000000" points="1261.5,-739 1261.5,-758 1380.5,-758 1380.5,-739 1261.5,-739"/>
<text text-anchor="middle" x="1321" y="-746" font-family="Helvetica,sans-Serif" font-size="10.00" fill="#000000">zrtos_mem__left_rotate</text>
</a>
</g>
</g>
<!-- Node158&#45;&gt;Node161 -->
<g id="edge30" class="edge">
<title>Node158&#45;&gt;Node161</title>
<path fill="none" stroke="#191970" d="M1033.2163,-718.5368C1049.0733,-720.5702 1066.1722,-722.6892 1082,-724.5 1138.7409,-730.9916 1203.1719,-737.4061 1250.8266,-741.9682"/>
<polygon fill="#191970" stroke="#191970" points="1250.7488,-745.4766 1261.0359,-742.9419 1251.4134,-738.5082 1250.7488,-745.4766"/>
</g>
<!-- Node162 -->
<g id="node25" class="node">
<title>Node162</title>
<g id="a_node25"><a xlink:href="mem_8h.html#a76a7df82d207aef7d339f7ff95cce550" target="_top" xlink:title="zrtos_mem__swap_ex">
<polygon fill="#ffffff" stroke="#000000" points="1419,-739 1419,-758 1534,-758 1534,-739 1419,-739"/>
<text text-anchor="middle" x="1476.5" y="-746" font-family="Helvetica,sans-Serif" font-size="10.00" fill="#000000">zrtos_mem__swap_ex</text>
</a>
</g>
</g>
<!-- Node161&#45;&gt;Node162 -->
<g id="edge31" class="edge">
<title>Node161&#45;&gt;Node162</title>
<path fill="none" stroke="#191970" d="M1380.6756,-748.5C1389.8587,-748.5 1399.3979,-748.5 1408.7414,-748.5"/>
<polygon fill="#191970" stroke="#191970" points="1408.7771,-752.0001 1418.7771,-748.5 1408.7771,-745.0001 1408.7771,-752.0001"/>
</g>
<!-- Node162&#45;&gt;Node143 -->
<g id="edge33" class="edge">
<title>Node162&#45;&gt;Node143</title>
<path fill="none" stroke="#191970" d="M1506.8667,-738.9163C1516.0654,-735.2223 1525.8754,-730.4327 1534,-724.5 1568.2726,-699.4736 1598.0007,-659.0274 1613.5254,-635.6902"/>
<polygon fill="#191970" stroke="#191970" points="1616.5916,-637.3952 1619.1082,-627.1035 1610.7229,-633.5795 1616.5916,-637.3952"/>
</g>
<!-- Node163 -->
<g id="node26" class="node">
<title>Node163</title>
<g id="a_node26"><a xlink:href="mem_8h.html#af7e65258e9f403545514aa561c040c71" target="_top" xlink:title="Swap len bytes of dest and src inplace. ">
<polygon fill="#ffffff" stroke="#000000" points="1575.5,-739 1575.5,-758 1674.5,-758 1674.5,-739 1575.5,-739"/>
<text text-anchor="middle" x="1625" y="-746" font-family="Helvetica,sans-Serif" font-size="10.00" fill="#000000">zrtos_mem__swap</text>
</a>
</g>
</g>
<!-- Node162&#45;&gt;Node163 -->
<g id="edge32" class="edge">
<title>Node162&#45;&gt;Node163</title>
<path fill="none" stroke="#191970" d="M1534.3392,-748.5C1544.4782,-748.5 1555.047,-748.5 1565.2371,-748.5"/>
<polygon fill="#191970" stroke="#191970" points="1565.271,-752.0001 1575.2709,-748.5 1565.2709,-745.0001 1565.271,-752.0001"/>
</g>
<!-- Node165 -->
<g id="node28" class="node">
<title>Node165</title>
<g id="a_node28"><a xlink:href="vheap__chunk__type_8h.html#a3ba86ab73e8b4b86da90ba791d52bf27" target="_top" xlink:title="zrtos_vheap_chunk_type\l__init">
<polygon fill="#ffffff" stroke="#000000" points="1090,-865.5 1090,-895.5 1215,-895.5 1215,-865.5 1090,-865.5"/>
<text text-anchor="start" x="1098" y="-883.5" font-family="Helvetica,sans-Serif" font-size="10.00" fill="#000000">zrtos_vheap_chunk_type</text>
<text text-anchor="middle" x="1152.5" y="-872.5" font-family="Helvetica,sans-Serif" font-size="10.00" fill="#000000">__init</text>
</a>
</g>
</g>
<!-- Node164&#45;&gt;Node165 -->
<g id="edge36" class="edge">
<title>Node164&#45;&gt;Node165</title>
<path fill="none" stroke="#191970" d="M1028.3206,-850.0605C1044.9399,-854.1343 1063.4156,-858.6632 1080.9277,-862.9558"/>
<polygon fill="#191970" stroke="#191970" points="1080.5601,-866.4693 1091.1058,-865.4507 1082.2267,-859.6705 1080.5601,-866.4693"/>
</g>
<!-- Node166 -->
<g id="node29" class="node">
<title>Node166</title>
<g id="a_node29"><a xlink:href="vheap_8h.html#aeee007ca1180d2a9b9f5659603fe6044" target="_top" xlink:title="zrtos_vheap__get_by_type">
<polygon fill="#ffffff" stroke="#000000" points="1085.5,-827 1085.5,-846 1219.5,-846 1219.5,-827 1085.5,-827"/>
<text text-anchor="middle" x="1152.5" y="-834" font-family="Helvetica,sans-Serif" font-size="10.00" fill="#000000">zrtos_vheap__get_by_type</text>
</a>
</g>
</g>
<!-- Node164&#45;&gt;Node166 -->
<g id="edge37" class="edge">
<title>Node164&#45;&gt;Node166</title>
<path fill="none" stroke="#191970" d="M1028.3206,-836.5C1043.1082,-836.5 1059.3657,-836.5 1075.1062,-836.5"/>
<polygon fill="#191970" stroke="#191970" points="1075.3547,-840.0001 1085.3547,-836.5 1075.3547,-833.0001 1075.3547,-840.0001"/>
</g>
<!-- Node168&#45;&gt;Node140 -->
<g id="edge51" class="edge">
<title>Node168&#45;&gt;Node140</title>
<path fill="none" stroke="#191970" d="M846.8205,-281.5393C852.8917,-284.3558 858.7688,-287.6534 864,-291.5 885.4838,-307.2974 881.8767,-319.9384 900,-339.5 914.0759,-354.6931 931.4586,-370.0467 945.7303,-381.9062"/>
<polygon fill="#191970" stroke="#191970" points="943.772,-384.8265 953.7252,-388.4574 948.2087,-379.412 943.772,-384.8265"/>
</g>
<!-- Node168&#45;&gt;Node144 -->
<g id="edge42" class="edge">
<title>Node168&#45;&gt;Node144</title>
<path fill="none" stroke="#191970" d="M853.5826,-251.497C868.684,-247.9744 884.8931,-244.4049 900,-241.5 957.1198,-230.5165 1022.0184,-220.8094 1071.7166,-213.9557"/>
<polygon fill="#191970" stroke="#191970" points="1072.3314,-217.4043 1081.7643,-212.5803 1071.382,-210.469 1072.3314,-217.4043"/>
</g>
<!-- Node169 -->
<g id="node32" class="node">
<title>Node169</title>
<g id="a_node32"><a xlink:href="vheap_8h.html#a3bce66e6371563f486d49abcf3c45a25" target="_top" xlink:title="zrtos_vheap__page_in">
<polygon fill="#ffffff" stroke="#000000" points="916,-526 916,-545 1030,-545 1030,-526 916,-526"/>
<text text-anchor="middle" x="973" y="-533" font-family="Helvetica,sans-Serif" font-size="10.00" fill="#000000">zrtos_vheap__page_in</text>
</a>
</g>
</g>
<!-- Node168&#45;&gt;Node169 -->
<g id="edge43" class="edge">
<title>Node168&#45;&gt;Node169</title>
<path fill="none" stroke="#191970" d="M852.6013,-281.5489C856.8674,-284.3234 860.7579,-287.609 864,-291.5 928.5477,-368.9655 832.6547,-440.4539 900,-515.5 902.057,-517.7922 904.3492,-519.8323 906.8164,-521.6473"/>
<polygon fill="#191970" stroke="#191970" points="905.4078,-524.882 915.7909,-526.99 908.9886,-518.8672 905.4078,-524.882"/>
</g>
<!-- Node173 -->
<g id="node36" class="node">
<title>Node173</title>
<g id="a_node36"><a xlink:href="vheap__task_8h.html#a4c7bdc8ec72e41c5edecf60880368905" target="_top" xlink:title="zrtos_vheap_task__get\l_stack_ptr">
<polygon fill="#ffffff" stroke="#000000" points="914,-251.5 914,-281.5 1032,-281.5 1032,-251.5 914,-251.5"/>
<text text-anchor="start" x="922" y="-269.5" font-family="Helvetica,sans-Serif" font-size="10.00" fill="#000000">zrtos_vheap_task__get</text>
<text text-anchor="middle" x="973" y="-258.5" font-family="Helvetica,sans-Serif" font-size="10.00" fill="#000000">_stack_ptr</text>
</a>
</g>
</g>
<!-- Node168&#45;&gt;Node173 -->
<g id="edge52" class="edge">
<title>Node168&#45;&gt;Node173</title>
<path fill="none" stroke="#191970" d="M864.1855,-266.5C877.1908,-266.5 890.7561,-266.5 903.7195,-266.5"/>
<polygon fill="#191970" stroke="#191970" points="903.9647,-270.0001 913.9647,-266.5 903.9647,-263.0001 903.9647,-270.0001"/>
</g>
<!-- Node174 -->
<g id="node37" class="node">
<title>Node174</title>
<g id="a_node37"><a xlink:href="vheap__task_8h.html#a9a6382869bc3582f4c52e85d4915fea5" target="_top" xlink:title="zrtos_vheap_task__get\l_errno">
<polygon fill="#ffffff" stroke="#000000" points="914,-300.5 914,-330.5 1032,-330.5 1032,-300.5 914,-300.5"/>
<text text-anchor="start" x="922" y="-318.5" font-family="Helvetica,sans-Serif" font-size="10.00" fill="#000000">zrtos_vheap_task__get</text>
<text text-anchor="middle" x="973" y="-307.5" font-family="Helvetica,sans-Serif" font-size="10.00" fill="#000000">_errno</text>
</a>
</g>
</g>
<!-- Node168&#45;&gt;Node174 -->
<g id="edge53" class="edge">
<title>Node168&#45;&gt;Node174</title>
<path fill="none" stroke="#191970" d="M848.8206,-281.6014C867.5906,-286.7253 888.7287,-292.4956 908.172,-297.8032"/>
<polygon fill="#191970" stroke="#191970" points="907.2933,-301.1914 917.8621,-300.4484 909.1368,-294.4384 907.2933,-301.1914"/>
</g>
<!-- Node169&#45;&gt;Node143 -->
<g id="edge44" class="edge">
<title>Node169&#45;&gt;Node143</title>
<path fill="none" stroke="#191970" d="M1030.1463,-531.664C1109.7798,-527.4389 1258.3829,-523.628 1383,-543.5 1459.7984,-555.7466 1546.0936,-586.4372 1592.0347,-604.2103"/>
<polygon fill="#191970" stroke="#191970" points="1590.8881,-607.5199 1601.476,-607.9016 1593.437,-601.0005 1590.8881,-607.5199"/>
</g>
<!-- Node169&#45;&gt;Node151 -->
<g id="edge49" class="edge">
<title>Node169&#45;&gt;Node151</title>
<path fill="none" stroke="#191970" d="M1024.7198,-545.0837C1032.1364,-547.5493 1039.46,-550.6371 1046,-554.5 1066.0312,-566.3316 1062.4969,-579.8168 1082,-592.5 1085.0653,-594.4934 1088.3092,-596.3508 1091.6552,-598.0778"/>
<polygon fill="#191970" stroke="#191970" points="1090.1616,-601.2431 1100.6986,-602.3493 1093.1513,-594.9136 1090.1616,-601.2431"/>
</g>
<!-- Node169&#45;&gt;Node160 -->
<g id="edge50" class="edge">
<title>Node169&#45;&gt;Node160</title>
<path fill="none" stroke="#191970" d="M1030.2572,-544.712C1035.9741,-547.2437 1041.3667,-550.4482 1046,-554.5 1077.8096,-582.3178 1051.2339,-613.5324 1082,-642.5 1084.4475,-644.8044 1087.125,-646.8883 1089.9607,-648.7727"/>
<polygon fill="#191970" stroke="#191970" points="1088.4484,-651.9393 1098.8698,-653.8484 1091.9136,-645.8571 1088.4484,-651.9393"/>
</g>
<!-- Node170 -->
<g id="node33" class="node">
<title>Node170</title>
<g id="a_node33"><a xlink:href="vheap_8h.html#a53d9ca47afe3a2f353e12566c3c82a1d" target="_top" xlink:title="_zrtos_vheap__update\l_index_ptr">
<polygon fill="#ffffff" stroke="#000000" points="1095,-465.5 1095,-495.5 1210,-495.5 1210,-465.5 1095,-465.5"/>
<text text-anchor="start" x="1103" y="-483.5" font-family="Helvetica,sans-Serif" font-size="10.00" fill="#000000">_zrtos_vheap__update</text>
<text text-anchor="middle" x="1152.5" y="-472.5" font-family="Helvetica,sans-Serif" font-size="10.00" fill="#000000">_index_ptr</text>
</a>
</g>
</g>
<!-- Node169&#45;&gt;Node170 -->
<g id="edge45" class="edge">
<title>Node169&#45;&gt;Node170</title>
<path fill="none" stroke="#191970" d="M1009.1188,-525.9892C1020.9118,-522.7813 1034.0465,-519.0992 1046,-515.5 1063.2143,-510.3168 1081.8716,-504.3172 1098.6894,-498.7653"/>
<polygon fill="#191970" stroke="#191970" points="1099.9656,-502.0295 1108.354,-495.5576 1097.7606,-495.3859 1099.9656,-502.0295"/>
</g>
<!-- Node171 -->
<g id="node34" class="node">
<title>Node171</title>
<g id="a_node34"><a xlink:href="vheap_8h.html#a58db7c5ad7c8ab1f99167871437f5d31" target="_top" xlink:title="_zrtos_vheap__swap\l_to_heap_end">
<polygon fill="#ffffff" stroke="#000000" points="1098,-553.5 1098,-583.5 1207,-583.5 1207,-553.5 1098,-553.5"/>
<text text-anchor="start" x="1106" y="-571.5" font-family="Helvetica,sans-Serif" font-size="10.00" fill="#000000">_zrtos_vheap__swap</text>
<text text-anchor="middle" x="1152.5" y="-560.5" font-family="Helvetica,sans-Serif" font-size="10.00" fill="#000000">_to_heap_end</text>
</a>
</g>
</g>
<!-- Node169&#45;&gt;Node171 -->
<g id="edge46" class="edge">
<title>Node169&#45;&gt;Node171</title>
<path fill="none" stroke="#191970" d="M1024.9188,-545.045C1044.5836,-548.6602 1067.2143,-552.8207 1087.9046,-556.6245"/>
<polygon fill="#191970" stroke="#191970" points="1087.4163,-560.0933 1097.8844,-558.4592 1088.6821,-553.2087 1087.4163,-560.0933"/>
</g>
<!-- Node171&#45;&gt;Node161 -->
<g id="edge47" class="edge">
<title>Node171&#45;&gt;Node161</title>
<path fill="none" stroke="#191970" d="M1207.207,-583.6655C1212.8362,-586.4383 1218.2306,-589.6912 1223,-593.5 1269.7136,-630.8054 1300.624,-696.7757 1313.782,-729.2895"/>
<polygon fill="#191970" stroke="#191970" points="1310.6566,-730.9073 1317.5608,-738.9435 1317.175,-728.3557 1310.6566,-730.9073"/>
</g>
<!-- Node172 -->
<g id="node35" class="node">
<title>Node172</title>
<g id="a_node35"><a xlink:href="mem_8h.html#a1590269d1001c17c2c99725ef85f6386" target="_top" xlink:title="zrtos_mem__move_right\l_overlapping">
<polygon fill="#ffffff" stroke="#000000" points="1259,-553.5 1259,-583.5 1383,-583.5 1383,-553.5 1259,-553.5"/>
<text text-anchor="start" x="1267" y="-571.5" font-family="Helvetica,sans-Serif" font-size="10.00" fill="#000000">zrtos_mem__move_right</text>
<text text-anchor="middle" x="1321" y="-560.5" font-family="Helvetica,sans-Serif" font-size="10.00" fill="#000000">_overlapping</text>
</a>
</g>
</g>
<!-- Node171&#45;&gt;Node172 -->
<g id="edge48" class="edge">
<title>Node171&#45;&gt;Node172</title>
<path fill="none" stroke="#191970" d="M1207.2071,-568.5C1220.5073,-568.5 1234.9323,-568.5 1248.9019,-568.5"/>
<polygon fill="#191970" stroke="#191970" points="1248.971,-572.0001 1258.9709,-568.5 1248.9709,-565.0001 1248.971,-572.0001"/>
</g>
</g>
</svg>
