<?xml version="1.0" encoding="UTF-8" standalone="no"?>
<!DOCTYPE svg PUBLIC "-//W3C//DTD SVG 1.1//EN"
 "http://www.w3.org/Graphics/SVG/1.1/DTD/svg11.dtd">
<!-- Generated by graphviz version 2.40.1 (20161225.0304)
 -->
<!-- Title: zrtos_vheap__get_child Pages: 1 -->
<svg width="398pt" height="66pt"
 viewBox="0.00 0.00 398.00 66.00" xmlns="http://www.w3.org/2000/svg" xmlns:xlink="http://www.w3.org/1999/xlink">
<g id="graph0" class="graph" transform="scale(1 1) rotate(0) translate(4 62)">
<title>zrtos_vheap__get_child</title>
<polygon fill="#ffffff" stroke="transparent" points="-4,4 -4,-62 394,-62 394,4 -4,4"/>
<!-- Node124 -->
<g id="node1" class="node">
<title>Node124</title>
<polygon fill="#bfbfbf" stroke="#000000" points="0,-19.5 0,-38.5 119,-38.5 119,-19.5 0,-19.5"/>
<text text-anchor="middle" x="59.5" y="-26.5" font-family="Helvetica,sans-Serif" font-size="10.00" fill="#000000">zrtos_vheap__get_child</text>
</g>
<!-- Node125 -->
<g id="node2" class="node">
<title>Node125</title>
<g id="a_node2"><a xlink:href="vheap_8h.html#a9b492c659e97e04a4c480621cf8ea4fa" target="_top" xlink:title="_zrtos_vheap__free">
<polygon fill="#ffffff" stroke="#000000" points="155,-19.5 155,-38.5 257,-38.5 257,-19.5 155,-19.5"/>
<text text-anchor="middle" x="206" y="-26.5" font-family="Helvetica,sans-Serif" font-size="10.00" fill="#000000">_zrtos_vheap__free</text>
</a>
</g>
</g>
<!-- Node124&#45;&gt;Node125 -->
<g id="edge1" class="edge">
<title>Node124&#45;&gt;Node125</title>
<path fill="none" stroke="#191970" d="M129.202,-29C137.8691,-29 146.6026,-29 154.9157,-29"/>
<polygon fill="#191970" stroke="#191970" points="129.0872,-25.5001 119.0872,-29 129.0871,-32.5001 129.0872,-25.5001"/>
</g>
<!-- Node126 -->
<g id="node3" class="node">
<title>Node126</title>
<g id="a_node3"><a xlink:href="vheap_8h.html#a8cb25649260ebcdadebc5cc733e01254" target="_top" xlink:title="zrtos_vheap__free">
<polygon fill="#ffffff" stroke="#000000" points="293,-38.5 293,-57.5 390,-57.5 390,-38.5 293,-38.5"/>
<text text-anchor="middle" x="341.5" y="-45.5" font-family="Helvetica,sans-Serif" font-size="10.00" fill="#000000">zrtos_vheap__free</text>
</a>
</g>
</g>
<!-- Node125&#45;&gt;Node126 -->
<g id="edge2" class="edge">
<title>Node125&#45;&gt;Node126</title>
<path fill="none" stroke="#191970" d="M267.2235,-37.5848C275.8233,-38.7907 284.5647,-40.0164 292.8864,-41.1833"/>
<polygon fill="#191970" stroke="#191970" points="267.6159,-34.1057 257.2267,-36.1831 266.6438,-41.0379 267.6159,-34.1057"/>
</g>
<!-- Node127 -->
<g id="node4" class="node">
<title>Node127</title>
<g id="a_node4"><a xlink:href="vheap__task__pthread_8h.html#a28a15bba47cab57cbc9f5dac9af99c8b" target="_top" xlink:title="pthread_join">
<polygon fill="#ffffff" stroke="#000000" points="307,-.5 307,-19.5 376,-19.5 376,-.5 307,-.5"/>
<text text-anchor="middle" x="341.5" y="-7.5" font-family="Helvetica,sans-Serif" font-size="10.00" fill="#000000">pthread_join</text>
</a>
</g>
</g>
<!-- Node125&#45;&gt;Node127 -->
<g id="edge3" class="edge">
<title>Node125&#45;&gt;Node127</title>
<path fill="none" stroke="#191970" d="M267.4105,-20.3889C280.8598,-18.5031 294.6453,-16.57 306.6219,-14.8907"/>
<polygon fill="#191970" stroke="#191970" points="266.6438,-16.9621 257.2267,-21.8169 267.6159,-23.8943 266.6438,-16.9621"/>
</g>
</g>
</svg>
