<?xml version="1.0" encoding="UTF-8" standalone="no"?>
<!DOCTYPE svg PUBLIC "-//W3C//DTD SVG 1.1//EN"
 "http://www.w3.org/Graphics/SVG/1.1/DTD/svg11.dtd">
<!-- Generated by graphviz version 10.0.1 (20240210.2158)
 -->
<!-- Title: zrtos_vheap__get_child Pages: 1 -->
<svg width="391pt" height="66pt"
 viewBox="0.00 0.00 390.50 66.00" xmlns="http://www.w3.org/2000/svg" xmlns:xlink="http://www.w3.org/1999/xlink">
<g id="graph0" class="graph" transform="scale(1 1) rotate(0) translate(4 62)">
<title>zrtos_vheap__get_child</title>
<!-- Node1 -->
<g id="Node000001" class="node">
<title>Node1</title>
<g id="a_Node000001"><a xlink:title=" ">
<polygon fill="#999999" stroke="#666666" points="382.5,-39 265.25,-39 265.25,-19 382.5,-19 382.5,-39"/>
<text text-anchor="middle" x="323.88" y="-25.5" font-family="Helvetica,sans-Serif" font-size="10.00">zrtos_vheap__get_child</text>
</a>
</g>
</g>
<!-- Node2 -->
<g id="Node000002" class="node">
<title>Node2</title>
<g id="a_Node000002"><a xlink:href="vheap_8h.html#a9b492c659e97e04a4c480621cf8ea4fa" target="_top" xlink:title=" ">
<polygon fill="white" stroke="#666666" points="229.25,-39 130,-39 130,-19 229.25,-19 229.25,-39"/>
<text text-anchor="middle" x="179.62" y="-25.5" font-family="Helvetica,sans-Serif" font-size="10.00">_zrtos_vheap__free</text>
</a>
</g>
</g>
<!-- Node1&#45;&gt;Node2 -->
<g id="edge1_Node000001_Node000002" class="edge">
<title>Node1&#45;&gt;Node2</title>
<g id="a_edge1_Node000001_Node000002"><a xlink:title=" ">
<path fill="none" stroke="#63b8ff" d="M253.52,-29C245.35,-29 237.14,-29 229.33,-29"/>
<polygon fill="#63b8ff" stroke="#63b8ff" points="253.5,-32.5 263.5,-29 253.5,-25.5 253.5,-32.5"/>
</a>
</g>
</g>
<!-- Node3 -->
<g id="Node000003" class="node">
<title>Node3</title>
<g id="a_Node000003"><a xlink:href="vheap__task__pthread_8h.html#a28a15bba47cab57cbc9f5dac9af99c8b" target="_top" xlink:title=" ">
<polygon fill="white" stroke="#666666" points="81.25,-58 12.75,-58 12.75,-38 81.25,-38 81.25,-58"/>
<text text-anchor="middle" x="47" y="-44.5" font-family="Helvetica,sans-Serif" font-size="10.00">pthread_join</text>
</a>
</g>
</g>
<!-- Node2&#45;&gt;Node3 -->
<g id="edge2_Node000002_Node000003" class="edge">
<title>Node2&#45;&gt;Node3</title>
<g id="a_edge2_Node000002_Node000003"><a xlink:title=" ">
<path fill="none" stroke="#63b8ff" d="M118.52,-37.74C105.77,-39.6 92.75,-41.49 81.42,-43.14"/>
<polygon fill="#63b8ff" stroke="#63b8ff" points="118.72,-41.25 128.12,-36.35 117.72,-34.32 118.72,-41.25"/>
</a>
</g>
</g>
<!-- Node4 -->
<g id="Node000004" class="node">
<title>Node4</title>
<g id="a_Node000004"><a xlink:href="vheap_8h.html#a8cb25649260ebcdadebc5cc733e01254" target="_top" xlink:title=" ">
<polygon fill="white" stroke="#666666" points="94,-20 0,-20 0,0 94,0 94,-20"/>
<text text-anchor="middle" x="47" y="-6.5" font-family="Helvetica,sans-Serif" font-size="10.00">zrtos_vheap__free</text>
</a>
</g>
</g>
<!-- Node2&#45;&gt;Node4 -->
<g id="edge3_Node000002_Node000004" class="edge">
<title>Node2&#45;&gt;Node4</title>
<g id="a_edge3_Node000002_Node000004"><a xlink:title=" ">
<path fill="none" stroke="#63b8ff" d="M118.31,-20.23C110.23,-19.05 102.05,-17.86 94.26,-16.73"/>
<polygon fill="#63b8ff" stroke="#63b8ff" points="117.72,-23.68 128.12,-21.65 118.72,-16.75 117.72,-23.68"/>
</a>
</g>
</g>
</g>
</svg>
