<?xml version="1.0" encoding="UTF-8" standalone="no"?>
<!DOCTYPE svg PUBLIC "-//W3C//DTD SVG 1.1//EN"
 "http://www.w3.org/Graphics/SVG/1.1/DTD/svg11.dtd">
<!-- Generated by graphviz version 2.40.1 (20161225.0304)
 -->
<!-- Title: zrtos_vheap_task__set_stack_ptr Pages: 1 -->
<svg width="1131pt" height="88pt"
 viewBox="0.00 0.00 1131.00 88.00" xmlns="http://www.w3.org/2000/svg" xmlns:xlink="http://www.w3.org/1999/xlink">
<g id="graph0" class="graph" transform="scale(1 1) rotate(0) translate(4 84)">
<title>zrtos_vheap_task__set_stack_ptr</title>
<polygon fill="#ffffff" stroke="transparent" points="-4,4 -4,-84 1127,-84 1127,4 -4,4"/>
<!-- Node65 -->
<g id="node1" class="node">
<title>Node65</title>
<polygon fill="#bfbfbf" stroke="#000000" points="0,-24.5 0,-54.5 118,-54.5 118,-24.5 0,-24.5"/>
<text text-anchor="start" x="8" y="-42.5" font-family="Helvetica,sans-Serif" font-size="10.00" fill="#000000">zrtos_vheap_task__set</text>
<text text-anchor="middle" x="59" y="-31.5" font-family="Helvetica,sans-Serif" font-size="10.00" fill="#000000">_stack_ptr</text>
</g>
<!-- Node66 -->
<g id="node2" class="node">
<title>Node66</title>
<g id="a_node2"><a xlink:href="vheap__task__scheduler_8h.html#aff9fd65d1ee753d63d6749a7d18ccb05" target="_top" xlink:title="zrtos_vheap_task_scheduler\l__page_task_out">
<polygon fill="#ffffff" stroke="#000000" points="154,-24.5 154,-54.5 295,-54.5 295,-24.5 154,-24.5"/>
<text text-anchor="start" x="162" y="-42.5" font-family="Helvetica,sans-Serif" font-size="10.00" fill="#000000">zrtos_vheap_task_scheduler</text>
<text text-anchor="middle" x="224.5" y="-31.5" font-family="Helvetica,sans-Serif" font-size="10.00" fill="#000000">__page_task_out</text>
</a>
</g>
</g>
<!-- Node65&#45;&gt;Node66 -->
<g id="edge1" class="edge">
<title>Node65&#45;&gt;Node66</title>
<path fill="none" stroke="#191970" d="M128.3967,-39.5C136.7853,-39.5 145.3618,-39.5 153.7693,-39.5"/>
<polygon fill="#191970" stroke="#191970" points="128.2819,-36.0001 118.2818,-39.5 128.2818,-43.0001 128.2819,-36.0001"/>
</g>
<!-- Node67 -->
<g id="node3" class="node">
<title>Node67</title>
<g id="a_node3"><a xlink:href="vheap__task__scheduler_8h.html#af69e917ca8bd27891eb335dda8289faf" target="_top" xlink:title="_zrtos_vheap_task_scheduler\l__set_active_task">
<polygon fill="#ffffff" stroke="#000000" points="331,-24.5 331,-54.5 477,-54.5 477,-24.5 331,-24.5"/>
<text text-anchor="start" x="339" y="-42.5" font-family="Helvetica,sans-Serif" font-size="10.00" fill="#000000">_zrtos_vheap_task_scheduler</text>
<text text-anchor="middle" x="404" y="-31.5" font-family="Helvetica,sans-Serif" font-size="10.00" fill="#000000">__set_active_task</text>
</a>
</g>
</g>
<!-- Node66&#45;&gt;Node67 -->
<g id="edge2" class="edge">
<title>Node66&#45;&gt;Node67</title>
<path fill="none" stroke="#191970" d="M305.4025,-39.5C313.838,-39.5 322.3789,-39.5 330.723,-39.5"/>
<polygon fill="#191970" stroke="#191970" points="305.1855,-36.0001 295.1855,-39.5 305.1855,-43.0001 305.1855,-36.0001"/>
</g>
<!-- Node68 -->
<g id="node4" class="node">
<title>Node68</title>
<g id="a_node4"><a xlink:href="vheap__task__scheduler_8h.html#a1a1be02692a671c368f4e2335179a042" target="_top" xlink:title="_zrtos_vheap_task_scheduler\l__switch_task">
<polygon fill="#ffffff" stroke="#000000" points="513,-24.5 513,-54.5 659,-54.5 659,-24.5 513,-24.5"/>
<text text-anchor="start" x="521" y="-42.5" font-family="Helvetica,sans-Serif" font-size="10.00" fill="#000000">_zrtos_vheap_task_scheduler</text>
<text text-anchor="middle" x="586" y="-31.5" font-family="Helvetica,sans-Serif" font-size="10.00" fill="#000000">__switch_task</text>
</a>
</g>
</g>
<!-- Node67&#45;&gt;Node68 -->
<g id="edge3" class="edge">
<title>Node67&#45;&gt;Node68</title>
<path fill="none" stroke="#191970" d="M487.516,-39.5C495.9925,-39.5 504.5562,-39.5 512.9103,-39.5"/>
<polygon fill="#191970" stroke="#191970" points="487.2397,-36.0001 477.2397,-39.5 487.2396,-43.0001 487.2397,-36.0001"/>
</g>
<!-- Node69 -->
<g id="node5" class="node">
<title>Node69</title>
<g id="a_node5"><a xlink:href="vheap__task__scheduler_8h.html#acd810187c2b0b8d63548170c9da4b73d" target="_top" xlink:title="_zrtos_vheap_task_scheduler\l__on_tick">
<polygon fill="#ffffff" stroke="#000000" points="695,-24.5 695,-54.5 841,-54.5 841,-24.5 695,-24.5"/>
<text text-anchor="start" x="703" y="-42.5" font-family="Helvetica,sans-Serif" font-size="10.00" fill="#000000">_zrtos_vheap_task_scheduler</text>
<text text-anchor="middle" x="768" y="-31.5" font-family="Helvetica,sans-Serif" font-size="10.00" fill="#000000">__on_tick</text>
</a>
</g>
</g>
<!-- Node68&#45;&gt;Node69 -->
<g id="edge4" class="edge">
<title>Node68&#45;&gt;Node69</title>
<path fill="none" stroke="#191970" d="M669.516,-39.5C677.9925,-39.5 686.5562,-39.5 694.9103,-39.5"/>
<polygon fill="#191970" stroke="#191970" points="669.2397,-36.0001 659.2397,-39.5 669.2396,-43.0001 669.2397,-36.0001"/>
</g>
<!-- Node70 -->
<g id="node6" class="node">
<title>Node70</title>
<g id="a_node6"><a xlink:href="vheap__task__scheduler_8h.html#a51ae476e29565ebfde1ec3340150ca06" target="_top" xlink:title="zrtos_vheap_task_scheduler\l__delay_ms">
<polygon fill="#ffffff" stroke="#000000" points="877,-49.5 877,-79.5 1018,-79.5 1018,-49.5 877,-49.5"/>
<text text-anchor="start" x="885" y="-67.5" font-family="Helvetica,sans-Serif" font-size="10.00" fill="#000000">zrtos_vheap_task_scheduler</text>
<text text-anchor="middle" x="947.5" y="-56.5" font-family="Helvetica,sans-Serif" font-size="10.00" fill="#000000">__delay_ms</text>
</a>
</g>
</g>
<!-- Node69&#45;&gt;Node70 -->
<g id="edge5" class="edge">
<title>Node69&#45;&gt;Node70</title>
<path fill="none" stroke="#191970" d="M851.0772,-51.0706C859.7021,-52.2719 868.4097,-53.4846 876.8789,-54.6642"/>
<polygon fill="#191970" stroke="#191970" points="851.3968,-47.5814 841.0095,-49.6685 850.4311,-54.5145 851.3968,-47.5814"/>
</g>
<!-- Node72 -->
<g id="node8" class="node">
<title>Node72</title>
<g id="a_node8"><a xlink:href="vheap__task__scheduler_8h.html#a3734a190668294fe1e91009e3cf6f72a" target="_top" xlink:title="zrtos_vheap_task_scheduler\l__trampoline_cb">
<polygon fill="#ffffff" stroke="#000000" points="877,-.5 877,-30.5 1018,-30.5 1018,-.5 877,-.5"/>
<text text-anchor="start" x="885" y="-18.5" font-family="Helvetica,sans-Serif" font-size="10.00" fill="#000000">zrtos_vheap_task_scheduler</text>
<text text-anchor="middle" x="947.5" y="-7.5" font-family="Helvetica,sans-Serif" font-size="10.00" fill="#000000">__trampoline_cb</text>
</a>
</g>
</g>
<!-- Node69&#45;&gt;Node72 -->
<g id="edge7" class="edge">
<title>Node69&#45;&gt;Node72</title>
<path fill="none" stroke="#191970" d="M851.0772,-28.3922C859.7021,-27.239 868.4097,-26.0747 876.8789,-24.9424"/>
<polygon fill="#191970" stroke="#191970" points="850.4574,-24.9438 841.0095,-29.7383 851.3852,-31.8821 850.4574,-24.9438"/>
</g>
<!-- Node71 -->
<g id="node7" class="node">
<title>Node71</title>
<g id="a_node7"><a xlink:href="vheap__task__pthread_8h.html#a28a15bba47cab57cbc9f5dac9af99c8b" target="_top" xlink:title="pthread_join">
<polygon fill="#ffffff" stroke="#000000" points="1054,-55 1054,-74 1123,-74 1123,-55 1054,-55"/>
<text text-anchor="middle" x="1088.5" y="-62" font-family="Helvetica,sans-Serif" font-size="10.00" fill="#000000">pthread_join</text>
</a>
</g>
</g>
<!-- Node70&#45;&gt;Node71 -->
<g id="edge6" class="edge">
<title>Node70&#45;&gt;Node71</title>
<path fill="none" stroke="#191970" d="M1028.5043,-64.5C1037.384,-64.5 1046.0363,-64.5 1053.8806,-64.5"/>
<polygon fill="#191970" stroke="#191970" points="1028.4131,-61.0001 1018.4131,-64.5 1028.413,-68.0001 1028.4131,-61.0001"/>
</g>
</g>
</svg>
