<?xml version="1.0" encoding="UTF-8" standalone="no"?>
<!DOCTYPE svg PUBLIC "-//W3C//DTD SVG 1.1//EN"
 "http://www.w3.org/Graphics/SVG/1.1/DTD/svg11.dtd">
<!-- Generated by graphviz version 10.0.1 (20240210.2158)
 -->
<!-- Title: zrtos_vheap_chunk__is_type_eq Pages: 1 -->
<svg width="272pt" height="90pt"
 viewBox="0.00 0.00 271.75 90.00" xmlns="http://www.w3.org/2000/svg" xmlns:xlink="http://www.w3.org/1999/xlink">
<g id="graph0" class="graph" transform="scale(1 1) rotate(0) translate(4 86)">
<title>zrtos_vheap_chunk__is_type_eq</title>
<!-- Node1 -->
<g id="Node000001" class="node">
<title>Node1</title>
<g id="a_Node000001"><a xlink:title=" ">
<polygon fill="#999999" stroke="#666666" points="104.5,-57 0,-57 0,-25 104.5,-25 104.5,-57"/>
<text text-anchor="start" x="8" y="-43.5" font-family="Helvetica,sans-Serif" font-size="10.00">zrtos_vheap_chunk_</text>
<text text-anchor="middle" x="52.25" y="-31.5" font-family="Helvetica,sans-Serif" font-size="10.00">_is_type_eq</text>
</a>
</g>
</g>
<!-- Node2 -->
<g id="Node000002" class="node">
<title>Node2</title>
<g id="a_Node000002"><a xlink:href="vheap__chunk_8h.html#a3978314ac8798dae3dcc70fd39f49ade" target="_top" xlink:title=" ">
<polygon fill="white" stroke="#666666" points="254.38,-82 149.88,-82 149.88,-50 254.38,-50 254.38,-82"/>
<text text-anchor="start" x="157.88" y="-68.5" font-family="Helvetica,sans-Serif" font-size="10.00">zrtos_vheap_chunk_</text>
<text text-anchor="middle" x="202.12" y="-56.5" font-family="Helvetica,sans-Serif" font-size="10.00">_get_type</text>
</a>
</g>
</g>
<!-- Node1&#45;&gt;Node2 -->
<g id="edge1_Node000001_Node000002" class="edge">
<title>Node1&#45;&gt;Node2</title>
<g id="a_edge1_Node000001_Node000002"><a xlink:title=" ">
<path fill="none" stroke="#63b8ff" d="M104.97,-49.74C115.84,-51.58 127.41,-53.54 138.63,-55.43"/>
<polygon fill="#63b8ff" stroke="#63b8ff" points="137.75,-58.84 148.19,-57.05 138.92,-51.93 137.75,-58.84"/>
</a>
</g>
</g>
<!-- Node3 -->
<g id="Node000003" class="node">
<title>Node3</title>
<g id="a_Node000003"><a xlink:href="vheap__chunk__type_8h.html#a258bcb11ffc79b5a7b55e1b46abe7717" target="_top" xlink:title=" ">
<polygon fill="white" stroke="#666666" points="263.75,-32 140.5,-32 140.5,0 263.75,0 263.75,-32"/>
<text text-anchor="start" x="148.5" y="-18.5" font-family="Helvetica,sans-Serif" font-size="10.00">zrtos_vheap_chunk_type</text>
<text text-anchor="middle" x="202.12" y="-6.5" font-family="Helvetica,sans-Serif" font-size="10.00">__is_eq</text>
</a>
</g>
</g>
<!-- Node1&#45;&gt;Node3 -->
<g id="edge2_Node000001_Node000003" class="edge">
<title>Node1&#45;&gt;Node3</title>
<g id="a_edge2_Node000001_Node000003"><a xlink:title=" ">
<path fill="none" stroke="#63b8ff" d="M104.97,-32.26C112.67,-30.95 120.72,-29.59 128.75,-28.24"/>
<polygon fill="#63b8ff" stroke="#63b8ff" points="129.28,-31.7 138.55,-26.58 128.11,-24.79 129.28,-31.7"/>
</a>
</g>
</g>
</g>
</svg>
