<?xml version="1.0" encoding="UTF-8" standalone="no"?>
<!DOCTYPE svg PUBLIC "-//W3C//DTD SVG 1.1//EN"
 "http://www.w3.org/Graphics/SVG/1.1/DTD/svg11.dtd">
<!-- Generated by graphviz version 2.40.1 (20161225.0304)
 -->
<!-- Title: vheap_chunk_uid.h Pages: 1 -->
<svg width="187pt" height="252pt"
 viewBox="0.00 0.00 186.50 252.00" xmlns="http://www.w3.org/2000/svg" xmlns:xlink="http://www.w3.org/1999/xlink">
<g id="graph0" class="graph" transform="scale(1 1) rotate(0) translate(4 248)">
<title>vheap_chunk_uid.h</title>
<polygon fill="#ffffff" stroke="transparent" points="-4,4 -4,-248 182.5,-248 182.5,4 -4,4"/>
<!-- Node1 -->
<g id="node1" class="node">
<title>Node1</title>
<polygon fill="#bfbfbf" stroke="#000000" points="26,-224.5 26,-243.5 127,-243.5 127,-224.5 26,-224.5"/>
<text text-anchor="middle" x="76.5" y="-231.5" font-family="Helvetica,sans-Serif" font-size="10.00" fill="#000000">vheap_chunk_uid.h</text>
</g>
<!-- Node2 -->
<g id="node2" class="node">
<title>Node2</title>
<g id="a_node2"><a xlink:href="vheap__chunk_8h.html" target="_top" xlink:title="vheap_chunk.h">
<polygon fill="#ffffff" stroke="#000000" points="0,-168.5 0,-187.5 83,-187.5 83,-168.5 0,-168.5"/>
<text text-anchor="middle" x="41.5" y="-175.5" font-family="Helvetica,sans-Serif" font-size="10.00" fill="#000000">vheap_chunk.h</text>
</a>
</g>
</g>
<!-- Node1&#45;&gt;Node2 -->
<g id="edge1" class="edge">
<title>Node1&#45;&gt;Node2</title>
<path fill="none" stroke="#191970" d="M65.0185,-215.6296C59.1804,-206.2887 52.3248,-195.3197 47.5267,-187.6427"/>
<polygon fill="#191970" stroke="#191970" points="62.1354,-217.6206 70.4035,-224.2455 68.0714,-213.9105 62.1354,-217.6206"/>
</g>
<!-- Node6 -->
<g id="node6" class="node">
<title>Node6</title>
<g id="a_node6"><a xlink:href="vheap__task_8h.html" target="_top" xlink:title="vheap_task.h">
<polygon fill="#ffffff" stroke="#000000" points="80,-112.5 80,-131.5 155,-131.5 155,-112.5 80,-112.5"/>
<text text-anchor="middle" x="117.5" y="-119.5" font-family="Helvetica,sans-Serif" font-size="10.00" fill="#000000">vheap_task.h</text>
</a>
</g>
</g>
<!-- Node1&#45;&gt;Node6 -->
<g id="edge6" class="edge">
<title>Node1&#45;&gt;Node6</title>
<path fill="none" stroke="#191970" d="M83.4827,-214.9253C92.3405,-190.7284 107.2728,-149.9376 114.0132,-131.5249"/>
<polygon fill="#191970" stroke="#191970" points="80.1466,-213.8572 79.9956,-224.4509 86.72,-216.2636 80.1466,-213.8572"/>
</g>
<!-- Node3 -->
<g id="node3" class="node">
<title>Node3</title>
<g id="a_node3"><a xlink:href="vheap_8h.html" target="_top" xlink:title="vheap.h">
<polygon fill="#ffffff" stroke="#000000" points="11,-112.5 11,-131.5 62,-131.5 62,-112.5 11,-112.5"/>
<text text-anchor="middle" x="36.5" y="-119.5" font-family="Helvetica,sans-Serif" font-size="10.00" fill="#000000">vheap.h</text>
</a>
</g>
</g>
<!-- Node2&#45;&gt;Node3 -->
<g id="edge2" class="edge">
<title>Node2&#45;&gt;Node3</title>
<path fill="none" stroke="#191970" d="M39.7283,-158.1575C38.9246,-149.155 38.0107,-138.9199 37.361,-131.6427"/>
<polygon fill="#191970" stroke="#191970" points="36.2535,-158.5965 40.6291,-168.2455 43.2258,-157.9739 36.2535,-158.5965"/>
</g>
<!-- Node4 -->
<g id="node4" class="node">
<title>Node4</title>
<g id="a_node4"><a xlink:href="vheap__task__pthread_8h.html" target="_top" xlink:title="vheap_task_pthread.h">
<polygon fill="#ffffff" stroke="#000000" points="16,-.5 16,-19.5 129,-19.5 129,-.5 16,-.5"/>
<text text-anchor="middle" x="72.5" y="-7.5" font-family="Helvetica,sans-Serif" font-size="10.00" fill="#000000">vheap_task_pthread.h</text>
</a>
</g>
</g>
<!-- Node3&#45;&gt;Node4 -->
<g id="edge3" class="edge">
<title>Node3&#45;&gt;Node4</title>
<path fill="none" stroke="#191970" d="M38.0474,-102.3753C39.5142,-89.0222 42.3018,-71.103 47.5,-56 52.0555,-42.7645 60.1771,-28.8066 65.9258,-19.785"/>
<polygon fill="#191970" stroke="#191970" points="34.5607,-102.0705 37.1019,-112.356 41.5295,-102.7307 34.5607,-102.0705"/>
</g>
<!-- Node5 -->
<g id="node5" class="node">
<title>Node5</title>
<g id="a_node5"><a xlink:href="vheap__task__scheduler_8h.html" target="_top" xlink:title="vheap_task_scheduler.h">
<polygon fill="#ffffff" stroke="#000000" points="56.5,-56.5 56.5,-75.5 178.5,-75.5 178.5,-56.5 56.5,-56.5"/>
<text text-anchor="middle" x="117.5" y="-63.5" font-family="Helvetica,sans-Serif" font-size="10.00" fill="#000000">vheap_task_scheduler.h</text>
</a>
</g>
</g>
<!-- Node3&#45;&gt;Node5 -->
<g id="edge4" class="edge">
<title>Node3&#45;&gt;Node5</title>
<path fill="none" stroke="#191970" d="M58.934,-106.49C73.2254,-96.6096 91.2916,-84.1194 103.5526,-75.6427"/>
<polygon fill="#191970" stroke="#191970" points="56.8443,-103.6797 50.6091,-112.2455 60.8251,-109.4376 56.8443,-103.6797"/>
</g>
<!-- Node5&#45;&gt;Node4 -->
<g id="edge5" class="edge">
<title>Node5&#45;&gt;Node4</title>
<path fill="none" stroke="#191970" d="M103.2054,-48.2112C95.6004,-38.7472 86.5462,-27.4797 80.2486,-19.6427"/>
<polygon fill="#191970" stroke="#191970" points="100.6694,-50.6428 109.6616,-56.2455 106.1259,-46.2581 100.6694,-50.6428"/>
</g>
<!-- Node6&#45;&gt;Node5 -->
<g id="edge7" class="edge">
<title>Node6&#45;&gt;Node5</title>
<path fill="none" stroke="#191970" d="M117.5,-102.1575C117.5,-93.155 117.5,-82.9199 117.5,-75.6427"/>
<polygon fill="#191970" stroke="#191970" points="114.0001,-102.2455 117.5,-112.2455 121.0001,-102.2456 114.0001,-102.2455"/>
</g>
</g>
</svg>
