<?xml version="1.0" encoding="UTF-8" standalone="no"?>
<!DOCTYPE svg PUBLIC "-//W3C//DTD SVG 1.1//EN"
 "http://www.w3.org/Graphics/SVG/1.1/DTD/svg11.dtd">
<!-- Generated by graphviz version 10.0.1 (20240210.2158)
 -->
<!-- Title: zrtos_vheap_task_scheduler__trampoline_cb Pages: 1 -->
<svg width="1672pt" height="949pt"
 viewBox="0.00 0.00 1671.75 948.69" xmlns="http://www.w3.org/2000/svg" xmlns:xlink="http://www.w3.org/1999/xlink">
<g id="graph0" class="graph" transform="scale(1 1) rotate(0) translate(4 944.69)">
<title>zrtos_vheap_task_scheduler__trampoline_cb</title>
<!-- Node1 -->
<g id="Node000001" class="node">
<title>Node1</title>
<g id="a_Node000001"><a xlink:title=" ">
<polygon fill="#999999" stroke="#666666" points="139,-208 0,-208 0,-176 139,-176 139,-208"/>
<text text-anchor="start" x="8" y="-194.5" font-family="Helvetica,sans-Serif" font-size="10.00">zrtos_vheap_task_scheduler</text>
<text text-anchor="middle" x="69.5" y="-182.5" font-family="Helvetica,sans-Serif" font-size="10.00">__trampoline_cb</text>
</a>
</g>
</g>
<!-- Node2 -->
<g id="Node000002" class="node">
<title>Node2</title>
<g id="a_Node000002"><a xlink:href="vheap__task__scheduler_8h.html#acd810187c2b0b8d63548170c9da4b73d" target="_top" xlink:title=" ">
<polygon fill="white" stroke="#666666" points="319.25,-483 175,-483 175,-451 319.25,-451 319.25,-483"/>
<text text-anchor="start" x="183" y="-469.5" font-family="Helvetica,sans-Serif" font-size="10.00">_zrtos_vheap_task_scheduler</text>
<text text-anchor="middle" x="247.12" y="-457.5" font-family="Helvetica,sans-Serif" font-size="10.00">__on_tick</text>
</a>
</g>
</g>
<!-- Node1&#45;&gt;Node2 -->
<g id="edge1_Node000001_Node000002" class="edge">
<title>Node1&#45;&gt;Node2</title>
<g id="a_edge1_Node000001_Node000002"><a xlink:title=" ">
<path fill="none" stroke="#63b8ff" d="M80.96,-208.38C110.37,-254.42 193.94,-385.29 229.64,-441.18"/>
<polygon fill="#63b8ff" stroke="#63b8ff" points="226.57,-442.89 234.9,-449.43 232.47,-439.12 226.57,-442.89"/>
</a>
</g>
</g>
<!-- Node7 -->
<g id="Node000007" class="node">
<title>Node7</title>
<g id="a_Node000007"><a xlink:href="vheap__task__scheduler_8h.html#ac02ff4499bb01c86b3610bc5b5d2ed0a" target="_top" xlink:title=" ">
<polygon fill="white" stroke="#666666" points="1210.75,-736 1071.75,-736 1071.75,-704 1210.75,-704 1210.75,-736"/>
<text text-anchor="start" x="1079.75" y="-722.5" font-family="Helvetica,sans-Serif" font-size="10.00">zrtos_vheap_task_scheduler</text>
<text text-anchor="middle" x="1141.25" y="-710.5" font-family="Helvetica,sans-Serif" font-size="10.00">__get_heap</text>
</a>
</g>
</g>
<!-- Node1&#45;&gt;Node7 -->
<g id="edge57_Node000001_Node000007" class="edge">
<title>Node1&#45;&gt;Node7</title>
<g id="a_edge57_Node000001_Node000007"><a xlink:title=" ">
<path fill="none" stroke="#63b8ff" d="M70.53,-208.19C71.67,-316.7 92.77,-934 426.38,-934 426.38,-934 426.38,-934 786.62,-934 898.37,-934 942.91,-962.19 1035.75,-900 1090.4,-863.39 1120.17,-787.84 1132.81,-747.23"/>
<polygon fill="#63b8ff" stroke="#63b8ff" points="1136.13,-748.33 1135.62,-737.75 1129.42,-746.34 1136.13,-748.33"/>
</a>
</g>
</g>
<!-- Node21 -->
<g id="Node000021" class="node">
<title>Node21</title>
<g id="a_Node000021"><a xlink:href="vheap__chunk_8h.html#a50f3da740523a69829e865dcaa7d77ad" target="_top" xlink:title=" ">
<polygon fill="white" stroke="#666666" points="1193.5,-246 1089,-246 1089,-214 1193.5,-214 1193.5,-246"/>
<text text-anchor="start" x="1097" y="-232.5" font-family="Helvetica,sans-Serif" font-size="10.00">zrtos_vheap_chunk_</text>
<text text-anchor="middle" x="1141.25" y="-220.5" font-family="Helvetica,sans-Serif" font-size="10.00">_set_type</text>
</a>
</g>
</g>
<!-- Node1&#45;&gt;Node21 -->
<g id="edge55_Node000001_Node000021" class="edge">
<title>Node1&#45;&gt;Node21</title>
<g id="a_edge55_Node000001_Node000021"><a xlink:title=" ">
<path fill="none" stroke="#63b8ff" d="M139.39,-192C211.08,-192 326.59,-192 426.38,-192 426.38,-192 426.38,-192 786.62,-192 897.67,-192 925.61,-196.83 1035.75,-211 1049.25,-212.74 1063.66,-215.05 1077.32,-217.47"/>
<polygon fill="#63b8ff" stroke="#63b8ff" points="1076.64,-220.9 1087.1,-219.24 1077.89,-214.01 1076.64,-220.9"/>
</a>
</g>
</g>
<!-- Node25 -->
<g id="Node000025" class="node">
<title>Node25</title>
<g id="a_Node000025"><a xlink:href="vheap_8h.html#a73b1530334cc53fe2b1ed9e811ad16b7" target="_top" xlink:title=" ">
<polygon fill="white" stroke="#666666" points="1017.38,-98 909.88,-98 909.88,-66 1017.38,-66 1017.38,-98"/>
<text text-anchor="start" x="917.88" y="-84.5" font-family="Helvetica,sans-Serif" font-size="10.00">zrtos_vheap__get_by</text>
<text text-anchor="middle" x="963.62" y="-72.5" font-family="Helvetica,sans-Serif" font-size="10.00">_type_ex</text>
</a>
</g>
</g>
<!-- Node1&#45;&gt;Node25 -->
<g id="edge54_Node000001_Node000025" class="edge">
<title>Node1&#45;&gt;Node25</title>
<g id="a_edge54_Node000001_Node000025"><a xlink:title=" ">
<path fill="none" stroke="#63b8ff" d="M139.49,-180.24C211.01,-169.08 326.18,-154 426.38,-154 426.38,-154 426.38,-154 608.62,-154 713.85,-154 833.2,-123.08 902.96,-101.76"/>
<polygon fill="#63b8ff" stroke="#63b8ff" points="903.76,-105.18 912.28,-98.88 901.69,-98.49 903.76,-105.18"/>
</a>
</g>
</g>
<!-- Node39 -->
<g id="Node000039" class="node">
<title>Node39</title>
<g id="a_Node000039"><a xlink:href="vheap__task_8h.html#a976bb4bf06a5f75f4fc514d5e30e3e9a" target="_top" xlink:title=" ">
<polygon fill="white" stroke="#666666" points="305,-126 189.25,-126 189.25,-94 305,-94 305,-126"/>
<text text-anchor="start" x="197.25" y="-112.5" font-family="Helvetica,sans-Serif" font-size="10.00">zrtos_vheap_task__set</text>
<text text-anchor="middle" x="247.12" y="-100.5" font-family="Helvetica,sans-Serif" font-size="10.00">_return_value</text>
</a>
</g>
</g>
<!-- Node1&#45;&gt;Node39 -->
<g id="edge56_Node000001_Node000039" class="edge">
<title>Node1&#45;&gt;Node39</title>
<g id="a_edge56_Node000001_Node000039"><a xlink:title=" ">
<path fill="none" stroke="#63b8ff" d="M102.27,-175.55C122.85,-165.05 150.32,-151.33 175,-140 181.71,-136.92 188.83,-133.77 195.86,-130.74"/>
<polygon fill="#63b8ff" stroke="#63b8ff" points="196.84,-134.12 204.67,-126.98 194.1,-127.69 196.84,-134.12"/>
</a>
</g>
</g>
<!-- Node3 -->
<g id="Node000003" class="node">
<title>Node3</title>
<g id="a_Node000003"><a xlink:href="vheap__task__scheduler_8h.html#a1a1be02692a671c368f4e2335179a042" target="_top" xlink:title=" ">
<polygon fill="white" stroke="#666666" points="499.5,-736 355.25,-736 355.25,-704 499.5,-704 499.5,-736"/>
<text text-anchor="start" x="363.25" y="-722.5" font-family="Helvetica,sans-Serif" font-size="10.00">_zrtos_vheap_task_scheduler</text>
<text text-anchor="middle" x="427.38" y="-710.5" font-family="Helvetica,sans-Serif" font-size="10.00">__switch_task</text>
</a>
</g>
</g>
<!-- Node2&#45;&gt;Node3 -->
<g id="edge2_Node000002_Node000003" class="edge">
<title>Node2&#45;&gt;Node3</title>
<g id="a_edge2_Node000002_Node000003"><a xlink:title=" ">
<path fill="none" stroke="#63b8ff" d="M259.55,-483.21C289.72,-526.04 371.75,-642.46 408.34,-694.4"/>
<polygon fill="#63b8ff" stroke="#63b8ff" points="405.33,-696.2 413.95,-702.36 411.05,-692.17 405.33,-696.2"/>
</a>
</g>
</g>
<!-- Node4 -->
<g id="Node000004" class="node">
<title>Node4</title>
<g id="a_Node000004"><a xlink:href="vheap__task__scheduler_8h.html#a393742fc3d9f5e784e97f4915c6b557d" target="_top" xlink:title=" ">
<polygon fill="white" stroke="#666666" points="679.75,-802 535.5,-802 535.5,-770 679.75,-770 679.75,-802"/>
<text text-anchor="start" x="543.5" y="-788.5" font-family="Helvetica,sans-Serif" font-size="10.00">_zrtos_vheap_task_scheduler</text>
<text text-anchor="middle" x="607.62" y="-776.5" font-family="Helvetica,sans-Serif" font-size="10.00">__restore_task</text>
</a>
</g>
</g>
<!-- Node3&#45;&gt;Node4 -->
<g id="edge3_Node000003_Node000004" class="edge">
<title>Node3&#45;&gt;Node4</title>
<g id="a_edge3_Node000003_Node000004"><a xlink:title=" ">
<path fill="none" stroke="#63b8ff" d="M472.9,-736.48C496.81,-745.34 526.49,-756.33 551.81,-765.7"/>
<polygon fill="#63b8ff" stroke="#63b8ff" points="550.35,-768.9 560.94,-769.09 552.78,-762.33 550.35,-768.9"/>
</a>
</g>
</g>
<!-- Node5 -->
<g id="Node000005" class="node">
<title>Node5</title>
<g id="a_Node000005"><a xlink:href="vheap__task__scheduler_8h.html#af69e917ca8bd27891eb335dda8289faf" target="_top" xlink:title=" ">
<polygon fill="white" stroke="#666666" points="679.75,-714 535.5,-714 535.5,-682 679.75,-682 679.75,-714"/>
<text text-anchor="start" x="543.5" y="-700.5" font-family="Helvetica,sans-Serif" font-size="10.00">_zrtos_vheap_task_scheduler</text>
<text text-anchor="middle" x="607.62" y="-688.5" font-family="Helvetica,sans-Serif" font-size="10.00">__set_active_task</text>
</a>
</g>
</g>
<!-- Node3&#45;&gt;Node5 -->
<g id="edge4_Node000003_Node000005" class="edge">
<title>Node3&#45;&gt;Node5</title>
<g id="a_edge4_Node000003_Node000005"><a xlink:title=" ">
<path fill="none" stroke="#63b8ff" d="M499.85,-711.18C507.75,-710.2 515.84,-709.2 523.86,-708.21"/>
<polygon fill="#63b8ff" stroke="#63b8ff" points="524.14,-711.71 533.63,-707.01 523.28,-704.76 524.14,-711.71"/>
</a>
</g>
</g>
<!-- Node3&#45;&gt;Node7 -->
<g id="edge46_Node000003_Node000007" class="edge">
<title>Node3&#45;&gt;Node7</title>
<g id="a_edge46_Node000003_Node000007"><a xlink:title=" ">
<path fill="none" stroke="#63b8ff" d="M499.82,-722.2C511.74,-722.51 523.97,-722.79 535.5,-723 757.8,-727.05 813.5,-732.38 1035.75,-726 1043.59,-725.78 1051.76,-725.46 1059.92,-725.08"/>
<polygon fill="#63b8ff" stroke="#63b8ff" points="1060.09,-728.58 1069.9,-724.59 1059.74,-721.58 1060.09,-728.58"/>
</a>
</g>
</g>
<!-- Node32 -->
<g id="Node000032" class="node">
<title>Node32</title>
<g id="a_Node000032"><a xlink:href="vheap__chunk_8h.html#a9e677451890886104ec8623e0c5757af" target="_top" xlink:title=" ">
<polygon fill="white" stroke="#666666" points="659.88,-664 555.38,-664 555.38,-632 659.88,-632 659.88,-664"/>
<text text-anchor="start" x="563.38" y="-650.5" font-family="Helvetica,sans-Serif" font-size="10.00">zrtos_vheap_chunk_</text>
<text text-anchor="middle" x="607.62" y="-638.5" font-family="Helvetica,sans-Serif" font-size="10.00">_get_uid</text>
</a>
</g>
</g>
<!-- Node3&#45;&gt;Node32 -->
<g id="edge43_Node000003_Node000032" class="edge">
<title>Node3&#45;&gt;Node32</title>
<g id="a_edge43_Node000003_Node000032"><a xlink:title=" ">
<path fill="none" stroke="#63b8ff" d="M463.8,-703.65C484.54,-694.29 511.32,-682.54 535.5,-673 539.38,-671.47 543.4,-669.93 547.46,-668.41"/>
<polygon fill="#63b8ff" stroke="#63b8ff" points="548.63,-671.71 556.82,-664.98 546.22,-665.14 548.63,-671.71"/>
</a>
</g>
</g>
<!-- Node33 -->
<g id="Node000033" class="node">
<title>Node33</title>
<g id="a_Node000033"><a xlink:href="vheap__task_8h.html#abecb6e03f5c4faa424a02f82e707066a" target="_top" xlink:title=" ">
<polygon fill="white" stroke="#666666" points="672.62,-614 542.62,-614 542.62,-594 672.62,-594 672.62,-614"/>
<text text-anchor="middle" x="607.62" y="-600.5" font-family="Helvetica,sans-Serif" font-size="10.00">zrtos_vheap_task__is_idle</text>
</a>
</g>
</g>
<!-- Node3&#45;&gt;Node33 -->
<g id="edge44_Node000003_Node000033" class="edge">
<title>Node3&#45;&gt;Node33</title>
<g id="a_edge44_Node000003_Node000033"><a xlink:title=" ">
<path fill="none" stroke="#63b8ff" d="M441.86,-703.69C460.63,-682.04 496.72,-644.11 535.5,-623 538.55,-621.34 541.74,-619.82 545.03,-618.43"/>
<polygon fill="#63b8ff" stroke="#63b8ff" points="546.19,-621.73 554.32,-614.94 543.72,-615.18 546.19,-621.73"/>
</a>
</g>
</g>
<!-- Node34 -->
<g id="Node000034" class="node">
<title>Node34</title>
<g id="a_Node000034"><a xlink:href="vheap__task_8h.html#a0ea9061da5e4ce4f8fd62f431a83242e" target="_top" xlink:title=" ">
<polygon fill="white" stroke="#666666" points="674.5,-840 540.75,-840 540.75,-820 674.5,-820 674.5,-840"/>
<text text-anchor="middle" x="607.62" y="-826.5" font-family="Helvetica,sans-Serif" font-size="10.00">zrtos_vheap_task__on_tick</text>
</a>
</g>
</g>
<!-- Node3&#45;&gt;Node34 -->
<g id="edge45_Node000003_Node000034" class="edge">
<title>Node3&#45;&gt;Node34</title>
<g id="a_edge45_Node000003_Node000034"><a xlink:title=" ">
<path fill="none" stroke="#63b8ff" d="M443.06,-736.32C462.33,-756.74 498.11,-791.41 535.5,-811 538.73,-812.69 542.12,-814.24 545.59,-815.66"/>
<polygon fill="#63b8ff" stroke="#63b8ff" points="544.19,-818.87 554.78,-819.02 546.59,-812.3 544.19,-818.87"/>
</a>
</g>
</g>
<!-- Node35 -->
<g id="Node000035" class="node">
<title>Node35</title>
<g id="a_Node000035"><a xlink:href="vheap__task__scheduler_8h.html#a99d7655ba93c186077c9de6a6f310c43" target="_top" xlink:title=" ">
<polygon fill="white" stroke="#666666" points="855.5,-868 715.75,-868 715.75,-836 855.5,-836 855.5,-868"/>
<text text-anchor="start" x="723.75" y="-854.5" font-family="Helvetica,sans-Serif" font-size="10.00">zrtos_vheap_task_scheduler</text>
<text text-anchor="middle" x="785.62" y="-842.5" font-family="Helvetica,sans-Serif" font-size="10.00">__has_enough_stack_space</text>
</a>
</g>
</g>
<!-- Node3&#45;&gt;Node35 -->
<g id="edge47_Node000003_Node000035" class="edge">
<title>Node3&#45;&gt;Node35</title>
<g id="a_edge47_Node000003_Node000035"><a xlink:title=" ">
<path fill="none" stroke="#63b8ff" d="M435.88,-736.1C450.38,-765.04 485.31,-825.07 535.5,-849 587.68,-873.88 653.27,-873.6 704.05,-867.65"/>
<polygon fill="#63b8ff" stroke="#63b8ff" points="704.33,-871.14 713.81,-866.4 703.44,-864.2 704.33,-871.14"/>
</a>
</g>
</g>
<!-- Node6 -->
<g id="Node000006" class="node">
<title>Node6</title>
<g id="a_Node000006"><a xlink:href="vheap_8h.html#abe149f8bc1f24a77d03fb3e5e92a3886" target="_top" xlink:title=" ">
<polygon fill="white" stroke="#666666" points="845.75,-604 725.5,-604 725.5,-584 845.75,-584 845.75,-604"/>
<text text-anchor="middle" x="785.62" y="-590.5" font-family="Helvetica,sans-Serif" font-size="10.00">zrtos_vheap__get_by_id</text>
</a>
</g>
</g>
<!-- Node5&#45;&gt;Node6 -->
<g id="edge5_Node000005_Node000006" class="edge">
<title>Node5&#45;&gt;Node6</title>
<g id="a_edge5_Node000005_Node000006"><a xlink:title=" ">
<path fill="none" stroke="#63b8ff" d="M666.77,-681.52C671.39,-679.05 675.79,-676.23 679.75,-673 703.85,-653.34 690.99,-631.81 715.75,-613 717.31,-611.81 718.94,-610.7 720.63,-609.66"/>
<polygon fill="#63b8ff" stroke="#63b8ff" points="722.17,-612.8 729.45,-605.11 718.96,-606.58 722.17,-612.8"/>
</a>
</g>
</g>
<!-- Node5&#45;&gt;Node7 -->
<g id="edge6_Node000005_Node000007" class="edge">
<title>Node5&#45;&gt;Node7</title>
<g id="a_edge6_Node000005_Node000007"><a xlink:title=" ">
<path fill="none" stroke="#63b8ff" d="M680.05,-700.96C778.85,-705.04 956.72,-712.4 1060,-716.68"/>
<polygon fill="#63b8ff" stroke="#63b8ff" points="1059.64,-720.17 1069.78,-717.08 1059.93,-713.17 1059.64,-720.17"/>
</a>
</g>
</g>
<!-- Node8 -->
<g id="Node000008" class="node">
<title>Node8</title>
<g id="a_Node000008"><a xlink:href="vheap__task__scheduler_8h.html#ac3ceec0a4016b00c1670ddce858c6bac" target="_top" xlink:title=" ">
<polygon fill="white" stroke="#666666" points="855.12,-654 716.12,-654 716.12,-622 855.12,-622 855.12,-654"/>
<text text-anchor="start" x="724.12" y="-640.5" font-family="Helvetica,sans-Serif" font-size="10.00">zrtos_vheap_task_scheduler</text>
<text text-anchor="middle" x="785.62" y="-628.5" font-family="Helvetica,sans-Serif" font-size="10.00">__page_task_in</text>
</a>
</g>
</g>
<!-- Node5&#45;&gt;Node8 -->
<g id="edge7_Node000005_Node000008" class="edge">
<title>Node5&#45;&gt;Node8</title>
<g id="a_edge7_Node000005_Node000008"><a xlink:title=" ">
<path fill="none" stroke="#63b8ff" d="M656.72,-681.6C677.97,-674.36 703.17,-665.77 725.55,-658.14"/>
<polygon fill="#63b8ff" stroke="#63b8ff" points="726.52,-661.51 734.85,-654.97 724.26,-654.88 726.52,-661.51"/>
</a>
</g>
</g>
<!-- Node24 -->
<g id="Node000024" class="node">
<title>Node24</title>
<g id="a_Node000024"><a xlink:href="vheap__task__scheduler_8h.html#aff9fd65d1ee753d63d6749a7d18ccb05" target="_top" xlink:title=" ">
<polygon fill="white" stroke="#666666" points="855.12,-340 716.12,-340 716.12,-308 855.12,-308 855.12,-340"/>
<text text-anchor="start" x="724.12" y="-326.5" font-family="Helvetica,sans-Serif" font-size="10.00">zrtos_vheap_task_scheduler</text>
<text text-anchor="middle" x="785.62" y="-314.5" font-family="Helvetica,sans-Serif" font-size="10.00">__page_task_out</text>
</a>
</g>
</g>
<!-- Node5&#45;&gt;Node24 -->
<g id="edge27_Node000005_Node000024" class="edge">
<title>Node5&#45;&gt;Node24</title>
<g id="a_edge27_Node000005_Node000024"><a xlink:title=" ">
<path fill="none" stroke="#63b8ff" d="M669.05,-681.68C672.96,-679.19 676.59,-676.31 679.75,-673 691.28,-660.92 755.14,-431.32 777.16,-351.26"/>
<polygon fill="#63b8ff" stroke="#63b8ff" points="780.53,-352.19 779.81,-341.62 773.78,-350.34 780.53,-352.19"/>
</a>
</g>
</g>
<!-- Node8&#45;&gt;Node7 -->
<g id="edge26_Node000008_Node000007" class="edge">
<title>Node8&#45;&gt;Node7</title>
<g id="a_edge26_Node000008_Node000007"><a xlink:title=" ">
<path fill="none" stroke="#63b8ff" d="M855.43,-654.49C867.45,-657.35 879.84,-660.27 891.5,-663 947.83,-676.17 1011.42,-690.73 1060.2,-701.84"/>
<polygon fill="#63b8ff" stroke="#63b8ff" points="1059.31,-705.23 1069.84,-704.04 1060.87,-698.41 1059.31,-705.23"/>
</a>
</g>
</g>
<!-- Node9 -->
<g id="Node000009" class="node">
<title>Node9</title>
<g id="a_Node000009"><a xlink:href="vheap__task__scheduler_8h.html#a525247f445d250b1eb2aff8eadaa0c87" target="_top" xlink:title=" ">
<polygon fill="white" stroke="#666666" points="1035.75,-516 891.5,-516 891.5,-484 1035.75,-484 1035.75,-516"/>
<text text-anchor="start" x="899.5" y="-502.5" font-family="Helvetica,sans-Serif" font-size="10.00">_zrtos_vheap_task_scheduler</text>
<text text-anchor="middle" x="963.62" y="-490.5" font-family="Helvetica,sans-Serif" font-size="10.00">__get_active_task</text>
</a>
</g>
</g>
<!-- Node8&#45;&gt;Node9 -->
<g id="edge8_Node000008_Node000009" class="edge">
<title>Node8&#45;&gt;Node9</title>
<g id="a_edge8_Node000008_Node000009"><a xlink:title=" ">
<path fill="none" stroke="#63b8ff" d="M841.61,-621.55C846.52,-619.06 851.24,-616.22 855.5,-613 877.34,-596.48 873.14,-583.31 891.5,-563 904.17,-548.98 919.75,-534.89 933.09,-523.6"/>
<polygon fill="#63b8ff" stroke="#63b8ff" points="935.29,-526.32 940.74,-517.24 930.81,-520.94 935.29,-526.32"/>
</a>
</g>
</g>
<!-- Node13 -->
<g id="Node000013" class="node">
<title>Node13</title>
<g id="a_Node000013"><a xlink:href="vheap_8h.html#ad63813b8a0f34f7eef0cf65af8eb8289" target="_top" xlink:title=" ">
<polygon fill="white" stroke="#666666" points="1019.62,-378 907.62,-378 907.62,-358 1019.62,-358 1019.62,-378"/>
<text text-anchor="middle" x="963.62" y="-364.5" font-family="Helvetica,sans-Serif" font-size="10.00">zrtos_vheap__page_in</text>
</a>
</g>
</g>
<!-- Node8&#45;&gt;Node13 -->
<g id="edge13_Node000008_Node000013" class="edge">
<title>Node8&#45;&gt;Node13</title>
<g id="a_edge13_Node000008_Node000013"><a xlink:title=" ">
<path fill="none" stroke="#63b8ff" d="M845.85,-621.63C849.42,-619.15 852.69,-616.29 855.5,-613 910.69,-548.26 847.6,-497.87 891.5,-425 901.68,-408.1 918.82,-394.14 933.72,-384.27"/>
<polygon fill="#63b8ff" stroke="#63b8ff" points="935.2,-387.47 941.81,-379.18 931.48,-381.54 935.2,-387.47"/>
</a>
</g>
</g>
<!-- Node22 -->
<g id="Node000022" class="node">
<title>Node22</title>
<g id="a_Node000022"><a xlink:href="vheap__task_8h.html#a9a6382869bc3582f4c52e85d4915fea5" target="_top" xlink:title=" ">
<polygon fill="white" stroke="#666666" points="1021.5,-654 905.75,-654 905.75,-622 1021.5,-622 1021.5,-654"/>
<text text-anchor="start" x="913.75" y="-640.5" font-family="Helvetica,sans-Serif" font-size="10.00">zrtos_vheap_task__get</text>
<text text-anchor="middle" x="963.62" y="-628.5" font-family="Helvetica,sans-Serif" font-size="10.00">_errno</text>
</a>
</g>
</g>
<!-- Node8&#45;&gt;Node22 -->
<g id="edge24_Node000008_Node000022" class="edge">
<title>Node8&#45;&gt;Node22</title>
<g id="a_edge24_Node000008_Node000022"><a xlink:title=" ">
<path fill="none" stroke="#63b8ff" d="M855.43,-638C868.05,-638 881.23,-638 893.85,-638"/>
<polygon fill="#63b8ff" stroke="#63b8ff" points="893.74,-641.5 903.74,-638 893.74,-634.5 893.74,-641.5"/>
</a>
</g>
</g>
<!-- Node23 -->
<g id="Node000023" class="node">
<title>Node23</title>
<g id="a_Node000023"><a xlink:href="vheap__task_8h.html#ab0321ff67d7684a511cd63a794c9b651" target="_top" xlink:title=" ">
<polygon fill="white" stroke="#666666" points="1021.5,-604 905.75,-604 905.75,-572 1021.5,-572 1021.5,-604"/>
<text text-anchor="start" x="913.75" y="-590.5" font-family="Helvetica,sans-Serif" font-size="10.00">zrtos_vheap_task__get</text>
<text text-anchor="middle" x="963.62" y="-578.5" font-family="Helvetica,sans-Serif" font-size="10.00">_stack_ptr</text>
</a>
</g>
</g>
<!-- Node8&#45;&gt;Node23 -->
<g id="edge25_Node000008_Node000023" class="edge">
<title>Node8&#45;&gt;Node23</title>
<g id="a_edge25_Node000008_Node000023"><a xlink:title=" ">
<path fill="none" stroke="#63b8ff" d="M844.25,-621.63C860.37,-617.05 878.04,-612.03 894.7,-607.3"/>
<polygon fill="#63b8ff" stroke="#63b8ff" points="895.35,-610.75 904.01,-604.65 893.44,-604.02 895.35,-610.75"/>
</a>
</g>
</g>
<!-- Node9&#45;&gt;Node7 -->
<g id="edge12_Node000009_Node000007" class="edge">
<title>Node9&#45;&gt;Node7</title>
<g id="a_edge12_Node000009_Node000007"><a xlink:title=" ">
<path fill="none" stroke="#63b8ff" d="M1015.36,-516.36C1022.7,-520.11 1029.78,-524.62 1035.75,-530 1086.53,-575.77 1117.84,-652.2 1131.76,-692.77"/>
<polygon fill="#63b8ff" stroke="#63b8ff" points="1128.43,-693.84 1134.9,-702.23 1135.08,-691.64 1128.43,-693.84"/>
</a>
</g>
</g>
<!-- Node10 -->
<g id="Node000010" class="node">
<title>Node10</title>
<g id="a_Node000010"><a xlink:href="types_8h.html#a1824c547b5262eed148a0bfac2912537" target="_top" xlink:title=" ">
<polygon fill="white" stroke="#666666" points="1205.88,-522 1076.62,-522 1076.62,-502 1205.88,-502 1205.88,-522"/>
<text text-anchor="middle" x="1141.25" y="-508.5" font-family="Helvetica,sans-Serif" font-size="10.00">zrtos_types__ptr_subtract</text>
</a>
</g>
</g>
<!-- Node9&#45;&gt;Node10 -->
<g id="edge9_Node000009_Node000010" class="edge">
<title>Node9&#45;&gt;Node10</title>
<g id="a_edge9_Node000009_Node000010"><a xlink:title=" ">
<path fill="none" stroke="#63b8ff" d="M1036.06,-504.88C1045.51,-505.53 1055.23,-506.19 1064.74,-506.84"/>
<polygon fill="#63b8ff" stroke="#63b8ff" points="1064.5,-510.33 1074.71,-507.52 1064.98,-503.35 1064.5,-510.33"/>
</a>
</g>
</g>
<!-- Node11 -->
<g id="Node000011" class="node">
<title>Node11</title>
<g id="a_Node000011"><a xlink:href="vheap_8h.html#a9cff4e6aefa63154b78bcb1a5f442d72" target="_top" xlink:title=" ">
<polygon fill="white" stroke="#666666" points="1197.62,-484 1084.88,-484 1084.88,-452 1197.62,-452 1197.62,-484"/>
<text text-anchor="start" x="1092.88" y="-470.5" font-family="Helvetica,sans-Serif" font-size="10.00">zrtos_vheap__get_last</text>
<text text-anchor="middle" x="1141.25" y="-458.5" font-family="Helvetica,sans-Serif" font-size="10.00">_address</text>
</a>
</g>
</g>
<!-- Node9&#45;&gt;Node11 -->
<g id="edge10_Node000009_Node000011" class="edge">
<title>Node9&#45;&gt;Node11</title>
<g id="a_edge10_Node000009_Node000011"><a xlink:title=" ">
<path fill="none" stroke="#63b8ff" d="M1036.06,-486.98C1048.42,-484.73 1061.23,-482.4 1073.46,-480.17"/>
<polygon fill="#63b8ff" stroke="#63b8ff" points="1073.8,-483.67 1083.01,-478.43 1072.55,-476.78 1073.8,-483.67"/>
</a>
</g>
</g>
<!-- Node12 -->
<g id="Node000012" class="node">
<title>Node12</title>
<g id="a_Node000012"><a xlink:href="types_8h.html#ab0b4ddf54b9e9f4a54504f833babbc1c" target="_top" xlink:title=" ">
<polygon fill="white" stroke="#666666" points="1663.75,-290 1554,-290 1554,-270 1663.75,-270 1663.75,-290"/>
<text text-anchor="middle" x="1608.88" y="-276.5" font-family="Helvetica,sans-Serif" font-size="10.00">zrtos_types__ptr_add</text>
</a>
</g>
</g>
<!-- Node11&#45;&gt;Node12 -->
<g id="edge11_Node000011_Node000012" class="edge">
<title>Node11&#45;&gt;Node12</title>
<g id="a_edge11_Node000011_Node000012"><a xlink:title=" ">
<path fill="none" stroke="#63b8ff" d="M1197.99,-467.31C1275.21,-463.99 1416.66,-449.2 1518,-388 1554.02,-366.25 1582.3,-324.79 1596.92,-300.04"/>
<polygon fill="#63b8ff" stroke="#63b8ff" points="1599.83,-302.01 1601.74,-291.59 1593.75,-298.54 1599.83,-302.01"/>
</a>
</g>
</g>
<!-- Node13&#45;&gt;Node12 -->
<g id="edge21_Node000013_Node000012" class="edge">
<title>Node13&#45;&gt;Node12</title>
<g id="a_edge21_Node000013_Node000012"><a xlink:title=" ">
<path fill="none" stroke="#63b8ff" d="M1019.97,-370.93C1098.22,-374 1245.38,-375.87 1368.5,-355 1442.68,-342.43 1525.75,-312.67 1571.93,-294.65"/>
<polygon fill="#63b8ff" stroke="#63b8ff" points="1573.15,-297.93 1581.17,-291 1570.58,-291.41 1573.15,-297.93"/>
</a>
</g>
</g>
<!-- Node14 -->
<g id="Node000014" class="node">
<title>Node14</title>
<g id="a_Node000014"><a xlink:href="vheap_8h.html#a807e6713ecdd9d455cb0d90d68a1b4ad" target="_top" xlink:title=" ">
<polygon fill="white" stroke="#666666" points="1194.25,-346 1088.25,-346 1088.25,-314 1194.25,-314 1194.25,-346"/>
<text text-anchor="start" x="1096.25" y="-332.5" font-family="Helvetica,sans-Serif" font-size="10.00">_zrtos_vheap__swap</text>
<text text-anchor="middle" x="1141.25" y="-320.5" font-family="Helvetica,sans-Serif" font-size="10.00">_to_heap_end</text>
</a>
</g>
</g>
<!-- Node13&#45;&gt;Node14 -->
<g id="edge14_Node000013_Node000014" class="edge">
<title>Node13&#45;&gt;Node14</title>
<g id="a_edge14_Node000013_Node000014"><a xlink:title=" ">
<path fill="none" stroke="#63b8ff" d="M1013.08,-357.52C1032.79,-353.25 1055.83,-348.27 1076.85,-343.72"/>
<polygon fill="#63b8ff" stroke="#63b8ff" points="1077.44,-347.17 1086.47,-341.64 1075.96,-340.33 1077.44,-347.17"/>
</a>
</g>
</g>
<!-- Node19 -->
<g id="Node000019" class="node">
<title>Node19</title>
<g id="a_Node000019"><a xlink:href="vheap_8h.html#a53d9ca47afe3a2f353e12566c3c82a1d" target="_top" xlink:title=" ">
<polygon fill="white" stroke="#666666" points="1197.62,-434 1084.88,-434 1084.88,-402 1197.62,-402 1197.62,-434"/>
<text text-anchor="start" x="1092.88" y="-420.5" font-family="Helvetica,sans-Serif" font-size="10.00">_zrtos_vheap__update</text>
<text text-anchor="middle" x="1141.25" y="-408.5" font-family="Helvetica,sans-Serif" font-size="10.00">_index_ptr</text>
</a>
</g>
</g>
<!-- Node13&#45;&gt;Node19 -->
<g id="edge20_Node000013_Node000019" class="edge">
<title>Node13&#45;&gt;Node19</title>
<g id="a_edge20_Node000013_Node000019"><a xlink:title=" ">
<path fill="none" stroke="#63b8ff" d="M1001.44,-378.48C1022.29,-384.42 1049,-392.02 1073.42,-398.97"/>
<polygon fill="#63b8ff" stroke="#63b8ff" points="1072.41,-402.33 1082.99,-401.7 1074.33,-395.59 1072.41,-402.33"/>
</a>
</g>
</g>
<!-- Node20 -->
<g id="Node000020" class="node">
<title>Node20</title>
<g id="a_Node000020"><a xlink:href="types_8h.html#adbc4238237e656eb247fd49ffbfb1a6d" target="_top" xlink:title=" ">
<polygon fill="white" stroke="#666666" points="1195,-296 1087.5,-296 1087.5,-264 1195,-264 1195,-296"/>
<text text-anchor="start" x="1095.5" y="-282.5" font-family="Helvetica,sans-Serif" font-size="10.00">zrtos_types__ptr_get</text>
<text text-anchor="middle" x="1141.25" y="-270.5" font-family="Helvetica,sans-Serif" font-size="10.00">_byte_distance</text>
</a>
</g>
</g>
<!-- Node13&#45;&gt;Node20 -->
<g id="edge22_Node000013_Node000020" class="edge">
<title>Node13&#45;&gt;Node20</title>
<g id="a_edge22_Node000013_Node000020"><a xlink:title=" ">
<path fill="none" stroke="#63b8ff" d="M1018.24,-357.62C1024.4,-355.3 1030.38,-352.46 1035.75,-349 1056.98,-335.3 1051.15,-319.63 1071.75,-305 1073.53,-303.74 1075.38,-302.53 1077.29,-301.38"/>
<polygon fill="#63b8ff" stroke="#63b8ff" points="1078.69,-304.59 1085.84,-296.78 1075.38,-298.43 1078.69,-304.59"/>
</a>
</g>
</g>
<!-- Node13&#45;&gt;Node21 -->
<g id="edge23_Node000013_Node000021" class="edge">
<title>Node13&#45;&gt;Node21</title>
<g id="a_edge23_Node000013_Node000021"><a xlink:title=" ">
<path fill="none" stroke="#63b8ff" d="M1019.8,-359.04C1025.62,-356.47 1031.1,-353.19 1035.75,-349 1069,-319.07 1039.87,-286.38 1071.75,-255 1073.96,-252.83 1076.37,-250.84 1078.93,-249.03"/>
<polygon fill="#63b8ff" stroke="#63b8ff" points="1080.62,-252.09 1087.41,-243.95 1077.03,-246.08 1080.62,-252.09"/>
</a>
</g>
</g>
<!-- Node15 -->
<g id="Node000015" class="node">
<title>Node15</title>
<g id="a_Node000015"><a xlink:href="mem_8h.html#a2e3d82e56bdea756a305d5ced180ca57" target="_top" xlink:title=" ">
<polygon fill="white" stroke="#666666" points="1366.62,-158 1248.62,-158 1248.62,-138 1366.62,-138 1366.62,-158"/>
<text text-anchor="middle" x="1307.62" y="-144.5" font-family="Helvetica,sans-Serif" font-size="10.00">zrtos_mem__left_rotate</text>
</a>
</g>
</g>
<!-- Node14&#45;&gt;Node15 -->
<g id="edge15_Node000014_Node000015" class="edge">
<title>Node14&#45;&gt;Node15</title>
<g id="a_edge15_Node000014_Node000015"><a xlink:title=" ">
<path fill="none" stroke="#63b8ff" d="M1194.42,-315.28C1200.26,-312.41 1205.85,-309.01 1210.75,-305 1256.5,-267.53 1286.23,-202.12 1299.17,-168.8"/>
<polygon fill="#63b8ff" stroke="#63b8ff" points="1302.29,-170.46 1302.52,-159.87 1295.74,-168 1302.29,-170.46"/>
</a>
</g>
</g>
<!-- Node18 -->
<g id="Node000018" class="node">
<title>Node18</title>
<g id="a_Node000018"><a xlink:href="mem_8h.html#a1590269d1001c17c2c99725ef85f6386" target="_top" xlink:title=" ">
<polygon fill="white" stroke="#666666" points="1368.5,-346 1246.75,-346 1246.75,-314 1368.5,-314 1368.5,-346"/>
<text text-anchor="start" x="1254.75" y="-332.5" font-family="Helvetica,sans-Serif" font-size="10.00">zrtos_mem__move_right</text>
<text text-anchor="middle" x="1307.62" y="-320.5" font-family="Helvetica,sans-Serif" font-size="10.00">_overlapping</text>
</a>
</g>
</g>
<!-- Node14&#45;&gt;Node18 -->
<g id="edge19_Node000014_Node000018" class="edge">
<title>Node14&#45;&gt;Node18</title>
<g id="a_edge19_Node000014_Node000018"><a xlink:title=" ">
<path fill="none" stroke="#63b8ff" d="M1194.71,-330C1207.56,-330 1221.52,-330 1235.09,-330"/>
<polygon fill="#63b8ff" stroke="#63b8ff" points="1234.85,-333.5 1244.85,-330 1234.85,-326.5 1234.85,-333.5"/>
</a>
</g>
</g>
<!-- Node16 -->
<g id="Node000016" class="node">
<title>Node16</title>
<g id="a_Node000016"><a xlink:href="mem_8h.html#a76a7df82d207aef7d339f7ff95cce550" target="_top" xlink:title=" ">
<polygon fill="white" stroke="#666666" points="1518,-158 1404.5,-158 1404.5,-138 1518,-138 1518,-158"/>
<text text-anchor="middle" x="1461.25" y="-144.5" font-family="Helvetica,sans-Serif" font-size="10.00">zrtos_mem__swap_ex</text>
</a>
</g>
</g>
<!-- Node15&#45;&gt;Node16 -->
<g id="edge16_Node000015_Node000016" class="edge">
<title>Node15&#45;&gt;Node16</title>
<g id="a_edge16_Node000015_Node000016"><a xlink:title=" ">
<path fill="none" stroke="#63b8ff" d="M1366.81,-148C1375.41,-148 1384.32,-148 1393.08,-148"/>
<polygon fill="#63b8ff" stroke="#63b8ff" points="1392.95,-151.5 1402.95,-148 1392.95,-144.5 1392.95,-151.5"/>
</a>
</g>
</g>
<!-- Node16&#45;&gt;Node12 -->
<g id="edge18_Node000016_Node000012" class="edge">
<title>Node16&#45;&gt;Node12</title>
<g id="a_edge18_Node000016_Node000012"><a xlink:title=" ">
<path fill="none" stroke="#63b8ff" d="M1493.46,-158.39C1501.86,-161.98 1510.66,-166.51 1518,-172 1551.22,-196.81 1579.94,-236.29 1595.5,-260.01"/>
<polygon fill="#63b8ff" stroke="#63b8ff" points="1592.54,-261.88 1600.88,-268.42 1598.44,-258.11 1592.54,-261.88"/>
</a>
</g>
</g>
<!-- Node17 -->
<g id="Node000017" class="node">
<title>Node17</title>
<g id="a_Node000017"><a xlink:href="mem_8h.html#af7e65258e9f403545514aa561c040c71" target="_top" xlink:title="Swap len bytes of dest and src inplace.">
<polygon fill="white" stroke="#666666" points="1657.75,-158 1560,-158 1560,-138 1657.75,-138 1657.75,-158"/>
<text text-anchor="middle" x="1608.88" y="-144.5" font-family="Helvetica,sans-Serif" font-size="10.00">zrtos_mem__swap</text>
</a>
</g>
</g>
<!-- Node16&#45;&gt;Node17 -->
<g id="edge17_Node000016_Node000017" class="edge">
<title>Node16&#45;&gt;Node17</title>
<g id="a_edge17_Node000016_Node000017"><a xlink:title=" ">
<path fill="none" stroke="#63b8ff" d="M1518.14,-148C1528.16,-148 1538.64,-148 1548.75,-148"/>
<polygon fill="#63b8ff" stroke="#63b8ff" points="1548.45,-151.5 1558.45,-148 1548.45,-144.5 1548.45,-151.5"/>
</a>
</g>
</g>
<!-- Node24&#45;&gt;Node7 -->
<g id="edge42_Node000024_Node000007" class="edge">
<title>Node24&#45;&gt;Node7</title>
<g id="a_edge42_Node000024_Node000007"><a xlink:title=" ">
<path fill="none" stroke="#63b8ff" d="M790.36,-340.44C799.99,-378.93 829.36,-475.39 891.5,-525 943.31,-566.36 981.81,-524.45 1035.75,-563 1082.62,-596.5 1114.43,-658.12 1129.74,-693.38"/>
<polygon fill="#63b8ff" stroke="#63b8ff" points="1126.44,-694.57 1133.54,-702.43 1132.9,-691.86 1126.44,-694.57"/>
</a>
</g>
</g>
<!-- Node24&#45;&gt;Node9 -->
<g id="edge28_Node000024_Node000009" class="edge">
<title>Node24&#45;&gt;Node9</title>
<g id="a_edge28_Node000024_Node000009"><a xlink:title=" ">
<path fill="none" stroke="#63b8ff" d="M793.65,-340.15C807.77,-370.81 842.49,-437.68 891.5,-475 892.83,-476.02 894.21,-476.99 895.63,-477.93"/>
<polygon fill="#63b8ff" stroke="#63b8ff" points="893.7,-480.86 904.11,-482.84 897.21,-474.8 893.7,-480.86"/>
</a>
</g>
</g>
<!-- Node24&#45;&gt;Node11 -->
<g id="edge33_Node000024_Node000011" class="edge">
<title>Node24&#45;&gt;Node11</title>
<g id="a_edge33_Node000024_Node000011"><a xlink:title=" ">
<path fill="none" stroke="#63b8ff" d="M809.35,-340.25C829.95,-354.33 861.56,-374.37 891.5,-387 952.58,-412.77 973.72,-401.61 1035.75,-425 1052.49,-431.31 1055.32,-435.92 1071.75,-443 1075.29,-444.52 1078.95,-446.04 1082.66,-447.52"/>
<polygon fill="#63b8ff" stroke="#63b8ff" points="1081.18,-450.7 1091.76,-451.07 1083.72,-444.18 1081.18,-450.7"/>
</a>
</g>
</g>
<!-- Node24&#45;&gt;Node20 -->
<g id="edge29_Node000024_Node000020" class="edge">
<title>Node24&#45;&gt;Node20</title>
<g id="a_edge29_Node000024_Node000020"><a xlink:title=" ">
<path fill="none" stroke="#63b8ff" d="M848.41,-307.56C862.49,-304.29 877.45,-301.2 891.5,-299 953.63,-289.28 1025.3,-284.48 1075.7,-282.14"/>
<polygon fill="#63b8ff" stroke="#63b8ff" points="1075.73,-285.64 1085.57,-281.7 1075.42,-278.65 1075.73,-285.64"/>
</a>
</g>
</g>
<!-- Node24&#45;&gt;Node25 -->
<g id="edge30_Node000024_Node000025" class="edge">
<title>Node24&#45;&gt;Node25</title>
<g id="a_edge30_Node000024_Node000025"><a xlink:title=" ">
<path fill="none" stroke="#63b8ff" d="M792.91,-307.64C806.78,-272.99 842.71,-190.79 891.5,-135 901.42,-123.66 914.14,-113.24 926.08,-104.7"/>
<polygon fill="#63b8ff" stroke="#63b8ff" points="927.92,-107.69 934.17,-99.13 923.95,-101.92 927.92,-107.69"/>
</a>
</g>
</g>
<!-- Node28 -->
<g id="Node000028" class="node">
<title>Node28</title>
<g id="a_Node000028"><a xlink:href="vheap_8h.html#a7c64f185f189dd5e35dc36b22d1b0397" target="_top" xlink:title=" ">
<polygon fill="white" stroke="#666666" points="1022.62,-164 904.62,-164 904.62,-144 1022.62,-144 1022.62,-164"/>
<text text-anchor="middle" x="963.62" y="-150.5" font-family="Helvetica,sans-Serif" font-size="10.00">zrtos_vheap__page_out</text>
</a>
</g>
</g>
<!-- Node24&#45;&gt;Node28 -->
<g id="edge34_Node000024_Node000028" class="edge">
<title>Node24&#45;&gt;Node28</title>
<g id="a_edge34_Node000024_Node000028"><a xlink:title=" ">
<path fill="none" stroke="#63b8ff" d="M800.51,-307.58C819.95,-284.93 856.81,-243.26 891.5,-211 906.75,-196.82 925.12,-182.15 939.37,-171.25"/>
<polygon fill="#63b8ff" stroke="#63b8ff" points="941.42,-174.09 947.28,-165.26 937.2,-168.5 941.42,-174.09"/>
</a>
</g>
</g>
<!-- Node30 -->
<g id="Node000030" class="node">
<title>Node30</title>
<g id="a_Node000030"><a xlink:href="vheap__task_8h.html#a4916fc70f9461b91fd5c6c8186bbb8f0" target="_top" xlink:title=" ">
<polygon fill="white" stroke="#666666" points="1021.5,-252 905.75,-252 905.75,-220 1021.5,-220 1021.5,-252"/>
<text text-anchor="start" x="913.75" y="-238.5" font-family="Helvetica,sans-Serif" font-size="10.00">zrtos_vheap_task__set</text>
<text text-anchor="middle" x="963.62" y="-226.5" font-family="Helvetica,sans-Serif" font-size="10.00">_errno</text>
</a>
</g>
</g>
<!-- Node24&#45;&gt;Node30 -->
<g id="edge40_Node000024_Node000030" class="edge">
<title>Node24&#45;&gt;Node30</title>
<g id="a_edge40_Node000024_Node000030"><a xlink:title=" ">
<path fill="none" stroke="#63b8ff" d="M814.24,-307.67C835.15,-295.57 864.74,-279 891.5,-266 897.83,-262.93 904.55,-259.85 911.24,-256.9"/>
<polygon fill="#63b8ff" stroke="#63b8ff" points="912.49,-260.18 920.28,-253 909.71,-253.75 912.49,-260.18"/>
</a>
</g>
</g>
<!-- Node31 -->
<g id="Node000031" class="node">
<title>Node31</title>
<g id="a_Node000031"><a xlink:href="vheap__task_8h.html#ab4203191e1dca81c750ca246d31fda8c" target="_top" xlink:title=" ">
<polygon fill="white" stroke="#666666" points="1021.5,-340 905.75,-340 905.75,-308 1021.5,-308 1021.5,-340"/>
<text text-anchor="start" x="913.75" y="-326.5" font-family="Helvetica,sans-Serif" font-size="10.00">zrtos_vheap_task__set</text>
<text text-anchor="middle" x="963.62" y="-314.5" font-family="Helvetica,sans-Serif" font-size="10.00">_stack_ptr</text>
</a>
</g>
</g>
<!-- Node24&#45;&gt;Node31 -->
<g id="edge41_Node000024_Node000031" class="edge">
<title>Node24&#45;&gt;Node31</title>
<g id="a_edge41_Node000024_Node000031"><a xlink:title=" ">
<path fill="none" stroke="#63b8ff" d="M855.43,-324C868.05,-324 881.23,-324 893.85,-324"/>
<polygon fill="#63b8ff" stroke="#63b8ff" points="893.74,-327.5 903.74,-324 893.74,-320.5 893.74,-327.5"/>
</a>
</g>
</g>
<!-- Node26 -->
<g id="Node000026" class="node">
<title>Node26</title>
<g id="a_Node000026"><a xlink:href="vheap_8h.html#a40019e160b773014a45fd5b8aa6ac436" target="_top" xlink:title=" ">
<polygon fill="white" stroke="#666666" points="1207,-20 1075.5,-20 1075.5,0 1207,0 1207,-20"/>
<text text-anchor="middle" x="1141.25" y="-6.5" font-family="Helvetica,sans-Serif" font-size="10.00">zrtos_vheap__get_by_type</text>
</a>
</g>
</g>
<!-- Node25&#45;&gt;Node26 -->
<g id="edge31_Node000025_Node000026" class="edge">
<title>Node25&#45;&gt;Node26</title>
<g id="a_edge31_Node000025_Node000026"><a xlink:title=" ">
<path fill="none" stroke="#63b8ff" d="M993.96,-65.6C1015.12,-54.25 1044.61,-39.37 1071.75,-29 1076.68,-27.12 1081.87,-25.33 1087.1,-23.67"/>
<polygon fill="#63b8ff" stroke="#63b8ff" points="1087.82,-27.11 1096.37,-20.86 1085.79,-20.41 1087.82,-27.11"/>
</a>
</g>
</g>
<!-- Node27 -->
<g id="Node000027" class="node">
<title>Node27</title>
<g id="a_Node000027"><a xlink:href="vheap__chunk__type_8h.html#a3ba86ab73e8b4b86da90ba791d52bf27" target="_top" xlink:title=" ">
<polygon fill="white" stroke="#666666" points="1202.88,-70 1079.62,-70 1079.62,-38 1202.88,-38 1202.88,-70"/>
<text text-anchor="start" x="1087.62" y="-56.5" font-family="Helvetica,sans-Serif" font-size="10.00">zrtos_vheap_chunk_type</text>
<text text-anchor="middle" x="1141.25" y="-44.5" font-family="Helvetica,sans-Serif" font-size="10.00">__init</text>
</a>
</g>
</g>
<!-- Node25&#45;&gt;Node27 -->
<g id="edge32_Node000025_Node000027" class="edge">
<title>Node25&#45;&gt;Node27</title>
<g id="a_edge32_Node000025_Node000027"><a xlink:title=" ">
<path fill="none" stroke="#63b8ff" d="M1017.79,-73.52C1033.7,-70.99 1051.4,-68.17 1068.3,-65.47"/>
<polygon fill="#63b8ff" stroke="#63b8ff" points="1068.44,-68.99 1077.76,-63.96 1067.34,-62.08 1068.44,-68.99"/>
</a>
</g>
</g>
<!-- Node28&#45;&gt;Node12 -->
<g id="edge37_Node000028_Node000012" class="edge">
<title>Node28&#45;&gt;Node12</title>
<g id="a_edge37_Node000028_Node000012"><a xlink:title=" ">
<path fill="none" stroke="#63b8ff" d="M1018.09,-164.47C1135.73,-187.52 1416.64,-242.54 1543.62,-267.41"/>
<polygon fill="#63b8ff" stroke="#63b8ff" points="1542.71,-270.8 1553.2,-269.29 1544.06,-263.93 1542.71,-270.8"/>
</a>
</g>
</g>
<!-- Node28&#45;&gt;Node15 -->
<g id="edge35_Node000028_Node000015" class="edge">
<title>Node28&#45;&gt;Node15</title>
<g id="a_edge35_Node000028_Node000015"><a xlink:title=" ">
<path fill="none" stroke="#63b8ff" d="M987.45,-143.62C1008.75,-134.55 1041.67,-122.05 1071.75,-117 1132.68,-106.77 1149.73,-107.38 1210.75,-117 1231.26,-120.23 1253.36,-127.13 1271.17,-133.6"/>
<polygon fill="#63b8ff" stroke="#63b8ff" points="1269.91,-136.87 1280.5,-137.11 1272.37,-130.32 1269.91,-136.87"/>
</a>
</g>
</g>
<!-- Node28&#45;&gt;Node20 -->
<g id="edge38_Node000028_Node000020" class="edge">
<title>Node28&#45;&gt;Node20</title>
<g id="a_edge38_Node000028_Node000020"><a xlink:title=" ">
<path fill="none" stroke="#63b8ff" d="M979.26,-164.32C994.18,-175.15 1017.64,-193.08 1035.75,-211 1053.71,-228.78 1051.15,-240.37 1071.75,-255 1073.53,-256.26 1075.38,-257.47 1077.29,-258.62"/>
<polygon fill="#63b8ff" stroke="#63b8ff" points="1075.38,-261.57 1085.84,-263.22 1078.69,-255.41 1075.38,-261.57"/>
</a>
</g>
</g>
<!-- Node28&#45;&gt;Node21 -->
<g id="edge39_Node000028_Node000021" class="edge">
<title>Node28&#45;&gt;Node21</title>
<g id="a_edge39_Node000028_Node000021"><a xlink:title=" ">
<path fill="none" stroke="#63b8ff" d="M1000.69,-164.44C1012.11,-168.2 1024.65,-172.82 1035.75,-178 1052.74,-185.94 1055.12,-191.33 1071.75,-200 1077.58,-203.04 1083.78,-206.05 1089.97,-208.92"/>
<polygon fill="#63b8ff" stroke="#63b8ff" points="1088.4,-212.05 1098.96,-212.98 1091.29,-205.67 1088.4,-212.05"/>
</a>
</g>
</g>
<!-- Node29 -->
<g id="Node000029" class="node">
<title>Node29</title>
<g id="a_Node000029"><a xlink:href="mem_8h.html#a9054cc3824c6ffdaf4ed24fde2f80f32" target="_top" xlink:title=" ">
<polygon fill="white" stroke="#666666" points="1199.12,-158 1083.38,-158 1083.38,-126 1199.12,-126 1199.12,-158"/>
<text text-anchor="start" x="1091.38" y="-144.5" font-family="Helvetica,sans-Serif" font-size="10.00">zrtos_mem__move_left</text>
<text text-anchor="middle" x="1141.25" y="-132.5" font-family="Helvetica,sans-Serif" font-size="10.00">_overlapping</text>
</a>
</g>
</g>
<!-- Node28&#45;&gt;Node29 -->
<g id="edge36_Node000028_Node000029" class="edge">
<title>Node28&#45;&gt;Node29</title>
<g id="a_edge36_Node000028_Node000029"><a xlink:title=" ">
<path fill="none" stroke="#63b8ff" d="M1023.11,-150C1038.6,-148.95 1055.48,-147.79 1071.47,-146.7"/>
<polygon fill="#63b8ff" stroke="#63b8ff" points="1071.67,-150.19 1081.41,-146.02 1071.2,-143.21 1071.67,-150.19"/>
</a>
</g>
</g>
<!-- Node35&#45;&gt;Node7 -->
<g id="edge53_Node000035_Node000007" class="edge">
<title>Node35&#45;&gt;Node7</title>
<g id="a_edge53_Node000035_Node000007"><a xlink:title=" ">
<path fill="none" stroke="#63b8ff" d="M824.65,-868.38C875.85,-887.76 968.31,-913.12 1035.75,-877 1087.28,-849.4 1117.76,-783.94 1131.49,-746.85"/>
<polygon fill="#63b8ff" stroke="#63b8ff" points="1134.67,-748.34 1134.71,-737.75 1128.07,-746.01 1134.67,-748.34"/>
</a>
</g>
</g>
<!-- Node36 -->
<g id="Node000036" class="node">
<title>Node36</title>
<g id="a_Node000036"><a xlink:href="vheap_8h.html#ad2723df7cc03e8a85b5886b8fd2c2b4e" target="_top" xlink:title=" ">
<polygon fill="white" stroke="#666666" points="1022.62,-466 904.62,-466 904.62,-434 1022.62,-434 1022.62,-466"/>
<text text-anchor="start" x="912.62" y="-452.5" font-family="Helvetica,sans-Serif" font-size="10.00">_zrtos_vheap__get_free</text>
<text text-anchor="middle" x="963.62" y="-440.5" font-family="Helvetica,sans-Serif" font-size="10.00">_space_ex</text>
</a>
</g>
</g>
<!-- Node35&#45;&gt;Node36 -->
<g id="edge48_Node000035_Node000036" class="edge">
<title>Node35&#45;&gt;Node36</title>
<g id="a_edge48_Node000035_Node000036"><a xlink:title=" ">
<path fill="none" stroke="#63b8ff" d="M793.62,-835.6C807.21,-803.17 837.47,-728.31 855.5,-663 878.14,-580.99 835.98,-539.46 891.5,-475 892.62,-473.7 893.81,-472.46 895.07,-471.29"/>
<polygon fill="#63b8ff" stroke="#63b8ff" points="897.04,-474.19 902.93,-465.38 892.83,-468.6 897.04,-474.19"/>
</a>
</g>
</g>
<!-- Node37 -->
<g id="Node000037" class="node">
<title>Node37</title>
<g id="a_Node000037"><a xlink:href="vheap__chunk_8h.html#a26bcd8779d88d67764f563058787008a" target="_top" xlink:title=" ">
<polygon fill="white" stroke="#666666" points="1015.88,-818 911.38,-818 911.38,-786 1015.88,-786 1015.88,-818"/>
<text text-anchor="start" x="919.38" y="-804.5" font-family="Helvetica,sans-Serif" font-size="10.00">zrtos_vheap_chunk_</text>
<text text-anchor="middle" x="963.62" y="-792.5" font-family="Helvetica,sans-Serif" font-size="10.00">_get_length</text>
</a>
</g>
</g>
<!-- Node35&#45;&gt;Node37 -->
<g id="edge51_Node000035_Node000037" class="edge">
<title>Node35&#45;&gt;Node37</title>
<g id="a_edge51_Node000035_Node000037"><a xlink:title=" ">
<path fill="none" stroke="#63b8ff" d="M844.25,-835.63C862.19,-830.53 882.04,-824.89 900.28,-819.71"/>
<polygon fill="#63b8ff" stroke="#63b8ff" points="900.98,-823.15 909.65,-817.05 899.07,-816.42 900.98,-823.15"/>
</a>
</g>
</g>
<!-- Node38 -->
<g id="Node000038" class="node">
<title>Node38</title>
<g id="a_Node000038"><a xlink:href="vheap__task_8h.html#a896d233acb32ead8d7e1fd170a42aae3" target="_top" xlink:title=" ">
<polygon fill="white" stroke="#666666" points="1021.5,-868 905.75,-868 905.75,-836 1021.5,-836 1021.5,-868"/>
<text text-anchor="start" x="913.75" y="-854.5" font-family="Helvetica,sans-Serif" font-size="10.00">zrtos_vheap_task__get</text>
<text text-anchor="middle" x="963.62" y="-842.5" font-family="Helvetica,sans-Serif" font-size="10.00">_stack_size_min</text>
</a>
</g>
</g>
<!-- Node35&#45;&gt;Node38 -->
<g id="edge52_Node000035_Node000038" class="edge">
<title>Node35&#45;&gt;Node38</title>
<g id="a_edge52_Node000035_Node000038"><a xlink:title=" ">
<path fill="none" stroke="#63b8ff" d="M855.93,-852C868.45,-852 881.5,-852 894,-852"/>
<polygon fill="#63b8ff" stroke="#63b8ff" points="893.78,-855.5 903.78,-852 893.78,-848.5 893.78,-855.5"/>
</a>
</g>
</g>
<!-- Node36&#45;&gt;Node11 -->
<g id="edge50_Node000036_Node000011" class="edge">
<title>Node36&#45;&gt;Node11</title>
<g id="a_edge50_Node000036_Node000011"><a xlink:title=" ">
<path fill="none" stroke="#63b8ff" d="M1023.11,-455.99C1039.16,-457.64 1056.69,-459.44 1073.18,-461.13"/>
<polygon fill="#63b8ff" stroke="#63b8ff" points="1072.6,-464.58 1082.9,-462.12 1073.31,-457.62 1072.6,-464.58"/>
</a>
</g>
</g>
<!-- Node36&#45;&gt;Node20 -->
<g id="edge49_Node000036_Node000020" class="edge">
<title>Node36&#45;&gt;Node20</title>
<g id="a_edge49_Node000036_Node000020"><a xlink:title=" ">
<path fill="none" stroke="#63b8ff" d="M987.81,-433.66C1003.01,-422.02 1022.44,-405.26 1035.75,-387 1059.19,-354.83 1042.72,-332.23 1071.75,-305 1073.59,-303.28 1075.55,-301.67 1077.62,-300.17"/>
<polygon fill="#63b8ff" stroke="#63b8ff" points="1079.22,-303.29 1085.9,-295.07 1075.55,-297.33 1079.22,-303.29"/>
</a>
</g>
</g>
</g>
</svg>
