<?xml version="1.0" encoding="UTF-8" standalone="no"?>
<!DOCTYPE svg PUBLIC "-//W3C//DTD SVG 1.1//EN"
 "http://www.w3.org/Graphics/SVG/1.1/DTD/svg11.dtd">
<!-- Generated by graphviz version 10.0.1 (20240210.2158)
 -->
<!-- Title: _zrtos_vheap__malloc Pages: 1 -->
<svg width="758pt" height="175pt"
 viewBox="0.00 0.00 757.75 175.00" xmlns="http://www.w3.org/2000/svg" xmlns:xlink="http://www.w3.org/1999/xlink">
<g id="graph0" class="graph" transform="scale(1 1) rotate(0) translate(4 171)">
<title>_zrtos_vheap__malloc</title>
<!-- Node1 -->
<g id="Node000001" class="node">
<title>Node1</title>
<g id="a_Node000001"><a xlink:title=" ">
<polygon fill="#999999" stroke="#666666" points="112,-64 0,-64 0,-44 112,-44 112,-64"/>
<text text-anchor="middle" x="56" y="-50.5" font-family="Helvetica,sans-Serif" font-size="10.00">_zrtos_vheap__malloc</text>
</a>
</g>
</g>
<!-- Node2 -->
<g id="Node000002" class="node">
<title>Node2</title>
<g id="a_Node000002"><a xlink:href="vheap_8h.html#afaa17fa156a136951a309b102c38e71e" target="_top" xlink:title=" ">
<polygon fill="white" stroke="#666666" points="273.88,-120 155.88,-120 155.88,-88 273.88,-88 273.88,-120"/>
<text text-anchor="start" x="163.88" y="-106.5" font-family="Helvetica,sans-Serif" font-size="10.00">_zrtos_vheap__get_free</text>
<text text-anchor="middle" x="214.88" y="-94.5" font-family="Helvetica,sans-Serif" font-size="10.00">_space</text>
</a>
</g>
</g>
<!-- Node1&#45;&gt;Node2 -->
<g id="edge1_Node000001_Node000002" class="edge">
<title>Node1&#45;&gt;Node2</title>
<g id="a_edge1_Node000001_Node000002"><a xlink:title=" ">
<path fill="none" stroke="#63b8ff" d="M89.89,-64.48C107.71,-70.16 130.34,-77.38 151.38,-84.08"/>
<polygon fill="#63b8ff" stroke="#63b8ff" points="150.16,-87.37 160.75,-87.07 152.29,-80.7 150.16,-87.37"/>
</a>
</g>
</g>
<!-- Node8 -->
<g id="Node000008" class="node">
<title>Node8</title>
<g id="a_Node000008"><a xlink:href="mem_8h.html#a1590269d1001c17c2c99725ef85f6386" target="_top" xlink:title=" ">
<polygon fill="white" stroke="#666666" points="275.75,-70 154,-70 154,-38 275.75,-38 275.75,-70"/>
<text text-anchor="start" x="162" y="-56.5" font-family="Helvetica,sans-Serif" font-size="10.00">zrtos_mem__move_right</text>
<text text-anchor="middle" x="214.88" y="-44.5" font-family="Helvetica,sans-Serif" font-size="10.00">_overlapping</text>
</a>
</g>
</g>
<!-- Node1&#45;&gt;Node8 -->
<g id="edge7_Node000001_Node000008" class="edge">
<title>Node1&#45;&gt;Node8</title>
<g id="a_edge7_Node000001_Node000008"><a xlink:title=" ">
<path fill="none" stroke="#63b8ff" d="M112.31,-54C122.05,-54 132.32,-54 142.42,-54"/>
<polygon fill="#63b8ff" stroke="#63b8ff" points="142.22,-57.5 152.22,-54 142.22,-50.5 142.22,-57.5"/>
</a>
</g>
</g>
<!-- Node9 -->
<g id="Node000009" class="node">
<title>Node9</title>
<g id="a_Node000009"><a xlink:href="vheap_8h.html#a8681e975680d07e73d260e73bac6e74a" target="_top" xlink:title=" ">
<polygon fill="white" stroke="#666666" points="281.75,-20 148,-20 148,0 281.75,0 281.75,-20"/>
<text text-anchor="middle" x="214.88" y="-6.5" font-family="Helvetica,sans-Serif" font-size="10.00">zrtos_vheap__get_next_uid</text>
</a>
</g>
</g>
<!-- Node1&#45;&gt;Node9 -->
<g id="edge8_Node000001_Node000009" class="edge">
<title>Node1&#45;&gt;Node9</title>
<g id="a_edge8_Node000001_Node000009"><a xlink:title=" ">
<path fill="none" stroke="#63b8ff" d="M94.18,-43.57C115.59,-37.57 142.74,-29.95 165.76,-23.49"/>
<polygon fill="#63b8ff" stroke="#63b8ff" points="166.55,-26.91 175.24,-20.84 164.66,-20.17 166.55,-26.91"/>
</a>
</g>
</g>
<!-- Node3 -->
<g id="Node000003" class="node">
<title>Node3</title>
<g id="a_Node000003"><a xlink:href="vheap_8h.html#ad2723df7cc03e8a85b5886b8fd2c2b4e" target="_top" xlink:title=" ">
<polygon fill="white" stroke="#666666" points="445.5,-142 327.5,-142 327.5,-110 445.5,-110 445.5,-142"/>
<text text-anchor="start" x="335.5" y="-128.5" font-family="Helvetica,sans-Serif" font-size="10.00">_zrtos_vheap__get_free</text>
<text text-anchor="middle" x="386.5" y="-116.5" font-family="Helvetica,sans-Serif" font-size="10.00">_space_ex</text>
</a>
</g>
</g>
<!-- Node2&#45;&gt;Node3 -->
<g id="edge2_Node000002_Node000003" class="edge">
<title>Node2&#45;&gt;Node3</title>
<g id="a_edge2_Node000002_Node000003"><a xlink:title=" ">
<path fill="none" stroke="#63b8ff" d="M274.25,-111.57C287.58,-113.3 301.87,-115.15 315.62,-116.94"/>
<polygon fill="#63b8ff" stroke="#63b8ff" points="315.15,-120.4 325.52,-118.22 316.05,-113.46 315.15,-120.4"/>
</a>
</g>
</g>
<!-- Node7 -->
<g id="Node000007" class="node">
<title>Node7</title>
<g id="a_Node000007"><a xlink:href="vheap_8h.html#a8db165ab2eef6113422d6f72c9321ea9" target="_top" xlink:title=" ">
<polygon fill="white" stroke="#666666" points="455.25,-92 317.75,-92 317.75,-72 455.25,-72 455.25,-92"/>
<text text-anchor="middle" x="386.5" y="-78.5" font-family="Helvetica,sans-Serif" font-size="10.00">zrtos_vheap__get_stack_ptr</text>
</a>
</g>
</g>
<!-- Node2&#45;&gt;Node7 -->
<g id="edge6_Node000002_Node000007" class="edge">
<title>Node2&#45;&gt;Node7</title>
<g id="a_edge6_Node000002_Node000007"><a xlink:title=" ">
<path fill="none" stroke="#63b8ff" d="M274.25,-96.43C284.56,-95.09 295.46,-93.68 306.23,-92.28"/>
<polygon fill="#63b8ff" stroke="#63b8ff" points="306.42,-95.79 315.88,-91.03 305.52,-88.84 306.42,-95.79"/>
</a>
</g>
</g>
<!-- Node4 -->
<g id="Node000004" class="node">
<title>Node4</title>
<g id="a_Node000004"><a xlink:href="types_8h.html#adbc4238237e656eb247fd49ffbfb1a6d" target="_top" xlink:title=" ">
<polygon fill="white" stroke="#666666" points="601.38,-167 493.88,-167 493.88,-135 601.38,-135 601.38,-167"/>
<text text-anchor="start" x="501.88" y="-153.5" font-family="Helvetica,sans-Serif" font-size="10.00">zrtos_types__ptr_get</text>
<text text-anchor="middle" x="547.62" y="-141.5" font-family="Helvetica,sans-Serif" font-size="10.00">_byte_distance</text>
</a>
</g>
</g>
<!-- Node3&#45;&gt;Node4 -->
<g id="edge3_Node000003_Node000004" class="edge">
<title>Node3&#45;&gt;Node4</title>
<g id="a_edge3_Node000003_Node000004"><a xlink:title=" ">
<path fill="none" stroke="#63b8ff" d="M445.85,-135.17C457.68,-137.03 470.18,-138.99 482.21,-140.88"/>
<polygon fill="#63b8ff" stroke="#63b8ff" points="481.64,-144.33 492.06,-142.43 482.72,-137.42 481.64,-144.33"/>
</a>
</g>
</g>
<!-- Node5 -->
<g id="Node000005" class="node">
<title>Node5</title>
<g id="a_Node000005"><a xlink:href="vheap_8h.html#a9cff4e6aefa63154b78bcb1a5f442d72" target="_top" xlink:title=" ">
<polygon fill="white" stroke="#666666" points="604,-117 491.25,-117 491.25,-85 604,-85 604,-117"/>
<text text-anchor="start" x="499.25" y="-103.5" font-family="Helvetica,sans-Serif" font-size="10.00">zrtos_vheap__get_last</text>
<text text-anchor="middle" x="547.62" y="-91.5" font-family="Helvetica,sans-Serif" font-size="10.00">_address</text>
</a>
</g>
</g>
<!-- Node3&#45;&gt;Node5 -->
<g id="edge4_Node000003_Node000005" class="edge">
<title>Node3&#45;&gt;Node5</title>
<g id="a_edge4_Node000003_Node000005"><a xlink:title=" ">
<path fill="none" stroke="#63b8ff" d="M445.85,-116.83C456.89,-115.1 468.52,-113.27 479.8,-111.5"/>
<polygon fill="#63b8ff" stroke="#63b8ff" points="480.1,-114.99 489.44,-109.98 479.02,-108.08 480.1,-114.99"/>
</a>
</g>
</g>
<!-- Node6 -->
<g id="Node000006" class="node">
<title>Node6</title>
<g id="a_Node000006"><a xlink:href="types_8h.html#ab0b4ddf54b9e9f4a54504f833babbc1c" target="_top" xlink:title=" ">
<polygon fill="white" stroke="#666666" points="749.75,-111 640,-111 640,-91 749.75,-91 749.75,-111"/>
<text text-anchor="middle" x="694.88" y="-97.5" font-family="Helvetica,sans-Serif" font-size="10.00">zrtos_types__ptr_add</text>
</a>
</g>
</g>
<!-- Node5&#45;&gt;Node6 -->
<g id="edge5_Node000005_Node000006" class="edge">
<title>Node5&#45;&gt;Node6</title>
<g id="a_edge5_Node000005_Node000006"><a xlink:title=" ">
<path fill="none" stroke="#63b8ff" d="M604.37,-101C612.31,-101 620.53,-101 628.63,-101"/>
<polygon fill="#63b8ff" stroke="#63b8ff" points="628.44,-104.5 638.44,-101 628.44,-97.5 628.44,-104.5"/>
</a>
</g>
</g>
<!-- Node10 -->
<g id="Node000010" class="node">
<title>Node10</title>
<g id="a_Node000010"><a xlink:href="vheap_8h.html#abe149f8bc1f24a77d03fb3e5e92a3886" target="_top" xlink:title=" ">
<polygon fill="white" stroke="#666666" points="446.62,-20 326.38,-20 326.38,0 446.62,0 446.62,-20"/>
<text text-anchor="middle" x="386.5" y="-6.5" font-family="Helvetica,sans-Serif" font-size="10.00">zrtos_vheap__get_by_id</text>
</a>
</g>
</g>
<!-- Node9&#45;&gt;Node10 -->
<g id="edge9_Node000009_Node000010" class="edge">
<title>Node9&#45;&gt;Node10</title>
<g id="a_edge9_Node000009_Node000010"><a xlink:title=" ">
<path fill="none" stroke="#63b8ff" d="M281.94,-10C292.71,-10 303.91,-10 314.78,-10"/>
<polygon fill="#63b8ff" stroke="#63b8ff" points="314.46,-13.5 324.46,-10 314.46,-6.5 314.46,-13.5"/>
</a>
</g>
</g>
</g>
</svg>
