<?xml version="1.0" encoding="UTF-8" standalone="no"?>
<!DOCTYPE svg PUBLIC "-//W3C//DTD SVG 1.1//EN"
 "http://www.w3.org/Graphics/SVG/1.1/DTD/svg11.dtd">
<!-- Generated by graphviz version 10.0.1 (20240210.2158)
 -->
<!-- Title: vheap.h Pages: 1 -->
<svg width="655pt" height="196pt"
 viewBox="0.00 0.00 654.50 196.00" xmlns="http://www.w3.org/2000/svg" xmlns:xlink="http://www.w3.org/1999/xlink">
<g id="graph0" class="graph" transform="scale(1 1) rotate(0) translate(4 192)">
<title>vheap.h</title>
<!-- Node1 -->
<g id="Node000001" class="node">
<title>Node1</title>
<g id="a_Node000001"><a xlink:title=" ">
<polygon fill="#999999" stroke="#666666" points="360.38,-188 311.38,-188 311.38,-168 360.38,-168 360.38,-188"/>
<text text-anchor="middle" x="335.88" y="-174.5" font-family="Helvetica,sans-Serif" font-size="10.00">vheap.h</text>
</a>
</g>
</g>
<!-- Node2 -->
<g id="Node000002" class="node">
<title>Node2</title>
<g id="a_Node000002"><a xlink:href="debug_8h.html" target="_top" xlink:title=" ">
<polygon fill="white" stroke="#666666" points="282.5,-132 207.25,-132 207.25,-112 282.5,-112 282.5,-132"/>
<text text-anchor="middle" x="244.88" y="-118.5" font-family="Helvetica,sans-Serif" font-size="10.00">zrtos/debug.h</text>
</a>
</g>
</g>
<!-- Node1&#45;&gt;Node2 -->
<g id="edge1_Node000001_Node000002" class="edge">
<title>Node1&#45;&gt;Node2</title>
<g id="a_edge1_Node000001_Node000002"><a xlink:title=" ">
<path fill="none" stroke="#63b8ff" d="M320.02,-167.59C306.41,-159.51 286.51,-147.71 270.61,-138.27"/>
<polygon fill="#63b8ff" stroke="#63b8ff" points="272.54,-135.35 262.15,-133.25 268.97,-141.37 272.54,-135.35"/>
</a>
</g>
</g>
<!-- Node3 -->
<g id="Node000003" class="node">
<title>Node3</title>
<g id="a_Node000003"><a xlink:href="mem_8h.html" target="_top" xlink:title=" ">
<polygon fill="white" stroke="#666666" points="371.25,-132 300.5,-132 300.5,-112 371.25,-112 371.25,-132"/>
<text text-anchor="middle" x="335.88" y="-118.5" font-family="Helvetica,sans-Serif" font-size="10.00">zrtos/mem.h</text>
</a>
</g>
</g>
<!-- Node1&#45;&gt;Node3 -->
<g id="edge2_Node000001_Node000003" class="edge">
<title>Node1&#45;&gt;Node3</title>
<g id="a_edge2_Node000001_Node000003"><a xlink:title=" ">
<path fill="none" stroke="#63b8ff" d="M335.88,-167.59C335.88,-161.01 335.88,-151.96 335.88,-143.73"/>
<polygon fill="#63b8ff" stroke="#63b8ff" points="339.38,-143.81 335.88,-133.81 332.38,-143.81 339.38,-143.81"/>
</a>
</g>
</g>
<!-- Node11 -->
<g id="Node000011" class="node">
<title>Node11</title>
<g id="a_Node000011"><a xlink:href="vheap__chunk_8h.html" target="_top" xlink:title=" ">
<polygon fill="white" stroke="#666666" points="494.5,-132 389.25,-132 389.25,-112 494.5,-112 494.5,-132"/>
<text text-anchor="middle" x="441.88" y="-118.5" font-family="Helvetica,sans-Serif" font-size="10.00">zrtos/vheap_chunk.h</text>
</a>
</g>
</g>
<!-- Node1&#45;&gt;Node11 -->
<g id="edge11_Node000001_Node000011" class="edge">
<title>Node1&#45;&gt;Node11</title>
<g id="a_edge11_Node000001_Node000011"><a xlink:title=" ">
<path fill="none" stroke="#63b8ff" d="M354.34,-167.59C370.58,-159.32 394.48,-147.14 413.21,-137.6"/>
<polygon fill="#63b8ff" stroke="#63b8ff" points="414.6,-140.82 421.92,-133.17 411.42,-134.59 414.6,-140.82"/>
</a>
</g>
</g>
<!-- Node4 -->
<g id="Node000004" class="node">
<title>Node4</title>
<g id="a_Node000004"><a xlink:href="types_8h.html" target="_top" xlink:title=" ">
<polygon fill="white" stroke="#666666" points="268.38,-76 195.38,-76 195.38,-56 268.38,-56 268.38,-76"/>
<text text-anchor="middle" x="231.88" y="-62.5" font-family="Helvetica,sans-Serif" font-size="10.00">zrtos/types.h</text>
</a>
</g>
</g>
<!-- Node3&#45;&gt;Node4 -->
<g id="edge3_Node000003_Node000004" class="edge">
<title>Node3&#45;&gt;Node4</title>
<g id="a_edge3_Node000003_Node000004"><a xlink:title=" ">
<path fill="none" stroke="#63b8ff" d="M317.76,-111.59C301.9,-103.36 278.59,-91.26 260.26,-81.74"/>
<polygon fill="#63b8ff" stroke="#63b8ff" points="261.96,-78.68 251.48,-77.18 258.74,-84.89 261.96,-78.68"/>
</a>
</g>
</g>
<!-- Node10 -->
<g id="Node000010" class="node">
<title>Node10</title>
<g id="a_Node000010"><a xlink:href="cast_8h.html" target="_top" xlink:title=" ">
<polygon fill="white" stroke="#666666" points="417.75,-20 350,-20 350,0 417.75,0 417.75,-20"/>
<text text-anchor="middle" x="383.88" y="-6.5" font-family="Helvetica,sans-Serif" font-size="10.00">zrtos/cast.h</text>
</a>
</g>
</g>
<!-- Node3&#45;&gt;Node10 -->
<g id="edge10_Node000003_Node000010" class="edge">
<title>Node3&#45;&gt;Node10</title>
<g id="a_edge10_Node000003_Node000010"><a xlink:title=" ">
<path fill="none" stroke="#63b8ff" d="M339.97,-111.62C347.76,-93.76 364.88,-54.53 375.29,-30.67"/>
<polygon fill="#63b8ff" stroke="#63b8ff" points="378.4,-32.31 379.19,-21.74 371.98,-29.51 378.4,-32.31"/>
</a>
</g>
</g>
<!-- Node5 -->
<g id="Node000005" class="node">
<title>Node5</title>
<g id="a_Node000005"><a xlink:title=" ">
<polygon fill="#e0e0e0" stroke="#999999" points="55.75,-20 0,-20 0,0 55.75,0 55.75,-20"/>
<text text-anchor="middle" x="27.88" y="-6.5" font-family="Helvetica,sans-Serif" font-size="10.00">stdbool.h</text>
</a>
</g>
</g>
<!-- Node4&#45;&gt;Node5 -->
<g id="edge4_Node000004_Node000005" class="edge">
<title>Node4&#45;&gt;Node5</title>
<g id="a_edge4_Node000004_Node000005"><a xlink:title=" ">
<path fill="none" stroke="#63b8ff" d="M196.34,-55.59C160.24,-46.04 104.45,-31.27 67.08,-21.38"/>
<polygon fill="#63b8ff" stroke="#63b8ff" points="68.14,-18.04 57.58,-18.86 66.35,-24.8 68.14,-18.04"/>
</a>
</g>
</g>
<!-- Node6 -->
<g id="Node000006" class="node">
<title>Node6</title>
<g id="a_Node000006"><a xlink:title=" ">
<polygon fill="#e0e0e0" stroke="#999999" points="124.12,-20 73.62,-20 73.62,0 124.12,0 124.12,-20"/>
<text text-anchor="middle" x="98.88" y="-6.5" font-family="Helvetica,sans-Serif" font-size="10.00">stddef.h</text>
</a>
</g>
</g>
<!-- Node4&#45;&gt;Node6 -->
<g id="edge5_Node000004_Node000006" class="edge">
<title>Node4&#45;&gt;Node6</title>
<g id="a_edge5_Node000004_Node000006"><a xlink:title=" ">
<path fill="none" stroke="#63b8ff" d="M208.71,-55.59C187.67,-47.05 156.38,-34.35 132.57,-24.68"/>
<polygon fill="#63b8ff" stroke="#63b8ff" points="134.21,-21.57 123.62,-21.05 131.57,-28.05 134.21,-21.57"/>
</a>
</g>
</g>
<!-- Node7 -->
<g id="Node000007" class="node">
<title>Node7</title>
<g id="a_Node000007"><a xlink:title=" ">
<polygon fill="#e0e0e0" stroke="#999999" points="190,-20 141.75,-20 141.75,0 190,0 190,-20"/>
<text text-anchor="middle" x="165.88" y="-6.5" font-family="Helvetica,sans-Serif" font-size="10.00">stdint.h</text>
</a>
</g>
</g>
<!-- Node4&#45;&gt;Node7 -->
<g id="edge6_Node000004_Node000007" class="edge">
<title>Node4&#45;&gt;Node7</title>
<g id="a_edge6_Node000004_Node000007"><a xlink:title=" ">
<path fill="none" stroke="#63b8ff" d="M220.38,-55.59C210.91,-47.85 197.27,-36.69 186,-27.47"/>
<polygon fill="#63b8ff" stroke="#63b8ff" points="188.37,-24.88 178.41,-21.26 183.93,-30.3 188.37,-24.88"/>
</a>
</g>
</g>
<!-- Node8 -->
<g id="Node000008" class="node">
<title>Node8</title>
<g id="a_Node000008"><a xlink:title=" ">
<polygon fill="#e0e0e0" stroke="#999999" points="255.62,-20 208.12,-20 208.12,0 255.62,0 255.62,-20"/>
<text text-anchor="middle" x="231.88" y="-6.5" font-family="Helvetica,sans-Serif" font-size="10.00">limits.h</text>
</a>
</g>
</g>
<!-- Node4&#45;&gt;Node8 -->
<g id="edge7_Node000004_Node000008" class="edge">
<title>Node4&#45;&gt;Node8</title>
<g id="a_edge7_Node000004_Node000008"><a xlink:title=" ">
<path fill="none" stroke="#63b8ff" d="M231.88,-55.59C231.88,-49.01 231.88,-39.96 231.88,-31.73"/>
<polygon fill="#63b8ff" stroke="#63b8ff" points="235.38,-31.81 231.88,-21.81 228.38,-31.81 235.38,-31.81"/>
</a>
</g>
</g>
<!-- Node9 -->
<g id="Node000009" class="node">
<title>Node9</title>
<g id="a_Node000009"><a xlink:title=" ">
<polygon fill="#e0e0e0" stroke="#999999" points="331.88,-20 273.88,-20 273.88,0 331.88,0 331.88,-20"/>
<text text-anchor="middle" x="302.88" y="-6.5" font-family="Helvetica,sans-Serif" font-size="10.00">stdalign.h</text>
</a>
</g>
</g>
<!-- Node4&#45;&gt;Node9 -->
<g id="edge8_Node000004_Node000009" class="edge">
<title>Node4&#45;&gt;Node9</title>
<g id="a_edge8_Node000004_Node000009"><a xlink:title=" ">
<path fill="none" stroke="#63b8ff" d="M244.24,-55.59C254.52,-47.77 269.39,-36.46 281.59,-27.19"/>
<polygon fill="#63b8ff" stroke="#63b8ff" points="283.6,-30.05 289.44,-21.21 279.37,-24.48 283.6,-30.05"/>
</a>
</g>
</g>
<!-- Node4&#45;&gt;Node10 -->
<g id="edge9_Node000004_Node000010" class="edge">
<title>Node4&#45;&gt;Node10</title>
<g id="a_edge9_Node000004_Node000010"><a xlink:title=" ">
<path fill="none" stroke="#63b8ff" d="M258.35,-55.59C282.72,-46.94 319.13,-34 346.46,-24.29"/>
<polygon fill="#63b8ff" stroke="#63b8ff" points="347.51,-27.63 355.77,-20.99 345.17,-21.04 347.51,-27.63"/>
</a>
</g>
</g>
<!-- Node12 -->
<g id="Node000012" class="node">
<title>Node12</title>
<g id="a_Node000012"><a xlink:href="vheap__chunk__uid_8h.html" target="_top" xlink:title=" ">
<polygon fill="white" stroke="#666666" points="499.5,-76 376.25,-76 376.25,-56 499.5,-56 499.5,-76"/>
<text text-anchor="middle" x="437.88" y="-62.5" font-family="Helvetica,sans-Serif" font-size="10.00">zrtos/vheap_chunk_uid.h</text>
</a>
</g>
</g>
<!-- Node11&#45;&gt;Node12 -->
<g id="edge12_Node000011_Node000012" class="edge">
<title>Node11&#45;&gt;Node12</title>
<g id="a_edge12_Node000011_Node000012"><a xlink:title=" ">
<path fill="none" stroke="#63b8ff" d="M441.18,-111.59C440.69,-105.01 440.02,-95.96 439.41,-87.73"/>
<polygon fill="#63b8ff" stroke="#63b8ff" points="442.9,-87.52 438.68,-77.81 435.92,-88.04 442.9,-87.52"/>
</a>
</g>
</g>
<!-- Node13 -->
<g id="Node000013" class="node">
<title>Node13</title>
<g id="a_Node000013"><a xlink:href="vheap__chunk__type_8h.html" target="_top" xlink:title=" ">
<polygon fill="white" stroke="#666666" points="646.5,-76 517.25,-76 517.25,-56 646.5,-56 646.5,-76"/>
<text text-anchor="middle" x="581.88" y="-62.5" font-family="Helvetica,sans-Serif" font-size="10.00">zrtos/vheap_chunk_type.h</text>
</a>
</g>
</g>
<!-- Node11&#45;&gt;Node13 -->
<g id="edge13_Node000011_Node000013" class="edge">
<title>Node11&#45;&gt;Node13</title>
<g id="a_edge13_Node000011_Node000013"><a xlink:title=" ">
<path fill="none" stroke="#63b8ff" d="M466.26,-111.59C488.51,-103.01 521.64,-90.23 546.74,-80.55"/>
<polygon fill="#63b8ff" stroke="#63b8ff" points="547.82,-83.89 555.89,-77.02 545.3,-77.36 547.82,-83.89"/>
</a>
</g>
</g>
<!-- Node14 -->
<g id="Node000014" class="node">
<title>Node14</title>
<g id="a_Node000014"><a xlink:href="vheap__type_8h.html" target="_top" xlink:title=" ">
<polygon fill="white" stroke="#666666" points="630.75,-20 533,-20 533,0 630.75,0 630.75,-20"/>
<text text-anchor="middle" x="581.88" y="-6.5" font-family="Helvetica,sans-Serif" font-size="10.00">zrtos/vheap_type.h</text>
</a>
</g>
</g>
<!-- Node13&#45;&gt;Node14 -->
<g id="edge14_Node000013_Node000014" class="edge">
<title>Node13&#45;&gt;Node14</title>
<g id="a_edge14_Node000013_Node000014"><a xlink:title=" ">
<path fill="none" stroke="#63b8ff" d="M581.88,-55.59C581.88,-49.01 581.88,-39.96 581.88,-31.73"/>
<polygon fill="#63b8ff" stroke="#63b8ff" points="585.38,-31.81 581.88,-21.81 578.38,-31.81 585.38,-31.81"/>
</a>
</g>
</g>
</g>
</svg>
