<?xml version="1.0" encoding="UTF-8" standalone="no"?>
<!DOCTYPE svg PUBLIC "-//W3C//DTD SVG 1.1//EN"
 "http://www.w3.org/Graphics/SVG/1.1/DTD/svg11.dtd">
<!-- Generated by graphviz version 10.0.1 (20240210.2158)
 -->
<!-- Title: _zrtos_vheap_task_scheduler__switch_task Pages: 1 -->
<svg width="1317pt" height="910pt"
 viewBox="0.00 0.00 1316.50 909.88" xmlns="http://www.w3.org/2000/svg" xmlns:xlink="http://www.w3.org/1999/xlink">
<g id="graph0" class="graph" transform="scale(1 1) rotate(0) translate(4 905.88)">
<title>_zrtos_vheap_task_scheduler__switch_task</title>
<!-- Node1 -->
<g id="Node000001" class="node">
<title>Node1</title>
<g id="a_Node000001"><a xlink:title=" ">
<polygon fill="#999999" stroke="#666666" points="144.25,-191.88 0,-191.88 0,-159.88 144.25,-159.88 144.25,-191.88"/>
<text text-anchor="start" x="8" y="-178.38" font-family="Helvetica,sans-Serif" font-size="10.00">_zrtos_vheap_task_scheduler</text>
<text text-anchor="middle" x="72.12" y="-166.38" font-family="Helvetica,sans-Serif" font-size="10.00">__switch_task</text>
</a>
</g>
</g>
<!-- Node2 -->
<g id="Node000002" class="node">
<title>Node2</title>
<g id="a_Node000002"><a xlink:href="vheap__task__scheduler_8h.html#a393742fc3d9f5e784e97f4915c6b557d" target="_top" xlink:title=" ">
<polygon fill="white" stroke="#666666" points="324.5,-331.88 180.25,-331.88 180.25,-299.88 324.5,-299.88 324.5,-331.88"/>
<text text-anchor="start" x="188.25" y="-318.38" font-family="Helvetica,sans-Serif" font-size="10.00">_zrtos_vheap_task_scheduler</text>
<text text-anchor="middle" x="252.38" y="-306.38" font-family="Helvetica,sans-Serif" font-size="10.00">__restore_task</text>
</a>
</g>
</g>
<!-- Node1&#45;&gt;Node2 -->
<g id="edge1_Node000001_Node000002" class="edge">
<title>Node1&#45;&gt;Node2</title>
<g id="a_edge1_Node000001_Node000002"><a xlink:title=" ">
<path fill="none" stroke="#63b8ff" d="M84.39,-192.33C102.08,-217.03 138.7,-263.69 180.25,-290.88 182.1,-292.09 184.01,-293.24 185.97,-294.35"/>
<polygon fill="#63b8ff" stroke="#63b8ff" points="184.26,-297.41 194.76,-298.81 187.43,-291.17 184.26,-297.41"/>
</a>
</g>
</g>
<!-- Node3 -->
<g id="Node000003" class="node">
<title>Node3</title>
<g id="a_Node000003"><a xlink:href="vheap__task__scheduler_8h.html#af69e917ca8bd27891eb335dda8289faf" target="_top" xlink:title=" ">
<polygon fill="white" stroke="#666666" points="324.5,-281.88 180.25,-281.88 180.25,-249.88 324.5,-249.88 324.5,-281.88"/>
<text text-anchor="start" x="188.25" y="-268.38" font-family="Helvetica,sans-Serif" font-size="10.00">_zrtos_vheap_task_scheduler</text>
<text text-anchor="middle" x="252.38" y="-256.38" font-family="Helvetica,sans-Serif" font-size="10.00">__set_active_task</text>
</a>
</g>
</g>
<!-- Node1&#45;&gt;Node3 -->
<g id="edge2_Node000001_Node000003" class="edge">
<title>Node1&#45;&gt;Node3</title>
<g id="a_edge2_Node000001_Node000003"><a xlink:title=" ">
<path fill="none" stroke="#63b8ff" d="M101.92,-192.21C123.32,-204.17 153.33,-220.56 180.25,-233.88 187.59,-237.51 195.44,-241.21 203.14,-244.75"/>
<polygon fill="#63b8ff" stroke="#63b8ff" points="201.55,-247.88 212.1,-248.82 204.45,-241.5 201.55,-247.88"/>
</a>
</g>
</g>
<!-- Node5 -->
<g id="Node000005" class="node">
<title>Node5</title>
<g id="a_Node000005"><a xlink:href="vheap__task__scheduler_8h.html#ac02ff4499bb01c86b3610bc5b5d2ed0a" target="_top" xlink:title=" ">
<polygon fill="white" stroke="#666666" points="855.5,-263.88 716.5,-263.88 716.5,-231.88 855.5,-231.88 855.5,-263.88"/>
<text text-anchor="start" x="724.5" y="-250.38" font-family="Helvetica,sans-Serif" font-size="10.00">zrtos_vheap_task_scheduler</text>
<text text-anchor="middle" x="786" y="-238.38" font-family="Helvetica,sans-Serif" font-size="10.00">__get_heap</text>
</a>
</g>
</g>
<!-- Node1&#45;&gt;Node5 -->
<g id="edge44_Node000001_Node000005" class="edge">
<title>Node1&#45;&gt;Node5</title>
<g id="a_edge44_Node000001_Node000005"><a xlink:title=" ">
<path fill="none" stroke="#63b8ff" d="M84.27,-159.39C101.55,-135.48 137.32,-92.13 180.25,-74.88 386.54,8.05 487.27,38.11 680.5,-71.88 736.86,-103.96 765.97,-179.73 778.04,-220.61"/>
<polygon fill="#63b8ff" stroke="#63b8ff" points="774.65,-221.48 780.72,-230.16 781.39,-219.59 774.65,-221.48"/>
</a>
</g>
</g>
<!-- Node30 -->
<g id="Node000030" class="node">
<title>Node30</title>
<g id="a_Node000030"><a xlink:href="vheap__chunk_8h.html#a9e677451890886104ec8623e0c5757af" target="_top" xlink:title=" ">
<polygon fill="white" stroke="#666666" points="304.62,-191.88 200.12,-191.88 200.12,-159.88 304.62,-159.88 304.62,-191.88"/>
<text text-anchor="start" x="208.12" y="-178.38" font-family="Helvetica,sans-Serif" font-size="10.00">zrtos_vheap_chunk_</text>
<text text-anchor="middle" x="252.38" y="-166.38" font-family="Helvetica,sans-Serif" font-size="10.00">_get_uid</text>
</a>
</g>
</g>
<!-- Node1&#45;&gt;Node30 -->
<g id="edge41_Node000001_Node000030" class="edge">
<title>Node1&#45;&gt;Node30</title>
<g id="a_edge41_Node000001_Node000030"><a xlink:title=" ">
<path fill="none" stroke="#63b8ff" d="M144.6,-175.88C159.12,-175.88 174.29,-175.88 188.49,-175.88"/>
<polygon fill="#63b8ff" stroke="#63b8ff" points="188.12,-179.38 198.12,-175.88 188.12,-172.38 188.12,-179.38"/>
</a>
</g>
</g>
<!-- Node31 -->
<g id="Node000031" class="node">
<title>Node31</title>
<g id="a_Node000031"><a xlink:href="vheap__task_8h.html#abecb6e03f5c4faa424a02f82e707066a" target="_top" xlink:title=" ">
<polygon fill="white" stroke="#666666" points="317.38,-141.88 187.38,-141.88 187.38,-121.88 317.38,-121.88 317.38,-141.88"/>
<text text-anchor="middle" x="252.38" y="-128.38" font-family="Helvetica,sans-Serif" font-size="10.00">zrtos_vheap_task__is_idle</text>
</a>
</g>
</g>
<!-- Node1&#45;&gt;Node31 -->
<g id="edge42_Node000001_Node000031" class="edge">
<title>Node1&#45;&gt;Node31</title>
<g id="a_edge42_Node000001_Node000031"><a xlink:title=" ">
<path fill="none" stroke="#63b8ff" d="M139.75,-159.43C158.91,-154.7 179.56,-149.6 197.82,-145.1"/>
<polygon fill="#63b8ff" stroke="#63b8ff" points="198.51,-148.53 207.38,-142.74 196.84,-141.73 198.51,-148.53"/>
</a>
</g>
</g>
<!-- Node32 -->
<g id="Node000032" class="node">
<title>Node32</title>
<g id="a_Node000032"><a xlink:href="vheap__task_8h.html#a0ea9061da5e4ce4f8fd62f431a83242e" target="_top" xlink:title=" ">
<polygon fill="white" stroke="#666666" points="319.25,-103.88 185.5,-103.88 185.5,-83.88 319.25,-83.88 319.25,-103.88"/>
<text text-anchor="middle" x="252.38" y="-90.38" font-family="Helvetica,sans-Serif" font-size="10.00">zrtos_vheap_task__on_tick</text>
</a>
</g>
</g>
<!-- Node1&#45;&gt;Node32 -->
<g id="edge43_Node000001_Node000032" class="edge">
<title>Node1&#45;&gt;Node32</title>
<g id="a_edge43_Node000001_Node000032"><a xlink:title=" ">
<path fill="none" stroke="#63b8ff" d="M96.82,-159.4C117.9,-145.37 150,-125.54 180.25,-112.88 184.63,-111.04 189.23,-109.34 193.9,-107.78"/>
<polygon fill="#63b8ff" stroke="#63b8ff" points="194.91,-111.13 203.41,-104.81 192.82,-104.45 194.91,-111.13"/>
</a>
</g>
</g>
<!-- Node33 -->
<g id="Node000033" class="node">
<title>Node33</title>
<g id="a_Node000033"><a xlink:href="vheap__task__scheduler_8h.html#a99d7655ba93c186077c9de6a6f310c43" target="_top" xlink:title=" ">
<polygon fill="white" stroke="#666666" points="500.25,-200.88 360.5,-200.88 360.5,-168.88 500.25,-168.88 500.25,-200.88"/>
<text text-anchor="start" x="368.5" y="-187.38" font-family="Helvetica,sans-Serif" font-size="10.00">zrtos_vheap_task_scheduler</text>
<text text-anchor="middle" x="430.38" y="-175.38" font-family="Helvetica,sans-Serif" font-size="10.00">__has_enough_stack_space</text>
</a>
</g>
</g>
<!-- Node1&#45;&gt;Node33 -->
<g id="edge45_Node000001_Node000033" class="edge">
<title>Node1&#45;&gt;Node33</title>
<g id="a_edge45_Node000001_Node000033"><a xlink:title=" ">
<path fill="none" stroke="#63b8ff" d="M132.76,-192.34C148.11,-195.88 164.69,-199.09 180.25,-200.88 243.94,-208.21 260.57,-205.72 324.5,-200.88 332.45,-200.27 340.72,-199.42 348.96,-198.41"/>
<polygon fill="#63b8ff" stroke="#63b8ff" points="349.19,-201.91 358.66,-197.15 348.29,-194.97 349.19,-201.91"/>
</a>
</g>
</g>
<!-- Node4 -->
<g id="Node000004" class="node">
<title>Node4</title>
<g id="a_Node000004"><a xlink:href="vheap_8h.html#abe149f8bc1f24a77d03fb3e5e92a3886" target="_top" xlink:title=" ">
<polygon fill="white" stroke="#666666" points="490.5,-276.88 370.25,-276.88 370.25,-256.88 490.5,-256.88 490.5,-276.88"/>
<text text-anchor="middle" x="430.38" y="-263.38" font-family="Helvetica,sans-Serif" font-size="10.00">zrtos_vheap__get_by_id</text>
</a>
</g>
</g>
<!-- Node3&#45;&gt;Node4 -->
<g id="edge3_Node000003_Node000004" class="edge">
<title>Node3&#45;&gt;Node4</title>
<g id="a_edge3_Node000003_Node000004"><a xlink:title=" ">
<path fill="none" stroke="#63b8ff" d="M324.96,-266.28C336.05,-266.35 347.5,-266.41 358.57,-266.47"/>
<polygon fill="#63b8ff" stroke="#63b8ff" points="358.41,-269.97 368.43,-266.53 358.45,-262.97 358.41,-269.97"/>
</a>
</g>
</g>
<!-- Node3&#45;&gt;Node5 -->
<g id="edge4_Node000003_Node000005" class="edge">
<title>Node3&#45;&gt;Node5</title>
<g id="a_edge4_Node000003_Node000005"><a xlink:title=" ">
<path fill="none" stroke="#63b8ff" d="M324.91,-252.16C336.75,-250.38 348.94,-248.84 360.5,-247.88 480.04,-237.9 619.18,-240.61 704.67,-243.91"/>
<polygon fill="#63b8ff" stroke="#63b8ff" points="704.46,-247.4 714.6,-244.3 704.74,-240.41 704.46,-247.4"/>
</a>
</g>
</g>
<!-- Node6 -->
<g id="Node000006" class="node">
<title>Node6</title>
<g id="a_Node000006"><a xlink:href="vheap__task__scheduler_8h.html#ac3ceec0a4016b00c1670ddce858c6bac" target="_top" xlink:title=" ">
<polygon fill="white" stroke="#666666" points="499.88,-351.88 360.88,-351.88 360.88,-319.88 499.88,-319.88 499.88,-351.88"/>
<text text-anchor="start" x="368.88" y="-338.38" font-family="Helvetica,sans-Serif" font-size="10.00">zrtos_vheap_task_scheduler</text>
<text text-anchor="middle" x="430.38" y="-326.38" font-family="Helvetica,sans-Serif" font-size="10.00">__page_task_in</text>
</a>
</g>
</g>
<!-- Node3&#45;&gt;Node6 -->
<g id="edge5_Node000003_Node000006" class="edge">
<title>Node3&#45;&gt;Node6</title>
<g id="a_edge5_Node000003_Node000006"><a xlink:title=" ">
<path fill="none" stroke="#63b8ff" d="M301.36,-282.25C309.13,-285.04 317.06,-287.98 324.5,-290.88 343.55,-298.3 364.27,-307.05 382.23,-314.85"/>
<polygon fill="#63b8ff" stroke="#63b8ff" points="380.79,-318.04 391.35,-318.83 383.59,-311.62 380.79,-318.04"/>
</a>
</g>
</g>
<!-- Node22 -->
<g id="Node000022" class="node">
<title>Node22</title>
<g id="a_Node000022"><a xlink:href="vheap__task__scheduler_8h.html#aff9fd65d1ee753d63d6749a7d18ccb05" target="_top" xlink:title=" ">
<polygon fill="white" stroke="#666666" points="499.88,-637.88 360.88,-637.88 360.88,-605.88 499.88,-605.88 499.88,-637.88"/>
<text text-anchor="start" x="368.88" y="-624.38" font-family="Helvetica,sans-Serif" font-size="10.00">zrtos_vheap_task_scheduler</text>
<text text-anchor="middle" x="430.38" y="-612.38" font-family="Helvetica,sans-Serif" font-size="10.00">__page_task_out</text>
</a>
</g>
</g>
<!-- Node3&#45;&gt;Node22 -->
<g id="edge25_Node000003_Node000022" class="edge">
<title>Node3&#45;&gt;Node22</title>
<g id="a_edge25_Node000003_Node000022"><a xlink:title=" ">
<path fill="none" stroke="#63b8ff" d="M313.75,-282.25C317.67,-284.73 321.31,-287.59 324.5,-290.88 346.4,-313.47 402.36,-519.46 422.24,-594.6"/>
<polygon fill="#63b8ff" stroke="#63b8ff" points="418.79,-595.25 424.72,-604.03 425.56,-593.47 418.79,-595.25"/>
</a>
</g>
</g>
<!-- Node6&#45;&gt;Node5 -->
<g id="edge24_Node000006_Node000005" class="edge">
<title>Node6&#45;&gt;Node5</title>
<g id="a_edge24_Node000006_Node000005"><a xlink:title=" ">
<path fill="none" stroke="#63b8ff" d="M459.83,-319.49C480.42,-308.35 509.26,-294.17 536.25,-285.88 591.26,-268.97 655.53,-259.4 704.96,-254.09"/>
<polygon fill="#63b8ff" stroke="#63b8ff" points="705.13,-257.59 714.72,-253.08 704.41,-250.63 705.13,-257.59"/>
</a>
</g>
</g>
<!-- Node7 -->
<g id="Node000007" class="node">
<title>Node7</title>
<g id="a_Node000007"><a xlink:href="vheap__task__scheduler_8h.html#a525247f445d250b1eb2aff8eadaa0c87" target="_top" xlink:title=" ">
<polygon fill="white" stroke="#666666" points="680.5,-464.88 536.25,-464.88 536.25,-432.88 680.5,-432.88 680.5,-464.88"/>
<text text-anchor="start" x="544.25" y="-451.38" font-family="Helvetica,sans-Serif" font-size="10.00">_zrtos_vheap_task_scheduler</text>
<text text-anchor="middle" x="608.38" y="-439.38" font-family="Helvetica,sans-Serif" font-size="10.00">__get_active_task</text>
</a>
</g>
</g>
<!-- Node6&#45;&gt;Node7 -->
<g id="edge6_Node000006_Node000007" class="edge">
<title>Node6&#45;&gt;Node7</title>
<g id="a_edge6_Node000006_Node000007"><a xlink:title=" ">
<path fill="none" stroke="#63b8ff" d="M456.97,-352.31C487.34,-371.81 538.14,-404.42 572.19,-426.29"/>
<polygon fill="#63b8ff" stroke="#63b8ff" points="570.17,-429.15 580.48,-431.61 573.95,-423.26 570.17,-429.15"/>
</a>
</g>
</g>
<!-- Node11 -->
<g id="Node000011" class="node">
<title>Node11</title>
<g id="a_Node000011"><a xlink:href="vheap_8h.html#ad63813b8a0f34f7eef0cf65af8eb8289" target="_top" xlink:title=" ">
<polygon fill="white" stroke="#666666" points="664.38,-590.88 552.38,-590.88 552.38,-570.88 664.38,-570.88 664.38,-590.88"/>
<text text-anchor="middle" x="608.38" y="-577.38" font-family="Helvetica,sans-Serif" font-size="10.00">zrtos_vheap__page_in</text>
</a>
</g>
</g>
<!-- Node6&#45;&gt;Node11 -->
<g id="edge11_Node000006_Node000011" class="edge">
<title>Node6&#45;&gt;Node11</title>
<g id="a_edge11_Node000006_Node000011"><a xlink:title=" ">
<path fill="none" stroke="#63b8ff" d="M434.06,-352.12C441.82,-393.69 468.19,-504.7 536.25,-561.88 538.16,-563.48 540.19,-564.95 542.31,-566.29"/>
<polygon fill="#63b8ff" stroke="#63b8ff" points="540.3,-569.19 550.78,-570.74 543.55,-562.99 540.3,-569.19"/>
</a>
</g>
</g>
<!-- Node20 -->
<g id="Node000020" class="node">
<title>Node20</title>
<g id="a_Node000020"><a xlink:href="vheap__task_8h.html#a9a6382869bc3582f4c52e85d4915fea5" target="_top" xlink:title=" ">
<polygon fill="white" stroke="#666666" points="666.25,-376.88 550.5,-376.88 550.5,-344.88 666.25,-344.88 666.25,-376.88"/>
<text text-anchor="start" x="558.5" y="-363.38" font-family="Helvetica,sans-Serif" font-size="10.00">zrtos_vheap_task__get</text>
<text text-anchor="middle" x="608.38" y="-351.38" font-family="Helvetica,sans-Serif" font-size="10.00">_errno</text>
</a>
</g>
</g>
<!-- Node6&#45;&gt;Node20 -->
<g id="edge22_Node000006_Node000020" class="edge">
<title>Node6&#45;&gt;Node20</title>
<g id="a_edge22_Node000006_Node000020"><a xlink:title=" ">
<path fill="none" stroke="#63b8ff" d="M500.18,-345.65C512.93,-347.46 526.25,-349.35 538.98,-351.16"/>
<polygon fill="#63b8ff" stroke="#63b8ff" points="538.11,-354.57 548.5,-352.51 539.09,-347.64 538.11,-354.57"/>
</a>
</g>
</g>
<!-- Node21 -->
<g id="Node000021" class="node">
<title>Node21</title>
<g id="a_Node000021"><a xlink:href="vheap__task_8h.html#ab0321ff67d7684a511cd63a794c9b651" target="_top" xlink:title=" ">
<polygon fill="white" stroke="#666666" points="666.25,-326.88 550.5,-326.88 550.5,-294.88 666.25,-294.88 666.25,-326.88"/>
<text text-anchor="start" x="558.5" y="-313.38" font-family="Helvetica,sans-Serif" font-size="10.00">zrtos_vheap_task__get</text>
<text text-anchor="middle" x="608.38" y="-301.38" font-family="Helvetica,sans-Serif" font-size="10.00">_stack_ptr</text>
</a>
</g>
</g>
<!-- Node6&#45;&gt;Node21 -->
<g id="edge23_Node000006_Node000021" class="edge">
<title>Node6&#45;&gt;Node21</title>
<g id="a_edge23_Node000006_Node000021"><a xlink:title=" ">
<path fill="none" stroke="#63b8ff" d="M500.18,-326.1C512.93,-324.29 526.25,-322.4 538.98,-320.59"/>
<polygon fill="#63b8ff" stroke="#63b8ff" points="539.09,-324.11 548.5,-319.24 538.11,-317.18 539.09,-324.11"/>
</a>
</g>
</g>
<!-- Node7&#45;&gt;Node5 -->
<g id="edge10_Node000007_Node000005" class="edge">
<title>Node7&#45;&gt;Node5</title>
<g id="a_edge10_Node000007_Node000005"><a xlink:title=" ">
<path fill="none" stroke="#63b8ff" d="M659.52,-432.46C667.02,-428.7 674.3,-424.21 680.5,-418.88 693.01,-408.11 744.4,-319.32 770.15,-274.12"/>
<polygon fill="#63b8ff" stroke="#63b8ff" points="773.17,-275.89 775.07,-265.46 767.09,-272.43 773.17,-275.89"/>
</a>
</g>
</g>
<!-- Node8 -->
<g id="Node000008" class="node">
<title>Node8</title>
<g id="a_Node000008"><a xlink:href="types_8h.html#a1824c547b5262eed148a0bfac2912537" target="_top" xlink:title=" ">
<polygon fill="white" stroke="#666666" points="850.62,-399.88 721.38,-399.88 721.38,-379.88 850.62,-379.88 850.62,-399.88"/>
<text text-anchor="middle" x="786" y="-386.38" font-family="Helvetica,sans-Serif" font-size="10.00">zrtos_types__ptr_subtract</text>
</a>
</g>
</g>
<!-- Node7&#45;&gt;Node8 -->
<g id="edge7_Node000007_Node000008" class="edge">
<title>Node7&#45;&gt;Node8</title>
<g id="a_edge7_Node000007_Node000008"><a xlink:title=" ">
<path fill="none" stroke="#63b8ff" d="M650.8,-432.45C670.55,-424.87 694.6,-415.99 716.5,-408.88 722.22,-407.02 728.25,-405.18 734.26,-403.42"/>
<polygon fill="#63b8ff" stroke="#63b8ff" points="734.88,-406.88 743.53,-400.76 732.95,-400.15 734.88,-406.88"/>
</a>
</g>
</g>
<!-- Node9 -->
<g id="Node000009" class="node">
<title>Node9</title>
<g id="a_Node000009"><a xlink:href="vheap_8h.html#a9cff4e6aefa63154b78bcb1a5f442d72" target="_top" xlink:title=" ">
<polygon fill="white" stroke="#666666" points="842.38,-449.88 729.62,-449.88 729.62,-417.88 842.38,-417.88 842.38,-449.88"/>
<text text-anchor="start" x="737.62" y="-436.38" font-family="Helvetica,sans-Serif" font-size="10.00">zrtos_vheap__get_last</text>
<text text-anchor="middle" x="786" y="-424.38" font-family="Helvetica,sans-Serif" font-size="10.00">_address</text>
</a>
</g>
</g>
<!-- Node7&#45;&gt;Node9 -->
<g id="edge8_Node000007_Node000009" class="edge">
<title>Node7&#45;&gt;Node9</title>
<g id="a_edge8_Node000007_Node000009"><a xlink:title=" ">
<path fill="none" stroke="#63b8ff" d="M680.81,-442.78C693.04,-441.73 705.72,-440.65 717.83,-439.61"/>
<polygon fill="#63b8ff" stroke="#63b8ff" points="718.08,-443.11 727.74,-438.77 717.48,-436.13 718.08,-443.11"/>
</a>
</g>
</g>
<!-- Node10 -->
<g id="Node000010" class="node">
<title>Node10</title>
<g id="a_Node000010"><a xlink:href="types_8h.html#ab0b4ddf54b9e9f4a54504f833babbc1c" target="_top" xlink:title=" ">
<polygon fill="white" stroke="#666666" points="1308.5,-587.88 1198.75,-587.88 1198.75,-567.88 1308.5,-567.88 1308.5,-587.88"/>
<text text-anchor="middle" x="1253.62" y="-574.38" font-family="Helvetica,sans-Serif" font-size="10.00">zrtos_types__ptr_add</text>
</a>
</g>
</g>
<!-- Node9&#45;&gt;Node10 -->
<g id="edge9_Node000009_Node000010" class="edge">
<title>Node9&#45;&gt;Node10</title>
<g id="a_edge9_Node000009_Node000010"><a xlink:title=" ">
<path fill="none" stroke="#63b8ff" d="M842.72,-434.35C920.86,-437.59 1064.43,-453.21 1162.75,-520.88 1181.91,-534.07 1179.24,-546.21 1198.75,-558.88 1200.85,-560.24 1203.05,-561.51 1205.32,-562.71"/>
<polygon fill="#63b8ff" stroke="#63b8ff" points="1203.67,-565.8 1214.21,-566.81 1206.6,-559.44 1203.67,-565.8"/>
</a>
</g>
</g>
<!-- Node11&#45;&gt;Node10 -->
<g id="edge19_Node000011_Node000010" class="edge">
<title>Node11&#45;&gt;Node10</title>
<g id="a_edge19_Node000011_Node000010"><a xlink:title=" ">
<path fill="none" stroke="#63b8ff" d="M664.77,-580.62C783.13,-580.07 1060.17,-578.77 1187.06,-578.18"/>
<polygon fill="#63b8ff" stroke="#63b8ff" points="1187,-581.68 1196.98,-578.14 1186.97,-574.68 1187,-581.68"/>
</a>
</g>
</g>
<!-- Node12 -->
<g id="Node000012" class="node">
<title>Node12</title>
<g id="a_Node000012"><a xlink:href="vheap_8h.html#a807e6713ecdd9d455cb0d90d68a1b4ad" target="_top" xlink:title=" ">
<polygon fill="white" stroke="#666666" points="839,-499.88 733,-499.88 733,-467.88 839,-467.88 839,-499.88"/>
<text text-anchor="start" x="741" y="-486.38" font-family="Helvetica,sans-Serif" font-size="10.00">_zrtos_vheap__swap</text>
<text text-anchor="middle" x="786" y="-474.38" font-family="Helvetica,sans-Serif" font-size="10.00">_to_heap_end</text>
</a>
</g>
</g>
<!-- Node11&#45;&gt;Node12 -->
<g id="edge12_Node000011_Node000012" class="edge">
<title>Node11&#45;&gt;Node12</title>
<g id="a_edge12_Node000011_Node000012"><a xlink:title=" ">
<path fill="none" stroke="#63b8ff" d="M664.4,-570.52C670.11,-568.2 675.6,-565.35 680.5,-561.88 703.72,-545.39 694.04,-526.38 716.5,-508.88 718.49,-507.33 720.58,-505.87 722.75,-504.49"/>
<polygon fill="#63b8ff" stroke="#63b8ff" points="724.29,-507.64 731.34,-499.73 720.9,-501.52 724.29,-507.64"/>
</a>
</g>
</g>
<!-- Node17 -->
<g id="Node000017" class="node">
<title>Node17</title>
<g id="a_Node000017"><a xlink:href="vheap_8h.html#a53d9ca47afe3a2f353e12566c3c82a1d" target="_top" xlink:title=" ">
<polygon fill="white" stroke="#666666" points="842.38,-549.88 729.62,-549.88 729.62,-517.88 842.38,-517.88 842.38,-549.88"/>
<text text-anchor="start" x="737.62" y="-536.38" font-family="Helvetica,sans-Serif" font-size="10.00">_zrtos_vheap__update</text>
<text text-anchor="middle" x="786" y="-524.38" font-family="Helvetica,sans-Serif" font-size="10.00">_index_ptr</text>
</a>
</g>
</g>
<!-- Node11&#45;&gt;Node17 -->
<g id="edge18_Node000011_Node000017" class="edge">
<title>Node11&#45;&gt;Node17</title>
<g id="a_edge18_Node000011_Node000017"><a xlink:title=" ">
<path fill="none" stroke="#63b8ff" d="M648.51,-570.43C658.91,-567.65 670.13,-564.65 680.5,-561.88 692.71,-558.61 705.72,-555.13 718.27,-551.77"/>
<polygon fill="#63b8ff" stroke="#63b8ff" points="718.93,-555.21 727.68,-549.24 717.12,-548.45 718.93,-555.21"/>
</a>
</g>
</g>
<!-- Node18 -->
<g id="Node000018" class="node">
<title>Node18</title>
<g id="a_Node000018"><a xlink:href="types_8h.html#adbc4238237e656eb247fd49ffbfb1a6d" target="_top" xlink:title=" ">
<polygon fill="white" stroke="#666666" points="839.75,-637.88 732.25,-637.88 732.25,-605.88 839.75,-605.88 839.75,-637.88"/>
<text text-anchor="start" x="740.25" y="-624.38" font-family="Helvetica,sans-Serif" font-size="10.00">zrtos_types__ptr_get</text>
<text text-anchor="middle" x="786" y="-612.38" font-family="Helvetica,sans-Serif" font-size="10.00">_byte_distance</text>
</a>
</g>
</g>
<!-- Node11&#45;&gt;Node18 -->
<g id="edge20_Node000011_Node000018" class="edge">
<title>Node11&#45;&gt;Node18</title>
<g id="a_edge20_Node000011_Node000018"><a xlink:title=" ">
<path fill="none" stroke="#63b8ff" d="M654.15,-591.33C674.4,-596.06 698.72,-601.73 720.87,-606.9"/>
<polygon fill="#63b8ff" stroke="#63b8ff" points="719.87,-610.26 730.4,-609.13 721.46,-603.45 719.87,-610.26"/>
</a>
</g>
</g>
<!-- Node19 -->
<g id="Node000019" class="node">
<title>Node19</title>
<g id="a_Node000019"><a xlink:href="vheap__chunk_8h.html#a50f3da740523a69829e865dcaa7d77ad" target="_top" xlink:title=" ">
<polygon fill="white" stroke="#666666" points="838.25,-687.88 733.75,-687.88 733.75,-655.88 838.25,-655.88 838.25,-687.88"/>
<text text-anchor="start" x="741.75" y="-674.38" font-family="Helvetica,sans-Serif" font-size="10.00">zrtos_vheap_chunk_</text>
<text text-anchor="middle" x="786" y="-662.38" font-family="Helvetica,sans-Serif" font-size="10.00">_set_type</text>
</a>
</g>
</g>
<!-- Node11&#45;&gt;Node19 -->
<g id="edge21_Node000011_Node000019" class="edge">
<title>Node11&#45;&gt;Node19</title>
<g id="a_edge21_Node000011_Node000019"><a xlink:title=" ">
<path fill="none" stroke="#63b8ff" d="M624.08,-591.27C644.24,-605.21 681.9,-630.12 716.5,-646.88 719.54,-648.35 722.68,-649.78 725.88,-651.17"/>
<polygon fill="#63b8ff" stroke="#63b8ff" points="724.24,-654.28 734.82,-654.88 726.92,-647.81 724.24,-654.28"/>
</a>
</g>
</g>
<!-- Node13 -->
<g id="Node000013" class="node">
<title>Node13</title>
<g id="a_Node000013"><a xlink:href="mem_8h.html#a2e3d82e56bdea756a305d5ced180ca57" target="_top" xlink:title=" ">
<polygon fill="white" stroke="#666666" points="1011.38,-549.88 893.38,-549.88 893.38,-529.88 1011.38,-529.88 1011.38,-549.88"/>
<text text-anchor="middle" x="952.38" y="-536.38" font-family="Helvetica,sans-Serif" font-size="10.00">zrtos_mem__left_rotate</text>
</a>
</g>
</g>
<!-- Node12&#45;&gt;Node13 -->
<g id="edge13_Node000012_Node000013" class="edge">
<title>Node12&#45;&gt;Node13</title>
<g id="a_edge13_Node000012_Node000013"><a xlink:title=" ">
<path fill="none" stroke="#63b8ff" d="M835.43,-500.38C859.19,-508.47 887.51,-518.12 910.22,-525.85"/>
<polygon fill="#63b8ff" stroke="#63b8ff" points="908.84,-529.08 919.43,-528.99 911.1,-522.46 908.84,-529.08"/>
</a>
</g>
</g>
<!-- Node16 -->
<g id="Node000016" class="node">
<title>Node16</title>
<g id="a_Node000016"><a xlink:href="mem_8h.html#a1590269d1001c17c2c99725ef85f6386" target="_top" xlink:title=" ">
<polygon fill="white" stroke="#666666" points="1013.25,-499.88 891.5,-499.88 891.5,-467.88 1013.25,-467.88 1013.25,-499.88"/>
<text text-anchor="start" x="899.5" y="-486.38" font-family="Helvetica,sans-Serif" font-size="10.00">zrtos_mem__move_right</text>
<text text-anchor="middle" x="952.38" y="-474.38" font-family="Helvetica,sans-Serif" font-size="10.00">_overlapping</text>
</a>
</g>
</g>
<!-- Node12&#45;&gt;Node16 -->
<g id="edge17_Node000012_Node000016" class="edge">
<title>Node12&#45;&gt;Node16</title>
<g id="a_edge17_Node000012_Node000016"><a xlink:title=" ">
<path fill="none" stroke="#63b8ff" d="M839.46,-483.88C852.31,-483.88 866.27,-483.88 879.84,-483.88"/>
<polygon fill="#63b8ff" stroke="#63b8ff" points="879.6,-487.38 889.6,-483.88 879.6,-480.38 879.6,-487.38"/>
</a>
</g>
</g>
<!-- Node14 -->
<g id="Node000014" class="node">
<title>Node14</title>
<g id="a_Node000014"><a xlink:href="mem_8h.html#a76a7df82d207aef7d339f7ff95cce550" target="_top" xlink:title=" ">
<polygon fill="white" stroke="#666666" points="1162.75,-549.88 1049.25,-549.88 1049.25,-529.88 1162.75,-529.88 1162.75,-549.88"/>
<text text-anchor="middle" x="1106" y="-536.38" font-family="Helvetica,sans-Serif" font-size="10.00">zrtos_mem__swap_ex</text>
</a>
</g>
</g>
<!-- Node13&#45;&gt;Node14 -->
<g id="edge14_Node000013_Node000014" class="edge">
<title>Node13&#45;&gt;Node14</title>
<g id="a_edge14_Node000013_Node000014"><a xlink:title=" ">
<path fill="none" stroke="#63b8ff" d="M1011.56,-539.88C1020.16,-539.88 1029.07,-539.88 1037.83,-539.88"/>
<polygon fill="#63b8ff" stroke="#63b8ff" points="1037.7,-543.38 1047.7,-539.88 1037.7,-536.38 1037.7,-543.38"/>
</a>
</g>
</g>
<!-- Node14&#45;&gt;Node10 -->
<g id="edge16_Node000014_Node000010" class="edge">
<title>Node14&#45;&gt;Node10</title>
<g id="a_edge16_Node000014_Node000010"><a xlink:title=" ">
<path fill="none" stroke="#63b8ff" d="M1147.18,-550.36C1163.97,-554.74 1183.68,-559.89 1201.49,-564.53"/>
<polygon fill="#63b8ff" stroke="#63b8ff" points="1200.55,-567.91 1211.11,-567.04 1202.32,-561.13 1200.55,-567.91"/>
</a>
</g>
</g>
<!-- Node15 -->
<g id="Node000015" class="node">
<title>Node15</title>
<g id="a_Node000015"><a xlink:href="mem_8h.html#af7e65258e9f403545514aa561c040c71" target="_top" xlink:title="Swap len bytes of dest and src inplace.">
<polygon fill="white" stroke="#666666" points="1302.5,-549.88 1204.75,-549.88 1204.75,-529.88 1302.5,-529.88 1302.5,-549.88"/>
<text text-anchor="middle" x="1253.62" y="-536.38" font-family="Helvetica,sans-Serif" font-size="10.00">zrtos_mem__swap</text>
</a>
</g>
</g>
<!-- Node14&#45;&gt;Node15 -->
<g id="edge15_Node000014_Node000015" class="edge">
<title>Node14&#45;&gt;Node15</title>
<g id="a_edge15_Node000014_Node000015"><a xlink:title=" ">
<path fill="none" stroke="#63b8ff" d="M1162.89,-539.88C1172.91,-539.88 1183.39,-539.88 1193.5,-539.88"/>
<polygon fill="#63b8ff" stroke="#63b8ff" points="1193.2,-543.38 1203.2,-539.88 1193.2,-536.38 1193.2,-543.38"/>
</a>
</g>
</g>
<!-- Node22&#45;&gt;Node5 -->
<g id="edge40_Node000022_Node000005" class="edge">
<title>Node22&#45;&gt;Node5</title>
<g id="a_edge40_Node000022_Node000005"><a xlink:title=" ">
<path fill="none" stroke="#63b8ff" d="M435.26,-605.4C445.13,-567.29 474.84,-472.59 536.25,-423.88 588.19,-382.67 625.41,-422.77 680.5,-385.88 722.94,-357.45 755.09,-305.94 771.9,-274.53"/>
<polygon fill="#63b8ff" stroke="#63b8ff" points="775,-276.16 776.51,-265.67 768.79,-272.93 775,-276.16"/>
</a>
</g>
</g>
<!-- Node22&#45;&gt;Node7 -->
<g id="edge26_Node000022_Node000007" class="edge">
<title>Node22&#45;&gt;Node7</title>
<g id="a_edge26_Node000022_Node000007"><a xlink:title=" ">
<path fill="none" stroke="#63b8ff" d="M439.54,-605.49C454.81,-576.34 490.35,-515.14 536.25,-478.88 540.14,-475.8 544.39,-472.99 548.82,-470.43"/>
<polygon fill="#63b8ff" stroke="#63b8ff" points="550.16,-473.68 557.38,-465.92 546.9,-467.48 550.16,-473.68"/>
</a>
</g>
</g>
<!-- Node22&#45;&gt;Node9 -->
<g id="edge31_Node000022_Node000009" class="edge">
<title>Node22&#45;&gt;Node9</title>
<g id="a_edge31_Node000022_Node000009"><a xlink:title=" ">
<path fill="none" stroke="#63b8ff" d="M442.23,-605.74C459.34,-581.59 494.9,-536.29 536.25,-511.88 593.34,-478.17 617.7,-495.12 680.5,-473.88 696.92,-468.32 700.35,-465.18 716.5,-458.88 720.38,-457.36 724.4,-455.82 728.46,-454.29"/>
<polygon fill="#63b8ff" stroke="#63b8ff" points="729.64,-457.58 737.79,-450.8 727.19,-451.02 729.64,-457.58"/>
</a>
</g>
</g>
<!-- Node22&#45;&gt;Node18 -->
<g id="edge27_Node000022_Node000018" class="edge">
<title>Node22&#45;&gt;Node18</title>
<g id="a_edge27_Node000022_Node000018"><a xlink:title=" ">
<path fill="none" stroke="#63b8ff" d="M499.98,-621.88C563.79,-621.88 658.17,-621.88 720.6,-621.88"/>
<polygon fill="#63b8ff" stroke="#63b8ff" points="720.35,-625.38 730.35,-621.88 720.35,-618.38 720.35,-625.38"/>
</a>
</g>
</g>
<!-- Node23 -->
<g id="Node000023" class="node">
<title>Node23</title>
<g id="a_Node000023"><a xlink:href="vheap_8h.html#a73b1530334cc53fe2b1ed9e811ad16b7" target="_top" xlink:title=" ">
<polygon fill="white" stroke="#666666" points="662.12,-819.88 554.62,-819.88 554.62,-787.88 662.12,-787.88 662.12,-819.88"/>
<text text-anchor="start" x="562.62" y="-806.38" font-family="Helvetica,sans-Serif" font-size="10.00">zrtos_vheap__get_by</text>
<text text-anchor="middle" x="608.38" y="-794.38" font-family="Helvetica,sans-Serif" font-size="10.00">_type_ex</text>
</a>
</g>
</g>
<!-- Node22&#45;&gt;Node23 -->
<g id="edge28_Node000022_Node000023" class="edge">
<title>Node22&#45;&gt;Node23</title>
<g id="a_edge28_Node000022_Node000023"><a xlink:title=" ">
<path fill="none" stroke="#63b8ff" d="M444.68,-638.23C464.03,-661.7 501.44,-705.98 536.25,-740.88 549.69,-754.35 565.46,-768.48 578.74,-779.93"/>
<polygon fill="#63b8ff" stroke="#63b8ff" points="576.44,-782.57 586.31,-786.41 580.99,-777.25 576.44,-782.57"/>
</a>
</g>
</g>
<!-- Node26 -->
<g id="Node000026" class="node">
<title>Node26</title>
<g id="a_Node000026"><a xlink:href="vheap_8h.html#a7c64f185f189dd5e35dc36b22d1b0397" target="_top" xlink:title=" ">
<polygon fill="white" stroke="#666666" points="667.38,-681.88 549.38,-681.88 549.38,-661.88 667.38,-661.88 667.38,-681.88"/>
<text text-anchor="middle" x="608.38" y="-668.38" font-family="Helvetica,sans-Serif" font-size="10.00">zrtos_vheap__page_out</text>
</a>
</g>
</g>
<!-- Node22&#45;&gt;Node26 -->
<g id="edge32_Node000022_Node000026" class="edge">
<title>Node22&#45;&gt;Node26</title>
<g id="a_edge32_Node000022_Node000026"><a xlink:title=" ">
<path fill="none" stroke="#63b8ff" d="M489,-638.25C511.88,-644.75 537.88,-652.13 559.68,-658.33"/>
<polygon fill="#63b8ff" stroke="#63b8ff" points="558.62,-661.66 569.2,-661.03 560.53,-654.93 558.62,-661.66"/>
</a>
</g>
</g>
<!-- Node28 -->
<g id="Node000028" class="node">
<title>Node28</title>
<g id="a_Node000028"><a xlink:href="vheap__task_8h.html#a4916fc70f9461b91fd5c6c8186bbb8f0" target="_top" xlink:title=" ">
<polygon fill="white" stroke="#666666" points="666.25,-731.88 550.5,-731.88 550.5,-699.88 666.25,-699.88 666.25,-731.88"/>
<text text-anchor="start" x="558.5" y="-718.38" font-family="Helvetica,sans-Serif" font-size="10.00">zrtos_vheap_task__set</text>
<text text-anchor="middle" x="608.38" y="-706.38" font-family="Helvetica,sans-Serif" font-size="10.00">_errno</text>
</a>
</g>
</g>
<!-- Node22&#45;&gt;Node28 -->
<g id="edge38_Node000022_Node000028" class="edge">
<title>Node22&#45;&gt;Node28</title>
<g id="a_edge38_Node000022_Node000028"><a xlink:title=" ">
<path fill="none" stroke="#63b8ff" d="M452.93,-638.33C473.5,-653.46 505.78,-675.78 536.25,-690.88 539.16,-692.32 542.18,-693.72 545.26,-695.07"/>
<polygon fill="#63b8ff" stroke="#63b8ff" points="543.88,-698.29 554.46,-698.88 546.56,-691.82 543.88,-698.29"/>
</a>
</g>
</g>
<!-- Node29 -->
<g id="Node000029" class="node">
<title>Node29</title>
<g id="a_Node000029"><a xlink:href="vheap__task_8h.html#ab4203191e1dca81c750ca246d31fda8c" target="_top" xlink:title=" ">
<polygon fill="white" stroke="#666666" points="666.25,-869.88 550.5,-869.88 550.5,-837.88 666.25,-837.88 666.25,-869.88"/>
<text text-anchor="start" x="558.5" y="-856.38" font-family="Helvetica,sans-Serif" font-size="10.00">zrtos_vheap_task__set</text>
<text text-anchor="middle" x="608.38" y="-844.38" font-family="Helvetica,sans-Serif" font-size="10.00">_stack_ptr</text>
</a>
</g>
</g>
<!-- Node22&#45;&gt;Node29 -->
<g id="edge39_Node000022_Node000029" class="edge">
<title>Node22&#45;&gt;Node29</title>
<g id="a_edge39_Node000022_Node000029"><a xlink:title=" ">
<path fill="none" stroke="#63b8ff" d="M435.17,-638.17C444.99,-676.87 474.91,-775.09 536.25,-828.88 537.67,-830.12 539.16,-831.31 540.7,-832.43"/>
<polygon fill="#63b8ff" stroke="#63b8ff" points="538.41,-835.13 548.75,-837.47 542.13,-829.2 538.41,-835.13"/>
</a>
</g>
</g>
<!-- Node24 -->
<g id="Node000024" class="node">
<title>Node24</title>
<g id="a_Node000024"><a xlink:href="vheap_8h.html#a40019e160b773014a45fd5b8aa6ac436" target="_top" xlink:title=" ">
<polygon fill="white" stroke="#666666" points="851.75,-851.88 720.25,-851.88 720.25,-831.88 851.75,-831.88 851.75,-851.88"/>
<text text-anchor="middle" x="786" y="-838.38" font-family="Helvetica,sans-Serif" font-size="10.00">zrtos_vheap__get_by_type</text>
</a>
</g>
</g>
<!-- Node23&#45;&gt;Node24 -->
<g id="edge29_Node000023_Node000024" class="edge">
<title>Node23&#45;&gt;Node24</title>
<g id="a_edge29_Node000023_Node000024"><a xlink:title=" ">
<path fill="none" stroke="#63b8ff" d="M662.54,-815.38C682.39,-819.68 705.05,-824.58 725.44,-828.99"/>
<polygon fill="#63b8ff" stroke="#63b8ff" points="724.51,-832.37 735.02,-831.06 725.99,-825.53 724.51,-832.37"/>
</a>
</g>
</g>
<!-- Node25 -->
<g id="Node000025" class="node">
<title>Node25</title>
<g id="a_Node000025"><a xlink:href="vheap__chunk__type_8h.html#a3ba86ab73e8b4b86da90ba791d52bf27" target="_top" xlink:title=" ">
<polygon fill="white" stroke="#666666" points="847.62,-901.88 724.38,-901.88 724.38,-869.88 847.62,-869.88 847.62,-901.88"/>
<text text-anchor="start" x="732.38" y="-888.38" font-family="Helvetica,sans-Serif" font-size="10.00">zrtos_vheap_chunk_type</text>
<text text-anchor="middle" x="786" y="-876.38" font-family="Helvetica,sans-Serif" font-size="10.00">__init</text>
</a>
</g>
</g>
<!-- Node23&#45;&gt;Node25 -->
<g id="edge30_Node000023_Node000025" class="edge">
<title>Node23&#45;&gt;Node25</title>
<g id="a_edge30_Node000023_Node000025"><a xlink:title=" ">
<path fill="none" stroke="#63b8ff" d="M662.47,-819.94C668.71,-822.58 674.86,-825.55 680.5,-828.88 698.95,-839.74 698.12,-849.9 716.5,-860.88 718.66,-862.17 720.91,-863.41 723.2,-864.6"/>
<polygon fill="#63b8ff" stroke="#63b8ff" points="721.61,-867.72 732.15,-868.86 724.62,-861.4 721.61,-867.72"/>
</a>
</g>
</g>
<!-- Node26&#45;&gt;Node10 -->
<g id="edge35_Node000026_Node000010" class="edge">
<title>Node26&#45;&gt;Node10</title>
<g id="a_edge35_Node000026_Node000010"><a xlink:title=" ">
<path fill="none" stroke="#63b8ff" d="M658.48,-682.34C666.03,-684.7 673.6,-687.53 680.5,-690.88 698.49,-699.62 697.53,-711.55 716.5,-717.88 775.11,-737.41 794.61,-728.3 855.5,-717.88 997.13,-693.64 1155.39,-624.09 1221.24,-593.1"/>
<polygon fill="#63b8ff" stroke="#63b8ff" points="1222.46,-596.39 1230,-588.94 1219.46,-590.07 1222.46,-596.39"/>
</a>
</g>
</g>
<!-- Node26&#45;&gt;Node13 -->
<g id="edge33_Node000026_Node000013" class="edge">
<title>Node26&#45;&gt;Node13</title>
<g id="a_edge33_Node000026_Node000013"><a xlink:title=" ">
<path fill="none" stroke="#63b8ff" d="M644.72,-682.28C665.43,-687.83 692.22,-694.08 716.5,-696.88 777.87,-703.94 801.62,-727.1 855.5,-696.88 907.82,-667.52 934.98,-596.71 945.73,-561.09"/>
<polygon fill="#63b8ff" stroke="#63b8ff" points="949.08,-562.12 948.45,-551.54 942.35,-560.2 949.08,-562.12"/>
</a>
</g>
</g>
<!-- Node26&#45;&gt;Node18 -->
<g id="edge36_Node000026_Node000018" class="edge">
<title>Node26&#45;&gt;Node18</title>
<g id="a_edge36_Node000026_Node000018"><a xlink:title=" ">
<path fill="none" stroke="#63b8ff" d="M646.19,-661.39C667.83,-655.23 695.8,-647.27 720.95,-640.11"/>
<polygon fill="#63b8ff" stroke="#63b8ff" points="721.79,-643.51 730.45,-637.41 719.87,-636.78 721.79,-643.51"/>
</a>
</g>
</g>
<!-- Node26&#45;&gt;Node19 -->
<g id="edge37_Node000026_Node000019" class="edge">
<title>Node26&#45;&gt;Node19</title>
<g id="a_edge37_Node000026_Node000019"><a xlink:title=" ">
<path fill="none" stroke="#63b8ff" d="M667.86,-671.88C685.21,-671.88 704.29,-671.88 721.92,-671.88"/>
<polygon fill="#63b8ff" stroke="#63b8ff" points="721.75,-675.38 731.75,-671.88 721.75,-668.38 721.75,-675.38"/>
</a>
</g>
</g>
<!-- Node27 -->
<g id="Node000027" class="node">
<title>Node27</title>
<g id="a_Node000027"><a xlink:href="mem_8h.html#a9054cc3824c6ffdaf4ed24fde2f80f32" target="_top" xlink:title=" ">
<polygon fill="white" stroke="#666666" points="843.88,-813.88 728.12,-813.88 728.12,-781.88 843.88,-781.88 843.88,-813.88"/>
<text text-anchor="start" x="736.12" y="-800.38" font-family="Helvetica,sans-Serif" font-size="10.00">zrtos_mem__move_left</text>
<text text-anchor="middle" x="786" y="-788.38" font-family="Helvetica,sans-Serif" font-size="10.00">_overlapping</text>
</a>
</g>
</g>
<!-- Node26&#45;&gt;Node27 -->
<g id="edge34_Node000026_Node000027" class="edge">
<title>Node26&#45;&gt;Node27</title>
<g id="a_edge34_Node000026_Node000027"><a xlink:title=" ">
<path fill="none" stroke="#63b8ff" d="M666.76,-682.28C671.71,-684.6 676.38,-687.43 680.5,-690.88 709.46,-715.13 689.46,-741.49 716.5,-767.88 719.33,-770.63 722.45,-773.16 725.76,-775.47"/>
<polygon fill="#63b8ff" stroke="#63b8ff" points="723.83,-778.4 734.19,-780.64 727.49,-772.43 723.83,-778.4"/>
</a>
</g>
</g>
<!-- Node33&#45;&gt;Node5 -->
<g id="edge51_Node000033_Node000005" class="edge">
<title>Node33&#45;&gt;Node5</title>
<g id="a_edge51_Node000033_Node000005"><a xlink:title=" ">
<path fill="none" stroke="#63b8ff" d="M500.68,-189.74C550.99,-194.12 620.46,-201.9 680.5,-214.88 696.21,-218.27 712.94,-223.02 728.29,-227.86"/>
<polygon fill="#63b8ff" stroke="#63b8ff" points="727.17,-231.17 737.76,-230.92 729.32,-224.51 727.17,-231.17"/>
</a>
</g>
</g>
<!-- Node34 -->
<g id="Node000034" class="node">
<title>Node34</title>
<g id="a_Node000034"><a xlink:href="vheap_8h.html#ad2723df7cc03e8a85b5886b8fd2c2b4e" target="_top" xlink:title=" ">
<polygon fill="white" stroke="#666666" points="667.38,-552.88 549.38,-552.88 549.38,-520.88 667.38,-520.88 667.38,-552.88"/>
<text text-anchor="start" x="557.38" y="-539.38" font-family="Helvetica,sans-Serif" font-size="10.00">_zrtos_vheap__get_free</text>
<text text-anchor="middle" x="608.38" y="-527.38" font-family="Helvetica,sans-Serif" font-size="10.00">_space_ex</text>
</a>
</g>
</g>
<!-- Node33&#45;&gt;Node34 -->
<g id="edge46_Node000033_Node000034" class="edge">
<title>Node33&#45;&gt;Node34</title>
<g id="a_edge46_Node000033_Node000034"><a xlink:title=" ">
<path fill="none" stroke="#63b8ff" d="M456.38,-201.14C471.57,-212.39 489.95,-228.76 500.25,-247.88 548.47,-337.43 487.31,-384.71 536.25,-473.88 544.83,-489.5 558.84,-503.16 572.16,-513.73"/>
<polygon fill="#63b8ff" stroke="#63b8ff" points="569.9,-516.41 580,-519.63 574.11,-510.82 569.9,-516.41"/>
</a>
</g>
</g>
<!-- Node35 -->
<g id="Node000035" class="node">
<title>Node35</title>
<g id="a_Node000035"><a xlink:href="vheap__chunk_8h.html#a26bcd8779d88d67764f563058787008a" target="_top" xlink:title=" ">
<polygon fill="white" stroke="#666666" points="660.62,-162.88 556.12,-162.88 556.12,-130.88 660.62,-130.88 660.62,-162.88"/>
<text text-anchor="start" x="564.12" y="-149.38" font-family="Helvetica,sans-Serif" font-size="10.00">zrtos_vheap_chunk_</text>
<text text-anchor="middle" x="608.38" y="-137.38" font-family="Helvetica,sans-Serif" font-size="10.00">_get_length</text>
</a>
</g>
</g>
<!-- Node33&#45;&gt;Node35 -->
<g id="edge49_Node000033_Node000035" class="edge">
<title>Node33&#45;&gt;Node35</title>
<g id="a_edge49_Node000033_Node000035"><a xlink:title=" ">
<path fill="none" stroke="#63b8ff" d="M500.68,-169.91C515.18,-166.78 530.39,-163.5 544.63,-160.42"/>
<polygon fill="#63b8ff" stroke="#63b8ff" points="545.3,-163.86 554.33,-158.33 543.82,-157.02 545.3,-163.86"/>
</a>
</g>
</g>
<!-- Node36 -->
<g id="Node000036" class="node">
<title>Node36</title>
<g id="a_Node000036"><a xlink:href="vheap__task_8h.html#a896d233acb32ead8d7e1fd170a42aae3" target="_top" xlink:title=" ">
<polygon fill="white" stroke="#666666" points="666.25,-112.88 550.5,-112.88 550.5,-80.88 666.25,-80.88 666.25,-112.88"/>
<text text-anchor="start" x="558.5" y="-99.38" font-family="Helvetica,sans-Serif" font-size="10.00">zrtos_vheap_task__get</text>
<text text-anchor="middle" x="608.38" y="-87.38" font-family="Helvetica,sans-Serif" font-size="10.00">_stack_size_min</text>
</a>
</g>
</g>
<!-- Node33&#45;&gt;Node36 -->
<g id="edge50_Node000033_Node000036" class="edge">
<title>Node33&#45;&gt;Node36</title>
<g id="a_edge50_Node000033_Node000036"><a xlink:title=" ">
<path fill="none" stroke="#63b8ff" d="M455.6,-168.39C476.37,-154.73 507.42,-135.43 536.25,-121.88 539.51,-120.34 542.89,-118.85 546.32,-117.41"/>
<polygon fill="#63b8ff" stroke="#63b8ff" points="547.35,-120.77 555.33,-113.81 544.75,-114.27 547.35,-120.77"/>
</a>
</g>
</g>
<!-- Node34&#45;&gt;Node9 -->
<g id="edge48_Node000034_Node000009" class="edge">
<title>Node34&#45;&gt;Node9</title>
<g id="a_edge48_Node000034_Node000009"><a xlink:title=" ">
<path fill="none" stroke="#63b8ff" d="M657.98,-520.47C665.92,-516.67 673.74,-512.16 680.5,-506.88 701.51,-490.46 695.09,-474.77 716.5,-458.88 717.87,-457.86 719.28,-456.89 720.73,-455.95"/>
<polygon fill="#63b8ff" stroke="#63b8ff" points="722.45,-458.99 729.41,-451.01 718.99,-452.91 722.45,-458.99"/>
</a>
</g>
</g>
<!-- Node34&#45;&gt;Node18 -->
<g id="edge47_Node000034_Node000018" class="edge">
<title>Node34&#45;&gt;Node18</title>
<g id="a_edge47_Node000034_Node000018"><a xlink:title=" ">
<path fill="none" stroke="#63b8ff" d="M659.96,-553.37C666.94,-556.01 673.96,-558.88 680.5,-561.88 704.42,-572.83 730.05,-587.5 749.95,-599.6"/>
<polygon fill="#63b8ff" stroke="#63b8ff" points="747.86,-602.42 758.21,-604.68 751.53,-596.46 747.86,-602.42"/>
</a>
</g>
</g>
</g>
</svg>
