<?xml version="1.0" encoding="UTF-8" standalone="no"?>
<!DOCTYPE svg PUBLIC "-//W3C//DTD SVG 1.1//EN"
 "http://www.w3.org/Graphics/SVG/1.1/DTD/svg11.dtd">
<!-- Generated by graphviz version 10.0.1 (20240210.2158)
 -->
<!-- Title: _zrtos_vheap__swap_to_heap_end Pages: 1 -->
<svg width="567pt" height="97pt"
 viewBox="0.00 0.00 567.00 97.00" xmlns="http://www.w3.org/2000/svg" xmlns:xlink="http://www.w3.org/1999/xlink">
<g id="graph0" class="graph" transform="scale(1 1) rotate(0) translate(4 93)">
<title>_zrtos_vheap__swap_to_heap_end</title>
<!-- Node1 -->
<g id="Node000001" class="node">
<title>Node1</title>
<g id="a_Node000001"><a xlink:title=" ">
<polygon fill="#999999" stroke="#666666" points="106,-54 0,-54 0,-22 106,-22 106,-54"/>
<text text-anchor="start" x="8" y="-40.5" font-family="Helvetica,sans-Serif" font-size="10.00">_zrtos_vheap__swap</text>
<text text-anchor="middle" x="53" y="-28.5" font-family="Helvetica,sans-Serif" font-size="10.00">_to_heap_end</text>
</a>
</g>
</g>
<!-- Node2 -->
<g id="Node000002" class="node">
<title>Node2</title>
<g id="a_Node000002"><a xlink:href="mem_8h.html#a2e3d82e56bdea756a305d5ced180ca57" target="_top" xlink:title=" ">
<polygon fill="white" stroke="#666666" points="261.88,-70 143.88,-70 143.88,-50 261.88,-50 261.88,-70"/>
<text text-anchor="middle" x="202.88" y="-56.5" font-family="Helvetica,sans-Serif" font-size="10.00">zrtos_mem__left_rotate</text>
</a>
</g>
</g>
<!-- Node1&#45;&gt;Node2 -->
<g id="edge1_Node000001_Node000002" class="edge">
<title>Node1&#45;&gt;Node2</title>
<g id="a_edge1_Node000001_Node000002"><a xlink:title=" ">
<path fill="none" stroke="#63b8ff" d="M106.14,-45.76C114.52,-47 123.31,-48.31 132.03,-49.61"/>
<polygon fill="#63b8ff" stroke="#63b8ff" points="131.5,-53.07 141.91,-51.08 132.53,-46.15 131.5,-53.07"/>
</a>
</g>
</g>
<!-- Node6 -->
<g id="Node000006" class="node">
<title>Node6</title>
<g id="a_Node000006"><a xlink:href="mem_8h.html#a1590269d1001c17c2c99725ef85f6386" target="_top" xlink:title=" ">
<polygon fill="white" stroke="#666666" points="263.75,-32 142,-32 142,0 263.75,0 263.75,-32"/>
<text text-anchor="start" x="150" y="-18.5" font-family="Helvetica,sans-Serif" font-size="10.00">zrtos_mem__move_right</text>
<text text-anchor="middle" x="202.88" y="-6.5" font-family="Helvetica,sans-Serif" font-size="10.00">_overlapping</text>
</a>
</g>
</g>
<!-- Node1&#45;&gt;Node6 -->
<g id="edge5_Node000001_Node000006" class="edge">
<title>Node1&#45;&gt;Node6</title>
<g id="a_edge5_Node000001_Node000006"><a xlink:title=" ">
<path fill="none" stroke="#63b8ff" d="M106.14,-30.24C114.02,-29.07 122.28,-27.84 130.49,-26.62"/>
<polygon fill="#63b8ff" stroke="#63b8ff" points="130.75,-30.12 140.12,-25.19 129.72,-23.2 130.75,-30.12"/>
</a>
</g>
</g>
<!-- Node3 -->
<g id="Node000003" class="node">
<title>Node3</title>
<g id="a_Node000003"><a xlink:href="mem_8h.html#a76a7df82d207aef7d339f7ff95cce550" target="_top" xlink:title=" ">
<polygon fill="white" stroke="#666666" points="413.25,-70 299.75,-70 299.75,-50 413.25,-50 413.25,-70"/>
<text text-anchor="middle" x="356.5" y="-56.5" font-family="Helvetica,sans-Serif" font-size="10.00">zrtos_mem__swap_ex</text>
</a>
</g>
</g>
<!-- Node2&#45;&gt;Node3 -->
<g id="edge2_Node000002_Node000003" class="edge">
<title>Node2&#45;&gt;Node3</title>
<g id="a_edge2_Node000002_Node000003"><a xlink:title=" ">
<path fill="none" stroke="#63b8ff" d="M262.06,-60C270.66,-60 279.57,-60 288.33,-60"/>
<polygon fill="#63b8ff" stroke="#63b8ff" points="288.2,-63.5 298.2,-60 288.2,-56.5 288.2,-63.5"/>
</a>
</g>
</g>
<!-- Node4 -->
<g id="Node000004" class="node">
<title>Node4</title>
<g id="a_Node000004"><a xlink:href="mem_8h.html#af7e65258e9f403545514aa561c040c71" target="_top" xlink:title="Swap len bytes of dest and src inplace.">
<polygon fill="white" stroke="#666666" points="553,-89 455.25,-89 455.25,-69 553,-69 553,-89"/>
<text text-anchor="middle" x="504.12" y="-75.5" font-family="Helvetica,sans-Serif" font-size="10.00">zrtos_mem__swap</text>
</a>
</g>
</g>
<!-- Node3&#45;&gt;Node4 -->
<g id="edge3_Node000003_Node000004" class="edge">
<title>Node3&#45;&gt;Node4</title>
<g id="a_edge3_Node000003_Node000004"><a xlink:title=" ">
<path fill="none" stroke="#63b8ff" d="M413.39,-67.29C423.41,-68.6 433.89,-69.97 444,-71.29"/>
<polygon fill="#63b8ff" stroke="#63b8ff" points="443.35,-74.73 453.71,-72.55 444.25,-67.79 443.35,-74.73"/>
</a>
</g>
</g>
<!-- Node5 -->
<g id="Node000005" class="node">
<title>Node5</title>
<g id="a_Node000005"><a xlink:href="types_8h.html#ab0b4ddf54b9e9f4a54504f833babbc1c" target="_top" xlink:title=" ">
<polygon fill="white" stroke="#666666" points="559,-51 449.25,-51 449.25,-31 559,-31 559,-51"/>
<text text-anchor="middle" x="504.12" y="-37.5" font-family="Helvetica,sans-Serif" font-size="10.00">zrtos_types__ptr_add</text>
</a>
</g>
</g>
<!-- Node3&#45;&gt;Node5 -->
<g id="edge4_Node000003_Node000005" class="edge">
<title>Node3&#45;&gt;Node5</title>
<g id="a_edge4_Node000003_Node000005"><a xlink:title=" ">
<path fill="none" stroke="#63b8ff" d="M413.39,-52.71C421.35,-51.67 429.59,-50.59 437.71,-49.53"/>
<polygon fill="#63b8ff" stroke="#63b8ff" points="438.1,-53.01 447.57,-48.25 437.2,-46.07 438.1,-53.01"/>
</a>
</g>
</g>
</g>
</svg>
