<?xml version="1.0" encoding="UTF-8" standalone="no"?>
<!DOCTYPE svg PUBLIC "-//W3C//DTD SVG 1.1//EN"
 "http://www.w3.org/Graphics/SVG/1.1/DTD/svg11.dtd">
<!-- Generated by graphviz version 2.40.1 (20161225.0304)
 -->
<!-- Title: zrtos_vheap__free Pages: 1 -->
<svg width="603pt" height="66pt"
 viewBox="0.00 0.00 603.00 66.00" xmlns="http://www.w3.org/2000/svg" xmlns:xlink="http://www.w3.org/1999/xlink">
<g id="graph0" class="graph" transform="scale(1 1) rotate(0) translate(4 62)">
<title>zrtos_vheap__free</title>
<polygon fill="#ffffff" stroke="transparent" points="-4,4 -4,-62 599,-62 599,4 -4,4"/>
<!-- Node72 -->
<g id="node1" class="node">
<title>Node72</title>
<polygon fill="#bfbfbf" stroke="#000000" points="0,-19.5 0,-38.5 97,-38.5 97,-19.5 0,-19.5"/>
<text text-anchor="middle" x="48.5" y="-26.5" font-family="Helvetica,sans-Serif" font-size="10.00" fill="#000000">zrtos_vheap__free</text>
</g>
<!-- Node73 -->
<g id="node2" class="node">
<title>Node73</title>
<g id="a_node2"><a xlink:href="vheap_8h.html#ad64ed97d65218c007f9548e0f1adb82f" target="_top" xlink:title="zrtos_vheap__get_by_id">
<polygon fill="#ffffff" stroke="#000000" points="133,-38.5 133,-57.5 255,-57.5 255,-38.5 133,-38.5"/>
<text text-anchor="middle" x="194" y="-45.5" font-family="Helvetica,sans-Serif" font-size="10.00" fill="#000000">zrtos_vheap__get_by_id</text>
</a>
</g>
</g>
<!-- Node72&#45;&gt;Node73 -->
<g id="edge1" class="edge">
<title>Node72&#45;&gt;Node73</title>
<path fill="none" stroke="#191970" d="M97.3542,-35.3796C105.5428,-36.4489 114.1858,-37.5775 122.7999,-38.7024"/>
<polygon fill="#191970" stroke="#191970" points="122.5007,-42.193 132.8697,-40.0174 123.4071,-35.2519 122.5007,-42.193"/>
</g>
<!-- Node74 -->
<g id="node3" class="node">
<title>Node74</title>
<g id="a_node3"><a xlink:href="vheap_8h.html#a9b492c659e97e04a4c480621cf8ea4fa" target="_top" xlink:title="_zrtos_vheap__free">
<polygon fill="#ffffff" stroke="#000000" points="143,-.5 143,-19.5 245,-19.5 245,-.5 143,-.5"/>
<text text-anchor="middle" x="194" y="-7.5" font-family="Helvetica,sans-Serif" font-size="10.00" fill="#000000">_zrtos_vheap__free</text>
</a>
</g>
</g>
<!-- Node72&#45;&gt;Node74 -->
<g id="edge2" class="edge">
<title>Node72&#45;&gt;Node74</title>
<path fill="none" stroke="#191970" d="M97.3542,-22.6204C108.5923,-21.1529 120.6862,-19.5736 132.3865,-18.0458"/>
<polygon fill="#191970" stroke="#191970" points="133.0732,-21.4859 142.5358,-16.7204 132.1667,-14.5448 133.0732,-21.4859"/>
</g>
<!-- Node75 -->
<g id="node4" class="node">
<title>Node75</title>
<g id="a_node4"><a xlink:href="vheap_8h.html#a68ab37710064e12145e5786f254b865f" target="_top" xlink:title="zrtos_vheap__get_child">
<polygon fill="#ffffff" stroke="#000000" points="291,-.5 291,-19.5 410,-19.5 410,-.5 291,-.5"/>
<text text-anchor="middle" x="350.5" y="-7.5" font-family="Helvetica,sans-Serif" font-size="10.00" fill="#000000">zrtos_vheap__get_child</text>
</a>
</g>
</g>
<!-- Node74&#45;&gt;Node75 -->
<g id="edge3" class="edge">
<title>Node74&#45;&gt;Node75</title>
<path fill="none" stroke="#191970" d="M245.244,-10C256.6656,-10 268.9622,-10 280.9806,-10"/>
<polygon fill="#191970" stroke="#191970" points="280.9854,-13.5001 290.9853,-10 280.9853,-6.5001 280.9854,-13.5001"/>
</g>
<!-- Node76 -->
<g id="node5" class="node">
<title>Node76</title>
<g id="a_node5"><a xlink:href="vheap__chunk__uid_8h.html#a5ea1de04848149211440781876259490" target="_top" xlink:title="zrtos_vheap_chunk_uid__cmp">
<polygon fill="#ffffff" stroke="#000000" points="446,-.5 446,-19.5 595,-19.5 595,-.5 446,-.5"/>
<text text-anchor="middle" x="520.5" y="-7.5" font-family="Helvetica,sans-Serif" font-size="10.00" fill="#000000">zrtos_vheap_chunk_uid__cmp</text>
</a>
</g>
</g>
<!-- Node75&#45;&gt;Node76 -->
<g id="edge4" class="edge">
<title>Node75&#45;&gt;Node76</title>
<path fill="none" stroke="#191970" d="M410.4356,-10C418.6806,-10 427.2711,-10 435.8568,-10"/>
<polygon fill="#191970" stroke="#191970" points="435.9124,-13.5001 445.9123,-10 435.9123,-6.5001 435.9124,-13.5001"/>
</g>
</g>
</svg>
