<?xml version="1.0" encoding="UTF-8" standalone="no"?>
<!DOCTYPE svg PUBLIC "-//W3C//DTD SVG 1.1//EN"
 "http://www.w3.org/Graphics/SVG/1.1/DTD/svg11.dtd">
<!-- Generated by graphviz version 2.40.1 (20161225.0304)
 -->
<!-- Title: zrtos_vheap__page_in Pages: 1 -->
<svg width="1127pt" height="113pt"
 viewBox="0.00 0.00 1127.00 113.00" xmlns="http://www.w3.org/2000/svg" xmlns:xlink="http://www.w3.org/1999/xlink">
<g id="graph0" class="graph" transform="scale(1 1) rotate(0) translate(4 109)">
<title>zrtos_vheap__page_in</title>
<polygon fill="#ffffff" stroke="transparent" points="-4,4 -4,-109 1123,-109 1123,4 -4,4"/>
<!-- Node187 -->
<g id="node1" class="node">
<title>Node187</title>
<polygon fill="#bfbfbf" stroke="#000000" points="0,-30 0,-49 114,-49 114,-30 0,-30"/>
<text text-anchor="middle" x="57" y="-37" font-family="Helvetica,sans-Serif" font-size="10.00" fill="#000000">zrtos_vheap__page_in</text>
</g>
<!-- Node188 -->
<g id="node2" class="node">
<title>Node188</title>
<g id="a_node2"><a xlink:href="vheap__task__scheduler_8h.html#ac3ceec0a4016b00c1670ddce858c6bac" target="_top" xlink:title="zrtos_vheap_task_scheduler\l__page_task_in">
<polygon fill="#ffffff" stroke="#000000" points="150,-24.5 150,-54.5 291,-54.5 291,-24.5 150,-24.5"/>
<text text-anchor="start" x="158" y="-42.5" font-family="Helvetica,sans-Serif" font-size="10.00" fill="#000000">zrtos_vheap_task_scheduler</text>
<text text-anchor="middle" x="220.5" y="-31.5" font-family="Helvetica,sans-Serif" font-size="10.00" fill="#000000">__page_task_in</text>
</a>
</g>
</g>
<!-- Node187&#45;&gt;Node188 -->
<g id="edge1" class="edge">
<title>Node187&#45;&gt;Node188</title>
<path fill="none" stroke="#191970" d="M124.321,-39.5C132.7375,-39.5 141.3646,-39.5 149.8302,-39.5"/>
<polygon fill="#191970" stroke="#191970" points="124.1844,-36.0001 114.1844,-39.5 124.1843,-43.0001 124.1844,-36.0001"/>
</g>
<!-- Node189 -->
<g id="node3" class="node">
<title>Node189</title>
<g id="a_node3"><a xlink:href="vheap__task__scheduler_8h.html#af69e917ca8bd27891eb335dda8289faf" target="_top" xlink:title="_zrtos_vheap_task_scheduler\l__set_active_task">
<polygon fill="#ffffff" stroke="#000000" points="327,-49.5 327,-79.5 473,-79.5 473,-49.5 327,-49.5"/>
<text text-anchor="start" x="335" y="-67.5" font-family="Helvetica,sans-Serif" font-size="10.00" fill="#000000">_zrtos_vheap_task_scheduler</text>
<text text-anchor="middle" x="400" y="-56.5" font-family="Helvetica,sans-Serif" font-size="10.00" fill="#000000">__set_active_task</text>
</a>
</g>
</g>
<!-- Node188&#45;&gt;Node189 -->
<g id="edge2" class="edge">
<title>Node188&#45;&gt;Node189</title>
<path fill="none" stroke="#191970" d="M301.1244,-50.729C309.6503,-51.9165 318.2872,-53.1194 326.723,-54.2943"/>
<polygon fill="#191970" stroke="#191970" points="301.5727,-47.2578 291.1855,-49.3448 300.6071,-54.1908 301.5727,-47.2578"/>
</g>
<!-- Node195 -->
<g id="node9" class="node">
<title>Node195</title>
<g id="a_node9"><a xlink:href="vheap__task__scheduler_8h.html#add5545a77a9d66f232fa03da168ca02f" target="_top" xlink:title="zrtos_vheap_task_scheduler\l__start">
<polygon fill="#ffffff" stroke="#000000" points="329.5,-.5 329.5,-30.5 470.5,-30.5 470.5,-.5 329.5,-.5"/>
<text text-anchor="start" x="337.5" y="-18.5" font-family="Helvetica,sans-Serif" font-size="10.00" fill="#000000">zrtos_vheap_task_scheduler</text>
<text text-anchor="middle" x="400" y="-7.5" font-family="Helvetica,sans-Serif" font-size="10.00" fill="#000000">__start</text>
</a>
</g>
</g>
<!-- Node188&#45;&gt;Node195 -->
<g id="edge8" class="edge">
<title>Node188&#45;&gt;Node195</title>
<path fill="none" stroke="#191970" d="M301.2833,-28.6989C310.6549,-27.4459 320.1581,-26.1752 329.3789,-24.9424"/>
<polygon fill="#191970" stroke="#191970" points="300.6334,-25.2545 291.1855,-30.049 301.5612,-32.1928 300.6334,-25.2545"/>
</g>
<!-- Node190 -->
<g id="node4" class="node">
<title>Node190</title>
<g id="a_node4"><a xlink:href="vheap__task__scheduler_8h.html#a1a1be02692a671c368f4e2335179a042" target="_top" xlink:title="_zrtos_vheap_task_scheduler\l__switch_task">
<polygon fill="#ffffff" stroke="#000000" points="509,-49.5 509,-79.5 655,-79.5 655,-49.5 509,-49.5"/>
<text text-anchor="start" x="517" y="-67.5" font-family="Helvetica,sans-Serif" font-size="10.00" fill="#000000">_zrtos_vheap_task_scheduler</text>
<text text-anchor="middle" x="582" y="-56.5" font-family="Helvetica,sans-Serif" font-size="10.00" fill="#000000">__switch_task</text>
</a>
</g>
</g>
<!-- Node189&#45;&gt;Node190 -->
<g id="edge3" class="edge">
<title>Node189&#45;&gt;Node190</title>
<path fill="none" stroke="#191970" d="M483.516,-64.5C491.9925,-64.5 500.5562,-64.5 508.9103,-64.5"/>
<polygon fill="#191970" stroke="#191970" points="483.2397,-61.0001 473.2397,-64.5 483.2396,-68.0001 483.2397,-61.0001"/>
</g>
<!-- Node191 -->
<g id="node5" class="node">
<title>Node191</title>
<g id="a_node5"><a xlink:href="vheap__task__scheduler_8h.html#acd810187c2b0b8d63548170c9da4b73d" target="_top" xlink:title="_zrtos_vheap_task_scheduler\l__on_tick">
<polygon fill="#ffffff" stroke="#000000" points="691,-49.5 691,-79.5 837,-79.5 837,-49.5 691,-49.5"/>
<text text-anchor="start" x="699" y="-67.5" font-family="Helvetica,sans-Serif" font-size="10.00" fill="#000000">_zrtos_vheap_task_scheduler</text>
<text text-anchor="middle" x="764" y="-56.5" font-family="Helvetica,sans-Serif" font-size="10.00" fill="#000000">__on_tick</text>
</a>
</g>
</g>
<!-- Node190&#45;&gt;Node191 -->
<g id="edge4" class="edge">
<title>Node190&#45;&gt;Node191</title>
<path fill="none" stroke="#191970" d="M665.516,-64.5C673.9925,-64.5 682.5562,-64.5 690.9103,-64.5"/>
<polygon fill="#191970" stroke="#191970" points="665.2397,-61.0001 655.2397,-64.5 665.2396,-68.0001 665.2397,-61.0001"/>
</g>
<!-- Node192 -->
<g id="node6" class="node">
<title>Node192</title>
<g id="a_node6"><a xlink:href="vheap__task__scheduler_8h.html#a51ae476e29565ebfde1ec3340150ca06" target="_top" xlink:title="zrtos_vheap_task_scheduler\l__delay_ms">
<polygon fill="#ffffff" stroke="#000000" points="873,-74.5 873,-104.5 1014,-104.5 1014,-74.5 873,-74.5"/>
<text text-anchor="start" x="881" y="-92.5" font-family="Helvetica,sans-Serif" font-size="10.00" fill="#000000">zrtos_vheap_task_scheduler</text>
<text text-anchor="middle" x="943.5" y="-81.5" font-family="Helvetica,sans-Serif" font-size="10.00" fill="#000000">__delay_ms</text>
</a>
</g>
</g>
<!-- Node191&#45;&gt;Node192 -->
<g id="edge5" class="edge">
<title>Node191&#45;&gt;Node192</title>
<path fill="none" stroke="#191970" d="M847.0772,-76.0706C855.7021,-77.2719 864.4097,-78.4846 872.8789,-79.6642"/>
<polygon fill="#191970" stroke="#191970" points="847.3968,-72.5814 837.0095,-74.6685 846.4311,-79.5145 847.3968,-72.5814"/>
</g>
<!-- Node194 -->
<g id="node8" class="node">
<title>Node194</title>
<g id="a_node8"><a xlink:href="vheap__task__scheduler_8h.html#a3734a190668294fe1e91009e3cf6f72a" target="_top" xlink:title="zrtos_vheap_task_scheduler\l__trampoline_cb">
<polygon fill="#ffffff" stroke="#000000" points="873,-25.5 873,-55.5 1014,-55.5 1014,-25.5 873,-25.5"/>
<text text-anchor="start" x="881" y="-43.5" font-family="Helvetica,sans-Serif" font-size="10.00" fill="#000000">zrtos_vheap_task_scheduler</text>
<text text-anchor="middle" x="943.5" y="-32.5" font-family="Helvetica,sans-Serif" font-size="10.00" fill="#000000">__trampoline_cb</text>
</a>
</g>
</g>
<!-- Node191&#45;&gt;Node194 -->
<g id="edge7" class="edge">
<title>Node191&#45;&gt;Node194</title>
<path fill="none" stroke="#191970" d="M847.0772,-53.3922C855.7021,-52.239 864.4097,-51.0747 872.8789,-49.9424"/>
<polygon fill="#191970" stroke="#191970" points="846.4574,-49.9438 837.0095,-54.7383 847.3852,-56.8821 846.4574,-49.9438"/>
</g>
<!-- Node193 -->
<g id="node7" class="node">
<title>Node193</title>
<g id="a_node7"><a xlink:href="vheap__task__pthread_8h.html#a28a15bba47cab57cbc9f5dac9af99c8b" target="_top" xlink:title="pthread_join">
<polygon fill="#ffffff" stroke="#000000" points="1050,-80 1050,-99 1119,-99 1119,-80 1050,-80"/>
<text text-anchor="middle" x="1084.5" y="-87" font-family="Helvetica,sans-Serif" font-size="10.00" fill="#000000">pthread_join</text>
</a>
</g>
</g>
<!-- Node192&#45;&gt;Node193 -->
<g id="edge6" class="edge">
<title>Node192&#45;&gt;Node193</title>
<path fill="none" stroke="#191970" d="M1024.5043,-89.5C1033.384,-89.5 1042.0363,-89.5 1049.8806,-89.5"/>
<polygon fill="#191970" stroke="#191970" points="1024.4131,-86.0001 1014.4131,-89.5 1024.413,-93.0001 1024.4131,-86.0001"/>
</g>
</g>
</svg>
