<?xml version="1.0" encoding="UTF-8" standalone="no"?>
<!DOCTYPE svg PUBLIC "-//W3C//DTD SVG 1.1//EN"
 "http://www.w3.org/Graphics/SVG/1.1/DTD/svg11.dtd">
<!-- Generated by graphviz version 10.0.1 (20240210.2158)
 -->
<!-- Title: zrtos_vm__icall Pages: 1 -->
<svg width="409pt" height="103pt"
 viewBox="0.00 0.00 408.50 103.00" xmlns="http://www.w3.org/2000/svg" xmlns:xlink="http://www.w3.org/1999/xlink">
<g id="graph0" class="graph" transform="scale(1 1) rotate(0) translate(4 99)">
<title>zrtos_vm__icall</title>
<!-- Node1 -->
<g id="Node000001" class="node">
<title>Node1</title>
<g id="a_Node000001"><a xlink:title=" ">
<polygon fill="#999999" stroke="#666666" points="82.75,-64 0,-64 0,-44 82.75,-44 82.75,-64"/>
<text text-anchor="middle" x="41.38" y="-50.5" font-family="Helvetica,sans-Serif" font-size="10.00">zrtos_vm__icall</text>
</a>
</g>
</g>
<!-- Node2 -->
<g id="Node000002" class="node">
<title>Node2</title>
<g id="a_Node000002"><a xlink:href="vm__function_8h.html#afa6afdd7c3796f4013f14fa2d2285ad5" target="_top" xlink:title=" ">
<polygon fill="white" stroke="#666666" points="229.62,-95 130.38,-95 130.38,-63 229.62,-63 229.62,-95"/>
<text text-anchor="start" x="138.38" y="-81.5" font-family="Helvetica,sans-Serif" font-size="10.00">zrtos_vm_function_</text>
<text text-anchor="middle" x="180" y="-69.5" font-family="Helvetica,sans-Serif" font-size="10.00">_get_callback</text>
</a>
</g>
</g>
<!-- Node1&#45;&gt;Node2 -->
<g id="edge1_Node000001_Node000002" class="edge">
<title>Node1&#45;&gt;Node2</title>
<g id="a_edge1_Node000001_Node000002"><a xlink:title=" ">
<path fill="none" stroke="#63b8ff" d="M83,-61.43C94.32,-63.5 106.86,-65.8 119.05,-68.03"/>
<polygon fill="#63b8ff" stroke="#63b8ff" points="118.13,-71.42 128.6,-69.78 119.39,-64.53 118.13,-71.42"/>
</a>
</g>
</g>
<!-- Node3 -->
<g id="Node000003" class="node">
<title>Node3</title>
<g id="a_Node000003"><a xlink:href="vm__function__index_8h.html#ac1e14e6160e751c15e1c3a35bac559f5" target="_top" xlink:title=" ">
<polygon fill="white" stroke="#666666" points="241.25,-45 118.75,-45 118.75,-13 241.25,-13 241.25,-45"/>
<text text-anchor="start" x="126.75" y="-31.5" font-family="Helvetica,sans-Serif" font-size="10.00">zrtos_vm_function_index</text>
<text text-anchor="middle" x="180" y="-19.5" font-family="Helvetica,sans-Serif" font-size="10.00">__get_function</text>
</a>
</g>
</g>
<!-- Node1&#45;&gt;Node3 -->
<g id="edge2_Node000001_Node000003" class="edge">
<title>Node1&#45;&gt;Node3</title>
<g id="a_edge2_Node000001_Node000003"><a xlink:title=" ">
<path fill="none" stroke="#63b8ff" d="M83,-46.57C90.62,-45.17 98.8,-43.67 107.05,-42.17"/>
<polygon fill="#63b8ff" stroke="#63b8ff" points="107.6,-45.62 116.81,-40.38 106.34,-38.74 107.6,-45.62"/>
</a>
</g>
</g>
<!-- Node4 -->
<g id="Node000004" class="node">
<title>Node4</title>
<g id="a_Node000004"><a xlink:href="mem_8h.html#aab5ba8aca3f57d2f28ec20b9ae5dceaf" target="_top" xlink:title=" ">
<polygon fill="white" stroke="#666666" points="391.12,-58 286.62,-58 286.62,-38 391.12,-38 391.12,-58"/>
<text text-anchor="middle" x="338.88" y="-44.5" font-family="Helvetica,sans-Serif" font-size="10.00">zrtos_mem__search</text>
</a>
</g>
</g>
<!-- Node3&#45;&gt;Node4 -->
<g id="edge3_Node000003_Node000004" class="edge">
<title>Node3&#45;&gt;Node4</title>
<g id="a_edge3_Node000003_Node000004"><a xlink:title=" ">
<path fill="none" stroke="#63b8ff" d="M241.65,-36.35C252.59,-37.67 264.02,-39.06 275.03,-40.39"/>
<polygon fill="#63b8ff" stroke="#63b8ff" points="274.45,-43.84 284.8,-41.57 275.29,-36.89 274.45,-43.84"/>
</a>
</g>
</g>
<!-- Node5 -->
<g id="Node000005" class="node">
<title>Node5</title>
<g id="a_Node000005"><a xlink:href="vm__function_8h.html#a186820ec779e59081b10e3a45b708613" target="_top" xlink:title=" ">
<polygon fill="white" stroke="#666666" points="400.5,-20 277.25,-20 277.25,0 400.5,0 400.5,-20"/>
<text text-anchor="middle" x="338.88" y="-6.5" font-family="Helvetica,sans-Serif" font-size="10.00">zrtos_vm_function__cmp</text>
</a>
</g>
</g>
<!-- Node3&#45;&gt;Node5 -->
<g id="edge4_Node000003_Node000005" class="edge">
<title>Node3&#45;&gt;Node5</title>
<g id="a_edge4_Node000003_Node000005"><a xlink:title=" ">
<path fill="none" stroke="#63b8ff" d="M241.65,-21.65C249.5,-20.7 257.61,-19.72 265.63,-18.75"/>
<polygon fill="#63b8ff" stroke="#63b8ff" points="265.86,-22.25 275.36,-17.57 265.02,-15.3 265.86,-22.25"/>
</a>
</g>
</g>
</g>
</svg>
