<?xml version="1.0" encoding="UTF-8" standalone="no"?>
<!DOCTYPE svg PUBLIC "-//W3C//DTD SVG 1.1//EN"
 "http://www.w3.org/Graphics/SVG/1.1/DTD/svg11.dtd">
<!-- Generated by graphviz version 2.40.1 (20161225.0304)
 -->
<!-- Title: vm.h Pages: 1 -->
<svg width="1008pt" height="319pt"
 viewBox="0.00 0.00 1008.26 319.00" xmlns="http://www.w3.org/2000/svg" xmlns:xlink="http://www.w3.org/1999/xlink">
<g id="graph0" class="graph" transform="scale(1 1) rotate(0) translate(4 315)">
<title>vm.h</title>
<polygon fill="#ffffff" stroke="transparent" points="-4,4 -4,-315 1004.2574,-315 1004.2574,4 -4,4"/>
<!-- Node0 -->
<g id="node1" class="node">
<title>Node0</title>
<polygon fill="#bfbfbf" stroke="#000000" points="686.7574,-291.5 686.7574,-310.5 724.7574,-310.5 724.7574,-291.5 686.7574,-291.5"/>
<text text-anchor="middle" x="705.7574" y="-298.5" font-family="Helvetica,sans-Serif" font-size="10.00" fill="#000000">vm.h</text>
</g>
<!-- Node1 -->
<g id="node2" class="node">
<title>Node1</title>
<g id="a_node2"><a xlink:href="types_8h.html" target="_top" xlink:title="zrtos/types.h">
<polygon fill="#ffffff" stroke="#000000" points="708.7574,-62 708.7574,-81 782.7574,-81 782.7574,-62 708.7574,-62"/>
<text text-anchor="middle" x="745.7574" y="-69" font-family="Helvetica,sans-Serif" font-size="10.00" fill="#000000">zrtos/types.h</text>
</a>
</g>
</g>
<!-- Node0&#45;&gt;Node1 -->
<g id="edge1" class="edge">
<title>Node0&#45;&gt;Node1</title>
<path fill="none" stroke="#191970" d="M703.1509,-291.0971C694.7194,-258.2561 669.5355,-153.3017 683.7574,-123 690.9549,-107.6648 705.2103,-95.3165 718.2387,-86.5595"/>
<polygon fill="#191970" stroke="#191970" points="720.3561,-89.3627 726.9605,-81.0782 716.6313,-83.4359 720.3561,-89.3627"/>
</g>
<!-- Node8 -->
<g id="node9" class="node">
<title>Node8</title>
<g id="a_node9"><a xlink:href="error_8h.html" target="_top" xlink:title="zrtos/error.h">
<polygon fill="#ffffff" stroke="#000000" points="621.2574,-62 621.2574,-81 690.2574,-81 690.2574,-62 621.2574,-62"/>
<text text-anchor="middle" x="655.7574" y="-69" font-family="Helvetica,sans-Serif" font-size="10.00" fill="#000000">zrtos/error.h</text>
</a>
</g>
</g>
<!-- Node0&#45;&gt;Node8 -->
<g id="edge8" class="edge">
<title>Node0&#45;&gt;Node8</title>
<path fill="none" stroke="#191970" d="M686.4294,-299.333C660.4789,-295.9386 615.2677,-285.7016 594.7574,-255 558.482,-200.7 612.5502,-122.9759 640.6141,-88.7736"/>
<polygon fill="#191970" stroke="#191970" points="643.3498,-90.9587 647.1179,-81.0566 637.9972,-86.4476 643.3498,-90.9587"/>
</g>
<!-- Node9 -->
<g id="node10" class="node">
<title>Node9</title>
<g id="a_node10"><a xlink:href="assert_8h.html" target="_top" xlink:title="zrtos/assert.h">
<polygon fill="#ffffff" stroke="#000000" points="284.2574,-.5 284.2574,-19.5 361.2574,-19.5 361.2574,-.5 284.2574,-.5"/>
<text text-anchor="middle" x="322.7574" y="-7.5" font-family="Helvetica,sans-Serif" font-size="10.00" fill="#000000">zrtos/assert.h</text>
</a>
</g>
</g>
<!-- Node0&#45;&gt;Node9 -->
<g id="edge32" class="edge">
<title>Node0&#45;&gt;Node9</title>
<path fill="none" stroke="#191970" d="M686.562,-300.0298C573.7312,-294.0793 1.7574,-260.3936 1.7574,-189 1.7574,-189 1.7574,-189 1.7574,-133 1.7574,-97.7513 -5.2722,-79.7682 20.7574,-56 39.1468,-39.2083 193.1073,-22.2955 273.8141,-14.4776"/>
<polygon fill="#191970" stroke="#191970" points="274.6023,-17.9182 284.2229,-13.4804 273.9346,-10.9501 274.6023,-17.9182"/>
</g>
<!-- Node10 -->
<g id="node11" class="node">
<title>Node10</title>
<g id="a_node11"><a xlink:href="stack_8h.html" target="_top" xlink:title="zrtos/stack.h">
<polygon fill="#ffffff" stroke="#000000" points="603.7574,-235.5 603.7574,-254.5 677.7574,-254.5 677.7574,-235.5 603.7574,-235.5"/>
<text text-anchor="middle" x="640.7574" y="-242.5" font-family="Helvetica,sans-Serif" font-size="10.00" fill="#000000">zrtos/stack.h</text>
</a>
</g>
</g>
<!-- Node0&#45;&gt;Node10 -->
<g id="edge12" class="edge">
<title>Node0&#45;&gt;Node10</title>
<path fill="none" stroke="#191970" d="M694.4353,-291.2455C684.8351,-282.9746 670.8682,-270.9416 659.5879,-261.2232"/>
<polygon fill="#191970" stroke="#191970" points="661.8104,-258.5182 651.9498,-254.6427 657.2414,-263.8214 661.8104,-258.5182"/>
</g>
<!-- Node22 -->
<g id="node23" class="node">
<title>Node22</title>
<g id="a_node23"><a xlink:href="mem_8h.html" target="_top" xlink:title="zrtos/mem.h">
<polygon fill="#ffffff" stroke="#000000" points="929.2574,-123.5 929.2574,-142.5 1000.2574,-142.5 1000.2574,-123.5 929.2574,-123.5"/>
<text text-anchor="middle" x="964.7574" y="-130.5" font-family="Helvetica,sans-Serif" font-size="10.00" fill="#000000">zrtos/mem.h</text>
</a>
</g>
</g>
<!-- Node0&#45;&gt;Node22 -->
<g id="edge31" class="edge">
<title>Node0&#45;&gt;Node22</title>
<path fill="none" stroke="#191970" d="M724.792,-296.5366C779.8818,-283.184 937.2996,-241.8158 964.7574,-199 973.4452,-185.4528 972.6,-166.9041 970.0671,-152.9198"/>
<polygon fill="#191970" stroke="#191970" points="973.4176,-151.8638 967.8238,-142.866 966.5856,-153.3882 973.4176,-151.8638"/>
</g>
<!-- Node23 -->
<g id="node24" class="node">
<title>Node23</title>
<g id="a_node24"><a xlink:href="vm__io_8h.html" target="_top" xlink:title="zrtos/vm_io.h">
<polygon fill="#ffffff" stroke="#000000" points="734.7574,-235.5 734.7574,-254.5 810.7574,-254.5 810.7574,-235.5 734.7574,-235.5"/>
<text text-anchor="middle" x="772.7574" y="-242.5" font-family="Helvetica,sans-Serif" font-size="10.00" fill="#000000">zrtos/vm_io.h</text>
</a>
</g>
</g>
<!-- Node0&#45;&gt;Node23 -->
<g id="edge33" class="edge">
<title>Node0&#45;&gt;Node23</title>
<path fill="none" stroke="#191970" d="M717.4279,-291.2455C727.3235,-282.9746 741.7201,-270.9416 753.3475,-261.2232"/>
<polygon fill="#191970" stroke="#191970" points="755.7924,-263.7413 761.2206,-254.6427 751.3032,-258.3703 755.7924,-263.7413"/>
</g>
<!-- Node24 -->
<g id="node25" class="node">
<title>Node24</title>
<g id="a_node25"><a xlink:href="vm__function__index_8h.html" target="_top" xlink:title="zrtos/vm_function_index.h">
<polygon fill="#ffffff" stroke="#000000" points="804.2574,-179.5 804.2574,-198.5 935.2574,-198.5 935.2574,-179.5 804.2574,-179.5"/>
<text text-anchor="middle" x="869.7574" y="-186.5" font-family="Helvetica,sans-Serif" font-size="10.00" fill="#000000">zrtos/vm_function_index.h</text>
</a>
</g>
</g>
<!-- Node0&#45;&gt;Node24 -->
<g id="edge35" class="edge">
<title>Node0&#45;&gt;Node24</title>
<path fill="none" stroke="#191970" d="M725.107,-296.5961C749.1621,-290.4014 790.601,-277.303 819.7574,-255 836.6164,-242.1038 850.6613,-222.1275 859.5298,-207.5287"/>
<polygon fill="#191970" stroke="#191970" points="862.5815,-209.2434 864.5877,-198.8402 856.5319,-205.7216 862.5815,-209.2434"/>
</g>
<!-- Node2 -->
<g id="node3" class="node">
<title>Node2</title>
<polygon fill="#ffffff" stroke="#bfbfbf" points="562.7574,-.5 562.7574,-19.5 618.7574,-19.5 618.7574,-.5 562.7574,-.5"/>
<text text-anchor="middle" x="590.7574" y="-7.5" font-family="Helvetica,sans-Serif" font-size="10.00" fill="#000000">stdbool.h</text>
</g>
<!-- Node1&#45;&gt;Node2 -->
<g id="edge2" class="edge">
<title>Node1&#45;&gt;Node2</title>
<path fill="none" stroke="#191970" d="M721.5387,-61.8906C695.3768,-51.5103 653.5145,-34.9004 624.2186,-23.2766"/>
<polygon fill="#191970" stroke="#191970" points="625.392,-19.9767 614.8061,-19.5419 622.8103,-26.4833 625.392,-19.9767"/>
</g>
<!-- Node3 -->
<g id="node4" class="node">
<title>Node3</title>
<polygon fill="#ffffff" stroke="#bfbfbf" points="702.7574,-.5 702.7574,-19.5 754.7574,-19.5 754.7574,-.5 702.7574,-.5"/>
<text text-anchor="middle" x="728.7574" y="-7.5" font-family="Helvetica,sans-Serif" font-size="10.00" fill="#000000">stddef.h</text>
</g>
<!-- Node1&#45;&gt;Node3 -->
<g id="edge3" class="edge">
<title>Node1&#45;&gt;Node3</title>
<path fill="none" stroke="#191970" d="M743.1012,-61.8906C740.7199,-53.276 737.1526,-40.3708 734.1714,-29.5858"/>
<polygon fill="#191970" stroke="#191970" points="737.489,-28.4509 731.4511,-19.7449 730.742,-30.3159 737.489,-28.4509"/>
</g>
<!-- Node4 -->
<g id="node5" class="node">
<title>Node4</title>
<polygon fill="#ffffff" stroke="#bfbfbf" points="773.2574,-.5 773.2574,-19.5 822.2574,-19.5 822.2574,-.5 773.2574,-.5"/>
<text text-anchor="middle" x="797.7574" y="-7.5" font-family="Helvetica,sans-Serif" font-size="10.00" fill="#000000">stdint.h</text>
</g>
<!-- Node1&#45;&gt;Node4 -->
<g id="edge4" class="edge">
<title>Node1&#45;&gt;Node4</title>
<path fill="none" stroke="#191970" d="M753.8824,-61.8906C761.6216,-52.7376 773.4562,-38.7409 782.8846,-27.59"/>
<polygon fill="#191970" stroke="#191970" points="785.7339,-29.6409 789.5179,-19.7449 780.3885,-25.1213 785.7339,-29.6409"/>
</g>
<!-- Node5 -->
<g id="node6" class="node">
<title>Node5</title>
<polygon fill="#ffffff" stroke="#bfbfbf" points="636.7574,-.5 636.7574,-19.5 684.7574,-19.5 684.7574,-.5 636.7574,-.5"/>
<text text-anchor="middle" x="660.7574" y="-7.5" font-family="Helvetica,sans-Serif" font-size="10.00" fill="#000000">limits.h</text>
</g>
<!-- Node1&#45;&gt;Node5 -->
<g id="edge5" class="edge">
<title>Node1&#45;&gt;Node5</title>
<path fill="none" stroke="#191970" d="M732.4762,-61.8906C719.0026,-52.1421 697.9354,-36.8994 682.1139,-25.4521"/>
<polygon fill="#191970" stroke="#191970" points="684.0989,-22.5682 673.9454,-19.5419 679.9955,-28.2394 684.0989,-22.5682"/>
</g>
<!-- Node6 -->
<g id="node7" class="node">
<title>Node6</title>
<polygon fill="#ffffff" stroke="#bfbfbf" points="840.2574,-.5 840.2574,-19.5 899.2574,-19.5 899.2574,-.5 840.2574,-.5"/>
<text text-anchor="middle" x="869.7574" y="-7.5" font-family="Helvetica,sans-Serif" font-size="10.00" fill="#000000">stdalign.h</text>
</g>
<!-- Node1&#45;&gt;Node6 -->
<g id="edge6" class="edge">
<title>Node1&#45;&gt;Node6</title>
<path fill="none" stroke="#191970" d="M765.1324,-61.8906C785.6069,-51.7359 818.1016,-35.6196 841.4459,-24.0416"/>
<polygon fill="#191970" stroke="#191970" points="843.1149,-27.1207 850.5185,-19.5419 840.0046,-20.8496 843.1149,-27.1207"/>
</g>
<!-- Node7 -->
<g id="node8" class="node">
<title>Node7</title>
<g id="a_node8"><a xlink:href="cast_8h.html" target="_top" xlink:title="zrtos/cast.h">
<polygon fill="#ffffff" stroke="#000000" points="917.7574,-.5 917.7574,-19.5 985.7574,-19.5 985.7574,-.5 917.7574,-.5"/>
<text text-anchor="middle" x="951.7574" y="-7.5" font-family="Helvetica,sans-Serif" font-size="10.00" fill="#000000">zrtos/cast.h</text>
</a>
</g>
</g>
<!-- Node1&#45;&gt;Node7 -->
<g id="edge7" class="edge">
<title>Node1&#45;&gt;Node7</title>
<path fill="none" stroke="#191970" d="M777.9449,-61.8906C813.4707,-51.2846 870.78,-34.1753 909.8016,-22.5257"/>
<polygon fill="#191970" stroke="#191970" points="911.2151,-25.7564 919.7959,-19.5419 909.2126,-19.0489 911.2151,-25.7564"/>
</g>
<!-- Node8&#45;&gt;Node2 -->
<g id="edge10" class="edge">
<title>Node8&#45;&gt;Node2</title>
<path fill="none" stroke="#191970" d="M645.6012,-61.8906C635.7375,-52.5581 620.5519,-38.1902 608.6587,-26.9374"/>
<polygon fill="#191970" stroke="#191970" points="610.7263,-24.0753 601.0569,-19.7449 605.9153,-29.1601 610.7263,-24.0753"/>
</g>
<!-- Node8&#45;&gt;Node5 -->
<g id="edge9" class="edge">
<title>Node8&#45;&gt;Node5</title>
<path fill="none" stroke="#191970" d="M656.5387,-61.8906C657.2317,-53.3657 658.2664,-40.6392 659.1376,-29.9235"/>
<polygon fill="#191970" stroke="#191970" points="662.6432,-29.9956 659.9652,-19.7449 655.6662,-29.4283 662.6432,-29.9956"/>
</g>
<!-- Node8&#45;&gt;Node9 -->
<g id="edge11" class="edge">
<title>Node8&#45;&gt;Node9</title>
<path fill="none" stroke="#191970" d="M631.3419,-61.9685C625.034,-59.7642 618.2032,-57.5992 611.7574,-56 509.3099,-30.583 478.5568,-38.7975 371.3669,-20.1904"/>
<polygon fill="#191970" stroke="#191970" points="371.9063,-16.7315 361.4486,-18.4306 370.6834,-23.6238 371.9063,-16.7315"/>
</g>
<!-- Node10&#45;&gt;Node1 -->
<g id="edge27" class="edge">
<title>Node10&#45;&gt;Node1</title>
<path fill="none" stroke="#191970" d="M638.7126,-235.4803C634.5662,-213.5831 627.4229,-158.7789 650.7574,-123 658.312,-111.4164 688.6728,-96.0944 713.0661,-85.1816"/>
<polygon fill="#191970" stroke="#191970" points="714.6461,-88.3105 722.3975,-81.0879 711.8338,-81.9002 714.6461,-88.3105"/>
</g>
<!-- Node11 -->
<g id="node12" class="node">
<title>Node11</title>
<g id="a_node12"><a xlink:href="zrtos_8h.html" target="_top" xlink:title="zrtos/zrtos.h">
<polygon fill="#ffffff" stroke="#000000" points="427.2574,-179.5 427.2574,-198.5 498.2574,-198.5 498.2574,-179.5 427.2574,-179.5"/>
<text text-anchor="middle" x="462.7574" y="-186.5" font-family="Helvetica,sans-Serif" font-size="10.00" fill="#000000">zrtos/zrtos.h</text>
</a>
</g>
</g>
<!-- Node10&#45;&gt;Node11 -->
<g id="edge13" class="edge">
<title>Node10&#45;&gt;Node11</title>
<path fill="none" stroke="#191970" d="M610.1581,-235.3733C580.4313,-226.021 535.1415,-211.7725 502.6118,-201.5385"/>
<polygon fill="#191970" stroke="#191970" points="503.5469,-198.1636 492.9574,-198.5011 501.4461,-204.8409 503.5469,-198.1636"/>
</g>
<!-- Node10&#45;&gt;Node22 -->
<g id="edge28" class="edge">
<title>Node10&#45;&gt;Node22</title>
<path fill="none" stroke="#191970" d="M677.766,-240.4663C756.5903,-230.6654 934.7172,-207.6889 944.7574,-199 957.8877,-187.637 962.5597,-167.9659 964.1429,-153.0473"/>
<polygon fill="#191970" stroke="#191970" points="967.6544,-152.9959 964.8405,-142.7816 960.6705,-152.5213 967.6544,-152.9959"/>
</g>
<!-- Node12 -->
<g id="node13" class="node">
<title>Node12</title>
<g id="a_node13"><a xlink:href="debug_8h.html" target="_top" xlink:title="zrtos/debug.h">
<polygon fill="#ffffff" stroke="#000000" points="471.7574,-123.5 471.7574,-142.5 547.7574,-142.5 547.7574,-123.5 471.7574,-123.5"/>
<text text-anchor="middle" x="509.7574" y="-130.5" font-family="Helvetica,sans-Serif" font-size="10.00" fill="#000000">zrtos/debug.h</text>
</a>
</g>
</g>
<!-- Node11&#45;&gt;Node12 -->
<g id="edge14" class="edge">
<title>Node11&#45;&gt;Node12</title>
<path fill="none" stroke="#191970" d="M470.9442,-179.2455C477.6163,-171.2958 487.2053,-159.8706 495.1827,-150.3656"/>
<polygon fill="#191970" stroke="#191970" points="497.9166,-152.5525 501.6645,-142.6427 492.5548,-148.0524 497.9166,-152.5525"/>
</g>
<!-- Node13 -->
<g id="node14" class="node">
<title>Node13</title>
<g id="a_node14"><a xlink:href="arch_8h.html" target="_top" xlink:title="zrtos/arch.h">
<polygon fill="#ffffff" stroke="#000000" points="292.7574,-123.5 292.7574,-142.5 360.7574,-142.5 360.7574,-123.5 292.7574,-123.5"/>
<text text-anchor="middle" x="326.7574" y="-130.5" font-family="Helvetica,sans-Serif" font-size="10.00" fill="#000000">zrtos/arch.h</text>
</a>
</g>
</g>
<!-- Node11&#45;&gt;Node13 -->
<g id="edge15" class="edge">
<title>Node11&#45;&gt;Node13</title>
<path fill="none" stroke="#191970" d="M439.3782,-179.3733C417.2529,-170.2629 383.844,-156.5062 359.1555,-146.3404"/>
<polygon fill="#191970" stroke="#191970" points="360.411,-143.0723 349.8316,-142.5011 357.7457,-149.5451 360.411,-143.0723"/>
</g>
<!-- Node17 -->
<g id="node18" class="node">
<title>Node17</title>
<g id="a_node18"><a xlink:href="board_8h.html" target="_top" xlink:title="zrtos/board.h">
<polygon fill="#ffffff" stroke="#000000" points="379.7574,-123.5 379.7574,-142.5 453.7574,-142.5 453.7574,-123.5 379.7574,-123.5"/>
<text text-anchor="middle" x="416.7574" y="-130.5" font-family="Helvetica,sans-Serif" font-size="10.00" fill="#000000">zrtos/board.h</text>
</a>
</g>
</g>
<!-- Node11&#45;&gt;Node17 -->
<g id="edge22" class="edge">
<title>Node11&#45;&gt;Node17</title>
<path fill="none" stroke="#191970" d="M454.7448,-179.2455C448.2807,-171.3761 439.019,-160.101 431.2591,-150.6542"/>
<polygon fill="#191970" stroke="#191970" points="433.7302,-148.1484 424.6782,-142.6427 428.3211,-152.5916 433.7302,-148.1484"/>
</g>
<!-- Node13&#45;&gt;Node1 -->
<g id="edge16" class="edge">
<title>Node13&#45;&gt;Node1</title>
<path fill="none" stroke="#191970" d="M360.7909,-124.8616C364.1483,-124.1803 367.5127,-123.545 370.7574,-123 515.385,-98.7097 555.4475,-118.1358 698.7574,-87 702.6144,-86.162 706.6005,-85.1257 710.5453,-83.9892"/>
<polygon fill="#191970" stroke="#191970" points="711.6489,-87.3115 720.1687,-81.0136 709.581,-80.6239 711.6489,-87.3115"/>
</g>
<!-- Node13&#45;&gt;Node9 -->
<g id="edge17" class="edge">
<title>Node13&#45;&gt;Node9</title>
<path fill="none" stroke="#191970" d="M326.4435,-123.3484C325.7893,-103.2295 324.2683,-56.4608 323.3984,-29.7098"/>
<polygon fill="#191970" stroke="#191970" points="326.8931,-29.4877 323.0698,-19.6068 319.8968,-29.7153 326.8931,-29.4877"/>
</g>
<!-- Node14 -->
<g id="node15" class="node">
<title>Node14</title>
<g id="a_node15"><a xlink:href="atmega328p_8h.html" target="_top" xlink:title="zrtos/arch/atmega328p.h">
<polygon fill="#ffffff" stroke="#000000" points="30.2574,-62 30.2574,-81 155.2574,-81 155.2574,-62 30.2574,-62"/>
<text text-anchor="middle" x="92.7574" y="-69" font-family="Helvetica,sans-Serif" font-size="10.00" fill="#000000">zrtos/arch/atmega328p.h</text>
</a>
</g>
</g>
<!-- Node13&#45;&gt;Node14 -->
<g id="edge18" class="edge">
<title>Node13&#45;&gt;Node14</title>
<path fill="none" stroke="#191970" d="M292.7318,-124.0574C252.1935,-113.4031 184.2749,-95.5527 138.998,-83.653"/>
<polygon fill="#191970" stroke="#191970" points="139.6965,-80.2178 129.1353,-81.0609 137.9172,-86.9879 139.6965,-80.2178"/>
</g>
<!-- Node16 -->
<g id="node17" class="node">
<title>Node16</title>
<g id="a_node17"><a xlink:href="atmega2560_8h.html" target="_top" xlink:title="zrtos/arch/atmega2560.h">
<polygon fill="#ffffff" stroke="#000000" points="173.2574,-62 173.2574,-81 298.2574,-81 298.2574,-62 173.2574,-62"/>
<text text-anchor="middle" x="235.7574" y="-69" font-family="Helvetica,sans-Serif" font-size="10.00" fill="#000000">zrtos/arch/atmega2560.h</text>
</a>
</g>
</g>
<!-- Node13&#45;&gt;Node16 -->
<g id="edge20" class="edge">
<title>Node13&#45;&gt;Node16</title>
<path fill="none" stroke="#191970" d="M312.5387,-123.3906C298.1141,-113.6421 275.5598,-98.3994 258.6214,-86.9521"/>
<polygon fill="#191970" stroke="#191970" points="260.1215,-83.7415 249.8763,-81.0419 256.2018,-89.5412 260.1215,-83.7415"/>
</g>
<!-- Node15 -->
<g id="node16" class="node">
<title>Node15</title>
<polygon fill="#ffffff" stroke="#bfbfbf" points="110.7574,-.5 110.7574,-19.5 202.7574,-19.5 202.7574,-.5 110.7574,-.5"/>
<text text-anchor="middle" x="156.7574" y="-7.5" font-family="Helvetica,sans-Serif" font-size="10.00" fill="#000000">util/delay_basic.h</text>
</g>
<!-- Node14&#45;&gt;Node15 -->
<g id="edge19" class="edge">
<title>Node14&#45;&gt;Node15</title>
<path fill="none" stroke="#191970" d="M102.7574,-61.8906C112.4693,-52.5581 127.4213,-38.1902 139.1315,-26.9374"/>
<polygon fill="#191970" stroke="#191970" points="141.831,-29.1974 146.6164,-19.7449 136.9808,-24.15 141.831,-29.1974"/>
</g>
<!-- Node16&#45;&gt;Node15 -->
<g id="edge21" class="edge">
<title>Node16&#45;&gt;Node15</title>
<path fill="none" stroke="#191970" d="M223.4137,-61.8906C211.0072,-52.2324 191.6731,-37.1812 177.0161,-25.771"/>
<polygon fill="#191970" stroke="#191970" points="179.0554,-22.923 169.0145,-19.5419 174.7553,-28.4466 179.0554,-22.923"/>
</g>
<!-- Node18 -->
<g id="node19" class="node">
<title>Node18</title>
<g id="a_node19"><a xlink:href="ansi__c_8h.html" target="_top" xlink:title="zrtos/board/ansi_c.h">
<polygon fill="#ffffff" stroke="#000000" points="498.2574,-62 498.2574,-81 603.2574,-81 603.2574,-62 498.2574,-62"/>
<text text-anchor="middle" x="550.7574" y="-69" font-family="Helvetica,sans-Serif" font-size="10.00" fill="#000000">zrtos/board/ansi_c.h</text>
</a>
</g>
</g>
<!-- Node17&#45;&gt;Node18 -->
<g id="edge23" class="edge">
<title>Node17&#45;&gt;Node18</title>
<path fill="none" stroke="#191970" d="M437.6949,-123.3906C460.0172,-113.1457 495.5611,-96.8326 520.8331,-85.2339"/>
<polygon fill="#191970" stroke="#191970" points="522.3384,-88.3942 529.9669,-81.0419 519.4185,-82.0322 522.3384,-88.3942"/>
</g>
<!-- Node19 -->
<g id="node20" class="node">
<title>Node19</title>
<g id="a_node20"><a xlink:href="avr__software__emulator_8h.html" target="_top" xlink:title="zrtos/board/avr_software\l_emulator.h">
<polygon fill="#ffffff" stroke="#000000" points="355.2574,-56.5 355.2574,-86.5 480.2574,-86.5 480.2574,-56.5 355.2574,-56.5"/>
<text text-anchor="start" x="363.2574" y="-74.5" font-family="Helvetica,sans-Serif" font-size="10.00" fill="#000000">zrtos/board/avr_software</text>
<text text-anchor="middle" x="417.7574" y="-63.5" font-family="Helvetica,sans-Serif" font-size="10.00" fill="#000000">_emulator.h</text>
</a>
</g>
</g>
<!-- Node17&#45;&gt;Node19 -->
<g id="edge24" class="edge">
<title>Node17&#45;&gt;Node19</title>
<path fill="none" stroke="#191970" d="M416.9137,-123.3906C417.0302,-116.2234 417.195,-106.0862 417.3481,-96.671"/>
<polygon fill="#191970" stroke="#191970" points="420.8496,-96.6002 417.5128,-86.5446 413.8506,-96.4863 420.8496,-96.6002"/>
</g>
<!-- Node20 -->
<g id="node21" class="node">
<title>Node20</title>
<polygon fill="#ffffff" stroke="#bfbfbf" points="379.2574,-.5 379.2574,-19.5 456.2574,-19.5 456.2574,-.5 379.2574,-.5"/>
<text text-anchor="middle" x="417.7574" y="-7.5" font-family="Helvetica,sans-Serif" font-size="10.00" fill="#000000">avr/interrupt.h</text>
</g>
<!-- Node19&#45;&gt;Node20 -->
<g id="edge25" class="edge">
<title>Node19&#45;&gt;Node20</title>
<path fill="none" stroke="#191970" d="M417.7574,-56.2977C417.7574,-48.3834 417.7574,-38.6043 417.7574,-30.0759"/>
<polygon fill="#191970" stroke="#191970" points="421.2575,-29.8469 417.7574,-19.8469 414.2575,-29.847 421.2575,-29.8469"/>
</g>
<!-- Node21 -->
<g id="node22" class="node">
<title>Node21</title>
<polygon fill="#ffffff" stroke="#bfbfbf" points="474.2574,-.5 474.2574,-19.5 531.2574,-19.5 531.2574,-.5 474.2574,-.5"/>
<text text-anchor="middle" x="502.7574" y="-7.5" font-family="Helvetica,sans-Serif" font-size="10.00" fill="#000000">avr/wdt.h</text>
</g>
<!-- Node19&#45;&gt;Node21 -->
<g id="edge26" class="edge">
<title>Node19&#45;&gt;Node21</title>
<path fill="none" stroke="#191970" d="M438.7687,-56.2977C451.5508,-47.0495 467.8521,-35.2551 480.8022,-25.8853"/>
<polygon fill="#191970" stroke="#191970" points="483.0977,-28.5445 489.1478,-19.8469 478.9944,-22.8732 483.0977,-28.5445"/>
</g>
<!-- Node22&#45;&gt;Node1 -->
<g id="edge29" class="edge">
<title>Node22&#45;&gt;Node1</title>
<path fill="none" stroke="#191970" d="M930.5387,-123.3906C892.5299,-112.7169 831.0663,-95.4566 789.569,-83.8033"/>
<polygon fill="#191970" stroke="#191970" points="790.3098,-80.3759 779.7359,-81.0419 788.4172,-87.1153 790.3098,-80.3759"/>
</g>
<!-- Node22&#45;&gt;Node7 -->
<g id="edge30" class="edge">
<title>Node22&#45;&gt;Node7</title>
<path fill="none" stroke="#191970" d="M963.7373,-123.3484C961.6109,-103.2295 956.6679,-56.4608 953.8406,-29.7098"/>
<polygon fill="#191970" stroke="#191970" points="957.3045,-29.1835 952.7728,-19.6068 950.3433,-29.9193 957.3045,-29.1835"/>
</g>
<!-- Node23&#45;&gt;Node1 -->
<g id="edge34" class="edge">
<title>Node23&#45;&gt;Node1</title>
<path fill="none" stroke="#191970" d="M776.1059,-235.2448C784.2012,-211.5801 804.2784,-152.3762 805.7574,-143 807.1424,-134.2197 809.4689,-131.0769 805.7574,-123 798.7717,-107.7977 784.8386,-95.3979 772.1564,-86.5778"/>
<polygon fill="#191970" stroke="#191970" points="773.9661,-83.5796 763.6769,-81.0531 770.1448,-89.4446 773.9661,-83.5796"/>
</g>
<!-- Node24&#45;&gt;Node1 -->
<g id="edge36" class="edge">
<title>Node24&#45;&gt;Node1</title>
<path fill="none" stroke="#191970" d="M867.2991,-179.4029C863.3264,-165.5096 854.3246,-139.6403 838.7574,-123 823.1173,-106.2817 800.7991,-93.6736 781.9465,-85.1177"/>
<polygon fill="#191970" stroke="#191970" points="783.304,-81.8916 772.7367,-81.1279 780.5213,-88.3147 783.304,-81.8916"/>
</g>
<!-- Node24&#45;&gt;Node7 -->
<g id="edge37" class="edge">
<title>Node24&#45;&gt;Node7</title>
<path fill="none" stroke="#191970" d="M874.1661,-179.3762C887.1804,-150.9669 925.6078,-67.0828 943.0136,-29.0871"/>
<polygon fill="#191970" stroke="#191970" points="946.3441,-30.2206 947.3269,-19.6714 939.9801,-27.3052 946.3441,-30.2206"/>
</g>
<!-- Node24&#45;&gt;Node22 -->
<g id="edge38" class="edge">
<title>Node24&#45;&gt;Node22</title>
<path fill="none" stroke="#191970" d="M886.3052,-179.2455C901.0173,-170.5731 922.7462,-157.7645 939.6079,-147.825"/>
<polygon fill="#191970" stroke="#191970" points="941.562,-150.736 948.3993,-142.6427 938.0073,-144.7057 941.562,-150.736"/>
</g>
<!-- Node25 -->
<g id="node26" class="node">
<title>Node25</title>
<g id="a_node26"><a xlink:href="vm__function_8h.html" target="_top" xlink:title="zrtos/vm_function.h">
<polygon fill="#ffffff" stroke="#000000" points="693.2574,-123.5 693.2574,-142.5 796.2574,-142.5 796.2574,-123.5 693.2574,-123.5"/>
<text text-anchor="middle" x="744.7574" y="-130.5" font-family="Helvetica,sans-Serif" font-size="10.00" fill="#000000">zrtos/vm_function.h</text>
</a>
</g>
</g>
<!-- Node24&#45;&gt;Node25 -->
<g id="edge39" class="edge">
<title>Node24&#45;&gt;Node25</title>
<path fill="none" stroke="#191970" d="M848.2691,-179.3733C828.1134,-170.3435 797.7694,-156.7494 775.1394,-146.6111"/>
<polygon fill="#191970" stroke="#191970" points="776.5223,-143.3955 765.9653,-142.5011 773.6603,-149.7838 776.5223,-143.3955"/>
</g>
<!-- Node25&#45;&gt;Node1 -->
<g id="edge40" class="edge">
<title>Node25&#45;&gt;Node1</title>
<path fill="none" stroke="#191970" d="M744.9137,-123.3906C745.0523,-114.8657 745.2592,-102.1392 745.4335,-91.4235"/>
<polygon fill="#191970" stroke="#191970" points="748.9358,-91.3005 745.599,-81.2449 741.9367,-91.1866 748.9358,-91.3005"/>
</g>
<!-- Node25&#45;&gt;Node8 -->
<g id="edge41" class="edge">
<title>Node25&#45;&gt;Node8</title>
<path fill="none" stroke="#191970" d="M730.8512,-123.3906C716.7436,-113.6421 694.685,-98.3994 678.1189,-86.9521"/>
<polygon fill="#191970" stroke="#191970" points="679.7827,-83.8474 669.566,-81.0419 675.8032,-89.6063 679.7827,-83.8474"/>
</g>
</g>
</svg>
