<?xml version="1.0" encoding="UTF-8" standalone="no"?>
<!DOCTYPE svg PUBLIC "-//W3C//DTD SVG 1.1//EN"
 "http://www.w3.org/Graphics/SVG/1.1/DTD/svg11.dtd">
<!-- Generated by graphviz version 2.40.1 (20161225.0304)
 -->
<!-- Title: vm_function.h Pages: 1 -->
<svg width="115pt" height="140pt"
 viewBox="0.00 0.00 115.00 140.00" xmlns="http://www.w3.org/2000/svg" xmlns:xlink="http://www.w3.org/1999/xlink">
<g id="graph0" class="graph" transform="scale(1 1) rotate(0) translate(4 136)">
<title>vm_function.h</title>
<polygon fill="#ffffff" stroke="transparent" points="-4,4 -4,-136 111,-136 111,4 -4,4"/>
<!-- Node10 -->
<g id="node1" class="node">
<title>Node10</title>
<polygon fill="#bfbfbf" stroke="#000000" points="14.5,-112.5 14.5,-131.5 92.5,-131.5 92.5,-112.5 14.5,-112.5"/>
<text text-anchor="middle" x="53.5" y="-119.5" font-family="Helvetica,sans-Serif" font-size="10.00" fill="#000000">vm_function.h</text>
</g>
<!-- Node11 -->
<g id="node2" class="node">
<title>Node11</title>
<g id="a_node2"><a xlink:href="vm__function__index_8h.html" target="_top" xlink:title="vm_function_index.h">
<polygon fill="#ffffff" stroke="#000000" points="0,-56.5 0,-75.5 107,-75.5 107,-56.5 0,-56.5"/>
<text text-anchor="middle" x="53.5" y="-63.5" font-family="Helvetica,sans-Serif" font-size="10.00" fill="#000000">vm_function_index.h</text>
</a>
</g>
</g>
<!-- Node10&#45;&gt;Node11 -->
<g id="edge1" class="edge">
<title>Node10&#45;&gt;Node11</title>
<path fill="none" stroke="#191970" d="M53.5,-102.1575C53.5,-93.155 53.5,-82.9199 53.5,-75.6427"/>
<polygon fill="#191970" stroke="#191970" points="50.0001,-102.2455 53.5,-112.2455 57.0001,-102.2456 50.0001,-102.2455"/>
</g>
<!-- Node12 -->
<g id="node3" class="node">
<title>Node12</title>
<g id="a_node3"><a xlink:href="vm_8h.html" target="_top" xlink:title="vm.h">
<polygon fill="#ffffff" stroke="#000000" points="34.5,-.5 34.5,-19.5 72.5,-19.5 72.5,-.5 34.5,-.5"/>
<text text-anchor="middle" x="53.5" y="-7.5" font-family="Helvetica,sans-Serif" font-size="10.00" fill="#000000">vm.h</text>
</a>
</g>
</g>
<!-- Node11&#45;&gt;Node12 -->
<g id="edge2" class="edge">
<title>Node11&#45;&gt;Node12</title>
<path fill="none" stroke="#191970" d="M53.5,-46.1575C53.5,-37.155 53.5,-26.9199 53.5,-19.6427"/>
<polygon fill="#191970" stroke="#191970" points="50.0001,-46.2455 53.5,-56.2455 57.0001,-46.2456 50.0001,-46.2455"/>
</g>
</g>
</svg>
