<?xml version="1.0" encoding="UTF-8" standalone="no"?>
<!DOCTYPE svg PUBLIC "-//W3C//DTD SVG 1.1//EN"
 "http://www.w3.org/Graphics/SVG/1.1/DTD/svg11.dtd">
<!-- Generated by graphviz version 10.0.1 (20240210.2158)
 -->
<!-- Title: vm_function_index.h Pages: 1 -->
<svg width="520pt" height="196pt"
 viewBox="0.00 0.00 519.88 196.00" xmlns="http://www.w3.org/2000/svg" xmlns:xlink="http://www.w3.org/1999/xlink">
<g id="graph0" class="graph" transform="scale(1 1) rotate(0) translate(4 192)">
<title>vm_function_index.h</title>
<!-- Node1 -->
<g id="Node000001" class="node">
<title>Node1</title>
<g id="a_Node000001"><a xlink:title=" ">
<polygon fill="#999999" stroke="#666666" points="414.88,-188 311.12,-188 311.12,-168 414.88,-168 414.88,-188"/>
<text text-anchor="middle" x="363" y="-174.5" font-family="Helvetica,sans-Serif" font-size="10.00">vm_function_index.h</text>
</a>
</g>
</g>
<!-- Node2 -->
<g id="Node000002" class="node">
<title>Node2</title>
<g id="a_Node000002"><a xlink:href="types_8h.html" target="_top" xlink:title=" ">
<polygon fill="white" stroke="#666666" points="362.5,-76 289.5,-76 289.5,-56 362.5,-56 362.5,-76"/>
<text text-anchor="middle" x="326" y="-62.5" font-family="Helvetica,sans-Serif" font-size="10.00">zrtos/types.h</text>
</a>
</g>
</g>
<!-- Node1&#45;&gt;Node2 -->
<g id="edge1_Node000001_Node000002" class="edge">
<title>Node1&#45;&gt;Node2</title>
<g id="a_edge1_Node000001_Node000002"><a xlink:title=" ">
<path fill="none" stroke="#63b8ff" d="M359.85,-167.62C353.87,-149.84 340.76,-110.88 332.73,-87"/>
<polygon fill="#63b8ff" stroke="#63b8ff" points="336.13,-86.15 329.63,-77.79 329.5,-88.38 336.13,-86.15"/>
</a>
</g>
</g>
<!-- Node8 -->
<g id="Node000008" class="node">
<title>Node8</title>
<g id="a_Node000008"><a xlink:href="cast_8h.html" target="_top" xlink:title=" ">
<polygon fill="white" stroke="#666666" points="511.88,-20 444.12,-20 444.12,0 511.88,0 511.88,-20"/>
<text text-anchor="middle" x="478" y="-6.5" font-family="Helvetica,sans-Serif" font-size="10.00">zrtos/cast.h</text>
</a>
</g>
</g>
<!-- Node1&#45;&gt;Node8 -->
<g id="edge8_Node000001_Node000008" class="edge">
<title>Node1&#45;&gt;Node8</title>
<g id="a_edge8_Node000001_Node000008"><a xlink:title=" ">
<path fill="none" stroke="#63b8ff" d="M388.5,-167.51C405.04,-160.15 425.89,-148.41 439,-132 462.8,-102.2 472.24,-57.5 475.86,-31.59"/>
<polygon fill="#63b8ff" stroke="#63b8ff" points="479.33,-32.08 477.06,-21.73 472.38,-31.24 479.33,-32.08"/>
</a>
</g>
</g>
<!-- Node9 -->
<g id="Node000009" class="node">
<title>Node9</title>
<g id="a_Node000009"><a xlink:href="mem_8h.html" target="_top" xlink:title=" ">
<polygon fill="white" stroke="#666666" points="430.38,-132 359.62,-132 359.62,-112 430.38,-112 430.38,-132"/>
<text text-anchor="middle" x="395" y="-118.5" font-family="Helvetica,sans-Serif" font-size="10.00">zrtos/mem.h</text>
</a>
</g>
</g>
<!-- Node1&#45;&gt;Node9 -->
<g id="edge9_Node000001_Node000009" class="edge">
<title>Node1&#45;&gt;Node9</title>
<g id="a_edge9_Node000001_Node000009"><a xlink:title=" ">
<path fill="none" stroke="#63b8ff" d="M368.57,-167.59C372.75,-160.55 378.6,-150.67 383.74,-142"/>
<polygon fill="#63b8ff" stroke="#63b8ff" points="386.63,-143.99 388.72,-133.6 380.61,-140.42 386.63,-143.99"/>
</a>
</g>
</g>
<!-- Node10 -->
<g id="Node000010" class="node">
<title>Node10</title>
<g id="a_Node000010"><a xlink:href="vm__function_8h.html" target="_top" xlink:title=" ">
<polygon fill="white" stroke="#666666" points="304,-132 204,-132 204,-112 304,-112 304,-132"/>
<text text-anchor="middle" x="254" y="-118.5" font-family="Helvetica,sans-Serif" font-size="10.00">zrtos/vm_function.h</text>
</a>
</g>
</g>
<!-- Node1&#45;&gt;Node10 -->
<g id="edge12_Node000001_Node000010" class="edge">
<title>Node1&#45;&gt;Node10</title>
<g id="a_edge12_Node000001_Node000010"><a xlink:title=" ">
<path fill="none" stroke="#63b8ff" d="M344.01,-167.59C327.24,-159.28 302.51,-147.03 283.21,-137.47"/>
<polygon fill="#63b8ff" stroke="#63b8ff" points="285.01,-134.45 274.49,-133.15 281.9,-140.73 285.01,-134.45"/>
</a>
</g>
</g>
<!-- Node3 -->
<g id="Node000003" class="node">
<title>Node3</title>
<g id="a_Node000003"><a xlink:title=" ">
<polygon fill="#e0e0e0" stroke="#999999" points="215.88,-20 160.12,-20 160.12,0 215.88,0 215.88,-20"/>
<text text-anchor="middle" x="188" y="-6.5" font-family="Helvetica,sans-Serif" font-size="10.00">stdbool.h</text>
</a>
</g>
</g>
<!-- Node2&#45;&gt;Node3 -->
<g id="edge2_Node000002_Node000003" class="edge">
<title>Node2&#45;&gt;Node3</title>
<g id="a_edge2_Node000002_Node000003"><a xlink:title=" ">
<path fill="none" stroke="#63b8ff" d="M301.96,-55.59C280.03,-47.01 247.37,-34.23 222.63,-24.55"/>
<polygon fill="#63b8ff" stroke="#63b8ff" points="224.22,-21.42 213.63,-21.03 221.67,-27.93 224.22,-21.42"/>
</a>
</g>
</g>
<!-- Node4 -->
<g id="Node000004" class="node">
<title>Node4</title>
<g id="a_Node000004"><a xlink:title=" ">
<polygon fill="#e0e0e0" stroke="#999999" points="284.25,-20 233.75,-20 233.75,0 284.25,0 284.25,-20"/>
<text text-anchor="middle" x="259" y="-6.5" font-family="Helvetica,sans-Serif" font-size="10.00">stddef.h</text>
</a>
</g>
</g>
<!-- Node2&#45;&gt;Node4 -->
<g id="edge3_Node000002_Node000004" class="edge">
<title>Node2&#45;&gt;Node4</title>
<g id="a_edge3_Node000002_Node000004"><a xlink:title=" ">
<path fill="none" stroke="#63b8ff" d="M314.33,-55.59C304.72,-47.85 290.87,-36.69 279.43,-27.47"/>
<polygon fill="#63b8ff" stroke="#63b8ff" points="281.7,-24.8 271.72,-21.25 277.3,-30.25 281.7,-24.8"/>
</a>
</g>
</g>
<!-- Node5 -->
<g id="Node000005" class="node">
<title>Node5</title>
<g id="a_Node000005"><a xlink:title=" ">
<polygon fill="#e0e0e0" stroke="#999999" points="350.12,-20 301.88,-20 301.88,0 350.12,0 350.12,-20"/>
<text text-anchor="middle" x="326" y="-6.5" font-family="Helvetica,sans-Serif" font-size="10.00">stdint.h</text>
</a>
</g>
</g>
<!-- Node2&#45;&gt;Node5 -->
<g id="edge4_Node000002_Node000005" class="edge">
<title>Node2&#45;&gt;Node5</title>
<g id="a_edge4_Node000002_Node000005"><a xlink:title=" ">
<path fill="none" stroke="#63b8ff" d="M326,-55.59C326,-49.01 326,-39.96 326,-31.73"/>
<polygon fill="#63b8ff" stroke="#63b8ff" points="329.5,-31.81 326,-21.81 322.5,-31.81 329.5,-31.81"/>
</a>
</g>
</g>
<!-- Node6 -->
<g id="Node000006" class="node">
<title>Node6</title>
<g id="a_Node000006"><a xlink:title=" ">
<polygon fill="#e0e0e0" stroke="#999999" points="141.75,-20 94.25,-20 94.25,0 141.75,0 141.75,-20"/>
<text text-anchor="middle" x="118" y="-6.5" font-family="Helvetica,sans-Serif" font-size="10.00">limits.h</text>
</a>
</g>
</g>
<!-- Node2&#45;&gt;Node6 -->
<g id="edge5_Node000002_Node000006" class="edge">
<title>Node2&#45;&gt;Node6</title>
<g id="a_edge5_Node000002_Node000006"><a xlink:title=" ">
<path fill="none" stroke="#63b8ff" d="M289.09,-55.67C255.93,-47.26 205.62,-34.4 153.04,-20.51"/>
<polygon fill="#63b8ff" stroke="#63b8ff" points="154.17,-17.19 143.6,-18.01 152.37,-23.96 154.17,-17.19"/>
</a>
</g>
</g>
<!-- Node7 -->
<g id="Node000007" class="node">
<title>Node7</title>
<g id="a_Node000007"><a xlink:title=" ">
<polygon fill="#e0e0e0" stroke="#999999" points="426,-20 368,-20 368,0 426,0 426,-20"/>
<text text-anchor="middle" x="397" y="-6.5" font-family="Helvetica,sans-Serif" font-size="10.00">stdalign.h</text>
</a>
</g>
</g>
<!-- Node2&#45;&gt;Node7 -->
<g id="edge6_Node000002_Node000007" class="edge">
<title>Node2&#45;&gt;Node7</title>
<g id="a_edge6_Node000002_Node000007"><a xlink:title=" ">
<path fill="none" stroke="#63b8ff" d="M338.37,-55.59C348.65,-47.77 363.52,-36.46 375.71,-27.19"/>
<polygon fill="#63b8ff" stroke="#63b8ff" points="377.73,-30.05 383.57,-21.21 373.49,-24.48 377.73,-30.05"/>
</a>
</g>
</g>
<!-- Node2&#45;&gt;Node8 -->
<g id="edge7_Node000002_Node000008" class="edge">
<title>Node2&#45;&gt;Node8</title>
<g id="a_edge7_Node000002_Node000008"><a xlink:title=" ">
<path fill="none" stroke="#63b8ff" d="M352.48,-55.59C376.85,-46.94 413.25,-34 440.59,-24.29"/>
<polygon fill="#63b8ff" stroke="#63b8ff" points="441.64,-27.63 449.89,-20.99 439.3,-21.04 441.64,-27.63"/>
</a>
</g>
</g>
<!-- Node9&#45;&gt;Node2 -->
<g id="edge10_Node000009_Node000002" class="edge">
<title>Node9&#45;&gt;Node2</title>
<g id="a_edge10_Node000009_Node000002"><a xlink:title=" ">
<path fill="none" stroke="#63b8ff" d="M382.98,-111.59C372.99,-103.77 358.54,-92.46 346.69,-83.19"/>
<polygon fill="#63b8ff" stroke="#63b8ff" points="349.11,-80.64 339.07,-77.23 344.79,-86.15 349.11,-80.64"/>
</a>
</g>
</g>
<!-- Node9&#45;&gt;Node8 -->
<g id="edge11_Node000009_Node000008" class="edge">
<title>Node9&#45;&gt;Node8</title>
<g id="a_edge11_Node000009_Node000008"><a xlink:title=" ">
<path fill="none" stroke="#63b8ff" d="M402.08,-111.62C415.8,-93.44 446.24,-53.09 464.13,-29.38"/>
<polygon fill="#63b8ff" stroke="#63b8ff" points="466.8,-31.65 470.03,-21.56 461.21,-27.44 466.8,-31.65"/>
</a>
</g>
</g>
<!-- Node10&#45;&gt;Node2 -->
<g id="edge13_Node000010_Node000002" class="edge">
<title>Node10&#45;&gt;Node2</title>
<g id="a_edge13_Node000010_Node000002"><a xlink:title=" ">
<path fill="none" stroke="#63b8ff" d="M266.54,-111.59C276.97,-103.77 292.05,-92.46 304.41,-83.19"/>
<polygon fill="#63b8ff" stroke="#63b8ff" points="306.49,-86.01 312.39,-77.21 302.29,-80.41 306.49,-86.01"/>
</a>
</g>
</g>
<!-- Node11 -->
<g id="Node000011" class="node">
<title>Node11</title>
<g id="a_Node000011"><a xlink:href="error_8h.html" target="_top" xlink:title=" ">
<polygon fill="white" stroke="#666666" points="187.25,-76 118.75,-76 118.75,-56 187.25,-56 187.25,-76"/>
<text text-anchor="middle" x="153" y="-62.5" font-family="Helvetica,sans-Serif" font-size="10.00">zrtos/error.h</text>
</a>
</g>
</g>
<!-- Node10&#45;&gt;Node11 -->
<g id="edge14_Node000010_Node000011" class="edge">
<title>Node10&#45;&gt;Node11</title>
<g id="a_edge14_Node000010_Node000011"><a xlink:title=" ">
<path fill="none" stroke="#63b8ff" d="M236.41,-111.59C221.08,-103.4 198.58,-91.37 180.81,-81.87"/>
<polygon fill="#63b8ff" stroke="#63b8ff" points="182.53,-78.82 172.06,-77.19 179.23,-84.99 182.53,-78.82"/>
</a>
</g>
</g>
<!-- Node11&#45;&gt;Node3 -->
<g id="edge16_Node000011_Node000003" class="edge">
<title>Node11&#45;&gt;Node3</title>
<g id="a_edge16_Node000011_Node000003"><a xlink:title=" ">
<path fill="none" stroke="#63b8ff" d="M159.1,-55.59C163.71,-48.47 170.21,-38.45 175.87,-29.72"/>
<polygon fill="#63b8ff" stroke="#63b8ff" points="178.65,-31.86 181.15,-21.57 172.77,-28.06 178.65,-31.86"/>
</a>
</g>
</g>
<!-- Node11&#45;&gt;Node6 -->
<g id="edge15_Node000011_Node000006" class="edge">
<title>Node11&#45;&gt;Node6</title>
<g id="a_edge15_Node000011_Node000006"><a xlink:title=" ">
<path fill="none" stroke="#63b8ff" d="M146.9,-55.59C142.29,-48.47 135.79,-38.45 130.13,-29.72"/>
<polygon fill="#63b8ff" stroke="#63b8ff" points="133.23,-28.06 124.85,-21.57 127.35,-31.86 133.23,-28.06"/>
</a>
</g>
</g>
<!-- Node12 -->
<g id="Node000012" class="node">
<title>Node12</title>
<g id="a_Node000012"><a xlink:href="assert_8h.html" target="_top" xlink:title=" ">
<polygon fill="white" stroke="#666666" points="76,-20 0,-20 0,0 76,0 76,-20"/>
<text text-anchor="middle" x="38" y="-6.5" font-family="Helvetica,sans-Serif" font-size="10.00">zrtos/assert.h</text>
</a>
</g>
</g>
<!-- Node11&#45;&gt;Node12 -->
<g id="edge17_Node000011_Node000012" class="edge">
<title>Node11&#45;&gt;Node12</title>
<g id="a_edge17_Node000011_Node000012"><a xlink:title=" ">
<path fill="none" stroke="#63b8ff" d="M132.97,-55.59C115.19,-47.24 88.93,-34.92 68.54,-25.34"/>
<polygon fill="#63b8ff" stroke="#63b8ff" points="70.1,-22.21 59.56,-21.12 67.12,-28.54 70.1,-22.21"/>
</a>
</g>
</g>
</g>
</svg>
