<?xml version="1.0" encoding="UTF-8" standalone="no"?>
<!DOCTYPE svg PUBLIC "-//W3C//DTD SVG 1.1//EN"
 "http://www.w3.org/Graphics/SVG/1.1/DTD/svg11.dtd">
<!-- Generated by graphviz version 2.40.1 (20161225.0304)
 -->
<!-- Title: rtos_vfs_module_w5500_socket__read_data Pages: 1 -->
<svg width="452pt" height="39pt"
 viewBox="0.00 0.00 452.00 39.00" xmlns="http://www.w3.org/2000/svg" xmlns:xlink="http://www.w3.org/1999/xlink">
<g id="graph0" class="graph" transform="scale(1 1) rotate(0) translate(4 35)">
<title>rtos_vfs_module_w5500_socket__read_data</title>
<polygon fill="#ffffff" stroke="transparent" points="-4,4 -4,-35 448,-35 448,4 -4,4"/>
<!-- Node50 -->
<g id="node1" class="node">
<title>Node50</title>
<polygon fill="#bfbfbf" stroke="#000000" points="0,-.5 0,-30.5 122,-30.5 122,-.5 0,-.5"/>
<text text-anchor="start" x="8" y="-18.5" font-family="Helvetica,sans-Serif" font-size="10.00" fill="#000000">rtos_vfs_module_w5500</text>
<text text-anchor="middle" x="61" y="-7.5" font-family="Helvetica,sans-Serif" font-size="10.00" fill="#000000">_socket__read_data</text>
</g>
<!-- Node51 -->
<g id="node2" class="node">
<title>Node51</title>
<g id="a_node2"><a xlink:href="w5500__socket_8h.html#ad5ebfa57bf612747510f6ee4e34ab7a0" target="_top" xlink:title="rtos_vfs_module_w5500\l_socket__on_read">
<polygon fill="#ffffff" stroke="#000000" points="158,-.5 158,-30.5 280,-30.5 280,-.5 158,-.5"/>
<text text-anchor="start" x="166" y="-18.5" font-family="Helvetica,sans-Serif" font-size="10.00" fill="#000000">rtos_vfs_module_w5500</text>
<text text-anchor="middle" x="219" y="-7.5" font-family="Helvetica,sans-Serif" font-size="10.00" fill="#000000">_socket__on_read</text>
</a>
</g>
</g>
<!-- Node50&#45;&gt;Node51 -->
<g id="edge1" class="edge">
<title>Node50&#45;&gt;Node51</title>
<path fill="none" stroke="#191970" d="M132.3656,-15.5C140.8625,-15.5 149.4784,-15.5 157.815,-15.5"/>
<polygon fill="#191970" stroke="#191970" points="132.087,-12.0001 122.0869,-15.5 132.0869,-19.0001 132.087,-12.0001"/>
</g>
<!-- Node52 -->
<g id="node3" class="node">
<title>Node52</title>
<g id="a_node3"><a xlink:href="w5500__socket_8h.html#ad72fd59b1d4ff9fec448680d4d97a3fe" target="_top" xlink:title="zrtos_vfs_module_w5500\l_socket__on_ioctl">
<polygon fill="#ffffff" stroke="#000000" points="316,-.5 316,-30.5 444,-30.5 444,-.5 316,-.5"/>
<text text-anchor="start" x="324" y="-18.5" font-family="Helvetica,sans-Serif" font-size="10.00" fill="#000000">zrtos_vfs_module_w5500</text>
<text text-anchor="middle" x="380" y="-7.5" font-family="Helvetica,sans-Serif" font-size="10.00" fill="#000000">_socket__on_ioctl</text>
</a>
</g>
</g>
<!-- Node51&#45;&gt;Node52 -->
<g id="edge2" class="edge">
<title>Node51&#45;&gt;Node52</title>
<path fill="none" stroke="#191970" d="M290.5386,-15.5C298.9857,-15.5 307.566,-15.5 315.9014,-15.5"/>
<polygon fill="#191970" stroke="#191970" points="290.3265,-12.0001 280.3265,-15.5 290.3264,-19.0001 290.3265,-12.0001"/>
</g>
</g>
</svg>
