<?xml version="1.0" encoding="UTF-8" standalone="no"?>
<!DOCTYPE svg PUBLIC "-//W3C//DTD SVG 1.1//EN"
 "http://www.w3.org/Graphics/SVG/1.1/DTD/svg11.dtd">
<!-- Generated by graphviz version 2.40.1 (20161225.0304)
 -->
<!-- Title: zrtos_vfs_module_w5500_socket__on_ioctl_helper_validate_addr Pages: 1 -->
<svg width="300pt" height="88pt"
 viewBox="0.00 0.00 300.00 88.00" xmlns="http://www.w3.org/2000/svg" xmlns:xlink="http://www.w3.org/1999/xlink">
<g id="graph0" class="graph" transform="scale(1 1) rotate(0) translate(4 84)">
<title>zrtos_vfs_module_w5500_socket__on_ioctl_helper_validate_addr</title>
<polygon fill="#ffffff" stroke="transparent" points="-4,4 -4,-84 296,-84 296,4 -4,4"/>
<!-- Node72 -->
<g id="node1" class="node">
<title>Node72</title>
<polygon fill="#bfbfbf" stroke="#000000" points="0,-19 0,-60 128,-60 128,-19 0,-19"/>
<text text-anchor="start" x="8" y="-48" font-family="Helvetica,sans-Serif" font-size="10.00" fill="#000000">zrtos_vfs_module_w5500</text>
<text text-anchor="start" x="8" y="-37" font-family="Helvetica,sans-Serif" font-size="10.00" fill="#000000">_socket__on_ioctl_helper</text>
<text text-anchor="middle" x="64" y="-26" font-family="Helvetica,sans-Serif" font-size="10.00" fill="#000000">_validate_addr</text>
</g>
<!-- Node73 -->
<g id="node2" class="node">
<title>Node73</title>
<g id="a_node2"><a xlink:href="w5500_8h.html#ab56300a7356e13fa1a5cff355617a697" target="_top" xlink:title="zrtos_vfs_module_w5500\l__on_ioctl">
<polygon fill="#ffffff" stroke="#000000" points="164,-49.5 164,-79.5 292,-79.5 292,-49.5 164,-49.5"/>
<text text-anchor="start" x="172" y="-67.5" font-family="Helvetica,sans-Serif" font-size="10.00" fill="#000000">zrtos_vfs_module_w5500</text>
<text text-anchor="middle" x="228" y="-56.5" font-family="Helvetica,sans-Serif" font-size="10.00" fill="#000000">__on_ioctl</text>
</a>
</g>
</g>
<!-- Node72&#45;&gt;Node73 -->
<g id="edge1" class="edge">
<title>Node72&#45;&gt;Node73</title>
<path fill="none" stroke="#191970" d="M138.2859,-50.8241C146.8158,-52.1244 155.4581,-53.4418 163.8391,-54.7194"/>
<polygon fill="#191970" stroke="#191970" points="138.7597,-47.3559 128.3464,-49.3089 137.7048,-54.276 138.7597,-47.3559"/>
</g>
<!-- Node74 -->
<g id="node3" class="node">
<title>Node74</title>
<g id="a_node3"><a xlink:href="w5500__socket_8h.html#ad72fd59b1d4ff9fec448680d4d97a3fe" target="_top" xlink:title="zrtos_vfs_module_w5500\l_socket__on_ioctl">
<polygon fill="#ffffff" stroke="#000000" points="164,-.5 164,-30.5 292,-30.5 292,-.5 164,-.5"/>
<text text-anchor="start" x="172" y="-18.5" font-family="Helvetica,sans-Serif" font-size="10.00" fill="#000000">zrtos_vfs_module_w5500</text>
<text text-anchor="middle" x="228" y="-7.5" font-family="Helvetica,sans-Serif" font-size="10.00" fill="#000000">_socket__on_ioctl</text>
</a>
</g>
</g>
<!-- Node72&#45;&gt;Node74 -->
<g id="edge2" class="edge">
<title>Node72&#45;&gt;Node74</title>
<path fill="none" stroke="#191970" d="M138.2859,-28.6289C146.8158,-27.3806 155.4581,-26.1159 163.8391,-24.8894"/>
<polygon fill="#191970" stroke="#191970" points="137.7342,-25.1723 128.3464,-30.0834 138.7479,-32.0985 137.7342,-25.1723"/>
</g>
</g>
</svg>
