<?xml version="1.0" encoding="UTF-8" standalone="no"?>
<!DOCTYPE svg PUBLIC "-//W3C//DTD SVG 1.1//EN"
 "http://www.w3.org/Graphics/SVG/1.1/DTD/svg11.dtd">
<!-- Generated by graphviz version 2.40.1 (20161225.0304)
 -->
<!-- Title: rtos_vfs_module_w5500_socket__on_can_read_write_helper Pages: 1 -->
<svg width="761pt" height="127pt"
 viewBox="0.00 0.00 761.00 127.00" xmlns="http://www.w3.org/2000/svg" xmlns:xlink="http://www.w3.org/1999/xlink">
<g id="graph0" class="graph" transform="scale(1 1) rotate(0) translate(4 123)">
<title>rtos_vfs_module_w5500_socket__on_can_read_write_helper</title>
<polygon fill="#ffffff" stroke="transparent" points="-4,4 -4,-123 757,-123 757,4 -4,4"/>
<!-- Node10 -->
<g id="node1" class="node">
<title>Node10</title>
<polygon fill="#bfbfbf" stroke="#000000" points="0,-39 0,-80 122,-80 122,-39 0,-39"/>
<text text-anchor="start" x="8" y="-68" font-family="Helvetica,sans-Serif" font-size="10.00" fill="#000000">rtos_vfs_module_w5500</text>
<text text-anchor="start" x="8" y="-57" font-family="Helvetica,sans-Serif" font-size="10.00" fill="#000000">_socket__on_can_read</text>
<text text-anchor="middle" x="61" y="-46" font-family="Helvetica,sans-Serif" font-size="10.00" fill="#000000">_write_helper</text>
</g>
<!-- Node11 -->
<g id="node2" class="node">
<title>Node11</title>
<g id="a_node2"><a xlink:href="vfs__file_8h.html#af192d2176bcd9a795fe8253a0759b0c7" target="_top" xlink:title="zrtos_vfs_file__get\l_inode_data">
<polygon fill="#ffffff" stroke="#000000" points="172.5,-88.5 172.5,-118.5 271.5,-118.5 271.5,-88.5 172.5,-88.5"/>
<text text-anchor="start" x="180.5" y="-106.5" font-family="Helvetica,sans-Serif" font-size="10.00" fill="#000000">zrtos_vfs_file__get</text>
<text text-anchor="middle" x="222" y="-95.5" font-family="Helvetica,sans-Serif" font-size="10.00" fill="#000000">_inode_data</text>
</a>
</g>
</g>
<!-- Node10&#45;&gt;Node11 -->
<g id="edge1" class="edge">
<title>Node10&#45;&gt;Node11</title>
<path fill="none" stroke="#191970" d="M122.3265,-76.26C135.4978,-79.8597 149.3963,-83.658 162.4971,-87.2383"/>
<polygon fill="#191970" stroke="#191970" points="161.7657,-90.6667 172.3346,-89.9269 163.6111,-83.9144 161.7657,-90.6667"/>
</g>
<!-- Node12 -->
<g id="node3" class="node">
<title>Node12</title>
<g id="a_node3"><a xlink:href="error_8h.html#add13298163f63b7d37ed9f12d57e1a31" target="_top" xlink:title="zrtos_error__is_success">
<polygon fill="#ffffff" stroke="#000000" points="490,-47 490,-66 613,-66 613,-47 490,-47"/>
<text text-anchor="middle" x="551.5" y="-54" font-family="Helvetica,sans-Serif" font-size="10.00" fill="#000000">zrtos_error__is_success</text>
</a>
</g>
</g>
<!-- Node10&#45;&gt;Node12 -->
<g id="edge2" class="edge">
<title>Node10&#45;&gt;Node12</title>
<path fill="none" stroke="#191970" d="M122.1304,-59.1261C212.9426,-58.5707 383.1261,-57.5298 479.7267,-56.939"/>
<polygon fill="#191970" stroke="#191970" points="480.0075,-60.4374 489.9858,-56.8762 479.9646,-53.4376 480.0075,-60.4374"/>
</g>
<!-- Node13 -->
<g id="node4" class="node">
<title>Node13</title>
<g id="a_node4"><a xlink:href="w5500_8h.html#a5d6bea1b0c1248b87ccebb1f52beccc5" target="_top" xlink:title="zrtos_vfs_module_w5500\l__spi_transfer_uint16">
<polygon fill="#ffffff" stroke="#000000" points="158,-.5 158,-30.5 286,-30.5 286,-.5 158,-.5"/>
<text text-anchor="start" x="166" y="-18.5" font-family="Helvetica,sans-Serif" font-size="10.00" fill="#000000">zrtos_vfs_module_w5500</text>
<text text-anchor="middle" x="222" y="-7.5" font-family="Helvetica,sans-Serif" font-size="10.00" fill="#000000">__spi_transfer_uint16</text>
</a>
</g>
</g>
<!-- Node10&#45;&gt;Node13 -->
<g id="edge3" class="edge">
<title>Node10&#45;&gt;Node13</title>
<path fill="none" stroke="#191970" d="M122.3265,-42.74C133.6671,-39.6407 145.5467,-36.3941 156.9922,-33.2661"/>
<polygon fill="#191970" stroke="#191970" points="158.1905,-36.5671 166.914,-30.5546 156.3451,-29.8147 158.1905,-36.5671"/>
</g>
<!-- Node14 -->
<g id="node5" class="node">
<title>Node14</title>
<g id="a_node5"><a xlink:href="vfs__fd_8h.html#a1e3e2241dc54e1283f012b7ecc641053" target="_top" xlink:title="zrtos_vfs_fd__spi_transfer">
<polygon fill="#ffffff" stroke="#000000" points="322,-9 322,-28 454,-28 454,-9 322,-9"/>
<text text-anchor="middle" x="388" y="-16" font-family="Helvetica,sans-Serif" font-size="10.00" fill="#000000">zrtos_vfs_fd__spi_transfer</text>
</a>
</g>
</g>
<!-- Node13&#45;&gt;Node14 -->
<g id="edge4" class="edge">
<title>Node13&#45;&gt;Node14</title>
<path fill="none" stroke="#191970" d="M286.1799,-16.6599C294.4823,-16.8099 303.0499,-16.9648 311.5262,-17.1179"/>
<polygon fill="#191970" stroke="#191970" points="311.7345,-20.6222 321.7961,-17.3035 311.861,-13.6233 311.7345,-20.6222"/>
</g>
<!-- Node14&#45;&gt;Node12 -->
<g id="edge7" class="edge">
<title>Node14&#45;&gt;Node12</title>
<path fill="none" stroke="#191970" d="M429.258,-28.089C450.9307,-33.1261 477.6832,-39.3438 500.6303,-44.6771"/>
<polygon fill="#191970" stroke="#191970" points="500.006,-48.1252 510.5387,-46.9799 501.5907,-41.3069 500.006,-48.1252"/>
</g>
<!-- Node15 -->
<g id="node6" class="node">
<title>Node15</title>
<g id="a_node6"><a xlink:href="vfs__fd_8h.html#a1c176ae3990492b9deae02682a6782e1" target="_top" xlink:title="zrtos_vfs_fd__read">
<polygon fill="#ffffff" stroke="#000000" points="501.5,-9 501.5,-28 601.5,-28 601.5,-9 501.5,-9"/>
<text text-anchor="middle" x="551.5" y="-16" font-family="Helvetica,sans-Serif" font-size="10.00" fill="#000000">zrtos_vfs_fd__read</text>
</a>
</g>
</g>
<!-- Node14&#45;&gt;Node15 -->
<g id="edge5" class="edge">
<title>Node14&#45;&gt;Node15</title>
<path fill="none" stroke="#191970" d="M454.0304,-18.5C466.3552,-18.5 479.1753,-18.5 491.3125,-18.5"/>
<polygon fill="#191970" stroke="#191970" points="491.3213,-22.0001 501.3213,-18.5 491.3213,-15.0001 491.3213,-22.0001"/>
</g>
<!-- Node16 -->
<g id="node7" class="node">
<title>Node16</title>
<g id="a_node7"><a xlink:href="vfs__file_8h.html#a27e4ed3d3306da0eaccc004eebc8d3c4" target="_top" xlink:title="zrtos_vfs_file__read">
<polygon fill="#ffffff" stroke="#000000" points="649,-9 649,-28 753,-28 753,-9 649,-9"/>
<text text-anchor="middle" x="701" y="-16" font-family="Helvetica,sans-Serif" font-size="10.00" fill="#000000">zrtos_vfs_file__read</text>
</a>
</g>
</g>
<!-- Node15&#45;&gt;Node16 -->
<g id="edge6" class="edge">
<title>Node15&#45;&gt;Node16</title>
<path fill="none" stroke="#191970" d="M601.6972,-18.5C613.5597,-18.5 626.3503,-18.5 638.677,-18.5"/>
<polygon fill="#191970" stroke="#191970" points="638.8917,-22.0001 648.8917,-18.5 638.8917,-15.0001 638.8917,-22.0001"/>
</g>
</g>
</svg>
