<?xml version="1.0" encoding="UTF-8" standalone="no"?>
<!DOCTYPE svg PUBLIC "-//W3C//DTD SVG 1.1//EN"
 "http://www.w3.org/Graphics/SVG/1.1/DTD/svg11.dtd">
<!-- Generated by graphviz version 2.40.1 (20161225.0304)
 -->
<!-- Title: rtos_vfs_module_w5500_socket__on_read Pages: 1 -->
<svg width="761pt" height="214pt"
 viewBox="0.00 0.00 761.00 214.00" xmlns="http://www.w3.org/2000/svg" xmlns:xlink="http://www.w3.org/1999/xlink">
<g id="graph0" class="graph" transform="scale(1 1) rotate(0) translate(4 210)">
<title>rtos_vfs_module_w5500_socket__on_read</title>
<polygon fill="#ffffff" stroke="transparent" points="-4,4 -4,-210 757,-210 757,4 -4,4"/>
<!-- Node31 -->
<g id="node1" class="node">
<title>Node31</title>
<polygon fill="#bfbfbf" stroke="#000000" points="0,-93.5 0,-123.5 122,-123.5 122,-93.5 0,-93.5"/>
<text text-anchor="start" x="8" y="-111.5" font-family="Helvetica,sans-Serif" font-size="10.00" fill="#000000">rtos_vfs_module_w5500</text>
<text text-anchor="middle" x="61" y="-100.5" font-family="Helvetica,sans-Serif" font-size="10.00" fill="#000000">_socket__on_read</text>
</g>
<!-- Node32 -->
<g id="node2" class="node">
<title>Node32</title>
<g id="a_node2"><a xlink:href="vfs__file_8h.html#af192d2176bcd9a795fe8253a0759b0c7" target="_top" xlink:title="zrtos_vfs_file__get\l_inode_data">
<polygon fill="#ffffff" stroke="#000000" points="172.5,-175.5 172.5,-205.5 271.5,-205.5 271.5,-175.5 172.5,-175.5"/>
<text text-anchor="start" x="180.5" y="-193.5" font-family="Helvetica,sans-Serif" font-size="10.00" fill="#000000">zrtos_vfs_file__get</text>
<text text-anchor="middle" x="222" y="-182.5" font-family="Helvetica,sans-Serif" font-size="10.00" fill="#000000">_inode_data</text>
</a>
</g>
</g>
<!-- Node31&#45;&gt;Node32 -->
<g id="edge1" class="edge">
<title>Node31&#45;&gt;Node32</title>
<path fill="none" stroke="#191970" d="M84.3391,-123.6354C103.6362,-135.7993 131.9928,-152.8781 158,-165.5 162.2692,-167.5719 166.757,-169.6036 171.2924,-171.5575"/>
<polygon fill="#191970" stroke="#191970" points="170.0374,-174.8263 180.614,-175.447 172.7329,-168.3661 170.0374,-174.8263"/>
</g>
<!-- Node33 -->
<g id="node3" class="node">
<title>Node33</title>
<g id="a_node3"><a xlink:href="vfs__file_8h.html#a04a201b5b034eb09d22292ec8700a144" target="_top" xlink:title="zrtos_vfs_file__get_data">
<polygon fill="#ffffff" stroke="#000000" points="160.5,-137 160.5,-156 283.5,-156 283.5,-137 160.5,-137"/>
<text text-anchor="middle" x="222" y="-144" font-family="Helvetica,sans-Serif" font-size="10.00" fill="#000000">zrtos_vfs_file__get_data</text>
</a>
</g>
</g>
<!-- Node31&#45;&gt;Node33 -->
<g id="edge2" class="edge">
<title>Node31&#45;&gt;Node33</title>
<path fill="none" stroke="#191970" d="M122.3265,-122.9746C138.5095,-126.7942 155.7902,-130.8728 171.3404,-134.5431"/>
<polygon fill="#191970" stroke="#191970" points="170.7436,-137.9983 181.2803,-136.8891 172.3517,-131.1855 170.7436,-137.9983"/>
</g>
<!-- Node34 -->
<g id="node4" class="node">
<title>Node34</title>
<g id="a_node4"><a xlink:href="error_8h.html#add13298163f63b7d37ed9f12d57e1a31" target="_top" xlink:title="zrtos_error__is_success">
<polygon fill="#ffffff" stroke="#000000" points="490,-58 490,-77 613,-77 613,-58 490,-58"/>
<text text-anchor="middle" x="551.5" y="-65" font-family="Helvetica,sans-Serif" font-size="10.00" fill="#000000">zrtos_error__is_success</text>
</a>
</g>
</g>
<!-- Node31&#45;&gt;Node34 -->
<g id="edge3" class="edge">
<title>Node31&#45;&gt;Node34</title>
<path fill="none" stroke="#191970" d="M122.0078,-104.9239C199.3427,-100.1779 336.7218,-91.0372 454,-79.5 462.3565,-78.6779 471.105,-77.7282 479.7857,-76.7304"/>
<polygon fill="#191970" stroke="#191970" points="480.3933,-80.1832 489.9173,-75.5416 479.5775,-73.2308 480.3933,-80.1832"/>
</g>
<!-- Node35 -->
<g id="node5" class="node">
<title>Node35</title>
<g id="a_node5"><a xlink:href="w5500_8h.html#a5d6bea1b0c1248b87ccebb1f52beccc5" target="_top" xlink:title="zrtos_vfs_module_w5500\l__spi_transfer_uint16">
<polygon fill="#ffffff" stroke="#000000" points="158,-.5 158,-30.5 286,-30.5 286,-.5 158,-.5"/>
<text text-anchor="start" x="166" y="-18.5" font-family="Helvetica,sans-Serif" font-size="10.00" fill="#000000">zrtos_vfs_module_w5500</text>
<text text-anchor="middle" x="222" y="-7.5" font-family="Helvetica,sans-Serif" font-size="10.00" fill="#000000">__spi_transfer_uint16</text>
</a>
</g>
</g>
<!-- Node31&#45;&gt;Node35 -->
<g id="edge4" class="edge">
<title>Node31&#45;&gt;Node35</title>
<path fill="none" stroke="#191970" d="M79.811,-93.2622C98.7391,-78.4356 129.177,-55.9446 158,-40.5 161.8903,-38.4154 165.993,-36.4112 170.1654,-34.5076"/>
<polygon fill="#191970" stroke="#191970" points="171.5823,-37.7081 179.3555,-30.509 168.7895,-31.2893 171.5823,-37.7081"/>
</g>
<!-- Node39 -->
<g id="node9" class="node">
<title>Node39</title>
<g id="a_node9"><a xlink:href="w5500__socket_8h.html#a8580d9d092c4e4ce36d1a22ba43fd2e3" target="_top" xlink:title="rtos_vfs_module_w5500\l_socket__read_data">
<polygon fill="#ffffff" stroke="#000000" points="161,-49.5 161,-79.5 283,-79.5 283,-49.5 161,-49.5"/>
<text text-anchor="start" x="169" y="-67.5" font-family="Helvetica,sans-Serif" font-size="10.00" fill="#000000">rtos_vfs_module_w5500</text>
<text text-anchor="middle" x="222" y="-56.5" font-family="Helvetica,sans-Serif" font-size="10.00" fill="#000000">_socket__read_data</text>
</a>
</g>
</g>
<!-- Node31&#45;&gt;Node39 -->
<g id="edge9" class="edge">
<title>Node31&#45;&gt;Node39</title>
<path fill="none" stroke="#191970" d="M115.9568,-93.4808C129.2246,-89.8548 143.5251,-85.9466 157.1972,-82.2101"/>
<polygon fill="#191970" stroke="#191970" points="158.2942,-85.5387 167.0178,-79.5262 156.4488,-78.7863 158.2942,-85.5387"/>
</g>
<!-- Node36 -->
<g id="node6" class="node">
<title>Node36</title>
<g id="a_node6"><a xlink:href="vfs__fd_8h.html#a1e3e2241dc54e1283f012b7ecc641053" target="_top" xlink:title="zrtos_vfs_fd__spi_transfer">
<polygon fill="#ffffff" stroke="#000000" points="322,-20 322,-39 454,-39 454,-20 322,-20"/>
<text text-anchor="middle" x="388" y="-27" font-family="Helvetica,sans-Serif" font-size="10.00" fill="#000000">zrtos_vfs_fd__spi_transfer</text>
</a>
</g>
</g>
<!-- Node35&#45;&gt;Node36 -->
<g id="edge5" class="edge">
<title>Node35&#45;&gt;Node36</title>
<path fill="none" stroke="#191970" d="M286.1799,-20.9128C294.5736,-21.6207 303.2383,-22.3514 311.8056,-23.074"/>
<polygon fill="#191970" stroke="#191970" points="311.5373,-26.5637 321.7961,-23.9165 312.1256,-19.5884 311.5373,-26.5637"/>
</g>
<!-- Node36&#45;&gt;Node34 -->
<g id="edge8" class="edge">
<title>Node36&#45;&gt;Node34</title>
<path fill="none" stroke="#191970" d="M429.258,-39.089C450.9307,-44.1261 477.6832,-50.3438 500.6303,-55.6771"/>
<polygon fill="#191970" stroke="#191970" points="500.006,-59.1252 510.5387,-57.9799 501.5907,-52.3069 500.006,-59.1252"/>
</g>
<!-- Node37 -->
<g id="node7" class="node">
<title>Node37</title>
<g id="a_node7"><a xlink:href="vfs__fd_8h.html#a1c176ae3990492b9deae02682a6782e1" target="_top" xlink:title="zrtos_vfs_fd__read">
<polygon fill="#ffffff" stroke="#000000" points="501.5,-20 501.5,-39 601.5,-39 601.5,-20 501.5,-20"/>
<text text-anchor="middle" x="551.5" y="-27" font-family="Helvetica,sans-Serif" font-size="10.00" fill="#000000">zrtos_vfs_fd__read</text>
</a>
</g>
</g>
<!-- Node36&#45;&gt;Node37 -->
<g id="edge6" class="edge">
<title>Node36&#45;&gt;Node37</title>
<path fill="none" stroke="#191970" d="M454.0304,-29.5C466.3552,-29.5 479.1753,-29.5 491.3125,-29.5"/>
<polygon fill="#191970" stroke="#191970" points="491.3213,-33.0001 501.3213,-29.5 491.3213,-26.0001 491.3213,-33.0001"/>
</g>
<!-- Node38 -->
<g id="node8" class="node">
<title>Node38</title>
<g id="a_node8"><a xlink:href="vfs__file_8h.html#a27e4ed3d3306da0eaccc004eebc8d3c4" target="_top" xlink:title="zrtos_vfs_file__read">
<polygon fill="#ffffff" stroke="#000000" points="649,-20 649,-39 753,-39 753,-20 649,-20"/>
<text text-anchor="middle" x="701" y="-27" font-family="Helvetica,sans-Serif" font-size="10.00" fill="#000000">zrtos_vfs_file__read</text>
</a>
</g>
</g>
<!-- Node37&#45;&gt;Node38 -->
<g id="edge7" class="edge">
<title>Node37&#45;&gt;Node38</title>
<path fill="none" stroke="#191970" d="M601.6972,-29.5C613.5597,-29.5 626.3503,-29.5 638.677,-29.5"/>
<polygon fill="#191970" stroke="#191970" points="638.8917,-33.0001 648.8917,-29.5 638.8917,-26.0001 638.8917,-33.0001"/>
</g>
<!-- Node39&#45;&gt;Node34 -->
<g id="edge11" class="edge">
<title>Node39&#45;&gt;Node34</title>
<path fill="none" stroke="#191970" d="M283.2042,-65.0572C338.772,-65.5632 420.769,-66.3097 479.4741,-66.8442"/>
<polygon fill="#191970" stroke="#191970" points="479.7541,-70.3468 489.7856,-66.9381 479.8179,-63.3471 479.7541,-70.3468"/>
</g>
<!-- Node39&#45;&gt;Node36 -->
<g id="edge10" class="edge">
<title>Node39&#45;&gt;Node36</title>
<path fill="none" stroke="#191970" d="M283.3406,-51.5667C299.478,-48.1643 316.7899,-44.5142 332.5952,-41.1817"/>
<polygon fill="#191970" stroke="#191970" points="333.6738,-44.5313 342.7366,-39.0435 332.2296,-37.6819 333.6738,-44.5313"/>
</g>
</g>
</svg>
