<?xml version="1.0" encoding="UTF-8" standalone="no"?>
<!DOCTYPE svg PUBLIC "-//W3C//DTD SVG 1.1//EN"
 "http://www.w3.org/Graphics/SVG/1.1/DTD/svg11.dtd">
<!-- Generated by graphviz version 10.0.1 (20240210.2158)
 -->
<!-- Title: w5500.h Pages: 1 -->
<svg width="160pt" height="140pt"
 viewBox="0.00 0.00 160.00 140.00" xmlns="http://www.w3.org/2000/svg" xmlns:xlink="http://www.w3.org/1999/xlink">
<g id="graph0" class="graph" transform="scale(1 1) rotate(0) translate(4 136)">
<title>w5500.h</title>
<!-- Node1 -->
<g id="Node000001" class="node">
<title>Node1</title>
<g id="a_Node000001"><a xlink:title=" ">
<polygon fill="#999999" stroke="#666666" points="84.12,-132 32.12,-132 32.12,-112 84.12,-112 84.12,-132"/>
<text text-anchor="middle" x="58.12" y="-118.5" font-family="Helvetica,sans-Serif" font-size="10.00">w5500.h</text>
</a>
</g>
</g>
<!-- Node2 -->
<g id="Node000002" class="node">
<title>Node2</title>
<g id="a_Node000002"><a xlink:title=" ">
<polygon fill="#e0e0e0" stroke="#999999" points="48.25,-20 0,-20 0,0 48.25,0 48.25,-20"/>
<text text-anchor="middle" x="24.12" y="-6.5" font-family="Helvetica,sans-Serif" font-size="10.00">stdint.h</text>
</a>
</g>
</g>
<!-- Node1&#45;&gt;Node2 -->
<g id="edge1_Node000001_Node000002" class="edge">
<title>Node1&#45;&gt;Node2</title>
<g id="a_edge1_Node000001_Node000002"><a xlink:title=" ">
<path fill="none" stroke="#63b8ff" d="M54.92,-111.72C51.81,-102.65 47.01,-88.42 43.12,-76 38.45,-61.03 33.48,-44.02 29.81,-31.15"/>
<polygon fill="#63b8ff" stroke="#63b8ff" points="33.23,-30.41 27.14,-21.75 26.5,-32.32 33.23,-30.41"/>
</a>
</g>
</g>
<!-- Node3 -->
<g id="Node000003" class="node">
<title>Node3</title>
<g id="a_Node000003"><a xlink:href="wizchip__conf_8h.html" target="_top" xlink:title="WIZCHIP Config Header File.">
<polygon fill="white" stroke="#666666" points="132,-76 52.25,-76 52.25,-56 132,-56 132,-76"/>
<text text-anchor="middle" x="92.12" y="-62.5" font-family="Helvetica,sans-Serif" font-size="10.00">wizchip_conf.h</text>
</a>
</g>
</g>
<!-- Node1&#45;&gt;Node3 -->
<g id="edge2_Node000001_Node000003" class="edge">
<title>Node1&#45;&gt;Node3</title>
<g id="a_edge2_Node000001_Node000003"><a xlink:title=" ">
<path fill="none" stroke="#63b8ff" d="M64.05,-111.59C68.48,-104.55 74.7,-94.67 80.16,-86"/>
<polygon fill="#63b8ff" stroke="#63b8ff" points="83.1,-87.91 85.46,-77.58 77.17,-84.18 83.1,-87.91"/>
</a>
</g>
</g>
<!-- Node3&#45;&gt;Node2 -->
<g id="edge3_Node000003_Node000002" class="edge">
<title>Node3&#45;&gt;Node2</title>
<g id="a_edge3_Node000003_Node000002"><a xlink:title=" ">
<path fill="none" stroke="#63b8ff" d="M80.28,-55.59C70.43,-47.77 56.19,-36.46 44.52,-27.19"/>
<polygon fill="#63b8ff" stroke="#63b8ff" points="47.03,-24.72 37.02,-21.24 42.67,-30.2 47.03,-24.72"/>
</a>
</g>
</g>
<!-- Node4 -->
<g id="Node000004" class="node">
<title>Node4</title>
<g id="a_Node000004"><a xlink:title=" ">
<polygon fill="#e0e0e0" stroke="#999999" points="152,-20 66.25,-20 66.25,0 152,0 152,-20"/>
<text text-anchor="middle" x="109.12" y="-6.5" font-family="Helvetica,sans-Serif" font-size="10.00">W5100/w5100.h</text>
</a>
</g>
</g>
<!-- Node3&#45;&gt;Node4 -->
<g id="edge4_Node000003_Node000004" class="edge">
<title>Node3&#45;&gt;Node4</title>
<g id="a_edge4_Node000003_Node000004"><a xlink:title=" ">
<path fill="none" stroke="#63b8ff" d="M95.09,-55.59C97.21,-48.86 100.14,-39.53 102.78,-31.15"/>
<polygon fill="#63b8ff" stroke="#63b8ff" points="106.08,-32.33 105.74,-21.74 99.4,-30.23 106.08,-32.33"/>
</a>
</g>
</g>
</g>
</svg>
