<?xml version="1.0" encoding="UTF-8" standalone="no"?>
<!DOCTYPE svg PUBLIC "-//W3C//DTD SVG 1.1//EN"
 "http://www.w3.org/Graphics/SVG/1.1/DTD/svg11.dtd">
<!-- Generated by graphviz version 2.40.1 (20161225.0304)
 -->
<!-- Title: rtos_vfs_module_w5500_socket__on_can_read_write_helper Pages: 1 -->
<svg width="452pt" height="88pt"
 viewBox="0.00 0.00 452.00 88.00" xmlns="http://www.w3.org/2000/svg" xmlns:xlink="http://www.w3.org/1999/xlink">
<g id="graph0" class="graph" transform="scale(1 1) rotate(0) translate(4 84)">
<title>rtos_vfs_module_w5500_socket__on_can_read_write_helper</title>
<polygon fill="#ffffff" stroke="transparent" points="-4,4 -4,-84 448,-84 448,4 -4,4"/>
<!-- Node17 -->
<g id="node1" class="node">
<title>Node17</title>
<polygon fill="#bfbfbf" stroke="#000000" points="0,-19 0,-60 122,-60 122,-19 0,-19"/>
<text text-anchor="start" x="8" y="-48" font-family="Helvetica,sans-Serif" font-size="10.00" fill="#000000">rtos_vfs_module_w5500</text>
<text text-anchor="start" x="8" y="-37" font-family="Helvetica,sans-Serif" font-size="10.00" fill="#000000">_socket__on_can_read</text>
<text text-anchor="middle" x="61" y="-26" font-family="Helvetica,sans-Serif" font-size="10.00" fill="#000000">_write_helper</text>
</g>
<!-- Node18 -->
<g id="node2" class="node">
<title>Node18</title>
<g id="a_node2"><a xlink:href="w5500__socket_8h.html#a5fcc60fbc21a29204dee2ec89f88b7cf" target="_top" xlink:title="rtos_vfs_module_w5500\l_socket__on_can_read">
<polygon fill="#ffffff" stroke="#000000" points="158,-49.5 158,-79.5 280,-79.5 280,-49.5 158,-49.5"/>
<text text-anchor="start" x="166" y="-67.5" font-family="Helvetica,sans-Serif" font-size="10.00" fill="#000000">rtos_vfs_module_w5500</text>
<text text-anchor="middle" x="219" y="-56.5" font-family="Helvetica,sans-Serif" font-size="10.00" fill="#000000">_socket__on_can_read</text>
</a>
</g>
</g>
<!-- Node17&#45;&gt;Node18 -->
<g id="edge1" class="edge">
<title>Node17&#45;&gt;Node18</title>
<path fill="none" stroke="#191970" d="M132.0855,-50.7477C140.6732,-52.1065 149.3868,-53.4853 157.815,-54.8188"/>
<polygon fill="#191970" stroke="#191970" points="132.5111,-47.2716 122.0869,-49.1657 131.417,-54.1856 132.5111,-47.2716"/>
</g>
<!-- Node20 -->
<g id="node4" class="node">
<title>Node20</title>
<g id="a_node4"><a xlink:href="w5500__socket_8h.html#a6c41067dd75702313739a0842b229fa2" target="_top" xlink:title="rtos_vfs_module_w5500\l_socket__on_can_write">
<polygon fill="#ffffff" stroke="#000000" points="158,-.5 158,-30.5 280,-30.5 280,-.5 158,-.5"/>
<text text-anchor="start" x="166" y="-18.5" font-family="Helvetica,sans-Serif" font-size="10.00" fill="#000000">rtos_vfs_module_w5500</text>
<text text-anchor="middle" x="219" y="-7.5" font-family="Helvetica,sans-Serif" font-size="10.00" fill="#000000">_socket__on_can_write</text>
</a>
</g>
</g>
<!-- Node17&#45;&gt;Node20 -->
<g id="edge3" class="edge">
<title>Node17&#45;&gt;Node20</title>
<path fill="none" stroke="#191970" d="M132.0855,-28.7022C140.6732,-27.3977 149.3868,-26.0742 157.815,-24.7939"/>
<polygon fill="#191970" stroke="#191970" points="131.4479,-25.2588 122.0869,-30.221 132.4992,-32.1794 131.4479,-25.2588"/>
</g>
<!-- Node19 -->
<g id="node3" class="node">
<title>Node19</title>
<g id="a_node3"><a xlink:href="w5500__socket_8h.html#ad72fd59b1d4ff9fec448680d4d97a3fe" target="_top" xlink:title="zrtos_vfs_module_w5500\l_socket__on_ioctl">
<polygon fill="#ffffff" stroke="#000000" points="316,-24.5 316,-54.5 444,-54.5 444,-24.5 316,-24.5"/>
<text text-anchor="start" x="324" y="-42.5" font-family="Helvetica,sans-Serif" font-size="10.00" fill="#000000">zrtos_vfs_module_w5500</text>
<text text-anchor="middle" x="380" y="-31.5" font-family="Helvetica,sans-Serif" font-size="10.00" fill="#000000">_socket__on_ioctl</text>
</a>
</g>
</g>
<!-- Node18&#45;&gt;Node19 -->
<g id="edge2" class="edge">
<title>Node18&#45;&gt;Node19</title>
<path fill="none" stroke="#191970" d="M290.2601,-53.4348C298.797,-52.1092 307.4744,-50.7617 315.9014,-49.4532"/>
<polygon fill="#191970" stroke="#191970" points="289.671,-49.9842 280.3265,-54.9773 290.7451,-56.9013 289.671,-49.9842"/>
</g>
<!-- Node20&#45;&gt;Node19 -->
<g id="edge4" class="edge">
<title>Node20&#45;&gt;Node19</title>
<path fill="none" stroke="#191970" d="M290.2601,-26.1226C298.797,-27.3952 307.4744,-28.6887 315.9014,-29.9449"/>
<polygon fill="#191970" stroke="#191970" points="290.7333,-22.6546 280.3265,-24.6418 289.7011,-29.5781 290.7333,-22.6546"/>
</g>
</g>
</svg>
