<?xml version="1.0" encoding="UTF-8" standalone="no"?>
<!DOCTYPE svg PUBLIC "-//W3C//DTD SVG 1.1//EN"
 "http://www.w3.org/Graphics/SVG/1.1/DTD/svg11.dtd">
<!-- Generated by graphviz version 10.0.1 (20240210.2158)
 -->
<!-- Title: zero.h Pages: 1 -->
<svg width="659pt" height="432pt"
 viewBox="0.00 0.00 658.92 432.00" xmlns="http://www.w3.org/2000/svg" xmlns:xlink="http://www.w3.org/1999/xlink">
<g id="graph0" class="graph" transform="scale(1 1) rotate(0) translate(4 428)">
<title>zero.h</title>
<!-- Node1 -->
<g id="Node000001" class="node">
<title>Node1</title>
<g id="a_Node000001"><a xlink:title=" ">
<polygon fill="#999999" stroke="#666666" points="560.5,-424 517.5,-424 517.5,-404 560.5,-404 560.5,-424"/>
<text text-anchor="middle" x="539" y="-410.5" font-family="Helvetica,sans-Serif" font-size="10.00">zero.h</text>
</a>
</g>
</g>
<!-- Node2 -->
<g id="Node000002" class="node">
<title>Node2</title>
<g id="a_Node000002"><a xlink:href="vfs__module_8h.html" target="_top" xlink:title=" ">
<polygon fill="white" stroke="#666666" points="477.5,-368 380.5,-368 380.5,-348 477.5,-348 477.5,-368"/>
<text text-anchor="middle" x="429" y="-354.5" font-family="Helvetica,sans-Serif" font-size="10.00">zrtos/vfs_module.h</text>
</a>
</g>
</g>
<!-- Node1&#45;&gt;Node2 -->
<g id="edge1_Node000001_Node000002" class="edge">
<title>Node1&#45;&gt;Node2</title>
<g id="a_edge1_Node000001_Node000002"><a xlink:title=" ">
<path fill="none" stroke="#63b8ff" d="M519.84,-403.59C502.91,-395.28 477.95,-383.03 458.48,-373.47"/>
<polygon fill="#63b8ff" stroke="#63b8ff" points="460.19,-370.41 449.67,-369.15 457.1,-376.7 460.19,-370.41"/>
</a>
</g>
</g>
<!-- Node16 -->
<g id="Node000016" class="node">
<title>Node16</title>
<g id="a_Node000016"><a xlink:href="mem_8h.html" target="_top" xlink:title=" ">
<polygon fill="white" stroke="#666666" points="640.38,-132 569.62,-132 569.62,-112 640.38,-112 640.38,-132"/>
<text text-anchor="middle" x="605" y="-118.5" font-family="Helvetica,sans-Serif" font-size="10.00">zrtos/mem.h</text>
</a>
</g>
</g>
<!-- Node1&#45;&gt;Node16 -->
<g id="edge39_Node000001_Node000016" class="edge">
<title>Node1&#45;&gt;Node16</title>
<g id="a_edge39_Node000001_Node000016"><a xlink:title=" ">
<path fill="none" stroke="#63b8ff" d="M541.68,-403.85C548.68,-379.78 567.88,-312.62 581,-256 586.73,-231.29 587.44,-224.95 592,-200 595.5,-180.85 599.16,-158.95 601.71,-143.42"/>
<polygon fill="#63b8ff" stroke="#63b8ff" points="605.09,-144.42 603.24,-133.99 598.18,-143.3 605.09,-144.42"/>
</a>
</g>
</g>
<!-- Node3 -->
<g id="Node000003" class="node">
<title>Node3</title>
<g id="a_Node000003"><a xlink:href="error_8h.html" target="_top" xlink:title=" ">
<polygon fill="white" stroke="#666666" points="170.25,-76 101.75,-76 101.75,-56 170.25,-56 170.25,-76"/>
<text text-anchor="middle" x="136" y="-62.5" font-family="Helvetica,sans-Serif" font-size="10.00">zrtos/error.h</text>
</a>
</g>
</g>
<!-- Node2&#45;&gt;Node3 -->
<g id="edge2_Node000002_Node000003" class="edge">
<title>Node2&#45;&gt;Node3</title>
<g id="a_edge2_Node000002_Node000003"><a xlink:title=" ">
<path fill="none" stroke="#63b8ff" d="M380.21,-354.77C267.77,-348.31 0,-324.75 0,-247 0,-247 0,-247 0,-183 0,-131.41 57.36,-97.9 97.58,-80.75"/>
<polygon fill="#63b8ff" stroke="#63b8ff" points="98.81,-84.03 106.75,-77.01 96.17,-77.55 98.81,-84.03"/>
</a>
</g>
</g>
<!-- Node7 -->
<g id="Node000007" class="node">
<title>Node7</title>
<g id="a_Node000007"><a xlink:href="types_8h.html" target="_top" xlink:title=" ">
<polygon fill="white" stroke="#666666" points="437.5,-76 364.5,-76 364.5,-56 437.5,-56 437.5,-76"/>
<text text-anchor="middle" x="401" y="-62.5" font-family="Helvetica,sans-Serif" font-size="10.00">zrtos/types.h</text>
</a>
</g>
</g>
<!-- Node2&#45;&gt;Node7 -->
<g id="edge6_Node000002_Node000007" class="edge">
<title>Node2&#45;&gt;Node7</title>
<g id="a_edge6_Node000002_Node000007"><a xlink:title=" ">
<path fill="none" stroke="#63b8ff" d="M446.45,-347.6C493.34,-321.07 615.73,-242.64 573,-168 546.37,-121.48 489.05,-94.29 447.89,-80.06"/>
<polygon fill="#63b8ff" stroke="#63b8ff" points="449.05,-76.76 438.46,-76.94 446.85,-83.4 449.05,-76.76"/>
</a>
</g>
</g>
<!-- Node11 -->
<g id="Node000011" class="node">
<title>Node11</title>
<g id="a_Node000011"><a xlink:href="cast_8h.html" target="_top" xlink:title=" ">
<polygon fill="white" stroke="#666666" points="597.88,-20 530.12,-20 530.12,0 597.88,0 597.88,-20"/>
<text text-anchor="middle" x="564" y="-6.5" font-family="Helvetica,sans-Serif" font-size="10.00">zrtos/cast.h</text>
</a>
</g>
</g>
<!-- Node2&#45;&gt;Node11 -->
<g id="edge13_Node000002_Node000011" class="edge">
<title>Node2&#45;&gt;Node11</title>
<g id="a_edge13_Node000002_Node000011"><a xlink:title=" ">
<path fill="none" stroke="#63b8ff" d="M456.99,-347.6C477.71,-339.89 506.02,-327.68 528,-312 606.47,-256.01 625.08,-225.38 649,-132 660.11,-88.65 616.69,-48.24 587.84,-26.86"/>
<polygon fill="#63b8ff" stroke="#63b8ff" points="590.13,-24.19 579.95,-21.24 586.07,-29.89 590.13,-24.19"/>
</a>
</g>
</g>
<!-- Node12 -->
<g id="Node000012" class="node">
<title>Node12</title>
<g id="a_Node000012"><a xlink:href="vfs__plugin_8h.html" target="_top" xlink:title=" ">
<polygon fill="white" stroke="#666666" points="211.5,-132 120.5,-132 120.5,-112 211.5,-112 211.5,-132"/>
<text text-anchor="middle" x="166" y="-118.5" font-family="Helvetica,sans-Serif" font-size="10.00">zrtos/vfs_plugin.h</text>
</a>
</g>
</g>
<!-- Node2&#45;&gt;Node12 -->
<g id="edge14_Node000002_Node000012" class="edge">
<title>Node2&#45;&gt;Node12</title>
<g id="a_edge14_Node000002_Node000012"><a xlink:title=" ">
<path fill="none" stroke="#63b8ff" d="M380.22,-350.45C303.88,-337.29 158.36,-299.8 95,-200 87.38,-187.99 88.14,-180.46 95,-168 102.46,-154.45 115.91,-144.4 129.11,-137.29"/>
<polygon fill="#63b8ff" stroke="#63b8ff" points="130.26,-140.62 137.7,-133.07 127.18,-134.34 130.26,-140.62"/>
</a>
</g>
</g>
<!-- Node14 -->
<g id="Node000014" class="node">
<title>Node14</title>
<g id="a_Node000014"><a xlink:href="vfs__file_8h.html" target="_top" xlink:title=" ">
<polygon fill="white" stroke="#666666" points="467.75,-312 390.25,-312 390.25,-292 467.75,-292 467.75,-312"/>
<text text-anchor="middle" x="429" y="-298.5" font-family="Helvetica,sans-Serif" font-size="10.00">zrtos/vfs_file.h</text>
</a>
</g>
</g>
<!-- Node2&#45;&gt;Node14 -->
<g id="edge18_Node000002_Node000014" class="edge">
<title>Node2&#45;&gt;Node14</title>
<g id="a_edge18_Node000002_Node000014"><a xlink:title=" ">
<path fill="none" stroke="#63b8ff" d="M429,-347.59C429,-341.01 429,-331.96 429,-323.73"/>
<polygon fill="#63b8ff" stroke="#63b8ff" points="432.5,-323.81 429,-313.81 425.5,-323.81 432.5,-323.81"/>
</a>
</g>
</g>
<!-- Node17 -->
<g id="Node000017" class="node">
<title>Node17</title>
<g id="a_Node000017"><a xlink:href="vfs__dentry_8h.html" target="_top" xlink:title=" ">
<polygon fill="white" stroke="#666666" points="408.25,-256 315.75,-256 315.75,-236 408.25,-236 408.25,-256"/>
<text text-anchor="middle" x="362" y="-242.5" font-family="Helvetica,sans-Serif" font-size="10.00">zrtos/vfs_dentry.h</text>
</a>
</g>
</g>
<!-- Node2&#45;&gt;Node17 -->
<g id="edge38_Node000002_Node000017" class="edge">
<title>Node2&#45;&gt;Node17</title>
<g id="a_edge38_Node000002_Node000017"><a xlink:title=" ">
<path fill="none" stroke="#63b8ff" d="M415.74,-347.75C404.91,-339.54 389.97,-326.6 381,-312 372.61,-298.35 367.77,-280.81 365.08,-267.39"/>
<polygon fill="#63b8ff" stroke="#63b8ff" points="368.59,-267.2 363.43,-257.95 361.7,-268.4 368.59,-267.2"/>
</a>
</g>
</g>
<!-- Node4 -->
<g id="Node000004" class="node">
<title>Node4</title>
<g id="a_Node000004"><a xlink:title=" ">
<polygon fill="#e0e0e0" stroke="#999999" points="220.75,-20 173.25,-20 173.25,0 220.75,0 220.75,-20"/>
<text text-anchor="middle" x="197" y="-6.5" font-family="Helvetica,sans-Serif" font-size="10.00">limits.h</text>
</a>
</g>
</g>
<!-- Node3&#45;&gt;Node4 -->
<g id="edge3_Node000003_Node000004" class="edge">
<title>Node3&#45;&gt;Node4</title>
<g id="a_edge3_Node000003_Node000004"><a xlink:title=" ">
<path fill="none" stroke="#63b8ff" d="M146.63,-55.59C155.28,-47.93 167.73,-36.91 178.08,-27.75"/>
<polygon fill="#63b8ff" stroke="#63b8ff" points="180.2,-30.55 185.36,-21.3 175.56,-25.31 180.2,-30.55"/>
</a>
</g>
</g>
<!-- Node5 -->
<g id="Node000005" class="node">
<title>Node5</title>
<g id="a_Node000005"><a xlink:title=" ">
<polygon fill="#e0e0e0" stroke="#999999" points="294.88,-20 239.12,-20 239.12,0 294.88,0 294.88,-20"/>
<text text-anchor="middle" x="267" y="-6.5" font-family="Helvetica,sans-Serif" font-size="10.00">stdbool.h</text>
</a>
</g>
</g>
<!-- Node3&#45;&gt;Node5 -->
<g id="edge4_Node000003_Node000005" class="edge">
<title>Node3&#45;&gt;Node5</title>
<g id="a_edge4_Node000003_Node000005"><a xlink:title=" ">
<path fill="none" stroke="#63b8ff" d="M158.82,-55.59C179.45,-47.09 210.08,-34.46 233.49,-24.81"/>
<polygon fill="#63b8ff" stroke="#63b8ff" points="234.69,-28.1 242.6,-21.06 232.02,-21.63 234.69,-28.1"/>
</a>
</g>
</g>
<!-- Node6 -->
<g id="Node000006" class="node">
<title>Node6</title>
<g id="a_Node000006"><a xlink:href="assert_8h.html" target="_top" xlink:title=" ">
<polygon fill="white" stroke="#666666" points="155,-20 79,-20 79,0 155,0 155,-20"/>
<text text-anchor="middle" x="117" y="-6.5" font-family="Helvetica,sans-Serif" font-size="10.00">zrtos/assert.h</text>
</a>
</g>
</g>
<!-- Node3&#45;&gt;Node6 -->
<g id="edge5_Node000003_Node000006" class="edge">
<title>Node3&#45;&gt;Node6</title>
<g id="a_edge5_Node000003_Node000006"><a xlink:title=" ">
<path fill="none" stroke="#63b8ff" d="M132.69,-55.59C130.32,-48.86 127.04,-39.53 124.09,-31.15"/>
<polygon fill="#63b8ff" stroke="#63b8ff" points="127.39,-30 120.77,-21.73 120.79,-32.32 127.39,-30"/>
</a>
</g>
</g>
<!-- Node7&#45;&gt;Node4 -->
<g id="edge10_Node000007_Node000004" class="edge">
<title>Node7&#45;&gt;Node4</title>
<g id="a_edge10_Node000007_Node000004"><a xlink:title=" ">
<path fill="none" stroke="#63b8ff" d="M364.61,-55.53C332.28,-47.08 283.44,-34.28 232.13,-20.55"/>
<polygon fill="#63b8ff" stroke="#63b8ff" points="233.17,-17.21 222.61,-18 231.36,-23.97 233.17,-17.21"/>
</a>
</g>
</g>
<!-- Node7&#45;&gt;Node5 -->
<g id="edge7_Node000007_Node000005" class="edge">
<title>Node7&#45;&gt;Node5</title>
<g id="a_edge7_Node000007_Node000005"><a xlink:title=" ">
<path fill="none" stroke="#63b8ff" d="M377.66,-55.59C356.46,-47.05 324.93,-34.35 300.95,-24.68"/>
<polygon fill="#63b8ff" stroke="#63b8ff" points="302.51,-21.54 291.93,-21.05 299.89,-28.03 302.51,-21.54"/>
</a>
</g>
</g>
<!-- Node8 -->
<g id="Node000008" class="node">
<title>Node8</title>
<g id="a_Node000008"><a xlink:title=" ">
<polygon fill="#e0e0e0" stroke="#999999" points="505.25,-20 454.75,-20 454.75,0 505.25,0 505.25,-20"/>
<text text-anchor="middle" x="480" y="-6.5" font-family="Helvetica,sans-Serif" font-size="10.00">stddef.h</text>
</a>
</g>
</g>
<!-- Node7&#45;&gt;Node8 -->
<g id="edge8_Node000007_Node000008" class="edge">
<title>Node7&#45;&gt;Node8</title>
<g id="a_edge8_Node000007_Node000008"><a xlink:title=" ">
<path fill="none" stroke="#63b8ff" d="M414.76,-55.59C426.36,-47.67 443.2,-36.16 456.86,-26.82"/>
<polygon fill="#63b8ff" stroke="#63b8ff" points="458.6,-29.87 464.88,-21.33 454.65,-24.09 458.6,-29.87"/>
</a>
</g>
</g>
<!-- Node9 -->
<g id="Node000009" class="node">
<title>Node9</title>
<g id="a_Node000009"><a xlink:title=" ">
<polygon fill="#e0e0e0" stroke="#999999" points="361.12,-20 312.88,-20 312.88,0 361.12,0 361.12,-20"/>
<text text-anchor="middle" x="337" y="-6.5" font-family="Helvetica,sans-Serif" font-size="10.00">stdint.h</text>
</a>
</g>
</g>
<!-- Node7&#45;&gt;Node9 -->
<g id="edge9_Node000007_Node000009" class="edge">
<title>Node7&#45;&gt;Node9</title>
<g id="a_edge9_Node000007_Node000009"><a xlink:title=" ">
<path fill="none" stroke="#63b8ff" d="M389.85,-55.59C380.67,-47.85 367.45,-36.69 356.52,-27.47"/>
<polygon fill="#63b8ff" stroke="#63b8ff" points="359.08,-25.05 349.18,-21.27 354.56,-30.4 359.08,-25.05"/>
</a>
</g>
</g>
<!-- Node10 -->
<g id="Node000010" class="node">
<title>Node10</title>
<g id="a_Node000010"><a xlink:title=" ">
<polygon fill="#e0e0e0" stroke="#999999" points="437,-20 379,-20 379,0 437,0 437,-20"/>
<text text-anchor="middle" x="408" y="-6.5" font-family="Helvetica,sans-Serif" font-size="10.00">stdalign.h</text>
</a>
</g>
</g>
<!-- Node7&#45;&gt;Node10 -->
<g id="edge11_Node000007_Node000010" class="edge">
<title>Node7&#45;&gt;Node10</title>
<g id="a_edge11_Node000007_Node000010"><a xlink:title=" ">
<path fill="none" stroke="#63b8ff" d="M402.22,-55.59C403.08,-48.93 404.27,-39.75 405.35,-31.44"/>
<polygon fill="#63b8ff" stroke="#63b8ff" points="408.79,-32.17 406.6,-21.8 401.84,-31.27 408.79,-32.17"/>
</a>
</g>
</g>
<!-- Node7&#45;&gt;Node11 -->
<g id="edge12_Node000007_Node000011" class="edge">
<title>Node7&#45;&gt;Node11</title>
<g id="a_edge12_Node000007_Node000011"><a xlink:title=" ">
<path fill="none" stroke="#63b8ff" d="M429.39,-55.59C455.76,-46.86 495.26,-33.77 524.66,-24.03"/>
<polygon fill="#63b8ff" stroke="#63b8ff" points="525.56,-27.42 533.95,-20.96 523.36,-20.78 525.56,-27.42"/>
</a>
</g>
</g>
<!-- Node12&#45;&gt;Node3 -->
<g id="edge17_Node000012_Node000003" class="edge">
<title>Node12&#45;&gt;Node3</title>
<g id="a_edge17_Node000012_Node000003"><a xlink:title=" ">
<path fill="none" stroke="#63b8ff" d="M160.77,-111.59C156.9,-104.63 151.49,-94.89 146.72,-86.29"/>
<polygon fill="#63b8ff" stroke="#63b8ff" points="149.82,-84.66 141.9,-77.62 143.7,-88.06 149.82,-84.66"/>
</a>
</g>
</g>
<!-- Node12&#45;&gt;Node7 -->
<g id="edge16_Node000012_Node000007" class="edge">
<title>Node12&#45;&gt;Node7</title>
<g id="a_edge16_Node000012_Node000007"><a xlink:title=" ">
<path fill="none" stroke="#63b8ff" d="M207.2,-111.53C247.92,-102.17 310.19,-87.87 353.09,-78.01"/>
<polygon fill="#63b8ff" stroke="#63b8ff" points="353.67,-81.47 362.63,-75.82 352.1,-74.65 353.67,-81.47"/>
</a>
</g>
</g>
<!-- Node13 -->
<g id="Node000013" class="node">
<title>Node13</title>
<g id="a_Node000013"><a xlink:title=" ">
<polygon fill="#e0e0e0" stroke="#999999" points="296.62,-76 245.38,-76 245.38,-56 296.62,-56 296.62,-76"/>
<text text-anchor="middle" x="271" y="-62.5" font-family="Helvetica,sans-Serif" font-size="10.00">stdarg.h</text>
</a>
</g>
</g>
<!-- Node12&#45;&gt;Node13 -->
<g id="edge15_Node000012_Node000013" class="edge">
<title>Node12&#45;&gt;Node13</title>
<g id="a_edge15_Node000012_Node000013"><a xlink:title=" ">
<path fill="none" stroke="#63b8ff" d="M184.29,-111.59C200.3,-103.36 223.83,-91.26 242.34,-81.74"/>
<polygon fill="#63b8ff" stroke="#63b8ff" points="243.93,-84.86 251.22,-77.17 240.73,-78.63 243.93,-84.86"/>
</a>
</g>
</g>
<!-- Node14&#45;&gt;Node3 -->
<g id="edge19_Node000014_Node000003" class="edge">
<title>Node14&#45;&gt;Node3</title>
<g id="a_edge19_Node000014_Node000003"><a xlink:title=" ">
<path fill="none" stroke="#63b8ff" d="M389.93,-295.06C309.64,-281.98 130.61,-247.97 95,-200 68.83,-164.75 100.46,-112.54 121.03,-85.2"/>
<polygon fill="#63b8ff" stroke="#63b8ff" points="123.63,-87.56 127.04,-77.53 118.12,-83.24 123.63,-87.56"/>
</a>
</g>
</g>
<!-- Node15 -->
<g id="Node000015" class="node">
<title>Node15</title>
<g id="a_Node000015"><a xlink:href="bitfield_8h.html" target="_top" xlink:title=" ">
<polygon fill="white" stroke="#666666" points="564.38,-194 487.62,-194 487.62,-174 564.38,-174 564.38,-194"/>
<text text-anchor="middle" x="526" y="-180.5" font-family="Helvetica,sans-Serif" font-size="10.00">zrtos/bitfield.h</text>
</a>
</g>
</g>
<!-- Node14&#45;&gt;Node15 -->
<g id="edge20_Node000014_Node000015" class="edge">
<title>Node14&#45;&gt;Node15</title>
<g id="a_edge20_Node000014_Node000015"><a xlink:title=" ">
<path fill="none" stroke="#63b8ff" d="M436.94,-291.51C453.15,-272.12 490.27,-227.72 511.11,-202.8"/>
<polygon fill="#63b8ff" stroke="#63b8ff" points="513.52,-205.38 517.25,-195.46 508.15,-200.89 513.52,-205.38"/>
</a>
</g>
</g>
<!-- Node14&#45;&gt;Node17 -->
<g id="edge25_Node000014_Node000017" class="edge">
<title>Node14&#45;&gt;Node17</title>
<g id="a_edge25_Node000014_Node000017"><a xlink:title=" ">
<path fill="none" stroke="#63b8ff" d="M417.33,-291.59C407.72,-283.85 393.87,-272.69 382.43,-263.47"/>
<polygon fill="#63b8ff" stroke="#63b8ff" points="384.7,-260.8 374.72,-257.25 380.3,-266.25 384.7,-260.8"/>
</a>
</g>
</g>
<!-- Node15&#45;&gt;Node7 -->
<g id="edge21_Node000015_Node000007" class="edge">
<title>Node15&#45;&gt;Node7</title>
<g id="a_edge21_Node000015_Node000007"><a xlink:title=" ">
<path fill="none" stroke="#63b8ff" d="M515.77,-173.51C494.61,-153.87 445.77,-108.55 419.13,-83.83"/>
<polygon fill="#63b8ff" stroke="#63b8ff" points="421.84,-81.57 412.13,-77.33 417.08,-86.7 421.84,-81.57"/>
</a>
</g>
</g>
<!-- Node15&#45;&gt;Node16 -->
<g id="edge22_Node000015_Node000016" class="edge">
<title>Node15&#45;&gt;Node16</title>
<g id="a_edge22_Node000015_Node000016"><a xlink:title=" ">
<path fill="none" stroke="#63b8ff" d="M538.34,-173.62C550.52,-164.38 569.36,-150.07 583.91,-139.01"/>
<polygon fill="#63b8ff" stroke="#63b8ff" points="585.69,-142.06 591.54,-133.22 581.46,-136.49 585.69,-142.06"/>
</a>
</g>
</g>
<!-- Node16&#45;&gt;Node7 -->
<g id="edge23_Node000016_Node000007" class="edge">
<title>Node16&#45;&gt;Node7</title>
<g id="a_edge23_Node000016_Node000007"><a xlink:title=" ">
<path fill="none" stroke="#63b8ff" d="M569.47,-111.59C535.74,-102.67 484.84,-89.19 447.82,-79.39"/>
<polygon fill="#63b8ff" stroke="#63b8ff" points="448.84,-76.04 438.27,-76.87 447.05,-82.81 448.84,-76.04"/>
</a>
</g>
</g>
<!-- Node16&#45;&gt;Node11 -->
<g id="edge24_Node000016_Node000011" class="edge">
<title>Node16&#45;&gt;Node11</title>
<g id="a_edge24_Node000016_Node000011"><a xlink:title=" ">
<path fill="none" stroke="#63b8ff" d="M601.5,-111.62C594.88,-93.84 580.36,-54.88 571.45,-31"/>
<polygon fill="#63b8ff" stroke="#63b8ff" points="574.79,-29.92 568.02,-21.77 568.23,-32.37 574.79,-29.92"/>
</a>
</g>
</g>
<!-- Node17&#45;&gt;Node7 -->
<g id="edge31_Node000017_Node000007" class="edge">
<title>Node17&#45;&gt;Node7</title>
<g id="a_edge31_Node000017_Node000007"><a xlink:title=" ">
<path fill="none" stroke="#63b8ff" d="M363.99,-235.93C370,-208.5 388.08,-125.96 396.54,-87.34"/>
<polygon fill="#63b8ff" stroke="#63b8ff" points="399.92,-88.26 398.65,-77.75 393.09,-86.76 399.92,-88.26"/>
</a>
</g>
</g>
<!-- Node18 -->
<g id="Node000018" class="node">
<title>Node18</title>
<g id="a_Node000018"><a xlink:href="str_8h.html" target="_top" xlink:title=" ">
<polygon fill="white" stroke="#666666" points="469.12,-194 408.88,-194 408.88,-174 469.12,-174 469.12,-194"/>
<text text-anchor="middle" x="439" y="-180.5" font-family="Helvetica,sans-Serif" font-size="10.00">zrtos/str.h</text>
</a>
</g>
</g>
<!-- Node17&#45;&gt;Node18 -->
<g id="edge26_Node000017_Node000018" class="edge">
<title>Node17&#45;&gt;Node18</title>
<g id="a_edge26_Node000017_Node000018"><a xlink:title=" ">
<path fill="none" stroke="#63b8ff" d="M374.03,-235.62C385.78,-226.47 403.92,-212.34 418.04,-201.33"/>
<polygon fill="#63b8ff" stroke="#63b8ff" points="420.12,-204.15 425.86,-195.24 415.82,-198.63 420.12,-204.15"/>
</a>
</g>
</g>
<!-- Node19 -->
<g id="Node000019" class="node">
<title>Node19</title>
<g id="a_Node000019"><a xlink:href="clist_8h.html" target="_top" xlink:title=" ">
<polygon fill="white" stroke="#666666" points="314.5,-132 247.5,-132 247.5,-112 314.5,-112 314.5,-132"/>
<text text-anchor="middle" x="281" y="-118.5" font-family="Helvetica,sans-Serif" font-size="10.00">zrtos/clist.h</text>
</a>
</g>
</g>
<!-- Node17&#45;&gt;Node19 -->
<g id="edge32_Node000017_Node000019" class="edge">
<title>Node17&#45;&gt;Node19</title>
<g id="a_edge32_Node000017_Node000019"><a xlink:title=" ">
<path fill="none" stroke="#63b8ff" d="M358.6,-235.97C352.75,-221.07 339.9,-190.72 324,-168 316.99,-157.99 307.79,-148.04 299.69,-140.05"/>
<polygon fill="#63b8ff" stroke="#63b8ff" points="302.25,-137.65 292.59,-133.29 297.42,-142.72 302.25,-137.65"/>
</a>
</g>
</g>
<!-- Node20 -->
<g id="Node000020" class="node">
<title>Node20</title>
<g id="a_Node000020"><a xlink:href="vfs__inode_8h.html" target="_top" xlink:title=" ">
<polygon fill="white" stroke="#666666" points="192.38,-194 103.62,-194 103.62,-174 192.38,-174 192.38,-194"/>
<text text-anchor="middle" x="148" y="-180.5" font-family="Helvetica,sans-Serif" font-size="10.00">zrtos/vfs_inode.h</text>
</a>
</g>
</g>
<!-- Node17&#45;&gt;Node20 -->
<g id="edge34_Node000017_Node000020" class="edge">
<title>Node17&#45;&gt;Node20</title>
<g id="a_edge34_Node000017_Node000020"><a xlink:title=" ">
<path fill="none" stroke="#63b8ff" d="M328.56,-235.62C291.92,-225.35 232.97,-208.82 192.46,-197.47"/>
<polygon fill="#63b8ff" stroke="#63b8ff" points="193.59,-194.15 183.01,-194.82 191.7,-200.89 193.59,-194.15"/>
</a>
</g>
</g>
<!-- Node21 -->
<g id="Node000021" class="node">
<title>Node21</title>
<g id="a_Node000021"><a xlink:href="null_8h.html" target="_top" xlink:title=" ">
<polygon fill="white" stroke="#666666" points="315.25,-200 210.75,-200 210.75,-168 315.25,-168 315.25,-200"/>
<text text-anchor="start" x="218.75" y="-186.5" font-family="Helvetica,sans-Serif" font-size="10.00">zrtos/vfs/module/null</text>
<text text-anchor="middle" x="263" y="-174.5" font-family="Helvetica,sans-Serif" font-size="10.00">/null.h</text>
</a>
</g>
</g>
<!-- Node17&#45;&gt;Node21 -->
<g id="edge36_Node000017_Node000021" class="edge">
<title>Node17&#45;&gt;Node21</title>
<g id="a_edge36_Node000017_Node000021"><a xlink:title=" ">
<path fill="none" stroke="#63b8ff" d="M346.53,-235.62C333.53,-227.75 314.46,-216.19 297.82,-206.1"/>
<polygon fill="#63b8ff" stroke="#63b8ff" points="300.03,-203.35 289.66,-201.16 296.4,-209.33 300.03,-203.35"/>
</a>
</g>
</g>
<!-- Node18&#45;&gt;Node7 -->
<g id="edge28_Node000018_Node000007" class="edge">
<title>Node18&#45;&gt;Node7</title>
<g id="a_edge28_Node000018_Node000007"><a xlink:title=" ">
<path fill="none" stroke="#63b8ff" d="M435.89,-173.51C429.74,-154.72 415.89,-112.44 407.61,-87.16"/>
<polygon fill="#63b8ff" stroke="#63b8ff" points="410.96,-86.15 404.52,-77.74 404.3,-88.33 410.96,-86.15"/>
</a>
</g>
</g>
<!-- Node18&#45;&gt;Node11 -->
<g id="edge29_Node000018_Node000011" class="edge">
<title>Node18&#45;&gt;Node11</title>
<g id="a_edge29_Node000018_Node000011"><a xlink:title=" ">
<path fill="none" stroke="#63b8ff" d="M445.9,-173.51C465.92,-145.96 524.3,-65.63 550.73,-29.26"/>
<polygon fill="#63b8ff" stroke="#63b8ff" points="553.34,-31.62 556.39,-21.48 547.68,-27.51 553.34,-31.62"/>
</a>
</g>
</g>
<!-- Node18&#45;&gt;Node13 -->
<g id="edge27_Node000018_Node000013" class="edge">
<title>Node18&#45;&gt;Node13</title>
<g id="a_edge27_Node000018_Node000013"><a xlink:title=" ">
<path fill="none" stroke="#63b8ff" d="M425.25,-173.51C396.31,-153.53 328.88,-106.96 293.53,-82.56"/>
<polygon fill="#63b8ff" stroke="#63b8ff" points="295.93,-79.96 285.71,-77.16 291.95,-85.72 295.93,-79.96"/>
</a>
</g>
</g>
<!-- Node18&#45;&gt;Node16 -->
<g id="edge30_Node000018_Node000016" class="edge">
<title>Node18&#45;&gt;Node16</title>
<g id="a_edge30_Node000018_Node000016"><a xlink:title=" ">
<path fill="none" stroke="#63b8ff" d="M463.94,-173.58C468.92,-171.71 474.12,-169.78 479,-168 508.83,-157.08 542.75,-144.98 567.87,-136.09"/>
<polygon fill="#63b8ff" stroke="#63b8ff" points="568.72,-139.5 576.98,-132.86 566.39,-132.9 568.72,-139.5"/>
</a>
</g>
</g>
<!-- Node19&#45;&gt;Node7 -->
<g id="edge33_Node000019_Node000007" class="edge">
<title>Node19&#45;&gt;Node7</title>
<g id="a_edge33_Node000019_Node000007"><a xlink:title=" ">
<path fill="none" stroke="#63b8ff" d="M301.9,-111.59C320.63,-103.17 348.36,-90.69 369.72,-81.07"/>
<polygon fill="#63b8ff" stroke="#63b8ff" points="370.87,-84.4 378.55,-77.1 368,-78.01 370.87,-84.4"/>
</a>
</g>
</g>
<!-- Node20&#45;&gt;Node12 -->
<g id="edge35_Node000020_Node000012" class="edge">
<title>Node20&#45;&gt;Node12</title>
<g id="a_edge35_Node000020_Node000012"><a xlink:title=" ">
<path fill="none" stroke="#63b8ff" d="M150.81,-173.62C153.26,-165.48 156.88,-153.39 159.98,-143.07"/>
<polygon fill="#63b8ff" stroke="#63b8ff" points="163.31,-144.15 162.83,-133.56 156.61,-142.13 163.31,-144.15"/>
</a>
</g>
</g>
<!-- Node21&#45;&gt;Node12 -->
<g id="edge37_Node000021_Node000012" class="edge">
<title>Node21&#45;&gt;Node12</title>
<g id="a_edge37_Node000021_Node000012"><a xlink:title=" ">
<path fill="none" stroke="#63b8ff" d="M238.02,-167.55C223.57,-158.61 205.43,-147.39 190.98,-138.45"/>
<polygon fill="#63b8ff" stroke="#63b8ff" points="192.84,-135.49 182.5,-133.2 189.16,-141.44 192.84,-135.49"/>
</a>
</g>
</g>
</g>
</svg>
