<?xml version="1.0" encoding="UTF-8" standalone="no"?>
<!DOCTYPE svg PUBLIC "-//W3C//DTD SVG 1.1//EN"
 "http://www.w3.org/Graphics/SVG/1.1/DTD/svg11.dtd">
<!-- Generated by graphviz version 10.0.1 (20240210.2158)
 -->
<!-- Title: zero.h Pages: 1 -->
<svg width="551pt" height="376pt"
 viewBox="0.00 0.00 551.34 376.00" xmlns="http://www.w3.org/2000/svg" xmlns:xlink="http://www.w3.org/1999/xlink">
<g id="graph0" class="graph" transform="scale(1 1) rotate(0) translate(4 372)">
<title>zero.h</title>
<!-- Node1 -->
<g id="Node000001" class="node">
<title>Node1</title>
<g id="a_Node000001"><a xlink:title=" ">
<polygon fill="#999999" stroke="#666666" points="308.88,-368 265.88,-368 265.88,-348 308.88,-348 308.88,-368"/>
<text text-anchor="middle" x="287.38" y="-354.5" font-family="Helvetica,sans-Serif" font-size="10.00">zero.h</text>
</a>
</g>
</g>
<!-- Node2 -->
<g id="Node000002" class="node">
<title>Node2</title>
<g id="a_Node000002"><a xlink:href="vfs__plugin_8h.html" target="_top" xlink:title=" ">
<polygon fill="white" stroke="#666666" points="467.88,-132 376.88,-132 376.88,-112 467.88,-112 467.88,-132"/>
<text text-anchor="middle" x="422.38" y="-118.5" font-family="Helvetica,sans-Serif" font-size="10.00">zrtos/vfs_plugin.h</text>
</a>
</g>
</g>
<!-- Node1&#45;&gt;Node2 -->
<g id="edge1_Node000001_Node000002" class="edge">
<title>Node1&#45;&gt;Node2</title>
<g id="a_edge1_Node000001_Node000002"><a xlink:title=" ">
<path fill="none" stroke="#63b8ff" d="M309.2,-351.03C360.02,-335.79 485.74,-290.18 535.38,-200 542.23,-187.54 543.36,-179.77 535.38,-168 522.61,-149.17 500.58,-138.22 479.34,-131.85"/>
<polygon fill="#63b8ff" stroke="#63b8ff" points="480.39,-128.51 469.82,-129.31 478.58,-135.27 480.39,-128.51"/>
</a>
</g>
</g>
<!-- Node11 -->
<g id="Node000011" class="node">
<title>Node11</title>
<g id="a_Node000011"><a xlink:href="vfs__file_8h.html" target="_top" xlink:title=" ">
<polygon fill="white" stroke="#666666" points="326.12,-312 248.62,-312 248.62,-292 326.12,-292 326.12,-312"/>
<text text-anchor="middle" x="287.38" y="-298.5" font-family="Helvetica,sans-Serif" font-size="10.00">zrtos/vfs_file.h</text>
</a>
</g>
</g>
<!-- Node1&#45;&gt;Node11 -->
<g id="edge11_Node000001_Node000011" class="edge">
<title>Node1&#45;&gt;Node11</title>
<g id="a_edge11_Node000001_Node000011"><a xlink:title=" ">
<path fill="none" stroke="#63b8ff" d="M287.38,-347.59C287.38,-341.01 287.38,-331.96 287.38,-323.73"/>
<polygon fill="#63b8ff" stroke="#63b8ff" points="290.88,-323.81 287.38,-313.81 283.88,-323.81 290.88,-323.81"/>
</a>
</g>
</g>
<!-- Node13 -->
<g id="Node000013" class="node">
<title>Node13</title>
<g id="a_Node000013"><a xlink:href="mem_8h.html" target="_top" xlink:title=" ">
<polygon fill="white" stroke="#666666" points="70.75,-132 0,-132 0,-112 70.75,-112 70.75,-132"/>
<text text-anchor="middle" x="35.38" y="-118.5" font-family="Helvetica,sans-Serif" font-size="10.00">zrtos/mem.h</text>
</a>
</g>
</g>
<!-- Node1&#45;&gt;Node13 -->
<g id="edge31_Node000001_Node000013" class="edge">
<title>Node1&#45;&gt;Node13</title>
<g id="a_edge31_Node000001_Node000013"><a xlink:title=" ">
<path fill="none" stroke="#63b8ff" d="M265.59,-348.28C219.8,-328.83 113.25,-277.43 57.38,-200 45.32,-183.29 39.85,-160.12 37.38,-143.57"/>
<polygon fill="#63b8ff" stroke="#63b8ff" points="40.89,-143.42 36.2,-133.92 33.94,-144.27 40.89,-143.42"/>
</a>
</g>
</g>
<!-- Node3 -->
<g id="Node000003" class="node">
<title>Node3</title>
<g id="a_Node000003"><a xlink:title=" ">
<polygon fill="#e0e0e0" stroke="#999999" points="363,-76 311.75,-76 311.75,-56 363,-56 363,-76"/>
<text text-anchor="middle" x="337.38" y="-62.5" font-family="Helvetica,sans-Serif" font-size="10.00">stdarg.h</text>
</a>
</g>
</g>
<!-- Node2&#45;&gt;Node3 -->
<g id="edge2_Node000002_Node000003" class="edge">
<title>Node2&#45;&gt;Node3</title>
<g id="a_edge2_Node000002_Node000003"><a xlink:title=" ">
<path fill="none" stroke="#63b8ff" d="M407.57,-111.59C394.97,-103.59 376.62,-91.93 361.84,-82.54"/>
<polygon fill="#63b8ff" stroke="#63b8ff" points="363.89,-79.7 353.57,-77.29 360.14,-85.61 363.89,-79.7"/>
</a>
</g>
</g>
<!-- Node4 -->
<g id="Node000004" class="node">
<title>Node4</title>
<g id="a_Node000004"><a xlink:href="types_8h.html" target="_top" xlink:title=" ">
<polygon fill="white" stroke="#666666" points="259.88,-76 186.88,-76 186.88,-56 259.88,-56 259.88,-76"/>
<text text-anchor="middle" x="223.38" y="-62.5" font-family="Helvetica,sans-Serif" font-size="10.00">zrtos/types.h</text>
</a>
</g>
</g>
<!-- Node2&#45;&gt;Node4 -->
<g id="edge3_Node000002_Node000004" class="edge">
<title>Node2&#45;&gt;Node4</title>
<g id="a_edge3_Node000002_Node000004"><a xlink:title=" ">
<path fill="none" stroke="#63b8ff" d="M387.71,-111.59C354.81,-102.67 305.16,-89.19 269.05,-79.39"/>
<polygon fill="#63b8ff" stroke="#63b8ff" points="270.34,-76.12 259.77,-76.88 268.5,-82.87 270.34,-76.12"/>
</a>
</g>
</g>
<!-- Node9 -->
<g id="Node000009" class="node">
<title>Node9</title>
<g id="a_Node000009"><a xlink:href="error_8h.html" target="_top" xlink:title=" ">
<polygon fill="white" stroke="#666666" points="463.62,-76 395.12,-76 395.12,-56 463.62,-56 463.62,-76"/>
<text text-anchor="middle" x="429.38" y="-62.5" font-family="Helvetica,sans-Serif" font-size="10.00">zrtos/error.h</text>
</a>
</g>
</g>
<!-- Node2&#45;&gt;Node9 -->
<g id="edge8_Node000002_Node000009" class="edge">
<title>Node2&#45;&gt;Node9</title>
<g id="a_edge8_Node000002_Node000009"><a xlink:title=" ">
<path fill="none" stroke="#63b8ff" d="M423.59,-111.59C424.46,-104.93 425.65,-95.75 426.73,-87.44"/>
<polygon fill="#63b8ff" stroke="#63b8ff" points="430.16,-88.17 427.98,-77.8 423.22,-87.27 430.16,-88.17"/>
</a>
</g>
</g>
<!-- Node5 -->
<g id="Node000005" class="node">
<title>Node5</title>
<g id="a_Node000005"><a xlink:title=" ">
<polygon fill="#e0e0e0" stroke="#999999" points="176.25,-20 120.5,-20 120.5,0 176.25,0 176.25,-20"/>
<text text-anchor="middle" x="148.38" y="-6.5" font-family="Helvetica,sans-Serif" font-size="10.00">stdbool.h</text>
</a>
</g>
</g>
<!-- Node4&#45;&gt;Node5 -->
<g id="edge4_Node000004_Node000005" class="edge">
<title>Node4&#45;&gt;Node5</title>
<g id="a_edge4_Node000004_Node000005"><a xlink:title=" ">
<path fill="none" stroke="#63b8ff" d="M210.31,-55.59C199.41,-47.74 183.62,-36.38 170.72,-27.09"/>
<polygon fill="#63b8ff" stroke="#63b8ff" points="172.93,-24.37 162.77,-21.36 168.84,-30.05 172.93,-24.37"/>
</a>
</g>
</g>
<!-- Node6 -->
<g id="Node000006" class="node">
<title>Node6</title>
<g id="a_Node000006"><a xlink:title=" ">
<polygon fill="#e0e0e0" stroke="#999999" points="244.62,-20 194.12,-20 194.12,0 244.62,0 244.62,-20"/>
<text text-anchor="middle" x="219.38" y="-6.5" font-family="Helvetica,sans-Serif" font-size="10.00">stddef.h</text>
</a>
</g>
</g>
<!-- Node4&#45;&gt;Node6 -->
<g id="edge5_Node000004_Node000006" class="edge">
<title>Node4&#45;&gt;Node6</title>
<g id="a_edge5_Node000004_Node000006"><a xlink:title=" ">
<path fill="none" stroke="#63b8ff" d="M222.68,-55.59C222.19,-49.01 221.52,-39.96 220.91,-31.73"/>
<polygon fill="#63b8ff" stroke="#63b8ff" points="224.4,-31.52 220.18,-21.81 217.42,-32.04 224.4,-31.52"/>
</a>
</g>
</g>
<!-- Node7 -->
<g id="Node000007" class="node">
<title>Node7</title>
<g id="a_Node000007"><a xlink:title=" ">
<polygon fill="#e0e0e0" stroke="#999999" points="310.5,-20 262.25,-20 262.25,0 310.5,0 310.5,-20"/>
<text text-anchor="middle" x="286.38" y="-6.5" font-family="Helvetica,sans-Serif" font-size="10.00">stdint.h</text>
</a>
</g>
</g>
<!-- Node4&#45;&gt;Node7 -->
<g id="edge6_Node000004_Node000007" class="edge">
<title>Node4&#45;&gt;Node7</title>
<g id="a_edge6_Node000004_Node000007"><a xlink:title=" ">
<path fill="none" stroke="#63b8ff" d="M234.35,-55.59C243.29,-47.93 256.15,-36.91 266.84,-27.75"/>
<polygon fill="#63b8ff" stroke="#63b8ff" points="269.06,-30.45 274.38,-21.28 264.51,-25.13 269.06,-30.45"/>
</a>
</g>
</g>
<!-- Node8 -->
<g id="Node000008" class="node">
<title>Node8</title>
<g id="a_Node000008"><a xlink:title=" ">
<polygon fill="#e0e0e0" stroke="#999999" points="376.12,-20 328.62,-20 328.62,0 376.12,0 376.12,-20"/>
<text text-anchor="middle" x="352.38" y="-6.5" font-family="Helvetica,sans-Serif" font-size="10.00">limits.h</text>
</a>
</g>
</g>
<!-- Node4&#45;&gt;Node8 -->
<g id="edge7_Node000004_Node000008" class="edge">
<title>Node4&#45;&gt;Node8</title>
<g id="a_edge7_Node000004_Node000008"><a xlink:title=" ">
<path fill="none" stroke="#63b8ff" d="M245.85,-55.59C266.16,-47.09 296.33,-34.46 319.38,-24.81"/>
<polygon fill="#63b8ff" stroke="#63b8ff" points="320.46,-28.15 328.33,-21.06 317.76,-21.7 320.46,-28.15"/>
</a>
</g>
</g>
<!-- Node9&#45;&gt;Node8 -->
<g id="edge9_Node000009_Node000008" class="edge">
<title>Node9&#45;&gt;Node8</title>
<g id="a_edge9_Node000009_Node000008"><a xlink:title=" ">
<path fill="none" stroke="#63b8ff" d="M415.96,-55.59C404.77,-47.74 388.56,-36.38 375.32,-27.09"/>
<polygon fill="#63b8ff" stroke="#63b8ff" points="377.33,-24.22 367.13,-21.35 373.31,-29.96 377.33,-24.22"/>
</a>
</g>
</g>
<!-- Node10 -->
<g id="Node000010" class="node">
<title>Node10</title>
<g id="a_Node000010"><a xlink:href="assert_8h.html" target="_top" xlink:title=" ">
<polygon fill="white" stroke="#666666" points="470.38,-20 394.38,-20 394.38,0 470.38,0 470.38,-20"/>
<text text-anchor="middle" x="432.38" y="-6.5" font-family="Helvetica,sans-Serif" font-size="10.00">zrtos/assert.h</text>
</a>
</g>
</g>
<!-- Node9&#45;&gt;Node10 -->
<g id="edge10_Node000009_Node000010" class="edge">
<title>Node9&#45;&gt;Node10</title>
<g id="a_edge10_Node000009_Node000010"><a xlink:title=" ">
<path fill="none" stroke="#63b8ff" d="M429.9,-55.59C430.26,-49.01 430.77,-39.96 431.22,-31.73"/>
<polygon fill="#63b8ff" stroke="#63b8ff" points="434.71,-31.99 431.77,-21.81 427.73,-31.6 434.71,-31.99"/>
</a>
</g>
</g>
<!-- Node11&#45;&gt;Node9 -->
<g id="edge12_Node000011_Node000009" class="edge">
<title>Node11&#45;&gt;Node9</title>
<g id="a_edge12_Node000011_Node000009"><a xlink:title=" ">
<path fill="none" stroke="#63b8ff" d="M326.2,-298.11C383.31,-291.52 488.29,-270.02 535.38,-200 565.61,-155.03 498.02,-106.19 457.32,-82.13"/>
<polygon fill="#63b8ff" stroke="#63b8ff" points="459.12,-79.13 448.7,-77.19 455.63,-85.2 459.12,-79.13"/>
</a>
</g>
</g>
<!-- Node12 -->
<g id="Node000012" class="node">
<title>Node12</title>
<g id="a_Node000012"><a xlink:href="bitfield_8h.html" target="_top" xlink:title=" ">
<polygon fill="white" stroke="#666666" points="142.75,-194 66,-194 66,-174 142.75,-174 142.75,-194"/>
<text text-anchor="middle" x="104.38" y="-180.5" font-family="Helvetica,sans-Serif" font-size="10.00">zrtos/bitfield.h</text>
</a>
</g>
</g>
<!-- Node11&#45;&gt;Node12 -->
<g id="edge13_Node000011_Node000012" class="edge">
<title>Node11&#45;&gt;Node12</title>
<g id="a_edge13_Node000011_Node000012"><a xlink:title=" ">
<path fill="none" stroke="#63b8ff" d="M272.4,-291.51C240.82,-271.49 167.16,-224.8 128.71,-200.42"/>
<polygon fill="#63b8ff" stroke="#63b8ff" points="130.9,-197.67 120.58,-195.27 127.15,-203.58 130.9,-197.67"/>
</a>
</g>
</g>
<!-- Node15 -->
<g id="Node000015" class="node">
<title>Node15</title>
<g id="a_Node000015"><a xlink:href="vfs__dentry_8h.html" target="_top" xlink:title=" ">
<polygon fill="white" stroke="#666666" points="333.62,-256 241.12,-256 241.12,-236 333.62,-236 333.62,-256"/>
<text text-anchor="middle" x="287.38" y="-242.5" font-family="Helvetica,sans-Serif" font-size="10.00">zrtos/vfs_dentry.h</text>
</a>
</g>
</g>
<!-- Node11&#45;&gt;Node15 -->
<g id="edge18_Node000011_Node000015" class="edge">
<title>Node11&#45;&gt;Node15</title>
<g id="a_edge18_Node000011_Node000015"><a xlink:title=" ">
<path fill="none" stroke="#63b8ff" d="M287.38,-291.59C287.38,-285.01 287.38,-275.96 287.38,-267.73"/>
<polygon fill="#63b8ff" stroke="#63b8ff" points="290.88,-267.81 287.38,-257.81 283.88,-267.81 290.88,-267.81"/>
</a>
</g>
</g>
<!-- Node12&#45;&gt;Node4 -->
<g id="edge14_Node000012_Node000004" class="edge">
<title>Node12&#45;&gt;Node4</title>
<g id="a_edge14_Node000012_Node000004"><a xlink:title=" ">
<path fill="none" stroke="#63b8ff" d="M114.11,-173.51C134.17,-153.95 180.35,-108.94 205.78,-84.15"/>
<polygon fill="#63b8ff" stroke="#63b8ff" points="208.03,-86.84 212.75,-77.36 203.15,-81.83 208.03,-86.84"/>
</a>
</g>
</g>
<!-- Node12&#45;&gt;Node13 -->
<g id="edge15_Node000012_Node000013" class="edge">
<title>Node12&#45;&gt;Node13</title>
<g id="a_edge15_Node000012_Node000013"><a xlink:title=" ">
<path fill="none" stroke="#63b8ff" d="M93.59,-173.62C83.1,-164.5 66.94,-150.45 54.3,-139.46"/>
<polygon fill="#63b8ff" stroke="#63b8ff" points="56.84,-137.03 47,-133.11 52.25,-142.31 56.84,-137.03"/>
</a>
</g>
</g>
<!-- Node13&#45;&gt;Node4 -->
<g id="edge16_Node000013_Node000004" class="edge">
<title>Node13&#45;&gt;Node4</title>
<g id="a_edge16_Node000013_Node000004"><a xlink:title=" ">
<path fill="none" stroke="#63b8ff" d="M68.12,-111.59C98.93,-102.74 145.3,-89.43 179.34,-79.65"/>
<polygon fill="#63b8ff" stroke="#63b8ff" points="180.27,-83.02 188.92,-76.9 178.34,-76.29 180.27,-83.02"/>
</a>
</g>
</g>
<!-- Node14 -->
<g id="Node000014" class="node">
<title>Node14</title>
<g id="a_Node000014"><a xlink:href="cast_8h.html" target="_top" xlink:title=" ">
<polygon fill="white" stroke="#666666" points="101.25,-76 33.5,-76 33.5,-56 101.25,-56 101.25,-76"/>
<text text-anchor="middle" x="67.38" y="-62.5" font-family="Helvetica,sans-Serif" font-size="10.00">zrtos/cast.h</text>
</a>
</g>
</g>
<!-- Node13&#45;&gt;Node14 -->
<g id="edge17_Node000013_Node000014" class="edge">
<title>Node13&#45;&gt;Node14</title>
<g id="a_edge17_Node000013_Node000014"><a xlink:title=" ">
<path fill="none" stroke="#63b8ff" d="M40.95,-111.59C45.12,-104.55 50.98,-94.67 56.12,-86"/>
<polygon fill="#63b8ff" stroke="#63b8ff" points="59.01,-87.99 61.09,-77.6 52.98,-84.42 59.01,-87.99"/>
</a>
</g>
</g>
<!-- Node15&#45;&gt;Node4 -->
<g id="edge24_Node000015_Node000004" class="edge">
<title>Node15&#45;&gt;Node4</title>
<g id="a_edge24_Node000015_Node000004"><a xlink:title=" ">
<path fill="none" stroke="#63b8ff" d="M284.11,-235.93C274.23,-208.44 244.44,-125.6 230.6,-87.09"/>
<polygon fill="#63b8ff" stroke="#63b8ff" points="233.9,-85.92 227.22,-77.69 227.31,-88.29 233.9,-85.92"/>
</a>
</g>
</g>
<!-- Node16 -->
<g id="Node000016" class="node">
<title>Node16</title>
<g id="a_Node000016"><a xlink:href="str_8h.html" target="_top" xlink:title=" ">
<polygon fill="white" stroke="#666666" points="221.5,-194 161.25,-194 161.25,-174 221.5,-174 221.5,-194"/>
<text text-anchor="middle" x="191.38" y="-180.5" font-family="Helvetica,sans-Serif" font-size="10.00">zrtos/str.h</text>
</a>
</g>
</g>
<!-- Node15&#45;&gt;Node16 -->
<g id="edge19_Node000015_Node000016" class="edge">
<title>Node15&#45;&gt;Node16</title>
<g id="a_edge19_Node000015_Node000016"><a xlink:title=" ">
<path fill="none" stroke="#63b8ff" d="M272.38,-235.62C257.3,-226.2 233.8,-211.52 215.99,-200.39"/>
<polygon fill="#63b8ff" stroke="#63b8ff" points="217.89,-197.44 207.55,-195.11 214.18,-203.38 217.89,-197.44"/>
</a>
</g>
</g>
<!-- Node17 -->
<g id="Node000017" class="node">
<title>Node17</title>
<g id="a_Node000017"><a xlink:href="clist_8h.html" target="_top" xlink:title=" ">
<polygon fill="white" stroke="#666666" points="345.88,-132 278.88,-132 278.88,-112 345.88,-112 345.88,-132"/>
<text text-anchor="middle" x="312.38" y="-118.5" font-family="Helvetica,sans-Serif" font-size="10.00">zrtos/clist.h</text>
</a>
</g>
</g>
<!-- Node15&#45;&gt;Node17 -->
<g id="edge25_Node000015_Node000017" class="edge">
<title>Node15&#45;&gt;Node17</title>
<g id="a_edge25_Node000015_Node000017"><a xlink:title=" ">
<path fill="none" stroke="#63b8ff" d="M289.25,-235.83C293.25,-216.31 302.69,-170.25 308.19,-143.4"/>
<polygon fill="#63b8ff" stroke="#63b8ff" points="311.59,-144.26 310.17,-133.76 304.73,-142.85 311.59,-144.26"/>
</a>
</g>
</g>
<!-- Node18 -->
<g id="Node000018" class="node">
<title>Node18</title>
<g id="a_Node000018"><a xlink:href="vfs__inode_8h.html" target="_top" xlink:title=" ">
<polygon fill="white" stroke="#666666" points="526.75,-194 438,-194 438,-174 526.75,-174 526.75,-194"/>
<text text-anchor="middle" x="482.38" y="-180.5" font-family="Helvetica,sans-Serif" font-size="10.00">zrtos/vfs_inode.h</text>
</a>
</g>
</g>
<!-- Node15&#45;&gt;Node18 -->
<g id="edge27_Node000015_Node000018" class="edge">
<title>Node15&#45;&gt;Node18</title>
<g id="a_edge27_Node000015_Node000018"><a xlink:title=" ">
<path fill="none" stroke="#63b8ff" d="M317.84,-235.62C350.95,-225.44 404.03,-209.11 440.91,-197.76"/>
<polygon fill="#63b8ff" stroke="#63b8ff" points="441.82,-201.14 450.35,-194.85 439.77,-194.45 441.82,-201.14"/>
</a>
</g>
</g>
<!-- Node19 -->
<g id="Node000019" class="node">
<title>Node19</title>
<g id="a_Node000019"><a xlink:href="null_8h.html" target="_top" xlink:title=" ">
<polygon fill="white" stroke="#666666" points="419.62,-200 315.12,-200 315.12,-168 419.62,-168 419.62,-200"/>
<text text-anchor="start" x="323.12" y="-186.5" font-family="Helvetica,sans-Serif" font-size="10.00">zrtos/vfs/module/null</text>
<text text-anchor="middle" x="367.38" y="-174.5" font-family="Helvetica,sans-Serif" font-size="10.00">/null.h</text>
</a>
</g>
</g>
<!-- Node15&#45;&gt;Node19 -->
<g id="edge29_Node000015_Node000019" class="edge">
<title>Node15&#45;&gt;Node19</title>
<g id="a_edge29_Node000015_Node000019"><a xlink:title=" ">
<path fill="none" stroke="#63b8ff" d="M299.88,-235.62C309.99,-228.04 324.65,-217.05 337.72,-207.24"/>
<polygon fill="#63b8ff" stroke="#63b8ff" points="339.77,-210.08 345.67,-201.28 335.57,-204.48 339.77,-210.08"/>
</a>
</g>
</g>
<!-- Node16&#45;&gt;Node3 -->
<g id="edge20_Node000016_Node000003" class="edge">
<title>Node16&#45;&gt;Node3</title>
<g id="a_edge20_Node000016_Node000003"><a xlink:title=" ">
<path fill="none" stroke="#63b8ff" d="M200.57,-173.76C214.75,-159.72 243.08,-132.47 269.38,-112 282.95,-101.43 298.96,-90.76 312.03,-82.46"/>
<polygon fill="#63b8ff" stroke="#63b8ff" points="313.88,-85.43 320.5,-77.16 310.17,-79.5 313.88,-85.43"/>
</a>
</g>
</g>
<!-- Node16&#45;&gt;Node4 -->
<g id="edge21_Node000016_Node000004" class="edge">
<title>Node16&#45;&gt;Node4</title>
<g id="a_edge21_Node000016_Node000004"><a xlink:title=" ">
<path fill="none" stroke="#63b8ff" d="M191.1,-173.57C190.97,-159.74 191.73,-133.28 198.38,-112 201.2,-102.97 205.96,-93.71 210.58,-85.96"/>
<polygon fill="#63b8ff" stroke="#63b8ff" points="213.37,-88.08 215.77,-77.76 207.46,-84.33 213.37,-88.08"/>
</a>
</g>
</g>
<!-- Node16&#45;&gt;Node13 -->
<g id="edge23_Node000016_Node000013" class="edge">
<title>Node16&#45;&gt;Node13</title>
<g id="a_edge23_Node000016_Node000013"><a xlink:title=" ">
<path fill="none" stroke="#63b8ff" d="M167,-173.62C141.09,-163.66 99.88,-147.81 70.47,-136.5"/>
<polygon fill="#63b8ff" stroke="#63b8ff" points="71.84,-133.27 61.25,-132.95 69.33,-139.81 71.84,-133.27"/>
</a>
</g>
</g>
<!-- Node16&#45;&gt;Node14 -->
<g id="edge22_Node000016_Node000014" class="edge">
<title>Node16&#45;&gt;Node14</title>
<g id="a_edge22_Node000016_Node000014"><a xlink:title=" ">
<path fill="none" stroke="#63b8ff" d="M181.23,-173.51C160.32,-153.95 112.21,-108.94 85.71,-84.15"/>
<polygon fill="#63b8ff" stroke="#63b8ff" points="88.12,-81.61 78.42,-77.33 83.33,-86.72 88.12,-81.61"/>
</a>
</g>
</g>
<!-- Node17&#45;&gt;Node4 -->
<g id="edge26_Node000017_Node000004" class="edge">
<title>Node17&#45;&gt;Node4</title>
<g id="a_edge26_Node000017_Node000004"><a xlink:title=" ">
<path fill="none" stroke="#63b8ff" d="M296.87,-111.59C283.55,-103.51 264.1,-91.71 248.55,-82.27"/>
<polygon fill="#63b8ff" stroke="#63b8ff" points="250.66,-79.46 240.29,-77.26 247.03,-85.44 250.66,-79.46"/>
</a>
</g>
</g>
<!-- Node18&#45;&gt;Node2 -->
<g id="edge28_Node000018_Node000002" class="edge">
<title>Node18&#45;&gt;Node2</title>
<g id="a_edge28_Node000018_Node000002"><a xlink:title=" ">
<path fill="none" stroke="#63b8ff" d="M473,-173.62C464.05,-164.68 450.36,-150.99 439.48,-140.1"/>
<polygon fill="#63b8ff" stroke="#63b8ff" points="442.1,-137.78 432.56,-133.18 437.15,-142.73 442.1,-137.78"/>
</a>
</g>
</g>
<!-- Node19&#45;&gt;Node2 -->
<g id="edge30_Node000019_Node000002" class="edge">
<title>Node19&#45;&gt;Node2</title>
<g id="a_edge30_Node000019_Node000002"><a xlink:title=" ">
<path fill="none" stroke="#63b8ff" d="M381.54,-167.55C389.02,-159.39 398.23,-149.33 406.02,-140.84"/>
<polygon fill="#63b8ff" stroke="#63b8ff" points="408.55,-143.26 412.73,-133.52 403.39,-138.53 408.55,-143.26"/>
</a>
</g>
</g>
</g>
</svg>
