<?xml version="1.0" encoding="UTF-8" standalone="no"?>
<!DOCTYPE svg PUBLIC "-//W3C//DTD SVG 1.1//EN"
 "http://www.w3.org/Graphics/SVG/1.1/DTD/svg11.dtd">
<!-- Generated by graphviz version 2.40.1 (20161225.0304)
 -->
<!-- Title: zrtos.h Pages: 1 -->
<svg width="446pt" height="140pt"
 viewBox="0.00 0.00 446.00 140.00" xmlns="http://www.w3.org/2000/svg" xmlns:xlink="http://www.w3.org/1999/xlink">
<g id="graph0" class="graph" transform="scale(1 1) rotate(0) translate(4 136)">
<title>zrtos.h</title>
<polygon fill="#ffffff" stroke="transparent" points="-4,4 -4,-136 442,-136 442,4 -4,4"/>
<!-- Node19 -->
<g id="node1" class="node">
<title>Node19</title>
<polygon fill="#bfbfbf" stroke="#000000" points="108,-112.5 108,-131.5 155,-131.5 155,-112.5 108,-112.5"/>
<text text-anchor="middle" x="131.5" y="-119.5" font-family="Helvetica,sans-Serif" font-size="10.00" fill="#000000">zrtos.h</text>
</g>
<!-- Node20 -->
<g id="node2" class="node">
<title>Node20</title>
<g id="a_node2"><a xlink:href="shell_8h.html" target="_top" xlink:title="shell.h">
<polygon fill="#ffffff" stroke="#000000" points="0,-56.5 0,-75.5 45,-75.5 45,-56.5 0,-56.5"/>
<text text-anchor="middle" x="22.5" y="-63.5" font-family="Helvetica,sans-Serif" font-size="10.00" fill="#000000">shell.h</text>
</a>
</g>
</g>
<!-- Node19&#45;&gt;Node20 -->
<g id="edge1" class="edge">
<title>Node19&#45;&gt;Node20</title>
<path fill="none" stroke="#191970" d="M103.4658,-107.5971C83.9254,-97.558 58.3908,-84.4393 41.2688,-75.6427"/>
<polygon fill="#191970" stroke="#191970" points="102.0194,-110.7889 112.5136,-112.2455 105.2183,-104.5625 102.0194,-110.7889"/>
</g>
<!-- Node21 -->
<g id="node3" class="node">
<title>Node21</title>
<g id="a_node3"><a xlink:href="stack_8h.html" target="_top" xlink:title="stack.h">
<polygon fill="#ffffff" stroke="#000000" points="63,-56.5 63,-75.5 112,-75.5 112,-56.5 63,-56.5"/>
<text text-anchor="middle" x="87.5" y="-63.5" font-family="Helvetica,sans-Serif" font-size="10.00" fill="#000000">stack.h</text>
</a>
</g>
</g>
<!-- Node19&#45;&gt;Node21 -->
<g id="edge2" class="edge">
<title>Node19&#45;&gt;Node21</title>
<path fill="none" stroke="#191970" d="M117.5231,-104.2112C110.0871,-94.7472 101.234,-83.4797 95.0764,-75.6427"/>
<polygon fill="#191970" stroke="#191970" points="114.9054,-106.5447 123.8358,-112.2455 120.4097,-102.22 114.9054,-106.5447"/>
</g>
<!-- Node23 -->
<g id="node5" class="node">
<title>Node23</title>
<g id="a_node5"><a xlink:href="task__mutex_8h.html" target="_top" xlink:title="task_mutex.h">
<polygon fill="#ffffff" stroke="#000000" points="239.5,-56.5 239.5,-75.5 315.5,-75.5 315.5,-56.5 239.5,-56.5"/>
<text text-anchor="middle" x="277.5" y="-63.5" font-family="Helvetica,sans-Serif" font-size="10.00" fill="#000000">task_mutex.h</text>
</a>
</g>
</g>
<!-- Node19&#45;&gt;Node23 -->
<g id="edge4" class="edge">
<title>Node19&#45;&gt;Node23</title>
<path fill="none" stroke="#191970" d="M164.9287,-109.178C191.5008,-98.986 228.0976,-84.9489 252.2575,-75.682"/>
<polygon fill="#191970" stroke="#191970" points="163.3657,-106.0289 155.2824,-112.878 165.8726,-112.5646 163.3657,-106.0289"/>
</g>
<!-- Node27 -->
<g id="node9" class="node">
<title>Node27</title>
<g id="a_node9"><a xlink:href="task__scheduler_8h.html" target="_top" xlink:title="task_scheduler.h">
<polygon fill="#ffffff" stroke="#000000" points="130,-56.5 130,-75.5 221,-75.5 221,-56.5 130,-56.5"/>
<text text-anchor="middle" x="175.5" y="-63.5" font-family="Helvetica,sans-Serif" font-size="10.00" fill="#000000">task_scheduler.h</text>
</a>
</g>
</g>
<!-- Node19&#45;&gt;Node27 -->
<g id="edge8" class="edge">
<title>Node19&#45;&gt;Node27</title>
<path fill="none" stroke="#191970" d="M145.4769,-104.2112C152.9129,-94.7472 161.766,-83.4797 167.9236,-75.6427"/>
<polygon fill="#191970" stroke="#191970" points="142.5903,-102.22 139.1642,-112.2455 148.0946,-106.5447 142.5903,-102.22"/>
</g>
<!-- Node22 -->
<g id="node4" class="node">
<title>Node22</title>
<g id="a_node4"><a xlink:href="vm_8h.html" target="_top" xlink:title="vm.h">
<polygon fill="#ffffff" stroke="#000000" points="68.5,-.5 68.5,-19.5 106.5,-19.5 106.5,-.5 68.5,-.5"/>
<text text-anchor="middle" x="87.5" y="-7.5" font-family="Helvetica,sans-Serif" font-size="10.00" fill="#000000">vm.h</text>
</a>
</g>
</g>
<!-- Node21&#45;&gt;Node22 -->
<g id="edge3" class="edge">
<title>Node21&#45;&gt;Node22</title>
<path fill="none" stroke="#191970" d="M87.5,-46.1575C87.5,-37.155 87.5,-26.9199 87.5,-19.6427"/>
<polygon fill="#191970" stroke="#191970" points="84.0001,-46.2455 87.5,-56.2455 91.0001,-46.2456 84.0001,-46.2455"/>
</g>
<!-- Node24 -->
<g id="node6" class="node">
<title>Node24</title>
<g id="a_node6"><a xlink:href="task__pthread_8h.html" target="_top" xlink:title="task_pthread.h">
<polygon fill="#ffffff" stroke="#000000" points="138,-.5 138,-19.5 219,-19.5 219,-.5 138,-.5"/>
<text text-anchor="middle" x="178.5" y="-7.5" font-family="Helvetica,sans-Serif" font-size="10.00" fill="#000000">task_pthread.h</text>
</a>
</g>
</g>
<!-- Node23&#45;&gt;Node24 -->
<g id="edge5" class="edge">
<title>Node23&#45;&gt;Node24</title>
<path fill="none" stroke="#191970" d="M251.0643,-51.0465C233.4492,-41.0824 210.8153,-28.2794 195.5469,-19.6427"/>
<polygon fill="#191970" stroke="#191970" points="249.8283,-54.3684 260.2555,-56.2455 253.2747,-48.2756 249.8283,-54.3684"/>
</g>
<!-- Node25 -->
<g id="node7" class="node">
<title>Node25</title>
<g id="a_node7"><a xlink:href="spi__sync_8h.html" target="_top" xlink:title="spi_sync.h">
<polygon fill="#ffffff" stroke="#000000" points="242.5,-.5 242.5,-19.5 306.5,-19.5 306.5,-.5 242.5,-.5"/>
<text text-anchor="middle" x="274.5" y="-7.5" font-family="Helvetica,sans-Serif" font-size="10.00" fill="#000000">spi_sync.h</text>
</a>
</g>
</g>
<!-- Node23&#45;&gt;Node25 -->
<g id="edge6" class="edge">
<title>Node23&#45;&gt;Node25</title>
<path fill="none" stroke="#191970" d="M276.437,-46.1575C275.9547,-37.155 275.4064,-26.9199 275.0166,-19.6427"/>
<polygon fill="#191970" stroke="#191970" points="272.9474,-46.4471 276.9774,-56.2455 279.9374,-46.0726 272.9474,-46.4471"/>
</g>
<!-- Node26 -->
<g id="node8" class="node">
<title>Node26</title>
<g id="a_node8"><a xlink:href="vheap__task__pthread_8h.html" target="_top" xlink:title="vheap_task_pthread.h">
<polygon fill="#ffffff" stroke="#000000" points="325,-.5 325,-19.5 438,-19.5 438,-.5 325,-.5"/>
<text text-anchor="middle" x="381.5" y="-7.5" font-family="Helvetica,sans-Serif" font-size="10.00" fill="#000000">vheap_task_pthread.h</text>
</a>
</g>
</g>
<!-- Node23&#45;&gt;Node26 -->
<g id="edge7" class="edge">
<title>Node23&#45;&gt;Node26</title>
<path fill="none" stroke="#191970" d="M304.5029,-51.46C323.1136,-41.4388 347.3299,-28.3993 363.5922,-19.6427"/>
<polygon fill="#191970" stroke="#191970" points="302.7608,-48.4228 295.6154,-56.2455 306.0795,-54.5861 302.7608,-48.4228"/>
</g>
<!-- Node27&#45;&gt;Node24 -->
<g id="edge9" class="edge">
<title>Node27&#45;&gt;Node24</title>
<path fill="none" stroke="#191970" d="M176.563,-46.1575C177.0453,-37.155 177.5936,-26.9199 177.9834,-19.6427"/>
<polygon fill="#191970" stroke="#191970" points="173.0626,-46.0726 176.0226,-56.2455 180.0526,-46.4471 173.0626,-46.0726"/>
</g>
</g>
</svg>
